<?xml version="1.0" encoding="UTF-8"?>
<svg width="120px" height="120px" viewBox="0 0 120 120" version="1.1" xmlns="http://www.w3.org/2000/svg" xmlns:xlink="http://www.w3.org/1999/xlink">
    <!-- Generator: Sketch 51.1 (57501) - http://www.bohemiancoding.com/sketch -->
    <title>Meat19</title>
    <desc>Created with Sketch.</desc>
    <defs>
        <polygon id="path-1" points="0 0.576237037 119.323529 0.576237037 119.323529 61.6296296 0 61.6296296"></polygon>
        <polygon id="path-3" points="0 0.576237037 119.323529 0.576237037 119.323529 58.1205333 0 58.1205333"></polygon>
        <polygon id="path-5" points="0.866588235 0.576237037 114.617647 0.576237037 114.617647 58.1205333 0.866588235 58.1205333"></polygon>
    </defs>
    <g id="Meat19" stroke="none" stroke-width="1" fill="none" fill-rule="evenodd">
        <g id="Page-1" transform="translate(0.000000, 28.000000)">
            <g id="Group-3" transform="translate(0.000000, 1.938726)">
                <mask id="mask-2" fill="white">
                    <use xlink:href="#path-1"></use>
                </mask>
                <g id="Clip-2"></g>
                <path d="M64.9889412,0.576237037 C54.5101176,0.576237037 44.7277647,2.24853333 36.4289412,5.13564444 C36.3830588,5.15223704 36.3371765,5.16527407 36.2877647,5.17712593 C34.5877647,5.58601481 32.8677647,6.06245926 31.136,6.61712593 C11.2336471,12.9827556 -2.53223529,26.6064593 0.391294118,37.0455704 C1.77129412,41.9747556 6.62541176,45.3110519 13.4571765,46.7913481 C17.1748235,47.5960889 20.7454118,49.0266074 23.9912941,51.1243852 C33.9501176,57.5587556 48.6195294,61.6298667 64.9889412,61.6298667 C94.9971765,61.6298667 119.324235,47.9623111 119.324235,31.1030519 C119.324235,14.2437926 94.9971765,0.576237037 64.9889412,0.576237037" id="Fill-1" fill="#7E2227" mask="url(#mask-2)"></path>
            </g>
            <g id="Group-6" transform="translate(0.000000, 1.938726)">
                <mask id="mask-4" fill="white">
                    <use xlink:href="#path-3"></use>
                </mask>
                <g id="Clip-5"></g>
                <path d="M64.9889412,0.576237037 C54.5101176,0.576237037 44.7277647,2.15253333 36.4289412,4.87371852 C36.3830588,4.88912593 36.3371765,4.90097778 36.2877647,4.91282963 C34.5877647,5.29801481 32.8677647,5.7472 31.136,6.26986667 C11.2336471,12.2704593 -2.53223529,25.1107556 0.391294118,34.950163 C1.77129412,39.5949037 6.62541176,42.7403852 13.4571765,44.134163 C17.1748235,44.8938667 20.7454118,46.2426074 23.9912941,48.2194963 C33.9501176,54.2840889 48.6195294,58.1205333 64.9889412,58.1205333 C94.9971765,58.1205333 119.324235,45.2387556 119.324235,29.3489778 C119.324235,13.4580148 94.9971765,0.576237037 64.9889412,0.576237037" id="Fill-4" fill="#9D4A24" mask="url(#mask-4)"></path>
            </g>
            <path d="M24.6190588,11.4321778 C23.1484706,17.4991407 21.1614118,22.2221037 20.1814118,21.9815111 C19.2002353,21.7397333 19.5967059,16.6256593 21.0684706,10.5586963 C22.5390588,4.49054815 24.5272941,-0.232414815 25.5072941,0.00936296296 C26.4884706,0.249955556 26.0908235,5.36402963 24.6190588,11.4321778" id="Fill-7" fill="#9AC444"></path>
            <path d="M30.7875294,13.8593185 C26.6051765,18.4708741 22.6122353,21.6530963 21.8663529,20.9680593 C21.1216471,20.281837 23.9063529,15.9879111 28.0887059,11.3763556 C32.2698824,6.7648 36.264,3.58257778 37.0087059,4.26761481 C37.7545882,4.95383704 34.9687059,9.24776296 30.7875294,13.8593185" id="Fill-9" fill="#9AC444"></path>
            <path d="M31.8030588,21.4391704 C25.6889412,22.4690963 20.596,22.4916148 20.4301176,21.4889481 C20.2630588,20.4862815 25.0854118,18.8376889 31.1995294,17.807763 C37.316,16.7766519 42.4077647,16.7553185 42.5736471,17.7579852 C42.7407059,18.7606519 37.9183529,20.4092444 31.8030588,21.4391704" id="Fill-11" fill="#9AC444"></path>
            <path d="M13.7287059,29.5247407 L13.604,29.4204444 C13.4157647,29.264 13.3898824,28.9831111 13.5451765,28.7946667 L20.9745882,19.7552593 C21.1287059,19.5668148 21.4075294,19.5407407 21.5957647,19.6971852 L21.7204706,19.8002963 C21.9075294,19.9567407 21.9334118,20.2388148 21.7792941,20.4260741 L14.3487059,29.4654815 C14.1945882,29.6539259 13.9145882,29.68 13.7287059,29.5247407" id="Fill-13" fill="#9AC444"></path>
            <path d="M39.2145882,37.2522667 L62.2028235,14.0937481" id="Fill-15" fill="#FFFFFF"></path>
            <path d="M39.2145882,37.2522667 C39.2145882,37.2522667 39.544,36.8611556 40.1216471,36.1761185 C40.7169412,35.5088593 41.5345882,34.5227852 42.5734118,33.3992296 C43.6145882,32.2768593 44.8028235,30.9399704 46.1228235,29.5568593 C47.4345882,28.1642667 48.8651765,26.7100444 50.2934118,25.254637 C51.7392941,23.8158222 53.1804706,22.3734519 54.5628235,21.0531556 C55.9345882,19.7210074 57.2628235,18.5251556 58.3769412,17.4762667 C59.4910588,16.428563 60.4710588,15.6072296 61.1345882,15.0075259 C61.8145882,14.4267852 62.2028235,14.0937481 62.2028235,14.0937481 C62.2028235,14.0937481 61.8734118,14.4860444 61.2969412,15.1710815 C60.7016471,15.8383407 59.8851765,16.8256 58.8451765,17.9479704 C57.804,19.0715259 56.6181176,20.4096 55.2957647,21.7903407 C53.984,23.1829333 52.5534118,24.6359704 51.124,26.0913778 C49.6792941,27.5301926 48.2357647,28.9713778 46.8534118,30.2928593 C45.4804706,31.6238222 44.1534118,32.8196741 43.0404706,33.868563 C41.9251765,34.9162667 40.9463529,35.7387852 40.2828235,36.3384889 C39.6028235,36.9204148 39.2145882,37.2522667 39.2145882,37.2522667" id="Fill-17" fill="#EF7C2F"></path>
            <path d="M50.012,37.2522667 L73.0002353,14.0937481" id="Fill-19" fill="#FFFFFF"></path>
            <path d="M50.012,37.2522667 C50.012,37.2522667 50.3414118,36.8611556 50.9190588,36.1761185 C51.5143529,35.5088593 52.332,34.5227852 53.3708235,33.3992296 C54.412,32.2768593 55.6002353,30.9399704 56.9202353,29.5568593 C58.232,28.1642667 59.6625882,26.7100444 61.0908235,25.254637 C62.5367059,23.8158222 63.9778824,22.3734519 65.3602353,21.0531556 C66.732,19.7210074 68.0602353,18.5251556 69.1743529,17.4762667 C70.2884706,16.428563 71.2684706,15.6072296 71.932,15.0075259 C72.612,14.4267852 73.0002353,14.0937481 73.0002353,14.0937481 C73.0002353,14.0937481 72.6708235,14.4860444 72.0943529,15.1710815 C71.4990588,15.8383407 70.6825882,16.8256 69.6425882,17.9479704 C68.6014118,19.0715259 67.4155294,20.4096 66.0931765,21.7903407 C64.7814118,23.1829333 63.3508235,24.6359704 61.9214118,26.0913778 C60.4767059,27.5301926 59.0331765,28.9713778 57.6508235,30.2928593 C56.2778824,31.6238222 54.9508235,32.8196741 53.8378824,33.868563 C52.7225882,34.9162667 51.7425882,35.7387852 51.0802353,36.3384889 C50.4002353,36.9204148 50.012,37.2522667 50.012,37.2522667" id="Fill-21" fill="#EF7C2F"></path>
            <path d="M60.8092941,37.2522667 L83.7975294,14.0937481" id="Fill-23" fill="#FFFFFF"></path>
            <path d="M60.8092941,37.2522667 C60.8092941,37.2522667 61.1387059,36.8611556 61.7163529,36.1761185 C62.3116471,35.5088593 63.1292941,34.5227852 64.1681176,33.3992296 C65.2092941,32.2768593 66.3963529,30.9399704 67.7175294,29.5568593 C69.0292941,28.1642667 70.4598824,26.7100444 71.8881176,25.254637 C73.334,23.8158222 74.7751765,22.3734519 76.1575294,21.0531556 C77.5292941,19.7210074 78.8575294,18.5251556 79.9716471,17.4762667 C81.0857647,16.428563 82.0657647,15.6072296 82.7292941,15.0075259 C83.4092941,14.4267852 83.7975294,14.0937481 83.7975294,14.0937481 C83.7975294,14.0937481 83.4681176,14.4860444 82.8916471,15.1710815 C82.2963529,15.8383407 81.4798824,16.8256 80.4398824,17.9479704 C79.3987059,19.0715259 78.2128235,20.4096 76.8904706,21.7903407 C75.5787059,23.1829333 74.1469412,24.6359704 72.7187059,26.0913778 C71.274,27.5301926 69.8304706,28.9713778 68.4481176,30.2928593 C67.0751765,31.6238222 65.7481176,32.8196741 64.6351765,33.868563 C63.5198824,34.9162667 62.5398824,35.7387852 61.8775294,36.3384889 C61.1975294,36.9204148 60.8092941,37.2522667 60.8092941,37.2522667" id="Fill-25" fill="#EF7C2F"></path>
            <path d="M68.1243529,44.6208 L91.1114118,21.4622815" id="Fill-27" fill="#FFFFFF"></path>
            <path d="M68.1243529,44.6208 C68.1243529,44.6208 68.4537647,44.2296889 69.0314118,43.5446519 C69.6255294,42.8773926 70.4431765,41.8913185 71.482,40.767763 C72.5231765,39.6453926 73.7114118,38.3085037 75.0325882,36.9253926 C76.3431765,35.5328 77.7737647,34.0785778 79.202,32.6231704 C80.6478824,31.1843556 82.0890588,29.7419852 83.4725882,28.4216889 C84.8431765,27.0895407 86.1714118,25.8936889 87.2855294,24.8448 C88.3996471,23.7970963 89.3808235,22.975763 90.0431765,22.3760593 C90.7231765,21.7953185 91.1114118,21.4622815 91.1114118,21.4622815 C91.1114118,21.4622815 90.782,21.8545778 90.2055294,22.5396148 C89.6102353,23.2068741 88.7937647,24.1941333 87.7549412,25.3165037 C86.7137647,26.4388741 85.5267059,27.7769481 84.2043529,29.1588741 C82.8937647,30.5514667 81.462,32.0045037 80.0337647,33.4599111 C78.5890588,34.8987259 77.1455294,36.3399111 75.762,37.6613926 C74.3890588,38.9923556 73.0631765,40.1882074 71.9490588,41.2370963 C70.8337647,42.2848 69.8549412,43.1073185 69.1914118,43.7070222 C68.5125882,44.2889481 68.1243529,44.6208 68.1243529,44.6208" id="Fill-29" fill="#EF7C2F"></path>
            <path d="M39.7374118,37.7788444 L62.7256471,14.6203259" id="Fill-31" fill="#FFFFFF"></path>
            <path d="M39.7374118,37.7788444 C39.7374118,37.7788444 40.0668235,37.3877333 40.6444706,36.7026963 C41.2397647,36.035437 42.0562353,35.0481778 43.0950588,33.9258074 C44.1374118,32.803437 45.3244706,31.4665481 46.6456471,30.083437 C47.9574118,28.6908444 49.388,27.2366222 50.8162353,25.7800296 C52.2609412,24.3424 53.7032941,22.9000296 55.0856471,21.5785481 C56.4574118,20.2475852 57.7856471,19.0517333 58.8997647,18.0028444 C60.0138824,16.9551407 60.9938824,16.1338074 61.6562353,15.5341037 C62.3362353,14.953363 62.7256471,14.6203259 62.7256471,14.6203259 C62.7256471,14.6203259 62.3962353,15.0126222 61.8185882,15.6976593 C61.2232941,16.3649185 60.408,17.3521778 59.368,18.4745481 C58.3268235,19.5969185 57.1409412,20.9349926 55.8185882,22.3169185 C54.5068235,23.7095111 53.0750588,25.1625481 51.6468235,26.6179556 C50.2021176,28.0567704 48.7585882,29.4979556 47.3762353,30.819437 C46.0032941,32.1492148 44.6762353,33.3462519 43.5621176,34.3951407 C42.448,35.4428444 41.468,36.265363 40.8056471,36.8650667 C40.1256471,37.4458074 39.7374118,37.7788444 39.7374118,37.7788444" id="Fill-33" fill="#6C3A0E"></path>
            <path d="M50.5347059,37.7788444 L73.5229412,14.6203259" id="Fill-35" fill="#FFFFFF"></path>
            <path d="M50.5347059,37.7788444 C50.5347059,37.7788444 50.8641176,37.3877333 51.4417647,36.7026963 C52.0370588,36.035437 52.8535294,35.0481778 53.8923529,33.9258074 C54.9335294,32.803437 56.1217647,31.4665481 57.4429412,30.083437 C58.7547059,28.6908444 60.1852941,27.2366222 61.6123529,25.7800296 C63.0594118,24.3424 64.5005882,22.9000296 65.8829412,21.5785481 C67.2547059,20.2475852 68.5829412,19.0517333 69.6958824,18.0028444 C70.8111765,16.9551407 71.7911765,16.1338074 72.4535294,15.5341037 C73.1335294,14.953363 73.5229412,14.6203259 73.5229412,14.6203259 C73.5229412,14.6203259 73.1935294,15.0126222 72.6158824,15.6976593 C72.0205882,16.3649185 71.2052941,17.3521778 70.1652941,18.4745481 C69.1241176,19.5969185 67.9370588,20.9349926 66.6158824,22.3169185 C65.3041176,23.7095111 63.8723529,25.1625481 62.4441176,26.6179556 C60.9994118,28.0567704 59.5558824,29.4979556 58.1735294,30.819437 C56.8005882,32.1492148 55.4735294,33.3462519 54.3594118,34.3951407 C53.2452941,35.4428444 52.2652941,36.265363 51.6029412,36.8650667 C50.9229412,37.4458074 50.5347059,37.7788444 50.5347059,37.7788444" id="Fill-37" fill="#6C3A0E"></path>
            <path d="M61.332,37.7788444 L84.3202353,14.6203259" id="Fill-39" fill="#FFFFFF"></path>
            <path d="M61.332,37.7788444 C61.332,37.7788444 61.6614118,37.3877333 62.2390588,36.7026963 C62.8343529,36.035437 63.6508235,35.0481778 64.6896471,33.9258074 C65.7308235,32.803437 66.9190588,31.4665481 68.2402353,30.083437 C69.552,28.6908444 70.9825882,27.2366222 72.4108235,25.7800296 C73.8567059,24.3424 75.2978824,22.9000296 76.6802353,21.5785481 C78.052,20.2475852 79.3802353,19.0517333 80.4943529,18.0028444 C81.6084706,16.9551407 82.5884706,16.1338074 83.2508235,15.5341037 C83.9308235,14.953363 84.3202353,14.6203259 84.3202353,14.6203259 C84.3202353,14.6203259 83.9908235,15.0126222 83.4131765,15.6976593 C82.8178824,16.3649185 82.0025882,17.3521778 80.9625882,18.4745481 C79.9214118,19.5969185 78.7343529,20.9349926 77.4131765,22.3169185 C76.1014118,23.7095111 74.6696471,25.1625481 73.2414118,26.6179556 C71.7967059,28.0567704 70.3531765,29.4979556 68.9708235,30.819437 C67.5978824,32.1492148 66.2708235,33.3462519 65.1567059,34.3951407 C64.0425882,35.4428444 63.0625882,36.265363 62.4002353,36.8650667 C61.7202353,37.4458074 61.332,37.7788444 61.332,37.7788444" id="Fill-41" fill="#6C3A0E"></path>
            <path d="M68.6458824,45.1469037 L91.6341176,21.9883852" id="Fill-43" fill="#FFFFFF"></path>
            <path d="M68.6458824,45.1469037 C68.6458824,45.1469037 68.9752941,44.7557926 69.5529412,44.0707556 C70.1482353,43.4034963 70.9658824,42.4174222 72.0047059,41.2938667 C73.0458824,40.1714963 74.2341176,38.8346074 75.5541176,37.4514963 C76.8658824,36.0600889 78.2964706,34.6046815 79.7247059,33.1492741 C81.1705882,31.7104593 82.6117647,30.2680889 83.9941176,28.9477926 C85.3658824,27.6156444 86.6941176,26.4209778 87.8082353,25.3709037 C88.9223529,24.3232 89.9023529,23.5018667 90.5658824,22.902163 C91.2458824,22.3214222 91.6341176,21.9883852 91.6341176,21.9883852 C91.6341176,21.9883852 91.3047059,22.3806815 90.7282353,23.0657185 C90.1329412,23.7329778 89.3164706,24.720237 88.2764706,25.8426074 C87.2352941,26.966163 86.0494118,28.304237 84.7270588,29.6849778 C83.4152941,31.0775704 81.9847059,32.5306074 80.5564706,33.9860148 C79.1105882,35.4248296 77.6670588,36.8660148 76.2847059,38.1874963 C74.9117647,39.5184593 73.5847059,40.7154963 72.4717647,41.7643852 C71.3564706,42.8109037 70.3776471,43.6334222 69.7141176,44.2331259 C69.0341176,44.8150519 68.6458824,45.1469037 68.6458824,45.1469037" id="Fill-45" fill="#6C3A0E"></path>
            <g id="Group-49" transform="translate(4.705882, 1.938726)">
                <mask id="mask-6" fill="white">
                    <use xlink:href="#path-5"></use>
                </mask>
                <g id="Clip-48"></g>
                <path d="M60.2830588,0.576237037 C49.9171765,0.576237037 40.2407059,2.1229037 31.9983529,4.78957037 C40.9948235,3.70275556 50.1795294,3.54512593 58.4854118,3.9634963 C71.8877647,4.64023704 90.1701176,8.71016296 90.1501176,25.6749037 C90.1312941,40.1163852 75.2148235,44.7990519 63.5348235,46.1383111 C49.2101176,47.782163 34.5465882,46.1205333 20.3348235,44.1756444 C14.0042353,43.3092741 7.31129412,42.5685333 0.866588235,41.2055704 C3.00423529,42.5211259 5.67482353,43.5072 8.75129412,44.134163 C12.4689412,44.8938667 16.0395294,46.2426074 19.2854118,48.2194963 C29.2442353,54.2840889 43.9136471,58.1205333 60.2830588,58.1205333 C90.2912941,58.1205333 114.618353,45.2387556 114.618353,29.3489778 C114.618353,13.4580148 90.2912941,0.576237037 60.2830588,0.576237037" id="Fill-47" fill="#8B401F" mask="url(#mask-6)"></path>
            </g>
        </g>
    </g>
</svg>