<?xml version="1.0" encoding="UTF-8"?>
<svg width="120px" height="120px" viewBox="0 0 120 120" version="1.1" xmlns="http://www.w3.org/2000/svg" xmlns:xlink="http://www.w3.org/1999/xlink">
    <!-- Generator: Sketch 51.1 (57501) - http://www.bohemiancoding.com/sketch -->
    <title>Car83</title>
    <desc>Created with Sketch.</desc>
    <defs>
        <polygon id="path-1" points="0.26352 0.351330612 24.2104261 0.351330612 24.2104261 6.15855673 0.26352 6.15855673"></polygon>
        <polygon id="path-3" points="0.318930612 0.384127347 107.028 0.384127347 107.028 7.82731102 0.318930612 7.82731102"></polygon>
        <polygon id="path-5" points="0.31915102 0.138592653 107.028 0.138592653 107.028 3.85996408 0.31915102 3.85996408"></polygon>
    </defs>
    <g id="Car83" stroke="none" stroke-width="1" fill="none" fill-rule="evenodd">
        <g id="Group" transform="translate(6.000000, 20.000000)">
            <g id="Group-64" transform="translate(41.436735, 0.971118)">
                <mask id="mask-2" fill="white">
                    <use xlink:href="#path-1"></use>
                </mask>
                <g id="Clip-63"></g>
                <path d="M24.2104261,6.15855673 L0.26352,6.15855673 L1.39862204,1.8024098 C1.6216751,0.947666939 2.39310367,0.351242449 3.27649959,0.351242449 L21.1974465,0.351242449 C22.0808424,0.351242449 22.852271,0.947666939 23.0753241,1.8024098 L24.2104261,6.15855673 Z" id="Fill-62" fill="#E29233" mask="url(#mask-2)"></path>
            </g>
            <path d="M21.0485388,33.887711 C20.7302694,30.3360539 18.170449,27.4645763 14.6787429,26.7420784 L12.1669714,26.2223559 L12.5240327,24.4974416 L15.0353633,25.0171641 C19.293649,25.8979151 22.4146286,29.39976 22.8025469,33.7307804 L21.0485388,33.887711 Z" id="Fill-66" fill="#F2F2F2"></path>
            <path d="M18.4225518,24.4895951 C18.4225518,27.2433747 16.1906988,29.4756686 13.4364784,29.4756686 C10.682258,29.4756686 8.4504049,27.2433747 8.4504049,24.4895951 C8.4504049,21.7353747 10.682258,19.5030808 13.4364784,19.5030808 C16.1906988,19.5030808 18.4225518,21.7353747 18.4225518,24.4895951" id="Fill-68" fill="#CCCCCC"></path>
            <path d="M18.4225518,24.4895951 C18.4225518,23.9288767 18.3260131,23.3919624 18.1554171,22.888991 C17.6524457,22.7179543 17.1150906,22.6214155 16.5548131,22.6214155 C13.8010335,22.6214155 11.5682988,24.8537094 11.5682988,27.607489 C11.5682988,28.1682073 11.6652784,28.7051216 11.8358743,29.2085339 C12.3384049,29.3791298 12.87576,29.4756686 13.4364784,29.4756686 C16.1906988,29.4756686 18.4225518,27.2433747 18.4225518,24.4895951" id="Fill-70" fill="#B7B7B7"></path>
            <path d="M85.3388229,33.887711 C85.6570922,30.3360539 88.2169127,27.4645763 91.7086188,26.7420784 L94.2199494,26.2223559 L93.863329,24.4974416 L91.3519984,25.0171641 C87.0937127,25.8979151 83.9722922,29.39976 83.5848147,33.7307804 L85.3388229,33.887711 Z" id="Fill-72" fill="#F2F2F2"></path>
            <path d="M87.964369,24.4895951 C87.964369,27.2433747 90.1966629,29.4756686 92.9508833,29.4756686 C95.7046629,29.4756686 97.9369567,27.2433747 97.9369567,24.4895951 C97.9369567,21.7353747 95.7046629,19.5030808 92.9508833,19.5030808 C90.1966629,19.5030808 87.964369,21.7353747 87.964369,24.4895951" id="Fill-74" fill="#CCCCCC"></path>
            <path d="M87.964369,24.4895951 C87.964369,23.9288767 88.0613486,23.3919624 88.2315037,22.888991 C88.7349159,22.7179543 89.2718302,22.6214155 89.8325486,22.6214155 C92.5863282,22.6214155 94.8190629,24.8537094 94.8190629,27.607489 C94.8190629,28.1682073 94.7220833,28.7051216 94.5514873,29.2085339 C94.0485159,29.3791298 93.5116016,29.4756686 92.9508833,29.4756686 C90.1966629,29.4756686 87.964369,27.2433747 87.964369,24.4895951" id="Fill-76" fill="#B7B7B7"></path>
            <path d="M18.3631739,79.4861927 L12.5898024,79.4861927 C10.066129,79.4861927 8.01941878,77.4394824 8.01941878,74.915809 L8.01941878,53.7032865 L22.9331167,53.7032865 L22.9331167,74.915809 C22.9331167,77.4394824 20.8872882,79.4861927 18.3631739,79.4861927" id="Fill-78" fill="#42210B"></path>
            <path d="M22.9332049,74.9157208 L22.9332049,53.7031984 L15.4763559,53.7031984 L15.4763559,79.4861045 L18.363262,79.4861045 C20.8869355,79.4861045 22.9332049,77.4398351 22.9332049,74.9157208" id="Fill-80" fill="#592C16"></path>
            <path d="M94.2150122,79.4861927 L88.4420816,79.4861927 C85.9179673,79.4861927 83.871698,77.4394824 83.871698,74.915809 L83.871698,53.7032865 L98.7853959,53.7032865 L98.7853959,74.915809 C98.7853959,77.4394824 96.7391265,79.4861927 94.2150122,79.4861927" id="Fill-82" fill="#42210B"></path>
            <path d="M98.78544,74.9157208 L98.78544,53.7031984 L91.328591,53.7031984 L91.328591,79.4861045 L94.2150563,79.4861045 C96.7387298,79.4861045 98.78544,77.4398351 98.78544,74.9157208" id="Fill-84" fill="#592C16"></path>
            <path d="M97.2477404,36.8275151 L86.7580751,30.1041845 L83.77992,11.5321518 C82.5399037,8.77264163 79.795822,6.99747429 76.7700588,6.99747429 L29.616818,6.99747429 C26.5914955,6.99747429 23.8474139,8.77264163 22.6073976,11.5321518 L19.6292424,30.1041845 L9.13957714,36.8275151 C6.32011592,39.4111396 4.71554449,43.0597763 4.71554449,46.8834171 L4.71554449,57.376609 C4.71554449,63.0375722 9.30444245,67.6273518 14.9658465,67.6273518 L91.421471,67.6273518 C97.0824343,67.6273518 101.671773,63.0375722 101.671773,57.376609 L101.671773,46.8834171 C101.671773,43.0597763 100.066761,39.4111396 97.2477404,36.8275151" id="Fill-86" fill="#F4A53B"></path>
            <path d="M19.6356784,30.0641584 L19.6290661,30.1042727 L9.13940082,36.8276033 C6.32038041,39.4112278 4.71536816,43.0594237 4.71536816,46.8835053 L4.71536816,57.3766971 C4.71536816,63.0376604 9.30426612,67.6269992 14.9656702,67.6269992 L31.5103886,67.6269992 C35.10216,63.5745747 37.2864049,58.2459869 37.2864049,52.4051706 C37.2864049,41.5518318 29.7554988,32.4630808 19.6356784,30.0641584" id="Fill-88" fill="#E29233"></path>
            <path d="M101.671861,57.3766971 L101.671861,46.8835053 C101.671861,43.0594237 100.066408,39.4112278 97.2478286,36.8276033 L86.7581633,30.1042727 L86.751551,30.0641584 C76.6317306,32.4630808 69.1008245,41.5518318 69.1008245,52.4051706 C69.1008245,58.2459869 71.2850694,63.5745747 74.8764,67.6269992 L91.4215592,67.6269992 C97.0825224,67.6269992 101.671861,63.0376604 101.671861,57.3766971" id="Fill-90" fill="#E29233"></path>
            <g id="Group-94" transform="translate(0.000000, 56.513976)">
                <mask id="mask-4" fill="white">
                    <use xlink:href="#path-3"></use>
                </mask>
                <g id="Clip-93"></g>
                <path d="M103.306849,7.82731102 L4.04074286,7.82731102 C1.98521633,7.82731102 0.318930612,6.16102531 0.318930612,4.10593959 C0.318930612,2.05041306 1.98521633,0.384127347 4.04074286,0.384127347 L103.306849,0.384127347 C105.361935,0.384127347 107.02822,2.05041306 107.02822,4.10593959 C107.02822,6.16102531 105.361935,7.82731102 103.306849,7.82731102" id="Fill-92" fill="#E6E6E6" mask="url(#mask-4)"></path>
            </g>
            <g id="Group-97" transform="translate(0.000000, 60.481322)">
                <mask id="mask-6" fill="white">
                    <use xlink:href="#path-5"></use>
                </mask>
                <g id="Clip-96"></g>
                <path d="M4.04052245,3.85996408 L103.306629,3.85996408 C105.362155,3.85996408 107.028441,2.19367837 107.028441,0.138592653 L0.31915102,0.138592653 C0.31915102,2.19367837 1.98543673,3.85996408 4.04052245,3.85996408" id="Fill-95" fill="#B3B3B3" mask="url(#mask-6)"></path>
            </g>
            <path d="M80.9422971,46.6610694 C80.9422971,50.8391265 84.3295298,54.2263592 88.5075869,54.2263592 C92.6856441,54.2263592 96.0728767,50.8391265 96.0728767,46.6610694 C96.0728767,42.4825714 92.6856441,39.0953388 88.5075869,39.0953388 C84.3295298,39.0953388 80.9422971,42.4825714 80.9422971,46.6610694" id="Fill-98" fill="#FFFFFF"></path>
            <path d="M85.6212098,46.8186171 C85.6212098,48.4968049 86.9868588,49.8624539 88.6650465,49.8624539 C90.3436751,49.8624539 91.7088833,48.4968049 91.7088833,46.8186171 C91.7088833,45.1399886 90.3436751,43.7747804 88.6650465,43.7747804 C86.9868588,43.7747804 85.6212098,45.1399886 85.6212098,46.8186171 M82.9031363,46.8186171 C82.9031363,43.6412131 85.4880833,41.0562661 88.6650465,41.0562661 C91.8420098,41.0562661 94.4273976,43.6412131 94.4273976,46.8186171 C94.4273976,49.9955804 91.8420098,52.5805273 88.6650465,52.5805273 C85.4880833,52.5805273 82.9031363,49.9955804 82.9031363,46.8186171" id="Fill-100" fill="#CCCCCC"></path>
            <path d="M91.5563167,52.4052588 C91.5563167,53.8700914 92.7434351,55.0580914 94.2087086,55.0580914 C95.6735412,55.0580914 96.8611004,53.8700914 96.8611004,52.4052588 C96.8611004,50.9404261 95.6735412,49.7528669 94.2087086,49.7528669 C92.7434351,49.7528669 91.5563167,50.9404261 91.5563167,52.4052588" id="Fill-102" fill="#EC5C44"></path>
            <path d="M92.3445404,51.992831 C92.3445404,52.7946759 92.9947445,53.4444392 93.7961486,53.4444392 C94.5979935,53.4444392 95.2481976,52.7946759 95.2481976,51.992831 C95.2481976,51.1909861 94.5979935,50.5412229 93.7961486,50.5412229 C92.9947445,50.5412229 92.3445404,51.1909861 92.3445404,51.992831" id="Fill-104" fill="#CC3A27"></path>
            <path d="M25.4450645,46.6610694 C25.4450645,50.8391265 22.0578318,54.2263592 17.8797747,54.2263592 C13.7012767,54.2263592 10.3144849,50.8391265 10.3144849,46.6610694 C10.3144849,42.4825714 13.7012767,39.0953388 17.8797747,39.0953388 C22.0578318,39.0953388 25.4450645,42.4825714 25.4450645,46.6610694" id="Fill-106" fill="#FFFFFF"></path>
            <path d="M17.7221829,43.7748686 C16.0435543,43.7748686 14.6783461,45.1400767 14.6783461,46.8187053 C14.6783461,48.4968931 16.0435543,49.862542 17.7221829,49.862542 C19.4008114,49.862542 20.7655788,48.4968931 20.7655788,46.8187053 C20.7655788,45.1400767 19.4008114,43.7748686 17.7221829,43.7748686 M17.7221829,52.5806155 C14.5447788,52.5806155 11.9602727,49.9956686 11.9602727,46.8187053 C11.9602727,43.6413012 14.5447788,41.0563543 17.7221829,41.0563543 C20.8991461,41.0563543 23.4840931,43.6413012 23.4840931,46.8187053 C23.4840931,49.9956686 20.8991461,52.5806155 17.7221829,52.5806155" id="Fill-108" fill="#CCCCCC"></path>
            <path d="M14.8310449,52.4052588 C14.8310449,53.8700914 13.6434857,55.0580914 12.1782122,55.0580914 C10.7133796,55.0580914 9.52626122,53.8700914 9.52626122,52.4052588 C9.52626122,50.9404261 10.7133796,49.7528669 12.1782122,49.7528669 C13.6434857,49.7528669 14.8310449,50.9404261 14.8310449,52.4052588" id="Fill-110" fill="#EC5C44"></path>
            <path d="M14.0428212,51.992831 C14.0428212,52.7946759 13.3926171,53.4444392 12.5907722,53.4444392 C11.7893682,53.4444392 11.1391641,52.7946759 11.1391641,51.992831 C11.1391641,51.1909861 11.7893682,50.5412229 12.5907722,50.5412229 C13.3926171,50.5412229 14.0428212,51.1909861 14.0428212,51.992831" id="Fill-112" fill="#CC3A27"></path>
            <path d="M83.871742,29.1876833 L22.51584,29.1876833 L24.822191,13.0780506 C25.1805747,10.7672914 27.1699788,9.06265469 29.5085094,9.06265469 L76.8790727,9.06265469 C79.2167216,9.06265469 81.2065665,10.7672914 81.5649502,13.0780506 L83.871742,29.1876833 Z" id="Fill-114" fill="#192024"></path>
            <path d="M63.131422,66.0546073 L44.2159935,66.0546073 C42.3121078,66.0546073 40.7692506,64.5117502 40.7692506,62.6083053 L40.7692506,58.6312604 C40.7692506,56.7278155 42.3121078,55.1849584 44.2159935,55.1849584 L63.131422,55.1849584 C65.0348669,55.1849584 66.5777241,56.7278155 66.5777241,58.6312604 L66.5777241,62.6083053 C66.5777241,64.5117502 65.0348669,66.0546073 63.131422,66.0546073" id="Fill-116" fill="#FFFFFF"></path>
            <path d="M63.131422,55.1848702 L44.2159935,55.1848702 C42.3121078,55.1848702 40.7692506,56.7277273 40.7692506,58.6311722 L40.7692506,60.9833682 L66.5777241,60.9833682 L66.5777241,58.6311722 C66.5777241,56.7277273 65.0348669,55.1848702 63.131422,55.1848702" id="Fill-118" fill="#F2F2F2"></path>
            <polygon id="Fill-120" fill="#374B54" points="41.9971886 29.1876833 62.0393437 9.06265469 58.0345273 9.06265469 37.9928131 29.1876833"></polygon>
            <polygon id="Fill-122" fill="#4E7684" points="50.4730286 29.1876833 70.5147429 9.06265469 66.5103673 9.06265469 46.4682122 29.1876833"></polygon>
            <path d="M58.9479429,29.1876833 L78.6422939,9.40605061 C78.0948,9.18564245 77.499698,9.06265469 76.8790286,9.06265469 L74.9852816,9.06265469 L54.9435673,29.1876833 L58.9479429,29.1876833 Z" id="Fill-124" fill="#374B54"></path>
            <path d="M69.7621812,53.2765322 L36.2354547,53.2765322 C34.6917159,53.2765322 33.3481078,52.221218 32.9817894,50.7215608 L32.1861159,47.4621649 C32.0327118,46.8344424 32.5083527,46.2292016 33.1545894,46.2292016 L72.8434873,46.2292016 C73.4897241,46.2292016 73.9649241,46.8344424 73.8119608,47.4621649 L73.0158465,50.7215608 C72.649969,52.221218 71.30592,53.2765322 69.7621812,53.2765322" id="Fill-126" fill="#FFFFFF"></path>
            <path d="M36.2355869,53.2763118 L69.7623135,53.2763118 C71.3060522,53.2763118 72.6496604,52.2209976 73.0159788,50.7217812 L73.1517502,50.1659118 L32.846591,50.1659118 L32.9819216,50.7217812 C33.3477992,52.2209976 34.6918482,53.2763118 36.2355869,53.2763118" id="Fill-128" fill="#E6E6E6"></path>
            <path d="M36.0982727,52.2696196 C35.6160196,52.2696196 35.2258971,51.8790563 35.2258971,51.3968033 L35.2258971,48.1087543 C35.2258971,47.6265012 35.6160196,47.235938 36.0982727,47.235938 C36.5800849,47.235938 36.9706482,47.6265012 36.9706482,48.1087543 L36.9706482,51.3968033 C36.9706482,51.8790563 36.5800849,52.2696196 36.0982727,52.2696196" id="Fill-130" fill="#B3B3B3"></path>
            <path d="M39.4784522,52.2696196 C38.9961992,52.2696196 38.6060767,51.8790563 38.6060767,51.3968033 L38.6060767,48.1087543 C38.6060767,47.6265012 38.9961992,47.235938 39.4784522,47.235938 C39.9602645,47.235938 40.3508278,47.6265012 40.3508278,48.1087543 L40.3508278,51.3968033 C40.3508278,51.8790563 39.9602645,52.2696196 39.4784522,52.2696196" id="Fill-132" fill="#B3B3B3"></path>
            <path d="M42.8585878,52.2696196 C42.3763347,52.2696196 41.9862122,51.8790563 41.9862122,51.3968033 L41.9862122,48.1087543 C41.9862122,47.6265012 42.3763347,47.235938 42.8585878,47.235938 C43.3404,47.235938 43.7309633,47.6265012 43.7309633,48.1087543 L43.7309633,51.3968033 C43.7309633,51.8790563 43.3404,52.2696196 42.8585878,52.2696196" id="Fill-134" fill="#B3B3B3"></path>
            <path d="M46.2387673,52.2696196 C45.7565143,52.2696196 45.3663918,51.8790563 45.3663918,51.3968033 L45.3663918,48.1087543 C45.3663918,47.6265012 45.7565143,47.235938 46.2387673,47.235938 C46.7205796,47.235938 47.1111429,47.6265012 47.1111429,48.1087543 L47.1111429,51.3968033 C47.1111429,51.8790563 46.7205796,52.2696196 46.2387673,52.2696196" id="Fill-136" fill="#B3B3B3"></path>
            <path d="M49.6189469,52.2696196 C49.1366939,52.2696196 48.7465714,51.8790563 48.7465714,51.3968033 L48.7465714,48.1087543 C48.7465714,47.6265012 49.1366939,47.235938 49.6189469,47.235938 C50.1007592,47.235938 50.4913224,47.6265012 50.4913224,48.1087543 L50.4913224,51.3968033 C50.4913224,51.8790563 50.1007592,52.2696196 49.6189469,52.2696196" id="Fill-138" fill="#B3B3B3"></path>
            <path d="M52.9990824,52.2696196 C52.5168294,52.2696196 52.1267069,51.8790563 52.1267069,51.3968033 L52.1267069,48.1087543 C52.1267069,47.6265012 52.5168294,47.235938 52.9990824,47.235938 C53.4808947,47.235938 53.871458,47.6265012 53.871458,48.1087543 L53.871458,51.3968033 C53.871458,51.8790563 53.4808947,52.2696196 52.9990824,52.2696196" id="Fill-140" fill="#B3B3B3"></path>
            <path d="M56.379262,52.2696196 C55.897009,52.2696196 55.5064457,51.8790563 55.5064457,51.3968033 L55.5064457,48.1087543 C55.5064457,47.6265012 55.897009,47.235938 56.379262,47.235938 C56.8610743,47.235938 57.2516376,47.6265012 57.2516376,48.1087543 L57.2516376,51.3968033 C57.2516376,51.8790563 56.8610743,52.2696196 56.379262,52.2696196" id="Fill-142" fill="#B3B3B3"></path>
            <path d="M59.7594416,52.2696196 C59.2771886,52.2696196 58.8866253,51.8790563 58.8866253,51.3968033 L58.8866253,48.1087543 C58.8866253,47.6265012 59.2771886,47.235938 59.7594416,47.235938 C60.2412539,47.235938 60.6318171,47.6265012 60.6318171,48.1087543 L60.6318171,51.3968033 C60.6318171,51.8790563 60.2412539,52.2696196 59.7594416,52.2696196" id="Fill-144" fill="#B3B3B3"></path>
            <path d="M63.1391804,52.2696196 C62.6573682,52.2696196 62.2668049,51.8790563 62.2668049,51.3968033 L62.2668049,48.1087543 C62.2668049,47.6265012 62.6573682,47.235938 63.1391804,47.235938 C63.6214335,47.235938 64.0119967,47.6265012 64.0119967,48.1087543 L64.0119967,51.3968033 C64.0119967,51.8790563 63.6214335,52.2696196 63.1391804,52.2696196" id="Fill-146" fill="#B3B3B3"></path>
            <path d="M66.5193159,52.2696196 C66.0375037,52.2696196 65.6469404,51.8790563 65.6469404,51.3968033 L65.6469404,48.1087543 C65.6469404,47.6265012 66.0375037,47.235938 66.5193159,47.235938 C67.001569,47.235938 67.3916914,47.6265012 67.3916914,48.1087543 L67.3916914,51.3968033 C67.3916914,51.8790563 67.001569,52.2696196 66.5193159,52.2696196" id="Fill-148" fill="#B3B3B3"></path>
            <path d="M69.8994955,52.2696196 C69.4176833,52.2696196 69.02712,51.8790563 69.02712,51.3968033 L69.02712,48.1087543 C69.02712,47.6265012 69.4176833,47.235938 69.8994955,47.235938 C70.3817486,47.235938 70.771871,47.6265012 70.771871,48.1087543 L70.771871,51.3968033 C70.771871,51.8790563 70.3817486,52.2696196 69.8994955,52.2696196" id="Fill-150" fill="#B3B3B3"></path>
            <path d="M56.7752914,40.7466367 C56.7752914,42.459649 55.38672,43.8482204 53.6737078,43.8482204 C51.9606955,43.8482204 50.5721241,42.459649 50.5721241,40.7466367 C50.5721241,39.0336245 51.9606955,37.6450531 53.6737078,37.6450531 C55.38672,37.6450531 56.7752914,39.0336245 56.7752914,40.7466367" id="Fill-152" fill="#FFFFFF"></path>
        </g>
    </g>
</svg>