<?xml version="1.0" encoding="UTF-8"?>
<svg width="120px" height="120px" viewBox="0 0 120 120" version="1.1" xmlns="http://www.w3.org/2000/svg" xmlns:xlink="http://www.w3.org/1999/xlink">
    <!-- Generator: Sketch 51.1 (57501) - http://www.bohemiancoding.com/sketch -->
    <title>Muffin1</title>
    <desc>Created with Sketch.</desc>
    <defs>
        <polygon id="path-1" points="3.34577031e-05 0.0567763713 119.875112 0.0567763713 119.875112 44.0506329 3.34577031e-05 44.0506329"></polygon>
    </defs>
    <g id="Muffin1" stroke="none" stroke-width="1" fill="none" fill-rule="evenodd">
        <g id="Page-1" transform="translate(60.000000, 60.000000) scale(-1, 1) translate(-60.000000, -60.000000) translate(0.000000, 31.000000)">
            <path d="M119.28264,13.0204861 C118.980073,12.1707983 118.537466,11.5095494 117.900807,11.1825958 C117.877833,11.1710937 117.852904,11.1620388 117.830175,11.1507814 C118.539422,11.7528068 119.009646,12.3790599 119.28264,13.0204861" id="Fill-1" fill="#EBB87F"></path>
            <g id="Group-5" transform="translate(0.000000, 13.895772)">
                <mask id="mask-2" fill="white">
                    <use xlink:href="#path-1"></use>
                </mask>
                <g id="Clip-4"></g>
                <path d="M119.54422,0.0567763713 C119.582346,0.325729958 119.595299,0.596396624 119.576725,0.86828692 C119.315218,4.80078481 114.483935,8.42688608 111.960269,11.0099662 C108.637418,14.4104304 105.289882,17.7918059 102.26813,21.4692996 C97.1966029,27.6427511 91.8965621,34.4177384 83.5293116,35.7243291 C75.2862159,37.0115865 66.8099633,34.2699241 58.678558,33.2746245 C46.8547699,31.8278059 34.8076008,30.4656624 23.1592912,28.2440422 C16.1782729,26.9122447 4.87578819,27.5781435 1.55147047,20.2549705 C0.905034623,19.0259578 0.639617108,17.8471139 0.661613035,16.7213755 C-0.389547862,20.4855021 -0.255372709,24.8063797 1.55147047,28.2440422 C4.87578819,35.5669705 16.1782729,34.9013165 23.1592912,36.2328692 C34.8076008,38.4544895 46.8547699,39.8168776 58.678558,41.2634515 C66.8099633,42.2589958 75.2862159,45.0004135 83.5293116,43.7134008 C91.8965621,42.4065654 97.1966029,35.6315781 102.26813,29.4581266 C105.289882,25.7806329 108.637418,22.3992574 111.960269,18.9987932 C114.483935,16.4154684 119.315218,12.7898565 119.576725,8.85711392 C119.659332,7.62614346 120.223894,3.12881857 119.54422,0.0567763713" id="Fill-3" fill="#EBB87F" mask="url(#mask-2)"></path>
            </g>
            <path d="M19.0782648,16.9725376 C21.0041303,15.8409257 22.9705662,14.6850861 24.9162281,13.4604785 C27.4628676,13.6210186 30.0085295,13.7957527 32.5441711,14.020411 C34.8209939,14.2223097 37.0997719,14.4949342 39.3765947,14.8174827 C39.2810346,14.9104785 39.1847413,15.0029848 39.0886925,15.0959806 C38.8066558,15.3700734 38.5207088,15.6370692 38.2345173,15.9045544 C35.3955764,18.5593392 32.3752912,20.917027 29.2621344,23.2639468 C29.0807902,23.4000143 28.9040896,23.5392633 28.7251894,23.6772886 C27.5938656,23.4129848 26.4610754,23.156757 25.3251079,22.9142338 C22.0931731,22.2258203 18.8854338,21.4314405 15.6556986,20.7464532 C14.9462077,20.5961916 14.2359837,20.4491114 13.5235601,20.3115755 C15.36022,19.1598962 17.2408717,18.0520228 19.0782648,16.9725376 M28.3405051,11.2011705 L29.133336,10.6485797 C30.7170428,9.54315359 32.3203014,8.42598059 33.9531324,7.38442785 C34.8811161,7.40351646 35.8095886,7.41575274 36.7383055,7.42505232 C37.9211976,7.43704388 39.1053116,7.44438565 40.2894257,7.4514827 C41.5207088,7.45882447 42.7527251,7.46714515 43.9849857,7.48280759 C45.1280407,7.49773586 46.2781833,7.5085038 47.4305255,7.52857131 C46.9053116,7.95586245 46.3874297,8.39122954 45.8737026,8.83051224 C44.1247821,10.3257865 42.4381833,11.8827316 40.7735804,13.4732042 C39.1040896,13.2392464 37.4333768,13.0265797 35.761442,12.8427907 C33.6117067,12.6061409 31.4512179,12.4534321 29.2870631,12.3359637 C28.4734582,12.2919131 27.658387,12.2515333 26.8430713,12.2150692 C27.345556,11.8822422 27.8455967,11.5457443 28.3405051,11.2011705 M43.117613,3.03516203 C44.0470631,2.78872321 45.2018493,2.6631789 46.5501996,2.6631789 C48.532277,2.6631789 50.6832342,2.92063038 52.8361466,3.23657131 C52.3874297,3.58775274 51.9433564,3.94382869 51.4961059,4.29721266 C50.7687739,4.87256287 50.0399756,5.44595527 49.3150876,6.02399747 C48.1737434,6.00466414 47.0314216,6.00074852 45.8876334,6.00123797 C43.6599348,6.00270633 41.4092627,6.06682447 39.1507699,6.13387932 C38.0482851,6.16667257 36.9448228,6.19946582 35.8394053,6.22760928 C38.1871039,4.85347426 40.6029898,3.70326329 43.117613,3.03516203 M55.0200978,3.56988776 C56.5033564,3.80115359 57.9037637,4.0199384 59.206167,4.16383713 C62.1807495,4.49152489 65.2027454,4.79229283 68.1245377,5.083027 C69.2028269,5.1904616 70.2889369,5.29887511 71.3765132,5.40875696 C70.9287739,5.78245316 70.4866558,6.16226751 70.0430713,6.54036878 C69.7923177,6.75376962 69.5369206,6.96398903 69.288611,7.18032658 C68.7888147,7.61569367 68.2992831,8.06182869 67.8063299,8.50429283 C64.9522363,7.98743207 62.1030305,7.45368523 59.2474705,6.90598903 C57.4689776,6.56484135 55.681442,6.35486667 53.8882851,6.22320422 C53.1677963,6.17009873 52.4470631,6.12825063 51.7243747,6.09765992 C52.7789572,5.2465038 53.8347617,4.39779494 54.8915438,3.54982025 C54.9348024,3.55667257 54.9775723,3.56328017 55.0200978,3.56988776 M88.593947,7.51976118 C88.1919104,7.86678228 87.7972057,8.21943207 87.4095886,8.5782 C86.2538248,9.64716203 85.1569613,10.7662928 84.100668,11.91993 C80.2609124,10.9371114 76.4104033,10.0105797 72.5105255,9.33856287 C72.2060041,9.28594684 71.9027047,9.23161772 71.5986721,9.17826751 C71.0016049,9.07376962 70.4035601,8.96951646 69.8062485,8.86355021 C71.0025825,7.75641097 72.2314216,6.68720422 73.4634379,5.62166835 C78.4983055,6.14244473 83.5932953,6.7307654 88.593947,7.51976118 M90.7480815,7.84769367 C92.9022159,8.16094262 95.1421344,8.38339831 97.4981426,8.61074852 C101.507756,8.99717046 105.604375,9.39607342 109.269385,10.2993561 C109.135699,10.4192717 109.000301,10.5360059 108.868081,10.6581241 C108.654721,10.8548835 108.444538,11.0550692 108.236554,11.2564785 C106.523316,12.9105797 104.966248,14.7080903 103.457328,16.5506304 C101.89635,16.1999384 100.333173,15.8551198 98.7655967,15.5298793 C95.0064929,14.7496937 91.2840489,13.7847401 87.5623381,12.8163603 C87.0505662,12.6832295 86.5383055,12.549854 86.0262892,12.4169679 C87.2057597,11.1284869 88.4392424,9.88479072 89.7638859,8.71549114 C90.0916253,8.42622532 90.4200978,8.13695949 90.7480815,7.84769367 M116.918835,14.6295333 C116.807633,15.96647 115.625719,17.5231705 114.246574,18.9787992 C113.533418,18.8439553 112.823682,18.7017696 112.123479,18.5409848 C110.389711,18.142816 108.657898,17.7402422 106.924619,17.3401156 C106.435576,17.227297 105.946289,17.1130101 105.456513,17.0009257 C106.654069,15.5039384 107.883153,14.0324025 109.196798,12.6350186 C109.797287,11.9960397 110.427837,11.3888751 111.076228,10.7995755 C112.323886,11.1869764 113.508733,11.6463266 114.599976,12.2065038 C116.192236,13.0238878 116.973825,13.8251198 116.923723,14.5874405 C116.923234,14.6016346 116.920301,14.6158287 116.918835,14.6295333 M111.84242,21.3266979 C111.741238,21.4218962 111.642257,21.5146473 111.542542,21.6078878 C111.013173,22.1051705 110.510933,22.581162 110.060016,23.0432042 L109.390607,23.7279468 C108.325271,24.8172211 107.24747,25.9204447 106.173825,27.0415333 C104.224497,26.5227148 102.290811,26.0286135 100.339772,25.5976515 C99.835332,25.4860565 99.3296701,25.37593 98.8222974,25.2738793 C100.668244,23.1570017 102.377084,20.9204532 104.110363,18.7039722 C106.183845,19.1775165 108.254151,19.6645207 110.325678,20.1461409 C111.063275,20.3176937 111.801849,20.4953646 112.540668,20.6693646 C112.302379,20.8954911 112.067022,21.115989 111.84242,21.3266979 M103.88747,29.4738624 C102.631014,30.8384532 101.397043,32.2336346 100.214151,33.6728667 L99.6972464,34.3032802 C98.5321955,35.7239131 97.3573686,37.1565376 96.1402607,38.524065 C93.9558208,37.9142084 91.7611161,37.3454658 89.5522363,36.8104954 C89.0578167,36.6908245 88.5641303,36.5711536 88.0682444,36.4546641 C88.1579389,36.3455165 88.2459226,36.2339215 88.3356171,36.1250186 C90.6278371,33.3554574 93.24022,30.9263097 95.8279185,28.4411198 C96.3746395,27.9159384 96.9035193,27.3746051 97.4209124,26.8239722 C98.1115845,26.9292042 98.8003014,27.0454489 99.4868187,27.1839637 C101.247226,27.5393055 102.983438,28.0742759 104.716961,28.5776768 C104.439324,28.8745291 104.163397,29.1743181 103.88747,29.4738624 M93.7363503,41.0535502 C91.6521141,43.0833055 89.4024196,44.8118034 86.8462485,45.9086641 C85.5326029,45.6020228 84.2113809,45.3164278 82.8847821,45.0472295 C82.5822159,44.9855586 82.2818493,44.9197274 81.9778167,44.8607485 C81.769833,44.8203688 81.5616049,44.777297 81.3536212,44.7366726 C81.4914623,44.5778456 81.6302811,44.4204869 81.7669002,44.2601916 C83.4600978,42.2678793 85.0592016,40.1970101 86.691055,38.1530608 C89.3552505,38.7663435 92.0077149,39.4214743 94.6433157,40.1414574 C94.3439267,40.4515249 94.0418493,40.755719 93.7363503,41.0535502 M83.1186721,46.989373 C81.8309328,47.1905376 80.4972464,47.289162 79.0511365,47.2928329 C79.375943,46.9443435 79.6980611,46.5943857 80.0179796,46.24247 C80.5167984,46.3420734 81.0156171,46.4453477 81.5154134,46.543238 C82.1559837,46.6682928 82.7960652,46.7984869 83.4346802,46.9328414 C83.329833,46.9516852 83.2252301,46.9727316 83.1186721,46.989373 M63.4367169,41.0437612 C62.9085703,40.935103 62.380668,40.8247316 61.8525214,40.7168076 C63.7573686,38.7120143 65.441279,36.4979806 67.1413198,34.3138034 C67.849833,34.4302928 68.5585906,34.5487401 69.2666151,34.6706135 C74.3796904,35.5501578 79.4722363,36.5457021 84.5378982,37.669238 C84.2685703,38.0074489 84.0009532,38.3456599 83.7326029,38.6841156 C82.6227862,40.0854152 81.5129695,41.48647 80.3655153,42.8564447 C79.958835,43.3419806 79.54189,43.8191958 79.1220122,44.2932295 C73.8869817,43.241643 68.6658819,42.1210439 63.4367169,41.0437612 M76.837613,46.787719 C76.7105255,46.9237865 76.5834379,47.0610776 76.4558615,47.1969004 C73.1554949,46.9693055 69.7712994,46.3543097 66.4745988,45.7481241 C64.3314623,45.3536262 62.1252709,44.9542338 59.935943,44.6549342 C59.6240896,44.6118624 59.3110143,44.5653646 59.0006273,44.5269426 C58.7244562,44.4934152 58.4468187,44.459643 58.1708921,44.4263603 C58.9436823,43.6505797 59.7145173,42.8770017 60.4846191,42.1073392 C66.2502403,43.3143266 71.9987536,44.6045207 77.7687739,45.7904616 C77.4600978,46.1242675 77.1487332,46.4558709 76.837613,46.787719 M55.6763096,44.122411 C55.4905662,44.0998962 55.3050672,44.0771367 55.1193238,44.0548667 C50.3122363,43.4716852 45.4296293,42.8743097 40.552888,42.2120819 C40.0491813,42.1438034 39.5449857,42.0782169 39.0415234,42.0082253 C39.9783055,40.8044194 40.8515438,39.547508 41.7003422,38.276892 C45.218224,39.058546 48.7419715,39.8074068 52.2840489,40.4693899 C54.2688147,40.8406388 56.2499145,41.2361156 58.2278371,41.6413814 C57.8937434,41.9751873 57.5567169,42.3053224 57.218224,42.6354574 C56.7079185,43.1339637 56.1937026,43.6300228 55.6763096,44.122411 M23.6568391,39.5237696 C22.0330509,39.2141916 20.2645784,39.0142506 18.3924807,38.8028076 C18.2196904,38.7829848 18.0410346,38.7612042 17.866778,38.7413814 C17.3259226,38.6799553 16.7840896,38.6190186 16.2366354,38.551719 C17.6617271,36.8459806 19.1171242,35.185027 20.6209124,33.5771789 C21.2260448,33.6978287 21.830444,33.8219046 22.4345988,33.949162 C28.2552098,35.1771958 34.0469817,36.554757 39.8519511,37.8633055 C39.6129287,38.2032295 39.3714623,38.5416852 39.1270631,38.8781831 C38.4283259,39.8416684 37.7068595,40.7892464 36.9465336,41.7091705 C32.4732953,41.0657865 28.0213198,40.3560819 23.6568391,39.5237696 M4.31655397,33.6914658 C4.19068839,33.4858962 4.07410998,33.2727401 3.97219552,33.0485713 L3.94066802,32.9793139 L3.90449695,32.910546 C3.53447658,32.2067148 3.33895723,31.5112042 3.32478208,30.8068835 C3.59948676,30.8450608 3.87443585,30.8866641 4.14865173,30.9282675 C5.27362118,31.0988414 6.39492464,31.2880143 7.50498574,31.432892 C8.53366191,31.5674911 9.5586721,31.710411 10.5827047,31.8589595 C13.2280815,32.2426895 15.8597719,32.6736515 18.4858411,33.1650608 C18.1683666,33.5101241 17.8548024,33.8586135 17.5412383,34.2078371 C16.3595682,35.5264194 15.2035601,36.8760819 14.0675927,38.2538878 C9.91598371,37.6127063 6.03516904,36.5006726 4.31655397,33.6914658 M38.3933768,27.9007654 C40.7562281,28.548065 43.1181018,29.1990354 45.4853523,29.8294489 C45.2431527,30.1456346 45.0099959,30.4686726 44.7741507,30.7892633 C43.3874297,32.6738962 42.0874705,34.6233814 40.7611161,36.5559806 C34.9627454,35.3000481 29.1800163,33.9611536 23.373336,32.7568582 C22.9690998,32.6729173 22.5646191,32.5840819 22.1594053,32.5016093 C22.014721,32.4719975 21.8700367,32.4450776 21.7246191,32.4159553 C24.0708513,29.987297 26.5429491,27.6883435 29.2083666,25.5487063 C32.2767984,26.3029511 35.3425418,27.0655165 38.3933768,27.9007654 M57.5066151,18.2465797 C57.1534582,18.566681 56.7949246,18.8801747 56.437613,19.1956262 C54.3783055,21.0176093 52.2732953,22.7796346 50.212277,24.619238 C48.9306477,25.7633308 47.7809939,27.0045797 46.7044155,28.3011367 C42.0454338,27.1095671 37.4067373,25.8340565 32.743112,24.6603519 C32.1387128,24.5083772 31.5360244,24.3522422 30.9311365,24.2041831 C33.8629491,21.9725291 36.7627454,19.7462591 39.4108106,17.1744363 C40.1100367,16.4953224 40.8060855,15.8132717 41.5036008,15.1331789 C46.8664521,15.9676937 52.2156171,17.0679806 57.5066151,18.2465797 M94.3329287,24.5365207 C89.5461263,23.9555418 84.813336,22.6947148 80.1005866,21.6607485 C79.9654338,21.6311367 79.8297923,21.5998118 79.6943951,21.5704447 C79.3368391,21.4931114 78.9812383,21.4099046 78.6239267,21.331103 C80.6121141,18.9036684 82.5301589,16.4265544 84.5735804,14.0561409 C88.6836415,15.1826135 92.7883259,16.3372295 96.9636415,17.1629342 C98.6759022,17.5021241 100.38132,17.8711705 102.085026,18.2504954 C101.81521,18.5867485 101.546126,18.9234911 101.276798,19.2602338 C99.7522363,21.1678709 98.2222974,23.0703688 96.5711365,24.8622506 C95.8308513,24.7406219 95.086167,24.6278034 94.3329287,24.5365207 M75.526167,24.952065 C76.1308106,24.2854321 76.721279,23.6075418 77.3014827,22.9223097 C77.326167,22.9279384 77.3508513,22.9343013 77.3760244,22.93993 C79.8508106,23.5069595 82.3453931,23.9680228 84.8179796,24.5409257 C87.300831,25.1162759 89.7814827,25.7904954 92.3080815,26.1419215 C93.2045377,26.2667316 94.1024603,26.3766135 94.9989165,26.4906557 C94.9524807,26.5369089 94.906778,26.5848751 94.8593646,26.6308835 C94.5296701,26.9529426 94.1982648,27.2727992 93.8671039,27.5919215 C91.6205866,29.7513814 89.3513401,31.8643435 87.3260041,34.2484616 C86.8462485,34.8140228 86.3774908,35.3883941 85.909222,35.9637443 C80.6160244,34.7986051 75.2771242,33.9056008 69.9389572,33.0123519 C69.4193646,32.9254743 68.8987943,32.8383519 68.3784684,32.7509848 C70.6117882,29.9943941 73.1466965,27.5765038 75.526167,24.952065 M61.0890183,17.2647401 C63.4276741,14.9665207 65.7699959,12.6790692 68.149222,10.4236768 C69.2336212,10.6299806 70.3207088,10.825027 71.4126843,10.9982928 C75.2128473,11.5998287 78.9438452,12.5332127 82.6599348,13.5353646 C82.3893849,13.8461662 82.124945,14.1621072 81.8570835,14.4758456 C80.0612383,16.5812211 78.3247821,18.7414152 76.5301589,20.8626979 C72.6725621,19.98193 68.8284073,19.0402253 64.9732546,18.1477105 C64.2283259,17.9751789 63.4807088,17.8077865 62.733336,17.6384363 C62.1851487,17.5141156 61.6384277,17.387103 61.0890183,17.2647401 M64.9219308,33.9516093 C64.6374501,34.3138034 64.3519919,34.6747738 64.0660448,35.035989 C62.8413605,36.5821662 61.596391,38.1104785 60.2482851,39.555584 C60.0280815,39.7910101 59.8042118,40.0227654 59.5815642,40.2554996 C57.0818493,39.7560143 54.578224,39.2746388 52.0684888,38.8250776 C49.3507699,38.3383181 46.6442933,37.7960059 43.9417271,37.2289764 C43.4895886,37.1340228 43.0376945,37.0400481 42.5850672,36.9441156 C42.9206273,36.436065 43.2542322,35.9287485 43.5895479,35.4246135 C44.7653523,33.6574489 45.998835,31.9458371 47.332277,30.3159637 C49.435332,30.8636599 51.5440081,31.3907992 53.6624603,31.8765797 C57.3873483,32.7306726 61.1537841,33.3407738 64.9219308,33.9516093 M55.9974501,30.4884954 C54.051055,30.0827401 52.1149246,29.6370945 50.1834379,29.1682 C49.668,29.0431451 49.1523177,28.9171114 48.6368798,28.7888751 C49.4106477,27.9213224 50.2164318,27.0789764 51.0696293,26.2743181 C53.8381833,23.6638287 56.8440489,21.3487232 59.5972057,18.7164532 C60.8236008,18.9944616 62.0470631,19.275162 63.2668595,19.5561072 C67.2493442,20.4738287 71.2108106,21.4806304 75.1869409,22.4240481 C74.9713809,22.6704869 74.7558208,22.9174152 74.5368391,23.1614068 C74.4679185,23.2382506 74.3975316,23.3126473 74.3283666,23.3890017 C71.938387,26.0313055 69.3450672,28.432065 67.0943951,31.2116599 C66.7810754,31.5980819 66.4714216,31.9869511 66.1622566,32.3765544 C62.7653523,31.7977781 59.3730916,31.1923266 55.9974501,30.4884954 M49.8840489,7.59342363 C52.4512179,7.68397215 55.0152098,7.86922954 57.5264114,8.31267257 C60.4112994,8.82194684 63.2658819,9.44868945 66.1321955,10.0277105 C65.7827047,10.3514827 65.440057,10.6833308 65.0927658,11.0097949 C63.2993646,12.6932633 61.5289369,14.4012042 59.7702403,16.1226051 C59.5307291,16.3565629 59.2877963,16.5853814 59.0455967,16.8151789 C54.2822566,15.7794996 49.483723,14.8346135 44.6683259,14.0600565 C44.078835,13.965103 43.4888554,13.8721072 42.898387,13.7822928 C44.5365947,12.2052802 46.1987536,10.6551873 47.9442525,9.19392996 C48.586778,8.65602278 49.2349246,8.12423376 49.8840489,7.59342363 M11.3378982,21.7209511 C11.5429491,21.5839046 11.7543544,21.4517527 11.9616049,21.3161747 C15.7194868,22.0175586 19.4465743,23.1256768 23.1035193,24.0421747 C24.4142322,24.3705966 25.7251894,24.6933899 27.0361466,25.0149595 C26.6754134,25.3103435 26.3264114,25.6172295 25.9720326,25.9189764 C23.7228269,27.8366473 21.5985092,29.8676262 19.5721955,32.0028582 C15.7764318,31.3039215 11.9704033,30.7567148 8.12820367,30.3049511 C6.95068839,30.166681 5.77072912,29.9917021 4.58930346,29.8323857 C4.21219552,29.7817274 3.83484318,29.7320481 3.45700204,29.6857949 C4.03647251,27.3944278 6.53960896,24.9229426 11.3378982,21.7209511 M1.55142159,34.1505713 C4.87573931,41.473989 16.178224,40.8080903 23.1592424,42.139643 C34.8075519,44.361508 46.854721,45.7234068 58.6785092,47.17047 C66.8101589,48.1657696 75.286167,50.9074321 83.5292627,49.6201747 C91.8965132,48.313584 97.196554,41.5383519 102.268326,35.3651451 C105.289833,31.6876515 108.637369,28.3062759 111.96022,24.9058118 C114.483886,22.3224869 119.315169,18.6966304 119.576676,14.7641325 C119.595251,14.4919975 119.582297,14.2215755 119.544171,13.9526219 C119.498957,13.6391283 119.413418,13.3280819 119.282664,13.0204616 C119.00967,12.3790354 118.539446,11.7527823 117.8302,11.150757 C117.297409,10.6977696 116.634354,10.2582422 115.812929,9.83657975 C108.515169,6.09154177 98.134558,6.38154177 90.0830713,5.05806498 C79.9490591,3.39319578 69.6979796,2.64139831 59.4977352,1.51639409 C54.5088147,0.965761181 47.3281222,-0.838356962 42.4359837,0.460891983 C36.6999348,1.98479916 31.6244969,5.67110295 26.8225418,9.01503544 C21.349222,12.8263941 15.3990794,15.8081325 9.86221589,19.50447 C5.84502648,22.18593 0.752725051,25.9488329 0.661564155,30.6169764 C0.639812627,31.7429595 0.905230143,32.9215586 1.55142159,34.1505713" id="Fill-6" fill="#F6C892"></path>
            <path d="M43.7820367,4.36666582 C44.7114868,4.120227 45.8665173,3.99443797 47.2153564,3.99443797 C48.5800815,3.99443797 50.025947,4.11802447 51.4960081,4.29716371 C51.9432587,3.94377975 52.387332,3.5877038 52.8360489,3.23652236 C50.6831365,2.92058143 48.5321792,2.66312996 46.5501018,2.66312996 C45.2019959,2.66312996 44.0469654,2.78867426 43.1177597,3.03511308 C40.6031365,3.70345907 38.1870061,4.85367004 35.8393075,6.22756034 C36.9447251,6.1996616 38.0481874,6.16662363 39.1506721,6.13383038 C40.6610591,5.39745063 42.2022403,4.78661519 43.7820367,4.36666582" id="Fill-8" fill="#E7AB73"></path>
            <path d="M53.8883096,6.2231308 C54.4440733,5.77601688 55.0000815,5.32792405 55.556334,4.8815443 C55.5991039,4.8881519 55.6418737,4.89451477 55.6851324,4.90161181 C57.1676578,5.13287764 58.5687984,5.351173 59.8712016,5.49507173 C62.8457841,5.82300422 65.8675356,6.12377215 68.7890835,6.41450633 C69.2050509,6.45586498 69.6251731,6.49844726 70.0430957,6.54029536 C70.4866802,6.16219409 70.9287984,5.78262447 71.3765377,5.40868354 C70.2887169,5.29880169 69.2028513,5.19038819 68.1245621,5.08319831 C65.2027699,4.79221941 62.1807739,4.4916962 59.2061914,4.16376371 C57.9037882,4.01986498 56.5033809,3.80108017 55.0198778,3.56981435 C54.9775967,3.56320675 54.9348269,3.55659916 54.8915682,3.54999156 C53.8347862,4.39772152 52.7787373,5.24643038 51.7243992,6.09783122 C52.4470876,6.12817722 53.1678208,6.17002532 53.8883096,6.2231308" id="Fill-10" fill="#E7AB73"></path>
            <path d="M71.5986721,9.17824304 C72.4357393,8.42889283 73.2786721,7.68737384 74.1282037,6.9529519 C78.5449857,7.40985485 83.0050265,7.92744979 87.4095886,8.57817553 C87.7972057,8.21965232 88.1919104,7.86675781 88.593947,7.51973671 C83.5932953,6.73098565 78.4983055,6.14242025 73.4634379,5.62164388 C72.2314216,6.68717975 71.0025825,7.7563865 69.8064929,8.86352574 C70.4035601,8.96949198 71.0016049,9.07374515 71.5986721,9.17824304" id="Fill-12" fill="#E7AB73"></path>
            <path d="M29.798053,11.9800346 C31.3817597,10.8746084 32.9852627,9.75743544 34.6176049,8.7158827 C37.9548758,8.78514008 41.3007006,8.77094599 44.6497026,8.81426245 C45.0556497,8.81964641 45.4664847,8.82576456 45.8736538,8.83041435 C46.3873809,8.39113165 46.9052627,7.95600928 47.4304766,7.52847342 C46.2781344,7.50865063 45.1282363,7.49763797 43.9849369,7.48295443 C42.7526762,7.46704726 41.5206599,7.45897131 40.2893768,7.45162954 C39.1052627,7.44428776 37.9211487,7.43694599 36.7382566,7.42519916 C35.8097841,7.41565485 34.8810672,7.40341857 33.9530835,7.38432996 C32.3202525,8.42612743 30.7169939,9.5430557 29.1332872,10.6487266 L28.3404562,11.2010726 C27.8455479,11.5458911 27.3455071,11.8821443 26.8430224,12.2149713 C27.6585825,12.2514354 28.4734094,12.2918152 29.2872587,12.3361105 L29.798053,11.9800346 Z" id="Fill-14" fill="#E7AB73"></path>
            <path d="M4.58937678,29.8324835 C5.62147454,27.8658675 8.01854175,25.7115468 12.0027373,23.052357 C12.2072994,22.9153105 12.4196823,22.7831586 12.6266884,22.6475806 C16.3838371,23.3492093 20.1121466,24.4570827 23.7686029,25.3735806 C24.502778,25.5578591 25.2379308,25.7377325 25.9721059,25.9190743 C26.3262403,25.6170827 26.6754868,25.3104414 27.03622,25.0150574 C25.7250183,24.6934878 24.4140611,24.3706945 23.1035927,24.0422726 C19.4466477,23.1257747 15.7195601,22.0174118 11.9616782,21.3160278 C11.7544277,21.4516059 11.5430224,21.5840025 11.3377271,21.7208042 C6.53943788,24.9227958 4.03654582,27.3945257 3.45707536,29.6856481 C3.8349165,29.7319013 4.21226884,29.7815806 4.58937678,29.8324835" id="Fill-16" fill="#E7AB73"></path>
            <path d="M23.0998778,35.2808371 C28.4556415,36.4104911 33.7874542,37.6654447 39.1270876,38.8780608 C39.3714868,38.5415629 39.6127088,38.2033519 39.8519756,37.8631831 C34.0470061,36.5548793 28.2552342,35.1770734 22.4346232,33.9490397 C21.8304684,33.822027 21.2260692,33.6979511 20.6209369,33.5770565 C19.1171487,35.1851494 17.6617515,36.8458582 16.2366599,38.5515966 C16.7841141,38.6188962 17.325947,38.6800776 17.8668024,38.7415038 C18.9834623,37.4349131 20.1201629,36.1554869 21.2857026,34.9086093 C21.8905906,35.0292591 22.4952342,35.153335 23.0998778,35.2808371" id="Fill-18" fill="#E7AB73"></path>
            <path d="M15.655723,20.7465511 C17.0194705,19.9154624 18.3910387,19.0983232 19.7432994,18.3039435 C21.669165,17.1725764 23.6360896,16.016492 25.5807739,14.7923738 C28.1276578,14.9526692 30.6730754,15.1271586 33.2087169,15.3520616 C34.8835845,15.5003654 36.5594297,15.6878253 38.2345418,15.9046523 C38.5207332,15.6371671 38.8066802,15.3699266 39.0887169,15.0960785 C39.1845214,15.002838 39.2810591,14.9103316 39.3766191,14.8175806 C37.0997963,14.4950321 34.8207739,14.2224076 32.5441955,14.0205089 C30.008554,13.7958506 27.4628921,13.6211165 24.9162525,13.4605764 C22.9705906,14.6849392 21.0041548,15.8410236 19.0782892,16.9726354 C17.2408961,18.0518759 15.3602444,19.1599941 13.5235845,20.3114287 C14.2357637,20.4489646 14.9462322,20.5960447 15.655723,20.7465511" id="Fill-20" fill="#E7AB73"></path>
            <path d="M8.16992261,32.7645181 C11.3141181,33.1754127 14.4321629,33.6545857 17.5414094,34.2076658 C17.8547291,33.8584422 18.1685377,33.5099527 18.4857678,33.1648895 C15.8596986,32.6734802 13.2282525,32.2427629 10.5826314,31.8587882 C9.98703055,31.7836574 9.39118534,31.7068135 8.79314053,31.6363325 C7.24022811,31.4537671 5.6819389,31.207573 4.1221833,31.0171764 C4.12951527,30.9878093 4.14100204,30.9579527 4.14857841,30.9283409 C3.87436253,30.8867376 3.59941344,30.8448895 3.32495316,30.8067122 C3.33888391,31.5110329 3.53440326,32.2067882 3.90442363,32.9106194 L3.9405947,32.9791426 L3.9723666,33.0486447 C4.07403666,33.2728135 4.19085947,33.4859696 4.31648065,33.6915392 C4.11118534,33.1739443 4.00022811,32.6585519 3.98971894,32.138265 C5.38988187,32.3335561 6.78882281,32.5839105 8.16992261,32.7645181" id="Fill-22" fill="#E7AB73"></path>
            <path d="M86.0262159,12.416919 C86.5384766,12.5498051 87.0504929,12.6831806 87.5622648,12.8163114 C88.4763177,11.859189 89.4258086,10.9316785 90.4288228,10.0469949 C90.7565621,9.75772911 91.0850346,9.46846329 91.4130183,9.17944219 C93.5676415,9.49244641 95.8070713,9.71490211 98.1630794,9.94225232 C101.564627,10.2699401 105.026297,10.6101089 108.236481,11.2564295 C108.444709,11.0550203 108.654648,10.8548346 108.868008,10.6580751 C109.000228,10.535957 109.13587,10.4192228 109.269556,10.2993072 C105.604301,9.39602447 101.507927,8.99712152 97.4980692,8.61069958 C95.1420611,8.38334937 92.902387,8.16089367 90.7480081,7.84788945 C90.4202688,8.13691055 90.0917963,8.42617637 89.7638126,8.71544219 C88.439169,9.88474177 87.2056864,11.128438 86.0262159,12.416919" id="Fill-24" fill="#E7AB73"></path>
            <path d="M114.599927,12.2066017 C113.508684,11.6461797 112.323837,11.1868295 111.076179,10.7996734 C110.428033,11.3887283 109.797483,11.9958928 109.196994,12.6348717 C107.883348,14.0325004 106.65402,15.5037916 105.456464,17.0010236 C105.94624,17.1128633 106.435527,17.2271502 106.924815,17.3402135 C107.869906,16.1863316 108.839927,15.0534962 109.86176,13.9664245 C110.462248,13.3274456 111.092798,12.720281 111.741189,12.1309814 C112.988847,12.518627 114.172717,12.9777325 115.264937,13.5381544 C115.98176,13.9059772 116.532635,14.2708633 116.918786,14.6296312 C116.920253,14.6156819 116.923185,14.6014878 116.923674,14.5875384 C116.973776,13.824973 116.192432,13.0239857 114.599927,12.2066017" id="Fill-26" fill="#E7AB73"></path>
            <path d="M44.6682281,14.060081 C45.9503462,12.8477097 47.2539715,11.6595662 48.609165,10.5255072 C49.2519348,9.98735527 49.9003259,9.45581097 50.5484725,8.92500084 C53.1158859,9.01554937 55.6798778,9.20056203 58.1913238,9.64424979 C60.5035845,10.0524523 62.7975153,10.5355409 65.092668,11.0098194 C65.4402037,10.6833553 65.7826069,10.3515072 66.1320978,10.0274903 C63.2657841,9.44871392 60.4112016,8.82197131 57.526558,8.31269705 C55.015112,7.86925401 52.4511202,7.68399662 49.8841955,7.5934481 C49.2350713,8.12425823 48.5869246,8.65604726 47.9441548,9.19395443 C46.1989002,10.6549671 44.5364969,12.2053046 42.8985336,13.7823173 C43.489002,13.8718869 44.0787373,13.9651274 44.6682281,14.060081" id="Fill-28" fill="#E7AB73"></path>
            <path d="M39.4108839,17.1743629 C36.7628187,19.7461857 33.862778,21.9724557 30.9312098,24.2043544 C31.5360978,24.3521688 32.1387862,24.5085485 32.7429409,24.6602785 C35.2807821,22.7164219 37.7738982,20.74173 40.0761385,18.5056709 C40.7751202,17.8268017 41.4706802,17.1445063 42.1684399,16.464903 C46.946444,17.2078903 51.7129613,18.1628101 56.4376864,19.1957975 C56.794998,18.880346 57.1532872,18.5666076 57.5066884,18.2465063 C52.2156904,17.0679072 46.8665255,15.9676203 41.5036741,15.1333502 C40.8059145,15.8131983 40.1098656,16.4952489 39.4108839,17.1743629" id="Fill-30" fill="#E7AB73"></path>
            <path d="M72.0774501,12.3296743 C75.3778167,12.851919 78.6256375,13.6250076 81.8570835,14.475919 C82.124945,14.1619359 82.3893849,13.8459949 82.6599348,13.5351932 C78.9438452,12.5332861 75.2128473,11.5999021 71.4126843,10.9983662 C70.3207088,10.8251004 69.2336212,10.630054 68.149222,10.4235055 C65.7699959,12.6791426 63.4276741,14.9665941 61.0890183,17.2648135 C61.6384277,17.3871764 62.1851487,17.514189 62.733336,17.6385097 C64.7476741,15.663573 66.7666558,13.6962228 68.8137434,11.7550582 C69.8981426,11.961362 70.9852301,12.1568979 72.0774501,12.3296743" id="Fill-32" fill="#E7AB73"></path>
            <path d="M21.7246436,32.4160776 C21.8700611,32.4449553 22.0147454,32.4721198 22.1594297,32.5017316 C22.5646436,32.5842042 22.9691242,32.6727949 23.3733605,32.7567359 C25.4268024,30.6941873 27.5758045,28.7248793 29.8734012,26.8803814 C32.9415886,27.6343814 36.0070876,28.3969468 39.0579226,29.2324405 C40.9630143,29.7541958 42.8673727,30.2754616 44.7741752,30.7893857 C45.0100204,30.4685502 45.2431772,30.1455122 45.4853768,29.8293266 C43.1181263,29.1989131 40.7562525,28.5481873 38.3934012,27.9008878 C35.3425662,27.0653941 32.2768228,26.3030734 29.208391,25.5488287 C26.5429735,27.6884658 24.0708758,29.9874194 21.7246436,32.4160776" id="Fill-34" fill="#E7AB73"></path>
            <path d="M51.734444,27.6059198 C54.5037312,24.9951857 57.5091079,22.6803249 60.2615316,20.0478101 C61.4886599,20.3258186 62.7121222,20.606519 63.9316741,20.8877089 C67.4050754,21.6877173 70.8635682,22.5542911 74.3284155,23.3890506 C74.3975804,23.3126962 74.4679674,23.2382996 74.536888,23.161211 C74.7558697,22.9172194 74.9714297,22.6705359 75.1867454,22.424097 C71.2108595,21.4806793 67.2493931,20.4736329 63.2669084,19.5561561 C62.047112,19.275211 60.8234053,18.9945105 59.5970102,18.7165021 C56.8440978,21.3487722 53.8382322,23.6638776 51.0696782,26.2743671 C50.2164807,27.0790253 49.4106965,27.9213713 48.6369287,28.7886793 C49.1523666,28.9171603 49.6678045,29.0431941 50.1834868,29.1682489 C50.6864603,28.6359705 51.1984766,28.1115232 51.734444,27.6059198" id="Fill-36" fill="#E7AB73"></path>
            <path d="M52.2839756,40.4694388 C48.7418982,39.807211 45.2181507,39.0583502 41.7002688,38.2769409 C40.8514705,39.5473122 39.9782322,40.8044684 39.0414501,42.0082743 C39.5449124,42.0782658 40.0491079,42.1438523 40.5528147,42.2121308 C41.1770102,41.3592616 41.777499,40.4877932 42.3655234,39.6084937 C45.8834053,40.389903 49.4071527,41.1387637 52.9482525,41.8007468 C54.3745662,42.0674979 55.7969695,42.3491772 57.2181507,42.6355063 C57.5566436,42.3051266 57.8936701,41.9752363 58.2277637,41.6414304 C56.2498411,41.2361646 54.2689857,40.8406878 52.2839756,40.4694388" id="Fill-38" fill="#E7AB73"></path>
            <path d="M76.1909328,26.2839603 C76.7955764,25.616838 77.3860448,24.9389477 77.9662485,24.2539603 C77.9911772,24.2593443 78.0161059,24.2657072 78.0405458,24.2713359 C80.515332,24.8386101 83.0099145,25.2996734 85.4829898,25.8725764 C87.9655967,26.4476819 90.4460041,27.1219013 92.973336,27.4733274 C93.2712587,27.5146861 93.5691813,27.5528633 93.8671039,27.5920194 C94.1982648,27.272897 94.5296701,26.9527958 94.8593646,26.6309814 C94.906778,26.584973 94.9524807,26.5370068 94.9989165,26.4907536 C94.1024603,26.3764667 93.2045377,26.2665848 92.3080815,26.1417747 C89.7814827,25.7905932 87.300831,25.1163738 84.8179796,24.5410236 C82.3453931,23.9681207 79.8508106,23.5068127 77.3760244,22.9400278 C77.3508513,22.9341544 77.326167,22.9280363 77.3014827,22.9224076 C76.721279,23.6073949 76.1308106,24.2852852 75.526167,24.9521629 C73.1466965,27.576357 70.6117882,29.994492 68.3784684,32.750838 C68.8987943,32.8382051 69.4191202,32.9253274 69.9389572,33.0124498 C71.940831,30.6873105 74.1240489,28.5630911 76.1909328,26.2839603" id="Fill-40" fill="#E7AB73"></path>
            <path d="M47.3322525,30.3159392 C45.9988106,31.9458127 44.7653279,33.6574245 43.5897678,35.424589 C43.2542077,35.9287241 42.9206029,36.4360405 42.5850428,36.9440911 C43.0376701,37.0402684 43.4895642,37.1339983 43.9417026,37.2291966 C44.0463055,37.0715932 44.1504196,36.913011 44.2545336,36.755897 C45.4296049,34.9889772 46.6638208,33.2771207 47.9970183,31.6472473 C50.1000733,32.1949435 52.2087495,32.7223274 54.3279348,33.208108 C57.5515601,33.946935 60.8057352,34.5034414 64.0660204,35.0359646 C64.3519674,34.6749941 64.6374257,34.3137789 64.9219063,33.9515848 C61.1537597,33.3407494 57.3873238,32.7306481 53.6624358,31.8765553 C51.5439837,31.3907747 49.4353075,30.8636354 47.3322525,30.3159392" id="Fill-42" fill="#E7AB73"></path>
            <path d="M97.6285051,18.4946582 C98.8475682,18.7357131 100.062965,18.9953671 101.276896,19.2601603 C101.54598,18.9234177 101.815308,18.5866751 102.08488,18.2504219 C100.381418,17.871097 98.6757556,17.5020506 96.9634949,17.1631055 C92.7881792,16.3371561 88.6834949,15.1825401 84.5736782,14.0560675 C82.5302566,16.426481 80.6122118,18.9035949 78.6240244,21.3310295 C78.981336,21.4098312 79.3366925,21.493038 79.6942485,21.5703713 C79.82989,21.5997384 79.9655316,21.6310633 80.1004399,21.6606751 C81.803169,19.5567679 83.4753483,17.433038 85.2381996,15.3876203 C89.3480163,16.5140928 93.4531894,17.6687089 97.6285051,18.4946582" id="Fill-44" fill="#E7AB73"></path>
            <path d="M69.9315519,36.0021173 C74.5502077,36.7967418 79.1524888,37.6917038 83.7325295,38.6840667 C84.0008798,38.3458557 84.2687413,38.0074 84.5378248,37.669189 C79.4724073,36.5456532 74.3796171,35.5501089 69.2667862,34.6708093 C68.5585173,34.5486911 67.8497597,34.4304886 67.1412464,34.3137544 C65.4412057,36.4979316 63.7572953,38.7119654 61.8524481,40.7167586 C62.3805947,40.8246827 62.9084969,40.935054 63.4366436,41.043957 C64.9739145,39.3161932 66.384831,37.4709612 67.8060122,35.6453072 C68.5150143,35.7617966 69.2237719,35.8799992 69.9315519,36.0021173" id="Fill-46" fill="#E7AB73"></path>
            <path d="M58.1709165,44.4262869 C58.4468432,44.4598143 58.7244807,44.4933418 59.0006517,44.5271139 C59.3110387,44.5652911 59.6241141,44.6120338 59.9359674,44.6548608 C60.3404481,44.2493502 60.7456619,43.8423713 61.1494094,43.4385738 C66.3832179,44.5344557 71.6033401,45.6951899 76.8373931,46.7876456 C77.1487576,46.4557975 77.4601222,46.1241941 77.7687984,45.7903882 C71.998778,44.604692 66.2502648,43.3142532 60.4846436,42.1072658 C59.7142974,42.8769283 58.9437067,43.6505063 58.1709165,44.4262869" id="Fill-48" fill="#E7AB73"></path>
            <path d="M80.0179063,46.2423722 C79.6979878,46.5942878 79.3758697,46.9444903 79.0510631,47.292735 C80.4971731,47.2893089 81.8308595,47.1904397 83.1188432,46.9892751 C83.2251568,46.9726338 83.3297597,46.9515873 83.4346069,46.9327435 C82.7959919,46.7986338 82.1559104,46.6684397 81.5153401,46.5431401 C81.0155438,46.4452498 80.5167251,46.3422203 80.0179063,46.2423722" id="Fill-50" fill="#E7AB73"></path>
            <path d="M104.110314,18.7038987 C102.377035,20.9206245 100.668196,23.1569283 98.8222485,25.2738059 C99.3296212,25.3758565 99.8352831,25.4859831 100.339723,25.5975781 C101.864041,23.7836709 103.313572,21.9049114 104.775324,20.0352068 C106.848807,20.5089958 108.919601,20.996 110.990151,21.4773755 C111.173939,21.5202025 111.358705,21.5647426 111.542493,21.6080591 C111.642208,21.5145738 111.741189,21.4218228 111.842371,21.3268692 C112.067218,21.1159156 112.302574,20.8954177 112.540619,20.6695359 C111.8018,20.4952911 111.063226,20.317865 110.325874,20.1460675 C108.254102,19.6644473 106.183796,19.1776878 104.110314,18.7038987" id="Fill-52" fill="#E7AB73"></path>
            <path d="M97.4208391,26.8239477 C96.903446,27.3745806 96.3745662,27.9159139 95.8278452,28.4410954 C93.240391,30.9262852 90.6277637,33.3554329 88.3355438,36.1249941 C88.2458493,36.233897 88.15811,36.345492 88.0681711,36.4548844 C88.5643014,36.5713738 89.0577434,36.6908 89.5524073,36.8104709 C91.7080081,34.3069266 94.1094745,32.0618127 96.4928554,29.7726481 C97.039332,29.2477114 97.5679674,28.7058886 98.0853605,28.1555004 C98.7760326,28.2607325 99.4652383,28.3769772 100.151756,28.5157367 C101.406745,28.7690278 102.649271,29.1145806 103.887397,29.473838 C104.163324,29.1742937 104.439251,28.8745046 104.717132,28.577897 C102.983365,28.0742515 101.247153,27.539281 99.4867454,27.1839392 C98.8004725,27.0454245 98.1115112,26.9291797 97.4208391,26.8239477" id="Fill-54" fill="#E7AB73"></path>
            <path d="M81.7669002,44.2602895 C81.6302811,44.4203401 81.4914623,44.5776987 81.3536212,44.7365257 C81.5616049,44.7773949 81.769833,44.8202219 81.9778167,44.8608464 C82.2818493,44.9195806 82.5822159,44.9856565 82.8847821,45.0470827 C84.4108106,43.2226523 85.8715845,41.3438928 87.3555764,39.4844667 C89.4908921,39.9758759 91.618387,40.4964076 93.7363503,41.0534034 C94.0418493,40.7555722 94.3439267,40.4516228 94.6433157,40.1415553 C92.0077149,39.4215722 89.3552505,38.7664414 86.691055,38.1531586 C85.0592016,40.1968633 83.4600978,42.2679772 81.7669002,44.2602895" id="Fill-56" fill="#E7AB73"></path>
            <path d="M43.7820367,4.36666582 C42.2022403,4.78661519 40.6610591,5.39745063 39.1506721,6.13383038 C41.409165,6.06677553 43.6598371,6.00265738 45.88778,6.00143376 C47.0313238,6.00069958 48.17389,6.00461519 49.3149898,6.02394852 C50.0398778,5.44615105 50.7689206,4.87251392 51.4960081,4.29716371 C50.025947,4.11802447 48.5800815,3.99443797 47.2153564,3.99443797 C45.8665173,3.99443797 44.7114868,4.120227 43.7820367,4.36666582" id="Fill-58" fill="#EEBB83"></path>
            <path d="M59.8713238,5.49516962 C58.5686762,5.35127089 57.1675356,5.13297553 55.6850102,4.90146498 C55.6419959,4.89461266 55.5992261,4.88824979 55.5562118,4.88164219 C54.9999593,5.32802194 54.4441955,5.77587004 53.8884318,6.22322869 C55.6813442,6.35489114 57.4688798,6.56486582 59.2476171,6.9060135 C62.1031772,7.4537097 64.9521385,7.98745654 67.8062322,8.5043173 C68.2994297,8.06185316 68.7887169,7.61571814 69.2885132,7.18035105 C69.5368228,6.96376878 69.7924644,6.75379409 70.0429735,6.54039325 C69.6250509,6.49854515 69.2051731,6.45596287 68.7892057,6.41460422 C65.8674134,6.12362532 62.8456619,5.82310211 59.8713238,5.49516962" id="Fill-60" fill="#EEBB83"></path>
            <path d="M71.5986721,9.17824304 C71.9027047,9.23159325 72.2060041,9.28592236 72.5105255,9.3385384 C76.4104033,10.0105553 80.2609124,10.9370869 84.100668,11.9199055 C85.1569613,10.7662684 86.2538248,9.64713755 87.4095886,8.57817553 C83.0050265,7.92744979 78.5449857,7.40985485 74.1282037,6.9529519 C73.2786721,7.68737384 72.4357393,8.42889283 71.5986721,9.17824304" id="Fill-62" fill="#EEBB83"></path>
            <path d="M34.6175316,8.71578481 C32.9851894,9.75733755 31.3816864,10.8745105 29.7979796,11.9799367 L29.2871853,12.3360127 C31.4510957,12.453481 33.6118289,12.6059451 35.7613198,12.8425949 C37.4332546,13.0266287 39.1042118,13.2390506 40.7734582,13.4730084 C42.4383055,11.8825359 44.1249043,10.3258354 45.8735804,8.83056118 C45.4666558,8.82566667 45.0555764,8.81954852 44.6496293,8.81440928 C41.3006273,8.77109283 37.9548024,8.78504219 34.6175316,8.71578481" id="Fill-64" fill="#EEBB83"></path>
            <path d="M12.6266151,22.6474827 C12.419609,22.7830608 12.2072261,22.9154574 12.0029084,23.0522591 C8.01871283,25.7114489 5.62140122,27.8660143 4.58930346,29.8323857 C5.77072912,29.9917021 6.95068839,30.166681 8.12820367,30.3049511 C11.9704033,30.7567148 15.7764318,31.3039215 19.5719511,32.0028582 C21.5982648,29.8676262 23.7228269,27.8366473 25.9720326,25.9189764 C25.2381018,25.7376346 24.5027047,25.5580059 23.7685295,25.3737274 C20.1120733,24.4572295 16.3840081,23.3491114 12.6266151,22.6474827" id="Fill-66" fill="#EEBB83"></path>
            <path d="M8.79321385,31.6362591 C9.39125866,31.7067401 9.98685947,31.7838287 10.5827047,31.8589595 C9.5586721,31.710411 8.53366191,31.5674911 7.50498574,31.432892 C6.39492464,31.2880143 5.27362118,31.0988414 4.14865173,30.9282675 C4.14083096,30.9578793 4.1293442,30.9877359 4.12201222,31.017103 C5.68201222,31.2077443 7.24030143,31.4536937 8.79321385,31.6362591" id="Fill-68" fill="#EEBB83"></path>
            <path d="M23.0998778,35.2808371 C22.4952342,35.153335 21.8905906,35.0292591 21.2857026,34.9086093 C20.1201629,36.1554869 18.9834623,37.4349131 17.8668024,38.7415038 C18.0410591,38.7610819 18.2197149,38.7831072 18.3925051,38.8026852 C20.2643585,39.014373 22.0330754,39.2140692 23.6568635,39.5236473 C28.0213442,40.3562042 32.4733198,41.0659089 36.946558,41.7090481 C37.7068839,40.7891241 38.4283503,39.841546 39.1270876,38.8780608 C33.7874542,37.6654447 28.4556415,36.4104911 23.0998778,35.2808371" id="Fill-70" fill="#EEBB83"></path>
            <path d="M25.5808473,14.7923494 C23.6361629,16.0164675 21.6692383,17.1725519 19.7433727,18.303919 C18.391112,19.0982987 17.0195438,19.915438 15.6557963,20.7465266 C18.8855316,21.4312692 22.0932709,22.2258937 25.3252057,22.9143072 C26.4611731,23.1568304 27.5937189,23.4130582 28.7250428,23.677362 C28.9041874,23.5393367 29.080888,23.4000878 29.2622322,23.2640203 C32.375389,20.9171004 35.3956741,18.5594127 38.2346151,15.9046278 C36.5592587,15.6878008 34.8836578,15.5003409 33.2087902,15.3520371 C30.6731487,15.1271342 28.1274868,14.9526447 25.5808473,14.7923494" id="Fill-72" fill="#EEBB83"></path>
            <path d="M8.16992261,32.7645181 C6.78882281,32.5839105 5.38988187,32.3335561 3.98971894,32.138265 C4.00022811,32.6585519 4.11118534,33.1739443 4.31648065,33.6915392 C6.03509572,36.500746 9.91615479,37.6127797 14.0675193,38.2539612 C15.2034868,36.8759105 16.3594949,35.5264928 17.5414094,34.2076658 C14.4321629,33.6545857 11.3141181,33.1754127 8.16992261,32.7645181" id="Fill-74" fill="#EEBB83"></path>
            <path d="M98.1631283,9.9421789 C95.8068758,9.71482869 93.5676904,9.492373 91.4130672,9.17936878 C91.0850835,9.46838987 90.756611,9.75790042 90.4288717,10.0469215 C89.4258574,10.9316051 88.4763666,11.8591156 87.5623136,12.8164827 C91.2842688,13.7848624 95.0064684,14.749816 98.7655723,15.5300017 C100.333149,15.8552422 101.896326,16.199816 103.457303,16.550508 C104.966224,14.7079679 106.523291,12.9104574 108.23653,11.2563561 C105.026346,10.6100354 101.564676,10.2698667 98.1631283,9.9421789" id="Fill-76" fill="#EEBB83"></path>
            <path d="M111.741116,12.1310793 C111.092969,12.7201342 110.46242,13.3272987 109.861931,13.9665224 C108.839853,15.0533494 107.869833,16.1864295 106.924741,17.3400667 C108.65802,17.7401932 110.389833,18.1427671 112.123356,18.5409359 C112.823804,18.7017207 113.53354,18.8441511 114.246697,18.9787502 C115.625841,17.5231215 116.807511,15.9664211 116.918957,14.6294844 C116.532562,14.2707165 115.981931,13.9058304 115.264864,13.5382523 C114.172644,12.9775857 112.988774,12.5184802 111.741116,12.1310793" id="Fill-78" fill="#EEBB83"></path>
            <path d="M50.5484725,8.92490295 C49.9003259,9.45571308 49.2519348,9.98750211 48.609165,10.5254093 C47.2539715,11.6597131 45.9503462,12.8478565 44.6682281,14.0599831 C49.4836253,14.8345401 54.2821589,15.7794262 59.0457434,16.8153502 C59.2876986,16.585308 59.5306314,16.3567342 59.7701426,16.1227764 C61.5288391,14.4011308 63.2992668,12.6931899 65.092668,11.0097215 C62.7975153,10.5356878 60.5035845,10.0523544 58.1910794,9.6441519 C55.6798778,9.20046414 53.1158859,9.0156962 50.5484725,8.92490295" id="Fill-80" fill="#EEBB83"></path>
            <path d="M40.0760652,18.5057688 C37.7740692,20.7418278 35.2807088,22.7165198 32.743112,24.6603764 C37.4067373,25.834081 42.0454338,27.1095916 46.7044155,28.3011612 C47.7809939,27.0046042 48.9306477,25.7633553 50.212277,24.6190177 C52.2732953,22.7796591 54.3783055,21.0176338 56.437613,19.1956506 C51.712888,18.162908 46.9466151,17.2079882 42.1683666,16.4647561 C41.4708513,17.1446042 40.7750468,17.8268996 40.0760652,18.5057688" id="Fill-82" fill="#EEBB83"></path>
            <path d="M76.5300855,20.8625755 C78.3249532,18.7412928 80.0614094,16.5810987 81.8570102,14.4757232 C78.6255642,13.6250565 75.3777434,12.8519679 72.0773768,12.3297232 C70.9854012,12.1569468 69.8983136,11.961411 68.8139145,11.7551072 C66.7665825,13.6962717 64.7476008,15.6633772 62.7332627,17.6385586 C63.4806354,17.8079089 64.2284969,17.9753013 64.9731813,18.1475882 C68.828334,19.040103 72.6724888,19.9818076 76.5300855,20.8625755" id="Fill-84" fill="#EEBB83"></path>
            <path d="M29.8733523,26.8804793 C27.5757556,28.7249772 25.426998,30.6940405 23.3733116,32.7568338 C29.1802363,33.9613738 34.962721,35.3000236 40.7610916,36.5562008 C42.0876904,34.6236017 43.3874053,32.6738717 44.7741263,30.7892388 C42.8673238,30.2755595 40.9629654,29.7540489 39.0581181,29.2325384 C36.0072831,28.3968 32.9415397,27.6344793 29.8733523,26.8804793" id="Fill-86" fill="#EEBB83"></path>
            <path d="M67.0943462,31.211562 C69.3450183,28.4322118 71.9383381,26.0314523 74.3283177,23.3891485 C70.8634705,22.554389 67.4049776,21.6878152 63.9315764,20.887562 C62.7120244,20.6066169 61.4885621,20.3259165 60.2614338,20.047908 C57.5090102,22.6801781 54.5036334,24.9952835 51.7343462,27.6060177 C51.1983788,28.1116211 50.6866069,28.6360684 50.183389,29.1681021 C52.1148758,29.6369966 54.0510061,30.0826422 55.9974012,30.4883975 C59.3730428,31.1922287 62.7653035,31.7976802 66.1624521,32.3764565 C66.4713727,31.9868532 66.7810265,31.597984 67.0943462,31.211562" id="Fill-88" fill="#EEBB83"></path>
            <path d="M42.3655234,39.6084692 C41.777499,40.4877688 41.1770102,41.3592371 40.5528147,42.2121063 C45.429556,42.8743342 50.3124073,43.4717097 55.1192505,44.0548911 C55.3049939,44.0771612 55.4907373,44.0999207 55.6762363,44.1224354 C56.1936293,43.6300473 56.7078452,43.1339882 57.2181507,42.6354819 C55.7969695,42.3491527 54.3745662,42.0674734 52.9482525,41.8007224 C49.4071527,41.1387392 45.8834053,40.3898785 42.3655234,39.6084692" id="Fill-90" fill="#EEBB83"></path>
            <path d="M85.4829898,25.8726498 C83.0099145,25.2995021 80.515332,24.8384388 78.0405458,24.2714093 C78.0161059,24.2657806 77.9911772,24.2594177 77.9662485,24.253789 C77.3860448,24.9390211 76.7955764,25.6169114 76.1909328,26.2840338 C74.1240489,28.5629198 71.940831,30.687384 69.9389572,33.0122785 C75.2771242,33.9055274 80.6160244,34.7987764 85.909222,35.9636709 C86.3774908,35.3885654 86.8462485,34.8141941 87.3260041,34.2483882 C89.3513401,31.86427 91.6205866,29.751308 93.8671039,27.5918481 C93.5691813,27.5529367 93.2712587,27.5145148 92.973336,27.4734008 C90.4460041,27.1219747 87.9655967,26.4477553 85.4829898,25.8726498" id="Fill-92" fill="#EEBB83"></path>
            <path d="M47.9969695,31.6473696 C46.6637719,33.277243 45.429556,34.9890996 44.2544847,36.7560194 C44.1503707,36.9128886 44.0462566,37.0717156 43.9418982,37.2290743 C46.64422,37.7961038 49.3509409,38.338416 52.0684155,38.8251755 C54.5781507,39.2747367 57.081776,39.7558675 59.5814908,40.2555975 C59.8041385,40.0228633 60.0282525,39.7908633 60.2482118,39.5554371 C61.5965621,38.1105764 62.8412872,36.5822641 64.0659715,35.0360869 C60.8059308,34.503319 57.5515112,33.9470574 54.3278859,33.2079857 C52.2087006,32.7222051 50.1000244,32.1950658 47.9969695,31.6473696" id="Fill-94" fill="#EEBB83"></path>
            <path d="M101.276823,19.2602827 C100.062892,18.9954895 98.8477393,18.7358354 97.6284318,18.4947806 C93.4531161,17.6685865 89.347943,16.5139705 85.2381263,15.3874979 C83.4752749,17.4331603 81.8030957,19.5568903 80.100611,21.6607975 C84.8133605,22.6947637 89.5461507,23.9555907 94.3329532,24.5365696 C95.0861914,24.6278523 95.8308758,24.7406709 96.5711609,24.8622996 C98.2223218,23.0704177 99.7522607,21.1679198 101.276823,19.2602827" id="Fill-96" fill="#EEBB83"></path>
            <path d="M80.3654175,42.8564692 C81.5128717,41.4864945 82.6226884,40.0854397 83.7325051,38.6841401 C79.1524644,37.6917772 74.5504277,36.7965705 69.9315275,36.0021907 C69.2237475,35.8800726 68.5149898,35.76187 67.8059878,35.6451359 C66.3848065,37.4710346 64.97389,39.3160219 63.4366191,41.0437857 C68.6657841,42.1210684 73.8871283,43.2416675 79.1219145,44.293254 C79.5420367,43.8192203 79.9587373,43.3420051 80.3654175,42.8564692" id="Fill-98" fill="#EEBB83"></path>
            <path d="M59.9358941,44.6548608 C62.125222,44.9541603 64.3314134,45.3535527 66.4745499,45.7480506 C69.7712505,46.3542363 73.155446,46.9694768 76.4558126,47.196827 C76.5836334,47.0610042 76.7104766,46.9237131 76.8375642,46.7876456 C71.6035112,45.6949451 66.3831446,44.5344557 61.149336,43.4385738 C60.7455886,43.8423713 60.3403747,44.2493502 59.9358941,44.6548608" id="Fill-100" fill="#EEBB83"></path>
            <path d="M104.775251,20.0353046 C103.313743,21.9047646 101.863967,23.7837688 100.339894,25.5976759 C102.290688,26.028638 104.224375,26.5227392 106.173947,27.0413131 C107.247348,25.9204692 108.325149,24.8172456 109.390729,23.7279713 L110.059894,23.0432287 C110.511055,22.5811865 111.013051,22.1051949 111.54242,21.6079122 C111.358631,21.5648405 111.17411,21.5203004 110.990322,21.4774734 C108.919527,20.9958532 106.848733,20.5090937 104.775251,20.0353046" id="Fill-102" fill="#EEBB83"></path>
            <path d="M98.0853116,28.1554759 C97.5679185,28.7061089 97.0395275,29.2476869 96.4928065,29.7726236 C94.1094257,32.0617882 91.7079593,34.3069021 89.5523585,36.8104464 C91.7609939,37.3454169 93.955943,37.9141595 96.1401385,38.524016 C97.3572464,37.1564886 98.5320733,35.7238641 99.6973686,34.3032312 L100.214273,33.6728177 C101.397165,32.2335857 102.631136,30.8384042 103.887348,29.4738135 C102.649222,29.1145561 101.406697,28.7690034 100.151707,28.5157122 C99.4651894,28.3769527 98.7759837,28.260708 98.0853116,28.1554759" id="Fill-104" fill="#EEBB83"></path>
            <path d="M82.884831,45.0471806 C84.2114297,45.3163789 85.5326517,45.6022186 86.8462974,45.9088599 C89.4024684,44.8117544 91.6521629,43.0835013 93.7361548,41.0535013 C91.6181914,40.4962608 89.4906965,39.9759738 87.3556253,39.4845646 C85.8716334,41.3439907 84.4108595,43.2225055 82.884831,45.0471806" id="Fill-106" fill="#EEBB83"></path>
        </g>
    </g>
</svg>