<?xml version="1.0" encoding="UTF-8"?>
<svg width="120px" height="120px" viewBox="0 0 120 120" version="1.1" xmlns="http://www.w3.org/2000/svg" xmlns:xlink="http://www.w3.org/1999/xlink">
    <!-- Generator: Sketch 51.1 (57501) - http://www.bohemiancoding.com/sketch -->
    <title>Beach ball1</title>
    <desc>Created with Sketch.</desc>
    <defs></defs>
    <g id="Beach-ball1" stroke="none" stroke-width="1" fill="none" fill-rule="evenodd">
        <g id="Group-11">
            <path d="M78.9097436,3.57025641 C47.6010256,-6.7425641 13.8605128,10.2738462 3.54666667,41.5825641 C-6.76717949,72.8902564 10.2512821,106.631795 41.5589744,116.945641 C72.8666667,127.258462 106.607179,110.24 116.921026,78.9333333 C127.234872,47.6246154 110.215385,13.8851282 78.9097436,3.57025641" id="Fill-63" fill="#FFD452"></path>
            <path d="M24.9723077,12.1005128 C15.2615385,19.1969231 7.59692308,29.2871795 3.54666667,41.5825641 C0.824615385,49.8441026 0.00717948718,58.2748718 0.853333333,66.4 C11.2461538,44.8430769 31.3282051,25.5948718 57.6420513,20.0646154 C47.8205128,14.8912821 36.8707692,11.8687179 24.9723077,12.1005128" id="Fill-64" fill="#5EACD9"></path>
            <path d="M78.9097436,3.57025641 C74.9661538,2.27179487 70.9825641,1.40717949 67.014359,0.94974359 C63.5979487,6.32820513 60.5620513,12.7333333 57.9815385,19.9897436 C73.3241026,16.8420513 90.7692308,18.3507692 109.641026,26.7753846 C102.501538,16.2235897 91.945641,7.86461538 78.9097436,3.57025641" id="Fill-65" fill="#5EACD9"></path>
            <path d="M50.6092308,119.167179 C74.1087179,123.036923 97.5815385,112.42359 110.330256,92.7241026 C105.334359,68.5692308 86.3897436,35.3569231 57.9046154,20.2092308 C48.9682051,45.4830769 45.5220513,80.9846154 50.6092308,119.167179" id="Fill-66" fill="#5EACD9"></path>
            <path d="M57.5179487,11.7702564 C50.4769231,11.6646154 44.4902564,15.9825641 44.1466667,21.4164103 C43.8030769,26.8502564 49.2307692,31.3394872 56.2707692,31.4461538 C63.3097436,31.5528205 69.2964103,27.2358974 69.6410256,21.8020513 C69.985641,16.3682051 64.5579487,11.8779487 57.5179487,11.7702564" id="Fill-67" fill="#D9F1FF"></path>
            <path d="M57.5179487,11.7702564 L57.5220513,11.48 L57.2635897,11.4779487 C53.7384615,11.4779487 50.4871795,12.5641026 48.0615385,14.3446154 C45.6379487,16.1241026 44.0338462,18.6102564 43.8574359,21.3979487 C43.8461538,21.5682051 43.8410256,21.7364103 43.8410256,21.905641 C43.84,24.6133333 45.2235897,27.0564103 47.4605128,28.8194872 C49.6984615,30.5846154 52.7938462,31.6841026 56.265641,31.7364103 L56.5271795,31.7384615 C60.0502564,31.7384615 63.3015385,30.6523077 65.7261538,28.8717949 C68.1497436,27.0933333 69.7538462,24.6071795 69.9312821,21.8205128 C69.9415385,21.6502564 69.9466667,21.4810256 69.9466667,21.3128205 C69.9476923,18.6041026 68.5641026,16.1610256 66.3271795,14.3979487 C64.0892308,12.6328205 60.9948718,11.5333333 57.5220513,11.48 L57.5179487,11.7702564 L57.5128205,12.0615385 C60.8676923,12.1117949 63.8430769,13.1774359 65.9671795,14.854359 C68.0933333,16.5333333 69.3651282,18.8092308 69.3661538,21.3128205 C69.3661538,21.4687179 69.3610256,21.625641 69.3507692,21.7835897 C69.1876923,24.3630769 67.6984615,26.7005128 65.3815385,28.4030769 C63.0666667,30.1046154 59.9312821,31.1579487 56.5271795,31.1569231 L56.2748718,31.1558974 C52.92,31.105641 49.945641,30.04 47.8205128,28.3630769 C45.6953846,26.6841026 44.4225641,24.4092308 44.4225641,21.905641 C44.4225641,21.7497436 44.4276923,21.5917949 44.4369231,21.4348718 C44.6,18.8533333 46.0882051,16.5158974 48.4061538,14.8133333 C50.7220513,13.1117949 53.8584615,12.0584615 57.2635897,12.0594872 L57.5128205,12.0615385 L57.5179487,11.7702564" id="Fill-68" fill="#B3B3B3"></path>
        </g>
    </g>
</svg>