<?xml version="1.0" encoding="UTF-8"?>
<svg width="120px" height="120px" viewBox="0 0 120 120" version="1.1" xmlns="http://www.w3.org/2000/svg" xmlns:xlink="http://www.w3.org/1999/xlink">
    <!-- Generator: Sketch 51.1 (57501) - http://www.bohemiancoding.com/sketch -->
    <title>Facility7</title>
    <desc>Created with Sketch.</desc>
    <defs>
        <polygon id="path-1" points="0 119.575256 92.6823434 119.575256 92.6823434 0 0 0"></polygon>
    </defs>
    <g id="Facility7" stroke="none" stroke-width="1" fill="none" fill-rule="evenodd">
        <g id="Page-1" transform="translate(14.000000, 0.000000)">
            <path d="M26.2889151,26.9325209 L26.2889151,41.9113116 L38.5520295,41.9113116 L38.5520295,37.2553116 C38.5520295,33.0458233 42.2636259,29.6322419 46.8419151,29.6322419 C51.419644,29.6322419 55.1312404,33.0458233 55.1312404,37.2553116 L55.1312404,41.9113116 L66.5310235,41.9113116 L66.5310235,26.9325209 L26.2889151,26.9325209 Z" id="Fill-1" fill="#F3D2A5"></path>
            <polygon id="Fill-3" fill="#EE383C" points="46.4105855 0.000111627907 22.3168627 21.2155535 22.3168627 26.9325767 70.8488566 26.9325767 70.8488566 21.2155535"></polygon>
            <polygon id="Fill-5" fill="#EE383C" points="35.3009512 41.9115349 25.0446199 41.9115349 6.97292711 103.07693 31.95015 103.07693"></polygon>
            <polygon id="Fill-7" fill="#D83136" points="6.97264699 103.077153 3.53500843 114.714921 31.3128759 114.714921 31.9498699 103.077153"></polygon>
            <polygon id="Fill-9" fill="#C52C30" points="3.53517651 114.714698 0.0443150602 114.714698 0.0443150602 103.645116 3.53517651 103.573674 24.1901404 38.7887442 26.2557488 38.7887442 26.2557488 41.9115349 25.3296705 41.9824186"></polygon>
            <polygon id="Fill-11" fill="#EE383C" points="0.0440349398 103.644837 2.0429747 102.970605 23.3007578 38.7884651 24.4027518 38.7884651 3.53489639 103.644837"></polygon>
            <polygon id="Fill-13" fill="#D45F26" points="60.7311849 103.077153 61.3692994 114.714921 89.1471669 114.714921 85.7089681 103.077153"></polygon>
            <polygon id="Fill-15" fill="#EA692B" points="67.6373313 41.9115349 57.381 41.9115349 60.731241 103.07693 85.7090241 103.07693"></polygon>
            <polygon id="Fill-17" fill="#D8D423" points="57.3812241 41.9115349 46.3411157 41.9115349 35.3010072 41.9115349 30.8728627 103.07693 61.8093687 103.07693"></polygon>
            <polygon id="Fill-19" fill="#C3C021" points="30.8726386 103.077153 30.0300361 114.714921 46.3408916 114.714921 62.651747 114.714921 61.8097048 103.077153"></polygon>
            <polygon id="Fill-21" fill="#C15621" points="89.1469988 114.714698 92.6373 114.714698 92.6373 103.645116 89.1469988 103.573674 68.4920349 38.7887442 66.4269867 38.7887442 66.4269867 41.9115349 67.3525048 41.9824186"></polygon>
            <polygon id="Fill-23" fill="#EA692B" points="92.6375801 103.644837 90.6392006 102.970605 69.3819777 38.7884651 68.278303 38.7884651 89.1472789 103.644837"></polygon>
            <mask id="mask-2" fill="white">
                <use xlink:href="#path-1"></use>
            </mask>
            <g id="Clip-26"></g>
            <polygon id="Fill-25" fill="#A7A71B" mask="url(#mask-2)" points="30.3146386 119.575256 62.5811566 119.575256 62.5811566 114.714977 30.3146386 114.714977"></polygon>
            <polygon id="Fill-27" fill="#B8511E" mask="url(#mask-2)" points="62.5811566 119.575256 92.6375241 119.575256 92.6375241 114.714977 62.5811566 114.714977"></polygon>
            <polygon id="Fill-28" fill="#BB292D" mask="url(#mask-2)" points="0.0442590361 119.575256 30.3146386 119.575256 30.3146386 114.714977 0.0442590361 114.714977"></polygon>
            <polygon id="Fill-29" fill="#92952E" mask="url(#mask-2)" points="28.1795602 119.575256 30.7432229 119.575256 30.7432229 114.714977 28.1795602 114.714977"></polygon>
            <polygon id="Fill-30" fill="#92952E" mask="url(#mask-2)" points="61.8332349 119.575256 64.3968976 119.575256 64.3968976 114.714977 61.8332349 114.714977"></polygon>
            <polygon id="Fill-31" fill="#B0AF2A" mask="url(#mask-2)" points="30.7336428 114.864056 28.178944 114.864056 29.5661006 102.922102 32.117438 103.077265"></polygon>
            <polygon id="Fill-32" fill="#B0AF2A" mask="url(#mask-2)" points="61.837997 114.830233 60.7309608 103.07693 63.340003 103.07693 64.3966175 114.864279"></polygon>
            <polygon id="Fill-33" fill="#C3C021" mask="url(#mask-2)" points="32.1173259 103.077153 29.5603861 103.077153 34.1045006 37.5119442 37.6334584 37.5119442 38.5769042 41.9117581 36.3701151 41.9117581"></polygon>
            <polygon id="Fill-34" fill="#C3C021" mask="url(#mask-2)" points="60.7311849 103.077153 56.3220886 41.9117581 54.1052151 41.9117581 54.9416548 37.5119442 58.5725765 37.5119442 63.3396669 103.077153"></polygon>
            <polygon id="Fill-35" fill="#BB292D" mask="url(#mask-2)" points="-0.000560240964 114.945488 3.53512048 114.945488 3.53512048 103.609674 -0.000560240964 103.609674"></polygon>
            <polygon id="Fill-36" fill="#B8511E" mask="url(#mask-2)" points="89.1466627 114.945488 92.6823434 114.945488 92.6823434 103.609674 89.1466627 103.609674"></polygon>
            <polygon id="Fill-37" fill="#A7A71B" mask="url(#mask-2)" points="38.5770163 41.9115349 36.4055223 41.9115349 36.4055223 37.5117209 37.6330102 37.5117209"></polygon>
            <polygon id="Fill-38" fill="#A7A71B" mask="url(#mask-2)" points="56.2771572 41.9115349 54.105103 41.9115349 54.7807536 37.5117209 56.2771572 37.5117209"></polygon>
        </g>
    </g>
</svg>