<?xml version="1.0" encoding="UTF-8"?>
<svg width="120px" height="120px" viewBox="0 0 120 120" version="1.1" xmlns="http://www.w3.org/2000/svg" xmlns:xlink="http://www.w3.org/1999/xlink">
    <!-- Generator: Sketch 51.1 (57501) - http://www.bohemiancoding.com/sketch -->
    <title>Pharaoh</title>
    <desc>Created with Sketch.</desc>
    <defs>
        <polygon id="path-1" points="0.285950636 0.809263158 11.3325214 0.809263158 11.3325214 6.31578947 0.285950636 6.31578947"></polygon>
        <polygon id="path-3" points="0.332869559 0.809263158 11.3791397 0.809263158 11.3791397 6.31578947 0.332869559 6.31578947"></polygon>
        <polygon id="path-5" points="0.199373684 0.299053333 13.3734789 0.299053333 13.3734789 5.86666667 0.199373684 5.86666667"></polygon>
    </defs>
    <g id="Pharaoh" stroke="none" stroke-width="1" fill="none" fill-rule="evenodd">
        <g id="Group-115" transform="translate(26.000000, 1.000000)">
            <path d="M23.2889636,111.688632 C21.6141455,112.789684 20.3972364,114.863368 21.8336909,116.598105 C22.9167818,117.819158 24.5121455,116.859158 25.7227818,116.343368 C27.0630545,115.701263 28.5936,115.252842 29.8084182,114.417053 C30.5925091,113.863368 31.5104182,113.263368 32.0415091,112.438105 C32.2046,112.185474 32.2819636,111.932842 32.2213273,111.688632 L23.2889636,111.688632 Z" id="Fill-155" fill="#E7C59F"></path>
            <path d="M42.7400636,111.688632 C44.4169727,112.728632 45.6338818,114.863368 44.1974273,116.598105 C43.1164273,117.819158 41.5189727,116.859158 40.3062455,116.343368 C38.9659727,115.701263 37.4354273,115.252842 36.2247909,114.417053 C35.4407,113.863368 34.5186091,113.263368 33.9875182,112.438105 C33.8244273,112.185474 33.7470636,111.932842 33.8077,111.688632 L42.7400636,111.688632 Z" id="Fill-157" fill="#E7C59F"></path>
            <g id="Group-161" transform="translate(20.909091, 110.879368)">
                <mask id="mask-2" fill="white">
                    <use xlink:href="#path-1"></use>
                </mask>
                <g id="Clip-160"></g>
                <path d="M11.3130727,0.809263158 L10.7464364,0.809263158 C10.7297091,0.868210526 10.7150727,0.933473684 10.6962545,0.996631579 C10.6168,1.28715789 10.1777091,1.68294737 9.55461818,2.11663158 C9.54416364,2.10821053 8.7538,1.41978947 7.47207273,0.809263158 L2.38070909,0.809263158 C2.26989091,0.931368421 2.16116364,0.931368421 2.05243636,1.05347368 C2.05243636,1.05347368 6.08370909,0.297684211 8.57398182,2.75452632 C8.13698182,3.02189474 7.66234545,3.29347368 7.19189091,3.55031579 C7.11034545,3.46610526 7.02252727,3.39242105 6.94725455,3.33136842 C5.98334545,2.59452632 4.6368,1.73768421 3.40316364,1.70821053 C2.64834545,1.67663158 1.88934545,1.73768421 1.13243636,1.91242105 C1.00698182,2.06610526 0.894072727,2.22821053 0.793709091,2.39242105 C1.35198182,2.31663158 2.16534545,2.33136842 2.43716364,2.33136842 C3.66661818,2.35873684 5.01525455,2.77347368 5.92270909,3.65768421 C6.02934545,3.77136842 6.12970909,3.91873684 6.23216364,4.06610526 C5.93734545,4.22610526 5.65507273,4.36715789 5.3958,4.49768421 C5.02152727,4.12294737 4.42352727,3.81557895 3.87152727,3.624 C3.0498,3.32294737 1.37289091,2.99031579 0.492618182,3.48926316 C0.4968,3.48505263 0.494709091,3.47873684 0.475890909,3.47873684 C0.425709091,3.49768421 0.379709091,3.51663158 0.333709091,3.53768421 C0.195709091,4.26610526 0.346254545,5.02610526 0.923345455,5.72294737 C1.90607273,6.83031579 3.30698182,6.14189474 4.46325455,5.624 L4.46325455,5.62189474 C4.48625455,5.61136842 4.50716364,5.59663158 4.53225455,5.59031579 C4.56361818,5.57557895 4.59498182,5.56294737 4.62634545,5.54821053 C4.64307273,5.54189474 4.65770909,5.53347368 4.67443636,5.52505263 C4.72461818,5.50610526 4.76852727,5.48505263 4.81452727,5.46610526 C4.89398182,5.42821053 4.97343636,5.39031579 5.05498182,5.35663158 C5.09470909,5.33557895 5.13652727,5.31873684 5.17207273,5.29978947 C5.2118,5.28294737 5.25152727,5.26610526 5.29125455,5.24715789 C5.34770909,5.224 5.40416364,5.20084211 5.46270909,5.17347368 C5.48361818,5.16505263 5.50034545,5.15663158 5.51916364,5.15031579 C5.59443636,5.12084211 5.66761818,5.09557895 5.73870909,5.06821053 C6.06489091,4.92926316 6.39525455,4.79031579 6.72352727,4.66821053 C7.0288,4.48294737 7.33407273,4.40294737 7.63098182,4.25978947 L7.63098182,4.25768421 C8.07634545,4.04505263 8.50498182,3.81347368 8.90016364,3.53978947 C8.99425455,3.47452632 9.09252727,3.40294737 9.19289091,3.33347368 C9.19289091,3.33347368 9.19498182,3.33347368 9.19498182,3.33978947 C9.40198182,3.19031579 9.61525455,3.04084211 9.82434545,2.88294737 C9.82434545,2.87873684 9.82016364,2.87873684 9.82016364,2.87873684 C10.3219818,2.49978947 10.8028909,2.07031579 11.1311636,1.55873684 C11.2942545,1.30610526 11.3716182,1.05347368 11.3130727,0.809263158" id="Fill-159" fill="#B16B1A" mask="url(#mask-2)"></path>
            </g>
            <g id="Group-164" transform="translate(33.454545, 110.879368)">
                <mask id="mask-4" fill="white">
                    <use xlink:href="#path-3"></use>
                </mask>
                <g id="Clip-163"></g>
                <path d="M0.352318182,0.809263158 L0.918954545,0.809263158 C0.937772727,0.868210526 0.952409091,0.933473684 0.971227273,0.996631579 C1.04859091,1.28715789 1.48977273,1.68294737 2.11495455,2.11663158 C2.12331818,2.10821053 2.91368182,1.41978947 4.19331818,0.809263158 L9.28886364,0.809263158 C9.3955,0.868210526 9.4875,0.925052632 9.62968182,1.04505263 C9.62968182,1.04505263 5.58377273,0.299789474 3.09559091,2.75663158 C3.53259091,3.024 4.00513636,3.29347368 4.47559091,3.55452632 C4.55922727,3.46610526 4.64495455,3.39242105 4.72022727,3.33136842 C5.68622727,2.59452632 7.03277273,1.73768421 8.26222727,1.70821053 C9.02122727,1.68294737 9.77604545,1.73768421 10.5329545,1.91242105 C10.6584091,2.06610526 10.7734091,2.22821053 10.8758636,2.39242105 C10.3175909,2.31663158 9.50213636,2.33136842 9.23031818,2.33136842 C7.99877273,2.35873684 6.65431818,2.77347368 5.74477273,3.65768421 C5.63604545,3.77136842 5.53568182,3.91873684 5.43322727,4.06610526 C5.72804545,4.22610526 6.01240909,4.36715789 6.27168182,4.49768421 C6.64595455,4.12294737 7.24395455,3.81557895 7.79386364,3.624 C8.61977273,3.32294737 10.2945909,2.99031579 11.1748636,3.48926316 C11.1685909,3.48505263 11.2856818,3.51663158 11.3316818,3.53768421 C11.4675909,4.26610526 11.3233182,5.02610526 10.7462273,5.72294737 C9.7635,6.83031579 8.36259091,6.14189474 7.20631818,5.624 L7.20213636,5.62189474 C7.17913636,5.61136842 7.15613636,5.59663158 7.13522727,5.59031579 C7.10386364,5.57557895 7.07459091,5.56294737 7.03904545,5.54821053 C7.02440909,5.54189474 7.00768182,5.53347368 6.99304545,5.52505263 C6.94495455,5.50610526 6.89686364,5.48505263 6.85295455,5.46610526 C6.77140909,5.42821053 6.69195455,5.39031579 6.61459091,5.35663158 C6.57486364,5.33557895 6.53304545,5.31873684 6.49331818,5.29978947 C6.45359091,5.28294737 6.41386364,5.26610526 6.37413636,5.24715789 C6.31977273,5.224 6.26331818,5.20084211 6.20686364,5.17347368 C6.18595455,5.16505263 6.16504545,5.15663158 6.14622727,5.15031579 C6.07304545,5.12084211 6.00195455,5.09557895 5.93086364,5.06821053 C5.60468182,4.92926316 5.27222727,4.79031579 4.94395455,4.66821053 C4.63868182,4.48294737 4.33340909,4.40294737 4.03859091,4.25978947 L4.03859091,4.25768421 C3.59322727,4.04505263 3.1625,3.81347368 2.76940909,3.53978947 C2.67113636,3.47452632 2.57286364,3.40294737 2.47459091,3.33347368 C2.47459091,3.33347368 2.47040909,3.33347368 2.47040909,3.33978947 C2.26340909,3.19031579 2.05222727,3.04084211 1.84313636,2.88294737 L1.84522727,2.87873684 C1.34340909,2.49978947 0.8625,2.07031579 0.534227273,1.55873684 C0.371136364,1.30610526 0.293772727,1.05347368 0.352318182,0.809263158" id="Fill-162" fill="#B16B1A" mask="url(#mask-4)"></path>
            </g>
            <path d="M35.9937455,87.1882105 L33.0142,87.1882105 L30.2792909,87.1882105 L18.7186545,87.1882105 C18.7186545,87.1882105 18.8106545,107.485053 23.2810182,111.661895 C24.9746545,113.242947 31.6676545,113.973474 32.2217455,111.712421 C33.1835636,107.798737 32.8824727,93.9250526 32.8824727,93.9250526 L33.1501091,93.9250526 C33.1501091,93.9250526 32.6127455,107.666105 33.8066545,111.710316 C34.4673818,113.939789 41.2272909,113.428211 42.7473818,111.676632 C46.7577455,107.049263 47.3682909,87.1882105 47.3682909,87.1882105 L35.9937455,87.1882105 Z" id="Fill-165" fill="#EEEEED"></path>
            <path d="M42.7156,101.633053 C39.6482364,105.456211 26.6427818,105.115158 23.1927818,101.637263 C20.6544182,99.0814737 23.1927818,87.1888421 23.1927818,87.1888421 L42.7156,87.1888421 C42.7156,87.1888421 44.9737818,98.8246316 42.7156,101.633053" id="Fill-167" fill="#F3CB66"></path>
            <path d="M65.9709,40.1671579 C64.9379909,28.1418947 59.9449,15.1018947 57.4818091,11.9650526 C53.0281727,6.30610526 39.3619909,0.973473684 33.0139909,0.975578947 C26.6785364,0.975578947 13.0750818,6.32505263 8.59635455,11.9650526 C6.31099091,14.8450526 1.14226364,28.1418947 0.109354545,40.1671579 C-0.348554545,45.4955789 -0.258645455,48.9250526 19.3603545,52.8429474 L11.2037182,29.8197895 L33.0349,25.6534737 L54.8723545,29.8197895 L46.7240818,52.8429474 C66.3389,48.9250526 66.4288091,45.4955789 65.9709,40.1671579" id="Fill-169" fill="#F7B90B"></path>
            <path d="M6.09604545,16.7296842 C4.78922727,19.7991579 3.3465,23.9338947 2.18813636,28.4517895 L11.6913182,31.1865263 L11.2125,29.8202105 L11.8669545,29.696 L11.8669545,28.4412632 L6.09604545,16.7296842 Z" id="Fill-171" fill="#0C6084"></path>
            <path d="M0.166436364,39.5431579 L14.6501636,39.5431579 L12.6554364,33.9073684 L0.973527273,33.9073684 C0.626436364,35.8084211 0.348345455,37.7031579 0.166436364,39.5431579" id="Fill-173" fill="#0C6084"></path>
            <path d="M16.3872909,44.4414737 L0.333290909,44.4414737 C1.0442,46.5214737 3.08701818,48.3004211 8.38329091,50.0751579 L18.3820182,50.0751579 L16.3872909,44.4414737 Z" id="Fill-175" fill="#0C6084"></path>
            <path d="M63.9065455,28.3907368 C62.7293636,23.7633684 61.2636364,19.5507368 59.9170909,16.4623158 L54.0186364,28.4412632 L54.0186364,29.6538947 L54.8842727,29.8202105 L54.4200909,31.1149474 L63.9065455,28.3907368 Z" id="Fill-177" fill="#0C6084"></path>
            <path d="M65.1274273,33.9686316 L53.4016091,33.9686316 L51.4068818,39.6002105 L65.9198818,39.6002105 C65.7379727,37.7665263 65.4682455,35.8696842 65.1274273,33.9686316" id="Fill-179" fill="#0C6084"></path>
            <path d="M49.6703818,44.5031579 L47.6777455,50.1368421 L57.5175636,50.1368421 C62.8953818,48.3621053 64.9883818,46.5831579 65.7243818,44.5031579 L49.6703818,44.5031579 Z" id="Fill-181" fill="#0C6084"></path>
            <path d="M62.8345364,46.5877895 C61.1241727,45.8593684 58.8910818,47.2741053 57.8477182,49.7477895 C57.2329909,51.2109474 57.1723545,52.712 57.5779909,53.8509474 L57.5759,53.8509474 L52.4657182,59.8951579 L41.6159909,55.9856842 C41.6159909,55.9856842 43.4601727,58.9330526 43.9139,60.0046316 C44.2463545,60.7898947 44.8882636,63.2698947 44.8882636,63.2698947 C44.8882636,63.2698947 52.8107182,66.512 55.0605364,65.6888421 C57.8372636,64.6783158 61.0279909,55.5604211 61.0279909,55.5604211 L61.0259,55.5604211 C62.2219,55.1309474 63.3802636,53.9814737 64.0493545,52.392 C65.0906273,49.9204211 64.5428091,47.3183158 62.8345364,46.5877895" id="Fill-183" fill="#E7C59F"></path>
            <path d="M16.7916727,61.2814737 C13.3793091,65.6688421 12.0724909,78.8625263 12.0724909,78.8625263 C12.0724909,78.8625263 12.0766727,78.8414737 12.0787636,78.8056842 C11.6417636,79.4435789 11.3323091,80.2730526 11.2361273,81.2035789 C11.0019455,83.4077895 12.0515818,85.3256842 13.5779455,85.4877895 C14.5732182,85.5972632 15.5266727,84.9235789 16.1309455,83.8330526 C16.6954909,84.3046316 17.2558545,84.492 17.6552182,84.2751579 C18.4037636,83.8772632 18.3159455,82.2330526 17.4565818,80.6014737 C17.1304,79.9804211 16.7373091,79.4498947 16.3358545,79.0541053 C16.3044909,78.9867368 16.2668545,78.9214737 16.2313091,78.8604211 C16.2313091,78.8604211 17.7158545,69.3277895 19.2944909,67.0751579 C20.0890364,65.9467368 20.5992182,65.3172632 20.7769455,64.812 C20.9274909,64.412 21.0843091,63.6414737 21.1512182,63.3509474 C21.6551273,61.0898947 24.4360364,55.9846316 24.4360364,55.9846316 C24.4360364,55.9846316 18.4497636,59.1488421 16.7916727,61.2814737" id="Fill-185" fill="#E7C59F"></path>
            <path d="M60.1759455,58.284 C61.9532182,57.4924211 61.7692182,55.2166316 61.7692182,55.2166316 L57.3281273,53.0187368 C57.3281273,53.0187368 54.8629455,54.8987368 55.0490364,55.7745263 C55.3480364,57.1766316 58.8712182,58.8671579 60.1759455,58.284" id="Fill-187" fill="#F7B90B"></path>
            <path d="M12.3832,75.5576842 C10.8212909,76.9071579 11.9336545,78.9829474 11.9315636,79.044 L12.9038364,79.044 L16.3705636,79.044 C16.3705636,79.044 18.0161091,77.2018947 16.8953818,75.5576842 C16.2576545,74.6208421 13.2383818,74.8166316 12.3832,75.5576842" id="Fill-189" fill="#F7B90B"></path>
            <path d="M51.0547727,59.0970526 C51.0547727,59.0970526 49.2189545,58.2549474 41.5766818,55.9644211 L41.5850455,55.9854737 C39.6823182,54.756 34.7519545,54.5223158 34.7519545,54.5223158 L33.1189545,54.6065263 L32.9788636,54.6065263 L31.3458636,54.5517895 C31.3458636,54.5517895 26.2837727,54.7370526 24.4395909,56.0002105 L24.4437727,55.9854737 C16.9478636,58.8970526 14.8632273,63.5707368 14.8632273,63.5707368 C15.6326818,66.6275789 19.9441364,66.6275789 19.9441364,66.6275789 L20.3623182,66.0444211 C18.4951364,75.3286316 18.2588636,87.1875789 18.2588636,87.1875789 L47.8410455,87.1875789 C47.8410455,87.1875789 47.5545909,72.8991579 45.1375,63.4212632 L49.7709545,65.2570526 C49.7709545,65.2570526 51.8242273,61.6696842 51.0547727,59.0970526" id="Fill-191" fill="#EEEEED"></path>
            <path d="M18.2597,87.1882105 L47.8397909,87.1882105 C47.8397909,87.1882105 47.8167909,85.7818947 47.7080636,83.6997895 L18.3914273,83.6997895 C18.2868818,85.7818947 18.2597,87.1882105 18.2597,87.1882105" id="Fill-193" fill="#F7B90B"></path>
            <path d="M46.0152636,56.5682105 L36.8089909,54.364 L33.2983545,54.364 L29.2984455,54.364 L20.0859,56.5661053 C33.0369909,64.8250526 46.0152636,56.5682105 46.0152636,56.5682105" id="Fill-195" fill="#F7B90B"></path>
            <path d="M43.7284364,56.0223158 L36.8075273,54.3633684 L33.2989818,54.3633684 L29.2990727,54.3633684 L22.1795273,56.0644211 C33.0878,62.5696842 43.7284364,56.0223158 43.7284364,56.0223158" id="Fill-197" fill="#0C6084"></path>
            <path d="M29.6250455,54.3633684 C28.3203182,54.9128421 25.1107727,56.2433684 25.1107727,56.4433684 C25.1107727,57.4223158 27.9648636,57.9928421 28.8869545,57.6981053 C29.7295909,57.4307368 31.1472273,55.0981053 31.5716818,54.3633684 L29.6250455,54.3633684 Z" id="Fill-199" fill="#E63744"></path>
            <path d="M34.5234182,54.3633684 C34.8893273,55.0981053 36.1229636,57.5107368 36.9656,57.7823158 C37.8897818,58.0791579 41.0052364,57.4138947 41.0052364,56.4391579 C41.0052364,56.2391579 37.7915091,54.9128421 36.4909636,54.3633684 L34.5234182,54.3633684 Z" id="Fill-201" fill="#E63744"></path>
            <path d="M34.7419182,57.7545263 C35.2019182,57.1124211 34.3028273,55.0345263 33.9871,54.3629474 L33.2991909,54.3629474 L32.1491909,54.3629474 C31.7456455,55.0345263 30.5956455,57.0913684 31.0347364,57.7503158 C31.5051909,58.4555789 34.2505545,58.4450526 34.7419182,57.7545263" id="Fill-203" fill="#E63744"></path>
            <path d="M62.2116545,34.3694737 C63.8822909,34.4747368 65.1452,35.9210526 65.0427455,37.5989474 C64.9423818,39.2768421 61.7412,42.0536842 61.7412,42.0536842 C61.7412,42.0536842 58.9038364,38.9042105 59.0083818,37.2221053 C59.1108364,35.5442105 60.5431091,34.2663158 62.2116545,34.3694737 M66.8911091,42.0452632 L62.8556545,42.9610526 L62.8222,42.98 L62.8096545,42.98 C64.2231091,41.4705263 66.4018364,38.9042105 66.5042909,37.2389474 C66.6548364,34.7631579 64.7834727,32.6389474 62.3266545,32.4831579 C59.8698364,32.3336842 57.7538364,34.2157895 57.6053818,36.6936842 C57.5029273,38.3357895 59.3073818,41.1168421 60.5284727,42.7947368 L56.7313818,41.4157895 C56.7313818,41.4157895 55.7507455,43.1694737 56.5473818,44.3905263 L60.4615636,43.9736842 L52.2505636,116.344211 L54.5422,116.670526 L62.8493818,44.1168421 L66.7092,45.0242105 C67.6522,43.9126316 66.8911091,42.0452632 66.8911091,42.0452632" id="Fill-205" fill="#8C4514"></path>
            <path d="M56.6249545,50.8785263 C57.0473182,53.0722105 58.2098636,54.6932632 59.2155909,54.4932632 C60.2255,54.2995789 60.6959545,52.3606316 60.2715,50.1669474 C59.8491364,47.9669474 58.6865909,46.3501053 57.6808636,46.5458947 C56.6709545,46.7458947 56.2005,48.6848421 56.6249545,50.8785263" id="Fill-207" fill="#E7C59F"></path>
            <path d="M53.9828818,35.1743158 C54.1376091,34.1237895 54.2191545,33.0522105 54.2191545,31.9595789 C54.2191545,20.1616842 44.7201545,10.5953684 33.0006091,10.5953684 C21.2810636,10.5953684 11.7799727,20.1616842 11.7799727,31.9595789 C11.7799727,33.0016842 11.8573364,34.0269474 11.9974273,35.0269474 C10.7742455,35.7027368 9.94833636,36.9764211 9.94833636,38.4395789 C9.94833636,40.6058947 11.7611545,42.3637895 14.0026091,42.3637895 C14.1489727,42.3637895 14.2995182,42.3553684 14.4479727,42.3364211 C18.0715182,48.8943158 25.0217,53.3258947 33.0006091,53.3258947 C40.9711545,53.3258947 47.9192455,48.9027368 51.5448818,42.3574737 C51.6076091,42.3595789 51.6703364,42.3637895 51.7351545,42.3637895 C53.9724273,42.3637895 55.7873364,40.6058947 55.7873364,38.4395789 C55.7873364,37.0774737 55.0701545,35.8753684 53.9828818,35.1743158" id="Fill-209" fill="#E7C59F"></path>
            <g id="Page-1" transform="translate(20.000000, 28.000000)">
                <path d="M7.95040963,1.55163466 C7.95040963,1.55163466 7.46918697,3.24689418 5.95845596,2.91133576 C5.22030934,2.74769358 5.09026141,1.78146919 2.71994529,2.21493713 C1.97454861,2.38455501 0.407629637,3.30205447 0.105845937,3.91479334 C-0.196390892,4.52799188 0.0224702598,1.66655193 2.4562244,0.603337373 C4.21209803,-0.0310059413 4.80705598,0.000251555378 6.26069279,0.000251555378 C7.71432959,0.000251555378 8.16202073,0.852937677 7.95040963,1.55163466" id="Fill-1" fill="#2C2C2D"></path>
                <path d="M18.0495904,1.55163466 C18.0495904,1.55163466 18.530813,3.24689418 20.041544,2.91133576 C20.7796907,2.74769358 20.9097386,1.78146919 23.2800547,2.21493713 C24.0254514,2.38455501 25.5923704,3.30205447 25.8941541,3.91479334 C26.1963909,4.52799188 25.9775297,1.66655193 23.5437756,0.603337373 C21.787902,-0.0310059413 21.192944,0.000251555378 19.7393072,0.000251555378 C18.2856704,0.000251555378 17.8379793,0.852937677 18.0495904,1.55163466" id="Fill-3" fill="#2C2C2D"></path>
                <path d="M6,9 C6,10.6568785 5.10453816,12 3.99983098,12 C2.89512381,12 2,10.6568785 2,9 C2,7.34312148 2.89512381,6 3.99983098,6 C5.10453816,6 6,7.34312148 6,9" id="Fill-5" fill="#2C2C2D"></path>
                <path d="M24,9 C24,10.6568785 23.1048762,12 22.000169,12 C20.8951238,12 20,10.6568785 20,9 C20,7.34312148 20.8951238,6 22.000169,6 C23.1048762,6 24,7.34312148 24,9" id="Fill-7" fill="#2C2C2D"></path>
                <path d="M13.0245351,10.1051036 C13.8647628,9.98736736 15.9897656,11.9211723 15.9897656,11.9211723 C15.9897656,11.9211723 16.092244,11.4926731 15.6486455,10.6417383 C15.1708875,9.72612431 12.99512,9 12.99512,9 C12.99512,9 11.3047014,9.46286003 10.503852,10.657908 C10.2073289,10.9575543 10,12 10,12 C10,12 11.8977475,10.262759 13.0245351,10.1051036 Z" id="Fill-9" fill="#683918"></path>
                <g id="Group-13" transform="translate(6.000000, 14.000000)">
                    <mask id="mask-6" fill="white">
                        <use xlink:href="#path-5"></use>
                    </mask>
                    <g id="Clip-12"></g>
                    <path d="M0.199373684,0.696031111 C0.199373684,0.696031111 7.09763684,3.90412 13.3734789,0.299053333 C13.3734789,0.299053333 11.9822684,5.76825333 7.42305789,5.86016444 C3.30768947,5.98238667 2.43942632,4.36807556 1.94632105,3.90412 C1.45274211,3.44114222 0.524794737,2.13238667 0.199373684,0.696031111" id="Fill-11" fill="#683918" mask="url(#mask-6)"></path>
                </g>
            </g>
            <path d="M55.0630455,29.1751579 C55.0463182,28.0614737 54.9668636,26.7014737 54.8100455,25.2530526 C51.9601364,15.8488421 43.2745,9.00884211 33.0060455,9.00884211 C24.0632273,9.00884211 16.3247727,14.1941053 12.5904091,21.7393684 C11.5595909,24.7035789 10.9239545,27.6256842 10.8737727,28.9414737 C10.6897727,33.5098947 14.0017727,40.352 14.0017727,40.352 C13.6024091,32.8298947 13.6839545,32.8467368 15.4863182,31.5435789 C17.7256818,29.9225263 22.4427727,26.9035789 24.2660455,24.8193684 C24.6089545,24.4214737 25.3282273,22.9898947 25.3282273,22.9898947 C25.3282273,22.9898947 25.2592273,24.1141053 25.8823182,24.6109474 C29.6355,27.592 40.7131364,24.272 44.9137727,26.5751579 C48.3512273,28.4593684 52.5267727,40.352 52.5267727,40.352 C54.2266818,37.1162105 55.0965,31.6846316 55.0630455,29.1751579" id="Fill-227" fill="#343434"></path>
            <path d="M57.4826455,11.9661053 C53.0269182,6.30505263 39.3628273,0.974526316 33.0148273,0.974526316 C26.6793727,0.974526316 13.0759182,6.324 8.5951,11.9661053 C6.30973636,14.844 11.2024636,29.8187368 11.2024636,29.8187368 L33.0357364,25.6545263 L54.8731909,29.8187368 C54.8731909,29.8187368 59.9457364,15.1008421 57.4826455,11.9661053" id="Fill-229" fill="#F7B90B"></path>
            <path d="M36.4407818,1.33705263 C35.1632364,1.10126316 34.0174182,0.974947368 33.0346909,0.974947368 C32.0854182,0.974947368 30.9646909,1.09705263 29.7498727,1.32021053 L29.7498727,26.2507368 L29.8606909,26.2507368 L33.0346909,25.6444211 L36.2107818,26.2507368 L36.4407818,26.2507368 L36.4407818,1.33705263 Z" id="Fill-231" fill="#0C6084"></path>
            <path d="M19.5972545,27.2745263 L26.2191636,26.3018947 L22.8778909,3.25557895 C20.7305273,4.04084211 18.5518,4.99663158 16.5215273,6.05978947 L19.5972545,27.2745263 Z" id="Fill-233" fill="#0C6084"></path>
            <path d="M16.1035545,28.504 L10.5814636,9.95031579 C9.80573636,10.6134737 9.13246364,11.2892632 8.5951,11.9671579 C7.87582727,12.8682105 6.87637273,14.7987368 5.81000909,17.3882105 L9.69491818,30.4366316 L11.2568273,29.9650526 L11.2024636,29.8197895 L12.6786455,29.5355789 L16.1035545,28.504 Z" id="Fill-235" fill="#0C6084"></path>
            <path d="M49.6396455,6.09852632 C47.6156455,5.03115789 45.4369182,4.07326316 43.2874636,3.28589474 L39.9503727,26.3027368 L46.5701909,27.2753684 L49.6396455,6.09852632 Z" id="Fill-237" fill="#0C6084"></path>
            <path d="M56.4760818,30.4374737 L60.3338091,17.4732632 C59.2674455,14.8943158 58.2533545,12.9490526 57.4818091,11.9658947 C56.9590818,11.3069474 56.3129909,10.6501053 55.5665364,10.008 L50.0674455,28.5048421 L53.6449909,29.5869474 L54.8723545,29.8206316 L54.8305364,29.9427368 L56.4760818,30.4374737 Z" id="Fill-239" fill="#0C6084"></path>
            <path d="M39.2423909,9.00968421 C38.4143909,4.11494737 33.3042091,4.78442105 33.0135727,4.83073684 C32.7187545,4.78442105 27.6106636,4.11494737 26.7805727,9.00968421 C25.9253909,14.0454737 30.8557545,14.7717895 31.3868455,16.9402105 C31.9179364,19.1065263 32.5870273,17.9254737 32.5870273,17.9254737 L33.0135727,5.24126316 L33.4359364,17.9254737 C33.4359364,17.9254737 34.1071182,19.1065263 34.6382091,16.9402105 C35.1672091,14.7717895 40.0996636,14.0454737 39.2423909,9.00968421" id="Fill-241" fill="#CB6A22"></path>
            <path d="M35.9732545,8.00442105 C35.5655273,5.70968421 34.6413455,3.78126316 32.9978909,3.78126316 C31.3523455,3.78126316 30.4595273,5.71389474 30.0204364,8.00442105 C29.7444364,9.44442105 30.3779818,10.7791579 31.3021636,11.5475789 C32.2284364,14.5370526 31.6931636,18.8717895 31.2979818,23.3181053 C31.2310727,24.0402105 33.0146182,25.6465263 33.0146182,25.6465263 C33.0146182,25.6465263 34.7939818,24.0402105 34.7270727,23.3181053 C34.3277091,18.8423158 33.6251636,14.7265263 34.6706182,11.6023158 C35.6031636,10.8612632 36.2471636,9.53915789 35.9732545,8.00442105" id="Fill-243" fill="#F28F11"></path>
            <path d="M32.4325091,6.45621053 C32.4325091,6.57621053 32.2192364,6.67515789 31.9578727,6.67515789 C31.6986,6.67515789 31.4874182,6.57621053 31.4874182,6.45621053 C31.4874182,6.33621053 31.6986,6.23936842 31.9578727,6.23936842 C32.2192364,6.23936842 32.4325091,6.33621053 32.4325091,6.45621053" id="Fill-245" fill="#343434"></path>
            <path d="M34.5010455,6.45621053 C34.5010455,6.57621053 34.2898636,6.67515789 34.0285,6.67515789 C33.7650455,6.67515789 33.5580455,6.57621053 33.5580455,6.45621053 C33.5580455,6.33621053 33.7650455,6.23936842 34.0285,6.23936842 C34.2898636,6.23936842 34.5010455,6.33621053 34.5010455,6.45621053" id="Fill-247" fill="#343434"></path>
            <path d="M11.1232182,31.8509474 C11.1232182,31.8509474 30.4599455,21.1014737 54.8504,32.0825263 C54.8504,32.0825263 55.5466727,30.3877895 55.0636727,29.1183158 C55.0636727,29.1183158 39.2522182,18.4130526 10.8974,28.6046316 C10.8974,28.6046316 10.1802182,30.5688421 11.1232182,31.8509474" id="Fill-249" fill="#F7B90B"></path>
            <path d="M35.4791727,25.6524211 C35.4791727,28.1745263 34.3939909,30.2187368 33.0537182,30.2187368 C31.7134455,30.2187368 30.6282636,28.1745263 30.6282636,25.6524211 C30.6282636,23.1303158 31.7134455,21.084 33.0537182,21.084 C34.3939909,21.084 35.4791727,23.1303158 35.4791727,25.6524211" id="Fill-251" fill="#E63744"></path>
            <path d="M34.7889636,25.6524211 C34.7889636,27.4566316 34.0111455,28.924 33.0535091,28.924 C32.0958727,28.924 31.3180545,27.4566316 31.3180545,25.6524211 C31.3180545,23.844 32.0958727,22.3787368 33.0535091,22.3787368 C34.0111455,22.3787368 34.7889636,23.844 34.7889636,25.6524211" id="Fill-253" fill="#F7B90B"></path>
            <path d="M31.3462818,55.9524211 L34.8151,55.9524211 C35.8061909,55.9524211 36.6111909,53.8092632 36.6111909,52.8324211 L29.5543727,52.8324211 C29.5543727,53.8092632 30.3531,55.9524211 31.3462818,55.9524211" id="Fill-255" fill="#E7C59F"></path>
            <path d="M30.3110727,55.1157895 L36.5838,53.0357895 L36.5963455,53.0210526 C35.4275273,53.2231579 34.2294364,53.3242105 33.0062545,53.3242105 C31.8353455,53.3242105 30.6874364,53.2294737 29.5667091,53.0484211 C29.6336182,53.6589474 29.9138,54.5073684 30.3110727,55.1157895" id="Fill-257" fill="#E2A86E"></path>
        </g>
    </g>
</svg>