<?xml version="1.0" encoding="UTF-8"?>
<svg width="100px" height="100px" viewBox="0 0 100 100" version="1.1" xmlns="http://www.w3.org/2000/svg" xmlns:xlink="http://www.w3.org/1999/xlink">
    <!-- Generator: Sketch 48.2 (47327) - http://www.bohemiancoding.com/sketch -->
    <title>MBot Boy 喝饮料</title>
    <desc>Created with Sketch.</desc>
    <defs>
        <polygon id="path-1" points="20.1256092 31.4 0.122900778 31.4 0.122900778 0.18938566 20.1256092 0.18938566"></polygon>
        <path d="M0.732649936,3.625059 C0.293532431,3.7261013 0.0480303448,4.15230057 0.1842,4.584 L6.1228,23.4282 C6.26,23.8632 6.733,24.1382 7.179,24.0424 L12.5468,22.8902 C12.993,22.7944 13.7164,22.639 14.1628,22.543 L19.387,21.4216 C19.8332,21.3258 20.1518,20.8814 20.098,20.4276 L17.7784,0.8066 C17.7318,0.4118 17.4178,0.1416 17.0426,0.1416 C16.9872,0.1416 16.9304,0.1474 16.873,0.1598 L12.1793185,1.16748468 L0.732649936,3.625059 Z" id="path-3"></path>
        <path d="M14.3323746,0.0266105055 L14.498,1.4276 C14.5443167,1.81827906 14.3146259,2.20199122 13.9651266,2.36230385 L1.39324958,5.06142757 C1.00851749,5.05902348 0.641013416,4.80300201 0.5228,4.4282 L0.0987167575,3.08251087 L14.3323746,0.0266105055 Z" id="path-5"></path>
        <path d="M16.3617047,0.724164242 L16.7370569,3.89918783 L17.4212,10.6202 L3.4102,13.7798 L0.0398,3.2554 C0.0398,3.2554 4.7964,4.025 8.0448,1.537 C9.4212,0.4826 11.1334,0.1788 12.6506,0.179 C14.4990241,0.179 16.0571094,0.630156497 16.3617047,0.724164242 Z" id="path-7"></path>
        <path d="M16.4128741,0.156995077 L17.2829262,7.5165793 C17.390782,8.70101746 17.4616,9.5446 17.4616,9.5446 L3.4192,12.799 L2.3437847,9.6523471 L0.0467714981,2.36352882 C0.721983108,2.14939733 3.35793285,1.5490477 7.6716,3.4224 C12.7192,5.6146 16.0206,0.9362 16.309,0.0926 C16.3202,0.0594 16.3326,0.0434 16.3454,0.0434 C16.3454,0.0434 16.3454,0.0434 16.3456,0.0434 C16.366144,0.0434129045 16.3886831,0.0829793491 16.4128741,0.156995077 Z" id="path-9"></path>
        <path d="M9.0698,1.5036 C10.221,0.4338 11.4068,0.0766 12.4776,0.0766 C14.6316,0.0766 16.3196,1.5226 16.3196,1.5226 L16.9862,7.8826 L2.9792,10.8898 C2.9792,10.8898 -0.1132,1.6148 0.2098,2.1238 C0.5334,2.6326 5.6034,4.7254 9.0698,1.5036 Z" id="path-11"></path>
        <path d="M6.78379362,24.11292 C6.52797744,24.110354 6.28409962,23.9400406 6.2056,23.6908 L0.1014,4.3214 C0.0098,4.0308 0.177,3.7442 0.4742,3.6804 L17.143,0.1018 C17.1814,0.0934 17.2194,0.0896 17.2566,0.0896 C17.5064,0.0896 17.715,0.27 17.746,0.5332 L20.1304,20.7012 C20.1326649,20.7203445 20.1339348,20.7394633 20.134251,20.7584993 L20.134251,20.7774959 C20.1296968,21.0521124 19.9282653,21.3053812 19.6554,21.3638 L13.8942,22.6006 C13.596,22.6648 13.1132,22.7686 12.8154,22.8324 L6.9102,24.1002 C6.87209543,24.1083945 6.83369577,24.1125364 6.79550942,24.11292 L6.78379359,24.11292 Z" id="path-13"></path>
        <path d="M0.6112,0.196 C0.3134,0.26 0.124,0.5528 0.1878,0.8506 C0.2518,1.1482 0.545,1.3378 0.8424,1.2738 C1.1402,1.21 1.3298,0.917 1.2658,0.6192 C1.2102,0.3606 0.9818,0.1836 0.7276,0.1836 C0.6894,0.1836 0.6502,0.1876 0.6112,0.196 Z" id="path-15"></path>
        <path d="M0.6004,0.0266 C0.3026,0.0904 0.1132,0.3836 0.1772,0.6812 C0.2412,0.979 0.5342,1.1682 0.8318,1.1046 C1.1294,1.0404 1.319,0.7474 1.255,0.4498 C1.1994,0.1912 0.971,0.014 0.7166,0.014 C0.6784,0.014 0.6394,0.0182 0.6004,0.0266 Z" id="path-17"></path>
        <path d="M0.4234,0.0784 C0.2498,0.1154 0.1394,0.2866 0.1766,0.4602 C0.2136,0.6338 0.3848,0.7444 0.5584,0.707 C0.732,0.6696 0.8426,0.4988 0.8052,0.3252 C0.7728,0.1742 0.6396,0.0712 0.4912,0.0712 C0.4688,0.0712 0.446,0.0734 0.4234,0.0784 Z" id="path-19"></path>
        <path d="M0.434,0.0354 C0.2602,0.0726 0.1498,0.2434 0.187,0.4172 C0.2244,0.5908 0.3952,0.7014 0.569,0.664 C0.7424,0.6266 0.8532,0.4558 0.8158,0.2822 C0.7834,0.1314 0.6502,0.0282 0.5018,0.0282 C0.4794,0.0282 0.4566,0.0304 0.434,0.0354 Z" id="path-21"></path>
        <path d="M0.4778,0.1134 C0.18,0.1774 -0.0096,0.4702 0.0544,0.768 C0.1184,1.0656 0.4114,1.2552 0.7092,1.1912 C1.0068,1.1274 1.1962,0.8344 1.1322,0.5366 C1.0768,0.278 0.8484,0.101 0.5942,0.101 C0.556,0.101 0.5168,0.105 0.4778,0.1134 Z" id="path-23"></path>
        <path d="M0.4654,0.0308 C0.2176,0.0842 0.0596,0.3284 0.1128,0.5766 C0.166,0.8244 0.4104,0.9824 0.6584,0.9292 C0.9064,0.8758 1.0642,0.6316 1.0112,0.3836 C0.9648,0.168 0.7742,0.0206 0.562,0.0206 C0.5302,0.0206 0.4978,0.0238 0.4654,0.0308 Z" id="path-25"></path>
        <path d="M0.4822,0.0382 C0.1846,0.1022 -0.005,0.3954 0.059,0.693 C0.1228,0.9906 0.416,1.18 0.7136,1.1162 C1.0114,1.0522 1.2008,0.7592 1.137,0.4614 C1.0814,0.203 0.8528,0.0258 0.5984,0.0258 C0.56,0.0258 0.5212,0.03 0.4822,0.0382 Z" id="path-27"></path>
        <path d="M17.1502,0.1002 L0.4724,3.6808 C0.183,3.7442 0.018,4.0184 0.0954,4.3012 C0.0954,4.3016 0.0956,4.3018 0.0956,4.3022 C0.0974,4.3088 0.0994,4.315 0.1014,4.3214 L6.2054,23.6908 C6.2068,23.6954 6.2084,23.7 6.2098,23.7044 C6.212,23.711 6.2144,23.7172 6.2168,23.7234 C6.3058,23.955 6.5394,24.1104 6.784,24.113 C6.786,24.113 6.7878,24.113 6.7898,24.113 C6.7908,24.113 6.7916,24.113 6.7924,24.113 C6.8318,24.1128 6.8714,24.1088 6.9106,24.1002 L12.6718,22.8632 C12.97,22.7992 13.453,22.6958 13.7508,22.6316 L19.6558,21.3638 C19.9326,21.3044 20.1358,21.0438 20.1342,20.7646 C20.134,20.7436 20.1328,20.7224 20.1302,20.7012 L17.746,0.5332 C17.715,0.2696 17.5062,0.0896 17.2564,0.0896 C17.2216,0.0896 17.1862,0.0932 17.1502,0.1002 Z" id="path-29"></path>
        <polygon id="path-31" points="0.026 0.5288 3.793 12.47 4.8856 12.242 2.4072 0.0174"></polygon>
    </defs>
    <g id="裁剪面板" stroke="none" stroke-width="1" fill="none" fill-rule="evenodd">
        <g id="MBot-Boy-喝饮料">
            <g id="Page-1" transform="translate(50.000000, 50.000000) scale(-1, 1) translate(-50.000000, -50.000000) translate(2.800000, 8.400000)">
                <g id="Group-94" transform="translate(0.000000, 0.184400)">
                    <path d="M76.95818,67.09918 C76.31758,73.60958 72.51738,78.69458 68.03578,79.46718 L68.03578,79.46898 C68.03578,79.46898 68.02578,79.47018 68.01118,79.47198 C67.57518,79.54558 67.13278,79.57538 66.68698,79.56418 C65.31558,79.60398 63.12118,79.51218 61.17778,78.73978 C61.16138,78.73318 61.14798,78.72658 61.13198,78.71998 C56.69318,77.07858 53.88058,71.01938 54.67478,64.31038 C55.39278,58.24378 58.84238,53.53278 62.92378,52.41838 C63.10078,52.34518 63.33078,52.29098 63.62498,52.26058 C63.63238,52.25978 63.63958,52.25918 63.64678,52.25838 C64.12058,52.17998 64.60138,52.14998 65.08618,52.17158 C68.37898,52.11278 70.51698,53.03558 70.51698,53.03558 L70.51958,53.04038 C74.80018,54.69018 77.60578,60.51798 76.95818,67.09918" id="Fill-1" fill="#3E3F41"></path>
                    <path d="M14.32048,71.79098 C14.51668,73.22098 15.77088,74.29798 17.33068,74.37558 C20.73548,74.54518 28.32488,74.74578 44.13808,74.54498 C59.95148,74.34378 67.52828,73.94998 70.92308,73.69438 C72.47808,73.57718 73.70968,72.47078 73.87668,71.03758 C74.10408,69.08678 74.28708,65.71638 74.08168,60.11278 C73.88788,54.82858 73.50228,51.77058 73.15968,50.02278 C72.89368,48.66498 71.63408,47.64458 70.12408,47.55698 C67.01008,47.37678 59.90528,47.20138 43.86568,47.46378 C27.88468,47.72538 20.77108,48.04958 17.63848,48.26658 C16.10948,48.37238 14.84308,49.43258 14.60448,50.81398 C14.29868,52.58478 13.97788,55.64698 13.89148,60.86878 C13.79908,66.46658 14.05248,69.83918 14.32048,71.79098" id="Fill-3" fill="#2F9AD4"></path>
                    <path d="M72.41756,62.8697 L86.74516,50.8963 C89.53196,48.5671 89.91756,44.2181 87.62796,41.1887 L87.46196,40.9691 C85.18556,37.9571 81.10676,37.3711 78.33036,39.6537 L64.05916,51.3873" id="Fill-5" fill="#2F9AD4"></path>
                    <path d="M23.3036,26.61052 L14.3978,29.97112 C13.8188,30.26212 13.4426,30.94312 13.4546,31.67972 L13.4882,35.63092 L11.0922,36.74892 L10.8544,42.28292 L17.602,42.86032 L28.192,41.14612 L23.3036,26.61052 Z" id="Fill-7" fill="#8B8B8B"></path>
                    <path d="M22.03368,53.25544 L23.44288,52.98844 C24.21148,52.84284 24.75648,52.19944 24.66048,51.55204 L23.93388,46.65844 L23.21288,41.80184 C23.11868,41.16664 22.42568,40.76744 21.66508,40.90984 L20.27068,41.17124 C19.50928,41.31384 18.96668,41.94484 19.05868,42.58124 L20.47088,52.34504 C20.56448,52.99324 21.26448,53.40124 22.03368,53.25544" id="Fill-9" fill="#C97F38"></path>
                    <path d="M23.45202,52.98668 L24.14742,52.85488 C24.52702,52.78288 24.75642,52.19928 24.66042,51.55208 L23.93402,46.65828 L23.21302,41.80188 C23.11862,41.16648 22.73782,40.70888 22.36242,40.77928 L21.67402,40.90808 C21.29842,40.97868 21.06942,41.55048 21.16262,42.18648 L22.59262,51.94348 C22.68762,52.59108 23.07242,53.05848 23.45202,52.98668" id="Fill-11" fill="#D58830"></path>
                    <path d="M31.97938,26.87946 C31.97938,26.87946 26.90778,25.49526 23.46718,26.50146 C22.97418,26.64586 22.62618,27.11286 22.63078,27.64546 L22.71538,37.09306 C22.71898,37.49986 22.43378,37.85186 22.05078,37.91306 L18.14158,38.53666 C17.74998,38.59926 17.45518,38.95746 17.45298,39.37426 L17.43758,42.07406 C17.43518,42.47986 17.74238,42.80346 18.12578,42.79886 L32.03678,42.62666 L31.97938,26.87946 Z" id="Fill-13" fill="#58595B"></path>
                    <path d="M26.39206,71.63786 C26.55946,73.06826 27.57006,74.14806 28.81726,74.22966 C31.54026,74.40786 37.60846,74.62786 50.24806,74.46706 C62.88886,74.30646 68.94366,73.93206 71.65606,73.68486 C72.89846,73.57186 73.87506,72.46866 73.99806,71.03606 C74.16546,69.08606 74.28706,65.71646 74.08166,60.11286 C73.88806,54.82866 73.55706,51.76986 73.27046,50.02126 C73.04766,48.66306 72.03326,47.63966 70.82506,47.54846 C68.33406,47.36026 62.65266,47.16706 49.83126,47.38986 C37.05786,47.61146 31.37406,47.91786 28.87146,48.12686 C27.65006,48.22906 26.64566,49.28586 26.46506,50.66646 C26.23346,52.43606 25.99966,55.49686 25.96906,60.71706 C25.93626,66.31346 26.16366,69.68586 26.39206,71.63786" id="Fill-15" fill="#4CC0FF"></path>
                    <path d="M29.0451,50.68064 L67.3869,50.20344 C69.8333,50.17304 71.7603,48.01644 71.6695,45.42204 L71.0763,28.45884 C70.9887,25.95404 68.9625,23.93704 66.5735,23.96624 L29.1285,24.42144 C26.7371,24.45064 24.7661,26.51724 24.7483,29.02444 L24.6269,46.00504 C24.6083,48.60224 26.5965,50.71104 29.0451,50.68064" id="Fill-17" fill="#8B8B8B"></path>
                    <path d="M55.28026,32.38278 C58.99226,32.38278 62.00126,29.37358 62.00126,25.66178 L62.00126,6.84278 C62.00126,3.13078 58.99226,0.12158 55.28026,0.12158 C51.56826,0.12158 48.55926,3.13078 48.55926,6.84278 L48.55926,25.66178 C48.55926,29.37358 51.56826,32.38278 55.28026,32.38278" id="Fill-19" fill="#FFFFFF"></path>
                    <path d="M55.28026,34.1111 C57.62226,34.1111 59.52086,32.2125 59.52086,29.8705 L59.52086,17.9965 C59.52086,15.6545 57.62226,13.7559 55.28026,13.7559 C52.93826,13.7559 51.03946,15.6545 51.03946,17.9965 L51.03946,29.8705 C51.03946,32.2125 52.93826,34.1111 55.28026,34.1111" id="Fill-21" fill="#F2A7BD"></path>
                    <path d="M37.99754,32.38278 C41.70954,32.38278 44.71854,29.37358 44.71854,25.66178 L44.71854,6.84278 C44.71854,3.13078 41.70954,0.12158 37.99754,0.12158 C34.28554,0.12158 31.27654,3.13078 31.27654,6.84278 L31.27654,25.66178 C31.27654,29.37358 34.28554,32.38278 37.99754,32.38278" id="Fill-23" fill="#FFFFFF"></path>
                    <path d="M37.99754,34.1111 C40.33954,34.1111 42.23814,32.2125 42.23814,29.8705 L42.23814,17.9965 C42.23814,15.6545 40.33954,13.7559 37.99754,13.7559 C35.65554,13.7559 33.75674,15.6545 33.75674,17.9965 L33.75674,29.8705 C33.75674,32.2125 35.65554,34.1111 37.99754,34.1111" id="Fill-25" fill="#F2A7BD"></path>
                    <path d="M30.47938,50.73064 L68.01198,50.26344 C70.45838,50.23304 72.38418,48.07624 72.29198,45.48144 L71.68698,28.45144 C71.59798,25.94664 69.57078,23.92964 67.18178,23.95884 L30.52938,24.40424 C28.13818,24.43344 26.16958,26.50004 26.15498,29.00724 L26.05498,46.05464 C26.03978,48.65184 28.03078,50.76104 30.47938,50.73064" id="Fill-27" fill="#323232"></path>
                    <path d="M60.50174,27.01228 C60.83714,27.00828 63.00474,26.73668 63.80414,26.72688 C68.98374,26.66388 73.34474,31.01648 73.54734,36.49728 C73.75174,42.03308 69.64454,46.61448 64.37094,46.67988 C64.22554,46.68168 61.04314,46.46708 60.99574,46.46768 C55.85434,46.53148 51.61054,42.16728 51.51834,36.76808 C51.42714,31.42088 55.44974,27.07408 60.50174,27.01228" id="Fill-29" fill="#868585"></path>
                    <path d="M54.57986,36.73044 C54.68986,42.28064 59.06526,46.76784 64.35086,46.70204 C69.63606,46.63644 73.75226,42.04504 73.54726,36.49724 C73.34426,31.00444 68.97386,26.64284 63.78326,26.70604 C58.59226,26.76924 54.47106,31.23524 54.57986,36.73044" id="Fill-31" fill="#636465"></path>
                    <path d="M55.7245,36.71638 C55.8263,41.59378 59.6735,45.53258 64.3161,45.47498 C68.9583,45.41738 72.5783,41.38698 72.4031,36.51138 C72.2295,31.67838 68.3863,27.83658 63.8169,27.89218 C59.2473,27.94798 55.6237,31.88158 55.7245,36.71638" id="Fill-33" fill="#FFFFFF"></path>
                    <path d="M71.7825,37.04352 C71.6115,32.20592 67.7685,28.36032 63.1971,28.41612 C61.4279,28.43772 59.8039,29.04052 58.4811,30.04852 C59.8991,28.72792 61.7599,27.91732 63.8169,27.89212 C68.3863,27.83652 72.2295,31.67832 72.4031,36.51132 C72.5103,39.49492 71.1941,42.16112 69.0895,43.79652 C70.8265,42.14372 71.8771,39.72132 71.7825,37.04352" id="Fill-35" fill="#515252"></path>
                    <path d="M33.83816,37.40622 C33.84436,42.96302 38.13836,47.45562 43.42856,47.39002 C48.71796,47.32442 52.92276,42.72702 52.82156,37.17262 C52.72116,31.67322 48.42976,27.30622 43.23476,27.36942 C38.03936,27.43282 33.83216,31.90442 33.83816,37.40622" id="Fill-37" fill="#888888"></path>
                    <path d="M39.9453,27.64098 C40.2811,27.63678 42.4549,27.36498 43.2551,27.35518 C48.4387,27.29218 52.7207,31.64958 52.8207,37.13678 C52.9219,42.67878 48.7265,47.26558 43.4487,47.33118 C43.3031,47.33298 40.1227,47.11818 40.0753,47.11878 C34.9297,47.18258 30.7653,42.81338 30.7741,37.40798 C30.7829,32.05458 34.8893,27.70278 39.9453,27.64098" id="Fill-39" fill="#868585"></path>
                    <path d="M33.83816,37.40622 C33.84436,42.96302 38.13836,47.45562 43.42856,47.39002 C48.71796,47.32442 52.92276,42.72702 52.82156,37.17262 C52.72116,31.67322 48.42976,27.30622 43.23476,27.36942 C38.03936,27.43282 33.83216,31.90442 33.83816,37.40622" id="Fill-41" fill="#888888"></path>
                    <path d="M29.35614,51.20172 C29.35614,54.38332 31.93534,56.96272 35.11714,56.96272 C38.29874,56.96272 40.87794,54.38332 40.87794,51.20172 C40.87794,48.02012 38.29874,45.44072 35.11714,45.44072 C31.93534,45.44072 29.35614,48.02012 29.35614,51.20172" id="Fill-43" fill="#FFB0CA"></path>
                    <path d="M34.98376,37.39216 C34.99416,42.27536 38.76996,46.21896 43.41656,46.16136 C48.06276,46.10376 51.76016,42.06816 51.67636,37.18676 C51.59296,32.34776 47.81936,28.50136 43.24636,28.55716 C38.67296,28.61296 34.97336,32.55136 34.98376,37.39216" id="Fill-45" fill="#FFFFFF"></path>
                    <path d="M51.10964,37.67282 C51.02884,32.82962 47.25544,28.97982 42.68044,29.03562 C40.90964,29.05742 39.27364,29.66082 37.93124,30.66982 C39.37464,29.34782 41.25164,28.53622 43.31044,28.51122 C47.88324,28.45542 51.65704,32.30182 51.74044,37.14002 C51.79204,40.12702 50.42564,42.79622 48.28904,44.43362 C50.05804,42.77882 51.15444,40.35362 51.10964,37.67282" id="Fill-47" fill="#515252"></path>
                    <path d="M66.45046,36.0986 C66.23646,33.0444 64.18346,30.6784 61.86386,30.7986 C59.54406,30.9188 57.81726,33.4806 58.00806,36.5362" id="Stroke-49" stroke="#323232" stroke-width="2.1116" stroke-linecap="round" stroke-linejoin="round"></path>
                    <path d="M47.97732,37.02224 C47.82052,33.96544 45.81292,31.59704 43.49252,31.71724 C41.17212,31.83744 39.39852,34.40164 39.53212,37.46004" id="Stroke-51" stroke="#323232" stroke-width="2.1116" stroke-linecap="round" stroke-linejoin="round"></path>
                    <path d="M13.43172,50.80056 L14.40492,50.61696 C14.93592,50.51656 15.31552,50.07376 15.25312,49.62796 L14.77952,46.25276 L14.30812,42.89396 C14.24632,42.45396 13.76912,42.17756 13.24192,42.27616 L12.27572,42.45716 C11.74832,42.55596 11.36972,42.99296 11.43032,43.43356 L12.35832,50.17396 C12.41972,50.62036 12.90032,50.90096 13.43172,50.80056" id="Fill-53" fill="#C97F38"></path>
                    <path d="M16.79314,35.81402 C16.79314,35.81402 1.94734,36.91702 11.57954,41.70762 C18.21194,45.00602 27.53474,49.98042 10.83254,50.44942" id="Stroke-55" stroke="#3E3F41" stroke-width="2" stroke-linecap="round" stroke-linejoin="round"></path>
                    <path d="M4.47234,55.30642 C8.17954,57.14802 19.37454,62.70922 19.37454,62.70922 L21.83794,50.93942 C21.83794,50.93942 10.74854,45.49382 7.07614,43.69042 C5.73054,43.02962 4.36134,43.72882 4.01554,45.25502 C3.67554,46.75562 2.99294,49.76882 2.65014,51.28142 C2.29954,52.82822 3.11434,54.63182 4.47234,55.30642" id="Fill-57" fill="#2F9AD4"></path>
                    <path d="M35.23152,55.28884 C35.23312,55.99244 35.76692,56.55664 36.42372,56.54844 C37.08052,56.54024 37.61052,55.96264 37.60732,55.25924 C37.60412,54.55664 37.07052,53.99424 36.41512,54.00244 C35.75992,54.01064 35.22992,54.58624 35.23152,55.28884" id="Fill-59" fill="#2381A9"></path>
                    <path d="M51.10964,37.67282 C51.02884,32.82962 47.25544,28.97982 42.68044,29.03562 C40.90964,29.05742 39.27364,29.66082 37.93124,30.66982 C39.37464,29.34782 41.25164,28.53622 43.31044,28.51122 C47.88324,28.45542 51.65704,32.30182 51.74044,37.14002 C51.79204,40.12702 50.42564,42.79622 48.28904,44.43362 C50.05804,42.77882 51.15444,40.35362 51.10964,37.67282" id="Fill-61" fill="#515252"></path>
                    <path d="M18.46394,63.25758 L36.74134,63.85678 C40.46994,63.97898 43.58874,60.82178 43.70574,56.83058 C43.82194,52.86738 40.93054,49.57838 37.24914,49.45918 L19.20314,48.87518 C15.52634,48.75598 12.36354,51.84618 12.13674,55.80238 C11.90814,59.78638 14.73994,63.13558 18.46394,63.25758" id="Fill-63" fill="#2F9AD4"></path>
                    <g id="Group-67" transform="translate(0.000000, 51.600000)">
                        <mask id="mask-2" fill="white">
                            <use xlink:href="#path-1"></use>
                        </mask>
                        <g id="Clip-66"></g>
                        <path d="M20.08944,15.25172 C20.55904,23.94892 16.40104,31.23012 10.80944,31.39712 C5.23324,31.56372 0.46044,24.58392 0.13984,15.92392 C-0.17596,7.38972 3.96164,0.39732 9.39024,0.19392 C14.83344,-0.00988 19.62664,6.68112 20.08944,15.25172" id="Fill-65" fill="#3E3F41" mask="url(#mask-2)"></path>
                    </g>
                    <path d="M23.6405,66.732 C24.1367,75.436 19.9927,82.7228 14.3915,82.8902 C8.8055,83.057 4.0033,76.072 3.6567,67.4054 C3.3151,58.8648 7.4395,51.867 12.8773,51.6634 C18.3297,51.4594 23.1515,58.155 23.6405,66.732" id="Fill-68" fill="#3E3F41"></path>
                    <polygon id="Fill-70" fill="#3E3F41" points="11.18182 82.9859 14.88362 82.8753 13.35642 51.6455 9.75282 51.7805"></polygon>
                    <path d="M12.26052,67.2525 C12.54412,73.2467 10.52392,78.2207 7.74872,78.3067 C4.97752,78.3927 2.54352,73.5687 2.31092,67.5875 C2.08112,61.6663 4.09892,56.8301 6.81932,56.7315 C9.54332,56.6325 11.97972,61.3189 12.26052,67.2525" id="Fill-72" fill="#959595"></path>
                    <polygon id="Fill-74" fill="#959595" points="7.93376 78.30114 9.77136 78.24414 8.80456 56.65954 7.00076 56.72494"></polygon>
                    <path d="M14.02654,67.19314 C14.31934,73.18934 12.30454,78.16534 9.52694,78.25174 C6.75334,78.33774 4.30994,73.51194 4.06854,67.52834 C3.82954,61.60514 5.84214,56.76694 8.56474,56.66814 C11.29114,56.56934 13.73674,61.25714 14.02654,67.19314" id="Fill-76" fill="#CCCECD"></path>
                    <path d="M10.46052,67.3857 C10.52132,68.7141 9.93672,69.8139 9.15492,69.8399 C8.37332,69.8655 7.69312,68.8081 7.63552,67.4809 C7.57812,66.1565 8.16232,65.0633 8.94072,65.0367 C9.71932,65.0099 10.39992,66.0605 10.46052,67.3857" id="Fill-78" fill="#3E3F41"></path>
                    <path d="M31.9239,69.7527 C31.9235,70.4743 31.3837,71.0667 30.7185,71.0753 C30.0531,71.0837 29.5155,70.5049 29.5173,69.7831 C29.5193,69.0623 30.0589,68.4719 30.7229,68.4635 C31.3865,68.4551 31.9243,69.0319 31.9239,69.7527" id="Fill-80" fill="#0079AC"></path>
                    <path d="M53.55438,62.80152 C50.58638,62.80152 48.22598,58.56932 47.54378,52.04992 C47.41818,50.84872 47.54858,49.60972 47.90138,48.65072 C48.25318,47.69412 48.77898,47.14592 49.34378,47.14592 L57.64638,47.14592 C58.21138,47.14592 58.74118,47.69412 59.10018,48.65072 C59.46038,49.60972 59.60018,50.84872 59.48358,52.04992 C58.85078,58.56932 56.52238,62.80152 53.55438,62.80152" id="Fill-82" fill="#2F9AD4"></path>
                    <path d="M50.32166,63.19958 C51.25266,64.45598 52.35366,65.14918 53.55446,65.14918 C54.75506,65.14918 55.85086,64.45598 56.77226,63.19958 L57.38346,63.19958 C56.35286,65.05998 55.03306,66.11118 53.55446,66.11118 C52.07566,66.11118 50.74786,65.05998 49.70326,63.19958 L50.32166,63.19958 Z" id="Fill-84" fill="#007CB2"></path>
                    <path d="M49.57674,55.9859 C52.76394,55.9859 55.34774,58.5695 55.34774,61.7567 C55.34774,61.9265 55.33874,62.0943 55.32434,62.2603 C54.76874,62.6137 54.17594,62.8015 53.55434,62.8015 C51.26494,62.8015 49.33794,60.2817 48.26314,56.1379 C48.68514,56.0395 49.12454,55.9859 49.57674,55.9859" id="Fill-86" fill="#095D7A"></path>
                    <path d="M66.61004,51.20172 C66.61004,54.38332 69.18924,56.96272 72.37084,56.96272 C75.55244,56.96272 78.13184,54.38332 78.13184,51.20172 C78.13184,48.02012 75.55244,45.44072 72.37084,45.44072 C69.18924,45.44072 66.61004,48.02012 66.61004,51.20172" id="Fill-88" fill="#FFB0CA"></path>
                    <path d="M60.63348,65.915 C60.63348,65.915 62.75768,68.5592 67.78968,69.8938 C72.31388,71.0936 70.71408,66.2424 69.25868,67.1796 C67.95608,68.0184 66.66068,67.9848 66.54988,65.6278 C66.49968,64.558 67.27428,63.7744 68.41388,63.336 C68.22788,62.7178 68.12688,62.0624 68.12688,61.3836 C68.12688,57.6442 71.15808,54.6128 74.89748,54.6128 C76.68348,54.6128 78.30688,55.3054 79.51668,56.4354 C80.70108,55.4174 82.24068,54.801 83.92508,54.801 C87.66448,54.801 90.69588,57.8322 90.69588,61.5716 C90.69588,64.2524 89.13768,66.569 86.87768,67.6658 C87.33408,68.5772 87.59248,69.6046 87.59248,70.6934 C87.59248,74.4326 84.56128,77.464 80.82188,77.464 C78.03748,77.464 75.64668,75.7826 74.60648,73.3804 C74.39828,73.4892 74.17768,73.5934 73.94368,73.6922 C69.09448,75.7422 62.26908,72.831 60.63348,65.915" id="Fill-90" fill="#FFFFFF"></path>
                    <path d="M57.10546,64.99314 C57.10546,64.99314 56.75066,69.68374 60.96706,72.73754 C60.96706,72.73754 67.01686,76.47074 65.93766,77.63994 C62.36686,81.50874 56.14646,72.03494 57.10546,64.99314" id="Fill-92" fill="#FFFFFF"></path>
                </g>
                <g id="Group-110" transform="translate(74.200000, 23.384400)">
                    <g id="Group-97">
                        <mask id="mask-4" fill="white">
                            <use xlink:href="#path-3"></use>
                        </mask>
                        <g id="Clip-96"></g>
                        <polygon id="Fill-95" fill="#EEFEFE" mask="url(#mask-4)" points="22.62948 21.19528 4.12968 25.16708 -0.53752 3.42788 17.96208 -0.54372"></polygon>
                    </g>
                    <g id="Group-100" transform="translate(5.600000, 19.000000)">
                        <mask id="mask-6" fill="white">
                            <use xlink:href="#path-5"></use>
                        </mask>
                        <g id="Clip-99"></g>
                        <polygon id="Fill-98" fill="#EF476E" mask="url(#mask-6)" points="19.68396 1.60446 -4.28084 6.74966 -4.93684 3.69366 19.02796 -1.45134"></polygon>
                    </g>
                    <g id="Group-103" transform="translate(2.400000, 8.400000)">
                        <mask id="mask-8" fill="white">
                            <use xlink:href="#path-7"></use>
                        </mask>
                        <g id="Clip-102"></g>
                        <polygon id="Fill-101" fill="#FFBBC4" mask="url(#mask-8)" points="19.06404 10.88884 1.99564 14.55324 -0.62876 2.32984 16.43964 -1.33476"></polygon>
                    </g>
                    <g id="Group-106" transform="translate(2.400000, 9.400000)">
                        <mask id="mask-10" fill="white">
                            <use xlink:href="#path-9"></use>
                        </mask>
                        <g id="Clip-105"></g>
                        <polygon id="Fill-104" fill="#FE6775" mask="url(#mask-10)" points="18.98924 9.92594 1.80644 13.61494 -0.68096 2.03034 16.50204 -1.65866"></polygon>
                    </g>
                    <g id="Group-109" transform="translate(2.800000, 11.200000)">
                        <mask id="mask-12" fill="white">
                            <use xlink:href="#path-11"></use>
                        </mask>
                        <g id="Clip-108"></g>
                        <polygon id="Fill-107" fill="#EF476E" mask="url(#mask-12)" points="18.19978 8.09196 1.75218 11.62316 -0.36682 1.75356 16.08078 -1.77784"></polygon>
                    </g>
                </g>
                <g id="Group-113" transform="translate(74.200000, 23.384400)">
                    <mask id="mask-14" fill="white">
                        <use xlink:href="#path-13"></use>
                    </mask>
                    <g id="Clip-112"></g>
                    <path d="M17.74608,0.53318 C17.71028,0.23098 17.44068,0.03778 17.14288,0.10178 L0.47428,3.68038 C0.17688,3.74438 0.00968,4.03058 0.10128,4.32138 L6.20568,23.69078 C6.29708,23.98078 6.61248,24.16418 6.91048,24.10018 L12.81548,22.83238 C13.11328,22.76858 13.59608,22.66478 13.89428,22.60078 L19.65548,21.36378 C19.95348,21.29998 20.16628,21.00398 20.13028,20.70118 L17.74608,0.53318 Z" id="Stroke-111" stroke="#EEFEFE" stroke-width="0.8938" mask="url(#mask-14)"></path>
                </g>
                <g id="Group-116" transform="translate(85.000000, 35.984400)">
                    <mask id="mask-16" fill="white">
                        <use xlink:href="#path-15"></use>
                    </mask>
                    <g id="Clip-115"></g>
                    <polygon id="Fill-114" fill="#FF7B99" mask="url(#mask-16)" points="1.92694 1.5109 -0.04906 1.9351 -0.47346 -0.0411 1.50274 -0.4653"></polygon>
                </g>
                <g id="Group-119" transform="translate(86.800000, 33.984400)">
                    <mask id="mask-18" fill="white">
                        <use xlink:href="#path-17"></use>
                    </mask>
                    <g id="Clip-118"></g>
                    <polygon id="Fill-117" fill="#FF7B99" mask="url(#mask-18)" points="1.91638 1.34138 -0.05982 1.76558 -0.48402 -0.21042 1.49218 -0.63482"></polygon>
                </g>
                <g id="Group-122" transform="translate(87.800000, 37.984400)">
                    <mask id="mask-20" fill="white">
                        <use xlink:href="#path-19"></use>
                    </mask>
                    <g id="Clip-121"></g>
                    <polygon id="Fill-120" fill="#FF7B99" mask="url(#mask-20)" points="1.41834 0.99216 -0.10886 1.32016 -0.43646 -0.20704 1.09034 -0.53484"></polygon>
                </g>
                <g id="Group-125" transform="translate(82.400000, 39.184400)">
                    <mask id="mask-22" fill="white">
                        <use xlink:href="#path-21"></use>
                    </mask>
                    <g id="Clip-124"></g>
                    <polygon id="Fill-123" fill="#FF848F" mask="url(#mask-22)" points="1.42888 0.94918 -0.09812 1.27718 -0.42592 -0.24982 1.10088 -0.57782"></polygon>
                </g>
                <g id="Group-128" transform="translate(85.000000, 39.384400)">
                    <mask id="mask-24" fill="white">
                        <use xlink:href="#path-23"></use>
                    </mask>
                    <g id="Clip-127"></g>
                    <polygon id="Fill-126" fill="#FF7B99" mask="url(#mask-24)" points="1.79354 1.42828 -0.18266 1.85248 -0.60686 -0.12372 1.36934 -0.54792"></polygon>
                </g>
                <g id="Group-131" transform="translate(81.000000, 34.784400)">
                    <mask id="mask-26" fill="white">
                        <use xlink:href="#path-25"></use>
                    </mask>
                    <g id="Clip-130"></g>
                    <polygon id="Fill-129" fill="#FF8994" mask="url(#mask-26)" points="1.65292 1.18532 -0.14328 1.57112 -0.52908 -0.22548 1.26732 -0.61088"></polygon>
                </g>
                <g id="Group-134" transform="translate(84.800000, 31.984400)">
                    <mask id="mask-28" fill="white">
                        <use xlink:href="#path-27"></use>
                    </mask>
                    <g id="Clip-133"></g>
                    <polygon id="Fill-132" fill="#FF7B99" mask="url(#mask-28)" points="1.79802 1.3531 -0.17798 1.7773 -0.60218 -0.1987 1.37382 -0.6231"></polygon>
                </g>
                <g id="Group-137" transform="translate(74.200000, 23.384400)">
                    <mask id="mask-30" fill="white">
                        <use xlink:href="#path-29"></use>
                    </mask>
                    <g id="Clip-136"></g>
                    <path d="M0.10134,4.32146 C0.00994,4.03126 0.17654,3.74446 0.47414,3.68046 L17.14294,0.10166 C17.44014,0.03806 17.71014,0.23046 17.74614,0.53326 L20.13034,20.70106 C20.16594,21.00326 19.95354,21.30006 19.65554,21.36386 L13.75074,22.63166 C13.45294,22.69566 12.96994,22.79926 12.67194,22.86326 L6.91074,24.10026 C6.61274,24.16426 6.29714,23.98146 6.20554,23.69086 L0.10134,4.32146 Z" id="Stroke-135" stroke="#EEFEFE" stroke-width="0.8938" mask="url(#mask-30)"></path>
                </g>
                <g id="Group-140" transform="translate(76.600000, 28.184400)">
                    <mask id="mask-32" fill="white">
                        <use xlink:href="#path-31"></use>
                    </mask>
                    <g id="Clip-139"></g>
                    <polygon id="Fill-138" fill="#FFFFFF" mask="url(#mask-32)" points="2.29138 13.26872 5.57078 12.56472 2.75998 -0.52808 -0.51962 0.17592"></polygon>
                </g>
                <path d="M94.33788,21.66952 L94.14348,21.05672 C94.00228,20.61152 93.11828,20.27972 92.07368,20.27972 L90.37088,20.27972" id="Stroke-141" stroke="#FFFFFF" stroke-width="1.267" stroke-linecap="round" stroke-linejoin="round"></path>
            </g>
        </g>
    </g>
</svg>