<?xml version="1.0" encoding="UTF-8"?>
<svg width="120px" height="120px" viewBox="0 0 120 120" version="1.1" xmlns="http://www.w3.org/2000/svg" xmlns:xlink="http://www.w3.org/1999/xlink">
    <!-- Generator: Sketch 51.1 (57501) - http://www.bohemiancoding.com/sketch -->
    <title>Cartoon number8</title>
    <desc>Created with Sketch.</desc>
    <defs>
        <polygon id="path-1" points="0.104825343 0.4184 4.95003334 0.4184 4.95003334 3 0.104825343 3"></polygon>
        <polygon id="path-3" points="0 0.1022 15.1413 0.1022 15.1413 18.2602 0 18.2602"></polygon>
        <polygon id="path-5" points="0.0084 0.82776838 74.684 0.82776838 74.684 103.453503 0.0084 103.453503"></polygon>
        <polygon id="path-7" points="0.5852 0 1.5852 0 1.5852 6.441921 0.5852 6.441921"></polygon>
    </defs>
    <g id="Cartoon-number8" stroke="none" stroke-width="1" fill="none" fill-rule="evenodd">
        <g id="Page-1" transform="translate(23.000000, 0.000000)">
            <path d="M21.3396,117.894 C21.1236,117.894 20.9456,117.723 20.9406,117.506 C20.8666,115.235 22.4086,109.006 22.4746,108.743 C22.5276,108.528 22.7436,108.398 22.9596,108.451 C23.1746,108.504 23.3046,108.721 23.2516,108.936 C23.2356,108.999 21.6706,115.319 21.7386,117.481 C21.7466,117.702 21.5726,117.887 21.3526,117.894 L21.3396,117.894 Z" id="Fill-1" fill="#1C100A"></path>
            <path d="M19.1081,116.1459 C17.9511,116.1459 17.1791,116.5739 16.9931,117.3199 C16.9331,117.5549 16.9861,117.7929 17.1411,117.9909 C17.6831,118.6869 19.3131,118.7219 19.6341,118.7219 C20.2411,118.7219 21.6781,118.6309 21.9241,117.7949 C21.9951,117.5519 21.9431,117.2949 21.7761,117.0729 C21.3251,116.4709 20.0651,116.1459 19.1081,116.1459" id="Fill-3" fill="#1E120D"></path>
            <path d="M44.7341,118.812 C44.7061,118.812 44.6781,118.809 44.6501,118.803 C44.4341,118.756 44.2961,118.544 44.3421,118.329 C44.7841,116.264 44.3781,109.926 44.3741,109.863 C44.3591,109.642 44.5261,109.452 44.7471,109.437 C44.9791,109.417 45.1581,109.59 45.1721,109.811 C45.1891,110.076 45.5891,116.325 45.1251,118.496 C45.0851,118.684 44.9191,118.812 44.7341,118.812" id="Fill-5" fill="#1C100A"></path>
            <g id="Group-9" transform="translate(44.000000, 117.000000)">
                <mask id="mask-2" fill="white">
                    <use xlink:href="#path-1"></use>
                </mask>
                <g id="Clip-8"></g>
                <path d="M2.2263,0.4184 C1.8993,0.4184 0.7923,0.4594 0.3173,0.9884 C0.1583,1.1654 0.0853,1.3774 0.1093,1.6014 C0.2233,2.6584 2.2763,3.0004 3.2523,3.0004 C3.9753,3.0004 4.4763,2.8564 4.7423,2.5714 C4.8913,2.4134 4.9623,2.2154 4.9483,2.0014 C4.8743,0.9074 3.5283,0.4184 2.2263,0.4184" id="Fill-7" fill="#1E120D" mask="url(#mask-2)"></path>
            </g>
            <path d="M73.0964,66.6245 C72.4234,66.8155 71.7034,66.9045 70.9674,66.9045 C66.5184,66.9045 62.9084,63.4145 62.9084,59.1095 C62.9084,56.7175 64.0214,54.5715 65.7744,53.1405 L65.8544,53.0755 C68.4784,56.3405 71.3674,60.9025 73.0964,66.6245" id="Fill-10" fill="#FFE444"></path>
            <path d="M32.3786,97.9145 C35.3966,97.9145 37.8446,100.2835 37.8446,103.2045 C37.8446,106.1255 35.3966,108.4935 32.3786,108.4935 C29.3616,108.4935 26.9206,106.1255 26.9206,103.2045 C26.9206,100.2835 29.3616,97.9145 32.3786,97.9145" id="Fill-12" fill="#FFE444"></path>
            <path d="M54.2419,86.2787 C58.6829,86.2787 62.2929,89.7757 62.2929,94.0817 C62.2929,98.3857 58.6829,101.8837 54.2419,101.8837 C49.7929,101.8837 46.1829,98.3857 46.1829,94.0817 C46.1829,89.7757 49.7929,86.2787 54.2419,86.2787" id="Fill-14" fill="#FFE444"></path>
            <path d="M65.8776,73.5551 C65.8776,78.0521 62.1166,81.6941 57.4676,81.6941 C52.8256,81.6941 49.0646,78.0521 49.0646,73.5551 C49.0646,69.0481 52.8256,65.4081 57.4676,65.4081 C62.1166,65.4081 65.8776,69.0481 65.8776,73.5551" id="Fill-16" fill="#FFE444"></path>
            <path d="M32.2751,70.4975 C31.1541,71.8175 29.4581,72.6665 27.5611,72.6665 C24.2081,72.6665 21.4791,70.0255 21.4791,66.7685 C21.4791,63.5195 24.2081,60.8785 27.5611,60.8785 C28.6501,60.8785 29.6731,61.1505 30.5541,61.6385 C30.1381,62.6145 29.9061,63.6875 29.9061,64.8075 C29.9061,67.0165 30.8021,69.0255 32.2751,70.4975" id="Fill-18" fill="#FFE444"></path>
            <path d="M41.0612,86.1352 C41.0612,89.6082 38.1572,92.4242 34.5632,92.4242 C30.9782,92.4242 28.0652,89.6082 28.0652,86.1352 C28.0652,82.6532 30.9782,79.8362 34.5632,79.8362 C38.1572,79.8362 41.0612,82.6532 41.0612,86.1352" id="Fill-20" fill="#FFE444"></path>
            <path d="M19.6062,93.0571 C19.6062,97.5781 16.5342,101.4041 12.3002,102.6841 L12.1562,102.8521 C7.1632,98.5781 3.4332,92.8811 1.4972,86.1671 L1.6252,86.1271 C3.5212,84.1821 6.2102,82.9741 9.1872,82.9661 C14.9412,82.9661 19.6062,87.4871 19.6062,93.0571" id="Fill-22" fill="#FFE444"></path>
            <g id="Group-26" transform="translate(0.000000, 60.000000)">
                <mask id="mask-4" fill="white">
                    <use xlink:href="#path-3"></use>
                </mask>
                <g id="Clip-25"></g>
                <path d="M15.1413,9.1772 C15.1413,14.1952 10.9483,18.2602 5.7703,18.2602 C3.5933,18.2602 1.5843,17.5392 0.0083,16.3312 C0.0083,15.9952 -0.0007,15.6592 -0.0007,15.3232 C-0.0007,9.2572 1.7203,4.2552 4.1293,0.2382 C4.6653,0.1512 5.2093,0.1022 5.7703,0.1022 C10.9483,0.1022 15.1413,4.1672 15.1413,9.1772" id="Fill-24" fill="#FFE444" mask="url(#mask-4)"></path>
            </g>
            <g id="Group-29" transform="translate(0.000000, 8.000000)">
                <mask id="mask-6" fill="white">
                    <use xlink:href="#path-5"></use>
                </mask>
                <g id="Clip-28"></g>
                <path d="M37.8444,95.2045 C37.8444,92.2835 35.3964,89.9145 32.3784,89.9145 C29.3624,89.9145 26.9204,92.2835 26.9204,95.2045 C26.9204,98.1255 29.3624,100.4935 32.3784,100.4935 C35.3964,100.4935 37.8444,98.1255 37.8444,95.2045 M34.5634,84.4245 C38.1564,84.4245 41.0614,81.6075 41.0614,78.1355 C41.0614,74.6525 38.1564,71.8365 34.5634,71.8365 C30.9784,71.8365 28.0654,74.6525 28.0654,78.1355 C28.0654,81.6075 30.9784,84.4245 34.5634,84.4245 M45.1584,27.6615 C45.1584,24.3755 42.5814,21.7215 39.4124,21.7215 C36.2434,21.7215 33.6664,24.3755 33.6664,27.6615 C33.6664,30.9395 36.2434,33.6025 39.4124,33.6025 C42.5814,33.6025 45.1584,30.9395 45.1584,27.6615 M46.8874,56.8075 C46.8874,52.2625 43.0864,48.5725 38.3974,48.5725 C34.8674,48.5725 31.8424,50.6615 30.5544,53.6385 C29.6734,53.1505 28.6504,52.8785 27.5614,52.8785 C24.2074,52.8785 21.4794,55.5195 21.4794,58.7675 C21.4794,62.0255 24.2074,64.6665 27.5614,64.6665 C29.4574,64.6665 31.1544,63.8175 32.2754,62.4975 C33.8114,64.0655 35.9884,65.0425 38.3974,65.0425 C43.0864,65.0425 46.8874,61.3535 46.8874,56.8075 M62.2924,86.0815 C62.2924,81.7755 58.6834,78.2785 54.2414,78.2785 C49.7924,78.2785 46.1834,81.7755 46.1834,86.0815 C46.1834,90.3865 49.7924,93.8845 54.2414,93.8845 C58.6834,93.8845 62.2924,90.3865 62.2924,86.0815 M57.4674,73.6935 C62.1164,73.6935 65.8774,70.0525 65.8774,65.5555 C65.8774,61.0485 62.1164,57.4075 57.4674,57.4075 C52.8254,57.4075 49.0644,61.0485 49.0644,65.5555 C49.0644,70.0525 52.8254,73.6935 57.4674,73.6935 M73.0964,58.6245 C74.3684,62.7935 75.0174,67.5635 74.5124,72.9005 C72.4884,94.1875 51.7044,104.8315 32.9474,103.3105 C24.9364,102.6625 17.7494,99.6455 12.1564,94.8515 L12.3004,94.6835 C16.5334,93.4035 19.6064,89.5785 19.6064,85.0575 C19.6064,79.4865 14.9414,74.9665 9.1874,74.9665 C6.2104,74.9745 3.5214,76.1825 1.6244,78.1275 L1.4964,78.1675 C0.6084,75.0855 0.0964,71.7975 0.0084,68.3315 C1.5844,69.5395 3.5934,70.2605 5.7704,70.2605 C10.9484,70.2605 15.1414,66.1945 15.1414,61.1775 C15.1414,56.1675 10.9484,52.1015 5.7704,52.1015 C5.2094,52.1015 4.6654,52.1505 4.1294,52.2375 C9.6514,43.0035 18.7584,38.9375 18.7584,38.9375 C18.7584,38.9375 9.6354,18.6665 23.8234,6.7515 C38.0214,-5.1565 61.8444,1.9415 65.3894,18.6665 C68.2464,32.1355 60.0684,39.1935 60.0684,39.1935 C60.0684,39.1935 62.7734,41.2345 65.8544,45.0755 L65.7744,45.1405 C64.0214,46.5715 62.9084,48.7175 62.9084,51.1095 C62.9084,55.4145 66.5184,58.9045 70.9674,58.9045 C71.7034,58.9045 72.4234,58.8155 73.0964,58.6245" id="Fill-27" fill="#277EA5" mask="url(#mask-6)"></path>
            </g>
            <path d="M35.2312,19.2534 C35.2312,22.7874 32.3662,25.6524 28.8332,25.6524 C25.2972,25.6524 22.4322,22.7874 22.4322,19.2534 C22.4322,15.7184 25.2972,12.8544 28.8332,12.8544 C32.3662,12.8544 35.2312,15.7184 35.2312,19.2534" id="Fill-30" fill="#221612"></path>
            <path d="M28.8327,13.6537 C25.7447,13.6537 23.2327,16.1657 23.2327,19.2537 C23.2327,22.3417 25.7447,24.8527 28.8327,24.8527 C31.9197,24.8527 34.4317,22.3417 34.4317,19.2537 C34.4317,16.1657 31.9197,13.6537 28.8327,13.6537 M28.8327,26.4537 C24.8617,26.4537 21.6327,23.2227 21.6327,19.2537 C21.6327,15.2837 24.8617,12.0527 28.8327,12.0527 C32.8017,12.0527 36.0317,15.2837 36.0317,19.2537 C36.0317,23.2227 32.8017,26.4537 28.8327,26.4537" id="Fill-32" fill="#D00054"></path>
            <path d="M57.7243,19.2534 C57.7243,22.7874 54.8603,25.6524 51.3253,25.6524 C47.7903,25.6524 44.9253,22.7874 44.9253,19.2534 C44.9253,15.7184 47.7903,12.8544 51.3253,12.8544 C54.8603,12.8544 57.7243,15.7184 57.7243,19.2534" id="Fill-34" fill="#221612"></path>
            <path d="M51.3249,13.6537 C48.2369,13.6537 45.7249,16.1657 45.7249,19.2537 C45.7249,22.3417 48.2369,24.8527 51.3249,24.8527 C54.4129,24.8527 56.9249,22.3417 56.9249,19.2537 C56.9249,16.1657 54.4129,13.6537 51.3249,13.6537 M51.3249,26.4537 C47.3549,26.4537 44.1249,23.2227 44.1249,19.2537 C44.1249,15.2837 47.3549,12.0527 51.3249,12.0527 C55.2959,12.0527 58.5249,15.2837 58.5249,19.2537 C58.5249,23.2227 55.2959,26.4537 51.3249,26.4537" id="Fill-36" fill="#D00054"></path>
            <path d="M44.9245,20.0541 C44.7615,20.0541 44.5965,20.0031 44.4535,19.9011 C39.9035,16.5831 35.9035,19.7381 35.7365,19.8731 C35.3945,20.1521 34.8905,20.1001 34.6115,19.7581 C34.3335,19.4151 34.3825,18.9141 34.7245,18.6341 C34.7755,18.5931 39.8285,14.5511 45.3975,18.6061 C45.7535,18.8671 45.8325,19.3671 45.5715,19.7251 C45.4155,19.9401 45.1715,20.0541 44.9245,20.0541" id="Fill-38" fill="#D00054"></path>
            <path d="M37.5505,21.0375 C37.5505,21.0505 37.5925,21.1395 37.6955,21.3525 C37.7965,21.5545 37.9545,21.8375 38.1855,22.1095 C38.3065,22.2405 38.4365,22.3765 38.5875,22.4935 C38.7405,22.6085 38.9055,22.7165 39.0955,22.7955 C39.1855,22.8425 39.2835,22.8765 39.3895,22.9015 C39.4885,22.9365 39.5965,22.9645 39.7085,22.9805 C39.9095,23.0355 40.2015,23.0375 40.3805,23.0435 C40.5195,23.0375 40.6935,23.0435 40.8035,23.0275 C40.8945,23.0065 40.9855,22.9935 41.0775,22.9795 C41.1735,22.9425 41.2735,22.9215 41.3705,22.8935 L41.6315,22.7675 C41.7875,22.6635 41.9465,22.5585 42.0715,22.4175 C42.1965,22.2795 42.3155,22.1315 42.4045,21.9745 C42.5905,21.6645 42.7095,21.3555 42.7825,21.1385 C42.8495,20.9265 42.8875,20.8055 42.8875,20.8055 L42.9435,20.6265 C43.0095,20.4135 43.2375,20.2945 43.4505,20.3605 C43.6435,20.4215 43.7585,20.6115 43.7315,20.8055 C43.7295,20.8165 43.7625,20.9855 43.7645,21.2765 C43.7625,21.5665 43.7365,21.9875 43.5665,22.4875 C43.4035,22.9795 43.0645,23.5765 42.4735,24.0135 C42.3255,24.1165 42.1625,24.2045 42.0015,24.2985 C41.8335,24.3695 41.6605,24.4385 41.4835,24.4985 C41.2925,24.5415 41.0945,24.5765 40.8975,24.6085 C40.7175,24.6315 40.5945,24.6275 40.4405,24.6395 L40.3295,24.6435 L40.3025,24.6445 L40.2325,24.6435 L40.2155,24.6425 L40.1505,24.6365 L39.8895,24.6095 C39.7165,24.5985 39.5425,24.5665 39.3695,24.5215 C39.1965,24.4855 39.0265,24.4405 38.8625,24.3655 C38.6965,24.3045 38.5375,24.2295 38.3885,24.1375 C38.0815,23.9745 37.8205,23.7475 37.6085,23.5165 C37.3895,23.2885 37.2295,23.0385 37.1045,22.8045 C36.8535,22.3345 36.7715,21.9085 36.7335,21.6175 C36.6995,21.3335 36.7125,21.1275 36.7125,21.1415 C36.6845,20.9095 36.8495,20.6995 37.0795,20.6705 C37.3115,20.6415 37.5225,20.8065 37.5505,21.0375" id="Fill-40" fill="#1E120D"></path>
            <path d="M36.7429,6.808 C36.7429,6.808 36.5999,6.591 36.4319,6.249 C36.2589,5.911 36.0749,5.442 35.8999,4.969 C35.8249,4.729 35.7499,4.489 35.6799,4.263 C35.6109,4.037 35.5679,3.819 35.5209,3.635 C35.4399,3.264 35.4119,3.006 35.4119,3.006 C35.3989,2.888 35.4849,2.781 35.6039,2.768 C35.6889,2.759 35.7669,2.8 35.8099,2.868 C35.8099,2.868 35.9489,3.085 36.1169,3.427 C36.1939,3.6 36.2969,3.796 36.3849,4.016 C36.4709,4.237 36.5609,4.471 36.6519,4.706 C36.8099,5.184 36.9589,5.665 37.0349,6.038 C37.1169,6.411 37.1399,6.668 37.1399,6.668 C37.1519,6.788 37.0639,6.894 36.9439,6.905 C36.8609,6.912 36.7849,6.872 36.7429,6.808" id="Fill-42" fill="#434040"></path>
            <g id="Group-46" transform="translate(39.000000, 0.000000)">
                <mask id="mask-8" fill="white">
                    <use xlink:href="#path-7"></use>
                </mask>
                <g id="Clip-45"></g>
                <path d="M0.7722,6.2631 C0.7722,6.2631 0.7092,5.8831 0.6642,5.3131 C0.6122,4.7421 0.5922,3.9821 0.5852,3.2211 C0.5922,2.8411 0.6012,2.4621 0.6092,2.1061 C0.6202,1.7491 0.6512,1.4161 0.6672,1.1311 C0.7132,0.5601 0.7722,0.1811 0.7722,0.1811 C0.7902,0.0641 0.8992,-0.0149 1.0152,0.0021 C1.1092,0.0171 1.1792,0.0911 1.1942,0.1811 C1.1942,0.1811 1.2522,0.5601 1.2982,1.1311 C1.3142,1.4161 1.3452,1.7491 1.3572,2.1061 C1.3652,2.4621 1.3732,2.8411 1.3812,3.2211 C1.3732,3.9821 1.3532,4.7421 1.3012,5.3131 C1.2562,5.8831 1.1942,6.2631 1.1942,6.2631 C1.1742,6.3791 1.0642,6.4581 0.9482,6.4391 C0.8552,6.4241 0.7872,6.3511 0.7722,6.2631" id="Fill-44" fill="#434040" mask="url(#mask-8)"></path>
            </g>
            <path d="M43.2956,6.685 C43.2956,6.685 43.3056,6.396 43.3686,5.975 C43.4256,5.552 43.5506,5 43.6846,4.452 C43.7636,4.18 43.8436,3.91 43.9176,3.656 C43.9936,3.402 44.0876,3.17 44.1566,2.97 C44.3076,2.572 44.4366,2.313 44.4366,2.313 C44.4886,2.206 44.6176,2.164 44.7246,2.215 C44.8036,2.254 44.8486,2.336 44.8436,2.419 C44.8436,2.419 44.8296,2.708 44.7676,3.129 C44.7296,3.338 44.6966,3.585 44.6406,3.844 C44.5816,4.102 44.5186,4.377 44.4556,4.654 C44.3046,5.198 44.1436,5.739 43.9856,6.136 C43.8356,6.535 43.7036,6.791 43.7036,6.791 C43.6496,6.898 43.5196,6.94 43.4126,6.885 C43.3356,6.845 43.2926,6.766 43.2956,6.685" id="Fill-47" fill="#434040"></path>
            <path d="M24.2341,57.4721 C24.0921,57.4721 23.9491,57.4671 23.8021,57.4561 C22.1701,57.3361 20.8921,56.7311 20.0061,55.6591 C18.3641,53.6701 18.6761,50.8111 18.6901,50.6901 C18.7151,50.4711 18.9121,50.3101 19.1331,50.3391 C19.3531,50.3651 19.5101,50.5631 19.4851,50.7831 C19.4821,50.8081 19.2011,53.4321 20.6261,55.1521 C21.3681,56.0471 22.4571,56.5551 23.8611,56.6581 C28.8721,57.0411 30.0681,49.6831 30.0801,49.6091 C30.1141,49.3911 30.3161,49.2431 30.5371,49.2751 C30.7551,49.3091 30.9051,49.5131 30.8711,49.7321 C30.8581,49.8111 29.6041,57.4721 24.2341,57.4721" id="Fill-49" fill="#1C100A"></path>
            <path d="M29.4655,49.2465 C30.0045,49.8015 31.0985,50.2375 31.7775,49.7565 C32.4555,49.2775 33.5425,47.3455 33.2965,46.9295 C32.9175,46.2875 31.8675,47.9915 31.8675,47.9915 C31.8675,47.9915 32.7955,46.0685 32.4475,45.8415 C31.8495,45.4505 30.8905,47.4345 30.8905,47.4345 C30.8905,47.4345 30.7495,45.5145 30.3585,45.4565 C29.9655,45.3985 29.6965,47.8735 29.6965,47.8735 C29.6965,47.8735 29.1565,46.1875 28.7955,46.6685 C28.4335,47.1505 28.8845,48.6485 29.4655,49.2465" id="Fill-51" fill="#1E120D"></path>
            <path d="M53.0505,57.5727 C47.2985,57.5727 46.5745,49.4297 46.5685,49.3477 C46.5515,49.1287 46.7155,48.9357 46.9355,48.9187 C47.1545,48.9017 47.3485,49.0637 47.3665,49.2847 C47.3725,49.3587 48.0355,56.7727 53.0505,56.7727 C54.4605,56.7727 55.5835,56.3467 56.3895,55.5067 C57.9405,53.8867 57.8475,51.2607 57.8465,51.2337 C57.8365,51.0127 58.0075,50.8267 58.2285,50.8167 C58.4565,50.8277 58.6365,50.9787 58.6455,51.1997 C58.6515,51.3217 58.7515,54.1977 56.9675,56.0587 C56.0045,57.0637 54.6875,57.5727 53.0505,57.5727" id="Fill-53" fill="#1C100A"></path>
            <path d="M48.3405,49.1918 C47.8085,49.7538 46.7215,50.2058 46.0365,49.7348 C45.3505,49.2648 44.2365,47.3478 44.4785,46.9278 C44.8475,46.2808 45.9205,47.9698 45.9205,47.9698 C45.9205,47.9698 45.2445,45.8428 45.6375,45.7048 C46.4445,45.4208 46.8905,47.3998 46.8905,47.3998 C46.8905,47.3998 47.0015,45.4628 47.3955,45.4158 C48.1095,45.3248 48.0895,47.8218 48.0895,47.8218 C48.0895,47.8218 48.6055,46.1298 48.9745,46.6048 C49.3435,47.0818 48.9125,48.5868 48.3405,49.1918" id="Fill-55" fill="#1E120D"></path>
            <path d="M30.7956,32.1772 C30.7956,35.4312 28.0716,38.0702 24.7126,38.0702 C21.3536,38.0702 18.6306,35.4312 18.6306,32.1772 C18.6306,28.9232 21.3536,26.2842 24.7126,26.2842 C28.0716,26.2842 30.7956,28.9232 30.7956,32.1772" id="Fill-57" fill="#FFE444"></path>
            <path d="M62.196,32.8911 C62.196,36.1451 59.472,38.7841 56.113,38.7841 C52.754,38.7841 50.03,36.1451 50.03,32.8911 C50.03,29.6361 52.754,26.9981 56.113,26.9981 C59.472,26.9981 62.196,29.6361 62.196,32.8911" id="Fill-59" fill="#FFE444"></path>
        </g>
    </g>
</svg>