<?xml version="1.0" encoding="UTF-8"?>
<svg width="120px" height="120px" viewBox="0 0 120 120" version="1.1" xmlns="http://www.w3.org/2000/svg" xmlns:xlink="http://www.w3.org/1999/xlink">
    <!-- Generator: Sketch 51.1 (57501) - http://www.bohemiancoding.com/sketch -->
    <title>Fruit knife1</title>
    <desc>Created with Sketch.</desc>
    <defs></defs>
    <g id="Fruit-knife1" stroke="none" stroke-width="1" fill="none" fill-rule="evenodd">
        <g id="Group-9" transform="translate(0.000000, 49.000000)">
            <path d="M79.0446774,3.27 C79.0446774,3.27 79.1564516,0.106451613 82.1012903,2.39806452 C82.1012903,2.39806452 116.444516,0.406451613 117.557903,0.342096774 C118.669839,0.277258065 119.738226,1.65145161 119.692742,5.71016129 C119.64871,9.7683871 118.010323,12.7137097 115.37129,10.5962903 C115.082903,10.3901613 112.901129,10.9108065 109.37129,11.4324194 C103.556613,12.2912903 94.0824194,13.1506452 83.3835484,10.7559677 C83.2291935,10.6877419 82.9132258,10.8353226 82.5183871,10.9819355 C81.1354839,11.4972581 78.7867742,12.0125806 79.0446774,3.27" id="Fill-845" fill="#ED9B3D"></path>
            <path d="M79.0446774,3.27 L79.3224194,3.27967742 L79.3224194,3.27725806 C79.3229032,3.24483871 79.3490323,2.84225806 79.4966129,2.48274194 C79.5701613,2.30177419 79.6727419,2.13629032 79.8,2.02451613 C79.9296774,1.91274194 80.0758065,1.84403226 80.3017742,1.84209677 C80.4701613,1.84209677 80.6869355,1.88612903 80.9579032,2.0066129 C81.228871,2.1266129 81.5530645,2.32258065 81.9304839,2.61774194 C81.9841935,2.65887097 82.0495161,2.67967742 82.1167742,2.67532258 C82.1167742,2.67532258 90.7030645,2.17693548 99.4277419,1.67129032 C108.152903,1.16564516 117.017419,0.651290323 117.573871,0.618387097 L117.632419,0.617419355 C117.839516,0.617903226 118.035484,0.679354839 118.235323,0.829354839 C118.533387,1.05532258 118.835806,1.50483871 119.056452,2.25967742 C119.278065,3.01403226 119.417903,4.06451613 119.417903,5.46290323 C119.417903,5.54274194 119.416935,5.62548387 119.415968,5.70774194 C119.4,7.2416129 119.147419,8.60903226 118.713871,9.56419355 C118.498065,10.0417742 118.237258,10.413871 117.95371,10.6582258 C117.668226,10.9020968 117.367258,11.0235484 117.024194,11.0245161 C116.615323,11.0259677 116.119355,10.8416129 115.544032,10.38 L115.531935,10.3708065 C115.453548,10.3166129 115.385323,10.3006452 115.318548,10.2880645 C115.250806,10.2769355 115.183065,10.2730645 115.106613,10.2725806 C114.897581,10.2735484 114.629032,10.3025806 114.285,10.3514516 C113.085968,10.5227419 110.982581,10.9432258 108.169355,11.3230645 C105.357097,11.7014516 101.840806,12.0377419 97.8401613,12.0377419 C93.5148387,12.0377419 88.6224194,11.6443548 83.4445161,10.485 L83.3835484,10.7559677 L83.4953226,10.5019355 C83.4222581,10.47 83.3525806,10.4617742 83.2901613,10.4617742 C83.1391935,10.4637097 83.0124194,10.5053226 82.8706452,10.5527419 C82.6606452,10.6262903 82.4269355,10.7269355 82.1787097,10.8072581 C81.9304839,10.8885484 81.671129,10.9475806 81.4248387,10.9475806 C81.176129,10.9466129 80.9433871,10.8914516 80.7130645,10.7356452 C80.5408065,10.6180645 80.3670968,10.4385484 80.201129,10.1637097 C79.6983871,9.34209677 79.3001613,7.65629032 79.3030645,4.54548387 C79.3030645,4.14725806 79.308871,3.72483871 79.3224194,3.27774194 L79.3224194,3.27967742 L79.0446774,3.27 L78.7683871,3.26177419 C78.7553226,3.71322581 78.7485484,4.14096774 78.7485484,4.54548387 C78.75,7.35193548 79.0533871,9.05080645 79.5358065,10.091129 C79.7777419,10.6103226 80.0704839,10.9679032 80.4004839,11.1929032 C80.7304839,11.4198387 81.0895161,11.5030645 81.4248387,11.5025806 C81.87,11.501129 82.278871,11.3656452 82.6146774,11.2417742 C82.7825806,11.1783871 82.9330645,11.1179032 83.0535484,11.0767742 C83.1720968,11.0327419 83.2674194,11.0133871 83.2901613,11.0158065 L83.2935484,11.0158065 L83.298871,10.9504839 L83.2732258,11.0090323 L83.2935484,11.0158065 L83.298871,10.9504839 L83.2732258,11.0090323 L83.3230645,11.0259677 C88.5479032,12.195 93.4809677,12.5917742 97.8401613,12.5917742 C102.447581,12.5917742 106.415806,12.1490323 109.411935,11.7062903 C110.91,11.4856452 112.165645,11.2640323 113.134355,11.0985484 C113.618226,11.0158065 114.03,10.9470968 114.363871,10.8996774 C114.695323,10.8522581 114.95129,10.8266129 115.106613,10.8266129 C115.16129,10.8266129 115.203387,10.8304839 115.224677,10.833871 L115.235323,10.8362903 L115.23871,10.8372581 L115.271129,10.7356452 L115.210161,10.8212903 L115.23871,10.8372581 L115.271129,10.7356452 L115.210161,10.8212903 L115.37129,10.5962903 L115.198065,10.8120968 C115.834839,11.3235484 116.445968,11.5780645 117.024194,11.5785484 C117.508065,11.58 117.950806,11.3932258 118.315161,11.0777419 C118.862903,10.6025806 119.260161,9.85403226 119.535484,8.93177419 C119.809355,8.00903226 119.956935,6.90725806 119.97,5.71354839 C119.970484,5.62887097 119.971452,5.54516129 119.971452,5.46290323 C119.97,3.54919355 119.721774,2.23548387 119.311935,1.36645161 C119.106774,0.932419355 118.858548,0.608225806 118.571129,0.389032258 C118.284677,0.16983871 117.957097,0.0614516129 117.632419,0.0629032258 C117.602419,0.0629032258 117.571935,0.0638709677 117.541935,0.0658064516 C116.429032,0.13016129 82.0848387,2.12225806 82.0848387,2.12225806 L82.1012903,2.39806452 L82.2706452,2.17983871 C81.8656452,1.86483871 81.5075806,1.64467742 81.1824194,1.50048387 C80.8577419,1.35580645 80.5664516,1.28806452 80.3017742,1.28806452 C79.9359677,1.2866129 79.6287097,1.42645161 79.4133871,1.62774194 C79.0882258,1.93112903 78.9401613,2.33758065 78.8583871,2.66419355 C78.7785484,2.99225806 78.768871,3.24822581 78.7683871,3.26032258 L78.7683871,3.26177419 L79.0446774,3.27" id="Fill-846" fill="#9A6A2C"></path>
            <path d="M81.2637097,4.00741935 L81.1233871,4.01322581 C81.3169355,4.59677419 81.4722581,5.38112903 81.5482258,6.25016129 C81.7098387,8.09903226 81.4533871,9.63048387 80.9762903,9.67258065 C80.97,9.67354839 80.9632258,9.67354839 80.9559677,9.67354839 C80.6932258,9.67354839 80.4193548,9.22548387 80.201129,8.51419355 L80.0080645,8.52677419 C80.2785484,9.75967742 80.6646774,10.5851613 81.0266129,10.5851613 C81.033871,10.5851613 81.0401613,10.5851613 81.0469355,10.5837097 C81.5825806,10.5367742 81.8574194,8.66225806 81.6585484,6.39435484 C81.5806452,5.49725806 81.4398387,4.67274194 81.2637097,4.00741935" id="Fill-847" fill="#B17930"></path>
            <path d="M81.1233871,4.01322581 L80.7924194,4.02967742 C80.8103226,4.08870968 80.8282258,4.15064516 80.8451613,4.21306452 C80.9840323,4.73564516 81.0759677,5.34532258 81.138871,5.93225806 C81.2627419,7.10467742 81.2695161,8.18032258 81.2695161,8.18516129 C81.2709677,8.33225806 81.1572581,8.45419355 81.0101613,8.46387097 L80.201129,8.51419355 C80.4193548,9.22548387 80.6932258,9.67354839 80.9559677,9.67354839 C80.9632258,9.67354839 80.97,9.67354839 80.9762903,9.67258065 C81.4533871,9.63048387 81.7098387,8.09903226 81.5482258,6.25016129 C81.4722581,5.38112903 81.3169355,4.59677419 81.1233871,4.01322581" id="Fill-848" fill="#A16F2D"></path>
            <path d="M117.632419,0.617419355 L117.573871,0.618387097 C117.017419,0.651290323 108.152903,1.16564516 99.4277419,1.67129032 C90.7030645,2.17693548 82.1167742,2.67532258 82.1167742,2.67532258 C82.1114516,2.67580645 82.106129,2.67580645 82.1003226,2.67580645 C82.0393548,2.67580645 81.9798387,2.655 81.9304839,2.61774194 C81.5530645,2.32258065 81.228871,2.1266129 80.9579032,2.0066129 C80.6869355,1.88612903 80.471129,1.84209677 80.3022581,1.84209677 L80.3017742,1.84209677 C80.0758065,1.84403226 79.9296774,1.91274194 79.8,2.02451613 C79.6727419,2.13629032 79.5701613,2.30177419 79.4966129,2.48274194 C79.4254839,2.65645161 79.3824194,2.84080645 79.3567742,2.98790323 L79.8972581,2.94483871 C80.0090323,2.59693548 80.1546774,2.39129032 80.3279032,2.37629032 C80.3341935,2.37580645 80.3409677,2.37483871 80.3482258,2.37483871 C80.6666129,2.37483871 81.0033871,3.01403226 81.2637097,4.00741935 L119.059839,2.27177419 C119.058871,2.26790323 119.057903,2.26306452 119.056452,2.25967742 C118.835806,1.50483871 118.533387,1.05532258 118.235323,0.829354839 C118.035484,0.679354839 117.839516,0.617903226 117.632419,0.617419355" id="Fill-849" fill="#F5C888"></path>
            <path d="M80.3482258,2.37483871 C80.3409677,2.37483871 80.3341935,2.37580645 80.3279032,2.37629032 C80.1546774,2.39129032 80.0090323,2.59693548 79.8972581,2.94483871 L80.0129032,2.9366129 C80.021129,2.93516129 80.0283871,2.93516129 80.0346774,2.93516129 C80.0946774,2.93516129 80.1532258,2.95451613 80.201129,2.99080645 C80.2195161,3.00483871 80.2379032,3.02032258 80.2553226,3.03532258 C80.2979032,3.00435484 80.3424194,2.98596774 80.388871,2.98209677 C80.396129,2.9816129 80.4029032,2.9816129 80.4091935,2.9816129 C80.6559677,2.9816129 80.9133871,3.37693548 81.1233871,4.01322581 L81.2637097,4.00741935 C81.0033871,3.01403226 80.6666129,2.37483871 80.3482258,2.37483871" id="Fill-850" fill="#D2B580"></path>
            <path d="M80.4091935,2.9816129 C80.4029032,2.9816129 80.396129,2.9816129 80.388871,2.98209677 C80.3424194,2.98596774 80.2979032,3.00435484 80.2553226,3.03532258 C80.3970968,3.15967742 80.5020968,3.32129032 80.5920968,3.50564516 C80.6695161,3.66290323 80.7348387,3.83903226 80.7924194,4.02967742 L81.1233871,4.01322581 C80.9133871,3.37693548 80.6559677,2.9816129 80.4091935,2.9816129" id="Fill-851" fill="#CAAF7E"></path>
            <path d="M0.552096774,9.45822581 C0.552096774,9.45822581 -0.321774194,13.2406452 8.05451613,16.6190323 C16.4308065,19.9974194 48.371129,28.3325806 76.7124194,15.4867742 L77.3269355,8.41790323 L80.9932258,8.18709677 C80.9932258,8.18709677 80.9656452,3.91064516 80.0346774,3.21241935 L0.552096774,9.45822581" id="Fill-852" fill="#CBCCC7"></path>
            <path d="M0.552096774,9.45822581 L0.282580645,9.39629032 C0.277741935,9.41419355 0.249677419,9.54822581 0.249677419,9.77612903 C0.247741935,10.3204839 0.421935484,11.4053226 1.47822581,12.6909677 C2.53209677,13.9780645 4.45693548,15.4659677 7.95145161,16.8759677 C10.4704839,17.8920968 15.0706452,19.3417742 21.0512903,20.5403226 C27.0304839,21.738871 34.3858065,22.6848387 42.401129,22.6848387 C53.261129,22.6848387 65.3341935,20.9482258 76.8266129,15.7393548 C76.9175806,15.6982258 76.9795161,15.6106452 76.9882258,15.5109677 L77.5824194,8.67967742 L81.0101613,8.46387097 C81.1572581,8.45419355 81.2709677,8.33225806 81.2695161,8.18516129 C81.2695161,8.18032258 81.2627419,7.10467742 81.138871,5.93225806 C81.0759677,5.34532258 80.9840323,4.73564516 80.8451613,4.21306452 C80.775,3.95129032 80.6937097,3.71177419 80.5920968,3.50564516 C80.4904839,3.29854839 80.3719355,3.12048387 80.201129,2.99080645 C80.1469355,2.95016129 80.0806452,2.93080645 80.0129032,2.9366129 L0.530322581,9.18241935 C0.410322581,9.1916129 0.31016129,9.27870968 0.282580645,9.39629032 L0.552096774,9.45822581 L0.574354839,9.73548387 L80.0569355,3.48822581 L80.0346774,3.21241935 L79.8691935,3.43354839 C79.931129,3.47951613 80.0162903,3.58693548 80.0941935,3.74806452 C80.2330645,4.02967742 80.351129,4.4583871 80.4377419,4.93306452 C80.5698387,5.64483871 80.64,6.46306452 80.6762903,7.09935484 C80.6951613,7.41725806 80.7043548,7.69064516 80.7101613,7.88370968 C80.7125806,7.98048387 80.7140323,8.05741935 80.715,8.10967742 C80.7154839,8.16193548 80.7159677,8.18854839 80.7159677,8.18854839 L80.9932258,8.18709677 L80.9758065,7.91080645 L77.3090323,8.1416129 C77.1720968,8.15032258 77.0627419,8.25774194 77.0506452,8.39419355 L76.4366129,15.4625806 L76.7124194,15.4867742 L76.5982258,15.2346774 C65.1972581,20.4019355 53.2020968,22.1317742 42.401129,22.1317742 C34.4293548,22.1317742 27.1083871,21.1891935 21.1596774,19.9974194 C15.2119355,18.8051613 10.6330645,17.3608065 8.15758065,16.3625806 C4.72306452,14.9762903 2.88290323,13.5314516 1.90596774,12.3401613 C0.93,11.1469355 0.80516129,10.2082258 0.803225806,9.77612903 C0.803225806,9.68516129 0.809032258,9.61741935 0.814354839,9.57387097 L0.821129032,9.52790323 L0.822580645,9.51967742 L0.822580645,9.51919355 L0.657096774,9.48290323 L0.822096774,9.5216129 L0.822580645,9.51919355 L0.657096774,9.48290323 L0.822096774,9.5216129 L0.552096774,9.45822581 L0.574354839,9.73548387 L0.552096774,9.45822581" id="Fill-853" fill="#858884"></path>
            <path d="M9.83032258,11.5862903 C9.62225806,12.2129032 8.94483871,12.551129 8.31725806,12.3416129 C7.6916129,12.1325806 7.3533871,11.4556452 7.56241935,10.8290323 C7.77193548,10.2019355 8.44935484,9.86370968 9.07548387,10.0737097 C9.70306452,10.2817742 10.0403226,10.9591935 9.83032258,11.5862903" id="Fill-854" fill="#FFFFFE"></path>
            <path d="M9.83032258,11.5862903 L9.56806452,11.4987097 C9.44032258,11.8833871 9.08129032,12.1258065 8.69758065,12.1262903 C8.60080645,12.1262903 8.50258065,12.1112903 8.40483871,12.0783871 C8.02064516,11.9506452 7.77774194,11.5920968 7.77677419,11.2079032 C7.77677419,11.1116129 7.79274194,11.013871 7.82516129,10.9166129 C7.9533871,10.5319355 8.31290323,10.2880645 8.69612903,10.2880645 C8.79241935,10.2880645 8.89016129,10.3030645 8.98693548,10.3354839 C9.37306452,10.4637097 9.61548387,10.8232258 9.61596774,11.2074194 C9.61596774,11.3037097 9.60096774,11.4019355 9.56806452,11.4987097 L9.83032258,11.5862903 L10.0940323,11.673871 C10.1453226,11.52 10.17,11.3617742 10.17,11.2074194 C10.1704839,10.59 9.77951613,10.0166129 9.16258065,9.81048387 C9.00919355,9.75870968 8.85145161,9.73403226 8.69612903,9.73403226 C8.07919355,9.73403226 7.50629032,10.1245161 7.29967742,10.7414516 C7.2483871,10.8958065 7.22370968,11.0535484 7.22370968,11.2079032 C7.22370968,11.8243548 7.61322581,12.3977419 8.22967742,12.6033871 C8.38451613,12.656129 8.54177419,12.6798387 8.69758065,12.6798387 C9.31403226,12.6803226 9.88790323,12.2908065 10.0940323,11.673871 L9.83032258,11.5862903" id="Fill-855" fill="#4F5250"></path>
            <path d="M87.3358065,6.10935484 C87.1180645,6.76016129 86.4145161,7.11145161 85.7641935,6.89419355 C85.1133871,6.67693548 84.7625806,5.9733871 84.9793548,5.32354839 C85.196129,4.67274194 85.9001613,4.32145161 86.5504839,4.53822581 C87.2008065,4.75548387 87.5525806,5.45951613 87.3358065,6.10935484" id="Fill-856" fill="#AC762F"></path>
            <path d="M87.3358065,6.10935484 L87.0730645,6.02225806 C86.9385484,6.42629032 86.5606452,6.68129032 86.1575806,6.68225806 C86.0564516,6.68225806 85.9533871,6.66629032 85.8517742,6.63193548 C85.4477419,6.49741935 85.1922581,6.12048387 85.1922581,5.71645161 C85.1922581,5.61580645 85.2082258,5.51274194 85.2420968,5.41064516 C85.3766129,5.00709677 85.7540323,4.75112903 86.1580645,4.75112903 C86.2596774,4.75112903 86.3612903,4.7666129 86.4633871,4.80048387 C86.8669355,4.93548387 87.1224194,5.31241935 87.1229032,5.71645161 C87.1229032,5.81806452 87.1069355,5.92064516 87.0720968,6.02225806 L87.0730645,6.02225806 L87.3358065,6.10935484 L87.5980645,6.19741935 C87.6512903,6.03870968 87.6764516,5.87612903 87.6764516,5.71645161 C87.6769355,5.08016129 87.2743548,4.4883871 86.6390323,4.27548387 C86.4798387,4.22225806 86.3172581,4.1966129 86.1580645,4.1966129 C85.5212903,4.1966129 84.9295161,4.59919355 84.7170968,5.23596774 C84.6633871,5.39467742 84.6377419,5.55725806 84.6377419,5.71645161 C84.6377419,6.35274194 85.0403226,6.94451613 85.676129,7.15741935 C85.8353226,7.21016129 85.9979032,7.23580645 86.1575806,7.23580645 C86.7933871,7.23629032 87.3851613,6.83322581 87.5980645,6.19790323 L87.5980645,6.19741935 L87.3358065,6.10935484" id="Fill-857" fill="#6C4D23"></path>
            <path d="M86.1425806,5.15080645 C85.7966129,5.15080645 85.473871,5.36951613 85.3577419,5.71645161 C85.2943548,5.90564516 85.3040323,6.1016129 85.3703226,6.27435484 C85.4840323,6.43548387 85.65,6.56467742 85.8517742,6.63193548 C85.9533871,6.66629032 86.0564516,6.68225806 86.1575806,6.68225806 C86.4333871,6.68129032 86.6980645,6.56177419 86.8795161,6.35709677 C86.8983871,6.31983871 86.9148387,6.28112903 86.9283871,6.24048387 C87.0735484,5.80645161 86.838871,5.33806452 86.4048387,5.19387097 C86.3182258,5.16435484 86.2291935,5.15080645 86.1425806,5.15080645" id="Fill-858" fill="#8B6129"></path>
            <path d="M85.3703226,6.27435484 C85.455,6.49741935 85.6359677,6.68225806 85.8803226,6.76403226 C85.9683871,6.79258065 86.0564516,6.80709677 86.1430645,6.80709677 C86.4493548,6.80709677 86.7372581,6.63580645 86.8795161,6.35709677 C86.6980645,6.56177419 86.4333871,6.68129032 86.1575806,6.68225806 C86.0564516,6.68225806 85.9533871,6.66629032 85.8517742,6.63193548 C85.65,6.56467742 85.4840323,6.43548387 85.3703226,6.27435484" id="Fill-859" fill="#6C4D23"></path>
            <path d="M26.3167742,18.3662903 L24.4741935,20.6080645 C27.0154839,21.0362903 29.7522581,21.4064516 32.6385484,21.6735484 L34.4080645,18.9401613 C31.5793548,18.8206452 28.8716129,18.6256452 26.3167742,18.3662903" id="Fill-860" fill="#C0C1BC"></path>
            <path d="M24.4741935,20.6080645 L24.2719355,20.8543548 C26.8214516,21.2874194 29.5679032,21.6619355 32.4696774,21.9348387 L32.6385484,21.6735484 C29.7522581,21.4064516 27.0154839,21.0362903 24.4741935,20.6080645" id="Fill-861" fill="#7D807D"></path>
            <path d="M17.8224194,17.2369355 L15.9885484,18.8225806 C17.5620968,19.2241935 19.2933871,19.6229032 21.1596774,19.9974194 C22.2222581,20.2103226 23.328871,20.415 24.4741935,20.6080645 L26.3167742,18.3662903 C23.2722581,18.0585484 20.4314516,17.6695161 17.8224194,17.2369355" id="Fill-862" fill="#EFEFEA"></path>
            <path d="M15.9885484,18.8225806 L15.7335484,19.0422581 C18.2124194,19.6809677 21.0880645,20.3133871 24.2719355,20.8543548 L24.4741935,20.6080645 C23.328871,20.415 22.2222581,20.2103226 21.1596774,19.9974194 C19.2933871,19.6229032 17.5620968,19.2241935 15.9885484,18.8225806" id="Fill-863" fill="#D3D4CE"></path>
            <path d="M16.046129,16.9291935 L14.3820968,18.3962903 C14.8969355,18.5380645 15.4330645,18.6808065 15.9885484,18.8225806 L17.8224194,17.2369355 C17.216129,17.1367742 16.6253226,17.0341935 16.046129,16.9291935" id="Fill-864" fill="#C0C1BC"></path>
            <path d="M14.3820968,18.3962903 L14.133871,18.6145161 C14.6467742,18.7562903 15.1795161,18.8990323 15.7335484,19.0422581 L15.9885484,18.8225806 C15.4330645,18.6808065 14.8969355,18.5380645 14.3820968,18.3962903" id="Fill-865" fill="#7D807D"></path>
            <path d="M3.81822581,14.0762903 C4.86435484,14.8214516 6.27048387,15.6009677 8.15758065,16.3625806 C9.58306452,16.9369355 11.703871,17.6593548 14.3820968,18.3962903 L16.046129,16.9291935 C10.8972581,16.0040323 6.74612903,14.9375806 3.81822581,14.0762903" id="Fill-866" fill="#EFEFEA"></path>
            <path d="M3.06580645,13.8508065 C4.17919355,14.7469355 5.77112903,15.6982258 8.05451613,16.6190323 C9.45967742,17.186129 11.5316129,17.8920968 14.133871,18.6145161 L14.3820968,18.3962903 C11.703871,17.6593548 9.58306452,16.9369355 8.15758065,16.3625806 C6.27048387,15.6009677 4.86435484,14.8214516 3.81822581,14.0762903 C3.55741935,13.9998387 3.30629032,13.9248387 3.06580645,13.8508065" id="Fill-867" fill="#D3D4CE"></path>
            <path d="M76.545,14.2122581 C66.5767742,16.9369355 57.1006452,18.3116129 48.4083871,18.8230645 L47.1454839,22.0180645 C56.6027419,21.5632258 66.7398387,19.6756452 76.4506452,15.3009677 L76.545,14.2122581" id="Fill-868" fill="#EFEFEA"></path>
            <path d="M76.8304839,14.1343548 C76.7356452,14.1604839 76.6408065,14.1866129 76.545,14.2122581 L76.4506452,15.3009677 C66.7398387,19.6756452 56.6027419,21.5632258 47.1454839,22.0180645 L47.0346774,22.2991935 C56.6032258,21.8516129 66.8748387,19.9470968 76.7124194,15.4867742 L76.8304839,14.1343548" id="Fill-869" fill="#D3D4CE"></path>
            <path d="M48.4083871,18.8230645 C46.9998387,18.9062903 45.6106452,18.9682258 44.2451613,19.0083871 L42.8593548,22.1303226 C44.2693548,22.1240323 45.6991935,22.0877419 47.1454839,22.0180645 L48.4083871,18.8230645" id="Fill-870" fill="#C0C1BC"></path>
            <path d="M47.1454839,22.0180645 C45.6991935,22.0900645 44.2693548,22.1275645 42.8593548,22.1340645 L42.7369355,22.4185645 C44.1508065,22.4135645 45.5840323,22.3785645 47.0346774,22.3085645 L47.1454839,22.0180645" id="Fill-871" fill="#7D807D"></path>
            <path d="M34.4080645,18.9401613 L32.6385484,21.6735484 C35.7382258,21.9609677 39.011129,22.1317742 42.401129,22.1317742 C42.5530645,22.1317742 42.7069355,22.1308065 42.8593548,22.1303226 L44.2451613,19.0083871 C42.9019355,19.0470968 41.58,19.065 40.2808065,19.065 C38.2679032,19.065 36.3096774,19.0209677 34.4080645,18.9401613" id="Fill-872" fill="#EFEFEA"></path>
            <path d="M32.6385484,21.6735484 L32.4696774,21.9348387 C35.6201613,22.2309677 38.9520968,22.4066129 42.405,22.4066129 C42.5153226,22.4066129 42.626129,22.406129 42.7369355,22.4056452 L42.8593548,22.1303226 C42.7069355,22.1308065 42.5530645,22.1317742 42.401129,22.1317742 C39.011129,22.1317742 35.7382258,21.9609677 32.6385484,21.6735484" id="Fill-873" fill="#D3D4CE"></path>
            <path d="M97.6340323,5.98403226 C97.4167742,6.63435484 96.7127419,6.98516129 96.0633871,6.7683871 C95.4130645,6.55064516 95.0608065,5.84854839 95.2785484,5.19774194 C95.4953226,4.54741935 96.198871,4.19516129 96.8496774,4.41290323 C97.5,4.62967742 97.8517742,5.33322581 97.6340323,5.98403226" id="Fill-874" fill="#AC762F"></path>
            <path d="M97.6340323,5.98403226 L97.3712903,5.89596774 C97.2372581,6.30048387 96.8598387,6.55596774 96.4572581,6.55596774 C96.3556452,6.55596774 96.2525806,6.54 96.1509677,6.50564516 C95.7469355,6.37112903 95.4919355,5.99419355 95.4919355,5.59112903 C95.4919355,5.48951613 95.5074194,5.38693548 95.5412903,5.28435484 C95.6758065,4.88080645 96.0532258,4.62532258 96.4567742,4.62483871 C96.5579032,4.62483871 96.6604839,4.64129032 96.7620968,4.67564516 C97.166129,4.80919355 97.4216129,5.1866129 97.4216129,5.59016129 C97.4216129,5.69080645 97.4051613,5.79435484 97.3712903,5.89596774 L97.6340323,5.98403226 L97.8967742,6.0716129 C97.95,5.91241935 97.9751613,5.75032258 97.9751613,5.59016129 C97.9751613,4.95435484 97.5725806,4.36306452 96.9377419,4.14967742 C96.7785484,4.09645161 96.6159677,4.07080645 96.4567742,4.07080645 C95.82,4.07080645 95.2282258,4.4733871 95.0162903,5.10967742 L95.0162903,5.10870968 C94.9625806,5.26887097 94.9369355,5.43145161 94.9369355,5.59112903 C94.9369355,6.22741935 95.34,6.81919355 95.9758065,7.0316129 C96.1345161,7.08483871 96.2970968,7.11048387 96.4572581,7.11048387 C97.0916129,7.11048387 97.6843548,6.70741935 97.8967742,6.0716129 L97.6340323,5.98403226" id="Fill-875" fill="#6C4D23"></path>
            <path d="M96.4558065,5.05354839 C96.1098387,5.05354839 95.7866129,5.27274194 95.6704839,5.61967742 C95.61,5.8016129 95.6153226,5.98935484 95.6753226,6.15725806 C95.79,6.315 95.9525806,6.43935484 96.1509677,6.50564516 C96.2525806,6.54 96.3556452,6.55596774 96.4572581,6.55596774 C96.7635484,6.55596774 97.0548387,6.40790323 97.2358065,6.15919355 C97.2372581,6.15435484 97.2391935,6.14951613 97.241129,6.14419355 C97.3862903,5.70967742 97.1520968,5.24080645 96.7185484,5.09709677 C96.6314516,5.06758065 96.5424194,5.05354839 96.4558065,5.05354839" id="Fill-876" fill="#8B6129"></path>
            <path d="M95.6753226,6.15725806 C95.7575806,6.38951613 95.9419355,6.58306452 96.1945161,6.66774194 C96.2806452,6.69580645 96.3691935,6.71032258 96.4567742,6.71032258 C96.7974194,6.71032258 97.1158065,6.49693548 97.2358065,6.15919355 C97.0548387,6.40790323 96.7635484,6.55596774 96.4572581,6.55596774 C96.3556452,6.55596774 96.2525806,6.54 96.1509677,6.50564516 C95.9525806,6.43935484 95.79,6.315 95.6753226,6.15725806" id="Fill-877" fill="#6C4D23"></path>
            <path d="M118.754516,7.87016129 C118.424516,8.49290323 117.881129,8.7 117.304355,8.7 C116.162903,8.7 114.891774,7.89 114.891774,7.89 C109.079032,10.1835484 103.040806,10.8885484 97.8135484,10.8885484 C89.4808065,10.8885484 83.2108065,9.09677419 83.2108065,9.09677419 C87.0096774,11.1251613 92.4566129,11.7614516 97.7956452,11.7614516 C106.77,11.7614516 115.436129,9.9633871 115.436129,9.9633871 C115.915645,10.2237097 116.328387,10.3316129 116.683548,10.3316129 C118.38,10.3316129 118.754516,7.87016129 118.754516,7.87016129" id="Fill-878" fill="#C28334"></path>
            <path d="M78.9585484,4.1133871 L55.5232258,5.96419355 L79.1545161,4.68774194 C79.1545161,4.68774194 79.2856452,4.15016129 78.9585484,4.1133871" id="Fill-879" fill="#FFFFFE"></path>
        </g>
    </g>
</svg>