<?xml version="1.0" encoding="UTF-8"?>
<svg width="120px" height="120px" viewBox="0 0 120 120" version="1.1" xmlns="http://www.w3.org/2000/svg" xmlns:xlink="http://www.w3.org/1999/xlink">
    <!-- Generator: Sketch 51.1 (57501) - http://www.bohemiancoding.com/sketch -->
    <title>Tiger1</title>
    <desc>Created with Sketch.</desc>
    <defs>
        <polygon id="path-1" points="0.321300517 0.340675035 67.4090384 0.340675035 67.4090384 59.6052632 0.321300517 59.6052632"></polygon>
        <polygon id="path-3" points="0.145096398 0.124736842 23.098865 0.124736842 23.098865 22.5679843 0.145096398 22.5679843"></polygon>
    </defs>
    <g id="Tiger1" stroke="none" stroke-width="1" fill="none" fill-rule="evenodd">
        <g id="Group" transform="translate(9.000000, 0.000000)">
            <path d="M101.800446,38.1703816 C100.942377,38.9278816 99.7768923,39.2085395 98.7536269,39.7232763 C97.6226077,40.28775 96.6944192,41.1273553 95.9060731,42.1059079 C94.8733,43.3966974 94.0817846,44.9401184 93.3881192,46.4582763 C93.3564269,46.5245921 93.3275077,46.5940658 93.2958154,46.6603816 C92.1715308,49.1440658 91.1454923,51.6755132 90.2232462,54.2381447 C89.6309962,55.8790658 89.0831154,57.5365658 88.5764346,59.2059079 C88.4690769,59.5686711 88.3609269,59.9318289 88.2535692,60.2981447 C87.3380577,63.4445921 86.5493154,66.6889342 85.3299538,69.7157763 C84.75355,71.1391974 84.0848423,72.51525 83.2648038,73.8091974 C83.0683115,74.1155132 82.86865,74.4151184 82.6567077,74.7084079 C79.6407885,78.9253816 74.0538308,81.8764342 69.1946077,80.0365658 L70.8323077,71.3981447 C73.2710308,71.1076184 75.3710423,69.8705132 77.0689577,68.1186711 C77.9591154,67.2068289 78.73835,66.1524868 79.3971538,65.0164342 C80.2334346,63.5866974 80.8827308,62.0306447 81.3323654,60.4745921 C81.8041846,58.8395921 82.1242769,57.1639342 82.3936615,55.4784079 C82.6408615,53.9290658 82.8432962,52.3666974 83.0841577,50.81025 C83.4010808,48.7556447 83.7809923,46.7168289 84.4017654,44.7384079 C85.0669077,42.62025 86.0109423,40.5944605 87.1986115,38.7194605 C87.8479077,37.6872237 88.5732654,36.7059079 89.3620077,35.7747237 C89.6725923,35.4088026 89.9954577,35.0523553 90.3282269,34.7018289 C91.8201423,33.1394605 93.5719346,31.7286711 95.6525346,31.12275 C97.7307577,30.5164342 100.185327,30.8511711 101.708935,32.3851184 C103.232146,33.9186711 103.419131,36.7374868 101.800446,38.1703816" id="Fill-1" fill="#D2701C"></path>
            <g id="Group-5" transform="translate(14.261538, 60.270000)">
                <mask id="mask-2" fill="white">
                    <use xlink:href="#path-1"></use>
                </mask>
                <g id="Clip-4"></g>
                <path d="M62.9974938,52.6791316 C60.6490938,54.2497895 58.1683785,53.6565 57.7742054,48.4084737 C57.5586977,45.5549211 57.2108746,42.4116316 55.0851131,40.4896579 C52.6115285,38.2455789 48.8136015,38.5897895 45.5037362,39.0721579 C41.5061477,39.6563684 37.5089554,40.2370263 33.5113669,40.8208421 C27.7849631,41.6541316 21.6180362,42.7049211 17.5974708,46.8559737 C13.4849977,51.1033421 11.0799477,65.5258421 2.61136692,56.9099211 C-0.983333077,53.2522895 0.639709231,43.3680789 0.989909231,39.0547895 C1.11945154,37.4545263 1.30881308,35.8629474 1.55482462,34.2816316 C2.15380923,30.4499211 3.09110923,26.6817632 4.40594385,23.0391316 C4.85280538,21.7925526 5.34680923,20.5617632 5.88518231,19.3467632 C6.13515538,18.7815 6.39503231,18.2229474 6.66441692,17.6675526 C10.0123131,10.7588684 15.6915746,3.72663158 23.3916169,1.47031579 C27.2434208,0.343342105 32.5867438,0.283736842 36.6096862,0.365842105 C43.7994823,0.514263158 51.2337054,2.80847368 56.1590862,8.03202632 C57.3182323,9.25965789 58.3098054,10.6136053 59.17144,12.0559737 C59.9982131,13.4446579 60.7045554,14.9154474 61.3158208,16.4336053 C62.1390285,18.4724211 62.7946631,20.5901842 63.3552208,22.7043947 C63.6154938,23.6766316 63.8559592,24.6551842 64.0805785,25.6400526 C64.4699977,27.3236053 64.8087092,29.0166316 65.0967131,30.7222895 C65.9020938,35.4922895 68.5412708,42.6382105 66.8592015,47.3916316 C66.0696669,49.6234737 64.5630938,51.6322895 62.9974938,52.6791316" id="Fill-3" fill="#EC9A42" mask="url(#mask-2)"></path>
            </g>
            <path d="M15.5348562,28.4900921 C15.3740177,29.8266711 14.25726,30.9106184 12.9832292,31.35825 C11.7088023,31.8054868 10.3060215,31.7143026 8.97930231,31.4593026 C4.80384077,30.6568026 0.639867692,27.7389079 0.0686138462,23.5404868 C-0.221370769,21.4073289 0.446940769,19.2536447 1.36641385,17.3056184 C3.17525231,13.4770658 6.26961,9.96153947 10.3939677,8.95377632 C15.9191254,7.60417105 22.1343831,11.8819342 22.8236908,17.5085132 C23.0582138,19.4221974 22.7452523,21.42075 23.3588946,23.2495658 L15.5348562,28.4900921 Z" id="Fill-6" fill="#EC9A42"></path>
            <g id="Group-10" transform="translate(56.253846, 0.270000)">
                <mask id="mask-4" fill="white">
                    <use xlink:href="#path-3"></use>
                </mask>
                <g id="Clip-9"></g>
                <path d="M1.57158192,14.19075 C0.677066538,13.0693026 0.167216538,11.6490395 0.145824231,10.2165395 C0.123639615,8.73588158 0.610512692,7.27930263 1.34458577,5.99127632 C3.64940885,1.94443421 8.57637423,-0.445697368 13.1947358,0.241934211 C17.8134935,0.929960526 21.8233627,4.65153947 22.8398935,9.19338158 C23.8560281,13.7352237 21.8126665,18.8016711 17.9248127,21.3793026 C15.7546819,22.8181184 12.3176512,23.22825 10.9362627,21.0248289 L1.57158192,14.19075 Z" id="Fill-8" fill="#EC9A42" mask="url(#mask-4)"></path>
            </g>
            <path d="M75.2260104,56.9489211 C72.8510681,61.0095789 68.6894719,63.4648421 64.0608104,66.4668158 C59.1619719,69.6452368 54.1007104,72.888 48.3608373,73.9857632 C40.0095181,75.5785263 31.5235065,72.4036579 23.8527796,68.7491842 C20.2937335,67.0541842 16.6792258,65.1543158 14.220695,62.0805 C14.0911527,61.9162895 13.9620065,61.7489211 13.839595,61.5799737 C12.6951065,60.0152368 11.8794258,58.2361579 11.2915335,56.3753684 C10.9013219,55.1426053 10.6113373,53.8723421 10.3954335,52.6032632 C10.3126373,52.1098421 10.2361796,51.6144474 10.1763604,51.1194474 C9.95372192,49.3916842 9.85904115,47.6485263 9.88399885,45.9085263 C9.915295,43.9652368 10.0959412,42.0255 10.4271258,40.1086579 C10.7575181,38.1424737 11.2451835,36.1983947 11.8802181,34.3056316 C12.2153642,33.3049737 12.5897296,32.3197105 13.005295,31.3514211 C14.7990796,27.1486579 17.3372373,23.2632632 20.5290488,19.9790526 C21.2654988,19.2203684 22.0451296,18.498 22.8548681,17.8151053 C24.0853219,16.7757632 25.3969873,15.8201053 26.7716412,14.9540526 C28.3586335,13.9510263 30.031195,13.0656316 31.7631796,12.2986579 C35.232695,10.7556316 38.9391104,9.68747368 42.6776142,9.11115789 L42.6807835,9.11194737 C44.379095,8.84905263 46.0849335,8.68918421 47.7773027,8.62957895 C48.4008488,8.60984211 49.0216219,8.60234211 49.642395,8.60826316 C52.0533873,8.63313158 54.3150296,9.04721053 56.4265296,9.77589474 C62.7214142,11.9465526 67.6582835,16.9277368 71.1337412,22.7860263 C71.9327835,24.1360263 72.6557642,25.5290526 73.3007027,26.9493158 C73.8351142,28.1252368 74.3156488,29.3212895 74.738345,30.5157632 C74.9348373,31.0664211 75.1182565,31.6162895 75.2917719,32.1673421 C75.8440104,33.9318158 76.2980027,35.7251053 76.6458258,37.5416842 C76.9781988,39.273 77.2139104,41.0268158 77.344245,42.7845789 C77.5478681,45.5631316 77.4916142,48.3543158 77.1414142,51.1198421 C77.1136835,51.3310263 77.0851604,51.5418158 77.0491104,51.7470789 C76.7254527,53.7661579 76.0947758,55.4655 75.2260104,56.9489211" id="Fill-11" fill="#EC9A42"></path>
            <path d="M57.6501696,25.6525263 C57.3067042,27.0787105 57.7294004,28.4026579 58.5946004,28.6095 C59.4594042,28.8163421 60.4394888,27.8279211 60.7825581,26.4013421 C61.1260235,24.9751579 60.7033273,23.6516053 59.8381273,23.4447632 C58.9733235,23.2379211 57.993635,24.2263421 57.6501696,25.6525263" id="Fill-13" fill="#050101"></path>
            <path d="M21.2601112,27.7426184 C20.9170419,29.1688026 21.3397381,30.49275 22.2049381,30.6991974 C23.0693458,30.9064342 24.0494304,29.9180132 24.3928958,28.4914342 C24.735965,27.06525 24.3132688,25.7416974 23.4480688,25.5348553 C22.5836612,25.3280132 21.6035765,26.3164342 21.2601112,27.7426184" id="Fill-15" fill="#050101"></path>
            <path d="M74.7381865,30.5158026 C73.7474058,31.0869868 72.7498904,31.6439605 71.7321712,32.1634342 C69.4946942,33.3129079 66.7655904,35.1369868 64.1723673,35.2048816 C63.7991904,35.2127763 63.5448596,34.8081711 63.7251096,34.4781711 C64.9745788,32.2258026 67.8573904,30.6429079 69.9066942,29.1950132 C71.0131519,28.4146184 72.1548673,27.6784342 73.3005442,26.9493553 C73.8353519,28.1252763 74.3158865,29.3213289 74.7381865,30.5158026" id="Fill-17" fill="#050101"></path>
            <path d="M77.3441262,42.7846579 C76.1255569,42.8407105 74.9050069,42.8636053 73.7058492,42.9859737 C71.7690531,43.1849211 69.3033915,43.9262368 67.4850454,42.9425526 C67.0326377,42.6982105 66.9411262,42.1700526 67.1368262,41.7366316 C68.0551108,39.6970263 70.9811031,38.949 72.9452338,38.3932105 C74.1269608,38.0588684 75.38158,37.7454474 76.6457069,37.5417632 C76.97808,39.2730789 77.2137915,41.0268947 77.3441262,42.7846579" id="Fill-19" fill="#050101"></path>
            <path d="M75.2260104,56.9489211 C74.2094796,56.6670789 73.1969104,56.3662895 72.1930565,56.0323421 C70.1968373,55.3668158 67.3270988,54.6772105 66.4191142,52.5776053 C66.2963065,52.2886579 66.4123796,51.8201053 66.6504681,51.6172105 C68.4030527,50.1408947 71.3005219,50.8233947 73.3783488,51.1095789 C74.6103873,51.2808947 75.8309373,51.5011579 77.0491104,51.7470789 C76.7254527,53.7661579 76.0947758,55.4655 75.2260104,56.9489211" id="Fill-21" fill="#050101"></path>
            <path d="M46.1791388,16.1996842 C45.3955465,17.5185 43.558185,17.2346842 43.0313004,15.8657368 C42.3657619,14.1387632 42.5353158,12.0012632 42.6216773,10.1819211 C42.6387119,9.82586842 42.6561427,9.46942105 42.6807042,9.11178947 C44.3790158,8.84928947 46.0852504,8.68942105 47.7772235,8.62942105 C47.7098773,9.31468421 47.6334196,9.99757895 47.5510196,10.6788947 C47.3307581,12.4990263 47.1314927,14.5966579 46.1791388,16.1996842" id="Fill-23" fill="#050101"></path>
            <path d="M33.6890815,17.6371579 C33.5187354,18.3038684 32.8884546,18.8671579 32.1785469,18.8663684 C29.9149238,18.864 28.1243085,16.6147895 26.7718392,14.9541316 C28.3588315,13.9511053 30.0313931,13.0657105 31.7633777,12.2987368 C32.8959815,13.8579474 34.1529777,15.8071579 33.6890815,17.6371579" id="Fill-25" fill="#050101"></path>
            <path d="M18.4858854,40.4613158 C16.0352777,41.6538158 12.9567662,40.8169737 10.4269277,40.1084211 C10.75732,38.1426316 11.2453815,36.1981579 11.88002,34.3053947 C14.3413238,35.0692105 17.6004815,35.9135526 19.0222777,38.2330263 C19.44537,38.925 19.2758162,40.0752632 18.4858854,40.4613158" id="Fill-27" fill="#050101"></path>
            <path d="M16.8954862,49.1883158 C14.9721592,50.4262105 12.5112515,50.8114737 10.1763208,51.1197632 C9.95407846,49.392 9.85900154,47.6488421 9.88395923,45.9084474 C12.0715208,45.6297632 14.3620823,45.4248947 16.4010862,46.0742368 C17.7951515,46.5214737 18.2027938,48.3455526 16.8954862,49.1883158" id="Fill-29" fill="#050101"></path>
            <path d="M19.1072131,58.2244737 C18.1314862,59.4351316 16.6692823,60.1243421 15.3080977,60.8246053 C14.8184515,61.0744737 14.3276169,61.3267105 13.8395554,61.5801316 C12.6950669,60.015 11.8793862,58.2359211 11.2914938,56.3751316 C13.2524554,55.3215789 15.3821785,54.3509211 17.4077131,54.4330263 C19.4407746,54.5131579 20.3622285,56.6648684 19.1072131,58.2244737" id="Fill-31" fill="#050101"></path>
            <path d="M37.2548227,77.6355789 C34.0313188,78.3196579 30.6236035,77.7472895 27.5981765,76.4442632 C23.5692919,74.709 20.023715,71.5274211 18.5967688,67.3917632 C17.1702188,63.2561053 18.2208188,58.1868947 21.6633958,55.4738684 C23.0784573,54.3591316 24.7890496,53.6841316 26.507565,53.1370263 C28.4142535,52.5295263 30.3914573,52.0570263 32.3928265,52.0988684 C38.8921265,52.2334737 46.8686842,57.4317632 47.4688573,64.3653158 C47.9169073,69.5407105 42.2927112,76.5654474 37.2548227,77.6355789" id="Fill-33" fill="#F7C596"></path>
            <path d="M61.7095977,75.0863684 C58.4856977,75.7708421 55.0779823,75.1980789 52.0525554,73.8950526 C48.0240669,72.1601842 44.47849,68.9782105 43.0515438,64.8429474 C41.6249938,60.7068947 42.6751977,55.6376842 46.1181708,52.9250526 C47.5328362,51.8099211 49.2438246,51.1349211 50.96234,50.5878158 C52.8690285,49.9807105 54.8462323,49.5082105 56.8476015,49.5496579 C63.3469015,49.6842632 71.3234592,54.8825526 71.9236323,61.8161053 C72.3716823,66.9915 66.7474862,74.0162368 61.7095977,75.0863684" id="Fill-35" fill="#F7C596"></path>
            <path d="M57.1743492,50.1335526 C53.1375415,54.9311842 46.5720838,57.3789474 40.3211723,56.7477632 C34.0698646,56.1161842 28.2527415,52.5382895 24.5851492,47.4544737 C24.0325146,46.6878947 23.5115723,45.855 23.3851992,44.9194737 C23.2592223,43.9867105 23.5373223,43.0507895 23.8383992,42.1586842 C26.1844223,35.2053947 30.15428,28.8007895 35.3442915,23.5969737 C37.0853877,21.8510526 39.1699492,20.1501316 41.6383838,20.0415789 C43.6904608,19.9507895 45.6490454,21.0090789 47.1445262,22.4123684 C48.6396108,23.8156579 49.7638954,25.5560526 50.9848415,27.2021053 C52.4747762,29.2113158 54.1251531,31.1001316 55.5671531,33.1432895 C57.9080262,36.4582895 59.6717031,40.1360526 61.4238915,43.7936842 C60.8130223,46.6294737 59.0445915,47.9107895 57.1743492,50.1335526" id="Fill-37" fill="#F7C596"></path>
            <path d="M29.4784019,42.6100263 C36.8535981,42.0731842 44.1127212,40.272 51.559225,40.6829211 C54.2788212,40.8329211 59.6474981,40.9750263 61.4515827,43.5408158 C63.9156596,47.0456842 59.7199942,54.0889737 57.5748212,57.3842368 C54.7827288,61.6742368 50.2741019,65.1771316 45.1498519,65.4459474 C43.1920596,65.5481842 41.2346635,65.1806842 39.3584788,64.6146316 C32.1461019,62.4400263 11.6895096,43.9051579 29.4784019,42.6100263" id="Fill-39" fill="#893E10"></path>
            <path d="M74.8554085,14.8377632 C71.1842508,20.7884211 65.7605085,19.65 61.7482623,14.6928947 C59.7746238,12.2542105 59.5527777,9.35210526 61.4658046,6.82105263 C63.1145969,4.63973684 65.7759585,3.52657895 68.5117969,4.09263158 C70.7734392,4.56118421 74.4604431,7.36302632 75.4175508,9.44328947 C76.2051046,11.1548684 75.8450008,13.2339474 74.8554085,14.8377632" id="Fill-41" fill="#F7C596"></path>
            <path d="M13.9811804,27.6046184 C17.3552227,26.0351447 21.0608458,20.7555395 18.7900919,17.1219868 C17.9486612,15.7763289 16.5054727,14.8400132 14.9450227,14.5325132 C13.3837804,14.2250132 11.7246881,14.5289605 10.3310188,15.2939605 C8.64102654,16.2215921 7.33847269,17.8273816 6.783065,19.6688289 C6.22726115,21.5098816 6.42454577,23.5648816 7.32064577,25.2673816 C7.75047269,26.0852763 8.34589192,26.8321184 9.11799577,27.3436974 C10.5302842,28.2808026 12.4437073,28.3198816 13.9811804,27.6046184" id="Fill-43" fill="#F7C596"></path>
            <path d="M75.5773196,76.7034868 C75.0955965,76.9561184 74.6269465,77.1988816 74.1991004,77.4546711 C72.4096735,78.52125 70.6234158,79.81875 68.5867888,80.3583553 C68.1430965,80.4751974 67.5286619,80.3773026 67.2212465,79.99875 C67.2054004,79.97625 67.186385,79.9541447 67.1673696,79.9324342 C67.1107196,79.8594079 67.0564465,79.7899342 67.0025696,79.7145395 C66.7213004,79.3324342 66.7621042,78.6917763 67.0025696,78.30375 C68.1589427,76.4480921 70.0244312,75.1130921 71.7128388,73.7619079 C72.2833004,73.3071711 72.8466312,72.8058553 73.4329388,72.3258553 C74.2597119,73.7149342 74.9660542,75.1853289 75.5773196,76.7034868" id="Fill-45" fill="#050101"></path>
            <path d="M79.3589646,90.9976579 C78.4592992,91.1839737 77.5378454,91.2877895 76.6667031,91.3698947 C74.4434877,91.5814737 72.0360608,91.2246316 69.9102992,90.5433158 C69.43848,90.3917368 69.1061069,89.8927895 69.25823,89.3973947 C69.9360492,87.1785789 72.4128031,86.9421316 74.39278,86.7052895 C75.5931262,86.5635789 76.7807954,86.3646316 77.9435069,86.0330526 C78.0766146,85.9951579 78.2093262,85.9541053 78.3424338,85.9098947 C78.7318531,87.5954211 79.0705646,89.2900263 79.3589646,90.9976579" id="Fill-47" fill="#050101"></path>
            <path d="M26.1679423,86.3645132 C23.9130346,87.2578026 21.3313,85.6449079 19.63695,84.2120132 C19.3041808,83.9309605 18.9781462,83.6278026 18.6671654,83.30925 C19.1140269,82.0626711 19.6080308,80.8314868 20.1468,79.6164868 C20.6534808,80.0076711 21.1633308,80.4055658 21.6989308,80.7718816 C22.4460769,81.2862237 23.1999577,81.8226711 24.0457462,82.1605658 C24.9485808,82.5237237 25.7686192,82.7001711 26.5732077,83.2839868 C27.7957385,84.1772763 27.5711192,85.8059605 26.1679423,86.3645132" id="Fill-49" fill="#050101"></path>
            <path d="M24.6665192,98.0420132 C23.23165,100.532408 19.10135,100.437276 16.7224462,99.8380658 C16.2411192,99.7180658 15.7439462,99.5506974 15.2495462,99.3422763 C15.3798808,97.7360921 15.5696385,96.1389868 15.8164423,94.5513553 C17.0833423,95.1793816 18.3728231,95.6404342 20.0418192,95.5488553 C21.2457308,95.4825395 22.7756769,94.9614868 23.9253154,95.4189868 C25.0658423,95.8741184 25.2365846,97.0543816 24.6665192,98.0420132" id="Fill-51" fill="#050101"></path>
            <path d="M85.3298746,69.7158158 C84.7534708,71.1392368 84.0847631,72.5152895 83.2647246,73.8092368 C81.1960092,73.1717368 79.4287669,71.5939737 78.1424554,69.9084474 C77.7439246,69.3877895 77.3636169,68.7751579 77.0688785,68.1187105 C77.9594323,67.2068684 78.7382708,66.1525263 79.3970746,65.0164737 C80.0273554,65.7329211 80.5819708,66.5472632 81.2308708,67.2005526 C82.4221054,68.3934474 83.8094362,68.9614737 85.2918438,69.6937105 C85.3045208,69.7000263 85.3171977,69.7063421 85.3298746,69.7158158" id="Fill-53" fill="#050101"></path>
            <path d="M90.2234046,54.2381842 C89.6311546,55.8791053 89.0832738,57.5362105 88.5765931,59.2059474 C86.35932,58.5021316 84.0628162,57.1734474 82.3934238,55.4784474 C82.6406238,53.9291053 82.8434546,52.3667368 83.0843162,50.8102895 C84.3254662,51.5145 85.4723315,52.3947632 86.7582469,53.0263421 C87.8829277,53.5817368 89.0515815,53.9006842 90.2234046,54.2381842" id="Fill-55" fill="#050101"></path>
            <path d="M89.3618492,35.7746053 C90.7111492,36.7689474 91.91823,38.3692105 92.8305723,39.3915789 C93.8217492,40.5090789 94.69923,41.5914474 95.9063108,42.1057895 C94.8735377,43.3969737 94.0816262,44.9403947 93.3879608,46.4581579 C92.1998954,45.7764474 91.1485031,44.7978947 90.2710223,43.6713158 C89.2414185,42.3457895 88.3421492,40.8939474 87.5597454,39.4105263 C87.4393146,39.1835526 87.31928,38.9530263 87.1984531,38.7193421 L89.3618492,35.7746053 Z" id="Fill-57" fill="#050101"></path>
        </g>
    </g>
</svg>