<?xml version="1.0" encoding="UTF-8"?>
<svg width="120px" height="120px" viewBox="0 0 120 120" version="1.1" xmlns="http://www.w3.org/2000/svg" xmlns:xlink="http://www.w3.org/1999/xlink">
    <!-- Generator: Sketch 51.1 (57501) - http://www.bohemiancoding.com/sketch -->
    <title>Canteen</title>
    <desc>Created with Sketch.</desc>
    <defs>
        <polygon id="path-1" points="0 0.413181818 102.21246 0.413181818 102.21246 93.6359091 0 93.6359091"></polygon>
        <polygon id="path-3" points="0 0.188181818 50.9191894 0.188181818 50.9191894 119.087273 0 119.087273"></polygon>
    </defs>
    <g id="Canteen" stroke="none" stroke-width="1" fill="none" fill-rule="evenodd">
        <g id="Page-1" transform="translate(9.000000, 0.000000)">
            <g id="Group-3" transform="translate(0.000000, 26.180000)">
                <mask id="mask-2" fill="white">
                    <use xlink:href="#path-1"></use>
                </mask>
                <g id="Clip-2"></g>
                <path d="M102.212734,47.025 C102.212734,72.7677273 79.3312381,93.6359091 51.105592,93.6359091 C22.881769,93.6359091 -0.000638053097,72.7677273 -0.000638053097,47.025 C-0.000638053097,21.2804545 22.881769,0.413181818 51.105592,0.413181818 C79.3312381,0.413181818 102.212734,21.2804545 102.212734,47.025" id="Fill-1" fill="#603E2A" mask="url(#mask-2)"></path>
            </g>
            <path d="M62.1082708,7.52145455 C62.1082708,2.62145455 55.5609345,0.909636364 51.1055009,0.909636364 C46.1068106,0.909636364 40.104554,2.62145455 40.104554,7.52145455 C40.104554,7.52145455 21.2637575,1.48327273 21.2637575,15.7687273 C21.2637575,30.0569091 34.3520496,38.1641818 34.3520496,38.1641818 L51.1055009,38.1641818 L67.8607752,38.1641818 C67.8607752,38.1641818 80.9481558,30.0569091 80.9481558,15.7687273 C80.9481558,1.48327273 62.1082708,7.52145455 62.1082708,7.52145455" id="Fill-4" fill="#603E2A"></path>
            <path d="M78.789531,29.5810909 C78.789531,30.8074545 77.7923451,31.8001818 76.5636372,31.8001818 L27.2366637,31.8001818 C26.0079558,31.8001818 25.0107699,30.8074545 25.0107699,29.5810909 L25.0107699,29.4747273 C25.0107699,28.2483636 26.0079558,27.2547273 27.2366637,27.2547273 L76.5636372,27.2547273 C77.7923451,27.2547273 78.789531,28.2483636 78.789531,29.4747273 L78.789531,29.5810909 Z" id="Fill-6" fill="#DD3E64"></path>
            <path d="M39.5948407,43.403 C39.5948407,44.5257273 38.6815133,45.4366364 37.5548938,45.4366364 L37.0772655,45.4366364 C35.950646,45.4366364 35.0373186,44.5257273 35.0373186,43.403 L35.0373186,33.8348182 C35.0373186,32.7111818 35.950646,31.8002727 37.0772655,31.8002727 L37.5548938,31.8002727 C38.6815133,31.8002727 39.5948407,32.7111818 39.5948407,33.8348182 L39.5948407,43.403 Z" id="Fill-8" fill="#DD3E64"></path>
            <path d="M46.8868761,48.2059091 C46.8868761,49.8604545 46.6918142,50.8913636 45.4731327,50.8913636 L45.426646,50.8913636 C44.2079646,50.8913636 42.329354,49.8604545 42.329354,48.2059091 L42.329354,34.5168182 C42.329354,32.865 44.2079646,31.8004545 45.426646,31.8004545 L45.4731327,31.8004545 C46.6918142,31.8004545 46.8868761,32.865 46.8868761,34.5168182 L46.8868761,48.2059091 Z" id="Fill-10" fill="#DD3E64"></path>
            <g id="Group-14" transform="translate(0.000000, 0.725455)">
                <mask id="mask-4" fill="white">
                    <use xlink:href="#path-3"></use>
                </mask>
                <g id="Clip-13"></g>
                <path d="M50.9191894,0.188181818 C45.9596938,0.23 40.1051009,1.95636364 40.1051009,6.79636364 C40.1051009,6.79636364 21.2643044,0.217272727 21.2643044,14.5054545 C21.2643044,20.3018182 23.4200124,24.9909091 25.9804283,28.5172727 C25.6030655,28.9927273 25.3706319,29.5827273 25.3706319,30.23 L25.3706319,30.2481818 C25.3706319,30.8772727 25.5875699,31.4509091 25.9412336,31.9154545 C10.455685,39.9236364 -0.000182300885,55.0836364 -0.000182300885,72.48 C-0.000182300885,98.1672727 22.7828708,118.994545 50.9191894,119.087273 L50.9191894,0.188181818 Z" id="Fill-12" fill="#FAFCFB" opacity="0.156816123" mask="url(#mask-4)"></path>
            </g>
        </g>
    </g>
</svg>