<?xml version="1.0" encoding="UTF-8"?>
<svg width="120px" height="120px" viewBox="0 0 120 120" version="1.1" xmlns="http://www.w3.org/2000/svg" xmlns:xlink="http://www.w3.org/1999/xlink">
    <!-- Generator: Sketch 48.2 (47327) - http://www.bohemiancoding.com/sketch -->
    <title>House3</title>
    <desc>Created with Sketch.</desc>
    <defs>
        <polygon id="path-1" points="0.152597015 0.0592835821 12.2528955 0.0592835821 12.2528955 20.5970149 0.152597015 20.5970149"></polygon>
        <polygon id="path-3" points="0.186626866 0.340835821 10.4287164 0.340835821 10.4287164 19.7014925 0.186626866 19.7014925"></polygon>
        <polygon id="path-5" points="0 0.813710006 58.3677033 0.813710006 58.3677033 61.7908951 0 61.7908951"></polygon>
        <polygon id="path-7" points="0 91.3119403 119.68209 91.3119403 119.68209 0 0 0"></polygon>
    </defs>
    <g id="建筑" stroke="none" stroke-width="1" fill="none" fill-rule="evenodd">
        <g id="House3">
            <g id="Page-1" transform="translate(0.000000, 14.000000)">
                <path d="M36.9810448,80.609194 C36.948806,80.609194 36.9165672,80.5966567 36.8914925,80.5715821 C36.8440299,80.5214328 36.8449254,80.4426269 36.8941791,80.3942687 L39.8923881,77.4793433 C39.9416418,77.4318806 40.0213433,77.4327761 40.068806,77.4820299 C40.1171642,77.5312836 40.1153731,77.6109851 40.0661194,77.6593433 L37.068806,80.5733731 C37.0437313,80.5966567 37.0123881,80.609194 36.9810448,80.609194" id="Fill-1" fill="#C4AA90"></path>
                <path d="M42.0594627,81.6468358 C42.0272239,81.6468358 41.9949851,81.6342985 41.9699104,81.6092239 C41.9215522,81.5599701 41.9233433,81.4802687 41.972597,81.432806 L44.970806,78.5178806 C45.0200597,78.4695224 45.0988657,78.4713134 45.1472239,78.5205672 C45.1946866,78.5698209 45.193791,78.6486269 45.1445373,78.6969851 L42.1463284,81.6110149 C42.1221493,81.635194 42.090806,81.6468358 42.0594627,81.6468358" id="Fill-3" fill="#C4AA90"></path>
                <g id="Group-7" transform="translate(34.029851, 70.714925)">
                    <mask id="mask-2" fill="white">
                        <use xlink:href="#path-1"></use>
                    </mask>
                    <g id="Clip-6"></g>
                    <path d="M6.20274627,0.0592835821 C9.5439403,0.0592835821 12.2528955,2.76823881 12.2528955,6.10943284 L12.2528955,20.597194 L0.152597015,20.597194 L0.152597015,6.10943284 C0.152597015,2.76823881 2.86155224,0.0592835821 6.20274627,0.0592835821" id="Fill-5" fill="#85674D" mask="url(#mask-2)"></path>
                </g>
                <g id="Group-10" transform="translate(34.925373, 71.610448)">
                    <mask id="mask-4" fill="white">
                        <use xlink:href="#path-3"></use>
                    </mask>
                    <g id="Clip-9"></g>
                    <path d="M5.30722388,0.340835821 C8.13528358,0.340835821 10.4287164,2.63337313 10.4287164,5.46143284 L10.4287164,19.4611343 C10.4287164,19.5936716 10.3203582,19.7020299 10.1878209,19.7020299 L0.427522388,19.7020299 C0.294089552,19.7020299 0.186626866,19.5936716 0.186626866,19.4611343 L0.186626866,5.46143284 C0.186626866,2.63337313 2.47916418,0.340835821 5.30722388,0.340835821" id="Fill-8" fill="#A68B6D" mask="url(#mask-4)"></path>
                </g>
                <path d="M35.9994627,86.7343881 C35.9779701,86.7343881 35.9555821,86.7263284 35.9385672,86.7093134 C35.9054328,86.6752836 35.9054328,86.6206567 35.9385672,86.5866269 L43.0615522,79.5218507 C43.0946866,79.4887164 43.1493134,79.4887164 43.1833433,79.5227463 C43.2173731,79.5567761 43.2164776,79.611403 43.1824478,79.6445373 L36.0603582,86.7093134 C36.0433433,86.7263284 36.0218507,86.7343881 35.9994627,86.7343881" id="Fill-11" fill="#C4AA90"></path>
                <path d="M43.1225373,79.5155821 C43.1046269,79.5155821 43.0876119,79.5218507 43.0741791,79.5352836 L35.951194,86.6000597 C35.9252239,86.6269254 35.9252239,86.6699104 35.951194,86.6958806 C35.9780597,86.7236418 36.0219403,86.7218507 36.0479104,86.6967761 L43.17,79.632 C43.1968657,79.6051343 43.1968657,79.5630448 43.17,79.5343881 C43.1574627,79.5218507 43.1404478,79.5155821 43.1225373,79.5155821 M35.9995522,86.753194 C35.971791,86.753194 35.9458209,86.7415522 35.9252239,86.7218507 C35.8849254,86.6806567 35.8849254,86.6152836 35.9261194,86.5740896 L43.048209,79.5093134 C43.089403,79.4690149 43.1565672,79.4690149 43.1959701,79.5093134 C43.2362687,79.551403 43.2362687,79.6176716 43.1959701,79.6579701 L36.0729851,86.7227463 C36.0541791,86.7415522 36.028209,86.753194 35.9995522,86.753194" id="Fill-13" fill="#C4AA90"></path>
                <path d="M40.0922687,85.1606866 C40.0806269,85.1606866 40.0698806,85.1571045 40.0609254,85.1481493 C40.0430149,85.1320299 40.0430149,85.1051642 40.0609254,85.0890448 L43.746,81.659194 C43.7630149,81.6430746 43.7916716,81.6430746 43.8086866,81.659194 C43.8257015,81.6753134 43.8257015,81.7021791 43.8086866,81.7182985 L40.1236119,85.1490448 C40.1146567,85.1571045 40.1039104,85.1606866 40.0922687,85.1606866" id="Fill-15" fill="#C4AA90"></path>
                <path d="M40.0922687,85.2066269 C40.0689851,85.2066269 40.0457015,85.1976716 40.0295821,85.1806567 C40.0116716,85.1645373 40.0018209,85.1412537 40.0018209,85.1179701 C40.0027164,85.0946866 40.0125672,85.071403 40.0304776,85.0561791 L43.7146567,81.6254328 C43.7504776,81.593194 43.8051045,81.5940896 43.8400299,81.6263284 C43.8579403,81.6433433 43.8668955,81.6657313 43.8668955,81.6899104 C43.8668955,81.713194 43.8570448,81.7364776 43.8391343,81.752597 L40.1549552,85.1815522 C40.1388358,85.1976716 40.1155522,85.2066269 40.0922687,85.2066269" id="Fill-17" fill="#C4AA90"></path>
                <path d="M37.7869254,82.3438209 C37.7699104,82.3438209 37.753791,82.3375522 37.7412537,82.3250149 C37.7152836,82.3008358 37.7152836,82.2614328 37.7412537,82.2372537 L43.0973731,77.1265075 C43.1224478,77.1023284 43.1636418,77.1023284 43.1896119,77.127403 C43.2146866,77.1515821 43.2146866,77.1909851 43.1887164,77.2151642 L37.832597,82.3259104 C37.8200597,82.3384478 37.8039403,82.3438209 37.7869254,82.3438209" id="Fill-19" fill="#C4AA90"></path>
                <path d="M43.1430448,77.1539104 C43.1385672,77.1539104 43.133194,77.1557015 43.1287164,77.1592836 L37.772597,82.2700299 C37.7681194,82.2745075 37.7681194,82.2798806 37.7681194,82.2816716 C37.7681194,82.2843582 37.7681194,82.2888358 37.772597,82.2924179 C37.7797612,82.3004776 37.7940896,82.3004776 37.8021493,82.2933134 L43.1582687,77.1825672 C43.1618507,77.1789851 43.1627463,77.1736119 43.1627463,77.1709254 C43.1627463,77.1682388 43.1618507,77.1637612 43.1582687,77.1592836 C43.153791,77.1557015 43.1484179,77.1539104 43.1430448,77.1539104 M37.7869254,82.3891343 C37.7573731,82.3891343 37.7296119,82.3774925 37.7090149,82.357791 C37.6884179,82.3380896 37.6767761,82.3103284 37.6767761,82.2816716 C37.6767761,82.2521194 37.6884179,82.2252537 37.7099104,82.2046567 L43.0669254,77.0939104 C43.1090149,77.0536119 43.1788657,77.0536119 43.2209552,77.094806 C43.2424478,77.115403 43.2540896,77.1422687 43.2540896,77.1718209 C43.2540896,77.2004776 43.2415522,77.2282388 43.2200597,77.2479403 L37.8639403,82.3586866 C37.8433433,82.3783881 37.8155821,82.3891343 37.7869254,82.3891343" id="Fill-21" fill="#C4AA90"></path>
                <g id="Group-25" transform="translate(0.000000, 29.520896)">
                    <mask id="mask-6" fill="white">
                        <use xlink:href="#path-5"></use>
                    </mask>
                    <g id="Clip-24"></g>
                    <path d="M24.5539701,61.6251045 C17.0772537,61.9412239 9.73128358,62.0218209 6.80829851,59.8224179 C3.88441791,57.6230149 3.42501493,52.2480896 6.73486567,50.6907761 C3.14023881,49.0788358 -0.102447761,45.7519701 0.00232835821,41.8143582 C0.108,37.8767463 5.11038806,34.5185373 8.2241194,36.9319701 C6.63008955,32.3549552 5.15426866,26.8779403 8.06650746,23.0039104 C10.9447164,19.1746567 16.5318806,19.0188358 21.3175522,19.2194328 C19.1145672,14.006597 20.8617313,7.40838806 25.3563582,3.96868657 C29.8509851,0.528985075 36.6766567,0.565701493 41.1336716,4.05376119 C42.4348657,0.50480597 47.6602388,-0.097880597 50.7408358,2.09435821 C53.8205373,4.28749254 55.1718806,8.15525373 56.0512836,11.8322687 C59.7506866,27.2907761 58.2650149,43.4567463 56.7578507,59.2797313" id="Fill-23" fill="#B1D665" mask="url(#mask-6)"></path>
                </g>
                <path d="M108.294896,90.9951045 C112.205642,90.9951045 114.792806,90.735403 117.131015,88.8055522 C118.124149,87.9852537 119.232806,87.1676418 119.581164,85.9622687 C119.929522,84.756 119.35997,83.2488358 118.104448,82.8727164 C118.867433,82.6022687 119.16206,81.7255522 119.225642,80.955403 C119.370716,79.2001791 118.75997,77.3151045 117.308328,76.2189851 C115.855791,75.1219701 113.514896,75.0700299 112.245045,76.3551045 C113.076985,75.3780896 112.610418,73.8225672 111.603851,73.0076418 C110.596388,72.1927164 109.229821,71.9330149 107.924149,71.7243582 C107.111015,71.5945075 106.287134,71.4727164 105.465045,71.5336119 C104.370716,71.614209 103.322955,72.0189851 102.388925,72.5661493 C100.096388,73.9094328 98.4208657,76.1661493 97.8584776,78.6664478 C97.2960896,81.1676418 97.8548955,83.876597 99.3692239,85.9918209 C100.341761,87.3485373 102.068328,88.5404776 103.697284,87.9888358" id="Fill-26" fill="#B1D665"></path>
                <polygon id="Fill-28" fill="#E5E6E8" points="108.102985 91.146 33.6098507 91.146 33.6098507 8.08540299 108.102985 13.5024179"></polygon>
                <polygon id="Fill-30" fill="#CDCFCE" points="39.6230149 22.306209 108.102716 91.1459104 55.6161493 91.1459104"></polygon>
                <polygon id="Fill-32" fill="#59698B" points="33.6097612 6.8238806 33.6097612 11.6731343 108.102896 21.0859701 108.102896 14.6373134"></polygon>
                <path d="M103.784507,17.5238507 L104.239433,0.603850746" id="Stroke-34" stroke="#59698B" stroke-width="1.35" stroke-linecap="round" stroke-linejoin="round"></path>
                <path d="M101.589045,9.28262687 L107.061582,8.24471642" id="Stroke-36" stroke="#59698B" stroke-width="1.35" stroke-linecap="round" stroke-linejoin="round"></path>
                <path d="M101.468776,4.73767164 L108.806687,4.79140299" id="Stroke-38" stroke="#59698B" stroke-width="1.35" stroke-linecap="round" stroke-linejoin="round"></path>
                <mask id="mask-8" fill="white">
                    <use xlink:href="#path-7"></use>
                </mask>
                <g id="Clip-41"></g>
                <polygon id="Fill-40" fill="#5CA09F" mask="url(#mask-8)" points="81.8516418 40.0844776 92.3319403 40.0844776 92.3319403 25.9504478 81.8516418 25.9504478"></polygon>
                <path d="M93.2813731,41.532 L80.9025672,41.532 C80.5022687,41.532 80.1789851,41.2078209 80.1789851,40.8075224 C80.1789851,40.4081194 80.5022687,40.0839403 80.9025672,40.0839403 L93.2813731,40.0839403 C93.6807761,40.0839403 94.0049552,40.4081194 94.0049552,40.8075224 C94.0049552,41.2078209 93.6807761,41.532 93.2813731,41.532" id="Fill-42" fill="#59698B" mask="url(#mask-8)"></path>
                <path d="M93.2813731,41.3758209 L80.9025672,41.3758209 C80.5022687,41.3758209 80.1789851,41.0516418 80.1789851,40.6522388 C80.1789851,40.2528358 80.5022687,39.9277612 80.9025672,39.9277612 L93.2813731,39.9277612 C93.6807761,39.9277612 94.0049552,40.2528358 94.0049552,40.6522388 C94.0049552,41.0516418 93.6807761,41.3758209 93.2813731,41.3758209" id="Fill-43" fill="#59698B" mask="url(#mask-8)"></path>
                <path d="M84.8417015,33.8207463 C84.8228955,33.8207463 84.8040896,33.8135821 84.7897612,33.7983582 C84.762,33.7697015 84.7628955,33.7240299 84.7915522,33.6962687 L86.5315522,32.0037313 C86.560209,31.9759701 86.6058806,31.9768657 86.6336418,32.0055224 C86.6622985,32.0341791 86.661403,32.0798507 86.6327463,32.1076119 L84.8927463,33.8001493 C84.8784179,33.8135821 84.8605075,33.8207463 84.8417015,33.8207463" id="Fill-44" fill="#87CCC9" mask="url(#mask-8)"></path>
                <path d="M85.9283284,35.6577313 C85.9095224,35.6577313 85.8907164,35.6505672 85.8763881,35.6353433 C85.8486269,35.6066866 85.8495224,35.5610149 85.8772836,35.5332537 L87.6181791,33.8416119 C87.6468358,33.8129552 87.6925075,33.8138507 87.7202687,33.8425075 C87.7480299,33.8711642 87.7480299,33.9168358 87.7193731,33.944597 L85.9784776,35.6371343 C85.9650448,35.6505672 85.9462388,35.6577313 85.9283284,35.6577313" id="Fill-45" fill="#87CCC9" mask="url(#mask-8)"></path>
                <path d="M87.6699403,28.8512239 C87.6511343,28.8512239 87.6323284,28.8440597 87.618,28.8297313 C87.5902388,28.8010746 87.5902388,28.755403 87.6188955,28.7267463 L89.359791,27.0351045 C89.3884478,27.0064478 89.4341194,27.0073433 89.4618806,27.0368955 C89.4896418,27.0646567 89.4896418,27.1112239 89.4609851,27.1389851 L87.7200896,28.8306269 C87.7066567,28.8449552 87.6878507,28.8512239 87.6699403,28.8512239" id="Fill-46" fill="#87CCC9" mask="url(#mask-8)"></path>
                <path d="M84.042806,35.5444478 C84.0231045,35.5444478 84.003403,35.5363881 83.9881791,35.5202687 C83.962209,35.4907164 83.9648955,35.4450448 83.9944478,35.4181791 L89.5054925,30.4874328 C89.5350448,30.4605672 89.5816119,30.4632537 89.6075821,30.492806 C89.6344478,30.5223582 89.6317612,30.5680299 89.602209,30.5948955 L84.0911642,35.5256418 C84.0777313,35.5381791 84.0598209,35.5444478 84.042806,35.5444478" id="Fill-47" fill="#87CCC9" mask="url(#mask-8)"></path>
                <polygon id="Fill-48" fill="#5A6A8C" mask="url(#mask-8)" points="86.7985075 40.5241791 87.3859701 40.5241791 87.3859701 25.9504478 86.7985075 25.9504478"></polygon>
                <polygon id="Fill-49" fill="#5A6A8C" mask="url(#mask-8)" points="81.8525373 31.2456716 92.3328358 31.2456716 92.3328358 30.658209 81.8525373 30.658209"></polygon>
                <polygon id="Fill-50" fill="#5A6A8C" mask="url(#mask-8)" points="81.8525373 36.9143284 92.3328358 36.9143284 92.3328358 36.3268657 81.8525373 36.3268657"></polygon>
                <polygon id="Fill-51" fill="#5CA09F" mask="url(#mask-8)" points="49.38 40.0844776 59.8602985 40.0844776 59.8602985 25.9504478 49.38 25.9504478"></polygon>
                <path d="M60.8103582,41.532 L48.4315522,41.532 C48.0312537,41.532 47.7079701,41.2078209 47.7079701,40.8075224 C47.7079701,40.4081194 48.0312537,40.0839403 48.4315522,40.0839403 L60.8103582,40.0839403 C61.2097612,40.0839403 61.5339403,40.4081194 61.5339403,40.8075224 C61.5339403,41.2078209 61.2097612,41.532 60.8103582,41.532" id="Fill-52" fill="#59698B" mask="url(#mask-8)"></path>
                <path d="M60.8103582,41.3758209 L48.4315522,41.3758209 C48.0312537,41.3758209 47.7079701,41.0516418 47.7079701,40.6522388 C47.7079701,40.2528358 48.0312537,39.9277612 48.4315522,39.9277612 L60.8103582,39.9277612 C61.2097612,39.9277612 61.5339403,40.2528358 61.5339403,40.6522388 C61.5339403,41.0516418 61.2097612,41.3758209 60.8103582,41.3758209" id="Fill-53" fill="#59698B" mask="url(#mask-8)"></path>
                <path d="M52.3706866,33.8207463 C52.3518806,33.8207463 52.3330746,33.8135821 52.3187463,33.7983582 C52.2909851,33.7697015 52.2918806,33.7240299 52.3196418,33.6962687 L54.0605373,32.0037313 C54.089194,31.9759701 54.1348657,31.9768657 54.1626269,32.0055224 C54.1903881,32.0341791 54.1903881,32.0798507 54.1617313,32.1076119 L52.4208358,33.8001493 C52.407403,33.8135821 52.388597,33.8207463 52.3706866,33.8207463" id="Fill-54" fill="#87CCC9" mask="url(#mask-8)"></path>
                <path d="M53.4568657,35.6577313 C53.4380597,35.6577313 53.4192537,35.6505672 53.4049254,35.6353433 C53.3771642,35.6066866 53.3780597,35.5610149 53.4067164,35.5332537 L55.1467164,33.8416119 C55.1753731,33.8129552 55.2210448,33.8138507 55.248806,33.8425075 C55.2774627,33.8711642 55.2765672,33.9168358 55.2479104,33.944597 L53.5079104,35.6371343 C53.4935821,35.6505672 53.4756716,35.6577313 53.4568657,35.6577313" id="Fill-55" fill="#87CCC9" mask="url(#mask-8)"></path>
                <path d="M55.1984776,28.8512239 C55.1796716,28.8512239 55.1608657,28.8440597 55.1465373,28.8297313 C55.1187761,28.8010746 55.1196716,28.755403 55.1483284,28.7267463 L56.8883284,27.0351045 C56.9169851,27.0064478 56.9626567,27.0073433 56.9904179,27.0368955 C57.0190746,27.0646567 57.0181791,27.1112239 56.9895224,27.1389851 L55.2495224,28.8306269 C55.235194,28.8449552 55.2172836,28.8512239 55.1984776,28.8512239" id="Fill-56" fill="#87CCC9" mask="url(#mask-8)"></path>
                <path d="M51.571791,35.5444478 C51.5520896,35.5444478 51.5323881,35.5363881 51.5171642,35.5202687 C51.491194,35.4907164 51.4938806,35.4450448 51.5234328,35.4181791 L57.0344776,30.4874328 C57.0640299,30.4605672 57.110597,30.4632537 57.1365672,30.492806 C57.1634328,30.5223582 57.1607463,30.5680299 57.131194,30.5948955 L51.6201493,35.5256418 C51.6058209,35.5381791 51.588806,35.5444478 51.571791,35.5444478" id="Fill-57" fill="#87CCC9" mask="url(#mask-8)"></path>
                <polygon id="Fill-58" fill="#5A6A8C" mask="url(#mask-8)" points="54.3268657 40.5241791 54.9143284 40.5241791 54.9143284 25.9504478 54.3268657 25.9504478"></polygon>
                <polygon id="Fill-59" fill="#5A6A8C" mask="url(#mask-8)" points="49.3808955 31.2456716 59.861194 31.2456716 59.861194 30.658209 49.3808955 30.658209"></polygon>
                <polygon id="Fill-60" fill="#5A6A8C" mask="url(#mask-8)" points="49.3808955 36.9143284 59.861194 36.9143284 59.861194 36.3268657 49.3808955 36.3268657"></polygon>
                <polygon id="Fill-61" fill="#5CA09F" mask="url(#mask-8)" points="81.8516418 71.8334328 92.3319403 71.8334328 92.3319403 57.699403 81.8516418 57.699403"></polygon>
                <path d="M93.2813731,73.280597 L80.9025672,73.280597 C80.5022687,73.280597 80.1789851,72.9564179 80.1789851,72.5570149 C80.1789851,72.1576119 80.5022687,71.8334328 80.9025672,71.8334328 L93.2813731,71.8334328 C93.6807761,71.8334328 94.0049552,72.1576119 94.0049552,72.5570149 C94.0049552,72.9564179 93.6807761,73.280597 93.2813731,73.280597" id="Fill-62" fill="#59698B" mask="url(#mask-8)"></path>
                <path d="M93.2813731,73.1249552 L80.9025672,73.1249552 C80.5022687,73.1249552 80.1789851,72.8007761 80.1789851,72.4013731 C80.1789851,72.0010746 80.5022687,71.6768955 80.9025672,71.6768955 L93.2813731,71.6768955 C93.6807761,71.6768955 94.0049552,72.0010746 94.0049552,72.4013731 C94.0049552,72.8007761 93.6807761,73.1249552 93.2813731,73.1249552" id="Fill-63" fill="#59698B" mask="url(#mask-8)"></path>
                <path d="M84.8417015,65.5694328 C84.8228955,65.5694328 84.8040896,65.5622687 84.7897612,65.5479403 C84.762,65.5183881 84.7628955,65.4727164 84.7915522,65.4449552 L86.5315522,63.7533134 C86.560209,63.7246567 86.6058806,63.7255522 86.6336418,63.754209 C86.6622985,63.7828657 86.661403,63.8294328 86.6327463,63.857194 L84.8927463,65.5488358 C84.8784179,65.5631642 84.8605075,65.5694328 84.8417015,65.5694328" id="Fill-64" fill="#87CCC9" mask="url(#mask-8)"></path>
                <path d="M85.9283284,67.4063284 C85.9095224,67.4063284 85.8907164,67.3991642 85.8763881,67.3848358 C85.8486269,67.3552836 85.8495224,67.3096119 85.8772836,67.2818507 L87.6181791,65.590209 C87.6468358,65.5615522 87.6925075,65.5624478 87.7202687,65.5911045 C87.7480299,65.6197612 87.7480299,65.6663284 87.7193731,65.6940896 L85.9784776,67.3857313 C85.9650448,67.4000597 85.9462388,67.4063284 85.9283284,67.4063284" id="Fill-65" fill="#87CCC9" mask="url(#mask-8)"></path>
                <path d="M87.6699403,60.6002687 C87.6511343,60.6002687 87.6323284,60.5931045 87.618,60.5787761 C87.5902388,60.5492239 87.5902388,60.5035522 87.6188955,60.475791 L89.359791,58.7841493 C89.3884478,58.7554925 89.4341194,58.7563881 89.4618806,58.7850448 C89.4896418,58.8137015 89.4896418,58.8602687 89.4609851,58.8880299 L87.7200896,60.5796716 C87.7066567,60.594 87.6878507,60.6002687 87.6699403,60.6002687" id="Fill-66" fill="#87CCC9" mask="url(#mask-8)"></path>
                <path d="M84.042806,67.2934925 C84.0231045,67.2934925 84.003403,67.2854328 83.9881791,67.2693134 C83.962209,67.2388657 83.9648955,67.1940896 83.9944478,67.1663284 L89.5054925,62.2364776 C89.5350448,62.2096119 89.5816119,62.2122985 89.6075821,62.2418507 C89.6344478,62.271403 89.6317612,62.3170746 89.602209,62.3439403 L84.0911642,67.2746866 C84.0777313,67.2872239 84.0598209,67.2934925 84.042806,67.2934925" id="Fill-67" fill="#87CCC9" mask="url(#mask-8)"></path>
                <polygon id="Fill-68" fill="#5A6A8C" mask="url(#mask-8)" points="86.7985075 72.2731343 87.3859701 72.2731343 87.3859701 57.6985075 86.7985075 57.6985075"></polygon>
                <polygon id="Fill-69" fill="#5A6A8C" mask="url(#mask-8)" points="81.8525373 62.9946269 92.3328358 62.9946269 92.3328358 62.4071642 81.8525373 62.4071642"></polygon>
                <polygon id="Fill-70" fill="#5A6A8C" mask="url(#mask-8)" points="81.8525373 68.6623881 92.3328358 68.6623881 92.3328358 68.0749254 81.8525373 68.0749254"></polygon>
                <polygon id="Fill-71" fill="#5CA09F" mask="url(#mask-8)" points="49.38 71.8334328 59.8602985 71.8334328 59.8602985 57.699403 49.38 57.699403"></polygon>
                <path d="M60.8103582,73.280597 L48.4315522,73.280597 C48.0312537,73.280597 47.7079701,72.9564179 47.7079701,72.5570149 C47.7079701,72.1576119 48.0312537,71.8334328 48.4315522,71.8334328 L60.8103582,71.8334328 C61.2097612,71.8334328 61.5339403,72.1576119 61.5339403,72.5570149 C61.5339403,72.9564179 61.2097612,73.280597 60.8103582,73.280597" id="Fill-72" fill="#59698B" mask="url(#mask-8)"></path>
                <path d="M60.8103582,73.1249552 L48.4315522,73.1249552 C48.0312537,73.1249552 47.7079701,72.8007761 47.7079701,72.4013731 C47.7079701,72.0010746 48.0312537,71.6768955 48.4315522,71.6768955 L60.8103582,71.6768955 C61.2097612,71.6768955 61.5339403,72.0010746 61.5339403,72.4013731 C61.5339403,72.8007761 61.2097612,73.1249552 60.8103582,73.1249552" id="Fill-73" fill="#59698B" mask="url(#mask-8)"></path>
                <path d="M52.3706866,65.5694328 C52.3518806,65.5694328 52.3330746,65.5622687 52.3187463,65.5479403 C52.2909851,65.5183881 52.2918806,65.4727164 52.3196418,65.4449552 L54.0605373,63.7533134 C54.089194,63.7246567 54.1348657,63.7255522 54.1626269,63.754209 C54.1903881,63.7828657 54.1903881,63.8294328 54.1617313,63.857194 L52.4208358,65.5488358 C52.407403,65.5631642 52.388597,65.5694328 52.3706866,65.5694328" id="Fill-74" fill="#87CCC9" mask="url(#mask-8)"></path>
                <path d="M53.4568657,67.4063284 C53.4380597,67.4063284 53.4192537,67.3991642 53.4049254,67.3848358 C53.3771642,67.3552836 53.3780597,67.3096119 53.4067164,67.2818507 L55.1467164,65.590209 C55.1753731,65.5615522 55.2210448,65.5624478 55.248806,65.5911045 C55.2774627,65.6197612 55.2765672,65.6663284 55.2479104,65.6940896 L53.5079104,67.3857313 C53.4935821,67.4000597 53.4756716,67.4063284 53.4568657,67.4063284" id="Fill-75" fill="#87CCC9" mask="url(#mask-8)"></path>
                <path d="M55.1984776,60.6002687 C55.1796716,60.6002687 55.1608657,60.5931045 55.1465373,60.5787761 C55.1187761,60.5492239 55.1196716,60.5035522 55.1483284,60.475791 L56.8883284,58.7841493 C56.9169851,58.7554925 56.9626567,58.7563881 56.9904179,58.7850448 C57.0190746,58.8137015 57.0181791,58.8602687 56.9895224,58.8880299 L55.2495224,60.5796716 C55.235194,60.594 55.2172836,60.6002687 55.1984776,60.6002687" id="Fill-76" fill="#87CCC9" mask="url(#mask-8)"></path>
                <path d="M51.571791,67.2934925 C51.5520896,67.2934925 51.5323881,67.2854328 51.5171642,67.2693134 C51.491194,67.2388657 51.4938806,67.1940896 51.5234328,67.1663284 L57.0344776,62.2364776 C57.0640299,62.2096119 57.110597,62.2122985 57.1365672,62.2418507 C57.1634328,62.271403 57.1607463,62.3170746 57.131194,62.3439403 L51.6201493,67.2746866 C51.6058209,67.2872239 51.588806,67.2934925 51.571791,67.2934925" id="Fill-77" fill="#87CCC9" mask="url(#mask-8)"></path>
                <polygon id="Fill-78" fill="#5A6A8C" mask="url(#mask-8)" points="54.3268657 72.2731343 54.9143284 72.2731343 54.9143284 57.6985075 54.3268657 57.6985075"></polygon>
                <polygon id="Fill-79" fill="#5A6A8C" mask="url(#mask-8)" points="49.3808955 62.9946269 59.861194 62.9946269 59.861194 62.4071642 49.3808955 62.4071642"></polygon>
                <polygon id="Fill-80" fill="#5A6A8C" mask="url(#mask-8)" points="49.3808955 68.6623881 59.861194 68.6623881 59.861194 68.0749254 49.3808955 68.0749254"></polygon>
                <polygon id="Fill-81" fill="#59698B" mask="url(#mask-8)" points="29.1837313 3.906 29.1837313 9.4779403 112.529104 19.847194 112.529104 13.3537612"></polygon>
                <polygon id="Fill-82" fill="#F5F6F8" mask="url(#mask-8)" points="55.6165075 91.146 21.1532239 91.146 21.1532239 40.7657015 38.3848657 23.7104776 55.6165075 43.1227164"></polygon>
                <path d="M55.6169552,42.4768657 L39.6238209,24.2914925 C39.1724776,23.7783582 38.3781493,23.7559701 37.8990448,24.2449254 L21.1196418,41.3520896 L21.1536716,44.67 L38.0082985,27.7858209 C38.4900896,27.3031343 39.2799403,27.3291045 39.728597,27.8431343 L55.6160597,46.031194 L55.6169552,42.4768657 Z" id="Fill-83" fill="#59698B" mask="url(#mask-8)"></path>
                <path d="M58.7276418,44.0296119 L39.6234627,22.3060299 C39.1712239,21.792 38.3768955,21.7705075 37.897791,22.2594627 L16.5136119,44.0600597 C16.0783881,44.5042388 16.0810746,45.2152836 16.5216716,45.6549851 C16.9810746,46.1152836 17.7270448,46.1152836 18.1873433,45.6540896 L38.0070448,25.8003582 C38.4888358,25.3167761 39.2786866,25.3436418 39.7273433,25.8576716 L56.9249552,45.5448358 C57.3306269,46.0096119 58.0336119,46.1251343 58.5324179,45.7624478 C59.1037612,45.3469254 59.1807761,44.5454328 58.7276418,44.0296119" id="Fill-84" fill="#59698B" mask="url(#mask-8)"></path>
                <path d="M41.0616716,36.9756716 C41.0616716,38.5679104 39.7712239,39.8583582 38.1789851,39.8583582 C36.5867463,39.8583582 35.2962985,38.5679104 35.2962985,36.9756716 C35.2962985,35.3834328 36.5867463,34.0929851 38.1789851,34.0929851 C39.7712239,34.0929851 41.0616716,35.3834328 41.0616716,36.9756716" id="Fill-85" fill="#5CA09F" mask="url(#mask-8)"></path>
                <polygon id="Fill-86" fill="#CDCFCE" mask="url(#mask-8)" points="47.52 70.1301493 52.8886567 70.1301493 52.8886567 67.318209 47.52 67.318209"></polygon>
                <polygon id="Fill-87" fill="#CDCFCE" mask="url(#mask-8)" points="52.2161194 73.4256716 55.6164179 73.4256716 55.6164179 70.6128358 52.2161194 70.6128358"></polygon>
                <polygon id="Fill-88" fill="#CDCFCE" mask="url(#mask-8)" points="21.1540299 83.4501493 24.5543284 83.4501493 24.5543284 80.638209 21.1540299 80.638209"></polygon>
                <polygon id="Fill-89" fill="#CDCFCE" mask="url(#mask-8)" points="44.4161194 46.0002985 48.8525373 46.0002985 48.8525373 43.1883582 44.4161194 43.1883582"></polygon>
                <polygon id="Fill-90" fill="#5CA09F" mask="url(#mask-8)" points="33.1441791 60.5677612 43.6244776 60.5677612 43.6244776 46.4337313 33.1441791 46.4337313"></polygon>
                <path d="M44.5742687,62.0148358 L32.1954627,62.0148358 C31.7960597,62.0148358 31.4718806,61.6906567 31.4718806,61.2912537 C31.4718806,60.8918507 31.7960597,60.5676716 32.1954627,60.5676716 L44.5742687,60.5676716 C44.9745672,60.5676716 45.2987463,60.8918507 45.2987463,61.2912537 C45.2987463,61.6906567 44.9745672,62.0148358 44.5742687,62.0148358" id="Fill-91" fill="#59698B" mask="url(#mask-8)"></path>
                <path d="M44.5742687,61.859194 L32.1954627,61.859194 C31.7960597,61.859194 31.4718806,61.5350149 31.4718806,61.1347164 C31.4718806,60.7353134 31.7960597,60.4111343 32.1954627,60.4111343 L44.5742687,60.4111343 C44.9745672,60.4111343 45.2987463,60.7353134 45.2987463,61.1347164 C45.2987463,61.5350149 44.9745672,61.859194 44.5742687,61.859194" id="Fill-92" fill="#59698B" mask="url(#mask-8)"></path>
                <path d="M36.1349552,55.9849254 C36.1161493,55.9849254 36.0973433,55.9777612 36.0830149,55.9634328 C36.0552537,55.9338806 36.0552537,55.888209 36.0839104,55.8604478 L37.824806,54.168806 C37.8534627,54.1401493 37.8991343,54.1410448 37.9268955,54.1697015 C37.9546567,54.1983582 37.9546567,54.2449254 37.926,54.271791 L36.1851045,55.9643284 C36.1716716,55.9777612 36.1528657,55.9849254 36.1349552,55.9849254" id="Fill-93" fill="#87CCC9" mask="url(#mask-8)"></path>
                <path d="M37.2211343,57.8219104 C37.2023284,57.8219104 37.1835224,57.8147463 37.169194,57.8004179 C37.1414328,57.7708657 37.1423284,57.725194 37.1709851,57.6974328 L38.9109851,56.005791 C38.9396418,55.9771343 38.9853134,55.9780299 39.0130746,56.0066866 C39.0417313,56.0353433 39.0408358,56.0819104 39.0121791,56.1096716 L37.2721791,57.8013134 C37.2578507,57.8147463 37.2399403,57.8219104 37.2211343,57.8219104" id="Fill-94" fill="#87CCC9" mask="url(#mask-8)"></path>
                <path d="M38.9627463,51.0158507 C38.9439403,51.0158507 38.9251343,51.0086866 38.910806,50.9943582 C38.8830448,50.964806 38.8839403,50.9191343 38.9117015,50.8913731 L40.652597,49.1997313 C40.6812537,49.1710746 40.7269254,49.1719701 40.7546866,49.2006269 C40.7833433,49.2292836 40.7824478,49.2758507 40.753791,49.3027164 L39.013791,50.9952537 C38.9994627,51.0086866 38.9815522,51.0158507 38.9627463,51.0158507" id="Fill-95" fill="#87CCC9" mask="url(#mask-8)"></path>
                <path d="M35.3360597,57.7090746 C35.3163582,57.7090746 35.2966567,57.7010149 35.2814328,57.6848955 C35.2554627,57.6544478 35.2581493,57.6087761 35.2877015,57.5819104 L40.7987463,52.6511642 C40.8282985,52.6242985 40.8748657,52.6278806 40.9008358,52.6574328 C40.9277015,52.6869851 40.9250149,52.7326567 40.8954627,52.7595224 L35.3844179,57.6902687 C35.3700896,57.702806 35.3530746,57.7090746 35.3360597,57.7090746" id="Fill-96" fill="#87CCC9" mask="url(#mask-8)"></path>
                <polygon id="Fill-97" fill="#5A6A8C" mask="url(#mask-8)" points="38.0910448 61.0074627 38.6785075 61.0074627 38.6785075 46.4328358 38.0910448 46.4328358"></polygon>
                <polygon id="Fill-98" fill="#5A6A8C" mask="url(#mask-8)" points="33.1450746 51.7289552 43.6253731 51.7289552 43.6253731 51.1414925 33.1450746 51.1414925"></polygon>
                <polygon id="Fill-99" fill="#5A6A8C" mask="url(#mask-8)" points="33.1450746 57.3967164 43.6253731 57.3967164 43.6253731 56.8092537 33.1450746 56.8092537"></polygon>
                <polygon id="Fill-100" fill="#C4C6C5" mask="url(#mask-8)" points="94.959403 47.8397015 100.32806 47.8397015 100.32806 45.0277612 94.959403 45.0277612"></polygon>
                <polygon id="Fill-101" fill="#C4C6C5" mask="url(#mask-8)" points="104.325672 50.5844776 107.822687 50.5844776 107.822687 47.7725373 104.325672 47.7725373"></polygon>
                <polygon id="Fill-102" fill="#C4C6C5" mask="url(#mask-8)" points="100.32806 44.1877612 105.696716 44.1877612 105.696716 41.3758209 100.32806 41.3758209"></polygon>
                <path d="M35.058,80.194209 C35.0248657,80.194209 34.9917313,80.1816716 34.9657612,80.1557015 C34.917403,80.1046567 34.9182985,80.0240597 34.9684478,79.974806 L38.0365075,76.9918209 C38.0875522,76.9434627 38.1681493,76.9443582 38.217403,76.9945075 C38.2666567,77.0455522 38.2657612,77.1261493 38.2147164,77.175403 L35.1475522,80.1583881 C35.1224776,80.1816716 35.0902388,80.194209 35.058,80.194209" id="Fill-103" fill="#C4AA90" mask="url(#mask-8)"></path>
                <path d="M40.2544478,81.2562985 C40.2213134,81.2562985 40.1881791,81.2437612 40.162209,81.217791 C40.1138507,81.1667463 40.1147463,81.0861493 40.1648955,81.0368955 L43.2329552,78.054806 C43.284,78.0046567 43.364597,78.0064478 43.4138507,78.056597 C43.4631045,78.1076418 43.462209,78.1882388 43.4111642,78.2374925 L40.344,81.2195821 C40.3189254,81.2446567 40.2866866,81.2562985 40.2544478,81.2562985" id="Fill-104" fill="#C4AA90" mask="url(#mask-8)"></path>
                <path d="M38.3851343,70.1305075 C41.8042388,70.1305075 44.5758806,72.9021493 44.5758806,76.3221493 L44.5758806,91.1457313 L32.1943881,91.1457313 L32.1943881,76.3221493 C32.1943881,72.9021493 34.9660299,70.1305075 38.3851343,70.1305075" id="Fill-105" fill="#85674D" mask="url(#mask-8)"></path>
                <path d="M38.3851343,71.3351642 C41.2785672,71.3351642 43.6248358,73.6814328 43.6248358,76.5757612 L43.6248358,90.8996418 C43.6248358,91.0357612 43.5146866,91.1459104 43.3785672,91.1459104 L33.3917015,91.1459104 C33.2546866,91.1459104 33.1445373,91.0357612 33.1445373,90.8996418 L33.1445373,76.5757612 C33.1445373,73.6814328 35.490806,71.3351642 38.3851343,71.3351642" id="Fill-106" fill="#A68B6D" mask="url(#mask-8)"></path>
                <path d="M34.0535821,86.4624179 C34.031194,86.4624179 34.0079104,86.4534627 33.9908955,86.4364478 C33.9568657,86.4015224 33.9568657,86.346 33.991791,86.3110746 L41.2795522,79.0824179 C41.3135821,79.0474925 41.37,79.0483881 41.4040299,79.0824179 C41.4389552,79.1173433 41.4389552,79.1728657 41.4040299,79.207791 L34.1153731,86.4373433 C34.0983582,86.4543582 34.0759701,86.4624179 34.0535821,86.4624179" id="Fill-107" fill="#C4AA90" mask="url(#mask-8)"></path>
                <path d="M41.3419701,79.0752537 C41.3240597,79.0752537 41.3061493,79.0815224 41.2927164,79.0958507 L34.0040597,86.3245075 C33.977194,86.3513731 33.977194,86.3961493 34.0040597,86.4230149 C34.0309254,86.4507761 34.076597,86.4489851 34.1025672,86.4239104 L41.3903284,79.1943582 C41.4180896,79.1674925 41.4180896,79.1236119 41.3912239,79.0949552 C41.377791,79.0815224 41.3598806,79.0752537 41.3419701,79.0752537 M34.0533134,86.4812239 C34.0255522,86.4812239 33.997791,86.4695821 33.977194,86.4489851 C33.936,86.407791 33.936,86.3397313 33.9780896,86.2976418 L41.2667463,79.0689851 C41.3079403,79.027791 41.3768955,79.027791 41.417194,79.0689851 C41.4583881,79.1119701 41.4583881,79.1800299 41.4162985,79.2212239 L34.1285373,86.4498806 C34.1088358,86.4695821 34.0819701,86.4812239 34.0533134,86.4812239" id="Fill-108" fill="#C4AA90" mask="url(#mask-8)"></path>
                <path d="M38.2413134,84.852 C38.2296716,84.852 38.2180299,84.8475224 38.2090746,84.8394627 C38.1911642,84.8224478 38.1911642,84.7955821 38.2090746,84.7785672 L41.9792239,81.2690149 C41.9971343,81.252 42.0266866,81.252 42.044597,81.2690149 C42.0625075,81.2860299 42.0616119,81.3128955 42.044597,81.3299104 L38.2735522,84.8394627 C38.264597,84.8484179 38.2529552,84.852 38.2413134,84.852" id="Fill-109" fill="#C4AA90" mask="url(#mask-8)"></path>
                <path d="M38.2413134,84.8987463 C38.2171343,84.8987463 38.1938507,84.889791 38.1768358,84.8727761 C38.1589254,84.8557612 38.1490746,84.8324776 38.1490746,84.807403 C38.1490746,84.7841194 38.1598209,84.7608358 38.1786269,84.7447164 L41.9478806,81.2351642 C41.9854925,81.2011343 42.0410149,81.2020299 42.0759403,81.2351642 C42.0938507,81.2521791 42.1037015,81.2763582 42.1037015,81.2996418 C42.1037015,81.3238209 42.0929552,81.3471045 42.0750448,81.3641194 L38.3048955,84.8736716 C38.2887761,84.889791 38.2654925,84.8987463 38.2413134,84.8987463" id="Fill-110" fill="#C4AA90" mask="url(#mask-8)"></path>
                <path d="M35.8826866,81.9694925 C35.8656716,81.9694925 35.8477612,81.9632239 35.8352239,81.9506866 C35.8092537,81.9256119 35.8092537,81.8853134 35.8361194,81.8602388 L41.3167164,76.6312836 C41.3426866,76.606209 41.3847761,76.606209 41.4107463,76.6312836 C41.4367164,76.6563582 41.4367164,76.6966567 41.4098507,76.7217313 L35.9292537,81.9506866 C35.9167164,81.9632239 35.8997015,81.9694925 35.8826866,81.9694925" id="Fill-111" fill="#C4AA90" mask="url(#mask-8)"></path>
                <path d="M41.3633731,76.6589552 C41.358,76.6589552 41.3526269,76.6607463 41.3481493,76.6643284 L35.8675522,81.8941791 C35.8630746,81.8986567 35.8621791,81.9031343 35.8621791,81.9058209 C35.8621791,81.9085075 35.8630746,81.9129851 35.8675522,81.9174627 C35.8756119,81.9255224 35.8899403,81.9246269 35.8971045,81.9174627 L41.378597,76.6876119 C41.3821791,76.6840299 41.3830746,76.6795522 41.3830746,76.6768657 C41.3830746,76.6732836 41.3821791,76.668806 41.378597,76.6643284 C41.3741194,76.6607463 41.3687463,76.6589552 41.3633731,76.6589552 M35.8818806,82.0159701 C35.8514328,82.0159701 35.8236716,82.0043284 35.8030746,81.9837313 C35.7815821,81.9631343 35.7690448,81.9353731 35.7690448,81.9058209 C35.7690448,81.8753731 35.7815821,81.8476119 35.8039701,81.8270149 L41.2845672,76.5971642 C41.3284478,76.5559701 41.4000896,76.5559701 41.4430746,76.5980597 C41.4645672,76.6186567 41.476209,76.6464179 41.476209,76.6768657 C41.476209,76.7064179 41.4645672,76.7341791 41.4421791,76.7556716 L35.9615821,81.9855224 C35.9400896,82.0052239 35.9114328,82.0159701 35.8818806,82.0159701" id="Fill-112" fill="#C4AA90" mask="url(#mask-8)"></path>
            </g>
        </g>
    </g>
</svg>