<?xml version="1.0" encoding="UTF-8"?>
<svg width="120px" height="120px" viewBox="0 0 120 120" version="1.1" xmlns="http://www.w3.org/2000/svg" xmlns:xlink="http://www.w3.org/1999/xlink">
    <!-- Generator: Sketch 51.1 (57501) - http://www.bohemiancoding.com/sketch -->
    <title>Guitar32</title>
    <desc>Created with Sketch.</desc>
    <defs></defs>
    <g id="Guitar32" stroke="none" stroke-width="1" fill="none" fill-rule="evenodd">
        <g id="Group-3" transform="translate(37.000000, 0.000000)">
            <path d="M19.323674,70.5485508 C19.323674,70.5485508 18.5691806,71.9431082 17.4374405,72.2019934 C16.3057004,72.4608787 16.4000617,72.6479607 15.8340925,74.0519607 C15.2683216,75.4557639 0.178453744,116.073797 0.178453744,116.073797 C0.178453744,116.073797 -0.293154185,119.068682 1.2158326,119.723764 C2.72501762,120.379043 4.13944493,119.068682 4.79977533,118.507239 C5.45990749,117.9456 18.5691806,103.532616 21.3042687,101.848092 C21.3042687,101.848092 22.9668899,101.315764 23.6864934,101.848092 C26.4215815,103.532616 39.5308546,117.9456 40.191185,118.507239 C40.8513172,119.068682 42.2659427,120.379043 43.7749295,119.723764 C45.2839163,119.068682 44.8123084,116.073797 44.8123084,116.073797 C44.8123084,116.073797 29.7226388,75.4557639 29.1566696,74.0519607 C28.5908987,72.6479607 28.6850617,72.4608787 27.5533216,72.2019934 C26.4215815,71.9431082 25.6670881,70.5485508 25.6670881,70.5485508 L19.323674,70.5485508 Z" id="Fill-175" fill="#353E44"></path>
            <polygon id="Fill-176" fill="#806B50" points="19.442815 72.5381311 25.5108767 72.5381311 24.5355463 18.4185246 20.4179471 18.4185246"></polygon>
            <path d="M26.5310881,77.3728918 L18.5296123,77.3728918 C18.240185,77.3728918 18.0032907,77.1380066 18.0032907,76.8507934 L18.0032907,73.0603672 C18.0032907,72.7731541 18.240185,72.5380721 18.5296123,72.5380721 L26.5310881,72.5380721 C26.8203172,72.5380721 27.0572115,72.7731541 27.0572115,73.0603672 L27.0572115,76.8507934 C27.0572115,77.1380066 26.8203172,77.3728918 26.5310881,77.3728918" id="Fill-177" fill="#485661"></path>
            <path d="M25.4425242,76.7660066 L19.6428767,76.7660066 C19.3254978,76.7660066 19.0656079,76.5081049 19.0656079,76.1931541 L19.0656079,73.5016131 C19.0656079,73.1866623 19.3254978,72.9287607 19.6428767,72.9287607 L25.4425242,72.9287607 C25.7601013,72.9287607 26.019793,73.1866623 26.019793,73.5016131 L26.019793,76.1931541 C26.019793,76.5081049 25.7601013,76.7660066 25.4425242,76.7660066" id="Fill-178" fill="#000000"></path>
            <path d="M26.5310881,92.3472393 L18.5296123,92.3472393 C18.240185,92.3472393 18.0032907,92.1123541 18.0032907,91.825141 L18.0032907,88.0347148 C18.0032907,87.7475016 18.240185,87.5126164 18.5296123,87.5126164 L26.5310881,87.5126164 C26.8203172,87.5126164 27.0572115,87.7475016 27.0572115,88.0347148 L27.0572115,91.825141 C27.0572115,92.1123541 26.8203172,92.3472393 26.5310881,92.3472393" id="Fill-179" fill="#485661"></path>
            <path d="M25.4425242,91.7403738 L19.6428767,91.7403738 C19.3254978,91.7403738 19.0656079,91.4824721 19.0656079,91.1675213 L19.0656079,88.476177 C19.0656079,88.1610295 19.3254978,87.9033246 19.6428767,87.9033246 L25.4425242,87.9033246 C25.7601013,87.9033246 26.019793,88.1610295 26.019793,88.476177 L26.019793,91.1675213 C26.019793,91.4824721 25.7601013,91.7403738 25.4425242,91.7403738" id="Fill-180" fill="#000000"></path>
            <path d="M20.4180463,18.4184656 C20.4180463,18.4184656 19.4744339,14.6390557 17.2488172,14.0606951 C17.2488172,14.0606951 21.5400727,1.1091541 22.0430022,0.490268852 C22.5964824,-0.190780328 23.1465925,-0.135108197 23.6338612,0.490268852 L27.8117247,14.1543344 C27.8117247,14.1543344 24.4910419,15.9452852 24.5356454,18.4184656 L20.4180463,18.4184656 Z" id="Fill-181" fill="#353E44"></path>
            <path d="M26.0640396,4.04224918 L25.3628722,4.26611803 C25.2504714,4.38415082 25.2272775,4.61313443 25.2625639,4.86513443 L24.4035991,5.13956066 L24.5950969,5.73110164 L25.4415727,5.46080656 C25.5654714,5.72185574 25.7349648,5.92860984 25.9129824,5.96283934 L26.6141498,5.73897049 C27.191022,5.3172 26.7723436,4.05365902 26.0640396,4.04224918" id="Fill-182" fill="#353E44"></path>
            <path d="M27.1753612,7.4487541 L26.4741938,7.67262295 C26.361793,7.79045902 26.3385991,8.01944262 26.3738855,8.27163934 L25.5149207,8.54586885 L25.7064185,9.13740984 L26.5528943,8.86711475 C26.676793,9.12816393 26.8462863,9.33511475 27.024304,9.36914754 L27.7254714,9.14527869 C28.3023436,8.7235082 27.8838634,7.45996721 27.1753612,7.4487541" id="Fill-183" fill="#353E44"></path>
            <path d="M28.0885242,10.6584393 L27.3873568,10.8823082 C27.2749559,11.0001443 27.2517621,11.2291279 27.2868502,11.4813246 L26.4278855,11.7555541 L26.6195815,12.3470951 L27.4660573,12.0768 C27.5899559,12.3380459 27.7594493,12.5448 27.937467,12.5788328 L28.6386344,12.3549639 C29.2153084,11.9331934 28.7968282,10.6696525 28.0885242,10.6584393" id="Fill-184" fill="#353E44"></path>
            <path d="M18.9232335,4.04224918 L19.6244009,4.26611803 C19.7368018,4.38415082 19.7599956,4.61313443 19.7247093,4.86513443 L20.5838722,5.13956066 L20.3921762,5.73110164 L19.5457004,5.46080656 C19.4218018,5.72185574 19.2523084,5.92860984 19.0742907,5.96283934 L18.3731233,5.73897049 C17.7962511,5.3172 18.2149295,4.05365902 18.9232335,4.04224918" id="Fill-185" fill="#353E44"></path>
            <path d="M17.8119119,7.4487541 L18.5130793,7.67262295 C18.6254802,7.79045902 18.648674,8.01944262 18.6133877,8.27163934 L19.4725507,8.54586885 L19.2808546,9.13740984 L18.4343789,8.86711475 C18.3104802,9.12816393 18.1409868,9.33511475 17.9629692,9.36914754 L17.2618018,9.14527869 C16.6849295,8.7235082 17.1034097,7.45996721 17.8119119,7.4487541" id="Fill-186" fill="#353E44"></path>
            <path d="M16.8988282,10.6584393 L17.5997974,10.8823082 C17.7123965,11.0001443 17.7355903,11.2291279 17.700304,11.4813246 L18.5592687,11.7555541 L18.3677709,12.3470951 L17.5212952,12.0768 C17.3973965,12.3380459 17.2279031,12.5448 17.0498855,12.5788328 L16.3487181,12.3549639 C15.7718458,11.9331934 16.190326,10.6696525 16.8988282,10.6584393" id="Fill-187" fill="#353E44"></path>
            <path d="M32.6215705,98.7324197 C32.6215705,99.5594361 31.9459758,100.229862 31.1125837,100.229862 C30.2791916,100.229862 29.6035969,99.5594361 29.6035969,98.7324197 C29.6035969,97.9054033 30.2791916,97.234977 31.1125837,97.234977 C31.9459758,97.234977 32.6215705,97.9054033 32.6215705,98.7324197" id="Fill-188" fill="#657982"></path>
            <path d="M32.1574361,98.7324197 C32.1574361,99.3050754 31.6895947,99.7693377 31.1125242,99.7693377 C30.5354537,99.7693377 30.0678106,99.3050754 30.0678106,98.7324197 C30.0678106,98.1597639 30.5354537,97.6955016 31.1125242,97.6955016 C31.6895947,97.6955016 32.1574361,98.1597639 32.1574361,98.7324197" id="Fill-189" fill="#A5C0D1"></path>
            <path d="M35.6395837,103.973489 C35.6395837,104.800505 34.963989,105.470931 34.1305969,105.470931 C33.2972048,105.470931 32.6216101,104.800505 32.6216101,103.973489 C32.6216101,103.146472 33.2972048,102.476046 34.1305969,102.476046 C34.963989,102.476046 35.6395837,103.146472 35.6395837,103.973489" id="Fill-190" fill="#657982"></path>
            <path d="M35.1754493,103.973489 C35.1754493,104.546144 34.7076079,105.010407 34.1305374,105.010407 C33.553467,105.010407 33.0856256,104.546144 33.0856256,103.973489 C33.0856256,103.400833 33.553467,102.93657 34.1305374,102.93657 C34.7076079,102.93657 35.1754493,103.400833 35.1754493,103.973489" id="Fill-191" fill="#A5C0D1"></path>
            <path d="M38.6575771,108.766741 C38.6575771,109.593757 37.9819824,110.264184 37.1485903,110.264184 C36.3151982,110.264184 35.6396035,109.593757 35.6396035,108.766741 C35.6396035,107.939725 36.3151982,107.269298 37.1485903,107.269298 C37.9819824,107.269298 38.6575771,107.939725 38.6575771,108.766741" id="Fill-192" fill="#657982"></path>
            <path d="M38.1934427,108.766741 C38.1934427,109.339397 37.7256013,109.803659 37.1485308,109.803659 C36.5714604,109.803659 36.1036189,109.339397 36.1036189,108.766741 C36.1036189,108.194085 36.5714604,107.729823 37.1485308,107.729823 C37.7256013,107.729823 38.1934427,108.194085 38.1934427,108.766741" id="Fill-193" fill="#A5C0D1"></path>
            <path d="M21.8534273,5.4373377 C21.8534273,5.74658361 21.6008722,5.99740328 21.2890441,5.99740328 C20.9774141,5.99740328 20.7246608,5.74658361 20.7246608,5.4373377 C20.7246608,5.1280918 20.9774141,4.87727213 21.2890441,4.87727213 C21.6008722,4.87727213 21.8534273,5.1280918 21.8534273,5.4373377" id="Fill-194" fill="#A5C2D2"></path>
            <path d="M24.6946718,5.4373377 C24.6946718,5.74658361 24.4421167,5.99740328 24.1302885,5.99740328 C23.8186586,5.99740328 23.5659053,5.74658361 23.5659053,5.4373377 C23.5659053,5.1280918 23.8186586,4.87727213 24.1302885,4.87727213 C24.4421167,4.87727213 24.6946718,5.1280918 24.6946718,5.4373377" id="Fill-195" fill="#A5C2D2"></path>
            <path d="M25.2590947,9.35726557 C25.2590947,9.6667082 25.0063414,9.91733115 24.6947115,9.91733115 C24.3830815,9.91733115 24.1303282,9.6667082 24.1303282,9.35726557 C24.1303282,9.04801967 24.3830815,8.7972 24.6947115,8.7972 C25.0063414,8.7972 25.2590947,9.04801967 25.2590947,9.35726557" id="Fill-196" fill="#A5C2D2"></path>
            <path d="M21.0529229,9.35726557 C21.0529229,9.6667082 20.8003678,9.91733115 20.4885396,9.91733115 C20.1769097,9.91733115 19.9241564,9.6667082 19.9241564,9.35726557 C19.9241564,9.04801967 20.1769097,8.7972 20.4885396,8.7972 C20.8003678,8.7972 21.0529229,9.04801967 21.0529229,9.35726557" id="Fill-197" fill="#A5C2D2"></path>
            <path d="M19.6809383,13.5296262 C19.6809383,13.8390689 19.428185,14.0896918 19.1165551,14.0896918 C18.8047269,14.0896918 18.5521718,13.8390689 18.5521718,13.5296262 C18.5521718,13.2203803 18.8047269,12.9695607 19.1165551,12.9695607 C19.428185,12.9695607 19.6809383,13.2203803 19.6809383,13.5296262" id="Fill-198" fill="#A5C2D2"></path>
            <path d="M26.3879207,13.5296262 C26.3879207,13.8390689 26.1351674,14.0896918 25.8235374,14.0896918 C25.5119075,14.0896918 25.2591542,13.8390689 25.2591542,13.5296262 C25.2591542,13.2203803 25.5119075,12.9695607 25.8235374,12.9695607 C26.1351674,12.9695607 26.3879207,13.2203803 26.3879207,13.5296262" id="Fill-199" fill="#A5C2D2"></path>
            <path d="M20.2353899,21.8912459 L24.7042665,21.8912459" id="Stroke-200" stroke="#D9D5D6" stroke-width="0.5"></path>
            <path d="M20.1681079,25.6253902 L24.7127115,25.6253902" id="Stroke-201" stroke="#D9D5D6" stroke-width="0.5"></path>
            <path d="M20.3034449,29.1160328 L24.786,29.1160328" id="Stroke-202" stroke="#D9D5D6" stroke-width="0.5"></path>
            <path d="M20.0380242,32.7690295 L24.787011,32.7690295" id="Stroke-203" stroke="#D9D5D6" stroke-width="0.5"></path>
            <path d="M20.0380242,36.0161705 L24.9111079,36.0161705" id="Stroke-204" stroke="#D9D5D6" stroke-width="0.5"></path>
            <path d="M20.1205903,39.2633311 L24.9110088,39.2633311" id="Stroke-205" stroke="#D9D5D6" stroke-width="0.5"></path>
            <path d="M20.0747974,42.1045574 L24.985348,42.1045574" id="Stroke-206" stroke="#D9D5D6" stroke-width="0.5"></path>
            <path d="M19.8765595,45.0269311 L25.1427489,45.0269311" id="Stroke-207" stroke="#D9D5D6" stroke-width="0.5"></path>
            <path d="M19.8765595,47.705823 L25.0644449,47.705823" id="Stroke-208" stroke="#D9D5D6" stroke-width="0.5"></path>
            <path d="M19.9245727,50.1411148 L25.2240661,50.1411148" id="Stroke-209" stroke="#D9D5D6" stroke-width="0.5"></path>
            <path d="M19.8015463,52.5765049 L25.2626035,52.5765049" id="Stroke-210" stroke="#D9D5D6" stroke-width="0.5"></path>
            <path d="M19.8015463,54.7682951 L25.0992555,54.7682951" id="Stroke-211" stroke="#D9D5D6" stroke-width="0.5"></path>
            <path d="M19.7335903,56.9600852 L25.3322247,56.9600852" id="Stroke-212" stroke="#D9D5D6" stroke-width="0.5"></path>
            <path d="M19.7335903,58.9083738 L25.3631498,58.9083738" id="Stroke-213" stroke="#D9D5D6" stroke-width="0.5"></path>
            <path d="M19.6637115,60.8566623 L25.394174,60.8566623" id="Stroke-214" stroke="#D9D5D6" stroke-width="0.5"></path>
            <path d="M19.6637115,62.8049508 L25.2268612,62.8049508" id="Stroke-215" stroke="#D9D5D6" stroke-width="0.5"></path>
            <path d="M19.6637115,64.5908066 L25.4534471,64.5908066" id="Stroke-216" stroke="#D9D5D6" stroke-width="0.5"></path>
            <path d="M19.6637115,66.2144262 L25.4792181,66.2144262" id="Stroke-217" stroke="#D9D5D6" stroke-width="0.5"></path>
            <path d="M19.4654736,67.8379672 L25.3664207,67.8379672" id="Stroke-218" stroke="#D9D5D6" stroke-width="0.5"></path>
            <path d="M19.6637115,69.2991541 L25.3065529,69.2991541" id="Stroke-219" stroke="#D9D5D6" stroke-width="0.5"></path>
            <path d="M19.5603304,70.3545049 L25.5046916,70.3545049" id="Stroke-220" stroke="#D9D5D6" stroke-width="0.5"></path>
            <path d="M19.4393458,71.5721115 L25.5645,71.5721115" id="Stroke-221" stroke="#D9D5D6" stroke-width="0.5"></path>
            <path d="M24.6662247,97.7029967 L24.1004537,18.4428 L25.8235374,13.5296852 M23.7658282,96.3926361 L23.3953216,18.4428 L24.6947709,9.9172918 M22.8721718,95.0824721 L22.6903877,18.4428 L24.1301894,5.43735738 M21.9787137,95.0824721 L21.9854537,18.4428 L21.2890441,5.43735738 M21.0852555,96.3926361 L21.2805198,18.4428 L20.4885595,9.35722623 M20.1915991,97.7029967 L20.7643084,18.4428 L19.6809383,13.5296852" id="Stroke-222" stroke="#D9D5D6" stroke-width="0.5"></path>
            <path d="M20.5551079,98.0615803 C20.5551079,98.2636131 20.3899758,98.427482 20.1863855,98.427482 C19.9825969,98.427482 19.8174648,98.2636131 19.8174648,98.0615803 C19.8174648,97.8595475 19.9825969,97.6956787 20.1863855,97.6956787 C20.3899758,97.6956787 20.5551079,97.8595475 20.5551079,98.0615803" id="Fill-223" fill="#657982"></path>
            <path d="M25.0067379,98.0615803 C25.0067379,98.2636131 24.8416057,98.427482 24.6380154,98.427482 C24.4342269,98.427482 24.269293,98.2636131 24.269293,98.0615803 C24.269293,97.8595475 24.4342269,97.6956787 24.6380154,97.6956787 C24.8416057,97.6956787 25.0067379,97.8595475 25.0067379,98.0615803" id="Fill-224" fill="#657982"></path>
            <path d="M24.1111982,96.5193049 C24.1111982,96.7213377 23.9460661,96.8852066 23.7424758,96.8852066 C23.5386872,96.8852066 23.3735551,96.7213377 23.3735551,96.5193049 C23.3735551,96.3172721 23.5386872,96.1534033 23.7424758,96.1534033 C23.9460661,96.1534033 24.1111982,96.3172721 24.1111982,96.5193049" id="Fill-225" fill="#657982"></path>
            <path d="M21.3979956,96.5193049 C21.3979956,96.7213377 21.2328634,96.8852066 21.0292731,96.8852066 C20.8254846,96.8852066 20.6605507,96.7213377 20.6605507,96.5193049 C20.6605507,96.3172721 20.8254846,96.1534033 21.0292731,96.1534033 C21.2328634,96.1534033 21.3979956,96.3172721 21.3979956,96.5193049" id="Fill-226" fill="#657982"></path>
            <path d="M22.2936542,95.0813705 C22.2936542,95.2834033 22.128522,95.4472721 21.9249317,95.4472721 C21.7211432,95.4472721 21.556011,95.2834033 21.556011,95.0813705 C21.556011,94.8793377 21.7211432,94.7154689 21.9249317,94.7154689 C22.128522,94.7154689 22.2936542,94.8793377 22.2936542,95.0813705" id="Fill-227" fill="#657982"></path>
            <path d="M23.2409934,95.0813705 C23.2409934,95.2834033 23.0758612,95.4472721 22.8722709,95.4472721 C22.6684824,95.4472721 22.5035485,95.2834033 22.5035485,95.0813705 C22.5035485,94.8793377 22.6684824,94.7154689 22.8722709,94.7154689 C23.0758612,94.7154689 23.2409934,94.8793377 23.2409934,95.0813705" id="Fill-228" fill="#657982"></path>
        </g>
    </g>
</svg>