<?xml version="1.0" encoding="UTF-8"?>
<svg width="120px" height="120px" viewBox="0 0 120 120" version="1.1" xmlns="http://www.w3.org/2000/svg" xmlns:xlink="http://www.w3.org/1999/xlink">
    <!-- Generator: Sketch 51.1 (57501) - http://www.bohemiancoding.com/sketch -->
    <title>Goose1</title>
    <desc>Created with Sketch.</desc>
    <defs>
        <polygon id="path-1" points="1.0262637 0.902019492 86.7213881 0.902019492 86.7213881 104.485344 1.0262637 104.485344"></polygon>
    </defs>
    <g id="Goose1" stroke="none" stroke-width="1" fill="none" fill-rule="evenodd">
        <g id="Group" transform="translate(60.500000, 60.000000) scale(-1, 1) translate(-60.500000, -60.000000) translate(9.000000, 0.000000)">
            <path d="M58.9169224,111.998154 C58.4572657,110.581231 56.5786687,109.859692 55.8315343,108.675077 C54.7754,106.995077 54.9398925,104.675077 54.9860119,102.781231 C55.0229075,101.359692 55.4379821,99.472 54.8353552,98.1366154 C54.3803104,97.1273846 52.8875791,96.7258462 51.8729522,96.9443077 C50.0174149,97.3412308 50.5723851,99.1566154 50.6969075,100.555077 C50.8152806,101.864308 50.8783104,103.182769 50.885997,104.498154 C50.8952209,105.538154 51.1319672,107.118154 50.6922955,108.088923 C50.4632358,108.590462 49.9759075,108.913538 49.5054896,109.198154 C44.7167582,112.079692 39.2854299,113.175077 34.1000716,115.019692 C33.9263552,115.078154 33.7480269,115.142769 33.6019821,115.258154 C33.4559373,115.370462 33.3406388,115.542769 33.3452507,115.727385 C33.3498627,115.833538 33.3959821,115.945846 33.4866836,116.005846 C34.0908478,116.421231 35.332997,116.293538 36.0247881,116.293538 C39.9618478,116.293538 43.8942955,116.388923 47.825206,116.270462 C51.0720119,116.176615 55.1043851,116.475077 57.8531015,114.513538 C58.3189075,114.181231 58.8200716,113.799692 58.949206,113.241231 C59.0629672,112.768923 59.0352955,112.362769 58.9169224,111.998154" id="Fill-1" fill="#E78874"></path>
            <path d="M65.5015433,114.604 C65.1925433,113.554769 64.5468716,112.504 64.2301851,111.580923 C63.5307075,109.537846 63.3723642,107.656308 63.4261701,105.507077 C63.459991,104.084 63.8796776,102.199385 63.2755134,100.859385 C62.8189313,99.8547692 61.3262,99.4470769 60.3115731,99.6670769 C58.4575731,100.067077 59.011006,101.879385 59.1370657,103.277846 C59.2554388,104.591692 59.3184687,105.905538 59.3261552,107.220923 C59.3353791,108.260923 59.5736627,109.842462 59.1309164,110.811692 C58.903394,111.313231 58.4145284,111.637846 57.9441104,111.920923 C53.1553791,114.804 47.7255881,115.900923 42.5402299,117.742462 C42.3649761,117.805538 42.1851104,117.868615 42.0390657,117.980923 C41.8945582,118.093231 41.7792597,118.265538 41.785409,118.450154 C41.7884836,118.559385 41.834603,118.670154 41.9237672,118.728615 C42.5279313,119.144 43.7716179,119.016308 44.4618716,119.016308 C48.7079313,119.017846 52.9908866,119.197846 57.2323343,119.017846 C59.2984836,118.931692 64.3885284,118.885538 65.4354388,116.760923 C65.7751851,116.073231 65.7229164,115.339385 65.5015433,114.604" id="Fill-3" fill="#F7B9AE"></path>
            <g id="Group-7" transform="translate(15.373134, 0.636308)">
                <mask id="mask-2" fill="white">
                    <use xlink:href="#path-1"></use>
                </mask>
                <g id="Clip-6"></g>
                <path d="M86.6817254,66.7096923 C86.6233075,65.5389231 86.3804119,60.5589231 86.3804119,60.5589231 C86.3804119,60.5589231 84.3496209,62.8943077 83.1105463,63.8081538 C83.2796507,60.9435385 82.613994,55.2373846 82.613994,55.2373846 C82.613994,55.2373846 81.0413224,57.9573846 80.2603672,59.3266154 C78.9275164,61.6650769 77.081203,63.7958462 74.9397254,65.5389231 C74.6952925,65.7373846 70.0218597,62.7958462 69.6129343,62.5789231 C63.5190239,59.3558462 57.1822179,56.8050769 50.4241881,55.3512308 C45.8829642,54.3758462 41.2341284,55.2804615 36.7236507,56.1543077 C32.536009,56.9666154 28.7234716,58.2158462 25.6688299,61.2743077 C25.0077851,57.7343077 24.443591,54.5481538 25.3875015,50.9973846 C26.2376358,47.7912308 27.896397,44.8789231 29.6181881,42.0758462 C35.2678149,32.8773846 44.3087552,21.2312308 36.5883672,10.5573846 C30.7757851,2.52353846 19.5749194,-1.01492308 10.1096806,1.92969231 C-3.18193134,6.06507692 0.976501493,27.1158462 14.9276209,25.9343077 C15.6839791,25.8696923 16.4510985,25.7373846 17.1982328,25.8927692 C19.3950537,26.3450769 19.2320985,29.6466154 19.0568448,31.342 C18.5310836,36.4189231 15.4687552,40.6250769 12.6231881,44.7143077 C12.3218746,45.1466154 12.0251731,45.5758462 11.7315463,46.0081538 C8.42939701,50.8604615 5.81288955,56.1866154 3.97118806,61.7604615 C3.96350149,61.7743077 3.96196418,61.7804615 3.95888955,61.7943077 C1.30087463,69.8404615 -0.462423881,79.4958462 2.77977015,87.642 C5.70066567,94.9804615 12.7938299,99.2173846 20.1037552,101.245077 C21.4473672,101.620462 22.7986657,101.957385 24.1607254,102.258923 C36.8881433,105.102 51.6817104,105.683538 64.1370239,101.248154 C67.8680836,99.922 71.1625463,97.7096923 74.1357104,95.1189231 C82.1159045,88.1543077 87.2305463,77.3835385 86.6817254,66.7096923" id="Fill-5" fill="#E0E4E3" mask="url(#mask-2)"></path>
            </g>
            <path d="M32.3352358,11.18 C32.3352358,12.6 31.1837881,13.7523077 29.7617731,13.7523077 C28.3428328,13.7523077 27.1913851,12.6 27.1913851,11.18 C27.1913851,9.75846154 28.3428328,8.60615385 29.7617731,8.60615385 C31.1837881,8.60615385 32.3352358,9.75846154 32.3352358,11.18" id="Fill-8" fill="#040000"></path>
            <path d="M33.5618582,17.8041538 C33.5618582,19.6949231 35.0930224,21.2272308 36.9823806,21.2272308 C38.8717388,21.2272308 40.402903,19.6949231 40.402903,17.8041538 C40.402903,15.9118462 38.8717388,14.3764615 36.9823806,14.3764615 C35.0930224,14.3764615 33.5618582,15.9118462 33.5618582,17.8041538" id="Fill-12" fill="#E89E9E"></path>
            <path d="M27.6542701,22.8695385 C28.5981806,21.1264615 27.3898522,19.7633846 26.8825388,18.1987692 C26.2722254,16.3141538 26.2676134,14.4464615 25.216091,12.6803077 C23.4374194,9.69261538 19.242091,8.28953846 16.9730164,11.5910769 C13.9675687,15.9603077 10.4548075,19.1372308 5.05268806,20.3510769 C3.93659851,20.5987692 2.77900149,20.7572308 1.77206119,21.2926154 C0.765120896,21.8295385 -0.0834761194,22.8664615 0.00722537313,24.0049231 C0.145583582,25.7587692 2.21634478,26.5987692 3.95350896,26.8895385 C9.36638955,27.8003077 14.9130164,27.2233846 20.3535687,26.4664615 C22.5580761,26.1572308 26.5012851,24.9956923 27.6542701,22.8695385" id="Fill-14" fill="#EAA250"></path>
            <path d="M22.9236493,14.4703077 C23.304903,15.398 23.300291,16.2795385 22.9052015,16.4441538 C22.5147239,16.6087692 21.8844254,15.9887692 21.4970224,15.0626154 C21.1111567,14.1364615 21.1203806,13.2549231 21.5139328,13.0903077 C21.9059478,12.9256923 22.5377836,13.5441538 22.9236493,14.4703077" id="Fill-16" fill="#BF8143"></path>
            <path d="M91.9886851,64.8256923 C91.7319537,66.9349231 91.6489388,68.3949231 90.1961776,69.9903077 C89.3721776,70.8949231 86.686491,74.0303077 85.3628642,73.9749231 C86.9247746,74.0410769 88.4851478,74.1072308 90.0455209,74.1733846 C87.7626104,75.9718462 85.4597149,77.7826154 82.8877896,79.138 C80.3127896,80.4949231 77.4257149,81.3795385 74.5232672,81.2026154 C75.640894,81.9687692 76.9276254,82.4795385 78.2666254,82.6826154 C71.9482672,85.998 65.8005507,87.938 58.6105358,87.538 C52.4336104,87.1964615 46.2305507,85.2241538 41.8922522,80.6226154 C36.5285657,74.9318462 37.1619388,65.0687692 42.7393119,59.6933846 C43.4710731,58.9903077 44.3258194,58.4703077 45.1913269,58.0103077 C60.2277896,50.0426154 74.9706254,56.6749231 88.9740134,63.1149231 C89.3675657,63.2949231 91.9886851,64.1903077 91.9886851,64.8256923" id="Fill-18" fill="#CCCECD"></path>
        </g>
    </g>
</svg>