<?xml version="1.0" encoding="UTF-8"?>
<svg width="120px" height="120px" viewBox="0 0 120 120" version="1.1" xmlns="http://www.w3.org/2000/svg" xmlns:xlink="http://www.w3.org/1999/xlink">
    <!-- Generator: Sketch 51.1 (57501) - http://www.bohemiancoding.com/sketch -->
    <title>Swimmer</title>
    <desc>Created with Sketch.</desc>
    <defs>
        <polygon id="path-1" points="0.199373684 0.299053333 13.3734789 0.299053333 13.3734789 5.86666667 0.199373684 5.86666667"></polygon>
    </defs>
    <g id="Swimmer" stroke="none" stroke-width="1" fill="none" fill-rule="evenodd">
        <g id="Group-93" transform="translate(30.000000, 1.000000)">
            <path d="M34.5112,111.1176 L34.5112,99.4196 L24.3292,99.4196 L24.7932,111.1176 L24.8032,111.1176 C22.9832,112.2476 21.6592,114.5456 23.2192,116.4096 C24.3932,117.7276 26.1312,116.6896 27.4432,116.1396 C28.9012,115.4396 30.5692,114.9516 31.8892,114.0596 C32.7332,113.4556 33.7292,112.8156 34.3072,111.9236 C34.4872,111.6496 34.5732,111.3696 34.5112,111.1176" id="Fill-156" fill="#FDDFBB"></path>
            <path d="M45.5462,111.1176 L46.0102,99.4196 L35.8282,99.4196 L35.8282,111.1176 L35.8382,111.1176 C35.7662,111.3816 35.8522,111.6496 36.0302,111.9236 C36.6042,112.8156 37.6062,113.4556 38.4642,114.0596 C39.7762,114.9516 41.4462,115.4396 42.8942,116.1396 C44.2142,116.6896 45.9402,117.7276 47.1262,116.4096 C48.6802,114.5456 47.3662,112.2416 45.5462,111.1176" id="Fill-157" fill="#FDDFBB"></path>
            <path d="M31.5502,104.4516 L31.4242,104.4356 C31.4382,104.3816 32.1562,99.3036 32.1562,97.6276 L32.2822,97.6276 C32.2822,99.3036 31.5642,104.4056 31.5502,104.4516" id="Fill-158" fill="#EEAC6C"></path>
            <path d="M26.226,104.4516 C26.212,104.4056 25.49,99.3036 25.49,97.6276 L25.624,97.6276 C25.624,99.3036 26.34,104.3816 26.348,104.4356 L26.226,104.4516 Z" id="Fill-159" fill="#EEAC6C"></path>
            <path d="M38.7944,104.4516 L38.9244,104.4356 C38.9164,104.3816 38.1884,99.3036 38.1884,97.6276 L38.0664,97.6276 C38.0664,99.3036 38.7944,104.4056 38.7944,104.4516" id="Fill-160" fill="#EEAC6C"></path>
            <path d="M44.1244,104.4516 C44.1404,104.4056 44.8564,99.3036 44.8564,97.6276 L44.7264,97.6276 C44.7264,99.3036 44.0084,104.3816 44.0044,104.4356 L44.1244,104.4516 Z" id="Fill-161" fill="#EEAC6C"></path>
            <polygon id="Fill-162" fill="#333433" points="38.4096 84.5922 35.1676 84.5922 32.2016 84.5922 22.6176 84.5922 23.7216 99.3922 34.8816 99.3922 35.0236 91.8622 35.3196 91.8622 35.4636 99.3922 46.6156 99.3922 47.7336 84.5922"></polygon>
            <path d="M58.7944,78.2074 C58.6864,77.2094 58.3524,76.3034 57.8724,75.6214 C57.8824,75.6634 57.8824,75.6814 57.8824,75.6814 C57.8824,75.6814 56.4584,61.4434 52.7524,56.7094 C51.0564,54.5374 45.1884,51.3954 44.5064,51.0294 C43.2184,50.0914 40.2964,49.6694 38.4884,49.4974 C38.7944,48.8374 38.9724,48.1074 38.9724,47.5774 L31.3084,47.5774 C31.3084,48.1074 31.4924,48.8234 31.7844,49.4874 C30.0004,49.6554 27.0564,50.0814 25.7104,51.0094 C25.7104,51.0094 23.3884,51.8454 22.6184,52.1234 C19.1864,50.4014 13.9904,55.2134 13.9904,55.2134 L8.4364,48.6854 C8.5304,48.4234 8.6044,48.1454 8.6444,47.8514 C8.9984,47.2014 9.2964,46.3874 9.4684,45.4794 C9.9264,43.1154 9.4204,41.0214 8.3284,40.8074 C7.7384,40.6954 7.1024,41.1394 6.5704,41.9454 C5.3924,40.8074 3.9384,40.3374 2.7264,40.8494 C0.8644,41.6474 0.2764,44.4454 1.4024,47.1114 C2.1324,48.8274 3.3904,50.0734 4.6864,50.5294 L4.6864,50.5374 C4.6864,50.5374 8.1544,60.3794 11.1704,61.4674 C13.6104,62.3534 22.5304,58.7714 22.5304,58.7714 L22.5304,58.7574 C20.8624,68.9834 22.6184,84.5914 22.6184,84.5914 L47.7344,84.5914 C47.7344,84.5914 49.2384,70.4154 47.8824,60.2374 L47.8824,60.2394 C48.0824,60.7814 49.1704,61.7454 50.0304,62.9614 C51.7544,65.3934 53.3624,75.6774 53.3624,75.6774 C53.3244,75.7454 53.2884,75.8194 53.2424,75.8894 C52.8144,76.3194 52.3824,76.8874 52.0264,77.5574 C51.0944,79.3214 51.0024,81.0914 51.8204,81.5214 C52.2484,81.7514 52.8584,81.5554 53.4724,81.0494 C54.1324,82.2254 55.1644,82.9514 56.2544,82.8334 C57.9064,82.6594 59.0404,80.5834 58.7944,78.2074" id="Fill-163" fill="#FDDFBB"></path>
            <path d="M32.1322,50.104 L38.9442,47.87 L38.9582,47.852 C37.6902,48.064 36.3882,48.178 35.0602,48.178 C33.7882,48.178 32.5342,48.076 31.3262,47.878 C31.3942,48.534 31.6942,49.452 32.1322,50.104" id="Fill-164" fill="#EEAC6C"></path>
            <path d="M28.6596,63.4106 C26.8176,63.4106 25.5196,63.0886 24.7096,62.4326 C24.0336,61.8786 23.7036,61.0646 23.7036,60.0346 L23.8336,60.0346 C23.8336,61.0646 24.1476,61.8066 24.7916,62.3306 C26.2536,63.5286 29.4656,63.6046 34.6196,62.5586 L34.6476,62.6786 C32.2456,63.1706 30.2516,63.4106 28.6596,63.4106" id="Fill-165" fill="#EEAC6C"></path>
            <path d="M41.8704,63.4106 C43.7124,63.4106 45.0204,63.0886 45.8244,62.4326 C46.5024,61.8786 46.8344,61.0646 46.8344,60.0346 L46.7024,60.0346 C46.7024,61.0646 46.3864,61.8066 45.7384,62.3306 C44.2764,63.5286 41.0624,63.6046 35.9184,62.5586 L35.8924,62.6786 C38.2924,63.1706 40.2804,63.4106 41.8704,63.4106" id="Fill-166" fill="#EEAC6C"></path>
            <polygon id="Fill-167" fill="#EEAC6C" points="35.15 61.3892 35.276 61.3892 35.276 58.4912 35.15 58.4912"></polygon>
            <path d="M31.4388,74.309 C30.3708,74.309 29.6188,74.127 29.1528,73.741 C28.7568,73.423 28.5648,72.929 28.5648,72.353 L28.6408,72.353 C28.6408,72.929 28.8228,73.379 29.1928,73.687 C30.0388,74.377 31.9088,74.421 34.8948,73.815 L34.9068,73.885 C33.5168,74.175 32.3708,74.309 31.4388,74.309" id="Fill-168" fill="#EEAC6C"></path>
            <path d="M39.0932,74.309 C40.1592,74.309 40.9252,74.127 41.3932,73.741 C41.7812,73.423 41.9712,72.929 41.9712,72.353 L41.8932,72.353 C41.8932,72.929 41.7172,73.379 41.3352,73.687 C40.4872,74.377 38.6292,74.421 35.6472,73.815 L35.6332,73.885 C37.0212,74.175 38.1772,74.309 39.0932,74.309" id="Fill-169" fill="#EEAC6C"></path>
            <path d="M31.4388,77.5376 C30.3708,77.5376 29.6188,77.3436 29.1528,76.9696 C28.7568,76.6496 28.5648,76.1556 28.5648,75.5776 L28.6408,75.5776 C28.6408,76.1556 28.8228,76.5996 29.1928,76.9076 C30.0388,77.6036 31.9088,77.6436 34.8948,77.0376 L34.9068,77.1116 C33.5168,77.3936 32.3708,77.5376 31.4388,77.5376" id="Fill-170" fill="#EEAC6C"></path>
            <path d="M39.0932,77.5376 C40.1592,77.5376 40.9252,77.3436 41.3932,76.9696 C41.7812,76.6496 41.9712,76.1556 41.9712,75.5776 L41.8932,75.5776 C41.8932,76.1556 41.7172,76.5996 41.3352,76.9076 C40.4872,77.6036 38.6292,77.6436 35.6472,77.0376 L35.6332,77.1116 C37.0212,77.3936 38.1772,77.5376 39.0932,77.5376" id="Fill-171" fill="#EEAC6C"></path>
            <path d="M31.4388,80.8266 C30.3708,80.8266 29.6188,80.6306 29.1528,80.2586 C28.7568,79.9366 28.5648,79.4466 28.5648,78.8626 L28.6408,78.8626 C28.6408,79.4466 28.8228,79.8886 29.1928,80.1986 C30.0388,80.8926 31.9088,80.9366 34.8948,80.3266 L34.9068,80.4006 C33.5168,80.6806 32.3708,80.8266 31.4388,80.8266" id="Fill-172" fill="#EEAC6C"></path>
            <path d="M39.0932,80.8266 C40.1592,80.8266 40.9252,80.6306 41.3932,80.2586 C41.7812,79.9366 41.9712,79.4466 41.9712,78.8626 L41.8932,78.8626 C41.8932,79.4466 41.7172,79.8886 41.3352,80.1986 C40.4872,80.8926 38.6292,80.9366 35.6472,80.3266 L35.6332,80.4006 C37.0212,80.6806 38.1772,80.8266 39.0932,80.8266" id="Fill-173" fill="#EEAC6C"></path>
            <path d="M30.9954,71.1392 C29.8114,71.1392 28.9594,70.9172 28.4414,70.4972 C28.0034,70.1352 27.7934,69.5752 27.7934,68.9312 L27.8814,68.9312 C27.8814,69.5752 28.0814,70.0852 28.4954,70.4272 C29.4374,71.1992 31.5194,71.2532 34.8474,70.5772 L34.8694,70.6572 C33.3114,70.9752 32.0234,71.1392 30.9954,71.1392" id="Fill-174" fill="#EEAC6C"></path>
            <path d="M39.5306,71.1392 C40.7226,71.1392 41.5686,70.9172 42.0846,70.4972 C42.5226,70.1352 42.7406,69.5752 42.7406,68.9312 L42.6626,68.9312 C42.6626,69.5752 42.4586,70.0852 42.0306,70.4272 C41.0866,71.1992 39.0106,71.2532 35.6886,70.5772 L35.6746,70.6572 C37.2186,70.9752 38.5066,71.1392 39.5306,71.1392" id="Fill-175" fill="#EEAC6C"></path>
            <path d="M18.1752,57.182 C17.9252,57.182 17.6872,57.166 17.4612,57.156 C15.6712,57.042 14.2692,56.542 14.2572,56.536 L14.3012,56.408 C14.3192,56.418 15.7012,56.916 17.4732,57.026 C19.1012,57.136 21.4152,56.928 23.1432,55.346 L23.2292,55.44 C21.7072,56.834 19.7512,57.182 18.1752,57.182" id="Fill-176" fill="#EEAC6C"></path>
            <path d="M52.9212,60.3832 C52.9692,60.1972 53.3132,58.9812 53.4052,57.6672 C53.3672,57.5972 53.3232,57.5372 53.2892,57.4692 C53.2032,58.9272 52.8052,60.3412 52.7912,60.3612 L52.7912,60.3952 L54.3792,65.6392 L54.5032,65.5972 L52.9212,60.3832 Z" id="Fill-177" fill="#EEAC6C"></path>
            <path d="M57.851,28.5884 C58.017,27.4604 58.113,26.2964 58.113,25.1244 C58.113,12.3824 47.791,2.0604 35.051,2.0604 C22.315,2.0604 11.995,12.3824 11.995,25.1244 C11.995,26.2424 12.073,27.3504 12.223,28.4284 C10.897,29.1624 10.003,30.5384 10.003,32.1164 C10.003,34.4524 11.971,36.3444 14.409,36.3444 C14.569,36.3444 14.729,36.3384 14.891,36.3184 C18.831,43.3924 26.379,48.1784 35.051,48.1784 C43.713,48.1784 51.259,43.4004 55.199,36.3384 C55.267,36.3444 55.335,36.3444 55.403,36.3444 C57.835,36.3444 59.807,34.4524 59.807,32.1164 C59.807,30.6464 59.029,29.3444 57.851,28.5884" id="Fill-178" fill="#FDDFBB"></path>
            <g id="Page-1" transform="translate(22.000000, 22.000000)">
                <path d="M6.22875275,3.09640088 C5.45712117,2.92235643 5.3211738,1.89471199 2.8433317,2.35573421 C2.06412117,2.53613421 0.42612117,3.51195643 0.110647486,4.16364532 C-0.205299883,4.8158231 0.0234895909,1.77248977 2.56764749,0.641689768 C4.4031738,-0.0329768984 5.02512117,0.000267546019 6.54470012,0.000267546019 C8.06427906,0.000267546019 8.53227906,0.907156435 8.31106854,1.65026755 C8.31106854,1.65026755 7.80801591,3.45328977 6.22875275,3.09640088 Z" id="Fill-1" fill="#AD6921"></path>
                <path d="M20.1341558,3.09640088 C20.9057873,2.92235643 21.0417347,1.89471199 23.5195768,2.35573421 C24.2987873,2.53613421 25.9367873,3.51195643 26.252261,4.16364532 C26.5682084,4.8158231 26.3394189,1.77248977 23.795261,0.641689768 C21.9597347,-0.0329768984 21.3377873,0.000267546019 19.8182084,0.000267546019 C18.2986294,0.000267546019 17.8306294,0.907156435 18.05184,1.65026755 C18.05184,1.65026755 18.5548926,3.45328977 20.1341558,3.09640088 Z" id="Fill-3" fill="#AD6921"></path>
                <path d="M3.99983098,12 C2.89512381,12 2,10.6568785 2,9 C2,7.34312148 2.89512381,6 3.99983098,6 C5.10453816,6 6,7.34312148 6,9 C6,10.6568785 5.10453816,12 3.99983098,12 Z" id="Fill-5" fill="#343434"></path>
                <path d="M22.000169,12 C20.8951238,12 20,10.6568785 20,9 C20,7.34312148 20.8951238,6 22.000169,6 C23.1048762,6 24,7.34312148 24,9 C24,10.6568785 23.1048762,12 22.000169,12 Z" id="Fill-7" fill="#343434"></path>
                <path d="M13.0197368,12.0692 C13.8586316,11.9552889 15.9802632,13.8262667 15.9802632,13.8262667 C15.9802632,13.8262667 16.0825789,13.4116889 15.6396842,12.5884 C15.1626842,11.7025333 12.9903684,11 12.9903684,11 C12.9903684,11 11.3026316,11.4478222 10.5030526,12.6040444 C10.207,12.8939556 10,13.9025333 10,13.9025333 C10,13.9025333 11.8947368,12.2217333 13.0197368,12.0692 Z" id="Fill-9" fill="#EEAC6C"></path>
                <g id="Group-13" transform="translate(6.000000, 15.000000)">
                    <mask id="mask-2" fill="white">
                        <use xlink:href="#path-1"></use>
                    </mask>
                    <g id="Clip-12"></g>
                    <path d="M0.199373684,0.696031111 C0.199373684,0.696031111 7.09763684,3.90412 13.3734789,0.299053333 C13.3734789,0.299053333 11.9822684,5.76825333 7.42305789,5.86016444 C3.30768947,5.98238667 2.43942632,4.36807556 1.94632105,3.90412 C1.45274211,3.44114222 0.524794737,2.13238667 0.199373684,0.696031111" id="Fill-11" fill="#EEAC6C" mask="url(#mask-2)"></path>
                </g>
            </g>
            <path d="M26.2786,30.2134 C26.2786,31.6514 25.4366,32.8034 24.3726,32.8034 C23.3126,32.8034 22.4606,31.6514 22.4606,30.2134 C22.4606,28.7834 23.3126,27.6274 24.3726,27.6274 C25.4366,27.6274 26.2786,28.7834 26.2786,30.2134" id="Fill-181" fill="#FFFFFF"></path>
            <path d="M46.8392,30.2134 C46.8392,31.6514 45.9832,32.8034 44.9292,32.8034 C43.8752,32.8034 43.0192,31.6514 43.0192,30.2134 C43.0192,28.7834 43.8752,27.6274 44.9292,27.6274 C45.9832,27.6274 46.8392,28.7834 46.8392,30.2134" id="Fill-182" fill="#FFFFFF"></path>
            <path d="M25.558,30.932 C25.558,31.814 25.022,32.53 24.372,32.53 C23.718,32.53 23.188,31.814 23.188,30.932 C23.188,30.048 23.718,29.33 24.372,29.33 C25.022,29.33 25.558,30.048 25.558,30.932" id="Fill-183" fill="#1679AF"></path>
            <path d="M46.1068,30.932 C46.1068,31.814 45.5788,32.53 44.9288,32.53 C44.2768,32.53 43.7428,31.814 43.7428,30.932 C43.7428,30.048 44.2768,29.33 44.9288,29.33 C45.5788,29.33 46.1068,30.048 46.1068,30.932" id="Fill-184" fill="#1679AF"></path>
            <path d="M59.0286,22.1176 C59.0066,20.9096 58.9166,19.4476 58.7486,17.8776 C55.6526,7.7376 46.2186,0.3496 35.0606,0.3496 C25.3346,0.3496 16.9246,5.9436 12.8746,14.0916 C11.7526,17.2936 11.0626,20.4436 11.0066,21.8576 C10.8086,26.7956 14.4086,34.1716 14.4086,34.1716 C13.9746,26.0536 14.0646,26.0776 16.0226,24.6656 C18.4526,22.9196 23.5766,19.6616 25.5586,17.4136 C25.9326,16.9876 26.7226,15.4396 26.7226,15.4396 C26.7226,15.4396 26.6366,16.6476 27.3206,17.1816 C31.3946,20.4036 43.4246,16.8276 47.9946,19.3096 C51.7346,21.3356 56.2686,34.1716 56.2686,34.1716 C58.1126,30.6856 59.0626,24.8236 59.0286,22.1176" id="Fill-187" fill="#F7B90B"></path>
            <path d="M52.4642,26.1742 L17.5662,26.1742 L19.3982,27.5062 C19.0062,28.8962 18.2662,32.4222 19.5942,34.2022 C21.6442,36.9602 31.2142,33.3002 33.3482,30.6042 C34.1082,29.6382 33.8562,28.2242 33.5962,27.4902 L36.4522,27.4902 C36.1942,28.2242 35.9402,29.6282 36.6982,30.5842 C38.8362,33.2882 48.4062,36.9742 50.4542,34.2142 C51.7802,32.4322 51.0422,28.8962 50.6482,27.5062 L52.4642,26.1742 Z" id="Fill-188" fill="#343434"></path>
            <path d="M22.9604,27.5258 C23.1364,27.8078 23.0524,28.1658 22.7784,28.3498 L20.7224,29.6738 C20.4424,29.8498 20.0804,29.7758 19.9044,29.5018 L19.8944,29.4958 C19.7184,29.2138 19.8004,28.8538 20.0744,28.6738 L22.1424,27.3498 C22.4144,27.1718 22.7784,27.2458 22.9604,27.5258" id="Fill-189" fill="#515151"></path>
            <path d="M22.1108,30.432 C22.1108,30.804 21.8228,31.096 21.4548,31.096 C21.0848,31.096 20.7928,30.804 20.7928,30.432 C20.7928,30.072 21.0848,29.776 21.4548,29.776 C21.8228,29.776 22.1108,30.072 22.1108,30.432" id="Fill-190" fill="#515151"></path>
        </g>
    </g>
</svg>