<?xml version="1.0" encoding="UTF-8"?>
<svg width="120px" height="120px" viewBox="0 0 120 120" version="1.1" xmlns="http://www.w3.org/2000/svg" xmlns:xlink="http://www.w3.org/1999/xlink">
    <!-- Generator: Sketch 51.1 (57501) - http://www.bohemiancoding.com/sketch -->
    <title>Tower21</title>
    <desc>Created with Sketch.</desc>
    <defs>
        <polygon id="path-1" points="0 119.210526 21.5733571 119.210526 21.5733571 0.748421053 0 0.748421053"></polygon>
    </defs>
    <g id="Tower21" stroke="none" stroke-width="1" fill="none" fill-rule="evenodd">
        <g id="Page-1" transform="translate(49.000000, 0.000000)">
            <polygon id="Fill-1" fill="#916D57" points="2.7137 53.2374474 18.8153429 53.2374474 18.8436286 108.698763 2.74277143 108.698763"></polygon>
            <polygon id="Fill-2" fill="#886257" points="2.71385714 53.2523684 18.7872143 53.2523684 18.7872143 52.7234211 2.71385714 52.7234211"></polygon>
            <polygon id="Fill-3" fill="#875F55" points="2.04678571 52.7518421 19.5124286 52.7518421 19.5124286 52.0523684 2.04678571 52.0523684"></polygon>
            <polygon id="Fill-4" fill="#9B7260" points="1.36478571 52.0815789 20.1795 52.0815789 20.1795 51.3963158 1.36478571 51.3963158"></polygon>
            <polygon id="Fill-5" fill="#AC836D" points="1.36478571 51.4097368 20.1229286 51.4097368 20.1229286 50.025 1.36478571 50.025"></polygon>
            <polygon id="Fill-6" fill="#75524C" points="0.0565714286 50.025 21.5725714 50.025 21.5725714 49.3255263 0.0565714286 49.3255263"></polygon>
            <polygon id="Fill-7" fill="#D8AB81" points="0.725214286 49.3105263 20.7334286 49.3105263 20.7334286 35.8736842 0.725214286 35.8736842"></polygon>
            <polygon id="Fill-8" fill="#A08572" points="0 35.8744737 21.5442857 35.8744737 21.5442857 35.1742105 0 35.1742105"></polygon>
            <polygon id="Fill-9" fill="#BC916E" points="0.668642857 35.1884211 20.8473571 35.1884211 20.8473571 34.4463158 0.668642857 34.4463158"></polygon>
            <polygon id="Fill-10" fill="#C49977" points="1.37892857 34.4463158 20.1512143 34.4463158 20.1512143 33.8747368 1.37892857 33.8747368"></polygon>
            <polygon id="Fill-11" fill="#A9856D" points="2.68557143 33.9173684 18.7872143 33.9173684 18.7872143 30.4476316 2.68557143 30.4476316"></polygon>
            <polygon id="Fill-12" fill="#798B9F" points="1.37892857 33.8889474 2.06092857 33.8889474 2.06092857 29.7907895 1.37892857 29.7907895"></polygon>
            <polygon id="Fill-13" fill="#798B9F" points="19.5124286 33.8755263 20.1378571 33.8755263 20.1378571 30.4484211 19.5124286 30.4484211"></polygon>
            <polygon id="Fill-14" fill="#778C9D" points="2.68478571 30.4618421 3.36757143 30.4618421 3.36757143 25.0792105 2.68478571 25.0792105"></polygon>
            <polygon id="Fill-15" fill="#778C9D" points="18.1335 30.4618421 18.788 30.4618421 18.788 25.065 18.1335 25.065"></polygon>
            <polygon id="Fill-16" fill="#0A3045" points="2.70065714 30.4622368 18.7732286 30.4622368 14.7943714 24.3793421 6.73687143 24.3793421"></polygon>
            <polygon id="Fill-17" fill="#AA846F" points="6.75085714 24.4081579 14.7942143 24.4081579 14.7942143 20.3526316 6.75085714 20.3526316"></polygon>
            <polygon id="Fill-18" fill="#778C9D" points="6.75007143 20.3810526 7.44621429 20.3810526 7.44621429 14.34 6.75007143 14.34"></polygon>
            <polygon id="Fill-19" fill="#778C9D" points="14.1829286 20.3526316 14.7942143 20.3526316 14.7942143 14.3115789 14.1829286 14.3115789"></polygon>
            <polygon id="Fill-20" fill="#0A3045" points="6.75046429 20.3810526 14.7223214 20.3810526 12.10825 12.9836842 9.45096429 12.9836842"></polygon>
            <polygon id="Fill-21" fill="#0A3045" points="10.0477143 12.9978947 11.3967857 12.9978947 11.3967857 0.789473684 10.0477143 0.789473684"></polygon>
            <polygon id="Fill-22" fill="#444A4A" points="9.76328571 12.9978947 11.7802143 12.9978947 11.7802143 10.9421053 9.76328571 10.9421053"></polygon>
            <polygon id="Fill-23" fill="#DAC99D" points="4.02207143 49.3113158 17.5512857 49.3113158 17.5512857 35.8460526 4.02207143 35.8460526"></polygon>
            <g id="Group-90" transform="translate(0.000000, 0.041053)">
                <path d="M4.88902857,42.2725263 C4.90395714,39.1454211 7.44652857,36.6183158 10.5595286,36.6325263 C13.6851,36.6467368 16.2151,39.1888421 16.2009571,42.3167368 C16.1868143,45.4438421 13.6426714,47.9559474 10.5163143,47.9417368 C7.40488571,47.9417368 4.87488571,45.4004211 4.88902857,42.2725263" id="Fill-24" fill="#AB9073"></path>
                <path d="M5.15907857,42.2440263 C5.17322143,39.2606053 7.59007857,36.8471842 10.5592929,36.8613947 C13.5285071,36.8748158 15.9312214,39.3024474 15.9155071,42.2874474 C15.9155071,45.2716579 13.4868643,47.6850789 10.5160786,47.6850789 C7.54686429,47.6708684 5.14415,45.2432368 5.15907857,42.2440263" id="Fill-26" fill="#D6CDC4"></path>
                <path d="M10.9575714,43.8152368 C10.9575714,43.9865526 10.8145714,44.1286579 10.6448571,44.1286579 C10.6448571,44.1286579 10.3462857,43.9865526 10.3462857,43.8152368 L10.3604286,38.7886579 C10.3604286,38.6181316 10.5026429,38.4886579 10.6731429,38.4886579 C10.6731429,38.4886579 10.9717143,38.4886579 10.9717143,38.8455 L10.9575714,43.8152368 Z" id="Fill-28" fill="#AE937E"></path>
                <path d="M10.8862286,44.0149737 C10.7864429,44.1436579 10.5876571,44.1578684 10.4595857,44.0583947 C10.4595857,44.0583947 10.2183714,43.8586579 10.4171571,43.6155 L12.4773,41.0876053 C12.5912286,40.9597105 12.7758714,40.9447105 12.9039429,41.0449737 C13.0461571,41.1594474 13.0603,41.3591842 12.9463714,41.4878684 L10.8862286,44.0149737 Z" id="Fill-30" fill="#987E71"></path>
                <mask id="mask-2" fill="white">
                    <use xlink:href="#path-1"></use>
                </mask>
                <g id="Clip-33"></g>
                <polygon id="Fill-32" fill="#614338" mask="url(#mask-2)" points="4.76064286 33.8763158 6.02564286 33.8763158 6.02564286 31.1771053 4.76064286 31.1771053"></polygon>
                <polygon id="Fill-34" fill="#614338" mask="url(#mask-2)" points="6.90721429 33.8763158 8.17221429 33.8763158 8.17221429 31.1771053 6.90721429 31.1771053"></polygon>
                <polygon id="Fill-35" fill="#614338" mask="url(#mask-2)" points="9.06714286 33.8763158 10.3321429 33.8763158 10.3321429 31.1771053 9.06714286 31.1771053"></polygon>
                <polygon id="Fill-36" fill="#614338" mask="url(#mask-2)" points="11.2278571 33.8763158 12.4920714 33.8763158 12.4920714 31.1771053 11.2278571 31.1771053"></polygon>
                <polygon id="Fill-37" fill="#614338" mask="url(#mask-2)" points="13.387 33.8763158 14.652 33.8763158 14.652 31.1771053 13.387 31.1771053"></polygon>
                <polygon id="Fill-38" fill="#614338" mask="url(#mask-2)" points="15.5335714 33.8763158 16.797 33.8763158 16.797 31.1771053 15.5335714 31.1771053"></polygon>
                <polygon id="Fill-39" fill="#614338" mask="url(#mask-2)" points="7.63242857 24.3671053 8.30028571 24.3671053 8.30028571 21.6686842 7.63242857 21.6686842"></polygon>
                <polygon id="Fill-40" fill="#614338" mask="url(#mask-2)" points="8.75442857 24.3671053 9.42307143 24.3671053 9.42307143 21.6686842 8.75442857 21.6686842"></polygon>
                <polygon id="Fill-41" fill="#614338" mask="url(#mask-2)" points="9.89214286 24.3671053 10.5450714 24.3671053 10.5450714 21.6686842 9.89214286 21.6686842"></polygon>
                <polygon id="Fill-42" fill="#614338" mask="url(#mask-2)" points="11.0141429 24.3671053 11.6670714 24.3671053 11.6670714 21.6686842 11.0141429 21.6686842"></polygon>
                <polygon id="Fill-43" fill="#614338" mask="url(#mask-2)" points="12.1369286 24.3671053 12.8047857 24.3671053 12.8047857 21.6686842 12.1369286 21.6686842"></polygon>
                <polygon id="Fill-44" fill="#614338" mask="url(#mask-2)" points="13.2589286 24.3671053 13.9283571 24.3671053 13.9283571 21.6686842 13.2589286 21.6686842"></polygon>
                <polygon id="Fill-45" fill="#62443A" mask="url(#mask-2)" points="4.76064286 51.3544737 6.02564286 51.3544737 6.02564286 50.1978947 4.76064286 50.1978947"></polygon>
                <polygon id="Fill-46" fill="#62443A" mask="url(#mask-2)" points="6.90721429 51.3544737 8.17221429 51.3544737 8.17221429 50.1978947 6.90721429 50.1978947"></polygon>
                <polygon id="Fill-47" fill="#62443A" mask="url(#mask-2)" points="9.06714286 51.3544737 10.3321429 51.3544737 10.3321429 50.1978947 9.06714286 50.1978947"></polygon>
                <polygon id="Fill-48" fill="#62443A" mask="url(#mask-2)" points="11.2278571 51.3544737 12.4920714 51.3544737 12.4920714 50.1978947 11.2278571 50.1978947"></polygon>
                <polygon id="Fill-49" fill="#62443A" mask="url(#mask-2)" points="13.387 51.3544737 14.652 51.3544737 14.652 50.1978947 13.387 50.1978947"></polygon>
                <polygon id="Fill-50" fill="#62443A" mask="url(#mask-2)" points="15.5335714 51.3544737 16.797 51.3544737 16.797 50.1978947 15.5335714 50.1978947"></polygon>
                <polygon id="Fill-51" fill="#FFFFFF" mask="url(#mask-2)" points="4.73235714 37.2039474 5.401 37.2039474 5.401 36.5178947 4.73235714 36.5178947"></polygon>
                <polygon id="Fill-52" fill="#FFFFFF" mask="url(#mask-2)" points="16.1448571 37.1897368 16.841 37.1897368 16.841 36.5044737 16.1448571 36.5044737"></polygon>
                <polygon id="Fill-53" fill="#FFFFFF" mask="url(#mask-2)" points="16.1582143 47.985 16.8260714 47.985 16.8260714 47.2997368 16.1582143 47.2997368"></polygon>
                <polygon id="Fill-54" fill="#FFFFFF" mask="url(#mask-2)" points="4.73235714 47.97 5.41435714 47.97 5.41435714 47.2989474 4.73235714 47.2989474"></polygon>
                <polygon id="Fill-55" fill="#AF826B" mask="url(#mask-2)" points="2.71385714 108.514737 10.6448571 108.514737 10.6448571 53.2105263 2.71385714 53.2105263"></polygon>
                <polygon id="Fill-56" fill="#663F42" mask="url(#mask-2)" points="2.37285714 103.346842 18.9152857 103.346842 18.9152857 102.332368 2.37285714 102.332368"></polygon>
                <polygon id="Fill-57" fill="#663F42" mask="url(#mask-2)" points="2.37285714 90.5794737 18.9152857 90.5794737 18.9152857 89.5665789 2.37285714 89.5665789"></polygon>
                <polygon id="Fill-58" fill="#663F42" mask="url(#mask-2)" points="2.37285714 77.8152632 18.9152857 77.8152632 18.9152857 76.8007895 2.37285714 76.8007895"></polygon>
                <polygon id="Fill-59" fill="#663F42" mask="url(#mask-2)" points="2.37285714 65.0486842 18.9152857 65.0486842 18.9152857 64.035 2.37285714 64.035"></polygon>
                <polygon id="Fill-60" fill="#62443A" mask="url(#mask-2)" points="4.76064286 102.318158 6.02564286 102.318158 6.02564286 91.8078947 4.76064286 91.8078947"></polygon>
                <polygon id="Fill-61" fill="#62443A" mask="url(#mask-2)" points="6.90721429 102.318158 8.17221429 102.318158 8.17221429 91.8078947 6.90721429 91.8078947"></polygon>
                <polygon id="Fill-62" fill="#62443A" mask="url(#mask-2)" points="9.06714286 102.318158 10.3321429 102.318158 10.3321429 91.8078947 9.06714286 91.8078947"></polygon>
                <polygon id="Fill-63" fill="#62443A" mask="url(#mask-2)" points="11.2278571 102.318158 12.4920714 102.318158 12.4920714 91.8078947 11.2278571 91.8078947"></polygon>
                <polygon id="Fill-64" fill="#62443A" mask="url(#mask-2)" points="13.387 102.318158 14.652 102.318158 14.652 91.8078947 13.387 91.8078947"></polygon>
                <polygon id="Fill-65" fill="#62443A" mask="url(#mask-2)" points="15.5335714 102.318158 16.797 102.318158 16.797 91.8078947 15.5335714 91.8078947"></polygon>
                <polygon id="Fill-66" fill="#62443A" mask="url(#mask-2)" points="4.76064286 89.5665789 6.02564286 89.5665789 6.02564286 78.915 4.76064286 78.915"></polygon>
                <polygon id="Fill-67" fill="#62443A" mask="url(#mask-2)" points="6.90721429 89.5665789 8.17221429 89.5665789 8.17221429 78.915 6.90721429 78.915"></polygon>
                <polygon id="Fill-68" fill="#62443A" mask="url(#mask-2)" points="9.06714286 89.5665789 10.3321429 89.5665789 10.3321429 78.915 9.06714286 78.915"></polygon>
                <polygon id="Fill-69" fill="#62443A" mask="url(#mask-2)" points="11.2278571 89.5665789 12.4920714 89.5665789 12.4920714 78.915 11.2278571 78.915"></polygon>
                <polygon id="Fill-70" fill="#62443A" mask="url(#mask-2)" points="13.387 89.5665789 14.652 89.5665789 14.652 78.915 13.387 78.915"></polygon>
                <polygon id="Fill-71" fill="#62443A" mask="url(#mask-2)" points="15.5335714 89.5665789 16.797 89.5665789 16.797 78.915 15.5335714 78.915"></polygon>
                <polygon id="Fill-72" fill="#62443A" mask="url(#mask-2)" points="4.76064286 76.8007895 6.02564286 76.8007895 6.02564286 66.1484211 4.76064286 66.1484211"></polygon>
                <polygon id="Fill-73" fill="#62443A" mask="url(#mask-2)" points="6.90721429 76.8007895 8.17221429 76.8007895 8.17221429 66.1484211 6.90721429 66.1484211"></polygon>
                <polygon id="Fill-74" fill="#62443A" mask="url(#mask-2)" points="9.06714286 76.8007895 10.3321429 76.8007895 10.3321429 66.1484211 9.06714286 66.1484211"></polygon>
                <polygon id="Fill-75" fill="#62443A" mask="url(#mask-2)" points="11.2278571 76.8007895 12.4920714 76.8007895 12.4920714 66.1484211 11.2278571 66.1484211"></polygon>
                <polygon id="Fill-76" fill="#62443A" mask="url(#mask-2)" points="13.387 76.8007895 14.652 76.8007895 14.652 66.1484211 13.387 66.1484211"></polygon>
                <polygon id="Fill-77" fill="#62443A" mask="url(#mask-2)" points="15.5335714 76.8007895 16.797 76.8007895 16.797 66.1484211 15.5335714 66.1484211"></polygon>
                <polygon id="Fill-78" fill="#62443A" mask="url(#mask-2)" points="4.76064286 64.0207895 6.02564286 64.0207895 6.02564286 54.3386842 4.76064286 54.3386842"></polygon>
                <polygon id="Fill-79" fill="#62443A" mask="url(#mask-2)" points="6.90721429 64.0207895 8.17221429 64.0207895 8.17221429 54.3386842 6.90721429 54.3386842"></polygon>
                <polygon id="Fill-80" fill="#62443A" mask="url(#mask-2)" points="9.06714286 64.0207895 10.3321429 64.0207895 10.3321429 54.3386842 9.06714286 54.3386842"></polygon>
                <polygon id="Fill-81" fill="#62443A" mask="url(#mask-2)" points="11.2278571 64.0207895 12.4920714 64.0207895 12.4920714 54.3386842 11.2278571 54.3386842"></polygon>
                <polygon id="Fill-82" fill="#62443A" mask="url(#mask-2)" points="13.387 64.0207895 14.652 64.0207895 14.652 54.3386842 13.387 54.3386842"></polygon>
                <polygon id="Fill-83" fill="#62443A" mask="url(#mask-2)" points="15.5335714 64.0207895 16.797 64.0207895 16.797 54.3386842 15.5335714 54.3386842"></polygon>
                <polygon id="Fill-84" fill="#0A3045" mask="url(#mask-2)" points="2.68557143 30.4215789 3.62371429 30.4215789 3.62371429 29.3644737 2.68557143 29.3644737"></polygon>
                <polygon id="Fill-85" fill="#0A3045" mask="url(#mask-2)" points="17.8490714 30.4215789 18.7864286 30.4215789 18.7864286 29.3644737 17.8490714 29.3644737"></polygon>
                <polygon id="Fill-86" fill="#0A3045" mask="url(#mask-2)" points="13.8560714 20.34 14.7934286 20.34 14.7934286 19.2836842 13.8560714 19.2836842"></polygon>
                <polygon id="Fill-87" fill="#0A3045" mask="url(#mask-2)" points="6.75085714 20.34 7.689 20.34 7.689 19.2836842 6.75085714 19.2836842"></polygon>
                <polygon id="Fill-88" fill="#6B4A41" mask="url(#mask-2)" points="1.81892857 119.210526 19.5548571 119.210526 19.5548571 108.514737 1.81892857 108.514737"></polygon>
                <polygon id="Fill-89" fill="#956F5C" mask="url(#mask-2)" points="1.81892857 119.210526 10.6016429 119.210526 10.6016429 108.514737 1.81892857 108.514737"></polygon>
            </g>
        </g>
    </g>
</svg>