<?xml version="1.0" encoding="UTF-8"?>
<svg width="120px" height="120px" viewBox="0 0 120 120" version="1.1" xmlns="http://www.w3.org/2000/svg" xmlns:xlink="http://www.w3.org/1999/xlink">
    <!-- Generator: Sketch 51.1 (57501) - http://www.bohemiancoding.com/sketch -->
    <title>Factory1</title>
    <desc>Created with Sketch.</desc>
    <defs></defs>
    <g id="Factory1" stroke="none" stroke-width="1" fill="none" fill-rule="evenodd">
        <g id="Page-1" transform="translate(0.000000, 29.000000)">
            <polygon id="Fill-1" fill="#B8B8B8" points="62.078521 0.000169398907 62.078521 15.1569672 71.1544874 19.1913716 71.1544874 0.000169398907"></polygon>
            <polygon id="Fill-2" fill="#E7E7E7" points="60.9263866 5.72195628 72.3065546 5.72195628 72.3065546 -2.84217094e-14 60.9263866 -2.84217094e-14"></polygon>
            <polygon id="Fill-3" fill="#8A8A8A" points="71.154521 5.7220918 62.0785546 5.7220918 64.4237647 8.08656175 71.154521 8.08656175"></polygon>
            <polygon id="Fill-4" fill="#B8B8B8" points="98.9782185 0.000169398907 98.9782185 15.1569672 108.054521 19.1913716 108.054521 0.000169398907"></polygon>
            <polygon id="Fill-5" fill="#E7E7E7" points="97.8262185 5.72195628 109.206723 5.72195628 109.206723 -2.84217094e-14 97.8262185 -2.84217094e-14"></polygon>
            <polygon id="Fill-6" fill="#8A8A8A" points="108.054454 5.7220918 98.9781513 5.7220918 101.324034 8.08656175 108.054454 8.08656175"></polygon>
            <polygon id="Fill-7" fill="#E7E7E7" points="82.7313277 28.3401661 45.7047731 4.17473443 45.7047731 28.3401661 8.67855462 4.17473443 8.67855462 61.9854995 31.0358655 61.9854995 31.0358655 26.123412 66.6163697 61.9854995 119.758218 61.9854995 119.758218 28.3401661 82.7313277 4.17473443"></polygon>
            <polygon id="Fill-8" fill="#CECECE" points="31.0359328 61.9854317 66.616437 61.9854317 31.0359328 26.1233443"></polygon>
            <polygon id="Fill-9" fill="#3A3A3A" points="8.67842017 0.000169398907 8.67842017 4.17483607 45.7049748 28.3402678 45.7049748 24.1652623"></polygon>
            <polygon id="Fill-10" fill="#ADADAD" points="8.67848739 4.17470055 8.67848739 7.33737814 45.7047059 31.5028098 45.7047059 28.3401322"></polygon>
            <polygon id="Fill-11" fill="#3A3A3A" points="12.2672269 22.474153 19.6722689 22.474153 19.6722689 20.9532896 12.2672269 20.9532896"></polygon>
            <path d="M12.267563,22.474153 L19.672605,22.474153 L19.672605,20.9532896 L12.267563,20.9532896 L12.267563,22.474153 Z M19.672605,19.940623 L12.2672269,19.940623 L11.2628571,19.940623 L11.2628571,20.9529508 L11.2628571,22.474153 L11.2628571,23.4858033 L12.2672269,23.4858033 L19.672605,23.4858033 L20.6766387,23.4858033 L20.6766387,22.474153 L20.6766387,20.9529508 L20.6766387,19.940623 L19.672605,19.940623 Z" id="Fill-12" fill="#FFFFFF"></path>
            <polygon id="Fill-13" fill="#3A3A3A" points="45.7048739 0.000169398907 45.7048739 4.17483607 82.7314286 28.3402678 82.7314286 24.1652623"></polygon>
            <polygon id="Fill-14" fill="#ADADAD" points="45.7048067 4.17470055 45.7048067 7.33737814 82.7313613 31.5028098 82.7313613 28.3401322"></polygon>
            <polygon id="Fill-15" fill="#3A3A3A" points="49.2937815 22.474153 56.6991597 22.474153 56.6991597 20.9532896 49.2937815 20.9532896"></polygon>
            <path d="M49.2937815,22.474153 L56.6991597,22.474153 L56.6991597,20.9532896 L49.2937815,20.9532896 L49.2937815,22.474153 Z M56.6991597,19.940623 L49.2937815,19.940623 L48.2897479,19.940623 L48.2897479,20.9529508 L48.2897479,22.474153 L48.2897479,23.4858033 L49.2937815,23.4858033 L56.6991597,23.4858033 L57.7028571,23.4858033 L57.7028571,22.474153 L57.7028571,20.9529508 L57.7028571,19.940623 L56.6991597,19.940623 Z" id="Fill-16" fill="#FFFFFF"></path>
            <polygon id="Fill-17" fill="#3A3A3A" points="82.7313277 0.000169398907 82.7313277 4.17483607 119.758218 28.3402678 119.758218 24.1652623"></polygon>
            <polygon id="Fill-18" fill="#ADADAD" points="82.7313277 7.33741202 119.758218 31.5028437 119.758218 28.3401661 82.7313277 4.17473443"></polygon>
            <polygon id="Fill-19" fill="#3A3A3A" points="86.3203361 22.474153 93.7257143 22.474153 93.7257143 20.9532896 86.3203361 20.9532896"></polygon>
            <path d="M86.3203361,22.474153 L93.7257143,22.474153 L93.7257143,20.9532896 L86.3203361,20.9532896 L86.3203361,22.474153 Z M93.7257143,19.940623 L86.3203361,19.940623 L85.3166387,19.940623 L85.3166387,20.9529508 L85.3166387,22.474153 L85.3166387,23.4858033 L86.3203361,23.4858033 L93.7257143,23.4858033 L94.7294118,23.4858033 L94.7294118,22.474153 L94.7294118,20.9529508 L94.7294118,19.940623 L93.7257143,19.940623 Z" id="Fill-20" fill="#FFFFFF"></path>
            <polygon id="Fill-21" fill="#3A3A3A" points="94.7294118 44.3482951 108.786555 44.3482951 108.786555 41.297082 94.7294118 41.297082"></polygon>
            <polygon id="Fill-22" fill="#5C5C5C" points="94.7297479 61.9854317 108.786891 61.9854317 108.786891 44.3482951 94.7297479 44.3482951"></polygon>
            <polygon id="Fill-23" fill="#CECECE" points="108.786857 61.9854317 119.758286 61.9854317 119.706521 52.3042842 108.786857 41.297082"></polygon>
            <polygon id="Fill-24" fill="#747474" points="64.9031933 53.1756721 72.5085714 53.1756721 72.5085714 42.6166995 64.9031933 42.6166995"></polygon>
            <polygon id="Fill-25" fill="#747474" points="73.8178151 53.1756721 81.4218487 53.1756721 81.4218487 42.6166995 73.8178151 42.6166995"></polygon>
            <path d="M78.2746218,53.1756721 L81.4218487,53.1756721 L81.4218487,42.6166995 L78.2746218,42.6166995 L78.2746218,53.1756721 Z M73.8178151,53.1756721 L76.9643697,53.1756721 L76.9643697,42.6166995 L73.8178151,42.6166995 L73.8178151,53.1756721 Z M69.36,53.1756721 L72.5085714,53.1756721 L72.5085714,42.6166995 L69.36,42.6166995 L69.36,53.1756721 Z M64.9031933,53.1756721 L68.0507563,53.1756721 L68.0507563,42.6166995 L64.9031933,42.6166995 L64.9031933,53.1756721 Z M73.8178151,41.297082 L72.5085714,41.297082 L63.5942857,41.297082 L63.5942857,54.4952896 L68.0507563,54.4952896 L69.36,54.4952896 L72.5085714,54.4952896 L73.8178151,54.4952896 L76.9643697,54.4952896 L78.2742857,54.4952896 L82.7314286,54.4952896 L82.7314286,41.297082 L73.8178151,41.297082 Z" id="Fill-26" fill="#FFFFFF"></path>
            <polygon id="Fill-27" fill="#575757" points="27.8766387 53.1756721 35.4820168 53.1756721 35.4820168 42.6166995 27.8766387 42.6166995"></polygon>
            <polygon id="Fill-28" fill="#575757" points="36.7909244 53.1756721 44.394958 53.1756721 44.394958 42.6166995 36.7909244 42.6166995"></polygon>
            <path d="M41.247395,53.1756721 L44.394958,53.1756721 L44.394958,42.6166995 L41.247395,42.6166995 L41.247395,53.1756721 Z M36.7912605,53.1756721 L39.937479,53.1756721 L39.937479,42.6166995 L36.7912605,42.6166995 L36.7912605,53.1756721 Z M32.3334454,53.1756721 L35.4820168,53.1756721 L35.4820168,42.6166995 L32.3334454,42.6166995 L32.3334454,53.1756721 Z M27.8766387,53.1756721 L31.0242017,53.1756721 L31.0242017,42.6166995 L27.8766387,42.6166995 L27.8766387,53.1756721 Z M36.7909244,41.297082 L35.4820168,41.297082 L26.567395,41.297082 L26.567395,54.4952896 L31.0242017,54.4952896 L32.3334454,54.4952896 L35.4820168,54.4952896 L36.7909244,54.4952896 L39.937479,54.4952896 L41.247395,54.4952896 L45.7048739,54.4952896 L45.7048739,41.297082 L36.7909244,41.297082 Z" id="Fill-29" fill="#E2E2E2"></path>
            <polygon id="Fill-30" fill="#3A3A3A" points="9.14957983 52.3944044 18.2981513 52.3944044 18.2981513 30.3610273 9.14957983 30.3610273"></polygon>
            <polygon id="Fill-31" fill="#747474" points="0 52.3944044 9.14957983 52.3944044 9.14957983 30.3610273 0 30.3610273"></polygon>
            <polygon id="Fill-32" fill="#3A3A3A" points="0 61.9854317 9.14957983 61.9854317 9.14957983 52.3944044 0 52.3944044"></polygon>
            <polygon id="Fill-33" fill="#000000" points="9.14957983 61.9854317 18.2981513 61.9854317 18.2981513 52.3944044 9.14957983 52.3944044"></polygon>
            <polygon id="Fill-34" fill="#ADADAD" points="17.0113613 26.123412 14.0453109 26.123412 12.7592605 26.123412 9.79152941 26.123412 8.50648739 26.123412 5.53909244 26.123412 4.25270588 26.123412 1.28665546 26.123412 -6.72268908e-05 26.123412 -6.72268908e-05 27.4196525 -6.72268908e-05 30.3610951 1.28665546 30.3610951 1.28665546 27.4196525 4.25270588 27.4196525 4.25270588 30.3610951 5.53909244 30.3610951 5.53909244 27.4196525 8.50648739 27.4196525 8.50648739 30.3610951 9.79152941 30.3610951 9.79152941 27.4196525 12.7592605 27.4196525 12.7592605 30.3610951 14.0453109 30.3610951 14.0453109 27.4196525 17.0113613 27.4196525 17.0113613 30.3610951 18.298084 30.3610951 18.298084 27.4196525 18.298084 26.123412"></polygon>
            <polygon id="Fill-35" fill="#3A3A3A" points="21.8870588 52.3944044 31.0359664 52.3944044 31.0359664 30.3610273 21.8870588 30.3610273"></polygon>
            <polygon id="Fill-36" fill="#747474" points="12.7378151 52.3944044 21.8870588 52.3944044 21.8870588 30.3610273 12.7378151 30.3610273"></polygon>
            <polygon id="Fill-37" fill="#3A3A3A" points="12.7378151 61.9854317 21.8870588 61.9854317 21.8870588 52.3944044 12.7378151 52.3944044"></polygon>
            <polygon id="Fill-38" fill="#000000" points="21.8870588 61.9854317 31.0359664 61.9854317 31.0359664 52.3944044 21.8870588 52.3944044"></polygon>
            <polygon id="Fill-39" fill="#ADADAD" points="29.7492437 26.123412 26.7835294 26.123412 25.4968067 26.123412 22.5294118 26.123412 21.2443697 26.123412 18.2769748 26.123412 16.9902521 26.123412 14.0245378 26.123412 12.7381513 26.123412 12.7381513 27.4196525 12.7381513 30.3610951 14.0245378 30.3610951 14.0245378 27.4196525 16.9902521 27.4196525 16.9902521 30.3610951 18.2769748 30.3610951 18.2769748 27.4196525 21.2443697 27.4196525 21.2443697 30.3610951 22.5294118 30.3610951 22.5294118 27.4196525 25.4968067 27.4196525 25.4968067 30.3610951 26.7835294 30.3610951 26.7835294 27.4196525 29.7492437 27.4196525 29.7492437 30.3610951 31.0359664 30.3610951 31.0359664 27.4196525 31.0359664 26.123412"></polygon>
        </g>
    </g>
</svg>