<?xml version="1.0" encoding="UTF-8"?>
<svg width="120px" height="120px" viewBox="0 0 120 120" version="1.1" xmlns="http://www.w3.org/2000/svg" xmlns:xlink="http://www.w3.org/1999/xlink">
    <!-- Generator: Sketch 51.1 (57501) - http://www.bohemiancoding.com/sketch -->
    <title>Historic building33</title>
    <desc>Created with Sketch.</desc>
    <defs>
        <polygon id="path-1" points="0.0991111111 0.387290323 117.133185 0.387290323 117.133185 8.94566452 0.0991111111 8.94566452"></polygon>
        <polygon id="path-3" points="0 1.12160833 118.559259 1.12160833 118.559259 7.30658065 0 7.30658065"></polygon>
    </defs>
    <g id="Historic-building33" stroke="none" stroke-width="1" fill="none" fill-rule="evenodd">
        <g id="Page-1" transform="translate(0.000000, 14.000000)">
            <polygon id="Fill-1" fill="#281407" points="28.484 89.9647226 91.6306667 90.3253032 91.881037 46.4145935 28.7328889 46.0554968"></polygon>
            <g id="Group-112" transform="translate(0.000000, 1.096581)">
                <path d="M5.04562963,11.797071 C5.04562963,11.797071 17.1463704,39.3199097 19.7819259,42.6289419 L99.5819259,42.0621032 C99.5819259,42.0621032 115.614519,12.5375226 114.783407,10.6752645 C114.783407,10.6752645 20.138963,7.93010323 5.04562963,11.797071" id="Fill-2" fill="#381816"></path>
                <polygon id="Fill-4" fill="#1D347C" points="27.8928889 1.17092258 90.6884444 1.47066452 92.5402963 7.48776129 25.566963 7.58272903"></polygon>
                <g id="Group-8" transform="translate(1.481481, 0.000000)">
                    <mask id="mask-2" fill="white">
                        <use xlink:href="#path-1"></use>
                    </mask>
                    <g id="Clip-7"></g>
                    <path d="M0.0991111111,1.07818065 C0.0991111111,1.07818065 12.6813333,7.85353548 59.4798519,5.77018065 C59.4798519,5.77018065 108.962815,9.36263226 117.133185,0.386696774 L113.607259,8.8699871 L59.0265185,7.61314839 L3.49762963,8.94566452 L0.0991111111,1.07818065 Z" id="Fill-6" fill="#112760" mask="url(#mask-2)"></path>
                </g>
                <path d="M5.04562963,11.797071 L18.8174815,23.7125548 L100.635259,24.1784903 L114.430815,11.9306194 C114.430815,11.9306194 80.8174815,4.10171613 5.04562963,11.797071" id="Fill-9" fill="#51211C"></path>
                <g id="Group-13" transform="translate(0.000000, 5.935484)">
                    <mask id="mask-4" fill="white">
                        <use xlink:href="#path-3"></use>
                    </mask>
                    <g id="Clip-12"></g>
                    <path d="M-0.000740740741,3.58354839 C-0.000740740741,3.58354839 82.9444444,-1.49425806 118.559259,2.93509677 L118.091111,7.04987097 C118.091111,7.04987097 68.9222222,-0.692967742 0.987407407,7.30658065 L-0.000740740741,3.58354839 Z" id="Fill-11" fill="#125E51" mask="url(#mask-4)"></path>
                </g>
                <polygon id="Fill-14" fill="#FF1200" points="100.624296 26.1879484 18.805037 25.7234968 18.8168889 23.7128516 100.636148 24.1787871"></polygon>
                <polygon id="Fill-16" fill="#FF1200" points="96.4591111 29.8121548 27.7642963 29.4204129 27.7746667 27.6664774 96.4694815 28.0567355"></polygon>
                <polygon id="Fill-18" fill="#FF1200" points="96.4445926 32.4277742 27.7482963 32.0360323 27.7586667 30.2820968 96.454963 30.6723548"></polygon>
                <polygon id="Fill-20" fill="#FF1200" points="40.8037037 34.0405935 39.0911111 34.0302065 39.1444444 24.6180129 40.857037 24.6284"></polygon>
                <polygon id="Fill-22" fill="#FF1200" points="80.2293333 34.2652516 78.5167407 34.2548645 78.5700741 24.842671 80.2826667 24.8530581"></polygon>
                <polygon id="Fill-24" fill="#FF1200" points="89.5841481 35.8650129 30.7722963 35.5296581 30.7841481 33.2578516 89.5974815 33.5932065"></polygon>
                <polygon id="Fill-26" fill="#9B0700" points="63.936 34.626129 56.4841481 34.5845806 56.5597037 21.3113548 64.0115556 21.355871"></polygon>
                <polygon id="Fill-28" fill="#FFCE00" points="63.1894815 33.8146 57.2887407 33.780471 57.3539259 22.4318258 63.2546667 22.4659548"></polygon>
                <polygon id="Fill-30" fill="#FF1200" points="100.340741 37.9980774 19.0533333 37.5351097 19.0577778 36.6299484 100.345185 37.0944"></polygon>
                <polygon id="Fill-32" fill="#FF1200" points="100.330667 39.7066065 19.0432593 39.2436387 19.0491852 38.3384774 100.336593 38.802929"></polygon>
                <polygon id="Fill-34" fill="#FF1200" points="100.319111 41.6107097 19.0331852 41.1477419 19.0376296 40.2425806 100.325037 40.7070323"></polygon>
                <polygon id="Fill-36" fill="#FF1200" points="25.0355556 40.4963226 24.162963 40.491871 24.1822222 37.2703871 25.0548148 37.2748387"></polygon>
                <polygon id="Fill-38" fill="#FF1200" points="33.7912593 40.547071 32.9186667 40.5411355 32.9364444 37.3196516 33.809037 37.3255871"></polygon>
                <polygon id="Fill-40" fill="#FF1200" points="43.8404444 40.6036065 42.9678519 40.5991548 42.9856296 37.377671 43.8597037 37.3821226"></polygon>
                <polygon id="Fill-42" fill="#FF1200" points="52.5948148 40.6543548 51.7222222 40.6484194 51.7414815 37.4269355 52.6140741 37.432871"></polygon>
                <polygon id="Fill-44" fill="#FF1200" points="63.6336296 40.7166774 62.7595556 40.7122258 62.7788148 37.4892581 63.6514074 37.4951935"></polygon>
                <polygon id="Fill-46" fill="#FF1200" points="72.3878519 40.7659419 71.5152593 40.7614903 71.533037 37.5400065 72.4071111 37.5444581"></polygon>
                <polygon id="Fill-48" fill="#FF1200" points="82.4371852 40.8238129 81.5645926 40.8178774 81.5838519 37.5963935 82.4564444 37.602329"></polygon>
                <polygon id="Fill-50" fill="#FF1200" points="91.1914074 40.8730774 90.3188148 40.8686258 90.3380741 37.6471419 91.2106667 37.6515935"></polygon>
                <polygon id="Fill-52" fill="#FF1200" points="100.287259 47.2390323 18.9998519 46.7760645 19.0102222 45.1156129 100.29763 45.5800645"></polygon>
                <polygon id="Fill-54" fill="#FF1200" points="100.269926 50.3734129 18.9825185 49.9104452 18.9928889 48.2514774 100.280296 48.7144452"></polygon>
                <polygon id="Fill-56" fill="#FF1200" points="100.24963 53.8671871 18.9622222 53.4042194 18.9725926 51.7437677 100.26 52.2082194"></polygon>
                <polygon id="Fill-58" fill="#FF1200" points="24.9688889 52.1803226 24.0962963 52.175871 24.1303704 46.2670968 25.002963 46.2715484"></polygon>
                <polygon id="Fill-60" fill="#FF1200" points="33.7247407 52.231071 32.8521481 52.2251355 32.8862222 46.3163613 33.7573333 46.3208129"></polygon>
                <polygon id="Fill-62" fill="#FF1200" points="43.7739259 52.2876065 42.9013333 52.2831548 42.9354074 46.3743806 43.8065185 46.3788323"></polygon>
                <polygon id="Fill-64" fill="#FF1200" points="52.5297778 52.3383548 51.6557037 52.3324194 51.6897778 46.4236452 52.5623704 46.4280968"></polygon>
                <polygon id="Fill-66" fill="#FF1200" points="63.566963 52.4006774 62.6928889 52.3962258 62.7284444 46.4859677 63.5995556 46.4919032"></polygon>
                <polygon id="Fill-68" fill="#FF1200" points="72.3213333 52.4514258 71.4487407 52.4454903 71.4828148 46.5367161 72.3539259 46.5411677"></polygon>
                <polygon id="Fill-70" fill="#FF1200" points="82.3705185 52.5078129 81.4979259 52.5033613 81.532 46.5931032 82.4031111 46.5990387"></polygon>
                <polygon id="Fill-72" fill="#FF1200" points="91.1263704 52.5585613 90.2522963 52.5526258 90.2878519 46.6438516 91.158963 46.6483032"></polygon>
                <polygon id="Fill-74" fill="#125E51" points="106.968296 45.7260774 16.9668148 45.2141419 16.9845926 42.1158194 106.986074 42.6292387"></polygon>
                <polygon id="Fill-76" fill="#51211C" points="93.4874074 56.1799484 26.6637037 55.7985935 26.6785185 53.0089161 93.5037037 53.3887871"></polygon>
                <polygon id="Fill-78" fill="#FF1200" points="30.9382222 90.1668258 27.9871111 90.1490194 28.1826667 55.8077935 31.1322963 55.8241161"></polygon>
                <polygon id="Fill-80" fill="#FF1200" points="46.4084444 90.2537806 43.4573333 90.2374581 43.6528889 55.8962323 46.604 55.9125548"></polygon>
                <polygon id="Fill-82" fill="#FF1200" points="76.8714074 90.4276903 73.9217778 90.4113677 74.1158519 56.0701419 77.066963 56.0849806"></polygon>
                <polygon id="Fill-84" fill="#FF1200" points="92.3416296 90.516129 89.392 90.4983226 89.5860741 56.1585806 92.5371852 56.1734194"></polygon>
                <polygon id="Fill-86" fill="#FF1200" points="44.3917037 61.5836129 30.1842963 61.5034839 30.1991111 59.0343226 44.405037 59.1159355"></polygon>
                <polygon id="Fill-88" fill="#FF1200" points="44.0647407 80.2290452 30.1625185 80.1489161 30.1743704 77.9720774 44.0765926 78.0522065"></polygon>
                <polygon id="Fill-90" fill="#125E51" points="44.0082963 90.0466323 30.1060741 89.9665032 30.1668148 79.4399226 44.069037 79.5170839"></polygon>
                <polygon id="Fill-92" fill="#FF1200" points="44.0082963 90.0466323 30.1060741 89.9665032 30.1194074 87.7896645 44.0216296 87.8683097"></polygon>
                <polygon id="Fill-94" fill="#FF1200" points="90.7776296 61.8487806 76.5717037 61.7671677 76.5865185 59.2980065 90.7924444 59.3796194"></polygon>
                <polygon id="Fill-96" fill="#FF1200" points="90.4506667 80.492729 76.5484444 80.4140839 76.5617778 78.2357613 90.464 78.3158903"></polygon>
                <polygon id="Fill-98" fill="#125E51" points="90.3957037 90.3103161 76.4934815 90.2301871 76.5527407 79.7036065 90.454963 79.7822516"></polygon>
                <polygon id="Fill-100" fill="#FF1200" points="90.3957037 90.3103161 76.4934815 90.2301871 76.5053333 88.0533484 90.4075556 88.1334774"></polygon>
                <polygon id="Fill-102" fill="#FF1200" points="76.4937778 90.2306323 46.3797037 90.0599871 46.393037 87.8831484 76.5056296 88.0537935"></polygon>
                <polygon id="Fill-104" fill="#C4A8A5" points="74.1992593 76.1614581 46.5814815 76.0041677 46.6288889 67.8117161 74.2466667 67.9690065"></polygon>
                <polygon id="Fill-106" fill="#FF1200" points="54.6333333 89.7538645 53.3222222 89.7464452 53.4481481 67.4364452 54.7592593 67.4438645"></polygon>
                <polygon id="Fill-108" fill="#FF1200" points="66.5545185 89.8219742 65.2434074 89.8145548 65.3708148 67.5045548 66.6819259 67.5119742"></polygon>
                <polygon id="Fill-110" fill="#51211C" points="74.0487407 67.9682645 46.628 67.8124581 46.668 60.9436194 74.0872593 61.0994258"></polygon>
            </g>
        </g>
    </g>
</svg>