<?xml version="1.0" encoding="UTF-8"?>
<svg width="120px" height="120px" viewBox="0 0 120 120" version="1.1" xmlns="http://www.w3.org/2000/svg" xmlns:xlink="http://www.w3.org/1999/xlink">
    <!-- Generator: Sketch 51.1 (57501) - http://www.bohemiancoding.com/sketch -->
    <title>Krack</title>
    <desc>Created with Sketch.</desc>
    <defs>
        <polygon id="path-1" points="0.0642728822 0.166032609 11.452891 0.166032609 11.452891 17.3949293 0.0642728822 17.3949293"></polygon>
    </defs>
    <g id="Krack" stroke="none" stroke-width="1" fill="none" fill-rule="evenodd">
        <g id="Group" transform="translate(0.000000, 13.000000)">
            <path d="M110.763013,37.1952636 C110.035864,36.1444049 105.855779,36.1043016 100.918928,34.1106332 C103.692715,29.3199538 105.700034,24.4186712 106.44914,18.8823777 C106.582928,17.8652364 105.594843,17.0033995 104.526332,17.4340625 C99.3908426,19.7398723 93.9359489,21.5529484 89.7839489,21.4374918 C88.2525447,18.9605408 88.6105021,15.1484321 87.1005447,14.8444647 C85.6888851,14.5599103 83.7229277,18.111731 79.1241191,20.7069484 C72.6678638,16.2038886 72.5996936,12.3700679 71.194417,12.025231 C69.7350128,11.6671114 66.3650553,21.6880734 59.5536511,25.8664755 C56.3465872,24.9836929 50.7313532,18.6685788 49.3069277,17.7916712 C47.2819915,16.5446386 48.8396936,25.7400353 45.1337362,32.4102038 C42.5772255,32.4840245 36.3525447,29.9227799 31.3817362,28.2800788 C30.3489702,27.9385625 29.2112681,27.766144 29.7259915,30.0017092 C30.3796085,32.2081549 31.288034,37.9413886 30.6058213,41.0203995 C24.9272681,42.0265571 20.020034,36.6496549 21.1886298,40.7021277 C21.8289702,42.9233886 22.5916085,48.514856 21.8118638,48.6065571 C15.5802894,49.2737527 7.33118298,51.5200462 5.61211915,52.9609538 C2.57254468,55.507894 9.50497021,54.8843777 12.7350128,60.2347147 C11.2020766,63.0741277 7.89186383,67.8295571 7.77160851,68.6507799 C7.37075745,71.3852092 13.775183,69.6620462 17.980034,72.087144 C17.5350128,74.2437799 15.1150979,84.687231 15.9962043,86.8952092 C16.9046298,89.1718995 24.1482894,81.1456277 30.1715234,80.1639918 C35.5983319,84.1066277 35.3583319,92.1776005 37.5453957,89.4056223 C39.8823319,86.4446223 41.6736511,82.7819429 42.8422468,80.600019 C45.4125447,83.4833668 47.1402894,92.2897364 49.2293106,90.1073016 C52.7343319,86.4446223 55.1488851,80.5221114 56.7247149,76.0716712 C60.5233532,76.6257092 64.1082894,82.544644 65.2745872,80.210481 C66.443183,77.8727418 66.6579064,74.7500516 67.0214809,72.6220245 C71.494417,75.4777853 79.996034,79.2753342 80.6971404,77.560856 C81.1355234,76.4887962 79.762417,71.1711549 81.3568851,65.9464918 C86.3830979,66.339606 88.9613106,69.6896332 89.6545021,68.3657147 C90.5113532,66.729144 90.5889702,63.9967582 89.878417,58.8880625 C97.0541617,59.0145027 102.671694,57.4795951 104.06446,56.1314103 C106.002332,54.2549864 99.7802043,51.2219538 98.7310979,47.077269 C100.309991,46.188356 112.107523,39.1381005 110.763013,37.1952636" id="Fill-1" fill="#000000"></path>
            <path d="M21.8816426,48.596544 L21.8900681,48.59731 L21.8678553,48.5998632 C21.8701532,48.5988419 21.8767915,48.5962887 21.8816426,48.596544" id="Fill-3" fill="#FF0000"></path>
            <path d="M97.302766,45.8618337 L97.2825957,45.8728174 C96.9527234,46.056475 96.7701702,46.442437 96.8602979,46.8286543 C97.4952766,49.5467359 98.9485532,52.5146326 100.303787,54.961187 C82.6908511,60.37385 89.7682979,52.3230565 88.0819149,64.8544315 C81.3192766,63.8150674 80.1894894,63.8357576 79.9395319,64.6582576 C79.7370638,65.324687 78.018,70.1317141 77.7282128,74.2217359 C69.8674468,72.2832413 66.2294043,70.1917413 66.4630213,70.2180511 C65.970766,70.1626217 65.526766,70.5166543 65.4711064,71.0091326 C65.3054043,72.4827359 65.1997021,73.913937 63.725234,76.9829859 C60.7155319,74.8319696 55.9101702,73.4582413 55.3609787,74.7913554 L55.3454043,74.8289043 C53.6677021,78.899513 51.0614043,83.120062 48.749234,86.0120946 C47.3429362,83.0871109 42.1431064,75.3722141 41.375617,78.1717793 L41.3521277,78.2568391 C40.9755319,79.6308228 40.686,81.1560239 37.127617,85.2626489 C37.1023404,85.2217793 37.0778298,85.1788663 37.0520426,85.1392739 C35.5420851,82.779312 32.7312766,79.9156326 31.1613191,78.6826489 C29.3911915,77.542388 19.2534894,83.1915837 18.1548511,83.8460076 C18.2028511,80.0341543 19.3415745,74.315225 19.8121277,71.8538554 L19.8220851,71.8022576 C20.1154468,70.2471707 12.2130638,68.1863228 11.0682128,67.9206707 C12.3833617,65.44985 12.9698298,63.6883717 14.4777447,60.6946761 L14.4981702,60.6543174 C15.1842128,59.2795674 10.7457447,55.0281109 9.48114894,53.9690783 C15.852383,51.1567413 23.0207234,49.9513446 22.7868511,50.0839152 C24.3698298,49.1845293 23.9554468,44.4950022 23.9822553,42.625475 C23.9878723,42.6267522 23.9934894,42.6280293 23.9993617,42.629562 C25.8197872,43.058437 31.8453191,43.3685348 32.1141702,42.2696543 L32.2180851,41.8453772 C32.8208936,39.4889913 33.1206383,34.3762087 32.7557872,31.6052522 L32.7453191,31.5268337 C34.5070213,32.0990076 45.5191915,35.3741924 46.4038723,33.7404315 C47.9592766,30.8680674 49.3545957,26.0899043 49.9801277,23.0686217 C49.9959574,22.9935239 50.0094894,22.9168935 50.0237872,22.8410293 C50.0485532,22.8604424 50.0728085,22.8803663 50.0973191,22.9000348 C52.385234,24.6929315 56.7769787,27.0592793 59.5967234,27.6838174 C60.4581702,27.8695185 67.0791064,21.6455946 67.6214043,21.1239967 C69.5528936,19.2861435 70.6614894,17.8733337 71.5410638,16.5693391 C78.5863404,23.1194533 79.0928936,22.7434533 79.5322979,22.4910837 C79.7661702,22.356725 84.9912766,19.3290565 86.1994468,18.5464043 C86.5768085,19.4943228 88.2289787,23.2742467 89.2857447,23.2188174 C94.6030213,22.9391163 99.3504255,22.0537793 103.329574,20.8100674 C101.075872,33.305937 97.3630213,34.3378935 99.2717872,35.2656326 C99.2717872,35.2656326 102.435191,36.7471543 106.313489,38.6240891 C102.826596,41.783562 100.057915,44.3299913 97.302766,45.8618337" id="Fill-5" fill="#8A0000"></path>
            <path d="M14.2413957,70.9069332 C34.2811404,63.5843842 35.8158638,64.7565745 22.0339915,77.0989277 C40.1312681,65.8595418 42.5322894,66.0179114 34.8660766,77.8746832 C47.5988426,65.6383353 50.1323745,65.2242755 48.5379064,75.5698951 C54.5580766,64.110069 56.3389277,63.5731451 58.211183,72.6318842 C59.8150979,62.341694 61.4994383,61.6696451 67.367183,68.9600092 C65.6596085,59.8067592 67.8543319,58.6659875 79.3485447,62.7835962 C71.9928,56.2010418 73.8757787,54.8709929 89.6376511,55.5910636 C77.1196085,52.1718136 78.4608,50.8029386 96.976034,48.1931614 C80.9478638,47.6472973 81.8363745,45.8947592 101.893226,38.8026125 C82.5499915,42.9043842 82.4897362,41.6302755 101.616715,31.9692212 C81.2208,38.3928951 78.4549277,37.0224875 88.1876936,24.5585473 C72.1156085,36.0868299 69.094417,36.080444 72.2289702,24.5424549 C63.5514383,36.7287375 61.1159489,37.2048679 59.1510128,27.1443136 C56.8564596,38.4036234 55.0278638,39.0383788 49.2693957,30.6064766 C51.2902468,40.6266723 49.4202894,41.5825092 39.1273532,35.7608951 C45.9145021,43.6806505 44.279183,44.8239766 30.2657362,41.9355201 C41.1586723,47.3525255 39.7043745,48.751031 22.4065021,49.4843842 C36.7973106,52.1161288 35.5230128,54.1097973 15.6267574,60.1704984 C33.9093957,58.1162918 33.6198638,60.1247755 14.2413957,70.9069332" id="Fill-7" fill="#FF5500"></path>
            <path d="M57.6764426,20.9327527 C57.6764426,20.9327527 57.6897191,20.0985027 57.709634,18.8473832 C57.7249532,17.5967745 57.7295489,15.9300625 57.7126979,14.2643723 C57.6843574,10.932481 57.5411234,7.60825272 57.5411234,7.60825272 C57.5132936,6.9655788 58.0114213,6.42226902 58.6538043,6.39468207 C59.2959319,6.36683967 59.8389957,6.86519293 59.8668255,7.50761141 C59.8681021,7.54081793 59.8681021,7.57376902 59.8668255,7.60620924 L59.8665702,7.61285054 C59.8665702,7.61285054 59.7202723,10.9738614 59.4585702,14.322356 C59.3304,15.9969864 59.180783,17.6688071 59.0566979,18.9209484 C58.928017,20.1718125 58.8422298,21.0058071 58.8422298,21.0058071 C58.8092936,21.3268886 58.5220596,21.5606114 58.2008681,21.5274049 C57.8975489,21.4962418 57.6723574,21.2382527 57.6764426,20.9388832 L57.6764426,20.9327527 Z" id="Fill-9" fill="#FF0000"></path>
            <path d="M59.3671915,21.6673832 C59.3671915,21.6673832 59.4797872,21.2017255 59.6490638,20.502856 C59.8229362,19.8039864 60.0693191,18.8747147 60.3358723,17.9500408 C60.863617,16.0994158 61.4985957,14.2761223 61.4985957,14.2761223 L61.5008936,14.2689701 C61.692383,13.7192745 62.2931489,13.4285897 62.8428511,13.6201658 C63.3925532,13.8117418 63.6828511,14.4130353 63.4913617,14.962731 C63.4791064,14.997981 63.4645532,15.033231 63.4489787,15.0661821 C63.4489787,15.0661821 62.6480426,16.7625245 61.9428511,18.5068886 C61.5882128,19.3776658 61.2517021,20.2571277 61.0096596,20.9210027 C60.7709362,21.5876875 60.6118723,22.0323995 60.6118723,22.0323995 L60.6095745,22.0390408 C60.4888085,22.3767255 60.1170638,22.5527201 59.7795319,22.431644 C59.4647234,22.3192527 59.291617,21.985144 59.3671915,21.6673832" id="Fill-11" fill="#FF0000"></path>
            <path d="M18.7877872,45.4517587 C18.7877872,45.4517587 18.7328936,45.4451174 18.6302553,45.4323457 C18.5789362,45.4259598 18.515617,45.4182967 18.4410638,45.4091011 C18.3560426,45.3930087 18.2582553,45.3741065 18.1489787,45.3531609 C18.0351064,45.3327261 17.9204681,45.303862 17.7986809,45.2704 C17.6748511,45.239237 17.5418298,45.2027098 17.4042128,45.1551989 C17.2642979,45.1112641 17.1169787,45.0614543 16.9663404,45.0006609 C16.8128936,44.9447207 16.6558723,44.8777967 16.4942553,44.8049978 C16.1682128,44.6624652 15.8299149,44.484938 15.4780851,44.2867207 C15.1321277,44.081862 14.7695745,43.8596337 14.4154468,43.6031772 C14.0577447,43.3508076 13.7015745,43.0728946 13.3530638,42.7742913 C13.0007234,42.4790087 12.665234,42.1543511 12.3343404,41.823563 C11.6830213,41.1515141 11.0809787,40.4225033 10.5928085,39.6679489 C10.343617,39.2950141 10.1301702,38.9105848 9.93740426,38.53765 C9.75331915,38.1580739 9.58812766,37.7907587 9.4673617,37.4305957 C9.33919149,37.0750304 9.24957447,36.7307043 9.18548936,36.418563 C9.14821277,36.2647913 9.13161702,36.1122967 9.11042553,35.9741065 C9.08744681,35.8361717 9.07697872,35.7059 9.07008511,35.5871228 C9.04889362,35.351612 9.0527234,35.1610576 9.05578723,35.0307859 C9.05859574,34.901025 9.05987234,34.8318022 9.05987234,34.8318022 C9.0726383,34.188362 9.60395745,33.6774924 10.2468511,33.6902641 C10.8897447,33.7030359 11.4006383,34.2345957 11.3881277,34.8777804 C11.3873617,34.9058783 11.3858298,34.9332098 11.3832766,34.9607967 L11.3758723,35.0410033 C11.3758723,35.0410033 11.3720426,35.0818728 11.3648936,35.1587587 C11.3559574,35.2353891 11.3421702,35.3480359 11.3442128,35.4987424 C11.3411489,35.5728185 11.3398723,35.6560902 11.3485532,35.7493239 C11.3557021,35.8420467 11.3549362,35.9416663 11.3735745,36.0512478 C11.3993617,36.2688783 11.4407234,36.5192043 11.5155319,36.7940522 C11.5811489,37.0694109 11.6878723,37.3677587 11.8086383,37.6824543 C11.939617,37.9951065 12.0869362,38.32615 12.2717872,38.6579598 C12.6294894,39.3269435 13.1023404,40.0084435 13.6290638,40.6506065 C13.8981702,40.9665793 14.172383,41.281275 14.4647234,41.5696609 C14.7534894,41.8613674 15.0509362,42.1359598 15.3506809,42.3860304 C15.6473617,42.6412098 15.9514468,42.8626717 16.2417447,43.0695739 C16.536383,43.2685576 16.8200426,43.4488946 17.0904255,43.594237 C17.2247234,43.6690793 17.3549362,43.7375359 17.4808085,43.7952641 C17.6056596,43.858612 17.7256596,43.9102098 17.8392766,43.9564435 C17.952383,44.0067641 18.0593617,44.0450793 18.1589362,44.0790522 C18.2590213,44.1160902 18.3496596,44.1472533 18.4249787,44.1666663 C18.5033617,44.1894 18.5735745,44.2098348 18.6343404,44.2274598 C18.7081277,44.2427859 18.7704255,44.2555576 18.821234,44.2660304 C18.9225957,44.2869761 18.9764681,44.2982152 18.9764681,44.2982152 C19.2928085,44.3633511 19.4965532,44.6724272 19.4314468,44.9889109 C19.3701702,45.2885359 19.086,45.4870087 18.7877872,45.4517587" id="Fill-13" fill="#FF0000"></path>
            <path d="M17.2729532,46.7102092 C17.2729532,46.7102092 17.1506553,46.7194049 16.9361872,46.7352418 C16.8825702,46.7390734 16.8233362,46.7436712 16.7587404,46.748269 C16.6867404,46.7492908 16.6086128,46.7503125 16.5253787,46.7515897 C16.3589106,46.7531223 16.1664,46.758231 15.9723574,46.7454592 C15.5761021,46.7331984 15.1157617,46.6884973 14.6270809,46.607269 C14.3822298,46.5679321 14.132017,46.5127582 13.8777191,46.4552853 C13.6252085,46.3904049 13.3673362,46.3260353 13.1148255,46.2409755 C12.8587404,46.1663886 12.6108255,46.0647255 12.3629106,45.9737908 C12.1206128,45.8665082 11.8778043,45.7707201 11.6518468,45.6504103 C11.4220596,45.5408288 11.2068255,45.4141332 11.0023149,45.2938234 C10.7993362,45.1696821 10.6109106,45.0417092 10.4388255,44.9183342 C10.2713362,44.7849973 10.1107404,44.6761821 9.98129362,44.5517853 C9.85057021,44.4301984 9.73133617,44.3338995 9.64325106,44.2353016 C9.46401702,44.0427038 9.36163404,43.9326114 9.36163404,43.9326114 C8.96486809,43.5057799 8.98886809,42.8383288 9.41550638,42.4411277 C9.84188936,42.0439266 10.5095489,42.0681929 10.9063149,42.4950245 C10.9310809,42.5218451 10.9543149,42.5494321 10.9757617,42.5777853 L11.0194213,42.635769 C11.0194213,42.635769 11.0766128,42.7118886 11.1769532,42.8449701 C11.223166,42.9139375 11.3028255,42.9885245 11.3806979,43.0807364 C11.456017,43.1749918 11.5698894,43.2659266 11.677634,43.3755082 C11.7948255,43.4789592 11.9260596,43.5900734 12.0718468,43.7022092 C12.2209532,43.8110245 12.3777191,43.9285245 12.5538894,44.0355516 C12.723166,44.1512636 12.915166,44.2488397 13.1038468,44.3589321 C13.3014638,44.4539538 13.4978043,44.5617473 13.7066553,44.6457853 C13.9109106,44.7397853 14.1233362,44.8159049 14.3319319,44.8938125 C14.5425702,44.9643125 14.7514213,45.0345571 14.9564426,45.0892201 C15.3664851,45.2018668 15.7573787,45.2815625 16.0944,45.3267745 C16.2659745,45.3564049 16.4107404,45.3656005 16.5429957,45.379394 C16.6088681,45.3860353 16.6706553,45.3921658 16.7278468,45.3977853 C16.7924426,45.3998288 16.8519319,45.4016168 16.9058043,45.4031495 C17.1205277,45.4092799 17.2430809,45.412856 17.2430809,45.412856 C17.6018043,45.4228179 17.8841872,45.7219321 17.8739745,46.0805625 C17.8645277,46.4156929 17.5995064,46.6844103 17.2729532,46.7102092" id="Fill-15" fill="#FF0000"></path>
            <path d="M89.607166,15.5249685 C89.607166,15.5249685 89.6998468,15.3663435 89.8622298,15.0889413 C89.9462298,14.9494739 90.037634,14.7824196 90.1392511,14.5923761 C90.2434213,14.4030989 90.3585702,14.1872565 90.4783149,13.944338 C90.6024,13.7049957 90.7275064,13.4406207 90.8584851,13.1604087 C90.9917617,12.8817293 91.1186553,12.5805717 91.2547404,12.2720065 C91.5182298,11.6500228 91.7789106,10.9772076 92.0250383,10.2980065 C92.5121872,8.93679457 92.9349957,7.54671848 93.2426553,6.49483804 C93.548017,5.44014783 93.7512511,4.73668043 93.7512511,4.73668043 L93.7525277,4.73208261 C93.9049532,4.20588696 94.4546553,3.90243043 94.9806128,4.054925 C95.5068255,4.2069087 95.8098894,4.75737065 95.6574638,5.28331087 C95.6495489,5.31115326 95.6398468,5.33976196 95.629634,5.36607174 C95.629634,5.36607174 95.3630809,6.05395761 94.9635064,7.08540326 C94.5598468,8.11787065 94.004017,9.49747391 93.3787404,10.8543435 C93.0636766,11.5317565 92.732783,12.2030391 92.4029106,12.8232348 C92.233634,13.1312891 92.0745702,13.4309141 91.9104,13.7088272 C91.748783,13.9875065 91.5948255,14.2503489 91.4436766,14.4879033 C91.2981447,14.7272457 91.1559319,14.945387 91.0267404,15.1377293 C90.8993362,15.3321152 90.788017,15.4984033 90.6943149,15.6261207 C90.5081872,15.8887076 90.4019745,16.0383924 90.4019745,16.0383924 C90.2508255,16.2516804 89.955166,16.3020011 89.7417191,16.1505283 C89.5405277,16.0077402 89.485634,15.7341696 89.607166,15.5249685" id="Fill-17" fill="#FF0000"></path>
            <g id="Group-21" transform="translate(91.404255, 0.089402)">
                <mask id="mask-2" fill="white">
                    <use xlink:href="#path-1"></use>
                </mask>
                <g id="Clip-20"></g>
                <path d="M0.320885106,16.0222745 C0.320885106,16.0222745 0.529480851,15.8319755 0.894587234,15.4986332 C0.984204255,15.4153614 1.0901617,15.3231495 1.19331064,15.2225082 C1.29390638,15.1223777 1.40267234,15.0135625 1.51909787,14.8975951 C1.6355234,14.7818832 1.75935319,14.6585082 1.88982128,14.5287473 C2.01722553,14.3918342 2.15075745,14.2482799 2.29067234,14.0980842 C2.57458723,13.8017799 2.86386383,13.4643505 3.16667234,13.1052092 C3.47535319,12.7514321 3.76973617,12.3519321 4.08582128,11.9503886 C4.3835234,11.5337745 4.70139574,11.1115408 4.98990638,10.6586549 C5.29424681,10.2164973 5.56590638,9.74343207 5.8500766,9.27981793 C6.11075745,8.80164402 6.38471489,8.33215489 6.61526809,7.84912772 C6.8634383,7.37504076 7.06999149,6.89099185 7.28088511,6.42865489 C7.47058723,5.95712228 7.66845957,5.50730163 7.81960851,5.06693207 C7.97867234,4.62988315 8.12522553,4.21582337 8.23909787,3.8267962 C8.29884255,3.63317663 8.35603404,3.44773098 8.41041702,3.27148098 C8.45790638,3.0931875 8.50284255,2.92434511 8.54522553,2.76546467 C8.63228936,2.44821467 8.70428936,2.17106793 8.75101277,1.93989946 C8.85339574,1.48011685 8.91186383,1.21752989 8.91186383,1.21752989 L8.92284255,1.16848641 C9.0768,0.478046196 9.76105532,0.0427853261 10.451183,0.1968125 C11.1410553,0.350584239 11.5758638,1.03540489 11.4219064,1.72558967 C11.4173106,1.74679076 11.4109277,1.77182337 11.4053106,1.79251359 C11.4053106,1.79251359 11.3256511,2.07732337 11.1859915,2.57593207 C11.1203745,2.82625815 11.0253957,3.12562772 10.9115234,3.46714402 C10.8558638,3.63828533 10.7963745,3.81989946 10.7338213,4.01173098 C10.6641191,4.20126359 10.5908426,4.39999185 10.5142468,4.60740489 C10.3666723,5.02452989 10.1830979,5.46694293 9.98445957,5.93234511 C9.79373617,6.4008125 9.55373617,6.87796467 9.32011915,7.3760625 C9.06505532,7.86470924 8.81254468,8.37455707 8.51765106,8.87163315 C8.24037447,9.37790489 7.91867234,9.86910598 7.60999149,10.3664375 C7.2780766,10.8492092 6.95867234,11.3393886 6.60684255,11.7958505 C6.27135319,12.2635516 5.90701277,12.6977908 5.56462979,13.1243668 C5.20386383,13.5366386 4.86633191,13.9438016 4.5168,14.3034538 C4.17365106,14.668981 3.8460766,15.0107527 3.52692766,15.3098668 C3.36939574,15.4615951 3.21850213,15.6069375 3.07501277,15.7451277 C2.92411915,15.8794864 2.78114043,16.0072038 2.64684255,16.1272582 C2.51254468,16.2468016 2.38667234,16.3586821 2.27050213,16.4623886 C2.15458723,16.5632853 2.04914043,16.6450245 1.95339574,16.7247201 C1.57092766,17.0378832 1.35237447,17.2166875 1.35237447,17.2166875 C1.01484255,17.4925571 0.51773617,17.4427473 0.24173617,17.1050625 C-0.0245617021,16.7793832 0.0145021277,16.3032527 0.320885106,16.0222745" id="Fill-19" fill="#FF0000" mask="url(#mask-2)"></path>
            </g>
            <path d="M42.7666979,26.1788978 C42.7666979,26.1788978 42.6926553,26.0458163 42.5629532,25.8128598 C42.4970809,25.7022565 42.4225277,25.5418435 42.3354638,25.3648272 C42.2443149,25.1860228 42.1577617,24.985762 42.0650809,24.7673652 C41.9662723,24.5494793 41.8815064,24.3065609 41.7842298,24.0511261 C41.6912936,23.7941587 41.6044851,23.5193109 41.517166,23.2337348 C41.4390383,22.9456043 41.3514638,22.6485337 41.2886553,22.3392022 C41.2138468,22.0326804 41.1648255,21.7141533 41.1109532,21.3958815 C41.071634,21.0750554 41.0231234,20.7537185 41.0098468,20.4308489 C41.0016766,20.2694141 40.9935064,20.1092565 40.9853362,19.950887 C40.9873787,19.7907293 40.989166,19.6326152 40.9909532,19.4770554 C40.9922298,19.1656804 41.0315489,18.8596696 41.0591234,18.5700065 C41.114017,18.2795772 41.1395489,18.0026859 41.2184426,17.7485283 C41.2850809,17.4938598 41.3458468,17.2593707 41.433166,17.0555337 C41.5135915,16.8509304 41.5751234,16.6695717 41.6575915,16.5288272 C41.8095064,16.2424848 41.8963149,16.0790065 41.8963149,16.0790065 C42.1539319,15.5941913 42.7552085,15.4102783 43.2395489,15.668012 C43.7238894,15.9252348 43.9077191,16.5270391 43.6503574,17.0115989 C43.6342723,17.0417402 43.6169106,17.0711152 43.598017,17.0989576 L43.5405702,17.1845283 C43.5405702,17.1845283 43.4739319,17.283637 43.3572511,17.4568217 C43.2911234,17.5383054 43.2392936,17.6611696 43.1678043,17.794762 C43.0904426,17.9245228 43.0306979,18.0908109 42.9609957,18.2714033 C42.8803149,18.4466315 42.8415064,18.6634957 42.7720596,18.8806152 C42.7278894,19.1076967 42.6671234,19.3462728 42.6395489,19.604262 C42.6239745,19.733512 42.6081447,19.8642946 42.5920596,19.9973761 C42.5849106,20.1325011 42.5772511,20.2691587 42.5698468,20.4070935 C42.5504426,20.6834739 42.5642298,20.96905 42.5675489,21.2543707 C42.5859319,21.5396913 42.5979319,21.8270554 42.6362298,22.1090554 C42.662017,22.392588 42.7135915,22.6684576 42.7559745,22.9379413 C42.8075489,23.2046152 42.859634,23.4638815 42.9193787,23.7068 C42.9834638,23.9484413 43.0365702,24.1806315 43.106017,24.3872783 C43.1695915,24.5975011 43.2290809,24.7893326 43.2903574,24.9487239 C43.3501021,25.1116913 43.3952936,25.251925 43.4527404,25.377088 C43.5566553,25.6225609 43.6164,25.7627946 43.6164,25.7627946 C43.718783,26.0034141 43.6069532,26.281838 43.3661872,26.3845228 C43.142017,26.4803109 42.883634,26.3865663 42.7666979,26.1788978" id="Fill-22" fill="#FF0000"></path>
            <path d="M41.3260596,28.0714652 C41.3260596,28.0714652 41.1728681,27.9136065 40.9045277,27.6372261 C40.7707404,27.5008239 40.6078468,27.3350467 40.419166,27.1115413 C40.2361021,26.8946772 40.0063149,26.6553348 39.8010383,26.380487 C39.5891234,26.1069163 39.349634,25.8169978 39.1282723,25.4854435 C39.0146553,25.3217098 38.8979745,25.1533783 38.7787404,24.9812152 C38.6681872,24.8031772 38.5550809,24.6210522 38.4399319,24.435862 C38.3212085,24.2527152 38.2142298,24.0580739 38.1077617,23.8596011 C38.0020596,23.6606174 37.8851234,23.4644435 37.7863149,23.2562641 C37.6872511,23.0480848 37.5876766,22.8381174 37.4875915,22.6273837 C37.3867404,22.4163946 37.3070809,22.1949326 37.2159319,21.9783239 L37.0834213,21.651112 L36.9695489,21.3175141 C36.896783,21.0942641 36.8117617,20.8751011 36.7509957,20.6503185 C36.6889532,20.4257913 36.6276766,20.2027967 36.5669106,19.982612 C36.5086979,19.7616609 36.4686128,19.5386663 36.4201021,19.3212913 C36.3971234,19.2122207 36.3741447,19.1041717 36.3516766,18.9971446 C36.3353362,18.8885848 36.3187404,18.7813022 36.3026553,18.6752967 C36.2717617,18.4625196 36.236017,18.2548511 36.212017,18.0512696 C36.1795915,17.6428293 36.1269957,17.2563565 36.1264851,16.8969598 C36.1132085,16.5378185 36.1052936,16.2077967 36.1213787,15.9153239 C36.1310809,15.6228511 36.1354213,15.3669054 36.1606979,15.1577043 C36.2002723,14.738025 36.2229957,14.4979163 36.2229957,14.4979163 C36.2893787,13.7936826 36.9141447,13.2761717 37.6183149,13.3428402 C38.3224851,13.4092533 38.8397617,14.0343022 38.7731234,14.7387913 C38.7705702,14.7671446 38.7669957,14.794987 38.7624,14.8228293 L38.7506553,14.8956283 C38.7506553,14.8956283 38.7182298,15.0920576 38.6618043,15.4366391 C38.6270809,15.6082913 38.6104851,15.8197913 38.5852085,16.0621989 C38.5532936,16.304862 38.5420596,16.5797098 38.5318468,16.880612 C38.5088681,17.1817696 38.5338894,17.5082152 38.5349106,17.8550957 C38.5430809,18.0282804 38.5619745,18.2052967 38.5749957,18.3874217 C38.5821447,18.4781011 38.5895489,18.570313 38.5966979,18.6632913 C38.6097191,18.7555033 38.6229957,18.848737 38.6362723,18.942737 C38.6651234,19.1304815 38.6845277,19.3233348 38.7212936,19.5159326 C38.7603574,19.7085304 38.7994213,19.9031717 38.8392511,20.0996011 C38.8770383,20.2967967 38.9388255,20.4899054 38.9875915,20.6878674 L39.0654638,20.9839163 L39.1612085,21.2758783 C39.2278468,21.4697533 39.2822298,21.6684815 39.3580596,21.8587804 C39.4328681,22.0498457 39.5074213,22.2401446 39.5814638,22.4289109 C39.6552511,22.618188 39.7474213,22.7980141 39.8281021,22.98065 C39.9095489,23.162775 39.992017,23.3423457 40.0869957,23.5122098 C40.177634,23.6846283 40.2669957,23.8539815 40.3543149,24.0200141 C40.4505702,24.1814489 40.544783,24.3393076 40.6361872,24.4930793 C40.8133787,24.8052207 41.0122723,25.0808348 41.1864,25.3421446 C41.3579745,25.6100957 41.5369532,25.8192967 41.6845277,26.0241554 C41.8269957,26.2228837 41.9794213,26.4024543 42.1055489,26.5498402 C42.3539745,26.8441011 42.4959319,27.0124326 42.4959319,27.0124326 C42.7770383,27.345775 42.7346553,27.8438728 42.4014638,28.125362 C42.0833362,28.3940793 41.6125277,28.3649598 41.3260596,28.0714652" id="Fill-24" fill="#FF0000"></path>
            <path d="M25.2387064,91.3354576 L28.8905362,82.8772457 L28.9015149,82.8514467 C29.0036426,82.615425 29.2773447,82.5068652 29.5132596,82.6087837 C29.7129191,82.6951207 29.8211745,82.9045772 29.7882383,83.1099467 L29.7882383,83.1104576 L29.7621957,83.7045989 L29.7762383,84.2979739 L29.8283234,84.8893054 L29.9153872,85.47655 L30.034366,86.0591967 L30.1819404,86.6364793 L30.3553021,87.2086533 L30.5516426,87.775463 C30.6910468,88.1517185 30.8416851,88.5249087 31.0015149,88.8955446 C31.1641532,89.2656696 31.3347064,89.634262 31.5118979,90.0008109 C31.8683234,90.734675 32.2530894,91.4626641 32.6457702,92.1988272 C32.9347915,92.7403489 32.7300255,93.413675 32.1887489,93.7028272 C31.6474723,93.9917239 30.9744511,93.7873761 30.6854298,93.2455989 C30.6637277,93.2049848 30.6425362,93.1572185 30.6264511,93.1155826 C30.3284936,92.3293543 30.0295149,91.5316315 29.7555574,90.7165391 C29.6194723,90.3086098 29.4895149,89.8968489 29.3674723,89.4812565 C29.2477277,89.0641315 29.1376851,88.6429196 29.0396426,88.2176207 L28.9058553,87.5749467 L28.7973447,86.9256315 L28.7169191,86.2704413 L28.6686638,85.6103978 L28.6561532,84.9478 L28.683217,84.2852022 L28.7521532,83.6261804 L28.8655149,82.9745663 L28.8655149,82.9740554 L29.763217,83.2067565 L26.9136,91.968425 C26.7601532,92.4389359 26.2546213,92.6964141 25.7840681,92.5434087 C25.3135149,92.3901478 25.0561532,91.8841315 25.2093447,91.4136207 C25.2177702,91.3870554 25.227983,91.3604902 25.2387064,91.3354576" id="Fill-26" fill="#FF0000"></path>
            <path d="M85.1672681,69.608788 C85.1672681,69.608788 85.3702468,69.7099402 85.7259064,69.8869565 C85.9023319,69.9715054 86.1249702,70.0971793 86.3762043,70.2294946 C86.632034,70.3620652 86.9021617,70.5235 87.2065021,70.6946413 C87.8067574,71.0448424 88.499183,71.4678424 89.2186723,71.9564891 C89.5817362,72.1963424 89.9465872,72.4586739 90.3185872,72.7250924 C90.6857362,72.9976413 91.0608,73.2735109 91.4241191,73.564962 C91.6061617,73.7105598 91.7884596,73.8561576 91.9697362,74.0009891 C92.147183,74.1514402 92.3238638,74.3016359 92.4992681,74.4502989 C92.8518638,74.745837 93.1830128,75.0574674 93.5088,75.3532609 C93.8241191,75.6615707 94.1389277,75.9494457 94.4164596,76.2470272 C94.5573957,76.3936467 94.6945021,76.5359239 94.8272681,76.6736033 C94.9554383,76.8169022 95.0795234,76.9550924 95.1985021,77.087663 C95.4392681,77.3507609 95.6488851,77.6038967 95.8316936,77.8317446 C96.0178213,78.0565272 96.1773957,78.2557663 96.3002043,78.4281848 C96.5516936,78.7681685 96.6954383,78.9625543 96.6954383,78.9625543 C97.0893957,79.4951359 96.9770553,80.2463696 96.4449702,80.64025 C95.9126298,81.0341304 95.1619915,80.9219946 94.7682894,80.389413 C94.7493957,80.3636141 94.7315234,80.3375598 94.7149277,80.3107391 L94.6850553,80.2627174 C94.6850553,80.2627174 94.5729702,80.0823804 94.3771404,79.7669185 C94.2829277,79.6070163 94.1555234,79.4187609 94.0056511,79.2044511 C93.8596085,78.9878424 93.6910979,78.7454348 93.4916936,78.4892337 C93.3939064,78.3597283 93.2917787,78.2248587 93.1863319,78.0856467 C93.0752681,77.9492446 92.9601191,77.8087554 92.8421617,77.6639239 C92.6110979,77.3701739 92.3404596,77.08 92.0723745,76.7693913 C91.7915234,76.4697663 91.5070979,76.1532826 91.1986723,75.8485489 C91.0452255,75.6950326 90.8907574,75.5404946 90.7357787,75.3851902 L90.2545021,74.9312826 C89.9338213,74.6270598 89.5996085,74.3366304 89.272034,74.0490109 C88.9393532,73.7667554 88.6122894,73.4878207 88.2847149,73.2311087 C87.6369702,72.7079783 87.0083745,72.2494728 86.4622468,71.8673424 C86.1872681,71.6816413 85.9355234,71.5013043 85.7108426,71.3608152 C85.4836085,71.2164946 85.2964596,71.0880109 85.1225872,70.9860924 C84.7827574,70.7804674 84.5884596,70.6629674 84.5884596,70.6629674 C84.304034,70.4913152 84.2126298,70.1214457 84.3842043,69.8368913 C84.5468426,69.5671522 84.8899915,69.4721304 85.1672681,69.608788" id="Fill-28" fill="#FF0000"></path>
            <path d="M84.9030894,81.9786772 C84.9030894,81.9786772 84.945983,81.8220957 85.0207915,81.5477587 C85.0639404,81.4021609 85.089217,81.266525 85.1295574,81.0948728 C85.1721957,80.9303728 85.2038553,80.7255141 85.2434298,80.5063511 C85.2832596,80.287188 85.3075149,80.0470793 85.3376426,79.7934326 C85.3562809,79.539275 85.3813021,79.2703022 85.3815574,78.991112 C85.3943234,78.7119217 85.3769617,78.4227696 85.3662383,78.1282533 C85.3445362,77.8342478 85.3200255,77.5348783 85.2743234,77.2365304 C85.2375574,76.9371609 85.1750043,76.6400902 85.1157702,76.3468511 C85.048366,76.0551446 84.9817277,75.7670141 84.8969617,75.4916554 C84.8236851,75.2139978 84.7274298,74.9511554 84.6444511,74.6995522 C84.5594298,74.4482043 84.4608766,74.2155033 84.3796851,73.9976174 C84.2926213,73.7812641 84.2027489,73.5866228 84.1284511,73.41165 C84.0556851,73.2356554 83.9778128,73.0882696 83.9198553,72.9641283 C83.8008766,72.7171228 83.7327064,72.5758674 83.7327064,72.5758674 L83.7201957,72.5500685 C83.5486213,72.1939924 83.697983,71.76665 84.0536426,71.5949978 C84.393217,71.4312641 84.7994298,71.5623022 84.9845362,71.8836391 C84.9845362,71.8836391 85.0680255,72.0294924 85.2143234,72.2849272 C85.2860681,72.4134109 85.3797702,72.5653946 85.4721957,72.749563 C85.5661532,72.9329652 85.6774723,73.1368022 85.7890468,73.3649054 C85.8950043,73.5965848 86.0196,73.8425685 86.1329617,74.1128185 C86.2445362,74.3840902 86.3706638,74.6666011 86.4750894,74.9713348 C86.5907489,75.2714707 86.6898128,75.5902533 86.7888766,75.9156772 C86.8802809,76.2428891 86.9744936,76.5772533 87.0421532,76.9187696 C87.1184936,77.2584978 87.1726213,77.6035902 87.2213872,77.9451065 C87.2596851,78.2873891 87.3020681,78.6258402 87.3117702,78.9556065 C87.3337277,79.2851174 87.328366,79.6041554 87.3263234,79.907612 C87.3133021,80.2097913 87.3030894,80.4971554 87.2752596,80.7599978 C87.2474298,81.0233511 87.2264936,81.2621826 87.1871745,81.4849217 C87.1527064,81.7017859 87.1233447,81.9071554 87.0944936,82.0366609 C87.0390894,82.3153402 87.0071745,82.4744761 87.0071745,82.4744761 C86.8910043,83.0606989 86.3216426,83.4418076 85.7359404,83.3250739 C85.149983,83.2088511 84.7693021,82.639487 84.8857277,82.0532641 C84.8903234,82.0289978 84.8969617,82.0021772 84.9030894,81.9786772" id="Fill-30" fill="#FF0000"></path>
            <path d="M110.223702,52.2978451 L109.751617,51.9427908 L109.295362,51.6143016 C108.98234,51.395394 108.664723,51.1815951 108.341234,50.9746929 C107.694766,50.561144 107.029404,50.1721168 106.348979,49.8086332 C105.668298,49.444894 104.972809,49.1072092 104.264298,48.7976223 C103.90966,48.6433397 103.551957,48.4969755 103.191702,48.3557201 C102.830681,48.217019 102.466851,48.0864918 102.100723,47.9615842 L102.099702,47.9610734 C101.796128,47.8734592 101.621234,47.5559538 101.709064,47.2519864 C101.774936,47.0249049 101.968723,46.8701114 102.189064,46.8430353 L102.217404,46.8397147 C102.810511,46.7674266 103.403106,46.6867092 103.994426,46.5870897 C104.585489,46.489769 105.175532,46.3817201 105.763277,46.2598777 C106.939532,46.0205353 108.108383,45.7426223 109.267021,45.4330353 C109.846851,45.279519 110.423617,45.1152745 110.997319,44.9438777 C111.283787,44.856519 111.571277,44.7737582 111.855702,44.6807799 C112.140128,44.5883125 112.42634,44.5024864 112.708979,44.4054212 C113.276298,44.2176766 113.838766,44.0197147 114.397915,43.8156223 C114.956298,43.609231 115.508809,43.3928777 116.057234,43.1698832 L116.065404,43.1665625 C116.690936,42.9121495 117.404043,43.2135625 117.65834,43.8393777 C117.912383,44.4649375 117.611362,45.1786223 116.98583,45.4327799 C116.952638,45.4463179 116.917149,45.4588342 116.883702,45.4693071 C116.286255,45.6521984 115.688043,45.8269158 115.088043,45.9898832 C114.487787,46.1502962 113.886511,46.3033016 113.283702,46.4448125 C112.982936,46.5188886 112.679872,46.5814701 112.37834,46.6504375 C112.077064,46.7196603 111.773489,46.7786658 111.471191,46.8420136 C110.866085,46.965644 110.259702,47.081356 109.651532,47.1853179 C108.436213,47.3968179 107.216043,47.5743451 105.990511,47.711769 C105.378255,47.7825245 104.763957,47.8394864 104.148128,47.8852092 C103.533064,47.9334864 102.914681,47.9618397 102.295787,47.982019 L102.413745,46.8604049 L102.414766,46.8606603 C102.807957,46.9567038 103.199617,47.0593886 103.588979,47.1710136 C103.977574,47.2846821 104.364383,47.404481 104.748638,47.5327092 C105.516894,47.7901875 106.274936,48.0785734 107.022,48.3965897 C107.769064,48.7143505 108.505149,49.061231 109.228468,49.4387636 C109.590255,49.6272745 109.948213,49.8244701 110.303362,50.0288179 L110.840809,50.3481114 L111.347617,50.6635734 C111.813064,50.9532364 111.955787,51.565769 111.666,52.0311712 C111.376468,52.4968288 110.764468,52.6396168 110.298766,52.3496984 C110.274511,52.3346277 110.250766,52.3182799 110.228043,52.3014212 L110.223702,52.2978451 Z" id="Fill-32" fill="#FF0000"></path>
            <path d="M93.5300936,60.6129625 C93.5300936,60.6129625 93.6240511,60.7026201 93.7887319,60.8592016 C93.948817,61.0119516 94.2005617,61.2610005 94.4724766,61.549131 C95.0285617,62.1284571 95.7278809,62.9455929 96.3631149,63.8181582 C96.997583,64.6907234 97.5656681,65.6166745 97.9517106,66.3354679 C98.1477957,66.6933321 98.3004766,66.9980658 98.4046468,67.212631 C98.5085617,67.4277071 98.5677957,67.5505712 98.5677957,67.5505712 C98.8351149,68.1040984 98.6032851,68.769506 98.0500085,69.0369462 C97.4967319,69.3043864 96.8316255,69.0724516 96.5643064,68.5189245 C96.5446468,68.4783103 96.5277957,68.4369299 96.5134979,68.395294 L96.5050723,68.3705168 C96.5050723,68.3705168 96.4660085,68.2537832 96.3973277,68.0491799 C96.3281362,67.8448321 96.2260085,67.553381 96.0899234,67.2080332 C95.8238809,66.5147832 95.4148596,65.6077342 94.933583,64.7315929 C94.4520511,63.8562179 93.9000511,63.0153266 93.4496681,62.4089245 C93.2237106,62.1001038 93.0419234,61.8674027 92.8948596,61.6862995 C92.7513702,61.5103049 92.6694128,61.4094082 92.6694128,61.4094082 C92.4646468,61.1578049 92.502434,60.7876799 92.7539234,60.5828212 C92.9860085,60.393544 93.3192,60.411169 93.5300936,60.6129625" id="Fill-34" fill="#FF0000"></path>
            <path d="M98.307983,62.2413592 C98.307983,62.2413592 98.3907064,62.2896364 98.5354723,62.3744408 C98.674366,62.4541364 98.9036426,62.5964136 99.1490043,62.7583592 C99.6491745,63.0850603 100.291047,63.560169 100.891047,64.0853429 C101.492068,64.6089842 102.053004,65.1768158 102.452834,65.620506 C102.854196,66.062919 103.104919,66.372506 103.104919,66.372506 L103.115898,66.386044 C103.39777,66.7336908 103.344409,67.2440495 102.996664,67.525794 C102.648919,67.807794 102.138791,67.7544082 101.856919,67.4067614 C101.842366,67.3883701 101.827813,67.3684462 101.814791,67.349544 C101.814791,67.349544 101.608749,67.044044 101.275047,66.6039299 C100.942877,66.162794 100.472834,65.5952179 99.9624511,65.0651908 C99.4533447,64.5338864 98.9018553,64.0447288 98.4678128,63.7034679 C98.247983,63.5295168 98.0807489,63.4028212 97.9375149,63.3024353 C97.8006638,63.2053701 97.7225362,63.1501962 97.7225362,63.1501962 C97.4787064,62.9775223 97.4212596,62.6398375 97.5938553,62.3958973 C97.7570043,62.1657505 98.0687489,62.1026582 98.307983,62.2413592" id="Fill-36" fill="#FF0000"></path>
            <path d="M10.6115745,61.3598027 C10.6115745,61.3598027 10.4591489,61.3963299 10.1928511,61.4599332 C9.92144681,61.5258353 9.57038298,61.6154929 9.12638298,61.7472973 C8.24578723,61.999156 7.09302128,62.4012103 5.97880851,62.8857701 C4.86382979,63.3690527 3.79123404,63.9340745 3.012,64.3966668 C2.62085106,64.6250255 2.30119149,64.825031 2.07982979,64.9683299 C1.85846809,65.1116288 1.73208511,65.1933679 1.73208511,65.1933679 L1.71523404,65.2040962 C1.19948936,65.5374386 0.511148936,65.3892864 0.177957447,64.8735636 C-0.154978723,64.3575853 -0.00714893617,63.6691886 0.508595745,63.3355908 C0.541021277,63.3146451 0.575489362,63.2952321 0.609191489,63.2778625 C0.609191489,63.2778625 0.754212766,63.2045527 1.00774468,63.0758136 C1.26102128,62.9473299 1.62587234,62.7690364 2.06910638,62.5685201 C2.95302128,62.1628897 4.15710638,61.681906 5.388,61.2951777 C6.61889362,60.9069168 7.87302128,60.612656 8.8212766,60.4456016 C9.2892766,60.3584984 9.70570213,60.2979603 9.972,60.261944 C10.2434043,60.2264386 10.3986383,60.2060038 10.3986383,60.2060038 C10.7200851,60.1638571 11.0149787,60.3904277 11.0571064,60.7122755 C11.0964255,61.0124114 10.8988085,61.2898136 10.6115745,61.3598027" id="Fill-38" fill="#FF0000"></path>
            <path d="M8.34413617,59.9915663 C8.34413617,59.9915663 8.25349787,59.9885011 8.09494468,59.9833924 C7.92924255,59.9775174 7.7339234,59.9767511 7.46864681,59.9833924 C6.94830638,59.9930989 6.25511489,60.0505717 5.56932766,60.162963 C4.88328511,60.274588 4.20566809,60.4365337 3.70345532,60.5803435 C3.2004766,60.7226207 2.87060426,60.8352674 2.87060426,60.8352674 C2.44702979,60.9798435 1.98643404,60.7532728 1.84217872,60.3295065 C1.69766809,59.9057402 1.92388085,59.4451913 2.34745532,59.3006152 C2.37094468,59.2926967 2.39468936,59.2858 2.41817872,59.2801804 L2.43579574,59.275838 C2.43579574,59.275838 2.80243404,59.187713 3.35877447,59.0847728 C3.91460426,58.9800446 4.66345532,58.8730174 5.4179234,58.821675 C6.17239149,58.7690554 6.93043404,58.776463 7.49673191,58.8186098 C7.77502979,58.8367457 8.03188085,58.8630554 8.18226383,58.8824685 C8.33979574,58.9023924 8.42966809,58.913887 8.42966809,58.913887 C8.72609362,58.9514359 8.93596596,59.2219413 8.89843404,59.5185011 C8.86345532,59.7974359 8.61937021,59.9997402 8.34413617,59.9915663" id="Fill-40" fill="#FF0000"></path>
            <path d="M23.952383,34.4992261 C23.952383,34.4992261 24.0210638,34.5383076 24.1413191,34.607275 C24.2097447,34.6484 24.2927234,34.6984652 24.3882128,34.755938 C24.4760426,34.8136663 24.5753617,34.8790576 24.683617,34.9503239 C25.1056596,35.2397315 25.6308511,35.6517478 26.1162128,36.1023348 C26.6054043,36.5485793 27.0524681,37.0372261 27.3682979,37.4206337 C27.5255745,37.6129761 27.6529787,37.7761989 27.7374894,37.8952315 C27.822766,38.012987 27.8715319,38.0804217 27.8715319,38.0804217 C28.0214043,38.2865576 27.9751915,38.5751989 27.7688936,38.7248837 C27.5802128,38.8617967 27.3225957,38.8352315 27.1655745,38.6714978 L27.1515319,38.6564272 C27.1515319,38.6564272 27.0994468,38.602275 27.0082979,38.5075087 C26.9184255,38.4119761 26.7825957,38.2806826 26.6171489,38.1269109 C26.2842128,37.8206446 25.8167234,37.43315 25.3185957,37.0913783 C24.8237872,36.7450087 24.3031915,36.4433402 23.9115319,36.2479326 C23.8142553,36.2016989 23.7251489,36.1592967 23.646,36.1217478 C23.5709362,36.0898185 23.5055745,36.0617207 23.4519574,36.0384761 C23.3235319,35.9871337 23.25,35.9577587 23.25,35.9577587 C22.8338298,35.7917261 22.6311064,35.3196826 22.7970638,34.9035793 C22.9630213,34.4872207 23.4345957,34.28415 23.850766,34.450438 C23.8842128,34.4634652 23.9214894,34.482112 23.952383,34.4992261" id="Fill-42" fill="#FF0000"></path>
            <path d="M24.831166,28.9560103 C24.831166,28.9560103 24.8666553,29.0745321 24.9284426,29.2816897 C24.9595915,29.3797766 24.9973787,29.4990647 25.040783,29.6357223 C25.0824,29.7703364 25.1398468,29.9284505 25.196783,30.0975484 C25.4339745,30.7759832 25.7886128,31.675369 26.2004426,32.5451245 C26.6102298,33.4156462 27.0797617,34.2539832 27.4790809,34.8391842 C27.577634,34.9868255 27.6695489,35.1209288 27.7566128,35.2333201 C27.8418894,35.3477549 27.9144,35.4501842 27.9805277,35.5263038 C28.1094638,35.6833962 28.1829957,35.7727984 28.1829957,35.7727984 L28.203166,35.7970647 C28.381634,36.0146951 28.3502298,36.3355212 28.1329532,36.5140701 C27.9261447,36.6839342 27.6246128,36.6624777 27.4423149,36.4732005 C27.4423149,36.4732005 27.3514213,36.3786897 27.1926128,36.2129125 C27.1104,36.1311734 27.0223149,36.0256788 26.9181447,35.9061353 C26.8119319,35.7873582 26.7006128,35.6491679 26.5811234,35.4966734 C26.0970383,34.8907821 25.5322723,34.0386516 25.0310809,33.1545918 C24.5281021,32.2715538 24.0853787,31.3588853 23.7787404,30.6582277 C23.7036766,30.480956 23.6329532,30.324119 23.5737191,30.1746897 C23.5147404,30.0283255 23.4634213,29.9006082 23.4212936,29.795369 C23.3436766,29.5933201 23.2992511,29.4778636 23.2992511,29.4778636 C23.139166,29.0602277 23.3475064,28.5915049 23.7652085,28.4313473 C24.1826553,28.2709342 24.6509106,28.4796245 24.8112511,28.8975158 C24.8184,28.9161625 24.8255489,28.9371082 24.831166,28.9560103" id="Fill-44" fill="#FF0000"></path>
            <path d="M59.9529957,86.6129283 C59.9529957,86.6129283 59.9473787,86.5148413 59.9374213,86.3429337 C59.9325702,86.2571076 59.9266979,86.1528902 59.9198043,86.0333467 C59.9085702,85.9263196 59.8958043,85.8060098 59.882017,85.6742054 C59.8718043,85.5441891 59.846783,85.3942489 59.822783,85.2363902 C59.8010809,85.0785315 59.7722298,84.9122435 59.7362298,84.7405913 C59.6729106,84.3960098 59.5835489,84.0299717 59.4834638,83.6654663 C59.2858468,82.9354337 59.0244,82.2163848 58.8050809,81.6878902 C58.6968255,81.4230043 58.5985277,81.2058848 58.5288255,81.0562 C58.4591234,80.9113685 58.4192936,80.8283522 58.4192936,80.8283522 L58.4075489,80.8040859 C58.2972511,80.57445 58.394017,80.2988359 58.6232936,80.1887435 C58.8369957,80.0858033 59.0905277,80.1626891 59.2133362,80.3593739 C59.2133362,80.3593739 59.2689957,80.4477543 59.3662723,80.6033141 C59.4592085,80.7558087 59.5886553,80.97395 59.7341872,81.2403685 C60.0272936,81.7721837 60.3870383,82.4983848 60.686783,83.2583033 C60.8376766,83.6378793 60.9783574,84.023075 61.0904426,84.3937109 C61.1506979,84.5773685 61.2030383,84.75745 61.2469532,84.9306348 C61.2934213,85.1027978 61.3386128,85.2639772 61.370783,85.4256674 C61.4049957,85.5848033 61.4364,85.7304011 61.4639745,85.8593957 C61.4841447,85.977662 61.5015064,86.0806022 61.5160596,86.1654065 C61.5446553,86.3350152 61.5609957,86.4320804 61.5609957,86.4320804 C61.6358043,86.8734717 61.3388681,87.2918739 60.8974213,87.3667163 C60.4562298,87.4415587 60.038017,87.144488 59.9632085,86.7030967 C59.9581021,86.6732109 59.954783,86.6423033 59.9529957,86.6129283" id="Fill-46" fill="#FF0000"></path>
            <path d="M56.3793957,89.7113011 C56.3793957,89.7113011 56.4210128,89.5782196 56.4937787,89.3447522 C56.525183,89.2349152 56.5634809,89.1010674 56.6073957,88.948062 C56.6482468,88.7904587 56.6942043,88.6121652 56.7445021,88.4180348 C56.932417,87.6328283 57.1405021,86.5646 57.2508,85.4856435 C57.311566,84.9469315 57.3439915,84.4061761 57.3598213,83.8999043 C57.3710553,83.3943989 57.3674809,82.9218446 57.3381191,82.5213228 C57.3299489,82.3197848 57.310034,82.1374043 57.2929277,81.9757141 C57.2781191,81.8132576 57.2617787,81.6722576 57.2416085,81.5583337 C57.2068851,81.3284424 57.1867149,81.1968935 57.1867149,81.1968935 L57.1823745,81.1680293 C57.1399915,80.8898609 57.3312255,80.6298283 57.6092681,80.5876815 C57.8753106,80.5473228 58.1247574,80.7222957 58.1827149,80.9807957 C58.1827149,80.9807957 58.2146298,81.1235837 58.2702894,81.3733989 C58.300417,81.498562 58.3287574,81.6505457 58.3570979,81.8257739 C58.3874809,82.0004913 58.4219489,82.1984533 58.4456936,82.4142957 C58.5062043,82.8459804 58.5442468,83.3504641 58.5685021,83.8907087 C58.5881617,84.4306978 58.5919915,85.0069587 58.5659489,85.5806652 C58.5258638,86.7298663 58.3826298,87.870638 58.2376085,88.7258337 C58.1972681,88.939888 58.1605021,89.1365728 58.127566,89.3107793 C58.0895234,89.4875402 58.0560766,89.6418228 58.0287574,89.7687739 C57.9718213,90.0060728 57.9393957,90.1419641 57.9393957,90.1419641 C57.8352255,90.5769696 57.3981191,90.8449207 56.9633106,90.7407033 C56.5285021,90.6364859 56.2606723,90.199437 56.3645872,89.7644315 C56.3686723,89.7475728 56.3742894,89.7276489 56.3793957,89.7113011" id="Fill-48" fill="#FF0000"></path>
            <path d="M82.6661872,12.0504168 C82.6661872,12.0504168 82.6128255,12.1089114 82.5191234,12.2108299 C82.4803149,12.2547647 82.4335915,12.308406 82.3799745,12.3697103 C82.3248255,12.4379114 82.262783,12.5145418 82.1951234,12.5985799 C81.9265277,12.9441832 81.5874638,13.4410038 81.2912936,13.9677103 C80.9897617,14.4916071 80.7357191,15.0430908 80.5679745,15.4630255 C80.4849957,15.6735038 80.4193787,15.8507755 80.3798043,15.9756832 C80.3386979,16.1005908 80.3152085,16.1721125 80.3152085,16.1721125 L80.3088255,16.1912701 C80.2289106,16.4334223 79.9679745,16.5649712 79.7259319,16.4847647 C79.5045702,16.4117103 79.375634,16.1869277 79.4164851,15.9636777 C79.4164851,15.9636777 79.4315489,15.882194 79.4575915,15.7388951 C79.4823574,15.5953408 79.526783,15.392781 79.5855064,15.1513951 C79.7042298,14.6688788 79.8962298,14.0351451 80.1446553,13.4210799 C80.3872085,12.8047158 80.6826128,12.2059766 80.9379319,11.7625418 C81.0048255,11.6514277 81.0661021,11.5495092 81.1202298,11.4593408 C81.1815064,11.3661071 81.2348681,11.2851342 81.2785277,11.2182103 C81.3574213,11.1045418 81.4023574,11.039406 81.4023574,11.039406 C81.657166,10.6708136 82.1621872,10.5783462 82.5308681,10.8332701 C82.8992936,11.088194 82.9912085,11.5936995 82.7366553,11.9622918 C82.7159745,11.9919223 82.6896766,12.0241071 82.6661872,12.0504168" id="Fill-50" fill="#FF0000"></path>
            <path d="M81.1568426,7.22109022 C81.1568426,7.22109022 81.1359064,7.2540413 81.0968426,7.31534565 C81.0603319,7.37460652 80.9939489,7.4714163 80.9329277,7.57665543 C80.8777787,7.68112826 80.8090979,7.78943261 80.7299489,7.94703587 C80.6518213,8.1059163 80.5583745,8.28088913 80.4705447,8.48523696 C80.3765872,8.68498696 80.2841617,8.90798152 80.1886723,9.14553587 C80.0908851,9.38206848 80.0012681,9.63878043 79.9045021,9.9021337 C79.817183,10.169063 79.7188851,10.4431446 79.6389702,10.7279543 C79.5506298,11.0104652 79.4753106,11.30115 79.4007574,11.5920902 C79.3264596,11.8832859 79.2654383,12.1770359 79.204417,12.4659326 C79.1551404,12.7558511 79.0930979,13.0414272 79.0616936,13.3188293 C79.0430553,13.4577859 79.024417,13.594188 79.0065447,13.7277804 C78.9948,13.8613728 78.9833106,13.9921554 78.9723319,14.119362 C78.9447574,14.3745413 78.9414383,14.6138837 78.9350553,14.836112 C78.9225447,15.0588511 78.9368426,15.2588565 78.9419489,15.4379163 C78.9450128,15.5275739 78.9478213,15.6113565 78.9503745,15.6884978 C78.9590553,15.7646174 78.9667149,15.834862 78.9736085,15.8979543 C79.0014383,16.1510902 79.0172681,16.2956663 79.0172681,16.2956663 L79.0221191,16.340112 C79.0525021,16.6195576 78.8510553,16.87065 78.5717362,16.9013022 C78.3036511,16.9306772 78.0610979,16.7442098 78.0151404,16.4821337 C78.0151404,16.4821337 77.9868,16.3191663 77.9375234,16.0338457 C77.9255234,15.9625793 77.9122468,15.8833946 77.8974383,15.7970576 C77.8892681,15.7109761 77.8800766,15.6179978 77.8703745,15.5183783 C77.8525021,15.3193946 77.8239064,15.0935902 77.8223745,14.8499054 C77.8142043,14.6054543 77.8029702,14.3395467 77.8157362,14.0616337 C77.8193106,13.9221663 77.8233957,13.7791228 77.8272255,13.6327587 C77.8379489,13.4871609 77.8489277,13.3387533 77.8601617,13.1875359 C77.8767574,12.8840793 77.9234809,12.5762804 77.9584596,12.2603076 C78.0049277,11.9471446 78.0513957,11.6281065 78.1121617,11.3126446 C78.1726723,10.9969272 78.2349702,10.6812098 78.3108,10.3741772 C78.3782043,10.0645902 78.4650128,9.76522065 78.5418638,9.47300326 C78.628417,9.18359565 78.7080766,8.90261739 78.7987149,8.6390087 C78.8865447,8.37514457 78.9733532,8.12558478 79.0637362,7.89697065 C79.1469702,7.66733478 79.2414383,7.45838913 79.3200766,7.27217717 C79.3997362,7.08622065 79.4942043,6.90690543 79.5608426,6.76820435 C79.6295234,6.63410109 79.679566,6.55159565 79.715566,6.48467174 C79.7510553,6.42081304 79.7699489,6.38684022 79.7699489,6.38684022 C79.9874809,5.99628043 80.4805021,5.8557913 80.8711404,6.07367717 C81.2617787,6.29105217 81.4019489,6.78455217 81.184417,7.17511196 C81.1770128,7.18890543 81.1688426,7.20218804 81.1609277,7.21521522 L81.1568426,7.22109022 Z" id="Fill-52" fill="#FF0000"></path>
            <path d="M105.813217,30.8428304 C105.813217,30.8428304 105.958749,30.752662 106.213557,30.5953141 C106.466068,30.4394989 106.84394,30.2093522 107.288706,29.9459989 C108.180791,29.4146946 109.386153,28.7308957 110.611685,28.0823467 C111.837217,27.4340533 113.082664,26.8215207 114.026579,26.381662 C114.969728,25.9407815 115.606494,25.662613 115.606494,25.662613 L115.61543,25.6585261 C116.182749,25.4107543 116.84377,25.6700207 117.09143,26.2378522 C117.339089,26.8054283 117.07994,27.4664935 116.512366,27.7145207 C116.493983,27.7224391 116.472026,27.7311239 116.453387,27.7382761 C116.453387,27.7382761 115.820706,27.9727652 114.880366,28.3490207 C113.939515,28.7237435 112.695089,29.25045 111.465472,29.8136837 C110.236111,30.3771728 109.022323,30.9769337 108.121813,31.4464228 C107.668621,31.680912 107.30377,31.8758087 107.037728,32.0196185 C106.774494,32.1624065 106.623855,32.2438902 106.623855,32.2438902 C106.230919,32.4566674 105.73943,32.3105587 105.526749,31.9174446 C105.321472,31.5386348 105.451685,31.0671022 105.813217,30.8428304" id="Fill-54" fill="#FF0000"></path>
            <path d="M109.933226,32.7780299 C109.933226,32.7780299 110.071609,32.7486549 110.313906,32.6975679 C110.552885,32.6467364 110.915183,32.5744484 111.33697,32.5016495 C112.184885,32.3496658 113.325396,32.1938505 114.475353,32.1029158 C115.6248,32.0127473 116.781651,31.9879701 117.649736,32.0058505 C118.083779,32.0117255 118.445821,32.0267962 118.699098,32.0390571 C118.952374,32.0520842 119.09714,32.0594918 119.09714,32.0594918 C119.543949,32.0822255 119.887609,32.4633342 119.864885,32.9103451 C119.841906,33.357356 119.461226,33.7011712 119.014417,33.6781821 C118.991694,33.6771603 118.969481,33.6751168 118.947268,33.6720516 L118.933481,33.6700082 C118.933481,33.6700082 118.796885,33.6513614 118.557396,33.6186658 C118.318162,33.5859701 117.975523,33.5425462 117.562928,33.5014212 C116.737991,33.4138071 115.631438,33.3430516 114.520545,33.3353886 C113.409906,33.327981 112.29646,33.3841766 111.463609,33.4610625 C111.044374,33.4970788 110.708119,33.5348832 110.459438,33.5655353 C110.213566,33.5959321 110.07314,33.6135571 110.07314,33.6135571 C109.841055,33.6424212 109.629396,33.4771549 109.600545,33.2449647 C109.573226,33.0252908 109.7208,32.8237527 109.933226,32.7780299" id="Fill-56" fill="#FF0000"></path>
            <path d="M14.5970809,74.3081495 C14.5970809,74.3081495 14.4553787,74.4041929 14.2077191,74.5725245 C13.9575064,74.7423886 13.6166553,74.9768777 13.1999745,75.271394 C12.3689106,75.8553179 11.2779319,76.6568723 10.2119745,77.4893342 C9.14601702,78.3220516 8.10584681,79.1849103 7.34014468,79.848019 C6.57342128,80.5098505 6.07427234,80.9640136 6.07427234,80.9640136 C5.61597447,81.3803723 4.90695319,81.3466549 4.49052766,80.8884049 C4.07410213,80.4298995 4.10780426,79.7203016 4.56610213,79.3039429 C4.58116596,79.2904049 4.59622979,79.2771223 4.61180426,79.264606 L4.62201702,79.2561766 C4.62201702,79.2561766 5.16201702,78.8186168 5.98771915,78.1843723 C6.8124,77.5483397 7.92942128,76.7240516 9.06865532,75.9339918 C10.2084,75.1439321 11.3698468,74.388356 12.2522298,73.8409592 C12.6903574,73.5671332 13.0687404,73.3372418 13.3230383,73.1850027 C13.5801447,73.0309755 13.7269532,72.943106 13.7269532,72.943106 C14.1106979,72.7134701 14.6078043,72.8383777 14.8370809,73.2222962 C15.0584426,73.5919103 14.9484,74.0688071 14.5970809,74.3081495" id="Fill-58" fill="#FF0000"></path>
            <path d="M14.2244426,75.8981288 C14.2244426,75.8981288 14.1445277,76.0148625 14.0043574,76.2189549 C13.8626553,76.4258571 13.6742298,76.7070908 13.4490383,77.0629114 C12.9973787,77.7668897 12.435166,78.7301342 11.9304,79.719944 C11.4258894,80.7102647 10.9793362,81.7253625 10.6772936,82.4985636 C10.5235915,82.8840147 10.4046128,83.2081614 10.3234213,83.4357538 C10.2422298,83.6633462 10.196017,83.7933625 10.196017,83.7933625 L10.1919319,83.8051125 C10.0418043,84.2265799 9.5784,84.4467647 9.15686809,84.296569 C8.73533617,84.1463734 8.51550638,83.6830147 8.66563404,83.2612918 C8.6730383,83.2398353 8.68222979,83.2176125 8.69142128,83.1971777 C8.69142128,83.1971777 8.75142128,83.0653734 8.85661277,82.8342049 C8.96205957,82.6035473 9.11550638,82.2753136 9.30980426,81.8867973 C9.69405957,81.1079766 10.2486128,80.0918571 10.8578043,79.1125201 C11.4677617,78.1329277 12.1310809,77.1916505 12.6562723,76.5088734 C12.915166,76.1676125 13.1459745,75.8792266 13.3006979,75.6902049 C13.4579745,75.4988842 13.5475915,75.3893027 13.5475915,75.3893027 C13.6959319,75.2081995 13.9629957,75.1818897 14.144017,75.3302973 C14.3148255,75.4707864 14.3467404,75.7185582 14.2244426,75.8981288" id="Fill-60" fill="#FF0000"></path>
            <path d="M71.9760511,82.9951799 C71.9760511,82.9951799 71.869583,82.9264679 71.6834553,82.806669 C71.5820936,82.7369353 71.431966,82.6171364 71.2792851,82.4950386 C71.1332426,82.370131 71.0022638,82.2360277 70.8462638,82.0842995 C70.7096681,81.9259299 70.5452426,81.7627071 70.4045617,81.5752179 C70.2554553,81.3920712 70.1063489,81.195131 69.9646468,80.9861853 C69.8137532,80.7815821 69.684817,80.5578212 69.5410723,80.3371255 C69.4126468,80.1087668 69.2714553,79.8829625 69.1532426,79.6461745 C69.0273702,79.4132179 68.9117106,79.1754082 68.8026894,78.9393864 C68.689583,78.705919 68.5969021,78.4668321 68.4986043,78.2405168 C68.4130723,78.0075603 68.3206468,77.7881418 68.251966,77.5710223 C68.1802213,77.3549245 68.1110298,77.1523647 68.0607319,76.9587451 C68.0050723,76.7679353 67.9580936,76.5916853 67.9251574,76.4312723 C67.8896681,76.2721364 67.8557106,76.1354788 67.8396255,76.0174679 C67.801583,75.7845114 67.7798809,75.6514299 67.7798809,75.6514299 C67.7390298,75.4005929 67.9093277,75.1635495 68.1603064,75.1226799 C68.3972426,75.0838538 68.6214128,75.2335386 68.6803915,75.4616418 L68.6890723,75.496381 C68.6890723,75.496381 68.718434,75.6110712 68.7694979,75.8120984 C68.7914553,75.9122288 68.8333277,76.0338158 68.8769872,76.1727723 C68.9180936,76.3122397 68.9745191,76.4677995 69.0398809,76.6366418 C69.0996255,76.8067614 69.1797957,76.9870984 69.2620085,77.178419 C69.3409021,77.3702505 69.444817,77.5659136 69.5405617,77.7712832 C69.6493277,77.9717995 69.751966,78.183044 69.8747745,78.3881582 C69.9929872,78.5955712 70.1173277,78.8034951 70.2503489,79.005544 C70.375966,79.2121908 70.5217532,79.4040223 70.6545191,79.5999408 C70.8000511,79.7848755 70.9323064,79.9767071 71.0791149,80.1419734 C71.2195404,80.3149027 71.3617532,80.4719951 71.5003915,80.6150386 C71.6339234,80.7654897 71.7756255,80.8791582 71.8966468,80.9997234 C72.0227745,81.1008755 72.1453277,81.2063701 72.2403064,81.273294 C72.336817,81.3322995 72.3957957,81.3826201 72.480817,81.4321745 C72.6763915,81.5356255 72.7884766,81.5951418 72.7884766,81.5951418 L72.7930723,81.5974408 C73.1885617,81.8066418 73.3397106,82.2970766 73.1306043,82.6924897 C72.9217532,83.0881582 72.4315404,83.2393755 72.0360511,83.0301745 C72.0158809,83.0197016 71.9949447,83.0071853 71.9760511,82.9951799" id="Fill-62" fill="#FF0000"></path>
            <path d="M40.2798383,91.8181527 C40.2798383,91.8181527 40.3449447,91.7412668 40.458817,91.6066527 C40.5024766,91.5499462 40.555583,91.4812342 40.6166043,91.4020495 C40.6773702,91.3190332 40.7491149,91.2112397 40.8252,91.0993592 C40.896434,90.9800712 40.9812,90.8569516 41.0575404,90.7151853 C41.1384766,90.5764842 41.2194128,90.4267995 41.2985617,90.2684299 C41.4581362,89.9527125 41.6149021,89.6055766 41.7476681,89.2495005 C41.8863064,88.8952125 41.9960936,88.5312179 42.085966,88.1879136 C42.1692,87.8440984 42.2371149,87.5194408 42.2646894,87.2417832 C42.2856255,87.1023158 42.2935404,86.9756201 42.2991574,86.8632288 C42.3073277,86.7500712 42.3121787,86.6517288 42.3086043,86.572544 C42.306817,86.4118755 42.3060511,86.3201745 42.3060511,86.3201745 L42.3055404,86.2785386 C42.3029872,86.024381 42.5069872,85.8162016 42.7610298,85.8136473 C42.997966,85.8110929 43.194817,85.9883647 43.2223915,86.218256 C43.2223915,86.218256 43.2359234,86.3273266 43.2589021,86.5181364 C43.2734553,86.6141799 43.2803489,86.7296364 43.2854553,86.8622071 C43.2933702,86.9950332 43.2994979,87.1449734 43.2936255,87.3064082 C43.2956681,87.6325984 43.2596681,88.0062995 43.207583,88.4047777 C43.1488596,88.8009571 43.0697106,89.2214027 42.9589021,89.6323973 C42.9086043,89.8400658 42.8434979,90.0423701 42.7834979,90.2439082 C42.7160936,90.4426364 42.6537957,90.6405984 42.5797532,90.8273212 C42.5097957,91.0155766 42.4365191,91.1964245 42.3606894,91.3662886 C42.2904766,91.5379408 42.2069872,91.6957995 42.1380511,91.8444625 C42.060434,91.9921038 41.9922638,92.1231418 41.9212851,92.2467723 C41.8446894,92.3709136 41.7783064,92.4792179 41.7231574,92.5683647 C41.6246043,92.7144734 41.5681787,92.7980005 41.5681787,92.7980005 C41.3174553,93.1688918 40.8137106,93.2664679 40.4429872,93.0153755 C40.0722638,92.764794 39.9747319,92.2608212 40.2254553,91.8899299 C40.2417957,91.865919 40.2591574,91.8426745 40.2775404,91.8209625 L40.2798383,91.8181527 Z" id="Fill-64" fill="#FF0000"></path>
            <path d="M118.935089,49.0719848 C118.935089,49.0719848 118.803089,49.094463 118.572281,49.1338 C118.463515,49.1547457 118.299089,49.1736478 118.123685,49.1974033 C117.942919,49.2239685 117.752196,49.2392946 117.542323,49.2581967 C117.122579,49.2952348 116.637217,49.3172022 116.121472,49.3238435 C115.605217,49.3330391 115.059855,49.320012 114.516536,49.3026424 C113.431174,49.2620283 112.358323,49.1836098 111.557643,49.1258815 C110.75926,49.0704522 110.226919,49.0336696 110.226919,49.0336696 L110.221047,49.0334141 C109.967004,49.0155337 109.77526,48.7950935 109.792621,48.5409359 C109.809472,48.2998054 110.010153,48.1148707 110.247345,48.1112946 C110.247345,48.1112946 110.784281,48.1049087 111.589557,48.0952022 C112.392536,48.0875391 113.458238,48.0783435 114.51194,48.0321098 C115.037898,48.0058 115.562579,47.9759141 116.04743,47.927637 C116.533047,47.8814033 116.980621,47.8239304 117.356962,47.7595609 C117.544877,47.7268652 117.71926,47.6982565 117.859174,47.6653054 C118.004706,47.6331207 118.121643,47.6126859 118.240877,47.5797348 C118.4676,47.5217511 118.597302,47.4885446 118.597302,47.4885446 C119.030579,47.377175 119.472026,47.6382293 119.583345,48.0714467 C119.694664,48.5046641 119.433728,48.9465663 119.000706,49.0576804 C118.97977,49.0633 118.956026,49.0681533 118.935089,49.0719848" id="Fill-66" fill="#FF0000"></path>
            <path d="M46.2401872,69.3820386 C45.5339745,69.6944353 44.8055489,70.0431038 44.0538894,70.4298321 C43.3019745,70.8165603 42.5204426,71.2444136 41.7092936,71.7136473 C40.2373787,69.2870168 38.6804426,66.6379027 37.0435915,63.7604299 C37.0014638,64.0414082 36.9593362,64.322131 36.9174638,64.6033647 C37.0964426,65.279756 37.3282723,66.1020005 37.6149957,67.0690766 C37.9012085,68.0366636 38.1884426,69.0101255 38.4759319,69.9892071 C38.763166,70.9687995 39.0746553,72.0160821 39.411166,73.1302886 C38.3403574,73.9985114 37.2708255,74.8700549 36.2025702,75.7451745 C33.1032511,64.9040114 30.7497191,56.809794 28.8938043,51.5797668 C29.2673362,51.469419 29.6740596,51.3243321 30.1147404,51.144506 C30.5546553,50.9644245 30.9869106,50.7953266 31.4099745,50.6364462 C31.832783,50.4783321 32.2691234,50.2887995 32.7187404,50.0686147 C32.7389106,50.157506 32.7818043,50.3212397 32.8484426,50.5595603 C32.9145702,50.7986473 32.9957617,51.091631 33.0912511,51.4387668 C33.1869957,51.786669 33.2942298,52.1713538 33.4139745,52.5933321 C33.5329532,53.0153103 33.6879319,53.5808429 33.8786553,54.2878864 C34.069634,54.9956962 34.3387404,55.9540875 34.6892936,57.1615277 L34.8057191,57.066506 C34.8302298,55.993169 34.8488681,54.8605712 34.863166,53.6715223 C34.9001872,51.3130929 34.9438468,49.6821418 34.9811234,48.7796908 C36.5712511,47.7847723 37.9538043,46.8368538 39.1277617,45.9315929 C38.6201872,51.9345658 38.4013787,56.2136092 38.391166,58.7521201 C39.6223149,60.6717125 40.8963574,62.4847886 42.2109957,64.1918592 C43.525634,65.8994408 44.8683574,67.6302668 46.2401872,69.3820386" id="Fill-68" fill="#FFD900"></path>
            <path d="M45.0406468,48.8589522 C44.7260936,49.0224304 44.4112851,49.1859087 44.0967319,49.3498978 C44.5616681,51.1062674 45.0322213,52.8595717 45.5086468,54.6100663 C46.0517106,54.2470935 46.5580085,53.379637 47.0318809,52.0099957 C47.5259234,50.6068924 47.6418383,49.5969033 47.3737532,48.9746641 C47.1237957,48.3930391 46.5825191,48.2522946 45.7501787,48.5547293 C45.5094128,48.646175 45.2727319,48.7473272 45.0406468,48.8589522 M52.668817,66.6326152 C49.0992,61.8169033 47.1603064,59.0048217 46.7875404,58.2896043 C46.7114553,58.3759413 46.6356255,58.4622783 46.5595404,58.5486152 C47.7156255,62.4595772 48.625583,65.4060174 49.2587745,67.4045391 C48.2632851,68.4341967 47.2698383,69.467175 46.2786894,70.5039848 C43.1643064,59.7491587 40.9981787,52.0850935 39.5137532,47.6497239 C40.8876255,46.108175 42.6240511,44.8417293 44.7192,43.8501315 C46.2909447,43.1065609 47.5397106,43.4258543 48.4700936,44.793963 C48.7540085,45.2146641 49.0407319,45.765637 49.3320511,46.4466261 C49.6231149,47.1281261 49.8373277,47.9120554 49.9754553,48.798925 C50.1125617,49.6857946 50.1643915,50.5716424 50.1299234,51.4577457 C50.0403064,53.2641804 49.6420085,54.8116043 48.9314553,56.1053815 C50.2348596,57.5054196 51.4379234,58.8339359 52.5411574,60.0927185 C53.6438809,61.352012 54.576817,62.4069576 55.3371574,63.2621533 C54.4453277,64.3819793 53.5560511,65.5053815 52.668817,66.6326152" id="Fill-70" fill="#FFD900"></path>
            <path d="M56.9953787,55.0435136 C57.5080596,54.7359701 58.0212511,54.4289375 58.5341872,54.1224158 C58.4818468,54.003894 58.4026979,53.796481 58.2975064,53.4999212 C58.1925702,53.2036168 58.0715489,52.8605679 57.9352085,52.4710299 C57.1179319,50.3016223 56.3823574,48.269894 55.7244,46.3789103 C55.394017,45.4703288 55.065166,44.5604701 54.7378468,43.6498451 L54.4010809,43.8426984 C55.2400596,47.5881386 56.1048255,51.3220842 56.9953787,55.0435136 M57.8254213,58.3146114 C58.1810809,59.906481 58.5413362,61.4968179 58.9064426,63.0846005 C58.6023574,63.3075951 58.2497617,63.5668614 57.8466128,63.8626549 C57.4442298,64.1592147 57.043634,64.4488777 56.6440596,64.7324103 C56.2447404,65.0159429 55.8334213,65.3119918 55.4095915,65.6205571 C54.7689957,62.6493397 54.2445702,60.1294755 53.8232936,58.0665842 C53.4022723,56.0044592 53.0609106,54.3070951 52.7930809,52.9783234 C52.5252511,51.6498071 52.2612511,50.332019 52.0015915,49.0241929 C51.7416766,47.7166223 51.4952936,46.4506875 51.2609106,45.2274103 C51.0270383,44.0041332 50.8105277,42.8868614 50.6111234,41.8758505 C53.1957191,40.3575462 55.1177617,39.0921223 56.3746979,38.0642527 C57.0717191,40.1000679 57.9477191,42.4794429 59.0136766,45.1949701 C61.1221021,50.6129973 63.1342723,55.5584701 65.0256766,60.0487582 C64.6383574,60.3568125 64.2569106,60.6500516 63.8818468,60.9279647 C63.5075489,61.2068995 63.1225277,61.5026929 62.7283149,61.8153451 C62.3341021,62.1282527 61.9748681,62.4128071 61.6511234,62.667731 C60.9484851,60.7116114 60.3165702,58.9480897 59.7512936,57.3776766 C59.109166,57.6890516 58.4672936,58.0014484 57.8254213,58.3146114" id="Fill-72" fill="#FFD900"></path>
            <path d="M68.097166,53.5530772 C68.4586979,53.3816804 68.7066128,52.8981424 68.8419319,52.102463 C68.9685702,51.2878815 68.942783,50.522088 68.7645702,49.8032946 C69.8159745,49.8651098 70.867634,49.926925 71.9192936,49.9879739 C72.1758894,52.333887 72.0535915,54.354887 71.5452511,56.058637 C71.090783,57.572088 70.3764,58.5652185 69.3959745,59.0382837 C68.4732511,59.4829957 67.4655064,59.2837565 66.3742723,58.4316261 C65.2189532,57.5158924 64.1948681,56.0701315 63.3101872,54.0889793 C62.4257617,52.108338 61.7701021,50.0983217 61.3457617,48.0630174 C60.9209106,46.0287348 60.7442298,44.1093978 60.8118894,42.3116478 C60.8800596,40.5144087 61.2094213,38.9376098 61.7961447,37.5845717 C62.3831234,36.2320446 63.2563149,35.2971533 64.4113787,34.7798978 C65.157166,34.4457891 65.954783,34.5482185 66.8047404,35.0823326 C67.6475489,35.6432674 68.3394638,36.5625772 68.8825277,37.8397511 C68.9369106,37.9674685 68.9912936,38.0949304 69.0456766,38.2226478 C69.0957191,38.3406587 69.1429532,38.4722076 69.1871234,38.6155065 C68.3598894,39.4099087 67.5341872,40.2066098 66.7095064,41.0058652 C66.3242298,40.5941043 66.0112085,40.4421207 65.7704426,40.5519576 C65.5301872,40.6612837 65.3586128,40.963463 65.2569957,41.4572185 C65.1551234,41.9517402 65.1038043,42.5530337 65.1040596,43.260588 C65.1040596,43.9683978 65.1474638,44.7449196 65.2358043,45.5898978 C65.323634,46.4348761 65.4449106,47.2709141 65.5975915,48.0977565 C65.9144426,49.9356098 66.3007404,51.3578707 66.7495915,52.3640283 C67.1984426,53.3709522 67.6490809,53.7658543 68.097166,53.5530772" id="Fill-74" fill="#FFD900"></path>
            <path d="M84.8678043,50.629294 C84.1546979,50.9110386 83.4181021,51.2272668 82.6575064,51.579256 C81.8974213,51.9309897 81.1059319,52.3215495 80.2840596,52.7506799 C78.8690809,50.4080875 77.3729106,47.8509299 75.8019319,45.0735875 C75.7534213,45.3402614 75.7049106,45.6069353 75.6569106,45.8738647 C75.8198043,46.5221582 76.0329957,47.3104299 76.2977617,48.238169 C76.562017,49.1659082 76.8265277,50.0992668 77.0912936,51.0382451 C77.3560596,51.9774788 77.6435489,52.9815929 77.954017,54.0500766 C76.8632936,54.8539299 75.7738468,55.6611038 74.6854213,56.4715984 C71.8393787,46.0782125 69.6658468,38.3109516 67.9255915,33.2839951 C68.3016766,33.1871853 68.7117191,33.0584462 69.1557191,32.896756 C69.5999745,32.7355766 70.0355489,32.5841038 70.4619319,32.4425929 C70.8880596,32.3013375 71.3284851,32.1309625 71.7826979,31.9314679 C71.8008255,32.0165277 71.8406553,32.1733647 71.9016766,32.4022342 C71.9626979,32.6313592 72.0375064,32.9123375 72.1255915,33.2454245 C72.213166,33.5792777 72.3122298,33.9481255 72.4222723,34.3529897 C72.5323149,34.7575984 72.6745277,35.3001418 72.8499319,35.9783212 C73.0248255,36.6570114 73.2727404,37.5758103 73.5959745,38.7347179 C73.6355489,38.7050875 73.6753787,38.6759679 73.7149532,38.6465929 C73.7632085,37.6245984 73.8073787,36.5458973 73.8474638,35.4135549 C73.9368255,33.167006 74.0157191,31.6142179 74.0726553,30.7549353 C75.6842298,29.8437995 77.0869532,28.9727668 78.2798043,28.1374951 C77.6422723,33.8441636 77.3284851,37.9152832 77.2618468,40.3327179 C78.4495915,42.1892179 79.6822723,43.9443103 80.9578468,45.5990168 C82.2334213,47.2542342 83.5365702,48.931419 84.8678043,50.629294" id="Fill-76" fill="#FFD900"></path>
            <path d="M87.9397532,51.0865223 C87.5491149,51.2658375 87.192434,51.3312288 86.8727745,51.2824408 C86.5523489,51.2336527 86.256434,51.1217723 85.9842638,50.9473103 C85.3990723,50.5475549 84.9420511,49.9835549 84.613966,49.2558212 C84.0522638,48.0121092 84.0711574,46.9400495 84.6680936,46.0470495 C84.8669872,45.7497234 85.1554979,45.5157451 85.5336255,45.3448592 C86.4057957,44.9514897 87.1760936,44.9279897 87.8440085,45.2697614 C88.5119234,45.6112777 88.999583,46.1252125 89.3085191,46.8113103 C89.6777106,47.6304897 89.7525191,48.4322995 89.5329447,49.2208266 C89.2814553,50.0923701 88.7509021,50.7143538 87.9397532,51.0865223 M84.7577106,25.3816092 C84.9869872,28.2251092 85.3081787,31.0509842 85.7207745,33.856169 C86.1323489,36.6613538 86.5697106,39.4744571 87.0320936,42.2952234 C86.5949872,42.4901201 86.1703915,42.7028973 85.7580511,42.933044 C85.3454553,43.1637016 84.9297957,43.3964027 84.5103064,43.6306364 C83.9131149,41.0213701 83.3151574,38.4118484 82.7149021,35.8023266 C82.1151574,33.1933158 81.5457957,30.558506 81.0086043,27.898919 C81.2629021,27.7213918 81.5631574,27.5188321 81.9093702,27.2907288 C82.2558383,27.0633918 82.5994979,26.8314571 82.9421362,26.5944136 C83.2847745,26.357881 83.6197532,26.1356527 83.9480936,25.9284951 C84.276434,25.7210821 84.546817,25.5387016 84.7577106,25.3816092" id="Fill-78" fill="#FFD900"></path>
        </g>
    </g>
</svg>