<?xml version="1.0" encoding="UTF-8"?>
<svg width="120px" height="120px" viewBox="0 0 120 120" version="1.1" xmlns="http://www.w3.org/2000/svg" xmlns:xlink="http://www.w3.org/1999/xlink">
    <!-- Generator: Sketch 51.1 (57501) - http://www.bohemiancoding.com/sketch -->
    <title>Snow10</title>
    <desc>Created with Sketch.</desc>
    <defs>
        <polygon id="path-1" points="0 -1.42108547e-14 118.310178 -1.42108547e-14 118.310178 119.168787 0 119.168787"></polygon>
    </defs>
    <g id="Snow10" stroke="none" stroke-width="1" fill="none" fill-rule="evenodd">
        <g id="Group" transform="translate(1.000000, 0.000000)">
            <mask id="mask-2" fill="white">
                <use xlink:href="#path-1"></use>
            </mask>
            <g id="Clip-2"></g>
            <path d="M28.9789556,42.1410709 L31.8292889,48.1835906 L23.5795667,51.1382362 L12.6655667,41.7867402 L28.9789556,42.1410709 Z M23.9875667,24.1618583 L36.9274,30.3574488 L37.6338444,39.147685 L30.9934556,39.004063 L23.9875667,24.1618583 Z M55.1854,58.1114646 L32.5055111,58.788 L26.3581222,53.5183937 L36.1822333,49.9987087 L32.5092889,42.2166614 L38.7020111,42.3517795 L55.1854,58.1114646 Z M50.0608444,25.7568189 L47.8366778,32.0591811 L39.9288444,28.2730394 L38.7756778,13.8891024 L50.0608444,25.7568189 Z M52.5031778,28.3259528 L56.7919,32.8349291 L57.4690667,55.9117795 L40.8714,40.0415433 L40.2216222,31.9344567 L49.6386778,36.444378 L52.5031778,28.3259528 Z M59.1549,9.48973228 L63.9545667,23.0884724 L58.2822333,29.8056378 L53.6875111,24.9735118 L59.1549,9.48973228 Z M68.6711222,36.444378 L76.3947889,32.7461102 L76.2550111,39.308315 L60.6367333,56.2377638 L59.9463444,32.7413858 L65.1776222,26.5486299 L68.6711222,36.444378 Z M76.8226222,12.756189 L76.4703444,29.187685 L70.4740667,32.0591811 L67.5387333,23.7508346 L76.8226222,12.756189 Z M86.6051778,40.5130394 L82.1275667,49.9987087 L90.1855667,52.884378 L85.7098444,57.2034331 L63.4417333,57.8667402 L78.8720667,41.1413858 L86.6051778,40.5130394 Z M79.5841778,31.2182362 L94.3212889,24.1618583 L88.1710667,37.1955591 L79.4425111,37.9051654 L79.5841778,31.2182362 Z M104.5194,39.0569764 L92.7384,50.4248504 L86.4814556,48.1835906 L90.2384556,40.2172913 L104.5194,39.0569764 Z M108.887456,59.5835906 L95.3866222,64.4204409 L88.7188444,58.7048504 L93.5128444,54.0777638 L108.887456,59.5835906 Z M105.643289,77.3823307 L89.3308444,77.0289449 L86.4814556,70.9864252 L94.7302333,68.0308346 L105.643289,77.3823307 Z M94.3212889,95.0072126 L81.3805111,88.8125669 L80.6759556,80.0213858 L87.3172889,80.1650079 L94.3212889,95.0072126 Z M68.2489556,93.4131969 L70.4740667,87.1098898 L78.3819,90.8960315 L79.5341222,105.281858 L68.2489556,93.4131969 Z M85.8024,76.9533543 L79.3244556,76.811622 L62.8571222,61.0642205 L85.8042889,60.3820157 L91.9526222,65.6506772 L82.1275667,69.1684724 L85.8024,76.9533543 Z M65.8047333,90.8431181 L61.5160111,86.3341417 L60.8501778,63.5294173 L77.4610667,79.4157165 L78.0881778,87.2346142 L68.6711222,82.723748 L65.8047333,90.8431181 Z M59.1549,109.680283 L54.3533444,96.0815433 L60.0256778,89.364378 L64.6204,94.1965039 L59.1549,109.680283 Z M49.6386778,82.723748 L41.9131222,86.4239055 L42.0292889,81.0777638 L57.7070667,64.0831181 L58.3615667,86.4286299 L53.1321778,92.6204409 L49.6386778,82.723748 Z M41.4871778,106.412882 L41.8394556,89.9823307 L47.8366778,87.1098898 L50.7691778,95.4191811 L41.4871778,106.412882 Z M31.7055667,78.6560315 L36.1822333,69.1684724 L28.1232889,66.283748 L32.5980667,61.9646929 L55.9947889,61.2692598 L40.6220667,77.932252 L31.7055667,78.6560315 Z M38.7237333,87.9508346 L23.9875667,95.0072126 L30.1396778,81.9735118 L38.8682333,81.2639055 L38.7237333,87.9508346 Z M13.7904,80.1120945 L25.5723444,68.7451654 L31.8292889,70.9864252 L28.0713444,78.9527244 L13.7904,80.1120945 Z M9.42234444,59.5835906 L22.9212889,54.7495748 L29.5909556,60.4651654 L24.7950667,65.0903622 L9.42234444,59.5835906 Z M18.7043444,51.1363465 L10.5235667,49.9004409 C10.2562889,48.6465827 9.15128889,47.7054803 7.82717778,47.7054803 C6.30095556,47.7054803 5.06373333,48.9517795 5.06373333,50.4872126 C5.06373333,52.0235906 6.30095556,53.2698898 7.82717778,53.2698898 C8.69323333,53.2698898 9.45917778,52.8579213 9.96634444,52.227685 L17.4019556,53.3511496 L-0.000377777778,59.5835906 L20.1247889,66.7939843 L12.7685111,68.3861102 C12.2613444,67.7265827 11.4793444,67.2957165 10.5877889,67.2957165 C9.06251111,67.2957165 7.82717778,68.5410709 7.82717778,70.0774488 C7.82717778,71.6138268 9.06251111,72.860126 10.5877889,72.860126 C11.8939556,72.860126 12.9829,71.9435906 13.2700111,70.716189 L20.6121222,69.1278425 L5.19406667,84.0012283 L24.4947333,82.4327244 L18.1291778,86.9095748 C17.7268444,86.6790236 17.2678444,86.5354016 16.7710667,86.5354016 C15.2457889,86.5354016 14.0076222,87.7826457 14.0076222,89.3190236 C14.0076222,90.8544567 15.2457889,92.1007559 16.7710667,92.1007559 C18.2963444,92.1007559 19.5326222,90.8544567 19.5326222,89.3190236 C19.5326222,89.1621732 19.5127889,89.0109921 19.4882333,88.8617008 L25.3343444,84.7514646 L17.3264,101.718709 L36.7781778,92.4031181 L32.3119,99.2913071 C32.1900667,99.276189 32.0701222,99.2544567 31.9454556,99.2544567 C30.4192333,99.2544567 29.1839,100.500756 29.1839,102.037134 C29.1839,103.574457 30.4192333,104.818866 31.9454556,104.818866 C33.4726222,104.818866 34.7079556,103.574457 34.7079556,102.037134 C34.7079556,101.50611 34.5530667,101.015717 34.2952333,100.592409 L38.5952889,93.9621732 L38.1391222,115.283433 L50.6605667,100.455402 L49.8285111,107.360598 C48.7348444,107.731937 47.9434,108.760913 47.9434,109.986425 C47.9434,111.522803 49.1796778,112.768157 50.7049556,112.768157 C52.2302333,112.768157 53.4665111,111.522803 53.4665111,109.986425 C53.4665111,108.999024 52.9517889,108.135402 52.1801778,107.640283 L52.9187333,101.508 L59.1549,119.168787 L66.3619556,98.7546142 L68.4869556,107.953984 C67.9448444,108.461386 67.5982333,109.181386 67.5982333,109.986425 C67.5982333,111.522803 68.8354556,112.768157 70.3607333,112.768157 C71.8869556,112.768157 73.1241778,111.522803 73.1241778,109.986425 C73.1241778,108.585165 72.0909556,107.436189 70.7517333,107.243433 L68.7400667,98.5278425 L83.3950111,113.937921 L81.8621778,94.8106772 L86.8979556,102.103276 C86.6117889,102.541701 86.4427333,103.06422 86.4427333,103.626425 C86.4427333,105.162803 87.6799556,106.409102 89.2061778,106.409102 C90.7314556,106.409102 91.9667889,105.162803 91.9667889,103.626425 C91.9667889,102.089102 90.7314556,100.844693 89.2061778,100.844693 C89.1117333,100.844693 89.0210667,100.862646 88.9313444,100.872094 L83.8511778,93.5152441 L100.981511,101.718709 L91.9139,82.4979213 L100.596178,88.4478425 C100.574456,88.5867402 100.553678,88.7256378 100.553678,88.8702047 C100.553678,90.4056378 101.789956,91.651937 103.315233,91.651937 C104.8424,91.651937 106.078678,90.4056378 106.078678,88.8702047 C106.078678,87.3338268 104.8424,86.0884724 103.315233,86.0884724 C102.806178,86.0884724 102.337733,86.235874 101.927844,86.4777638 L92.8951778,80.2868976 L114.449289,80.7536693 L99.8104,68.2094173 L105.7774,69.1835906 C106.084344,70.3873701 107.157233,71.2802835 108.445456,71.2802835 C109.970733,71.2802835 111.206067,70.0349291 111.206067,68.4985512 C111.206067,66.9621732 109.970733,65.715874 108.445456,65.715874 C107.537844,65.715874 106.738844,66.1628031 106.235456,66.844063 L100.611289,65.923748 L118.310178,59.5835906 L97.8242333,52.2465827 L105.444011,50.7432756 C105.9474,51.4254803 106.748289,51.8742992 107.6559,51.8742992 C109.183067,51.8742992 110.4184,50.628 110.4184,49.091622 C110.4184,47.5552441 109.183067,46.3098898 107.6559,46.3098898 C106.367678,46.3098898 105.294789,47.2009134 104.989733,48.4028031 L97.9583444,49.7898898 L113.113844,35.1668976 L93.9850667,36.7231181 L99.2531778,32.9190236 C99.6479556,33.140126 100.096567,33.2752441 100.581067,33.2752441 C102.107289,33.2752441 103.344511,32.0298898 103.344511,30.4935118 C103.344511,28.9580787 102.107289,27.7117795 100.581067,27.7117795 C99.0557889,27.7117795 97.8185667,28.9580787 97.8185667,30.4935118 C97.8185667,30.6626457 97.8402889,30.8242205 97.8676778,30.9848504 L92.9065111,34.5678425 L100.981511,17.4503622 L81.6978444,26.6856378 L84.1789,22.0018583 C84.2214,22.003748 84.2620111,22.0141417 84.3045111,22.0141417 C85.8297889,22.0141417 87.0660667,20.7687874 87.0660667,19.2324094 C87.0660667,17.6960315 85.8297889,16.4506772 84.3045111,16.4506772 C82.7792333,16.4506772 81.5429556,17.6960315 81.5429556,19.2324094 C81.5429556,19.8503622 81.7497889,20.4182362 82.0888444,20.8802835 L79.7097889,25.372252 L80.1687889,3.8856378 L68.2527333,17.9974488 L69.1395667,11.4550866 C70.2521222,11.0979213 71.0643444,10.0585512 71.0643444,8.81697638 C71.0643444,7.28154331 69.8280667,6.03524409 68.3027889,6.03524409 C66.7765667,6.03524409 65.5393444,7.28154331 65.5393444,8.81697638 C65.5393444,9.79303937 66.0389556,10.6462677 66.7916778,11.1432756 L65.7641222,18.724063 L59.1549,-0.000661417323 L51.8080667,20.8084724 L49.6424556,11.0015433 C50.2875111,10.4903622 50.7106222,9.708 50.7106222,8.81697638 C50.7106222,7.28154331 49.4743444,6.03524409 47.9490667,6.03524409 C46.4237889,6.03524409 45.1856222,7.28154331 45.1856222,8.81697638 C45.1856222,10.1407559 46.1045667,11.2434331 47.3332889,11.5259528 L49.2788444,20.3369764 L34.9147889,5.23114961 L36.4740667,24.684378 L31.8311778,18.4217008 C32.0332889,18.0342992 32.1607889,17.5996535 32.1607889,17.131937 C32.1607889,15.5946142 30.9235667,14.3502047 29.3973444,14.3502047 C27.8720667,14.3502047 26.6348444,15.5946142 26.6348444,17.131937 C26.6348444,18.6673701 27.8720667,19.9146142 29.3973444,19.9146142 C29.5843444,19.9146142 29.7647333,19.8938268 29.9422889,19.8579213 L34.1157889,25.4894173 L17.3264,17.4503622 L26.7727333,37.467685 L20.0879556,33.1902047 C20.1484,32.9634331 20.1909,32.7281575 20.1909,32.4815433 C20.1909,30.9442205 18.9536778,29.6979213 17.4284,29.6979213 C15.9021778,29.6979213 14.6668444,30.9442205 14.6668444,32.4815433 C14.6668444,34.0169764 15.9021778,35.2632756 17.4284,35.2632756 C17.8222333,35.2632756 18.1971778,35.1763465 18.5400111,35.0251654 L24.5391222,38.8642205 L3.85862222,38.4172913 L18.7043444,51.1363465 Z" id="Fill-1" fill="#B0E1E7" mask="url(#mask-2)"></path>
        </g>
    </g>
</svg>