<?xml version="1.0" encoding="UTF-8"?>
<svg width="100px" height="100px" viewBox="0 0 100 100" version="1.1" xmlns="http://www.w3.org/2000/svg" xmlns:xlink="http://www.w3.org/1999/xlink">
    <!-- Generator: Sketch 48.2 (47327) - http://www.bohemiancoding.com/sketch -->
    <title>Neuron 组合 贴紧你</title>
    <desc>Created with Sketch.</desc>
    <defs>
        <polygon id="path-1" points="9.9063 0.0930460438 9.9063 3.91462416 0.140146418 3.91462416 0.140146418 0.0930460438 9.9063 0.0930460438"></polygon>
        <path d="M2.70831,0.342238176 C2.51908135,0.291717032 2.31176439,0.2706 2.0946,0.2706 C1.45509902,0.2706 0.730186078,0.453894539 0.13101,0.60830336 L0.13101,2.00546235 L2.70831,2.00546235 L2.70831,0.342238176 Z" id="path-3"></path>
        <path d="M2.88393,0.231015828 C2.69369557,0.228789041 2.49123824,0.220109035 2.2836,0.2115 C1.57725042,0.181847676 0.811715179,0.152276539 0.26583,0.377379411 L0.26583,1.54892964 L2.88393,1.54892964 L2.88393,0.231015828 Z" id="path-5"></path>
        <polygon id="path-7" points="0 26.8206388 0 0.178581092 35.7669502 0.178581092 35.7669502 26.8206388"></polygon>
    </defs>
    <g id="裁剪面板" stroke="none" stroke-width="1" fill="none" fill-rule="evenodd">
        <g id="Neuron-组合-贴紧你">
            <g id="Page-1" transform="translate(1.600000, 22.600000)">
                <g id="Group-36" transform="translate(56.100000, 0.721900)">
                    <g id="Group-3" transform="translate(30.600000, 37.800000)">
                        <mask id="mask-2" fill="white">
                            <use xlink:href="#path-1"></use>
                        </mask>
                        <g id="Clip-2"></g>
                        <path d="M9.90624,2.59188 C9.91884,3.22188 9.42744,3.76788 8.76324,3.83568 C4.06044,4.31748 0.87204,2.43978 0.73854,2.35968 C0.14154,2.00088 -0.03906,1.24428 0.33504,0.66978 C0.70854,0.09708 1.49274,-0.07842 2.08914,0.27648 C2.14224,0.30738 4.72854,1.78278 8.49714,1.39698 C9.19824,1.32498 9.82554,1.81278 9.89934,2.48598 C9.90324,2.52168 9.90534,2.55708 9.90624,2.59188" id="Fill-1" fill="#ACC953" mask="url(#mask-2)"></path>
                    </g>
                    <path d="M20.63124,2.85525 L20.57544,6.24345 L22.29744,4.57695 L20.63124,2.85525 Z M19.74534,8.91495 C19.64424,8.91345 19.54224,8.89215 19.44564,8.85015 C19.15374,8.72385 18.96714,8.43405 18.97224,8.11605 L19.08954,0.93165 C19.09494,0.61335 19.29114,0.32985 19.58724,0.21285 C19.88274,0.09645 20.21994,0.16905 20.44104,0.39765 L23.97444,4.04865 C24.27624,4.36065 24.26844,4.85835 23.95644,5.16045 L20.30544,8.69385 C20.15244,8.84175 19.94994,8.91855 19.74534,8.91495 Z" id="Fill-4" fill="#61B6F6"></path>
                    <path d="M16.09464,12.44853 C15.89334,12.44523 15.69354,12.36543 15.54234,12.20913 C15.24024,11.89713 15.24864,11.39913 15.56064,11.09703 L18.64674,8.11053 L15.65994,5.02473 C15.35784,4.71273 15.36594,4.21503 15.67794,3.91293 C15.98994,3.61083 16.48824,3.61893 16.79004,3.93093 L20.32374,7.58193 C20.46864,7.73163 20.54814,7.93323 20.54484,8.14173 C20.54124,8.35023 20.45514,8.54883 20.30514,8.69373 L16.65414,12.22743 C16.49844,12.37833 16.29594,12.45183 16.09464,12.44853" id="Fill-6" fill="#61B6F6"></path>
                    <path d="M20.51376,10.03974 L20.45796,13.42794 L22.17996,11.76144 L20.51376,10.03974 Z M19.62786,16.09944 C19.52676,16.09764 19.42476,16.07664 19.32816,16.03464 C19.03626,15.90834 18.84936,15.61854 18.85476,15.30024 L18.97206,8.11614 C18.97746,7.79784 19.17366,7.51434 19.46946,7.39734 C19.76496,7.28094 20.10216,7.35354 20.32356,7.58214 L23.85696,11.23314 C24.15876,11.54514 24.15066,12.04284 23.83866,12.34494 L20.18796,15.87834 C20.03496,16.02624 19.83246,16.10274 19.62786,16.09944 Z" id="Fill-8" fill="#61B6F6"></path>
                    <path d="M28.42482,52.41414 L28.91892,52.16604 C29.50422,51.87174 29.74032,51.15924 29.44602,50.57424 L23.57982,38.89824 L20.96652,40.21104 L26.83302,51.88704 C27.12702,52.47204 27.83982,52.70814 28.42482,52.41414" id="Fill-10" fill="#ACC953"></path>
                    <path d="M17.96553,53.98767 L18.51303,53.90907 C19.16133,53.81607 19.61103,53.21517 19.51803,52.56687 L17.65923,39.63267 L14.76483,40.04877 L16.62333,52.98267 C16.71663,53.63127 17.31753,54.08097 17.96553,53.98767" id="Fill-12" fill="#ACC953"></path>
                    <path d="M35.17452,33.45087 L35.35692,22.28967 C35.42322,18.25257 32.20392,14.92617 28.16682,14.85987 L7.83852,14.52747 C3.80112,14.46147 0.47472,17.68077 0.40872,21.71817 L0.22632,32.87937 C0.16002,36.91677 3.37962,40.24317 7.41672,40.30887 L27.74472,40.64157 C31.78212,40.70727 35.10852,37.48827 35.17452,33.45087" id="Fill-14" fill="#ACC953"></path>
                    <path d="M28.19745,17.25702 L7.72905,16.92222 C5.10495,16.87932 2.94285,18.97212 2.89995,21.59622 L2.71575,32.86092 C2.67285,35.48502 4.76535,37.64712 7.38975,37.69002 L27.85755,38.02482 C30.48195,38.06772 32.64405,35.97522 32.68695,33.35082 L32.87115,22.08642 C32.91435,19.46232 30.82155,17.30022 28.19745,17.25702" id="Fill-16" fill="#FFFFFF"></path>
                    <path d="M26.18976,30.18222 L24.69546,30.15762 C24.33876,30.15162 24.05436,29.85792 24.06006,29.50122 C24.06606,29.14482 24.35976,28.86072 24.71646,28.86612 L26.21076,28.89072 C26.56776,28.89672 26.85186,29.19042 26.84616,29.54712 C26.84016,29.90352 26.54616,30.18822 26.18976,30.18222" id="Fill-18" fill="#EEC6C7"></path>
                    <path d="M13.99785,29.98269 L12.50355,29.95839 C12.14685,29.95239 11.86245,29.65869 11.86815,29.30199 C11.87415,28.94529 12.16785,28.66119 12.52455,28.66689 L14.01885,28.69119 C14.37555,28.69719 14.65995,28.99089 14.65425,29.34759 C14.64825,29.70399 14.35425,29.98869 13.99785,29.98269" id="Fill-20" fill="#EEC6C7"></path>
                    <path d="M14.86239,24.25632 L14.84649,24.25632 C14.29209,24.25632 13.76409,24.47652 13.35849,24.87792 C12.91719,25.31472 12.66279,25.93422 12.66069,26.57682 C12.66039,26.74242 12.79419,26.87712 12.95979,26.87772 L12.96069,26.87772 C13.12599,26.87772 13.26039,26.74422 13.26069,26.57862 C13.26219,26.09442 13.45179,25.62972 13.78059,25.30452 C14.07549,25.01262 14.44689,24.84702 14.85759,24.85632 C15.73719,24.86322 16.45029,25.64832 16.44729,26.60622 C16.44669,26.77182 16.58079,26.90652 16.74639,26.90712 L16.74729,26.90712 C16.91259,26.90712 17.04669,26.77362 17.04729,26.60802 C17.05119,25.32072 16.07109,24.26562 14.86239,24.25632" id="Fill-22" fill="#514740"></path>
                    <path d="M12.75888,22.74462 C12.64638,22.74282 12.53448,22.70232 12.44388,22.62222 C12.24288,22.44372 12.22488,22.13622 12.40308,21.93552 C12.98658,21.27822 13.79388,20.88822 14.67708,20.83662 C15.58008,20.78472 16.45308,21.08922 17.13468,21.69732 C17.33508,21.87582 17.35278,22.18362 17.17398,22.38402 C16.99488,22.58442 16.68768,22.60182 16.48698,22.42332 C16.00008,21.98862 15.37668,21.76962 14.73378,21.80802 C14.11068,21.84432 13.54098,22.11882 13.13058,22.58142 C13.03278,22.69152 12.89568,22.74702 12.75888,22.74462" id="Fill-24" fill="#ACC953"></path>
                    <path d="M22.05507,26.05458 C21.96297,27.17418 22.73277,28.16718 23.77407,28.27218 C24.81567,28.37688 25.73487,27.55428 25.82667,26.43468 C25.91907,25.31478 25.14897,24.32208 24.10767,24.21708 C23.06607,24.11208 22.14747,24.93498 22.05507,26.05458" id="Fill-26" fill="#514740"></path>
                    <path d="M16.76436,26.67216 C16.85646,25.55256 16.08666,24.55956 15.04536,24.45456 C14.00376,24.34986 13.08456,25.17246 12.99276,26.29206" id="Stroke-28" stroke="#514740" stroke-width="0.6" stroke-linecap="round"></path>
                    <path d="M26.11503,22.96317 C26.22723,22.96497 26.34063,22.92837 26.43363,22.85097 C26.64033,22.67937 26.66853,22.37247 26.49663,22.16577 C25.93533,21.49017 25.14093,21.07347 24.25983,20.99337 C23.35893,20.91207 22.47663,21.18807 21.77583,21.77307 C21.56943,21.94497 21.54183,22.25217 21.71403,22.45827 C21.88623,22.66467 22.19313,22.69227 22.39923,22.51977 C22.90023,22.10187 23.53053,21.90297 24.17163,21.96237 C24.79353,22.01907 25.35333,22.31217 25.74843,22.78767 C25.84293,22.90107 25.97823,22.96077 26.11503,22.96317" id="Fill-30" fill="#ACC953"></path>
                    <path d="M23.48595,29.78319 C23.72955,32.08599 22.03455,33.51729 19.80285,33.75849 C17.57115,33.99999 15.37845,32.95209 15.13455,30.64989 C14.89095,28.34709 17.69115,29.16879 19.03755,29.00889 C20.10795,28.88169 23.24235,27.48039 23.48595,29.78319" id="Fill-32" fill="#514740"></path>
                    <path d="M20.30166,31.82487 C19.04826,31.86477 17.99436,32.56827 17.56116,33.53757 C18.24996,33.76677 19.02306,33.84327 19.80306,33.75867 C20.89446,33.64107 21.85536,33.23667 22.52586,32.58657 C21.95646,32.09277 21.16716,31.79697 20.30166,31.82487" id="Fill-34" fill="#DE6C6D"></path>
                </g>
                <g id="Group-43" transform="translate(71.700000, 28.921900)">
                    <g id="Group-39" transform="translate(4.200000, 0.000000)">
                        <mask id="mask-4" fill="white">
                            <use xlink:href="#path-3"></use>
                        </mask>
                        <g id="Clip-38"></g>
                        <path d="M2.70831,-0.39318 C2.70831,-0.39318 2.54181,1.88862 1.74471,2.00172 C1.07271,2.09742 0.13101,0.32592 0.13101,0.32592 L2.70831,-0.39318 Z" id="Fill-37" fill="#42AED2" mask="url(#mask-4)"></path>
                    </g>
                    <g id="Group-42" transform="translate(0.000000, 0.600000)">
                        <mask id="mask-6" fill="white">
                            <use xlink:href="#path-5"></use>
                        </mask>
                        <g id="Clip-41"></g>
                        <path d="M0.26583,-0.78078 C0.26583,-0.78078 0.57783,1.48602 1.38033,1.54782 C2.05743,1.60032 2.88393,-0.22758 2.88393,-0.22758 L0.26583,-0.78078 Z" id="Fill-40" fill="#42AED2" mask="url(#mask-6)"></path>
                    </g>
                </g>
                <g id="Group-157" transform="translate(0.000000, 0.021900)">
                    <path d="M69.03057,40.34656 C69.05847,40.34266 69.08667,40.33816 69.11427,40.33216 C69.74697,40.20106 70.15287,39.58186 70.02177,38.94946 C69.22767,35.12686 70.25337,32.34256 70.26387,32.31496 C70.49157,31.71256 70.18977,31.03726 69.58827,30.80716 C68.98677,30.57706 68.31327,30.87466 68.08107,31.47526 C68.02767,31.61266 66.78987,34.89106 67.73157,39.42526 C67.85727,40.02946 68.42817,40.42726 69.03057,40.34656" id="Fill-44" fill="#ACC953"></path>
                    <path d="M24.05358,42.57109 L11.03388,42.30049 C10.41768,42.28759 9.92868,41.77759 9.94158,41.16169 L9.97158,39.71179 C9.98448,39.09559 10.49418,38.60659 11.11038,38.61919 L24.13008,38.89009 C24.74628,38.90269 25.23528,39.41269 25.22238,40.02859 L25.19208,41.47879 C25.17948,42.09499 24.66978,42.58399 24.05358,42.57109" id="Fill-46" fill="#DBDCDC"></path>
                    <path d="M22.10196,52.75408 C21.74406,45.76258 19.44066,40.23058 19.33746,39.90778 L16.85196,40.70128 C16.87626,40.77718 19.15566,46.24048 19.49616,52.88728 L22.10196,52.75408 Z" id="Fill-48" fill="#DBDCDC"></path>
                    <path d="M8.82828,50.93533 C11.41908,44.43193 15.38118,39.93673 15.58308,39.66403 L17.68038,41.21593 C17.63298,41.27983 13.71528,45.71773 11.25228,51.90103 L8.82828,50.93533 Z" id="Fill-50" fill="#DBDCDC"></path>
                    <g id="Group-54" transform="translate(0.000000, 13.300000)">
                        <mask id="mask-8" fill="white">
                            <use xlink:href="#path-7"></use>
                        </mask>
                        <g id="Clip-53"></g>
                        <path d="M0.23871,7.42761 L0.00141,18.83301 C-0.08349,22.92051 3.16131,26.30301 7.24911,26.38791 L27.97281,26.81901 C32.06061,26.90391 35.44341,23.65911 35.52831,19.57131 L35.76531,8.16621 C35.85051,4.07871 32.60571,0.69621 28.51791,0.61101 L7.79421,0.18021 C3.70641,0.09531 0.32391,3.33981 0.23871,7.42761" id="Fill-52" fill="#F29739" mask="url(#mask-8)"></path>
                    </g>
                    <path d="M7.30293,37.09753 L28.02693,37.52863 C30.68373,37.58383 32.88243,35.47453 32.93763,32.81743 L33.17493,21.41233 C33.23013,18.75523 31.12113,16.55653 28.46403,16.50163 L7.74033,16.07053 C5.08323,16.01533 2.88453,18.12433 2.82933,20.78143 L2.59203,32.18653 C2.53683,34.84363 4.64613,37.04233 7.30293,37.09753" id="Fill-55" fill="#FFFFFF"></path>
                    <path d="M14.53353,23.4619 C14.51163,24.511 13.64373,25.3438 12.59463,25.3219 C11.54553,25.3003 10.71273,24.4321 10.73433,23.383 C10.75623,22.3339 11.62443,21.5011 12.67353,21.523 C13.72263,21.5446 14.55543,22.4131 14.53353,23.4619" id="Fill-57" fill="#514740"></path>
                    <path d="M25.13901,23.68249 C25.11711,24.73159 24.24891,25.56409 23.20011,25.54249 C22.15101,25.52059 21.31821,24.65239 21.33981,23.60329 C21.36171,22.55449 22.22991,21.72169 23.27901,21.74359 C24.32811,21.76519 25.16091,22.63339 25.13901,23.68249" id="Fill-59" fill="#514740"></path>
                    <path d="M14.48856,18.6115 C14.04276,18.1597 13.43166,17.8714 12.75006,17.8441 C12.06786,17.8429 11.44536,18.1057 10.98096,18.5389 C10.88826,18.6262 10.82886,18.7489 10.82586,18.8863 C10.82016,19.1578 11.03586,19.3828 11.30736,19.3885 C11.44386,19.3912 11.56866,19.3381 11.65956,19.2499 C11.94246,18.9898 12.31776,18.8299 12.72966,18.8257 C13.14096,18.8467 13.50906,19.0222 13.78116,19.294 C13.86846,19.3858 13.99056,19.444 14.12706,19.447 C14.39886,19.4527 14.62356,19.237 14.62896,18.9655 C14.63196,18.8281 14.57766,18.703 14.48856,18.6115" id="Fill-61" fill="#F29739"></path>
                    <path d="M25.09404,18.83212 C24.64824,18.38032 24.03714,18.09172 23.35554,18.06472 C22.67334,18.06352 22.05084,18.32602 21.58644,18.75922 C21.49374,18.84652 21.43434,18.96952 21.43134,19.10692 C21.42564,19.37842 21.64134,19.60312 21.91284,19.60912 C22.04934,19.61182 22.17414,19.55872 22.26504,19.47052 C22.54794,19.21042 22.92294,19.05052 23.33514,19.04602 C23.74644,19.06732 24.11454,19.24282 24.38664,19.51462 C24.47394,19.60642 24.59604,19.66462 24.73254,19.66762 C25.00404,19.67332 25.22904,19.45762 25.23444,19.18612 C25.23744,19.04872 25.18314,18.92332 25.09404,18.83212" id="Fill-63" fill="#F29739"></path>
                    <path d="M19.10532,51.91942 C19.12332,52.22392 19.87632,52.42702 20.78742,52.37362 C21.69852,52.31992 22.42272,52.02982 22.40472,51.72562 C22.38672,51.42112 21.63372,51.21772 20.72262,51.27142 C19.81152,51.32512 19.08732,51.61492 19.10532,51.91942" id="Fill-65" fill="#61B6F6"></path>
                    <path d="M19.65243,54.6994 C19.42983,54.7126 19.21983,54.5002 19.20123,54.2116 C19.20123,54.2098 19.20123,54.2077 19.20093,54.2059 C19.15953,53.5027 19.88193,52.888 20.81463,52.8331 C21.74703,52.7785 22.53633,53.3041 22.57773,54.0073 C22.57773,54.0094 22.57803,54.0112 22.57803,54.013 C22.59333,54.3019 22.40973,54.5374 22.18713,54.5503 L19.65243,54.6994 Z" id="Fill-67" fill="#61B6F6"></path>
                    <path d="M22.19394,52.01755 C22.19394,52.01755 22.00884,52.91035 22.29084,53.35795 C22.57284,53.80555 20.87634,53.88775 20.87634,53.88775 L20.75994,51.90655 L22.19394,52.01755 Z" id="Fill-69" fill="#61B6F6"></path>
                    <path d="M19.34892,52.18513 C19.34892,52.18513 19.63722,53.05003 19.40982,53.52733 C19.18242,54.00463 20.87652,53.88793 20.87652,53.88793 L20.76012,51.90643 L19.34892,52.18513 Z" id="Fill-71" fill="#61B6F6"></path>
                    <path d="M21.22494,28.32487 C21.17724,30.62197 19.62234,32.45287 17.75214,32.41387 C15.88164,32.37517 14.40444,30.48097 14.45214,28.18387 C14.49984,25.88647 16.05474,24.05587 17.92494,24.09457 C19.79514,24.13357 21.27264,26.02747 21.22494,28.32487" id="Fill-73" fill="#ED8283"></path>
                    <path d="M17.83941,29.22019 C17.83251,29.22019 17.82561,29.22019 17.81871,29.21989 C17.46561,29.21269 17.14371,29.01859 16.91151,28.67329 C16.69671,28.35379 16.58361,27.93709 16.59261,27.49939 C16.59531,27.37039 16.70061,27.26779 16.82901,27.26779 L16.83381,27.26779 C16.96461,27.27049 17.06841,27.37849 17.06541,27.50929 C17.05851,27.85039 17.14311,28.17019 17.30421,28.40959 C17.44761,28.62319 17.63391,28.74289 17.82831,28.74709 C18.24381,28.75099 18.62811,28.20409 18.64191,27.54169 C18.64461,27.41299 18.74991,27.31039 18.87801,27.31039 L18.88311,27.31039 C19.01391,27.31309 19.11741,27.42109 19.11471,27.55159 C19.09521,28.49239 18.53691,29.22019 17.83941,29.22019" id="Fill-75" fill="#D34A4A"></path>
                    <path d="M11.98896,51.03523 C11.87406,51.31753 11.09556,51.26743 10.25016,50.92333 C9.40476,50.57893 8.81286,50.07103 8.92776,49.78903 C9.04296,49.50643 9.82116,49.55653 10.66656,49.90063 C11.51196,50.24473 12.10386,50.75293 11.98896,51.03523" id="Fill-77" fill="#DC403E"></path>
                    <path d="M10.57554,53.49091 C10.78224,53.57491 11.04924,53.44141 11.15994,53.17411 C11.16054,53.17261 11.16114,53.17111 11.16204,53.16931 C11.42754,52.51651 10.94184,51.70201 10.07664,51.34951 C9.21144,50.99731 8.29464,51.24091 8.02914,51.89371 C8.02824,51.89551 8.02764,51.89701 8.02674,51.89851 C7.91934,52.16701 8.01744,52.44901 8.22384,52.53331 L10.57554,53.49091 Z" id="Fill-79" fill="#DC403E"></path>
                    <path d="M9.03336,50.13349 C9.03336,50.13349 8.92086,51.03829 8.50986,51.37099 C8.09886,51.70369 9.67806,52.32829 9.67806,52.32829 L10.42656,50.48989 L9.03336,50.13349 Z" id="Fill-81" fill="#DC403E"></path>
                    <path d="M11.6727,51.20809 C11.6727,51.20809 11.1213,51.93409 11.1828,52.45939 C11.2443,52.98469 9.6783,52.32829 9.6783,52.32829 L10.4265,50.48989 L11.6727,51.20809 Z" id="Fill-83" fill="#DC403E"></path>
                    <path d="M22.76904,30.38884 C21.76164,30.36784 20.95704,29.39014 20.98134,28.21594 C21.00594,27.04174 21.85014,26.09824 22.85784,26.11924" id="Fill-85" fill="#FFFFFF"></path>
                    <path d="M22.86411,25.81942 C22.29231,25.80262 21.74211,26.05582 21.32721,26.51932 C20.92431,26.96992 20.69481,27.57022 20.68131,28.20982 C20.66331,29.09572 21.06981,29.92162 21.74271,30.36562 C21.79371,30.39922 21.85101,30.41512 21.90771,30.41512 C22.00491,30.41512 22.10061,30.36772 22.15821,30.28042 C22.24941,30.14212 22.21131,29.95612 22.07301,29.86462 C21.57051,29.53342 21.26721,28.90372 21.28131,28.22212 C21.29151,27.72592 21.46671,27.26332 21.77451,26.91952 C22.07061,26.58832 22.45461,26.40382 22.85151,26.41942 C23.01921,26.41882 23.15421,26.29132 23.15781,26.12572 C23.16111,25.96012 23.02971,25.82302 22.86411,25.81942" id="Fill-87" fill="#9B9B9B"></path>
                    <path d="M12.82347,30.18202 C13.83117,30.20302 14.67567,29.25952 14.69997,28.08532 C14.72427,26.91142 13.91997,25.93342 12.91227,25.91242" id="Fill-89" fill="#FFFFFF"></path>
                    <path d="M14.42484,26.37577 C14.02974,25.89547 13.49454,25.62457 12.91854,25.61257 L12.91224,25.61257 C12.74934,25.61257 12.61554,25.74307 12.61224,25.90657 C12.60894,26.07187 12.74034,26.20897 12.90624,26.21257 C13.30464,26.22067 13.67934,26.41417 13.96164,26.75707 C14.25474,27.11347 14.41044,27.58267 14.39994,28.07917 C14.38584,28.76077 14.05644,29.37727 13.54074,29.68717 C13.39884,29.77267 13.35294,29.95717 13.43814,30.09907 C13.49454,30.19267 13.59384,30.24457 13.69554,30.24457 C13.74834,30.24457 13.80144,30.23077 13.84974,30.20167 C14.54094,29.78617 14.98134,28.97767 14.99994,28.09147 C15.01314,27.45217 14.80884,26.84287 14.42484,26.37577" id="Fill-91" fill="#9B9B9B"></path>
                    <path d="M9.05841,28.84843 L6.37131,28.79233 C5.88741,28.78243 5.49951,28.37833 5.50971,27.89413 C5.51991,27.41023 5.92401,27.02233 6.40821,27.03253 L9.09501,27.08833 C9.57891,27.09853 9.96681,27.50263 9.95691,27.98683 C9.94671,28.47073 9.54231,28.85833 9.05841,28.84843" id="Fill-93" fill="#F5BDBD"></path>
                    <path d="M29.2734,29.26882 L26.5863,29.21272 C26.1024,29.20282 25.7145,28.79872 25.7247,28.31452 C25.7349,27.83062 26.139,27.44272 26.6232,27.45262 L29.31,27.50872 C29.7939,27.51862 30.1818,27.92302 30.1719,28.40692 C30.1617,28.89112 29.7573,29.27872 29.2734,29.26882" id="Fill-95" fill="#F5BDBD"></path>
                    <polygon id="Fill-97" fill="#DBDCDC" points="37.8978 2.1874 31.1853 5.4187 30.753 0.0781"></polygon>
                    <path d="M22.28169,5.81638 C26.73099,1.51018 32.39889,1.76038 32.63769,1.77388 L32.54019,3.59758 C32.48919,3.59578 27.43509,3.37048 23.55189,7.12888 C21.82029,8.80468 20.58339,11.00968 19.84389,13.71538 L17.94309,13.75498 C18.74649,10.49128 20.19609,7.83508 22.28169,5.81638" id="Fill-99" fill="#DBDCDC"></path>
                    <path d="M22.32462,41.10067 C26.09862,40.04377 28.88472,37.51987 28.41672,33.62917" id="Stroke-101" stroke="#DBDCDC" stroke-width="2.4699" stroke-linecap="round"></path>
                    <path d="M30.44394,33.98359 C30.41154,33.62179 29.50704,33.40669 28.42404,33.50299 C27.34044,33.59989 26.48844,33.97159 26.52084,34.33339 C26.55294,34.69549 27.45744,34.91059 28.54074,34.81399 C29.62404,34.71709 30.47604,34.34539 30.44394,33.98359" id="Fill-103" fill="#006837"></path>
                    <path d="M26.76132,33.97771 C26.76132,33.97771 26.94942,32.90791 26.59782,32.38471 C26.24592,31.86181 28.26312,31.70251 28.26312,31.70251 L28.47342,34.05871 L26.76132,33.97771 Z" id="Fill-105" fill="#006837"></path>
                    <path d="M29.823,31.95388 C30.0981,31.92958 30.3648,32.17408 30.3975,32.51698 C30.3975,32.51938 30.3978,32.52148 30.3981,32.52358 C30.4725,33.35998 29.5995,34.12138 28.4481,34.22398 C27.297,34.32658 26.3031,33.73198 26.2284,32.89558 C26.2281,32.89348 26.2281,32.89108 26.2278,32.88898 C26.1993,32.54578 26.4183,32.25778 26.6934,32.23318 L29.823,31.95388 Z" id="Fill-107" fill="#006837"></path>
                    <path d="M30.14409,33.67597 C30.14409,33.67597 29.76969,32.65627 30.02349,32.07937 C30.27699,31.50247 28.26309,31.70257 28.26309,31.70257 L28.47339,34.05847 L30.14409,33.67597 Z" id="Fill-109" fill="#006837"></path>
                    <path d="M26.92671,33.26755 C26.63931,33.29335 26.36001,33.02695 26.32461,32.65495 C26.32461,32.65255 26.32431,32.65015 26.32401,32.64805 C26.24331,31.74085 27.15231,30.91855 28.35501,30.81115 C29.55771,30.70375 30.59811,31.35235 30.67881,32.25955 C30.67911,32.26165 30.67941,32.26435 30.67941,32.26675 C30.71061,32.63905 30.48291,32.95045 30.19551,32.97595 L26.92671,33.26755 Z" id="Fill-111" fill="#0F843B"></path>
                    <path d="M27.60816,32.79853 C27.72096,32.90023 27.69696,33.12733 27.53826,33.30493 C27.53736,33.30613 27.53646,33.30733 27.53526,33.30853 C27.14646,33.73993 26.44806,33.74383 25.97526,33.31753 C25.50246,32.89153 25.43436,32.19613 25.82346,31.76503 C25.82436,31.76383 25.82556,31.76263 25.82646,31.76173 C25.98696,31.58533 26.21016,31.53793 26.32326,31.63993 L27.60816,32.79853 Z" id="Fill-113" fill="#0F843B"></path>
                    <path d="M13.2546,40.92841 C9.6036,39.50431 7.0797,36.71851 7.9296,32.89261" id="Stroke-115" stroke="#DBDCDC" stroke-width="2.4699" stroke-linecap="round"></path>
                    <path d="M5.87706,33.04519 C5.94486,32.68849 6.86616,32.56369 7.93476,32.76649 C9.00306,32.96959 9.81456,33.42349 9.74646,33.78049 C9.67866,34.13749 8.75766,34.26229 7.68906,34.05919 C6.62046,33.85609 5.80926,33.40219 5.87706,33.04519" id="Fill-117" fill="#F1D800"></path>
                    <path d="M9.54222,33.40261 C9.54222,33.40261 9.46062,32.31961 9.86232,31.83391 C10.26402,31.34791 8.27202,30.99061 8.27202,30.99061 L7.83042,33.31411 L9.54222,33.40261 Z" id="Fill-119" fill="#F1D800"></path>
                    <path d="M6.69516,31.087 C6.42396,31.0354 6.13446,31.2526 6.06816,31.5907 C6.06786,31.5928 6.06726,31.5946 6.06696,31.597 C5.91006,32.422 6.70356,33.2659 7.83936,33.4813 C8.97486,33.6973 10.02276,33.2035 10.17936,32.3785 C10.17966,32.3764 10.18026,32.374 10.18056,32.3719 C10.24296,32.0329 10.05336,31.7248 9.78216,31.6735 L6.69516,31.087 Z" id="Fill-121" fill="#F1D800"></path>
                    <path d="M6.20577,32.76892 C6.20577,32.76892 6.67917,31.79092 6.48357,31.19182 C6.28797,30.59272 8.27217,30.99052 8.27217,30.99052 L7.83057,33.31402 L6.20577,32.76892 Z" id="Fill-123" fill="#F1D800"></path>
                    <path d="M9.44775,32.67985 C9.73095,32.73385 10.03515,32.49655 10.10715,32.12965 L10.10865,32.12275 C10.27875,31.22785 9.45495,30.31975 8.26875,30.09445 C7.08255,29.86915 5.98335,30.41155 5.81325,31.30645 L5.81205,31.31335 C5.74425,31.68115 5.94045,32.01325 6.22365,32.06725 L9.44775,32.67985 Z" id="Fill-125" fill="#FCEE21"></path>
                    <path d="M8.81583,32.14549 C8.69343,32.23579 8.69493,32.46409 8.83533,32.65669 C8.83623,32.65789 8.83713,32.65909 8.83803,32.66059 C9.18243,33.12769 9.87723,33.20089 10.38963,32.82349 C10.90203,32.44579 11.03853,31.76089 10.69413,31.29319 C10.69293,31.29199 10.69203,31.29079 10.69113,31.28959 C10.54893,31.09849 10.33143,31.02919 10.20903,31.11949 L8.81583,32.14549 Z" id="Fill-127" fill="#FCEE21"></path>
                    <path d="M55.01172,42.57487 C55.31622,42.36157 55.51662,41.99317 55.51512,41.57347 C55.51092,40.18597 55.14702,38.82637 54.46272,37.64137 C53.77872,36.45607 52.80312,35.49607 51.64182,34.86487 L51.28872,34.67287 C50.73312,34.37077 50.05692,34.60537 49.77852,35.19607 C49.49982,35.78707 49.72452,36.51127 50.28012,36.81337 L50.63292,37.00537 C51.42192,37.43407 52.08462,38.08627 52.54962,38.89147 C53.01462,39.69637 53.26152,40.62007 53.26452,41.56267 C53.26662,42.22657 53.77182,42.76717 54.39342,42.76987 C54.62202,42.77107 54.83442,42.69907 55.01172,42.57487" id="Fill-129" fill="#63B8F8"></path>
                    <path d="M38.81991,42.5614 C38.51961,42.3364 38.32641,41.9605 38.33541,41.5414 C38.36571,40.1545 38.75511,38.809 39.46131,37.6504 C40.16781,36.4918 41.16081,35.569 42.33381,34.9819 L42.69021,34.804 C43.25121,34.5229 43.92291,34.783 44.18991,35.3842 C44.45751,35.9857 44.21931,36.7009 43.65801,36.9817 L43.30161,37.1602 C42.50481,37.5589 41.83011,38.1856 41.35041,38.9728 C40.87041,39.7597 40.60611,40.6738 40.58541,41.6161 C40.57101,42.2794 40.05561,42.8005 39.43431,42.7801 C39.20571,42.7723 38.99481,42.6925 38.81991,42.5614" id="Fill-131" fill="#63B8F8"></path>
                    <path d="M50.50968,42.7996 C51.21858,42.7576 51.75948,42.1495 51.71778,41.4406 L51.43068,36.5527 L48.86358,36.7036 L49.15068,41.5915 C49.19238,42.3001 49.80078,42.8413 50.50968,42.7996" id="Fill-133" fill="#63B8F8"></path>
                    <path d="M43.76376,43.19569 C44.47266,43.15399 45.01356,42.54559 44.97186,41.83669 L44.68476,36.94879 L42.11766,37.09969 L42.40476,41.98759 C42.44646,42.69649 43.05486,43.23739 43.76376,43.19569" id="Fill-135" fill="#63B8F8"></path>
                    <path d="M58.28241,33.9487 L58.40781,20.6212 C58.43631,17.5876 56.15631,15.0844 53.31531,15.0304 L40.83501,14.7928 C37.99431,14.7391 35.66811,17.1547 35.63931,20.1883 L35.51421,33.5158 C35.48571,36.5497 37.76571,39.0529 40.60671,39.1066 L53.08701,39.3439 C55.92771,39.3982 58.25391,36.9826 58.28241,33.9487" id="Fill-137" fill="#61B6F6"></path>
                    <path d="M40.62915,36.70351 C39.03375,36.67291 37.74855,35.26231 37.76475,33.55861 L37.89015,20.23111 C37.90605,18.52741 39.21705,17.16601 40.81245,17.19631 L53.29275,17.43391 C54.88845,17.46391 56.17335,18.87481 56.15715,20.57851 L56.03175,33.90601 C56.01615,35.60971 54.70485,36.97141 53.10945,36.94081 L40.62915,36.70351 Z" id="Fill-139" fill="#FFFFFF"></path>
                    <path d="M46.83936,33.96103 C44.01396,33.90703 41.73816,31.40863 41.76636,28.39123 C41.79486,25.37383 44.11686,22.96273 46.94226,23.01673 C47.58516,23.02873 48.19986,23.16733 48.76506,23.41003 C50.68416,24.23413 52.03716,26.25523 52.01526,28.58623 C51.98676,31.60363 49.66506,34.01473 46.83936,33.96103" id="Fill-141" fill="#6D6D6D"></path>
                    <path d="M49.5477,28.53904 C49.533,30.10624 48.3315,31.35364 46.8642,31.32574 C45.3969,31.29784 44.2194,30.00514 44.2341,28.43824 C44.2488,26.87104 45.4503,25.62364 46.9176,25.65154 C48.3849,25.67944 49.5624,26.97214 49.5477,28.53904" id="Fill-143" fill="#27221F"></path>
                    <path d="M42.55425,29.26708 C42.57225,27.34828 41.12985,25.76458 39.33285,25.73038 L39.26745,32.68018 C41.06475,32.71438 42.53595,31.18618 42.55425,29.26708" id="Fill-145" fill="#FFFFFF"></path>
                    <path d="M51.27549,30.00535 C51.29349,28.08625 52.76499,26.55835 54.56199,26.59225 L54.49659,33.54205 C52.69959,33.50785 51.25749,31.92415 51.27549,30.00535" id="Fill-147" fill="#FFFFFF"></path>
                    <path d="M40.4355,29.5114 C40.4499,27.9589 39.2835,26.6782 37.8297,26.6503 L37.7769,32.2723 C39.2304,32.2999 40.4208,31.0639 40.4355,29.5114" id="Fill-149" fill="#EF92B7"></path>
                    <path d="M53.43819,29.75866 C53.45289,28.20616 54.64329,26.97016 56.09679,26.99776 L56.04429,32.61946 C54.59049,32.59186 53.42349,31.31116 53.43819,29.75866" id="Fill-151" fill="#EF92B7"></path>
                    <path d="M41.70726,24.5737 C41.69556,25.735 40.90176,26.6608 39.93366,26.6422 C38.96556,26.623 38.19036,25.6663 38.20176,24.505 C38.21346,23.3434 39.00726,22.4176 39.97536,22.4368 C40.94346,22.4557 41.71866,23.4124 41.70726,24.5737" id="Fill-153" fill="#514740"></path>
                    <path d="M55.84347,24.85114 C55.83207,26.01244 55.03767,26.93854 54.06987,26.91964 C53.10177,26.90044 52.32627,25.94374 52.33797,24.78244 C52.34967,23.62114 53.14347,22.69504 54.11157,22.71424 C55.07937,22.73314 55.85487,23.69014 55.84347,24.85114" id="Fill-155" fill="#514740"></path>
                </g>
            </g>
        </g>
    </g>
</svg>