<?xml version="1.0" encoding="UTF-8"?>
<svg width="120px" height="120px" viewBox="0 0 120 120" version="1.1" xmlns="http://www.w3.org/2000/svg" xmlns:xlink="http://www.w3.org/1999/xlink">
    <!-- Generator: Sketch 51.1 (57501) - http://www.bohemiancoding.com/sketch -->
    <title>Sheep7</title>
    <desc>Created with Sketch.</desc>
    <defs>
        <polygon id="path-1" points="0 0.244638024 14.4667963 0.244638024 14.4667963 11.5978366 0 11.5978366"></polygon>
        <polygon id="path-3" points="0.465275676 0.396684036 9.22544972 0.396684036 9.22544972 31.1351351 0.465275676 31.1351351"></polygon>
        <polygon id="path-5" points="0.465210811 0.147048649 9.15775135 0.147048649 9.15775135 30.4864865 0.465210811 30.4864865"></polygon>
        <polygon id="path-7" points="0.465016216 0.206724324 9.22536572 0.206724324 9.22536572 5.83783784 0.465016216 5.83783784"></polygon>
        <polygon id="path-9" points="0.282188684 0.6196222 36.3113514 0.6196222 36.3113514 44.7477609 0.282188684 44.7477609"></polygon>
        <polygon id="path-11" points="0.196524183 0.415783784 45.7441049 0.415783784 45.7441049 31.7100973 0.196524183 31.7100973"></polygon>
    </defs>
    <g id="Sheep7" stroke="none" stroke-width="1" fill="none" fill-rule="evenodd">
        <g id="Group" transform="translate(0.000000, 12.000000)">
            <g id="Group-3" transform="translate(0.000000, 32.016649)">
                <mask id="mask-2" fill="white">
                    <use xlink:href="#path-1"></use>
                </mask>
                <g id="Clip-2"></g>
                <path d="M1.17035676,0.409945946 C5.21273514,3.78421622 9.83954595,2.02054054 9.83954595,2.02054054 C11.5565189,0.956756757 19.2339243,9.22508108 10.0081946,11.3811892 C3.11370811,12.9924324 0.763005405,5.21967568 0.0151135135,1.18897297 C-0.116562162,0.48 0.639762162,-0.0337297297 1.17035676,0.409945946" id="Fill-1" fill="#FFFFEA" mask="url(#mask-2)"></path>
            </g>
            <path d="M0.316151351,32.4062919 C1.32155676,36.5868324 3.85582703,42.6231568 10.0089081,41.1851027 C12.6138811,40.5760216 13.8709622,39.4798054 14.2951784,38.2441297 C14.8724757,40.2646703 14.1180973,42.4376432 10.0089081,43.3976432 C3.11442162,45.0095351 0.76307027,37.2361297 0.015827027,33.205427 C-0.0477405405,32.8655351 0.0943135135,32.5723459 0.316151351,32.4062919" id="Fill-4" fill="#EDEAB4"></path>
            <g id="Group-8" transform="translate(57.081081, 64.449081)">
                <mask id="mask-4" fill="white">
                    <use xlink:href="#path-3"></use>
                </mask>
                <g id="Clip-7"></g>
                <path d="M5.73749189,2.35777297 C5.73749189,2.35777297 10.0711135,23.8552865 9.07738378,29.6029622 C9.07738378,29.6029622 5.61035676,32.8403676 0.465275676,29.9039351 C0.465275676,29.9039351 2.07716757,18.3171243 1.14376216,2.7300973 C1.08473514,1.7448 1.87803243,0.802313514 3.12603243,0.490962162 C4.20214054,0.222421622 5.37035676,0.435178378 5.73749189,2.35777297" id="Fill-6" fill="#F5CFA3" mask="url(#mask-4)"></path>
            </g>
            <g id="Group-11" transform="translate(57.081081, 65.097730)">
                <mask id="mask-6" fill="white">
                    <use xlink:href="#path-5"></use>
                </mask>
                <g id="Clip-10"></g>
                <path d="M1.1436973,2.08131892 C1.09829189,1.31980541 1.56272432,0.585535135 2.35148108,0.147048649 C2.34045405,0.261210811 2.33980541,0.376021622 2.35212973,0.491481081 C3.57677838,12.1256432 3.27256216,21.5809946 3.04358919,25.5928865 C2.96380541,26.9855351 3.90499459,28.2406703 5.26845405,28.5351568 C6.83234595,28.8731027 8.14585946,28.6856432 9.15775135,28.3412108 C9.13634595,28.5611027 9.10975135,28.7667243 9.07731892,28.9541838 C9.07731892,28.9541838 5.61029189,32.1915892 0.465210811,29.2551568 C0.465210811,29.2551568 2.0771027,17.6683459 1.1436973,2.08131892" id="Fill-9" fill="#E5B483" mask="url(#mask-6)"></path>
            </g>
            <g id="Group-14" transform="translate(57.081081, 89.746378)">
                <mask id="mask-8" fill="white">
                    <use xlink:href="#path-7"></use>
                </mask>
                <g id="Clip-13"></g>
                <path d="M0.465016216,4.60650811 C0.465016216,4.60650811 0.653124324,3.25407568 0.863286486,0.853427027 C4.29204324,1.77385946 7.33615135,1.48650811 9.16988108,0.206724324 C9.26134054,1.90423784 9.24577297,3.33191351 9.07777297,4.30553514 C9.07777297,4.30553514 5.6100973,7.54294054 0.465016216,4.60650811" id="Fill-12" fill="#8A5E3C" mask="url(#mask-8)"></path>
            </g>
            <path d="M62.5506162,93.2671784 L63.6831568,95.3298811 C63.0604541,95.5030703 62.3326703,95.6107459 61.5147243,95.5763676 L62.5506162,93.2671784 Z" id="Fill-15" fill="#603913"></path>
            <path d="M35.7627892,62.0709405 C35.7627892,62.0709405 37.1599784,83.9563459 35.4008432,89.5178595 C35.4008432,89.5178595 31.5290595,92.2584 26.8263568,88.6551568 C26.8263568,88.6551568 29.9852757,77.391373 31.160627,61.8205622 C31.2352216,60.8359135 32.1485189,60.0095351 33.4263568,59.8687784 C34.5290595,59.7481297 35.6577081,60.1159135 35.7627892,62.0709405" id="Fill-17" fill="#F5CFA3"></path>
            <path d="M31.1604973,61.8206919 C31.218227,61.059827 31.7780108,60.3949622 32.6180108,60.0667459 C32.5920649,60.1783135 32.5758486,60.2924757 32.5726054,60.4079351 C32.2177946,72.1011243 30.6428757,81.4293405 29.8748757,85.373773 C29.6076324,86.7424216 30.3717405,88.1130162 31.6833081,88.5891243 C33.1868757,89.1346378 34.5140108,89.1255568 35.5628757,88.9205838 C35.5122811,89.1359351 35.4577946,89.3357189 35.4007135,89.5179892 C35.4007135,89.5179892 31.5289297,92.2578811 26.826227,88.6552865 C26.826227,88.6552865 29.9851459,77.3908541 31.1604973,61.8206919" id="Fill-19" fill="#E5B483"></path>
            <path d="M26.8261622,88.6550919 C26.8261622,88.6550919 27.1945946,87.3409297 27.7271351,84.990227 C31.0002162,86.3640649 34.0553514,86.4899027 36.0447568,85.4689297 C35.9065946,87.1632 35.699027,88.5753081 35.4006486,89.5177946 C35.4006486,89.5177946 31.5288649,92.2583351 26.8261622,88.6550919" id="Fill-21" fill="#8A5E3C"></path>
            <path d="M31.9317405,88.253773 L32.7756324,90.4507459 C32.1347676,90.5376649 31.3998486,90.5467459 30.5935784,90.4027459 L31.9317405,88.253773 Z" id="Fill-23" fill="#603913"></path>
            <path d="M68.5281081,62.9536216 C68.5281081,62.9536216 68.7661622,84.9441081 71.0221622,90.3227027 C71.0221622,90.3227027 74.5942703,92.8037838 78.9505946,88.7899459 C78.9505946,88.7899459 75.6703784,77.687027 73.0887568,62.2868108 C72.9252973,61.3131892 71.9406486,60.5730811 70.655027,60.5484324 C69.5458378,60.5283243 68.4554595,60.9966486 68.5281081,62.9536216" id="Fill-25" fill="#F5CFA3"></path>
            <path d="M68.5281081,62.9536216 C68.4580541,61.0595676 69.4777297,60.5614054 70.5486486,60.5497297 C70.4468108,60.8623784 70.3955676,61.2457297 70.4130811,61.7166486 C70.4130811,61.7166486 70.6511351,83.7071351 72.9071351,89.0863784 C72.9071351,89.0863784 75.2805405,90.7332973 78.5172973,89.1694054 C74.3601081,92.6396757 71.0221622,90.3227027 71.0221622,90.3227027 C68.7661622,84.9441081 68.5281081,62.9536216 68.5281081,62.9536216" id="Fill-27" fill="#E5B483"></path>
            <path d="M78.9508541,88.7896865 C78.9508541,88.7896865 78.6706378,87.3399568 77.9279351,85.0469838 C74.3688,86.1334703 71.8870703,86.4072 70.0131243,86.3494703 C70.3050162,88.0236324 70.6397189,89.4110919 71.021773,90.3230919 C71.021773,90.3230919 74.5945297,92.8035243 78.9508541,88.7896865" id="Fill-29" fill="#8A5E3C"></path>
            <path d="M74.7171892,88.6810378 L74.0756757,90.9454703 C74.7210811,90.9740108 75.4547027,90.9162811 76.2441081,90.6996324 L74.7171892,88.6810378 Z" id="Fill-31" fill="#603913"></path>
            <path d="M41.7336649,59.3606919 C41.7336649,59.3606919 39.0060973,81.1831784 40.5168,86.8166919 C40.5168,86.8166919 43.721773,89.7563676 48.5795027,86.3658811 C48.5795027,86.3658811 46.8255568,74.9224216 46.3423135,59.3146378 C46.311827,58.3280432 45.4361514,57.4614486 44.1654486,57.2649081 C43.0692324,57.0949622 41.9250162,57.4121514 41.7336649,59.3606919" id="Fill-33" fill="#F5CFA3"></path>
            <path d="M41.7336649,59.3606919 C41.9191784,57.4750703 42.9965838,57.1183135 44.0590703,57.2512865 C43.9170162,57.5477189 43.8145297,57.9200432 43.7684757,58.3890162 C43.7684757,58.3890162 41.0409081,80.2115027 42.5509622,85.8450162 C42.5509622,85.8450162 44.6811243,87.7968 48.0988541,86.6837189 C43.5116108,89.5624216 40.5168,86.8166919 40.5168,86.8166919 C39.0060973,81.1831784 41.7336649,59.3606919 41.7336649,59.3606919" id="Fill-35" fill="#E5B483"></path>
            <path d="M48.5796324,86.3658162 C48.5796324,86.3658162 48.4979027,84.8914378 48.0704432,82.5199784 C44.3971459,83.1160865 41.9011459,83.0531676 40.0524973,82.7437622 C40.1160649,84.4419243 40.2607135,85.8618162 40.5162811,86.816627 C40.5162811,86.816627 43.7219027,89.7563027 48.5796324,86.3658162" id="Fill-37" fill="#8A5E3C"></path>
            <path d="M44.3992216,85.6876541 L43.4580324,87.8450595 C44.0943568,87.9605189 44.828627,88.0020324 45.6400865,87.8937081 L44.3992216,85.6876541 Z" id="Fill-39" fill="#603913"></path>
            <path d="M100.691027,15.3732973 C104.092541,14.1875676 104.684108,9.66259459 101.478486,7.63881081 C99.9587027,6.67945946 97.824,6.19037838 96.0966486,6.66843243 C95.1509189,6.92983784 94.1837838,7.37351351 93.4034595,7.99881081 C92.9532973,8.36010811 92.8462703,8.81156757 92.1768649,8.8692973 C91.8265946,8.89913514 91.2836757,6.88702703 91.0624865,6.59383784 C90.300973,5.58518919 88.7156757,5.69351351 87.5896216,5.67794595 C84.6441081,5.63837838 82.8875676,7.49286486 81.4060541,10.0660541 C81.059027,7.02389189 78.2899459,9.99989189 77.2676757,10.8042162 C75.8185946,9.43686486 73.4490811,8.79535135 71.5855135,9.43816216 C70.7448649,9.72810811 69.5876757,10.2223784 68.8611892,10.7361081 C68.328,11.112973 68.2274595,11.6935135 67.5275676,11.8803243 C68.7145946,2.69675676 55.2707027,3.78324324 51.9956757,9.58151351 C52.9576216,8.43794595 51.2185946,7.52854054 50.3798919,7.25351351 C48.3593514,6.59124324 46.7948108,7.84767568 45.1342703,8.85956757 C46.2006486,5.74864865 40.547027,5.57221622 38.9461622,5.96918919 C37.2428108,6.39145946 35.3202162,7.236 34.1085405,8.60335135 C33.3256216,9.48616216 32.7872432,10.6628108 32.123027,11.6370811 C31.8862703,8.80248649 28.2012973,9.14886486 26.5336216,9.67037838 C22.5100541,10.9287568 20.1392432,14.4347027 20.1347027,18.8837838 C19.2752432,16.8262703 14.268973,20.5748108 13.4568649,21.6632432 C11.8462703,23.8219459 10.7922162,26.8011892 13.2992432,28.5019459 C11.3811892,28.0641081 9.89254054,30.288973 9.23481081,31.9144865 C8.87481081,32.8050811 8.58097297,33.852 8.65102703,34.8347027 C8.68151351,35.2660541 9.71610811,37.9903784 10.0384865,37.752973 C7.99978378,39.2532973 5.31243243,41.4833514 5.45643243,44.4210811 C5.55308108,46.4001081 6.44367568,47.7252973 8.14637838,48.4932973 C10.1292973,49.3871351 11.7502703,48.6184865 13.5995676,48.0366486 C11.771027,49.5797838 11.2962162,53.8504865 12.1900541,56.0811892 C13.4646486,59.2634595 17.0250811,60.0528649 19.6968649,58.6602162 C19.6391351,60.6398919 19.9634595,61.9508108 21.0311351,63.5477838 C22.3997838,65.5955676 25.1779459,65.8427027 27.4177297,65.8420541 C27.8633514,65.855027 28.3692973,66.6282162 28.764973,67.1062703 C29.4538378,67.9391351 30.1161081,68.4476757 31.2544865,68.6182703 C34.1662703,69.0535135 36.0246486,67.7172973 37.8395676,65.6461622 C39.0908108,68.2530811 41.8391351,69.6022703 44.3435676,70.5356757 C46.884973,71.4833514 48.5876757,69.3343784 50.2735135,67.6485405 C50.9104865,68.0721081 51.2134054,68.7395676 51.7582703,69.3142703 C52.2032432,69.7838919 52.9887568,70.0751351 53.5336216,70.4189189 C54.5753514,71.0766486 55.848,71.6682162 57.168,71.327027 C58.5658378,70.9650811 61.3712432,68.7025946 61.476973,67.1672432 C61.9394595,67.3650811 62.2955676,67.8204324 62.7139459,68.1914595 C63.0629189,68.5008649 63.6473514,68.7330811 64.0761081,68.9737297 C64.9725405,69.4770811 65.8248649,69.9207568 66.8088649,69.5802162 C68.3351351,69.0515676 70.5366486,67.559027 70.9076757,65.7311351 C72.8503784,67.1678919 74.4214054,68.8238919 77.0730811,68.6124324 C79.7318919,68.4003243 80.832,65.484 80.9883243,62.9549189 C83.531027,65.1771892 89.9072432,60.3188108 89.8235676,57.048973 C90.9671351,56.5358919 92.0153514,56.8342703 92.9902703,55.4935135 C93.6583784,54.5743784 93.9100541,53.1694054 93.8711351,52.0083243 C95.2722162,52.175027 96.9444324,50.6785946 97.5872432,49.4610811 C98.0834595,48.5218378 98.3883243,47.4184865 98.4499459,46.3579459 C98.52,45.1767568 97.7675676,44.6708108 97.6637838,43.6764324 C97.5781622,42.8494054 97.9751351,42.9888649 98.3662703,42.396 C98.9072432,41.5741622 99.5980541,39.8597838 99.6343784,38.8796757 C99.6985946,37.1361081 97.9595676,34.2476757 96.4417297,33.5374054 C97.2214054,32.016973 98.2683243,31.3702703 98.6464865,29.4496216 C98.891027,28.2061622 98.7100541,27.3395676 98.2787027,26.1843243 C98.0069189,25.4558919 97.2486486,24.4381622 97.1078919,23.7343784 C96.8341622,22.3676757 99.7757838,20.6435676 100.606703,19.2308108 C101.145081,18.3155676 101.582919,16.1562162 100.691027,15.3732973" id="Fill-41" fill="#FFFFEA"></path>
            <path d="M10.0385514,37.7529081 C9.71617297,37.9903135 8.68157838,35.2659892 8.65109189,34.8346378 C8.58103784,33.8519351 8.87487568,32.8050162 9.23487568,31.9144216 C9.89195676,30.2889081 11.3812541,28.0640432 13.2993081,28.5018811 C10.7922811,26.8011243 11.8463351,23.8218811 13.4569297,21.6631784 C14.2690378,20.5747459 19.2753081,16.8262054 20.1341189,18.8837189 C20.1347676,18.6281514 20.1438486,18.3751784 20.1594162,18.1260973 C20.1639568,18.5632865 20.2482811,18.9868541 20.4324973,19.383827 C20.7003892,19.959827 20.490227,20.6409081 19.964173,20.9483676 C18.9393081,21.5483676 18.1576865,22.8482595 17.7367135,23.8886919 C17.3968216,24.7286919 17.1198486,25.7165838 17.1860108,26.6441514 C17.2028757,26.8835027 17.5479568,27.8713946 17.8904432,28.5991784 C18.1362811,29.1193946 18.0026595,29.7563676 17.5674162,30.1046919 C15.8491459,31.4804757 14.058227,33.3453405 14.1723892,35.6856649 C14.2638486,37.5524757 15.1038486,38.8030703 16.7099027,39.5269622 C17.6257946,39.9401514 18.4599568,39.9771243 19.2785514,39.8422054 C20.0958486,39.7079351 20.7620108,40.553773 20.5057946,41.3996108 C19.9732541,43.1542054 19.9784432,45.3219892 20.5239568,46.6848 C21.5306595,49.1976649 24.0493622,50.1284757 26.3215784,49.5939892 C26.9643892,49.4422054 27.5760649,49.9345297 27.6603892,50.6363676 C27.7940108,51.7423135 28.1553081,52.6679351 28.8629838,53.7271784 C30.1544432,55.6588541 32.7749838,55.8917189 34.8869838,55.8910703 C35.3079568,55.9033946 35.7847135,56.6331243 36.1583351,57.0839351 C36.8082811,57.8694486 37.4322811,58.3494486 38.5064432,58.5103135 C40.7650378,58.8476108 42.3516324,58.0556108 43.796173,56.6772324 C44.2664432,56.2283676 44.996173,56.2854486 45.3937946,56.8089081 C46.7300108,58.5667459 48.8724973,59.5805838 50.8528216,60.3193946 C52.8623351,61.0685838 54.3159568,59.7654486 55.6696865,58.3877189 C56.1464432,57.9031784 56.9053622,57.9583135 57.3153081,58.5090162 C57.4794162,58.7289081 57.6454703,58.9546378 57.8465514,59.1667459 C58.2668757,59.6091243 59.0076324,59.8841514 59.5213622,60.2084757 C60.5040649,60.8292324 61.7040649,61.3870703 62.9501189,61.0646919 C63.9406054,60.8084757 65.6809297,59.5403676 66.5274162,58.3105297 C66.9192,57.7416649 67.6625514,57.6450162 68.1691459,58.0971243 C68.1736865,58.1003676 68.1769297,58.1042595 68.1808216,58.1075027 C68.5103351,58.3993946 69.0616865,58.6179892 69.4657946,58.8456649 C70.3109838,59.3204757 71.1153081,59.7388541 72.0428757,59.4171243 C73.1572541,59.031827 74.6523892,58.1016649 75.4346595,56.9016649 C75.7901189,56.3561514 76.4977946,56.2355027 76.9992,56.6253405 C78.3892541,57.7059892 79.7345514,58.6633946 81.7252541,58.5044757 C83.7412541,58.3436108 84.8076324,56.5351784 85.2247135,54.5931243 C85.3557405,53.9827459 85.8934703,53.5559351 86.4688216,53.6571243 C89.2255784,54.1423135 93.8219027,50.295827 93.7518486,47.5974486 C94.8312,47.1135568 95.8197405,47.3950703 96.7395243,46.1302054 C97.3693622,45.2636108 97.6067676,43.937773 97.5697946,42.8428541 C97.6949838,42.857773 97.8221189,42.8545297 97.9499027,42.8428541 C97.7455784,43.0199351 97.6100108,43.1587459 97.6638486,43.6763676 C97.7676324,44.6713946 98.5200649,45.1766919 98.4500108,46.3578811 C98.3883892,47.4184216 98.0835243,48.5224216 97.5873081,49.4610162 C96.9438486,50.6785297 95.2722811,52.1749622 93.8712,52.0082595 C93.9101189,53.1693405 93.6584432,54.5743135 92.9903351,55.4934486 C92.0154162,56.8342054 90.9672,56.535827 89.8229838,57.0489081 C89.9073081,60.3187459 83.5310919,65.1771243 80.9883892,62.9555027 C80.8320649,65.4839351 79.7319568,68.4002595 77.0731459,68.6123676 C74.4214703,68.823827 72.8497946,67.167827 70.9083892,65.7310703 C70.5367135,67.5589622 68.3352,69.0515027 66.8089297,69.5801514 C65.8242811,69.9206919 64.9726054,69.4770162 64.076173,68.9736649 C63.6474162,68.7330162 63.0629838,68.5008 62.7140108,68.1913946 C62.2956324,67.8203676 61.9395243,67.3650162 61.4770378,67.1671784 C61.3713081,68.7025297 58.5659027,70.9650162 57.1680649,71.3269622 C55.8480649,71.6681514 54.5754162,71.0765838 53.5336865,70.4188541 C52.9888216,70.0750703 52.2033081,69.783827 51.7576865,69.3142054 C51.2134703,68.7395027 50.9105514,68.0720432 50.2735784,67.6484757 C48.5877405,69.3343135 46.8850378,71.4832865 44.3436324,70.5362595 C41.8392,69.6022054 39.0908757,68.2530162 37.8396324,65.6460973 C36.0247135,67.7172324 34.1663351,69.0534486 31.2545514,68.6182054 C30.116173,68.4476108 29.4539027,67.9390703 28.7650378,67.1062054 C28.3693622,66.6281514 27.8634162,65.8549622 27.4171459,65.8419892 C25.1780108,65.8426378 22.3998486,65.5955027 21.0312,63.5477189 C19.9635243,61.9507459 19.6392,60.639827 19.6969297,58.6601514 C17.0251459,60.0521514 13.4647135,59.2633946 12.1901189,56.0811243 C11.2962811,53.8504216 11.7704432,49.5797189 13.5996324,48.0365838 C11.7503351,48.6184216 10.1293622,49.3870703 8.14644324,48.4932324 C6.44374054,47.7252324 5.55314595,46.4000432 5.4564973,44.4210162 C5.3124973,41.4832865 7.9992,39.2532324 10.0385514,37.7529081" id="Fill-43" fill="#F4F3CB"></path>
            <g id="Group-47" transform="translate(83.675676, 13.854486)">
                <mask id="mask-10" fill="white">
                    <use xlink:href="#path-9"></use>
                </mask>
                <g id="Clip-46"></g>
                <path d="M18.7788324,2.99850811 C24.9675892,6.25148108 31.1148324,11.5204541 34.3587243,17.7604541 C38.3349405,25.4086703 36.0588324,36.6607784 29.1721297,41.9569946 C18.5245622,50.1461838 7.17580541,38.6300757 2.90575135,29.0813189 C-2.76019459,16.4119135 -0.0209513514,-6.88300541 18.7788324,2.99850811" id="Fill-45" fill="#F5CFA3" mask="url(#mask-10)"></path>
            </g>
            <path d="M94.8237405,33.3799135 C94.8237405,35.8279135 95.9783351,37.8121297 97.4027676,37.8121297 C98.8265514,37.8121297 99.9811459,35.8279135 99.9811459,33.3799135 C99.9811459,30.9325622 98.8265514,28.9476973 97.4027676,28.9476973 C95.9783351,28.9476973 94.8237405,30.9325622 94.8237405,33.3799135" id="Fill-48" fill="#3C2415"></path>
            <path d="M83.9822919,31.2265297 C83.9803459,31.1642595 83.9777514,31.1026378 83.9758054,31.0403676 C83.9686703,30.8126919 83.9628324,30.5856649 83.9602378,30.3592865 C83.9595892,30.3339892 83.9602378,30.3086919 83.9595892,30.2833946 C83.9576432,30.0771243 83.9582919,29.8715027 83.9602378,29.6658811 C83.9608865,29.6062054 83.9615351,29.5471784 83.9628324,29.4881514 C83.9660757,29.2604757 83.9712649,29.0334486 83.9796973,28.8070703 L83.9803459,28.8064216 C83.9887784,28.5774486 84.0004541,28.349773 84.0140757,28.1227459 C84.0179676,28.0682595 84.0212108,28.013773 84.0244541,27.9592865 C84.0380757,27.7536649 84.0536432,27.5480432 84.0718054,27.3430703 C84.0737514,27.3223135 84.0750486,27.3009081 84.0769946,27.2801514 C84.0971027,27.0544216 84.1204541,26.8306378 84.1464,26.6075027 C84.1515892,26.5608 84.157427,26.5140973 84.1632649,26.4673946 C84.1866162,26.2708541 84.2119135,26.0762595 84.2398054,25.8823135 C84.2443459,25.851827 84.2482378,25.8213405 84.2527784,25.7908541 C84.2852108,25.5696649 84.3202378,25.3504216 84.3585081,25.1324757 C84.3643459,25.0955027 84.3714811,25.0585297 84.3779676,25.0215568 C84.4123459,24.8302054 84.4486703,24.6408 84.4869405,24.4526919 C84.4940757,24.4183135 84.5012108,24.3832865 84.5083459,24.3482595 C84.5531027,24.1329081 84.6011027,23.9195027 84.6523459,23.7080432 C84.6581838,23.6840432 84.6640216,23.6606919 84.6698595,23.6366919 C84.7159135,23.4466378 84.7652108,23.2585297 84.8164541,23.0717189 C84.8261838,23.0360432 84.8359135,22.9997189 84.8462919,22.9640432 C84.9040216,22.755827 84.9649946,22.5495568 85.0292108,22.3458811 C85.0318054,22.3393946 85.0337514,22.3335568 85.0356973,22.3270703 C85.0973189,22.1331243 85.1621838,21.941773 85.2296432,21.7523676 C85.2419676,21.7173405 85.2542919,21.6829622 85.2666162,21.6479351 C85.4086703,21.2561514 85.5630486,20.8753946 85.7291027,20.5063135 C85.743373,20.4745297 85.7576432,20.4427459 85.7725622,20.4116108 C88.2977514,14.9110703 93.5900757,12.1938811 102.453859,16.8531243 C106.003265,18.7186378 109.537103,21.2483676 112.519589,24.2431784 C112.053859,24.2542054 111.621859,24.243827 111.255373,24.2243676 C110.129968,26.7852324 109.358076,26.6613405 106.955481,25.7532324 C106.429427,27.3404757 104.674832,28.2576649 103.144022,28.4652324 C100.455373,28.8317189 98.7695351,27.7063135 96.8177514,26.403827 L96.7107243,26.3324757 C96.7496432,27.2068541 96.6893189,29.3208 95.2824,30.0635027 C94.0532108,30.6745297 90.9805622,30.7134486 90.0756973,29.8072865 C89.7046703,31.4885838 88.5864,32.6321514 86.9835892,32.957773 C86.8726703,32.979827 86.7221838,33.0051243 86.5502919,33.0239351 C86.9738595,34.7662054 87.5304,36.4319351 88.2069405,37.9458811 C92.4776432,47.4946378 103.8264,59.0107459 114.473968,50.8209081 C116.649535,49.1473946 118.363265,46.8790703 119.567157,44.3182054 C118.67267,48.8529081 116.362184,53.1080432 112.847805,55.8109622 C102.200238,64.0008 90.8514811,52.4846919 86.5807784,42.9359351 C85.1466162,39.7283676 84.2521297,35.8397189 84.0192649,31.9809081 C84.0192649,31.9802595 84.0186162,31.9796108 84.0186162,31.9789622 C84.0173189,31.9633946 84.0166703,31.947827 84.0160216,31.9322595 C84.0127784,31.8855568 84.0108324,31.8382054 84.0088865,31.7915027 C83.9978595,31.6027459 83.989427,31.4146378 83.9822919,31.2265297" id="Fill-50" fill="#E5B483"></path>
            <path d="M106.05347,31.6243459 C106.05347,33.8881297 107.121146,35.7238054 108.438551,35.7238054 C109.755957,35.7238054 110.823632,33.8881297 110.823632,31.6243459 C110.823632,29.3605622 109.755957,27.5248865 108.438551,27.5248865 C107.121146,27.5248865 106.05347,29.3605622 106.05347,31.6243459" id="Fill-52" fill="#3C2415"></path>
            <path d="M109.139286,55.4574486 C109.139286,55.4574486 108.972584,55.4496649 108.681341,55.4353946 C108.391395,55.4230703 107.978854,55.3971243 107.492368,55.3633946 C107.248476,55.3445838 106.986422,55.3251243 106.711395,55.2959351 C106.436368,55.2719351 106.148368,55.2349622 105.853232,55.1979892 C105.558097,55.157773 105.255827,55.1091243 104.952259,55.0533405 C104.649341,54.9975568 104.345124,54.9300973 104.046097,54.8522595 C103.896259,54.8152865 103.749665,54.7698811 103.601773,54.7303135 C103.457773,54.6803676 103.311827,54.6375568 103.170422,54.5876108 C102.889557,54.485773 102.613232,54.3845838 102.356368,54.2665297 C102.291503,54.2379892 102.227286,54.2100973 102.163719,54.1822054 C102.102097,54.149773 102.041124,54.1192865 101.978854,54.0900973 C101.917881,54.0602595 101.855611,54.0323676 101.797232,54.0012324 C101.739503,53.9675027 101.681773,53.9363676 101.624692,53.9052324 C101.566962,53.8747459 101.509232,53.8455568 101.454097,53.8131243 C101.401557,53.7787459 101.347719,53.7469622 101.29453,53.7151784 C101.186854,53.6535568 101.085665,53.5893405 100.990962,53.5231784 C100.794422,53.3979892 100.62707,53.2650162 100.467503,53.1508541 C100.313773,53.0276108 100.179503,52.9199351 100.069232,52.8317189 C99.9654486,52.7344216 99.8759351,52.6604757 99.8149622,52.6092324 C99.7552865,52.5573405 99.7196108,52.5307459 99.7196108,52.5307459 L99.7131243,52.5262054 C99.6716108,52.4950703 99.6119351,52.5041514 99.5808,52.5456649 C99.5632865,52.5690162 99.5587459,52.5975568 99.5645838,52.6235027 C99.5645838,52.6235027 99.5743135,52.6669622 99.5989622,52.7448 C99.6236108,52.8226378 99.6586378,52.9387459 99.713773,53.0840432 C99.7740973,53.2254486 99.8525838,53.3973405 99.9583135,53.5873946 C100.071827,53.7709622 100.202205,53.9830703 100.378638,54.1867459 C100.422097,54.2386378 100.463611,54.2950703 100.510962,54.3463135 C100.559611,54.3969081 100.610205,54.4475027 100.6608,54.5000432 C100.760692,54.6070703 100.872259,54.7095568 100.992908,54.8075027 C101.109665,54.9112865 101.2368,55.0079351 101.371719,55.0993946 C101.437881,55.1467459 101.505989,55.1940973 101.575395,55.2401514 C101.647395,55.2816649 101.719395,55.3244757 101.792692,55.3672865 C101.936692,55.4574486 102.092368,55.5288 102.248692,55.6046919 C102.40307,55.6851243 102.569124,55.7402595 102.732584,55.8064216 C103.062097,55.9303135 103.405881,56.0237189 103.750314,56.1015568 C104.096043,56.1729081 104.442422,56.2325838 104.785557,56.2604757 C105.126746,56.2968 105.464043,56.3039351 105.788368,56.3032865 C106.437016,56.2961514 107.035719,56.2241514 107.539719,56.1275027 C108.549665,55.9348541 109.175611,55.6345297 109.175611,55.6345297 C109.221665,55.6124757 109.241773,55.5566919 109.219719,55.5106378 C109.204151,55.4782054 109.172368,55.4593946 109.139286,55.4574486" id="Fill-54" fill="#3C2415"></path>
            <path d="M115.274854,41.8528865 C114.030097,45.2511568 111.336259,46.1741838 111.336259,46.1741838 C111.336259,46.1741838 108.286962,46.6425081 105.112476,43.8286703 C103.832043,42.6202378 103.920908,45.0118054 105.222746,45.7759135 C106.459719,46.5017514 108.168259,46.7424 109.034205,47.8438054 C109.772368,48.7830486 110.217341,49.6522378 111.552259,49.4576432 C111.564584,49.5069405 111.573665,49.5484541 111.585341,49.6009946 C111.618422,49.7514811 111.654097,49.9142919 111.692368,50.0868324 C111.7248,50.259373 111.768259,50.4409946 111.798097,50.6304 C111.833124,50.8191568 111.869449,51.0144 111.896043,51.2128865 C111.93107,51.411373 111.954422,51.6131027 111.977773,51.8148324 C112.009557,52.0172108 112.014097,52.2176432 112.036151,52.4167784 C112.053665,52.6159135 112.05107,52.8085622 112.065341,52.9992649 C112.066638,53.1867243 112.058854,53.3670486 112.056908,53.5408865 C112.042638,53.7114811 112.029016,53.8729946 112.016692,54.0221838 C111.991395,54.169427 111.968692,54.3043459 111.948584,54.4236973 C111.934962,54.5482378 111.894097,54.6429405 111.873341,54.7285622 C111.826638,54.9004541 111.799395,54.9990486 111.799395,54.9990486 L111.791611,55.0275892 C111.761773,55.1372108 111.826638,55.2507243 111.936908,55.2812108 C112.02253,55.3039135 112.110097,55.2701838 112.158746,55.2020757 C112.158746,55.2020757 112.224908,55.1106162 112.335827,54.9426162 C112.390314,54.8582919 112.464908,54.7558054 112.518097,54.6280216 C112.575178,54.5021838 112.648476,54.3581838 112.7088,54.1966703 C112.760043,54.0345081 112.81907,53.857427 112.874854,53.667373 C112.911827,53.4773189 112.956584,53.2749405 112.991611,53.0647784 C113.016908,52.8559135 113.049341,52.6366703 113.059719,52.4161297 C113.069449,52.1962378 113.08307,51.9698595 113.075935,51.7480216 C113.072692,51.3004541 113.034422,50.857427 112.981881,50.4455351 C112.95853,50.2386162 112.918962,50.0427243 112.89107,49.8546162 C112.857989,49.6671568 112.819719,49.4920216 112.785989,49.3298595 C112.763286,49.2403459 112.745773,49.1547243 112.726962,49.0736432 C113.712908,48.5209946 113.72653,47.6213189 113.921124,46.5646703 C114.155935,45.2855351 115.296259,44.4306162 115.8768,43.4239135 C116.456043,42.4178595 115.710097,40.5380757 115.274854,41.8528865" id="Fill-56" fill="#D9807E"></path>
            <path d="M87.4440649,26.7673946 C87.0743351,25.2631784 86.2726054,24.1033946 84.7508757,23.7291243 C79.9884973,22.5563676 77.8499027,29.5111784 77.0624432,32.849773 C75.9046054,37.7561514 74.8187676,42.5613405 71.2803892,46.3831784 C69.1833081,48.6482595 69.5686054,52.1710703 72.104173,53.9431784 C75.5562811,56.3561514 79.3664432,53.6694486 81.4252541,50.7693405 C84.3616865,46.6322595 85.9035243,41.5325838 86.7636324,36.5827459 C87.1417946,34.407827 88.2042811,29.8595027 87.4440649,26.7673946" id="Fill-58" fill="#B48C52"></path>
            <path d="M70.7787243,50.8111135 C74.2314811,53.2247351 78.0416432,50.5380324 80.1004541,47.6372757 C82.9895351,43.5670054 84.5268324,38.564627 85.395373,33.6906811 C84.4211027,34.0999784 83.3702919,34.2569514 82.8876973,33.3799784 C82.8876973,33.3799784 78.5307243,37.1466811 77.1562378,32.4640865 C78.0124541,29.0061405 80.1653189,22.6000865 84.7512649,23.7287351 C85.3817514,23.8837622 85.8870486,24.1756541 86.2905081,24.5687351 L86.2905081,24.5693838 C86.5726703,24.8444108 86.8055351,25.1700324 86.9942919,25.5358703 C86.9994811,25.5468973 87.0053189,25.5592216 87.0111568,25.5708973 C87.049427,25.6461405 87.0857514,25.7226811 87.1201297,25.8005189 C87.1298595,25.8232216 87.1395892,25.8459243 87.1486703,25.8679784 C87.1778595,25.9380324 87.2064,26.0087351 87.2329946,26.0807351 C87.243373,26.1079784 87.2531027,26.1352216 87.2634811,26.1631135 C87.2887784,26.2344649 87.3121297,26.3071135 87.3348324,26.3804108 C87.3439135,26.4076541 87.3529946,26.4348973 87.3607784,26.4627892 C87.3906162,26.5620324 87.4185081,26.662573 87.4431568,26.7657081 C87.4431568,26.7657081 87.4438054,26.7670054 87.4438054,26.7670054 C87.4684541,26.8681946 87.4918054,26.9706811 87.5125622,27.0744649 C87.5196973,27.1088432 87.5255351,27.1451676 87.5320216,27.1795459 C87.5449946,27.2496 87.5586162,27.3196541 87.5702919,27.3910054 C87.5767784,27.4325189 87.5826162,27.4753297 87.5891027,27.5174919 C87.5988324,27.5830054 87.6085622,27.6491676 87.6169946,27.7153297 C87.6228324,27.7600865 87.627373,27.8054919 87.6325622,27.8508973 C87.6403459,27.9157622 87.6474811,27.9812757 87.6539676,28.0467892 C87.6578595,28.0934919 87.6617514,28.1401946 87.6662919,28.1868973 C87.6714811,28.2530595 87.6766703,28.3192216 87.6812108,28.3853838 C87.6838054,28.4327351 87.6870486,28.4794378 87.6896432,28.5274378 C87.6935351,28.5948973 87.6967784,28.6623568 87.699373,28.7304649 C87.7013189,28.7771676 87.7026162,28.8238703 87.7045622,28.870573 C87.7065081,28.9412757 87.7078054,29.0119784 87.7091027,29.0833297 C87.7097514,29.1280865 87.7104,29.1728432 87.7110486,29.2176 C87.7110486,29.2928432 87.7110486,29.3680865 87.7104,29.4433297 C87.7104,29.4848432 87.7104,29.5263568 87.7097514,29.5672216 C87.7084541,29.6489514 87.7065081,29.7313297 87.7039135,29.8137081 C87.7026162,29.8493838 87.7019676,29.8844108 87.7006703,29.9194378 C87.697427,30.0141405 87.6935351,30.1088432 87.6889946,30.2041946 C87.6876973,30.2268973 87.6870486,30.2496 87.6857514,30.2723027 C87.6481297,31.006573 87.5702919,31.7466811 87.4736432,32.4621405 C87.4736432,32.4627892 87.4736432,32.4634378 87.4736432,32.4640865 C87.2537514,34.0896 86.9372108,35.5860324 86.7640216,36.5830054 C85.9039135,41.5321946 84.361427,46.6318703 81.4256432,50.7696 C79.3668324,53.6697081 75.5566703,56.3564108 72.1039135,53.9427892 C70.7527784,52.9990054 70.0126703,51.5570595 69.9328865,50.0742486 C70.1813189,50.3427892 70.4634811,50.590573 70.7787243,50.8111135" id="Fill-60" fill="#A07338"></path>
            <g id="Group-64" transform="translate(71.351351, 0.232865)">
                <mask id="mask-12" fill="white">
                    <use xlink:href="#path-11"></use>
                </mask>
                <g id="Clip-63"></g>
                <path d="M0.270227027,18.0060973 C0.946767568,14.3003676 3.1404973,13.0646919 6.46287568,12.2973405 C6.39282162,11.4768 6.35779459,9.96220541 6.79952432,8.42555676 C7.2684973,6.7980973 8.13314595,5.60782703 9.36947027,4.88847568 C11.4723892,3.63528649 14.3212541,3.35766486 15.8546595,4.25604324 C16.4819027,4.62382703 16.8749838,5.15507027 17.0267676,5.8380973 C17.3478486,5.21344865 17.5223351,4.56998919 17.6916324,3.94469189 C18.1489297,2.25561081 18.5439568,0.797448649 21.5536865,0.606097297 C23.0137946,0.456908108 26.934227,1.05042162 27.9214703,2.57928649 C28.0557405,2.7875027 28.1348757,3.0060973 28.1588757,3.23312432 C28.9735784,1.61604324 30.6094703,0.93107027 31.9100108,0.642421622 C33.7119568,0.242205405 35.8589838,0.375827027 37.8010378,1.00955676 C39.4096865,1.54404324 40.3904432,2.34642162 40.7990919,3.46274595 C41.4730378,5.30166486 40.3878486,7.6128 39.5167135,9.46988108 L39.488173,9.52955676 C43.5564973,10.8009081 45.7768216,13.1302054 45.7437405,16.1003676 C45.7093622,17.5689081 45.2663351,18.761773 44.4276324,19.6445838 C42.7333622,21.4264216 39.8034162,21.5308541 38.1629838,21.4270703 C37.0615784,24.3012324 36.3065514,24.161773 33.9552,23.1427459 C33.4408216,24.9239351 31.7244973,25.9533405 30.2267676,26.1855568 C27.5958486,26.5974486 25.9469838,25.3345297 24.0373622,23.8731243 L23.9322811,23.7926919 C23.9705514,24.7740973 23.9115243,27.1462054 22.5350919,27.9790703 C21.3324973,28.6653405 18.3260108,28.7088 17.4406054,27.6917189 C17.0773622,29.5779892 15.9837405,30.8610162 14.4153081,31.2268541 C13.9294703,31.337773 12.7184432,31.5193946 11.9647135,30.8246919 C11.6371459,30.5224216 11.4451459,30.0988541 11.3913081,29.5611243 C11.2336865,29.7913946 11.0987676,30.0281514 10.9670919,30.2590703 C10.544173,31.0030703 10.1420108,31.7100973 9.14957838,31.7100973 C9.01206486,31.7100973 8.86287568,31.6964757 8.70071351,31.6672865 C7.92752432,31.5446919 7.31974054,31.0750703 6.98763243,30.3453405 C6.76060541,29.8452324 6.67563243,29.2465297 6.73011892,28.6342054 C6.17292973,29.5643676 5.30374054,30.3395027 4.54222703,30.7643676 L4.49941622,30.7883676 L4.45855135,30.7604757 C2.91411892,29.7077189 2.11692973,28.5077189 1.94892973,26.9859892 C1.80752432,25.7036108 2.09552432,24.1455568 2.91217297,21.7909622 C1.83217297,21.5762595 1.03368649,21.0871784 0.597794595,20.3710703 C0.216389189,19.7431784 0.106118919,18.9479351 0.270227027,18.0060973" id="Fill-62" fill="#FFFFF5" mask="url(#mask-12)"></path>
            </g>
            <path d="M96.2071784,20.5092324 L96.305773,20.5870703 C98.0934486,22.0050162 99.6365838,23.2309622 102.098854,22.8313946 C103.501232,22.6056649 105.107286,21.6067459 105.588584,19.8787459 C107.7888,20.8672865 108.495827,21.0028541 109.527178,18.2130162 C111.06253,18.3142054 113.804368,18.2130162 115.390314,16.4830703 C116.013016,15.8039351 116.398314,14.9328 116.549449,13.8923676 C116.91853,14.6441514 117.104692,15.4608 117.095611,16.3332324 C117.060584,17.801773 116.617557,18.9946378 115.778854,19.8774486 C114.084584,21.6592865 111.154638,21.7637189 109.514205,21.6599351 C108.4128,24.5340973 107.657773,24.3946378 105.306422,23.3756108 C104.792043,25.1568 103.075719,26.1862054 101.577989,26.4184216 C98.9516108,26.8296649 97.3033946,25.5712865 95.3970162,24.1131243 C96.1993946,23.0992865 96.2376649,21.3187459 96.2071784,20.5092324" id="Fill-65" fill="#F4F3CB"></path>
            <path d="M71.6215784,18.2389622 C72.0185514,16.0653405 72.9376865,14.7427459 74.2998486,13.8644757 C74.2057946,14.1842595 74.1253622,14.5254486 74.0604973,14.8932324 C73.9061189,15.8071784 74.0099027,16.5797189 74.3673081,17.1888 C74.7746595,17.8828541 75.5225514,18.3583135 76.5331459,18.5665297 C75.7690378,20.8510703 75.4992,22.3637189 75.6315243,23.607827 C75.7884973,25.0848 76.5350919,26.2491243 77.9802811,27.2707459 L78.0185514,27.2973405 L78.0587676,27.2746378 C78.7709838,26.8620973 79.5850378,26.1103135 80.1072,25.2073946 C80.0553081,25.8015568 80.1350919,26.3833946 80.3478486,26.8685838 C80.6585514,27.5762595 81.2280649,28.0316108 81.9506595,28.1509622 C82.1024432,28.1788541 82.2425514,28.1924757 82.3716324,28.1924757 C83.2998486,28.1924757 83.6767135,27.5062054 84.0723892,26.7842595 C84.1956324,26.5604757 84.3221189,26.3302054 84.4693622,26.1070703 C84.5193081,26.6285838 84.6996324,27.039827 85.0057946,27.3330162 C85.7115243,28.0076108 86.8453622,27.8311784 87.3000649,27.7235027 C88.7679568,27.3686919 89.7915243,26.1232865 90.1314162,24.2928 C90.9603892,25.2800432 93.7735784,25.2378811 94.8996324,24.5717189 C95.0455784,24.4802595 95.1733622,24.3673946 95.2894703,24.2415568 C95.3076324,25.3189622 95.1707676,27.4348541 93.8864432,28.2119351 C92.6838486,28.8982054 89.6773622,28.9416649 88.7919568,27.9245838 C88.4287135,29.8108541 87.3350919,31.0938811 85.7666595,31.4597189 C85.2808216,31.5706378 84.0697946,31.7522595 83.3160649,31.0575568 C82.9884973,30.7552865 82.7964973,30.3317189 82.7426595,29.7939892 C82.5850378,30.0242595 82.4501189,30.2610162 82.3184432,30.4919351 C81.8955243,31.2359351 81.4933622,31.9429622 80.5009297,31.9429622 C80.3634162,31.9429622 80.214227,31.9293405 80.0520649,31.9001514 C79.2788757,31.7775568 78.6710919,31.3079351 78.3389838,30.5782054 C78.1119568,30.0780973 78.0269838,29.4793946 78.0814703,28.8670703 C77.5242811,29.7972324 76.6550919,30.5723676 75.8935784,30.9972324 L75.8507676,31.0212324 L75.8099027,30.9933405 C74.2654703,29.9405838 73.4682811,28.7405838 73.3002811,27.2188541 C73.1588757,25.9364757 73.4468757,24.3784216 74.2635243,22.023827 C73.1835243,21.8091243 72.3850378,21.3200432 71.9491459,20.6039351 C71.5677405,19.9760432 71.4574703,19.1808 71.6215784,18.2389622" id="Fill-67" fill="#F4F3CB"></path>
        </g>
    </g>
</svg>