<?xml version="1.0" encoding="UTF-8"?>
<svg width="120px" height="120px" viewBox="0 0 120 120" version="1.1" xmlns="http://www.w3.org/2000/svg" xmlns:xlink="http://www.w3.org/1999/xlink">
    <!-- Generator: Sketch 51.1 (57501) - http://www.bohemiancoding.com/sketch -->
    <title>Game button14</title>
    <desc>Created with Sketch.</desc>
    <defs>
        <polygon id="path-1" points="0.00035 0 119.99985 0 119.99985 119.99965 0.00035 119.99965"></polygon>
        <polygon id="path-3" points="0 120 120 120 120 0 0 0"></polygon>
    </defs>
    <g id="Game-button14" stroke="none" stroke-width="1" fill="none" fill-rule="evenodd">
        <g id="Page-1">
            <g id="Group-3">
                <mask id="mask-2" fill="white">
                    <use xlink:href="#path-1"></use>
                </mask>
                <g id="Clip-2"></g>
                <path d="M117.1221,53.0509 L66.9491,2.8779 C63.1111,-0.9601 56.8891,-0.9601 53.0511,2.8779 L2.8781,53.0509 C-0.9589,56.8889 -0.9589,63.1119 2.8781,66.9479 L53.0511,117.1219 C56.8891,120.9589 63.1111,120.9589 66.9491,117.1219 L117.1221,66.9479 C120.9591,63.1119 120.9591,56.8889 117.1221,53.0509" id="Fill-1" fill="#FF6187" mask="url(#mask-2)"></path>
            </g>
            <path d="M73.4336,86.9845 C73.4336,94.6815 67.1936,100.9225 59.4956,100.9225 C51.7976,100.9225 45.5576,94.6815 45.5576,86.9845 C45.5576,79.2865 51.7976,73.0465 59.4956,73.0465 C67.1936,73.0465 73.4336,79.2865 73.4336,86.9845" id="Fill-4" fill="#FFE967"></path>
            <path d="M103.0791,58.67 C103.0791,66.367 96.8391,72.608 89.1411,72.608 C81.4441,72.608 75.2041,66.367 75.2041,58.67 C75.2041,50.973 81.4441,44.732 89.1411,44.732 C96.8391,44.732 103.0791,50.973 103.0791,58.67" id="Fill-6" fill="#EDCF3D"></path>
            <path d="M45.3252,61.5118 C43.5242,68.9958 35.9972,73.6028 28.5132,71.8008 C21.0292,69.9998 16.4232,62.4728 18.2232,54.9898 C20.0252,47.5048 27.5522,42.8988 35.0362,44.6998 C42.5202,46.5008 47.1272,54.0288 45.3252,61.5118" id="Fill-8" fill="#336FC6"></path>
            <path d="M73.2168,36.0762 C71.3548,43.5452 63.7898,48.0912 56.3208,46.2292 C48.8528,44.3672 44.3068,36.8042 46.1688,29.3342 C48.0298,21.8652 55.5948,17.3192 63.0638,19.1812 C70.5318,21.0432 75.0778,28.6072 73.2168,36.0762" id="Fill-10" fill="#61AFFC"></path>
            <path d="M52.7344,35.8282 L66.4094,35.8282 L59.5344,26.0902 L52.7344,35.8282 Z M68.1654,37.6472 L50.9914,37.6472 C50.6524,37.6472 50.3404,37.4592 50.1854,37.1572 C50.0284,36.8572 50.0514,36.4942 50.2454,36.2172 L58.7844,23.9872 C58.9534,23.7442 59.2304,23.5992 59.5274,23.5992 L59.5294,23.5992 C59.8254,23.5992 60.1014,23.7422 60.2724,23.9842 L68.9074,36.2142 C69.1034,36.4902 69.1284,36.8542 68.9724,37.1552 C68.8164,37.4582 68.5054,37.6472 68.1654,37.6472 Z" id="Fill-12" fill="#FFFFFF"></path>
            <path d="M65.4502,93.9552 C65.2022,93.9552 64.9562,93.8612 64.7672,93.6722 L52.6552,81.5592 C52.2772,81.1832 52.2772,80.5712 52.6552,80.1952 C53.0322,79.8162 53.6422,79.8162 54.0192,80.1952 L66.1322,92.3082 C66.5102,92.6842 66.5102,93.2952 66.1322,93.6722 C65.9432,93.8612 65.6972,93.9552 65.4502,93.9552" id="Fill-14" fill="#FFFFFF"></path>
            <path d="M53.3379,93.9552 C53.0899,93.9552 52.8439,93.8612 52.6549,93.6722 C52.2769,93.2952 52.2769,92.6842 52.6549,92.3082 L64.7679,80.1952 C65.1449,79.8162 65.7549,79.8162 66.1319,80.1952 C66.5099,80.5712 66.5099,81.1832 66.1319,81.5592 L54.0199,93.6722 C53.8309,93.8612 53.5849,93.9552 53.3379,93.9552" id="Fill-16" fill="#FFFFFF"></path>
            <path d="M89.2842,52.2618 C85.7572,52.2618 82.8872,55.1318 82.8872,58.6588 C82.8872,62.1858 85.7572,65.0568 89.2842,65.0568 C92.8092,65.0568 95.6792,62.1858 95.6792,58.6588 C95.6792,55.1318 92.8092,52.2618 89.2842,52.2618 M89.2842,66.9878 C84.6912,66.9878 80.9562,63.2518 80.9562,58.6588 C80.9562,54.0668 84.6912,50.3308 89.2842,50.3308 C93.8762,50.3308 97.6092,54.0668 97.6092,58.6588 C97.6092,63.2518 93.8762,66.9878 89.2842,66.9878" id="Fill-18" fill="#FFFFFF"></path>
            <mask id="mask-4" fill="white">
                <use xlink:href="#path-3"></use>
            </mask>
            <g id="Clip-21"></g>
            <path d="M26.082,63.869 L36.883,63.869 L36.883,53.068 L26.082,53.068 L26.082,63.869 Z M37.848,65.8 L25.117,65.8 C24.584,65.8 24.151,65.367 24.151,64.834 L24.151,52.104 C24.151,51.57 24.584,51.138 25.117,51.138 L37.848,51.138 C38.381,51.138 38.813,51.57 38.813,52.104 L38.813,64.834 C38.813,65.367 38.381,65.8 37.848,65.8 Z" id="Fill-20" fill="#FFFFFF" mask="url(#mask-4)"></path>
        </g>
    </g>
</svg>