<?xml version="1.0" encoding="UTF-8"?>
<svg width="480px" height="360px" viewBox="0 0 480 360" version="1.1" xmlns="http://www.w3.org/2000/svg" xmlns:xlink="http://www.w3.org/1999/xlink" style="background: #FFFFFF;">
    <!-- Generator: Sketch 48.2 (47327) - http://www.bohemiancoding.com/sketch -->
    <title>Camping3</title>
    <desc>Created with Sketch.</desc>
    <defs>
        <polygon id="path-1" points="0.727578947 0.666316318 49.7406316 0.666316318 49.7406316 14.3477 0.727578947 14.3477"></polygon>
        <polygon id="path-3" points="0.732884211 0.584053968 86.4151579 0.584053968 86.4151579 24.4305 0.732884211 24.4305"></polygon>
        <polygon id="path-5" points="0 360 479.565474 360 479.565474 0.164 0 0.164"></polygon>
    </defs>
    <g id="备份" stroke="none" stroke-width="1" fill="none" fill-rule="evenodd">
        <g id="Camping3">
            <g id="Page-1" transform="translate(-9.000000, 0.000000)">
                <polygon fill="#9DD8D6" points="0.418 359.836 497.418 359.836 497.418 0 0.418 0"></polygon>
                <polygon id="Fill-3" fill="#3F1F11" points="189.746526 289.579 209.453053 289.579 209.453053 273.978 189.746526 273.978"></polygon>
                <polygon id="Fill-4" fill="#3F1F11" points="140.429053 289.579 160.135579 289.579 160.135579 273.978 140.429053 273.978"></polygon>
                <polygon id="Fill-5" fill="#3F1F11" points="84.7490526 289.579 104.455579 289.579 104.455579 269.496 84.7490526 269.496"></polygon>
                <polygon id="Fill-6" fill="#343A15" points="409.292716 292.5245 280.878821 292.5245 304.887663 259.6575 285.579032 259.6575 314.804716 223.1915 297.322611 223.1915 320.732716 191.3675 304.887663 191.3675 345.085137 149.0065 385.275032 191.3675 373.757558 191.3675 392.847663 223.1915 375.357979 223.1915 404.592505 259.6575 385.275032 259.6575 395.739032 273.9785"></polygon>
                <polygon id="Fill-7" fill="#343A15" points="255.507032 273.9786 143.692295 273.9786 164.601347 245.3496 147.783663 245.3496 173.237558 213.5976 158.010189 213.5976 175.891453 185.8906 164.601347 185.8906 199.599663 149.0066 234.597979 185.8906 224.072084 185.8906 241.189137 213.5976 225.961768 213.5976 251.415663 245.3496 234.597979 245.3496"></polygon>
                <g id="Group-12" transform="translate(198.473684, 148.836000)" fill="#60710C">
                    <polygon id="Fill-8" points="57.0333474 125.1426 1.12597895 125.1426 1.12597895 0.1706 36.1242947 37.0546 25.5984 37.0546 42.7154526 64.7616 27.4880842 64.7616 52.9419789 96.5136 36.1242947 96.5136"></polygon>
                    <polygon id="Fill-10" points="186.801853 110.8214 197.264589 125.1424 146.611958 125.1424 146.611958 0.1714 186.801853 42.5314 175.284379 42.5314 194.374484 74.3554 176.883537 74.3554 206.119326 110.8214"></polygon>
                </g>
                <polygon id="Fill-13" fill="#60710C" points="198.763579 277.8575 101.802316 277.8575 118.165263 254.4675 103.311789 254.4675 126.038526 223.1625 111.493263 223.1625 150.283579 185.5025 189.072632 223.1625 174.527368 223.1625 197.254105 254.4675 182.400632 254.4675"></polygon>
                <polygon id="Fill-14" fill="#99A82D" points="312.959747 269.4952 208.190905 269.4952 225.871326 244.2202 209.826695 244.2202 234.381221 210.3952 218.662484 210.3952 260.570274 169.6982 302.486905 210.3952 286.769432 210.3952 311.322695 244.2202 295.278063 244.2202"></polygon>
                <polygon id="Fill-15" fill="#99A82D" points="150.283074 272.2511 38.9230737 272.2511 58.4679158 239.3261 50.5138105 239.3261 67.1041263 212.8781 58.9226526 212.8781 76.4211789 190.7481 67.7849684 190.7481 94.6030737 159.9821 121.419916 190.7481 112.783705 190.7481 130.283495 212.8781 122.102021 212.8781 138.692337 239.3261 130.738232 239.3261"></polygon>
                <g id="Group-22" transform="translate(93.631579, 159.836000)">
                    <polygon id="Fill-16" fill="#8CA21F" points="105.132 118.0215 56.652 118.0215 56.652 25.6665 95.4410526 63.3265 80.8957895 63.3265 103.622526 94.6315 88.7690526 94.6315"></polygon>
                    <polygon id="Fill-18" fill="#9BAA2E" points="219.328168 109.6592 166.938695 109.6592 166.938695 9.8622 208.855326 50.5592 193.137853 50.5592 217.691116 84.3842 201.646484 84.3842"></polygon>
                    <polygon id="Fill-20" fill="#9BAA2E" points="56.6514947 112.4151 0.971494737 112.4151 0.971494737 0.1461 27.7883368 30.9121 19.1521263 30.9121 36.6519158 53.0421 28.4704421 53.0421 45.0607579 79.4901 37.1066526 79.4901"></polygon>
                </g>
                <polygon id="Fill-23" fill="#3F1F11" points="395.076632 289.579 414.783158 289.579 414.783158 273.978 395.076632 273.978"></polygon>
                <polygon id="Fill-24" fill="#60710C" points="460.608505 279.4484 349.249768 279.4484 368.793347 246.5234 360.840505 246.5234 377.429558 220.0754 369.248084 220.0754 386.747874 197.9454 378.111663 197.9454 404.929768 167.1784 405.029558 167.2944 431.745347 197.9454 423.109137 197.9454 440.610189 220.0754 432.427453 220.0754 449.017768 246.5234 441.063663 246.5234"></polygon>
                <polygon id="Fill-25" fill="#8CA21F" points="460.608505 279.4484 405.029558 279.4484 405.029558 167.2944 431.745347 197.9454 423.109137 197.9454 440.610189 220.0754 432.427453 220.0754 449.017768 246.5234 441.063663 246.5234"></polygon>
                <polygon id="Fill-27" fill="#A3C53F" points="3.01410526 360.836 491.181263 360.836 491.181263 288.063 3.01410526 288.063"></polygon>
                <g id="Group-66" transform="translate(19.105263, 13.836000)">
                    <path d="M123.460168,305.2227 C123.460168,309.4977 119.078274,312.9667 113.678274,312.9667 L0.727957895,312.9667 L0.727957895,297.4717 L10.1271158,297.4717 C10.0096421,297.4717 9.90858947,297.4507 9.79995789,297.4437 C12.3452211,297.3137 14.3725895,295.6517 14.3725895,293.6007 C14.3725895,291.5417 12.3452211,289.8867 9.79995789,289.7497 C9.90858947,289.7437 10.0096421,289.7207 10.1271158,289.7207 L0.727957895,289.7207 L0.727957895,274.2267 L78.9704842,274.2267 C84.3704842,274.2267 88.7523789,277.6957 88.7523789,281.9777 C88.7523789,286.2517 84.3704842,289.7207 78.9704842,289.7207 L70.9342737,289.7207 C68.2349053,289.7207 66.0433263,291.4557 66.0433263,293.6007 C66.0433263,295.7377 68.2349053,297.4717 70.9342737,297.4717 L113.678274,297.4717 C119.078274,297.4717 123.460168,300.9407 123.460168,305.2227" id="Fill-28" fill="#A3C53F"></path>
                    <path d="M298.343368,332.3595 L250.929474,332.3595 C247.930737,332.3595 245.500421,331.1585 245.500421,329.6765 C245.500421,328.1945 247.930737,326.9935 250.929474,326.9935 L259.838526,326.9935 C265.834737,326.9935 270.696632,324.5895 270.696632,321.6265 C270.696632,318.6625 265.834737,316.2595 259.838526,316.2595 L155.881895,316.2595 C149.885684,316.2595 145.023789,318.6625 145.023789,321.6265 C145.023789,324.5895 149.885684,326.9935 155.881895,326.9935 L183.462947,326.9935 C183.340421,326.9935 183.224211,327.0065 183.104211,327.0105 C185.931158,327.1035 188.173263,328.2555 188.173263,329.6765 C188.173263,331.0975 185.931158,332.2495 183.104211,332.3415 C183.224211,332.3455 183.340421,332.3595 183.462947,332.3595 L171.229263,332.3595 C165.231789,332.3595 160.371158,334.7625 160.371158,337.7265 C160.371158,340.6905 165.231789,343.0935 171.229263,343.0935 L298.343368,343.0935 C304.340842,343.0935 309.202737,340.6905 309.202737,337.7265 C309.202737,334.7625 304.340842,332.3595 298.343368,332.3595" id="Fill-30" fill="#A3C53F"></path>
                    <path d="M452.766821,293.6007 C452.766821,295.0467 453.767242,296.3067 455.257768,296.9687 L455.257768,312.9667 L385.824505,312.9667 C380.415663,312.9667 376.033768,309.4977 376.033768,305.2227 C376.033768,300.9407 380.415663,297.4717 385.824505,297.4717 L396.850611,297.4717 C396.740716,297.4717 396.633347,297.4507 396.532295,297.4437 C399.077558,297.3137 401.096084,295.6517 401.096084,293.6007 C401.096084,291.5417 399.077558,289.8867 396.532295,289.7497 C396.633347,289.7437 396.740716,289.7207 396.850611,289.7207 L371.987874,289.7207 C366.587874,289.7207 362.207242,286.2517 362.207242,281.9777 C362.207242,277.6957 366.587874,274.2267 371.987874,274.2267 L455.257768,274.2267 L455.257768,290.2247 C453.767242,290.8867 452.766821,292.1537 452.766821,293.6007" id="Fill-32" fill="#A3C53F"></path>
                    <path d="M377.833516,298.6251 C377.833516,299.6811 365.217095,300.5361 349.652463,300.5361 C334.087832,300.5361 321.471411,299.6811 321.471411,298.6251 C321.471411,297.5681 334.087832,296.7131 349.652463,296.7131 C365.217095,296.7131 377.833516,297.5681 377.833516,298.6251" id="Fill-34" fill="#A3C53F"></path>
                    <path d="M311.780463,296.1563 C311.780463,296.7443 302.434358,297.2203 290.904253,297.2203 C279.375411,297.2203 270.026779,296.7443 270.026779,296.1563 C270.026779,295.5683 279.375411,295.0923 290.904253,295.0923 C302.434358,295.0923 311.780463,295.5683 311.780463,296.1563" id="Fill-36" fill="#A3C53F"></path>
                    <path d="M430.464253,296.1534 C430.464253,296.7414 421.118147,297.2174 409.588042,297.2174 C398.057937,297.2174 388.710568,296.7414 388.710568,296.1534 C388.710568,295.5654 398.057937,295.0894 409.588042,295.0894 C421.118147,295.0894 430.464253,295.5654 430.464253,296.1534" id="Fill-38" fill="#87B029"></path>
                    <path d="M60.6685895,334.0997 L40.1776421,334.0997 C38.0542737,334.0997 36.3325895,332.7377 36.3325895,331.0557 C36.3325895,329.3747 38.0542737,328.0127 40.1776421,328.0127 L60.6685895,328.0127 C62.7919579,328.0127 64.5136421,329.3747 64.5136421,331.0557 C64.5136421,332.7377 62.7919579,334.0997 60.6685895,334.0997" id="Fill-40" fill="#A3C53F"></path>
                    <path d="M410.259916,337.1436 L389.768968,337.1436 C387.6456,337.1436 385.923916,335.7816 385.923916,334.0996 C385.923916,332.4186 387.6456,331.0556 389.768968,331.0556 L410.259916,331.0556 C412.383284,331.0556 414.104968,332.4186 414.104968,334.0996 C414.104968,335.7816 412.383284,337.1436 410.259916,337.1436" id="Fill-42" fill="#A3C53F"></path>
                    <path d="M85.2718737,322.63 L74.1434526,322.63 C72.7817684,322.63 71.6777684,321.756 71.6777684,320.678 C71.6777684,319.6 72.7817684,318.726 74.1434526,318.726 L85.2718737,318.726 C86.6335579,318.726 87.7375579,319.6 87.7375579,320.678 C87.7375579,321.756 86.6335579,322.63 85.2718737,322.63" id="Fill-44" fill="#A3C53F"></path>
                    <path d="M171.544042,291.1798 L160.415621,291.1798 C159.053937,291.1798 157.949937,290.3058 157.949937,289.2278 C157.949937,288.1498 159.053937,287.2758 160.415621,287.2758 L171.544042,287.2758 C172.905726,287.2758 174.009726,288.1498 174.009726,289.2278 C174.009726,290.3058 172.905726,291.1798 171.544042,291.1798" id="Fill-46" fill="#A3C53F"></path>
                    <path d="M225.267032,307.1261 L214.138611,307.1261 C212.776926,307.1261 211.672926,306.2521 211.672926,305.1741 C211.672926,304.0961 212.776926,303.2221 214.138611,303.2221 L225.267032,303.2221 C226.628716,303.2221 227.732716,304.0961 227.732716,305.1741 C227.732716,306.2521 226.628716,307.1261 225.267032,307.1261" id="Fill-48" fill="#A3C53F"></path>
                    <path d="M239.257389,285.5587 L228.128968,285.5587 C226.767284,285.5587 225.663284,284.6847 225.663284,283.6067 C225.663284,282.5287 226.767284,281.6547 228.128968,281.6547 L239.257389,281.6547 C240.619074,281.6547 241.723074,282.5287 241.723074,283.6067 C241.723074,284.6847 240.619074,285.5587 239.257389,285.5587" id="Fill-50" fill="#A3C53F"></path>
                    <path d="M352.3224,326.6007 L341.193979,326.6007 C339.832295,326.6007 338.728295,325.7267 338.728295,324.6487 C338.728295,323.5707 339.832295,322.6967 341.193979,322.6967 L352.3224,322.6967 C353.684084,322.6967 354.788084,323.5707 354.788084,324.6487 C354.788084,325.7267 353.684084,326.6007 352.3224,326.6007" id="Fill-52" fill="#A3C53F"></path>
                    <path d="M260.120463,291.9063 L253.967621,291.9063 C253.125095,291.9063 252.441726,291.3663 252.441726,290.6983 C252.441726,290.0313 253.125095,289.4913 253.967621,289.4913 L260.120463,289.4913 C260.962989,289.4913 261.646358,290.0313 261.646358,290.6983 C261.646358,291.3663 260.962989,291.9063 260.120463,291.9063" id="Fill-54" fill="#A3C53F"></path>
                    <path d="M318.033347,110.3946 C318.033347,110.3946 318.033347,103.4376 308.034189,105.2366 C308.639242,103.1976 305.307032,93.2426 291.973137,99.5986 C291.368084,97.6796 285.307453,93.9616 280.611032,100.0796 C278.187032,99.4796 271.216926,100.0796 271.065347,105.9566 C268.338189,105.5966 260.763032,104.8766 258.187453,110.3946 L318.033347,110.3946 Z" id="Fill-56" fill="#FBF9EE"></path>
                    <path d="M351.773432,91.3321 C351.773432,91.3321 351.773432,84.3751 361.773853,86.1741 C361.167537,84.1351 364.499747,74.1801 377.833642,80.5371 C378.438695,78.6171 384.499326,74.8991 389.197011,81.0171 C391.621011,80.4171 398.589853,81.0171 398.741432,86.8941 C401.468589,86.5341 409.045011,85.8141 411.620589,91.3321 L351.773432,91.3321 Z" id="Fill-58" fill="#FBF9EE"></path>
                    <path d="M31.7806737,82.4444 C31.7806737,82.4444 31.7806737,78.1104 38.0105684,79.2304 C37.6328842,77.9614 39.7095158,71.7574 48.0160421,75.7184 C48.3937263,74.5234 52.1693053,72.2064 55.0960421,76.0174 C56.6055158,75.6434 60.9482526,76.0174 61.0429895,79.6794 C62.7406737,79.4554 67.4610947,79.0064 69.0653053,82.4444 L31.7806737,82.4444 Z" id="Fill-60" fill="#FBF9EE"></path>
                    <path d="M181.185474,11.8751 C181.185474,11.8751 181.185474,5.8681 189.820421,7.4221 C189.296211,5.6611 192.174947,-2.9359 203.688632,2.5541 C204.211579,0.8961 209.444842,-2.3139 213.500842,2.9681 C215.593895,2.4501 221.611579,2.9681 221.742947,8.0431 C224.097474,7.7321 230.639368,7.1111 232.863789,11.8751 L181.185474,11.8751 Z" id="Fill-62" fill="#FBF9EE"></path>
                    <path d="M95.8397053,122.7188 C95.8397053,122.7188 82.4098105,119.4738 79.6333895,130.8358 L179.518863,130.8358 C179.518863,130.8358 176.872547,113.2928 158.516337,119.5768 C157.688968,115.5188 150.247705,109.6268 140.820758,114.9938 C140.655284,112.7688 136.522232,111.3518 135.198442,112.8458 C135.032968,109.1038 124.448968,102.6888 116.1816,111.1978 C112.707916,106.9898 94.3517053,110.4118 95.8397053,122.7188" id="Fill-64" fill="#FBF9EE"></path>
                </g>
                <g id="Group-73" transform="translate(19.105263, 10.836000)">
                    <g id="Group-69" transform="translate(0.000000, 5.000000)">
                        <mask id="mask-2" fill="white">
                            <use xlink:href="#path-1"></use>
                        </mask>
                        <g id="Clip-68"></g>
                        <path d="M-10,14.6813837 C-10,14.6813837 -10,7.72438368 0.000421052632,9.52438368 C-0.605894737,7.48538368 2.72631579,-2.47061632 16.0589474,3.88638368 C16.6652632,1.96738368 22.7258947,-1.75161632 27.4223158,4.36638368 C29.8463158,3.76638368 36.8164211,4.36638368 36.968,10.2443837 C39.6951579,9.88338368 47.2703158,9.16338368 49.8458947,14.6813837 L-10,14.6813837 Z" id="Fill-67" fill="#FBF9EE" mask="url(#mask-2)"></path>
                    </g>
                    <g id="Group-72" transform="translate(368.842105, 0.000000)">
                        <mask id="mask-4" fill="white">
                            <use xlink:href="#path-3"></use>
                        </mask>
                        <g id="Clip-71"></g>
                        <path d="M17.2063158,16.729446 C17.2063158,16.729446 3.77642105,13.484446 1,24.846446 L100.885474,24.846446 C100.885474,24.846446 98.2391579,7.30344603 79.8829474,13.587446 C79.0555789,9.52944603 71.6143158,3.63744603 62.1873684,9.00444603 C62.0218947,6.77944603 57.8875789,5.36244603 56.5650526,6.85644603 C56.3995789,3.11444603 45.8155789,-3.30055397 37.5482105,5.20844603 C34.0745263,1.00044603 15.7183158,4.42244603 17.2063158,16.729446" id="Fill-70" fill="#FBF9EE" mask="url(#mask-4)"></path>
                    </g>
                </g>
                <g id="Group-150" transform="translate(9.000000, 0.836000)">
                    <path d="M445.124968,292.6993 C445.124968,293.2573 442.828547,293.7093 439.994021,293.7093 C437.160758,293.7093 434.864337,293.2573 434.864337,292.6993 C434.864337,292.1403 437.160758,291.6883 439.994021,291.6883 C442.828547,291.6883 445.124968,292.1403 445.124968,292.6993" id="Fill-76" fill="#A3C53F"></path>
                    <path d="M144.811705,292.6993 C144.811705,293.2573 142.515284,293.7093 139.680758,293.7093 C136.847495,293.7093 134.549811,293.2573 134.549811,292.6993 C134.549811,292.1403 136.847495,291.6883 139.680758,291.6883 C142.515284,291.6883 144.811705,292.1403 144.811705,292.6993" id="Fill-78" fill="#A3C53F"></path>
                    <path d="M407.346189,245.3682 C407.346189,245.3682 406.062821,262.4722 446.301979,288.5762" id="Stroke-80" stroke="#191919" stroke-width="0.72"></path>
                    <path d="M177.410147,245.1924 C177.410147,245.1924 178.334779,263.9944 138.096884,290.0974" id="Stroke-82" stroke="#000000" stroke-width="0.72"></path>
                    <path d="M143.401768,293.0928 L142.948295,293.3468 C142.234611,293.7468 141.236716,293.6118 140.730189,293.0458 L135.580295,287.2808 C135.075032,286.7148 135.245558,285.9248 135.960505,285.5258 L136.413979,285.2708 C137.128926,284.8708 138.126821,285.0068 138.632084,285.5718 L143.781979,291.3378 C144.287242,291.9038 144.115453,292.6938 143.401768,293.0928" id="Fill-84" fill="#6D3C26"></path>
                    <path d="M407.971579,245.1924 C405.056211,248.9204 401.180842,256.1144 397.518947,263.5104 C391.784211,275.1004 386.616632,287.1804 386.616632,287.1804 L292.285263,287.1804 L197.965263,287.1804 C197.965263,287.1804 192.797684,275.1004 187.052842,263.5104 C183.401053,256.1144 179.524421,248.9204 176.609053,245.1924 C217.901684,237.3054 292.285263,173.6164 292.285263,173.6164 C292.285263,173.6164 366.680211,237.3054 407.971579,245.1924" id="Fill-86" fill="#E3F0EA"></path>
                    <path d="M441.732758,293.0928 L442.186232,293.3468 C442.901179,293.7468 443.899074,293.6118 444.403074,293.0458 L449.554232,287.2808 C450.059495,286.7148 449.888968,285.9248 449.174021,285.5258 L448.720547,285.2708 C448.006863,284.8708 447.008968,285.0068 446.502442,285.5718 L441.352547,291.3378 C440.847284,291.9038 441.019074,292.6938 441.732758,293.0928" id="Fill-88" fill="#6D3C26"></path>
                    <path d="M397.518442,263.5108 C391.783705,275.1008 386.616126,287.1808 386.616126,287.1808 L292.284758,287.1808 L197.966021,287.1808 C197.966021,287.1808 192.797179,275.1008 187.052337,263.5108 L397.518442,263.5108 Z" id="Fill-90" fill="#4DB0DB"></path>
                    <polygon id="Fill-92" fill="#F1950B" points="291.375032 159.294 291.372505 167.93 305.058821 167.93"></polygon>
                    <path d="M253.358779,222.3682 L253.358779,287.1782" id="Stroke-94" stroke="#4C2C16" stroke-width="1.439"></path>
                    <path d="M331.219958,222.3682 L331.219958,287.1782" id="Stroke-96" stroke="#4C2C16" stroke-width="1.439"></path>
                    <mask id="mask-6" fill="white">
                        <use xlink:href="#path-5"></use>
                    </mask>
                    <g id="Clip-99"></g>
                    <polygon id="Fill-98" fill="#8C816F" mask="url(#mask-6)" points="258.381474 287.181 326.187789 287.181 326.187789 219.934 258.381474 219.934"></polygon>
                    <path d="M292.285389,219.9337 L292.285389,222.3687 C292.285389,222.3687 284.372968,278.0177 258.382232,287.1807 L258.382232,219.9337 L292.285389,219.9337 Z" id="Fill-100" fill="#A9B7B0" mask="url(#mask-6)"></path>
                    <path d="M326.188295,219.9337 L326.188295,287.1807 C300.208926,278.0177 292.285137,222.3687 292.285137,222.3687 L292.285137,219.9337 L326.188295,219.9337 Z" id="Fill-101" fill="#A9B7B0" mask="url(#mask-6)"></path>
                    <path d="M335.404168,219.5772 L335.404168,220.2972 C335.404168,221.4342 334.221853,222.3702 332.785642,222.3702 L251.788168,222.3702 C250.351958,222.3702 249.179747,221.4342 249.179747,220.2972 L249.179747,219.5772 C249.179747,219.2752 249.261853,218.9872 249.415958,218.7282 C249.816379,218.0092 250.733432,217.5052 251.788168,217.5052 L332.785642,217.5052 C333.840379,217.5052 334.758695,218.0092 335.167958,218.7282 C335.322063,218.9872 335.404168,219.2752 335.404168,219.5772" id="Fill-102" fill="#4DB0DB" mask="url(#mask-6)"></path>
                    <path d="M335.167326,218.7286 C334.749221,219.4406 333.839747,219.9376 332.785011,219.9376 L251.7888,219.9376 C250.734063,219.9376 249.824589,219.4406 249.415326,218.7286 C249.815747,218.0086 250.734063,217.5046 251.7888,217.5046 L332.785011,217.5046 C333.839747,217.5046 334.759326,218.0086 335.167326,218.7286" id="Fill-103" fill="#4DB0DB" mask="url(#mask-6)"></path>
                    <path d="M189.186821,246.3663 C189.186821,247.0553 188.480716,247.6153 187.609137,247.6153 C186.738821,247.6153 186.032716,247.0553 186.032716,246.3663 C186.032716,245.6773 186.738821,245.1183 187.609137,245.1183 C188.480716,245.1183 189.186821,245.6773 189.186821,246.3663" id="Fill-104" fill="#4DB0DB" mask="url(#mask-6)"></path>
                    <path d="M220.360547,232.0176 C220.360547,232.7236 219.636758,233.2966 218.744968,233.2966 C217.853179,233.2966 217.129389,232.7236 217.129389,232.0176 C217.129389,231.3116 217.853179,230.7396 218.744968,230.7396 C219.636758,230.7396 220.360547,231.3116 220.360547,232.0176" id="Fill-105" fill="#4DB0DB" mask="url(#mask-6)"></path>
                    <path d="M251.842737,212.3487 C251.842737,212.9937 251.183368,213.5157 250.368632,213.5157 C249.553895,213.5157 248.894526,212.9937 248.894526,212.3487 C248.894526,211.7037 249.553895,211.1817 250.368632,211.1817 C251.183368,211.1817 251.842737,211.7037 251.842737,212.3487" id="Fill-106" fill="#4DB0DB" mask="url(#mask-6)"></path>
                    <path d="M280.632,190.6339 C280.632,191.3199 279.929684,191.8749 279.064421,191.8749 C278.197895,191.8749 277.496842,191.3199 277.496842,190.6339 C277.496842,189.9469 278.197895,189.3919 279.064421,189.3919 C279.929684,189.3919 280.632,189.9469 280.632,190.6339" id="Fill-107" fill="#4DB0DB" mask="url(#mask-6)"></path>
                    <path d="M293.724884,178.3985 C293.724884,179.0665 293.041516,179.6085 292.197726,179.6085 C291.353937,179.6085 290.670568,179.0665 290.670568,178.3985 C290.670568,177.7315 291.353937,177.1895 292.197726,177.1895 C293.041516,177.1895 293.724884,177.7315 293.724884,178.3985" id="Fill-108" fill="#4DB0DB" mask="url(#mask-6)"></path>
                    <path d="M395.208,246.3663 C395.208,247.0553 395.915368,247.6153 396.785684,247.6153 C397.656,247.6153 398.362105,247.0553 398.362105,246.3663 C398.362105,245.6773 397.656,245.1183 396.785684,245.1183 C395.915368,245.1183 395.208,245.6773 395.208,246.3663" id="Fill-109" fill="#4DB0DB" mask="url(#mask-6)"></path>
                    <path d="M364.034905,232.0176 C364.034905,232.7236 364.757432,233.2966 365.649221,233.2966 C366.541011,233.2966 367.266063,232.7236 367.266063,232.0176 C367.266063,231.3116 366.541011,230.7396 365.649221,230.7396 C364.757432,230.7396 364.034905,231.3116 364.034905,232.0176" id="Fill-110" fill="#4DB0DB" mask="url(#mask-6)"></path>
                    <path d="M332.552211,212.3487 C332.552211,212.9937 333.211579,213.5157 334.026316,213.5157 C334.841053,213.5157 335.500421,212.9937 335.500421,212.3487 C335.500421,211.7037 334.841053,211.1817 334.026316,211.1817 C333.211579,211.1817 332.552211,211.7037 332.552211,212.3487" id="Fill-111" fill="#4DB0DB" mask="url(#mask-6)"></path>
                    <path d="M303.763579,190.6339 C303.763579,191.3199 304.465895,191.8749 305.331158,191.8749 C306.197684,191.8749 306.898737,191.3199 306.898737,190.6339 C306.898737,189.9469 306.197684,189.3919 305.331158,189.3919 C304.465895,189.3919 303.763579,189.9469 303.763579,190.6339" id="Fill-112" fill="#4DB0DB" mask="url(#mask-6)"></path>
                    <path d="M275.599074,311.0743 C275.599074,314.6203 260.990653,317.4953 242.969179,317.4953 C224.947705,317.4953 210.339284,314.6203 210.339284,311.0743 C210.339284,307.5283 224.947705,304.6533 242.969179,304.6533 C260.990653,304.6533 275.599074,307.5283 275.599074,311.0743" id="Fill-113" fill="#87B029" mask="url(#mask-6)"></path>
                    <path d="M265.079368,305.8458 L221.356421,301.5508 C221.356421,301.5508 218.670947,302.1608 219.005684,304.4638 C219.340421,306.7658 221.006526,307.8948 222.129474,308.0668 C225.105474,308.3038 265.127368,312.3078 265.127368,312.3078 L265.079368,305.8458 Z" id="Fill-114" fill="#512A14" mask="url(#mask-6)"></path>
                    <path d="M267.780884,308.8145 C268.038568,310.5915 266.974989,312.1485 265.406147,312.2925 C263.836042,312.4345 262.353095,311.1105 262.095411,309.3325 C261.836463,307.5555 262.900042,305.9985 264.470147,305.8555 C266.040253,305.7115 267.521937,307.0375 267.780884,308.8145" id="Fill-115" fill="#6E3E21" mask="url(#mask-6)"></path>
                    <path d="M226.719537,307.6485 L262.166274,297.5355 C262.166274,297.5355 265.348168,296.7655 266.419326,299.9615 C266.692168,301.2395 266.948589,303.0005 265.253432,304.4585 C263.088379,305.0675 228.563747,315.3525 228.563747,315.3525 C228.563747,315.3525 224.193221,309.3425 226.719537,307.6485" id="Fill-116" fill="#6E3E21" mask="url(#mask-6)"></path>
                    <path d="M230.740295,311.2618 C231.056084,313.4308 229.7664,315.3288 227.861558,315.5028 C225.955453,315.6768 224.156716,314.0588 223.840926,311.8908 C223.5264,309.7218 224.814821,307.8228 226.719663,307.6488 C228.624505,307.4758 230.424505,309.0928 230.740295,311.2618" id="Fill-117" fill="#512A14" mask="url(#mask-6)"></path>
                    <polygon id="Fill-118" fill="#6E3E21" mask="url(#mask-6)" points="230.182737 304.9434 233.747368 305.6434 231.363789 306.3244 229.990737 305.9874 229.956632 304.8974"></polygon>
                    <path d="M230.511537,305.4317 C230.520379,305.7337 230.287958,305.9817 229.991116,305.9877 C229.694274,305.9937 229.445432,305.7537 229.435326,305.4527 C229.426484,305.1527 229.660168,304.9037 229.957011,304.8977 C230.253853,304.8917 230.502695,305.1307 230.511537,305.4317" id="Fill-119" fill="#6E3E21" mask="url(#mask-6)"></path>
                    <path d="M336.041937,310.5655 L336.041937,280.6995" id="Stroke-120" stroke="#A05B1D" stroke-width="2.159" stroke-linecap="round" stroke-linejoin="round" mask="url(#mask-6)"></path>
                    <path d="M336.241768,311.9903 L335.841347,311.9903 C335.111242,311.9903 334.516295,311.5173 334.516295,310.9403 L334.516295,306.7573 C334.516295,306.1793 335.111242,305.7083 335.841347,305.7083 L336.241768,305.7083 C336.970611,305.7083 337.568084,306.1793 337.568084,306.7573 L337.568084,310.9403 C337.568084,311.5173 336.970611,311.9903 336.241768,311.9903" id="Fill-121" fill="#603716" mask="url(#mask-6)"></path>
                    <path d="M336.041937,280.6993 L383.464674,302.1693" id="Stroke-122" stroke="#A05B1D" stroke-width="0.72" stroke-linecap="round" stroke-linejoin="round" mask="url(#mask-6)"></path>
                    <path d="M383.464674,280.6993 L336.041937,302.1693" id="Stroke-123" stroke="#A05B1D" stroke-width="0.72" stroke-linecap="round" stroke-linejoin="round" mask="url(#mask-6)"></path>
                    <path d="M383.464674,280.6993 L383.464674,310.5653" id="Stroke-124" stroke="#A05B1D" stroke-width="2.159" stroke-linecap="round" stroke-linejoin="round" mask="url(#mask-6)"></path>
                    <path d="M391.802274,278.4786 C391.802274,279.0896 391.483958,279.6446 390.974905,280.0466 C390.465853,280.4506 389.766063,280.7026 388.993011,280.7026 L330.512589,280.7026 C328.967747,280.7026 327.713432,279.7026 327.713432,278.4786 C327.713432,278.0756 327.849853,277.6936 328.094905,277.3706 C328.213642,277.2046 328.357642,277.0536 328.530695,276.9166 C329.039747,276.5136 329.7408,276.2616 330.512589,276.2616 L388.993011,276.2616 C390.030063,276.2616 390.929432,276.7076 391.419537,277.3706 C391.665853,277.6936 391.802274,278.0756 391.802274,278.4786" id="Fill-125" fill="#3F1F11" mask="url(#mask-6)"></path>
                    <path d="M391.419789,277.3702 C391.301053,277.5352 391.146947,277.6932 390.973895,277.8312 C390.466105,278.2332 389.765053,278.4782 388.993263,278.4782 L330.512842,278.4782 C329.477053,278.4782 328.576421,278.0322 328.095158,277.3702 C328.213895,277.2042 328.357895,277.0542 328.530947,276.9172 C329.04,276.5142 329.741053,276.2622 330.512842,276.2622 L388.993263,276.2622 C390.029053,276.2622 390.928421,276.7082 391.419789,277.3702" id="Fill-126" fill="#A05B1D" mask="url(#mask-6)"></path>
                    <path d="M383.664505,311.9903 L383.264084,311.9903 C382.533979,311.9903 381.939032,311.5173 381.939032,310.9403 L381.939032,306.7573 C381.939032,306.1793 382.533979,305.7083 383.264084,305.7083 L383.664505,305.7083 C384.393347,305.7083 384.990821,306.1793 384.990821,306.7573 L384.990821,310.9403 C384.990821,311.5173 384.393347,311.9903 383.664505,311.9903" id="Fill-127" fill="#603716" mask="url(#mask-6)"></path>
                    <polygon id="Fill-128" fill="#F1950B" mask="url(#mask-6)" points="405.607579 279.8 430.949053 279.8 430.949053 270.714 405.607579 270.714"></polygon>
                    <path d="M405.608084,289.5147 C404.890611,289.5147 404.301979,289.0497 404.301979,288.4807 L404.301979,266.5307 C404.301979,265.9617 404.890611,265.4957 405.608084,265.4957 C406.326821,265.4957 406.915453,265.9617 406.915453,266.5307 L406.915453,288.4807 C406.915453,289.0497 406.326821,289.5147 405.608084,289.5147" id="Fill-129" fill="#F5C61C" mask="url(#mask-6)"></path>
                    <path d="M430.949053,289.5147 C430.230316,289.5147 429.641684,289.0497 429.641684,288.4807 L429.641684,266.5307 C429.641684,265.9617 430.230316,265.4957 430.949053,265.4957 C431.666526,265.4957 432.255158,265.9617 432.255158,266.5307 L432.255158,288.4807 C432.255158,289.0497 431.666526,289.5147 430.949053,289.5147" id="Fill-130" fill="#F5C61C" mask="url(#mask-6)"></path>
                    <path d="M405.608084,289.5147 L405.608084,308.4367" id="Stroke-131" stroke="#A05B1D" stroke-width="1.439" stroke-linecap="round" stroke-linejoin="round" mask="url(#mask-6)"></path>
                    <path d="M430.949053,289.5147 L430.949053,308.4367" id="Stroke-132" stroke="#A05B1D" stroke-width="1.439" stroke-linecap="round" stroke-linejoin="round" mask="url(#mask-6)"></path>
                    <path d="M405.608084,309.1563 C404.879242,309.1563 404.283032,308.6833 404.283032,308.1063 L404.283032,304.7483 C404.283032,304.1713 404.879242,303.6983 405.608084,303.6983 C406.336926,303.6983 406.9344,304.1713 406.9344,304.7483 L406.9344,308.1063 C406.9344,308.6833 406.336926,309.1563 405.608084,309.1563" id="Fill-133" fill="#603716" mask="url(#mask-6)"></path>
                    <path d="M430.949053,309.1563 C430.218947,309.1563 429.622737,308.6833 429.622737,308.1063 L429.622737,304.7483 C429.622737,304.1713 430.218947,303.6983 430.949053,303.6983 C431.677895,303.6983 432.274105,304.1713 432.274105,304.7483 L432.274105,308.1063 C432.274105,308.6833 431.677895,309.1563 430.949053,309.1563" id="Fill-134" fill="#603716" mask="url(#mask-6)"></path>
                    <path d="M405.608084,290.3253 L430.949558,299.6503" id="Stroke-135" stroke="#A05B1D" stroke-width="0.72" stroke-linecap="round" stroke-linejoin="round" mask="url(#mask-6)"></path>
                    <path d="M430.949053,290.3253 L405.607579,299.6503" id="Stroke-136" stroke="#A05B1D" stroke-width="0.72" stroke-linecap="round" stroke-linejoin="round" mask="url(#mask-6)"></path>
                    <path d="M434.864337,288.1192 C434.864337,288.7232 434.554863,289.2772 434.047074,289.6742 C433.5456,290.0762 432.854653,290.3212 432.082863,290.3212 L404.928758,290.3212 C403.392758,290.3212 402.138442,289.3352 402.138442,288.1192 C402.138442,287.8462 402.202863,287.5792 402.329179,287.3352 C402.4656,287.0472 402.682863,286.7802 402.955705,286.5642 C403.466021,286.1612 404.164547,285.9172 404.928758,285.9172 L432.082863,285.9172 C433.263916,285.9172 434.282021,286.5072 434.6736,287.3352 C434.799916,287.5792 434.864337,287.8462 434.864337,288.1192" id="Fill-137" fill="#F1950B" mask="url(#mask-6)"></path>
                    <path d="M434.673095,287.335 C434.537937,287.622 434.319411,287.882 434.046568,288.098 C433.545095,288.493 432.855411,288.745 432.082358,288.745 L404.928253,288.745 C403.7472,288.745 402.737937,288.162 402.329937,287.335 C402.465095,287.047 402.683621,286.78 402.956463,286.564 C403.465516,286.161 404.165305,285.917 404.928253,285.917 L432.082358,285.917 C433.264674,285.917 434.281516,286.507 434.673095,287.335" id="Fill-138" fill="#F1950B" mask="url(#mask-6)"></path>
                    <polygon id="Fill-139" fill="#F1950B" mask="url(#mask-6)" points="288.111158 279.8 313.451368 279.8 313.451368 270.714 288.111158 270.714"></polygon>
                    <path d="M288.112295,289.5147 C287.393558,289.5147 286.806189,289.0497 286.806189,288.4807 L286.806189,266.5307 C286.806189,265.9617 287.393558,265.4957 288.112295,265.4957 C288.831032,265.4957 289.4184,265.9617 289.4184,266.5307 L289.4184,288.4807 C289.4184,289.0497 288.831032,289.5147 288.112295,289.5147" id="Fill-140" fill="#F5C61C" mask="url(#mask-6)"></path>
                    <path d="M313.451874,289.5147 C312.7344,289.5147 312.145768,289.0497 312.145768,288.4807 L312.145768,266.5307 C312.145768,265.9617 312.7344,265.4957 313.451874,265.4957 C314.170611,265.4957 314.759242,265.9617 314.759242,266.5307 L314.759242,288.4807 C314.759242,289.0497 314.170611,289.5147 313.451874,289.5147" id="Fill-141" fill="#F5C61C" mask="url(#mask-6)"></path>
                    <path d="M288.112295,289.5147 L288.112295,308.4367" id="Stroke-142" stroke="#A05B1D" stroke-width="1.439" stroke-linecap="round" stroke-linejoin="round" mask="url(#mask-6)"></path>
                    <path d="M313.451874,289.5147 L313.451874,308.4367" id="Stroke-143" stroke="#A05B1D" stroke-width="1.439" stroke-linecap="round" stroke-linejoin="round" mask="url(#mask-6)"></path>
                    <path d="M288.112295,309.1563 C287.383453,309.1563 286.785979,308.6833 286.785979,308.1063 L286.785979,304.7483 C286.785979,304.1713 287.383453,303.6983 288.112295,303.6983 C288.841137,303.6983 289.438611,304.1713 289.438611,304.7483 L289.438611,308.1063 C289.438611,308.6833 288.841137,309.1563 288.112295,309.1563" id="Fill-144" fill="#603716" mask="url(#mask-6)"></path>
                    <path d="M313.451874,309.1563 C312.723032,309.1563 312.126821,308.6833 312.126821,308.1063 L312.126821,304.7483 C312.126821,304.1713 312.723032,303.6983 313.451874,303.6983 C314.180716,303.6983 314.778189,304.1713 314.778189,304.7483 L314.778189,308.1063 C314.778189,308.6833 314.180716,309.1563 313.451874,309.1563" id="Fill-145" fill="#603716" mask="url(#mask-6)"></path>
                    <path d="M288.112295,290.3253 L313.452505,299.6503" id="Stroke-146" stroke="#A05B1D" stroke-width="0.72" stroke-linecap="round" stroke-linejoin="round" mask="url(#mask-6)"></path>
                    <path d="M313.451874,290.3253 L288.111663,299.6503" id="Stroke-147" stroke="#A05B1D" stroke-width="0.72" stroke-linecap="round" stroke-linejoin="round" mask="url(#mask-6)"></path>
                    <path d="M314.589221,290.3253 L287.430063,290.3253 C285.899116,290.3253 284.646063,289.3333 284.646063,288.1213 C284.646063,286.9083 285.899116,285.9173 287.430063,285.9173 L314.589221,285.9173 C316.120168,285.9173 317.371958,286.9083 317.371958,288.1213 C317.371958,289.3333 316.120168,290.3253 314.589221,290.3253" id="Fill-148" fill="#F1950B" mask="url(#mask-6)"></path>
                    <path d="M317.182105,287.335 C317.045684,287.622 316.827158,287.882 316.554316,288.098 C316.054105,288.493 315.364421,288.745 314.590105,288.745 L287.437263,288.745 C286.256211,288.745 285.246947,288.162 284.837684,287.335 C284.974105,287.047 285.192632,286.78 285.465474,286.564 C285.973263,286.161 286.674316,285.917 287.437263,285.917 L314.590105,285.917 C315.772421,285.917 316.790526,286.507 317.182105,287.335" id="Fill-149" fill="#F1950B" mask="url(#mask-6)"></path>
                </g>
            </g>
        </g>
    </g>
</svg>