<?xml version="1.0" encoding="UTF-8"?>
<svg width="120px" height="120px" viewBox="0 0 120 120" version="1.1" xmlns="http://www.w3.org/2000/svg" xmlns:xlink="http://www.w3.org/1999/xlink">
    <!-- Generator: Sketch 51.1 (57501) - http://www.bohemiancoding.com/sketch -->
    <title>Motorcycle2</title>
    <desc>Created with Sketch.</desc>
    <defs></defs>
    <g id="Motorcycle2" stroke="none" stroke-width="1" fill="none" fill-rule="evenodd">
        <g id="Group-125" transform="translate(60.000000, 60.500000) scale(-1, 1) translate(-60.000000, -60.500000) translate(0.000000, 24.000000)" fill-rule="nonzero">
            <path d="M14.672815,34.7060088 C14.2323861,31.9320088 9.64536193,30.3608938 4.42713137,31.1958717 C4.27206434,31.2204204 4.11796247,31.2475531 3.96514745,31.2763009 C3.73801609,33.6946681 4.33769437,37.1915619 6.16504021,41.2152832 C11.3102413,40.3499425 15.1090617,37.4541681 14.672815,34.7060088" id="Shape" fill="#FFE269"></path>
            <path d="M6.1647185,42.0631814 C5.83849866,42.0631814 5.53576408,41.8726062 5.39710456,41.5673628 C3.66273458,37.7481062 2.8555496,34.0648363 3.12450402,31.1971637 C3.15989276,30.8205354 3.43978552,30.513031 3.81040214,30.4435841 C3.97093834,30.4132212 4.13211796,30.3847965 4.29490617,30.3589558 C5.26745308,30.2035885 6.24128686,30.1247743 7.18906166,30.1247743 C11.7416622,30.1247743 15.0842895,31.9119823 15.5067024,34.5729292 C16.0208043,37.8117389 11.9787668,41.0967389 6.30466488,42.0512301 C6.25769437,42.0589823 6.21104558,42.0631814 6.1647185,42.0631814 M4.76686327,32.0008097 C4.7044504,34.311615 5.38005362,37.2532566 6.66627346,40.259177 C11.3472386,39.2969336 14.1410188,36.7416106 13.8389276,34.8390885 C13.5612869,33.0896726 10.7642895,31.8196018 7.18873995,31.8196018 C6.3966756,31.8199248 5.5830563,31.8806504 4.76686327,32.0008097" id="Shape" fill="#000000"></path>
            <path d="M70.0783914,28.763615 L70.0793566,28.763292 C64.44,25.8704248 57.626059,20.0585265 49.6854692,19.6253717 C39.3300804,19.0601062 34.9119571,23.6371416 34.9119571,23.6371416 C34.3209651,30.7003761 40.230563,36.3510929 59.0277748,37.4809779 C63.9468097,37.776854 70.4084718,37.5685133 77.2671314,37.1014425 C76.1462735,32.9927699 70.0783914,28.763615 70.0783914,28.763615" id="Shape" fill="#DBAF33"></path>
            <path d="M34.9119571,23.6374646 C34.3209651,30.7003761 40.2302413,36.3510929 59.0277748,37.4809779 C63.9471314,37.776854 70.4087936,37.5685133 77.2671314,37.1011195 C76.943807,35.916 76.2077212,34.7211903 75.3252547,33.6200531 C74.9668633,33.6074558 74.5984987,33.6016416 74.2163003,33.6061637 C62.8690617,33.7434425 60.3464879,29.4002655 60.3464879,29.4002655 C60.3464879,29.4002655 54.5819839,30.333115 48.4327078,27.2629159 C44.7867024,25.442115 42.9657909,22.3906504 42.0875067,20.2077566 C37.1269705,21.3479779 34.9119571,23.6374646 34.9119571,23.6374646" id="Shape" fill="#BA9027"></path>
            <path d="M64.1514209,38.4658319 L64.1504558,38.4658319 C62.247185,38.4658319 60.5070241,38.4189956 58.9772654,38.3272611 C47.5653619,37.6408673 39.9780161,35.2050575 36.4269169,31.0866947 C34.621126,28.9929513 33.8284182,26.4625 34.0706702,23.5660796 C34.086756,23.3709823 34.1700804,23.1878363 34.3055228,23.0476504 C34.4757105,22.8709646 38.5804826,18.7296681 47.9391957,18.7296681 C48.5256836,18.7296681 49.1282574,18.7461416 49.7311528,18.7790885 C55.7768365,19.1088805 61.0919035,22.3845133 65.7809115,25.2744735 C67.4345308,26.2932434 68.9951743,27.2554867 70.463807,28.0087434 C70.5107775,28.032323 70.555496,28.0610708 70.5966756,28.0927257 C71.1641823,28.4939027 76.9277212,32.6477965 78.0817158,36.8775973 C78.1486327,37.1224381 78.1023056,37.3850442 77.9556032,37.5924159 C77.8089008,37.7997876 77.5769437,37.9296372 77.3243968,37.9467566 C72.2715282,38.2910841 67.8389276,38.4658319 64.1514209,38.4658319 M35.7307239,24.0357345 C35.6065416,26.3494469 36.2535121,28.2955752 37.7034853,29.9771593 C40.9457373,33.7373053 48.1370509,35.9773717 59.0782842,36.6353407 C60.5745845,36.7248142 62.2809651,36.7710044 64.1504558,36.7710044 L64.1510992,36.7710044 C67.5239678,36.7710044 71.5325469,36.6227434 76.0803217,36.3307434 C74.5335121,33.0399292 70.0967292,29.8163009 69.6353887,29.4871549 C68.1268633,28.7090265 66.5578552,27.7419381 64.8978016,26.719292 C60.3796247,23.9346327 55.2579088,20.7781903 49.6391421,20.4716549 C49.0668097,20.440323 48.4947989,20.4244956 47.938874,20.4244956 C40.4882574,20.4241726 36.6424665,23.2601903 35.7307239,24.0357345" id="Shape" fill="#000000"></path>
            <path d="M95.2719571,24.9692301 C95.2719571,24.9692301 81.3146381,30.8137522 74.8986595,30.3612168 C73.4030027,30.2559159 71.795067,29.6425221 70.0796783,28.763292 L70.0787131,28.763615 C70.0787131,28.763615 76.1462735,32.9927699 77.2674531,37.1014425 C86.8742091,36.4467035 97.2598391,35.2825796 105.28504,34.2757611 L95.2719571,24.9692301 Z" id="Shape" fill="#727272"></path>
            <path d="M105.284718,34.2757611 L98.0908311,27.5891549 C96.3278284,29.2755841 93.6682038,31.1199646 89.7567828,32.3952035 C84.9461662,33.9647035 79.9872386,34.7431549 76.387882,35.1288274 C76.7778016,35.7774292 77.0872922,36.4408894 77.2671314,37.1014425 C86.8735657,36.4467035 97.2591957,35.2825796 105.284718,34.2757611" id="Shape" fill="#545454"></path>
            <path d="M77.2668097,37.9490177 C76.8887936,37.9490177 76.5538874,37.6954558 76.4528686,37.3249646 C75.4253083,33.5567434 69.6553351,29.4997522 69.5967828,29.4593761 C69.3522788,29.2888274 69.2145845,29.0013496 69.2364611,28.7028894 C69.2573727,28.4044292 69.4343164,28.1389159 69.7006971,28.0051903 C69.9403753,27.884708 70.2244504,27.885354 70.4631635,28.0080973 C72.2991957,28.9499912 73.7272922,29.4290133 74.9578552,29.5159027 C75.1730831,29.5307611 75.4043968,29.5381903 75.6453619,29.5381903 C82.0909383,29.5381903 94.8189812,24.2401991 94.9470241,24.1865796 C95.2507239,24.0589912 95.602681,24.1210088 95.8452547,24.346792 L105.858016,33.653969 C106.098981,33.8774912 106.18874,34.2218186 106.088043,34.5354602 C105.987668,34.8491018 105.714853,35.076177 105.388954,35.1168761 C98.0872922,36.0329292 87.2908311,37.267469 77.3240751,37.9464336 C77.3050938,37.9483717 77.2854692,37.9490177 77.2668097,37.9490177 M74.2085791,31.1370841 C75.6620912,32.5699513 77.155496,34.3639425 77.8616622,36.2105841 C86.8130831,35.5810398 96.362252,34.5199558 103.377587,33.6588142 L95.0930831,25.9582832 C92.5994638,26.971885 81.7486327,31.2336637 75.6453619,31.2336637 C75.3648257,31.2336637 75.0936193,31.2249425 74.8394638,31.206531 C74.6329223,31.1919956 74.4225201,31.1687389 74.2085791,31.1370841" id="Shape" fill="#000000"></path>
            <path d="M59.0277748,37.4813009 C54.2834316,37.1957611 50.362681,36.6220973 47.157748,35.8106991 C46.8463271,39.9090354 47.063807,48.5385398 53.5122788,53.4156504 C53.5122788,53.4156504 42.8084718,57.1554469 29.8105094,57.9361593 C33.2599464,58.7763053 37.0983378,59.3687035 41.3559249,59.6313097 C61.5040214,60.8745708 92.0075067,48.217146 102.138338,42.7925354 C112.268204,37.3679248 119.134263,32.3955265 119.134263,32.3955265 C119.134263,32.3955265 77.8249866,38.6115088 59.0277748,37.4813009" id="Shape" fill="#E6E7E8"></path>
            <path d="M59.0277748,37.4813009 C54.2834316,37.1957611 50.362681,36.6220973 47.157748,35.8106991 C47.0779625,36.8588628 47.0338874,38.2045177 47.1188204,39.7068319 C51.6324933,40.5033717 61.2318499,41.4397743 78.1113137,39.8544469 C97.6996247,38.0145885 111.22134,35.4108142 116.309598,34.3332566 C118.12311,33.1277876 119.133941,32.3958496 119.133941,32.3958496 C119.133941,32.3958496 77.8249866,38.6115088 59.0277748,37.4813009" id="Shape" fill="#FFFFFF"></path>
            <path d="M44.2214477,60.5644823 C43.2212332,60.5644823 42.2396783,60.5350885 41.3041287,60.4769469 C37.1797319,60.2227389 33.2454692,59.6448761 29.6113673,58.7598319 C29.2056836,58.6606681 28.9325469,58.2788717 28.969866,57.8605752 C29.007185,57.4429248 29.3430563,57.1150708 29.7603217,57.0898761 C39.7518499,56.4900487 48.4642359,54.0949381 51.7943164,53.0768142 C46.3071314,47.9674602 45.9825201,40.1364336 46.3161394,35.7464204 C46.3351206,35.4973805 46.4628418,35.2686903 46.6645576,35.1230133 C46.8665952,34.9766903 47.1223592,34.9279159 47.3642895,34.9886416 C50.6030027,35.8087611 54.5443432,36.3620752 59.0786059,36.6350177 C60.5774799,36.7254602 62.286756,36.7710044 64.1588204,36.7710044 C84.1273995,36.7710044 118.662949,31.609646 119.009759,31.5573186 C119.393566,31.498531 119.76933,31.7136549 119.916354,32.0757478 C120.063056,32.4378407 119.944343,32.8538761 119.628418,33.0828894 C119.558928,33.1329558 112.598928,38.1505752 102.535013,43.5403009 C92.162252,49.0947611 64.2601609,60.5644823 44.2214477,60.5644823 M35.8015013,58.218469 C37.6191957,58.4778451 39.4919035,58.6671283 41.4077212,58.7850265 C42.3088472,58.8409071 43.2553351,58.8693319 44.2214477,58.8693319 C63.7492761,58.8693319 91.8978016,47.3149823 101.740697,42.0447699 C107.800858,38.7995 112.715067,35.697 115.651689,33.7521637 C106.213512,35.0745619 80.4183378,38.4661549 64.1588204,38.4661549 C62.2532976,38.4661549 60.5099196,38.4189956 58.9775871,38.3269381 C54.7869169,38.0753142 51.080429,37.5859558 47.9404826,36.8704912 C47.7484182,41.355146 48.4458981,48.5227124 54.0202681,52.7386239 C54.2692761,52.9272611 54.3944236,53.2376726 54.3464879,53.546792 C54.2982306,53.8559115 54.0842895,54.1133496 53.7899196,54.2160664 C53.698874,54.2483673 45.9812332,56.9138363 35.8015013,58.218469" id="Shape" fill="#000000"></path>
            <path d="M47.157748,35.8106991 C37.6639142,33.4078363 34.4702413,28.9176903 34.9119571,23.6371416 C34.9119571,23.6371416 8.57308311,27.3662788 6.04053619,27.7900664 C4.9261126,27.9764425 4.15560322,29.2474823 3.96514745,31.2759779 C4.11796247,31.2475531 4.27174263,31.2204204 4.42713137,31.1955487 C9.64536193,30.3605708 14.2323861,31.9320088 14.672815,34.7056858 C15.1090617,37.4538451 11.3102413,40.3499425 6.16504021,41.2146372 C6.28729223,41.4840265 6.41372654,41.755354 6.54723861,42.0289425 C9.54337802,48.179031 16.9373727,54.8003894 29.8108311,57.9355133 C42.8087936,57.1548009 53.5126005,53.4150044 53.5126005,53.4150044 C47.063807,48.5388628 46.8466488,39.9093584 47.157748,35.8106991" id="Shape" fill="#727272"></path>
            <path d="M42.1695442,37.1011195 C43.9261126,37.5626991 45.5675067,37.8808628 47.072815,38.0969558 C47.0721716,37.2416283 47.107882,36.4673761 47.157748,35.8106991 C37.6639142,33.4078363 34.4702413,28.9176903 34.9119571,23.6371416 C34.9119571,23.6371416 8.57308311,27.3662788 6.04053619,27.7900664 C5.04096515,27.957385 4.31967828,28.9984425 4.04396783,30.6738894 L31.1266488,28.1101681 C31.1266488,28.1104912 33.4156568,34.8000044 42.1695442,37.1011195" id="Shape" fill="#8C8C8C"></path>
            <path d="M6.16504021,41.2152832 C6.28729223,41.4846726 6.41372654,41.756 6.54723861,42.0295885 C9.54337802,48.179677 16.9373727,54.8010354 29.8108311,57.9361593 C38.2783914,57.4277434 45.7692225,55.663792 49.9643968,54.495792 C46.3084182,52.9653761 39.6141555,49.2966416 36.4664879,42.0631814 C36.4664879,42.0631814 27.061126,39.5466195 23.3465952,37.9490177 C23.3465952,37.9490177 19.969866,41.2204513 16.0304558,42.0631814 C16.0304558,42.0631814 18.5067024,38.8880044 17.8314209,36.0939779 L14.5447721,36.0939779 C13.7916354,38.3698982 10.4451475,40.4952965 6.16504021,41.2152832" id="Shape" fill="#595959"></path>
            <path d="M29.8105094,58.4448982 C29.7702949,58.4448982 29.7304021,58.4397301 29.6911528,58.4303628 C13.5953887,54.5103274 7.82541555,45.8116991 6.09201072,42.2534336 C5.95624665,41.975323 5.82820375,41.6994735 5.70369973,41.426208 C5.63839142,41.282146 5.64386059,41.1161195 5.71753351,40.9762566 C5.79152815,40.8363938 5.92568365,40.7394912 6.08107239,40.7133274 C10.0719571,40.0424381 13.3547453,38.0766062 14.063807,35.9327965 C14.1329759,35.7251018 14.3263271,35.5849159 14.5447721,35.5849159 L17.8310992,35.5849159 C18.0649866,35.5849159 18.268311,35.7454513 18.3236461,35.9731726 C18.7914209,37.9096106 17.9099196,39.9574867 17.197319,41.2026858 C20.3864879,40.0789381 22.9660054,37.6101814 22.9949598,37.5824027 C23.1413405,37.4406018 23.3584987,37.4008717 23.546059,37.4809779 C27.1846649,39.0462788 36.5025201,41.5460442 36.5964611,41.5712389 C36.7457373,41.610969 36.868311,41.7169159 36.9304021,41.8590398 C39.9989276,48.911292 46.5358713,52.5089646 50.1590349,54.0261372 C50.3588204,54.1094735 50.4833244,54.310708 50.4698123,54.5271239 C50.4563003,54.7435398 50.3079893,54.9273319 50.0998391,54.9857965 C45.4175871,56.2891372 38.1024129,57.9477876 29.8407507,58.4436062 C29.8304558,58.4445752 29.8208043,58.4448982 29.8105094,58.4448982 M6.90048257,41.5954646 C6.93394102,41.6655575 6.96772118,41.7359735 7.00214477,41.8060664 C8.66991957,45.2299602 14.2343164,53.5971814 29.8558713,57.4235442 C37.4908311,56.9584115 44.367185,55.4464071 48.4529759,54.3769248 C44.6252011,52.559031 38.9961394,48.9319646 36.1013405,42.4908451 C34.6356032,42.0948363 27.0218767,40.0120752 23.4505094,38.543677 C22.586059,39.3214823 19.6002145,41.8186637 16.1356568,42.559969 C15.9268633,42.6042212 15.7138874,42.5131327 15.6006434,42.3322478 C15.4877212,42.1510398 15.4999464,41.9178274 15.6308847,41.7495398 C15.6530831,41.720792 17.7194638,39.0281903 17.4099732,36.6020708 L14.8922252,36.6020708 C13.9151743,38.8550575 10.8064343,40.7963407 6.90048257,41.5954646" id="Shape" fill="#000000"></path>
            <path d="M29.8105094,58.7837345 C29.7435925,58.7837345 29.6766756,58.7756593 29.611689,58.7598319 C13.3769437,54.8062035 7.54327078,46.0035664 5.78863271,42.4020177 C5.65190349,42.121646 5.52225201,41.8435354 5.39710456,41.5667168 C5.2880429,41.3270442 5.29640751,41.0502257 5.41930295,40.8176593 C5.54284182,40.5847699 5.76675603,40.4226195 6.02541555,40.3793363 C11.0901877,39.5275619 14.1551743,36.827208 13.8392493,34.8394115 C13.5616086,33.0896726 10.7646113,31.8192788 7.18873995,31.8192788 C6.32975871,31.8192788 5.44536193,31.8916327 4.56032172,32.0331106 C4.41201072,32.0563673 4.26563003,32.082208 4.11989276,32.1093407 C3.85898123,32.157469 3.59131367,32.0815619 3.39571046,31.901969 C3.20010724,31.7223761 3.0997319,31.461385 3.12450402,31.1968407 C3.35356568,28.7571549 4.36568365,27.2109115 5.90187668,26.9541195 C8.41608579,26.5329159 33.7183914,22.9501018 34.7942091,22.7973186 C35.0473995,22.7624336 35.3050938,22.8438319 35.4920107,23.0208407 C35.6789276,23.1978496 35.7747989,23.4507655 35.753244,23.7075575 C35.2996247,29.128292 39.2062198,32.923646 47.3642895,34.9883186 C47.7625737,35.0890973 48.030563,35.4634646 47.9996783,35.8746549 C47.6692761,40.222354 48.0125469,48.1948584 54.0202681,52.7383009 C54.2692761,52.926615 54.3944236,53.2373496 54.3464879,53.546469 C54.2982306,53.8555885 54.0842895,54.1130265 53.7895979,54.2157434 C53.6815013,54.2535354 42.8258445,58.0030221 29.8610188,58.7817965 C29.8442895,58.7830885 29.8275603,58.7837345 29.8105094,58.7837345 M7.39367292,41.8354602 C9.14219839,45.3165265 14.7053083,53.3494336 29.886756,57.0824469 C39.8255228,56.4700221 48.477748,54.0907389 51.7943164,53.0768142 C46.590563,48.2316814 46.030134,40.9391106 46.270134,36.4541327 C38.1497051,34.2453982 34.0378552,30.2688363 34.0269169,24.6184425 C29.1834853,25.3054823 8.39163539,28.2564912 6.17951743,28.6263363 C5.6583378,28.7138717 5.23367292,29.3146681 4.99013405,30.2610841 C5.73008043,30.1703186 6.46713137,30.1244513 7.18873995,30.1244513 C11.7416622,30.1244513 15.0839678,31.9119823 15.5063807,34.5726062 C15.9873458,37.6004912 12.486756,40.6681062 7.39367292,41.8354602" id="Shape" fill="#000000"></path>
            <path d="M115.097051,35.1310885 C112.319678,36.939615 108.249973,39.4636062 103.332547,42.1465177 L103.332547,42.1471637 L111.368365,43.6404336 C111.368365,43.6404336 115.138874,39.346031 115.758177,38.0465664 C116.376836,36.7464558 115.097373,35.1310885 115.097051,35.1310885 Z" id="Shape" fill="#DD3E3E"></path>
            <path d="M111.368043,44.4876858 C111.31689,44.4876858 111.265416,44.4831637 111.213941,44.4737965 L103.178445,42.9805265 C102.82681,42.9149558 102.554316,42.6345841 102.498338,42.2795973 C102.442359,41.9255796 102.614799,41.5735 102.929115,41.4019823 C107.951421,38.6622212 112.068097,36.0926858 114.637641,34.419823 C114.970617,34.2034071 115.409759,34.2489513 115.690938,34.529 C115.709598,34.5474115 117.402466,36.5571726 116.519357,38.4118894 C115.867882,39.7778938 112.39496,43.7521947 112.000858,44.201177 C111.839678,44.384969 111.607721,44.4876858 111.368043,44.4876858 M105.805255,41.7437257 L111.049544,42.7188894 C112.492761,41.0550708 114.61126,38.4884425 114.996354,37.6802743 C115.185845,37.2832965 115.033351,36.7461327 114.82874,36.3129779 C112.616622,37.7361549 109.509491,39.6583805 105.805255,41.7437257" id="Shape" fill="#000000"></path>
            <path d="M42.1695442,20.1883761 C42.1695442,20.1883761 38.3169973,15.8959115 39.1048794,11.2623496 C39.8927614,6.62878761 43.0442895,0.978393805 43.0442895,0.978393805 C43.0442895,0.978393805 29.4099732,9.63180088 25.533941,24.9689071 C30.7270777,24.2295398 34.9119571,23.6371416 34.9119571,23.6371416 C34.9119571,23.6371416 37.1507775,21.3221372 42.1695442,20.1883761" id="Shape" fill="#DBAF33"></path>
            <path d="M43.0442895,0.978393805 C43.0442895,0.978393805 29.4099732,9.6324469 25.533941,24.9692301 C26.6174799,24.8145088 27.6559786,24.6668938 28.6227346,24.5302611 C31.5712601,16.9104823 36.562681,10.6179469 40.5065952,6.45920796 C41.6676676,3.44747345 43.0442895,0.978393805 43.0442895,0.978393805" id="Shape" fill="#E5D057"></path>
            <path d="M25.5342627,25.8164823 C25.2965147,25.8164823 25.0671314,25.7160265 24.9059517,25.5354646 C24.7180697,25.3251858 24.6466488,25.0348009 24.7161394,24.7612124 C28.6298123,9.27423009 42.0250938,0.622761062 42.593244,0.261960177 C42.9201072,0.0549115044 43.3447721,0.096579646 43.6249866,0.363384956 C43.9052011,0.630190265 43.9695442,1.05397788 43.7810188,1.39249115 C43.750134,1.44772566 40.6906166,6.97311504 39.9368365,11.4051195 C39.2721716,15.3154646 42.3220375,19.0646283 42.748311,19.564969 C42.9156032,19.7196903 43.0204826,19.9419204 43.0204826,20.1886991 C43.0204826,20.6108717 42.7135657,20.9606903 42.3114209,21.025292 C37.6680965,22.0844381 35.5360858,24.2091903 35.5151743,24.2305088 C35.3852011,24.3626195 35.2130831,24.4511239 35.0300268,24.4769646 C35.0297051,24.4769646 30.8451475,25.0696858 25.6526542,25.8087301 C25.6130831,25.8138982 25.5735121,25.8164823 25.5342627,25.8164823 M40.7108847,3.7814646 C36.741555,7.03933186 29.6155496,14.0063097 26.6885791,23.9488451 C30.5372654,23.4016681 33.6337802,22.9623761 34.5307239,22.8354336 C35.1654692,22.2698451 37.1482038,20.7135885 40.7144236,19.6870664 C39.5572118,18.0387522 37.6648794,14.6943186 38.2729223,11.1202257 C38.6998391,8.60786283 39.776622,5.84936726 40.7108847,3.7814646" id="Shape" fill="#000000"></path>
            <path d="M46.0542627,19.6395841 L49.4741019,14.6239027 C49.4741019,14.6239027 57.1984987,14.1448805 58.4647721,12.9742965 C59.7310456,11.8033894 59.4778552,9.05910619 59.4778552,9.05910619 L48.5034853,10.7542566 L42.1695442,20.1886991 C43.4908311,19.8899159 44.3379088,19.710323 46.0542627,19.6395841" id="Shape" fill="#727272"></path>
            <path d="M42.1695442,21.0359513 C41.8944772,21.0359513 41.6319571,20.9009336 41.4723861,20.6664292 C41.2774263,20.3795973 41.2761394,20.002323 41.4694906,19.7145221 L47.8034316,10.2800796 C47.9350134,10.0840133 48.1425201,9.95190265 48.3754424,9.91604867 L59.3498123,8.22089823 C59.5791957,8.18536726 59.8146917,8.24673894 59.9974263,8.39047788 C60.181126,8.53421681 60.2972654,8.74740265 60.3188204,8.98029204 C60.3487399,9.3039469 60.5665416,12.1832478 59.0371046,13.5970575 C57.7457373,14.7905752 52.1884182,15.2880088 49.9389812,15.4427301 L46.7510992,20.1182832 C46.6005362,20.3388982 46.3553887,20.475208 46.089008,20.4865133 C44.4627346,20.5533761 43.6899732,20.7139115 42.3548525,21.0156018 C42.2927614,21.0291681 42.230992,21.0359513 42.1695442,21.0359513 Z M48.997319,11.535292 L44.009437,18.9644956 C44.4781769,18.8976327 44.9813405,18.8475664 45.5948525,18.8130044 L48.7779088,14.1448805 C48.924933,13.9294336 49.162681,13.7934469 49.4223056,13.7776195 C53.0084718,13.5547434 57.268311,12.9277832 57.8934048,12.3499204 C58.4223056,11.860885 58.6018231,10.840823 58.6452547,10.0446062 L48.997319,11.535292 Z" id="Shape" fill="#000000"></path>
            <polygon id="Shape" fill="#E6E7E8" points="15.8374263 67.6545265 12.5749062 65.4151062 23.110134 52.3380929 26.1731903 54.8255841"></polygon>
            <path d="M15.5852011,68.4633407 C15.5070241,68.438792 15.4314209,68.402615 15.3609651,68.3538407 L12.098445,66.1140973 C11.903807,65.9803717 11.7738338,65.7710619 11.7397319,65.5372035 C11.70563,65.3030221 11.7706166,65.0652876 11.9186059,64.8811726 L22.4538338,51.8051283 C22.5947453,51.6303805 22.7990349,51.5186195 23.0216622,51.4953628 C23.2442895,51.4721062 23.4669169,51.537677 23.6412869,51.6788319 L26.7040214,54.166646 C27.0665952,54.4612301 27.1225737,54.9945177 26.8294906,55.3585487 L16.4937265,68.1874912 C16.2710992,68.4639867 15.907882,68.5650885 15.5852011,68.4633407 Z M13.806756,65.2332522 L15.6710992,66.5133363 L24.986059,54.9518805 L23.2356032,53.5299956 L13.806756,65.2332522 Z" id="Shape" fill="#000000"></path>
            <path d="M27.4748525,56.4167257 L30.2403217,52.9938009 C31.6208043,51.2850841 31.3605362,48.7765973 29.6586595,47.3905664 C27.9567828,46.0045354 25.4580161,46.2658496 24.0775335,47.9745664 L21.3120643,51.3974912 L27.4748525,56.4167257 Z" id="Shape" fill="#DBAF33"></path>
            <path d="M27.4745308,57.2646239 C27.2818231,57.2646239 27.0936193,57.1984071 26.9427346,57.0753407 L20.7802681,52.0561062 C20.4180161,51.7608761 20.362681,51.2275885 20.6564075,50.8638805 L23.4218767,47.4406327 C24.3397319,46.3042876 25.7025201,45.6527788 27.1611796,45.6527788 C28.2598391,45.6527788 29.3356568,46.0365133 30.190134,46.7325973 C31.1884182,47.5456106 31.8115818,48.7000442 31.9447721,49.9836814 C32.0782842,51.2669956 31.7054155,52.5260841 30.8956568,53.5280575 L28.1301877,56.9509823 C27.9889544,57.1257301 27.7849866,57.2371681 27.5620375,57.2601018 C27.5334048,57.2633319 27.5041287,57.2646239 27.4745308,57.2646239 Z M22.4998391,51.2731327 L27.3513137,55.2245 L29.5846649,52.4595442 C30.1103485,51.8090044 30.3526005,50.992115 30.2657373,50.1587522 C30.1791957,49.3260354 29.7747989,48.5763319 29.1268633,48.0485354 C28.5638606,47.5898628 27.8840751,47.3476062 27.1615013,47.3476062 C26.21437,47.3476062 25.3293298,47.7707478 24.7331903,48.5085 L22.4998391,51.2731327 Z" id="Shape" fill="#000000"></path>
            <path d="M45.4356032,69.5761062 C45.4356032,69.5761062 27.3699732,68.2204381 20.4199464,67.3725398 C11.2941555,66.2597743 4.230563,61.4579248 3.69008043,55.7606947 L1.07324397,58.727208 C1.86112601,67.0346726 8.6155496,72.1194779 20.4199464,72.1194779 L45.4356032,72.1194779 C47.0818231,72.1194779 47.5882038,71.6956903 47.5882038,71.0173717 C47.5882038,70.3396991 46.9473458,69.7091858 45.4356032,69.5761062" id="Shape" fill="#727272"></path>
            <path d="M45.4356032,72.9664071 L20.4199464,72.9664071 C8.44439678,72.9664071 1.08643432,67.8056947 0.232922252,58.8076372 C0.210723861,58.5734558 0.286327078,58.3412124 0.441394102,58.1648496 L3.05823056,55.1983363 C3.28117962,54.9460664 3.63184987,54.8501327 3.9519571,54.9547876 C4.27142091,55.0591195 4.49887399,55.3440133 4.53072386,55.6802655 C5.0258445,60.8978274 11.750992,65.4612965 20.5219303,66.5307788 C27.3728686,67.3667257 45.3181769,68.7175487 45.4986595,68.731115 C47.6647721,68.9216903 48.4327078,70.0370398 48.4327078,71.0170487 C48.4323861,72.3106991 47.4241287,72.9664071 45.4356032,72.9664071 Z M1.95217158,59.0091947 C2.87967828,66.8085664 9.58616622,71.2715796 20.4196247,71.2715796 L45.4352815,71.2715796 C46.435496,71.2715796 46.7009115,71.0987699 46.7427346,71.065177 C46.7417694,71.0603319 46.7440214,71.0438584 46.7440214,71.0173717 C46.7440214,70.8339027 46.3685791,70.5096018 45.3616086,70.4210973 C45.1914209,70.4085 27.2075067,69.0544469 20.3179625,68.2143009 C11.5566756,67.1454646 4.8508311,62.8959602 3.20268097,57.5915088 L1.95217158,59.0091947 Z" id="Shape" fill="#000000"></path>
            <path d="M114.386059,58.7436814 C112.655871,57.6890575 101.082466,49.9255398 95.360429,46.0804425 C94.0960858,46.6489381 92.7397319,47.2393982 91.3055228,47.8424558 C95.6216622,50.7459823 109.954745,60.3781062 112.35571,61.868792 C112.557748,62.3571814 112.47571,64.240323 111.378338,66.1890354 C110.602681,67.5669912 109.630456,68.3896947 108.779196,68.3896947 L97.2823592,68.3896947 L96.3275067,68.3896947 C90.6720643,68.3896947 88.3376944,63.7887566 88.3370509,63.7877876 L84.2142627,50.7563186 L80.6741019,51.8849115 L84.6276676,64.3814779 C85.8807507,68.3428584 80.7522788,68.3896947 80.7522788,68.3896947 L61.2511528,68.3896947 C58.5870241,68.3896947 56.8478284,67.526292 56.3594638,66.7249071 C56.2542627,66.5524204 55.9750134,66.0937478 56.4887936,65.0856372 C57.7827346,62.5471106 59.9707239,59.2614646 61.073244,57.6506195 C59.3575335,58.0220796 57.6492225,58.3531637 55.959571,58.6357965 C54.9908847,60.1542611 53.9536729,61.8720221 53.181555,63.3869336 C52.2389276,65.2374513 52.2421448,67.1138097 53.190563,68.6707124 C54.506059,70.8300265 57.5189276,72.1191549 61.2508311,72.1191549 L108.778874,72.1191549 C112.278499,72.1191549 114.807507,68.6645752 115.761394,65.2400354 C116.605576,62.2121504 116.091475,59.7837699 114.386059,58.7436814" id="Shape" fill="#727272"></path>
            <path d="M108.778874,72.9664071 L61.2511528,72.9664071 C57.2229491,72.9664071 53.9404826,71.5261106 52.470563,69.1129115 C51.3628954,67.2946947 51.3487399,65.1237522 52.4303485,63.0009381 C53.1075603,61.6711106 54.0559786,60.0486372 55.2485791,58.1784159 C55.3775871,57.9765354 55.5854155,57.8382876 55.8212332,57.7992035 C57.456193,57.5259381 59.1632172,57.197115 60.8950134,56.8217788 C61.232815,56.7487788 61.5818767,56.8896106 61.773941,57.1780575 C61.9669705,57.4668274 61.9647185,57.8441018 61.7684718,58.1306106 C60.6173727,59.8125177 58.4979088,63.0028761 57.2396783,65.4719558 C57.0418231,65.8595664 56.9877748,66.1328319 57.0791421,66.282708 C57.329437,66.6935752 58.6787131,67.5421195 61.2508311,67.5421195 L80.7516354,67.5421195 C81.3506702,67.5340442 83.072815,67.3163363 83.7168901,66.4196637 C84.0295979,65.9842478 84.0640214,65.4015398 83.8224129,64.6379469 L79.8688472,52.1413805 C79.8012869,51.9275487 79.8209115,51.6946593 79.9238606,51.4953628 C80.0264879,51.2954204 80.2043968,51.1452212 80.4180161,51.0770664 L83.9581769,49.9478274 C84.4018231,49.8073186 84.8769973,50.0531283 85.0185523,50.4992035 L89.1178552,63.4560575 C89.4006434,63.9696416 91.5423056,67.5414735 96.3265416,67.5414735 L108.778552,67.5414735 C109.210295,67.5414735 109.954102,66.9939735 110.642574,65.7710619 C111.472279,64.2981416 111.618981,62.9376283 111.596139,62.3898053 C108.452011,60.3874735 95.0087936,51.3535619 90.835496,48.545969 C90.5768365,48.3725133 90.4349598,48.070177 90.4652011,47.7597655 C90.4951206,47.449354 90.6926542,47.1806106 90.9793029,47.0601283 C92.3568901,46.4809735 93.7151743,45.8908363 95.0149062,45.3061903 C95.2809651,45.187 95.587882,45.2128407 95.8298123,45.3749912 C100.959571,48.8224646 113.078928,56.9548584 114.823914,58.0185265 C116.872279,59.2672788 117.526649,62.0519381 116.57437,65.4677566 C115.534584,69.2007699 112.720858,72.9664071 108.778874,72.9664071 M56.4694906,59.4090796 C55.400429,61.099708 54.5475603,62.5668142 53.9330831,63.7735752 C53.129437,65.3508274 53.1213941,66.9329248 53.910563,68.2288363 C55.0713137,70.1339425 57.8152279,71.2719027 61.2508311,71.2719027 L108.778552,71.2719027 C111.835818,71.2719027 114.080107,68.1280575 114.94874,65.0119912 C115.684826,62.3717168 115.310349,60.299292 113.94756,59.4685133 C112.272064,58.4471593 101.707882,51.3655133 95.2783914,47.0452699 C94.5571046,47.3669867 93.8200536,47.6899956 93.0733512,48.0110664 C98.4363539,51.6171372 110.611367,59.7889381 112.799035,61.1478363 C112.949276,61.2411858 113.066702,61.3794336 113.134584,61.5435221 C113.447614,62.2987168 113.338552,64.4299292 112.112493,66.6063628 C111.170831,68.2789027 109.95571,69.2375929 108.778552,69.2375929 L96.3265416,69.2375929 C90.1454155,69.2375929 87.5765147,64.1608628 87.5552815,64.1091814 C87.5465952,64.0885088 87.538874,64.0662212 87.5317962,64.0449027 L83.6644504,51.8209558 L81.7331903,52.4366106 L85.4313137,64.1253319 C85.9418767,65.7387611 85.522681,66.8059823 85.0819303,67.416792 C83.8246649,69.1594248 81.0688472,69.2343628 80.7587131,69.2375929 L61.2505094,69.2375929 C58.6072922,69.2375929 56.404504,68.4249027 55.6384987,67.1674292 C55.2138338,66.4700531 55.2456836,65.662854 55.7363003,64.6996416 C56.6776408,62.853 58.0703485,60.6361903 59.2134048,58.9019558 C58.2842895,59.0860708 57.3670777,59.2553274 56.4694906,59.4090796" id="Shape" fill="#000000"></path>
            <path d="M69.0173727,62.6262478 C69.0173727,63.983854 67.9212869,65.0843451 66.5691153,65.0843451 C65.2172654,65.0843451 64.1215013,63.983854 64.1215013,62.6262478 C64.1215013,61.2686416 65.2172654,60.1681504 66.5691153,60.1681504 C67.9212869,60.1678274 69.0173727,61.2686416 69.0173727,62.6262478" id="Shape" fill="#E5D057"></path>
            <path d="M66.569437,65.9315973 C64.7536729,65.9315973 63.2769973,64.4483407 63.2769973,62.6265708 C63.2769973,60.8035088 64.7539946,59.3208982 66.569437,59.3208982 C68.3848794,59.3208982 69.861555,60.8038319 69.861555,62.6265708 C69.861555,64.4483407 68.3845576,65.9315973 66.569437,65.9315973 M66.569437,61.0157257 C65.6850402,61.0157257 64.9653619,61.7379735 64.9653619,62.6262478 C64.9653619,63.5138761 65.6850402,64.2361239 66.569437,64.2361239 C67.4535121,64.2361239 68.1731903,63.5138761 68.1731903,62.6262478 C68.1731903,61.7382965 67.4535121,61.0157257 66.569437,61.0157257" id="Shape" fill="#000000"></path>
            <path d="M104.9363,62.6262478 C104.9363,63.983854 103.840214,65.0843451 102.488365,65.0843451 C101.136515,65.0843451 100.040429,63.983854 100.040429,62.6262478 C100.040429,61.2686416 101.136515,60.1681504 102.488365,60.1681504 C103.840214,60.1681504 104.9363,61.2686416 104.9363,62.6262478" id="Shape" fill="#E5D057"></path>
            <path d="M102.488043,65.9315973 C100.672279,65.9315973 99.1956032,64.4483407 99.1956032,62.6265708 C99.1956032,60.8035088 100.672601,59.3208982 102.488043,59.3208982 C104.303485,59.3208982 105.780161,60.8038319 105.780161,62.6265708 C105.780483,64.4483407 104.303485,65.9315973 102.488043,65.9315973 M102.488043,61.0157257 C101.603646,61.0157257 100.883968,61.7379735 100.883968,62.6262478 C100.883968,63.5138761 101.603646,64.2361239 102.488043,64.2361239 C103.37244,64.2361239 104.091796,63.5138761 104.091796,62.6262478 C104.092118,61.7382965 103.37244,61.0157257 102.488043,61.0157257" id="Shape" fill="#000000"></path>
        </g>
    </g>
</svg>