<?xml version="1.0" encoding="UTF-8"?>
<svg width="120px" height="120px" viewBox="0 0 120 120" version="1.1" xmlns="http://www.w3.org/2000/svg" xmlns:xlink="http://www.w3.org/1999/xlink">
    <!-- Generator: Sketch 51.1 (57501) - http://www.bohemiancoding.com/sketch -->
    <title>Tree36</title>
    <desc>Created with Sketch.</desc>
    <defs>
        <polygon id="path-1" points="0.36912 0.05504 73.884 0.05504 73.884 80.10224 0.36912 80.10224"></polygon>
        <polygon id="path-3" points="0 0.6016 74.7628 0.6016 74.7628 77.25744 0 77.25744"></polygon>
    </defs>
    <g id="Tree36" stroke="none" stroke-width="1" fill="none" fill-rule="evenodd">
        <g id="Group" transform="translate(22.000000, 0.000000)">
            <path d="M60.82536,115.03264 C60.82536,117.44384 50.05896,119.39824 36.77896,119.39824 C23.49896,119.39824 12.73256,117.44384 12.73256,115.03264 C12.73256,112.62144 23.49896,110.66704 36.77896,110.66704 C50.05896,110.66704 60.82536,112.62144 60.82536,115.03264" id="Fill-1" fill="#E7E7E7"></path>
            <g id="Group-5" transform="translate(1.600000, 3.398400)">
                <mask id="mask-2" fill="white">
                    <use xlink:href="#path-1"></use>
                </mask>
                <g id="Clip-4"></g>
                <path d="M73.88432,34.18384 C73.88432,24.60624 66.12032,16.84304 56.54352,16.84304 C46.96672,16.84304 39.20272,24.60624 39.20272,34.18384 C39.20272,36.37424 39.61232,38.46704 40.35312,40.39664 C39.93392,41.48864 39.62112,42.63344 39.42912,43.81824 C36.81392,45.10384 34.57232,47.03024 32.90352,49.39024 C31.09472,47.89504 28.97632,46.76384 26.66032,46.09824 C28.56592,43.62304 29.71072,40.53264 29.71072,37.16704 C29.71072,32.85264 27.83632,28.98544 24.87152,26.30144 C27.22032,25.21664 29.10192,23.29264 30.11312,20.90304 C30.12352,20.90384 30.13312,20.90464 30.14352,20.90464 C35.90112,20.90464 40.56832,16.23744 40.56832,10.47984 C40.56832,4.72224 35.90112,0.05504 30.14352,0.05504 C25.82592,0.05504 22.12192,2.67904 20.53872,6.41904 C20.52832,6.41904 20.51872,6.41744 20.50832,6.41744 C14.75072,6.41744 10.08352,11.08464 10.08352,16.84304 C10.08352,19.06944 10.78752,21.12864 11.97712,22.82224 C5.34592,24.23184 0.36912,30.11664 0.36912,37.16704 C0.36912,43.27024 4.09712,48.49984 9.39872,50.71024 C6.38112,53.83104 4.52032,58.07744 4.52032,62.76144 C4.52032,72.33824 12.28432,80.10224 21.86192,80.10224 C27.71472,80.10224 32.88592,77.19984 36.02672,72.75824 C39.02592,75.23824 42.87312,76.72864 47.06832,76.72864 C55.69472,76.72864 62.84752,70.42784 64.18272,62.17824 C69.92832,59.35344 73.88432,53.44464 73.88432,46.60944 C73.88432,44.41904 73.47392,42.32624 72.73312,40.39664 C73.47392,38.46704 73.88432,36.37424 73.88432,34.18384" id="Fill-3" fill="#5E9009" mask="url(#mask-2)"></path>
            </g>
            <path d="M41.846,114.9084 C42.0996,111.5252 42.2308,107.2588 42.2308,101.8868 C42.2308,92.9876 41.2236,81.5388 40.0748,71.3756 C39.6308,67.4508 33.9268,67.4508 33.4836,71.3756 C32.3348,81.5388 31.3276,92.9876 31.3276,101.8868 C31.3276,107.2588 31.4588,111.5252 31.7124,114.9084 L41.846,114.9084 Z" id="Fill-6" fill="#834E16"></path>
            <path d="M36.7792,79.9268 C38.2144,79.9268 39.5984,79.7108 40.9104,79.3268 C40.6504,76.6356 40.3672,73.9636 40.0752,71.3756 C39.6312,67.4508 33.9272,67.4508 33.4832,71.3756 C33.1912,73.9636 32.908,76.6356 32.648,79.3268 C33.9592,79.7108 35.3432,79.9268 36.7792,79.9268" id="Fill-8" fill="#6B3F10"></path>
            <g id="Group-12" transform="translate(0.000000, 0.198400)">
                <mask id="mask-4" fill="white">
                    <use xlink:href="#path-3"></use>
                </mask>
                <g id="Clip-11"></g>
                <path d="M71.8324,53.81744 C72.5908,52.17264 73.0252,50.34784 73.0252,48.41744 C73.0252,46.44144 72.5684,44.57584 71.7764,42.90064 C72.5684,41.22544 73.0252,39.35984 73.0252,37.38384 C73.0252,33.65664 71.4396,30.30784 68.9164,27.94784 C69.03,27.21184 69.1068,26.46464 69.1068,25.69744 C69.1068,17.94384 63.0884,11.61104 55.47,11.07904 C55.47,11.06144 55.4732,11.04464 55.4732,11.02704 C55.4732,5.26864 50.8052,0.60144 45.0484,0.60144 C40.158,0.60144 36.066,3.97264 34.9404,8.51424 C33.7772,8.21744 32.5652,8.04304 31.3108,8.04304 C25.9276,8.04304 21.2356,10.95104 18.6828,15.27184 L18.6804,15.27184 C12.922,15.27184 8.2548,19.93984 8.2548,25.69744 C8.2548,27.35424 8.6516,28.91504 9.3396,30.30624 C6.0844,32.99744 4.01,37.06544 4.01,41.61824 C4.01,42.13104 4.0364,42.63664 4.0876,43.13584 C1.6068,45.04144 -0.0004,48.02944 -0.0004,51.40064 C-0.0004,53.93744 0.9084,56.26064 2.4148,58.06864 C2.134,59.20064 1.9692,60.37824 1.9692,61.59664 C1.9692,69.69904 8.538,76.26704 16.6404,76.26704 C21.3756,76.26704 25.5748,74.01344 28.2572,70.53104 C30.6612,72.25184 33.598,73.27584 36.7796,73.27584 C40.746,73.27584 44.338,71.69504 46.9788,69.13664 C49.386,73.94784 54.3468,77.25744 60.0916,77.25744 C68.194,77.25744 74.7628,70.68944 74.7628,62.58704 C74.7628,59.29424 73.6644,56.26624 71.8324,53.81744" id="Fill-10" fill="#84BB2A" mask="url(#mask-4)"></path>
            </g>
            <path d="M29.4398839,31.9544385 C29.4222282,31.8194553 29.41312,31.6817887 29.41312,31.542 C29.41312,29.8012 30.82432,28.3908 32.56512,28.3908 C34.30512,28.3908 35.71632,29.8012 35.71632,31.542 C35.71632,31.6817887 35.7072118,31.8194553 35.6895565,31.9544385 C35.7072118,32.0894665 35.71632,32.227187 35.71632,32.36704 C35.71632,34.10704 34.30512,35.51824 32.56512,35.51824 C30.82432,35.51824 29.41312,34.10704 29.41312,32.36704 C29.41312,32.227187 29.4222282,32.0894665 29.4398839,31.9544385 Z M53.6129737,20.44768 C53.5953377,20.3127348 53.58624,20.1751078 53.58624,20.03536 C53.58624,18.29456 54.99664,16.88416 56.73744,16.88416 C58.47744,16.88416 59.88864,18.29456 59.88864,20.03536 C59.88864,20.1751078 59.8795371,20.3127348 59.861892,20.44768 C59.8795371,20.5826252 59.88864,20.7202522 59.88864,20.86 C59.88864,22.6008 58.47744,24.0112 56.73744,24.0112 C54.99664,24.0112 53.58624,22.6008 53.58624,20.86 C53.58624,20.7202522 53.5953377,20.5826252 53.6129737,20.44768 Z M5.53561856,57.5842 C5.51797941,57.4491981 5.50888,57.3115048 5.50888,57.17168 C5.50888,55.43168 6.91928,54.02048 8.66008,54.02048 C10.40008,54.02048 11.81128,55.43168 11.81128,57.17168 C11.81128,57.3115048 11.8021754,57.4491981 11.7845272,57.5842 C11.8021754,57.7192019 11.81128,57.8568952 11.81128,57.99672 C11.81128,59.73752 10.40008,61.14792 8.66008,61.14792 C6.91928,61.14792 5.50888,59.73752 5.50888,57.99672 C5.50888,57.8568952 5.51797941,57.7192019 5.53561856,57.5842 Z M61.7059333,66.0088 C61.6882976,65.8738109 61.6792,65.736131 61.6792,65.59632 C61.6792,63.85552 63.0896,62.44512 64.8304,62.44512 C66.5704,62.44512 67.9816,63.85552 67.9816,65.59632 C67.9816,65.736131 67.9724972,65.8738109 67.9548524,66.0088 C67.9724972,66.1437891 67.9816,66.281469 67.9816,66.42128 C67.9816,68.16208 66.5704,69.57248 64.8304,69.57248 C63.0896,69.57248 61.6792,68.16208 61.6792,66.42128 C61.6792,66.281469 61.6882976,66.1437891 61.7059333,66.0088 Z M17.163708,66.0088 C17.1460628,65.8738109 17.13696,65.736131 17.13696,65.59632 C17.13696,63.85552 18.54816,62.44512 20.28896,62.44512 C22.02896,62.44512 23.44016,63.85552 23.44016,65.59632 C23.44016,65.736131 23.4310572,65.8738109 23.4134124,66.0088 C23.4310572,66.1437891 23.44016,66.281469 23.44016,66.42128 C23.44016,68.16208 22.02896,69.57248 20.28896,69.57248 C18.54816,69.57248 17.13696,68.16208 17.13696,66.42128 C17.13696,66.281469 17.1460628,66.1437891 17.163708,66.0088 Z M47.2758586,41.817 C47.2582194,41.6819981 47.24912,41.5443048 47.24912,41.40448 C47.24912,39.66448 48.65952,38.25328 50.40032,38.25328 C52.14032,38.25328 53.55152,39.66448 53.55152,41.40448 C53.55152,41.5443048 53.5424154,41.6819981 53.5247672,41.817 C53.5424154,41.9520019 53.55152,42.0896952 53.55152,42.22952 C53.55152,43.97032 52.14032,45.38072 50.40032,45.38072 C48.65952,45.38072 47.24912,43.97032 47.24912,42.22952 C47.24912,42.0896952 47.2582194,41.9520019 47.2758586,41.817 Z M14.0128933,26.32288 C13.9952576,26.1878909 13.98616,26.050211 13.98616,25.9104 C13.98616,24.1696 15.39656,22.7592 17.13736,22.7592 C18.87736,22.7592 20.28856,24.1696 20.28856,25.9104 C20.28856,26.050211 20.2794572,26.1878909 20.2618124,26.32288 C20.2794572,26.4578691 20.28856,26.595549 20.28856,26.73536 C20.28856,28.47536 18.87736,29.88656 17.13736,29.88656 C15.39656,29.88656 13.98616,28.47536 13.98616,26.73536 C13.98616,26.595549 13.9952576,26.4578691 14.0128933,26.32288 Z M58.9479259,51.83108 C58.9242789,51.6501804 58.91208,51.465677 58.91208,51.27832 C58.91208,48.94552 60.80328,47.05512 63.13608,47.05512 C65.46808,47.05512 67.35928,48.94552 67.35928,51.27832 C67.35928,51.465677 67.3470811,51.6501804 67.3234345,51.83108 C67.3470811,52.0119796 67.35928,52.196483 67.35928,52.38384 C67.35928,54.71664 65.46808,56.60704 63.13608,56.60704 C60.80328,56.60704 58.91208,54.71664 58.91208,52.38384 C58.91208,52.196483 58.9242789,52.0119796 58.9479259,51.83108 Z M11.862786,40.71152 C11.839152,40.5306332 11.82696,40.3461432 11.82696,40.1588 C11.82696,37.826 13.71736,35.9356 16.05016,35.9356 C18.38216,35.9356 20.27336,37.826 20.27336,40.1588 C20.27336,40.3461432 20.2611628,40.5306332 20.2375198,40.71152 C20.2611628,40.8924068 20.27336,41.0768968 20.27336,41.26424 C20.27336,43.59704 18.38216,45.48744 16.05016,45.48744 C13.71736,45.48744 11.82696,43.59704 11.82696,41.26424 C11.82696,41.0768968 11.839152,40.8924068 11.862786,40.71152 Z M19.3206455,52.73772 C19.2969989,52.5568204 19.2848,52.372317 19.2848,52.18496 C19.2848,49.85216 21.176,47.96176 23.508,47.96176 C25.8408,47.96176 27.7312,49.85216 27.7312,52.18496 C27.7312,52.372317 27.7190062,52.5568204 27.6953688,52.73772 C27.7190062,52.9186196 27.7312,53.103123 27.7312,53.29048 C27.7312,55.62328 25.8408,57.51368 23.508,57.51368 C21.176,57.51368 19.2848,55.62328 19.2848,53.29048 C19.2848,53.103123 19.2969989,52.9186196 19.3206455,52.73772 Z M45.125666,54.426 C45.102032,54.2451132 45.08984,54.0606232 45.08984,53.87328 C45.08984,51.54048 46.98024,49.65008 49.31304,49.65008 C51.64584,49.65008 53.53624,51.54048 53.53624,53.87328 C53.53624,54.0606232 53.524048,54.2451132 53.500414,54.426 C53.524048,54.6068868 53.53624,54.7913768 53.53624,54.97872 C53.53624,57.31152 51.64584,59.20192 49.31304,59.20192 C46.98024,59.20192 45.08984,57.31152 45.08984,54.97872 C45.08984,54.7913768 45.102032,54.6068868 45.125666,54.426 Z M58.9479206,37.0412 C58.9242772,36.8603132 58.91208,36.6758232 58.91208,36.48848 C58.91208,34.15568 60.80328,32.26528 63.13608,32.26528 C65.46808,32.26528 67.35928,34.15568 67.35928,36.48848 C67.35928,36.6758232 67.3470828,36.8603132 67.3234398,37.0412 C67.3470828,37.2220868 67.35928,37.4065768 67.35928,37.59392 C67.35928,39.92672 65.46808,41.81712 63.13608,41.81712 C60.80328,41.81712 58.91208,39.92672 58.91208,37.59392 C58.91208,37.4065768 58.9242772,37.2220868 58.9479206,37.0412 Z M25.1479206,19.89512 C25.1242772,19.7142332 25.11208,19.5297432 25.11208,19.3424 C25.11208,17.0096 27.00328,15.1192 29.33608,15.1192 C31.66808,15.1192 33.55928,17.0096 33.55928,19.3424 C33.55928,19.5297432 33.5470828,19.7142332 33.5234398,19.89512 C33.5470828,20.0760068 33.55928,20.2604968 33.55928,20.44784 C33.55928,22.78064 31.66808,24.67104 29.33608,24.67104 C27.00328,24.67104 25.11208,22.78064 25.11208,20.44784 C25.11208,20.2604968 25.1242772,20.0760068 25.1479206,19.89512 Z M33.043578,43.4769927 C33.0224824,43.3156 33.0116,43.1509926 33.0116,42.98384 C33.0116,40.90304 34.698,39.21584 36.7796,39.21584 C38.8604,39.21584 40.5468,40.90304 40.5468,42.98384 C40.5468,43.1509926 40.5359176,43.3156 40.5148225,43.4769927 C40.5359176,43.6383948 40.5468,43.8030074 40.5468,43.97016 C40.5468,46.05096 38.8604,47.73736 36.7796,47.73736 C34.698,47.73736 33.0116,46.05096 33.0116,43.97016 C33.0116,43.8030074 33.0224824,43.6383948 33.043578,43.4769927 Z M31.5533432,60.8039127 C31.5322442,60.6425072 31.52136,60.4778864 31.52136,60.31072 C31.52136,58.22992 33.20776,56.54352 35.28936,56.54352 C37.37016,56.54352 39.05656,58.22992 39.05656,60.31072 C39.05656,60.4778864 39.0456758,60.6425072 39.0245772,60.8039127 C39.0456758,60.9653276 39.05656,61.1299536 39.05656,61.29712 C39.05656,63.37792 37.37016,65.06432 35.28936,65.06432 C33.20776,65.06432 31.52136,63.37792 31.52136,61.29712 C31.52136,61.1299536 31.5322442,60.9653276 31.5533432,60.8039127 Z M42.8970724,27.76272 C42.8759938,27.601389 42.86512,27.436846 42.86512,27.26976 C42.86512,25.18896 44.55152,23.50176 46.63232,23.50176 C48.71312,23.50176 50.40032,25.18896 50.40032,27.26976 C50.40032,27.436846 50.3894411,27.601389 50.368353,27.76272 C50.3894411,27.924051 50.40032,28.088594 50.40032,28.25568 C50.40032,30.33648 48.71312,32.02368 46.63232,32.02368 C44.55152,32.02368 42.86512,30.33648 42.86512,28.25568 C42.86512,28.088594 42.8759938,27.924051 42.8970724,27.76272 Z M40.4290869,12.6616312 C40.4079988,12.5002646 40.39712,12.3356844 40.39712,12.16856 C40.39712,10.08776 42.08352,8.40056 44.16432,8.40056 C46.24512,8.40056 47.93232,10.08776 47.93232,12.16856 C47.93232,12.3356844 47.9214361,12.5002646 47.9003385,12.6616312 C47.9214361,12.8230521 47.93232,12.9876913 47.93232,13.15488 C47.93232,15.23568 46.24512,16.92208 44.16432,16.92208 C42.08352,16.92208 40.39712,15.23568 40.39712,13.15488 C40.39712,12.9876913 40.4079988,12.8230521 40.4290869,12.6616312 Z" id="Combined-Shape" fill="#F6D030"></path>
        </g>
    </g>
</svg>