<?xml version="1.0" encoding="UTF-8"?>
<svg width="100px" height="100px" viewBox="0 0 100 100" version="1.1" xmlns="http://www.w3.org/2000/svg" xmlns:xlink="http://www.w3.org/1999/xlink">
    <!-- Generator: Sketch 48.2 (47327) - http://www.bohemiancoding.com/sketch -->
    <title>MBot Girl 开心（1）</title>
    <desc>Created with Sketch.</desc>
    <defs>
        <polygon id="path-1" points="22.0663509 24.8 0.154610264 24.8 0.154610264 0.131820737 22.0663509 0.131820737 22.0663509 24.8"></polygon>
    </defs>
    <g id="裁剪面板" stroke="none" stroke-width="1" fill="none" fill-rule="evenodd">
        <g id="MBot-Girl-开心（1）">
            <g id="MBot-Girl-No.1" transform="translate(10.000000, 26.300000)">
                <path d="M67.7213659,22.7835458 L66.7977266,22.6281029 C66.2937195,22.5432427 65.9403235,22.1553393 66.008394,21.7616043 L66.5252407,18.7703847 L67.0426989,15.7759475 C67.1107694,15.3822125 67.5744233,15.1316539 68.0786342,15.216514 L69.0020698,15.3719569 C69.5062806,15.456616 69.8596766,15.8447204 69.7916061,16.2384554 L68.7570974,22.2241123 C68.6892307,22.6178473 68.225373,22.8682048 67.7213659,22.7835458" id="Fill-1" fill="#C97F38"></path>
                <path d="M29.5998354,34.7400691 C29.6241233,29.4874681 26.9586774,25.0436075 23.2875923,23.6172797 C23.1308249,23.5338383 22.9226717,23.460827 22.6522932,23.401054 C22.6454685,23.3994493 22.6388445,23.3984464 22.6320198,23.3968418 C22.1996552,23.2750894 21.7552469,23.1946567 21.3016053,23.1587528 C18.2405276,22.7347256 16.1533745,23.2943452 16.1533745,23.2943452 L16.1503636,23.2983568 C11.9977359,24.2454978 8.82625876,28.9565316 8.80016433,34.6445928 C8.77447135,40.2066895 11.7644918,44.8639677 15.7711915,45.9888231 L15.7709907,45.9902271 C15.7709907,45.9902271 15.7800234,45.9924335 15.7932714,45.9956428 C16.1826806,46.1035551 16.5823269,46.1757641 16.9891993,46.2146767 C18.2326993,46.3953997 20.2371532,46.5558641 22.0848397,46.1254184 C22.1002956,46.1218079 22.1131421,46.1177963 22.1281966,46.1141859 C26.3406408,45.2320329 29.5735402,40.4836912 29.5998354,34.7400691" id="Fill-3" fill="#3E3F41"></path>
                <path d="M68.5965133,41.8702409 C68.3900967,43.0798528 67.2218025,43.9958307 65.7920873,44.0711934 C62.6720359,44.2359492 55.7218759,44.4544209 41.2449093,44.3876768 C26.7627423,44.3209327 19.8149824,44.0385229 16.6981313,43.8451052 C15.2702162,43.7563135 14.1093227,42.8307148 13.9143069,41.6199003 C13.6478855,39.9665302 13.3792638,37.0957312 13.4012656,32.2813355 C13.4220673,27.6976379 13.6900889,25.0232631 13.9581105,23.4873466 C14.1669273,22.2909632 15.31742,21.3830026 16.7309339,21.2958144 C19.6463688,21.1158257 26.3059055,20.913589 41.3521179,21.0388595 C56.3359253,21.1637291 63.0004624,21.4024446 65.9332987,21.5730129 C67.364014,21.656393 68.530508,22.5819916 68.7275239,23.7944096 C68.9795442,25.3445568 69.2193635,28.0151234 69.1987619,32.5382903 C69.1765601,37.3414619 68.8791361,40.2144656 68.5965133,41.8702409" id="Fill-5" fill="#D9568C"></path>
                <path d="M20.1783877,37.0466088 L4.06221175,31.3150433 C0.887571862,30.186041 -0.773398454,26.6894922 0.352385819,23.5055778 L0.434108827,23.2741004 C1.56009242,20.090186 5.04667502,18.424268 8.22151424,19.5534702 L24.3374908,25.2850357 C27.5125294,26.414038 29.1734997,29.9105868 28.0475161,33.0945012 L27.9655938,33.3259786 C26.8398095,36.509893 23.3534262,38.1756111 20.1783877,37.0466088" id="Fill-7" fill="#D9568C"></path>
                <path d="M61.0087431,2.2 L69.4901506,5.20264415 C70.0382975,5.463205 70.3841042,6.07883997 70.3571791,6.74642725 L70.2436516,10.3129539 L72.4995332,11.3016464 L72.6,16.2423119 L66.2040824,16.8 L56.2,15.346534 L61.0087431,2.2 Z" id="Fill-9" fill="#8B8B8B"></path>
                <path d="M61.8461904,25.9761304 L60.5336966,25.7512314 C59.8172996,25.6283214 59.3150811,25.0668785 59.4119618,24.4969868 L60.146574,20.1675799 L60.8819869,15.8335463 C60.9784673,15.2636546 61.6376166,14.9011608 62.3538134,15.0238696 L63.6663072,15.2487686 C64.382504,15.3714774 64.8849227,15.9329203 64.788042,16.502812 L63.3182171,25.1664537 C63.2215365,25.7363454 62.5623872,26.0988392 61.8461904,25.9761304" id="Fill-11" fill="#C97F38"></path>
                <path d="M60.5218254,25.7941325 L59.8825258,25.6836048 C59.5335476,25.623135 59.3279526,25.1145473 59.423344,24.5472919 L60.14816,20.2379127 L60.8737661,15.923728 C60.9691574,15.3564726 61.329393,14.9455978 61.6781737,15.0058675 L62.3176708,15.1163952 C62.6664515,15.1766648 62.8720465,15.6854527 62.7766551,16.2527081 L61.326233,24.876272 C61.2310392,25.4435274 60.8708036,25.8544022 60.5218254,25.7941325" id="Fill-13" fill="#D58830"></path>
                <path d="M52.7278977,2.52055876 C52.7278977,2.52055876 57.5890095,1.21678342 60.8699148,2.11674694 C61.3396735,2.24574238 61.6663229,2.67098667 61.6551144,3.15852533 L61.4543611,11.7267069 C61.4457545,12.0922608 61.7113573,12.4065369 62.0728333,12.4588161 L65.762851,12.9922243 C66.1323331,13.0457053 66.4047411,13.3647887 66.3999375,13.7383547 L66.3685135,16.1498083 C66.3639099,16.5113561 66.0688847,16.8015958 65.707809,16.7999934 L52.6,16.7395017 L52.7278977,2.52055876 Z" id="Fill-15" fill="#58595B"></path>
                <path d="M57.508708,42.0479962 C57.342534,43.2584348 56.4078801,44.1758894 55.2650587,44.2528954 C52.7712484,44.420544 47.2157167,44.6453454 35.6451249,44.5920027 C24.0699339,44.53866 18.5172017,44.2623207 16.026191,44.0718109 C14.8849694,43.984377 13.9579143,43.059302 13.8031385,41.8480613 C13.5917715,40.1942365 13.3794047,37.3221522 13.4016012,32.5052646 C13.4225979,27.918994 13.6391641,25.243235 13.8547304,23.706323 C14.0227041,22.5089193 14.9433603,21.5994861 16.0731837,21.510849 C18.4032195,21.3281602 23.7263876,21.1198027 35.7521082,21.231301 C47.7282366,21.3421977 53.0548041,21.5750206 55.3984378,21.7430703 C56.5420591,21.8248892 57.4735135,22.7499642 57.6298891,23.9628092 C57.8298578,25.5135582 58.0192283,28.185106 57.9984315,32.7108145 C57.9764349,37.5162716 57.7360725,40.3911633 57.508708,42.0479962" id="Fill-17" fill="#F2A7BD"></path>
                <path d="M55.1540277,23.7999549 L19.337705,23.6346108 C17.051544,23.6241765 15.1896561,21.736365 15.2000433,19.4398085 L15.2699564,4.15652134 C15.2805433,1.85996489 17.1596098,-0.0105898674 19.4457708,4.51252889e-05 L55.2622933,0.165389163 C57.5484543,0.176024156 59.4105419,2.06363503 59.3999551,4.36019148 L59.3298421,19.6434787 C59.319455,21.9400351 57.4401887,23.8105899 55.1540277,23.7999549" id="Fill-19" fill="#8B8B8B"></path>
                <g id="Group-23" transform="translate(14.600000, 0.000000)" fill="#3E3F41">
                    <path d="M39.34118,23.84384 L4.23858,23.68244 C1.94958,23.67204 0.08538,21.79044 0.09578,19.50144 L0.16618,4.20904 C0.17658,1.92004 2.05818,0.05584 4.34718,0.06624 L39.44978,0.22764 C41.73878,0.23824 43.60318,2.11964 43.59258,4.40864 L43.52218,19.70104 C43.51178,21.99004 41.63018,23.85444 39.34118,23.84384" id="Fill-21"></path>
                </g>
                <path d="M25.3278189,2.83968652 C25.0081961,2.83828071 22.9383243,2.60351162 22.1764535,2.60009753 C17.241541,2.57720302 13.2226279,6.58815971 13.2000968,11.5586773 C13.1773663,16.5293958 17.1593921,20.5771042 22.0945041,20.5999987 C22.2304883,20.6006012 25.2033993,20.3895299 25.2478634,20.3897308 C30.0591539,20.4120228 33.9777735,16.5012797 33.9999058,11.6550753 C34.0220382,6.80866995 30.1393088,2.86197854 25.3278189,2.83968652" id="Fill-24" fill="#868585"></path>
                <path d="M31.1999029,11.4413809 C31.177058,16.4119028 27.129096,20.4227476 22.1585193,20.3999029 C17.1879426,20.3770582 13.1770535,16.3291409 13.2000988,11.3586191 C13.2227434,6.38809723 17.2707053,2.37725242 22.241282,2.40009711 C27.2118588,2.42294179 31.2227478,6.4708591 31.1999029,11.4413809" id="Fill-26" fill="#636465"></path>
                <path d="M30.1999135,11.5363074 C30.1799094,15.8993985 26.6267837,19.4201176 22.2636926,19.3999135 C17.9008015,19.3799094 14.3798824,15.8267837 14.4000865,11.4636926 C14.4200906,7.10060147 17.9732163,3.5798824 22.3363074,3.60008652 C26.6993985,3.62009061 30.2201176,7.1732163 30.1999135,11.5363074" id="Fill-28" fill="#FFFFFF"></path>
                <path d="M15.0004133,11.9693128 C15.0203115,7.58961979 18.5546365,4.05550414 22.8946411,4.07558434 C24.5742513,4.08361642 26.1271097,4.62417548 27.4,5.53581667 C26.0310013,4.338635 24.2483182,3.60912124 22.2945102,3.60008515 C17.9545056,3.58000494 14.4201807,7.11412059 14.4000835,11.4936128 C14.3879456,14.1783359 15.7004333,16.5558318 17.7167217,18 C16.0444738,16.5377597 14.9892703,14.3771299 15.0004133,11.9693128" id="Fill-30" fill="#515252"></path>
                <path d="M50.7999029,12.0413809 C50.777058,17.0119028 46.729096,21.0227476 41.7585193,20.9999029 C36.7879426,20.9770582 32.7770535,16.9291409 32.8000988,11.9586191 C32.8227434,6.98809723 36.8707053,2.97725242 41.841282,3.00009711 C46.8118588,3.02294179 50.8227478,7.0708591 50.7999029,12.0413809" id="Fill-32" fill="#888888"></path>
                <path d="M44.9280166,3.23968385 C44.6083938,3.23827806 42.538522,3.00371241 41.7766512,3.00009752 C36.8417387,2.97720327 32.8228257,6.98811538 32.8000951,11.9585777 C32.777564,16.9292409 36.7595898,20.9771052 41.6945024,20.9999994 C41.830686,21.0004011 44.803597,20.7893322 44.8478617,20.789533 C49.6593516,20.8118248 53.5779712,16.9011252 53.5999041,12.0549746 C53.6222359,7.20862316 49.7395065,3.26197562 44.9280166,3.23968385" id="Fill-34" fill="#868585"></path>
                <path d="M50.7999029,12.0413809 C50.777058,17.0119028 46.729096,21.0227476 41.7585193,20.9999029 C36.7879426,20.9770582 32.7770535,16.9291409 32.8000988,11.9586191 C32.8227434,6.98809723 36.8707053,2.97725242 41.841282,3.00009711 C46.8118588,3.02294179 50.8227478,7.0708591 50.7999029,12.0413809" id="Fill-36" fill="#888888"></path>
                <path d="M50.7999029,12.0413809 C50.777058,17.0119028 46.729096,21.0227476 41.7585193,20.9999029 C36.7879426,20.9770582 32.7770535,16.9291409 32.8000988,11.9586191 C32.8227434,6.98809723 36.8707053,2.97725242 41.841282,3.00009711 C46.8118588,3.02294179 50.8227478,7.0708591 50.7999029,12.0413809" id="Fill-38" fill="#636465"></path>
                <path d="M49.7999135,11.9363083 C49.7799094,16.2993999 46.2267837,19.8199193 41.8636926,19.7999152 C37.5008015,19.7799111 33.9798824,16.226785 34.0000865,11.8636934 C34.0200906,7.50060184 37.5732163,3.9798824 41.9363074,4.00008652 C46.2993985,4.02009061 49.8201176,7.57321668 49.7999135,11.9363083" id="Fill-40" fill="#FFFFFF"></path>
                <path d="M34.4004133,12.1693128 C34.4203115,7.78961979 37.9546365,4.25550414 42.2946411,4.27578515 C43.9742513,4.28361642 45.5271097,4.82417548 46.8,5.73601747 C45.4308023,4.5388358 43.6483182,3.80932204 41.6943112,3.80008515 C37.3545056,3.78000494 33.8201807,7.31412059 33.8000835,11.6938136 C33.7879456,14.3783359 35.1004333,16.7560326 37.1167217,18.2 C35.4444738,16.7377597 34.3892703,14.5773307 34.4004133,12.1693128" id="Fill-42" fill="#515252"></path>
                <path d="M67.0360586,10.4 C67.0360586,10.4 81.0941714,11.2950504 71.8547293,15.6573426 C65.5390269,18.6392388 56.7215266,23.0984396 72.3644253,23.4" id="Stroke-44" stroke="#3E3F41" stroke-width="2" stroke-linecap="round" stroke-linejoin="round"></path>
                <g id="Group-48" transform="translate(55.600000, 22.600000)">
                    <mask id="mask-2" fill="white">
                        <use xlink:href="#path-1"></use>
                    </mask>
                    <g id="Clip-47"></g>
                    <path d="M22.06618,12.5082 C22.09158,6.971 19.28358,2.2862 15.41658,0.7826 C15.25158,0.6946 15.03218,0.6176 14.74718,0.5546 C14.73998,0.553 14.73298,0.5516 14.72598,0.55 C14.27038,0.4218 13.80238,0.337 13.32438,0.2992 C10.09998,-0.1478 7.90098,0.442 7.90098,0.442 L7.89778,0.4462 C3.52338,1.4448 0.18238,6.411 0.15478,12.4074 C0.12798,18.271 3.27778,23.1808 7.49858,24.3666 L7.49838,24.3682 C7.49838,24.3682 7.50798,24.3704 7.52158,24.3736 C7.93198,24.4874 8.35298,24.5636 8.78158,24.6046 C10.09138,24.7952 12.20318,24.9644 14.14938,24.5106 C14.16578,24.5068 14.17918,24.5026 14.19538,24.4986 C18.63258,23.5688 22.03818,18.563 22.06618,12.5082" id="Fill-46" fill="#3E3F41" mask="url(#mask-2)"></path>
                </g>
                <path d="M76.199817,35.0222375 C76.2195881,30.7123536 74.6351095,27.068677 72.4481136,25.9021654 C72.3548502,25.8338877 72.2308319,25.7741945 72.0694684,25.7252821 C72.0656739,25.7240843 72.0616798,25.723086 72.0576856,25.7218882 C71.7998633,25.6224662 71.535251,25.5569834 71.2646475,25.5278356 C69.4403203,25.1832525 68.1953443,25.6444269 68.1953443,25.6444269 L68.1935469,25.6476212 C65.717175,26.4292218 63.821752,30.2978956 63.8001836,34.9653394 C63.7792143,39.5291686 65.55681,43.3475325 67.9443121,44.2664872 L67.9441124,44.2676851 C67.9441124,44.2676851 67.9495045,44.2694819 67.9574928,44.2720772 C68.1895528,44.3601196 68.427604,44.4190141 68.6700488,44.450358 C69.411163,44.5974946 70.6060124,44.7270626 71.7077982,44.3720981 C71.7171845,44.3691035 71.7249731,44.3657096 71.7339599,44.3627149 C74.2458797,43.6346185 76.1782486,39.7350001 76.199817,35.0222375" id="Fill-49" fill="#3E3F41"></path>
                <path d="M74.7998554,35.0171208 C74.8153197,31.6949833 73.5886195,28.886189 71.8953795,27.9870389 C71.8232797,27.9342654 71.7270797,27.8882884 71.6023612,27.8507072 C71.5991478,27.8499076 71.5961353,27.849108 71.5931228,27.8481085 C71.3934928,27.7713469 71.1886411,27.7209721 70.979371,27.6985833 C69.5666975,27.4329163 68.6030911,27.7883384 68.6030911,27.7883384 L68.6016853,27.7909371 C66.6843134,28.3932357 65.216812,31.3755432 65.2001427,34.9731428 C65.1838751,38.4911823 66.5601974,41.4347092 68.4086829,42.1429548 L68.408482,42.1437544 C68.408482,42.1437544 68.4126996,42.1451537 68.4187246,42.1471527 C68.5984719,42.2151187 68.7826376,42.2604959 68.9706192,42.2846838 C69.544204,42.3980271 70.4694509,42.4979771 71.3223972,42.2243141 C71.3296273,42.2219153 71.3354515,42.2195165 71.3424807,42.2171177 C73.2873669,41.6557986 74.7831861,38.6499028 74.7998554,35.0171208" id="Fill-51" fill="#CDCECC"></path>
                <path d="M71.9466338,27.9868971 C71.8758063,27.9341211 71.7813038,27.888142 71.658786,27.8505591 C71.6556294,27.8495596 71.6528673,27.8489598 71.6497106,27.8479603 C71.4536033,27.7711952 71.252169,27.7206182 71.0465917,27.6984283 C70.3746181,27.5696868 69.8076035,27.5870789 69.4,27.6388554 C69.5110749,27.6530489 69.6245173,27.6696414 69.7424974,27.6922311 C69.948272,27.7146209 70.1497063,27.7651979 70.3456163,27.8417631 C70.3485757,27.8427627 70.3517324,27.8435623 70.354889,27.8445618 C70.4774068,27.8821448 70.571712,27.9281239 70.6427368,27.9808999 C72.3059009,28.8798912 73.5109551,31.6888141 73.495961,35.0113036 C73.4795858,38.644252 72.0097669,41.6502853 70.0995943,42.2114302 C70.0926891,42.2138291 70.0867704,42.2164279 70.0796679,42.2186269 C69.8837578,42.2827978 69.6839019,42.3247787 69.4856243,42.3523661 C70.0291614,42.4235338 70.7267828,42.4393266 71.3835649,42.2248241 C71.3908647,42.2224252 71.3965861,42.2200263 71.4034913,42.2176274 C73.3138613,41.6562826 74.7834828,38.6502492 74.799858,35.0173009 C74.8150494,31.6950113 73.6099952,28.8860883 71.9466338,27.9868971" id="Fill-53" fill="#8B8B8B"></path>
                <path d="M69.9999724,34.2043663 C69.9959285,35.0880947 69.5899925,35.8026331 69.0929712,35.7999927 C68.59595,35.7977585 68.1961762,35.079361 68.2000276,34.1956326 C68.203879,33.3119042 68.609815,32.5975689 69.1068362,32.6000062 C69.6038575,32.6024435 70.0038238,33.3206379 69.9999724,34.2043663" id="Fill-55" fill="#515252"></path>
                <path d="M17.9999882,27.7050718 C17.9972039,28.3124968 17.5023978,28.8027727 16.8950273,28.7999882 C16.2876567,28.7972037 15.7974248,28.3023532 15.8000102,27.6949282 C15.8029933,27.0875032 16.2976006,26.5972273 16.90517,26.6000118 C17.5125405,26.6027963 18.0027725,27.0974479 17.9999882,27.7050718" id="Fill-57" fill="#D9568C"></path>
                <path d="M78.1291945,27.5493917 L64.1293115,34 L62,23.8760541 C62,23.8760541 72.4978102,19.0390423 75.9972804,17.4266387 C77.2821546,16.8345626 78.5526144,17.4425441 78.8352947,18.7845569 C79.1123695,20.1003259 79.6667192,22.7318639 79.943794,24.0476329 C80.2266745,25.3896458 79.4140687,26.9573155 78.1291945,27.5493917" id="Fill-59" fill="#D9568C"></path>
                <path d="M17.7999882,39.3050709 C17.7972039,39.9126944 17.3023978,40.4029699 16.6950273,40.3999865 C16.0876567,40.3972019 15.5974248,39.9023518 15.6000102,39.2949273 C15.6029933,38.6875028 16.0976006,38.1972273 16.70517,38.2000118 C17.3125405,38.2027963 17.8027725,38.6974475 17.7999882,39.3050709" id="Fill-61" fill="#D9568C"></path>
                <path d="M54.7999882,39.1050709 C54.797005,39.7126944 54.3023982,40.2029699 53.6948292,40.1999865 C53.0874591,40.1972019 52.5972275,39.7025507 52.6000118,39.0949273 C52.6027961,38.4875028 53.097403,37.9972273 53.7049719,38.0000118 C54.3125409,38.0027963 54.8027725,38.4976464 54.7999882,39.1050709" id="Fill-63" fill="#D9568C"></path>
                <path d="M49.3999865,27.7050718 C49.3972022,28.3124968 48.9025953,28.8027727 48.2950264,28.7999882 C47.6876563,28.7972037 47.1974248,28.3023532 47.2000102,27.6949282 C47.2029933,27.0875032 47.6976002,26.5972273 48.3051691,26.6000118 C48.912738,26.6027963 49.4029696,27.0974479 49.3999865,27.7050718" id="Fill-65" fill="#2381A9"></path>
                <path d="M29.8749667,25.2000144 C29.0645899,25.1962238 28.4574587,25.9411789 28.6292353,26.7292273 C29.1878602,29.2926789 31.1431473,31.1891823 33.4782673,31.1999556 C35.8131868,31.2105294 37.7859122,29.3319816 38.3681889,26.7739166 C38.5473818,25.9872648 37.9468651,25.236923 37.1366887,25.2333319 L29.8749667,25.2000144 Z" id="Fill-67" fill="#323232"></path>
                <path d="M64.9876639,34.5590108 L48.0795604,35.1955314 C44.6323082,35.3251296 41.7333188,32.6198668 41.6044571,29.1531136 C41.4753952,25.6863604 44.1650843,22.7706011 47.6123364,22.6410028 L64.5202399,22.0044822 C67.967492,21.8746827 70.8664814,24.5799456 70.9953432,28.0466987 L70.9955433,28.0469 C71.1246051,31.5136532 68.4347159,34.4292113 64.9876639,34.5590108" id="Fill-71" fill="#D9568C"></path>
                <path d="M37.8595862,14 C37.4664719,11.5204582 39.0598714,9.2142241 41.4183579,8.84907529 C43.776645,8.48372932 46.0070851,10.197681 46.4,12.6772228" id="Stroke-73" stroke="#3D3A39" stroke-width="2.4972" stroke-linecap="round" stroke-linejoin="round"></path>
                <path d="M26.7331943,13.6 C27.1495061,11.0475494 25.5768614,8.65526212 23.2202892,8.25668307 C20.8641161,7.85810403 18.6163118,9.60404691 18.2,12.1564975" id="Stroke-75" stroke="#3D3A39" stroke-width="2.4972" stroke-linecap="round" stroke-linejoin="round"></path>
                <path d="M59.013726,34.2455562 C59.2901927,41.5883756 63.6720388,47.386285 68.8006467,47.1954196 C73.9294556,47.0047541 77.862923,40.897463 77.5862553,33.5544438 C77.3097886,26.2116244 72.9281435,20.413715 67.7993346,20.6045804 C62.6705257,20.7954457 58.7372593,26.9027368 59.013726,34.2455562" id="Fill-77" fill="#3E3F41"></path>
                <path d="M55.813726,34.2455562 C56.090193,41.5883756 60.4720436,47.386285 65.6006565,47.1954196 C70.7294706,47.0047541 74.662741,40.897463 74.386274,33.5546437 C74.109807,26.2116244 69.7281575,20.413715 64.5993435,20.6045804 C59.4705294,20.7954457 55.537259,26.9027368 55.813726,34.2455562" id="Fill-79" fill="#3E3F41"></path>
                <polygon id="Fill-81" fill="#3E3F41" points="68.6 47.2732984 65.2016277 47.4 64.2 20.7267016 67.5983723 20.6"></polygon>
                <path d="M66.4129794,33.9724977 C66.6021246,39.0526861 68.8092165,43.0936904 71.3424895,42.998347 C73.8759613,42.9032034 75.7761646,38.7074907 75.5870194,33.6273024 C75.3978742,28.5473139 73.1907823,24.5063096 70.6575093,24.601653 C68.1242364,24.6967966 66.2238342,28.8923094 66.4129794,33.9724977" id="Fill-83" fill="#959595"></path>
                <polygon id="Fill-85" fill="#959595" points="71.2 42.9370429 69.4957576 43 68.8 24.6629571 70.5040404 24.6"></polygon>
                <path d="M64.8129793,34.1724977 C65.002124,39.2526861 67.20921,43.2936904 69.7426749,43.198347 C72.275941,43.1030035 74.176338,38.9074907 73.9869944,33.8273024 C73.7978497,28.7473139 71.5907638,24.7063096 69.0574978,24.801653 C66.5242317,24.8967966 64.6238346,29.0923094 64.8129793,34.1724977" id="Fill-87" fill="#CCCECD"></path>
                <path d="M68.0022707,34.0477418 C68.044322,35.1520521 68.6594217,36.0257772 69.3760792,35.999419 C70.0927368,35.9730608 70.6396022,35.0563817 70.5977493,33.9520714 C70.555698,32.8479563 69.9405983,31.974036 69.2239407,32.0005894 C68.5072832,32.0269476 67.9602194,32.9436267 68.0022707,34.0477418" id="Fill-89" fill="#3E3F41"></path>
            </g>
        </g>
    </g>
</svg>