<?xml version="1.0" encoding="UTF-8"?>
<svg width="120px" height="120px" viewBox="0 0 120 120" version="1.1" xmlns="http://www.w3.org/2000/svg" xmlns:xlink="http://www.w3.org/1999/xlink">
    <!-- Generator: Sketch 51.1 (57501) - http://www.bohemiancoding.com/sketch -->
    <title>Flower13</title>
    <desc>Created with Sketch.</desc>
    <defs>
        <polygon id="path-1" points="0 0.790508249 16.6658561 0.790508249 16.6658561 13.9238265 0 13.9238265"></polygon>
        <polygon id="path-3" points="0.135018972 0.127544842 27.9340301 0.127544842 27.9340301 95.3424658 0.135018972 95.3424658"></polygon>
        <polygon id="path-5" points="0.536195032 0.694520548 10.7866505 0.694520548 10.7866505 12.9908668 0.536195032 12.9908668"></polygon>
    </defs>
    <g id="Flower13" stroke="none" stroke-width="1" fill="none" fill-rule="evenodd">
        <g id="Group" transform="translate(28.000000, 0.000000)">
            <g id="Group-3" transform="translate(0.000000, 17.387671)">
                <mask id="mask-2" fill="white">
                    <use xlink:href="#path-1"></use>
                </mask>
                <g id="Clip-2"></g>
                <path d="M15.7647123,0.927287671 C14.7036164,0.367561644 14.4003288,1.64975342 14.0115616,2.53249315 C13.3606027,4.01276712 12.5970411,5.07386301 11.3937534,6.16865753 C10.7510137,6.75468493 9.86663014,7.23715068 9.42854795,7.99084932 C9.05621918,8.63030137 9.03731507,9.27057534 8.72252055,9.91249315 C8.08060274,10.1516712 7.60553425,9.58454795 7.02361644,9.37413699 C5.72663014,8.90728767 3.98991781,8.82673973 2.60909589,8.7930411 C2.00169863,8.77824658 0.271561644,8.60235616 0.0249863014,9.40783562 C-0.262684932,10.3522192 1.99841096,11.8308493 2.60827397,12.2779726 C4.45923288,13.6357808 7.04005479,14.704274 9.08580822,13.1705753 C10.9704658,11.7560548 12.0792329,9.21879452 13.5447123,7.4130411 C14.5252603,6.20646575 18.3956712,2.31468493 15.7647123,0.927287671" id="Fill-1" fill="#687F38" mask="url(#mask-2)"></path>
            </g>
            <g id="Group-6" transform="translate(6.575342, 23.963014)">
                <mask id="mask-4" fill="white">
                    <use xlink:href="#path-3"></use>
                </mask>
                <g id="Clip-5"></g>
                <path d="M1.49153425,0.428794521 C3.15756164,2.64632877 3.76906849,5.93071233 4.28852055,8.60194521 C4.99783562,12.2586575 5.59947945,15.9350959 6.17317808,19.6156438 C7.33208219,27.0556438 8.4170137,34.4578356 10.1594795,41.7909863 C11.883863,49.0386575 13.8194795,56.3167397 16.1381096,63.3975616 C17.1474247,66.4813973 18.1690685,69.5726301 19.7931781,72.3967397 C20.6767397,73.9312603 21.9120822,75.1707123 22.9616712,76.5564658 C27.2068767,55.8778356 28.383863,34.4874247 22.434,14.0290685 C22.1792055,13.1529041 23.5419452,12.7805753 23.7959178,13.6534521 C31.5523562,40.3296164 27.3392055,68.6052329 19.9131781,94.844137 C19.6657808,95.7186575 18.303863,95.3463288 18.5520822,94.4685205 C20.0364658,89.2222192 21.3934521,83.893726 22.5498904,78.514274 C22.4989315,78.443589 22.4586575,78.3605753 22.434,78.2578356 C22.2967397,77.6701644 21.253726,76.8194795 20.8345479,76.3230411 C20.0734521,75.4246849 19.3896164,74.4293425 18.7666027,73.4323562 C17.1203014,70.7915342 16.1003014,67.7767397 15.1279726,64.8424932 C12.8068767,57.8397534 10.884411,50.6561918 9.12057534,43.494 C7.31482192,36.1657808 6.15591781,28.7693425 5.01673973,21.3178356 C4.45290411,17.6323562 3.85454795,13.9509863 3.174,10.284411 C2.88879452,8.73838356 2.51646575,7.24824658 2.12030137,5.73016438 C1.72660274,4.22358904 1.33947945,2.71043836 0.46660274,1.40030137 C0.401671233,1.31317808 0.337561644,1.22769863 0.272630137,1.14057534 C-0.274767123,0.411534247 0.951534247,-0.290383562 1.49153425,0.428794521" id="Fill-4" fill="#687F38" mask="url(#mask-4)"></path>
            </g>
            <path d="M38.159589,36.7471233 C40.3212329,38.8167123 44.9132877,45.3493151 43.2036986,48.4693151 C40.4321918,53.5290411 34.5258904,46.0824658 32.460411,44.1213699 C29.879589,41.669589 26.9305479,37.0339726 29.389726,33.4923288 C31.8291781,29.9794521 36.2963014,34.9635616 38.159589,36.7471233" id="Fill-7" fill="#F8BA26"></path>
            <path d="M20.6168219,55.8663288 C24.0195616,53.2550959 24.8727123,43.6213973 25.1102466,40.9460548 C25.3165479,38.6233151 25.8170959,32.3060548 21.5735342,33.2882466 C19.0083288,33.8824932 17.7639452,37.7085205 16.9675068,39.783863 C15.8053151,42.8118082 15.2603836,46.0131781 14.9472329,49.2219452 C14.7376438,51.3613973 15.8587397,56.1901644 18.4001096,56.5008493 C19.2384658,56.603589 19.9732603,56.3611233 20.6168219,55.8663288" id="Fill-9" fill="#F8BA26"></path>
            <path d="M28.3792603,30.2150959 C30.1661096,30.5479726 33.5926849,28.5950959 35.4263836,28.2901644 C39.4110411,27.6309863 43.8395342,27.9934521 47.0236438,30.7279726 C48.9535068,32.3857808 50.9992603,35.0266027 48.291863,36.8997534 C47.362274,37.5424932 46.1803562,37.9616712 45.0411781,38.0775616 C44.2809041,38.1556438 42.3428219,38.4564658 41.7058356,38.0816712 C41.7058356,38.0816712 28.3743288,30.214274 28.3792603,30.2150959" id="Fill-11" fill="#F8BA26"></path>
            <path d="M24.8266849,37.2174247 C25.4587397,35.9467397 26.4729863,34.9349589 28.0724384,34.4113973 C33.545589,32.6187945 34.0987397,39.6626301 34.0165479,43.3209863 C33.9302466,47.1330411 34.3009315,54.1094795 30.396,55.0974247 C24.3927123,56.6146849 23.9307945,43.5355068 23.8716164,41.2579726 C23.796,38.3590685 25.9107945,36.893589 24.3968219,34.2757808 C22.7283288,31.3916712 21.8727123,31.7557808 19.456274,32.5111233 C13.8096986,34.2757808 8.81983562,40.2692055 8.02093151,44.7955068 C7.4390137,48.0922192 10.8516164,49.1253699 13.0050411,46.9966027 L24.8266849,37.2174247 Z" id="Fill-13" fill="#F8BA26"></path>
            <path d="M24.0433151,36.3923014 C23.8181096,36.3281918 23.6027671,36.3470959 23.3997534,36.4547671 C22.643589,39.0824384 20.413726,41.2531233 20.4876986,44.2465479 C20.5534521,46.8676438 21.2561918,52.0621644 23.2509863,54.0454521 C25.3633151,56.1446301 27.4460548,53.1199726 27.8545479,50.8720274 C28.6731781,46.3777808 27.8685205,41.1249041 27.5052329,36.6125753 C27.3326301,36.6249041 27.1624932,36.6503836 26.994,36.6898356 C27.0696164,36.5912055 27.144411,36.4917534 27.2200274,36.3923014 L24.0433151,36.3923014 Z" id="Fill-15" fill="#F8DC52"></path>
            <path d="M29.9729589,30.1091507 C29.9236438,30.0894247 29.531589,29.8707945 30.2499452,29.6776438 C31.0578904,29.4606575 31.6628219,30.0639452 32.3828219,30.3023014 C34.3685753,30.9573699 36.4989863,31.1365479 38.3869315,32.1203836 C41.2463836,33.6129863 46.4565205,39.1420274 45.4825479,42.6853151 C45.1200822,44.0028493 43.3899452,44.4705205 42.2244658,44.4532603 C39.4652877,44.4154521 37.3463836,42.2340822 35.9080274,40.116 C34.3480274,37.8170959 32.8693973,32.9686027 29.6063836,32.726137 C29.6080274,32.9316164 29.6104932,33.1370959 29.612137,33.3425753 L29.9729589,30.1091507 Z" id="Fill-17" fill="#F8DC52"></path>
            <path d="M21.1529589,37.9374247 C19.1852877,41.5119452 19.2592603,44.8604384 18.3239178,48.7883836 C17.8299452,50.8645479 17.1666575,54.5352329 14.1913151,53.9607123 C11.4378904,53.4313973 11.0672055,49.224 11.3137808,46.9982466 C11.6992603,43.5198904 14.2167945,39.1094795 17.0811781,37.0818082 C18.1956986,36.2927671 20.3285753,33.6461918 21.8162466,33.9864658 C24.2014521,34.533863 21.6830959,36.974137 21.1529589,37.9374247" id="Fill-19" fill="#FFE577"></path>
            <path d="M28.9840274,33.5701644 C29.1714247,33.5701644 29.598,33.7674247 29.967863,33.6112603 C30.548137,34.8860548 32.5248493,35.5287945 33.5045753,36.4575616 C35.1673151,38.0348219 36.8012877,40.3271507 37.8319726,42.3589315 C38.868411,44.4063288 39.8086849,52.0115342 35.7401918,51.9605753 C32.6736164,51.9219452 30.9722466,45.2315342 30.0245753,42.8759178 C29.338274,41.1687945 28.8459452,39.5898904 28.2796438,37.8392055 C27.937726,36.7830411 27.4906027,35.3627671 26.1607397,35.334 L28.9840274,33.5701644 Z" id="Fill-21" fill="#FFE577"></path>
            <path d="M23.1235068,22.8876986 C19.7002192,22.5112603 18.8569315,27.8709863 19.0073425,30.9022192 C19.4561096,39.9227671 25.5695342,37.0123562 30.1476164,34.7101644 C36.2503562,31.6419452 30.3958356,23.6890685 23.1235068,22.8876986" id="Fill-23" fill="#72331F"></path>
            <path d="M11.0459178,18.3558904 C8.23989041,15.6090411 3.07167123,15.8769863 1.22728767,19.579726 C-2.37764384,26.8117808 5.55468493,30.4479452 11.1585205,26.1657534 C13.5963288,24.3024658 13.1845479,20.4484932 11.0459178,18.3558904" id="Fill-25" fill="#F8DC52"></path>
            <path d="M11.0459178,18.3558904 C8.23989041,15.6090411 3.07167123,15.8769863 1.22728767,19.579726 C-2.37764384,26.8117808 5.55468493,30.4479452 11.1585205,26.1657534 C13.5963288,24.3024658 13.1845479,20.4484932 11.0459178,18.3558904" id="Fill-27" fill="#F8DC52"></path>
            <path d="M1.2270411,19.5799726 C1.30265753,19.4270959 1.38567123,19.2832603 1.47279452,19.1435342 C5.8010137,18.4753151 10.7152603,22.6407945 8.6070411,27.2501096 C8.55115068,27.3709315 8.49115068,27.4901096 8.42621918,27.606 C3.36649315,29.2284658 -1.81652055,25.6876438 1.2270411,19.5799726" id="Fill-29" fill="#F8BA26"></path>
            <path d="M33.9252329,72.7421096 C32.6183836,72.2037534 37.2309863,68.3793699 37.8926301,67.7933425 C40.2285205,65.727863 42.6449589,62.628411 45.4107123,61.1695068 C44.0783836,62.8174521 43.6970137,65.2725205 42.9515342,67.2032055 C41.9463288,69.8086849 40.3920822,71.4048493 38.5912603,73.4464932 C37.5885205,74.5832055 36.4304384,75.5464932 35.4326301,76.6955342 C34.524411,77.7393699 33.7485205,79.1226575 32.5131781,79.8007397 L33.9252329,72.7421096 Z" id="Fill-31" fill="#687F38"></path>
            <path d="M32.1593425,88.6752329 C32.1593425,88.6719452 32.1593425,88.6686575 32.1593425,88.663726 C32.1601644,88.9127671 32.1601644,88.9193425 32.1593425,88.6752329" id="Fill-33" fill="#687F38"></path>
            <path d="M29.2938904,76.7947397 C30.0122466,79.3599452 30.8695068,81.9341918 31.3659452,84.5511781 C31.5919726,85.7437808 32.3555342,87.4344658 32.1599178,88.6640548 L32.1599178,88.622137 L31.1021096,95.3273425 C29.568411,96.252 25.7958082,86.0330959 25.4563562,84.6711781 C24.5473151,81.0128219 24.248137,77.2056986 23.9645753,73.4437808 C23.6793699,69.6489863 23.6711507,65.6133699 22.6059452,61.9270685 C25.9297808,65.8459726 27.9360822,71.9495342 29.2938904,76.7947397" id="Fill-35" fill="#687F38"></path>
            <path d="M28.2780822,110.85411 L29.690137,105.914384 C31.5739726,102.941507 34.5542466,101.011644 37.0750685,98.5220548 C39.0468493,96.5732877 41.2750685,94.9952055 43.3832877,93.2034247 C44.570137,92.1941096 46.2682192,91.3689041 47.2183562,90.1409589 C45.0657534,92.6790411 44.1517808,95.6034247 42.4306849,98.3872603 C40.7030137,101.183425 38.4164384,103.893288 36.3073973,106.380411 C34.1350685,108.940685 30.5876712,109.359863 28.0767123,111.251918 C28.2016438,111.155753 28.2690411,111.024247 28.2780822,110.85411" id="Fill-37" fill="#687F38"></path>
            <path d="M51.6438082,16.7995068 C50.7618904,19.998411 50.8638082,23.3016986 50.3747671,26.5606027 C49.8429863,30.1030685 49.3342192,33.6545753 48.8566849,37.2060822 C47.9024384,44.3074521 47.3369589,51.4548493 46.3407945,58.5562192 C44.6772329,70.4140274 43.0827123,83.5573151 32.1832603,90.648 C31.436137,91.1345753 32.1306575,92.3370411 32.8835342,91.8471781 C37.4476438,88.8792329 40.8101096,84.7852603 42.996411,79.8126575 C45.5172329,74.0773151 46.3596986,67.7238904 47.2917534,61.5816986 C48.3775068,54.427726 49.1131233,47.2441644 49.8931233,40.0556712 C50.3040822,36.2658082 50.9484658,32.5055342 51.4465479,28.7288219 C51.9487397,24.9200548 51.9602466,20.8737534 52.9827123,17.1693699 C53.2210685,16.3047123 51.8821644,15.938137 51.6438082,16.7995068" id="Fill-39" fill="#687F38"></path>
            <path d="M61.0356164,18.2507671 C61.6668493,20.7354247 62.2117808,27.5499452 59.9424658,29.0030959 C56.2619178,31.3562466 55.2057534,23.2784384 54.5975342,20.9154247 C53.8364384,17.9614521 53.6506849,13.2691233 56.5627397,11.862 C59.4517808,10.4639178 60.4915068,16.1096712 61.0356164,18.2507671" id="Fill-41" fill="#F8BA26"></path>
            <path d="M42.548137,23.882137 C45.7264932,23.5780274 49.8640274,17.0503562 51.0147123,15.2380274 C52.0133425,13.6656986 54.6886849,9.35884932 51.5719726,8.10378082 C49.6889589,7.34515068 47.458274,9.51830137 46.1686849,10.6426849 C44.2889589,12.2807671 42.7437534,14.3289863 41.3464932,16.4889863 C40.4144384,17.9289863 39.3443014,21.9152877 40.8747123,23.3141918 C41.3810137,23.7744658 41.948137,23.9396712 42.548137,23.882137" id="Fill-43" fill="#F8BA26"></path>
            <path d="M54.4670959,9.08358904 C54.1646301,10.5383836 55.666274,13.0797534 55.8742192,14.5115342 C56.326274,17.6200274 55.9481918,21.1772877 53.6879178,23.9676986 C52.3177808,25.6600274 50.1553151,27.5356438 48.7029863,25.5581096 C48.2049041,24.8792055 47.8917534,23.9775616 47.8202466,23.0816712 C47.7725753,22.484137 47.5687397,20.9709863 47.8827123,20.4285205 C47.8827123,20.4285205 54.4679178,9.08030137 54.4670959,9.08358904" id="Fill-45" fill="#F8BA26"></path>
            <path d="M52.0174521,11.4755342 C51.8958082,11.3226575 51.7495068,11.2396438 51.577726,11.2215616 C50.1097808,12.7601918 47.8552603,13.2903288 46.7900548,15.4741644 C45.8563562,17.388411 44.3793699,21.4453973 44.9333425,23.7903288 C45.5210137,26.2749863 47.9966301,25.0626575 49.0996438,23.638274 C51.3023836,20.787863 52.7358082,16.6412877 54.1799178,13.2327945 C54.0632055,13.1621096 53.9432055,13.1021096 53.8199178,13.0519726 C53.9053973,13.0158082 53.9908767,12.9788219 54.0763562,12.9418356 L52.0174521,11.4755342 Z" id="Fill-47" fill="#F8DC52"></path>
            <path d="M58.1998356,9.69928767 C58.1751781,9.66312329 58.0025753,9.32531507 58.5401096,9.51846575 C59.1450411,9.73545205 59.3118904,10.4488767 59.6899726,10.9518904 C60.7329863,12.3401096 62.0480548,13.4529863 62.9044932,15.0318904 C64.2031233,17.4244932 65.5223014,23.8042192 63.5718904,25.9001096 C62.8469589,26.6784658 61.5516164,26.215726 60.8020274,25.6650411 C59.0275068,24.3639452 58.4669589,21.8168219 58.3223014,19.6305205 C58.1669589,17.2584658 59.0127123,13.0921644 56.9875068,11.4105205 C56.9127123,11.5592877 56.8379178,11.7072329 56.7623014,11.8551781 L58.1998356,9.69928767 Z" id="Fill-49" fill="#F8DC52"></path>
            <path d="M49.5692877,11.25 C46.9638082,12.9086301 45.7646301,15.3480822 43.6966849,17.7382192 C42.6035342,19.0015068 40.8076438,21.3316438 39.0923014,19.5447945 C37.5051781,17.8910959 38.8309315,14.6979452 39.8188767,13.2135616 C41.3632603,10.8916438 44.6377808,8.8869863 47.2481918,8.7530137 C48.2649041,8.70123288 50.6320274,7.78561644 51.4695616,8.71849315 C52.8117534,10.2127397 50.2712055,10.8028767 49.5692877,11.25" id="Fill-51" fill="#F8DC52"></path>
            <path d="M56.2707123,11.73 C56.3923562,11.8163014 56.5953699,12.1549315 56.8929041,12.2141096 C56.7950959,13.3976712 57.8372877,14.7735616 58.1266027,15.8921918 C58.6172877,17.7932877 58.8227671,20.1949315 58.7348219,22.1305479 C58.644411,24.080137 56.424411,29.9782192 53.8049589,28.0623288 C51.8323562,26.6173973 53.2189315,21.0258904 53.4811233,18.8963014 C53.6718082,17.3519178 53.9405753,15.9916438 54.224137,14.4719178 C54.3967397,13.5546575 54.6359178,12.3275342 53.784411,11.6930137 L56.2707123,11.73 Z" id="Fill-53" fill="#FFE577"></path>
            <g id="Group-57" transform="translate(49.315068, 0.127397)">
                <mask id="mask-6" fill="white">
                    <use xlink:href="#path-5"></use>
                </mask>
                <g id="Clip-56"></g>
                <path d="M7.1330137,1.22021918 C5.05438356,-0.631561644 2.51219178,2.82953425 1.48150685,5.07583562 C-1.58424658,11.7629589 3.46150685,12.4969315 7.28589041,12.9588493 C12.3834247,13.5744658 11.5491781,5.15556164 7.1330137,1.22021918" id="Fill-55" fill="#72331F" mask="url(#mask-6)"></path>
            </g>
        </g>
    </g>
</svg>