<?xml version="1.0" encoding="UTF-8"?>
<svg width="120px" height="120px" viewBox="0 0 120 120" version="1.1" xmlns="http://www.w3.org/2000/svg" xmlns:xlink="http://www.w3.org/1999/xlink">
    <!-- Generator: Sketch 51.1 (57501) - http://www.bohemiancoding.com/sketch -->
    <title>Fireworks1</title>
    <desc>Created with Sketch.</desc>
    <defs></defs>
    <g id="Fireworks1" stroke="none" stroke-width="1" fill="none" fill-rule="evenodd">
        <g id="Group" transform="translate(1.000000, 0.000000)">
            <polygon id="Fill-1" fill="#FFC60B" points="58.635982 15.1793171 60.7428672 50.6378537 62.8497525 15.1793171"></polygon>
            <polygon id="Fill-2" fill="#FFC60B" points="60.7430623 5.50614634 61.9633 7.98029268 64.6934721 8.37639024 62.7182672 10.3032195 63.1845131 13.0222439 60.7430623 11.7383415 58.3025869 13.0222439 58.7678574 10.3032195 56.7926525 8.37639024 59.5228246 7.98029268"></polygon>
            <polygon id="Fill-3" fill="#FFC60B" points="49.1467074 6.81902439 55.8116828 30.357561 51.980273 6.19463415"></polygon>
            <polygon id="Fill-4" fill="#FFC60B" points="49.1316861 0.000390243902 48.6771451 1.84429268 46.898973 2.5164878 48.5132762 3.51941463 48.6020385 5.41697561 50.0544238 4.19258537 51.8872189 4.69404878 51.171268 2.93404878 52.2139811 1.3457561 50.3197352 1.48331707"></polygon>
            <polygon id="Fill-5" fill="#ED1C24" points="68.3586721 22.9670244 66.028418 47.3201951 71.2244262 23.4138537"></polygon>
            <polygon id="Fill-6" fill="#ED1C24" points="70.8191434 16.6075122 71.386832 18.4201951 73.2020697 18.9811707 71.6540943 20.0826341 71.6823811 21.9811707 70.1568402 20.8484878 68.3601352 21.463122 68.9658648 19.6621463 67.8265861 18.1421463 69.7247336 18.1606829"></polygon>
            <polygon id="Fill-7" fill="#ED1C24" points="76.1943344 3.38009756 76.7629984 5.1937561 78.5782361 5.7537561 77.0302607 6.8542439 77.059523 8.7537561 75.5330066 7.62107317 73.7353262 8.23570732 74.3420311 6.43473171 73.2027525 4.91473171 75.1018754 4.9342439"></polygon>
            <polygon id="Fill-8" fill="#FFC60B" points="30.5529574 26.9361951 54.9547852 52.744 33.7805885 24.2279024"></polygon>
            <polygon id="Fill-9" fill="#FFC60B" points="25.9506811 18.1719024 28.4750418 19.283122 30.8218779 17.8314146 30.5458369 20.5767805 32.6507713 22.3592195 29.9557139 22.9465366 28.9100746 25.4987317 27.5201156 23.1162927 24.7694598 22.910439 26.6051811 20.852878"></polygon>
            <polygon id="Fill-10" fill="#ED1C24" points="17.9112557 26.6331707 38.144182 40.3804878 19.6806492 24.3336585"></polygon>
            <polygon id="Fill-11" fill="#ED1C24" points="13.517132 21.4193171 15.3811402 21.792 16.7437877 20.4690732 16.9642303 22.3559024 18.6438861 23.2446829 16.9183861 24.0378537 16.5925992 25.9090732 15.3050582 24.512 13.4234926 24.7822439 14.3540336 23.1256585"></polygon>
            <polygon id="Fill-12" fill="#ED1C24" points="43.0056246 26.6518049 56.8710754 46.8059512 45.4880426 25.1513171"></polygon>
            <polygon id="Fill-13" fill="#FFC60B" points="40.8028566 20.1988293 42.4044795 21.2222439 44.1543648 20.4837073 43.6764139 22.3227317 44.9181107 23.7598049 43.0219139 23.8729756 42.0396762 25.4993171 41.3471352 23.7305366 39.4967828 23.2973659 40.9647746 22.0915122"></polygon>
            <polygon id="Fill-14" fill="#ED1C24" points="36.4206328 6.60887805 38.0222557 7.63326829 39.772141 6.89473171 39.2932148 8.73278049 40.5358869 10.1698537 38.6396902 10.284 37.6584279 11.9093659 36.9639361 10.1405854 35.114559 9.70839024 36.5815754 8.50253659"></polygon>
            <polygon id="Fill-15" fill="#ED1C24" points="16.5962082 53.998439 51.8738557 58.0803902 17.3277656 49.8481951"></polygon>
            <polygon id="Fill-16" fill="#ED1C24" points="7.4379877 50.2436098 10.0862254 49.4709268 10.9504385 46.850439 12.503291 49.130439 15.26175 49.1440976 13.574291 51.325561 14.4141189 53.9538537 11.8175779 53.0221463 9.57803689 54.6338537 9.66192213 51.8748293"></polygon>
            <polygon id="Fill-17" fill="#FFC60B" points="6.71637951 61.8937561 31.0509041 59.4166829 6.59445328 58.9942439"></polygon>
            <polygon id="Fill-18" fill="#FFC60B" points="1.66707295 59.8121951 9.75409836e-05 60.7243902 1.73827787 61.4931707 2.09040082 63.3604878 3.3574582 61.944878 5.24195 62.1868293 4.28702377 60.544878 5.10051557 58.8268293 3.24333525 59.2268293 1.86117951 57.922439"></polygon>
            <polygon id="Fill-19" fill="#FFC60B" points="25.9516566 45.7743415 49.5263369 52.2982439 26.8900008 43.0289756"></polygon>
            <polygon id="Fill-20" fill="#FFC60B" points="20.1178279 42.2472195 22.0023197 42.0023415 22.8684836 40.3106341 23.6839262 42.0277073 25.5596393 42.3291707 24.1794344 43.6345366 24.4720574 45.5116098 22.8031311 44.6033171 21.1088443 45.460878 21.458041 43.593561"></polygon>
            <polygon id="Fill-21" fill="#FFC60B" points="8.02713525 34.6543415 9.91162705 34.4094634 10.7787664 32.7187317 11.5932336 34.4348293 13.4689467 34.7362927 12.0887418 36.0416585 12.3823402 37.9197073 10.7134139 37.010439 9.01912705 37.8689756 9.36832377 36.0006829"></polygon>
            <polygon id="Fill-22" fill="#FFC60B" points="23.2960057 83.7030244 52.9445631 64.148878 21.1891205 80.0532683"></polygon>
            <polygon id="Fill-23" fill="#ED1C24" points="13.8667189 86.7137561 15.3990877 84.4200976 14.3778336 81.8571707 17.0328992 82.6054634 19.1544156 80.8425366 19.2626861 83.5986341 21.5958664 85.0718049 19.0081041 86.0269268 18.3282434 88.7000976 16.6203008 86.5342439"></polygon>
            <polygon id="Fill-24" fill="#FFC60B" points="20.8016877 96.1025366 37.8508762 78.5600976 18.8450156 93.9600976"></polygon>
            <polygon id="Fill-25" fill="#FFC60B" points="14.9054328 99.5252683 15.596023 97.753561 14.5299 96.1818537 16.4260967 96.2920976 17.5917115 94.7916098 18.0735639 96.6296585 19.8605148 97.2755122 18.2608426 98.3018537 18.2003672 100.20039 16.7304246 98.9955122"></polygon>
            <polygon id="Fill-26" fill="#ED1C24" points="25.1777664 71.3879024 47.429791 61.228878 24.132127 68.681561"></polygon>
            <polygon id="Fill-27" fill="#FFC60B" points="18.4422689 72.4363902 19.727859 71.0363902 19.3045311 69.1846829 21.031982 69.9749268 22.6628672 69.0012683 22.4453508 70.8890732 23.8753016 72.1378537 22.0132443 72.514439 21.2670557 74.2617561 20.3335885 72.6061463"></polygon>
            <polygon id="Fill-28" fill="#FFC60B" points="4.30067951 74.3923902 5.58626967 72.9933659 5.16391721 71.1416585 6.89039262 71.932878 8.52127787 70.9582439 8.30376148 72.8450732 9.7346877 74.0948293 7.87165492 74.4714146 7.12546639 76.2177561 6.19297459 74.5621463"></polygon>
            <polygon id="Fill-29" fill="#ED1C24" points="47.5178705 102.149171 57.6631082 68.1091707 43.558682 100.709171"></polygon>
            <polygon id="Fill-30" fill="#FFC60B" points="42.2297836 110.519024 41.9293574 107.77561 39.5005869 106.469268 42.014218 105.33561 42.5068 102.620488 44.3620295 104.662439 47.0951279 104.291707 45.7266279 106.686829 46.9234557 109.172683 44.2225459 108.611707"></polygon>
            <polygon id="Fill-31" fill="#FFC60B" points="53.5760434 113.251902 55.3629943 88.8519024 50.6995598 112.868488"></polygon>
            <polygon id="Fill-32" fill="#ED1C24" points="50.3457787 116.210146 48.8221885 117.34478 50.6491311 117.863805 51.2587623 119.66478 52.317082 118.085268 54.2162049 118.06478 53.0437623 116.569171 53.6085246 114.756488 51.8245 115.410146 50.2745738 114.31161"></polygon>
            <polygon id="Fill-33" fill="#ED1C24" points="41.0452459 91.5060488 51.5621148 69.4182439 38.5052787 90.1050732"></polygon>
            <polygon id="Fill-34" fill="#FFC60B" points="36.5592385 96.6399024 36.6440992 94.7413659 35.1292877 93.5950244 36.9620828 93.0896585 37.5843943 91.2945366 38.6319844 92.880878 40.530132 92.9189268 39.345009 94.4038049 39.8961156 96.2223415 38.1179434 95.5540488"></polygon>
            <polygon id="Fill-35" fill="#ED1C24" points="26.98325 107.230146 27.0700615 105.332585 25.55525 104.184293 27.3860943 103.680878 28.0093811 101.88478 29.0559959 103.471122 30.9551189 103.509171 29.7690205 104.994049 30.320127 106.81161 28.5419549 106.144293"></polygon>
            <polygon id="Fill-36" fill="#FFC60B" points="77.9280279 100.70761 63.8226262 68.1085854 73.9698148 102.149561"></polygon>
            <polygon id="Fill-37" fill="#FFC60B" points="79.2558533 110.519024 77.263091 108.611707 74.5621811 109.172683 75.7599844 106.686829 74.3924598 104.291707 77.1255582 104.662439 78.9798123 102.620488 79.4723943 105.33561 81.9860254 106.469268 79.5572549 107.77561"></polygon>
            <polygon id="Fill-38" fill="#FFC60B" points="89.7043459 105.317951 75.3921574 85.4779512 87.2550918 106.874049"></polygon>
            <polygon id="Fill-39" fill="#ED1C24" points="92.0495238 111.720878 90.4264418 110.732585 88.6931385 111.509171 89.1310975 109.66039 87.8552615 108.25161 89.7495074 108.096488 90.6946795 106.448683 91.4272123 108.201854 93.2873189 108.593073 91.8456631 109.831122"></polygon>
            <polygon id="Fill-40" fill="#FFC60B" points="66.1287877 96.7160976 59.9905336 73.0341463 63.2825418 97.2760976"></polygon>
            <polygon id="Fill-41" fill="#ED1C24" points="65.992523 103.532488 64.8356869 102.02322 62.9404656 102.118829 64.0192689 100.554927 63.3423344 98.7793171 65.1634246 99.3217561 66.6421459 98.1285854 66.6889656 100.029073 68.279859 101.067122 66.4880311 101.698341"></polygon>
            <polygon id="Fill-42" fill="#FFC60B" points="65.4638508 117.801756 64.3079902 116.292488 62.4117934 116.387122 63.4905967 114.82322 62.8146377 113.046634 64.633777 113.591024 66.1124984 112.397854 66.1602934 114.298341 67.7502115 115.33639 65.959359 115.96761"></polygon>
            <polygon id="Fill-43" fill="#FFC60B" points="100.297687 80.0525854 68.5422443 64.1481951 98.191777 83.7013659"></polygon>
            <polygon id="Fill-44" fill="#ED1C24" points="107.617943 86.7146341 104.867287 86.5341463 103.158369 88.7 102.478508 86.0268293 99.8907459 85.0697561 102.223926 83.597561 102.332197 80.8404878 104.454689 82.6053659 107.109754 81.8560976 106.0885 84.42"></polygon>
            <polygon id="Fill-45" fill="#ED1C24" points="112.280694 76.0134634 88.5665303 70.0163902 111.404776 78.7793171"></polygon>
            <polygon id="Fill-46" fill="#ED1C24" points="115.454678 77.1150244 113.767219 76.2418537 114.101784 78.1120976 112.750842 79.4486829 114.631432 79.7091707 115.485891 81.4047805 116.313039 79.6964878 118.191678 79.4096585 116.821227 78.093561 117.130432 76.2174634"></polygon>
            <polygon id="Fill-47" fill="#ED1C24" points="88.6927484 84.5800976 68.7719533 70.3849756 86.8726336 86.8396098"></polygon>
            <polygon id="Fill-48" fill="#FFC60B" points="92.9697254 89.8906341 91.1144959 89.476 89.7235615 90.7686829 89.5431107 88.8769756 87.8839385 87.9520976 89.6279713 87.1969756 89.9947254 85.3325854 91.2510533 86.7579512 93.1374959 86.5306341 92.1708648 88.1667317"></polygon>
            <polygon id="Fill-49" fill="#ED1C24" points="101.7331 101.161171 99.8798213 100.747512 98.4879115 102.03922 98.3074607 100.147512 96.6492639 99.2236098 98.3923213 98.4675122 98.7581 96.6040976 100.015403 98.0284878 101.90087 97.8011707 100.935215 99.4372683"></polygon>
            <polygon id="Fill-50" fill="#ED1C24" points="104.158359 49.8481951 69.6112934 58.0803902 104.889916 53.9974634"></polygon>
            <polygon id="Fill-51" fill="#FFC60B" points="114.048625 50.2436098 111.82469 51.8748293 111.9076 54.6338537 109.669034 53.0221463 107.072493 53.952878 107.913297 51.325561 106.224862 49.143122 108.983321 49.130439 110.534223 46.850439 111.400387 49.4709268"></polygon>
            <polygon id="Fill-52" fill="#FFC60B" points="110.743253 39.0493659 88.7224008 49.7010732 111.849368 41.7313171"></polygon>
            <polygon id="Fill-53" fill="#ED1C24" points="117.453975 37.8498537 116.198623 39.2771707 116.661943 41.1200976 114.918885 40.3679024 113.309459 41.3796098 113.486008 39.4869268 112.028746 38.2693659 113.882025 37.8527805 114.588221 36.088878 115.557779 37.7230244"></polygon>
            <polygon id="Fill-54" fill="#FFC60B" points="98.1782189 60.7766829 73.7949238 62.7103415 98.2377189 63.6781463"></polygon>
            <polygon id="Fill-55" fill="#FFC60B" points="104.86797 62.0958049 103.180511 62.9709268 102.945437 64.8558049 101.592543 63.5211707 99.7265844 63.8792195 100.577142 62.1797073 99.6592811 60.5162927 101.53792 60.8001951 102.836191 59.4138537 103.146371 61.2889756"></polygon>
            <polygon id="Fill-56" fill="#FFC60B" points="115.496816 63.7994146 113.616225 63.5145366 114.534086 65.1799024 113.683529 66.8774634 115.548512 66.5203902 116.90043 67.8540488 117.137455 65.9701463 118.823939 65.0940488 117.104291 64.2862439 116.794111 62.4140488"></polygon>
            <polygon id="Fill-57" fill="#FFC60B" points="87.7049508 24.2275122 66.5317295 52.7445854 90.9335574 26.9358049"></polygon>
            <polygon id="Fill-58" fill="#FFC60B" points="95.5358336 18.1719024 94.8813336 20.852878 96.7160795 22.910439 93.9673746 23.1162927 92.5744893 25.4987317 91.5308008 22.945561 88.834768 22.3592195 90.9397025 20.5758049 90.6646369 17.8314146 93.011473 19.2821463"></polygon>
            <polygon id="Fill-59" fill="#ED1C24" points="85.8093393 11.7227317 75.7870033 34.0388293 88.3805197 13.0641951"></polygon>
            <polygon id="Fill-60" fill="#FFC60B" points="90.1786877 6.48887805 90.1357697 8.38936585 91.673991 9.50156098 89.855827 10.0479024 89.272532 11.8557073 88.1917779 10.2937561 86.2936303 10.2976585 87.4446139 8.78741463 86.8525402 6.98156098 88.6453434 7.60985366"></polygon>
            <polygon id="Fill-61" fill="#FFC60B" points="90.1482549 36.4436098 72.7118287 53.6016585 92.057132 38.6289756"></polygon>
            <polygon id="Fill-62" fill="#ED1C24" points="96.1188361 33.1537561 95.3902049 34.908878 96.4212131 36.504 94.5259918 36.3518049 93.3281885 37.8259512 92.8863279 35.9771707 91.1149836 35.2922927 92.7370902 34.3020488 92.8404836 32.4044878 94.2831148 33.641561"></polygon>
            <polygon id="Fill-63" fill="#FFC60B" points="108.738201 26.4779512 108.008594 28.2320976 109.039602 29.8281951 107.145357 29.676 105.947553 31.1501463 105.506668 29.3013659 103.733373 28.6164878 105.356455 27.6262439 105.459848 25.7286829 106.903455 26.9657561"></polygon>
        </g>
    </g>
</svg>