<?xml version="1.0" encoding="UTF-8"?>
<svg width="120px" height="120px" viewBox="0 0 120 120" version="1.1" xmlns="http://www.w3.org/2000/svg" xmlns:xlink="http://www.w3.org/1999/xlink">
    <!-- Generator: Sketch 51.1 (57501) - http://www.bohemiancoding.com/sketch -->
    <title>Snap</title>
    <desc>Created with Sketch.</desc>
    <defs></defs>
    <g id="Snap" stroke="none" stroke-width="1" fill="none" fill-rule="evenodd">
        <g id="Group" transform="translate(0.000000, 3.000000)">
            <path d="M92.5471698,53.4589033 C92.5864151,53.7601351 92.6596226,54.0832609 92.7509434,54.4169563 C92.8958491,54.9884662 93.4407547,55.4995788 94.1637736,55.9548238 C95.6664151,56.9113669 98.0211321,57.6587841 99.6060377,58.3314596 C96.3169811,59.5099629 92.4135849,59.5439364 91.2860377,63.5362013 C90.7916981,65.3171682 92.6890566,66.9071285 94.4815094,69.0089563 C92.6098113,68.6979099 89.1713208,68.6994199 87.5645283,68.902506 C84.1939623,69.3313272 82.6822642,70.9907444 81.994717,72.3142013 C80.9750943,74.3178834 82.3569811,78.0481748 83.7577358,81.3466252 C83.5683019,80.9027046 81.5320755,80.2594728 81.0550943,80.0435523 C78.4022642,78.8318305 75.4973585,78.1953934 72.8128302,80.0186384 C69.7818868,82.0683735 70.5245283,84.6156318 70.7864151,87.4490225 C68.2173585,84.5944927 65.1320755,80.5146517 60.3237736,81.7580821 C58.9018868,82.1272609 57.5901887,82.9139364 56.6890566,83.9459762 C56.2671698,84.4261351 54.234717,86.4539762 54.2875472,86.9447046 C54.0618868,84.8549563 53.8362264,80.6241219 52.5086792,79.3323735 C49.4701887,76.3630887 44.6173585,76.8938305 40.8196226,78.1734993 C39.7373585,78.5389033 38.714717,79.0371815 37.6045283,79.3497377 C43.4377358,73.5312079 45.5215094,69.5268636 44.5169811,67.6447311 C44.3924528,67.4220159 44.2573585,67.2166649 44.1109434,67.0286781 C42.7841509,65.3518967 40.3056604,64.8392742 38.0981132,64.7373536 C36.1162264,64.6580821 33.5049057,64.5297377 31.4837736,65.1827841 C30.914717,65.3420821 30.3962264,65.5927311 29.9501887,65.9015126 C30.8422642,65.2847046 31.7290566,64.6399629 32.5833962,63.9861616 C36.3592453,61.0584 39.4354717,57.8467709 38.9426415,55.0360291 C38.5381132,52.6775126 35.1818868,51.7443735 33.9169811,49.9513272 C33.9675472,50.0434331 37.9396226,49.9203735 38.3245283,49.8614861 C39.7011321,49.6214066 40.7909434,48.7675391 41.3984906,47.6101748 C42.4996226,45.5136318 41.7992453,41.7901351 38.5803774,37.2527841 C43.9003774,41.2963868 50.610566,45.9968106 55.0966038,45.4766384 C57.2135849,45.2441086 59.1637736,44.3419232 60.3335849,42.613804 C63.4369811,37.9639629 63.3698113,33.1359497 62.4354717,26.8961483 C64.1464151,29.8729828 66.1026415,34.1815788 69.0573585,36.1361881 C71.7909434,37.9639629 76.0679245,38.4652609 78.8656604,36.5567046 C81.9856604,34.4435523 84.5177358,30.8536848 86.5932075,27.7817245 C86.6716981,27.6752742 86.7373585,27.5718437 86.8022642,27.4676583 C86.7781132,27.6209166 86.7569811,27.7885192 86.7328302,27.9417775 C85.8045283,34.6209695 84.6867925,40.6637245 87.005283,42.9995921 C88.6528302,44.6612742 91.0671698,45.2773272 94.3879245,44.8885192 C95.0913208,44.802453 97.2475472,44.0301219 98.8090566,43.4971152 C99.3856604,43.3068636 99.8807547,43.1498305 100.200755,43.0622543 C99.8920755,43.2645854 99.5984906,43.4646517 99.3049057,43.6639629 C98.2671698,44.3585325 97.2996226,45.0372477 96.4377358,45.7212477 C93.6754717,47.9159364 92.005283,50.1717775 92.5471698,53.4589033" id="Fill-1" fill="#F59415"></path>
            <path d="M68.4643774,81.5025258 C66.2628679,79.7389232 63.4870189,78.4592543 59.9828679,79.2580093 C59.8870189,79.2799033 59.7919245,79.3033073 59.6953208,79.3274662 C58.3443774,79.6785258 57.084,80.3021285 56.0258868,81.1325921 C55.6681509,79.6317179 55.1353208,78.3860225 54.2590943,77.5329099 C51.9662642,75.2929232 48.7572075,74.3371351 44.8824906,74.7168834 C47.233434,71.262155 47.8364528,68.5337046 46.7315472,66.4620755 C46.5224906,66.0876119 46.3156981,65.7750556 46.0930566,65.4889232 C44.5224906,63.5041152 41.9066415,62.415453 38.3013585,62.233506 C40.369283,59.9874795 41.8990943,57.3639695 41.414566,54.6023007 C41.2311698,53.5302477 40.7443774,52.6635457 40.1330566,51.9425523 C41.6198491,51.3431086 42.8590943,50.2280225 43.6206038,48.7777311 C44.2855094,47.5108967 44.5164528,46.0032278 44.329283,44.3309762 C48.3051321,46.7627245 52.1270189,48.3489099 55.3858868,47.9699166 C55.8296604,47.9223536 56.284,47.8445921 56.7209811,47.7449364 C59.1730566,47.1862609 61.1398491,45.8990424 62.4115472,44.0214397 C64.1036226,41.4862609 64.9881509,38.9231483 65.3315472,36.1660093 C66.038717,36.9541947 66.8138113,37.6623536 67.6719245,38.2300887 C70.3655094,40.0291748 73.9738113,40.7124199 77.078717,40.0042609 C78.2613585,39.7347377 79.3383396,39.272698 80.278717,38.6309762 C81.3126792,37.9311219 82.2809811,37.0983934 83.1904151,36.1856384 C82.9602264,39.8374132 83.324,42.853506 85.2236226,44.768857 C86.7798491,46.3369232 88.8341887,47.2353338 91.353434,47.4550291 C90.2741887,49.1491748 89.6455094,51.2283536 90.0651321,53.8284596 C90.1156981,54.2029232 90.2032453,54.6128702 90.3307925,55.0779298 C90.6085283,56.1824464 91.3994717,57.1593735 92.7353208,58.0200358 C91.0696604,58.9282609 89.5760755,60.3574132 88.8711698,62.8540887 C88.518717,64.1231881 88.7149434,65.2488437 89.1896604,66.2718238 C88.4485283,66.2967377 87.7753208,66.3450556 87.249283,66.4122477 C86.809283,66.4681152 86.3775849,66.5443669 85.9677736,66.6379828 C82.3541887,67.4608967 80.6017358,69.5498901 79.7677736,71.1572146 C78.9504151,72.7645391 79.0160755,74.7342477 79.5006038,76.7998371 C77.6938113,76.3053338 76.0304151,76.2381417 74.4696604,76.5944861 C73.3866415,76.8413603 72.3556981,77.2943404 71.4032453,77.941347 C69.804,79.0224596 68.9247547,80.2507907 68.4643774,81.5025258" id="Fill-3" fill="#F9DC30"></path>
            <path d="M99.2983396,86.6199934 C101.405509,87.9532649 103.50966,89.2691722 105.351925,90.9519934 C105.602491,91.1754636 105.311925,91.6503377 104.999472,91.5121788 C102.715698,90.5193974 100.645509,89.1513974 98.5753208,87.7826424 C96.5579623,86.447106 94.2613585,85.1576225 92.6923019,83.2853046 C92.6281509,83.1999934 92.7006038,83.0837285 92.798717,83.1154371 C95.1413585,83.7699934 97.2651321,85.3342848 99.2983396,86.6199934" id="Fill-5" fill="#231F20"></path>
            <path d="M106.777358,75.1324927 C87.1101887,67.8568768 78.0739623,69.0112212 90.3728302,88.4199099 C90.3728302,88.4199099 63.4641509,65.5519629 77.7343396,101.76395 C67.7833962,89.0827709 64.4181132,71.6083073 49.2988679,100.559777 C52.2807547,82.7803073 54.7411321,75.8368768 26.474717,85.9904265 C43.9464151,69.630294 45.2996226,65.9853139 30.3154717,68.3226914 L29.9441509,65.8962278 C32.0173585,64.4527311 35.5660377,64.6324132 38.0928302,64.7449033 C40.5554717,64.8551285 43.36,65.4658967 44.5169811,67.6417113 C45.5283019,69.5321483 43.4407547,73.5357377 37.6037736,79.3452079 C38.7207547,79.0364265 39.7388679,78.5321086 40.8249057,78.1667046 C44.6226415,76.8923205 49.4671698,76.3593139 52.509434,79.3285987 C53.8369811,80.621102 54.0573585,84.8504265 54.2822642,86.9477245 C54.2324528,86.4509563 56.2618868,84.4200954 56.6875472,83.9422013 C57.594717,82.9109166 58.9033962,82.1317907 60.3245283,81.761857 C65.1328302,80.5116318 68.2113208,84.5967576 70.7826415,87.4467576 C70.5184906,84.6156318 69.7841509,82.0706384 72.8135849,80.0118437 C75.4898113,78.1953934 78.4007547,78.8371152 81.0513208,80.0465722 C81.5358491,80.2624927 83.565283,80.8966649 83.7577358,81.3428503 C82.3637736,78.0511947 80.9713208,74.3254331 81.9992453,72.3142013 C82.6784906,70.998294 84.1939623,69.3381219 87.5667925,68.9047709 C89.1698113,68.7016848 92.6128302,68.697155 94.48,69.0142411 C92.6950943,66.9101483 90.7924528,65.322453 91.2928302,63.5399762 C92.4135849,59.5484662 96.3116981,59.5129828 99.6037736,58.3261748 L100.253585,60.3449563 C92.8671698,62.8907046 95.3464151,67.8833007 106.777358,75.1324927" id="Fill-7" fill="#231F20"></path>
            <path d="M64.7409057,92.9133219 C66.2775094,93.8872291 66.2993962,96.2117722 66.6526038,97.881004 C67.1748679,100.291613 67.5582642,102.65164 67.6314717,105.119626 C67.6473208,105.587706 66.8692075,105.792302 66.6918491,105.334037 C65.8231698,103.029123 65.2578868,100.71062 64.8261887,98.2977457 C64.5182642,96.627004 63.6246792,94.4187258 64.6805283,92.9276662 C64.6941132,92.9057722 64.7197736,92.8997325 64.7409057,92.9133219" id="Fill-9" fill="#231F20"></path>
            <path d="M58.7061132,12.7725298 C67.5823396,34.702053 76.1951698,47.1635364 91.6623396,13.1356689 C85.8261132,42.1739603 85.1929057,47.3507682 111.291019,36.866543 C92.5076226,50.3343974 91.1951698,56.6262914 113.171774,58.5242781 C107.378566,58.7568079 103.086491,59.3728609 100.254038,60.3452583 L99.6034717,58.3264768 C97.2555472,57.3299205 93.2306415,56.1710464 92.7483774,54.4134834 C91.3242264,49.1989272 95.0057358,46.5006755 100.196679,43.068596 C99.0110189,43.3569934 95.3461132,44.7733113 94.3830943,44.8835364 C91.0653585,45.2776291 88.6495094,44.6585563 87.0012075,42.9946093 C84.6351698,40.6051391 85.8630943,34.3411788 86.8064906,27.4626755 C84.6766792,30.6048477 82.0812075,34.3698675 78.8646038,36.5630464 C76.0706415,38.4602781 71.7876226,37.9589801 69.0510189,36.1349801 C66.0955472,34.1796159 64.1438491,29.8732848 62.4313962,26.8911656 C63.373283,33.1324768 63.4412075,37.9672848 60.3302642,42.6110861 C59.1664906,44.345245 57.2140377,45.2444106 55.1023396,45.4807152 C50.6155472,45.9963576 43.9053585,41.2883841 38.5800755,37.2530861 L39.7083774,35.5997086 C50.578566,43.5291258 63.9702642,47.6474702 58.7061132,12.7725298" id="Fill-11" fill="#231F20"></path>
            <path d="M49.1969811,34.4181099 C49.2535849,34.5162556 49.1101887,34.6008119 49.0369811,34.5056861 C43.5864151,26.4018715 38.0581132,18.3675139 33.045283,8.4200702 L35.7267925,6.82105033 C41.1977358,15.8965073 45.2807547,25.4400437 49.1969811,34.4181099" id="Fill-13" fill="#231F20"></path>
            <path d="M39.7085283,35.6000106 L38.5802264,37.2526331 C41.7983396,41.7869642 42.5032453,45.5165007 41.4021132,47.607004 C40.7968302,48.769653 39.6964528,49.6280503 38.3175849,49.8613351 C37.9326792,49.9224874 33.9704151,50.0364874 33.9168302,49.9587258 C35.1847547,51.7449775 38.533434,52.6766066 38.9447547,55.0404079 C39.5507925,58.4921166 34.7953208,62.5236397 29.944,65.8960768 L30.3160755,68.3232954 C26.264,68.9567126 21.0149434,70.0272556 14.5658868,71.3975205 C34.6104151,59.0485272 43.1983396,54.0974543 17.1711698,45.9966596 C44.4300377,49.8364212 39.4790943,44.8551497 27.4964528,24.8847656 C27.0013585,24.0633616 32.8564528,30.5885404 39.7085283,35.6000106" id="Fill-15" fill="#231F20"></path>
            <path d="M49.2621887,10.0948132 L46.9821887,10.9985086 C47.4433208,13.8500185 48.7203019,16.6298066 49.7316226,19.2888 C51.3784151,23.6094755 52.8840755,28.0713298 54.9912453,32.1874093 C55.0259623,32.261396 55.1323774,32.2100583 55.1255849,32.1390914 C54.4455849,27.5247338 53.0757736,22.9866278 51.9036981,18.4764556 C51.1761509,15.6883629 50.581434,12.6873695 49.2621887,10.0948132" id="Fill-17" fill="#231F20"></path>
            <path d="M65.0994717,0.2736 C65.458717,7.93726887 67.9794717,16.0592026 69.6700377,23.3370834 C69.7070189,23.5009113 69.994566,23.4895868 69.9809811,23.3114146 C69.3613585,15.8606464 69.2821132,7.39671258 67.2889057,0.000301986755 L65.0994717,0.2736 Z" id="Fill-19" fill="#231F20"></path>
            <path d="M78.7212075,8.01933377 C76.7793208,14.5769762 75.7747925,22.0639828 75.1159245,28.7409099 C75.082717,29.0753603 75.5913962,29.1584066 75.6834717,28.8473603 C77.5408302,22.4165523 79.3340377,15.2398371 79.973283,8.45721457 L78.7212075,8.01933377 Z" id="Fill-21" fill="#231F20"></path>
            <path d="M107.858566,13.7369245 C105.660075,16.2411497 103.950642,19.2368583 102.199698,22.0302358 C99.6789434,26.0421298 97.1898868,30.072898 94.6155472,34.0500636 C94.5076226,34.2108715 94.7468679,34.3467656 94.858566,34.2033219 C97.8034717,30.4579311 100.832151,26.766898 103.829132,23.0554808 C105.824604,20.5829642 107.990642,18.1112026 109.620075,15.3608583 L107.858566,13.7369245 Z" id="Fill-23" fill="#231F20"></path>
            <path d="M118.495698,43.2536384 C116.534943,43.8228834 114.67834,44.9130556 112.872302,45.8356252 C109.500981,47.5471351 106.309283,49.6081947 102.972679,51.3929364 C102.859472,51.4548437 102.922113,51.6496252 103.047396,51.6028172 C106.617208,50.443943 110.279849,49.5727113 113.816453,48.3496649 C115.712302,47.6935987 117.823245,47.1069894 119.612679,46.0998636 L118.495698,43.2536384 Z" id="Fill-25" fill="#231F20"></path>
            <path d="M111.764075,84.8431033 C106.355019,82.0602954 100.014642,81.0909179 94.1391698,79.8089841 C94.0818113,79.7946397 94.0606792,79.8633417 94.112,79.8882556 C99.5753962,82.3992755 105.191245,85.4365073 111.16634,86.4874212 L111.764075,84.8431033 Z" id="Fill-27" fill="#231F20"></path>
            <path d="M94.7434717,106.724611 C91.5155472,100.57163 84.9902642,95.5322265 80.2589434,90.7714053 C80.1895094,90.7049682 80.0634717,90.7887695 80.1178113,90.8665311 C83.8755472,96.4057232 87.5600755,103.744001 92.9306415,108.116015 L94.7434717,106.724611 Z" id="Fill-29" fill="#231F20"></path>
            <path d="M60.8339623,113.467748 C61.4550943,106.925205 60.3615094,100.027828 59.8611321,93.5728609 C59.8498113,93.4029934 59.6083019,93.3765695 59.5954717,93.5607815 C59.2098113,99.9644106 58.2301887,106.857258 58.9411321,113.341669 L60.8339623,113.467748 Z" id="Fill-31" fill="#231F20"></path>
            <path d="M42.0430189,88.9224914 C38.8430189,95.8145841 34.794717,102.776889 33.0309434,110.238981 L35.3033962,111.199299 C38.7939623,104.335895 40.1743396,96.3166371 42.1532075,88.9692993 C42.1660377,88.9043722 42.0724528,88.8522795 42.0430189,88.9224914" id="Fill-33" fill="#231F20"></path>
            <path d="M35.3018113,89.8071616 C31.881434,93.832645 27.881434,97.6369232 25.4104906,102.381135 L26.3486038,103.113453 C30.1546415,99.3340887 32.6044528,94.3716914 35.4323774,89.9037974 C35.4791698,89.8298106 35.3659623,89.728645 35.3018113,89.8071616" id="Fill-35" fill="#231F20"></path>
            <path d="M28.0664151,74.5205921 C20.194717,78.2493735 12.9192453,83.4171219 6.11698113,88.8777974 L6.84830189,89.8592543 C14.3758491,85.5136649 21.8309434,80.5943007 28.1471698,74.6376119 C28.2067925,74.5787245 28.1403774,74.4858636 28.0664151,74.5205921" id="Fill-37" fill="#231F20"></path>
            <path d="M16.6748679,74.407045 C12.6333585,75.8135483 8.45977358,77.7107801 4.93071698,80.2376543 L5.74203774,81.5573364 C9.75411321,79.9734159 13.5956226,77.5295881 16.9488302,74.9340119 C17.1888302,74.7520649 16.9593962,74.3058795 16.6748679,74.407045" id="Fill-39" fill="#231F20"></path>
            <path d="M27.0824906,56.1219735 C18.1519245,56.0238278 8.91041509,55.6916424 0.000226415094,57.0558675 L0.083245283,59.0829536 C9.10588679,59.280755 18.2583396,57.7398675 27.1156981,56.4685033 C27.3179623,56.4405695 27.284,56.1310331 27.0824906,56.1219735" id="Fill-41" fill="#231F20"></path>
            <path d="M29.4324528,42.0135298 C23.3018868,36.7257417 17.5486792,34.2305762 11.4566038,31.0823642 L10.6384906,32.912404 C16.9169811,35.8620596 22.8769811,39.1106821 28.9841509,42.5510662 C29.3275472,42.7450927 29.7411321,42.2800331 29.4324528,42.0135298" id="Fill-43" fill="#231F20"></path>
            <path d="M35.4473962,66.6958887 C32.8406038,65.6374252 31.3394717,64.8137563 30.9507925,64.2339417 C31.0564528,63.9832927 31.5756981,63.4487762 32.5998491,63.1724583 L32.7115472,63.1430146 C33.9273962,62.8470675 35.6217358,63.0048556 36.7047547,64.3434119 L37.3123019,65.0953589 C37.4813585,65.3037298 37.7447547,65.3233589 37.9032453,65.1376371 L38.4783396,64.4649616 C39.304,63.5016238 39.5704151,61.6851735 39.1530566,59.8438093 C39.0624906,59.4429219 38.9809811,59.2247364 38.8685283,58.9212397 L38.5296604,57.981306 C38.4738113,57.8250278 38.3606038,57.705743 38.2262642,57.6612 L37.7968302,57.5200212 C35.5681509,56.7839285 33.824,56.6329351 32.293434,57.0353325 L32.0889057,57.091955 C31.0111698,57.4173457 30.0564528,58.0228291 29.3289057,58.8397033 C27.834566,60.4968556 27.2858868,63.1573589 27.8843774,65.7959682 C28.6338113,69.1049881 30.6972075,70.4994119 34.3002264,71.9376238 C35.3832453,72.3656901 37.9107925,73.3614914 38.2270189,74.0115179 C38.2873962,74.6034119 38.2043774,75.8362728 36.5832453,76.1601536 L36.4775849,76.1797828 C35.3485283,76.3715444 34.0338113,76.0755974 32.8715472,75.3712132 C31.5273962,74.5543391 30.7855094,73.3901801 30.6141887,72.8050808 L29.8436226,70.1800609 C29.784,69.9784848 29.6330566,69.8297563 29.4655094,69.8101272 C29.2994717,69.7889881 29.1500377,69.9007232 29.093434,70.0872 L28.3681509,72.5113987 C27.9606038,73.8748689 27.8828679,75.4142464 28.1590943,76.6350278 C29.0790943,80.6967497 34.2873962,83.0092132 37.4300377,82.5751073 L37.6119245,82.5456636 C37.6141887,82.5456636 37.6156981,82.5456636 37.6179623,82.5449086 C40.9598491,81.9462199 42.5673962,78.1306172 41.4670189,73.2761801 C40.5123019,69.0634649 38.4489057,67.9295046 35.4473962,66.6958887" id="Fill-45" fill="#0288AD"></path>
            <path d="M56.1099623,77.6436636 C55.0397736,71.7103788 54.9152453,57.183306 56.630717,55.5676768 L57.3303396,54.9085907 C57.5250566,54.7251338 57.5492075,54.3861536 57.385434,54.1468291 L56.7952453,53.2869219 C55.9341132,52.0329219 54.2646792,51.0741139 53.0775094,51.1443258 L52.9243019,51.1541404 C52.8729811,51.1579152 52.8239245,51.1707497 52.7771321,51.1926437 L52.636,51.2605907 C52.1243019,51.505955 50.6676981,52.2073192 51.0329811,64.3955046 C50.7824151,63.4117828 50.5273208,62.3412397 50.2556226,61.1431073 C49.7439245,58.8850013 49.3990189,56.8382861 49.3227925,55.9829086 L49.3016604,55.7420742 C49.2941132,55.6635576 49.2722264,55.585796 49.2382642,55.5163391 L49.1310943,55.3026834 C48.3363774,53.7089483 44.8193962,53.3609086 43.8767547,53.6100477 L42.9371321,53.8924053 C42.8178868,53.9286437 42.7205283,54.0245245 42.6684528,54.1573987 C42.6171321,54.2895179 42.6163774,54.445796 42.6661887,54.5869748 L43.3061887,56.3921007 C42.3326038,61.422445 41.7537358,74.5724583 42.5597736,78.1313722 C43.0918491,80.4785642 44.9092075,80.961743 46.1220377,81.282604 L47.7409057,81.7136901 C47.7967547,81.7280344 47.8518491,81.7302993 47.9039245,81.7204848 C47.9092075,81.7197298 47.9137358,81.7182199 47.9205283,81.7174649 C48.156,81.6766967 48.2948679,81.4124583 48.230717,81.1285907 C48.2110943,81.0410146 48.1733585,80.961743 48.1250566,80.895306 L47.4284528,79.2222993 C47.401283,79.1581272 47.3514717,79.0365775 47.1688302,78.2325377 C46.6458113,75.923849 46.2880755,71.3555444 46.2503396,66.9525775 C47.4352453,70.8761404 48.716,74.441094 50.2956226,78.2332927 L50.4148679,78.4590278 C51.2352453,79.777955 52.9182642,80.4023126 54.9409057,80.1229748 L55.081283,80.1018358 C55.2782642,80.0663523 55.4397736,80.0142596 55.5892075,79.937253 L56.8684528,79.276657 C57.0073208,79.2049351 57.0971321,79.0516768 57.105434,78.8704848 C57.1129811,78.6892927 57.0390189,78.5065907 56.9084528,78.3842861 L56.1099623,77.6436636 Z" id="Fill-47" fill="#0288AD"></path>
            <path d="M65.7867925,57.9776821 C65.8169811,58.8398543 65.8569811,59.6620132 65.9067925,60.4600132 C65.5339623,60.5581589 65.1716981,60.6578146 64.82,60.7582252 C65.1218868,59.7646887 65.4486792,58.8255099 65.7867925,57.9776821 M72.6350943,49.1090861 L72.4456604,48.7172583 C71.5701887,46.9128874 67.4192453,46.5754172 66.2766038,46.8796689 L66.2750943,46.8804238 L65.3920755,47.1801457 C65.1498113,47.2631921 65.0064151,47.5417748 65.06,47.8256424 L65.2049057,48.6055232 C62.8871698,51.6608742 60.7535849,56.9154437 59.4403774,62.7468079 C58.3022642,63.360596 57.0720755,64.2461722 56.969434,65.710053 L56.865283,67.213947 C56.8532075,67.3868344 56.9150943,67.5619868 57.0313208,67.6850464 C57.1475472,67.808106 57.3037736,67.8632185 57.4516981,67.8337748 L58.4992453,67.6178543 C57.9935849,70.7109536 57.5467925,74.4004768 57.9354717,76.1142517 C58.4554717,78.408596 60.5422642,78.8827152 61.6735849,79.139404 L62.9520755,79.4300662 C63.0086792,79.4429007 63.0660377,79.4444106 63.1203774,79.435351 C63.2086792,79.4187417 63.2909434,79.3749536 63.3543396,79.3032318 C63.4569811,79.1892318 63.5007547,79.0208742 63.4713208,78.8494967 L63.2237736,77.3961854 C62.9445283,75.7563974 62.8320755,73.6651391 62.9143396,71.6516424 C62.9633962,70.2051258 63.129434,68.6106358 63.4237736,66.7828609 C64.4630189,66.6235629 65.5550943,66.4604901 66.4554717,66.3366755 C66.7550943,68.7208609 67.1739623,71.1073113 67.7030189,73.4416689 C67.8449057,74.0675364 67.98,74.6601854 68.169434,75.3260662 L68.3362264,75.7080795 C69.1973585,77.1817748 72.2177358,77.7321457 73.3309434,77.5781325 L73.5483019,77.5456689 C73.7762264,77.5049007 73.9566038,77.4384636 74.150566,77.3237086 L74.809434,76.9288609 C75.0041509,76.8118411 75.0916981,76.5589272 75.0222642,76.310543 L74.7883019,75.4710199 C74.4909434,74.4034967 74.2615094,73.3903311 74.0388679,72.4096291 C73.4735849,69.9137086 73.065283,67.6148344 72.8267925,65.5756689 C72.0396226,58.8519338 71.950566,53.0062252 72.5958491,49.9433245 L72.6856604,49.5175232 C72.7143396,49.3801192 72.6969811,49.2351656 72.6350943,49.1090861" id="Fill-49" fill="#0288AD"></path>
            <path d="M86.9413585,55.4459007 C87.5519245,51.9126556 88.2100377,48.3718609 88.6613585,47.2371457 L88.7549434,47.0000861 C89.0168302,46.911 89.2756981,46.8309735 89.5277736,46.7615166 L89.6907925,46.7184834 C92.6077736,45.9914503 93.038717,47.8947219 93.1806038,48.5205894 C93.7443774,51.0066954 91.1209811,53.8446159 86.9413585,55.4459007 M97.9941887,47.5353576 C96.7096604,41.8678212 91.6500377,39.2488411 85.7224906,41.0350927 C81.2960755,42.3660993 76.4583396,45.4773179 74.4024906,48.2654106 L74.0394717,48.757649 C73.9270189,48.9109073 73.894566,49.1185232 73.9541887,49.3087748 L74.1458868,49.921053 C74.6213585,51.4370265 76.2900377,53.5101656 77.5209811,54.1073444 L78.3194717,54.4938874 C78.5519245,54.6071325 78.8221132,54.5286159 78.9609811,54.3028808 L79.444,53.5328146 C79.6953208,53.1334371 80.0221132,52.7121656 80.4115472,52.2848543 C80.3126792,53.6015166 80.1443774,55.0518079 79.9006038,57.0977682 C78.913434,65.3631457 78.3813585,69.5932252 78.0002264,71.5259404 L77.8900377,72.0808411 C77.8560755,72.2552384 77.9013585,72.4432252 78.0130566,72.5874238 L78.3677736,73.0464437 C79.4236226,74.4129338 80.9504151,76.0293179 83.3843774,76.3524437 L84.558717,76.5079669 C84.6100377,76.5147616 84.6606038,76.5140066 84.7096604,76.505702 C84.8047547,76.4890927 84.8930566,76.4437947 84.964,76.3758477 C85.0711698,76.2701523 85.1285283,76.118404 85.1209811,75.9560861 L85.0673962,74.6945364 C84.9104151,71.0623907 85.1255094,67.2754768 85.7451321,62.801543 C86.2590943,62.8823245 86.8153208,62.8543907 87.4809811,62.7207616 C94.5866415,61.2395166 99.5179623,54.2613576 97.9941887,47.5353576" id="Fill-51" fill="#0288AD"></path>
            <path d="M113.280151,36.4331166 C112.342038,34.2437126 108.330717,32.3668649 106.049208,32.5578715 L105.502038,32.6039245 C105.332981,32.6197788 105.166943,32.7081099 105.056,32.8515536 L104.711094,33.3007589 C101.735245,37.1699642 98.685434,56.7787192 99.7631698,61.5357656 C99.9722264,62.4575801 100.28317,63.2117921 100.704302,63.8127457 C100.702038,63.8135007 100.699774,63.8142556 100.697509,63.8142556 C97.8824151,64.3729311 98.3805283,69.2024543 98.666566,70.4662689 C99.0197736,72.0260305 101.359396,73.7790636 103.39034,73.4982159 L103.471849,73.4853815 C103.474113,73.4853815 103.476377,73.4846265 103.479396,73.4838715 C105.429585,73.1486662 105.994868,71.2771033 106.409962,69.9030636 C106.571472,69.368547 106.739019,68.8159113 106.945057,68.4535272 L107.368453,67.7113947 C107.495245,67.4894344 107.465057,67.202547 107.292981,66.997196 L106.719396,66.313951 C106.540528,66.1018053 106.340528,65.8949444 106.122415,65.697898 C106.137509,65.6850636 106.152604,65.6722291 106.166943,65.6586397 C106.289208,65.5408649 106.354113,65.3717523 106.345057,65.195845 L106.269585,63.8104808 C105.784302,54.890547 108.465811,44.7015139 113.054491,38.3628119 L113.494491,37.7543086 C113.631094,37.5655669 113.659774,37.3209576 113.569962,37.1103219 L113.280151,36.4331166 Z" id="Fill-53" fill="#0288AD"></path>
            <path d="M30.4698113,61.080143 L30.585283,61.0491894 C31.8932075,60.7200238 33.729434,60.8929113 34.9286792,62.3771762 L35.5316981,63.1230834 L36.0984906,62.4504079 C36.8124528,61.604845 37.0328302,59.9854411 36.6577358,58.3297987 C36.5762264,57.9704344 36.505283,57.7794278 36.3973585,57.4887656 L36.0622642,56.5556265 L35.6373585,56.4152026 C33.5015094,55.7138384 31.8373585,55.5696397 30.3928302,55.9569377 L30.1966038,56.0128053 C29.1890566,56.3208318 28.2992453,56.8930967 27.6230189,57.6593881 C26.249434,59.1987656 25.7475472,61.6682623 26.3030189,64.1166199 C26.9981132,67.1863152 28.8713208,68.4380503 32.3633962,69.8196397 C34.0071698,70.4621166 36.2720755,71.3469377 36.5686792,72.2453483 C36.6350943,72.754196 36.7203774,74.5668715 34.6524528,74.989653 L34.5430189,75.0100371 C33.3467925,75.2191629 31.9566038,74.9096265 30.7309434,74.1667391 C29.3686792,73.3392954 28.4992453,72.1034146 28.2645283,71.3023947 L27.5,68.6939841 L26.7830189,71.113653 C26.4071698,72.3850172 26.3339623,73.8088848 26.5875472,74.9285007 C27.4290566,78.6421828 32.4041509,80.802143 35.2841509,80.3816265 L35.4637736,80.3514278 C38.5286792,79.7784079 39.9883019,76.2089245 38.9626415,71.6813881 C38.0743396,67.7593351 36.2230189,66.7431497 33.3135849,65.550302 C31.9981132,65.0165404 28.9890566,63.7965139 28.5384906,62.7169113 C28.4901887,62.1891894 29.2245283,61.4274278 30.4698113,61.080143" id="Fill-55" fill="#F93E26"></path>
            <path d="M27.5125283,70.122004 L27.1540377,71.329951 C26.8030943,72.5129841 26.7321509,73.8273815 26.9638491,74.8496066 C27.7200755,78.1865603 32.4438491,80.2883881 35.1849811,79.8852358 L35.3540377,79.8557921 C38.1796981,79.3205205 39.5140377,75.9911166 38.5570566,71.7670768 C37.7593208,68.2474212 36.2340377,67.2697391 33.2181887,66.0285735 C30.8710189,65.0735404 28.6596981,64.0445205 28.1887547,62.9150901 C28.1646038,62.8569576 28.148,62.7927854 28.1419623,62.7286132 C28.062717,61.8558715 28.9653585,60.9763351 30.3495094,60.5875272 L30.468,60.5550636 C31.8868679,60.1964543 33.8830943,60.3919907 35.2106415,62.0325338 L35.5125283,62.4054874 L35.7955472,62.0687722 C36.4083774,61.3409841 36.5895094,59.9125868 36.2544151,58.4336066 C36.182717,58.1180305 36.1215849,57.9534477 36.0204528,57.6809046 L35.7698868,56.9825603 L35.5563019,56.9115934 C33.4876226,56.2291033 31.8853585,56.0856596 30.5057358,56.4533285 L30.3140377,56.5076861 C29.3721509,56.7945735 28.5366792,57.3268252 27.9034717,58.0447987 C26.6302642,59.4671563 26.1668679,61.753951 26.6808302,64.0241364 C27.3246038,66.8665868 29.0393208,67.9982821 32.4498868,69.3436331 C34.8513962,70.2775272 36.5993208,71.0302291 36.953283,72.1007722 C36.9653585,72.1392755 36.9744151,72.1792887 36.9796981,72.218547 C37.153283,73.5465338 36.6581887,75.1017656 34.7646038,75.4852887 L34.6513962,75.5071828 C33.3691321,75.729143 31.8906415,75.3984675 30.5902642,74.6080172 C29.1057358,73.7043219 28.1683774,72.3597258 27.8944151,71.4250768 L27.5125283,70.122004 Z M35.5759245,80.8478185 C35.5736604,80.8478185 35.5721509,80.8485735 35.5698868,80.8485735 L35.3902642,80.8787722 C32.2823396,81.3272225 27.1283774,79.0487325 26.2121509,75.0073947 C25.937434,73.791898 26.0113962,72.2578053 26.4129057,70.897355 L27.1276226,68.479196 C27.1834717,68.2927192 27.3313962,68.1809841 27.4951698,68.2006132 C27.6612075,68.2202424 27.8106415,68.3674609 27.8702642,68.5675272 L28.6355472,71.1789576 C28.8061132,71.7610371 29.5412075,72.9176464 30.8725283,73.723951 C32.022717,74.4200305 33.3230943,74.7091828 34.4400755,74.5121364 L34.5434717,74.4925073 C36.1472453,74.1625868 36.2264906,72.9327457 36.1668679,72.3438715 C35.8529057,71.6983748 33.3517736,70.7176728 32.2800755,70.2971563 C28.7147925,68.8815934 26.6717736,67.5030238 25.9253585,64.2091033 C25.3306415,61.5833285 25.8695094,58.9311298 27.3449811,57.2724675 C28.0642264,56.4555934 29.0076226,55.8486 30.073283,55.5194344 L30.2755472,55.461302 C31.7887547,55.0543748 33.5140377,55.1963086 35.718566,55.9188119 L36.1434717,56.0577258 C36.2763019,56.1015139 36.388,56.2192887 36.4438491,56.3748119 L36.7796981,57.3094609 C36.8921509,57.6114477 36.9721509,57.8281232 37.062717,58.2267457 C37.4778113,60.0598053 37.2166792,61.8694609 36.4015849,62.8335536 L35.8340377,63.5047192 C35.6778113,63.691196 35.417434,63.6738318 35.2491321,63.4662159 L34.6476226,62.7203086 C33.5751698,61.3923219 31.8989434,61.2435934 30.697434,61.5440702 L30.5864906,61.5735139 C29.5736604,61.8543616 29.0612075,62.3888781 28.9563019,62.6395272 C29.3419623,63.2148119 30.828,64.0279113 33.4076226,65.0705205 C36.377434,66.2845073 38.4196981,67.4033682 39.3691321,71.5949444 C40.4642264,76.4259775 38.8800755,80.2347854 35.5759245,80.8478185 Z" id="Fill-57" fill="#231F20"></path>
            <path d="M54.0300377,53.4582238 L54.7190943,52.7983828 L54.1364528,51.9452702 C53.384,50.8467934 51.8828679,49.9763166 50.8617358,50.0412437 L50.7100377,50.0503033 L50.5711698,50.1182503 C48.9198491,50.923045 49.0881509,60.0400252 49.424,66.5108464 C48.7394717,64.3244623 48.1719245,62.0542768 47.6104151,59.5742106 C47.0956981,57.3025152 46.7470189,55.233151 46.6685283,54.3619192 L46.6466415,54.1225947 L46.5417358,53.9119589 C45.9251321,52.6715483 42.6979623,52.2797205 41.853434,52.5069656 L41.8526792,52.5077205 L40.9243774,52.7915881 L41.618717,54.7529921 C40.6753208,59.4617205 40.0723019,72.8427536 40.8662642,76.345045 C41.2836226,78.1886742 42.5402264,78.6575086 44.0277736,79.0455616 L45.6300377,79.4638132 L44.8851321,77.6722768 C44.834566,77.5492172 44.7741887,77.3748199 44.5953208,76.5858795 C43.904,73.5343033 43.5515472,67.1480384 43.674566,62.2852967 C44.9402264,66.8249126 46.3885283,71.2256146 48.4790943,76.255204 L48.5726792,76.437151 C49.2760755,77.5696013 50.7741887,78.0897735 52.5900377,77.8247801 L52.7213585,77.8036411 C52.8768302,77.7749523 53.0021132,77.7334291 53.1160755,77.6730318 L54.378717,77.007151 L53.4436226,76.1381841 C52.4028679,70.6865682 52.0579623,55.346396 54.0300377,53.4582238" id="Fill-59" fill="#F93E26"></path>
            <path d="M41.5164528,53.1603139 L42.0160755,54.571347 C42.0538113,54.6793073 42.0628679,54.7963272 42.0409811,54.9057974 C41.1006038,59.5850821 40.5066415,72.8657046 41.2764528,76.2653205 C41.5949434,77.668804 42.4281509,78.1164993 44.0711698,78.5430556 L44.8711698,78.7506715 L44.5006038,77.8567907 C44.4326792,77.6944728 44.3662642,77.5042212 44.1768302,76.6662079 C43.4447547,73.4334397 43.124,66.8025656 43.238717,62.2289762 C43.2447547,61.9775722 43.398717,61.7820358 43.609283,61.7631616 C43.8183396,61.7450424 44.0198491,61.9096252 44.0877736,62.1549894 C45.494566,67.2004331 46.9700377,71.4878901 48.8749434,76.0682742 L48.9473962,76.2026583 C49.5073962,77.1003139 50.8689057,77.5389497 52.4862642,77.3011351 L52.6115472,77.279996 C52.7209811,77.2596119 52.8123019,77.2301682 52.8915472,77.1878901 L53.5209811,76.8541947 L53.1813585,76.5378636 C53.0885283,76.4517974 53.0236226,76.3310026 52.998717,76.2003934 C52.0123019,71.0356649 51.4726792,55.1926848 53.7255094,53.0297046 L54.0689057,52.7005391 L53.7783396,52.2739828 C53.124,51.3181947 51.7813585,50.5277444 50.9058868,50.582102 L50.8296604,50.5866318 L50.7602264,50.6206053 C50.4809811,50.7557444 49.1315472,52.1630026 49.8741887,66.5232278 C49.8870189,66.7852013 49.7390943,67.0048967 49.5194717,67.0366053 C49.3013585,67.0698238 49.0832453,66.9082609 49.004,66.656857 C48.393434,64.7022477 47.8304151,62.5505921 47.1790943,59.678698 C46.6590943,57.3835987 46.3058868,55.2810159 46.2251321,54.3894 L46.214566,54.2693603 L46.1617358,54.1629099 C45.7323019,53.2984728 42.8206038,52.7949099 41.9707925,53.0214 L41.5164528,53.1603139 Z M45.7458868,79.9752278 C45.694566,79.9842874 45.6402264,79.9820225 45.5851321,79.9684331 L43.9836226,79.5471616 C42.7843774,79.2330954 40.9858868,78.761996 40.4568302,76.4253735 C39.654566,72.8845788 40.209283,59.7836384 41.1647547,54.7699033 L40.529283,52.9745921 C40.4794717,52.8341682 40.4802264,52.6794 40.5315472,52.5472808 C40.5828679,52.4151616 40.678717,52.3185258 40.7964528,52.2822874 L41.7247547,51.996155 C42.6560755,51.743996 46.134566,52.0746715 46.9224906,53.6570821 L47.0281509,53.8699828 C47.0628679,53.9394397 47.084,54.0164464 47.0907925,54.0942079 L47.1126792,54.3342874 C47.1896604,55.186645 47.5330566,57.2227907 48.0417358,59.4680623 C48.3119245,60.6609099 48.5662642,61.7261682 48.8153208,62.7038503 C48.4364528,50.5677576 49.8756981,49.8633735 50.3813585,49.6164993 L50.5202264,49.5477974 C50.5670189,49.5259033 50.6153208,49.5130689 50.6658868,49.509294 L50.8175849,49.4987245 C51.9904151,49.4232278 53.6417358,50.3707113 54.494566,51.6148967 L55.0794717,52.4687642 C55.2424906,52.7058238 55.2183396,53.043294 55.0258868,53.227506 L54.3353208,53.887347 C52.6424906,55.5037311 52.7858868,69.9696517 53.8523019,75.8727377 L54.6432453,76.6073205 C54.7723019,76.7273603 54.8455094,76.9093073 54.8379623,77.0897444 C54.8304151,77.2701815 54.7413585,77.4234397 54.604,77.4951616 L53.3406038,78.1595325 C53.193434,78.237294 53.0341887,78.2901417 52.838717,78.3263801 L52.6998491,78.3482742 C50.7013585,78.6366715 49.0364528,78.0236384 48.2243774,76.7137709 L48.1058868,76.4887907 C46.5383396,72.7192411 45.2673962,69.1754265 44.0907925,65.2737576 C44.134566,69.6593603 44.4938113,74.2072808 45.014566,76.504645 C45.1956981,77.304155 45.2455094,77.4241947 45.2726792,77.4883669 L45.964,79.150804 C46.0123019,79.2172411 46.0485283,79.2957576 46.0681509,79.3825788 C46.1323019,79.6656914 45.9956981,79.9291748 45.7624906,79.9722079 C45.7556981,79.9729629 45.7511698,79.9744728 45.7458868,79.9752278 Z" id="Fill-61" fill="#231F20"></path>
            <path d="M63.82,54.1740834 C63.8532075,55.985249 63.9218868,57.6242821 64.0260377,59.1546 C63.1988679,59.3727854 62.4177358,59.5947457 61.6864151,59.8197258 C62.3113208,57.5321762 63.065283,55.4930106 63.8169811,54.0230901 C63.8184906,54.0766927 63.8192453,54.1272755 63.82,54.1740834 M64.0071698,45.7335536 L64.0064151,45.7335536 L63.1339623,46.0355404 L63.3249057,47.0645603 C63.3264151,47.0721099 63.3279245,47.0789046 63.329434,47.0864543 C61.0064151,50.0655536 58.8275472,55.4665868 57.529434,61.4195007 C56.34,62.0461232 55.2313208,62.8516728 55.1483019,64.0664146 L55.0464151,65.5665338 L56.3150943,65.2939907 C56.4456604,65.266057 56.6071698,65.2351033 56.7943396,65.2011298 C56.305283,68.0851033 55.6924528,72.4442821 56.1022642,74.2546927 C56.5037736,76.0220702 58.0079245,76.4969444 59.3973585,76.8064808 L60.6622642,77.0880834 L60.4162264,75.6430768 C60.1309434,73.9730901 60.0132075,71.8501232 60.0924528,69.8071828 C60.1407547,68.252706 60.3241509,66.5223219 60.6501887,64.5307192 C61.9716981,64.3155536 63.4245283,64.0883086 64.4735849,63.941845 C64.7739623,66.4913682 65.2109434,69.0401364 65.7769811,71.5383219 C65.9166038,72.1521099 66.0486792,72.7319245 66.2071698,73.3079642 L66.3354717,73.6137258 C67.0079245,74.7650503 69.6713208,75.3290106 70.7566038,75.1704675 L70.9596226,75.1387589 C71.1332075,75.1070503 71.2622642,75.0579775 71.4056604,74.9704013 L72.0554717,74.5740437 L71.8230189,73.7390503 C71.5233962,72.6632225 71.2939623,71.649302 71.0713208,70.669355 C70.5037736,68.1651298 70.094717,65.8602159 69.8532075,63.8150106 C69.0577358,57.0686265 68.9633962,51.1821497 69.6064151,48.0716861 L69.694717,47.6473947 L69.5067925,47.2593417 C68.8260377,45.8520834 65.0184906,45.4587457 64.0071698,45.7335536" id="Fill-63" fill="#F93E26"></path>
            <path d="M63.3873962,56.2443536 C63.054566,57.0899166 62.7330566,58.0260755 62.4356981,59.0165921 C62.7836226,58.9146715 63.1413585,58.8142609 63.5089057,58.7146053 C63.4590943,57.9211351 63.4183396,57.101996 63.3873962,56.2443536 M61.809283,60.3611881 C61.6455094,60.3989364 61.4704151,60.3347642 61.3489057,60.1913205 C61.2198491,60.0373073 61.1723019,59.8206318 61.2251321,59.6273603 C61.849283,57.3375457 62.6175849,55.2410026 63.3904151,53.7265391 C63.4983396,53.5143934 63.7202264,53.4154927 63.934566,53.4872146 C64.1489057,53.5566715 64.3013585,53.7793868 64.3081509,54.0307907 L64.3111698,54.1863139 C64.3443774,55.9921947 64.4107925,57.6123536 64.5149434,59.1426715 C64.5330566,59.406155 64.3851321,59.6379298 64.1617358,59.6968172 C63.3398491,59.9119828 62.564,60.1309232 61.8372075,60.3536384 C61.8281509,60.3559033 61.8190943,60.3589232 61.809283,60.3611881 M60.5277736,63.9925788 C60.5353208,63.9910689 60.5421132,63.988804 60.5496604,63.988049 C61.8741887,63.7706185 63.3300377,63.5403536 64.3813585,63.3923801 C64.5141887,63.372751 64.6500377,63.417294 64.7594717,63.5146848 C64.8689057,63.6120755 64.9413585,63.7532543 64.9594717,63.9050026 C65.2568302,66.4341417 65.6923019,68.9700755 66.2530566,71.4456119 C66.3904151,72.0503404 66.5194717,72.6203404 66.6756981,73.1873205 L66.7775849,73.4153205 C67.2349434,74.1876517 69.598717,74.772751 70.6470189,74.6172278 L70.8462642,74.5862742 C70.9564528,74.5658901 71.0349434,74.5364464 71.1338113,74.476049 L71.4568302,74.2774927 L71.3413585,73.860751 C71.0379623,72.7720887 70.8070189,71.7513735 70.5828679,70.7646318 C70.0123019,68.2453073 69.598717,65.9200093 69.3541887,63.8529099 C68.5519245,57.0529232 68.4590943,51.0992543 69.1126792,47.9291483 L69.1564528,47.7170026 L69.0628679,47.5229762 C68.5866415,46.5384993 65.1496604,46.0085126 64.1315472,46.2833205 L63.7073962,46.4297841 L63.8062642,46.9620358 C63.838717,47.1364331 63.8017358,47.3380093 63.6998491,47.4686185 C61.4077736,50.4009099 59.2772075,55.6902079 57.9881509,61.5849894 C57.9549434,61.7337179 57.8681509,61.8552675 57.7481509,61.9186848 C56.8621132,62.3837444 55.6832453,63.1175722 55.6123019,64.148102 L55.5617358,64.900049 L56.1964528,64.7618901 C56.329283,64.7332013 56.4953208,64.7014927 56.6870189,64.6652543 C56.8417358,64.6365656 57.0047547,64.7022477 57.1194717,64.8388967 C57.2341887,64.9755457 57.2855094,65.1657974 57.2553208,65.3432146 C56.5058868,69.7484464 56.2583396,72.8694795 56.5519245,74.1672675 C56.8447547,75.457506 57.8704151,75.9301152 59.4417358,76.2774 L60.073434,76.4170689 L59.9504151,75.6960755 C59.6590943,73.9860755 59.5368302,71.8163007 59.6168302,69.7378768 C59.6666415,68.1592411 59.8500377,66.4114927 60.1798491,64.3934662 C60.2130566,64.1873603 60.3496604,64.0310821 60.5277736,63.9925788 M60.7836226,77.621996 C60.7300377,77.6318106 60.673434,77.6303007 60.6175849,77.6182212 L59.353434,77.3351086 C58.2349434,77.0844596 56.1715472,76.6231748 55.654566,74.3416649 C55.2681509,72.6361947 55.7043774,68.9602609 56.1994717,65.8769762 L55.164,66.0966715 C55.0190943,66.1276252 54.8636226,66.0740225 54.7489057,65.9509629 C54.633434,65.8294132 54.5723019,65.6550159 54.5836226,65.4828834 L54.6855094,63.9850291 C54.7843774,62.5264331 55.9979623,61.639347 57.1224906,61.0225391 C58.4123019,55.209294 60.5126792,49.9683139 62.798717,46.9167377 L62.6538113,46.1398768 C62.6009811,45.8567642 62.7421132,45.5789364 62.9806038,45.496645 L63.8530566,45.1923934 L63.854566,45.1923934 C64.9828679,44.8843669 69.0847547,45.201453 69.9519245,46.9937444 L70.1406038,47.3833073 C70.2009811,47.5086318 70.2190943,47.6528305 70.1904151,47.7902344 L70.1021132,48.2145258 C69.4696604,51.266102 69.5662642,57.0846318 70.353434,63.7759033 C70.5926792,65.8037444 70.998717,68.0905391 71.5617358,70.5728702 C71.7828679,71.5482874 72.0107925,72.5546583 72.3058868,73.6168967 L72.5390943,74.4518901 C72.6077736,74.6987642 72.5224906,74.9509232 72.329283,75.068698 L71.6794717,75.4643007 C71.4877736,75.5805656 71.3104151,75.6477576 71.0847547,75.6885258 L70.8696604,75.7224993 C69.7707925,75.8817974 66.7851321,75.3487907 65.9323019,73.8849099 L65.7662642,73.5051616 C65.5783396,72.8430556 65.4447547,72.2541815 65.3028679,71.6313338 C64.7768302,69.3098106 64.3594717,66.9354397 64.0598491,64.5633338 C63.1707925,64.6909232 62.0915472,64.8577709 61.0651321,65.0223536 C60.7775849,66.8433338 60.614566,68.4325391 60.5685283,69.8730159 C60.4900377,71.8782079 60.6047547,73.9596517 60.8832453,75.5911351 L61.129283,77.0376517 C61.158717,77.2075192 61.1156981,77.3751219 61.014566,77.4898768 C60.9526792,77.5608437 60.8719245,77.6061417 60.7836226,77.621996" id="Fill-65" fill="#231F20"></path>
            <path d="M85.4550943,45.2096066 L85.6437736,44.7279377 C85.9932075,44.5980834 86.3396226,44.4848384 86.6822642,44.3874477 L86.8460377,44.3436596 C88.4030189,43.9412623 90.3977358,43.9978848 90.9803774,46.5670371 C91.6649057,49.5861497 88.4422642,52.9012093 83.5735849,54.5055139 C84.2701887,50.3350768 84.9645283,46.4636066 85.4550943,45.2096066 M94.6158491,45.8422689 C93.4249057,40.5869444 88.7962264,38.1400967 83.2,39.865196 C78.9230189,41.1727987 74.2581132,44.2017258 72.2867925,46.9052623 L71.9283019,47.3967457 L72.1184906,48.005249 C72.5441509,49.3649444 74.0815094,51.2825603 75.1698113,51.8072623 L75.96,52.1885205 L76.4354717,51.4192093 C76.8958491,50.674057 77.589434,49.8722821 78.4354717,49.0946662 C78.3743396,50.8431695 78.1916981,52.4905073 77.8520755,55.3971298 C76.8822642,63.6564675 76.3584906,67.8857921 75.9803774,69.8298318 L75.8724528,70.3839775 L76.2249057,70.8399775 C77.2015094,72.106057 78.6098113,73.6016464 80.8188679,73.883249 L81.9796226,74.0312225 L81.9230189,72.7772225 C81.7554717,68.9955934 81.9871698,64.9889841 82.6558491,60.2515669 C83.2649057,60.4554079 83.8875472,60.4554079 84.6928302,60.2878053 C91.4060377,58.8337391 96.0550943,52.1960702 94.6158491,45.8422689" id="Fill-67" fill="#F93E26"></path>
            <path d="M86.057283,45.211796 L85.9644528,45.4473457 C85.521434,46.5790411 84.8769057,50.1054914 84.2799245,53.625147 C88.4036981,52.0125377 90.9893585,49.1761272 90.4286038,46.7051205 C90.2882264,46.0822728 89.8595472,44.1895709 86.9810566,44.9271735 L86.8203019,44.9702066 C86.5712453,45.0404185 86.3161509,45.1212 86.057283,45.211796 Z M83.7040755,55.0814781 C83.5335094,55.1214914 83.3523774,55.0686437 83.2180377,54.9387894 C83.0723774,54.7976106 83.0044528,54.5869748 83.0384151,54.3838887 C83.7176604,50.3040477 84.422566,46.3140477 84.9463396,44.9732265 L85.1350189,44.4915576 C85.1953962,44.3360344 85.3146415,44.2167497 85.4618113,44.1616371 C85.8233208,44.027253 86.182566,43.9087232 86.537283,43.8068026 L86.7078491,43.7607497 C86.7093585,43.7599947 86.7116226,43.7599947 86.7138868,43.7592397 C89.2331321,43.1046834 90.9999245,44.0748159 91.5335094,46.4288026 C92.2889811,49.7650013 89.0323774,53.3367497 83.7470943,55.0701536 C83.7327547,55.0739285 83.7184151,55.0784583 83.7040755,55.0814781 Z M76.4346415,70.2646172 L76.6112453,70.4926172 C77.521434,71.6711205 78.8270943,73.0610146 80.8391698,73.3139285 L81.4187925,73.3864053 L81.3908679,72.7605377 C81.2187925,68.9207762 81.4504906,64.9179417 82.1229434,60.1382464 C82.1455849,59.9759285 82.2323774,59.8347497 82.3599245,59.7494384 C82.4882264,59.6648821 82.6452075,59.643743 82.7946415,59.6943258 C83.2965283,59.8611735 83.8255849,59.8672132 84.5659623,59.7109351 C90.9765283,58.3127364 95.4180377,52.0042331 94.0535094,45.9826172 C92.9282264,41.0149351 88.6648302,38.8104318 83.3478491,40.4411603 C79.1606792,41.7132795 74.6052075,44.6546305 72.6897358,47.2751205 L72.5093585,47.5219947 L72.6044528,47.8262464 C72.9780377,49.0183391 74.4218113,50.8242199 75.3659623,51.2787099 L75.7606792,51.4682066 L75.9984151,51.0839285 C76.4799245,50.3032927 77.2021887,49.4599947 78.0897358,48.6431205 C78.2489811,48.496657 78.4761509,48.4672132 78.6670943,48.5736636 C78.8580377,48.6793589 78.9765283,48.8975444 78.9674717,49.1300742 C78.9033208,50.9397298 78.7108679,52.6452 78.377283,55.4914252 C77.3999245,63.7741669 76.8731321,68.0201007 76.4889811,69.9867894 L76.4346415,70.2646172 Z M82.1078491,74.5981272 C82.0595472,74.6071868 82.0089811,74.6086967 81.9584151,74.601902 L80.7984151,74.4516636 C78.3946415,74.1421272 76.8836981,72.5408424 75.8384151,71.1856768 L75.4874717,70.7304318 C75.377283,70.5869881 75.332,70.4005113 75.3652075,70.2268689 L75.4731321,69.6734781 C75.846717,67.7483126 76.3659623,63.5340874 77.3289811,55.3019285 C77.5659623,53.2635179 77.7297358,51.8200212 77.8255849,50.5086437 C77.441434,50.935955 77.1199245,51.3572265 76.8723774,51.755849 L76.3961509,52.5251603 C76.2587925,52.7501404 75.9931321,52.8294119 75.7629434,52.7176768 L74.9735094,52.3364185 C73.7569057,51.7467894 72.1055849,49.6917695 71.6338868,48.1848556 L71.4436981,47.5763523 C71.3840755,47.3876106 71.4157736,47.1792397 71.526717,47.0267364 L71.8844528,46.5360079 C73.9108679,43.7501801 78.6844528,40.6329219 83.0542642,39.2883258 C88.9033208,37.4847099 93.9033208,40.0682066 95.1795472,45.7017695 C96.6942642,52.3885113 91.8376604,59.3553457 84.8233208,60.8630146 C84.166717,60.9996636 83.617283,61.0291073 83.1093585,60.9521007 C82.5040755,65.4079152 82.2980377,69.1782199 82.4580377,72.7937563 L82.5138868,74.0485113 C82.5206792,74.2100742 82.4648302,74.3610675 82.3584151,74.4675179 C82.2889811,74.5362199 82.2021887,74.5807629 82.1078491,74.5981272 Z" id="Fill-69" fill="#231F20"></path>
            <path d="M100.228075,69.7039788 L100.23034,69.7122834 L100.228075,69.7039788 Z M109.67034,34.861502 C108.846189,32.9295417 105.159396,31.2202967 103.136,31.3977139 L102.595623,31.4437669 L102.255245,31.8922172 C99.4461887,35.5855152 96.5005283,55.0342172 97.5133585,59.5058861 C97.8771321,61.1094358 98.5344906,61.9806675 99.3088302,62.4683762 C98.8658113,62.4079788 98.426566,62.4072238 98.0076981,62.4834755 C95.7163774,62.9492901 96.1986415,67.3492371 96.4393962,68.4129854 C96.7216604,69.6609457 98.7737358,71.1557801 100.419774,70.9157007 L100.499774,70.9028662 C102.089208,70.6167338 102.565434,69.0116742 102.949585,67.7176609 C103.117132,67.1544556 103.289962,66.5708662 103.524679,66.1526146 L103.939774,65.4112371 L103.373736,64.7347868 C102.844679,64.1043894 102.071849,63.5057007 101.206943,63.0761245 C101.311849,63.0889589 101.415245,63.1010384 101.518642,63.1116079 L102.852981,63.246747 L102.776,61.8711974 C102.273358,52.8772768 104.940528,42.5749987 109.524679,36.1396609 L109.957132,35.5326675 L109.67034,34.861502 Z" id="Fill-71" fill="#F93E26"></path>
            <path d="M98.1316226,63.0803523 C96.4636981,63.4163126 96.7233208,67.0824318 97.0010566,68.307743 C97.202566,69.1948291 98.9044528,70.5235709 100.303698,70.3182199 L100.499925,70.9025642 L100.36483,70.3068954 C100.049358,70.3642728 99.7338868,70.1445775 99.6591698,69.8161669 C99.5852075,69.4877563 99.7791698,69.1699152 100.094642,69.1117828 C100.410113,69.0536503 100.725585,69.2688159 100.800302,69.5987364 L100.802566,69.6070411 C100.877283,69.9362066 100.681057,70.2495179 100.36483,70.3068954 C101.620679,70.0796503 102.022943,68.718445 102.379925,67.5135179 C102.555774,66.918604 102.73766,66.3040609 103.003321,65.8299417 L103.210113,65.459253 L102.927849,65.1210278 C102.451623,64.5525377 101.736151,64.0066967 100.968604,63.6231735 C100.704453,63.4910543 100.563321,63.1868026 100.633509,62.9014252 C100.705962,62.6168026 100.969358,62.4341007 101.256151,62.4695841 L102.21917,62.5699947 L102.180679,61.8829748 C101.668981,52.7697695 104.372377,42.316498 109.023698,35.7716901 L109.238792,35.4681934 L109.096151,35.1322331 C108.392,33.4826305 104.948981,31.8775709 103.16483,32.0300742 L102.895396,32.0527232 L102.724075,32.2769483 C100.058415,35.7732 97.1142642,55.1169616 98.0818113,59.3855444 C98.3678491,60.6501139 98.8636981,61.4896371 99.5987925,61.9516768 C99.8395472,62.1034252 99.9527547,62.403902 99.8689811,62.6741801 C99.7852075,62.9437033 99.5308679,63.109796 99.2546415,63.0705377 C98.8538868,63.0146702 98.4757736,63.018445 98.1316226,63.0803523 M100.635019,71.4982331 C100.632,71.4989881 100.629736,71.4989881 100.626717,71.499743 L100.546717,71.5125775 C98.5421887,71.8024848 96.2304906,70.0690808 95.8795472,68.5183788 C95.5950189,67.2621139 95.0953962,62.4582596 97.8735094,61.8890146 C97.8757736,61.8882596 97.8780377,61.8875046 97.8803019,61.8875046 C97.4636981,61.2910808 97.1557736,60.5421536 96.9474717,59.6256238 C95.8765283,54.8972662 98.8553962,35.3715576 101.785962,31.509147 L102.12634,31.0606967 C102.235019,30.9180079 102.399547,30.8289219 102.565585,30.8123126 L103.105962,30.7647497 C105.357283,30.5646834 109.318038,32.4143523 110.247094,34.588657 L110.533887,35.2613325 C110.622943,35.4697033 110.595019,35.7135576 110.460679,35.9022993 L110.027472,36.5092927 C105.509736,42.8359152 102.880302,52.9856901 103.373132,61.8588159 L103.449358,63.2366305 C103.45917,63.4117828 103.395774,63.5801404 103.275019,63.6979152 C103.260679,63.7122596 103.245585,63.725094 103.230491,63.7371735 C103.44634,63.9334649 103.644075,64.137306 103.821434,64.3479417 L104.388981,65.025147 C104.558792,65.2282331 104.588981,65.5136106 104.464453,65.7355709 L104.047849,66.4754384 C103.844075,66.8370675 103.680302,67.3881934 103.521811,67.920445 C103.114264,69.289955 102.559547,71.1547232 100.635019,71.4982331" id="Fill-73" fill="#231F20"></path>
            <path d="M115.957358,74.2986318 C114.38,76.390645 112.936981,78.6676252 111.479623,80.8547642 C113.157358,82.912049 114.776981,85.0199166 116.336981,87.1783669 C114.227547,86.1750159 111.568679,85.2871748 108.910566,84.5004993 C107.575472,86.2437179 106.162642,87.7951748 104.573962,88.9676384 C104.494717,87.5324464 104.42,85.4864861 104.292453,83.2064861 C102.017736,82.5881682 100.022264,82.0521417 98.7384906,81.5870821 C100.066038,80.3723404 101.896226,79.4399563 103.96717,78.6193073 C103.730943,75.9927775 103.391321,73.3783272 102.87434,71.2546053 C104.742264,73.1510821 106.551321,75.0988967 108.301509,77.0950291 C110.895472,76.2449364 113.577736,75.3963536 115.957358,74.2986318" id="Fill-75" fill="#0288AD"></path>
            <path d="M103.654943,72.7135033 C103.963623,74.3427219 104.216453,76.2792119 104.422491,78.5788411 C104.441358,78.7796623 104.323623,78.9699139 104.135698,79.0446556 C102.190038,79.8154768 100.742491,80.5795033 99.6564528,81.4152517 C100.830792,81.7919801 102.387774,82.2147616 104.139472,82.6903907 L104.412679,82.7643775 C104.603623,82.8157152 104.740981,82.9833179 104.750038,83.1803642 C104.820981,84.4645629 104.876075,85.6740199 104.925132,86.742298 C104.946264,87.2118874 104.965887,87.654298 104.986264,88.0627351 C106.147774,87.0963775 107.296453,85.8559669 108.547019,84.2214636 C108.662491,84.0712252 108.858717,84.0078079 109.040604,84.0614106 C111.446642,84.7733444 113.372679,85.4271457 114.960604,86.0741523 C113.721358,84.4041656 112.435321,82.7507881 111.124377,81.1434636 C110.999849,80.9856755 110.987019,80.7674901 111.098717,80.5998874 C111.426264,80.1099139 111.752302,79.6146556 112.079849,79.1178874 C112.895698,77.8789868 113.731925,76.6091325 114.601358,75.3800464 C112.81117,76.1025497 110.910038,76.7238874 109.057962,77.3293709 L108.444377,77.5301921 C108.270038,77.5875695 108.07834,77.5354768 107.957585,77.3973179 C106.57117,75.8149073 105.128151,74.2438212 103.654943,72.7135033 M98.3130566,81.7549868 C98.3032453,81.7293179 98.2956981,81.703649 98.2904151,81.6764702 C98.2594717,81.5194371 98.3115472,81.3578742 98.4300377,81.2499139 C99.5975849,80.1808808 101.208151,79.2462318 103.480604,78.3213974 C103.212679,75.4427086 102.868528,73.1634636 102.429283,71.3621126 C102.380981,71.1620464 102.471547,70.9544305 102.650415,70.8547748 C102.831547,70.7536093 103.055698,70.7860728 103.199849,70.9332914 C104.99834,72.7603113 106.762113,74.6537682 108.446642,76.5668543 L108.774189,76.459649 C111.145509,75.684298 113.597585,74.8825232 115.765132,73.882947 C115.956075,73.7946159 116.181736,73.8474636 116.313057,74.0112914 C116.444377,74.1743642 116.448906,74.406894 116.322868,74.5744967 C115.108528,76.1848411 113.95683,77.9318344 112.843623,79.6214503 C112.577208,80.0253576 112.313057,80.427 112.047396,80.8271325 C113.652679,82.8059007 115.219472,84.851106 116.707774,86.9099007 C116.830038,87.0775033 116.822491,87.3092781 116.688906,87.4700861 C116.554566,87.631649 116.328151,87.6807219 116.139472,87.5908808 C114.391547,86.7596623 112.143245,85.9427881 109.081358,85.0285232 C107.606642,86.9227351 106.255698,88.2960199 104.845132,89.3363642 C104.710038,89.4352649 104.53117,89.4541391 104.378717,89.3816623 C104.227019,89.3099404 104.125132,89.159702 104.11683,88.9928543 C104.082113,88.3632119 104.048151,87.6157947 104.010415,86.7838212 C103.966642,85.8099139 103.91683,84.7182318 103.854189,83.5608675 C101.69117,82.9742583 99.824,82.4669205 98.5832453,82.0177152 C98.4579623,81.9731722 98.3606038,81.8757815 98.3130566,81.7549868" id="Fill-77" fill="#231F20"></path>
            <path d="M47.5250566,90.7973762 C50.076,91.3938 52.7416604,91.7924225 55.3303396,92.2408728 C56.5326038,89.8725417 57.8043019,87.539694 59.1446792,85.238555 C59.0820377,87.5736675 59.3461887,90.3662901 59.7031698,93.1151245 C61.8375094,93.6315219 63.8269434,94.2958927 65.5416604,95.2750848 C64.2616604,95.9281311 62.4216604,96.8242768 60.3876981,97.8631113 C60.7439245,100.193694 61.0616604,102.236634 61.156,103.59935 C59.5076981,102.876846 57.9144906,101.579813 56.326566,100.017032 C54.0216604,101.295191 51.7688302,102.665456 50.0367547,103.997217 C51.0148679,101.520926 52.0631698,99.0786079 53.1801509,96.6687536 C51.3529811,94.6401576 49.4918491,92.5300252 47.5250566,90.7973762" id="Fill-79" fill="#F9DC30"></path>
            <path d="M51.0546415,102.692483 C52.4191698,101.75104 54.0870943,100.735609 56.1052075,99.6175033 C56.2818113,99.5186026 56.5036981,99.5488013 56.6470943,99.6907351 C58.1399245,101.159146 59.4244528,102.173821 60.6274717,102.829132 C60.4969057,101.603066 60.2531321,100.006311 59.9784151,98.211755 L59.9361509,97.9324172 C59.9059623,97.7368808 60.002566,97.5436093 60.1799245,97.4552781 C61.3248302,96.8701788 62.4078491,96.3311325 63.3648302,95.8539934 C63.7859623,95.6448675 64.1821887,95.4470662 64.5474717,95.2636093 C63.1935094,94.5924437 61.5950189,94.0435828 59.5957736,93.560404 C59.4108679,93.5158609 59.2735094,93.3626026 59.2486038,93.1746159 C58.9255849,90.6854901 58.7436981,88.658404 58.6931321,86.9446291 C57.6682264,88.7527748 56.677283,90.5986689 55.7376604,92.4483377 C55.6448302,92.6265099 55.4501132,92.7269205 55.2516226,92.6921921 C54.6712453,92.5910265 54.0863396,92.4928808 53.4999245,92.3947351 C52.037283,92.1493709 50.5376604,91.8979669 49.0629434,91.6005099 C50.4478491,92.945106 51.7852075,94.4331457 53.0878491,95.8819272 L53.5195472,96.3620861 C53.642566,96.4987351 53.672,96.6957815 53.5950189,96.8618742 C52.7089811,98.7704305 51.8576604,100.725795 51.0546415,102.692483 M61.4810566,103.920815 C61.4621887,103.939689 61.4418113,103.957053 61.4191698,103.972907 C61.2886038,104.065013 61.1187925,104.082377 60.9723774,104.01896 C59.522566,103.382523 58.0169057,102.287821 56.2516226,100.583106 C53.7278491,101.993384 51.7836981,103.230775 50.3157736,104.36096 C50.152,104.48553 49.9255849,104.487795 49.7610566,104.36398 C49.5965283,104.239411 49.5353962,104.021225 49.6108679,103.829464 C50.5527547,101.446033 51.5716226,99.0648675 52.637283,96.750894 L52.4070943,96.4942053 C50.7391698,94.6384967 49.0138868,92.7193709 47.2221887,91.1407351 C47.0644528,91.0025762 47.0221887,90.7745762 47.1180377,90.5888543 C47.2138868,90.4031325 47.4252075,90.3042318 47.6289811,90.3517947 C49.5927547,90.8108146 51.6561509,91.1573444 53.6508679,91.4917947 C54.1278491,91.5725762 54.602566,91.6510927 55.0757736,91.7318742 C56.2350189,89.4639536 57.4704906,87.2020728 58.7497358,85.0073841 C58.8538868,84.827702 59.0689811,84.7416358 59.2704906,84.7982583 C59.4712453,84.8556358 59.6086038,85.0421126 59.602566,85.2512384 C59.5504906,87.1869735 59.7135094,89.5741788 60.1165283,92.7450397 C62.4448302,93.3278742 64.2470943,94.0080993 65.7686038,94.8770662 C65.9142642,94.9601126 66.0033208,95.1171457 65.9987925,95.2847483 C65.9950189,95.453106 65.8984151,95.6078742 65.7497358,95.6826159 C65.1882264,95.9687483 64.5187925,96.3024437 63.7731321,96.6731325 C62.9006792,97.1079934 61.9233208,97.594947 60.8901132,98.120404 C61.2289811,100.336987 61.5210566,102.250073 61.6123774,103.566735 C61.621434,103.699609 61.5731321,103.828709 61.4810566,103.920815" id="Fill-81" fill="#231F20"></path>
            <path d="M18.9773585,27.3263285 C21.8377358,29.069547 24.9169811,30.6172291 27.8822642,32.1958649 C30.2883019,29.7996 32.7645283,27.4720371 35.3109434,25.2131762 C34.3026415,28.0254278 33.5086792,31.5216795 32.845283,35.0043417 C35.2324528,36.4833219 37.3841509,38.0838517 39.0762264,39.9576795 C37.2611321,40.2400371 34.6679245,40.5948715 31.7833962,41.0455868 C31.285283,44.0186464 30.8558491,46.626302 30.4271698,48.3196927 C28.7139623,46.7833351 27.2950943,44.5720371 25.9901887,42.0398781 C22.68,42.6725404 19.3969811,43.4373219 16.7607547,44.3629113 C18.9381132,41.746196 21.1856604,39.1974278 23.5033962,36.7166066 C22.0935849,33.5223417 20.6754717,30.2163417 18.9773585,27.3263285" id="Fill-83" fill="#0288AD"></path>
            <path d="M18.5181887,43.1850119 C20.5521509,42.5855682 22.9823396,42.0185881 25.8804528,41.4659523 C26.1347925,41.4161245 26.3921509,41.541449 26.5098868,41.7717139 C27.7370566,44.1506146 28.8925283,45.896853 30.0917736,47.172747 C30.4230943,45.6303497 30.7634717,43.5949589 31.1461132,41.3058993 L31.2064906,40.9488 C31.2472453,40.698906 31.442717,40.5026146 31.6940377,40.4663762 C33.3166792,40.2127073 34.848,39.990747 36.2004528,39.7937007 C36.7959245,39.7068795 37.3559245,39.625343 37.8736604,39.5483364 C36.4970566,38.1916609 34.7740377,36.8870781 32.5370566,35.5017139 C32.3310189,35.3741245 32.2253585,35.1332901 32.2706415,34.8947205 C32.8713962,31.7419788 33.4593208,29.2068 34.0812075,27.1042172 C32.1136604,28.8927338 30.1740377,30.7393828 28.2947925,32.6109457 C28.1106415,32.7891179 27.8344151,32.8336609 27.6072453,32.7121113 C26.9423396,32.3580318 26.2713962,32.0054623 25.5981887,31.6521377 C23.9189434,30.7703364 22.1981887,29.8658861 20.5249811,28.9153828 C21.6706415,31.1017669 22.7015849,33.4436742 23.7061132,35.7236742 L24.0381887,36.479396 C24.133283,36.6938066 24.0910189,36.9444556 23.9310189,37.1165881 C22.0940377,39.080257 20.2789434,41.1164026 18.5181887,43.1850119 M30.693283,48.8397139 C30.6630943,48.8563232 30.6313962,48.8676477 30.5981887,48.8789722 C30.4019623,48.9378596 30.1891321,48.8918066 30.0366792,48.7551576 C28.5295094,47.4045219 27.1370566,45.4725616 25.6729057,42.6973033 C22.0457358,43.4031974 19.1898868,44.1294755 16.9551698,44.915396 C16.7068679,45.0029722 16.4306415,44.9138861 16.2804528,44.6987205 C16.1302642,44.4812901 16.1430943,44.1921377 16.3113962,43.9890517 C18.4072453,41.4704821 20.5936604,38.9851311 22.8125283,36.5986808 L22.6351698,36.1955285 C21.3491321,33.2753166 20.0193208,30.255449 18.4729057,27.6228795 C18.3363019,27.3911046 18.3755472,27.0974225 18.5664906,26.9094358 C18.757434,26.722204 19.0525283,26.6859656 19.2812075,26.8263894 C21.4842264,28.1679656 23.8517736,29.412151 26.1423396,30.6155682 C26.6887547,30.9032106 27.2336604,31.1885881 27.7763019,31.4762305 C30.0902642,29.1826411 32.493283,26.9305748 34.922717,24.7751444 C35.1212075,24.5984821 35.4163019,24.578098 35.6381887,24.7290914 C35.8600755,24.8785748 35.9521509,25.1601775 35.8615849,25.4115815 C35.0253585,27.7421642 34.2713962,30.7076742 33.4955472,34.7203232 C36.0917736,36.3570914 38.0087547,37.9032636 39.5106415,39.5664556 C39.6540377,39.7249987 39.7000755,39.9514887 39.6276226,40.1530649 C39.5559245,40.356151 39.3770566,40.5056344 39.1657358,40.5365881 C38.3702642,40.6604026 37.4238491,40.7985616 36.3695094,40.9518199 C35.1370566,41.130747 33.7551698,41.3323232 32.2910189,41.5588132 C31.8178113,44.3861642 31.4087547,46.8262172 30.9944151,48.4622305 C30.9529057,48.6275682 30.842717,48.7642172 30.693283,48.8397139" id="Fill-85" fill="#231F20"></path>
            <path d="M75.729283,4.82846623 C76.9119245,6.85857219 78.2953208,8.84262517 79.5979623,10.807049 C81.8817358,10.1313536 84.1866415,9.52285033 86.5111698,8.97927417 C84.9511698,10.3782278 83.294566,12.2694199 81.7224906,14.1968503 C82.7013585,15.9060954 83.494566,17.6130755 83.913434,19.3344 C82.6990943,18.9025589 80.9806038,18.2547974 79.0507925,17.5692874 C77.7519245,19.2377642 76.6160755,20.7024 75.7866415,21.6045854 C75.2424906,20.0848371 75.1051321,18.2457377 75.1451321,16.2480954 C72.8915472,15.5331417 70.6115472,14.9087841 68.6756981,14.5992477 C70.8923019,13.7121616 73.1300377,12.8900026 75.3873962,12.1335258 C75.5843774,9.69196291 75.8123019,7.17867815 75.729283,4.82846623" id="Fill-87" fill="#F9DC30"></path>
            <path d="M70.1529057,14.4594278 C71.608,14.7682093 73.2970566,15.230249 75.2691321,15.8576265 C75.442717,15.9119841 75.5589434,16.075057 75.5551698,16.256249 C75.5181887,18.1338517 75.648,19.5969775 75.962717,20.7852954 C76.6812075,19.9442623 77.5710189,18.8019974 78.5710189,17.5170437 L78.7272453,17.3169775 C78.8359245,17.1773086 79.0215849,17.1206861 79.1891321,17.1818384 C80.2751698,17.5683815 81.2940377,17.9420901 82.1944151,18.2720106 C82.5898868,18.4177192 82.9634717,18.5543682 83.3083774,18.6796927 C82.9113962,17.3826596 82.2842264,16.0025801 81.3664906,14.4012954 C81.2819623,14.2540768 81.2970566,14.0691099 81.4042264,13.9369907 C82.8268679,12.1922623 84.0359245,10.8257722 85.1212075,9.7356 C83.3113962,10.1825404 81.4978113,10.6732689 79.7136604,11.2009907 C79.5400755,11.2493086 79.3551698,11.1843815 79.2563019,11.034143 C78.9634717,10.5932424 78.6676226,10.1515868 78.3702642,9.70842119 C77.6283774,8.60314967 76.8683774,7.47069934 76.1536604,6.32541457 C76.1302642,8.05806358 75.9853585,9.84658013 75.8434717,11.5882887 L75.7966792,12.1658384 C75.7838491,12.3304212 75.6736604,12.4700901 75.5181887,12.5229377 C73.7287547,13.1216265 71.9295094,13.770898 70.1529057,14.4594278 M75.7778113,22.0143815 C75.7536604,22.0143815 75.7295094,22.0106066 75.7053585,22.0060768 C75.5642264,21.9773881 75.4487547,21.8777325 75.4004528,21.7425934 C74.9212075,20.405547 74.7068679,18.7491497 74.7295094,16.5484212 C72.2563019,15.7715603 70.2517736,15.2657325 68.6110189,15.0052689 C68.4283774,14.9765801 68.288,14.8286066 68.2676226,14.6459046 C68.2472453,14.4616927 68.3513962,14.2872954 68.522717,14.2185934 C70.6563019,13.3639709 72.8351698,12.5606861 75.0004528,11.8306331 L75.0261132,11.5218517 C75.2072453,9.2909245 75.3944151,6.9837457 75.3189434,4.84341457 C75.3121509,4.65467285 75.4344151,4.48631523 75.6147925,4.43497748 C75.7951698,4.3821298 75.9891321,4.45913642 76.0834717,4.6214543 C76.9944151,6.18499073 78.0404528,7.74324238 79.0517736,9.25091126 C79.2925283,9.6102755 79.5340377,9.96963974 79.7725283,10.327494 C81.9657358,9.68577219 84.1996981,9.09765298 86.4178113,8.5797457 C86.5996981,8.53671258 86.7883774,8.62428874 86.8751698,8.78962649 C86.9619623,8.95647417 86.9249811,9.16031523 86.7853585,9.28563974 C85.4910189,10.4445139 84.0366792,12.0216397 82.218566,14.2389775 C83.2736604,16.1158252 83.9408302,17.7103152 84.3121509,19.2376132 C84.3476226,19.3833219 84.3008302,19.5380901 84.1883774,19.6385007 C84.0759245,19.7396662 83.9159245,19.7721298 83.7755472,19.721547 C83.2434717,19.5320503 82.613283,19.3002755 81.9121509,19.0428318 C81.0917736,18.742355 80.1717736,18.4048848 79.1929057,18.0553351 C77.957434,19.6415205 76.8910189,21.0110305 76.0887547,21.8822623 C76.008,21.9698384 75.8940377,22.0174013 75.7778113,22.0143815" id="Fill-89" fill="#231F20"></path>
        </g>
    </g>
</svg>