<?xml version="1.0" encoding="UTF-8"?>
<svg width="120px" height="120px" viewBox="0 0 120 120" version="1.1" xmlns="http://www.w3.org/2000/svg" xmlns:xlink="http://www.w3.org/1999/xlink">
    <!-- Generator: Sketch 51.1 (57501) - http://www.bohemiancoding.com/sketch -->
    <title>Racer</title>
    <desc>Created with Sketch.</desc>
    <defs>
        <polygon id="path-1" points="0.199373684 0.299053333 13.3734789 0.299053333 13.3734789 5.86666667 0.199373684 5.86666667"></polygon>
    </defs>
    <g id="Racer" stroke="none" stroke-width="1" fill="none" fill-rule="evenodd">
        <g id="Group-52" transform="translate(23.000000, 1.000000)">
            <path d="M73.0325212,93.5138462 C73.1246424,105.220769 63.7282788,114.790769 52.038097,114.883077 C40.3525212,114.977692 30.8018545,105.56 30.7097333,93.8507692 C30.6153091,82.1392308 40.0162788,72.5692308 51.6995515,72.4769231 C63.3897333,72.3823077 72.9404,81.8046154 73.0325212,93.5138462" id="Fill-260" fill="#303030"></path>
            <path d="M64.5716485,93.5814615 C64.6269212,100.608385 58.9868,106.349923 51.9694667,106.407615 C44.9521333,106.463 39.2221939,100.811462 39.1692242,93.7822308 C39.1116485,86.7460769 44.7517697,81.0045385 51.7668,80.9491538 C58.7841333,80.8937692 64.5163758,86.5453077 64.5716485,93.5814615" id="Fill-261" fill="#D6D8D6"></path>
            <path d="M54.4712485,93.6603846 C54.4827636,95.0957692 53.3289455,96.2796154 51.8895515,96.2911538 C50.4547636,96.305 49.2802182,95.1396154 49.268703,93.7042308 C49.2571879,92.2619231 50.4133091,91.0873077 51.848097,91.0757692 C53.2874909,91.0619231 54.4597333,92.2180769 54.4712485,93.6603846" id="Fill-262" fill="#303030"></path>
            <path d="M52.5392364,89.7954615 C52.5415394,90.1831538 52.2260242,90.4923846 51.8437212,90.497 C51.4568121,90.4993077 51.141297,90.1946923 51.1389939,89.807 C51.1343879,89.4193077 51.445297,89.0985385 51.8322061,89.0962308 C52.2145091,89.0916154 52.5346303,89.4077692 52.5392364,89.7954615" id="Fill-263" fill="#9B9A9A"></path>
            <path d="M52.6000364,97.5883077 C52.6046424,97.9736923 52.2891273,98.2898462 51.9068242,98.2921538 C51.5199152,98.2967692 51.202097,97.9852308 51.1997939,97.5998462 C51.1974909,97.2121538 51.5084,96.8913846 51.8953091,96.8867692 C52.2776121,96.8844615 52.5977333,97.2006154 52.6000364,97.5883077" id="Fill-264" fill="#9B9A9A"></path>
            <path d="M48.6798182,93.7187692 C48.6844242,94.1064615 48.3712121,94.4249231 47.984303,94.4272308 C47.599697,94.4318462 47.2841818,94.118 47.2795758,93.7303077 C47.2772727,93.3472308 47.5881818,93.0310769 47.9727879,93.0264615 C48.359697,93.0241538 48.6775152,93.3356923 48.6798182,93.7187692" id="Fill-265" fill="#9B9A9A"></path>
            <path d="M49.1701333,91.7943846 C49.1724364,92.1820769 48.8592242,92.4982308 48.4723152,92.5005385 C48.0854061,92.5051538 47.774497,92.1936154 47.7721939,91.8059231 C47.7675879,91.4182308 48.0738909,91.0974615 48.4608,91.0928462 C48.8477091,91.0905385 49.1655273,91.4066923 49.1701333,91.7943846" id="Fill-266" fill="#9B9A9A"></path>
            <path d="M50.5736,90.3654615 C50.575903,90.7531538 50.2626909,91.0693077 49.8757818,91.0716154 C49.4934788,91.0762308 49.1779636,90.7646923 49.1756606,90.377 C49.1710545,89.9893077 49.4819636,89.6685385 49.8642667,89.6639231 C50.2511758,89.6616154 50.5689939,89.9777692 50.5736,90.3654615" id="Fill-267" fill="#9B9A9A"></path>
            <path d="M56.4592242,93.6557692 C56.4638303,94.0434615 56.1506182,94.3619231 55.7637091,94.3665385 C55.3768,94.3688462 55.0658909,94.055 55.0612848,93.6673077 C55.0589818,93.2842308 55.3652848,92.9680769 55.7521939,92.9657692 C56.139103,92.9611538 56.4569212,93.2726923 56.4592242,93.6557692" id="Fill-268" fill="#9B9A9A"></path>
            <path d="M54.538497,91.7514615 C54.543103,92.1391538 54.8586182,92.4506923 55.2455273,92.4483846 C55.6301333,92.4437692 55.9387394,92.1276154 55.9364364,91.7399231 C55.9318303,91.3522308 55.6186182,91.0360769 55.2340121,91.0406923 C54.847103,91.043 54.5361939,91.3637692 54.538497,91.7514615" id="Fill-269" fill="#9B9A9A"></path>
            <path d="M53.1126909,90.3451538 C53.117297,90.7328462 53.4328121,91.0443846 53.8197212,91.0420769 C54.2066303,91.0374615 54.5129333,90.7213077 54.5106303,90.3336154 C54.5060242,89.9459231 54.1951152,89.6297692 53.8082061,89.6343846 C53.421297,89.6366923 53.1103879,89.9574615 53.1126909,90.3451538" id="Fill-270" fill="#9B9A9A"></path>
            <path d="M49.1993818,95.6413077 C49.1970788,95.2536154 48.8792606,94.9397692 48.4923515,94.9420769 C48.1054424,94.9466923 47.7991394,95.2651538 47.8014424,95.6528462 C47.8060485,96.0405385 48.1169576,96.3474615 48.5038667,96.3428462 C48.8907758,96.3405385 49.2039879,96.029 49.1993818,95.6413077" id="Fill-271" fill="#9B9A9A"></path>
            <path d="M50.6251879,97.043 C50.6228848,96.6622308 50.3050667,96.3460769 49.9181576,96.3483846 C49.5358545,96.353 49.2249455,96.6737692 49.2272485,97.0545385 C49.2318545,97.4422308 49.5473697,97.7560769 49.9296727,97.7514615 C50.3165818,97.7491538 50.6297939,97.4306923 50.6251879,97.043" id="Fill-272" fill="#9B9A9A"></path>
            <path d="M54.5700485,95.5983846 C54.5677455,95.2106923 54.8786545,94.8922308 55.2655636,94.8876154 C55.6501697,94.8853077 55.9633818,95.1991538 55.9656848,95.5868462 C55.9679879,95.9745385 55.6593818,96.2860769 55.2770788,96.2883846 C54.8901697,96.293 54.5746545,95.9860769 54.5700485,95.5983846" id="Fill-273" fill="#9B9A9A"></path>
            <path d="M53.1665818,97.0226923 C53.1642788,96.6419231 53.4751879,96.3211538 53.862097,96.3165385 C54.2490061,96.3142308 54.5599152,96.6303846 54.5622182,97.0111538 C54.5645212,97.3988462 54.2605212,97.7173077 53.8736121,97.7196154 C53.486703,97.7242308 53.1711879,97.4103846 53.1665818,97.0226923" id="Fill-274" fill="#9B9A9A"></path>
            <path d="M51.6440485,57.6386923 C55.3565333,62.3140769 56.8788364,76.4579231 56.8788364,76.4579231 C56.8788364,76.4579231 56.8742303,76.4371538 56.8719273,76.3933077 C57.3509576,77.0740769 57.6918061,77.9671538 57.8046545,78.9594615 C58.0741091,81.3225385 56.9617455,83.3902308 55.3150788,83.5794615 C54.2441697,83.7040769 53.2124121,82.991 52.5468364,81.8256154 C51.9434424,82.3356154 51.3423515,82.5386923 50.9070788,82.3125385 C50.0987152,81.8948462 50.1793212,80.1248462 51.0936242,78.371 C51.4390788,77.7017692 51.8582303,77.1271538 52.2842909,76.7025385 C52.3211394,76.6286923 52.3579879,76.5617692 52.3925333,76.4879231 C52.3925333,76.4879231 50.7205333,66.2763846 48.9955636,63.8717692 C48.1273212,62.6717692 47.5699879,61.9979231 47.3742303,61.4602308 C47.2130182,61.031 47.0356848,60.2025385 46.9619879,59.8979231 C46.3931394,57.4725385 43.3531394,52.0217692 43.3531394,52.0217692 C43.3531394,52.0217692 49.8407758,55.3563846 51.6440485,57.6386923" id="Fill-275" fill="#005784"></path>
            <path d="M1.88155152,42.2713077 C3.0814303,41.7497692 4.53003636,42.209 5.70918788,43.3259231 C6.23197576,42.5205385 6.85379394,42.0728462 7.43646061,42.1836154 C8.52809697,42.3797692 9.04858182,44.4613077 8.61100606,46.8174615 C8.44749091,47.7151538 8.16421818,48.5297692 7.81415758,49.1759231 C7.76809697,49.4736154 7.70361212,49.7528462 7.60918788,50.0113077 L13.1733091,56.459 L24.8358545,52.169 C24.8358545,52.169 22.8713697,55.3397692 22.3946424,56.5005385 C22.0399758,57.3474615 21.372097,60.0128462 21.372097,60.0128462 C21.372097,60.0128462 12.8577939,63.5597692 10.4257939,62.7013077 C7.42033939,61.6305385 3.90361212,51.8805385 3.90361212,51.8805385 L3.91052121,51.8782308 C2.61161212,51.4282308 1.35415758,50.2051538 0.621793939,48.5113077 C-0.522812121,45.8597692 0.041430303,43.0674615 1.88155152,42.2713077" id="Fill-276" fill="#005784"></path>
            <path d="M51.9634788,76.0213077 L56.9449333,75.9843846 C56.9449333,75.9843846 55.2291758,61.8428462 51.5143879,57.1651538 C49.8723273,55.0974615 45.1465091,52.4805385 44.2920848,52.0166923 C42.177903,50.6713077 35.8606909,50.519 35.8606909,50.519 L34.1011758,50.5859231 L33.9514788,50.5859231 L32.1896606,50.549 C32.1896606,50.549 25.8540242,50.819 23.7766909,52.2059231 L13.2080848,56.4428462 L7.59790303,50.0182308 L2.83293333,52.4182308 C2.83293333,52.4182308 7.32614545,61.679 10.3269939,62.7428462 C12.6576606,63.569 19.6036,60.7536154 20.1885697,60.4836154 C18.9034788,70.7782308 21.7845697,85.6005385 21.7845697,85.6005385 L46.7033576,85.4020769 C46.7033576,85.4020769 48.9303879,73.1136154 48.6125697,63.5043846 C48.6908727,63.6197692 48.7783879,63.7397692 48.865903,63.8620769 C50.5885697,66.2713077 51.9634788,76.0213077 51.9634788,76.0213077" id="Fill-277" fill="#F08314"></path>
            <path d="M52.3593697,76.0166923 L54.5242182,76.0051538 C53.7550061,64.7297692 51.924097,57.569 46.9426424,55.8197692 C44.9735515,55.1205385 28.6404606,54.5666923 22.7792485,56.039 C20.0064,56.7382308 13.7421576,59.279 11.7707636,59.1405385 C10.3359758,59.0459231 7.31209697,53.7913077 5.7713697,50.939 L3.32555152,52.1713077 C4.02106667,53.5582308 7.97997576,61.3120769 10.7205818,62.2836154 C13.0489455,63.1074615 19.9879758,60.2920769 20.5729455,60.0151538 C19.5757333,68.0574615 21.1095515,78.8551538 21.832703,83.2051538 L47.0670061,83.1797692 C47.6865212,79.2036154 48.8495515,70.619 48.6123394,63.5043846 C48.6906424,63.6197692 48.7781576,63.7397692 48.8656727,63.8620769 C48.9186424,63.9405385 48.9785212,64.019 49.0268848,64.1136154 C49.0245818,63.7559231 49.0107636,63.3936154 49.0015515,63.0428462 C49.0775515,63.1559231 49.1673697,63.2782308 49.2548848,63.4005385 C50.9752485,65.8074615 52.3593697,76.0166923 52.3593697,76.0166923" id="Fill-278" fill="#FFFFFF"></path>
            <path d="M51.9634788,76.0213077 L54.1352364,76.0074615 C53.3614182,64.7343846 51.5305091,58.0328462 46.5559636,56.279 C44.5868727,55.5866923 28.2514788,55.0236154 22.3948727,56.5005385 C19.6197212,57.2020769 13.3577818,59.7428462 11.3840848,59.6043846 C9.91014545,59.5051538 6.77111515,53.9897692 5.26723636,51.1951538 L2.83293333,52.4182308 C2.83293333,52.4182308 7.32614545,61.679 10.3269939,62.7428462 C12.6576606,63.569 19.6036,60.7536154 20.1885697,60.4836154 C19.1844485,68.5213077 20.7205697,79.3213077 21.4368121,83.6666923 L46.9981455,83.6459231 C47.5946303,79.9097692 48.8589939,70.9097692 48.6125697,63.5043846 C48.6908727,63.6197692 48.7783879,63.7397692 48.865903,63.8620769 C50.5885697,66.2713077 51.9634788,76.0213077 51.9634788,76.0213077" id="Fill-279" fill="#0771B7"></path>
            <path d="M4.93790303,56.3203077 L10.5388727,53.3849231 L7.59790303,50.0203077 L2.83293333,52.4203077 C2.83293333,52.4203077 3.70808485,54.218 4.93790303,56.3203077" id="Fill-280" fill="#565657"></path>
            <path d="M51.9634788,76.0213077 L56.9449333,75.9843846 C56.9449333,75.9843846 56.6985091,73.919 56.1780242,71.1059231 L51.2725697,71.9205385 C51.7055394,74.189 51.9634788,76.0213077 51.9634788,76.0213077" id="Fill-281" fill="#565657"></path>
            <path d="M32.4010788,64.271 L22.4381697,64.3494615 C22.4381697,64.3494615 21.7772,61.3794615 22.4105333,60.7379231 C24.1562303,58.9540769 32.3711394,60.6594615 32.3711394,60.6594615 L32.4010788,64.271 Z" id="Fill-282" fill="#E63744"></path>
            <path d="M46.8737818,69.1501538 L36.7105091,69.2309231 L36.6920848,66.9993846 C36.6920848,66.9993846 45.0428727,65.1278462 46.8553576,66.9186154 C47.2537818,67.3086154 46.8737818,69.1501538 46.8737818,69.1501538" id="Fill-283" fill="#2BAAE2"></path>
            <polygon id="Fill-284" fill="#F7B90B" points="46.8737818 69.1501538 36.7105091 69.2309231 36.705903 68.7693846 46.9520848 68.6886154"></polygon>
            <polygon id="Fill-285" fill="#F7B90B" points="32.7654182 68.3410769 22.2060242 68.4241538 22.1829939 65.8003077 32.7423879 65.7172308"></polygon>
            <path d="M33.7393697,67.0836154 C33.7485818,68.2813077 32.7905212,69.2620769 31.5906424,69.2713077 C30.4022788,69.2805385 29.4211879,68.3136154 29.4119758,67.1205385 C29.4027636,65.9205385 30.3654303,64.9420769 31.5584,64.9328462 C32.7536727,64.9236154 33.7301576,65.8836154 33.7393697,67.0836154" id="Fill-286" fill="#F08314"></path>
            <path d="M39.3101697,63.0135385 L39.1904121,62.6235385 C39.1558667,62.5127692 39.1259273,62.3743077 39.0913818,62.2658462 L39.0867758,62.2658462 C39.0591394,62.3743077 39.0338061,62.5127692 39.0061697,62.6258462 L38.8979273,63.0181538 L39.3101697,63.0135385 Z M38.8426545,63.3343077 L38.7113818,63.8143077 L38.2761091,63.8166154 L38.8311394,61.952 L39.3792606,61.9473846 L39.9711394,63.8027692 L39.5174424,63.8073846 L39.3723515,63.3296923 L38.8426545,63.3343077 Z" id="Fill-287" fill="#F08314"></path>
            <path d="M40.6328,63.4979231 C40.6788606,63.5071538 40.7249212,63.5048462 40.7963152,63.5048462 C40.9851636,63.5048462 41.1509818,63.431 41.1509818,63.2325385 C41.1486788,63.0433077 40.9805576,62.9740769 40.7755879,62.9740769 L40.6281939,62.9763846 L40.6328,63.4979231 Z M40.6258909,62.6740769 L40.7617697,62.6717692 C40.9828606,62.6717692 41.0980121,62.5771538 41.0980121,62.4386923 C41.0957091,62.3025385 40.9897697,62.2240769 40.7963152,62.2263846 C40.7088,62.2263846 40.6581333,62.2379231 40.6212848,62.2425385 L40.6258909,62.6740769 Z M40.2021333,61.9656154 C40.3103758,61.9402308 40.5360727,61.9194615 40.7479515,61.9171538 C41.0012848,61.9148462 41.1601939,61.9425385 41.2960727,62.0186923 C41.4273455,62.0902308 41.5194667,62.2171538 41.5217697,62.3902308 C41.5217697,62.5517692 41.4273455,62.7063846 41.2200727,62.7871538 L41.2200727,62.7917692 C41.4319515,62.8471538 41.5908606,63.0040769 41.5931636,63.2463846 C41.5931636,63.4148462 41.5171636,63.551 41.4020121,63.641 C41.2638303,63.7517692 41.0427394,63.8094615 40.6742545,63.8140769 C40.4692848,63.8140769 40.3080727,63.8071538 40.2182545,63.791 L40.2021333,61.9656154 Z" id="Fill-288" fill="#F08314"></path>
            <path d="M43.2416727,63.7233846 C43.1702788,63.7626154 42.9952485,63.8018462 42.7718545,63.8041538 C42.1316121,63.8087692 41.7907636,63.4164615 41.7861576,62.8903077 C41.7815515,62.2510769 42.2352485,61.8956923 42.7948848,61.8910769 C43.0136727,61.8887692 43.1794909,61.9326154 43.2531879,61.9695385 L43.1702788,62.3064615 C43.0850667,62.2695385 42.9699152,62.2326154 42.8133091,62.2349231 C42.4862788,62.2372308 42.2283394,62.4449231 42.2306424,62.858 C42.2352485,63.2272308 42.4563394,63.4649231 42.8294303,63.4626154 C42.956097,63.4626154 43.0965818,63.4326154 43.1794909,63.3956923 L43.2416727,63.7233846 Z" id="Fill-289" fill="#F08314"></path>
            <polygon id="Fill-290" fill="#F08314" points="44.5168606 64.4355385 43.4229212 62.6032308 44.4869212 60.7570769 46.6356485 60.7409231 47.7272848 62.5686154 46.6655879 64.4170769"></polygon>
            <polygon id="Fill-291" fill="#C12636" points="17.2874424 59.4031538 19.3578667 58.4177692 17.5937455 54.6793077 15.4611394 55.5377692"></polygon>
            <path d="M52.5728606,58.8375385 C52.2412242,58.2052308 51.8865576,57.6375385 51.5134667,57.1644615 C51.4535879,57.086 51.3821939,57.0052308 51.308497,56.9221538 L48.0543152,58.886 L49.2426788,60.8567692 L52.5728606,58.8375385 Z" id="Fill-292" fill="#C12636"></path>
            <path d="M44.7372606,111.704923 C46.5589576,112.810308 47.8832,115.157231 46.3516848,117.028769 C45.1932606,118.348769 43.4682909,117.361077 42.1555636,116.825692 C40.7046545,116.144923 39.0510788,115.694923 37.7360485,114.808769 C36.8885333,114.227231 35.8867152,113.523385 35.3086545,112.641846 C35.1313212,112.371846 35.0461091,112.044154 35.1082909,111.781077 L44.7372606,111.704923 Z" id="Fill-293" fill="#565657"></path>
            <path d="M24.1652121,111.869462 C22.3665455,113.000231 21.0699394,115.372538 22.633697,117.216385 C23.8128485,118.520231 25.524,117.502538 26.8275152,116.946385 C28.2692121,116.244846 29.9112727,115.764846 31.2147879,114.860231 C32.0553939,114.264846 33.0410909,113.547154 33.6076364,112.656385 C33.7803636,112.384077 33.8586667,112.054077 33.7964848,111.793308 L24.1652121,111.869462 Z" id="Fill-294" fill="#565657"></path>
            <polygon id="Fill-295" fill="#0771B7" points="46.702897 85.403 44.9433818 111.766077 34.9781697 111.844538 34.4438667 92.7945385 34.1559879 92.7968462 33.9279879 111.853769 23.9581697 111.932231 21.7841091 85.6014615"></polygon>
            <path d="M23.6861818,108.773 C23.6861818,108.773 28.0941818,107.734538 28.3452121,106.606077 C29.1812121,102.803 26.7722424,85.5437692 26.7722424,85.5437692 L22.3043636,85.5783846 L23.6861818,108.773 Z" id="Fill-296" fill="#FFFFFF"></path>
            <path d="M40.4460242,106.517 C40.653297,107.659308 45.1649333,108.607769 45.1649333,108.607769 L46.1759636,85.3877692 L41.6850545,85.4223846 C41.6850545,85.4223846 39.5040848,101.267 40.4460242,106.517" id="Fill-297" fill="#FFFFFF"></path>
            <path d="M23.6861818,108.640077 C23.6861818,108.640077 27.5713939,107.737769 27.8201212,106.609308 C28.6538182,102.808538 26.2425455,85.547 26.2425455,85.547 L21.7838788,85.5839231 L23.6861818,108.640077 Z" id="Fill-298" fill="#F08314"></path>
            <path d="M40.9722667,106.512615 C41.1749333,107.654923 45.1614788,108.478769 45.1614788,108.478769 L46.7022061,85.3856923 L42.2089939,85.4203077 C42.2089939,85.4203077 40.0257212,101.262615 40.9722667,106.512615" id="Fill-299" fill="#F08314"></path>
            <path d="M21.7788121,85.5834615 L46.7022061,85.385 C46.7206303,85.2534615 46.9877818,83.8042308 47.3194182,81.4965385 L21.1339636,81.7042308 C21.4771152,84.005 21.7603879,85.4519231 21.7788121,85.5834615" id="Fill-300" fill="#565657"></path>
            <path d="M56.5313091,29.7029231 C56.6925212,28.5790769 56.7708242,27.4298462 56.7616121,26.2575385 C56.6625818,13.5952308 46.338097,3.41830769 33.7059758,3.51753846 C21.0692485,3.61907692 10.9082788,13.9598462 11.0096121,26.6221538 C11.0188242,27.7413846 11.1063394,28.8329231 11.2675515,29.9036923 C9.95252121,30.6421538 11.074097,37.7798462 13.4899758,37.7590769 C13.6511879,37.7590769 13.814703,37.7475385 13.9736121,37.7313846 C17.9348242,44.7375385 25.4680364,49.4290769 34.0698545,49.3621538 C42.6601576,49.2906154 50.1081576,44.486 53.9657333,37.4336923 C54.0302182,37.4383077 54.1016121,37.4383077 54.170703,37.4383077 C56.5819758,37.4175385 57.7081576,30.4506154 56.5313091,29.7029231" id="Fill-301" fill="#FDDFBB"></path>
            <g id="Page-1" transform="translate(21.000000, 24.000000)">
                <path d="M8.31106854,1.65026755 C8.31106854,1.65026755 7.80801591,3.45328977 6.22875275,3.09640088 C5.45712117,2.92235643 5.3211738,1.89471199 2.8433317,2.35573421 C2.06412117,2.53613421 0.42612117,3.51195643 0.110647486,4.16364532 C-0.205299883,4.8158231 0.0234895909,1.77248977 2.56764749,0.641689768 C4.4031738,-0.0329768984 5.02512117,0.000267546019 6.54470012,0.000267546019 C8.06427906,0.000267546019 8.53227906,0.907156435 8.31106854,1.65026755" id="Fill-1" fill="#F6B90C"></path>
                <path d="M18.05184,1.65026755 C18.05184,1.65026755 18.5548926,3.45328977 20.1341558,3.09640088 C20.9057873,2.92235643 21.0417347,1.89471199 23.5195768,2.35573421 C24.2987873,2.53613421 25.9367873,3.51195643 26.252261,4.16364532 C26.5682084,4.8158231 26.3394189,1.77248977 23.795261,0.641689768 C21.9597347,-0.0329768984 21.3377873,0.000267546019 19.8182084,0.000267546019 C18.2986294,0.000267546019 17.8306294,0.907156435 18.05184,1.65026755" id="Fill-3" fill="#F6B90C"></path>
                <path d="M6,9 C6,10.6568785 5.10453816,12 3.99983098,12 C2.89512381,12 2,10.6568785 2,9 C2,7.34312148 2.89512381,6 3.99983098,6 C5.10453816,6 6,7.34312148 6,9" id="Fill-5" fill="#6172BB"></path>
                <path d="M24,9 C24,10.6568785 23.1048762,12 22.000169,12 C20.8951238,12 20,10.6568785 20,9 C20,7.34312148 20.8951238,6 22.000169,6 C23.1048762,6 24,7.34312148 24,9" id="Fill-7" fill="#6172BB"></path>
                <path d="M13.0197368,12.0692 C13.8586316,11.9552889 15.9802632,13.8262667 15.9802632,13.8262667 C15.9802632,13.8262667 16.0825789,13.4116889 15.6396842,12.5884 C15.1626842,11.7025333 12.9903684,11 12.9903684,11 C12.9903684,11 11.3026316,11.4478222 10.5030526,12.6040444 C10.207,12.8939556 10,13.9025333 10,13.9025333 C10,13.9025333 11.8947368,12.2217333 13.0197368,12.0692 Z" id="Fill-9" fill="#EEAC6C"></path>
                <g id="Group-13" transform="translate(6.000000, 15.000000)">
                    <mask id="mask-2" fill="white">
                        <use xlink:href="#path-1"></use>
                    </mask>
                    <g id="Clip-12"></g>
                    <path d="M0.199373684,0.696031111 C0.199373684,0.696031111 7.09763684,3.90412 13.3734789,0.299053333 C13.3734789,0.299053333 11.9822684,5.76825333 7.42305789,5.86016444 C3.30768947,5.98238667 2.43942632,4.36807556 1.94632105,3.90412 C1.45274211,3.44114222 0.524794737,2.13238667 0.199373684,0.696031111" id="Fill-11" fill="#EEAC6C" mask="url(#mask-2)"></path>
                </g>
            </g>
            <path d="M34.0249455,47.2584615 C41.6756121,47.1984615 41.6157405,39.59 41.6157405,39.59 C41.6157405,39.59 33.9673697,42.08 26.316703,39.71 C26.316703,39.71 26.3765818,47.3184615 34.0249455,47.2584615" id="Fill-302" fill="#EEAC6C"></path>
            <path d="M33.939503,37.0203846 C32.9906545,37.0273077 31.8736848,36.785 30.7452,35.9842308 L31.0077455,35.6126923 C34.0408364,37.7542308 37.0002303,35.5873077 37.0301697,35.5642308 L37.3019273,35.9311538 C37.2696848,35.9588462 36.4820485,36.5403846 35.2775636,36.8473077 C34.8929576,36.9419231 34.4415636,37.0157692 33.939503,37.0203846" id="Fill-303" fill="#EEAC6C"></path>
            <path d="M57.6489697,23.2621538 C57.6213333,22.0621538 57.52,20.6083077 57.3380606,19.0506154 C54.1852121,8.99138462 44.7635152,1.72676923 33.6974545,1.81446154 C24.0546667,1.89292308 15.7591515,7.52138462 11.7933333,15.6490769 C10.7086061,18.8406154 10.0476364,21.9744615 10.0015758,23.3936923 C9.84727273,28.2929231 13.4722424,35.6036923 13.4722424,35.6036923 C12.9793939,27.5406154 13.0738182,27.5567692 14.9968485,26.1421538 C17.3966061,24.3813846 22.4609697,21.1021538 24.4047273,18.8544615 C24.7755152,18.4183077 25.5378182,16.8813846 25.5378182,16.8813846 C25.5378182,16.8813846 25.4710303,18.086 26.1481212,18.6098462 C30.2198788,21.7806154 42.1380606,18.1229231 46.6842424,20.5621538 C50.4036364,22.5490769 55.0050909,35.2736923 55.0050909,35.2736923 C56.8106667,31.7867692 57.6996364,25.9529231 57.6489697,23.2621538" id="Fill-310" fill="#333433"></path>
            <path d="M37.3355515,52.8924615 C37.4599152,52.8255385 37.5727636,52.7493846 37.6717939,52.6709231 L37.8007636,52.5786154 L37.7892485,52.5555385 C37.830703,52.5209231 37.8675515,52.4747692 37.9044,52.4378462 C38.4294909,51.7663077 37.8767636,49.0178462 37.8767636,49.0178462 C36.6423394,49.2370769 35.3779758,49.3501538 34.0928848,49.3616923 C32.814703,49.3709231 31.5549455,49.2786154 30.3320364,49.0847692 C30.3320364,49.0847692 29.7493697,51.8955385 30.3596727,52.4978462 C30.5899758,52.7286154 30.9331273,52.9201538 31.3384606,53.0655385 L37.3355515,52.8924615 Z" id="Fill-311" fill="#565657"></path>
            <path d="M43.7702182,37.559 L33.9685212,33.809 L23.3768848,37.7205385 C23.3768848,37.7205385 18.2157939,36.3336154 17.4212485,34.8843846 C16.0394303,32.3759231 18.7708242,23.5051538 18.7708242,23.5051538 L49.2606424,23.2628462 C49.2606424,23.2628462 51.7847636,32.1566923 50.3522788,34.6236154 C49.4448848,36.179 43.7702182,37.559 43.7702182,37.559 M33.5332485,0.174384615 C19.7058545,0.285153846 8.59833939,12.9959231 8.7204,28.5613077 C8.84476364,44.1313077 28.4228242,56.5974615 33.9800364,56.5513077 C39.1802788,56.5120769 58.9172485,43.7320769 58.7928848,28.1620769 C58.6708242,12.599 47.3652485,0.0636153846 33.5332485,0.174384615" id="Fill-312" fill="#005784"></path>
            <path d="M53.72,23.2261538 L49.2843636,23.2630769 C49.2843636,23.2630769 51.7854545,32.1638462 50.3529697,34.6215385 C49.4409697,36.1792308 43.7709091,37.5592308 43.7709091,37.5592308 C43.7709091,37.5592308 36.5923636,33.8253846 33.9692121,33.8092308 C31.148,33.7884615 23.3752727,37.7207692 23.3752727,37.7207692 C23.3752727,37.7207692 18.2187879,36.3338462 17.4196364,34.8846154 C16.0355152,32.3807692 18.7346667,23.5053846 18.7346667,23.5053846 L14.1124848,23.5423077 C14.1124848,23.5423077 11.9591515,34.2638462 14.2161212,36.4861538 C21.270303,43.4461538 47.6446061,43.9376923 53.8075152,36.17 C55.7812121,33.6892308 53.72,23.2261538 53.72,23.2261538" id="Fill-313" fill="#02405A"></path>
            <path d="M32.0526303,53.0413077 C30.7468121,53.0528462 29.1738424,52.4736154 27.3682667,51.3174615 C25.8321455,50.3274615 24.127903,48.9220769 22.299297,47.1266923 C19.1809939,44.0713077 16.7536,40.9328462 16.7282667,40.9005385 L16.8342061,40.8197692 C16.8549333,40.8543846 19.2777212,43.9928462 22.3868121,47.0320769 C26.4931152,51.0520769 29.9246303,53.0805385 32.3220848,52.8982308 L32.331297,53.0297692 C32.2391758,53.039 32.1493576,53.0413077 32.0526303,53.0413077" id="Fill-314" fill="#F08314"></path>
            <path d="M36.321297,53.0073846 C37.6248121,52.9958462 39.1885697,52.3935385 40.9711152,51.2073846 C42.4957212,50.1943077 44.1815394,48.7612308 45.9825091,46.9381538 C49.0478424,43.8343077 51.4245697,40.6543077 51.4476,40.6243077 L51.3439636,40.5458462 C51.3232364,40.5781538 48.9465091,43.7558462 45.8857818,46.8458462 C41.8439636,50.9281538 38.4516,53.0096923 36.0495394,52.8689231 L36.0380242,53.0004615 C36.1324485,53.0096923 36.2268727,53.0073846 36.321297,53.0073846" id="Fill-315" fill="#F08314"></path>
            <path d="M52.6988364,9.69984615 C44.5161697,-0.278615385 23.3075636,0.801384615 14.2681697,10.0067692 C11.5160485,12.8036923 6.97907879,27.986 10.3230788,25.9321538 C21.7484121,18.9098462 43.0905939,18.4990769 56.9525333,25.316 C60.4669576,27.0467692 55.1838061,12.7344615 52.6988364,9.69984615" id="Fill-316" fill="#67B1D2"></path>
            <path d="M12.4902303,21.2136154 C13.9503515,6.809 23.7152,5.53746154 33.8807758,5.5397661 C24.3185939,7.12746154 17.4302303,10.6674615 12.4902303,21.2136154" id="Fill-317" fill="#EEEEED"></path>
            <path d="M11.1454909,27.0278462 C11.154703,28.1793846 10.6618545,29.1163077 10.0446424,29.1209231 C9.4274303,29.1278462 8.92076364,28.1955385 8.90924848,27.044 C8.90003636,25.8901538 9.39288485,24.9555385 10.0124,24.9509231 C10.6273091,24.944 11.1362788,25.874 11.1454909,27.0278462" id="Fill-318" fill="#F08314"></path>
            <path d="M58.5598182,26.6493846 C58.5690303,27.8009231 58.0738788,28.7401538 57.4566667,28.7447692 C56.8394545,28.7493846 56.3304848,27.8193846 56.3212727,26.6678462 C56.3120606,25.514 56.8049091,24.5770769 57.4221212,24.5724615 C58.0416364,24.5678462 58.5506061,25.4955385 58.5598182,26.6493846" id="Fill-319" fill="#F08314"></path>
        </g>
    </g>
</svg>