<?xml version="1.0" encoding="UTF-8"?>
<svg width="120px" height="120px" viewBox="0 0 120 120" version="1.1" xmlns="http://www.w3.org/2000/svg" xmlns:xlink="http://www.w3.org/1999/xlink">
    <!-- Generator: Sketch 51.1 (57501) - http://www.bohemiancoding.com/sketch -->
    <title>Bug6</title>
    <desc>Created with Sketch.</desc>
    <defs>
        <polygon id="path-1" points="0.129434583 0.00716754338 37.1313826 0.00716754338 37.1313826 36.4493999 0.129434583 36.4493999"></polygon>
        <polygon id="path-3" points="0.0222748102 0.0890742049 9.47640073 0.0890742049 9.47640073 10.4119795 0.0222748102 10.4119795"></polygon>
        <polygon id="path-5" points="0 0.155695921 7.36289159 0.155695921 7.36289159 7.04057642 0 7.04057642"></polygon>
        <polygon id="path-7" points="0.0186201342 0.00233921288 5.59601777 0.00233921288 5.59601777 8.28975265 0.0186201342 8.28975265"></polygon>
    </defs>
    <g id="Bug6" stroke="none" stroke-width="1" fill="none" fill-rule="evenodd">
        <g id="Group" transform="translate(0.000000, 37.000000)">
            <path d="M2.7069906,30.8830021 C4.75891007,45.6207194 31.9786148,40.3399845 28.7487624,24.4051293 C27.054749,16.0480834 15.2522255,11.5673908 7.99568859,15.7600551 C3.79520537,18.1873272 2.08476242,26.4136876 2.7069906,30.8830021" id="Fill-1" fill="#81BA33"></path>
            <path d="M22.2920215,32.2144664 C25.8641557,35.8476537 35.8085315,38.2817527 40.6177128,36.5914558 C44.9876456,35.055576 47.7447463,29.5186714 48.5525315,25.2949611 C49.5341154,20.162629 46.8812295,14.8237032 42.8213638,11.7838021 C39.8580886,9.5650742 32.5248805,8.7705583 28.9922094,9.81327915 C26.831404,10.4509399 24.8281289,11.5996396 23.1998336,13.1906219 C18.4541154,17.8281696 17.4221154,27.261258 22.2920215,32.2144664" id="Fill-3" fill="#AFD185"></path>
            <path d="M71.0246336,27.3718693 C68.0470228,44.5313322 41.5281503,42.3616926 42.4734926,24.5021519 C42.9188617,16.0859399 48.982647,9.83985512 57.5804456,12.2214523 C64.493251,14.1363852 72.4388617,19.221742 71.0246336,27.3718693" id="Fill-5" fill="#81BA33"></path>
            <path d="M73.9049235,7.00940848 C86.0300779,5.3096841 95.4709369,22.9987159 88.0591248,32.6478254 C79.4072054,43.9116488 59.6774336,35.8592106 60.716843,21.749564 C61.2292188,14.7938113 66.8948295,7.99198799 73.9049235,7.00940848" id="Fill-7" fill="#AFD185"></path>
            <g id="Group-11" transform="translate(82.791946, 3.974530)">
                <mask id="mask-2" fill="white">
                    <use xlink:href="#path-1"></use>
                </mask>
                <g id="Clip-10"></g>
                <path d="M35.4872537,12.5849823 C39.3026094,19.4700283 36.0012403,27.5689541 30.4657772,32.3644947 C24.4797906,37.5503039 13.9175356,37.6621343 7.33638121,33.4738587 C1.70975034,29.8928481 -0.496316779,22.4546643 0.28005906,16.0011731 C1.13697181,8.87734982 6.46368322,3.13368905 13.2212134,0.802318021 C22.7279517,-2.47749823 31.2651866,4.96572438 35.4872537,12.5849823" id="Fill-9" fill="#81BA33" mask="url(#mask-2)"></path>
            </g>
            <g id="Group-14" transform="translate(86.496644, 0.073470)">
                <mask id="mask-4" fill="white">
                    <use xlink:href="#path-3"></use>
                </mask>
                <g id="Clip-13"></g>
                <path d="M9.19430336,6.3502106 C8.45835705,4.90974417 7.7170953,3.60613993 6.70410201,2.34040848 C5.40423624,0.715942049 2.80241074,-0.94314629 0.93218255,0.896528622 C-0.808381208,2.60860636 0.246491275,5.26327774 1.61110872,6.79038021 C2.77212886,8.08959576 4.14318926,8.96180777 5.5503302,9.95397739 C7.84128322,11.5691788 10.3252027,8.5637371 9.19430336,6.3502106" id="Fill-12" fill="#1E8035" mask="url(#mask-4)"></path>
            </g>
            <path d="M113.255001,10.9920657 C115.052585,9.15401625 118.602169,7.34815053 118.630357,4.46315406 C118.638572,3.60995972 118.055485,2.93198799 117.27927,2.67630601 C113.919109,1.56954276 111.263323,5.91564876 109.957981,8.37087845 C108.847055,10.4607088 111.519753,12.7663979 113.255001,10.9920657" id="Fill-15" fill="#1E8035"></path>
            <g id="Group-19" transform="translate(0.000000, 14.539901)">
                <mask id="mask-6" fill="white">
                    <use xlink:href="#path-5"></use>
                </mask>
                <g id="Clip-18"></g>
                <path d="M0.00531543624,1.36420071 C0.148510067,2.61676608 0.528322148,3.5221371 1.36268456,4.47497102 C2.24279195,5.47998163 3.46904698,6.6891477 4.80402685,6.98302756 C6.62609396,7.38451166 7.90212081,5.6116424 7.13653691,3.95645512 C6.21277852,1.95943746 3.38383893,0.955727208 1.50056376,0.21355053 C0.830174497,-0.0507462898 -0.0779597315,0.635190106 0.00531543624,1.36420071" id="Fill-17" fill="#1E8035" mask="url(#mask-6)"></path>
            </g>
            <g id="Group-22" transform="translate(9.503356, 37.621173)">
                <mask id="mask-8" fill="white">
                    <use xlink:href="#path-7"></use>
                </mask>
                <g id="Clip-21"></g>
                <path d="M1.2126604,0.400768905 C0.111881879,1.38594912 0.0187812081,2.63883958 0.0186201342,4.03736961 C0.0184590604,5.8942742 0.951398658,8.29001272 3.11268725,8.28985018 C4.21104966,8.28968763 5.19859329,7.4192636 5.48401611,6.37166643 C5.73400268,5.45377951 5.51800268,4.56856396 5.29878121,3.67587138 C4.95714362,2.28498092 4.25051275,0.854592226 2.94758658,0.192874912 C2.34549262,-0.112870671 1.72278121,-0.0556551237 1.2126604,0.400768905" id="Fill-20" fill="#1E8035" mask="url(#mask-8)"></path>
            </g>
            <path d="M33.0792483,35.9245046 C33.0679732,36.0298332 33.056698,36.1353244 33.0454228,36.2408155 C33.1241879,35.9514869 33.2031141,35.6619958 33.2818792,35.3725046 C32.6842953,36.7286106 32.5928054,37.9133951 32.6021477,39.392547 C32.6114899,40.8899039 33.3504966,42.9415364 35.1627383,42.9412113 C36.9018523,42.9410488 37.5124832,40.7814869 37.3894228,39.3891336 C37.3185503,38.5876283 37.3017987,37.7766954 37.1081879,36.99307 C36.9041074,36.167183 36.4431141,35.7892678 36.0077315,35.142017 C35.0889664,33.7759958 33.2483758,34.3403491 33.0792483,35.9245046" id="Fill-23" fill="#1E8035"></path>
            <path d="M57.8285315,36.8271449 C56.2609611,37.2429329 55.6591893,38.6404876 55.5087463,40.1388198 C55.3578201,41.6417032 55.8336322,43.0512862 57.0882362,43.93 C58.3285047,44.798636 59.8930148,43.8862756 60.3266255,42.61453 C60.6540886,41.6543816 60.349498,40.704636 60.1703839,39.7518021 C60.2473772,40.1612509 60.2090416,39.2853004 60.2064644,39.1967138 C60.1908403,38.6500777 59.9775785,38.1260353 59.7486926,37.6387279 C59.4233235,36.9456396 58.527753,36.641682 57.8285315,36.8271449" id="Fill-25" fill="#1E8035"></path>
            <path d="M76.8236779,36.1618028 C76.1885638,36.9057675 75.6597584,37.4863753 75.346953,38.4500996 C74.9888859,39.5527993 74.9788993,41.0300007 75.6172349,42.0215201 C76.407302,43.2488912 78.4218523,43.5307428 79.1777718,42.0580926 C79.6104161,41.2153011 79.7131812,40.2917251 79.6492349,39.3504318 C79.5872215,38.4383965 79.2910067,37.6700502 79.1117315,36.7965378 C78.912,35.824036 77.4868188,35.3851668 76.8236779,36.1618028" id="Fill-27" fill="#1E8035"></path>
            <path d="M108.885391,21.6498106 C108.858169,20.3796905 109.767753,19.3304678 111.033793,19.1911675 C112.836854,18.9925385 113.14982,20.8847152 113.022733,22.2850332 C112.936558,23.2338035 114.403136,23.2273018 114.488666,22.284058 C114.692585,20.0363972 113.724854,17.7113654 111.196961,17.7029131 C109.084478,17.6959237 107.374679,19.5666445 107.419297,21.6507859 C107.439592,22.6019943 108.905847,22.6057329 108.885391,21.6498106" id="Fill-29" fill="#1D1D1B"></path>
            <path d="M90.0408644,21.2412396 C90.013643,19.9711194 90.9233879,18.9218968 92.1892671,18.7825965 C93.9923275,18.58413 94.305294,20.4763067 94.1782067,21.8764622 C94.0920322,22.8252325 95.5586094,22.8187307 95.6443007,21.8754869 C95.8482201,19.6279887 94.8803275,17.3027943 92.3524349,17.294342 C90.2399517,17.2873527 88.530153,19.158236 88.5747705,21.2422148 C88.5952268,22.1934233 90.0613208,22.1971618 90.0408644,21.2412396" id="Fill-31" fill="#1D1D1B"></path>
            <path d="M98.0470389,30.5531512 C100.626153,32.9279216 104.36677,32.611123 106.566395,29.8805435 C107.156569,29.1477943 106.137294,28.0834551 105.542126,28.8222184 C103.871952,30.8954693 101.12967,31.3923668 99.0957906,29.5196954 C98.3993074,28.8782961 97.3487839,29.9101265 98.0470389,30.5531512" id="Fill-33" fill="#1D1D1B"></path>
            <path d="M74.6688483,20.172788 C74.4621906,19.7030353 73.8768483,19.4260601 73.3937879,19.4244346 C73.3752644,19.4244346 73.3567409,19.4260601 73.3383785,19.4262226 C73.2166067,19.3460883 73.0816268,19.2831837 72.9353718,19.2425477 C72.5584591,19.1380318 72.1817074,19.0335159 71.8047946,18.929 C71.2292779,18.7692191 70.4224591,19.0078339 70.1568483,19.5978693 C69.6241772,20.7813534 69.1499758,22.2318975 69.6420564,23.5177845 C70.0914523,24.691841 71.0015195,25.4205265 72.2533852,25.5222792 C73.2787812,25.6056643 74.3138416,24.9489859 74.8109154,24.0714099 C75.5135195,22.8310353 75.2102174,21.4029223 74.6688483,20.172788" id="Fill-35" fill="#81BA33"></path>
            <path d="M34.0054872,21.1338466 C33.5451383,20.8024191 32.9549638,20.5659173 32.322749,20.4418961 C32.2394738,20.3619244 32.143796,20.2873166 32.0320107,20.220511 C31.0773262,19.6507936 29.914051,19.5867512 28.8992859,20.0142424 C27.548843,20.5833095 27.2642255,22.104723 27.6255141,23.3988996 C28.2152054,25.5119739 30.6796349,26.7716912 32.7771383,26.3398113 C35.2309369,25.834624 36.108306,22.647458 34.0054872,21.1338466" id="Fill-37" fill="#81BA33"></path>
            <path d="M54.2123114,23.6131979 C53.2223517,23.1696148 52.278298,22.9220601 51.2456537,23.3836855 C51.2039356,23.4023781 51.1657611,23.4252968 51.1261369,23.4464276 C50.2400698,23.5421661 49.1239893,23.7794806 48.719694,24.6705477 C48.2538685,25.6978269 48.639157,26.77647 49.6257342,27.3122155 C51.4917745,28.3253534 53.6752913,27.3617915 54.7214658,25.6412615 C55.1016,25.0161166 54.9369826,23.9377986 54.2123114,23.6131979" id="Fill-39" fill="#AFD185"></path>
            <path d="M12.3867544,23.4377965 C11.9798819,23.4925739 11.5762309,23.6430898 11.1872376,23.835542 C10.9556134,23.8617117 10.7307544,23.9135633 10.5276403,23.9961357 C9.40108993,24.453535 8.74584161,25.4240862 8.80302282,26.6729131 C8.83749262,27.4246799 9.07555973,28.2450403 9.6246604,28.7843618 C10.1900295,29.3397753 10.8858685,29.4595703 11.6374389,29.3469272 C12.6267544,29.1985244 13.4198819,28.290065 13.9870228,27.5352099 C14.5736537,26.7543477 14.9417074,25.7925739 14.7732242,24.8103194 C14.574298,23.6504042 13.3712376,23.305323 12.3867544,23.4377965" id="Fill-41" fill="#AFD185"></path>
        </g>
    </g>
</svg>