<?xml version="1.0" encoding="UTF-8"?>
<svg width="120px" height="120px" viewBox="0 0 120 120" version="1.1" xmlns="http://www.w3.org/2000/svg" xmlns:xlink="http://www.w3.org/1999/xlink">
    <!-- Generator: Sketch 51.1 (57501) - http://www.bohemiancoding.com/sketch -->
    <title>Car38</title>
    <desc>Created with Sketch.</desc>
    <defs>
        <polygon id="path-1" points="0.0545761124 0.242552332 112.763466 0.242552332 112.763466 5.9948114 0.0545761124 5.9948114"></polygon>
        <polygon id="path-3" points="0.275831382 0.202653886 21.7117096 0.202653886 21.7117096 21.5440415 0.275831382 21.5440415"></polygon>
        <polygon id="path-5" points="0.0585948478 0.202653886 21.4944731 0.202653886 21.4944731 21.5440415 0.0585948478 21.5440415"></polygon>
        <polygon id="path-7" points="0.18941452 0.0934507772 9.90632319 0.0934507772 9.90632319 10.9407358 0.18941452 10.9407358"></polygon>
        <polygon id="path-9" points="0 54 119.789227 54 119.789227 0.196134715 0 0.196134715"></polygon>
    </defs>
    <g id="Car38" stroke="none" stroke-width="1" fill="none" fill-rule="evenodd">
        <g id="Group-54" transform="translate(0.000000, 33.000000)">
            <polygon id="Fill-1" fill="#231F20" points="69.9765808 22.9430052 75.1885714 22.9430052 75.1885714 20.4248705 69.9765808 20.4248705"></polygon>
            <polygon id="Fill-2" fill="#231F20" points="43.8407494 22.6632124 49.05274 22.6632124 49.05274 20.1450777 43.8407494 20.1450777"></polygon>
            <g id="Group-40">
                <path d="M119.789171,26.0889668 L119.789171,39.3531016 C119.789171,41.0187078 118.434042,42.3678684 116.761349,42.3678684 L22.7510445,42.3678684 L17.6717002,41.9834332 L9.31273068,41.3533399 C8.08097424,41.3533399 7.08022482,40.3597959 7.08022482,39.1334642 L7.08022482,6.77739171 C7.08022482,3.1403658 10.045377,0.193588601 13.6984918,0.196386528 L77.2237377,0.251225907 C79.1749321,0.253744041 80.9659391,1.33346425 81.8719813,3.05390984 L89.3069227,17.1965938 L113.265611,19.0921896 C116.944862,19.3641482 119.789171,22.4155679 119.789171,26.0889668" id="Fill-3" fill="#83878E"></path>
                <g id="Group-7" transform="translate(7.025761, 36.373057)">
                    <mask id="mask-2" fill="white">
                        <use xlink:href="#path-1"></use>
                    </mask>
                    <g id="Clip-6"></g>
                    <path d="M0.0545761124,0.242552332 L0.0545761124,2.76040725 C0.0545761124,3.98673886 1.05532553,4.9802829 2.28680094,4.9802829 L10.6460515,5.61037617 L15.7251148,5.9948114 L109.735419,5.9948114 C111.408393,5.9948114 112.763522,4.64565078 112.763522,2.98004456 L112.763522,0.242552332 L0.0545761124,0.242552332 Z" id="Fill-5" fill="#5B606B" mask="url(#mask-2)"></path>
                </g>
                <path d="M13.2966183,7.74628601 L13.2966183,18.2877575 L31.4174614,18.2877575 L31.4174614,4.0323171 L17.0430351,4.01972642 C14.97437,4.01776788 13.2966183,5.6870114 13.2966183,7.74628601" id="Fill-8" fill="#231F20"></path>
                <polygon id="Fill-10" fill="#231F20" points="37.0755316 4.03656995 37.0755316 18.2878135 57.2417143 18.2878135 57.2417143 4.0575544"></polygon>
                <path d="M85.2135176,18.2878135 L79.1398876,6.04855959 C78.5421358,4.84405181 77.3100984,4.0807772 75.9603091,4.07881865 L62.888178,4.0617513 L62.888178,18.2878135 L85.2135176,18.2878135 Z" id="Fill-12" fill="#231F20"></path>
                <path d="M44.2542857,42.3677565 L22.7509602,42.3677565 L17.671897,41.9833212 C18.3519906,35.2873212 24.0456674,30.0451244 30.9472131,30.0451244 C37.980281,30.0451244 43.7579859,35.488772 44.2542857,42.3677565" id="Fill-14" fill="#232736"></path>
                <path d="M100.804384,42.3677565 L74.1905199,42.3677565 C74.6868197,35.488772 80.4645246,30.0451244 87.4973115,30.0451244 C94.5303794,30.0451244 100.308084,35.488772 100.804384,42.3677565" id="Fill-16" fill="#232736"></path>
                <g id="Group-20" transform="translate(19.953162, 32.455959)">
                    <mask id="mask-4" fill="white">
                        <use xlink:href="#path-3"></use>
                    </mask>
                    <g id="Clip-19"></g>
                    <path d="M10.9937705,0.202653886 C5.07442623,0.202653886 0.275831382,4.98011503 0.275831382,10.8733896 C0.275831382,16.7666642 5.07442623,21.5441254 10.9937705,21.5441254 C16.9131148,21.5441254 21.7117096,16.7666642 21.7117096,10.8733896 C21.7117096,4.98011503 16.9131148,0.202653886 10.9937705,0.202653886" id="Fill-18" fill="#323948" mask="url(#mask-4)"></path>
                </g>
                <path d="M30.9469321,36.927914 C27.3958314,36.927914 24.5172365,39.7938311 24.5172365,43.3292922 C24.5172365,46.8647534 27.3958314,49.7309503 30.9469321,49.7309503 C34.4980328,49.7309503 37.3766276,46.8647534 37.3766276,43.3292922 C37.3766276,39.7938311 34.4980328,36.927914 30.9469321,36.927914" id="Fill-21" fill="#FFFFFF"></path>
                <path d="M30.9469321,39.3285637 C28.7276347,39.3285637 26.9284778,41.1197969 26.9284778,43.3293202 C26.9284778,45.5388435 28.7276347,47.3300767 30.9469321,47.3300767 C33.1662295,47.3300767 34.9653864,45.5388435 34.9653864,43.3293202 C34.9653864,41.1197969 33.1662295,39.3285637 30.9469321,39.3285637" id="Fill-23" fill="#323948"></path>
                <g id="Group-27" transform="translate(76.721311, 32.455959)">
                    <mask id="mask-6" fill="white">
                        <use xlink:href="#path-5"></use>
                    </mask>
                    <g id="Clip-26"></g>
                    <path d="M10.776534,0.202653886 C4.8571897,0.202653886 0.0585948478,4.98011503 0.0585948478,10.8733896 C0.0585948478,16.7666642 4.8571897,21.5441254 10.776534,21.5441254 C16.6958782,21.5441254 21.4944731,16.7666642 21.4944731,10.8733896 C21.4944731,4.98011503 16.6958782,0.202653886 10.776534,0.202653886" id="Fill-25" fill="#323948" mask="url(#mask-6)"></path>
                </g>
                <path d="M87.4978454,36.927914 C83.9467447,36.927914 81.0681499,39.7938311 81.0681499,43.3292922 C81.0681499,46.8647534 83.9467447,49.7309503 87.4978454,49.7309503 C91.0489461,49.7309503 93.927541,46.8647534 93.927541,43.3292922 C93.927541,39.7938311 91.0489461,36.927914 87.4978454,36.927914" id="Fill-28" fill="#FFFFFF"></path>
                <path d="M87.4978454,39.3285637 C85.278548,39.3285637 83.4793911,41.1197969 83.4793911,43.3293202 C83.4793911,45.5388435 85.278548,47.3300767 87.4978454,47.3300767 C89.7171429,47.3300767 91.5162998,45.5388435 91.5162998,43.3293202 C91.5162998,41.1197969 89.7171429,39.3285637 87.4978454,39.3285637" id="Fill-30" fill="#323948"></path>
                <path d="M7.09076347,8.63893679 L3.24682904,8.63893679 C1.45357377,8.63893679 8.43091335e-05,10.0863047 8.43091335e-05,11.8713824 L8.43091335e-05,26.5851233 C8.43091335e-05,28.370201 1.45357377,29.8175689 3.24682904,29.8175689 L7.09076347,29.8175689 L7.09076347,8.63893679 Z" id="Fill-32" fill="#323948"></path>
                <g id="Group-36" transform="translate(109.882904, 18.746114)">
                    <mask id="mask-8" fill="white">
                        <use xlink:href="#path-7"></use>
                    </mask>
                    <g id="Clip-35"></g>
                    <path d="M3.38276347,0.346103627 L0.18941452,0.0934507772 L0.18941452,7.63190674 C0.18941452,9.45923316 1.67747073,10.9407358 3.51288056,10.9407358 L9.90632319,10.9407358 L9.90632319,7.34288083 C9.90632319,3.66920207 7.06201405,0.618062176 3.38276347,0.346103627" id="Fill-34" fill="#F7B029" mask="url(#mask-8)"></path>
                </g>
                <mask id="mask-10" fill="white">
                    <use xlink:href="#path-9"></use>
                </mask>
                <g id="Clip-38"></g>
                <polygon id="Fill-37" fill="#232736" mask="url(#mask-10)" points="69.7624356 22.496456 76.3691803 22.496456 76.3691803 20.3177098 69.7624356 20.3177098"></polygon>
                <polygon id="Fill-39" fill="#232736" mask="url(#mask-10)" points="43.8944262 22.496456 50.501171 22.496456 50.501171 20.3177098 43.8944262 20.3177098"></polygon>
            </g>
        </g>
    </g>
</svg>