<?xml version="1.0" encoding="UTF-8"?>
<svg width="120px" height="120px" viewBox="0 0 120 120" version="1.1" xmlns="http://www.w3.org/2000/svg" xmlns:xlink="http://www.w3.org/1999/xlink">
    <!-- Generator: Sketch 51.1 (57501) - http://www.bohemiancoding.com/sketch -->
    <title>Maracas4</title>
    <desc>Created with Sketch.</desc>
    <defs></defs>
    <g id="Maracas4" stroke="none" stroke-width="1" fill="none" fill-rule="evenodd">
        <g id="Group" transform="translate(0.000000, 6.000000)">
            <path d="M32.0444551,50.7607263 C32.0444551,50.7607263 47.4504431,40.0737066 42.7373892,19.7660026 C38.1163114,-0.144425 25.1311617,-0.9483 18.014515,0.637936842 C10.420024,2.32958816 -3.61638323,9.1342 1.00469461,29.0446276 C5.71128144,49.3229303 24.8696048,52.4193908 24.8696048,52.4193908 C24.8696048,52.4193908 27.0928383,111.528943 39.5778683,108.642595 C52.0621796,105.756963 32.0444551,50.7607263 32.0444551,50.7607263" id="Fill-153" fill="#E2B491"></path>
            <path d="M42.7373174,19.7658592 C38.1162395,-0.144568421 25.1310898,-0.948443421 18.0144431,0.637793421 C17.3612695,0.782648684 16.658515,0.969813158 15.9255808,1.19570132 C23.2441437,0.110721053 34.7662994,2.10570789 39.0625868,20.6156289 C43.7749222,40.9226158 28.3696527,51.6103526 28.3696527,51.6103526 C28.3696527,51.6103526 46.2776766,100.815247 37.6448623,108.576478 C38.2606707,108.763642 38.9030659,108.79878 39.578515,108.642451 C52.0628263,105.75682 32.0443832,50.7605829 32.0443832,50.7605829 C32.0443832,50.7605829 47.4510898,40.0735632 42.7373174,19.7658592" id="Fill-155" fill="#D9A883"></path>
            <path d="M43.3463713,93.7954322 C38.1066108,95.3343401 33.5652934,95.5774388 30.2318802,95.4038993 C32.4098443,103.702241 35.4263713,109.601866 39.5782275,108.643097 C43.503018,107.735241 44.2143952,101.675702 43.3463713,93.7954322" id="Fill-157" fill="#FECF40"></path>
            <path d="M33.2661557,13.1218072 L27.915018,22.6399454 L18.3904671,16.560327 L15.0714251,24.5044191 L6.31501796,19.3520178 L0.348071856,25.4395243 C0.497532934,26.5911954 0.713820359,27.7916296 1.00483832,29.0444125 C1.18160479,29.8066954 1.38423952,30.5367086 1.60052695,31.2509454 L7.75932934,23.9866691 L14.995976,31.3312612 L20.8996886,22.6055243 L28.3648383,29.3448796 L34.2132216,18.7919586 L40.2908263,25.1161099 L42.9588503,20.8478993 C42.886994,20.4879125 42.8223234,20.1315112 42.7375329,19.7657875 C42.4357365,18.4663928 42.0965749,17.2523336 41.7279521,16.1114191 L39.2905868,20.0103204 L33.2661557,13.1218072 Z" id="Fill-159" fill="#FECF40"></path>
            <polygon id="Fill-161" fill="#EB6457" points="10.212503 10.7218711 8.30687425 17.6032132 13.3576527 20.3002461 15.7231617 14.6006934"></polygon>
            <polygon id="Fill-163" fill="#EB6457" points="24.4630419 8.16402829 21.9969341 14.6222783 25.7234012 18.3619822 29.5224431 12.883298"></polygon>
            <polygon id="Fill-165" fill="#EB6457" points="34.7418683 23.4540033 32.4043832 30.067148 36.9722874 33.0603454 37.9574371 27.7716941"></polygon>
            <polygon id="Fill-167" fill="#EB6457" points="21.2667305 26.5689651 18.5383473 33.0881691 23.820503 37.5722283 25.8684072 31.3018599"></polygon>
            <polygon id="Fill-169" fill="#EB6457" points="8.24766467 28.4740987 5.78874251 34.5630395 10.4773653 38.0804408 11.8124551 32.7107566"></polygon>
            <path d="M30.6543234,1.81721645 C26.1352814,-0.325494079 21.4078563,-0.118967763 18.0140838,0.637578289 C14.5067784,1.41922303 9.62845509,3.29517039 5.84594012,7.04491382 C9.08953293,7.94846645 13.3987545,8.32924934 18.7736048,7.08650592 C24.4301317,5.77922303 28.1896527,3.74192697 30.6543234,1.81721645" id="Fill-171" fill="#FECF40"></path>
            <path d="M8.19643114,42.9818553 C15.1298443,50.5394276 24.0436168,52.2733882 24.8146347,52.4096382 C26.2108024,52.2203224 27.6687665,51.9564276 29.1985868,51.6028947 C30.2131976,51.3684013 31.166012,51.0758224 32.0706826,50.7423684 C32.4472096,50.4763224 39.7391856,45.1977105 42.5444551,35.2514605 C27.9569102,41.351875 15.5056527,42.7760461 8.19643114,42.9818553" id="Fill-173" fill="#FECF40"></path>
            <path d="M86.7478563,58.4727632 C86.7478563,58.4727632 105.36582,60.7918816 115.453006,42.5379671 C125.343305,24.6418882 116.219713,15.3869276 109.861868,11.8214803 C103.078635,8.01795395 88.0793533,3.72249342 78.1890539,21.6185724 C68.115521,39.8459539 80.2980359,54.9230921 80.2980359,54.9230921 C80.2980359,54.9230921 42.384503,100.389 53.6062994,106.564711 C64.8273772,112.741855 86.7478563,58.4727632 86.7478563,58.4727632" id="Fill-177" fill="#E2B491"></path>
            <path d="M115.453222,42.5381822 C125.343521,24.6421033 116.21921,15.3864257 109.862084,11.8216954 C109.278611,11.4946954 108.631186,11.164827 107.934898,10.844998 C114.106635,14.9167217 121.344,24.0834783 112.149988,40.7203204 C102.062802,58.9735178 83.4448383,56.6551164 83.4448383,56.6551164 C83.4448383,56.6551164 63.8309461,105.208163 52.2117844,105.227524 C52.544479,105.777544 52.9993293,106.231472 53.606515,106.564926 C64.8275928,112.741353 86.7480719,58.4729783 86.7480719,58.4729783 C86.7480719,58.4729783 105.366036,60.7920967 115.453222,42.5381822" id="Fill-179" fill="#D9A883"></path>
            <path d="M66.3487904,98.0297954 C61.4201677,95.6819928 57.8776527,92.8350849 55.5142994,90.4829796 C51.5794491,98.1101112 49.8735808,104.510993 53.606515,106.564782 C57.1339401,108.506703 61.7198084,104.472269 66.3487904,98.0297954" id="Fill-181" fill="#FECF40"></path>
            <path d="M112.854036,31.2802033 L102.500263,34.7947362 L99.483018,23.9212691 L91.6952335,27.6193809 L88.6284072,17.9470651 L80.1134371,18.4992362 C79.4537964,19.4551375 78.8106826,20.4927888 78.1891257,21.6186441 C77.8097246,22.3034796 77.4727186,22.9825783 77.1551138,23.6580914 L86.6013413,22.3586967 L87.0691257,32.6484401 L97.3028982,30.0919599 L98.3469701,40.0833875 L109.762778,36.1307033 L110.052359,44.8887099 L114.894036,43.4917888 C115.081581,43.1755454 115.271281,42.8679072 115.453078,42.5380388 C116.099066,41.3705914 116.659545,40.2411507 117.148886,39.1461309 L112.724695,40.4225783 L112.854036,31.2802033 Z" id="Fill-183" fill="#FECF40"></path>
            <polygon id="Fill-185" fill="#EB6457" points="97.305988 14.1243204 91.2808383 17.9737414 93.2346108 23.3484454 98.8099401 20.6843993"></polygon>
            <polygon id="Fill-187" fill="#EB6457" points="109.621868 21.7218355 103.464503 24.8842697 103.733964 30.1506908 110.228335 28.6067632"></polygon>
            <polygon id="Fill-189" fill="#EB6457" points="107.035329 39.9523007 100.869341 43.3148072 102.263353 48.5869651 106.537365 45.3083599"></polygon>
            <polygon id="Fill-191" fill="#EB6457" points="94.9229461 33.285875 88.5291737 36.3185132 89.4575569 43.1761908 95.1787545 39.8760724"></polygon>
            <polygon id="Fill-193" fill="#EB6457" points="83.9606228 26.02375 78.0540359 28.9151184 79.1886467 34.6584145 83.7766707 31.5526316"></polygon>
            <path d="M118.477581,21.1272836 C116.549677,16.5198822 112.893629,13.5216651 109.862012,11.8214086 C106.729078,10.0652178 101.843569,8.20863224 96.5182994,8.4761125 C98.3269222,11.3115467 101.278778,14.4682441 106.109677,17.1265533 C111.193509,19.9254151 115.355425,20.9164546 118.477581,21.1272836" id="Fill-195" fill="#FECF40"></path>
            <path d="M74.2102275,36.7845599 C74.3108263,47.0305599 79.7819641,54.2632836 80.2648383,54.8799941 C81.4303473,55.669527 82.6921437,56.4454349 84.0667545,57.2019809 C84.9778922,57.7032375 85.8832814,58.1213099 86.7793293,58.476277 C87.238491,58.5293428 96.1982515,59.4637309 104.943162,53.932698 C90.0049581,48.7458757 79.786994,41.5045467 74.2102275,36.7845599" id="Fill-197" fill="#FECF40"></path>
        </g>
    </g>
</svg>