<?xml version="1.0" encoding="UTF-8"?>
<svg width="120px" height="120px" viewBox="0 0 120 120" version="1.1" xmlns="http://www.w3.org/2000/svg" xmlns:xlink="http://www.w3.org/1999/xlink">
    <!-- Generator: Sketch 51.1 (57501) - http://www.bohemiancoding.com/sketch -->
    <title>Star13</title>
    <desc>Created with Sketch.</desc>
    <defs></defs>
    <g id="Star13" stroke="none" stroke-width="1" fill="none" fill-rule="evenodd">
        <path d="M91.8351788,68.053773 C99.0746693,64.9926858 108.19899,62.5607295 120,60.0006407 C107.91838,57.3790482 98.6326119,54.8958389 91.3136792,51.7322456 C95.2537559,48.2790727 100.076666,44.6426703 105.925918,40.5091134 C99.1195157,41.8019711 93.3048594,42.7283696 88.2064643,43.1845216 C91.1612015,35.9001847 95.8931374,27.7291704 102.427899,17.5746639 C92.0299403,24.2631843 83.7077296,29.0745625 76.2939788,32.0113611 C76.6412181,26.7848334 77.4779238,20.8023235 78.6913393,13.7434999 C74.7922651,19.4723073 71.3378109,24.2388391 68.053773,28.1648212 C64.9926858,20.9266121 62.5607295,11.8022914 59.9993593,0 C57.3777669,12.0803391 54.8958389,21.3673881 51.7309643,28.6876021 C48.2803541,24.7462441 44.641389,19.9246153 40.5091134,14.0753633 C41.8019711,20.883047 42.7296509,26.6951406 43.1832403,31.7935357 C35.9014661,28.8387985 27.7304518,24.1081439 17.5733826,17.5746639 C24.2644656,27.9700597 29.0758438,36.2922704 32.0126424,43.7060212 C26.783552,43.3600632 20.8023235,42.5233575 13.7434999,41.3086607 C19.471026,45.2077349 24.2375578,48.6621891 28.1648212,51.946227 C20.9253307,55.0073142 11.8022914,57.4405518 0,60.0006407 C12.0816204,62.6222331 21.3686694,65.1041611 28.6876021,68.2690357 C24.7475254,71.7196459 19.9258967,75.358611 14.0753633,79.4908866 C20.883047,78.1980289 26.6951406,77.2703491 31.794817,76.8154784 C28.8400799,84.0985339 24.1094252,92.2695482 17.5733826,102.426617 C27.9700597,95.7368157 36.2922704,90.9267188 43.7047398,87.9886389 C43.3600632,93.216448 42.5233575,99.1976765 41.3073794,106.255219 C45.2077349,100.528974 48.6621891,95.7624422 51.946227,91.8364601 C55.0073142,99.0746693 57.4392705,108.197709 59.9993593,120 C62.6209518,107.91838 65.1041611,98.6313306 68.2690357,91.3123979 C71.7209273,95.2550372 75.358611,100.075385 79.4908866,105.925918 C78.1967476,99.1182343 77.2703491,93.3048594 76.8154784,88.2064643 C84.0998153,91.1599201 92.2708296,95.8931374 102.427899,102.426617 C95.738097,92.0299403 90.9254375,83.7077296 87.9886389,76.2939788 C93.216448,76.6399368 99.1976765,77.4766425 106.2565,78.6926206 C100.528974,74.7922651 95.7624422,71.3378109 91.8351788,68.053773" id="Fill-18" fill="#FFCB3F"></path>
    </g>
</svg>