<?xml version="1.0" encoding="UTF-8"?>
<svg width="120px" height="120px" viewBox="0 0 120 120" version="1.1" xmlns="http://www.w3.org/2000/svg" xmlns:xlink="http://www.w3.org/1999/xlink">
    <!-- Generator: Sketch 51.1 (57501) - http://www.bohemiancoding.com/sketch -->
    <title>Cake15</title>
    <desc>Created with Sketch.</desc>
    <defs></defs>
    <g id="Cake15" stroke="none" stroke-width="1" fill="none" fill-rule="evenodd">
        <g id="Page-1" transform="translate(0.000000, 3.000000)">
            <polygon id="Fill-1" fill="#DA8F7B" points="0.776970874 91.1669633 90.097165 113.656371 88.5435728 44.248402 -0.000116504854 27.1867898"></polygon>
            <polygon id="Fill-2" fill="#C0674E" points="88.5437476 44.248402 90.0973398 113.656371 117.669961 101.248402 119.708796 30.3857694"></polygon>
            <polygon id="Fill-3" fill="#2D0400" points="0 27.1869643 88.5436893 44.2485765 120 30.3859439 36.1165049 12.8404133"></polygon>
            <polygon id="Fill-4" fill="#63332B" points="0.281533981 50.3703765 89.1007573 69.1594378 88.8188155 56.5502235 0.129495146 37.8472439"></polygon>
            <polygon id="Fill-5" fill="#641915" points="118.925417 57.6141459 119.298233 44.6646765 88.8135728 56.3025643 89.1030874 69.2345847"></polygon>
            <polygon id="Fill-6" fill="#63332B" points="0.541048544 71.7624765 89.6194951 92.3098133 89.471534 85.6949051 89.1260971 76.0438745 0.375029126 58.0347827"></polygon>
            <polygon id="Fill-7" fill="#641915" points="118.656058 66.9719755 89.2543107 76.0047306 89.6166408 92.1863327 118.264602 80.5903224"></polygon>
            <polygon id="Fill-8" fill="#641915" points="89.7642524 98.7949592 90.0974563 113.656255 117.669495 101.248286 118.025417 88.8926633"></polygon>
            <g id="Group-47" transform="translate(0.582524, 0.237888)">
                <path d="M0.194271845,90.9289592 L89.514466,113.418367 L89.191165,98.958398 C82.7327184,97.5432857 17.2849515,83.2101122 0.0562135922,79.5580408 L0.194271845,90.9289592 Z" id="Fill-9" fill="#63332B"></path>
                <path d="M76.5567379,22.5501888 L82.4955728,26.3639541 L83.5749903,27.0572602 C83.5749903,27.0572602 77.4794563,35.5432806 55.3050874,31.3473827 C55.3050874,31.3473827 39.1528544,27.709852 48.3829515,10.280648" id="Fill-11" fill="#A80021"></path>
                <path d="M57.3414175,30.0509235 C57.3833592,30.6366276 58.9823883,30.8058827 58.6474369,30.0567398 C58.470932,29.6670459 57.4794757,29.5681684 57.3553981,30.002648" id="Fill-13" fill="#FFA056"></path>
                <path d="M68.3052816,30.6669306 C68.3466408,31.2526347 69.9462524,31.4218898 69.6107184,30.6733286 C69.4342136,30.2830531 68.4433398,30.1835939 68.3186796,30.6186551" id="Fill-15" fill="#FFA056"></path>
                <path d="M75.7125437,29.7555704 C75.755068,30.3418561 77.3540971,30.5105296 77.0185631,29.7619684 C76.8420583,29.3722745 75.8506019,29.2728153 75.7259417,29.7078765" id="Fill-17" fill="#FFA056"></path>
                <path d="M46.223068,11.0799857 C40.9017087,5.93137347 32.6490874,12.6131694 35.2885049,8.89711837 C37.6605437,6.67935306 48.1098641,8.98203673 46.2993786,11.9373122" id="Fill-19" fill="#344C1F"></path>
                <path d="M44.3776893,11.0047224 C44.3776893,11.0047224 42.6318641,17.2258653 37.552835,14.0425898 C37.552835,14.0425898 36.0860388,14.1065694 35.8186602,16.056202 C35.8186602,16.056202 36.6097282,15.3163653 38.2297282,16.0678347 C38.2297282,16.0678347 45.1710874,20.1666 46.7508932,13.2876306 C48.3301165,6.40866122 46.9536117,9.87402857 46.9536117,9.87402857 L44.3776893,11.0047224 Z" id="Fill-21" fill="#344C1F"></path>
                <path d="M48.9860971,8.84488776 C48.9860971,8.84488776 37.103767,31.0481327 66.2422136,30.4769694 C66.2422136,30.4769694 74.5775534,31.0522041 81.0581359,28.6547143 C81.0581359,28.6547143 87.3680388,27.7520204 82.1608544,20.7398571 C82.1608544,20.7398571 59.8519223,-11.8368061 49.139301,8.75996939" id="Fill-23" fill="#FF5645"></path>
                <path d="M49.7768155,7.6220051 C50.0447767,7.74705612 50.388466,7.82092347 50.8224466,7.82615816 C52.0818641,7.92736224 53.7816699,5.58338265 55.1768155,5.20881122 C57.575068,4.47769898 59.1572039,4.79934184 61.2490485,6.03938265 C63.1038058,7.21020918 64.6008932,7.37946429 66.3706019,8.39790306 C69.5005049,10.0613724 72.8016699,13.8309337 75.2698252,16.4628214 C76.920699,18.3473112 82.0766214,23.287699 79.4913786,25.12275 C79.1849709,25.2925867 77.2288544,25.3786684 76.6847767,25.4804541 C75.8342913,25.7526582 75.2389515,26.4831888 74.304,26.6024235 C72.1271068,27.0107296 70.4430291,26.1452602 68.2649709,26.5529847 C65.9348738,27.0467908 65.3907961,27.1491582 62.7024466,26.6402296 C60.7294369,26.3354541 58.0247767,27.2364031 56.340699,26.3709337 C54.1801165,25.3693622 54.791767,23.2289541 53.0902136,21.9732092 C51.3036117,20.5639133 49.7896311,21.8045357 48.802835,18.9516276 C48.2890485,17.6790153 49.6253592,12.9166071 47.4082718,13.1957908 C47.3896311,13.1574031 47.3721553,13.1195969 47.352932,13.0806276 C45.5482718,19.4942908 45.2634175,30.8884745 66.2424466,30.4766786 C66.2424466,30.4766786 74.5777864,31.0519133 81.0577864,28.6544235 C81.0577864,28.6544235 87.3682718,27.7523112 82.1610874,20.7395663 C82.1610874,20.7395663 60.7107961,-10.5807704 49.7768155,7.6220051" id="Fill-25" fill="#DA143B"></path>
                <path d="M58.1289903,7.27122245 C55.8839417,6.63142653 52.5687961,6.40168163 50.0866602,7.12348776 C49.7621942,7.62718163 49.4458835,8.17100816 49.1388932,8.76020204 L48.9862718,8.84512041 C48.9862718,8.84512041 48.0192816,10.653998 47.3132621,13.2248143 C47.4973398,13.5592531 47.6994757,13.9123041 47.9120971,14.2944367 L47.8480194,14.1792735 C56.500835,21.0803449 64.6148155,21.0774367 75.1526796,20.0287531 C72.0122913,15.4699163 63.4876311,8.79800816 58.1289903,7.27122245" id="Fill-27" fill="#FED0C1"></path>
                <path d="M53.0006214,14.4391469 C58.0487767,18.4652082 62.7829515,18.4640449 68.9309126,17.8521673 C67.0988738,15.1923612 62.1252816,11.3000755 58.9982913,10.4090143 C57.3305243,9.93382041 54.6514951,9.84599388 53.2528544,10.7975449 C51.5262524,12.1062184 52.1443107,12.9007286 53.0379029,14.5060347" id="Fill-29" fill="#FF7165"></path>
                <path d="M47.3133204,13.2247561 C47.3133204,13.2247561 47.4758447,19.0887765 42.2546796,21.5868888 C42.2546796,21.5868888 40.6218641,21.8928276 40.9632233,24.3048582 C40.9632233,24.3048582 37.9003107,22.403501 41.8457476,19.4133276 C41.8457476,19.4133276 45.0257476,16.8477459 44.0383689,13.9942561 C44.0383689,13.9942561 43.0003107,11.7695112 44.3773981,11.0046643 C44.3773981,11.0046643 42.1480777,8.44082755 45.8721553,5.7734602 C45.8721553,5.7734602 47.5638058,3.68307245 50.1537087,3.74588878 C50.1537087,3.74588878 52.7948738,3.63014388 52.7680777,0.343919388 C52.7680777,0.343919388 53.7816699,3.76101122 50.0867184,7.12342959 C50.0867184,7.12342959 48.1288544,9.56977653 47.3133204,13.2247561" id="Fill-31" fill="#486E38"></path>
                <path d="M59.8003689,31.5876551 C59.8423107,32.1733592 61.4413398,32.3420327 61.1063883,31.5934714 C60.929301,31.2037776 59.9384272,31.1037367 59.8143495,31.538798" id="Fill-33" fill="#FFA056"></path>
                <path d="M64.290466,31.1948786 C64.3329903,31.7811643 65.9320194,31.9498378 65.597068,31.2012765 C65.4199806,30.8115827 64.4291068,30.7115418 64.3044466,31.1466031" id="Fill-35" fill="#FFA056"></path>
                <path d="M55.637068,31.128398 C55.4617282,30.7410306 54.4842524,30.6409898 54.3491068,31.0655816 C54.9380388,31.2645 55.3050291,31.3476735 55.3050291,31.3476735 C55.4250291,31.3703571 55.5421165,31.3907143 55.661534,31.4122347 C55.6906602,31.3383673 55.6894951,31.2458878 55.637068,31.128398" id="Fill-37" fill="#FFA056"></path>
                <path d="M50.6065049,27.5656071 C50.3979612,28.1146684 51.7773786,28.9394235 51.7884466,28.1204847 C51.7931068,27.6924031 50.9356311,27.185801 50.6402913,27.5272194" id="Fill-39" fill="#FFA056"></path>
                <path d="M47.1566214,25.771852 C47.3098252,25.7933724 47.4420583,25.7235765 47.4968155,25.5002296 C47.5940971,25.09425 46.9102136,24.4329337 46.5379806,24.649301 C46.7249709,25.0448112 46.9323495,25.418801 47.1566214,25.771852" id="Fill-41" fill="#FFA056"></path>
                <path d="M71.7250485,31.4893592 C72.0163107,32.0000327 73.5320388,31.4626041 72.9052427,30.9315735 C72.5778641,30.6570429 71.6405825,30.9938082 71.7163107,31.4399204" id="Fill-43" fill="#FFA056"></path>
                <path d="M68.7046019,32.4649316 C68.5164466,32.082799 67.541301,31.9879929 67.4183883,32.4195643 L67.4044078,32.4678398 C67.4055728,32.4806357 67.410233,32.4922684 67.4131456,32.5050643 C67.854699,32.4980847 68.2846019,32.4841255 68.7046019,32.4649316" id="Fill-45" fill="#FFA056"></path>
            </g>
        </g>
    </g>
</svg>