<?xml version="1.0" encoding="UTF-8"?>
<svg width="120px" height="120px" viewBox="0 0 120 120" version="1.1" xmlns="http://www.w3.org/2000/svg" xmlns:xlink="http://www.w3.org/1999/xlink">
    <!-- Generator: Sketch 51.1 (57501) - http://www.bohemiancoding.com/sketch -->
    <title>Star12</title>
    <desc>Created with Sketch.</desc>
    <defs>
        <polygon id="path-1" points="0 0.233764706 119.765265 0.233764706 119.765265 120 0 120"></polygon>
    </defs>
    <g id="Star12" stroke="none" stroke-width="1" fill="none" fill-rule="evenodd">
        <g id="Group-7">
            <mask id="mask-2" fill="white">
                <use xlink:href="#path-1"></use>
            </mask>
            <g id="Clip-6"></g>
            <path d="M89.8848235,69.9872941 C97.2624706,66.3861176 106.704824,63.6508235 119.181294,60.8461176 C119.960118,60.672 119.960118,59.5602353 119.180118,59.3849412 C105.844824,56.3896471 95.9648235,53.4767059 88.3789412,49.4967059 C87.9318824,49.2625882 87.8436471,48.6567059 88.2036471,48.3014118 C90.2177647,46.3190588 92.4895294,44.2367059 95.0448235,41.9990588 C95.6448235,41.4743529 95.1189412,40.5014118 94.3507059,40.7131765 C91.0189412,41.632 87.9836471,42.3955294 85.1801176,42.9908235 C84.5718824,43.1190588 84.0789412,42.4837647 84.3577647,41.9272941 C86.2295294,38.1967059 88.6130588,34.1237647 91.5083529,29.5225882 C91.9342353,28.8472941 91.1495294,28.0672941 90.4742353,28.492 C85.1918824,31.8155294 80.6095294,34.4578824 76.4377647,36.432 C75.9048235,36.6837647 75.2989412,36.2390588 75.3801176,35.6555294 C75.8377647,32.3625882 76.5271765,28.7331765 77.4201176,24.6637647 C77.5907059,23.8849412 76.5918824,23.4131765 76.0989412,24.0390588 C74.3036471,26.3249412 72.6118824,28.3967059 70.9871765,30.2731765 C70.6377647,30.6778824 69.986,30.5943529 69.7518824,30.1131765 C66.1518824,22.7355294 63.4154118,13.2931765 60.6118824,0.817882353 C60.4365882,0.0390588235 59.326,0.0390588235 59.1507059,0.817882353 C56.1554118,14.152 53.2412941,24.032 49.2612941,31.6190588 C49.0271765,32.0661176 48.4212941,32.1543529 48.0671765,31.7931765 C46.0848235,29.7802353 44.0024706,27.5096471 41.7648235,24.9543529 C41.2401176,24.3543529 40.2683529,24.8802353 40.4801176,25.6484706 C41.3989412,28.9814118 42.1624706,32.0167059 42.7565882,34.8190588 C42.886,35.4284706 42.2495294,35.9225882 41.6942353,35.6437647 C37.9624706,33.7708235 33.8895294,31.3861176 29.2883529,28.492 C28.6130588,28.0661176 27.8330588,28.8508235 28.2577647,29.5249412 C31.5801176,34.8072941 34.2224706,39.3884706 36.1965882,43.5602353 C36.4495294,44.0931765 36.0048235,44.6990588 35.4201176,44.6190588 C32.126,44.1602353 28.4977647,43.4708235 24.4283529,42.5778824 C23.6495294,42.4084706 23.1777647,43.4061176 23.8048235,43.8978824 C26.0895294,45.6943529 28.1612941,47.3872941 30.0389412,49.012 C30.4424706,49.3614118 30.3589412,50.012 29.8789412,50.2472941 C22.5012941,53.8461176 13.0589412,56.5814118 0.584823529,59.3849412 C-0.195176471,59.5602353 -0.195176471,60.6708235 0.583647059,60.8461176 C13.9189412,63.8425882 23.8001176,66.7578824 31.3848235,70.7378824 C31.8318824,70.972 31.9201176,71.5778824 31.5601176,71.932 C29.5471765,73.9155294 27.2754118,75.9967059 24.7201176,78.2355294 C24.1212941,78.7614118 24.646,79.732 25.4142353,79.5214118 C28.746,78.6014118 31.7812941,77.8390588 34.5848235,77.2437647 C35.1930588,77.1143529 35.6871765,77.7508235 35.4071765,78.3061176 C33.5365882,82.0378824 31.1518824,86.1108235 28.2565882,90.7108235 C27.8318824,91.3861176 28.6154118,92.1672941 29.2918824,91.7414118 C34.5718824,88.4190588 39.1530588,85.7767059 43.3248235,83.8025882 C43.8589412,83.5496471 44.4636471,83.9943529 44.3824706,84.5790588 C43.926,87.872 43.2354118,91.5014118 42.3436471,95.5696471 C42.1730588,96.3484706 43.1718824,96.8202353 43.6636471,96.1931765 C45.4589412,93.9096471 47.1518824,91.8367059 48.7754118,89.9602353 C49.1248235,89.5567059 49.7777647,89.6402353 50.0118824,90.1202353 C53.6107059,97.4978824 56.3471765,106.940235 59.1507059,119.416706 C59.326,120.195529 60.4365882,120.195529 60.6118824,119.416706 C63.6083529,106.080235 66.5224706,96.1990588 70.5024706,88.6143529 C70.7377647,88.1661176 71.3424706,88.0778824 71.6977647,88.4390588 C73.6801176,90.452 75.7624706,92.7237647 78.0001176,95.2790588 C78.5248235,95.8790588 79.4965882,95.3543529 79.2848235,94.5849412 C78.366,91.2531765 77.6036471,88.2178824 77.0083529,85.4143529 C76.8789412,84.8061176 77.5154118,84.312 78.0707059,84.5908235 C81.8024706,86.4637647 85.8754118,88.8472941 90.4765882,91.7425882 C91.1518824,92.1684706 91.9318824,91.3837647 91.5071765,90.7084706 C88.1848235,85.4272941 85.5424706,80.8449412 83.5683529,76.6743529 C83.3165882,76.1402353 83.7601176,75.5355294 84.3448235,75.6167059 C87.6377647,76.0743529 91.266,76.7637647 95.3342353,77.6567059 C96.1130588,77.8261176 96.5848235,76.8272941 95.9589412,76.3355294 C93.6742353,74.5402353 91.6012941,72.8472941 89.7248235,71.2225882 C89.3201176,70.8731765 89.4048235,70.2214118 89.8848235,69.9872941" id="Fill-5" fill="#FFCB3F" mask="url(#mask-2)"></path>
        </g>
    </g>
</svg>