<?xml version="1.0" encoding="UTF-8"?>
<svg width="120px" height="120px" viewBox="0 0 120 120" version="1.1" xmlns="http://www.w3.org/2000/svg" xmlns:xlink="http://www.w3.org/1999/xlink">
    <!-- Generator: Sketch 51.1 (57501) - http://www.bohemiancoding.com/sketch -->
    <title>Boat12</title>
    <desc>Created with Sketch.</desc>
    <defs>
        <polygon id="path-1" points="0.432717488 0.210054795 6.50785762 0.210054795 6.50785762 1.35562192 0.432717488 1.35562192"></polygon>
    </defs>
    <g id="Boat12" stroke="none" stroke-width="1" fill="none" fill-rule="evenodd">
        <g id="Group" transform="translate(60.000000, 60.000000) scale(-1, 1) translate(-60.000000, -60.000000) translate(5.000000, 43.000000)">
            <path d="M108.980682,27.9263425 L107.361369,33.8041507 L4.75922318,33.8041507 L1.91244206,23.4225068 C1.91244206,23.4225068 31.7493519,29.1466164 108.980682,27.9263425" id="Fill-198" fill="#F8A63B"></path>
            <path d="M104.864747,18.0757041 L85.4400687,18.0757041 L85.4400687,18.5414575 L88.9005837,18.5414575 L88.9005837,21.8902247 L89.3726867,21.8902247 L89.3726867,18.5414575 L92.3705408,18.5414575 L92.3705408,21.8902247 L92.8426438,21.8902247 L92.8426438,18.5414575 L95.8357768,18.5414575 L95.8357768,21.8902247 L96.3078798,21.8902247 L96.3078798,18.5414575 L99.3010129,18.5414575 L99.3010129,21.8902247 L99.7731159,21.8902247 L99.7731159,18.5414575 L102.77097,18.5414575 L102.77097,21.8902247 L103.243073,21.8902247 L103.243073,18.5414575 L104.864747,18.5414575 C105.580927,18.5414575 106.16303,19.1161973 106.16303,19.8222795 L106.16303,21.8902247 L106.635133,21.8902247 L106.635133,19.8222795 C106.635133,18.8591014 105.840584,18.0757041 104.864747,18.0757041" id="Fill-200" fill="#524C60"></path>
            <path d="M105.789124,21.8902247 L103.282258,21.8902247 L99.8123004,21.8902247 L96.3470644,21.8902247 L92.8818283,21.8902247 L89.4118712,21.8902247 L86.3762489,21.8902247 L85.7153047,18.3085808 L85.6114421,17.7357041 L85.606721,17.7357041 L55.0758197,17.7357041 L50.397279,17.7357041 L34.6804979,17.7357041 C33.7041888,17.7357041 32.7618712,18.0873479 32.0296395,18.7244986 L27.5097253,22.6587178 C60.5663777,25.4858411 109.802,24.9548822 109.802,24.9548822 L109.802,21.8902247 L105.789124,21.8902247 Z" id="Fill-202" fill="#FFFFFF"></path>
            <path d="M24.9403519,16.9736384 C23.37297,16.8245973 21.4368755,16.5898575 19.1863605,16.2759397 C17.1515966,15.9941589 14.834515,15.6401863 12.2988498,15.2242685 C10.4061888,14.9187342 8.41533047,14.5815288 6.03262661,14.1628164 C3.87181116,13.7813644 2.12078112,13.4599945 1.0972618,13.2690356 C0.800309013,13.2140767 0.493914163,13.3053644 0.27816309,13.5140219 C0.0614678112,13.723611 -0.0376738197,14.0249534 0.0133133047,14.3197753 L0.717690987,18.3699671 L0.717690987,18.3746247 L1.18648927,18.3308438 L0.478806867,14.2415288 C0.453313305,14.0948164 0.500523605,13.9513644 0.608635193,13.8465699 C0.715802575,13.7427068 0.862154506,13.6984603 1.00945064,13.7268712 C2.0084206,13.9131726 3.70138197,14.2238301 5.78949356,14.5931726 L6.8644721,20.2003781 L7.33657511,20.2003781 L6.28614592,14.6802685 C8.44648927,15.058926 10.2905236,15.3709808 12.0396652,15.6541589 L12.780867,21.2818575 L12.785588,21.3377479 L13.2558026,21.2981589 L12.5259313,15.7328712 C14.8661459,16.1152548 17.0170472,16.4431452 18.9262318,16.7095562 L19.1632275,22.1164877 L19.1679485,22.1863507 L19.6391073,22.1546795 L19.4016395,16.7761589 C21.562927,17.0742411 23.3654163,17.2917479 24.89503,17.437063 C25.5923262,17.5041315 26.1291073,18.1021589 26.1168326,18.7984603 L26.0417682,22.7857753 L26.5138712,22.7941589 L26.5889356,18.8073096 C26.6054592,17.8688164 25.8812532,17.0635288 24.9403519,16.9736384" id="Fill-204" fill="#524C60"></path>
            <path d="M13.2901245,21.0471644 C15.2776781,21.3499041 17.4115837,21.6293562 19.6729571,21.8855205 C21.858794,22.1323699 24.1579356,22.3652466 26.5514979,22.5748356 C26.8678069,22.6027808 27.1888369,22.630726 27.509867,22.6586712 C60.5665193,25.4857945 109.802142,24.9548356 109.802142,24.9548356 L108.985403,27.9263425 L108.980682,27.9263425 C31.7493519,29.1466164 1.91244206,23.4225068 1.91244206,23.4225068 L0.354502146,17.7356575 C0.623600858,17.8800411 0.911583691,18.0197671 1.2278927,18.1548356 L1.2278927,18.1594932 C2.7669485,18.8301781 4.84892275,19.4356575 7.37467382,19.980589 C9.14506009,20.3671644 11.1278927,20.721137 13.2901245,21.0471644" id="Fill-206" fill="#FFFFFF"></path>
            <path d="M72.3878369,15.6443781 L72.3878369,15.7188986 L50.8977082,15.7188986 L50.72303,15.6909534 L51.5916996,10.2183507 L66.8831159,10.2183507 C67.0719571,10.2183507 67.2607983,10.2276658 67.4449185,10.2462959 C70.2208841,10.5257479 72.3878369,12.8312274 72.3878369,15.6443781" id="Fill-208" fill="#524C60"></path>
            <g id="Group-212" transform="translate(63.261803, 0.255699)">
                <mask id="mask-2" fill="white">
                    <use xlink:href="#path-1"></use>
                </mask>
                <g id="Clip-211"></g>
                <path d="M0.607454936,0.209868493 L5.48805579,0.209868493 C5.76423605,0.209868493 6.02058798,0.351457534 6.1645794,0.583868493 L6.48183262,1.09340274 C6.55312017,1.20844384 6.46955794,1.35562192 6.33312017,1.35562192 L4.29882833,1.35562192 L2.96702575,1.35562192 L1.45299142,1.35562192 C1.17681116,1.35562192 0.920459227,1.21403288 0.775995708,0.981621918 L0.458742489,0.471621918 C0.387454936,0.357046575 0.471017167,0.209868493 0.607454936,0.209868493" id="Fill-210" fill="#605D69" mask="url(#mask-2)"></path>
            </g>
            <path d="M69.7437768,1.34928767 L69.4265236,0.839287671 C69.3004721,0.636219178 69.0870815,0.509068493 68.8515021,0.478328767 C68.8798283,0.510465753 68.9095708,0.540739726 68.9322318,0.577534247 L69.249485,1.08753425 C69.3207725,1.20210959 69.2372103,1.34928767 69.1007725,1.34928767 L67.0664807,1.34928767 L65.7346781,1.34928767 L64.2201717,1.34928767 C64.1857082,1.34928767 64.1526609,1.34043836 64.1181974,1.33624658 C64.2678541,1.50671233 64.4817167,1.6110411 64.7144635,1.6110411 L66.22897,1.6110411 L67.5603004,1.6110411 L69.5950644,1.6110411 C69.7315021,1.6110411 69.8150644,1.46386301 69.7437768,1.34928767" id="Fill-213" fill="#524C60"></path>
            <path d="M68.3420086,6.69725479 L70.0179742,6.8742411 L73.5540258,7.25150137 L87.9437253,8.77451507 C88.2836395,8.81177534 88.5432961,9.09588493 88.5432961,9.43588493 L88.5432961,10.4325973 C88.5432961,10.8284877 88.1986609,11.1358849 87.7973734,11.0939671 L84.3179742,10.7260219 L84.3179742,10.7213644 L67.5866438,8.95150137 L52.9844979,7.4052 L52.0544549,7.30739178 L50.4729099,7.13972055 C50.1329957,7.10246027 49.8733391,6.81835068 49.8733391,6.47835068 L49.8733391,5.48163836 C49.8733391,5.08574795 50.2179742,4.77835068 50.6192618,4.82026849 L64.0647554,6.24547397 L68.3420086,6.69725479 Z" id="Fill-215" fill="#605D69"></path>
            <path d="M87.9909828,8.78886027 L87.9909828,9.55316164 C87.9909828,9.94905205 87.6463476,10.2564493 87.2450601,10.2145315 L83.7656609,9.8465863 L83.7656609,9.84192877 L67.0343305,8.07206575 L52.4321845,6.52576438 L51.5021416,6.42795616 L49.9205966,6.26028493 C49.9036009,6.25842192 49.8899099,6.24910685 49.8733863,6.24631233 L49.8733863,6.47872329 C49.8733863,6.81872329 50.1330429,7.10236712 50.4729571,7.1396274 L52.0545021,7.30729863 L52.9845451,7.40510685 L67.586691,8.95140822 L84.3180215,10.7212712 L84.3180215,10.7259288 L87.7974206,11.093874 C88.1987082,11.1362575 88.5433433,10.8283945 88.5433433,10.4325041 L88.5433433,9.43579178 C88.5433433,9.11302466 88.3058755,8.84707945 87.9909828,8.78886027" id="Fill-217" fill="#524C60"></path>
            <path d="M73.5540258,5.58885479 L73.5540258,7.25159452 L70.0179742,6.87433425 L70.0179742,5.58885479 C70.0179742,4.95543014 70.5372876,4.44310137 71.1746266,4.44310137 L72.3973734,4.44310137 C73.0347124,4.44310137 73.5540258,4.95543014 73.5540258,5.58885479" id="Fill-219" fill="#605D69"></path>
            <path d="M72.397515,4.44310137 L71.5878584,4.44310137 C72.2251974,4.44310137 72.7445107,4.95543014 72.7445107,5.58885479 L72.7445107,7.16496438 L73.5541674,7.25159452 L73.5541674,5.58885479 C73.5541674,4.95543014 73.0348541,4.44310137 72.397515,4.44310137" id="Fill-221" fill="#524C60"></path>
            <polygon id="Fill-223" fill="#FFFFFF" points="67.7424378 1.61127397 68.3420086 6.69730137 65.0892189 6.35357534 66.1184034 1.61127397"></polygon>
            <polygon id="Fill-225" fill="#DDE9F6" points="67.7424378 1.61127397 66.1184034 1.61127397 66.0277597 2.03292103 66.2288755 2.03292103 67.5606781 2.03292103 67.7915365 2.03292103"></polygon>
            <polygon id="Fill-227" fill="#DDE9F6" points="68.3420086 6.69725479 67.7424378 1.6112274 67.0541116 1.6112274 67.6447124 6.62366575"></polygon>
            <path d="M84.3181159,10.7259753 L67.5867854,8.95145479 L52.9846395,7.40515342 L52.0545966,7.30734521 L51.5919356,10.2183041 L66.8833519,10.2183041 C67.0721931,10.2183041 67.2610343,10.2276192 67.4451545,10.2462493 C70.2211202,10.5257014 72.3876009,12.8311808 72.3876009,15.6443315 L72.3876009,15.7188521 L50.8974721,15.7188521 L50.7232661,15.6909068 L50.397515,17.7355644 L55.0760558,17.7355644 L85.606485,17.7355644 L85.6116781,17.7355644 L84.3181159,10.7259753 Z" id="Fill-229" fill="#FFFFFF"></path>
            <path d="M84.3181159,10.7259753 L67.5867854,8.95145479 L52.9846395,7.40515342 L52.0545966,7.30734521 L51.8931373,8.32129041 L52.0545966,8.33852329 L52.9846395,8.43586575 L67.5867854,9.98216712 L81.5034378,11.4544137 C81.9783734,11.5047151 82.3631373,11.8572904 82.448588,12.3211808 L82.9740386,15.1683315 C83.0930086,15.8120027 82.5987167,16.4081671 81.935412,16.421674 L50.507515,17.0443863 L50.397515,17.7355644 L83.4475579,17.7355644 L85.606485,17.7355644 L85.6116781,17.7355644 L84.3181159,10.7259753 Z" id="Fill-231" fill="#DDE9F6"></path>
            <path d="M9.2917897,20.3680959 C8.6313176,20.2423425 7.98595279,20.1142603 7.3745794,19.980589 C4.84882833,19.4356575 2.76685408,18.8301781 1.22779828,18.1594932 L1.22779828,18.1548356 C0.91148927,18.0197671 0.623506438,17.8800411 0.354407725,17.7356575 L1.91234764,23.4225068 C1.91234764,23.4225068 4.66187554,23.949274 10.6386996,24.6483699 C10.0929485,23.1304795 9.63217597,21.5925616 9.2917897,20.3680959" id="Fill-233" fill="#DDE9F6"></path>
            <path d="M107.726635,32.4781507 C84.2876652,32.4222603 14.5316137,32.011 12.6668069,29.0879315 C11.9227725,27.9221507 11.2311416,26.2980685 10.6386524,24.6483699 C4.66182833,23.949274 1.91230043,23.4225068 1.91230043,23.4225068 L4.75908155,33.8041507 L107.361227,33.8041507 L108.980541,27.9263425 L107.726635,32.4781507 Z" id="Fill-235" fill="#E0902F"></path>
            <polygon id="Fill-237" fill="#FFFFFF" points="54.897412 10.2183973 51.4926052 15.7189452 53.6926052 15.7189452 57.097412 10.2183973"></polygon>
            <polygon id="Fill-239" fill="#FFFFFF" points="58.1922189 10.2183973 54.787412 15.7189452 55.2930343 15.7189452 58.6978412 10.2183973"></polygon>
            <polygon id="Fill-241" fill="#FFFFFF" points="61.4570944 10.2183973 58.0522876 15.7189452 59.0677811 15.7189452 62.472588 10.2183973"></polygon>
            <polygon id="Fill-243" fill="#FFFFFF" points="63.0411888 10.2183973 59.636382 15.7189452 61.2698584 15.7189452 64.6746652 10.2183973"></polygon>
            <path d="M68.3684936,10.4221644 L65.0897382,15.7191781 L65.6326567,15.7191781 L68.8207682,10.5688767 C68.6725279,10.5139178 68.521927,10.4645479 68.3684936,10.4221644" id="Fill-247" fill="#FFFFFF"></path>
            <path d="M69.2525536,10.7510329 L66.1772747,15.7192247 L67.1380043,15.7192247 L69.9640129,11.1534438 C69.7378755,11.0030055 69.5008798,10.867937 69.2525536,10.7510329" id="Fill-249" fill="#FFFFFF"></path>
            <path d="M108.621742,21.8902247 L108.611828,21.9041973 C108.228481,23.3061151 107.045863,24.286526 105.946335,24.2967726 C93.6952618,24.4090192 56.1059485,23.9511836 28.7055622,21.6182247 L27.5097253,22.6587178 C60.5663777,25.4858411 109.802,24.9548822 109.802,24.9548822 L109.802,23.912526 L109.802,21.8902247 L108.621742,21.8902247 Z" id="Fill-251" fill="#DDE9F6"></path>
            <polygon id="Fill-253" fill="#E0902F" points="107.361275 33.8041973 108.980588 27.926389 107.46797 27.9496767 105.749987 33.8041973"></polygon>
            <polygon id="Fill-255" fill="#DDE9F6" points="109.802 24.9548822 108.346506 24.9548822 107.467923 27.9496767 108.980541 27.926389 107.361227 33.8041973"></polygon>
            <path d="M40.7193562,20.2925973 L40.7193562,21.6106795 C40.7193562,22.1462959 40.2803004,22.574789 39.742103,22.574789 L39.5721459,22.574789 C39.0292275,22.574789 38.5948927,22.1462959 38.5948927,21.6106795 L38.5948927,20.2925973 C38.5948927,19.7616384 39.0292275,19.3284877 39.5721459,19.3284877 L39.742103,19.3284877 C40.2803004,19.3284877 40.7193562,19.7616384 40.7193562,20.2925973" id="Fill-257" fill="#5CA4AB"></path>
            <path d="M39.5720515,19.3285808 C39.3973734,19.3285808 39.2368584,19.3770192 39.0956996,19.4552658 L38.5947983,20.4608274 L38.5947983,21.6107726 C38.5947983,21.6121699 38.5952704,21.6131014 38.5952704,21.6144986 L39.7335107,19.3285808 L39.5720515,19.3285808 Z" id="Fill-259" fill="#FFFFFF"></path>
            <path d="M40.3081073,19.5100384 L38.9097382,22.3180658 C38.9526996,22.357189 38.9984936,22.3925863 39.0480644,22.4237918 L40.4426567,19.6236822 C40.4015837,19.5817644 40.3562618,19.5440384 40.3081073,19.5100384" id="Fill-261" fill="#FFFFFF"></path>
            <path d="M40.7193562,20.2925973 C40.7193562,20.2241315 40.7113305,20.1575288 40.6976395,20.092789 L39.466867,22.5645425 C39.5018026,22.5682685 39.535794,22.574789 39.5721459,22.574789 L39.6528755,22.574789 L40.7193562,20.432789 L40.7193562,20.2925973 Z" id="Fill-263" fill="#FFFFFF"></path>
            <path d="M40.7193562,20.8181534 L39.8497425,22.564263 C39.9975107,22.5479616 40.1353648,22.5018521 40.2557511,22.428263 L40.7193562,21.4972219 L40.7193562,20.8181534 Z" id="Fill-265" fill="#FFFFFF"></path>
            <path d="M48.0533348,20.2925973 L48.0533348,21.6106795 C48.0533348,22.1462959 47.614279,22.574789 47.0760815,22.574789 L46.9061245,22.574789 C46.363206,22.574789 45.9288712,22.1462959 45.9288712,21.6106795 L45.9288712,20.2925973 C45.9288712,19.7616384 46.363206,19.3284877 46.9061245,19.3284877 L47.0760815,19.3284877 C47.614279,19.3284877 48.0533348,19.7616384 48.0533348,20.2925973" id="Fill-267" fill="#5CA4AB"></path>
            <path d="M46.90603,19.3285808 C46.731824,19.3285808 46.5708369,19.3770192 46.4296781,19.4552658 L45.9287768,20.4608274 L45.9287768,21.6107726 C45.9287768,21.6121699 45.9292489,21.6131014 45.9292489,21.6144986 L47.0674893,19.3285808 L46.90603,19.3285808 Z" id="Fill-269" fill="#FFFFFF"></path>
            <path d="M48.0533348,20.2925973 C48.0533348,20.2241315 48.045309,20.1575288 48.031618,20.092789 L46.8008455,22.5645425 C46.8357811,22.5682685 46.8702446,22.574789 46.9061245,22.574789 L46.9868541,22.574789 L48.0533348,20.432789 L48.0533348,20.2925973 Z" id="Fill-273" fill="#FFFFFF"></path>
            <path d="M48.0533348,20.8181534 L47.183721,22.564263 C47.3314893,22.5479616 47.4693433,22.5018521 47.5897296,22.428263 L48.0533348,21.4972219 L48.0533348,20.8181534 Z" id="Fill-275" fill="#FFFFFF"></path>
            <path d="M55.3872661,20.2925973 L55.3872661,21.6106795 C55.3872661,22.1462959 54.9482103,22.574789 54.4100129,22.574789 L54.2400558,22.574789 C53.6971373,22.574789 53.2628026,22.1462959 53.2628026,21.6106795 L53.2628026,20.2925973 C53.2628026,19.7616384 53.6971373,19.3284877 54.2400558,19.3284877 L54.4100129,19.3284877 C54.9482103,19.3284877 55.3872661,19.7616384 55.3872661,20.2925973" id="Fill-277" fill="#5CA4AB"></path>
            <path d="M54.2402446,19.3285808 C54.0655665,19.3285808 53.9050515,19.3770192 53.7634206,19.4552658 L53.2629914,20.4608274 L53.2629914,21.6107726 C53.2629914,21.6121699 53.2634635,21.6131014 53.2634635,21.6144986 L54.4017039,19.3285808 L54.2402446,19.3285808 Z" id="Fill-279" fill="#FFFFFF"></path>
            <path d="M55.3872661,20.2925973 C55.3872661,20.2241315 55.3792403,20.1575288 55.3655494,20.092789 L54.1347768,22.5645425 C54.1697124,22.5682685 54.204176,22.574789 54.2400558,22.574789 L54.3207854,22.574789 L55.3872661,20.432789 L55.3872661,20.2925973 Z" id="Fill-283" fill="#FFFFFF"></path>
            <path d="M55.3872661,20.8181534 L54.5176524,22.564263 C54.6654206,22.5479616 54.8032747,22.5018521 54.9236609,22.428263 L55.3872661,21.4972219 L55.3872661,20.8181534 Z" id="Fill-285" fill="#FFFFFF"></path>
            <path d="M62.7214807,20.2925973 L62.7214807,21.6106795 C62.7214807,22.1462959 62.2824249,22.574789 61.7442275,22.574789 L61.5742704,22.574789 C61.0313519,22.574789 60.5970172,22.1462959 60.5970172,21.6106795 L60.5970172,20.2925973 C60.5970172,19.7616384 61.0313519,19.3284877 61.5742704,19.3284877 L61.7442275,19.3284877 C62.2824249,19.3284877 62.7214807,19.7616384 62.7214807,20.2925973" id="Fill-287" fill="#5CA4AB"></path>
            <path d="M61.574176,19.3285808 C61.3994979,19.3285808 61.2389828,19.3770192 61.097824,19.4552658 L60.5969227,20.4608274 L60.5969227,21.6107726 C60.5969227,21.6121699 60.5973948,21.6131014 60.5973948,21.6144986 L61.7356352,19.3285808 L61.574176,19.3285808 Z" id="Fill-289" fill="#FFFFFF"></path>
            <path d="M62.3102318,19.5100384 L60.9118627,22.3180658 C60.954824,22.357189 61.000618,22.3925863 61.0501888,22.4237918 L62.4447811,19.6236822 C62.4037082,19.5817644 62.3583863,19.5440384 62.3102318,19.5100384" id="Fill-291" fill="#FFFFFF"></path>
            <path d="M62.7214807,20.8181534 L61.851867,22.564263 C61.9996352,22.5479616 62.1374893,22.5018521 62.2578755,22.428263 L62.7214807,21.4972219 L62.7214807,20.8181534 Z" id="Fill-295" fill="#FFFFFF"></path>
            <path d="M70.0554592,20.2925973 L70.0554592,21.6106795 C70.0554592,22.1462959 69.6164034,22.574789 69.078206,22.574789 L68.9082489,22.574789 C68.3653305,22.574789 67.9309957,22.1462959 67.9309957,21.6106795 L67.9309957,20.2925973 C67.9309957,19.7616384 68.3653305,19.3284877 68.9082489,19.3284877 L69.078206,19.3284877 C69.6164034,19.3284877 70.0554592,19.7616384 70.0554592,20.2925973" id="Fill-297" fill="#5CA4AB"></path>
            <path d="M68.9081545,19.3285808 C68.7339485,19.3285808 68.5729614,19.3770192 68.4318026,19.4552658 L67.9309013,20.4608274 L67.9309013,21.6107726 C67.9309013,21.6121699 67.9313734,21.6131014 67.9313734,21.6144986 L69.0696137,19.3285808 L68.9081545,19.3285808 Z" id="Fill-299" fill="#FFFFFF"></path>
            <path d="M70.0554592,20.8181534 L69.1858455,22.564263 C69.3336137,22.5479616 69.4714678,22.5018521 69.5918541,22.428263 L70.0554592,21.4972219 L70.0554592,20.8181534 Z" id="Fill-305" fill="#FFFFFF"></path>
        </g>
    </g>
</svg>