<?xml version="1.0" encoding="UTF-8"?>
<svg width="120px" height="120px" viewBox="0 0 120 120" version="1.1" xmlns="http://www.w3.org/2000/svg" xmlns:xlink="http://www.w3.org/1999/xlink">
    <!-- Generator: Sketch 51.1 (57501) - http://www.bohemiancoding.com/sketch -->
    <title>Protractor1</title>
    <desc>Created with Sketch.</desc>
    <defs></defs>
    <g id="Protractor1" stroke="none" stroke-width="1" fill="none" fill-rule="evenodd">
        <g id="Group-8" transform="translate(0.000000, 21.000000)">
            <path d="M19.0236893,58.6671845 C19.6135922,36.6706796 37.6908738,18.9561165 59.8275728,18.9561165 C81.9638835,18.9561165 100.041553,36.6706796 100.631845,58.6671845 L19.0236893,58.6671845 Z M59.8275728,0.0858252427 C26.8625243,0.0858252427 0.138640777,26.8097087 0.138640777,59.7747573 L0.138640777,77.5374757 L119.516505,77.5374757 L119.516505,59.7747573 C119.516505,26.8097087 92.7930097,0.0858252427 59.8275728,0.0858252427 Z" id="Fill-66" fill="#F5C624"></path>
            <polygon id="Fill-67" fill="#B99834" points="3.62951456 77.5374757 4.53359223 77.5374757 4.53359223 74.3036893 3.62951456 74.3036893"></polygon>
            <polygon id="Fill-68" fill="#B99834" points="6.9976699 77.5374757 7.90174757 77.5374757 7.90174757 74.3036893 6.9976699 74.3036893"></polygon>
            <polygon id="Fill-69" fill="#B99834" points="10.3813592 77.5374757 11.2854369 77.5374757 11.2854369 74.3036893 10.3813592 74.3036893"></polygon>
            <polygon id="Fill-70" fill="#B99834" points="13.7495146 77.5374757 14.6535922 77.5374757 14.6535922 74.3036893 13.7495146 74.3036893"></polygon>
            <polygon id="Fill-71" fill="#B99834" points="17.1332039 77.5374757 18.0372816 77.5374757 18.0372816 74.3036893 17.1332039 74.3036893"></polygon>
            <polygon id="Fill-72" fill="#B99834" points="20.5168932 77.5374757 21.4209709 77.5374757 21.4209709 74.3036893 20.5168932 74.3036893"></polygon>
            <polygon id="Fill-73" fill="#B99834" points="23.9009709 77.5374757 24.8050485 77.5374757 24.8050485 74.3036893 23.9009709 74.3036893"></polygon>
            <polygon id="Fill-74" fill="#B99834" points="27.2691262 77.5374757 28.1732039 77.5374757 28.1732039 74.3036893 27.2691262 74.3036893"></polygon>
            <polygon id="Fill-75" fill="#B99834" points="30.6528155 77.5374757 31.5568932 77.5374757 31.5568932 74.3036893 30.6528155 74.3036893"></polygon>
            <polygon id="Fill-76" fill="#B99834" points="34.0209709 77.5374757 34.9250485 77.5374757 34.9250485 74.3036893 34.0209709 74.3036893"></polygon>
            <polygon id="Fill-77" fill="#B99834" points="37.4046602 77.5374757 38.3087379 77.5374757 38.3087379 74.3036893 37.4046602 74.3036893"></polygon>
            <polygon id="Fill-78" fill="#B99834" points="40.7728155 77.5374757 41.6768932 77.5374757 41.6768932 74.3036893 40.7728155 74.3036893"></polygon>
            <polygon id="Fill-79" fill="#B99834" points="44.1565049 77.5374757 45.0605825 77.5374757 45.0605825 74.3036893 44.1565049 74.3036893"></polygon>
            <polygon id="Fill-80" fill="#B99834" points="47.5401942 77.5374757 48.4442718 77.5374757 48.4442718 74.3036893 47.5401942 74.3036893"></polygon>
            <polygon id="Fill-81" fill="#B99834" points="50.9238835 77.5374757 51.8279612 77.5374757 51.8279612 74.3036893 50.9238835 74.3036893"></polygon>
            <polygon id="Fill-82" fill="#B99834" points="54.2920388 77.5374757 55.1961165 77.5374757 55.1961165 74.3036893 54.2920388 74.3036893"></polygon>
            <polygon id="Fill-83" fill="#B99834" points="57.6761165 77.5374757 58.5798058 77.5374757 58.5798058 74.3036893 57.6761165 74.3036893"></polygon>
            <polygon id="Fill-84" fill="#B99834" points="61.0598058 77.5374757 61.9638835 77.5374757 61.9638835 74.3036893 61.0598058 74.3036893"></polygon>
            <polygon id="Fill-85" fill="#B99834" points="64.4279612 77.5374757 65.3320388 77.5374757 65.3320388 74.3036893 64.4279612 74.3036893"></polygon>
            <polygon id="Fill-86" fill="#B99834" points="67.8116505 77.5374757 68.7157282 77.5374757 68.7157282 74.3036893 67.8116505 74.3036893"></polygon>
            <polygon id="Fill-87" fill="#B99834" points="71.1798058 77.5374757 72.0838835 77.5374757 72.0838835 74.3036893 71.1798058 74.3036893"></polygon>
            <polygon id="Fill-88" fill="#B99834" points="74.5634951 77.5374757 75.4675728 77.5374757 75.4675728 74.3036893 74.5634951 74.3036893"></polygon>
            <polygon id="Fill-89" fill="#B99834" points="77.9316505 77.5374757 78.8357282 77.5374757 78.8357282 74.3036893 77.9316505 74.3036893"></polygon>
            <polygon id="Fill-90" fill="#B99834" points="81.3153398 77.5374757 82.2194175 77.5374757 82.2194175 74.3036893 81.3153398 74.3036893"></polygon>
            <polygon id="Fill-91" fill="#B99834" points="84.6990291 77.5374757 85.6031068 77.5374757 85.6031068 74.3036893 84.6990291 74.3036893"></polygon>
            <polygon id="Fill-92" fill="#B99834" points="88.0827184 77.5374757 88.9867961 77.5374757 88.9867961 74.3036893 88.0827184 74.3036893"></polygon>
            <polygon id="Fill-93" fill="#B99834" points="91.4508738 77.5374757 92.3549515 77.5374757 92.3549515 74.3036893 91.4508738 74.3036893"></polygon>
            <polygon id="Fill-94" fill="#B99834" points="94.8349515 77.5374757 95.7386408 77.5374757 95.7386408 74.3036893 94.8349515 74.3036893"></polygon>
            <polygon id="Fill-95" fill="#B99834" points="98.2186408 77.5374757 99.1227184 77.5374757 99.1227184 74.3036893 98.2186408 74.3036893"></polygon>
            <polygon id="Fill-96" fill="#B99834" points="101.60233 77.5374757 102.506408 77.5374757 102.506408 74.3036893 101.60233 74.3036893"></polygon>
            <polygon id="Fill-97" fill="#B99834" points="104.986019 77.5374757 105.890097 77.5374757 105.890097 74.3036893 104.986019 74.3036893"></polygon>
            <polygon id="Fill-98" fill="#B99834" points="108.354175 77.5374757 109.258252 77.5374757 109.258252 74.3036893 108.354175 74.3036893"></polygon>
            <polygon id="Fill-99" fill="#B99834" points="111.737864 77.5374757 112.641942 77.5374757 112.641942 74.3036893 111.737864 74.3036893"></polygon>
            <polygon id="Fill-100" fill="#B99834" points="115.121553 77.5374757 116.025631 77.5374757 116.025631 74.3036893 115.121553 74.3036893"></polygon>
            <polygon id="Fill-101" fill="#B99834" points="59.4403883 2.6823301 60.2147573 2.6823301 60.2147573 0.0858252427 59.4403883 0.0858252427"></polygon>
            <polyline id="Fill-102" fill="#B99834" points="50.5001942 3.46446602 49.7374757 3.59883495 49.2869903 1.04194175 50.0493204 0.907572816 50.5001942 3.46446602"></polyline>
            <polyline id="Fill-103" fill="#B99834" points="41.0687379 5.9215534 40.3413592 6.18640777 39.4535922 3.74679612 40.1809709 3.48194175 41.0687379 5.9215534"></polyline>
            <polyline id="Fill-104" fill="#B99834" points="32.207767 9.97941748 31.5370874 10.3662136 30.2392233 8.11805825 30.9095146 7.73087379 32.207767 9.97941748"></polyline>
            <polyline id="Fill-105" fill="#B99834" points="24.1856311 15.5137864 23.5926214 16.0116505 21.9238835 14.0229126 22.5168932 13.5250485 24.1856311 15.5137864"></polyline>
            <polyline id="Fill-106" fill="#B99834" points="17.2466019 22.3576699 16.7491262 22.9506796 14.76 21.2819417 15.2578641 20.6885437 17.2466019 22.3576699"></polyline>
            <polyline id="Fill-107" fill="#B99834" points="11.6015534 30.3021359 11.2143689 30.9728155 8.96582524 29.6745631 9.35300971 29.0038835 11.6015534 30.3021359"></polyline>
            <polyline id="Fill-108" fill="#B99834" points="7.42135922 39.1064078 7.15650485 39.8337864 4.7168932 38.9460194 4.98174757 38.2182524 7.42135922 39.1064078"></polyline>
            <polyline id="Fill-109" fill="#B99834" points="4.83378641 48.5025243 4.69941748 49.2648544 2.14252427 48.8143689 2.27728155 48.0516505 4.83378641 48.5025243"></polyline>
            <polygon id="Fill-110" fill="#B99834" points="1.32116505 58.9798058 3.91728155 58.9798058 3.91728155 58.2054369 1.32116505 58.2054369"></polygon>
            <polygon id="Fill-111" fill="#B99834" points="115.737864 58.9798058 118.333981 58.9798058 118.333981 58.2054369 115.737864 58.2054369"></polygon>
            <polyline id="Fill-112" fill="#B99834" points="117.378252 48.0516505 117.512621 48.8143689 114.955728 49.2648544 114.821359 48.5025243 117.378252 48.0516505"></polyline>
            <polyline id="Fill-113" fill="#B99834" points="114.673398 38.2182524 114.938252 38.9460194 112.498641 39.8337864 112.233786 39.1064078 114.673398 38.2182524"></polyline>
            <polyline id="Fill-114" fill="#B99834" points="110.302136 29.0038835 110.68932 29.6745631 108.440777 30.9728155 108.053981 30.3021359 110.302136 29.0038835"></polyline>
            <polyline id="Fill-115" fill="#B99834" points="104.397282 20.6885437 104.895146 21.2819417 102.906408 22.9506796 102.408544 22.3576699 104.397282 20.6885437"></polyline>
            <polyline id="Fill-116" fill="#B99834" points="97.1382524 13.5250485 97.7312621 14.0229126 96.0625243 16.0116505 95.4695146 15.5137864 97.1382524 13.5250485"></polyline>
            <polyline id="Fill-117" fill="#B99834" points="88.7456311 7.73087379 89.4163107 8.11805825 88.1180583 10.3662136 87.4473786 9.97941748 88.7456311 7.73087379"></polyline>
            <polyline id="Fill-118" fill="#B99834" points="79.4741748 3.48194175 80.2019417 3.74679612 79.3137864 6.18640777 78.5864078 5.9215534 79.4741748 3.48194175"></polyline>
            <polyline id="Fill-119" fill="#B99834" points="69.6058252 0.907572816 70.3685437 1.04194175 69.9176699 3.59883495 69.1549515 3.46446602 69.6058252 0.907572816"></polyline>
            <polygon id="Fill-120" fill="#B99834" points="0.138640777 77.5374757 119.888155 77.5374757 119.888155 75.9203883 0.138640777 75.9203883"></polygon>
        </g>
    </g>
</svg>