<?xml version="1.0" encoding="UTF-8"?>
<svg width="480px" height="360px" viewBox="0 0 480 360" version="1.1" xmlns="http://www.w3.org/2000/svg" xmlns:xlink="http://www.w3.org/1999/xlink" style="background: #FFFFFF;">
    <!-- Generator: Sketch 48.2 (47327) - http://www.bohemiancoding.com/sketch -->
    <title>City</title>
    <desc>Created with Sketch.</desc>
    <defs>
        <polygon id="path-1" points="0.5436 0.8783 252.6646 0.8783 252.6646 172.85 0.5436 172.85"></polygon>
        <polygon id="path-3" points="0.0682 0.4033 199.1402 0.4033 199.1402 145.85 0.0682 145.85"></polygon>
        <polygon id="path-5" points="0.4212 0.4155 160.7872 0.4155 160.7872 129.85 0.4212 129.85"></polygon>
        <polygon id="path-7" points="0.2129 0.9139 5.2019 0.9139 5.2019 4.71 0.2129 4.71"></polygon>
        <polygon id="path-9" points="0.0117 0.4476 27.3197 0.4476 27.3197 89.71 0.0117 89.71"></polygon>
        <polygon id="path-11" points="0.1134 0.8716 43.4664 0.8716 43.4664 75.71 0.1134 75.71"></polygon>
        <polygon id="path-13" points="0.481 0.4147 32.5655 0.4147 32.5655 88.7547 0.481 88.7547"></polygon>
        <polygon id="path-15" points="0.2491 0.6199 26.0191 0.6199 26.0191 53.71 0.2491 53.71"></polygon>
        <polygon id="path-17" points="0.5392 0.8327 7.4962 0.8327 7.4962 8.71 0.5392 8.71"></polygon>
        <polygon id="path-19" points="0.4127 0.5309 38.4567 0.5309 38.4567 73.71 0.4127 73.71"></polygon>
        <polygon id="path-21" points="0.1143 0.6515 38.1573 0.6515 38.1573 32.71 0.1143 32.71"></polygon>
        <polygon id="path-23" points="0.0335507247 0.147144745 156.97 0.147144745 156.97 171.71 0.0335507247 171.71"></polygon>
        <polygon id="path-25" points="0.430369637 0.189936428 113.97 0.189936428 113.97 87.71 0.430369637 87.71"></polygon>
        <polygon id="path-27" points="0.604271404 0.993116548 109.1056 0.993116548 109.1056 34.71 0.604271404 34.71"></polygon>
        <polygon id="path-29" points="0.97 0.64595388 202.6262 0.64595388 202.6262 181.71 0.97 181.71"></polygon>
        <polygon id="path-31" points="0.97 0.00316216632 170.4901 0.00316216632 170.4901 95.71 0.97 95.71"></polygon>
    </defs>
    <g id="备份" stroke="none" stroke-width="1" fill="none" fill-rule="evenodd">
        <g id="City">
            <g id="Page-1" transform="translate(-1.000000, 0.000000)">
                <polygon id="Fill-1" fill="#B6D4F3" points="0.97 360 480.718 360 480.718 0 0.97 0"></polygon>
                <g id="Group-11" transform="translate(114.000000, 103.059000)">
                    <g id="Group-4">
                        <mask id="mask-2" fill="white">
                            <use xlink:href="#path-1"></use>
                        </mask>
                        <g id="Clip-3"></g>
                        <path d="M252.6646,126.9393 C252.6646,196.5613 196.2256,253.0003 126.6036,253.0003 C56.9826,253.0003 0.5436,196.5613 0.5436,126.9393 C0.5436,57.3183 56.9826,0.8783 126.6036,0.8783 C196.2256,0.8783 252.6646,57.3183 252.6646,126.9393" id="Fill-2" fill="#A4D5E8" mask="url(#mask-2)"></path>
                    </g>
                    <g id="Group-7" transform="translate(27.000000, 27.000000)">
                        <mask id="mask-4" fill="white">
                            <use xlink:href="#path-3"></use>
                        </mask>
                        <g id="Clip-6"></g>
                        <path d="M199.1402,99.9393 C199.1402,154.9113 154.5762,199.4753 99.6042,199.4753 C44.6322,199.4753 0.0682,154.9113 0.0682,99.9393 C0.0682,44.9673 44.6322,0.4033 99.6042,0.4033 C154.5762,0.4033 199.1402,44.9673 199.1402,99.9393" id="Fill-5" fill="#A4D5E8" mask="url(#mask-4)"></path>
                    </g>
                    <g id="Group-10" transform="translate(46.000000, 43.000000)">
                        <mask id="mask-6" fill="white">
                            <use xlink:href="#path-5"></use>
                        </mask>
                        <g id="Clip-9"></g>
                        <path d="M160.7872,80.5985 C160.7872,124.8825 124.8882,160.7815 80.6042,160.7815 C36.3202,160.7815 0.4212,124.8825 0.4212,80.5985 C0.4212,36.3145 36.3202,0.4155 80.6042,0.4155 C124.8882,0.4155 160.7872,36.3145 160.7872,80.5985" id="Fill-8" fill="#A4D5E8" mask="url(#mask-6)"></path>
                    </g>
                </g>
                <g id="Group-333" transform="translate(4.000000, 132.000000)">
                    <path d="M285.189,153.598 L271.039,153.598 C268.253,153.598 265.995,151.34 265.995,148.555 L265.995,121.656 C265.995,118.87 268.253,116.612 271.039,116.612 L285.189,116.612 C287.975,116.612 290.233,118.87 290.233,121.656 L290.233,148.555 C290.233,151.34 287.975,153.598 285.189,153.598" id="Fill-12" fill="#5A74A3"></path>
                    <g id="Group-25" transform="translate(271.000000, 121.000000)">
                        <path d="M3.7549,16.5604 L1.6599,16.5604 C0.8599,16.5604 0.2129,15.9124 0.2129,15.1134 L0.2129,11.1734 C0.2129,10.3744 0.8599,9.7264 1.6599,9.7264 L3.7549,9.7264 C4.5539,9.7264 5.2019,10.3744 5.2019,11.1734 L5.2019,15.1134 C5.2019,15.9124 4.5539,16.5604 3.7549,16.5604" id="Fill-14" fill="#758AB5"></path>
                        <path d="M3.7549,25.9559 L1.6599,25.9559 C0.8599,25.9559 0.2129,25.3079 0.2129,24.5089 L0.2129,20.5689 C0.2129,19.7699 0.8599,19.1229 1.6599,19.1229 L3.7549,19.1229 C4.5539,19.1229 5.2019,19.7699 5.2019,20.5689 L5.2019,24.5089 C5.2019,25.3079 4.5539,25.9559 3.7549,25.9559" id="Fill-16" fill="#758AB5"></path>
                        <path d="M3.7549,35.3514 L1.6599,35.3514 C0.8599,35.3514 0.2129,34.7034 0.2129,33.9044 L0.2129,29.9654 C0.2129,29.1654 0.8599,28.5184 1.6599,28.5184 L3.7549,28.5184 C4.5539,28.5184 5.2019,29.1654 5.2019,29.9654 L5.2019,33.9044 C5.2019,34.7034 4.5539,35.3514 3.7549,35.3514" id="Fill-18" fill="#758AB5"></path>
                        <g id="Group-22" transform="translate(0.000000, 37.000000)">
                            <mask id="mask-8" fill="white">
                                <use xlink:href="#path-7"></use>
                            </mask>
                            <g id="Clip-21"></g>
                            <path d="M3.7549,7.7469 L1.6599,7.7469 C0.8599,7.7469 0.2129,7.0989 0.2129,6.2999 L0.2129,2.3609 C0.2129,1.5609 0.8599,0.9139 1.6599,0.9139 L3.7549,0.9139 C4.5539,0.9139 5.2019,1.5609 5.2019,2.3609 L5.2019,6.2999 C5.2019,7.0989 4.5539,7.7469 3.7549,7.7469" id="Fill-20" fill="#758AB5" mask="url(#mask-8)"></path>
                        </g>
                        <path d="M3.463,6.8831 L1.54,6.8831 C0.807,6.8831 0.213,6.2881 0.213,5.5551 L0.213,1.9411 C0.213,1.2071 0.807,0.6121 1.54,0.6121 L3.463,0.6121 C4.196,0.6121 4.791,1.2071 4.791,1.9411 L4.791,5.5551 C4.791,6.2881 4.196,6.8831 3.463,6.8831" id="Fill-23" fill="#758AB5"></path>
                    </g>
                    <g id="Group-28" transform="translate(135.000000, 73.000000)">
                        <mask id="mask-10" fill="white">
                            <use xlink:href="#path-9"></use>
                        </mask>
                        <g id="Clip-27"></g>
                        <path d="M5.0557,94.8846 L22.2767,94.8846 C25.0617,94.8846 27.3197,92.6266 27.3197,89.8416 L27.3197,5.4916 C27.3197,2.7056 25.0617,0.4476 22.2767,0.4476 L5.0557,0.4476 C2.2697,0.4476 0.0117,2.7056 0.0117,5.4916 L0.0117,89.8416 C0.0117,92.6266 2.2697,94.8846 5.0557,94.8846" id="Fill-26" fill="#5A74A3" mask="url(#mask-10)"></path>
                    </g>
                    <g id="Group-41" transform="translate(140.000000, 80.000000)" fill="#758AB5">
                        <path d="M3.8926,16.4886 L1.7966,16.4886 C0.9976,16.4886 0.3506,15.8406 0.3506,15.0416 L0.3506,11.1016 C0.3506,10.3026 0.9976,9.6546 1.7966,9.6546 L3.8926,9.6546 C4.6916,9.6546 5.3396,10.3026 5.3396,11.1016 L5.3396,15.0416 C5.3396,15.8406 4.6916,16.4886 3.8926,16.4886" id="Fill-29"></path>
                        <path d="M3.8926,25.8841 L1.7966,25.8841 C0.9976,25.8841 0.3506,25.2361 0.3506,24.4371 L0.3506,20.4971 C0.3506,19.6981 0.9976,19.0501 1.7966,19.0501 L3.8926,19.0501 C4.6916,19.0501 5.3396,19.6981 5.3396,20.4971 L5.3396,24.4371 C5.3396,25.2361 4.6916,25.8841 3.8926,25.8841" id="Fill-31"></path>
                        <path d="M3.8926,35.2796 L1.7966,35.2796 C0.9976,35.2796 0.3506,34.6316 0.3506,33.8326 L0.3506,29.8926 C0.3506,29.0936 0.9976,28.4456 1.7966,28.4456 L3.8926,28.4456 C4.6916,28.4456 5.3396,29.0936 5.3396,29.8926 L5.3396,33.8326 C5.3396,34.6316 4.6916,35.2796 3.8926,35.2796" id="Fill-33"></path>
                        <path d="M3.8926,44.6751 L1.7966,44.6751 C0.9976,44.6751 0.3506,44.0271 0.3506,43.2281 L0.3506,39.2881 C0.3506,38.4891 0.9976,37.8411 1.7966,37.8411 L3.8926,37.8411 C4.6916,37.8411 5.3396,38.4891 5.3396,39.2881 L5.3396,43.2281 C5.3396,44.0271 4.6916,44.6751 3.8926,44.6751" id="Fill-35"></path>
                        <path d="M3.8926,54.5018 L1.7966,54.5018 C0.9976,54.5018 0.3506,53.8538 0.3506,53.0548 L0.3506,49.1148 C0.3506,48.3158 0.9976,47.6678 1.7966,47.6678 L3.8926,47.6678 C4.6916,47.6678 5.3396,48.3158 5.3396,49.1148 L5.3396,53.0548 C5.3396,53.8538 4.6916,54.5018 3.8926,54.5018" id="Fill-37"></path>
                        <path d="M3.6006,6.8109 L1.6776,6.8109 C0.9446,6.8109 0.3506,6.2169 0.3506,5.4829 L0.3506,1.8689 C0.3506,1.1359 0.9446,0.5409 1.6776,0.5409 L3.6006,0.5409 C4.3336,0.5409 4.9286,1.1359 4.9286,1.8689 L4.9286,5.4829 C4.9286,6.2169 4.3336,6.8109 3.6006,6.8109" id="Fill-39"></path>
                    </g>
                    <g id="Group-54" transform="translate(151.000000, 80.000000)" fill="#758AB5">
                        <path d="M4.4258,16.4886 L2.3298,16.4886 C1.5308,16.4886 0.8838,15.8406 0.8838,15.0416 L0.8838,11.1016 C0.8838,10.3026 1.5308,9.6546 2.3298,9.6546 L4.4258,9.6546 C5.2248,9.6546 5.8728,10.3026 5.8728,11.1016 L5.8728,15.0416 C5.8728,15.8406 5.2248,16.4886 4.4258,16.4886" id="Fill-42"></path>
                        <path d="M4.4258,25.8841 L2.3298,25.8841 C1.5308,25.8841 0.8838,25.2361 0.8838,24.4371 L0.8838,20.4971 C0.8838,19.6981 1.5308,19.0501 2.3298,19.0501 L4.4258,19.0501 C5.2248,19.0501 5.8728,19.6981 5.8728,20.4971 L5.8728,24.4371 C5.8728,25.2361 5.2248,25.8841 4.4258,25.8841" id="Fill-44"></path>
                        <path d="M4.4258,35.2796 L2.3298,35.2796 C1.5308,35.2796 0.8838,34.6316 0.8838,33.8326 L0.8838,29.8926 C0.8838,29.0936 1.5308,28.4456 2.3298,28.4456 L4.4258,28.4456 C5.2248,28.4456 5.8728,29.0936 5.8728,29.8926 L5.8728,33.8326 C5.8728,34.6316 5.2248,35.2796 4.4258,35.2796" id="Fill-46"></path>
                        <path d="M4.4258,44.6751 L2.3298,44.6751 C1.5308,44.6751 0.8838,44.0271 0.8838,43.2281 L0.8838,39.2881 C0.8838,38.4891 1.5308,37.8411 2.3298,37.8411 L4.4258,37.8411 C5.2248,37.8411 5.8728,38.4891 5.8728,39.2881 L5.8728,43.2281 C5.8728,44.0271 5.2248,44.6751 4.4258,44.6751" id="Fill-48"></path>
                        <path d="M4.4258,54.5018 L2.3298,54.5018 C1.5308,54.5018 0.8838,53.8538 0.8838,53.0548 L0.8838,49.1148 C0.8838,48.3158 1.5308,47.6678 2.3298,47.6678 L4.4258,47.6678 C5.2248,47.6678 5.8728,48.3158 5.8728,49.1148 L5.8728,53.0548 C5.8728,53.8538 5.2248,54.5018 4.4258,54.5018" id="Fill-50"></path>
                        <path d="M4.1339,6.8109 L2.2109,6.8109 C1.4779,6.8109 0.8839,6.2169 0.8839,5.4829 L0.8839,1.8689 C0.8839,1.1359 1.4779,0.5409 2.2109,0.5409 L4.1339,0.5409 C4.8669,0.5409 5.4619,1.1359 5.4619,1.8689 L5.4619,5.4829 C5.4619,6.2169 4.8669,6.8109 4.1339,6.8109" id="Fill-52"></path>
                    </g>
                    <path d="M346.2354,159.4144 L321.0374,159.4144 C318.2524,159.4144 315.9944,157.1564 315.9944,154.3704 L315.9944,100.5264 C315.9944,97.7404 318.2524,95.4824 321.0374,95.4824 L346.2354,95.4824 C349.0214,95.4824 351.2794,97.7404 351.2794,100.5264 L351.2794,154.3704 C351.2794,157.1564 349.0214,159.4144 346.2354,159.4144" id="Fill-55" fill="#5A74A3"></path>
                    <g id="Group-67" transform="translate(322.000000, 100.000000)" fill="#758AB5">
                        <path d="M5.6695,23.2083 L2.7485,23.2083 C1.6335,23.2083 0.7305,22.3053 0.7305,21.1903 L0.7305,15.6983 C0.7305,14.5843 1.6335,13.6813 2.7485,13.6813 L5.6695,13.6813 C6.7835,13.6813 7.6875,14.5843 7.6875,15.6983 L7.6875,21.1903 C7.6875,22.3053 6.7835,23.2083 5.6695,23.2083" id="Fill-57"></path>
                        <path d="M5.6695,36.307 L2.7485,36.307 C1.6335,36.307 0.7305,35.404 0.7305,34.289 L0.7305,28.797 C0.7305,27.683 1.6335,26.78 2.7485,26.78 L5.6695,26.78 C6.7835,26.78 7.6875,27.683 7.6875,28.797 L7.6875,34.289 C7.6875,35.404 6.7835,36.307 5.6695,36.307" id="Fill-59"></path>
                        <path d="M5.6695,49.4056 L2.7485,49.4056 C1.6335,49.4056 0.7305,48.5026 0.7305,47.3876 L0.7305,41.8956 C0.7305,40.7816 1.6335,39.8786 2.7485,39.8786 L5.6695,39.8786 C6.7835,39.8786 7.6875,40.7816 7.6875,41.8956 L7.6875,47.3876 C7.6875,48.5026 6.7835,49.4056 5.6695,49.4056" id="Fill-61"></path>
                        <path d="M5.6695,62.5042 L2.7485,62.5042 C1.6335,62.5042 0.7305,61.6012 0.7305,60.4862 L0.7305,54.9942 C0.7305,53.8802 1.6335,52.9772 2.7485,52.9772 L5.6695,52.9772 C6.7835,52.9772 7.6875,53.8802 7.6875,54.9942 L7.6875,60.4862 C7.6875,61.6012 6.7835,62.5042 5.6695,62.5042" id="Fill-63"></path>
                        <path d="M5.2623,9.7171 L2.5813,9.7171 C1.5593,9.7171 0.7303,8.8881 0.7303,7.8651 L0.7303,2.8261 C0.7303,1.8041 1.5593,0.9751 2.5813,0.9751 L5.2623,0.9751 C6.2843,0.9751 7.1133,1.8041 7.1133,2.8261 L7.1133,7.8651 C7.1133,8.8881 6.2843,9.7171 5.2623,9.7171" id="Fill-65"></path>
                    </g>
                    <g id="Group-78" transform="translate(337.000000, 100.000000)" fill="#758AB5">
                        <path d="M5.1221,23.1136 L2.2011,23.1136 C1.0861,23.1136 0.1831,22.2106 0.1831,21.0956 L0.1831,15.6036 C0.1831,14.4896 1.0861,13.5866 2.2011,13.5866 L5.1221,13.5866 C6.2361,13.5866 7.1401,14.4896 7.1401,15.6036 L7.1401,21.0956 C7.1401,22.2106 6.2361,23.1136 5.1221,23.1136" id="Fill-68"></path>
                        <path d="M5.1221,36.2118 L2.2011,36.2118 C1.0861,36.2118 0.1831,35.3088 0.1831,34.1938 L0.1831,28.7028 C0.1831,27.5878 1.0861,26.6848 2.2011,26.6848 L5.1221,26.6848 C6.2361,26.6848 7.1401,27.5878 7.1401,28.7028 L7.1401,34.1938 C7.1401,35.3088 6.2361,36.2118 5.1221,36.2118" id="Fill-70"></path>
                        <path d="M5.1221,49.3104 L2.2011,49.3104 C1.0861,49.3104 0.1831,48.4074 0.1831,47.2924 L0.1831,41.8014 C0.1831,40.6864 1.0861,39.7834 2.2011,39.7834 L5.1221,39.7834 C6.2361,39.7834 7.1401,40.6864 7.1401,41.8014 L7.1401,47.2924 C7.1401,48.4074 6.2361,49.3104 5.1221,49.3104" id="Fill-72"></path>
                        <path d="M5.1221,62.409 L2.2011,62.409 C1.0861,62.409 0.1831,61.506 0.1831,60.391 L0.1831,54.9 C0.1831,53.785 1.0861,52.882 2.2011,52.882 L5.1221,52.882 C6.2361,52.882 7.1401,53.785 7.1401,54.9 L7.1401,60.391 C7.1401,61.506 6.2361,62.409 5.1221,62.409" id="Fill-74"></path>
                        <path d="M4.7149,9.6219 L2.0339,9.6219 C1.0119,9.6219 0.1829,8.7929 0.1829,7.7709 L0.1829,2.7319 C0.1829,1.7089 1.0119,0.8809 2.0339,0.8809 L4.7149,0.8809 C5.7369,0.8809 6.5659,1.7089 6.5659,2.7319 L6.5659,7.7709 C6.5659,8.7929 5.7369,9.6219 4.7149,9.6219" id="Fill-76"></path>
                    </g>
                    <path d="M431.9981,6.0814 C431.6831,2.9344 429.0341,0.5374 425.8711,0.5374 L417.6661,0.5374 L417.3541,0.5374 L409.1501,0.5374 C405.9871,0.5374 403.3381,2.9344 403.0221,6.0814 L390.1681,134.3704 C389.8051,137.9964 392.6521,141.1434 396.2961,141.1434 L417.3541,141.1434 L417.6661,141.1434 L438.7251,141.1434 C442.3691,141.1434 445.2161,137.9964 444.8521,134.3704 L431.9981,6.0814 Z" id="Fill-79" fill="#5A74A3"></path>
                    <g id="Group-127" transform="translate(398.000000, 11.000000)" fill="#758AB5">
                        <path d="M28.3209,34.5702 L25.3999,34.5702 C24.2849,34.5702 23.3819,33.6672 23.3819,32.5522 L23.3819,27.0602 C23.3819,25.9462 24.2849,25.0432 25.3999,25.0432 L28.3209,25.0432 C29.4349,25.0432 30.3389,25.9462 30.3389,27.0602 L30.3389,32.5522 C30.3389,33.6672 29.4349,34.5702 28.3209,34.5702" id="Fill-81"></path>
                        <path d="M9.8843,49.6151 L6.9633,49.6151 C5.8483,49.6151 4.9453,48.7121 4.9453,47.5971 L4.9453,42.1051 C4.9453,40.9911 5.8483,40.0881 6.9633,40.0881 L9.8843,40.0881 C10.9983,40.0881 11.9023,40.9911 11.9023,42.1051 L11.9023,47.5971 C11.9023,48.7121 10.9983,49.6151 9.8843,49.6151" id="Fill-83"></path>
                        <path d="M21.732,49.6151 L18.811,49.6151 C17.696,49.6151 16.793,48.7121 16.793,47.5971 L16.793,42.1051 C16.793,40.9911 17.696,40.0881 18.811,40.0881 L21.732,40.0881 C22.846,40.0881 23.75,40.9911 23.75,42.1051 L23.75,47.5971 C23.75,48.7121 22.846,49.6151 21.732,49.6151" id="Fill-85"></path>
                        <path d="M32.9547,49.6151 L30.0337,49.6151 C28.9187,49.6151 28.0157,48.7121 28.0157,47.5971 L28.0157,42.1051 C28.0157,40.9911 28.9187,40.0881 30.0337,40.0881 L32.9547,40.0881 C34.0687,40.0881 34.9727,40.9911 34.9727,42.1051 L34.9727,47.5971 C34.9727,48.7121 34.0687,49.6151 32.9547,49.6151" id="Fill-87"></path>
                        <path d="M9.8843,63.2962 L6.9633,63.2962 C5.8483,63.2962 4.9453,62.3932 4.9453,61.2782 L4.9453,55.7872 C4.9453,54.6722 5.8483,53.7692 6.9633,53.7692 L9.8843,53.7692 C10.9983,53.7692 11.9023,54.6722 11.9023,55.7872 L11.9023,61.2782 C11.9023,62.3932 10.9983,63.2962 9.8843,63.2962" id="Fill-89"></path>
                        <path d="M21.732,63.2962 L18.811,63.2962 C17.696,63.2962 16.793,62.3932 16.793,61.2782 L16.793,55.7872 C16.793,54.6722 17.696,53.7692 18.811,53.7692 L21.732,53.7692 C22.846,53.7692 23.75,54.6722 23.75,55.7872 L23.75,61.2782 C23.75,62.3932 22.846,63.2962 21.732,63.2962" id="Fill-91"></path>
                        <path d="M32.9547,63.2962 L30.0337,63.2962 C28.9187,63.2962 28.0157,62.3932 28.0157,61.2782 L28.0157,55.7872 C28.0157,54.6722 28.9187,53.7692 30.0337,53.7692 L32.9547,53.7692 C34.0687,53.7692 34.9727,54.6722 34.9727,55.7872 L34.9727,61.2782 C34.9727,62.3932 34.0687,63.2962 32.9547,63.2962" id="Fill-93"></path>
                        <path d="M9.8843,76.7845 L6.9633,76.7845 C5.8483,76.7845 4.9453,75.8815 4.9453,74.7665 L4.9453,69.2755 C4.9453,68.1605 5.8483,67.2575 6.9633,67.2575 L9.8843,67.2575 C10.9983,67.2575 11.9023,68.1605 11.9023,69.2755 L11.9023,74.7665 C11.9023,75.8815 10.9983,76.7845 9.8843,76.7845" id="Fill-95"></path>
                        <path d="M21.732,76.7845 L18.811,76.7845 C17.696,76.7845 16.793,75.8815 16.793,74.7665 L16.793,69.2755 C16.793,68.1605 17.696,67.2575 18.811,67.2575 L21.732,67.2575 C22.846,67.2575 23.75,68.1605 23.75,69.2755 L23.75,74.7665 C23.75,75.8815 22.846,76.7845 21.732,76.7845" id="Fill-97"></path>
                        <path d="M32.9547,76.7845 L30.0337,76.7845 C28.9187,76.7845 28.0157,75.8815 28.0157,74.7665 L28.0157,69.2755 C28.0157,68.1605 28.9187,67.2575 30.0337,67.2575 L32.9547,67.2575 C34.0687,67.2575 34.9727,68.1605 34.9727,69.2755 L34.9727,74.7665 C34.9727,75.8815 34.0687,76.7845 32.9547,76.7845" id="Fill-99"></path>
                        <path d="M39.9112,90.7084 L36.9902,90.7084 C35.8752,90.7084 34.9722,89.8054 34.9722,88.6904 L34.9722,83.1994 C34.9722,82.0844 35.8752,81.1814 36.9902,81.1814 L39.9112,81.1814 C41.0252,81.1814 41.9292,82.0844 41.9292,83.1994 L41.9292,88.6904 C41.9292,89.8054 41.0252,90.7084 39.9112,90.7084" id="Fill-101"></path>
                        <path d="M5.2501,90.7084 L2.3291,90.7084 C1.2141,90.7084 0.3111,89.8054 0.3111,88.6904 L0.3111,83.1994 C0.3111,82.0844 1.2141,81.1814 2.3291,81.1814 L5.2501,81.1814 C6.3641,81.1814 7.2681,82.0844 7.2681,83.1994 L7.2681,88.6904 C7.2681,89.8054 6.3641,90.7084 5.2501,90.7084" id="Fill-103"></path>
                        <path d="M17.0982,90.7084 L14.1762,90.7084 C13.0622,90.7084 12.1592,89.8054 12.1592,88.6904 L12.1592,83.1994 C12.1592,82.0844 13.0622,81.1814 14.1762,81.1814 L17.0982,81.1814 C18.2122,81.1814 19.1152,82.0844 19.1152,83.1994 L19.1152,88.6904 C19.1152,89.8054 18.2122,90.7084 17.0982,90.7084" id="Fill-105"></path>
                        <path d="M28.3209,90.7084 L25.3999,90.7084 C24.2849,90.7084 23.3819,89.8054 23.3819,88.6904 L23.3819,83.1994 C23.3819,82.0844 24.2849,81.1814 25.3999,81.1814 L28.3209,81.1814 C29.4349,81.1814 30.3389,82.0844 30.3389,83.1994 L30.3389,88.6904 C30.3389,89.8054 29.4349,90.7084 28.3209,90.7084" id="Fill-107"></path>
                        <path d="M39.9112,104.7933 L36.9902,104.7933 C35.8752,104.7933 34.9722,103.8903 34.9722,102.7753 L34.9722,97.2843 C34.9722,96.1693 35.8752,95.2663 36.9902,95.2663 L39.9112,95.2663 C41.0252,95.2663 41.9292,96.1693 41.9292,97.2843 L41.9292,102.7753 C41.9292,103.8903 41.0252,104.7933 39.9112,104.7933" id="Fill-109"></path>
                        <path d="M5.2501,104.7933 L2.3291,104.7933 C1.2141,104.7933 0.3111,103.8903 0.3111,102.7753 L0.3111,97.2843 C0.3111,96.1693 1.2141,95.2663 2.3291,95.2663 L5.2501,95.2663 C6.3641,95.2663 7.2681,96.1693 7.2681,97.2843 L7.2681,102.7753 C7.2681,103.8903 6.3641,104.7933 5.2501,104.7933" id="Fill-111"></path>
                        <path d="M17.0982,104.7933 L14.1762,104.7933 C13.0622,104.7933 12.1592,103.8903 12.1592,102.7753 L12.1592,97.2843 C12.1592,96.1693 13.0622,95.2663 14.1762,95.2663 L17.0982,95.2663 C18.2122,95.2663 19.1152,96.1693 19.1152,97.2843 L19.1152,102.7753 C19.1152,103.8903 18.2122,104.7933 17.0982,104.7933" id="Fill-113"></path>
                        <path d="M28.3209,104.7933 L25.3999,104.7933 C24.2849,104.7933 23.3819,103.8903 23.3819,102.7753 L23.3819,97.2843 C23.3819,96.1693 24.2849,95.2663 25.3999,95.2663 L28.3209,95.2663 C29.4349,95.2663 30.3389,96.1693 30.3389,97.2843 L30.3389,102.7753 C30.3389,103.8903 29.4349,104.7933 28.3209,104.7933" id="Fill-115"></path>
                        <path d="M12.9551,34.1771 L10.2741,34.1771 C9.2521,34.1771 8.4231,33.3481 8.4231,32.3261 L8.4231,27.2871 C8.4231,26.2641 9.2521,25.4361 10.2741,25.4361 L12.9551,25.4361 C13.9771,25.4361 14.8061,26.2641 14.8061,27.2871 L14.8061,32.3261 C14.8061,33.3481 13.9771,34.1771 12.9551,34.1771" id="Fill-117"></path>
                        <path d="M28.3209,22.4877 L25.3999,22.4877 C24.2849,22.4877 23.3819,21.5847 23.3819,20.4697 L23.3819,14.9777 C23.3819,13.8637 24.2849,12.9607 25.3999,12.9607 L28.3209,12.9607 C29.4349,12.9607 30.3389,13.8637 30.3389,14.9777 L30.3389,20.4697 C30.3389,21.5847 29.4349,22.4877 28.3209,22.4877" id="Fill-119"></path>
                        <path d="M12.9551,22.0946 L10.2741,22.0946 C9.2521,22.0946 8.4231,21.2656 8.4231,20.2436 L8.4231,15.2046 C8.4231,14.1816 9.2521,13.3536 10.2741,13.3536 L12.9551,13.3536 C13.9771,13.3536 14.8061,14.1816 14.8061,15.2046 L14.8061,20.2436 C14.8061,21.2656 13.9771,22.0946 12.9551,22.0946" id="Fill-121"></path>
                        <path d="M28.3209,10.1595 L25.3999,10.1595 C24.2849,10.1595 23.3819,9.2565 23.3819,8.1415 L23.3819,2.6495 C23.3819,1.5355 24.2849,0.6325 25.3999,0.6325 L28.3209,0.6325 C29.4349,0.6325 30.3389,1.5355 30.3389,2.6495 L30.3389,8.1415 C30.3389,9.2565 29.4349,10.1595 28.3209,10.1595" id="Fill-123"></path>
                        <path d="M12.9551,9.7665 L10.2741,9.7665 C9.2521,9.7665 8.4231,8.9375 8.4231,7.9155 L8.4231,2.8765 C8.4231,1.8535 9.2521,1.0255 10.2741,1.0255 L12.9551,1.0255 C13.9771,1.0255 14.8061,1.8535 14.8061,2.8765 L14.8061,7.9155 C14.8061,8.9375 13.9771,9.7665 12.9551,9.7665" id="Fill-125"></path>
                    </g>
                    <g id="Group-130" transform="translate(278.000000, 87.000000)">
                        <mask id="mask-12" fill="white">
                            <use xlink:href="#path-11"></use>
                        </mask>
                        <g id="Clip-129"></g>
                        <path d="M38.4234,83.1146 L5.1574,83.1146 C2.3724,83.1146 0.1134,80.8566 0.1134,78.0706 L0.1134,5.9156 C0.1134,3.1306 2.3724,0.8716 5.1574,0.8716 L38.4234,0.8716 C41.2094,0.8716 43.4664,3.1306 43.4664,5.9156 L43.4664,78.0706 C43.4664,80.8566 41.2094,83.1146 38.4234,83.1146" id="Fill-128" fill="#2F4772" mask="url(#mask-12)"></path>
                    </g>
                    <path d="M288.4371,106.7972 L285.5161,106.7972 C284.4011,106.7972 283.4981,105.8942 283.4981,104.7792 L283.4981,99.2872 C283.4981,98.1732 284.4011,97.2702 285.5161,97.2702 L288.4371,97.2702 C289.5511,97.2702 290.4551,98.1732 290.4551,99.2872 L290.4551,104.7792 C290.4551,105.8942 289.5511,106.7972 288.4371,106.7972" id="Fill-131" fill="#5A74A3"></path>
                    <path d="M288.4371,119.8958 L285.5161,119.8958 C284.4011,119.8958 283.4981,118.9928 283.4981,117.8778 L283.4981,112.3858 C283.4981,111.2718 284.4011,110.3688 285.5161,110.3688 L288.4371,110.3688 C289.5511,110.3688 290.4551,111.2718 290.4551,112.3858 L290.4551,117.8778 C290.4551,118.9928 289.5511,119.8958 288.4371,119.8958" id="Fill-133" fill="#5A74A3"></path>
                    <path d="M288.4371,132.994 L285.5161,132.994 C284.4011,132.994 283.4981,132.091 283.4981,130.977 L283.4981,125.485 C283.4981,124.37 284.4011,123.467 285.5161,123.467 L288.4371,123.467 C289.5511,123.467 290.4551,124.37 290.4551,125.485 L290.4551,130.977 C290.4551,132.091 289.5511,132.994 288.4371,132.994" id="Fill-135" fill="#5A74A3"></path>
                    <path d="M288.4371,146.0926 L285.5161,146.0926 C284.4011,146.0926 283.4981,145.1896 283.4981,144.0746 L283.4981,138.5836 C283.4981,137.4686 284.4011,136.5656 285.5161,136.5656 L288.4371,136.5656 C289.5511,136.5656 290.4551,137.4686 290.4551,138.5836 L290.4551,144.0746 C290.4551,145.1896 289.5511,146.0926 288.4371,146.0926" id="Fill-137" fill="#5A74A3"></path>
                    <path d="M288.4371,159.1913 L285.5161,159.1913 C284.4011,159.1913 283.4981,158.2883 283.4981,157.1733 L283.4981,151.6823 C283.4981,150.5673 284.4011,149.6643 285.5161,149.6643 L288.4371,149.6643 C289.5511,149.6643 290.4551,150.5673 290.4551,151.6823 L290.4551,157.1733 C290.4551,158.2883 289.5511,159.1913 288.4371,159.1913" id="Fill-139" fill="#5A74A3"></path>
                    <path d="M301.251,119.8958 L298.33,119.8958 C297.215,119.8958 296.312,118.9928 296.312,117.8778 L296.312,112.3858 C296.312,111.2718 297.215,110.3688 298.33,110.3688 L301.251,110.3688 C302.365,110.3688 303.269,111.2718 303.269,112.3858 L303.269,117.8778 C303.269,118.9928 302.365,119.8958 301.251,119.8958" id="Fill-141" fill="#5A74A3"></path>
                    <path d="M301.251,132.994 L298.33,132.994 C297.215,132.994 296.312,132.091 296.312,130.977 L296.312,125.485 C296.312,124.37 297.215,123.467 298.33,123.467 L301.251,123.467 C302.365,123.467 303.269,124.37 303.269,125.485 L303.269,130.977 C303.269,132.091 302.365,132.994 301.251,132.994" id="Fill-143" fill="#5A74A3"></path>
                    <path d="M301.251,146.0926 L298.33,146.0926 C297.215,146.0926 296.312,145.1896 296.312,144.0746 L296.312,138.5836 C296.312,137.4686 297.215,136.5656 298.33,136.5656 L301.251,136.5656 C302.365,136.5656 303.269,137.4686 303.269,138.5836 L303.269,144.0746 C303.269,145.1896 302.365,146.0926 301.251,146.0926" id="Fill-145" fill="#5A74A3"></path>
                    <path d="M301.251,159.1913 L298.33,159.1913 C297.215,159.1913 296.312,158.2883 296.312,157.1733 L296.312,151.6823 C296.312,150.5673 297.215,149.6643 298.33,149.6643 L301.251,149.6643 C302.365,149.6643 303.269,150.5673 303.269,151.6823 L303.269,157.1733 C303.269,158.2883 302.365,159.1913 301.251,159.1913" id="Fill-147" fill="#5A74A3"></path>
                    <path d="M314.0655,119.8958 L311.1445,119.8958 C310.0295,119.8958 309.1265,118.9928 309.1265,117.8778 L309.1265,112.3858 C309.1265,111.2718 310.0295,110.3688 311.1445,110.3688 L314.0655,110.3688 C315.1795,110.3688 316.0835,111.2718 316.0835,112.3858 L316.0835,117.8778 C316.0835,118.9928 315.1795,119.8958 314.0655,119.8958" id="Fill-149" fill="#5A74A3"></path>
                    <path d="M314.0655,132.994 L311.1445,132.994 C310.0295,132.994 309.1265,132.091 309.1265,130.977 L309.1265,125.485 C309.1265,124.37 310.0295,123.467 311.1445,123.467 L314.0655,123.467 C315.1795,123.467 316.0835,124.37 316.0835,125.485 L316.0835,130.977 C316.0835,132.091 315.1795,132.994 314.0655,132.994" id="Fill-151" fill="#5A74A3"></path>
                    <path d="M314.0655,146.0926 L311.1445,146.0926 C310.0295,146.0926 309.1265,145.1896 309.1265,144.0746 L309.1265,138.5836 C309.1265,137.4686 310.0295,136.5656 311.1445,136.5656 L314.0655,136.5656 C315.1795,136.5656 316.0835,137.4686 316.0835,138.5836 L316.0835,144.0746 C316.0835,145.1896 315.1795,146.0926 314.0655,146.0926" id="Fill-153" fill="#5A74A3"></path>
                    <path d="M314.0655,159.1913 L311.1445,159.1913 C310.0295,159.1913 309.1265,158.2883 309.1265,157.1733 L309.1265,151.6823 C309.1265,150.5673 310.0295,149.6643 311.1445,149.6643 L314.0655,149.6643 C315.1795,149.6643 316.0835,150.5673 316.0835,151.6823 L316.0835,157.1733 C316.0835,158.2883 315.1795,159.1913 314.0655,159.1913" id="Fill-155" fill="#5A74A3"></path>
                    <path d="M301.251,106.7972 L298.33,106.7972 C297.215,106.7972 296.312,105.8942 296.312,104.7792 L296.312,99.2872 C296.312,98.1732 297.215,97.2702 298.33,97.2702 L301.251,97.2702 C302.365,97.2702 303.269,98.1732 303.269,99.2872 L303.269,104.7792 C303.269,105.8942 302.365,106.7972 301.251,106.7972" id="Fill-157" fill="#5A74A3"></path>
                    <path d="M314.0655,106.7972 L311.1445,106.7972 C310.0295,106.7972 309.1265,105.8942 309.1265,104.7792 L309.1265,99.2872 C309.1265,98.1732 310.0295,97.2702 311.1445,97.2702 L314.0655,97.2702 C315.1795,97.2702 316.0835,98.1732 316.0835,99.2872 L316.0835,104.7792 C316.0835,105.8942 315.1795,106.7972 314.0655,106.7972" id="Fill-159" fill="#5A74A3"></path>
                    <g id="Group-163" transform="translate(0.000000, 11.000000)">
                        <mask id="mask-14" fill="white">
                            <use xlink:href="#path-13"></use>
                        </mask>
                        <g id="Clip-162"></g>
                        <path d="M27.5225,88.7547 L5.5245,88.7547 C2.7385,88.7547 0.4805,86.4967 0.4805,83.7107 L0.4805,5.4587 C0.4805,2.6727 2.7385,0.4147 5.5245,0.4147 L27.5225,0.4147 C30.3085,0.4147 32.5655,2.6727 32.5655,5.4587 L32.5655,83.7107 C32.5655,86.4967 30.3085,88.7547 27.5225,88.7547" id="Fill-161" fill="#758AB5" mask="url(#mask-14)"></path>
                    </g>
                    <g id="Group-174" transform="translate(16.000000, 21.000000)" fill="#899EC9">
                        <path d="M5.4625,22.8602 L2.5415,22.8602 C1.4265,22.8602 0.5235,21.9572 0.5235,20.8422 L0.5235,15.3502 C0.5235,14.2362 1.4265,13.3332 2.5415,13.3332 L5.4625,13.3332 C6.5765,13.3332 7.4805,14.2362 7.4805,15.3502 L7.4805,20.8422 C7.4805,21.9572 6.5765,22.8602 5.4625,22.8602" id="Fill-164"></path>
                        <path d="M5.4625,35.9588 L2.5415,35.9588 C1.4265,35.9588 0.5235,35.0558 0.5235,33.9408 L0.5235,28.4488 C0.5235,27.3348 1.4265,26.4318 2.5415,26.4318 L5.4625,26.4318 C6.5765,26.4318 7.4805,27.3348 7.4805,28.4488 L7.4805,33.9408 C7.4805,35.0558 6.5765,35.9588 5.4625,35.9588" id="Fill-166"></path>
                        <path d="M5.4625,49.057 L2.5415,49.057 C1.4265,49.057 0.5235,48.154 0.5235,47.039 L0.5235,41.548 C0.5235,40.433 1.4265,39.53 2.5415,39.53 L5.4625,39.53 C6.5765,39.53 7.4805,40.433 7.4805,41.548 L7.4805,47.039 C7.4805,48.154 6.5765,49.057 5.4625,49.057" id="Fill-168"></path>
                        <path d="M5.4625,62.1556 L2.5415,62.1556 C1.4265,62.1556 0.5235,61.2526 0.5235,60.1376 L0.5235,54.6466 C0.5235,53.5316 1.4265,52.6286 2.5415,52.6286 L5.4625,52.6286 C6.5765,52.6286 7.4805,53.5316 7.4805,54.6466 L7.4805,60.1376 C7.4805,61.2526 6.5765,62.1556 5.4625,62.1556" id="Fill-170"></path>
                        <path d="M5.0552,9.3685 L2.3742,9.3685 C1.3522,9.3685 0.5232,8.5395 0.5232,7.5175 L0.5232,2.4785 C0.5232,1.4555 1.3522,0.6275 2.3742,0.6275 L5.0552,0.6275 C6.0772,0.6275 6.9062,1.4555 6.9062,2.4785 L6.9062,7.5175 C6.9062,8.5395 6.0772,9.3685 5.0552,9.3685" id="Fill-172"></path>
                    </g>
                    <path d="M449.9278,100.6566 L471.9258,100.6566 C474.7108,100.6566 476.9698,98.3986 476.9698,95.6126 L476.9698,17.3596 C476.9698,14.5746 474.7108,12.3166 471.9258,12.3166 L449.9278,12.3166 C447.1418,12.3166 444.8838,14.5746 444.8838,17.3596 L444.8838,95.6126 C444.8838,98.3986 447.1418,100.6566 449.9278,100.6566" id="Fill-175" fill="#758AB5"></path>
                    <g id="Group-187" transform="translate(453.000000, 22.000000)" fill="#899EC9">
                        <path d="M2.9874,22.7616 L5.9084,22.7616 C7.0234,22.7616 7.9264,21.8586 7.9264,20.7436 L7.9264,15.2526 C7.9264,14.1376 7.0234,13.2346 5.9084,13.2346 L2.9874,13.2346 C1.8734,13.2346 0.9694,14.1376 0.9694,15.2526 L0.9694,20.7436 C0.9694,21.8586 1.8734,22.7616 2.9874,22.7616" id="Fill-177"></path>
                        <path d="M2.9874,35.8602 L5.9084,35.8602 C7.0234,35.8602 7.9264,34.9572 7.9264,33.8422 L7.9264,28.3512 C7.9264,27.2362 7.0234,26.3332 5.9084,26.3332 L2.9874,26.3332 C1.8734,26.3332 0.9694,27.2362 0.9694,28.3512 L0.9694,33.8422 C0.9694,34.9572 1.8734,35.8602 2.9874,35.8602" id="Fill-179"></path>
                        <path d="M2.9874,48.9588 L5.9084,48.9588 C7.0234,48.9588 7.9264,48.0558 7.9264,46.9408 L7.9264,41.4498 C7.9264,40.3348 7.0234,39.4318 5.9084,39.4318 L2.9874,39.4318 C1.8734,39.4318 0.9694,40.3348 0.9694,41.4498 L0.9694,46.9408 C0.9694,48.0558 1.8734,48.9588 2.9874,48.9588" id="Fill-181"></path>
                        <path d="M2.9874,62.0575 L5.9084,62.0575 C7.0234,62.0575 7.9264,61.1545 7.9264,60.0395 L7.9264,54.5475 C7.9264,53.4335 7.0234,52.5305 5.9084,52.5305 L2.9874,52.5305 C1.8734,52.5305 0.9694,53.4335 0.9694,54.5475 L0.9694,60.0395 C0.9694,61.1545 1.8734,62.0575 2.9874,62.0575" id="Fill-183"></path>
                        <path d="M3.3951,9.2704 L6.0751,9.2704 C7.0981,9.2704 7.9261,8.4414 7.9261,7.4194 L7.9261,2.3804 C7.9261,1.3574 7.0981,0.5294 6.0751,0.5294 L3.3951,0.5294 C2.3731,0.5294 1.5431,1.3574 1.5431,2.3804 L1.5431,7.4194 C1.5431,8.4414 2.3731,9.2704 3.3951,9.2704" id="Fill-185"></path>
                    </g>
                    <g id="Group-190" transform="translate(181.000000, 109.000000)">
                        <mask id="mask-16" fill="white">
                            <use xlink:href="#path-15"></use>
                        </mask>
                        <g id="Clip-189"></g>
                        <path d="M20.9761,62.3319 L5.2931,62.3319 C2.5071,62.3319 0.2491,60.0739 0.2491,57.2879 L0.2491,5.6639 C0.2491,2.8779 2.5071,0.6199 5.2931,0.6199 L20.9761,0.6199 C23.7621,0.6199 26.0191,2.8779 26.0191,5.6639 L26.0191,57.2879 C26.0191,60.0739 23.7621,62.3319 20.9761,62.3319" id="Fill-188" fill="#758AB5" mask="url(#mask-16)"></path>
                    </g>
                    <g id="Group-200" transform="translate(192.000000, 115.000000)">
                        <path d="M2.5572,23.1624 L5.4782,23.1624 C6.5932,23.1624 7.4962,22.2594 7.4962,21.1444 L7.4962,15.6524 C7.4962,14.5384 6.5932,13.6354 5.4782,13.6354 L2.5572,13.6354 C1.4432,13.6354 0.5392,14.5384 0.5392,15.6524 L0.5392,21.1444 C0.5392,22.2594 1.4432,23.1624 2.5572,23.1624" id="Fill-191" fill="#899EC9"></path>
                        <path d="M2.5572,36.2611 L5.4782,36.2611 C6.5932,36.2611 7.4962,35.3581 7.4962,34.2431 L7.4962,28.7511 C7.4962,27.6371 6.5932,26.7341 5.4782,26.7341 L2.5572,26.7341 C1.4432,26.7341 0.5392,27.6371 0.5392,28.7511 L0.5392,34.2431 C0.5392,35.3581 1.4432,36.2611 2.5572,36.2611" id="Fill-193" fill="#899EC9"></path>
                        <g id="Group-197" transform="translate(0.000000, 39.000000)">
                            <mask id="mask-18" fill="white">
                                <use xlink:href="#path-17"></use>
                            </mask>
                            <g id="Clip-196"></g>
                            <path d="M2.5572,10.3597 L5.4782,10.3597 C6.5932,10.3597 7.4962,9.4567 7.4962,8.3417 L7.4962,2.8497 C7.4962,1.7357 6.5932,0.8327 5.4782,0.8327 L2.5572,0.8327 C1.4432,0.8327 0.5392,1.7357 0.5392,2.8497 L0.5392,8.3417 C0.5392,9.4567 1.4432,10.3597 2.5572,10.3597" id="Fill-195" fill="#899EC9" mask="url(#mask-18)"></path>
                        </g>
                        <path d="M2.9649,9.6712 L5.6449,9.6712 C6.6679,9.6712 7.4959,8.8422 7.4959,7.8192 L7.4959,2.7802 C7.4959,1.7582 6.6679,0.9292 5.6449,0.9292 L2.9649,0.9292 C1.9429,0.9292 1.1129,1.7582 1.1129,2.7802 L1.1129,7.8192 C1.1129,8.8422 1.9429,9.6712 2.9649,9.6712" id="Fill-198" fill="#899EC9"></path>
                    </g>
                    <path d="M117.2305,153.5653 L97.3365,153.5653 C94.5515,153.5653 92.2935,151.3073 92.2935,148.5223 L92.2935,84.6243 C92.2935,81.8383 94.5515,79.5803 97.3365,79.5803 L117.2305,79.5803 C120.0165,79.5803 122.2745,81.8383 122.2745,84.6243 L122.2745,148.5223 C122.2745,151.3073 120.0165,153.5653 117.2305,153.5653" id="Fill-201" fill="#758AB5"></path>
                    <g id="Group-213" transform="translate(107.000000, 87.000000)" fill="#899EC9">
                        <path d="M5.4669,22.6053 L2.5459,22.6053 C1.4309,22.6053 0.5279,21.7023 0.5279,20.5873 L0.5279,15.0953 C0.5279,13.9813 1.4309,13.0783 2.5459,13.0783 L5.4669,13.0783 C6.5809,13.0783 7.4849,13.9813 7.4849,15.0953 L7.4849,20.5873 C7.4849,21.7023 6.5809,22.6053 5.4669,22.6053" id="Fill-203"></path>
                        <path d="M5.4669,35.7035 L2.5459,35.7035 C1.4309,35.7035 0.5279,34.8005 0.5279,33.6855 L0.5279,28.1945 C0.5279,27.0795 1.4309,26.1765 2.5459,26.1765 L5.4669,26.1765 C6.5809,26.1765 7.4849,27.0795 7.4849,28.1945 L7.4849,33.6855 C7.4849,34.8005 6.5809,35.7035 5.4669,35.7035" id="Fill-205"></path>
                        <path d="M5.4669,48.8021 L2.5459,48.8021 C1.4309,48.8021 0.5279,47.8991 0.5279,46.7841 L0.5279,41.2931 C0.5279,40.1781 1.4309,39.2751 2.5459,39.2751 L5.4669,39.2751 C6.5809,39.2751 7.4849,40.1781 7.4849,41.2931 L7.4849,46.7841 C7.4849,47.8991 6.5809,48.8021 5.4669,48.8021" id="Fill-207"></path>
                        <path d="M5.4669,61.9007 L2.5459,61.9007 C1.4309,61.9007 0.5279,60.9977 0.5279,59.8827 L0.5279,54.3917 C0.5279,53.2767 1.4309,52.3737 2.5459,52.3737 L5.4669,52.3737 C6.5809,52.3737 7.4849,53.2767 7.4849,54.3917 L7.4849,59.8827 C7.4849,60.9977 6.5809,61.9007 5.4669,61.9007" id="Fill-209"></path>
                        <path d="M5.0596,9.1136 L2.3796,9.1136 C1.3566,9.1136 0.5276,8.2846 0.5276,7.2626 L0.5276,2.2236 C0.5276,1.2006 1.3566,0.3726 2.3796,0.3726 L5.0596,0.3726 C6.0816,0.3726 6.9116,1.2006 6.9116,2.2236 L6.9116,7.2626 C6.9116,8.2846 6.0816,9.1136 5.0596,9.1136" id="Fill-211"></path>
                    </g>
                    <path d="M95.9835,152.5379 L71.5945,152.5379 C68.8095,152.5379 66.5505,150.2799 66.5505,147.4939 L66.5505,66.1009 C66.5505,63.3149 68.8095,61.0569 71.5945,61.0569 L95.9835,61.0569 C98.7685,61.0569 101.0265,63.3149 101.0265,66.1009 L101.0265,147.4939 C101.0265,150.2799 98.7685,152.5379 95.9835,152.5379" id="Fill-214" fill="#5A74A3"></path>
                    <g id="Group-226" transform="translate(74.000000, 69.000000)" fill="#758AB5">
                        <path d="M4.9922,22.4989 L2.0412,22.4989 C0.9152,22.4989 0.0022,21.5859 0.0022,20.4609 L0.0022,14.9119 C0.0022,13.7859 0.9152,12.8739 2.0412,12.8739 L4.9922,12.8739 C6.1182,12.8739 7.0312,13.7859 7.0312,14.9119 L7.0312,20.4609 C7.0312,21.5859 6.1182,22.4989 4.9922,22.4989" id="Fill-216"></path>
                        <path d="M4.9922,35.7328 L2.0412,35.7328 C0.9152,35.7328 0.0022,34.8198 0.0022,33.6938 L0.0022,28.1458 C0.0022,27.0198 0.9152,26.1078 2.0412,26.1078 L4.9922,26.1078 C6.1182,26.1078 7.0312,27.0198 7.0312,28.1458 L7.0312,33.6938 C7.0312,34.8198 6.1182,35.7328 4.9922,35.7328" id="Fill-218"></path>
                        <path d="M4.9922,48.9662 L2.0412,48.9662 C0.9152,48.9662 0.0022,48.0532 0.0022,46.9272 L0.0022,41.3792 C0.0022,40.2532 0.9152,39.3412 2.0412,39.3412 L4.9922,39.3412 C6.1182,39.3412 7.0312,40.2532 7.0312,41.3792 L7.0312,46.9272 C7.0312,48.0532 6.1182,48.9662 4.9922,48.9662" id="Fill-220"></path>
                        <path d="M4.9922,62.2 L2.0412,62.2 C0.9152,62.2 0.0022,61.287 0.0022,60.161 L0.0022,54.613 C0.0022,53.487 0.9152,52.575 2.0412,52.575 L4.9922,52.575 C6.1182,52.575 7.0312,53.487 7.0312,54.613 L7.0312,60.161 C7.0312,61.287 6.1182,62.2 4.9922,62.2" id="Fill-222"></path>
                        <path d="M4.5811,8.8685 L1.8731,8.8685 C0.8401,8.8685 0.0021,8.0315 0.0021,6.9985 L0.0021,1.9075 C0.0021,0.8745 0.8401,0.0365 1.8731,0.0365 L4.5811,0.0365 C5.6141,0.0365 6.4511,0.8745 6.4511,1.9075 L6.4511,6.9985 C6.4511,8.0315 5.6141,8.8685 4.5811,8.8685" id="Fill-224"></path>
                    </g>
                    <g id="Group-239" transform="translate(86.000000, 69.000000)" fill="#758AB5">
                        <path d="M5.5372,22.4989 L2.5852,22.4989 C1.4592,22.4989 0.5472,21.5859 0.5472,20.4609 L0.5472,14.9119 C0.5472,13.7859 1.4592,12.8739 2.5852,12.8739 L5.5372,12.8739 C6.6622,12.8739 7.5752,13.7859 7.5752,14.9119 L7.5752,20.4609 C7.5752,21.5859 6.6622,22.4989 5.5372,22.4989" id="Fill-227"></path>
                        <path d="M5.5372,35.7328 L2.5852,35.7328 C1.4592,35.7328 0.5472,34.8198 0.5472,33.6938 L0.5472,28.1458 C0.5472,27.0198 1.4592,26.1078 2.5852,26.1078 L5.5372,26.1078 C6.6622,26.1078 7.5752,27.0198 7.5752,28.1458 L7.5752,33.6938 C7.5752,34.8198 6.6622,35.7328 5.5372,35.7328" id="Fill-229"></path>
                        <path d="M5.5372,48.9662 L2.5852,48.9662 C1.4592,48.9662 0.5472,48.0532 0.5472,46.9272 L0.5472,41.3792 C0.5472,40.2532 1.4592,39.3412 2.5852,39.3412 L5.5372,39.3412 C6.6622,39.3412 7.5752,40.2532 7.5752,41.3792 L7.5752,46.9272 C7.5752,48.0532 6.6622,48.9662 5.5372,48.9662" id="Fill-231"></path>
                        <path d="M5.5372,62.2 L2.5852,62.2 C1.4592,62.2 0.5472,61.287 0.5472,60.161 L0.5472,54.613 C0.5472,53.487 1.4592,52.575 2.5852,52.575 L5.5372,52.575 C6.6622,52.575 7.5752,53.487 7.5752,54.613 L7.5752,60.161 C7.5752,61.287 6.6622,62.2 5.5372,62.2" id="Fill-233"></path>
                        <path d="M5.5372,76.0404 L2.5852,76.0404 C1.4592,76.0404 0.5472,75.1274 0.5472,74.0024 L0.5472,68.4534 C0.5472,67.3284 1.4592,66.4154 2.5852,66.4154 L5.5372,66.4154 C6.6622,66.4154 7.5752,67.3284 7.5752,68.4534 L7.5752,74.0024 C7.5752,75.1274 6.6622,76.0404 5.5372,76.0404" id="Fill-235"></path>
                        <path d="M5.1255,8.8685 L2.4175,8.8685 C1.3845,8.8685 0.5465,8.0315 0.5465,6.9985 L0.5465,1.9075 C0.5465,0.8745 1.3845,0.0365 2.4175,0.0365 L5.1255,0.0365 C6.1585,0.0365 6.9955,0.8745 6.9955,1.9075 L6.9955,6.9985 C6.9955,8.0315 6.1585,8.8685 5.1255,8.8685" id="Fill-237"></path>
                    </g>
                    <path d="M73.9092,141.3187 L33.7652,141.3187 C30.9802,141.3187 28.7222,139.0607 28.7222,136.2747 L28.7222,47.2227 C28.7222,44.4377 30.9802,42.1787 33.7652,42.1787 L73.9092,42.1787 C76.6952,42.1787 78.9532,44.4377 78.9532,47.2227 L78.9532,136.2747 C78.9532,139.0607 76.6952,141.3187 73.9092,141.3187" id="Fill-240" fill="#2F4772"></path>
                    <g id="Group-252" transform="translate(35.000000, 52.000000)" fill="#5A74A3">
                        <path d="M5.1627,22.3485 L2.2417,22.3485 C1.1267,22.3485 0.2237,21.4455 0.2237,20.3305 L0.2237,14.8385 C0.2237,13.7245 1.1267,12.8215 2.2417,12.8215 L5.1627,12.8215 C6.2767,12.8215 7.1807,13.7245 7.1807,14.8385 L7.1807,20.3305 C7.1807,21.4455 6.2767,22.3485 5.1627,22.3485" id="Fill-242"></path>
                        <path d="M5.1627,35.4471 L2.2417,35.4471 C1.1267,35.4471 0.2237,34.5441 0.2237,33.4291 L0.2237,27.9371 C0.2237,26.8231 1.1267,25.9201 2.2417,25.9201 L5.1627,25.9201 C6.2767,25.9201 7.1807,26.8231 7.1807,27.9371 L7.1807,33.4291 C7.1807,34.5441 6.2767,35.4471 5.1627,35.4471" id="Fill-244"></path>
                        <path d="M5.1627,48.5458 L2.2417,48.5458 C1.1267,48.5458 0.2237,47.6428 0.2237,46.5278 L0.2237,41.0358 C0.2237,39.9218 1.1267,39.0188 2.2417,39.0188 L5.1627,39.0188 C6.2767,39.0188 7.1807,39.9218 7.1807,41.0358 L7.1807,46.5278 C7.1807,47.6428 6.2767,48.5458 5.1627,48.5458" id="Fill-246"></path>
                        <path d="M5.1627,61.6439 L2.2417,61.6439 C1.1267,61.6439 0.2237,60.7409 0.2237,59.6259 L0.2237,54.1349 C0.2237,53.0199 1.1267,52.1169 2.2417,52.1169 L5.1627,52.1169 C6.2767,52.1169 7.1807,53.0199 7.1807,54.1349 L7.1807,59.6259 C7.1807,60.7409 6.2767,61.6439 5.1627,61.6439" id="Fill-248"></path>
                        <path d="M4.7554,8.8573 L2.0744,8.8573 C1.0524,8.8573 0.2234,8.0283 0.2234,7.0053 L0.2234,1.9663 C0.2234,0.9443 1.0524,0.1153 2.0744,0.1153 L4.7554,0.1153 C5.7774,0.1153 6.6064,0.9443 6.6064,1.9663 L6.6064,7.0053 C6.6064,8.0283 5.7774,8.8573 4.7554,8.8573" id="Fill-250"></path>
                    </g>
                    <g id="Group-265" transform="translate(50.000000, 52.000000)" fill="#5A74A3">
                        <path d="M5.3038,22.3485 L2.3828,22.3485 C1.2678,22.3485 0.3648,21.4455 0.3648,20.3305 L0.3648,14.8385 C0.3648,13.7245 1.2678,12.8215 2.3828,12.8215 L5.3038,12.8215 C6.4178,12.8215 7.3218,13.7245 7.3218,14.8385 L7.3218,20.3305 C7.3218,21.4455 6.4178,22.3485 5.3038,22.3485" id="Fill-253"></path>
                        <path d="M5.3038,35.4471 L2.3828,35.4471 C1.2678,35.4471 0.3648,34.5441 0.3648,33.4291 L0.3648,27.9371 C0.3648,26.8231 1.2678,25.9201 2.3828,25.9201 L5.3038,25.9201 C6.4178,25.9201 7.3218,26.8231 7.3218,27.9371 L7.3218,33.4291 C7.3218,34.5441 6.4178,35.4471 5.3038,35.4471" id="Fill-255"></path>
                        <path d="M5.3038,48.5458 L2.3828,48.5458 C1.2678,48.5458 0.3648,47.6428 0.3648,46.5278 L0.3648,41.0358 C0.3648,39.9218 1.2678,39.0188 2.3828,39.0188 L5.3038,39.0188 C6.4178,39.0188 7.3218,39.9218 7.3218,41.0358 L7.3218,46.5278 C7.3218,47.6428 6.4178,48.5458 5.3038,48.5458" id="Fill-257"></path>
                        <path d="M5.3038,61.6439 L2.3828,61.6439 C1.2678,61.6439 0.3648,60.7409 0.3648,59.6259 L0.3648,54.1349 C0.3648,53.0199 1.2678,52.1169 2.3828,52.1169 L5.3038,52.1169 C6.4178,52.1169 7.3218,53.0199 7.3218,54.1349 L7.3218,59.6259 C7.3218,60.7409 6.4178,61.6439 5.3038,61.6439" id="Fill-259"></path>
                        <path d="M5.3038,75.5077 L2.3828,75.5077 C1.2678,75.5077 0.3648,74.6047 0.3648,73.4897 L0.3648,67.9977 C0.3648,66.8837 1.2678,65.9807 2.3828,65.9807 L5.3038,65.9807 C6.4178,65.9807 7.3218,66.8837 7.3218,67.9977 L7.3218,73.4897 C7.3218,74.6047 6.4178,75.5077 5.3038,75.5077" id="Fill-261"></path>
                        <path d="M4.8965,8.8573 L2.2155,8.8573 C1.1935,8.8573 0.3645,8.0283 0.3645,7.0053 L0.3645,1.9663 C0.3645,0.9443 1.1935,0.1153 2.2155,0.1153 L4.8965,0.1153 C5.9185,0.1153 6.7475,0.9443 6.7475,1.9663 L6.7475,7.0053 C6.7475,8.0283 5.9185,8.8573 4.8965,8.8573" id="Fill-263"></path>
                    </g>
                    <g id="Group-276" transform="translate(66.000000, 52.000000)" fill="#5A74A3">
                        <path d="M5.1793,22.3485 L2.2583,22.3485 C1.1433,22.3485 0.2403,21.4455 0.2403,20.3305 L0.2403,14.8385 C0.2403,13.7245 1.1433,12.8215 2.2583,12.8215 L5.1793,12.8215 C6.2933,12.8215 7.1973,13.7245 7.1973,14.8385 L7.1973,20.3305 C7.1973,21.4455 6.2933,22.3485 5.1793,22.3485" id="Fill-266"></path>
                        <path d="M5.1793,35.4471 L2.2583,35.4471 C1.1433,35.4471 0.2403,34.5441 0.2403,33.4291 L0.2403,27.9371 C0.2403,26.8231 1.1433,25.9201 2.2583,25.9201 L5.1793,25.9201 C6.2933,25.9201 7.1973,26.8231 7.1973,27.9371 L7.1973,33.4291 C7.1973,34.5441 6.2933,35.4471 5.1793,35.4471" id="Fill-268"></path>
                        <path d="M5.1793,48.5458 L2.2583,48.5458 C1.1433,48.5458 0.2403,47.6428 0.2403,46.5278 L0.2403,41.0358 C0.2403,39.9218 1.1433,39.0188 2.2583,39.0188 L5.1793,39.0188 C6.2933,39.0188 7.1973,39.9218 7.1973,41.0358 L7.1973,46.5278 C7.1973,47.6428 6.2933,48.5458 5.1793,48.5458" id="Fill-270"></path>
                        <path d="M5.1793,61.6439 L2.2583,61.6439 C1.1433,61.6439 0.2403,60.7409 0.2403,59.6259 L0.2403,54.1349 C0.2403,53.0199 1.1433,52.1169 2.2583,52.1169 L5.1793,52.1169 C6.2933,52.1169 7.1973,53.0199 7.1973,54.1349 L7.1973,59.6259 C7.1973,60.7409 6.2933,61.6439 5.1793,61.6439" id="Fill-272"></path>
                        <path d="M4.772,8.8573 L2.091,8.8573 C1.069,8.8573 0.24,8.0283 0.24,7.0053 L0.24,1.9663 C0.24,0.9443 1.069,0.1153 2.091,0.1153 L4.772,0.1153 C5.794,0.1153 6.623,0.9443 6.623,1.9663 L6.623,7.0053 C6.623,8.0283 5.794,8.8573 4.772,8.8573" id="Fill-274"></path>
                    </g>
                    <g id="Group-279" transform="translate(151.000000, 89.000000)">
                        <mask id="mask-20" fill="white">
                            <use xlink:href="#path-19"></use>
                        </mask>
                        <g id="Clip-278"></g>
                        <path d="M33.4127,79.4559 L5.4567,79.4559 C2.6707,79.4559 0.4127,77.1979 0.4127,74.4129 L0.4127,5.5739 C0.4127,2.7889 2.6707,0.5309 5.4567,0.5309 L33.4127,0.5309 C36.1987,0.5309 38.4567,2.7889 38.4567,5.5739 L38.4567,74.4129 C38.4567,77.1979 36.1987,79.4559 33.4127,79.4559" id="Fill-277" fill="#2F4772" mask="url(#mask-20)"></path>
                    </g>
                    <path d="M162.9503,119.2533 L160.0293,119.2533 C158.9143,119.2533 158.0113,118.3503 158.0113,117.2353 L158.0113,111.7433 C158.0113,110.6293 158.9143,109.7263 160.0293,109.7263 L162.9503,109.7263 C164.0643,109.7263 164.9683,110.6293 164.9683,111.7433 L164.9683,117.2353 C164.9683,118.3503 164.0643,119.2533 162.9503,119.2533" id="Fill-280" fill="#5A74A3"></path>
                    <path d="M162.9503,132.3514 L160.0293,132.3514 C158.9143,132.3514 158.0113,131.4484 158.0113,130.3334 L158.0113,124.8424 C158.0113,123.7274 158.9143,122.8244 160.0293,122.8244 L162.9503,122.8244 C164.0643,122.8244 164.9683,123.7274 164.9683,124.8424 L164.9683,130.3334 C164.9683,131.4484 164.0643,132.3514 162.9503,132.3514" id="Fill-282" fill="#5A74A3"></path>
                    <path d="M162.9503,145.45 L160.0293,145.45 C158.9143,145.45 158.0113,144.547 158.0113,143.432 L158.0113,137.941 C158.0113,136.826 158.9143,135.923 160.0293,135.923 L162.9503,135.923 C164.0643,135.923 164.9683,136.826 164.9683,137.941 L164.9683,143.432 C164.9683,144.547 164.0643,145.45 162.9503,145.45" id="Fill-284" fill="#5A74A3"></path>
                    <path d="M162.9503,158.5487 L160.0293,158.5487 C158.9143,158.5487 158.0113,157.6457 158.0113,156.5307 L158.0113,151.0397 C158.0113,149.9247 158.9143,149.0217 160.0293,149.0217 L162.9503,149.0217 C164.0643,149.0217 164.9683,149.9247 164.9683,151.0397 L164.9683,156.5307 C164.9683,157.6457 164.0643,158.5487 162.9503,158.5487" id="Fill-286" fill="#5A74A3"></path>
                    <path d="M162.543,105.7616 L159.862,105.7616 C158.84,105.7616 158.011,104.9326 158.011,103.9106 L158.011,98.8716 C158.011,97.8486 158.84,97.0206 159.862,97.0206 L162.543,97.0206 C163.565,97.0206 164.394,97.8486 164.394,98.8716 L164.394,103.9106 C164.394,104.9326 163.565,105.7616 162.543,105.7616" id="Fill-288" fill="#5A74A3"></path>
                    <path d="M178.2437,119.2533 L175.3227,119.2533 C174.2077,119.2533 173.3047,118.3503 173.3047,117.2353 L173.3047,111.7433 C173.3047,110.6293 174.2077,109.7263 175.3227,109.7263 L178.2437,109.7263 C179.3577,109.7263 180.2617,110.6293 180.2617,111.7433 L180.2617,117.2353 C180.2617,118.3503 179.3577,119.2533 178.2437,119.2533" id="Fill-290" fill="#5A74A3"></path>
                    <path d="M178.2437,132.3514 L175.3227,132.3514 C174.2077,132.3514 173.3047,131.4484 173.3047,130.3334 L173.3047,124.8424 C173.3047,123.7274 174.2077,122.8244 175.3227,122.8244 L178.2437,122.8244 C179.3577,122.8244 180.2617,123.7274 180.2617,124.8424 L180.2617,130.3334 C180.2617,131.4484 179.3577,132.3514 178.2437,132.3514" id="Fill-292" fill="#5A74A3"></path>
                    <path d="M178.2437,145.45 L175.3227,145.45 C174.2077,145.45 173.3047,144.547 173.3047,143.432 L173.3047,137.941 C173.3047,136.826 174.2077,135.923 175.3227,135.923 L178.2437,135.923 C179.3577,135.923 180.2617,136.826 180.2617,137.941 L180.2617,143.432 C180.2617,144.547 179.3577,145.45 178.2437,145.45" id="Fill-294" fill="#5A74A3"></path>
                    <path d="M178.2437,158.5487 L175.3227,158.5487 C174.2077,158.5487 173.3047,157.6457 173.3047,156.5307 L173.3047,151.0397 C173.3047,149.9247 174.2077,149.0217 175.3227,149.0217 L178.2437,149.0217 C179.3577,149.0217 180.2617,149.9247 180.2617,151.0397 L180.2617,156.5307 C180.2617,157.6457 179.3577,158.5487 178.2437,158.5487" id="Fill-296" fill="#5A74A3"></path>
                    <path d="M178.1231,105.7616 L175.4431,105.7616 C174.4201,105.7616 173.5921,104.9326 173.5921,103.9106 L173.5921,98.8716 C173.5921,97.8486 174.4201,97.0206 175.4431,97.0206 L178.1231,97.0206 C179.1451,97.0206 179.9751,97.8486 179.9751,98.8716 L179.9751,103.9106 C179.9751,104.9326 179.1451,105.7616 178.1231,105.7616" id="Fill-298" fill="#5A74A3"></path>
                    <g id="Group-302" transform="translate(234.000000, 130.000000)">
                        <mask id="mask-22" fill="white">
                            <use xlink:href="#path-21"></use>
                        </mask>
                        <g id="Clip-301"></g>
                        <path d="M33.1143,79.5775 L5.1573,79.5775 C2.3723,79.5775 0.1143,77.3195 0.1143,74.5335 L0.1143,5.6955 C0.1143,2.9105 2.3723,0.6515 5.1573,0.6515 L33.1143,0.6515 C35.8993,0.6515 38.1573,2.9105 38.1573,5.6955 L38.1573,74.5335 C38.1573,77.3195 35.8993,79.5775 33.1143,79.5775" id="Fill-300" fill="#2F4772" mask="url(#mask-22)"></path>
                    </g>
                    <path d="M245.6514,160.3744 L242.7304,160.3744 C241.6154,160.3744 240.7124,159.4714 240.7124,158.3564 L240.7124,152.8644 C240.7124,151.7504 241.6154,150.8474 242.7304,150.8474 L245.6514,150.8474 C246.7654,150.8474 247.6694,151.7504 247.6694,152.8644 L247.6694,158.3564 C247.6694,159.4714 246.7654,160.3744 245.6514,160.3744" id="Fill-303" fill="#5A74A3"></path>
                    <path d="M245.2442,146.8827 L242.5632,146.8827 C241.5412,146.8827 240.7122,146.0537 240.7122,145.0317 L240.7122,139.9927 C240.7122,138.9697 241.5412,138.1417 242.5632,138.1417 L245.2442,138.1417 C246.2662,138.1417 247.0952,138.9697 247.0952,139.9927 L247.0952,145.0317 C247.0952,146.0537 246.2662,146.8827 245.2442,146.8827" id="Fill-305" fill="#5A74A3"></path>
                    <path d="M260.9449,160.3744 L258.0239,160.3744 C256.9089,160.3744 256.0059,159.4714 256.0059,158.3564 L256.0059,152.8644 C256.0059,151.7504 256.9089,150.8474 258.0239,150.8474 L260.9449,150.8474 C262.0589,150.8474 262.9629,151.7504 262.9629,152.8644 L262.9629,158.3564 C262.9629,159.4714 262.0589,160.3744 260.9449,160.3744" id="Fill-307" fill="#5A74A3"></path>
                    <path d="M260.8248,146.8827 L258.1438,146.8827 C257.1218,146.8827 256.2928,146.0537 256.2928,145.0317 L256.2928,139.9927 C256.2928,138.9697 257.1218,138.1417 258.1438,138.1417 L260.8248,138.1417 C261.8468,138.1417 262.6758,138.9697 262.6758,139.9927 L262.6758,145.0317 C262.6758,146.0537 261.8468,146.8827 260.8248,146.8827" id="Fill-309" fill="#5A74A3"></path>
                    <path d="M396.6036,144.9564 L365.9656,144.9564 C362.9136,144.9564 360.4386,142.4814 360.4386,139.4284 L360.4386,63.9884 C360.4386,60.9364 362.9136,58.4604 365.9656,58.4604 L396.6036,58.4604 C399.6566,58.4604 402.1306,60.9364 402.1306,63.9884 L402.1306,139.4284 C402.1306,142.4814 399.6566,144.9564 396.6036,144.9564" id="Fill-311" fill="#2F4772"></path>
                    <path d="M373.0826,91.034 L369.8806,91.034 C368.6596,91.034 367.6696,90.044 367.6696,88.823 L367.6696,82.805 C367.6696,81.583 368.6596,80.593 369.8806,80.593 L373.0826,80.593 C374.3036,80.593 375.2936,81.583 375.2936,82.805 L375.2936,88.823 C375.2936,90.044 374.3036,91.034 373.0826,91.034" id="Fill-313" fill="#5A74A3"></path>
                    <path d="M373.0826,105.389 L369.8806,105.389 C368.6596,105.389 367.6696,104.399 367.6696,103.178 L367.6696,97.159 C367.6696,95.938 368.6596,94.948 369.8806,94.948 L373.0826,94.948 C374.3036,94.948 375.2936,95.938 375.2936,97.159 L375.2936,103.178 C375.2936,104.399 374.3036,105.389 373.0826,105.389" id="Fill-315" fill="#5A74A3"></path>
                    <path d="M373.0826,119.744 L369.8806,119.744 C368.6596,119.744 367.6696,118.754 367.6696,117.533 L367.6696,111.514 C367.6696,110.293 368.6596,109.303 369.8806,109.303 L373.0826,109.303 C374.3036,109.303 375.2936,110.293 375.2936,111.514 L375.2936,117.533 C375.2936,118.754 374.3036,119.744 373.0826,119.744" id="Fill-317" fill="#5A74A3"></path>
                    <path d="M373.0826,134.0985 L369.8806,134.0985 C368.6596,134.0985 367.6696,133.1085 367.6696,131.8875 L367.6696,125.8695 C367.6696,124.6475 368.6596,123.6575 369.8806,123.6575 L373.0826,123.6575 C374.3036,123.6575 375.2936,124.6475 375.2936,125.8695 L375.2936,131.8875 C375.2936,133.1085 374.3036,134.0985 373.0826,134.0985" id="Fill-319" fill="#5A74A3"></path>
                    <path d="M372.6363,76.2489 L369.6983,76.2489 C368.5783,76.2489 367.6703,75.3409 367.6703,74.2199 L367.6703,68.6979 C367.6703,67.5779 368.5783,66.6689 369.6983,66.6689 L372.6363,66.6689 C373.7563,66.6689 374.6643,67.5779 374.6643,68.6979 L374.6643,74.2199 C374.6643,75.3409 373.7563,76.2489 372.6363,76.2489" id="Fill-321" fill="#5A74A3"></path>
                    <path d="M389.8428,91.034 L386.6408,91.034 C385.4198,91.034 384.4298,90.044 384.4298,88.823 L384.4298,82.805 C384.4298,81.583 385.4198,80.593 386.6408,80.593 L389.8428,80.593 C391.0638,80.593 392.0538,81.583 392.0538,82.805 L392.0538,88.823 C392.0538,90.044 391.0638,91.034 389.8428,91.034" id="Fill-323" fill="#5A74A3"></path>
                    <path d="M389.8428,105.389 L386.6408,105.389 C385.4198,105.389 384.4298,104.399 384.4298,103.178 L384.4298,97.159 C384.4298,95.938 385.4198,94.948 386.6408,94.948 L389.8428,94.948 C391.0638,94.948 392.0538,95.938 392.0538,97.159 L392.0538,103.178 C392.0538,104.399 391.0638,105.389 389.8428,105.389" id="Fill-325" fill="#5A74A3"></path>
                    <path d="M389.8428,119.744 L386.6408,119.744 C385.4198,119.744 384.4298,118.754 384.4298,117.533 L384.4298,111.514 C384.4298,110.293 385.4198,109.303 386.6408,109.303 L389.8428,109.303 C391.0638,109.303 392.0538,110.293 392.0538,111.514 L392.0538,117.533 C392.0538,118.754 391.0638,119.744 389.8428,119.744" id="Fill-327" fill="#5A74A3"></path>
                    <path d="M389.8428,134.0985 L386.6408,134.0985 C385.4198,134.0985 384.4298,133.1085 384.4298,131.8875 L384.4298,125.8695 C384.4298,124.6475 385.4198,123.6575 386.6408,123.6575 L389.8428,123.6575 C391.0638,123.6575 392.0538,124.6475 392.0538,125.8695 L392.0538,131.8875 C392.0538,133.1085 391.0638,134.0985 389.8428,134.0985" id="Fill-329" fill="#5A74A3"></path>
                    <path d="M389.711,76.2489 L386.773,76.2489 C385.653,76.2489 384.745,75.3409 384.745,74.2199 L384.745,68.6979 C384.745,67.5779 385.653,66.6689 386.773,66.6689 L389.711,66.6689 C390.831,66.6689 391.739,67.5779 391.739,68.6979 L391.739,74.2199 C391.739,75.3409 390.831,76.2489 389.711,76.2489" id="Fill-331" fill="#5A74A3"></path>
                </g>
                <g id="Group-349" transform="translate(0.000000, 128.000000)">
                    <g id="Group-336" transform="translate(324.000000, 10.000000)">
                        <mask id="mask-24" fill="white">
                            <use xlink:href="#path-23"></use>
                        </mask>
                        <g id="Clip-335"></g>
                        <path d="M157.3907,4.7533 C158.2587,-3.4847 138.5897,-0.1897 146.3647,10.7953 C137.1147,12.7163 142.0577,19.5823 142.0577,19.5823 C142.0577,19.5823 131.6227,20.4053 133.5447,32.2133 C135.4677,44.0213 146.3647,37.7053 146.3647,37.7053 C146.3647,37.7053 139.7237,41.4123 140.8217,47.0423 C141.9197,52.6713 148.5107,51.9843 148.5107,51.9843 C148.5107,51.9843 135.6047,54.0443 137.2517,64.7533 C132.9957,62.5563 114.1857,56.1033 115.6957,73.6783 C109.9297,72.0303 107.5957,72.9913 106.0847,74.3643 C105.2617,70.1083 99.2197,66.9503 93.1787,72.3053 C87.1377,77.6593 93.1787,81.5033 93.1787,81.5033 C93.1787,81.5033 79.8607,82.7313 83.5677,97.4953 C77.9387,96.3323 72.5837,99.4903 75.0557,106.3553 C72.9957,104.0213 69.5627,104.5703 68.4647,107.1793 C67.3667,102.3733 55.4217,93.4493 49.5177,104.5703 C43.6137,115.6913 54.4597,118.4383 54.4597,118.4383 C48.4187,117.7513 44.8487,114.8683 41.4167,122.5563 C36.8857,119.2613 25.6277,118.3003 21.5087,129.1473 C17.3897,139.9933 26.5887,143.7003 26.5887,143.7003 C26.5887,143.7003 13.8197,140.6983 13.4077,148.3773 C10.6067,144.0523 5.5817,142.7393 1.4627,147.1333 C-2.6563,151.5263 3.1097,157.1563 6.4057,157.1563 C4.0717,158.8033 0.2267,172.9453 15.0557,175.1423 L166.3067,175.1423 L166.3067,8.9633 L157.3907,4.7533 Z" id="Fill-334" fill="#283C5F" mask="url(#mask-24)"></path>
                    </g>
                    <g id="Group-339" transform="translate(367.000000, 94.000000)">
                        <mask id="mask-26" fill="white">
                            <use xlink:href="#path-25"></use>
                        </mask>
                        <g id="Clip-338"></g>
                        <path d="M123.3067,13.495 L117.8147,13.495 C117.8147,13.495 120.2347,-5.008 105.5497,1.626 C91.2697,8.076 107.1967,21.623 107.1967,21.623 C101.3387,18.328 95.1147,22.355 95.4807,27.481 C92.5517,25.65 87.4257,26.016 86.3277,30.593 C85.9607,17.962 63.0777,26.566 73.8787,35.536 C68.3867,37.367 69.3027,43.591 72.9637,42.859 C59.7827,40.845 52.0937,49.501 59.5997,60.797 C56.7667,54.758 45.5037,58.045 50.2637,65.661 C46.7847,62.19 39.2797,64.378 40.1697,69.586 C36.5337,62.19 16.3957,63.545 19.0417,79.289 C16.4187,73.568 6.5107,79.613 10.7207,83.844 C5.2287,83.133 -0.0803,85.239 0.4697,91.142 L123.3067,91.142 L123.3067,13.495 Z" id="Fill-337" fill="#18263F" mask="url(#mask-26)"></path>
                    </g>
                    <g id="Group-342" transform="translate(245.000000, 147.000000)">
                        <mask id="mask-28" fill="white">
                            <use xlink:href="#path-27"></use>
                        </mask>
                        <g id="Clip-341"></g>
                        <path d="M5.8526,38.1424 C5.8526,38.1424 -2.8974,34.0004 2.1986,27.3404 C7.2946,20.6804 15.3806,27.7844 15.3806,27.7844 C14.7156,19.1424 24.9076,14.4894 31.3336,21.3584 C29.7826,9.8734 37.3176,-5.3746 56.8156,3.8084 C76.3136,12.9904 57.8166,27.2294 57.8166,27.2294 C57.8166,27.2294 70.5516,17.1484 78.0846,30.6644 C79.4216,22.4674 93.0176,23.7954 93.0176,29.3094 C98.9136,24.4604 109.1056,28.7814 109.1056,38.1424 L5.8526,38.1424 Z" id="Fill-340" fill="#18263F" mask="url(#mask-28)"></path>
                    </g>
                    <g id="Group-345">
                        <mask id="mask-30" fill="white">
                            <use xlink:href="#path-29"></use>
                        </mask>
                        <g id="Clip-344"></g>
                        <path d="M180.3922,175.1302 C183.8882,169.1422 170.3672,159.0432 164.0822,166.5672 C168.1022,160.1772 163.5712,155.8982 157.6842,156.1902 C166.1172,136.4832 131.0582,121.3642 125.0892,142.5862 C125.0892,135.1632 112.2022,135.9982 112.2022,145.2162 C110.4982,139.7212 102.5182,135.2622 97.3132,139.6232 C105.3842,126.5622 89.3812,108.5502 73.7392,116.3552 C76.7602,111.9622 75.9362,103.4492 64.1282,105.6462 C59.4602,91.9162 46.2792,90.8172 35.2952,97.6452 C35.5702,92.6642 33.9222,91.0922 26.7832,94.1902 C27.8812,87.6762 24.5862,81.2062 14.9752,85.2712 C16.0732,83.2952 22.9382,75.7142 7.2692,70.4972 C10.8232,71.8702 15.5242,65.2792 13.3272,60.4192 C29.5292,64.8942 29.8032,48.8032 24.7542,45.7832 C30.6902,42.2132 28.1562,37.2702 23.1022,36.1722 C28.4922,27.2562 19.4132,25.9712 14.2822,28.3352 C14.1322,25.4582 12.6252,23.5752 9.1092,22.3452 C17.9072,24.3712 23.7912,17.1722 17.5232,12.3732 C21.4452,14.2042 31.5422,9.0782 23.9062,2.9762 C16.2702,-3.1258 9.5742,4.6852 9.5742,4.6852 C9.5742,4.6852 -3.9728,-3.0038 -7.9998,4.6852 L-7.9998,32.0532 L-7.9998,185.1422 L90.8002,185.1422 L98.4532,185.1422 L202.6262,185.1422 C202.6262,171.6872 186.1872,166.5672 180.3922,175.1302" id="Fill-343" fill="#283C5F" mask="url(#mask-30)"></path>
                    </g>
                    <g id="Group-348" transform="translate(0.000000, 86.000000)">
                        <mask id="mask-32" fill="white">
                            <use xlink:href="#path-31"></use>
                        </mask>
                        <g id="Clip-347"></g>
                        <path d="M-7.9999,0.6986 C7.2701,-2.2304 16.8971,4.5426 14.8831,12.5976 C18.5441,6.9226 25.9131,13.3296 24.1511,17.5406 C35.3871,14.2456 43.2581,24.5336 36.1191,33.6506 C39.9631,30.3556 47.8351,35.2106 43.0761,39.1426 C53.4971,32.5066 63.3961,36.5796 66.5081,44.2686 C70.3531,38.7766 78.4071,41.5226 77.5881,48.2956 C83.7201,43.7196 99.8421,58.2116 86.4621,67.7006 C94.5171,66.0526 95.7991,68.6626 97.2631,73.6736 C100.1921,66.1476 120.3301,65.3816 125.8211,75.7856 C128.3841,71.5456 138.0871,73.1146 137.9041,80.5676 C141.5671,73.6736 156.2461,81.4366 152.5841,90.0406 C157.6751,84.7256 170.4901,85.3666 170.4901,99.1426 L-7.9999,99.1426 L-7.9999,0.6986 Z" id="Fill-346" fill="#18263F" mask="url(#mask-32)"></path>
                    </g>
                </g>
            </g>
        </g>
    </g>
</svg>