<?xml version="1.0" encoding="UTF-8"?>
<svg width="120px" height="120px" viewBox="0 0 120 120" version="1.1" xmlns="http://www.w3.org/2000/svg" xmlns:xlink="http://www.w3.org/1999/xlink">
    <!-- Generator: Sketch 51.1 (57501) - http://www.bohemiancoding.com/sketch -->
    <title>Grass16</title>
    <desc>Created with Sketch.</desc>
    <defs>
        <polygon id="path-1" points="0 0.0237508651 7.01302422 0.0237508651 7.01302422 12.8719723 0 12.8719723"></polygon>
        <polygon id="path-3" points="0.178463668 0.31233218 7.14053979 0.31233218 7.14053979 17.4394464 0.178463668 17.4394464"></polygon>
        <polygon id="path-5" points="0.243487889 0.150394464 7.2703391 0.150394464 7.2703391 31.9723183 0.243487889 31.9723183"></polygon>
        <polygon id="path-7" points="0.176512111 0.0839584775 9.9928408 0.0839584775 9.9928408 61.4532872 0.176512111 61.4532872"></polygon>
        <polygon id="path-9" points="0.174311497 0.382920415 4.41487889 0.382920415 4.41487889 42.3529412 0.174311497 42.3529412"></polygon>
        <polygon id="path-11" points="0.207669686 0.108083045 10.5065606 0.108083045 10.5065606 90.5190311 0.207669686 90.5190311"></polygon>
        <polygon id="path-13" points="0.232069204 0.307764706 13.0172595 0.307764706 13.0172595 60.6228374 0.232069204 60.6228374"></polygon>
        <polygon id="path-15" points="0.213089829 0.247972318 15.4173426 0.247972318 15.4173426 49.4117647 0.213089829 49.4117647"></polygon>
        <polygon id="path-17" points="0.20383391 0.264581315 3.82953327 0.264581315 3.82953327 24.9134948 0.20383391 24.9134948"></polygon>
        <polygon id="path-19" points="0.215377163 0.135031142 12.8137163 0.135031142 12.8137163 30.3114187 0.215377163 30.3114187"></polygon>
        <polygon id="path-21" points="0.270975779 0.38499654 5.45339792 0.38499654 5.45339792 14.9480969 0.270975779 14.9480969"></polygon>
    </defs>
    <g id="Grass16" stroke="none" stroke-width="1" fill="none" fill-rule="evenodd">
        <g id="Group" transform="translate(18.000000, 0.000000)">
            <path d="M17.8489827,1.98261592 C19.044,5.50413841 20.2390173,9.02649135 21.4340346,12.5480138 C20.4632388,10.2875294 19.2893979,7.94939792 17.2041384,6.64351557 C18.5648304,9.44254671 19.9251073,12.2411626 21.2857993,15.0401938 C20.7597093,13.347737 19.6332042,11.8483599 18.1545882,10.8709204 C18.8895363,12.7988097 19.7872526,14.664 20.8344498,16.4411626 C20.1638616,14.8126505 18.7940346,13.4860069 17.1447612,12.867737 C18.1757647,15.060955 19.2067682,17.2545882 20.2377716,19.4482215 C19.4475986,18.3287751 18.4012318,17.390782 17.2020623,16.7272526 L19.9176332,22.567391 C19.3649689,21.5712664 18.4859377,20.7595017 17.4491211,20.2869758 C17.9644152,21.9997785 18.6582561,23.6590173 19.5148651,25.2289827 C18.9854533,24.1830311 18.0250381,23.3629619 16.9084983,23.0046228 C17.868083,24.7527197 18.8276678,26.5008166 19.7872526,28.2493287 C20.2705744,24.280609 20.7543114,20.3123045 21.2376332,16.3435848 C21.6549343,12.9188097 22.1453149,9.78635294 20.8896747,6.46829066 C20.2448304,4.76337716 19.2030311,3.20503806 17.8489827,1.98261592" id="Fill-68" fill="#F7E0A2"></path>
            <path d="M83.0153772,30.215045 C81.4271419,29.701827 79.8393218,29.1881938 78.2510865,28.6749758 C79.4867958,28.9992664 80.5663806,29.8770519 81.1352388,31.0205813 C79.7321938,30.5098547 78.375654,29.8708235 77.0880415,29.1138685 C78.1414671,29.602173 79.0059654,30.4861869 79.4714325,31.5504083 C78.1987682,30.7182976 76.8301869,30.0327612 75.4022284,29.511654 C76.5702561,29.7458408 78.3063114,31.2551834 78.4923322,32.432346 C77.1025744,32.0262561 74.98991,30.9782284 73.7135087,30.2943529 C74.9546159,30.6659792 76.0628512,31.4661176 76.8061038,32.5270173 C75.2863806,31.968955 73.7662422,31.4108927 72.2461038,30.8528304 C73.500083,31.1725536 74.6431972,31.911654 75.4491488,32.9239723 C73.8430588,32.4410657 72.2365536,31.9581592 70.6300484,31.4752526 C71.9093564,31.8306851 73.0537163,32.6515848 73.7994602,33.7502699 C72.1900484,33.2627958 71.0531626,32.9563599 69.4433356,32.469301 C71.8582837,33.6572595 72.685827,34.5940069 72.685827,34.5940069 C72.685827,34.5940069 70.9821592,34.538782 67.409564,33.669301 C68.9425744,33.9263253 70.4099792,34.5678478 71.6394602,35.519128 C69.7119862,35.6025882 67.7654118,35.2131073 66.0185606,34.3938685 C66.2830588,34.5180208 67.9028512,33.4504775 68.2425052,33.2835571 C69.0393218,32.892 69.839045,32.5070865 70.6416747,32.1267405 C72.246519,31.3672941 73.8625744,30.6315156 75.4885952,29.9185744 C76.2742007,29.5743529 77.0938547,29.2728997 77.849564,28.8672249 C78.3212595,28.6139377 78.7705329,28.2107543 79.3182145,28.1393356 C80.6415363,27.9674325 82.2272803,29.2853564 83.0153772,30.215045" id="Fill-70" fill="#F7E0A2"></path>
            <path d="M62.6130104,1.78272664 C60.2644983,1.60542561 57.9213841,1.35836678 55.5878201,1.04113495 C57.4251903,1.18065052 59.1990311,2.03684429 60.4509343,3.38923183 C58.4790311,2.95905882 56.5067128,2.52930104 54.5348097,2.09912803 C56.2862284,2.23656747 57.9645675,3.13469896 59.0507958,4.51490657 C57.173564,4.10175779 55.295917,3.68819377 53.4182699,3.27504498 C55.1551557,3.23310727 56.8721107,4.27324567 57.6390311,5.83158478 C55.9835294,5.36943945 54.3276125,4.90687889 52.6721107,4.44431834 C54.5451903,5.02521799 56.230173,6.19656747 57.4268512,7.74950865 C55.4549481,7.15283045 53.5278893,6.40833218 51.6672664,5.52348789 C53.2895502,6.09857439 54.6448443,7.38743253 55.299654,8.97898962 C53.719308,8.34411073 52.1389619,7.70881661 50.5586159,7.07393772 C51.6589619,7.56099654 52.6094118,8.38148097 53.2525952,9.39878201 C51.9952941,9.23269204 50.7612457,8.89303806 49.596955,8.39103114 C50.92609,8.9470173 52.0260208,10.0307543 52.6019377,11.352 C51.2341869,10.7690242 49.866436,10.185218 48.4986851,9.60182699 C49.4005536,9.86964706 50.1251211,10.6639723 50.3086505,11.5861869 C49.3357785,11.3154602 48.3633218,11.0443183 47.3908651,10.7727612 C49.7402076,7.75324567 52.0912111,4.73456055 54.4388927,1.71379931 C56.3053287,-0.688692042 60.4492734,0.067432526 62.6130104,1.78272664" id="Fill-72" fill="#F7E0A2"></path>
            <path d="M68.8352803,16.1266298 C66.7454533,16.8146574 64.6560415,17.5031003 62.5662145,18.1915433 C64.1137578,17.5765952 65.8373564,17.4113356 67.4737578,17.7198478 C65.3826851,18.419917 63.2031696,18.8554879 61.003308,19.0128581 C62.7198478,18.6752803 64.4866298,18.5930657 66.2272526,18.7703668 C64.1050381,19.4309896 61.9828235,20.0916125 59.8601938,20.7522353 C61.1988789,20.2116125 62.7310588,20.1659377 64.0996401,20.6255917 C62.3058685,21.1558339 60.4714048,21.5494671 58.6178408,21.8010934 C60.0748651,21.4664221 61.6265606,21.5548651 63.0358339,22.0527197 C61.1664913,22.2756955 59.2967336,22.4986713 57.427391,22.7216471 C58.6302976,22.6622699 59.8489827,22.9691211 60.8804014,23.5919585 C59.4154879,23.6758339 57.9505744,23.7597093 56.4856609,23.8435848 C57.8857993,23.8165952 59.2909204,24.2608858 60.4211626,25.0880138 C58.7428235,25.1204014 57.0644844,25.1532042 55.3861453,25.1855917 C56.6314048,24.9464221 57.9750727,25.2815087 58.9620623,26.0774948 C57.4045536,26.164692 55.8358339,26.057564 54.3044844,25.7598478 C55.4941038,25.7718893 56.6708512,26.2826159 57.4917509,27.1437924 C56.1522353,27.1915433 54.8060761,27.0457993 53.508083,26.7115433 C53.7484983,26.7734118 56.4640692,23.2136886 56.8203322,22.834173 C58.003308,21.5752111 59.2464913,20.3727197 60.5444844,19.2320969 C62.9789481,17.0916125 65.3893287,15.3468374 68.8352803,16.1266298" id="Fill-74" fill="#F7E0A2"></path>
            <path d="M78.7289273,27.7516817 C71.650173,31.1112664 64.3978547,34.2370796 57.7521799,38.4225467 C51.2601384,42.5112664 45.6741176,47.7273218 41.2270588,53.9872526 C37.3509343,59.4428927 34.4692734,65.4337578 31.9035986,71.5919585 C28.9770934,78.6188097 26.4338408,85.8362491 24.4947405,93.1994325 C23.5035986,96.9642768 22.6681661,100.784346 22.2051903,104.652581 C21.837301,107.724415 21.6620761,110.911266 22.30609,113.959433 C22.3941176,114.374242 23.029827,114.198602 22.9422145,113.783792 C22.3816609,111.131751 22.4846367,108.359709 22.7516263,105.677772 C23.0946021,102.235142 23.7809689,98.8278062 24.5993772,95.4694671 C26.3715571,88.197218 28.7985467,81.0756955 31.5755709,74.1293979 C33.9423529,68.2103668 36.5524567,62.3532042 40.003391,56.976872 C44.2885121,50.301301 49.7441522,44.5695363 56.3300346,40.134519 C63.4266436,35.3552803 71.3595156,31.9765952 79.0619377,28.320955 C79.4451903,28.1390865 79.110519,27.5702284 78.7289273,27.7516817" id="Fill-76" fill="#DDB282"></path>
            <path d="M63.2755848,16.8127059 C57.0679723,21.7372734 51.5836817,27.474436 46.931917,33.8884152 C42.2859654,40.2945052 38.4903945,47.2644706 35.0618824,54.3822561 C32.2616055,60.1962353 29.7316401,66.0658547 27.6501176,72.175474 C25.3368997,78.9648166 23.3629204,85.8832941 21.813301,92.8868927 C20.3097716,99.6803875 18.8946851,106.879972 19.4369689,113.871945 C19.4693564,114.292152 20.1291488,114.295474 20.096346,113.871945 C19.6209135,107.74364 20.7083875,101.478727 21.9303945,95.4965813 C23.3595986,88.5021176 25.2555156,81.5969273 27.466173,74.8113218 C29.4235433,68.8038478 31.7359308,62.9960969 34.4153772,57.2759585 C37.7263806,50.208 41.3284567,43.2496609 45.70991,36.7779654 C50.7088028,29.394436 56.7544775,22.8222561 63.7418824,17.2790035 C64.0740623,17.0149204 63.6048581,16.5511142 63.2755848,16.8127059" id="Fill-78" fill="#DDB282"></path>
            <path d="M55.5823391,0.107211073 C45.6576332,11.4029896 38.3301592,24.5112249 32.7815087,38.4382837 C29.7171488,46.1303253 27.0372872,53.9909481 25.0354879,62.0284567 C23.0336886,70.0643045 21.719917,78.223474 20.6930657,86.4345467 C19.5516125,95.5649273 18.6127889,104.718976 17.6785329,113.871779 C17.6353495,114.293647 18.2951419,114.290325 18.33791,113.871779 C19.9871834,97.7120554 21.2777024,81.3372457 24.8922353,65.4706713 C26.7250381,57.4256886 29.233827,49.5791834 32.154519,41.8663806 C34.8144498,34.8407751 37.8547266,27.9513633 41.4833772,21.3688028 C45.5820623,13.9346159 50.444346,6.95136332 56.0486367,0.573508651 C56.3276678,0.255446367 55.8630311,-0.212512111 55.5823391,0.107211073" id="Fill-80" fill="#DDB282"></path>
            <path d="M21.6468374,7.94578547 C19.3394325,22.5625329 19.091128,37.3378962 18.7356955,52.0995571 C18.5712664,58.9125675 18.2253841,65.7205952 18.1327889,72.5352664 C18.0435156,79.0638478 18.0518201,85.5949204 17.813481,92.1210104 C17.5489827,99.3745744 17.0424083,106.677135 15.4919585,113.784125 C15.4018547,114.198104 16.037564,114.374159 16.128083,113.959349 C18.8706436,101.385509 18.6293979,88.2930519 18.7577024,75.4941592 C18.8241384,68.8771349 19.1231003,62.2733979 19.3041384,55.6596955 C19.5063529,48.2641246 19.6047612,40.8644014 19.9186713,33.4725675 C20.2790865,24.9862007 20.957564,16.5151972 22.2825467,8.12142561 C22.3481522,7.70620069 21.7128581,7.52723875 21.6468374,7.94578547" id="Fill-82" fill="#DDB282"></path>
            <g id="Group-86" transform="translate(0.000000, 107.044567)">
                <mask id="mask-2" fill="white">
                    <use xlink:href="#path-1"></use>
                </mask>
                <g id="Clip-85"></g>
                <path d="M5.73994464,12.8720554 C5.53565398,10.746519 4.76748789,6.11676125 3.75350865,4.5459654 C2.6892872,2.89793772 1.35350865,1.44423529 -0.000124567474,0.0237508651 C3.53676125,1.70416609 6.20790311,8.85558478 7.01302422,12.8720554 L5.73994464,12.8720554 Z" id="Fill-84" fill="#397B3B" mask="url(#mask-2)"></path>
            </g>
            <g id="Group-89" transform="translate(2.076125, 102.477093)">
                <mask id="mask-4" fill="white">
                    <use xlink:href="#path-3"></use>
                </mask>
                <g id="Clip-88"></g>
                <path d="M5.50538408,17.4395294 C5.10759862,12.1508097 3.24116263,4.52686505 0.178463668,0.31233218 C3.60448443,3.92852595 6.0389481,12.4252734 7.14053979,17.4395294 L5.50538408,17.4395294 Z" id="Fill-87" fill="#599948" mask="url(#mask-4)"></path>
            </g>
            <g id="Group-92" transform="translate(4.152249, 87.944221)">
                <mask id="mask-6" fill="white">
                    <use xlink:href="#path-5"></use>
                </mask>
                <g id="Clip-91"></g>
                <path d="M4.89732872,31.9724014 C4.74784775,21.9044429 3.1737301,9.73959862 0.243487889,0.150394464 C2.66507958,4.48907958 4.19186159,9.28035986 5.21414533,14.1426436 C6.21608304,18.9090104 6.75130796,27.0013287 7.2703391,31.9724014 L4.89732872,31.9724014 Z" id="Fill-90" fill="#397B3B" mask="url(#mask-6)"></path>
            </g>
            <g id="Group-95" transform="translate(6.643599, 58.463253)">
                <mask id="mask-8" fill="white">
                    <use xlink:href="#path-7"></use>
                </mask>
                <g id="Clip-94"></g>
                <path d="M7.9046782,61.4533702 C7.84073356,41.793301 5.23353633,19.0493564 0.176512111,0.0839584775 C7.24779239,18.6573841 10.5799723,41.5616055 9.90813841,61.4533702 L7.9046782,61.4533702 Z" id="Fill-93" fill="#397B3B" mask="url(#mask-8)"></path>
            </g>
            <g id="Group-98" transform="translate(9.550173, 77.563599)">
                <mask id="mask-10" fill="white">
                    <use xlink:href="#path-9"></use>
                </mask>
                <g id="Clip-97"></g>
                <path d="M1.89487889,42.3530242 C-0.281314879,28.652263 -0.39716263,14.1077647 1.57017301,0.382920415 C1.61750865,13.6962768 2.57377163,29.1351696 4.41487889,42.3530242 L1.89487889,42.3530242 Z" id="Fill-96" fill="#599948" mask="url(#mask-10)"></path>
            </g>
            <path d="M20.6840138,107.428651 C20.8334948,111.724567 20.7678893,115.738131 21.1424221,119.91654 L18.8080277,119.91654 C18.5211073,108.970381 18.3770242,102.773564 20.0690657,88.3146021 C21.1872664,78.7548789 27.0568858,61.5234602 30.4127336,55.3880969 C24.5020069,73.0256055 20.0549481,89.3402076 20.6840138,107.428651" id="Fill-99" fill="#397B3B"></path>
            <g id="Group-103" transform="translate(16.608997, 29.397509)">
                <mask id="mask-12" fill="white">
                    <use xlink:href="#path-11"></use>
                </mask>
                <g id="Clip-102"></g>
                <path d="M3.74047059,62.5761799 C3.47680277,69.2517509 2.71818685,77.2207474 3.15749481,86.8925813 C3.19777163,87.7790865 3.28870588,89.1472526 3.25133564,90.5191557 L0.218117647,90.5191557 C0.138394464,85.0448304 0.533688581,79.4720969 0.766214533,74.0679446 C1.30102422,61.6302976 2.3839308,49.2159031 4.00870588,36.8733426 C5.63431142,24.530782 7.80178547,12.2592249 10.5065606,0.108083045 C8.89673356,7.34005536 8.34448443,15.021301 7.39361938,22.3678754 C5.66586851,35.716526 4.27154325,49.1216471 3.74047059,62.5761799" id="Fill-101" fill="#599948" mask="url(#mask-12)"></path>
            </g>
            <g id="Group-106" transform="translate(22.422145, 59.293702)">
                <mask id="mask-14" fill="white">
                    <use xlink:href="#path-13"></use>
                </mask>
                <g id="Clip-105"></g>
                <path d="M2.77781315,60.6229204 L0.232069204,60.6229204 C1.72895502,48.6760692 1.34279585,25.0410519 13.0172595,0.307764706 C6.9653564,15.3837509 4.41213841,30.9198062 3.40978547,47.0853426 C3.12992388,51.5946851 2.94307266,56.1085952 2.77781315,60.6229204" id="Fill-104" fill="#397B3B" mask="url(#mask-14)"></path>
            </g>
            <path d="M23.0044152,118.711889 C23.0147958,119.015003 23.0542422,119.438118 23.0957647,119.916457 L20.5749343,119.916457 C20.7829619,114.859433 21.0067682,109.09528 21.1587405,104.237149 C21.5249689,92.5136886 24.0893979,78.8855917 28.9255225,68.3347266 C27.0511972,74.5518893 25.764,80.2176332 24.8222699,86.3588097 C23.1696747,97.1351419 22.6282215,107.816388 23.0044152,118.711889" id="Fill-107" fill="#599948"></path>
            <g id="Group-111" transform="translate(25.743945, 70.504775)">
                <mask id="mask-16" fill="white">
                    <use xlink:href="#path-15"></use>
                </mask>
                <g id="Clip-110"></g>
                <path d="M0.223847751,49.4118478 C-0.103349481,35.0878339 7.0796263,9.65281661 15.4173426,0.247972318 C8.70024913,13.3906713 2.59727336,30.3683875 2.60142561,49.4118478 L0.223847751,49.4118478 Z" id="Fill-109" fill="#599948" mask="url(#mask-16)"></path>
            </g>
            <g id="Group-114" transform="translate(33.633218, 95.003045)">
                <mask id="mask-18" fill="white">
                    <use xlink:href="#path-17"></use>
                </mask>
                <g id="Clip-113"></g>
                <path d="M1.77462976,24.9135779 C2.01546021,19.9300484 1.95234602,12.2811903 1.74016609,10.3877647 C1.52383391,8.46029066 0.90099654,2.36063668 0.20383391,0.264581315 C1.93407612,4.82914879 2.84549481,10.1560692 3.30930104,14.4640277 C3.54016609,16.6111557 3.61947405,18.7719862 3.67179239,20.9303253 C3.70168858,22.1693564 3.852,23.5728166 3.82667128,24.9135779 L1.77462976,24.9135779 Z" id="Fill-112" fill="#599948" mask="url(#mask-18)"></path>
            </g>
            <g id="Group-117" transform="translate(30.311419, 89.605121)">
                <mask id="mask-20" fill="white">
                    <use xlink:href="#path-19"></use>
                </mask>
                <g id="Clip-116"></g>
                <path d="M2.76444291,30.3115017 L0.215377163,30.3115017 C0.403889273,27.9999446 0.866034602,25.7137163 1.44485813,23.4702561 C2.65648443,18.7748927 4.29620761,14.3340623 6.19752249,9.86914879 C7.14672664,7.639391 10.483474,1.9192526 12.8137163,0.135031142 C9.84485813,4.95413149 7.21233218,9.99122491 5.6560692,15.4572457 C4.27212457,20.3174533 3.44707266,25.3105329 2.76444291,30.3115017" id="Fill-115" fill="#397B3B" mask="url(#mask-20)"></path>
            </g>
            <g id="Group-120" transform="translate(36.955017, 104.968443)">
                <mask id="mask-22" fill="white">
                    <use xlink:href="#path-21"></use>
                </mask>
                <g id="Clip-119"></g>
                <path d="M2.15152941,14.9481799 L0.270975779,14.9481799 C1.41076817,9.90859516 2.71997232,4.78056747 5.45339792,0.38499654 C4.51789619,2.50139792 3.28343253,7.50693426 2.58543945,11.5537163 C2.38862284,12.6968304 2.24910727,13.9084567 2.15152941,14.9481799" id="Fill-118" fill="#599948" mask="url(#mask-22)"></path>
            </g>
        </g>
    </g>
</svg>