<?xml version="1.0" encoding="UTF-8"?>
<svg width="120px" height="120px" viewBox="0 0 120 120" version="1.1" xmlns="http://www.w3.org/2000/svg" xmlns:xlink="http://www.w3.org/1999/xlink">
    <!-- Generator: Sketch 51.1 (57501) - http://www.bohemiancoding.com/sketch -->
    <title>Steamed bun3</title>
    <desc>Created with Sketch.</desc>
    <defs></defs>
    <g id="Steamed-bun3" stroke="none" stroke-width="1" fill="none" fill-rule="evenodd">
        <g id="Page-1" transform="translate(0.000000, 17.520000)">
            <polygon id="Fill-1" fill="#ACC953" points="0 16.483572 2.3376 41.418732 4.67532 42.977052 10.2744 47.448492 8.57136 42.977052 15.16968 15.368532"></polygon>
            <g id="Group-46" transform="translate(1.440000, 0.095040)">
                <path d="M90.508068,45.998952 L114.663828,45.998952 L114.663828,31.196952 L118.559988,13.271712 C112.857228,21.673992 102.361068,25.402992 92.635548,22.482072 L90.508068,21.843072 L90.508068,45.998952 Z" id="Fill-2" fill="#ACC953"></path>
                <path d="M7.910628,28.07688 C7.910628,28.07688 3.235308,27.2976 3.235308,21.84312" id="Fill-4" fill="#87B828"></path>
                <path d="M4.793784,32.7522 C4.793784,32.7522 0.897624,31.19376 0.897624,21.84312" id="Fill-6" fill="#87B828"></path>
                <path d="M107.650896,28.07688 C107.650896,28.07688 112.326216,27.2976 112.326216,21.84312" id="Fill-8" fill="#87B828"></path>
                <path d="M112.326216,35.4795 C112.326216,50.95902 87.731016,63.50754 57.391176,63.50754 C27.051336,63.50754 2.456136,50.95902 2.456136,35.4795 C2.456136,19.99998 12.586056,6.30642 57.391176,10.56822 C102.196296,14.83014 112.326216,19.99998 112.326216,35.4795" id="Fill-10" fill="#FFFFFF"></path>
                <path d="M83.877948,58.856124 L61.287228,81.446724 L38.696628,58.856124 L44.556108,55.431084 C54.164388,49.814724 61.783908,41.344164 66.355548,31.197084 L70.515348,38.789244 C74.383908,45.850164 78.854748,52.563924 83.877948,58.856124" id="Fill-12" fill="#87B828"></path>
                <path d="M0.118416,59.635296 C0.118416,73.621776 25.760376,84.959976 57.391176,84.959976 C89.021976,84.959976 114.663816,73.621776 114.663816,59.635296 L114.663816,33.920976 C114.663816,47.907456 89.021976,59.245656 57.391176,59.245656 C25.760376,59.245656 0.118416,47.907456 0.118416,33.920976 L0.118416,59.635296 Z" id="Fill-14" fill="#BF8B61"></path>
                <path d="M64.793784,42.88206 C64.793784,42.88206 62.456184,52.2327 53.105424,56.12886" id="Fill-16" fill="#ACC953"></path>
                <path d="M64.793784,56.128812 C64.793784,56.128812 69.469104,51.453492 67.131384,42.882012" id="Fill-18" fill="#ACC953"></path>
                <path d="M74.144412,53.01192 C74.144412,53.01192 74.923692,50.67432 70.248372,44.44056" id="Fill-20" fill="#ACC953"></path>
                <path d="M110.767788,32.7522 C110.767788,32.7522 114.663828,31.19376 114.663828,21.84312" id="Fill-22" fill="#87B828"></path>
                <path d="M60.89766,7.81716 C60.89766,12.1206 57.75786,15.60936 53.88474,15.60936 C50.0115,15.60936 46.8717,12.1206 46.8717,7.81716 C46.8717,3.5136 50.0115,0.02496 53.88474,0.02496 C57.75786,0.02496 60.89766,3.5136 60.89766,7.81716" id="Fill-24" fill="#FFFFFF"></path>
                <path d="M67.910628,7.81716 C67.910628,12.1206 65.817468,15.60936 63.235308,15.60936 C60.653148,15.60936 58.559988,12.1206 58.559988,7.81716 C58.559988,3.5136 60.653148,0.02496 63.235308,0.02496 C65.817468,0.02496 67.910628,3.5136 67.910628,7.81716" id="Fill-26" fill="#FFFFFF"></path>
                <path d="M74.144412,11.713236 C74.144412,16.016796 72.051252,19.505436 69.469092,19.505436 C66.886932,19.505436 64.793772,16.016796 64.793772,11.713236 C64.793772,7.409796 66.886932,3.921036 69.469092,3.921036 C72.051252,3.921036 74.144412,7.409796 74.144412,11.713236" id="Fill-28" fill="#FFFFFF"></path>
                <path d="M78.803376,12.763644 C76.402056,16.334844 72.718296,18.061884 70.575576,16.621164 C68.432856,15.180324 68.642496,11.117244 71.043816,7.546044 C73.445256,3.974724 77.128896,2.247684 79.271736,3.688524 C81.414456,5.129364 81.204816,9.192444 78.803376,12.763644" id="Fill-30" fill="#FFFFFF"></path>
                <path d="M63.615936,14.195916 C63.502416,15.097356 63.262416,16.027356 62.806296,16.909116 C62.569416,17.344596 62.293296,17.773116 61.940136,18.147156 C61.592016,18.522996 61.190976,18.853716 60.756936,19.120956 C59.884656,19.658436 58.912656,19.922196 57.977136,20.021316 C57.507096,20.070276 57.041016,20.078916 56.579856,20.053836 C56.349216,20.039916 56.119416,20.020116 55.889256,19.989996 C55.773936,19.974396 55.658616,19.957716 55.541736,19.937556 L55.364136,19.904796 C55.299216,19.891476 55.251576,19.882356 55.160256,19.860276 L55.159656,19.860156 L56.531016,19.153596 C55.941936,21.057996 55.088976,22.918956 53.927376,24.609996 C52.784256,26.311716 51.330936,27.829956 49.681896,29.084076 C48.028176,30.333876 46.180896,31.312956 44.261496,32.018436 C42.341136,32.732076 40.351776,33.173916 38.363616,33.441036 C36.373056,33.700836 34.379016,33.772356 32.404056,33.708036 C30.428616,33.640716 28.472616,33.426636 26.541576,33.117756 C25.575456,32.965836 24.618096,32.772396 23.666376,32.563236 C22.714776,32.352636 21.768936,32.122596 20.833416,31.856436 C19.897296,31.592436 18.966096,31.314876 18.046776,30.996756 C17.586696,30.838836 17.127216,30.679836 16.671336,30.505716 L15.987576,30.239556 C15.756336,30.148236 15.539256,30.057516 15.292416,29.950476 C14.699616,29.693556 14.427216,29.004756 14.684136,28.411836 C14.919576,27.868476 15.518016,27.594396 16.072656,27.750156 L16.113336,27.761676 L16.762296,27.943236 L17.431896,28.120956 C17.880576,28.235556 18.330096,28.350876 18.782136,28.457076 C19.686216,28.668876 20.593176,28.870716 21.503616,29.049876 C22.414776,29.226036 23.326296,29.393676 24.240576,29.536956 C25.154496,29.681436 26.071296,29.797716 26.986176,29.907156 C30.646416,30.313596 34.328736,30.392196 37.879896,29.894196 C39.651576,29.640036 41.388816,29.242836 43.036056,28.648116 C43.860696,28.354716 44.667816,28.020516 45.440976,27.627996 C45.637656,27.535716 45.823656,27.425676 46.016136,27.325836 C46.110936,27.273756 46.208736,27.225996 46.301256,27.170556 L46.579776,27.004716 C46.766376,26.895636 46.955256,26.789436 47.133696,26.668356 C47.313456,26.549196 47.499336,26.437836 47.675256,26.312916 C48.390456,25.828116 49.058856,25.279716 49.700016,24.697716 C49.856376,24.548076 50.020296,24.405396 50.171856,24.250356 C50.321856,24.093516 50.476176,23.940516 50.628936,23.785356 C50.780976,23.629596 50.920776,23.462196 51.068136,23.301036 C51.140376,23.219316 51.215016,23.139396 51.285816,23.056116 L51.491856,22.800756 C51.627096,22.628436 51.773376,22.464276 51.900816,22.285236 L52.296816,21.756036 C52.429536,21.579516 52.546536,21.391476 52.672896,21.209316 L52.859616,20.933796 C52.920936,20.841276 52.975896,20.744436 53.034576,20.649876 L53.389296,20.081916 L53.718456,19.495356 L53.885016,19.201716 L54.040296,18.900996 C54.143496,18.700236 54.247776,18.499236 54.355176,18.298836 L54.892176,17.296956 C55.008936,17.078916 55.280376,16.997076 55.498296,17.113836 C55.674936,17.208396 55.762056,17.405316 55.726536,17.592276 L55.819056,17.611836 L55.939656,17.633916 C56.021976,17.648316 56.106816,17.660436 56.191776,17.672076 C56.362656,17.694396 56.535936,17.709036 56.708856,17.719716 C57.054936,17.738556 57.399936,17.731236 57.734136,17.696316 C58.402176,17.625516 59.027736,17.443116 59.535576,17.127876 C59.789856,16.970196 60.016776,16.781676 60.218856,16.565316 C60.424296,16.352076 60.586776,16.092396 60.737496,15.820596 C61.024536,15.263676 61.208976,14.607396 61.296336,13.905876 C61.375896,13.265316 61.959576,12.810516 62.600256,12.889956 C63.240816,12.969516 63.695736,13.553316 63.616176,14.193876 L63.615936,14.195916 Z" id="Fill-32" fill="#F9D5CC"></path>
                <path d="M69.421056,11.10468 C69.708936,11.9664 69.895176,12.90864 69.865656,13.90104 C69.840696,14.39604 69.777096,14.90184 69.620736,15.39204 C69.469536,15.8814 69.251256,16.35324 68.975736,16.782 C68.421816,17.64396 67.659936,18.30252 66.859416,18.79692 C66.456936,19.04448 66.040656,19.254 65.613936,19.431 C65.399976,19.51824 65.184336,19.59984 64.963776,19.67232 C64.853136,19.70832 64.741896,19.74312 64.627776,19.7754 L64.453536,19.82292 C64.389216,19.839 64.342416,19.85136 64.250496,19.87104 L64.249896,19.87116 L65.180256,18.64056 C65.473536,20.61228 65.510136,22.65912 65.194896,24.68628 C64.901136,26.71512 64.248216,28.71288 63.304536,30.55728 C62.354616,32.39976 61.113216,34.08192 59.688336,35.5488 C58.266096,37.02324 56.663856,38.28264 54.987336,39.384 C53.305296,40.47984 51.538776,41.40744 49.730496,42.20424 C47.920656,42.99876 46.064616,43.65228 44.190216,44.20968 C43.253616,44.49096 42.306696,44.73108 41.358216,44.9544 C40.409256,45.1764 39.457056,45.3786 38.498496,45.54348 C37.540416,45.71064 36.580896,45.86364 35.614296,45.97464 C35.131296,46.03164 34.648176,46.0872 34.161936,46.12752 L33.430416,46.18356 C33.182376,46.20132 32.947416,46.21344 32.678616,46.22388 C32.033016,46.24884 31.489296,45.74568 31.464216,45.10008 C31.441296,44.50836 31.862016,44.0022 32.429496,43.9026 L32.471016,43.8954 L33.134736,43.77816 L33.815256,43.64856 C34.269336,43.55748 34.724496,43.467 35.177976,43.36704 C36.084696,43.16664 36.989616,42.95592 37.887936,42.72336 C38.785536,42.4878 39.679896,42.24444 40.565976,41.9778 C41.452536,41.71248 42.329136,41.4204 43.201296,41.12316 C46.676856,39.90516 50.030376,38.382 53.016096,36.396 C54.503136,35.4 55.897296,34.29 57.124776,33.0408 C57.741096,32.41956 58.324056,31.7688 58.851096,31.08024 C58.988496,30.912 59.108616,30.73224 59.238816,30.55896 C59.301696,30.471 59.369256,30.38568 59.428656,30.29544 L59.608056,30.02556 C59.728896,29.8464 59.853216,29.66892 59.961696,29.48244 C60.072216,29.29728 60.191496,29.11632 60.296016,28.92768 C60.730896,28.18104 61.096056,27.39744 61.422096,26.59512 C61.498296,26.39268 61.584336,26.19312 61.653816,25.98768 C61.721136,25.78152 61.793976,25.57668 61.864656,25.37064 C61.934256,25.16448 61.987776,24.95304 62.050776,24.744 C62.080656,24.63912 62.113296,24.5346 62.141016,24.429 L62.216256,24.10956 C62.263536,23.89572 62.324376,23.68452 62.361696,23.4678 L62.489736,22.81944 C62.532936,22.60284 62.557056,22.38264 62.592096,22.16376 L62.641056,21.8346 C62.656416,21.72468 62.663976,21.61356 62.675976,21.50292 L62.749896,20.83728 L62.792736,20.166 L62.815896,19.82928 L62.825616,19.491 C62.831736,19.26528 62.838696,19.03908 62.848776,18.81192 L62.899176,17.67624 C62.910096,17.42928 63.119256,17.23788 63.366336,17.2488 C63.566496,17.25768 63.730296,17.39736 63.779256,17.58132 L63.871056,17.559 L63.989376,17.5266 C64.069776,17.50392 64.151496,17.47812 64.233216,17.45184 C64.396776,17.39808 64.559376,17.33628 64.719936,17.27112 C65.040096,17.13828 65.347896,16.98216 65.633976,16.80612 C66.205656,16.4532 66.690456,16.01784 67.011816,15.51396 C67.172856,15.26172 67.295856,14.99364 67.384416,14.71104 C67.477296,14.42988 67.511256,14.12544 67.529496,13.81524 C67.547256,13.18896 67.429416,12.51744 67.204536,11.84736 C66.998856,11.23536 67.328256,10.57272 67.940136,10.36716 C68.552136,10.16148 69.214776,10.49088 69.420456,11.10276 L69.421056,11.10468 Z" id="Fill-34" fill="#F9D5CC"></path>
                <path d="M24.18018,22.714392 C24.18018,22.714392 47.50206,26.557272 47.86242,16.198392 C47.86242,16.198392 38.78574,21.673512 32.30646,17.196432" id="Stroke-36" stroke="#F9D5CC" stroke-width="2.33772" stroke-linecap="round" stroke-linejoin="round"></path>
                <path d="M83.3502,40.9395 C83.3502,40.9395 82.38228,17.32302 72.1656,19.07154 C72.1656,19.07154 79.36812,26.84874 76.2984,34.10154" id="Stroke-38" stroke="#F9D5CC" stroke-width="2.33772" stroke-linecap="round" stroke-linejoin="round"></path>
                <path d="M77.2674,16.547568 C77.2674,16.547568 87.82776,17.464488 90.43008,24.897648" id="Stroke-40" stroke="#F9D5CC" stroke-width="2.33772" stroke-linecap="round" stroke-linejoin="round"></path>
                <path d="M114.663864,46.921044 L114.663864,42.493644 C108.700704,53.388684 84.898224,61.806444 57.391224,61.806444 C29.883984,61.806444 6.081624,53.388684 0.118464,42.493644 L0.118464,46.918524 C8.744304,57.229644 30.834864,64.393284 57.391224,64.393284 C60.727944,64.393284 63.991824,64.277124 67.170024,64.058844 L67.057344,79.630524 C63.910464,79.891524 60.684144,80.034084 57.391224,80.034084 C29.450664,80.034084 6.021744,70.251084 0.118464,57.196524 L0.118464,59.405244 C0.118464,60.539244 0.303984,61.653564 0.630624,62.748084 C3.723384,66.765444 8.382864,70.432884 14.471784,73.538124 C25.956984,79.395804 41.198904,82.621044 57.391224,82.621044 C73.583424,82.621044 88.825344,79.395804 100.310544,73.538124 C106.399344,70.432884 111.058944,66.765444 114.151704,62.748084 C114.478344,61.653564 114.663864,60.539244 114.663864,59.405244 L114.663864,57.228564 C109.619304,68.328084 91.890744,77.053764 69.505464,79.404204 L69.618024,63.869604 C90.596904,62.047524 107.400384,55.599684 114.663864,46.921044" id="Fill-42" fill="#C69C6D"></path>
                <path d="M78.058716,69.570396 C78.058716,69.807876 77.875476,70.001556 77.650956,70.001556 C77.426316,70.001556 77.243196,69.807876 77.243196,69.570396 C77.243196,69.332916 77.426316,69.139236 77.650956,69.139236 C77.875476,69.139236 78.058716,69.332916 78.058716,69.570396 M74.796396,69.570396 C74.796396,71.234436 76.077036,72.588516 77.650956,72.588516 C79.224756,72.588516 80.505516,71.234436 80.505516,69.570396 C80.505516,67.906356 79.224756,66.552276 77.650956,66.552276 C76.077036,66.552276 74.796396,67.906356 74.796396,69.570396" id="Fill-44" fill="#C69C6D"></path>
            </g>
        </g>
    </g>
</svg>