<?xml version="1.0" encoding="UTF-8"?>
<svg width="120px" height="120px" viewBox="0 0 120 120" version="1.1" xmlns="http://www.w3.org/2000/svg" xmlns:xlink="http://www.w3.org/1999/xlink">
    <!-- Generator: Sketch 51.1 (57501) - http://www.bohemiancoding.com/sketch -->
    <title>Police1</title>
    <desc>Created with Sketch.</desc>
    <defs>
        <polygon id="path-1" points="0.199373684 0.299053333 13.3734789 0.299053333 13.3734789 5.86666667 0.199373684 5.86666667"></polygon>
    </defs>
    <g id="Police1" stroke="none" stroke-width="1" fill="none" fill-rule="evenodd">
        <g id="Group-75" transform="translate(30.000000, 0.000000)">
            <path d="M58.1879,47.4574426 C57.0446419,46.9754754 55.6711581,47.4161311 54.5593839,48.4843279 C54.0595774,47.728918 53.4633516,47.3079344 52.9104161,47.4161311 C51.8812871,47.6148197 51.3972226,49.5859672 51.8320935,51.8187541 C51.9954161,52.666623 52.2728677,53.4358033 52.6073839,54.0476066 C52.6506742,54.3230164 52.7136419,54.5925246 52.8041581,54.8384262 L47.5699645,60.9820328 L36.4679645,57.0082623 C36.4679645,57.0082623 38.355029,60.0003934 38.8174484,61.0941639 C39.1598355,61.888918 39.8170613,64.4108852 39.8170613,64.4108852 C39.8170613,64.4108852 47.9280935,67.7079344 50.2283839,66.8699016 C53.071771,65.8410492 56.3362548,56.5774426 56.3362548,56.5774426 L56.3362548,56.5735082 C57.5621581,56.1387541 58.744771,54.9702295 59.4295452,53.3551475 C60.4940935,50.839082 59.9372226,48.199082 58.1879,47.4574426" id="Fill-1" fill="#FDDFBB"></path>
            <path d="M18.0182194,113.555016 C16.3043161,114.61141 15.0587355,116.848131 16.526671,118.608787 C17.6345097,119.850098 19.2697032,118.903869 20.5093806,118.382557 C21.8808968,117.729443 23.4531226,117.290754 24.6908323,116.440918 C25.493671,115.880262 26.4362194,115.21141 26.9773484,114.375344 C27.1446065,114.113705 27.2233161,113.804852 27.1623161,113.555016 L18.0182194,113.555016 Z" id="Fill-3" fill="#333433"></path>
            <path d="M37.5553387,113.555016 C39.2712097,114.61141 40.5167903,116.848131 39.0488548,118.608787 C37.9390484,119.850098 36.3038548,118.903869 35.0622097,118.382557 C33.6906935,117.729443 32.1263387,117.290754 30.8827258,116.440918 C30.0798871,115.880262 29.1412742,115.21141 28.5981774,114.375344 C28.4289516,114.113705 28.3522097,113.804852 28.4132097,113.555016 L37.5553387,113.555016 Z" id="Fill-5" fill="#333433"></path>
            <polygon id="Fill-7" fill="#0B4768" points="15.9544516 88.6556066 17.8218387 113.615607 27.2886452 113.615607 27.6487419 95.564459 27.9222581 95.564459 28.2843226 113.615607 37.7491613 113.615607 39.6145806 88.6556066"></polygon>
            <path d="M11.0543806,62.3883934 C7.56557419,66.8480656 6.22750968,80.2565902 6.22750968,80.2565902 C6.22750968,80.2565902 6.22750968,80.2408525 6.23538065,80.1975738 C5.7828,80.8467541 5.46599355,81.6926557 5.36957419,82.6349508 C5.12950968,84.8775738 6.20192903,86.8290492 7.76431613,86.9962623 C8.78360645,87.1024918 9.75960645,86.4218361 10.3774774,85.3123279 C10.9579613,85.7883934 11.5305742,85.9752787 11.9398645,85.7608525 C12.7033484,85.3556066 12.6148,83.6834754 11.7391548,82.027082 C11.4046387,81.3956066 11.0012516,80.8565902 10.5880258,80.4572459 C10.5545742,80.384459 10.5211226,80.319541 10.4857032,80.254623 C10.4857032,80.254623 12.0008645,70.5700328 13.6203161,68.2801967 C14.4329935,67.1333115 14.9505097,66.4880656 15.1394129,65.9805246 C15.2889613,65.569377 15.4503161,64.7883934 15.5172194,64.4952787 C16.0347355,62.1936393 18.8840258,57.0100328 18.8840258,57.0100328 C18.8840258,57.0100328 12.7525419,60.2165902 11.0543806,62.3883934" id="Fill-9" fill="#FDDFBB"></path>
            <path d="M10.8910581,79.8184918 L6.16060645,79.8243934 C6.16060645,79.8243934 7.68363871,66.4119344 11.1763806,61.9542295 C12.7151548,59.9850492 17.1878323,57.4670164 17.9946065,57.0224262 C19.987929,55.7339016 25.9895419,55.5391475 25.9895419,55.5391475 L27.6601548,55.5902951 L27.7998645,55.5902951 L29.4704774,55.5391475 C29.4704774,55.5391475 35.4917677,55.7516066 37.4772194,57.0460328 L47.5382839,60.980459 L52.8157677,54.8545574 L57.3612516,57.0873443 C57.3612516,57.0873443 53.1640581,65.8965246 50.320671,66.925377 C48.1168,67.7260328 41.5051871,65.1096393 40.9424129,64.8598033 C43.1718645,74.4794754 42.8688323,88.6650492 42.8688323,88.6650492 L12.5892194,88.6611148 C12.5892194,88.6611148 12.3963806,77.3142295 13.9745097,67.9384918 C13.903671,68.0466885 13.8210258,68.1607869 13.7403484,68.2807869 C12.1169613,70.570623 10.8910581,79.8184918 10.8910581,79.8184918" id="Fill-11" fill="#0771B7"></path>
            <path d="M33.0338613,63.068459 C34.2873129,63.7923934 35.2259258,63.068459 35.2259258,63.068459 C35.2259258,63.068459 36.2983452,63.8061639 37.4160226,63.068459 C37.4160226,69.5602623 35.2259258,68.7261639 35.2259258,68.7261639 C35.2259258,68.7261639 33.0338613,69.603541 33.0338613,63.068459" id="Fill-13" fill="#F6B90C"></path>
            <path d="M12.5896129,88.6613115 L42.8692258,88.6652459 C42.8692258,88.6652459 42.890871,87.5616393 42.8790645,85.7636066 L12.5915806,85.7636066 C12.5699355,87.5616393 12.5896129,88.6613115 12.5896129,88.6613115" id="Fill-15" fill="#333433"></path>
            <path d="M30.4781581,89.0571148 C29.5415129,89.991541 26.2101258,89.8912131 25.1809968,89.0571148 C24.4824484,88.4944918 24.5513194,86.1220328 25.1809968,85.4925246 C26.1196097,84.5561311 29.647771,84.4636721 30.4781581,85.4925246 C31.0389645,86.1830164 31.1098032,88.4256393 30.4781581,89.0571148" id="Fill-17" fill="#F7B90B"></path>
            <path d="M29.5423,88.4154098 C28.9303323,89.0232787 26.7736871,88.9544262 26.1007194,88.4154098 C25.6520742,88.0534426 25.6933968,86.5111475 26.1007194,86.1059016 C26.7126871,85.5 28.9992032,85.4370492 29.5423,86.1059016 C29.9063323,86.5544262 29.9476548,88.0081967 29.5423,88.4154098" id="Fill-19" fill="#333433"></path>
            <path d="M30.3069645,87.2878033 C30.3069645,87.3743607 30.2400613,87.4412459 30.1534806,87.4412459 L29.0948355,87.4412459 C29.0082548,87.4412459 28.9374161,87.3743607 28.9374161,87.2878033 C28.9374161,87.2012459 29.0082548,87.1304262 29.0948355,87.1304262 L30.1534806,87.1304262 C30.2400613,87.1304262 30.3069645,87.2012459 30.3069645,87.2878033" id="Fill-21" fill="#D69D0B"></path>
            <path d="M27.716629,59.5219672 L31.4769839,55.6386885 C30.3199516,55.5009836 29.4462742,55.4636066 29.4462742,55.4636066 L27.7736935,55.5540984 L27.6359516,55.5540984 L25.9594355,55.4931148 C25.9594355,55.4931148 25.170371,55.5206557 24.0881129,55.6327869 L27.716629,59.5219672 Z" id="Fill-23" fill="#FDDFBB"></path>
            <path d="M49.1484871,35.9693115 C49.3137774,34.9050492 49.3944548,33.8112787 49.3944548,32.7037377 C49.3944548,20.7096393 39.6698742,10.9857049 27.6725516,10.9857049 C15.6771968,10.9857049 5.95458387,20.7096393 5.95458387,32.7037377 C5.95458387,33.7620984 6.03132581,34.8007869 6.17693871,35.8217705 C4.91955161,36.5043934 4.07539032,37.8007869 4.07539032,39.288 C4.07539032,41.4893115 5.93293871,43.275541 8.22339032,43.275541 C8.37884194,43.275541 8.53035806,43.2657049 8.68384194,43.248 C12.3910677,49.912918 19.5064226,54.4198033 27.6725516,54.4198033 C35.8308097,54.4198033 42.9461645,49.9207869 46.6533903,43.2676721 C46.7202935,43.2735738 46.7832613,43.275541 46.846229,43.275541 C49.1406161,43.275541 50.9981645,41.4893115 50.9981645,39.288 C50.9981645,37.9011148 50.2661645,36.6834098 49.1484871,35.9693115" id="Fill-25" fill="#FDDFBB"></path>
            <g id="Page-1" transform="translate(15.000000, 29.000000)">
                <path d="M6.22875275,3.09640088 C5.45712117,2.92235643 5.3211738,1.89471199 2.8433317,2.35573421 C2.06412117,2.53613421 0.42612117,3.51195643 0.110647486,4.16364532 C-0.205299883,4.8158231 0.0234895909,1.77248977 2.56764749,0.641689768 C4.4031738,-0.0329768984 5.02512117,0.000267546019 6.54470012,0.000267546019 C8.06427906,0.000267546019 8.53227906,0.907156435 8.31106854,1.65026755 C8.31106854,1.65026755 7.80801591,3.45328977 6.22875275,3.09640088 Z" id="Fill-1" fill="#343434"></path>
                <path d="M20.1341558,3.09640088 C20.9057873,2.92235643 21.0417347,1.89471199 23.5195768,2.35573421 C24.2987873,2.53613421 25.9367873,3.51195643 26.252261,4.16364532 C26.5682084,4.8158231 26.3394189,1.77248977 23.795261,0.641689768 C21.9597347,-0.0329768984 21.3377873,0.000267546019 19.8182084,0.000267546019 C18.2986294,0.000267546019 17.8306294,0.907156435 18.05184,1.65026755 C18.05184,1.65026755 18.5548926,3.45328977 20.1341558,3.09640088 Z" id="Fill-3" fill="#343434"></path>
                <path d="M6,9 C6,10.6568785 5.10453816,12 3.99983098,12 C2.89512381,12 2,10.6568785 2,9 C2,7.34312148 2.89512381,6 3.99983098,6 C5.10453816,6 6,7.34312148 6,9" id="Fill-5" fill="#343434"></path>
                <path d="M24,9 C24,10.6568785 23.1048762,12 22.000169,12 C20.8951238,12 20,10.6568785 20,9 C20,7.34312148 20.8951238,6 22.000169,6 C23.1048762,6 24,7.34312148 24,9" id="Fill-7" fill="#343434"></path>
                <path d="M13.0197368,12.0692 C13.8586316,11.9552889 15.9802632,13.8262667 15.9802632,13.8262667 C15.9802632,13.8262667 16.0825789,13.4116889 15.6396842,12.5884 C15.1626842,11.7025333 12.9903684,11 12.9903684,11 C12.9903684,11 11.3026316,11.4478222 10.5030526,12.6040444 C10.207,12.8939556 10,13.9025333 10,13.9025333 C10,13.9025333 11.8947368,12.2217333 13.0197368,12.0692 Z" id="Fill-9" fill="#EEAC6C"></path>
                <g id="Group-13" transform="translate(6.000000, 15.000000)">
                    <mask id="mask-2" fill="white">
                        <use xlink:href="#path-1"></use>
                    </mask>
                    <g id="Clip-12"></g>
                    <path d="M0.199373684,0.696031111 C0.199373684,0.696031111 7.09763684,3.90412 13.3734789,0.299053333 C13.3734789,0.299053333 11.9822684,5.76825333 7.42305789,5.86016444 C3.30768947,5.98238667 2.43942632,4.36807556 1.94632105,3.90412 C1.45274211,3.44114222 0.524794737,2.13238667 0.199373684,0.696031111" id="Fill-11" fill="#EEAC6C" mask="url(#mask-2)"></path>
                </g>
            </g>
            <path d="M14.7265806,34.5208525 C16.4975484,33.4231475 19.1067742,32.734623 19.1067742,32.734623 C19.4157097,32.1582295 19.1402258,31.1765902 18.7289677,31.119541 C17.4263226,30.9326557 14.7265806,34.5208525 14.7265806,34.5208525" id="Fill-39" fill="#AD6921"></path>
            <path d="M39.8709774,34.5208525 C38.0960742,33.4231475 35.4848806,32.734623 35.4848806,32.734623 C35.1779129,32.1582295 35.4573323,31.1765902 35.8626871,31.119541 C37.1653323,30.9326557 39.8709774,34.5208525 39.8709774,34.5208525" id="Fill-41" fill="#AD6921"></path>
            <path d="M50.2553419,29.8737049 C50.2435355,28.738623 50.1589226,27.3576393 49.9975677,25.8841967 C47.0813742,16.3274754 38.1911161,9.37731148 27.677471,9.37731148 C18.5255032,9.37731148 10.6053419,14.6455082 6.7839871,22.3117377 C5.72534194,25.3314098 5.07795484,28.296 5.02482581,29.6356721 C4.83592258,34.2763279 8.22437419,41.228459 8.22437419,41.228459 C7.81508387,33.5897705 7.89969677,33.603541 9.74347097,32.2776393 C12.0378581,30.6330492 16.8627613,27.5641967 18.7301484,25.4474754 C19.0823742,25.0382951 19.8202774,23.5864918 19.8202774,23.5864918 C19.8202774,23.5864918 19.7455032,24.7274754 20.3850194,25.231082 C24.2280194,28.2645246 35.5681161,24.8927213 39.8715677,27.2297705 C43.3879226,29.1458361 47.6598903,41.228459 47.6598903,41.228459 C49.3974065,37.9412459 50.2907613,32.4232131 50.2553419,29.8737049" id="Fill-43" fill="#AD6921"></path>
            <path d="M25.9814742,56.9112787 L29.5293129,56.9112787 C30.5427,56.9112787 31.3652161,54.7335738 31.3652161,53.7342295 L24.1436032,53.7342295 C24.1436032,54.7335738 24.9641516,56.9112787 25.9814742,56.9112787" id="Fill-45" fill="#FDDFBB"></path>
            <path d="M24.9859935,56.2178361 L31.3398323,54.1227541 L31.3536065,54.1089836 C30.1572194,54.3116066 28.9313161,54.4198033 27.6778645,54.4198033 C26.4814774,54.4198033 25.3047677,54.3214426 24.1595419,54.1345574 C24.2284129,54.7561967 24.5747355,55.5981639 24.9859935,56.2178361" id="Fill-47" fill="#EEAC6C"></path>
            <path d="M40.9912129,59.6411803 L33.9053742,57.0798689 C33.2422452,56.8398689 32.7562129,56.2260984 32.9116645,55.8149508 L32.9116645,55.8129836 C33.0572774,55.4038033 33.7814065,55.3506885 34.4445355,55.5887213 L41.5303742,58.152 L40.9912129,59.6411803 Z" id="Fill-49" fill="#0B4768"></path>
            <path d="M41.0201387,59.5701639 L33.9283968,57.0088525 C33.3144613,56.7865574 32.8461387,56.2101639 32.9779774,55.8403279 C33.0507839,55.6377049 33.3065903,55.5196721 33.6765258,55.5196721 C33.9087194,55.5196721 34.1743645,55.5708197 34.4203323,55.6593443 L41.506171,58.2186885 L41.5593,58.0809836 L34.4695258,55.5196721 C34.2058484,55.4252459 33.9283968,55.3721311 33.6765258,55.3721311 C33.2377194,55.3721311 32.9386226,55.5216393 32.8382677,55.7911475 C32.6749452,56.2455738 33.1708161,56.8927869 33.8792032,57.1485246 L40.9709452,59.7137705 L41.0201387,59.5701639 Z" id="Fill-51" fill="#F6B90C"></path>
            <path d="M34.5057323,56.3081311 C34.5057323,56.4891148 34.3640548,56.6327213 34.1790871,56.6327213 C33.9980548,56.6327213 33.8563774,56.4891148 33.8563774,56.3081311 C33.8563774,56.131082 33.9980548,55.9815738 34.1790871,55.9815738 C34.3640548,55.9815738 34.5057323,56.131082 34.5057323,56.3081311" id="Fill-53" fill="#F6B90C"></path>
            <path d="M40.8471742,58.7421639 C40.7861742,58.9113443 40.3572065,58.9172459 39.8908516,58.7480656 C39.4264645,58.5847869 39.1017871,58.309377 39.1647548,58.1362623 C39.2257548,57.9631475 39.6507871,57.9631475 40.1171419,58.1283934 C40.5775935,58.2956066 40.9081742,58.5690492 40.8471742,58.7421639" id="Fill-55" fill="#F6B90C"></path>
            <path d="M14.9475581,59.6411803 L22.0333968,57.0798689 C22.6965258,56.8398689 23.1766548,56.2260984 23.0290742,55.8149508 L23.0290742,55.8129836 C22.8795258,55.4038033 22.1573645,55.3506885 21.4922677,55.5887213 L14.406429,58.152 L14.9475581,59.6411803 Z" id="Fill-57" fill="#0B4768"></path>
            <path d="M14.9186323,59.5701639 L22.0084065,57.0088525 C22.6223419,56.7865574 23.0906645,56.2101639 22.9568581,55.8403279 C22.8879871,55.6377049 22.6341484,55.5196721 22.2622452,55.5196721 C22.0280839,55.5196721 21.7644065,55.5708197 21.5184387,55.6593443 L14.4326,58.2186885 L14.379471,58.0809836 L21.4692452,55.5196721 C21.7348903,55.4252459 22.0103742,55.3721311 22.2622452,55.3721311 C22.6990839,55.3721311 23.0001484,55.5216393 23.0985355,55.7911475 C23.2638258,56.2455738 22.7640194,56.8927869 22.0615355,57.1485246 L14.9658581,59.7137705 L14.9186323,59.5701639 Z" id="Fill-59" fill="#F6B90C"></path>
            <path d="M21.431071,56.3081311 C21.431071,56.4891148 21.5806194,56.6327213 21.7537806,56.6327213 C21.9367806,56.6327213 22.0804258,56.4891148 22.0804258,56.3081311 C22.0804258,56.131082 21.9367806,55.9815738 21.7537806,55.9815738 C21.5806194,55.9815738 21.431071,56.131082 21.431071,56.3081311" id="Fill-61" fill="#F6B90C"></path>
            <path d="M15.0915968,58.7421639 C15.150629,58.9113443 15.577629,58.9172459 16.0459516,58.7480656 C16.508371,58.5847869 16.8350161,58.309377 16.7759839,58.1362623 C16.7110484,57.9631475 16.2879839,57.9631475 15.8235968,58.1283934 C15.3572419,58.2956066 15.0325645,58.5690492 15.0915968,58.7421639" id="Fill-63" fill="#F6B90C"></path>
            <path d="M30.3455323,78.3163279 C30.3238871,76.8861639 28.8284032,62.5412459 28.8284032,62.5412459 C29.2711452,62.1773115 29.7630806,60.4343607 29.7630806,60.4343607 L28.6139194,59.4861639 L26.7839194,59.5432131 L25.7154355,60.391082 C25.7154355,60.391082 26.1227581,62.2205902 26.6107581,62.5412459 C26.6107581,62.5412459 25.2235,76.8940328 25.2175968,78.3222295 C25.215629,79.8173115 27.7835323,80.8737049 27.7835323,80.8737049 C27.7835323,80.8737049 30.3711129,79.8448525 30.3455323,78.3163279" id="Fill-65" fill="#0B4768"></path>
            <path d="M27.7685774,59.5125246 C27.7685774,59.5125246 25.7595129,60.3505574 25.9661258,61.2043279 C26.1806097,62.0600656 22.0955774,56.2174426 22.2215129,55.8967869 C22.3454806,55.5780984 23.5674484,54.4823607 23.5674484,54.4823607 L27.7685774,59.5125246 Z" id="Fill-67" fill="#0771B7"></path>
            <path d="M23.5641032,54.5252459 C23.3909419,54.6806557 22.3578774,55.624918 22.2496516,55.9081967 C22.2142323,55.9927869 22.5959742,56.6852459 23.5168774,58.0445902 C24.6227484,59.6891803 25.7581355,61.1980328 25.9470387,61.255082 C25.9470387,61.2472131 25.9431032,61.2334426 25.9391677,61.2098361 C25.7384581,60.3993443 27.4267806,59.6262295 27.7160387,59.5003279 L23.5641032,54.5252459 Z M25.9568774,61.3180328 C25.6912323,61.3180328 23.8376194,58.6288525 23.7569419,58.5127869 C23.3692968,57.9481967 22.1158452,56.0911475 22.1925871,55.882623 C22.3126194,55.5619672 23.4991677,54.5036066 23.5444258,54.4563934 L23.5719742,54.4347541 L27.8183613,59.5259016 L27.7770387,59.5436066 C27.7612968,59.5495082 25.7974903,60.3796721 25.9982,61.1980328 C26.0119742,61.2472131 26.0080387,61.282623 25.9942645,61.3003279 C25.9824581,61.3140984 25.9706516,61.3180328 25.9568774,61.3180328 Z" id="Fill-69" fill="#094767"></path>
            <path d="M27.6975419,59.5125246 C27.6975419,59.5125246 29.7085742,60.3505574 29.4940903,61.2043279 C29.2874774,62.0600656 33.3646387,56.2174426 33.2426387,55.8967869 C33.1226065,55.5780984 31.8947355,54.4823607 31.8947355,54.4823607 L27.6975419,59.5125246 Z" id="Fill-71" fill="#0771B7"></path>
            <path d="M27.7455548,59.500918 C28.0367806,59.6248525 29.7251032,60.3999344 29.5263613,61.2104262 C29.5204581,61.2340328 29.5165226,61.2478033 29.5165226,61.2556721 C29.7014903,61.1966557 30.8408129,59.6917377 31.9486516,58.0530492 C32.8675871,56.6878033 33.2453935,55.993377 33.2139097,55.9087869 C33.1076516,55.623541 32.0686839,54.6812459 31.8955226,54.5258361 L27.7455548,59.500918 Z M29.5086516,61.318623 C29.5086516,61.318623 29.4791355,61.3146885 29.4712645,61.300918 C29.4555226,61.2812459 29.4515871,61.2478033 29.4653613,61.1966557 C29.6680387,60.3782951 27.7042323,59.5481311 27.6845548,59.5422295 L27.6412645,59.5264918 L31.8915871,54.4353443 L31.9152,54.4569836 C31.9663613,54.5041967 33.1489742,55.5625574 33.2729419,55.8832131 C33.3536194,56.0917377 32.0883613,57.958623 31.6967806,58.5271475 C31.6200387,58.6373115 29.772329,61.318623 29.5086516,61.318623 Z" id="Fill-73" fill="#094767"></path>
            <path d="M5.58720645,28.308 C9.54827097,38.6614426 45.6209161,38.7794754 49.9204323,28.308 C49.9204323,28.308 39.1549161,21.2988197 27.5373677,21.2988197 C13.4207871,21.2988197 5.58720645,28.308 5.58720645,28.308" id="Fill-75" fill="#0B4768"></path>
            <path d="M5.58720645,28.308 C26.8230774,15.7552131 32.6810452,20.8365246 49.9204323,28.308 L54.9027548,20.9624262 C54.9027548,20.9624262 49.259271,16.5342295 47.7421419,10.3158689 C36.4669806,8.82078689 32.9486581,0.458163934 27.5373677,0.275213115 C22.2264323,0.100131148 17.6140452,8.57685246 7.76549677,10.3158689 C5.91975484,17.4017705 0.604883871,20.9624262 0.604883871,20.9624262 L5.58720645,28.308 Z" id="Fill-77" fill="#0771B7"></path>
            <path d="M5.53151935,28.3290492 C5.53151935,28.3290492 24.9511645,17.167082 49.9218097,28.3290492 L49.9218097,21.9474098 C49.9218097,21.9474098 34.5517774,11.019541 5.52364839,21.3788852 L5.53151935,28.3290492 Z" id="Fill-79" fill="#333433"></path>
            <path d="M6.7229871,28.308 C6.7229871,29.4135738 6.2212129,30.3086557 5.60530968,30.3086557 C4.98940645,30.3086557 4.48763226,29.4135738 4.48763226,28.308 C4.48763226,27.2024262 4.98940645,26.3034098 5.60530968,26.3034098 C6.2212129,26.3034098 6.7229871,27.2024262 6.7229871,28.308" id="Fill-81" fill="#F6B90C"></path>
            <path d="M51.0548355,28.308 C51.0548355,29.4135738 50.5510935,30.3086557 49.9371581,30.3086557 C49.3173194,30.3086557 48.8175129,29.4135738 48.8175129,28.308 C48.8175129,27.2024262 49.3173194,26.3034098 49.9371581,26.3034098 C50.5510935,26.3034098 51.0548355,27.2024262 51.0548355,28.308" id="Fill-83" fill="#F6B90C"></path>
            <path d="M23.4104226,4.49390164 C25.8405839,5.89062295 27.6489387,4.49390164 27.6489387,4.49390164 C27.6489387,4.49390164 29.7249065,5.91816393 31.8894226,4.49390164 C31.8894226,17.050623 27.6489387,15.4296393 27.6489387,15.4296393 C27.6489387,15.4296393 23.4104226,17.1352131 23.4104226,4.49390164" id="Fill-85" fill="#F6B90C"></path>
        </g>
    </g>
</svg>