<?xml version="1.0" encoding="UTF-8"?>
<svg width="120px" height="120px" viewBox="0 0 120 120" version="1.1" xmlns="http://www.w3.org/2000/svg" xmlns:xlink="http://www.w3.org/1999/xlink">
    <!-- Generator: Sketch 51.1 (57501) - http://www.bohemiancoding.com/sketch -->
    <title>Leaf35</title>
    <desc>Created with Sketch.</desc>
    <defs>
        <polygon id="path-1" points="7.83743964e-05 0.34317757 62.2614953 0.34317757 62.2614953 88.8210268 7.83743964e-05 88.8210268"></polygon>
        <polygon id="path-3" points="0.0601977868 0.0866915888 59.408972 0.0866915888 59.408972 113.831776 0.0601977868 113.831776"></polygon>
    </defs>
    <g id="Leaf35" stroke="none" stroke-width="1" fill="none" fill-rule="evenodd">
        <g id="Group" transform="translate(29.000000, 0.000000)">
            <g id="Group-3" transform="translate(0.000000, 0.217570)">
                <mask id="mask-2" fill="white">
                    <use xlink:href="#path-1"></use>
                </mask>
                <g id="Clip-2"></g>
                <path d="M59.3740374,0.34317757 C26.3785234,8.04448598 -22.3212897,62.2160748 11.3863738,86.5121495 C49.7902991,102.37514 70.2009533,32.4493458 59.3740374,0.34317757" id="Fill-1" fill="#EBAB20" mask="url(#mask-2)"></path>
            </g>
            <g id="Group-6" transform="translate(0.560748, 5.825047)">
                <mask id="mask-4" fill="white">
                    <use xlink:href="#path-3"></use>
                </mask>
                <g id="Clip-5"></g>
                <path d="M51.3291589,53.2494953 L50.6226168,54.1113645 C43.9502804,61.9758505 27.6515888,69.768 16.9682243,69.0345421 C18.6257944,65.339215 20.3540187,61.679215 22.146729,58.0500561 C34.4394393,54.4231402 44.0500935,53.7328598 51.548972,41.6655701 L50.7678505,42.7629533 C42.8859813,53.6117383 34.1192523,54.1960374 22.4057944,57.530243 C24.782243,52.7375327 27.2685981,47.9964112 29.8435514,43.2906168 C33.6801869,43.8889346 36.6409346,43.139215 40.2616822,41.7070654 C46.0474766,39.4175327 52.4041121,35.4294953 56.4050467,30.6210841 C51.9504673,35.3291215 46.1803738,39.054729 40.135514,41.3851963 C36.6426168,42.7321121 33.7328972,43.4655701 30.0605607,42.8936075 C32.3607477,38.7003364 34.7299065,34.5345421 37.1551402,30.3855701 C45.895514,29.2629533 53.2261682,26.8696822 58.4366355,19.2289346 L57.4328972,20.5074393 C52.1680374,26.8595888 45.2484112,28.9551028 37.4242991,29.923514 C40.1142056,25.3293084 42.8714019,20.7536075 45.6745794,16.1818318 C50.1364486,15.1893084 57.408785,10.4779065 59.0719626,6.33566355 L59.408972,5.1951028 L58.9721495,6.29136449 C57.1065421,10.1863178 50.397757,14.5853832 45.9745794,15.6922991 C48.4104673,11.7250093 50.88,7.75996262 53.3725234,3.78650467 C54.1429907,2.55846729 54.9140187,1.35958879 55.6127103,0.0866915888 C54.8882243,1.02201869 54.2725234,1.92594393 53.6080374,2.90052336 C49.631215,8.73566355 45.6824299,14.739028 41.8233645,20.8825794 C40.0609346,15.2964112 42.7805607,7.13865421 46.5897196,2.83379439 C47.4998131,1.80482243 48.3325234,1.09659813 49.38,0.225757009 C48.4592523,0.863327103 47.931028,1.25641121 47.1201869,2.04426168 C42.5865421,6.44500935 39.4788785,15.3311776 41.531215,21.3474393 C38.6007477,26.0240748 35.7229907,30.7814579 32.9254206,35.6083738 C30.8798131,29.7334206 31.6973832,23.623514 33.1009346,17.6605234 C33.9807477,13.9225794 35.0876636,10.6960374 36.3897196,7.08874766 C34.7725234,10.8306168 33.5282243,14.6094953 32.6102804,18.5801495 C31.2437383,24.4943551 30.5590654,30.2807103 32.6428037,36.096785 C30.2523364,40.2328598 27.9207477,44.4182804 25.6659813,48.648 C21.8971963,39.5683738 21.2641121,28.4162243 25.7125234,19.4913645 L26.1527103,18.6311776 C20.7560748,27.4382804 21.5383178,39.8459439 25.4069159,49.1352897 C23.3388785,53.0285607 21.3353271,56.9582804 19.4102804,60.9194019 C16.5325234,51.116972 13.451215,41.9919252 16.4725234,31.8132336 C16.8661682,30.4859439 17.3349533,29.201271 17.7919626,27.8958505 C17.224486,29.212486 16.7629907,30.4018318 16.3300935,31.7694953 C13.0766355,42.0446355 16.2874766,51.5251963 19.1315888,61.4958505 C17.151028,65.5904299 15.2551402,69.7175327 13.4573832,73.8709907 C8.06859813,66.8773458 4.3788785,47.3616449 8.73869159,40.4745421 L9.18616822,39.8386542 C8.68598131,40.4397757 8.63383178,40.4448224 8.25420561,41.148 C4.27962617,48.5055701 7.83869159,67.4414579 13.2650467,74.3156636 C7.81401869,86.9666916 3.28205607,99.8599626 0.0829906542,112.822206 C-0.0224299065,113.261271 0.247850467,113.70314 0.686915888,113.809121 C1.12654206,113.914542 1.56785047,113.644262 1.67327103,113.205196 C5.35906542,97.8429533 10.5571963,83.383514 16.7820561,69.4500561 C27.7609346,70.2188411 45.0880374,61.956785 51.3291589,53.2494953" id="Fill-4" fill="#A57011" mask="url(#mask-4)"></path>
            </g>
        </g>
    </g>
</svg>