<?xml version="1.0" encoding="UTF-8"?>
<svg width="120px" height="120px" viewBox="0 0 120 120" version="1.1" xmlns="http://www.w3.org/2000/svg" xmlns:xlink="http://www.w3.org/1999/xlink">
    <!-- Generator: Sketch 51.1 (57501) - http://www.bohemiancoding.com/sketch -->
    <title>Watermelon</title>
    <desc>Created with Sketch.</desc>
    <defs></defs>
    <g id="Watermelon" stroke="none" stroke-width="1" fill="none" fill-rule="evenodd">
        <g id="Page-1" transform="translate(60.000000, 61.000000) scale(-1, 1) translate(-60.000000, -61.000000) translate(3.000000, 14.000000)">
            <g id="Group-4">
                <path d="M0.672203478,55.3061368 C1.37305565,57.4127263 2.82630783,60.3880737 4.15862087,62.8548316 C19.37316,91.0330632 54.634847,101.566011 82.8642209,86.3785789 C111.094586,71.1911474 121.645038,35.9995263 106.429508,7.82129474 C105.097195,5.35552632 103.366377,2.54146316 101.987473,0.799989474" id="Fill-1" fill="#00BB46"></path>
                <path d="M0.672203478,55.3061368 C1.37305565,57.4127263 2.82630783,60.3880737 4.15862087,62.8548316 C19.37316,91.0330632 54.634847,101.566011 82.8642209,86.3785789 C111.094586,71.1911474 121.645038,35.9995263 106.429508,7.82129474 C105.097195,5.35552632 103.366377,2.54146316 101.987473,0.799989474" id="Stroke-3" stroke="#008E0F" stroke-width="3.50295652" stroke-linecap="round"></path>
            </g>
            <g id="Group-8" transform="translate(5.000000, 3.000000)">
                <path d="M0.673560577,49.6086212 C1.05882019,51.0553976 2.32948365,53.9894682 3.53775288,56.2248565 C17.3338106,81.7667859 49.1578394,91.2024565 74.7553202,77.4353506 C100.351811,63.6692329 110.00608,32.0111153 96.2090317,6.47017412 C95.0007625,4.23379765 93.2685798,1.46278588 92.2682913,0.34608" id="Fill-5" fill="#FF5F3C"></path>
                <path d="M0.673560577,49.6086212 C1.05882019,51.0553976 2.32948365,53.9894682 3.53775288,56.2248565 C17.3338106,81.7667859 49.1578394,91.2024565 74.7553202,77.4353506 C100.351811,63.6692329 110.00608,32.0111153 96.2090317,6.47017412 C95.0007625,4.23379765 93.2685798,1.46278588 92.2682913,0.34608" id="Stroke-7" stroke="#FF8155" stroke-width="3.50295652" stroke-linecap="round" stroke-linejoin="round"></path>
            </g>
            <path d="M19.0721062,50 C19.0721062,50 18.2868149,57.647657 21.8993365,55.6747749 C25.5127681,53.7009401 19.0721062,50 19.0721062,50" id="Fill-9" fill="#9D4E4E"></path>
            <path d="M37.0720996,40 C37.0720996,40 36.28688,47.647657 39.8990722,45.6747749 C43.5130842,43.7009401 37.0720996,40 37.0720996,40" id="Fill-11" fill="#9D4E4E"></path>
            <path d="M55.0720669,31 C55.0720669,31 54.2869274,38.648283 57.899661,36.6745326 C61.5123946,34.7007821 55.0720669,31 55.0720669,31" id="Fill-13" fill="#9D4E4E"></path>
            <path d="M73.0721062,21 C73.0721062,21 72.2868149,28.6485008 75.8993365,26.6744483 C79.5127681,24.7003958 73.0721062,21 73.0721062,21" id="Fill-15" fill="#9D4E4E"></path>
            <path d="M91.0720996,11 C91.0720996,11 90.28688,18.647657 93.8990722,16.6747749 C97.5130842,14.6999875 91.0720996,11 91.0720996,11" id="Fill-17" fill="#9D4E4E"></path>
            <path d="M91.0720996,33 C91.0720996,33 90.28688,40.648283 93.8990722,38.6745326 C97.5130842,36.7007821 91.0720996,33 91.0720996,33" id="Fill-19" fill="#9D4E4E"></path>
            <path d="M72.0718955,43 C72.0718955,43 71.2876316,50.647657 74.899613,48.6747749 C78.5125042,46.7009401 72.0718955,43 72.0718955,43" id="Fill-21" fill="#9D4E4E"></path>
            <path d="M52.0720996,54 C52.0720996,54 51.28688,61.647657 54.8990722,59.6747749 C58.5130842,57.7009401 52.0720996,54 52.0720996,54" id="Fill-23" fill="#9D4E4E"></path>
            <path d="M33.0720996,64 C33.0720996,64 32.28688,71.647657 35.8990722,69.6747749 C39.5130842,67.7009401 33.0720996,64 33.0720996,64" id="Fill-25" fill="#9D4E4E"></path>
            <path d="M92.0720996,52 C92.0720996,52 91.28688,59.648283 94.8990722,57.6745326 C98.5130842,55.7007821 92.0720996,52 92.0720996,52" id="Fill-27" fill="#9D4E4E"></path>
            <path d="M72.0720669,63 C72.0720669,63 71.2869274,70.647657 74.899661,68.6747749 C78.5123946,66.7009401 72.0720669,63 72.0720669,63" id="Fill-29" fill="#9D4E4E"></path>
            <path d="M53.0718955,73 C53.0718955,73 52.2876316,80.647657 55.899613,78.6747749 C59.5125042,76.7009401 53.0718955,73 53.0718955,73" id="Fill-31" fill="#9D4E4E"></path>
        </g>
    </g>
</svg>