<?xml version="1.0" encoding="UTF-8"?>
<svg width="120px" height="120px" viewBox="0 0 120 120" version="1.1" xmlns="http://www.w3.org/2000/svg" xmlns:xlink="http://www.w3.org/1999/xlink">
    <!-- Generator: Sketch 48.2 (47327) - http://www.bohemiancoding.com/sketch -->
    <title>School</title>
    <desc>Created with Sketch.</desc>
    <defs>
        <polygon id="path-1" points="0.26575 0.447372549 56.662 0.447372549 56.662 25.1078275 0.26575 25.1078275"></polygon>
        <polygon id="path-3" points="0 95.5526275 119.4275 95.5526275 119.4275 0.62745098 0 0.62745098"></polygon>
    </defs>
    <g id="建筑" stroke="none" stroke-width="1" fill="none" fill-rule="evenodd">
        <g id="School">
            <g id="Page-1" transform="translate(0.000000, 13.000000)">
                <g id="Group-3" transform="translate(31.250000, 0.180078)">
                    <mask id="mask-2" fill="white">
                        <use xlink:href="#path-1"></use>
                    </mask>
                    <g id="Clip-2"></g>
                    <path d="M56.662,25.1078275 C56.305125,11.4344157 43.822,0.447121569 28.463875,0.447121569 C13.10575,0.447121569 0.622,11.4344157 0.26575,25.1078275 L56.662,25.1078275 Z" id="Fill-1" fill="#FF8585" mask="url(#mask-2)"></path>
                </g>
                <path d="M78.50925,23.6169412 C78.50925,24.1791373 78.482375,24.7350588 78.443,25.2878431 L87.91175,25.2878431 C87.573,12.2920784 76.27675,1.72956863 61.973,0.714980392 C71.4955,3.94447059 78.50925,13.0801569 78.50925,23.6169412" id="Fill-4" fill="#FF8585"></path>
                <mask id="mask-4" fill="white">
                    <use xlink:href="#path-3"></use>
                </mask>
                <g id="Clip-7"></g>
                <polygon id="Fill-6" fill="#FFD586" mask="url(#mask-4)" points="30.76875 89.2768627 88.658125 89.2768627 88.658125 25.888 30.76875 25.888"></polygon>
                <path d="M91.51,25.887749 C91.51,27.468298 90.233125,28.7501804 88.658125,28.7501804 L30.76875,28.7501804 C29.194375,28.7501804 27.9175,27.468298 27.9175,25.887749 C27.9175,24.3059451 29.194375,23.0246902 30.76875,23.0246902 L88.658125,23.0246902 C90.233125,23.0246902 91.51,24.3059451 91.51,25.887749" id="Fill-8" fill="#7F7370" mask="url(#mask-4)"></path>
                <polygon id="Fill-9" fill="#0094A8" mask="url(#mask-4)" points="37.724375 44.4768627 44.950625 44.4768627 44.950625 37.222902 37.724375 37.222902"></polygon>
                <polygon id="Fill-10" fill="#0094A8" mask="url(#mask-4)" points="49.974375 44.4768627 57.20125 44.4768627 57.20125 37.222902 49.974375 37.222902"></polygon>
                <polygon id="Fill-11" fill="#0094A8" mask="url(#mask-4)" points="62.22625 44.4768627 69.4525 44.4768627 69.4525 37.222902 62.22625 37.222902"></polygon>
                <polygon id="Fill-12" fill="#0094A8" mask="url(#mask-4)" points="74.476875 44.4768627 81.703125 44.4768627 81.703125 37.222902 74.476875 37.222902"></polygon>
                <polygon id="Fill-13" fill="#0094A8" mask="url(#mask-4)" points="37.724375 64.8363922 44.950625 64.8363922 44.950625 57.5811765 37.724375 57.5811765"></polygon>
                <polygon id="Fill-14" fill="#0094A8" mask="url(#mask-4)" points="49.974375 64.8363922 57.20125 64.8363922 57.20125 57.5811765 49.974375 57.5811765"></polygon>
                <polygon id="Fill-15" fill="#0094A8" mask="url(#mask-4)" points="62.22625 64.8363922 69.4525 64.8363922 69.4525 57.5811765 62.22625 57.5811765"></polygon>
                <polygon id="Fill-16" fill="#0094A8" mask="url(#mask-4)" points="74.476875 64.8363922 81.703125 64.8363922 81.703125 57.5811765 74.476875 57.5811765"></polygon>
                <polygon id="Fill-17" fill="#0094A8" mask="url(#mask-4)" points="37.724375 54.7745882 44.950625 54.7745882 44.950625 47.52 37.724375 47.52"></polygon>
                <polygon id="Fill-18" fill="#0094A8" mask="url(#mask-4)" points="49.974375 54.7745882 57.20125 54.7745882 57.20125 47.52 49.974375 47.52"></polygon>
                <polygon id="Fill-19" fill="#0094A8" mask="url(#mask-4)" points="62.22625 54.7745882 69.4525 54.7745882 69.4525 47.52 62.22625 47.52"></polygon>
                <polygon id="Fill-20" fill="#0094A8" mask="url(#mask-4)" points="74.476875 54.7745882 81.703125 54.7745882 81.703125 47.52 74.476875 47.52"></polygon>
                <polygon id="Fill-21" fill="#7F7370" mask="url(#mask-4)" points="51.65875 89.2768627 67.76875 89.2768627 67.76875 74.5022745 51.65875 74.5022745"></polygon>
                <polygon id="Fill-22" fill="#7F7370" mask="url(#mask-4)" points="59.71375 89.2768627 67.76875 89.2768627 67.76875 74.5022745 59.71375 74.5022745"></polygon>
                <polygon id="Fill-24" fill="#F2F2F0" mask="url(#mask-4)" points="116.870438 89.2768627 116.870438 63.1843137 88.6579375 42.444549 88.6579375 89.2768627"></polygon>
                <polygon id="Fill-25" fill="#0094A8" mask="url(#mask-4)" points="104.4525 72.9675294 111.67875 72.9675294 111.67875 65.7123137 104.4525 65.7123137"></polygon>
                <polygon id="Fill-26" fill="#0094A8" mask="url(#mask-4)" points="93.85 72.9675294 101.07625 72.9675294 101.07625 65.7123137 93.85 65.7123137"></polygon>
                <polygon id="Fill-27" fill="#0094A8" mask="url(#mask-4)" points="104.4525 83.5570196 111.67875 83.5570196 111.67875 76.3018039 104.4525 76.3018039"></polygon>
                <polygon id="Fill-28" fill="#0094A8" mask="url(#mask-4)" points="93.85 83.5570196 101.07625 83.5570196 101.07625 76.3018039 93.85 76.3018039"></polygon>
                <path d="M88.6581875,42.4447373 L116.870688,63.184502" id="Stroke-30" stroke="#7F7370" stroke-width="4.074375" stroke-linecap="round" mask="url(#mask-4)"></path>
                <polygon id="Fill-31" fill="#F2F2F0" mask="url(#mask-4)" points="2.557375 89.2768627 2.557375 63.1843137 30.76925 42.444549 30.76925 89.2768627"></polygon>
                <polygon id="Fill-32" fill="#0094A8" mask="url(#mask-4)" points="7.748125 72.9675294 14.975 72.9675294 14.975 65.7123137 7.748125 65.7123137"></polygon>
                <polygon id="Fill-33" fill="#0094A8" mask="url(#mask-4)" points="18.35125 72.9675294 25.5775 72.9675294 25.5775 65.7123137 18.35125 65.7123137"></polygon>
                <polygon id="Fill-34" fill="#0094A8" mask="url(#mask-4)" points="7.748125 83.5570196 14.975 83.5570196 14.975 76.3018039 7.748125 76.3018039"></polygon>
                <polygon id="Fill-35" fill="#0094A8" mask="url(#mask-4)" points="18.35125 83.5570196 25.5775 83.5570196 25.5775 76.3018039 18.35125 76.3018039"></polygon>
                <path d="M30.7690625,42.4447373 L2.5571875,63.184502" id="Stroke-37" stroke="#7F7370" stroke-width="4.074375" stroke-linecap="round" mask="url(#mask-4)"></path>
                <path d="M119.418063,92.4147451 C119.418063,94.1483922 118.018687,95.5526275 116.292438,95.5526275 L3.1255625,95.5526275 C1.3993125,95.5526275 -6.25e-05,94.1483922 -6.25e-05,92.4147451 C-6.25e-05,90.681098 1.3993125,89.2768627 3.1255625,89.2768627 L116.292438,89.2768627 C118.018687,89.2768627 119.418063,90.681098 119.418063,92.4147451" id="Fill-38" fill="#84BE00" mask="url(#mask-4)"></path>
                <path d="M119.427813,92.4147451 C119.427813,94.1483922 118.028438,95.5526275 116.302188,95.5526275 L3.1353125,95.5526275 C1.4090625,95.5526275 116.302188,89.2768627 116.302188,89.2768627 C118.028438,89.2768627 119.427813,90.681098 119.427813,92.4147451" id="Fill-39" fill="#84BE00" mask="url(#mask-4)"></path>
            </g>
        </g>
    </g>
</svg>