<?xml version="1.0" encoding="UTF-8"?>
<svg width="120px" height="120px" viewBox="0 0 120 120" version="1.1" xmlns="http://www.w3.org/2000/svg" xmlns:xlink="http://www.w3.org/1999/xlink">
    <!-- Generator: Sketch 51.1 (57501) - http://www.bohemiancoding.com/sketch -->
    <title>Snow2</title>
    <desc>Created with Sketch.</desc>
    <defs></defs>
    <g id="Snow2" stroke="none" stroke-width="1" fill="none" fill-rule="evenodd">
        <path d="M60.4998781,49.0077323 C66.5681381,49.0077323 71.486886,53.9291969 71.486886,60.0008083 C71.486886,66.0716114 66.5681381,70.9930759 60.4998781,70.9930759 C54.4316181,70.9930759 49.5128702,66.0716114 49.5128702,60.0008083 C49.5128702,53.9291969 54.4316181,49.0077323 60.4998781,49.0077323 M8.56746385,90 C9.73474761,92.0246787 12.3213515,92.7181615 14.3441048,91.5494248 L27.0800189,84.1918797 L24.2454177,94.7751704 C23.6411767,97.0326266 24.9797159,99.3531266 27.235926,99.9585096 C29.492136,100.563084 31.8113552,99.2229975 32.4155962,96.9655414 L37.4393593,78.2075599 L37.9288915,77.9254789 C42.2773264,77.4518415 46.627377,76.9790123 50.9774276,76.5053749 C52.7416821,80.5094701 54.5067444,84.512757 56.2709989,88.5168521 L56.2709989,89.0858636 L42.5463268,102.818116 C40.8943577,104.470997 40.8943577,107.150362 42.5463268,108.802436 C44.197488,110.454509 46.8761821,110.454509 48.5273434,108.802436 L56.2709989,101.054503 L56.2709989,115.768785 C56.2709989,118.106259 58.163695,120 60.4998781,120 C62.8360612,120 64.7287573,118.106259 64.7287573,115.768785 L64.7287573,101.054503 L72.4724128,108.802436 C74.1243819,110.454509 76.8022682,110.454509 78.4534294,108.802436 C80.1053985,107.150362 80.1053985,104.470997 78.4534294,102.818116 L64.7287573,89.0858636 L64.7287573,88.5168521 C66.4938196,84.512757 68.2580741,80.5094701 70.0223286,76.5053749 C74.3723792,76.9790123 78.7224298,77.4518415 83.0716725,77.9254789 L83.5603969,78.2075599 L88.58416,96.9655414 C89.1892088,99.2229975 91.5076202,100.563084 93.7638302,99.9585096 C96.0200403,99.3531266 97.3585795,97.0326266 96.7543385,94.7751704 L93.9197373,84.1918797 L106.655651,91.5494248 C108.679213,92.7181615 111.265009,92.0246787 112.4331,90 C113.600384,87.9761295 112.907284,85.3889054 110.884531,84.2201687 L98.1486166,76.8626236 L108.726873,74.0272651 C110.982275,73.4218822 112.321623,71.1013821 111.716574,68.8447342 C111.112333,66.5872781 108.793921,65.2471913 106.537711,65.8525743 L87.7892761,70.879112 L87.307822,70.600264 C84.722026,67.0665733 82.1370377,63.5336908 79.5520494,60.0008083 C82.1370377,56.4671175 84.722026,52.9334267 87.307822,49.4005442 L87.7892761,49.1225045 L106.537711,54.148234 C108.793921,54.7528087 111.112333,53.4135302 111.716574,51.156074 C112.321623,48.8986179 110.982275,46.5789261 108.726873,45.9735431 L98.1486166,43.1381847 L110.884531,35.7806396 C112.907284,34.6119029 113.600384,32.0238705 112.4331,30 C111.265009,27.9761295 108.679213,27.283455 106.655651,28.4513835 L93.9197373,35.8081203 L96.7543385,25.2248296 C97.3585795,22.9673734 96.0200403,20.6476817 93.7638302,20.0431069 C91.5076202,19.437724 89.1892088,20.7770025 88.58416,23.0344586 L83.5603969,41.7932484 L83.0716725,42.0753294 C78.7224298,42.5481585 74.3723792,43.0217959 70.0223286,43.4954334 C68.2580741,39.4913382 66.4938196,35.487243 64.7287573,31.4839561 L64.7287573,30.9149446 L78.4542372,17.1826926 C80.1053985,15.5298111 80.1053985,12.8512541 78.4542372,11.1983727 C76.8022682,9.54549128 74.1243819,9.54549128 72.4724128,11.1983727 L64.7287573,18.9463049 L64.7287573,4.23202306 C64.7287573,1.89454967 62.8360612,0 60.4998781,0 C58.163695,0 56.2709989,1.89454967 56.2709989,4.23202306 L56.2709989,18.9463049 L48.5273434,11.1983727 C46.8761821,9.54549128 44.197488,9.54549128 42.5463268,11.1983727 C40.8943577,12.8512541 40.8943577,15.5298111 42.5463268,17.1826926 L56.2709989,30.9141364 L56.2709989,31.4839561 C54.5067444,35.487243 52.7416821,39.4913382 50.9774276,43.4954334 C46.6281848,43.0217959 42.2781343,42.5481585 37.9288915,42.0753294 L37.4393593,41.7932484 L32.4155962,23.0344586 C31.8113552,20.7770025 29.492136,19.437724 27.235926,20.0431069 C24.9797159,20.6476817 23.6411767,22.9673734 24.2454177,25.2248296 L27.0800189,35.8089285 L14.3441048,28.4513835 C12.3213515,27.283455 9.73474761,27.9761295 8.56746385,30 C7.39937228,32.0238705 8.09247226,34.6119029 10.1152256,35.7806396 L22.8511396,43.1381847 L12.2736908,45.9735431 C10.0174807,46.5781178 8.67813366,48.8986179 9.28318248,51.156074 C9.88742348,53.4135302 12.2066426,54.7528087 14.4628527,54.148234 L33.2104801,49.1225045 L33.6919342,49.4005442 C36.2777302,52.9334267 38.8627185,56.4671175 41.4477068,60.0008083 C38.8627185,63.5336908 36.2777302,67.0665733 33.6919342,70.600264 L33.2104801,70.879112 L14.4628527,65.8525743 C12.2066426,65.2471913 9.88742348,66.5872781 9.28318248,68.843926 C8.67813366,71.1013821 10.0174807,73.4218822 12.2736908,74.0272651 L22.8511396,76.8626236 L10.1152256,84.2201687 C8.09247226,85.3889054 7.39937228,87.9761295 8.56746385,90" id="Fill-20" fill="#70A8E2"></path>
    </g>
</svg>