<?xml version="1.0" encoding="UTF-8"?>
<svg width="120px" height="120px" viewBox="0 0 120 120" version="1.1" xmlns="http://www.w3.org/2000/svg" xmlns:xlink="http://www.w3.org/1999/xlink">
    <!-- Generator: Sketch 48.2 (47327) - http://www.bohemiancoding.com/sketch -->
    <title>Tree1</title>
    <desc>Created with Sketch.</desc>
    <defs></defs>
    <g id="ALL" stroke="none" stroke-width="1" fill="none" fill-rule="evenodd">
        <g id="Tree1">
            <g id="Group-182" transform="translate(13.000000, 0.000000)">
                <path d="M52.495748,39.4015748 C52.495748,39.4015748 48.2201575,87.775748 44.9981102,118.008189 C50.4217323,118.758425 52.3672441,118.182992 57.5111811,118.125354 C57.3694488,105.68315 52.4607874,43.1905512 52.495748,39.4015748" id="Fill-4" fill="#433C20"></path>
                <path d="M15.5319685,49.7735433 C1.72629921,61.8793701 4.7688189,80.0655118 20.5001575,85.6138583 C33.8985827,90.3392126 49.6185827,84.216378 51.9051969,70.2982677 C61.0544882,85.5817323 81.2485039,87.3373228 89.2922835,76.7537008 C98.6466142,64.4466142 94.5212598,45.3033071 77.8412598,43.0733858 C92.2601575,25.8623622 85.479685,3.01984252 66.3448819,0.511181102 C52.2812598,-1.33228346 42.5820472,9.77385827 44.5927559,23.4406299 C37.3955906,8.71464567 13.8538583,2.41322835 3.45165354,20.3499213 C-2.91590551,31.3303937 1.75275591,46.2604724 15.5319685,49.7735433" id="Fill-5" fill="#4E8652"></path>
                <path d="M17.8696063,67.8113386 C17.9622047,67.9955906 18.0633071,68.1779528 18.1474016,68.3650394 L18.4497638,68.8611024 C18.6699213,69.1823622 18.904252,69.4828346 19.1555906,69.7634646 C19.2944882,69.8938583 19.4267717,70.0261417 19.5552756,70.1584252 L19.9823622,70.5193701 C20.2837795,70.7385827 20.5804724,70.9568504 20.903622,71.1411024 C21.2314961,71.3177953 21.5584252,71.4907087 21.8995276,71.6390551 C22.2425197,71.7855118 22.5977953,71.8979528 22.9502362,72.0245669 L24.0359055,72.3335433 C24.4053543,72.4176378 24.775748,72.5092913 25.1555906,72.576378 C25.9133858,72.7133858 26.7014173,72.7653543 27.4847244,72.6897638 C28.2661417,72.6103937 29.0314961,72.3628346 29.7146457,71.9848819 C30.0548031,71.792126 30.3722835,71.5634646 30.6585827,71.3055118 C30.9392126,71.0390551 31.1858268,70.7480315 31.407874,70.4428346 C31.6195276,70.1300787 31.7877165,69.7974803 31.9285039,69.4582677 C32.0551181,69.1105512 32.1514961,68.7609449 32.2289764,68.4075591 L32.7448819,66.0444094 L33.5111811,68.4888189 C33.5981102,68.7637795 33.6500787,69.0462992 33.759685,69.3014173 C33.8541732,69.5631496 33.9713386,69.807874 34.1092913,70.031811 C34.2425197,70.2585827 34.4012598,70.463622 34.5807874,70.640315 C34.7574803,70.8188976 34.952126,70.975748 35.1703937,71.095748 C35.3792126,71.2280315 35.6144882,71.3187402 35.856378,71.3914961 C36.0935433,71.4765354 36.3477165,71.5266142 36.6075591,71.5587402 C37.128189,71.6107087 37.6781102,71.6069291 38.2261417,71.5067717 C38.7722835,71.4018898 39.3240945,71.2488189 39.8456693,71.0135433 C40.3691339,70.7801575 40.8737008,70.4919685 41.3272441,70.1319685 C41.783622,69.7766929 42.1937008,69.3533858 42.5225197,68.8629921 C42.6859843,68.6173228 42.8333858,68.3565354 42.9533858,68.0759055 C43.0629921,67.7933858 43.1489764,67.4976378 43.2188976,67.1848819 L43.3814173,67.1848819 L43.44,67.6809449 L43.4229921,68.1874016 C43.384252,68.5237795 43.3209449,68.8648819 43.2094488,69.1946457 C42.9826772,69.8513386 42.6075591,70.4570079 42.1474016,70.984252 C41.215748,72.0283465 39.9675591,72.7899213 38.575748,73.1329134 C37.880315,73.3001575 37.1414173,73.3851969 36.3968504,73.2812598 C35.6541732,73.1952756 34.9020472,72.936378 34.2661417,72.4828346 C33.6245669,72.0406299 33.1133858,71.423622 32.7817323,70.7565354 C32.6144882,70.423937 32.4755906,70.0790551 32.3952756,69.7285039 C32.2970079,69.3798425 32.2507087,69.0311811 32.2110236,68.6825197 L33.4941732,68.7637795 L33.2314961,69.3855118 L32.8951181,69.9685039 L32.5020472,70.5061417 L32.0579528,70.9937008 C31.7423622,71.2979528 31.4088189,71.5719685 31.0516535,71.8072441 C30.6944882,72.0425197 30.3307087,72.2551181 29.9537008,72.4393701 C29.2006299,72.8135433 28.4088189,73.0752756 27.6,73.2982677 C27.1937008,73.400315 26.783622,73.5080315 26.3631496,73.5770079 C25.943622,73.6450394 25.5193701,73.6894488 25.0894488,73.7168504 C24.6595276,73.7319685 24.2267717,73.7253543 23.7959055,73.6762205 L23.1524409,73.5770079 L22.520315,73.4116535 C22.1007874,73.2897638 21.6982677,73.1159055 21.3033071,72.9259843 C20.912126,72.7285039 20.5294488,72.5092913 20.1751181,72.2456693 C19.8245669,71.9782677 19.4844094,71.695748 19.1867717,71.3697638 C18.8948031,71.0371654 18.6217323,70.6903937 18.4025197,70.3096063 L18.1077165,69.7237795 L17.8922835,69.1105512 C17.8384252,68.896063 17.7930709,68.6806299 17.7552756,68.4727559 C17.7325984,68.2686614 17.7269291,68.0607874 17.7127559,67.8548031 L17.8696063,67.8113386" id="Fill-6" fill="#1E3520"></path>
                <path d="M63.0188976,17.28 C63.0188976,17.28 63.1502362,17.5341732 63.3552756,17.9848819 C63.4053543,18.0973228 63.4620472,18.2220472 63.5225197,18.3581102 C63.6037795,18.4733858 63.6925984,18.5990551 63.7870866,18.7322835 C63.9647244,18.9968504 64.1565354,19.2812598 64.4532283,19.5458268 C64.5949606,19.6790551 64.7159055,19.8377953 64.8822047,19.9606299 C65.0570079,20.0759055 65.224252,20.2044094 65.3990551,20.3310236 C65.5615748,20.4727559 65.7732283,20.5587402 65.9782677,20.6579528 C66.1908661,20.7420472 66.3694488,20.8922835 66.6028346,20.9508661 C66.8267717,21.0245669 67.0535433,21.1001575 67.2831496,21.1776378 C67.5155906,21.2428346 67.7659843,21.2655118 68.0050394,21.3259843 C68.2440945,21.3911811 68.4935433,21.4129134 68.7458268,21.4204724 C68.9971654,21.4251969 69.2475591,21.4790551 69.5007874,21.4459843 L70.2566929,21.415748 C70.5080315,21.3930709 70.751811,21.3316535 70.9984252,21.2929134 C71.2469291,21.2607874 71.4831496,21.1937008 71.7155906,21.12 C71.9461417,21.0434646 72.1908661,21 72.4053543,20.9007874 C72.8267717,20.6891339 73.2755906,20.5417323 73.6270866,20.2771654 C74.0154331,20.0598425 74.3319685,19.7905512 74.6258268,19.5288189 C74.9470866,19.2907087 75.143622,18.9864567 75.3685039,18.7445669 C75.5981102,18.5026772 75.7511811,18.2598425 75.8692913,18.0500787 C76.1244094,17.64 76.2888189,17.3952756 76.2888189,17.3952756 C76.2888189,17.3952756 76.2500787,17.6692913 76.1470866,18.1672441 C76.1007874,18.4185827 76.0374803,18.7256693 75.8664567,19.0393701 C75.7105512,19.3577953 75.5782677,19.7631496 75.2806299,20.0995276 C75.1445669,20.28 75.0028346,20.4689764 74.8573228,20.663622 C74.7033071,20.8544882 74.4973228,21.0009449 74.3074016,21.1795276 C73.9351181,21.5546457 73.456063,21.8258268 72.96,22.1130709 C72.7114961,22.2548031 72.4337008,22.3388976 72.1634646,22.456063 C71.8932283,22.576063 71.6116535,22.6733858 71.3149606,22.719685 C71.0211024,22.7773228 70.728189,22.8566929 70.4277165,22.8935433 L69.5168504,22.9587402 C69.2125984,22.9833071 68.9092913,22.9181102 68.6069291,22.9001575 C68.303622,22.8784252 68.0040945,22.8406299 67.7130709,22.7555906 C67.4211024,22.6818898 67.1272441,22.624252 66.8522835,22.5146457 C66.5820472,22.3946457 66.3146457,22.2765354 66.0519685,22.160315 C65.7855118,22.0554331 65.559685,21.8674016 65.3300787,21.7171654 C65.1023622,21.5574803 64.8755906,21.4138583 64.6988976,21.2116535 C64.5146457,21.023622 64.336063,20.8422047 64.1631496,20.6655118 C64.0025197,20.4793701 63.8929134,20.2601575 63.7672441,20.0730709 C63.6548031,19.8746457 63.5168504,19.712126 63.4450394,19.5108661 C63.3779528,19.3133858 63.3137008,19.1253543 63.2532283,18.9486614 C63.1965354,18.7738583 63.1388976,18.6151181 63.1001575,18.4677165 C63.087874,18.3193701 63.0765354,18.1833071 63.0661417,18.0595276 C63.0274016,17.5653543 63.0188976,17.28 63.0188976,17.28" id="Fill-7" fill="#1E3520"></path>
                <path d="M37.975748,47.5502362 L38.3348031,48.6085039 C38.4944882,48.9401575 38.6910236,49.2462992 38.8601575,49.5581102 C39.0822047,49.8415748 39.3335433,50.104252 39.5631496,50.3744882 C39.8522835,50.5889764 40.1187402,50.8251969 40.4040945,51.0330709 C40.7225197,51.1965354 41.0211024,51.3902362 41.3461417,51.5291339 C41.6862992,51.6359055 42.0094488,51.7851969 42.3562205,51.8598425 C42.7077165,51.9137008 43.0488189,52.015748 43.4031496,52.0327559 C43.7574803,52.0337008 44.1089764,52.0932283 44.4604724,52.0658268 C44.8110236,52.0261417 45.1672441,52.0384252 45.5111811,51.9609449 C45.8513386,51.8730709 46.2056693,51.8371654 46.5325984,51.7114961 C46.855748,51.5801575 47.2025197,51.5017323 47.5077165,51.3335433 C47.8053543,51.1549606 48.1370079,51.0274016 48.408189,50.8129134 C48.6708661,50.5899213 48.9770079,50.4132283 49.2075591,50.1571654 C49.4296063,49.8954331 49.7017323,49.6724409 49.8897638,49.3851969 C50.0645669,49.0894488 50.2781102,48.8144882 50.4283465,48.5055118 L50.815748,47.5417323 L51.304252,46.3237795 L51.6755906,47.5341732 C51.904252,48.2787402 52.4948031,48.9590551 53.224252,49.368189 C53.5870866,49.5732283 53.9801575,49.7404724 54.3940157,49.8113386 C54.8069291,49.880315 55.2292913,49.8680315 55.6384252,49.7725984 C55.8368504,49.7055118 56.0418898,49.6497638 56.2261417,49.5420472 C56.4245669,49.4598425 56.5880315,49.3162205 56.7685039,49.1971654 L57.2617323,48.7379528 C57.4488189,48.5858268 57.5782677,48.4148031 57.7058268,48.24 C57.8437795,48.0699213 57.9798425,47.8951181 58.0686614,47.688189 C58.1792126,47.4916535 58.2755906,47.2885039 58.3275591,47.0674016 C58.4107087,46.8548031 58.4248819,46.6289764 58.4645669,46.4022047 C58.4759055,46.1754331 58.4806299,45.9429921 58.4314961,45.7143307 C58.592126,46.151811 58.6195276,46.6469291 58.5231496,47.1127559 C58.4938583,47.3537008 58.4182677,47.5804724 58.3256693,47.8034646 C58.2548031,48.0368504 58.1310236,48.2466142 57.9977953,48.4554331 C57.8740157,48.671811 57.7407874,48.8834646 57.5811024,49.0459843 C57.4223622,49.2292913 57.2929134,49.3804724 57.0982677,49.5788976 C56.9026772,49.7319685 56.7222047,49.9077165 56.496378,50.023937 C56.2866142,50.1666142 56.0475591,50.2544882 55.8113386,50.3499213 C55.3247244,50.503937 54.8069291,50.5559055 54.2976378,50.5067717 C53.7892913,50.4529134 53.2970079,50.2951181 52.8425197,50.0674016 C51.9448819,49.5977953 51.1776378,48.8248819 50.8176378,47.7987402 L51.6774803,47.792126 L51.2485039,48.9033071 C51.080315,49.2614173 50.8412598,49.5864567 50.6371654,49.9285039 C50.4207874,50.2629921 50.1174803,50.5313386 49.8576378,50.8327559 C49.5845669,51.1237795 49.2359055,51.327874 48.927874,51.576378 C48.6113386,51.8173228 48.2371654,51.9628346 47.8941732,52.1574803 C47.5445669,52.3417323 47.1571654,52.4324409 46.7896063,52.5703937 C46.416378,52.6951181 46.0204724,52.7262992 45.6387402,52.8066142 C45.2541732,52.8765354 44.8582677,52.8538583 44.4699213,52.880315 C44.079685,52.896378 43.6913386,52.8207874 43.3048819,52.783937 C42.9193701,52.7366929 42.5470866,52.6015748 42.1700787,52.5127559 C41.7987402,52.4031496 41.4500787,52.2170079 41.0919685,52.0724409 C40.7470866,51.8948031 40.4314961,51.6604724 40.103622,51.4582677 C39.8069291,51.2088189 39.5272441,50.935748 39.2541732,50.6664567 C39.0359055,50.3451969 38.8053543,50.0371654 38.607874,49.7111811 C38.4604724,49.352126 38.2941732,49.0034646 38.1741732,48.6510236 L37.975748,47.5502362" id="Fill-8" fill="#1E3520"></path>
                <path d="M63.2948031,73.7754331 C63.2948031,73.7754331 63.447874,73.8226772 63.7341732,73.9105512 C64.0185827,73.9927559 64.4466142,74.1411024 64.9700787,74.2847244 C65.4907087,74.4387402 66.1228346,74.6050394 66.8674016,74.7429921 C67.6072441,74.8790551 68.4434646,74.9905512 69.3448819,75.0812598 C70.2491339,75.1625197 71.2261417,75.1738583 72.2466142,75.1379528 C73.2699213,75.0907087 74.3300787,74.9253543 75.4091339,74.7250394 C76.4862992,74.4944882 77.5540157,74.1231496 78.6179528,73.7140157 C79.6705512,73.2746457 80.6853543,72.7143307 81.6274016,72.0585827 C82.5940157,71.4340157 83.4576378,70.6648819 84.2248819,69.8381102 C84.9883465,69.0075591 85.6932283,68.1335433 86.2299213,67.1886614 C86.7845669,66.256063 87.2437795,65.2970079 87.583937,64.3426772 C87.7587402,63.8655118 87.9051969,63.3930709 88.0251969,62.9253543 C88.1725984,62.464252 88.2633071,62.0050394 88.3511811,61.5609449 C88.4617323,61.1187402 88.4862992,60.6850394 88.56,60.272126 C88.640315,59.8601575 88.6686614,59.4633071 88.7017323,59.088189 C88.7905512,58.3379528 88.767874,57.6774803 88.7858268,57.1275591 C88.7716535,56.0201575 88.7640945,55.3870866 88.7640945,55.3870866 L88.9228346,55.3530709 C88.9228346,55.3530709 88.9511811,55.5099213 89.0031496,55.8018898 C89.0503937,56.0948031 89.1467717,56.5209449 89.2185827,57.0699213 C89.2714961,57.6217323 89.3801575,58.2888189 89.3896063,59.063622 C89.4330709,59.8346457 89.4141732,60.7105512 89.3234646,61.6573228 C89.2762205,62.1316535 89.2270866,62.6258268 89.1193701,63.1294488 C89.0409449,63.6377953 88.9114961,64.1537008 88.7640945,64.68 C88.4702362,65.7316535 88.0592126,66.8173228 87.4856693,67.8651969 C86.9348031,68.9234646 86.2270866,69.9467717 85.3870866,70.8793701 C84.551811,71.8129134 83.6050394,72.6822047 82.5467717,73.3965354 C81.4903937,74.1099213 80.3565354,74.7051969 79.1905512,75.1672441 C78.0179528,75.6132283 76.8217323,75.927874 75.6472441,76.1348031 C74.4680315,76.3133858 73.3162205,76.3974803 72.223937,76.3691339 C71.1316535,76.3388976 70.1026772,76.2264567 69.168189,76.0459843 C68.231811,75.8711811 67.3880315,75.6415748 66.6538583,75.4006299 C65.9187402,75.1625197 65.2932283,74.9074016 64.7848819,74.6815748 C64.2680315,74.4737008 63.8976378,74.2488189 63.6274016,74.1250394 C63.3637795,73.991811 63.2220472,73.9209449 63.2220472,73.9209449 L63.2948031,73.7754331" id="Fill-9" fill="#1E3520"></path>
                <path d="M29.4585827,118.92 C29.4585827,118.92 32.6966929,111.914646 34.1177953,109.47874 C34.1177953,111.306142 34.3218898,121.255748 37.7735433,115.569449 C37.3672441,120.849449 43.255748,116.585197 45.0831496,116.382047 C47.3177953,115.975748 47.9253543,117.80315 49.5505512,118.209449 C51.784252,118.615748 55.8453543,116.788346 58.6875591,116.788346 C60.1086614,116.788346 61.5316535,116.991496 62.9527559,116.991496 C64.9833071,114.554646 66.4148031,113.640945 68.6485039,111.204094 C69.664252,117.6 79.4107087,115.772598 79.4107087,118.389921 C79.4107087,118.389921 46.3143307,120.294803 29.4585827,118.92" id="Fill-10" fill="#4E8652"></path>
            </g>
        </g>
    </g>
</svg>