<?xml version="1.0" encoding="UTF-8"?>
<svg width="120px" height="120px" viewBox="0 0 120 120" version="1.1" xmlns="http://www.w3.org/2000/svg" xmlns:xlink="http://www.w3.org/1999/xlink">
    <!-- Generator: Sketch 51.1 (57501) - http://www.bohemiancoding.com/sketch -->
    <title>Blue button35</title>
    <desc>Created with Sketch.</desc>
    <defs>
        <polygon id="path-1" points="0 0 119.999873 0 119.999873 120 0 120"></polygon>
        <polygon id="path-3" points="0.000139195803 0.9173 110.2124 0.9173 110.2124 111 0.000139195803 111"></polygon>
    </defs>
    <g id="Blue-button35" stroke="none" stroke-width="1" fill="none" fill-rule="evenodd">
        <g id="Page-1">
            <g id="Group-3">
                <mask id="mask-2" fill="white">
                    <use xlink:href="#path-1"></use>
                </mask>
                <g id="Clip-2"></g>
                <path d="M81.7967,118.125 C70.8987,120.625 49.1017,120.625 38.2027,118.125 C18.6477,113.64 6.3197,101.361 1.8747,81.797 C-0.6373,70.741 -0.6133,48.946 1.8747,38.203 C6.4017,18.657 18.6597,6.415 38.2027,1.875 C48.8957,-0.609 70.6897,-0.641 81.7967,1.875 C101.3637,6.308 113.4717,18.687 118.1247,38.203 C120.5767,48.488 120.6727,70.261 118.1247,81.797 C113.7977,101.388 101.3517,113.64 81.7967,118.125" id="Fill-1" fill="#83C5EA" mask="url(#mask-2)"></path>
            </g>
            <g id="Group-6" transform="translate(0.000000, 9.000000)">
                <mask id="mask-4" fill="white">
                    <use xlink:href="#path-3"></use>
                </mask>
                <g id="Clip-5"></g>
                <path d="M91.6404,99.2813 C80.7424,101.7813 58.9454,101.7813 48.0464,99.2813 C28.4914,94.7963 16.1634,82.5173 11.7184,62.9533 C9.2064,51.8973 9.2304,30.1023 11.7184,19.3593 C13.3694,12.2293 16.0614,6.0843 19.7484,0.9173 C10.7534,7.3373 4.7494,16.7913 1.8744,29.2033 C-0.6126,39.9463 -0.6366,61.7413 1.8744,72.7973 C6.3194,92.3613 18.6474,104.6393 38.2024,109.1253 C49.1014,111.6253 70.8984,111.6253 81.7964,109.1253 C94.2374,106.2713 103.7864,100.2623 110.2124,91.2333 C105.0054,94.9403 98.8054,97.6373 91.6404,99.2813" id="Fill-4" fill="#6CB7D8" mask="url(#mask-4)"></path>
            </g>
            <path d="M99.6609,50.7569 C95.5149,45.7349 84.6469,37.6259 77.7889,34.6389 C71.4219,31.8649 65.8649,35.7409 64.6529,44.0459 C63.4899,52.0089 63.4079,68.1199 64.6529,76.2819 C65.9169,84.5749 71.2259,87.6209 77.7889,85.6899 C83.1389,84.1149 94.1419,77.2139 99.6609,69.5709 C104.1189,63.3999 104.4369,56.5439 99.6609,50.7569" id="Fill-7" fill="#FFFFFF"></path>
            <path d="M20.3392,50.7569 C24.4852,45.7349 35.3522,37.6259 42.2102,34.6389 C48.5782,31.8649 54.1342,35.7409 55.3472,44.0459 C56.5092,52.0089 56.5912,68.1199 55.3472,76.2819 C54.0822,84.5749 48.7732,87.6209 42.2102,85.6899 C36.8612,84.1149 25.8582,77.2139 20.3392,69.5709 C15.8812,63.3999 15.5632,56.5439 20.3392,50.7569" id="Fill-9" fill="#FFFFFF"></path>
        </g>
    </g>
</svg>