<?xml version="1.0" encoding="UTF-8"?>
<svg width="120px" height="120px" viewBox="0 0 120 120" version="1.1" xmlns="http://www.w3.org/2000/svg" xmlns:xlink="http://www.w3.org/1999/xlink">
    <!-- Generator: Sketch 51.1 (57501) - http://www.bohemiancoding.com/sketch -->
    <title>Leaf37</title>
    <desc>Created with Sketch.</desc>
    <defs>
        <polygon id="path-1" points="0.710210526 0.400909091 75.7305766 0.400909091 75.7305766 102.24027 0.710210526 102.24027"></polygon>
    </defs>
    <g id="Leaf37" stroke="none" stroke-width="1" fill="none" fill-rule="evenodd">
        <g id="Group" transform="translate(60.363636, 59.000000) scale(-1, -1) translate(-60.363636, -59.000000) translate(14.000000, -1.000000)">
            <path d="M71.2982727,47.9806364 C57.2037273,42.2997273 22.5482727,48.9597273 39.0728182,55.7451818 C36.0237273,57.9379091 15.321,66.507 29.4237273,67.9088182 C26.8873636,69.7306364 0.735545455,90.1033636 16.9246364,86.9206364 C14.2519091,89.6179091 -2.32990909,106.172455 10.371,102.419727 C8.20009091,104.754273 -2.51536364,115.548818 0.547363636,118.734273 C3.97827273,122.427 13.5319091,113.233364 16.581,111.043364 C13.9437273,124.497 37.6191818,102.828818 41.3146364,99.4006364 C41.5382727,100.775182 42.6346364,102.299727 43.2237273,104.189727 C51.2746364,101.467909 56.331,92.4406364 60.2255455,85.0115455 C66.4573636,99.0133636 73.9219091,75.1497273 74.7700909,69.9160909 C75.1791818,61.9197273 74.7237273,56.6315455 71.2982727,47.9806364" id="Fill-1" fill="#518B41"></path>
            <g id="Group-5" transform="translate(16.363636, 2.326636)">
                <mask id="mask-2" fill="white">
                    <use xlink:href="#path-1"></use>
                </mask>
                <g id="Clip-4"></g>
                <path d="M75.7287273,0.560727273 C74.0569091,11.1861818 70.5687273,21.5334545 65.8805455,31.2834545 C61.1241818,41.0389091 54.7941818,49.8698182 47.7850909,58.1225455 C33.5323636,74.2952727 16.9805455,88.0461818 0.936,102.208909 C0.881454545,102.255273 0.794181818,102.249818 0.745090909,102.195273 C0.696,102.140727 0.698727273,102.056182 0.753272727,102.004364 C16.2796364,87.2552727 32.3896364,73.0298182 46.1405455,56.688 C52.7705455,48.4298182 58.5032727,39.3998182 63.4478182,30.048 C68.4850909,20.7016364 72.276,10.7334545 75.4641818,0.498 C75.4887273,0.424363636 75.5623636,0.386181818 75.636,0.405272727 C75.7014545,0.427090909 75.7396364,0.498 75.7287273,0.560727273" id="Fill-3" fill="#31602C" mask="url(#mask-2)"></path>
            </g>
            <path d="M19.4961818,92.1681818 C20.9634545,91.1563636 22.4716364,90.2727273 23.958,89.3018182 C25.4716364,88.3990909 27.0070909,87.5154545 28.5998182,86.7218182 C31.7716364,85.1181818 35.1725455,83.7954545 38.8161818,83.1872727 C39.5525455,83.0590909 40.2507273,83.55 40.3789091,84.2809091 C40.4170909,84.5018182 40.3952727,84.7363636 40.3325455,84.9354545 C39.2252727,88.3145455 37.5725455,91.3636364 35.718,94.23 C34.7989091,95.67 33.8061818,97.0527273 32.7943636,98.4163636 C31.7334545,99.75 30.7434545,101.116364 29.6307273,102.422727 C32.118,96.0572727 35.7834545,90.2727273 37.7361818,84.1254545 L39.2525455,85.8709091 C35.958,86.3972727 32.7125455,87.51 29.4534545,88.6909091 L24.5443636,90.5209091 C22.8670909,91.0718182 21.2225455,91.7263636 19.4961818,92.1681818" id="Fill-6" fill="#31602C"></path>
            <path d="M32.6956364,75.7246364 C36.1810909,74.1864545 39.5329091,72.4355455 43.0865455,71.0391818 C44.8456364,70.3000909 46.6538182,69.6755455 48.5083636,69.0891818 C50.3956364,68.5846364 52.2610909,68.0419091 54.5329091,68.1264545 C55.242,68.1537273 55.7983636,68.7346364 55.7956364,69.4382727 L55.7956364,69.4846364 C55.7792727,73.2373636 55.1110909,77.1046364 53.5374545,80.5491818 C52.782,82.2755455 51.8329091,83.8737273 50.8783636,85.431 C49.8665455,86.961 48.9556364,88.5100909 48.0338182,90.1055455 C48.3883636,88.2919091 49.0892727,86.571 49.7001818,84.8473636 C50.3710909,83.1455455 51.0310909,81.4737273 51.5710909,79.7991818 C52.6374545,76.4473636 53.1065455,72.9973636 53.0765455,69.4791818 L54.342,70.8373636 C52.812,70.7555455 50.9465455,71.1564545 49.1874545,71.5955455 C47.3901818,72.0046364 45.6038182,72.5746364 43.7874545,73.0655455 C41.9792727,73.5946364 40.1547273,74.1073636 38.3165455,74.5955455 C36.4538182,75.0100909 34.6101818,75.531 32.6956364,75.7246364" id="Fill-8" fill="#31602C"></path>
            <path d="M46.974,59.124 C50.034,57.6567273 53.2930909,56.6885455 56.5630909,55.914 C59.8358182,55.1285455 63.144,54.5803636 66.4221818,54.0676364 C67.1585455,53.9476364 67.854,54.4467273 67.974,55.1858182 L67.9876364,55.2921818 C68.2467273,58.4394545 68.0230909,61.6930909 67.3712727,64.7312727 C66.744,67.7721818 66.0485455,70.7094545 65.3612727,73.7585455 C64.9549091,70.6658182 65.0967273,67.5076364 65.3121818,64.4612727 C65.5221818,61.4149091 65.5821818,58.494 65.2876364,55.5158182 L66.8530909,56.7403636 C60.2149091,57.804 53.6858182,58.4094545 46.974,59.124" id="Fill-10" fill="#31602C"></path>
        </g>
    </g>
</svg>