<?xml version="1.0" encoding="UTF-8"?>
<svg width="120px" height="120px" viewBox="0 0 120 120" version="1.1" xmlns="http://www.w3.org/2000/svg" xmlns:xlink="http://www.w3.org/1999/xlink">
    <!-- Generator: Sketch 51.1 (57501) - http://www.bohemiancoding.com/sketch -->
    <title>Dragonfly2</title>
    <desc>Created with Sketch.</desc>
    <defs>
        <polygon id="path-1" points="0.504339623 1.04108065 16.9239623 1.04108065 16.9239623 85.8064516 0.504339623 85.8064516"></polygon>
        <polygon id="path-3" points="0.627840004 0.938063018 60.8909434 0.938063018 60.8909434 14.3364696 0.627840004 14.3364696"></polygon>
        <polygon id="path-5" points="0 0.938063018 60.2637826 0.938063018 60.2637826 14.3364696 0 14.3364696"></polygon>
        <polygon id="path-7" points="0.0376981132 0.615322581 11.3675094 0.615322581 11.3675094 11.9134355 0.0376981132 11.9134355"></polygon>
    </defs>
    <g id="Dragonfly2" stroke="none" stroke-width="1" fill="none" fill-rule="evenodd">
        <g id="Group" transform="translate(0.000000, 8.000000)">
            <path d="M25.8235472,70.5832581 C25.3243019,70.2592258 25.1827925,69.5964839 25.5031698,69.0963226 C28.2314717,64.8455161 31.3197736,59.6835806 35.3793962,56.6080968 C36.6529811,55.6439032 50.8378868,59.2274516 53.8775094,59.7547097 L53.510717,61.8818065 C52.1329811,61.6447097 38.7269434,58.5884194 36.4627925,58.5014839 C32.8367547,61.3545484 29.9092075,66.2319677 27.3224151,70.266 C26.9997736,70.7684194 26.3250566,70.9095484 25.8235472,70.5832581" id="Fill-1" fill="#7C431A"></path>
            <path d="M94.1505283,68.7044355 C94.6192075,68.3397581 94.7052453,67.6668548 94.340717,67.1949194 C91.2490189,63.1778226 87.7316604,58.3094355 83.4286415,55.5975 C82.0758113,54.7450806 68.2520377,59.5276613 65.2690189,60.3112097 L65.8180755,62.3987903 C67.1709057,62.0454032 80.2599623,57.8566935 82.5116604,57.5766935 C86.3743019,60.1125 89.7173208,64.733629 92.6290189,68.5158871 C92.9946792,68.9900806 93.6773208,69.0725 94.1505283,68.7044355" id="Fill-3" fill="#7C431A"></path>
            <path d="M40.2884151,39.3132419 C39.8435094,39.8901774 39.3952075,40.4648548 38.9423774,41.0350161 C41.6876604,42.5027581 52.1174717,48.7575968 52.5069057,48.9687258 L53.5393585,47.0730806 C53.1918113,46.8834032 42.1653962,40.3248548 40.2884151,39.3132419" id="Fill-5" fill="#7C431A"></path>
            <path d="M79.5418868,38.6010484 C77.9479245,39.3631452 65.2539623,46.883629 64.9064151,47.0733065 L65.9388679,48.9689516 C66.3283019,48.7578226 77.0320755,42.3392742 79.7116981,40.9257258 C79.4264151,40.1895968 79.3867925,39.3823387 79.5418868,38.6010484" id="Fill-7" fill="#7C431A"></path>
            <g id="Group-11" transform="translate(50.943396, 18.578226)">
                <mask id="mask-2" fill="white">
                    <use xlink:href="#path-1"></use>
                </mask>
                <g id="Clip-10"></g>
                <path d="M8.71415094,85.8065645 C10.3409434,85.8065645 16.9239623,66.8309194 16.9239623,43.4249516 C16.9239623,20.0167258 13.2469811,1.04108065 8.71415094,1.04108065 C4.1790566,1.04108065 0.504339623,20.0167258 0.504339623,43.4249516 C0.504339623,66.8309194 6.93679245,85.8065645 8.71415094,85.8065645" id="Fill-9" fill="#CB7027" mask="url(#mask-2)"></path>
            </g>
            <path d="M110.085736,61.0625806 C107.009887,65.6137097 95.7978113,58.203871 81.9230943,49.033871 C68.0483774,39.865 58.1721509,30.3901613 59.8408302,27.8577419 C62.5317736,23.7774194 72.933283,27.0166129 86.808,36.1854839 C100.681585,45.3554839 112.904604,56.8896774 110.085736,61.0625806" id="Fill-12" fill="#5CC7D1"></path>
            <path d="M59.4563774,24.1198548 C65.7643019,24.1198548 70.8767547,19.0188871 70.8767547,12.7290484 C70.8767547,6.43808065 65.7643019,1.33824194 59.4563774,1.33824194 C53.1484528,1.33824194 48.036,6.43808065 48.036,12.7290484 C48.036,19.0188871 53.1484528,24.1198548 59.4563774,24.1198548" id="Fill-14" fill="#CB7027"></path>
            <g id="Group-18" transform="translate(58.867925, 18.578226)">
                <mask id="mask-4" fill="white">
                    <use xlink:href="#path-3"></use>
                </mask>
                <g id="Clip-17"></g>
                <path d="M60.8913962,8.23301613 C60.9536604,13.7201129 47.508,13.9820484 30.8676226,14.3049516 C14.2238491,14.6278548 0.698943396,12.4330161 0.628754717,9.40269355 C0.51554717,4.52075806 10.9181887,1.28946774 27.5596981,0.965435484 C44.2000755,0.641403226 60.8313962,3.20204839 60.8913962,8.23301613" id="Fill-16" fill="#9DD8D6" mask="url(#mask-4)"></path>
            </g>
            <path d="M9.84407547,61.0625806 C12.9199245,65.6137097 24.1297358,58.203871 38.0044528,49.033871 C51.8791698,39.865 61.7553962,30.3901613 60.086717,27.8577419 C57.3980377,23.7774194 46.9942642,27.0166129 33.1206792,36.1854839 C19.2459623,45.3554839 7.02520755,56.8896774 9.84407547,61.0625806" id="Fill-19" fill="#5CC7D1"></path>
            <g id="Group-23" transform="translate(0.000000, 18.578226)">
                <mask id="mask-6" fill="white">
                    <use xlink:href="#path-5"></use>
                </mask>
                <g id="Clip-22"></g>
                <path d="M0.000226415094,8.23301613 C-0.0643018868,13.7201129 13.3836226,13.9820484 30.024,14.3049516 C46.6655094,14.6278548 60.1926792,12.4330161 60.2628679,9.40269355 C60.3760755,4.52075806 49.973434,1.28946774 33.3319245,0.965435484 C16.6915472,0.641403226 0.0602264151,3.20204839 0.000226415094,8.23301613" id="Fill-21" fill="#9DD8D6" mask="url(#mask-6)"></path>
            </g>
            <g id="Group-26" transform="translate(47.547170, 0.513710)">
                <mask id="mask-8" fill="white">
                    <use xlink:href="#path-7"></use>
                </mask>
                <g id="Clip-25"></g>
                <path d="M11.3675094,6.26375806 C11.3675094,9.38440323 8.83166038,11.9134355 5.70260377,11.9134355 C2.57354717,11.9134355 0.0376981132,9.38440323 0.0376981132,6.26375806 C0.0376981132,3.14424194 2.57354717,0.615209677 5.70260377,0.615209677 C8.83166038,0.615209677 11.3675094,3.14424194 11.3675094,6.26375806" id="Fill-24" fill="#006B3F" mask="url(#mask-8)"></path>
            </g>
            <path d="M71.5797736,6.56475806 C71.5797736,9.56685484 69.1390189,11.9999194 66.1276981,11.9999194 C63.1175094,11.9999194 60.6767547,9.56685484 60.6767547,6.56475806 C60.6767547,3.56266129 63.1175094,1.12959677 66.1276981,1.12959677 C69.1390189,1.12959677 71.5797736,3.56266129 71.5797736,6.56475806" id="Fill-27" fill="#006B3F"></path>
            <path d="M50.3510943,6.52275806 C50.3510943,7.85614516 51.4344906,8.93662903 52.7726038,8.93662903 C54.1073208,8.93662903 55.190717,7.85614516 55.190717,6.52275806 C55.190717,5.18937097 54.1073208,4.1088871 52.7726038,4.1088871 C51.4344906,4.1088871 50.3510943,5.18937097 50.3510943,6.52275806" id="Fill-29" fill="#19171C"></path>
            <path d="M63.9912453,6.37395161 C63.9912453,7.70733871 65.0746415,8.78782258 66.4127547,8.78782258 C67.7474717,8.78782258 68.8308679,7.70733871 68.8308679,6.37395161 C68.8308679,5.04056452 67.7474717,3.96008065 66.4127547,3.96008065 C65.0746415,3.96008065 63.9912453,5.04056452 63.9912453,6.37395161" id="Fill-31" fill="#19171C"></path>
        </g>
    </g>
</svg>