<?xml version="1.0" encoding="UTF-8"?>
<svg width="120px" height="120px" viewBox="0 0 120 120" version="1.1" xmlns="http://www.w3.org/2000/svg" xmlns:xlink="http://www.w3.org/1999/xlink">
    <!-- Generator: Sketch 51.1 (57501) - http://www.bohemiancoding.com/sketch -->
    <title>Sushi25</title>
    <desc>Created with Sketch.</desc>
    <defs>
        <path d="M17.5263158,8.91 C8.13347368,14.784 -2.07915789,34.8086538 0.971368421,32.1001154 C9.41936842,24.7601538 8.94315789,13.7165769 44.9002105,8.91 C58.1128421,9.13211538 71.3216842,21.5731154 78.0732632,34.5789231 C84.8223158,47.586 83.5149474,66.3426923 83.3595789,68.2262308 C83.2029474,70.1110385 84.6113684,73.2549231 88.5170526,74.3540769 C92.4277895,75.4532308 97.4298947,76.2388846 99.1490526,71.3688462 C100.869474,66.4988077 106.028211,57.5431154 101.767579,37.4778462 C97.5056842,17.4125769 71.6336842,3.35076923 57.4067368,1.30857692 C54.7490526,0.926538462 52.0193684,0.747576923 49.2783158,0.747576923 C37.3452632,0.747576923 25.1658947,4.13261538 17.5263158,8.91" id="path-1"></path>
        <path d="M17.5263158,8.91 C8.13347368,14.784 -2.07915789,34.8086538 0.971368421,32.1001154 C9.41936842,24.7601538 8.94315789,13.7165769 44.9002105,8.91 C58.1128421,9.13211538 71.3216842,21.5731154 78.0732632,34.5789231 C84.8223158,47.586 83.5149474,66.3426923 83.3595789,68.2262308 C83.2029474,70.1110385 84.6113684,73.2549231 88.5170526,74.3540769 C92.4277895,75.4532308 97.4298947,76.2388846 99.1490526,71.3688462 C100.869474,66.4988077 106.028211,57.5431154 101.767579,37.4778462 C97.5056842,17.4125769 71.6336842,3.35076923 57.4067368,1.30857692 C54.7490526,0.926538462 52.0193684,0.747576923 49.2783158,0.747576923 C37.3452632,0.747576923 25.1658947,4.13261538 17.5263158,8.91" id="path-3"></path>
        <polygon id="path-5" points="0.157894737 1.07495224 87.8223158 1.07495224 87.8223158 86.5388827 0.157894737 86.5388827"></polygon>
        <path d="M20.7410526,1.51673077 C10.1254737,3.0855 0.157894737,11.1844615 0.157894737,11.1844615 C0.157894737,11.1844615 18.1907368,4.34203846 33.1528421,8.11165385 C48.1149474,11.8812692 60.3094737,23.9783077 63.4345263,29.9475 C66.5633684,35.9166923 70.1595789,54.9246923 69.8463158,59.9521154 C69.5330526,64.9782692 67.7254737,77.2847308 67.9692632,78.6453462 C68.2168421,80.0072308 69.8463158,84.6145385 72.1907368,85.7136923 C74.5364211,86.8128462 80.5414737,86.8128462 81.3713684,85.7136923 C82.0976842,84.7452692 87.7616842,66.1142308 87.8223158,53.3102308 L87.8223158,52.899 C87.8147368,51.3175385 87.7187368,49.83 87.5115789,48.4833462 C85.6370526,36.2314615 76.9427368,17.2793077 66.8766316,11.0968846 C55.3932632,4.04630769 38.9949474,1.07503846 27.5835789,1.07503846 C25.0117895,1.07503846 22.6926316,1.22607692 20.7410526,1.51673077" id="path-7"></path>
        <path d="M20.7410526,1.51673077 C10.1254737,3.0855 0.157894737,11.1844615 0.157894737,11.1844615 C0.157894737,11.1844615 18.1907368,4.34203846 33.1528421,8.11165385 C48.1149474,11.8812692 60.3094737,23.9783077 63.4345263,29.9475 C66.5633684,35.9166923 70.1595789,54.9246923 69.8463158,59.9521154 C69.5330526,64.9782692 67.7254737,77.2847308 67.9692632,78.6453462 C68.2168421,80.0072308 69.8463158,84.6145385 72.1907368,85.7136923 C74.5364211,86.8128462 80.5414737,86.8128462 81.3713684,85.7136923 C82.0976842,84.7452692 87.7616842,66.1142308 87.8223158,53.3102308 L87.8223158,52.899 C87.8147368,51.3175385 87.7187368,49.83 87.5115789,48.4833462 C85.6370526,36.2314615 76.9427368,17.2793077 66.8766316,11.0968846 C55.3932632,4.04630769 38.9949474,1.07503846 27.5835789,1.07503846 C25.0117895,1.07503846 22.6926316,1.22607692 20.7410526,1.51673077" id="path-9"></path>
        <polygon id="path-11" points="0.714345763 0.984923077 6.51880776 0.984923077 6.51880776 3.50379485 0.714345763 3.50379485"></polygon>
        <polygon id="path-13" points="0 0.0256757226 91.3897122 0.0256757226 91.3897122 82.499631 0 82.499631"></polygon>
        <path d="M1.11789474,10.8633462 C0.594947368,12.2023846 14.6526316,21.4690385 20.4328421,21.7025769 C26.2117895,21.9399231 31.6067368,21.6645 33.0126316,20.8598077 C34.4197895,20.0538462 39.696,15.6953077 39.4623158,13.8092308 C39.2261053,11.9244231 32.8951579,2.14626923 26.9153684,1.08519231 C26.232,0.964615385 25.4071579,0.904961538 24.4736842,0.904961538 C17.2395789,0.904961538 3.61389474,4.49815385 1.11789474,10.8633462" id="path-15"></path>
        <path d="M1.11789474,10.8633462 C0.594947368,12.2023846 14.6526316,21.4690385 20.4328421,21.7025769 C26.2117895,21.9399231 31.6067368,21.6645 33.0126316,20.8598077 C34.4197895,20.0538462 39.696,15.6953077 39.4623158,13.8092308 C39.2261053,11.9244231 32.8951579,2.14626923 26.9153684,1.08519231 C26.232,0.964615385 25.4071579,0.904961538 24.4736842,0.904961538 C17.2395789,0.904961538 3.61389474,4.49815385 1.11789474,10.8633462 Z" id="path-17"></path>
        <path d="M1.11789474,10.8633462 C0.594947368,12.2023846 14.6526316,21.4690385 20.4328421,21.7025769 C26.2117895,21.9399231 31.6067368,21.6645 33.0126316,20.8598077 C34.4197895,20.0538462 39.696,15.6953077 39.4623158,13.8092308 C39.2261053,11.9244231 32.8951579,2.14626923 26.9153684,1.08519231 C26.232,0.964615385 25.4071579,0.904961538 24.4736842,0.904961538 C17.2395789,0.904961538 3.61389474,4.49815385 1.11789474,10.8633462 Z" id="path-19"></path>
        <path d="M1.11789474,10.8633462 C0.594947368,12.2023846 14.6526316,21.4690385 20.4328421,21.7025769 C26.2117895,21.9399231 31.6067368,21.6645 33.0126316,20.8598077 C34.4197895,20.0538462 39.696,15.6953077 39.4623158,13.8092308 C39.2261053,11.9244231 32.8951579,2.14626923 26.9153684,1.08519231 C26.232,0.964615385 25.4071579,0.904961538 24.4736842,0.904961538 C17.2395789,0.904961538 3.61389474,4.49815385 1.11789474,10.8633462 Z" id="path-21"></path>
        <path d="M1.11789474,10.8633462 C0.594947368,12.2023846 14.6526316,21.4690385 20.4328421,21.7025769 C26.2117895,21.9399231 31.6067368,21.6645 33.0126316,20.8598077 C34.4197895,20.0538462 39.696,15.6953077 39.4623158,13.8092308 C39.2261053,11.9244231 32.8951579,2.14626923 26.9153684,1.08519231 C26.232,0.964615385 25.4071579,0.904961538 24.4736842,0.904961538 C17.2395789,0.904961538 3.61389474,4.49815385 1.11789474,10.8633462 Z" id="path-23"></path>
    </defs>
    <g id="Sushi25" stroke="none" stroke-width="1" fill="none" fill-rule="evenodd">
        <g id="Page-1" transform="translate(60.000000, 60.500000) scale(-1, 1) translate(-60.000000, -60.500000) translate(0.000000, 11.000000)">
            <g id="Group-5" transform="translate(8.842105, 6.630969)">
                <path d="M29.6014737,10.23 C29.6014737,10.23 34.6503158,5.68488462 39.9821053,6.28015385 C39.9821053,6.28015385 46.3522105,3.56526923 49.0174737,7.02519231 C49.0174737,7.02519231 53.0153684,4.91573077 56.1265263,7.82988462 C56.1265263,7.82988462 62.6444211,5.78007692 63.8292632,9.15496154 C63.8292632,9.15496154 69.0132632,8.80973077 69.3101053,11.6375769 C69.3101053,11.6375769 75.5311579,11.0435769 75.6789474,14.1684231 C75.6789474,14.1684231 83.3122105,15.5074615 83.2717895,19.3773462 C83.2717895,19.3773462 89.7492632,19.3773462 89.3058947,22.9489615 C89.3058947,22.9489615 95.8225263,24.288 95.5256842,28.6046538 C95.5256842,28.6046538 100.710947,31.4312308 99.9694737,35.1538846 C99.9694737,35.1538846 102.931579,37.0881923 101.451158,39.6177692 C101.451158,39.6177692 103.909263,44.5284231 101.864211,47.6545385 C101.864211,47.6545385 105.089053,48.9948462 102.677684,52.1196923 C102.677684,52.1196923 105.153474,58.2221538 102.634737,59.5611923 C102.634737,59.5611923 106.041474,63.2813077 102.486947,66.4074231 C102.486947,66.4074231 105.153474,69.6820385 102.486947,72.3601154 C102.486947,72.3601154 103.820842,75.1879615 101.005263,77.2720385 C101.005263,77.2720385 101.303368,82.0341923 98.0444211,83.2247308 C98.0444211,83.2247308 95.6734737,88.8816923 91.8233684,86.3508462 C91.8233684,86.3508462 89.3058947,89.2903846 86.4915789,87.0019615 C86.4915789,87.0019615 81.3075789,90.8858077 79.6781053,87.8726538 C79.6781053,87.8726538 74.1972632,91.5381923 71.5307368,89.0187692 C71.5307368,89.0187692 66.9391579,90.5164615 65.1618947,88.2851538 C63.3846316,86.0525769 75.8267368,71.9133462 76.716,68.4902308 C77.604,65.0683846 74.0494737,32.1762692 64.8650526,25.4798077 C55.6818947,18.7820769 25.0061053,12.5108077 29.6014737,10.23" id="Fill-1" fill="#C7E9EF"></path>
                <path d="M0.970736842,32.0994808 C-2.07852632,34.8092885 8.13284211,14.7846346 17.5269474,8.90936538 C26.9210526,3.03536538 43.1816842,-0.73425 57.4073684,1.30794231 C71.6330526,3.35013462 97.5063158,17.4119423 101.766947,37.4772115 C106.028842,57.54375 100.868842,66.4994423 99.1496842,71.3682115 C97.4292632,76.23825 92.4271579,75.4538654 88.5189474,74.3547115 C84.6107368,73.2530192 83.2023158,70.1116731 83.3602105,68.2268654 C83.5155789,66.3407885 84.8229474,47.5853654 78.0726316,34.5795577 C71.3197895,21.5712115 58.1122105,9.13148077 44.8995789,8.90936538 C8.94378947,13.7172115 9.41873684,24.7607885 0.970736842,32.0994808" id="Fill-3" fill="#F7F711"></path>
            </g>
            <g id="Group-12" transform="translate(8.842105, 6.630969)">
                <g id="Group-8">
                    <mask id="mask-2" fill="white">
                        <use xlink:href="#path-1"></use>
                    </mask>
                    <g id="Clip-7"></g>
                    <path d="M87.7364211,77.1806538 C90.3031579,77.8546154 84.6997895,75.0229615 85.2366316,65.2422692 C85.536,59.7503077 85.5486316,35.3963077 75.5431579,24.2435769 C65.5364211,13.0883077 54.4383158,4.92080769 37.8656842,8.06215385 C21.2930526,11.2047692 6.28294737,18.2718462 0.421894737,28.4828077 C-5.44042105,38.6950385 4.18105263,30.5922692 5.30273684,29.3826923 C6.42694737,28.1743846 31.6825263,11.2707692 43.1381053,11.2047692 C54.5949474,11.1387692 80.0766316,37.1529231 80.3886316,47.5834615 C80.7018947,58.0152692 80.5452632,75.2958462 87.7364211,77.1806538" id="Fill-6" fill="#CCB405" mask="url(#mask-2)"></path>
                </g>
                <g id="Group-11">
                    <mask id="mask-4" fill="white">
                        <use xlink:href="#path-3"></use>
                    </mask>
                    <g id="Clip-10"></g>
                    <path d="M23.0994947,8.59383462 C29.2460211,5.21895 41.0818105,2.01287308 50.1512842,3.01937308 C59.2194947,4.02714231 73.5437053,11.2351038 80.5542316,19.7465654 C87.5647579,28.2592962 86.5706526,34.6232192 83.2106526,31.0960269 C79.8506526,27.5675654 67.5449684,10.1638731 57.0026526,7.59875769 C46.4578105,5.03491154 39.5281263,4.69221923 31.9529684,6.74710385 C26.1588632,8.31841154 18.4561263,11.14245 23.0994947,8.59383462" id="Fill-9" fill="#FFFB69" mask="url(#mask-4)"></path>
                </g>
            </g>
            <g id="Group-15" transform="translate(31.578947, 1.554046)">
                <mask id="mask-6" fill="white">
                    <use xlink:href="#path-5"></use>
                </mask>
                <g id="Clip-14"></g>
                <path d="M0.157894737,11.1843346 C0.157894737,11.1843346 18.192,4.34191154 33.1528421,8.11279615 C48.1149474,11.8824115 60.3094737,23.9781808 63.4357895,29.9473731 C66.5633684,35.9165654 70.1595789,54.9245654 69.8463158,59.9519885 C69.5330526,64.9781423 67.7254737,77.2846038 67.9705263,78.6452192 C68.2155789,80.0071038 69.8463158,84.6144115 72.1907368,85.7135654 C74.5364211,86.8139885 80.5427368,86.8139885 81.3713684,85.7135654 C82.1962105,84.6144115 89.3886316,60.7376423 87.5115789,48.4832192 C85.6357895,36.2313346 76.9427368,17.2791808 66.8753684,11.0967577 C52.8063158,2.45837308 31.3566316,-0.0559730769 20.7410526,1.51406538 C10.1254737,3.08537308 0.157894737,11.1843346 0.157894737,11.1843346" id="Fill-13" fill="#F7F711" mask="url(#mask-6)"></path>
            </g>
            <g id="Group-22" transform="translate(31.578947, 1.554046)">
                <g id="Group-18">
                    <mask id="mask-8" fill="white">
                        <use xlink:href="#path-7"></use>
                    </mask>
                    <g id="Clip-17"></g>
                    <path d="M72.1911158,85.7139462 C71.0959579,83.2008692 69.3768,78.9603692 69.8466947,76.4460231 C70.3153263,73.9316769 72.6597474,64.1547923 72.1911158,56.3972538 C71.7224842,48.6422538 67.9153263,31.9899462 65.6757474,27.7481769 C63.4361684,23.5064077 45.7671158,6.5076 27.7923789,5.82475385 C9.81511579,5.14063846 0.470273684,8.77571538 -3.78783158,12.4602923 C-2.85688421,12.6392538 2.1528,11.8827923 4.33932632,11.2532538 C6.53090526,10.6262538 34.1877474,8.08525385 42.0168,12.4602923 C49.8496421,16.8353308 63.6951158,29.0059846 65.6757474,41.1017538 C67.6576421,53.1975231 66.7380632,67.1565231 65.6757474,73.7742923 C64.6146947,80.3920615 69.8138526,85.9500231 72.2530105,86.5389462" id="Fill-16" fill="#CCB405" mask="url(#mask-8)"></path>
                </g>
                <g id="Group-21">
                    <mask id="mask-10" fill="white">
                        <use xlink:href="#path-9"></use>
                    </mask>
                    <g id="Clip-20"></g>
                    <path d="M71.9826947,40.6375962 C69.8972211,33.2329038 67.1725895,28.8527885 64.4012211,23.4585577 C61.5692211,17.9500962 46.3721684,6.84432692 36.5763789,5.11436538 C26.7793263,3.38440385 15.8479579,4.90494231 19.4264842,3.08105769 C23.0062737,1.25717308 50.0593263,2.86528846 61.5944842,9.76863462 C73.1334316,16.67325 81.9755368,36.3856731 83.1944842,40.6375962 C84.4134316,44.8907885 74.5608,49.7976346 71.9826947,40.6375962" id="Fill-19" fill="#FFFB69" mask="url(#mask-10)"></path>
                </g>
            </g>
            <g id="Group-121" transform="translate(0.000000, 0.284815)">
                <path d="M71.1536842,4.19798077 C67.0926316,2.70536538 65.3103158,5.74771154 69.7667368,7.09309615 C74.2231579,8.43848077 74.9797895,5.60428846 71.1536842,4.19798077" id="Fill-23" fill="#141A23"></path>
                <path d="M45.1528421,9.05621538 C44.3987368,7.65752308 49.6471579,5.83744615 50.3861053,7.55090769 C51.1237895,9.26436923 45.9069474,10.4561769 45.1528421,9.05621538" id="Fill-25" fill="#141A23"></path>
                <path d="M50.9369684,3.02800385 C47.8409684,2.43019615 45.8477053,4.80619615 49.2468632,5.61977308 C52.6472842,6.43715769 54.0354947,3.62454231 50.9369684,3.02800385" id="Fill-27" fill="#141A23"></path>
                <g id="Group-31" transform="translate(55.578947, 0.000000)">
                    <mask id="mask-12" fill="white">
                        <use xlink:href="#path-11"></use>
                    </mask>
                    <g id="Clip-30"></g>
                    <path d="M4.812,1.37013462 C1.17284211,0.427096154 -0.937894737,1.31428846 2.34505263,2.93255769 C5.628,4.55082692 8.44989474,2.31317308 4.812,1.37013462" id="Fill-29" fill="#141A23" mask="url(#mask-12)"></path>
                </g>
                <path d="M55.7158737,5.76789231 C52.7904,4.23846923 53.2842947,2.09600769 56.9525053,3.79550769 C60.6207158,5.49373846 58.8068211,7.38362308 55.7158737,5.76789231" id="Fill-32" fill="#141A23"></path>
                <path d="M62.7322105,2.93255769 C65.1650526,0.581942308 69.6442105,1.37140385 65.8964211,4.35028846 C62.1511579,7.33044231 60.504,5.08390385 62.7322105,2.93255769" id="Fill-34" fill="#141A23"></path>
                <path d="M56.4054316,8.26358077 C59.8033263,6.95754231 64.0349053,7.98815769 57.9237474,10.4415808 C53.8172211,12.0915808 51.9565895,9.97323462 56.4054316,8.26358077" id="Fill-36" fill="#141A23"></path>
                <path d="M79.5246316,7.09347692 C76.7734737,7.43109231 76.3338947,9.70428462 80.496,9.36666923 C84.6581053,9.02778462 83.7688421,6.57182308 79.5246316,7.09347692" id="Fill-38" fill="#141A23"></path>
                <path d="M71.3042526,4.08590769 C68.1135158,3.70767692 68.1236211,1.14129231 71.9370947,1.76194615 C75.7518316,2.38386923 76.7952,4.73829231 71.3042526,4.08590769" id="Fill-40" fill="#141A23"></path>
                <g id="Group-44" transform="translate(0.000000, 15.230769)">
                    <mask id="mask-14" fill="white">
                        <use xlink:href="#path-13"></use>
                    </mask>
                    <g id="Clip-43"></g>
                    <path d="M8.04644211,72.0392538 C8.04644211,72.0392538 5.96854737,74.0497154 3.61023158,71.5302923 C1.25191579,69.0108692 1.98707368,66.6412154 2.57823158,65.3072538 C2.57823158,65.3072538 -1.11397895,62.0478692 1.98581053,58.0485231 C1.98581053,58.0485231 -3.0264,52.8611769 2.87381053,49.7490231 C2.87381053,49.7490231 -1.55103158,45.4526769 3.31465263,42.3417923 C3.31465263,42.3417923 0.591284211,37.3029462 4.38707368,35.8204846 C4.38707368,35.8204846 3.16812632,30.6356769 7.44391579,29.7459462 C7.44391579,29.7459462 5.82202105,24.1156385 11.2788632,22.6344462 C11.2788632,22.6344462 9.2136,18.3368308 14.3761263,17.0028692 C14.3761263,17.0028692 14.2283368,12.4107923 19.0927579,12.1137923 C19.0927579,12.1137923 20.4203368,6.77921538 26.7613895,7.96594615 C26.7613895,7.96594615 28.0889684,3.37133077 33.3980211,4.40829231 C33.3980211,4.40829231 36.1997053,-0.629284615 40.9176,2.18586923 C40.9176,2.18586923 44.7525474,-2.04193846 49.9138105,1.33167692 C49.9138105,1.33167692 55.5171789,-1.51774615 58.0245474,2.77986923 C58.0245474,2.77986923 64.8089684,1.74163846 65.8397053,5.89075385 C65.8397053,5.89075385 71.7386526,4.40829231 73.3605474,9.89136923 C73.3605474,9.89136923 78.2262316,9.89136923 77.9319158,14.3374846 C77.9319158,14.3374846 83.2384421,13.4464846 82.7976,19.0780615 C82.7976,19.0780615 87.3677053,20.1150231 86.4847579,25.4483308 C86.4847579,25.4483308 90.6127579,27.3762923 88.4009684,31.3743692 C88.4009684,31.3743692 93.5609684,32.8581 89.7285474,38.0429077 C89.7285474,38.0429077 93.1213895,41.4520615 89.8750737,44.5642154 C89.8750737,44.5642154 93.5609684,48.1180615 89.4329684,51.9714462 C89.4329684,51.9714462 92.0868632,57.4545231 88.4009684,60.2684077 C88.4009684,60.2684077 91.3491789,64.4175231 87.5167579,67.3824462 C87.5167579,67.3824462 90.7592842,71.9745231 85.7470737,74.9381769 C85.7470737,74.9381769 84.8628632,81.1612154 77.7828632,79.3830231 C77.7828632,79.3830231 75.2767579,82.9381385 70.2632842,81.0127154 C70.2632842,81.0127154 66.7239158,83.9357538 64.3643368,81.5851385 C64.3643368,81.5851385 59.9420211,84.1248692 56.8434947,80.4212538 C56.8434947,80.4212538 52.2721263,83.6806385 48.8805474,79.6800231 C48.8805474,79.6800231 44.3091789,82.1981769 42.2464421,78.9400615 C42.2464421,78.9400615 37.6750737,81.9024462 35.0199158,77.4576 C35.0199158,77.4576 30.1542316,80.5684846 28.2367579,76.7176385 C28.2367579,76.7176385 22.6333895,79.6800231 20.8624421,75.5309077 C20.8624421,75.5309077 15.8502316,78.4945615 14.8182316,74.3441769 C14.8182316,74.3441769 8.63507368,76.7811 8.04644211,72.0392538" id="Fill-42" fill="#D9F3F9" mask="url(#mask-14)"></path>
                </g>
                <path d="M9.51309474,83.4530654 C9.51309474,83.4530654 7.60067368,85.3036038 5.42930526,82.9847192 C3.25541053,80.6645654 3.93498947,78.4827577 4.47814737,77.2541423 C4.47814737,77.2541423 1.07772632,74.2536808 3.93246316,70.5703731 C3.93246316,70.5703731 -0.679326316,65.7955269 4.74972632,62.9308731 C4.74972632,62.9308731 0.677305263,58.9746808 5.15772632,56.1112962 C5.15772632,56.1112962 2.64783158,51.4709885 6.14298947,50.1078346 C6.14298947,50.1078346 5.02004211,45.3329885 8.95983158,44.5143346 C8.95983158,44.5143346 7.46551579,39.3307962 12.4878316,37.9663731 C12.4878316,37.9663731 10.5893053,34.0101808 15.3387789,32.7828346 C15.3387789,32.7828346 15.2036211,28.5537577 19.6853053,28.2808731 C19.6853053,28.2808731 20.9067789,23.3702192 26.7438316,24.4604885 C26.7438316,24.4604885 27.9653053,20.2326808 32.8537263,21.1871423 C32.8537263,21.1871423 35.4330947,16.5481038 39.7770947,19.1411423 C39.7770947,19.1411423 43.3063579,15.2471423 48.0596211,18.35295 C48.0596211,18.35295 53.2196211,15.7307192 55.5261474,19.6856423 C55.5261474,19.6856423 61.7699368,18.7311808 62.7210947,22.5515654 C62.7210947,22.5515654 68.1526737,21.1871423 69.6444632,26.2348731 C69.6444632,26.2348731 74.1248842,26.2348731 73.8545684,30.3281423 C73.8545684,30.3281423 78.7417263,29.5082192 78.3349895,34.6930269 C78.3349895,34.6930269 82.5425684,35.6474885 81.7290947,40.5581423 C81.7290947,40.5581423 85.5299368,42.3312577 83.4924632,46.0158346 C83.4924632,46.0158346 88.2457263,47.3789885 84.7152,52.1538346 C84.7152,52.1538346 87.8389895,55.2913731 84.8516211,58.1560269 C84.8516211,58.1560269 88.2457263,61.4306423 84.4436211,64.9781423 C84.4436211,64.9781423 86.8878316,70.0246038 83.4924632,72.6163731 C83.4924632,72.6163731 86.2095158,76.4354885 82.6789895,79.1643346 C82.6789895,79.1643346 85.6663579,83.3934115 81.0507789,86.1235269 C81.0507789,86.1235269 80.2335158,91.8515654 73.7181474,90.2155269 C73.7181474,90.2155269 71.4103579,93.4888731 66.7947789,91.7144885 C66.7947789,91.7144885 63.5358316,94.4052577 61.3644632,92.2412192 C61.3644632,92.2412192 57.2907789,94.5804115 54.4385684,91.1687192 C54.4385684,91.1687192 50.2309895,94.17045 47.1097263,90.4871423 C47.1097263,90.4871423 42.8996211,92.8060269 41.0010947,89.8055654 C41.0010947,89.8055654 36.7909895,92.5331423 34.3455158,88.4411423 C34.3455158,88.4411423 29.8663579,91.3057962 28.1017263,87.7582962 C28.1017263,87.7582962 22.9417263,90.4871423 21.3122526,86.6680269 C21.3122526,86.6680269 16.6966737,89.3956038 15.7467789,85.5752192 C15.7467789,85.5752192 10.0562526,87.8192192 9.51309474,83.4530654" id="Fill-45" fill="#FFFFFF"></path>
                <path d="M70.4703158,55.9941462 C70.4703158,55.9941462 70.9389474,58.7471077 72.9322105,59.6888769 C72.9322105,59.6888769 69.2981053,63.2236846 74.5743158,65.9334923 C74.5743158,65.9334923 71.2913684,68.7613385 73.1671579,71.9433 C73.1671579,71.9433 68.8294737,75.7116462 71.4088421,78.7743 C71.4088421,78.7743 67.6547368,82.1923385 69.7667368,85.2562615 C69.7667368,85.2562615 63.552,87.2578385 65.4277895,91.2635308 C65.4277895,91.2635308 62.6134737,86.6689154 68.2421053,84.7853769 C68.2421053,84.7853769 66.4837895,80.7784154 69.7667368,79.2477231 C69.7667368,79.2477231 68.3608421,73.8268385 71.76,71.9433 C71.76,71.9433 69.7667368,68.4072231 72.4623158,66.4043769 C72.4623158,66.4043769 68.8294737,62.6334923 71.2913684,59.8069154 C71.2913684,59.8069154 69.8842105,58.3066846 70.4703158,55.9941462" id="Fill-47" fill="#729AA0"></path>
                <path d="M71.3017263,87.7676885 C71.3017263,87.7676885 71.5164632,87.7207269 71.8777263,87.6940731 C72.2389895,87.6610731 72.7467789,87.6534577 73.3050947,87.6521885 C73.8646737,87.6509192 74.4760421,87.6445731 75.0457263,87.5443038 C75.6154105,87.4503808 76.1396211,87.22065 76.6335158,86.89065 C76.6170947,86.8487654 76.5514105,87.5646115 75.5421474,88.0811885 C75.0533053,88.3172654 74.3775158,88.42515 73.6613053,88.3413808 C72.9312,88.2728423 72.1821474,88.0228038 71.3017263,87.7676885" id="Fill-49" fill="#85C2CC"></path>
                <path d="M74.6472,87.7975154 C74.6560421,87.7873615 74.8013053,87.9752077 75.1069895,88.1871692 C75.4025684,88.4054769 75.8623579,88.6453615 76.4156211,88.7545154 C76.9663579,88.8738231 77.6017263,88.8446308 78.1524632,88.6187077 C78.7032,88.3889769 79.1478316,87.9307846 79.4598316,87.3672462 C79.4598316,87.3672462 79.4737263,87.5157462 79.4522526,87.8216308 C79.3916211,88.1046692 79.2690947,88.5882462 78.7916211,88.9969385 C78.3318316,89.3980154 77.5373053,89.6772462 76.7010947,89.4957462 C75.8737263,89.3535923 74.9819368,88.7304 74.6472,87.7975154" id="Fill-51" fill="#85C2CC"></path>
                <path d="M65.6780211,92.3023962 C65.6881263,92.2909731 65.8485474,92.5054731 66.1832842,92.7440885 C66.5079158,92.9915885 67.0333895,93.2225885 67.6485474,93.2098962 C68.2624421,93.22005 68.9394947,92.9674731 69.5458105,92.5943192 C70.1483368,92.2072038 70.6738105,91.6880885 71.0919158,91.1143962 C71.0666526,91.0826654 71.1601263,91.8860885 70.2620211,92.8633962 C69.8173895,93.3215885 69.0986526,93.8013577 68.1399158,93.8660885 C67.6687579,93.9067038 67.1382316,93.7962808 66.6834947,93.5208577 C66.2274947,93.2517808 65.8725474,92.8062808 65.6780211,92.3023962" id="Fill-53" fill="#85C2CC"></path>
                <path d="M80.4596211,76.2138808 C80.4672,76.1973808 80.7488842,76.3915731 81.2705684,76.5476885 C81.7821474,76.7139577 82.5387789,76.8243808 83.3699368,76.6898423 C84.2023579,76.5730731 85.0853053,76.18215 85.8330947,75.6071885 C86.5770947,75.0233423 87.1530947,74.23515 87.5320442,73.3999962 C87.5320442,73.3999962 87.5333053,73.6144962 87.4739368,74.0384192 C87.3817263,74.4433038 87.1935158,75.07665 86.6604632,75.7239577 C86.1349895,76.3573038 85.2634105,77.0109577 84.0937263,77.2419577 C82.9505684,77.4907269 81.4600421,77.2229192 80.4596211,76.2138808" id="Fill-55" fill="#85C2CC"></path>
                <path d="M83.6138526,77.1316615 C83.6138526,77.1316615 83.7591158,77.2395462 84.0003789,77.4223154 C84.1026947,77.5251231 84.2732211,77.5847769 84.4412211,77.6710846 C84.6003789,77.7738923 84.8088,77.8068923 85.0146947,77.8627385 C85.8761684,78.0835846 86.8601684,77.7243923 87.6925895,77.1316615 C87.6925895,77.1316615 87.6673263,77.2497 87.5713263,77.4743538 C87.4917474,77.7129692 87.2744842,78.0036231 86.8892211,78.2980846 C86.4875368,78.5328923 85.8736421,78.7829308 85.1902737,78.5887385 C84.5220632,78.4364308 83.8500632,77.8893923 83.6138526,77.1316615" id="Fill-57" fill="#85C2CC"></path>
                <path d="M34.8613895,90.3284885 C34.8613895,90.3284885 35.0685474,90.3817962 35.4159158,90.4655654 C35.5801263,90.5264885 35.7910737,90.5353731 36.0197053,90.55695 C36.2458105,90.6039115 36.4933895,90.5721808 36.7510737,90.5493346 C37.8197053,90.4846038 38.7354947,89.5694885 39.4011789,88.5629885 C39.4011789,88.5629885 39.4049684,88.7051423 39.3670737,88.9818346 C39.3443368,89.1189115 39.3291789,89.2978731 39.2634947,89.4933346 C39.1801263,89.6799115 39.0752842,89.8982192 38.9401263,90.1419115 C38.7594947,90.3449885 38.5561263,90.5988346 38.2681263,90.7854115 C38.1178105,90.8691808 37.9561263,90.9542192 37.7868632,91.0367192 C37.6163368,91.1103346 37.4142316,91.1268346 37.2197053,91.16745 C36.4226526,91.2689885 35.5258105,90.9580269 34.8613895,90.3284885" id="Fill-59" fill="#85C2CC"></path>
                <path d="M38.5928842,90.4759731 C38.5928842,90.4759731 38.8240421,90.5153192 39.2055158,90.58005 C39.5806737,90.6346269 40.1112,90.6587423 40.6733053,90.5508577 C41.8366737,90.3718962 42.9154105,89.4161654 43.7377263,88.4071269 C43.7377263,88.4071269 43.7213053,88.5607038 43.6442526,88.8500885 C43.5987789,88.9922423 43.5634105,89.1838962 43.4623579,89.3818962 C43.3549895,89.5748192 43.2210947,89.7956654 43.0556211,90.0406269 C42.8484632,90.2449731 42.6223579,90.5000885 42.3166737,90.6930115 C42.1575158,90.7831269 41.9882526,90.8719731 41.8114105,90.95955 C41.6345684,91.0522038 41.4223579,91.0725115 41.2189895,91.12455 C40.3853053,91.2908192 39.3836211,91.0813962 38.5928842,90.4759731" id="Fill-61" fill="#85C2CC"></path>
                <path d="M50.5447579,87.9207577 C50.5447579,87.9207577 50.7354947,87.9309115 51.0512842,87.9474115 C51.3594947,87.9601038 51.7864421,87.9359885 52.2336,87.8192192 C53.1481263,87.6097962 54.0550737,86.8825269 54.9557053,86.2897962 C54.9557053,86.2897962 54.9266526,86.4179885 54.8281263,86.6477192 C54.7397053,86.8825269 54.5477053,87.1896808 54.2357053,87.5488731 C53.8959158,87.86745 53.4159158,88.2647192 52.7211789,88.3903731 C52.0441263,88.5388731 51.2104421,88.4005269 50.5447579,87.9207577" id="Fill-63" fill="#85C2CC"></path>
                <path d="M24.4501895,90.3768462 C24.4653474,90.3819231 24.4261895,90.1103077 24.5398737,89.6800385 C24.6434526,89.2497692 24.8935579,88.6557692 25.3735579,88.1074615 C25.8421895,87.5604231 26.5722947,87.0425769 27.4590316,86.9613462 C28.3584,86.8661538 29.2059789,87.4436538 29.4977684,88.0909615 C29.4977684,88.0909615 29.3322947,88.011 29.0695579,87.8586923 C28.7828211,87.7444615 28.3824,87.5667692 27.8746105,87.6023077 C27.3769263,87.6403846 26.7756632,87.8358462 26.1605053,88.2902308 C25.5541895,88.7395385 24.8758737,89.364 24.4501895,90.3768462" id="Fill-65" fill="#85C2CC"></path>
                <path d="M11.5434947,82.0685885 C11.5434947,82.0685885 11.6154947,82.0927038 11.7443368,82.1396654 C11.8719158,82.1904346 12.0601263,82.2500885 12.3013895,82.3084731 C12.7801263,82.4277808 13.4647579,82.5305885 14.2403368,82.5204346 C15.7927579,82.5293192 17.7089684,82.00005 18.6234947,80.5988192 C18.6234947,80.5988192 18.6058105,80.7930115 18.4794947,81.1623577 C18.3367579,81.5139346 18.0184421,82.0381269 17.3843368,82.4658577 C16.7603368,82.8872423 15.8496,83.2070885 14.7986526,83.1905885 C13.7653895,83.1791654 12.5262316,82.8923192 11.5434947,82.0685885" id="Fill-67" fill="#85C2CC"></path>
                <path d="M16.3346526,82.52475 C16.3346526,82.52475 16.3813895,82.5463269 16.4685474,82.5856731 C16.5557053,82.6300962 16.6794947,82.6872115 16.8386526,82.7481346 C17.1569684,82.87125 17.6091789,83.0134038 18.1207579,83.0794038 C18.6348632,83.15175 19.2032842,83.1212885 19.7287579,82.9651731 C20.2504421,82.7950962 20.7354947,82.4841346 21.1700211,82.0906731 C21.1422316,82.0551346 21.1940211,82.7532115 20.2933895,83.4259038 C19.8462316,83.7406731 19.1464421,83.9259808 18.3999158,83.8003269 C17.6609684,83.6695962 16.8677053,83.2482115 16.3346526,82.52475" id="Fill-69" fill="#85C2CC"></path>
                <path d="M9.47368421,86.2952538 C9.48252632,86.2863692 9.61136842,86.4564462 9.88294737,86.6379462 C10.1482105,86.8245231 10.56,87.0060231 11.0513684,87.0618692 C12.0492632,87.1900615 13.2568421,86.8283308 14.1473684,86.1429462 C14.1347368,86.1086769 14.0993684,86.7940615 13.1886316,87.3880615 C12.7465263,87.6609462 12.0934737,87.8856 11.3355789,87.7777154 C10.5966316,87.7002923 9.72,87.1621385 9.47368421,86.2952538" id="Fill-71" fill="#85C2CC"></path>
                <path d="M9.60934737,69.0075692 C9.60934737,69.0075692 9.81145263,69.0951462 10.1449263,69.2385692 C10.4758737,69.3654923 10.9584,69.4733769 11.4939789,69.4518 C12.5929263,69.4314923 13.7386105,68.7054923 14.5899789,67.8259154 C14.5899789,67.8259154 14.5685053,67.9680692 14.4775579,68.2409538 C14.4219789,68.3716846 14.3840842,68.5620692 14.2602947,68.7308769 C14.1365053,68.9022231 13.9925053,69.1091077 13.8005053,69.3147231 C13.3798737,69.6650308 12.7571368,70.0927615 11.9272421,70.0978385 C11.1226105,70.1435308 10.1651368,69.7818 9.60934737,69.0075692" id="Fill-73" fill="#85C2CC"></path>
                <path d="M6.17267368,67.8076385 C6.18277895,67.7949462 6.37225263,67.9523308 6.73477895,68.0856 C7.09098947,68.2264846 7.61772632,68.3318308 8.20256842,68.2759846 C9.40256842,68.1858692 10.7149895,67.4281385 11.4488842,66.3327923 C11.4223579,66.2985231 11.5638316,67.0727538 10.6909895,67.9866 C10.2615158,68.4117923 9.57688421,68.8281 8.70151579,68.9042538 C7.85141053,69.0019846 6.7512,68.6719846 6.17267368,67.8076385" id="Fill-75" fill="#85C2CC"></path>
                <path d="M10.9416,52.3278462 C10.9416,52.3278462 11.1790737,52.4052692 11.5757053,52.5080769 C11.9672842,52.6134231 12.5230737,52.7454231 13.1394947,52.7784231 C13.7571789,52.8215769 14.4253895,52.7327308 14.9634947,52.3976538 C15.4940211,52.0562308 15.9070737,51.4711154 16.2304421,50.8682308 C16.2304421,50.8682308 16.2418105,51.0294231 16.2190737,51.348 C16.1736,51.6538846 16.0927579,52.1488846 15.6708632,52.6527692 C15.2729684,53.1617308 14.4392842,53.5628077 13.5500211,53.4777692 C12.6557053,53.4257308 11.7462316,52.9916538 10.9416,52.3278462" id="Fill-77" fill="#85C2CC"></path>
                <path d="M13.7651368,50.6680731 C13.7651368,50.6680731 13.9571368,50.6642654 14.2741895,50.6553808 C14.5887158,50.6452269 15.0282947,50.6376115 15.5057684,50.5893808 C16.4960842,50.5297269 17.4333474,50.1273808 18.1773474,49.3544192 C18.1773474,49.3544192 18.1685053,49.4775346 18.1040842,49.7174192 C18.0636632,49.8329192 18.0384,50.0004577 17.9373474,50.1527654 C17.8325053,50.2999962 17.7049263,50.4853038 17.5293474,50.6591885 C17.1504,50.9599962 16.5655579,51.2595346 15.8859789,51.2379577 C15.2127158,51.2468423 14.4864,51.0513808 13.7651368,50.6680731" id="Fill-79" fill="#85C2CC"></path>
                <path d="M12.3428211,42.1578808 C12.3428211,42.1578808 12.3516632,42.0893423 12.3680842,41.9649577 C12.3870316,41.8405731 12.4009263,41.6514577 12.4729263,41.4268038 C12.5853474,40.9774962 12.8556632,40.3301885 13.4329263,39.7818808 C13.9937684,39.2196115 14.8666105,38.8528038 15.7394526,38.7994962 C16.6160842,38.7588808 17.4737684,39.0000346 18.1078737,39.4074577 C18.1078737,39.4074577 17.9221895,39.4125346 17.5925053,39.3896885 C17.2590316,39.3947654 16.7802947,39.3693808 16.1954526,39.4341115 C15.6156632,39.50265 14.9209263,39.6371885 14.2224,40.0243038 C13.5150316,40.3987269 12.8379789,41.1018808 12.3428211,42.1578808" id="Fill-81" fill="#85C2CC"></path>
                <path d="M15.1812632,37.8177462 C15.1926316,37.8177462 15.1269474,37.6248231 15.1547368,37.2757846 C15.1610526,36.9356308 15.3808421,36.3911308 15.8823158,36.0522462 C16.3686316,35.7019385 17.0002105,35.5737462 17.5951579,35.5483615 C18.1951579,35.5280538 18.7736842,35.6295923 19.284,35.7984 C19.284,35.7984 19.1627368,35.8593231 18.9315789,35.9342077 C18.7016842,36.0103615 18.3606316,36.0992077 17.9387368,36.1804385 C17.5193684,36.2680154 17.0103158,36.3365538 16.4886316,36.4939385 C15.9745263,36.6399 15.4338947,36.9660923 15.1812632,37.8177462" id="Fill-83" fill="#85C2CC"></path>
                <path d="M3.82269474,62.2814077 C3.83406316,62.2839462 3.81890526,62.1100615 3.91237895,61.8321 C3.99701053,61.5579462 4.22816842,61.1670231 4.65132632,60.8992154 C5.06690526,60.6225231 5.63027368,60.5184462 6.15322105,60.5704846 C6.67743158,60.6314077 7.1688,60.8547923 7.50101053,61.1873308 C7.50101053,61.1873308 7.37974737,61.2025615 7.17764211,61.2063692 C6.98185263,61.2165231 6.70016842,61.2292154 6.34774737,61.2457154 C6.00669474,61.2672923 5.61258947,61.2952154 5.18058947,61.3929462 C4.75743158,61.5008308 4.26732632,61.6924846 3.82269474,62.2814077" id="Fill-85" fill="#85C2CC"></path>
                <path d="M38.2005474,27.4581577 C38.2182316,27.4581577 38.1260211,27.2411192 38.1538105,26.8463885 C38.1613895,26.4554654 38.4001263,25.8601962 38.9281263,25.4565808 C39.9816,24.6391962 41.6237053,24.5516192 42.7567579,24.9844269 C42.7567579,24.9844269 42.6114947,25.0326577 42.3487579,25.0973885 C42.0885474,25.1583115 41.7121263,25.2458885 41.2333895,25.3601192 C40.7647579,25.4730808 40.1963368,25.5936577 39.6051789,25.8284654 C39.0279158,26.0620038 38.3938105,26.4783115 38.2005474,27.4581577" id="Fill-87" fill="#85C2CC"></path>
                <path d="M56.9949474,29.5058077 C57,29.4943846 57.1945263,29.6314615 57.5431579,29.7545769 C57.8867368,29.8840385 58.3894737,29.9678077 58.9288421,29.8599231 C59.4757895,29.7698077 60.0467368,29.4639231 60.5911579,29.1072692 C61.1292632,28.7315769 61.6408421,28.2898846 62.1284211,27.8672308 C62.1284211,27.8672308 62.0968421,28.0208077 61.9882105,28.2987692 C61.8707368,28.5691154 61.6686316,28.9676538 61.2795789,29.3865 C60.8943158,29.7951923 60.3069474,30.2533846 59.4732632,30.4374231 C59.0614737,30.5288077 58.5827368,30.5161154 58.1330526,30.3612692 C57.6833684,30.2076923 57.2804211,29.8992692 56.9949474,29.5058077" id="Fill-89" fill="#85C2CC"></path>
                <path d="M60.4255579,26.9469115 C60.4255579,26.9469115 60.4912421,26.9722962 60.6112421,27.0192577 C60.7337684,27.0611423 60.9005053,27.14745 61.1240842,27.2083731 C61.5573474,27.3568731 62.1876632,27.5117192 62.8710316,27.4368346 C63.5544,27.3822577 64.2605053,27.0509885 64.9110316,26.5788346 C65.5615579,26.1016038 66.1729263,25.5202962 66.7666105,25.0113346 C66.7666105,25.0113346 66.7059789,25.1890269 66.5506105,25.5114115 C66.3851368,25.8236423 66.1362947,26.2907192 65.6689263,26.7946038 C65.2116632,27.2870654 64.4941895,27.8709115 63.4647158,28.03845 C62.4289263,28.2301038 61.2731368,27.7566808 60.4255579,26.9469115" id="Fill-91" fill="#85C2CC"></path>
                <path d="M67.1434105,35.3530269 C67.1434105,35.3530269 67.3556211,35.4037962 67.7080421,35.4507577 C68.0579368,35.5002577 68.5467789,35.5434115 69.0861474,35.5015269 C69.6267789,35.4672577 70.2027789,35.3339885 70.7067789,35.0661808 C71.2120421,34.7996423 71.6339368,34.3782577 71.9876211,33.8896038 C71.9535158,33.8591423 72.1455158,34.5584885 71.3547789,35.4088731 C70.9594105,35.8036038 70.2912,36.1412192 69.5143579,36.1513731 C68.7413053,36.1818346 67.8722526,35.9152962 67.1434105,35.3530269" id="Fill-93" fill="#85C2CC"></path>
                <path d="M74.9221895,36.4085192 C74.9221895,36.4085192 74.9840842,36.4288269 75.0990316,36.4681731 C75.2114526,36.5075192 75.3731368,36.5671731 75.5815579,36.6154038 C75.9933474,36.7232885 76.5794526,36.81975 77.2350316,36.78675 C77.8918737,36.7639038 78.6068211,36.5938269 79.2573474,36.2727115 C79.9091368,35.9528654 80.4775579,35.4705577 80.9600842,34.9324038 C80.9335579,34.8994038 80.9525053,35.7180577 79.9482947,36.6128654 C79.4493474,37.0317115 78.6762947,37.41375 77.7415579,37.4378654 C76.8181895,37.4835577 75.7407158,37.1535577 74.9221895,36.4085192" id="Fill-95" fill="#85C2CC"></path>
                <path d="M77.9197895,41.8188692 C77.9197895,41.8188692 78.1294737,41.9064462 78.4743158,42.0524077 C78.6347368,42.1425231 78.8595789,42.1755231 79.0932632,42.2389846 C79.3206316,42.3214846 79.5896842,42.3164077 79.8663158,42.3405231 C81.0018947,42.4281 82.1728421,41.6932154 83.0532632,40.7882538 C83.0532632,40.7882538 83.0254737,40.9342154 82.9244211,41.2109077 C82.8688421,41.3441769 82.8183158,41.5307538 82.6995789,41.7097154 C82.5732632,41.8823308 82.4166316,42.0828692 82.2221053,42.3024462 C81.7825263,42.6502154 81.1155789,43.0804846 80.2604211,43.0195615 C79.4292632,43.0030615 78.5248421,42.5766 77.9197895,41.8188692" id="Fill-97" fill="#85C2CC"></path>
                <path d="M74.6384842,43.9302346 C74.6384842,43.9302346 74.6940632,43.9683115 74.7951158,44.0419269 C74.8961684,44.1104654 75.0288,44.2272346 75.2233263,44.3287731 C75.5883789,44.5546962 76.1492211,44.8060038 76.7946947,44.8377346 C77.4414316,44.8885038 78.1437474,44.6816192 78.7450105,44.2691192 C79.3361684,43.8413885 79.8224842,43.2359654 80.2090105,42.6026192 C80.1711158,42.5759654 80.3391158,43.3895423 79.4877474,44.4861577 C79.0582737,44.99385 78.2738526,45.5332731 77.2633263,45.5243885 C76.2578526,45.5561192 75.2031158,44.9024654 74.6384842,43.9302346" id="Fill-99" fill="#85C2CC"></path>
                <path d="M79.5579789,52.9307308 C79.5579789,52.9307308 79.6426105,52.9573846 79.8005053,53.0081538 C79.9584,53.0411538 80.1680842,53.1718846 80.4598737,53.1617308 C81.0270316,53.2594615 81.8089263,53.0373462 82.5150316,52.4458846 C82.6906105,52.2986538 82.8762947,52.1539615 83.0468211,51.9699231 C83.2337684,51.7947692 83.3790316,51.6361154 83.5887158,51.4013077 L83.8628211,51.1055769 L83.9310316,51.0306923 L84.0207158,51.0776538 L84.2000842,51.1715769 L84.6497684,51.4051154 C84.8859789,51.4850769 85.1133474,51.5942308 85.3659789,51.6424615 C86.3537684,51.9064615 87.4211368,51.8480769 88.3040842,51.4317692 C88.3040842,51.4317692 88.2624,51.4736538 88.1828211,51.5523462 C88.0956632,51.6208846 87.9807158,51.7681154 87.7824,51.8798077 C87.4009263,52.1361923 86.7289263,52.3938462 85.8257684,52.3760769 C85.3748211,52.3798846 84.8771368,52.2681923 84.3529263,52.0752692 C83.9878737,51.8925 84.1053474,51.9508846 84.0864,51.9407308 C83.9310316,52.1120769 83.6859789,52.3494231 83.4510316,52.5410769 C82.9722947,52.9345385 82.3887158,53.3470385 81.6535579,53.4765 C80.9234526,53.6288077 80.1402947,53.3990769 79.5579789,52.9307308" id="Fill-101" fill="#85C2CC"></path>
                <path d="M86.4584842,52.3575462 C86.4584842,52.3575462 86.5506947,52.4375077 86.6997474,52.5682385 C86.8513263,52.6913538 87.0660632,52.8423923 87.3149053,52.9820077 C87.5675368,53.1140077 87.8441684,53.2472769 88.1296421,53.3285077 C88.4189053,53.4414692 88.7005895,53.4630462 89.0643789,53.5265077 C89.0643789,53.5265077 89.0214316,53.6013923 88.8963789,53.7194308 C88.7738526,53.8501615 88.5452211,53.9643923 88.2155368,54.0062769 C87.8934316,54.0227769 87.4677474,53.9517 87.1191158,53.6547 C86.7704842,53.3792769 86.4635368,52.9109308 86.4584842,52.3575462" id="Fill-103" fill="#85C2CC"></path>
                <path d="M61.1113263,69.6409154 C61.1113263,69.6409154 61.2540632,69.6409154 61.4928,69.6396462 C61.6064842,69.6498 61.7441684,69.6333 61.8932211,69.6168 C62.0397474,69.6142615 62.1989053,69.5812615 62.3631158,69.5419154 C63.0363789,69.4213385 63.6338526,68.9618769 64.3172211,68.4897231 C64.2957474,68.4744923 64.3816421,68.9453769 63.9117474,69.5355692 C63.6641684,69.8021077 63.2675368,70.1118 62.7231158,70.1638385 C62.1900632,70.2260308 61.5837474,70.0521462 61.1113263,69.6409154" id="Fill-105" fill="#85C2CC"></path>
                <path d="M61.8157895,66.1064885 C61.8157895,66.1064885 62.0507368,66.1191808 62.4423158,66.1420269 C62.8275789,66.1496423 63.3568421,66.0760269 63.9126316,65.87295 C65.0469474,65.4693346 66.1623158,64.4450654 67.1311579,63.5426423 C67.1311579,63.5426423 67.0957895,63.6974885 66.9884211,63.9856038 C66.8911579,64.2800654 66.6688421,64.6722577 66.3063158,65.1342577 C65.9122105,65.5581808 65.3690526,66.0836423 64.548,66.3489115 C63.7585263,66.6357577 62.6823158,66.6573346 61.8157895,66.1064885" id="Fill-107" fill="#85C2CC"></path>
                <path d="M64.8896842,65.8865308 C64.8896842,65.8865308 65.0261053,65.9499923 65.2509474,66.0553385 C65.4745263,66.1492615 65.7928421,66.2228769 66.1389474,66.2469923 C66.8551579,66.2584154 67.5814737,65.9246077 68.3052632,65.4258 C68.3052632,65.4258 68.2964211,65.5298769 68.2345263,65.7266077 C68.2004211,65.8230692 68.1625263,65.9487231 68.0892632,66.0819923 C68.0021053,66.2013 67.8909474,66.3396462 67.7494737,66.4868769 C67.6004211,66.6176077 67.3957895,66.7280308 67.1722105,66.8321077 C66.9284211,66.8866846 66.6606316,66.9755308 66.3675789,66.9234923 C65.7941053,66.8828769 65.1536842,66.5071846 64.8896842,65.8865308" id="Fill-109" fill="#85C2CC"></path>
                <path d="M57.1504421,78.1394308 C57.1504421,78.1394308 57.2237053,78.1914692 57.3588632,78.2879308 C57.4914947,78.3869308 57.6809684,78.5278154 57.9437053,78.6661615 C58.4540211,78.9593538 59.2232842,79.2728538 60.1365474,79.3756615 C61.0485474,79.4962385 62.0881263,79.3591615 63.0430737,78.9872769 C63.9929684,78.6001615 64.8329684,77.9515846 65.4898105,77.2103538 C65.4557053,77.1608538 65.3281263,78.2523923 63.8426526,79.3134692 C63.1062316,79.8046615 62.0123368,80.2095462 60.7365474,80.1067385 C59.4822316,80.0242385 58.0460211,79.3769308 57.1504421,78.1394308" id="Fill-111" fill="#85C2CC"></path>
                <path d="M62.0575579,76.2411692 C62.0575579,76.2411692 62.2861895,76.3084385 62.6651368,76.4201308 C63.0428211,76.5229385 63.5720842,76.6663615 64.1670316,76.7437846 C64.7607158,76.8275538 65.4150316,76.8212077 65.9758737,76.5990923 C66.5278737,76.3642846 66.9927158,75.8832462 67.3590316,75.3374769 C67.3590316,75.3374769 67.3590316,75.4910538 67.3097684,75.7969385 C67.2327158,76.0799769 67.1038737,76.5584769 66.6188211,76.9773231 C66.1476632,77.3923615 65.3228211,77.6347846 64.4954526,77.4710538 C63.6605053,77.3377846 62.8230316,76.8922846 62.0575579,76.2411692" id="Fill-113" fill="#85C2CC"></path>
                <path d="M77.0599579,65.4000346 C77.0599579,65.4000346 77.2570105,65.4216115 77.5866947,65.4558808 C77.7433263,65.4888808 77.9391158,65.4787269 78.1525895,65.4812654 C78.3660632,65.4990346 78.5984842,65.4685731 78.8384842,65.4343038 C79.8452211,65.3492654 80.7471158,64.6740346 81.4304889,63.7893808 C81.4304889,63.7893808 81.4317474,63.9213808 81.3925895,64.1777654 C81.3711158,64.4430346 81.2296421,64.8085731 80.9176421,65.2236115 C80.5753263,65.5916885 80.0157474,66.0143423 79.2793263,66.0587654 C78.5593263,66.1260346 77.7420632,65.9089962 77.0599579,65.4000346" id="Fill-115" fill="#85C2CC"></path>
                <path d="M64.2557053,56.8611577 C58.1584421,55.9942731 59.8018105,62.51685 59.8018105,62.51685 C54.2893895,65.1098885 58.8607579,69.9380423 58.8607579,69.9380423 C54.5243368,69.5864654 56.2826526,76.3019654 56.2826526,76.3019654 C52.6763368,74.2090038 50.7992842,79.9751192 50.7992842,79.9751192 C47.6072842,77.7438115 44.6098105,81.3687346 44.6098105,81.3687346 C42.3058105,77.8821577 39.2830737,81.3687346 39.2830737,81.3687346 C37.2001263,77.4645808 33.5950737,79.5550038 33.5950737,79.5550038 C32.6224421,77.6054654 29.1538105,78.8607346 29.1538105,78.8607346 C27.6266526,75.2332731 24.2969684,77.4645808 24.2969684,77.4645808 C24.9904421,74.9540423 22.6333895,74.2585038 22.6333895,74.2585038 C24.0190737,71.1920423 19.1634947,68.5418885 19.1634947,68.5418885 C20.8283368,66.5910808 17.4973895,64.9182346 17.4973895,64.9182346 C20.5504421,62.8252731 17.4973895,60.1776577 17.4973895,60.1776577 C21.1062316,58.6431577 18.7479158,55.5754269 18.7479158,55.5754269 C21.2439158,53.62335 18.7479158,51.5329269 18.7479158,51.5329269 C22.9100211,50.83485 21.9386526,45.9559269 21.9386526,45.9559269 C25.8228632,46.0968115 25.5449684,41.6341962 25.5449684,41.6341962 C29.2902316,42.6115038 30.2641263,37.8696577 30.2641263,37.8696577 C33.8704421,40.5185423 35.8131789,35.0811577 35.8131789,35.0811577 C38.5896,37.8696577 40.8089684,33.9655038 40.8089684,33.9655038 C42.6114947,36.3364269 46.4237053,33.9655038 46.4237053,33.9655038 C48.0152842,36.6143885 51.9096,33.9655038 51.9096,33.9655038 C52.3251789,36.6143885 57.3197053,35.91885 57.3197053,35.91885 C56.9041263,38.7060808 61.2077053,39.5425038 61.2077053,39.5425038 C60.9298105,42.4706192 64.9112842,43.7220808 64.9112842,43.7220808 C64.0788632,46.9294269 68.5959158,49.4386962 68.5959158,49.4386962 C67.2064421,53.4824654 69.7668632,54.2744654 69.7668632,54.2744654 C69.7668632,54.2744654 63.7870737,51.6344654 64.2557053,56.8611577" id="Fill-117" fill="#1E2B2D"></path>
                <path d="M26.3832,47.6716731 C25.8589895,49.0094423 39.9154105,58.2748269 45.6943579,58.5121731 C51.4758316,58.7469808 56.8682526,58.4740962 58.2754105,57.6668654 C59.6825684,56.8609038 64.9587789,52.5010962 64.7250947,50.6175577 C64.4901474,48.73275 58.1579368,38.9533269 52.1794105,37.8935192 C46.1996211,36.8324423 29.1975158,40.4852885 26.3832,47.6716731" id="Fill-119" fill="#FF9C0D"></path>
            </g>
            <g id="Group-137" transform="translate(25.263158, 37.092508)">
                <g id="Group-124">
                    <mask id="mask-16" fill="white">
                        <use xlink:href="#path-15"></use>
                    </mask>
                    <g id="Clip-123"></g>
                    <path d="M2.93330526,9.70999615 C2.51646316,10.7698038 13.6688842,18.1211885 18.2541474,18.3077654 C22.8406737,18.4956115 27.1189895,18.2785731 28.2343579,17.6388808 C29.3509895,17.0004577 33.5383579,13.5430731 33.3514105,12.04665 C33.1669895,10.5502269 28.1421474,2.79268846 23.3977263,1.95118846 C18.6533053,1.11095769 5.16530526,4.00734231 2.93330526,9.70999615" id="Fill-122" fill="#FFB24D" mask="url(#mask-16)"></path>
                </g>
                <g id="Group-127">
                    <mask id="mask-18" fill="white">
                        <use xlink:href="#path-17"></use>
                    </mask>
                    <g id="Clip-126"></g>
                    <path d="M23.9444211,-0.0924 C23.9444211,-0.0924 26.9166316,11.0616 41.6109474,15.3021 L39.4698947,17.1221769 C39.4698947,17.1221769 27.072,13.8881769 22.6964211,-0.0924 L23.9444211,-0.0924 Z" id="Fill-125" fill="#FFDAAE" mask="url(#mask-18)"></path>
                </g>
                <g id="Group-130">
                    <mask id="mask-20" fill="white">
                        <use xlink:href="#path-19"></use>
                    </mask>
                    <g id="Clip-129"></g>
                    <path d="M16.7527579,-0.0924 C16.7527579,-0.0924 21.3241263,20.3282538 30.4517053,23.4696 L26.9376,23.5521 C26.9376,23.5521 18.4731789,15.4125231 15.8154947,0.905215385 L16.7527579,-0.0924 Z" id="Fill-128" fill="#FFDAAE" mask="url(#mask-20)"></path>
                </g>
                <g id="Group-133">
                    <mask id="mask-22" fill="white">
                        <use xlink:href="#path-21"></use>
                    </mask>
                    <g id="Clip-132"></g>
                    <path d="M10.9686316,0.904707692 C10.9686316,0.904707692 10.0313684,18.7564385 15.8153684,22.8420923 L12.7143158,21.2644385 C12.7143158,21.2644385 9.91136842,20.9877462 9.32778947,1.4784 L10.9686316,0.904707692 Z" id="Fill-131" fill="#FFDAAE" mask="url(#mask-22)"></path>
                </g>
                <g id="Group-136">
                    <mask id="mask-24" fill="white">
                        <use xlink:href="#path-23"></use>
                    </mask>
                    <g id="Clip-135"></g>
                    <path d="M6.47368421,3.04843846 C6.47368421,3.04843846 4.47157895,13.2898615 5.84463158,17.1229385 L3.65810526,15.7077462 C3.65810526,15.7077462 4.19242105,7.60624615 5.15873684,3.99147692 L6.47368421,3.04843846 Z" id="Fill-134" fill="#FFDAAE" mask="url(#mask-24)"></path>
                </g>
            </g>
            <g id="Group-150" transform="translate(21.473684, 49.784815)">
                <path d="M2.68168421,1.11730385 C3.00757895,0.280880769 17.1044211,7.83280385 18.6290526,10.66065 C20.1524211,13.4884962 11.9444211,23.8124192 8.89515789,24.1284577 C5.84842105,24.4444962 -3.88421053,17.9650731 2.68168421,1.11730385" id="Fill-138" fill="#E2C342"></path>
                <path d="M5.78652632,3.22816154 C6.03157895,2.59608462 16.7052632,8.31143077 17.8585263,10.4526231 C19.0143158,12.5950846 12.7983158,20.4110077 10.4917895,20.6496231 C8.18273684,20.8895077 0.814736842,15.9839308 5.78652632,3.22816154" id="Fill-140" fill="#F9DF6E"></path>
                <path d="M13.1175158,25.8586731 C14.5234105,22.4431731 20.9743579,11.9567885 22.7326737,11.3665962 C24.4922526,10.7789423 33.0501474,10.18875 33.9886737,11.9567885 C34.9272,13.7235577 33.6362526,28.4504423 23.5524632,29.3934808 C13.4674105,30.33525 13.1175158,25.8586731 13.1175158,25.8586731" id="Fill-142" fill="#AD895E"></path>
                <path d="M15.4403368,24.6030231 C16.5392842,21.9389077 21.5679158,13.7587154 22.9409684,13.2992538 C24.3114947,12.8385231 30.9898105,12.3816 31.7224421,13.7587154 C32.4538105,15.1371 31.4458105,26.6249077 23.5801263,27.3597923 C15.7157053,28.0972154 15.4403368,24.6030231 15.4403368,24.6030231" id="Fill-144" fill="#FCDBAC"></path>
                <path d="M26.9641263,16.1863731 C26.9641263,16.1863731 26.8289684,16.1152962 26.5813895,15.9883731 C26.3363368,15.8677962 25.9548632,15.7040654 25.4837053,15.6824885 C24.4896,15.5834885 23.5182316,16.7867192 22.2904421,17.8604885 C21.9797053,18.1282962 21.7194947,18.4430654 21.4163368,18.7413346 C21.1510737,19.0649885 20.9034947,19.4000654 20.6521263,19.7567192 C20.1809684,20.5042962 19.7173895,21.3013731 19.5923368,22.1212962 C19.4192842,22.9297962 19.8891789,23.7002192 20.5258105,24.2485269 C21.1864421,24.7676423 22.0264421,25.0621038 22.8449684,25.0037192 C22.8449684,24.9770654 22.4811789,25.1801423 21.7068632,25.1217577 C21.3304421,25.0697192 20.8403368,24.9745269 20.3464421,24.6673731 C19.8576,24.3665654 19.3093895,23.89695 19.0277053,23.1277962 C18.7460211,22.3281808 18.9569684,21.3952962 19.3422316,20.58045 C19.5430737,20.1717577 19.7742316,19.7567192 20.0394947,19.35945 C20.3274947,18.9697962 20.6369684,18.53445 21.0083368,18.1689115 C21.3834947,17.7982962 21.7813895,17.4378346 22.2171789,17.1065654 C22.6517053,16.7613346 23.0710737,16.4300654 23.5536,16.07595 C24.0209684,15.7307192 24.6108632,15.3918346 25.2651789,15.4197577 C25.9131789,15.4451423 26.4727579,15.7941808 26.9641263,16.1863731" id="Fill-146" fill="#AD895E"></path>
                <path d="M24.1059789,22.9272577 C24.1085053,22.9183731 24.2310316,22.9907192 24.4685053,23.0186423 C24.7021895,23.0478346 25.0596632,23.0084885 25.3981895,22.7343346 C25.7430316,22.4741423 26.0626105,22.0286423 26.3417684,21.4904885 C26.4794526,21.2188731 26.6108211,20.9193346 26.7194526,20.6058346 C26.8242947,20.31645 26.9304,19.9166423 26.8255579,19.8138346 C26.6866105,19.5841038 25.5548211,19.5536423 24.9245053,19.6056808 C24.2600842,19.6780269 23.7522947,20.31645 23.0878737,20.9129885 C22.9173474,21.0564115 22.7455579,21.2049115 22.5434526,21.3267577 C22.4461895,21.3940269 22.3426105,21.4524115 22.2314526,21.4993731 C22.1316632,21.5476038 21.9800842,21.6174115 21.9990316,21.5996423 C21.9838737,21.60345 21.9447158,21.6021808 21.9371368,21.6136038 C21.9358737,21.6288346 21.9333474,21.6478731 21.9421895,21.6656423 C21.9485053,21.6796038 21.9421895,21.6821423 21.9598737,21.7049885 L22.0407158,21.8027192 C22.0887158,21.8750654 22.1619789,21.9296423 22.2276632,21.9918346 C22.4929263,22.2202962 22.8655579,22.4106808 23.1257684,22.3434115 C23.3834526,22.2913731 23.5085053,21.7405269 23.9240842,21.5806038 C23.9329263,21.5882192 23.8306105,21.6326423 23.7308211,21.7900269 C23.6082947,21.9372577 23.5969263,22.1987192 23.3518737,22.4969885 C23.0348211,22.7711423 22.4815579,22.6835654 22.0268211,22.41195 C21.9181895,22.3307192 21.7880842,22.2672577 21.6845053,22.1530269 C21.6289263,22.0933731 21.5720842,22.0578346 21.5165053,21.9727962 C21.4621895,21.8725269 21.4078737,21.7735269 21.3522947,21.6732577 C21.3042947,21.5679115 21.2853474,21.4486038 21.2487158,21.3318346 C21.2019789,21.2544115 21.2916632,21.2531423 21.3384,21.2264885 L21.5013474,21.1554115 C21.6011368,21.1109885 21.7565053,21.0513346 21.8171368,21.0145269 L22.0015579,20.9091808 C22.5005053,20.6159885 22.9135579,20.0549885 23.5476632,19.4927192 C23.8634526,19.21095 24.3207158,18.9406038 24.8247158,18.88095 C25.3337684,18.8174885 25.7632421,18.8822192 26.2369263,18.9291808 C26.4857684,18.9609115 26.7497684,18.9926423 27.0402947,19.1589115 C27.1135579,19.2084115 27.1868211,19.2502962 27.2512421,19.3162962 C27.3118737,19.3937192 27.3661895,19.4787577 27.4129263,19.5650654 C27.4659789,19.7338731 27.5013474,19.9394885 27.4621895,20.0752962 C27.3535579,20.6705654 27.0933474,21.1033731 26.8167158,21.5742577 C26.5325053,22.0286423 26.1851368,22.4842962 25.7127158,22.8193731 C25.4777684,22.9818346 25.2036632,23.1087577 24.9144,23.1341423 C24.6251368,23.1620654 24.3421895,23.0757577 24.1059789,22.9272577" id="Fill-148" fill="#AD895E"></path>
            </g>
        </g>
    </g>
</svg>