<?xml version="1.0" encoding="UTF-8"?>
<svg width="120px" height="120px" viewBox="0 0 120 120" version="1.1" xmlns="http://www.w3.org/2000/svg" xmlns:xlink="http://www.w3.org/1999/xlink">
    <!-- Generator: Sketch 51.1 (57501) - http://www.bohemiancoding.com/sketch -->
    <title>Mouse1</title>
    <desc>Created with Sketch.</desc>
    <defs>
        <polygon id="path-1" points="0.707993407 0.307669173 52.2337297 0.307669173 52.2337297 65.6591278 0.707993407 65.6591278"></polygon>
        <polygon id="path-3" points="0.294905815 0.403398496 40.3347977 0.403398496 40.3347977 64.962406 0.294905815 64.962406"></polygon>
    </defs>
    <g id="Mouse1" stroke="none" stroke-width="1" fill="none" fill-rule="evenodd">
        <g id="Group" transform="translate(60.000000, 60.000000) scale(-1, 1) translate(-60.000000, -60.000000) translate(19.000000, 0.000000)">
            <g id="Group-3" transform="translate(5.406593, 0.594586)">
                <mask id="mask-2" fill="white">
                    <use xlink:href="#path-1"></use>
                </mask>
                <g id="Clip-2"></g>
                <path d="M9.18192747,45.2167218 C8.40518022,45.2636391 7.90867473,45.9096541 7.94201538,46.8317594 C7.97625714,47.8179248 8.57458681,48.4756692 9.42342198,48.4630376 C10.2938835,48.4495038 10.8814,47.7213835 10.7876857,46.774015 C10.6975758,45.8573233 9.98750989,45.168 9.18192747,45.2167218 M33.0313121,47.1818346 C33.0610484,46.2714586 32.3338615,45.4973233 31.3958176,45.4386767 C30.5650044,45.3863459 29.8792681,45.9430376 29.8098835,46.724391 C29.7287846,47.6392782 30.5821253,48.5298045 31.5787407,48.570406 C32.4149604,48.6046917 33.0024769,48.0416842 33.0313121,47.1818346 M8.31146593,55.7117594 C9.57660879,55.7298045 10.2010703,55.1577744 10.252433,53.931609 C10.3101033,52.5673985 9.00711429,51.1228872 7.74557582,51.1490526 C6.69038901,51.171609 5.70729011,52.166797 5.69647692,53.2215338 C5.68566374,54.3899549 7.05443297,55.692812 8.31146593,55.7117594 M33.1565648,54.972812 C33.1565648,53.1737143 32.6825868,52.6783759 30.9479714,52.6621353 C29.3422132,52.646797 28.2644989,53.5346165 28.2266527,54.9015338 C28.1906088,56.204391 29.2548066,57.2329624 30.6506088,57.2464962 C32.5122791,57.2636391 33.1556637,56.6789774 33.1565648,54.972812 M51.0559934,28.9544662 C50.3981912,29.6176241 49.8106747,30.3773233 49.0690703,30.9258947 C46.788389,32.6131128 45.7052681,34.8570226 45.3177956,37.646797 C44.8492242,41.0158195 45.2240813,44.4705564 44.2103451,47.7746165 C43.7877297,49.1514586 43.4164769,50.5445414 43.0226967,51.930406 C42.7010044,52.1884511 42.3009165,52.3896541 42.0702352,52.7135639 C40.3509385,55.1126617 38.5298176,57.3881504 35.9598835,58.971609 C35.5138396,59.246797 35.3435319,59.9713083 35.0452681,60.4883008 C34.369444,60.1499549 33.6936198,59.811609 33.0177956,59.4732632 C32.9538176,59.5616842 32.8898396,59.6510075 32.8258615,59.7403308 C33.1169165,60.1698045 33.4097736,60.6001805 33.7008286,61.0296541 C33.0619495,61.0567218 32.5726527,61.2985263 32.3663011,61.9517594 C31.5372901,61.9084511 30.9831143,60.7337143 29.5837077,61.4203308 C30.2027626,61.9012331 30.6244769,62.2287519 31.0470923,62.5571729 C28.4257956,63.1959699 25.8171143,63.8934135 23.1795978,64.4555188 C20.9169385,64.9373233 18.6218396,65.2648421 16.3411582,65.6591278 L16.3123231,65.5102556 C16.4438835,64.8525113 16.876411,64.1830376 16.2104989,63.5595789 C15.2075758,62.6185263 12.9341033,62.525594 11.6437297,63.3836391 C10.4299495,62.815218 9.4874,61.9968722 9.11975165,60.6470977 C9.19724615,60.3701053 9.27474066,60.0931128 9.35223516,59.8170226 C9.02513626,59.8251429 8.69623516,59.8224361 8.37003736,59.8495038 C8.2564989,59.8594286 8.14926813,59.9415338 8.03843297,59.9902556 C7.88975165,59.6239398 7.74107033,59.2567218 7.59148791,58.8895038 C8.19792747,58.2281504 8.0114,57.8609323 7.16526813,57.7391278 C6.83366374,57.4747669 6.34256484,57.2789774 6.19568571,56.935218 C4.57370769,53.1502556 3.40137802,49.2164211 2.67148791,45.1670977 C2.37052088,43.5024361 2.37682857,41.7809323 2.24346593,40.085594 C2.44441099,39.0389774 2.60390549,37.9833383 2.85350989,36.9502556 C3.82309231,32.9289023 5.20808132,29.0798797 7.70953187,25.7225865 C8.13845495,25.1469474 8.5070044,24.5902556 8.24478462,23.8125113 C7.73926813,22.3174737 7.32205934,20.7899549 6.76608132,19.3138647 C5.24052088,15.2636391 2.95893846,11.6095038 0.707993407,7.94183459 C1.79201538,7.1442406 2.77601538,7.82093233 3.73118022,8.21792481 C4.30067473,8.45521805 4.8143011,8.88559398 5.27476264,9.31416541 C7.55003736,11.4308571 9.8144989,13.5610827 12.0510264,15.7192782 C12.7664989,16.4095038 13.3395978,16.8326617 14.5191363,16.5150677 C15.6851582,16.201985 17.0232901,16.5240902 18.2848286,16.572812 C18.5830923,16.5836391 18.8795538,16.6107068 19.1588945,16.6287519 C19.8112901,13.8083008 19.8112901,13.8083008 21.5495099,14.641985 C21.8135319,14.161985 22.0198835,13.6242406 22.3695099,13.2073985 C22.6182132,12.9114586 23.0831802,12.5866466 23.409378,12.6263459 C23.7445868,12.6669474 24.2122571,13.0883008 24.2960593,13.4248421 C24.4807846,14.1574737 24.3771582,15.1129624 25.2205868,15.3664962 C26.3541692,15.7075489 27.5625429,15.8446917 28.7492901,15.9295038 C29.0556637,15.9502556 29.5107187,15.5108571 29.7071582,15.1725113 C30.5992462,13.6359699 31.5417956,12.1120602 32.2446527,10.488 C33.4809604,7.63055639 35.6571143,5.64649624 38.0315099,3.82303759 C41.6151802,1.07115789 45.7214879,0.0461954887 50.1747187,0.362887218 C50.8748725,0.413413534 51.5479934,0.841082707 52.2337297,1.09461654 C48.7248505,2.88559398 45.5827187,5.14664662 43.0317077,8.19085714 C40.8186088,10.8326617 39.0055978,13.6765714 37.9531143,17.006797 C36.9240593,20.2648421 37.1682571,23.1610827 39.4336198,25.8958195 C42.005356,28.9986767 45.6863451,30.291609 49.5646747,29.1845414 C50.0449604,29.0473985 50.5576857,29.0284511 51.0559934,28.9544662" id="Fill-1" fill="#D3D3D3" mask="url(#mask-2)"></path>
            </g>
            <g id="Group-6" transform="translate(18.021978, 54.729925)">
                <mask id="mask-4" fill="white">
                    <use xlink:href="#path-3"></use>
                </mask>
                <g id="Clip-5"></g>
                <path d="M21.1386989,30.9339248 C20.4610725,30.8861053 20.0114242,30.8545263 19.0238198,30.7850526 C20.5025231,31.8524211 20.374567,33.0172331 20.2294901,34.2885113 C20.9701934,33.6316692 21.5505011,33.1173835 22.1812703,32.557985 C20.8152044,31.1856541 23.1481495,30.4782857 23.0048747,29.2656541 C22.8534901,29.1492632 22.7012044,29.0328722 22.5489187,28.9164812 C22.0524132,29.6274586 21.5550066,30.3384361 21.1386989,30.9339248 Z M19.7510066,7.81723308 C19.9573582,7.16309774 20.4466549,6.92129323 21.084633,6.89422556 C22.1308088,7.57813534 22.8958418,8.68610526 24.5034022,9.27257143 C23.9996879,8.39828571 23.6969187,7.87317293 23.3941495,7.34896241 C23.7987429,7.19196992 24.2682154,7.11888722 24.5953143,6.86264662 C26.6272923,5.27196992 28.8133582,3.85181955 30.2938637,1.63948872 C30.6290725,1.13783459 31.2265011,0.811218045 31.7031824,0.403398496 C32.1780615,0.924902256 32.6538418,1.44640602 33.129622,1.96790977 C33.4251824,3.85542857 34.0009846,5.61302256 35.4526549,6.96099248 C35.626567,7.81633083 35.6499956,8.73843609 35.9978198,9.51618045 C37.7621714,13.4590376 39.0174022,17.5471579 39.9500396,21.7643008 C40.6429846,24.8960301 40.3510286,27.9023459 39.4652484,30.9249023 C39.1669846,31.9417444 39.0471385,33.0109173 38.8452923,34.0557293 C37.6819736,34.3679098 37.6315121,35.4226466 37.3386549,36.3149774 C35.9320396,37.9309173 34.5028967,39.5261053 33.1431385,41.1808421 C32.9124571,41.4614436 32.8719077,42.0118195 32.938589,42.405203 C33.4116659,45.2121203 33.9838637,48.0018947 34.4272044,50.8133233 C34.8209846,53.3098647 35.2030505,55.8190376 35.3769626,58.3372331 C35.5310505,60.5739248 34.8345011,61.4193383 32.6250066,62.007609 C31.6680396,62.2638496 30.6164571,62.3540752 29.6297538,62.2683609 C28.073556,62.131218 27.6148967,61.1423459 28.3150505,59.7438496 C28.4853582,59.4046015 28.6268308,58.9904662 28.9070725,58.7775338 C30.0586769,57.9086617 30.0001055,56.8421955 29.7153582,55.5781353 C29.102611,52.8641504 28.6457538,50.1140752 28.0690505,47.3901654 C27.8870286,46.5348271 27.5247868,45.7182857 27.2463473,44.8873083 C25.0864132,45.4070075 23.0355121,45.9005414 21.0900396,46.368812 C21.285578,50.886406 21.4261495,55.1847519 21.6730505,59.4758797 C21.8289407,62.1889624 20.5656,63.9609925 17.6577538,64.5709173 C16.9179516,64.7261053 16.1745451,64.9020451 15.4248308,64.9570827 C14.3957758,65.0310677 13.7442813,64.3670075 13.3892484,63.5161805 C13.0333143,62.6662556 13.3496,61.8740752 14.0885011,61.3291128 C14.5940176,60.9555789 15.1373802,60.599188 15.7176879,60.3682105 C16.738633,59.9612932 17.2486549,59.3206917 17.1161934,58.1838496 C16.9765231,56.9928722 16.9161495,55.7919699 16.7899956,54.5982857 C16.5178637,52.0187368 16.2268088,49.4418947 15.937556,46.8641504 C15.9105231,46.6214436 15.8447429,46.3823459 15.8231165,46.2740752 C13.9479297,45.7444511 12.1952923,45.2617444 10.4498637,44.7510677 C9.20634725,44.3883609 8.14845714,43.7315188 7.25727033,42.768812 C6.0497978,41.4650526 4.69995165,40.2830977 3.56907253,38.9188872 C1.72001758,36.6867068 1.24964396,33.8861053 0.714391209,31.1459549 C0.275556044,28.8957293 0.0944351648,26.6301654 0.601753846,24.3537744 C0.644105495,24.1633985 0.418830769,23.9143759 0.318808791,23.6933233 C1.31001758,21.9212932 1.28208352,19.8903158 1.74254505,17.9829474 C1.76687473,17.8773835 1.52267692,17.7068571 1.40373187,17.5670075 C1.7903033,16.802797 2.19219341,16.047609 2.55803956,15.2743759 C2.84458901,14.6680602 3.08608352,14.039188 3.3483033,13.4211429 C4.40439121,13.2939248 5.4776,13.2470075 6.51296264,13.0250526 C9.81819341,12.3149774 13.2225451,12.0497143 16.4061275,10.7910677 C17.5144791,10.3525714 18.6552703,9.99708271 19.7807429,9.60369925 C20.4313363,10.1919699 20.8016879,11.1249023 22.0587209,11.1005414 L19.7510066,7.81723308 Z" id="Fill-4" fill="#C7C7C7" mask="url(#mask-4)"></path>
            </g>
            <path d="M56.462767,29.5486917 C55.9644593,29.6226767 55.450833,29.6425263 54.9714484,29.7796692 C51.0931187,30.8858346 47.4121297,29.5938045 44.8403934,26.4900451 C42.5741297,23.7553083 42.3299319,20.8590677 43.3589868,17.6019248 C44.4114703,14.270797 46.2253824,11.4268872 48.4384813,8.78508271 C50.9894923,5.74087218 54.1316242,3.47981955 57.6405033,1.68884211 C60.5681736,3.70087218 62.0811187,6.50778947 62.6262835,10.0049323 C63.1525253,13.3784662 63.0110527,16.6870376 62.1973604,19.9640301 C61.263822,23.7264361 59.4760418,27.0151579 56.462767,29.5486917" id="Fill-7" fill="#E0B0B0"></path>
            <path d="M6.11476703,8.53687218 C8.36571209,12.2036391 10.6472945,15.8577744 12.1728549,19.9089023 C12.728833,21.3840902 13.1460418,22.9125113 13.6515582,24.4075489 C13.913778,25.184391 13.5452286,25.7410827 13.1163055,26.3167218 C10.6148549,29.6749173 9.22986593,33.5230376 8.26028352,37.544391 C8.01067912,38.5783759 7.85118462,39.634015 7.65023956,40.6797293 C6.45718462,39.3804812 5.21186593,38.1245414 4.08278901,36.7720602 C1.78048132,34.0120602 0.610854945,30.7774737 0.382876923,27.2099549 C0.21347033,24.5645414 0.101734066,21.9137143 0.00801978022,19.2637895 C-0.0965076923,16.3278496 0.866767033,13.6463459 2.21030549,11.1155188 C3.00777802,9.61416541 4.27382198,8.57657143 6.11476703,8.53687218" id="Fill-9" fill="#E0B0B0"></path>
            <path d="M55.3597319,91.044812 C55.6534901,90.1524812 55.7039516,89.0977444 56.8672703,88.7855639 C58.7343473,92.4983459 62.2882813,93.5296241 65.9043912,94.3723308 C66.7207868,94.5618045 67.6858637,94.3849624 68.5247868,94.161203 C71.7624352,93.2950376 74.8027429,92.0833083 76.5184352,88.881203 C77.0888308,87.8174436 77.755644,86.802406 78.266567,85.7133835 C80.0174022,81.9807519 78.7045011,78.3401504 75.4064791,75.7912782 C74.2719956,74.915188 71.4101055,75.2607519 70.2107429,76.2956391 C68.9807429,77.357594 68.5959736,79.4571429 69.3483912,81.0009023 C69.9097758,82.1530827 70.7838418,82.5329323 72.2156879,82.2568421 C72.7662593,82.1512782 73.3177319,82.0421053 73.8728088,81.9645113 C73.9719297,81.9500752 74.0899736,82.0754887 74.1981055,82.1368421 C74.056633,83.4595489 73.1852703,84.3482707 71.8408308,84.5458647 C70.1981275,84.7858647 68.7897099,84.1497744 67.9841275,82.6827068 C66.5594901,80.0869173 66.4017978,75.4051128 70.2404791,73.3642105 C72.5508967,72.1362406 74.7423692,72.2977444 76.9158198,73.567218 C79.8479956,75.278797 82.4909187,79.3037594 81.4970066,84.0496241 C80.616633,88.2604511 78.0701275,91.3109774 74.9505231,94.0574436 C72.9005231,95.8628571 70.4783692,96.8039098 67.8895121,97.0051128 C66.1152484,97.1431579 64.1977099,96.7903759 62.4964352,96.2093233 C59.6453582,95.233985 57.1267868,93.6135338 55.3597319,91.044812" id="Fill-11" fill="#B8B8B8"></path>
            <path d="M53.4748132,61.6906466 C52.0231429,60.3426767 51.4473407,58.585985 51.1508791,56.6975639 C54.3578901,55.9721504 56.8521319,54.0521504 59.1904835,51.8759098 C59.6085934,51.4870376 59.978044,51.0431278 60.4177802,50.6822256 C61.5081099,49.7862857 62.6759341,50.1986165 62.9453626,51.6097444 C63.2093846,52.992 62.9354505,54.3056842 61.8847692,55.2945564 C60.5493407,56.5504962 59.1895824,57.7947068 57.7343077,58.9026767 C56.3871648,59.9285414 54.9003516,60.7694436 53.4748132,61.6906466" id="Fill-13" fill="#B8B8B8"></path>
            <path d="M19.4258,72.2965714 C19.5447451,72.4364211 19.7889429,72.6078496 19.7637121,72.7125113 C19.3041516,74.6198797 19.3320857,76.6508571 18.3399758,78.4228872 C16.1394923,80.0469474 13.5326132,80.6830376 10.9545692,81.2965714 C10.0363495,81.5158195 8.95142637,81.2767218 8.00347033,81.023188 C7.56373407,80.9049925 6.98252527,80.2526617 6.97892088,79.8385263 C6.97531648,79.3233383 7.42947033,78.7377744 7.82234945,78.3064962 C8.09808571,78.0051429 8.58828352,77.8770226 9.00369011,77.7290526 C12.4368769,76.5173233 15.5546791,74.7064962 18.5841736,72.7215338 C18.8454923,72.5501053 19.1446571,72.4364211 19.4258,72.2965714" id="Fill-15" fill="#B8B8B8"></path>
            <path d="M37.802811,64.333985 C36.6764374,64.7273684 35.5365473,65.0828571 34.4281956,65.5204511 C31.2446132,66.78 27.8393604,67.0452632 24.5350308,67.7553383 C23.498767,67.9772932 22.4264593,68.0242105 21.3703714,68.1505263 C21.4956242,67.5180451 21.621778,66.8864662 21.7479319,66.253985 C24.0286132,65.858797 26.3237121,65.5321805 28.5863714,65.0503759 C31.2238879,64.4882707 33.8325692,63.7899248 36.4511626,63.1511278 C36.900811,63.5454135 37.3522615,63.9396992 37.802811,64.333985" id="Fill-17" fill="#B8B8B8"></path>
            <path d="M49.7248,55.1334135 C49.2481187,55.5412331 48.6515912,55.8669474 48.3154813,56.3695038 C46.8349758,58.5818346 44.6489099,60.001985 42.6169319,61.5926617 C42.2907341,61.8489023 41.8203604,61.9210827 41.4184703,62.0789774 C41.0976791,61.7469474 40.7741846,61.4149173 40.4515912,61.0828872 C40.7498549,60.5658947 40.9201626,59.8413835 41.3671077,59.5661955 C43.9370418,57.9827368 45.7581626,55.7072481 47.4765582,53.3081504 C47.7081407,52.9842406 48.1082286,52.7830376 48.4299209,52.5249925 C48.8615473,53.3947669 49.2931736,54.2645414 49.7248,55.1334135" id="Fill-19" fill="#B8B8B8"></path>
            <path d="M17.0506835,63.9780451 C18.340156,63.12 20.6136286,63.2129323 21.6165516,64.153985 C22.2824637,64.7783459 21.8499363,65.4469173 21.7192769,66.1046617 C18.9700242,66.7578947 18.2914967,66.4484211 17.0506835,63.9780451" id="Fill-21" fill="#656162"></path>
            <path d="M13.4454769,60.5848421 C13.5563121,60.5361203 13.6635429,60.4531128 13.7770813,60.4440902 C14.102378,60.4170226 14.4312791,60.4197293 14.7592791,60.411609 C14.6817846,60.6876992 14.6042901,60.9646917 14.5258945,61.2416842 C13.8951253,61.8010827 13.2391253,62.335218 12.6416967,62.9298045 C12.1902462,63.3800301 11.8144879,63.9069474 11.2522022,64.2741654 C11.3044659,62.5995789 12.662422,61.770406 13.4454769,60.5848421" id="Fill-23" fill="#787878"></path>
            <path d="M12.5715912,58.3336241 C13.4177231,58.4554286 13.6042505,58.8226466 12.9987121,59.484 C11.8263824,60.0307669 10.6549538,60.5766316 9.2186022,61.2470075 C9.94759121,59.5038496 11.4902725,59.1862556 12.5715912,58.3336241" id="Fill-25" fill="#787878"></path>
            <path d="M38.5631582,55.5678496 C38.5631582,57.274015 37.9188725,57.8577744 36.0572022,57.8415338 C34.6614,57.828 33.5972022,56.7985263 33.6332462,55.4965714 C33.6710923,54.1287519 34.7488066,53.2418346 36.3545648,53.2562707 C38.0891802,53.2725113 38.5631582,53.7687519 38.5631582,55.5678496" id="Fill-27" fill="#E0B0B0"></path>
            <path d="M13.717789,56.3061654 C12.460756,56.287218 11.0919868,54.9843609 11.1028,53.8159398 C11.1136132,52.761203 12.0976132,51.766015 13.1518989,51.7434586 C14.4134374,51.7172932 15.7164264,53.1627068 15.6596571,54.526015 C15.6082945,55.7521805 14.983833,56.3251128 13.717789,56.3061654" id="Fill-29" fill="#E0B0B0"></path>
            <path d="M38.4377253,47.7761504 C38.4088901,48.636 37.8213736,49.1990075 36.9860549,49.1647218 C35.9885385,49.1241203 35.1351978,48.233594 35.2162967,47.3187068 C35.2856813,46.5373534 35.9714176,45.9815639 36.8022308,46.0329925 C37.7411758,46.0916391 38.4674615,46.8657744 38.4377253,47.7761504" id="Fill-31" fill="#464036"></path>
            <path d="M14.5885209,45.8113083 C15.3941033,45.7625865 16.1041692,46.4519098 16.1942791,47.3686015 C16.2879934,48.3159699 15.7004769,49.0440902 14.8300154,49.0576241 C13.9811802,49.0702556 13.3828505,48.4125113 13.3486088,47.4263459 C13.3152681,46.5042406 13.8117736,45.8582256 14.5885209,45.8113083" id="Fill-33" fill="#464036"></path>
            <path d="M37.802811,64.333985 C37.3522615,63.9396992 36.900811,63.5454135 36.4511626,63.1511278 C36.0312505,62.823609 35.6095363,62.4960902 34.9904813,62.015188 C36.3898879,61.3285714 36.9431626,62.5033083 37.7730747,62.5466165 C38.5417121,63.6410526 39.3112505,64.7354887 40.0798879,65.8299248 C38.823756,65.855188 38.4534044,64.9213534 37.802811,64.333985" id="Fill-35" fill="#787878"></path>
            <path d="M40.4520418,61.0827068 C40.7746352,61.4147368 41.0972286,61.7467669 41.4180198,62.078797 C41.7189868,62.6039098 42.021756,63.1290226 42.5254703,64.002406 C40.9179099,63.4159398 40.1528769,62.3079699 39.1067011,61.6249624 C38.8165473,61.1945865 38.5236901,60.7642105 38.2326352,60.3347368 C38.2957121,60.2454135 38.3605912,60.1569925 38.4245692,60.0676692 C39.1003934,60.406015 39.7762176,60.7443609 40.4520418,61.0827068" id="Fill-37" fill="#726D6F"></path>
            <path d="M39.1606769,85.6638496 C39.5769846,85.0683609 40.0743912,84.3573835 40.5708967,83.646406 C40.7231824,83.762797 40.8754681,83.879188 41.0268527,83.9955789 C41.1701275,85.2082105 38.8371824,85.9155789 40.2032484,87.2879098 C39.5724791,87.8473083 38.9921714,88.361594 38.2514681,89.0184361 C38.3965451,87.7471579 38.5245011,86.5823459 37.0457978,85.5149774 C38.0334022,85.5844511 38.4830505,85.6160301 39.1606769,85.6638496" id="Fill-39" fill="#D7D4D5"></path>
        </g>
    </g>
</svg>