<?xml version="1.0" encoding="UTF-8"?>
<svg width="480px" height="360px" viewBox="0 0 480 360" version="1.1" xmlns="http://www.w3.org/2000/svg" xmlns:xlink="http://www.w3.org/1999/xlink">
    <!-- Generator: Sketch 51.1 (57501) - http://www.bohemiancoding.com/sketch -->
    <title>Yard</title>
    <desc>Created with Sketch.</desc>
    <defs></defs>
    <g id="Yard" stroke="none" stroke-width="1" fill="none" fill-rule="evenodd">
        <g id="Group" transform="translate(-3.000000, 0.000000)">
            <polygon id="Fill-1" fill="#BBE1E5" points="2.47265625 359.976 482.917969 359.976 482.917969 0 2.47265625 0"></polygon>
            <polygon id="Fill-3" fill="#4E7A5C" points="2.47265625 319.4516 482.917969 319.4516 482.917969 212.5928 2.47265625 212.5928"></polygon>
            <path d="M483.0456,121.976 L360,121.976 C361.876,115.0204 367.968,109.7204 375.2284,109.7204 C378.36,109.7204 381.256,110.6044 383.716,112.2724 C388.316,104.732 396.352,99.732 405.468,99.732 C408.4284,99.732 411.28,100.26 413.916,101.244 C418.56,90.46 428.84,83 440.764,83 C453.552,83 464.464,91.656 468.544,103.7204 C472.196,102.14 476.192,101.3364 480.36,101.3364 C481.264,101.3364 482.1616,101.376 483.0456,101.456 L483.0456,121.976" id="Fill-4" fill="#F5FAFA"></path>
            <path d="M98.1664,68.024 L2,68.024 L2,23.0776 C4.8872,22.3744 7.9084,22 11.0192,22 C27.2092,22 41.0168,32.2192 46.1836,46.4676 C50.8072,44.6044 55.8656,43.6528 61.1416,43.6528 C77.7968,43.6528 92.096,53.658 98.1664,68.024" id="Fill-5" fill="#F5FAFA"></path>
            <polygon id="Fill-6" fill="#CB845E" points="4.9032 202.3524 485.348512 202.3524 485.348512 188.5532 4.9032 188.5532"></polygon>
            <polygon id="Fill-7" fill="#CB845E" points="4.9032 252.3524 485.348512 252.3524 485.348512 238.5532 4.9032 238.5532"></polygon>
            <path d="M0,268.5928 L0,178.1928 C0,165.8216 10.8624,155.7928 23.2336,155.7928 C35.6048,155.7928 45.6336,165.8216 45.6336,178.1928 L45.6336,268.5928 L0,268.5928" id="Fill-8" fill="#F1BD80"></path>
            <path d="M52.5336,268.5928 L52.5336,178.1928 C52.5336,165.8216 63.2568,155.7928 75.628,155.7928 C87.9992,155.7928 98.028,165.8216 98.028,178.1928 L98.028,268.5928 L52.5336,268.5928" id="Fill-9" fill="#F1BD80"></path>
            <path d="M105.0668,268.5928 L105.0668,178.1928 C105.0668,165.8216 115.6512,155.7928 128.0224,155.7928 C140.3936,155.7928 150.4224,165.8216 150.4224,178.1928 L150.4224,268.5928 L105.0668,268.5928" id="Fill-10" fill="#F1BD80"></path>
            <path d="M157.6004,268.5928 L157.6004,178.1928 C157.6004,165.8216 168.0456,155.7928 180.4172,155.7928 C192.788,155.7928 202.8168,165.8216 202.8168,178.1928 L202.8168,268.5928 L157.6004,268.5928" id="Fill-11" fill="#F1BD80"></path>
            <path d="M315.2,268.5928 L315.2,178.1928 C315.2,165.8216 325.2292,155.7928 337.6,155.7928 C349.9716,155.7928 360,165.8216 360,178.1928 L360,268.5928 L315.2,268.5928" id="Fill-14" fill="#F1BD80"></path>
            <path d="M210.1336,268.5928 L210.1336,178.1928 C210.1336,165.8216 220.44,155.7928 232.8112,155.7928 C245.1824,155.7928 255.2112,165.8216 255.2112,178.1928 L255.2112,268.5928 L210.1336,268.5928" id="Fill-12" fill="#F1BD80"></path>
            <path d="M262.6668,268.5928 L262.6668,178.1928 C262.6668,165.8216 272.8344,155.7928 285.206,155.7928 C297.5768,155.7928 307.6056,165.8216 307.6056,178.1928 L307.6056,268.5928 L262.6668,268.5928" id="Fill-13" fill="#F1BD80"></path>
            <path d="M370,268.5928 L370,178.1928 C370,165.8216 380.8624,155.7928 393.2336,155.7928 C405.6048,155.7928 415.6336,165.8216 415.6336,178.1928 L415.6336,268.5928 L370,268.5928" id="Fill-8" fill="#F1BD80"></path>
            <path d="M422.5336,268.5928 L422.5336,178.1928 C422.5336,165.8216 433.2568,155.7928 445.628,155.7928 C457.9992,155.7928 468.028,165.8216 468.028,178.1928 L468.028,268.5928 L422.5336,268.5928" id="Fill-9" fill="#F1BD80"></path>
            <path d="M475.0668,268.5928 L475.0668,178.1928 C475.0668,165.8216 485.6512,155.7928 498.0224,155.7928 C510.3936,155.7928 520.4224,165.8216 520.4224,178.1928 L520.4224,268.5928 L475.0668,268.5928" id="Fill-10" fill="#F1BD80"></path>
            <g id="Group-17" transform="translate(2.000000, 266.600000)" fill="#8AB346">
                <polygon id="Fill-16" points="0 93.376 481 93.376 481 0.3928 0 0.3928"></polygon>
            </g>
            <g id="Group-45" transform="translate(83.000000, 276.800000)" fill="#708F3D">
                <path d="M329.33,19.5904 C329.33,19.32 329.455,19.0644 329.677,18.8368 C329.455,19.0644 329.33,19.32 329.33,19.5904 M329.6775,18.8356 C329.682,18.8312 329.6865,18.8272 329.6905,18.8228 C329.6865,18.8272 329.682,18.8312 329.6775,18.8356 M329.6945,18.8188 C329.695,18.8184 329.695,18.8184 329.6955,18.818 C329.695,18.8184 329.695,18.8184 329.6945,18.8188 M329.6985,18.8148 C329.699,18.8144 329.6995,18.814 329.7,18.8136 C329.6995,18.814 329.699,18.8144 329.6985,18.8148 M329.7095,18.8044 L329.7095,18.804 L329.7095,18.8044 M329.7125,18.8012 C329.713,18.8008 329.7135,18.8 329.714,18.7996 C329.7135,18.8 329.713,18.8008 329.7125,18.8012 M329.7275,18.7868 C329.728,18.7864 329.7285,18.786 329.7285,18.7856 C329.7285,18.786 329.728,18.7864 329.7275,18.7868 M329.7665,18.7508 C329.7675,18.7504 329.768,18.7496 329.7685,18.7492 C329.768,18.7496 329.7675,18.7504 329.7665,18.7508" id="Fill-18"></path>
                <path d="M304.6792,4.13 C303.1656,4.13 301.94,3.3612 301.94,2.412 C301.94,1.464 303.1656,0.6936 304.6792,0.6936 C306.1908,0.6936 307.4188,1.464 307.4188,2.412 C307.4188,3.3612 306.1908,4.13 304.6792,4.13" id="Fill-20"></path>
                <path d="M249.8984,4.1296 C249.8984,4.1296 249.8984,4.1296 249.898,4.1296 C248.3848,4.1296 247.1588,3.3608 247.1588,2.4116 C247.1588,1.4636 248.3844,0.6932 249.898,0.6932 C251.4096,0.6932 252.6376,1.4636 252.6376,2.4116 C252.6376,3.3604 251.4096,4.1296 249.8984,4.1296" id="Fill-21"></path>
                <path d="M277.2884,55.6652 C275.7748,55.6652 274.5488,54.8964 274.5488,53.9468 C274.5488,52.9992 275.7748,52.2288 277.288,52.2288 C277.288,52.2288 277.288,52.2288 277.2884,52.2288 C278.7996,52.2288 280.028,52.9992 280.028,53.9472 C280.0276,54.8964 278.7996,55.6652 277.2884,55.6652" id="Fill-22"></path>
                <path d="M332.0692,55.6656 C330.556,55.6656 329.33,54.8968 329.33,53.9476 C329.33,52.9996 330.556,52.2292 332.0692,52.2292 C333.5808,52.2292 334.8088,52.9996 334.8088,53.9476 C334.8088,54.8968 333.5808,55.6656 332.0692,55.6656" id="Fill-23"></path>
                <path d="M304.6788,72.844 C303.1652,72.844 301.9392,72.0748 301.9392,71.1256 C301.9392,70.178 303.1652,69.4076 304.6788,69.4076 C306.19,69.4076 307.418,70.178 307.418,71.1256 C307.418,72.0748 306.19,72.844 304.6788,72.844" id="Fill-24"></path>
                <path d="M249.8976,72.8436 C248.384,72.8436 247.158,72.0744 247.158,71.1252 C247.158,70.1776 248.384,69.4072 249.8976,69.4072 C251.4088,69.4072 252.6372,70.1776 252.6372,71.1252 C252.6372,72.0744 251.4088,72.8436 249.8976,72.8436" id="Fill-25"></path>
                <path d="M304.6788,38.4868 C303.1652,38.4868 301.9396,37.718 301.9396,36.7688 C301.9396,35.8208 303.1652,35.0508 304.6792,35.0508 C306.1904,35.0508 307.4184,35.8208 307.4184,36.7688 C307.4184,37.718 306.1904,38.4868 304.6788,38.4868" id="Fill-26"></path>
                <path d="M332.0696,21.3088 C330.556,21.3088 329.33,20.5396 329.33,19.5904 C329.33,19.32 329.43,19.0644 329.6076,18.8368 C329.6076,18.8364 329.608,18.836 329.608,18.8356 C329.6116,18.8312 329.6152,18.8272 329.6184,18.8228 C329.6196,18.8212 329.6208,18.82 329.6216,18.8188 C329.622,18.8184 329.622,18.8184 329.6224,18.818 C329.6232,18.8168 329.624,18.816 329.6248,18.8148 C329.6252,18.8144 329.6256,18.814 329.626,18.8136 C329.6284,18.8104 329.6308,18.8072 329.6336,18.8044 L329.6336,18.804 C329.6344,18.8032 329.6352,18.802 329.636,18.8012 C329.6364,18.8008 329.6368,18.8 329.6372,18.7996 C329.6408,18.7952 329.6444,18.7912 329.648,18.7868 C329.6484,18.7864 329.6488,18.786 329.6488,18.7856 C329.6588,18.774 329.6692,18.7624 329.6792,18.7508 C329.68,18.7504 329.6804,18.7496 329.6808,18.7492 C330.1504,18.226 331.044,17.8724 332.0696,17.8724 C333.4156,17.8724 334.5372,18.4836 334.7664,19.2868 C334.7944,19.3852 334.8092,19.4868 334.8092,19.5904 C334.8092,20.5396 333.5808,21.3088 332.0696,21.3088" id="Fill-27"></path>
                <path d="M195.1172,4.1292 C193.6036,4.1292 192.3776,3.3604 192.3776,2.4108 C192.3776,1.4632 193.6036,0.6928 195.1172,0.6928 C196.6284,0.6928 197.8568,1.4632 197.8568,2.4112 C197.8568,3.3604 196.6284,4.1292 195.1172,4.1292" id="Fill-28"></path>
                <path d="M140.336,4.1288 C138.8228,4.1288 137.5968,3.3596 137.5968,2.4104 C137.5968,1.4628 138.8228,0.6924 140.336,0.6924 C141.8476,0.6924 143.0756,1.4628 143.0756,2.4104 C143.0756,3.36 141.8476,4.1288 140.336,4.1288" id="Fill-29"></path>
                <path d="M167.726,55.6644 C166.2128,55.6644 164.9868,54.8952 164.9868,53.946 C164.9868,52.9984 166.2128,52.228 167.726,52.228 C169.2376,52.228 170.4656,52.9984 170.4656,53.946 C170.4656,54.8956 169.2376,55.6644 167.726,55.6644" id="Fill-30"></path>
                <path d="M222.5072,55.6648 C220.9936,55.6648 219.7676,54.896 219.7676,53.9464 C219.7676,52.9988 220.9936,52.2284 222.5072,52.2284 C222.5428,52.2284 222.578,52.2288 222.6132,52.2296 C224.0756,52.2648 225.2468,53.0208 225.2468,53.9464 C225.2468,54.896 224.0184,55.6648 222.5072,55.6648" id="Fill-31"></path>
                <path d="M195.1168,72.8428 C193.6032,72.8428 192.3772,72.074 192.3772,71.1248 C192.3772,70.1772 193.6032,69.4068 195.1164,69.4068 C195.1164,69.4068 195.1164,69.4068 195.1168,69.4068 C196.628,69.4068 197.856,70.1772 197.856,71.1248 C197.856,72.074 196.628,72.8428 195.1168,72.8428" id="Fill-32"></path>
                <path d="M140.3356,72.8424 C138.822,72.8424 137.596,72.0736 137.596,71.1244 C137.596,70.1764 138.822,69.4064 140.3356,69.4064 C141.8468,69.4064 143.0752,70.1764 143.0752,71.1244 C143.0752,72.0736 141.8468,72.8424 140.3356,72.8424" id="Fill-33"></path>
                <path d="M85.5552,4.1284 C84.0416,4.1284 82.8156,3.3592 82.8156,2.41 C82.8156,1.4624 84.0416,0.692 85.5552,0.692 C87.0664,0.692 88.2948,1.4624 88.2948,2.4104 C88.2948,3.3592 87.0664,4.1284 85.5552,4.1284" id="Fill-34"></path>
                <path d="M30.774,4.128 C29.2604,4.128 28.0344,3.3592 28.0344,2.4096 C28.0344,1.462 29.2604,0.6916 30.774,0.6916 C32.2852,0.6916 33.5136,1.462 33.5136,2.4096 C33.5136,3.3592 32.2852,4.128 30.774,4.128" id="Fill-35"></path>
                <path d="M58.164,55.6636 C56.6504,55.6636 55.4244,54.8948 55.4244,53.9452 C55.4244,52.9976 56.6504,52.2272 58.164,52.2272 C59.6752,52.2272 60.9036,52.9976 60.9036,53.9452 C60.9036,54.8948 59.6752,55.6636 58.164,55.6636" id="Fill-36"></path>
                <path d="M112.9452,55.664 C111.4316,55.664 110.2056,54.8948 110.2056,53.9456 C110.2056,52.998 111.4316,52.2276 112.9452,52.2276 C114.4564,52.2276 115.6848,52.998 115.6848,53.946 C115.6848,54.8948 114.4568,55.664 112.9452,55.664" id="Fill-37"></path>
                <path d="M85.5544,72.842 C84.0412,72.842 82.8152,72.0732 82.8152,71.124 C82.8152,70.176 84.0412,69.406 85.5544,69.406 C87.0656,69.406 88.294,70.176 88.294,71.124 C88.294,72.0732 87.0656,72.842 85.5544,72.842" id="Fill-38"></path>
                <path d="M30.7736,72.8416 C29.26,72.8416 28.034,72.0728 28.034,71.1236 C28.034,70.1756 29.26,69.4056 30.7736,69.4056 C32.2848,69.4056 33.5128,70.1756 33.5128,71.1236 C33.5128,72.0728 32.2848,72.8416 30.7736,72.8416" id="Fill-39"></path>
                <path d="M85.5548,38.4852 C84.0412,38.4852 82.8152,37.7164 82.8152,36.7672 C82.8152,35.8192 84.0412,35.0488 85.5548,35.0488 C87.066,35.0488 88.2944,35.8192 88.2944,36.7672 C88.2944,37.7164 87.066,38.4852 85.5548,38.4852" id="Fill-40"></path>
                <path d="M30.774,38.4848 C29.26,38.4848 28.0344,37.716 28.0344,36.7668 C28.0344,35.8188 29.26,35.0484 30.774,35.0484 C32.2852,35.0484 33.5132,35.8188 33.5132,36.7668 C33.5132,37.716 32.2852,38.4848 30.774,38.4848" id="Fill-41"></path>
                <path d="M3.3832,55.6628 C1.8696,55.6628 0.6436,54.894 0.6436,53.9448 C0.6436,52.9972 1.8692,52.2268 3.3828,52.2268 C3.3832,52.2268 3.3832,52.2268 3.3832,52.2268 C4.8944,52.2268 6.1228,52.9972 6.1228,53.9448 C6.1228,54.894 4.8944,55.6628 3.3832,55.6628" id="Fill-42"></path>
                <path d="M58.1644,21.3064 C56.6508,21.3064 55.4248,20.5376 55.4248,19.5884 C55.4248,19.57 55.4256,19.5512 55.4264,19.5332 C55.4728,18.6108 56.6804,17.8704 58.1644,17.8704 C59.5104,17.8704 60.632,18.4812 60.8612,19.2844 C60.8892,19.3832 60.904,19.4848 60.904,19.5884 C60.904,20.5376 59.6756,21.3064 58.1644,21.3064" id="Fill-43"></path>
                <path d="M3.3836,21.306 C1.87,21.306 0.644,20.5372 0.644,19.588 C0.644,18.64 1.87,17.87 3.3836,17.87 C4.8948,17.87 6.1228,18.6404 6.1228,19.588 C6.1228,20.5372 4.8948,21.306 3.3836,21.306" id="Fill-44"></path>
            </g>
            <polygon id="Fill-46" fill="#79A34C" points="2.47265625 273.7928 482.917969 273.7928 482.917969 266.9928 2.47265625 266.9928"></polygon>
            <path d="M264.5388,319.3452 C203.99,319.3452 154.9056,311.1892 154.9056,301.128 C154.9056,291.0672 203.99,282.9112 264.5388,282.9112 C325.088,282.9112 374.1724,291.0672 374.1724,301.128 C374.1724,311.1892 325.088,319.3452 264.5388,319.3452 M331.898,311.85 C330.3844,311.85 329.1584,312.6204 329.1584,313.5684 C329.1584,314.5176 330.3844,315.2864 331.898,315.2864 C333.4092,315.2864 334.6376,314.5176 334.6376,313.5684 C334.6376,312.6204 333.4092,311.85 331.898,311.85 M277.1172,311.85 C275.6032,311.85 274.3772,312.62 274.3772,313.568 C274.3772,314.5172 275.6032,315.286 277.1172,315.286 C278.6284,315.286 279.8564,314.5172 279.8564,313.568 C279.8564,312.62 278.628,311.85 277.1172,311.85 M222.336,311.8492 C220.8224,311.8492 219.5964,312.6196 219.5964,313.5676 C219.5964,314.5168 220.8224,315.2856 222.336,315.2856 C223.8472,315.2856 225.0752,314.5168 225.0752,313.5676 C225.0752,312.6196 223.8472,311.8492 222.336,311.8492 M356.5492,296.39 C356.5492,297.3392 357.7752,298.1084 359.2888,298.1084 C360.7996,298.1084 362.028,297.3392 362.028,296.39 C362.028,295.4424 360.8,294.672 359.2888,294.672 C357.7752,294.672 356.5492,295.4424 356.5492,296.39 M301.768,296.3896 C301.768,297.3388 302.994,298.108 304.5076,298.108 C306.0188,298.108 307.2472,297.3388 307.2472,296.3896 C307.2472,295.442 306.0188,294.6716 304.5076,294.6716 C302.994,294.6716 301.768,295.442 301.768,296.3896 M246.9872,296.3892 C246.9872,297.3384 248.2128,298.1072 249.7264,298.1072 C249.7268,298.1072 249.7268,298.1072 249.7268,298.1072 C251.238,298.1072 252.466,297.3384 252.466,296.3892 C252.466,295.4416 251.238,294.6712 249.7264,294.6712 C248.328,294.6712 247.1756,295.3284 247.008,296.176 C247.004,296.1952 247.0008,296.2148 246.998,296.2344 C246.998,296.2356 246.9976,296.2368 246.9976,296.238 C246.992,296.2784 246.9884,296.3196 246.9876,296.3608 C246.9872,296.3704 246.9872,296.3796 246.9872,296.3892 M192.206,296.3888 C192.206,297.338 193.4316,298.1068 194.9456,298.1068 C196.4568,298.1068 197.6848,297.338 197.6848,296.3888 C197.6848,296.3776 197.6848,296.3668 197.6844,296.3556 C197.656,295.4232 196.4392,294.6708 194.9456,294.6708 C193.432,294.6708 192.206,295.4408 192.206,296.3888" id="Fill-47" fill="#4C7443"></path>
            <path d="M331.898,315.2864 C330.3844,315.2864 329.1584,314.5176 329.1584,313.5684 C329.1584,312.6204 330.3844,311.85 331.898,311.85 C333.4092,311.85 334.6376,312.6204 334.6376,313.5684 C334.6376,314.5176 333.4092,315.2864 331.898,315.2864" id="Fill-48" fill="#486F37"></path>
            <path d="M359.2888,298.1084 C357.7752,298.1084 356.5492,297.3392 356.5492,296.39 C356.5492,295.4424 357.7752,294.672 359.2888,294.672 C360.8,294.672 362.028,295.4424 362.028,296.39 C362.028,297.3392 360.7996,298.1084 359.2888,298.1084" id="Fill-49" fill="#486F37"></path>
            <path d="M277.1172,315.286 C275.6032,315.286 274.3772,314.5172 274.3772,313.568 C274.3772,312.62 275.6032,311.85 277.1172,311.85 C278.628,311.85 279.8564,312.62 279.8564,313.568 C279.8564,314.5172 278.6284,315.286 277.1172,315.286" id="Fill-50" fill="#486F37"></path>
            <path d="M222.336,315.2856 C220.8224,315.2856 219.5964,314.5168 219.5964,313.5676 C219.5964,312.6196 220.8224,311.8492 222.336,311.8492 C223.8472,311.8492 225.0752,312.6196 225.0752,313.5676 C225.0752,314.5168 223.8472,315.2856 222.336,315.2856" id="Fill-51" fill="#486F37"></path>
            <path d="M249.7268,298.1072 C249.7268,298.1072 249.7268,298.1072 249.7264,298.1072 C248.2128,298.1072 246.9872,297.3384 246.9872,296.3892 C246.9872,296.3796 246.9872,296.3704 246.9876,296.3608 C246.9884,296.3196 246.992,296.2784 246.9976,296.238 C246.9976,296.2368 246.998,296.2356 246.998,296.2344 C247.0008,296.2148 247.004,296.1952 247.008,296.176 C247.1756,295.3284 248.328,294.6712 249.7264,294.6712 C251.238,294.6712 252.466,295.4416 252.466,296.3892 C252.466,297.3384 251.238,298.1072 249.7268,298.1072" id="Fill-52" fill="#486F37"></path>
            <path d="M304.5076,298.108 C302.994,298.108 301.768,297.3388 301.768,296.3896 C301.768,295.442 302.994,294.6716 304.5076,294.6716 C306.0188,294.6716 307.2472,295.442 307.2472,296.3896 C307.2472,297.3388 306.0188,298.108 304.5076,298.108" id="Fill-53" fill="#486F37"></path>
            <path d="M194.9456,298.1068 C193.4316,298.1068 192.206,297.338 192.206,296.3888 C192.206,295.4408 193.432,294.6708 194.9456,294.6708 C196.4392,294.6708 197.656,295.4232 197.6844,296.3556 C197.6848,296.3668 197.6848,296.3776 197.6848,296.3888 C197.6848,297.338 196.4568,298.1068 194.9456,298.1068" id="Fill-54" fill="#486F37"></path>
            <path d="M156.182,302.844 C153.5288,302.844 151.378,300.6932 151.378,298.04 L151.378,258.464 L160.986,258.464 L160.986,298.04 C160.986,300.6932 158.8348,302.844 156.182,302.844" id="Fill-55" fill="#3A3366"></path>
            <path d="M373.9628,302.844 C371.3096,302.844 369.1588,300.6932 369.1588,298.04 L369.1588,258.464 L378.7668,258.464 L378.7668,298.04 C378.7668,300.6932 376.616,302.844 373.9628,302.844" id="Fill-56" fill="#3A3366"></path>
            <path d="M264.5388,321.1448 C261.0932,321.1448 258.3,318.3516 258.3,314.906 L258.3,283.0036 C258.3,279.5584 261.0932,276.7652 264.5388,276.7652 C267.9844,276.7652 270.7776,279.5584 270.7776,283.0036 L270.7776,314.906 C270.7776,318.3516 267.9844,321.1448 264.5388,321.1448" id="Fill-57" fill="#3A3366"></path>
            <path d="M385.6776,263.3884 C385.6776,274.5252 331.3464,283.5528 264.3252,283.5528 C197.304,283.5528 142.9728,274.5252 142.9728,263.3884 C142.9728,261.0608 141.5388,254.1036 145.906,252.0232 C162.432,244.1508 211.3124,243.2244 264.3252,243.2244 C317.9616,243.2244 367.9288,244.4944 383.9668,252.512 C387.9688,254.5128 385.6776,261.1644 385.6776,263.3884" id="Fill-122" fill="#43387A"></path>
            <path d="M385.8912,256.056 C385.8912,267.1924 331.56,276.2204 264.5388,276.2204 C197.518,276.2204 143.1868,267.1924 143.1868,256.056 C143.1868,244.9196 197.518,235.892 264.5388,235.892 C331.56,235.892 385.8912,244.9196 385.8912,256.056" id="Fill-123" fill="#FFFFFE"></path>
            <path d="M265.5388,268.888 C212.6924,268.888 174.0576,263.254 158.294,257.9148 C156.508,257.31 156.508,254.8024 158.294,254.1976 C174.0576,248.8584 212.6924,243.2244 265.5388,243.2244 C318.3852,243.2244 357.0204,248.8584 372.7836,254.1976 C374.57,254.8024 374.57,257.31 372.7836,257.9148 C357.0204,263.254 318.3852,268.888 265.5388,268.888" id="Fill-124" fill="#DB6261"></path>
            <path d="M265.5388,264.9772 C225.0636,264.9772 195.4732,261.2748 183.3996,257.7664 C182.0316,257.3688 182.0316,255.7212 183.3996,255.3236 C195.4732,251.8148 225.0636,248.1128 265.5388,248.1128 C306.014,248.1128 335.6048,251.8148 347.6784,255.3236 C349.0464,255.7212 349.0464,257.3688 347.6784,257.7664 C335.6048,261.2748 306.014,264.9772 265.5388,264.9772" id="Fill-125" fill="#FFFFFE"></path>
            <path d="M265.5388,260.2072 C245.838,260.2072 231.4348,258.4228 225.5584,256.7312 C224.892,256.5396 224.892,255.7452 225.5584,255.5536 C231.4348,253.8624 245.838,252.0776 265.5388,252.0776 C285.24,252.0776 299.6432,253.8624 305.5196,255.5536 C306.1856,255.7452 306.1856,256.5396 305.5196,256.7312 C299.6432,258.4228 285.24,260.2072 265.5388,260.2072" id="Fill-126" fill="#DB6261"></path>
        </g>
    </g>
</svg>