<?xml version="1.0" encoding="UTF-8"?>
<svg width="120px" height="120px" viewBox="0 0 120 120" version="1.1" xmlns="http://www.w3.org/2000/svg" xmlns:xlink="http://www.w3.org/1999/xlink">
    <!-- Generator: Sketch 51.1 (57501) - http://www.bohemiancoding.com/sketch -->
    <title>Cake2</title>
    <desc>Created with Sketch.</desc>
    <defs>
        <polygon id="path-1" points="0 0.306 119.113 0.306 119.113 48.3326667 0 48.3326667"></polygon>
    </defs>
    <g id="Cake2" stroke="none" stroke-width="1" fill="none" fill-rule="evenodd">
        <g id="Page-1" transform="translate(0.000000, 5.000000)">
            <g id="Group-3" transform="translate(0.000000, 61.493000)">
                <mask id="mask-2" fill="white">
                    <use xlink:href="#path-1"></use>
                </mask>
                <g id="Clip-2"></g>
                <path d="M119.113,24.3176667 C119.113,37.5826667 92.4513333,48.3326667 59.558,48.3326667 C26.6646667,48.3326667 -0.000333333333,37.5826667 -0.000333333333,24.3176667 C-0.000333333333,11.056 26.6646667,0.306 59.558,0.306 C92.4513333,0.306 119.113,11.056 119.113,24.3176667" id="Fill-1" fill="#E2E2E2" mask="url(#mask-2)"></path>
            </g>
            <path d="M103.068167,78.2115 C103.068167,87.8981667 83.5881667,95.7548333 59.5581667,95.7548333 C35.5265,95.7548333 16.0448333,87.8981667 16.0448333,78.2115 C16.0448333,68.5231667 35.5265,60.6698333 59.5581667,60.6698333 C83.5881667,60.6698333 103.068167,68.5231667 103.068167,78.2115" id="Fill-4" fill="#E49A61"></path>
            <path d="M103.068167,74.4891667 C103.068167,84.1758333 83.5881667,92.0325 59.5581667,92.0325 C35.5265,92.0325 16.0448333,84.1758333 16.0448333,74.4891667 C16.0448333,64.8008333 35.5265,56.9475 59.5581667,56.9475 C83.5881667,56.9475 103.068167,64.8008333 103.068167,74.4891667" id="Fill-6" fill="#F1BB6B"></path>
            <path d="M103.068167,67.96 C103.068167,77.6483333 83.5881667,85.5 59.5581667,85.5 C35.5265,85.5 16.0448333,77.6483333 16.0448333,67.96 C16.0448333,58.2716667 35.5265,50.415 59.5581667,50.415 C83.5881667,50.415 103.068167,58.2716667 103.068167,67.96" id="Fill-8" fill="#E49A61"></path>
            <path d="M103.068167,64.2376667 C103.068167,73.926 83.5881667,81.7776667 59.5581667,81.7776667 C35.5265,81.7776667 16.0448333,73.926 16.0448333,64.2376667 C16.0448333,54.5493333 35.5265,46.6926667 59.5581667,46.6926667 C83.5881667,46.6926667 103.068167,54.5493333 103.068167,64.2376667" id="Fill-10" fill="#F1BB6B"></path>
            <path d="M103.068167,57.7036667 C103.068167,67.392 83.5881667,75.2486667 59.5581667,75.2486667 C35.5265,75.2486667 16.0448333,67.392 16.0448333,57.7036667 C16.0448333,48.0153333 35.5265,40.1603333 59.5581667,40.1603333 C83.5881667,40.1603333 103.068167,48.0153333 103.068167,57.7036667" id="Fill-12" fill="#E49A61"></path>
            <path d="M103.068167,53.9813333 C103.068167,63.6696667 83.5881667,71.5263333 59.5581667,71.5263333 C35.5265,71.5263333 16.0448333,63.6696667 16.0448333,53.9813333 C16.0448333,44.293 35.5265,36.438 59.5581667,36.438 C83.5881667,36.438 103.068167,44.293 103.068167,53.9813333" id="Fill-14" fill="#F1BB6B"></path>
            <path d="M103.068167,47.453 C103.068167,57.1413333 83.5881667,64.993 59.5581667,64.993 C35.5265,64.993 16.0448333,57.1413333 16.0448333,47.453 C16.0448333,37.7613333 35.5265,29.9063333 59.5581667,29.9063333 C83.5881667,29.9063333 103.068167,37.7613333 103.068167,47.453" id="Fill-16" fill="#E49A61"></path>
            <path d="M103.068167,43.7306667 C103.068167,53.419 83.5881667,61.2706667 59.5581667,61.2706667 C35.5265,61.2706667 16.0448333,53.419 16.0448333,43.7306667 C16.0448333,34.039 35.5265,26.184 59.5581667,26.184 C83.5881667,26.184 103.068167,34.039 103.068167,43.7306667" id="Fill-18" fill="#F1BB6B"></path>
            <path d="M103.068167,37.1958333 C103.068167,46.8858333 83.5881667,54.7425 59.5581667,54.7425 C35.5265,54.7425 16.0448333,46.8858333 16.0448333,37.1958333 C16.0448333,27.5075 35.5265,19.6525 59.5581667,19.6525 C83.5881667,19.6525 103.068167,27.5075 103.068167,37.1958333" id="Fill-20" fill="#E49A61"></path>
            <path d="M103.068167,33.4735 C103.068167,43.1635 83.5881667,51.0201667 59.5581667,51.0201667 C35.5265,51.0201667 16.0448333,43.1635 16.0448333,33.4735 C16.0448333,23.7851667 35.5265,15.9301667 59.5581667,15.9301667 C83.5881667,15.9301667 103.068167,23.7851667 103.068167,33.4735" id="Fill-22" fill="#F1BB6B"></path>
            <path d="M103.068167,26.6106667 C103.068167,36.299 83.5881667,44.1523333 59.5581667,44.1523333 C35.5265,44.1523333 16.0448333,36.299 16.0448333,26.6106667 C16.0448333,16.9223333 35.5265,9.06566667 59.5581667,9.06566667 C83.5881667,9.06566667 103.068167,16.9223333 103.068167,26.6106667" id="Fill-24" fill="#E49A61"></path>
            <path d="M92.3618333,39.1978333 L92.3618333,62.8795 C92.3618333,66.6361667 89.5451667,70.0045 85.7951667,70.2045 C81.7918333,70.4128333 78.4801667,67.2278333 78.4801667,63.2728333 L78.4801667,57.6945 C78.4801667,54.2295 75.8885,51.1261667 72.4285,50.9428333 C68.7368333,50.7545 65.6868333,53.6861667 65.6868333,57.3311667 L65.6868333,66.6411667 C65.6868333,70.9645 62.5268333,74.8228333 58.2235,75.2345 C53.2851667,75.7045 49.1301667,71.8361667 49.1301667,66.9961667 L49.1301667,47.4828333 C49.1301667,45.0145 47.3585,42.7711667 44.9085,42.5295 C42.0901667,42.2478333 39.7118333,44.4528333 39.7118333,47.2111667 L39.7118333,53.5895 C39.7118333,57.1995 37.0085,60.4378333 33.4018333,60.6261667 C29.5551667,60.8295 26.3735,57.7678333 26.3735,53.9661667 L26.3735,38.9578333 C26.3735,36.4228333 25.0851667,34.0411667 22.9368333,32.6928333 C18.5768333,29.9611667 16.0451667,26.7095 16.0451667,23.2211667 C16.0451667,13.5311667 35.5251667,5.67783333 59.5568333,5.67783333 C83.5885,5.67783333 103.0685,13.5311667 103.0685,23.2211667 C103.0685,26.7978333 100.4185,30.1195 95.8685,32.8895 C93.6768333,34.2245 92.3618333,36.6328333 92.3618333,39.1978333" id="Fill-26" fill="#FDDC85"></path>
            <path d="M68.781,11.159 C68.191,16.7006667 63.2193333,20.7156667 57.6793333,20.1256667 C52.1376667,19.534 48.1243333,14.5656667 48.7126667,9.024 C49.3043333,3.48233333 54.2726667,-0.532666667 59.8143333,0.0573333333 C65.356,0.649 69.371,5.619 68.781,11.159" id="Fill-28" fill="#DB5743"></path>
            <path d="M62.6726667,22.086 C62.0826667,27.626 57.1126667,31.641 51.571,31.0493333 C46.0293333,30.461 42.0143333,25.491 42.606,19.9476667 C43.1943333,14.4093333 48.166,10.396 53.706,10.9843333 C59.2476667,11.5726667 63.261,16.546 62.6726667,22.086" id="Fill-30" fill="#F87670"></path>
            <path d="M78.3953333,20.6683333 C77.8053333,26.2083333 72.8336667,30.2233333 67.292,29.6316667 C61.752,29.0433333 57.737,24.0733333 58.327,18.53 C58.9153333,12.9916667 63.887,8.97833333 69.4286667,9.56666667 C74.9703333,10.155 78.9853333,15.1283333 78.3953333,20.6683333" id="Fill-32" fill="#FFBD66"></path>
        </g>
    </g>
</svg>