<?xml version="1.0" encoding="UTF-8"?>
<svg width="120px" height="120px" viewBox="0 0 120 120" version="1.1" xmlns="http://www.w3.org/2000/svg" xmlns:xlink="http://www.w3.org/1999/xlink">
    <!-- Generator: Sketch 51.1 (57501) - http://www.bohemiancoding.com/sketch -->
    <title>Motorcycle33</title>
    <desc>Created with Sketch.</desc>
    <defs></defs>
    <g id="Motorcycle33" stroke="none" stroke-width="1" fill="none" fill-rule="evenodd">
        <g id="Group" transform="translate(60.500000, 60.000000) scale(-1, 1) translate(-60.500000, -60.000000) translate(0.000000, 38.000000)">
            <path d="M56.4919,41.5597 L56.5049,41.5597 L56.4919,41.5597 Z M56.3749,41.5597 L56.3969,41.5597 L56.3749,41.5597 Z M56.2009,41.5577 C56.2129,41.5587 56.2229,41.5587 56.2339,41.5587 C56.2229,41.5587 56.2129,41.5587 56.2009,41.5577 Z M55.9859,41.5567 L56.0269,41.5567 L55.9859,41.5567 Z M55.7599,41.5547 C55.7789,41.5547 55.7969,41.5547 55.8149,41.5557 C55.7969,41.5547 55.7789,41.5547 55.7599,41.5547 Z M55.4559,41.5517 C55.4829,41.5517 55.5099,41.5527 55.5359,41.5527 C55.5099,41.5527 55.4829,41.5517 55.4559,41.5517 Z M55.1269,41.5477 C55.1549,41.5487 55.1829,41.5487 55.2099,41.5487 C55.1829,41.5487 55.1549,41.5487 55.1269,41.5477 Z M54.8079,41.5437 C54.8379,41.5447 54.8659,41.5447 54.8949,41.5447 C54.8659,41.5447 54.8379,41.5447 54.8079,41.5437 Z M54.3859,41.5387 C54.4279,41.5387 54.4699,41.5387 54.5109,41.5397 C54.4699,41.5387 54.4279,41.5387 54.3859,41.5387 Z M53.9559,41.5317 C53.9919,41.5327 54.0289,41.5327 54.0649,41.5337 C54.0289,41.5327 53.9919,41.5327 53.9559,41.5317 Z M53.5339,41.5247 C53.5919,41.5257 53.6479,41.5267 53.7049,41.5277 C53.6479,41.5267 53.5919,41.5257 53.5339,41.5247 Z M53.0249,41.5147 C53.0819,41.5157 53.1379,41.5167 53.1939,41.5177 C53.1379,41.5167 53.0819,41.5157 53.0249,41.5147 Z M52.5209,41.5037 C52.5819,41.5057 52.6409,41.5067 52.7009,41.5077 C52.6409,41.5067 52.5819,41.5057 52.5209,41.5037 Z M52.0019,41.4927 C52.0659,41.4947 52.1299,41.4957 52.1919,41.4977 C52.1299,41.4957 52.0659,41.4947 52.0019,41.4927 Z M51.3959,41.4777 C51.4639,41.4797 51.5309,41.4817 51.5969,41.4827 C51.5309,41.4817 51.4639,41.4797 51.3959,41.4777 Z M50.7689,41.4607 C50.8809,41.4647 50.9899,41.4667 51.0989,41.4697 C50.9899,41.4667 50.8809,41.4637 50.7689,41.4607 Z M50.2229,41.4467 C50.3069,41.4487 50.3889,41.4517 50.4709,41.4537 C50.3889,41.4517 50.3069,41.4487 50.2229,41.4467 Z M49.5459,41.4257 C49.6229,41.4277 49.7009,41.4307 49.7769,41.4327 C49.7009,41.4307 49.6229,41.4277 49.5459,41.4257 Z M48.9279,41.4057 C49.0219,41.4097 49.1159,41.4127 49.2099,41.4147 C49.1159,41.4127 49.0219,41.4097 48.9279,41.4057 Z M48.2419,41.3817 C48.3319,41.3857 48.4209,41.3887 48.5099,41.3917 C48.4209,41.3887 48.3319,41.3857 48.2419,41.3817 Z M47.4989,41.3557 C47.5979,41.3587 47.6979,41.3627 47.7979,41.3667 C47.6979,41.3627 47.5979,41.3587 47.4989,41.3557 Z M46.8839,41.3307 C46.9719,41.3347 47.0599,41.3377 47.1479,41.3417 C47.0599,41.3377 46.9719,41.3347 46.8839,41.3307 Z M46.0909,41.2987 C46.1819,41.3027 46.2739,41.3067 46.3649,41.3097 C46.2739,41.3067 46.1819,41.3027 46.0909,41.2987 Z M45.2989,41.2637 C45.4219,41.2697 45.5459,41.2747 45.6679,41.2807 C45.5459,41.2747 45.4229,41.2697 45.2989,41.2637 Z M44.6309,41.2327 C44.7269,41.2377 44.8239,41.2427 44.9209,41.2467 C44.8239,41.2427 44.7269,41.2377 44.6309,41.2327 Z M43.7989,41.1917 C43.8939,41.1967 43.9889,41.2017 44.0839,41.2057 C43.9889,41.2017 43.8939,41.1967 43.7989,41.1917 Z M42.9889,41.1497 C43.1139,41.1567 43.2379,41.1637 43.3619,41.1697 C43.2379,41.1637 43.1139,41.1567 42.9889,41.1497 Z M42.2669,41.1107 C42.3629,41.1157 42.4579,41.1217 42.5539,41.1257 C42.4579,41.1217 42.3629,41.1157 42.2669,41.1107 Z M41.3909,41.0597 C41.4919,41.0657 41.5929,41.0717 41.6919,41.0777 C41.5929,41.0717 41.4919,41.0657 41.3909,41.0597 Z M40.5799,41.0097 C40.7089,41.0177 40.8369,41.0257 40.9649,41.0337 C40.8369,41.0257 40.7089,41.0177 40.5799,41.0097 Z M39.8099,40.9597 C39.9069,40.9667 40.0039,40.9727 40.0989,40.9787 C40.0039,40.9727 39.9069,40.9667 39.8099,40.9597 Z M38.9219,40.8997 C39.0159,40.9067 39.1109,40.9137 39.2059,40.9187 C39.1109,40.9137 39.0159,40.9067 38.9219,40.8997 Z M38.1369,40.8427 C38.2489,40.8517 38.3609,40.8597 38.4729,40.8677 C38.3609,40.8597 38.2489,40.8517 38.1369,40.8427 Z M37.2999,40.7797 C37.3949,40.7877 37.4909,40.7947 37.5869,40.8017 C37.4909,40.7947 37.3949,40.7877 37.2999,40.7797 Z M36.4179,40.7087 C36.5049,40.7167 36.5909,40.7237 36.6779,40.7307 C36.5909,40.7237 36.5049,40.7167 36.4179,40.7087 Z M35.6799,40.6477 C35.7609,40.6547 35.8409,40.6617 35.9209,40.6677 C35.8409,40.6617 35.7609,40.6547 35.6799,40.6477 Z M34.7709,40.5677 C34.8609,40.5757 34.9509,40.5837 35.0409,40.5917 C34.9509,40.5837 34.8609,40.5757 34.7709,40.5677 Z M17.2309,37.2337 C17.1879,37.2147 17.1439,37.1957 17.1019,37.1757 C17.1439,37.1957 17.1879,37.2147 17.2309,37.2337 Z M17.6809,37.4247 C17.6329,37.4047 17.5839,37.3847 17.5349,37.3647 C17.5839,37.3847 17.6329,37.4047 17.6809,37.4247 Z M18.1409,37.6047 C18.0999,37.5887 18.0609,37.5737 18.0209,37.5587 C18.0609,37.5737 18.0999,37.5887 18.1409,37.6047 Z M18.7229,37.8117 C18.6889,37.7997 18.6529,37.7887 18.6179,37.7757 C18.6529,37.7887 18.6889,37.7997 18.7229,37.8117 Z M19.2969,37.9977 C19.2379,37.9807 19.1799,37.9617 19.1239,37.9437 C19.1799,37.9617 19.2379,37.9807 19.2969,37.9977 Z M19.8399,38.1637 C19.7799,38.1457 19.7209,38.1277 19.6629,38.1107 C19.7209,38.1277 19.7799,38.1457 19.8399,38.1637 Z M20.3889,38.3197 C20.3579,38.3107 20.3279,38.3017 20.2969,38.2927 C20.3279,38.3017 20.3579,38.3107 20.3889,38.3197 Z M10.3969,32.9527 C10.5459,33.0727 10.6929,33.1927 10.8479,33.3147 C10.6929,33.1927 10.5459,33.0727 10.3969,32.9527 Z M9.5929,32.2797 C9.7779,32.4407 9.9679,32.6017 10.1649,32.7647 C9.9679,32.6017 9.7779,32.4407 9.5929,32.2797 Z M8.9289,31.6927 C9.1229,31.8687 9.3209,32.0447 9.5259,32.2227 C9.3209,32.0447 9.1229,31.8687 8.9289,31.6927 Z M8.9289,31.6917 C8.1229,30.9597 7.4169,30.2587 6.7629,29.6057 C7.4169,30.2587 8.1229,30.9597 8.9289,31.6917 Z M4.3969,26.1667 C4.2919,26.1887 4.1859,26.2087 4.0819,26.2307 C4.1859,26.2087 4.2919,26.1887 4.3969,26.1667 Z M5.4229,25.9707 C5.2979,25.9927 5.1739,26.0147 5.0499,26.0387 C5.1739,26.0147 5.2979,25.9927 5.4229,25.9707 Z M6.4159,25.8037 C6.2859,25.8247 6.1569,25.8447 6.0269,25.8667 C6.1569,25.8447 6.2859,25.8247 6.4159,25.8037 Z M3.6459,24.7837 C3.3629,24.8437 3.0799,24.9057 2.7979,24.9717 C3.0799,24.9057 3.3619,24.8427 3.6459,24.7837 Z M35.7709,6.8967 L35.5539,6.0367 L35.8849,7.3437 L35.7709,6.8967 Z M52.7869,2.6987 C52.7829,2.6797 52.7769,2.6627 52.7719,2.6447 C52.7769,2.6627 52.7819,2.6797 52.7869,2.6987 Z M52.7989,2.8947 C52.8029,2.8477 52.7999,2.7997 52.7949,2.7527 C52.8009,2.7997 52.8029,2.8477 52.7989,2.8947 Z M52.6789,3.2507 C52.6629,3.2797 52.6459,3.3077 52.6259,3.3357 C52.6449,3.3077 52.6629,3.2797 52.6789,3.2507 Z M52.7989,2.8957 C52.7909,2.9997 52.7589,3.1067 52.7019,3.2117 C52.7579,3.1067 52.7909,2.9997 52.7989,2.8957 Z M52.4849,3.5007 C52.5009,3.4847 52.5179,3.4687 52.5329,3.4527 C52.5179,3.4687 52.5009,3.4847 52.4849,3.5007 Z M52.3379,3.6377 C52.3539,3.6237 52.3709,3.6097 52.3879,3.5947 C52.3709,3.6097 52.3539,3.6237 52.3379,3.6377 Z M53.1129,14.3277 C53.0419,14.3297 52.9719,14.3217 52.9039,14.3037 C52.9719,14.3217 53.0419,14.3297 53.1129,14.3277 Z M62.8329,15.1207 C59.7339,13.9997 57.2669,13.1197 53.5949,14.2127 C57.2669,13.1197 59.7339,13.9997 62.8329,15.1207 Z M75.7299,17.3027 C75.6459,17.3077 75.5619,17.3117 75.4779,17.3157 C75.5619,17.3117 75.6459,17.3077 75.7299,17.3027 Z M76.7339,17.2347 C76.7269,17.2347 76.7209,17.2357 76.7129,17.2357 C76.7209,17.2357 76.7269,17.2347 76.7339,17.2347 Z M78.0129,17.0997 C77.9269,17.1107 77.8399,17.1207 77.7539,17.1297 C77.8399,17.1207 77.9269,17.1107 78.0129,17.0997 Z M97.2209,11.5067 C97.1549,11.5227 97.0909,11.5427 97.0259,11.5707 C97.0909,11.5427 97.1549,11.5237 97.2209,11.5067 Z M97.8849,11.5227 C97.7359,11.4787 97.5809,11.4617 97.4269,11.4737 C97.3619,11.4797 97.2989,11.4897 97.2349,11.5037 C97.4529,11.4527 97.6749,11.4587 97.8849,11.5227 Z M97.8979,11.5277 C97.9609,11.5477 98.0209,11.5737 98.0809,11.6027 C98.0209,11.5737 97.9609,11.5467 97.8979,11.5277 Z M98.1249,11.6257 C98.1879,11.6607 98.2509,11.6997 98.3089,11.7467 C98.2509,11.6997 98.1879,11.6607 98.1249,11.6257 Z M100.0899,21.3197 C99.9259,21.2057 99.7629,21.0897 99.6009,20.9707 C99.7629,21.0897 99.9269,21.2057 100.0899,21.3197 Z M100.5959,21.6567 C100.4809,21.5817 100.3659,21.5047 100.2519,21.4277 C100.3659,21.5047 100.4809,21.5817 100.5959,21.6567 Z M101.1069,21.9757 C101.0159,21.9197 100.9259,21.8647 100.8349,21.8067 C100.9259,21.8647 101.0159,21.9197 101.1069,21.9757 Z M101.6139,22.2737 C101.5319,22.2267 101.4509,22.1807 101.3699,22.1327 C101.4509,22.1807 101.5319,22.2267 101.6139,22.2737 Z M102.8609,22.9337 C102.8119,22.9107 102.7629,22.8847 102.7149,22.8607 C102.7629,22.8847 102.8119,22.9107 102.8609,22.9337 Z M103.3609,23.1697 C103.3159,23.1497 103.2719,23.1287 103.2269,23.1087 C103.2719,23.1287 103.3159,23.1497 103.3609,23.1697 Z M103.7899,23.3627 C103.7779,23.3577 103.7659,23.3527 103.7549,23.3467 C103.7659,23.3527 103.7779,23.3577 103.7899,23.3627 Z M113.5399,25.5977 C113.5149,25.5957 113.4909,25.5947 113.4669,25.5927 C113.4909,25.5947 113.5149,25.5957 113.5399,25.5977 Z M114.1969,25.6327 C114.1429,25.6307 114.0899,25.6277 114.0359,25.6257 C114.0899,25.6277 114.1429,25.6307 114.1969,25.6327 Z M114.7719,25.6547 C114.7139,25.6537 114.6549,25.6517 114.5959,25.6497 C114.6549,25.6517 114.7139,25.6537 114.7719,25.6547 Z M115.3119,25.6667 C115.2609,25.6657 115.2079,25.6647 115.1559,25.6637 C115.2079,25.6647 115.2609,25.6657 115.3119,25.6667 Z M99.4329,20.8447 C99.3189,20.7587 99.2059,20.6727 99.0929,20.5837 C99.2059,20.6727 99.3189,20.7587 99.4329,20.8447 Z M111.4989,25.4067 C111.5239,25.4097 111.5499,25.4127 111.5759,25.4147 C111.5499,25.4127 111.5239,25.4097 111.4989,25.4067 Z M110.8529,25.3197 C110.8619,25.3207 110.8709,25.3217 110.8809,25.3237 C110.8709,25.3217 110.8619,25.3207 110.8529,25.3197 Z M108.0609,24.7837 C108.0619,24.7837 108.0629,24.7837 108.0639,24.7847 C108.0629,24.7837 108.0619,24.7837 108.0609,24.7837 Z M105.1789,23.9157 C105.1779,23.9157 105.1769,23.9157 105.1759,23.9147 C105.1769,23.9157 105.1779,23.9157 105.1789,23.9167 L105.1789,23.9157 Z M112.1619,25.4817 C112.1799,25.4837 112.1999,25.4867 112.2189,25.4887 C112.1999,25.4867 112.1799,25.4837 112.1619,25.4817 Z M26.1209,39.5147 C26.0449,39.5017 25.9679,39.4897 25.8909,39.4777 C25.9679,39.4897 26.0449,39.5017 26.1209,39.5147 Z M26.8729,39.6327 C26.7789,39.6187 26.6839,39.6037 26.5909,39.5887 C26.6839,39.6037 26.7789,39.6187 26.8729,39.6327 Z M27.5939,39.7407 C27.4989,39.7267 27.4049,39.7117 27.3109,39.6987 C27.4049,39.7117 27.4989,39.7267 27.5939,39.7407 Z M28.3879,39.8527 C28.3029,39.8407 28.2179,39.8287 28.1319,39.8167 C28.2179,39.8287 28.3029,39.8407 28.3879,39.8527 Z M29.3029,39.9737 C29.2029,39.9607 29.1019,39.9487 29.0029,39.9347 C29.1019,39.9487 29.2029,39.9607 29.3029,39.9737 Z M30.0599,40.0697 C29.9539,40.0557 29.8479,40.0427 29.7419,40.0297 C29.8479,40.0427 29.9539,40.0557 30.0599,40.0697 Z M30.8099,40.1597 C30.7079,40.1467 30.6049,40.1347 30.5019,40.1227 C30.6049,40.1347 30.7079,40.1467 30.8099,40.1597 Z M31.7939,40.2697 C31.6979,40.2597 31.6019,40.2487 31.5069,40.2387 C31.6009,40.2487 31.6979,40.2597 31.7939,40.2697 Z M32.5969,40.3557 L32.2579,40.3207 L32.5969,40.3557 Z M33.3629,40.4337 C33.2489,40.4217 33.1349,40.4117 33.0199,40.3997 C33.1349,40.4117 33.2489,40.4217 33.3629,40.4337 Z M34.1249,40.5077 C34.0189,40.4977 33.9139,40.4877 33.8089,40.4767 C33.9139,40.4877 34.0189,40.4977 34.1249,40.5077 Z M21.1319,38.5127 C21.0729,38.4977 21.0129,38.4837 20.9549,38.4687 C21.0129,38.4837 21.0729,38.4977 21.1319,38.5127 Z M21.7629,38.6667 C21.6899,38.6497 21.6189,38.6327 21.5479,38.6157 C21.6189,38.6327 21.6899,38.6497 21.7629,38.6667 Z M22.3809,38.8077 C22.3139,38.7927 22.2489,38.7787 22.1829,38.7637 C22.2489,38.7787 22.3139,38.7927 22.3809,38.8077 Z M23.0979,38.9617 C23.0639,38.9557 23.0299,38.9487 22.9959,38.9407 C23.0299,38.9487 23.0649,38.9557 23.0979,38.9617 Z M23.8709,39.1167 C23.7929,39.1017 23.7149,39.0857 23.6379,39.0717 C23.7149,39.0857 23.7929,39.1017 23.8709,39.1167 Z M24.5529,39.2457 C24.4689,39.2297 24.3869,39.2137 24.3039,39.1987 C24.3869,39.2137 24.4689,39.2297 24.5529,39.2457 Z M25.2269,39.3657 C25.1609,39.3537 25.0959,39.3417 25.0289,39.3307 C25.0959,39.3417 25.1609,39.3537 25.2269,39.3657 Z M8.0419,25.5817 C8.1549,25.5687 8.2679,25.5537 8.3829,25.5417 C8.2679,25.5537 8.1549,25.5687 8.0419,25.5817 Z M7.0159,25.7147 C7.1439,25.6977 7.2729,25.6787 7.4009,25.6617 C7.2729,25.6787 7.1439,25.6977 7.0159,25.7147 Z M10.7269,25.3467 C10.5889,25.3547 10.4509,25.3617 10.3119,25.3717 C10.4509,25.3617 10.5889,25.3547 10.7269,25.3467 Z M11.7409,25.2987 C11.5879,25.3047 11.4339,25.3097 11.2819,25.3177 C11.4339,25.3097 11.5879,25.3047 11.7409,25.2987 Z M12.7269,25.2747 C12.5679,25.2767 12.4089,25.2797 12.2489,25.2837 C12.4089,25.2797 12.5679,25.2767 12.7269,25.2747 Z M9.5889,25.4267 C9.5059,25.4337 9.4229,25.4387 9.3399,25.4467 C9.4229,25.4387 9.5059,25.4337 9.5889,25.4267 Z M4.3999,24.6287 L4.3989,24.6287 L4.3999,24.6287 Z M5.5519,24.4187 C5.5479,24.4197 5.5449,24.4197 5.5409,24.4207 C5.5449,24.4197 5.5479,24.4197 5.5519,24.4187 Z M6.7139,24.2387 C6.7019,24.2397 6.6899,24.2417 6.6789,24.2437 C6.6899,24.2417 6.7019,24.2397 6.7139,24.2387 Z M7.8709,24.0877 C7.8559,24.0897 7.8419,24.0907 7.8269,24.0927 C7.8419,24.0907 7.8559,24.0897 7.8709,24.0877 Z M33.2589,29.2197 C33.4689,29.3717 33.6749,29.5277 33.8749,29.6857 C33.6749,29.5277 33.4689,29.3717 33.2589,29.2197 Z M91.3589,13.7557 C91.4109,13.7377 91.4619,13.7197 91.5129,13.7017 C91.4619,13.7197 91.4109,13.7377 91.3589,13.7557 Z M90.3789,14.0947 C90.3869,14.0917 90.3939,14.0887 90.4019,14.0867 C90.3939,14.0887 90.3869,14.0917 90.3789,14.0947 Z M89.2539,14.4667 C89.3169,14.4467 89.3799,14.4257 89.4419,14.4057 C89.3799,14.4257 89.3169,14.4467 89.2539,14.4667 Z M88.2179,14.7967 C88.2309,14.7917 88.2449,14.7887 88.2589,14.7847 C88.2449,14.7887 88.2309,14.7917 88.2179,14.7967 Z M87.0419,15.1517 C87.1139,15.1297 87.1859,15.1087 87.2579,15.0877 C87.1859,15.1087 87.1139,15.1297 87.0419,15.1517 Z M85.9689,15.4587 C85.9849,15.4547 86.0029,15.4497 86.0189,15.4457 C86.0029,15.4497 85.9849,15.4547 85.9689,15.4587 Z M84.7539,15.7847 C84.8339,15.7637 84.9139,15.7427 84.9929,15.7217 C84.9139,15.7427 84.8339,15.7637 84.7539,15.7847 Z M83.6599,16.0577 C83.6789,16.0527 83.6979,16.0487 83.7169,16.0437 C83.6979,16.0487 83.6789,16.0527 83.6599,16.0577 Z M82.4229,16.3407 C82.5069,16.3227 82.5919,16.3037 82.6759,16.2857 C82.5919,16.3037 82.5079,16.3227 82.4229,16.3407 Z M81.3299,16.5687 C81.3459,16.5657 81.3629,16.5627 81.3799,16.5587 C81.3629,16.5627 81.3459,16.5657 81.3299,16.5687 Z M80.0789,16.7977 C80.1659,16.7827 80.2519,16.7677 80.3389,16.7517 C80.2519,16.7677 80.1659,16.7827 80.0789,16.7977 Z M79.0049,16.9687 C79.0169,16.9667 79.0289,16.9647 79.0419,16.9637 C79.0289,16.9647 79.0169,16.9667 79.0049,16.9687 Z M92.4189,13.3757 C92.4179,13.3767 92.4159,13.3777 92.4149,13.3777 C92.4169,13.3767 92.4189,13.3767 92.4209,13.3757 L92.4189,13.3757 Z M96.4869,11.7947 C96.5029,11.7887 96.5199,11.7817 96.5359,11.7747 C96.5199,11.7817 96.5029,11.7887 96.4869,11.7947 Z M96.8489,17.1277 C96.8909,17.1477 96.9329,17.1677 96.9749,17.1877 C96.9329,17.1677 96.8909,17.1477 96.8489,17.1277 Z M96.2869,16.8947 C96.3069,16.9027 96.3279,16.9097 96.3479,16.9167 C96.3279,16.9097 96.3069,16.9027 96.2869,16.8947 Z M95.6749,16.6867 C95.7219,16.7017 95.7709,16.7167 95.8189,16.7317 C95.7709,16.7167 95.7219,16.7017 95.6749,16.6867 Z M95.1169,16.5307 L95.2169,16.5567 L95.1169,16.5307 Z M94.4499,16.3847 C94.4759,16.3897 94.5039,16.3937 94.5299,16.3987 C94.5039,16.3937 94.4759,16.3897 94.4499,16.3847 Z M93.7869,16.2757 C93.8309,16.2817 93.8749,16.2887 93.9179,16.2937 C93.8749,16.2887 93.8309,16.2817 93.7869,16.2757 Z M97.3399,17.3707 C97.3849,17.3937 97.4289,17.4167 97.4719,17.4417 C97.4289,17.4167 97.3849,17.3937 97.3399,17.3707 Z M98.9129,20.4417 C98.7989,20.3497 98.6849,20.2557 98.5719,20.1617 C98.6849,20.2557 98.7989,20.3497 98.9129,20.4417 Z M97.9339,19.6057 C98.0949,19.7507 98.2559,19.8927 98.4179,20.0317 C98.2559,19.8927 98.0949,19.7507 97.9339,19.6057 Z M92.9599,17.6767 C93.4409,17.7207 93.9019,17.7897 94.3409,17.8827 C93.9019,17.7897 93.4409,17.7207 92.9599,17.6767 Z M81.4739,19.8487 C81.1469,19.9757 80.8179,20.1047 80.4859,20.2417 C80.8179,20.1047 81.1469,19.9757 81.4739,19.8487 Z M82.6829,19.4007 C82.3639,19.5137 82.0409,19.6337 81.7159,19.7567 C82.0409,19.6337 82.3639,19.5137 82.6829,19.4007 Z M83.6379,19.0787 C83.3289,19.1787 83.0179,19.2837 82.7039,19.3937 C83.0179,19.2837 83.3289,19.1787 83.6379,19.0787 Z M84.7909,18.7207 C84.4839,18.8107 84.1729,18.9067 83.8589,19.0067 C84.1729,18.9067 84.4839,18.8107 84.7909,18.7207 Z M85.7089,18.4687 C85.4139,18.5457 85.1179,18.6257 84.8169,18.7137 C85.1179,18.6257 85.4139,18.5457 85.7089,18.4687 Z M86.8009,18.2027 C86.5059,18.2687 86.2059,18.3417 85.9029,18.4187 C86.2059,18.3417 86.5059,18.2687 86.8009,18.2027 Z M85.1799,17.0557 C85.2099,17.0477 85.2389,17.0387 85.2679,17.0327 C85.2389,17.0387 85.2099,17.0477 85.1799,17.0557 Z M84.3289,17.2897 C84.3729,17.2777 84.4169,17.2657 84.4609,17.2527 C84.4169,17.2657 84.3729,17.2777 84.3289,17.2897 Z M83.5129,17.5367 C83.5209,17.5337 83.5279,17.5317 83.5359,17.5297 C83.5279,17.5317 83.5209,17.5337 83.5129,17.5367 Z M82.5359,17.8577 C82.5799,17.8427 82.6239,17.8277 82.6679,17.8127 C82.6239,17.8277 82.5799,17.8427 82.5359,17.8577 Z M81.6059,18.1877 C81.6879,18.1577 81.7699,18.1267 81.8519,18.0977 C81.7699,18.1267 81.6879,18.1577 81.6059,18.1877 Z M80.7529,18.5097 C80.8339,18.4787 80.9149,18.4477 80.9969,18.4157 C80.9149,18.4477 80.8339,18.4787 80.7529,18.5097 Z M91.7849,16.1327 C91.7519,16.1327 91.7199,16.1317 91.6859,16.1317 C91.7199,16.1317 91.7519,16.1327 91.7849,16.1327 Z M92.4819,16.1537 C92.4569,16.1517 92.4309,16.1517 92.4059,16.1507 L92.4819,16.1537 Z M93.1799,16.2037 C93.1739,16.2037 93.1679,16.2027 93.1629,16.2017 C93.1679,16.2027 93.1739,16.2037 93.1799,16.2037 Z M89.3859,16.2567 C89.4019,16.2547 89.4189,16.2537 89.4349,16.2517 C89.4189,16.2537 89.4019,16.2547 89.3859,16.2567 Z M87.7119,16.4967 L87.7789,16.4847 L87.7119,16.4967 Z M87.6779,18.0227 C87.3939,18.0767 87.1089,18.1337 86.8189,18.1987 C87.1089,18.1337 87.3939,18.0767 87.6779,18.0227 Z M88.7029,17.8467 C88.4209,17.8887 88.1339,17.9387 87.8429,17.9917 C88.1339,17.9377 88.4209,17.8887 88.7029,17.8467 Z M89.5359,17.7407 C89.2639,17.7707 88.9899,17.8047 88.7099,17.8457 C88.9899,17.8047 89.2639,17.7707 89.5359,17.7407 Z M91.2709,17.6227 C90.7559,17.6337 90.2209,17.6677 89.6699,17.7257 C90.2209,17.6667 90.7559,17.6337 91.2709,17.6227 Z M90.1579,16.1867 C90.1799,16.1857 90.2029,16.1837 90.2239,16.1817 C90.2029,16.1837 90.1799,16.1857 90.1579,16.1867 Z M92.8769,17.6697 C92.3969,17.6297 91.8969,17.6137 91.3779,17.6207 C91.8969,17.6127 92.3969,17.6297 92.8769,17.6697 Z M95.0549,18.0597 C94.8459,17.9987 94.6289,17.9457 94.4079,17.8967 C95.2269,18.0757 95.9709,18.3397 96.6289,18.6927 C96.1479,18.4357 95.6229,18.2247 95.0549,18.0597 Z M96.6519,18.7057 C96.7629,18.7657 96.8739,18.8287 96.9799,18.8937 C96.8739,18.8287 96.7629,18.7657 96.6519,18.7057 Z M97.0449,18.9357 C97.1359,18.9937 97.2269,19.0507 97.3139,19.1127 C97.2269,19.0507 97.1369,18.9937 97.0449,18.9357 Z M97.4479,19.2107 C97.5099,19.2567 97.5729,19.3017 97.6329,19.3497 C97.5729,19.3017 97.5099,19.2567 97.4479,19.2107 Z M32.6109,28.7697 C32.7619,28.8707 32.9089,28.9717 33.0549,29.0757 C32.9089,28.9717 32.7619,28.8707 32.6109,28.7697 Z M31.9249,28.3307 C32.0739,28.4217 32.2209,28.5147 32.3669,28.6097 C32.2209,28.5147 32.0739,28.4217 31.9249,28.3307 Z M31.1669,27.8837 C31.3399,27.9807 31.5099,28.0787 31.6779,28.1787 C31.5099,28.0787 31.3399,27.9807 31.1669,27.8837 Z M30.2509,27.3917 C30.4949,27.5147 30.7339,27.6417 30.9699,27.7717 C30.7339,27.6417 30.4949,27.5147 30.2509,27.3917 Z M31.4509,29.8127 C31.6579,29.9457 31.8589,30.0807 32.0569,30.2197 C31.8589,30.0807 31.6579,29.9457 31.4509,29.8127 Z M30.6059,29.2977 C30.8429,29.4347 31.0739,29.5747 31.3009,29.7177 C31.0729,29.5747 30.8429,29.4347 30.6059,29.2977 Z M29.6879,28.7947 C29.9709,28.9417 30.2469,29.0917 30.5179,29.2467 C30.2469,29.0917 29.9709,28.9407 29.6879,28.7947 Z M32.2249,30.3357 C32.4689,30.5097 32.7069,30.6867 32.9359,30.8687 C32.7069,30.6867 32.4689,30.5087 32.2249,30.3357 Z M29.5009,27.0267 C29.6829,27.1127 29.8629,27.1997 30.0419,27.2887 C29.8629,27.1997 29.6829,27.1127 29.5009,27.0267 Z M28.7229,26.6777 C28.8829,26.7467 29.0409,26.8167 29.1969,26.8877 C29.0409,26.8167 28.8829,26.7467 28.7229,26.6777 Z M27.9139,26.3437 C28.0739,26.4077 28.2339,26.4717 28.3919,26.5377 C28.2339,26.4717 28.0739,26.4077 27.9139,26.3437 Z M27.0119,26.0027 C27.2029,26.0727 27.3939,26.1417 27.5829,26.2137 C27.3939,26.1417 27.2029,26.0727 27.0119,26.0027 Z M25.9669,25.6457 C26.1859,25.7157 26.4039,25.7897 26.6199,25.8647 C26.4039,25.7897 26.1859,25.7167 25.9669,25.6457 Z M25.1179,25.3857 C25.2689,25.4297 25.4209,25.4767 25.5709,25.5227 C25.4209,25.4767 25.2689,25.4297 25.1179,25.3857 Z M24.2549,25.1447 C24.3969,25.1827 24.5389,25.2217 24.6799,25.2607 C24.5389,25.2217 24.3969,25.1827 24.2549,25.1447 Z M23.3849,24.9247 C23.5209,24.9577 23.6569,24.9907 23.7929,25.0247 C23.6569,24.9907 23.5209,24.9577 23.3849,24.9247 Z M22.6179,24.7487 C22.7109,24.7697 22.8039,24.7887 22.8949,24.8087 C22.8039,24.7887 22.7109,24.7697 22.6179,24.7487 Z M21.1879,24.4627 C21.2969,24.4827 21.4039,24.5027 21.5119,24.5237 C21.4039,24.5027 21.2969,24.4827 21.1879,24.4627 Z M14.6709,25.2887 C14.5009,25.2837 14.3289,25.2817 14.1579,25.2787 C14.3289,25.2817 14.5009,25.2837 14.6709,25.2887 Z M16.1559,25.3587 C15.7569,25.3327 15.3559,25.3137 14.9539,25.2987 C15.3559,25.3137 15.7569,25.3327 16.1559,25.3587 Z M17.0709,25.4257 C16.8739,25.4097 16.6759,25.3927 16.4769,25.3787 C16.6769,25.3927 16.8729,25.4097 17.0709,25.4257 Z M17.9989,25.5137 C17.8009,25.4937 17.6019,25.4727 17.4029,25.4547 C17.6019,25.4727 17.8009,25.4937 17.9989,25.5137 Z M18.9229,25.6217 C18.7199,25.5957 18.5149,25.5717 18.3099,25.5477 C18.5149,25.5717 18.7199,25.5957 18.9229,25.6217 Z M19.8379,25.7497 C19.6209,25.7167 19.4029,25.6867 19.1839,25.6577 C19.4029,25.6867 19.6209,25.7167 19.8379,25.7497 Z M23.0539,26.3797 C22.0499,26.1367 21.0139,25.9337 19.9569,25.7697 C21.0139,25.9327 22.0489,26.1367 23.0539,26.3797 Z M23.8619,26.5847 C23.6339,26.5247 23.4049,26.4647 23.1739,26.4087 C23.4049,26.4647 23.6339,26.5247 23.8619,26.5847 Z M24.6799,26.8137 C24.4499,26.7467 24.2189,26.6817 23.9849,26.6187 C24.2189,26.6817 24.4499,26.7467 24.6799,26.8137 Z M28.3269,28.1417 C27.1989,27.6417 25.9979,27.2047 24.7399,26.8317 C25.9979,27.2047 27.1989,27.6417 28.3269,28.1417 Z M29.0029,28.4537 C28.7929,28.3527 28.5789,28.2537 28.3629,28.1577 C28.5789,28.2537 28.7929,28.3527 29.0029,28.4537 Z M29.6879,28.7947 C29.4809,28.6877 29.2699,28.5817 29.0569,28.4797 C29.2699,28.5817 29.4809,28.6877 29.6879,28.7947 Z M13.7029,25.2707 C13.5399,25.2697 13.3749,25.2707 13.2109,25.2707 C13.3749,25.2707 13.5399,25.2697 13.7029,25.2707 Z M9.9739,23.8907 L9.8159,23.9027 L9.9739,23.8907 Z M10.8989,23.8347 C10.8479,23.8377 10.7979,23.8397 10.7469,23.8427 C10.7979,23.8397 10.8479,23.8377 10.8989,23.8347 Z M14.4049,23.7867 L14.2559,23.7837 L14.4049,23.7867 Z M15.3539,23.8197 C15.2819,23.8157 15.2089,23.8127 15.1369,23.8097 C15.2089,23.8127 15.2819,23.8157 15.3539,23.8197 Z M16.2599,23.8687 C16.1959,23.8647 16.1329,23.8597 16.0679,23.8557 C16.1329,23.8597 16.1959,23.8647 16.2599,23.8687 Z M18.7459,24.0957 C18.6879,24.0887 18.6319,24.0827 18.5749,24.0767 C18.6319,24.0827 18.6879,24.0887 18.7459,24.0957 Z M19.6859,24.2207 C19.5849,24.2057 19.4819,24.1927 19.3809,24.1787 C19.4819,24.1927 19.5849,24.2057 19.6859,24.2207 Z M20.6119,24.3647 C20.5019,24.3457 20.3899,24.3277 20.2799,24.3097 C20.3899,24.3277 20.5019,24.3457 20.6119,24.3647 Z M119.3819,24.9237 C118.8119,24.3777 118.0679,24.0957 117.2829,24.1307 C113.8449,24.2747 105.2929,24.0357 99.2609,18.7647 C99.6099,16.8907 99.9449,15.0267 100.2599,13.2177 C100.4349,12.2017 100.0579,11.2097 99.2479,10.5667 C98.4429,9.9247 97.3939,9.7797 96.4429,10.1787 C91.4999,12.2537 82.0699,15.7507 74.4709,15.8367 C69.4439,15.8947 66.2009,14.7277 63.3459,13.6987 C60.1559,12.5487 57.3869,11.5497 53.3289,12.7147 C52.0759,11.3457 50.8659,9.8797 50.3829,9.2867 C50.5659,8.5207 51.1999,6.4917 53.0439,4.9967 C54.4929,3.9877 54.4979,2.6547 54.0579,1.8167 C53.4739,0.6997 51.8889,-0.0543 49.9949,0.6667 C47.5369,1.6027 43.2609,5.4567 42.2309,6.4027 L37.2049,6.4027 L36.0909,2.0047 C36.0059,1.6677 35.7029,1.4347 35.3579,1.4347 C31.0019,1.4347 15.5969,3.1907 0.3919,25.7937 C0.3869,25.8017 0.3859,25.8117 0.3799,25.8197 C0.3619,25.8467 0.3469,25.8767 0.3319,25.9097 C0.3249,25.9267 0.3169,25.9457 0.3089,25.9627 C0.2969,25.9977 0.2899,26.0357 0.2819,26.0737 C0.2789,26.0877 0.2739,26.1007 0.2719,26.1167 C0.2639,26.1657 0.2619,26.2217 0.2659,26.2747 C0.2659,26.2797 0.2689,26.2847 0.2689,26.2887 C0.2739,26.3347 0.2819,26.3777 0.2949,26.4227 C0.2949,26.4277 0.2969,26.4307 0.2999,26.4327 L0.2999,26.4437 C0.3039,26.4577 0.3119,26.4707 0.3169,26.4837 C0.3319,26.5187 0.3449,26.5537 0.3619,26.5837 C0.3729,26.6017 0.3829,26.6147 0.3949,26.6317 C0.4129,26.6597 0.4349,26.6897 0.4579,26.7147 C0.4709,26.7297 0.4829,26.7427 0.4979,26.7547 C0.5229,26.7807 0.5489,26.7997 0.5759,26.8207 C0.5919,26.8327 0.6059,26.8427 0.6239,26.8537 C0.6539,26.8727 0.6869,26.8887 0.7199,26.9037 C0.7299,26.9087 0.7399,26.9157 0.7529,26.9207 C2.6539,27.6407 3.9949,28.9787 5.6959,30.6747 C7.9319,32.9037 10.7149,35.6807 16.0279,38.3367 C25.3879,43.0167 55.3459,43.0697 56.6169,43.0697 L105.7989,43.0697 C108.8809,43.0697 111.7629,41.4817 113.4139,38.8987 C114.8679,38.6817 115.9869,37.4267 115.9869,35.9127 L115.9869,31.2207 C115.9869,30.4707 116.5959,29.8617 117.3459,29.8617 L117.3989,29.8617 C118.9779,29.8617 120.2639,28.5767 120.2639,26.9967 C120.2639,26.2047 119.9499,25.4697 119.3819,24.9237 Z" id="Stroke-47" stroke="#343A40" stroke-width="4.528"></path>
            <path d="M117.3991,28.3527 L117.3461,28.3527 C115.7631,28.3527 114.4781,29.6377 114.4781,31.2207 L114.4781,34.1337 L59.0671,34.1337 C58.6591,34.1337 58.1511,34.1437 57.5571,34.1517 C52.2641,34.2367 39.8641,34.4357 33.8751,29.6857 C26.9251,24.1787 14.1381,22.2997 2.7971,24.9717 C8.5181,16.8717 14.8281,10.8527 21.5781,7.0777 C27.6581,3.6757 32.5081,3.0417 34.7751,2.9567 L35.8841,7.3437 C35.8861,7.3487 35.8891,7.3567 35.8921,7.3617 C35.8921,7.3667 35.8941,7.3717 35.8941,7.3787 L38.1661,14.8377 C38.5961,16.2487 39.8751,17.1957 41.3461,17.1957 L46.7191,17.1957 C49.4841,20.2417 58.9661,22.1307 67.7441,22.1307 C72.6391,22.1307 77.3161,21.5447 80.4861,20.2417 C88.4181,16.9787 94.7771,16.7477 97.9341,19.6057 C103.5271,24.7227 111.0341,25.6707 115.8241,25.6707 C116.3671,25.6707 116.8781,25.6587 117.3461,25.6377 C117.7181,25.6237 118.0681,25.7557 118.3371,26.0127 C118.6061,26.2717 118.7541,26.6217 118.7541,26.9967 C118.7541,27.7437 118.1461,28.3527 117.3991,28.3527 Z M114.4781,35.9127 C114.4781,36.7457 113.8011,37.4217 112.9681,37.4217 L47.6611,37.4217 C37.9241,37.4217 30.9561,36.7407 26.3021,33.3567 C21.8971,30.1537 13.5321,33.1147 11.5851,33.8737 C9.5271,32.3577 8.0471,30.8887 6.7621,29.6057 C5.5371,28.3847 4.4271,27.2867 3.1221,26.4457 C14.0451,23.8597 26.3171,25.6207 32.9361,30.8687 C38.3851,35.1877 48.4251,35.6907 54.6701,35.6907 C55.7741,35.6907 56.7621,35.6727 57.5831,35.6607 C58.1661,35.6537 58.6671,35.6427 59.0671,35.6427 L114.4781,35.6427 L114.4781,35.9127 Z M105.7981,41.5597 L56.6171,41.5597 C56.3091,41.5597 25.7461,41.5067 16.7021,36.9867 C15.3431,36.3047 14.1591,35.6157 13.1071,34.9307 C15.8571,33.9827 22.1611,32.2117 25.4141,34.5767 C30.4001,38.2017 37.6231,38.9307 47.6611,38.9307 L111.5091,38.9307 C110.0951,40.5767 108.0101,41.5597 105.7981,41.5597 Z M42.5281,7.9127 C42.7191,7.9127 42.9061,7.8387 43.0441,7.7077 C43.0941,7.6607 48.0601,3.0197 50.5341,2.0787 C51.5921,1.6727 52.4531,2.0027 52.7221,2.5187 C52.9361,2.9237 52.7321,3.3787 52.1661,3.7687 C52.1481,3.7797 52.1331,3.7907 52.1181,3.8037 C49.3401,6.0387 48.8451,9.2407 48.8251,9.3757 C48.7951,9.5827 48.8531,9.7937 48.9841,9.9567 C49.0021,9.9777 50.7831,12.2017 52.5441,14.0877 C52.7421,14.3017 53.0461,14.3797 53.3231,14.2917 C57.1501,13.0697 59.6581,13.9727 62.8331,15.1207 C65.8091,16.1917 69.1821,17.4047 74.4881,17.3457 C82.3441,17.2577 91.9821,13.6887 97.0261,11.5707 C97.4601,11.3867 97.9401,11.4527 98.3091,11.7467 C98.6791,12.0407 98.8501,12.4967 98.7701,12.9607 C98.5031,14.5107 98.2161,16.1037 97.9211,17.7067 C94.1111,15.2737 87.6581,15.6607 79.9121,18.8457 C75.9271,20.4837 68.9111,21.0487 61.6051,20.3227 C54.6841,19.6327 49.0891,17.8947 47.6801,15.9907 C47.5371,15.7987 47.3131,15.6857 47.0741,15.6857 L41.3461,15.6857 C40.5441,15.6857 39.8441,15.1697 39.6101,14.4007 L37.6351,7.9127 L42.5281,7.9127 Z M119.3811,24.9237 C118.8121,24.3777 118.0681,24.0957 117.2831,24.1307 C113.8441,24.2747 105.2931,24.0357 99.2601,18.7647 C99.6101,16.8907 99.9451,15.0267 100.2591,13.2177 C100.4351,12.2017 100.0581,11.2097 99.2481,10.5667 C98.4431,9.9247 97.3941,9.7797 96.4431,10.1787 C91.5001,12.2537 82.0701,15.7507 74.4701,15.8367 C69.4441,15.8947 66.2011,14.7277 63.3461,13.6987 C60.1561,12.5487 57.3861,11.5497 53.3291,12.7147 C52.0761,11.3457 50.8661,9.8797 50.3821,9.2867 C50.5661,8.5207 51.2001,6.4917 53.0441,4.9967 C54.4931,3.9877 54.4981,2.6547 54.0581,1.8167 C53.4741,0.6997 51.8891,-0.0543 49.9951,0.6667 C47.5371,1.6027 43.2601,5.4567 42.2311,6.4027 L37.2051,6.4027 L36.0901,2.0047 C36.0051,1.6677 35.7031,1.4347 35.3581,1.4347 C31.0021,1.4347 15.5971,3.1907 0.3921,25.7937 C0.3871,25.8017 0.3851,25.8117 0.3791,25.8197 C0.3621,25.8467 0.3471,25.8767 0.3321,25.9097 C0.3251,25.9267 0.3171,25.9457 0.3091,25.9627 C0.2961,25.9987 0.2901,26.0357 0.2821,26.0737 C0.2791,26.0877 0.2741,26.1007 0.2721,26.1167 C0.2641,26.1657 0.2611,26.2217 0.2661,26.2747 C0.2661,26.2797 0.2691,26.2847 0.2691,26.2897 C0.2741,26.3347 0.2821,26.3777 0.2941,26.4227 C0.2941,26.4277 0.2961,26.4307 0.2991,26.4327 L0.2991,26.4437 C0.3041,26.4577 0.3121,26.4707 0.3171,26.4837 C0.3321,26.5187 0.3441,26.5537 0.3621,26.5837 C0.3731,26.6017 0.3821,26.6147 0.3951,26.6317 C0.4131,26.6597 0.4351,26.6897 0.4581,26.7147 C0.4701,26.7297 0.4831,26.7427 0.4981,26.7547 C0.5231,26.7807 0.5481,26.7997 0.5761,26.8207 C0.5911,26.8327 0.6061,26.8427 0.6241,26.8527 C0.6541,26.8737 0.6871,26.8887 0.7191,26.9037 C0.7301,26.9087 0.7401,26.9157 0.7531,26.9207 C2.6541,27.6407 3.9951,28.9787 5.6961,30.6747 C7.9321,32.9037 10.7141,35.6807 16.0281,38.3367 C25.3881,43.0167 55.3461,43.0697 56.6171,43.0697 L105.7981,43.0697 C108.8801,43.0697 111.7631,41.4817 113.4141,38.8987 C114.8681,38.6817 115.9871,37.4267 115.9871,35.9127 L115.9871,31.2207 C115.9871,30.4707 116.5961,29.8617 117.3461,29.8617 L117.3991,29.8617 C118.9781,29.8617 120.2641,28.5767 120.2641,26.9967 C120.2641,26.2047 119.9501,25.4697 119.3811,24.9237 Z" id="Fill-181" fill="#343A40"></path>
            <path d="M52.7985,2.8946 C52.8085,2.7676 52.7865,2.6406 52.7225,2.5186 C52.4525,2.0026 51.5925,1.6726 50.5335,2.0786 C48.0605,3.0196 43.0945,7.6606 43.0435,7.7076 C42.9055,7.8386 42.7195,7.9126 42.5275,7.9126 L37.6355,7.9126 L43.3005,9.0816 C43.3005,9.0816 48.4715,3.2396 52.7985,2.8946" id="Fill-183" fill="#67707A"></path>
            <path d="M61.8141,15.8429 C64.3071,17.1009 70.0551,18.5829 78.1011,17.6979 C83.0431,17.1549 88.3691,15.3789 92.4181,13.3759 C87.2191,15.2719 80.3571,17.2799 74.4881,17.3459 C69.1821,17.4049 65.8091,16.1919 62.8331,15.1199 C59.7341,13.9999 57.2671,13.1189 53.5941,14.2129 C55.7611,14.0529 59.5831,14.7169 61.8141,15.8429" id="Fill-185" fill="#67707A"></path>
            <path d="M96.9274,15.671 C97.2084,15.192 97.6544,12.729 97.4264,11.474 C97.2914,11.484 97.1564,11.515 97.0264,11.57 C95.7504,12.106 94.1794,12.734 92.4184,13.376 C88.3684,15.379 83.0424,17.155 78.1014,17.698 C70.0554,18.583 64.3074,17.101 61.8144,15.843 C59.5824,14.717 55.7614,14.053 53.5944,14.213 C53.5034,14.24 53.4154,14.263 53.3234,14.292 C53.1854,14.336 53.0394,14.339 52.9044,14.304 C52.7684,14.269 52.6434,14.195 52.5434,14.088 C50.7824,12.201 49.0014,9.978 48.9844,9.957 C48.8534,9.794 48.7944,9.583 48.8244,9.376 C48.8454,9.24 49.3404,6.038 52.1174,3.804 C52.1334,3.791 52.1484,3.779 52.1654,3.769 C52.5614,3.496 52.7764,3.192 52.7984,2.895 C48.4714,3.239 43.3004,9.082 43.3004,9.082 L37.6354,7.912 L39.6104,14.4 C39.8444,15.17 40.5434,15.686 41.3464,15.686 L47.0734,15.686 C47.3134,15.686 47.5364,15.799 47.6804,15.99 C49.0894,17.895 54.6844,19.633 61.6054,20.322 C68.9104,21.049 75.9274,20.483 79.9114,18.846 C82.3864,17.828 84.7274,17.098 86.8934,16.652 C91.5964,14.862 95.4484,14.998 96.9274,15.671" id="Fill-187" fill="#495057"></path>
            <path d="M98.3093,11.7462 C98.0513,11.5402 97.7393,11.4492 97.4263,11.4742 C97.6543,12.7282 97.2083,15.1912 96.9273,15.6712 C95.4483,14.9982 91.5963,14.8622 86.8933,16.6522 C91.5093,15.7022 95.3283,16.0502 97.9213,17.7062 C98.2163,16.1032 98.5033,14.5112 98.7703,12.9612 C98.8503,12.4962 98.6793,12.0402 98.3093,11.7462" id="Fill-189" fill="#40474D"></path>
            <path d="M61.0368,23.7989 C66.3828,24.5539 74.0468,24.3379 82.2898,20.7669 C87.4428,18.5339 91.6418,17.7619 95.0558,18.0599 C91.5598,17.0449 86.4718,17.7789 80.4858,20.2409 C77.3158,21.5449 72.6398,22.1309 67.7438,22.1309 C58.9668,22.1309 49.4838,20.2409 46.7198,17.1949 L46.4248,17.1949 C49.6578,21.2989 56.3908,23.1439 61.0368,23.7989" id="Fill-191" fill="#E8E8E8"></path>
            <path d="M113.4265,27.6359 C110.7215,27.4369 107.5995,25.7859 105.1785,23.9159 C102.6555,22.9969 100.1455,21.6279 97.9345,19.6059 C97.1595,18.9049 96.1915,18.3899 95.0555,18.0599 C91.6425,17.7619 87.4435,18.5339 82.2895,20.7669 C74.0465,24.3379 66.3825,24.5539 61.0365,23.7989 C56.3915,23.1439 49.6575,21.2989 46.4245,17.1959 L41.3465,17.1959 C39.8745,17.1959 38.5965,16.2489 38.1655,14.8379 L35.8945,7.3789 C35.8945,7.3709 35.8925,7.3659 35.8925,7.3619 C35.8895,7.3569 35.8865,7.3489 35.8845,7.3439 L35.7715,6.8969 L22.2775,15.5069 C21.3185,17.6989 18.7355,20.1399 14.3485,20.5659 L9.0155,23.9689 C18.5495,23.0959 28.1755,25.1689 33.8745,29.6859 C39.8635,34.4359 52.2645,34.2369 57.5575,34.1519 C58.1515,34.1439 58.6585,34.1339 59.0675,34.1339 L86.3395,34.1339 L111.5095,32.2889 C111.5095,32.2889 111.5395,28.8299 113.4265,27.6359" id="Fill-193" fill="#CED4DA"></path>
            <path d="M118.3376,26.0128 C118.0676,25.7558 117.7186,25.6228 117.3466,25.6378 C116.8776,25.6588 116.3666,25.6708 115.8236,25.6708 C112.9276,25.6708 109.0376,25.3228 105.1786,23.9158 C107.5996,25.7858 110.7216,27.4368 113.4266,27.6358 C111.5396,28.8298 111.5096,32.2888 111.5096,32.2888 L86.3396,34.1338 L114.4786,34.1338 L114.4786,31.2208 C114.4786,29.6378 115.7636,28.3528 117.3466,28.3528 L117.3996,28.3528 C118.1466,28.3528 118.7546,27.7428 118.7546,26.9958 C118.7546,26.6208 118.6066,26.2718 118.3376,26.0128" id="Fill-195" fill="#B7BDC2"></path>
            <path d="M12.9792,20.632 C12.7522,20.632 12.5392,20.528 12.3952,20.353 C12.2512,20.177 12.1942,19.945 12.2422,19.724 C12.8122,16.954 15.5372,13.898 15.6532,13.769 C15.7262,13.689 15.8142,13.623 15.9152,13.58 C16.0852,13.505 20.1732,11.769 22.2692,14.562 C22.4252,14.773 22.4622,15.047 22.3682,15.291 C22.3392,15.362 22.3092,15.435 22.2772,15.507 L35.7712,6.897 L35.2222,4.725 C30.1932,4.553 23.3862,6.39 17.8292,10.34 C13.4582,13.447 7.8802,20.156 4.3992,24.629 C5.9242,24.33 7.4682,24.111 9.0152,23.969 L14.3482,20.566 C13.9102,20.609 13.4542,20.632 12.9792,20.632" id="Fill-197" fill="#CED4DA"></path>
            <path d="M17.8288,10.34 C23.3868,6.39 30.1928,4.553 35.2228,4.725 L34.7748,2.956 C32.5088,3.042 27.6578,3.676 21.5778,7.077 C14.8278,10.853 8.5178,16.871 2.7978,24.972 C3.3288,24.847 3.8628,24.735 4.3988,24.629 C7.8808,20.156 13.4578,13.447 17.8288,10.34" id="Fill-199" fill="#E3E3E3"></path>
            <path d="M22.2692,14.5616 C20.1732,11.7686 16.0852,13.5046 15.9152,13.5806 C15.8142,13.6236 15.7262,13.6886 15.6532,13.7686 C15.5372,13.8976 12.8122,16.9546 12.2422,19.7236 C12.1942,19.9456 12.2512,20.1766 12.3952,20.3526 C12.5392,20.5286 12.7522,20.6316 12.9792,20.6316 C13.4542,20.6316 13.9102,20.6086 14.3482,20.5656 L22.2772,15.5066 C22.3092,15.4346 22.3392,15.3626 22.3682,15.2906 C22.4622,15.0466 22.4252,14.7726 22.2692,14.5616" id="Fill-201" fill="#CED4DA"></path>
            <path d="M107.6911,38.9308 C106.9571,39.6158 105.8431,40.5078 105.0201,40.5078 L34.1251,40.5078 C45.0481,41.5398 56.4291,41.5598 56.6171,41.5598 L105.7981,41.5598 C108.0101,41.5598 110.0951,40.5768 111.5091,38.9308 L107.6911,38.9308 Z" id="Fill-203" fill="#B7BDC2"></path>
            <path d="M107.6911,38.9308 L47.6611,38.9308 C37.6231,38.9308 30.4001,38.2018 25.4141,34.5768 C22.1611,32.2118 15.8571,33.9828 13.1071,34.9308 C14.1591,35.6158 15.3431,36.3048 16.7021,36.9868 C20.2451,38.7568 27.0891,39.8428 34.1251,40.5078 L105.0201,40.5078 C105.8431,40.5078 106.9571,39.6158 107.6911,38.9308" id="Fill-205" fill="#CED4DA"></path>
            <path d="M29.6882,28.795 C22.7532,25.2 12.4482,24.237 3.1222,26.445 C4.4272,27.286 5.5372,28.385 6.7622,29.606 C7.4172,30.259 8.1232,30.96 8.9282,31.691 C7.6732,29.378 6.7592,27.321 6.7592,27.321 C12.0072,25.755 21.7922,26.757 29.6882,28.795" id="Fill-207" fill="#FFC98C"></path>
            <path d="M59.0671,35.6427 C58.6671,35.6427 58.1661,35.6537 57.5831,35.6607 C56.7621,35.6727 55.7741,35.6907 54.6701,35.6907 C48.4251,35.6907 38.3851,35.1877 32.9361,30.8687 C31.9681,30.1007 30.8771,29.4107 29.6881,28.7947 C21.7921,26.7567 12.0071,25.7547 6.7591,27.3217 C6.7591,27.3217 7.6731,29.3777 8.9281,31.6917 C9.7051,32.3967 10.5751,33.1297 11.5851,33.8737 C13.5321,33.1147 21.8971,30.1537 26.3021,33.3567 C30.9561,36.7407 37.9241,37.4217 47.6611,37.4217 L112.9681,37.4217 C113.8011,37.4217 114.4781,36.7457 114.4781,35.9127 L114.4781,35.6427 L59.0671,35.6427 Z" id="Fill-209" fill="#FFC078"></path>
            <path d="M14.0075,19.0792 C14.7175,17.2582 16.2365,15.4062 16.6635,14.9082 C17.2575,14.6862 19.4915,13.9752 20.7775,15.1522 C19.8335,17.0142 17.4915,18.7852 14.0075,19.0792 M22.2695,14.5612 C20.1735,11.7682 16.0855,13.5052 15.9145,13.5802 C15.8145,13.6232 15.7265,13.6882 15.6535,13.7682 C15.5365,13.8972 12.8125,16.9542 12.2415,19.7242 C12.1945,19.9452 12.2515,20.1772 12.3955,20.3522 C12.5385,20.5282 12.7525,20.6322 12.9795,20.6322 C18.3605,20.6322 21.4015,17.7542 22.3675,15.2912 C22.4625,15.0472 22.4255,14.7722 22.2695,14.5612" id="Fill-211" fill="#343A40"></path>
            <path d="M20.777,15.1525 C19.834,17.0135 17.492,18.7855 14.007,19.0795 C14.717,17.2575 16.237,15.4065 16.664,14.9085 C17.257,14.6865 19.492,13.9745 20.777,15.1525" id="Fill-213" fill="#FFC078"></path>
            <path d="M95.9157,29.8712 C95.8477,29.8712 95.7777,29.8612 95.7097,29.8422 C95.3087,29.7272 95.0757,29.3102 95.1887,28.9092 L96.5107,24.2562 C96.6237,23.8542 97.0417,23.6222 97.4417,23.7352 C97.8437,23.8502 98.0757,24.2672 97.9627,24.6682 L96.6417,29.3222 C96.5477,29.6542 96.2447,29.8712 95.9157,29.8712" id="Fill-215" fill="#343A40"></path>
            <path d="M92.1813,29.8712 C92.1133,29.8712 92.0433,29.8612 91.9753,29.8422 C91.5743,29.7272 91.3413,29.3102 91.4543,28.9092 L92.7763,24.2562 C92.8893,23.8542 93.3073,23.6222 93.7073,23.7352 C94.1093,23.8502 94.3413,24.2672 94.2283,24.6682 L92.9073,29.3222 C92.8133,29.6542 92.5103,29.8712 92.1813,29.8712" id="Fill-217" fill="#343A40"></path>
            <path d="M88.447,29.8712 C88.379,29.8712 88.309,29.8612 88.241,29.8422 C87.84,29.7272 87.607,29.3102 87.72,28.9092 L89.042,24.2562 C89.155,23.8542 89.573,23.6222 89.973,23.7352 C90.375,23.8502 90.607,24.2672 90.494,24.6682 L89.173,29.3222 C89.079,29.6542 88.776,29.8712 88.447,29.8712" id="Fill-219" fill="#343A40"></path>
        </g>
    </g>
</svg>