<?xml version="1.0" encoding="UTF-8"?>
<svg width="120px" height="120px" viewBox="0 0 120 120" version="1.1" xmlns="http://www.w3.org/2000/svg" xmlns:xlink="http://www.w3.org/1999/xlink">
    <!-- Generator: Sketch 51.1 (57501) - http://www.bohemiancoding.com/sketch -->
    <title>Tiger5</title>
    <desc>Created with Sketch.</desc>
    <defs>
        <polygon id="path-1" points="0.8427 0.945 66.544 0.945 66.544 87 0.8427 87"></polygon>
    </defs>
    <g id="Tiger5" stroke="none" stroke-width="1" fill="none" fill-rule="evenodd">
        <g id="Group" transform="translate(24.000000, 16.000000)">
            <g id="Group-3" transform="translate(5.000000, 0.055400)">
                <mask id="mask-2" fill="white">
                    <use xlink:href="#path-1"></use>
                </mask>
                <g id="Clip-2"></g>
                <path d="M66.0677,79.2762 C64.3747,77.2792 58.1907,76.7622 51.9917,78.0992 C43.8157,79.8612 37.9587,79.3672 34.0857,76.5852 C30.7117,74.1632 28.6887,69.9882 27.9037,63.8212 L27.8687,63.6702 L27.8627,63.6272 C27.9117,63.5952 28.1437,63.4732 28.8787,63.5462 L30.3527,63.7012 C32.6107,63.9412 35.6987,64.2712 37.7357,64.2092 C38.8197,64.1772 39.2977,64.4372 39.8057,64.7132 C40.3437,65.0052 40.9547,65.3372 42.0347,65.1542 C43.4577,64.9152 44.3387,64.1652 44.7517,63.7222 C45.8337,63.8172 47.4717,63.5432 48.2687,61.9872 C48.6027,61.8932 49.0427,61.6942 49.3767,61.2172 C49.6417,60.8342 49.7787,60.3662 49.7787,59.8152 C49.7787,59.4012 49.7027,58.9432 49.5497,58.4412 C49.2647,57.4972 48.5517,56.7022 47.4857,56.1412 C45.6637,55.1832 42.9287,54.9882 40.2937,55.5162 C40.4967,55.0182 40.6577,54.4232 40.7107,53.7642 C41.6247,53.1352 44.2337,51.0412 44.2337,47.5682 C44.2337,47.4032 44.2277,47.2352 44.2137,47.0652 C44.0037,44.1002 41.4887,42.0842 39.7767,41.0422 C42.1007,40.1882 46.1167,38.1872 47.3177,34.3322 C48.0117,34.5442 49.0227,34.6752 49.9277,34.0442 C50.9267,33.3492 51.1147,32.2262 51.1297,31.5072 C52.0037,31.2352 53.5207,30.5282 53.8437,28.8162 C53.8857,28.5972 53.9057,28.3922 53.9057,28.2052 C53.9057,27.5682 53.6957,27.1132 53.4957,26.8222 C53.2327,26.4422 52.8937,26.2092 52.5857,26.0512 C52.6107,25.9092 52.6287,25.7542 52.6287,25.5852 C52.6287,25.3182 52.5857,25.0192 52.4717,24.7042 C52.1397,23.7772 51.2747,23.0402 49.9527,22.4862 C49.9427,20.7882 49.5207,15.2892 44.8787,11.7022 C45.2487,10.7412 45.9617,8.6172 45.9617,6.4432 C45.9617,4.8772 45.5907,3.2922 44.4527,2.1102 C41.5207,-0.9338 35.6457,2.8292 34.1837,3.8462 C32.7397,3.2132 27.2927,1.3062 19.0847,3.8412 C18.3817,2.9562 16.4947,1.2412 12.7787,2.0572 C11.7277,2.2882 10.9097,2.8782 10.3447,3.8102 C9.6747,4.9182 9.4677,6.3792 9.4677,7.7582 C9.4677,9.3382 9.7377,10.8032 9.8927,11.5192 C8.8317,12.4552 5.8547,15.6102 5.0067,21.9462 C4.1027,21.8182 3.0377,21.9562 2.6327,22.9822 C2.5287,23.2432 2.4857,23.5042 2.4857,23.7582 C2.4857,24.1692 2.6107,24.5552 2.7767,24.9012 C2.3777,25.0182 1.9487,25.2082 1.5907,25.5502 C1.1007,26.0192 0.8427,26.6692 0.8427,27.4332 C0.8427,28.9342 1.7137,29.7332 2.5907,30.1202 C2.2867,30.6192 1.9987,31.2802 1.9987,32.0172 C1.9987,32.4152 2.0837,32.8362 2.2947,33.2612 C2.6577,34.0002 3.3417,34.5152 4.2727,34.7532 C5.2787,35.0082 6.4937,34.8942 7.4467,34.5022 C8.1097,35.8482 9.9707,38.7972 13.9457,40.9612 C12.2107,41.8392 9.5397,43.6902 9.5397,46.7482 C9.5397,50.4322 12.3237,52.5172 13.2827,53.1282 C13.3487,53.5682 13.5347,54.3322 13.9737,55.2002 C11.7917,54.6392 8.3287,54.1732 5.9177,55.9392 C4.6367,56.8792 3.9527,58.0782 3.9527,59.3052 C3.9527,59.7342 4.0367,60.1672 4.2067,60.5912 C4.7197,61.8832 5.9217,62.7612 7.1267,62.8132 C7.8137,63.7762 9.3007,64.8192 11.4587,63.9532 C11.9157,64.3502 12.7737,64.9392 13.8957,64.9732 C14.8917,65.0042 15.8487,64.5792 16.7487,63.7552 C17.8257,63.9882 20.9447,64.5842 22.6747,64.1112 C23.0947,63.9982 23.2887,64.0382 23.3317,64.0752 C23.6117,64.3182 23.4557,65.7982 23.3857,66.4302 C23.2847,67.4172 23.9587,75.2922 29.9177,81.1342 C34.9337,86.0482 42.0267,87.8872 51.0047,86.6042 C57.4567,85.6812 65.3687,83.9862 66.4237,81.1462 C66.6677,80.4962 66.5387,79.8322 66.0677,79.2762" id="Fill-1" fill="#654B1D" mask="url(#mask-2)"></path>
            </g>
            <path d="M61.4877,79.0464 C61.4877,79.0464 60.8147,78.6464 58.5917,79.0694 C58.6457,79.2984 59.3177,82.3924 55.6887,82.7694 C52.4937,83.1014 51.6617,81.0464 51.4827,80.4124 C50.1677,80.5084 48.9857,80.5034 48.0537,80.4204 C48.0537,80.4204 46.5077,82.0854 44.7677,81.7904 C43.0267,81.4954 43.0267,80.0274 43.0267,80.0274 C43.0267,80.0274 41.6727,79.6594 40.0517,78.8244 C39.4307,79.1884 37.8767,79.9334 37.0367,78.8514 C36.1557,77.7144 36.6027,76.7814 36.7807,76.4954 C36.2907,76.0014 35.8427,75.4524 35.4917,74.8384 C35.4917,74.8384 33.9447,75.3264 32.9787,73.7604 C32.0107,72.1924 33.5577,71.1154 33.5577,71.1154 C33.5577,71.1154 33.1927,69.9604 32.7987,68.5314 C32.5117,68.4094 31.9757,68.0324 31.4137,66.8844 C30.7487,65.5254 31.5167,64.3374 31.8427,63.9214 C31.8257,62.7124 32.3507,62.5394 33.1467,62.5944 C34.1617,62.6704 36.4087,63.0364 38.5837,63.0364 C40.7577,63.0364 44.2367,62.7434 45.6147,63.1834 C46.9917,63.6254 48.8037,63.0364 49.1657,62.1544 C49.5267,61.2744 49.5267,60.9794 48.0057,59.7324 C46.4837,58.4834 49.8197,59.7324 49.8897,61.0534 C49.9627,62.3764 51.2667,62.5944 51.8467,61.2744 C52.4267,59.9524 51.6297,58.4834 50.6147,58.1894 C49.5997,57.8954 52.2087,58.3364 52.4267,59.9524 C52.6437,61.5674 53.8037,60.1734 52.6437,58.4084 C51.4857,56.6464 47.2807,55.6174 42.6407,57.3814 C42.6407,57.3814 46.0477,53.9294 43.9447,46.3644 C43.9447,46.3644 45.7587,48.4214 45.1797,52.6814 C45.1797,52.6814 46.2667,52.2404 46.6997,51.0654 C46.6997,51.0654 45.9017,50.5514 46.0477,48.9344 C46.1947,47.3194 47.2097,47.0254 47.2097,47.0254 C47.2097,47.0254 47.1357,45.9234 46.1227,44.8944 C46.1227,44.8944 44.5277,45.0434 43.8017,43.9404 C43.0767,42.8384 43.5857,42.3234 43.5857,42.3234 C43.5857,42.3234 43.5107,41.4424 42.2087,41.0764 C42.2087,41.0764 40.9017,41.8114 38.8017,41.8114 C38.8017,41.8114 38.9457,44.8214 36.8427,44.0884 C36.8427,44.0884 36.0457,47.8334 33.7277,44.2344 C33.7277,44.2344 30.0307,46.9514 28.5817,42.6924 C28.5817,42.6924 31.1177,45.9234 33.4367,43.3534 C33.4367,43.3534 35.9017,46.4384 36.4087,43.3534 C36.4087,43.3534 38.4377,44.9684 38.2197,41.0024 C38.2197,41.0024 46.1227,41.8114 51.5577,32.9974 C51.5577,32.9974 55.6147,34.5404 54.8187,30.5734 C54.8187,30.5734 56.9207,30.2064 57.1377,28.5904 C57.3547,26.9754 55.2537,26.9754 55.2537,26.9754 C55.2537,26.9754 57.4287,24.9174 54.1657,23.2294 C54.1657,23.2294 51.7747,24.6974 50.5427,22.7884 C49.3097,20.8794 52.6437,19.4834 52.6437,19.4834 C52.6437,19.4834 52.4267,18.6014 51.8467,17.8674 C51.8467,17.8674 48.5127,18.2354 48.1497,16.2514 C47.7887,14.2684 50.0347,14.1944 50.0347,14.1944 C50.0347,14.1944 49.7457,13.0204 48.3687,11.9924 C48.3687,11.9924 50.9037,5.2344 48.2217,3.3994 C45.5417,1.5634 41.9177,4.2794 39.8877,5.6014 C39.8877,5.6014 38.6167,5.1214 36.5697,4.7334 C36.6027,4.9804 36.6257,5.2314 36.6257,5.4924 L36.6167,5.7554 C37.8627,5.8784 38.6557,6.0594 38.6557,6.2634 C38.6557,6.4744 37.8007,6.6624 36.4737,6.7824 C36.0197,8.6894 34.5917,10.0834 32.8927,10.0834 C31.1927,10.0834 29.7607,8.6824 29.3097,6.7694 C28.0667,6.6484 27.2757,6.4664 27.2757,6.2634 C27.2757,6.0674 28.0107,5.8934 29.1717,5.7714 C29.1667,5.6784 29.1637,5.5864 29.1637,5.4924 C29.1637,5.0984 29.2067,4.7184 29.2827,4.3554 C27.4197,4.5224 25.4327,4.9194 23.4347,5.6754 C23.4347,5.6754 22.2747,3.2524 18.5777,3.3254 C14.8827,3.3994 15.9697,10.5974 16.4757,11.5514 C16.4757,11.5514 15.1717,12.7264 14.6657,13.4604 C14.6657,13.4604 16.6947,13.9024 16.4757,15.7374 C16.2587,17.5744 12.9247,17.8674 12.9247,17.8674 C12.9247,17.8674 12.4177,18.9704 12.3447,19.7764 C12.3447,19.7764 14.9557,19.6294 14.6657,22.4204 C14.3757,25.2124 10.8237,24.6974 9.9547,23.2294 C9.9547,23.2294 9.0097,22.8614 8.6477,23.5234 C8.2867,24.1834 9.0097,25.1384 9.9547,26.0204 C9.9547,26.0204 7.1267,25.7994 7.0557,27.4154 C6.9827,29.0324 9.7357,29.8384 9.7357,29.8384 C9.7357,29.8384 7.4897,31.5284 9.0857,32.9974 C10.6787,34.4654 13.5057,32.7764 13.5057,32.7764 C13.5057,32.7764 13.7947,36.8164 23.7247,41.5174 C23.7247,41.5174 22.7827,41.9584 21.8417,41.8114 C21.8417,41.8114 22.1307,43.0584 20.8247,43.5734 C19.5217,44.0884 18.6517,43.2064 18.6517,43.2064 C18.6517,43.2064 17.7107,43.7944 17.1307,44.6024 C17.1307,44.6024 18.5077,44.6024 17.9997,46.4384 C17.4917,48.2734 16.4037,48.7874 16.4037,48.7874 C16.4037,48.7874 16.6947,50.7714 18.6517,52.1664 C18.6517,52.1664 18.2167,48.1274 21.1167,45.1154 C21.1167,45.1154 17.2737,52.3874 22.4917,57.3814 C22.4917,57.3814 22.7337,57.6504 22.3957,57.7484 C22.0567,57.8474 21.2357,57.5034 20.7527,56.9174 C20.7527,56.9174 16.1157,55.0064 13.1677,56.0364 C10.2197,57.0624 10.1247,59.0694 10.3157,59.8034 C10.5087,60.5394 11.9107,61.6664 12.3447,60.1484 C12.7807,58.6294 13.9407,57.8974 15.0017,57.8474 C15.0017,57.8474 12.7807,58.6304 12.9247,60.9314 C13.0697,63.2334 16.2587,63.3794 16.2587,61.5674 C16.2587,59.7554 17.8037,59.3154 17.8037,59.3154 C17.8037,59.3154 17.0817,59.7554 16.9847,60.7854 C16.8867,61.8134 16.7447,63.3304 19.1107,63.2334 C21.4777,63.1354 20.5127,61.8124 22.5407,62.4984 C24.5697,63.1834 25.2947,63.2824 27.0347,62.9394 C28.7747,62.5944 30.1267,62.9394 29.9327,64.8494 C29.7397,66.7584 29.4997,69.9414 31.7227,74.3484 C33.9447,78.7544 36.5537,81.8864 42.3527,84.1414 C48.1497,86.3924 55.2057,85.7064 63.2257,83.8464 C71.2477,81.9864 60.1337,82.9654 61.4877,79.0464" id="Fill-4" fill="#FFCF88"></path>
            <path d="M18.433,10.3028 C18.433,10.3028 15.896,4.7198 21.985,6.9238 C21.985,6.9238 15.607,3.6188 18.433,10.3028" id="Fill-6" fill="#654B1D"></path>
            <path d="M42.4965,6.9966 C42.4965,6.9966 47.1365,3.5456 46.1945,8.8336 C46.1945,8.8336 48.4375,2.4436 42.4965,6.9966" id="Fill-8" fill="#654B1D"></path>
            <path d="M28.4349,22.9722 C28.4349,25.2232 27.3669,27.0482 26.0439,27.0482 C24.7239,27.0482 23.6519,25.2232 23.6519,22.9722 C23.6519,20.7212 24.7239,18.8962 26.0439,18.8962 C27.3669,18.8962 28.4349,20.7212 28.4349,22.9722" id="Fill-10" fill="#654B1D"></path>
            <path d="M43.222,22.8985 C43.222,25.1495 42.152,26.9755 40.83,26.9755 C39.509,26.9755 38.438,25.1495 38.438,22.8985 C38.438,20.6475 39.509,18.8225 40.83,18.8225 C42.152,18.8225 43.222,20.6475 43.222,22.8985" id="Fill-12" fill="#654B1D"></path>
            <path d="M34.8871,30.3907 C34.8871,30.8157 34.3511,31.1607 33.6921,31.1607 C33.0311,31.1607 32.4941,30.8157 32.4941,30.3907 C32.4941,29.9637 33.0311,29.6197 33.6921,29.6197 C34.3511,29.6197 34.8871,29.9637 34.8871,30.3907" id="Fill-14" fill="#654B1D"></path>
            <path d="M0.1302,28.5108 C0.0192,28.5598 -0.0298,28.6888 0.0192,28.8008 C0.0662,28.9118 0.1922,28.9638 0.3042,28.9148 C6.8142,26.0488 13.1302,28.1178 13.1942,28.1388 C13.3092,28.1778 13.4312,28.1148 13.4702,27.9988 C13.5072,27.8828 13.4442,27.7588 13.3332,27.7198 C13.2682,27.6998 6.7982,25.5728 0.1302,28.5108" id="Fill-16" fill="#654B1D"></path>
            <path d="M1.2748,31.8472 C1.1698,31.9032 1.1288,32.0352 1.1828,32.1432 C1.2398,32.2532 1.3708,32.2952 1.4758,32.2382 C1.5318,32.2112 6.9078,29.4442 13.5198,30.4982 C13.6378,30.5162 13.7488,30.4352 13.7688,30.3132 C13.7858,30.1932 13.7058,30.0812 13.5888,30.0622 C6.8308,28.9872 1.3308,31.8192 1.2748,31.8472" id="Fill-18" fill="#654B1D"></path>
            <path d="M15.3734,31.8233 C9.7524,32.2153 5.9004,36.0593 5.8604,36.0983 L5.8604,36.4083 L6.1694,36.4083 C6.2064,36.3723 9.9504,32.6443 15.4054,32.2633 C15.5234,32.2553 15.6144,32.1483 15.6054,32.0273 C15.5994,31.9063 15.4934,31.8153 15.3734,31.8233" id="Fill-20" fill="#654B1D"></path>
            <path d="M50.5424,31.0601 C50.5404,31.1821 50.6384,31.2821 50.7594,31.2841 C50.8254,31.2841 57.7294,31.4171 59.9584,34.5221 C60.0284,34.6221 60.1634,34.6431 60.2624,34.5711 C60.3594,34.5001 60.3804,34.3621 60.3104,34.2641 C57.9544,30.9801 51.0564,30.8471 50.7634,30.8421 C50.6444,30.8411 50.5444,30.9391 50.5424,31.0601" id="Fill-22" fill="#654B1D"></path>
            <path d="M50.6107,28.9883 C50.4947,29.0183 50.4237,29.1373 50.4517,29.2543 C50.4797,29.3723 50.5987,29.4463 50.7157,29.4163 C50.7697,29.4033 56.2317,28.0753 61.2377,29.4153 C61.3547,29.4463 61.4737,29.3763 61.5037,29.2583 C61.5337,29.1413 61.4647,29.0223 61.3487,28.9893 C56.2337,27.6203 50.6677,28.9753 50.6107,28.9883" id="Fill-24" fill="#654B1D"></path>
            <path d="M50.2767,27.3418 C50.1697,27.3958 50.1257,27.5288 50.1787,27.6368 C50.2337,27.7458 50.3627,27.7908 50.4697,27.7358 C50.5167,27.7108 55.2977,25.3338 60.2827,26.3838 C60.4007,26.4078 60.5167,26.3298 60.5407,26.2128 C60.5657,26.0928 60.4897,25.9768 60.3707,25.9508 C55.2357,24.8718 50.3257,27.3168 50.2767,27.3418" id="Fill-26" fill="#654B1D"></path>
            <path d="M18.0472,31.9048 C18.0472,31.9048 34.1752,46.5768 50.1512,30.2268 C50.1512,30.2268 36.3592,44.7908 18.0472,31.9048" id="Fill-28" fill="#654B1D"></path>
        </g>
    </g>
</svg>