<?xml version="1.0" encoding="UTF-8"?>
<svg width="120px" height="120px" viewBox="0 0 120 120" version="1.1" xmlns="http://www.w3.org/2000/svg" xmlns:xlink="http://www.w3.org/1999/xlink">
    <!-- Generator: Sketch 51.1 (57501) - http://www.bohemiancoding.com/sketch -->
    <title>Athlete20</title>
    <desc>Created with Sketch.</desc>
    <defs>
        <polygon id="path-1" points="0.199373684 0.299053333 13.3734789 0.299053333 13.3734789 5.86666667 0.199373684 5.86666667"></polygon>
    </defs>
    <g id="Athlete20" stroke="none" stroke-width="1" fill="none" fill-rule="evenodd">
        <g id="Group-63" transform="translate(18.000000, 2.000000)">
            <polygon id="Fill-1" fill="#F7D170" points="84.8942714 108.483407 1.00141429 109.148336 0.754914286 78.4166214 84.6519143 77.7516929"></polygon>
            <polygon id="Fill-2" fill="#EA5A26" points="84.66165 79.1780786 0.766721429 79.84715 0.754292857 78.4178643 84.6512929 77.7529357"></polygon>
            <polygon id="Fill-3" fill="#EA5A26" points="84.8942714 108.483407 1.00141429 109.148336 0.986914286 107.725264 84.8839143 107.058264"></polygon>
            <polygon id="Fill-4" fill="#343434" points="5.84503571 98.6762286 5.88232143 103.411514 6.85589286 103.403229 6.82067857 98.6658714"></polygon>
            <polygon id="Fill-5" fill="#343434" points="12.0531071 96.8082143 12.1090357 103.360143 13.0805357 103.356 13.02875 96.7999286"></polygon>
            <polygon id="Fill-6" fill="#343434" points="18.2966 98.5755571 18.3338857 103.312914 19.3033143 103.3067 19.2639571 98.5693429"></polygon>
            <polygon id="Fill-7" fill="#343434" points="24.52145 98.5270857 24.5608071 103.264443 25.5240214 103.254086 25.4888071 98.5188"></polygon>
            <polygon id="Fill-8" fill="#343434" points="30.7257929 96.6609357 30.7775786 103.212864 31.7532214 103.20665 31.7014357 96.65265"></polygon>
            <polygon id="Fill-9" fill="#343434" points="36.9655571 98.4282786 37.0028429 103.163564 37.9702 103.15735 37.9329143 98.4179214"></polygon>
            <polygon id="Fill-10" fill="#343434" points="43.1885429 98.3798071 43.2258286 103.115093 44.2014714 103.108879 44.1641857 98.36945"></polygon>
            <polygon id="Fill-11" fill="#343434" points="49.4022071 96.5117929 49.44985 103.065793 50.4254929 103.055436 50.3737071 96.5035071"></polygon>
            <polygon id="Fill-12" fill="#343434" points="55.6401071 98.281 55.6773929 103.018357 56.6530357 103.008 56.61575 98.2706429"></polygon>
            <polygon id="Fill-13" fill="#343434" points="61.8649571 98.2288 61.9022429 102.966157 62.8716714 102.957871 62.8343857 98.2225857"></polygon>
            <polygon id="Fill-14" fill="#343434" points="68.0711643 96.3645143 68.1250214 102.916443 69.1006643 102.910229 69.0468071 96.3562286"></polygon>
            <polygon id="Fill-15" fill="#343434" points="74.3127929 98.1318571 74.3480071 102.867143 75.3215786 102.858857 75.2842929 98.1215"></polygon>
            <polygon id="Fill-16" fill="#343434" points="80.5376429 98.0815214 80.577 102.816807 81.5485 102.808521 81.5112143 98.0732357"></polygon>
            <path d="M9.68567143,89.8668571 L10.1848857,84.6427143 L15.3903857,84.5992143 L15.4028143,86.101 L11.7301714,86.13 L11.4898857,88.3091429 C11.6618143,88.1827857 11.8855286,88.0792143 12.1506714,87.9880714 C12.4116714,87.9052143 12.6996,87.8555 13.0103143,87.841 C13.8782429,87.8306429 14.5535286,88.0875 15.0341,88.6343571 C15.5126,89.1791429 15.7632429,89.9435 15.7694571,90.9357143 C15.7777429,91.8512857 15.5208857,92.6011429 15.0092429,93.1915 C14.4996714,93.7818571 13.7063143,94.0822143 12.6457429,94.0884286 C11.7861,94.0946429 11.0507429,93.8771429 10.4355286,93.4235 C9.82031429,92.9719286 9.51995714,92.3546429 9.53652857,91.553 L9.54895714,91.5219286 L11.3531714,91.4266429 C11.3552429,91.8181429 11.4733143,92.1205714 11.7094571,92.3380714 C11.9476714,92.5514286 12.2542429,92.6570714 12.6312429,92.6529286 C13.0766,92.6508571 13.3997429,92.5037857 13.6027429,92.2096429 C13.8036714,91.9196429 13.8968857,91.5032857 13.8948143,90.9647143 C13.8886,90.4282143 13.7767429,89.9973571 13.5509571,89.6804286 C13.3293143,89.3655714 12.9999571,89.2060714 12.5628857,89.2102143 C12.2045286,89.2122857 11.9290286,89.2868571 11.7384571,89.4152857 C11.5520286,89.5540714 11.4194571,89.7342857 11.3428143,89.9600714 L9.68567143,89.8668571 Z" id="Fill-17" fill="#343434"></path>
            <path d="M31.35675,89.1346071 C31.0191071,89.13875 30.73325,89.1905357 30.50125,89.3003214 C30.2609643,89.4163214 30.0786786,89.5654643 29.9440357,89.7581071 L29.9481786,90.2614643 C29.9564643,90.9740357 30.0931786,91.5291786 30.3603929,91.9248214 C30.6255357,92.3183929 30.9714643,92.5068929 31.40025,92.50275 C31.79175,92.5006786 32.1003929,92.3370357 32.3261786,92.0076786 C32.5561071,91.67625 32.6700357,91.2661071 32.6679643,90.7731071 C32.6596786,90.2593929 32.5416071,89.8575357 32.3096071,89.5654643 C32.0734643,89.2733929 31.7523929,89.1325357 31.35675,89.1346071 M31.7151071,84.3413214 C32.08175,84.33925 32.4214643,84.3620357 32.7280357,84.4283214 C33.03875,84.4946071 33.34325,84.5878214 33.6436071,84.71625 L33.3266786,86.0875357 C33.03875,85.9881071 32.7756786,85.91975 32.5416071,85.8700357 C32.3054643,85.8244643 32.0465357,85.8016786 31.7378929,85.80375 C31.1931071,85.8078929 30.7539643,86.0233214 30.4204643,86.4438214 C30.0911071,86.8643214 29.9274643,87.4505357 29.9336786,88.19625 L29.93575,88.4945357 C30.18225,88.2563214 30.4743214,88.0595357 30.8161071,87.9269643 C31.1599643,87.7881786 31.5390357,87.7115357 31.9698929,87.7094643 C32.7673929,87.70325 33.3929643,87.9849643 33.8466071,88.5463214 C34.30025,89.1076786 34.53225,89.8451071 34.5405357,90.7565357 C34.5488214,91.6948929 34.2546786,92.4530357 33.6808929,93.0433929 C33.1050357,93.63375 32.3489643,93.9320357 31.41475,93.93825 C30.4411786,93.9486071 29.6436786,93.61925 29.0263929,92.9626071 C28.4028929,92.29975 28.09425,91.3903929 28.0859643,90.2283214 L28.0693929,88.2791071 C28.0611071,87.09425 28.4028929,86.1393214 29.0864643,85.4226071 C29.7721071,84.7058929 30.6503929,84.3475357 31.7151071,84.3413214" id="Fill-19" fill="#343434"></path>
            <path d="M69.5669429,86.6768571 C69.5648714,86.3081429 69.4654429,86.0222857 69.2728,85.8047857 C69.0822286,85.5914286 68.8315857,85.4837143 68.5208714,85.4857857 C68.1749429,85.4899286 67.8890857,85.5997143 67.6840143,85.8089286 C67.4768714,86.0243571 67.3733,86.3143571 67.3774429,86.6934286 C67.3815857,87.0683571 67.4872286,87.3811429 67.7068,87.609 C67.9243,87.841 68.2018714,87.957 68.5560857,87.9549286 C68.8585143,87.9528571 69.1091571,87.8368571 69.2914429,87.6048571 C69.4778714,87.3687143 69.5690143,87.0642143 69.5669429,86.6768571 M69.9108,90.8031429 C69.9045857,90.3909286 69.7740857,90.0532857 69.5151571,89.7860714 C69.2541571,89.5250714 68.9351571,89.3945714 68.5560857,89.3966429 C68.1355857,89.4007857 67.7896571,89.5375 67.5120857,89.8026429 C67.2365857,90.074 67.1019429,90.4137143 67.1060857,90.8259286 C67.1081571,91.2505714 67.2490143,91.5923571 67.5245143,91.8409286 C67.8041571,92.0895 68.1583714,92.2117143 68.5892286,92.2075714 C68.9724429,92.2055 69.2893714,92.0770714 69.5400143,91.8243571 C69.7885857,91.5716429 69.9108,91.2277857 69.9108,90.8031429 M71.4291571,86.5774286 C71.4374429,87.0372857 71.3214429,87.4495 71.0832286,87.8037143 C70.8450143,88.1662143 70.5177286,88.4458571 70.1034429,88.653 C70.6150857,88.856 71.0231571,89.1542857 71.3193714,89.5416429 C71.6218,89.929 71.7771571,90.3764286 71.7833714,90.8818571 C71.7875143,91.7477143 71.4913,92.4188571 70.8947286,92.9056429 C70.3002286,93.3903571 69.5379429,93.6368571 68.5995857,93.6430714 C67.6198,93.6534286 66.8140143,93.4193571 66.1822286,92.9429286 C65.5525143,92.4665 65.2335143,91.7995 65.2252286,90.9336429 C65.2231571,90.4302857 65.3723,89.9828571 65.6809429,89.5872143 C65.9854429,89.1957143 66.4059429,88.8891429 66.9341571,88.6799286 C66.4888,88.479 66.1408,88.2014286 65.8901571,87.8451429 C65.6395143,87.4971429 65.5090143,87.0828571 65.5090143,86.6250714 C65.5007286,85.8027143 65.7762286,85.1709286 66.3293,84.7255714 C66.8844429,84.2781429 67.6156571,84.0544286 68.5105143,84.0461429 C69.3660143,84.0399286 70.0661571,84.2532857 70.6150857,84.6924286 C71.1536571,85.1295 71.4250143,85.7571429 71.4291571,86.5774286" id="Fill-21" fill="#343434"></path>
            <path d="M53.1309857,85.7401571 C52.0869857,86.9871571 51.3785571,88.1057286 51.0036286,89.0938 C50.6369857,90.0880857 50.4526286,91.2211571 50.4609143,92.4971571 L50.4733429,93.6550857 L48.5987,93.6695857 L48.5924857,92.5137286 C48.5800571,91.2211571 48.8099857,90.0321571 49.2822714,88.9529429 C49.7483429,87.8799429 50.4298429,86.8152286 51.3288429,85.7567286 L46.5666286,85.7940143 L46.5562714,84.3523 L53.1227,84.3005143 L53.1309857,85.7401571 Z" id="Fill-23" fill="#343434"></path>
            <path d="M76.7535571,76.8089857 C76.6437714,75.8250571 76.2999143,74.9467714 75.8317714,74.2735571 L75.8317714,74.2818429 C75.7302714,73.3787 74.2119143,60.2044143 70.6697714,55.7363429 C68.8759143,53.4826286 62.2452714,50.0772 62.2452714,50.0772 L62.2328429,50.0772 C60.0951286,48.8799143 55.0657,48.7432 55.0657,48.7432 L53.3132714,48.8260571 L53.1703429,48.8281286 L51.4262,48.7390571 C51.4262,48.7390571 46.4174857,49.0207714 44.2901286,50.2615571 L32.5637714,54.5722 L27.0517,48.2025571 C27.1428429,47.9477714 27.2070571,47.6681286 27.2567714,47.3760571 C27.5944143,46.7380571 27.8782,45.9364143 28.0418429,45.0477714 C28.4830571,42.7174143 27.9610571,40.6625571 26.8797714,40.4616286 C26.3018429,40.3539143 25.6866286,40.7992714 25.1667,41.5967714 C24.0046286,40.4906286 22.5691286,40.0349143 21.3801286,40.5465571 C19.5614143,41.3399143 18.9979857,44.0990571 20.1310571,46.7173429 C20.8602,48.3910571 22.1092714,49.6069857 23.3852714,50.0461286 C23.3852714,50.0461286 26.8673429,59.6844857 29.8419143,60.7347 C32.0024143,61.5011286 39.0390571,58.7606286 40.4372714,58.1992714 C37.9142714,68.2622714 37.7278429,83.5121286 37.7278429,83.5121286 L69.3026286,83.2614857 C69.3026286,83.2614857 68.9546286,70.0126286 66.7299143,60.0884143 L66.7299143,60.0780571 C66.9950571,60.5296286 67.4507714,61.0889143 68.0287,61.9029857 C69.7417714,64.2768429 71.3989143,74.3709143 71.3989143,74.3709143 C71.3637,74.4372 71.3243429,74.5076286 71.2932714,74.5801286 C70.8686286,75.0006286 70.4543429,75.5640571 70.1042714,76.2289857 C69.2052714,77.9586286 69.1244857,79.7069143 69.9240571,80.1253429 C70.3528429,80.3490571 70.9514857,80.1460571 71.5522,79.6427 C72.2026286,80.7923429 73.2238429,81.4945571 74.2864857,81.3785571 C75.9125571,81.1879857 77.0207714,79.1455571 76.7535571,76.8089857 Z" id="Fill-25" fill="#FDDFBB"></path>
            <path d="M69.3020071,83.2623143 C69.2812929,82.6160286 68.9477929,71.5670286 67.17465,62.2559571 C67.1352929,62.0550286 67.0917929,61.8375286 67.0400071,61.6407429 C63.5227214,57.7754571 63.0649357,54.1918857 62.2197929,50.0759571 C61.2710786,49.5498143 59.7485786,49.2287429 58.3503643,49.0361 C58.3503643,49.0361 58.4000786,55.2338143 53.3665071,55.2731714 C48.60015,55.3125286 48.7782929,49.0236714 48.7782929,49.0236714 C47.23715,49.2515286 45.3728643,49.6326714 44.2895071,50.2706714 C43.4443643,52.8661714 42.5930071,58.2643143 39.9187929,60.4745286 C37.9405786,70.1439571 37.7375786,82.8003857 37.7272214,83.5129571 L69.3020071,83.2623143 Z" id="Fill-27" fill="#E63744"></path>
            <path d="M61.8334714,55.0511143 L61.8459,56.8677571 C61.8583286,57.8309714 61.0774,58.6264 60.1079714,58.6326143 C59.1385429,58.6388286 58.3493286,57.8579 58.3431143,56.8967571 L58.3286143,55.0780429 L61.8334714,55.0511143 Z" id="Fill-29" fill="#0771B7"></path>
            <path d="M39.9600143,60.44615 C39.9600143,60.47515 39.9600143,60.44615 39.9600143,60.44615 L40.1423,83.4949357 L42.2158,83.4762929 L42.0086571,57.51715 C41.4700857,58.6833643 40.7803,59.7418643 39.9600143,60.44615" id="Fill-31" fill="#0771B7"></path>
            <path d="M64.8395286,58.63365 L65.0363143,83.2960786 L67.1139571,83.2774357 L66.9420286,61.51915 C66.0637429,60.5435071 65.3884571,59.5865071 64.8395286,58.63365" id="Fill-33" fill="#0771B7"></path>
            <polygon id="Fill-35" fill="#EEEEED" points="63.3021143 77.4768143 43.6649714 77.6321714 43.5634714 65.4397429 63.2047571 65.2843857"></polygon>
            <polygon id="Fill-37" fill="#99588C" points="63.2252643 67.7527 43.58605 67.9080571 43.5632643 65.4409857 63.20455 65.2856286"></polygon>
            <polygon id="Fill-39" fill="#99588C" points="63.3021143 77.4768143 43.6649714 77.6321714 43.6484 76.0765286 63.2896857 75.9211714"></polygon>
            <polygon id="Fill-41" fill="#FDDFBB" points="55.5402643 109.268271 63.9026214 109.201986 63.8964071 105.0612 64.1719071 97.3327 64.7581214 94.3498429 54.25805 94.4306286 54.2829071 97.4093429 54.5729071 105.1337"></polygon>
            <polygon id="Fill-43" fill="#FDDFBB" points="43.5446214 109.36335 52.5636214 109.292921 52.82255 105.150064 52.9861929 97.4215643 52.9592643 94.44285 42.4612643 94.5277786 43.0868357 97.4982071 43.4928357 105.222564"></polygon>
            <polygon id="Fill-45" fill="#343434" points="50.3434643 83.3714786 53.5189643 83.34455 56.4376071 83.3238357 65.8398214 83.2471929 64.8434643 94.5406214 54.1528214 94.62555 53.7178214 90.47855 53.4298929 90.4806214 53.0611786 94.6338357 42.3850357 94.7187643 41.2043214 83.4439786"></polygon>
            <path d="M54.5733214,105.133493 L63.8968214,105.060993 L64.1619643,109.011207 L64.1474643,109.011207 C64.4643929,109.205921 64.7709643,109.454493 65.0443929,109.709279 L65.0630357,112.246779 L57.4774643,112.304779 C57.3303929,112.221921 57.1936786,112.134921 57.05075,112.041707 C56.1911071,111.449279 55.1781786,110.792636 54.5940357,109.910207 C54.4179643,109.634707 54.3309643,109.346779 54.3931071,109.089921 L54.4096786,109.089921 L54.5733214,105.133493 Z" id="Fill-47" fill="#EEEEED"></path>
            <polygon id="Fill-49" fill="#6CC5D8" points="54.5550929 105.578643 63.9241643 105.504071 63.9407357 105.705 54.5426643 105.779571"></polygon>
            <path d="M41.7138929,110.7046 C42.1219643,110.108029 42.6750357,109.571529 43.2943929,109.180029 L43.2923214,109.180029 L43.4911786,105.2236 L52.8208929,105.149029 L53.0508214,109.101314 L53.0591071,109.101314 C53.1274643,109.360243 53.0404643,109.6461 52.8643929,109.923671 C52.29475,110.818529 51.29425,111.483457 50.43875,112.088314 C50.30825,112.185671 50.16325,112.276814 50.0203214,112.365886 L41.7263214,112.432171 L41.7138929,110.7046 Z" id="Fill-51" fill="#EEEEED"></path>
            <polygon id="Fill-53" fill="#6CC5D8" points="52.8579714 105.793036 43.4578286 105.865536 43.4681857 105.664607 52.8476143 105.592107"></polygon>
            <path d="M64.1375214,109.011414 L59.5120214,108.704843 C59.5120214,108.704843 60.7341643,106.993843 62.3747357,107.0622 C63.9510929,107.128486 64.1623786,108.998986 64.1623786,108.998986 L64.1375214,109.011414 Z" id="Fill-55" fill="#6E6E6D"></path>
            <path d="M63.5428143,108.839486 L60.3652429,108.624057 C60.3652429,108.624057 61.2103857,107.4537 62.3331,107.499271 C63.4206,107.542771 63.5614571,108.829129 63.5614571,108.829129 L63.5428143,108.839486 Z" id="Fill-57" fill="#343434"></path>
            <path d="M64.1375214,109.011414 L64.1623786,109.001057 L64.1623786,109.011414 L64.1478786,109.011414 C65.9873071,110.1652 67.3378786,112.439629 65.7863786,114.334986 C64.6118786,115.664843 62.8615214,114.641557 61.5295929,114.088486 C60.0630214,113.404914 58.3851643,112.9347 57.0511643,112.041914 C56.1915214,111.449486 55.1785929,110.792843 54.59445,109.910414 C54.4183786,109.634914 54.3313786,109.346986 54.3935214,109.090129 L54.3790214,107.3377 C54.3790214,107.3377 54.4908786,107.159557 54.9010214,107.331486 C55.7088786,107.683629 56.2515929,109.274486 57.9688071,109.059057 C62.2276643,107.843129 64.1375214,109.011414 64.1375214,109.011414" id="Fill-59" fill="#B52C39"></path>
            <path d="M54.7230857,110.089593 L54.9364429,109.892807 C54.9364429,109.892807 57.1466571,112.10095 59.0358,112.635379 L58.8742286,112.989593 C58.2320857,112.720307 57.6127286,112.413736 57.0513714,112.040879 C56.2518,111.49195 55.3238,110.889164 54.7230857,110.089593" id="Fill-61" fill="#343434"></path>
            <path d="M64.1375214,109.011414 L64.1623786,108.998986 L64.1623786,109.001057 L64.1478786,109.001057 C64.2038071,109.071486 64.2576643,109.071486 64.3011643,109.108771 C64.5890929,109.7302 64.5580214,110.390986 63.1370214,110.390986 C62.0288071,110.388914 60.4545214,109.386343 59.5120214,108.704843 C62.6875214,108.124843 64.1375214,109.011414 64.1375214,109.011414" id="Fill-63" fill="#343434"></path>
            <path d="M64.2104357,110.2232 C64.6910071,110.219057 65.15915,110.256343 65.60865,110.322629 C65.6148643,110.322629 65.6210786,110.328843 65.62315,110.335057 C66.5407929,111.5137 66.8639357,113.015486 65.7867929,114.334986 C64.6122929,115.664843 62.8619357,114.641557 61.5300071,114.088486 C60.5108643,113.622414 59.3985071,113.245414 58.3627929,112.762771 C59.5227929,111.265129 61.7040071,110.243914 64.2104357,110.2232" id="Fill-65" fill="#343434"></path>
            <path d="M54.4256286,107.534693 C54.8399143,107.532621 55.1817,108.292836 55.1879143,109.231193 C55.1941286,109.686907 55.1174857,110.101193 54.9869857,110.409836 C54.8440571,110.252407 54.7114857,110.084621 54.5934143,109.90855 C54.4173429,109.635121 54.3303429,109.347193 54.3924857,109.090336 L54.3800571,107.540907 C54.3987,107.534693 54.4090571,107.534693 54.4256286,107.534693" id="Fill-67" fill="#EEEEED"></path>
            <path d="M65.236,109.919736 C65.2546429,109.919736 65.2670714,109.905236 65.2691429,109.899021 C65.2691429,109.880379 65.2608571,109.863807 65.2422143,109.85345 C65.2235714,109.851379 63.1521429,109.36045 60.5027857,109.878307 C60.4862143,109.88245 60.4717143,109.901093 60.4758571,109.919736 C60.48,109.938379 60.4986429,109.944593 60.5172857,109.944593 C63.1521429,109.428807 65.2049286,109.917664 65.2277143,109.919736 L65.236,109.919736 Z" id="Fill-69" fill="#B52C39"></path>
            <path d="M64.6876929,109.426114 C64.7001214,109.426114 64.7146214,109.413686 64.7166929,109.403329 C64.7249786,109.384686 64.7146214,109.3619 64.69805,109.3619 C64.6794071,109.355686 62.7509071,108.736329 60.0891214,109.368114 C60.0704786,109.374329 60.0663357,109.386757 60.0663357,109.4054 C60.0704786,109.424043 60.08705,109.4344 60.0994786,109.432329 C62.7488357,108.806757 64.6566214,109.413686 64.6752643,109.426114 L64.6876929,109.426114 Z" id="Fill-71" fill="#B52C39"></path>
            <path d="M43.312,109.179407 L47.9292143,108.794121 C47.9292143,108.794121 46.6780714,107.107979 45.0457857,107.199121 C43.4652857,107.290264 43.2871429,109.164907 43.2871429,109.164907 L43.312,109.179407 Z" id="Fill-73" fill="#6E6E6D"></path>
            <path d="M43.9007,108.997329 L47.0741286,108.730114 C47.0741286,108.730114 46.2103429,107.572186 45.0917714,107.634329 C44.0084143,107.696471 43.8820571,108.986971 43.8820571,108.986971 L43.9007,108.997329 Z" id="Fill-75" fill="#343434"></path>
            <path d="M43.312,109.179407 L43.2871429,109.166979 L43.2912857,109.179407 L43.2933571,109.179407 C41.4746429,110.355979 40.1613571,112.657336 41.7480714,114.527836 C42.9391429,115.836979 44.6770714,114.784693 46.0027857,114.210907 C47.4610714,113.506621 49.1285714,113.009479 50.4418571,112.091836 C51.2952857,111.486979 52.2957857,110.817907 52.8633571,109.92305 C53.0394286,109.64755 53.1264286,109.359621 53.0580714,109.100693 L53.0456429,107.348264 C53.0456429,107.348264 52.9255,107.170121 52.5236429,107.352407 C51.7178571,107.71905 51.1958571,109.31405 49.4745,109.131764 C45.2032143,107.977979 43.312,109.179407 43.312,109.179407" id="Fill-77" fill="#B52C39"></path>
            <path d="M52.7386571,110.10575 L52.5273714,109.913107 C52.5273714,109.913107 50.3544429,112.156464 48.4653,112.717821 L48.6393,113.074107 C49.2773,112.790321 49.8945857,112.475464 50.4435143,112.09225 C51.2348,111.530893 52.1565857,110.913607 52.7386571,110.10575" id="Fill-79" fill="#343434"></path>
            <path d="M43.312,109.179407 L43.2871429,109.164907 L43.2912857,109.166979 L43.2933571,109.166979 C43.2498571,109.237407 43.196,109.237407 43.1504286,109.274693 C42.8687143,109.902336 42.9142857,110.56105 44.3332143,110.540336 C45.4435,110.519621 46.9991429,109.492193 47.9292143,108.794121 C44.7495714,108.267979 43.312,109.179407 43.312,109.179407" id="Fill-81" fill="#343434"></path>
            <path d="M43.2533786,110.390986 C42.77695,110.395129 42.3046643,110.434486 41.8593071,110.511129 C41.8593071,110.511129 41.8448071,110.519414 41.8448071,110.523557 C40.9458071,111.7167 40.64545,113.220557 41.74745,114.527629 C42.9405929,115.836771 44.67645,114.784486 46.0021643,114.2107 C47.0068071,113.730129 48.1233071,113.336557 49.1465929,112.835271 C47.9575929,111.356271 45.7618786,110.370271 43.2533786,110.390986" id="Fill-83" fill="#343434"></path>
            <path d="M52.9934429,107.546914 C52.5812286,107.551057 52.2560143,108.317486 52.2622286,109.255843 C52.2684429,109.713629 52.3533714,110.123771 52.4797286,110.430343 C52.6247286,110.268771 52.7531571,110.100986 52.8650143,109.922843 C53.0390143,109.647343 53.1260143,109.359414 53.0576571,109.100486 L53.0452286,107.551057 C53.0286571,107.546914 53.0120857,107.546914 52.9934429,107.546914" id="Fill-85" fill="#EEEEED"></path>
            <path d="M42.2236714,110.103886 C42.2236714,110.103886 42.1988143,110.089386 42.1946714,110.083171 C42.1884571,110.064529 42.2050286,110.050029 42.2174571,110.0376 C42.2402429,110.035529 44.3033857,109.511457 46.9610286,109.987886 C46.9713857,109.992029 46.9879571,110.010671 46.9858857,110.029314 C46.9858857,110.045886 46.9651714,110.054171 46.9651714,110.054171 C44.3054571,109.577743 42.2568143,110.099743 42.2361,110.103886 L42.2236714,110.103886 Z" id="Fill-87" fill="#B52C39"></path>
            <path d="M42.7738429,109.602186 C42.7572714,109.602186 42.7386286,109.589757 42.7386286,109.5794 C42.7324143,109.560757 42.7386286,109.537971 42.7572714,109.537971 C42.7759143,109.529686 44.6919857,108.879257 47.3662,109.469614 C47.3807,109.473757 47.3910571,109.488257 47.3869143,109.504829 C47.3807,109.523471 47.3682714,109.5359 47.3454857,109.533829 C44.6919857,108.953829 42.7945571,109.589757 42.7759143,109.602186 L42.7738429,109.602186 Z" id="Fill-89" fill="#B52C39"></path>
            <path d="M51.6644143,50.5503143 L55.3577714,50.5213143 C56.4121286,50.5130286 57.2510571,48.2406714 57.2428323,47.1987429 L49.7193429,47.2567429 C49.7255571,48.3007429 50.6038429,50.5606714 51.6644143,50.5503143" id="Fill-91" fill="#FDDFBB"></path>
            <path d="M50.5479143,49.7167714 L57.2158429,47.4568429 L57.2282714,47.4444143 C55.9895571,47.6702 54.7135571,47.7903429 53.4106286,47.8027714 C52.1574143,47.8110571 50.9332,47.7178429 49.7400571,47.5355571 C49.8146286,48.1777 50.1191286,49.0808429 50.5479143,49.7167714" id="Fill-93" fill="#EEAC6C"></path>
            <path d="M30.5981929,28.7638571 C30.42005,27.6535714 30.3226929,26.5225714 30.3144071,25.3667143 C30.2149786,12.8697857 40.2634786,2.66385714 52.7604071,2.56857143 C65.2511214,2.46914286 75.4549786,12.5093571 75.5544071,25.0083571 C75.5626929,26.1041429 75.4943357,27.1875 75.3493357,28.2522143 C76.66055,28.9523571 77.5491929,30.2987857 77.5657643,31.8461429 C77.5844071,34.1433571 75.6641929,36.0138571 73.2779071,36.0345714 C73.1204786,36.0345714 72.9526929,36.0304286 72.7973357,36.0117857 C68.9879786,42.9800714 61.6199071,47.7360714 53.1187643,47.8044286 C44.6217643,47.8727857 37.1811929,43.2431429 33.2579071,36.3494286 C33.1936929,36.3515 33.1253357,36.3515 33.0569786,36.3515 C30.66655,36.3722143 28.72355,34.5307143 28.7069786,32.2376429 C28.6904071,30.7917857 29.4444071,29.5178571 30.5981929,28.7638571" id="Fill-95" fill="#FDDFBB"></path>
            <g id="Page-1" transform="translate(40.000000, 22.000000)">
                <path d="M8.31106854,1.65026755 C8.31106854,1.65026755 7.80801591,3.45328977 6.22875275,3.09640088 C5.45712117,2.92235643 5.3211738,1.89471199 2.8433317,2.35573421 C2.06412117,2.53613421 0.42612117,3.51195643 0.110647486,4.16364532 C-0.205299883,4.8158231 0.0234895909,1.77248977 2.56764749,0.641689768 C4.4031738,-0.0329768984 5.02512117,0.000267546019 6.54470012,0.000267546019 C8.06427906,0.000267546019 8.53227906,0.907156435 8.31106854,1.65026755" id="Fill-1" fill="#F6B90C"></path>
                <path d="M18.05184,1.65026755 C18.05184,1.65026755 18.5548926,3.45328977 20.1341558,3.09640088 C20.9057873,2.92235643 21.0417347,1.89471199 23.5195768,2.35573421 C24.2987873,2.53613421 25.9367873,3.51195643 26.252261,4.16364532 C26.5682084,4.8158231 26.3394189,1.77248977 23.795261,0.641689768 C21.9597347,-0.0329768984 21.3377873,0.000267546019 19.8182084,0.000267546019 C18.2986294,0.000267546019 17.8306294,0.907156435 18.05184,1.65026755" id="Fill-3" fill="#F6B90C"></path>
                <path d="M6,9 C6,10.6568785 5.10453816,12 3.99983098,12 C2.89512381,12 2,10.6568785 2,9 C2,7.34312148 2.89512381,6 3.99983098,6 C5.10453816,6 6,7.34312148 6,9" id="Fill-5" fill="#6172BB"></path>
                <path d="M24,9 C24,10.6568785 23.1048762,12 22.000169,12 C20.8951238,12 20,10.6568785 20,9 C20,7.34312148 20.8951238,6 22.000169,6 C23.1048762,6 24,7.34312148 24,9" id="Fill-7" fill="#6172BB"></path>
                <path d="M13.0197368,12.0692 C13.8586316,11.9552889 15.9802632,13.8262667 15.9802632,13.8262667 C15.9802632,13.8262667 16.0825789,13.4116889 15.6396842,12.5884 C15.1626842,11.7025333 12.9903684,11 12.9903684,11 C12.9903684,11 11.3026316,11.4478222 10.5030526,12.6040444 C10.207,12.8939556 10,13.9025333 10,13.9025333 C10,13.9025333 11.8947368,12.2217333 13.0197368,12.0692 Z" id="Fill-9" fill="#EEAC6C"></path>
                <g id="Group-13" transform="translate(6.000000, 15.000000)">
                    <mask id="mask-2" fill="white">
                        <use xlink:href="#path-1"></use>
                    </mask>
                    <g id="Clip-12"></g>
                    <path d="M0.199373684,0.696031111 C0.199373684,0.696031111 7.09763684,3.90412 13.3734789,0.299053333 C13.3734789,0.299053333 11.9822684,5.76825333 7.42305789,5.86016444 C3.30768947,5.98238667 2.43942632,4.36807556 1.94632105,3.90412 C1.45274211,3.44114222 0.524794737,2.13238667 0.199373684,0.696031111" id="Fill-11" fill="#EEAC6C" mask="url(#mask-2)"></path>
                </g>
            </g>
            <path d="M76.5054,22.0499429 C76.4826143,20.8650857 76.3831857,19.4295857 76.2029714,17.8925857 C73.0875429,7.96837143 63.7764714,0.797085714 52.8289714,0.884085714 C43.2941857,0.958657143 35.0934,6.5163 31.1701143,14.5327286 C30.0971143,17.6875143 29.4487571,20.7822286 29.4052571,22.1783714 C29.2436857,27.0110143 32.8314,34.2258 32.8314,34.2258 C32.3425429,26.2715143 32.4295429,26.2860143 34.3394,24.8919429 C36.7111857,23.1519429 41.7178286,19.9205143 43.6380429,17.6937286 C44.0088286,17.2711571 44.7607571,15.7528 44.7607571,15.7528 C44.7607571,15.7528 44.6965429,16.9376571 45.3656143,17.4617286 C49.3883286,20.5833714 61.1685429,16.9811571 65.6656143,19.3840143 C69.3486143,21.3435857 73.8974714,33.9005857 73.8974714,33.9005857 C75.6809714,30.4578714 76.5654714,24.7034429 76.5054,22.0499429" id="Fill-113" fill="#F6B90C"></path>
        </g>
    </g>
</svg>