<?xml version="1.0" encoding="UTF-8"?>
<svg width="120px" height="120px" viewBox="0 0 120 120" version="1.1" xmlns="http://www.w3.org/2000/svg" xmlns:xlink="http://www.w3.org/1999/xlink">
    <!-- Generator: Sketch 51.1 (57501) - http://www.bohemiancoding.com/sketch -->
    <title>Motorcycle6</title>
    <desc>Created with Sketch.</desc>
    <defs></defs>
    <g id="Motorcycle6" stroke="none" stroke-width="1" fill="none" fill-rule="evenodd">
        <g id="Group" transform="translate(0.000000, 29.000000)">
            <path d="M77.7524942,0.556196667 L75.2799846,0.75033 C74.9088649,0.779496667 74.6311042,1.10616333 74.6600618,1.48019667 C74.6890193,1.85423 75.0142703,2.13236333 75.384695,2.10483 L77.8572046,1.91069667 C79.440139,1.78656333 80.9382857,5.19276333 81.337668,6.39653 C81.431722,6.68119667 81.6951197,6.86133 81.9772819,6.86133 C82.0479382,6.86133 82.1199846,6.85013 82.1904093,6.82633 C82.5439228,6.70779667 82.7350425,6.32326333 82.6171274,5.96719667 C82.4262394,5.38946333 80.6651583,0.328463333 77.7524942,0.556196667" id="Fill-53" fill="#BBBBBB"></path>
            <path d="M91.0354054,8.84522333 L84.4923938,9.17352333 L87.1171042,14.30009 L91.482278,9.85135667 C91.8587259,9.46775667 91.5703089,8.81839 91.0354054,8.84522333" id="Fill-55" fill="#242A20"></path>
            <path d="M93.8284402,4.50006667 C88.5943089,4.50006667 86.5714517,9.38396667 86.5714517,9.38396667 C86.5714517,9.38396667 87.2133822,11.4053333 87.4061236,12.4240667 C87.5986332,13.4428 91.5994054,15.4674333 94.0800232,15.0952667 C95.0393282,14.9515333 99.0625714,4.50006667 93.8284402,4.50006667" id="Fill-57" fill="#DBDBDB"></path>
            <path d="M93.1318842,4.52993333 C88.4141236,4.93593333 86.5714981,9.38396667 86.5714981,9.38396667 C86.5714981,9.38396667 87.2134286,11.4053333 87.4061699,12.4240667 C87.5687954,13.2843667 90.4450888,14.861 92.8300309,15.1076333 C92.86061,15.1036667 92.8909575,15.0999333 92.9210734,15.0952667 C93.8507259,14.9562 97.6559768,5.14103333 93.1318842,4.52993333" id="Fill-59" fill="#BDBDBD"></path>
            <path d="M22.2931737,57.9956067 C14.5751815,57.9956067 8.31850193,51.6935067 8.31850193,43.9200067 C8.31850193,36.14604 14.5751815,29.8444067 22.2931737,29.8444067 C30.011166,29.8444067 36.2678456,36.14604 36.2678456,43.9200067 C36.2678456,51.6935067 30.011166,57.9956067 22.2931737,57.9956067 M22.2931737,25.0400733 C11.9407413,25.0400733 3.54861776,33.4928067 3.54861776,43.9200067 C3.54861776,54.3469733 11.9407413,62.7997067 22.2931737,62.7997067 C32.6456062,62.7997067 41.0377297,54.3469733 41.0377297,43.9200067 C41.0377297,33.4928067 32.6456062,25.0400733 22.2931737,25.0400733" id="Fill-61" fill="#111211"></path>
            <path d="M22.2931737,56.3784667 C15.4619768,56.3784667 9.92390734,50.8006333 9.92390734,43.9198667 C9.92390734,37.0393333 15.4619768,31.4615 22.2931737,31.4615 C29.1243707,31.4615 34.6624402,37.0393333 34.6624402,43.9198667 C34.6624402,50.8006333 29.1243707,56.3784667 22.2931737,56.3784667 M22.2931737,29.8767 C14.5930193,29.8767 8.35047104,36.1638667 8.35047104,43.9198667 C8.35047104,51.6758667 14.5930193,57.9632667 22.2931737,57.9632667 C29.9933282,57.9632667 36.2358764,51.6758667 36.2358764,43.9198667 C36.2358764,36.1638667 29.9933282,29.8767 22.2931737,29.8767" id="Fill-63" fill="#797979"></path>
            <path d="M22.2931737,36.3129433 C18.1218996,36.3129433 14.7405869,39.7186767 14.7405869,43.9200767 C14.7405869,48.12101 18.1218996,51.5269767 22.2931737,51.5269767 C26.4642162,51.5269767 29.8457606,48.12101 29.8457606,43.9200767 C29.8457606,39.7186767 26.4642162,36.3129433 22.2931737,36.3129433" id="Fill-65" fill="#6F6F6F"></path>
            <path d="M20.4012046,36.1477433 C17.8647568,36.1477433 15.6044479,37.76031 14.7628263,40.17041 L13.4676139,43.8801767 C13.2818224,44.41241 13.8445251,44.89541 14.3368031,44.6263767 L17.8052201,42.72961 L40.0677683,42.72961 L37.1201236,36.1477433 L20.4012046,36.1477433 Z" id="Fill-67" fill="#FF7D15"></path>
            <path d="M43.8633591,48.7454567 L46.3683012,48.7454567 L48.7442085,39.81859 C48.7442085,39.81859 49.0013514,29.98639 49.7076834,26.7521567 C50.4140154,23.5179233 53.2701544,22.35359 53.2701544,22.35359 L31.1472973,23.32379 L43.8633591,48.7454567 Z" id="Fill-69" fill="#1C2019"></path>
            <path d="M27.0211737,21.82712 L27.3904402,23.84942 C27.5697452,24.5916533 28.6402471,24.6854533 29.3848031,24.53892 L30.505112,24.1324533 L30.1110579,21.86632 L27.0211737,21.82712 Z" id="Fill-71" fill="#242A20"></path>
            <path d="M83.9084479,15.83407 C83.4191815,15.62267 82.8530039,15.85087 82.6433514,16.34367 L69.2584865,47.7928033 C68.9091429,48.61367 68.0795676,49.1347033 67.1934672,49.0899033 L45.1241236,47.96547 L33.2774826,26.1747033 C32.6691429,25.0556367 33.4489112,23.6836367 34.715166,23.6456033 L54.5371737,23.0485033 C55.068834,23.0326367 55.4869807,22.5853367 55.4712278,22.0496033 C55.4552432,21.51387 55.0104556,21.0943367 54.4794903,21.10857 L30.347444,21.8356367 C30.0845097,21.84357 29.8282934,21.94577 29.6480618,22.13897 C29.3552432,22.45327 29.3061313,22.9099033 29.5030425,23.27227 L43.692695,49.37317 C43.8536988,49.6688033 44.1548571,49.85897 44.4891429,49.8762367 L67.0961699,51.02797 C67.1640463,51.03147 67.2316911,51.0333367 67.2991042,51.0333367 C68.9086795,51.0333367 70.3903784,50.0582367 71.0292973,48.5572033 L84.4143938,17.10807 C84.6238147,16.6157367 84.397251,16.0450033 83.9084479,15.83407" id="Fill-73" fill="#242A20"></path>
            <path d="M83.4797375,10.48334 C83.231861,9.97397333 82.6341776,9.74600667 82.1136371,9.96207333 L81.0301622,10.4114733 C80.5337143,10.6172733 80.3437529,11.22604 80.6337915,11.6808067 C80.8137915,11.96314 80.688695,12.3406733 80.376417,12.4575733 L79.1696988,12.9093067 L81.3049112,16.3537733 L83.9701622,18.9251067 L84.5676139,19.88784 C84.8708571,20.37644 85.4819768,20.5701067 86.0083089,20.3447067 L86.6891583,20.05304 C87.3405869,19.7739733 87.6259923,19.00164 87.3146409,18.3616067 L83.4797375,10.48334 Z" id="Fill-75" fill="#242A20"></path>
            <path d="M2.27944402,25.0703133 C2.27944402,26.9136467 5.6832278,25.4259133 6.03650965,25.5554133 C6.38979151,25.6849133 10.0636911,22.80348 10.3715676,22.35338 C10.3715676,22.35338 4.84832432,20.3483467 3.37125869,20.3483467 C1.89419305,20.3483467 2.27944402,23.2267467 2.27944402,25.0703133" id="Fill-77" fill="#BDBDBD"></path>
            <path d="M3.37123552,20.3482767 C1.89416988,20.3482767 2.27942085,23.2266767 2.27942085,25.0702433 C2.27942085,25.8955433 2.96189189,26.0525767 3.74722008,25.9865433 C3.09277992,23.3552433 3.73471042,21.1875767 4.02034749,20.4208433 C3.76111969,20.37441 3.53988417,20.3482767 3.37123552,20.3482767" id="Fill-79" fill="#D66D20"></path>
            <path d="M18.6241622,18.5693433 C18.6241622,18.5693433 7.20864093,21.9491767 3.98138224,27.6254767 C2.03219305,31.0538433 0.667945946,32.82531 0.0841621622,33.89561 C-0.0786949807,34.19381 0.239142857,34.5246767 0.540301158,34.3706767 C1.75860232,33.7476767 4.05898842,32.5989767 5.09010811,32.3140767 C5.35118919,32.24221 5.57242471,32.0688433 5.6989112,31.8280433 C6.76524324,29.7973433 12.0790656,21.1224767 25.1745869,20.86581 C25.1745869,20.86581 19.9045483,18.1488767 18.6241622,18.5693433" id="Fill-81" fill="#DBDBDB"></path>
            <path d="M76.1351583,9.90138333 C72.95539,9.90138333 61.264888,10.3251167 54.1028803,17.8561833 C53.884888,18.0850833 53.7090579,18.3510833 53.5851197,18.6425167 C53.0935367,19.79845 52.0123784,22.80635 54.0746178,22.80635 L77.0020309,22.80635 L78.2316834,22.80635 C78.8249653,22.80635 79.3860463,22.5366167 79.7597143,22.07205 C80.7345405,20.8601167 82.4251969,18.3468833 81.8668958,16.0627833 C81.0963938,12.9095167 79.362417,9.90138333 76.1351583,9.90138333" id="Fill-83" fill="#FF7D15"></path>
            <path d="M53.753722,16.62066 C52.9910965,16.6449267 37.1200541,17.0810267 34.9526409,16.6204267 C32.7849961,16.1595933 25.8490888,14.8984267 20.1173514,14.51016 L15.5643012,14.20216 C14.9265405,14.15876 14.3856139,14.66836 14.3856139,15.31236 L14.3856139,17.4951933 C14.3856139,17.9830933 14.7009035,18.4142933 15.163529,18.5584933 C18.0671583,19.46266 28.2833745,22.5638933 31.8217529,22.5638933 C35.5440695,22.5638933 49.5639151,21.60396 52.3700154,21.4091267 C52.6653822,21.3888267 52.9160386,21.18536 52.9994363,20.8992933 L53.753722,18.3137267 C53.753722,18.3137267 54.5165792,16.5963933 53.753722,16.62066" id="Fill-85" fill="#363636"></path>
            <path d="M48.2716911,24.68228 L36.01061,24.68228 C35.0209575,24.68228 34.3813436,25.73648 34.8328494,26.62338 L39.9622703,36.70058 C40.1886023,37.1455467 40.6433514,37.4253133 41.1400309,37.4253133 L48.2716911,37.4253133 C49.0025792,37.4253133 49.5953977,36.82868 49.5953977,36.09228 L49.5953977,26.0153133 C49.5953977,25.2791467 49.0025792,24.68228 48.2716911,24.68228" id="Fill-87" fill="#FF7D15"></path>
            <path d="M68.7783707,37.0999767 C68.5948958,36.7688767 68.5434672,36.3796767 68.634973,36.01171 L69.4240077,32.8325433 L69.4240077,31.25731 C69.4240077,30.8741767 69.5532741,30.50271 69.7907259,30.2035767 L70.9652432,28.7249433 L70.9652432,24.97901 C70.9652432,24.7258433 70.7616139,24.52051 70.5102625,24.52051 L66.0257838,24.52051 C65.7742008,24.52051 65.5705714,24.7258433 65.5705714,24.97901 L65.5705714,26.5502767 C65.5705714,27.1618433 65.0782934,27.6576767 64.4708803,27.6576767 L64.1013822,27.6576767 C63.4939691,27.6576767 63.0016911,27.1618433 63.0016911,26.5502767 L63.0016911,24.97901 C63.0016911,24.7258433 62.7980618,24.52051 62.5467104,24.52051 L58.3191429,24.52051 C58.0677915,24.52051 57.8639305,24.7258433 57.8639305,24.97901 L57.8639305,27.63341 C57.8639305,27.92461 57.9424633,28.2099767 58.0909575,28.4596433 L59.081305,30.1216767 C59.2935058,30.4779767 59.4084093,30.8844433 59.4144324,31.30001 L59.4373668,32.8971767 L60.1411506,35.8336767 C60.258139,36.3222767 60.0563629,36.83211 59.6375212,37.10511 L58.0566718,38.13691 L67.8572896,49.01701 C67.8572896,49.01701 68.9423861,49.0041767 69.1990656,48.74541 C69.4559768,48.4866433 73.6786795,37.97521 73.6786795,37.97521 L69.2634672,37.97521 L68.7783707,37.0999767 Z" id="Fill-89" fill="#C5C5C5"></path>
            <polygon id="Fill-91" fill="#242A20" points="58.152973 24.5205333 62.6483398 24.5205333 62.6483398 22.8062333 58.152973 22.8062333"></polygon>
            <polygon id="Fill-93" fill="#242A20" points="66.0196911 24.5205333 70.5152896 24.5205333 70.5152896 22.8062333 66.0196911 22.8062333"></polygon>
            <path d="M41.9682162,40.2944033 C41.1824247,40.40197 40.4962471,40.8840367 40.1248958,41.58987 L39.7255135,42.3484367 C39.4646641,42.8440367 38.9598764,43.15997 38.4031969,43.1763033 L17.2398764,43.7930033 C16.8571737,43.8042033 16.5530039,44.1199033 16.5530039,44.5051367 L16.5530039,44.60547 C16.5530039,45.01707 16.8981776,45.3430367 17.3061313,45.3162033 L29.3209575,44.9685367 C29.6554749,44.9587367 29.8007259,45.39087 29.5292201,45.5878033 L29.159027,45.8561367 C28.8854363,46.05447 28.9975598,46.48777 29.3323089,46.5267367 L41.7439691,47.9692033 L49.4781776,48.61647 L48.5195676,39.39817 L41.9682162,40.2944033 Z" id="Fill-94" fill="#BDBDBD"></path>
            <path d="M24.9640541,42.72961 L22.7482239,42.72961 C22.5582625,42.72961 22.3905405,42.85351 22.3335521,43.0359767 L22.1410425,43.65011 L25.5608108,43.55071 L25.3740927,43.0210433 C25.3122394,42.8462767 25.1482239,42.72961 24.9640541,42.72961" id="Fill-95" fill="#8D8D8D"></path>
            <path d="M102.202378,58.2606267 C94.9101776,58.2606267 88.9989035,52.30666 88.9989035,44.9620267 C88.9989035,37.61716 94.9101776,31.6631933 102.202378,31.6631933 C109.494579,31.6631933 115.405622,37.61716 115.405622,44.9620267 C115.405622,52.30666 109.494579,58.2606267 102.202378,58.2606267 M102.202378,27.12416 C92.4212201,27.12416 84.492417,35.1102267 84.492417,44.9620267 C84.492417,54.8135933 92.4212201,62.79966 102.202378,62.79966 C111.983305,62.79966 119.91234,54.8135933 119.91234,44.9620267 C119.91234,35.1102267 111.983305,27.12416 102.202378,27.12416" id="Fill-96" fill="#111211"></path>
            <path d="M102.202378,56.7327833 C95.7480927,56.7327833 90.5158147,51.4627167 90.5158147,44.96205 C90.5158147,38.4609167 95.7480927,33.1910833 102.202378,33.1910833 C108.656432,33.1910833 113.88871,38.4609167 113.88871,44.96205 C113.88871,51.4627167 108.656432,56.7327833 102.202378,56.7327833 M102.202378,31.69355 C94.9270888,31.69355 89.029251,37.6339833 89.029251,44.96205 C89.029251,52.28965 94.9270888,58.2300833 102.202378,58.2300833 C109.477668,58.2300833 115.375274,52.28965 115.375274,44.96205 C115.375274,37.6339833 109.477668,31.69355 102.202378,31.69355" id="Fill-97" fill="#797979"></path>
            <path d="M102.202378,37.7746833 C98.2613745,37.7746833 95.0665483,40.9925833 95.0665483,44.96205 C95.0665483,48.9312833 98.2613745,52.14895 102.202378,52.14895 C106.143151,52.14895 109.337977,48.9312833 109.337977,44.96205 C109.337977,40.9925833 106.143151,37.7746833 102.202378,37.7746833" id="Fill-98" fill="#6F6F6F"></path>
            <path d="M89.7664633,29.21016 C89.7664633,29.21016 79.6032973,36.76876 82.6378147,50.1683933 L84.1065405,49.0525933 L85.121444,48.2027933 C84.9261544,47.15256 84.8230656,46.0694267 84.8230656,44.9620267 C84.8230656,35.2943267 92.6040695,27.4571267 102.202448,27.4571267 C104.418278,27.4571267 106.537042,27.8757267 108.485768,28.6373267 L108.535344,28.59556 L112.228008,27.12416 C112.228008,27.12416 100.122139,21.30226 89.7664633,29.21016" id="Fill-99" fill="#DBDBDB"></path>
            <path d="M83.881529,6.30658 C83.5243089,5.58791333 82.656278,5.29671333 81.9427645,5.65674667 C81.2290193,6.01654667 80.9403707,6.89084667 81.2973591,7.60974667 L100.910178,47.0680467 C101.163614,47.57788 101.67373,47.87258 102.203537,47.87258 C102.420834,47.87258 102.641375,47.82288 102.849174,47.7183467 C103.562919,47.3583133 103.851799,46.48378 103.494347,45.7651133 L83.881529,6.30658 Z" id="Fill-100" fill="#C5C5C5"></path>
            <path d="M69.6165637,28.9513233 C69.1910039,28.9513233 68.8460618,29.29899 68.8460618,29.7276233 C68.8460618,30.1562567 69.1910039,30.5039233 69.6165637,30.5039233 C71.1381081,30.5039233 72.3950965,31.1605233 73.3527799,32.45529 C73.8272201,33.0969567 73.9326255,33.9586567 73.6277606,34.7041567 C72.4289189,37.63739 69.4502317,44.92929 67.6942471,49.28049 C67.0066795,50.9845233 65.2585714,52.0312567 63.4437452,51.8245233 L40.782973,49.2536567 C40.577027,48.28929 39.7826641,47.5232567 38.7605792,47.40239 C34.5202703,46.90189 25.6784942,45.8635567 24.3318533,45.7536567 C22.673861,45.6183233 20.0572587,45.35699 18.6147104,46.1610567 C18.3930116,46.28449 18.1409653,46.34119 17.8891506,46.31319 L10.2879151,45.4671233 C9.91725869,45.4258233 9.5927027,45.7184233 9.5927027,46.0945567 L9.5927027,47.20569 C9.5927027,47.5358567 9.84567568,47.8102567 10.1725483,47.83499 L17.6994208,48.4008233 C17.9903861,48.4227567 18.2646718,48.5389567 18.4912355,48.7242233 C18.9601158,49.1071233 20.2696911,49.8066567 23.8509266,50.36269 C28.3449035,51.0601233 36.4657529,51.9262567 38.61139,52.1509567 C38.9762548,52.1892233 39.343668,52.1033567 39.652471,51.9038567 C40.0886873,51.6224567 40.6585714,51.19079 40.7479923,50.8118567 L63.2711583,53.3675567 C63.4810425,53.3911233 63.6897683,53.40279 63.8973359,53.40279 C66.1632046,53.40279 68.2550965,52.0137567 69.1222008,49.86499 C70.8767954,45.51659 73.854556,38.22749 75.053166,35.29519 C75.5630502,34.0482567 75.3849035,32.60439 74.5889189,31.5280233 C73.7197297,30.35249 72.15139,28.9513233 69.6165637,28.9513233" id="Fill-101" fill="#DBDBDB"></path>
            <path d="M67.2203166,42.3937267 C64.7160695,40.7519933 58.6407799,37.10056 53.8340618,36.8756267 C53.8340618,36.8756267 48.1984633,37.1665933 47.7168417,39.8832933 C47.2349884,42.6002267 45.5010116,48.2279933 48.43939,48.51896 C51.377305,48.81016 67.7542934,50.1683933 67.7542934,50.1683933 L68.2581544,44.54436 C68.3350656,43.6891933 67.9352201,42.86226 67.2203166,42.3937267" id="Fill-102" fill="#DBDBDB"></path>
            <path d="M29.0099537,25.2316633 L26.994973,24.80303 C26.6831583,24.7367633 26.3782934,24.9411633 26.3189884,25.2563967 L23.4929653,40.2508633 C23.3917297,40.7884633 23.7253205,41.3120633 24.2528108,41.4431967 L24.6579846,41.54353 C25.2084093,41.6804967 25.7641622,41.33983 25.8969035,40.7844967 L29.4452432,25.9260633 C29.5200695,25.61223 29.32339,25.2981633 29.0099537,25.2316633" id="Fill-103" fill="#BDBDBD"></path>
            <path d="M29.0099537,25.2316633 L26.994973,24.80303 C26.6831583,24.7367633 26.3782934,24.9411633 26.3189884,25.2563967 L25.0402239,32.0412633 L27.8289498,32.69343 L29.4452432,25.9260633 C29.5200695,25.61223 29.32339,25.2981633 29.0099537,25.2316633" id="Fill-104" fill="#FF7D15"></path>
            <polygon id="Fill-105" fill="#BDBDBD" points="23.9224865 41.95737 24.6691274 42.2243033 24.9392432 41.3752033 24.0911351 41.1568033"></polygon>
            <path d="M28.1611506,22.9942533 C27.4406873,22.9942533 26.8566718,23.5824867 26.8566718,24.3081533 C26.8566718,25.0335867 27.4406873,25.6220533 28.1611506,25.6220533 C28.8813822,25.6220533 29.4656293,25.0335867 29.4656293,24.3081533 C29.4656293,23.5824867 28.8813822,22.9942533 28.1611506,22.9942533" id="Fill-106" fill="#DBDBDB"></path>
            <path d="M24.1401081,41.80127 C23.699027,41.80127 23.341112,42.1615367 23.341112,42.6060367 C23.341112,43.0505367 23.699027,43.4108033 24.1401081,43.4108033 C24.5814208,43.4108033 24.9391042,43.0505367 24.9391042,42.6060367 C24.9391042,42.1615367 24.5814208,41.80127 24.1401081,41.80127" id="Fill-107" fill="#DBDBDB"></path>
            <path d="M74.392749,0.231023333 C73.9347568,0.285156667 73.6331351,0.922623333 73.7186178,1.65435667 C73.8041004,2.38609 74.2444865,2.93535667 74.7027104,2.88099 C75.160471,2.82662333 75.4623243,2.18962333 75.3768417,1.45765667 C75.2913591,0.725923333 74.8507413,0.17689 74.392749,0.231023333" id="Fill-108" fill="#202020"></path>
            <path d="M73.847305,0.829173333 L69.9378069,1.44377333 C69.9378069,1.44377333 69.4239846,1.67010667 69.4239846,2.33300667 C69.4239846,2.99614 69.7450656,3.20637333 70.4676139,3.20637333 C71.0727104,3.20637333 73.3909344,2.87714 74.1271506,2.77027333 C74.291861,2.74647333 74.4403552,2.65780667 74.5376525,2.52177333 C74.6632124,2.34677333 74.8008185,2.08287333 74.7672278,1.79727333 C74.7199691,1.39827333 74.4012046,0.829173333 73.847305,0.829173333" id="Fill-109" fill="#363636"></path>
        </g>
    </g>
</svg>