<?xml version="1.0" encoding="UTF-8"?>
<svg width="480px" height="360px" viewBox="0 0 480 360" version="1.1" xmlns="http://www.w3.org/2000/svg" xmlns:xlink="http://www.w3.org/1999/xlink">
    <!-- Generator: Sketch 51.1 (57501) - http://www.bohemiancoding.com/sketch -->
    <title>Bedroom3</title>
    <desc>Created with Sketch.</desc>
    <defs>
        <polyline id="path-1" points="148.035056 0.246741573 146.85573 0.246741573 25.854382 0.246741573 0.115955056 66.2737079 146.85573 66.2737079 148.035056 66.2737079 294.774831 66.2737079 269.037303 0.246741573"></polyline>
        <polyline id="path-3" points="148.035056 0.246741573 146.85573 0.246741573 25.854382 0.246741573 0.115955056 66.2737079 146.85573 66.2737079 148.035056 66.2737079 294.774831 66.2737079 269.037303 0.246741573"></polyline>
        <polyline id="path-5" points="148.035056 0.246741573 146.85573 0.246741573 25.854382 0.246741573 0.115955056 66.2737079 146.85573 66.2737079 148.035056 66.2737079 294.774831 66.2737079 269.037303 0.246741573"></polyline>
        <polyline id="path-7" points="148.035056 0.246741573 146.85573 0.246741573 25.854382 0.246741573 0.115955056 66.2737079 146.85573 66.2737079 148.035056 66.2737079 294.774831 66.2737079 269.037303 0.246741573"></polyline>
        <polyline id="path-9" points="148.035056 0.246741573 146.85573 0.246741573 25.854382 0.246741573 0.115955056 66.2737079 146.85573 66.2737079 148.035056 66.2737079 294.774831 66.2737079 269.037303 0.246741573"></polyline>
        <polyline id="path-11" points="148.035056 0.246741573 146.85573 0.246741573 25.854382 0.246741573 0.115955056 66.2737079 146.85573 66.2737079 148.035056 66.2737079 294.774831 66.2737079 269.037303 0.246741573"></polyline>
        <polyline id="path-13" points="148.035056 0.246741573 146.85573 0.246741573 25.854382 0.246741573 0.115955056 66.2737079 146.85573 66.2737079 148.035056 66.2737079 294.774831 66.2737079 269.037303 0.246741573"></polyline>
        <polyline id="path-15" points="148.035056 0.246741573 146.85573 0.246741573 25.854382 0.246741573 0.115955056 66.2737079 146.85573 66.2737079 148.035056 66.2737079 294.774831 66.2737079 269.037303 0.246741573"></polyline>
        <polyline id="path-17" points="148.035056 0.246741573 146.85573 0.246741573 25.854382 0.246741573 0.115955056 66.2737079 146.85573 66.2737079 148.035056 66.2737079 294.774831 66.2737079 269.037303 0.246741573"></polyline>
        <polyline id="path-19" points="148.035056 0.246741573 146.85573 0.246741573 25.854382 0.246741573 0.115955056 66.2737079 146.85573 66.2737079 148.035056 66.2737079 294.774831 66.2737079 269.037303 0.246741573"></polyline>
        <polyline id="path-21" points="148.035056 0.246741573 146.85573 0.246741573 25.854382 0.246741573 0.115955056 66.2737079 146.85573 66.2737079 148.035056 66.2737079 294.774831 66.2737079 269.037303 0.246741573"></polyline>
        <polyline id="path-23" points="148.035056 0.246741573 146.85573 0.246741573 25.854382 0.246741573 0.115955056 66.2737079 146.85573 66.2737079 148.035056 66.2737079 294.774831 66.2737079 269.037303 0.246741573"></polyline>
        <polyline id="path-25" points="148.035056 0.246741573 146.85573 0.246741573 25.854382 0.246741573 0.115955056 66.2737079 146.85573 66.2737079 148.035056 66.2737079 294.774831 66.2737079 269.037303 0.246741573"></polyline>
        <path d="M9.49617978,30.6395506 L0.162247191,0.353258427 C0.162247191,0.353258427 1.13078652,0.168089888 1.74247191,0.149213483 C2.84674157,0.114606742 3.17303371,0.162696629 3.17303371,0.162696629 L12.2993258,29.7757303 L9.49617978,30.6395506 Z" id="path-27"></path>
        <linearGradient x1="88.4516775%" y1="98.5846269%" x2="11.5485177%" y2="-0.706086864%" id="linearGradient-29">
            <stop stop-color="#FFFFFF" offset="0%"></stop>
            <stop stop-color="#FFFFFF" offset="100%"></stop>
        </linearGradient>
        <path d="M9.5352809,30.8791011 L0.201348315,0.592808989 C0.201348315,0.592808989 1.16988764,0.407640449 1.78157303,0.388314607 C2.88539326,0.354157303 3.21168539,0.402247191 3.21168539,0.402247191 L12.3379775,30.0152809 L9.5352809,30.8791011 Z" id="path-30"></path>
        <linearGradient x1="88.4524874%" y1="98.5838553%" x2="11.5468964%" y2="-0.705733996%" id="linearGradient-32">
            <stop stop-color="#FFFFFF" offset="0%"></stop>
            <stop stop-color="#FFFFFF" offset="100%"></stop>
        </linearGradient>
    </defs>
    <g id="Bedroom3" stroke="none" stroke-width="1" fill="none" fill-rule="evenodd">
        <g id="Group" transform="translate(-1.000000, 0.000000)">
            <polygon id="Fill-1" fill="#96573D" points="0 359.725393 481 359.725393 481 0.174831461 0 0.174831461"></polygon>
            <polygon id="Fill-2" fill="#F7D7D2" points="0 237.77573 481 237.77573 481 0 0 0"></polygon>
            <path d="M0,237.77573 L0,0 L2.87101124,0 L2.87101124,237.77573 L0,237.77573 Z M8.98831461,237.77573 L8.98831461,0 L11.8593258,0 L11.8593258,237.77573 L8.98831461,237.77573 Z M17.9770787,237.77573 L17.9770787,0 L20.8480899,0 L20.8480899,237.77573 L17.9770787,237.77573 Z M26.9658427,237.77573 L26.9658427,0 L29.8373034,0 L29.8373034,237.77573 L26.9658427,237.77573 Z M35.9546067,237.77573 L35.9546067,0 L38.8260674,0 L38.8260674,237.77573 L35.9546067,237.77573 Z M44.9433708,237.77573 L44.9433708,0 L47.814382,0 L47.814382,237.77573 L44.9433708,237.77573 Z M53.9321348,237.77573 L53.9321348,0 L56.8031461,0 L56.8031461,237.77573 L53.9321348,237.77573 Z M62.9208989,237.77573 L62.9208989,0 L65.7923596,0 L65.7923596,237.77573 L62.9208989,237.77573 Z M71.9096629,237.77573 L71.9096629,0 L74.7811236,0 L74.7811236,237.77573 L71.9096629,237.77573 Z M80.8988764,237.77573 L80.8988764,0 L83.7698876,0 L83.7698876,237.77573 L80.8988764,237.77573 Z M89.887191,237.77573 L89.887191,0 L92.7582022,0 L92.7582022,237.77573 L89.887191,237.77573 Z M98.8759551,237.77573 L98.8759551,0 L101.746966,0 L101.746966,237.77573 L98.8759551,237.77573 Z M107.864719,237.77573 L107.864719,0 L110.73618,0 L110.73618,237.77573 L107.864719,237.77573 Z M116.853483,237.77573 L116.853483,0 L119.724944,0 L119.724944,237.77573 L116.853483,237.77573 Z M125.842697,237.77573 L125.842697,0 L128.713708,0 L128.713708,237.77573 L125.842697,237.77573 Z M134.831011,237.77573 L134.831011,0 L137.702022,0 L137.702022,237.77573 L134.831011,237.77573 Z M143.819775,237.77573 L143.819775,0 L146.691236,0 L146.691236,237.77573 L143.819775,237.77573 Z M152.808539,237.77573 L152.808539,0 L155.68,0 L155.68,237.77573 L152.808539,237.77573 Z M161.797753,237.77573 L161.797753,0 L164.668764,0 L164.668764,237.77573 L161.797753,237.77573 Z M170.786067,237.77573 L170.786067,0 L173.657079,0 L173.657079,237.77573 L170.786067,237.77573 Z M179.774831,237.77573 L179.774831,0 L182.645843,0 L182.645843,237.77573 L179.774831,237.77573 Z M188.763596,237.77573 L188.763596,0 L191.635056,0 L191.635056,237.77573 L188.763596,237.77573 Z M197.75236,237.77573 L197.75236,0 L200.62382,0 L200.62382,237.77573 L197.75236,237.77573 Z M206.741573,237.77573 L206.741573,0 L209.612584,0 L209.612584,237.77573 L206.741573,237.77573 Z M215.729888,237.77573 L215.729888,0 L218.600899,0 L218.600899,237.77573 L215.729888,237.77573 Z M224.718652,237.77573 L224.718652,0 L227.590112,0 L227.590112,237.77573 L224.718652,237.77573 Z M233.707416,237.77573 L233.707416,0 L236.578876,0 L236.578876,237.77573 L233.707416,237.77573 Z M242.696629,237.77573 L242.696629,0 L245.56764,0 L245.56764,237.77573 L242.696629,237.77573 Z M251.684944,237.77573 L251.684944,0 L254.555955,0 L254.555955,237.77573 L251.684944,237.77573 Z M260.673708,237.77573 L260.673708,0 L263.544719,0 L263.544719,237.77573 L260.673708,237.77573 Z M269.662472,237.77573 L269.662472,0 L272.533933,0 L272.533933,237.77573 L269.662472,237.77573 Z M278.651236,237.77573 L278.651236,0 L281.522697,0 L281.522697,237.77573 L278.651236,237.77573 Z M287.64,237.77573 L287.64,0 L290.511011,0 L290.511011,237.77573 L287.64,237.77573 Z M296.628764,237.77573 L296.628764,0 L299.499775,0 L299.499775,237.77573 L296.628764,237.77573 Z M305.617528,237.77573 L305.617528,0 L308.488989,0 L308.488989,237.77573 L305.617528,237.77573 Z M314.606292,237.77573 L314.606292,0 L317.477753,0 L317.477753,237.77573 L314.606292,237.77573 Z M323.595506,237.77573 L323.595506,0 L326.466517,0 L326.466517,237.77573 L323.595506,237.77573 Z M332.58382,237.77573 L332.58382,0 L335.454831,0 L335.454831,237.77573 L332.58382,237.77573 Z M341.572584,237.77573 L341.572584,0 L344.443596,0 L344.443596,237.77573 L341.572584,237.77573 Z M350.561348,237.77573 L350.561348,0 L353.432809,0 L353.432809,237.77573 L350.561348,237.77573 Z" id="Combined-Shape" fill="#F5CFC6"></path>
            <path d="M360,237.77573 L360,0 L362.871011,0 L362.871011,237.77573 L360,237.77573 Z M368.988315,237.77573 L368.988315,0 L371.859326,0 L371.859326,237.77573 L368.988315,237.77573 Z M377.977079,237.77573 L377.977079,0 L380.84809,0 L380.84809,237.77573 L377.977079,237.77573 Z M386.965843,237.77573 L386.965843,0 L389.837303,0 L389.837303,237.77573 L386.965843,237.77573 Z M395.954607,237.77573 L395.954607,0 L398.826067,0 L398.826067,237.77573 L395.954607,237.77573 Z M404.943371,237.77573 L404.943371,0 L407.814382,0 L407.814382,237.77573 L404.943371,237.77573 Z M413.932135,237.77573 L413.932135,0 L416.803146,0 L416.803146,237.77573 L413.932135,237.77573 Z M422.920899,237.77573 L422.920899,0 L425.79236,0 L425.79236,237.77573 L422.920899,237.77573 Z M431.909663,237.77573 L431.909663,0 L434.781124,0 L434.781124,237.77573 L431.909663,237.77573 Z M440.898876,237.77573 L440.898876,0 L443.769888,0 L443.769888,237.77573 L440.898876,237.77573 Z M449.887191,237.77573 L449.887191,0 L452.758202,0 L452.758202,237.77573 L449.887191,237.77573 Z M458.875955,237.77573 L458.875955,0 L461.746966,0 L461.746966,237.77573 L458.875955,237.77573 Z M467.864719,237.77573 L467.864719,0 L470.73618,0 L470.73618,237.77573 L467.864719,237.77573 Z" id="Combined-Shape" fill="#F5CFC6"></path>
            <polygon id="Fill-43" fill="#E2B5B2" points="0 230.961348 481 230.961348 481 228 0 228"></polygon>
            <polygon id="Fill-44" fill="#EFDAD9" points="0.572265625 245.021124 481.572266 245.021124 481.572266 230.879551 0.572265625 230.879551"></polygon>
            <g id="Group-112" transform="translate(56.292135, 159.275955)">
                <path d="M222.205933,70.5209888 C222.205933,70.5209888 221.906157,65.6571685 221.456719,63.0158202 C221.007281,60.3744719 224.902112,55.730427 224.752449,50.7866067 C224.602787,45.8427865 220.672899,37.8562697 219.941213,32.860764 C219.209528,27.8652584 217.262112,22.6221124 215.164584,22.3223371 L213.067056,22.0225618 L213.067056,13.7825618 C213.067056,13.7825618 220.904809,6.99559551 211.36818,0.352 L204.977169,8.38975281 L206.502562,24.719191 L208.872449,70.5209888 L222.205933,70.5209888 Z" id="Fill-108" fill="#E2B5B2"></path>
                <polygon id="Fill-110" fill="#EC9FC5" points="269.037034 96.426427 148.035236 96.426427 146.85591 96.426427 25.8541124 96.426427 0.115685393 162.453393 146.85591 162.453393 148.035236 162.453393 294.775011 162.453393"></polygon>
            </g>
            <g id="Group-152" transform="translate(56.292135, 255.455730)">
                <g id="Group-115">
                    <mask id="mask-2" fill="white">
                        <use xlink:href="#path-1"></use>
                    </mask>
                    <g id="Clip-114"></g>
                    <path d="M117.807685,44.5338876 C117.807685,51.9986067 104.945663,58.0502921 89.0786966,58.0502921 C73.2130787,58.0502921 60.3506067,51.9986067 60.3506067,44.5338876 C60.3506067,37.0687191 73.2130787,31.0174831 89.0786966,31.0174831 C104.945663,31.0174831 117.807685,37.0687191 117.807685,44.5338876" id="Fill-113" fill="#EFB7D4" mask="url(#mask-2)"></path>
                </g>
                <g id="Group-118">
                    <mask id="mask-4" fill="white">
                        <use xlink:href="#path-3"></use>
                    </mask>
                    <g id="Clip-117"></g>
                    <path d="M115.502337,14.2850337 C115.502337,20.0405393 105.584584,24.7066067 93.3517753,24.7066067 C81.1180674,24.7066067 71.2012135,20.0405393 71.2012135,14.2850337 C71.2012135,8.52907865 81.1180674,3.86346067 93.3517753,3.86346067 C105.584584,3.86346067 115.502337,8.52907865 115.502337,14.2850337" id="Fill-116" fill="#EFB7D4" mask="url(#mask-4)"></path>
                </g>
                <g id="Group-121">
                    <mask id="mask-6" fill="white">
                        <use xlink:href="#path-5"></use>
                    </mask>
                    <g id="Clip-120"></g>
                    <path d="M59.6624719,65.6416629 C59.6624719,75.950427 42.2822472,84.306382 20.8422472,84.306382 C-0.597752809,84.306382 -17.9775281,75.950427 -17.9775281,65.6416629 C-17.9775281,55.3328989 -0.597752809,46.9769438 20.8422472,46.9769438 C42.2822472,46.9769438 59.6624719,55.3328989 59.6624719,65.6416629" id="Fill-119" fill="#EFB7D4" mask="url(#mask-6)"></path>
                </g>
                <g id="Group-124">
                    <mask id="mask-8" fill="white">
                        <use xlink:href="#path-7"></use>
                    </mask>
                    <g id="Clip-123"></g>
                    <path d="M48.8316404,28.1438652 C48.8316404,35.5762247 36.3004045,41.6009438 20.842427,41.6009438 C5.38444944,41.6009438 -7.14633708,35.5762247 -7.14633708,28.1438652 C-7.14633708,20.7110562 5.38444944,14.6863371 20.842427,14.6863371 C36.3004045,14.6863371 48.8316404,20.7110562 48.8316404,28.1438652" id="Fill-122" fill="#EFB7D4" mask="url(#mask-8)"></path>
                </g>
                <g id="Group-127">
                    <mask id="mask-10" fill="white">
                        <use xlink:href="#path-9"></use>
                    </mask>
                    <g id="Clip-126"></g>
                    <path d="M44.2479101,-1.94435955 C44.2479101,3.07901124 35.7786966,7.15047191 25.3315056,7.15047191 C14.8843146,7.15047191 6.41465169,3.07901124 6.41465169,-1.94435955 C6.41465169,-6.96817978 14.8843146,-11.0396404 25.3315056,-11.0396404 C35.7786966,-11.0396404 44.2479101,-6.96817978 44.2479101,-1.94435955" id="Fill-125" fill="#EFB7D4" mask="url(#mask-10)"></path>
                </g>
                <g id="Group-130">
                    <mask id="mask-12" fill="white">
                        <use xlink:href="#path-11"></use>
                    </mask>
                    <g id="Clip-129"></g>
                    <path d="M191.970697,65.6416629 C191.970697,75.950427 174.590022,84.306382 153.150921,84.306382 C131.711371,84.306382 114.331146,75.950427 114.331146,65.6416629 C114.331146,55.3328989 131.711371,46.9769438 153.150921,46.9769438 C174.590022,46.9769438 191.970697,55.3328989 191.970697,65.6416629" id="Fill-128" fill="#EFB7D4" mask="url(#mask-12)"></path>
                </g>
                <g id="Group-133">
                    <mask id="mask-14" fill="white">
                        <use xlink:href="#path-13"></use>
                    </mask>
                    <g id="Clip-132"></g>
                    <path d="M181.13982,28.1438652 C181.13982,35.5762247 168.609483,41.6009438 153.151056,41.6009438 C137.693079,41.6009438 125.162292,35.5762247 125.162292,28.1438652 C125.162292,20.7110562 137.693079,14.6863371 153.151056,14.6863371 C168.609483,14.6863371 181.13982,20.7110562 181.13982,28.1438652" id="Fill-131" fill="#EFB7D4" mask="url(#mask-14)"></path>
                </g>
                <g id="Group-136">
                    <mask id="mask-16" fill="white">
                        <use xlink:href="#path-15"></use>
                    </mask>
                    <g id="Clip-135"></g>
                    <path d="M171.327461,-1.94435955 C171.327461,3.07901124 162.858697,7.15047191 152.411506,7.15047191 C141.964315,7.15047191 133.494652,3.07901124 133.494652,-1.94435955 C133.494652,-6.96817978 141.964315,-11.0396404 152.411506,-11.0396404 C162.858697,-11.0396404 171.327461,-6.96817978 171.327461,-1.94435955" id="Fill-134" fill="#EFB7D4" mask="url(#mask-16)"></path>
                </g>
                <g id="Group-139">
                    <mask id="mask-18" fill="white">
                        <use xlink:href="#path-17"></use>
                    </mask>
                    <g id="Clip-138"></g>
                    <path d="M246.953124,44.5338876 C246.953124,51.9986067 234.091101,58.0502921 218.224584,58.0502921 C202.358067,58.0502921 189.496045,51.9986067 189.496045,44.5338876 C189.496045,37.0687191 202.358067,31.0174831 218.224584,31.0174831 C234.091101,31.0174831 246.953124,37.0687191 246.953124,44.5338876" id="Fill-137" fill="#EFB7D4" mask="url(#mask-18)"></path>
                </g>
                <g id="Group-142">
                    <mask id="mask-20" fill="white">
                        <use xlink:href="#path-19"></use>
                    </mask>
                    <g id="Clip-141"></g>
                    <path d="M233.144764,14.2850337 C233.144764,20.0405393 223.227461,24.7066067 210.994652,24.7066067 C198.760944,24.7066067 188.84409,20.0405393 188.84409,14.2850337 C188.84409,8.52907865 198.760944,3.86346067 210.994652,3.86346067 C223.227461,3.86346067 233.144764,8.52907865 233.144764,14.2850337" id="Fill-140" fill="#EFB7D4" mask="url(#mask-20)"></path>
                </g>
                <g id="Group-145">
                    <mask id="mask-22" fill="white">
                        <use xlink:href="#path-21"></use>
                    </mask>
                    <g id="Clip-144"></g>
                    <path d="M325.198831,65.6416629 C325.198831,75.950427 307.818157,84.306382 286.378607,84.306382 C264.939056,84.306382 247.558831,75.950427 247.558831,65.6416629 C247.558831,55.3328989 264.939056,46.9769438 286.378607,46.9769438 C307.818157,46.9769438 325.198831,55.3328989 325.198831,65.6416629" id="Fill-143" fill="#EFB7D4" mask="url(#mask-22)"></path>
                </g>
                <g id="Group-148">
                    <mask id="mask-24" fill="white">
                        <use xlink:href="#path-23"></use>
                    </mask>
                    <g id="Clip-147"></g>
                    <path d="M309.945573,28.1438652 C309.945573,35.5762247 297.415236,41.6009438 281.957258,41.6009438 C266.498831,41.6009438 253.968045,35.5762247 253.968045,28.1438652 C253.968045,20.7110562 266.498831,14.6863371 281.957258,14.6863371 C297.415236,14.6863371 309.945573,20.7110562 309.945573,28.1438652" id="Fill-146" fill="#EFB7D4" mask="url(#mask-24)"></path>
                </g>
                <g id="Group-151">
                    <mask id="mask-26" fill="white">
                        <use xlink:href="#path-25"></use>
                    </mask>
                    <g id="Clip-150"></g>
                    <path d="M285.639056,-1.94435955 C285.639056,3.07901124 277.169843,7.15047191 266.722652,7.15047191 C256.275461,7.15047191 247.806247,3.07901124 247.806247,-1.94435955 C247.806247,-6.96817978 256.275461,-11.0396404 266.722652,-11.0396404 C277.169843,-11.0396404 285.639056,-6.96817978 285.639056,-1.94435955" id="Fill-149" fill="#EFB7D4" mask="url(#mask-26)"></path>
                </g>
            </g>
            <g id="Group-271" transform="translate(56.292135, 8.714157)">
                <polygon id="Fill-153" fill="#C65899" points="0.115955056 314.858876 294.774831 314.858876 294.774831 313.015281 0.115955056 313.015281"></polygon>
                <polygon id="Fill-155" fill="#5B2A1D" points="57.6812584 326.590607 67.756764 316.690382 228.054742 316.690382 238.714966 326.590607 238.714966 298.982517 54.7900225 298.982517"></polygon>
                <path d="M240.358607,273.121034 C239.892989,257.04418 203.080854,206.135416 203.080854,206.135416 L148.211191,206.135416 L147.089843,206.135416 L92.2206292,206.135416 C92.2206292,206.135416 55.4080449,257.04418 54.9419775,273.121034 C54.4754607,289.196989 54.9419775,308.068899 54.9419775,308.068899 L147.089843,308.068899 L148.211191,308.068899 L240.358607,308.068899 C240.358607,308.068899 240.824674,289.196989 240.358607,273.121034" id="Fill-156" fill="#71CAD1"></path>
                <path d="M55.0469663,271.986472 C55.001573,272.373888 54.9521348,272.765348 54.9422472,273.120854 C54.4757303,289.196809 54.9422472,308.068719 54.9422472,308.068719 L147.089663,308.068719 L148.211011,308.068719 L240.358427,308.068719 C240.358427,308.068719 240.428989,305.224225 240.486966,300.81209 L240.358427,273.120854 C176.53191,265.204449 61.6995506,271.605798 55.0469663,271.986472" id="Fill-157" fill="#5CB7BA"></path>
                <path d="M240.358607,273.121034 C240.137933,265.505303 231.759506,250.073843 223.003101,235.939011 C222.982427,235.939461 174.69164,237.692719 155.825124,236.88418 C155.825124,236.88418 175.398157,241.90036 190.775685,242.365528 C206.152764,242.831596 223.860629,245.86036 225.957708,256.111596 C228.054787,266.36418 209.182427,269.625303 191.94018,268.460809 C174.699281,267.295416 122.977483,269.502607 92.2206292,270.34036 C92.2206292,270.34036 163.030966,273.353843 185.640404,278.711596 C208.249843,284.071146 208.71591,299.215416 200.328045,303.641933 C192.071865,308.000135 90.9114157,308.068 87.752764,308.068899 L147.089843,308.068899 L148.211191,308.068899 L240.358607,308.068899 C240.358607,308.068899 240.824674,289.196989 240.358607,273.121034" id="Fill-158" fill="#4D9F9F"></path>
                <path d="M83.6797753,218.202247 C83.6797753,218.202247 94.0847191,217.668764 115.519775,217.668764 C136.953933,217.668764 200.727865,216.075506 212.144045,219.026067 L223.00382,235.938876 C223.00382,235.938876 219.201124,236.075506 200.095056,237.00764 C180.989438,237.938427 154.19618,236.308764 138.585843,237.00764 C122.975056,237.706067 79.9395506,235.738427 72.1,236.25618 L83.6797753,218.202247 Z" id="Fill-159" fill="#FDFCED"></path>
                <path d="M207.200674,165.594697 C203.706292,160.702112 181.339101,146.023461 147.089663,146.023461 C112.840225,146.023461 90.4730337,160.702112 86.9782022,165.594697 C83.4829213,170.48818 92.2204494,206.135371 92.2204494,206.135371 L147.089663,206.135371 L201.958427,206.135371 C201.958427,206.135371 210.695506,170.48818 207.200674,165.594697" id="Fill-160" fill="#E4BF93"></path>
                <path d="M191.264944,155.097213 C191.282022,155.158787 191.387191,159.391146 196.89191,165.770022 C199.151685,168.387551 196.025393,175.987101 194.626292,181.81227 C193.517978,186.427551 146.560674,199.601933 117.822697,206.135416 L147.089663,206.135416 L201.958427,206.135416 C201.958427,206.135416 210.695506,170.488225 207.200674,165.594742 C205.70809,163.505753 199.948539,158.867101 191.264944,155.097213" id="Fill-161" fill="#CFA77D"></path>
                <path d="M97.3459326,164.554292 C97.3459326,164.554292 147.439416,138.917438 189.843011,162.682382 C189.843011,162.682382 198.929753,172.234742 189.843011,179.457213 C180.757169,186.681034 109.228629,189.709348 103.870427,186.913843 C98.5108764,184.117888 88.492,170.152494 97.3459326,164.554292" id="Fill-162" fill="#EAC9A4"></path>
                <path d="M80.3076854,156.864899 C80.3076854,152.618157 83.7499326,149.17636 87.9962247,149.17636 C92.2429663,149.17636 95.6852135,152.618157 95.6852135,156.864899 C95.6852135,159.409618 94.4438652,161.657708 92.5400449,163.056809 L92.5400449,206.135461 L83.4533034,217.668494 L83.4533034,163.056809 C81.5485843,161.657708 80.3076854,159.409618 80.3076854,156.864899" id="Fill-163" fill="#D8B482"></path>
                <path d="M83.1298427,150.913573 C81.1770337,158.947281 86.4723146,161.517618 86.4723146,161.517618 L86.4723146,180.616045 L83.4534382,181.039416 L83.4534382,163.056944 C81.5482697,161.657393 80.3078202,159.409303 80.3078202,156.865034 C80.3078202,154.465483 81.4080449,152.323461 83.1298427,150.913573" id="Fill-164" fill="#C6A375"></path>
                <path d="M214.190652,156.864899 C214.190652,152.618157 210.748404,149.17636 206.502112,149.17636 C202.25582,149.17636 198.813573,152.618157 198.813573,156.864899 C198.813573,159.409618 200.054921,161.657708 201.958292,163.056809 L201.958292,206.135461 L211.045034,217.668494 L211.045034,163.056809 C212.950202,161.657708 214.190652,159.409618 214.190652,156.864899" id="Fill-165" fill="#D8B482"></path>
                <path d="M211.368045,150.913573 C213.321753,158.947281 208.026022,161.517618 208.026022,161.517618 L208.026022,180.616045 L211.044899,181.039416 L211.044899,163.056944 C212.950517,161.657393 214.190517,159.409303 214.190517,156.865034 C214.190517,154.465483 213.090742,152.323461 211.368045,150.913573" id="Fill-166" fill="#C6A375"></path>
                <path d="M76.7420225,176.079685 C76.7420225,176.079685 75.407191,180.856764 76.7420225,189.244629 C78.0773034,197.631146 78.5208989,214.872494 76.7420225,218.134517 C74.9631461,221.396539 83.4148315,217.43564 93.2053933,218.134517 C102.994607,218.833393 158.613483,221.446427 180.862022,219.441034 C203.110562,217.43564 212.008539,219.669798 216.013483,220.183955 C220.017528,220.696764 216.521348,214.93182 218.238202,211.610921 C223.419326,201.592045 215.123596,188.776315 215.123596,182.719685 C215.123596,176.662607 215.569888,175.962382 208.449888,176.079685 C201.329438,176.19609 176.412584,173.554742 152.829213,173.633393 C136.313258,173.689124 102.549213,175.962382 94.5397753,176.079685 C86.531236,176.19609 78.9667416,175.030697 76.7420225,176.079685" id="Fill-167" fill="#F8ECD2"></path>
                <path d="M93.420809,182.466652 C80.1853034,187.50036 80.0711461,199.866202 86.7853034,203.223056 C96.2841798,207.970921 99.868,213.139011 152.751146,214.514742 C205.633393,215.890921 218.548899,193.358337 205.230247,185.048674 C195.804629,179.167326 122.780809,171.303506 93.420809,182.466652" id="Fill-168" fill="#F9F5ED"></path>
                <path d="M216.013438,220.18391 C217.866921,220.421213 218.10827,219.307056 218.008045,217.72009 C212.454337,216.246831 197.994562,214.749303 187.746022,216.898517 C175.864225,219.389303 125.304674,218.366831 115.053438,216.898517 C104.802652,215.430202 89.6570337,211.843685 84.065573,214.575371 C81.4601798,215.84818 79.0134382,216.600989 77.1356854,217.048629 C77.018382,217.494921 76.8884944,217.866157 76.7419775,218.134472 C74.9631011,221.396494 83.4147865,217.435596 93.2053483,218.134472 C102.994562,218.833348 158.613438,221.446831 180.861978,219.440989 C203.110517,217.435596 212.008494,219.669753 216.013438,220.18391" id="Fill-169" fill="#E1D3BA"></path>
                <path d="M60.8268764,259.795011 C60.8268764,255.549169 57.3841798,252.106472 53.1383371,252.106472 C48.8911461,252.106472 45.4493483,255.549169 45.4493483,259.795011 C45.4493483,262.33973 46.6902472,264.58827 48.5945169,265.98782 L48.5945169,326.590517 L57.6812584,326.590517 L57.6812584,265.98782 C59.5855281,264.58827 60.8268764,262.33973 60.8268764,259.795011" id="Fill-170" fill="#D8B482"></path>
                <path d="M49.634382,252.956899 C47.151236,254.232404 45.4492135,256.81218 45.4492135,259.795101 C45.4492135,262.33982 46.6901124,264.58836 48.5948315,265.98791 L48.5948315,326.590607 L51.4469663,326.590607 L51.4469663,265.897124 C51.4469663,265.897124 45.9570787,258.189708 49.634382,252.956899" id="Fill-171" fill="#C6A375"></path>
                <path d="M235.569258,259.795011 C235.569258,255.549169 239.011955,252.106472 243.258247,252.106472 C247.504989,252.106472 250.947236,255.549169 250.947236,259.795011 C250.947236,262.33973 249.705888,264.58827 247.801618,265.98782 L247.801618,326.590517 L238.714876,326.590517 L238.714876,265.98782 C236.811056,264.58827 235.569258,262.33973 235.569258,259.795011" id="Fill-172" fill="#D8B482"></path>
                <path d="M246.762202,252.956899 C249.245348,254.232404 250.947371,256.81218 250.947371,259.795101 C250.947371,262.33982 249.706022,264.58836 247.801753,265.98791 L247.801753,326.590607 L244.949169,326.590607 L244.949169,265.897124 C244.949169,265.897124 250.439506,258.189708 246.762202,252.956899" id="Fill-173" fill="#C6A375"></path>
                <path d="M40.8602247,173.68373 C39.814382,173.087775 38.7501124,171.15609 38.011236,169.566876 L38.011236,165.873393 C49.4004494,165.533169 53.3730337,162.761933 53.3730337,162.761933 L45.4480899,136.352494 L26.2786517,136.352494 L18.3537079,162.761933 C18.3537079,162.761933 22.0862921,165.590247 33.7195506,165.881933 L33.7195506,169.566876 C32.9811236,171.15609 31.9150562,173.087775 30.868764,173.68373 C29.7739326,174.312045 29.3222472,174.958337 29.134382,175.387101 L10.1510112,175.387101 L10.1510112,201.810472 L10.1510112,204.165079 L10.1510112,230.446427 L10.1510112,230.588449 L10.1510112,240.481483 L11.6489888,240.481483 C16.2085393,234.708449 16.6552809,231.30036 16.6975281,230.588449 L55.1249438,230.588449 C55.1676404,231.30036 55.614382,234.708449 60.174382,240.481483 L61.6719101,240.481483 L61.6719101,230.588449 L61.6719101,230.446427 L61.6719101,204.165079 L61.6719101,201.810472 L61.6719101,175.387101 L42.5968539,175.387101 C42.4085393,174.958337 41.9564045,174.312045 40.8602247,173.68373" id="Fill-174" fill="#CC9C9B"></path>
                <path d="M37.4025618,49.1147416 C48.5562697,49.1147416 57.5989663,40.0720449 57.5989663,28.9169888 C57.5989663,17.762382 48.5562697,8.72148315 37.4025618,8.72148315 C26.2484045,8.72148315 17.2034607,17.762382 17.2034607,28.9169888 C17.2034607,40.0720449 26.2484045,49.1147416 37.4025618,49.1147416" id="Fill-175" fill="#CC9C9B"></path>
                <path d="M62.6790562,99.0778427 L54.4170337,99.0778427 L55.651191,98.697618 L55.6538876,98.7061573 L58.4565843,97.8423371 L58.4543371,97.8333483 L56.589618,91.7839101 L56.4974831,91.4841348 L56.2974831,90.8360449 L56.0592809,90.0639101 L49.3302921,68.2293034 C49.3302921,68.2293034 49.2925393,68.224809 49.2143371,68.2189663 C49.0179326,68.203236 48.5617528,68.1794157 47.9343371,68.2149213 C47.9217528,68.2153708 47.9123146,68.2153708 47.8997303,68.2158202 C47.8723146,68.2162697 47.8413034,68.2194157 47.8125393,68.220764 C47.8093933,68.220764 47.8057978,68.2212135 47.8022022,68.2212135 C47.6547865,68.2293034 47.495236,68.2441348 47.3329888,68.2630112 C47.3087191,68.2661573 47.2826517,68.2697528 47.2579326,68.2724494 C47.1761348,68.2827865 47.0970337,68.293573 47.0188315,68.304809 C46.8866966,68.3227865 46.7523146,68.3439101 46.6134382,68.3677303 C46.4386067,68.3973933 46.3195056,68.4198652 46.3195056,68.4198652 L46.3204045,68.4221124 C44.9275955,68.7021124 43.265573,69.3102022 41.8116404,70.6041348 L48.9622022,93.806382 L48.989618,93.8944719 L50.5869213,99.0778427 L45.2345618,99.0778427 L47.1509663,98.4872809 L47.1536629,98.4962697 L49.9559101,97.6324494 L49.9536629,97.6234607 L40.829618,68.0194157 C40.829618,68.0194157 40.7923146,68.0144719 40.7150112,68.0095281 C40.5190562,67.9933483 40.0615281,67.9690787 39.4309663,68.0045843 C39.4197303,68.0050337 39.411191,68.0050337 39.3995056,68.0054831 C39.3743371,68.006382 39.3460225,68.0090787 39.3199551,68.010427 C39.312764,68.0108764 39.3064719,68.0108764 39.2992809,68.0113258 C39.1536629,68.0194157 38.9963596,68.0337978 38.8363596,68.0526742 C38.8053483,68.0562697 38.7725393,68.0612135 38.7410787,68.064809 C38.6700674,68.0737978 38.6013034,68.0827865 38.5329888,68.0926742 C38.392764,68.112 38.2493933,68.1340225 38.1010787,68.1600899 C37.9334382,68.1884045 37.8192809,68.2099775 37.8192809,68.2099775 L37.8197303,68.2117753 C36.4273708,68.4917753 34.7653483,69.0998652 33.3114157,70.3937978 L39.4287191,90.2418876 L39.596809,90.7888539 L39.7963596,91.4369438 L40.1936629,92.7254831 L40.4619775,93.5960449 L40.4893933,93.6845843 L42.1514157,99.0778427 L32.7914157,99.0778427 L32.7914157,67.9672809 C32.7914157,67.9672809 32.7860225,67.9641348 32.7770337,67.959191 C32.7738876,67.9573933 32.7716404,67.9560449 32.7666966,67.9533483 C32.756809,67.9475056 32.7442247,67.940764 32.7280449,67.9317753 C32.7226517,67.9286292 32.7181573,67.9259326 32.7114157,67.9227865 C32.6642247,67.8967191 32.5963596,67.8612135 32.5087191,67.8180674 C32.5042247,67.8158202 32.4997303,67.813573 32.495236,67.8117753 C32.4547865,67.792 32.4107416,67.7708764 32.3626517,67.7488539 C32.3545618,67.7452584 32.3464719,67.7412135 32.3379326,67.737618 C32.1725393,67.6616629 31.9653483,67.5744719 31.7222022,67.4859326 C31.7132135,67.4827865 31.7042247,67.4796404 31.6947865,67.4764944 C31.6165843,67.4481798 31.5347865,67.4203146 31.4489438,67.3924494 C31.4457978,67.3911011 31.4431011,67.3902022 31.4399551,67.3893034 C31.258382,67.330427 31.0619775,67.2733483 30.8520899,67.2212135 C30.8413034,67.2185169 30.8305169,67.2162697 30.8197303,67.213573 C30.7248989,67.1906517 30.6278202,67.1686292 30.5275955,67.1479551 C30.5159101,67.1452584 30.5042247,67.1425618 30.4920899,67.1403146 C30.2705169,67.0953708 30.0372584,67.057618 29.7936629,67.0297528 C29.7806292,67.0279551 29.7675955,67.0270562 29.7545618,67.0257079 C29.6480449,67.0140225 29.5392809,67.0045843 29.4291685,66.9973933 C29.4080449,66.9955955 29.3869213,66.9942472 29.3657978,66.9928989 C29.2435506,66.9857079 29.1199551,66.980764 28.9936629,66.9794157 L28.9909663,66.9794157 C27.8300674,66.9681798 26.5100674,67.224809 25.189618,68.0382921 L25.189618,71.7758202 C24.9707416,71.6684045 23.9707416,71.2131236 22.5860225,71.0194157 C22.5613034,71.0158202 22.5365843,71.0122247 22.5109663,71.0086292 C22.4080449,70.9955955 22.305573,70.9825618 22.1990562,70.9722247 C22.0790562,70.9605393 21.956809,70.9506517 21.8323146,70.9439101 L21.8323146,70.9452584 C20.5797303,70.8764944 19.1082697,71.0621124 17.6336629,71.8612135 L17.6336629,99.0778427 L10.8435506,99.0778427 L9.31276404,100.696719 L9.31276404,108.786157 L64.5909663,108.786157 L64.5909663,100.696719 L62.6790562,99.0778427 Z" id="Fill-176" fill="#CC9C9B"></path>
                <path d="M38.7478202,173.482247 C37.7019775,172.886292 36.6377079,170.954607 35.8988315,169.365393 L35.8988315,145.445393 L31.6071461,145.445393 L31.6071461,169.365393 C30.8687191,170.954607 29.8026517,172.886292 28.7563596,173.482247 C26.8866966,174.555955 26.8866966,175.684494 26.8866966,175.684494 L33.1100674,175.684494 L34.3941124,175.684494 L40.6197303,175.684494 C40.6197303,175.684494 40.6197303,174.555955 38.7478202,173.482247" id="Fill-177" fill="#F9F9F9"></path>
                <path d="M35.8988764,165.201438 L33.5676404,165.706607 L33.5676404,175.684584 L34.3941573,175.684584 L40.6197753,175.684584 C40.6197753,175.684584 40.6197753,174.555596 38.7478652,173.482337 C37.7020225,172.886382 36.6377528,170.954697 35.8988764,169.365483 L35.8988764,165.201438 Z" id="Fill-178" fill="#E0E4E4"></path>
                <path d="M51.2605393,162.56036 C51.2605393,162.56036 46.7522247,165.706427 33.5679551,165.706427 C20.3836854,165.706427 16.2412135,162.56036 16.2412135,162.56036 L24.1661573,136.150921 L43.3355955,136.150921 L51.2605393,162.56036 Z" id="Fill-179" fill="#71CAD1"></path>
                <path d="M51.2605393,162.56036 L43.3355955,136.150921 C47.2614382,165.036315 16.2412135,162.56036 16.2412135,162.56036 C16.2412135,162.56036 20.3836854,165.706427 33.5679551,165.706427 C46.7522247,165.706427 51.2605393,162.56036 51.2605393,162.56036" id="Fill-180" fill="#5DBABC"></path>
                <polygon id="Fill-181" fill="#B67845" points="8.03865169 230.386966 59.5595506 230.386966 59.5595506 201.608989 8.03865169 201.608989"></polygon>
                <polygon id="Fill-182" fill="#DBA97A" points="9.53617978 227.994607 58.061573 227.994607 58.061573 204.001798 9.53617978 204.001798"></polygon>
                <polygon id="Fill-183" fill="#B67845" points="22.8125843 217.225169 44.7851685 217.225169 44.7851685 214.768539 22.8125843 214.768539"></polygon>
                <path d="M14.589618,230.244899 C14.589618,230.244899 14.6925393,233.751865 9.53658427,240.279955 L8.03860674,240.279955 L8.03860674,230.244899 L14.589618,230.244899 Z" id="Fill-184" fill="#664A3D"></path>
                <path d="M53.0082247,230.244899 C53.0082247,230.244899 52.9053034,233.751865 58.0617079,240.279955 L59.559236,240.279955 L59.559236,230.244899 L53.0082247,230.244899 Z" id="Fill-185" fill="#664A3D"></path>
                <polygon id="Fill-186" fill="#B67845" points="8.03865169 203.963596 59.5595506 203.963596 59.5595506 175.185618 8.03865169 175.185618"></polygon>
                <polygon id="Fill-187" fill="#DBA97A" points="9.53617978 201.571236 58.061573 201.571236 58.061573 177.578427 9.53617978 177.578427"></polygon>
                <polygon id="Fill-188" fill="#B67845" points="22.8125843 190.801798 44.7851685 190.801798 44.7851685 188.345169 22.8125843 188.345169"></polygon>
                <path d="M35.2901124,8.51977528 C24.1359551,8.51977528 15.0910112,17.5611236 15.0910112,28.7152809 C15.0910112,39.8703371 24.1359551,48.9130337 35.2901124,48.9130337 C46.4438202,48.9130337 55.4865169,39.8703371 55.4865169,28.7152809 C55.4865169,17.5611236 46.4438202,8.51977528 35.2901124,8.51977528" id="Fill-189" fill="#71CAD1"></path>
                <path d="M35.2898876,13.5000449 C26.8844944,13.5000449 20.0732584,20.3135281 20.0732584,28.7153258 C20.0732584,37.1198202 26.8844944,43.9319551 35.2898876,43.9319551 C43.6930337,43.9319551 50.5042697,37.1198202 50.5042697,28.7153258 C50.5042697,20.3135281 43.6930337,13.5000449 35.2898876,13.5000449" id="Fill-190" fill="#EFEFEF"></path>
                <path d="M36.5214831,28.7058876 C36.5214831,29.4025169 35.9574382,29.9674607 35.2603596,29.9674607 C34.5628315,29.9674607 33.9987865,29.4025169 33.9987865,28.7058876 C33.9987865,28.0083596 34.5628315,27.4434157 35.2603596,27.4434157 C35.9574382,27.4434157 36.5214831,28.0083596 36.5214831,28.7058876" id="Fill-191" fill="#000000"></path>
                <path d="M36.3008989,28.5140674 C36.3008989,28.5140674 38.0797753,27.5527191 39.6613483,26.8677753 C41.2469663,26.1828315 42.2280899,25.6785618 43.8752809,24.666427 C45.5179775,23.6542921 47.4388764,22.6731685 47.4388764,22.6731685 L47.2991011,22.408 C47.2991011,22.408 44.2698876,23.8713708 43.6546067,24.1387865 C43.0402247,24.4026067 40.7530337,25.5131685 39.4002247,26.3104719 C38.0478652,27.1050787 36.1314607,28.1958652 36.1314607,28.1958652 L36.3008989,28.5140674 Z" id="Fill-192" fill="#000000"></path>
                <path d="M29.0065618,24.3923146 C28.5211685,24.3972584 28.1013933,24.3253483 27.4568989,24.0732135 C26.8128539,23.8188315 25.9580225,23.3118652 25.9580225,23.3118652 L25.8519551,23.531191 L25.7225169,23.7370337 C25.7225169,23.7370337 26.604764,24.1918652 27.1620674,24.604 C27.7180225,25.0174831 28.001618,25.3329888 28.2564494,25.7500674 C28.510382,26.1653483 28.7733034,26.669618 29.2843146,26.658382 C29.7930787,26.6466966 30.0879101,26.3159101 30.0879101,26.3159101 L33.9881348,28.5141124 L34.3908315,27.7900674 L30.4586966,25.6448989 C30.4586966,25.6448989 30.5836404,25.2219775 30.3229663,24.7810787 C30.0645393,24.342427 29.4942022,24.3878202 29.0065618,24.3923146" id="Fill-193" fill="#000000"></path>
                <polygon id="Fill-194" fill="#FFFFFF" points="7.20044944 108.584719 62.4786517 108.584719 62.4786517 100.495281 7.20044944 100.495281"></polygon>
                <polygon id="Fill-195" fill="#E2E0DF" points="62.4784719 100.495101 60.5665618 98.8762247 8.73105618 98.8762247 7.20026966 100.495101"></polygon>
                <path d="M48.8068315,99.9543371 L56.3416629,97.6320899 L47.217618,68.0280449 C47.217618,68.0280449 42.9362697,67.5215281 39.6989663,70.402427 L48.8068315,99.9543371 Z" id="Fill-196" fill="#699DB1"></path>
                <polygon id="Fill-197" fill="#94B7C2" points="44.2683596 79.2835056 48.4566742 77.9927191 45.9721798 69.9306966 41.7838652 71.2219326"></polygon>
                <polygon id="Fill-198" fill="#94B7C2" points="45.9846742 90.7972584 53.5195056 88.4750112 53.0538876 86.9635506 45.5190562 89.2857978"></polygon>
                <polygon id="Fill-199" fill="#94B7C2" points="46.6502921 92.9568989 54.1851236 90.6346517 53.7195056 89.123191 46.1846742 91.4454382"></polygon>
                <polygon id="Fill-200" fill="#94B7C2" points="47.3158652 95.1163146 54.8506966 92.7940674 54.3850787 91.2826067 46.8497978 93.6048539"></polygon>
                <g id="Group-203" transform="translate(44.044944, 67.865169)">
                    <mask id="mask-28" fill="white">
                        <use xlink:href="#path-27"></use>
                    </mask>
                    <g id="Clip-202"></g>
                    <path d="M9.49617978,30.6395506 L12.2993258,29.7757303 L3.17303371,0.162696629 C3.17303371,0.162696629 2.84674157,0.114606742 1.74247191,0.149213483 C1.13078652,0.168089888 0.162247191,0.353258427 0.162247191,0.353258427 L9.49617978,30.6395506 Z" id="Fill-201" fill="url(#linearGradient-29)" mask="url(#mask-28)"></path>
                </g>
                <path d="M40.3065618,99.7441348 L47.8409438,97.4218876 L38.7168989,67.8178427 C38.7168989,67.8178427 34.436,67.3113258 31.1986966,70.1922247 L40.3065618,99.7441348 Z" id="Fill-204" fill="#C9DC61"></path>
                <polygon id="Fill-205" fill="#F8D9AA" points="35.7678652 79.0732584 39.9566292 77.7824719 37.4721348 69.7204494 33.2833708 71.0116854"></polygon>
                <polygon id="Fill-206" fill="#F8D9AA" points="37.4844045 90.587236 45.0187865 88.2649888 44.5531685 86.7535281 37.0187865 89.0757753"></polygon>
                <polygon id="Fill-207" fill="#F8D9AA" points="38.1500225 92.7466517 45.6844045 90.4244045 45.2187865 88.9133933 37.6839551 91.235191"></polygon>
                <polygon id="Fill-208" fill="#F8D9AA" points="38.8155955 94.9060674 46.3499775 92.5838202 45.8839101 91.072809 38.3495281 93.3946067"></polygon>
                <g id="Group-211" transform="translate(35.505618, 67.415730)">
                    <mask id="mask-31" fill="white">
                        <use xlink:href="#path-30"></use>
                    </mask>
                    <g id="Clip-210"></g>
                    <path d="M9.5352809,30.8791011 L12.3379775,30.0152809 L3.21168539,0.402247191 C3.21168539,0.402247191 2.88539326,0.354157303 1.78157303,0.388314607 C1.16988764,0.407640449 0.201348315,0.592808989 0.201348315,0.592808989 L9.5352809,30.8791011 Z" id="Fill-209" fill="url(#linearGradient-32)" mask="url(#mask-31)"></path>
                </g>
                <path d="M23.0771685,99.5217978 L30.6789663,99.5217978 L30.6789663,67.7658427 C30.6789663,67.7658427 26.8785169,65.494382 23.0771685,67.8368539 L23.0771685,99.5217978 Z" id="Fill-212" fill="#FAAE41"></path>
                <polygon id="Fill-213" fill="#F4D1A1" points="24.7874157 76.7631461 28.9685393 76.7631461 28.9685393 70.7447191 24.7874157 70.7447191"></polygon>
                <path d="M26.8785169,66.7780225 C29.0600899,66.7991461 30.6789663,67.7658876 30.6789663,67.7658876 L30.6789663,99.5218427 L26.8785169,99.5218427 L26.8785169,66.7780225 Z" id="Fill-214" fill="#FFFFFF"></path>
                <path d="M15.5214382,99.5217978 L23.123236,99.5217978 L23.123236,71.5973034 C23.123236,71.5973034 19.3223371,69.5991011 15.5214382,71.6597753 L15.5214382,99.5217978 Z" id="Fill-215" fill="#D490BE"></path>
                <polygon id="Fill-216" fill="#9D77B3" points="17.2323596 79.5083146 21.4130337 79.5083146 21.4130337 74.2161798 17.2323596 74.2161798"></polygon>
                <path d="M19.72,70.742427 C21.6880899,70.8538876 23.105618,71.5972584 23.105618,71.5972584 L23.105618,99.5217528 L19.72,99.5217528 L19.72,70.742427 Z" id="Fill-217" fill="#FFFFFF"></path>
                <path d="M209.250337,114.66818 C209.243146,114.656944 209.236404,114.645258 209.229213,114.633573 C209.022921,114.299191 208.80764,113.971551 208.581573,113.651101 C208.566742,113.630876 208.55191,113.611101 208.537978,113.591326 C208.314157,113.277169 208.080899,112.969753 207.836404,112.670876 C207.820674,112.651101 207.803596,112.632225 207.787416,112.612899 C207.537978,112.310876 207.279551,112.015596 207.00809,111.730652 C207.00809,111.730652 221.39236,70.8209888 205.520449,31.8627865 L208.635955,31.8627865 L208.635955,28.6070562 L83.8889888,28.6070562 L83.8889888,31.8627865 L87.1249438,31.8627865 C71.2534831,70.8209888 85.6373034,111.730652 85.6373034,111.730652 C85.3653933,112.016045 85.1060674,112.311775 84.8566292,112.614247 C84.8408989,112.633124 84.8247191,112.651101 84.8089888,112.670427 C84.5640449,112.969753 84.3303371,113.278067 84.1060674,113.593124 C84.0921348,113.612 84.0782022,113.630876 84.0647191,113.649753 C83.8377528,113.971551 83.6211236,114.300539 83.414382,114.636719 C83.4080899,114.646157 83.4022472,114.656045 83.3964045,114.665933 C76.6921348,125.594472 80.6085393,143.665933 80.6085393,143.665933 C80.6085393,143.665933 85.6373034,141.123461 88.9105618,143.51627 C90.6026966,144.753124 93.3424719,142.771551 96.0768539,142.322112 C98.8116854,141.872674 100.770787,143.51627 100.770787,143.51627 C100.770787,135.381888 98.2179775,127.70818 95.574382,121.935596 L197.070562,121.935596 C194.427416,127.70818 191.874607,135.381888 191.874607,143.51627 C191.874607,143.51627 193.833708,141.872674 196.56809,142.322112 C199.302472,142.771551 202.042247,144.753124 203.734831,143.51627 C207.00809,141.123461 212.036854,143.665933 212.036854,143.665933 C212.036854,143.665933 215.952809,125.596719 209.250337,114.66818" id="Fill-218" fill="#BC8686"></path>
                <polygon id="Fill-219" fill="#FCFBF8" points="87.5438202 121.93573 202.372584 121.93573 202.372584 33.3240449 87.5438202 33.3240449"></polygon>
                <polygon id="Fill-220" fill="#D1E8F7" points="95.3892135 74.7370787 141.493034 74.7370787 141.493034 38.9330337 95.3892135 38.9330337"></polygon>
                <polygon id="Fill-221" fill="#D1E8F7" points="95.3892135 116.326742 141.493034 116.326742 141.493034 80.5226966 95.3892135 80.5226966"></polygon>
                <polygon id="Fill-222" fill="#D1E8F7" points="148.422921 74.7370787 194.526742 74.7370787 194.526742 38.9330337 148.422921 38.9330337"></polygon>
                <polygon id="Fill-223" fill="#D1E8F7" points="148.422921 116.326742 194.526742 116.326742 194.526742 80.5226966 148.422921 80.5226966"></polygon>
                <polygon id="Fill-224" fill="#EAF2F9" points="95.3895281 116.326607 95.652 115.00436 139.784584 115.00436 139.784584 80.5225618 141.493348 80.5225618 141.493348 116.326607"></polygon>
                <polygon id="Fill-225" fill="#EAF2F9" points="148.423236 116.326607 148.685708 115.00436 192.818292 115.00436 192.818292 80.5225618 194.527056 80.5225618 194.527056 116.326607"></polygon>
                <polygon id="Fill-226" fill="#EAF2F9" points="148.423236 74.7370787 148.685708 73.4148315 192.818292 73.4148315 192.818292 38.9330337 194.527056 38.9330337 194.527056 74.7370787"></polygon>
                <polygon id="Fill-227" fill="#EAF2F9" points="95.3269663 74.7370787 95.5894382 73.4148315 139.722022 73.4148315 139.722022 38.9330337 141.430787 38.9330337 141.430787 74.7370787"></polygon>
                <path d="M144.958292,30.5894382 C144.958292,30.5894382 130.496719,94.878427 87.5439101,111.730562 C87.5439101,111.730562 98.5236854,126.645169 98.5236854,143.51618 C98.5236854,143.51618 96.5645843,141.872584 93.8297528,142.322022 C91.0953708,142.771461 88.3555955,144.753483 86.6634607,143.51618 C83.3902022,141.123371 78.3614382,143.665843 78.3614382,143.665843 C78.3614382,143.665843 73.6522247,121.94764 83.3902022,111.730562 C83.3902022,111.730562 68.6859326,69.9242697 85.4023371,30.5894382 L144.958292,30.5894382 Z" id="Fill-228" fill="#71CAD1"></path>
                <path d="M83.3901124,111.730607 C82.2552809,112.921169 81.3186517,114.269483 80.5460674,115.72027 C80.5460674,115.72027 83.7604494,118.096 88.7352809,113.495101 C88.7294382,113.486112 88.7240449,113.477573 88.7186517,113.469034 L87.5438202,111.730607 C87.5438202,111.730607 87.3698876,112.150382 83.3901124,111.730607" id="Fill-229" fill="#E1ADA9"></path>
                <path d="M83.3901124,111.730607 C83.3901124,111.730607 81.8570787,87.4645393 86.6633708,71.1481348 C86.6633708,71.1481348 83.1573034,100.074876 84.6404494,111.845663 L83.3901124,111.730607 Z" id="Fill-230" fill="#54A7A9"></path>
                <path d="M85.4033258,111.894112 C85.4033258,111.894112 85.4033258,90.7866966 91.6945618,80.0001798 C91.6945618,80.0001798 86.6010787,95.1309663 85.9660225,111.914337 L85.4033258,111.894112 Z" id="Fill-231" fill="#54A7A9"></path>
                <path d="M86.6634607,111.908135 C86.6634607,111.908135 93.1551461,96.3458876 98.2113258,84.8312809 C98.2113258,84.8312809 92.4373933,101.570607 87.5439101,111.730607 L86.6634607,111.908135 Z" id="Fill-232" fill="#54A7A9"></path>
                <path d="M87.5438652,36.4701124 C82.9020674,39.174382 79.257573,67.9361798 80.3074607,69.9231461 C81.3573483,71.9101124 88.0989213,60.6741573 89.447236,65.6179775 C90.7955506,70.5617978 92.7681348,76.0705618 98.5236404,72.8665169 C104.278697,69.6629213 104.278697,78.9883146 102.031506,86.9101124 C99.7843146,94.8314607 114.615775,87.1910112 124.503416,66.0674157 C134.391056,44.9438202 135.739371,36.8539326 127.200045,36.8539326 C118.660719,36.8539326 92.9897079,33.2970787 87.5438652,36.4701124" id="Fill-233" fill="#8BD2D6"></path>
                <path d="M82.0360899,116.268674 C82.0360899,116.268674 80.1304719,120.786427 80.1259775,125.954966 C80.1259775,125.954966 81.8113708,117.385978 83.1574382,116.333393 L82.0360899,116.268674 Z" id="Fill-234" fill="#54A7A9"></path>
                <path d="M83.6791011,116.268674 C83.6791011,116.268674 82.305618,121.348225 84.6404494,127.528 C84.6404494,127.528 83.381573,118.380135 85.4031461,115.763056 L83.6791011,116.268674 Z" id="Fill-235" fill="#54A7A9"></path>
                <path d="M86.152764,115.396989 C86.152764,115.396989 88.324,120.112494 87.0880449,124.045079 C87.0880449,124.045079 89.2350112,121.118787 86.8102921,115.00418 L86.152764,115.396989 Z" id="Fill-236" fill="#54A7A9"></path>
                <path d="M78.2114607,125.955056 C77.8851685,124.857528 78.2114607,139.775281 79.2226966,140.449438 C80.2339326,141.123596 83.6065169,138.988764 85.4033708,139.88764 C87.2002247,140.786517 91.132809,140.279551 93.6047191,139.297079 C96.0766292,138.314607 96.6123596,137.640449 95.3894382,133.707865 C94.1665169,129.775281 91.3575281,122.359551 90.6833708,122.696629 C90.0092135,123.033708 88.0555056,126.966292 87.0101124,126.629213 C85.9642697,126.292135 85.9916854,127.640449 84.9103371,128.764045 C83.8294382,129.88764 82.4878652,125.505618 81.641573,125.955056 C80.7957303,126.404494 78.6505618,127.43191 78.2114607,125.955056" id="Fill-237" fill="#8BD2D6"></path>
                <path d="M143.192584,30.5894382 C143.192584,30.5894382 157.654157,94.878427 200.606966,111.730562 C200.606966,111.730562 189.627191,126.645169 189.627191,143.51618 C189.627191,143.51618 191.586742,141.872584 194.321124,142.322022 C197.055506,142.771461 199.794831,144.753483 201.487416,143.51618 C204.760674,141.123371 209.789888,143.665843 209.789888,143.665843 C209.789888,143.665843 214.498652,121.94764 204.760674,111.730562 C204.760674,111.730562 219.464944,69.9242697 202.748539,30.5894382 L143.192584,30.5894382 Z" id="Fill-238" fill="#71CAD1"></path>
                <path d="M204.760809,111.730607 C205.89564,112.921169 206.83227,114.269483 207.604854,115.72027 C207.604854,115.72027 204.390472,118.096 199.41564,113.495101 C199.421034,113.486112 199.426876,113.477573 199.432719,113.469034 L200.607101,111.730607 C200.607101,111.730607 200.781034,112.150382 204.760809,111.730607" id="Fill-239" fill="#E1ADA9"></path>
                <path d="M204.760809,111.730607 C204.760809,111.730607 206.293843,87.4645393 201.487551,71.1481348 C201.487551,71.1481348 204.993618,100.074876 203.510472,111.845663 L204.760809,111.730607 Z" id="Fill-240" fill="#54A7A9"></path>
                <path d="M202.747551,111.894112 C202.747551,111.894112 202.747551,90.7866966 196.456315,80.0001798 C196.456315,80.0001798 201.549798,95.1309663 202.184854,111.914337 L202.747551,111.894112 Z" id="Fill-241" fill="#54A7A9"></path>
                <path d="M201.487461,111.908135 C201.487461,111.908135 194.995775,96.3458876 189.939596,84.8312809 C189.939596,84.8312809 195.713079,101.570607 200.607011,111.730607 L201.487461,111.908135 Z" id="Fill-242" fill="#54A7A9"></path>
                <path d="M200.607011,36.4701124 C205.248809,39.174382 208.893303,67.9361798 207.843416,69.9231461 C206.793528,71.9101124 200.051955,60.6741573 198.70364,65.6179775 C197.355326,70.5617978 195.382742,76.0705618 189.627236,72.8665169 C183.87218,69.6629213 183.87218,78.9883146 186.119371,86.9101124 C188.366562,94.8314607 173.535101,87.1910112 163.647461,66.0674157 C153.75982,44.9438202 152.411506,36.8539326 160.950831,36.8539326 C169.490157,36.8539326 195.161169,33.2970787 200.607011,36.4701124" id="Fill-243" fill="#8BD2D6"></path>
                <path d="M206.114831,116.268674 C206.114831,116.268674 208.020449,120.786427 208.024944,125.954966 C208.024944,125.954966 206.339551,117.385978 204.993483,116.333393 L206.114831,116.268674 Z" id="Fill-244" fill="#54A7A9"></path>
                <path d="M204.472,116.268674 C204.472,116.268674 205.845483,121.348225 203.510202,127.528 C203.510202,127.528 204.769079,118.380135 202.747506,115.763056 L204.472,116.268674 Z" id="Fill-245" fill="#54A7A9"></path>
                <path d="M201.998337,115.396989 C201.998337,115.396989 199.827101,120.112494 201.063056,124.045079 C201.063056,124.045079 198.91564,121.118787 201.34036,115.00418 L201.998337,115.396989 Z" id="Fill-246" fill="#54A7A9"></path>
                <path d="M209.939416,125.955056 C210.265708,124.857528 209.939416,139.775281 208.92818,140.449438 C207.916944,141.123596 204.54436,138.988764 202.747506,139.88764 C200.950652,140.786517 197.018067,140.279551 194.546157,139.297079 C192.074247,138.314607 191.538517,137.640449 192.760989,133.707865 C193.98436,129.775281 196.793348,122.359551 197.467506,122.696629 C198.141663,123.033708 200.095371,126.966292 201.140764,126.629213 C202.186607,126.292135 202.159191,127.640449 203.240539,128.764045 C204.321438,129.88764 205.663011,125.505618 206.509303,125.955056 C207.355146,126.404494 209.500315,127.43191 209.939416,125.955056" id="Fill-247" fill="#8BD2D6"></path>
                <polygon id="Fill-248" fill="#D8B482" points="81.6417978 31.8629213 206.388764 31.8629213 206.388764 28.607191 81.6417978 28.607191"></polygon>
                <path d="M333.818472,13.0209888 C333.818472,13.0209888 321.280944,0.383235955 290.553303,0.383235955 C259.826112,0.383235955 247.288584,13.0209888 247.288584,13.0209888 L228.738472,13.0209888 L238.93218,28.7167191 L238.93218,44.4124494 L243.110157,44.4124494 L243.110157,236.327955 L243.09173,236.327955 L243.09173,243.666382 L243.095775,243.666382 C242.90791,244.326607 242.800494,245.080315 242.800494,245.883011 C242.800494,248.479416 243.916449,248.785933 245.292629,248.785933 C246.670157,248.785933 247.785663,248.479416 247.785663,245.883011 C247.785663,245.080315 247.678697,244.326607 247.49173,243.666382 L247.522292,243.666382 L333.429258,243.666382 L333.459371,243.666382 C333.274652,244.326607 333.169483,245.080315 333.169483,245.883011 C333.169483,248.479416 334.26791,248.785933 335.624764,248.785933 C336.98027,248.785933 338.079146,248.479416 338.079146,245.883011 C338.079146,245.080315 337.973978,244.326607 337.789258,243.666382 L337.792854,243.666382 L337.792854,236.327955 L337.84409,236.327955 L337.84409,44.4124494 L342.022966,44.4124494 L342.022966,28.7167191 L342.174876,28.7167191 L352.368584,13.0209888 L333.818472,13.0209888 Z" id="Fill-249" fill="#CC9C9B"></path>
                <polygon id="Fill-250" fill="#DBA97A" points="245.041348 243.666067 331.571685 243.666067 331.571685 236.32809 245.041348 236.32809"></polygon>
                <path d="M331.571281,13.0209888 C331.571281,13.0209888 319.033753,0.383235955 288.306112,0.383235955 C257.578921,0.383235955 245.041393,13.0209888 245.041393,13.0209888 L226.491281,13.0209888 L236.684989,28.7167191 L288.306112,28.7167191 L339.927685,28.7167191 L350.121393,13.0209888 L331.571281,13.0209888 Z" id="Fill-251" fill="#D8B482"></path>
                <path d="M245.430562,20.6401348 C244.828315,17.493618 251.122247,8.98889888 268.159551,5.39339326 C285.196854,1.79788764 315.562247,3.19339326 327.668764,15.955191 C339.77573,28.7165393 305.490337,25.6181124 286.355056,25.6181124 C267.219326,25.6181124 246.769888,27.6405843 245.430562,20.6401348" id="Fill-252" fill="#DCBC91"></path>
                <polygon id="Fill-253" fill="#F1D0A5" points="245.041348 236.32809 331.571685 236.32809 331.571685 28.7164045 245.041348 28.7164045"></polygon>
                <polygon id="Fill-254" fill="#D8B482" points="288.306067 236.32809 289.204944 236.32809 289.204944 28.7164045 288.306067 28.7164045"></polygon>
                <polygon id="Fill-255" fill="#D8B482" points="236.684944 44.4121348 245.041348 44.4121348 245.041348 28.7164045 236.684944 28.7164045"></polygon>
                <polygon id="Fill-256" fill="#D8B482" points="240.862921 236.32809 245.041348 236.32809 245.041348 44.4121348 240.862921 44.4121348"></polygon>
                <path d="M245.244449,243.666157 L245.275011,243.666157 L245.275011,236.32818 L240.844449,236.32818 L240.844449,243.666157 L240.848494,243.666157 C240.660629,244.326831 240.553213,245.08009 240.553213,245.883236 C240.553213,248.479191 241.669169,248.786157 243.045348,248.786157 C244.422876,248.786157 245.538382,248.479191 245.538382,245.883236 C245.538382,245.08009 245.431416,244.326831 245.244449,243.666157" id="Fill-257" fill="#D8B482"></path>
                <polygon id="Fill-258" fill="#D8B482" points="331.418876 44.4121348 339.77573 44.4121348 339.77573 28.7164045 331.418876 28.7164045"></polygon>
                <polygon id="Fill-259" fill="#D8B482" points="331.418876 236.32809 335.596854 236.32809 335.596854 44.4121348 331.418876 44.4121348"></polygon>
                <path d="M331.21227,243.666157 L331.182157,243.666157 L331.182157,236.32818 L335.545753,236.32818 L335.545753,243.666157 L335.542157,243.666157 C335.726876,244.326831 335.832045,245.08009 335.832045,245.883236 C335.832045,248.479191 334.733169,248.786157 333.377213,248.786157 C332.020809,248.786157 330.921933,248.479191 330.921933,245.883236 C330.921933,245.08009 331.027551,244.326831 331.21227,243.666157" id="Fill-260" fill="#D8B482"></path>
                <path d="M301.302247,152.776944 C301.302247,154.296944 300.070337,155.529303 298.550337,155.529303 C297.030787,155.529303 295.798427,154.296944 295.798427,152.776944 C295.798427,151.257393 297.030787,150.025034 298.550337,150.025034 C300.070337,150.025034 301.302247,151.257393 301.302247,152.776944" id="Fill-261" fill="#CFA77D"></path>
                <path d="M281.223685,152.776944 C281.223685,154.296944 279.991326,155.529303 278.471326,155.529303 C276.951326,155.529303 275.719416,154.296944 275.719416,152.776944 C275.719416,151.257393 276.951326,150.025034 278.471326,150.025034 C279.991326,150.025034 281.223685,151.257393 281.223685,152.776944" id="Fill-262" fill="#CFA77D"></path>
                <path d="M280.270787,40.3713258 C278.051461,33.8050337 269.790337,32.693573 268.279326,32.5439101 C268.279326,32.5439101 268.237079,32.5259326 268.159775,32.5331236 C268.083371,32.5259326 268.040674,32.5439101 268.040674,32.5439101 C266.529663,32.693573 258.268989,33.8050337 256.048315,40.3713258 L252.073933,40.3713258 L252.073933,88.5794157 L252.073933,136.787955 L256.048315,136.787955 C258.268989,143.353798 268.040674,144.636045 268.040674,144.636045 C268.040674,144.636045 268.083371,144.633348 268.159775,144.626607 C268.237079,144.633348 268.279326,144.615371 268.279326,144.615371 C269.790337,144.465258 278.051461,143.353798 280.270787,136.787955 L284.245618,136.787955 L284.245618,88.5794157 L284.245618,40.3713258 L280.270787,40.3713258 Z" id="Fill-263" fill="#D8B482"></path>
                <path d="M277.787056,45.756 C276.022112,39.9227416 269.45582,38.9357753 268.254921,38.8027416 C268.254921,38.8027416 268.221213,38.7870112 268.15964,38.7928539 C268.098966,38.7870112 268.065258,38.8027416 268.065258,38.8027416 C266.86391,38.9357753 260.297618,39.9227416 258.532225,45.756 L255.373124,45.756 L255.373124,88.5798202 L255.373124,131.40364 L258.532225,131.40364 C260.297618,137.236449 268.065258,138.375326 268.065258,138.375326 C268.065258,138.375326 268.098966,138.373079 268.15964,138.367236 C268.221213,138.373079 268.254921,138.356899 268.254921,138.356899 C269.45582,138.223865 276.022112,137.236449 277.787056,131.40364 L280.946157,131.40364 L280.946157,88.5798202 L280.946157,45.756 L277.787056,45.756 Z" id="Fill-264" fill="#E1BE90"></path>
                <path d="M321.242517,40.3713258 C319.023191,33.8050337 310.762067,32.693573 309.251056,32.5439101 C309.251056,32.5439101 309.208809,32.5259326 309.131506,32.5331236 C309.055101,32.5259326 309.012404,32.5439101 309.012404,32.5439101 C307.501393,32.693573 299.240719,33.8050337 297.020045,40.3713258 L293.045663,40.3713258 L293.045663,88.5794157 L293.045663,136.787955 L297.020045,136.787955 C299.240719,143.353798 309.012404,144.636045 309.012404,144.636045 C309.012404,144.636045 309.055101,144.633348 309.131506,144.626607 C309.208809,144.633348 309.251056,144.615371 309.251056,144.615371 C310.762067,144.465258 319.023191,143.353798 321.242517,136.787955 L325.217348,136.787955 L325.217348,88.5794157 L325.217348,40.3713258 L321.242517,40.3713258 Z" id="Fill-265" fill="#D8B482"></path>
                <path d="M318.758787,45.756 C316.993843,39.9227416 310.427551,38.9357753 309.226652,38.8027416 C309.226652,38.8027416 309.192944,38.7870112 309.131371,38.7928539 C309.070697,38.7870112 309.036989,38.8027416 309.036989,38.8027416 C307.83564,38.9357753 301.269348,39.9227416 299.503955,45.756 L296.344854,45.756 L296.344854,88.5798202 L296.344854,131.40364 L299.503955,131.40364 C301.269348,137.236449 309.036989,138.375326 309.036989,138.375326 C309.036989,138.375326 309.070697,138.373079 309.131371,138.367236 C309.192944,138.373079 309.226652,138.356899 309.226652,138.356899 C310.427551,138.223865 316.993843,137.236449 318.758787,131.40364 L321.917888,131.40364 L321.917888,88.5798202 L321.917888,45.756 L318.758787,45.756 Z" id="Fill-266" fill="#E1BE90"></path>
                <path d="M280.270787,170.011416 C278.051461,166.061753 269.790337,165.393438 268.279326,165.303101 C268.279326,165.303101 268.237079,165.292764 268.159775,165.29636 C268.083371,165.292764 268.040674,165.303101 268.040674,165.303101 C266.529663,165.393438 258.268989,166.061753 256.048315,170.011416 L252.073933,170.011416 L252.073933,199.00827 L252.073933,228.005573 L256.048315,228.005573 C258.268989,231.954787 268.040674,232.725573 268.040674,232.725573 C268.040674,232.725573 268.083371,232.723775 268.159775,232.71973 C268.237079,232.723775 268.279326,232.713438 268.279326,232.713438 C269.790337,232.623551 278.051461,231.954787 280.270787,228.005573 L284.245618,228.005573 L284.245618,199.00827 L284.245618,170.011416 L280.270787,170.011416 Z" id="Fill-267" fill="#D8B482"></path>
                <path d="M277.787056,173.250067 C276.022112,169.741303 269.45582,169.148494 268.254921,169.068045 C268.254921,169.068045 268.221213,169.059056 268.15964,169.062202 C268.098966,169.059056 268.065258,169.068045 268.065258,169.068045 C266.86391,169.148494 260.297618,169.741303 258.532225,173.250067 L255.373124,173.250067 L255.373124,199.00827 L255.373124,224.766921 L258.532225,224.766921 C260.297618,228.275685 268.065258,228.95973 268.065258,228.95973 C268.065258,228.95973 268.098966,228.958831 268.15964,228.955236 C268.221213,228.958831 268.254921,228.948944 268.254921,228.948944 C269.45582,228.869393 276.022112,228.275685 277.787056,224.766921 L280.946157,224.766921 L280.946157,199.00827 L280.946157,173.250067 L277.787056,173.250067 Z" id="Fill-268" fill="#E1BE90"></path>
                <path d="M321.242517,170.011416 C319.023191,166.061753 310.762067,165.393438 309.251056,165.303101 C309.251056,165.303101 309.208809,165.292764 309.131506,165.29636 C309.055101,165.292764 309.012404,165.303101 309.012404,165.303101 C307.501393,165.393438 299.240719,166.061753 297.020045,170.011416 L293.045663,170.011416 L293.045663,199.00827 L293.045663,228.005573 L297.020045,228.005573 C299.240719,231.954787 309.012404,232.725573 309.012404,232.725573 C309.012404,232.725573 309.055101,232.723775 309.131506,232.71973 C309.208809,232.723775 309.251056,232.713438 309.251056,232.713438 C310.762067,232.623551 319.023191,231.954787 321.242517,228.005573 L325.217348,228.005573 L325.217348,199.00827 L325.217348,170.011416 L321.242517,170.011416 Z" id="Fill-269" fill="#D8B482"></path>
                <path d="M318.758787,173.250067 C316.993843,169.741303 310.427551,169.148494 309.226652,169.068045 C309.226652,169.068045 309.192944,169.059056 309.131371,169.062202 C309.070697,169.059056 309.036989,169.068045 309.036989,169.068045 C307.83564,169.148494 301.269348,169.741303 299.503955,173.250067 L296.344854,173.250067 L296.344854,199.00827 L296.344854,224.766921 L299.503955,224.766921 C301.269348,228.275685 309.036989,228.95973 309.036989,228.95973 C309.036989,228.95973 309.070697,228.958831 309.131371,228.955236 C309.192944,228.958831 309.226652,228.948944 309.226652,228.948944 C310.427551,228.869393 316.993843,228.275685 318.758787,224.766921 L321.917888,224.766921 L321.917888,199.00827 L321.917888,173.250067 L318.758787,173.250067 Z" id="Fill-270" fill="#E1BE90"></path>
            </g>
        </g>
    </g>
</svg>