<?xml version="1.0" encoding="UTF-8"?>
<svg width="120px" height="120px" viewBox="0 0 120 120" version="1.1" xmlns="http://www.w3.org/2000/svg" xmlns:xlink="http://www.w3.org/1999/xlink">
    <!-- Generator: Sketch 51.1 (57501) - http://www.bohemiancoding.com/sketch -->
    <title>Fireworks2</title>
    <desc>Created with Sketch.</desc>
    <defs>
        <polygon id="path-1" points="0.194048588 0.332903226 5.15671332 0.332903226 5.15671332 9.36383279 0.194048588 9.36383279"></polygon>
    </defs>
    <g id="Fireworks2" stroke="none" stroke-width="1" fill="none" fill-rule="evenodd">
        <g id="Group" transform="translate(6.000000, 0.000000)">
            <path d="M56.0093124,46.8336774 C56.0093124,48.7488387 55.2926133,50.3030323 54.4071088,50.3030323 C53.522569,50.3030323 52.8049053,48.7488387 52.8049053,46.8336774 C52.8049053,44.9185161 53.522569,43.3652903 54.4071088,43.3652903 C55.2926133,43.3652903 56.0093124,44.9185161 56.0093124,46.8336774" id="Fill-1" fill="#ED1C24"></path>
            <path d="M56.7920867,36.2834516 C56.7920867,38.8053871 55.7252372,40.8511935 54.4066265,40.8511935 C53.0899451,40.8511935 52.0230956,38.8053871 52.0230956,36.2834516 C52.0230956,33.7615161 53.0899451,31.7157097 54.4066265,31.7157097 C55.7252372,31.7157097 56.7920867,33.7615161 56.7920867,36.2834516" id="Fill-3" fill="#B2D235"></path>
            <g id="Group-7" transform="translate(46.300885, 0.634839)">
                <mask id="mask-2" fill="white">
                    <use xlink:href="#path-1"></use>
                </mask>
                <g id="Clip-6"></g>
                <path d="M5.02287434,4.42664516 C5.46562655,6.90987097 4.77400708,9.11148387 3.4775823,9.34374194 C2.18212212,9.57696774 0.770909735,7.75277419 0.328157522,5.26954839 C-0.115559292,2.78729032 0.577989381,0.585677419 1.87441416,0.352451613 C3.17083894,0.120193548 4.58012212,1.9443871 5.02287434,4.42664516" id="Fill-5" fill="#ED1C24" mask="url(#mask-2)"></path>
            </g>
            <path d="M58.5252832,22.9935484 C58.5252832,26.3041935 56.6819292,28.9887097 54.4064336,28.9887097 C52.1309381,28.9887097 50.2875841,26.3041935 50.2875841,22.9935484 C50.2875841,19.6829032 52.1309381,16.9993548 54.4064336,16.9993548 C56.6819292,16.9993548 58.5252832,19.6829032 58.5252832,22.9935484" id="Fill-8" fill="#ED1C24"></path>
            <path d="M47.9109018,38.9334194 C48.3247159,40.8030968 47.9629903,42.4753548 47.0987071,42.6679355 C46.2344239,42.8614839 45.197477,41.5018065 44.7826982,39.632129 C44.3679195,37.7624516 44.7325389,36.0901935 45.5968221,35.8976129 C46.4591761,35.7050323 47.4951584,37.0637419 47.9109018,38.9334194" id="Fill-10" fill="#ED1C24"></path>
            <path d="M46.3886637,28.4644839 C46.9355929,30.9264194 46.3356106,33.155129 45.0507611,33.4425484 C43.7659115,33.729 42.2794602,31.9657742 41.7354248,29.5038387 C41.1865664,27.0419032 41.7875133,24.8131935 43.0723628,24.5257742 C44.358177,24.2393226 45.8436637,26.0025484 46.3886637,28.4644839" id="Fill-12" fill="#ED1C24"></path>
            <path d="M66.5322496,12.9347419 C65.9660283,15.3918387 64.4680018,17.1444194 63.1841168,16.8463548 C61.9011965,16.5492581 61.3195416,14.3157097 61.8857628,11.8576452 C62.4519841,9.40054839 63.949046,7.64893548 65.232931,7.94603226 C66.5158513,8.24409677 67.0984708,10.4766774 66.5322496,12.9347419" id="Fill-14" fill="#ED1C24"></path>
            <path d="M45.2026858,15.1140968 C45.9203496,18.3463548 44.7010929,21.3676452 42.4815442,21.8640968 C40.261031,22.3605484 37.8803938,20.1415161 37.1636947,16.9102258 C36.4469956,13.6779677 37.6662522,10.6566774 39.8858009,10.1602258 C42.1053496,9.66474194 44.4879159,11.8828065 45.2026858,15.1140968" id="Fill-16" fill="#B2D235"></path>
            <path d="M62.9206841,44.5867742 C62.6505956,46.0054839 61.9011,47.0554839 61.2451708,46.9296774 C60.5911708,46.8048387 60.2767106,45.5545161 60.5448699,44.1348387 C60.8130292,42.716129 61.5615602,41.666129 62.2174894,41.7909677 C62.8734186,41.9158065 63.1859496,43.1680645 62.9206841,44.5867742" id="Fill-18" fill="#ED1C24"></path>
            <path d="M64.9770221,36.8812258 C64.6239779,38.7489677 63.5474823,40.1134839 62.5713053,39.9276774 C61.5941637,39.741871 61.0906416,38.0773548 61.4436858,36.2086452 C61.7967301,34.3399355 62.8761195,32.9754194 63.8513319,33.1602581 C64.8275088,33.3470323 65.331031,35.0125161 64.9770221,36.8812258" id="Fill-20" fill="#ED1C24"></path>
            <path d="M68.1242283,27.2803548 C67.6602549,29.7326129 65.9181841,31.461 64.2330248,31.1397097 C62.5488301,30.8193871 61.5562549,28.5713226 62.0221575,26.1180968 C62.486131,23.6658387 64.2282018,21.9374516 65.9133611,22.2577742 C67.599485,22.5790645 68.5891664,24.827129 68.1242283,27.2803548" id="Fill-22" fill="#B2D235"></path>
            <path d="M43.5683611,52.1836452 C45.2216885,53.1417097 46.2036531,54.5410645 45.7618655,55.3094516 C45.3191133,56.0788065 43.6204496,55.9249355 41.9671221,54.9678387 C40.3137947,54.0097742 39.3308655,52.6104194 39.7726531,51.8410645 C40.2163699,51.0726774 41.9150336,51.2255806 43.5683611,52.1836452" id="Fill-24" fill="#ED1C24"></path>
            <path d="M34.852123,46.2283548 C37.0311584,47.4893226 38.2610257,49.4393226 37.6041319,50.5831935 C36.9443442,51.7280323 34.6456982,51.6331935 32.468592,50.3722258 C30.2905212,49.1112581 29.0596894,47.1602903 29.7185124,46.0164194 C30.3773354,44.8725484 32.6750168,44.9673871 34.852123,46.2283548" id="Fill-26" fill="#ED1C24"></path>
            <path d="M5.16795044,35.3681613 C7.53218938,36.2246129 9.08616283,37.926871 8.64051681,39.1694516 C8.19294159,40.413 5.91165841,40.7255806 3.54741947,39.869129 C1.18318053,39.0117097 -0.369828319,37.3094516 0.0767823009,36.066871 C0.524357522,34.8242903 2.8037115,34.5117097 5.16795044,35.3681613" id="Fill-28" fill="#ED1C24"></path>
            <path d="M24.2490274,38.0771613 C27.1061779,39.7329677 28.5000274,42.675871 27.3637265,44.6529677 C26.2274257,46.6290968 22.9873283,46.8894194 20.1292133,45.2345806 C17.2701336,43.5787742 15.8762841,40.6349032 17.0135496,38.6578065 C18.150815,36.6816774 21.3909124,36.4213548 24.2490274,38.0771613" id="Fill-30" fill="#B2D235"></path>
            <path d="M32.6996142,55.2692903 C34.5207823,55.844129 35.7815168,56.9957419 35.5172159,57.8434839 C35.2519504,58.6902581 33.5610035,58.9109032 31.7379062,58.3360645 C29.9167381,57.7621935 28.6560035,56.6096129 28.921269,55.7628387 C29.1865345,54.9160645 30.878446,54.6954194 32.6996142,55.2692903" id="Fill-32" fill="#B2D235"></path>
            <path d="M22.9019611,51.3571935 C25.2999611,52.113 26.925315,53.7484839 26.5298283,55.0084839 C26.1343416,56.2684839 23.8704212,56.6778387 21.4714566,55.9210645 C19.072492,55.1652581 17.4490673,53.5297742 17.844554,52.2688065 C18.2381115,51.0088065 20.5039611,50.6004194 22.9019611,51.3571935" id="Fill-34" fill="#ED1C24"></path>
            <path d="M19.5673327,26.091 C21.4058637,27.8106774 22.1688637,29.9890645 21.2708195,30.9558387 C20.3737398,31.9216452 18.1532265,31.311 16.3156602,29.5903548 C14.4771292,27.8697097 13.7141292,25.6913226 14.6121735,24.7255161 C15.5111823,23.7587419 17.730731,24.3713226 19.5673327,26.091" id="Fill-36" fill="#ED1C24"></path>
            <path d="M10.7859841,45.7109032 C13.9344442,46.7047742 15.9321345,49.274129 15.2511257,51.4515484 C14.5691522,53.6289677 11.4621699,54.5889677 8.31563894,53.5950968 C5.16717876,52.6021935 3.16755929,50.0328387 3.84953274,47.8554194 C4.5334354,45.678 7.63655929,44.718 10.7859841,45.7109032" id="Fill-38" fill="#B2D235"></path>
            <path d="M45.0830752,45.0555484 C46.1740398,45.9990968 46.7055354,47.1739355 46.2705,47.6810323 C45.8345,48.1890968 44.5978805,47.835871 43.5069159,46.8923226 C42.4159513,45.9497419 41.8854204,44.7739355 42.3214204,44.2678065 C42.7564558,43.7597419 43.9921106,44.1129677 45.0830752,45.0555484" id="Fill-40" fill="#B2D235"></path>
            <path d="M33.1206628,23.4575806 C34.079477,24.5346774 34.4556717,25.7675806 33.9589018,26.2146774 C33.4621319,26.6617742 32.2814593,26.1508065 31.3197513,25.0756452 C30.359008,23.9995161 29.9828133,22.7656452 30.4805478,22.3195161 C30.9773177,21.8724194 32.1589549,22.3824194 33.1206628,23.4575806" id="Fill-42" fill="#B2D235"></path>
            <path d="M11.9465929,60.3829355 C13.3558761,60.0868065 14.6079292,60.377129 14.7458673,61.0313226 C14.8838053,61.6874516 13.8516814,62.4587419 12.4433628,62.754871 C11.033115,63.0519677 9.78009735,62.7616452 9.64312389,62.1074516 C9.50615044,61.4513226 10.5363451,60.6800323 11.9465929,60.3829355" id="Fill-44" fill="#ED1C24"></path>
            <path d="M33.2337142,97.2417097 C33.6812894,95.8694516 34.559077,94.926871 35.1928204,95.1339677 C35.8265637,95.343 35.9780062,96.6252581 35.5294664,97.9975161 C35.0809265,99.3697742 34.2041035,100.313323 33.5703602,100.10429 C32.9346876,99.8962258 32.7851743,98.6149355 33.2337142,97.2417097" id="Fill-46" fill="#ED1C24"></path>
            <path d="M75.6950982,97.1765806 C74.7343549,96.1004516 74.3571956,94.8665806 74.8539655,94.4185161 C75.3507354,93.9723871 76.5333372,94.4843226 77.4940805,95.5585161 C78.4538593,96.6336774 78.830054,97.8685161 78.3332841,98.3156129 C77.8374788,98.7627097 76.6558416,98.2527097 75.6950982,97.1765806" id="Fill-48" fill="#ED1C24"></path>
            <path d="M96.8691681,60.2520968 C95.459885,60.5482258 94.2059027,60.2579032 94.0689292,59.6037097 C93.9319558,58.9466129 94.9621504,58.1753226 96.3714336,57.8791935 C97.7787876,57.5820968 99.0346991,57.8733871 99.170708,58.5285484 C99.3057522,59.1837097 98.2794159,59.9540323 96.8691681,60.2520968" id="Fill-50" fill="#ED1C24"></path>
            <path d="M39.460315,39.4144839 C40.8985363,40.6570645 41.5361381,42.275129 40.8888903,43.029 C40.2397133,43.7848065 38.5516602,43.389 37.1124743,42.1483548 C35.6781115,40.9067419 35.0385805,39.2886774 35.6877575,38.532871 C36.3359699,37.779 38.0259522,38.172871 39.460315,39.4144839" id="Fill-52" fill="#ED1C24"></path>
            <path d="M32.7486159,31.8804194 C34.6324832,33.509129 35.2527221,35.8878387 34.1347487,37.1913871 C33.0138814,38.4949355 30.5782619,38.2307419 28.6924655,36.6010645 C26.8076336,34.9723548 26.1873947,32.5936452 27.3053681,31.2900968 C28.4272,29.9855806 30.8628195,30.2507419 32.7486159,31.8804194" id="Fill-54" fill="#ED1C24"></path>
            <path d="M41.9660611,65.6668065 C43.6203531,64.7087419 45.3199814,64.554871 45.7627336,65.3242258 C46.2045212,66.0935806 45.221592,67.4939032 43.5682646,68.4500323 C41.9149372,69.4090645 40.2172381,69.5619677 39.7735212,68.7926129 C39.3317336,68.0232581 40.3136982,66.624871 41.9660611,65.6668065" id="Fill-56" fill="#ED1C24"></path>
            <path d="M32.4688814,70.2630968 C34.6459876,69.0001935 36.9446336,68.9053548 37.6034566,70.0511613 C38.261315,71.1950323 37.0304832,73.1450323 34.8524124,74.406 C32.6753062,75.6669677 30.3766602,75.7618065 29.7178372,74.6179355 C29.0599788,73.4740645 30.289846,71.5240645 32.4688814,70.2630968" id="Fill-58" fill="#B2D235"></path>
            <path d="M8.25110708,90.624 C10.1725938,88.9981935 12.4191513,88.497871 13.2680009,89.5081935 C14.1187796,90.5185161 13.2467796,92.6552903 11.3262575,94.2810968 C9.40380619,95.907871 7.15821327,96.4072258 6.30839912,95.397871 C5.45858496,94.3865806 6.32865575,92.2507742 8.25110708,90.624" id="Fill-60" fill="#ED1C24"></path>
            <path d="M20.128731,75.4004516 C22.9878106,73.7456129 26.2259788,74.0049677 27.3642088,75.9820645 C28.5005097,77.9572258 27.1056956,80.9020645 24.2485451,82.557871 C21.3913947,84.2136774 18.1503327,83.9523871 17.0140319,81.9762581 C15.8767664,80.000129 17.2696513,77.0552903 20.128731,75.4004516" id="Fill-62" fill="#B2D235"></path>
            <path d="M39.1956283,76.6535806 C40.6029823,75.3587419 42.2283363,74.8380968 42.827354,75.4922903 C43.4244425,76.1455161 42.7694779,77.7268065 41.3630885,79.0216452 C39.9557345,80.3164839 38.3313451,80.837129 37.7323274,80.1829355 C37.1342743,79.5277742 37.7911681,77.9484194 39.1956283,76.6535806" id="Fill-64" fill="#ED1C24"></path>
            <path d="M30.9202133,83.2094516 C32.7712841,81.5033226 34.9956558,80.9100968 35.8850186,81.8836452 C36.7763106,82.8571935 35.997877,85.0288065 34.1439124,86.7349355 C32.2928416,88.4400968 30.0684699,89.0333226 29.1781425,88.0597742 C28.287815,87.0871935 29.0662487,84.9146129 30.9202133,83.2094516" id="Fill-66" fill="#ED1C24"></path>
            <path d="M7.44190265,73.4739677 C9.84761947,72.7355806 12.1076814,73.1633226 12.4935221,74.4271935 C12.8774336,75.689129 11.2405044,77.3120323 8.83768142,78.0494516 C6.4319646,78.786871 4.17093805,78.3600968 3.78702655,77.0962258 C3.40118584,75.8333226 5.03907965,74.2104194 7.44190265,73.4739677" id="Fill-68" fill="#ED1C24"></path>
            <path d="M19.9883814,90.915 C22.4191779,88.6756452 25.6370894,88.2237097 27.1756292,89.9056452 C28.7132044,91.5856452 27.9897531,94.7646774 25.557992,97.0030645 C23.1281602,99.2414516 19.9092841,99.6933871 18.3707442,98.0124194 C16.833169,96.3314516 17.5566204,93.1533871 19.9883814,90.915" id="Fill-70" fill="#ED1C24"></path>
            <path d="M36.5712363,60.786 C37.9303602,60.3108387 39.2113513,60.4366452 39.4312805,61.0685806 C39.6492805,61.6995484 38.7271212,62.5985806 37.3670327,63.0747097 C36.0088735,63.5518065 34.7288469,63.4250323 34.5089177,62.7930968 C34.2889885,62.1611613 35.2111478,61.2640645 36.5712363,60.786" id="Fill-72" fill="#ED1C24"></path>
            <path d="M28.8911735,62.8509677 C30.6795451,62.223871 32.3965363,62.4774194 32.7254655,63.4190323 C33.0515009,64.3596774 31.8650407,65.6303226 30.076669,66.2574194 C28.2863681,66.8845161 26.5703416,66.63 26.2433416,65.6903226 C25.915377,64.7487097 27.1008726,63.4780645 28.8911735,62.8509677" id="Fill-74" fill="#ED1C24"></path>
            <path d="M19.0303389,64.917871 C21.3791442,64.0943226 23.7424186,64.7436774 24.3067106,66.3685161 C24.8738965,67.9923871 23.4279584,69.9772258 21.0791531,70.7998065 C18.7284186,71.6233548 16.3651442,70.9749677 15.7998876,69.3491613 C15.2336664,67.7243226 16.6796044,65.7394839 19.0303389,64.917871" id="Fill-76" fill="#ED1C24"></path>
            <path d="M52.8036513,73.8004839 C52.8036513,71.8843548 53.5222796,70.3320968 54.4068195,70.3330645 C55.2923239,70.3320968 56.009023,71.8853226 56.009023,73.8004839 C56.009023,75.7166129 55.2923239,77.2679032 54.4068195,77.268871 C53.5222796,77.2679032 52.8036513,75.7156452 52.8036513,73.8004839" id="Fill-78" fill="#ED1C24"></path>
            <path d="M52.0227097,84.3515806 C52.0227097,81.8286774 53.0885947,79.7838387 54.4062407,79.7838387 C55.7248513,79.7838387 56.7917009,81.8296452 56.7917009,84.3515806 C56.7917009,86.8735161 55.7248513,88.9183548 54.4072053,88.9183548 C53.0895593,88.9183548 52.0227097,86.8735161 52.0227097,84.3515806" id="Fill-80" fill="#ED1C24"></path>
            <path d="M57.4900726,115.572581 C57.0463558,113.090323 57.7399044,110.88871 59.0372938,110.655484 C60.3317894,110.422258 61.7420372,112.246452 62.1828602,114.729677 C62.626577,117.212903 61.9359221,119.414516 60.6404619,119.646774 C59.3440372,119.879032 57.9318602,118.055806 57.4900726,115.572581" id="Fill-82" fill="#B2D235"></path>
            <path d="M50.2875841,97.640129 C50.2875841,94.3304516 52.1309381,91.6469032 54.4073982,91.6469032 C56.6819292,91.6449677 58.5252832,94.3304516 58.5252832,97.640129 C58.5252832,100.951742 56.6819292,103.63529 54.4073982,103.63529 C52.1309381,103.63529 50.2875841,100.951742 50.2875841,97.640129" id="Fill-84" fill="#ED1C24"></path>
            <path d="M60.9029301,81.7016129 C60.4871867,79.8309677 60.8518062,78.1587097 61.717054,77.9670968 C62.5784434,77.7725806 63.6163549,79.1332258 64.0292044,81.0029032 C64.4459124,82.8725806 64.0832221,84.5448387 63.2179743,84.7374194 C62.3546558,84.93 61.3196381,83.5703226 60.9029301,81.7016129" id="Fill-86" fill="#ED1C24"></path>
            <path d="M62.4243,92.1700645 C61.8783354,89.708129 62.4773531,87.4794194 63.7650965,87.1929677 C65.0489814,86.9055484 66.5325389,88.6687742 67.0804327,91.1307097 C67.6254327,93.5926452 67.026415,95.8213548 65.7425301,96.1078065 C64.4547867,96.3952258 62.9712292,94.632 62.4243,92.1700645" id="Fill-88" fill="#B2D235"></path>
            <path d="M42.2815823,107.699806 C42.8458743,105.241742 44.3467947,103.491097 45.6306796,103.788194 C46.9116708,104.08529 47.4933257,106.318839 46.928069,108.775935 C46.3628124,111.234 44.8638212,112.985613 43.5809009,112.687548 C42.2979805,112.391419 41.7153611,110.156903 42.2815823,107.699806" id="Fill-90" fill="#ED1C24"></path>
            <path d="M63.6093133,105.520452 C62.8926142,102.288194 64.1109062,99.2669032 66.3304549,98.7704516 C68.5519327,98.2759355 70.9325699,100.493032 71.6511982,103.72529 C72.3678973,106.955613 71.1496053,109.978839 68.929092,110.474323 C66.7076142,110.969806 64.3260124,108.751742 63.6093133,105.520452" id="Fill-92" fill="#ED1C24"></path>
            <path d="M45.895077,76.0482581 C46.1613071,74.6285806 46.9117673,73.5795484 47.5667319,73.7043871 C48.2226611,73.8301935 48.5361566,75.0814839 48.2670327,76.4992258 C47.9998381,77.9179355 47.2503425,78.9689032 46.5963425,78.8430968 C45.9394487,78.7192258 45.6269177,77.4669677 45.895077,76.0482581" id="Fill-94" fill="#ED1C24"></path>
            <path d="M43.8368097,83.7533226 C44.1888894,81.8846129 45.2673142,80.5220323 46.2434912,80.7059032 C47.2187035,80.8926774 47.7222257,82.5581613 47.3691814,84.4259032 C47.0161372,86.2955806 45.938677,87.6600968 44.9634646,87.4742903 C43.9872876,87.2875161 43.4818363,85.6220323 43.8368097,83.7533226" id="Fill-96" fill="#B2D235"></path>
            <path d="M40.6905681,93.3538065 C41.1526124,90.9025161 42.8956478,89.174129 44.5808071,89.4954194 C46.2659664,89.8147742 47.2556478,92.0638065 46.7916743,94.5160645 C46.3296301,96.9692903 44.5865947,98.6967097 42.8995062,98.3763871 C41.2153115,98.0560645 40.2246655,95.8070323 40.6905681,93.3538065" id="Fill-98" fill="#B2D235"></path>
            <path d="M65.2446027,68.4509032 C63.5903106,67.4938065 62.6093106,66.0934839 63.0530274,65.3250968 C63.494815,64.5547742 65.1944434,64.7086452 66.8468062,65.6667097 C68.5010982,66.6247742 69.4811336,68.0231613 69.0403106,68.7934839 C68.5965938,69.561871 66.8969655,69.4089677 65.2446027,68.4509032" id="Fill-100" fill="#ED1C24"></path>
            <path d="M73.9618053,74.4058065 C71.7827699,73.1448387 70.5509735,71.1948387 71.2088319,70.0509677 C71.8686195,68.906129 74.1672655,69.0019355 76.3463009,70.2629032 C78.5234071,71.5229032 79.7552035,73.473871 79.0963805,74.6177419 C78.4385221,75.7616129 76.1389115,75.6667742 73.9618053,74.4058065" id="Fill-102" fill="#ED1C24"></path>
            <path d="M103.644049,85.2659032 C101.280774,84.4094516 99.7268009,82.7071935 100.173412,81.4655806 C100.621951,80.223 102.900341,79.9094516 105.266509,80.766871 C107.630748,81.6213871 109.185686,83.3246129 108.737146,84.5671935 C108.288606,85.8097742 106.010217,86.1223548 103.644049,85.2659032" id="Fill-104" fill="#B2D235"></path>
            <path d="M84.5667336,82.5573871 C81.707654,80.9015806 80.3118752,77.9586774 81.4510699,75.9825484 C82.5883354,74.0044839 85.8265035,73.745129 88.6846186,75.3999677 C91.541769,77.0557742 92.9385124,79.9996452 91.7993177,81.9767419 C90.6620522,83.952871 87.4248487,84.2131935 84.5667336,82.5573871" id="Fill-106" fill="#ED1C24"></path>
            <path d="M76.1133496,65.3653548 C74.2921814,64.7905161 73.0304823,63.6379355 73.2957478,62.7911613 C73.5619779,61.9443871 75.2529248,61.7247097 77.0740929,62.2985806 C78.8952611,62.8734194 80.1569602,64.0240645 79.8916947,64.8718065 C79.6264292,65.7195484 77.9335531,65.9392258 76.1133496,65.3653548" id="Fill-108" fill="#ED1C24"></path>
            <path d="M85.9110027,69.2778387 C83.5130027,68.5220323 81.8876487,66.8855806 82.2821708,65.6265484 C82.6776575,64.3646129 84.9435071,63.9571935 87.3415071,64.713 C89.7404717,65.4697742 91.3648611,67.1052581 90.9693743,68.3652581 C90.5738876,69.6262258 88.3099673,70.0346129 85.9110027,69.2778387" id="Fill-110" fill="#ED1C24"></path>
            <path d="M89.245631,94.5440323 C87.4061354,92.8224194 86.6441,90.645 87.5421442,89.6782258 C88.4411531,88.7133871 90.6597372,89.3230645 92.4992327,91.0446774 C94.3358345,92.7653226 95.0978699,94.9427419 94.1998257,95.9104839 C93.3037106,96.8753226 91.0841619,96.2637097 89.245631,94.5440323" id="Fill-112" fill="#ED1C24"></path>
            <path d="M98.0288124,74.9226774 C94.8793876,73.9297742 92.8797681,71.3604194 93.5627062,69.1839677 C94.2466088,67.0055806 97.3497327,66.0465484 100.500122,67.0394516 C103.645688,68.0313871 105.645308,70.6017097 104.963335,72.7781613 C104.281361,74.9565484 101.176308,75.9155806 98.0288124,74.9226774" id="Fill-114" fill="#B2D235"></path>
            <path d="M63.7289239,75.5790968 C62.6379593,74.6355484 62.1074283,73.4597419 62.5434283,72.9536129 C62.9784637,72.4455484 64.2170124,72.7997419 65.3050832,73.7413548 C66.3960478,74.685871 66.9275434,75.8597419 66.4934726,76.3668387 C66.056508,76.8749032 64.8198885,76.5216774 63.7289239,75.5790968" id="Fill-116" fill="#ED1C24"></path>
            <path d="M69.3516841,81.2196774 C67.9163566,79.9790323 67.2768257,78.36 67.9250381,77.6051613 C68.5722858,76.8503226 70.2641973,77.2451613 71.6995248,78.4858065 C73.137746,79.7274194 73.7753478,81.3474194 73.1281,82.1003226 C72.4779584,82.8551613 70.7879761,82.4612903 69.3516841,81.2196774" id="Fill-118" fill="#ED1C24"></path>
            <path d="M76.0671451,88.754129 C74.1813487,87.1244516 73.5591805,84.7467097 74.6800478,83.4431613 C75.7989858,82.1386452 78.2346053,82.4038065 80.1194372,84.0344516 C82.0061982,85.6631613 82.6274018,88.0409032 81.5065345,89.3444516 C80.3875965,90.648 77.9500478,90.3838065 76.0671451,88.754129" id="Fill-120" fill="#B2D235"></path>
            <path d="M66.8469027,54.9677419 C65.191646,55.9258065 63.4939469,56.0787097 63.0521593,55.3093548 C62.6084425,54.5409677 63.5904071,53.1406452 65.2446991,52.1845161 C66.8970619,51.2254839 68.5957257,51.0725806 69.0394425,51.8409677 C69.4802655,52.6103226 68.5011947,54.0106452 66.8469027,54.9677419" id="Fill-122" fill="#ED1C24"></path>
            <path d="M76.3460115,50.3714516 C74.1669761,51.6343548 71.8692947,51.7291935 71.2124009,50.5843548 C70.5526133,49.4404839 71.7844097,47.4895161 73.9615159,46.2285484 C76.1386221,44.9666129 78.4382327,44.8717742 79.0970558,46.0166129 C79.7549142,47.1614516 78.5231177,49.1114516 76.3460115,50.3714516" id="Fill-124" fill="#ED1C24"></path>
            <path d="M100.561857,30.0115161 C98.6413345,31.6373226 96.3957416,32.1366774 95.5449628,31.1273226 C94.6970779,30.1160323 95.5652195,27.9792581 97.4876708,26.3534516 C99.4091575,24.7276452 101.657644,24.2273226 102.505529,25.2376452 C103.355343,26.247 102.484308,28.3847419 100.561857,30.0115161" id="Fill-126" fill="#ED1C24"></path>
            <path d="M88.6842327,45.2340968 C85.8261177,46.8889355 82.5889142,46.6295806 81.4506841,44.6524839 C80.3114894,42.6763548 81.7082327,39.7324839 84.5663478,38.0766774 C87.4244628,36.4218387 90.662631,36.6821613 91.7989319,38.6582903 C92.9381265,40.6353871 91.5423478,43.5792581 88.6842327,45.2340968" id="Fill-128" fill="#ED1C24"></path>
            <path d="M69.6173354,43.9809677 C68.2099814,45.2767742 66.5846274,45.7954839 65.9875389,45.1422581 C65.3885212,44.4880645 66.045415,42.9087097 67.4498752,41.6129032 C68.8572292,40.3170968 70.4816186,39.7974194 71.0806363,40.4516129 C71.6786894,41.1058065 71.0246894,42.686129 69.6173354,43.9809677" id="Fill-130" fill="#B2D235"></path>
            <path d="M77.8945832,37.4250968 C76.0415832,39.1312258 73.8181761,39.7244516 72.9297779,38.7509032 C72.0375212,37.7773548 72.8178841,35.6057419 74.6689549,33.8996129 C76.5200257,32.1944516 78.7453619,31.6002581 79.6356894,32.5738065 C80.5269814,33.5483226 79.745654,35.7189677 77.8945832,37.4250968" id="Fill-132" fill="#ED1C24"></path>
            <path d="M101.370096,47.1615484 C98.9672735,47.8989677 96.7043177,47.4721935 96.3194416,46.2073548 C95.9345655,44.9444516 97.5714947,43.3225161 99.9772115,42.5850968 C102.380035,41.8486452 104.64299,42.2734839 105.028831,43.5383226 C105.411778,44.8012258 103.775813,46.424129 101.370096,47.1615484" id="Fill-134" fill="#ED1C24"></path>
            <path d="M88.8255469,29.7205161 C86.3937858,31.9589032 83.1778035,32.4108387 81.6382991,30.729871 C80.0997593,29.0489032 80.822246,25.8708387 83.2559363,23.6314839 C85.6867327,21.3940645 88.9036796,20.9411613 90.4422195,22.6211613 C91.9807593,24.3030968 91.2563434,27.482129 88.8255469,29.7205161" id="Fill-136" fill="#B2D235"></path>
            <path d="M72.242692,59.8475806 C70.8816389,60.3237097 69.6035416,60.1979032 69.3816832,59.5659677 C69.1627186,58.9340323 70.0868071,58.035 71.4449664,57.5598387 C72.8040903,57.0837097 74.0841168,57.2095161 74.304046,57.8404839 C74.5259044,58.4733871 73.6008513,59.3714516 72.242692,59.8475806" id="Fill-138" fill="#B2D235"></path>
            <path d="M79.9237195,57.7826129 C78.1334186,58.4106774 76.4154628,58.1561613 76.0894274,57.2164839 C75.7614628,56.274871 76.9469584,55.0032581 78.7362947,54.377129 C80.5265956,53.7500323 82.2435867,54.0045484 82.5696221,54.9442258 C82.8985513,55.884871 81.7120912,57.1564839 79.9237195,57.7826129" id="Fill-140" fill="#ED1C24"></path>
            <path d="M89.7844575,55.7167742 C87.433723,56.5403226 85.0723779,55.8909677 84.505192,54.266129 C83.9389708,52.6412903 85.3868381,50.6583871 87.736608,49.833871 C90.0844487,49.0103226 92.4486876,49.6596774 93.012015,51.2845161 C93.5811301,52.9093548 92.1342274,54.8941935 89.7844575,55.7167742" id="Fill-142" fill="#B2D235"></path>
        </g>
    </g>
</svg>