<?xml version="1.0" encoding="UTF-8"?>
<svg width="120px" height="120px" viewBox="0 0 120 120" version="1.1" xmlns="http://www.w3.org/2000/svg" xmlns:xlink="http://www.w3.org/1999/xlink">
    <!-- Generator: Sketch 51.1 (57501) - http://www.bohemiancoding.com/sketch -->
    <title>Doughnut11</title>
    <desc>Created with Sketch.</desc>
    <defs>
        <polygon id="path-1" points="0 0.33597037 119.936526 0.33597037 119.936526 115.57037 0 115.57037"></polygon>
    </defs>
    <g id="Doughnut11" stroke="none" stroke-width="1" fill="none" fill-rule="evenodd">
        <g id="Page-1" transform="translate(0.000000, 2.000000)">
            <path d="M76.5473143,77.1512133 C74.0821714,79.234917 71.3718857,81.1033763 68.3054571,82.1044133 C62.4781714,84.0038059 55.8254571,82.4670207 50.9504571,78.74428 C46.0758857,75.0219689 42.9074571,69.3280874 41.5420286,63.3381911 C37.9103143,47.3293319 53.0440286,29.5998059 69.7930286,36.1104133 C87.7338857,43.0807244 90.7441714,65.1615393 76.5473143,77.1512133 M119.488886,55.6018504 C119.183314,51.5169319 118.516029,47.4620874 117.502457,43.5352726 C116.962457,41.4111837 116.315314,39.3223244 115.576886,37.2850207 C114.797314,35.1454652 113.8806,33.0926948 112.831457,31.1365911 C109.555886,25.0139393 105.022029,19.7956578 99.6533143,15.5466207 C93.9580286,11.0376578 87.3258857,7.62167259 80.2608857,5.37470963 C78.1724571,4.71093185 76.0433143,4.14425037 73.8884571,3.68970222 C68.8098857,2.60188 63.5937429,2.10136148 58.4131714,2.20876889 C54.9443143,2.27493185 51.4904571,2.61734667 48.1030286,3.23515407 C44.2420286,3.93459111 40.4671714,5.00179111 36.8508857,6.44190963 C34.0544571,7.55508 31.4003143,8.90841333 28.8991714,10.4709763 C25.6086,12.5289022 22.5726,14.94428 19.8220286,17.650517 C10.9176,26.3930504 4.92231429,38.1429911 2.41088571,50.4291096 C1.93731429,52.7473911 1.58588571,55.0862948 1.36174286,57.4303541 C1.32102857,57.8385022 1.29017143,58.24708 1.25974286,58.6505022 C0.892885714,64.0582504 1.51945714,69.3023096 2.96117143,74.2714059 C5.18717143,81.9613467 9.37431429,88.9930948 14.8758857,94.9881467 C18.3906,98.8230207 22.4453143,102.23428 26.8716,105.114087 C30.3357429,107.366206 34.0236,109.296532 37.8541714,110.848784 C40.9004571,112.084828 44.0431714,112.988339 47.2527429,113.601421 C50.7824571,114.285821 54.3841714,114.62265 58.0056,114.663465 C63.6138857,114.739939 69.2684571,114.116976 74.7541714,113.014117 C77.5711714,112.447006 80.3526,111.747569 83.0624571,110.89991 C85.5790286,110.123569 88.0343143,109.214902 90.4030286,108.167895 L90.4077429,108.163169 C100.901314,103.530902 109.744029,96.1679096 114.751457,84.9283689 C118.786029,75.8743541 120.2376,65.6358504 119.488886,55.6018504" id="Fill-1" fill="#FDD638"></path>
            <g id="Group-5" transform="translate(0.000000, 0.093659)">
                <mask id="mask-2" fill="white">
                    <use xlink:href="#path-1"></use>
                </mask>
                <g id="Clip-4"></g>
                <path d="M76.5473143,77.0575541 C74.0821714,79.1412578 71.3718857,81.009717 68.3054571,82.0107541 C62.4781714,83.9101467 55.8254571,82.3733615 50.9504571,78.6506207 C46.0758857,74.9283096 42.9074571,69.2344281 41.5420286,63.2445319 C37.9103143,47.2356726 53.0440286,29.5061467 69.7930286,36.0167541 C87.7338857,42.9870652 90.7441714,65.06788 76.5473143,77.0575541 M119.906743,50.4630504 C119.753743,47.98108 118.913314,45.4793467 117.502457,43.4416133 C116.218457,41.5877615 114.461314,40.1222948 112.321886,39.4073911 C113.040171,36.6856874 113.192743,33.8312281 112.831457,31.0429319 C112.199314,26.1511689 109.993886,21.4531689 106.494171,17.9809022 C105.007029,16.5051244 103.132457,15.1874504 101.038886,15.2385763 C100.565314,15.2488874 100.106743,15.330517 99.6533143,15.4529615 C98.4254571,15.7747541 97.2438857,16.3569022 95.9907429,16.5665615 C92.3131714,17.1792133 88.9206,14.4983244 86.4756,11.6795244 C84.5243143,9.43256148 82.6904571,6.89473926 80.2608857,5.28105037 C79.6446,4.86731704 78.9824571,4.51502074 78.2740286,4.24435407 C76.8070286,3.6879837 75.3451714,3.54491704 73.8884571,3.59604296 C70.8421714,3.70302074 67.8061714,4.65293185 64.7191714,4.47936148 C62.6461714,4.36164296 60.5067429,3.18230963 58.4131714,2.11510963 C56.3757429,1.07325778 54.3738857,0.133657778 52.5040286,0.373820741 C50.7618857,0.598517037 49.3360286,1.76281333 48.1030286,3.14149481 C46.8143143,4.57130222 45.7291714,6.23611704 44.6800286,7.30847259 C39.9837429,12.1031393 37.9866,10.9800874 31.5786,10.3055689 C30.6820286,10.2140578 29.7803143,10.2394059 28.8991714,10.377317 C24.9258857,10.9899689 21.2886,13.7984578 19.8220286,17.5568578 C19.7046,17.8533022 19.6026,18.149317 19.5160286,18.455643 C18.7724571,21.0497467 18.9203143,23.9759541 17.4126,26.2126059 C15.5328857,29.0004726 11.7224571,29.7716578 9.3996,32.2072281 C4.50445714,37.3443096 8.60502857,46.3725467 5.3196,52.6687689 C4.30088571,54.6094059 2.64531429,56.1414652 1.54517143,58.0361319 C1.44317143,58.2097022 1.35145714,58.3832726 1.25974286,58.556843 C-1.20582857,63.3772874 0.2616,69.1888874 2.96117143,74.1777467 C3.5826,75.3313022 4.27517143,76.4444726 4.9986,77.4863244 C8.82917143,83.0221022 13.7041714,88.3121319 14.8758857,94.8944874 C14.9166,95.1191837 14.9521714,95.34388 14.9826,95.5685763 C15.1968857,97.1466059 15.2067429,98.8316133 16.0270286,100.194828 C16.5721714,101.098769 17.4224571,101.772858 18.3241714,102.324502 C20.9118857,103.907258 23.8510286,104.545687 26.8716,105.020428 C30.6104571,105.607732 34.4667429,105.939836 37.8948857,107.481776 C41.2823143,109.00868 44.0483143,111.633717 47.2527429,113.507761 C47.4156,113.609584 47.5784571,113.701524 47.7417429,113.793465 C50.8844571,115.534754 54.9953143,116.357065 58.0056,114.569806 C58.2653143,114.416428 58.5203143,114.242858 58.7594571,114.049095 C59.9414571,113.10391 60.7617429,111.766043 61.9634571,110.852221 C63.6293143,109.575361 65.8094571,109.258724 67.8876,108.978176 C70.6587429,108.605687 74.7340286,107.650191 77.4696,108.258117 C79.6544571,108.748324 80.9586,110.336236 83.0624571,110.80625 C83.5921714,110.923539 84.1728857,110.974665 84.8350286,110.913658 C86.9594571,110.719465 88.9814571,109.662576 90.4030286,108.074236 L90.4077429,108.06951 C90.8817429,107.538058 91.2888857,106.950754 91.6098857,106.31748 C92.2720286,105.015273 92.5878857,103.565273 93.0768857,102.186591 C95.2420286,96.1146356 101.095029,92.8520281 106.076743,89.3488281 C109.663029,86.8363541 113.9826,84.5077615 113.799171,79.3655244 C113.7276,77.3436874 112.810886,75.423243 112.6836,73.4014059 C112.474457,70.0206504 114.456171,66.9522356 116.101457,63.9899393 C117.578743,61.3296726 118.846886,58.4649022 119.488886,55.5081911 C119.845457,53.8536874 120.008314,52.1635244 119.906743,50.4630504" id="Fill-3" fill="#5D3711" mask="url(#mask-2)"></path>
            </g>
            <path d="M65.8738286,13.6713304 C66.3834,14.8270341 66.8261143,15.9698489 67.2259714,17.1680859 C67.5512571,18.1416267 68.6535429,18.667923 69.5762571,18.1265896 C70.5165429,17.5749452 70.5452571,16.3960415 69.9002571,15.6076711 C69.1056857,14.6371378 68.3899714,13.64856 67.6879714,12.607997 C66.9178286,11.4660415 65.3325429,12.4443081 65.8738286,13.6713304" id="Fill-6" fill="#F3AFCE"></path>
            <path d="M82.6617857,27.6076563 C83.6303571,26.7780415 84.8282143,26.4034044 86.0916429,26.4450785 C88.0840714,26.5108119 87.8590714,23.303197 85.7106429,23.6241304 C83.8407857,23.90296 82.2872143,24.9525452 81.1617857,26.4472267 C80.4696429,27.3662044 81.8933571,28.2662785 82.6617857,27.6076563" id="Fill-8" fill="#F3AFCE"></path>
            <path d="M103.887386,33.3029556 C103.279671,34.9780815 102.671529,36.6527778 102.063386,38.3279037 C101.457386,39.9983037 104.319814,40.8219037 104.734243,39.0660074 C105.142671,37.3358889 105.5511,35.6057704 105.959529,33.8756519 C106.281814,32.5107185 104.356243,32.0114889 103.887386,33.3029556" id="Fill-10" fill="#F3AFCE"></path>
            <path d="M89.9324143,38.70688 C90.5701286,38.9689541 91.0475571,39.5738726 91.2339857,40.1581689 C91.3985571,40.675443 91.9299857,41.0084059 92.4674143,40.8606133 C92.9414143,40.7300059 93.3747,40.1293837 93.1681286,39.6237096 C92.6508429,38.3605985 91.7131286,37.4188504 90.4021286,36.9986726 C89.9478429,36.8530281 89.4382714,37.1696652 89.3152714,37.6173393 C89.1759857,38.1251615 89.4892714,38.5242874 89.9324143,38.70688" id="Fill-12" fill="#F3AFCE"></path>
            <path d="M99.8665714,62.1430904 C101.203286,63.5209126 102.489,64.9893867 103.944857,66.2408978 C105.504429,67.5813422 107.341286,65.2510311 105.681,63.9853422 C104.161714,62.8270607 102.467571,61.8805867 100.850143,60.8645126 C100.058143,60.3670015 99.231,61.4883348 99.8665714,62.1430904" id="Fill-14" fill="#F3AFCE"></path>
            <path d="M90.5985,73.6218489 C89.9316429,75.387197 89.6055,77.6706785 89.4992143,79.5524563 C89.3933571,81.4316563 92.5587857,81.9162785 92.8292143,80.003997 C93.1155,77.9834489 93.2337857,75.63896 92.9012143,73.6218489 C92.6886429,72.3359674 90.9670714,72.6457304 90.5985,73.6218489" id="Fill-16" fill="#F3AFCE"></path>
            <path d="M79.3964571,91.9666904 C79.8027429,93.7118459 79.9960286,95.4780533 80.3607429,97.2287941 C80.6363143,98.5554904 82.8246,97.9595941 82.3866,96.6689867 C81.8118857,94.9758163 81.0828857,93.3578311 80.5480286,91.6487644 C80.3178857,90.9140978 79.2216,91.2148385 79.3964571,91.9666904" id="Fill-18" fill="#F3AFCE"></path>
            <path d="M59.5450714,101.268344 C60.3289286,100.858907 61.1059286,100.39147 61.9266429,100.062373 C62.6299286,99.7805363 63.0589286,99.0218104 62.6402143,98.3043289 C62.2330714,97.6074696 61.3459286,97.5696622 60.7652143,98.0620178 C60.0859286,98.6377215 59.3140714,99.1111733 58.5807857,99.6146993 C57.5723571,100.308551 58.4445,101.843618 59.5450714,101.268344" id="Fill-20" fill="#F3AFCE"></path>
            <path d="M47.5492714,88.5116089 C46.9317,90.8101274 46.2665571,93.0884533 45.2684143,95.2537867 C44.5034143,96.9130163 46.9372714,97.960883 47.5814143,96.2316237 C48.4857,93.8020681 49.1114143,91.3347052 49.2374143,88.7406015 C49.2854143,87.7610459 47.7987,87.5827496 47.5492714,88.5116089" id="Fill-22" fill="#F3AFCE"></path>
            <path d="M23.6576571,89.55548 C25.2845143,88.8835393 26.7875143,88.7323096 28.5275143,88.948843 C30.1252286,89.1473319 30.1235143,86.2550652 28.5275143,86.4591393 C26.6289429,86.70188 24.7668,87.255243 23.0139429,88.0247096 C22.1568,88.4006356 22.7803714,89.9180874 23.6576571,89.55548" id="Fill-24" fill="#F3AFCE"></path>
            <path d="M19.6544571,69.0406652 C21.0893143,70.2724133 22.7804571,71.1621763 24.6108857,71.6399244 C26.4207429,72.1120874 26.9041714,69.2382948 24.9597429,69.0539837 C23.4391714,68.9096281 22.1256,68.3184578 20.8986,67.4239689 C19.9613143,66.7404281 18.7703143,68.2815096 19.6544571,69.0406652" id="Fill-26" fill="#F3AFCE"></path>
            <path d="M19.7862857,38.3527793 C18.8451429,40.0029867 17.8941429,41.6377274 16.8908571,43.250557 C16.0405714,44.6172089 18.39,45.7557274 18.9852857,44.1360237 C19.6354286,42.3685274 20.3344286,40.6285274 21.0518571,38.8872385 C21.3552857,38.1504237 20.1668571,37.6847052 19.7862857,38.3527793" id="Fill-28" fill="#F3AFCE"></path>
            <path d="M27.7000286,50.4789037 C29.1318857,51.4949778 30.5641714,52.5114815 31.9960286,53.5279852 C33.2131714,54.3915407 34.4958857,52.1531704 33.1531714,51.5439556 C31.5524571,50.8165926 29.9513143,50.0896593 28.3506,49.3627259 C27.5958857,49.0198815 27.0164571,49.9938519 27.7000286,50.4789037" id="Fill-30" fill="#F3AFCE"></path>
            <path d="M68.2069286,22.4732815 C72.5423571,23.035237 77.5776429,23.693 80.7897857,27.0170444 C83.8862143,30.2212222 85.4325,33.0688074 90.2513571,34.3254741 C93.9062143,35.2792519 98.5699286,34.7649852 97.7702143,30.1314296 C97.0819286,26.1431778 91.9077857,22.1626593 88.9609286,19.7971185 C81.8809286,14.1139778 73.2696429,10.6356963 64.4046429,8.94897037 C58.4093571,7.80787407 43.3532143,6.56882222 47.5240714,17.5144963 C49.8829286,23.7046 62.6526429,21.7532222 68.2069286,22.4732815" id="Fill-32" fill="#714118"></path>
            <path d="M37.1551714,21.8481274 C37.1260286,23.38792 37.0643143,24.9092385 36.9404571,26.4438756 C36.8084571,28.0760385 39.6031714,28.0786163 39.4711714,26.4438756 C39.3473143,24.9092385 39.2856,23.3874904 39.2564571,21.8481274 C39.2307429,20.4930756 37.1808857,20.4904978 37.1551714,21.8481274" id="Fill-34" fill="#F3AFCE"></path>
            <path d="M54.4647857,19.9989156 C56.1563571,20.3623822 57.8483571,20.7258489 59.5395,21.0897452 C61.4385,21.4974637 62.2313571,18.5334489 60.3396429,18.1811526 C58.6352143,17.8640859 56.9307857,17.5465896 55.2267857,17.2290933 C53.4340714,16.8952711 52.6476429,19.6083822 54.4647857,19.9989156" id="Fill-36" fill="#F3AFCE"></path>
            <path d="M47.3132143,27.9170756 C46.2357857,28.2887052 45.5719286,29.0414163 45.0293571,30.0192533 C44.4040714,31.1470311 44.9269286,32.798957 46.2790714,33.0979793 C47.4135,33.348883 48.6156429,33.0434163 49.5537857,32.3646015 C49.8182143,32.1734163 50.1143571,31.9560237 50.3445,31.7115644 C50.5647857,31.4769867 51.3002143,30.48712 50.6655,31.3163052 C51.1386429,30.6976385 51.4875,30.1906756 51.7129286,29.4212089 C52.0382143,28.3123348 51.5736429,27.0870311 50.6847857,26.3987644 C49.7436429,25.669683 48.5457857,25.6353126 47.4992143,26.1740681 C46.3043571,26.7884385 45.2835,27.6476978 44.4786429,28.7174756 C44.0487857,29.288883 43.9562143,30.4338459 44.1687857,31.0916089 C44.3783571,31.7412089 44.7289286,32.2730904 45.2702143,32.6919793 C45.7883571,33.093683 46.4590714,33.383683 47.1323571,33.3536089 C47.9886429,33.3149422 48.6473571,32.9995941 49.3052143,32.4513867 C49.8632143,31.986957 50.2669286,31.5689274 50.7212143,30.9781867 C51.0019286,30.6130015 51.1253571,29.9290311 51.1253571,29.4800681 C51.1253571,28.8197274 50.8875,28.198483 50.4893571,27.6816385 C50.1666429,27.2627496 49.7920714,26.9736089 49.3052143,26.7678163 C48.7532143,26.5340978 47.9547857,26.3777126 47.3770714,26.6183052 C46.6879286,26.9048681 46.1757857,27.1922904 45.5809286,27.6124681 C46.8225,29.2252978 48.0640714,30.8381274 49.3052143,32.4513867 C49.5867857,32.1330311 49.8315,31.7858904 50.0839286,31.4451941 C49.9249286,31.6514163 49.7659286,31.8576385 49.6069286,32.0638607 C50.0076429,31.5478756 50.4597857,31.0916089 50.9753571,30.6903348 C49.3767857,30.2675793 47.7786429,29.8443941 46.1805,29.4212089 C46.1967857,29.5041274 46.2122143,29.5870459 46.2267857,29.6699644 C46.1933571,29.4212089 46.1599286,29.1724533 46.1265,28.9236978 C46.1397857,29.033683 46.1462143,29.1398015 46.1517857,29.2497867 C46.1723571,29.6811348 46.1792143,29.1294904 46.1963571,28.9958756 C46.1449286,29.3958607 46.4235,28.5787052 46.2850714,28.8188681 C46.2302143,28.9138163 46.1787857,29.0109126 46.1226429,29.1058607 C45.9576429,29.38512 46.1912143,28.9632237 46.2567857,28.9322904 C46.2477857,28.9365867 45.8397857,29.2669719 46.2006429,29.0225126 C46.5195,28.8068385 46.1817857,29.02552 46.1085,29.0697719 C45.9992143,29.1363644 45.8869286,29.1965126 45.7793571,29.2674015 L48.8505,30.5197719 C48.7360714,30.1378311 48.7823571,30.8832385 48.8419286,30.4742311 C48.8050714,30.7277126 48.8046429,30.6533867 48.8582143,30.4480237 C48.9225,30.2014163 49.0090714,29.9487941 49.1050714,29.713357 C49.5203571,28.6908385 48.2920714,27.5793867 47.3132143,27.9170756" id="Fill-38" fill="#714118"></path>
        </g>
    </g>
</svg>