<?xml version="1.0" encoding="UTF-8"?>
<svg width="120px" height="120px" viewBox="0 0 120 120" version="1.1" xmlns="http://www.w3.org/2000/svg" xmlns:xlink="http://www.w3.org/1999/xlink">
    <!-- Generator: Sketch 51.1 (57501) - http://www.bohemiancoding.com/sketch -->
    <title>Fireworks5</title>
    <desc>Created with Sketch.</desc>
    <defs>
        <polygon id="path-1" points="0.218146341 0.773170732 10.177172 0.773170732 10.177172 10.7317073 0.218146341 10.7317073"></polygon>
        <polygon id="path-3" points="0.436780488 0.554535306 10.395122 0.554535306 10.395122 10.5145366 0.436780488 10.5145366"></polygon>
    </defs>
    <g id="Fireworks5" stroke="none" stroke-width="1" fill="none" fill-rule="evenodd">
        <g id="Group">
            <path d="M61.5577561,49.5529756 C61.5577561,50.507122 60.7860488,51.2788293 59.8319024,51.2788293 C58.8797073,51.2788293 58.1070244,50.507122 58.1070244,49.5529756 C58.1070244,48.5988293 58.8797073,47.827122 59.8319024,47.827122 C60.7860488,47.827122 61.5577561,48.5988293 61.5577561,49.5529756" id="Fill-1" fill="#F15A22"></path>
            <path d="M61.3662439,43.3430244 C61.060878,44.1898537 60.1262439,44.628878 59.278439,44.3225366 C58.4316098,44.0152195 57.993561,43.081561 58.2979512,42.2347317 C58.6042927,41.388878 59.5389268,40.9498537 60.3857561,41.2552195 C61.2325854,41.5596098 61.6716098,42.4952195 61.3662439,43.3430244" id="Fill-3" fill="#F15A22"></path>
            <path d="M60.9823415,37.3902439 C60.0662439,38.0253659 58.8077073,37.7970732 58.1725854,36.8809756 C57.5374634,35.964878 57.7657561,34.7053659 58.6828293,34.0712195 C59.5999024,33.435122 60.8564878,33.6653659 61.4925854,34.5804878 C62.1277073,35.497561 61.8994146,36.755122 60.9823415,37.3902439" id="Fill-5" fill="#F15A22"></path>
            <path d="M60.5983415,30.1979512 C59.0715122,30.6223415 57.4890732,29.7267317 57.0656585,28.1969756 C56.6422439,26.6691707 57.536878,25.0877073 59.0656585,24.6642927 C60.5934634,24.2418537 62.1749268,25.1364878 62.5993171,26.6642927 C63.0227317,28.1920976 62.1290732,29.7725854 60.5983415,30.1979512" id="Fill-7" fill="#F15A22"></path>
            <path d="M60.2153171,21.1325854 C58.0767805,21.3462439 56.170439,19.7813659 55.9587317,17.6438049 C55.7470244,15.5042927 57.3099512,13.5969756 59.4484878,13.3872195 C61.5899512,13.1745366 63.4933659,14.7374634 63.7050732,16.8769756 C63.9167805,19.0155122 62.3558049,20.9199024 60.2153171,21.1325854" id="Fill-9" fill="#FFC60B"></path>
            <path d="M64.8114146,4.97980488 C64.8114146,7.73102439 62.5850732,9.95931707 59.8319024,9.95931707 C57.0816585,9.95931707 54.8523902,7.73102439 54.8523902,4.97980488 C54.8523902,2.22956098 57.0816585,0.000292682927 59.8319024,0.000292682927 C62.5850732,0.000292682927 64.8114146,2.22956098 64.8114146,4.97980488" id="Fill-11" fill="#F15A22"></path>
            <path d="M53.7838049,51.343122 C54.456,52.0153171 54.4569756,53.1099512 53.7838049,53.783122 C53.1096585,54.4582439 52.0169756,54.4562927 51.3438049,53.783122 C50.6706341,53.1099512 50.6696585,52.0182439 51.3438049,51.343122 C52.0179512,50.6699512 53.1106341,50.6699512 53.7838049,51.343122" id="Fill-13" fill="#F15A22"></path>
            <path d="M49.2563902,47.0872195 C49.6398049,47.9028293 49.289561,48.8725854 48.4739512,49.256 C47.6583415,49.6394146 46.6876098,49.2891707 46.3051707,48.4725854 C45.9227317,47.6599024 46.272,46.6881951 47.0866341,46.3038049 C47.9022439,45.9213659 48.8729756,46.2716098 49.2563902,47.0872195" id="Fill-15" fill="#FFC60B"></path>
            <path d="M44.7760976,43.1515122 C44.5770732,44.2480976 43.5273171,44.9759024 42.4287805,44.7778537 C41.3312195,44.5778537 40.6043902,43.5280976 40.802439,42.429561 C41.0014634,41.3310244 42.0521951,40.6041951 43.1507317,40.8022439 C44.2482927,41.0012683 44.9760976,42.0529756 44.7760976,43.1515122" id="Fill-17" fill="#F15A22"></path>
            <path d="M39.4193171,38.334439 C38.6388293,39.7159024 36.8876098,40.2017561 35.5080976,39.4183415 C34.1276098,38.6388293 33.6417561,36.8885854 34.4222439,35.507122 C35.2046829,34.1276098 36.9559024,33.6407805 38.3354146,34.4222439 C39.7149268,35.2027317 40.2017561,36.9559024 39.4193171,38.334439" id="Fill-19" fill="#F15A22"></path>
            <path d="M32.7382439,32.1967805 C31.3753171,33.8592195 28.9236098,34.1021463 27.2611707,32.7392195 C25.5987317,31.3762927 25.3567805,28.9245854 26.7187317,27.2601951 C28.0836098,25.5987317 30.5333659,25.3548293 32.1967805,26.7187317 C33.8582439,28.0806829 34.1021463,30.5323902 32.7382439,32.1967805" id="Fill-21" fill="#FFC60B"></path>
            <path d="M24.5670244,17.5245854 C26.5123902,19.4689756 26.5123902,22.6221463 24.5670244,24.5665366 C22.6216585,26.512878 19.4694634,26.512878 17.5240976,24.5665366 C15.5797073,22.6221463 15.5797073,19.4689756 17.5240976,17.5245854 C19.470439,15.5792195 22.6226341,15.5792195 24.5670244,17.5245854" id="Fill-23" fill="#F15A22"></path>
            <path d="M49.5521951,58.1076098 C50.5063415,58.1076098 51.2780488,58.8783415 51.2780488,59.8324878 C51.2780488,60.7846829 50.5063415,61.5583415 49.5521951,61.5583415 C48.6,61.5583415 47.8273171,60.7846829 47.8282927,59.8324878 C47.8273171,58.8783415 48.6,58.1076098 49.5521951,58.1076098" id="Fill-25" fill="#F15A22"></path>
            <path d="M43.3422439,58.299122 C44.1880976,58.6044878 44.6280976,59.5381463 44.3217561,60.3869268 C44.0163902,61.2337561 43.0817561,61.6718049 42.2359024,61.3674146 C41.3880976,61.0610732 40.9490732,60.126439 41.254439,59.2805854 C41.5598049,58.4327805 42.494439,57.9937561 43.3422439,58.299122" id="Fill-27" fill="#FFC60B"></path>
            <path d="M37.3894634,58.6821463 C38.0245854,59.5982439 37.7972683,60.8577561 36.8801951,61.4938537 C35.9640976,62.1270244 34.705561,61.9006829 34.070439,60.9836098 C33.4353171,60.0665366 33.6636098,58.808 34.5797073,58.172878 C35.4967805,57.5367805 36.7543415,57.7660488 37.3894634,58.6821463" id="Fill-29" fill="#F15A22"></path>
            <path d="M30.1971707,59.0651707 C30.6205854,60.5929756 29.7259512,62.1763902 28.1981463,62.5988293 C26.6703415,63.0232195 25.0879024,62.1276098 24.6644878,60.5978537 C24.2410732,59.0700488 25.1366829,57.489561 26.6644878,57.067122 C28.1913171,56.6427317 29.7737561,57.5373659 30.1971707,59.0651707" id="Fill-31" fill="#FFC60B"></path>
            <path d="M21.1319024,59.4481951 C21.3436098,61.5896585 19.7816585,63.4940488 17.6421463,63.7047805 C15.5026341,63.9174634 13.5982439,62.3555122 13.3875122,60.2150244 C13.1758049,58.0764878 14.7367805,56.1720976 16.8762927,55.9594146 C19.0158049,55.7486829 20.9201951,57.3077073 21.1319024,59.4481951" id="Fill-33" fill="#F15A22"></path>
            <path d="M4.9795122,54.8530732 C7.7297561,54.8530732 9.95902439,57.0813659 9.95902439,59.8325854 C9.95902439,62.5838049 7.7297561,64.8130732 4.9795122,64.8130732 C2.2302439,64.8130732 0,62.5838049 0,59.8325854 C0,57.0813659 2.2302439,54.8530732 4.9795122,54.8530732" id="Fill-35" fill="#F15A22"></path>
            <path d="M51.3439024,65.8830244 C52.0170732,65.2079024 53.1087805,65.2079024 53.7839024,65.8830244 C54.4560976,66.5561951 54.4560976,67.6479024 53.7839024,68.3230244 C53.1107317,68.9932683 52.0170732,68.9952195 51.3439024,68.3210732 C50.6687805,67.6479024 50.6707317,66.5532683 51.3439024,65.8830244" id="Fill-37" fill="#F15A22"></path>
            <path d="M47.088,70.4076098 C47.9006829,70.0261463 48.8733659,70.3783415 49.2567805,71.1910244 C49.6392195,72.0066341 49.2889756,72.9763902 48.4743415,73.3598049 C47.6587317,73.7432195 46.688,73.3929756 46.305561,72.5773659 C45.9221463,71.7637073 46.2723902,70.7939512 47.088,70.4076098" id="Fill-39" fill="#F15A22"></path>
            <path d="M43.1507317,74.8912195 C44.2473171,75.0892683 44.9760976,76.1380488 44.7770732,77.2365854 C44.5770732,78.3321951 43.5273171,79.0619512 42.4287805,78.8629268 C41.3312195,78.6619512 40.6043902,77.6141463 40.802439,76.5156098 C41.0004878,75.4170732 42.0521951,74.6892683 43.1507317,74.8912195" id="Fill-41" fill="#F15A22"></path>
            <path d="M38.335122,80.245561 C39.7146341,81.0289756 40.2004878,82.7792195 39.42,84.1577561 C38.6385366,85.5362927 36.8873171,86.0221463 35.5078049,85.2416585 C34.1263415,84.4611707 33.6414634,82.708 34.4219512,81.3294634 C35.2034146,79.9499512 36.9536585,79.4640976 38.335122,80.245561" id="Fill-43" fill="#F15A22"></path>
            <path d="M32.1960976,86.9272195 C33.8585366,88.2891707 34.1014634,90.740878 32.7385366,92.4023415 C31.3765854,94.0677073 28.9239024,94.3077073 27.2614634,92.9457561 C25.5980488,91.5818537 25.3560976,89.131122 26.7190244,87.4696585 C28.0819512,85.8062439 30.5326829,85.5623415 32.1960976,86.9272195" id="Fill-45" fill="#F15A22"></path>
            <path d="M17.5242927,95.0979512 C19.4696585,93.153561 22.6218537,93.153561 24.5672195,95.0979512 C26.5116098,97.0433171 26.5116098,100.196488 24.5672195,102.140878 C22.6228293,104.086244 19.4696585,104.086244 17.5242927,102.140878 C15.5789268,100.196488 15.5799024,97.0433171 17.5242927,95.0979512" id="Fill-47" fill="#F15A22"></path>
            <path d="M58.1079024,70.1131707 C58.1059512,69.16 58.8786341,68.3863415 59.8327805,68.3882927 C60.7849756,68.3863415 61.5576585,69.16 61.5586341,70.1131707 C61.5576585,71.0643902 60.7849756,71.8380488 59.8327805,71.8380488 C58.8786341,71.8380488 58.1059512,71.0643902 58.1079024,70.1131707" id="Fill-49" fill="#F15A22"></path>
            <path d="M58.298439,76.3240976 C58.6028293,75.4772683 59.538439,75.0382439 60.3852683,75.3416585 C61.2330732,75.648 61.6720976,76.5836098 61.3667317,77.4294634 C61.0613659,78.2772683 60.1267317,78.7172683 59.2799024,78.4099512 C58.4320976,78.1036098 57.9940488,77.1709268 58.298439,76.3240976" id="Fill-51" fill="#FFC60B"></path>
            <path d="M58.6833171,82.2759024 C59.598439,81.6407805 60.8569756,81.867122 61.4930732,82.7851707 C62.1272195,83.7012683 61.8999024,84.9598049 60.9818537,85.5949268 C60.0657561,86.2310244 58.8072195,86.0017561 58.1720976,85.0856585 C57.5369756,84.1685854 57.7652683,82.912 58.6833171,82.2759024" id="Fill-53" fill="#F15A22"></path>
            <path d="M59.0653659,89.4681951 C60.5931707,89.0447805 62.1756098,89.9394146 62.5990244,91.4681951 C63.0214634,92.9940488 62.1278049,94.5764878 60.5980488,94.9999024 C59.0702439,95.4252683 57.4887805,94.5286829 57.0653659,93.000878 C56.6419512,91.4730732 57.537561,89.8906341 59.0653659,89.4681951" id="Fill-55" fill="#F15A22"></path>
            <path d="M59.4483902,98.533561 C61.588878,98.320878 63.4952195,99.8828293 63.7049756,102.022341 C63.9166829,104.161854 62.3547317,106.06722 60.2161951,106.277951 C58.0757073,106.488683 56.1722927,104.928683 55.9586341,102.789171 C55.7469268,100.649659 57.3079024,98.7442927 59.4483902,98.533561" id="Fill-57" fill="#FFC60B"></path>
            <g id="Group-61" transform="translate(54.634146, 108.932683)">
                <mask id="mask-2" fill="white">
                    <use xlink:href="#path-1"></use>
                </mask>
                <g id="Clip-60"></g>
                <path d="M0.218146341,5.75365854 C0.218146341,3.00341463 2.44643902,0.773170732 5.19765854,0.773170732 C7.94985366,0.773170732 10.1771707,3.00341463 10.1771707,5.75365854 C10.179122,8.50390244 7.94985366,10.7321951 5.19765854,10.7321951 C2.44643902,10.7321951 0.218146341,8.50390244 0.218146341,5.75365854" id="Fill-59" fill="#F15A22" mask="url(#mask-2)"></path>
            </g>
            <path d="M65.8822439,68.3210732 C65.207122,67.6479024 65.207122,66.5561951 65.8822439,65.8830244 C66.5534634,65.2079024 67.647122,65.2079024 68.3222439,65.8830244 C68.9934634,66.5532683 68.9934634,67.6479024 68.3212683,68.3210732 C67.647122,68.9952195 66.5524878,68.9932683 65.8822439,68.3210732" id="Fill-62" fill="#FFC60B"></path>
            <path d="M70.4078049,72.5769756 C70.0253659,71.7633171 70.3765854,70.7906341 71.1912195,70.4072195 C72.0078049,70.0267317 72.977561,70.3779512 73.36,71.1906341 C73.7434146,72.0062439 73.3931707,72.976 72.577561,73.3603902 C71.7629268,73.7428293 70.7931707,73.3925854 70.4078049,72.5769756" id="Fill-64" fill="#F15A22"></path>
            <path d="M74.8894634,76.5156098 C75.0875122,75.4190244 76.1382439,74.6892683 77.2367805,74.8882927 C78.3323902,75.0892683 79.0611707,76.1380488 78.8621463,77.2365854 C78.663122,78.3321951 77.6114146,79.0619512 76.5138537,78.8629268 C75.4172683,78.664878 74.690439,77.6141463 74.8894634,76.5156098" id="Fill-66" fill="#F15A22"></path>
            <path d="M80.2458537,81.3298537 C81.0273171,79.9503415 82.7785366,79.4644878 84.1580488,80.2459512 C85.537561,81.0283902 86.022439,82.7786341 85.2429268,84.1571707 C84.4604878,85.5386341 82.7082927,86.0225366 81.3297561,85.2420488 C79.9502439,84.461561 79.4634146,82.7113171 80.2458537,81.3298537" id="Fill-68" fill="#F15A22"></path>
            <path d="M86.9254634,87.4692683 C88.2893659,85.8078049 90.7410732,85.5619512 92.4035122,86.9268293 C94.0659512,88.2897561 94.3079024,90.7414634 92.9459512,92.4029268 C91.5810732,94.0682927 89.1313171,94.3082927 87.468878,92.9453659 C85.806439,91.582439 85.5635122,89.1307317 86.9254634,87.4692683" id="Fill-70" fill="#FFC60B"></path>
            <path d="M95.0971707,102.140585 C93.1527805,100.196195 93.1518049,97.044 95.0971707,95.0976585 C97.0435122,93.1532683 100.194732,93.1532683 102.141073,95.0976585 C104.086439,97.0430244 104.085463,100.196195 102.141073,102.140585 C100.194732,104.085951 97.0435122,104.085951 95.0971707,102.140585" id="Fill-72" fill="#F15A22"></path>
            <path d="M70.1123902,61.5565854 C69.1582439,61.5585366 68.3865366,60.784878 68.3875122,59.8317073 C68.3865366,58.8814634 69.1582439,58.1078049 70.1133659,58.1078049 C71.0636098,58.1078049 71.8372683,58.8814634 71.8362927,59.8317073 C71.8372683,60.784878 71.0626341,61.5585366 70.1123902,61.5565854" id="Fill-74" fill="#FFC60B"></path>
            <path d="M76.322439,61.3670244 C75.477561,61.0616585 75.037561,60.1270244 75.3419512,59.2782439 C75.6482927,58.4323902 76.5829268,57.9933659 77.4297561,58.2987317 C78.2765854,58.6021463 78.7156098,59.5377561 78.4082927,60.3865366 C78.1039024,61.2314146 77.1712195,61.6714146 76.322439,61.3670244" id="Fill-76" fill="#F15A22"></path>
            <path d="M82.2760976,60.9811707 C81.64,60.0670244 81.8673171,58.8075122 82.7843902,58.1723902 C83.7004878,57.5401951 84.96,57.765561 85.595122,58.6826341 C86.2302439,59.5987317 86.0019512,60.8582439 85.084878,61.4933659 C84.1668293,62.1275122 82.9112195,61.9001951 82.2760976,60.9811707" id="Fill-78" fill="#F15A22"></path>
            <path d="M89.4683902,60.5981463 C89.044,59.0703415 89.9386341,57.488878 91.4674146,57.0644878 C92.9942439,56.644 94.5766829,57.5366829 95.0000976,59.0654634 C95.4244878,60.5932683 94.528878,62.1766829 93.0000976,62.599122 C91.4732683,63.0225366 89.8908293,62.1298537 89.4683902,60.5981463" id="Fill-80" fill="#FFC60B"></path>
            <path d="M98.5337561,60.215122 C98.3210732,58.0765854 99.8830244,56.1702439 102.021561,55.9595122 C104.162049,55.7468293 106.066439,57.3097561 106.279122,59.4482927 C106.488878,61.5897561 104.927902,63.4941463 102.789366,63.7068293 C100.649854,63.9204878 98.7444878,62.3556098 98.5337561,60.215122" id="Fill-82" fill="#FFC60B"></path>
            <g id="Group-86" transform="translate(109.268293, 54.298537)">
                <mask id="mask-4" fill="white">
                    <use xlink:href="#path-3"></use>
                </mask>
                <g id="Clip-85"></g>
                <path d="M5.41726829,10.5145366 C2.66702439,10.5145366 0.436780488,8.28721951 0.436780488,5.53404878 C0.436780488,2.78282927 2.66702439,0.554536585 5.41726829,0.554536585 C8.1684878,0.552585366 10.3958049,2.78282927 10.3958049,5.53404878 C10.3958049,8.28721951 8.1684878,10.5145366 5.41726829,10.5145366" id="Fill-84" fill="#F15A22" mask="url(#mask-4)"></path>
            </g>
            <path d="M68.3212683,53.783122 C67.6480976,54.4582439 66.554439,54.4582439 65.8822439,53.783122 C65.2080976,53.1099512 65.2080976,52.0182439 65.8822439,51.343122 C66.5534634,50.6699512 67.6480976,50.6699512 68.3202927,51.343122 C68.994439,52.0182439 68.9934634,53.112878 68.3212683,53.783122" id="Fill-87" fill="#F15A22"></path>
            <path d="M72.5771707,49.2557073 C71.7635122,49.6400976 70.7908293,49.288878 70.4074146,48.4722927 C70.0259512,47.6576585 70.3761951,46.6879024 71.1908293,46.3044878 C72.0054634,45.9210732 72.9771707,46.2713171 73.3596098,47.0869268 C73.7430244,47.9025366 73.3927805,48.8722927 72.5771707,49.2557073" id="Fill-89" fill="#F15A22"></path>
            <path d="M76.5139512,44.7749268 C75.4183415,44.5778537 74.6885854,43.5280976 74.8885854,42.429561 C75.0885854,41.3339512 76.1383415,40.6041951 77.236878,40.8022439 C78.3334634,41.0012683 79.0612683,42.0529756 78.8622439,43.1515122 C78.6632195,44.2480976 77.6124878,44.9739512 76.5139512,44.7749268" id="Fill-91" fill="#F15A22"></path>
            <path d="M81.3300488,39.4186341 C79.9505366,38.6381463 79.4646829,36.8879024 80.2461463,35.506439 C81.0266341,34.1269268 82.7778537,33.6410732 84.1573659,34.4225366 C85.5378537,35.2049756 86.0227317,36.9561951 85.2432195,38.3347317 C84.4617561,39.7161951 82.7105366,40.2020488 81.3300488,39.4186341" id="Fill-93" fill="#F15A22"></path>
            <path d="M87.4685854,32.7389268 C85.807122,31.3740488 85.5632195,28.9223415 86.9241951,27.260878 C88.2900488,25.5994146 90.7407805,25.3555122 92.4041951,26.718439 C94.0666341,28.0833171 94.3085854,30.5320976 92.9456585,32.1964878 C91.5827317,33.8589268 89.1310244,34.1018537 87.4685854,32.7389268" id="Fill-95" fill="#FFC60B"></path>
            <path d="M102.140878,24.5663415 C100.194537,26.5126829 97.0442927,26.5126829 95.0969756,24.5663415 C93.1525854,22.6219512 93.1525854,19.4687805 95.0969756,17.5243902 C97.0433171,15.5790244 100.194537,15.5790244 102.140878,17.5243902 C104.086244,19.4707317 104.086244,22.6219512 102.140878,24.5663415" id="Fill-97" fill="#FFC60B"></path>
            <path d="M43.2974634,14.6167805 C44.5316098,17.1660488 43.0477073,21.5065366 43.0477073,21.5065366 C43.0477073,21.5065366 38.7218537,19.9777561 37.4877073,17.4284878 C36.253561,14.8792195 36.9745366,13.0509268 38.5794146,12.2753171 C40.1842927,11.4987317 42.0633171,12.0665366 43.2974634,14.6167805" id="Fill-99" fill="#F15A22"></path>
            <path d="M51.4133659,31.2412683 C54.0348293,36.6588293 54.1489756,44.3046829 54.1489756,44.3046829 C54.1489756,44.3046829 48.2250732,39.4715122 45.6036098,34.0529756 C42.9811707,28.6354146 43.0494634,25.4588293 44.6543415,24.6802927 C46.2592195,23.9037073 48.7909268,25.8227317 51.4133659,31.2412683" id="Fill-101" fill="#FFC60B"></path>
            <path d="M16.1676098,39.552 C18.8427317,40.4817561 20.8632195,44.6007805 20.8632195,44.6007805 C20.8632195,44.6007805 16.7237073,46.5783415 14.0476098,45.6476098 C11.3724878,44.716878 10.5890732,42.9149268 11.174439,41.232 C11.7607805,39.5480976 13.4924878,38.6222439 16.1676098,39.552" id="Fill-103" fill="#F15A22"></path>
            <path d="M33.6623415,45.5676098 C39.3472195,47.5451707 44.8330732,52.8710244 44.8330732,52.8710244 C44.8330732,52.8710244 37.2272195,53.6427317 31.5403902,51.6632195 C25.8574634,49.6856585 23.6594146,47.3929756 24.2447805,45.7090732 C24.8301463,44.0251707 27.9764878,43.5910244 33.6623415,45.5676098" id="Fill-105" fill="#F15A22"></path>
            <path d="M14.6164878,76.3679024 C17.1657561,75.1327805 21.5062439,76.6176585 21.5062439,76.6176585 C21.5062439,76.6176585 19.978439,80.9435122 17.4272195,82.1776585 C14.8779512,83.4098537 13.0506341,82.688878 12.2740488,81.0869268 C11.4964878,79.4810732 12.0662439,77.6020488 14.6164878,76.3679024" id="Fill-107" fill="#FFC60B"></path>
            <path d="M31.2409756,68.2505366 C36.6595122,65.6280976 44.3034146,65.5159024 44.3034146,65.5159024 C44.3034146,65.5159024 39.4712195,71.4388293 34.0517073,74.0632195 C28.635122,76.6837073 25.4585366,76.6154146 24.6809756,75.009561 C23.9053659,73.4066341 25.822439,70.8729756 31.2409756,68.2505366" id="Fill-109" fill="#FFC60B"></path>
            <path d="M39.5517073,103.498244 C40.482439,100.822146 44.6004878,98.8026341 44.6004878,98.8026341 C44.6004878,98.8026341 46.5790244,102.942146 45.6482927,105.618244 C44.7165854,108.291415 42.9165854,109.074829 41.2307317,108.489463 C39.5478049,107.906049 38.6209756,106.171415 39.5517073,103.498244" id="Fill-111" fill="#FFC60B"></path>
            <path d="M45.5678049,86.004 C47.5443902,80.3181463 52.8692683,74.8322927 52.8692683,74.8322927 C52.8692683,74.8322927 53.6409756,82.4381463 51.6643902,88.124 C49.6868293,93.8079024 47.3931707,96.0049756 45.7092683,95.4205854 C44.0263415,94.8342439 43.5902439,91.6879024 45.5678049,86.004" id="Fill-113" fill="#F15A22"></path>
            <path d="M76.3681951,105.049366 C75.1330732,102.500098 76.6169756,98.1576585 76.6169756,98.1576585 C76.6169756,98.1576585 80.9438049,99.6883902 82.1769756,102.237659 C83.4101463,104.785951 82.6901463,106.613268 81.0842927,107.390829 C79.4813659,108.167415 77.6013659,107.59961 76.3681951,105.049366" id="Fill-115" fill="#F15A22"></path>
            <path d="M68.2507317,88.4230244 C65.6282927,83.0054634 65.5131707,75.3625366 65.5131707,75.3625366 C65.5131707,75.3625366 71.4390244,80.1937561 74.062439,85.6142439 C76.6829268,91.0318049 76.6136585,94.2054634 75.0117073,94.9830244 C73.4058537,95.7596098 70.8731707,93.8435122 68.2507317,88.4230244" id="Fill-117" fill="#F15A22"></path>
            <path d="M103.498537,80.1141463 C100.822439,79.1834146 98.8019512,75.0634146 98.8019512,75.0634146 C98.8019512,75.0634146 102.942439,73.0868293 105.617561,74.0165854 C108.290732,74.9492683 109.074146,76.7492683 108.489756,78.4331707 C107.905366,80.1190244 106.170732,81.0439024 103.498537,80.1141463" id="Fill-119" fill="#F15A22"></path>
            <path d="M86.0023415,74.0956098 C80.3174634,72.1219512 74.8316098,66.7970732 74.8316098,66.7970732 C74.8316098,66.7970732 82.438439,66.0234146 88.1242927,68.0009756 C93.8081951,69.977561 96.0042927,72.2702439 95.420878,73.955122 C94.8345366,75.6380488 91.6881951,76.075122 86.0023415,74.0956098" id="Fill-121" fill="#F15A22"></path>
            <path d="M105.049561,43.2962927 C102.499317,44.530439 98.1578537,43.0484878 98.1578537,43.0484878 C98.1578537,43.0484878 99.6876098,38.7197073 102.236878,37.4884878 C104.786146,36.2543415 106.613463,36.9743415 107.391024,38.5801951 C108.166634,40.1840976 107.598829,42.0650732 105.049561,43.2962927" id="Fill-123" fill="#F15A22"></path>
            <path d="M88.4232195,51.4136585 C83.0056585,54.0360976 75.3617561,54.1502439 75.3617561,54.1502439 C75.3617561,54.1502439 80.1939512,48.2253659 85.614439,45.6039024 C91.0310244,42.9804878 94.2066341,43.0507317 94.9832195,44.6536585 C95.7598049,46.2595122 93.8417561,48.7912195 88.4232195,51.4136585" id="Fill-125" fill="#FFC60B"></path>
            <path d="M80.1133659,16.1659512 C79.1826341,18.8420488 75.0636098,20.8635122 75.0636098,20.8635122 C75.0636098,20.8635122 73.0870244,16.7220488 74.0177561,14.0459512 C74.9465366,11.3727805 76.7475122,10.5893659 78.4323902,11.1766829 C80.1182439,11.7600976 81.0440976,13.4918049 80.1133659,16.1659512" id="Fill-127" fill="#F15A22"></path>
            <path d="M74.0959024,33.663122 C72.1202927,39.3470244 66.7963902,44.8348293 66.7963902,44.8348293 C66.7963902,44.8348293 66.0227317,37.2260488 68.0002927,31.5401951 C69.9778537,25.8562927 72.2715122,23.6592195 73.954439,24.2436098 C75.6383415,24.8299512 76.0734634,27.9762927 74.0959024,33.663122" id="Fill-129" fill="#FFC60B"></path>
        </g>
    </g>
</svg>