<?xml version="1.0" encoding="UTF-8"?>
<svg width="120px" height="120px" viewBox="0 0 120 120" version="1.1" xmlns="http://www.w3.org/2000/svg" xmlns:xlink="http://www.w3.org/1999/xlink">
    <!-- Generator: Sketch 51.1 (57501) - http://www.bohemiancoding.com/sketch -->
    <title>Help button4</title>
    <desc>Created with Sketch.</desc>
    <defs>
        <polygon id="path-1" points="0 0 119.999873 0 119.999873 120 0 120"></polygon>
        <polygon id="path-3" points="0.000139195803 0.9173 110.2124 0.9173 110.2124 111 0.000139195803 111"></polygon>
    </defs>
    <g id="Help-button4" stroke="none" stroke-width="1" fill="none" fill-rule="evenodd">
        <g id="Page-1">
            <g id="Group-3">
                <mask id="mask-2" fill="white">
                    <use xlink:href="#path-1"></use>
                </mask>
                <g id="Clip-2"></g>
                <path d="M81.7967,118.125 C70.8987,120.625 49.1017,120.625 38.2027,118.125 C18.6477,113.64 6.3197,101.361 1.8747,81.797 C-0.6373,70.741 -0.6133,48.946 1.8747,38.203 C6.4017,18.657 18.6597,6.415 38.2027,1.875 C48.8957,-0.609 70.6897,-0.641 81.7967,1.875 C101.3637,6.308 113.4717,18.687 118.1247,38.203 C120.5767,48.488 120.6727,70.261 118.1247,81.797 C113.7977,101.388 101.3517,113.64 81.7967,118.125" id="Fill-1" fill="#FBC02D" mask="url(#mask-2)"></path>
            </g>
            <g id="Group-6" transform="translate(0.000000, 9.000000)">
                <mask id="mask-4" fill="white">
                    <use xlink:href="#path-3"></use>
                </mask>
                <g id="Clip-5"></g>
                <path d="M91.6404,99.2813 C80.7424,101.7813 58.9454,101.7813 48.0464,99.2813 C28.4914,94.7963 16.1634,82.5173 11.7184,62.9533 C9.2064,51.8973 9.2304,30.1023 11.7184,19.3593 C13.3694,12.2293 16.0614,6.0843 19.7484,0.9173 C10.7534,7.3373 4.7494,16.7913 1.8744,29.2033 C-0.6126,39.9463 -0.6366,61.7413 1.8744,72.7973 C6.3194,92.3613 18.6474,104.6393 38.2024,109.1253 C49.1014,111.6253 70.8984,111.6253 81.7964,109.1253 C94.2374,106.2713 103.7864,100.2623 110.2124,91.2333 C105.0054,94.9403 98.8054,97.6373 91.6404,99.2813" id="Fill-4" fill="#E8AD28" mask="url(#mask-4)"></path>
            </g>
            <path d="M67.4998,90.9326 C67.4998,85.2476 62.8778,80.6246 57.1868,80.6246 C51.4968,80.6246 46.8748,85.2476 46.8748,90.9326 C46.8748,96.6366 51.4968,101.2496 57.1868,101.2496 C62.8778,101.2496 67.4998,96.6366 67.4998,90.9326" id="Fill-7" fill="#FFFFFF"></path>
            <path d="M84.97,48.1416 C83.478,51.7046 81.051,53.9746 79.646,55.2886 C76.621,58.1206 72.625,59.5676 69.524,62.2576 C68.2,63.4056 67.077,64.8236 66.512,66.4426 C65.978,67.9746 66.019,69.5286 65.167,70.9836 C63.64,73.5916 60.632,74.9996 57.512,74.9996 C54.572,74.9996 51.782,73.5926 50.129,71.3196 C48.167,68.6216 48.386,65.2466 49.192,62.2186 C49.873,59.6626 51.203,56.8256 53.148,54.8876 C54.929,53.1146 56.918,50.6156 62.639,48.0526 C66.801,46.1886 67.322,44.1246 67.322,41.9606 C67.321,38.2236 63.224,36.2526 59.743,36.1846 C57.166,36.1336 54.388,37.0846 52.571,39.1026 C52.028,39.7006 51.417,40.5846 50.958,41.3306 C49.104,44.3446 45.882,46.3226 42.3,46.3226 C41.924,46.3226 41.542,46.3006 41.157,46.2546 C36.482,45.7046 34.025,42.6376 33.77,38.4216 C33.402,32.3506 38.256,27.5716 39.548,26.2976 C44.327,21.5896 51.148,19.2086 57.976,18.8086 C64.909,18.4016 72.291,20.1116 77.705,24.3166 C78.665,25.0626 79.558,25.8816 80.374,26.7656 C83.43,30.0786 84.737,33.5596 85.3,35.5306 C85.884,37.5706 87.271,42.6476 84.97,48.1416" id="Fill-9" fill="#FFFFFF"></path>
        </g>
    </g>
</svg>