<?xml version="1.0" encoding="UTF-8"?>
<svg width="120px" height="120px" viewBox="0 0 120 120" version="1.1" xmlns="http://www.w3.org/2000/svg" xmlns:xlink="http://www.w3.org/1999/xlink">
    <!-- Generator: Sketch 51.1 (57501) - http://www.bohemiancoding.com/sketch -->
    <title>Icecream</title>
    <desc>Created with Sketch.</desc>
    <defs>
        <polygon id="path-1" points="0.149330189 0.977008696 14.6215943 0.977008696 14.6215943 55.3043478 0.149330189 55.3043478"></polygon>
        <polygon id="path-3" points="0.00041509434 0.797217391 54.2050943 0.797217391 54.2050943 91.8361043 0.00041509434 91.8361043"></polygon>
        <polygon id="path-5" points="0 119.202783 54.2050943 119.202783 54.2050943 1.04347826 0 1.04347826"></polygon>
    </defs>
    <g id="Icecream" stroke="none" stroke-width="1" fill="none" fill-rule="evenodd">
        <g id="Page-1" transform="translate(33.000000, -1.000000)">
            <g id="Group-3" transform="translate(19.716981, 63.898435)">
                <mask id="mask-2" fill="white">
                    <use xlink:href="#path-1"></use>
                </mask>
                <g id="Clip-2"></g>
                <path d="M14.6215943,48.028487 C14.6215943,52.0479652 11.381783,55.3046609 7.38546226,55.3046609 C3.38914151,55.3046609 0.149330189,52.0479652 0.149330189,48.028487 L0.149330189,8.25422609 C0.149330189,4.23474783 3.38914151,0.977008696 7.38546226,0.977008696 C11.381783,0.977008696 14.6215943,4.23474783 14.6215943,8.25422609 L14.6215943,48.028487 Z" id="Fill-1" fill="#FFB74E" mask="url(#mask-2)"></path>
            </g>
            <g id="Group-6" transform="translate(0.000000, 0.246261)">
                <mask id="mask-4" fill="white">
                    <use xlink:href="#path-3"></use>
                </mask>
                <g id="Clip-5"></g>
                <path d="M54.2055094,79.5814957 C54.2055094,86.3213217 48.7210755,91.8361043 42.0183396,91.8361043 L12.1875849,91.8361043 C5.48484906,91.8361043 0.00041509434,86.3213217 0.00041509434,79.5814957 L0.00041509434,13.0514087 C0.00041509434,6.31158261 5.48484906,0.7968 12.1875849,0.7968 L42.0183396,0.7968 C48.7210755,0.7968 54.2055094,6.31158261 54.2055094,13.0514087 L54.2055094,79.5814957 Z" id="Fill-4" fill="#FE959C" mask="url(#mask-4)"></path>
            </g>
            <path d="M0,63.1872 L0,79.8275478 C0,86.5673739 5.48443396,92.0821565 12.1882075,92.0821565 L42.0179245,92.0821565 C48.7216981,92.0821565 54.2050943,86.5673739 54.2050943,79.8275478 L54.2050943,63.1872 L0,63.1872 Z" id="Fill-7" fill="#FCE895"></path>
            <mask id="mask-6" fill="white">
                <use xlink:href="#path-5"></use>
            </mask>
            <g id="Clip-10"></g>
            <polygon id="Fill-9" fill="#6CE0B6" mask="url(#mask-6)" points="0 63.1867826 54.2050943 63.1867826 54.2050943 29.1286957 0 29.1286957"></polygon>
            <g id="Group-13" opacity="0.25" mask="url(#mask-6)" fill="#FFFFFF">
                <g transform="translate(8.301887, 10.681043)">
                    <path d="M15.6253962,63.6705391 C15.6253962,67.7818435 12.3108679,71.1157565 8.22218868,71.1157565 C4.1324717,71.1157565 0.817943396,67.7818435 0.817943396,63.6705391 L0.817943396,8.09384348 C0.817943396,3.98253913 4.1324717,0.648626087 8.22218868,0.648626087 C12.3108679,0.648626087 15.6253962,3.98253913 15.6253962,8.09384348 L15.6253962,63.6705391 Z" id="Fill-11"></path>
                    <path d="M36.784934,63.6705391 C36.784934,67.7818435 33.4704057,71.1157565 29.3817264,71.1157565 C25.2920094,71.1157565 21.9774811,67.7818435 21.9774811,63.6705391 L21.9774811,8.09384348 C21.9774811,3.98253913 25.2920094,0.648626087 29.3817264,0.648626087 C33.4704057,0.648626087 36.784934,3.98253913 36.784934,8.09384348 L36.784934,63.6705391 Z" id="Fill-12"></path>
                </g>
            </g>
            <polygon id="Fill-14" fill="#F2A138" mask="url(#mask-6)" points="19.8664151 97.9398261 34.3386792 97.9398261 34.3386792 92.04 19.8664151 92.04"></polygon>
        </g>
    </g>
</svg>