<?xml version="1.0" encoding="UTF-8"?>
<svg width="120px" height="120px" viewBox="0 0 120 120" version="1.1" xmlns="http://www.w3.org/2000/svg" xmlns:xlink="http://www.w3.org/1999/xlink">
    <!-- Generator: Sketch 51.1 (57501) - http://www.bohemiancoding.com/sketch -->
    <title>Maple leaf4</title>
    <desc>Created with Sketch.</desc>
    <defs>
        <polygon id="path-1" points="0 0.285483871 80.3398154 0.285483871 80.3398154 102.367282 0 102.367282"></polygon>
        <polygon id="path-3" points="0.174435484 0.345145161 64.2776613 0.345145161 64.2776613 104.032258 0.174435484 104.032258"></polygon>
    </defs>
    <g id="Maple-leaf4" stroke="none" stroke-width="1" fill="none" fill-rule="evenodd">
        <g id="Group" transform="translate(20.000000, 0.000000)">
            <g id="Group-3" transform="translate(0.000000, 0.198387)">
                <mask id="mask-2" fill="white">
                    <use xlink:href="#path-1"></use>
                </mask>
                <g id="Clip-2"></g>
                <path d="M29.1299516,91.4977258 C19.9901129,94.0704677 13.2672097,91.6980484 13.5193065,91.6477258 C14.1768871,91.5165968 15.4601129,90.2628871 15.4601129,90.2628871 C15.4601129,90.2628871 8.31672581,87.5130484 8.96366129,87.0514355 C9.61059677,86.5898226 11.8731774,81.4467581 11.8731774,81.4467581 C11.8731774,81.4467581 8.68446774,78.240629 5.03075806,74.2772419 C1.37753226,70.3138548 -4.83870968e-05,68.5936935 -4.83870968e-05,68.5936935 C-4.83870968e-05,68.5936935 4.77091935,69.5445 4.13269355,66.8086935 C3.49495161,64.0728871 1.54204839,61.5988548 1.54204839,61.5988548 C1.54204839,61.5988548 3.43204839,62.0904677 3.3168871,58.455629 C3.20172581,54.8212742 0.722854839,46.1904677 1.07124194,46.7304677 C1.41866129,47.2709516 6.78382258,53.0541774 7.31704839,52.4861129 C7.85027419,51.9180484 7.70172581,50.7098226 7.70172581,50.7098226 C7.70172581,50.7098226 11.5489839,57.3132097 12.8360806,56.1698226 C14.1226935,55.0259516 14.0805968,53.7049839 14.5422097,54.3514355 C15.0038226,54.9988548 17.3670484,59.9953065 20.8615645,62.4199839 C24.3555968,64.8446613 26.6757581,64.9922419 26.9051129,61.7875645 C27.1339839,58.583371 24.8859194,57.2212742 24.129629,50.7407903 C23.3728548,44.2598226 23.8872097,39.6132097 24.2452742,40.4836935 C24.6038226,41.3546613 25.6407581,42.7549839 26.1488226,41.4161129 C26.6578548,40.0767581 26.9133387,34.2257903 26.934629,34.8862742 C26.9554355,35.5472419 32.1614032,39.7922419 33.8883387,38.6348226 C35.6157581,37.4774032 35.0897903,31.320629 36.2143065,28.5286935 C37.3383387,25.7372419 37.7583387,25.0622419 38.0026935,25.8262742 C38.2475323,26.5898226 39.6967258,27.0954677 39.6967258,27.0954677 C39.6967258,27.0954677 39.8438226,24.7753065 40.4660806,23.543371 C41.0883387,22.3109516 41.2843065,21.5328871 41.4154355,22.1899839 C41.5460806,22.8475645 43.967371,26.1882097 45.4533387,24.3775645 C46.9397903,22.5664355 50.0815645,13.8674032 49.9920484,14.5317581 C49.9030161,15.1961129 51.0057581,18.6886935 52.1752742,17.3290161 C53.3447903,15.9688548 55.4660806,9.83820968 55.5972097,10.4953065 C55.7283387,11.1528871 57.1983387,12.3190161 57.1983387,12.3190161 C57.1983387,12.3190161 59.7333387,8.8211129 62.0375323,4.9995 C63.5259194,2.53127419 64.8154355,1.03514516 65.5412419,0.285145161 C65.5518871,1.32933871 65.4565645,3.30208065 64.8357581,6.11675806 C63.8752742,10.4745 63.3043065,14.7562742 63.3043065,14.7562742 C63.3043065,14.7562742 65.1730161,14.9232097 65.7212419,14.5370806 C66.2685,14.1504677 63.5849516,20.0565968 63.4959194,21.8478871 C63.407371,23.6396613 66.6125323,21.8662742 67.0054355,21.323371 C67.3983387,20.7804677 63.6860806,29.2511129 63.5162419,31.5882097 C63.3468871,33.9248226 67.4031774,33.1695 67.9509194,32.7828871 C68.4986613,32.3967581 68.1047903,33.0954677 67.7075323,34.4178871 C67.3097903,35.7398226 65.8189839,37.523371 65.8189839,37.523371 C65.8189839,37.523371 67.2178548,38.1548226 67.9209194,37.7696613 C68.6244677,37.3845 68.4647903,38.1625645 67.3567258,40.9607903 C66.249629,43.7590161 61.6281774,47.8617581 62.0835,49.8901452 C62.5388226,51.9190161 69.2370484,52.425629 69.707371,51.9611129 C70.1776935,51.4965968 66.3338226,55.9148226 65.7802742,57.2362742 C65.2272097,58.5577258 66.9430161,58.2562742 67.802371,57.8715968 C68.6617258,57.4874032 65.8349516,61.2107903 60.8235,65.3885323 C55.8120484,69.5662742 53.2436613,69.0059516 51.2031774,71.4872419 C49.1626935,73.9685323 50.9462419,75.4598226 55.149629,76.1082097 C59.3535,76.7561129 64.5081774,74.760629 65.2881774,74.6091774 C66.0681774,74.4582097 65.1280161,75.3877258 65.2736613,77.1025645 C65.4193065,78.8178871 72.7562419,76.6791774 72.7562419,76.6791774 C72.7562419,76.6791774 71.8165645,77.4528871 71.8117258,78.2319194 C71.807371,79.0109516 79.6804355,78.5125645 80.3041452,78.3601452 C80.9283387,78.2082097 73.1878548,82.7595 70.6015645,85.3157903 C68.0147903,87.8715968 69.7238226,88.8165968 69.7238226,88.8165968 C69.7238226,88.8165968 66.6043065,89.265629 64.2575323,90.8101452 C61.9107581,92.3546613 66.0251129,94.9501452 66.0251129,94.9501452 C66.0251129,94.9501452 63.8418871,95.2491774 58.4631774,95.6067581 C53.0844677,95.9648226 48.564629,96.0940161 48.564629,96.0940161 C48.564629,96.0940161 46.6630161,101.38079 46.8144677,102.161274 C46.9659194,102.941274 39.8926935,100.016274 39.8926935,100.016274 C39.8926935,100.016274 39.9599516,101.809016 40.3460806,102.356758 C40.4941452,102.566758 33.9855968,99.6577258 29.1299516,91.4977258" id="Fill-1" fill="#E36326" mask="url(#mask-2)"></path>
            </g>
            <g id="Group-6" transform="translate(5.322581, 15.682258)">
                <mask id="mask-4" fill="white">
                    <use xlink:href="#path-3"></use>
                </mask>
                <g id="Clip-5"></g>
                <path d="M16.1852419,103.212726 C18.8533065,89.978371 22.3129839,77.5767581 26.3818548,65.5278871 C24.8707258,64.9699839 23.3954032,64.1130484 21.9805645,63.1119194 C19.3047581,67.545629 14.1892742,70.0119194 9.11491935,70.3922419 L10.5123387,70.1270806 C14.8807258,69.1970806 19.2829839,66.773371 21.5562097,62.8065968 C19.8287903,61.5398226 18.1971774,60.0780484 16.7058871,58.7086935 C14.8062097,59.5443387 13.683629,59.618371 11.5725,59.5699839 C9.21556452,59.5162742 6.18895161,59.1427258 3.96314516,58.3477258 C6.64233871,58.7836935 8.81395161,59.1712742 11.5768548,59.160629 C13.4818548,59.1538548 14.6126613,59.0740161 16.2902419,58.3259516 L15.8397581,57.9107903 C14.6058871,56.7736935 13.0657258,55.290629 11.4273387,53.6222419 C7.76733871,54.1143387 4.71072581,53.7209516 1.24814516,52.4057903 C4.96572581,53.2143387 7.24862903,53.7074032 10.9710484,53.1553065 C6.69556452,48.7588548 1.89508065,43.2224032 0.174435484,39.3132097 L0.620564516,40.0177258 C2.55072581,43.0574032 6.76185484,48.0741774 11.4442742,52.8277258 C12.011371,50.3943387 11.3591129,47.9662742 10.7494355,45.5822419 C11.8937903,47.8903065 12.4657258,50.7301452 11.8768548,53.2646613 C13.473629,54.8701452 15.1187903,56.4378871 16.7412097,57.8793387 C18.7918548,52.5838548 17.4316935,50.3812742 17.0920161,48.4065968 C19.068629,52.6153065 17.7297581,56.7146613 17.1631452,58.2519194 C18.798629,59.6865968 20.4050806,60.9853065 21.9089516,62.0570806 C23.6349194,57.4312742 23.4529839,55.3907903 21.8973387,50.6672419 C24.0694355,54.8188548 23.8468548,58.1149839 22.3570161,62.3715968 C23.9416935,63.4680484 25.4015323,64.2959516 26.6470161,64.7430484 C27.8920161,61.0845 29.1931452,57.4578871 30.5445968,53.8496613 C29.3726613,53.0686935 28.3115323,52.0578871 27.3795968,50.9130484 C27.3675,50.9145 27.3554032,50.9159516 27.3428226,50.9164355 C24.8639516,50.7088548 24.0442742,50.2728871 22.0623387,48.9161129 C23.9852419,49.8843387 24.506371,50.2578871 26.9542742,50.3682097 C25.5481452,48.4985323 24.4729839,46.3317581 23.8028226,44.2424032 L24.2344355,45.0954677 C25.1049194,46.920629 26.1791129,48.7965968 27.5160484,50.4175645 C29.6625,48.503371 29.7805645,45.9640161 29.7766935,43.2369194 C30.0181452,44.4601452 30.0776613,44.9977258 29.9392742,46.2707903 C29.7215323,48.2774032 29.2710484,49.4682097 27.8562097,50.8177258 C28.7083065,51.7912742 29.6629839,52.6578871 30.7337903,53.3454677 C31.8471774,50.385629 32.9949194,47.4369194 34.173629,44.4930484 C31.6483065,43.1478871 29.7094355,40.6128871 28.1557258,37.9104677 C24.5542742,37.4730484 22.1668548,36.9562742 18.9704032,35.0696613 C22.5820161,36.5222419 24.138629,36.9848226 27.8383065,37.3472419 C27.0854032,35.9827258 26.4258871,34.5940161 25.833629,33.3093387 C25.8278226,33.3117581 25.8220161,33.3132097 25.8152419,33.3146613 C23.6615323,33.540629 21.4183065,32.7582097 19.5495968,31.7207903 C21.5987903,32.2501452 23.4558871,33.0935323 25.6033065,32.8075645 C24.7995968,31.0515968 24.0239516,29.2714355 23.4365323,27.4303065 C24.2542742,28.9162742 25.1102419,30.743371 26.0494355,32.6435323 C27.8291129,30.5038548 28.2495968,27.6978871 28.7925,25.0240161 C28.7634677,27.8435323 28.1155645,30.9345 26.3034677,33.1559516 C26.9857258,34.5228871 27.7120161,35.9145 28.4987903,37.2340161 C32.0625,34.9714355 33.7923387,30.6978871 34.5060484,26.7088548 L34.4344355,28.1193387 C33.9684677,31.6380484 31.7523387,35.7011129 28.7750806,37.6893387 C30.3844355,40.3036935 32.2444355,42.5774032 34.4857258,43.7145 C36.6689516,38.2893387 38.9566935,32.8772419 41.3320161,27.4307903 C40.4494355,26.9372419 39.6060484,25.958371 38.8575,24.7530484 C37.0033065,25.8369194 33.708629,24.7854677 32.0571774,23.8515968 C33.6592742,24.3204677 37.0154032,25.3714355 38.5957258,24.3151452 C37.9991129,23.2815968 37.4716935,22.1149839 37.0449194,20.9604677 C35.193629,21.2314355 34.1475,21.0040161 32.6470161,19.5630484 C31.796371,18.7453065 31.3870161,18.0746613 30.7957258,17.0832097 C30.8078226,17.0972419 32.1408871,18.6088548 32.1602419,18.6291774 C33.7328226,20.2777258 34.7789516,20.8148226 36.8673387,20.4630484 C36.3147581,18.8643387 35.9658871,17.3280484 35.9078226,16.2441774 C35.8604032,15.3620806 35.8531452,14.4940161 35.8589516,13.6119194 C36.0999194,14.6812742 36.1279839,15.1559516 36.2571774,16.2151452 C36.3694355,17.1320806 36.753629,18.5198226 37.3125,19.9946613 C39.4473387,17.4054677 39.8997581,15.6712742 39.8770161,12.233371 C40.4784677,15.6543387 39.6462097,17.8849839 37.5476613,20.5409516 C37.5525,20.5515968 37.556371,20.5627258 37.5602419,20.5743387 C37.5679839,20.6009516 37.5718548,20.6270806 37.5718548,20.6532097 C38.028629,21.773371 38.576371,22.9099839 39.1739516,23.9009516 C41.0687903,22.2524032 41.7016935,20.888371 41.6973387,18.2536935 C42.2644355,20.8709516 41.2787903,22.6346613 39.4526613,24.3461129 C40.1508871,25.4212742 40.9062097,26.2738548 41.6571774,26.6609516 L41.6668548,26.6648226 C43.5984677,22.2490161 45.5871774,17.8099839 47.6233065,13.3220806 C47.1283065,13.0293387 46.6560484,12.4753065 46.2355645,11.7978871 C45.1623387,12.4254677 43.2554032,11.8167581 42.2997581,11.2762742 C43.2268548,11.5477258 45.1691129,12.1559516 46.0841129,11.5448226 C45.738629,10.9462742 45.4333065,10.2712742 45.1865323,9.60304839 C44.1147581,9.75982258 43.5094355,9.62820968 42.641371,8.7945 C42.1487903,8.32127419 41.9116935,7.93272581 41.5695968,7.35933871 C41.5768548,7.36708065 42.3481452,8.24240323 42.3592742,8.25401613 C43.2694355,9.20820968 43.8747581,9.51885484 45.0834677,9.31514516 C44.763629,8.38998387 44.5618548,7.50062903 44.5279839,6.87353226 C44.5004032,6.36304839 44.4965323,5.86079032 44.4999194,5.34982258 C44.6392742,5.96917742 44.6557258,6.24401613 44.7302419,6.85708065 C44.7950806,7.38740323 45.0176613,8.19062903 45.3408871,9.04417742 C46.5766935,7.54562903 46.8384677,6.54208065 46.8254032,4.55240323 C47.1733065,6.53191935 46.6918548,7.82337097 45.4773387,9.36062903 C45.4797581,9.36643548 45.4821774,9.37272581 45.4845968,9.37998387 C45.4889516,9.39498387 45.4908871,9.41046774 45.4908871,9.42498387 C45.7555645,10.073371 46.0725,10.7314355 46.4184677,11.3048226 C47.5149194,10.350629 47.8812097,9.56143548 47.8787903,8.03675806 C48.2073387,9.55127419 47.636371,10.5722419 46.5795968,11.5627258 C46.9734677,12.1690161 47.3983065,12.6524032 47.8216935,12.8841774 C48.5842742,11.2046613 49.3541129,9.5178871 50.1292742,7.8228871 C51.2610484,5.34982258 52.3797581,2.76740323 53.5966935,0.345145161 C52.1610484,4.39659677 50.1089516,8.83659677 48.3776613,12.8101452 L48.2939516,13.0027258 C48.3215323,13.0051452 48.3491129,13.0119194 48.3757258,13.0230484 C48.9084677,13.178371 49.6531452,13.1140161 50.4718548,12.9180484 C50.3765323,11.2772419 50.7045968,9.99208065 52.1581452,9.00256452 C50.9644355,10.2548226 50.6494355,11.1901452 50.8057258,12.8319194 C51.5383065,12.6301452 52.3129839,12.3369194 53.0373387,12.0103065 C53.0489516,11.9977258 53.0625,11.9865968 53.0784677,11.9778871 C53.0852419,11.9740161 53.0920161,11.970629 53.0992742,11.9677258 C53.3010484,9.7545 53.913629,8.31595161 55.7465323,6.95966129 C54.1812097,8.58595161 53.6126613,9.61562903 53.4583065,11.8138548 C54.3912097,11.3648226 55.2016935,10.8775645 55.6695968,10.4914355 C56.2100806,10.0457903 56.4379839,9.83240323 57.0360484,9.43224194 C56.6397581,9.85514516 56.2444355,10.2649839 55.8229839,10.6632097 C55.3052419,11.1528871 54.4444355,11.7267581 53.4587903,12.2382097 C54.2934677,13.3501452 55.0347581,13.5669194 56.5284677,13.4938548 C56.5468548,13.4928871 57.8649194,13.3753065 57.8775,13.3743387 C57.1473387,13.5790161 56.6489516,13.7130484 55.8742742,13.7174032 C54.5087903,13.725629 53.9078226,13.3607903 53.1491129,12.3945 C52.4237903,12.7515968 51.6452419,13.0680484 50.8937903,13.290629 C51.168629,14.5080484 53.2415323,15.5251452 54.2165323,16.0259516 C53.0078226,15.7240161 50.9639516,14.7349839 50.5710484,13.380629 C49.6604032,13.6186935 48.8078226,13.7024032 48.1618548,13.5315968 C48.1328226,13.5190161 48.1071774,13.5025645 48.0849194,13.4827258 C46.1276613,17.9803065 44.2139516,22.4193387 42.3534677,26.8254677 C43.1610484,27.0432097 44.2729839,26.9425645 45.4933065,26.6503065 C45.3481452,24.1520806 45.8475,22.1943387 48.0612097,20.6870806 C46.2437903,22.5945 45.7633065,24.0195 46.0023387,26.5191774 C47.1176613,26.2124032 48.2978226,25.7653065 49.4005645,25.268371 C49.4184677,25.2490161 49.4392742,25.2325645 49.4629839,25.2190161 C49.4731452,25.2132097 49.4842742,25.2078871 49.4949194,25.2035323 C49.8026613,21.8324032 50.7350806,19.6419194 53.5270161,17.5757903 C51.1429839,20.0527258 50.2768548,21.6214355 50.0416935,24.9693387 C51.4628226,24.2851452 52.6971774,23.5428871 53.4094355,22.9554677 C54.2329839,22.2765968 54.5804032,21.9514355 55.4910484,21.3417581 C54.8876613,21.9857903 54.2852419,22.6104677 53.643629,23.2172419 C52.8544355,23.9628871 51.5441129,24.8362742 50.0421774,25.6153065 C51.3142742,27.3088548 52.4426613,27.6393387 54.7183065,27.5275645 C54.7458871,27.5261129 56.7534677,27.3475645 56.7723387,27.345629 C55.6604032,27.6577258 54.9016935,27.8619194 53.7220161,27.8686935 C51.6418548,27.8807903 50.726371,27.3253065 49.5708871,25.8538548 C48.4662097,26.3972419 47.2802419,26.8796613 46.1358871,27.218371 C46.5544355,29.0720806 49.7121774,30.6219194 51.1962097,31.3849839 C49.3555645,30.9243387 46.2428226,29.4185323 45.6447581,27.3553065 C44.2816935,27.7114355 43.0047581,27.840629 42.0273387,27.5982097 C39.7042742,33.1138548 37.4654032,38.5811129 35.3291129,44.0498226 C37.7354032,44.7635323 40.6444355,44.3957903 43.6062097,43.6099839 C42.8165323,40.1178871 44.0078226,35.6459516 46.0933065,32.7732097 L47.0126613,31.7009516 C44.7825,35.0851452 43.0942742,39.3751452 44.1200806,43.4696613 C45.5987903,43.0549839 47.0842742,42.5459516 48.5204032,42.0243387 C48.7362097,39.1661129 50.3949194,36.4786935 52.3158871,34.4140161 C50.8681452,36.7269194 49.2404032,39.0509516 49.0575,41.828371 C51.0466935,41.0967581 52.9260484,40.3617581 54.5421774,39.8474032 C52.848629,40.7778871 51.0597581,41.5346613 49.2679839,42.2546613 C50.6281452,43.9404677 52.5554032,44.6077258 54.4057258,45.6354677 C52.3366935,45.1003065 50.171371,44.1228871 48.7647581,42.4762742 C48.761371,42.4704677 48.7579839,42.4651452 48.7550806,42.4593387 C47.441371,42.9828871 46.0062097,43.5359516 44.5207258,44.0067581 C47.4529839,46.2915968 48.9002419,47.0285323 52.5195968,48.4622419 C48.9021774,47.6290161 46.8157258,46.3598226 43.9028226,44.1969194 C40.9216935,45.0843387 37.7779839,45.5870806 35.0247581,44.8307903 C33.8745968,47.7891774 32.7549194,50.7490161 31.6681452,53.7180484 C32.8657258,53.9386935 34.098629,53.9638548 35.3315323,53.8501452 C35.2371774,51.9441774 35.718629,50.7988548 36.9128226,49.2325645 C37.6705645,48.2386935 38.0741129,47.8980484 39.0670161,47.1945 L39.0670161,47.1949839 C37.2316935,49.1217581 35.6087903,50.9982097 35.8410484,53.7954677 C37.8766935,53.5462742 39.8968548,52.9409516 41.7399194,52.2345 L42.618629,51.9209516 C40.7402419,52.9491774 38.5231452,53.7596613 36.2716935,54.1380484 C38.0784677,55.7048226 38.6978226,55.7909516 40.7097581,56.3982097 C38.3949194,56.0261129 37.5220161,55.7836935 35.6281452,54.2648226 C35.6194355,54.2561129 35.6116935,54.2469194 35.6044355,54.2372419 C34.2108871,54.4167581 32.8154032,54.4230484 31.4905645,54.2053065 C30.1778226,57.8057903 28.9139516,61.4207903 27.7052419,65.0643387 C27.7376613,65.0759516 27.7700806,65.0919194 27.8005645,65.1127258 C29.0116935,65.7291774 30.6887903,66.2140161 32.6673387,66.5861129 C34.5162097,62.4790161 36.6123387,59.9667581 41.0034677,58.560629 C36.6612097,60.8169194 35.1360484,62.1432097 33.2025,66.6824032 C35.0092742,66.9954677 37.0444355,67.2199839 39.1937903,67.3685323 C39.8407258,65.8651452 41.6895968,61.9786935 45.9800806,60.3920806 C44.3866935,61.5577258 41.9087903,62.1548226 39.7497581,67.4053065 C41.8942742,67.5388548 44.1408871,67.5993387 46.3792742,67.5978871 C47.6925,65.3667581 50.0441129,63.7496613 52.4397581,62.9227258 C50.373629,64.1870806 48.2465323,65.4528871 46.9870161,67.5964355 C53.5812097,67.5601452 60.0195968,66.9974032 63.4768548,66.2115968 L64.2776613,66.0286935 C60.3752419,67.5853065 53.1602419,68.0962742 47.1007258,68.1693387 C49.3797581,71.2322419 51.3471774,72.5169194 54.5537903,74.6043387 C51.1821774,73.0612742 48.731371,71.1509516 46.4557258,68.175629 C44.1447581,68.1920806 42.0302419,68.1465968 40.3720161,68.0740161 L39.7662097,68.0474032 C40.4518548,69.7835323 41.2047581,70.6511129 42.5591129,72.0219194 C44.5245968,74.010629 46.3400806,75.2904677 48.5508871,76.8998226 C46.4175,75.8715968 44.0020161,73.9685323 42.2823387,72.3170806 C40.7426613,70.838371 39.9921774,69.9804677 39.2073387,68.0222419 C37.2060484,67.9307903 35.0412097,67.8045 32.9416935,67.4701452 C31.8505645,71.9319194 33.3345968,76.8180484 35.8168548,80.6130484 L36.6326613,81.8043387 C33.2707258,77.8946613 31.3066935,72.4670806 32.4297581,67.3845 C30.6597581,67.0714355 28.9502419,66.5986935 27.4415323,65.8607903 C23.4752419,77.9067581 20.1084677,90.2745 17.5333065,103.477403 C17.4602419,103.8495 17.0992742,104.092403 16.7271774,104.019339 C16.3545968,103.946274 16.1121774,103.585306 16.1852419,103.212726" id="Fill-4" fill="#C85828" mask="url(#mask-4)"></path>
            </g>
        </g>
    </g>
</svg>