<?xml version="1.0" encoding="UTF-8"?>
<svg width="120px" height="120px" viewBox="0 0 120 120" version="1.1" xmlns="http://www.w3.org/2000/svg" xmlns:xlink="http://www.w3.org/1999/xlink">
    <!-- Generator: Sketch 51.1 (57501) - http://www.bohemiancoding.com/sketch -->
    <title>Set square2</title>
    <desc>Created with Sketch.</desc>
    <defs></defs>
    <g id="Set-square2" stroke="none" stroke-width="1" fill="none" fill-rule="evenodd">
        <g id="Group-7" transform="translate(12.000000, 0.000000)">
            <path d="M78.4425,104.132625 L34.4715,104.132625 L78.4425,49.384125 L78.4425,104.132625 Z M0.052125,119.90475 L96.65325,119.90475 L96.65325,0.11925 L0.052125,119.90475 Z" id="Fill-173" fill="#F5C624"></path>
            <polyline id="Fill-174" fill="#D5AF2F" points="96.65325 119.90475 0.052125 119.90475 1.820625 117.71175 96.65325 117.71175 96.65325 119.90475"></polyline>
            <polygon id="Fill-180" fill="#D5AF2F" points="33.79425 117.71175 34.636125 117.71175 34.636125 115.481625 33.79425 115.481625"></polygon>
            <polygon id="Fill-181" fill="#D5AF2F" points="38.706 117.71175 39.547875 117.71175 39.547875 115.481625 38.706 115.481625"></polygon>
            <polygon id="Fill-182" fill="#D5AF2F" points="43.61775 117.71175 44.459625 117.71175 44.459625 115.481625 43.61775 115.481625"></polygon>
            <polygon id="Fill-183" fill="#D5AF2F" points="48.4815 117.71175 49.323375 117.71175 49.323375 115.481625 48.4815 115.481625"></polygon>
            <polygon id="Fill-184" fill="#D5AF2F" points="53.39325 117.71175 54.235125 117.71175 54.235125 115.481625 53.39325 115.481625"></polygon>
            <polygon id="Fill-185" fill="#D5AF2F" points="58.304625 117.71175 59.146875 117.71175 59.146875 115.481625 58.304625 115.481625"></polygon>
            <polygon id="Fill-186" fill="#D5AF2F" points="63.216375 117.71175 64.058625 117.71175 64.058625 115.481625 63.216375 115.481625"></polygon>
            <polygon id="Fill-187" fill="#D5AF2F" points="68.128125 117.71175 68.970375 117.71175 68.970375 115.481625 68.128125 115.481625"></polygon>
            <polygon id="Fill-188" fill="#D5AF2F" points="73.039875 117.71175 73.882125 117.71175 73.882125 115.481625 73.039875 115.481625"></polygon>
            <polygon id="Fill-189" fill="#D5AF2F" points="77.951625 117.71175 78.793875 117.71175 78.793875 115.481625 77.951625 115.481625"></polygon>
            <polygon id="Fill-190" fill="#D5AF2F" points="82.863375 117.71175 83.70525 117.71175 83.70525 115.481625 82.863375 115.481625"></polygon>
            <polygon id="Fill-191" fill="#D5AF2F" points="87.775125 117.71175 88.617 117.71175 88.617 115.481625 87.775125 115.481625"></polygon>
            <polygon id="Fill-192" fill="#D5AF2F" points="92.686875 117.71175 93.52875 117.71175 93.52875 115.481625 92.686875 115.481625"></polygon>
        </g>
    </g>
</svg>