<?xml version="1.0" encoding="UTF-8"?>
<svg width="120px" height="120px" viewBox="0 0 120 120" version="1.1" xmlns="http://www.w3.org/2000/svg" xmlns:xlink="http://www.w3.org/1999/xlink">
    <!-- Generator: Sketch 49 (51002) - http://www.bohemiancoding.com/sketch -->
    <title>Artboard</title>
    <desc>Created with Sketch.</desc>
    <defs></defs>
    <g id="Artboard" stroke="none" stroke-width="1" fill="none" fill-rule="evenodd">
        <g id="资源-3">
            <rect id="Rectangle-path" x="0" y="0" width="120" height="120"></rect>
            <path d="M37.87,112.48 C33.8686693,76.8350566 37.6419837,40.7463409 48.93,6.7 C49.1233038,6.21525378 49.6234157,5.9259328 50.14,6 L55.79,6.59 C56.1267595,6.60686194 56.4371832,6.77724183 56.6322422,7.05227503 C56.8273012,7.32730822 56.8854457,7.67660954 56.79,8 C45.6457493,41.7806912 41.894321,77.5624958 45.79,112.92 C45.7868442,113.234208 45.6494645,113.532066 45.4125143,113.738442 C45.1755641,113.944818 44.8616662,114.040008 44.55,114 L38.9,113.41 C38.3843308,113.372158 37.9601277,112.98914 37.87,112.48 Z" id="Shape" fill="#8CB842" fill-rule="nonzero"></path>
            <path d="M36.38,90.4 C35.6373924,90.3900699 35.0317625,89.8019944 35,89.06 C34.9423055,88.2748834 35.525792,87.5889527 36.31,87.52 L44,87 C44.3747573,86.9782309 44.7425578,87.1078742 45.020833,87.3598262 C45.2991083,87.6117781 45.4645436,87.9649293 45.48,88.34 C45.5376945,89.1251166 44.954208,89.8110473 44.17,89.88 L36.4,90.44 L36.38,90.4 Z" id="Shape" fill="#BCCA3B" fill-rule="nonzero"></path>
            <path d="M39.8,45.71 L47.48,46.99" id="Shape" fill="#BCCA3B" fill-rule="nonzero"></path>
            <path d="M39.5,47.12 C38.7622353,46.9459773 38.2884374,46.2265065 38.42,45.48 C38.5334445,44.7184894 39.2367697,44.1887698 40,44.29 L47.68,45.57 C48.4334956,45.7275565 48.9298244,46.4498656 48.8067438,47.2097543 C48.6836633,47.969643 47.9847052,48.4983492 47.22,48.41 L39.54,47.13 L39.5,47.12 Z" id="Shape" fill="#BCCA3B" fill-rule="nonzero"></path>
            <path d="M58.1,25.53 C58.1,25.53 51.51,29.32 45.23,41" id="Shape" fill="#BCCA3B" fill-rule="nonzero"></path>
            <path d="M45.12,42.06 C44.9789584,42.0455134 44.8426097,42.0012001 44.72,41.93 C44.2045836,41.629491 44.0226865,40.9728869 44.31,40.45 C50.66,28.65 57.31,24.74 57.59,24.58 C57.8301614,24.4369963 58.1192125,24.4010333 58.3870939,24.4808278 C58.6549752,24.5606222 58.8772341,24.7488903 59,25 C59.2817318,25.5235255 59.100959,26.1760713 58.59,26.48 C58.5,26.54 52.15,30.33 46.14,41.48 C45.9498218,41.8629944 45.5463832,42.0924006 45.12,42.06 Z" id="Shape" fill="#BCCA3B" fill-rule="nonzero"></path>
            <path d="M61.85,28 C60.35,27.84 57.42,26.27 57.58,24.73 C57.74,23.19 60.93,22.26 62.43,22.41 C62.43,22.41 85.19,26.05 85.03,27.6 C84.88,29.1 61.85,28 61.85,28 Z" id="Shape" fill="#8CB842" fill-rule="nonzero"></path>
            <path d="M54.72,36.28 C53.47,35.18 52.02,31.6 53.37,29.98 C54.73,28.35 58.37,29.29 59.63,30.4 C59.63,30.4 77.63,48.59 76.27,50.22 C74.91,51.83 54.72,36.28 54.72,36.28 Z" id="Shape" fill="#8CB842" fill-rule="nonzero"></path>
            <path d="M59.18,77.47 L52.95,64.09 C51.3406844,60.6390309 52.7446432,56.5331134 56.13,54.79 C57.7453886,53.9898613 59.6166771,53.8809119 61.3140071,54.4881788 C63.0113371,55.0954458 64.3888089,56.3667295 65.13,58.01 L71.36,71.4 C71.9927266,72.7325298 71.4524864,74.3266813 70.14,75 L62.64,78.74 C62.0150702,79.0464368 61.2920385,79.0841106 60.6386453,78.8442813 C59.9852521,78.604452 59.4582857,78.1079639 59.18,77.47 Z" id="Shape" fill="#D93A2A" fill-rule="nonzero"></path>
            <path d="M59.79,29.58 C58.97,29.07 57.91,26.95 58.69,25.58 C59.47,24.25 61.79,24.21 62.61,24.72 C62.61,24.72 74.61,33.59 73.8,34.92 C73,36.29 59.79,29.58 59.79,29.58 Z" id="Shape" fill="#50A648" fill-rule="nonzero"></path>
            <path d="M57.92,63.24 C57.111377,63.1698269 56.3656953,62.7749972 55.8531581,62.1456317 C55.3406209,61.5162662 55.1049725,60.7060801 55.2,59.9 L55.2,59.69 C55.2771518,58.8789167 55.6808739,58.1340969 56.3183685,57.6267418 C56.955863,57.1193867 57.772294,56.8931379 58.58,57 C59.388623,57.0701731 60.1343047,57.4650028 60.6468419,58.0943683 C61.1593791,58.7237338 61.3950275,59.5339199 61.3,60.34 L61.3,60.55 C61.2228482,61.3610833 60.8191261,62.1059031 60.1816315,62.6132582 C59.544137,63.1206133 58.727706,63.3468621 57.92,63.24 Z" id="Shape" fill="#FBEEEE" fill-rule="nonzero"></path>
            <path d="M58.84,60.76 C58.56,60.76 58.38,60.51 58.23,60.22 L58.11,59.9 L58.03,59.7 L56.92,56.84 L56.92,56.77 L55.05,52 C49.21,36.87 51.29,28.8 51.38,28.46 C51.4310843,28.248121 51.567433,28.0667598 51.7567832,27.9588302 C51.9461334,27.8509006 52.1716605,27.8259926 52.38,27.89 C52.8069061,28.0156532 53.052494,28.4621767 52.93,28.89 C52.5605197,30.7728437 52.4528358,32.6976936 52.61,34.61 C53.0332817,40.3756425 54.3629392,46.0384987 56.55,51.39 L59.55,59.22 L59.6,59.36 L59.69,59.6 C59.7820196,59.7966145 59.7879396,60.0226829 59.7063365,60.2238441 C59.6247334,60.4250052 59.4629901,60.5830593 59.26,60.66 C59.1311037,60.7293569 58.9863215,60.7638289 58.84,60.76 Z" id="Shape" fill="#D93A2A" fill-rule="nonzero"></path>
            <ellipse id="Oval" fill="#F1D11E" fill-rule="nonzero" transform="translate(62.729866, 69.252806) rotate(-84.030000) translate(-62.729866, -69.252806) " cx="62.7298662" cy="69.2528055" rx="3.47" ry="3.36"></ellipse>
        </g>
    </g>
</svg>