<?xml version="1.0" encoding="UTF-8"?>
<svg width="120px" height="120px" viewBox="0 0 120 120" version="1.1" xmlns="http://www.w3.org/2000/svg" xmlns:xlink="http://www.w3.org/1999/xlink">
    <!-- Generator: Sketch 51.1 (57501) - http://www.bohemiancoding.com/sketch -->
    <title>Cow2</title>
    <desc>Created with Sketch.</desc>
    <defs>
        <polygon id="path-1" points="1.39398853 0.949 51.1001608 0.949 51.1001608 60 1.39398853 60"></polygon>
        <polygon id="path-3" points="0.948833333 0.332333333 12.7555 0.332333333 12.7555 6.66666667 0.948833333 6.66666667"></polygon>
        <polygon id="path-5" points="1.13066667 0.6395 18.8583333 0.6395 18.8583333 19.4495 1.13066667 19.4495"></polygon>
    </defs>
    <g id="Cow2" stroke="none" stroke-width="1" fill="none" fill-rule="evenodd">
        <g id="Group" transform="translate(20.000000, 0.000000)">
            <path d="M21.289,95.7231667 C18.4623333,102.188167 12.4256667,104.218167 7.284,100.1665 C6.15233333,99.2748333 5.15233333,98.1598333 4.30233333,96.8798333 C4.88566667,97.5731667 5.52566667,98.1981667 6.214,98.7398333 C11.239,102.699833 17.1206667,100.849833 20.0223333,94.7248333 L21.289,95.7231667 Z" id="Fill-1" fill="#3C3331"></path>
            <path d="M8.4375,100.61 C7.5975,100.991667 6.6475,101.128333 5.6875,100.955 C3.30416667,100.523333 1.66416667,98.3216667 1.75083333,95.855 C2.59416667,95.4733333 3.54083333,95.3366667 4.5025,95.51 C6.88416667,95.94 8.52583333,98.1416667 8.4375,100.61" id="Fill-3" fill="#3C3331"></path>
            <path d="M25.3906667,83.897 C22.974,88.1753333 19.8573333,91.397 17.079,92.8086667 C15.364,93.6786667 13.779,93.862 12.5706667,93.1786667 C11.4823333,92.5636667 10.8406667,91.3286667 10.619,89.692 C10.199,86.5603333 11.3373333,81.952 13.9073333,77.407 C17.8156667,70.4903333 25.2456667,66.8086667 28.4173333,68.602 C31.589,70.3936667 29.3006667,76.9803333 25.3906667,83.897" id="Fill-5" fill="#C8B5AC"></path>
            <path d="M17.0785,92.8081667 C15.3651667,93.6781667 13.7801667,93.8631667 12.5701667,93.1781667 C11.4835,92.5648333 10.8401667,91.3298333 10.6185,89.6915 C11.4035,89.3665 12.3301667,89.2465 13.2935,89.3948333 C15.3435,89.7148333 16.8801667,91.1581667 17.0785,92.8081667" id="Fill-7" fill="#25130F"></path>
            <path d="M68.195,89.9923333 C67.9383333,91.4806667 67.31,92.6023333 66.2883333,93.179 C65.0483333,93.879 63.4166667,93.669 61.6533333,92.7423333 C58.9083333,91.299 55.8483333,88.1106667 53.4683333,83.8973333 C49.5583333,76.979 47.27,70.394 50.4416667,68.6023333 C53.6133333,66.809 61.0416667,70.4906667 64.9516667,77.4073333 C67.6033333,82.1006667 68.7316667,86.859 68.195,89.9923333" id="Fill-9" fill="#C8B5AC"></path>
            <path d="M68.195,89.9923333 C67.9383333,91.4806667 67.31,92.6023333 66.2883333,93.179 C65.0483333,93.879 63.4166667,93.669 61.6533333,92.7423333 C61.9633333,91.324 63.215,90.069 64.9316667,89.6456667 C66.11,89.354 67.275,89.5073333 68.195,89.9923333" id="Fill-11" fill="#25130F"></path>
            <g id="Group-15" transform="translate(13.333333, 59.466167)">
                <mask id="mask-2" fill="white">
                    <use xlink:href="#path-1"></use>
                </mask>
                <g id="Clip-14"></g>
                <path d="M49.4221667,55.3073333 C49.2238333,55.8523333 49.0088333,56.3523333 48.7788333,56.8106667 C47.8855,58.589 46.7705,59.6823333 45.5038333,59.8856667 C42.7205,60.3356667 39.8871667,59.574 37.6155,55.5356667 C36.7388333,53.9773333 35.9455,51.929 35.2688333,49.274 C35.2571667,49.2306667 35.2455,49.189 35.2338333,49.1456667 C32.8221667,50.1656667 30.1505,50.709 27.3121667,50.749 C27.1921667,50.7523333 27.0705,50.754 26.9488333,50.754 C23.5371667,50.754 20.2788333,50.0373333 17.3838333,48.6406667 C17.3721667,48.6923333 17.3621667,48.7456667 17.3471667,48.8006667 C16.6455,51.6873333 15.8088333,53.884 14.8788333,55.5356667 C12.6088333,59.574 9.7755,60.3356667 6.9905,59.8856667 C5.4005,59.629 4.04883333,57.969 3.07383333,55.3073333 C1.32716667,50.544 0.782166667,42.5706667 2.2105,33.7106667 C2.21383333,33.6923333 2.2155,33.6756667 2.21883333,33.6573333 C2.32383333,32.9923333 2.44216667,32.3356667 2.56383333,31.6873333 C3.9155,24.4773333 6.1205,18.2956667 8.5405,14.394 C9.6805,11.8406667 11.1338333,9.55566667 12.8338333,7.62233333 C16.1371667,3.86566667 20.3705,1.44566667 25.0288333,1.01733333 C25.5238333,0.970666667 26.0238333,0.949 26.5255,0.949 C28.9205,0.949 31.2221667,1.474 33.3655,2.444 C34.2705,2.85066667 35.1488333,3.339 35.9905,3.899 C36.8005,4.43733333 37.5788333,5.039 38.3188333,5.704 C41.7055,8.73733333 44.3621667,13.039 45.8788333,18.079 C47.7238333,22.219 49.3105,27.6573333 50.2855,33.7106667 C50.5471667,35.3356667 50.7421667,36.929 50.8755,38.479 C51.4705,45.3873333 50.8488333,51.4173333 49.4221667,55.3073333" id="Fill-13" fill="#E5D7CC" mask="url(#mask-2)"></path>
            </g>
            <g id="Group-18" transform="translate(50.000000, 112.799500)">
                <mask id="mask-4" fill="white">
                    <use xlink:href="#path-3"></use>
                </mask>
                <g id="Clip-17"></g>
                <path d="M12.7555,1.974 C12.5571667,2.519 12.3421667,3.019 12.1121667,3.47733333 C11.2188333,5.25566667 10.1038333,6.349 8.83716667,6.55233333 C6.05383333,7.00233333 3.2205,6.24066667 0.948833333,2.20233333 C2.4805,1.049 4.63216667,0.332333333 7.01383333,0.332333333 C9.23216667,0.332333333 11.2521667,0.954 12.7555,1.974" id="Fill-16" fill="#25130F" mask="url(#mask-4)"></path>
            </g>
            <path d="M64.209,97.9456667 C63.134,98.1756667 62.029,98.2956667 60.9006667,98.2956667 C50.6456667,98.2956667 42.3356667,88.3873333 42.3356667,76.1623333 C42.3356667,70.7323333 43.9756667,65.759 46.699,61.909 C47.604,62.3173333 48.4806667,62.8056667 49.324,63.3656667 C50.134,63.9023333 50.9106667,64.5056667 51.6523333,65.1706667 C55.039,68.2023333 57.6956667,72.504 59.2123333,77.5456667 C61.0573333,81.6856667 62.644,87.124 63.619,93.1773333 C63.8806667,94.8006667 64.0756667,96.3956667 64.209,97.9456667" id="Fill-19" fill="#BAA398"></path>
            <path d="M0,21.1773333 C0,26.3723333 3.96833333,30.5823333 8.86333333,30.5823333 C13.76,30.5823333 17.7283333,26.3723333 17.7283333,21.1773333 C17.7283333,15.984 13.76,11.7723333 8.86333333,11.7723333 C3.96833333,11.7723333 0,15.984 0,21.1773333" id="Fill-21" fill="#BAA398"></path>
            <path d="M4.2855,21.2855 C4.2855,24.0321667 6.38383333,26.2588333 8.97383333,26.2588333 C11.5605,26.2588333 13.6588333,24.0321667 13.6588333,21.2855 C13.6588333,18.5405 11.5605,16.3138333 8.97383333,16.3138333 C6.38383333,16.3138333 4.2855,18.5405 4.2855,21.2855" id="Fill-23" fill="#E5D7CC"></path>
            <g id="Group-27" transform="translate(60.000000, 11.132833)">
                <mask id="mask-6" fill="white">
                    <use xlink:href="#path-5"></use>
                </mask>
                <g id="Clip-26"></g>
                <path d="M18.859,10.0445 C18.859,15.2395 14.889,19.4495 9.99566667,19.4495 C5.099,19.4495 1.13066667,15.2395 1.13066667,10.0445 C1.13066667,4.85116667 5.099,0.6395 9.99566667,0.6395 C14.889,0.6395 18.859,4.85116667 18.859,10.0445" id="Fill-25" fill="#BAA398" mask="url(#mask-6)"></path>
            </g>
            <path d="M74.5735,21.2855 C74.5735,24.0321667 72.4735,26.2588333 69.8851667,26.2588333 C67.2985,26.2588333 65.2001667,24.0321667 65.2001667,21.2855 C65.2001667,18.5405 67.2985,16.3138333 69.8851667,16.3138333 C72.4735,16.3138333 74.5735,18.5405 74.5735,21.2855" id="Fill-28" fill="#E5D7CC"></path>
            <path d="M57.7783333,0.1665 C61.075,2.5615 67.36,8.93483333 61.8516667,20.1648333 C61.61,20.6581667 60.975,20.8048333 60.5416667,20.4648333 L52.6316667,14.2415 C52.145,13.8581667 52.2133333,13.1065 52.755,12.8048333 C54.6316667,11.7615 57.7666667,8.8115 56.4233333,1.00983333 C56.29,0.248166667 57.1533333,-0.286833333 57.7783333,0.1665" id="Fill-30" fill="#3C3331"></path>
            <path d="M20.8186667,0.360166667 C17.4803333,2.8835 11.6886667,9.1735 16.9403333,20.0285 C17.2136667,20.5951667 17.9403333,20.7601667 18.4353333,20.3718333 L26.0836667,14.3535 C26.632,13.9218333 26.567,13.0785 25.967,12.7251667 C24.1053333,11.6318333 21.2003333,8.7035 22.387,1.30516667 C22.5286667,0.4235 21.532,-0.178166667 20.8186667,0.360166667" id="Fill-32" fill="#3C3331"></path>
            <path d="M77.6968333,45.0298333 C77.6968333,46.9148333 77.5551667,48.6515 77.2818333,50.2548333 C74.6068333,65.9698333 59.2568333,68.6231667 40.0785,68.6231667 L39.6018333,68.6231667 C39.4451667,68.6215 39.2918333,68.6215 39.1368333,68.6215 C20.2985,68.5331667 4.32183333,65.6931667 1.5785,50.0898333 C1.30183333,48.5331667 1.16183333,46.8498333 1.16183333,45.0298333 C1.16183333,24.6581667 18.2935,8.1415 39.4285,8.1415 C60.5635,8.1415 77.6968333,24.6581667 77.6968333,45.0298333" id="Fill-34" fill="#E5D7CC"></path>
            <path d="M77.692,44.4836667 C75.8803333,25.7353333 59.5136667,11.0603333 39.592,11.0603333 C18.457,11.0603333 1.32533333,27.5753333 1.32533333,47.9486667 L1.32533333,48.2836667 C1.217,47.252 1.162,46.167 1.162,45.0303333 C1.162,24.657 18.2953333,8.142 39.4286667,8.142 C60.3736667,8.142 77.387,24.362 77.692,44.4836667" id="Fill-36" fill="#E5D7CC"></path>
            <path d="M77.2818333,50.2543333 C76.1435,56.931 72.7201667,61.2493333 67.6851667,64.0093333 C60.8701667,67.746 51.1068333,68.6226667 40.0768333,68.6226667 L39.6001667,68.6226667 C39.5235,68.516 39.4468333,68.4093333 39.3718333,68.2993333 C39.2951667,68.4093333 39.2151667,68.516 39.1351667,68.621 C30.3801667,68.581 22.2451667,67.9443333 15.7685,65.7076667 C8.3035,63.136 3.04516667,58.441 1.5785,50.0893333 C5.4885,45.1493333 12.3735,41.8676667 20.2135,41.8676667 C28.4985,41.8676667 32.0268333,49.9743333 39.4835,50.9476667 C46.1568333,49.8143333 50.4401667,42.0293333 58.6418333,42.0293333 C66.4851667,42.0293333 73.3718333,45.311 77.2818333,50.2543333" id="Fill-38" fill="#BAA398"></path>
            <path d="M25.3091667,49.7328333 C25.3091667,51.6578333 26.6891667,53.2195 28.3908333,53.2195 C30.0925,53.2195 31.4708333,51.6578333 31.4708333,49.7328333 C31.4708333,47.8078333 30.0925,46.2461667 28.3908333,46.2461667 C26.6891667,46.2461667 25.3091667,47.8078333 25.3091667,49.7328333" id="Fill-40" fill="#3C3331"></path>
            <path d="M48.4976667,49.7328333 C48.4976667,51.6578333 49.876,53.2195 51.5776667,53.2195 C53.2793333,53.2195 54.6576667,51.6578333 54.6576667,49.7328333 C54.6576667,47.8078333 53.2793333,46.2461667 51.5776667,46.2461667 C49.876,46.2461667 48.4976667,47.8078333 48.4976667,49.7328333" id="Fill-42" fill="#3C3331"></path>
            <path d="M40.2343333,64.4618333 C35.7093333,64.4618333 31.4493333,63.5368333 28.2376667,61.8601667 C24.9426667,60.1385 23.1276667,57.8201667 23.1276667,55.3301667 C23.1276667,55.1568333 23.1376667,54.9818333 23.156,54.8068333 C23.1793333,54.5835 23.3776667,54.4235 23.6026667,54.4451667 C23.8226667,54.4685 23.986,54.6685 23.9626667,54.8901667 C23.9476667,55.0368333 23.941,55.1851667 23.941,55.3301667 C23.941,59.9185 31.2493333,63.6501667 40.2343333,63.6501667 C49.001,63.6501667 56.3093333,60.0101667 56.5226667,55.5351667 C56.5343333,55.3118333 56.7226667,55.1385 56.9476667,55.1501667 C57.171,55.1601667 57.3443333,55.3518333 57.3326667,55.5735 C57.0926667,60.5585 49.581,64.4618333 40.2343333,64.4618333" id="Fill-44" fill="#3C3331"></path>
            <path d="M40.7128333,108.511167 C40.7128333,109.0845 40.6895,109.6545 40.6461667,110.2145 C40.5261667,110.217833 40.4028333,110.2195 40.2811667,110.2195 C36.8695,110.2195 33.6111667,109.502833 30.7178333,108.106167 C30.7045,108.1595 30.6945,108.212833 30.6795,108.266167 C29.9795,111.152833 29.1428333,113.351167 28.2128333,115.001167 C25.9428333,119.0395 23.1078333,119.801167 20.3245,119.351167 C18.7328333,119.096167 17.3828333,117.4345 16.4078333,114.772833 C14.6595,110.0095 14.1161667,102.036167 15.5428333,93.1761667 C15.5461667,93.1595 15.5478333,93.1411667 15.5511667,93.1228333 C15.6578333,92.4578333 15.7745,91.8028333 15.8961667,91.1528333 C18.1778333,89.9111667 20.7395,89.2145 23.4445,89.2145 C32.9811667,89.2145 40.7128333,97.8545 40.7128333,108.511167" id="Fill-46" fill="#BAA398"></path>
            <path d="M28.2128333,115.001333 C25.9428333,119.039667 23.1078333,119.801333 20.3245,119.351333 C18.7345,119.096333 17.3828333,117.434667 16.4078333,114.773 C17.9128333,113.753 19.9311667,113.131333 22.1511667,113.131333 C24.5311667,113.131333 26.6811667,113.849667 28.2128333,115.001333" id="Fill-48" fill="#25130F"></path>
            <path d="M15.8023333,34.2038333 C15.8023333,37.6371667 18.7206667,40.4188333 22.3223333,40.4188333 C25.924,40.4188333 28.8423333,37.6371667 28.8423333,34.2038333 C28.8423333,30.7705 25.924,27.9888333 22.3223333,27.9888333 C18.7206667,27.9888333 15.8023333,30.7705 15.8023333,34.2038333" id="Fill-50" fill="#3C3331"></path>
            <path d="M63.0566667,34.2038333 C63.0566667,37.6371667 60.1366667,40.4188333 56.5366667,40.4188333 C52.935,40.4188333 50.015,37.6371667 50.015,34.2038333 C50.015,30.7705 52.935,27.9888333 56.5366667,27.9888333 C60.1366667,27.9888333 63.0566667,30.7705 63.0566667,34.2038333" id="Fill-56" fill="#3C3331"></path>
            <path d="M67.6855,64.0093333 C60.8705,67.746 51.1071667,68.6226667 40.0771667,68.6226667 L39.5988333,68.6226667 C39.5238333,68.516 39.4471667,68.4093333 39.3721667,68.2993333 C39.2955,68.4093333 39.2155,68.516 39.1355,68.621 C30.3805,68.581 22.2438333,67.9443333 15.7688333,65.7093333 C27.7655,67.3243333 48.8605,68.9193333 67.6855,64.0093333" id="Fill-62" fill="#BAA398"></path>
        </g>
    </g>
</svg>