<?xml version="1.0" encoding="UTF-8"?>
<svg width="100px" height="91px" viewBox="0 0 100 91" version="1.1" xmlns="http://www.w3.org/2000/svg" xmlns:xlink="http://www.w3.org/1999/xlink">
    <!-- Generator: Sketch 48.2 (47327) - http://www.bohemiancoding.com/sketch -->
    <title>Artboard Copy 7</title>
    <desc>Created with Sketch.</desc>
    <defs>
        <polygon id="path-1" points="0.147169984 0.0502681099 11.7274359 0.0502681099 11.7274359 24.4408784 0.147169984 24.4408784"></polygon>
    </defs>
    <g id="Page-1" stroke="none" stroke-width="1" fill="none" fill-rule="evenodd">
        <g id="Artboard-Copy-7">
            <g id="Group-8">
                <path d="M82.48962,0.54368516 L84.1619538,12.0637933 C84.2735458,12.4825162 84.7245504,12.713398 85.1321238,12.5604504 L90.1627266,11.7385298 C90.8097127,11.4955044 91.405385,12.1947595 91.0579353,12.7894875 L89.4163588,17.5897375 C89.1975025,17.9641902 89.3523711,18.4447071 89.7494345,18.6230179 L99.4571625,22.03767 C100.087456,22.3208152 100.011567,23.2340433 99.3430976,23.4103558 L89.2030666,25.1922341 C88.7820466,25.3032173 88.5498982,25.7519149 88.7038394,26.1571108 L93.5492799,35.8784318 C93.7937931,36.5218879 93.0905473,37.1143102 92.4925566,36.7687561 L83.646807,30.4181243 C83.2703,30.2004622 82.787147,30.3544858 82.607858,30.7492291 L79.6777189,34.3544892 C79.3930203,34.9813439 78.4746277,34.9058693 78.2973479,34.2410466 L76.002603,30.2058423 C75.891011,29.7871193 75.4398518,29.5562375 75.032433,29.7093389 L67.7135767,32.459322 C67.0665906,32.7023473 66.4709183,32.0030923 66.8182135,31.4083642 L70.748198,24.6800517 C70.9668997,24.3054453 70.8120311,23.8249284 70.4151223,23.6467713 L66.8931748,20.7410737 C66.2628812,20.4579284 66.3387699,19.5443929 67.0073943,19.3682341 L70.9614901,17.0775551 C71.3825102,16.966572 71.6146586,16.5178743 71.4607173,16.1126784 L70.6817374,11.1650146 C70.4372243,10.5215585 71.14047,9.92913617 71.7384608,10.2746902 L76.5175952,11.8516649 C76.8942568,12.0691733 77.3774098,11.9153034 77.5565442,11.5205602 L81.1094036,0.430242593 C81.3941022,-0.196612137 82.3124948,-0.121137475 82.48962,0.54368516" id="Fill-241" fill="#FFD366"></path>
                <path d="M24.6718114,85.0697867 C23.6191066,85.0697867 22.5736661,84.6266228 21.8398176,83.7653509 C21.6858763,83.5853492 21.12668,83.0831583 20.75651,82.7509775 C18.7330169,80.9343593 16.6407449,79.0557934 16.8633106,76.4152563 C17.2053508,72.3571482 19.2514095,67.3844286 19.4835579,66.8308965 C20.2721205,64.9503323 22.4442998,64.0616988 24.3350262,64.8461127 C26.2257526,65.6302191 27.1192611,67.7905468 26.3306985,69.6709573 C25.8885038,70.730062 24.7997866,73.6629674 24.3894312,76.0277377 C24.7946862,76.4363154 25.3668655,76.950035 25.7277619,77.273915 C26.3962318,77.8741769 27.0277619,78.441236 27.5000958,78.9955367 C28.8245162,80.5500688 28.6310077,82.8779471 27.0679474,84.1951414 C26.3710386,84.7824911 25.518952,85.0696329 24.6718114,85.0697867" id="Fill-243" fill="#303030"></path>
                <g id="Group-247" transform="translate(44.976816, 66.559122)">
                    <mask id="mask-2" fill="white">
                        <use xlink:href="#path-1"></use>
                    </mask>
                    <g id="Clip-246"></g>
                    <path d="M1.67009274,17.936761 C1.66916538,17.9376833 1.66808346,17.9384519 1.66700155,17.9393742 C1.66808346,17.9386056 1.66916538,17.9375296 1.67009274,17.936761 M4.06978362,24.4409552 C3.01707883,24.4409552 1.97148377,23.9976377 1.2377898,23.1363657 C-0.0405718702,21.6356343 0.0954404946,19.4141275 1.5125966,18.0772576 C2.23377125,17.1498877 3.97194745,13.3819958 4.30965997,12.1653319 C4.28137558,10.9065498 2.56313756,7.94182517 1.0175425,6.11383193 C-0.300850077,4.55438091 -0.0986862442,2.22727111 1.46931994,0.915918074 C3.03732612,-0.395434966 5.37720247,-0.194066723 6.69574961,1.36507686 C6.74860896,1.42779307 8.00517774,2.92022382 9.21383308,4.90531503 C11.0770479,7.96534375 11.89034,10.5779046 11.700541,12.8921022 C11.6116692,13.9762627 10.9724111,15.7977998 9.80069552,18.3058336 C7.91290572,22.3468792 6.86159196,23.2327458 6.46576507,23.56631 C5.76885626,24.1535059 4.91692427,24.4408015 4.06978362,24.4409552" id="Fill-245" fill="#303030" mask="url(#mask-2)"></path>
                </g>
                <path d="M6.77451139,55.7083519 C4.25410954,55.5009887 1.70944184,54.6984364 0.526907064,52.2944685 C-0.075875007,51.0690428 -0.464437604,49.0653519 1.10681433,46.478308 C1.95534601,45.0808739 3.35225482,43.5492455 5.37760258,41.7954972 C6.9225794,40.4573975 9.26585606,40.6186458 10.6109874,42.1551931 C11.9562734,43.6918941 11.7944496,46.0220783 10.2493182,47.3600242 C9.8168607,47.7346306 9.44792716,48.0715766 9.13339856,48.3733215 C10.5599828,48.3196745 12.2881126,48.1321408 13.8170153,47.8339313 C15.8275253,47.4414938 17.7768298,48.745161 18.170802,50.7447016 C18.5649287,52.7439347 17.2547278,54.6824499 15.2442177,55.0744262 C15.1378808,55.0953316 12.6088236,55.5838418 9.87126564,55.7269516 C8.91500598,55.7770631 7.84669068,55.796585 6.77451139,55.7083519" id="Fill-248" fill="#303030"></path>
                <path d="M77.4833377,66.6122979 C76.9609266,72.8637827 71.2283145,77.4519043 64.7858107,76.774477 L13.1162589,72.1394719 C7.97220944,71.5986983 4.15428054,67.8300378 4.50451238,63.6388114 L8.08380141,20.8020986 C8.34037018,17.731156 11.5578354,15.4667624 15.341143,15.6948773 L72.1570626,19.8530547 C79.6213594,20.4699179 80.9655634,24.9442895 80.5374336,30.0674972 L77.4833377,66.6122979 Z" id="Fill-250" stroke="#979797" stroke-width="0.5" fill="#FFFFFF"></path>
                <path d="M18.2425266,60.5906498 C18.0204246,63.2614691 15.6633921,65.2474826 12.9779207,65.0264387 C10.2924493,64.8057022 8.29554049,62.4613762 8.5176425,59.7905569 C8.73974451,57.1198914 11.096777,55.1337242 13.7822484,55.3546144 C16.4677198,55.5756583 18.4646286,57.9198306 18.2425266,60.5906498" id="Fill-252" fill="#DBDBDB"></path>
                <path d="M59.654442,64.8891643 C59.4324945,67.5572167 57.077935,69.5412319 54.3952457,69.3204954 C51.7125564,69.0999126 49.7175023,66.7580461 49.9396043,64.0899937 C50.1613972,61.4219414 52.5159567,59.4379261 55.1988006,59.6586626 C57.8814899,59.8792454 59.8763894,62.221112 59.654442,64.8891643" id="Fill-254" fill="#DBDBDB"></path>
                <path d="M38.7538144,63.3418688 L29.8680339,62.5033468 C27.976071,62.3248823 26.5748345,60.6392303 26.7542781,58.7574363 C26.9338762,56.8757961 28.6287758,55.4822049 30.5207387,55.6606694 L39.4065192,56.4991914 C41.2986367,56.6776559 42.6997186,58.363308 42.520275,60.2451019 C42.3408314,62.1268958 40.6457773,63.5203333 38.7538144,63.3418688" id="Fill-256" fill="#DBDBDB"></path>
                <path d="M38.2236165,68.1990875 L29.4985778,67.3757835 C28.7644202,67.3064575 28.2208344,66.6522412 28.2903862,65.9220892 C28.3600925,65.1920909 29.0177432,64.6513173 29.7519009,64.7204896 L38.4769395,65.5439473 C39.2110972,65.6131196 39.7548375,66.2673358 39.6851312,66.9974879 C39.6154248,67.7276399 38.9577741,68.2682598 38.2236165,68.1990875" id="Fill-258" fill="#DBDBDB"></path>
                <path d="M62.529698,56.2793511 L14.4587552,52.3248478 C10.4380442,51.9942042 7.42042445,48.4519677 7.75303651,44.4530403 L9.3977042,24.6788325 C9.7301617,20.6800589 13.2919855,17.6790572 17.3125419,18.0097008 L65.3836393,21.9642042 C69.4043503,22.2948478 72.4218155,25.837238 72.089358,29.8360116 L70.4446903,49.6102194 C70.1122328,53.608993 66.550409,56.6099947 62.529698,56.2793511" id="Fill-260" fill="#494949"></path>
                <path d="M73.1522411,56.428147 C73.1522411,56.428147 62.3323029,61.8500253 58.2689335,51.3412162" id="Stroke-262" stroke="#303030" stroke-width="7.41885626" stroke-linecap="round" stroke-linejoin="round"></path>
                <path d="M2.05086925,53.7205143 C2.06524329,53.7306596 2.07776261,53.7395751 2.08858177,53.7469535 C2.07590789,53.7381916 2.06338857,53.7294298 2.05086925,53.7205143 M9.26524329,56.6455802 C7.35550604,56.4884822 4.9743623,56.0116545 2.58379043,54.3982491 C2.15086925,54.1061883 1.80759259,53.6993014 1.60326493,53.2204754 C1.11269306,52.0706781 -0.111727346,48.6715514 0.456433396,47.9332525 C1.70156477,46.3150818 3.94391408,45.8571612 5.62227575,47.0252508 C5.67544421,47.0622964 5.76029738,47.1243977 5.87312582,47.2106325 C7.680081,48.5930025 9.92722165,49.3989366 10.8904365,49.264896 C13.1516421,48.9499315 15.135877,46.8538572 16.402183,45.1509889 C17.620421,43.5129889 19.9432958,43.1671275 21.5902819,44.3788724 C23.2374226,45.5903099 23.5850269,47.9005109 22.3667889,49.5386646 C19.2961552,53.6676359 15.7811629,56.0339433 11.9196482,56.5719501 C11.1545787,56.6784754 10.257979,56.7273572 9.26524329,56.6455802" id="Fill-264" fill="#303030"></path>
                <path d="M59.1987682,18.9977951 C59.1639923,19.4152883 59.4993864,19.7834386 59.947609,19.8203305 L68.9874854,20.5638559 C70.9578099,20.7260265 74.7692473,22.6885214 75.7530186,26.2731836 C75.8684745,26.6934437 76.2281345,27.0021059 76.6647651,27.0380755 L77.2913493,27.0895704 L79.737099,27.1364538 C80.1854761,27.1734994 80.5769753,26.864991 80.6117512,26.4476515 L81.107269,20.4893035 C80.2435905,6.50988965 59.6321531,18.3890788 59.6321531,18.3890788 C59.3840851,18.5077478 59.2204065,18.7378609 59.1987682,18.9977951" id="Fill-266" fill="#3D3D3D"></path>
                <path d="M25.9561719,16.7289443 C25.9274238,17.0740372 25.7645181,17.210076 25.4142863,17.1811774 C25.4142863,17.1811774 18.2549354,16.5853733 18.062818,16.5609324 C10.9972847,15.6626149 8.31815028,19.9540642 8.34643467,19.6135828 L8.72804209,15.0265372 C8.88770206,13.1053919 10.2989849,11.4561706 12.1212415,10.7575304 C15.2336062,9.530875 25.7033126,16.1752584 25.7033126,16.1752584 C25.878583,16.3048412 25.9561719,16.7289443 25.9561719,16.7289443" id="Fill-268" fill="#3D3D3D"></path>
                <path d="M31.3763959,34.286423 C31.0380652,38.3545227 27.4478024,41.3796578 23.3573851,41.043173 C19.2668132,40.7066882 16.2252367,37.1360143 16.5635675,33.0677609 C16.9018983,28.9996612 20.492161,25.9746798 24.5825783,26.3110109 C28.6729956,26.6476494 31.7147267,30.2181697 31.3763959,34.286423 Z" id="Stroke-270" stroke="#999999" stroke-width="3.09119011" stroke-linecap="round" stroke-linejoin="round"></path>
                <path d="M61.979178,36.8994673 C61.6408472,40.9675669 58.0505845,43.9927021 53.9601672,43.6562173 C49.8695953,43.3197325 46.8280188,39.7490585 47.1663496,35.6809588 C47.5046803,31.6127055 51.0949431,28.587724 55.1853604,28.9242088 C59.2757777,29.2606936 62.3175088,32.8312139 61.979178,36.8994673 Z" id="Stroke-272" stroke="#999999" stroke-width="3.09119011" stroke-linecap="round" stroke-linejoin="round"></path>
                <path d="M26.2680991,34.0654717 C26.1731996,35.2077369 25.1651625,36.057019 24.0166308,35.9626372 C22.8682537,35.8682555 22.0143124,34.8655646 22.1092119,33.7232994 C22.204266,32.5813416 23.2123031,31.7319058 24.3606802,31.8264413 C25.5090574,31.9208231 26.3631532,32.9233602 26.2680991,34.0654717" id="Fill-274" fill="#7F7F7F"></path>
                <path d="M56.7163217,36.5249535 C56.6214221,37.6672187 55.613385,38.5165008 54.4648534,38.422119 C53.3164762,38.3275835 52.462535,37.3250464 52.5574345,36.1827812 C52.6524886,35.0406697 53.6605257,34.1912339 54.8089028,34.2859231 C55.9572799,34.3803048 56.8113758,35.3826883 56.7163217,36.5249535" id="Fill-276" fill="#7F7F7F"></path>
                <path d="M24.0047141,46.5269002 C23.7560279,49.518064 21.5765843,51.7804593 19.1370171,51.5797059 C16.6972953,51.3789526 14.921252,48.7912938 15.1700928,45.7999762 C15.4189336,42.8089661 17.5982227,40.5465708 20.0377899,40.7471705 C22.4775117,40.9479238 24.253555,43.5355826 24.0047141,46.5269002" id="Fill-278" fill="#303030"></path>
                <path d="M62.79915,49.7547878 C62.5504638,52.7461053 60.3710202,55.0083469 57.9312984,54.8075935 C55.4917312,54.6068401 53.7156879,52.0191814 53.9645287,49.0280175 C54.213215,46.0368536 56.3926585,43.7746121 58.8322258,43.9752118 C61.2719476,44.1759651 63.0478363,46.7634702 62.79915,49.7547878" id="Fill-280" fill="#303030"></path>
                <path d="M32.3029366,43.347973 L43.2394127,44.247674" id="Stroke-282" stroke="#999999" stroke-width="3.09119011" stroke-linecap="round" stroke-linejoin="round"></path>
            </g>
        </g>
    </g>
</svg>