<?xml version="1.0" encoding="UTF-8"?>
<svg width="120px" height="120px" viewBox="0 0 120 120" version="1.1" xmlns="http://www.w3.org/2000/svg" xmlns:xlink="http://www.w3.org/1999/xlink">
    <!-- Generator: Sketch 51.1 (57501) - http://www.bohemiancoding.com/sketch -->
    <title>Crab1</title>
    <desc>Created with Sketch.</desc>
    <defs>
        <polygon id="path-1" points="0 0.111611339 29.4914548 0.111611339 29.4914548 32.7739324 0 32.7739324"></polygon>
        <polygon id="path-3" points="0.552245291 0.611342001 89.7333461 0.611342001 89.7333461 63 0.552245291 63"></polygon>
    </defs>
    <g id="Crab1" stroke="none" stroke-width="1" fill="none" fill-rule="evenodd">
        <g id="Group" transform="translate(0.000000, 4.000000)">
            <g id="Group-3" transform="translate(0.000000, 27.000000)">
                <mask id="mask-2" fill="white">
                    <use xlink:href="#path-1"></use>
                </mask>
                <g id="Clip-2"></g>
                <path d="M28.7197895,25.5657439 C27.9792632,22.8436463 26.9387368,19.8382317 25.2634737,17.5499634 C24.2955789,16.2283537 22.8658421,15.1820122 21.2726842,14.5727195 C21.3161053,14.4358902 21.3555789,14.3055 21.3871579,14.1895976 C22.0874211,11.6325 22.1174211,9.25167073 20.9766316,6.74528049 C19.8295263,4.22359756 17.6600526,2.3997439 15.2561053,1.11435366 C12.6176842,-0.297402439 10.5982105,0.228182927 7.82715789,0.127573171 C11.1382105,4.04893902 13.3195263,9.71447561 15.4282105,14.556622 C15.2347895,14.6427439 15.0571579,14.740939 14.8929474,14.8479878 C12.7132105,12.7714024 10.9274211,10.2545488 8.77452632,8.2077439 C7.38821053,6.89015854 6.06505263,5.43654878 4.51373684,4.31615854 C2.63084211,2.95752439 2.13663158,3.23279268 1.07321053,5.3552561 C-3.09915789,13.6785 5.694,22.1248902 13.6684737,21.0898171 C14.2953158,23.3000122 15.5079474,25.4683537 16.5366316,26.634622 C17.5818947,27.8161829 21.5782105,31.0268415 24.8624211,32.2711829 C27.3034737,33.1975976 29.3505789,33.0350122 29.4863684,30.1414756 C29.4903158,30.0617927 29.4903158,29.9829146 29.4903158,29.9040366 C29.4934737,29.703622 29.4903158,29.498378 29.4776842,29.2979634 C29.3955789,28.0375244 29.0395263,26.7432805 28.7197895,25.5657439" id="Fill-1" fill="#F47833" mask="url(#mask-2)"></path>
            </g>
            <path d="M119.716747,12.9780693 C109.118347,18.2635637 98.8867121,25.2399362 90.0634253,33.3510295 C89.9781684,33.2181919 89.9033675,33.0837539 89.8116761,32.9517166 C89.7955899,32.92851 89.7786994,32.9077041 89.7634175,32.8844976 C96.0113019,23.7315097 100.66826,10.5269763 101.034221,0 C86.2083648,1.75969753 72.9999768,14.4616888 80.562909,28.7561303 C77.2957995,29.6371794 74.1742703,32.4947874 71.8675076,35.977372 C69.3130173,39.8456657 67.4429952,44.3317341 66.4826484,48.8674165 C65.5938852,53.0517996 65.7708336,57.3906263 68.3952989,59.1663284 C69.6017647,59.9809587 71.3310324,60.2546361 73.70214,59.7352892 C79.8486812,58.386908 85.6903888,54.0200733 89.0918181,48.7481828 C90.9312764,45.8953762 92.0581155,42.5856404 91.9294258,39.3143155 C98.5875086,42.4271956 104.469432,43.5843228 111.691336,37.3305546 C117.887745,31.9650376 120.993992,20.8194864 119.716747,12.9780693" id="Fill-4" fill="#F47833"></path>
            <path d="M30,56.1040936 C29.7934388,56.3185185 29.5757552,56.5204678 29.3533047,56.7068226 C28.0305188,57.851462 26.4098082,58.6194932 24.696145,59 C21.3911664,57.7945419 17.3695795,54.6842105 16.3177066,53.5395712 C14.3569645,51.4 11.715365,45.782846 13.7094747,43 C14.7526085,49.4592593 23.1223078,56.0315789 29.3405932,56.1204678 C29.5630437,56.1243665 29.7815219,56.1165692 30,56.1040936" id="Fill-6" fill="#E26727"></path>
            <path d="M89.1066059,48.6093032 C85.6628958,53.9462481 79.748574,58.3669689 73.5256294,59.731989 C71.1250483,60.2577445 69.3750996,59.98069 68.1536371,59.1568173 C68.00299,58.6448335 67.9598317,58.0761427 68.0388196,57.4507448 C68.0388196,57.8347326 75.312222,54.8778642 75.9400538,54.450941 C78.747789,52.5536846 81.055539,49.860099 82.6418117,46.882168 C84.0562653,44.2169359 85.0700793,41.103718 85.035064,38.0553082 C84.9919057,34.8708015 81.9985081,29.9097433 86.0488779,29 C87.3631716,29.7250403 88.6424501,30.8980665 89.8362262,32.6179108 C93.3434524,37.6786113 92.2140066,43.7908228 89.1066059,48.6093032" id="Fill-8" fill="#E26727"></path>
            <path d="M36.8671999,49.2313658 C38.3682004,51.1739411 38.9830302,53.498417 40.2542537,55.5551687 C42.3253833,58.9025084 47.6047641,55.8291922 45.5226554,52.4629543 C44.7643129,51.2361476 44.3071117,49.8809907 43.6922818,48.5825284 C43.0672571,47.2620182 42.0673743,46.045448 41.1812038,44.8989585 C40.1601471,43.5776609 37.9313889,43.8296366 36.8671999,44.8989585 C35.5810763,46.190334 35.8484959,47.9132179 36.8671999,49.2313658" id="Fill-10" fill="#F47833"></path>
            <path d="M58.8804365,43 L58.6644452,43 C57.3053615,43 55.9570773,43.8785564 55.5840769,45.1341958 C55.5500167,45.177224 55.5043263,45.2374634 55.4428518,45.3188257 C55.240983,45.6841737 55.0906198,46.066733 54.992593,46.4665036 C54.7824169,47.1760767 54.4451381,47.8183695 54.0771222,48.4637917 C53.3385981,49.7585476 53.1649743,51.1503124 52.4264502,52.420816 C50.4252076,55.864632 56.0069214,58.9368413 58.0081639,55.492243 C58.3927946,54.830392 59.0341226,54.0950019 59.1961161,53.3455299 C59.3714014,52.5319069 59.5292412,51.7620943 59.9471013,51.0290512 C60.5128324,50.0378393 61.0985011,48.8737325 61.4914391,47.7761237 C62.6685917,45.9877177 61.8037958,43 58.8804365,43" id="Fill-12" fill="#F47833"></path>
            <path d="M59.8430569,47.7350734 C61.4923747,47.0268669 61.4419038,44.2316451 59.2797653,44.0138559 C56.0279956,43.6871722 56.2893629,49.2603808 59.8430569,47.7350734" id="Fill-14" fill="#231F20"></path>
            <path d="M39.8426427,47.7351057 C41.4921109,47.0269052 41.4425367,44.2317066 39.2792997,44.0139193 C36.0281347,43.6864549 36.2895259,49.2604005 39.8426427,47.7351057" id="Fill-16" fill="#231F20"></path>
            <g id="Group-20" transform="translate(4.000000, 49.000000)">
                <mask id="mask-4" fill="white">
                    <use xlink:href="#path-3"></use>
                </mask>
                <g id="Clip-19"></g>
                <path d="M77.4950177,31.3795025 C77.4631593,30.9353127 77.4209469,30.4903253 77.3683805,30.0445405 C83.1331593,29.8611228 89.6641327,28.8212241 89.7326283,25.659262 C89.8274071,21.2524519 80.5120088,21.4781354 75.638469,22.8394139 C75.4194425,22.2309456 75.1836903,21.6264646 74.9296195,21.0267684 C80.5478496,18.6016671 87.6044867,14.5943886 86.2879381,11.3335405 C84.5436903,7.01205949 75.1741327,11.6094646 71.5972301,14.8527684 C67.098823,8.11336329 60.419708,2.81897089 52.8127168,1.28703418 C41.658292,-0.959434177 28.9874071,2.41624937 21.3445752,11.1070595 C20.1323628,12.4866797 18.9249292,14.0967684 17.7899735,15.8583759 C14.4496195,12.6102873 4.60776106,7.63807215 2.81572566,12.076781 C1.47369027,15.4014266 8.8409469,19.5067937 14.5077611,21.9143506 C14.3739558,22.2134013 14.2465221,22.5140468 14.119885,22.8162873 C9.10138938,21.6360342 0.68439823,21.6368316 0.77519469,25.8275278 C0.838115044,28.759819 6.46271681,29.8683 11.8778496,30.1601734 C11.6301504,31.5110848 11.4851947,32.8564139 11.4525398,34.1794139 C6.35121239,34.6259962 -0.405159292,36.7600215 0.665283186,40.4523 C1.49758407,43.324781 7.42563717,42.8726165 12.818469,41.7059203 C13.3019204,42.8016418 13.9167876,43.8471228 14.6925398,44.8192367 C14.7490885,44.8886165 14.8096195,44.9532114 14.8653717,45.0217937 C9.57846903,47.3001608 10.6409469,52.7955152 11.5608584,57.474262 C12.108823,60.2590215 12.1319204,62.1849076 15.6857257,61.8938316 C17.5143982,61.7439076 20.6667876,60.5158063 21.4959027,58.8554772 C19.9555487,56.8004013 17.9182035,54.6233127 17.0699735,52.2420722 C16.3332478,50.1742367 16.4965221,48.780262 17.0174071,47.3974519 C22.8220088,53.1224772 30.7029823,56.1680089 38.9559027,57.0675532 C47.4087345,57.9902241 56.2494425,56.6576544 63.6445752,53.6551861 C68.0306814,51.8712494 71.2611239,49.3257304 73.5047522,46.3105025 C76.0430708,49.8113886 73.8623628,53.8888443 71.6529823,57.3004139 C70.5490885,59.0022114 68.8996195,59.8435405 70.6805044,61.7120089 C71.8090885,62.8962494 75.3382035,63.1921101 76.9470531,62.8898696 C84.4345752,61.482338 80.8242212,45.8734899 75.4743982,43.0528443 C76.1147522,41.7138949 76.5966106,40.3135405 76.938292,38.8709203 C82.4633363,40.1197557 88.7585575,40.6995152 89.6179381,37.7321354 C90.7847522,33.7057177 82.6473186,31.5326165 77.4950177,31.3795025" id="Fill-18" fill="#F47833" mask="url(#mask-4)"></path>
            </g>
            <path d="M72.8829787,93.0467777 C60.5123541,103.282708 44.018188,102.87305 30.823173,96.7313337 C24.1183438,93.5779916 17.7203754,87.4260144 16.2711338,80.0726889 C15.5381657,85.0146351 16.2146904,89.8318684 19.2443447,93.59141 C25.1494279,100.920267 34.064291,104.698752 43.4617046,105.71461 C51.898787,106.627855 60.7230228,105.308898 68.1043768,102.3371 C79.2133742,97.8569072 82.9362477,88.542116 81.8065866,79 C80.4757964,84.2513605 77.8396553,89.1096386 72.8829787,93.0467777" id="Fill-21" fill="#E26727"></path>
            <path d="M46,56.6052262 C48.2667308,57.262029 51.1755399,56.7155691 53,55 C52.2000214,56.3714044 51.4434467,58.9451958 50.043297,59.8261874 C48.6872996,60.6791553 46.7663032,58.1736714 46.2589267,57.0597338 L46,56.6052262 Z" id="Fill-23" fill="#231F20"></path>
        </g>
    </g>
</svg>