<?xml version="1.0" encoding="UTF-8"?>
<svg width="480px" height="360px" viewBox="0 0 480 360" version="1.1" xmlns="http://www.w3.org/2000/svg" xmlns:xlink="http://www.w3.org/1999/xlink">
    <!-- Generator: Sketch 51.1 (57501) - http://www.bohemiancoding.com/sketch -->
    <title>Landscape1</title>
    <desc>Created with Sketch.</desc>
    <defs></defs>
    <g id="Landscape1" stroke="none" stroke-width="1" fill="none" fill-rule="evenodd">
        <g id="Group-73" transform="translate(-30.000000, 0.000000)">
            <g id="Group-3" fill="#88E6FC">
                <path d="M71.9058597,359.497118 L0,359.497118 L0,327.208869 L0,277.347672 L0,262.209313 L0,254.171175 L0,0.295343681 L508.802581,0.295343681 L508.802581,312.473614 L508.802581,327.208869 L508.802581,343.157428 L508.802581,359.497118 L474.839018,359.497118 C472.750607,359.700665 470.616919,359.804435 468.449273,359.804435 C466.281627,359.804435 464.147938,359.700665 462.059527,359.497118 L435.572929,359.497118 L276.004176,359.497118 C275.94192,359.664745 275.885324,359.832373 275.823068,360 C275.614227,359.832373 275.409913,359.664745 275.206166,359.497118 L76.014766,359.497118 L71.9058597,359.497118 Z" id="Fill-1"></path>
            </g>
            <path d="M345.040417,161.090541 L252.033499,161.090541 C255.014874,154.034621 262.038067,149.262426 270.215894,149.262426 C272.807734,149.262426 275.292213,149.800829 277.56157,150.714798 C280.09953,143.719543 286.88086,138.73502 294.830794,138.73502 C302.243521,138.73502 308.635317,143.079765 311.522501,149.333468 C313.16086,148.763933 314.933322,148.464998 316.773233,148.464998 C322.43984,148.464998 327.435539,151.369743 330.295583,155.742027 C331.826581,154.774576 333.625783,154.123224 335.573055,154.123224 C340.085029,154.123224 343.871814,157.058701 345.040417,161.090541" id="Fill-4" fill="#FFFDED"></path>
            <path d="M508.802661,312.473494 C503.2949,302.551942 492.618625,295.826488 480.345898,295.826488 C477.875388,295.826488 475.472727,296.098284 473.161863,296.617131 C473.08204,296.633095 473.002217,296.64906 472.922395,296.668616 C464.764523,298.55243 457.792018,303.477486 453.301996,310.16263 C450.005322,315.063738 448.045676,320.911144 447.929933,327.208749 C447.921951,327.412696 447.921951,327.612253 447.921951,327.815401 C447.921951,334.3409 449.901552,340.407419 453.301996,345.468173 C454.355654,347.040678 455.549002,348.513805 456.862084,349.874381 C458.286918,351.347109 459.84745,352.688528 461.531707,353.873494 C465.682483,356.791011 470.555654,358.775002 475.839911,359.496998 C477.312639,359.700545 478.817295,359.804315 480.345898,359.804315 C481.874501,359.804315 483.379157,359.700545 484.851885,359.496998 C495.196896,358.080545 503.981375,351.842408 508.802661,343.157308 L508.802661,312.473494 Z" id="Fill-6" fill="#266666"></path>
            <path d="M474.638741,312.361623 C474.638741,317.354927 474.131468,322.23169 473.162022,326.941224 C473.146058,327.033419 473.126102,327.120825 473.105747,327.209029 C471.405525,335.342953 468.336745,342.977987 464.141667,349.874262 C463.311512,351.239627 462.441446,352.572266 461.531468,353.873774 C460.16251,355.821446 458.706146,357.697277 457.161579,359.497277 L344.635636,359.497277 C344.591335,359.664905 344.551823,359.832133 344.507521,359.999761 C344.360248,359.832133 344.216568,359.664905 344.072488,359.497277 C336.257854,350.377144 330.666678,339.345659 328.12792,327.209029 C327.122554,322.415282 326.595326,317.450315 326.595326,312.361623 C326.595326,306.271157 327.350049,300.35271 328.778874,294.696878 C336.785082,262.895947 365.912355,239.33231 400.619228,239.33231 C421.23302,239.33231 439.879583,247.645836 453.302155,261.064018 C462.940337,270.698208 469.885304,282.963353 472.922155,296.668896 C473.005969,297.039672 473.085792,297.410847 473.162022,297.782421 C474.131468,302.491956 474.638741,307.368718 474.638741,312.361623" id="Fill-8" fill="#266666"></path>
            <path d="M203.604918,359.497118 L344.072767,359.497118 C344.216448,359.664745 344.360129,359.832373 344.5078,360 C344.551703,359.832373 344.591614,359.664745 344.635517,359.497118 C345.980528,353.993348 346.690949,348.242129 346.690949,342.331264 C346.690949,337.146785 346.144164,332.090022 345.098488,327.208869 C342.488288,314.960089 336.761016,303.844789 328.778754,294.697118 C315.204918,279.147672 295.105583,269.301552 272.671437,269.301552 C252.236847,269.301552 233.737956,277.471397 220.343721,290.678049 C216.153033,294.81286 212.461237,299.438581 209.368111,304.463415 C209.140616,304.83459 208.913122,305.209756 208.689619,305.584922 L208.689619,305.588914 C204.77831,312.206208 201.888732,319.48204 200.244386,327.208869 C199.19871,332.090022 198.651925,337.146785 198.651925,342.331264 C198.651925,348.242129 199.362346,353.993348 200.707357,359.497118 L203.604918,359.497118 Z" id="Fill-10" fill="#266666"></path>
            <polygon id="Fill-12" fill="#78BE7F" points="28 359.497118 508.802661 359.497118 508.802661 327.209268 28 327.209268"></polygon>
            <path d="M130.443392,345.129047 C130.443392,347.773969 128.298958,349.918404 125.654035,349.918404 L56.4246785,349.918404 C53.7797561,349.918404 51.6353215,347.773969 51.6353215,345.129047 C51.6353215,342.484124 53.7797561,340.33969 56.4246785,340.33969 L125.654035,340.33969 C128.298958,340.33969 130.443392,342.484124 130.443392,345.129047" id="Fill-15" fill="#467C47"></path>
            <path d="M508.802661,340.738803 L508.802661,350.317517 L428.265632,350.317517 C425.619512,350.317517 423.476275,348.174279 423.476275,345.52816 C423.476275,344.203104 424.011086,343.005765 424.877162,342.13969 C425.747228,341.273614 426.944568,340.738803 428.265632,340.738803 L508.802661,340.738803 Z" id="Fill-16" fill="#467C47"></path>
            <path d="M192.677206,113.920222 L89,113.920222 C92.3230155,106.054501 100.152018,100.734723 109.268559,100.734723 C112.157339,100.734723 114.926785,101.334989 117.456763,102.354324 C120.285676,94.5556541 127.845277,89 136.707184,89 C144.970022,89 152.095388,93.8428381 155.313836,100.814146 C157.140177,100.179157 159.116186,99.845898 161.166829,99.845898 C167.483991,99.845898 173.052417,103.083902 176.240931,107.957871 C177.947539,106.879468 179.953481,106.15388 182.123858,106.15388 C187.153481,106.15388 191.3749,109.42541 192.677206,113.920222" id="Fill-17" fill="#FFFDED"></path>
            <path d="M431.84867,56.0743104 L288.641308,56.0743104 C293.231508,45.2096541 304.045477,37.8615831 316.637494,37.8615831 C320.628226,37.8615831 324.453326,38.690541 327.947561,40.0982129 C331.855676,29.3265499 342.297672,21.6520044 354.538071,21.6520044 C365.951907,21.6520044 375.794035,28.3419379 380.239357,37.9713392 C382.762151,37.0936896 385.491286,36.6339113 388.324191,36.6339113 C397.05,36.6339113 404.741308,41.1063725 409.145521,47.838612 C411.502683,46.3495211 414.273725,45.3465499 417.271863,45.3465499 C424.219224,45.3465499 430.049867,49.8657073 431.84867,56.0743104" id="Fill-18" fill="#FFFDED"></path>
            <path d="M128.150847,251.008882 C128.150847,252.14835 128.096967,253.343694 127.978829,254.45682 C126.452621,269.303827 114.994882,281.33549 100.280381,283.902186 C98.3674324,284.241831 96.5071663,284.425024 94.4972328,284.425024 C92.7127982,284.425024 91.1019778,284.300501 89.3694279,284.03549 L89.3694279,280.090257 C91.1019778,280.397973 92.7127982,280.55682 94.4972328,280.55682 C96.5179424,280.55682 98.426102,280.355268 100.33945,279.973716 C111.914927,277.683206 121.043042,268.699171 123.558652,257.351987 C124.010049,255.326488 124.216789,253.288217 124.216789,251.008882 L128.150847,251.008882 Z" id="Fill-19" fill="#543749"></path>
            <path d="M96.6971042,329.882049 C95.538878,329.958279 94.3878359,329.981029 93.2539557,329.939122 C78.1379468,329.42706 65.2334235,318.948346 61.6561729,304.634155 C61.1852195,302.773091 60.8818936,300.837792 60.7477916,298.858989 C60.6284568,297.102093 60.6512062,295.368346 60.8052639,293.668523 L64.7943991,293.405109 C64.5968381,295.097747 64.5537339,296.843468 64.6726696,298.599965 C64.8075698,300.589144 65.1424257,302.512071 65.6564834,304.369942 C68.7452195,315.612958 78.3861951,324.032647 90.029122,325.751228 C92.1073038,326.06094 94.2573259,326.152337 96.4344878,326.009055 L96.6971042,329.882049 Z" id="Fill-20" fill="#543749"></path>
            <polygon id="Fill-21" fill="#543749" points="100.342882 253.247667 100.342882 345.999951 89.3692683 345.999951 89.3692683 245.265406"></polygon>
            <path d="M148.187761,214.039118 C148.187761,231.744971 139.424834,247.439694 125.936009,257.111002 C124.597384,258.066878 123.218448,258.964483 121.799601,259.802222 C115.344745,263.597787 108.02102,266.101424 100.187627,266.949539 C98.2291796,267.166257 96.2407982,267.274816 94.2224834,267.274816 C92.7437694,267.274816 91.2746341,267.215747 89.8258537,267.097211 C81.8523725,266.466213 74.3686031,264.119827 67.754102,260.43322 C66.3053215,259.634594 64.9064302,258.766922 63.5478492,257.830603 C49.4795122,248.228341 40.267184,232.198364 40.267184,214.039118 C40.267184,184.631268 64.4270953,160.79384 94.2224834,160.79384 C124.027849,160.79384 148.187761,184.631268 148.187761,214.039118" id="Fill-22" fill="#24A38B"></path>
            <path d="M86.1469091,258.800967 C84.5261109,253.365047 81.6165765,248.47192 77.7691264,244.468816 C76.8356009,243.498971 75.8454013,242.581011 74.8081064,241.722918 C68.5779512,236.554404 60.5438049,233.441322 51.7669091,233.441322 C50.8090377,233.441322 49.8591486,233.477242 48.9176408,233.552674 C48.8414102,233.557064 48.7659778,233.565047 48.6897472,233.573029 C48.254714,233.604958 47.8200798,233.652452 47.3886386,233.704736 C40.9309889,234.479016 35.0041596,236.949525 30.0795033,240.653295 L30.0795033,255.963273 C29.9717428,256.314492 29.9753348,256.677685 30.0795033,257.008949 L30.0795033,296.932231 C30.5105455,297.263494 30.9491707,297.578794 31.3961774,297.88212 C32.2981729,298.504337 33.2281064,299.079459 34.189969,299.610279 C37.8458448,301.645756 41.9008337,303.07059 46.2152461,303.733118 C46.2152461,303.733118 46.2152461,303.728727 46.2192373,303.733118 C47.0338271,303.856843 47.8556009,303.956621 48.6897472,304.020479 C48.7416319,304.028062 48.7935166,304.032452 48.8454013,304.036443 C49.8072639,304.112275 50.7850909,304.152186 51.7669091,304.152186 C52.9762217,304.152186 54.169969,304.09192 55.3469534,303.972585 C55.4152018,303.968594 55.483051,303.964603 55.5509002,303.95263 C55.6103681,303.948639 55.666643,303.944647 55.7261109,303.936665 C56.5403016,303.84886 57.3469091,303.733118 58.1451353,303.589437 C58.1491264,303.585446 58.1491264,303.585446 58.1527184,303.589437 C58.1567095,303.585446 58.1567095,303.585446 58.1610998,303.589437 C58.1646918,303.585446 58.1646918,303.585446 58.1686829,303.589437 C58.1726741,303.585446 58.1726741,303.585446 58.1770643,303.589437 L58.1810554,303.589437 C59.0028293,303.445756 59.789082,303.270146 60.5873082,303.07059 C60.8986164,302.994359 61.2059335,302.910945 61.5096585,302.827131 C62.4830953,302.555734 63.4373747,302.248417 64.3709002,301.896798 C66.3628736,301.162829 68.270235,300.252851 70.0782173,299.190812 C70.9921863,298.648417 71.8865987,298.069703 72.7486829,297.455069 L72.7522749,297.455069 C72.7766208,297.435113 72.8001685,297.419149 72.8241153,297.403184 C73.5026075,296.916266 74.1655344,296.405401 74.8081064,295.87059 C76.4919645,294.481676 78.0405233,292.933118 79.4338271,291.260834 C84.2467317,285.509614 87.2444701,278.229792 87.5713437,270.275468 C87.5912993,269.78855 87.6032727,269.297641 87.6032727,268.802741 C87.6032727,265.330457 87.0967982,261.973517 86.1469091,258.800967" id="Fill-23" fill="#24A38B"></path>
            <path d="M54.5620177,259.122891 C53.1727051,259.409055 51.7985588,258.521029 51.5088027,257.150475 L49.9271175,249.672293 C49.6373614,248.301738 50.5369623,246.945951 51.9262749,246.659787 C53.3159867,246.374022 54.6897339,247.261251 54.9798891,248.632204 L56.5611752,256.109987 C56.8509313,257.48094 55.9513304,258.836727 54.5620177,259.122891" id="Fill-24" fill="#78BE7F"></path>
            <path d="M75.9843326,252.256111 C75.1525809,253.391188 73.5309845,253.647818 72.3807406,252.827641 L66.107082,248.351588 C64.9568381,247.531011 64.6962173,245.930967 65.527969,244.796687 C66.3593215,243.66161 67.980918,243.404182 69.1311619,244.224758 L75.4052195,248.700812 C76.5554634,249.520989 76.8156851,251.121033 75.9843326,252.256111" id="Fill-25" fill="#78BE7F"></path>
            <path d="M36.2540621,252.383188 L34.2704701,257.180528 C33.8953038,258.090506 32.833663,258.533521 31.9117118,258.162346 L31.8438625,258.134408 C31.3250155,257.922878 30.9538404,257.499818 30.7981863,257.008909 C30.6944169,256.677645 30.6904257,256.314452 30.7981863,255.963233 C30.8141508,255.911348 30.8341064,255.859463 30.8540621,255.807579 L32.8376541,251.006248 C33.2128204,250.096271 34.2744612,249.657246 35.1964124,250.02443 L35.2642616,250.052368 C36.1862129,250.423543 36.6332195,251.473211 36.2540621,252.383188" id="Fill-26" fill="#78BE7F"></path>
            <path d="M52.5276585,279.110514 L52.4777694,279.061024 C51.7733348,278.366169 51.7733348,277.229095 52.4777694,276.534639 L56.1931131,272.868785 C56.8971486,272.173929 58.049388,272.173929 58.7534235,272.868785 L58.8037118,272.918275 C59.5077472,273.613131 59.5077472,274.749805 58.8037118,275.444262 L55.0883681,279.110514 C54.3839335,279.804971 53.231694,279.804971 52.5276585,279.110514" id="Fill-27" fill="#78BE7F"></path>
            <path d="M70.2005055,269.771907 L70.1889313,269.538426 C70.1426341,268.601707 70.8813925,267.798692 71.8304834,267.752794 L76.4506164,267.530887 C77.3997073,267.485388 78.213898,268.214169 78.259796,269.150488 L78.2713703,269.38357 C78.3176674,270.320288 77.5789091,271.123703 76.6298182,271.169202 L72.0100843,271.391508 C71.0609933,271.437007 70.2468027,270.708226 70.2005055,269.771907" id="Fill-28" fill="#78BE7F"></path>
            <path d="M66.8984834,288.136576 L66.7097029,287.99569 C65.9517871,287.430146 65.8005233,286.355734 66.3736497,285.608195 L69.1634501,281.967885 C69.7365765,281.219947 70.825357,281.071078 71.5832727,281.636222 L71.7720532,281.777109 C72.529969,282.342652 72.6812328,283.417064 72.1081064,284.165002 L69.318306,287.805313 C68.7451796,288.552851 67.6563991,288.70212 66.8984834,288.136576" id="Fill-29" fill="#78BE7F"></path>
            <path d="M40.3506386,286.782545 L40.4599956,286.575406 C40.8998182,285.744053 41.9486874,285.419574 42.7912151,285.85341 L46.8913038,287.965517 C47.7338315,288.399752 48.0630998,289.434652 47.6232772,290.265605 L47.5135211,290.472745 C47.0740976,291.303698 46.0248293,291.628576 45.1827007,291.194741 L41.0822129,289.082634 C40.2400843,288.648399 39.910816,287.613499 40.3506386,286.782545" id="Fill-30" fill="#78BE7F"></path>
            <path d="M94.6323326,189.367743 C92.8933969,189.725348 91.1736186,188.614616 90.8108248,186.898829 L88.8316231,177.539627 C88.4688293,175.82384 89.5947273,174.127211 91.333663,173.769206 C93.0725987,173.411202 94.7923769,174.521933 95.1555698,176.23812 L97.1347716,185.596922 C97.4975654,187.313109 96.3712683,189.009738 94.6323326,189.367743" id="Fill-31" fill="#88CEAA"></path>
            <path d="M126.923694,179.407676 C125.882807,180.82812 123.853317,181.149805 122.413716,180.122887 L114.561565,174.520936 C113.121965,173.494018 112.795889,171.491667 113.836377,170.070825 C114.877663,168.65078 116.907153,168.328696 118.346754,169.355614 L126.198905,174.957965 C127.638506,175.984882 127.964581,177.987233 126.923694,179.407676" id="Fill-32" fill="#88CEAA"></path>
            <path d="M65.1328869,218.194723 C64.3893392,219.786785 62.4608248,220.488825 60.8476098,219.755255 L52.0471663,215.753348 C50.4339512,215.019379 49.7223326,213.116807 50.4658803,211.524745 C51.2098271,209.933082 53.1379424,209.231042 54.7515565,209.964612 L63.5516009,213.966519 C65.1652151,214.700488 65.8764346,216.60306 65.1328869,218.194723" id="Fill-33" fill="#88CEAA"></path>
            <path d="M60.1221419,188.540701 L60.0399246,188.507574 C58.8856896,188.043406 58.3265322,186.73192 58.7974856,185.592851 L61.2803681,179.585002 C61.7513215,178.446333 63.0803681,177.894359 64.2346031,178.358927 L64.3168204,178.392053 C65.4706563,178.856222 66.0298137,180.167707 65.5592594,181.306377 L63.0759778,187.314625 C62.6054235,188.453295 61.2759778,189.004869 60.1221419,188.540701" id="Fill-34" fill="#88CEAA"></path>
            <path d="M92.8361641,221.61133 L92.7735033,221.549468 C91.8922616,220.6798 91.8922616,219.257361 92.7735033,218.387694 L97.4235698,213.79949 C98.3048115,212.929823 99.7468071,212.929823 100.628049,213.79949 L100.691109,213.861353 C101.57235,214.73102 101.57235,216.153459 100.691109,217.023126 L96.040643,221.61133 C95.1594013,222.480998 93.7174058,222.480998 92.8361641,221.61133" id="Fill-35" fill="#88CEAA"></path>
            <path d="M120.771725,207.880523 L120.757357,207.588373 C120.699486,206.416177 121.624231,205.410812 122.811991,205.353738 L128.594341,205.075956 C129.782102,205.018483 130.801038,205.930856 130.858909,207.103051 L130.873676,207.394803 C130.931548,208.566998 130.006803,209.572364 128.819042,209.629437 L123.036692,209.90722 C121.848931,209.964692 120.829596,209.052718 120.771725,207.880523" id="Fill-36" fill="#88CEAA"></path>
            <path d="M119.935503,237.416049 L119.699228,237.24004 C118.750537,236.532013 118.561357,235.187401 119.278563,234.251082 L122.770404,229.695206 C123.487211,228.759286 124.850182,228.572501 125.798874,229.280129 L126.035548,229.456537 C126.98384,230.164164 127.17302,231.508776 126.455814,232.445095 L122.964373,237.000971 C122.247166,237.93729 120.884195,238.123676 119.935503,237.416049" id="Fill-37" fill="#88CEAA"></path>
            <path d="M102.609166,256.790594 L102.372891,256.614585 C101.4242,255.906559 101.23502,254.561947 101.952226,253.626027 L105.443667,249.069752 C106.160874,248.134231 107.523845,247.947446 108.472537,248.654674 L108.708812,248.831481 C109.657503,249.53871 109.846683,250.883721 109.129477,251.819641 L105.638035,256.375916 C104.920829,257.311836 103.557459,257.498222 102.609166,256.790594" id="Fill-38" fill="#88CEAA"></path>
            <path d="M73.9490155,235.135596 L74.0863104,234.876572 C74.6366874,233.836084 75.9493703,233.429787 77.0038271,233.97298 L82.1356231,236.616306 C83.1896807,237.159499 83.6019645,238.454621 83.0515876,239.495109 L82.9142927,239.754133 C82.3639157,240.794222 81.0508337,241.200918 79.9967761,240.658124 L74.86498,238.014399 C73.8109224,237.471206 73.3986386,236.175685 73.9490155,235.135596" id="Fill-39" fill="#88CEAA"></path>
            <path d="M72.689694,202.676448 L72.8269889,202.417424 C73.3773659,201.376936 74.6900488,200.970639 75.7445055,201.513432 L80.8763016,204.157157 C81.9303592,204.699951 82.342643,205.995472 81.7922661,207.035561 L81.6549712,207.294585 C81.1045942,208.335073 79.7915122,208.74137 78.7374545,208.198576 L73.6056585,205.554851 C72.5516009,205.012058 72.1393171,203.716137 72.689694,202.676448" id="Fill-40" fill="#88CEAA"></path>
            <path d="M461.848004,225.626647 C460.152572,225.738399 458.467517,225.771525 456.808004,225.710062 C434.682373,224.960927 415.793149,209.623011 410.557184,188.670373 C409.867916,185.946825 409.423304,183.113122 409.227339,180.217157 C409.053326,177.646071 409.086053,175.108111 409.311552,172.619641 L415.150976,172.234098 C414.861619,174.711392 414.79816,177.266914 414.972572,179.838 C415.170133,182.74953 415.660244,185.564475 416.412173,188.28443 C420.933725,204.74106 435.045565,217.064874 452.087694,219.580882 C455.130133,220.033477 458.27714,220.167978 461.463659,219.957645 L461.848004,225.626647 Z" id="Fill-41" fill="#543749"></path>
            <polygon id="Fill-42" fill="#543749" points="453.301197 346.281286 473.161463 346.281286 473.161463 144.267805 453.301197 144.267805"></polygon>
            <path d="M510,151.144124 L510,160.966297 C502.843902,165.005322 494.933481,167.890909 486.540133,169.355654 C482.381375,170.090022 478.34235,170.489135 473.976053,170.489135 C470.096674,170.489135 466.600443,170.217738 462.836807,169.643016 L462.836807,161.074058 C466.600443,161.740576 470.096674,162.087805 473.976053,162.087805 C478.366297,162.087805 482.509091,161.64878 486.667849,160.818625 C495.168958,159.134368 503.063415,155.7898 510,151.144124" id="Fill-43" fill="#543749"></path>
            <path d="M508.802661,37.3050998 L508.802661,125.086031 C506.036807,128.219069 502.975211,131.092683 499.66337,133.666962 C498.968514,134.205765 498.266475,134.732594 497.552062,135.243459 C495.875388,136.444789 494.143237,137.570288 492.363592,138.619956 C484.265188,143.385366 475.077605,146.526386 465.24745,147.588027 C462.788914,147.859424 460.294457,147.999113 457.76408,147.999113 C455.908204,147.999113 454.064701,147.923282 452.248337,147.77561 C442.242572,146.981375 432.855432,144.039911 424.55388,139.414191 C422.737916,138.412417 420.981818,137.322838 419.277206,136.149446 C401.624834,124.100222 390.066519,103.988914 390.066519,81.2035477 C390.066519,44.3095344 420.379157,14.4 457.76408,14.4 C478.126829,14.4 496.389845,23.2682927 508.802661,37.3050998" id="Fill-44" fill="#94CE83"></path>
            <path d="M508.802661,81.5029623 L508.802661,145.979681 C505.086519,142.439548 501.981818,138.280789 499.66337,133.667042 C496.637694,127.664381 494.941463,120.903406 494.941463,113.743317 C494.941463,101.08345 500.253659,89.6528514 508.802661,81.5029623" id="Fill-45" fill="#94CE83"></path>
            <path d="M452.078714,154.385721 C452.078714,168.099246 445.291796,180.255033 434.844213,187.745588 C433.807317,188.485942 432.73969,189.181197 431.640532,189.830155 C426.641242,192.770022 420.968647,194.709313 414.901729,195.366253 C413.384302,195.534279 411.844523,195.618093 410.281197,195.618093 C409.135743,195.618093 407.998271,195.572195 406.875965,195.480798 C400.700887,194.991885 394.904169,193.174723 389.780754,190.31867 C388.658847,189.700044 387.575654,189.028337 386.522794,188.302749 C375.626608,180.866075 368.491264,168.450466 368.491264,154.385721 C368.491264,131.608736 387.20408,113.145765 410.281197,113.145765 C433.365898,113.145765 452.078714,131.608736 452.078714,154.385721" id="Fill-46" fill="#24A38B"></path>
            <path d="M414.039406,143.080962 C412.468896,143.404244 410.915947,142.400874 410.588674,140.851517 L408.801047,132.399499 C408.473375,130.849743 409.490315,129.317548 411.060426,128.994266 C412.631335,128.670984 414.183885,129.674355 414.511956,131.223712 L416.299184,139.675729 C416.626856,141.225486 415.610315,142.757681 414.039406,143.080962" id="Fill-47" fill="#78BE7F"></path>
            <path d="M438.253197,135.31969 C437.313286,136.602439 435.48016,136.892993 434.180248,135.965455 L427.088807,130.906297 C425.788896,129.979157 425.493951,128.170776 426.434262,126.888027 C427.374173,125.605277 429.2069,125.314723 430.507211,126.241863 L437.598253,131.30102 C438.898563,132.228559 439.19271,134.03694 438.253197,135.31969" id="Fill-48" fill="#78BE7F"></path>
            <path d="M393.753645,163.101313 C393.081938,164.538918 391.340608,165.173109 389.883845,164.510581 L381.936705,160.896213 C380.479144,160.233685 379.836971,158.515503 380.508279,157.077898 C381.179987,155.640293 382.921317,155.006102 384.378479,155.66863 L392.325619,159.282998 C393.78278,159.945525 394.425353,161.663707 393.753645,163.101313" id="Fill-49" fill="#78BE7F"></path>
            <path d="M388.437698,141.994337 L388.363064,141.964404 C387.321379,141.545335 386.816501,140.360767 387.241157,139.332652 L389.483774,133.90631 C389.909228,132.878195 391.109361,132.380102 392.151446,132.799171 L392.225681,132.829104 C393.268164,133.248572 393.772643,134.432741 393.347987,135.461255 L391.10537,140.887197 C390.680315,141.915313 389.479783,142.413805 388.437698,141.994337" id="Fill-50" fill="#78BE7F"></path>
            <path d="M411.740235,165.672758 L411.683561,165.616882 C410.887729,164.831827 410.887729,163.546683 411.683561,162.761627 L415.883029,158.618035 C416.67886,157.832581 417.981565,157.832581 418.776998,158.618035 L418.833672,158.673911 C419.629902,159.458967 419.629902,160.744111 418.833672,161.529166 L414.634204,165.672758 C413.838373,166.457814 412.536067,166.457814 411.740235,165.672758" id="Fill-51" fill="#78BE7F"></path>
            <path d="M431.715366,155.117295 L431.702594,154.853481 C431.65031,153.795033 432.485255,152.887051 433.557672,152.835565 L438.779667,152.584523 C439.852882,152.533038 440.772838,153.356807 440.825122,154.415255 L440.837894,154.67867 C440.890576,155.737118 440.055233,156.645499 438.982816,156.696984 L433.76082,156.948027 C432.688404,156.999512 431.768049,156.175743 431.715366,155.117295" id="Fill-52" fill="#78BE7F"></path>
            <path d="M427.983419,175.875086 L427.769894,175.71584 C426.912998,175.07686 426.742576,173.862359 427.390337,173.017038 L430.54333,168.902581 C431.191091,168.057259 432.421956,167.888834 433.278851,168.527814 L433.492377,168.68706 C434.348475,169.32604 434.519694,170.540541 433.871933,171.385863 L430.71894,175.500319 C430.07078,176.345641 428.839916,176.514466 427.983419,175.875086" id="Fill-53" fill="#78BE7F"></path>
            <path d="M397.976661,174.344488 L398.100785,174.110608 C398.597681,173.171095 399.783047,172.803911 400.734931,173.294421 L405.369432,175.681916 C406.321716,176.172426 406.694089,177.341827 406.196794,178.281339 L406.073069,178.51522 C405.575774,179.454732 404.390009,179.821916 403.438523,179.331406 L398.803623,176.943911 C397.852137,176.4538 397.479366,175.284 397.976661,174.344488" id="Fill-54" fill="#78BE7F"></path>
            <path d="M459.330958,55.2150998 C457.365326,55.6198004 455.421246,54.3641907 455.011357,52.4245011 L452.774328,41.8460089 C452.36404,39.9067184 453.636412,37.98898 455.602443,37.5842794 C457.568075,37.1795787 459.511756,38.4351885 459.921645,40.3744789 L462.159073,50.9529712 C462.568962,52.8926608 461.29659,54.8103991 459.330958,55.2150998" id="Fill-55" fill="#24A38B"></path>
            <path d="M495.82953,43.9573171 C494.652945,45.562949 492.359242,45.926541 490.732058,44.7659202 L481.856182,38.4339911 C480.229397,37.2729712 479.860616,35.01 481.037202,33.4043681 C482.213787,31.7987361 484.507889,31.4351441 486.134674,32.595765 L495.010151,38.927694 C496.636936,40.088714 497.005716,42.3520843 495.82953,43.9573171" id="Fill-56" fill="#24A38B"></path>
            <path d="M425.987854,87.7981729 C425.147322,89.5973747 422.967765,90.3912106 421.143818,89.5618537 L411.197122,85.038306 C409.373574,84.208949 408.569361,82.0585277 409.409894,80.2593259 C410.250426,78.4601242 412.429982,77.6662882 414.253929,78.4956452 L424.200226,83.0191929 C426.024173,83.8485499 426.827987,85.9989712 425.987854,87.7981729" id="Fill-57" fill="#24A38B"></path>
            <path d="M420.32388,54.2804568 L420.231286,54.2429401 C418.926585,53.7181064 418.294789,52.2358004 418.826807,50.9486608 L421.63337,44.1577517 C422.165388,42.870612 423.668049,42.2471973 424.971951,42.772031 L425.065344,42.8091486 C426.369246,43.3339823 427.001441,44.8166874 426.469424,46.1034279 L423.66286,52.8947361 C423.130843,54.1814767 421.628581,54.8052905 420.32388,54.2804568" id="Fill-58" fill="#24A38B"></path>
            <path d="M457.30071,91.6596718 L457.229667,91.5898271 C456.233481,90.6068115 456.233481,88.9987849 457.229667,88.0161685 L462.485588,82.8300931 C463.481774,81.8474767 465.111752,81.8474767 466.107539,82.8300931 L466.178581,82.8999379 C467.174767,83.8829534 467.174767,85.49098 466.178581,86.4739956 L460.922661,91.6596718 C459.926475,92.6426874 458.296497,92.6426874 457.30071,91.6596718" id="Fill-59" fill="#24A38B"></path>
            <path d="M488.875863,76.1398803 L488.859499,75.8098137 C488.794443,74.4851574 489.839322,73.3484834 491.181539,73.2838271 L497.717415,72.9701242 C499.06043,72.9054678 500.211871,73.9363769 500.277326,75.2610333 L500.29369,75.5910998 C500.359144,76.9157561 499.314266,78.0524302 497.97165,78.1170865 L491.435774,78.4311885 C490.093557,78.4954457 488.941317,77.4645366 488.875863,76.1398803" id="Fill-60" fill="#24A38B"></path>
            <path d="M487.930683,109.523694 L487.663676,109.324537 C486.591659,108.524714 486.377335,107.004492 487.188333,105.946843 L491.134763,100.797086 C491.945761,99.7390377 493.485938,99.5279069 494.557956,100.327729 L494.824962,100.527286 C495.897379,101.327109 496.111304,102.846931 495.300705,103.90498 L491.353876,109.054736 C490.543277,110.112785 489.0031,110.323517 487.930683,109.523694" id="Fill-61" fill="#24A38B"></path>
            <path d="M468.346843,131.42271 L468.079437,131.223552 C467.007818,130.423729 466.793494,128.903508 467.604492,127.845858 L471.550523,122.696102 C472.361521,121.638053 473.902098,121.427322 474.974115,122.226745 L475.241122,122.426302 C476.313539,123.226124 476.527463,124.745947 475.716865,125.803996 L471.770035,130.953752 C470.959437,132.0118 469.419259,132.222532 468.346843,131.42271" id="Fill-62" fill="#24A38B"></path>
            <path d="M435.95243,106.946222 L436.107685,106.653273 C436.729503,105.477486 438.213805,105.017707 439.405157,105.631942 L445.205867,108.620102 C446.39722,109.233539 446.862984,110.697885 446.240767,111.873672 L446.085911,112.166621 C445.463694,113.342009 443.979792,113.801787 442.788439,113.187951 L436.988129,110.199792 C435.796377,109.585956 435.330213,108.122009 435.95243,106.946222" id="Fill-63" fill="#24A38B"></path>
            <path d="M434.529432,70.2578315 L434.684288,69.9648825 C435.306506,68.7890953 436.790408,68.3293171 437.981761,68.9435521 L443.78247,71.9313126 C444.973823,72.5451486 445.439588,74.0094945 444.81737,75.1852816 L444.662914,75.4782306 C444.040297,76.6536186 442.556395,77.1133969 441.365042,76.499561 L435.564732,73.5114013 C434.37298,72.8975654 433.906816,71.4332195 434.529432,70.2578315" id="Fill-64" fill="#24A38B"></path>
        </g>
    </g>
</svg>