<?xml version="1.0" encoding="UTF-8"?>
<svg width="120px" height="120px" viewBox="0 0 120 120" version="1.1" xmlns="http://www.w3.org/2000/svg" xmlns:xlink="http://www.w3.org/1999/xlink">
    <!-- Generator: Sketch 51.1 (57501) - http://www.bohemiancoding.com/sketch -->
    <title>Warehouse</title>
    <desc>Created with Sketch.</desc>
    <defs></defs>
    <g id="Warehouse" stroke="none" stroke-width="1" fill="none" fill-rule="evenodd">
        <g id="Page-1" transform="translate(0.000000, 21.000000)">
            <polygon id="Fill-1" fill="#91CEBE" points="59.7981985 0.00018372093 -0.00027480916 21.5488116 -0.00027480916 78.7806372 119.595756 78.7806372 119.595756 21.5488116"></polygon>
            <polygon id="Fill-2" fill="#81B1A3" points="59.7981985 0.00018372093 59.7981985 78.7806372 119.595756 78.7806372 119.595756 21.5488116"></polygon>
            <polygon id="Fill-3" fill="#565759" points="6.76305344 78.7806372 112.832061 78.7806372 112.832061 23.9133 6.76305344 23.9133"></polygon>
            <polygon id="Fill-4" fill="#444445" points="59.7981985 23.9187198 59.7981985 78.7805453 112.831786 78.7805453 112.831786 23.9141267"></polygon>
            <polygon id="Fill-5" fill="#D8BD76" points="9.42778626 78.7806372 15.5587786 78.7806372 15.5587786 74.4236953 9.42778626 74.4236953"></polygon>
            <polygon id="Fill-6" fill="#C4AA68" points="35.640916 78.7806372 41.7728244 78.7806372 41.7728244 74.4236953 35.640916 74.4236953"></polygon>
            <polygon id="Fill-7" fill="#E7D691" points="9.42778626 76.281114 41.7728244 76.281114 41.7728244 74.4236953 9.42778626 74.4236953"></polygon>
            <polygon id="Fill-8" fill="#D8BD76" points="25.6012214 76.281114 41.7728244 76.281114 41.7728244 74.4236953 25.6012214 74.4236953"></polygon>
            <polygon id="Fill-9" fill="#D8BD76" points="10.0680916 73.9744977 25.0974046 73.9744977 25.0974046 58.9038698 10.0680916 58.9038698"></polygon>
            <polygon id="Fill-10" fill="#C4AA68" points="17.5832061 73.9744977 25.0974046 73.9744977 25.0974046 58.9038698 17.5832061 58.9038698"></polygon>
            <polygon id="Fill-11" fill="#E7D691" points="9.69709924 61.3372535 25.4674809 61.3372535 25.4674809 58.6668698 9.69709924 58.6668698"></polygon>
            <polygon id="Fill-12" fill="#D8BD76" points="17.5832061 61.3372535 25.4674809 61.3372535 25.4674809 58.6668698 17.5832061 58.6668698"></polygon>
            <polygon id="Fill-13" fill="#D8BD76" points="26.1032061 73.9744977 41.1325191 73.9744977 41.1325191 58.9038698 26.1032061 58.9038698"></polygon>
            <polygon id="Fill-14" fill="#C4AA68" points="33.6183206 73.9744977 41.1325191 73.9744977 41.1325191 58.9038698 33.6183206 58.9038698"></polygon>
            <polygon id="Fill-15" fill="#E7D691" points="25.7322137 61.3372535 41.5025954 61.3372535 41.5025954 58.6668698 25.7322137 58.6668698"></polygon>
            <polygon id="Fill-16" fill="#D8BD76" points="33.6183206 61.3372535 41.5025954 61.3372535 41.5025954 58.6668698 33.6183206 58.6668698"></polygon>
            <polygon id="Fill-17" fill="#D8BD76" points="43.5975573 78.7806372 49.7294656 78.7806372 49.7294656 74.4236953 43.5975573 74.4236953"></polygon>
            <polygon id="Fill-18" fill="#C4AA68" points="69.8116031 78.7806372 75.9425954 78.7806372 75.9425954 74.4236953 69.8116031 74.4236953"></polygon>
            <polygon id="Fill-19" fill="#E7D691" points="43.5975573 76.281114 75.9425954 76.281114 75.9425954 74.4236953 43.5975573 74.4236953"></polygon>
            <polygon id="Fill-20" fill="#D8BD76" points="59.7709924 76.281114 75.9425954 76.281114 75.9425954 74.4236953 59.7709924 74.4236953"></polygon>
            <polygon id="Fill-21" fill="#D8BD76" points="44.2387786 73.9744977 59.2671756 73.9744977 59.2671756 58.9038698 44.2387786 58.9038698"></polygon>
            <polygon id="Fill-22" fill="#C4AA68" points="51.7538931 73.9744977 59.2680916 73.9744977 59.2680916 58.9038698 51.7538931 58.9038698"></polygon>
            <polygon id="Fill-23" fill="#E7D691" points="43.8677863 61.3372535 59.6381679 61.3372535 59.6381679 58.6668698 43.8677863 58.6668698"></polygon>
            <polygon id="Fill-24" fill="#D8BD76" points="51.7538931 61.3372535 59.6381679 61.3372535 59.6381679 58.6668698 51.7538931 58.6668698"></polygon>
            <polygon id="Fill-25" fill="#D8BD76" points="60.2729771 73.9744977 75.3022901 73.9744977 75.3022901 58.9038698 60.2729771 58.9038698"></polygon>
            <polygon id="Fill-26" fill="#C4AA68" points="67.7880916 73.9744977 75.3022901 73.9744977 75.3022901 58.9038698 67.7880916 58.9038698"></polygon>
            <polygon id="Fill-27" fill="#E7D691" points="59.9029008 61.3372535 75.6732824 61.3372535 75.6732824 58.6668698 59.9029008 58.6668698"></polygon>
            <polygon id="Fill-28" fill="#D8BD76" points="67.7880916 61.3372535 75.6723664 61.3372535 75.6723664 58.6668698 67.7880916 58.6668698"></polygon>
            <polygon id="Fill-29" fill="#D8BD76" points="10.0680916 58.1487767 25.0974046 58.1487767 25.0974046 43.0781488 10.0680916 43.0781488"></polygon>
            <polygon id="Fill-30" fill="#C4AA68" points="17.5832061 58.1487767 25.0974046 58.1487767 25.0974046 43.0781488 17.5832061 43.0781488"></polygon>
            <polygon id="Fill-31" fill="#E7D691" points="9.69709924 45.5115326 25.4674809 45.5115326 25.4674809 42.8420674 9.69709924 42.8420674"></polygon>
            <polygon id="Fill-32" fill="#D8BD76" points="17.5832061 45.5115326 25.4674809 45.5115326 25.4674809 42.8420674 17.5832061 42.8420674"></polygon>
            <polygon id="Fill-33" fill="#D8BD76" points="26.1032061 58.1487767 41.1325191 58.1487767 41.1325191 43.0781488 26.1032061 43.0781488"></polygon>
            <polygon id="Fill-34" fill="#C4AA68" points="33.6183206 58.1487767 41.1325191 58.1487767 41.1325191 43.0781488 33.6183206 43.0781488"></polygon>
            <polygon id="Fill-35" fill="#E7D691" points="25.7322137 45.5115326 41.5025954 45.5115326 41.5025954 42.8420674 25.7322137 42.8420674"></polygon>
            <polygon id="Fill-36" fill="#D8BD76" points="33.6183206 45.5115326 41.5025954 45.5115326 41.5025954 42.8420674 33.6183206 42.8420674"></polygon>
            <polygon id="Fill-37" fill="#D8BD76" points="10.0680916 42.1935326 25.0974046 42.1935326 25.0974046 27.121986 10.0680916 27.121986"></polygon>
            <polygon id="Fill-38" fill="#C4AA68" points="17.5832061 42.1935326 25.0974046 42.1935326 25.0974046 27.121986 17.5832061 27.121986"></polygon>
            <polygon id="Fill-39" fill="#E7D691" points="9.69709924 29.5553698 25.4674809 29.5553698 25.4674809 26.8859047 9.69709924 26.8859047"></polygon>
            <polygon id="Fill-40" fill="#D8BD76" points="17.5832061 29.5544512 25.4674809 29.5544512 25.4674809 26.8859047 17.5832061 26.8859047"></polygon>
            <polygon id="Fill-41" fill="#D8BD76" points="43.9685496 58.1487767 58.9978626 58.1487767 58.9978626 43.0781488 43.9685496 43.0781488"></polygon>
            <polygon id="Fill-42" fill="#C4AA68" points="51.4836641 58.1487767 58.9978626 58.1487767 58.9978626 43.0781488 51.4836641 43.0781488"></polygon>
            <polygon id="Fill-43" fill="#E7D691" points="43.5975573 45.5115326 59.368855 45.5115326 59.368855 42.8420674 43.5975573 42.8420674"></polygon>
            <polygon id="Fill-44" fill="#D8BD76" points="51.4836641 45.5115326 59.368855 45.5115326 59.368855 42.8420674 51.4836641 42.8420674"></polygon>
            <polygon id="Fill-45" fill="#DFE9F2" points="10.6845802 33.2738814 15.8042748 33.2738814 15.8042748 30.9443 10.6845802 30.9443"></polygon>
            <polygon id="Fill-46" fill="#818286" points="14.8845802 32.9753349 15.4287023 32.9753349 15.4287023 31.2437651 14.8845802 31.2437651"></polygon>
            <polygon id="Fill-47" fill="#818286" points="13.9135878 32.9753349 14.4577099 32.9753349 14.4577099 31.2437651 13.9135878 31.2437651"></polygon>
            <polygon id="Fill-48" fill="#818286" points="12.9105344 32.9753349 13.4546565 32.9753349 13.4546565 31.2437651 12.9105344 31.2437651"></polygon>
            <polygon id="Fill-49" fill="#818286" points="11.9908397 32.9753349 12.5349618 32.9753349 12.5349618 31.2437651 11.9908397 31.2437651"></polygon>
            <polygon id="Fill-50" fill="#818286" points="11.0592366 32.9753349 11.6033588 32.9753349 11.6033588 31.2437651 11.0592366 31.2437651"></polygon>
            <polygon id="Fill-51" fill="#DFE9F2" points="10.9447328 49.425707 16.0644275 49.425707 16.0644275 47.0970442 10.9447328 47.0970442"></polygon>
            <polygon id="Fill-52" fill="#818286" points="15.1456489 49.1289977 15.690687 49.1289977 15.690687 47.3955907 15.1456489 47.3955907"></polygon>
            <polygon id="Fill-53" fill="#818286" points="14.1746565 49.1289977 14.7187786 49.1289977 14.7187786 47.3955907 14.1746565 47.3955907"></polygon>
            <polygon id="Fill-54" fill="#818286" points="13.170687 49.1289977 13.7148092 49.1289977 13.7148092 47.3955907 13.170687 47.3955907"></polygon>
            <polygon id="Fill-55" fill="#818286" points="12.2519084 49.1289977 12.7960305 49.1289977 12.7960305 47.3955907 12.2519084 47.3955907"></polygon>
            <polygon id="Fill-56" fill="#818286" points="11.3193893 49.1289977 11.8635115 49.1289977 11.8635115 47.3955907 11.3193893 47.3955907"></polygon>
            <polygon id="Fill-57" fill="#DFE9F2" points="26.9212214 49.425707 32.040916 49.425707 32.040916 47.0970442 26.9212214 47.0970442"></polygon>
            <polygon id="Fill-58" fill="#818286" points="31.1221374 49.1289977 31.6662595 49.1289977 31.6662595 47.3955907 31.1221374 47.3955907"></polygon>
            <polygon id="Fill-59" fill="#818286" points="30.1520611 49.1289977 30.6952672 49.1289977 30.6952672 47.3955907 30.1520611 47.3955907"></polygon>
            <polygon id="Fill-60" fill="#818286" points="29.1480916 49.1289977 29.6922137 49.1289977 29.6922137 47.3955907 29.1480916 47.3955907"></polygon>
            <polygon id="Fill-61" fill="#818286" points="28.2283969 49.1289977 28.7725191 49.1289977 28.7725191 47.3955907 28.2283969 47.3955907"></polygon>
            <polygon id="Fill-62" fill="#818286" points="27.2958779 49.1289977 27.84 49.1289977 27.84 47.3955907 27.2958779 47.3955907"></polygon>
            <polygon id="Fill-63" fill="#DFE9F2" points="44.9203053 49.425707 50.039084 49.425707 50.039084 47.0970442 44.9203053 47.0970442"></polygon>
            <polygon id="Fill-64" fill="#818286" points="49.1203053 49.1289977 49.6644275 49.1289977 49.6644275 47.3955907 49.1203053 47.3955907"></polygon>
            <polygon id="Fill-65" fill="#818286" points="48.149313 49.1289977 48.6943511 49.1289977 48.6943511 47.3955907 48.149313 47.3955907"></polygon>
            <polygon id="Fill-66" fill="#818286" points="47.1453435 49.1289977 47.6903817 49.1289977 47.6903817 47.3955907 47.1453435 47.3955907"></polygon>
            <polygon id="Fill-67" fill="#818286" points="46.2265649 49.1289977 46.770687 49.1289977 46.770687 47.3955907 46.2265649 47.3955907"></polygon>
            <polygon id="Fill-68" fill="#818286" points="45.2940458 49.1289977 45.8381679 49.1289977 45.8381679 47.3955907 45.2940458 47.3955907"></polygon>
            <polygon id="Fill-69" fill="#DFE9F2" points="10.9447328 65.3818698 16.0644275 65.3818698 16.0644275 63.053207 10.9447328 63.053207"></polygon>
            <polygon id="Fill-70" fill="#818286" points="15.1456489 65.0851605 15.690687 65.0851605 15.690687 63.3517535 15.1456489 63.3517535"></polygon>
            <polygon id="Fill-71" fill="#818286" points="14.1746565 65.0851605 14.7187786 65.0851605 14.7187786 63.3517535 14.1746565 63.3517535"></polygon>
            <polygon id="Fill-72" fill="#818286" points="13.170687 65.0851605 13.7148092 65.0851605 13.7148092 63.3517535 13.170687 63.3517535"></polygon>
            <polygon id="Fill-73" fill="#818286" points="12.2519084 65.0851605 12.7960305 65.0851605 12.7960305 63.3517535 12.2519084 63.3517535"></polygon>
            <polygon id="Fill-74" fill="#818286" points="11.3193893 65.0851605 11.8635115 65.0851605 11.8635115 63.3517535 11.3193893 63.3517535"></polygon>
            <polygon id="Fill-75" fill="#DFE9F2" points="26.9212214 65.3818698 32.040916 65.3818698 32.040916 63.053207 26.9212214 63.053207"></polygon>
            <polygon id="Fill-76" fill="#818286" points="31.1221374 65.0851605 31.6662595 65.0851605 31.6662595 63.3517535 31.1221374 63.3517535"></polygon>
            <polygon id="Fill-77" fill="#818286" points="30.1520611 65.0851605 30.6952672 65.0851605 30.6952672 63.3517535 30.1520611 63.3517535"></polygon>
            <polygon id="Fill-78" fill="#818286" points="29.1480916 65.0851605 29.6922137 65.0851605 29.6922137 63.3517535 29.1480916 63.3517535"></polygon>
            <polygon id="Fill-79" fill="#818286" points="28.2283969 65.0851605 28.7725191 65.0851605 28.7725191 63.3517535 28.2283969 63.3517535"></polygon>
            <polygon id="Fill-80" fill="#818286" points="27.2958779 65.0851605 27.84 65.0851605 27.84 63.3517535 27.2958779 63.3517535"></polygon>
            <polygon id="Fill-81" fill="#DFE9F2" points="44.9203053 65.3818698 50.039084 65.3818698 50.039084 63.053207 44.9203053 63.053207"></polygon>
            <polygon id="Fill-82" fill="#818286" points="49.1203053 65.0851605 49.6644275 65.0851605 49.6644275 63.3517535 49.1203053 63.3517535"></polygon>
            <polygon id="Fill-83" fill="#818286" points="48.149313 65.0851605 48.6943511 65.0851605 48.6943511 63.3517535 48.149313 63.3517535"></polygon>
            <polygon id="Fill-84" fill="#818286" points="47.1453435 65.0851605 47.6903817 65.0851605 47.6903817 63.3517535 47.1453435 63.3517535"></polygon>
            <polygon id="Fill-85" fill="#818286" points="46.2265649 65.0851605 46.770687 65.0851605 46.770687 63.3517535 46.2265649 63.3517535"></polygon>
            <polygon id="Fill-86" fill="#818286" points="45.2940458 65.0851605 45.8381679 65.0851605 45.8381679 63.3517535 45.2940458 63.3517535"></polygon>
            <polygon id="Fill-87" fill="#DFE9F2" points="61.1899237 65.3818698 66.3087023 65.3818698 66.3087023 63.053207 61.1899237 63.053207"></polygon>
            <polygon id="Fill-88" fill="#818286" points="65.3908397 65.0851605 65.9349618 65.0851605 65.9349618 63.3517535 65.3908397 63.3517535"></polygon>
            <polygon id="Fill-89" fill="#818286" points="64.4198473 65.0851605 64.9630534 65.0851605 64.9630534 63.3517535 64.4198473 63.3517535"></polygon>
            <polygon id="Fill-90" fill="#818286" points="63.4158779 65.0851605 63.96 65.0851605 63.96 63.3517535 63.4158779 63.3517535"></polygon>
            <polygon id="Fill-91" fill="#818286" points="62.4961832 65.0851605 63.0403053 65.0851605 63.0403053 63.3517535 62.4961832 63.3517535"></polygon>
            <polygon id="Fill-92" fill="#818286" points="61.5645802 65.0851605 62.1087023 65.0851605 62.1087023 63.3517535 61.5645802 63.3517535"></polygon>
            <path d="M81.3884885,19.4647733 C81.3884885,20.8380872 82.5637557,20.95475 83.142687,20.9372965 C83.142687,20.9372965 85.0581069,20.9097384 85.9805496,20.7848081 L85.9805496,19.330657 L83.6794809,19.330657 C83.4202443,19.330657 83.1252824,19.3389244 83.1252824,18.8640058 L83.1252824,18.4690058 L85.5326107,18.38725 L85.5326107,16.9422849 L83.1252824,16.8439942 L83.1252824,16.4489942 C83.1252824,16.2074012 83.1252824,15.9465174 83.590626,15.9465174 L85.9805496,15.9465174 L85.9805496,14.4831802 C84.9335267,14.3398779 83.052916,14.3398779 83.052916,14.3398779 C82.420855,14.3398779 81.3884885,14.5125756 81.3884885,15.8656802 L81.3884885,19.4647733 Z M76.0269618,16.6106686 C76.0269618,17.0332267 76.0984122,18.5130988 77.7994809,18.5130988 L78.6046718,18.5130988 C78.9985649,18.5130988 79.0791756,18.6481337 79.0791756,18.9090174 L79.0791756,19.0523198 C79.0791756,19.3214709 78.9353588,19.4197616 78.550626,19.4197616 C77.7188702,19.4197616 76.5903206,19.3572965 76.2330687,19.3214709 L76.2330687,20.6764128 C77.1280305,20.9813895 77.3240611,20.9813895 78.9985649,20.9813895 C79.8843664,20.9813895 80.8159695,20.6405872 80.8159695,18.9714826 L80.8159695,18.6756919 C80.8159695,17.9564244 80.501771,16.7714244 79.1414656,16.7714244 L78.2996336,16.7714244 C77.8168855,16.7714244 77.7628397,16.618936 77.7628397,16.3415174 L77.7628397,16.2423081 C77.7628397,15.8656802 77.9423817,15.8473081 78.4260458,15.8473081 C79.0168855,15.8473081 80.0007023,15.8748663 80.5741374,15.9373314 L80.5741374,14.5823895 C79.9118473,14.3398779 79.122229,14.2030058 77.7994809,14.2856802 C76.7964275,14.349064 76.0269618,14.8873663 76.0269618,16.0631802 L76.0269618,16.6106686 Z M70.2358168,18.0372616 C70.2358168,21.0264012 71.622687,20.95475 72.8400916,20.95475 C73.9237557,20.95475 75.4003969,20.9372965 75.4003969,18.0372616 L75.4003969,14.3398779 L73.6553588,14.3398779 L73.6553588,18.0372616 C73.6553588,18.8456337 73.6370382,19.3931221 72.8400916,19.3931221 C71.9900153,19.3931221 71.9716947,18.8814593 71.9716947,18.0372616 L71.9716947,14.3398779 L70.2358168,14.3398779 L70.2358168,18.0372616 Z M65.9304733,17.6698198 C65.9304733,16.0631802 66.1182595,15.8564942 66.9060458,15.8564942 C67.7203969,15.8564942 67.8816183,16.1440174 67.8816183,17.6698198 C67.8816183,19.0615058 67.6755115,19.383936 66.9060458,19.383936 C66.0284885,19.383936 65.9304733,19.0431337 65.9304733,17.6698198 Z M64.1936794,17.6698198 C64.1936794,20.6589593 65.2947481,20.945564 66.9060458,20.945564 C68.5173435,20.945564 69.6174962,20.568936 69.6174962,17.6698198 C69.6174962,14.590657 68.4541374,14.2948663 66.9060458,14.2948663 C65.4019237,14.2948663 64.1936794,14.590657 64.1936794,17.6698198 Z M58.572916,20.9005523 L60.3087939,20.9005523 L60.3087939,18.5130988 L61.8303206,18.5130988 L61.8303206,20.9005523 L63.5671145,20.9005523 L63.5671145,14.3398779 L61.8303206,14.3398779 L61.8303206,16.9523895 L60.3087939,16.9523895 L60.3087939,14.3398779 L58.572916,14.3398779 L58.572916,20.9005523 Z M53.4523053,19.4647733 C53.4523053,20.8380872 54.6284885,20.95475 55.2065038,20.9372965 C55.2065038,20.9372965 57.1228397,20.9097384 58.0443664,20.7848081 L58.0443664,19.330657 L55.7442137,19.330657 C55.4840611,19.330657 55.1890992,19.3389244 55.1890992,18.8640058 L55.1890992,18.4690058 L57.5964275,18.38725 L57.5964275,16.9422849 L55.1890992,16.8439942 L55.1890992,16.4489942 C55.1890992,16.2074012 55.1890992,15.9465174 55.6544427,15.9465174 L58.0443664,15.9465174 L58.0443664,14.4831802 C56.9973435,14.3398779 55.1176489,14.3398779 55.1176489,14.3398779 C54.4846718,14.3398779 53.4523053,14.5125756 53.4523053,15.8656802 L53.4523053,19.4647733 Z M49.692916,17.1471337 L49.692916,15.8206686 L50.651084,15.8206686 C51.0449771,15.8206686 51.1347481,16.052157 51.1347481,16.447157 C51.1347481,16.9128895 51.1072672,17.1471337 50.651084,17.1471337 L49.692916,17.1471337 Z M47.9478779,20.9005523 L49.6846718,20.9005523 L49.6846718,18.4552267 L50.2214656,18.5792384 L51.0632977,20.9005523 L53.0410076,20.9005523 L51.913374,18.4194012 C52.3695573,18.2393547 52.8797863,18.0060291 52.8797863,16.447157 C52.8797863,14.8147965 52.0379542,14.3398779 50.8745954,14.3398779 L47.9478779,14.3398779 L47.9478779,20.9005523 Z M43.9649771,18.2797733 L44.9854351,18.2797733 L44.5109313,16.5206453 L43.9649771,18.2797733 Z M41.4138321,20.9005523 L43.4639084,14.3398779 L45.5130687,14.3398779 L47.4999389,20.9005523 L45.7191756,20.9005523 L45.3344427,19.760564 L43.571084,19.760564 L43.1945954,20.9005523 L41.4138321,20.9005523 Z M33.4205496,14.3398779 L35.2736794,20.9005523 L37.3677252,20.9005523 L37.8962748,18.7583663 L38.4953588,20.9005523 L40.5903206,20.9005523 L42.192458,14.3398779 L40.3668092,14.3398779 L39.552458,18.7675523 L38.6391756,15.7021686 L38.9698626,14.3398779 L37.1442137,14.3398779 L36.3298626,18.7675523 L35.2461985,14.3398779 L33.4205496,14.3398779 Z" id="Fill-93" fill="#E7D691"></path>
        </g>
    </g>
</svg>