<?xml version="1.0" encoding="UTF-8"?>
<svg width="120px" height="120px" viewBox="0 0 120 120" version="1.1" xmlns="http://www.w3.org/2000/svg" xmlns:xlink="http://www.w3.org/1999/xlink">
    <!-- Generator: Sketch 51.1 (57501) - http://www.bohemiancoding.com/sketch -->
    <title>Giraffe6</title>
    <desc>Created with Sketch.</desc>
    <defs>
        <polygon id="path-1" points="0.187642106 0.113145761 7.986175 0.113145761 7.986175 12.4640601 0.187642106 12.4640601"></polygon>
        <polygon id="path-3" points="0 0.0964979125 23.6098634 0.0964979125 23.6098634 25.4557951 0 25.4557951"></polygon>
    </defs>
    <g id="Giraffe6" stroke="none" stroke-width="1" fill="none" fill-rule="evenodd">
        <g id="Group" transform="translate(60.000000, 60.000000) scale(-1, 1) translate(-60.000000, -60.000000) translate(22.000000, 0.000000)">
            <path d="M57.9274375,68.8906245 C57.9274375,68.8906245 57.9445375,68.8669091 57.9777875,68.8218498 C57.9991625,68.7933913 58.0257625,68.7582925 58.0571125,68.7160791 C58.0841875,68.6828775 58.1155375,68.6444585 58.1506875,68.6012964 C58.2941375,68.4324427 58.4974375,68.1971858 58.7966875,67.9315731 C59.0949875,67.6654862 59.4821125,67.3581344 60.0074625,67.0801897 C60.5256875,66.8046166 61.2187125,66.5646166 62.0076875,66.5522846 C62.2024375,66.5461186 62.4014625,66.5707826 62.6023875,66.5859605 C62.8033125,66.6030356 62.9952125,66.6627984 63.1947125,66.7064348 C63.3994375,66.7458024 63.5728125,66.8368696 63.7642375,66.9065929 L63.9048375,66.9644585 L63.9751375,66.9938656 L64.0938875,67.0522055 L64.1057625,67.0597945 L64.1299875,67.074498 L64.3223625,67.1940237 C64.4805375,67.2974229 64.8372625,67.5715731 64.9574375,67.7361581 C65.0358125,67.8286482 65.1175125,67.9230356 65.1887625,68.0188458 L65.3735375,68.3095968 C65.5963125,68.699004 65.7521125,69.0936285 65.8556625,69.4692806 C66.0770125,70.2281739 66.1572875,70.9491225 66.2518125,71.634498 C66.2969375,71.9731542 66.3430125,72.3013755 66.4019125,72.5845375 L66.4247125,72.6860395 L66.4356375,72.7367905 L66.4370625,72.7434308 C66.4299375,72.7239842 66.4555875,72.7960791 66.4209125,72.7012174 L66.4266125,72.7168696 L66.4370625,72.7481739 L66.5206625,72.9995573 L66.5629375,73.1257233 L66.6009375,73.2073043 L66.6726625,73.3718893 C66.9054125,73.869913 67.2934875,74.3347352 67.7352375,74.6757628 C68.1798375,75.0191621 68.6952125,75.2496759 69.2034625,75.2890435 C69.7112375,75.3374229 70.2090375,75.2141028 70.6427125,74.963668 C71.0901625,74.7255652 71.3713625,74.394498 71.5746625,73.9875415 C71.7784375,73.5895968 71.8724875,73.1532332 71.9218875,72.7624032 C71.9693875,72.3692016 71.9736625,72.0134704 71.9579875,71.7212964 C71.9432625,71.4286482 71.9161875,71.1976601 71.8948125,71.040664 C71.8710625,70.8841423 71.8582375,70.800664 71.8582375,70.800664 L71.8558625,70.7864348 C71.8264125,70.5914941 71.9608375,70.4093597 72.1560625,70.3799526 C72.3384625,70.3519684 72.5099375,70.4691225 72.5555375,70.6431937 C72.5555375,70.6431937 72.5788125,70.7328379 72.6225125,70.9002688 C72.6628875,71.0691225 72.7189375,71.3171858 72.7683375,71.6397154 C72.8186875,71.9617708 72.8566875,72.3592411 72.8486125,72.8254862 C72.8362625,73.289834 72.7844875,73.8310198 72.5655125,74.4092016 C72.4652875,74.7004269 72.3014125,74.9873834 72.1000125,75.2748142 C71.9831625,75.4185296 71.8397125,75.588332 71.7442375,75.671336 L71.6644375,75.7491225 L71.6444875,75.7685692 L71.6345125,75.7780553 L71.6297625,75.7827984 L71.5955625,75.8112569 L71.5433125,75.8506245 L71.3295625,76.0090435 C70.7552875,76.4307036 69.9810375,76.7271462 69.1592875,76.7337866 C68.3351625,76.7527589 67.5143625,76.4814545 66.8094625,76.0479368 C66.1017125,75.608253 65.4894375,75.0191621 65.0353375,74.2801897 L64.8633875,73.9742609 L64.7802625,73.820585 L64.7256375,73.6996364 L64.6168625,73.4582134 L64.6030875,73.4278577 L64.5964375,73.4126798 L64.5717375,73.3458024 L64.5460875,73.2694387 L64.4943125,73.1176601 C64.3670125,72.7216126 64.2815125,72.3601897 64.1983875,72.0158419 C64.0349875,71.3352095 63.8867875,70.7001107 63.6787375,70.2035099 C63.5804125,69.9478577 63.4616625,69.7462767 63.3500375,69.5935494 C63.3205875,69.5598735 63.2930375,69.5261976 63.2669125,69.4910988 L63.1866375,69.4213755 C63.1757125,69.4128379 63.1586125,69.3895968 63.1548125,69.3924427 C63.1519625,69.3957628 63.1505375,69.3995573 63.1505375,69.3995573 C63.1505375,69.3995573 63.1519625,69.4005059 63.1543375,69.3986087 L63.1586125,69.3948142 C63.1600375,69.3933913 63.1291625,69.3801107 63.1163375,69.3734704 L62.9125625,69.2743399 L62.8873875,69.2615336 L62.8745625,69.2558419 C62.7805125,69.2088854 62.9956875,69.3156047 62.9724125,69.3042213 L62.9676625,69.3032727 L62.9329875,69.2952095 L62.8641125,69.2776601 C62.7738625,69.2615336 62.6845625,69.2131542 62.6023875,69.2174229 C62.4361375,69.1918103 62.2869875,69.1984506 62.1482875,69.2136285 C61.8737375,69.254419 61.6272125,69.36683 61.4034875,69.5228775 C61.1811875,69.677502 60.9916625,69.8610593 60.8458375,70.023747 C60.6976375,70.1859605 60.5988375,70.3339447 60.5366125,70.4245375 C60.5218875,70.4473043 60.5090625,70.4676996 60.4976625,70.4847747 L60.4857875,70.5089644 C60.4705875,70.5345771 60.4629875,70.5473834 60.4629875,70.5473834 C60.0421375,71.2716522 59.1135125,71.5168696 58.3891375,71.0966324 C57.6642875,70.6768696 57.4177625,69.7495968 57.8386125,69.0258024 C57.8656875,68.9793202 57.8965625,68.9328379 57.9274375,68.8906245" id="Fill-1" fill="#FFB700"></path>
            <g id="Group-5" transform="translate(67.925000, 59.524269)">
                <mask id="mask-2" fill="white">
                    <use xlink:href="#path-1"></use>
                </mask>
                <g id="Clip-4"></g>
                <path d="M7.9315975,7.52006324 L7.0746975,8.13144664 C7.0495225,8.14947036 7.0167475,8.12717787 7.0238725,8.09682213 C7.5558725,5.76559684 6.1037975,3.10947036 5.9033475,2.75895652 C5.8924225,2.73903557 5.8648725,2.7347668 5.8487225,2.75089328 C5.2715975,3.32622925 5.1029725,4.89666403 5.0564225,5.56449012 C5.0535725,5.60433202 4.9975225,5.60860079 4.9894475,5.5692332 C4.8972975,5.11579447 4.6526725,4.23310672 4.0579725,3.49033992 C3.3155475,2.56401581 3.5554225,0.602750988 3.6219225,0.152632411 C3.6266725,0.120379447 3.5867725,0.100932806 3.5625475,0.121802372 C0.7562475,2.54219763 1.5314475,6.80148617 1.8064725,7.95642688 C1.8159725,7.99484585 1.7651475,8.01239526 1.7456725,7.97871937 C1.3058225,7.215083 0.4688725,6.50836364 0.2522725,6.33286957 C0.2304225,6.31532016 0.1981225,6.3290751 0.1962225,6.3575336 C0.0902975,8.22725692 0.9647725,11.3368221 2.8381725,12.2223557 C3.4091225,12.4917628 4.0726975,12.5553202 4.8293725,12.3138972 C7.8712725,11.3444111 7.9862225,8.048917 7.9862225,7.54662451 C7.9857475,7.51864032 7.9543975,7.50393676 7.9315975,7.52006324" id="Fill-3" fill="#341E12" mask="url(#mask-2)"></path>
            </g>
            <g id="Group-10" transform="translate(57.475000, 68.061818)">
                <path d="M5.675585,1.33783399 C5.675585,1.33783399 5.67700792,1.33878261 5.67937947,1.33688538 L5.68364824,1.33309091 C5.68222532,1.3326166 5.68032808,1.32977075 5.67985377,1.33024506 C5.67653362,1.33403953 5.675585,1.33783399 5.675585,1.33783399" id="Fill-6" fill="#FFB700"></path>
                <path d="M15.37366,4.76362055 C15.381735,4.2978498 15.343735,3.89990514 15.293385,3.5778498 C15.243985,3.25532016 15.187935,3.00725692 15.147085,2.83840316 C15.10386,2.67097233 15.080585,2.58132806 15.080585,2.58132806 C15.053035,2.47698024 14.979885,2.39397628 14.886785,2.3493913 C14.886785,2.3493913 15.477685,6.29373913 13.67031,7.19587352 C11.862935,8.09800791 8.788735,8.46844269 7.34521,3.58164427 C6.917235,1.49705929 6.061285,-0.946102767 3.49296,0.465438735 C2.209035,1.78211858 1.81051,3.02433202 0.297635,2.35603162 C0.42351,2.63113043 0.632035,2.87160474 0.914185,3.0347668 C1.63856,3.45500395 2.567185,3.20978656 2.988035,2.48551779 C2.988035,2.48551779 2.995635,2.47271146 3.010835,2.44709881 C3.01416,2.44093281 3.01796,2.43286957 3.02271,2.42290909 C3.033635,2.40583399 3.046935,2.38543874 3.06166,2.36267194 C3.12341,2.27207905 3.222685,2.12456917 3.37041,1.96188142 C3.51671,1.79919368 3.706235,1.61516206 3.928535,1.46101186 C4.15226,1.30496443 4.398785,1.19255336 4.673335,1.15176285 C4.812035,1.13705929 4.961185,1.12994466 5.127435,1.15603162 C5.20961,1.15128854 5.29891,1.19966798 5.388685,1.21626877 L5.458035,1.23334387 L5.49271,1.24093281 L5.49746,1.24235573 C5.51171,1.24947036 5.434285,1.21057708 5.39581,1.19207905 L5.39961,1.19397628 L5.412435,1.19966798 L5.43761,1.21247431 L5.641385,1.31160474 C5.65421,1.31824506 5.685085,1.33152569 5.68366,1.33342292 C5.68936,1.33626877 5.702185,1.35239526 5.711685,1.35950988 L5.79196,1.42970751 C5.818085,1.46433202 5.845635,1.49800791 5.87461,1.5321581 C5.98671,1.68441107 6.10546,1.8864664 6.203785,2.14164427 C6.411835,2.63871937 6.560035,3.27334387 6.723435,3.95397628 C6.80656,4.29879842 6.89206,4.65974704 7.01936,5.05579447 L7.071135,5.20804743 L7.096785,5.28393676 L7.12101,5.35081423 L7.128135,5.3664664 L7.141435,5.39634783 L7.250685,5.63777075 L7.30531,5.75871937 L7.38796,5.91239526 L7.560385,6.21832411 C8.014485,6.95729644 8.62676,7.54638735 9.33451,7.98607115 C10.03941,8.41911462 10.86021,8.69089328 11.684335,8.67192095 C12.506085,8.66575494 13.280335,8.36931225 13.85461,7.94717787 L14.067885,7.78875889 L14.12061,7.7493913 L14.15481,7.72093281 L14.15956,7.71666403 L14.169535,7.70670356 L14.189485,7.68725692 L14.269285,7.60947036 C14.364285,7.5264664 14.507735,7.35666403 14.62506,7.21294862 C14.82646,6.92599209 14.990335,6.63856126 15.09056,6.34733597 C15.309535,5.76915415 15.36131,5.22796838 15.37366,4.76362055" id="Fill-8" fill="#ED9406"></path>
            </g>
            <path d="M42.394415,75.8649012 C40.383265,76.6275889 39.293615,78.8084585 39.85269,80.883083 C40.56234,83.5164427 41.71849,87.5267194 43.02284,90.9455336 C45.177915,96.5940711 45.986365,107.924822 44.504365,110.598024 C43.561965,112.464901 43.561965,113.003241 46.592465,113.204822 C49.622965,113.406403 50.229065,111.825059 49.151765,110.598024 C48.07399,109.371937 49.398765,102.108854 48.949415,95.1147036 C48.68009,91.5279842 48.231215,86.327668 48.410765,82.0233202 C48.556115,78.5418972 46.526915,74.2968379 42.394415,75.8649012" id="Fill-11" fill="#FFB700"></path>
            <path d="M49.9531375,114.627557 C49.7564875,113.991036 49.3513125,113.277676 48.5400125,112.70234 C46.5929875,111.321628 43.3606125,112.70234 43.3606125,112.70234 C43.3606125,112.70234 42.2809375,113.652854 42.0809625,115.242261 C42.0059125,115.839889 42.4053875,116.39483 42.9877375,116.549929 C44.1472125,116.858704 46.2989625,117.229613 48.7442625,116.663289 C49.6543625,116.452696 50.2286375,115.518783 49.9531375,114.627557" id="Fill-13" fill="#341E12"></path>
            <path d="M49.151575,110.598261 C48.0738,109.3717 49.398575,102.109091 48.9497,95.1144664 C48.6799,91.5282213 48.2315,86.3274308 48.410575,82.0235573 C48.555925,78.5416601 46.526725,74.2970751 42.394225,75.8651383 C40.38355,76.6278261 39.2939,78.8086957 39.8525,80.8833202 C40.42535,83.007747 41.2889,86.0286166 42.2864,88.9124111 C42.7025,88.8977075 43.154225,88.8744664 43.606425,88.838419 C45.248975,88.7089328 46.709125,89.8776285 46.908625,91.5116206 C47.438725,95.8586561 48.1764,103.596522 47.4563,108.499921 C47.170825,110.209328 47.699025,110.94166 47.756025,111.63415 C47.81255,112.327115 45.32165,112.68996 44.677075,112.921897 C45.0965,113.059921 45.7178,113.146719 46.592275,113.204585 C49.62325,113.40664 50.22935,111.825296 49.151575,110.598261" id="Fill-15" fill="#ED9406"></path>
            <path d="M19.9337075,78.5509565 C19.9337075,78.5509565 23.1665575,97.514751 22.4930075,105.18147 C22.2236825,108.14068 21.2133575,112.040917 21.6850325,112.646134 C22.1562325,113.251352 25.2541825,113.991273 26.9380575,112.646134 C28.6214575,111.30147 26.4663825,111.032063 26.3319575,108.947478 C26.1970575,106.862419 23.8847575,93.0766482 26.2193825,84.0202055 C28.5540075,74.9642372 20.1132575,75.23317 19.9337075,78.5509565" id="Fill-17" fill="#FFB700"></path>
            <path d="M26.3325275,112.64604 C25.9283025,112.242403 22.5610275,111.502957 21.0795025,112.64604 C21.0795025,112.64604 19.8331025,113.642087 19.8283525,115.590071 C19.8264525,116.182957 20.2815025,116.681929 20.8700275,116.761138 C22.6009275,116.994972 26.2285025,117.289992 27.3423775,115.874182 C27.8815025,114.801771 26.7367525,113.049676 26.3325275,112.64604" id="Fill-19" fill="#341E12"></path>
            <path d="M24.15907,113.396395 C25.125695,113.435763 26.176395,113.254577 26.93782,112.64604 C28.621695,111.301375 26.466145,111.032443 26.33172,108.947383 C26.197295,106.862798 23.88452,93.0765534 26.21962,84.0201107 C28.554245,74.9646166 20.113495,75.2330751 19.93347,78.5508617 C19.93347,78.5508617 20.29922,80.6961581 20.75902,83.8332332 C21.348495,84.4839842 22.133195,85.2974229 22.851395,85.8718103 C23.42472,86.3299921 23.75152,87.026751 23.74962,87.7600316 C23.737745,91.7020079 23.76387,103.448727 24.45737,106.125249 C25.29432,109.354814 24.45737,112.036079 24.45737,112.036079 L24.15907,113.396395 Z" id="Fill-21" fill="#ED9406"></path>
            <path d="M27.5777875,80.6552253 C27.5777875,80.6552253 30.8106375,99.6190198 30.1370875,107.285739 C29.8677625,110.244949 28.8574375,114.145186 29.3291125,114.750403 C29.8003125,115.355621 32.8982625,116.095542 34.5821375,114.750403 C36.2655375,113.405739 34.1104625,113.136332 33.9760375,111.051747 C33.8411375,108.966688 31.5288375,95.180917 33.8634625,86.1249486 C36.1980875,77.0685059 27.7573375,77.337913 27.5777875,80.6552253" id="Fill-23" fill="#FFB700"></path>
            <path d="M33.9766075,114.750308 C33.5723825,114.346672 30.2051075,113.607225 28.7235825,114.750308 C28.7235825,114.750308 27.5408325,115.69513 27.4748075,117.544933 C27.4510575,118.214182 27.9426825,118.790941 28.6072075,118.877739 C30.3723075,119.108727 33.8920575,119.369123 34.9869325,117.978451 C35.5255825,116.90604 34.3808325,115.153945 33.9766075,114.750308" id="Fill-25" fill="#341E12"></path>
            <path d="M51.1594,76.8000949 C49.148725,77.6012016 48.0586,79.8916364 48.617675,82.0691858 C49.327325,84.8344032 50.48395,89.0448379 51.7883,92.6353518 C53.943375,98.5665771 54.75135,110.463652 53.269825,113.271083 C52.32695,115.230925 52.32695,115.795826 55.35745,116.007842 C58.38795,116.219383 58.994525,114.55883 57.91675,113.271083 C56.83945,111.982862 58.16375,104.356933 57.714875,97.0127431 C57.445075,93.2472095 56.9962,87.786498 57.176225,83.2672885 C57.3211,79.6113202 55.2919,75.1537708 51.1594,76.8000949" id="Fill-27" fill="#FFB700"></path>
            <path d="M58.7181225,117.431241 C58.5214725,116.794719 58.1162975,116.081834 57.3049975,115.506024 C55.3584475,114.125312 52.1255975,115.506024 52.1255975,115.506024 C52.1255975,115.506024 51.0459225,116.456538 50.8459475,118.046419 C50.7713725,118.643573 51.1708475,119.198514 51.7531975,119.353613 C52.9121975,119.662387 55.0639475,120.033296 57.5092475,119.466972 C58.4193475,119.256379 58.9940975,118.322466 58.7181225,117.431241" id="Fill-29" fill="#341E12"></path>
            <path d="M15.1788625,18.3707668 C15.1788625,18.3707668 19.9212625,42.3503715 17.1971375,56.8589881 C14.7751125,64.1135336 12.3535625,80.2347984 26.6819375,84.8692648 C41.0098375,89.5042055 52.5129125,85.8766957 58.7686625,80.6374862 C65.0248875,75.3978024 60.9883375,61.4768538 52.1091625,62.5013597 C45.2815125,63.2891858 35.2081875,63.6600949 31.2728125,59.7304506 C27.3379125,55.8012806 27.1863875,43.1059447 26.8838125,39.6297391 C26.5807625,36.1540079 22.6458625,15.4485534 22.6458625,15.4485534 C22.6458625,15.4485534 18.0041625,11.3178024 15.1788625,18.3707668" id="Fill-31" fill="#FFB700"></path>
            <path d="M19.9337075,56.9902767 C20.7872825,53.0649012 19.9337075,31.3467984 19.9337075,31.3467984 C20.7269575,30.5210277 23.1722575,25.2448221 24.0975575,23.2143083 C23.3009825,18.8966798 22.6454825,15.4484585 22.6454825,15.4484585 C22.6454825,15.4484585 18.0042575,11.3177075 15.1789575,18.3706719 C15.1789575,18.3706719 16.3631325,24.3640316 17.2081575,32.169249 C17.2186075,32.264585 17.2290575,32.3599209 17.2390325,32.4562055 C17.2566075,32.6198419 17.2737075,32.7849012 17.2912825,32.9499605 C17.3007825,33.0443478 17.3107575,33.1377866 17.3202575,33.2321739 C17.3378325,33.4038735 17.3549325,33.576996 17.3720325,33.7505929 C18.1130325,41.2489328 18.4692825,50.0848221 17.1967575,56.8593676 C14.7752075,64.113913 12.3536575,80.2347036 26.6820325,84.86917 C27.2344575,85.0479842 27.7821325,85.2130435 28.3260075,85.3671937 C16.7740075,82.0854545 19.0801325,60.9161265 19.9337075,56.9902767" id="Fill-33" fill="#ED9406"></path>
            <path d="M32.7833125,70.1972964 C32.1135625,69.1452806 31.2134375,68.2564269 30.3760125,67.3334229 C29.1904125,66.0267036 27.2818625,65.6752411 25.6958375,66.4493123 C23.5640375,67.4894704 21.4070625,69.288996 21.3947125,71.0301818 C21.3842625,72.5731067 23.7122375,75.2036206 24.9253875,76.1451225 C27.0125375,77.765834 29.7333375,75.9734229 31.7235875,74.5661502 C33.6796375,73.1830672 34.0643875,72.2097866 32.7833125,70.1972964" id="Fill-35" fill="#C96F27"></path>
            <path d="M43.5937425,63.2257708 C43.5609675,63.1541502 43.5205925,63.0801581 43.4787925,63.0056917 C38.8280675,62.9577866 34.2832675,62.2610277 31.7258675,60.138498 C31.5947675,60.4520158 31.5149675,60.7916206 31.4988175,61.1473518 C31.4280425,62.6931225 31.4536925,64.2203953 32.4036925,65.4350988 C33.2035925,66.4581818 34.4300425,67.4191304 35.4118675,68.2771542 C37.1646175,69.8101186 38.2960675,69.1427668 39.9889675,67.8820553 C41.4823675,66.7702767 44.6472925,65.5328063 43.5937425,63.2257708" id="Fill-37" fill="#C96F27"></path>
            <path d="M41.1164275,70.5678261 C41.4327775,69.8843478 42.1856525,69.2354941 42.6364275,68.8332806 C43.7450775,67.8433992 44.7877025,66.4555731 46.1314775,65.8062451 C47.6115775,65.0909881 49.1439275,66.830751 50.2625525,67.7376285 C51.6267525,68.8437154 52.8047525,69.8772332 51.1945025,71.5581818 C49.6783025,73.14 45.9462275,73.3894862 43.8780775,73.0475099 C43.0283025,72.9066403 41.9899525,72.5945455 41.3506025,71.984585 C40.8884275,71.5434783 40.8950775,71.0468775 41.1164275,70.5678261" id="Fill-39" fill="#C96F27"></path>
            <path d="M52.1091625,62.5013597 C51.4755125,62.5744032 50.8128875,62.6441265 50.1307875,62.7072095 C50.1027625,62.906419 50.1013375,63.1117945 50.1293625,63.3176443 C50.2443125,64.161913 50.3008375,65.091083 50.6775125,65.8438103 C51.0332875,66.555747 51.6047125,67.2672095 52.2654375,67.7381976 C53.7445875,68.7935336 55.7756875,68.6915573 57.3873625,68.0132964 C58.0694625,67.7263399 59.1942625,67.403336 60.0649375,66.8920316 C58.4086125,64.0542451 55.6431625,62.0939289 52.1091625,62.5013597" id="Fill-41" fill="#C96F27"></path>
            <path d="M35.752775,73.7694071 C36.6396,72.6495652 37.57725,71.8081423 39.309575,72.9872727 C40.6125,73.8732806 40.69895,75.4555731 39.621175,76.656996 C38.498275,77.9096443 35.67155,79.473913 33.919275,79.2386561 C32.532275,79.0532016 32.05585,77.6326482 32.87285,76.6342292 C33.353075,76.0465613 34.06795,75.7700395 34.58285,75.2241107 C35.002275,74.7796838 35.372775,74.2489328 35.752775,73.7694071" id="Fill-43" fill="#C96F27"></path>
            <path d="M61.2749525,69.7410119 C59.9587275,68.8782451 58.5009525,68.7141344 56.8527025,69.6589565 C55.9487775,70.1778498 53.6051275,71.2753992 53.2973275,72.3696285 C52.9087775,73.7508142 55.7668525,75.8173755 56.8270525,76.3756364 C57.9252525,76.9542925 59.6670775,77.7174545 61.0322275,77.4779289 C61.9907775,75.1310514 62.0150025,72.3060711 61.2749525,69.7410119" id="Fill-45" fill="#C96F27"></path>
            <path d="M21.74208,65.8979289 C23.122905,66.2517628 25.16018,64.6168221 26.291155,63.9793518 C30.076905,61.8468617 29.59953,59.1632253 26.521055,56.6565059 C25.50313,55.8278893 23.928505,54.1791937 22.506355,55.1320791 C21.00203,56.1399842 20.040155,60.0634625 19.941355,61.733502 C19.87248,62.9112095 20.245355,65.0906561 21.393905,65.7561107 C21.504105,65.8201423 21.62048,65.8670988 21.74208,65.8979289" id="Fill-47" fill="#C96F27"></path>
            <path d="M42.9884025,75.3035099 C43.5664775,75.0227194 44.3184025,75.269834 44.9411275,75.2541818 C45.7443525,75.2342609 46.5442525,75.1047747 47.3123275,74.8680949 C48.2157775,74.5896759 49.0821775,74.1632727 50.0188775,74.0328379 C51.8262525,73.7809802 52.9729025,75.1782925 54.0122025,76.4480158 C55.3498025,78.0820079 51.3308275,79.6510198 50.3613525,80.0508617 C49.5153775,80.3999526 48.5235775,80.8937075 47.6058775,80.999004 C45.9039525,81.194419 44.4153025,81.2394783 42.7575525,81.0293597 C42.0388775,80.9387668 39.4382525,80.6271462 39.8733525,79.2179763 C40.1873275,78.200585 41.5121025,77.6850119 42.0046775,76.7027194 C42.2559525,76.2023241 42.4402525,75.6075415 42.9299775,75.3338656 C42.9489775,75.3234308 42.9684525,75.3134704 42.9884025,75.3035099" id="Fill-49" fill="#C96F27"></path>
            <path d="M28.752985,54.6979447 C27.866635,51.5684585 27.452435,47.7934387 27.21731,44.6995257 C26.18181,45.4816601 25.49591,46.6247431 24.49746,47.4481423 C23.605885,48.1837945 22.273035,48.8440316 22.25736,50.1739921 C22.240735,51.5509091 24.317435,53.1422134 25.31826,53.9760474 C26.71951,55.1437945 27.86046,55.2296443 28.752985,54.6979447" id="Fill-51" fill="#C96F27"></path>
            <path d="M24.5113775,25.4701186 C23.8615775,26.106166 23.0787775,26.6909881 22.2997775,27.2373913 C21.7169525,27.6462451 21.2633275,28.1120158 21.0932775,28.8220553 C20.8320275,29.9120158 21.4865775,32.1962846 22.4446525,32.8005534 C23.3238775,33.3545455 24.7864025,33.3649802 25.8461275,32.94 C25.4419025,30.6059289 24.9688025,27.9720949 24.5113775,25.4701186" id="Fill-53" fill="#C96F27"></path>
            <path d="M26.8836225,39.6298814 C26.8123725,38.8093281 26.5378225,37.0268775 26.1611475,34.7833992 C25.5322475,34.5941502 24.8054975,34.7421344 24.3000975,35.2790514 C22.0324475,37.686166 19.8811725,40.3712253 22.1787475,43.4395257 C23.1182975,44.6950198 24.7470725,43.850751 25.8048975,43.0235573 C26.3131475,42.626087 26.7073975,42.0730435 27.0042725,41.4431621 C26.9610475,40.7075099 26.9235225,40.0875889 26.8836225,39.6298814" id="Fill-55" fill="#C96F27"></path>
            <path d="M16.4605075,2.25305929 C15.1689825,2.19377075 14.0950075,2.73732806 14.0617575,3.46633992 C14.0475075,3.77037154 14.2175575,4.05875099 14.5144325,4.29543083 C15.0331325,4.70950198 15.3613575,5.31424506 15.3575575,5.97780237 C15.3499575,7.30966008 15.1571075,9.27377075 15.0530825,9.80452174 C15.0065325,10.0412016 15.1832325,10.2622292 15.4240575,10.2736126 L16.0919075,10.3039684 L16.7588075,10.3343241 C17.0001075,10.3457075 17.1962825,10.1412806 17.1715825,9.90128063 C17.1164825,9.36341502 17.1041325,7.38981818 17.2181325,6.06270356 C17.2751325,5.40151779 17.6575075,4.82950198 18.2118325,4.46428458 C18.5286575,4.25558893 18.7248325,3.98381028 18.7386075,3.67977866 C18.7718575,2.9507668 17.7520325,2.31234783 16.4605075,2.25305929" id="Fill-57" fill="#C96F27"></path>
            <path d="M26.73585,7.02488538 C25.831925,6.10140711 24.675775,5.76654545 24.153275,6.27642688 C23.93525,6.4893913 23.862575,6.81618972 23.9172,7.19136759 C24.013625,7.84781028 23.84025,8.51326482 23.38425,8.99563636 C22.46845,9.9636996 20.98455,11.2680474 20.54565,11.5853597 C20.34995,11.7267036 20.3281,12.0084427 20.496725,12.1806166 L20.96365,12.6577708 L21.43105,13.1349249 C21.599675,13.3075731 21.8823,13.2919209 22.028125,13.0998261 C22.3554,12.6686798 23.69585,11.2177708 24.686225,10.3255968 C25.179275,9.88116996 25.8495,9.7232253 26.504525,9.83421344 C26.8793,9.89777075 27.207525,9.83279051 27.426025,9.61982609 C27.948525,9.10994466 27.6393,7.94788933 26.73585,7.02488538" id="Fill-59" fill="#C96F27"></path>
            <g id="Group-63" transform="translate(0.000000, 9.247589)">
                <mask id="mask-4" fill="white">
                    <use xlink:href="#path-3"></use>
                </mask>
                <g id="Clip-62"></g>
                <path d="M20.05735,1.20744664 C19.75905,1.01582609 19.44555,0.845549407 19.119225,0.700885375 C16.307225,-0.548442688 12.77845,0.299620553 10.225325,1.78420553 C8.7058,2.6678419 7.380075,3.85598419 6.23865,5.18594466 C-0.1444,12.6216759 -3.814725,21.2868142 6.23865,24.9702925 C13.28955,27.5533755 18.962475,19.2382767 21.648125,13.9620711 C22.753925,11.7887905 23.854975,9.39590514 23.5619,6.89155731 C23.295425,4.61203162 21.991075,2.4506087 20.05735,1.20744664" id="Fill-61" fill="#FFB700" mask="url(#mask-4)"></path>
            </g>
            <path d="M3.155615,18.4819447 C5.80944,17.5404427 9.788515,16.9053439 13.718665,19.2138024 C16.709265,20.970166 18.282465,24.2566482 19.014915,27.6384664 C15.957815,32.0372016 11.479515,36.1385455 6.238365,34.2180711 C-2.02711,31.1896126 -1.012985,24.7940395 3.155615,18.4819447" id="Fill-64" fill="#F3D3A5"></path>
            <path d="M34.35257,14.1033676 C32.305795,12.1729328 27.60472,14.645502 26.008245,15.1677154 C25.15182,15.4480316 24.16477,15.3768854 23.43327,15.2497708 C22.284245,15.0510356 21.37082,16.2216285 21.84962,17.2831304 C21.853895,17.291668 21.857695,17.3002055 21.861495,17.3087431 C22.248145,18.1601265 23.827045,19.6380711 27.023795,21.1283478 C32.813095,22.911747 36.399345,16.0338024 34.35257,14.1033676" id="Fill-66" fill="#FFB700"></path>
            <path d="M32.19835,15.534166 C31.31675,15.5052332 29.6077,15.6247589 27.882025,16.7151937 C27.4151,16.9034941 27.011825,17.0657075 26.667925,17.1781186 C26.47555,17.2416759 26.276525,17.2947984 26.071325,17.3379605 C25.674225,17.4214387 25.587775,17.9498182 25.934525,18.1599368 C26.4423,18.4682372 27.052675,18.8007273 27.77895,19.1446008 C27.959925,19.1948775 28.13995,19.2337708 28.3157,19.2598577 C30.124025,19.5330593 31.3139,18.4767747 31.86205,17.8227036 C32.3095,17.2886324 32.5546,16.6478419 32.683325,16.1896601 C32.774525,15.8657075 32.535125,15.5446008 32.19835,15.534166" id="Fill-68" fill="#C96F27"></path>
            <path d="M8.0204225,0.0640316206 C10.7241225,0.846166008 10.9739725,6.14608696 11.3330725,7.78529644 C11.5249725,8.66418972 12.0878475,9.47762846 12.5675975,10.043004 C13.3218975,10.9309091 12.7746975,12.3106719 11.6156975,12.4368379 C11.6061975,12.4377866 11.5971725,12.4387352 11.5876725,12.4396838 C10.6566725,12.5383399 8.5804475,11.9293281 5.6734475,9.93343874 C1.1975225,5.85533597 5.3162475,-0.718102767 8.0204225,0.0640316206" id="Fill-70" fill="#FFB700"></path>
            <path d="M7.87759,2.64355731 C8.34974,3.38774704 9.113065,4.91881423 9.04704,6.956917 C9.121615,7.4544664 9.185265,7.88371542 9.263165,8.23660079 C9.305915,8.43438735 9.36149,8.63264822 9.42799,8.8313834 C9.55719,9.21509881 9.144415,9.55754941 8.78769,9.36592885 C8.263765,9.08513834 7.66764,8.7284585 7.002165,8.27786561 C6.867265,8.14743083 6.74234,8.01225296 6.630715,7.87470356 C5.47789,6.45652174 5.78664,4.89699605 6.07259,4.09351779 C6.306765,3.43754941 6.73569,2.90158103 7.065815,2.55818182 C7.299515,2.31581028 7.697565,2.35897233 7.87759,2.64355731" id="Fill-72" fill="#C96F27"></path>
            <path d="M20.2053125,18.0817233 C19.5887625,19.535004 18.4022125,20.4233834 17.5552875,20.0648063 C16.7083625,19.7067036 16.5221625,18.2377708 17.1387125,16.7844901 C17.7552625,15.3307352 18.9418125,14.44283 19.7887375,14.8009328 C20.6356625,15.1595099 20.8218625,16.6279684 20.2053125,18.0817233" id="Fill-74" fill="#3C2415"></path>
            <path d="M14.431545,15.2733913 C13.454945,16.5146561 12.07697,17.0620079 11.35402,16.4942609 C10.630595,15.9269881 10.835795,14.4609012 11.81192,13.2191621 C12.78852,11.9778972 14.166495,11.4310198 14.88992,11.9982925 C15.613345,12.5660395 15.408145,14.0321265 14.431545,15.2733913" id="Fill-76" fill="#3C2415"></path>
            <path d="M8.59237,29.8949881 C8.395245,29.6265296 8.36532,29.2665296 8.53157,28.9776759 C8.81752,28.4820237 9.390845,28.0802846 9.944695,28.1002055 C10.676195,28.1267668 11.278495,29.1152253 11.028645,29.8608379 C10.687595,30.8782292 9.276845,30.8298498 8.59237,29.8949881" id="Fill-78" fill="#C96F27"></path>
            <path d="M5.0236475,27.4752569 C5.3570975,27.4847431 5.6710725,27.3059289 5.8149975,27.0052174 C6.0619975,26.48917 6.0691225,25.7895652 5.7385225,25.3456126 C5.3019975,24.758419 4.1448975,24.8229249 3.6717975,25.4504348 C3.0248475,26.3084585 3.8641725,27.441581 5.0236475,27.4752569" id="Fill-80" fill="#C96F27"></path>
        </g>
    </g>
</svg>