<?xml version="1.0" encoding="UTF-8"?>
<svg width="480px" height="360px" viewBox="0 0 480 360" version="1.1" xmlns="http://www.w3.org/2000/svg" xmlns:xlink="http://www.w3.org/1999/xlink">
    <!-- Generator: Sketch 51.1 (57501) - http://www.bohemiancoding.com/sketch -->
    <title>Mountain1</title>
    <desc>Created with Sketch.</desc>
    <defs></defs>
    <g id="Mountain1" stroke="none" stroke-width="1" fill="none" fill-rule="evenodd">
        <g id="Group" transform="translate(-138.000000, 0.000000)">
            <polygon id="Fill-3" fill="#D5EED0" points="0 289 755 289 755 0 0 0"></polygon>
            <path d="M414.195881,45.7127278 C413.521303,42.4588473 409.481484,39.9553516 404.582317,39.9553516 C403.049482,39.9553516 401.603019,40.2065866 400.311808,40.6437576 C400.322741,40.4146578 400.341327,40.1877716 400.341327,39.9553516 C400.341327,32.5367256 395.494639,26.5247942 389.517457,26.5247942 C387.967129,26.5247942 386.49552,26.9365097 385.160576,27.6647591 C381.808456,21.3750304 374.391372,17 365.772728,17 C354.919339,17 345.967233,23.9382913 344.648688,32.9041706 C342.623859,32.3198002 340.382553,31.9933054 338.025354,31.9933054 C328.967196,31.9933054 321.624458,36.7822648 321.624458,42.6901606 C321.624458,43.6054528 321.802669,44.4941828 322.133945,45.3430692 C292.810003,49.7258469 298.431856,58 298.431856,58 L364.678315,58 L369.322739,58 L435.569198,58 C435.569198,58 440.881641,50.1740856 414.195881,45.7127278" id="Fill-6" fill="#FFFFFF"></path>
            <path d="M699.873165,70.7639413 C700.234172,69.8416054 700.439365,68.8569645 700.439365,67.8300453 C700.439365,62.7644297 695.674942,58.6578655 689.79787,58.6578655 C688.622675,58.6578655 687.494664,58.8280915 686.437976,59.1318282 C685.587578,51.7943068 678.585786,46.0700388 670.071932,46.0700388 C668.390887,46.0700388 666.767999,46.2947817 665.240574,46.7097772 C661.493337,40.3546715 653.863897,36 645.054872,36 C632.544697,36 622.402468,44.7760983 622.402468,55.6015848 C622.402468,56.7520013 622.523169,57.8768283 622.742627,58.9716154 C620.59743,58.7691243 618.343601,58.6578655 616.016254,58.6578655 C601.7175,58.6578655 590.123559,62.7644297 590.123559,67.8300453 C590.123559,68.9203821 590.664522,69.9662153 591.652081,70.9375051 C577.669345,72.7243223 577,77 577,77 L644.748729,77 L648.250174,77 L716,77 C716,77 715.284569,72.4272611 699.873165,70.7639413" id="Fill-8" fill="#FFFFFF"></path>
            <polygon id="Fill-10" fill="#AFE0C0" points="283 279 391.039801 86 507 272.603611"></polygon>
            <polygon id="Fill-12" fill="#A1D6B0" points="367 128.881553 391.156395 86 419 130.530374 400.450565 127.932064 386.876697 144"></polygon>
            <polygon id="Fill-14" fill="#AFE0C0" points="117 288 230.388969 58 341 288"></polygon>
            <polygon id="Fill-16" fill="#A1D6B0" points="195 130.199012 230.060752 58 260 121.204041 237.682845 118.655411 215.711353 132"></polygon>
            <polygon id="Fill-18" fill="#AFE0C0" points="433 279 546.388969 70 657 279"></polygon>
            <polygon id="Fill-20" fill="#A1D6B0" points="511 135.369973 546.060752 70 576 127.225393 553.683939 124.917577 531.711353 137"></polygon>
            <polygon id="Fill-22" fill="#AFE0C0" points="0 275 85.3711843 123 177 269.962534"></polygon>
            <polygon id="Fill-26" fill="#AFE0C0" points="747 275 661.629347 123 570 269.962534"></polygon>
            <polygon id="Fill-34" fill="#99CEA9" points="433.547557 229 435.001156 229.177615 436.454756 229 439 264 435.001156 264 431 264"></polygon>
            <polygon id="Fill-36" fill="#99CEA9" points="415.252079 243.508151 412.81311 243.508151 417.312568 233.069981 414.781419 233.069981 418.43933 224.810883 416.18689 224.810883 420.778528 216.837113 418.155199 216.837113 423.219665 206.586224 421.249187 206.586224 425.18689 197.570289 422.377033 197.570289 426.403663 189.786004 423.781419 189.786004 428.650681 182.098664 426.594529 182.098664 432.501627 169 438.408724 182.098664 436.348235 182.098664 441.219665 189.786004 438.595252 189.786004 442.62622 197.570289 439.814194 197.570289 443.752982 206.586224 441.782504 206.586224 446.845885 216.837113 444.223641 216.837113 448.814194 224.810883 446.563923 224.810883 450.218581 233.069981 447.687432 233.069981 452.190143 243.508151 449.75009 243.508151 455 253 432.501627 253 410 253"></polygon>
            <polygon id="Fill-38" fill="#99CEA9" points="484.229248 234 485.5 234.162162 486.773039 234 489 266 485.5 266 482 266"></polygon>
            <polygon id="Fill-40" fill="#99CEA9" points="468.784506 246.524726 466.563128 246.524726 470.663017 237.205595 468.355643 237.205595 471.689385 229.831006 469.636648 229.831006 473.820299 222.71102 471.429163 222.71102 476.043911 213.559771 474.249162 213.559771 477.836425 205.509206 475.27553 205.509206 478.945439 198.559326 476.556536 198.559326 480.992591 191.696167 479.118548 191.696167 484.500558 180 489.882569 191.696167 488.005176 191.696167 492.444581 198.559326 490.053444 198.559326 493.725586 205.509206 491.163575 205.509206 494.751954 213.559771 492.957206 213.559771 497.56972 222.71102 495.180818 222.71102 499.363352 229.831006 497.312849 229.831006 500.642124 237.205595 498.336983 237.205595 502.439105 246.524726 500.215494 246.524726 505 255 484.500558 255 464 255"></polygon>
            <polygon id="Fill-42" fill="#99CEA9" points="376.229248 234 377.5 234.162162 378.773039 234 381 266 377.5 266 374 266"></polygon>
            <polygon id="Fill-44" fill="#99CEA9" points="361.784506 246.524726 359.563128 246.524726 363.663017 237.205595 361.355643 237.205595 364.689385 229.831006 362.636648 229.831006 366.820299 222.71102 364.429163 222.71102 369.043911 213.559771 367.249162 213.559771 370.836425 205.509206 368.27553 205.509206 371.945439 198.559326 369.556536 198.559326 373.992591 191.696167 372.118548 191.696167 377.500558 180 382.881452 191.696167 381.005176 191.696167 385.444581 198.559326 383.053444 198.559326 386.725586 205.509206 384.164692 205.509206 387.751954 213.559771 385.957206 213.559771 390.570837 222.71102 388.179701 222.71102 392.363352 229.831006 390.312849 229.831006 393.642124 237.205595 391.335867 237.205595 395.439105 246.524726 393.214377 246.524726 398 255 377.500558 255 357 255"></polygon>
            <polygon id="Fill-50" fill="#5D896C" points="40 268 160.475934 87 278 268"></polygon>
            <polygon id="Fill-52" fill="#FFFFFF" points="160.75099 87 125 139.84209 139.849344 135.885769 149.252166 147 160.75099 142.290043 162.616795 144.362818 182.41592 136.450177 193.799095 146.058227 199 145.5857"></polygon>
            <polygon id="Fill-54" fill="#597356" points="214 265 305.623114 119 395 265"></polygon>
            <polygon id="Fill-56" fill="#FFFFFF" points="306.537409 118 279 161.15346 290.436997 157.922885 297.680244 167 306.537409 163.153709 307.974095 164.846654 323.22601 158.384396 331.993451 166.230076 336 165.844005"></polygon>
            <polygon id="Fill-58" fill="#5D896C" points="704 268 612.377343 87 523 268"></polygon>
            <polygon id="Fill-60" fill="#FFFFFF" points="613.462288 87 641 139.84209 629.561687 135.885769 622.32002 147 613.462288 142.290043 612.024425 144.362818 596.774825 136.450177 588.007308 146.058227 584 145.5857"></polygon>
            <polygon id="Fill-62" fill="#8FCE42" points="0 439 755 439 755 265 0 265"></polygon>
        </g>
    </g>
</svg>