<?xml version="1.0" encoding="UTF-8"?>
<svg width="120px" height="120px" viewBox="0 0 120 120" version="1.1" xmlns="http://www.w3.org/2000/svg" xmlns:xlink="http://www.w3.org/1999/xlink">
    <!-- Generator: Sketch 51.1 (57501) - http://www.bohemiancoding.com/sketch -->
    <title>Street lamp2</title>
    <desc>Created with Sketch.</desc>
    <defs>
        <polygon id="path-1" points="0.143857143 0.476571429 11.52825 0.476571429 11.52825 6.22889143 0.143857143 6.22889143"></polygon>
        <polygon id="path-3" points="0 119.523429 18.4571429 119.523429 18.4571429 0.685714286 0 0.685714286"></polygon>
    </defs>
    <g id="Street-lamp2" stroke="none" stroke-width="1" fill="none" fill-rule="evenodd">
        <g id="Page-1" transform="translate(50.000000, 1.000000)">
            <g id="Group-3" transform="translate(3.392857, 0.209143)">
                <mask id="mask-2" fill="white">
                    <use xlink:href="#path-1"></use>
                </mask>
                <g id="Clip-2"></g>
                <path d="M11.52825,6.22889143 L9.519,6.22889143 C9.519,4.17654857 7.86667857,2.50683429 5.83571429,2.50683429 C3.80475,2.50683429 2.15310714,4.17654857 2.15310714,6.22889143 L0.143857143,6.22889143 C0.143857143,3.05677714 2.69732143,0.476434286 5.83571429,0.476434286 C8.97478571,0.476434286 11.52825,3.05677714 11.52825,6.22889143" id="Fill-1" fill="#6D4C41" mask="url(#mask-2)"></path>
            </g>
            <path d="M11.6159893,6.61042286 C11.6159893,5.27808 10.5472393,4.19739429 9.22809643,4.19739429 C7.91031071,4.19739429 6.84088214,5.27808 6.84088214,6.61042286 L11.6159893,6.61042286 Z" id="Fill-4" fill="#6D4C41"></path>
            <polygon id="Fill-6" fill="#6D4C41" points="14.9018357 5.92073143 3.55544286 5.92073143 0.94905 10.1934171 17.5082286 10.1934171"></polygon>
            <path d="M14.8746929,38.7754286 L9.2283,43.9032 L2.30483571,37.6152 L2.30483571,39.5331429 L9.2283,45.8211429 L16.1524429,39.5331429 L16.1524429,39.3507429 C16.1524429,38.6814857 15.3680143,38.3276571 14.8746929,38.7754286" id="Fill-8" fill="#6D4C41"></path>
            <mask id="mask-4" fill="white">
                <use xlink:href="#path-3"></use>
            </mask>
            <g id="Clip-11"></g>
            <polygon id="Fill-10" fill="#6D4C41" mask="url(#mask-4)" points="6.79453571 86.3869714 11.6626071 86.3869714 11.6626071 31.6518857 6.79453571 31.6518857"></polygon>
            <polygon id="Fill-12" fill="#6D4C41" mask="url(#mask-4)" points="5.39192857 86.3869714 13.0658929 86.3869714 13.0658929 77.8587429 5.39192857 77.8587429"></polygon>
            <polygon id="Fill-13" fill="#FDD835" mask="url(#mask-4)" points="14.9018357 32.5021714 3.55544286 32.5021714 0.94905 10.1938286 17.5082286 10.1938286"></polygon>
            <polygon id="Fill-14" fill="#F9A825" mask="url(#mask-4)" points="14.9018357 32.5021714 3.55544286 32.5021714 0.94905 16.3721143 17.5082286 16.3721143"></polygon>
            <path d="M4.39890714,31.5436114 L14.0583714,31.5436114 L16.4415143,11.1525257 L2.01644286,11.1525257 L4.39890714,31.5436114 Z M14.9018357,33.4608686 L3.55544286,33.4608686 C3.07501429,33.4608686 2.66990714,33.09744 2.61358571,32.6146971 L0.00651428571,10.3063543 C-0.0253785714,10.0341257 0.0594428571,9.76121143 0.239942857,9.55686857 C0.419764286,9.35184 0.6783,9.23526857 0.94905,9.23526857 L17.5082286,9.23526857 C17.7789786,9.23526857 18.0375143,9.35184 18.2173357,9.55686857 C18.3971571,9.76121143 18.4826571,10.0341257 18.4507643,10.3063543 L15.8436929,32.6146971 C15.7873714,33.09744 15.3822643,33.4608686 14.9018357,33.4608686 Z" id="Fill-15" fill="#6D4C41" mask="url(#mask-4)"></path>
            <path d="M16.1523071,39.4608 L2.3047,39.4608 L2.3047,37.4921143 C2.3047,37.0649143 2.64805714,36.7179429 3.07080714,36.7179429 L15.3868786,36.7179429 C15.8096286,36.7179429 16.1523071,37.0649143 16.1523071,37.4921143 L16.1523071,39.4608 Z" id="Fill-16" fill="#6D4C41" mask="url(#mask-4)"></path>
            <polygon id="Fill-17" fill="#6D4C41" mask="url(#mask-4)" points="3.70703571 119.523429 14.7501071 119.523429 14.7501071 83.4020571 3.70703571 83.4020571"></polygon>
        </g>
    </g>
</svg>