<?xml version="1.0" encoding="UTF-8"?>
<svg width="120px" height="120px" viewBox="0 0 120 120" version="1.1" xmlns="http://www.w3.org/2000/svg" xmlns:xlink="http://www.w3.org/1999/xlink">
    <!-- Generator: Sketch 51.1 (57501) - http://www.bohemiancoding.com/sketch -->
    <title>Airplane20</title>
    <desc>Created with Sketch.</desc>
    <defs>
        <path d="M0.499,8.027 L0.499,18.449 L14.985,18.449 L14.985,8.027 C14.985,4.044 11.726,0.785 7.742,0.785 C3.758,0.785 0.499,4.044 0.499,8.027 Z" id="path-1"></path>
        <path d="M0.913,14.771 C0.913,19.791 27.809,18.539 59.893,18.539 C91.976,18.539 117.985,14.469 117.985,9.449 C117.985,5.918 91.691,2.857 64.927,1.351 C64.017,3.382 58.735,4.94 52.353,4.94 C45.333,4.94 39.642,3.054 39.642,0.727 C39.642,0.623 39.654,0.519 39.675,0.416 C37.282,0.378 34.961,0.358 32.744,0.358 C0.66,0.358 0.913,9.75 0.913,14.771 Z" id="path-3"></path>
        <path d="M3.737,0.663 C1.867,0.663 0.338,2.192 0.338,4.062 L0.338,18.549 C0.338,20.419 1.867,21.948 3.737,21.948 L35.518,21.948 C41.372,21.948 46.161,17.159 46.161,11.305 L46.161,10.599 C45.457,10.747 44.727,10.826 43.98,10.826 L12.199,10.826 C10.329,10.826 8.8,9.296 8.8,7.426 L8.8,0.663 L3.737,0.663 Z" id="path-5"></path>
        <path d="M0.676,3.71 C0.676,5.457 2.106,6.887 3.855,6.887 L19.745,6.887 C36.86,6.887 12.273,0.531 3.855,0.531 C2.106,0.531 0.676,1.962 0.676,3.71 Z" id="path-7"></path>
        <polygon id="path-9" points="0.3283 0.8701 8.4573 0.8701 8.4573 9 0.3283 9"></polygon>
        <polygon id="path-11" points="0 48 123.281 48 123.281 0.402 0 0.402"></polygon>
        <path d="M4.811,0.402 C2.698,0.402 0.968,2.132 0.968,4.245 C0.968,6.36 2.698,8.089 4.811,8.089 L45.166,8.089 C68.408,8.089 16.16,0.402 4.811,0.402 Z" id="path-13"></path>
    </defs>
    <g id="Airplane20" stroke="none" stroke-width="1" fill="none" fill-rule="evenodd">
        <g id="Group" transform="translate(62.000000, 60.500000) scale(-1, 1) translate(-62.000000, -60.500000) translate(0.000000, 36.000000)">
            <polygon id="Fill-1" fill="#262633" points="18.441 45.3462 20.14 45.3462 20.14 35.9592 18.441 35.9592"></polygon>
            <polygon id="Fill-2" fill="#262633" points="55.543 45.2362 57.243 45.2362 57.243 35.8492 55.543 35.8492"></polygon>
            <path d="M122.9851,30.047 L108.4991,30.047 L108.4991,19.626 C108.4991,15.642 111.7581,12.383 115.7421,12.383 C119.7261,12.383 122.9851,15.642 122.9851,19.626 L122.9851,30.047 Z" id="Fill-3" fill="#FC9129"></path>
            <g id="Group-7" transform="translate(108.000000, 11.598200)">
                <mask id="mask-2" fill="white">
                    <use xlink:href="#path-1"></use>
                </mask>
                <g id="Clip-6"></g>
                <polygon id="Fill-5" fill="#F5AD1A" mask="url(#mask-2)" points="-7.927 18.449 7.742 18.449 7.742 -4.389 -7.927 -4.389"></polygon>
            </g>
            <path d="M37.7439,20.9561 C39.9609,20.9561 42.2819,20.9761 44.6759,21.0141 C44.6529,21.1171 44.6409,21.2211 44.6409,21.3261 C44.6409,23.6521 50.3329,25.5391 57.3529,25.5391 C63.7349,25.5391 69.0169,23.9801 69.9279,21.9491 C96.6909,23.4551 122.9849,26.5161 122.9849,30.0471 C122.9849,35.0681 96.9759,39.1381 64.8919,39.1381 C32.8079,39.1381 5.9129,40.3901 5.9129,35.3691 C5.9129,30.3481 5.6599,20.9561 37.7439,20.9561" id="Fill-8" fill="#FF754F"></path>
            <g id="Group-12" transform="translate(5.000000, 20.598200)">
                <mask id="mask-4" fill="white">
                    <use xlink:href="#path-3"></use>
                </mask>
                <g id="Clip-11"></g>
                <polygon id="Fill-10" fill="#DB382B" mask="url(#mask-4)" points="-5 19.279 118.281 19.279 118.281 12.036 -5 12.036"></polygon>
            </g>
            <path d="M34.7371,17.2608 L39.7991,17.2608 L39.7991,24.0248 C39.7991,25.8938 41.3291,27.4238 43.1991,27.4238 L74.9801,27.4238 C75.7271,27.4238 76.4571,27.3458 77.1611,27.1978 L77.1611,27.9038 C77.1611,33.7578 72.3721,38.5468 66.5181,38.5468 L34.7371,38.5468 C32.8671,38.5468 31.3381,37.0168 31.3381,35.1468 L31.3381,20.6608 C31.3381,18.7908 32.8671,17.2608 34.7371,17.2608" id="Fill-13" fill="#FAA829"></path>
            <g id="Group-17" transform="translate(31.000000, 16.598200)">
                <mask id="mask-6" fill="white">
                    <use xlink:href="#path-5"></use>
                </mask>
                <g id="Clip-16"></g>
                <polygon id="Fill-15" fill="#FC9129" mask="url(#mask-6)" points="0.338 25.496 54.587 25.496 54.587 15.74 0.338 15.74"></polygon>
            </g>
            <path d="M48.8543,26.13 C57.2733,26.13 81.8603,32.486 64.7453,32.486 L48.8543,32.486 C47.1063,32.486 45.6753,31.056 45.6753,29.308 C45.6753,27.56 47.1063,26.13 48.8543,26.13" id="Fill-18" fill="#E5E5D1"></path>
            <g id="Group-23" transform="translate(45.000000, 25.598200)">
                <mask id="mask-8" fill="white">
                    <use xlink:href="#path-7"></use>
                </mask>
                <g id="Clip-21"></g>
                <polygon id="Fill-20" fill="#FADB57" mask="url(#mask-8)" points="-0.802 8.957 28.466 8.957 28.466 4.966 -0.802 4.966"></polygon>
                <polygon id="Stroke-22" stroke="#FADB57" stroke-width="0.295" mask="url(#mask-8)" points="-0.802 8.957 28.466 8.957 28.466 4.966 -0.802 4.966"></polygon>
            </g>
            <g id="Group-37" transform="translate(0.000000, 0.598200)">
                <path d="M57.3533,24.9405 C50.3323,24.9405 44.6413,23.0545 44.6413,20.7275 C44.6413,18.4005 50.3323,16.5145 57.3533,16.5145 L57.3533,24.9405 Z" id="Fill-24" fill="#FAA829"></path>
                <path d="M19.2908,43.4912 C20.4748,43.4912 21.4348,44.4512 21.4348,45.6352 C21.4348,46.8192 20.4748,47.7782 19.2908,47.7782 C18.1068,47.7782 17.1468,46.8192 17.1468,45.6352 C17.1468,44.4512 18.1068,43.4912 19.2908,43.4912" id="Fill-26" fill="#262633"></path>
                <g id="Group-30" transform="translate(52.000000, 39.000000)">
                    <mask id="mask-10" fill="white">
                        <use xlink:href="#path-9"></use>
                    </mask>
                    <g id="Clip-29"></g>
                    <path d="M4.3933,0.8701 C6.6383,0.8701 8.4573,2.6901 8.4573,4.9351 C8.4573,7.1801 6.6383,9.0001 4.3933,9.0001 C2.1483,9.0001 0.3283,7.1801 0.3283,4.9351 C0.3283,2.6901 2.1483,0.8701 4.3933,0.8701" id="Fill-28" fill="#262633" mask="url(#mask-10)"></path>
                </g>
                <path d="M56.3933,40.8677 C54.6993,40.8677 53.3263,42.2417 53.3263,43.9347 C53.3263,45.6287 54.6993,47.0027 56.3933,47.0027 C58.0863,47.0027 59.4593,45.6287 59.4593,43.9347 C59.4593,42.2417 58.0863,40.8677 56.3933,40.8677" id="Fill-31" fill="#FADB57"></path>
                <mask id="mask-12" fill="white">
                    <use xlink:href="#path-11"></use>
                </mask>
                <g id="Clip-34"></g>
                <polygon id="Fill-33" fill="#BA3029" mask="url(#mask-12)" points="41.315 31.887 42.498 31.887 42.498 5.871 41.315 5.871"></polygon>
                <polygon id="Fill-35" fill="#BA3029" mask="url(#mask-12)" points="72.209 31.887 73.392 31.887 73.392 5.871 72.209 5.871"></polygon>
                <path d="M34.8113,0.4019 C46.1603,0.4019 98.4083,8.0889 75.1653,8.0889 L34.8113,8.0889 C32.6983,8.0889 30.9683,6.3599 30.9683,4.2449 C30.9683,2.1309 32.6983,0.4019 34.8113,0.4019" id="Fill-36" fill="#F5AD1A" mask="url(#mask-12)"></path>
            </g>
            <g id="Group-40" transform="translate(30.000000, 0.598200)">
                <mask id="mask-14" fill="white">
                    <use xlink:href="#path-13"></use>
                </mask>
                <g id="Clip-39"></g>
                <polygon id="Fill-38" fill="#FC9129" mask="url(#mask-14)" points="-1.249 13.854 59.652 13.854 59.652 5.576 -1.249 5.576"></polygon>
            </g>
            <g id="Group-45" transform="translate(2.000000, 16.598200)" fill="#BA3029">
                <path d="M5.2722,18.7705 L3.1282,18.7705 C1.9502,18.7705 0.9852,17.8065 0.9852,16.6275 L0.9852,14.6305 C0.9852,13.4525 1.9502,12.4875 3.1282,12.4875 L5.2722,12.4875 L5.2722,18.7705 Z" id="Fill-41"></path>
                <path d="M2.8416,0.9209 C3.2296,0.9209 3.5436,7.5059 3.5436,15.6289 C3.5436,23.7519 3.2296,30.3369 2.8416,30.3369 C2.4536,30.3369 2.1396,23.7519 2.1396,15.6289 C2.1396,7.5059 2.4536,0.9209 2.8416,0.9209" id="Fill-43"></path>
            </g>
        </g>
    </g>
</svg>