<?xml version="1.0" encoding="UTF-8"?>
<svg width="120px" height="120px" viewBox="0 0 120 120" version="1.1" xmlns="http://www.w3.org/2000/svg" xmlns:xlink="http://www.w3.org/1999/xlink">
    <!-- Generator: Sketch 51.1 (57501) - http://www.bohemiancoding.com/sketch -->
    <title>Harmonica2</title>
    <desc>Created with Sketch.</desc>
    <defs></defs>
    <g id="Harmonica2" stroke="none" stroke-width="1" fill="none" fill-rule="evenodd">
        <g id="Group-39" transform="translate(60.000000, 60.000000) rotate(-30.000000) translate(-60.000000, -60.000000) translate(0.000000, 41.000000)">
            <path d="M119.310175,34.4448889 C119.310175,36.0254074 118.032982,37.3061481 116.456842,37.3061481 L2.85403509,37.3061481 C1.27789474,37.3061481 0,36.0254074 0,34.4448889 L0,10.6005926 C0,9.02077778 1.27789474,7.74074074 2.85403509,7.74074074 L116.456842,7.74074074 C118.032982,7.74074074 119.310175,9.02077778 119.310175,10.6005926 L119.310175,34.4448889 Z" id="Fill-324" fill="#181F2A"></path>
            <path d="M119.310175,30.2247778 C119.310175,31.8067037 118.032982,33.0867407 116.456842,33.0867407 L2.85403509,33.0867407 C1.27789474,33.0867407 0,31.8067037 0,30.2247778 L0,6.38048148 C0,4.80066667 1.27789474,3.51851852 2.85403509,3.51851852 L116.456842,3.51851852 C118.032982,3.51851852 119.310175,4.80066667 119.310175,6.38048148 L119.310175,30.2247778 Z" id="Fill-326" fill="#B3CAC0"></path>
            <polygon id="Fill-328" fill="#808E90" points="10.5263158 37.3694815 14.9929825 37.3694815 14.9929825 33.0740741 10.5263158 33.0740741"></polygon>
            <polygon id="Fill-330" fill="#808E90" points="23.8596491 37.3694815 28.3249123 37.3694815 28.3249123 33.0740741 23.8596491 33.0740741"></polygon>
            <polygon id="Fill-331" fill="#808E90" points="37.1929825 37.3694815 41.6596491 37.3694815 41.6596491 33.0740741 37.1929825 33.0740741"></polygon>
            <polygon id="Fill-332" fill="#808E90" points="50.5263158 37.3694815 54.9915789 37.3694815 54.9915789 33.0740741 50.5263158 33.0740741"></polygon>
            <polygon id="Fill-333" fill="#808E90" points="63.8596491 37.3694815 68.3249123 37.3694815 68.3249123 33.0740741 63.8596491 33.0740741"></polygon>
            <polygon id="Fill-334" fill="#808E90" points="77.1929825 37.3694815 81.6596491 37.3694815 81.6596491 33.0740741 77.1929825 33.0740741"></polygon>
            <polygon id="Fill-335" fill="#808E90" points="90.5263158 37.3694815 94.9929825 37.3694815 94.9929825 33.0740741 90.5263158 33.0740741"></polygon>
            <polygon id="Fill-336" fill="#808E90" points="103.859649 37.3694815 108.326316 37.3694815 108.326316 33.0740741 103.859649 33.0740741"></polygon>
            <path d="M97.7557895,24.2383704 C97.7557895,25.8188889 96.4785965,27.0989259 94.9038596,27.0989259 L25.3101754,27.0989259 C23.7340351,27.0989259 22.4561404,25.8188889 22.4561404,24.2383704 L22.4561404,4.97237037 C22.4561404,3.39114815 23.7340351,2.11111111 25.3101754,2.11111111 L94.9038596,2.11111111 C96.4785965,2.11111111 97.7557895,3.39114815 97.7557895,4.97237037 L97.7557895,24.2383704 Z" id="Fill-337" fill="#E0292E"></path>
            <path d="M97.7557895,22.1286667 C97.7557895,23.7091852 96.4785965,24.9892222 94.9038596,24.9892222 L25.3101754,24.9892222 C23.7340351,24.9892222 22.4561404,23.7091852 22.4561404,22.1286667 L22.4561404,2.86125926 C22.4561404,1.28285185 23.7340351,0 25.3101754,0 L94.9038596,0 C96.4785965,0 97.7557895,1.28285185 97.7557895,2.86125926 L97.7557895,22.1286667 Z" id="Fill-338" fill="#FF4C51"></path>
            <path d="M4.92701754,7.39733333 C4.92701754,7.98492593 4.45192982,8.45992593 3.86526316,8.45992593 C3.28140351,8.45992593 2.80701754,7.98492593 2.80701754,7.39733333 C2.80701754,6.80974074 3.28140351,6.33333333 3.86526316,6.33333333 C4.45192982,6.33333333 4.92701754,6.80974074 4.92701754,7.39733333" id="Fill-339" fill="#181F2A"></path>
            <path d="M4.92701754,29.2121481 C4.92701754,29.7997407 4.45192982,30.2761481 3.86526316,30.2761481 C3.28140351,30.2761481 2.80701754,29.7997407 2.80701754,29.2121481 C2.80701754,28.625963 3.28140351,28.1481481 3.86526316,28.1481481 C4.45192982,28.1481481 4.92701754,28.625963 4.92701754,29.2121481" id="Fill-340" fill="#181F2A"></path>
            <path d="M115.803509,7.39733333 C115.803509,7.98492593 115.329123,8.45992593 114.74386,8.45992593 C114.158596,8.45992593 113.684211,7.98492593 113.684211,7.39733333 C113.684211,6.80974074 114.158596,6.33333333 114.74386,6.33333333 C115.329123,6.33333333 115.803509,6.80974074 115.803509,7.39733333" id="Fill-341" fill="#181F2A"></path>
            <path d="M115.803509,29.2121481 C115.803509,29.7997407 115.329123,30.2761481 114.74386,30.2761481 C114.158596,30.2761481 113.684211,29.7997407 113.684211,29.2121481 C113.684211,28.625963 114.158596,28.1481481 114.74386,28.1481481 C115.329123,28.1481481 115.803509,28.625963 115.803509,29.2121481" id="Fill-342" fill="#181F2A"></path>
            <path d="M94.6182456,4.37774074 C94.6182456,4.85133333 94.2357895,5.23414815 93.7642105,5.23414815 L27.522807,5.23414815 C27.0498246,5.23414815 26.6666667,4.85133333 26.6666667,4.37774074 C26.6666667,3.90344444 27.0498246,3.51851852 27.522807,3.51851852 L93.7642105,3.51851852 C94.2357895,3.51851852 94.6182456,3.90344444 94.6182456,4.37774074" id="Fill-343" fill="#B3CAC0"></path>
        </g>
    </g>
</svg>