<?xml version="1.0" encoding="UTF-8"?>
<svg width="120px" height="120px" viewBox="0 0 120 120" version="1.1" xmlns="http://www.w3.org/2000/svg" xmlns:xlink="http://www.w3.org/1999/xlink">
    <!-- Generator: Sketch 51.1 (57501) - http://www.bohemiancoding.com/sketch -->
    <title>Car78</title>
    <desc>Created with Sketch.</desc>
    <defs></defs>
    <g id="Car78" stroke="none" stroke-width="1" fill="none" fill-rule="evenodd">
        <g id="Group" transform="translate(6.000000, 18.000000)">
            <path d="M14.9316078,30.3042722 C12.8889206,30.3042722 11.2275584,28.6317052 11.2275584,26.5752412 L11.2275584,24.9789216 L12.2601305,24.9789216 C13.5546984,24.9789216 14.6044432,23.9225402 14.6044432,22.6187979 L14.6044432,13.8206433 C14.6044432,12.5173443 13.5546984,11.4605196 12.2601305,11.4605196 L8.7027107,11.4605196 C7.4081428,11.4605196 6.35839794,12.5173443 6.35839794,13.8206433 L6.35839794,22.6187979 C6.35839794,23.9225402 7.4081428,24.9789216 8.7027107,24.9789216 L9.16461605,24.9789216 L9.16461605,26.5752412 C9.16461605,29.7767464 11.7515502,32.3811278 14.9316078,32.3811278 L21.5409494,32.3811278 L21.5409494,30.3042722 L14.9316078,30.3042722 Z" id="Fill-234" fill="#42210B"></path>
            <path d="M92.2970992,30.3042722 C94.3397864,30.3042722 96.0011486,28.6317052 96.0011486,26.5752412 L96.0011486,24.9789216 L94.9681362,24.9789216 C93.6740086,24.9789216 92.6242638,23.9225402 92.6242638,22.6187979 L92.6242638,13.8206433 C92.6242638,12.5173443 93.6740086,11.4605196 94.9681362,11.4605196 L98.5259963,11.4605196 C99.8205642,11.4605196 100.870309,12.5173443 100.870309,13.8206433 L100.870309,22.6187979 C100.870309,23.9225402 99.8205642,24.9789216 98.5259963,24.9789216 L98.0640909,24.9789216 L98.0640909,26.5752412 C98.0640909,29.7767464 95.4771568,32.3811278 92.2970992,32.3811278 L85.6877576,32.3811278 L85.6877576,30.3042722 L92.2970992,30.3042722 Z" id="Fill-236" fill="#42210B"></path>
            <path d="M91.5798469,33.9376835 L15.6490362,33.9376835 L18.4380815,7.16641546 C18.8286535,3.41699278 22.0716782,0.43846701 25.6889827,0.43846701 L81.5394601,0.43846701 C85.1572049,0.43846701 88.3997893,3.41699278 88.7908016,7.16641546 L91.5798469,33.9376835 Z" id="Fill-238" fill="#C69C6D"></path>
            <path d="M20.8738947,85.8080072 L15.1073432,85.8080072 C12.5860181,85.8080072 10.5420099,83.7502134 10.5420099,81.2118835 L10.5420099,59.8803371 L25.439228,59.8803371 L25.439228,81.2118835 C25.439228,83.7502134 23.3956601,85.8080072 20.8738947,85.8080072" id="Fill-240" fill="#42210B"></path>
            <path d="M25.439316,81.2117948 L25.439316,59.8802485 L17.990707,59.8802485 L17.990707,85.8079186 L20.8739827,85.8079186 C23.3953078,85.8079186 25.439316,83.750568 25.439316,81.2117948" id="Fill-242" fill="#592C16"></path>
            <path d="M92.1212317,85.8080072 L86.3546802,85.8080072 C83.8333551,85.8080072 81.7893469,83.7502134 81.7893469,81.2118835 L81.7893469,59.8803371 L96.686565,59.8803371 L96.686565,81.2118835 C96.686565,83.7502134 94.6429971,85.8080072 92.1212317,85.8080072" id="Fill-244" fill="#42210B"></path>
            <path d="M96.6866531,81.2117948 L96.6866531,59.8802485 L89.238044,59.8802485 L89.238044,85.8079186 L92.1213198,85.8079186 C94.6426449,85.8079186 96.6866531,83.750568 96.6866531,81.2117948" id="Fill-246" fill="#592C16"></path>
            <path d="M99.3952502,71.1795402 L7.83363292,71.1795402 L7.83363292,40.7785402 C7.83363292,35.5671175 12.02953,31.3424784 17.2060403,31.3424784 L90.0228428,31.3424784 C95.1989128,31.3424784 99.3952502,35.5671175 99.3952502,40.7785402 L99.3952502,71.1795402 Z" id="Fill-248" fill="#C69C6D"></path>
            <path d="M7.83345679,40.7784959 L7.83345679,71.1794959 L34.1752716,71.1794959 L34.1752716,44.7801557 C34.1752716,37.3588876 28.1995638,31.342434 20.8280123,31.342434 L17.2058642,31.342434 C12.0297942,31.342434 7.83345679,35.5670732 7.83345679,40.7784959" id="Fill-250" fill="#B2875B"></path>
            <path d="M73.052907,44.780333 L73.052907,71.1796732 L99.3951621,71.1796732 L99.3951621,40.7786732 C99.3951621,35.5672505 95.1988247,31.3426113 90.0227547,31.3426113 L86.4006066,31.3426113 C79.0290551,31.3426113 73.052907,37.3590649 73.052907,44.780333" id="Fill-252" fill="#B2875B"></path>
            <path d="M103.192693,72.2393351 L4.03627778,72.2393351 C1.98302263,72.2393351 0.318578189,70.5641082 0.318578189,68.4970052 C0.318578189,66.4303454 1.98302263,64.7546753 4.03627778,64.7546753 L103.192693,64.7546753 C105.245508,64.7546753 106.909953,66.4303454 106.909953,68.4970052 C106.909953,70.5641082 105.245508,72.2393351 103.192693,72.2393351" id="Fill-254" fill="#E6E6E6"></path>
            <path d="M0.318622222,68.4968278 C0.318622222,70.5639309 1.98306667,72.2391577 4.03588148,72.2391577 L30.7233547,72.2391577 C31.3305687,73.7228794 32.766042,74.6914876 34.3604741,74.6914876 L72.8685852,74.6914876 C74.462577,74.6914876 75.8984905,73.7228794 76.5052642,72.2391577 L103.192737,72.2391577 C105.245552,72.2391577 106.909997,70.5639309 106.909997,68.4968278 L0.318622222,68.4968278 Z" id="Fill-257" fill="#B3B3B3"></path>
            <path d="M63.0616609,73.9627485 L44.1671342,73.9627485 C42.2653523,73.9627485 40.7242,72.4107588 40.7242,70.4970371 L40.7242,66.4971505 C40.7242,64.5829856 42.2653523,63.0314392 44.1671342,63.0314392 L63.0616609,63.0314392 C64.9630025,63.0314392 66.5041547,64.5829856 66.5041547,66.4971505 L66.5041547,70.4970371 C66.5041547,72.4107588 64.9630025,73.9627485 63.0616609,73.9627485" id="Fill-260" fill="#FFFFFF"></path>
            <path d="M63.0616609,63.0313505 L44.1671342,63.0313505 C42.2653523,63.0313505 40.7242,64.5828969 40.7242,66.4970619 L40.7242,68.8625052 L66.5041547,68.8625052 L66.5041547,66.4970619 C66.5041547,64.5828969 64.9630025,63.0313505 63.0616609,63.0313505" id="Fill-262" fill="#F2F2F2"></path>
            <path d="M83.8930198,74.7094856 C82.4993778,74.7094856 81.3699333,73.5724237 81.3699333,72.1698258 L81.3699333,64.8243619 C81.3699333,63.4213206 82.4993778,62.2842588 83.8930198,62.2842588 C85.2866617,62.2842588 86.4161062,63.4213206 86.4161062,64.8243619 L86.4161062,72.1698258 C86.4161062,73.5724237 85.2866617,74.7094856 83.8930198,74.7094856" id="Fill-264" fill="#FFFFFF"></path>
            <path d="M23.3356872,74.7094856 C21.9420453,74.7094856 20.8126008,73.5724237 20.8126008,72.1698258 L20.8126008,64.8243619 C20.8126008,63.4213206 21.9420453,62.2842588 23.3356872,62.2842588 C24.7293292,62.2842588 25.8583333,63.4213206 25.8583333,64.8243619 L25.8583333,72.1698258 C25.8583333,73.5724237 24.7293292,74.7094856 23.3356872,74.7094856" id="Fill-266" fill="#FFFFFF"></path>
            <path d="M29.9819284,48.7306144 C29.9819284,52.9326454 26.5984387,56.3385113 22.4249984,56.3385113 C18.2511177,56.3385113 14.8680683,52.9326454 14.8680683,48.7306144 C14.8680683,44.5285835 18.2511177,41.1222742 22.4249984,41.1222742 C26.5984387,41.1222742 29.9819284,44.5285835 29.9819284,48.7306144" id="Fill-268" fill="#FFFFFF"></path>
            <path d="M22.2675807,45.8279814 C20.590807,45.8279814 19.2275477,47.2013216 19.2275477,48.8889608 C19.2275477,50.5766 20.590807,51.9499402 22.2675807,51.9499402 C23.9443543,51.9499402 25.3080539,50.5766 25.3080539,48.8889608 C25.3080539,47.2013216 23.9443543,45.8279814 22.2675807,45.8279814 M22.2675807,54.6837649 C19.094128,54.6837649 16.5120374,52.0838165 16.5120374,48.8889608 C16.5120374,45.6936619 19.094128,43.0946 22.2675807,43.0946 C25.4410333,43.0946 28.0231239,45.6936619 28.0231239,48.8889608 C28.0231239,52.0838165 25.4410333,54.6837649 22.2675807,54.6837649" id="Fill-270" fill="#CCCCCC"></path>
            <path d="M17.5499374,58.8420866 C17.5499374,60.3151691 16.3636905,61.5094165 14.9000362,61.5094165 C13.4368222,61.5094165 12.2505753,60.3151691 12.2505753,58.8420866 C12.2505753,57.3690041 13.4368222,56.1743134 14.9000362,56.1743134 C16.3636905,56.1743134 17.5499374,57.3690041 17.5499374,58.8420866" id="Fill-272" fill="#EC5C44"></path>
            <path d="M16.7621444,58.4273361 C16.7621444,59.2332536 16.1130992,59.8871196 15.3121403,59.8871196 C14.5116218,59.8871196 13.8621362,59.2332536 13.8621362,58.4273361 C13.8621362,57.6209753 14.5116218,56.9671093 15.3121403,56.9671093 C16.1130992,56.9671093 16.7621444,57.6209753 16.7621444,58.4273361" id="Fill-274" fill="#CC3A27"></path>
            <path d="M77.2463383,48.7306144 C77.2463383,52.9326454 80.6302683,56.3385113 84.8037086,56.3385113 C88.977149,56.3385113 92.3606387,52.9326454 92.3606387,48.7306144 C92.3606387,44.5285835 88.977149,41.1222742 84.8037086,41.1222742 C80.6302683,41.1222742 77.2463383,44.5285835 77.2463383,48.7306144" id="Fill-276" fill="#FFFFFF"></path>
            <path d="M81.920565,48.8890495 C81.920565,50.5766887 83.2847049,51.9495856 84.9610383,51.9495856 C86.6378119,51.9495856 88.0015115,50.5766887 88.0015115,48.8890495 C88.0015115,47.200967 86.6378119,45.8280701 84.9610383,45.8280701 C83.2847049,45.8280701 81.920565,47.200967 81.920565,48.8890495 M79.2054951,48.8890495 C79.2054951,45.6937505 81.7871453,43.0946887 84.9610383,43.0946887 C88.1344909,43.0946887 90.7170218,45.6937505 90.7170218,48.8890495 C90.7170218,52.0839052 88.1344909,54.6834103 84.9610383,54.6834103 C81.7871453,54.6834103 79.2054951,52.0839052 79.2054951,48.8890495" id="Fill-278" fill="#CCCCCC"></path>
            <path d="M89.6787695,58.8420866 C89.6787695,60.3151691 90.8650165,61.5094165 92.3286708,61.5094165 C93.7918848,61.5094165 94.9781317,60.3151691 94.9781317,58.8420866 C94.9781317,57.3690041 93.7918848,56.1743134 92.3286708,56.1743134 C90.8650165,56.1743134 89.6787695,57.3690041 89.6787695,58.8420866" id="Fill-280" fill="#EC5C44"></path>
            <path d="M90.4661222,58.4273361 C90.4661222,59.2332536 91.1156078,59.8871196 91.9165667,59.8871196 C92.7170852,59.8871196 93.3665708,59.2332536 93.3665708,58.4273361 C93.3665708,57.6209753 92.7170852,56.9671093 91.9165667,56.9671093 C91.1156078,56.9671093 90.4661222,57.6209753 90.4661222,58.4273361" id="Fill-282" fill="#CC3A27"></path>
            <path d="M38.331407,58.8420866 C37.2622877,58.8420866 36.3957198,57.9696742 36.3957198,56.8933443 L36.3957198,41.0897361 C36.3957198,40.0134062 37.2622877,39.1414371 38.331407,39.1414371 C39.400086,39.1414371 40.2666539,40.0134062 40.2666539,41.0897361 L40.2666539,56.8933443 C40.2666539,57.9696742 39.400086,58.8420866 38.331407,58.8420866" id="Fill-284" fill="#603813"></path>
            <path d="M44.4444095,58.8420866 C43.3757305,58.8420866 42.5091626,57.9696742 42.5091626,56.8933443 L42.5091626,41.0897361 C42.5091626,40.0134062 43.3757305,39.1414371 44.4444095,39.1414371 C45.5135288,39.1414371 46.3800967,40.0134062 46.3800967,41.0897361 L46.3800967,56.8933443 C46.3800967,57.9696742 45.5135288,58.8420866 44.4444095,58.8420866" id="Fill-286" fill="#603813"></path>
            <path d="M50.5578523,58.8420866 C49.4887329,58.8420866 48.622165,57.9696742 48.622165,56.8933443 L48.622165,41.0897361 C48.622165,40.0134062 49.4887329,39.1414371 50.5578523,39.1414371 C51.6265313,39.1414371 52.4930992,40.0134062 52.4930992,41.0897361 L52.4930992,56.8933443 C52.4930992,57.9696742 51.6265313,58.8420866 50.5578523,58.8420866" id="Fill-288" fill="#603813"></path>
            <path d="M56.6708547,58.8420866 C55.6021757,58.8420866 54.7356078,57.9696742 54.7356078,56.8933443 L54.7356078,41.0897361 C54.7356078,40.0134062 55.6021757,39.1414371 56.6708547,39.1414371 C57.7399741,39.1414371 58.606542,40.0134062 58.606542,41.0897361 L58.606542,56.8933443 C58.606542,57.9696742 57.7399741,58.8420866 56.6708547,58.8420866" id="Fill-290" fill="#603813"></path>
            <path d="M62.7842975,58.8420866 C61.7151782,58.8420866 60.8486103,57.9696742 60.8486103,56.8933443 L60.8486103,41.0897361 C60.8486103,40.0134062 61.7151782,39.1414371 62.7842975,39.1414371 C63.8529765,39.1414371 64.7195444,40.0134062 64.7195444,41.0897361 L64.7195444,56.8933443 C64.7195444,57.9696742 63.8529765,58.8420866 62.7842975,58.8420866" id="Fill-292" fill="#603813"></path>
            <path d="M68.8973,58.8420866 C67.828621,58.8420866 66.9620531,57.9696742 66.9620531,56.8933443 L66.9620531,41.0897361 C66.9620531,40.0134062 67.828621,39.1414371 68.8973,39.1414371 C69.9664193,39.1414371 70.8329872,40.0134062 70.8329872,41.0897361 L70.8329872,56.8933443 C70.8329872,57.9696742 69.9664193,58.8420866 68.8973,58.8420866" id="Fill-294" fill="#603813"></path>
            <path d="M22.1187934,29.7843711 C21.1086782,29.7843711 20.3213695,28.9039794 20.4266082,27.8923711 L22.5410691,7.59947423 C22.7083942,5.99739175 24.1795342,4.59169072 25.6885424,4.59169072 L81.5394601,4.59169072 C83.049349,4.59169072 84.5204889,5.99739175 84.687814,7.59991753 L86.8018346,27.8923711 C86.9075136,28.9039794 86.1197646,29.7843711 85.1100897,29.7843711 L22.1187934,29.7843711 Z" id="Fill-296" fill="#192024"></path>
            <polygon id="Fill-298" fill="#374B54" points="63.7522292 4.59164639 38.8793527 29.7843268 43.5697395 29.7843268 68.442616 4.59164639"></polygon>
            <polygon id="Fill-300" fill="#4E7684" points="73.6790111 4.59164639 48.8061346 29.7843268 53.4965214 29.7843268 78.3689576 4.59164639"></polygon>
            <path d="M84.6876819,7.59991753 C84.5811222,6.5798866 83.9457272,5.64186598 83.1099823,5.09306186 L58.7329165,29.7843711 L63.422863,29.7843711 L84.748007,8.17664948 L84.6876819,7.59991753 Z" id="Fill-302" fill="#374B54"></path>
        </g>
    </g>
</svg>