<?xml version="1.0" encoding="UTF-8"?>
<svg width="480px" height="360px" viewBox="0 0 480 360" version="1.1" xmlns="http://www.w3.org/2000/svg" xmlns:xlink="http://www.w3.org/1999/xlink">
    <!-- Generator: Sketch 51.1 (57501) - http://www.bohemiancoding.com/sketch -->
    <title>Landscape10</title>
    <desc>Created with Sketch.</desc>
    <defs></defs>
    <g id="Landscape10" stroke="none" stroke-width="1" fill="none" fill-rule="evenodd">
        <g id="Group" transform="translate(0.000000, -44.000000)">
            <g id="nordic-walking-3">
                <rect id="Rectangle-path" fill="#FA898D" x="0.34261242" y="0" width="479.657388" height="392"></rect>
                <path d="M461.533191,92 C465.37045,110.96 414.458244,73.9314286 414.458244,121.211429 C414.458244,139.862857 395.03212,121.862857 391.057816,152.72 C390.201285,159.302857 372.111349,142.742857 365.567452,171.131429 C352.856531,175.554286 357.276231,163.451429 345.182013,190.228571 C344.291221,192.217143 341.858672,193.965714 338.192719,195.474286 L98.3297645,195.474286 C92.4025696,183.542857 93.4989293,191.017143 83.0835118,187.382857 C76.5396146,158.994286 58.4154176,175.52 57.5931478,168.971429 C53.6531049,138.08 34.1927195,156.114286 34.1927195,137.462857 C34.1927195,90.1828571 5.1391863,117.302857 5.9614561,96.6628571 C6.2012848,90.32 4.07708779,84.6285714 0.34261242,79.8628571 L0.34261242,195.542857 L0.34261242,266.96 L0.34261242,392 L480,392 L480,195.542857 L480,67.9314286 C474.107066,65.8057143 457.524625,72.2514286 461.533191,92 Z" id="Shape" fill="#FFABAE"></path>
                <path d="M450.535332,149.874286 C446.389722,154.708571 412.642398,168.32 404.282655,178.16 C384.753747,201.062857 384.445396,186.251429 374.372591,181.245714 C359.126338,173.668571 365.875803,162.662857 342.132762,157.794286 C333.670236,156.08 329.93576,152 324.453961,148.708571 C314.963597,143.017143 310.372591,136.742857 302.047109,141.817143 C278.235546,156.285714 249.353319,166.365714 224.102784,179.531429 C191.109208,196.742857 206.835118,192.32 177.062099,181.657143 C150.955032,172.331429 96.4796574,144.114286 66.124197,133.657143 C65.5417559,133.794286 60.5396146,136.742857 60.0256959,137.085714 C45.3961456,146.342857 22.2698073,158.617143 0.34261242,171.405714 L0.34261242,392 L480,392 L480,163.074286 C479.349036,162.594286 478.663812,162.08 478.012848,161.6 C472.119914,157.177143 455.640257,143.874286 450.535332,149.874286 Z" id="Shape" fill="#E8696D"></path>
                <path d="M465.576017,267.405714 C459.922912,269.188571 452.728051,278.822857 449.815846,276.731429 C441.319058,270.662857 448.137045,271.142857 434.295503,264.765714 C429.122056,262.4 420.179872,260.48 419.700214,254.548571 C419.254818,248.994286 407.023555,249.817143 405.550321,241.314286 C404.591006,235.588571 398.218415,232.982857 395.169165,239.977143 C390.509636,250.708571 379.066381,248.205714 377.38758,252.422857 C375.023555,258.422857 369.987152,259.314286 368.445396,261.097143 C358.783726,272.137143 358.201285,257.36 352.342612,265.177143 C348.059957,270.868571 347.271949,276.697143 341.892934,272.411429 C339.254818,270.32 338.706638,266.617143 337.952891,266.514286 C324.316916,264.491429 331.5803,262.914286 324.796574,256.125714 C318.35546,249.68 318.149893,250.674286 313.66167,254.72 C306.706638,260.96 305.473233,265.725714 295.537473,265.725714 C282.860814,265.725714 281.798715,278.96 267.5803,270.56 C267.546039,270.56 260.111349,268.331429 259.631692,268.228571 C258.980728,265.142857 251.683084,257.771429 251.03212,257.6 C235.648822,253.417143 242.329764,253.588571 239.760171,249.988571 C231.194861,237.954286 229.824411,249.782857 226.912206,254.925714 C218.449679,269.805714 217.182013,257.12 209.130621,261.988571 C204.40257,264.868571 200.359743,263.188571 197.310493,258.56 C194.946467,254.96 175.623126,268.88 172.094218,270.56 C164.762313,273.988571 165.447537,276.182857 160.54818,271.348571 C158.62955,269.462857 162.089936,271.108571 161.91863,268.742857 C154.997859,268.742857 149.104925,270.354286 143.17773,273.92 C139.888651,275.908571 123.888651,303.165714 123.717345,306.011429 C123.30621,312.8 123.374732,316.125714 124.265525,317.908571 L480,317.908571 L480,264.388571 C478.561028,264.902857 477.259101,265.314286 476.231263,265.245714 C469.584582,264.937143 469.79015,266.068571 465.576017,267.405714 Z" id="Shape" fill="#DC5C60"></path>
                <path d="M176.650964,292.948571 C176.27409,291.474286 173.875803,285.062857 173.122056,284.617143 C177.815846,283.691429 180.96788,284.925714 180.282655,279.302857 C180.111349,277.828571 174.972163,269.36 174.149893,265.657143 C173.875803,264.422857 168.256959,251.668571 169.970021,251.737143 C172.299786,251.84 173.635974,251.428571 174.90364,253.417143 C171.134904,243.542857 165.51606,233.942857 162.089936,223.622857 C160.205567,217.965714 155.03212,206.24 151.229122,202.022857 C151.194861,201.988571 147.494647,196.194286 147.289079,196.674286 C143.246253,206.342857 138.312634,217.245714 132.933619,226.331429 C132.385439,227.257143 129.747323,233.257143 128.239829,237.645714 C125.190578,231.885714 122.415418,225.577143 120.017131,219.885714 C119.880086,219.508571 117.070664,223.931429 117.036403,223.965714 C114.158458,227.154286 110.184154,236.102857 108.779443,240.388571 C107.546039,244.091429 105.93576,247.691429 104.291221,251.222857 C102.304069,244.845714 99.117773,235.965714 99.117773,235.897143 C99.117773,235.314286 102.61242,235.622857 103.674518,235.657143 C105.182013,235.725714 99.1862955,221.702857 98.3297645,220.297143 C93.1563169,211.554286 88.4282655,201.028571 84.5224839,191.737143 C84.3169165,191.291429 80.7880086,196.845714 80.7194861,196.88 C77.0535332,200.925714 72.0513919,212.24 70.2698073,217.691429 C67.0835118,227.291429 61.9443255,236.274286 58.3126338,245.428571 C57.2162741,242.548571 55.8800857,239.565714 55.5374732,239.017143 C51.4603854,232.091429 47.7259101,223.794286 44.6423983,216.457143 C44.5053533,216.08 41.6959315,220.502857 41.6616702,220.537143 C38.9207709,223.554286 35.254818,231.714286 33.6445396,236.205714 C31.9657388,230.137143 27.5802998,217.965714 27.5802998,217.897143 C27.5802998,217.314286 31.0749465,217.622857 32.137045,217.657143 C33.6445396,217.725714 27.6488223,203.702857 26.7922912,202.297143 C21.6188437,193.554286 16.8907923,183.028571 12.9850107,173.737143 C12.7794433,173.291429 9.25053533,178.845714 9.18201285,178.88 C6.30406852,182.068571 2.60385439,189.748571 0.274089936,195.542857 L0.274089936,312.628571 C6.40685225,312.8 14.1156317,312.765714 19.254818,312.765714 C17.9186296,315.508571 16.856531,318.388571 16.993576,321.68 L179.87152,321.68 C178.158458,318.354286 176.27409,315.2 175.211991,311.84 C173.738758,307.108571 176.685225,309.851429 180.282655,310.16 C183.674518,310.434286 185.764454,312.834286 182.33833,305.188571 C180.248394,300.525714 178.158458,298.708571 176.650964,292.948571 Z M58.75803,258.148571 C58.7237687,258.251429 58.7237687,258.354286 58.6895075,258.457143 C57.4218415,254.72 56.2226981,251.394286 56.2226981,251.36 C56.2226981,250.914286 58.9635974,251.12 59.8201285,251.154286 C60.4025696,251.188571 59.5802998,248.548571 58.48394,245.737143 C59.5802998,244.537143 60.8137045,244.845714 62.7665953,244.742857 C64.4111349,244.708571 58.9978587,256.982857 58.75803,258.148571 Z" id="Shape" fill="#C24044"></path>
                <path d="M465.610278,314.564799 C462.218415,314.564799 458.278373,303.293667 458.312634,303.404712 C457.490364,302.682916 445.670236,301.350368 445.190578,302.294256 C441.044968,310.178496 436.214133,304.848306 434.364026,310.789247 C431.897216,318.784533 425.250535,312.6215 421.79015,318.173782 C416.719486,326.39116 416.27409,317.840645 413.361884,320.894401 C410.586724,323.83711 408.736617,322.782176 405.070664,322.782176 C397.807281,322.782176 403.700214,315.064505 398.115632,315.397641 C393.93576,315.675256 390.167024,309.623268 389.550321,309.734314 C386.158458,310.567156 383.143469,306.236376 383.109208,306.236376 C373.653105,306.236376 380.299786,303.515758 374.167024,302.793961 C374.269807,303.848895 368.719486,308.901472 367.862955,309.678791 C366.937901,309.567745 366.35546,312.788069 364.916488,312.732546 C356.899358,312.177318 359.880086,315.786301 354.466809,315.786301 C343.605996,315.786301 346.038544,311.899704 344.599572,311.399998 C338.877944,309.512223 342.372591,312.399409 338.432548,304.515169 C332.436831,305.625625 334.972163,311.399998 330.929336,311.399998 C327.057816,311.399998 323.220557,319.783944 320.925054,315.453164 C318.389722,310.622679 313.38758,315.342119 312.085653,312.843592 C307.254818,303.682327 303.486081,314.453753 300.67666,314.453753 C295.605996,314.453753 297.798715,316.230484 296.428266,316.674666 C290.912206,318.506919 292.69379,312.732546 288.650964,312.732546 C282.552463,312.732546 285.396146,314.453753 281.695931,314.453753 C279.43469,314.453753 276.556745,308.346243 274.398287,311.288953 C271.040685,315.841824 267.5803,313.01016 266.346895,315.17555 C264.325482,318.840056 259.768737,317.229894 258.672377,315.619733 C255.862955,311.566567 247.640257,319.339762 245.721627,311.844181 C244.625268,307.568924 238.012848,309.179086 237.430407,309.956405 C232.8394,316.230484 229.961456,309.734314 227.049251,314.453753 C225.404711,317.118849 220.642398,315.453164 220.162741,313.898525 C218.75803,309.345654 215.537473,313.565388 214.304069,311.23343 C212.728051,308.235198 209.815846,306.847127 208.650964,309.734314 C206.286938,315.675256 201.490364,311.011339 200.462527,312.954637 C196.933619,319.672899 193.952891,315.231073 192.582441,317.063326 C191.486081,318.562442 184.154176,319.173193 183.092077,317.007803 C179.734475,310.122974 173.978587,313.232251 173.327623,315.397641 C172.094218,319.395284 165.687366,315.786301 165.687366,315.730778 C164.96788,313.39882 161.336188,314.453753 161.301927,314.509276 C158.595289,317.618554 156.12848,315.508687 153.730193,315.675256 C151.366167,315.841824 144.479657,312.399409 144,313.898525 C142.252677,319.50633 136.154176,313.065683 135.777302,313.065683 C131.014989,313.343297 132.385439,304.570692 130.226981,306.680559 C127.417559,309.4567 124.231263,308.346243 123.820128,309.290131 C121.456103,314.398231 117.002141,309.734314 115.220557,315.786301 C114.261242,319.173193 109.635974,317.7296 109.601713,317.7296 C106.381156,314.009571 104.222698,323.115313 96,316.341529 C95.8972163,316.508098 90.5867238,317.174372 89.6616702,319.006625 C87.7087794,322.726654 81.0620985,319.950513 81.1991435,320.006035 C75.8543897,320.006035 77.1905782,317.34094 73.9700214,315.786301 C70.235546,313.954048 67.2890792,306.51399 67.2890792,306.569513 C65.6445396,306.569513 64.3426124,306.014285 63.1777302,307.735492 C59.3404711,313.343297 56.7366167,306.014285 55.1605996,309.012517 C52.1456103,314.731368 49.1648822,312.177318 48.8222698,315.619733 C47.9314775,324.114724 40.0513919,317.840645 40.0171306,317.840645 C32.2055675,318.395874 38.2012848,324.780998 30.9036403,324.780998 C23.4346895,324.780998 26.4154176,323.059791 24.8051392,322.560085 C24.0513919,317.174372 14.3211991,322.393517 12.7794433,317.34094 C9.97002141,308.179675 8.42826552,316.730189 7.12633833,306.125331 C6.81798715,303.571281 3.8372591,301.850073 0.34261242,300.628571 L0.34261242,448.596886 L480,448.596886 L480,319.062148 C477.910064,318.784533 476.094218,318.673488 474.963597,318.451397 C467.940043,317.229894 474.689507,314.564799 465.610278,314.564799 Z" id="Shape" fill="#572B2D"></path>
            </g>
        </g>
    </g>
</svg>