<?xml version="1.0" encoding="UTF-8"?>
<svg width="120px" height="120px" viewBox="0 0 120 120" version="1.1" xmlns="http://www.w3.org/2000/svg" xmlns:xlink="http://www.w3.org/1999/xlink">
    <!-- Generator: Sketch 51.1 (57501) - http://www.bohemiancoding.com/sketch -->
    <title>UFO1</title>
    <desc>Created with Sketch.</desc>
    <defs>
        <polygon id="path-1" points="0 0.828635323 107.884189 0.828635323 107.884189 20.9438717 0 20.9438717"></polygon>
    </defs>
    <g id="UFO1" stroke="none" stroke-width="1" fill="none" fill-rule="evenodd">
        <g id="Group-4" transform="translate(6.000000, 35.000000)">
            <path d="M78.5780036,23.7618623 C78.5780036,36.8082396 67.5504321,47.3844849 53.9472536,47.3844849 C40.3460036,47.3844849 29.3184321,36.8082396 29.3184321,23.7618623 C29.3184321,10.7135604 40.3460036,0.137315094 53.9472536,0.137315094 C67.5504321,0.137315094 78.5780036,10.7135604 78.5780036,23.7618623" id="Fill-1" fill="#B4DCE1"></path>
            <path d="M78.5780036,23.7618623 C78.5780036,10.7135604 67.5504321,0.137315094 53.9472536,0.137315094 L53.9472536,47.3844849 C67.5504321,47.3844849 78.5780036,36.8082396 78.5780036,23.7618623" id="Fill-3" fill="#BEE6EB"></path>
            <path d="M53.9472536,42.0477679 L80.9192893,43.5036736 C80.9192893,43.5036736 70.4519679,50.6532962 67.742325,50.6532962 L53.9472536,50.6532962 L40.1541107,50.6532962 C37.4435036,50.6532962 26.9752179,43.5036736 26.9752179,43.5036736 L53.9472536,42.0477679 Z" id="Fill-5" fill="#AAAAAA"></path>
            <g id="Group-9" transform="translate(0.000000, 24.111453)">
                <mask id="mask-2" fill="white">
                    <use xlink:href="#path-1"></use>
                </mask>
                <g id="Clip-8"></g>
                <path d="M107.884189,13.1437585 C107.884189,13.1437585 107.026939,13.5421358 105.268082,14.1627962 C99.2682964,16.2701547 82.7298321,20.9438717 53.9430107,20.9438717 C25.1831893,20.9438717 8.64568929,16.2855509 2.63143929,14.1627962 C0.857153571,13.5421358 -9.64285714e-05,13.1437585 -9.64285714e-05,13.1437585 C0.487832143,12.7906075 0.990225,12.4663245 1.47718929,12.125683 C20.2161536,-0.320241509 39.3109393,0.858532075 53.9430107,0.858532075 C68.5876179,0.858532075 87.6679393,-0.320241509 106.406904,12.125683 C106.893868,12.4663245 107.396261,12.7906075 107.884189,13.1437585" id="Fill-7" fill="#B4B4B4" mask="url(#mask-2)"></path>
            </g>
            <path d="M53.82585,1.85909434 C53.82585,1.85909434 54.3330643,1.83984906 55.2211714,1.80809434 C55.6628143,1.79462264 56.2066714,1.88411321 56.8373143,1.94762264 C57.4756714,2.00343396 58.14585,2.20550943 58.9066714,2.3700566 C59.6472429,2.58656604 60.4504929,2.83867925 61.2720643,3.16873585 C62.0811,3.52669811 62.9595643,3.86830189 63.7907786,4.36386792 C64.65285,4.8074717 65.4975643,5.34345283 66.3384214,5.91503774 C66.7704214,6.1844717 67.1551714,6.528 67.56885,6.83303774 C67.9728857,7.15154717 68.3962071,7.44984906 68.7713143,7.80781132 L69.9082071,8.85956604 C70.2784929,9.2175283 70.6140643,9.61013208 70.9641,9.97867925 C71.6911714,10.6965283 72.2311714,11.558717 72.83385,12.3169811 C73.3410643,13.1474151 73.8820286,13.9201132 74.2388143,14.7428491 C74.4249214,15.1479623 74.6062071,15.5415283 74.7807429,15.9216226 C74.9581714,16.3007547 75.0420643,16.7068302 75.1683857,17.0724906 C75.2812071,17.442 75.3892071,17.7970755 75.4923857,18.1348302 C75.5454214,18.4850943 75.5965286,18.8170755 75.6447429,19.1288491 C75.7517786,19.7485472 75.8202429,20.2854906 75.7855286,20.7396792 C75.7614214,21.6288113 75.7469571,22.1368868 75.7469571,22.1368868 C75.7469571,22.1368868 75.65535,21.6403585 75.49335,20.7704717 C75.4489929,20.3364906 75.2792786,19.8303396 75.0931714,19.2549057 C75.0034929,18.9671887 74.9089929,18.6631132 74.8087071,18.3407547 C74.6708143,18.0328302 74.5252071,17.7095094 74.3738143,17.3707925 C74.1067071,16.6827736 73.6891714,15.9986038 73.2697071,15.2692075 C73.07685,14.8958491 72.8242071,14.5426981 72.5599929,14.1856981 C72.3054214,13.8248491 72.0460286,13.4553396 71.78085,13.0800566 C71.1762429,12.3833774 70.6082786,11.6231887 69.9149571,10.9438302 C69.5764929,10.5993396 69.2534571,10.2336792 68.8957071,9.89881132 L67.79835,8.91633962 C67.4483143,8.56896226 67.0481357,8.27932075 66.6682071,7.96850943 C66.2786357,7.67116981 65.9189571,7.33630189 65.5101,7.07264151 C64.7107071,6.52415094 63.9489214,5.9429434 63.1427786,5.48586792 C62.3636357,4.97971698 61.5661714,4.57749057 60.8178857,4.1685283 C60.0570643,3.79613208 59.3222786,3.46318868 58.6386,3.16969811 C57.9385286,2.93971698 57.3040286,2.63756604 56.7244929,2.49803774 C56.1430286,2.35850943 55.6425643,2.16509434 55.2018857,2.09966038 C54.3263143,1.94666038 53.82585,1.85909434 53.82585,1.85909434" id="Fill-10" fill="#FFFFFF"></path>
            <path d="M105.268179,38.2738642 C107.027036,37.6532038 107.884286,37.2548264 107.884286,37.2548264 C107.396357,36.9016755 106.893964,36.5773925 106.407,36.2377132 C92.0304643,26.689166 77.4610714,25.1630151 64.8395357,24.9705623 L53.9421429,24.9705623 L53.9421429,45.0559019 C82.7299286,45.0559019 99.2683929,40.3812226 105.268179,38.2738642" id="Fill-12" fill="#BEBEBE"></path>
            <path d="M1.477575,36.2375208 L106.406325,36.2375208 C106.893289,36.5781623 107.396646,36.901483 107.884575,37.2555962 C107.884575,37.2555962 107.027325,37.6539736 105.268468,38.2736717 L2.63086071,38.2736717 C0.856575,37.6539736 0.000289285714,37.2555962 0.000289285714,37.2555962 L1.477575,36.2375208 Z" id="Fill-14" fill="#C8C8C8"></path>
        </g>
    </g>
</svg>