<?xml version="1.0" encoding="UTF-8"?>
<svg width="120px" height="120px" viewBox="0 0 120 120" version="1.1" xmlns="http://www.w3.org/2000/svg" xmlns:xlink="http://www.w3.org/1999/xlink">
    <!-- Generator: Sketch 51.1 (57501) - http://www.bohemiancoding.com/sketch -->
    <title>Dog 5</title>
    <desc>Created with Sketch.</desc>
    <defs>
        <polygon id="path-1" points="0 0.455686959 91.8509792 0.455686959 91.8509792 73.1472077 0 73.1472077"></polygon>
        <polygon id="path-3" points="0.296125 0.290677291 56.4482292 0.290677291 56.4482292 57.988255 0.296125 57.988255"></polygon>
    </defs>
    <g id="Dog-5" stroke="none" stroke-width="1" fill="none" fill-rule="evenodd">
        <g id="Group" transform="translate(14.000000, 0.000000)">
            <g id="Group-3" transform="translate(0.000000, 46.561912)">
                <mask id="mask-2" fill="white">
                    <use xlink:href="#path-1"></use>
                </mask>
                <g id="Clip-2"></g>
                <path d="M88.6407542,38.1624861 C88.657525,38.0343586 88.6699833,37.9043187 88.6819625,37.7738008 C88.692025,37.818741 88.7011292,37.8646375 88.7145458,37.9086215 C88.715025,37.9224861 88.715025,37.9358725 88.7155042,37.9502151 C88.7174208,38.0243187 88.7337125,38.0883825 88.7567125,38.1471873 C88.7217333,38.1557928 88.6800458,38.1577052 88.6407542,38.1624861 M3.66773333,32.1682231 C3.65479583,32.2122072 3.64137917,32.2557131 3.62844167,32.2992191 C3.60400417,32.3355538 3.57717083,32.3714104 3.55273333,32.4082231 C3.58819167,32.325992 3.6279625,32.2471076 3.66773333,32.1682231 M88.2976708,32.4082231 C88.1912958,32.243761 88.076775,32.0855139 87.9589,31.9310916 C87.9311083,31.8421673 87.8999625,31.753243 87.8712125,31.6643187 C88.0389208,31.8880637 88.1821917,32.1371474 88.2976708,32.4082231 M89.7251083,32.6396175 C88.5099417,30.5847968 87.0968792,28.7226454 85.6018792,26.8863108 C85.0364625,25.9755538 84.3919833,25.060494 83.660775,24.149259 C75.6591708,14.1758725 64.5338792,-3.02572112 47.3174208,1.07866135 C46.6111292,1.08392032 45.9264,1.11595219 45.2550875,1.16280478 C45.0303583,1.14702789 44.8008375,1.13650996 44.5727542,1.12360159 C27.2460875,-3.15528287 16.0685667,14.1385817 8.03629583,24.149259 C7.11294167,25.300494 6.32806667,26.4574661 5.66729583,27.6043984 C4.38744167,29.2102948 3.18281667,30.8520478 2.12529583,32.6396175 C1.02560833,34.4989004 -0.219745833,36.7396972 0.032775,38.9752351 C0.215816667,40.5973865 1.625525,41.6056733 3.19431667,41.2322869 C3.24175417,41.2203347 3.29062917,41.2026454 3.339025,41.1883028 C2.4679,42.8534821 2.44969167,44.8203347 4.58581667,45.7047968 C5.7382125,46.1819283 6.87719167,45.8573068 7.778025,45.144 C7.7809,45.1640797 7.78281667,45.1841594 7.78569167,45.204239 C7.98215,46.4018486 9.40910833,46.8741992 10.4407542,46.774757 C12.2390667,46.6012112 14.0944,44.9130837 15.4811083,43.1106932 C15.690025,43.0045578 15.9008583,42.8926853 16.1140875,42.7745976 C15.9281708,48.0536414 16.104025,53.7639203 16.6684833,59.8671873 C17.6095667,70.0518884 20.2363583,73.2995378 26.1756292,73.1417689 C34.1398583,72.9304542 36.3876292,65.3298167 36.4623792,55.8995378 C38.5089,56.020494 40.68815,56.0745179 43.0006083,56.0745179 C43.7605667,56.0745179 44.5099833,56.0582629 45.2550875,56.0343586 C46.0001917,56.0582629 46.7496083,56.0745179 47.5095667,56.0745179 C49.822025,56.0745179 52.0017542,56.020494 54.0487542,55.8995378 C54.1225458,65.3298167 56.3693583,72.9304542 64.3340667,73.1417689 C70.2728583,73.2995378 72.9006083,70.0518884 73.84265,59.8671873 C74.4329833,53.483761 74.598775,47.5310916 74.3692542,42.051251 C75.0894417,42.509259 75.7885458,42.9017689 76.4656083,43.2326056 C77.841775,44.9886215 79.653025,46.6055139 81.40965,46.774757 C82.4412958,46.8741992 83.8682542,46.4018486 84.0647125,45.204239 C84.0680667,45.1841594 84.0695042,45.1640797 84.0723792,45.144 C84.9736917,45.8573068 86.1126708,46.1819283 87.2645875,45.7047968 C89.4011917,44.8203347 89.3825042,42.8534821 88.5113792,41.1883028 C88.559775,41.2026454 88.60865,41.2203347 88.6560875,41.2322869 C90.2253583,41.6056733 91.6350667,40.5973865 91.8181083,38.9752351 C92.07015,36.7396972 90.8247958,34.4989004 89.7251083,32.6396175" id="Fill-1" fill="#78370F" mask="url(#mask-2)"></path>
            </g>
            <path d="M64.2841854,75.4535139 C64.2841854,86.7999681 58.9884354,96.1150279 44.8832062,95.9993307 C29.5906021,95.8740717 25.4812687,86.7999681 25.4812687,75.4535139 C25.4812687,64.1061036 34.1676021,52.0630757 44.8832062,52.0630757 C55.5978521,52.0630757 64.2841854,64.1061036 64.2841854,75.4535139" id="Fill-4" fill="#B27B3B"></path>
            <path d="M45.9757542,56.9985657 C34.5308583,56.9985657 25.0356917,53.918247 23.2019208,49.8769721 C22.9915667,50.339761 22.8765667,50.8149801 22.8765667,51.3011952 C22.8765667,56.0208765 33.2184208,59.84749 45.9757542,59.84749 C58.7335667,59.84749 69.0759,56.0208765 69.0759,51.3011952 C69.0759,50.8149801 68.9604208,50.339761 68.7500667,49.8769721 C66.916775,53.918247 57.4211292,56.9985657 45.9757542,56.9985657" id="Fill-6" fill="#FEB51A"></path>
            <path d="M48.2498792,62.3555857 C48.2498792,64.3339124 46.642275,65.9378964 44.6594833,65.9378964 C42.6762125,65.9378964 41.0690875,64.3339124 41.0690875,62.3555857 C41.0690875,60.3767809 42.6762125,58.7727968 44.6594833,58.7727968 C46.642275,58.7727968 48.2498792,60.3767809 48.2498792,62.3555857" id="Fill-8" fill="#FEB51A"></path>
            <path d="M46.4549208,37.7555378 C57.8998167,37.7555378 67.3949833,42.7912351 69.2287542,49.3988845 C69.4391083,48.6411155 69.5541083,47.8642231 69.5541083,47.0696414 C69.5541083,39.3537849 59.2122542,33.0984861 46.4549208,33.0984861 C33.6971083,33.0984861 23.354775,39.3537849 23.354775,47.0696414 C23.354775,47.8642231 23.4702542,48.6411155 23.6806083,49.3988845 C25.5139,42.7912351 35.0090667,37.7555378 46.4549208,37.7555378" id="Fill-10" fill="#FEB51A"></path>
            <path d="M34.9179292,8.5270757 C18.636325,6.57839044 2.01786667,21.0496255 4.24934583,38.64851 C6.03280417,52.7114582 18.8955542,45.3866773 22.5990333,36.8838884 C25.8736583,29.3654821 28.1492208,21.4856414 31.5905958,14.0088287 L34.9179292,8.5270757 Z" id="Fill-12" fill="#78370F"></path>
            <path d="M32.861825,10.1252271 C31.0194292,11.0584542 30.15645,11.5723984 28.8032833,12.6060239 C25.9038458,14.8195697 23.7030333,16.9202869 21.7887625,19.3418008 C19.6689292,22.0229163 17.8389917,24.9349482 16.2275542,27.9459442 C16.1336375,28.1218805 16.0675125,28.2433147 16.0215125,28.3274582 C15.9841375,28.4025179 15.9381375,28.4947888 15.8796792,28.6119203 C15.7172417,28.9331952 15.5572,29.2559044 15.3995542,29.5790916 C15.0028042,30.3970996 14.6127625,31.217498 14.2438042,32.0474582 C13.5672208,33.5668207 12.9198667,35.0995697 12.3276167,36.6538327 C11.0472833,40.0133546 9.99742917,43.2031554 9.14259583,46.375745 C13.74595,47.5738327 20.1595958,42.4850677 22.5990333,36.8837928 C25.8736583,29.3658645 28.1492208,21.4855458 31.5905958,14.0087331 L34.3549083,9.45494821 C33.8498667,9.66004781 33.3491375,9.87853386 32.861825,10.1252271" id="Fill-14" fill="#53150A"></path>
            <path d="M58.7185688,9.81332271 C75.1046313,9.18463745 90.4959438,24.9490996 86.8451729,42.3103745 C83.9275271,56.1835219 71.7011104,47.8447171 68.6986521,39.0708526 C66.0445479,31.3129243 64.4149021,23.2748367 61.5906938,15.5451155 L58.7185688,9.81332271 Z" id="Fill-16" fill="#78370F"></path>
            <path d="M60.6384938,11.5721116 C62.3994313,12.6506773 63.2178479,13.232988 64.4823688,14.3713147 C67.1930146,16.8119522 69.2160563,19.0833466 70.9285979,21.6516335 C72.8241813,24.4952988 74.4111812,27.545498 75.7739313,30.6760159 C75.8534729,30.8586454 75.9090563,30.9858167 75.9478687,31.0728287 C75.9794938,31.1512351 76.0178271,31.2468526 76.0667021,31.3687649 C76.2023063,31.701992 76.3355146,32.0356972 76.4668062,32.3708367 C76.7950354,33.218008 77.1179937,34.0675697 77.4193896,34.9243028 C77.9699521,36.4929084 78.4908063,38.072988 78.9555979,39.6702789 C79.9589729,43.1220717 80.7467229,46.3864542 81.3413688,49.6173705 C76.6560771,50.4392032 70.6760771,44.8508367 68.6985563,39.070757 C66.0444521,31.3133068 64.4148063,23.274741 61.5905979,15.545498 L59.2043479,10.7832669 C59.6916604,11.0285259 60.1727438,11.2862151 60.6384938,11.5721116" id="Fill-18" fill="#53150A"></path>
            <g id="Group-22" transform="translate(17.250000, 0.187410)">
                <mask id="mask-4" fill="white">
                    <use xlink:href="#path-3"></use>
                </mask>
                <g id="Clip-21"></g>
                <path d="M37.8172708,7.67717928 C38.7784792,7.29805578 39.7233958,6.98586454 40.5006042,6.71956972 C37.7870833,5.29486853 34.0040625,5.50713944 30.9450625,5.799251 C30.8751042,5.79064542 30.8032292,5.7872988 30.7332708,5.7796494 C33.0926875,4.3358247 36.1957708,4.30331474 38.884375,3.67462948 C35.5043333,1.86745817 29.9881667,3.09805578 26.5352917,4.4132749 C27.8649792,2.75096414 29.8204583,1.46443028 31.6633333,0.297418327 C27.1663542,0.120047809 22.8169583,3.37773705 20.0047292,7.08674104 C8.53491667,11.2723984 0.296125,23.8614024 0.296125,36.5015618 C0.296125,51.972 12.8018958,57.988255 28.3082083,57.988255 C43.8140417,57.988255 56.4482292,51.972 56.4482292,36.5015618 C56.4482292,24.4126375 48.6320625,12.3662629 37.8172708,7.67717928" id="Fill-20" fill="#78370F" mask="url(#mask-4)"></path>
            </g>
            <path d="M45.5583521,58.1756175 C56.4934146,58.1756175 65.9938521,55.1775299 70.6479979,47.9866135 C69.0423104,35.5482072 58.3957063,25.9348207 45.4917479,25.9348207 C32.6922479,25.9348207 22.1117687,35.3928287 20.3738312,47.6854183 C24.9177687,55.0967331 34.4689979,58.1756175 45.5583521,58.1756175" id="Fill-23" fill="#B27B3B"></path>
            <path d="M53.6306813,30.9502948 C53.6306813,34.3800956 49.8802438,37.1596972 45.2529313,37.1596972 C40.6256188,37.1596972 36.8747021,34.3800956 36.8747021,30.9502948 C36.8747021,27.520494 40.6256188,24.7408924 45.2529313,24.7408924 C49.8802438,24.7408924 53.6306813,27.520494 53.6306813,30.9502948" id="Fill-25" fill="#462C1F"></path>
            <path d="M45.3571021,33.062008 C44.2732271,36.1748367 44.3014979,39.6228048 44.2919146,42.8814502 C44.2828104,46.5483825 44.5468313,50.2100558 44.5616854,53.8774661 C44.5645604,54.4588207 45.4673104,54.4588207 45.4649146,53.8774661 C45.4505396,50.4141992 45.2579146,46.949498 45.1362063,43.4886215 C45.0140188,39.9957131 45.2981646,36.5702151 45.6321438,33.0988207 C45.6479563,32.9329243 45.4059771,32.9209721 45.3571021,33.062008" id="Fill-27" fill="#462C1F"></path>
            <path d="M39.4630167,50.3730359 C39.9000167,53.0689721 42.5713708,54.7245896 45.1521625,54.7513625 C46.4492667,54.7652271 47.5863292,54.1566215 48.5614333,53.3634741 C49.0252667,52.9862629 49.4684958,52.4393307 49.6601625,51.8727968 C49.7751625,51.5319203 49.7799542,50.7602869 49.8791417,50.5614024 L49.2222042,50.5614024 C49.2476,50.6034741 49.2725167,50.6455458 49.2969542,50.6876175 C49.40285,50.86451 49.7325167,50.9070598 49.825475,50.6876175 C49.8436833,50.6455458 49.8614125,50.6034741 49.8791417,50.5614024 C49.9898292,50.3003665 49.8647667,49.9991713 49.5509125,49.9900876 C49.2998292,49.9833944 49.1072042,50.1975777 49.0415583,50.4275378 C48.6448083,51.8221195 47.9260583,52.6343904 46.5441417,53.1688924 C43.7376625,54.2541514 41.4553917,52.2925578 40.0016,50.1464223 C39.8075375,49.8600478 39.4103083,50.0469801 39.4630167,50.3730359" id="Fill-29" fill="#462C1F"></path>
            <path d="M31.9095771,26.1371952 C30.9263271,26.1371952 30.1265979,25.3387888 30.1265979,24.3582311 C30.1265979,23.3781514 30.9263271,22.579745 31.9095771,22.579745 C32.8923479,22.579745 33.6925563,23.3781514 33.6925563,24.3582311 C33.6925563,25.3387888 32.8923479,26.1371952 31.9095771,26.1371952" id="Fill-31" fill="#282626"></path>
            <path d="M59.3184854,26.1371952 C58.3352354,26.1371952 57.5355062,25.3387888 57.5355062,24.3582311 C57.5355062,23.3781514 58.3352354,22.579745 59.3184854,22.579745 C60.3012563,22.579745 61.1009854,23.3781514 61.1009854,24.3582311 C61.1009854,25.3387888 60.3012563,26.1371952 59.3184854,26.1371952" id="Fill-35" fill="#282626"></path>
            <path d="M58.2932125,19.6302311 C58.8543167,19.5408287 59.3521708,19.2774024 59.9257333,19.2549323 C60.69815,19.2257689 61.2204417,19.5341355 61.6205458,20.1833785 C61.8673167,20.5835378 62.5716917,20.3244143 62.403025,19.8539761 C62.0824625,18.9575618 61.3344833,18.3785976 60.4068167,18.1969243 C59.5323375,18.0252908 58.3200458,18.260988 57.906525,19.128239 C57.7704417,19.4141355 57.9903792,19.6780398 58.2932125,19.6302311" id="Fill-39" fill="#462C1F"></path>
            <path d="M32.8688208,19.2315538 C32.3077167,19.1421514 31.8093833,18.878247 31.2358208,18.856255 C30.4638833,18.8266135 29.9415917,19.1359363 29.5414875,19.7847012 C29.2947167,20.1848606 28.5898625,19.9257371 28.7585292,19.4557769 C29.0790917,18.5584064 29.8270708,17.9799203 30.7547375,17.798247 C31.6296958,17.6266135 32.8415083,17.8623108 33.2555083,18.7300398 C33.3911125,19.0149801 33.1716542,19.2793625 32.8688208,19.2315538" id="Fill-41" fill="#462C1F"></path>
            <path d="M48.6438979,27.8441116 C48.6438979,28.7677769 47.0180854,29.5159841 45.0132521,29.5159841 C43.0079396,29.5159841 41.3826063,28.7677769 41.3826063,27.8441116 C41.3826063,26.9209243 43.0079396,26.172239 45.0132521,26.172239 C47.0180854,26.172239 48.6438979,26.9209243 48.6438979,27.8441116" id="Fill-43" fill="#FEFCFF"></path>
        </g>
    </g>
</svg>