<?xml version="1.0" encoding="UTF-8"?>
<svg width="120px" height="120px" viewBox="0 0 120 120" version="1.1" xmlns="http://www.w3.org/2000/svg" xmlns:xlink="http://www.w3.org/1999/xlink">
    <!-- Generator: Sketch 51.1 (57501) - http://www.bohemiancoding.com/sketch -->
    <title>Animal number9</title>
    <desc>Created with Sketch.</desc>
    <defs>
        <polygon id="path-1" points="0.1453 0.1115 77.329 0.1115 77.329 105.9995 0.1453 105.9995"></polygon>
        <polygon id="path-3" points="0.0008 0 18.9428 0 18.9428 18.9437 0.0008 18.9437"></polygon>
        <polygon id="path-5" points="0.8696 0 19.8126 0 19.8126 18.9437 0.8696 18.9437"></polygon>
    </defs>
    <g id="Animal-number9" stroke="none" stroke-width="1" fill="none" fill-rule="evenodd">
        <g id="Page-1" transform="translate(20.000000, 0.000000)">
            <g id="Group-3" transform="translate(3.000000, 14.000000)">
                <mask id="mask-2" fill="white">
                    <use xlink:href="#path-1"></use>
                </mask>
                <g id="Clip-2"></g>
                <path d="M31.4203,31.2265 C29.4093,33.1565 28.2033,35.7295 28.2033,38.5435 C28.2033,41.3585 29.4093,43.9305 31.3393,45.8605 C33.2693,47.7095 35.9223,48.8345 38.7363,48.8345 C41.3893,48.8345 44.1223,47.7095 45.9723,45.8605 C47.9823,43.9305 49.1883,41.3585 49.1883,38.5435 C49.1883,35.7295 47.9013,33.1565 45.8913,31.2265 C44.0423,29.3775 41.3893,28.2515 38.7363,28.2515 C35.9223,28.2515 33.2693,29.3775 31.4203,31.2265 M65.8303,11.4485 C72.9863,18.5235 77.3293,28.1715 77.3293,38.5435 C77.3293,46.3425 74.9163,53.9005 70.4943,60.2515 L49.6703,98.6035 C46.8573,103.3465 42.1123,105.9995 36.9673,105.9995 C32.9463,105.9995 29.5703,104.5525 26.8373,101.6585 C24.3453,99.0855 22.9783,95.6275 22.9783,92.3315 C22.9783,89.6775 23.7013,87.1055 25.2283,84.6135 L30.3743,76.2505 C21.9333,74.3215 14.2143,69.4975 8.7463,62.8245 C3.2793,56.0715 0.1453,47.5485 0.1453,38.5435 C0.1453,28.1715 4.4053,18.5235 11.4813,11.4485 C18.5563,4.2925 28.2033,0.1115 38.7363,0.1115 C49.1073,0.1115 58.7553,4.3725 65.8303,11.4485" id="Fill-1" fill="#009CFF" mask="url(#mask-2)"></path>
            </g>
            <g id="Group-6">
                <mask id="mask-4" fill="white">
                    <use xlink:href="#path-3"></use>
                </mask>
                <g id="Clip-5"></g>
                <path d="M18.9428,9.4717 C18.9428,4.2407 14.7028,-0.0003 9.4708,-0.0003 C4.2408,-0.0003 0.0008,4.2407 0.0008,9.4717 C0.0008,14.7017 4.2408,18.9437 9.4708,18.9437 C14.7028,18.9437 18.9428,14.7017 18.9428,9.4717" id="Fill-4" fill="#009CFF" mask="url(#mask-4)"></path>
            </g>
            <path d="M15.0199,9.4717 C15.0199,6.4077 12.5359,3.9227 9.4709,3.9227 C6.4079,3.9227 3.9229,6.4077 3.9229,9.4717 C3.9229,12.5357 6.4079,15.0197 9.4709,15.0197 C12.5359,15.0197 15.0199,12.5357 15.0199,9.4717" id="Fill-7" fill="#FFFFFF"></path>
            <path d="M12.9467,9.4717 C12.9467,7.6847 11.4987,6.2357 9.7107,6.2357 C7.9237,6.2357 6.4747,7.6847 6.4747,9.4717 C6.4747,11.2587 7.9237,12.7077 9.7107,12.7077 C11.4987,12.7077 12.9467,11.2587 12.9467,9.4717" id="Fill-9" fill="#1F3016"></path>
            <path d="M8.4731,7.5371 C8.4731,6.8531 7.9181,6.2991 7.2351,6.2991 C6.5501,6.2991 5.9961,6.8531 5.9961,7.5371 C5.9961,8.2211 6.5501,8.7751 7.2351,8.7751 C7.9181,8.7751 8.4731,8.2211 8.4731,7.5371" id="Fill-11" fill="#FFFFFF"></path>
            <path d="M21.7084,19.6191 L15.8154,13.7271 C14.0264,11.9371 11.2474,14.7141 13.0384,16.5051 L18.9314,22.3971 C20.7214,24.1871 23.4994,21.4101 21.7084,19.6191" id="Fill-13" fill="#009CFF"></path>
            <g id="Group-17" transform="translate(60.000000, 0.000000)">
                <mask id="mask-6" fill="white">
                    <use xlink:href="#path-5"></use>
                </mask>
                <g id="Clip-16"></g>
                <path d="M0.8696,9.4717 C0.8696,4.2407 5.1106,-0.0003 10.3416,-0.0003 C15.5726,-0.0003 19.8126,4.2407 19.8126,9.4717 C19.8126,14.7017 15.5726,18.9437 10.3416,18.9437 C5.1106,18.9437 0.8696,14.7017 0.8696,9.4717" id="Fill-15" fill="#009CFF" mask="url(#mask-6)"></path>
            </g>
            <path d="M64.7934,9.4717 C64.7934,6.4077 67.2764,3.9227 70.3414,3.9227 C73.4054,3.9227 75.8894,6.4077 75.8894,9.4717 C75.8894,12.5357 73.4054,15.0197 70.3414,15.0197 C67.2764,15.0197 64.7934,12.5357 64.7934,9.4717" id="Fill-18" fill="#FFFFFF"></path>
            <path d="M66.8656,9.4717 C66.8656,7.6847 68.3146,6.2357 70.1016,6.2357 C71.8886,6.2357 73.3386,7.6847 73.3386,9.4717 C73.3386,11.2587 71.8886,12.7077 70.1016,12.7077 C68.3146,12.7077 66.8656,11.2587 66.8656,9.4717" id="Fill-20" fill="#1F3016"></path>
            <path d="M71.3403,7.5371 C71.3403,6.8531 71.8953,6.2991 72.5783,6.2991 C73.2623,6.2991 73.8173,6.8531 73.8173,7.5371 C73.8173,8.2211 73.2623,8.7751 72.5783,8.7751 C71.8953,8.7751 71.3403,8.2211 71.3403,7.5371" id="Fill-22" fill="#FFFFFF"></path>
            <path d="M58.1039,19.6191 L63.9969,13.7271 C65.7869,11.9371 68.5649,14.7141 66.7749,16.5051 L60.8819,22.3971 C59.0919,24.1871 56.3139,21.4101 58.1039,19.6191" id="Fill-24" fill="#009CFF"></path>
            <path d="M21.8813,26.7803 C21.8813,24.2493 18.8093,22.1973 15.0203,22.1973 C11.2303,22.1973 8.1583,24.2493 8.1583,26.7803 C8.1583,29.3113 11.2303,31.3633 15.0203,31.3633 C18.8093,31.3633 21.8813,29.3113 21.8813,26.7803" id="Fill-26" fill="#F77293"></path>
            <path d="M75.5307,26.7803 C75.5307,24.2493 72.4587,22.1973 68.6697,22.1973 C64.8807,22.1973 61.8077,24.2493 61.8077,26.7803 C61.8077,29.3113 64.8807,31.3633 68.6697,31.3633 C72.4587,31.3633 75.5307,29.3113 75.5307,26.7803" id="Fill-28" fill="#F77293"></path>
            <path d="M67.4272,82.8125 C68.7222,80.5695 68.5452,78.0415 67.0312,77.1675 C65.5182,76.2935 63.2402,77.4045 61.9462,79.6485 C60.6512,81.8915 60.8272,84.4185 62.3412,85.2925 C63.8552,86.1665 66.1312,85.0555 67.4272,82.8125" id="Fill-30" fill="#42B6FF"></path>
            <path d="M57.9946,83.3525 C58.4576,82.5505 58.3936,81.6495 57.8536,81.3365 C57.3126,81.0255 56.5006,81.4205 56.0376,82.2225 C55.5756,83.0235 55.6396,83.9255 56.1796,84.2375 C56.7196,84.5495 57.5326,84.1535 57.9946,83.3525" id="Fill-32" fill="#42B6FF"></path>
            <path d="M60.6039,89.082 C61.3089,87.705 60.9729,86.123 59.8529,85.55 C58.7319,84.976 57.2519,85.627 56.5469,87.004 C55.8409,88.381 56.1779,89.962 57.2979,90.536 C58.4179,91.109 59.8989,90.459 60.6039,89.082" id="Fill-34" fill="#42B6FF"></path>
            <path d="M44.9672,41.6308 C44.9672,41.6308 43.6582,50.9858 50.0412,50.8858 C56.5782,50.7818 52.0372,38.5468 55.2562,34.6168 C55.2562,34.6168 50.0572,39.8228 44.9672,41.6308" id="Fill-36" fill="#F74A75"></path>
            <path d="M48.9916,40.5635 C48.3616,42.5635 48.2856,44.6005 48.7306,46.6475 C48.9106,47.4705 50.1736,47.1225 49.9936,46.2995 C49.5966,44.4765 49.6936,42.6895 50.2546,40.9115 C50.5086,40.1055 49.2446,39.7605 48.9916,40.5635" id="Fill-38" fill="#DE4269"></path>
            <path d="M60.1987,33.8115 C59.7537,32.1625 56.9167,29.1065 54.9587,28.7055 C53.3047,28.3665 52.6927,30.6485 54.2617,31.2305 C54.6767,31.3845 55.0687,31.5975 55.4407,31.8425 C50.6447,42.7465 36.7927,44.0945 27.2607,38.5765 C25.7987,37.7305 24.4777,39.9935 25.9377,40.8375 C36.6487,47.0385 51.4747,45.2385 57.3567,33.9255 C57.4647,34.1195 57.5897,34.3025 57.6737,34.5075 C57.9387,35.1605 58.5457,35.6285 59.2837,35.4215 C59.9027,35.2485 60.3847,34.5005 60.1987,33.8115" id="Fill-40" fill="#008CE6"></path>
        </g>
    </g>
</svg>