<?xml version="1.0" encoding="UTF-8"?>
<svg width="120px" height="120px" viewBox="0 0 120 120" version="1.1" xmlns="http://www.w3.org/2000/svg" xmlns:xlink="http://www.w3.org/1999/xlink">
    <!-- Generator: Sketch 51.1 (57501) - http://www.bohemiancoding.com/sketch -->
    <title>Owl7</title>
    <desc>Created with Sketch.</desc>
    <defs>
        <polygon id="path-1" points="0 0.222361925 32.2449167 0.222361925 32.2449167 21.6053418 0 21.6053418"></polygon>
        <polygon id="path-3" points="0.633317965 0.634362672 9.83131728 0.634362672 9.83131728 12.519685 0.633317965 12.519685"></polygon>
        <polygon id="path-5" points="0.597682722 0.634362672 9.79561189 0.634362672 9.79561189 12.519685 0.597682722 12.519685"></polygon>
    </defs>
    <g id="Owl7" stroke="none" stroke-width="1" fill="none" fill-rule="evenodd">
        <g id="Group" transform="translate(0.000000, 7.000000)">
            <g id="Group-3" transform="translate(0.000000, 22.628079)">
                <mask id="mask-2" fill="white">
                    <use xlink:href="#path-1"></use>
                </mask>
                <g id="Clip-2"></g>
                <path d="M32.2449167,18.2193969 C28.84075,8.90475118 11.78075,-1.14271339 10.26575,0.375507087 C8.74991667,1.89289291 15.5074167,9.25196378 15.5074167,9.25196378 C15.5074167,9.25196378 11.5449167,7.82471969 6.40158333,7.32226299 C5.92241667,7.27635748 5.37325,7.26550709 5.03741667,7.61021575 C4.41325,8.24955433 5.10825,9.28534961 5.79158333,9.85875118 C7.56075,11.3435858 9.47825,12.6506409 11.50575,13.7548772 C8.77825,13.5737591 6.02908333,13.7298378 3.33908333,14.2189402 C1.82575,14.4935386 -0.0100833333,15.2806094 -8.33333333e-05,16.8213654 C0.00825,18.0591449 1.24658333,18.8846094 2.36491667,19.4104362 C10.35575,23.1688457 24.1099167,21.6547984 32.2449167,18.2193969" id="Fill-1" fill="#380D00" mask="url(#mask-2)"></path>
            </g>
            <path d="M87.3506667,40.8474756 C90.7548333,31.5328299 107.814833,21.4853654 109.329833,23.0035858 C110.845667,24.5209717 104.088167,31.8800425 104.088167,31.8800425 C104.088167,31.8800425 108.050667,30.4527984 113.194,29.9503417 C113.673167,29.9044362 114.222333,29.8935858 114.558167,30.2382945 C115.182333,30.8776331 114.487333,31.9134283 113.804,32.4868299 C112.034833,33.9716646 110.117333,35.2787197 108.089833,36.3829559 C110.817333,36.2018378 113.5665,36.3579165 116.2565,36.8470189 C117.769833,37.1216173 119.605667,37.9086882 119.595667,39.4494441 C119.587333,40.6872236 118.349,41.5126882 117.230667,42.038515 C109.239833,45.7969244 95.4856667,44.2828772 87.3506667,40.8474756" id="Fill-4" fill="#380D00"></path>
            <path d="M75.61525,79.2305764 L43.9810833,79.2305764 C43.9810833,79.2305764 43.4969167,86.2290803 47.2469167,93.2359307 C50.9960833,100.243616 52.1369167,89.8864976 52.1369167,89.8864976 C52.1369167,89.8864976 52.70025,92.3228283 55.65025,97.6537102 C56.99275,100.080025 58.4794167,101.405443 59.9444167,101.468876 C61.38275,101.405443 62.8419167,100.080025 64.1594167,97.6537102 C67.0560833,92.3228283 67.6094167,89.8864976 67.6094167,89.8864976 C67.6094167,89.8864976 68.7294167,100.243616 72.4094167,93.2359307 C76.0894167,86.2290803 75.61525,79.2305764 75.61525,79.2305764" id="Fill-6" fill="#380D00"></path>
            <path d="M90.0334167,50.110874 C87.2409167,42.2944173 90.3875833,37.8056929 90.3875833,37.8056929 L29.3975833,37.8056929 C29.3975833,37.8056929 32.53175,42.2894094 29.7525833,50.110874 C25.1050833,63.1881024 32.2409167,83.0025906 59.80425,83.0025906 L59.98175,83.0025906 C87.54425,83.0025906 94.15925,61.6607008 90.0334167,50.110874" id="Fill-8" fill="#C8B4AB"></path>
            <path d="M81.2866667,0.676062992 C81.7475,0.285448819 82.3158333,-0.107669291 82.9041667,0.0275433071 C83.4883333,0.16192126 83.8458333,0.79792126 83.8608333,1.39719685 C83.8766667,1.99730709 83.6316667,2.56987402 83.3908333,3.11990551 C83.1091667,3.76258268 82.8275,4.40692913 82.545,5.0496063 C83.9441667,3.77009449 85.4133333,2.56737008 86.9441667,1.44894488 C87.6575,0.926456693 88.8975,0.552535433 89.2233333,1.37549606 C89.3508333,1.69850394 89.2391667,2.06240945 89.1116667,2.38625197 C88.7125,3.39533858 88.16,4.34266142 87.4791667,5.18648819 C89.0883333,3.83519685 91.1775,3.07066142 93.2775,3.0648189 C93.5216667,3.06398425 93.7808333,3.07817323 93.9833333,3.21505512 C94.5475,3.59398425 94.2333333,4.48037795 93.8216667,5.0203937 C91.7533333,7.73299213 88.5791667,9.36388976 85.39,10.5649449 C80.27,12.4929764 74.8216667,13.5412913 69.3525,13.6514646 C71.9225,11.7868661 77.0283333,4.28256693 81.2866667,0.676062992" id="Fill-10" fill="#380D00"></path>
            <path d="M38.3089167,0.676062992 C37.8480833,0.285448819 37.27975,-0.107669291 36.6914167,0.0275433071 C36.10725,0.16192126 35.74975,0.79792126 35.73475,1.39719685 C35.7189167,1.99730709 35.9639167,2.56987402 36.20475,3.11990551 C36.4864167,3.76258268 36.7680833,4.40692913 37.0505833,5.0496063 C35.6514167,3.77009449 34.18225,2.56737008 32.6514167,1.44894488 C31.9380833,0.926456693 30.6980833,0.552535433 30.37225,1.37549606 C30.2439167,1.69850394 30.3564167,2.06240945 30.4839167,2.38625197 C30.8830833,3.39533858 31.43475,4.34266142 32.1164167,5.18648819 C30.50725,3.83519685 28.4180833,3.07066142 26.3180833,3.0648189 C26.0739167,3.06398425 25.81475,3.07817323 25.61225,3.21505512 C25.0480833,3.59398425 25.36225,4.48037795 25.7739167,5.0203937 C27.84225,7.73299213 31.0164167,9.36388976 34.2055833,10.5649449 C39.3255833,12.4929764 44.7739167,13.5412913 50.2430833,13.6514646 C47.6730833,11.7868661 42.56725,4.28256693 38.3089167,0.676062992" id="Fill-12" fill="#380D00"></path>
            <path d="M96.176,52.9897339 C95.6093333,42.926411 94.576,18.0898598 94.576,18.0898598 C94.576,18.0898598 79.0101667,9.6090252 59.7918333,9.58815906 C40.5735,9.6090252 25.0085,18.0898598 25.0085,18.0898598 C25.0085,18.0898598 24.0435,41.5191984 23.4168333,52.9897339 C22.8576667,63.2249937 25.656,88.5790252 59.686,88.5790252 L59.906,88.5790252 C93.936,88.5790252 96.7518333,63.2241591 96.176,52.9897339" id="Fill-14" fill="#642710"></path>
            <path d="M93.5604167,61.8048441 C92.82875,55.8137575 89.7579167,50.0805764 85.0204167,45.8639465 L34.5745833,45.8639465 C29.8379167,50.0805764 26.7670833,55.8137575 26.0354167,61.8048441 C25.8495833,63.3247339 26.12375,65.3145291 27.7495833,65.7093165 C29.87625,66.2242929 33.2154167,63.8488913 33.2154167,63.8488913 C33.2154167,63.8488913 30.4029167,69.0186866 31.76875,71.8205921 C32.5379167,73.3997417 34.95625,73.7761669 36.8154167,73.4247811 C38.67375,73.0725606 40.2845833,72.0567969 41.83875,71.0652378 C41.3554167,72.1344189 40.8679167,73.2236315 40.7529167,74.3746079 C40.63875,75.5247496 40.95125,76.7692063 41.86875,77.5687969 C43.01875,78.5703717 44.8254167,78.6504976 46.37375,78.3116315 C48.7295833,77.7974898 50.76875,76.4979465 52.7445833,75.2251118 C51.82125,77.7824661 54.8054167,84.0022457 59.6579167,84.0022457 C64.5104167,84.0022457 67.7745833,77.7824661 66.8504167,75.2251118 C68.82625,76.4979465 70.86625,77.7974898 73.22125,78.3116315 C74.7704167,78.6504976 76.5770833,78.5703717 77.7270833,77.5687969 C78.6445833,76.7692063 78.9570833,75.5247496 78.8420833,74.3746079 C78.7279167,73.2236315 78.2395833,72.1344189 77.7570833,71.0652378 C79.3104167,72.0567969 80.92125,73.0725606 82.7804167,73.4247811 C84.63875,73.7761669 87.0579167,73.3997417 87.8270833,71.8205921 C89.1929167,69.0186866 86.3795833,63.8488913 86.3795833,63.8488913 C86.3795833,63.8488913 89.71875,66.2242929 91.84625,65.7093165 C93.4720833,65.3145291 93.74625,63.3247339 93.5604167,61.8048441" id="Fill-16" fill="#C8B4AB"></path>
            <path d="M59.8039167,73.0693055 C59.80225,73.0693055 59.79975,73.0684709 59.7980833,73.0684709 C59.7955833,73.0684709 59.7939167,73.0693055 59.7914167,73.0693055 L59.8039167,73.0693055 Z" id="Fill-18" fill="#E2DAD6"></path>
            <path d="M95.1795,47.3982756 C94.7711667,43.9787323 93.5395,41.0182441 91.5386667,38.2188425 L28.057,38.2188425 C26.0561667,41.0182441 24.8236667,43.9787323 24.4161667,47.3982756 C24.2703333,48.6227008 24.5736667,49.9481181 25.5686667,50.6734252 C27.2278333,51.8811575 31.192,48.5884803 31.192,48.5884803 C31.192,48.5884803 28.9261667,53.7774724 30.7261667,56.2905906 C31.4828333,57.3480866 33.0995,57.4415669 34.272,56.880685 C35.4445,56.3198031 36.2886667,55.2623071 37.0911667,54.2381969 C36.7986667,55.6971575 36.5045,57.1803228 36.6295,58.6634882 C36.7545,60.1458189 37.3578333,61.6556929 38.5503333,62.5437559 C39.8178333,63.4869055 41.5761667,63.5812205 43.0761667,63.0854409 C44.5753333,62.5888268 45.8503333,61.5722283 46.9603333,60.4479606 C46.3136667,63.0987953 45.8545,66.6618976 48.227,68.0031732 C50.5995,69.3427795 53.3928333,67.5315984 55.3228333,65.6052362 C55.3228333,65.6052362 54.6203333,73.0627953 59.7978333,73.0686378 C64.9753333,73.0627953 64.2728333,65.6052362 64.2728333,65.6052362 C66.2028333,67.5315984 68.9953333,69.3427795 71.3686667,68.0031732 C73.7411667,66.6618976 73.282,63.0987953 72.6353333,60.4479606 C73.7453333,61.5722283 75.0203333,62.5888268 76.5195,63.0854409 C78.0186667,63.5812205 79.7778333,63.4869055 81.0453333,62.5437559 C82.2378333,61.6556929 82.8411667,60.1458189 82.9661667,58.6634882 C83.0911667,57.1803228 82.797,55.6971575 82.5045,54.2381969 C83.307,55.2623071 84.1511667,56.3198031 85.3236667,56.880685 C86.4961667,57.4415669 88.112,57.3480866 88.8695,56.2905906 C90.6695,53.7774724 88.4036667,48.5884803 88.4036667,48.5884803 C88.4036667,48.5884803 92.3678333,51.8811575 94.0261667,50.6734252 C95.022,49.9481181 95.3253333,48.6227008 95.1795,47.3982756" id="Fill-20" fill="#E2DAD6"></path>
            <path d="M69.701,15.4575543 C61.8726667,18.4914913 59.7976667,32.1304362 59.7976667,32.1304362 C59.7976667,32.1304362 57.7226667,18.4914913 49.8943333,15.4575543 C37.3393333,10.5924047 21.6101667,21.351822 27.2976667,38.6598693 C40.0243333,41.5777906 52.3951667,48.542074 59.7976667,56.9152394 C67.2001667,48.542074 79.5718333,41.5777906 92.2985,38.6598693 C97.9851667,21.351822 82.256,10.5924047 69.701,15.4575543" id="Fill-22" fill="#C8B4AB"></path>
            <path d="M55.0505,29.3832835 C55.0505,36.0854882 48.848,41.5190315 42.1571667,41.5190315 C35.4663333,41.5190315 29.4388333,36.0854882 29.4388333,29.3832835 C29.4388333,23.6801496 36.5271667,16.4012047 43.2013333,16.8761181 C49.4163333,17.3176457 55.0505,22.6810787 55.0505,29.3832835" id="Fill-24" fill="#3A0D00"></path>
            <path d="M31.3610833,29.3832835 C31.3610833,35.4035827 36.2335833,40.2845906 42.2444167,40.2845906 C48.25525,40.2845906 53.12775,35.4035827 53.12775,29.3832835 C53.12775,23.3629843 48.25525,18.482811 42.2444167,18.482811 C36.2335833,18.482811 31.3610833,23.3629843 31.3610833,29.3832835" id="Fill-26" fill="#FFFFFF"></path>
            <path d="M33.50675,31.2237606 C33.50675,36.0354929 37.4009167,39.9357921 42.20425,39.9357921 C47.0075833,39.9357921 50.90175,36.0354929 50.90175,31.2237606 C50.90175,26.412863 47.0075833,22.5125638 42.20425,22.5125638 C37.4009167,22.5125638 33.50675,26.412863 33.50675,31.2237606" id="Fill-28" fill="#000000"></path>
            <path d="M90.1570833,29.3832835 C90.1570833,36.0854882 83.9554167,41.5190315 77.26375,41.5190315 C70.5729167,41.5190315 64.5454167,36.0854882 64.5454167,29.3832835 C64.5454167,23.6801496 71.63375,16.4012047 78.30875,16.8761181 C84.52375,17.3176457 90.1570833,22.6810787 90.1570833,29.3832835" id="Fill-30" fill="#3A0D00"></path>
            <path d="M66.4681667,29.3832835 C66.4681667,35.4035827 71.3406667,40.2845906 77.3515,40.2845906 C83.3615,40.2845906 88.2348333,35.4035827 88.2348333,29.3832835 C88.2348333,23.3629843 83.3615,18.482811 77.3515,18.482811 C71.3406667,18.482811 66.4681667,23.3629843 66.4681667,29.3832835" id="Fill-32" fill="#FFFFFF"></path>
            <path d="M68.6133333,31.2237606 C68.6133333,36.0354929 72.5075,39.9357921 77.3108333,39.9357921 C82.1141667,39.9357921 86.0083333,36.0354929 86.0083333,31.2237606 C86.0083333,26.412863 82.1141667,22.5125638 77.3108333,22.5125638 C72.5075,22.5125638 68.6133333,26.412863 68.6133333,31.2237606" id="Fill-34" fill="#000000"></path>
            <path d="M64.3209167,13.3081748 L64.2925833,13.3257024 C63.3559167,13.9124583 62.6200833,14.7646315 61.9000833,15.604285 C62.2209167,14.3022378 62.54425,12.9534504 62.3109167,11.6330409 C62.0784167,10.3117969 61.1325833,9.01809606 59.8075833,8.82445827 L59.7875833,8.82445827 C58.4625833,9.01809606 57.51675,10.3117969 57.28425,11.6330409 C57.05175,12.9534504 57.3750833,14.3022378 57.6959167,15.604285 C56.9750833,14.7646315 56.23925,13.9124583 55.3025833,13.3257024 L55.2750833,13.3081748 C53.6909167,12.3308047 51.7134167,13.7897654 52.0250833,15.6268205 C52.3725833,17.672537 53.53925,19.6756866 54.6725833,21.4801906 C55.7709167,23.2296079 56.86925,24.9781906 57.9675833,26.7276079 L61.6275833,26.7276079 C62.7259167,24.9781906 63.8250833,23.2296079 64.9234167,21.4801906 C66.05675,19.6756866 67.2234167,17.672537 67.5700833,15.6268205 C67.88175,13.7897654 65.90425,12.3308047 64.3209167,13.3081748" id="Fill-36" fill="#380D00"></path>
            <path d="M62.3625,38.2367039 L57.2333333,38.2367039 C56.4208333,35.0842472 56.6408333,31.6655386 57.2333333,28.1516803 L62.3625,28.1516803 C63.305,31.754011 63.5291667,35.1735543 62.3625,38.2367039" id="Fill-38" fill="#000000"></path>
            <path d="M61.98975,38.3100693 C61.98975,38.3100693 61.7455833,35.5089984 59.7980833,35.5089984 C57.8505833,35.5089984 57.6055833,38.4110614 57.6055833,38.4110614 C59.0680833,39.2373606 60.52975,39.2031402 61.98975,38.3100693" id="Fill-40" fill="#752445"></path>
            <path d="M56.4420833,38.3239244 C56.4420833,38.3239244 56.81625,42.6131685 59.7979167,42.6131685 C62.77875,42.6131685 63.15375,38.169515 63.15375,38.169515 C60.9145833,36.9041921 58.6779167,36.9559402 56.4420833,38.3239244" id="Fill-42" fill="#A44118"></path>
            <path d="M59.8975,23.8594315 C58.1641667,23.8460772 56.1941667,29.4139984 56.0383333,31.9905496 C58.5441667,30.7669591 61.05,30.7093685 63.555,31.817778 C63.6433333,31.4271638 61.6308333,23.8727858 59.8975,23.8594315" id="Fill-44" fill="#CA6E13"></path>
            <path d="M97.8699167,89.4892063 C95.6874167,87.9476157 93.0099167,87.1221512 90.39575,87.9985291 C87.73325,88.8907654 86.05825,91.1201039 84.65825,93.4287339 C84.5490833,93.4187181 84.5024167,93.1541354 84.2390833,92.3745764 C83.8699167,91.2811906 83.7299167,90.1711118 83.6849167,89.023474 C83.5565833,85.8075843 78.55575,85.7950646 78.6849167,89.023474 C78.81075,92.1993008 79.5249167,97.0611118 82.94825,98.3840252 C84.1465833,98.8472535 85.3274167,98.6235685 86.4374167,98.1378047 C86.67325,98.0910646 86.90825,98.0259622 87.1365833,97.9258047 C88.8590833,97.171285 90.5365833,98.0259622 91.6199167,99.3839307 C92.4640833,100.442261 94.2765833,100.264482 95.15575,99.3839307 C95.6140833,98.9248756 95.8215833,98.3890331 95.8515833,97.8440094 C97.2640833,97.5018047 98.5615833,95.8892693 97.8199167,94.1106394 C97.7990833,94.0605606 97.77325,94.0138205 97.7515833,93.9637417 C99.08825,93.1007181 99.6274167,90.7294898 97.8699167,89.4892063" id="Fill-46" fill="#CA6E13"></path>
            <path d="M89.1785,95.3430772 C85.246,95.8296756 83.6701667,98.3920378 83.296,98.4713291 C84.3743333,98.7726362 85.4351667,98.5773291 86.4376667,98.1383055 C86.6735,98.0907307 86.9085,98.0256283 87.136,97.9263055 C88.8593333,97.1709512 90.536,98.0256283 91.6201667,99.3844315 C92.4635,100.441928 94.276,100.264148 95.1551667,99.3844315 C95.2543333,99.2851087 92.7076667,94.9065575 89.1785,95.3430772" id="Fill-48" fill="#A74E16"></path>
            <path d="M97.73525,96.3220331 C93.8985833,90.7733087 89.5119167,93.2947732 89.5119167,93.2947732 C94.09525,92.600348 95.8510833,97.8435921 95.8510833,97.8435921 C96.6219167,97.6574661 97.3460833,97.0848992 97.73525,96.3220331" id="Fill-50" fill="#A74E16"></path>
            <path d="M98.9766667,91.7225512 C94.1783333,87.292252 91.3066667,90.4480472 91.3066667,90.4480472 C95.6533333,89.4648346 97.4341667,93.1731654 97.7591667,93.9585669 C98.4608333,93.5011811 98.9366667,92.6281417 98.9766667,91.7225512" id="Fill-52" fill="#A74E16"></path>
            <path d="M80.7088333,80.7620677 L76.7955,82.5548866 C76.6621667,83.8569339 75.9988333,89.8213118 76.033,91.1300362 C76.0563333,92.0164299 76.1605,92.9946346 76.8105,93.5972488 C77.0838333,93.8501465 77.4788333,94.0154063 77.8313333,93.896052 C78.0363333,93.827611 78.2005,93.6740362 78.3455,93.5129496 C78.9488333,92.8418945 79.3263333,91.9713591 79.4046667,91.071611 C79.7055,91.9438157 80.2005,92.7492488 80.8421667,93.4127921 C81.2038333,93.7858787 81.8213333,94.1172331 82.1988333,93.7591701 C82.3463333,93.6189496 82.4038333,93.4102882 82.4446667,93.2108079 C82.6155,92.3886819 82.623,91.5323354 82.4688333,90.7068709 C83.1221667,91.5732331 84.5513333,91.5665559 85.358,90.8412488 C86.1646667,90.1167764 86.383,88.8915165 86.1196667,87.8381937 C85.8563333,86.7848709 85.1855,85.880115 84.4396667,85.0922094 C83.9063333,84.5296583 81.3263333,81.2311386 80.7088333,80.7620677" id="Fill-54" fill="#642710"></path>
            <g id="Group-58" transform="translate(80.000000, 92.738315)">
                <mask id="mask-4" fill="white">
                    <use xlink:href="#path-3"></use>
                </mask>
                <g id="Clip-57"></g>
                <path d="M1.03358333,2.38558425 C-0.431416667,6.77665512 2.27191667,11.4239622 6.74775,12.4480724 C9.87691667,13.1633638 11.16525,8.3224189 8.01608333,7.60295433 C6.05108333,7.15391496 5.23858333,5.55139528 5.87108333,3.65591496 C6.89025,0.598607874 2.05108333,-0.665045669 1.03358333,2.38558425" id="Fill-56" fill="#CA6E13" mask="url(#mask-4)"></path>
            </g>
            <path d="M88.016,100.341186 C86.0518333,99.8921465 85.2385,98.2896268 85.871,96.3941465 C85.871,96.3941465 82.2801667,100.759343 88.3676667,105.026052 C90.2093333,104.137989 90.541,100.917926 88.016,100.341186" id="Fill-59" fill="#A74E16"></path>
            <path d="M21.7256667,89.4892063 C23.9081667,87.9476157 26.5856667,87.1221512 29.1998333,87.9985291 C31.8623333,88.8907654 33.5373333,91.1201039 34.9373333,93.4287339 C35.0465,93.4187181 35.0931667,93.1541354 35.3565,92.3745764 C35.7256667,91.2811906 35.8656667,90.1711118 35.9106667,89.023474 C36.039,85.8075843 41.039,85.7950646 40.9106667,89.023474 C40.7848333,92.1993008 40.0706667,97.0611118 36.6473333,98.3840252 C35.449,98.8472535 34.2681667,98.6235685 33.1581667,98.1378047 C32.9223333,98.0910646 32.6873333,98.0259622 32.459,97.9258047 C30.7365,97.171285 29.059,98.0259622 27.9756667,99.3839307 C27.1315,100.442261 25.319,100.264482 24.4398333,99.3839307 C23.9815,98.9248756 23.774,98.3890331 23.744,97.8440094 C22.3315,97.5018047 21.034,95.8892693 21.7756667,94.1106394 C21.7965,94.0605606 21.8223333,94.0138205 21.844,93.9637417 C20.5073333,93.1007181 19.9681667,90.7294898 21.7256667,89.4892063" id="Fill-61" fill="#CA6E13"></path>
            <path d="M30.4166667,95.3430772 C34.3491667,95.8296756 35.925,98.3920378 36.3,98.4713291 C35.2208333,98.7726362 34.16,98.5773291 33.1583333,98.1383055 C32.9225,98.0907307 32.6875,98.0256283 32.4591667,97.9263055 C30.7358333,97.1709512 29.0591667,98.0256283 27.9758333,99.3844315 C27.1316667,100.441928 25.3191667,100.264148 24.44,99.3844315 C24.3416667,99.2851087 26.8883333,94.9065575 30.4166667,95.3430772" id="Fill-63" fill="#A74E16"></path>
            <path d="M21.8604167,96.3220331 C25.6970833,90.7733087 30.08375,93.2947732 30.08375,93.2947732 C25.5004167,92.600348 23.7445833,97.8435921 23.7445833,97.8435921 C22.9729167,97.6574661 22.2495833,97.0848992 21.8604167,96.3220331" id="Fill-65" fill="#A74E16"></path>
            <path d="M20.6189167,91.7225512 C25.41725,87.292252 28.2889167,90.4480472 28.2889167,90.4480472 C23.94225,89.4648346 22.1614167,93.1731654 21.8364167,93.9585669 C21.13475,93.5011811 20.6589167,92.6281417 20.6189167,91.7225512" id="Fill-67" fill="#A74E16"></path>
            <path d="M38.88675,80.7620677 L42.8000833,82.5548866 C42.9334167,83.8569339 43.59675,89.8213118 43.5625833,91.1300362 C43.53925,92.0164299 43.4350833,92.9946346 42.7850833,93.5972488 C42.51175,93.8501465 42.11675,94.0154063 41.76425,93.896052 C41.55925,93.827611 41.3950833,93.6740362 41.2500833,93.5129496 C40.64675,92.8418945 40.26925,91.9713591 40.1909167,91.071611 C39.8900833,91.9438157 39.3950833,92.7492488 38.7534167,93.4127921 C38.39175,93.7858787 37.77425,94.1172331 37.39675,93.7591701 C37.24925,93.6189496 37.19175,93.4102882 37.1509167,93.2108079 C36.9800833,92.3886819 36.9725833,91.5323354 37.12675,90.7068709 C36.4734167,91.5732331 35.04425,91.5665559 34.23675,90.8412488 C33.4309167,90.1167764 33.2125833,88.8915165 33.4759167,87.8381937 C33.73925,86.7848709 34.4100833,85.880115 35.1559167,85.0922094 C35.68925,84.5296583 38.26925,81.2311386 38.88675,80.7620677" id="Fill-69" fill="#642710"></path>
            <g id="Group-73" transform="translate(29.166667, 92.738315)">
                <mask id="mask-6" fill="white">
                    <use xlink:href="#path-5"></use>
                </mask>
                <g id="Clip-72"></g>
                <path d="M9.39541667,2.38558425 C10.8604167,6.77665512 8.15625,11.4239622 3.68125,12.4480724 C0.552083333,13.1633638 -0.73625,8.3224189 2.41291667,7.60295433 C4.37791667,7.15391496 5.19041667,5.55139528 4.55791667,3.65591496 C3.53875,0.598607874 8.37791667,-0.665045669 9.39541667,2.38558425" id="Fill-71" fill="#CA6E13" mask="url(#mask-6)"></path>
            </g>
            <path d="M31.5796667,100.341186 C33.5438333,99.8921465 34.3571667,98.2896268 33.7246667,96.3941465 C33.7246667,96.3941465 37.3155,100.759343 31.228,105.026052 C29.3863333,104.137989 29.0546667,100.917926 31.5796667,100.341186" id="Fill-74" fill="#A74E16"></path>
        </g>
    </g>
</svg>