<?xml version="1.0" encoding="UTF-8"?>
<svg width="120px" height="120px" viewBox="0 0 120 120" version="1.1" xmlns="http://www.w3.org/2000/svg" xmlns:xlink="http://www.w3.org/1999/xlink">
    <!-- Generator: Sketch 51.1 (57501) - http://www.bohemiancoding.com/sketch -->
    <title>Fire truck4</title>
    <desc>Created with Sketch.</desc>
    <defs></defs>
    <g id="Fire-truck4" stroke="none" stroke-width="1" fill="none" fill-rule="evenodd">
        <g id="derrick" transform="translate(0.000000, 32.000000)">
            <path d="M69.6431907,13.7918961 C69.590428,13.7918961 69.5376654,13.7876647 69.4828016,13.7796721 L42.457821,9.59320755 C41.8914397,9.50528921 41.5015564,8.97072688 41.5888716,8.39925766 C41.6761868,7.82778843 42.1979767,7.44555521 42.7746304,7.5243056 L69.7996109,11.7107702 C70.3659922,11.7986885 70.7558755,12.3332509 70.6685603,12.9047201 C70.5889494,13.4218868 70.146537,13.7918961 69.6431907,13.7918961 Z" id="Shape" fill="#FF6464"></path>
            <rect id="Rectangle-path" fill="#625D6B" x="65.4833463" y="14.8384534" width="4.15774319" height="6.27957934"></rect>
            <rect id="Rectangle-path" fill="#504B5A" x="2.07875486" y="6.46552428" width="2.07875486" height="14.6522734"></rect>
            <rect id="Rectangle-path" fill="#625D6B" x="75.8775875" y="42.0498856" width="6.23649805" height="6.27957934"></rect>
            <path d="M96.6658366,50.4228147 L82.1140856,50.4228147 C80.9661479,50.4228147 80.0353307,49.4855676 80.0353307,48.3297 L80.0353307,39.9570059 L96.66607,39.9570059 L96.66607,50.4228147 L96.6658366,50.4228147 Z" id="Shape" fill="#736F7B"></path>
            <path d="M91.468716,48.3294649 L85.2322179,48.3294649 C84.6581323,48.3294649 84.1928405,47.8609589 84.1928405,47.2829075 L84.1928405,45.1897928 C84.1928405,44.6117414 84.6581323,44.1432354 85.2322179,44.1432354 L91.468716,44.1432354 C92.0428016,44.1432354 92.5080934,44.6117414 92.5080934,45.1897928 L92.5080934,47.2829075 C92.5080934,47.8609589 92.0428016,48.3294649 91.468716,48.3294649 Z" id="Shape" fill="#625D6B"></path>
            <path d="M75.8775875,48.3294649 L5.19712062,48.3294649 C4.04918288,48.3294649 3.11836576,47.3922178 3.11836576,46.2363501 L3.11836576,37.863656 L75.8775875,37.863656 L75.8775875,48.3294649 Z" id="Shape" fill="#736F7B"></path>
            <rect id="Rectangle-path" fill="#625D6B" x="57.1680934" y="37.863656" width="18.7094942" height="4.18646458"></rect>
            <path d="M100.82358,29.4907269 L97.1887938,16.1541726 C96.8731518,15.3596165 96.1085603,14.8382184 95.2585214,14.8382184 L82.1140856,14.8382184 C80.9661479,14.8382184 80.0353307,15.7754655 80.0353307,16.9313331 L80.0353307,42.0496505 L115.375564,42.0496505 L115.375564,33.3990968 C115.375564,32.357476 114.614942,31.4740612 113.590739,31.3269038 L100.82358,29.4907269 Z" id="Shape" fill="#FF6464"></path>
            <polygon id="Shape" fill="#D2555A" points="97.9708949 19.024683 80.0350973 19.024683 80.0350973 29.4907269 100.82358 29.4907269"></polygon>
            <path d="M50.9315953,52.5159295 L63.4045914,52.5159295 C64.5525292,52.5159295 65.4833463,51.5786823 65.4833463,50.4228147 L65.4833463,46.2363501 C65.4833463,45.0804825 64.5525292,44.1432354 63.4045914,44.1432354 L50.9315953,44.1432354 C49.7836576,44.1432354 48.8528405,45.0804825 48.8528405,46.2363501 L48.8528405,50.4228147 C48.852607,51.5786823 49.7834241,52.5159295 50.9315953,52.5159295 Z" id="Shape" fill="#B9B7BD"></path>
            <ellipse id="Oval" fill="#504B5A" cx="27.0249805" cy="49.3760223" rx="7.27587549" ry="7.32613672"></ellipse>
            <ellipse id="Oval" fill="#DCDBDE" cx="27.0249805" cy="49.3760223" rx="4.15774319" ry="4.18646458"></ellipse>
            <ellipse id="Oval" fill="#504B5A" cx="41.5767315" cy="49.3760223" rx="7.27587549" ry="7.32613672"></ellipse>
            <ellipse id="Oval" fill="#DCDBDE" cx="41.5767315" cy="49.3760223" rx="4.15774319" ry="4.18646458"></ellipse>
            <path d="M98.349572,29.4907269 L100.82358,29.4907269 L97.9708949,19.024683 L96.413463,19.024683 C95.4684047,19.024683 94.7593774,19.8951686 94.9449805,20.8281843 L96.3354864,27.828271 C96.5276265,28.7951376 97.3706615,29.4907269 98.349572,29.4907269 Z" id="Shape" fill="#625D6B"></path>
            <path d="M93.0770428,29.4907269 L85.2322179,29.4907269 C84.6581323,29.4907269 84.1928405,29.0222208 84.1928405,28.4441695 L84.1928405,20.0714754 C84.1928405,19.4934241 84.6581323,19.024918 85.2322179,19.024918 L91.282179,19.024918 C91.9951751,19.024918 92.6089494,19.5317414 92.7487938,20.2355583 L94.2910506,28.0001114 C94.4442023,28.7711599 93.8582101,29.4907269 93.0770428,29.4907269 Z" id="Shape" fill="#625D6B"></path>
            <path d="M60.2862257,42.0498856 L2.07875486,42.0498856 C1.50466926,42.0498856 1.03937743,41.5813795 1.03937743,41.0033282 L1.03937743,38.9102134 C1.03937743,38.3321621 1.50466926,37.863656 2.07875486,37.863656 L60.2862257,37.863656 C60.8603113,37.863656 61.3256031,38.3321621 61.3256031,38.9102134 L61.3256031,41.0033282 C61.3256031,41.5813795 60.8603113,42.0498856 60.2862257,42.0498856 Z" id="Shape" fill="#FF6464"></path>
            <path d="M76.916965,50.4228147 L74.8382101,50.4228147 C74.2641245,50.4228147 73.7988327,49.9543087 73.7988327,49.3762573 L73.7988327,22.1645902 C73.7988327,21.5865388 74.2641245,21.1180328 74.8382101,21.1180328 L76.916965,21.1180328 C77.4910506,21.1180328 77.9563424,21.5865388 77.9563424,22.1645902 L77.9563424,49.3762573 C77.9563424,49.9540736 77.4910506,50.4228147 76.916965,50.4228147 Z" id="Shape" fill="#FF6464"></path>
            <path d="M14.551751,50.4228147 L12.4729961,50.4228147 C11.8989105,50.4228147 11.4336187,49.9543087 11.4336187,49.3762573 L11.4336187,41.0035633 C11.4336187,40.4255119 11.8989105,39.9570059 12.4729961,39.9570059 L14.551751,39.9570059 C15.1258366,39.9570059 15.5911284,40.4255119 15.5911284,41.0035633 L15.5911284,49.3762573 C15.5913619,49.9540736 15.1258366,50.4228147 14.551751,50.4228147 Z" id="Shape" fill="#FF6464"></path>
            <path d="M70.6804669,39.9567708 L64.4439689,39.9567708 C63.8698833,39.9567708 63.4045914,39.4882648 63.4045914,38.9102134 L63.4045914,20.0714754 C63.4045914,19.4934241 63.8698833,19.024918 64.4439689,19.024918 L70.6804669,19.024918 C71.2545525,19.024918 71.7198444,19.4934241 71.7198444,20.0714754 L71.7198444,38.9102134 C71.7198444,39.4880297 71.2545525,39.9567708 70.6804669,39.9567708 Z" id="Shape" fill="#FF6464"></path>
            <path d="M94.5870817,50.4228147 L117.454319,50.4228147 L117.454319,42.0501206 C117.454319,39.7379152 115.592918,37.863656 113.296576,37.863656 L102.902335,37.863656 C98.3098833,37.863656 94.5870817,41.6124095 94.5870817,46.2363501 L94.5870817,50.4228147 L94.5870817,50.4228147 Z" id="Shape" fill="#D2555A"></path>
            <path d="M118.493696,50.4228147 L113.296576,50.4228147 L113.296576,46.2363501 L118.493696,46.2363501 C119.067782,46.2363501 119.533074,46.7048562 119.533074,47.2829075 L119.533074,49.3760223 C119.533074,49.9540736 119.067782,50.4228147 118.493696,50.4228147 Z" id="Shape" fill="#736F7B"></path>
            <ellipse id="Oval" fill="#504B5A" cx="108.099455" cy="49.3760223" rx="7.27587549" ry="7.32613672"></ellipse>
            <ellipse id="Oval" fill="#DCDBDE" cx="108.099455" cy="49.3760223" rx="4.15774319" ry="4.18646458"></ellipse>
            <path d="M3.11836576,0.185944943 L80.0353307,0.185944943 C81.1832685,0.185944943 82.1140856,1.12319208 82.1140856,2.2790597 L82.1140856,4.37217445 C82.1140856,5.52804207 81.1832685,6.46528921 80.0353307,6.46528921 L3.11836576,6.46528921 L3.11836576,0.185944943 Z" id="Shape" fill="#FF6464"></path>
            <path d="M3.11836576,10.6519889 L3.11836576,10.6519889 C1.97042802,10.6519889 1.03961089,9.71474173 1.03961089,8.55887411 L1.03961089,2.27929477 C1.03961089,1.12342716 1.97042802,0.186180019 3.11836576,0.186180019 L5.19712062,0.186180019 C6.34505837,0.186180019 7.27587549,1.12342716 7.27587549,2.27929477 L7.27587549,6.46575936 C7.27587549,8.77772966 5.41447471,10.6519889 3.11836576,10.6519889 Z" id="Shape" fill="#736F7B"></path>
            <path d="M3.11836576,34.7237488 C1.39891051,34.7237488 0,33.3154098 0,31.5840767 C0,30.4136344 0.639455253,29.3487411 1.66879377,28.8040705 C1.91439689,28.6731333 2.07875486,28.3381503 2.07875486,27.9690813 L2.07875486,25.3044974 C2.07875486,24.7259759 2.54357977,24.25794 3.1181323,24.25794 C3.69268482,24.25794 4.15750973,24.7259759 4.15750973,25.3044974 L4.15750973,27.9690813 C4.15750973,29.1303557 3.57501946,30.1592824 2.63509728,30.6562326 C2.29190661,30.8377111 2.07875486,31.1936158 2.07875486,31.5840767 C2.07875486,32.1614228 2.54568093,32.6306341 3.1181323,32.6306341 C3.69058366,32.6306341 4.15750973,32.1614228 4.15750973,31.5840767 C4.15750973,31.0055552 4.62233463,30.5375193 5.19688716,30.5375193 C5.77143969,30.5375193 6.23626459,31.0055552 6.23626459,31.5840767 C6.23649805,33.3154098 4.83782101,34.7237488 3.11836576,34.7237488 Z" id="Shape" fill="#FF6464"></path>
            <path d="M3.11836576,27.3976121 L3.11836576,27.3976121 C1.97042802,27.3976121 1.03961089,26.460365 1.03961089,25.3044974 L1.03961089,21.1180328 C1.03961089,19.9621652 1.97042802,19.024918 3.11836576,19.024918 L3.11836576,19.024918 C4.2663035,19.024918 5.19712062,19.9621652 5.19712062,21.1180328 L5.19712062,25.3044974 C5.19712062,26.460365 4.2663035,27.3976121 3.11836576,27.3976121 Z" id="Shape" fill="#FFC84B"></path>
            <path d="M76.9473152,2.57784101 C75.9607004,1.98309929 74.6857588,2.30491803 74.0948638,3.2952923 L68.4637354,12.7453387 L65.4831128,12.7453387 C64.3351751,12.7453387 63.404358,13.6825858 63.404358,14.8384534 C63.404358,15.9943211 64.3351751,16.9315682 65.4831128,16.9315682 L69.640856,16.9315682 C69.6422568,16.9315682 69.6429572,16.9310981 69.6441245,16.9310981 C69.8899611,16.9306279 70.1287938,16.8711537 70.3582879,16.7858212 C70.4124514,16.7656047 70.4635798,16.7472688 70.5151751,16.723056 C70.7271595,16.623854 70.9263035,16.4976183 71.0974319,16.3276585 C71.1158755,16.3095577 71.1270817,16.2865203 71.1448249,16.2677142 C71.2459144,16.1598144 71.3444358,16.0481534 71.4233463,15.9158058 L77.6598444,5.44976183 C78.2507393,4.45821219 77.9318288,3.17258274 76.9473152,2.57784101 Z" id="Shape" fill="#D2555A"></path>
            <path d="M38.4583658,10.6519889 L42.6161089,10.6519889 C43.7640467,10.6519889 44.6948638,9.71474173 44.6948638,8.55887411 L44.6948638,6.46575936 L36.3796109,6.46575936 L36.3796109,8.55887411 C36.3796109,9.71474173 37.310428,10.6519889 38.4583658,10.6519889 Z" id="Shape" fill="#D2555A"></path>
        </g>
    </g>
</svg>