<?xml version="1.0" encoding="UTF-8"?>
<svg width="120px" height="120px" viewBox="0 0 120 120" version="1.1" xmlns="http://www.w3.org/2000/svg" xmlns:xlink="http://www.w3.org/1999/xlink">
    <!-- Generator: Sketch 51.1 (57501) - http://www.bohemiancoding.com/sketch -->
    <title>Spoon1</title>
    <desc>Created with Sketch.</desc>
    <defs></defs>
    <g id="Spoon1" stroke="none" stroke-width="1" fill="none" fill-rule="evenodd">
        <g id="Group-7" transform="translate(0.000000, 35.000000)">
            <path d="M119.403974,46.7776792 C120.625038,39.3670409 57.4788679,28.1291686 54.2778041,26.7019345 C52.3335488,25.8357643 42.1175913,23.7989558 37.2946126,17.3310835 C36.0282296,15.6338494 33.1865275,12.611509 29.6261019,9.56108347 C29.3490807,9.26299836 29.0656764,8.96682815 28.7695062,8.6802324 C26.3899317,6.37661538 23.1920594,4.19746645 19.8141871,2.67640262 C14.2986551,-0.255299512 8.76269769,-1.35827824 5.19461258,2.3808707 C4.0495062,3.25533879 3.0901445,4.46938134 2.38482535,6.08810474 C-0.184323586,11.9910835 0.468655138,17.2506579 1.87227216,20.8461898 C5.70525088,37.258743 28.8531232,32.6093813 35.2922722,30.887892 C42.699719,28.9059771 44.7512083,29.6029984 56.6854636,33.4302324 C68.6203573,37.2574664 117.981847,55.4144877 119.403974,46.7776792" id="Fill-795" fill="#F1C25E"></path>
            <path d="M82.1373508,38.2117021 C82.6422444,35.6080851 90.1307551,35.7817021 95.0750104,36.1876596 C92.8447976,35.6023404 90.5590529,35.0278723 88.2624572,34.4680851 C84.0567125,34.5204255 76.109904,34.9493617 75.3611806,37.4285106 C75.0879891,38.3361702 76.1839465,39.377234 77.5626699,40.422766 C80.8116061,41.4702128 84.1926699,42.5278723 87.5609678,43.5274468 C85.6518189,42.0159574 81.6650104,40.65 82.1373508,38.2117021" id="Fill-796" fill="#E8B067"></path>
            <path d="M103.822762,45.0830494 C100.635103,44.0221983 100.545103,45.2285813 101.131698,46.7426239 C103.01723,47.1741132 104.820422,47.5462409 106.50489,47.8411345 C107.001486,47.0464536 106.7034,46.0424111 103.822762,45.0830494" id="Fill-797" fill="#E8AC66"></path>
            <path d="M104.07448,45.4475653 C106.955119,46.406927 107.253204,47.4109695 106.756608,48.2056504 C107.761927,48.3811823 108.726395,48.5311823 109.639161,48.6499057 C110.098736,47.5099057 109.403629,45.8471397 104.890225,43.7094801 C97.4744805,40.196927 94.0570337,43.2543738 96.5546933,45.9237355 C98.2085231,46.3533099 99.824055,46.7503312 101.383417,47.1071397 C100.796821,45.5930972 100.886821,44.3867142 104.07448,45.4475653" id="Fill-798" fill="#E8B268"></path>
            <path d="M104.689148,43.9425718 C109.202552,46.0802314 109.897659,47.7429974 109.438084,48.8829974 C110.425531,49.010657 111.356169,49.1044867 112.219786,49.1568272 C112.471276,48.9085293 112.651276,48.6461889 112.688297,48.3774655 C112.850425,47.1755506 109.019361,43.7798059 102.365744,41.4161889 C95.7140416,39.0519335 89.7759565,40.4555506 89.3757437,43.1676782 C89.3131905,43.5883165 89.4638288,43.9783165 89.7440416,44.3395931 C91.9819139,44.9855506 94.1987224,45.5983165 96.353616,46.1568272 C93.8559565,43.4874655 97.2734033,40.4300187 104.689148,43.9425718" id="Fill-799" fill="#E8AC66"></path>
            <path d="M114.45868,47.2052496 C114.506552,45.4971645 105.654637,40.723973 100.993148,39.2163134 C96.3310204,37.7073772 87.2091055,36.6350368 86.2484672,39.2309942 C85.8265523,40.370356 87.1803821,42.1237602 88.6376161,43.7935474 C88.9369778,43.880356 89.2369778,43.9690794 89.5357012,44.0565262 C89.2554885,43.6952496 89.1048502,43.3052496 89.1674034,42.8846113 C89.5676161,40.1724836 95.5057012,38.7688666 102.157403,41.1331219 C108.81102,43.4967389 112.642084,46.8924836 112.479957,48.0943985 C112.455063,48.2814198 112.355488,48.4646113 112.215701,48.6433347 C113.257403,48.5118453 114.433148,48.1537602 114.45868,47.2052496" id="Fill-800" fill="#E6A865"></path>
            <path d="M118.970047,46.5894292 C119.496004,43.3992164 108.092174,39.500493 94.6783447,35.9796419 C89.7340893,35.5736845 82.2455787,35.4000675 81.7406851,38.0036845 C81.2683447,40.4419824 85.2551532,41.8079398 87.1643021,43.3194292 C87.6679191,43.4700675 88.168983,43.6143228 88.6726,43.7611313 C87.2153659,42.0913441 85.8615362,40.3379398 86.283451,39.1985781 C87.2440893,36.6026207 96.3660042,37.6749611 101.028132,39.1838973 C105.689621,40.6915568 114.541536,45.4647483 114.493664,47.1728334 C114.468132,48.1213441 113.292387,48.4794292 112.250685,48.6109185 C112.189408,48.6887909 112.123026,48.7660249 112.04643,48.8413441 C116.053026,49.0858122 118.659196,48.4781526 118.970047,46.5894292" id="Fill-801" fill="#E5A063"></path>
            <path d="M4.03978723,24.9580851 C3.3887234,24.2317021 2.65595745,23.1217021 2.02531915,21.7021277 C1.98829787,21.7097872 1.9512766,21.7168085 1.91489362,21.7238298 C5.24617021,33.6268085 19.26,33.7461702 28.482766,32.3885106 C27.1985106,32.1989362 26.0368085,32.0323404 25.3621277,31.9480851 C23.5212766,31.7189362 3.18510638,28.8351064 4.03978723,24.9580851" id="Fill-802" fill="#E6A865"></path>
            <path d="M75.4085106,36.9810638 C75.7793617,35.7517021 77.9221277,35.0259574 80.4995745,34.6008511 C78.5961702,34.3448936 75.6465957,33.8955319 72.7091489,33.2304255 C67.7980851,32.1191489 48.5489362,28.5529787 41.6808511,24.3951064 C38.5780851,22.5153191 36.3555319,21.1870213 34.3748936,19.787234 C34.3334043,21.2514894 33.9587234,22.6487234 33.1914894,23.9023404 C37.5210638,25.5242553 40.4348936,26.003617 52.7776596,30.4991489 C57.5942553,32.2551064 61.3589362,33.9989362 64.2210638,35.5244681 C68.046383,36.8221277 72.6740426,38.3853191 77.61,39.9753191 C76.2312766,38.9297872 75.1353191,37.8887234 75.4085106,36.9810638" id="Fill-803" fill="#E9B669"></path>
            <path d="M32.7491489,24.2553191 C31.8134043,25.7853191 30.287234,27.0995745 28.0851064,28.0685106 C31.0512766,28.7904255 33.2929787,29.8257447 34.9104255,30.7985106 C42.2770213,28.8351064 44.3470213,29.537234 56.2531915,33.3555319 C58.026383,33.9242553 60.6331915,34.8114894 63.7787234,35.8774468 C60.9165957,34.3519149 57.1519149,32.6080851 52.3353191,30.8521277 C39.9925532,26.3565957 37.0787234,25.877234 32.7491489,24.2553191" id="Fill-804" fill="#E8B268"></path>
            <path d="M42.683617,24.8361702 C49.5510638,28.9946809 68.8002128,32.5608511 73.7106383,33.6734043 C76.6487234,34.337234 79.5982979,34.787234 81.5017021,35.0425532 C84.1219149,34.6117021 87.1914894,34.4891489 89.3106383,34.4617021 C73.3397872,30.5706383 56.8831915,27.4270213 55.2893617,26.7165957 C53.3457447,25.8497872 43.1291489,23.8142553 38.3074468,17.346383 C37.0404255,15.6485106 34.1980851,12.6255319 30.6382979,9.57446809 C33.6402128,12.8138298 35.4746809,16.7144681 35.3770213,20.2302128 C37.3576596,21.6306383 39.5802128,22.9576596 42.683617,24.8361702" id="Fill-805" fill="#E8B268"></path>
            <path d="M24.8055503,29.3048936 C12.2681035,32.0776596 4.88363545,25.7597872 4.88363545,25.7597872 C4.59320992,25.6155319 4.2383163,25.3187234 3.85597588,24.893617 C3.00129503,28.7706383 23.3374652,31.6544681 25.1783163,31.883617 C25.8529972,31.9678723 27.0146993,32.1344681 28.2989546,32.3240426 C31.111295,31.9097872 33.4793801,31.3582979 34.9621461,30.9631915 C34.9793801,30.9574468 34.9953376,30.9529787 35.0125716,30.9485106 C33.3951248,29.9757447 31.1534227,28.9404255 28.1872525,28.2185106 C27.1985291,28.6544681 26.0795929,29.0240426 24.8055503,29.3048936" id="Fill-806" fill="#E8AC66"></path>
            <path d="M5.10638298,2.3808707 C8.8212766,-0.457001639 14.4887234,0.31406219 19.7259574,2.67640262 C14.2104255,-0.255299512 8.67446809,-1.35827824 5.10638298,2.3808707" id="Fill-807" fill="#E8AC66"></path>
            <path d="M16.6187234,17.5934043 C21.4997872,17.8895745 28.9168085,22.2465957 32.8404255,24.3248936 C33.2955319,23.6846809 33.6446809,23.0042553 33.8885106,22.29 C30.4219149,19.9442553 22.2606383,16.152766 17.5723404,14.7568085 C13.4355319,13.5255319 5.49957447,11.8187234 0.832340426,10.8510638 C0.735957447,11.4880851 0.670212766,12.1142553 0.638297872,12.7238298 L0.952978723,12.726383 C0.952978723,12.726383 10.5676596,17.2282979 16.6187234,17.5934043" id="Fill-808" fill="#E8AC66"></path>
            <path d="M33.9919149,21.6370213 C34.0723404,21.1997872 34.1195745,20.7548936 34.1342553,20.3029787 C32.387234,18.9689362 30.7308511,17.5991489 29.91,16.6378723 C27.9631915,14.3585106 17.2621277,7.15021277 2.05787234,6.38297872 C1.74957447,7.11510638 1.49170213,7.83638298 1.27659574,8.54744681 C4.6487234,9.09255319 12.4180851,10.7004255 21.5119149,14.9144681 C27.0159574,17.4657447 31.0691489,19.6365957 33.9919149,21.6370213" id="Fill-809" fill="#E9B669"></path>
            <path d="M29.7670213,16.3819149 C30.5878723,17.3431915 32.2442553,18.7129787 33.9912766,20.0470213 C34.0461702,18.3006383 33.6248936,16.4610638 32.8180851,14.652766 C22.5548936,7.69276596 10.6321277,4.92510638 3.20808511,3.82978723 C2.75808511,4.42851064 2.35404255,5.10510638 2.01382979,5.88382979 C1.9793617,5.96425532 1.95,6.04531915 1.91489362,6.12702128 C17.1191489,6.89425532 27.8202128,14.1025532 29.7670213,16.3819149" id="Fill-810" fill="#E8B067"></path>
            <path d="M32.8014894,14.9314886 C31.83,12.7497864 30.3051064,10.6159566 28.3819149,8.75468004 C21.7251064,2.30978643 8.66170213,-3.18595825 3.19148936,4.10850983 C10.6155319,5.20382898 22.5382979,7.97148855 32.8014894,14.9314886" id="Fill-811" fill="#E8AC66"></path>
            <path d="M33.6944681,22.56 C33.8259574,22.1782979 33.9229787,21.7857447 33.996383,21.3874468 C31.073617,19.3870213 27.0204255,17.2161702 21.516383,14.6648936 C12.4225532,10.4508511 4.65319149,8.84297872 1.28106383,8.29787234 C0.988723404,9.26170213 0.777446809,10.2051064 0.638297872,11.1210638 C5.30553191,12.0887234 13.2414894,13.7955319 17.3782979,15.0268085 C22.0665957,16.422766 30.2278723,20.2142553 33.6944681,22.56" id="Fill-812" fill="#E8B268"></path>
            <path d="M12.7551064,26.3146584 C11.3042553,26.1518924 8.68978723,26.1518924 6.38297872,26.1933818 C7.47702128,26.8852967 9.2993617,27.8638073 11.7817021,28.5933818 C14.1848936,28.636786 16.3206383,28.5806158 17.3553191,28.6138073 C18.6057447,28.6552967 20.34,29.0255094 21.8744681,29.4218924 C22.9097872,29.3082754 23.9853191,29.135935 25.1048936,28.8882754 C25.9097872,28.7108286 26.6553191,28.4982754 27.3453191,28.2563605 C25.0206383,27.4476371 22.1489362,26.7372116 20.7631915,26.9638073 C18.5182979,27.329552 15.743617,26.6529562 12.7551064,26.3146584" id="Fill-813" fill="#E8AC66"></path>
            <path d="M16.6460946,17.6355319 C10.5950308,17.2704255 0.980349958,12.7685106 0.980349958,12.7685106 L0.665669107,12.7659574 C0.602477618,13.956383 0.650988256,15.09 0.787584001,16.1540426 C4.93652017,17.1951064 10.2216266,18.66 12.5150308,19.3059574 C15.9369457,20.2723404 20.184818,22.9417021 18.607584,24.3210638 C17.6482223,25.1585106 10.64035,25.1712766 4.41120102,24.6319149 C4.70609464,24.9287234 4.98056272,25.1431915 5.21162655,25.2587234 C5.21162655,25.2587234 5.62460528,25.6104255 6.41162655,26.1089362 C8.71843506,26.0674468 11.3329031,26.0674468 12.7837542,26.2302128 C15.7722649,26.5685106 18.5469457,27.2451064 20.7918393,26.8793617 C22.177584,26.652766 25.0492861,27.3631915 27.373967,28.1719149 C29.9558819,27.27 31.7443925,25.9448936 32.8677968,24.3670213 C28.9441797,22.2887234 21.5271585,17.9317021 16.6460946,17.6355319" id="Fill-814" fill="#E6A865"></path>
            <path d="M12.773617,23.5353191 C12.3344681,21.6095745 5.69808511,20.0093617 1.27659574,19.1489362 C1.75276596,20.897234 2.43382979,22.3691489 3.13148936,23.4861702 C7.17893617,24.4078723 13.2165957,25.4795745 12.773617,23.5353191" id="Fill-815" fill="#E5A063"></path>
            <path d="M18.4582979,24.762766 C20.0355319,23.3834043 15.7876596,20.7140426 12.3657447,19.7476596 C10.0723404,19.1017021 4.78723404,17.6368085 0.638297872,16.5957447 C0.75,17.4765957 0.922340426,18.3057447 1.13553191,19.0844681 C5.55702128,19.9448936 12.1934043,21.5451064 12.6325532,23.4708511 C13.0755319,25.4151064 7.03787234,24.3434043 2.99042553,23.4217021 C3.42510638,24.1174468 3.86234043,24.6746809 4.26191489,25.073617 C10.4910638,25.6129787 17.4989362,25.6002128 18.4582979,24.762766" id="Fill-816" fill="#E5A464"></path>
            <path d="M11.4893617,28.7234043 C14.1376596,29.5034043 17.5346809,29.9961702 21.5821277,29.5519149 C20.0476596,29.1555319 18.3134043,28.7853191 17.0629787,28.7438298 C16.0282979,28.7106383 13.8925532,28.7668085 11.4893617,28.7234043" id="Fill-817" fill="#E8B268"></path>
            <path d="M5.24489362,1.91489362 C4.59510638,2.38914894 4.00212766,2.97 3.4787234,3.66702128 C3.0287234,4.26702128 2.62404255,4.94297872 2.28510638,5.72170213 C2.25,5.80340426 2.2206383,5.88446809 2.18553191,5.96489362 C1.87723404,6.69702128 1.6193617,7.41829787 1.40361702,8.1287234 C1.25234043,8.62787234 1.12276596,9.12191489 1.01425532,9.60765957 C1.03340426,9.53425532 1.05255319,9.46021277 1.07297872,9.38680851 C1.18340426,8.97765957 1.31042553,8.56404255 1.45659574,8.14659574 C1.69659574,7.34744681 1.99404255,6.53170213 2.35340426,5.70638298 C3.0587234,4.08765957 4.01808511,2.87361702 5.16319149,1.99914894 C5.1906383,1.97106383 5.21744681,1.94297872 5.24489362,1.91489362 Z M1.95893617,20.9406383 C1.91808511,20.7842553 1.87851064,20.6253191 1.84085106,20.4644681 C1.54148936,19.6978723 1.27659574,18.857234 1.06978723,17.9495745 C1.04297872,17.8314894 1.01680851,17.7134043 0.992553191,17.5934043 C0.986808511,17.5691489 0.982340426,17.543617 0.976595745,17.5187234 C0.945957447,17.3948936 0.915319149,17.2697872 0.886595745,17.142766 C0.785744681,16.7048936 0.70212766,16.2478723 0.638297872,15.7717021 C0.653617021,15.9204255 0.670851064,16.0678723 0.689361702,16.2140426 C0.765319149,16.8140426 0.87,17.3910638 0.995744681,17.9438298 C1.05446809,18.2017021 1.11829787,18.4551064 1.18659574,18.7034043 C1.40680851,19.5102128 1.66978723,20.2589362 1.95893617,20.9406383 Z" id="Fill-818" fill="#F1DEC9"></path>
            <path d="M24.8540426,28.9946809 C24.8189362,29.0029787 24.7844681,29.01 24.75,29.0176596 C23.6304255,29.2653191 22.5548936,29.4376596 21.5195745,29.5512766 C17.4721277,29.9955319 14.0751064,29.502766 11.4268085,28.722766 C8.94446809,27.9931915 7.12212766,27.0146809 6.02808511,26.322766 C7.49553191,26.2959574 9.0887234,26.2870213 10.4265957,26.3246809 C9.0887234,26.2870213 7.49553191,26.2959574 6.02808511,26.322766 C5.24553191,25.8268085 4.83255319,25.4770213 4.82808511,25.4738298 C4.84787234,25.4897872 12.2291489,31.787234 24.75,29.0176596 C24.7831915,29.0106383 24.8157447,29.003617 24.8489362,28.9953191 C24.8508511,28.9946809 24.8521277,28.9946809 24.8540426,28.9946809 Z M8.14978723,0.638297872 C7.75468085,0.728297872 7.36978723,0.839361702 6.99446809,0.974680851 C6.21191489,1.26319149 5.47851064,1.65765957 4.80893617,2.16893617 C4.83638298,2.14085106 4.86319149,2.11276596 4.8906383,2.08468085 C4.86319149,2.11276596 4.83638298,2.14085106 4.80893617,2.16893617 C3.66382979,3.04340426 2.70446809,4.25744681 1.99914894,5.87617021 C1.63978723,6.70148936 1.34234043,7.51723404 1.10234043,8.31638298 C1.11574468,8.27808511 1.12978723,8.23978723 1.14319149,8.20276596 C1.35382979,7.51787234 1.60340426,6.82340426 1.90021277,6.1193617 C1.98446809,6.12319149 2.06617021,6.12765957 2.14978723,6.13212766 C2.06617021,6.12765957 1.98446809,6.12319149 1.90021277,6.1193617 C1.93531915,6.03765957 1.96468085,5.95659574 1.99914894,5.87617021 C2.3393617,5.09744681 2.74340426,4.42085106 3.19340426,3.82212766 C3.63574468,3.88723404 4.09276596,3.95744681 4.56510638,4.03531915 C4.09276596,3.95744681 3.63574468,3.88723404 3.19340426,3.82212766 C4.48404255,2.1 6.19787234,1.09212766 8.14978723,0.638297872 Z M6.6006383,25.0346809 C5.73957447,24.9829787 4.87659574,24.9185106 4.02765957,24.8457447 C3.93765957,24.7551064 3.84510638,24.6561702 3.7512766,24.5502128 C3.76787234,24.5693617 3.78446809,24.5878723 3.80042553,24.606383 C3.79531915,24.6312766 3.79021277,24.6561702 3.78702128,24.6823404 C3.79021277,24.6561702 3.79531915,24.6312766 3.80042553,24.606383 C4.18276596,25.0314894 4.53765957,25.3282979 4.82808511,25.4725532 C4.59702128,25.3570213 4.32255319,25.1425532 4.02765957,24.8457447 C4.87659574,24.9185106 5.73957447,24.9829787 6.6006383,25.0346809 Z M1.78468085,21.3504255 C1.45276596,20.6017021 1.14893617,19.7674468 0.901276596,18.8565957 C0.924893617,18.8623404 0.949148936,18.8661702 0.974042553,18.8712766 C0.949148936,18.8661702 0.924893617,18.8623404 0.901276596,18.8565957 C0.833617021,18.6095745 0.769787234,18.3548936 0.710425532,18.0976596 C0.685531915,17.987234 0.661276596,17.8748936 0.638297872,17.7631915 C0.662553191,17.8831915 0.688723404,18.0012766 0.715531915,18.1193617 C0.922340426,19.0270213 1.18723404,19.8676596 1.48659574,20.6342553 C1.52425532,20.7951064 1.56382979,20.9540426 1.60468085,21.1104255 C1.64106383,21.1965957 1.67744681,21.2808511 1.71446809,21.3651064 C1.73808511,21.36 1.76106383,21.3548936 1.78468085,21.3504255 Z" id="Fill-819" fill="#E8B85D"></path>
            <path d="M4.00085106,24.9580851 C3.98489362,24.9395745 3.96829787,24.9210638 3.95170213,24.9019149 C3.6312766,24.5393617 3.29297872,24.0829787 2.95659574,23.5455319 C2.62148936,23.01 2.29148936,22.392766 1.98510638,21.7021277 C1.96148936,21.7065957 1.93851064,21.7117021 1.91489362,21.7168085 C2.22191489,22.4068085 2.55255319,23.0259574 2.88765957,23.5608511 C3.26042553,24.1576596 3.63574468,24.6529787 3.98744681,25.0340426 C3.9906383,25.0078723 3.99574468,24.9829787 4.00085106,24.9580851" id="Fill-820" fill="#DEA062"></path>
            <path d="M24.8917021,29.2825532 C24.8585106,29.2908511 24.8259574,29.2978723 24.792766,29.3048936 C12.2719149,32.0744681 4.8906383,25.7770213 4.87085106,25.7610638 L4.87085106,25.7597872 C4.58042553,25.6155319 4.22553191,25.3187234 3.84319149,24.893617 C3.83808511,24.9185106 3.83297872,24.9434043 3.82978723,24.9695745 C3.88723404,25.0321277 3.94404255,25.092766 4.00148936,25.1489362 C4.29638298,25.4451064 4.57021277,25.6602128 4.80191489,25.776383 C4.80191489,25.776383 5.21489362,26.1274468 6.00191489,26.6259574 C7.09595745,27.3178723 8.91829787,28.2957447 11.4,29.0259574 C14.0489362,29.8059574 17.4465957,30.2987234 21.492766,29.8544681 C22.5280851,29.7408511 23.6042553,29.5685106 24.7231915,29.3214894 C24.78,29.3087234 24.8355319,29.2959574 24.8917021,29.2825532" id="Fill-821" fill="#DFA463"></path>
            <path d="M7.29191489,1.27659574 C6.5412766,1.54723404 5.83659574,1.91361702 5.18808511,2.38659574 C5.1606383,2.41468085 5.13382979,2.44276596 5.10638298,2.47085106 C5.77595745,1.95957447 6.5093617,1.56510638 7.29191489,1.27659574" id="Fill-822" fill="#DFA463"></path>
            <path d="M33.317234,22.2670213 C31.4508511,21.012766 28.2708511,19.3557447 25.002766,17.8723404 C25.0455319,18.2502128 25.0659574,18.623617 25.0602128,18.9906383 C25.0544681,19.3487234 25.0251064,19.7004255 24.9702128,20.0444681 C24.9485106,20.1823404 24.9229787,20.3189362 24.893617,20.4555319 C27.7091489,21.7959574 30.3906383,23.3119149 32.2787234,24.3146809 C32.7210638,23.6846809 33.06,23.016383 33.2993617,22.3180851 C33.3057447,22.3008511 33.3121277,22.283617 33.317234,22.2670213" id="Fill-823" fill="#DFA463"></path>
            <path d="M34.0417021,20.2512766 C32.3208511,18.9338298 30.696383,17.5876596 29.8857447,16.6378723 C28.9985106,15.5987234 26.2921277,13.5351064 22.1687234,11.5251064 C23.1089362,12.6938298 23.8761702,13.9493617 24.4251064,15.2221277 C24.6140426,15.6619149 24.7761702,16.103617 24.9108511,16.5440426 C28.686383,18.396383 31.6359574,20.0476596 33.9082979,21.5961702 C33.9823404,21.1774468 34.026383,20.7517021 34.0404255,20.3176596 C34.0410638,20.2953191 34.0410638,20.2742553 34.0417021,20.2512766 Z M2.28319149,6.39574468 C2.19957447,6.3912766 2.11787234,6.38680851 2.03361702,6.38297872 C1.73680851,7.08702128 1.48723404,7.78148936 1.27659574,8.46638298 C1.31808511,8.35021277 1.36085106,8.23468085 1.40489362,8.11851064 C1.43042553,8.05340426 1.45148936,7.99148936 1.47702128,7.92702128 C1.70617021,7.3493617 1.9787234,6.84446809 2.28319149,6.39574468 Z" id="Fill-824" fill="#E1AD65"></path>
            <path d="M33.6382979,17.2985106 C33.4385106,16.4234043 33.1391489,15.5425532 32.7491489,14.6680851 C32.7357447,14.6387234 32.7223404,14.6087234 32.7082979,14.5780851 C27.8897872,11.3285106 22.7112766,8.99808511 17.807234,7.32765957 C18.9708511,8.16829787 20.0412766,9.0887234 20.9546809,10.0302128 C21.3408511,10.4291489 21.707234,10.8434043 22.05,11.2691489 C26.1734043,13.2791489 28.8797872,15.342766 29.7670213,16.3819149 C30.5776596,17.3317021 32.2021277,18.6778723 33.9229787,19.9953191 C33.9446809,19.1151064 33.846383,18.21 33.6382979,17.2985106 Z M4.57978723,4.04297872 C4.10744681,3.96510638 3.65042553,3.89489362 3.20808511,3.82978723 C2.75808511,4.42851064 2.35404255,5.10510638 2.01382979,5.88382979 C1.9793617,5.96425532 1.95,6.04531915 1.91489362,6.12702128 C1.99914894,6.13085106 2.08085106,6.13531915 2.16446809,6.13978723 C2.18297872,6.11361702 2.20085106,6.08744681 2.2187234,6.06191489 C2.86659574,5.1312766 3.66893617,4.4712766 4.57978723,4.04297872 Z" id="Fill-825" fill="#DFA864"></path>
            <path d="M32.6917021,14.8416428 C31.7182979,12.6924938 30.2087234,10.590579 28.3129787,8.75483427 C23.2455319,3.84887683 14.4651064,-0.506867853 8.14787234,0.909515126 C6.19595745,1.36334491 4.48212766,2.37121725 3.19148936,4.09334491 C3.63382979,4.1584513 4.09085106,4.22866406 4.56319149,4.3065364 C8.21425532,2.58696193 13.607234,4.57270662 17.7906383,7.59121725 C22.6946809,9.26164279 27.8731915,11.5920683 32.6917021,14.8416428" id="Fill-826" fill="#DFA463"></path>
            <path d="M33.8910638,21.6478723 C31.6187234,20.0993617 28.6691489,18.4480851 24.893617,16.5957447 C24.9708511,16.8517021 25.0391489,17.1082979 25.097234,17.3629787 C25.1795745,17.7217021 25.2408511,18.0791489 25.2823404,18.432766 C28.5504255,19.9161702 31.7304255,21.5731915 33.5968085,22.8274468 C33.7193617,22.4604255 33.8106383,22.0851064 33.8814894,21.7040426 C33.8846809,21.6848936 33.8885106,21.666383 33.8910638,21.6478723" id="Fill-827" fill="#DFA964"></path>
            <path d="M27.3325532,28.2520126 C25.0104255,27.4452041 22.146383,26.7373318 20.7631915,26.9639275 C19.0212766,27.2479701 16.9602128,26.9039275 14.7293617,26.5783956 C13.2797872,26.5956296 11.9604255,26.444353 10.7814894,26.1954169 C9.44361702,26.1577573 7.85042553,26.1666935 6.38297872,26.193502 C7.47702128,26.8854169 9.2993617,27.8639275 11.7817021,28.593502 C14.1848936,28.6369062 16.3206383,28.580736 17.3553191,28.6139275 C18.6057447,28.6554169 20.34,29.0256296 21.8744681,29.4220126 C22.9097872,29.3083956 23.9853191,29.1360552 25.1048936,28.8883956 C25.1393617,28.880736 25.1738298,28.8737147 25.2089362,28.8654169 C25.9480851,28.6949913 26.6355319,28.4964807 27.2757447,28.2724381 C27.2955319,28.2666935 27.3140426,28.2590339 27.3325532,28.2520126" id="Fill-828" fill="#DFA463"></path>
            <path d="M32.8825532,24.9229787 C30.9944681,23.9202128 28.3129787,22.4042553 25.4974468,21.0638298 C25.4604255,21.2368085 25.4170213,21.4078723 25.3646809,21.5770213 C25.1923404,22.1380851 24.9408511,22.6729787 24.6108511,23.1734043 C23.796383,24.4065957 22.4859574,25.4323404 20.5806383,26.1153191 C20.0731915,26.2978723 19.5223404,26.4580851 18.9274468,26.5889362 C18.1002128,26.7714894 17.3048936,26.8946809 16.5382979,26.9725532 C15.9453191,27.0325532 15.3695745,27.0631915 14.8148936,27.0708511 C17.0457447,27.396383 19.1068085,27.7404255 20.8487234,27.456383 C22.2319149,27.2297872 25.0959574,27.9376596 27.4180851,28.7444681 C29.97,27.8419149 31.74,26.526383 32.8551064,24.9606383 C32.8646809,24.947234 32.873617,24.9344681 32.8825532,24.9229787 Z M10.8670213,26.6878723 C10.2159574,26.5519149 9.60638298,26.3846809 9.04340426,26.1989362 C8.29468085,25.9538298 7.62638298,25.6768085 7.04106383,25.3978723 C6.18,25.3461702 5.31702128,25.2817021 4.46808511,25.2089362 C4.76297872,25.5057447 5.03744681,25.7202128 5.26851064,25.8357447 L5.26851064,25.8370213 C5.27297872,25.8402128 5.68595745,26.19 6.46851064,26.6859574 C7.93595745,26.6591489 9.52914894,26.6502128 10.8670213,26.6878723 Z" id="Fill-829" fill="#DEA062"></path>
            <path d="M4.38957447,23.7631915 C4.16297872,23.586383 4.04680851,23.4804255 4.04680851,23.4804255 C3.87382979,23.387234 3.66829787,23.213617 3.44553191,22.9755319 C3.14489362,22.6538298 2.81425532,22.2102128 2.48234043,21.6555319 C2.07957447,20.9770213 1.6806383,20.1370213 1.3493617,19.163617 C1.32446809,19.1585106 1.30021277,19.1546809 1.27659574,19.1489362 C1.52425532,20.0597872 1.82808511,20.8940426 2.16,21.642766 C2.46638298,22.3334043 2.79638298,22.9506383 3.13148936,23.4861702 C3.53361702,23.5780851 3.95617021,23.6706383 4.38957447,23.7631915" id="Fill-830" fill="#DD9B61"></path>
            <path d="M6.61659574,25.2185106 C5.75553191,24.8087234 5.07510638,24.3919149 4.58744681,24.0587234 C4.35893617,23.9023404 4.17255319,23.7651064 4.03021277,23.6546809 C3.59680851,23.5621277 3.17425532,23.4695745 2.77212766,23.3776596 C3.10851064,23.9151064 3.44680851,24.3714894 3.76723404,24.7340426 C3.86106383,24.84 3.95361702,24.9389362 4.04361702,25.0295745 C4.89255319,25.1023404 5.75553191,25.1668085 6.61659574,25.2185106 Z M0.99,19.0551064 C0.884680851,18.7487234 0.787021277,18.4282979 0.697021277,18.0957447 C0.677234043,18.0223404 0.657446809,17.9476596 0.638297872,17.8723404 C0.644042553,17.897234 0.648510638,17.922766 0.654255319,17.9470213 C0.677234043,18.0587234 0.701489362,18.1710638 0.726382979,18.2814894 C0.785744681,18.5387234 0.849574468,18.7934043 0.917234043,19.0404255 C0.940851064,19.0461702 0.965106383,19.05 0.99,19.0551064 Z" id="Fill-831" fill="#DE9E62"></path>
            <path d="M21.5821277,29.5519149 C20.0476596,29.1555319 18.3134043,28.7853191 17.0629787,28.7438298 C16.0282979,28.7106383 13.8925532,28.7668085 11.4893617,28.7234043 C14.1376596,29.5034043 17.5346809,29.9961702 21.5821277,29.5519149" id="Fill-832" fill="#DFA964"></path>
            <path d="M0.516919231,9.57446809 C0.341387316,10.2568085 0.215642635,10.9257447 0.132663912,11.5774468 C0.0675575289,12.0804255 0.026706465,12.5744681 0.0101107204,13.056383 C-0.023080769,13.9959574 0.026706465,14.892766 0.140961784,15.7353191 C0.140961784,15.7359574 0.140961784,15.7378723 0.140961784,15.7385106 C0.0445788055,14.8040426 0.0145788055,13.8191489 0.0694724225,12.792766 C0.101387316,12.1825532 0.167770295,11.556383 0.264153274,10.9187234 C0.33117455,10.4776596 0.414791571,10.0289362 0.516919231,9.57446809" id="Fill-833" fill="#F1DEC9"></path>
            <path d="M1.55536763,8.29787234 C1.40919742,8.71531915 1.28217614,9.12893617 1.17175061,9.53808511 C1.15132508,9.61148936 1.13217614,9.68553191 1.1130272,9.75893617 C1.01089954,10.2134043 0.927282522,10.6621277 0.860261245,11.1031915 C0.763878267,11.7408511 0.697495288,12.3670213 0.665580394,12.977234 C0.610686777,14.003617 0.640686777,14.9885106 0.737069756,15.9229787 C0.800899543,16.3991489 0.884516565,16.8561702 0.985367628,17.2940426 C1.01409103,17.4210638 1.04472933,17.5461702 1.07536763,17.67 C0.988559118,17.243617 0.914516565,16.8038298 0.857069756,16.3493617 C0.841750607,16.23 0.827708054,16.1093617 0.814942097,15.9880851 C0.565367628,13.6934043 0.716005926,11.0904255 1.55536763,8.29787234" id="Fill-834" fill="#E6CDB2"></path>
            <path d="M25.5517449,18.2125532 C22.6979151,16.9174468 19.7757874,15.7557447 17.6017449,15.1078723 C13.4649363,13.8765957 5.52897889,12.1697872 0.861744851,11.2021277 C1.00089379,10.2861702 1.21217038,9.34276596 1.50451081,8.37893617 C1.51217038,8.35085106 1.52046826,8.32404255 1.52876613,8.29787234 C1.51536187,8.33489362 1.50131932,8.37319149 1.48791506,8.41148936 C0.648553362,11.2040426 0.497915064,13.8070213 0.747489532,16.1017021 C0.644085277,15.143617 0.611532085,14.1312766 0.667702298,13.0748936 C0.699617191,12.4653191 0.765361872,11.8391489 0.861744851,11.2021277 C5.52897889,12.1697872 13.4649363,13.8765957 17.6017449,15.1078723 C19.7757874,15.7557447 22.6979151,16.9174468 25.5517449,18.2125532 Z M18.9223831,23.7210638 C18.91983,23.7121277 18.9185534,23.7038298 18.9160002,23.6955319 C18.9185534,23.7038298 18.91983,23.7121277 18.9223831,23.7210638 Z M18.9230214,23.7223404 C18.9989789,24.0574468 18.9096172,24.3676596 18.6096172,24.63 C18.9096172,24.3676596 18.9989789,24.0574468 18.9230214,23.7223404 Z M18.8987661,23.6310638 C18.8962129,23.6246809 18.8930214,23.6151064 18.8904683,23.6074468 C18.8930214,23.6151064 18.8962129,23.6246809 18.8987661,23.6310638 Z M18.8840853,23.5895745 C18.883447,23.5870213 18.883447,23.5851064 18.8828087,23.5838298 C18.883447,23.5851064 18.883447,23.5870213 18.8840853,23.5895745 Z M18.8738725,23.5595745 C18.8279151,23.4344681 18.7602555,23.3080851 18.6753619,23.1785106 C18.7602555,23.3080851 18.8279151,23.4344681 18.8738725,23.5595745 Z M18.6708938,23.1734043 C18.6664257,23.166383 18.6619576,23.1593617 18.6574895,23.1529787 C18.6619576,23.1593617 18.6664257,23.166383 18.6708938,23.1734043 Z M18.6549363,23.1491489 C18.6440853,23.1325532 18.6319576,23.1159574 18.6211066,23.0993617 C18.6319576,23.1159574 18.6440853,23.1325532 18.6549363,23.1491489 Z M18.6077023,23.0814894 C18.6051491,23.0782979 18.6032342,23.0751064 18.6013193,23.0725532 C18.6032342,23.0751064 18.6051491,23.0782979 18.6077023,23.0814894 Z M18.5891917,23.057234 C18.5860002,23.0521277 18.5821704,23.0476596 18.5789789,23.0419149 C18.5821704,23.0476596 18.5860002,23.0521277 18.5891917,23.057234 Z M18.5783406,23.0419149 C18.5777023,23.0412766 18.5777023,23.0406383 18.5777023,23.0406383 C18.5777023,23.0406383 18.5777023,23.0412766 18.5783406,23.0419149 Z M18.5572768,23.0151064 C18.5508938,23.0068085 18.5445108,22.9978723 18.5374895,22.9882979 C18.5445108,22.9978723 18.5508938,23.0068085 18.5572768,23.0151064 Z M18.5374895,22.9876596 C18.5157874,22.9614894 18.4940853,22.9346809 18.4717449,22.9078723 C18.4940853,22.9346809 18.5157874,22.9614894 18.5374895,22.9876596 Z M18.4704683,22.907234 C18.46983,22.9065957 18.4691917,22.9053191 18.4685534,22.9040426 C18.4691917,22.9053191 18.46983,22.9065957 18.4704683,22.907234 Z M18.4474895,22.8797872 C18.4474895,22.8797872 18.4474895,22.8797872 18.4468512,22.8785106 C18.4474895,22.8797872 18.4474895,22.8797872 18.4474895,22.8797872 Z M12.6421704,19.6512766 C12.6351491,19.6487234 12.6274895,19.6468085 12.6191917,19.6448936 C12.6274895,19.6468085 12.6351491,19.6487234 12.6421704,19.6512766 Z M12.5872768,19.6353191 C12.564298,19.6289362 12.5400427,19.6212766 12.517064,19.6148936 C12.5400427,19.6212766 12.564298,19.6289362 12.5872768,19.6353191 Z" id="Fill-835" fill="#E0AE5C"></path>
            <path d="M25.5223404,17.8614894 C22.6685106,16.566383 19.746383,15.4046809 17.5723404,14.7568085 C13.4355319,13.5255319 5.49957447,11.8187234 0.832340426,10.8510638 C0.735957447,11.4880851 0.670212766,12.1142553 0.638297872,12.7238298 L0.952978723,12.726383 C0.952978723,12.726383 10.5676596,17.2282979 16.6187234,17.5934043 C19.1489362,17.747234 22.3602128,18.9925532 25.4131915,20.4446809 C25.4425532,20.3080851 25.4680851,20.1714894 25.4897872,20.033617 C25.5446809,19.6895745 25.5740426,19.3378723 25.5797872,18.9797872 C25.5855319,18.612766 25.5651064,18.2393617 25.5223404,17.8614894" id="Fill-836" fill="#D89E61"></path>
            <path d="M24.9351064,16.5312766 C24.8004255,16.0908511 24.6382979,15.6491489 24.4493617,15.2093617 C23.9004255,13.9365957 23.1331915,12.6810638 22.1929787,11.5123404 C17.3202128,9.13659574 10.47,6.83425532 2.30744681,6.38297872 C2.00297872,6.83170213 1.73042553,7.33659574 1.5012766,7.91425532 C1.47574468,7.9787234 1.45468085,8.0406383 1.42914894,8.10574468 C1.38510638,8.22191489 1.34234043,8.33744681 1.30085106,8.45361702 C1.29255319,8.47978723 1.28425532,8.50659574 1.27659574,8.53468085 C4.6487234,9.07978723 12.4180851,10.6876596 21.5119149,14.9017021 C22.7221277,15.4614894 23.8614894,16.0053191 24.9351064,16.5312766" id="Fill-837" fill="#D8A462"></path>
            <path d="M22.4387234,11.0559574 C22.0959574,10.6302128 21.7295745,10.2159574 21.3434043,9.81702128 C20.43,8.87553191 19.3595745,7.95510638 18.1959574,7.11446809 C13.302766,5.45042553 8.68276596,4.4406383 4.96851064,3.82978723 C4.05765957,4.25808511 3.25531915,4.91808511 2.60744681,5.8487234 C2.58957447,5.87425532 2.57170213,5.90042553 2.55319149,5.92659574 C10.7157447,6.37787234 17.5659574,8.68021277 22.4387234,11.0559574" id="Fill-838" fill="#D9A061"></path>
            <path d="M17.6955319,7.11314745 C13.5121277,4.09463681 8.11914894,2.10889213 4.46808511,3.8284666 C8.18234043,4.43931766 12.8023404,5.4491049 17.6955319,7.11314745" id="Fill-839" fill="#D89E61"></path>
            <path d="M25.1431915,17.0617021 C25.0851064,16.8070213 25.0168085,16.5504255 24.9395745,16.2944681 C23.8659574,15.7685106 22.7265957,15.2246809 21.516383,14.6648936 C12.4225532,10.4508511 4.65319149,8.84297872 1.28106383,8.29787234 C0.988723404,9.26170213 0.777446809,10.2051064 0.638297872,11.1210638 C5.30553191,12.0887234 13.2414894,13.7955319 17.3782979,15.0268085 C19.5523404,15.6746809 22.4744681,16.836383 25.3282979,18.1314894 C25.2868085,17.7778723 25.2255319,17.4204255 25.1431915,17.0617021" id="Fill-840" fill="#D9A262"></path>
            <path d="M14.7989362,26.5531915 C14.153617,26.4587234 13.4948936,26.3655319 12.8246809,26.2895745 C12.2980851,26.2314894 11.616383,26.1931915 10.8510638,26.1702128 C12.03,26.4191489 13.3493617,26.5704255 14.7989362,26.5531915" id="Fill-841" fill="#D89E61"></path>
            <path d="M25.4404581,20.4868085 C22.3874794,19.0346809 19.1762028,17.7893617 16.64599,17.6355319 C10.5949262,17.2704255 0.980245336,12.7685106 0.980245336,12.7685106 L0.665564485,12.7659574 C0.609394273,13.8223404 0.641947464,14.8346809 0.745351719,15.792766 C0.758117677,15.9140426 0.77216023,16.0346809 0.787479379,16.1540426 C4.93641555,17.1951064 10.2215219,18.66 12.5149262,19.3059574 C12.5379049,19.3123404 12.5621602,19.32 12.585139,19.326383 C12.59599,19.3289362 12.6068411,19.3321277 12.6170538,19.3359574 C12.6253517,19.3378723 12.6330113,19.3397872 12.6400326,19.3423404 C14.8613092,19.9934043 17.3921602,21.3357447 18.4447134,22.5695745 C18.4453517,22.5708511 18.4453517,22.5708511 18.4453517,22.5708511 C18.452373,22.5778723 18.4593943,22.5861702 18.4664155,22.5951064 C18.4670538,22.596383 18.4676921,22.5976596 18.4683304,22.5982979 C18.469607,22.5982979 18.469607,22.5989362 18.469607,22.5989362 C18.4919475,22.6257447 18.5136496,22.6525532 18.5353517,22.6787234 L18.5353517,22.6793617 C18.542373,22.6889362 18.548756,22.6978723 18.555139,22.7061702 C18.5621602,22.7151064 18.5679049,22.7234043 18.5749262,22.7317021 C18.5749262,22.7317021 18.5755645,22.7323404 18.5762028,22.7329787 L18.5768411,22.7329787 C18.5800326,22.7387234 18.5838624,22.7431915 18.5870538,22.7482979 C18.5915219,22.7540426 18.5947134,22.7591489 18.5991815,22.763617 C18.6010964,22.7661702 18.6030113,22.7693617 18.6055645,22.7725532 C18.6093943,22.7795745 18.6138624,22.7846809 18.6189687,22.7904255 C18.6298198,22.8070213 18.6419475,22.823617 18.6527985,22.8402128 C18.6540751,22.8414894 18.6540751,22.8421277 18.6553517,22.8440426 C18.6598198,22.8504255 18.6642879,22.8574468 18.668756,22.8644681 C18.6706709,22.866383 18.6713092,22.8676596 18.6732241,22.8695745 C18.7581177,22.9991489 18.8257773,23.1255319 18.8717347,23.2506383 C18.8742879,23.2582979 18.8781177,23.2665957 18.8806709,23.2748936 C18.8813092,23.2761702 18.8813092,23.2780851 18.8819475,23.2806383 C18.8838624,23.2857447 18.8857773,23.2914894 18.8883304,23.2985106 C18.8908836,23.3061702 18.8940751,23.3157447 18.8966283,23.3221277 C18.902373,23.3438298 18.908756,23.3655319 18.9138624,23.3865957 C18.9164155,23.3948936 18.9176921,23.4031915 18.9202453,23.4121277 L18.9208836,23.4134043 C18.9968411,23.7485106 18.9074794,24.0587234 18.6074794,24.3210638 C18.4632241,24.4455319 18.1855645,24.552766 17.7942879,24.642766 C15.9279049,25.0691489 11.4942879,25.0946809 6.98407512,24.8208511 C7.56939427,25.0997872 8.23769214,25.3768085 8.98641555,25.6219149 C9.54939427,25.8076596 10.1589687,25.9748936 10.8100326,26.1108511 C11.5753517,26.1338298 12.2570538,26.1721277 12.7836496,26.2302128 C13.4538624,26.3061702 14.1125858,26.3993617 14.7579049,26.4938298 C15.3125858,26.4861702 15.8883304,26.4555319 16.4813092,26.3955319 C17.2479049,26.3176596 18.0432241,26.1944681 18.8704581,26.0119149 C19.4653517,25.8810638 20.0162028,25.7208511 20.5236496,25.5382979 C22.4289687,24.8553191 23.7393943,23.8295745 24.5538624,22.596383 C24.8838624,22.0959574 25.1353517,21.5610638 25.3076921,21 C25.3600326,20.8308511 25.4034368,20.6597872 25.4404581,20.4868085" id="Fill-842" fill="#D89B60"></path>
            <path d="M12.7008511,23.5206383 C12.263617,21.6044681 5.69680851,20.0112766 1.27659574,19.1489362 C1.60787234,20.1223404 2.00680851,20.9623404 2.40957447,21.6408511 C2.74148936,22.1955319 3.07212766,22.6391489 3.37276596,22.9608511 C3.59553191,23.1989362 3.80106383,23.3725532 3.97404255,23.4657447 C3.97404255,23.4657447 4.09021277,23.5717021 4.31680851,23.7485106 C7.07234043,24.33 10.2855319,24.8451064 11.82,24.4959574 C12.4717021,24.3478723 12.8202128,24.042766 12.7008511,23.5206383" id="Fill-843" fill="#D7975F"></path>
            <path d="M18.7710638,23.8538298 C18.7685106,23.8448936 18.767234,23.8365957 18.7646809,23.8282979 C18.7595745,23.807234 18.7531915,23.7855319 18.7474468,23.7638298 C18.7448936,23.7574468 18.7417021,23.7478723 18.7391489,23.7402128 C18.7365957,23.7331915 18.7346809,23.7274468 18.732766,23.7223404 C18.7321277,23.7197872 18.7321277,23.7178723 18.7314894,23.7165957 C18.7289362,23.7082979 18.7251064,23.7 18.7225532,23.6923404 C18.6765957,23.567234 18.6089362,23.4408511 18.5240426,23.3112766 C18.5221277,23.3093617 18.5214894,23.3080851 18.5195745,23.3061702 C18.5151064,23.2991489 18.5106383,23.2921277 18.5061702,23.2857447 C18.5048936,23.2838298 18.5048936,23.2831915 18.503617,23.2819149 C18.492766,23.2653191 18.4806383,23.2487234 18.4697872,23.2321277 C18.4646809,23.226383 18.4602128,23.2212766 18.456383,23.2142553 C18.4538298,23.2110638 18.4519149,23.2078723 18.45,23.2053191 C18.4455319,23.2008511 18.4423404,23.1957447 18.4378723,23.19 C18.4346809,23.1848936 18.4308511,23.1804255 18.4276596,23.1746809 L18.4270213,23.1746809 C18.426383,23.1740426 18.426383,23.1734043 18.426383,23.1734043 C18.4187234,23.1651064 18.4129787,23.1568085 18.4059574,23.1478723 C18.3995745,23.1395745 18.3931915,23.1306383 18.3861702,23.1210638 L18.3861702,23.1204255 C18.3644681,23.0942553 18.342766,23.0674468 18.3204255,23.0406383 C18.3204255,23.0406383 18.3204255,23.04 18.3191489,23.04 C18.3185106,23.0393617 18.3178723,23.0380851 18.317234,23.0368085 C18.3102128,23.0278723 18.3031915,23.0195745 18.2961702,23.0125532 C18.2961702,23.0125532 18.2961702,23.0125532 18.2955319,23.0112766 C17.2429787,21.7774468 14.7121277,20.4351064 12.4908511,19.7840426 C12.4838298,19.7814894 12.4761702,19.7795745 12.4678723,19.7776596 C12.4576596,19.7738298 12.4468085,19.7706383 12.4359574,19.7680851 C12.4129787,19.7617021 12.3887234,19.7540426 12.3657447,19.7476596 C10.0723404,19.1017021 4.78723404,17.6368085 0.638297872,16.5957447 C0.695744681,17.0502128 0.769787234,17.49 0.856595745,17.916383 C0.875744681,17.9917021 0.895531915,18.066383 0.915319149,18.1397872 C1.00531915,18.4723404 1.10297872,18.792766 1.20829787,19.0991489 C5.62851064,19.9614894 12.1953191,21.5546809 12.6325532,23.4708511 C12.7519149,23.9929787 12.4034043,24.2980851 11.7517021,24.4461702 C10.217234,24.7953191 7.00404255,24.2802128 4.24851064,23.6987234 C4.39085106,23.8091489 4.57723404,23.946383 4.80574468,24.102766 C5.29340426,24.4359574 5.97382979,24.852766 6.83489362,25.2625532 C11.3451064,25.536383 15.7787234,25.5108511 17.6451064,25.0844681 C18.036383,24.9944681 18.3140426,24.887234 18.4582979,24.762766 C18.7582979,24.5004255 18.8476596,24.1902128 18.7717021,23.8551064 L18.7710638,23.8538298" id="Fill-844" fill="#D8995F"></path>
        </g>
    </g>
</svg>