<?xml version="1.0" encoding="UTF-8"?>
<svg width="120px" height="120px" viewBox="0 0 120 120" version="1.1" xmlns="http://www.w3.org/2000/svg" xmlns:xlink="http://www.w3.org/1999/xlink">
    <!-- Generator: Sketch 51.1 (57501) - http://www.bohemiancoding.com/sketch -->
    <title>Historic building19</title>
    <desc>Created with Sketch.</desc>
    <defs>
        <polygon id="path-1" points="0.000206896552 0.417586111 119.493103 0.417586111 119.493103 10.2777778 0.000206896552 10.2777778"></polygon>
        <polygon id="path-3" points="0 73.0822972 119.493103 73.0822972 119.493103 0.000102777778 0 0.000102777778"></polygon>
    </defs>
    <g id="Historic-building19" stroke="none" stroke-width="1" fill="none" fill-rule="evenodd">
        <g id="Page-1" transform="translate(0.000000, 23.000000)">
            <g id="Group-3" transform="translate(0.000000, 62.804519)">
                <mask id="mask-2" fill="white">
                    <use xlink:href="#path-1"></use>
                </mask>
                <g id="Clip-2"></g>
                <path d="M119.49331,5.34783611 C119.49331,8.07041944 92.7436552,10.2780861 59.7467586,10.2780861 C26.7498621,10.2780861 0.000206896552,8.07041944 0.000206896552,5.34783611 C0.000206896552,2.62525278 26.7498621,0.417586111 59.7467586,0.417586111 C92.7436552,0.417586111 119.49331,2.62525278 119.49331,5.34783611" id="Fill-1" fill="#284969" mask="url(#mask-2)"></path>
            </g>
            <path d="M15.0004138,33.9054639 C17.2286897,35.3032417 28.0028276,39.2632694 30.3697241,39.9693528 C50.4986897,39.9693528 72.528,40.0351306 92.655931,40.0351306 C95.0693793,39.3639917 106.312138,35.2446583 108.310759,33.9054639 L15.0004138,33.9054639 Z" id="Fill-4" fill="#73181A"></path>
            <path d="M108.711517,34.1131778 L14.9025517,34.1131778 L36.1518621,22.1416222 C44.6946207,23.0707333 79.2856552,23.0727889 87.8501379,22.1416222 C93.9835862,26.1314556 102.578069,30.1223167 108.711517,34.1131778" id="Fill-6" fill="#B01A2C"></path>
            <mask id="mask-4" fill="white">
                <use xlink:href="#path-3"></use>
            </mask>
            <g id="Clip-9"></g>
            <polygon id="Fill-8" fill="#D6E6F1" mask="url(#mask-4)" points="30.3703448 49.4321028 93.0341379 49.4321028 93.0341379 37.5417417 30.3703448 37.5417417"></polygon>
            <polygon id="Fill-10" fill="#D6E6F1" mask="url(#mask-4)" points="30.3703448 25.3605194 93.0341379 25.3605194 93.0341379 17.7169361 30.3703448 17.7169361"></polygon>
            <path d="M15.0004138,11.7630194 C17.2286897,13.161825 28.0028276,17.1218528 30.3697241,17.8279361 C50.4986897,17.8279361 72.528,17.8937139 92.655931,17.8937139 C95.0693793,17.222575 106.312138,13.1032417 108.310759,11.7630194 L15.0004138,11.7630194 Z" id="Fill-11" fill="#73181A" mask="url(#mask-4)"></path>
            <path d="M108.711517,11.9718639 L14.9025517,11.9718639 L33.3018621,0.000308333333 C41.8435862,0.928391667 51.3815172,1.54403056 61.7635862,1.54403056 C72.1797931,1.54608611 81.7477241,0.931475 90.3122069,0.000308333333 C96.4456552,3.99014167 102.578069,7.98100278 108.711517,11.9718639" id="Fill-12" fill="#CC1F33" mask="url(#mask-4)"></path>
            <polygon id="Fill-13" fill="#CC1F33" mask="url(#mask-4)" points="7.48551724 67.283575 111.142759 67.283575 111.142759 44.7988806 7.48551724 44.7988806"></polygon>
            <polygon id="Fill-14" fill="#CC1F33" mask="url(#mask-4)" points="9.47896552 48.1442972 16.137931 48.1442972 16.137931 40.0782972 9.47896552 40.0782972"></polygon>
            <polygon id="Fill-15" fill="#CC1F33" mask="url(#mask-4)" points="7.47206897 48.5441028 18.1437931 48.5441028 18.1437931 42.7443528 7.47206897 42.7443528"></polygon>
            <polygon id="Fill-16" fill="#CC1F33" mask="url(#mask-4)" points="22.7503448 48.1442972 29.4082759 48.1442972 29.4082759 40.0782972 22.7503448 40.0782972"></polygon>
            <polygon id="Fill-17" fill="#CC1F33" mask="url(#mask-4)" points="20.7434483 48.5441028 31.4151724 48.5441028 31.4151724 42.7443528 20.7434483 42.7443528"></polygon>
            <polygon id="Fill-18" fill="#CC1F33" mask="url(#mask-4)" points="36.0206897 48.1442972 42.6796552 48.1442972 42.6796552 40.0782972 36.0206897 40.0782972"></polygon>
            <polygon id="Fill-19" fill="#CC1F33" mask="url(#mask-4)" points="34.0148276 48.5441028 44.6865517 48.5441028 44.6865517 42.7443528 34.0148276 42.7443528"></polygon>
            <polygon id="Fill-20" fill="#CC1F33" mask="url(#mask-4)" points="75.9486207 48.1442972 82.6075862 48.1442972 82.6075862 40.0782972 75.9486207 40.0782972"></polygon>
            <polygon id="Fill-21" fill="#CC1F33" mask="url(#mask-4)" points="73.9417241 48.5441028 84.6134483 48.5441028 84.6134483 42.7443528 73.9417241 42.7443528"></polygon>
            <polygon id="Fill-22" fill="#CC1F33" mask="url(#mask-4)" points="89.22 48.1442972 95.8789655 48.1442972 95.8789655 40.0782972 89.22 40.0782972"></polygon>
            <polygon id="Fill-23" fill="#CC1F33" mask="url(#mask-4)" points="87.2131034 48.5441028 97.8848276 48.5441028 97.8848276 42.7443528 87.2131034 42.7443528"></polygon>
            <polygon id="Fill-24" fill="#CC1F33" mask="url(#mask-4)" points="102.491379 48.1442972 109.150345 48.1442972 109.150345 40.0782972 102.491379 40.0782972"></polygon>
            <polygon id="Fill-25" fill="#CC1F33" mask="url(#mask-4)" points="100.484483 48.5441028 111.156207 48.5441028 111.156207 42.7443528 100.484483 42.7443528"></polygon>
            <polygon id="Fill-26" fill="#CC1F33" mask="url(#mask-4)" points="47.0151724 49.2306583 70.9510345 49.2306583 70.9510345 37.5890194 47.0151724 37.5890194"></polygon>
            <path d="M68.934931,67.2941611 L49.499069,67.2941611 L49.499069,57.5528833 C49.499069,52.2207722 53.8501034,47.8989667 59.217,47.8989667 C64.5838966,47.8989667 68.934931,52.2207722 68.934931,57.5528833 L68.934931,67.2941611 Z" id="Fill-27" fill="#73181A" mask="url(#mask-4)"></path>
            <path d="M74.3195172,37.9322972 L43.5684828,37.9322972 L49.0967586,29.6072972 C51.7481379,30.1211861 55.0202069,30.5405194 58.7712414,30.551825 C62.6733103,30.5651861 66.0653793,30.135575 68.7912414,29.6072972 C70.6336552,32.383325 72.4771034,35.158325 74.3195172,37.9322972" id="Fill-28" fill="#CC1F33" mask="url(#mask-4)"></path>
            <path d="M102.331862,52.4476028 C101.736,52.4476028 101.252897,52.927575 101.252897,53.5206028 L101.252897,61.5650194 C101.252897,62.1580472 101.736,62.6380194 102.331862,62.6380194 C102.927724,62.6380194 103.411862,62.1580472 103.411862,61.5650194 L103.411862,53.5206028 C103.411862,52.927575 102.927724,52.4476028 102.331862,52.4476028" id="Fill-29" fill="#73181A" mask="url(#mask-4)"></path>
            <path d="M92.6144483,52.4476028 C92.0175517,52.4476028 91.5344483,52.927575 91.5344483,53.5206028 L91.5344483,61.5650194 C91.5344483,62.1580472 92.0175517,62.6380194 92.6144483,62.6380194 C93.2103103,62.6380194 93.6934138,62.1580472 93.6934138,61.5650194 L93.6934138,53.5206028 C93.6934138,52.927575 93.2103103,52.4476028 92.6144483,52.4476028" id="Fill-30" fill="#73181A" mask="url(#mask-4)"></path>
            <path d="M82.8964138,52.4476028 C82.2995172,52.4476028 81.8164138,52.927575 81.8164138,53.5206028 L81.8164138,61.5650194 C81.8164138,62.1580472 82.2995172,62.6380194 82.8964138,62.6380194 C83.4922759,62.6380194 83.9753793,62.1580472 83.9753793,61.5650194 L83.9753793,53.5206028 C83.9753793,52.927575 83.4922759,52.4476028 82.8964138,52.4476028" id="Fill-31" fill="#73181A" mask="url(#mask-4)"></path>
            <path d="M35.7324828,52.4476028 C35.1355862,52.4476028 34.6524828,52.927575 34.6524828,53.5206028 L34.6524828,61.5650194 C34.6524828,62.1580472 35.1355862,62.6380194 35.7324828,62.6380194 C36.3283448,62.6380194 36.8114483,62.1580472 36.8114483,61.5650194 L36.8114483,53.5206028 C36.8114483,52.927575 36.3283448,52.4476028 35.7324828,52.4476028" id="Fill-32" fill="#73181A" mask="url(#mask-4)"></path>
            <path d="M26.0145517,52.4476028 C25.4186897,52.4476028 24.9355862,52.927575 24.9355862,53.5206028 L24.9355862,61.5650194 C24.9355862,62.1580472 25.4186897,62.6380194 26.0145517,62.6380194 C26.6114483,62.6380194 27.0945517,62.1580472 27.0945517,61.5650194 L27.0945517,53.5206028 C27.0945517,52.927575 26.6114483,52.4476028 26.0145517,52.4476028" id="Fill-33" fill="#73181A" mask="url(#mask-4)"></path>
            <path d="M16.2970345,52.4476028 C15.7001379,52.4476028 15.2170345,52.927575 15.2170345,53.5206028 L15.2170345,61.5650194 C15.2170345,62.1580472 15.7001379,62.6380194 16.2970345,62.6380194 C16.8928966,62.6380194 17.376,62.1580472 17.376,61.5650194 L17.376,53.5206028 C17.376,52.927575 16.8928966,52.4476028 16.2970345,52.4476028" id="Fill-34" fill="#73181A" mask="url(#mask-4)"></path>
        </g>
    </g>
</svg>