<?xml version="1.0" encoding="UTF-8"?>
<svg width="120px" height="120px" viewBox="0 0 120 120" version="1.1" xmlns="http://www.w3.org/2000/svg" xmlns:xlink="http://www.w3.org/1999/xlink">
    <!-- Generator: Sketch 51.1 (57501) - http://www.bohemiancoding.com/sketch -->
    <title>Bicycle4</title>
    <desc>Created with Sketch.</desc>
    <defs></defs>
    <g id="Bicycle4" stroke="none" stroke-width="1" fill="none" fill-rule="evenodd">
        <g id="Group" transform="translate(2.000000, 22.000000)">
            <polygon id="Fill-79" fill="#BEC9D2" points="91.230075 73.0662857 91.78725 73.0662857 91.78725 32.1914286 91.230075 32.1914286"></polygon>
            <polygon id="Fill-80" fill="#BEC9D2" points="70.9435 52.9057143 112.073825 52.9057143 112.073825 52.352 70.9435 52.352"></polygon>
            <polygon id="Fill-81" fill="#BEC9D2" points="76.7694575 66.8845143 77.1633325 67.2759429 106.246832 38.3730857 105.852957 37.9816571"></polygon>
            <polygon id="Fill-82" fill="#BEC9D2" points="105.853015 67.276 106.24689 66.8845714 77.162815 37.9817143 76.769515 38.3731429"></polygon>
            <polygon id="Fill-83" fill="#BEC9D2" points="110.37332 60.7698286 110.58837 60.2589714 72.64297 44.4881143 72.42792 44.9984"></polygon>
            <polygon id="Fill-84" fill="#BEC9D2" points="99.6998825 33.8809143 99.1858325 33.6672 83.3164075 71.3769143 83.8298825 71.5906286"></polygon>
            <polygon id="Fill-85" fill="#BEC9D2" points="99.05525 71.6423429 99.57045 71.4320571 83.960925 33.6154857 83.445725 33.8257714"></polygon>
            <polygon id="Fill-86" fill="#BEC9D2" points="110.64058 45.1286857 110.42898 44.6166857 72.376055 60.1292571 72.58708 60.6412571"></polygon>
            <path d="M72.1082775,52.6289143 C72.1082775,41.9809143 80.7930775,33.3494857 91.5082025,33.3494857 C102.222753,33.3494857 110.908128,41.9809143 110.908128,52.6289143 C110.908128,63.2769143 102.222753,71.9083429 91.5082025,71.9083429 C80.7930775,71.9083429 72.1082775,63.2769143 72.1082775,52.6289143 M68.3880275,52.6289143 C68.3880275,65.3186286 78.7391775,75.6049143 91.5082025,75.6049143 C104.276653,75.6049143 114.627803,65.3186286 114.627803,52.6289143 C114.627803,39.9392 104.276653,29.6529143 91.5082025,29.6529143 C78.7391775,29.6529143 68.3880275,39.9392 68.3880275,52.6289143" id="Fill-87" fill="#000000"></path>
            <path d="M74.2218625,52.6289143 C74.2218625,62.1014857 81.9763125,69.8072 91.5080875,69.8072 C101.039863,69.8072 108.794313,62.1014857 108.794313,52.6289143 C108.794313,43.1563429 101.039863,35.4506286 91.5080875,35.4506286 C81.9763125,35.4506286 74.2218625,43.1563429 74.2218625,52.6289143 M73.5255375,52.6289143 C73.5255375,42.7746286 81.5922125,34.7580571 91.5080875,34.7580571 C101.423963,34.7580571 109.490638,42.7746286 109.490638,52.6289143 C109.490638,62.4826286 101.423963,70.4997714 91.5080875,70.4997714 C81.5922125,70.4997714 73.5255375,62.4826286 73.5255375,52.6289143" id="Fill-88" fill="#000000"></path>
            <polygon id="Fill-89" fill="#BEC9D2" points="23.02645 73.0662857 23.583625 73.0662857 23.583625 32.1914286 23.02645 32.1914286"></polygon>
            <polygon id="Fill-90" fill="#BEC9D2" points="2.739875 52.9057143 43.8702 52.9057143 43.8702 52.352 2.739875 52.352"></polygon>
            <polygon id="Fill-91" fill="#BEC9D2" points="8.5662925 66.8845143 8.9607425 67.2759429 38.0442425 38.3730857 37.6497925 37.9816571"></polygon>
            <polygon id="Fill-92" fill="#BEC9D2" points="37.64985 67.276 38.0443 66.8845714 8.960225 37.9817143 8.56635 38.3731429"></polygon>
            <polygon id="Fill-93" fill="#BEC9D2" points="42.1700975 60.7698286 42.3851475 60.2589714 4.4397475 44.4881143 4.2252725 44.9984"></polygon>
            <polygon id="Fill-94" fill="#BEC9D2" points="31.49666 33.8809143 30.98261 33.6672 15.113185 71.3769143 15.627235 71.5906286"></polygon>
            <polygon id="Fill-95" fill="#BEC9D2" points="30.8520275 71.6423429 31.3672275 71.4320571 15.7577025 33.6154857 15.2425025 33.8257714"></polygon>
            <polygon id="Fill-96" fill="#BEC9D2" points="42.4373575 45.1286857 42.2257575 44.6166857 4.1728325 60.1292571 4.3838575 60.6412571"></polygon>
            <path d="M3.905055,52.6289143 C3.905055,41.9809143 12.59043,33.3494857 23.30498,33.3494857 C34.01953,33.3494857 42.70548,41.9809143 42.70548,52.6289143 C42.70548,63.2769143 34.01953,71.9083429 23.30498,71.9083429 C12.59043,71.9083429 3.905055,63.2769143 3.905055,52.6289143 M0.184805,52.6289143 C0.184805,65.3186286 10.535955,75.6049143 23.30498,75.6049143 C36.074005,75.6049143 46.42458,65.3186286 46.42458,52.6289143 C46.42458,39.9392 36.074005,29.6529143 23.30498,29.6529143 C10.535955,29.6529143 0.184805,39.9392 0.184805,52.6289143" id="Fill-97" fill="#000000"></path>
            <path d="M6.019215,52.6289143 C6.019215,62.1014857 13.77309,69.8072 23.30544,69.8072 C32.83664,69.8072 40.59109,62.1014857 40.59109,52.6289143 C40.59109,43.1563429 32.83664,35.4506286 23.30544,35.4506286 C13.77309,35.4506286 6.019215,43.1563429 6.019215,52.6289143 M5.32289,52.6289143 C5.32289,42.7746286 13.389565,34.7580571 23.30544,34.7580571 C33.22074,34.7580571 41.287415,42.7746286 41.287415,52.6289143 C41.287415,62.4826286 33.22074,70.4997714 23.30544,70.4997714 C13.389565,70.4997714 5.32289,62.4826286 5.32289,52.6289143" id="Fill-98" fill="#000000"></path>
            <path d="M71.8583825,18.6886286 C71.9975325,18.6886286 72.1389825,18.6606286 72.2752575,18.6017714 C72.8042575,18.3726286 73.0451825,17.7606286 72.8151825,17.2354857 C71.6191825,14.5109143 71.1137575,12.6126286 71.2707325,11.4303429 C71.3857325,10.5600571 71.8353825,10.1069143 72.6875325,9.31605714 C73.2228575,8.81948571 73.8300575,8.25605714 74.3855075,7.45834286 C75.1864825,6.30634286 75.0910325,5.28405714 74.8696575,4.6292 C74.0796075,2.29205714 70.4691825,1.05091429 70.0603575,0.9172 C69.5123825,0.737771429 68.9218575,1.03377143 68.7413075,1.57834286 C68.5613325,2.12291429 68.8586075,2.7092 69.4054325,2.88862857 C70.3875325,3.21262857 72.5311325,4.22577143 72.8899325,5.29148571 C72.9600825,5.50005714 72.9980325,5.8012 72.6662575,6.27777143 C72.2396075,6.89148571 71.7428075,7.35262857 71.2615325,7.79891429 C69.1098825,9.79605714 68.0110575,11.4840571 70.9004325,18.0652 C71.0717825,18.4554857 71.4553075,18.6886286 71.8583825,18.6886286" id="Fill-99" fill="#A6B3BD"></path>
            <path d="M91.50665,54.7425143 C91.9747,54.7425143 92.431825,54.5082286 92.6946,54.0825143 C93.097675,53.4316571 92.8924,52.5790857 92.237475,52.1790857 C92.188025,52.1488 87.1907,49.0573714 84.500275,44.7413714 C81.701175,40.2510857 72.344775,14.9756571 72.250475,14.7208 C71.9854,14.0036571 71.184425,13.6350857 70.462225,13.8990857 C69.7406,14.1625143 69.3703,14.9579429 69.635375,15.6756571 C70.024075,16.7265143 79.18555,41.4722286 82.132425,46.1990857 C85.17705,51.0836571 90.551575,54.3990857 90.7787,54.5379429 C91.0064,54.6762286 91.25825,54.7425143 91.50665,54.7425143" id="Fill-100" fill="#00BCE9"></path>
            <path d="M40.0374225,30.3719429 C40.1524225,30.3719429 40.2697225,30.3525143 40.3847225,30.3125143 C40.9292475,30.1216571 41.2144475,29.5285143 41.0223975,28.9879429 C40.9982475,28.9193714 38.5826725,22.1170857 37.3349225,18.7628 C37.1348225,18.2250857 36.5345225,17.9502286 35.9934475,18.1490857 C35.4517975,18.3479429 35.1752225,18.9445143 35.3753225,19.4828 C36.6178975,22.8228 39.0282975,29.6108 39.0524475,29.6788 C39.2036725,30.1050857 39.6067475,30.3719429 40.0374225,30.3719429" id="Fill-101" fill="#A6B3BD"></path>
            <path d="M29.62676,18.8756 C29.760735,19.4476 30.040185,20.0150286 30.528935,20.3453143 C30.809535,20.5344571 31.141885,20.6344571 31.47596,20.6904571 C32.433335,20.8510286 33.52871,20.6058857 34.10141,19.8258857 C34.226185,19.6561714 34.32451,19.4333143 34.23941,19.2401714 C34.151435,19.0401714 33.89556,18.9613143 33.67821,18.9967429 C33.46086,19.0316 33.269385,19.1516 33.07216,19.2493143 C32.53971,19.5144571 31.86351,19.6150286 31.368435,19.2853143 C30.81126,18.9138857 30.687635,18.1190286 30.88486,17.4813143 C31.001585,17.1024571 31.16776,16.6784571 30.76641,16.4190286 C30.505935,16.2504571 30.13161,16.3258857 29.912535,16.5127429 C29.34846,16.9956 29.48416,18.2664571 29.62676,18.8756" id="Fill-102" fill="#7C8B96"></path>
            <path d="M42.97757,14.6970286 C39.342995,13.9301714 35.55777,16.2244571 31.94102,15.3776 C30.76457,15.1027429 29.63987,14.4987429 28.431795,14.5444571 C28.02412,14.5598857 27.60092,14.6604571 27.299045,14.9330286 C26.99717,15.2056 26.85802,15.6821714 27.063295,16.0324571 C27.213945,16.2901714 27.504895,16.4278857 27.784345,16.5336 C29.270145,17.0964571 31.035395,17.2496 32.08247,18.4387429 C32.714395,19.1570286 32.98522,20.1678857 33.729845,20.7707429 C34.579695,21.4581714 35.837795,21.4153143 36.852095,21.0038857 C37.866395,20.5918857 38.716245,19.8713143 39.61842,19.2536 C40.433195,18.6953143 41.319845,18.2084571 42.28987,18.0118857 C42.75907,17.9164571 43.24092,17.8907429 43.70552,17.7753143 C44.169545,17.6598857 44.63127,17.4376 44.902095,17.0456 C45.755395,15.8101714 43.936095,14.8993143 42.97757,14.6970286" id="Fill-103" fill="#000000"></path>
            <path d="M69.91494,16.5742286 C69.91494,16.5736571 69.914365,16.5730857 69.91379,16.5725143 C69.914365,16.5730857 69.91494,16.5736571 69.91494,16.5742286 M44.704065,45.3639429 L37.700565,27.1828 C37.42514,26.4690857 37.784515,25.6690857 38.503265,25.3959429 C39.222015,25.1216571 40.027015,25.4793714 40.301865,26.1930857 L46.94139,43.4279429 C54.63834,42.8770857 60.510815,40.0896571 64.40529,35.1342286 C70.198415,27.7628 69.879865,17.5868 69.616515,16.0650857 C69.45494,15.5656571 69.587765,14.9959429 70.002915,14.6188 C70.571015,14.1028 71.451915,14.1422286 71.970565,14.7056571 C72.273015,15.0342286 72.402965,15.3256571 72.47944,16.9148 C72.51509,17.6599429 72.53694,18.8719429 72.434015,20.4176571 C72.26324,22.9965143 71.712965,26.9050857 70.060415,30.8765143 C67.29754,37.5170857 60.89319,45.5748 46.06854,46.2519429 C46.047265,46.2525143 46.02599,46.2530857 46.004715,46.2530857 C45.43029,46.2530857 44.91164,45.9010857 44.704065,45.3639429" id="Fill-104" fill="#00BCE9"></path>
            <path d="M38.0440125,33.776 C38.3878625,33.776 38.7317125,33.6502857 39.0013875,33.3971429 C39.5602875,32.8714286 39.5844375,31.996 39.0554375,31.4405714 C38.8622375,31.2377143 34.2582125,26.464 28.5869875,25.8645714 C23.3815125,25.3137143 9.8465875,24.6697143 9.2733125,24.6428571 C8.5033875,24.6068571 7.8524875,25.196 7.8162625,25.9594286 C7.7788875,26.7228571 8.3722875,27.3714286 9.1404875,27.408 C9.2807875,27.4148571 23.1676125,28.0754286 28.2925875,28.6171429 C32.9529625,29.1097143 36.9917625,33.3011429 37.0320125,33.3434286 C37.3062875,33.6308571 37.6742875,33.776 38.0440125,33.776" id="Fill-105" fill="#00BCE9"></path>
            <path d="M22.9407175,53.4844 C23.3742675,53.4844 23.7842425,53.2838286 24.0487425,52.9386857 L41.2510175,30.4912571 C41.7167675,29.8832571 41.5988925,29.0146857 40.9870925,28.5512571 C40.3747175,28.0878286 39.5012925,28.2061143 39.0349675,28.8141143 L23.1028675,49.6038286 C17.1677175,38.7324 16.5104925,26.3935429 16.5047425,26.2638286 C16.4679425,25.5004 15.8130175,24.9129714 15.0471175,24.9466857 C14.2794925,24.9826857 13.6860925,25.6301143 13.7217425,26.3935429 C13.7499175,26.9821143 14.4824675,40.9444 21.7504675,52.8192571 C21.9902425,53.2106857 22.4076925,53.4586857 22.8676925,53.4826857 C22.8918425,53.4838286 22.9165675,53.4844 22.9407175,53.4844" id="Fill-106" fill="#00BCE9"></path>
            <path d="M51.5750275,55.9846857 C51.9338275,55.9846857 52.2811275,55.8464 52.5416025,55.5966857 L77.7363775,31.4395429 C78.2901025,30.9086857 78.3056275,30.0321143 77.7720275,29.4824 C77.2378525,28.9321143 76.3563775,28.9161143 75.8026525,29.4475429 L51.0644275,53.1664 L23.0625025,50.7218286 C22.2966025,50.6544 21.6204025,51.2178286 21.5531275,51.9789714 C21.4858525,52.7406857 22.0522275,53.4121143 22.8187025,53.4789714 L51.4525525,55.9795429 C51.4933775,55.9829714 51.5342025,55.9846857 51.5750275,55.9846857" id="Fill-107" fill="#00BCE9"></path>
            <path d="M46.4584475,49.6618857 C45.7109475,49.8104571 44.9381475,49.9636 44.1641975,50.0636 C42.4380475,50.2864571 40.7055725,50.1887429 39.0162225,49.7733143 C37.7494975,49.4618857 36.5276225,48.9721714 35.3454225,48.4990286 C34.1396475,48.0161714 32.8924725,47.5167429 31.6205725,47.2201714 C28.8099725,46.5641714 25.7095725,46.9116 23.1157475,48.1721714 C21.1296975,49.1378857 19.5582225,51.4178857 20.3660975,53.5618857 C20.4218725,53.7104571 20.4879975,53.8601714 20.5581475,54.0184571 C20.7979225,54.5613143 21.0704725,55.1761714 20.9094725,55.8293143 C20.8191975,56.1967429 20.6133475,56.4864571 20.4138225,56.7670286 C20.2528225,56.9938857 20.1004475,57.2087429 20.0343225,57.4361714 C19.8761975,57.9796 20.2315475,58.5641714 20.6282975,58.8773143 C21.1135975,59.2601714 21.7667975,59.4418857 22.3935475,59.5956 C28.1188225,60.9956 34.1729975,61.0498857 39.4008975,60.9898857 C42.6226225,60.9533143 46.3612725,60.8636 49.9463975,60.2613143 C53.0749725,59.7356 55.5376975,59.1093143 56.4099725,56.2876 C56.8584725,54.8338857 56.6307725,53.2036 55.8004725,51.9264571 C55.0506725,50.7738857 53.8276475,49.8996 52.3562225,49.4658857 C51.6242475,49.2498857 50.9026225,49.1658857 50.1815725,49.1658857 C48.9539475,49.1658857 47.7280475,49.4093143 46.4584475,49.6618857 M22.2273725,60.2676 C21.5258725,60.0956 20.7898725,59.8887429 20.1953225,59.4190286 C19.6030725,58.9516 19.1166225,58.0978857 19.3655975,57.2441714 C19.4644975,56.9041714 19.6582725,56.6316 19.8451475,56.3681714 C20.0141975,56.1298857 20.1740475,55.9047429 20.2332725,55.6647429 C20.3373475,55.2396 20.1355225,54.7818857 19.9204725,54.2973143 C19.8497475,54.1373143 19.7767225,53.9716 19.7134725,53.8047429 C18.7675975,51.2921714 20.5449225,48.6516 22.8098475,47.5504571 C25.5859475,46.2013143 28.7714475,45.8441714 31.7804225,46.5458857 C33.1034975,46.8544571 34.3753975,47.3641714 35.6058975,47.8573143 C36.7650975,48.3218857 37.9639725,48.8018857 39.1829725,49.1018857 C40.7889475,49.4956 42.4340225,49.5887429 44.0744975,49.3773143 C44.8254475,49.2807429 45.5855975,49.1293143 46.3215975,48.9830286 C48.3323725,48.5836 50.4109975,48.1704571 52.5545975,48.8024571 C54.1852975,49.2830286 55.5457475,50.2590286 56.3858225,51.5510286 C57.3259475,52.9973143 57.5841225,54.8441714 57.0752475,56.4904571 C56.0074725,59.9453143 52.7115725,60.4984571 50.0631225,60.9436 C46.4273975,61.5544571 42.6576975,61.6447429 39.4083725,61.6818857 C38.6395975,61.6904571 37.8535725,61.6973143 37.0525975,61.6973143 C32.3640475,61.6973143 27.1850225,61.4801714 22.2273725,60.2676" id="Fill-108" fill="#3B464E"></path>
            <path d="M26.28854,52.1002286 C26.28854,53.9379429 24.789515,55.4270857 22.94089,55.4270857 C21.09169,55.4270857 19.592665,53.9379429 19.592665,52.1002286 C19.592665,50.2630857 21.09169,48.7733714 22.94089,48.7733714 C24.789515,48.7733714 26.28854,50.2630857 26.28854,52.1002286" id="Fill-109" fill="#A6B3BD"></path>
            <path d="M24.97455,52.1002286 C24.97455,53.2168 24.06375,54.1213714 22.940775,54.1213714 C21.817225,54.1213714 20.907,53.2168 20.907,52.1002286 C20.907,50.9842286 21.817225,50.0790857 22.940775,50.0790857 C24.06375,50.0790857 24.97455,50.9842286 24.97455,52.1002286" id="Fill-110" fill="#7C8B96"></path>
            <path d="M51.24883,59.1911429 C48.697555,59.1911429 46.628705,57.1368571 46.628705,54.6014286 C46.628705,52.0654286 48.697555,50.0105714 51.24883,50.0105714 C53.800105,50.0105714 55.86838,52.0654286 55.86838,54.6014286 C55.86838,57.1368571 53.800105,59.1911429 51.24883,59.1911429 M51.24883,48.1082857 C47.64013,48.1082857 44.715105,51.0151429 44.715105,54.6014286 C44.715105,58.186 47.64013,61.0928571 51.24883,61.0928571 C54.855805,61.0928571 57.780255,58.186 57.780255,54.6014286 C57.780255,51.0151429 54.855805,48.1082857 51.24883,48.1082857" id="Fill-111" fill="#7C8B96"></path>
            <path d="M22.224785,58.5538857 C22.224785,59.3750286 21.55491,60.0401714 20.728635,60.0401714 C19.90351,60.0401714 19.233635,59.3750286 19.233635,58.5538857 C19.233635,57.7327429 19.90351,57.0676 20.728635,57.0676 C21.55491,57.0676 22.224785,57.7327429 22.224785,58.5538857" id="Fill-112" fill="#A6B3BD"></path>
            <path d="M52.87332,54.6007429 C52.87332,55.4927429 52.14537,56.2161714 51.247795,56.2161714 C50.35022,56.2161714 49.622845,55.4927429 49.622845,54.6007429 C49.622845,53.7081714 50.35022,52.9853143 51.247795,52.9853143 C52.14537,52.9853143 52.87332,53.7081714 52.87332,54.6007429" id="Fill-113" fill="#3B464E"></path>
            <polygon id="Fill-114" fill="#3B464E" points="48.953315 64.1085714 47.64979 63.692 53.54239 45.4805714 54.84534 45.8971429"></polygon>
            <path d="M56.7556625,46.2185143 L52.1631375,46.2185143 C51.6421875,46.2185143 51.2212875,45.7996571 51.2212875,45.2825143 L51.2212875,44.4556571 C51.2212875,43.9385143 51.6421875,43.5196571 52.1631375,43.5196571 L56.7556625,43.5196571 C57.2754625,43.5196571 57.6975125,43.9385143 57.6975125,44.4556571 L57.6975125,45.2825143 C57.6975125,45.7996571 57.2754625,46.2185143 56.7556625,46.2185143" id="Fill-115" fill="#000000"></path>
            <path d="M50.6328325,65.1423429 L46.0403075,65.1423429 C45.5199325,65.1423429 45.0984575,64.7234857 45.0984575,64.2063429 L45.0984575,63.3794857 C45.0984575,62.8623429 45.5199325,62.4434857 46.0403075,62.4434857 L50.6328325,62.4434857 C51.1526325,62.4434857 51.5746825,62.8623429 51.5746825,63.3794857 L51.5746825,64.2063429 C51.5746825,64.7234857 51.1526325,65.1423429 50.6328325,65.1423429" id="Fill-116" fill="#000000"></path>
            <path d="M70.8476475,1.72657143 C70.9971475,2.03685714 71.1259475,2.378 71.0747725,2.718 C70.9982975,3.22542857 70.5515225,3.58714286 70.1196975,3.86828571 C68.2681975,5.074 66.1176975,5.73114286 63.9999725,6.37285714 C63.6538225,6.478 63.2881225,6.58371429 62.9350725,6.50142857 C62.6567725,6.43685714 62.4181475,6.26028571 62.2025225,6.07342857 C61.4803225,5.45 60.8754225,4.45685714 61.2549225,3.58428571 C61.4814725,3.06485714 61.9966725,2.73914286 62.4831225,2.44485714 C64.0333225,1.50828571 65.6456225,0.543714286 67.4378975,0.152857143 C69.2175225,-0.236285714 70.0449475,0.0597142857 70.8476475,1.72657143" id="Fill-117" fill="#000000"></path>
        </g>
    </g>
</svg>