<?xml version="1.0" encoding="UTF-8"?>
<svg width="120px" height="120px" viewBox="0 0 120 120" version="1.1" xmlns="http://www.w3.org/2000/svg" xmlns:xlink="http://www.w3.org/1999/xlink">
    <!-- Generator: Sketch 51.1 (57501) - http://www.bohemiancoding.com/sketch -->
    <title>Gold coin2</title>
    <desc>Created with Sketch.</desc>
    <defs>
        <polygon id="path-1" points="0.3603 0 70.7623 0 70.7623 119.9995 0.3603 119.9995"></polygon>
        <polygon id="path-3" points="0.0003 0 104.7243 0 104.7243 119.9995 0.0003 119.9995"></polygon>
    </defs>
    <g id="Gold-coin2" stroke="none" stroke-width="1" fill="none" fill-rule="evenodd">
        <g id="Page-1" transform="translate(-1.000000, 0.000000)">
            <g id="Group-3" transform="translate(52.000000, 0.000000)">
                <mask id="mask-2" fill="white">
                    <use xlink:href="#path-1"></use>
                </mask>
                <g id="Clip-2"></g>
                <path d="M0.3603,-0.0005 L0.3603,119.9995 L18.4023,119.9995 C47.3183,119.9995 70.7623,93.1375 70.7623,59.9995 C70.7623,26.8635 47.3183,-0.0005 18.4023,-0.0005 L0.3603,-0.0005 Z" id="Fill-1" fill="#FCAE04" mask="url(#mask-2)"></path>
            </g>
            <g id="Group-6">
                <mask id="mask-4" fill="white">
                    <use xlink:href="#path-3"></use>
                </mask>
                <g id="Clip-5"></g>
                <path d="M52.3603,-0.0005 C23.4453,-0.0005 0.0003,26.8635 0.0003,59.9995 C0.0003,93.1375 23.4453,119.9995 52.3603,119.9995 C81.2793,119.9995 104.7243,93.1375 104.7243,59.9995 C104.7243,26.8635 81.2793,-0.0005 52.3603,-0.0005" id="Fill-4" fill="#FCDA04" mask="url(#mask-4)"></path>
            </g>
            <path d="M52.3603,12.0259 C74.6023,12.0259 92.6993,33.5479 92.6993,59.9999 C92.6993,86.4539 74.6023,107.9729 52.3603,107.9729 C30.1223,107.9729 12.0253,86.4539 12.0253,59.9999 C12.0253,33.5479 30.1223,12.0259 52.3603,12.0259" id="Fill-7" fill="#FCAE04"></path>
            <polygon id="Fill-9" fill="#FCDA04" points="52.3603 29.4156 60.5213 48.3606 78.7663 51.3986 65.5633 66.1446 68.6793 86.9656 52.3603 77.1346 36.0453 86.9656 39.1613 66.1446 25.9583 51.3986 44.2033 48.3606"></polygon>
        </g>
    </g>
</svg>