<?xml version="1.0" encoding="UTF-8"?>
<svg width="120px" height="120px" viewBox="0 0 120 120" version="1.1" xmlns="http://www.w3.org/2000/svg" xmlns:xlink="http://www.w3.org/1999/xlink">
    <!-- Generator: Sketch 51.1 (57501) - http://www.bohemiancoding.com/sketch -->
    <title>Hotel2</title>
    <desc>Created with Sketch.</desc>
    <defs>
        <polygon id="path-1" points="0 0.190722338 44.7521277 0.190722338 44.7521277 75.1565762 0 75.1565762"></polygon>
        <polygon id="path-3" points="0.109790213 0.0957494781 2.03946681 0.0957494781 2.03946681 81.4196242 0.109790213 81.4196242"></polygon>
        <polygon id="path-5" points="0.183778723 0.185887265 2.03939149 0.185887265 2.03939149 21.5441336 0.183778723 21.5441336"></polygon>
        <polygon id="path-7" points="0.16374383 0.222688935 12.9533872 0.222688935 12.9533872 6.16206263 0.16374383 6.16206263"></polygon>
    </defs>
    <g id="Hotel2" stroke="none" stroke-width="1" fill="none" fill-rule="evenodd">
        <g id="Page-1" transform="translate(31.000000, 0.000000)">
            <polygon id="Fill-1" fill="#FCFCFC" points="48.4206723 9.13377871 50.0907489 9.13377871 50.0907489 0.250772443 48.4206723 0.250772443"></polygon>
            <polygon id="Fill-2" fill="#FFFDFD" points="48.4206472 0.250797495 48.4206472 9.13380376 49.1010302 9.13380376 49.0952557 0.250797495"></polygon>
            <g id="Group-82" transform="translate(0.000000, 5.151566)">
                <g id="Group-5" transform="translate(0.000000, 39.592902)">
                    <mask id="mask-2" fill="white">
                        <use xlink:href="#path-1"></use>
                    </mask>
                    <g id="Clip-4"></g>
                    <path d="M1.7283234,67.4941879 C1.85511064,69.1619123 0.543804255,70.9015365 0.73687234,72.4179457 C0.863408511,73.409762 1.51918723,74.2905971 2.08734468,75.1566514 L44.7521277,75.1566514 L44.7521277,0.190722338 L18.0236213,0.190722338 C17.2508468,0.190722338 16.5413404,0.616860125 16.1878426,1.3022881 C14.8931064,3.81326931 13.6141872,6.44875992 12.4148553,9.14086848 L12.4070723,9.14086848 C12.3023787,9.37786221 12.1642936,9.6965261 12.0141574,10.0457537 C11.8178255,10.4964426 11.6260128,10.9486347 11.4349532,11.4023299 C11.202217,11.9507223 10.9986043,12.4349812 10.9032,12.6682171 C10.6385787,13.3133111 8.45984681,14.821453 8.22409787,15.4743132 C7.98659149,16.1319332 8.17087234,19.7988225 7.97027234,20.4607015 C7.49525957,22.0274656 5.62458298,23.1530605 5.2093234,24.6602004 C4.77422979,26.2407432 5.80785957,28.1612443 5.43528085,29.6776534 C5.04362128,31.2717244 3.23847234,32.4995324 2.9118383,34.0244593 C2.56788085,35.6310564 3.71524255,37.4859207 3.43882128,39.0176117 C3.14658298,40.6374864 1.42554043,41.9790313 1.20334894,43.5174864 C0.967851064,45.1506388 2.24275319,46.9220793 2.07931064,48.4660459 C1.90582553,50.1089687 0.291987234,51.5760251 0.192565957,53.1207432 C0.0858638298,54.7736868 1.50261702,56.4338956 1.47123404,57.9786138 C1.43734043,59.6378205 -0.0401702128,61.2406597 0.000753191489,62.7801169 C0.0451914894,64.4440835 1.61182979,65.9642505 1.7283234,67.4941879" id="Fill-3" fill="#DDDDDF" mask="url(#mask-2)"></path>
                </g>
                <g id="Group-8" transform="translate(0.000000, 39.592902)" fill="#DDDDDF">
                    <path d="M1.7283234,67.4941879 C1.85511064,69.1619123 0.543804255,70.9015365 0.73687234,72.4179457 C0.863408511,73.409762 1.51918723,74.2905971 2.08734468,75.1566514 L5.01876596,75.1566514 C4.45085957,74.2905971 3.79482979,73.409762 3.66854468,72.4179457 C3.47522553,70.9015365 4.78678298,69.1619123 4.65999574,67.4941879 C4.54325106,65.9642505 2.97686383,64.4440835 2.93242553,62.7801169 C2.89150213,61.2406597 4.36901277,59.6378205 4.40265532,57.9786138 C4.4340383,56.4338956 3.01753617,54.7736868 3.1242383,53.1207432 C3.22365957,51.5760251 4.83724681,50.1089687 5.01098298,48.4660459 C5.17442553,46.9220793 3.89902128,45.1506388 4.13502128,43.5174864 C4.35721277,41.9790313 6.07800426,40.6374864 6.37049362,39.0176117 C6.64691489,37.4859207 5.49955319,35.6310564 5.84351064,34.0244593 C6.16989362,32.4995324 7.97504255,31.2717244 8.36670213,29.6776534 C8.73953191,28.1612443 7.70590213,26.2407432 8.14099574,24.6602004 C8.55600426,23.1530605 10.4266809,22.0274656 10.9016936,20.4607015 C11.1025447,19.7988225 10.9182638,16.1319332 11.1557702,15.4743132 C11.3915191,14.821453 13.5702511,13.3133111 13.8348723,12.6682171 C13.9302766,12.4349812 14.1338894,11.9507223 14.3666255,11.4023299 C14.5576851,10.9486347 14.7489957,10.4964426 14.9458298,10.0457537 C15.095966,9.6965261 15.2340511,9.37786221 15.3384936,9.14086848 L15.3465277,9.14086848 C16.5458596,6.44875992 17.8245277,3.81326931 19.1195149,1.3022881 C19.4727617,0.616860125 20.1825191,0.190722338 20.9552936,0.190722338 L18.0236213,0.190722338 C17.2508468,0.190722338 16.5413404,0.616860125 16.1878426,1.3022881 C14.8931064,3.81326931 13.6141872,6.44875992 12.4148553,9.14086848 L12.4070723,9.14086848 C12.3023787,9.37786221 12.1642936,9.6965261 12.0141574,10.0457537 C11.8178255,10.4964426 11.6260128,10.9486347 11.4349532,11.4023299 C11.202217,11.9507223 10.9986043,12.4349812 10.9032,12.6682171 C10.6385787,13.3133111 8.45984681,14.821453 8.22409787,15.4743132 C7.98659149,16.1319332 8.17087234,19.7988225 7.97027234,20.4607015 C7.49525957,22.0274656 5.62458298,23.1530605 5.2093234,24.6602004 C4.77422979,26.2407432 5.80785957,28.1612443 5.43528085,29.6776534 C5.04362128,31.2717244 3.23847234,32.4995324 2.9118383,34.0244593 C2.56788085,35.6310564 3.71524255,37.4859207 3.43882128,39.0176117 C3.14658298,40.6374864 1.42554043,41.9790313 1.20334894,43.5174864 C0.967851064,45.1506388 2.24275319,46.9220793 2.07931064,48.4660459 C1.90582553,50.1089687 0.291987234,51.5760251 0.192565957,53.1207432 C0.0858638298,54.7736868 1.50261702,56.4338956 1.47123404,57.9786138 C1.43734043,59.6378205 -0.0401702128,61.2406597 0.000753191489,62.7801169 C0.0451914894,64.4440835 1.61182979,65.9642505 1.7283234,67.4941879" id="Fill-6"></path>
                </g>
                <g id="Group-11" transform="translate(8.787234, 0.010438)" fill="#DDDDDF">
                    <path d="M9.7523234,114.73909 C8.35917021,102.613829 7.79201702,83.038547 13.0954894,58.8463967 C15.1818298,49.330071 18.1687362,40.7642255 21.4330681,33.2919081 C30.5552213,12.4096534 41.8603745,0.145102296 41.8603745,0.145102296 C41.8603745,0.145102296 16.1218128,23.3093612 5.30121277,58.661261 C-1.62714468,81.2979207 -0.143608511,101.914372 2.13278723,114.73909 L9.7523234,114.73909 Z" id="Fill-9"></path>
                </g>
                <g id="Group-14" transform="translate(17.574468, 0.010438)" fill="#DDDDDF">
                    <path d="M3.20284638,114.73909 C1.71102511,102.373578 0.997501702,82.3348309 6.34968043,57.9204676 C14.265723,21.810739 33.0731655,0.145102296 33.0731655,0.145102296 C33.0731655,0.145102296 21.7680123,12.4096534 12.6458591,33.2919081 C9.38152723,40.7642255 6.39462085,49.330071 4.30828043,58.8463967 C-0.995191915,83.038547 -0.428038723,102.613829 0.965114468,114.73909 L3.20284638,114.73909 Z" id="Fill-12"></path>
                </g>
                <g id="Group-17" transform="translate(19.582979, 0.010438)" fill="#DDDDDF">
                    <path d="M27.6621877,8.23107307 L27.6621877,33.4150397 L15.5900345,33.4150397 C15.5900345,33.4150397 21.4144643,14.4653111 27.6621877,8.23107307 Z M31.0646047,114.739215 L31.0646047,0.145227557 C31.0646047,0.145227557 12.2574132,21.8106138 4.34111957,57.9205929 C-1.01105915,82.3349562 -0.297535745,102.373453 1.19428553,114.739215 L31.0646047,114.739215 Z" id="Fill-15"></path>
                </g>
                <g id="Group-20" transform="translate(50.463830, 33.329854)">
                    <mask id="mask-4" fill="white">
                        <use xlink:href="#path-3"></use>
                    </mask>
                    <g id="Clip-19"></g>
                    <path d="M2.03946681,81.4196743 L2.03946681,1.02919415 C2.03946681,0.513870564 1.62044128,0.0957494781 1.10375191,0.0957494781 L0.183602979,0.0957494781 L0.183602979,79.4711148 C0.183602979,80.1217203 0.155734894,80.7715741 0.109790213,81.4196743 L2.03946681,81.4196743 Z" id="Fill-18" fill="#8F8F8E" mask="url(#mask-4)"></path>
                </g>
                <polygon id="Fill-21" points="46.1086255 61.3875574 52.5034723 61.3875574 52.5034723 40.0293111 46.1086255 40.0293111"></polygon>
                <g id="Group-25" transform="translate(50.463830, 39.843424)">
                    <mask id="mask-6" fill="white">
                        <use xlink:href="#path-5"></use>
                    </mask>
                    <g id="Clip-24"></g>
                    <polyline id="Fill-23" mask="url(#mask-6)" points="0.183778723 0.185887265 0.183778723 21.5441336 2.03939149 21.5441336 2.03939149 0.185887265"></polyline>
                </g>
                <g id="Group-28" transform="translate(45.944681, 36.837161)">
                    <mask id="mask-8" fill="white">
                        <use xlink:href="#path-7"></use>
                    </mask>
                    <g id="Clip-27"></g>
                    <path d="M7.56385021,0.222688935 C3.47703319,0.222688935 0.16374383,1.55220877 0.16374383,3.19237578 C0.16374383,4.8325428 3.47703319,6.16206263 7.56385021,6.16206263 C9.69136511,6.16206263 11.6034672,5.80005846 12.9534374,5.22310647 L12.9534374,4.16765762 C11.8771268,4.70903549 10.0137311,5.19880585 7.56359915,5.19880585 C3.57268851,5.19880585 1.12933532,3.89959916 1.12933532,3.19237578 C1.12933532,2.48490188 3.57268851,1.18594572 7.56359915,1.18594572 C10.0137311,1.18594572 11.8771268,1.67571608 12.9534374,2.21709395 L12.9534374,1.16164509 C11.6034672,0.584693111 9.69136511,0.222688935 7.56385021,0.222688935" id="Fill-26" fill="#DDDDDF" mask="url(#mask-8)"></path>
                </g>
                <path d="M58.3348817,38.8088685 C57.2231711,38.3739624 55.5784519,38.0229812 53.5081796,38.0229812 C49.5172689,38.0229812 47.0739157,39.3221879 47.0739157,40.0294113 C47.0739157,40.7366347 49.5172689,42.0360919 53.5081796,42.0360919 C55.5784519,42.0360919 57.2231711,41.6853612 58.3348817,41.2502046 L58.3348817,38.8088685 Z" id="Fill-29" fill="#8F8F8E"></path>
                <polygon id="Fill-31" fill="#DDDDDF" points="12.0470468 30.6172025 25.4086638 30.6172025 25.4086638 29.5061378 12.0470468 29.5061378"></polygon>
                <polygon id="Fill-33" fill="#DDDDDF" points="18.7281064 30.6172276 12.0472979 30.6172276 17.7537277 32.7544301 18.7281064 32.7544301 19.702234 32.7544301 25.4086638 30.6172276"></polygon>
                <polygon id="Fill-34" fill="#DDDDDF" points="18.9558715 35.4781795 18.4961736 35.4781795 17.7537779 32.7545052 19.6982672 32.7545052"></polygon>
                <polygon id="Fill-35" fill="#DDDDDF" points="24.902946 33.6482171 19.4478311 33.6727683 19.6496864 32.9319749 25.3074098 32.9319749"></polygon>
                <polygon id="Fill-36" fill="#DDDDDF" points="18.357034 39.7835491 19.0991787 39.7835491 19.0991787 35.4780793 18.357034 35.4780793"></polygon>
                <polygon id="Fill-37" fill="#DDDDDF" points="22.8730949 37.3987056 19.1465545 34.7779958 19.3677417 33.9665553 23.2245843 36.72881"></polygon>
                <path d="M23.5215928,52.2237662 L16.2756396,52.2237662 C15.911346,53.2060626 15.55358,54.1948727 15.21138,55.1989645 L22.7415374,55.1989645 C22.991597,54.1948727 23.2532055,53.2045595 23.5215928,52.2237662" id="Fill-38" fill="#56AEE1"></path>
                <path d="M30.2204026,33.3022714 L25.0976962,33.3022714 C24.4825898,34.3907891 23.8767728,35.508618 23.2769813,36.6412276 L28.8169557,36.6412276 C29.2786621,35.5078664 29.7451387,34.3900376 30.2204026,33.3022714" id="Fill-39" fill="#8DD0F4"></path>
                <path d="M24.5920536,48.5121837 L17.7131557,48.5121837 C17.3142153,49.4909729 16.9278281,50.4850438 16.5492238,51.487382 L23.7266366,51.487382 C24.007326,50.4847933 24.2940409,49.4899708 24.5920536,48.5121837" id="Fill-40" fill="#39BBED"></path>
                <path d="M21.8828238,58.8567349 C22.0989898,57.8704301 22.3307217,56.9009102 22.5654664,55.9351482 L14.9732962,55.9351482 C14.6712664,56.8410355 14.370994,57.7486764 14.0885472,58.6718497 C14.063943,58.7515157 14.0431047,58.8306806 14.0192536,58.9103466 L21.871526,58.9103466 C21.875543,58.8925595 21.8788068,58.8747724 21.8828238,58.8567349" id="Fill-41" fill="#8DD0F4"></path>
                <path d="M28.5237634,37.3776618 L22.8946613,37.3776618 C22.3850017,38.3536952 21.8833762,39.345261 21.3887804,40.3528601 L27.3713804,40.3528601 C27.7489804,39.3447599 28.132857,38.3531942 28.5237634,37.3776618" id="Fill-42" fill="#39BBED"></path>
                <path d="M27.097294,41.0892443 L21.0290813,41.0892443 C20.5568302,42.0665303 20.0936174,43.0585971 19.6379366,44.0644426 L26.0410685,44.0644426 C26.3860302,43.0578455 26.7375196,42.0657787 27.097294,41.0892443" id="Fill-43" fill="#56AEE1"></path>
                <path d="M25.7868162,44.8006013 L19.3018374,44.8006013 C18.8662417,45.7788894 18.4414417,46.7719582 18.0246757,47.7757996 L24.826497,47.7757996 C25.1388204,46.7712067 25.4579226,45.7781378 25.7868162,44.8006013" id="Fill-44" fill="#8DD0F4"></path>
                <path d="M17.6120523,100.473712 L9.2461034,100.473712 C9.3058566,101.484067 9.3731417,102.481144 9.45348213,103.44891 L17.6966609,103.44891 C17.6607587,102.47914 17.6306311,101.492585 17.6120523,100.473712" id="Fill-45" fill="#8DD0F4"></path>
                <path d="M18.2161621,111.608234 L10.4053153,111.608234 C10.5607238,112.642138 10.7239153,113.63195 10.891626,114.583432 L18.5204515,114.583432 C18.4127451,113.63671 18.3113153,112.643641 18.2161621,111.608234" id="Fill-46" fill="#8DD0F4"></path>
                <path d="M17.9246519,107.896877 L9.90592426,107.896877 C10.0284434,108.921511 10.1602519,109.911324 10.2988391,110.871825 L18.149354,110.871825 C18.066754,109.916835 17.9924391,108.921762 17.9246519,107.896877" id="Fill-47" fill="#39BBED"></path>
                <path d="M17.5907119,96.7623549 L9.07763957,96.7623549 C9.10726511,97.7739624 9.1524566,98.7617704 9.20467787,99.7373027 L17.6032651,99.7373027 C17.5902098,98.7672818 17.5861928,97.7744635 17.5907119,96.7623549" id="Fill-48" fill="#39BBED"></path>
                <path d="M17.6466238,93.0507724 L9.02858891,93.0507724 C9.02810468,94.0573695 9.03814723,95.0501879 9.06149617,96.0257203 L17.5933983,96.0257203 C17.6019345,95.0526931 17.6200111,94.0608768 17.6466238,93.0507724" id="Fill-49" fill="#56AEE1"></path>
                <path d="M21.7165945,59.6467056 L13.8045689,59.6467056 C13.5095689,60.6430313 13.230386,61.6345971 12.9667689,62.621904 L21.1007349,62.621904 C21.2955604,61.6386054 21.502186,60.6460376 21.7165945,59.6467056" id="Fill-50" fill="#56AEE1"></path>
                <path d="M17.7890523,89.3391649 L9.08015021,89.3391649 C9.04952043,90.345762 9.03520979,91.3348225 9.02868213,92.3143633 L17.6705502,92.3143633 C17.7006779,91.3390814 17.740346,90.3472651 17.7890523,89.3391649" id="Fill-51" fill="#8DD0F4"></path>
                <path d="M17.7248302,104.185294 L9.52106851,104.185294 C9.61195362,105.201912 9.71162596,106.195232 9.82108979,107.160493 L17.8764728,107.160493 C17.8177238,106.197987 17.76726,105.205169 17.7248302,104.185294" id="Fill-52" fill="#56AEE1"></path>
                <path d="M18.6834672,78.204643 L9.94067149,78.204643 C9.81664596,79.2047265 9.7039183,80.1975449 9.60750979,81.1798413 L18.375663,81.1798413 C18.4690587,80.2000501 18.5712417,79.2087349 18.6834672,78.204643" id="Fill-53" fill="#8DD0F4"></path>
                <path d="M20.2754379,67.0698706 L11.8708251,67.0698706 C11.6473783,68.0669478 11.43774,69.0592651 11.2439187,70.0448184 L19.7828506,70.0448184 C19.9372549,69.0625219 20.1017017,68.0709562 20.2754379,67.0698706" id="Fill-54" fill="#8DD0F4"></path>
                <path d="M18.0040885,85.627833 L9.25677362,85.627833 C9.19551404,86.6306722 9.1458034,87.6232401 9.10990128,88.6027808 L17.8238247,88.6027808 C17.8752928,87.6247432 17.9337906,86.6351816 18.0040885,85.627833" id="Fill-55" fill="#39BBED"></path>
                <path d="M19.1331477,74.49281 L10.4646668,74.49281 C10.308254,75.4923925 10.1656498,76.4842088 10.0373562,77.4682589 L18.7638328,77.4682589 C18.8773136,76.4874656 19.0003349,75.4958998 19.1331477,74.49281" id="Fill-56" fill="#39BBED"></path>
                <path d="M20.9587332,63.3582881 L12.7738013,63.3582881 C12.5149545,64.3551148 12.2714226,65.3466806 12.0434566,66.3334864 L20.4046353,66.3334864 C20.5793757,65.3504384 20.7646609,64.3586221 20.9587332,63.3582881" id="Fill-57" fill="#39BBED"></path>
                <path d="M19.6661562,70.7812276 L11.1033732,70.7812276 C10.9135689,71.7798079 10.7398328,72.7711232 10.579403,73.7564259 L19.2348285,73.7564259 C19.3688966,72.774881 19.5127562,71.7833152 19.6661562,70.7812276" id="Fill-58" fill="#56AEE1"></path>
                <path d="M18.3071226,81.9162505 L9.5387183,81.9162505 C9.44632681,82.9185887 9.36899915,83.9091524 9.30322043,84.8911983 L18.06108,84.8911983 C18.1333864,83.9134113 18.2159864,82.9208434 18.3071226,81.9162505" id="Fill-59" fill="#56AEE1"></path>
                <path d="M21.2105502,96.0257203 L45.2657289,96.0257203 L45.2657289,93.0507724 L21.2366609,93.0507724 C21.2178311,94.0621294 21.2110523,95.0506889 21.2105502,96.0257203" id="Fill-60" fill="#56AEE1"></path>
                <path d="M24.4780455,62.621904 L45.2658796,62.621904 L45.2658796,59.6467056 L25.0811009,59.6467056 C24.8702072,60.6457871 24.668854,61.6378539 24.4780455,62.621904" id="Fill-61" fill="#56AEE1"></path>
                <path d="M25.3746698,58.2475407 C25.3259634,58.4702547 25.2835336,58.6884593 25.2355804,58.9104217 L45.2659549,58.9104217 L45.2659549,55.9352234 L25.9111932,55.9352234 C25.729674,56.7023215 25.5461464,57.4664134 25.3746698,58.2475407" id="Fill-62" fill="#8DD0F4"></path>
                <path d="M21.2554153,92.3143633 L45.2659047,92.3143633 L45.2659047,89.3391649 L21.3495643,89.3391649 C21.309394,90.3465136 21.2772579,91.3390814 21.2554153,92.3143633" id="Fill-63" fill="#8DD0F4"></path>
                <path d="M21.2500174,99.7373027 L45.2657791,99.7373027 L45.2657791,96.7623549 L21.2133621,96.7623549 C21.2171281,97.7737119 21.228677,98.7672818 21.2500174,99.7373027" id="Fill-64" fill="#39BBED"></path>
                <path d="M23.7986668,66.3334864 L45.2658796,66.3334864 L45.2658796,63.3582881 L24.3374498,63.3582881 C24.1478966,64.3581211 23.968386,65.3496868 23.7986668,66.3334864" id="Fill-65" fill="#39BBED"></path>
                <path d="M22.2322043,77.4682589 L45.2658043,77.4682589 L45.2658043,74.49281 L22.5806809,74.49281 C22.4546468,75.4951482 22.3389064,76.4869645 22.2322043,77.4682589" id="Fill-66" fill="#39BBED"></path>
                <path d="M22.6710638,73.7564259 L45.2658043,73.7564259 L45.2658043,70.7812276 L23.0825574,70.7812276 C22.935434,71.7825637 22.7986043,72.77438 22.6710638,73.7564259" id="Fill-67" fill="#56AEE1"></path>
                <path d="M21.379466,88.6027808 L45.2659298,88.6027808 L45.2659298,85.627833 L21.5358787,85.627833 C21.474117,86.6346806 21.4229,87.6247432 21.379466,88.6027808" id="Fill-68" fill="#39BBED"></path>
                <path d="M21.5829783,84.8911983 L45.2658294,84.8911983 L45.2658294,81.9162505 L21.805923,81.9162505 C21.7225698,82.9200919 21.6475017,83.9131608 21.5829783,84.8911983" id="Fill-69" fill="#56AEE1"></path>
                <path d="M21.8703209,81.1798413 L45.2659549,81.1798413 L45.2659549,78.204643 L22.1557804,78.204643 C22.0510868,79.2079833 21.9559336,80.1997996 21.8703209,81.1798413" id="Fill-70" fill="#8DD0F4"></path>
                <path d="M45.2658294,33.3022714 L33.2147655,33.3022714 C32.7658634,34.3885344 32.3239911,35.5068643 31.8861357,36.6412276 L45.2658294,36.6412276 L45.2658294,33.3022714 Z" id="Fill-71" fill="#8DD0F4"></path>
                <path d="M26.082017,55.1989645 L45.2658043,55.1989645 L45.2658043,52.2237662 L26.8377191,52.2237662 C26.5786213,53.2045595 26.3250468,54.1938706 26.082017,55.1989645" id="Fill-72" fill="#56AEE1"></path>
                <path d="M23.1967413,70.0448184 L45.265754,70.0448184 L45.265754,67.0698706 L23.671503,67.0698706 C23.5030391,68.0704551 23.3453711,69.0617704 23.1967413,70.0448184" id="Fill-73" fill="#8DD0F4"></path>
                <path d="M29.2463,44.0644426 L45.2659298,44.0644426 L45.2659298,41.0892443 L30.2520617,41.0892443 C29.9103638,42.0652777 29.5751936,43.0570939 29.2463,44.0644426" id="Fill-74" fill="#56AEE1"></path>
                <path d="M28.0838996,47.7757745 L45.2659549,47.7757745 L45.2659549,44.8005762 L29.0022911,44.8005762 C28.6887123,45.7773612 28.3831677,46.7706806 28.0838996,47.7757745" id="Fill-75" fill="#8DD0F4"></path>
                <path d="M31.6073796,37.3776618 C31.2370604,38.3524426 30.8727668,39.3440084 30.5137455,40.3528601 L45.265754,40.3528601 L45.265754,37.3776618 L31.6073796,37.3776618 Z" id="Fill-76" fill="#39BBED"></path>
                <path d="M22.2775715,114.583407 L45.2657289,114.583407 L45.2657289,111.608209 L21.9542013,111.608209 C22.0561332,112.643616 22.1643417,113.637687 22.2775715,114.583407" id="Fill-77" fill="#8DD0F4"></path>
                <path d="M21.3738421,103.448885 L45.2658294,103.448885 L45.2658294,100.473687 L21.2656336,100.473687 C21.2927485,101.491808 21.3304081,102.479365 21.3738421,103.448885" id="Fill-78" fill="#8DD0F4"></path>
                <path d="M27.026946,51.487357 L45.2657289,51.487357 L45.2657289,48.5121587 L27.8660013,48.5121587 C27.5795374,49.4919499 27.298346,50.481261 27.026946,51.487357" id="Fill-79" fill="#39BBED"></path>
                <path d="M21.5824762,107.160493 L45.2658294,107.160493 L45.2658294,104.185294 L21.4077357,104.185294 C21.4579485,105.20542 21.5164464,106.197737 21.5824762,107.160493" id="Fill-80" fill="#56AEE1"></path>
                <path d="M21.8818447,110.871825 L45.2659298,110.871825 L45.2659298,107.896877 L21.6360532,107.896877 C21.7108702,108.921511 21.792717,109.917336 21.8818447,110.871825" id="Fill-81" fill="#39BBED"></path>
            </g>
        </g>
    </g>
</svg>