<?xml version="1.0" encoding="UTF-8"?>
<svg width="120px" height="120px" viewBox="0 0 120 120" version="1.1" xmlns="http://www.w3.org/2000/svg" xmlns:xlink="http://www.w3.org/1999/xlink">
    <!-- Generator: Sketch 51.1 (57501) - http://www.bohemiancoding.com/sketch -->
    <title>Factory7</title>
    <desc>Created with Sketch.</desc>
    <defs></defs>
    <g id="Factory7" stroke="none" stroke-width="1" fill="none" fill-rule="evenodd">
        <g id="Page-1" transform="translate(0.000000, 6.000000)">
            <polygon id="Fill-1" fill="#414141" points="118.505898 34.7443787 115.515051 34.7443787 114.217763 34.7443787 111.225559 34.7443787 109.928271 34.7443787 106.935729 34.7443787 105.63878 34.7443787 102.652339 34.7443787 102.647932 34.7443787 101.354712 34.7443787 101.350983 34.7443787 98.3645424 34.7443787 97.0672542 34.7443787 94.0747119 34.7443787 92.7774237 34.7443787 89.7845424 34.7443787 88.4872542 34.7443787 85.5011525 34.7443787 85.4974237 34.7443787 84.2038644 34.7443787 84.2004746 34.7443787 81.2133559 34.7443787 79.9164068 34.7443787 76.9242034 34.7443787 75.6262373 34.7443787 72.6343729 34.7443787 71.3370847 34.7443787 68.3506441 34.7443787 68.3458983 34.7443787 67.052678 34.7443787 67.0489492 34.7443787 64.0628475 34.7443787 62.7655593 34.7443787 59.772678 34.7443787 58.4757288 34.7443787 55.4838644 34.7443787 54.1858983 34.7443787 51.1957288 34.7443787 51.1445424 34.7443787 49.8987797 34.7443787 49.8479322 34.7443787 46.8577627 34.7443787 45.5597966 34.7443787 42.5679322 34.7443787 41.2709831 34.7443787 38.2777627 34.7443787 36.9808136 34.7443787 33.9906441 34.7443787 32.692678 34.7443787 32.692678 36.0400401 32.692678 42.0135574 33.9906441 42.0135574 33.9906441 36.0400401 36.9808136 36.0400401 36.9808136 42.0135574 38.2777627 42.0135574 38.2777627 36.0400401 41.2709831 36.0400401 41.2709831 42.0135574 42.5679322 42.0135574 42.5679322 36.0400401 45.5597966 36.0400401 45.5597966 42.0135574 46.8577627 42.0135574 46.8577627 36.0400401 49.8479322 36.0400401 49.8479322 42.0135574 49.8987797 42.0135574 51.1445424 42.0135574 51.1957288 42.0135574 51.1957288 36.0400401 54.1858983 36.0400401 54.1858983 42.0135574 55.4838644 42.0135574 55.4838644 36.0400401 58.4757288 36.0400401 58.4757288 42.0135574 59.772678 42.0135574 59.772678 36.0400401 62.7655593 36.0400401 62.7655593 42.0135574 64.0628475 42.0135574 64.0628475 36.0400401 67.0489492 36.0400401 67.0489492 42.0135574 67.052678 42.0135574 68.3458983 42.0135574 68.3506441 42.0135574 68.3506441 36.0400401 71.3370847 36.0400401 71.3370847 42.0135574 72.6343729 42.0135574 72.6343729 36.0400401 75.6262373 36.0400401 75.6262373 42.0135574 76.9242034 42.0135574 76.9242034 36.0400401 79.9164068 36.0400401 79.9164068 42.0135574 81.2133559 42.0135574 81.2133559 36.0400401 84.2004746 36.0400401 84.2004746 42.0135574 84.2038644 42.0135574 85.4974237 42.0135574 85.5011525 42.0135574 85.5011525 36.0400401 88.4872542 36.0400401 88.4872542 42.0135574 89.7845424 42.0135574 89.7845424 36.0400401 92.7774237 36.0400401 92.7774237 42.0135574 94.0747119 42.0135574 94.0747119 36.0400401 97.0672542 36.0400401 97.0672542 42.0135574 98.3645424 42.0135574 98.3645424 36.0400401 101.350983 36.0400401 101.350983 42.0135574 101.354712 42.0135574 102.647932 42.0135574 102.652339 42.0135574 102.652339 36.0400401 105.63878 36.0400401 105.63878 42.0135574 106.935729 42.0135574 106.935729 36.0400401 109.928271 36.0400401 109.928271 42.0135574 111.225559 42.0135574 111.225559 36.0400401 114.217763 36.0400401 114.217763 42.0135574 115.515051 42.0135574 115.515051 36.0400401 118.505898 36.0400401 118.505898 42.0135574 119.803186 42.0135574 119.803186 34.7443787"></polygon>
            <polygon id="Fill-2" fill="#A3BCC4" points="41.919322 46.7149091 82.999661 46.7149091 82.999661 42.0133542 41.919322 42.0133542"></polygon>
            <polygon id="Fill-3" fill="#7A8D93" points="82.999661 46.7149091 119.80339 46.7149091 119.80339 42.0136928 82.999661 42.0136928"></polygon>
            <polygon id="Fill-4" fill="#575757" points="5.28345763 4.70165643 5.28345763 46.7150107 5.96379661 46.7150107 5.96379661 107.77733 76.4275254 107.77733 76.4275254 57.0494934 114.740068 95.3143335 114.740068 46.7150107 40.8515932 46.7150107 40.8515932 4.70165643"></polygon>
            <polygon id="Fill-5" fill="#414141" points="76.4273898 107.777229 114.739932 107.777229 114.739932 95.314232 76.4273898 57.0493918"></polygon>
            <polygon id="Fill-6" fill="#773E28" points="40.8514576 63.1124577 5.28332203 42.781373 5.28332203 107.77706 50.1219661 107.77706 42.8606102 100.525486 41.9192542 100.525486 41.9192542 100.545799 39.6484068 100.545799 39.6484068 100.525486 22.9060339 100.525486 22.9060339 100.545799 20.6362034 100.545799 20.6362034 100.525486 20.6362034 98.2358182 20.6362034 95.7518182 20.6362034 93.2681567 20.6362034 90.7821254 20.6362034 88.2984639 20.6362034 85.8148025 20.6362034 83.3304639 20.6362034 80.8468025 20.6362034 78.3631411 20.6362034 78.3282696 20.6362034 75.2798934 60.7562034 75.2798934 76.4273898 90.9314295 76.4273898 63.1182132 40.8514576 42.781373"></polygon>
            <polygon id="Fill-7" fill="#592F1E" points="60.7561017 78.3283712 60.7561017 80.630227 60.7561017 83.1145655 60.7561017 85.598227 60.7561017 88.0818884 60.7561017 90.5665655 60.7561017 93.0498884 60.7561017 95.534227 60.7561017 98.0192426 60.7561017 100.503243 60.7561017 100.525249 60.7561017 100.545901 58.4849153 100.545901 58.4849153 100.525249 42.8608475 100.525249 50.1222034 107.777161 76.4272881 107.777161 76.4272881 90.931531 60.7561017 75.2796564"></polygon>
            <polygon id="Fill-8" fill="#626262" points="58.4851186 95.7519875 58.4851186 93.268326 58.4851186 90.7819561 58.4851186 88.2982947 58.4851186 85.8146332 58.4851186 83.3306332 58.4851186 80.8469718 58.4851186 78.3633103 58.4851186 78.3284389 41.9193559 78.3284389 41.9193559 80.6302947 41.9193559 83.1146332 41.9193559 85.5982947 41.9193559 88.0819561 41.9193559 90.5666332 41.9193559 93.0499561 41.9193559 95.5342947 41.9193559 98.0189718 41.9193559 99.5844639 42.8607119 100.525317 58.4851186 100.525317 58.4851186 98.2356489"></polygon>
            <polygon id="Fill-9" fill="#ADADAD" points="39.6483729 97.3174796 22.906 80.5961003 22.906 80.6302947 22.906 83.1146332 22.906 85.5982947 22.906 88.0819561 22.906 90.5666332 22.906 93.0499561 22.906 95.5342947 22.906 98.0189718 22.906 100.50331 22.906 100.525317 39.6483729 100.525317 39.6483729 98.2356489"></polygon>
            <polygon id="Fill-10" fill="#626262" points="39.6483729 97.3174796 39.6483729 95.7519875 39.6483729 93.268326 39.6483729 90.7819561 39.6483729 88.2982947 39.6483729 85.8146332 39.6483729 83.3306332 39.6483729 80.8469718 39.6483729 78.3633103 39.6483729 78.3284389 22.906 78.3284389 22.906 80.5961003"></polygon>
            <polygon id="Fill-11" fill="#ADADAD" points="41.9192881 100.503378 41.9192881 100.525046 42.8606441 100.525046 41.9192881 99.5845317"></polygon>
            <polygon id="Fill-12" fill="#2E2E2E" points="20.6362034 78.3285066 22.9060339 78.3285066 39.6484068 78.3285066 41.9192542 78.3285066 58.4850169 78.3285066 60.7562034 78.3285066 60.7562034 75.2797918 20.6362034 75.2797918"></polygon>
            <polygon id="Fill-13" fill="#2E2E2E" points="20.6362712 100.545656 22.9061017 100.545656 22.9061017 100.525317 20.6362712 100.525317"></polygon>
            <polygon id="Fill-14" fill="#2E2E2E" points="20.6362034 98.2356489 20.6362034 100.525317 22.9060339 100.525317 22.9060339 100.50331"></polygon>
            <polygon id="Fill-15" fill="#F78D00" points="22.9061356 98.0190734 20.6363051 95.752089 20.6363051 98.2357505 22.9061356 100.503412"></polygon>
            <polygon id="Fill-16" fill="#2E2E2E" points="22.9061356 95.5344301 20.6363051 93.2684614 20.6363051 95.7521229 22.9061356 98.0191072"></polygon>
            <polygon id="Fill-17" fill="#F78D00" points="22.9061356 93.0498207 20.6363051 90.7821592 20.6363051 93.2685292 22.9061356 95.5344978"></polygon>
            <polygon id="Fill-18" fill="#2E2E2E" points="22.9061356 90.5664978 20.6363051 88.2984978 20.6363051 90.7821592 22.9061356 93.0498207"></polygon>
            <polygon id="Fill-19" fill="#F78D00" points="22.9061356 88.0818545 20.6363051 85.8148702 20.6363051 88.2985317 22.9061356 90.5665317"></polygon>
            <polygon id="Fill-20" fill="#2E2E2E" points="22.9061356 85.598227 20.6363051 83.3305655 20.6363051 85.8149041 22.9061356 88.0818884"></polygon>
            <polygon id="Fill-21" fill="#F78D00" points="22.9061356 83.1145994 20.6363051 80.8469379 20.6363051 83.3305994 22.9061356 85.5982608"></polygon>
            <polygon id="Fill-22" fill="#2E2E2E" points="22.9061356 80.6302947 20.6363051 78.3633103 20.6363051 80.8469718 22.9061356 83.1146332"></polygon>
            <polygon id="Fill-23" fill="#B96A00" points="22.9061356 78.3285066 20.6363051 78.3285066 22.9061356 80.596168"></polygon>
            <polygon id="Fill-24" fill="#F78D00" points="22.9061356 80.5962357 20.6363051 78.3285743 20.6363051 78.3631072 22.9061356 80.6304301"></polygon>
            <polygon id="Fill-25" fill="#2E2E2E" points="58.4850847 100.545656 60.7562712 100.545656 60.7562712 100.525317 58.4850847 100.525317"></polygon>
            <polygon id="Fill-26" fill="#232323" points="58.4851186 100.525215 60.7559661 100.525215 60.7559661 100.503547 58.4851186 98.2355473"></polygon>
            <polygon id="Fill-27" fill="#B96A00" points="58.4851186 98.2356489 60.7559661 100.50331 60.7559661 98.0189718 58.4851186 95.7519875"></polygon>
            <polygon id="Fill-28" fill="#232323" points="58.4851186 95.7519875 60.7559661 98.0189718 60.7559661 95.5342947 58.4851186 93.268326"></polygon>
            <polygon id="Fill-29" fill="#B96A00" points="58.4851186 93.2683599 60.7559661 95.5343285 60.7559661 93.0496514 58.4851186 90.78199"></polygon>
            <polygon id="Fill-30" fill="#232323" points="58.4851186 90.7820577 60.7559661 93.0497191 60.7559661 90.5663962 58.4851186 88.2983962"></polygon>
            <polygon id="Fill-31" fill="#B96A00" points="58.4851186 88.2984301 60.7559661 90.5664301 60.7559661 88.081753 58.4851186 85.8147687"></polygon>
            <polygon id="Fill-32" fill="#232323" points="58.4851186 85.8148025 60.7559661 88.0817868 60.7559661 85.5981254 58.4851186 83.3304639"></polygon>
            <polygon id="Fill-33" fill="#B96A00" points="58.4851186 83.3304978 60.7559661 85.5981592 60.7559661 83.1144978 58.4851186 80.8468364"></polygon>
            <polygon id="Fill-34" fill="#232323" points="58.4851186 80.8468364 60.7559661 83.1144978 60.7559661 80.6301592 58.4851186 78.3631749"></polygon>
            <polygon id="Fill-35" fill="#B96A00" points="58.4851186 78.3632088 60.7559661 80.6301931 60.7559661 78.3283373 58.4851186 78.3283373"></polygon>
            <polygon id="Fill-36" fill="#2E2E2E" points="39.6484746 100.545656 41.919322 100.545656 41.919322 100.525317 39.6484746 100.525317"></polygon>
            <polygon id="Fill-37" fill="#2E2E2E" points="39.6483729 98.2356489 39.6483729 100.525317 41.9192203 100.525317 41.9192203 100.50331"></polygon>
            <polygon id="Fill-38" fill="#B96A00" points="39.6483729 97.3174796 41.9192203 99.5844639 41.9192203 98.0189718 39.6483729 95.7519875"></polygon>
            <polygon id="Fill-39" fill="#F78D00" points="39.6483729 98.2356489 41.9192203 100.50331 41.9192203 99.5844639 39.6483729 97.3174796"></polygon>
            <polygon id="Fill-40" fill="#232323" points="39.6483729 95.7519875 41.9192203 98.0189718 41.9192203 95.5342947 39.6483729 93.268326"></polygon>
            <polygon id="Fill-41" fill="#B96A00" points="39.6483729 93.2683599 41.9192203 95.5343285 41.9192203 93.0496514 39.6483729 90.78199"></polygon>
            <polygon id="Fill-42" fill="#232323" points="39.6483729 90.7820577 41.9192203 93.0497191 41.9192203 90.5663962 39.6483729 88.2983962"></polygon>
            <polygon id="Fill-43" fill="#B96A00" points="39.6483729 88.2984301 41.9192203 90.5664301 41.9192203 88.081753 39.6483729 85.8147687"></polygon>
            <polygon id="Fill-44" fill="#232323" points="39.6483729 85.8148025 41.9192203 88.0817868 41.9192203 85.5981254 39.6483729 83.3304639"></polygon>
            <polygon id="Fill-45" fill="#B96A00" points="39.6483729 83.3304978 41.9192203 85.5981592 41.9192203 83.1144978 39.6483729 80.8468364"></polygon>
            <polygon id="Fill-46" fill="#232323" points="39.6483729 80.8468364 41.9192203 83.1144978 41.9192203 80.6301592 39.6483729 78.3631749"></polygon>
            <polygon id="Fill-47" fill="#B96A00" points="41.9192881 80.6302947 41.9192881 78.3284389 39.6484407 78.3284389 39.6484407 78.3633103"></polygon>
            <polygon id="Fill-48" fill="#CECECE" points="79.5125424 75.2797241 82.999322 75.2797241 82.999322 8.74698433 79.5125424 8.74698433"></polygon>
            <polygon id="Fill-49" fill="#ADADAD" points="82.999661 75.2797241 86.4854237 75.2797241 86.4854237 8.74698433 82.999661 8.74698433"></polygon>
            <polygon id="Fill-50" fill="#2E2E2E" points="5.28345763 100.525317 5.28345763 107.777229 5.4200678 107.777229 12.6814237 100.525317"></polygon>
            <polygon id="Fill-51" fill="#F78D00" points="12.6814576 100.525317 5.42010169 107.777229 13.3753559 107.777229 20.6363729 100.525317"></polygon>
            <polygon id="Fill-52" fill="#2E2E2E" points="20.6362373 100.525317 13.3752203 107.777229 21.3301356 107.777229 28.5911525 100.525317"></polygon>
            <polygon id="Fill-53" fill="#F78D00" points="28.591322 100.525317 21.3299661 107.777229 29.2848814 107.777229 36.5472542 100.525317"></polygon>
            <polygon id="Fill-54" fill="#2E2E2E" points="36.547322 100.525317 29.2849492 107.777229 37.2402034 107.777229 44.5012203 100.525317"></polygon>
            <polygon id="Fill-55" fill="#F78D00" points="44.5011864 100.525317 37.2401695 107.777229 45.1940678 107.777229 52.4550847 100.525317"></polygon>
            <polygon id="Fill-56" fill="#2E2E2E" points="52.4550508 100.525317 45.1940339 107.777229 53.1489492 107.777229 60.4099661 100.525317"></polygon>
            <polygon id="Fill-57" fill="#F78D00" points="60.4101356 100.525317 53.1487797 107.777229 61.1030169 107.777229 68.3640339 100.525317"></polygon>
            <polygon id="Fill-58" fill="#2E2E2E" points="68.364 100.525317 61.1029831 107.777229 69.0578983 107.777229 76.3189153 100.525317"></polygon>
            <polygon id="Fill-59" fill="#F78D00" points="76.3190847 100.525317 69.0577288 107.777229 76.4275593 107.777229 76.4275593 100.525317"></polygon>
            <polygon id="Fill-60" fill="#432317" points="76.319322 100.524978 89.6783051 100.524978 89.6783051 75.2797241 76.319322 75.2797241"></polygon>
            <polygon id="Fill-61" fill="#232323" points="76.4273898 100.525317 76.4273898 107.777229 76.564 107.777229 83.8253559 100.525317"></polygon>
            <polygon id="Fill-62" fill="#B96A00" points="83.8253898 100.525317 76.5640339 107.777229 84.5179322 107.777229 89.6782712 102.623699 89.6782712 100.525317"></polygon>
            <polygon id="Fill-63" fill="#232323" points="84.5179322 107.777229 89.6782712 107.777229 89.6782712 102.623699"></polygon>
            <polygon id="Fill-64" fill="#828282" points="77.8410169 10.7702069 88.1576271 10.7702069 88.1576271 8.74698433 77.8410169 8.74698433"></polygon>
            <polygon id="Fill-65" fill="#828282" points="77.8410169 19.7562132 88.1576271 19.7562132 88.1576271 17.7329906 77.8410169 17.7329906"></polygon>
            <polygon id="Fill-66" fill="#828282" points="77.8410169 28.742558 88.1576271 28.742558 88.1576271 26.7203511 77.8410169 26.7203511"></polygon>
            <polygon id="Fill-67" fill="#828282" points="77.8410169 37.7289028 88.1576271 37.7289028 88.1576271 35.7063574 77.8410169 35.7063574"></polygon>
            <polygon id="Fill-68" fill="#828282" points="77.8410169 46.7149091 88.1576271 46.7149091 88.1576271 44.6927022 77.8410169 44.6927022"></polygon>
            <polygon id="Fill-69" fill="#828282" points="77.8410169 55.7022696 88.1576271 55.7022696 88.1576271 53.679047 77.8410169 53.679047"></polygon>
            <polygon id="Fill-70" fill="#828282" points="77.8410169 64.6882759 88.1576271 64.6882759 88.1576271 62.6650533 77.8410169 62.6650533"></polygon>
            <polygon id="Fill-71" fill="#828282" points="77.8410169 73.6746207 88.1576271 73.6746207 88.1576271 71.6513981 77.8410169 71.6513981"></polygon>
            <polygon id="Fill-72" fill="#1B233B" points="33.6738983 17.6043386 37.4230508 17.6043386 37.4230508 11.0461317 33.6738983 11.0461317"></polygon>
            <polygon id="Fill-73" fill="#1B233B" points="28.6176271 17.6043386 32.3667797 17.6043386 32.3667797 11.0461317 28.6176271 11.0461317"></polygon>
            <polygon id="Fill-74" fill="#1B233B" points="8.46033898 17.6043386 12.1410169 17.6043386 12.1410169 11.0461317 8.46033898 11.0461317"></polygon>
            <polygon id="Fill-75" fill="#1B233B" points="23.5623729 17.6043386 27.3122034 17.6043386 27.3122034 11.0461317 23.5623729 11.0461317"></polygon>
            <polygon id="Fill-76" fill="#1B233B" points="13.4488136 17.6043386 17.1986441 17.6043386 17.1986441 11.0461317 13.4488136 11.0461317"></polygon>
            <polygon id="Fill-77" fill="#1B233B" points="18.5061017 17.6043386 22.2549153 17.6043386 22.2549153 11.0461317 18.5061017 11.0461317"></polygon>
            <path d="M33.6735593,17.6043386 L37.4227119,17.6043386 L37.4227119,11.0461317 L33.6735593,11.0461317 L33.6735593,17.6043386 Z M28.6172881,17.6043386 L32.3664407,17.6043386 L32.3664407,11.0461317 L28.6172881,11.0461317 L28.6172881,17.6043386 Z M23.5620339,17.6043386 L27.3118644,17.6043386 L27.3118644,11.0461317 L23.5620339,11.0461317 L23.5620339,17.6043386 Z M18.5057627,17.6043386 L22.2545763,17.6043386 L22.2545763,11.0461317 L18.5057627,11.0461317 L18.5057627,17.6043386 Z M13.4484746,17.6043386 L17.1983051,17.6043386 L17.1983051,11.0461317 L13.4484746,11.0461317 L13.4484746,17.6043386 Z M8.46033898,17.6043386 L12.1410169,17.6043386 L12.1410169,11.0461317 L8.46033898,11.0461317 L8.46033898,17.6043386 Z M38.7305085,11.0461317 L38.7305085,9.75825705 L37.4227119,9.75825705 L33.6738983,9.75825705 L32.3664407,9.75825705 L28.6176271,9.75825705 L27.3118644,9.75825705 L23.5623729,9.75825705 L22.2545763,9.75825705 L18.5061017,9.75825705 L17.1983051,9.75825705 L13.4488136,9.75825705 L12.1410169,9.75825705 L7.17050847,9.75825705 L7.17050847,18.8922132 L12.1410169,18.8922132 L13.4488136,18.8922132 L17.1983051,18.8922132 L18.5061017,18.8922132 L22.2545763,18.8922132 L23.5623729,18.8922132 L27.3118644,18.8922132 L28.6176271,18.8922132 L32.3664407,18.8922132 L33.6738983,18.8922132 L37.4227119,18.8922132 L38.7305085,18.8922132 L38.7305085,17.6043386 L38.7305085,11.0461317 Z" id="Fill-78" fill="#DDDDDD"></path>
            <polygon id="Fill-79" fill="#1B233B" points="33.6738983 29.9986082 37.4230508 29.9986082 37.4230508 23.4414169 33.6738983 23.4414169"></polygon>
            <polygon id="Fill-80" fill="#1B233B" points="28.6176271 29.9986082 32.3667797 29.9986082 32.3667797 23.4414169 28.6176271 23.4414169"></polygon>
            <polygon id="Fill-81" fill="#1B233B" points="8.46033898 29.9986082 12.1410169 29.9986082 12.1410169 23.4414169 8.46033898 23.4414169"></polygon>
            <polygon id="Fill-82" fill="#1B233B" points="23.5623729 29.9986082 27.3122034 29.9986082 27.3122034 23.4414169 23.5623729 23.4414169"></polygon>
            <polygon id="Fill-83" fill="#1B233B" points="13.4488136 29.9986082 17.1986441 29.9986082 17.1986441 23.4414169 13.4488136 23.4414169"></polygon>
            <polygon id="Fill-84" fill="#1B233B" points="18.5061017 29.9986082 22.2549153 29.9986082 22.2549153 23.4414169 18.5061017 23.4414169"></polygon>
            <path d="M33.6735593,29.9986082 L37.4227119,29.9986082 L37.4227119,23.4414169 L33.6735593,23.4414169 L33.6735593,29.9986082 Z M28.6172881,29.9986082 L32.3664407,29.9986082 L32.3664407,23.4414169 L28.6172881,23.4414169 L28.6172881,29.9986082 Z M23.5620339,29.9986082 L27.3118644,29.9986082 L27.3118644,23.4414169 L23.5620339,23.4414169 L23.5620339,29.9986082 Z M18.5057627,29.9986082 L22.2545763,29.9986082 L22.2545763,23.4414169 L18.5057627,23.4414169 L18.5057627,29.9986082 Z M13.4484746,29.9986082 L17.1983051,29.9986082 L17.1983051,23.4414169 L13.4484746,23.4414169 L13.4484746,29.9986082 Z M8.46033898,29.9986082 L12.1410169,29.9986082 L12.1410169,23.4414169 L8.46033898,23.4414169 L8.46033898,29.9986082 Z M38.7305085,23.4414169 L38.7305085,22.1532038 L37.4227119,22.1532038 L33.6738983,22.1532038 L32.3664407,22.1532038 L28.6176271,22.1532038 L27.3118644,22.1532038 L23.5623729,22.1532038 L22.2545763,22.1532038 L18.5061017,22.1532038 L17.1983051,22.1532038 L13.4488136,22.1532038 L12.1410169,22.1532038 L7.17050847,22.1532038 L7.17050847,31.2864828 L12.1410169,31.2864828 L13.4488136,31.2864828 L17.1983051,31.2864828 L18.5061017,31.2864828 L22.2545763,31.2864828 L23.5623729,31.2864828 L27.3118644,31.2864828 L28.6176271,31.2864828 L32.3664407,31.2864828 L33.6738983,31.2864828 L37.4227119,31.2864828 L38.7305085,31.2864828 L38.7305085,29.9986082 L38.7305085,23.4414169 Z" id="Fill-85" fill="#DDDDDD"></path>
            <polygon id="Fill-86" fill="#A3BCC4" points="0.706101695 4.70155486 22.9494915 4.70155486 22.9494915 0 0.706101695 0"></polygon>
            <polygon id="Fill-87" fill="#7A8D93" points="22.9494915 4.70155486 45.1942373 4.70155486 45.1942373 0 22.9494915 0"></polygon>
            <polygon id="Fill-88" fill="#2E2E2E" points="21.9566102 70.9106332 32.2664407 70.9106332 32.2664407 67.4485392 21.9566102 67.4485392"></polygon>
            <path d="M27.7718644,70.9106332 L32.2664407,70.9106332 L32.2664407,67.4485392 L27.7718644,67.4485392 L27.7718644,70.9106332 Z M21.9566102,70.9106332 L26.4525424,70.9106332 L26.4525424,67.4485392 L21.9566102,67.4485392 L21.9566102,70.9106332 Z M20.6362712,66.1288401 L20.6362712,72.2296552 L26.4525424,72.2296552 L27.7722034,72.2296552 L33.5871186,72.2296552 L33.5871186,66.1288401 L20.6362712,66.1288401 Z" id="Fill-89" fill="#CECECE"></path>
            <polygon id="Fill-90" fill="#2E2E2E" points="49.1267797 70.9106332 59.4372881 70.9106332 59.4372881 67.4485392 49.1267797 67.4485392"></polygon>
            <path d="M54.9427119,70.9106332 L59.4372881,70.9106332 L59.4372881,67.4485392 L54.9427119,67.4485392 L54.9427119,70.9106332 Z M49.1267797,70.9106332 L53.6223729,70.9106332 L53.6223729,67.4485392 L49.1267797,67.4485392 L49.1267797,70.9106332 Z M47.8057627,66.1288401 L47.8057627,72.2296552 L53.6220339,72.2296552 L54.9427119,72.2296552 L60.7569492,72.2296552 L60.7569492,66.1288401 L47.8057627,66.1288401 Z" id="Fill-91" fill="#CECECE"></path>
            <polygon id="Fill-92" fill="#2E2E2E" points="0 36.7158019 40.859661 59.886711 40.859661 57.049595 0 33.6796138"></polygon>
            <polygon id="Fill-93" fill="#592F1E" points="5.28332203 39.7500602 5.28332203 42.7815085 40.8595932 63.11801 40.8595932 59.8871511"></polygon>
            <polygon id="Fill-94" fill="#2E2E2E" points="35.567661 33.6798169 35.567661 36.5941241 76.427322 60.116795 76.427322 57.0494596"></polygon>
            <polygon id="Fill-95" fill="#592F1E" points="40.8513898 42.7815423 76.427322 63.1180439 76.427322 60.1167273 40.8513898 39.6285517"></polygon>
        </g>
    </g>
</svg>