<?xml version="1.0" encoding="UTF-8"?>
<svg width="120px" height="120px" viewBox="0 0 120 120" version="1.1" xmlns="http://www.w3.org/2000/svg" xmlns:xlink="http://www.w3.org/1999/xlink">
    <!-- Generator: Sketch 51.1 (57501) - http://www.bohemiancoding.com/sketch -->
    <title>Motorcycle14</title>
    <desc>Created with Sketch.</desc>
    <defs></defs>
    <g id="Motorcycle14" stroke="none" stroke-width="1" fill="none" fill-rule="evenodd">
        <g id="Group" transform="translate(60.000000, 60.000000) scale(-1, 1) translate(-60.000000, -60.000000) translate(0.000000, 31.000000)" fill-rule="nonzero">
            <path d="M55.5555556,21.1877551 C55.2888889,21.1877551 55.0518519,21.0989796 54.8444444,20.9214286 C54.4296296,20.5367347 54.4,19.8561224 54.7851852,19.4418367 L61.0962963,12.5469388 C61.7185185,11.8663265 62.5777778,11.5112245 63.4666667,11.5112245 L73.1851852,11.5112245 C73.7777778,11.5112245 74.2222222,11.9846939 74.2222222,12.5469388 C74.2222222,13.1091837 73.7481481,13.5826531 73.1851852,13.5826531 L63.4666667,13.5826531 C63.1407407,13.5826531 62.8444444,13.7010204 62.637037,13.9377551 L56.3259259,20.8326531 C56.1185185,21.0693878 55.8518519,21.1877551 55.5555556,21.1877551 Z" id="Shape" fill="#1E1E1E"></path>
            <path d="M36.2666667,52.6438776 C35.5555556,52.6438776 34.962963,52.0520408 34.962963,51.3418367 L34.962963,45.3642857 C34.962963,44.6540816 35.5555556,44.0622449 36.2666667,44.0622449 C36.9777778,44.0622449 37.5703704,44.6540816 37.5703704,45.3642857 L37.5703704,51.3418367 C37.6,52.0520408 37.0074074,52.6438776 36.2666667,52.6438776 Z" id="Shape" fill="#1E1E1E"></path>
            <g transform="translate(102.814815, 41.724490)" id="Oval">
                <ellipse fill="#B6D1FF" cx="5.06666667" cy="5.03061224" rx="4.88888889" ry="4.88265306"></ellipse>
                <ellipse fill="#1E1E1E" cx="5.06666667" cy="5.03061224" rx="1.92592593" ry="1.92346939"></ellipse>
            </g>
            <g transform="translate(88.888889, 41.724490)" id="Oval">
                <ellipse fill="#B6D1FF" cx="4.97777778" cy="5.03061224" rx="4.88888889" ry="4.88265306"></ellipse>
                <ellipse fill="#1E1E1E" cx="4.97777778" cy="5.03061224" rx="1.92592593" ry="1.92346939"></ellipse>
            </g>
            <g transform="translate(74.962963, 41.724490)" id="Oval">
                <ellipse fill="#B6D1FF" cx="4.88888889" cy="5.03061224" rx="4.88888889" ry="4.88265306"></ellipse>
                <ellipse fill="#1E1E1E" cx="4.88888889" cy="5.03061224" rx="1.92592593" ry="1.92346939"></ellipse>
            </g>
            <g transform="translate(60.740741, 41.724490)" id="Oval">
                <ellipse fill="#B6D1FF" cx="5.06666667" cy="5.03061224" rx="4.88888889" ry="4.88265306"></ellipse>
                <ellipse fill="#1E1E1E" cx="5.06666667" cy="5.03061224" rx="1.92592593" ry="1.92346939"></ellipse>
            </g>
            <path d="M105.925926,57.3193878 L64.7407407,57.3193878 C58.3703704,57.3193878 53.1851852,52.1408163 53.1851852,45.7785714 C53.1851852,45.1867347 53.6592593,44.7428571 54.2222222,44.7428571 C54.7851852,44.7428571 55.2592593,45.2163265 55.2592593,45.7785714 C55.2592593,50.9867347 59.4962963,55.2183673 64.7111111,55.2183673 L105.896296,55.2183673 C111.111111,55.2183673 115.348148,50.9867347 115.348148,45.7785714 C115.348148,45.1867347 115.822222,44.7428571 116.385185,44.7428571 C116.977778,44.7428571 117.422222,45.2163265 117.422222,45.7785714 C117.481481,52.1704082 112.296296,57.3193878 105.925926,57.3193878 Z" id="Shape" fill="#1E1E1E"></path>
            <ellipse id="Oval" fill="#1E1E1E" cx="108.918519" cy="32.1367347" rx="1.92592593" ry="1.92346939"></ellipse>
            <ellipse id="Oval" fill="#1E1E1E" cx="109.837037" cy="29.1479592" rx="1.92592593" ry="1.92346939"></ellipse>
            <ellipse id="Oval" fill="#1E1E1E" cx="110.755556" cy="26.1591837" rx="1.92592593" ry="1.92346939"></ellipse>
            <ellipse id="Oval" fill="#1E1E1E" cx="111.674074" cy="23.1408163" rx="1.92592593" ry="1.92346939"></ellipse>
            <ellipse id="Oval" fill="#1E1E1E" cx="112.592593" cy="20.1520408" rx="1.92592593" ry="1.92346939"></ellipse>
            <path d="M49.2740741,56.0173469 C48.8888889,56.0173469 48.5925926,55.7214286 48.5925926,55.3367347 C48.5925926,53.5612245 43.3481481,51.5785714 36.2962963,51.5785714 C29.2444444,51.5785714 24,53.5612245 24,55.3367347 C24,55.7214286 23.7037037,56.0173469 23.3185185,56.0173469 C22.9333333,56.0173469 22.637037,55.7214286 22.637037,55.3367347 C22.637037,51.9928571 29.6888889,50.1877551 36.3259259,50.1877551 C42.962963,50.1877551 50.0148148,51.9928571 50.0148148,55.3367347 C49.9555556,55.6918367 49.6296296,56.0173469 49.2740741,56.0173469 Z" id="Shape" fill="#1E1E1E"></path>
            <path d="M49.2740741,58 L12.2666667,58 C5.54074074,58 0.0592592593,52.5255102 0.0592592593,45.8081633 C0.0592592593,44.8612245 0.82962963,44.0918367 1.77777778,44.0918367 C2.72592593,44.0918367 3.4962963,44.8612245 3.4962963,45.8081633 C3.4962963,50.6612245 7.43703704,54.5969388 12.2962963,54.5969388 L49.2740741,54.5969388 C50.2222222,54.5969388 50.9925926,55.3663265 50.9925926,56.3132653 C50.9925926,57.2602041 50.1925926,58 49.2740741,58 Z" id="Shape" fill="#CEAA36"></path>
            <path d="M63.437037,34.0010204 L58.1925926,17.4887755 L40.8888889,17.4887755 L12.7407407,30.0357143 C10.7851852,30.8938776 9.95555556,33.2316327 10.9037037,35.1255102 L15.2,43.7071429 C15.8222222,44.9795918 17.1259259,45.7785714 18.5481481,45.7785714 L116.740741,45.7785714 C118.459259,45.7785714 119.851852,44.3877551 119.851852,42.6714286 L119.851852,33.9714286 L63.437037,33.9714286 L63.437037,34.0010204 Z" id="Shape" fill="#CEAA36"></path>
            <path d="M105.511111,26.6918367 L61.0962963,26.6918367 L63.437037,34.0306122 L108.562963,34.0306122 L108.562963,29.4142857 C108.562963,27.905102 107.2,26.6918367 105.511111,26.6918367 Z" id="Shape" fill="#1E1E1E"></path>
            <path d="M116.02963,15.8612245 C114.281481,15.8612245 112.77037,17.044898 112.355556,18.7316327 L108.533333,34.0306122 L119.822222,34.0306122 L119.822222,19.6489796 C119.822222,17.5479592 118.133333,15.8612245 116.02963,15.8612245 Z" id="Shape" fill="#CEAA36"></path>
            <path d="M58.1925926,0.207142857 L45.3037037,0.207142857 C42.8740741,0.207142857 40.8888889,2.18979592 40.8888889,4.61632653 L40.8888889,17.4887755 L58.1925926,17.4887755 L58.1925926,0.207142857 Z" id="Shape" fill="#A2DCFF" opacity="0.6"></path>
            <polygon id="Shape" fill="#77601E" points="105.807407 41.2214286 66.1925926 41.2214286 63.437037 34.0010204 108.562963 34.0010204"></polygon>
            <path d="M63.437037,34.0010204 L62.8148148,32.0183673 L10.7851852,32.0183673 C10.4,32.9357143 10.3703704,33.9714286 10.8148148,34.9479592 L63.7037037,34.9479592 C64.3259259,34.9479592 64.8592593,34.5336735 65.0666667,34.0010204 L63.437037,34.0010204 Z" id="Shape" fill="#77601E"></path>
            <path d="M63.6740741,34.0010204 L9.54074074,34.0010204 C8.74074074,34.0010204 8.05925926,33.35 8.05925926,32.5214286 C8.05925926,31.722449 8.71111111,31.0418367 9.54074074,31.0418367 L63.6740741,31.0418367 C64.4740741,31.0418367 65.1555556,31.6928571 65.1555556,32.5214286 C65.1555556,33.35 64.5037037,34.0010204 63.6740741,34.0010204 Z" id="Shape" fill="#DDDDDD"></path>
            <path d="M9.54074074,34.0010204 L63.6740741,34.0010204 C64.4740741,34.0010204 65.1555556,33.35 65.1555556,32.5214286 L8.05925926,32.5214286 C8.05925926,33.35 8.74074074,34.0010204 9.54074074,34.0010204 Z" id="Shape" fill="#AFAFAF"></path>
            <path d="M65.7185185,53.5908163 C65.3037037,53.5908163 64.9777778,53.8571429 64.8888889,54.2714286 L64.4444444,56.2836735 L66.9925926,56.2836735 L66.5481481,54.2714286 C66.4592593,53.8867347 66.1333333,53.5908163 65.7185185,53.5908163 Z" id="Shape" fill="#1E1E1E"></path>
            <path d="M69.4518519,53.5908163 C69.037037,53.5908163 68.7111111,53.8571429 68.6222222,54.2714286 L68.1777778,56.2836735 L70.7259259,56.2836735 L70.2814815,54.2714286 C70.1925926,53.8867347 69.8666667,53.5908163 69.4518519,53.5908163 Z" id="Shape" fill="#1E1E1E"></path>
            <path d="M73.1851852,53.5908163 C72.7703704,53.5908163 72.4444444,53.8571429 72.3555556,54.2714286 L71.9111111,56.2836735 L74.4592593,56.2836735 L74.0148148,54.2714286 C73.9555556,53.8867347 73.6,53.5908163 73.1851852,53.5908163 Z" id="Shape" fill="#1E1E1E"></path>
            <path d="M76.9185185,53.5908163 C76.5037037,53.5908163 76.1777778,53.8571429 76.0888889,54.2714286 L75.6444444,56.2836735 L78.1925926,56.2836735 L77.7481481,54.2714286 C77.6888889,53.8867347 77.3333333,53.5908163 76.9185185,53.5908163 Z" id="Shape" fill="#1E1E1E"></path>
            <path d="M80.6814815,53.5908163 C80.2666667,53.5908163 79.9407407,53.8571429 79.8518519,54.2714286 L79.4074074,56.2836735 L81.9555556,56.2836735 L81.5111111,54.2714286 C81.4222222,53.8867347 81.0666667,53.5908163 80.6814815,53.5908163 Z" id="Shape" fill="#1E1E1E"></path>
            <path d="M84.4148148,53.5908163 C84,53.5908163 83.6740741,53.8571429 83.5851852,54.2714286 L83.1407407,56.2836735 L85.6888889,56.2836735 L85.2444444,54.2714286 C85.1555556,53.8867347 84.8,53.5908163 84.4148148,53.5908163 Z" id="Shape" fill="#1E1E1E"></path>
            <path d="M88.1481481,53.5908163 C87.7333333,53.5908163 87.4074074,53.8571429 87.3185185,54.2714286 L86.8740741,56.2836735 L89.4222222,56.2836735 L88.9777778,54.2714286 C88.8888889,53.8867347 88.562963,53.5908163 88.1481481,53.5908163 Z" id="Shape" fill="#1E1E1E"></path>
            <path d="M91.8814815,53.5908163 C91.4666667,53.5908163 91.1407407,53.8571429 91.0518519,54.2714286 L90.6074074,56.2836735 L93.1555556,56.2836735 L92.7111111,54.2714286 C92.6518519,53.8867347 92.2962963,53.5908163 91.8814815,53.5908163 Z" id="Shape" fill="#1E1E1E"></path>
            <path d="M95.6148148,53.5908163 C95.2,53.5908163 94.8740741,53.8571429 94.7851852,54.2714286 L94.3407407,56.2836735 L96.8888889,56.2836735 L96.4444444,54.2714286 C96.3851852,53.8867347 96.0296296,53.5908163 95.6148148,53.5908163 Z" id="Shape" fill="#1E1E1E"></path>
            <path d="M99.3481481,53.5908163 C98.9333333,53.5908163 98.6074074,53.8571429 98.5185185,54.2714286 L98.0740741,56.2836735 L100.622222,56.2836735 L100.177778,54.2714286 C100.118519,53.8867347 99.762963,53.5908163 99.3481481,53.5908163 Z" id="Shape" fill="#1E1E1E"></path>
            <path d="M103.111111,53.5908163 C102.696296,53.5908163 102.37037,53.8571429 102.281481,54.2714286 L101.837037,56.2836735 L104.385185,56.2836735 L103.940741,54.2714286 C103.851852,53.8867347 103.496296,53.5908163 103.111111,53.5908163 Z" id="Shape" fill="#1E1E1E"></path>
            <path d="M106.844444,53.5908163 C106.42963,53.5908163 106.103704,53.8571429 106.014815,54.2714286 L105.57037,56.2836735 L108.118519,56.2836735 L107.674074,54.2714286 C107.585185,53.8867347 107.22963,53.5908163 106.844444,53.5908163 Z" id="Shape" fill="#1E1E1E"></path>
            <path d="M37.9259259,48.0867347 L34.3703704,47.2285714 C34.0444444,47.1397959 33.8666667,46.8438776 33.9259259,46.5183673 C34.0148148,46.1928571 34.3111111,46.0153061 34.637037,46.0744898 L38.1925926,46.9326531 C38.5185185,47.0214286 38.6962963,47.3173469 38.637037,47.6428571 C38.5777778,47.9683673 38.2518519,48.1755102 37.9259259,48.0867347 Z" id="Shape" fill="#1E1E1E"></path>
            <path d="M37.9259259,49.6846939 L34.3703704,48.8265306 C34.0444444,48.7377551 33.8666667,48.4418367 33.9259259,48.1163265 C34.0148148,47.7908163 34.3111111,47.6132653 34.637037,47.672449 L38.1925926,48.5306122 C38.5185185,48.6193878 38.6962963,48.9153061 38.637037,49.2408163 C38.5777778,49.5663265 38.2518519,49.7438776 37.9259259,49.6846939 Z" id="Shape" fill="#1E1E1E"></path>
            <path d="M51.5555556,13.05 L45.0666667,17.4887755 L57.6,17.4887755 L55.762963,14.0561224 C54.962963,12.5469388 53.0074074,12.0734694 51.5555556,13.05 Z" id="Shape" fill="#1E1E1E"></path>
            <path d="M65.1555556,15.2102041 C64.562963,15.2102041 64.1185185,14.7367347 64.1185185,14.1744898 L64.1185185,10.9489796 C64.1185185,10.3571429 64.5925926,9.91326531 65.1555556,9.91326531 C65.7185185,9.91326531 66.1925926,10.3867347 66.1925926,10.9489796 L66.1925926,14.144898 C66.1925926,14.7367347 65.7481481,15.2102041 65.1555556,15.2102041 Z" id="Shape" fill="#1E1E1E"></path>
        </g>
    </g>
</svg>