<?xml version="1.0" encoding="UTF-8"?>
<svg width="120px" height="120px" viewBox="0 0 120 120" version="1.1" xmlns="http://www.w3.org/2000/svg" xmlns:xlink="http://www.w3.org/1999/xlink">
    <!-- Generator: Sketch 48.2 (47327) - http://www.bohemiancoding.com/sketch -->
    <title>House</title>
    <desc>Created with Sketch.</desc>
    <defs>
        <polygon id="path-1" points="0 114.74 119.031579 114.74 119.031579 0 0 0"></polygon>
    </defs>
    <g id="建筑" stroke="none" stroke-width="1" fill="none" fill-rule="evenodd">
        <g id="House">
            <g id="Page-1" transform="translate(0.000000, 2.000000)">
                <path d="M32.2241053,110.750737 C24.4462105,114.074947 15.0641053,113.354947 7.88515789,108.881263 C3.77884211,106.321263 0.224105263,102.201263 0.00831578947,97.3665263 C-0.209578947,92.5317895 4.17042105,87.5181053 8.922,88.436 C6.99568421,85.1465263 5.10515789,81.6907368 4.72515789,77.8981053 C4.34621053,74.1054737 5.85252632,69.8696842 9.24726316,68.136 C11.7367368,66.8654737 14.9651579,67.2149474 17.1241053,68.9907368 C17.9325263,62.5738947 20.1146316,56.0412632 24.8125263,51.5970526 C29.5114737,47.1528421 37.1525263,45.4212632 42.6251579,48.8675789 C47.5314737,51.956 49.4788421,58.0517895 50.7956842,63.696 C52.5072632,71.036 53.7704211,78.4791579 54.5746316,85.9728421 C55.0546316,90.4391579 55.1304211,95.5875789 51.8514737,98.6591579" id="Fill-1" fill="#B1D665"></path>
                <mask id="mask-2" fill="white">
                    <use xlink:href="#path-1"></use>
                </mask>
                <g id="Clip-4"></g>
                <polygon id="Fill-3" fill="#F37350" mask="url(#mask-2)" points="98.8357895 38.5273684 110.023158 38.5273684 110.023158 10.56 98.8357895 10.56"></polygon>
                <path d="M111.013158,11.958 L97.8447368,11.958 C97.1289474,11.958 96.5489474,11.378 96.5489474,10.6622105 L96.5489474,7.89378947 C96.5489474,7.178 97.1289474,6.598 97.8447368,6.598 L111.013158,6.598 C111.728947,6.598 112.308947,7.178 112.308947,7.89378947 L112.308947,10.6622105 C112.308947,11.378 111.728947,11.958 111.013158,11.958" id="Fill-5" fill="#C0584F" mask="url(#mask-2)"></path>
                <polygon id="Fill-6" fill="#C0584F" mask="url(#mask-2)" points="98.8357895 17.6094737 110.023158 17.6094737 110.023158 16.5610526 98.8357895 16.5610526"></polygon>
                <polygon id="Fill-7" fill="#C0584F" mask="url(#mask-2)" points="103.905263 17.0852632 104.953684 17.0852632 104.953684 10.4715789 103.905263 10.4715789"></polygon>
                <polygon id="Fill-8" fill="#C0584F" mask="url(#mask-2)" points="103.905263 28.3894737 104.953684 28.3894737 104.953684 22.1831579 103.905263 22.1831579"></polygon>
                <polygon id="Fill-9" fill="#C0584F" mask="url(#mask-2)" points="98.8357895 23.1452632 110.023158 23.1452632 110.023158 22.0968421 98.8357895 22.0968421"></polygon>
                <polygon id="Fill-10" fill="#C0584F" mask="url(#mask-2)" points="98.8357895 28.68 110.023158 28.68 110.023158 27.6315789 98.8357895 27.6315789"></polygon>
                <polygon id="Fill-11" fill="#C0584F" mask="url(#mask-2)" points="98.8357895 33.5326316 110.023158 33.5326316 110.023158 32.4831579 98.8357895 32.4831579"></polygon>
                <polygon id="Fill-12" fill="#F37350" mask="url(#mask-2)" points="70.6349474 3.56778947 30.3138947 43.7025263 30.3138947 55.0751579 30.3138947 107.980421 115.616 107.980421 115.616 55.0751579 115.616 47.5004211"></polygon>
                <path d="M71.8001053,0.829368421 L30.3137895,42.1988421 L30.3137895,48.7830526 L71.8001053,9.45252632 L115.615895,50.9977895 L115.615895,46.8598947 C116.719053,46.8598947 117.252737,45.5093684 116.447474,44.7556842 L71.8001053,0.829368421 Z" id="Fill-13" fill="#4C5777" mask="url(#mask-2)"></path>
                <polygon id="Fill-14" fill="#5A6A8C" mask="url(#mask-2)" points="26.9926316 114.74 118.936842 114.74 118.936842 107.981053 26.9926316 107.981053"></polygon>
                <polygon id="Fill-15" fill="#5CA09F" mask="url(#mask-2)" points="41.0936842 92.54 73.9557895 92.54 73.9557895 65.2715789 41.0936842 65.2715789"></polygon>
                <polygon id="Fill-16" fill="#85674D" mask="url(#mask-2)" points="85.1431579 107.981053 106.817895 107.981053 106.817895 64.0484211 85.1431579 64.0484211"></polygon>
                <polygon id="Fill-17" fill="#A68B6D" mask="url(#mask-2)" points="86.8989474 105.708421 105.062105 105.708421 105.062105 66.8452632 86.8989474 66.8452632"></polygon>
                <path d="M107.444632,65.2716842 L84.6330526,65.2716842 C84.1109474,65.2716842 83.6867368,64.8485263 83.6867368,64.3253684 L83.6867368,62.5485263 C83.6867368,62.0253684 84.1109474,61.6011579 84.6330526,61.6011579 L107.444632,61.6011579 C107.967789,61.6011579 108.390947,62.0253684 108.390947,62.5485263 L108.390947,64.3253684 C108.390947,64.8485263 107.967789,65.2716842 107.444632,65.2716842" id="Fill-18" fill="#5A6A8C" mask="url(#mask-2)"></path>
                <path d="M69.8695789,0.784631579 L25.4127368,44.0288421 C23.6306316,45.7625263 24.858,48.7825263 27.3432632,48.7825263 C28.0537895,48.7825263 28.7369474,48.5088421 29.2516842,48.0193684 L69.8916842,9.34673684 C70.9601053,8.32884211 72.6390526,8.32884211 73.7085263,9.34673684 L114.348526,48.0193684 C114.863263,48.5088421 115.546421,48.7825263 116.256947,48.7825263 C118.742211,48.7825263 119.968526,45.7625263 118.187474,44.0288421 L73.7306316,0.784631579 C72.6558947,-0.260631579 70.9443158,-0.260631579 69.8695789,0.784631579" id="Fill-19" fill="#5A6A8C" mask="url(#mask-2)"></path>
                <polygon id="Fill-20" fill="#C0584F" mask="url(#mask-2)" points="35.1505263 56.8810526 42.4915789 56.8810526 42.4915789 53.0357895 35.1505263 53.0357895"></polygon>
                <polygon id="Fill-21" fill="#C0584F" mask="url(#mask-2)" points="95.1642105 50.7052632 102.506316 50.7052632 102.506316 46.86 95.1642105 46.86"></polygon>
                <polygon id="Fill-22" fill="#C0584F" mask="url(#mask-2)" points="42.4915789 53.0357895 49.8336842 53.0357895 49.8336842 49.1905263 42.4915789 49.1905263"></polygon>
                <polygon id="Fill-23" fill="#C0584F" mask="url(#mask-2)" points="30.3136842 92.1905263 36.2863158 92.1905263 36.2863158 88.3452632 30.3136842 88.3452632"></polygon>
                <polygon id="Fill-24" fill="#5A6A8C" mask="url(#mask-2)" points="40.1473684 65.2715789 74.9021053 65.2715789 74.9021053 64.0484211 40.1473684 64.0484211"></polygon>
                <path d="M90.344,82.4149474 C90.2987368,82.4149474 90.2534737,82.3970526 90.2187368,82.3612632 C90.1513684,82.2928421 90.1534737,82.1823158 90.2218947,82.1149474 L94.4176842,78.036 C94.4871579,77.9686316 94.5976842,77.9707368 94.664,78.0391579 C94.7313684,78.1086316 94.7303158,78.2191579 94.6618947,78.2865263 L90.4661053,82.3654737 C90.4313684,82.3981053 90.3882105,82.4149474 90.344,82.4149474" id="Fill-25" fill="#C4AA90" mask="url(#mask-2)"></path>
                <path d="M47.0077895,76.2194737 C46.9625263,76.2194737 46.9172632,76.2015789 46.8825263,76.1668421 C46.8151579,76.0973684 46.8162105,75.9868421 46.8856842,75.9194737 L51.0814737,71.8405263 C51.1509474,71.7731579 51.2614737,71.7752632 51.3277895,71.8436842 C51.3951579,71.9131579 51.3941053,72.0247368 51.3246316,72.0910526 L47.1298947,76.17 C47.0951579,76.2026316 47.052,76.2194737 47.0077895,76.2194737" id="Fill-26" fill="#87CCC9" mask="url(#mask-2)"></path>
                <path d="M52.1609474,76.9153684 C52.1156842,76.9153684 52.0704211,76.8974737 52.0356842,76.8627368 C51.9683158,76.7932632 51.9693684,76.6827368 52.0388421,76.6153684 L56.2346316,72.5364211 C56.3041053,72.4690526 56.4146316,72.4711579 56.4809474,72.5406316 C56.5483158,72.6090526 56.5472632,72.7206316 56.4777895,72.7869474 L52.2830526,76.8658947 C52.2483158,76.8985263 52.2051579,76.9153684 52.1609474,76.9153684" id="Fill-27" fill="#87CCC9" mask="url(#mask-2)"></path>
                <path d="M45.0818947,80.3754737 C45.0334737,80.3754737 44.9861053,80.3554737 44.9513684,80.3165263 C44.8871579,80.2449474 44.8934737,80.1344211 44.9650526,80.0702105 L58.2503158,68.1838947 C58.3218947,68.1196842 58.4324211,68.126 58.4966316,68.1975789 C58.5608421,68.2702105 58.5545263,68.3796842 58.4829474,68.4449474 L45.1987368,80.3312632 C45.1650526,80.3607368 45.124,80.3754737 45.0818947,80.3754737" id="Fill-28" fill="#87CCC9" mask="url(#mask-2)"></path>
                <path d="M97.4503158,83.8669474 C97.4050526,83.8669474 97.3597895,83.8490526 97.3250526,83.8143158 C97.2576842,83.7448421 97.2587368,83.6343158 97.3282105,83.5669474 L101.524,79.488 C101.592421,79.4206316 101.702947,79.4227368 101.770316,79.4922105 C101.837684,79.5616842 101.836632,79.6722105 101.767158,79.7395789 L97.5724211,83.8174737 C97.5376842,83.8501053 97.4945263,83.8669474 97.4503158,83.8669474" id="Fill-29" fill="#C4AA90" mask="url(#mask-2)"></path>
                <path d="M88.5384211,88.4907368 C88.4942105,88.4907368 88.4489474,88.4728421 88.4142105,88.4391579 C88.3468421,88.3707368 88.3468421,88.2602105 88.4152632,88.1917895 L102.842632,73.8812632 C102.911053,73.8128421 103.021579,73.8138947 103.09,73.8823158 C103.158421,73.9507368 103.157368,74.0612632 103.088947,74.1296842 L88.6615789,88.4402105 C88.6268421,88.4738947 88.5826316,88.4907368 88.5384211,88.4907368" id="Fill-30" fill="#C4AA90" mask="url(#mask-2)"></path>
                <polygon id="Fill-31" fill="#5A6A8C" mask="url(#mask-2)" points="49.1052632 90.2684211 50.2126316 90.2684211 50.2126316 65.2715789 49.1052632 65.2715789"></polygon>
                <polygon id="Fill-32" fill="#5A6A8C" mask="url(#mask-2)" points="56.9705263 90.2684211 58.0778947 90.2684211 58.0778947 65.2715789 56.9705263 65.2715789"></polygon>
                <polygon id="Fill-33" fill="#5A6A8C" mask="url(#mask-2)" points="64.8368421 90.2684211 65.9442105 90.2684211 65.9442105 65.2715789 64.8368421 65.2715789"></polygon>
                <polygon id="Fill-34" fill="#5A6A8C" mask="url(#mask-2)" points="41.0936842 79.3726316 73.9557895 79.3726316 73.9557895 78.44 41.0936842 78.44"></polygon>
                <path d="M81.3554737,32.5845263 C81.3554737,37.2182105 77.5996842,40.9750526 72.9649474,40.9750526 C68.3312632,40.9750526 64.5754737,37.2182105 64.5754737,32.5845263 C64.5754737,27.9508421 68.3312632,24.194 72.9649474,24.194 C77.5996842,24.194 81.3554737,27.9508421 81.3554737,32.5845263" id="Fill-35" fill="#5CA09F" mask="url(#mask-2)"></path>
                <path d="M72.9652632,25.322 C68.9610526,25.322 65.7031579,28.5798947 65.7031579,32.5841053 C65.7031579,36.5893684 68.9610526,39.8462105 72.9652632,39.8462105 C76.9694737,39.8462105 80.2273684,36.5893684 80.2273684,32.5841053 C80.2273684,28.5798947 76.9694737,25.322 72.9652632,25.322 M72.9652632,42.1988421 C67.6642105,42.1988421 63.3515789,37.8862105 63.3515789,32.5841053 C63.3515789,27.2830526 67.6642105,22.9704211 72.9652632,22.9704211 C78.2663158,22.9704211 82.5789474,27.2830526 82.5789474,32.5841053 C82.5789474,37.8862105 78.2663158,42.1988421 72.9652632,42.1988421" id="Fill-36" fill="#5A6A8C" mask="url(#mask-2)"></path>
                <polygon id="Fill-37" fill="#5A6A8C" mask="url(#mask-2)" points="71.88 40.5810526 74.0515789 40.5810526 74.0515789 24.5873684 71.88 24.5873684"></polygon>
                <polygon id="Fill-38" fill="#5A6A8C" mask="url(#mask-2)" points="64.9684211 33.6705263 80.9621053 33.6705263 80.9621053 31.4989474 64.9684211 31.4989474"></polygon>
                <path d="M45.0068421,92.6781053 C43.5110526,92.3654737 42.3121053,90.9675789 42.2321053,89.4402105 C42.2184211,89.1749474 42.2363158,88.9002105 42.3478947,88.6591579 C42.5868421,88.1402105 43.2121053,87.8928421 43.7826316,87.9244211 C44.3531579,87.9570526 44.8836842,88.2128421 45.3963158,88.4644211 C44.1742105,86.876 43.2563158,84.7307368 44.0731579,82.9012632 C44.2910526,82.4138947 44.7047368,81.936 45.2384211,81.9349474 C45.8015789,81.9338947 46.2131579,82.4465263 46.5194737,82.9181053 C47.3005263,84.1212632 47.9763158,85.3917895 48.5394737,86.7107368 C48.75,85.3296842 49.1847368,83.8265263 50.3742105,83.0949474 C50.5489474,82.9865263 50.7489474,82.8970526 50.9531579,82.9202105 C51.1468421,82.9433684 51.3142105,83.0654737 51.4552632,83.2012632 C52.4857895,84.1970526 52.3910526,85.8475789 52.2215789,87.2707368 C52.5352632,86.3223158 53.8215789,85.9686316 54.7215789,86.3991579 C55.6226316,86.8296842 56.1489474,87.8086316 56.3478947,88.7865263 C56.5078947,89.5707368 56.4889474,90.4191579 56.1236842,91.1296842 C55.7573684,91.8423158 54.9963158,92.3802105 54.1984211,92.3265263" id="Fill-39" fill="#B1D665" mask="url(#mask-2)"></path>
                <path d="M57.2878947,91.5396842 C57.0173684,91.6028421 56.8384211,91.2691579 56.7763158,90.9986316 C56.5363158,89.9575789 56.6068421,88.6617895 57.5078947,88.0870526 C58.0563158,87.7375789 58.7805263,87.7681053 59.3868421,88.0070526 C59.9921053,88.2449474 60.5057895,88.666 61.0078947,89.0796842 C60.9478947,88.1428421 61.1847368,87.1417895 61.8584211,86.4902105 C62.5321053,85.8375789 63.6994737,85.6649474 64.4142105,86.2712632 C65.0468421,86.8081053 65.2068421,87.7870526 65.9036842,88.2354737 C65.9573684,87.6133684 65.7878947,86.9944211 65.7457895,86.3702105 C65.7047368,85.746 65.83,85.0481053 66.3247368,84.6649474 C67.0531579,84.1007368 68.1973684,84.5712632 68.6594737,85.3681053 C69.1215789,86.1649474 69.0963158,87.1417895 69.0573684,88.0617895 C69.2521053,87.486 69.5457895,86.8196842 70.1436842,86.7091579 C70.6573684,86.6144211 71.1415789,86.9986316 71.4363158,87.4291579 C72.2815789,88.666 72.1131579,90.4933684 71.0563158,91.5544211" id="Fill-40" fill="#B1D665" mask="url(#mask-2)"></path>
                <path d="M41.1956842,90.2681053 L73.8535789,90.2681053 C74.9956842,90.2681053 75.922,91.1944211 75.922,92.3365263 L75.922,95.8912632 C75.922,97.0333684 74.9956842,97.9596842 73.8535789,97.9596842 L41.1956842,97.9596842 C40.0535789,97.9596842 39.1272632,97.0333684 39.1272632,95.8912632 L39.1272632,92.3365263 C39.1272632,91.1944211 40.0535789,90.2681053 41.1956842,90.2681053" id="Fill-41" fill="#5A6A8C" mask="url(#mask-2)"></path>
            </g>
        </g>
    </g>
</svg>