<?xml version="1.0" encoding="UTF-8"?>
<svg width="120px" height="120px" viewBox="0 0 120 120" version="1.1" xmlns="http://www.w3.org/2000/svg" xmlns:xlink="http://www.w3.org/1999/xlink">
    <!-- Generator: Sketch 51.1 (57501) - http://www.bohemiancoding.com/sketch -->
    <title>Perfume1</title>
    <desc>Created with Sketch.</desc>
    <defs></defs>
    <g id="Perfume1" stroke="none" stroke-width="1" fill="none" fill-rule="evenodd">
        <g id="Group" transform="translate(15.000000, 0.000000)">
            <path d="M38.5104116,119.755061 C37.6125908,119.83845 36.7031477,119.883196 35.7937046,119.883196 C18.9762712,119.883196 14.3244552,105.549443 4.1346247,82.8081356 C-6.05520581,60.0668281 3.93995157,41.6312833 29.2736077,41.6312833 L61.4556901,41.6312833 C86.7922518,41.6312833 96.7845036,60.0668281 86.5946731,82.8081356 C76.4048426,105.549443 71.7530266,119.883196 54.9384988,119.883196 C54.0261501,119.883196 53.1196126,119.83845 52.2188862,119.755061 L38.5104116,119.755061" id="Fill-121" fill="#87336D"></path>
            <path d="M39.1438257,114.6154 C38.3273608,114.692397 37.5050847,114.733366 36.6769976,114.733366 C21.4140436,114.733366 17.1922518,101.544116 7.94382567,80.6187893 C-1.30460048,59.6931719 7.76368039,42.7298789 30.7612591,42.7298789 L59.9709443,42.7298789 C82.9656174,42.7298789 92.0338983,59.6931719 82.7854722,80.6187893 C73.537046,101.544116 69.3152542,114.733366 54.0523002,114.733366 C53.2271186,114.733366 52.401937,114.692397 51.5854722,114.6154 L39.1438257,114.6154" id="Fill-122" fill="#AF6098"></path>
            <path d="M61.577724,41.6327361 L61.577724,42.0363196 C61.577724,44.4310896 59.433414,46.3906053 56.8125908,46.3906053 L33.7452785,46.3906053 C31.1244552,46.3906053 28.9801453,44.4310896 28.9801453,42.0363196 L28.9801453,41.63477 C29.0789346,41.6341889 29.1748184,41.6312833 29.2736077,41.6312833 L61.4556901,41.6312833 C61.496368,41.6312833 61.537046,41.6324455 61.577724,41.6327361" id="Fill-123" fill="#9D666D"></path>
            <path d="M40.3089588,112.598063 C39.6435835,112.668378 38.9753027,112.70615 38.3012107,112.70615 C25.894431,112.70615 22.462954,100.580048 14.9433414,81.3416949 C7.42372881,62.1030508 14.798063,46.5071186 33.4924939,46.5071186 L57.2368039,46.5071186 C75.9312349,46.5071186 83.305569,62.1030508 75.7859564,81.3416949 C68.2692494,100.580048 64.8377724,112.70615 52.4280872,112.70615 C51.7569007,112.70615 51.0857143,112.668378 50.4232446,112.598063 L40.3089588,112.598063" id="Fill-124" fill="#F8D9E1"></path>
            <path d="M30.3864407,28.0189831 L60.1714286,28.0189831 C60.8891041,28.0189831 61.4789346,28.6067797 61.4789346,29.3250363 L61.4789346,31.4155932 C61.4789346,32.1338499 60.8891041,32.7216465 60.1714286,32.7216465 L30.3864407,32.7216465 C29.6687651,32.7216465 29.0789346,32.1338499 29.0789346,31.4155932 L29.0789346,29.3250363 C29.0789346,28.6067797 29.6687651,28.0189831 30.3864407,28.0189831" id="Fill-125" fill="#8A8F8D"></path>
            <path d="M60.1714286,32.7216465 L60.1714286,40.516707 C60.1714286,42.911477 58.2130751,44.8712833 55.8159806,44.8712833 L34.7389831,44.8712833 C32.3447942,44.8712833 30.3864407,42.911477 30.3864407,40.516707 L30.3864407,32.7216465 L60.1714286,32.7216465" id="Fill-126" fill="#8A8F8D"></path>
            <polyline id="Fill-127" fill="#87336D" points="31.746247 28.0189831 20.1443099 7.90053269 28.503632 0.0624697337 62.0513317 0.0624697337 70.4135593 7.90053269 58.8116223 28.0189831 31.746247 28.0189831"></polyline>
            <polyline id="Fill-128" fill="#AF6098" points="20.1443099 7.90053269 28.503632 0.0624697337 62.0513317 0.0624697337 70.4135593 7.90053269 20.1443099 7.90053269"></polyline>
            <polyline id="Fill-129" fill="#AF6098" points="34.8261501 28.0189831 25.8653753 7.90053269 32.3244552 0.0624697337 58.233414 0.0624697337 64.6924939 7.90053269 55.7317191 28.0189831 34.8261501 28.0189831"></polyline>
            <polyline id="Fill-130" fill="#F8D9E1" points="25.8653753 7.90053269 32.3244552 0.785375303 58.233414 0.785375303 64.6924939 7.90053269 25.8653753 7.90053269"></polyline>
            <polyline id="Fill-131" fill="#F8D9E1" points="39.1874092 28.0189831 33.9661017 7.90053269 37.7288136 0.0624697337 52.8290557 0.0624697337 56.5917676 7.90053269 51.37046 28.0189831 39.1874092 28.0189831"></polyline>
            <polyline id="Fill-132" fill="#87336D" points="33.9661017 7.90053269 37.7288136 0.0624697337 52.8290557 0.0624697337 56.5917676 7.90053269 33.9661017 7.90053269"></polyline>
            <path d="M32.737046,28.0189831 L57.8208232,28.0189831 C58.5384988,28.0189831 59.1254237,28.6067797 59.1254237,29.3250363 L59.1254237,31.4155932 C59.1254237,32.1338499 58.5384988,32.7216465 57.8208232,32.7216465 L32.737046,32.7216465 C32.0193705,32.7216465 31.4324455,32.1338499 31.4324455,31.4155932 L31.4324455,29.3250363 C31.4324455,28.6067797 32.0193705,28.0189831 32.737046,28.0189831" id="Fill-133" fill="#464546"></path>
            <path d="M58.0096852,32.7216465 L58.0096852,40.516707 C58.0096852,42.911477 56.3331719,44.8712833 54.2876513,44.8712833 L36.2702179,44.8712833 C34.2217918,44.8712833 32.548184,42.911477 32.548184,40.516707 L32.548184,32.7216465 L58.0096852,32.7216465" id="Fill-134" fill="#464546"></path>
            <path d="M34.9075061,28.0189831 L55.6474576,28.0189831 C56.3680387,28.0189831 56.9549637,28.6067797 56.9549637,29.3250363 L56.9549637,31.4155932 C56.9549637,32.1338499 56.3680387,32.7216465 55.6474576,32.7216465 L34.9075061,32.7216465 C34.1898305,32.7216465 33.6029056,32.1338499 33.6029056,31.4155932 L33.6029056,29.3250363 C33.6029056,28.6067797 34.1898305,28.0189831 34.9075061,28.0189831" id="Fill-135" fill="#8A8F8D"></path>
            <path d="M56.0135593,32.7216465 L56.0135593,40.516707 C56.0135593,42.911477 54.6014528,44.8712833 52.8755448,44.8712833 L37.6823245,44.8712833 C35.9564165,44.8712833 34.5443099,42.911477 34.5443099,40.516707 L34.5443099,32.7216465 L56.0135593,32.7216465" id="Fill-136" fill="#8A8F8D"></path>
            <path d="M43.5806295,28.0189831 L46.9772397,28.0189831 C47.6949153,28.0189831 48.2818402,28.6067797 48.2818402,29.3250363 L48.2818402,31.4155932 C48.2818402,32.1338499 47.6949153,32.7216465 46.9772397,32.7216465 L43.5806295,32.7216465 C42.862954,32.7216465 42.2731235,32.1338499 42.2731235,31.4155932 L42.2731235,29.3250363 C42.2731235,28.6067797 42.862954,28.0189831 43.5806295,28.0189831" id="Fill-137" fill="#464546"></path>
            <path d="M48.040678,32.7216465 L48.040678,40.516707 C48.040678,42.911477 47.6774818,44.8712833 47.2329298,44.8712833 L43.3249395,44.8712833 C42.8803874,44.8712833 42.5171913,42.911477 42.5171913,40.516707 L42.5171913,32.7216465 L48.040678,32.7216465" id="Fill-138" fill="#464546"></path>
            <path d="M41.9302663,111.287942 C41.4799031,111.355642 41.0237288,111.391961 40.5675545,111.391961 C32.1414044,111.391961 29.8082324,99.750799 24.7031477,81.2812591 C19.5951574,62.8117191 24.6043584,47.8390315 37.3016949,47.8390315 L53.4305085,47.8390315 C66.127845,47.8390315 71.1341404,62.8117191 66.0290557,81.2812591 C60.9210654,99.750799 58.590799,111.391961 50.1617433,111.391961 C49.705569,111.391961 49.2523002,111.355642 48.7990315,111.287942 L41.9302663,111.287942" id="Fill-139" fill="#AF6098"></path>
        </g>
    </g>
</svg>