<?xml version="1.0" encoding="UTF-8"?>
<svg width="120px" height="120px" viewBox="0 0 120 120" version="1.1" xmlns="http://www.w3.org/2000/svg" xmlns:xlink="http://www.w3.org/1999/xlink">
    <!-- Generator: Sketch 51.1 (57501) - http://www.bohemiancoding.com/sketch -->
    <title>Girl24</title>
    <desc>Created with Sketch.</desc>
    <defs>
        <polygon id="path-1" points="0.435062777 0.577878261 11.8560259 0.577878261 11.8560259 6.35869565 0.435062777 6.35869565"></polygon>
        <polygon id="path-3" points="0.437247793 1.24274348 11.8566665 1.24274348 11.8566665 6.35869565 0.437247793 6.35869565"></polygon>
    </defs>
    <g id="Girl24" stroke="none" stroke-width="1" fill="none" fill-rule="evenodd">
        <g id="Group-167" transform="translate(20.000000, 2.000000)">
            <path d="M57.7536406,111.040249 C57.7536406,111.040249 61.5307656,111.704097 60.9887969,114.789336 C60.4506719,117.875847 54.6555781,116.803771 52.0969219,115.731695 C49.5292969,114.662162 48.9886094,112.914792 50.3377656,111.704097 C51.6882031,113.451466 54.7939531,112.914792 54.7939531,112.914792 C56.1328594,111.576923 57.7536406,111.040249 57.7536406,111.040249" id="Fill-147" fill="#7F4F21"></path>
            <g id="Group-151" transform="translate(14.375000, 110.461989)">
                <mask id="mask-2" fill="white">
                    <use xlink:href="#path-1"></use>
                </mask>
                <g id="Clip-150"></g>
                <path d="M6.68287188,2.45242174 C6.68287188,2.45242174 9.79118438,2.98909565 11.1403406,1.24299783 C12.4882156,2.45242174 11.9488094,4.1997913 9.38118437,5.27059565 C6.82252812,6.34267174 1.02743438,7.41347609 0.488028125,4.32823696 C-0.052659375,1.24299783 3.72446563,0.577878261 3.72446563,0.577878261 C3.72446563,0.577878261 5.34396563,1.11455217 6.68287188,2.45242174" id="Fill-149" fill="#7F4F21" mask="url(#mask-2)"></path>
            </g>
            <path d="M30.2206031,104.6331 C27.7811031,108.650524 25.5158531,111.705241 25.5158531,111.705241 C24.1654156,113.451339 21.0583844,112.914665 21.0583844,112.914665 C19.7194781,111.576796 18.0999781,111.040122 18.0999781,111.040122 L19.7194781,110.376274 C17.5400719,108.029915 16.1473531,104.731024 15.2735406,101.81747 C15.6502281,102.009502 22.5471969,105.609796 30.2206031,104.6331" id="Fill-152" fill="#595757"></path>
            <path d="M60.6765563,101.902167 C59.9872438,104.398591 58.6598688,107.655515 56.1332438,110.375765 L57.754025,111.040885 C57.754025,111.040885 56.1332438,111.576287 54.7943375,112.914157 C54.7943375,112.914157 51.6873063,113.45083 50.33815,111.704733 C50.33815,111.704733 48.10365,109.392711 45.4284,104.645309 L45.4809313,104.612243 C52.7020563,105.586396 59.4901188,102.48208 60.6765563,101.902167" id="Fill-154" fill="#595757"></path>
            <path d="M16.795025,77.6497207 C18.4683375,79.1173076 20.7669,80.6713728 23.7893688,81.7752424 L23.7573375,81.850275 C15.8661188,80.3483511 9.5969625,78.3669815 9.5969625,78.3669815 L10.675775,75.5602533 C10.675775,75.5602533 13.3740875,76.8892207 16.7399313,77.7044054 L16.795025,77.6497207 Z" id="Fill-156" fill="#6A3908"></path>
            <path d="M64.8217844,79.974587 C58.4860031,82.6528696 51.1905656,83.649913 44.0142844,83.7033261 C43.9271594,83.3803043 43.8630969,83.1882717 43.8630969,83.1882717 C47.3275969,82.567663 50.1437844,81.11025 52.2475969,79.642663 C54.0285344,79.418837 60.8499094,78.4739348 64.2285656,77.4260217 L64.8217844,79.974587 Z" id="Fill-158" fill="#6A3908"></path>
            <path d="M16.341975,90.687463 C16.341975,90.687463 22.5470688,100.595583 35.6286313,94.5649957 C35.6286313,94.5649957 47.7800063,104.076333 54.38485,93.4941913 C54.38485,93.4941913 66.8616625,96.1623 71.8892875,84.2168543 C73.0462563,85.6094087 73.6830375,86.8099304 73.6830375,86.8099304 C71.5138813,94.8765717 65.8366625,97.2521804 61.3894438,97.8206478 C58.0863813,98.2288761 55.4649438,97.6515065 55.4649438,97.6515065 C52.1080688,102.395093 48.0388188,103.326007 44.4461938,102.813496 C39.5121,102.126757 35.4979438,98.7210391 35.4979438,98.7210391 C34.5703188,99.2653435 33.664475,99.7180826 32.7906625,100.070354 C21.95385,104.494735 15.942225,94.9719522 15.942225,94.9719522 C15.2413813,95.0482565 14.5597563,95.1016696 13.912725,95.1321913 C0.88625625,95.6574196 0.15338125,85.3296261 0.15338125,85.3296261 C0.56338125,84.4851913 1.048975,83.7348652 1.57813125,83.082463 C2.00735,84.66705 4.6544125,92.0049848 16.341975,90.687463" id="Fill-160" fill="#C89F62"></path>
            <path d="M64.8217844,79.974587 C58.4860031,82.6528696 51.1905656,83.649913 44.0142844,83.7033261 C44.3909719,85.1276739 45.2020031,89.1133043 42.7830031,90.4193804 C40.1385031,91.8551739 37.9257844,90.9458804 37.4735031,90.7296848 C37.0404406,91.0514348 36.4805344,91.2765326 35.7681594,91.3515652 C35.6169719,91.3617391 35.4657844,91.3706413 35.3248469,91.3706413 C30.6098469,91.3706413 30.1024719,83.1882717 30.1024719,83.1882717 C27.7180656,82.9542717 25.6232219,82.4481196 23.7897531,81.7753696 L23.7564406,81.8504022 C15.8665031,80.3484783 9.59606562,78.3671087 9.59606562,78.3671087 C9.59606562,78.3671087 4.75037812,79.1505 1.57800312,83.0814457 C2.00850312,84.6660326 4.65428437,92.0052391 16.3418469,90.6877174 C16.3418469,90.6877174 22.5469406,100.595837 35.6285031,94.56525 C35.6285031,94.56525 47.7798781,104.076587 54.3847219,93.4944457 C54.3847219,93.4944457 66.8615344,96.1625543 71.8904406,84.2171087 C70.3465344,82.3743587 67.8967844,80.179337 64.8217844,79.974587" id="Fill-162" fill="#7F4F21"></path>
            <path d="M59.5541813,14.2762891 C58.7982438,14.9312348 57.7424938,15.1245391 56.85715,14.6832457 L54.0512125,13.2817891 C52.9941813,12.7667348 52.5290875,11.5229739 52.8634938,10.3555174 C52.9070563,10.172387 52.9711188,9.9918 53.0582438,9.80866957 L54.1690875,7.60347391 C54.41765,7.12148478 54.7751188,6.73487609 55.1953688,6.46653913 C55.9167125,6.01761522 56.8033375,5.93113696 57.569525,6.3063 L60.3754625,7.7103 C61.5824,8.31056087 62.0269938,9.86208261 61.3569,11.1796043 L60.244775,13.3886152 C60.0718063,13.740887 59.8360563,14.0397457 59.5541813,14.2762891" id="Fill-164" fill="#8ED2F4"></path>
            <path d="M45.3628,4.5284087 L45.3628,4.2066587 C45.3628,2.41732174 46.700425,0.971354348 48.3417062,0.971354348 L52.1508625,0.971354348 C53.4897687,0.971354348 54.6108625,1.93660435 54.9901125,3.25412609 C55.0759562,3.55425652 55.1182375,3.87473478 55.1182375,4.2066587 L55.1182375,6.32791957 L55.1951125,6.46653913 C54.7748625,6.73487609 54.4173937,7.12148478 54.1688312,7.60347391 L53.0579875,9.80866957 C52.9708625,9.9918 52.9068,10.172387 52.8632375,10.3555174 C52.6813,10.3784087 52.3238312,10.4318217 52.1508625,10.4318217 L48.3417062,10.4318217 C46.700425,10.4318217 45.3628,8.98585435 45.3628,7.2066913 L45.3628,4.5284087 Z" id="Fill-166" fill="#8ED2F4"></path>
            <path d="M39.0930031,73.3662489 C39.0930031,74.1585424 38.4562219,74.8007707 37.6580031,74.8007707 C36.8585031,74.8007707 36.2217219,74.1585424 36.2217219,73.3662489 C36.2217219,72.5828576 36.8585031,71.9406293 37.6580031,71.9406293 C38.4562219,71.9406293 39.0930031,72.5828576 39.0930031,73.3662489" id="Fill-168" fill="#FEFEFE"></path>
            <path d="M37.657875,64.6230424 C38.4560938,64.6230424 39.092875,65.2550967 39.092875,66.048662 C39.092875,66.8409554 38.4560938,67.471738 37.657875,67.471738 C36.858375,67.471738 36.2215938,66.8409554 36.2215938,66.048662 C36.2215938,65.2550967 36.858375,64.6230424 37.657875,64.6230424" id="Fill-170" fill="#FEFEFE"></path>
            <path d="M13.1038719,73.279262 C13.1038719,73.279262 14.2044656,75.3700011 16.7951531,77.6502293 L16.7400594,77.7049141 C13.3742156,76.8897293 10.6746219,75.560762 10.6746219,75.560762 L11.1948094,72.572175 C12.2608094,73.1737076 13.1038719,73.279262 13.1038719,73.279262" id="Fill-172" fill="#DA9AB6"></path>
            <path d="M56.6738031,75.560762 C56.6738031,75.560762 60.2779594,75.9130337 63.4195844,73.8044902 L63.4298344,73.8159359 C64.0986469,76.2246098 64.2280531,77.4264033 64.2280531,77.4264033 C60.8506781,78.4743163 54.0293031,79.4179467 52.2470844,79.6430446 C55.1414281,77.6171641 56.6738031,75.560762 56.6738031,75.560762" id="Fill-174" fill="#DA9AB6"></path>
            <path d="M43.3233062,70.6017424 C41.9728687,73.8154272 41.3053375,78.9036554 41.3053375,78.9036554 C38.3264312,77.8328511 36.8478687,79.3118837 36.8478687,79.3118837 C35.9087125,78.2385359 33.6088687,78.7752098 33.6088687,78.7752098 L30.7709,70.0663402 C30.7709,70.0663402 33.20015,68.7373728 31.7305562,63.0170902 C35.1412437,63.5003511 38.0663375,61.0993076 38.0663375,61.0993076 C38.0663375,61.0993076 40.14965,63.5003511 42.8697437,63.6707641 C42.6544937,64.3892967 41.9203375,67.3448185 43.3233062,70.6017424 M37.6576187,74.801025 C38.4558375,74.801025 39.0926187,74.1587967 39.0926187,73.3665033 C39.0926187,72.583112 38.4558375,71.9408837 37.6576187,71.9408837 C36.8581187,71.9408837 36.2213375,72.583112 36.2213375,73.3665033 C36.2213375,74.1587967 36.8581187,74.801025 37.6576187,74.801025 M37.6576187,64.6232967 C36.8581187,64.6232967 36.2213375,65.2553511 36.2213375,66.0489163 C36.2213375,66.8412098 36.8581187,67.4719924 37.6576187,67.4719924 C38.4558375,67.4719924 39.0926187,66.8412098 39.0926187,66.0489163 C39.0926187,65.2553511 38.4558375,64.6232967 37.6576187,64.6232967" id="Fill-176" fill="#F6C8DC"></path>
            <path d="M43.3233062,70.6017424 C41.9728687,73.8154272 41.3053375,78.9036554 41.3053375,78.9036554 C38.3264312,77.8328511 36.8478687,79.3118837 36.8478687,79.3118837 C35.9087125,78.2385359 33.6088687,78.7752098 33.6088687,78.7752098 L30.7709,70.0663402 C30.7709,70.0663402 33.20015,68.7373728 31.7305562,63.0170902 C35.1412437,63.5003511 38.0663375,61.0993076 38.0663375,61.0993076 C38.0663375,61.0993076 40.14965,63.5003511 42.8697437,63.6707641 C42.6544937,64.3892967 41.9203375,67.3448185 43.3233062,70.6017424 M37.6576187,74.801025 C38.4558375,74.801025 39.0926187,74.1587967 39.0926187,73.3665033 C39.0926187,72.583112 38.4558375,71.9408837 37.6576187,71.9408837 C36.8581187,71.9408837 36.2213375,72.583112 36.2213375,73.3665033 C36.2213375,74.1587967 36.8581187,74.801025 37.6576187,74.801025 M37.6576187,64.6232967 C36.8581187,64.6232967 36.2213375,65.2553511 36.2213375,66.0489163 C36.2213375,66.8412098 36.8581187,67.4719924 37.6576187,67.4719924 C38.4558375,67.4719924 39.0926187,66.8412098 39.0926187,66.0489163 C39.0926187,65.2553511 38.4558375,64.6232967 37.6576187,64.6232967" id="Fill-178" fill="#EBB5CD"></path>
            <path d="M49.7345531,57.3837946 C51.0491156,57.3163924 52.1189594,57.6076207 52.7224281,57.6076207 C54.1048969,57.6076207 58.7238031,57.1688707 61.3247406,53.408338 L61.4003344,53.4617511 C65.5887406,54.2642185 68.1448344,59.3537185 68.0064594,63.9065446 C67.8322094,69.3266967 65.7488969,72.250425 63.4195844,73.8044902 C60.2779594,75.9130337 56.6738031,75.560762 56.6738031,75.560762 C51.2771781,70.0668489 43.3231781,70.6022511 43.3231781,70.6022511 C41.9202094,67.3453272 42.6543656,64.3898054 42.8696156,63.6700011 C43.6153031,63.7234141 44.4032719,63.616588 45.2117406,63.241425 C48.8812406,61.539838 48.2021781,58.2282293 48.0599594,57.6826533 C48.6544594,57.4906207 49.2053969,57.4143163 49.7345531,57.3837946" id="Fill-180" fill="#F6C8DC"></path>
            <path d="M38.0782531,61.0462761 C40.3755344,61.1950696 43.1507219,60.6596674 46.2475031,58.5485804 C46.8727531,58.1327217 47.4775031,57.8529391 48.0604719,57.6825261 C48.2014094,58.2281022 48.8817531,61.5397109 45.2109719,63.2425696 C44.4037844,63.6164609 43.6145344,63.723287 42.8688469,63.6698739 C40.1500344,63.5007326 38.0667219,61.0996891 38.0667219,61.0996891 L38.0782531,61.0462761 Z" id="Fill-182" fill="#FEFEFE"></path>
            <path d="M26.9185656,56.6647533 C28.6764406,57.2650141 30.3933156,58.2277207 31.4080656,58.679188 C32.2818781,59.0759707 34.6688469,60.8220685 38.0782531,61.0458946 L38.0667219,61.0993076 C38.0667219,61.0993076 35.1416281,63.5003511 31.7309406,63.0170902 C31.2030656,62.9522315 30.6521281,62.803438 30.1024719,62.5656228 C26.0550031,60.8220685 26.8634719,56.8148185 26.8634719,56.8148185 L26.9185656,56.6647533 Z" id="Fill-184" fill="#FEFEFE"></path>
            <path d="M26.1841531,56.4399098 C26.4314344,56.5034967 26.6710281,56.5785293 26.9183094,56.6650076 L26.8632156,56.8150728 C26.8632156,56.8150728 26.0547469,60.8210511 30.1034969,62.5646054 C30.6518719,62.8036924 31.2028094,62.9524859 31.7306844,63.0173446 C33.2002781,68.7376272 30.7710281,70.0665946 30.7710281,70.0665946 C20.9284656,68.9932467 13.1038719,73.2790076 13.1038719,73.2790076 C13.1038719,73.2790076 12.2608094,73.1734533 11.1948094,72.5731924 C9.40234063,71.5875946 6.98462188,69.2412359 6.89749688,63.7778446 C6.77834063,55.7429967 13.1999656,52.7226163 14.1942156,52.3042141 C18.2519344,56.1296054 22.1584656,55.999888 24.5223719,56.1397793 C25.0630594,56.1715728 25.6242469,56.2783989 26.1841531,56.4399098" id="Fill-186" fill="#F6C8DC"></path>
            <path d="M63.1388625,47.6333707 L63.1388625,47.646088 C62.997925,50.1297946 62.3086125,52.004338 61.3246125,53.408338 C58.723675,57.1688707 54.1047687,57.6076207 52.7223,57.6076207 C52.1188312,57.6076207 51.0489875,57.3163924 49.734425,57.3837946 C46.7119562,42.9978815 61.8114875,39.0008054 61.8114875,39.0008054 L61.8422375,38.9906315 L62.4367375,41.1424141 C63.0402062,43.6719033 63.2349562,45.813512 63.1388625,47.6333707" id="Fill-188" fill="#FEEFC2"></path>
            <path d="M12.0253156,38.6045315 C12.0253156,38.6045315 25.5796594,42.4820641 26.1946594,56.4076076 L26.1844094,56.4394011 C25.6232219,56.2778902 25.0633156,56.1710641 24.5226281,56.1392707 C22.1587219,56.0006511 18.2509094,56.1290967 14.1931906,52.3037054 C14.0855656,52.208325 13.9779406,52.1014989 13.8703156,51.9934011 C8.60437813,46.2311511 11.8408156,39.2683793 11.8408156,39.2683793 L12.0253156,38.6045315 Z" id="Fill-190" fill="#FEEFC2"></path>
            <path d="M40.4843125,46.7665533 C40.4843125,46.7665533 40.7649062,53.1939228 36.848125,53.7305967 C32.9300625,54.2647272 32.8006562,46.7665533 32.8006562,46.7665533 L40.4843125,46.7665533 Z" id="Fill-192" fill="#E50113"></path>
            <path d="M23.8957125,31.1901652 C28.30065,29.670437 30.3724313,32.7989152 29.7459,33.1524587 C29.1091188,33.5060022 27.9431813,32.8841217 27.9431813,32.8841217 C26.4120875,31.0095783 23.8957125,31.1901652 23.8957125,31.1901652" id="Fill-194" fill="#F7B62D"></path>
            <path d="M51.6001813,31.1901652 C51.6001813,31.1901652 49.0748375,31.0095783 47.5539938,32.8841217 C47.5539938,32.8841217 46.3778063,33.5060022 45.7525563,33.1524587 C45.1247438,32.7989152 47.1875563,29.670437 51.6001813,31.1901652" id="Fill-196" fill="#F7B62D"></path>
            <path d="M55.1186219,6.32791957 L55.1186219,4.2066587 C55.1186219,3.87473478 55.0763406,3.55425652 54.9892156,3.25412609 C56.2307469,2.46183261 63.3109344,-1.44876522 72.6025594,4.86033261 C82.8551219,11.8231043 78.6679969,25.2145174 76.3809656,31.3633761 C74.0811219,37.5338543 73.4020594,40.8759848 74.7614656,42.073963 C76.1003719,43.2846587 78.1183406,43.5542674 79.8659656,40.7691587 C79.7263094,41.4635283 76.5962156,55.4539304 63.1392469,47.6454522 L63.1392469,47.6327348 C63.2353406,45.8141478 63.0405906,43.6712674 62.4371219,41.1417783 L61.8426219,38.9912674 L61.8118719,38.8628217 C66.7959344,38.0692565 67.7453406,33.3778109 65.8465281,30.5698109 C64.8215281,29.028463 63.3314344,28.8885717 62.2090594,29.0818761 C62.9649969,19.2894848 59.9322781,14.7900717 59.5543094,14.2762891 C59.8361844,14.0397457 60.0719344,13.740887 60.2449031,13.3886152 L61.3570281,11.1796043 C62.0271219,9.86208261 61.5825281,8.31056087 60.3755906,7.7103 L57.5696531,6.3063 C56.8021844,5.93113696 55.9168406,6.01761522 55.1954969,6.46653913 L55.1186219,6.32791957 Z" id="Fill-198" fill="#FCD04E"></path>
            <path d="M10.4062,28.020737 C10.4062,28.020737 11.8732312,-1.9427087 45.3625437,4.5279 L45.3625437,7.20745435 C45.3625437,8.98534565 46.7001687,10.431313 48.34145,10.431313 L52.1506062,10.431313 C52.323575,10.431313 52.6810437,10.3779 52.8642625,10.3550087 C52.528575,11.5224652 52.9936687,12.7662261 54.0507,13.2812804 L56.8566375,14.6840087 C57.7419812,15.1240304 58.7990125,14.9307261 59.5536687,14.2757804 C59.9316375,14.7908348 62.9643562,19.2902478 62.2097,29.0813674 L62.2097,29.092813 C61.2807937,29.2428783 60.5914812,29.6282152 60.5914812,29.6282152 C60.451825,24.6786065 56.5440125,22.5369978 56.5440125,22.5369978 C53.8457,29.092813 47.3702625,29.7566609 45.8801687,30.0351717 C44.4028875,30.2907913 43.7225437,30.4319543 45.4804187,28.5574109 C47.2408562,26.6815957 47.9096687,22.6641717 47.9096687,22.6641717 C44.6706687,28.5574109 37.7865125,28.6858565 35.7685437,28.9643674 C33.7492937,29.2187152 34.6897312,28.4276935 34.6897312,28.4276935 C40.0837937,23.0711283 38.865325,21.0579652 38.865325,21.0579652 C31.9914187,27.2157261 18.4998562,31.3628674 14.993075,31.8995413 C11.4850125,32.4362152 12.164075,28.4276935 12.164075,28.4276935 C12.164075,28.4276935 11.4427312,28.127563 10.4382312,28.2127696 L10.4062,28.020737 Z" id="Fill-200" fill="#F7B62D"></path>
            <path d="M44.4456812,102.81375 C48.0395875,103.326261 52.1075562,102.395348 55.4657125,97.6504891 C55.4657125,97.6504891 58.0858687,98.2291304 61.3902125,97.8209022 L61.4004625,97.9175543 C61.4004625,97.9175543 61.3030875,99.5771739 60.6765562,101.901913 C59.4901187,102.481826 52.7020562,105.587413 45.4809312,104.611989 L45.4284,104.645054 C45.105525,104.067685 44.7685562,103.455978 44.4456812,102.81375" id="Fill-202" fill="#FCE2AE"></path>
            <path d="M15.2635469,101.806533 C14.2052344,98.2393043 13.9131094,95.2392717 13.9131094,95.2392717 L13.9131094,95.1324457 C14.5601406,95.1019239 15.2404844,95.0485109 15.9413281,94.9722065 C15.9413281,94.9722065 21.9542344,104.494989 32.7910469,100.070609 C31.9812969,101.646293 31.0857031,103.197815 30.2208594,104.633609 C22.5474531,105.609033 15.6504844,102.010011 15.2737969,101.817978 C15.2737969,101.806533 15.2635469,101.806533 15.2635469,101.806533" id="Fill-204" fill="#FCE2AE"></path>
            <path d="M37.4738875,90.7296848 C37.040825,91.0514348 36.4809188,91.2765326 35.7685438,91.3515652 C35.6173563,91.3617391 35.4661688,91.3706413 35.32395,91.3706413 C30.6102313,91.3706413 30.1028563,83.1882717 30.1028563,83.1882717 C27.71845,82.9542717 25.6236063,82.4481196 23.7888563,81.7753696 C20.7663875,80.6715 18.467825,79.1174348 16.7945125,77.6498478 C14.2051063,75.3696196 13.1032313,73.2788804 13.1032313,73.2788804 C13.1032313,73.2788804 20.9291063,68.9931196 30.7716688,70.0664674 L33.6083563,78.775337 C33.6083563,78.775337 35.9082,78.238663 36.8486375,79.3107391 C34.8293875,81.5820652 38.0671063,82.782587 38.0671063,82.782587 C38.0671063,82.782587 40.16195,88.7266957 37.4738875,90.7296848" id="Fill-206" fill="#FEEFC2"></path>
            <path d="M44.0140281,83.7028174 C44.3907156,85.1271652 45.2017469,89.1127957 42.7827469,90.4188717 C40.1395281,91.8546652 37.9255281,90.9453717 37.4745281,90.7291761 C40.1613094,88.726187 38.0664656,82.7820783 38.0664656,82.7820783 C38.0664656,82.7820783 34.8287469,81.5815565 36.8479969,79.3115022 C36.8479969,79.3115022 38.3265594,77.8324696 41.3054656,78.9045457 C41.3054656,78.9045457 41.9729969,73.8163174 43.3234344,70.6013609 C43.3234344,70.6013609 51.2774344,70.0659587 56.6740594,75.5611435 C56.6740594,75.5611435 55.1416844,77.6175457 52.2473406,79.6434261 C50.1435281,81.1097413 47.3273406,82.5671543 43.8628406,83.1890348 C43.8628406,83.1890348 43.9281844,83.3797957 44.0140281,83.7028174" id="Fill-208" fill="#FEEFC2"></path>
            <path d="M36.8482531,53.730088 C40.7650344,53.1934141 40.4844406,46.7660446 40.4844406,46.7660446 L32.8007844,46.7660446 C32.8007844,46.7660446 32.9289094,54.2642185 36.8482531,53.730088 M23.8960969,31.1897837 C23.8960969,31.1897837 26.4111906,31.0104685 27.9435656,32.8837402 C27.9435656,32.8837402 29.1095031,33.5068924 29.7462844,33.1520772 C30.3715344,32.7985337 28.2997531,29.6700554 23.8960969,31.1897837 M25.6988156,34.4912185 C25.1376281,34.4912185 24.6200031,34.6527293 24.1766906,34.9197946 L22.1702531,34.0410228 L23.3361906,35.6701207 C23.2490656,35.7769467 23.1837219,35.8952185 23.1196594,36.0122185 L20.7467844,36.5272728 L22.7634719,37.1059141 C22.7532219,37.2127402 22.7301594,37.3182946 22.7301594,37.437838 C22.7301594,39.0656641 24.0588156,40.3831859 25.6988156,40.3831859 C27.3400969,40.3831859 28.6661906,39.0656641 28.6661906,37.437838 C28.6661906,35.8087402 27.3400969,34.4912185 25.6988156,34.4912185 M14.9926906,31.8994141 C18.5007531,31.3627402 31.9910344,27.2155989 38.8649406,21.0591098 C38.8649406,21.0591098 40.0834094,23.0722728 34.6893469,28.4275663 C34.6893469,28.4275663 33.7489094,29.2198598 35.7681594,28.9642402 C37.7861281,28.6870011 44.6702844,28.5572837 47.9105656,22.6640446 C47.9105656,22.6640446 47.2404719,26.6814685 45.4800344,28.5572837 C43.7221594,30.4318272 44.4025031,30.2906641 45.8810656,30.0350446 C47.3698781,29.7565337 53.8465969,29.0926859 56.5436281,22.5381424 C56.5436281,22.5381424 60.4514406,24.6784793 60.5910969,29.628088 C60.5910969,29.628088 61.2804094,29.2427511 62.2093156,29.0926859 L62.2093156,29.0812402 C63.3316906,28.8892076 64.8217844,29.0278272 65.8467844,30.5704467 C67.7455969,33.377175 66.7961906,38.0698924 61.8108469,38.8634576 L61.8428781,38.9906315 L61.8108469,39.0008054 C61.8108469,39.0008054 46.7113156,42.9991533 49.7350656,57.3837946 C49.2059094,57.4143163 48.6549719,57.4906207 48.0604719,57.6826533 C47.4775031,57.8530663 46.8727531,58.1328489 46.2475031,58.5487076 C43.1507219,60.6597946 40.3755344,61.1951967 38.0782531,61.0464033 C34.6688469,60.8213054 32.2818781,59.0752076 31.4080656,58.6796967 C30.3933156,58.2282293 28.6764406,57.2642511 26.9185656,56.665262 C26.6712844,56.5787837 26.4316906,56.5037511 26.1844094,56.4401641 L26.1946594,56.4070989 C25.5796594,42.4815554 12.0253156,38.6040228 12.0253156,38.6040228 L11.2155656,38.3267837 C6.76834688,37.7913815 5.27953438,32.436088 7.43844063,29.896425 C8.44037813,28.6946315 9.55378438,28.3080228 10.4391281,28.2139141 C11.4423469,28.1274359 12.1636906,28.4275663 12.1636906,28.4275663 C12.1636906,28.4275663 11.4846281,32.436088 14.9926906,31.8994141 M51.6005656,31.1897837 C47.1866594,29.6700554 45.1251281,32.7985337 45.7516594,33.1520772 C46.3769094,33.5068924 47.5530969,32.8837402 47.5530969,32.8837402 C49.0752219,31.0104685 51.6005656,31.1897837 51.6005656,31.1897837 M49.7978469,34.4912185 C48.1578469,34.4912185 46.8304719,35.8087402 46.8304719,37.437838 C46.8304719,39.0656641 48.1578469,40.3831859 49.7978469,40.3831859 C51.4378469,40.3831859 52.7665031,39.0656641 52.7665031,37.437838 C52.7665031,37.3182946 52.7447219,37.2127402 52.7319094,37.1059141 L54.7421906,36.5272728 L52.3770031,36.0122185 C52.3129406,35.8952185 52.2373469,35.7769467 52.1617531,35.6701207 L53.3264094,34.0410228 L51.3199719,34.9197946 C50.8664094,34.6527293 50.3590344,34.4912185 49.7978469,34.4912185" id="Fill-210" fill="#FEEFC2"></path>
            <path d="M39.2169,42.5812598 C39.0900562,42.5812598 38.965775,42.521488 38.8863375,42.4121185 C38.0881187,41.2993467 37.2694,40.7346946 36.4724625,40.7753902 C35.1950562,40.8148141 34.2635875,42.2862163 34.2546187,42.3027489 C34.1367437,42.4896946 33.8881812,42.5469228 33.6985562,42.4324663 C33.50765,42.3180098 33.4474312,42.0700207 33.5665875,41.8805315 C33.6114312,41.8067707 34.7286812,40.0288793 36.4417125,39.9703793 C37.530775,39.9080641 38.5801187,40.5986185 39.5461812,41.9453902 C39.6755875,42.1272489 39.632025,42.3765098 39.4513687,42.5087707 C39.3796187,42.555825 39.2976187,42.5812598 39.2169,42.5812598" id="Fill-212" fill="#F9CDA5"></path>
            <path d="M15.7877062,31.7503663 C15.4866125,31.815225 15.21755,31.8635511 14.9933312,31.8991598 C11.4852687,32.4358337 12.1643312,28.4285837 12.1643312,28.4285837 C12.1643312,28.4285837 11.4417062,28.1271815 10.4384875,28.2136598 C9.554425,28.3077685 8.44101875,28.6956489 7.4378,29.8961707 C5.280175,32.4358337 6.7689875,37.7911272 11.2162062,38.3265293 L12.024675,38.6050402 C12.024675,38.6050402 13.8350812,39.1264533 16.1592687,40.4617793 C15.6288312,38.0823554 15.4238312,35.1993228 15.7877062,31.7503663" id="Fill-214" fill="#FCE2AE"></path>
            <path d="M37.7228344,24.8525804 C39.5127406,22.1526783 38.8657094,21.0589826 38.8657094,21.0589826 C33.9085531,25.4986239 25.5278969,28.8839935 19.9147406,30.6339065 C23.9212094,30.2943522 30.5029906,29.0442326 37.7228344,24.8525804" id="Fill-216" fill="#FCE2AE"></path>
            <path d="M46.8092031,26.3926565 C47.5882031,24.586787 47.9097969,22.6639174 47.9097969,22.6639174 C45.2140469,27.5715587 40.0006406,28.4795804 37.1626719,28.8051457 C38.6988906,28.9513957 43.0500156,29.0671239 46.8092031,26.3926565" id="Fill-218" fill="#FCE2AE"></path>
            <path d="M49.336725,53.5511543 C43.4929438,56.404937 34.97135,58.1459478 25.6835688,52.6749261 C25.9551938,53.830937 26.13585,55.0708826 26.1947875,56.4074804 L26.1845375,56.4392739 C26.4318188,56.5028609 26.6714125,56.5791652 26.9186938,56.6643717 C28.6765688,57.2646326 30.3934438,58.2286109 31.4081938,58.6788065 C32.280725,59.0755891 34.668975,60.821687 38.0783813,61.0467848 C40.3756625,61.1955783 43.15085,60.6601761 46.2476313,58.5490891 C46.8728813,58.1332304 47.4776313,57.8534478 48.0606,57.6830348 C48.6551,57.4910022 49.2047563,57.4146978 49.7351938,57.3841761 C49.4469125,56.0132413 49.3239125,54.7389587 49.336725,53.5511543" id="Fill-220" fill="#FCE2AE"></path>
            <path d="M65.8465281,30.5704467 C64.8215281,29.0278272 63.3314344,28.8892076 62.2090594,29.0812402 L62.2090594,29.0926859 C61.2814344,29.2427511 60.5908406,29.628088 60.5908406,29.628088 C60.4511844,24.6784793 56.5433719,22.5381424 56.5433719,22.5381424 C55.1186219,25.9985446 52.6445281,27.8082293 50.4049031,28.7950989 C52.6048094,28.2266315 55.1519344,27.7751641 55.6452156,28.5585554 C56.1859031,29.4169793 57.7054656,35.2618924 57.9642781,40.596838 C60.1078094,39.4548163 61.8118719,39.0008054 61.8118719,39.0008054 L61.8426219,38.9906315 L61.8118719,38.8634576 C66.7959344,38.0686207 67.7453406,33.377175 65.8465281,30.5704467" id="Fill-222" fill="#FCE2AE"></path>
            <path d="M38.0669781,82.782587 C38.0669781,82.782587 37.8235406,82.68975 37.5134781,82.5117065 C37.4032906,84.4663696 38.3181031,87.89625 35.8568219,88.9021957 C32.7997594,90.1523152 31.0008844,83.9042609 30.2821031,82.2967826 C29.5633219,80.6905761 25.4261656,80.5112609 20.9289781,75.6913696 C18.7867281,73.3946087 20.5638219,71.5455 23.0110094,70.2381522 C17.1236656,71.0914891 13.1043844,73.2788804 13.1043844,73.2788804 C13.1043844,73.2788804 14.2049781,75.3696196 16.7943844,77.6498478 C18.4676969,79.1174348 20.7662594,80.6715 23.7887281,81.7753696 C25.6234781,82.4481196 27.7183219,82.9542717 30.1027281,83.1882717 C30.1027281,83.1882717 30.6101031,91.3706413 35.3238219,91.3706413 C35.4660406,91.3706413 35.6172281,91.3617391 35.7684156,91.3515652 C36.4807906,91.2765326 37.0406969,91.0514348 37.4737594,90.7296848 C40.1618219,88.7266957 38.0669781,82.782587 38.0669781,82.782587" id="Fill-224" fill="#FCE2AE"></path>
            <path d="M41.3050813,78.904037 C38.326175,77.8319609 36.8476125,79.3109935 36.8476125,79.3109935 C35.538175,80.7836674 36.440175,81.8023304 37.2358313,82.3402761 C37.8572375,80.1058304 39.5958938,78.4245913 41.3050813,78.904037" id="Fill-226" fill="#FCE2AE"></path>
            <path d="M38.916575,88.3662848 C38.8602,88.3154152 38.8217625,88.2594587 38.7692313,88.2085891 C38.6270125,89.2196217 38.2592938,90.1454478 37.4738875,90.7291761 C37.9261688,90.9453717 40.1388875,91.8546652 42.7833875,90.4188717 C45.2011063,89.1127957 44.390075,85.1271652 44.0146688,83.7028174 C43.9275438,83.3797957 43.8622,83.1890348 43.8622,83.1890348 C43.95445,85.8673174 43.0537313,92.1153717 38.916575,88.3662848" id="Fill-228" fill="#FCE2AE"></path>
            <path d="M48.8249938,71.2189174 C51.4208063,72.5377109 53.9576813,74.2151348 53.305525,75.5123087 C52.0486188,78.0112761 43.773025,80.5102435 43.8627125,83.1885261 C47.3272125,82.5679174 50.1434,81.1092326 52.2472125,79.6429174 C55.1415563,77.617037 56.6739313,75.5606348 56.6739313,75.5606348 C54.2549313,73.0972761 51.3247125,71.8522435 48.8249938,71.2189174" id="Fill-230" fill="#FCE2AE"></path>
            <path d="M30.1029844,69.9782087 C29.5943281,70.2274696 27.8146719,69.645013 27.2560469,69.5788826 C25.3405781,69.3410674 23.3892344,69.1083391 21.4558281,69.099437 C18.4705156,69.0854478 15.0406094,70.006187 13.3544844,66.8090348 C11.9566406,64.1549152 11.2199219,59.0310783 14.8112656,57.6576 C19.0650156,56.0348609 24.7896406,57.0713283 26.8780781,58.6114043 C26.7089531,57.594013 26.8639844,56.814437 26.8639844,56.814437 L26.9190781,56.6643717 C26.6705156,56.5791652 26.4322031,56.5028609 26.1836406,56.4392739 C25.6237344,56.2790348 25.0625469,56.1722087 24.5231406,56.1391435 C22.1592344,56.0005239 18.2514219,56.1289696 14.1937031,52.30485 C13.2007344,52.7232522 6.77910938,55.7436326 6.89826563,63.7772087 C6.98410938,69.2418717 9.40310938,71.5882304 11.1942969,72.5725565 C12.2602969,73.1740891 13.1033594,73.2796435 13.1033594,73.2796435 C13.1033594,73.2796435 20.9292344,68.9938826 30.7705156,70.0659587 C30.7705156,70.0659587 31.1689844,69.8421326 31.5456719,69.2024478 C31.1100469,69.4567957 30.6411094,69.713687 30.1029844,69.9782087" id="Fill-232" fill="#EBB5CD"></path>
            <path d="M61.400975,53.4617511 L61.3241,53.408338 C58.7231625,57.1688707 54.1055375,57.6076207 52.7230688,57.6076207 C52.1196,57.6076207 51.0497563,57.3163924 49.7351938,57.3837946 C49.2047563,57.4143163 48.6551,57.4906207 48.0606,57.6826533 C48.1426,58.0031315 48.403975,59.2748707 47.870975,60.6152837 C49.2982875,60.4486859 52.6602875,60.0353707 54.7461625,59.6220554 C57.444475,59.087925 66.0775375,58.1926207 64.8180688,66.4067837 C63.5598813,74.6209467 49.1676,65.5127511 43.3238188,70.6022511 C43.3238188,70.6022511 51.2778188,70.0668489 56.6744438,75.560762 C56.6744438,75.560762 60.2786,75.9130337 63.4189438,73.8044902 C65.7495375,72.250425 67.83285,69.3266967 68.0058188,63.9065446 C68.145475,59.3537185 65.5893813,54.2642185 61.400975,53.4617511" id="Fill-234" fill="#EBB5CD"></path>
            <path d="M42.8691031,63.6705098 C40.7089156,67.8990424 42.1528844,70.6917815 42.1528844,70.6917815 C41.0740719,74.7969554 39.8146031,76.7630641 36.5781656,76.7630641 C33.3404469,76.7630641 32.8010406,71.7625859 32.8010406,71.7625859 C33.6171969,69.7354337 32.5793844,65.1508141 32.0271656,63.0448141 C31.9272281,63.0346402 31.8311344,63.030825 31.7311969,63.0168359 C33.1995094,68.7371185 30.7715406,70.0660859 30.7715406,70.0660859 L33.6082281,78.7749554 C33.6082281,78.7749554 35.9080719,78.2382815 36.8485094,79.3116293 C36.8485094,79.3116293 38.3257906,77.8325967 41.3046969,78.9046728 C41.3046969,78.9046728 41.9735094,73.8164446 43.3226656,70.601488 C41.9209781,67.3458359 42.6538531,64.3890424 42.8691031,63.6705098" id="Fill-236" fill="#DA9AB6"></path>
            <path d="M48.3419625,10.431313 C46.7006812,10.431313 45.3630562,8.98534565 45.3630562,7.20745435 L45.3630562,4.5279 C45.2989937,4.51645435 45.2400562,4.51136739 45.177275,4.49865 C45.1939312,4.71993261 45.218275,4.93612826 45.2118687,5.16758478 C44.8505562,16.4173891 52.8634937,10.3550087 52.8634937,10.3550087 C52.6815562,10.3779 52.3228062,10.431313 52.1511187,10.431313 L48.3419625,10.431313 Z" id="Fill-238" fill="#F4A21B"></path>
            <path d="M59.5541812,14.2762891 C58.7982437,14.9312348 57.7424937,15.1245391 56.85715,14.6832457 L54.0512125,13.2817891 C52.9941812,12.7667348 52.5290875,11.5229739 52.8634937,10.3555174 C50.6213062,14.1147783 53.8462125,16.2385826 48.2702125,19.0949087 C42.6954937,21.9486913 39.2771187,18.9168652 39.2771187,18.9168652 C18.2735875,29.1174848 12.7065562,26.0233435 11.5226812,22.0873109 C10.5361187,25.5019304 10.4067125,28.0212457 10.4067125,28.0212457 L10.4387437,28.2132783 C11.4419625,28.1280717 12.1645875,28.4282022 12.1645875,28.4282022 C12.1645875,28.4282022 11.4842437,32.4354522 14.9935875,31.8987783 C18.5003687,31.3633761 31.99065,27.2162348 38.8658375,21.0584739 C38.8658375,21.0584739 40.0843062,23.071637 34.6902437,28.4282022 C34.6902437,28.4282022 33.748525,29.2192239 35.7690562,28.9648761 C37.787025,28.6863652 44.6711812,28.5566478 47.9101812,22.6646804 C47.9101812,22.6646804 47.2413687,26.6821043 45.4809312,28.5566478 C43.7230562,30.4311913 44.4034,30.2913 45.8806812,30.0356804 C47.3694937,29.7571696 53.8462125,29.09205 56.5432437,22.5375065 C56.5432437,22.5375065 60.4510562,24.6791152 60.5919937,29.6274522 C60.5919937,29.6274522 61.2813062,29.243387 62.2089312,29.09205 L62.2089312,29.0818761 C62.9648687,19.2894848 59.93215,14.7900717 59.5541812,14.2762891" id="Fill-240" fill="#F4A21B"></path>
            <path d="M42.6939562,11.7737609 C31.130675,14.8094022 22.9127375,11.3133913 19.404675,9.28115217 C15.8235812,12.3447717 13.664675,16.1816087 12.362925,19.5911413 C30.7757687,21.7060435 42.6939562,11.7737609 42.6939562,11.7737609" id="Fill-242" fill="#FCD04E"></path>
            <path d="M74.7614656,42.0744717 C73.4007781,40.8764935 74.0811219,37.534363 76.3809656,31.362613 C78.6679969,25.2137543 82.8551219,11.823613 72.6025594,4.85956957 C71.2200906,3.92102609 69.8952781,3.23301522 68.6242781,2.7027 C61.0866844,1.10921087 58.7022781,4.45515652 58.7022781,4.45515652 C62.4794031,1.95618913 70.3949656,5.34664565 72.9126219,8.0262 C75.4302781,10.7032109 75.4302781,15.343787 73.6314031,12.6667761 C71.8325281,9.98976522 69.4942469,9.81045 70.3949656,11.9533304 C71.2918406,14.0949391 70.5730594,18.7380587 69.8542781,22.3091022 C69.1342156,25.8788739 68.0566844,17.3098957 68.0566844,17.3098957 C67.5006219,10.8074935 64.0668719,9.27250435 61.5210281,9.04867826 C61.7465281,9.70743913 61.7144969,10.4755696 61.3570281,11.180113 L60.2449031,13.3878522 C60.0719344,13.7413957 59.8361844,14.0402543 59.5543094,14.2767978 C59.9322781,14.7905804 62.9649969,19.2899935 62.2090594,29.081113 C63.3314344,28.8890804 64.8215281,29.0277 65.8465281,30.5703196 C67.7453406,33.3770478 66.7959344,38.0697652 61.8118719,38.8633304 L61.8426219,38.9905043 L62.4371219,41.142287 C63.0405906,43.6717761 63.2353406,45.8133848 63.1392469,47.6332435 L63.1392469,47.6459609 C76.5962156,55.4544391 79.7263094,41.464037 79.8659656,40.7696674 C78.1183406,43.5547761 76.1003719,43.2838957 74.7614656,42.0744717" id="Fill-244" fill="#F7B62D"></path>
            <path d="M55.1186219,6.32791957 L55.1186219,4.2066587 C55.1186219,3.87473478 55.0763406,3.55425652 54.9892156,3.25412609 C54.6112469,1.93660435 53.4901531,0.971354348 52.1512469,0.971354348 L49.0096219,0.971354348 C50.8174656,1.58941957 52.5740594,2.9718 52.7662469,3.73993043 C53.1249969,5.16809348 54.0257156,8.0256913 49.8872781,8.20500652 C47.0339344,8.32709348 45.8923406,5.3118 45.4592781,3.42708261 C45.4029031,3.67761522 45.3631844,3.93577826 45.3631844,4.2066587 L45.3631844,4.5284087 L45.3631844,7.2066913 C45.3631844,8.98585435 46.7008094,10.4318217 48.3420906,10.4318217 L52.1512469,10.4318217 C52.3229344,10.4318217 52.6816844,10.3784087 52.8636219,10.3555174 C52.9059031,10.172387 52.9712469,9.9918 53.0583719,9.80866957 L54.1692156,7.60347391 C54.4177781,7.12148478 54.7739656,6.73487609 55.1954969,6.46653913 L55.1186219,6.32791957 Z" id="Fill-246" fill="#82C1E0"></path>
            <path d="M51.2310531,5.12205652 C50.8325844,5.80498043 49.7102094,5.90036087 48.7210844,5.33443696 C47.7319594,4.77105652 47.2489281,3.75748043 47.6448344,3.07455652 C48.0433031,2.38908913 49.1669594,2.2937087 50.1560844,2.85836087 C51.1464906,3.42428478 51.6295219,4.43786087 51.2310531,5.12205652" id="Fill-248" fill="#FEFEFE"></path>
            <path d="M59.5103625,9.99040109 C59.5103625,10.7292815 58.826175,11.3295424 57.9831125,11.3295424 C57.1362063,11.3295424 56.4533,10.7292815 56.4533,9.99040109 C56.4533,9.25024891 57.1362063,8.64998804 57.9831125,8.64998804 C58.826175,8.64998804 59.5103625,9.25024891 59.5103625,9.99040109" id="Fill-250" fill="#FEFEFE"></path>
            <path d="M64.8217844,79.974587 C58.4860031,82.6528696 51.1905656,83.649913 44.0142844,83.7033261 C44.3909719,85.1276739 45.2020031,89.1133043 42.7830031,90.4193804 C40.1385031,91.8551739 37.9257844,90.9458804 37.4735031,90.7296848 C37.0404406,91.0514348 36.4805344,91.2765326 35.7681594,91.3515652 C35.6169719,91.3617391 35.4657844,91.3706413 35.3248469,91.3706413 C30.6098469,91.3706413 30.1024719,83.1882717 30.1024719,83.1882717 C27.7180656,82.9542717 25.6232219,82.4481196 23.7897531,81.7753696 L23.7564406,81.8504022 C17.4360344,80.647337 12.1636906,79.1403261 10.3122844,78.5858478 C8.31353438,80.6727717 4.93615938,84.4091413 7.97784688,82.8334565 C12.1137219,80.6905761 17.5103469,79.4417283 17.1515969,81.7613804 C16.7915656,84.0810326 17.1515969,88.18875 18.7698156,84.9750652 C20.3880344,81.7613804 23.0876281,82.6528696 24.3458156,83.5469022 C25.5322531,84.38625 28.6380031,92.0319457 35.4580969,92.7695543 L35.4337531,92.5190217 C35.9744406,92.4770543 36.7457531,92.3028261 37.6580031,91.7597935 C37.6580031,91.7597935 44.3128156,94.6161196 45.9310344,88.9034674 C45.9310344,88.9034674 47.0111281,82.4735543 48.4486906,84.9750652 C49.8875344,87.4740326 55.1035031,93.3647283 54.2053469,88.9034674 C53.3059094,84.439663 55.8248469,83.9042609 56.9023781,84.9750652 C57.9824719,86.0458696 63.0177844,88.5461087 61.2189094,86.0458696 C59.4213156,83.5469022 62.1209094,81.2247065 64.6372844,83.3688587 C67.1549406,85.5117391 66.2657531,83.3663152 64.8217844,79.974587" id="Fill-252" fill="#6E4319"></path>
            <path d="M20.5736875,103.817152 C21.9266875,106.851522 24.9248125,114.512478 18.9490625,111.041902 C18.838875,110.977043 18.7299688,110.898196 18.6197813,110.826978 L18.0995938,111.04063 C18.0995938,111.04063 19.7190938,111.577304 21.058,112.913902 C21.058,112.913902 24.1663125,113.450576 25.5154688,111.704478 C25.5154688,111.704478 27.7807188,108.651033 30.2202188,104.633609 C26.6378438,105.088891 23.2335625,104.544587 20.5736875,103.817152" id="Fill-254" fill="#3F3A3A"></path>
            <path d="M50.9858219,104.651795 C49.2433219,104.83874 47.3791031,104.870534 45.4802906,104.612371 L45.4277594,104.645436 C48.1030094,109.392838 50.3375094,111.70486 50.3375094,111.70486 C51.6879469,113.450958 54.7949781,112.914284 54.7949781,112.914284 C56.1338844,111.576414 57.7533844,111.03974 57.7533844,111.03974 C52.1914781,113.045273 51.1549469,107.541186 50.9858219,104.651795" id="Fill-256" fill="#3F3A3A"></path>
            <g id="Group-260" transform="translate(14.375000, 110.461989)">
                <mask id="mask-4" fill="white">
                    <use xlink:href="#path-3"></use>
                </mask>
                <g id="Clip-259"></g>
                <path d="M11.1409813,1.24274348 C10.5618563,1.99179783 9.6637,2.31863478 8.82191875,2.44962391 C8.080075,3.68448261 6.57716875,5.24872174 3.8545125,4.6853413 C1.9377625,4.28983043 0.8512625,3.49117826 0.6565125,2.68108043 C0.4617625,3.1350913 0.37335625,3.6743087 0.48866875,4.32798261 C1.02679375,7.41449348 6.82316875,6.34241739 9.381825,5.2703413 C11.94945,4.19953696 12.4888563,2.45216739 11.1409813,1.24274348" id="Fill-258" fill="#6E4319" mask="url(#mask-4)"></path>
            </g>
            <path d="M59.6017156,111.777985 C60.4857781,112.623691 60.8419656,113.739007 59.7823719,114.790735 C58.5190594,116.043398 55.9744969,114.489333 54.0718406,112.983593 C53.0699031,113.030648 51.2787156,112.921278 50.3382781,111.704224 C48.9891219,112.91492 49.5298094,114.662289 52.0974344,115.731822 C54.6560906,116.803898 60.4511844,117.875974 60.9893094,114.789463 C61.2570906,113.263376 60.4678406,112.332463 59.6017156,111.777985" id="Fill-261" fill="#6E4319"></path>
            <path d="M51.757775,38.2331837 C51.0313063,38.2331837 50.4470563,37.6545424 50.4470563,36.934738 C50.4470563,36.2123902 51.0313063,35.6362924 51.757775,35.6362924 C52.4829625,35.6362924 53.0672125,36.2123902 53.0672125,36.934738 C53.0672125,37.6545424 52.4829625,38.2331837 51.757775,38.2331837" id="Fill-263" fill="#FEFEFE"></path>
            <path d="M26.2028594,36.729225 C26.2028594,37.4503011 25.6083594,38.040388 24.8831719,38.040388 C24.1656719,38.040388 23.5711719,37.4503011 23.5711719,36.729225 C23.5711719,36.0094207 24.1656719,35.4307793 24.8831719,35.4307793 C25.6083594,35.4307793 26.2028594,36.0094207 26.2028594,36.729225" id="Fill-265" fill="#FEFEFE"></path>
            <path d="M47.6787875,37.0322804 C47.6787875,37.7546283 48.2617563,38.3307261 48.988225,38.3307261 C49.7146938,38.3307261 50.2989438,37.7546283 50.2989438,37.0322804 C50.2989438,36.3099326 49.7146938,35.732563 48.988225,35.732563 C48.2617563,35.732563 47.6787875,36.3099326 47.6787875,37.0322804 M49.9350688,40.7750087 C48.0939125,40.7750087 46.6012563,39.2921609 46.6012563,37.4659435 C46.6012563,35.6359109 48.0939125,34.1556065 49.9350688,34.1556065 C50.5654438,34.1556065 51.1356,34.3374652 51.6442563,34.6375957 L53.897975,33.6519978 L52.5898188,35.479487 C52.6743813,35.5990304 52.7589438,35.732563 52.8306938,35.8648239 L55.4880063,36.4409217 L53.231725,37.0920522 C53.2445375,37.2128674 53.2688813,37.3324109 53.2688813,37.4659435 C53.2688813,39.2921609 51.7749438,40.7750087 49.9350688,40.7750087" id="Fill-267" fill="#3F3A3A"></path>
            <path d="M28.6277531,37.3315207 C28.6277531,39.1590098 27.1376594,40.6405859 25.2939406,40.6405859 C23.4527844,40.6405859 21.9601281,39.1590098 21.9601281,37.3315207 C21.9601281,37.1992598 21.9831906,37.0784446 21.9947219,36.9576293 L19.7307531,36.3090424 L22.3970344,35.7316728 C22.4687844,35.599412 22.5418156,35.4658793 22.6391906,35.3450641 L21.3297531,33.517575 L23.5834719,34.5031728 C24.0805969,34.2030424 24.6635656,34.0211837 25.2939406,34.0211837 C27.1376594,34.0211837 28.6277531,35.5027598 28.6277531,37.3315207 M24.8826594,35.4302707 C24.1664406,35.4302707 23.5719406,36.008912 23.5719406,36.7287163 C23.5719406,37.4510641 24.1664406,38.0411511 24.8826594,38.0411511 C25.6091281,38.0411511 26.2023469,37.4510641 26.2023469,36.7287163 C26.2023469,36.008912 25.6091281,35.4302707 24.8826594,35.4302707" id="Fill-269" fill="#3F3A3A"></path>
            <path d="M49.0301219,35.6972087 C48.3126219,35.6972087 47.7206844,36.27585 47.7206844,36.9956543 C47.7206844,37.7192739 48.3126219,38.3093609 49.0301219,38.3093609 C49.7553094,38.3093609 50.3498094,37.7192739 50.3498094,36.9956543 C50.3498094,36.27585 49.7553094,35.6972087 49.0301219,35.6972087" id="Fill-271" fill="#FEFEFE"></path>
        </g>
    </g>
</svg>