<?xml version="1.0" encoding="UTF-8"?>
<svg width="120px" height="120px" viewBox="0 0 120 120" version="1.1" xmlns="http://www.w3.org/2000/svg" xmlns:xlink="http://www.w3.org/1999/xlink">
    <!-- Generator: Sketch 51.1 (57501) - http://www.bohemiancoding.com/sketch -->
    <title>Display board2</title>
    <desc>Created with Sketch.</desc>
    <defs>
        <polygon id="path-1" points="0.3939 0.0006 119.1219 0.0006 119.1219 120 0.3939 120"></polygon>
        <path d="M20.142,0.246 C9.408,0.246 0.627,9.123 0.627,19.969 L0.627,98.029 C0.627,108.878 9.408,117.755 20.142,117.755 L97.374,117.755 C108.107,117.755 116.889,108.878 116.889,98.029 L116.889,19.969 C116.889,9.123 108.107,0.246 97.374,0.246 L20.142,0.246 Z" id="path-3"></path>
    </defs>
    <g id="Display-board2" stroke="none" stroke-width="1" fill="none" fill-rule="evenodd">
        <g id="Page-1">
            <g id="Group-6">
                <g id="Group-3">
                    <mask id="mask-2" fill="white">
                        <use xlink:href="#path-1"></use>
                    </mask>
                    <g id="Clip-2"></g>
                    <path d="M119.1219,99.8566 C119.1219,110.9356 110.1539,120.0006 99.1919,120.0006 L20.3229,120.0006 C9.3619,120.0006 0.3939,110.9356 0.3939,99.8566 L0.3939,20.1426 C0.3939,9.0636 9.3619,0.0006 20.3229,0.0006 L99.1919,0.0006 C110.1539,0.0006 119.1219,9.0636 119.1219,20.1426 L119.1219,99.8566 Z" id="Fill-1" fill="#D88B25" mask="url(#mask-2)"></path>
                </g>
                <path d="M117.8895,99.0294 C117.8895,109.8784 109.1075,118.7554 98.3735,118.7554 L21.1415,118.7554 C10.4085,118.7554 1.6265,109.8784 1.6265,99.0294 L1.6265,20.9694 C1.6265,10.1224 10.4085,1.2464 21.1415,1.2464 L98.3735,1.2464 C109.1075,1.2464 117.8895,10.1224 117.8895,20.9694 L117.8895,99.0294 Z" id="Fill-4" fill="#F4BC40"></path>
            </g>
            <g id="Group-35" transform="translate(1.000000, 1.000000)">
                <mask id="mask-4" fill="white">
                    <use xlink:href="#path-3"></use>
                </mask>
                <g id="Clip-8"></g>
                <polygon id="Fill-7" fill="#D88B25" mask="url(#mask-4)" points="-11 8.342 129.346 8.342 129.346 2.806 -11 2.806"></polygon>
                <polygon id="Fill-9" fill="#A05A05" mask="url(#mask-4)" points="-11 8.633 129.346 8.633 129.346 7.775 -11 7.775"></polygon>
                <polygon id="Fill-10" fill="#FFFFFF" opacity="0.5" mask="url(#mask-4)" points="-11 5.673 129.346 5.673 129.346 2.806 -11 2.806"></polygon>
                <polygon id="Fill-11" fill="#D88B25" mask="url(#mask-4)" points="-11 21.629 129.346 21.629 129.346 16.094 -11 16.094"></polygon>
                <polygon id="Fill-12" fill="#A05A05" mask="url(#mask-4)" points="-11 21.92 129.346 21.92 129.346 21.063 -11 21.063"></polygon>
                <polygon id="Fill-13" fill="#FFFFFF" opacity="0.5" mask="url(#mask-4)" points="-11 18.96 129.346 18.96 129.346 16.094 -11 16.094"></polygon>
                <polygon id="Fill-14" fill="#D88B25" mask="url(#mask-4)" points="-11 34.917 129.346 34.917 129.346 29.38 -11 29.38"></polygon>
                <polygon id="Fill-15" fill="#A05A05" mask="url(#mask-4)" points="-11 35.208 129.346 35.208 129.346 34.35 -11 34.35"></polygon>
                <polygon id="Fill-16" fill="#FFFFFF" opacity="0.5" mask="url(#mask-4)" points="-11 32.247 129.346 32.247 129.346 29.38 -11 29.38"></polygon>
                <polygon id="Fill-17" fill="#D88B25" mask="url(#mask-4)" points="-11 48.204 129.346 48.204 129.346 42.667 -11 42.667"></polygon>
                <polygon id="Fill-18" fill="#A05A05" mask="url(#mask-4)" points="-11 48.494 129.346 48.494 129.346 47.637 -11 47.637"></polygon>
                <polygon id="Fill-19" fill="#FFFFFF" opacity="0.5" mask="url(#mask-4)" points="-11 45.534 129.346 45.534 129.346 42.667 -11 42.667"></polygon>
                <polygon id="Fill-20" fill="#D88B25" mask="url(#mask-4)" points="-11 61.491 129.346 61.491 129.346 55.955 -11 55.955"></polygon>
                <polygon id="Fill-21" fill="#A05A05" mask="url(#mask-4)" points="-11 61.781 129.346 61.781 129.346 60.924 -11 60.924"></polygon>
                <polygon id="Fill-22" fill="#FFFFFF" opacity="0.5" mask="url(#mask-4)" points="-11 58.821 129.346 58.821 129.346 55.955 -11 55.955"></polygon>
                <polygon id="Fill-23" fill="#D88B25" mask="url(#mask-4)" points="-11 74.778 129.346 74.778 129.346 69.242 -11 69.242"></polygon>
                <polygon id="Fill-24" fill="#A05A05" mask="url(#mask-4)" points="-11 75.069 129.346 75.069 129.346 74.211 -11 74.211"></polygon>
                <polygon id="Fill-25" fill="#FFFFFF" opacity="0.5" mask="url(#mask-4)" points="-11 72.109 129.346 72.109 129.346 69.243 -11 69.243"></polygon>
                <polygon id="Fill-26" fill="#D88B25" mask="url(#mask-4)" points="-11 88.066 129.346 88.066 129.346 82.53 -11 82.53"></polygon>
                <polygon id="Fill-27" fill="#A05A05" mask="url(#mask-4)" points="-11 88.356 129.346 88.356 129.346 87.499 -11 87.499"></polygon>
                <polygon id="Fill-28" fill="#FFFFFF" opacity="0.5" mask="url(#mask-4)" points="-11 85.397 129.346 85.397 129.346 82.53 -11 82.53"></polygon>
                <polygon id="Fill-29" fill="#D88B25" mask="url(#mask-4)" points="-11 101.353 129.346 101.353 129.346 95.817 -11 95.817"></polygon>
                <polygon id="Fill-30" fill="#A05A05" mask="url(#mask-4)" points="-11 101.644 129.346 101.644 129.346 100.786 -11 100.786"></polygon>
                <polygon id="Fill-31" fill="#FFFFFF" opacity="0.5" mask="url(#mask-4)" points="-11 98.683 129.346 98.683 129.346 95.817 -11 95.817"></polygon>
                <polygon id="Fill-32" fill="#D88B25" mask="url(#mask-4)" points="-11 114.641 129.346 114.641 129.346 109.104 -11 109.104"></polygon>
                <polygon id="Fill-33" fill="#A05A05" mask="url(#mask-4)" points="-11 114.931 129.346 114.931 129.346 114.073 -11 114.073"></polygon>
                <polygon id="Fill-34" fill="#FFFFFF" opacity="0.5" mask="url(#mask-4)" points="-11 111.971 129.346 111.971 129.346 109.104 -11 109.104"></polygon>
            </g>
            <g id="Group-168" transform="translate(9.000000, 7.000000)">
                <path d="M101.4158,84.9903 C101.4158,94.3443 93.7628,101.9963 84.4088,101.9963 L17.1068,101.9963 C7.7538,101.9963 0.1008,94.3443 0.1008,84.9903 L0.1008,17.6873 C0.1008,8.3343 7.7538,0.6813 17.1068,0.6813 L84.4088,0.6813 C93.7628,0.6813 101.4158,8.3343 101.4158,17.6873 L101.4158,84.9903 Z" id="Fill-36" fill="#754C28"></path>
                <path d="M101.4158,88.3116 C101.4158,97.6656 93.7628,105.3186 84.4088,105.3186 L17.1068,105.3186 C7.7538,105.3186 0.1008,97.6656 0.1008,88.3116 L0.1008,21.0096 C0.1008,11.6566 7.7538,4.0036 17.1068,4.0036 L84.4088,4.0036 C93.7628,4.0036 101.4158,11.6566 101.4158,21.0096 L101.4158,88.3116 Z" id="Fill-38" fill="#754C28"></path>
                <path d="M100.5848,87.7608 C100.5848,96.9598 93.0578,104.4888 83.8568,104.4888 L17.6578,104.4888 C8.4578,104.4888 0.9308,96.9598 0.9308,87.7608 L0.9308,21.5618 C0.9308,12.3618 8.4578,4.8338 17.6578,4.8338 L83.8568,4.8338 C93.0578,4.8338 100.5848,12.3618 100.5848,21.5618 L100.5848,87.7608 Z" id="Fill-40" fill="#A87C4F"></path>
                <path d="M32.6365,33.3282 C32.6365,36.6202 29.9435,39.3122 26.6515,39.3122 L13.2745,39.3122 C9.9825,39.3122 7.2885,36.6202 7.2885,33.3282 L7.2885,19.9502 C7.2885,16.6592 9.9825,13.9662 13.2745,13.9662 L26.6515,13.9662 C29.9435,13.9662 32.6365,16.6592 32.6365,19.9502 L32.6365,33.3282 Z" id="Fill-42" fill="#754C28"></path>
                <path d="M30.5233,31.7599 C30.5233,34.7519 28.0753,37.1999 25.0833,37.1999 L14.8423,37.1999 C11.8493,37.1999 9.4013,34.7519 9.4013,31.7599 L9.4013,21.5189 C9.4013,18.5269 11.8493,16.0779 14.8423,16.0779 L25.0833,16.0779 C28.0753,16.0779 30.5233,18.5269 30.5233,21.5189 L30.5233,31.7599 Z" id="Fill-44" fill="#A87C4F"></path>
                <path d="M30.5233,32.0714 C30.5233,34.8914 28.2153,37.2004 25.3943,37.2004 L14.5313,37.2004 C11.7103,37.2004 9.4013,34.8914 9.4013,32.0714 L9.4013,23.5534 C9.4013,20.7334 11.7103,18.4254 14.5313,18.4254 L25.3943,18.4254 C28.2153,18.4254 30.5233,20.7334 30.5233,23.5534 L30.5233,32.0714 Z" id="Fill-46" fill="#CEA686"></path>
                <path d="M12.4734,14.6378 C11.9694,14.4698 7.6494,15.6938 7.8654,20.3988 C7.6494,21.1658 9.0174,20.4938 9.0174,20.4938 C9.0174,20.4938 8.9204,16.8458 13.2414,15.4068 C13.2414,15.4068 12.9784,14.8058 12.4734,14.6378" id="Fill-48" fill="#FFFFFF" opacity="0.5"></path>
                <path d="M7.7693,21.2628 C7.9143,20.8308 8.8733,21.2148 8.8733,21.2148 C8.8733,21.2148 9.3053,22.9428 8.6333,23.1828 C7.9613,23.4228 7.6253,21.6948 7.7693,21.2628" id="Fill-50" fill="#FFFFFF" opacity="0.5"></path>
                <path d="M27.5633,38.8409 C28.0673,39.0089 32.3873,37.7849 32.1713,33.0799 C32.3873,32.3129 31.0193,32.9849 31.0193,32.9849 C31.0193,32.9849 31.1163,36.6329 26.7943,38.0729 C26.7943,38.0729 27.0583,38.6729 27.5633,38.8409" id="Fill-52" fill="#FFFFFF" opacity="0.5"></path>
                <path d="M32.2674,32.2159 C32.1224,32.6489 31.1634,32.2639 31.1634,32.2639 C31.1634,32.2639 30.7314,30.5359 31.4034,30.2959 C32.0754,30.0559 32.4114,31.7839 32.2674,32.2159" id="Fill-54" fill="#FFFFFF" opacity="0.5"></path>
                <path d="M64.0408,33.3282 C64.0408,36.6202 61.3478,39.3122 58.0558,39.3122 L44.6778,39.3122 C41.3868,39.3122 38.6928,36.6202 38.6928,33.3282 L38.6928,19.9502 C38.6928,16.6592 41.3868,13.9662 44.6778,13.9662 L58.0558,13.9662 C61.3478,13.9662 64.0408,16.6592 64.0408,19.9502 L64.0408,33.3282 Z" id="Fill-56" fill="#754C28"></path>
                <path d="M61.9276,31.7599 C61.9276,34.7519 59.4796,37.1999 56.4876,37.1999 L46.2466,37.1999 C43.2536,37.1999 40.8056,34.7519 40.8056,31.7599 L40.8056,21.5189 C40.8056,18.5269 43.2536,16.0779 46.2466,16.0779 L56.4876,16.0779 C59.4796,16.0779 61.9276,18.5269 61.9276,21.5189 L61.9276,31.7599 Z" id="Fill-58" fill="#A87C4F"></path>
                <path d="M61.9276,32.0714 C61.9276,34.8914 59.6196,37.2004 56.7986,37.2004 L45.9356,37.2004 C43.1146,37.2004 40.8056,34.8914 40.8056,32.0714 L40.8056,23.5534 C40.8056,20.7334 43.1146,18.4254 45.9356,18.4254 L56.7986,18.4254 C59.6196,18.4254 61.9276,20.7334 61.9276,23.5534 L61.9276,32.0714 Z" id="Fill-60" fill="#CEA686"></path>
                <path d="M43.8777,14.6378 C43.3737,14.4698 39.0537,15.6938 39.2697,20.3988 C39.0537,21.1658 40.4217,20.4938 40.4217,20.4938 C40.4217,20.4938 40.3247,16.8458 44.6457,15.4068 C44.6457,15.4068 44.3817,14.8058 43.8777,14.6378" id="Fill-62" fill="#FFFFFF" opacity="0.5"></path>
                <path d="M39.1736,21.2628 C39.3186,20.8308 40.2776,21.2148 40.2776,21.2148 C40.2776,21.2148 40.7096,22.9428 40.0376,23.1828 C39.3646,23.4228 39.0296,21.6948 39.1736,21.2628" id="Fill-64" fill="#FFFFFF" opacity="0.5"></path>
                <path d="M58.9676,38.8409 C59.4716,39.0089 63.7916,37.7849 63.5756,33.0799 C63.7916,32.3129 62.4236,32.9849 62.4236,32.9849 C62.4236,32.9849 62.5206,36.6329 58.1986,38.0729 C58.1986,38.0729 58.4626,38.6729 58.9676,38.8409" id="Fill-66" fill="#FFFFFF" opacity="0.5"></path>
                <path d="M63.6717,32.2159 C63.5267,32.6489 62.5677,32.2639 62.5677,32.2639 C62.5677,32.2639 62.1347,30.5359 62.8077,30.2959 C63.4797,30.0559 63.8157,31.7839 63.6717,32.2159" id="Fill-68" fill="#FFFFFF" opacity="0.5"></path>
                <path d="M95.4442,33.3282 C95.4442,36.6202 92.7522,39.3122 89.4602,39.3122 L76.0822,39.3122 C72.7912,39.3122 70.0972,36.6202 70.0972,33.3282 L70.0972,19.9502 C70.0972,16.6592 72.7912,13.9662 76.0822,13.9662 L89.4602,13.9662 C92.7522,13.9662 95.4442,16.6592 95.4442,19.9502 L95.4442,33.3282 Z" id="Fill-70" fill="#754C28"></path>
                <path d="M93.3318,31.7599 C93.3318,34.7519 90.8838,37.1999 87.8918,37.1999 L77.6498,37.1999 C74.6578,37.1999 72.2098,34.7519 72.2098,31.7599 L72.2098,21.5189 C72.2098,18.5269 74.6578,16.0779 77.6498,16.0779 L87.8918,16.0779 C90.8838,16.0779 93.3318,18.5269 93.3318,21.5189 L93.3318,31.7599 Z" id="Fill-72" fill="#A87C4F"></path>
                <path d="M93.3318,32.0714 C93.3318,34.8914 91.0228,37.2004 88.2028,37.2004 L77.3398,37.2004 C74.5188,37.2004 72.2098,34.8914 72.2098,32.0714 L72.2098,23.5534 C72.2098,20.7334 74.5188,18.4254 77.3398,18.4254 L88.2028,18.4254 C91.0228,18.4254 93.3318,20.7334 93.3318,23.5534 L93.3318,32.0714 Z" id="Fill-74" fill="#CEA686"></path>
                <path d="M75.282,14.6378 C74.778,14.4698 70.458,15.6938 70.674,20.3988 C70.458,21.1658 71.826,20.4938 71.826,20.4938 C71.826,20.4938 71.729,16.8458 76.05,15.4068 C76.05,15.4068 75.786,14.8058 75.282,14.6378" id="Fill-76" fill="#FFFFFF" opacity="0.5"></path>
                <path d="M70.5779,21.2628 C70.7219,20.8308 71.6819,21.2148 71.6819,21.2148 C71.6819,21.2148 72.1139,22.9428 71.4419,23.1828 C70.7689,23.4228 70.4339,21.6948 70.5779,21.2628" id="Fill-78" fill="#FFFFFF" opacity="0.5"></path>
                <path d="M90.3709,38.8409 C90.8759,39.0089 95.1959,37.7849 94.9799,33.0799 C95.1959,32.3129 93.8279,32.9849 93.8279,32.9849 C93.8279,32.9849 93.9249,36.6329 89.6029,38.0729 C89.6029,38.0729 89.8669,38.6729 90.3709,38.8409" id="Fill-80" fill="#FFFFFF" opacity="0.5"></path>
                <path d="M95.076,32.2159 C94.931,32.6489 93.972,32.2639 93.972,32.2639 C93.972,32.2639 93.539,30.5359 94.212,30.2959 C94.884,30.0559 95.22,31.7839 95.076,32.2159" id="Fill-82" fill="#FFFFFF" opacity="0.5"></path>
                <path d="M32.6365,62.6778 C32.6365,65.9698 29.9435,68.6628 26.6515,68.6628 L13.2745,68.6628 C9.9825,68.6628 7.2885,65.9698 7.2885,62.6778 L7.2885,49.3008 C7.2885,46.0088 9.9825,43.3158 13.2745,43.3158 L26.6515,43.3158 C29.9435,43.3158 32.6365,46.0088 32.6365,49.3008 L32.6365,62.6778 Z" id="Fill-84" fill="#754C28"></path>
                <path d="M30.5233,61.1095 C30.5233,64.1015 28.0753,66.5495 25.0833,66.5495 L14.8423,66.5495 C11.8493,66.5495 9.4013,64.1015 9.4013,61.1095 L9.4013,50.8695 C9.4013,47.8765 11.8493,45.4275 14.8423,45.4275 L25.0833,45.4275 C28.0753,45.4275 30.5233,47.8765 30.5233,50.8695 L30.5233,61.1095 Z" id="Fill-86" fill="#A87C4F"></path>
                <path d="M30.5233,61.421 C30.5233,64.242 28.2153,66.55 25.3943,66.55 L14.5313,66.55 C11.7103,66.55 9.4013,64.242 9.4013,61.421 L9.4013,52.904 C9.4013,50.083 11.7103,47.775 14.5313,47.775 L25.3943,47.775 C28.2153,47.775 30.5233,50.083 30.5233,52.904 L30.5233,61.421 Z" id="Fill-88" fill="#CEA686"></path>
                <path d="M12.4734,43.9884 C11.9694,43.8194 7.6494,45.0444 7.8654,49.7484 C7.6494,50.5164 9.0174,49.8434 9.0174,49.8434 C9.0174,49.8434 8.9204,46.1964 13.2414,44.7564 C13.2414,44.7564 12.9784,44.1564 12.4734,43.9884" id="Fill-90" fill="#FFFFFF" opacity="0.5"></path>
                <path d="M7.7693,50.6124 C7.9143,50.1804 8.8733,50.5644 8.8733,50.5644 C8.8733,50.5644 9.3053,52.2924 8.6333,52.5324 C7.9613,52.7724 7.6253,51.0444 7.7693,50.6124" id="Fill-92" fill="#FFFFFF" opacity="0.5"></path>
                <path d="M27.5633,68.1905 C28.0673,68.3585 32.3873,67.1345 32.1713,62.4295 C32.3873,61.6625 31.0193,62.3345 31.0193,62.3345 C31.0193,62.3345 31.1163,65.9825 26.7943,67.4225 C26.7943,67.4225 27.0583,68.0225 27.5633,68.1905" id="Fill-94" fill="#FFFFFF" opacity="0.5"></path>
                <path d="M32.2674,61.5665 C32.1224,61.9985 31.1634,61.6135 31.1634,61.6135 C31.1634,61.6135 30.7314,59.8855 31.4034,59.6455 C32.0754,59.4055 32.4114,61.1335 32.2674,61.5665" id="Fill-96" fill="#FFFFFF" opacity="0.5"></path>
                <path d="M64.0408,62.6778 C64.0408,65.9698 61.3478,68.6628 58.0558,68.6628 L44.6778,68.6628 C41.3868,68.6628 38.6928,65.9698 38.6928,62.6778 L38.6928,49.3008 C38.6928,46.0088 41.3868,43.3158 44.6778,43.3158 L58.0558,43.3158 C61.3478,43.3158 64.0408,46.0088 64.0408,49.3008 L64.0408,62.6778 Z" id="Fill-98" fill="#754C28"></path>
                <path d="M61.9276,61.1095 C61.9276,64.1015 59.4796,66.5495 56.4876,66.5495 L46.2466,66.5495 C43.2536,66.5495 40.8056,64.1015 40.8056,61.1095 L40.8056,50.8695 C40.8056,47.8765 43.2536,45.4275 46.2466,45.4275 L56.4876,45.4275 C59.4796,45.4275 61.9276,47.8765 61.9276,50.8695 L61.9276,61.1095 Z" id="Fill-100" fill="#A87C4F"></path>
                <path d="M61.9276,61.421 C61.9276,64.242 59.6196,66.55 56.7986,66.55 L45.9356,66.55 C43.1146,66.55 40.8056,64.242 40.8056,61.421 L40.8056,52.904 C40.8056,50.083 43.1146,47.775 45.9356,47.775 L56.7986,47.775 C59.6196,47.775 61.9276,50.083 61.9276,52.904 L61.9276,61.421 Z" id="Fill-102" fill="#CEA686"></path>
                <path d="M43.8777,43.9884 C43.3737,43.8194 39.0537,45.0444 39.2697,49.7484 C39.0537,50.5164 40.4217,49.8434 40.4217,49.8434 C40.4217,49.8434 40.3247,46.1964 44.6457,44.7564 C44.6457,44.7564 44.3817,44.1564 43.8777,43.9884" id="Fill-104" fill="#FFFFFF" opacity="0.5"></path>
                <path d="M39.1736,50.6124 C39.3186,50.1804 40.2776,50.5644 40.2776,50.5644 C40.2776,50.5644 40.7096,52.2924 40.0376,52.5324 C39.3646,52.7724 39.0296,51.0444 39.1736,50.6124" id="Fill-106" fill="#FFFFFF" opacity="0.5"></path>
                <path d="M58.9676,68.1905 C59.4716,68.3585 63.7916,67.1345 63.5756,62.4295 C63.7916,61.6625 62.4236,62.3345 62.4236,62.3345 C62.4236,62.3345 62.5206,65.9825 58.1986,67.4225 C58.1986,67.4225 58.4626,68.0225 58.9676,68.1905" id="Fill-108" fill="#FFFFFF" opacity="0.5"></path>
                <path d="M63.6717,61.5665 C63.5267,61.9985 62.5677,61.6135 62.5677,61.6135 C62.5677,61.6135 62.1347,59.8855 62.8077,59.6455 C63.4797,59.4055 63.8157,61.1335 63.6717,61.5665" id="Fill-110" fill="#FFFFFF" opacity="0.5"></path>
                <path d="M95.4442,62.6778 C95.4442,65.9698 92.7522,68.6628 89.4602,68.6628 L76.0822,68.6628 C72.7912,68.6628 70.0972,65.9698 70.0972,62.6778 L70.0972,49.3008 C70.0972,46.0088 72.7912,43.3158 76.0822,43.3158 L89.4602,43.3158 C92.7522,43.3158 95.4442,46.0088 95.4442,49.3008 L95.4442,62.6778 Z" id="Fill-112" fill="#754C28"></path>
                <path d="M93.3318,61.1095 C93.3318,64.1015 90.8838,66.5495 87.8918,66.5495 L77.6498,66.5495 C74.6578,66.5495 72.2098,64.1015 72.2098,61.1095 L72.2098,50.8695 C72.2098,47.8765 74.6578,45.4275 77.6498,45.4275 L87.8918,45.4275 C90.8838,45.4275 93.3318,47.8765 93.3318,50.8695 L93.3318,61.1095 Z" id="Fill-114" fill="#A87C4F"></path>
                <path d="M93.3318,61.421 C93.3318,64.242 91.0228,66.55 88.2028,66.55 L77.3398,66.55 C74.5188,66.55 72.2098,64.242 72.2098,61.421 L72.2098,52.904 C72.2098,50.083 74.5188,47.775 77.3398,47.775 L88.2028,47.775 C91.0228,47.775 93.3318,50.083 93.3318,52.904 L93.3318,61.421 Z" id="Fill-116" fill="#CEA686"></path>
                <path d="M75.282,43.9884 C74.778,43.8194 70.458,45.0444 70.674,49.7484 C70.458,50.5164 71.826,49.8434 71.826,49.8434 C71.826,49.8434 71.729,46.1964 76.05,44.7564 C76.05,44.7564 75.786,44.1564 75.282,43.9884" id="Fill-118" fill="#FFFFFF" opacity="0.5"></path>
                <path d="M70.5779,50.6124 C70.7219,50.1804 71.6819,50.5644 71.6819,50.5644 C71.6819,50.5644 72.1139,52.2924 71.4419,52.5324 C70.7689,52.7724 70.4339,51.0444 70.5779,50.6124" id="Fill-120" fill="#FFFFFF" opacity="0.5"></path>
                <path d="M90.3709,68.1905 C90.8759,68.3585 95.1959,67.1345 94.9799,62.4295 C95.1959,61.6625 93.8279,62.3345 93.8279,62.3345 C93.8279,62.3345 93.9249,65.9825 89.6029,67.4225 C89.6029,67.4225 89.8669,68.0225 90.3709,68.1905" id="Fill-122" fill="#FFFFFF" opacity="0.5"></path>
                <path d="M95.076,61.5665 C94.931,61.9985 93.972,61.6135 93.972,61.6135 C93.972,61.6135 93.539,59.8855 94.212,59.6455 C94.884,59.4055 95.22,61.1335 95.076,61.5665" id="Fill-124" fill="#FFFFFF" opacity="0.5"></path>
                <path d="M32.6365,92.0275 C32.6365,95.3195 29.9435,98.0125 26.6515,98.0125 L13.2745,98.0125 C9.9825,98.0125 7.2885,95.3195 7.2885,92.0275 L7.2885,78.6505 C7.2885,75.3585 9.9825,72.6655 13.2745,72.6655 L26.6515,72.6655 C29.9435,72.6655 32.6365,75.3585 32.6365,78.6505 L32.6365,92.0275 Z" id="Fill-126" fill="#754C28"></path>
                <path d="M30.5233,90.4591 C30.5233,93.4521 28.0753,95.9001 25.0833,95.9001 L14.8423,95.9001 C11.8493,95.9001 9.4013,93.4521 9.4013,90.4591 L9.4013,80.2191 C9.4013,77.2271 11.8493,74.7781 14.8423,74.7781 L25.0833,74.7781 C28.0753,74.7781 30.5233,77.2271 30.5233,80.2191 L30.5233,90.4591 Z" id="Fill-128" fill="#A87C4F"></path>
                <path d="M30.5233,90.7706 C30.5233,93.5916 28.2153,95.9006 25.3943,95.9006 L14.5313,95.9006 C11.7103,95.9006 9.4013,93.5916 9.4013,90.7706 L9.4013,82.2536 C9.4013,79.4326 11.7103,77.1246 14.5313,77.1246 L25.3943,77.1246 C28.2153,77.1246 30.5233,79.4326 30.5233,82.2536 L30.5233,90.7706 Z" id="Fill-130" fill="#CEA686"></path>
                <path d="M12.4734,73.338 C11.9694,73.17 7.6494,74.394 7.8654,79.098 C7.6494,79.866 9.0174,79.193 9.0174,79.193 C9.0174,79.193 8.9204,75.546 13.2414,74.106 C13.2414,74.106 12.9784,73.506 12.4734,73.338" id="Fill-132" fill="#FFFFFF" opacity="0.5"></path>
                <path d="M7.7693,79.962 C7.9143,79.53 8.8733,79.914 8.8733,79.914 C8.8733,79.914 9.3053,81.642 8.6333,81.882 C7.9613,82.123 7.6253,80.395 7.7693,79.962" id="Fill-134" fill="#FFFFFF" opacity="0.5"></path>
                <path d="M27.5633,97.5401 C28.0673,97.7091 32.3873,96.4841 32.1713,91.7791 C32.3873,91.0121 31.0193,91.6851 31.0193,91.6851 C31.0193,91.6851 31.1163,95.3321 26.7943,96.7721 C26.7943,96.7721 27.0583,97.3721 27.5633,97.5401" id="Fill-136" fill="#FFFFFF" opacity="0.5"></path>
                <path d="M32.2674,90.9161 C32.1224,91.3481 31.1634,90.9641 31.1634,90.9641 C31.1634,90.9641 30.7314,89.2351 31.4034,88.9961 C32.0754,88.7561 32.4114,90.4831 32.2674,90.9161" id="Fill-138" fill="#FFFFFF" opacity="0.5"></path>
                <path d="M64.0408,92.0275 C64.0408,95.3195 61.3478,98.0125 58.0558,98.0125 L44.6778,98.0125 C41.3868,98.0125 38.6928,95.3195 38.6928,92.0275 L38.6928,78.6505 C38.6928,75.3585 41.3868,72.6655 44.6778,72.6655 L58.0558,72.6655 C61.3478,72.6655 64.0408,75.3585 64.0408,78.6505 L64.0408,92.0275 Z" id="Fill-140" fill="#754C28"></path>
                <path d="M61.9276,90.4591 C61.9276,93.4521 59.4796,95.9001 56.4876,95.9001 L46.2466,95.9001 C43.2536,95.9001 40.8056,93.4521 40.8056,90.4591 L40.8056,80.2191 C40.8056,77.2271 43.2536,74.7781 46.2466,74.7781 L56.4876,74.7781 C59.4796,74.7781 61.9276,77.2271 61.9276,80.2191 L61.9276,90.4591 Z" id="Fill-142" fill="#A87C4F"></path>
                <path d="M61.9276,90.7706 C61.9276,93.5916 59.6196,95.9006 56.7986,95.9006 L45.9356,95.9006 C43.1146,95.9006 40.8056,93.5916 40.8056,90.7706 L40.8056,82.2536 C40.8056,79.4326 43.1146,77.1246 45.9356,77.1246 L56.7986,77.1246 C59.6196,77.1246 61.9276,79.4326 61.9276,82.2536 L61.9276,90.7706 Z" id="Fill-144" fill="#CEA686"></path>
                <path d="M43.8777,73.338 C43.3737,73.17 39.0537,74.394 39.2697,79.098 C39.0537,79.866 40.4217,79.193 40.4217,79.193 C40.4217,79.193 40.3247,75.546 44.6457,74.106 C44.6457,74.106 44.3817,73.506 43.8777,73.338" id="Fill-146" fill="#FFFFFF" opacity="0.5"></path>
                <path d="M39.1736,79.962 C39.3186,79.53 40.2776,79.914 40.2776,79.914 C40.2776,79.914 40.7096,81.642 40.0376,81.882 C39.3646,82.123 39.0296,80.395 39.1736,79.962" id="Fill-148" fill="#FFFFFF" opacity="0.5"></path>
                <path d="M58.9676,97.5401 C59.4716,97.7091 63.7916,96.4841 63.5756,91.7791 C63.7916,91.0121 62.4236,91.6851 62.4236,91.6851 C62.4236,91.6851 62.5206,95.3321 58.1986,96.7721 C58.1986,96.7721 58.4626,97.3721 58.9676,97.5401" id="Fill-150" fill="#FFFFFF" opacity="0.5"></path>
                <path d="M63.6717,90.9161 C63.5267,91.3481 62.5677,90.9641 62.5677,90.9641 C62.5677,90.9641 62.1347,89.2351 62.8077,88.9961 C63.4797,88.7561 63.8157,90.4831 63.6717,90.9161" id="Fill-152" fill="#FFFFFF" opacity="0.5"></path>
                <path d="M95.4442,92.0275 C95.4442,95.3195 92.7522,98.0125 89.4602,98.0125 L76.0822,98.0125 C72.7912,98.0125 70.0972,95.3195 70.0972,92.0275 L70.0972,78.6505 C70.0972,75.3585 72.7912,72.6655 76.0822,72.6655 L89.4602,72.6655 C92.7522,72.6655 95.4442,75.3585 95.4442,78.6505 L95.4442,92.0275 Z" id="Fill-154" fill="#754C28"></path>
                <path d="M93.3318,90.4591 C93.3318,93.4521 90.8838,95.9001 87.8918,95.9001 L77.6498,95.9001 C74.6578,95.9001 72.2098,93.4521 72.2098,90.4591 L72.2098,80.2191 C72.2098,77.2271 74.6578,74.7781 77.6498,74.7781 L87.8918,74.7781 C90.8838,74.7781 93.3318,77.2271 93.3318,80.2191 L93.3318,90.4591 Z" id="Fill-156" fill="#A87C4F"></path>
                <path d="M93.3318,90.7706 C93.3318,93.5916 91.0228,95.9006 88.2028,95.9006 L77.3398,95.9006 C74.5188,95.9006 72.2098,93.5916 72.2098,90.7706 L72.2098,82.2536 C72.2098,79.4326 74.5188,77.1246 77.3398,77.1246 L88.2028,77.1246 C91.0228,77.1246 93.3318,79.4326 93.3318,82.2536 L93.3318,90.7706 Z" id="Fill-158" fill="#CEA686"></path>
                <path d="M75.282,73.338 C74.778,73.17 70.458,74.394 70.674,79.098 C70.458,79.866 71.826,79.193 71.826,79.193 C71.826,79.193 71.729,75.546 76.05,74.106 C76.05,74.106 75.786,73.506 75.282,73.338" id="Fill-160" fill="#FFFFFF" opacity="0.5"></path>
                <path d="M70.5779,79.962 C70.7219,79.53 71.6819,79.914 71.6819,79.914 C71.6819,79.914 72.1139,81.642 71.4419,81.882 C70.7689,82.123 70.4339,80.395 70.5779,79.962" id="Fill-162" fill="#FFFFFF" opacity="0.5"></path>
                <path d="M90.3709,97.5401 C90.8759,97.7091 95.1959,96.4841 94.9799,91.7791 C95.1959,91.0121 93.8279,91.6851 93.8279,91.6851 C93.8279,91.6851 93.9249,95.3321 89.6029,96.7721 C89.6029,96.7721 89.8669,97.3721 90.3709,97.5401" id="Fill-164" fill="#FFFFFF" opacity="0.5"></path>
                <path d="M95.076,90.9161 C94.931,91.3481 93.972,90.9641 93.972,90.9641 C93.972,90.9641 93.539,89.2351 94.212,88.9961 C94.884,88.7561 95.22,90.4831 95.076,90.9161" id="Fill-166" fill="#FFFFFF" opacity="0.5"></path>
            </g>
        </g>
    </g>
</svg>