<?xml version="1.0" encoding="UTF-8"?>
<svg width="120px" height="120px" viewBox="0 0 120 120" version="1.1" xmlns="http://www.w3.org/2000/svg" xmlns:xlink="http://www.w3.org/1999/xlink">
    <!-- Generator: Sketch 51.1 (57501) - http://www.bohemiancoding.com/sketch -->
    <title>Turkey2</title>
    <desc>Created with Sketch.</desc>
    <defs>
        <polygon id="path-1" points="0 0.995235849 26.246449 0.995235849 26.246449 23.1332547 0 23.1332547"></polygon>
    </defs>
    <g id="Turkey2" stroke="none" stroke-width="1" fill="none" fill-rule="evenodd">
        <g id="Group-97" transform="translate(60.000000, 60.500000) scale(-1, 1) translate(-60.000000, -60.500000) translate(0.000000, 28.000000)">
            <g id="Group-105" transform="translate(0.000000, 27.504811)">
                <mask id="mask-2" fill="white">
                    <use xlink:href="#path-1"></use>
                </mask>
                <g id="Clip-104"></g>
                <path d="M26.246449,12.0636321 C26.246449,18.1773113 20.3713469,23.1332547 13.1235918,23.1332547 C5.87583673,23.1332547 -0.000489795918,18.1773113 -0.000489795918,12.0636321 C-0.000489795918,5.95117925 5.87583673,0.995235849 13.1235918,0.995235849 C20.3713469,0.995235849 26.246449,5.95117925 26.246449,12.0636321" id="Fill-103" fill="#FAAC2F" mask="url(#mask-2)"></path>
            </g>
            <path d="M0.69122449,43.0279151 C0.69122449,36.9142358 6.56632653,31.9595189 13.8140816,31.9595189 C19.594898,31.9595189 24.4916327,35.1150849 26.2414286,39.4946132 C26.1936735,33.4152736 20.3406122,28.4998019 13.1234694,28.4998019 C5.87571429,28.4998019 0.000612244898,33.4557453 0.000612244898,39.5681981 C0.000612244898,40.8056509 0.251632653,41.9903679 0.694897959,43.1027264 C0.694897959,43.0757453 0.69122449,43.0524434 0.69122449,43.0279151" id="Fill-106" fill="#FAAC2F"></path>
            <path d="M21.6276735,31.1476321 C22.7982857,32.8045189 23.484,34.7336698 23.484,36.8014057 C23.484,42.9150849 17.6076735,47.8685755 10.3611429,47.8685755 C7.11379592,47.8685755 4.14685714,46.8702736 1.85706122,45.2219717 C4.14563265,48.460934 8.3284898,50.6378208 13.1235918,50.6378208 C20.3713469,50.6378208 26.246449,45.6818774 26.246449,39.5681981 C26.246449,36.1943302 24.4513469,33.1773491 21.6276735,31.1476321" id="Fill-108" fill="#F7A305"></path>
            <g id="Group-122" transform="translate(3.673469, 34.863302)" fill="#B85E26">
                <path d="M1.14685714,6.00403774 C1.2362449,6.25545283 1.3684898,6.3670566 1.60971429,6.448 C1.86563265,6.53262264 2.20481633,6.49337736 2.47053061,6.48724528 C2.56971429,6.48479245 2.98114286,6.42469811 2.95910204,6.41733962 C2.70073469,6.33271698 2.6284898,6.23460377 2.54644898,6.00403774 C2.46930612,5.78818868 1.17134694,6.07149057 1.14685714,6.00403774" id="Fill-110"></path>
                <path d="M5.49416327,1.1750283 C5.55171429,1.20323585 5.60926531,1.23266981 5.66681633,1.26087736 C5.886,1.37125472 6.28885714,1.30625472 6.52763265,1.30012264 C6.6182449,1.29889623 7.0504898,1.24861321 7.01742857,1.2314434 C6.95865306,1.20200943 6.90110204,1.17380189 6.84477551,1.14559434 C6.62436735,1.0364434 6.2215102,1.10021698 5.98273469,1.10634906 C5.89334694,1.10757547 5.46110204,1.15785849 5.49416327,1.1750283" id="Fill-112"></path>
                <path d="M7.02955102,5.22133962 C7.08710204,5.3660566 7.14465306,5.50954717 7.20342857,5.65426415 C7.29526531,5.88237736 8.56873469,5.57086792 8.60302041,5.65426415 C8.5442449,5.50954717 8.48669388,5.3660566 8.42914286,5.22133962 C8.33853061,4.99445283 7.06261224,5.30350943 7.02955102,5.22133962" id="Fill-114"></path>
                <path d="M5.99632653,9.51673585 C6.78,9.51673585 6.80571429,9.40390566 5.99632653,9.40390566 C5.21265306,9.40390566 5.18693878,9.51673585 5.99632653,9.51673585" id="Fill-116"></path>
                <path d="M11.3409796,1.76370755 C11.5711837,2.02248113 11.8013878,2.28248113 12.0328163,2.54125472 C12.1332245,2.65408491 12.5948571,2.5964434 12.7332245,2.59766981 C12.8115918,2.59766981 13.4066939,2.51059434 13.4324082,2.54125472 C13.2022041,2.28248113 12.972,2.02248113 12.7405714,1.76370755 C12.6413878,1.65087736 12.1785306,1.70729245 12.0413878,1.70729245 C11.9630204,1.70729245 11.3679184,1.79314151 11.3409796,1.76370755" id="Fill-118"></path>
                <path d="M12.7214694,7.04121698 C12.8084082,7.21414151 12.8941224,7.38583962 12.9798367,7.55876415 C13.1035102,7.80527358 14.3243265,7.44593396 14.3806531,7.55876415 C14.2937143,7.38583962 14.208,7.21414151 14.1222857,7.04121698 C13.9973878,6.79470755 12.7777959,7.15404717 12.7214694,7.04121698" id="Fill-120"></path>
            </g>
            <g id="Group-135" transform="translate(6.122449, 33.636887)" fill="#B85E26">
                <path d="M0.849673469,5.07049057 C0.939061224,5.32190566 1.07130612,5.43473585 1.31253061,5.51567925 C1.56844898,5.6015283 1.90763265,5.5610566 2.17334694,5.55492453 C2.27253061,5.5524717 2.68395918,5.49237736 2.66191837,5.48501887 C2.40355102,5.39916981 2.33130612,5.30228302 2.2504898,5.07049057 C2.17334694,4.85464151 0.874163265,5.13671698 0.849673469,5.07049057" id="Fill-123"></path>
                <path d="M5.19759184,0.241971698 C5.25514286,0.270179245 5.31269388,0.299613208 5.3702449,0.327820755 C5.58942857,0.436971698 5.99228571,0.373198113 6.23106122,0.367066038 C6.32167347,0.365839623 6.75391837,0.315556604 6.72085714,0.298386792 C6.66208163,0.26895283 6.60453061,0.240745283 6.54820408,0.212537736 C6.32779592,0.102160377 5.92493878,0.167160377 5.68616327,0.173292453 C5.59677551,0.174518868 5.16453061,0.224801887 5.19759184,0.241971698" id="Fill-125"></path>
                <path d="M6.73236735,4.28840566 C6.79114286,4.43312264 6.84869388,4.57661321 6.9062449,4.72133019 C6.99685714,4.94821698 8.27277551,4.63793396 8.30583673,4.72133019 C8.24828571,4.57661321 8.19073469,4.43312264 8.13318367,4.28840566 C8.04134694,4.06029245 6.76542857,4.37180189 6.73236735,4.28840566" id="Fill-127"></path>
                <path d="M5.6997551,8.5850283 C6.48342857,8.5850283 6.50914286,8.47219811 5.6997551,8.47219811 C4.91608163,8.47219811 4.89036735,8.5850283 5.6997551,8.5850283" id="Fill-129"></path>
                <path d="M11.0450204,0.830650943 C11.2752245,1.08942453 11.5054286,1.34942453 11.7356327,1.60942453 C11.8360408,1.72225472 12.298898,1.66583962 12.4360408,1.66583962 C12.5144082,1.66583962 13.1095102,1.57876415 13.136449,1.60942453 C12.9062449,1.34942453 12.6760408,1.08942453 12.4446122,0.830650943 C12.3442041,0.717820755 11.8825714,0.775462264 11.7442041,0.774235849 C11.6658367,0.774235849 11.0707347,0.860084906 11.0450204,0.830650943" id="Fill-131"></path>
                <path d="M12.424898,6.1064434 C12.5106122,6.28059434 12.597551,6.45351887 12.6832653,6.6264434 C12.8069388,6.87295283 14.0277551,6.51361321 14.0840816,6.6264434 C13.9971429,6.45351887 13.9102041,6.28059434 13.8257143,6.1064434 C13.7020408,5.85993396 12.48,6.21804717 12.424898,6.1064434" id="Fill-133"></path>
            </g>
            <path d="M105.446082,40.9511038 C105.446082,47.0635566 99.5709796,52.0195 92.3232245,52.0195 C85.0754694,52.0195 79.1991429,47.0635566 79.1991429,40.9511038 C79.1991429,34.8386509 85.0754694,29.883934 92.3232245,29.883934 C99.5709796,29.883934 105.446082,34.8386509 105.446082,40.9511038" id="Fill-136" fill="#FAAC2F"></path>
            <path d="M79.8902449,44.4099623 C79.8902449,38.2975094 85.7653469,33.3427925 93.013102,33.3427925 C98.7939184,33.3427925 103.691878,36.4995849 105.441673,40.8766604 C105.392694,34.7997736 99.5408571,29.8843019 92.3224898,29.8843019 C85.0747347,29.8843019 79.1996327,34.8390189 79.1996327,40.9514717 C79.1996327,42.1889245 79.4506531,43.3748679 79.8951429,44.486 C79.8939184,44.4602453 79.8902449,44.435717 79.8902449,44.4099623" id="Fill-138" fill="#FAAC2F"></path>
            <path d="M100.827306,32.5309057 C101.997918,34.1877925 102.683633,36.1169434 102.683633,38.1846792 C102.683633,44.2971321 96.8073061,49.2530755 89.559551,49.2530755 C86.3122041,49.2530755 83.3464898,48.2547736 81.0554694,46.6064717 C83.3452653,49.845434 87.5281224,52.0198679 92.3232245,52.0198679 C99.5709796,52.0198679 105.446082,47.0639245 105.446082,40.9514717 C105.446082,37.5776038 103.649755,34.5606226 100.827306,32.5309057" id="Fill-140" fill="#F7A305"></path>
            <g id="Group-154" transform="translate(83.265306, 37.316132)" fill="#B85E26">
                <path d="M0.754040816,4.93325472 C0.843428571,5.18589623 0.97444898,5.29872642 1.21689796,5.37966981 C1.47281633,5.46551887 1.812,5.42504717 2.07771429,5.41891509 C2.17689796,5.41646226 2.58832653,5.35636792 2.56628571,5.34900943 C2.30791837,5.26316038 2.23567347,5.16504717 2.15363265,4.93325472 C2.07771429,4.71740566 0.778530612,4.99948113 0.754040816,4.93325472" id="Fill-142"></path>
                <path d="M5.10195918,0.105471698 C5.1595102,0.13490566 5.21706122,0.163113208 5.27461224,0.19254717 C5.49257143,0.302924528 5.89787755,0.237924528 6.13542857,0.231792453 C6.22481633,0.230566038 6.65828571,0.180283019 6.62522449,0.163113208 C6.56644898,0.133679245 6.50889796,0.105471698 6.45257143,0.0760377358 C6.23461224,-0.0343396226 5.82808163,0.0306603774 5.59053061,0.0367924528 C5.50114286,0.0380188679 5.06767347,0.0883018868 5.10195918,0.105471698" id="Fill-144"></path>
                <path d="M6.63673469,4.15239623 C6.6955102,4.29588679 6.75306122,4.43937736 6.81061224,4.58409434 C6.90122449,4.81098113 8.17714286,4.50069811 8.21020408,4.58409434 C8.15265306,4.43937736 8.09510204,4.29588679 8.03632653,4.15239623 C7.9444898,3.92428302 6.67102041,4.23579245 6.63673469,4.15239623" id="Fill-146"></path>
                <path d="M5.60412245,8.44840566 C6.38779592,8.44840566 6.4135102,8.33557547 5.60412245,8.33557547 C4.82044898,8.33557547 4.79473469,8.44840566 5.60412245,8.44840566" id="Fill-148"></path>
                <path d="M10.9487755,0.695377358 C11.1789796,0.954150943 11.4104082,1.21292453 11.6406122,1.47169811 C11.7410204,1.5845283 12.2026531,1.52811321 12.3410204,1.52811321 C12.4193878,1.52811321 13.0144898,1.44103774 13.0402041,1.47169811 L12.3483673,0.695377358 C12.2491837,0.58254717 11.7863265,0.640188679 11.6491837,0.638962264 C11.5708163,0.638962264 10.9757143,0.724811321 10.9487755,0.695377358" id="Fill-150"></path>
                <path d="M12.3286531,5.97043396 C12.4155918,6.14335849 12.5025306,6.31628302 12.5882449,6.49043396 C12.7106939,6.7369434 13.9327347,6.37883019 13.9878367,6.49043396 C13.9021224,6.31628302 13.8151837,6.14335849 13.7294694,5.97043396 C13.6045714,5.72269811 12.3862041,6.08449057 12.3286531,5.97043396" id="Fill-152"></path>
            </g>
            <g id="Group-167" transform="translate(85.714286, 34.863302)" fill="#B85E26">
                <path d="M0.458081633,5.22734906 C0.546244898,5.47876415 0.678489796,5.59159434 0.919714286,5.67131132 C1.17685714,5.75716038 1.51481633,5.71668868 1.7817551,5.7105566 C1.88093878,5.70810377 2.29114286,5.64923585 2.27032653,5.64187736 C2.01073469,5.5560283 1.93971429,5.45914151 1.85767347,5.22734906 C1.7817551,5.0115 0.481346939,5.29357547 0.458081633,5.22734906" id="Fill-155"></path>
                <path d="M4.80538776,0.39895283 L4.97804082,0.484801887 C5.196,0.595179245 5.60008163,0.530179245 5.83885714,0.52404717 C5.9282449,0.522820755 6.36171429,0.472537736 6.32742857,0.455367925 L6.156,0.369518868 C5.93681633,0.259141509 5.53273469,0.324141509 5.29395918,0.330273585 C5.20457143,0.3315 4.77232653,0.381783019 4.80538776,0.39895283" id="Fill-157"></path>
                <path d="M6.34077551,4.44526415 C6.39832653,4.58998113 6.45587755,4.7334717 6.51465306,4.87818868 C6.60526531,5.10507547 7.87995918,4.79479245 7.9142449,4.87818868 C7.85546939,4.7334717 7.79791837,4.58998113 7.74036735,4.44526415 C7.64853061,4.21837736 6.37383673,4.52866038 6.34077551,4.44526415" id="Fill-159"></path>
                <path d="M5.30755102,8.74066038 C6.09122449,8.74066038 6.11693878,8.62783019 5.30755102,8.62783019 C4.52387755,8.62783019 4.49816327,8.74066038 5.30755102,8.74066038" id="Fill-161"></path>
                <path d="M10.6522041,0.988735849 C10.8824082,1.24750943 11.1138367,1.50628302 11.3428163,1.76628302 C11.4432245,1.87911321 11.9060816,1.82269811 12.0432245,1.82269811 C12.1215918,1.82269811 12.7179184,1.73562264 12.7436327,1.76628302 C12.5134286,1.50628302 12.2832245,1.24750943 12.0517959,0.988735849 C11.9526122,0.87590566 11.4897551,0.93354717 11.3526122,0.932320755 C11.2742449,0.932320755 10.6791429,1.01816981 10.6522041,0.988735849" id="Fill-163"></path>
                <path d="M12.0320816,6.26514151 C12.1190204,6.43806604 12.2059592,6.60976415 12.2916735,6.78268868 C12.4153469,7.03042453 13.6349388,6.66863208 13.6912653,6.78268868 C13.605551,6.60976415 13.5186122,6.43806604 13.432898,6.26514151 C13.308,6.01740566 12.0896327,6.37919811 12.0320816,6.26514151" id="Fill-165"></path>
            </g>
            <path d="M36.6068571,25.7330094 C36.6068571,31.8454623 30.7317551,36.8014057 23.484,36.8014057 C16.2362449,36.8014057 10.3611429,31.8454623 10.3611429,25.7330094 C10.3611429,19.6205566 16.2362449,14.6646132 23.484,14.6646132 C30.7317551,14.6646132 36.6068571,19.6205566 36.6068571,25.7330094" id="Fill-168" fill="#FAAC2F"></path>
            <path d="M11.0515102,29.1918679 C11.0515102,23.0794151 16.9266122,18.1246981 24.1743673,18.1246981 C29.9551837,18.1246981 34.8519184,21.2802642 36.6029388,25.6573396 C36.5539592,19.5804528 30.700898,14.6637547 23.4837551,14.6637547 C16.236,14.6637547 10.360898,19.6196981 10.360898,25.7333774 C10.360898,26.9696038 10.6119184,28.1555472 11.0551837,29.2679057 C11.0551837,29.2409245 11.0515102,29.2176226 11.0515102,29.1918679" id="Fill-170" fill="#FAAC2F"></path>
            <path d="M31.9880816,17.3120755 C33.1599184,18.9689623 33.8444082,20.8981132 33.8444082,22.9658491 C33.8444082,29.0795283 27.9693061,34.0342453 20.721551,34.0342453 C17.4742041,34.0342453 14.5084898,33.0334906 12.2174694,31.3864151 C14.5060408,34.6253774 18.688898,36.8022642 23.484,36.8022642 C30.7317551,36.8022642 36.6068571,31.8463208 36.6068571,25.7326415 C36.6068571,22.3575472 34.8105306,19.3417925 31.9880816,17.3120755" id="Fill-172" fill="#F7A305"></path>
            <g id="Group-186" transform="translate(14.693878, 21.372736)" fill="#B85E26">
                <path d="M0.486122449,5.65843396 C0.575510204,5.90984906 0.707755102,6.02267925 0.948979592,6.10362264 C1.20489796,6.1894717 1.54408163,6.149 1.80979592,6.14286792 C1.90897959,6.14041509 2.32040816,6.08032075 2.29836735,6.07296226 C2.04,5.98711321 1.9677551,5.889 1.88693878,5.65843396 C1.80979592,5.44258491 0.510612245,5.72588679 0.486122449,5.65843396" id="Fill-174"></path>
                <path d="M4.83404082,0.828933962 C4.89159184,0.858367925 4.94914286,0.886575472 5.00669388,0.916009434 C5.22465306,1.02638679 5.62995918,0.961386792 5.8675102,0.955254717 C5.95689796,0.954028302 6.39036735,0.903745283 6.35730612,0.886575472 C6.29853061,0.857141509 6.24097959,0.828933962 6.18465306,0.7995 C5.96669388,0.689122642 5.56016327,0.754122642 5.32261224,0.760254717 C5.23322449,0.761481132 4.7997551,0.811764151 4.83404082,0.828933962" id="Fill-176"></path>
                <path d="M6.36942857,4.8764717 C6.42697959,5.02118868 6.48453061,5.16467925 6.54330612,5.30939623 C6.63391837,5.53628302 7.90983673,5.226 7.94289796,5.30939623 C7.88412245,5.16467925 7.82657143,5.02118868 7.7702449,4.8764717 C7.67840816,4.64958491 6.4024898,4.95864151 6.36942857,4.8764717" id="Fill-178"></path>
                <path d="M5.33632653,9.17248113 C6.12,9.17248113 6.14571429,9.05965094 5.33632653,9.05965094 C4.55265306,9.05965094 4.52693878,9.17248113 5.33632653,9.17248113" id="Fill-180"></path>
                <path d="M10.6814694,1.4199434 C10.9116735,1.67871698 11.1418776,1.93749057 11.3720816,2.19626415 C11.4724898,2.30909434 11.9353469,2.25267925 12.0724898,2.25267925 C12.1508571,2.25267925 12.7459592,2.16560377 12.772898,2.19626415 C12.5426939,1.93749057 12.3124898,1.67871698 12.0822857,1.4199434 C11.9818776,1.30711321 11.5190204,1.36475472 11.3818776,1.3635283 C11.3035102,1.3635283 10.7084082,1.44937736 10.6814694,1.4199434" id="Fill-182"></path>
                <path d="M12.0613469,6.69450943 C12.1470612,6.86743396 12.234,7.04035849 12.3197143,7.21328302 C12.4433878,7.45979245 13.6642041,7.10045283 13.7193061,7.21328302 C13.6335918,7.04035849 13.5466531,6.86743396 13.4621633,6.69450943 C13.3384898,6.448 12.1176735,6.80733962 12.0613469,6.69450943" id="Fill-184"></path>
            </g>
            <g id="Group-199" transform="translate(17.142857, 18.919906)" fill="#B85E26">
                <path d="M0.18955102,5.95191509 C0.278938776,6.2045566 0.411183673,6.31616038 0.652408163,6.39710377 C0.908326531,6.48172642 1.2475102,6.44248113 1.51322449,6.43634906 C1.61240816,6.43389623 2.02383673,6.37380189 2.00179592,6.3664434 C1.74342857,6.28059434 1.67118367,6.18370755 1.59036735,5.95191509 C1.51322449,5.73606604 0.214040816,6.01814151 0.18955102,5.95191509" id="Fill-187"></path>
                <path d="M4.53746939,1.12351887 C4.59502041,1.15172642 4.65257143,1.18116038 4.71012245,1.20936792 C4.92930612,1.31974528 5.33216327,1.25474528 5.57093878,1.24861321 C5.66155102,1.24738679 6.09379592,1.19710377 6.06073469,1.17993396 C6.00195918,1.1505 5.94440816,1.12229245 5.88808163,1.09408491 C5.66767347,0.984933962 5.26481633,1.04870755 5.02604082,1.05483962 C4.93665306,1.05606604 4.50440816,1.10634906 4.53746939,1.12351887" id="Fill-189"></path>
                <path d="M6.0722449,5.16983019 C6.13102041,5.31454717 6.18857143,5.45803774 6.24612245,5.60275472 C6.33795918,5.82964151 7.61265306,5.51935849 7.64693878,5.60275472 C7.58816327,5.45803774 7.53061224,5.31454717 7.47306122,5.16983019 C7.38,4.94171698 6.10653061,5.25322642 6.0722449,5.16983019" id="Fill-191"></path>
                <path d="M5.0397551,9.46583962 C5.82342857,9.46583962 5.84914286,9.35300943 5.0397551,9.35300943 C4.25608163,9.35300943 4.23036735,9.46583962 5.0397551,9.46583962" id="Fill-193"></path>
                <path d="M10.3842857,1.71219811 C10.6144898,1.9709717 10.8446939,2.2309717 11.0761224,2.48974528 C11.1765306,2.60257547 11.6381633,2.54493396 11.7765306,2.54616038 C11.854898,2.54616038 12.45,2.45908491 12.4757143,2.48974528 C12.2455102,2.2309717 12.0153061,1.9709717 11.785102,1.71219811 C11.6846939,1.59936792 11.2218367,1.65700943 11.0846939,1.65578302 C11.0063265,1.65578302 10.4112245,1.74163208 10.3842857,1.71219811" id="Fill-195"></path>
                <path d="M11.764898,6.98786792 C11.8518367,7.16079245 11.937551,7.3349434 12.0244898,7.50786792 C12.1469388,7.75437736 13.3677551,7.39503774 13.4240816,7.50786792 C13.3371429,7.3349434 13.2514286,7.16079245 13.1644898,6.98786792 C13.0420408,6.74135849 11.8212245,7.10069811 11.764898,6.98786792" id="Fill-197"></path>
            </g>
            <path d="M96.697102,25.2718774 C96.697102,31.3843302 90.822,36.3402736 83.5742449,36.3402736 C76.3264898,36.3402736 70.4501633,31.3843302 70.4501633,25.2718774 C70.4501633,19.1594245 76.3264898,14.2034811 83.5742449,14.2034811 C90.822,14.2034811 96.697102,19.1594245 96.697102,25.2718774" id="Fill-200" fill="#FAAC2F"></path>
            <path d="M71.1418776,28.7307358 C71.1418776,22.618283 77.0169796,17.6623396 84.2647347,17.6623396 C90.045551,17.6623396 94.9435102,20.8191321 96.6933061,25.1962075 C96.6443265,19.1193208 90.7912653,14.2026226 83.5741224,14.2026226 C76.3263673,14.2026226 70.4512653,19.158566 70.4512653,25.2722453 C70.4512653,26.5084717 70.7022857,27.6944151 71.145551,28.8055472 C71.145551,28.7810189 71.1418776,28.7564906 71.1418776,28.7307358" id="Fill-202" fill="#FAAC2F"></path>
            <path d="M92.0783265,16.851066 C93.2501633,18.5079528 93.9346531,20.4358774 93.9346531,22.5048396 C93.9346531,28.6185189 88.059551,33.5732358 80.8105714,33.5732358 C77.5632245,33.5732358 74.5987347,32.5724811 72.3064898,30.9254057 C74.5962857,34.1643679 78.7791429,36.3412547 83.5742449,36.3412547 C90.822,36.3412547 96.697102,31.3853113 96.697102,25.2716321 C96.697102,21.8977642 94.902,18.880783 92.0783265,16.851066" id="Fill-204" fill="#F7A305"></path>
            <g id="Group-218" transform="translate(74.693878, 21.372736)" fill="#B85E26">
                <path d="M0.576367347,5.19742453 C0.665755102,5.44883962 0.798,5.56166981 1.03922449,5.64261321 C1.29514286,5.72846226 1.63432653,5.68799057 1.90004082,5.68185849 C1.99922449,5.67940566 2.41065306,5.61931132 2.38861224,5.61195283 C2.1302449,5.52610377 2.058,5.42799057 1.97718367,5.19742453 C1.90004082,4.98157547 0.600857143,5.26487736 0.576367347,5.19742453" id="Fill-206"></path>
                <path d="M4.92428571,0.369028302 C4.98183673,0.397235849 5.03938776,0.426669811 5.09693878,0.454877358 C5.31612245,0.565254717 5.71897959,0.500254717 5.9577551,0.494122642 C6.04836735,0.492896226 6.48061224,0.442613208 6.44755102,0.425443396 C6.38877551,0.396009434 6.33122449,0.367801887 6.27489796,0.33959434 C6.0544898,0.229216981 5.65163265,0.294216981 5.41285714,0.300349057 C5.32346939,0.301575472 4.89122449,0.351858491 4.92428571,0.369028302" id="Fill-208"></path>
                <path d="M6.45979592,4.41533962 C6.51734694,4.5600566 6.57612245,4.70354717 6.63244898,4.84826415 C6.72306122,5.07515094 8.00020408,4.76609434 8.03326531,4.84826415 C7.97571429,4.70354717 7.91693878,4.5600566 7.86061224,4.41533962 C7.76877551,4.18845283 6.49285714,4.49873585 6.45979592,4.41533962" id="Fill-210"></path>
                <path d="M5.42657143,8.71134906 C6.2102449,8.71134906 6.23595918,8.59851887 5.42657143,8.59851887 C4.64289796,8.59851887 4.61718367,8.71134906 5.42657143,8.71134906" id="Fill-212"></path>
                <path d="M10.7717143,0.957584906 C11.0019184,1.21758491 11.2321224,1.47635849 11.463551,1.73635849 C11.5627347,1.84918868 12.0255918,1.79277358 12.1627347,1.79277358 C12.241102,1.79277358 12.8374286,1.70692453 12.8631429,1.73635849 C12.6329388,1.47635849 12.4027347,1.21758491 12.1725306,0.957584906 C12.0721224,0.844754717 11.6092653,0.901169811 11.4721224,0.901169811 C11.3937551,0.901169811 10.7974286,0.987018868 10.7717143,0.957584906" id="Fill-214"></path>
                <path d="M12.1523265,6.23337736 C12.2380408,6.40630189 12.3249796,6.57922642 12.4106939,6.75215094 C12.5343673,6.99866038 13.7539592,6.63932075 13.8102857,6.75215094 C13.7245714,6.57922642 13.6376327,6.40630189 13.5519184,6.23337736 C13.4282449,5.98686792 12.2074286,6.34620755 12.1523265,6.23337736" id="Fill-216"></path>
            </g>
            <g id="Group-231" transform="translate(77.142857, 18.919906)" fill="#B85E26">
                <path d="M0.279918367,5.49078302 C0.369306122,5.74219811 0.50277551,5.8550283 0.74277551,5.9359717 C0.998693878,6.02182075 1.33910204,5.98134906 1.60481633,5.97521698 C1.704,5.97276415 2.11542857,5.91266981 2.09338776,5.90531132 C1.83502041,5.81946226 1.76155102,5.72134906 1.6795102,5.49078302 C1.60359184,5.27493396 0.304408163,5.55823585 0.279918367,5.49078302" id="Fill-219"></path>
                <path d="M4.62783673,0.661160377 C4.68538776,0.69059434 4.74293878,0.718801887 4.8004898,0.748235849 C5.01844898,0.858613208 5.4237551,0.793613208 5.66130612,0.787481132 C5.75069388,0.786254717 6.18416327,0.735971698 6.15110204,0.718801887 C6.09232653,0.689367925 6.03477551,0.661160377 5.97844898,0.631726415 C5.7604898,0.521349057 5.35395918,0.586349057 5.11640816,0.592481132 C5.02702041,0.593707547 4.59355102,0.643990566 4.62783673,0.661160377" id="Fill-221"></path>
                <path d="M6.16261224,4.70869811 C6.22138776,4.85341509 6.27893878,4.99690566 6.3364898,5.14162264 C6.42832653,5.36850943 7.70302041,5.05822642 7.73730612,5.14162264 C7.67853061,4.99690566 7.62097959,4.85341509 7.56220408,4.70869811 C7.47036735,4.48058491 6.19689796,4.79209434 6.16261224,4.70869811" id="Fill-223"></path>
                <path d="M5.13061224,9.00483019 C5.91428571,9.00483019 5.94,8.892 5.13061224,8.892 C4.34693878,8.892 4.32122449,9.00483019 5.13061224,9.00483019" id="Fill-225"></path>
                <path d="M10.4746531,1.25106604 C10.7048571,1.50983962 10.9350612,1.76983962 11.1664898,2.02861321 C11.266898,2.1414434 11.7285306,2.0850283 11.866898,2.0850283 C11.9452653,2.0850283 12.5403673,1.99795283 12.5660816,2.02861321 C12.3358776,1.76983962 12.1056735,1.50983962 11.8754694,1.25106604 C11.7750612,1.13823585 11.3122041,1.19587736 11.1750612,1.19465094 C11.0966939,1.19465094 10.5015918,1.2805 10.4746531,1.25106604" id="Fill-227"></path>
                <path d="M11.8551429,6.52685849 C11.9408571,6.69978302 12.0277959,6.87270755 12.1135102,7.04563208 C12.2371837,7.29214151 13.458,6.93280189 13.5143265,7.04563208 C13.4273878,6.87270755 13.3416735,6.69978302 13.2559592,6.52685849 C13.1322857,6.28034906 11.9114694,6.63968868 11.8551429,6.52685849" id="Fill-229"></path>
            </g>
            <path d="M12.9576735,45.864 C12.9576735,45.864 7.5784898,55.7709811 14.2409388,56.0677736 C20.9033878,56.3657925 23.1062449,53.7400377 27.2401224,57.5603208 C31.374,61.3818302 35.1160408,63.9180566 39.6944082,62.4549434 C44.2727755,60.9918302 44.1980816,56.2603208 53.4772653,58.9866415 C62.756449,61.7129623 65.9217551,66.0348491 69.7654286,64.3374906 C73.609102,62.6364528 70.9323673,57.5149434 77.4454286,57.7957925 C83.9560408,58.0754151 82.6078776,63.8076792 90.6784898,61.0641887 C98.749102,58.3194717 104.653592,53.1967358 101.957265,48.7767358 C99.2597143,44.3555094 93.9197143,33.6918302 77.0719592,33.3079623 C60.2229796,32.9253208 20.1160408,30.9753208 12.9576735,45.864" id="Fill-232" fill="#3A7224"></path>
            <path d="M12.7537959,44.1824623 C12.7537959,44.1824623 7.37461224,54.0894434 14.0370612,54.3862358 C20.6995102,54.6842547 22.9023673,52.0585 27.0362449,55.878783 C31.1701224,59.7002925 34.9121633,62.2377453 39.4905306,60.7734057 C44.068898,59.3127453 43.9942041,54.578783 53.2733878,57.3038774 C62.5525714,60.0314245 65.7166531,64.3533113 69.561551,62.6559528 C73.4052245,60.9561415 70.7284898,55.8358585 77.2403265,56.1142547 C83.7521633,56.3938774 82.404,62.1273679 90.4746122,59.3851038 C98.5452245,56.637934 104.449714,51.5164245 101.752163,47.0951981 C99.0558367,42.6751981 93.7158367,32.0102925 76.8680816,31.6264245 C60.019102,31.243783 19.9121633,29.293783 12.7537959,44.1824623" id="Fill-234" fill="#1E9B06"></path>
            <path d="M39.5986531,48.0677453 C39.2264082,49.8951038 39.0819184,51.7948208 39.121102,53.7301038 C39.1664082,56.0112358 39.4149796,58.3635 40.0578367,60.5649151 C41.4072245,60.0093491 42.3415102,59.1692547 43.3198776,58.3917075 C43.1766122,56.6121792 42.8962041,54.8228396 42.4174286,53.1414245 C41.9753878,51.588783 40.928449,49.7920849 39.5986531,48.0677453" id="Fill-236" fill="#1E9B06"></path>
            <path d="M70.593551,43.8112264 C69.9127347,48.0411321 70.600898,52.7284906 72.3323265,56.6358491 C72.4915102,56.9927358 72.6641633,57.380283 72.8515102,57.7788679 C73.5237551,56.7437736 74.6588571,56.0030189 77.2400816,56.1133962 C78.3702857,56.1636792 79.2592653,56.3770755 80.0062041,56.6812264 C80.9906939,49.8525472 79.5543673,42.069717 75.3506939,36.5618868 C72.8637551,37.7331132 71.1262041,40.5011321 70.593551,43.8112264" id="Fill-238" fill="#1E9B06"></path>
            <path d="M91.6203673,55.2896132 C92.2007755,54.1858396 91.9975102,52.5927264 91.5897551,51.1050849 C91.2493469,51.7832925 91.0632245,52.5350849 91.0534286,53.3114057 C91.0473061,53.8853679 91.0913878,54.9805566 91.4942449,55.4122547 C91.5236327,55.4429151 91.5383265,55.4649906 91.5591429,55.4907453 C91.5652653,55.4331038 91.5787347,55.3656509 91.6203673,55.2896132" id="Fill-240" fill="#1E9B06"></path>
            <path d="M91.893551,39.4342736 C92.6429388,40.5797453 93.4339592,41.8858774 94.1723265,43.2839906 C95.8743673,42.8890849 97.6719184,42.8792736 99.398449,43.3085189 C96.8392653,39.5446509 92.673551,34.9247453 85.1013061,32.7944623 C87.8478367,34.4538019 90.2196735,36.8686132 91.893551,39.4342736" id="Fill-242" fill="#1E9B06"></path>
            <path d="M44.1707755,31.9093585 C38.8650612,32.3312453 33.669551,33.036434 29.0422041,34.1708679 C31.4556735,35.0477547 33.7503673,36.1981321 35.8013878,37.5165283 C36.5017959,37.9666226 37.1813878,38.4510566 37.8401633,38.9600189 C39.5348571,36.3244528 41.6985306,33.9378491 44.1707755,31.9093585" id="Fill-244" fill="#1E9B06"></path>
            <path d="M85.9290612,51.8091698 C86.2964082,49.2606792 87.6127347,47.1451132 89.436,45.6243585 C87.7143673,42.0812453 85.3388571,38.7711509 81.7988571,36.9523774 C81.7890612,36.9462453 81.7780408,36.942566 81.7682449,36.9388868 C85.3682449,43.811717 86.2829388,52.4824717 84.751102,59.757566 C85.6376327,60.1169057 86.7347755,60.2542642 88.2886531,59.9685094 C86.1898776,57.9915283 85.5396735,54.5109623 85.9290612,51.8091698" id="Fill-246" fill="#1E9B06"></path>
            <path d="M12.7537959,44.1824623 C12.7537959,44.1824623 8.83665306,51.4048208 11.8403265,53.6994434 C12.6031837,53.7117075 13.3782857,53.5743491 14.0823673,53.3204811 C19.528898,51.3594434 21.4023673,46.0294434 21.6129796,40.7215189 C21.6509388,39.7600094 21.6729796,38.8119906 21.6962449,37.8713302 C21.2211429,37.8210472 20.7448163,37.7818019 20.2660408,37.7621792 C19.9623673,37.7486887 19.6599184,37.7462358 19.3586939,37.7511415 C16.3305306,39.4350094 14.0235918,41.543217 12.7537959,44.1824623" id="Fill-248" fill="#1E9B06"></path>
            <path d="M100.317918,49.5455755 C99.2342449,48.5558585 97.7575102,48.1486887 96.3003673,48.2406698 C97.1917959,51.0258585 97.5407755,53.8956698 96.7558776,56.4919906 C99.0309796,55.0951038 100.778327,53.503217 101.695469,51.8647264 C101.219143,50.794066 100.636286,49.8350094 100.317918,49.5455755" id="Fill-250" fill="#1E9B06"></path>
            <path d="M65.1216735,47.4161509 C64.9943265,42.012566 66.7624898,35.802 71.2575918,32.6366226 C70.5522857,32.1607736 69.8261633,31.7670943 69.0865714,31.4347358 C65.1939184,31.352566 60.8090204,31.2949245 56.238,31.367283 C51.675551,32.9530377 47.3837143,35.9136038 44.1939184,39.1734151 C43.1824898,40.2060566 42.3510612,41.3196415 41.6702449,42.4957736 C45.2371837,46.4239811 47.7253469,51.286717 48.5800408,56.4805849 C49.8253469,56.4965283 51.3461633,56.7393585 53.2735102,57.3047358 C62.5416735,60.0286038 65.7094286,64.3419057 69.5469796,62.6604906 C66.5592245,58.2748302 65.2416735,52.5180377 65.1216735,47.4161509" id="Fill-252" fill="#1E9B06"></path>
            <path d="M33.9156735,50.5756415 C34.0417959,48.2160189 34.5658776,45.9164906 35.409551,43.7199811 C35.1707755,43.5237547 34.9332245,43.3348868 34.6956735,43.1570566 C32.3336327,41.382434 29.6948571,39.9561132 26.8993469,39.0142264 C26.896898,39.692434 26.889551,40.3669623 26.8626122,41.0304528 C26.6740408,45.7975283 25.2511837,50.3843208 22.3307755,53.782717 C23.8760816,53.7998868 25.2830204,54.2597925 27.0364898,55.8786604 C29.6128163,58.2628113 32.0360816,60.1441321 34.6062857,60.8701698 C33.8066939,57.4190377 33.7503673,53.6796981 33.9156735,50.5756415" id="Fill-254" fill="#1E9B06"></path>
            <path d="M73.6081224,8.1199717 L85.8811837,5.90751887 C85.8811837,5.90751887 84.226898,0.47940566 88.7575102,0.247613208 C93.286898,0.0158207547 93.0811837,9.46780189 87.6591429,9.7449717 C87.6591429,9.7449717 94.7158776,7.79865094 94.9791429,12.9532736 C95.2411837,18.1103491 86.6024082,16.0021415 85.1489388,11.8028962 L74.806898,12.744783 L73.6081224,8.1199717 Z" id="Fill-256" fill="#DDC774"></path>
            <path d="M38.3376735,37.0090377 C43.5442041,45.7202642 67.3360408,44.3479057 69.3246122,29.3598868 C71.3119592,14.3718679 78.6686939,12.8928113 78.6686939,12.8928113 L76.1633878,6.95573585 C76.1633878,6.95573585 22.9911429,11.3315849 38.3376735,37.0090377" id="Fill-258" fill="#B85E26"></path>
            <path d="M37.6901633,26.7857642 C46.2713878,17.2638774 59.4211837,11.0054811 72.2073061,10.3518019 C74.0330204,10.2573679 75.8330204,10.2769906 77.6109796,10.3873679 L76.1636327,6.95585849 C76.1636327,6.95585849 34.0117959,10.4241604 35.6011837,29.3097264 C36.279551,28.4352925 36.9713878,27.5817075 37.6901633,26.7857642" id="Fill-260" fill="#FFFFFF"></path>
            <path d="M76.1635102,6.95585849 C76.1635102,6.95585849 75.1520816,7.03925472 73.4561633,7.2489717 C71.2349388,14.8539717 67.2492245,22.1241604 62.4063673,27.4958585 C57.1802449,33.2955755 50.2569796,37.8725566 42.7557551,40.7215189 C51.4459592,44.7711415 67.6961633,41.6339717 69.3247347,29.3600094 C71.3120816,14.3719906 78.6675918,12.892934 78.6675918,12.892934 L76.1635102,6.95585849 Z" id="Fill-262" fill="#B85E26"></path>
            <path d="M13.0945714,46.8365472 C9.81171429,35.1917358 31.9933469,6.29249057 54.4357959,7.70286792 C76.8782449,9.1144717 88.5390612,20.0491887 98.2541633,47.243717 C98.2541633,47.243717 101.904367,53.0385283 75.6366122,53.5511698 C49.3700816,54.0638113 15.3047755,54.6770189 13.0945714,46.8365472" id="Fill-264" fill="#AC571E"></path>
            <path d="M98.2546531,47.243717 C95.1530204,38.5606981 91.8505714,31.5443774 88.064449,25.9568302 C85.544449,29.5158868 82.7097551,32.7352264 79.6938367,35.4002264 C68.9305714,44.9086226 53.4946531,50.2018302 39.1742449,49.3016415 C29.6379184,48.7019245 20.9366939,45.6248491 13.2273061,40.7449434 C12.6922041,43.0444717 12.6138367,45.1306038 13.0950612,46.8365472 C15.3040408,54.6770189 49.3705714,54.0638113 75.637102,53.5511698 C101.903633,53.0385283 98.2546531,47.243717 98.2546531,47.243717" id="Fill-266" fill="#AC571E"></path>
            <path d="M96.4992245,18.6163679 L110.444939,17.7161792 C110.444939,17.7161792 109.293918,11.4614623 114.365755,11.7803302 C119.438816,12.0991981 118.008612,22.5960849 111.937592,22.2158962 C111.937592,22.2158962 120.04249,20.9465566 119.680041,26.7192925 C119.318816,32.4932547 109.966163,29.0470283 108.881265,24.1867453 L97.2473878,23.9193868 L96.4992245,18.6163679 Z" id="Fill-268" fill="#DDC774"></path>
            <path d="M53.5612653,46.2903019 C58.2522857,56.652283 84.9167755,58.1521887 89.0322857,41.717 C93.1490204,25.2842642 101.52698,24.5741698 101.52698,24.5741698 L99.4918776,17.6461509 C99.4918776,17.6461509 39.7343265,15.7439811 53.5612653,46.2903019" id="Fill-270" fill="#B85E26"></path>
            <path d="M54.1376327,34.8233208 C64.9021224,25.3161509 80.3368163,20.0229434 94.6572245,20.9219057 C96.700898,21.0519057 98.7029388,21.3020943 100.668245,21.6516226 L99.4927347,17.6461509 C99.4927347,17.6461509 52.1196735,16.1388868 51.4915102,37.3669057 C52.358449,36.4802075 53.2364082,35.6192642 54.1376327,34.8233208" id="Fill-272" fill="#CB6A2D"></path>
            <path d="M99.4922449,17.6462736 C99.4922449,17.6462736 98.3559184,17.6107075 96.4408163,17.6278774 C93.0012245,25.8117453 87.6404082,33.3995755 81.5669388,38.7639151 C75.0110204,44.5538208 66.722449,48.7665566 58.0102041,50.9851415 C67.1706122,56.6021226 85.6616327,55.1794811 89.0326531,41.7171226 C93.1493878,25.2843868 101.527347,24.5742925 101.527347,24.5742925 L99.4922449,17.6462736 Z" id="Fill-274" fill="#B85E26"></path>
            <path d="M23.1200816,44.4531321 C23.1200816,44.4531321 44.5474286,37.4527547 51.2502857,48.6953019 C57.9531429,59.9353962 14.9331429,51.9771887 14.9331429,51.9771887 C14.9331429,51.9771887 13.7821224,45.7200189 23.1200816,44.4531321" id="Fill-276" fill="#B85E26"></path>
            <path d="M14.9522449,51.6678868 C14.9522449,51.6678868 29.6314286,53.8263774 36.6489796,40.3566604 C43.6653061,26.8869434 42.3979592,27.426566 42.3979592,27.426566 C42.3979592,27.426566 13.4583673,31.1720377 14.9522449,51.6678868" id="Fill-278" fill="#B85E26"></path>
            <path d="M38.176898,34.216 C38.7230204,34.1767547 39.2691429,34.1387358 39.8152653,34.0994906 C43.2279184,27.0758113 42.3977143,27.426566 42.3977143,27.426566 C42.3977143,27.426566 20.5332245,30.2632642 15.8017959,44.4725094 C22.4385306,39.416 29.8932245,35.9893962 38.176898,34.216" id="Fill-280" fill="#CB6A2D"></path>
            <path d="M48.0236327,45.2244245 C44.9893469,46.886217 41.7652653,48.1653679 38.3391429,49.0496132 C32.3109796,51.7514057 25.9779184,52.9729151 19.3375102,52.7116887 C30.1240408,54.3894245 56.6158776,57.6921604 51.2501633,48.6951792 C50.3917959,47.2553679 49.2897551,46.1184811 48.0236327,45.2244245" id="Fill-282" fill="#B85E26"></path>
        </g>
    </g>
</svg>