<?xml version="1.0" encoding="UTF-8"?>
<svg width="120px" height="120px" viewBox="0 0 120 120" version="1.1" xmlns="http://www.w3.org/2000/svg" xmlns:xlink="http://www.w3.org/1999/xlink">
    <!-- Generator: Sketch 51.1 (57501) - http://www.bohemiancoding.com/sketch -->
    <title>Cactus14</title>
    <desc>Created with Sketch.</desc>
    <defs>
        <polygon id="path-1" points="0.130005917 0.269720753 45.7914324 0.269720753 45.7914324 99.7297297 0.130005917 99.7297297"></polygon>
        <polygon id="path-3" points="0.386027027 0.269720753 46.0477983 0.269720753 46.0477983 99.7297297 0.386027027 99.7297297"></polygon>
        <polygon id="path-5" points="0.386027027 0.269720753 39.2175398 0.269720753 39.2175398 99.7297297 0.386027027 99.7297297"></polygon>
        <polygon id="path-7" points="0.48437108 0.269720753 36.0617027 0.269720753 36.0617027 99.7297297 0.48437108 99.7297297"></polygon>
        <polygon id="path-9" points="0.386027027 0.269720753 35.9637034 0.269720753 35.9637034 99.7297297 0.386027027 99.7297297"></polygon>
        <polygon id="path-11" points="0.492907441 0.269720753 33.6292703 0.269720753 33.6292703 99.7297297 0.492907441 99.7297297"></polygon>
        <polygon id="path-13" points="0.386027027 0.269720753 33.5227346 0.269720753 33.5227346 99.7297297 0.386027027 99.7297297"></polygon>
        <polygon id="path-15" points="0.386027027 0.269720753 24.855655 0.269720753 24.855655 99.7297297 0.386027027 99.7297297"></polygon>
        <polygon id="path-17" points="0.58455661 0.269720753 28.7644054 0.269720753 28.7644054 99.7297297 0.58455661 99.7297297"></polygon>
        <polygon id="path-19" points="0.00478581848 0.269720753 19.0346757 0.269720753 19.0346757 99.7297297 0.00478581848 99.7297297"></polygon>
        <polygon id="path-21" points="0.386027027 0.269720753 19.4159169 0.269720753 19.4159169 99.7297297 0.386027027 99.7297297"></polygon>
        <polygon id="path-23" points="0.415975815 0.269720753 16.6022432 0.269720753 16.6022432 99.7297297 0.415975815 99.7297297"></polygon>
        <polygon id="path-25" points="0.386027027 0.269720753 16.5726281 0.269720753 16.5726281 99.7297297 0.386027027 99.7297297"></polygon>
    </defs>
    <g id="Cactus14" stroke="none" stroke-width="1" fill="none" fill-rule="evenodd">
        <g id="Group" transform="translate(9.000000, 0.000000)">
            <polygon id="Fill-1" fill="#FFF8B9" points="48.4708378 0.810243243 49.0132703 16.5407838 41.9519189 3.79402703 46.7081351 16.4061892 34.6392162 9.08213514 44.9446216 18.7113243 33.6784054 15.4567297 46.160027 22.3275405 56.8765135 23.9742973 71.7970541 16.1337568 60.7132703 18.9821351 68.6413784 13.2861892 58.5054324 17.7618649 66.9135405 4.20024324 55.5232703 16.9486216 58.0992162 1.35348649 53.0389459 17.0832162"></polygon>
            <g id="Group-119" transform="translate(0.000000, 19.144865)">
                <path d="M94.889027,30.2155135 C83.6917297,1.44227027 53.249027,1.07821622 51.5495676,1.08064865 L51.5406486,1.08064865 L51.534973,1.08064865 L51.522,1.08064865 L51.5082162,1.08064865 L51.5017297,1.08064865 C51.479027,1.08064865 51.4668649,1.08064865 51.4668649,1.08064865 C51.4668649,1.08064865 51.4555135,1.08064865 51.4328108,1.08064865 L51.4247027,1.08064865 L51.4076757,1.08064865 L51.3987568,1.08064865 L51.3898378,1.08064865 C49.7860541,1.07740541 19.2614595,1.39362162 8.04551351,30.2155135 C-3.47448649,59.819027 9.81794595,83.5733514 29.7565946,98.8441622 C29.7565946,98.8441622 41.7192973,100.540378 51.4668649,100.540378 C61.2152432,100.540378 73.1787568,98.8441622 73.1787568,98.8441622 C93.1165946,83.5733514 106.409027,59.819027 94.889027,30.2155135" id="Fill-2" fill="#BBD531"></path>
                <g id="Group-6" transform="translate(5.675676, 0.810811)">
                    <mask id="mask-2" fill="white">
                        <use xlink:href="#path-1"></use>
                    </mask>
                    <g id="Clip-5"></g>
                    <path d="M45.7914324,0.269720753 C45.7914324,0.269720753 15.2506216,-0.198486486 4.22116216,29.405027 C-6.80667568,59.0077297 5.91818919,82.7620541 25.0062973,98.0336757 C25.0062973,98.0336757 36.459,99.7298919 45.7914324,99.7298919 L45.7914324,0.269720753 Z" id="Fill-4" fill="#8BC53F" mask="url(#mask-2)"></path>
                </g>
                <g id="Group-9" transform="translate(51.081081, 0.810811)">
                    <mask id="mask-4" fill="white">
                        <use xlink:href="#path-3"></use>
                    </mask>
                    <g id="Clip-8"></g>
                    <path d="M0.386027027,0.269720753 C0.386027027,0.269720753 30.9276486,-0.198486486 41.9562973,29.405027 C52.9849459,59.0077297 40.2592703,82.7620541 21.1711622,98.0336757 C21.1711622,98.0336757 9.71845946,99.7298919 0.386027027,99.7298919 L0.386027027,0.269720753 Z" id="Fill-7" fill="#7EB239" mask="url(#mask-4)"></path>
                </g>
                <g id="Group-12" transform="translate(51.081081, 0.810811)">
                    <mask id="mask-6" fill="white">
                        <use xlink:href="#path-5"></use>
                    </mask>
                    <g id="Clip-11"></g>
                    <path d="M0.386027027,0.269720753 C0.386027027,0.269720753 26.3587297,-0.198486486 35.7381892,29.405027 C45.1168378,59.0077297 34.2949459,82.7620541 18.0625135,98.0336757 C18.0625135,98.0336757 8.32224324,99.7298919 0.386027027,99.7298919 L0.386027027,0.269720753 Z" id="Fill-10" fill="#75A735" mask="url(#mask-6)"></path>
                </g>
                <g id="Group-15" transform="translate(15.405405, 0.810811)">
                    <mask id="mask-8" fill="white">
                        <use xlink:href="#path-7"></use>
                    </mask>
                    <g id="Clip-14"></g>
                    <path d="M36.0617027,0.269720753 C36.0617027,0.269720753 12.2652162,-0.198486486 3.67224324,29.405027 C-4.92072973,59.0077297 4.99467568,82.7620541 19.8665676,98.0336757 C19.8665676,98.0336757 28.7903514,99.7298919 36.0617027,99.7298919 L36.0617027,0.269720753 Z" id="Fill-13" fill="#BBD531" mask="url(#mask-8)"></path>
                </g>
                <g id="Group-18" transform="translate(51.081081, 0.810811)">
                    <mask id="mask-10" fill="white">
                        <use xlink:href="#path-9"></use>
                    </mask>
                    <g id="Clip-17"></g>
                    <path d="M0.386027027,0.269720753 C0.386027027,0.269720753 24.1825135,-0.198486486 32.7754865,29.405027 C41.3692703,59.0077297 31.4530541,82.7620541 16.5811622,98.0336757 C16.5811622,98.0336757 7.65737838,99.7298919 0.386027027,99.7298919 L0.386027027,0.269720753 Z" id="Fill-16" fill="#AACF37" mask="url(#mask-10)"></path>
                </g>
                <g id="Group-21" transform="translate(17.837838, 0.810811)">
                    <mask id="mask-12" fill="white">
                        <use xlink:href="#path-11"></use>
                    </mask>
                    <g id="Clip-20"></g>
                    <path d="M33.6292703,0.269720753 C33.6292703,0.269720753 11.4657568,-0.198486486 3.46224324,29.405027 C-4.54127027,59.0077297 4.69305405,82.7620541 18.5449459,98.0336757 C18.5449459,98.0336757 26.8565676,99.7298919 33.6292703,99.7298919 L33.6292703,0.269720753 Z" id="Fill-19" fill="#8BC53F" mask="url(#mask-12)"></path>
                </g>
                <g id="Group-24" transform="translate(51.081081, 0.810811)">
                    <mask id="mask-14" fill="white">
                        <use xlink:href="#path-13"></use>
                    </mask>
                    <g id="Clip-23"></g>
                    <path d="M0.386027027,0.269720753 C0.386027027,0.269720753 22.5503514,-0.198486486 30.5530541,29.405027 C38.5573784,59.0077297 29.3222432,82.7620541 15.4703514,98.0336757 C15.4703514,98.0336757 7.15872973,99.7298919 0.386027027,99.7298919 L0.386027027,0.269720753 Z" id="Fill-22" fill="#7EB239" mask="url(#mask-14)"></path>
                </g>
                <g id="Group-27" transform="translate(51.081081, 0.810811)">
                    <mask id="mask-16" fill="white">
                        <use xlink:href="#path-15"></use>
                    </mask>
                    <g id="Clip-26"></g>
                    <path d="M0.386027027,0.269720753 C0.386027027,0.269720753 16.7530541,-0.198486486 22.6630541,29.405027 C28.5730541,59.0077297 21.7541351,82.7620541 11.5241351,98.0336757 C11.5241351,98.0336757 5.38710811,99.7298919 0.386027027,99.7298919 L0.386027027,0.269720753 Z" id="Fill-25" fill="#75A735" mask="url(#mask-16)"></path>
                </g>
                <g id="Group-30" transform="translate(22.702703, 0.810811)">
                    <mask id="mask-18" fill="white">
                        <use xlink:href="#path-17"></use>
                    </mask>
                    <g id="Clip-29"></g>
                    <path d="M28.7644054,0.269720753 C28.7644054,0.269720753 9.9162973,-0.198486486 3.10954054,29.405027 C-3.69640541,59.0077297 4.1562973,82.7620541 15.9373784,98.0336757 C15.9373784,98.0336757 23.0052162,99.7298919 28.7644054,99.7298919 L28.7644054,0.269720753 Z" id="Fill-28" fill="#82B93B" mask="url(#mask-18)"></path>
                </g>
                <g id="Group-33" transform="translate(32.432432, 0.810811)">
                    <mask id="mask-20" fill="white">
                        <use xlink:href="#path-19"></use>
                    </mask>
                    <g id="Clip-32"></g>
                    <path d="M19.0346757,0.269720753 C19.0346757,0.269720753 6.30656757,-0.198486486 1.71008108,29.405027 C-2.88640541,59.0077297 2.41710811,82.7620541 10.371973,98.0336757 C10.371973,98.0336757 15.1452162,99.7298919 19.0346757,99.7298919 L19.0346757,0.269720753 Z" id="Fill-31" fill="#AACF37" mask="url(#mask-20)"></path>
                </g>
                <g id="Group-36" transform="translate(51.081081, 0.810811)">
                    <mask id="mask-22" fill="white">
                        <use xlink:href="#path-21"></use>
                    </mask>
                    <g id="Clip-35"></g>
                    <path d="M0.386027027,0.269720753 C0.386027027,0.269720753 13.1141351,-0.198486486 17.7106216,29.405027 C22.3071081,59.0077297 17.0035946,82.7620541 9.04872973,98.0336757 C9.04872973,98.0336757 4.27548649,99.7298919 0.386027027,99.7298919 L0.386027027,0.269720753 Z" id="Fill-34" fill="#AACF37" mask="url(#mask-22)"></path>
                </g>
                <g id="Group-39" transform="translate(34.864865, 0.810811)">
                    <mask id="mask-24" fill="white">
                        <use xlink:href="#path-23"></use>
                    </mask>
                    <g id="Clip-38"></g>
                    <path d="M16.6022432,0.269720753 C16.6022432,0.269720753 5.77548649,-0.198486486 1.86656757,29.405027 C-2.04316216,59.0077297 2.46737838,82.7620541 9.23440541,98.0336757 C9.23440541,98.0336757 13.2941351,99.7298919 16.6022432,99.7298919 L16.6022432,0.269720753 Z" id="Fill-37" fill="#75A735" mask="url(#mask-24)"></path>
                </g>
                <g id="Group-42" transform="translate(51.081081, 0.810811)">
                    <mask id="mask-26" fill="white">
                        <use xlink:href="#path-25"></use>
                    </mask>
                    <g id="Clip-41"></g>
                    <path d="M0.386027027,0.269720753 C0.386027027,0.269720753 11.2127838,-0.198486486 15.1225135,29.405027 C19.0314324,59.0077297 14.5208919,82.7620541 7.75386486,98.0336757 C7.75386486,98.0336757 3.69413514,99.7298919 0.386027027,99.7298919 L0.386027027,0.269720753 Z" id="Fill-40" fill="#8BC53F" mask="url(#mask-26)"></path>
                </g>
                <path d="M66.8597838,99.0207568 L67.956,90.6953514 L68.1878919,96.7472432 L72.6911351,91.4891351 L69.1787027,97.5061622 L74.9054595,95.0672432 C74.9054595,95.0672432 68.0938378,99.516973 66.8597838,99.0207568 Z M77.2602162,86.2992162 L76.9780541,77.9073243 L78.1967027,83.8392162 L81.7804865,77.9146216 L79.3002162,84.4254324 L84.5494054,81.0824595 C84.5494054,81.0824595 78.5591351,86.5870541 77.2602162,86.2992162 Z M86.5473243,84.8399189 L86.2651622,76.448027 L87.4838108,82.3799189 L91.0675946,76.4553243 L88.5873243,82.9653243 L93.8365135,79.6231622 C93.8365135,79.6231622 87.8462432,85.1269459 86.5473243,84.8399189 Z M94.6632973,70.0976757 L92.5170811,61.9806486 L95.0281622,67.4909189 L97.1995135,60.9160541 L96.2338378,67.8160541 L100.60573,63.3865946 C100.60573,63.3865946 95.9938378,70.0887568 94.6632973,70.0976757 Z M98.2731892,55.4753514 L94.4834595,47.9826486 L98.0875135,52.8499459 L98.8415676,45.966973 L99.3345405,52.9172432 L102.687243,47.6737297 C102.687243,47.6737297 99.5729189,55.1891351 98.2731892,55.4753514 Z M97.7284054,41.918027 L92.5870541,35.2791081 L97.0481351,39.3753243 L96.4846216,32.4745135 L98.2854324,39.2050541 L100.584081,33.4215405 C100.584081,33.4215405 98.9494865,41.391 97.7284054,41.918027 Z M92.5325676,28.5514865 L85.665,23.7206757 L91.1339189,26.3217568 L88.5636486,19.8928378 L92.2658108,25.7947297 L92.7604054,19.5904054 C92.7604054,19.5904054 93.5452703,27.6887838 92.5325676,28.5514865 Z M83.9897838,15.2186757 L76.0641081,12.4481351 L82.0357297,13.455973 L77.8065405,7.97327027 L82.9803243,12.6394865 L81.7608649,6.53651351 C81.7608649,6.53651351 84.7276216,14.1119189 83.9897838,15.2186757 Z M83.8924054,72.8594595 L82.0129459,64.6759459 L84.3424054,70.2656757 L86.7278108,63.7654054 L85.5359189,70.6297297 L90.0513243,66.3462162 C90.0513243,66.3462162 85.2221351,72.8935135 83.8924054,72.8594595 Z M85.9977568,55.4634324 L82.3182973,47.9164054 L85.8501892,52.8355946 L86.7055946,45.9647838 L87.0955946,52.9207297 L90.5261351,47.7274865 C90.5261351,47.7274865 87.3007297,55.1966757 85.9977568,55.4634324 Z M85.008,39.5144595 L80.0855676,32.7125676 L84.4112432,36.9506757 L84.0723243,30.0352703 L85.6525946,36.8209459 L88.1385405,31.1152703 C88.1385405,31.1152703 86.2461081,39.0271622 85.008,39.5144595 Z M80.5556757,23.4946216 L73.872973,18.4116486 L79.2413514,21.2138108 L76.9127027,14.6940811 L80.3918919,20.7297568 L81.1175676,14.5481351 C81.1175676,14.5481351 81.5991892,22.6692162 80.5556757,23.4946216 Z M71.4317027,11.6626216 L64.3014324,7.22910811 L69.909,9.51559459 L66.9787297,3.24235135 L71.0092703,8.92532432 L71.1511622,2.70316216 C71.1511622,2.70316216 72.3941351,10.7431622 71.4317027,11.6626216 Z M63.9903243,87.2683784 L61.1743784,79.3581081 L64.1370811,84.6405405 L65.753027,77.9075676 L65.3646486,84.8635135 L69.353027,80.0854054 C69.353027,80.0854054 65.3151892,87.1483784 63.9903243,87.2683784 Z M68.4569189,72.203027 L65.0304324,64.5376216 L68.3977297,69.5711351 L69.480973,62.7327568 L69.6390811,69.6984324 L73.2398919,64.6219459 C73.2398919,64.6219459 69.768,71.9800541 68.4569189,72.203027 Z M70.5409459,55.5034865 L66.0077027,48.4356486 L70.0885135,52.9105135 L70.1387838,45.9861892 L71.3347297,52.8505135 L74.1385135,47.2932162 C74.1385135,47.2932162 71.8041892,55.0867297 70.5409459,55.5034865 Z M68.5170811,39.5335135 L63.9838378,32.4656757 L68.0646486,36.9405405 L68.1149189,30.0162162 L69.3108649,36.8805405 L72.1146486,31.3232432 C72.1146486,31.3232432 69.7803243,39.1167568 68.5170811,39.5335135 Z M66.083027,23.0860541 L60.7138378,16.6303784 L65.3151892,20.5692973 L64.5116757,13.6911892 L66.5443784,20.3552432 L68.6411351,14.4955135 C68.6411351,14.4955135 67.2846486,22.5168649 66.083027,23.0860541 Z M60.465973,9.50140541 L53.0389459,5.58518919 L58.7940811,7.46789189 L55.425973,1.41843243 L59.8497568,6.80140541 L59.5505676,0.584108108 C59.5505676,0.584108108 61.3602973,8.51627027 60.465973,9.50140541 Z M35.8272973,98.807027 C34.5940541,99.3032432 27.7824324,94.8535135 27.7824324,94.8535135 L33.5091892,97.2916216 L29.9959459,91.2754054 L34.5,96.5335135 L34.7318919,90.4816216 L35.8272973,98.807027 Z M25.4276757,86.0854054 C24.1287568,86.3724324 18.1384865,80.8686486 18.1384865,80.8686486 L23.3876757,84.2108108 L20.9074054,77.7008108 L24.4903784,83.6254054 L25.7098378,77.6935135 L25.4276757,86.0854054 Z M16.1405676,84.6261081 C14.8416486,84.9131351 8.85137838,79.4093514 8.85137838,79.4093514 L14.1005676,82.7515135 L11.6202973,76.2415135 L15.2032703,82.1661081 L16.4227297,76.2342162 L16.1405676,84.6261081 Z M8.02459459,69.8838649 C6.69405405,69.8749459 2.08216216,63.1727838 2.08216216,63.1727838 L6.45405405,67.6022432 L5.48837838,60.7022432 L7.65972973,67.2771081 L10.1708108,61.7668378 L8.02459459,69.8838649 Z M4.41389189,55.2615405 C3.11497297,54.9753243 0.000648648649,47.4599189 0.000648648649,47.4599189 L3.35335135,52.7026216 L3.84632432,45.7531622 L4.59956757,52.6361351 L8.20443243,47.7688378 L4.41389189,55.2615405 Z M4.95948649,41.7042162 C3.73840541,41.1771892 2.10381081,33.2077297 2.10381081,33.2077297 L4.40245946,38.9912432 L6.20245946,32.2607027 L5.63975676,39.1615135 L10.1008378,35.0652973 L4.95948649,41.7042162 Z M10.1553243,28.3377568 C9.14262162,27.4750541 9.92748649,19.3766757 9.92748649,19.3766757 L10.4220811,25.581 L14.1242432,19.6782973 L11.553973,26.108027 L17.0228919,23.5069459 L10.1553243,28.3377568 Z M18.6981081,15.0048649 C17.9602703,13.8981081 20.927027,6.3227027 20.927027,6.3227027 L19.7075676,12.4256757 L24.8813514,7.75945946 L20.6521622,13.2421622 L26.6237838,12.2343243 L18.6981081,15.0048649 Z M18.7954865,72.6453243 C17.4657568,72.6793784 12.6365676,66.1320811 12.6365676,66.1320811 L17.151973,70.4164054 L15.9600811,63.5520811 L18.3454865,70.0523514 L20.6749459,64.4618108 L18.7954865,72.6453243 Z M16.6901351,55.2497027 C15.3871622,54.9829459 12.1617568,47.5137568 12.1617568,47.5137568 L15.5922973,52.707 L15.9822973,45.7510541 L16.8377027,52.6218649 L20.3695946,47.7026757 L16.6901351,55.2497027 Z M17.6790811,39.3007297 C16.4417838,38.8134324 14.5493514,30.9015405 14.5493514,30.9015405 L17.0352973,36.6072162 L18.6155676,29.8215405 L18.2766486,36.7369459 L22.6015135,32.4988378 L17.6790811,39.3007297 Z M22.1322162,23.2808108 C21.0887027,22.4554054 21.5703243,14.3343243 21.5703243,14.3343243 L22.296,20.5159459 L25.7751892,14.4802703 L23.4465405,21 L28.8149189,18.197027 L22.1322162,23.2808108 Z M31.2561892,11.4484865 C30.2937568,10.5298378 31.5367297,2.48902703 31.5367297,2.48902703 L31.6786216,8.712 L35.7091622,3.02821622 L32.7788919,9.30227027 L38.3864595,7.01497297 L31.2561892,11.4484865 Z M38.6975676,87.0545676 C37.3727027,86.9345676 33.3348649,79.8715946 33.3348649,79.8715946 L37.3232432,84.6497027 L36.9348649,77.6937568 L38.5508108,84.4267297 L41.5127027,79.1442973 L38.6975676,87.0545676 Z M34.230973,71.9892973 C32.9190811,71.7655135 29.4471892,64.4082162 29.4471892,64.4082162 L33.0488108,69.4847027 L33.2069189,62.519027 L34.2901622,69.3574054 L37.6574595,64.3238919 L34.230973,71.9892973 Z M32.1469459,55.2892703 C30.8837027,54.8725135 28.5493784,47.079 28.5493784,47.079 L31.3531622,52.6362973 L32.5491081,45.7727838 L32.5993784,52.6962973 L36.6801892,48.2214324 L32.1469459,55.2892703 Z M34.1708108,39.3192973 C32.9075676,38.9025405 30.5732432,31.109027 30.5732432,31.109027 L33.377027,36.6663243 L34.572973,29.8028108 L34.6232432,36.7263243 L38.7040541,32.2514595 L34.1708108,39.3192973 Z M36.6048649,22.8722432 C35.4032432,22.3030541 34.0459459,14.2817027 34.0459459,14.2817027 L36.1435135,20.1414324 L38.1762162,13.4773784 L37.3727027,20.3554865 L41.9740541,16.4165676 L36.6048649,22.8722432 Z M42.2219189,9.28759459 C41.3275946,8.30245946 43.1373243,0.370297297 43.1373243,0.370297297 L42.8381351,6.58678378 L47.2619189,1.20462162 L43.893,7.25408108 L49.6489459,5.37137838 L42.2219189,9.28759459 Z" id="Combined-Shape" fill="#FFF8B9"></path>
            </g>
        </g>
    </g>
</svg>