<?xml version="1.0" encoding="UTF-8"?>
<svg width="480px" height="360px" viewBox="0 0 480 360" version="1.1" xmlns="http://www.w3.org/2000/svg" xmlns:xlink="http://www.w3.org/1999/xlink">
    <!-- Generator: Sketch 51.1 (57501) - http://www.bohemiancoding.com/sketch -->
    <title>Mountain4</title>
    <desc>Created with Sketch.</desc>
    <defs></defs>
    <g id="Mountain4" stroke="none" stroke-width="1" fill="none" fill-rule="evenodd">
        <g id="Group-2" transform="translate(0.000000, -24.000000)" fill-rule="nonzero">
            <g id="nordic-walking">
                <rect id="Rectangle-path" fill="#7EE8E8" x="0.685714286" y="0" width="478.628571" height="292.457143"></rect>
                <path d="M479.314286,159.222857 L479.314286,292.457143 L0.685714286,292.457143 L0.685714286,152.811429 C43.0971429,132.308571 130.971429,98.4 204.342857,125.828571 C305.142857,163.542857 346.971429,108 384.685714,116.228571 C414.068571,122.64 448.834286,156.102857 479.314286,159.222857 Z" id="Shape" fill="#A9F7F5"></path>
                <rect id="Rectangle-path" fill="#66D7CC" x="0" y="282.171429" width="480" height="110.828571"></rect>
                <path d="M26.9485714,95.2114286 C26.9485714,95.1771429 26.9485714,95.1085714 26.9485714,95.0742857 C26.9485714,90.96 30.2742857,87.6342857 34.3885714,87.6342857 C36.0342857,87.6342857 37.5428571,88.1828571 38.7771429,89.0742857 C41.0742857,83.8628571 46.32,80.1942857 52.3885714,80.1942857 C53.7942857,80.1942857 55.1314286,80.4 56.4342857,80.7428571 C56.7428571,76.6285714 60.2057143,73.4057143 64.3885714,73.4057143 C65.8971429,73.4057143 67.3371429,73.8171429 68.5371429,74.5714286 C70.32,68.6742857 75.8057143,64.3542857 82.32,64.3542857 C88.6628571,64.3542857 94.0114286,68.4342857 95.9657143,74.1257143 C100.148571,75.4628571 103.508571,78.5828571 105.154286,82.5942857 C106.56,81.8057143 108.205714,81.3942857 109.92,81.3942857 C115.405714,81.3942857 119.862857,85.8514286 119.862857,91.3371429 C119.862857,92.7085714 119.588571,94.0457143 119.074286,95.2114286 L26.9485714,95.2114286 Z" id="Shape" fill="#FFFFFF"></path>
                <path d="M439.371429,95.2114286 C439.371429,95.1771429 439.371429,95.1085714 439.371429,95.0742857 C439.371429,90.96 436.045714,87.6342857 431.931429,87.6342857 C430.285714,87.6342857 428.777143,88.1828571 427.542857,89.0742857 C425.245714,83.8628571 420,80.1942857 413.931429,80.1942857 C412.525714,80.1942857 411.188571,80.4 409.885714,80.7428571 C409.577143,76.6285714 406.114286,73.4057143 401.931429,73.4057143 C400.422857,73.4057143 398.982857,73.8171429 397.782857,74.5714286 C396,68.6742857 390.514286,64.3542857 384,64.3542857 C377.657143,64.3542857 372.308571,68.4342857 370.354286,74.1257143 C366.171429,75.4628571 362.811429,78.5828571 361.165714,82.5942857 C359.76,81.8057143 358.114286,81.3942857 356.4,81.3942857 C350.914286,81.3942857 346.457143,85.8514286 346.457143,91.3371429 C346.457143,92.7085714 346.731429,94.0457143 347.245714,95.2114286 L439.371429,95.2114286 Z" id="Shape" fill="#FFFFFF"></path>
                <path d="M265.782857,115.097143 C265.782857,115.062857 265.782857,115.028571 265.782857,114.994286 C265.782857,112.594286 263.828571,110.64 261.428571,110.64 C260.468571,110.64 259.577143,110.948571 258.857143,111.497143 C257.52,108.445714 254.434286,106.285714 250.902857,106.285714 C250.08,106.285714 249.291429,106.388571 248.537143,106.628571 C248.331429,104.228571 246.342857,102.342857 243.874286,102.342857 C242.982857,102.342857 242.16,102.582857 241.44,103.028571 C240.377143,99.5657143 237.188571,97.0628571 233.382857,97.0628571 C229.68,97.0628571 226.525714,99.4628571 225.394286,102.788571 C222.96,103.577143 220.971429,105.394286 220.011429,107.76 C219.188571,107.314286 218.228571,107.04 217.234286,107.04 C214.011429,107.04 211.405714,109.645714 211.405714,112.868571 C211.405714,113.691429 211.577143,114.445714 211.885714,115.131429 L265.782857,115.131429 L265.782857,115.097143 Z" id="Shape" fill="#FFFFFF"></path>
                <g id="Group" transform="translate(210.171429, 213.600000)">
                    <g id="Shape">
                        <polygon fill="#2BB251" points="32.2971429 43.6114286 0.102857143 43.6114286 9.46285714 27.6342857 4.18285714 27.6342857 11.28 15.4971429 7.13142857 15.4971429 16.1142857 0.137142857 16.2171429 0 25.3028571 15.4971429 21.1542857 15.4971429 28.2514286 27.6342857 22.9714286 27.6342857"></polygon>
                        <polygon fill="#1E8236" points="16.1142857 0.137142857 16.1142857 43.6114286 0.102857143 43.6114286 9.46285714 27.6342857 4.18285714 27.6342857 11.28 15.4971429 7.13142857 15.4971429"></polygon>
                    </g>
                    <g transform="translate(16.114286, 17.828571)" id="Shape">
                        <polygon fill="#2BB251" points="19.2342857 25.7828571 0.274285714 25.7828571 5.79428571 16.3885714 2.67428571 16.3885714 6.85714286 9.22285714 4.42285714 9.22285714 9.70285714 0.171428571 9.77142857 0.102857143 15.12 9.22285714 12.6514286 9.22285714 16.8342857 16.3885714 13.7485714 16.3885714"></polygon>
                        <polygon fill="#1E8236" points="9.70285714 0.171428571 9.70285714 25.7828571 0.274285714 25.7828571 5.79428571 16.3885714 2.67428571 16.3885714 6.85714286 9.22285714 4.42285714 9.22285714"></polygon>
                    </g>
                </g>
                <g id="Group" transform="translate(0.000000, 108.685714)">
                    <g transform="translate(0.000000, 63.771429)" id="Shape">
                        <g>
                            <path d="M182.845714,110.057143 L0,110.057143 L72.24,12.1714286 L75.7371429,7.44 C79.3714286,2.50285714 85.92,0.137142857 92.2971429,0.377142857 C98.0914286,0.582857143 103.748571,2.94857143 107.074286,7.44 L117.84,22.0114286 L182.845714,110.057143 Z" fill="#4FAAA1"></path>
                            <path d="M117.84,21.9771429 C117.668571,23.1771429 117.36,24.24 116.811429,24.9942857 C114.034286,28.8685714 110.674286,17.4171429 107.931429,21.2914286 C105.154286,25.1657143 103.782857,23.0057143 101.417143,20.0571429 C99.0514286,17.1085714 102.788571,25.6114286 96.6857143,27.6342857 C94.9371429,28.2171429 93.5314286,27.8742857 92.3314286,27.2228571 C92.2628571,27.1885714 92.1942857,27.1542857 92.1257143,27.12 C89.28,25.44 87.4628571,22.0457143 84.0342857,25.1657143 C79.0971429,29.6571429 76.7314286,22.6971429 77.1085714,14.5028571 C77.2457143,11.4171429 75.0514286,11.2114286 72.2742857,12.1714286 L75.7714286,7.44 C79.3714286,2.53714286 85.8171429,0.205714286 92.1257143,0.377142857 C92.1942857,0.377142857 92.2628571,0.377142857 92.3314286,0.377142857 C98.1257143,0.582857143 103.782857,2.94857143 107.108571,7.44 L117.84,21.9771429 Z" fill="#FFFFFF"></path>
                        </g>
                        <g transform="translate(106.285714, 25.714286)">
                            <path d="M140.057143,84.3428571 L0.137142857,84.3428571 L55.44,9.42857143 L58.1142857,5.79428571 C60.8914286,2.02285714 65.8971429,0.205714286 70.7657143,0.377142857 C75.1885714,0.548571429 79.5428571,2.33142857 82.08,5.79428571 L90.3085714,16.9371429 L140.057143,84.3428571 Z" fill="#63BFB6"></path>
                            <path d="M90.3085714,16.9371429 C90.1714286,17.8628571 89.9314286,18.6857143 89.52,19.2342857 C87.3942857,22.1828571 84.8228571,13.44 82.6971429,16.3885714 C80.5714286,19.3371429 79.5085714,17.6914286 77.6914286,15.4285714 C75.8742857,13.1657143 78.7542857,19.68 74.0571429,21.2228571 C72.72,21.6685714 71.6571429,21.3942857 70.7314286,20.9142857 C70.6628571,20.88 70.6285714,20.8457143 70.5942857,20.8114286 C68.4,19.5428571 67.0285714,16.9371429 64.3885714,19.3371429 C60.6171429,22.7657143 58.8,17.4514286 59.1085714,11.1771429 C59.2114286,8.81142857 57.5314286,8.67428571 55.4057143,9.39428571 L58.08,5.76 C60.8571429,2.02285714 65.76,0.205714286 70.5942857,0.342857143 C70.6285714,0.342857143 70.6971429,0.342857143 70.7314286,0.342857143 C75.1542857,0.514285714 79.5085714,2.29714286 82.0457143,5.76 L90.3085714,16.9371429 Z" fill="#FFFFFF"></path>
                        </g>
                    </g>
                    <g transform="translate(215.314286, 0.000000)" id="Shape">
                        <g>
                            <path d="M195.942857,173.828571 L0,173.828571 L77.4171429,19.0285714 L81.1885714,11.52 C85.0971429,3.70285714 92.0914286,-0.0342857143 98.9142857,0.377142857 C105.12,0.72 111.188571,4.42285714 114.754286,11.52 L126.274286,34.56 L195.942857,173.828571 Z" fill="#4FAAA1"></path>
                            <path d="M126.274286,34.56 C126.102857,36.48 125.76,38.1257143 125.177143,39.3257143 C122.194286,45.4285714 118.594286,27.36 115.645714,33.4628571 C112.662857,39.5657143 111.188571,36.1714286 108.651429,31.5085714 C106.114286,26.8457143 110.125714,40.32 103.577143,43.4742857 C101.691429,44.4 100.182857,43.8514286 98.9142857,42.8228571 C98.8457143,42.7542857 98.7771429,42.72 98.7085714,42.6514286 C95.6571429,40.0114286 93.7028571,34.6285714 90.0342857,39.5657143 C84.7542857,46.6628571 82.1828571,35.6571429 82.6285714,22.6971429 C82.8,17.8285714 80.4342857,17.52 77.4514286,19.0285714 L81.2228571,11.52 C85.0971429,3.77142857 91.9885714,0.0685714286 98.7428571,0.342857143 C98.8114286,0.342857143 98.88,0.342857143 98.9485714,0.342857143 C105.154286,0.685714286 111.222857,4.38857143 114.788571,11.4857143 L126.274286,34.56 Z" fill="#FFFFFF"></path>
                        </g>
                        <g transform="translate(113.828571, 40.800000)">
                            <path d="M150.171429,133.028571 L0.205714286,133.028571 L59.4514286,14.5714286 L62.3314286,8.81142857 C65.3142857,2.81142857 70.6628571,-0.0342857143 75.9085714,0.274285714 C80.6742857,0.548571429 85.3028571,3.39428571 88.0114286,8.81142857 L96.8228571,26.4342857 L150.171429,133.028571 Z" fill="#6CD1C7"></path>
                            <path d="M96.8571429,26.4342857 C96.72,27.9085714 96.48,29.1771429 96.0342857,30.1028571 C93.7714286,34.7657143 90.9942857,20.9485714 88.7314286,25.6114286 C86.4685714,30.2742857 85.3371429,27.6685714 83.3828571,24.1028571 C81.4285714,20.5371429 84.5142857,30.8228571 79.5085714,33.2571429 C78.0685714,33.9428571 76.9371429,33.5657143 75.9428571,32.7428571 C75.8742857,32.7085714 75.84,32.64 75.7714286,32.6057143 C73.44,30.5828571 71.9314286,26.4685714 69.12,30.24 C65.0742857,35.6571429 63.12,27.2571429 63.4628571,17.3142857 C63.6,13.5771429 61.7828571,13.3371429 59.4857143,14.5028571 L62.3657143,8.74285714 C65.3142857,2.81142857 70.5942857,-0.0342857143 75.7714286,0.205714286 C75.84,0.205714286 75.8742857,0.205714286 75.9428571,0.205714286 C80.7085714,0.48 85.3371429,3.32571429 88.0457143,8.74285714 L96.8571429,26.4342857 Z" fill="#FFFFFF"></path>
                        </g>
                    </g>
                </g>
                <polygon id="Shape" fill="#06664B" points="429.805714 299.04 392.16 299.04 403.097143 280.354286 396.891429 280.354286 405.222857 266.16 400.354286 266.16 410.88 248.194286 410.982857 248.022857 421.611429 266.16 416.777143 266.16 425.074286 280.354286 418.902857 280.354286"></polygon>
                <polygon id="Shape" fill="#1E8236" points="410.88 248.194286 410.88 299.04 392.16 299.04 403.097143 280.354286 396.891429 280.354286 405.222857 266.16 400.354286 266.16"></polygon>
                <polygon id="Shape" fill="#06664B" points="469.954286 299.04 414.994286 299.04 430.937143 271.782857 421.92 271.782857 434.057143 251.074286 426.994286 251.074286 442.32 224.845714 442.491429 224.571429 457.988571 251.074286 450.925714 251.074286 463.028571 271.782857 454.011429 271.782857"></polygon>
                <polygon id="Shape" fill="#1E8236" points="442.32 224.845714 442.32 299.04 414.994286 299.04 430.937143 271.782857 421.92 271.782857 434.057143 251.074286 426.994286 251.074286"></polygon>
                <g id="Group" transform="translate(327.771429, 224.571429)">
                    <g transform="translate(34.285714, 19.885714)" id="Shape">
                        <polygon fill="#2BB251" points="0.205714286 43.6114286 32.3314286 43.6114286 23.0057143 27.6685714 28.2857143 27.6685714 21.1885714 15.5657143 25.3371429 15.5657143 16.3542857 0.24 16.2857143 0.102857143 7.23428571 15.5657143 11.3485714 15.5657143 4.28571429 27.6685714 9.53142857 27.6685714"></polygon>
                        <polygon fill="#1E8236" points="16.3542857 0.24 16.3542857 43.6114286 32.3314286 43.6114286 23.0057143 27.6685714 28.2857143 27.6685714 21.1885714 15.5657143 25.3371429 15.5657143"></polygon>
                    </g>
                    <g id="Shape">
                        <polygon fill="#2BB251" points="0.274285714 63.4971429 47.1428571 63.4971429 33.5314286 40.2514286 41.2457143 40.2514286 30.8914286 22.5942857 36.9257143 22.5942857 23.8285714 0.24 23.7257143 0 10.4914286 22.5942857 16.5257143 22.5942857 6.17142857 40.2514286 13.8857143 40.2514286"></polygon>
                        <polygon fill="#1E8236" points="23.8285714 0.24 23.8285714 63.4971429 47.1428571 63.4971429 33.5314286 40.2514286 41.2457143 40.2514286 30.8914286 22.5942857 36.9257143 22.5942857"></polygon>
                    </g>
                </g>
                <g id="Group" transform="translate(34.971429, 236.914286)">
                    <g transform="translate(0.000000, 17.485714)" id="Shape">
                        <polygon fill="#2BB251" points="28.5942857 38.4685714 0.274285714 38.4685714 8.50285714 24.4114286 3.84 24.4114286 10.08 13.7485714 6.44571429 13.7485714 14.3314286 0.274285714 14.4342857 0.137142857 22.4228571 13.7485714 18.7542857 13.7485714 24.9942857 24.4114286 20.3657143 24.4114286"></polygon>
                        <polygon fill="#1E8236" points="14.3314286 0.274285714 14.3314286 38.4685714 0.274285714 38.4685714 8.50285714 24.4114286 3.84 24.4114286 10.08 13.7485714 6.44571429 13.7485714"></polygon>
                    </g>
                    <g transform="translate(17.142857, 0.000000)" id="Shape">
                        <polygon fill="#2BB251" points="41.5885714 55.9542857 0.308571429 55.9542857 12.2742857 35.4514286 5.52 35.4514286 14.6057143 19.92 9.29142857 19.92 20.8457143 0.205714286 20.9485714 0 32.6057143 19.92 27.2914286 19.92 36.3771429 35.4514286 29.6228571 35.4514286"></polygon>
                        <polygon fill="#1E8236" points="20.8457143 0.205714286 20.8457143 55.9542857 0.308571429 55.9542857 12.2742857 35.4514286 5.52 35.4514286 14.6057143 19.92 9.29142857 19.92"></polygon>
                    </g>
                </g>
            </g>
        </g>
    </g>
</svg>