<?xml version="1.0" encoding="UTF-8"?>
<svg width="120px" height="120px" viewBox="0 0 120 120" version="1.1" xmlns="http://www.w3.org/2000/svg" xmlns:xlink="http://www.w3.org/1999/xlink">
    <!-- Generator: Sketch 51.1 (57501) - http://www.bohemiancoding.com/sketch -->
    <title>Forklift2</title>
    <desc>Created with Sketch.</desc>
    <defs></defs>
    <g id="Forklift2" stroke="none" stroke-width="1" fill="none" fill-rule="evenodd">
        <g id="excavate" transform="translate(0.000000, 28.000000)">
            <rect id="Rectangle-path" fill="#625D6B" x="51.6233918" y="22.9092029" width="4.12982456" height="6.23693841"></rect>
            <path d="M64.0128655,29.1461413 L59.8830409,29.1461413 L59.8830409,18.395471 C59.8830409,16.7407971 60.5359064,15.1541848 61.6977778,13.9841848 L62.7583626,12.9163949 C63.2149708,12.4566848 63.9553216,12.4566848 64.4119298,12.9163949 L65.6783626,14.1914312 C66.1349708,14.6511413 66.1349708,15.3965217 65.6783626,15.8562319 L64.6177778,16.9240217 C64.2304094,17.3140217 64.0128655,17.842971 64.0128655,18.3942935 L64.0128655,29.1461413 L64.0128655,29.1461413 Z" id="Shape" fill="#736F7B"></path>
            <polygon id="Shape" fill="#A7A5AC" points="94.6521637 48.4881159 85.9064327 36.9736957 87.5480702 35.7109058 96.2938012 47.2253261"></polygon>
            <polygon id="Shape" fill="#736F7B" points="43.3635088 2.11956522 8.25964912 2.11956522 8.25964912 39.5409601 45.428538 39.5409601 45.428538 27.0670833"></polygon>
            <path d="M34.7316959,37.4619022 L39.608655,37.4619022 C40.5918129,37.4619022 41.4383626,36.7640942 41.6327485,35.7940399 L43.0734503,28.600942 C43.265731,27.6410145 43.3223392,26.6584783 43.2414035,25.6825362 L41.7927485,8.18387681 C41.7033918,7.10643116 40.8088889,6.27744565 39.7349708,6.27744565 L33.0385965,6.27744565 C31.8982456,6.27744565 30.9735673,7.2084058 30.9735673,8.35650362 L30.9735673,26.0379167 C30.9735673,26.7223007 31.0407018,27.4052717 31.1740351,28.0767029 L32.7064327,35.7909783 C32.900117,36.7622101 33.7473684,37.4619022 34.7316959,37.4619022 Z" id="Shape" fill="#625D6B"></path>
            <polygon id="Shape" fill="#8D8A94" points="72.2727485 29.1461413 45.428538 27.0670833 43.3635088 39.5409601 72.2727485 39.5409601"></polygon>
            <path d="M24.7791813,24.9880254 L14.4545029,24.9880254 C13.314152,24.9880254 12.3894737,24.0570652 12.3894737,22.9089674 L12.3894737,8.35626812 C12.3894737,7.20817029 13.314152,6.27721014 14.4545029,6.27721014 L24.7791813,6.27721014 C25.9195322,6.27721014 26.8442105,7.20817029 26.8442105,8.35626812 L26.8442105,22.9089674 C26.8442105,24.0573007 25.9195322,24.9880254 24.7791813,24.9880254 Z" id="Shape" fill="#625D6B"></path>
            <rect id="Rectangle-path" fill="#FFC84B" x="16.5195322" y="2.11956522" width="6.1948538" height="27.0265761"></rect>
            <path d="M2.06502924,27.0670833 L27.1592982,27.0670833 C28.1688889,27.0670833 29.0301754,27.8016304 29.1960234,28.8039493 L30.6863158,37.8036232 C30.8523977,38.805942 31.7139181,39.5404891 32.7230409,39.5404891 L66.6533333,39.5404891 C67.5419883,39.5404891 68.331462,38.967971 68.6121637,38.1189674 L71.8007018,28.4881341 C72.0818713,27.6391304 72.8708772,27.0666123 73.7595322,27.0666123 L86.7270175,27.0666123 L86.7270175,58.2510688 L22.7139181,58.2510688 L22.714152,39.5407246 L2.06502924,39.5407246 C0.924678363,39.5407246 0,38.6097645 0,37.4616667 L0,29.1459058 C0,27.9980435 0.924678363,27.0670833 2.06502924,27.0670833 Z" id="Shape" fill="#FFDC5A"></path>
            <path d="M68.1426901,64.4884783 L10.3246784,64.4884783 C4.62269006,64.4884783 0,59.8343841 0,54.0936594 L0,54.0936594 C0,48.3529348 4.62269006,43.6988406 10.3246784,43.6988406 L68.1426901,43.6988406 C73.8446784,43.6988406 78.4673684,48.3529348 78.4673684,54.0936594 L78.4673684,54.0936594 C78.4673684,59.8343841 73.8449123,64.4884783 68.1426901,64.4884783 Z" id="Shape" fill="#504B5A"></path>
            <rect id="Rectangle-path" fill="#FFC84B" x="10.3246784" y="49.9355435" width="57.8180117" height="10.3948188"></rect>
            <ellipse id="Oval" fill="#FFDC5A" cx="10.3246784" cy="54.0936594" rx="6.1948538" ry="6.23693841"></ellipse>
            <ellipse id="Oval" fill="#FFDC5A" cx="68.1426901" cy="54.0936594" rx="6.1948538" ry="6.23693841"></ellipse>
            <rect id="Rectangle-path" fill="#FFC84B" transform="translate(83.635060, 53.054356) rotate(251.554180) translate(-83.635060, -53.054356) " x="81.570198" y="36.6196511" width="4.12972321" height="32.8694107"></rect>
            <path d="M102.214269,60.3303623 L48.525848,60.3303623 C47.9555556,60.3303623 47.4933333,59.865 47.4933333,59.2908333 L47.4933333,57.2117754 C47.4933333,56.6376087 47.9555556,56.1722464 48.525848,56.1722464 L102.214035,56.1722464 C102.784327,56.1722464 103.24655,56.6376087 103.24655,57.2117754 L103.24655,59.2908333 C103.24655,59.865 102.784327,60.3303623 102.214269,60.3303623 Z" id="Shape" fill="#8D8A94"></path>
            <path d="M101.181754,58.2515399 L101.181754,44.7383696 C101.181754,44.1642029 101.643977,43.6988406 102.214269,43.6988406 L104.113216,43.6988406 C104.854269,43.6988406 105.53848,44.0984964 105.906199,44.7463768 L113.571462,58.2515399 L117.701287,58.2515399 C118.841637,58.2515399 119.766316,59.1825 119.766316,60.3305978 L119.766316,60.3305978 C119.766316,61.4786957 118.841637,62.4096558 117.701287,62.4096558 L105.311579,62.4096558 C103.030643,62.4094203 101.181754,60.547971 101.181754,58.2515399 Z" id="Shape" fill="#A7A5AC"></path>
            <path d="M97.0519298,56.1724819 L101.181754,56.1724819 L101.181754,42.6593116 C101.181754,42.0851449 100.719532,41.6197826 100.14924,41.6197826 L98.0842105,41.6197826 C97.5139181,41.6197826 97.0516959,42.0851449 97.0516959,42.6593116 L97.0516959,56.1724819 L97.0519298,56.1724819 Z" id="Shape" fill="#FFDC5A"></path>
            <path d="M45.428538,39.5409601 L4.12982456,39.5409601 L5.62409357,42.5498007 C5.97380117,43.2539674 6.68888889,43.6988406 7.47087719,43.6988406 L45.428538,43.6988406 L45.428538,39.5409601 Z" id="Shape" fill="#FFC84B"></path>
            <path d="M43.3635088,4.19862319 L6.1948538,4.19862319 C5.05450292,4.19862319 4.12982456,3.26766304 4.12982456,2.11956522 L4.12982456,2.11956522 C4.12982456,0.971467391 5.05450292,0.0405072464 6.1948538,0.0405072464 L43.3637427,0.0405072464 C44.5040936,0.0405072464 45.4287719,0.971467391 45.4287719,2.11956522 L45.4287719,2.11956522 C45.428538,3.26766304 44.5038596,4.19862319 43.3635088,4.19862319 Z" id="Shape" fill="#FFDC5A"></path>
            <path d="M88.4764912,42.0663043 L71.2530994,19.3907246 C70.9108772,18.9401993 70.9960234,18.2951449 71.4435088,17.9505978 L73.1010526,16.6736775 C73.5487719,16.3288949 74.1894737,16.4148551 74.5316959,16.8653804 L91.7553216,39.5409601 C92.0975439,39.9914855 92.0123977,40.6365399 91.5649123,40.981087 L89.9073684,42.2580072 C89.4596491,42.6027899 88.8189474,42.5170652 88.4764912,42.0663043 Z" id="Shape" fill="#FFC84B"></path>
            <path d="M56.785731,24.9880254 L50.5908772,24.9880254 C50.0205848,24.9880254 49.5583626,24.522663 49.5583626,23.9484964 L49.5583626,21.8694384 C49.5583626,21.2952717 50.0205848,20.8299094 50.5908772,20.8299094 L56.785731,20.8299094 C57.3560234,20.8299094 57.8182456,21.2952717 57.8182456,21.8694384 L57.8182456,23.9484964 C57.8180117,24.522663 57.3557895,24.9880254 56.785731,24.9880254 Z" id="Shape" fill="#736F7B"></path>
        </g>
    </g>
</svg>