<?xml version="1.0" encoding="UTF-8"?>
<svg width="120px" height="120px" viewBox="0 0 120 120" version="1.1" xmlns="http://www.w3.org/2000/svg" xmlns:xlink="http://www.w3.org/1999/xlink">
    <!-- Generator: Sketch 51.1 (57501) - http://www.bohemiancoding.com/sketch -->
    <title>Game control27</title>
    <desc>Created with Sketch.</desc>
    <defs>
        <polygon id="path-1" points="0 0.3754 119.9993 0.3754 119.9993 119.9994 0 119.9994"></polygon>
    </defs>
    <g id="Game-control27" stroke="none" stroke-width="1" fill="none" fill-rule="evenodd">
        <g id="Page-1">
            <g id="Group-3" transform="translate(0.000000, 0.625000)">
                <mask id="mask-2" fill="white">
                    <use xlink:href="#path-1"></use>
                </mask>
                <g id="Clip-2"></g>
                <path d="M113.3943,38.3864 L88.4753,38.3864 C84.8273,38.3864 81.8693,35.4384 81.8693,31.8014 L81.8693,6.9604 C81.8693,3.3234 78.9123,0.3754 75.2633,0.3754 L44.7373,0.3754 C41.0883,0.3754 38.1303,3.3234 38.1303,6.9604 L38.1303,31.8014 C38.1303,35.4384 35.1733,38.3864 31.5253,38.3864 L6.6063,38.3864 C2.9573,38.3864 -0.0007,41.3344 -0.0007,44.9724 L-0.0007,75.4034 C-0.0007,79.0394 2.9573,81.9884 6.6063,81.9884 L31.5253,81.9884 C35.1733,81.9884 38.1303,84.9374 38.1303,88.5744 L38.1303,113.4144 C38.1303,117.0514 41.0883,119.9994 44.7373,119.9994 L75.2633,119.9994 C78.9123,119.9994 81.8693,117.0514 81.8693,113.4144 L81.8693,88.5744 C81.8693,84.9374 84.8273,81.9884 88.4753,81.9884 L113.3943,81.9884 C117.0423,81.9884 119.9993,79.0394 119.9993,75.4034 L119.9993,44.9724 C119.9993,41.3344 117.0423,38.3864 113.3943,38.3864" id="Fill-1" fill="#B3B4B5" mask="url(#mask-2)"></path>
            </g>
            <path d="M42.325,109.4176 L42.325,84.6056 C42.325,80.9316 39.337,77.9526 35.651,77.9526 L10.762,77.9526 C7.076,77.9526 4.088,74.9756 4.088,71.3006 L4.088,50.0846 C4.088,46.4106 7.076,43.4326 10.762,43.4326 L35.651,43.4326 C39.337,43.4326 42.325,40.4536 42.325,36.7796 L42.325,11.9676 C42.325,8.2936 45.312,5.3146 48.998,5.3146 L71.002,5.3146 C74.687,5.3146 77.676,8.2936 77.676,11.9676 L77.676,36.7796 C77.676,40.4536 80.663,43.4326 84.348,43.4326 L109.238,43.4326 C112.924,43.4326 115.912,46.4106 115.912,50.0846 L115.912,71.3006 C115.912,74.9756 112.924,77.9526 109.238,77.9526 L84.348,77.9526 C80.663,77.9526 77.676,80.9316 77.676,84.6056 L77.676,109.4176 C77.676,113.0916 74.687,116.0696 71.002,116.0696 L48.998,116.0696 C45.312,116.0696 42.325,113.0916 42.325,109.4176" id="Fill-4" fill="#333433"></path>
        </g>
    </g>
</svg>