<?xml version="1.0" encoding="UTF-8"?>
<svg width="120px" height="120px" viewBox="0 0 120 120" version="1.1" xmlns="http://www.w3.org/2000/svg" xmlns:xlink="http://www.w3.org/1999/xlink">
    <!-- Generator: Sketch 48.2 (47327) - http://www.bohemiancoding.com/sketch -->
    <title>Cable Car</title>
    <desc>Created with Sketch.</desc>
    <defs>
        <polygon id="path-1" points="9.02255639e-05 0.594753704 119.321504 0.594753704 119.321504 9.87891111 9.02255639e-05 9.87891111"></polygon>
        <polygon id="path-3" points="0 96.1018519 119.321504 96.1018519 119.321504 0.216453704 0 0.216453704"></polygon>
    </defs>
    <g id="交通" stroke="none" stroke-width="1" fill="none" fill-rule="evenodd">
        <g id="Cable-Car">
            <g id="Page-1" transform="translate(0.000000, 12.000000)">
                <polygon id="Fill-1" fill="#273438" points="62.0601203 7.75461111 60.4811729 4.90568519 60.1599699 4.72875 59.8369624 4.90568519 58.2589173 7.75461111 40.8661353 39.1430926 43.7804211 40.7435926 60.1599699 11.185537 76.5377143 40.7435926 79.452 39.1430926"></polygon>
                <g id="Group-49" transform="translate(0.000000, 0.681694)">
                    <path d="M113.56006,37.6735426 L6.08246617,37.6735426 C4.49990977,37.6735426 3.216,38.9507093 3.216,40.5260611 L3.216,42.2433204 L3.216,70.4541537 L3.216,89.0278574 C3.216,90.6041074 4.49990977,91.8803759 6.08246617,91.8803759 L113.56006,91.8803759 C115.143519,91.8803759 116.426526,90.6041074 116.426526,89.0278574 L116.426526,69.9511907 L116.426526,42.7471815 L116.426526,40.5260611 C116.426526,38.9507093 115.143519,37.6735426 113.56006,37.6735426" id="Fill-2" fill="#FDDF0B"></path>
                    <path d="M14.1357293,45.4630917 C13.9706165,43.4916565 12.3140752,41.9423509 10.2921203,41.9423509 L4.71798496,41.9423509 C4.18475188,41.9423509 3.67768421,42.0492306 3.21572932,42.2432306 L3.21572932,56.7752676 L3.21572932,62.5503602 L3.21572932,70.4540639 C3.67768421,70.648962 4.18475188,70.7558417 4.71798496,70.7558417 L10.2921203,70.7558417 C12.4241504,70.7558417 14.1519699,69.035888 14.1519699,66.914462 L14.1519699,49.793962 L14.1519699,45.7837306 C14.1519699,45.6759528 14.1438496,45.5690731 14.1357293,45.4630917" id="Fill-4" fill="#88BFB7"></path>
                    <g id="Group-8" transform="translate(0.000000, 86.222222)">
                        <mask id="mask-2" fill="white">
                            <use xlink:href="#path-1"></use>
                        </mask>
                        <g id="Clip-7"></g>
                        <path d="M119.321594,6.03753148 C119.321594,8.15895741 117.49994,9.87891111 115.253323,9.87891111 L4.06745865,9.87891111 C1.82174436,9.87891111 9.02255639e-05,8.15895741 9.02255639e-05,6.03753148 L9.02255639e-05,4.43703148 C9.02255639e-05,2.31470741 1.82174436,0.594753704 4.06745865,0.594753704 L115.253323,0.594753704 C117.49994,0.594753704 119.321594,2.31470741 119.321594,4.43703148 L119.321594,6.03753148 Z" id="Fill-6" fill="#273438" mask="url(#mask-2)"></path>
                    </g>
                    <path d="M14.1357293,45.4630917 C13.5005414,45.3526194 12.8274586,45.5627861 12.3790376,46.0855083 L3.21572932,56.7752676 L3.21572932,62.5503602 L14.1519699,49.793962 L14.1519699,45.7837306 C14.1519699,45.6759528 14.1438496,45.5690731 14.1357293,45.4630917" id="Fill-9" fill="#CCFEF8"></path>
                    <path d="M43.0105263,45.7831917 C42.7281203,44.2850806 41.7536842,43.1309602 40.5401504,42.8893583 C40.3867669,42.8597194 40.2306767,42.839062 40.0700752,42.839062 L20.3954887,42.839062 C18.7227068,42.839062 17.3675188,44.5590157 17.3675188,46.6813398 L17.3675188,66.9139231 C17.3675188,69.0362472 18.7227068,70.7562009 20.3954887,70.7562009 L40.0700752,70.7562009 C41.7419549,70.7562009 43.0980451,69.0362472 43.0980451,66.9139231 L43.0980451,49.398238 L43.0980451,47.2920806 L43.0980451,46.6813398 C43.0980451,46.3714787 43.0655639,46.0714972 43.0105263,45.7831917" id="Fill-11" fill="#88BFB7"></path>
                    <path d="M25.4905263,63.3357009 C26.2818045,64.0075157 27.4700752,63.9150065 28.1458647,63.1273306 L43.0105263,45.7831917 C42.727218,44.2850806 41.7536842,43.1309602 40.5401504,42.8893583 L25.281203,60.6933491 C24.6054135,61.4819231 24.6992481,62.6638861 25.4905263,63.3357009" id="Fill-13" fill="#CCFEF8"></path>
                    <path d="M42.8237594,47.4869787 L36.8354887,54.4736731 C36.5756391,54.7781454 36.6117293,55.2344046 36.917594,55.4939694 C37.2225564,55.7535343 37.6818045,55.7176083 37.9425564,55.4131361 L43.0980451,49.398238 L43.0980451,47.2920806 C42.995188,47.3351917 42.9004511,47.398062 42.8237594,47.4869787" id="Fill-15" fill="#CCFEF8"></path>
                    <path d="M98.4868872,42.9010343 C98.3172632,42.863312 98.1413233,42.839062 97.9626767,42.839062 L97.0757594,42.839062 L78.2862857,42.839062 C76.614406,42.839062 75.259218,44.5590157 75.259218,46.6804417 L75.259218,66.9139231 C75.259218,68.1892935 75.7509474,69.3155713 76.5043308,70.0134324 C77.0032782,70.4786731 77.6186165,70.7562009 78.2862857,70.7562009 L80.8189173,70.7562009 L97.9626767,70.7562009 C99.6336541,70.7562009 100.988842,69.0362472 100.988842,66.9139231 L100.988842,46.6804417 C100.988842,44.7871454 99.9079398,43.2171824 98.4868872,42.9010343" id="Fill-17" fill="#88BFB7"></path>
                    <path d="M70.6430075,43.444863 C70.1729323,43.06315 69.6153383,42.8395111 69.0153383,42.8395111 L49.3407519,42.8395111 C47.6688722,42.8395111 46.3136842,44.5585667 46.3136842,46.6808907 L46.3136842,66.9143722 C46.3136842,68.2849463 46.8803008,69.4839741 47.7311278,70.1638722 C48.197594,70.5375019 48.7479699,70.7557519 49.3407519,70.7557519 L53.7392481,70.7557519 L69.0153383,70.7557519 C70.6881203,70.7557519 72.0433083,69.0357981 72.0433083,66.9143722 L72.0433083,49.4004833 L72.0433083,46.6808907 C72.0433083,45.3201963 71.484812,44.1274556 70.6430075,43.444863" id="Fill-19" fill="#88BFB7"></path>
                    <path d="M70.6430075,43.444863 C70.2956391,43.59665 69.9744361,43.8256778 69.7109774,44.1328444 L48.2625564,69.1570481 C48.0027068,69.4597241 47.8294737,69.804613 47.7311278,70.1638722 C48.197594,70.5375019 48.7479699,70.7557519 49.3407519,70.7557519 L53.7392481,70.7557519 L72.0433083,49.4004833 L72.0433083,46.6808907 C72.0433083,45.3201963 71.484812,44.1274556 70.6430075,43.444863" id="Fill-21" fill="#CCFEF8"></path>
                    <path d="M93.2944962,53.312188 C92.503218,52.639475 91.3158496,52.7337806 90.6400602,53.5205583 L76.5044211,70.0141509 C77.0033684,70.4784935 77.6187068,70.7560213 78.2863759,70.7560213 L80.8190075,70.7560213 L93.5047218,55.9545398 C94.179609,55.1668639 94.0857744,53.9840028 93.2944962,53.312188" id="Fill-23" fill="#CCFEF8"></path>
                    <path d="M114.068481,41.9419917 L108.493444,41.9419917 C106.362316,41.9419917 104.634496,43.6619454 104.634496,45.7842694 L104.634496,66.9141028 C104.634496,69.0364269 106.362316,70.7554824 108.493444,70.7554824 L114.068481,70.7554824 C114.957203,70.7554824 115.774647,70.4537046 116.426075,69.9507417 L116.426075,50.2938713 L116.426075,44.5178806 L116.426075,42.7467324 C115.774647,42.2437694 114.957203,41.9419917 114.068481,41.9419917" id="Fill-25" fill="#88BFB7"></path>
                    <path d="M85.8950075,56.7390722 C86.1286917,56.9384611 86.7377143,56.610637 87.2538045,56.0079796 L98.4868872,42.9013037 C98.3172632,42.8626833 98.1413233,42.8393315 97.9626767,42.8393315 L97.0757594,42.8393315 L86.404782,55.288563 C85.889594,55.8912204 85.6604211,56.5405815 85.8950075,56.7390722" id="Fill-27" fill="#CCFEF8"></path>
                    <path d="M107.23985,55.2361111 C106.564962,56.023787 106.658797,57.2075463 107.450075,57.878463 C108.240451,58.5502778 109.429624,58.4568704 110.105414,57.6682963 L116.426617,50.2945 L116.426617,44.5176111 L107.23985,55.2361111 Z" id="Fill-29" fill="#CCFEF8"></path>
                    <polygon id="Fill-31" fill="#273438" points="59.9877293 3.95266019 59.8370526 4.22390093 60.1591579 4.04696574"></polygon>
                    <polygon id="Fill-33" fill="#273438" points="60.3313985 3.95266019 60.1599699 4.04696574 60.4811729 4.22390093"></polygon>
                    <mask id="mask-4" fill="white">
                        <use xlink:href="#path-3"></use>
                    </mask>
                    <g id="Clip-36"></g>
                    <polygon id="Fill-35" fill="#273438" mask="url(#mask-4)" points="46.3136842 32.4348241 73.6998496 32.4348241 73.6998496 30.2128056 46.3136842 30.2128056"></polygon>
                    <path d="M43.0061053,1.26872407 C42.6091128,1.26872407 42.2734737,1.73755741 42.2734737,2.29440926 L42.2734737,5.26727963 C42.2734737,5.82323333 42.6091128,6.29296481 43.0061053,6.29296481 L48.1200902,6.29296481 C48.5170827,6.29296481 48.8527218,5.82323333 48.8527218,5.26727963 L48.8527218,2.29440926 C48.8527218,1.73755741 48.5170827,1.26872407 48.1200902,1.26872407 L43.0061053,1.26872407 Z M48.1200902,7.34559444 L43.0061053,7.34559444 C42.0190376,7.34559444 41.2160301,6.41331667 41.2160301,5.26727963 L41.2160301,2.29440926 C41.2160301,1.14837222 42.0190376,0.216094444 43.0061053,0.216094444 L48.1200902,0.216094444 C49.1071579,0.216094444 49.9092632,1.14837222 49.9092632,2.29440926 L49.9092632,5.26727963 C49.9092632,6.41331667 49.1071579,7.34559444 48.1200902,7.34559444 Z" id="Fill-37" fill="#273438" mask="url(#mask-4)"></path>
                    <path d="M57.4562707,1.26872407 C57.0592782,1.26872407 56.7236391,1.73755741 56.7236391,2.29440926 L56.7236391,5.26727963 C56.7236391,5.82323333 57.0592782,6.29296481 57.4562707,6.29296481 L62.5702556,6.29296481 C62.9672481,6.29296481 63.301985,5.82323333 63.301985,5.26727963 L63.301985,2.29440926 C63.301985,1.73755741 62.9672481,1.26872407 62.5702556,1.26872407 L57.4562707,1.26872407 Z M62.5702556,7.34559444 L57.4562707,7.34559444 C56.469203,7.34559444 55.6661955,6.41331667 55.6661955,5.26727963 L55.6661955,2.29440926 C55.6661955,1.14837222 56.469203,0.216094444 57.4562707,0.216094444 L62.5702556,0.216094444 C63.5573233,0.216094444 64.3603308,1.14837222 64.3603308,2.29440926 L64.3603308,5.26727963 C64.3603308,6.41331667 63.5573233,7.34559444 62.5702556,7.34559444 Z" id="Fill-38" fill="#273438" mask="url(#mask-4)"></path>
                    <path d="M72.2589474,1.26872407 C71.8619549,1.26872407 71.5263158,1.73755741 71.5263158,2.29440926 L71.5263158,5.26727963 C71.5263158,5.82323333 71.8619549,6.29296481 72.2589474,6.29296481 L77.3729323,6.29296481 C77.7699248,6.29296481 78.1046617,5.82323333 78.1046617,5.26727963 L78.1046617,2.29440926 C78.1046617,1.73755741 77.7699248,1.26872407 77.3729323,1.26872407 L72.2589474,1.26872407 Z M77.3729323,7.34559444 L72.2589474,7.34559444 C71.2718797,7.34559444 70.4688722,6.41331667 70.4688722,5.26727963 L70.4688722,2.29440926 C70.4688722,1.14837222 71.2718797,0.216094444 72.2589474,0.216094444 L77.3729323,0.216094444 C78.36,0.216094444 79.1621053,1.14837222 79.1621053,2.29440926 L79.1621053,5.26727963 C79.1621053,6.41331667 78.36,7.34559444 77.3729323,7.34559444 Z" id="Fill-39" fill="#273438" mask="url(#mask-4)"></path>
                    <polygon id="Fill-40" fill="#273438" mask="url(#mask-4)" points="49.0854135 28.6347593 71.8772932 28.6347593 71.8772932 26.4127407 49.0854135 26.4127407"></polygon>
                    <path d="M83.3204211,6.59007222 C83.3204211,8.91537778 81.6449323,10.7996926 79.5769624,10.7996926 L41.1408722,10.7996926 C39.0738045,10.7996926 37.3974135,8.91537778 37.3974135,6.59007222 C37.3974135,4.26476667 39.0738045,2.38045185 41.1408722,2.38045185 L79.5769624,2.38045185 C81.6449323,2.38045185 83.3204211,4.26476667 83.3204211,6.59007222" id="Fill-41" fill="#F39200" mask="url(#mask-4)"></path>
                    <path d="M72.6422256,73.8345139 C72.6422256,74.4802824 72.1162105,75.0039028 71.4674887,75.0039028 L48.9056842,75.0039028 C48.2578647,75.0039028 47.7318496,74.4802824 47.7318496,73.8345139 C47.7318496,73.1878472 48.2578647,72.6642269 48.9056842,72.6642269 L71.4674887,72.6642269 C72.1162105,72.6642269 72.6422256,73.1878472 72.6422256,73.8345139" id="Fill-42" fill="#F6F6F6" mask="url(#mask-4)"></path>
                    <path d="M72.6448421,83.6572009 C72.6448421,84.3038676 72.1188271,84.827488 71.4701053,84.827488 L48.9083008,84.827488 C48.2604812,84.827488 47.7344662,84.3038676 47.7344662,83.6572009 C47.7344662,83.0114324 48.2604812,82.487812 48.9083008,82.487812 L71.4701053,82.487812 C72.1188271,82.487812 72.6448421,83.0114324 72.6448421,83.6572009" id="Fill-43" fill="#F6F6F6" mask="url(#mask-4)"></path>
                    <path d="M65.5351579,78.8041472 C65.5351579,80.4998509 64.2774135,81.8740176 62.7273383,81.8740176 L57.5926015,81.8740176 C56.0425263,81.8740176 54.7856842,80.4998509 54.7856842,78.8041472 C54.7856842,77.1084435 56.0425263,75.7342769 57.5926015,75.7342769 L62.7273383,75.7342769 C64.2774135,75.7342769 65.5351579,77.1084435 65.5351579,78.8041472" id="Fill-44" fill="#F6F6F6" mask="url(#mask-4)"></path>
                    <path d="M53.9926917,81.2548343 C53.9926917,81.5970287 53.7427669,81.8736583 53.4341955,81.8736583 C53.1256241,81.8736583 52.8766015,81.5970287 52.8766015,81.2548343 L52.8766015,76.3527417 C52.8766015,76.0114454 53.1256241,75.7348157 53.4341955,75.7348157 C53.7427669,75.7348157 53.9926917,76.0114454 53.9926917,76.3527417 L53.9926917,81.2548343 Z" id="Fill-45" fill="#F6F6F6" mask="url(#mask-4)"></path>
                    <path d="M51.7599699,81.2548343 C51.7599699,81.5970287 51.5109474,81.8736583 51.2023759,81.8736583 C50.8938045,81.8736583 50.6438797,81.5970287 50.6438797,81.2548343 L50.6438797,76.3527417 C50.6438797,76.0114454 50.8938045,75.7348157 51.2023759,75.7348157 C51.5109474,75.7348157 51.7599699,76.0114454 51.7599699,76.3527417 L51.7599699,81.2548343 Z" id="Fill-46" fill="#F6F6F6" mask="url(#mask-4)"></path>
                    <path d="M69.8816842,81.2548343 C69.8816842,81.5970287 69.6317594,81.8736583 69.323188,81.8736583 C69.0155188,81.8736583 68.765594,81.5970287 68.765594,81.2548343 L68.765594,76.3527417 C68.765594,76.0114454 69.0155188,75.7348157 69.323188,75.7348157 C69.6317594,75.7348157 69.8816842,76.0114454 69.8816842,76.3527417 L69.8816842,81.2548343 Z" id="Fill-47" fill="#F6F6F6" mask="url(#mask-4)"></path>
                    <path d="M67.6489624,81.2548343 C67.6489624,81.5970287 67.3999398,81.8736583 67.0913684,81.8736583 C66.782797,81.8736583 66.5337744,81.5970287 66.5337744,81.2548343 L66.5337744,76.3527417 C66.5337744,76.0114454 66.782797,75.7348157 67.0913684,75.7348157 C67.3999398,75.7348157 67.6489624,76.0114454 67.6489624,76.3527417 L67.6489624,81.2548343 Z" id="Fill-48" fill="#F6F6F6" mask="url(#mask-4)"></path>
                </g>
            </g>
        </g>
    </g>
</svg>