<?xml version="1.0" encoding="UTF-8"?>
<svg width="120px" height="120px" viewBox="0 0 120 120" version="1.1" xmlns="http://www.w3.org/2000/svg" xmlns:xlink="http://www.w3.org/1999/xlink">
    <!-- Generator: Sketch 51.1 (57501) - http://www.bohemiancoding.com/sketch -->
    <title>Shop23</title>
    <desc>Created with Sketch.</desc>
    <defs>
        <polygon id="path-1" points="0.73925 0.0475 72.65175 0.0475 72.65175 30.19075 0.73925 30.19075"></polygon>
    </defs>
    <g id="Shop23" stroke="none" stroke-width="1" fill="none" fill-rule="evenodd">
        <g id="Page-1" transform="translate(0.000000, 12.000000)">
            <polygon id="Fill-1" fill="#ECF0F1" points="13.175 88.4335 101.2375 88.4335 101.2375 27.7785 13.175 27.7785"></polygon>
            <polygon id="Fill-2" fill="#15A0C9" points="22.0225 88.4335 92.39 88.4335 92.39 36.026 22.0225 36.026"></polygon>
            <path d="M92.38775,34.93575 L92.38775,83.38825 L84.47025,83.38825 C82.76775,62.47075 57.48025,45.89075 26.53525,45.89075 C25.07775,45.89075 23.63525,45.93075 22.20275,46.01575 L22.20275,34.93575 L92.38775,34.93575 Z" id="Fill-3" fill="#FFFFFF" opacity="0.298233696"></path>
            <polygon id="Fill-5" fill="#663F30" points="100.78 36.32 12.9075 36.32 8.22 31.0225 105.1725 29.845"></polygon>
            <g id="Group-65" transform="translate(0.000000, 0.453500)">
                <path d="M105.93275,28.39325 C105.93275,30.17075 104.49025,31.61325 102.71275,31.61325 L10.67775,31.61325 C8.90025,31.61325 7.45775,30.17075 7.45775,28.39325 L7.45775,12.34075 C7.45775,10.56325 8.90025,9.12325 10.67775,9.12325 L102.71275,9.12325 C104.49025,9.12325 105.93275,10.56325 105.93275,12.34075 L105.93275,28.39325 Z" id="Fill-6" fill="#89695E"></path>
                <path d="M91.44525,15.117 C91.44525,22.7745 75.88775,28.982 56.69775,28.982 C37.50275,28.982 21.94775,22.7745 21.94775,15.117 C21.94775,7.4595 37.50275,1.252 56.69775,1.252 C75.88775,1.252 91.44525,7.4595 91.44525,15.117" id="Fill-8" fill="#FFFFFF"></path>
                <g id="Group-12" transform="translate(20.000000, 0.000000)">
                    <mask id="mask-2" fill="white">
                        <use xlink:href="#path-1"></use>
                    </mask>
                    <g id="Clip-11"></g>
                    <path d="M36.69675,2.45825 C16.63425,2.45825 3.15425,9.00575 3.15425,15.11575 C3.15425,21.23075 16.63425,27.77575 36.69675,27.77575 C56.75925,27.77575 70.23925,21.23075 70.23925,15.11575 C70.23925,9.00575 56.75925,2.45825 36.69675,2.45825 M36.69675,30.19075 C16.53425,30.19075 0.73925,23.56825 0.73925,15.11575 C0.73925,6.66575 16.53425,0.04575 36.69675,0.04575 C56.85925,0.04575 72.65175,6.66575 72.65175,15.11575 C72.65175,23.56825 56.85925,30.19075 36.69675,30.19075" id="Fill-10" fill="#795547" mask="url(#mask-2)"></path>
                </g>
                <path d="M71.03525,10.00725 L71.03525,23.54475 L42.35775,23.54475 L42.35775,18.05975 C42.62775,18.12725 42.92775,18.16475 43.23275,18.16475 C44.69025,18.16475 45.87275,17.31725 45.87275,16.27225 C45.87275,15.21725 44.69025,14.36975 43.23275,14.36975 C42.92775,14.36975 42.62775,14.40475 42.35775,14.47725 L42.35775,10.00725 L71.03525,10.00725 Z" id="Fill-13" fill="#FFE167"></path>
                <path d="M42.3585,10.00725 L59.021,4.10975 C59.021,4.10975 68.901,4.60225 71.036,10.00725 L42.3585,10.00725 Z" id="Fill-15" fill="#F5B400"></path>
                <path d="M53.506,14.3235 C53.506,15.5985 52.471,16.6335 51.1935,16.6335 C49.9135,16.6335 48.8785,15.5985 48.8785,14.3235 C48.8785,13.041 49.9135,12.0085 51.1935,12.0085 C52.471,12.0085 53.506,13.041 53.506,14.3235" id="Fill-17" fill="#E49306"></path>
                <path d="M59.73525,17.197 C59.73525,17.727 59.30775,18.157 58.77525,18.157 C58.24275,18.157 57.81525,17.727 57.81525,17.197 C57.81525,16.6645 58.24275,16.2345 58.77525,16.2345 C59.30775,16.2345 59.73525,16.6645 59.73525,17.197" id="Fill-19" fill="#E49306"></path>
                <path d="M54.3945,20.66875 C54.3945,21.33375 53.8595,21.87125 53.1945,21.87125 C52.5295,21.87125 51.992,21.33375 51.992,20.66875 C51.992,20.00375 52.5295,19.46875 53.1945,19.46875 C53.8595,19.46875 54.3945,20.00375 54.3945,20.66875" id="Fill-21" fill="#E49306"></path>
                <path d="M68.0995,14.42125 C68.0995,15.74875 67.0195,16.82375 65.697,16.82375 C64.3695,16.82375 63.2945,15.74875 63.2945,14.42125 C63.2945,13.09375 64.3695,12.01875 65.697,12.01875 C67.0195,12.01875 68.0995,13.09375 68.0995,14.42125" id="Fill-23" fill="#E49306"></path>
                <path d="M67.03,20.85925 C67.03,21.89425 66.1925,22.72925 65.1625,22.72925 C64.13,22.72925 63.2925,21.89425 63.2925,20.85925 C63.2925,19.82925 64.13,18.99425 65.1625,18.99425 C66.1925,18.99425 67.03,19.82925 67.03,20.85925" id="Fill-25" fill="#E49306"></path>
                <path d="M46.92025,21.184 C46.92025,21.7565 46.45275,22.2265 45.87275,22.2265 C45.30275,22.2265 44.83275,21.7565 44.83275,21.184 C44.83275,20.6065 45.30275,20.139 45.87275,20.139 C46.45275,20.139 46.92025,20.6065 46.92025,21.184" id="Fill-27" fill="#E49306"></path>
                <path d="M103.38625,87.41425 C103.38625,89.19675 101.94375,90.63675 100.16625,90.63675 L12.82375,90.63675 C11.04625,90.63675 9.60375,89.19675 9.60375,87.41425 L9.60375,72.90675 C9.60375,71.12925 11.04625,69.68675 12.82375,69.68675 L100.16625,69.68675 C101.94375,69.68675 103.38625,71.12925 103.38625,72.90675 L103.38625,87.41425 Z" id="Fill-29" fill="#999999"></path>
                <path d="M103.38625,94.116 C103.38625,95.8985 101.94375,97.3385 100.16625,97.3385 L12.82375,97.3385 C11.04625,97.3385 9.60375,95.8985 9.60375,94.116 L9.60375,79.6085 C9.60375,77.831 11.04625,76.3885 12.82375,76.3885 L100.16625,76.3885 C101.94375,76.3885 103.38625,77.831 103.38625,79.6085 L103.38625,94.116 Z" id="Fill-31" fill="#B2B2B2"></path>
                <path d="M59.9415,64.143 L59.9415,71.0705 C59.9415,72.9005 65.179,74.3805 71.6365,74.3805 C78.094,74.3805 83.3265,72.9005 83.3265,71.0705 L83.3265,64.143 L59.9415,64.143 Z" id="Fill-33" fill="#ECF0F1"></path>
                <path d="M83.32775,64.143 C83.32775,65.968 78.09275,67.448 71.63525,67.448 C65.17775,67.448 59.94275,65.968 59.94275,64.143 C59.94275,62.318 65.17775,60.833 71.63525,60.833 C78.09275,60.833 83.32775,62.318 83.32775,64.143" id="Fill-35" fill="#E6E6E6"></path>
                <path d="M41.32325,57.10675 C41.31825,55.67925 40.26825,54.18925 39.21075,52.71425 C38.42075,51.61925 38.30075,49.97925 38.29075,49.21675 L38.38575,49.21675 C38.84325,49.21675 39.21075,48.90175 39.21075,48.50925 L39.21075,47.89175 C39.21075,47.49675 38.84325,47.17675 38.38575,47.17675 L35.80575,47.17675 L35.78075,47.17675 L33.19825,47.17675 C32.74325,47.17675 32.37575,47.49675 32.37575,47.89175 L32.37575,48.50925 C32.37575,48.90175 32.74325,49.21675 33.19825,49.21675 L33.29575,49.21675 C33.28575,49.97925 33.16325,51.61925 32.37575,52.71425 C31.31825,54.18925 30.26825,55.67925 30.26075,57.10675 C30.26075,57.11675 30.26575,57.12925 30.26575,57.13925 C30.26575,57.14925 30.26075,57.15425 30.26075,57.15925 L30.26075,71.76175 C30.26075,73.04425 32.32575,74.40425 35.78075,74.40675 L35.79325,74.40675 L35.80575,74.40675 C39.25825,74.40425 41.32325,73.04425 41.32325,71.76175 L41.32325,57.15925 C41.32325,57.15425 41.32075,57.14925 41.32075,57.13925 C41.32075,57.12925 41.32325,57.11675 41.32325,57.10675" id="Fill-37" fill="#CAECF4"></path>
                <path d="M31.4245,57.35575 L31.4245,71.78325 C31.4245,72.63575 33.3845,73.32825 35.8045,73.32825 C38.222,73.32825 40.182,72.63575 40.182,71.78325 L40.182,57.35575 L31.4245,57.35575 Z" id="Fill-39" fill="#F2F2F2"></path>
                <path d="M40.182,57.35575 C40.182,57.77075 38.222,58.11075 35.807,58.11075 C33.3845,58.11075 31.4245,57.77075 31.4245,57.35575 C31.4245,56.93825 33.3845,56.60075 35.807,56.60075 C38.222,56.60075 40.182,56.93825 40.182,57.35575" id="Fill-41" fill="#FFFFFF"></path>
                <path d="M39.21875,48.74975 C39.21875,49.15475 38.88875,49.48475 38.48375,49.48475 L33.05375,49.48475 C32.64875,49.48475 32.31625,49.15475 32.31625,48.74975 L32.31625,47.91475 C32.31625,47.50975 32.64875,47.17725 33.05375,47.17725 L38.48375,47.17725 C38.88875,47.17725 39.21875,47.50975 39.21875,47.91475 L39.21875,48.74975 Z" id="Fill-43" fill="#FFFFFF"></path>
                <path d="M24.54225,62.07 L25.27725,73.5375 C25.27725,74.0275 26.80225,75.1575 29.59475,75.1575 C32.38475,75.1575 33.90975,74.0275 33.90975,73.5375 L34.64725,62.07 L24.54225,62.07 Z" id="Fill-45" fill="#95D8E9"></path>
                <path d="M34.646,62.07 C34.646,62.5625 32.386,62.9575 29.5935,62.9575 C26.8035,62.9575 24.541,62.5625 24.541,62.07 C24.541,61.58 26.8035,61.1825 29.5935,61.1825 C32.386,61.1825 34.646,61.58 34.646,62.07" id="Fill-47" fill="#CAECF4"></path>
                <path d="M25.531,65.1635 L25.901,73.0285 C25.901,73.856 27.4985,74.521 29.6285,74.521 C31.761,74.521 33.286,73.856 33.286,73.0285 L33.6535,65.1635 L25.531,65.1635 Z" id="Fill-49" fill="#CAECF4"></path>
                <path d="M33.6475,65.3 C33.6475,65.7 31.7575,66.0275 29.6275,66.0275 C27.4925,66.0275 25.53,65.7 25.53,65.3 C25.53,64.9 27.4925,64.5725 29.6275,64.5725 C31.7575,64.5725 33.6475,64.9 33.6475,65.3" id="Fill-51" fill="#FFFFFF"></path>
                <path d="M45.835,67.0945 L45.835,72.4195 C45.835,73.8195 49.8575,74.9595 54.82,74.9595 C59.78,74.9595 63.8025,73.8195 63.8025,72.4195 L63.8025,67.0945 L45.835,67.0945 Z" id="Fill-53" fill="#F5B400"></path>
                <path d="M63.80125,67.0945 C63.80125,68.4995 59.78125,69.637 54.81875,69.637 C49.85875,69.637 45.83375,68.4995 45.83375,67.0945 C45.83375,65.6895 49.85875,64.5545 54.81875,64.5545 C59.78125,64.5545 63.80125,65.6895 63.80125,67.0945" id="Fill-55" fill="#E49306"></path>
                <path d="M118.36925,92.927 C118.36925,94.6545 117.85175,96.2445 116.96925,97.4995 L88.14425,97.4995 C87.69925,96.672 87.45175,95.6995 87.45175,94.662 C87.45175,91.5595 89.67175,89.0395 92.40175,89.0395 C92.79425,89.0395 93.17175,89.107 93.53675,89.202 C93.97425,84.087 97.77675,80.0845 102.40425,80.0845 C105.89675,80.0845 108.90425,82.362 110.36925,85.672 C110.83175,85.552 111.31425,85.487 111.80675,85.487 C115.43425,85.487 118.36925,88.817 118.36925,92.927" id="Fill-57" fill="#159B45"></path>
                <path d="M13.10675,86.345 C13.10675,87.305 12.33175,88.08 11.37425,88.08 C10.41675,88.08 9.63925,87.305 9.63925,86.345 L9.63925,67.9925 C9.63925,67.03 10.41675,66.255 11.37425,66.255 C12.33175,66.255 13.10675,67.03 13.10675,67.9925 L13.10675,86.345 Z" id="Fill-59" fill="#89695E"></path>
                <path d="M16.49775,95.67375 C16.49775,96.34875 15.95275,96.89125 15.28025,96.89125 L7.46775,96.89125 C6.79525,96.89125 6.25025,96.34875 6.25025,95.67375 L5.03275,81.67375 C5.03275,80.99875 5.57525,80.45375 6.25025,80.45375 L16.49775,80.45375 C17.17025,80.45375 17.71525,80.99875 17.71525,81.67375 L16.49775,95.67375 Z" id="Fill-61" fill="#663F30"></path>
                <path d="M22.74775,61.411 C22.74775,67.6885 17.65525,72.776 11.37525,72.776 C5.09275,72.776 0.00025,67.6885 0.00025,61.411 C0.00025,55.126 5.09275,50.0335 11.37525,50.0335 C17.65525,50.0335 22.74775,55.126 22.74775,61.411" id="Fill-63" fill="#159B45"></path>
            </g>
        </g>
    </g>
</svg>