<?xml version="1.0" encoding="UTF-8"?>
<svg width="120px" height="120px" viewBox="0 0 120 120" version="1.1" xmlns="http://www.w3.org/2000/svg" xmlns:xlink="http://www.w3.org/1999/xlink">
    <!-- Generator: Sketch 51.1 (57501) - http://www.bohemiancoding.com/sketch -->
    <title>Pot plant4</title>
    <desc>Created with Sketch.</desc>
    <defs>
        <polygon id="path-1" points="0 0.11539726 48.9343562 0.11539726 48.9343562 40.327726 0 40.327726"></polygon>
        <polygon id="path-3" points="0.305589041 0.120041096 67.915726 0.120041096 67.915726 10.6849315 0.305589041 10.6849315"></polygon>
    </defs>
    <g id="Pot-plant4" stroke="none" stroke-width="1" fill="none" fill-rule="evenodd">
        <g id="Group" transform="translate(13.000000, 0.000000)">
            <path d="M63.8635479,59.3158767 C67.6369726,58.4664247 73.7812192,58.1754658 82.5182055,61.0324521 C71.9573836,64.1705342 65.763411,63.6375205 62.4543699,62.6693014 C64.7195753,64.2198493 67.8777945,68.1288904 65.5903973,77.4498493 C59.1839589,71.9976575 58.6024521,67.4688904 59.1823151,64.6940959 C56.933137,67.4783425 52.5905342,71.1814932 44.2061507,74.9919041 C48.4542329,67.6710822 52.9423151,63.8890274 56.2953288,61.942726 C52.7693014,61.5975205 47.5554658,59.8895753 42.7324521,53.7054658 C54.4895753,54.3954658 58.4717671,57.7501233 59.8201233,59.8977945 C59.4247808,57.4176575 60.2462877,52.3866986 68.8106712,44.6039589 C69.2294384,52.3509452 66.3457397,56.8817671 63.8635479,59.3158767" id="Fill-1" fill="#456C0A"></path>
            <path d="M71.2640137,42.8201507 C64.2892192,51.1034384 60.441411,61.9585068 60.641137,72.7856301" id="Stroke-3" stroke="#456C0A" stroke-width="3"></path>
            <path d="M55.9257123,44.3801096 C50.8257123,54.2336712 48.3500959,65.4306575 48.8214658,76.5154521" id="Stroke-5" stroke="#456C0A" stroke-width="3"></path>
            <path d="M25.6682466,44.6028493 C26.1613973,44.7713425 26.6085205,45.0516164 27.0383836,45.3466849 C31.7545479,48.5780548 34.873726,53.7421644 36.6729041,59.1688767 C38.4716712,64.595589 39.0733151,70.3346301 39.663863,76.0210685" id="Stroke-7" stroke="#456C0A" stroke-width="3"></path>
            <path d="M33.898274,26.7349315 C38.8790959,42.209589 41.478,58.4486301 41.5758082,74.7053425" id="Stroke-9" stroke="#456C0A" stroke-width="3"></path>
            <path d="M64.5835068,18.348411 C63.5154247,18.6808767 62.721863,19.557863 61.9833699,20.398274 C59.0158356,23.7751233 56.0141918,27.2025205 54.011589,31.2274521 C53.0972055,33.0660822 52.4030959,35.0066301 51.7739178,36.9619726 C47.7140548,49.5804658 46.291726,62.9160822 46.0566575,76.1695068" id="Stroke-11" stroke="#456C0A" stroke-width="3"></path>
            <path d="M58.8088356,47.8869041 C63.3889726,49.017863 70.8729452,49.5270411 81.5981507,46.2636164 C68.8000685,42.1708767 61.2343151,42.6652603 57.175274,43.7625205 C59.9763699,41.9292329 63.924863,37.2418356 61.3711644,25.8188219 C53.4219863,32.3053973 52.5992466,37.8130685 53.2362329,41.2108767 C50.5637671,37.7592329 45.3622603,33.1351233 35.2341781,28.2771781 C40.2297945,37.3116986 45.6071918,42.0360822 49.6465068,44.4936164 C45.3384247,44.8256712 38.9381507,46.7769041 32.9011644,54.1963562 C47.254726,53.6501918 52.1944521,49.6597808 53.8929452,47.0756712 C53.3488356,50.0896438 54.2241781,56.2449863 64.4706164,65.9506027 C65.1762329,56.5149863 61.7743151,50.9173151 58.8088356,47.8869041" id="Fill-13" fill="#548611"></path>
            <g id="Group-17" transform="translate(0.000000, 24.344795)">
                <mask id="mask-2" fill="white">
                    <use xlink:href="#path-1"></use>
                </mask>
                <g id="Clip-16"></g>
                <path d="M22.8306575,22.0856712 C18.2912055,23.368274 10.8277808,24.1264932 -0.000164383562,21.2210137 C12.6549041,16.7049863 20.2329863,16.9474521 24.3265479,17.9095068 C21.466274,16.1699178 17.3632603,11.6164932 19.536,0.11539726 C27.696411,6.33361644 28.7024384,11.8112877 28.1780548,15.228411 C30.7350411,11.6900548 35.7795616,6.8949863 45.7403836,1.70293151 C41.0484658,10.898137 35.8305205,15.7992329 31.8750411,18.3899178 C36.1917534,18.5785479 42.6536712,20.3156712 48.9343562,27.5304658 C34.5701096,27.4618356 29.5001096,23.637863 27.7169589,21.1116986 C28.3613425,24.1059452 27.6910685,30.2871781 17.7725753,40.327726 C16.7538082,30.9208767 19.9679178,25.2130685 22.8306575,22.0856712" id="Fill-15" fill="#71B70B" mask="url(#mask-2)"></path>
            </g>
            <path d="M63.9887671,46.5059178 C59.4928767,45.0778356 52.8447945,41.6023562 45.4039726,33.2167397 C58.4547945,36.4119452 64.6483562,40.7861918 67.5361644,43.8424932 C66.1056164,40.8157808 65.1867123,34.7557808 73.3315068,26.3496164 C76.7215068,36.0334521 74.5458904,41.1597534 72.2276712,43.724137 C76.309726,42.1772877 83.1608219,40.9505753 94.3347945,42.0992055 C85.3561644,47.1934521 78.3024658,48.4131781 73.5739726,48.3983836 C77.0745205,50.9323562 81.5128767,55.9394795 82.7847945,65.4194795 C70.83,57.4563288 68.7024658,51.4731781 68.6042466,48.3819452 C67.4938356,51.2368767 63.5321918,56.0282466 49.7247945,58.9513973 C54.0517808,50.5370137 59.8771233,47.5415342 63.9887671,46.5059178" id="Fill-18" fill="#71B70B"></path>
            <path d="M66.5427945,24.9357945 C70.6873151,27.1882603 77.7997808,29.5742877 89.0012877,29.1300411 C77.6551233,21.9329178 70.2101918,20.4970274 66.0052603,20.5323699 C69.1790959,19.4667534 74.1853973,15.931274 74.6041644,4.23373973 C65.2725205,8.49826027 63.0833425,13.6188082 62.8400548,17.0675753 C61.1271781,13.0516849 57.2649863,7.26168493 48.6952603,4.10958904e-05 C51.2432055,10.0040137 55.2500548,15.9357945 58.5369041,19.3352466 C54.2847123,18.5663425 47.5988219,18.8351096 39.8814247,24.4857945 C53.9066301,27.5889452 59.6949863,24.9781233 61.9918356,22.9073014 C60.7026575,25.6853836 59.9925205,31.8620959 67.4510137,43.8440137 C70.5204658,34.8937397 68.6444384,28.6179863 66.5427945,24.9357945" id="Fill-20" fill="#93C91C"></path>
            <path d="M30.1669315,28.9980411 C26.4654247,30.1199589 20.3589863,30.8572192 11.4370685,28.6442055 C21.7414521,24.7450274 27.9576164,24.8263973 31.3283014,25.5509178 C28.9562466,24.1696849 25.522274,20.5006438 27.1250137,11.0383151 C33.9111781,16.009274 34.8206301,20.4837945 34.4441918,23.2935205 C36.4854247,20.3531096 40.5461096,16.3437945 48.6313151,11.9329726 C44.9273425,19.5439315 40.7265205,23.6428356 37.5239178,25.8279041 C41.0659726,25.9150274 46.3899452,27.239137 51.6506301,33.0558493 C39.8741918,33.2231096 35.6585753,30.1672192 34.1573425,28.1235205 C34.732274,30.5683151 34.2785753,35.6461233 26.3039178,44.0313288 C25.3225479,36.3353014 27.8688493,31.6068082 30.1669315,28.9980411" id="Fill-22" fill="#93C91C"></path>
            <g id="Group-26" transform="translate(15.205479, 109.002329)">
                <mask id="mask-4" fill="white">
                    <use xlink:href="#path-3"></use>
                </mask>
                <g id="Clip-25"></g>
                <path d="M67.915726,5.40250685 C67.915726,8.31990411 52.7805205,10.6849726 34.1106575,10.6849726 C15.4407945,10.6849726 0.305589041,8.31990411 0.305589041,5.40250685 C0.305589041,2.48510959 15.4407945,0.120041096 34.1106575,0.120041096 C52.7805205,0.120041096 67.915726,2.48510959 67.915726,5.40250685" id="Fill-24" fill="#D3DFED" mask="url(#mask-4)"></path>
            </g>
            <polygon id="Fill-27" fill="#7C5327" points="76.375726 69.5970822 22.2569589 69.5970822 26.9123014 114.404753 71.7199726 114.404753"></polygon>
            <polygon id="Fill-29" fill="#936134" points="78.2932603 75.8369178 20.3394247 75.8369178 19.8203836 69.5969178 78.8118904 69.5969178"></polygon>
            <path d="M42.8693425,60.4215205 C46.7187945,60.7991918 52.643589,62.4508356 60.0420822,67.9059041 C49.0304384,67.5709726 43.3168767,65.1212466 40.4792055,63.1630274 C42.1427671,65.3456301 43.914411,70.0490548 38.8176986,78.1806986 C34.4455068,70.9938493 35.3155068,66.5111096 36.7370137,64.0589178 C33.7271507,65.9957671 28.4422192,68.1491918 19.2852329,69.1359041 C25.6160548,63.5176849 31.0645479,61.3354932 34.8589315,60.5398767 C31.6193425,59.1056301 27.2052329,55.8475479 24.5664658,48.4617945 C35.5131781,52.8076849 38.2411233,57.2427534 38.8472877,59.7043973 C39.2504384,57.2259041 41.6097534,52.707 52.183726,48.0052192 C50.1498904,55.4920685 45.9897534,58.8890548 42.8693425,60.4215205" id="Fill-31" fill="#93C91C"></path>
        </g>
    </g>
</svg>