<?xml version="1.0" encoding="UTF-8"?>
<svg width="120px" height="120px" viewBox="0 0 120 120" version="1.1" xmlns="http://www.w3.org/2000/svg" xmlns:xlink="http://www.w3.org/1999/xlink">
    <!-- Generator: Sketch 51.1 (57501) - http://www.bohemiancoding.com/sketch -->
    <title>Bridge2</title>
    <desc>Created with Sketch.</desc>
    <defs>
        <polygon id="path-1" points="0.00290322581 0.17222069 61.3732258 0.17222069 61.3732258 69.7573241 0.00290322581 69.7573241"></polygon>
        <polygon id="path-3" points="0 119.827862 119.921613 119.827862 119.921613 0.413793103 0 0.413793103"></polygon>
    </defs>
    <g id="Bridge2" stroke="none" stroke-width="1" fill="none" fill-rule="evenodd">
        <g id="Page-1">
            <path d="M21.1959194,81.614069 C30.8743065,81.614069 39.8868871,58.8529655 40.2686613,57.8743448 L39.1533387,57.5548966 C39.0614032,57.7907586 29.8799516,81.0086897 20.9738226,80.6027586 C16.6368871,80.4004138 12.7886613,74.1744828 9.84333871,62.5977931 L8.69317742,62.8117241 C11.8509194,75.2242759 15.8462419,81.3724138 20.9109194,81.6078621 C21.0043065,81.6124138 21.1044677,81.614069 21.1959194,81.614069" id="Fill-1" fill="#802214"></path>
            <path d="M11.0079194,82.8194897 C11.7279194,82.8194897 12.4575968,82.6771448 13.184371,82.3932828 C28.6101774,76.3725931 40.9488871,4.43838621 41.4656613,1.37921379 L40.2995323,1.23521379 C40.1742097,1.97797241 27.5422742,75.6840414 12.6942097,81.4779724 C11.3514677,82.0026621 10.0605,81.9095586 8.75162903,81.1912138 L8.30308065,82.1359034 C9.2538871,82.6564552 10.0334032,82.8194897 11.0079194,82.8194897" id="Fill-3" fill="#802214"></path>
            <polygon id="Fill-5" fill="#802214" points="52.814129 17.0625517 54.0654194 18.4942759 54.0654194 80.7688966 52.814129 80.7688966"></polygon>
            <polygon id="Fill-7" fill="#802214" points="49.2521613 17.0625517 50.502 18.4942759 50.502 80.7688966 49.2521613 80.7688966"></polygon>
            <polygon id="Fill-9" fill="#802214" points="45.6890806 8.95398621 46.9398871 10.5677793 46.9398871 80.7690207 45.6890806 80.7690207"></polygon>
            <g id="Group-13" transform="translate(58.548387, 0.241655)">
                <mask id="mask-2" fill="white">
                    <use xlink:href="#path-1"></use>
                </mask>
                <g id="Clip-12"></g>
                <path d="M60.6091935,69.7573241 L61.3732258,68.3367724 C61.0069355,68.0748414 24.7925806,41.9529103 1.59629032,0.17222069 L0.00290322581,0.819393103 C23.3724194,42.9124966 60.24,69.4945655 60.6091935,69.7573241" id="Fill-11" fill="#802214" mask="url(#mask-2)"></path>
            </g>
            <path d="M44.4763065,10.9459862 C44.4763065,9.37026207 46.8908226,7.61288276 49.8700161,7.61288276 C52.8472742,7.61288276 55.2632419,9.37026207 55.2632419,10.9459862 L55.2632419,16.5024 L44.4763065,16.5024 L44.4763065,10.9459862 Z M44.4763065,27.3818483 C44.4763065,25.8057103 46.8908226,24.0491586 49.8700161,24.0491586 C52.8472742,24.0491586 55.2632419,25.8057103 55.2632419,27.3818483 L55.2632419,35.4537103 L44.4763065,35.4537103 L44.4763065,27.3818483 Z M44.4763065,45.9975724 C44.4763065,44.4218483 46.8908226,42.664469 49.8700161,42.664469 C52.8472742,42.664469 55.2632419,44.4218483 55.2632419,45.9975724 L55.2632419,55.5777103 L44.4763065,55.5777103 L44.4763065,45.9975724 Z M44.4763065,65.6184 C44.4763065,64.0426759 46.8908226,62.2852966 49.8700161,62.2852966 C52.8501774,62.2852966 55.2632419,64.0426759 55.2632419,65.6184 L55.2632419,80.7330207 L44.4763065,80.7330207 L44.4763065,65.6184 Z M40.8825968,81.5966069 L60.1445323,81.5966069 L60.1445323,0.414124138 L40.8825968,0.414124138 L40.8825968,81.5966069 Z" id="Fill-14" fill="#E94E27"></path>
            <path d="M4.57630645,60.0701793 C4.57630645,59.526869 5.41098387,58.9185931 6.44114516,58.9185931 C7.46985484,58.9185931 8.30308065,59.526869 8.30308065,60.0701793 L8.30308065,61.9893517 L4.57630645,61.9893517 L4.57630645,60.0701793 Z M4.57630645,65.7478345 C4.57630645,65.202869 5.41098387,64.5962483 6.44114516,64.5962483 C7.46985484,64.5962483 8.30308065,65.202869 8.30308065,65.7478345 L8.30308065,68.5355586 L4.57630645,68.5355586 L4.57630645,65.7478345 Z M4.57630645,72.1777655 C4.57630645,71.6328 5.41098387,71.0257655 6.44114516,71.0257655 C7.46985484,71.0257655 8.30308065,71.6328 8.30308065,72.1777655 L8.30308065,75.4864552 L4.57630645,75.4864552 L4.57630645,72.1777655 Z M4.57630645,78.9556966 C4.57630645,78.4119724 5.41098387,77.8041103 6.44114516,77.8041103 C7.46985484,77.8041103 8.30308065,78.4119724 8.30308065,78.9556966 L8.30308065,84.1769379 L4.57630645,84.1769379 L4.57630645,78.9556966 Z M3.33566129,88.5002483 L9.98985484,84.4752828 L9.98985484,56.4316966 L3.33566129,56.4316966 L3.33566129,88.5002483 Z" id="Fill-16" fill="#E94E27"></path>
            <mask id="mask-4" fill="white">
                <use xlink:href="#path-3"></use>
            </mask>
            <g id="Clip-19"></g>
            <polygon id="Fill-18" fill="#E84D25" mask="url(#mask-4)" points="55.3804839 117.418345 60.1441935 117.418345 60.1441935 82.5782069 55.3804839 82.5782069"></polygon>
            <polygon id="Fill-20" fill="#E84D25" mask="url(#mask-4)" points="41.4202258 84.2861379 56.9761935 97.5895862 59.2261935 95.6654483 43.6711935 82.3624138"></polygon>
            <polygon id="Fill-21" fill="#E84D25" mask="url(#mask-4)" points="43.2304839 96.6304552 56.0874194 85.6351448 53.8379032 83.7097655 40.98 94.7063172"></polygon>
            <polygon id="Fill-22" fill="#E84D25" mask="url(#mask-4)" points="41.1846774 96.8064414 56.7406452 110.109476 58.9901613 108.185338 43.4356452 94.883131"></polygon>
            <polygon id="Fill-23" fill="#E84D25" mask="url(#mask-4)" points="42.9935323 109.14989 57.7607903 96.6305793 55.5959516 94.4014759 40.7440161 107.226993"></polygon>
            <polygon id="Fill-24" fill="#E84D25" mask="url(#mask-4)" points="42.093871 112.891034 57.7606452 112.891034 57.7606452 110.879172 42.093871 110.879172"></polygon>
            <polygon id="Fill-25" fill="#E94E27" mask="url(#mask-4)" points="37.8130645 119.827862 44.4764516 119.827862 44.4764516 83.7095172 37.8130645 83.7095172"></polygon>
            <polygon id="Fill-26" fill="#E84D25" mask="url(#mask-4)" points="61.203871 112.891034 64.8817742 115.280276 64.8817742 119.80469 55.4095161 119.80469 55.4095161 110.879172"></polygon>
            <polygon id="Fill-27" fill="#B83A1A" mask="url(#mask-4)" points="35.9429032 112.608538 33.1795161 114.662193 33.1795161 118.551021 40.2967742 118.551021 40.2967742 110.878883"></polygon>
            <polygon id="Fill-28" fill="#E94E27" mask="url(#mask-4)" points="3.71612903 97.1507586 5.08983871 97.1507586 5.08983871 87.1187586 3.71612903 87.1187586"></polygon>
            <polygon id="Fill-29" fill="#E94E27" mask="url(#mask-4)" points="8.23016129 96.8238621 9.6 96.8238621 9.6 86.7918621 8.23016129 86.7918621"></polygon>
            <polygon id="Fill-30" fill="#E94E27" mask="url(#mask-4)" points="4.20895161 87.2845241 8.6891129 91.1145931 9.33604839 90.5601103 4.85685484 86.7300414"></polygon>
            <polygon id="Fill-31" fill="#E94E27" mask="url(#mask-4)" points="4.7306129 90.8393793 8.43367742 87.6726207 7.78529032 87.1189655 4.08367742 90.2848966"></polygon>
            <polygon id="Fill-32" fill="#E94E27" mask="url(#mask-4)" points="4.14232258 90.888869 8.62006452 94.7201793 9.26941935 94.1652828 4.78925806 90.3356276"></polygon>
            <polygon id="Fill-33" fill="#E94E27" mask="url(#mask-4)" points="4.66282258 94.4436828 8.9141129 90.8395448 8.29233871 90.1960966 4.01443548 93.8896138"></polygon>
            <polygon id="Fill-34" fill="#E94E27" mask="url(#mask-4)" points="4.40322581 95.5204138 8.91435484 95.5204138 8.91435484 94.9406897 4.40322581 94.9406897"></polygon>
            <polygon id="Fill-35" fill="#E94E27" mask="url(#mask-4)" points="3.42077419 95.5205793 2.364 96.2087172 2.364 97.5109241 5.09012903 97.5109241 5.09012903 94.9408552"></polygon>
            <polygon id="Fill-36" fill="#E94E27" mask="url(#mask-4)" points="9.90459677 95.5205793 10.9642742 96.2087172 10.9642742 97.5109241 8.23814516 97.5109241 8.23814516 94.9408552"></polygon>
            <polygon id="Fill-37" fill="#802214" mask="url(#mask-4)" points="31.995 81.3806897 32.6458065 81.3806897 32.6458065 39.8234483 31.995 39.8234483"></polygon>
            <polygon id="Fill-38" fill="#802214" mask="url(#mask-4)" points="34.0393548 81.3806897 34.6916129 81.3806897 34.6916129 32.9582069 34.0393548 32.9582069"></polygon>
            <polygon id="Fill-39" fill="#802214" mask="url(#mask-4)" points="35.9520968 81.0955862 36.6029032 81.0955862 36.6029032 25.4697931 35.9520968 25.4697931"></polygon>
            <polygon id="Fill-40" fill="#802214" mask="url(#mask-4)" points="37.9170968 80.9822069 38.5669355 80.9822069 38.5669355 15.5486897 37.9170968 15.5486897"></polygon>
            <polygon id="Fill-41" fill="#802214" mask="url(#mask-4)" points="30.375 82.3626207 31.0233871 82.3626207 31.0233871 46.9928276 30.375 46.9928276"></polygon>
            <polygon id="Fill-42" fill="#802214" mask="url(#mask-4)" points="28.3891935 81.614069 29.0385484 81.614069 29.0385484 53.0172414 28.3891935 53.0172414"></polygon>
            <polygon id="Fill-43" fill="#802214" mask="url(#mask-4)" points="26.4043548 82.5782069 27.0527419 82.5782069 27.0527419 59.3995862 26.4043548 59.3995862"></polygon>
            <polygon id="Fill-44" fill="#802214" mask="url(#mask-4)" points="24.7896774 83.7095172 25.4419355 83.7095172 25.4419355 63.9306207 24.7896774 63.9306207"></polygon>
            <polygon id="Fill-45" fill="#802214" mask="url(#mask-4)" points="22.9475806 84.2863448 23.5969355 84.2863448 23.5969355 68.6755862 22.9475806 68.6755862"></polygon>
            <polygon id="Fill-46" fill="#802214" mask="url(#mask-4)" points="21.1083871 84.2863448 21.7606452 84.2863448 21.7606452 71.5067586 21.1083871 71.5067586"></polygon>
            <polygon id="Fill-47" fill="#802214" mask="url(#mask-4)" points="19.3432258 83.9722759 19.9954839 83.9722759 19.9954839 75.2064828 19.3432258 75.2064828"></polygon>
            <polygon id="Fill-48" fill="#802214" mask="url(#mask-4)" points="14.0496774 84.6641379 14.6990323 84.6641379 14.6990323 75.897931 14.0496774 75.897931"></polygon>
            <polygon id="Fill-49" fill="#802214" mask="url(#mask-4)" points="12.4814516 84.6641379 13.1322581 84.6641379 13.1322581 73.4068966 12.4814516 73.4068966"></polygon>
            <polygon id="Fill-50" fill="#802214" mask="url(#mask-4)" points="10.7579032 83.8510345 11.4101613 83.8510345 11.4101613 69.1108966 10.7579032 69.1108966"></polygon>
            <polygon id="Fill-51" fill="#B83A1A" mask="url(#mask-4)" points="40.2967742 33.1461517 38.2417742 35.2064276 38.2417742 81.5963586 40.2967742 81.5963586"></polygon>
            <polygon id="Fill-52" fill="#B83A1A" mask="url(#mask-4)" points="40.2689032 85.9799172 40.2969677 119.827779 33.1797097 119.804607 33.1797097 114.193986 37.5640645 111.892883 37.8132581 85.8677793"></polygon>
            <polyline id="Fill-53" fill="#B83A1A" mask="url(#mask-4)" points="40.8825 0.413834483 39.7110484 2.07893793 39.7110484 81.5963172 40.8825 81.5963172"></polyline>
            <polygon id="Fill-54" fill="#802214" mask="url(#mask-4)" points="42.7355323 0.711475862 42.6102097 0.413958621 40.8823065 0.413958621 40.6123065 0.7992 40.8823065 1.30609655"></polygon>
            <path d="M115.606065,80.4393931 C6.76558065,77.0856 1.19525806,87.275669 1.19525806,87.275669 L0.146709677,88.5000828 L9.67741936e-05,90.5024276 C9.67741936e-05,90.5024276 16.9138065,75.6600828 119.724774,98.0496 L119.724774,80.5643586 L115.606065,80.4393931 Z" id="Fill-55" fill="#802214" mask="url(#mask-4)"></path>
            <path d="M119.724629,82.7841517 C119.724629,82.7841517 19.0209194,76.9624966 1.32720968,87.1190483 C1.32720968,87.1190483 7.00398387,77.0518759 119.724629,80.3957379 L119.724629,82.7841517 Z" id="Fill-56" fill="#E94E27" mask="url(#mask-4)"></path>
            <path d="M119.724629,98.0494345 L119.724629,95.2306759 C119.724629,95.2306759 42.5118871,77.4938483 0.146564516,88.500331 L0.130596774,89.296469 L-4.83870968e-05,90.5026759 C-4.83870968e-05,90.5026759 18.6831774,75.7968828 119.724629,98.0494345" id="Fill-57" fill="#E94E27" mask="url(#mask-4)"></path>
            <polygon id="Fill-58" fill="#802214" mask="url(#mask-4)" points="96.9805645 49.8471724 98.1515323 50.7202759 98.1515323 83.5775172 96.9805645 83.5775172"></polygon>
            <polygon id="Fill-59" fill="#802214" mask="url(#mask-4)" points="104.824548 56.4314897 105.996 57.5549379 105.996 83.5775586 104.824548 83.5775586"></polygon>
            <polygon id="Fill-60" fill="#802214" mask="url(#mask-4)" points="115.213403 65.1360828 116.383403 67.2422897 116.383403 83.5776 115.213403 83.5776"></polygon>
            <polygon id="Fill-61" fill="#802214" mask="url(#mask-4)" points="88.2472742 40.637669 89.4211452 42.3470483 89.4211452 81.6139448 88.2472742 81.6139448"></polygon>
            <polygon id="Fill-62" fill="#802214" mask="url(#mask-4)" points="80.3101452 31.9429655 81.4825645 33.6436552 81.4825645 81.6142759 80.3101452 81.6142759"></polygon>
            <polygon id="Fill-63" fill="#802214" mask="url(#mask-4)" points="73.0559032 20.8745793 74.2259032 22.5686483 74.2259032 81.6140276 73.0559032 81.6140276"></polygon>
            <polygon id="Fill-64" fill="#802214" mask="url(#mask-4)" points="66.9715645 13.9982897 68.1401129 15.6898759 68.1401129 81.6141517 66.9715645 81.6141517"></polygon>
            <polygon id="Fill-65" fill="#802214" mask="url(#mask-4)" points="62.0690806 6.45144828 63.2405323 8.14055172 63.2405323 81.614069 62.0690806 81.614069"></polygon>
            <path d="M102.089081,81.5964828 L103.471984,80.4051724 C103.086339,80.0906897 64.6418226,48.3771724 42.7355323,0.711517241 L40.8823065,1.30613793 C62.9531129,49.3264138 101.700532,81.279931 102.089081,81.5964828" id="Fill-66" fill="#802214" mask="url(#mask-4)"></path>
            <path d="M8.37924194,89.2003448 C8.37965573,89.2094483 8.37965573,89.2189655 8.37965573,89.228069 C8.38089711,89.2276552 8.38089711,89.2268276 8.38213849,89.2264138 C8.38089711,89.2177241 8.37965573,89.2090345 8.37924194,89.2003448 Z" id="Stroke-67" stroke="#231815" stroke-width="0.5" mask="url(#mask-4)"></path>
            <path d="M8.3792703,89.2264138 C8.37802892,89.2268276 8.37802892,89.2276552 8.37678754,89.228069 C8.38961513,89.6248966 8.38464961,90.0763448 8.35858065,90.5968966 C8.42023582,90.0229655 8.41858065,89.5810345 8.3792703,89.2264138" id="Fill-68" fill="#6EBCBC" mask="url(#mask-4)"></path>
            <path d="M3.91974194,90.7611724 L3.92015573,90.7603448 C3.92015573,90.7562069 3.92015573,90.752069 3.92056952,90.7475172 C3.92015573,90.7524828 3.92015573,90.7562069 3.91974194,90.7611724" id="Fill-69" fill="#004348" mask="url(#mask-4)"></path>
        </g>
    </g>
</svg>