<?xml version="1.0" encoding="UTF-8"?>
<svg width="120px" height="120px" viewBox="0 0 120 120" version="1.1" xmlns="http://www.w3.org/2000/svg" xmlns:xlink="http://www.w3.org/1999/xlink">
    <!-- Generator: Sketch 51.1 (57501) - http://www.bohemiancoding.com/sketch -->
    <title>Toaster1</title>
    <desc>Created with Sketch.</desc>
    <defs>
        <polygon id="path-1" points="0.717534247 0.202191781 69.9622835 0.202191781 69.9622835 60.0616438 0.717534247 60.0616438"></polygon>
    </defs>
    <g id="Toaster1" stroke="none" stroke-width="1" fill="none" fill-rule="evenodd">
        <g id="Group-12" transform="translate(8.000000, 0.000000)">
            <path d="M88.8394521,110.911233 C88.8394521,112.292877 87.7191781,113.412329 86.3375342,113.412329 C84.9558904,113.412329 83.8356164,112.292877 83.8356164,110.911233 L83.8356164,108.528493 C83.8356164,107.147671 84.9558904,106.027397 86.3375342,106.027397 C87.7191781,106.027397 88.8394521,107.147671 88.8394521,108.528493 L88.8394521,110.911233" id="Fill-254" fill="#18636F"></path>
            <path d="M35.4139726,117.485753 C35.4139726,118.868219 34.2936986,119.986849 32.9128767,119.986849 C31.5320548,119.986849 30.4109589,118.868219 30.4109589,117.485753 L30.4109589,115.103836 C30.4109589,113.722192 31.5320548,112.60274 32.9128767,112.60274 C34.2936986,112.60274 35.4139726,113.722192 35.4139726,115.103836 L35.4139726,117.485753" id="Fill-255" fill="#18636F"></path>
            <path d="M9.11260274,103.513973 C9.11260274,104.895616 7.99315068,106.01589 6.61232877,106.01589 C5.22986301,106.01589 4.10958904,104.895616 4.10958904,103.513973 L4.10958904,101.131233 C4.10958904,99.750411 5.22986301,98.630137 6.61232877,98.630137 C7.99315068,98.630137 9.11260274,99.750411 9.11260274,101.131233 L9.11260274,103.513973" id="Fill-256" fill="#103B44"></path>
            <path d="M5.02943156,56.6063191 C11.1042261,61.4301547 30.2212124,71.077826 40.2272398,70.1852232 C48.7127192,69.427415 90.9962809,65.0687849 101.133815,55.6964561 C100.925048,55.3068671 100.695733,54.9468671 100.436007,54.6411136 C95.4338151,48.7454972 79.174637,39.2761821 57.5573768,39.4545383 C35.2842261,41.9293328 7.25682882,47.5512506 2.51025348,51.4767301 C2.2940891,53.057278 2.82340416,54.8548123 5.02943156,56.6063191" id="Fill-257" fill="#92CEBF"></path>
            <path d="M101.396712,55.890411 C91.2591781,65.2627397 48.9756164,69.6213699 40.490137,70.3791781 C39.8761644,70.4334247 39.2293151,70.4473973 38.5520548,70.4268493 C37.9947945,79.0273973 35.9531507,108.507945 33.6986301,116.307945 C33.9961644,116.364658 34.2928767,116.423836 34.5936986,116.473973 C49.4219178,118.44 75.3287671,113.257808 85.1556164,110.399178 C92.8380822,108.255616 96.0542466,100.573151 98.5553425,91.639726 C100.926575,83.1715068 105.21863,62.9909589 101.396712,55.890411" id="Fill-258" fill="#6BC2BD"></path>
            <path d="M4.70537509,56.910411 C2.4993477,55.1589041 1.97003263,53.3613699 2.18619701,51.7808219 C2.13441619,51.8227397 2.07112852,51.8663014 2.02592304,51.9082192 C2.02592304,51.9082192 -2.97709066,79.600274 2.74099153,99.4331507 C5.896334,103.289589 17.6514025,113.503562 33.1116765,116.418082 C35.366197,108.618082 37.4078408,79.1375342 37.9651011,70.5369863 C27.6048271,70.2172603 10.4086628,61.4391781 4.70537509,56.910411" id="Fill-259" fill="#53BBBB"></path>
            <path d="M26.648313,45.1755766 C26.648313,45.1755766 11.0450253,47.7966725 7.11379242,51.9646177 C3.18420338,56.1333848 21.2885869,68.1637958 44.2768061,68.0446177 C67.2642034,67.9246177 97.6365321,59.2303711 97.9948883,55.8950286 C98.3507787,52.5605081 86.7987239,44.5805081 76.7935184,43.7462615 C66.788313,42.9120149 29.387765,45.1755766 26.648313,45.1755766" id="Fill-260" fill="#A2D4C2"></path>
            <path d="M24.0195462,46.9919983 C17.5633819,48.2914503 8.71214898,51.2536421 13.8836558,57.4517243 C15.3926969,59.2615873 17.7984504,60.7862448 19.9181764,61.775012 C23.3513271,63.3752859 27.0055736,64.5818613 30.7255736,65.2928202 C36.0277654,66.3070668 41.9611901,66.6489846 47.3398202,66.1624092 C69.7329709,64.1372037 91.5294093,59.3725462 93.912149,54.4895325 C96.2940668,49.6065188 82.0000942,45.3177517 75.211875,44.1267928 C68.5091353,42.9514503 60.9746147,43.914738 54.2414641,44.2903544 C45.7510531,44.7629572 37.2154367,45.1739161 28.7735188,46.224327 C27.7132449,46.3566558 25.9765325,46.5966558 24.0195462,46.9919983" id="Fill-261" fill="#B1D9C3"></path>
            <path d="M79.2936986,47.5783294 C81.7438356,47.8668225 88.3758904,50.9432609 90.8506849,52.1235349 C91.0890411,52.0339458 91.2912329,51.9476444 91.4432877,51.8670965 C91.4432877,51.8670965 81.9739726,47.2207951 78.9369863,46.8640828 C75.8991781,46.5065486 26.4082192,52.7596992 26.4082192,52.7596992 L18.9041096,54.7249047 C18.9041096,54.7249047 19.2526027,54.9369595 19.8369863,55.2903842 L26.7673973,53.4747677 C26.7673973,53.4747677 76.2567123,47.2207951 79.2936986,47.5783294" id="Fill-262" fill="#2B3F3B"></path>
            <path d="M60.9583562,57.5128481 C71.4073973,56.333396 86.7789041,53.722985 90.739726,52.2312042 C88.2649315,51.0509302 81.6328767,47.9744919 79.1827397,47.6859987 C76.1457534,47.3284645 26.6564384,53.5824371 26.6564384,53.5824371 L19.7260274,55.3980535 C22.7589041,57.2309302 32.2463014,62.9309302 33.4454795,63.2301083 C34.8739726,63.5876426 49.8821918,58.763807 60.9583562,57.5128481" id="Fill-263" fill="#415751"></path>
            <path d="M30.3863014,53.4457567 L23.8356164,54.7558937 C23.8356164,54.7558937 28.600274,59.8780855 34.3167123,60.7115101 C35.610411,60.9005512 40.1613699,58.3986334 59.3293151,55.232606 C73.0273973,52.9698663 81.3649315,52.7315101 84.8186301,51.7789074 C84.8186301,51.7789074 78.9682192,48.0005512 76.269863,47.683291 C73.5723288,47.3652088 30.3863014,53.4457567 30.3863014,53.4457567" id="Fill-264" fill="#304541"></path>
            <polyline id="Fill-265" fill="#D3DF6D" points="13.1506849 88.2287671 13.3882192 68.2191781 20.7731507 72.2687671 20.0580822 92.04 13.1506849 88.2287671"></polyline>
            <g id="Group-269" transform="translate(15.616438, 0.000000)">
                <mask id="mask-2" fill="white">
                    <use xlink:href="#path-1"></use>
                </mask>
                <g id="Clip-267"></g>
                <path d="M65.5717808,2.35315068 C27.3369863,2.8890411 15.1882192,12.0008219 10.0076712,14.3235616 C13.7030137,23.2561644 15.4076712,51.3024658 15.8079452,58.8739726 C16.6084932,59.2191781 17.5684932,59.6054795 18.7619178,60.0616438 C28.0520548,56.4887671 58.4260274,52.3791781 67.5369863,51.6641096 C73.9693151,36.1208219 65.5717808,2.35315068 65.5717808,2.35315068" id="Fill-266" fill="#F4B66E" mask="url(#mask-2)"></path>
                <path d="M10.0076712,14.3235616 C15.1882192,12.0008219 27.3369863,2.8890411 65.5717808,2.35315068 C65.5717808,2.35315068 60.0328767,0.56630137 57.8893151,0.208767123 C20.5479452,-0.147945205 1.61013699,13.7876712 0.717534247,14.6810959 C0.717534247,14.6810959 6.61315068,13.0726027 10.0076712,14.3235616" id="Fill-268" fill="#EFA544" mask="url(#mask-2)"></path>
            </g>
            <path d="M15.6164384,14.8064797 C19.3668493,23.3815482 24.9065753,55.0056578 24.9065753,55.0056578 C26.9161644,56.8714112 27.4323288,57.5864797 30.7068493,58.9993564 C30.3065753,51.4278495 28.6019178,23.3815482 24.9065753,14.4489454 C21.5120548,13.1979865 15.6164384,14.8064797 15.6164384,14.8064797" id="Fill-270" fill="#EB8E3F"></path>
            <path d="M72.4472422,4.93150685 C69.3609408,4.93150685 65.9228586,5.32356164 64.4039545,5.87589041 C61.7828586,6.82931507 58.2108038,6.82931507 55.828886,6.82931507 C54.8064203,6.82931507 53.3918997,6.69780822 51.8623107,6.69780822 C49.8272422,6.69780822 47.5924477,6.93123288 45.8236805,8.02027397 C42.7266942,9.92547945 36.5335435,11.3556164 33.4365572,11.8315068 C30.3395709,12.3073973 29.3861463,15.4043836 29.6236805,16.3569863 C29.6236805,16.3569863 31.0538175,20.6449315 30.5779271,22.790137 C30.1012148,24.9336986 30.5779271,29.46 31.768886,31.1276712 C32.959023,32.7953425 32.4823107,35.4156164 32.4823107,38.9893151 C32.4823107,42.5621918 34.6266942,49.7087671 33.6740915,54.2342466 C33.2951874,56.0391781 34.6949134,56.6317808 36.6675161,56.6317808 C39.6403929,56.6317808 43.9143655,55.2846575 45.3469682,54.7109589 C47.7297079,53.7575342 56.7823107,51.8523288 59.6401189,51.8523288 C60.5943655,51.8523288 61.5740915,51.8794521 62.5801189,51.8794521 C64.5929956,51.8794521 66.708612,51.7734247 68.9310778,51.1380822 C72.2655983,50.1846575 80.3655983,49.7079452 80.8414887,48.7545205 C81.3182011,47.8027397 83.9384751,36.3682192 80.8414887,32.3186301 C77.7445024,28.2690411 83.4617627,25.8871233 79.1738175,19.4547945 C75.6962833,14.2413699 80.1264203,6.82931507 77.7445024,5.63835616 C76.7425846,5.13780822 74.688612,4.93150685 72.4472422,4.93150685" id="Fill-271" fill="#F1A967"></path>
            <path d="M35.6758054,67.3972603 C33.3662164,67.3972603 32.0264903,67.5090411 33.4829287,68.3967123 C33.4829287,68.3967123 34.419915,69.3328767 38.8015588,69.3328767 C40.8637506,69.3328767 43.689504,69.1249315 47.5385451,68.5158904 C48.210052,68.1953425 48.4410109,67.9208219 48.3505999,67.6989041 C46.9878602,67.759726 45.6423808,67.7942466 44.3223808,67.8016438 C44.209778,67.8016438 44.0955314,67.8024658 43.9821068,67.8024658 C41.4933397,67.8024658 39.0629287,67.660274 36.7130657,67.4021918 C36.3514219,67.399726 36.0037506,67.3972603 35.6758054,67.3972603" id="Fill-272" fill="#E5F3EC"></path>
            <path d="M45.5005479,67.3972603 C44.7345205,67.3972603 43.8936986,67.4465753 43.0463014,67.550137 C41.6350685,67.7219178 40.0347945,67.7547945 38.5380822,67.7547945 C38.0761644,67.7547945 37.6232877,67.7523288 37.1884932,67.7490411 C37.1210959,67.7490411 37.0528767,67.7482192 36.9863014,67.7473973 C39.3361644,68.0054795 41.7665753,68.1476712 44.2553425,68.1476712 C44.3687671,68.1476712 44.4830137,68.1468493 44.5956164,68.1468493 C45.9156164,68.1394521 47.2610959,68.1049315 48.6238356,68.0441096 C48.4545205,67.6290411 47.16,67.3972603 45.5005479,67.3972603" id="Fill-273" fill="#EAF5EE"></path>
            <path d="M55.5230137,67.3972603 C53.7139726,67.5813699 51.9139726,67.7309589 50.1369863,67.8386301 C50.3227397,68.0309589 50.9005479,68.1378082 51.6747945,68.1378082 C52.1071233,68.1378082 52.600274,68.1041096 53.1205479,68.0350685 C54.1380822,67.8994521 55.0175342,67.6569863 55.5230137,67.3972603" id="Fill-274" fill="#E5F3EC"></path>
            <path d="M54.4411993,66.5753425 C54.0096925,66.5753425 53.5165418,66.6082192 52.9962678,66.6780822 C51.364761,66.8958904 50.0875007,67.3890411 50.1384596,67.7810959 C50.1450349,67.8230137 50.164761,67.8624658 50.2009253,67.8986301 C51.9779116,67.7909589 53.7779116,67.6413699 55.5869527,67.4572603 C55.8927062,67.3010959 56.0620212,67.14 56.0414733,66.9920548 C56.0061308,66.7257534 55.364213,66.5753425 54.4411993,66.5753425" id="Fill-275" fill="#EAF5EE"></path>
            <path d="M1.92739726,52.6027397 C1.74986301,53.1336986 1.24273973,56.6613699 0.821917808,61.7276712 C1.23534247,57.4824658 1.71452055,54.2736986 1.95369863,52.7917808 C1.94383562,52.7293151 1.93561644,52.6668493 1.92739726,52.6027397 Z M1.08246575,91.2435616 C1.48849315,94.1753425 2.0539726,96.9460274 2.82164384,99.4126027 C2.06712329,96.7989041 1.50082192,94.0479452 1.08246575,91.2435616 Z M14.7657534,109.120274 C17.1443836,110.610411 19.7827397,112.022466 22.6043836,113.157534 C19.7515068,111.947671 17.1238356,110.55863 14.7657534,109.120274 Z" id="Fill-276" fill="#C3E4E1"></path>
            <path d="M2.58474896,52.6027397 C2.34557088,54.0846575 1.8663928,57.2934247 1.45296814,61.5386301 C0.792968142,69.4693151 0.34748869,81.1726027 1.71351609,91.0545205 C2.13187225,93.8589041 2.69817362,96.609863 3.45269417,99.2235616 C4.72584485,100.595342 9.16748869,105.029589 15.3968038,108.931233 C17.754886,110.369589 20.3825572,111.75863 23.2354339,112.968493 C24.854612,113.619452 26.534612,114.179178 28.2589955,114.609863 C25.1505024,113.536438 21.843927,112.232055 21.1395435,111.729863 C22.0674887,111.922192 22.9305024,112.012603 23.7351599,112.012603 C36.404201,112.012603 34.254064,89.4986301 32.5732421,85.4671233 C39.7206394,81.3575342 34.004201,70.6372603 34.004201,70.6372603 C33.7280366,70.430137 33.3228312,70.2090411 32.874886,69.9945205 C30.4658449,69.3731507 27.7691325,68.4049315 25.6050229,67.4210959 C24.9557079,67.1375342 24.6565298,67.0183562 24.5998175,67.0183562 C24.4058449,67.0183562 27.0031051,68.3794521 28.1077627,69.2079452 C28.1077627,69.2079452 39.8989955,81.3575342 28.4652969,86.0030137 C30.4206394,88.8476712 36.6236531,107.62274 18.5381736,107.62274 C18.4535161,107.62274 18.3672147,107.621096 18.2809133,107.621096 C13.8137901,106.548493 -1.90867569,91.3619178 2.91515992,83.3227397 C1.48584485,76.1761644 0.593242115,57.9517808 6.66721472,57.9517808 C5.44502294,57.2531507 3.02611883,55.3586301 2.58474896,52.6027397" id="Fill-277" fill="#44B2B3"></path>
            <path d="M32.0547945,115.890411 C32.6054795,116.033425 33.0468493,116.125479 33.3320548,116.148493 C32.9030137,116.068767 32.4780822,115.981644 32.0547945,115.890411" id="Fill-278" fill="#175B68"></path>
            <path d="M38.249589,70.6849315 C38.0317808,74.0580822 37.5854795,80.6408219 36.9863014,87.8687671 C37.6347945,81.3632877 38.1394521,75.090411 38.249589,70.6849315" id="Fill-279" fill="#5AB8B5"></path>
            <path d="M29.490411,69.0410959 C29.419726,69.0410959 31.2,69.6369863 32.5610959,70.2871233 C34.1843836,70.7054795 35.6761644,70.9652055 36.7873973,70.9652055 C37.0232877,70.9652055 37.2419178,70.9536986 37.4416438,70.929863 C38.1846575,83.8413699 34.0471233,112.559178 33.3320548,115.774521 C31.5,115.643836 29.6983562,115.339726 27.9452055,114.902466 C29.5586301,115.458904 31.1186301,115.954521 32.2323288,116.243014 C32.6556164,116.334247 33.0805479,116.42137 33.509589,116.501096 C33.9838356,114.360822 35.8208219,100.628219 37.099726,87.8038356 C37.6989041,80.5758904 38.1452055,73.9931507 38.3630137,70.62 C38.1271233,70.6331507 37.889589,70.639726 37.649589,70.639726 C35.5043836,70.639726 33.2054795,70.1260274 30.4734247,69.3221918 C29.8052055,69.1257534 29.5158904,69.0410959 29.490411,69.0410959" id="Fill-280" fill="#44B2B3"></path>
            <path d="M32.2832877,69.8630137 C32.7312329,70.0775342 33.1364384,70.2986301 33.4126027,70.5057534 C33.4126027,70.5057534 39.1290411,81.2260274 31.9816438,85.3356164 C33.6624658,89.3671233 35.8126027,111.881096 23.1435616,111.881096 C22.3389041,111.881096 21.4758904,111.790685 20.5479452,111.598356 C21.2523288,112.100548 24.5589041,113.404932 27.6673973,114.478356 C29.4205479,114.915616 31.2221918,115.219726 33.0542466,115.350411 C33.7693151,112.135068 37.9068493,83.4172603 37.1638356,70.5057534 C36.9641096,70.529589 36.7454795,70.5410959 36.509589,70.5410959 C35.3983562,70.5410959 33.9065753,70.2813699 32.2832877,69.8630137" id="Fill-281" fill="#3EA3A7"></path>
            <path d="M100.670959,56.7123288 C98.6556164,58.3569863 92.6227397,61.5115068 82.1917808,64.3076712 C93.0994521,61.6331507 98.2553425,58.9035616 100.670959,56.7123288" id="Fill-282" fill="#5CBDBB"></path>
            <path d="M70.8608219,114.246575 C70.0405479,114.352603 69.2983562,114.424932 68.6539726,114.470959 C62.5586301,115.587123 55.759726,116.571781 49.3150685,117.053425 C53.3909589,116.829863 62.1780822,116.031781 70.8608219,114.246575" id="Fill-283" fill="#83CAC8"></path>
            <path d="M82.2575342,64.9315068 C80.8569863,64.9315068 79.6931507,65.0178082 79.0216438,65.0827397 C73.6372603,66.3690411 67.250137,67.530411 59.8191781,68.3671233 C58.0339726,68.3671233 60.8926027,68.5454795 63.2145205,68.5454795 C63.2145205,68.5454795 64.6019178,68.4221918 66.6624658,68.4221918 C72.4347945,68.4221918 83.5068493,69.3920548 84.2967123,76.7638356 C85.3693151,86.7690411 66.6090411,92.129589 66.6090411,92.129589 C66.6090411,92.129589 90.1931507,105.886849 47.6712329,116.784658 C47.7460274,116.790411 47.8569863,116.794521 48.0049315,116.794521 C48.3994521,116.794521 49.0487671,116.772329 49.9068493,116.725479 C56.3515068,116.243836 63.150411,115.259178 69.2457534,114.143014 C68.5816438,114.192329 68.0227397,114.211233 67.5920548,114.211233 C66.9624658,114.211233 66.6090411,114.168493 66.6090411,114.105205 C80.5454795,112.497534 90.1931507,97.1326027 88.5846575,91.7720548 C87.890137,89.4558904 85.4284932,88.8747945 83.1287671,88.8747945 C81.9690411,88.8747945 80.8512329,89.0227397 80.0219178,89.1706849 C79.1917808,89.3178082 78.6534247,89.4665753 78.6509589,89.4665753 C78.6509589,89.4665753 78.8465753,89.4123288 79.2945205,89.2709589 C82.6882192,88.1991781 96.9821918,76.5854795 94.3019178,69.9747945 C92.5627397,65.6843836 86.3810959,64.9315068 82.2575342,64.9315068 Z M102.618082,67.3249315 C102.048493,74.8208219 99.9073973,84.5153425 97.2443836,94.3980822 C100.018356,86.3210959 102.369863,76.219726 102.618082,67.3249315 Z M93.9945205,102.538356 C91.7605479,105.791507 88.5723288,108.167671 85.1556164,109.892877 C89.2010959,108.152877 92.3178082,106.010137 93.5868493,103.385753 C93.7232877,103.111233 93.8580822,102.829315 93.9945205,102.538356 Z" id="Fill-284" fill="#5CBDBB"></path>
            <path d="M101.113151,55.890411 C100.927397,56.0958904 100.715342,56.3063014 100.476986,56.5216438 C100.779452,56.2750685 100.991507,56.0630137 101.113151,55.890411 Z M101.113151,55.890411 C102.076438,59.1813699 102.415068,63.0558904 102.299178,67.1934247 C102.670685,62.3030137 102.373151,58.3487671 101.113151,55.890411 Z M81.9978082,64.1169863 C80.7673973,64.4194521 79.4621918,64.720274 78.0821918,65.0194521 C78.0821918,65.0194521 78.3065753,64.9890411 78.7027397,64.9512329 C79.8460274,64.6775342 80.9441096,64.399726 81.9978082,64.1169863 Z M96.9254795,94.2665753 C95.8726027,97.3306849 94.759726,100.102192 93.6756164,102.406849 C94.7309589,100.868219 95.5750685,99.1331507 96.1273973,97.1786301 C96.3969863,96.2087671 96.6641096,95.2347945 96.9254795,94.2665753 Z" id="Fill-285" fill="#5AB8B5"></path>
            <path d="M81.199726,111.780822 C80.2060274,112.026575 79.14,112.279726 78.0123288,112.535342 C75.9024658,113.12137 73.7079452,113.637534 71.5068493,114.089589 C74.1772603,113.746849 77.6613699,113.054795 81.199726,111.780822" id="Fill-286" fill="#C3E4E1"></path>
            <path d="M85.279726,110.136986 C83.1024658,111.073973 80.6556164,111.893425 78.0821918,112.608493 C79.209863,112.352877 80.2758904,112.099726 81.269589,111.853973 C82.6117808,111.370685 83.9630137,110.801918 85.279726,110.136986" id="Fill-287" fill="#5AB8B5"></path>
            <path d="M77.7534247,112.60274 C75.1331507,113.196986 72.1808219,113.806849 69.0410959,114.38137 C69.6854795,114.335342 70.4276712,114.263014 71.2479452,114.156986 C73.4490411,113.704932 75.6435616,113.188767 77.7534247,112.60274" id="Fill-288" fill="#6BC2C0"></path>
            <path d="M101.398356,55.890411 C101.276712,56.0630137 101.064658,56.2750685 100.762192,56.5216438 C98.3465753,58.7128767 93.1906849,61.4424658 82.2830137,64.1169863 C81.2293151,64.399726 80.1312329,64.6775342 78.9879452,64.9512329 C79.6594521,64.8863014 80.8232877,64.8 82.2238356,64.8 C86.3473973,64.8 92.5290411,65.5528767 94.2682192,69.8432877 C96.9484932,76.4539726 82.6545205,88.0676712 79.2608219,89.1394521 C78.8128767,89.2808219 78.6172603,89.3350685 78.6172603,89.3350685 C78.619726,89.3350685 79.1580822,89.1863014 79.9882192,89.0391781 C80.8175342,88.8912329 81.9353425,88.7432877 83.0950685,88.7432877 C85.3947945,88.7432877 87.8564384,89.3243836 88.5509589,91.6405479 C90.1594521,97.0010959 80.5117808,112.366027 66.5753425,113.973699 C66.5753425,114.036986 66.9287671,114.079726 67.5583562,114.079726 C67.9890411,114.079726 68.5479452,114.060822 69.2120548,114.011507 C72.3517808,113.436986 75.3041096,112.827123 77.9243836,112.232877 C80.4978082,111.517808 82.9446575,110.698356 85.1219178,109.76137 C88.5386301,108.036164 91.7268493,105.66 93.9608219,102.406849 C95.0449315,100.102192 96.1578082,97.3306849 97.2106849,94.2665753 C99.8736986,84.3838356 102.014795,74.6893151 102.584384,67.1934247 C102.700274,63.0558904 102.361644,59.1813699 101.398356,55.890411" id="Fill-289" fill="#4BB3B3"></path>
            <polyline id="Fill-290" fill="#D1E3AA" points="13.1506849 77.9457534 20.5947945 73.1506849 20.5347945 75.5038356 13.1506849 80.2676712 13.1506849 77.9457534"></polyline>
            <polyline id="Fill-291" fill="#D1E3AA" points="13.1506849 81.2630137 20.5356164 76.4383562 20.4756164 78.820274 13.1506849 83.5857534 13.1506849 81.2630137"></polyline>
            <polyline id="Fill-292" fill="#17AA74" points="15.7356164 86.7780822 15.7471233 86.4542466 15.6164384 86.3013699 15.7356164 86.7780822"></polyline>
            <polyline id="Fill-293" fill="#17AA74" points="17.3021918 86.4016438 17.1830137 85.9249315 17.3136986 86.0778082 17.7419178 74.0852055 16.0808219 73.1506849 15.6164384 86.1673973 17.6293151 88.5156164 17.680274 86.5052055 17.3136986 86.0778082 17.3021918 86.4016438"></polyline>
            <polyline id="Fill-294" fill="#17AA74" points="17.3794521 86.7780822 17.3909589 86.4542466 17.260274 86.3013699 17.3794521 86.7780822"></polyline>
            <polyline id="Fill-295" fill="#158B64" points="17.6884932 73.9726027 17.260274 85.9652055 17.6268493 86.3926027 17.9334247 74.109863 17.6884932 73.9726027"></polyline>
            <path d="M5.44617865,83.8356164 C5.44617865,83.8356164 4.01686358,90.1487671 5.92206906,93.2457534 C7.82891838,95.1509589 14.3804252,98.6063014 21.6461787,100.511507 C22.0037129,99.7972603 22.3604252,92.0539726 22.3604252,92.0539726 L5.44617865,83.8356164" id="Fill-296" fill="#DC3E4B"></path>
            <path d="M21.369863,100.085753 C23.3934247,99.6090411 24.7035616,98.0605479 24.7035616,98.0605479 L25.530411,89.5890411 L22.0841096,91.6282192 C22.0841096,91.6282192 21.7273973,99.3715068 21.369863,100.085753" id="Fill-297" fill="#C32C47"></path>
            <polyline id="Fill-298" fill="#DE494D" points="8.96958904 82.1917808 5.75342466 83.7394521 22.6676712 91.9578082 26.0687671 89.9860274 26.1213699 89.9334247 8.96958904 82.1917808"></polyline>
            <polyline id="Fill-299" fill="#6ABDBB" points="11.5282192 83.0136986 11.5068493 83.0210959 11.7649315 83.1386301 11.5282192 83.0136986"></polyline>
            <polyline id="Fill-300" fill="#DF535D" points="8.21917808 84.6575342 9.64191781 85.4112329 9.72 85.3865753 8.21917808 84.6575342"></polyline>
            <polyline id="Fill-301" fill="#E15C5F" points="11.3358904 83.0136986 7.39726027 84.2876712 7.99808219 84.6057534 9.49890411 85.3347945 13.4120548 84.0789041 11.5939726 83.1312329 11.3358904 83.0136986"></polyline>
            <polyline id="Fill-302" fill="#D9D677" points="14.8043836 84.6575342 14.7945205 84.6608219 15.0838356 84.7906849 14.8043836 84.6575342"></polyline>
            <polyline id="Fill-303" fill="#DF535D" points="10.7013699 86.3013699 10.6849315 86.3071233 12.5893151 87.2605479 12.6320548 87.2391781 10.7013699 86.3013699"></polyline>
            <polyline id="Fill-304" fill="#E15C5F" points="14.7082192 84.6575342 10.6849315 86.0186301 12.6156164 86.9564384 15.9682192 85.2493151 14.9975342 84.7873973 14.7082192 84.6575342"></polyline>
            <path d="M21.369863,100.273973 C21.5934247,100.338082 21.7841096,100.387397 21.9369863,100.421096 C21.7890411,100.386575 21.5975342,100.336438 21.369863,100.273973" id="Fill-305" fill="#4C6274"></path>
            <path d="M19.1531507,90.4109589 C19.1531507,90.4109589 20.0227397,92.7024658 17.2643836,92.7024658 C16.8772603,92.7024658 16.4186301,92.6572603 15.8778082,92.5545205 C17.22,93.6575342 16.6323288,96.0715068 13.0306849,96.0715068 C12.1569863,96.0715068 11.1065753,95.9293151 9.8630137,95.5923288 C10.5986301,96.1249315 12.48,96.9715068 14.5446575,97.7991781 C14.5084932,97.7769863 14.4764384,97.7556164 14.4493151,97.7358904 C14.8323288,97.7893151 15.1873973,97.8147945 15.5161644,97.8147945 C19.26,97.8147945 19.470411,94.6167123 18.319726,93.6863014 C18.3854795,93.6887671 18.4479452,93.689589 18.509589,93.689589 C21.5317808,93.689589 19.9873973,90.8876712 19.9873973,90.8876712 L20.3005479,91.0109589 C19.7243836,90.7257534 19.2279452,90.460274 19.1531507,90.4109589 Z M22.2509589,91.7794521 C22.2509589,91.7794521 21.7142466,99.5227397 21.5367123,100.236986 C21.6986301,99.870411 21.9723288,96.4717808 22.1293151,94.0717808 C22.2049315,92.7682192 22.2509589,91.7794521 22.2509589,91.7794521 Z" id="Fill-306" fill="#D62D3A"></path>
            <path d="M22.3134247,92.0547945 C22.3134247,92.0547945 22.2673973,93.0435616 22.1917808,94.3471233 C22.2649315,93.2350685 22.3134247,92.3375342 22.3134247,92.0547945" id="Fill-307" fill="#B82537"></path>
            <path d="M20.5479452,99.4520548 C20.8126027,99.5326027 21.0542466,99.6024658 21.2679452,99.6608219 C21.1569863,99.6287671 21.040274,99.5950685 20.9136986,99.5564384 C20.7920548,99.5219178 20.669589,99.4865753 20.5479452,99.4520548" id="Fill-308" fill="#4A6072"></path>
            <path d="M20.550411,91.2328767 C21.3016438,91.6043836 22.1893151,92.0087671 22.4515068,92.0087671 C22.4720548,92.0087671 22.4876712,92.0063014 22.5008219,92.0013699 L20.550411,91.2328767 Z M14.7945205,98.0210959 C15.6189041,98.5150685 18.6090411,99.5358904 20.4994521,100.103014 C20.6210959,100.137534 20.7435616,100.172877 20.8652055,100.207397 C19.4153425,99.7693151 16.999726,98.9054795 14.7945205,98.0210959 Z" id="Fill-309" fill="#CC2A39"></path>
            <path d="M20.5479452,100.273973 C20.6745205,100.312603 20.7912329,100.346301 20.9021918,100.378356 C21.129863,100.440822 21.3213699,100.490959 21.4693151,100.525479 C21.1610959,100.44411 20.8528767,100.361096 20.5479452,100.273973" id="Fill-310" fill="#3A3143"></path>
            <path d="M20.3326027,90.4109589 C20.3326027,90.4109589 21.8769863,93.2128767 18.8547945,93.2128767 C18.7931507,93.2128767 18.7306849,93.2120548 18.6649315,93.209589 C19.8156164,94.14 19.6052055,97.3380822 15.8613699,97.3380822 C15.5326027,97.3380822 15.1775342,97.3126027 14.7945205,97.2591781 C14.8216438,97.2789041 14.8536986,97.300274 14.889863,97.3224658 C17.0950685,98.2068493 19.5106849,99.0706849 20.9605479,99.5087671 C21.2654795,99.5958904 21.5736986,99.6789041 21.8819178,99.760274 C22.0594521,99.0460274 22.5961644,91.3027397 22.5961644,91.3027397 C22.5830137,91.3076712 22.5673973,91.310137 22.5468493,91.310137 C22.2846575,91.310137 21.3969863,90.9057534 20.6457534,90.5342466 L20.3326027,90.4109589" id="Fill-311" fill="#C0252F"></path>
            <path d="M16.4383562,88.7671233 L22.4547945,91.6241096 L16.7786301,88.8657534 C16.5682192,88.8082192 16.4383562,88.7671233 16.4383562,88.7671233" id="Fill-312" fill="#DA313B"></path>
            <path d="M25.5813699,89.5890411 L22.1917808,91.5542466 L25.6158904,89.6046575 C25.6158904,89.6046575 25.6027397,89.599726 25.5813699,89.5890411" id="Fill-313" fill="#BB2537"></path>
            <path d="M19.1958904,87.1232877 C20.8331507,89.1484932 20.0589041,89.6539726 18.8745205,89.6539726 C18.0279452,89.6539726 16.970137,89.3950685 16.4383562,89.2471233 L22.1145205,92.0054795 L25.5041096,90.040274 C25.1063014,89.8561644 21.2827397,88.0824658 19.1958904,87.1232877" id="Fill-314" fill="#DB373C"></path>
            <path d="M4.95576141,88.7671233 C4.95576141,88.7671233 4.53904908,92.0416438 7.16014498,93.590137 C8.58946004,94.3643836 7.87521347,92.7567123 6.68425456,91.5657534 C5.49247374,90.3739726 5.25329566,90.2547945 4.95576141,88.7671233" id="Fill-315" fill="#FCF1D5"></path>
        </g>
    </g>
</svg>