<?xml version="1.0" encoding="UTF-8"?>
<svg width="120px" height="120px" viewBox="0 0 120 120" version="1.1" xmlns="http://www.w3.org/2000/svg" xmlns:xlink="http://www.w3.org/1999/xlink">
    <!-- Generator: Sketch 51.1 (57501) - http://www.bohemiancoding.com/sketch -->
    <title>Strawberry</title>
    <desc>Created with Sketch.</desc>
    <defs></defs>
    <g id="Strawberry" stroke="none" stroke-width="1" fill="none" fill-rule="evenodd">
        <g id="Page-1" transform="translate(20.000000, 2.000000)">
            <path d="M80.0396983,49.3546466 C70.4276404,29.9161193 51.6985041,34.4575063 41,34.4671648 C30.3014959,34.4575063 11.5733245,29.9161193 1.96030173,49.3546466 C-7.34975112,68.1817961 18.3660255,112.049354 39.8537317,114.886031 C40.2377509,114.93722 40.6198403,114.975854 41,115 C41.3811246,114.975854 41.763214,114.93722 42.1462683,114.886031 C63.6339745,112.049354 89.3497511,68.1817961 80.0396983,49.3546466" id="Fill-1" fill="#FF6646"></path>
            <path d="M80.0396983,49.3546466 C70.4276404,29.9161193 51.6985041,34.4575063 41,34.4671648 C30.3014959,34.4575063 11.5733245,29.9161193 1.96030173,49.3546466 C-7.34975112,68.1817961 18.3660255,112.049354 39.8537317,114.886031 C40.2377509,114.93722 40.6198403,114.975854 41,115 C41.3811246,114.975854 41.763214,114.93722 42.1462683,114.886031 C63.6339745,112.049354 89.3497511,68.1817961 80.0396983,49.3546466 Z" id="Stroke-3" stroke="#FF4B28" stroke-width="4" stroke-linecap="round" stroke-linejoin="round"></path>
            <path d="M66,20.8790211 C59.5027206,18.8384766 53.4290711,19.1939013 48.7098717,20.5681455 C49.1908278,15.0208088 47.448698,6.98162544 41.1710066,0 C33.8206374,7.05135453 32.7994559,15.2261222 33.4436455,20.6165685 C28.7020987,19.2045544 22.5691799,18.8152336 16,20.8790211 C20.7026817,32.8433713 31.1369996,36.2968983 35.863972,36.6968721 C37.2009328,36.8847533 38.9848426,37 40.9504469,37 C42.8742713,37 44.6222309,36.8895956 45.9494753,36.7094621 C50.5802565,36.3879335 61.2322192,33.0080094 66,20.8790211" id="Fill-5" fill="#00BB46"></path>
            <path d="M66,20.8790211 C59.5027206,18.8384766 53.4290711,19.1939013 48.7098717,20.5681455 C49.1908278,15.0208088 47.448698,6.98162544 41.1710066,0 C33.8206374,7.05135453 32.7994559,15.2261222 33.4436455,20.6165685 C28.7020987,19.2045544 22.5691799,18.8152336 16,20.8790211 C20.7026817,32.8433713 31.1369996,36.2968983 35.863972,36.6968721 C37.2009328,36.8847533 38.9848426,37 40.9504469,37 C42.8742713,37 44.6222309,36.8895956 45.9494753,36.7094621 C50.5802565,36.3879335 61.2322192,33.0080094 66,20.8790211 Z" id="Stroke-7" stroke="#008E0F" stroke-width="4" stroke-linecap="round" stroke-linejoin="round"></path>
            <path d="M40.4157997,59 C40.4157997,59 46.1537093,50.0813663 40.5294753,50.000524 C34.9052412,49.9206442 40.4157997,59 40.4157997,59" id="Fill-9" fill="#FFDAA8"></path>
            <path d="M11.4162605,59 C11.4162605,59 17.1537404,50.0813663 11.5290432,50.000524 C5.9052483,49.9206442 11.4162605,59 11.4162605,59" id="Fill-11" fill="#FFDAA8"></path>
            <path d="M67.4162605,59 C67.4162605,59 73.1537404,50.0813663 67.5290432,50.000524 C61.9052483,49.9206442 67.4162605,59 67.4162605,59" id="Fill-13" fill="#FFD8A9"></path>
            <path d="M54.4159934,79 C54.4159934,79 60.1534609,70.0813788 54.5296781,70.0005366 C48.904993,69.9196945 54.4159934,79 54.4159934,79" id="Fill-15" fill="#FFDAA8"></path>
            <path d="M26.4162605,79 C26.4162605,79 32.1537404,70.0813788 26.5290432,70.0005366 C20.9052483,69.9196945 26.4162605,79 26.4162605,79" id="Fill-17" fill="#FFDAA8"></path>
            <path d="M41.4162605,103 C41.4162605,103 47.1537404,94.0813663 41.5290432,94.000524 C35.9052483,93.9206442 41.4162605,103 41.4162605,103" id="Fill-19" fill="#FFDAA8"></path>
        </g>
    </g>
</svg>