<?xml version="1.0" encoding="UTF-8"?>
<svg width="120px" height="120px" viewBox="0 0 120 120" version="1.1" xmlns="http://www.w3.org/2000/svg" xmlns:xlink="http://www.w3.org/1999/xlink">
    <!-- Generator: Sketch 51.1 (57501) - http://www.bohemiancoding.com/sketch -->
    <title>Cyclist</title>
    <desc>Created with Sketch.</desc>
    <defs>
        <polygon id="path-1" points="0.199373684 0.299053333 13.3734789 0.299053333 13.3734789 5.86666667 0.199373684 5.86666667"></polygon>
    </defs>
    <g id="Cyclist" stroke="none" stroke-width="1" fill="none" fill-rule="evenodd">
        <g id="Group-62" transform="translate(24.000000, 1.000000)">
            <path d="M46.55376,110.433509 L46.4632457,98.9419649 L36.5272457,99.0206316 L37.0703314,110.508035 L37.0826743,110.508035 C35.30736,111.63214 34.0319314,113.894842 35.5727314,115.722807 C36.7350171,117.006316 38.41776,115.969158 39.6952457,115.414351 C41.11056,114.720842 42.7357029,114.230211 44.0152457,113.335895 C44.8360457,112.745895 45.8131886,112.10414 46.36656,111.222246 C46.5352457,110.953123 46.6154743,110.68193 46.55376,110.433509" id="Fill-789" fill="#FDDFBB"></path>
            <path d="M57.3196114,110.346561 L57.3257829,110.346561 L57.6857829,98.8508772 L47.7538971,98.931614 L47.8444114,110.421088 C47.7868114,110.68193 47.8690971,110.940702 48.0439543,111.207754 C48.61584,112.081368 49.5929829,112.708632 50.43024,113.286211 C51.7200686,114.159825 53.3472686,114.623544 54.7769829,115.296351 C56.0688686,115.826316 57.7701257,116.838632 58.9056686,115.536491 C60.4114971,113.683684 59.1052114,111.431333 57.3196114,110.346561" id="Fill-791" fill="#FDDFBB"></path>
            <path d="M50.1517029,84.3399825 L46.9898743,84.3668947 L44.0831314,84.3875965 L34.7354743,84.4662632 C34.7354743,84.4662632 36.25776,93.9373158 36.5272457,99.0547895 L46.4632457,98.978193 C46.4118171,97.6594912 46.9034743,91.5172807 46.9034743,91.5172807 L47.1894171,91.5152105 C47.1894171,91.5152105 47.8003886,97.2578772 47.7530743,98.9678421 L57.6870171,98.8871053 C57.9174171,94.5231754 59.2463314,84.2675263 59.2463314,84.2675263 L50.1517029,84.3399825 Z" id="Fill-793" fill="#333433"></path>
            <path d="M46.4994514,106.54986 L36.8843657,106.626456 L37.0695086,110.489404 L37.0818514,110.489404 C36.7691657,110.684 36.4770514,110.928281 36.2178514,111.182912 L36.2384229,113.662982 L43.6029943,113.600877 C43.74288,113.52014 43.8807086,113.433193 44.0144229,113.335895 C44.8352229,112.745895 45.8123657,112.091719 46.3677943,111.213965 C46.53648,110.944842 46.6146514,110.665368 46.5529371,110.414877 L46.5303086,110.414877 L46.4994514,106.54986 Z" id="Fill-795" fill="#EEEEED"></path>
            <polygon id="Fill-797" fill="#61C6F1" points="36.9067886 107.069474 36.91296 107.262 46.50336 107.187474 46.5013029 106.994947"></polygon>
            <polygon id="Fill-799" fill="#61C6F1" points="36.9269486 107.453491 36.9372343 107.643947 46.5050057 107.569421 46.5050057 107.376895"></polygon>
            <path d="M58.8764571,111.789888 C58.4814857,111.22266 57.9219429,110.707186 57.3192,110.328344 L57.3253714,110.328344 L57.4488,106.461256 L47.8254857,106.539923 L47.8563429,110.40287 L47.844,110.40287 C47.7843429,110.657502 47.8686857,110.932835 48.0435429,111.199888 C48.6154286,112.069361 49.5925714,112.700765 50.4318857,113.286625 C50.5635429,113.369432 50.7034286,113.46466 50.8474286,113.545396 L58.8908571,113.479151 L58.8764571,111.789888 Z" id="Fill-801" fill="#EEEEED"></path>
            <polygon id="Fill-803" fill="#61C6F1" points="47.8293943 107.174432 57.4259657 107.097835 57.4321371 106.905309 47.8273371 106.983975"></polygon>
            <polygon id="Fill-805" fill="#61C6F1" points="47.8314514 107.556586 57.41568 107.479989 57.4197943 107.287463 47.8314514 107.36613"></polygon>
            <path d="M37.0917257,110.490025 L37.0690971,110.481744 L37.0690971,110.490025 L37.08144,110.490025 C35.3081829,111.643112 34.0327543,113.885112 35.5714971,115.708937 C36.7337829,116.998656 38.4185829,115.967709 39.6960686,115.408761 C41.1113829,114.717323 42.7344686,114.230832 44.0140114,113.336516 C44.8368686,112.744446 45.8119543,112.09027 46.3673829,111.214586 C46.5360686,110.945463 46.61424,110.665989 46.5545829,110.415498 L46.5401829,108.703463 C46.5401829,108.703463 46.4229257,108.531639 46.0320686,108.707604 C45.2482971,109.059533 44.74224,110.618375 43.07184,110.442411 C38.92464,109.316235 37.0917257,110.490025 37.0917257,110.490025" id="Fill-807" fill="#E63744"></path>
            <path d="M46.2404571,111.399867 L46.0306286,111.20734 C46.0306286,111.20734 43.9261714,113.397586 42.0891429,113.950323 L42.2578286,114.289832 C42.8811429,114.016568 43.4756571,113.712253 44.0146286,113.337551 C44.7819429,112.782744 45.6768,112.184463 46.2404571,111.399867" id="Fill-809" fill="#333433"></path>
            <path d="M37.0314514,111.672716 C36.5706514,111.674786 36.1139657,111.714119 35.6757943,111.786575 C35.6737371,111.796926 35.6696229,111.796926 35.6655086,111.803137 C34.7953371,112.970716 34.5032229,114.44054 35.57088,115.709558 C36.7331657,116.997207 38.4179657,115.96833 39.6954514,115.409382 C40.6767086,114.931172 41.7567086,114.55233 42.75648,114.061698 C41.6003657,112.614646 39.4671086,111.652014 37.0314514,111.672716" id="Fill-811" fill="#9B1D2B"></path>
            <path d="M46.48752,108.894954 C46.0904914,108.897025 45.7695771,109.640218 45.7757486,110.559375 C45.78192,111.010674 45.8621486,111.410218 45.9917486,111.712463 C46.12752,111.55513 46.25712,111.389516 46.3661486,111.213551 C46.5348343,110.944428 46.6150629,110.664954 46.5533486,110.414463 L46.5410057,108.894954 L46.48752,108.894954 Z" id="Fill-813" fill="#E63744"></path>
            <path d="M57.3074743,110.328344 L57.3259886,110.320063 L57.3259886,110.328344 L57.3198171,110.328344 C59.1054171,111.450379 60.4117029,113.671677 58.9058743,115.524484 C57.7703314,116.828695 56.0670171,115.82673 54.7771886,115.288484 C53.3474743,114.619818 51.7202743,114.160239 50.4304457,113.286625 C49.5931886,112.704905 48.6139886,112.069361 48.04416,111.199888 C47.8693029,110.932835 47.7808457,110.657502 47.84256,110.40287 L47.8302171,108.692905 C47.8302171,108.692905 47.9413029,108.51694 48.3424457,108.688765 C49.12416,109.028274 49.6528457,110.578835 51.32736,110.373888 C55.4498743,109.181467 57.3074743,110.328344 57.3074743,110.328344" id="Fill-815" fill="#E63744"></path>
            <path d="M48.17088,111.383719 L48.3704229,111.191193 C48.3704229,111.191193 50.5139657,113.344175 52.3571657,113.86793 L52.1925943,114.209509 C51.56928,113.944526 50.9706514,113.654702 50.43168,113.286211 C49.65408,112.741754 48.7509943,112.160035 48.17088,111.383719" id="Fill-817" fill="#333433"></path>
            <path d="M57.3819429,111.511035 C57.8468571,111.506895 58.2973714,111.535877 58.7376,111.602123 C58.7417143,111.610404 58.7499429,111.610404 58.7499429,111.620754 C59.6427429,112.769702 59.9574857,114.235386 58.9062857,115.523035 C57.7686857,116.827246 56.0674286,115.827351 54.7755429,115.289105 C53.7881143,114.827456 52.704,114.463105 51.6980571,113.991105 C52.8233143,112.525421 54.9462857,111.529667 57.3819429,111.511035" id="Fill-819" fill="#9B1D2B"></path>
            <path d="M47.8816457,108.884811 C48.2786743,108.8786 48.6098743,109.617653 48.6139886,110.536811 C48.6181029,110.990179 48.5502171,111.387653 48.4288457,111.691968 C48.2827886,111.536705 48.15936,111.375232 48.04416,111.199267 C47.8693029,110.932214 47.7808457,110.656881 47.84256,110.402249 L47.8322743,108.884811 L47.8816457,108.884811 Z" id="Fill-821" fill="#E63744"></path>
            <path d="M69.9979886,77.9131228 C69.8848457,76.9318596 69.5454171,76.0582456 69.08256,75.3854386 C69.0846171,75.4227018 69.0846171,75.4475439 69.0846171,75.4475439 C69.0846171,75.4475439 67.5890743,61.4655789 63.9376457,56.8490877 C62.2631314,54.7312982 56.5175314,51.6860702 55.8448457,51.3341404 C54.5755886,50.4253333 51.7243886,50.0278596 49.9511314,49.878807 C50.2411886,49.2204912 50.4160457,48.5042105 50.4119314,47.9887368 L42.9280457,48.0487719 C42.9342171,48.5642456 43.11936,49.2639649 43.4135314,49.9160702 C41.6752457,50.0941053 38.7973029,50.5371228 37.4971886,51.4624912 L26.0923886,55.6794386 L20.6203886,49.3198596 C20.7088457,49.0590175 20.77056,48.781614 20.8158171,48.4855789 C21.15936,47.8479649 21.4391314,47.046807 21.6037029,46.1566316 C22.0336457,43.8276842 21.5173029,41.7761404 20.4455314,41.5753333 C19.8757029,41.4676842 19.2626743,41.9148421 18.7442743,42.7077193 C17.58816,41.606386 16.1584457,41.1488772 14.9776457,41.6622807 C13.1714743,42.4530877 12.6160457,45.2105614 13.7392457,47.8293333 C14.46336,49.5061754 15.6997029,50.7151579 16.9730743,51.1602456 C16.9730743,51.1602456 20.4311314,60.7907018 23.3872457,61.8444211 C25.7755886,62.6952632 34.4546743,59.1076491 34.4546743,59.1076491 L34.4546743,59.0931579 C32.9015314,69.1521404 34.7344457,84.4652281 34.7344457,84.4652281 L59.2453029,84.2664912 C59.2453029,84.2664912 60.6030171,70.3445614 59.21856,60.3476842 L59.21856,60.3497544 C59.4098743,60.8817895 60.4754743,61.8195789 61.3291886,63.0099298 C63.0242743,65.3864912 64.67616,75.4703158 64.67616,75.4703158 C64.6370743,75.5407018 64.60416,75.6131579 64.5691886,75.6835439 C64.1454171,76.1079298 63.7360457,76.664807 63.3883886,77.3314035 C62.4976457,79.0662105 62.4112457,80.8134386 63.2094171,81.231614 C63.63936,81.455193 64.2277029,81.2502456 64.8242743,80.7513333 C65.4763886,81.9002807 66.49056,82.6020702 67.5479314,82.4799298 C69.1648457,82.2956842 70.2613029,80.2565614 69.9979886,77.9131228" id="Fill-823" fill="#FDDFBB"></path>
            <path d="M63.9370286,56.8495018 C62.2645714,54.7317123 56.5189714,51.6864842 55.8442286,51.3345544 C55.5603429,51.1254667 55.1859429,50.9412211 54.7642286,50.7818175 C53.6862857,50.4423088 52.9827429,50.2870456 52.9827429,50.2870456 C52.6392,50.2249404 52.2894857,50.1607649 51.9500571,50.1090105 C51.9438857,50.1048702 51.9356571,50.1090105 51.9356571,50.1090105 C51.8184,50.0924491 51.7073143,50.0758877 51.5941714,50.0613965 L46.7434286,54.1334316 L41.5861714,50.1586947 C41.4730286,50.1752561 41.3598857,50.1938877 41.2488,50.2208 C41.2467429,50.2249404 41.2405714,50.2249404 41.2405714,50.2249404 C40.8908571,50.2870456 40.5473143,50.3491509 40.2058286,50.4298877 C39.1381714,50.6783088 38.1322286,51.011607 37.4965714,51.4608351 L28.3649143,54.8393614 C26.6328,58.0522737 28.2106286,61.2796772 28.2106286,61.2817474 C31.2325714,60.4350456 34.4046857,59.1349754 34.4540571,59.1080632 C34.3347429,59.8740281 34.2380571,60.6710456 34.1537143,61.4804842 C34.1516571,61.5529404 34.1413714,61.6336772 34.1393143,61.6999228 C34.1352,61.7102737 34.1352,61.7164842 34.1352,61.7226947 C34.1249143,61.7951509 34.1249143,61.8655368 34.1146286,61.9338526 C34.1146286,61.9442035 34.1146286,61.9524842 34.1105143,61.9607649 C34.1064,62.0290807 34.0961143,62.0994667 34.0899429,62.1698526 L34.0899429,62.1822737 L34.0899429,62.2029754 C34.0837714,62.2712912 34.0796571,62.3375368 34.0693714,62.409993 L34.0693714,62.4389754 C34.0652571,62.5072912 34.0590857,62.5776772 34.0590857,62.6480632 C34.0529143,62.6542737 34.0529143,62.6625544 34.0529143,62.6666947 L34.0529143,62.6770456 C34.0488,62.7536421 34.0385143,62.8219579 34.0364571,62.8902737 L34.0364571,62.9089053 C33.8245714,65.6891509 33.7978286,68.6412211 33.8574857,71.4442386 L33.8574857,71.4545895 C33.8574857,71.5270456 33.8636571,71.5932912 33.8636571,71.6636772 L33.8636571,71.6885193 L33.8636571,71.7071509 C33.8636571,71.7775368 33.8636571,71.8437825 33.8657143,71.9100281 C33.8718857,71.9203789 33.8718857,71.9390105 33.8718857,71.9514316 C33.8718857,72.0176772 33.8718857,72.0839228 33.876,72.1480982 C33.876,72.1605193 33.8801143,72.1750105 33.8801143,72.1832912 L33.8801143,72.1977825 C33.8801143,72.2598877 33.8801143,72.3282035 33.8821714,72.3923789 L33.8821714,72.4006596 L33.8821714,72.4462035 C33.8883429,72.5041684 33.8883429,72.5662737 33.8883429,72.6263088 L33.8883429,72.6801333 C33.8945143,72.7484491 33.8945143,72.8105544 33.8986286,72.8726596 L33.8986286,72.9223439 C33.8986286,72.9865193 33.9006857,73.0527649 33.9048,73.1128 L33.9048,73.1666246 C33.9109714,73.3405193 33.9192,73.5206246 33.9274286,73.6924491 C33.9274286,73.7421333 33.9315429,73.7897474 33.9336,73.8332211 L33.9336,73.8849754 C33.9377143,73.9532912 33.9377143,74.0153965 33.9397714,74.0754316 C33.9438857,74.1023439 33.9397714,74.127186 33.9397714,74.1520281 C33.9438857,74.2037825 33.9438857,74.257607 33.9438857,74.3155719 L33.9438857,74.3176421 C33.9438857,74.3342035 33.9500571,74.3569754 33.9521143,74.3797474 C33.9562286,74.4211509 33.9562286,74.4666947 33.9603429,74.5080982 L33.9603429,74.5619228 C33.9624,74.5784842 33.9624,74.5971158 33.9624,74.6136772 L33.9624,74.6364491 C33.9726857,74.6923439 33.9726857,74.7523789 33.9768,74.8082737 C33.9768,74.8227649 33.9870857,74.8393263 33.9870857,74.847607 C33.9932571,74.9200632 34.0117714,74.9904491 34.0117714,75.0649754 C34.2421714,80.3915368 34.7358857,84.5091158 34.7358857,84.5091158 L59.2467429,84.3124491 C59.2467429,84.3124491 59.6993143,79.6110807 59.8186286,73.7545544 C59.8186286,73.7462737 59.8186286,73.7442035 59.8165714,73.7317825 C59.8165714,73.7048702 59.8206857,73.667607 59.8206857,73.6365544 L59.8206857,73.537186 C59.8206857,73.5226947 59.8206857,73.5123439 59.8248,73.4957825 C59.8248,73.4585193 59.8227429,73.4171158 59.8227429,73.3819228 C59.8227429,73.3550105 59.8248,73.3301684 59.8248,73.3073965 L59.8248,73.2370105 C59.8248,73.183186 59.8227429,73.1293614 59.8289143,73.0755368 L59.8289143,72.9968702 C59.8289143,72.9823789 59.8289143,72.9720281 59.8330286,72.9658175 C59.8330286,72.9223439 59.8330286,72.8726596 59.8309714,72.8312561 L59.8309714,72.7484491 C59.8330286,72.6987649 59.8330286,72.6532211 59.8330286,72.6035368 C59.8309714,72.5766246 59.8309714,72.5372912 59.8309714,72.5020982 C59.8309714,72.4731158 59.8350857,72.4482737 59.8350857,72.4234316 L59.8350857,72.3654667 C59.8330286,72.3323439 59.8330286,72.2930105 59.8412571,72.2557474 L59.8412571,72.1874316 L59.8412571,72.1232561 C59.8412571,72.0880632 59.8392,72.0466596 59.8392,72.0093965 C59.8392,71.9762737 59.8433143,71.9348702 59.8433143,71.897607 L59.8433143,71.7651158 C59.8412571,71.7299228 59.8412571,71.6885193 59.8433143,71.6471158 L59.8433143,71.5187649 C59.8433143,71.4897825 59.8412571,71.4545895 59.8412571,71.425607 L59.8412571,71.2827649 C59.8412571,71.2455018 59.8392,71.2103088 59.8392,71.1751158 C59.8433143,71.1254316 59.8433143,71.0778175 59.8433143,71.0322737 C59.8433143,71.0012211 59.8474286,70.9763789 59.8474286,70.9494667 C59.8453714,70.8935719 59.8474286,70.8397474 59.8474286,70.7797123 L59.8474286,70.7610807 C59.8474286,70.7445193 59.8453714,70.7258877 59.8453714,70.7072561 C59.8433143,70.6513614 59.8392,70.5954667 59.8433143,70.5333614 C59.8618286,70.1089754 59.7836571,66.929186 59.7569143,66.8256772 C59.7569143,66.8256772 59.7528,66.6849053 59.7466286,66.6228 L59.7466286,66.5793263 C59.7466286,66.5130807 59.7404571,66.4447649 59.7342857,66.3764491 L59.7342857,66.3329754 C59.7342857,66.2605193 59.7322286,66.2025544 59.7260571,66.1300982 L59.7260571,66.0762737 C59.7198857,66.0183088 59.7157714,65.9562035 59.7137143,65.8961684 L59.7137143,65.8630456 C59.7137143,65.8485544 59.7096,65.8361333 59.7096,65.8257825 C59.7054857,65.7678175 59.7054857,65.7057123 59.6993143,65.6477474 C59.6993143,65.6187649 59.6972571,65.6001333 59.6972571,65.5773614 C59.6952,65.5193965 59.6910857,65.4635018 59.6910857,65.407607 C59.6910857,65.3806947 59.6849143,65.3558526 59.6849143,65.3330807 C59.6787429,65.2709754 59.6787429,65.2130105 59.6766857,65.1529754 C59.6766857,65.1302035 59.6705143,65.1095018 59.6705143,65.0825895 C59.6643429,65.0246246 59.6643429,64.9687298 59.6622857,64.9086947 C59.6622857,64.8900632 59.6561143,64.8714316 59.6561143,64.8610807 L59.6561143,64.8341684 C59.652,64.7762035 59.6437714,64.7161684 59.6437714,64.6602737 C59.6417143,64.6395719 59.6417143,64.6147298 59.6376,64.5857474 C59.6376,64.5360632 59.6293714,64.4760281 59.6232,64.4222035 C59.6232,64.4056421 59.6232,64.3849404 59.6211429,64.3663088 L59.6211429,64.345607 C59.6170286,64.2835018 59.6129143,64.2317474 59.6046857,64.1717123 C59.6046857,64.1427298 59.6046857,64.1199579 59.6026286,64.0930456 C59.5985143,64.0412912 59.5985143,63.9874667 59.5902857,63.9274316 C59.5902857,63.9191509 59.5902857,63.9046596 59.5882286,63.8922386 C59.5882286,63.8798175 59.5882286,63.8694667 59.5841143,63.8508351 C59.5841143,63.7928702 59.5779429,63.7369754 59.5738286,63.6831509 C59.5697143,63.6583088 59.5697143,63.6313965 59.5697143,63.6065544 C59.5635429,63.5548 59.5573714,63.4926947 59.5553143,63.4409404 C59.5512,63.4243789 59.5512,63.4119579 59.5512,63.3953965 C59.5512,63.3829754 59.5512,63.3705544 59.5429714,63.3622737 C59.5368,63.3001684 59.5347429,63.2504842 59.5306286,63.1904491 C59.5306286,63.1718175 59.5265143,63.1449053 59.5244571,63.1200632 C59.5203429,63.0683088 59.5162286,63.012414 59.5121143,62.9544491 C59.508,62.9316772 59.5018286,62.894414 59.5018286,62.8633614 C59.4977143,62.8178175 59.4915429,62.7619228 59.4874286,62.7122386 C59.4874286,62.6853263 59.4853714,62.6501333 59.4771429,62.6252912 C59.4730286,62.5735368 59.4668571,62.5197123 59.4648,62.4679579 C59.4648,62.4431158 59.4565714,62.4203439 59.4524571,62.3996421 C59.4504,62.3375368 59.4442286,62.2857825 59.4401143,62.2298877 C59.4339429,62.2071158 59.4339429,62.1802035 59.4318857,62.1553614 C59.4277714,62.0994667 59.4216,62.0435719 59.4133714,61.9897474 C59.4113143,61.973186 59.4072,61.9586947 59.4072,61.9400632 L59.4072,61.9276421 C59.3969143,61.8717474 59.3948571,61.8117123 59.3886857,61.7537474 C59.3845714,61.7413263 59.3825143,61.7226947 59.3825143,61.7061333 L59.3825143,61.701993 C59.3763429,61.6398877 59.364,61.5757123 59.3619429,61.513607 C59.3619429,61.5073965 59.3619429,61.4970456 59.3578286,61.4887649 C59.3516571,61.4183789 59.3434286,61.3521333 59.3331429,61.2817474 C59.2981714,60.9691509 59.2549714,60.6648351 59.2179429,60.3563789 C59.4133714,60.8904842 60.4748571,61.8179228 61.3285714,63.0103439 C61.5404571,63.3125895 61.9745143,64.2545193 61.9745143,64.2545193 C64.0645714,63.4740632 64.7886857,62.8260982 66.5928,62.6729053 C65.8213714,59.8346947 65.1877714,58.4311158 63.9370286,56.8495018" id="Fill-825" fill="#E63744"></path>
            <path d="M17.4565029,52.4220175 L21.5584457,50.409807 L20.6203886,49.3208947 C20.7088457,49.0579825 20.77056,48.7805789 20.8158171,48.486614 C21.15936,47.8469298 21.4391314,47.0457719 21.6037029,46.1576667 C21.7291886,45.4517368 21.77856,44.7685789 21.7435886,44.1599474 L21.7189029,44.120614 L18.8327314,42.5679825 C18.8059886,42.6114561 18.7771886,42.6590702 18.7442743,42.7087544 C18.65376,42.6176667 18.55296,42.5307193 18.4562743,42.4520526 L18.4274743,42.4520526 L16.5328457,43.282193 L16.3045029,43.0689649 L14.8706743,44.0212456 L14.9797029,44.1951404 L13.9470171,45.170193 L14.07456,45.4848596 L13.2866743,46.3584737 C13.3813029,46.8449649 13.5294171,47.3397368 13.7392457,47.8282982 C14.46336,49.5072105 15.6997029,50.716193 16.9730743,51.1612807 C16.9730743,51.1612807 17.1499886,51.6498421 17.4565029,52.4220175" id="Fill-827" fill="#E63744"></path>
            <polygon id="Fill-829" fill="#B52836" points="14.1496457 45.7061614 15.1782171 47.7991088 14.0200457 45.9690737"></polygon>
            <polygon id="Fill-831" fill="#B52836" points="15.1520914 44.5416877 16.34112 46.740214 15.0471771 44.8046"></polygon>
            <polygon id="Fill-833" fill="#B52836" points="16.7091429 43.7976667 17.0238857 43.7955965 17.7726857 45.807807"></polygon>
            <polygon id="Fill-835" fill="#B52836" points="18.5714743 43.2215368 18.35136 44.7969404 18.3390171 43.3374667"></polygon>
            <path d="M68.7303771,72.7376842 L64.3013486,73.3732281 C64.3013486,73.3732281 64.5831771,75.2550175 64.6757486,75.4641053 C64.1120914,75.9816491 63.0896914,77.6212281 62.8304914,78.7825965 L64.7477486,80.8134386 C64.7847771,80.7803158 64.7847771,80.7761754 64.82592,80.7513333 C64.8794057,80.8527719 64.9287771,80.9293684 64.9946057,81.0225263 L65.0604343,81.018386 L66.9221486,80.8424211 L67.0558629,81.0867018 L68.5472914,80.6747368 L68.5061486,80.4946316 L69.66432,79.9543158 L69.6396343,79.6437895 L69.9728914,79.4326316 C70.1374629,78.5610877 70.0510629,76.1244912 69.0821486,75.3854386 C69.0821486,75.3854386 68.8640914,73.4870877 68.7303771,72.7376842" id="Fill-837" fill="#E63744"></path>
            <path d="M46.7384914,55.165414 L42.8916343,49.973414 C44.0642057,49.8264316 44.9446629,49.7001509 44.9446629,49.7001509 L46.6335771,49.7084316 L46.7775771,49.7084316 L48.4664914,49.7063614 C48.4664914,49.7063614 49.2708343,49.7684667 50.3631771,49.8699053 L46.7384914,55.165414 Z" id="Fill-847" fill="#FDDFBB"></path>
            <path d="M46.3066971,54.6520105 C46.3066971,54.6520105 44.1857829,55.2337298 44.2865829,56.1197649 C44.3832686,57.0161509 41.0383543,50.5882561 41.20704,50.2860105 C41.3695543,49.9775544 42.7416686,49.029414 42.7416686,49.029414 L46.3066971,54.6520105 Z" id="Fill-849" fill="#E63744"></path>
            <path d="M42.7346743,49.0720596 C42.5413029,49.2045509 41.3831314,50.0264105 41.2309029,50.303814 C41.1959314,50.3804105 41.4859886,51.1318842 42.2347886,52.6265509 C43.1275886,54.4234632 44.0779886,56.0899544 44.2549029,56.1727614 C44.2549029,56.1644807 44.2549029,56.1520596 44.2507886,56.1292877 C44.1582171,55.2805158 45.9499886,54.7194982 46.2544457,54.6284105 L42.7346743,49.0720596 Z M42.4178743,53.135814 C42.09696,52.5126912 41.0704457,50.4652877 41.1815314,50.2665509 C41.3461029,49.9601649 42.6709029,49.0368667 42.7223314,49.005814 L42.7511314,48.9789018 L46.3531886,54.6718842 L46.3141029,54.6801649 C46.2935314,54.6843053 44.2219886,55.2680947 44.3166171,56.1189368 C44.3207314,56.1727614 44.3186743,56.2058842 44.2960457,56.2245158 C44.2898743,56.2348667 44.27136,56.2431474 44.25696,56.2431474 C43.9874743,56.203814 42.48576,53.2600246 42.4178743,53.135814 Z" id="Fill-851" fill="#9B1D2B"></path>
            <path d="M47.1443657,54.6458 C47.1443657,54.6458 49.2755657,55.1943965 49.1871086,56.0804316 C49.1027657,56.9788877 52.3448229,50.4992386 52.17408,50.196993 C52.00128,49.8926772 50.61888,48.9673088 50.61888,48.9673088 L47.1443657,54.6458 Z" id="Fill-853" fill="#E63744"></path>
            <path d="M47.1925029,54.6176456 C47.5010743,54.704593 49.2990171,55.2407684 49.2208457,56.0895404 C49.2167314,56.1123123 49.2167314,56.1268035 49.2167314,56.1309439 C49.3936457,56.0460667 50.3173029,54.3650842 51.1854171,52.5557509 C51.9074743,51.046593 52.1893029,50.2909789 52.14816,50.2164526 C51.9959314,49.9411193 50.82336,49.1399614 50.6341029,49.0095404 L47.1925029,54.6176456 Z M49.2187886,56.2034 C49.2043886,56.2034 49.1899886,56.1951193 49.1755886,56.1847684 C49.1591314,56.168207 49.1509029,56.1309439 49.1550171,56.0812596 C49.23936,55.2304175 47.1575314,54.6776807 47.1349029,54.6735404 L47.0958171,54.6673298 L50.6114743,48.9184526 L50.6382171,48.9432947 C50.69376,48.9722772 52.0288457,49.8748737 52.1995886,50.1771193 C52.3086171,50.3758561 51.3170743,52.4398211 51.0043886,53.0670842 C50.9467886,53.1954351 49.4800457,56.1599263 49.2187886,56.2034 Z" id="Fill-855" fill="#9B1D2B"></path>
            <polygon id="Fill-857" fill="#EEEEED" points="46.8349714 61.2850596 46.7053714 61.2850596 46.656 55.1428491 46.7876571 55.1428491"></polygon>
            <path d="M43.7552229,50.5296702 L50.3853943,48.2628281 L50.3997943,48.250407 C49.1655086,48.4760561 47.8941943,48.5981965 46.5961371,48.6085474 C45.3495086,48.6188982 44.1357943,48.5216 42.9467657,48.3414947 C43.02288,48.9873895 43.32528,49.8837754 43.7552229,50.5296702" id="Fill-859" fill="#EEAC6C"></path>
            <path d="M68.6941714,29.1871965 C68.8505143,28.0755123 68.9245714,26.9348456 68.9163429,25.7796877 C68.8176,13.2696175 58.6635429,3.20856491 46.2342857,3.30793333 C33.8050286,3.40937193 23.8093714,13.6277579 23.9081143,26.1398982 C23.9163429,27.2474421 24.0048,28.3280737 24.1632,29.3880035 C22.8713143,30.1146351 22.0052571,31.4706 22.0155429,33.0232316 C22.0340571,35.316986 23.9739429,37.1656526 26.3458286,37.1470211 C26.5042286,37.1470211 26.6646857,37.1304596 26.8230857,37.1180386 C30.7213714,44.0324246 38.1312,48.6778982 46.5922286,48.6095825 C55.0470857,48.5433368 62.3705143,43.790214 66.1638857,36.8220035 C66.2338286,36.8220035 66.2996571,36.8261439 66.3654857,36.8261439 C68.7414857,36.8095825 70.6505143,34.927793 70.632,32.6319684 C70.6196571,31.1890561 69.8502857,29.9221088 68.6941714,29.1871965" id="Fill-861" fill="#FDDFBB"></path>
            <g id="Page-1" transform="translate(34.000000, 23.000000)">
                <path d="M8.31106854,1.65026755 C8.31106854,1.65026755 7.80801591,3.45328977 6.22875275,3.09640088 C5.45712117,2.92235643 5.3211738,1.89471199 2.8433317,2.35573421 C2.06412117,2.53613421 0.42612117,3.51195643 0.110647486,4.16364532 C-0.205299883,4.8158231 0.0234895909,1.77248977 2.56764749,0.641689768 C4.4031738,-0.0329768984 5.02512117,0.000267546019 6.54470012,0.000267546019 C8.06427906,0.000267546019 8.53227906,0.907156435 8.31106854,1.65026755" id="Fill-1" fill="#F6B90C"></path>
                <path d="M18.05184,1.65026755 C18.05184,1.65026755 18.5548926,3.45328977 20.1341558,3.09640088 C20.9057873,2.92235643 21.0417347,1.89471199 23.5195768,2.35573421 C24.2987873,2.53613421 25.9367873,3.51195643 26.252261,4.16364532 C26.5682084,4.8158231 26.3394189,1.77248977 23.795261,0.641689768 C21.9597347,-0.0329768984 21.3377873,0.000267546019 19.8182084,0.000267546019 C18.2986294,0.000267546019 17.8306294,0.907156435 18.05184,1.65026755" id="Fill-3" fill="#F6B90C"></path>
                <path d="M6,9 C6,10.6568785 5.10453816,12 3.99983098,12 C2.89512381,12 2,10.6568785 2,9 C2,7.34312148 2.89512381,6 3.99983098,6 C5.10453816,6 6,7.34312148 6,9" id="Fill-5" fill="#6172BB"></path>
                <path d="M24,9 C24,10.6568785 23.1048762,12 22.000169,12 C20.8951238,12 20,10.6568785 20,9 C20,7.34312148 20.8951238,6 22.000169,6 C23.1048762,6 24,7.34312148 24,9" id="Fill-7" fill="#6172BB"></path>
                <path d="M13.0197368,12.0692 C13.8586316,11.9552889 15.9802632,13.8262667 15.9802632,13.8262667 C15.9802632,13.8262667 16.0825789,13.4116889 15.6396842,12.5884 C15.1626842,11.7025333 12.9903684,11 12.9903684,11 C12.9903684,11 11.3026316,11.4478222 10.5030526,12.6040444 C10.207,12.8939556 10,13.9025333 10,13.9025333 C10,13.9025333 11.8947368,12.2217333 13.0197368,12.0692 Z" id="Fill-9" fill="#EEAC6C"></path>
                <g id="Group-13" transform="translate(6.000000, 15.000000)">
                    <mask id="mask-2" fill="white">
                        <use xlink:href="#path-1"></use>
                    </mask>
                    <g id="Clip-12"></g>
                    <path d="M0.199373684,0.696031111 C0.199373684,0.696031111 7.09763684,3.90412 13.3734789,0.299053333 C13.3734789,0.299053333 11.9822684,5.76825333 7.42305789,5.86016444 C3.30768947,5.98238667 2.43942632,4.36807556 1.94632105,3.90412 C1.45274211,3.44114222 0.524794737,2.13238667 0.199373684,0.696031111" id="Fill-11" fill="#EEAC6C" mask="url(#mask-2)"></path>
                </g>
            </g>
            <path d="M37.8952457,31.0329649 C37.9075886,32.4406842 37.07856,33.5834211 36.0499886,33.5896316 C35.0173029,33.5979123 34.1759314,32.4675965 34.1635886,31.0619474 C34.1533029,29.6562982 34.97616,28.5135614 36.0067886,28.5052807 C37.0394743,28.4990702 37.88496,29.6273158 37.8952457,31.0329649" id="Fill-867" fill="#FFFFFF"></path>
            <path d="M57.9583543,30.869214 C57.9706971,32.2769333 57.1396114,33.4196702 56.11104,33.4300211 C55.0804114,33.4383018 54.2328686,32.307986 54.2225829,30.9023368 C54.2122971,29.4966877 55.0392686,28.3539509 56.0698971,28.3456702 C57.0984686,28.3353193 57.9480686,29.4656351 57.9583543,30.869214" id="Fill-869" fill="#FFFFFF"></path>
            <path d="M37.1882057,31.7405509 C37.1964343,32.6079544 36.6862629,33.3180246 36.0444343,33.3221649 C35.4087771,33.3283754 34.8842057,32.626586 34.8759771,31.7591825 C34.8698057,30.8897088 35.3820343,30.1837789 36.0218057,30.1754982 C36.65952,30.1713579 37.1820343,30.8731474 37.1882057,31.7405509" id="Fill-871" fill="#1679AF"></path>
            <path d="M57.2533714,31.5807333 C57.2616,32.4481368 56.7473143,33.158207 56.1075429,33.1623474 C55.4677714,33.1664877 54.9473143,32.4667684 54.9390857,31.5993649 C54.9308571,30.7298912 55.4430857,30.0218912 56.0849143,30.0156807 C56.7205714,30.0115404 57.2451429,30.7112596 57.2533714,31.5807333" id="Fill-873" fill="#1679AF"></path>
            <path d="M33.0136457,27.9620667 C34.8383314,26.8048386 37.5352457,26.0595754 37.5352457,26.0595754 C37.8520457,25.4571544 37.5599314,24.4427684 37.1320457,24.378593 C35.7846171,24.1984877 33.0136457,27.9620667 33.0136457,27.9620667" id="Fill-875" fill="#F7B90B"></path>
            <path d="M59.0653029,27.7517368 C57.2179886,26.6255614 54.5087314,25.9217018 54.5087314,25.9217018 C54.1816457,25.3254912 54.4634743,24.3069649 54.89136,24.2365789 C56.2285029,24.0337018 59.0653029,27.7517368 59.0653029,27.7517368" id="Fill-877" fill="#F7B90B"></path>
            <path d="M69.7850743,22.820993 C69.7624457,21.6368526 69.66576,20.1980807 69.4867886,18.6640807 C66.3846171,8.71895789 57.1192457,1.54165965 46.2266743,1.62860702 C36.7411886,1.70520351 28.5784457,7.26776491 24.68016,15.2979754 C23.6125029,18.4508526 22.9645029,21.5499053 22.9192457,22.9431333 C22.7670171,27.7914842 26.3279314,35.0143263 26.3279314,35.0143263 C25.8445029,27.0462211 25.93296,27.0627825 27.83376,25.6674842 C30.19536,23.9264667 35.1695314,20.6825018 37.0847314,18.4612035 C37.4467886,18.0368175 38.1997029,16.5152386 38.1997029,16.5152386 C38.1997029,16.5152386 38.1359314,17.7055895 38.8003886,18.2210632 C42.80976,21.3553088 54.5272457,17.7449228 59.0056457,20.1504667 C62.66736,22.1109228 67.1910171,34.6851684 67.1910171,34.6851684 C68.9704457,31.2424667 69.8406171,25.4770281 69.7850743,22.820993" id="Fill-879" fill="#F7B90B"></path>
            <path d="M22.34016,26.9652772 C22.34016,26.9652772 25.49376,48.8801544 46.5918171,48.6089614 C24.3438171,42.9470316 24.93216,25.2718737 24.93216,25.2718737 L22.9819886,24.4893474 L22.34016,26.9652772 Z" id="Fill-881" fill="#333433"></path>
            <path d="M70.3997486,26.5791895 C70.3997486,26.5791895 67.5938057,48.5437509 46.4916343,48.6120667 C68.6511771,42.5899263 67.78512,24.9292596 67.78512,24.9292596 L69.7229486,24.1177509 L70.3997486,26.5791895 Z" id="Fill-883" fill="#333433"></path>
            <path d="M22.34016,26.9652772 C25.8599314,31.8922947 40.35456,25.0814175 46.3799314,25.0317333 C52.4011886,24.9820491 66.8299886,31.4492772 70.4197029,26.5781544 L68.8706743,22.6945053 L24.50016,22.2100842 L22.34016,26.9652772 Z" id="Fill-885" fill="#333433"></path>
            <path d="M24.4614857,17.0793614 L28.8,9.09883509 C28.8,9.09883509 35.2244571,3.77434386 37.7053714,2.5570807 C38.5632,2.13890526 40.4784,1.77041404 41.4267429,1.66690526 C44.0331429,1.39571228 49.3344,1.43504561 51.9078857,1.92360702 C52.776,2.09129123 54.4793143,2.58399298 55.2610286,2.98560702 C57.6637714,4.22150175 64.1499429,9.12781754 64.1499429,9.12781754 L67.8816,16.7315719 L61.4982857,21.9008 L30.3819429,22.1492211 L24.4614857,17.0793614 Z" id="Fill-887" fill="#343434"></path>
            <path d="M64.4151086,18.6361333 C63.09648,19.2199228 61.8704229,19.3317123 61.6729371,18.8824842 C61.4816229,18.431186 62.39088,17.5886246 63.7033371,17.0048351 C65.0240229,16.4272561 66.2459657,16.319607 66.4434514,16.7709053 C66.63888,17.2201333 65.7296229,18.0523439 64.4151086,18.6361333 M60.8151086,15.4687649 C59.2763657,16.9530807 51.1650514,19.6277474 52.7449371,18.1910456 C56.6226514,14.6510456 58.2354514,10.407186 63.1849371,9.26444912 C64.7936229,8.89595789 62.0082514,14.3198175 60.8151086,15.4687649 M46.4109943,18.1703439 C43.55568,18.2324491 41.6487086,15.7772211 40.3527086,12.6864491 C41.4697371,11.3718877 42.8233371,11.2414667 43.71408,11.3429053 C44.4731657,13.7153263 45.3536229,15.5515719 46.3019657,15.5846947 C47.3058514,15.6178175 48.3015086,13.7546596 49.1922514,11.3242737 C50.0233371,11.1793614 51.3810514,11.1917825 52.5618514,12.3676421 C51.18768,15.5329404 49.2395657,18.1144491 46.4109943,18.1703439 M32.0048229,15.7006246 C30.7911086,14.5703088 27.9255086,9.19199298 29.5341943,9.53357193 C34.5083657,10.5976421 36.1808229,14.8125193 40.1202514,18.2924842 C41.7207086,19.7043439 33.5682514,17.1580281 32.0048229,15.7006246 M30.7705371,19.1288351 C30.58128,19.5822035 29.3531657,19.4890456 28.0304229,18.9280281 C26.7015086,18.3649404 25.7799086,17.5472211 25.9712229,17.0917825 C26.1645943,16.6425544 27.3885943,16.7274316 28.7133943,17.2863789 C30.0381943,17.8494667 30.9577371,18.6775368 30.7705371,19.1288351 M55.4480229,2.11820351 C55.10448,3.67704561 54.61488,6.18816842 53.8434514,8.76760702 C52.3437943,8.82350175 51.0786514,7.99957193 50.4162514,7.46960702 C51.1794514,4.79701053 51.7863086,2.23413333 52.1277943,1.16385263 C50.1920229,0.753957895 48.2048229,0.563501754 46.21968,0.575922807 C44.5472229,0.590414035 42.8891657,0.751887719 41.2928229,1.06655439 C41.5335086,2.07265965 42.01488,4.72869474 42.6731657,7.4882386 C42.0189943,8.04097544 40.6921371,8.96013333 39.0896229,8.87732632 C38.3778514,6.19644912 37.9808229,3.57974737 37.7154514,2.03539649 C28.8553371,5.18206316 22.2313371,13.4358526 22.3403657,26.9644491 C25.1072229,22.6978175 36.0450514,26.8298877 40.5378514,24.1593614 C40.7559086,24.0268702 41.1714514,23.4140982 41.4738514,23.3292211 C42.6957943,22.9710807 45.2363657,24.1200281 46.5159086,24.1096772 C47.7913371,24.1013965 50.3195657,22.8820632 51.5435657,23.246414 C51.8336229,23.3354316 52.2018514,23.9357825 52.4301943,24.0620632 C56.8941943,26.6228702 67.8237943,22.5487649 70.4199086,26.5793965 C70.3088229,12.7692561 63.7033371,5.1365193 55.4480229,2.11820351" id="Fill-889" fill="#E63744"></path>
            <path d="M23.4812571,17.6838526 C23.4812571,17.6838526 25.7976,22.1989053 30.3685714,23.2898877 C24.3185143,23.3354316 23.2014857,23.4140982 22.6933714,21.499186 C22.4444571,20.5613965 23.4812571,17.6838526 23.4812571,17.6838526" id="Fill-891" fill="#717171"></path>
            <path d="M69.1763657,17.3201228 C69.1763657,17.3201228 66.9361371,21.8682982 62.3877943,23.0317368 C68.4337371,22.9820526 69.5528229,23.0441579 70.0321371,21.1209649 C70.2645943,20.1790351 69.1763657,17.3201228 69.1763657,17.3201228" id="Fill-893" fill="#717171"></path>
            <path d="M70.3293943,27.0482912 L22.5440229,27.4312737 L31.3321371,28.6671684 C30.9618514,30.0355544 30.26448,33.5051684 31.5728229,35.2399754 C33.5970514,37.9332737 42.9117943,34.2649228 44.9709943,31.5985368 C45.7053943,30.644186 45.7218514,28.5470982 46.57968,28.5346772 C47.4354514,28.5222561 47.4930514,30.6234842 48.25008,31.5633439 C50.35248,34.1924667 59.7165943,37.7386772 61.7017371,35.0143263 C62.9792229,33.2567474 62.2263086,29.782993 61.8333943,28.4187474 L70.3293943,27.0482912 Z" id="Fill-895" fill="#C6C5C6"></path>
            <path d="M34.8196114,29.7370351 C34.9944686,30.0082281 34.9183543,30.3684386 34.6529829,30.5444035 L32.6493257,31.8610351 C32.3839543,32.037 32.0239543,31.9624737 31.8490971,31.6933509 L31.8490971,31.6912807 C31.67424,31.4242281 31.7482971,31.0640175 32.0157257,30.8880526 L34.0152686,29.5693509 C34.2765257,29.3913158 34.64064,29.4679123 34.8154971,29.7370351 L34.8196114,29.7370351 Z" id="Fill-897" fill="#DCDCDC"></path>
            <path d="M34.0179429,32.5996737 C34.02,32.957814 33.732,33.2497088 33.3761143,33.2517789 C33.0181714,33.2538491 32.7301714,32.9660947 32.7281143,32.6079544 C32.7260571,32.2477439 33.0078857,31.9537789 33.3658286,31.9537789 C33.7237714,31.9517088 34.0158857,32.2394632 34.0179429,32.5996737" id="Fill-899" fill="#DCDCDC"></path>
            <path d="M22.5429943,27.4080877 L31.3311086,28.6605439 C31.3290514,28.6791754 31.2961371,28.7350702 31.3146514,28.7288596 C37.6794514,27.3066491 46.32768,28.6067193 46.32768,28.6067193 C46.4058514,28.5611754 46.4840229,28.5363333 46.5807086,28.5342632 C46.67328,28.5342632 46.7617371,28.5591053 46.8399086,28.6025789 C46.8399086,28.6025789 56.06208,27.3232105 61.8529371,28.4845789 C61.8755657,28.4887193 61.8426514,28.4348947 61.8344229,28.4038421 L70.3283657,27.0251053 L22.5429943,27.4080877 Z" id="Fill-901" fill="#B52836"></path>
            <polygon id="Fill-903" fill="#C6C5C6" points="13.6495543 103.173611 10.8168686 103.196382 10.8127543 102.627084 13.64544 102.606382"></polygon>
            <polygon id="Fill-905" fill="#7A797A" points="12.51648 103.183754 13.6499657 103.173404 13.6067657 97.8509825 12.6645943 97.857193"></polygon>
            <path d="M11.7610971,102.999716 C11.7652114,103.595926 11.2900114,104.078277 10.7016686,104.082418 L8.18578286,104.103119 C7.59332571,104.10726 7.10372571,103.633189 7.09961143,103.036979 C7.09138286,102.444909 7.57686857,101.956347 8.16726857,101.952207 L10.6852114,101.931505 C11.2735543,101.925295 11.7569829,102.407646 11.7610971,102.999716" id="Fill-907" fill="#565657"></path>
            <polygon id="Fill-909" fill="#C6C5C6" points="20.1161829 92.9258281 22.9468114 92.9030561 22.9509257 93.4702842 20.1202971 93.490986"></polygon>
            <polygon id="Fill-911" fill="#7A797A" points="21.2492571 92.7844351 20.1137143 92.794786 20.1589714 98.2455579 21.1032 98.2393474"></polygon>
            <path d="M26.6613943,93.0614246 C26.6655086,93.6555649 26.1923657,94.1420561 25.6019657,94.1461965 L23.08608,94.1668982 C22.49568,94.1710386 22.0081371,93.6948982 22.0040229,93.0986877 C21.9978514,92.5045474 22.4771657,92.0180561 23.0696229,92.0139158 L25.5855086,91.993214 C26.1759086,91.9890737 26.65728,92.4672842 26.6613943,93.0614246" id="Fill-913" fill="#565657"></path>
            <path d="M16.75728,73.1521333 C16.7161371,73.1190105 16.6873371,73.1128 16.6544229,73.1128 C16.62768,73.1128 16.5968229,73.1210807 16.5597943,73.1542035 C11.8139657,77.8638526 11.7213943,98.0563439 11.7213943,98.0563439 L12.8775086,98.045993 C12.8775086,98.045993 13.0873371,78.1660982 16.5783086,75.4065544 C16.61328,75.3775719 16.6441371,75.3444491 16.6729371,75.2926947 C16.7037943,75.3444491 16.7346514,75.3755018 16.7757943,75.4044842 C20.3079086,78.1102035 20.8283657,97.9838877 20.8283657,97.9838877 L21.9865371,97.9735368 C21.9865371,97.9735368 21.5771657,77.785186 16.75728,73.1521333" id="Fill-915" fill="#D7D6D6"></path>
            <polygon id="Fill-917" fill="#D7D6D6" points="16.1325257 90.2331509 16.2538971 105.751186 14.4292114 98.0687649"></polygon>
            <polygon id="Fill-919" fill="#D7D6D6" points="17.2012114 90.2248702 17.3225829 105.740835 19.0279543 98.0315018"></polygon>
            <path d="M21.9805714,98.0205298 C21.9826286,98.2047754 21.8324571,98.3558982 21.6493714,98.3579684 L12.0630857,98.4366351 C11.8738286,98.4366351 11.7257143,98.2875825 11.7216,98.1033368 L11.7216,98.0847053 C11.7195429,97.8942491 11.8697143,97.7431263 12.0589714,97.7431263 L21.6452571,97.6644596 C21.8283429,97.6623895 21.9785143,97.8114421 21.9805714,98.0018982 L21.9805714,98.0205298 Z" id="Fill-921" fill="#C6C5C6"></path>
            <polygon id="Fill-923" fill="#D7D6D6" points="17.2775314 68.4315123 15.70176 68.4460035 15.7963886 80.1611263 17.3701029 80.1487053"></polygon>
            <path d="M18.08928,115.301526 C18.0933943,115.963982 17.5626514,116.508439 16.9023086,116.512579 C16.2440229,116.52086 15.7029943,115.984684 15.69888,115.322228 L15.4191086,80.0422982 C15.4129371,79.3736316 15.94368,78.8312456 16.6040229,78.8271053 C17.2664229,78.8229649 17.8033371,79.355 17.8074514,80.0236667 L18.08928,115.301526 Z" id="Fill-925" fill="#333433"></path>
            <path d="M32.8869257,68.3081298 C32.8869257,68.3081298 20.2807543,66.5671123 16.5737829,69.5792175 C12.4039543,66.6312877 0.223611429,68.5710421 0.223611429,68.5710421 L0.211268571,66.9852877 L32.8725257,66.7223754 L32.8869257,68.3081298 Z" id="Fill-927" fill="#D7D6D6"></path>
            <path d="M1.65024,74.1083474 C1.72635429,74.2822421 1.50418286,74.4478561 1.31904,74.4499263 L1.29641143,74.4499263 C1.10921143,74.4519965 0.967268571,74.305014 0.956982857,74.1124877 C0.82944,71.6717509 0.0621257143,72.1603123 0.000411428571,64.4116456 C0.000411428571,64.2274 0.150582857,64.074207 0.333668571,64.0721368 L0.35424,64.0721368 C0.537325714,64.0721368 0.687497143,64.2191193 0.687497143,64.4054351 C0.687497143,64.4054351 0.504411429,71.5309789 1.65024,74.1083474" id="Fill-929" fill="#333433"></path>
            <path d="M31.5652114,73.867793 C31.48704,74.0437579 31.71744,74.2052316 31.90464,74.2052316 L31.9231543,74.2052316 C32.1082971,74.2031614 32.2461257,74.0561789 32.2564114,73.8615825 C32.3489829,71.4187754 33.1204114,71.8949158 33.0607543,64.1462491 C33.0586971,63.9599333 32.9044114,63.8129509 32.7213257,63.8150211 L32.7028114,63.8150211 C32.5176686,63.8150211 32.3674971,63.9661439 32.3695543,64.1524596 C32.3695543,64.1524596 32.6637257,71.271793 31.5652114,73.867793" id="Fill-931" fill="#333433"></path>
        </g>
    </g>
</svg>