<?xml version="1.0" encoding="UTF-8"?>
<svg width="120px" height="120px" viewBox="0 0 120 120" version="1.1" xmlns="http://www.w3.org/2000/svg" xmlns:xlink="http://www.w3.org/1999/xlink">
    <!-- Generator: Sketch 51.1 (57501) - http://www.bohemiancoding.com/sketch -->
    <title>Lock2</title>
    <desc>Created with Sketch.</desc>
    <defs>
        <polygon id="path-1" points="0.8402 0 69.4382 0 69.4382 62.7077 0.8402 62.7077"></polygon>
        <polygon id="path-3" points="0.7021 0.1316 39.359 0.1316 39.359 28.9996 0.7021 28.9996"></polygon>
        <polygon id="path-5" points="0 120 106.359 120 106.359 0 0 0"></polygon>
    </defs>
    <g id="Lock2" stroke="none" stroke-width="1" fill="none" fill-rule="evenodd">
        <g id="Page-1" transform="translate(7.000000, 0.000000)">
            <g id="Group-3" transform="translate(13.000000, 0.000000)">
                <mask id="mask-2" fill="white">
                    <use xlink:href="#path-1"></use>
                </mask>
                <g id="Clip-2"></g>
                <path d="M69.4382,62.7077 L54.6932,62.7077 L54.6932,34.5607 C54.6932,23.7877 46.0912,14.8437 35.3202,14.7457 C24.4562,14.6467 15.5852,23.4567 15.5852,34.2987 L15.5852,46.8897 C15.5852,50.1457 12.9452,52.7867 9.6872,52.7867 L6.7382,52.7867 C3.4812,52.7867 0.8402,50.1457 0.8402,46.8897 L0.8402,34.6447 C0.8402,15.6777 16.0882,0.0457 35.0552,-0.0003 C54.0062,-0.0453 69.4382,15.3577 69.4382,34.2987 L69.4382,62.7077 Z" id="Fill-1" fill="#E8E8E8" mask="url(#mask-2)"></path>
            </g>
            <polygon id="Fill-4" fill="#8A674D" points="96.5711 91.1316 96.5711 44.6016 0.0001 44.6016 0.0001 91.3806 28.6201 119.9996 67.7021 119.9996"></polygon>
            <path d="M56.9685,72.7351 C56.9685,67.9551 53.0925,64.0791 48.3125,64.0791 C43.5315,64.0791 39.6565,67.9551 39.6565,72.7351 C39.6565,75.9811 41.4455,78.8081 44.0885,80.2901 L43.0025,91.9731 C43.0025,93.0251 43.8635,93.8841 44.9135,93.8841 L51.7105,93.8841 C52.7625,93.8841 53.6215,93.0251 53.6215,91.9731 L52.5365,80.2901 C55.1805,78.8081 56.9685,75.9811 56.9685,72.7351" id="Fill-6" fill="#755841"></path>
            <path d="M52.0164,64.9109 C49.0884,66.2989 47.0634,69.2799 47.0634,72.7349 C47.0634,75.9809 48.8514,78.8079 51.4954,80.2899 L50.4104,91.9729 C50.4104,92.9209 51.1094,93.7109 52.0164,93.8579 C52.9234,93.7109 53.6214,92.9209 53.6214,91.9729 L52.5374,80.2899 C55.1804,78.8079 56.9684,75.9809 56.9684,72.7349 C56.9684,69.2799 54.9434,66.2989 52.0164,64.9109" id="Fill-8" fill="#4D3A2B"></path>
            <g id="Group-12" transform="translate(67.000000, 91.000000)">
                <mask id="mask-4" fill="white">
                    <use xlink:href="#path-3"></use>
                </mask>
                <g id="Clip-11"></g>
                <polygon id="Fill-10" fill="#755841" mask="url(#mask-4)" points="39.3591 0.1316 29.5711 0.1316 0.7021 28.9996 10.4901 28.9996"></polygon>
            </g>
            <mask id="mask-6" fill="white">
                <use xlink:href="#path-5"></use>
            </mask>
            <g id="Clip-14"></g>
            <polygon id="Fill-13" fill="#B08362" mask="url(#mask-6)" points="96.571 91.131 106.359 91.131 106.359 44.601 96.571 44.601"></polygon>
        </g>
    </g>
</svg>