<?xml version="1.0" encoding="UTF-8"?>
<svg width="120px" height="120px" viewBox="0 0 120 120" version="1.1" xmlns="http://www.w3.org/2000/svg" xmlns:xlink="http://www.w3.org/1999/xlink">
    <!-- Generator: Sketch 51.1 (57501) - http://www.bohemiancoding.com/sketch -->
    <title>Lemon</title>
    <desc>Created with Sketch.</desc>
    <defs></defs>
    <g id="Lemon" stroke="none" stroke-width="1" fill="none" fill-rule="evenodd">
        <g id="Page-1" transform="translate(60.500000, 60.500000) scale(-1, 1) translate(-60.500000, -60.500000) translate(17.000000, 5.000000)">
            <path d="M82.874018,71.8622057 C92.9674702,48.8166902 82.759155,23.7696567 71.37841,12.7966409 C71.9123674,11.1349445 74.0513018,3.32008713 67.9583915,0.628533867 C61.76821,-2.105627 57.1116039,4.88513702 56.2899717,6.22363919 C40.7172464,5.15117472 16.4708163,13.6487929 5.2204562,37.5620486 C-6.14269726,61.7164009 2.68726253,86.7447286 15.9927381,98.2363101 C15.441189,99.9676335 13.3715863,107.698315 19.4241393,110.371162 C25.3659686,112.996206 29.8942592,106.661184 30.973557,104.965193 C48.2785397,107.014515 72.4949606,95.5624234 82.874018,71.8622057" id="Fill-1" fill="#FFCF00"></path>
            <path d="M82.874018,71.8622057 C92.9674702,48.8166902 82.759155,23.7696567 71.37841,12.7966409 C71.9123674,11.1349445 74.0513018,3.32008713 67.9583915,0.628533867 C61.76821,-2.105627 57.1116039,4.88513702 56.2899717,6.22363919 C40.7172464,5.15117472 16.4708163,13.6487929 5.2204562,37.5620486 C-6.14269726,61.7164009 2.68726253,86.7447286 15.9927381,98.2363101 C15.441189,99.9676335 13.3715863,107.698315 19.4241393,110.371162 C25.3659686,112.996206 29.8942592,106.661184 30.973557,104.965193 C48.2785397,107.014515 72.4949606,95.5624234 82.874018,71.8622057 Z" id="Stroke-3" stroke="#FFDE00" stroke-width="4.48598131"></path>
            <g id="Group-8" transform="translate(11.000000, 20.000000)">
                <path d="M27.8856148,0.679845614 C20.1327259,3.28723158 12.5602815,6.89554737 7.75983704,13.7902667 C3.06102222,20.5369684 0.584577778,28.9398105 0.525466667,37.1273544 C0.472577778,44.533407 1.67657778,51.7738456 4.82917037,58.5153719" id="Fill-5" fill="#FFCF00"></path>
                <path d="M27.8856148,0.679845614 C20.1327259,3.28723158 12.5602815,6.89554737 7.75983704,13.7902667 C3.06102222,20.5369684 0.584577778,28.9398105 0.525466667,37.1273544 C0.472577778,44.533407 1.67657778,51.7738456 4.82917037,58.5153719" id="Stroke-7" stroke="#FFDE00" stroke-width="4.48598131" stroke-linecap="round" stroke-linejoin="round"></path>
            </g>
        </g>
    </g>
</svg>