<?xml version="1.0" encoding="UTF-8"?>
<svg width="120px" height="120px" viewBox="0 0 120 120" version="1.1" xmlns="http://www.w3.org/2000/svg" xmlns:xlink="http://www.w3.org/1999/xlink">
    <!-- Generator: Sketch 51.1 (57501) - http://www.bohemiancoding.com/sketch -->
    <title>Muffin</title>
    <desc>Created with Sketch.</desc>
    <defs>
        <polygon id="path-1" points="0 0.00949142857 119.716762 0.00949142857 119.716762 40.2285714 0 40.2285714"></polygon>
        <polygon id="path-3" points="0.0694832484 0.252685714 117.707353 0.252685714 117.707353 55.9170022 0.0694832484 55.9170022"></polygon>
    </defs>
    <g id="Muffin" stroke="none" stroke-width="1" fill="none" fill-rule="evenodd">
        <g id="Page-1" transform="translate(0.000000, 27.000000)">
            <g id="Group-3" transform="translate(0.000000, 25.518743)">
                <mask id="mask-2" fill="white">
                    <use xlink:href="#path-1"></use>
                </mask>
                <g id="Clip-2"></g>
                <path d="M118.612888,4.75457714 C119.272418,13.6155486 110.301869,19.7438057 102.42636,24.7830629 C93.0463081,31.05872 80.77247,30.5099771 69.7638016,30.39872 C59.178423,30.2912343 47.340094,28.4724629 36.7804073,25.8167486 C25.3738277,23.1528629 12.6970653,20.4754629 4.31868407,11.4708629 C0.84275718,7.26477714 0.259362924,4.05623429 1.84975457,0.00949142857 C-1.42627676,6.37346286 -0.175832898,15.9189486 4.22061619,21.2394914 C12.5989974,30.2444057 25.2757598,32.9218057 36.6817128,35.5856914 C47.2420261,38.2414057 59.0800418,40.0601771 69.6654204,40.1673486 C80.6734621,40.2786057 92.9485535,40.8279771 102.327039,34.5516914 C111.535394,28.6594629 123.416961,16.7970629 118.612888,4.75457714" id="Fill-1" fill="#F89E34" mask="url(#mask-2)"></path>
            </g>
            <g id="Group-6" transform="translate(0.939948, 0.061600)">
                <mask id="mask-4" fill="white">
                    <use xlink:href="#path-3"></use>
                </mask>
                <g id="Clip-5"></g>
                <path d="M9.70593211,18.4269171 C9.80431332,18.4526886 9.91146736,18.4800314 10.0076554,18.5045457 C11.9624334,19.0014314 13.9168982,19.4986314 15.8719896,19.9955171 C15.8315718,20.0451743 15.7886475,20.09326 15.7491697,20.1432314 C14.4279164,21.7640029 13.1505274,23.4171457 11.8875509,25.0800314 C10.979248,24.9543171 10.068752,24.8389743 9.15073629,24.7456314 C8.12619321,24.6416029 7.06311227,24.4703171 5.98060574,24.2852029 C6.65674151,22.10186 8.03125849,20.1388314 9.70593211,18.4269171 M15.6658277,13.7481457 C16.181859,13.4225457 16.7057232,13.1167457 17.232094,12.8184886 C18.6551749,13.0051743 20.0801358,13.1855743 21.5060366,13.3603171 C19.9745483,15.1083743 18.4668721,16.8749743 16.9873943,18.66106 C15.917107,18.4159171 14.8471332,18.1701457 13.7765326,17.9234314 C12.8594569,17.7122314 11.9138695,17.4674029 10.9570026,17.2414314 C12.4765849,15.8900029 14.1293264,14.7177171 15.6658277,13.7481457 M25.0020157,9.45186 C24.1704752,10.3676886 23.3364282,11.2806886 22.517107,12.2065743 C21.3891697,12.0755171 20.2621723,11.9425743 19.1345483,11.81246 C21.0338695,10.87526 22.9952272,10.0980314 25.0020157,9.45186 M34.2144439,7.34174571 C37.6753316,6.81814571 41.1926162,6.66351714 44.6945483,6.44037429 C42.137577,8.88551714 39.5868721,11.3375743 37.0452533,13.79906 C34.2902663,13.5435457 31.5380992,13.2654029 28.7909452,12.9379171 C27.3772637,12.76946 25.9629556,12.6069743 24.5492742,12.4429171 C25.6671854,11.15246 26.802329,9.87363143 27.9456188,8.60171714 C30.0012846,8.07403143 32.0954883,7.66231714 34.2144439,7.34174571 M56.4344961,8.24311714 C54.0470287,10.3733457 51.6554883,12.4976029 49.3065587,14.6712029 C49.2429556,14.7293457 49.1802924,14.7893743 49.1173159,14.8481457 C45.7914674,14.5571171 42.4634256,14.2821171 39.1378903,13.9870029 C41.6484909,11.4771171 44.1697441,8.97791714 46.7041567,6.49066 C49.949483,7.05983143 53.1923029,7.65163143 56.4344961,8.24311714 M59.2712585,5.68608857 C58.9353838,5.99314571 58.5991958,6.30334571 58.2598747,6.60788857 C56.6723029,6.33037429 55.0853577,6.05003143 53.4984125,5.76937429 C55.421859,5.71343143 57.3462454,5.68263143 59.2712585,5.68608857 M64.7063499,9.73597429 C66.3822768,10.0323457 68.0603969,10.3089171 69.7394569,10.5773171 C67.7755927,12.52306 65.8139217,14.47006 63.8538172,16.4189457 C62.9950183,16.30486 62.1362193,16.18826 61.2739739,16.08266 C58.1126162,15.6957743 54.9437389,15.3796029 51.7723551,15.0888886 C54.0827467,12.9222029 56.429483,10.7998314 58.7665065,8.66708857 C60.7466632,9.02757429 62.7261932,9.38617429 64.7063499,9.73597429 M61.9607624,5.71091714 C65.2734517,5.76434571 68.5895875,5.90828857 71.9135561,6.15217429 C72.62353,6.20371714 73.3391436,6.25651714 74.0600836,6.31183143 C73.2432689,7.11640286 72.4258277,7.92097429 71.6096397,8.72711714 C69.0965326,8.36631714 66.5837389,7.99294571 64.0756449,7.58971714 C62.9085431,7.40146 61.7411279,7.20754571 60.5749661,7.00828857 C61.0405535,6.58023143 61.4967415,6.14211714 61.9607624,5.71091714 M79.6978903,6.80306 C83.4156971,7.17926 87.1886475,7.69060286 90.8701097,8.48228857 C90.5054099,8.84686 90.14353,9.21551714 89.7722507,9.57348857 C89.2512063,10.0754029 88.7242089,10.56946 88.2009713,11.0679171 C83.3207624,10.3463171 78.4330339,9.69166 73.5474987,9.00243143 C74.3649399,8.15543143 75.186141,7.31157429 76.0048355,6.46677429 C77.2267676,6.56734571 78.4590392,6.67797429 79.6978903,6.80306 M98.0509974,10.4808314 C98.8878642,10.8922314 99.7162715,11.3155743 100.52494,11.7643743 C100.166193,12.1038029 99.8036867,12.4407171 99.4468198,12.78266 C97.1135561,12.4630314 94.7874987,12.0862029 92.4677076,11.7191171 C91.7527206,11.60566 91.037107,11.4981743 90.3211802,11.3888029 C91.1455144,10.5817171 91.9466632,9.75137429 92.7409191,8.91348857 C94.5456188,9.35537429 96.3221201,9.86923143 98.0509974,10.4808314 M105.642016,15.7102314 C107.244627,17.2687743 108.728804,18.9278886 109.945723,20.7353457 C109.615488,21.14486 109.285253,21.5559457 108.951572,21.9642029 C107.953034,21.7379171 106.95199,21.5286029 105.945619,21.3705171 C102.263217,20.7922314 98.5454099,20.47606 94.8260366,20.2108029 C96.4740783,18.49386 98.1384125,16.7938886 99.8193525,15.11026 C101.754392,15.3594886 103.69695,15.5571743 105.642016,15.7102314 M111.806507,35.0586029 C108.3193,34.5601457 104.855593,33.9274886 101.384366,33.33286 C103.560658,30.9339171 105.681493,28.47746 107.766924,25.9480886 C108.180501,25.4455457 108.583426,24.9345171 108.98917,24.4253743 C110.06259,24.6551171 111.128178,24.8974314 112.192825,25.1331457 C112.736115,26.6803743 113.06541,28.3316314 113.113661,30.1073457 C113.162851,31.9254886 112.665619,33.5717171 111.806507,35.0586029 M100.154601,43.7709171 C97.7608668,43.5295457 95.3555405,43.3878029 92.9812324,43.2224886 C92.5820679,43.1945171 92.1825901,43.1552314 91.7821723,43.1212886 C94.5431123,40.5306314 97.1793525,37.8739743 99.7275509,35.1387457 C103.312825,35.6994314 106.905932,36.3245457 110.507499,36.8912029 C107.890997,39.9756029 103.747708,42.2343743 100.154601,43.7709171 M87.5846789,47.3559743 C88.386141,46.49546 89.1988825,45.64406 90.0366893,44.8130886 C90.6113107,44.8932314 91.1849922,44.9853171 91.7618068,45.05666 C93.0366893,45.2147457 94.307812,45.3439171 95.5767415,45.4696314 C92.9527206,46.2914886 90.2901619,46.87166 87.5846789,47.3559743 M84.3026945,47.9094314 C81.8321984,48.3057457 79.3610757,48.6850886 76.8855666,49.0314314 C74.7333995,48.3858886 72.5665065,47.7827743 70.3899008,47.2079457 C72.0266632,45.4963457 73.6405535,43.7655743 75.234705,42.0181457 C79.3100052,42.9572314 83.4059843,43.8020314 87.5408146,44.4573171 C86.4401358,45.5884314 85.3648355,46.7431171 84.3026945,47.9094314 M67.5434256,50.1336314 C67.9034256,49.7693743 68.2671854,49.4073171 68.6253055,49.04086 C69.50447,49.2737457 70.3826945,49.5100886 71.2606057,49.74926 C70.0230078,49.8903743 68.7841567,50.0192314 67.5434256,50.1336314 M65.5413368,49.0889457 C65.1083342,49.52266 64.6621723,49.9522886 64.2216501,50.3831743 C60.0160104,50.56326 55.8683342,50.11666 51.7391436,49.4965743 C52.0765849,49.1489743 52.4127728,48.8004314 52.7539739,48.4581743 C53.7227467,47.48326 54.6990392,46.5140029 55.6731384,45.5434886 C59.1697441,46.5542314 62.6926684,47.47886 66.2155927,48.4038029 C65.9903185,48.6310314 65.7681775,48.8617171 65.5413368,49.0889457 M49.2307363,49.10246 C47.4398225,48.8108029 45.6492219,48.5056314 43.8583081,48.2230886 C41.832094,47.5288314 39.804,46.84306 37.7643133,46.1931171 C39.2422245,44.6480886 40.7166893,43.1002314 42.1899008,41.5514314 C45.9791436,42.6570886 49.7420679,43.7866314 53.4689608,44.9001457 C52.7593003,45.60446 52.0465065,46.3053171 51.3399791,47.0112029 C50.645671,47.7045171 49.9378903,48.4031743 49.2307363,49.10246 M34.9645222,45.3143743 C32.0885953,44.4243171 29.1869765,43.5622314 26.2709452,42.7472886 C27.5959582,41.2459457 28.9143916,39.7386314 30.2293786,38.2272314 C33.2973681,39.0274029 36.3512585,39.8709457 39.3897963,40.7412029 C37.9021723,42.2532314 36.4255144,43.7768886 34.9645222,45.3143743 M14.6096397,39.7999171 C14.7330862,39.6641457 14.8546527,39.52806 14.9774726,39.3926029 C16.1646266,38.0842314 17.3464543,36.7702029 18.5279687,35.4590029 C21.5796658,36.09606 24.6225901,36.8085457 27.6545483,37.5697457 C26.3987781,39.0717171 25.1611802,40.5846886 23.9389347,42.1092886 C22.7010235,41.7752029 21.4609191,41.4580886 20.219248,41.1444314 C19.0242611,40.84586 17.8289608,40.5570314 16.6339739,40.2766886 C15.9584648,40.1192314 15.2838956,39.9492029 14.6096397,39.7999171 M7.82791645,33.7580886 C7.87178068,33.7021457 7.91627154,33.6468314 7.95950914,33.59026 C10.6978903,33.98186 13.4318851,34.4545457 16.1596136,34.9875743 C15.1595091,36.1064314 14.178517,37.2388029 13.2109974,38.3790314 C11.1515718,37.1074314 9.23470496,35.5963457 7.82791645,33.7580886 M21.9763238,28.7298314 C20.4022245,30.3638029 18.8506841,32.0197743 17.3267154,33.6955457 C14.5172115,33.1713171 11.7026945,32.7306886 8.87439164,32.4006886 C10.3106319,30.5231457 11.7249399,28.6302029 13.1414413,26.7356886 C16.1226423,27.2288029 19.0587258,27.9365743 21.9763238,28.7298314 M35.2753316,15.50406 C33.2967415,17.4296886 31.2980992,19.3735457 29.3032167,21.34066 C25.8517285,20.6533171 22.4177859,19.8968314 18.9872898,19.1167743 C20.4730339,17.2593457 21.9951227,15.4236029 23.5476031,13.6089171 C25.710423,13.8682029 27.8735561,14.12466 30.0338695,14.3880314 C31.9463499,14.62186 33.8650966,14.8226886 35.7847833,15.0140886 C35.6155927,15.1775171 35.4451488,15.3406314 35.2753316,15.50406 M40.3065587,23.4822029 C37.3476031,22.9133457 34.3902141,22.3404029 31.4359582,21.7621171 C33.0937128,20.0634029 34.7561671,18.3697171 36.4286475,16.6848314 C36.9149138,16.1942314 37.4086997,15.7114886 37.896846,15.2227743 C41.1882298,15.5317171 44.484,15.8101743 47.777577,16.1056029 C45.2434778,18.4954314 42.750423,20.9562886 40.3065587,23.4822029 M54.2065065,26.0213171 C54.1858277,26.0417457 54.1642089,26.0634314 54.1432167,26.08386 C50.3940783,25.3980886 46.6477598,24.6928314 42.9042611,23.9781457 C45.1679687,21.5581457 47.4802402,19.1827743 49.8758538,16.8825171 C50.0619634,16.7033743 50.2524595,16.5273743 50.4401358,16.3491743 C54.3872898,16.7212886 58.3278642,17.1446314 62.2474465,17.7156886 C62.3354883,17.7279457 62.4222768,17.74366 62.5103185,17.7562314 C59.7415457,20.5122029 56.975906,23.2688029 54.2065065,26.0213171 M78.3149138,20.4251457 C75.4709452,23.12046 72.6426423,25.8343171 69.8867154,28.6236029 C69.8372115,28.6742029 69.786141,28.7244886 69.7360104,28.7747743 C67.6725117,28.4551457 65.6105796,28.1248314 63.5502141,27.7671743 C61.236376,27.3645743 58.9250444,26.9490886 56.6127728,26.5307743 C59.3405013,23.7333171 62.0591436,20.92266 64.7733995,18.10666 C69.312094,18.8270029 73.8050444,19.6661457 78.3149138,20.4251457 M86.1371593,13.0306314 C84.1200313,14.9402314 82.0969504,16.8451171 80.0757493,18.7503171 C75.4151749,18.1170314 70.7746527,17.3809743 66.1037389,16.7247457 C67.9761149,14.7808886 69.8484909,12.8367171 71.7227467,10.8941171 C76.5233734,11.6405457 81.3330862,12.31406 86.1371593,13.0306314 M96.8343916,32.5990029 C92.8931906,32.0178886 88.9510496,31.4829743 85.0089086,30.9483743 C87.552094,28.0091743 90.1638956,25.1303171 92.8289608,22.3017457 C97.3610757,22.7210029 101.888491,23.1924314 106.383008,23.92566 C106.660606,23.9712314 106.93695,24.02026 107.212355,24.0702314 C104.632512,27.1502314 101.962747,30.1013743 99.2049399,32.9686029 C98.4166371,32.8397457 97.6255144,32.7149743 96.8343916,32.5990029 M83.3314151,32.8784029 C88.0314674,33.4969171 92.7343394,34.0968886 97.4296919,34.7917743 C95.3160627,36.9345743 93.1510496,39.0358886 90.935906,41.1130029 C90.3258799,41.6843743 89.7258799,42.2642314 89.1321462,42.85006 C84.9205535,42.3468886 80.7261932,41.5284886 76.5543916,40.5617457 C78.839718,38.0292314 81.0921462,35.4659171 83.3314151,32.8784029 M72.1429034,29.1453171 C74.9345483,26.3337171 77.7587781,23.5576314 80.6014935,20.8007171 C83.8026423,21.3117457 87.0210235,21.7577171 90.2782559,22.0616314 C87.8629034,24.6287171 85.4939217,27.2407457 83.1669243,29.88986 C82.9541828,30.1299743 82.7426945,30.3704029 82.5315196,30.6111457 C79.0665587,30.1400314 75.6022245,29.6616886 72.1429034,29.1453171 M63.9305796,37.3506886 C66.0586214,35.2415171 68.1813368,33.1266886 70.290893,30.99866 C73.7978381,31.5747457 77.3123029,32.07226 80.8295875,32.5443171 C78.6241567,35.0472886 76.4130862,37.5342314 74.1722507,39.99446 C70.7408146,39.1568886 67.3247311,38.2457743 63.9305796,37.3506886 M62.4147572,38.8539171 C65.8859843,39.7389457 69.3559582,40.6198886 72.8365849,41.4518029 C71.2449399,43.18006 69.6360627,44.89386 67.9983603,46.5862886 C64.4600836,45.6729743 60.9114674,44.78826 57.3885431,43.83126 C59.0619634,42.1699457 60.7394569,40.5124029 62.4147572,38.8539171 M48.0655144,35.38766 C51.9092742,36.2730029 55.7549138,37.1655743 59.592094,38.1367171 C59.7854099,38.1851171 59.9777859,38.2347743 60.1714151,38.2838029 C58.5033211,39.9246886 56.8367937,41.5671457 55.1721462,43.2111743 C54.6254099,43.0562314 54.0758538,42.9066314 53.5309974,42.7463457 C50.2593525,41.7833743 46.967342,40.8804314 43.6681253,39.9994886 C45.1319373,38.4601171 46.5985692,36.92326 48.0655144,35.38766 M35.3339217,32.3764886 C38.6676031,33.20966 42.0119373,33.9897171 45.3584648,34.7625457 C43.854235,36.2519457 42.3528251,37.7473171 40.8586214,39.2524314 C37.715436,38.4334029 34.566611,37.6385743 31.4130862,36.8676314 C32.7174204,35.3684886 34.0230078,33.86966 35.3339217,32.3764886 M26.8878642,30.1167743 C28.8219634,30.6762029 30.762329,31.1954029 32.7045744,31.7001457 C31.3798747,33.1961457 30.0699008,34.7066029 28.7790392,36.2312029 C27.6695875,35.96406 26.5601358,35.6915743 25.4513107,35.4285171 C23.5347572,34.9728029 21.6200836,34.5475743 19.7038433,34.1581743 C20.3702663,33.4243171 21.0373159,32.6929743 21.708752,31.9672886 C22.5243133,31.0857171 23.3477076,30.2129457 24.1704752,29.3386029 C25.0765849,29.5956886 25.9823812,29.8549743 26.8878642,30.1167743 M33.8895352,30.3710314 C31.0571593,29.60826 28.236376,28.7974029 25.4118329,28.0151457 C26.9029034,26.4415171 28.4061932,24.8801457 29.9157493,23.3234886 C31.3570026,23.6274029 32.8004491,23.9203171 34.2507885,24.1972029 C35.7625379,24.4863457 37.2746005,24.7795743 38.7866632,25.0702886 C37.1320418,26.8117457 35.4984125,28.5783457 33.8895352,30.3710314 M55.0001358,28.1911457 C58.872094,28.9303457 62.7449922,29.6623171 66.62353,30.36726 C67.0562193,30.4461457 67.4901619,30.5152886 67.9231645,30.5910314 C65.8606057,32.6590314 63.7880209,34.7179171 61.7076031,36.7676886 C60.3825901,36.4232314 59.0600836,36.0831743 57.7429034,35.7566314 C55.0020157,35.07746 52.2489086,34.4765457 49.4923551,33.8970029 C51.3224334,31.9870886 53.1572115,30.0831457 55.0001358,28.1911457 M46.7994047,33.3375743 C44.9129295,32.9472314 43.0258277,32.5581457 41.1399791,32.1530314 C39.5843655,31.8189457 38.0378381,31.4477743 36.4953838,31.0552314 C38.1205535,29.2138314 39.7588825,27.3850029 41.4216501,25.5775457 C45.1134517,26.2909743 48.8055666,27.0044029 52.4979948,27.7128029 C50.6068198,29.5850029 48.7034256,31.4578314 46.7994047,33.3375743 M92.2070287,20.0291457 C92.0798225,20.02066 91.9519896,20.0115457 91.8232167,20.0033743 C88.6606057,19.7877743 85.5296397,19.4467743 82.410893,19.0514029 C84.3722507,17.1546886 86.3345483,15.2573457 88.2946527,13.3584314 C89.8684386,13.5982314 91.440658,13.84306 93.0119373,14.10046 C94.4660366,14.3386886 95.9285953,14.5662314 97.3952272,14.77806 C95.6409713,16.5031743 93.912094,18.2537457 92.2070287,20.0291457 M17.8847311,20.5074886 C21.1739217,21.3431743 24.4659321,22.1266886 27.7720418,22.8539457 C26.2537128,24.3622029 24.7425901,25.8855457 23.2430601,27.4249171 C20.2167415,26.6181457 17.1923029,25.9355171 14.1265065,25.4222886 C14.9238956,24.3593743 15.7237911,23.2974029 16.5337128,22.2407743 C16.979248,21.65966 17.4319896,21.0838886 17.8847311,20.5074886 M5.52316449,27.1584029 C5.52473107,26.7143171 5.56577546,26.2799743 5.62624543,25.85066 C7.15397389,26.0445743 8.69517493,26.1508029 10.2232167,26.3208314 C10.4444178,26.3453457 10.662799,26.3805457 10.8833734,26.4078886 C9.48567102,28.2628029 8.09360836,30.12086 6.68086684,31.9638314 C5.9502141,30.5429457 5.5212846,28.9517171 5.52316449,27.1584029 M3.37883029,36.9279743 C11.7568982,45.9325743 24.4339739,48.6099743 35.8405535,51.27386 C46.3999269,53.9295743 58.2382559,55.7483457 68.8239478,55.8558314 C79.8323029,55.9670886 92.1064543,56.5158314 101.486507,50.2401743 C109.361702,45.2009171 118.332564,39.07266 117.673034,30.2116886 C117.511363,28.0437457 116.782277,25.7145743 115.308125,23.1949457 C111.981337,17.2153457 108.230632,11.2304029 102.33246,8.19691714 C96.0113107,5.15934571 89.249953,3.81671714 82.4879687,2.47346 C71.0776292,0.234488571 58.8025379,-0.314254286 46.9341305,0.839488571 C46.920658,0.840745714 46.9056188,0.842002857 46.8927728,0.842945714 C45.0912063,0.884431429 43.2749138,0.995688571 41.4250966,1.20908857 C39.3684909,1.44574571 37.3278642,1.79177429 35.3063499,2.23020286 C28.5474987,3.35566 21.5417546,5.23571714 16.7912585,8.60454571 L17.939248,8.51811714 C16.1050966,9.45311714 14.2994569,10.4588314 12.5276554,11.5346314 C8.6904752,14.0445171 5.2734517,16.9830886 3.11376501,21.2096029 C2.1653577,22.7587171 1.4256188,24.1560314 0.909900783,25.4666029 C-0.680490862,29.5133457 -0.0974099217,32.7218886 3.37883029,36.9279743" id="Fill-4" fill="#FDC46F" mask="url(#mask-4)"></path>
            </g>
            <path d="M24.8789452,42.1707314 C26.1008773,40.6461314 27.3387885,39.13316 28.5945587,37.6315029 C25.5626005,36.8703029 22.5196762,36.1575029 19.4679791,35.52076 C18.2864648,36.83196 17.1046371,38.1456743 15.917483,39.4540457 C15.7943499,39.5895029 15.6730966,39.7259029 15.5496501,39.86136 C16.223906,40.01096 16.8984752,40.1809886 17.5739843,40.3384457 C18.7689713,40.6187886 19.9642715,40.9073029 21.1589452,41.2061886 C22.4006162,41.5198457 23.6410339,41.83696 24.8789452,42.1707314" id="Fill-7" fill="#FAAF4C"></path>
            <path d="M72.5496188,8.78862286 C73.3654935,7.98279429 74.183248,7.17790857 75.0000627,6.37333714 C74.2791227,6.31833714 73.5631958,6.26553714 72.8535352,6.21399429 C69.5295666,5.96979429 66.2131175,5.82585143 62.9007415,5.77242286 C62.4367206,6.20362286 61.9805326,6.64173714 61.5149452,7.06979429 C62.681107,7.26905143 63.8485222,7.46296571 65.015624,7.65122286 C67.523718,8.05445143 70.0365117,8.42813714 72.5496188,8.78862286" id="Fill-9" fill="#FAAF4C"></path>
            <path d="M24.4876136,13.6704857 C22.9348198,15.4851714 21.4130444,17.3209143 19.9273003,19.1783429 C23.3577963,19.9584 26.7917389,20.7148857 30.2432272,21.4022286 C32.2381097,19.4351143 34.236752,17.4912571 36.215342,15.5656286 C36.3851593,15.4022 36.5556031,15.2390857 36.7247937,15.0756571 C34.805107,14.8842571 32.8863603,14.6834286 30.9738799,14.4496 C28.8135666,14.1862286 26.6501201,13.9297714 24.4876136,13.6704857" id="Fill-11" fill="#FAAF4C"></path>
            <path d="M81.7695039,32.6058857 C78.2522193,32.1338286 74.7377546,31.6363143 71.2308094,31.0602286 C69.1212533,33.1885714 66.9985379,35.3030857 64.8704961,37.4122571 C68.2646475,38.3073429 71.6807311,39.2184571 75.1121671,40.0560286 C77.3530026,37.5958 79.5640731,35.1088571 81.7695039,32.6058857" id="Fill-13" fill="#FAAF4C"></path>
            <path d="M30.8556658,23.38512 C29.3461097,24.9417771 27.8428198,26.5031486 26.3517493,28.0767771 C29.1762924,28.8590343 31.9970757,29.6698914 34.8294517,30.4326629 C36.438329,28.6399771 38.0719582,26.8733771 39.7265796,25.13192 C38.214517,24.8412057 36.7024543,24.5479771 35.190705,24.2588343 C33.7403655,23.9816343 32.2969191,23.6890343 30.8556658,23.38512" id="Fill-15" fill="#FAAF4C"></path>
            <path d="M24.1828512,27.4864857 C25.6826945,25.9474286 27.1938172,24.4237714 28.7121462,22.9155143 C25.4057232,22.1885714 22.1137128,21.4047429 18.8245222,20.5690571 C18.3717807,21.1454571 17.9190392,21.7212286 17.4738172,22.3023429 C16.6635822,23.3589714 15.864,24.4209429 15.0662977,25.4838571 C18.132094,25.9970857 21.156846,26.6800286 24.1828512,27.4864857" id="Fill-17" fill="#FAAF4C"></path>
            <path d="M37.4353003,31.1167371 C38.9777546,31.50928 40.524282,31.8807657 42.0798956,32.2145371 C43.9657441,32.6196514 45.852846,33.0090514 47.7393211,33.3993943 C49.643342,31.5193371 51.5467363,29.6465086 53.4379112,27.7743086 C49.745483,27.0659086 46.0533681,26.3527943 42.3615666,25.6390514 C40.698799,27.4465086 39.06047,29.2756514 37.4353003,31.1167371" id="Fill-19" fill="#FAAF4C"></path>
            <path d="M29.7307676,12.9995486 C32.4779217,13.3270343 35.2300888,13.6051771 37.9850757,13.8606914 C40.5270078,11.3992057 43.0773995,8.94683429 45.6343708,6.50200571 C42.132752,6.72514857 38.615154,6.87977714 35.1542663,7.40337714 C33.0353107,7.72394857 30.9414204,8.13534857 28.8857546,8.66334857 C27.7421514,9.93526286 26.6073211,11.2137771 25.4890966,12.5045486 C26.9030914,12.6686057 28.3170862,12.8310914 29.7307676,12.9995486" id="Fill-21" fill="#FAAF4C"></path>
            <path d="M52.7122089,15.1504571 C55.8835927,15.4411714 59.05247,15.7573429 62.2138277,16.1442286 C63.0760731,16.2498286 63.9348721,16.3664286 64.7939843,16.4805143 C66.7537755,14.5316286 68.7154465,12.5846286 70.679624,10.6392 C69.0002507,10.3704857 67.3221305,10.0939143 65.6462037,9.79754286 C63.666047,9.44774286 61.6868303,9.08914286 59.7063603,8.72865714 C57.3693368,10.8617143 55.0226005,12.9837714 52.7122089,15.1504571" id="Fill-23" fill="#FAAF4C"></path>
            <path d="M84.1068094,29.9513343 C86.4338068,27.30222 88.8027885,24.6905057 91.218141,22.12342 C87.9609086,21.8191914 84.7425274,21.37322 81.5413786,20.8621914 C78.6986632,23.61942 75.8747467,26.3955057 73.0827885,29.2067914 C76.5421097,29.7231629 80.0064439,30.2015057 83.4714047,30.67262 C83.6825796,30.4318771 83.8940679,30.1917629 84.1068094,29.9513343" id="Fill-25" fill="#FAAF4C"></path>
            <path d="M81.0155718,18.8120114 C83.0367728,16.9068114 85.0598538,15.0019257 87.077295,13.0923257 C82.2732219,12.3757543 77.4631958,11.70224 72.6625692,10.9558114 C70.7883133,12.8984114 68.9162507,14.8425829 67.0435614,16.78644 C71.7144752,17.4426686 76.3549974,18.1784114 81.0155718,18.8120114" id="Fill-27" fill="#FAAF4C"></path>
            <path d="M25.9420574,9.51355429 C23.9349556,10.1597257 21.9735979,10.93664 20.0745901,11.8741543 C21.2022141,12.0042686 22.3292115,12.1372114 23.4571488,12.2682686 C24.27647,11.3420686 25.110517,10.4293829 25.9420574,9.51355429" id="Fill-29" fill="#FAAF4C"></path>
            <path d="M93.4077807,11.78078 C95.7272585,12.1478657 98.0533159,12.5246943 100.38658,12.8443229 C100.74376,12.50238 101.105953,12.1654657 101.465013,11.8260371 C100.656345,11.3772371 99.827624,10.9538943 98.9907572,10.5424943 C97.2621932,9.93058 95.4856919,9.41703714 93.6806789,8.97515143 C92.8867363,9.81272286 92.0852742,10.64338 91.2609399,11.4504657 C91.9771802,11.5598371 92.6927937,11.6673229 93.4077807,11.78078" id="Fill-31" fill="#FAAF4C"></path>
            <path d="M60.2112689,5.74765714 C58.2859426,5.7442 56.3618695,5.775 54.438423,5.83094286 C56.0253681,6.1116 57.6123133,6.39194286 59.1995718,6.66945714 C59.538893,6.36491429 59.8753943,6.05502857 60.2112689,5.74765714" id="Fill-33" fill="#FAAF4C"></path>
            <path d="M8.89951958,33.6518914 C8.85596867,33.7084629 8.81179112,33.7634629 8.76792689,33.81972 C10.1744021,35.6579771 12.0915822,37.1690629 14.1506945,38.4406629 C15.1185274,37.3004343 16.0992063,36.1680629 17.0993107,35.0492057 C14.3715822,34.5161771 11.6379008,34.0434914 8.89951958,33.6518914" id="Fill-35" fill="#FAAF4C"></path>
            <path d="M53.693765,48.51968 C53.352564,48.8619371 53.0166893,49.21048 52.679248,49.5583943 C56.8081253,50.1781657 60.9561149,50.6247657 65.1617546,50.44468 C65.6022768,50.0137943 66.0484386,49.58448 66.4811279,49.1504514 C66.7079687,48.9232229 66.9301097,48.6928514 67.1556971,48.4653086 C63.6327728,47.54068 60.1098486,46.6157371 56.6129295,45.6053086 C55.6388303,46.5755086 54.6628512,47.5447657 53.693765,48.51968" id="Fill-37" fill="#FAAF4C"></path>
            <path d="M89.2346319,13.4200314 C87.2745274,15.3189457 85.3119164,17.2162886 83.3508721,19.1130029 C86.4696188,19.5083743 89.6005849,19.8493743 92.7631958,20.0649743 C92.8919687,20.0731457 93.0198016,20.08226 93.1470078,20.0907457 C94.8520731,18.3153457 96.5809504,16.5647743 98.3352063,14.83966 C96.8685744,14.6278314 95.4060157,14.4002886 93.9519164,14.16206 C92.3806371,13.90466 90.8081044,13.6598314 89.2346319,13.4200314" id="Fill-39" fill="#FAAF4C"></path>
            <path d="M37.3685953,16.7464314 C35.6961149,18.4313171 34.0336606,20.1250029 32.3755927,21.8237171 C35.3301619,22.4020029 38.2875509,22.9749457 41.2465065,23.5438029 C43.6903708,21.0178886 46.1834256,18.5570314 48.7175248,16.1672029 C45.4239478,15.8717743 42.1281775,15.5933171 38.8367937,15.2843743 C38.3486475,15.7730886 37.8548616,16.2558314 37.3685953,16.7464314" id="Fill-41" fill="#FAAF4C"></path>
            <path d="M17.927248,18.7226914 C19.4070392,16.9362914 20.9147154,15.1700057 22.4458903,13.4219486 C21.0203029,13.2472057 19.595342,13.0668057 18.1719478,12.88012 C17.6458903,13.1780629 17.1220261,13.4841771 16.6056815,13.8097771 C15.0691802,14.7793486 13.416752,15.9516343 11.8968564,17.3027486 C12.8540366,17.5290343 13.799624,17.7735486 14.7163864,17.9850629 C15.7869869,18.2317771 16.8569608,18.4775486 17.927248,18.7226914" id="Fill-43" fill="#FAAF4C"></path>
            <path d="M57.5526893,26.5924057 C59.8649608,27.01072 62.1762924,27.4262057 64.4901305,27.8288057 C66.5504961,28.1864629 68.6124282,28.5167771 70.6759269,28.8364057 C70.7260574,28.7858057 70.7771279,28.7358343 70.8266319,28.6852343 C73.5825587,25.8959486 76.4108616,23.1817771 79.2548303,20.4867771 C74.7449608,19.7277771 70.2520104,18.8886343 65.7133159,18.1682914 C62.9990601,20.9842914 60.2804178,23.7949486 57.5526893,26.5924057" id="Fill-45" fill="#FAAF4C"></path>
            <path d="M40.0776815,14.0486029 C43.4032167,14.3437171 46.7312585,14.6184029 50.0574204,14.9097457 C50.1203969,14.8509743 50.1830601,14.7909457 50.2463499,14.7328029 C52.5952794,12.5592029 54.9871332,10.4349457 57.3742872,8.30471714 C54.132094,7.71323143 50.8895875,7.12143143 47.6439478,6.55194571 C45.1098486,9.03951714 42.5885953,11.5387171 40.0776815,14.0486029" id="Fill-47" fill="#FAAF4C"></path>
            <path d="M51.3799896,16.41068 C51.1923133,16.58888 51.0018172,16.76488 50.8157076,16.9440229 C48.4204073,19.2445943 46.1078225,21.6196514 43.8441149,24.0396514 C47.5876136,24.7543371 51.3342454,25.4595943 55.0830705,26.14568 C55.1040627,26.1249371 55.1256815,26.1035657 55.1463603,26.0828229 C57.9157598,23.3306229 60.6813995,20.5737086 63.4501723,17.8180514 C63.3621305,17.8051657 63.275342,17.7897657 63.1876136,17.7775086 C59.267718,17.2061371 55.3274569,16.7831086 51.3799896,16.41068" id="Fill-49" fill="#FAAF4C"></path>
            <path d="M62.6474256,36.8294143 C64.7281567,34.7796429 66.8004282,32.7207571 68.8629869,30.6527571 C68.4299843,30.5767 67.9960418,30.5078714 67.5633525,30.4289857 C63.6851279,29.7240429 59.8119164,28.9920714 55.9402715,28.2528714 C54.0970339,30.1445571 52.2622559,32.0485 50.4324909,33.9584143 C53.1890444,34.5382714 55.9421514,35.1388714 58.6830392,35.8180429 C60.0002193,36.1445857 61.3224125,36.4846429 62.6474256,36.8294143" id="Fill-51" fill="#FAAF4C"></path>
            <path d="M43.1297546,41.6130629 C41.6565431,43.1618629 40.1820783,44.70972 38.7041671,46.2547486 C40.7441671,46.9046914 42.7719478,47.5904629 44.7981619,48.28472 C46.5890757,48.5672629 48.3796762,48.8724343 50.1709034,49.1637771 C50.8777441,48.4648057 51.5855248,47.7661486 52.2798329,47.0728343 C52.9863603,46.3669486 53.699154,45.6660914 54.4088146,44.9617771 C50.6819217,43.8482629 46.9193107,42.71872 43.1297546,41.6130629" id="Fill-53" fill="#FAAF4C"></path>
            <path d="M108.152303,24.1318314 C107.876898,24.08186 107.600554,24.0328314 107.322956,23.98726 C102.828439,23.2540314 98.3010235,22.7826029 93.7689086,22.3633457 C91.1038433,25.1919171 88.4920418,28.0707743 85.9488564,31.0099743 C89.8909974,31.5445743 93.8331384,32.0794886 97.7743394,32.6606029 C98.5654621,32.7765743 99.3565849,32.9013457 100.144888,33.0298886 C102.902695,30.1629743 105.57246,27.2118314 108.152303,24.1318314" id="Fill-55" fill="#FAAF4C"></path>
            <path d="M95.7659217,20.27234 C99.485295,20.5375971 103.203102,20.8540829 106.885504,21.4320543 C107.891875,21.59014 108.892919,21.7994543 109.891457,22.02574 C110.225138,21.6174829 110.555373,21.2067114 110.885608,20.7968829 C109.668689,18.9894257 108.184512,17.3306257 106.581901,15.7720829 C104.636836,15.6187114 102.694277,15.4210257 100.759551,15.1717971 C99.0782977,16.8554257 97.4139634,18.5553971 95.7659217,20.27234" id="Fill-57" fill="#FAAF4C"></path>
            <path d="M6.92064752,24.3466771 C8.00315405,24.5321057 9.06592167,24.7033914 10.0907781,24.80742 C11.0087937,24.9007629 11.9192898,25.0157914 12.8275927,25.1415057 C14.0902559,23.47862 15.3676449,21.8257914 16.6892115,20.2047057 C16.7286893,20.1547343 16.7716136,20.1069629 16.8120313,20.0573057 C14.8569399,19.56042 12.9024752,19.0629057 10.9476971,18.56602 C10.8511958,18.5415057 10.7443551,18.5141629 10.6459739,18.4883914 C8.97098695,20.20062 7.59678329,22.1636486 6.92064752,24.3466771" id="Fill-59" fill="#FAAF4C"></path>
            <path d="M68.483248,50.1951686 C69.7239791,50.0807686 70.9628303,49.9522257 72.2004282,49.8107971 C71.3228303,49.57194 70.4446057,49.3355971 69.5651279,49.1023971 C69.2073211,49.4688543 68.843248,49.8309114 68.483248,50.1951686" id="Fill-61" fill="#FAAF4C"></path>
            <path d="M113.132616,25.1947143 C112.068282,24.959 111.002381,24.7166857 109.928961,24.4869429 C109.523217,24.9960857 109.120292,25.5071143 108.706715,26.0096571 C106.621598,28.5390286 104.500449,30.9954857 102.32447,33.3944286 C105.795384,33.9890571 109.259405,34.6217143 112.746611,35.1201714 C113.605723,33.6336 114.102956,31.9870571 114.053452,30.1689143 C114.005201,28.3932 113.675906,26.7419429 113.132616,25.1947143" id="Fill-63" fill="#FAAF4C"></path>
            <path d="M90.9765117,44.8746886 C90.138705,45.70566 89.3259634,46.55706 88.5248146,47.4175743 C91.2302977,46.93326 93.8928564,46.3530886 96.5168773,45.5312314 C95.2479478,45.4052029 93.9765117,45.2763457 92.7016292,45.11826 C92.1248146,45.0469171 91.5511332,44.9548314 90.9765117,44.8746886" id="Fill-65" fill="#FAAF4C"></path>
            <path d="M89.1409817,11.1294857 C89.6642193,10.6310286 90.1912167,10.1369714 90.7122611,9.63505714 C91.0835405,9.27708571 91.445107,8.90842857 91.8101201,8.54385714 C88.128658,7.75217143 84.3557076,7.24082857 80.6375875,6.86462857 C79.3990496,6.73954286 78.1667781,6.62891429 76.9445326,6.52834286 C76.1261514,7.37314286 75.3049504,8.217 74.4871958,9.064 C79.3727311,9.75322857 84.2607728,10.4078857 89.1409817,11.1294857" id="Fill-67" fill="#FAAF4C"></path>
            <path d="M22.6485744,32.0288886 C21.9771384,32.7545743 21.3100888,33.4859171 20.6439791,34.2197743 C22.559906,34.6091743 24.4745796,35.0344029 26.3914465,35.4901171 C27.5002715,35.7531743 28.6094099,36.02566 29.7188616,36.2928029 C31.0100366,34.7682029 32.3196971,33.2577457 33.6447102,31.7617457 C31.7021514,31.2570029 29.7617859,30.7378029 27.828,30.1783743 C26.922517,29.9165743 26.0164073,29.6572886 25.1102977,29.4002029 C24.28753,30.2745457 23.4641358,31.1473171 22.6485744,32.0288886" id="Fill-69" fill="#FAAF4C"></path>
            <path d="M31.169295,38.2888314 C29.8543081,39.8002314 28.5358747,41.3075457 27.2108616,42.8088886 C30.126893,43.6238314 33.0285117,44.4859171 35.9044386,45.3759743 C37.3654308,43.8384886 38.8420888,42.3148314 40.3297128,40.8028029 C37.2911749,39.9325457 34.2372846,39.0890029 31.169295,38.2888314" id="Fill-71" fill="#FAAF4C"></path>
            <path d="M9.81424543,32.4622571 C12.6425483,32.7922571 15.4570653,33.2328857 18.2665692,33.7571143 C19.7908512,32.0813429 21.3420783,30.4256857 22.9161775,28.7914 C19.9985796,27.9981429 17.0624961,27.2903714 14.081295,26.7972571 C12.665107,28.6917714 11.2504856,30.5847143 9.81424543,32.4622571" id="Fill-73" fill="#FAAF4C"></path>
            <path d="M46.2984125,34.82402 C42.9518851,34.0511914 39.6075509,33.2714486 36.2738695,32.4379629 C34.9629556,33.9311343 33.6573681,35.4302771 32.3530339,36.9291057 C35.5065587,37.7000486 38.6553838,38.4951914 41.7985692,39.3139057 C43.2927728,37.8087914 44.7941828,36.31342 46.2984125,34.82402" id="Fill-75" fill="#FAAF4C"></path>
            <path d="M11.1631018,26.3824943 C9.63537337,26.2124657 8.09417232,26.1062371 6.56613055,25.9123229 C6.50566057,26.3416371 6.46461619,26.77598 6.46336292,27.2200657 C6.46116971,29.01338 6.89009922,30.6046086 7.62075196,32.0254943 C9.03349347,30.1825229 10.4255561,28.3244657 11.8232585,26.4692371 C11.6026841,26.4418943 11.3846162,26.4070086 11.1631018,26.3824943" id="Fill-77" fill="#FAAF4C"></path>
            <path d="M56.1121567,43.2729 C57.7764909,41.6288714 59.4433316,39.9864143 61.1114256,38.3452143 C60.9177963,38.2965 60.7254204,38.2468429 60.5317911,38.1984429 C56.694611,37.2273 52.8492846,36.3347286 49.0052115,35.4490714 C47.5385796,36.9846714 46.0719478,38.5218429 44.6078225,40.0609 C47.9073525,40.9421571 51.1990496,41.8451 54.4710078,42.8080714 C55.0158642,42.9680429 55.5654204,43.1179571 56.1121567,43.2729" id="Fill-79" fill="#FAAF4C"></path>
            <path d="M71.3297232,47.2696086 C73.506329,47.8444371 75.6732219,48.4475514 77.825389,49.0930943 C80.3012115,48.7467514 82.7723342,48.3674086 85.242517,47.97078 C86.304658,46.80478 87.3802715,45.6500943 88.4806371,44.51898 C84.3458068,43.8636943 80.250141,43.0188943 76.1745274,42.0798086 C74.580376,43.8272371 72.966799,45.5580086 71.3297232,47.2696086" id="Fill-81" fill="#FAAF4C"></path>
            <path d="M92.7220888,43.1829514 C93.1225065,43.21658 93.5219843,43.2558657 93.9211488,43.2838371 C96.2954569,43.4494657 98.7007833,43.5912086 101.094517,43.8322657 C104.687624,42.2960371 108.830914,40.0372657 111.447415,36.9528657 C107.846162,36.3862086 104.252742,35.7610943 100.667467,35.2004086 C98.1192689,37.9356371 95.483342,40.5922943 92.7220888,43.1829514" id="Fill-83" fill="#FAAF4C"></path>
            <path d="M91.8757598,41.1744771 C94.0909034,39.0976771 96.2559164,36.9960486 98.369859,34.8535629 C93.6741932,34.1586771 88.9713211,33.5587057 84.2712689,32.9401914 C82.032,35.5273914 79.7798851,38.0907057 77.4945587,40.62322 C81.666047,41.5899629 85.8604073,42.4086771 90.072,42.9115343 C90.666047,42.3257057 91.2657337,41.7458486 91.8757598,41.1744771" id="Fill-85" fill="#FAAF4C"></path>
            <path d="M73.776564,41.5133086 C70.2959373,40.6817086 66.8256501,39.8004514 63.3547363,38.9154229 C61.679436,40.5742229 60.0019426,42.2314514 58.3282089,43.8927657 C61.8511332,44.8497657 65.4000627,45.7347943 68.9383394,46.6477943 C70.5760418,44.9553657 72.1849191,43.2415657 73.776564,41.5133086" id="Fill-87" fill="#FAAF4C"></path>
        </g>
    </g>
</svg>