<?xml version="1.0" encoding="UTF-8"?>
<svg width="120px" height="120px" viewBox="0 0 120 120" version="1.1" xmlns="http://www.w3.org/2000/svg" xmlns:xlink="http://www.w3.org/1999/xlink">
    <!-- Generator: Sketch 51.1 (57501) - http://www.bohemiancoding.com/sketch -->
    <title>Apartment24</title>
    <desc>Created with Sketch.</desc>
    <defs></defs>
    <g id="Apartment24" stroke="none" stroke-width="1" fill="none" fill-rule="evenodd">
        <g id="Page-1" transform="translate(0.000000, 10.000000)">
            <polygon id="Fill-1" fill="#97B5B7" points="9.13083871 49.4382239 110.579226 49.4382239 110.579226 22.03861 9.13083871 22.03861"></polygon>
            <polygon id="Fill-2" fill="#8AABAD" points="9.13083871 76.8374517 12.4300645 76.8374517 12.4300645 22.03861 9.13083871 22.03861"></polygon>
            <polygon id="Fill-3" fill="#8AABAD" points="107.28 76.8374517 110.578839 76.8374517 110.578839 22.03861 107.28 22.03861"></polygon>
            <polygon id="Fill-4" fill="#A6CBCE" points="0 99.8687259 119.710452 99.8687259 119.710452 45.0698842 0 45.0698842"></polygon>
            <polygon id="Fill-5" fill="#8AABAD" points="0 99.8687259 3.29922581 99.8687259 3.29922581 45.0698842 0 45.0698842"></polygon>
            <polygon id="Fill-6" fill="#8AABAD" points="116.411226 99.8687259 119.710452 99.8687259 119.710452 45.0698842 116.411226 45.0698842"></polygon>
            <polygon id="Fill-7" fill="#A18D76" points="59.8549935 0 32.3370581 11.019305 4.81912258 22.03861 59.8549935 22.03861 114.890477 22.03861 87.372929 11.019305"></polygon>
            <polygon id="Fill-8" fill="#907D65" points="59.8546452 0 59.8546452 22.03861 114.890516 22.03861 87.3729677 11.019305"></polygon>
            <path d="M18.6727742,39.957529 L26.3218065,39.957529 L26.3218065,33.5050193 L18.6727742,33.5050193 L18.6727742,39.957529 Z M27.4629677,39.957529 L35.1116129,39.957529 L35.1116129,33.5050193 L27.4629677,33.5050193 L27.4629677,39.957529 Z M27.4629677,32.5119691 L35.1116129,32.5119691 L35.1116129,26.0590734 L27.4629677,26.0590734 L27.4629677,32.5119691 Z M18.6727742,32.5119691 L26.3218065,32.5119691 L26.3218065,26.0590734 L18.6727742,26.0590734 L18.6727742,32.5119691 Z" id="Fill-9" fill="#E6E7E8"></path>
            <path d="M40.647871,39.957529 L48.2969032,39.957529 L48.2969032,33.5046332 L40.647871,33.5046332 L40.647871,39.957529 Z M49.4380645,39.957529 L57.0867097,39.957529 L57.0867097,33.5046332 L49.4380645,33.5046332 L49.4380645,39.957529 Z M49.4380645,32.5119691 L57.0867097,32.5119691 L57.0867097,26.0594595 L49.4380645,26.0594595 L49.4380645,32.5119691 Z M40.647871,32.5119691 L48.2969032,32.5119691 L48.2969032,26.0594595 L40.647871,26.0594595 L40.647871,32.5119691 Z" id="Fill-10" fill="#E6E7E8"></path>
            <path d="M62.6233548,39.9579151 L70.2723871,39.9579151 L70.2723871,33.5054054 L62.6233548,33.5054054 L62.6233548,39.9579151 Z M71.4139355,39.9579151 L79.0621935,39.9579151 L79.0621935,33.5054054 L71.4139355,33.5054054 L71.4139355,39.9579151 Z M71.4139355,32.5123552 L79.0621935,32.5123552 L79.0621935,26.0594595 L71.4139355,26.0594595 L71.4139355,32.5123552 Z M62.6233548,32.5123552 L70.2723871,32.5123552 L70.2723871,26.0594595 L62.6233548,26.0594595 L62.6233548,32.5123552 Z" id="Fill-11" fill="#E6E7E8"></path>
            <path d="M84.5988387,39.9583012 L92.247871,39.9583012 L92.247871,33.5054054 L84.5988387,33.5054054 L84.5988387,39.9583012 Z M93.3890323,39.9583012 L101.03729,39.9583012 L101.03729,33.5054054 L93.3890323,33.5054054 L93.3890323,39.9583012 Z M93.3894194,32.5123552 L101.037677,32.5123552 L101.037677,26.0598456 L93.3894194,26.0598456 L93.3894194,32.5123552 Z M84.5992258,32.5123552 L92.2482581,32.5123552 L92.2482581,26.0598456 L84.5992258,26.0598456 L84.5992258,32.5123552 Z" id="Fill-12" fill="#E6E7E8"></path>
            <path d="M18.6727742,63.584556 L26.3218065,63.584556 L26.3218065,57.1316602 L18.6727742,57.1316602 L18.6727742,63.584556 Z M27.4629677,63.584556 L35.1116129,63.584556 L35.1116129,57.1316602 L27.4629677,57.1316602 L27.4629677,63.584556 Z M27.4629677,56.1389961 L35.1116129,56.1389961 L35.1116129,49.6864865 L27.4629677,49.6864865 L27.4629677,56.1389961 Z M18.6727742,56.1389961 L26.3218065,56.1389961 L26.3218065,49.6864865 L18.6727742,49.6864865 L18.6727742,56.1389961 Z" id="Fill-13" fill="#E6E7E8"></path>
            <path d="M40.647871,63.5849421 L48.2969032,63.5849421 L48.2969032,57.1324324 L40.647871,57.1324324 L40.647871,63.5849421 Z M49.4380645,63.5849421 L57.0867097,63.5849421 L57.0867097,57.1324324 L49.4380645,57.1324324 L49.4380645,63.5849421 Z M49.4380645,56.1393822 L57.0867097,56.1393822 L57.0867097,49.6864865 L49.4380645,49.6864865 L49.4380645,56.1393822 Z M40.647871,56.1393822 L48.2969032,56.1393822 L48.2969032,49.6864865 L40.647871,49.6864865 L40.647871,56.1393822 Z" id="Fill-14" fill="#E6E7E8"></path>
            <path d="M62.6233548,63.5849421 L70.2723871,63.5849421 L70.2723871,57.1320463 L62.6233548,57.1320463 L62.6233548,63.5849421 Z M71.4139355,63.5849421 L79.0621935,63.5849421 L79.0621935,57.1320463 L71.4139355,57.1320463 L71.4139355,63.5849421 Z M71.4139355,56.1397683 L79.0621935,56.1397683 L79.0621935,49.6868726 L71.4139355,49.6868726 L71.4139355,56.1397683 Z M62.6233548,56.1397683 L70.2723871,56.1397683 L70.2723871,49.6868726 L62.6233548,49.6868726 L62.6233548,56.1397683 Z" id="Fill-15" fill="#E6E7E8"></path>
            <path d="M84.5988387,63.5853282 L92.247871,63.5853282 L92.247871,57.1324324 L84.5988387,57.1324324 L84.5988387,63.5853282 Z M93.3890323,63.5853282 L101.03729,63.5853282 L101.03729,57.1324324 L93.3890323,57.1324324 L93.3890323,63.5853282 Z M93.3894194,56.1397683 L101.037677,56.1397683 L101.037677,49.6868726 L93.3894194,49.6868726 L93.3894194,56.1397683 Z M84.5992258,56.1397683 L92.2482581,56.1397683 L92.2482581,49.6868726 L84.5992258,49.6868726 L84.5992258,56.1397683 Z" id="Fill-16" fill="#E6E7E8"></path>
            <path d="M18.6727742,80.907722 L26.3218065,80.907722 L26.3218065,74.4548263 L18.6727742,74.4548263 L18.6727742,80.907722 Z M27.4629677,80.907722 L35.1116129,80.907722 L35.1116129,74.4548263 L27.4629677,74.4548263 L27.4629677,80.907722 Z M27.4629677,73.4617761 L35.1116129,73.4617761 L35.1116129,67.0088803 L27.4629677,67.0088803 L27.4629677,73.4617761 Z M18.6727742,73.4617761 L26.3218065,73.4617761 L26.3218065,67.0088803 L18.6727742,67.0088803 L18.6727742,73.4617761 Z" id="Fill-17" fill="#E6E7E8"></path>
            <path d="M40.647871,80.907722 L48.2969032,80.907722 L48.2969032,74.4548263 L40.647871,74.4548263 L40.647871,80.907722 Z M49.4380645,80.907722 L57.0867097,80.907722 L57.0867097,74.4548263 L49.4380645,74.4548263 L49.4380645,80.907722 Z M49.4380645,73.4621622 L57.0867097,73.4621622 L57.0867097,67.0092664 L49.4380645,67.0092664 L49.4380645,73.4621622 Z M40.647871,73.4621622 L48.2969032,73.4621622 L48.2969032,67.0092664 L40.647871,67.0092664 L40.647871,73.4621622 Z" id="Fill-18" fill="#E6E7E8"></path>
            <path d="M62.6233548,80.9081081 L70.2723871,80.9081081 L70.2723871,74.4552124 L62.6233548,74.4552124 L62.6233548,80.9081081 Z M71.4139355,80.9081081 L79.0621935,80.9081081 L79.0621935,74.4552124 L71.4139355,74.4552124 L71.4139355,80.9081081 Z M71.4139355,73.4621622 L79.0621935,73.4621622 L79.0621935,67.0092664 L71.4139355,67.0092664 L71.4139355,73.4621622 Z M62.6233548,73.4621622 L70.2723871,73.4621622 L70.2723871,67.0092664 L62.6233548,67.0092664 L62.6233548,73.4621622 Z" id="Fill-19" fill="#E6E7E8"></path>
            <path d="M84.5988387,80.9081081 L92.247871,80.9081081 L92.247871,74.4552124 L84.5988387,74.4552124 L84.5988387,80.9081081 Z M93.3890323,80.9081081 L101.03729,80.9081081 L101.03729,74.4552124 L93.3890323,74.4552124 L93.3890323,80.9081081 Z M93.3894194,73.4625483 L101.037677,73.4625483 L101.037677,67.0096525 L93.3894194,67.0096525 L93.3894194,73.4625483 Z M84.5992258,73.4625483 L92.2482581,73.4625483 L92.2482581,67.0096525 L84.5992258,67.0096525 L84.5992258,73.4625483 Z" id="Fill-20" fill="#E6E7E8"></path>
            <path d="M18.6727742,97.188417 L26.3218065,97.188417 L26.3218065,90.7355212 L18.6727742,90.7355212 L18.6727742,97.188417 Z M27.4629677,97.188417 L35.1116129,97.188417 L35.1116129,90.7355212 L27.4629677,90.7355212 L27.4629677,97.188417 Z M27.4629677,89.7428571 L35.1116129,89.7428571 L35.1116129,83.2899614 L27.4629677,83.2899614 L27.4629677,89.7428571 Z M18.6727742,89.7428571 L26.3218065,89.7428571 L26.3218065,83.2899614 L18.6727742,83.2899614 L18.6727742,89.7428571 Z" id="Fill-21" fill="#E6E7E8"></path>
            <path d="M40.647871,97.1888031 L48.2969032,97.1888031 L48.2969032,90.7359073 L40.647871,90.7359073 L40.647871,97.1888031 Z M49.4380645,97.1888031 L57.0867097,97.1888031 L57.0867097,90.7359073 L49.4380645,90.7359073 L49.4380645,97.1888031 Z M49.4380645,89.7432432 L57.0867097,89.7432432 L57.0867097,83.2903475 L49.4380645,83.2903475 L49.4380645,89.7432432 Z M40.647871,89.7432432 L48.2969032,89.7432432 L48.2969032,83.2903475 L40.647871,83.2903475 L40.647871,89.7432432 Z" id="Fill-22" fill="#E6E7E8"></path>
            <path d="M62.6233548,97.1888031 L70.2723871,97.1888031 L70.2723871,90.7359073 L62.6233548,90.7359073 L62.6233548,97.1888031 Z M71.4139355,97.1888031 L79.0621935,97.1888031 L79.0621935,90.7359073 L71.4139355,90.7359073 L71.4139355,97.1888031 Z M71.4139355,89.7432432 L79.0621935,89.7432432 L79.0621935,83.2903475 L71.4139355,83.2903475 L71.4139355,89.7432432 Z M62.6233548,89.7432432 L70.2723871,89.7432432 L70.2723871,83.2903475 L62.6233548,83.2903475 L62.6233548,89.7432432 Z" id="Fill-23" fill="#E6E7E8"></path>
            <path d="M84.5988387,97.1891892 L92.247871,97.1891892 L92.247871,90.7362934 L84.5988387,90.7362934 L84.5988387,97.1891892 Z M93.3890323,97.1891892 L101.03729,97.1891892 L101.03729,90.7362934 L93.3890323,90.7362934 L93.3890323,97.1891892 Z M93.3894194,89.7436293 L101.037677,89.7436293 L101.037677,83.2907336 L93.3894194,83.2907336 L93.3894194,89.7436293 Z M84.5992258,89.7436293 L92.2482581,89.7436293 L92.2482581,83.2907336 L84.5992258,83.2907336 L84.5992258,89.7436293 Z" id="Fill-24" fill="#E6E7E8"></path>
        </g>
    </g>
</svg>