<?xml version="1.0" encoding="UTF-8"?>
<svg width="120px" height="120px" viewBox="0 0 120 120" version="1.1" xmlns="http://www.w3.org/2000/svg" xmlns:xlink="http://www.w3.org/1999/xlink">
    <!-- Generator: Sketch 51.1 (57501) - http://www.bohemiancoding.com/sketch -->
    <title>Drum29</title>
    <desc>Created with Sketch.</desc>
    <defs></defs>
    <g id="Drum29" stroke="none" stroke-width="1" fill="none" fill-rule="evenodd">
        <g id="Group" transform="translate(2.000000, 10.000000)">
            <path d="M55.5048997,58.7504702 C75.9130407,58.7504702 93.376542,64.1354232 100.424249,71.723511 L103.756184,71.723511 L103.756184,79.2404389 C103.756184,90.5702194 82.1550352,99.731348 55.5052141,99.731348 C28.8560217,99.731348 7.22060705,90.569906 7.22060705,79.2404389 L7.22060705,71.723511 L10.5868076,71.723511 C17.6348293,64.1354232 35.0970732,58.7504702 55.5048997,58.7504702 Z" id="Shape" fill="#6C5038"></path>
            <path d="M55.5048997,51.2326019 C82.1547209,51.2326019 103.75587,60.4288401 103.75587,71.723511 C103.75587,83.0520376 82.1547209,92.2131661 55.5048997,92.2131661 C28.8557073,92.2131661 7.22029268,83.0517241 7.22029268,71.723511 C7.22029268,60.4288401 28.855393,51.2326019 55.5048997,51.2326019 Z" id="Shape" fill="#A08B75"></path>
            <path d="M100.073734,71.723511 C100.073734,81.5833856 80.1217344,89.5905956 55.5048997,89.5905956 C30.8893225,89.5905956 10.9017995,81.5833856 10.9017995,71.723511 C10.9017995,71.6172414 10.9366938,71.5473354 10.9366938,71.4426332 L10.9366938,31.6510972 L100.073734,31.6510972 L100.073734,71.723511 Z" id="Shape" fill="#F7B356"></path>
            <path d="M55.5048997,19.0272727 C75.9130407,19.0272727 93.376542,24.4122257 100.424249,32.0003135 L103.756184,32.0003135 L103.756184,39.5181818 C103.756184,50.8115987 82.1550352,60.0090909 55.5052141,60.0090909 C28.8560217,60.0090909 7.22060705,50.8115987 7.22060705,39.5181818 L7.22060705,32.0003135 L10.5868076,32.0003135 C17.6348293,24.4122257 35.0970732,19.0272727 55.5048997,19.0272727 Z" id="Shape" fill="#6C5038"></path>
            <path d="M55.5048997,11.5094044 C82.1547209,11.5094044 103.75587,20.6708464 103.75587,32.0003135 C103.75587,43.3297806 82.1547209,52.4912226 55.5048997,52.4912226 C28.8557073,52.4912226 7.22029268,43.3297806 7.22029268,32.0003135 C7.22029268,20.6708464 28.855393,11.5094044 55.5048997,11.5094044 Z" id="Shape" fill="#A08B75"></path>
            <path d="M55.5048997,14.1316614 C80.1220488,14.1316614 100.073734,22.1401254 100.073734,32.0003135 C100.073734,41.861442 80.1217344,49.868652 55.5048997,49.868652 C30.8893225,49.868652 10.9017995,41.861442 10.9017995,32.0003135 C10.9017995,22.1401254 30.8893225,14.1316614 55.5048997,14.1316614 Z" id="Shape" fill="#E6E6E5"></path>
            <path d="M20.3694743,88.192163 C20.3694743,88.2269592 20.4046829,88.262069 20.4046829,88.2968652 C20.4046829,88.9617555 19.2471978,89.4858934 17.8797182,89.4858934 C16.4773442,89.4858934 15.3547534,88.9617555 15.3547534,88.2968652 C15.3547534,88.262069 15.3547534,88.2269592 15.3899621,88.192163 L15.3899621,85.2551724 L20.4046829,85.2551724 L20.4046829,88.192163 L20.3694743,88.192163 Z" id="Shape" fill="#F47739"></path>
            <path d="M17.8797182,84.1009404 C19.2471978,84.1009404 20.4046829,84.6250784 20.4046829,85.2551724 C20.4046829,85.9188088 19.2471978,86.4094044 17.8797182,86.4094044 C16.4773442,86.4094044 15.3547534,85.9191223 15.3547534,85.2551724 C15.3550678,84.6250784 16.4773442,84.1009404 17.8797182,84.1009404 Z" id="Shape" fill="#F7B356"></path>
            <path d="M17.2487913,50.8479624 C17.2487913,50.4974922 17.5288889,50.2178683 17.8800325,50.2178683 C18.2305474,50.2178683 18.5112737,50.4974922 18.5112737,50.8479624 L18.5112737,84.9407524 C18.5112737,85.2899687 18.2305474,85.5695925 17.8800325,85.5695925 C17.5288889,85.5695925 17.2487913,85.2899687 17.2487913,84.9407524 L17.2487913,50.8479624 Z" id="Shape" fill="#E6E6E5" fill-rule="nonzero"></path>
            <path d="M20.3694743,50.8479624 C20.3694743,50.8827586 20.4046829,50.9178683 20.4046829,50.9529781 C20.4046829,51.5818182 19.2471978,52.1056426 17.8797182,52.1056426 C16.4773442,52.1056426 15.3547534,51.5818182 15.3547534,50.9529781 C15.3547534,50.9178683 15.3547534,50.8827586 15.3899621,50.8479624 L15.3899621,47.9100313 L20.4046829,47.9100313 L20.4046829,50.8479624 L20.3694743,50.8479624 Z" id="Shape" fill="#F47739"></path>
            <path d="M17.8797182,46.7210031 C19.2471978,46.7210031 20.4046829,47.2460815 20.4046829,47.9100313 C20.4046829,48.5401254 19.2471978,49.0639498 17.8797182,49.0639498 C16.4773442,49.0639498 15.3547534,48.5401254 15.3547534,47.9100313 C15.3550678,47.2460815 16.4773442,46.7210031 17.8797182,46.7210031 Z" id="Shape" fill="#F7B356"></path>
            <path d="M44.7750569,95.1501567 C44.7750569,95.1862069 44.7750569,95.2200627 44.7750569,95.2561129 C44.7750569,95.884953 43.6530949,96.4090909 42.2853008,96.4090909 C40.8829268,96.4090909 39.7606504,95.884953 39.7606504,95.2561129 C39.7606504,95.2200627 39.7606504,95.1862069 39.7606504,95.1501567 L39.7606504,92.2131661 L44.7750569,92.2131661 L44.7750569,95.1501567 Z" id="Shape" fill="#F47739"></path>
            <path d="M42.2853008,91.0241379 C43.6530949,91.0241379 44.7750569,91.5495298 44.7750569,92.2131661 C44.7750569,92.8432602 43.6530949,93.3673981 42.2853008,93.3673981 C40.8829268,93.3673981 39.7606504,92.8432602 39.7606504,92.2131661 C39.760336,91.5495298 40.8826125,91.0241379 42.2853008,91.0241379 Z" id="Shape" fill="#F7B356"></path>
            <path d="M41.6540596,57.8059561 C41.6540596,57.4567398 41.9351003,57.1758621 42.2853008,57.1758621 C42.6361301,57.1758621 42.916542,57.4567398 42.916542,57.8059561 L42.916542,91.8987461 C42.916542,92.2479624 42.6361301,92.5275862 42.2853008,92.5275862 C41.9351003,92.5275862 41.6540596,92.2479624 41.6540596,91.8987461 L41.6540596,57.8059561 Z" id="Shape" fill="#E6E6E5" fill-rule="nonzero"></path>
            <path d="M44.7750569,57.8059561 C44.7750569,57.8407524 44.7750569,57.8407524 44.7750569,57.8758621 C44.7750569,58.5398119 43.6530949,59.0648903 42.2853008,59.0648903 C40.8829268,59.0648903 39.7606504,58.5398119 39.7606504,57.8758621 C39.7606504,57.8410658 39.7606504,57.8059561 39.7606504,57.8059561 L39.7606504,54.8344828 L44.7750569,54.8344828 L44.7750569,57.8059561 Z" id="Shape" fill="#F47739"></path>
            <path d="M42.2853008,53.6802508 C43.6530949,53.6802508 44.7750569,54.2040752 44.7750569,54.8344828 C44.7750569,55.4981191 43.6530949,56.0231975 42.2853008,56.0231975 C40.8829268,56.0231975 39.7606504,55.4981191 39.7606504,54.8344828 C39.760336,54.2040752 40.8826125,53.6802508 42.2853008,53.6802508 Z" id="Shape" fill="#F7B356"></path>
            <path d="M90.6412683,88.192163 C90.6051165,88.2269592 90.6051165,88.262069 90.6051165,88.2968652 C90.6051165,88.9617555 91.727393,89.4858934 93.1297669,89.4858934 C94.5337127,89.4858934 95.6547317,88.9617555 95.6547317,88.2968652 C95.6547317,88.262069 95.6547317,88.2269592 95.619523,88.192163 L95.619523,85.2551724 L90.6051165,85.2551724 L90.6051165,88.192163 L90.6412683,88.192163 Z" id="Shape" fill="#F47739"></path>
            <path d="M93.1297669,84.1009404 C91.727393,84.1009404 90.6051165,84.6250784 90.6051165,85.2551724 C90.6051165,85.9188088 91.727393,86.4094044 93.1297669,86.4094044 C94.5337127,86.4094044 95.6547317,85.9191223 95.6547317,85.2551724 C95.6547317,84.6250784 94.5337127,84.1009404 93.1297669,84.1009404 Z" id="Shape" fill="#F7B356"></path>
            <path d="M93.7616369,50.8479624 C93.7616369,50.4974922 93.4812249,50.2178683 93.1297669,50.2178683 C92.7795664,50.2178683 92.4991545,50.4974922 92.4991545,50.8479624 L92.4991545,84.9407524 C92.4991545,85.2899687 92.7795664,85.5695925 93.1297669,85.5695925 C93.4812249,85.5695925 93.7616369,85.2899687 93.7616369,84.9407524 L93.7616369,50.8479624 Z" id="Shape" fill="#E6E6E5" fill-rule="nonzero"></path>
            <path d="M90.6412683,50.8479624 C90.6051165,50.8827586 90.6051165,50.9178683 90.6051165,50.9529781 C90.6051165,51.5818182 91.727393,52.1056426 93.1297669,52.1056426 C94.5337127,52.1056426 95.6547317,51.5818182 95.6547317,50.9529781 C95.6547317,50.9178683 95.6547317,50.8827586 95.619523,50.8479624 L95.619523,47.9100313 L90.6051165,47.9100313 L90.6051165,50.8479624 L90.6412683,50.8479624 Z" id="Shape" fill="#F47739"></path>
            <path d="M93.1297669,46.7210031 C91.727393,46.7210031 90.6051165,47.2460815 90.6051165,47.9100313 C90.6051165,48.5401254 91.727393,49.0639498 93.1297669,49.0639498 C94.5337127,49.0639498 95.6547317,48.5401254 95.6547317,47.9100313 C95.6547317,47.2460815 94.5337127,46.7210031 93.1297669,46.7210031 Z" id="Shape" fill="#F7B356"></path>
            <path d="M66.2350569,95.1501567 C66.2350569,95.1862069 66.2001626,95.2200627 66.2001626,95.2561129 C66.2001626,95.884953 67.3218103,96.4090909 68.7251274,96.4090909 C70.1275014,96.4090909 71.2500921,95.884953 71.2500921,95.2561129 C71.2500921,95.2200627 71.2500921,95.1862069 71.2148835,95.1501567 L71.2148835,92.2131661 L66.2001626,92.2131661 L66.2001626,95.1501567 L66.2350569,95.1501567 Z" id="Shape" fill="#F47739"></path>
            <path d="M68.7251274,91.0241379 C67.3221247,91.0241379 66.2001626,91.5495298 66.2001626,92.2131661 C66.2001626,92.8432602 67.3218103,93.3673981 68.7251274,93.3673981 C70.1275014,93.3673981 71.2500921,92.8432602 71.2500921,92.2131661 C71.2497778,91.5495298 70.1275014,91.0241379 68.7251274,91.0241379 Z" id="Shape" fill="#F7B356"></path>
            <path d="M69.3557398,57.8059561 C69.3557398,57.4567398 69.0756423,57.1758621 68.7251274,57.1758621 C68.3739837,57.1758621 68.0932575,57.4567398 68.0932575,57.8059561 L68.0932575,91.8987461 C68.0932575,92.2479624 68.3739837,92.5275862 68.7251274,92.5275862 C69.0756423,92.5275862 69.3557398,92.2479624 69.3557398,91.8987461 L69.3557398,57.8059561 Z" id="Shape" fill="#E6E6E5" fill-rule="nonzero"></path>
            <path d="M66.2350569,57.8059561 C66.2350569,57.8407524 66.2001626,57.8407524 66.2001626,57.8758621 C66.2001626,58.5398119 67.3218103,59.0648903 68.7251274,59.0648903 C70.1275014,59.0648903 71.2500921,58.5398119 71.2500921,57.8758621 C71.2500921,57.8410658 71.2500921,57.8059561 71.2148835,57.8059561 L71.2148835,54.8344828 L66.2001626,54.8344828 L66.2001626,57.8059561 L66.2350569,57.8059561 Z" id="Shape" fill="#F47739"></path>
            <path d="M68.7251274,53.6802508 C67.3221247,53.6802508 66.2001626,54.2040752 66.2001626,54.8344828 C66.2001626,55.4981191 67.3218103,56.0231975 68.7251274,56.0231975 C70.1275014,56.0231975 71.2500921,55.4981191 71.2500921,54.8344828 C71.2497778,54.2040752 70.1275014,53.6802508 68.7251274,53.6802508 Z" id="Shape" fill="#F7B356"></path>
            <path d="M55.5048997,26.8601881 C62.5884444,26.8601881 68.3742981,29.1680251 68.3742981,32.0003135 C68.3742981,34.8322884 62.5884444,37.1404389 55.5048997,37.1404389 C48.3864607,37.1404389 42.6361301,34.8322884 42.6361301,32.0003135 C42.6361301,29.1680251 48.3864607,26.8601881 55.5048997,26.8601881 Z" id="Shape" fill="#DAD6D1"></path>
            <path d="M62.1326179,38.8884013 C61.3957507,37.6294671 62.8333333,35.4623824 65.2878808,34.0288401 C67.0065041,33.0495298 68.794916,32.7003135 69.951458,32.9796238 L107.051024,8.95642633 C107.051024,8.95642633 113.468119,4.9354232 115.361214,8.22288401 C117.255252,11.5090909 110.592954,15.0410658 110.592954,15.0410658 L71.1796748,35.0768025 C70.8285312,36.230721 69.6364661,37.5595611 67.9181572,38.5736677 C65.4284011,39.9727273 62.8691707,40.1122257 62.1326179,38.8884013 Z" id="Shape" fill="#6C5038"></path>
            <path d="M53.6111762,32.0351097 C54.3131491,30.8112853 52.9101463,28.6442006 50.421019,27.2090909 C48.7023957,26.2310345 46.9491924,25.8451411 45.7917073,26.1263323 L8.69276965,2.10344828 C8.69276965,2.10344828 2.24078049,-1.88275862 0.347056911,1.40470219 C-1.5463523,4.65611285 5.15084011,8.22319749 5.15084011,8.22319749 L44.564748,28.2586207 C44.8800542,29.4128527 46.1076423,30.7413793 47.8259512,31.7210031 C50.2798699,33.154232 52.8749377,33.2940439 53.6111762,32.0351097 Z" id="Shape" fill="#6C5038"></path>
        </g>
    </g>
</svg>