<?xml version="1.0" encoding="UTF-8"?>
<svg width="120px" height="120px" viewBox="0 0 120 120" version="1.1" xmlns="http://www.w3.org/2000/svg" xmlns:xlink="http://www.w3.org/1999/xlink">
    <!-- Generator: Sketch 51.1 (57501) - http://www.bohemiancoding.com/sketch -->
    <title>Grass15</title>
    <desc>Created with Sketch.</desc>
    <defs></defs>
    <g id="Grass15" stroke="none" stroke-width="1" fill="none" fill-rule="evenodd">
        <g id="Group" transform="translate(0.000000, 18.000000)">
            <path d="M42.2824528,64.7488679 C40.2262264,65.2096226 38.3711321,66.0933962 36.5073585,67.0771698 C35.3284906,67.699434 31.4073585,69.6232075 32.3088679,70.6413208 C33.0998113,71.5345283 34.7632075,70.29 35.3798113,69.9107547 C37.0488679,68.8839623 41.9050943,65.5216981 42.2824528,64.7488679" id="Fill-20" fill="#72A863"></path>
            <path d="M14.611283,46.7764151 C14.266,46.1881132 10.8826038,41.9160377 12.2029811,41.4507547 C13.5263774,40.9839623 14.2493962,43.6549057 14.4422264,44.41 C14.6044906,45.0473585 14.675434,46.0032075 14.611283,46.7764151" id="Fill-22" fill="#79C732"></path>
            <path d="M11.9060377,45.8043019 C11.6366038,45.3458113 8.99698113,42.0126038 10.0271698,41.6495849 C11.0596226,41.285434 11.6233962,43.3692075 11.7739623,43.9582642 C11.9007547,44.4556226 11.9562264,45.201283 11.9060377,45.8043019" id="Fill-24" fill="#599948"></path>
            <path d="M10.0612453,45.1395094 C9.84954717,44.7791321 7.77558491,42.1602642 8.58501887,41.8753585 C9.39633962,41.5893208 9.83935849,43.2263019 9.9574717,43.6893208 C10.0570943,44.0795094 10.1004906,44.6655472 10.0612453,45.1395094" id="Fill-26" fill="#79C732"></path>
            <path d="M17.3347989,48.0485283 C16.4747925,47.358717 15.6291321,45.1273962 15.2487547,44.3749434 C14.9551698,43.7949434 13.9110189,41.7473962 14.9638491,41.433434 C16.2853585,41.0394717 17.3378113,46.1183396 17.3347989,48.0485283" id="Fill-28" fill="#599948"></path>
            <path d="M15.0686038,46.894 C14.4153962,47.0898491 9.02860377,47.9162642 9.67916981,49.1562642 C10.3312453,50.3985283 12.6784151,48.9343774 13.3338868,48.5121132 C13.8870943,48.1562642 14.5893585,47.5038113 15.0686038,46.894" id="Fill-30" fill="#4CBD5A"></path>
            <path d="M12.3467547,45.8028302 C11.8429811,45.9726415 7.66449057,46.7590566 8.20411321,47.7088679 C8.74524528,48.6601887 10.5369434,47.4567925 11.0369434,47.1103774 C11.4584528,46.8179245 11.9893962,46.2911321 12.3467547,45.8028302" id="Fill-32" fill="#599948"></path>
            <path d="M9.82596226,45.0901132 C9.41916981,45.1870943 6.09426415,45.5052075 6.44898113,46.286717 C6.80445283,47.0693585 8.292,46.2553962 8.70784906,46.0199245 C9.05879245,45.8210566 9.51162264,45.446717 9.82596226,45.0901132" id="Fill-34" fill="#599948"></path>
            <path d="M17.8404151,48.1697736 C16.824566,48.0373208 14.784566,48.9067547 14.0351321,49.1361887 C13.4573962,49.3127925 11.4128679,49.9309057 11.8800377,50.8384528 C12.4668302,51.9780755 16.548717,49.4143019 17.8404151,48.1697736" id="Fill-36" fill="#79C732"></path>
            <path d="M19.2481132,48.913434 C19.1364151,48.8047547 16.384717,41.9221132 18.2277358,41.3104151 C20.0677358,40.698717 19.5401887,48.2319245 19.2481132,48.913434" id="Fill-38" fill="#599948"></path>
            <path d="M21.2441887,50.0447925 C21.2441887,50.0447925 18.7226792,41.7968679 21.2789057,41.5564906 C23.763434,41.3225283 21.2441887,50.0447925 21.2441887,50.0447925" id="Fill-40" fill="#79C732"></path>
            <path d="M24.2954717,51.7812075 C23.6528302,50.5502642 23.4509434,48.8529057 23.2939623,47.4929057 C23.1588679,46.3200755 23.0796226,45.1042264 23.2056604,43.9302642 C23.2728302,43.3087547 23.8237736,41.8087547 24.7233962,42.1529057 C25.6962264,42.5253585 25.2660377,44.637434 25.174717,45.3725283 C24.9950943,46.8129057 24.5920755,51.1729057 24.2954717,51.7812075" id="Fill-42" fill="#4CBD5A"></path>
            <path d="M27.2708679,53.4855849 C26.6678491,52.2452075 25.3746415,42.2746415 27.7335094,44.2580377 C29.1493585,45.4486038 28.0206792,52.0421887 27.2708679,53.4855849 C26.7991698,52.5153962 27.6969057,52.6648302 27.2708679,53.4855849" id="Fill-44" fill="#599948"></path>
            <path d="M31.3856981,45.7670566 C32.9807925,45.9059245 30.9381509,53.963283 29.8558868,55.347434 C30.2460755,54.8481887 28.9362642,45.5538491 31.3856981,45.7670566" id="Fill-46" fill="#79C732"></path>
            <path d="M32.7923019,57.2352453 C32.3768302,56.1605283 32.6119245,52.1148679 32.9613585,50.006566 C33.0632453,49.3918491 33.8790943,46.1009057 34.7730566,46.6639245 C35.3413585,47.0224151 35.058717,48.4227925 34.9643774,48.9526038 C34.8024906,49.8635472 32.8089057,57.2020377 32.7923019,57.2352453" id="Fill-48" fill="#599948"></path>
            <path d="M19.8983774,49.1415472 C19.2213962,49.4324906 11.2696981,51.6660755 12.8753585,53.3441887 C13.7693208,54.2785283 19.3840377,49.7600377 19.9546038,49.164566 C19.458,49.3781509 19.4270566,49.6332453 19.8983774,49.1415472" id="Fill-50" fill="#599948"></path>
            <path d="M22.1798491,50.4243396 C20.313434,51.1281132 18.413434,51.8107547 16.629283,52.6892453 C16.0579623,52.9703774 13.3130566,54.3767925 13.6300377,55.2545283 C14.1473962,56.6877358 20.2549434,52.4892453 20.893434,51.9669811 C21.3847547,51.5654717 21.9277736,51.1039623 22.1798491,50.4243396" id="Fill-52" fill="#599948"></path>
            <path d="M16.2773585,57.7747547 C17.0279245,58.9736226 24.2860377,53.2230566 24.789434,51.9656981 C23.0109434,52.6619245 14.9366038,55.6332453 16.2773585,57.7747547" id="Fill-54" fill="#72A863"></path>
            <path d="M27.5630943,53.4723396 C24.5925283,54.4870566 17.0321509,58.0413962 18.6876226,59.4998868 C19.7347925,60.4217736 26.9230943,54.2217736 27.5630943,53.4723396" id="Fill-56" fill="#79C732"></path>
            <path d="M21.4254717,61.3626038 C22.1854717,62.4339245 29.035283,56.815434 30.1779245,55.3218491 C28.2390566,55.9837358 20.1126415,59.5124151 21.4254717,61.3626038" id="Fill-58" fill="#599948"></path>
            <path d="M24.1453208,63.829434 C25.4943774,64.8867925 31.963434,58.2607547 32.9377736,57.4509434 C30.9328679,58.1079245 22.0773962,62.2083019 24.1453208,63.829434" id="Fill-60" fill="#599948"></path>
            <path d="M38.1035094,49.2510189 C40.0201132,48.8276226 36.256717,58.7163019 35.9782264,59.7498868 C35.6253962,57.3442264 35.9555849,49.7249811 38.1035094,49.2510189" id="Fill-62" fill="#599948"></path>
            <path d="M35.8900377,59.5189057 C35.1719245,59.8094717 25.9643774,64.394 27.0836226,66.0751321 C28.2473962,67.823434 34.7190943,60.4030566 35.8900377,59.5189057 C35.153434,59.8166415 35.3183396,59.9506038 35.8900377,59.5189057" id="Fill-64" fill="#72A863"></path>
            <path d="M38.4808679,61.8261887 C38.482,60.3073208 39.4887925,54.2537358 40.0838868,52.7790189 C40.2231321,52.4337358 40.4729434,51.5499623 40.9921887,51.7039245 C41.2963396,51.7941132 41.6703019,52.2597736 41.7110566,52.8895849 C41.8499245,55.0341132 38.8774717,61.5963774 38.4808679,61.8261887" id="Fill-66" fill="#599948"></path>
            <path d="M31.9843396,65.3937736 C31.2673585,65.9228302 28.5111321,67.8986792 30.6111321,67.9541509 C32.5379245,68.0050943 37.8322642,63.1096226 38.5424528,61.6228302 C37.7828302,61.9809434 34.0183019,63.8930189 31.9843396,65.3937736" id="Fill-68" fill="#79C732"></path>
            <path d="M43.8166038,55.8061509 C44.854717,57.1544528 42.3083019,63.2503019 41.5539623,64.2397358 C41.4328302,62.3035094 42.0090566,53.4586038 43.8166038,55.8061509" id="Fill-70" fill="#72A863"></path>
            <path d="M46.1074717,59.9401132 C47.1036981,60.6042642 45.7765283,63.8676604 44.1376604,66.8103019 C44.2157736,66.6699245 44.3682264,58.7801132 46.1074717,59.9401132" id="Fill-72" fill="#599948"></path>
            <path d="M47.9461509,62.6199623 C49.3782264,63.0146792 46.9978491,68.5935472 46.6438868,69.2656226 C46.3744528,68.8478868 46.2204906,62.1437358 47.9461509,62.6199623" id="Fill-74" fill="#4CBD5A"></path>
            <path d="M39.2752075,70.2463774 C38.9374717,68.7995849 44.9755849,68.2244906 45.7352075,68.2139245 C45.4970943,68.6505283 39.682,71.9897736 39.2752075,70.2463774" id="Fill-76" fill="#72A863"></path>
            <path d="M50.1881887,65.8510943 C51.3761132,66.2537358 49.098,70.8397736 48.7670566,71.3892075 C48.5602642,71.0239245 48.7568679,65.3661887 50.1881887,65.8510943" id="Fill-78" fill="#599948"></path>
            <path d="M8.0729434,69.2941132 C7.52501887,68.8884528 2.73709434,66.2843019 3.76992453,65.3386415 C4.80426415,64.390717 6.51633962,66.5643019 6.98954717,67.1835472 C7.38916981,67.7061887 7.82916981,68.5578868 8.0729434,69.2941132" id="Fill-80" fill="#599948"></path>
            <path d="M5.42332075,69.3155094 C4.99577358,68.9989057 1.26067925,66.9672075 2.06633962,66.2294717 C2.87313208,65.4898491 4.20898113,67.1853208 4.57841509,67.6690943 C4.88973585,68.0766415 5.23313208,68.7411698 5.42332075,69.3155094" id="Fill-82" fill="#8DCF51"></path>
            <path d="M2.98890566,69.2709057 C2.6530566,69.0226038 -0.281283019,67.4263774 0.35154717,66.8463774 C0.985509434,66.2656226 2.0349434,67.5976981 2.32513208,67.9773208 C2.57003774,68.2976981 2.8394717,68.8199623 2.98890566,69.2709057" id="Fill-84" fill="#4CBD5A"></path>
            <path d="M11.3525283,69.5616604 C10.2910189,69.2639245 8.63818868,67.5424151 7.99328302,66.9997736 C7.49592453,66.581283 5.7325283,65.1061887 6.57818868,64.405434 C7.63969811,63.5246792 10.598566,67.7843019 11.3525283,69.5616604" id="Fill-86" fill="#4CBD5A"></path>
            <path d="M8.02577358,69.3184528 C7.47784906,69.7237358 2.68992453,72.3282642 3.72275472,73.2739245 C4.75709434,74.2214717 6.46916981,72.0482642 6.94237736,71.4290189 C7.342,70.9063774 7.782,70.0546792 8.02577358,69.3184528" id="Fill-88" fill="#4CBD5A"></path>
            <path d="M5.1874717,69.2970566 C4.75992453,69.6136604 1.02483019,71.6453585 1.83049057,72.3830943 C2.63728302,73.1223396 3.97313208,71.4272453 4.34256604,70.9434717 C4.65388679,70.5359245 4.99728302,69.8713962 5.1874717,69.2970566" id="Fill-90" fill="#599948"></path>
            <path d="M2.7530566,69.3176981 C2.41720755,69.5663774 -0.517132075,71.1626038 0.115698113,71.7426038 C0.749660377,72.3233585 1.79909434,70.991283 2.08928302,70.6116604 C2.33418868,70.291283 2.60362264,69.7690189 2.7530566,69.3176981" id="Fill-92" fill="#8DCF51"></path>
            <path d="M10.9637358,69.5255472 C9.97732075,69.8021509 8.4414717,71.4017736 7.84184906,71.9063019 C7.37958491,72.2953585 5.74109434,73.6655472 6.52675472,74.3172453 C7.51316981,75.1353585 10.2633585,71.1768679 10.9637358,69.5255472" id="Fill-94" fill="#599948"></path>
            <path d="M13.179246,69.5693962 C13.0339623,69.5131698 7.80415094,64.2603396 9.26,62.9743019 C10.7132075,61.6909057 13.1807547,68.8278868 13.179246,69.5693962" id="Fill-96" fill="#72A863"></path>
            <path d="M15.5423396,70.0230566 C15.5423396,70.0230566 9.98950943,63.4238113 12.2468679,62.2004151 C14.4408302,61.0113585 15.5423396,70.0230566 15.5423396,70.0230566" id="Fill-98" fill="#79C732"></path>
            <path d="M18.6557358,70.327434 C17.5817736,69.4470566 16.7308302,67.9647925 16.0530943,66.7749811 C15.4689434,65.7489434 14.9195094,64.6613962 14.5753585,63.5319623 C14.3930943,62.9338491 14.3119623,61.3383774 15.2749811,61.3021509 C16.3157358,61.2629057 16.7478113,63.3749811 16.9519623,64.0870566 C17.3515849,65.4825283 18.6896981,69.6515849 18.6557358,70.327434" id="Fill-100" fill="#599948"></path>
            <path d="M22.0978491,70.8156981 C21.056717,69.9111698 15.9586038,61.2455094 18.9061509,62.1455094 C20.6752075,62.6858868 22.222,69.1938113 22.0978491,70.8156981 C21.2835094,70.1081509 22.1684151,69.8938113 22.0978491,70.8156981" id="Fill-102" fill="#599948"></path>
            <path d="M23.000717,61.8361132 C24.5222264,61.3387547 25.8018491,69.5512075 25.3490189,71.2489434 C25.5124151,70.6368679 20.6637358,62.5998868 23.000717,61.8361132" id="Fill-104" fill="#79C732"></path>
            <path d="M29.2484942,71.947434 C28.4450943,71.1217736 27.075283,67.3070566 26.5703774,65.2308302 C26.4232075,64.6255472 25.8835849,61.278 26.9266038,61.4455472 C27.5896226,61.5523396 27.8790566,62.9519623 27.9998113,63.4761132 C28.2077358,64.3772453 29.2507547,71.9100755 29.2484942,71.947434" id="Fill-106" fill="#72A863"></path>
            <path d="M13.1913962,69.684 C12.682717,70.2168302 7.06686792,74.6424906 9.20120755,75.5568302 C10.3906415,76.0655094 12.9608302,70.454566 13.2521509,69.6828679 C12.8789434,70.0741887 12.9506415,70.3206038 13.1913962,69.684" id="Fill-108" fill="#8DCF51"></path>
            <path d="M15.7159245,69.848717 C14.2747925,71.2279623 12.7944151,72.6007925 11.497434,74.1079623 C11.0823396,74.5909811 10.0415849,75.8283396 10.6770566,76.5113585 C11.7151698,77.6272075 14.7547925,72.5026792 15.137434,71.7724906 C15.4317736,71.2102264 15.7502642,70.5728679 15.7159245,69.848717" id="Fill-110" fill="#599948"></path>
            <path d="M13.6244151,77.9055472 C14.6568679,78.6247925 18.592717,71.3863019 18.5659245,70.1813962 C17.3530943,71.3715849 11.7798868,76.6206415 13.6244151,77.9055472" id="Fill-112" fill="#599948"></path>
            <path d="M21.9380755,70.6613208 C19.7826038,72.5983019 14.6475094,78.3537736 16.5814717,78.9926415 C17.8044906,79.3967925 21.666,71.5296226 21.9380755,70.6613208" id="Fill-114" fill="#8DCF51"></path>
            <path d="M19.6724528,80.1553208 C20.7913208,80.8424906 24.890566,72.9889057 25.3562264,71.1673962 C23.8316981,72.5360755 17.7392453,78.9677736 19.6724528,80.1553208" id="Fill-116" fill="#4CBD5A"></path>
            <path d="M23.5199245,81.0434717 C25.1753962,81.4872453 28.5293585,72.8559245 29.1086038,71.7283774 C27.521434,73.1189434 20.9818113,80.362717 23.5199245,81.0434717" id="Fill-118" fill="#599948"></path>
            <path d="M30.3984528,62.0601887 C31.9958113,60.9198113 32.4101509,71.4918868 32.5592075,72.5522642 C31.291283,70.4775472 28.6082642,63.3386792 30.3984528,62.0601887" id="Fill-120" fill="#599948"></path>
            <path d="M32.3873208,72.3741509 C31.8405283,72.9228302 25.1673208,80.75 26.856,81.8583019 C28.6118491,83.0103774 31.6567547,73.6462264 32.3873208,72.3741509 C31.826566,72.9367925 32.030717,72.995283 32.3873208,72.3741509" id="Fill-122" fill="#599948"></path>
            <path d="M35.7748679,73.2335472 C35.1805283,71.8358113 33.7337358,65.8720377 33.7027925,64.2826038 C33.6956226,63.9101509 33.5790189,62.9988302 34.1167547,62.9369434 C34.4326038,62.900717 34.9590189,63.1829811 35.2431698,63.746 C36.2118491,65.6644906 36.0495849,72.8667547 35.7748679,73.2335472" id="Fill-124" fill="#72A863"></path>
            <path d="M31.190566,79.1677358 C30.7381132,79.9356604 28.9773585,82.8333962 30.9309434,82.0613208 C32.7233962,81.3530189 35.6750943,74.7741509 35.745283,73.1277358 C35.1867925,73.7549057 32.4732075,76.99 31.190566,79.1677358" id="Fill-126" fill="#72A863"></path>
            <path d="M38.8403774,65.4158868 C40.2660377,66.344566 39.8803774,72.939283 39.4954717,74.1226792 C38.7407547,72.3358868 36.3577358,63.7985283 38.8403774,65.4158868" id="Fill-128" fill="#599948"></path>
            <path d="M34.1340755,82.1088302 C35.912566,82.7963774 38.9253962,74.3899623 39.7597358,74.1156226 C37.8680377,74.7375094 32.3933208,81.436 34.1340755,82.1088302" id="Fill-130" fill="#79C732"></path>
            <path d="M41.8603396,68.1801132 C43.0369434,68.4004906 43.095434,71.9231321 42.7414717,75.2729434 C42.7584528,75.112566 39.8056226,67.7948302 41.8603396,68.1801132" id="Fill-132" fill="#4CBD5A"></path>
            <path d="M42.8580755,75.2437736 C41.4973208,76.2449057 40.420717,77.4924528 39.3697736,78.8150943 C38.7048679,79.6520755 36.4467547,82.3283019 37.4369434,82.785283 C38.3056226,83.1860377 39.1248679,81.7358491 39.455434,81.2584906 C40.3497736,79.9671698 42.8301509,75.9328302 42.8580755,75.2437736" id="Fill-134" fill="#67C773"></path>
            <path d="M44.5897358,70.1350566 C46.0621887,69.9373208 46.0591698,76.0026038 45.9969057,76.7595849 C45.5852075,76.480717 42.8153962,70.3739245 44.5897358,70.1350566" id="Fill-136" fill="#79C732"></path>
            <path d="M48.0235472,72.5945283 C49.2741132,72.4990566 48.976,77.6111321 48.8869434,78.2462264 C48.5537358,77.9915094 46.5163774,72.7096226 48.0235472,72.5945283" id="Fill-138" fill="#599948"></path>
            <path d="M45.9447547,76.4595094 C45.6258868,76.8410189 39.1368302,82.8696981 41.2081509,83.1715849 C42.8677736,83.4134717 45.3998491,77.4164906 45.9447547,76.4595094 C45.4549434,77.0459245 45.4809811,77.2734717 45.9447547,76.4595094" id="Fill-140" fill="#599948"></path>
            <path d="M48.6988679,78.0323396 C48.4479245,78.332717 43.6584906,82.9923396 45.2879245,83.2293208 C46.5935849,83.4195094 48.4966038,78.3764906 49.1460377,78.152717 C49.0977358,78.1696981 48.9445283,78.0308302 48.6988679,78.0323396" id="Fill-142" fill="#4CBD5A"></path>
            <path d="M38.5954717,34.5870943 C37.2656604,33.9501132 32.0671698,33.8561509 29.3343396,34.0976604 C28.5377358,34.1682264 24.2430189,34.8916226 24.8683019,36.092 C25.2656604,36.8553962 27.0867925,36.6297358 27.7743396,36.5606792 C28.9562264,36.4421887 38.5513208,34.6055849 38.5954717,34.5870943" id="Fill-144" fill="#599948"></path>
            <path d="M45.9683396,24.5063774 C47.0570189,26.1033585 39.1151321,32.8867547 38.1302264,33.9222264 C39.0204151,31.715434 44.299283,22.0573208 45.9683396,24.5063774" id="Fill-146" fill="#8DCF51"></path>
            <path d="M23.7206038,32.4099245 C23.9560755,34.4869057 34.4024906,31.5495472 36.1723019,30.0903019 C35.534566,30.6159623 23.3594717,29.2204906 23.7206038,32.4099245" id="Fill-148" fill="#72A863"></path>
            <path d="M43.5510943,18.2788679 C44.9616604,19.2539623 37.7352453,28.285283 35.8039245,29.8003774 C36.6371321,27.2588679 41.1144906,16.5943396 43.5510943,18.2788679" id="Fill-150" fill="#72A863"></path>
            <path d="M22.2058113,28.9149057 C24.0341132,30.4930189 32.2990189,27.6707547 34.0039245,26.4050943 C32.6556226,25.9983019 19.1597736,26.2858491 22.2058113,28.9149057" id="Fill-152" fill="#79C732"></path>
            <path d="M33.8591698,26.6651321 C34.6516226,22.9651321 37.8293585,13.4100377 39.8104906,15.1843774 C41.0629434,16.3062642 34.6655849,25.7923019 33.8591698,26.6651321" id="Fill-154" fill="#599948"></path>
            <path d="M31.7853585,23.1200377 C30.0970566,22.4589057 27.8657358,22.4355094 26.0778113,22.4226792 C24.5370566,22.4121132 22.9476226,22.4804151 21.4415849,22.8090943 C20.6442264,22.983434 18.7747925,23.9090943 19.3483774,25.028717 C19.968,26.2396604 22.6491321,25.3838113 23.5898868,25.1619245 C25.4347925,24.7264528 31.0370566,23.5902264 31.7853585,23.1200377" id="Fill-156" fill="#599948"></path>
            <path d="M36.1676981,12.2208679 C37.7209057,12.7563396 33.1144906,22.4778491 31.8235472,23.3763396 C32.145434,21.1812453 33.3929811,11.2642642 36.1676981,12.2208679" id="Fill-158" fill="#72A863"></path>
            <path d="M29.1891698,19.297434 C29.1891698,19.297434 18.0691698,17.5253585 18.2193585,20.8740377 C18.3650189,24.1283774 29.1891698,19.297434 29.1891698,19.297434" id="Fill-160" fill="#72A863"></path>
            <path d="M28.9111321,19.2668679 C29.6311321,16.7638491 30.319434,14.2193208 31.2749057,11.8057358 C31.5809434,11.0329057 32.379434,9.0789434 33.5549057,9.3989434 C35.4749057,9.92158491 31.3956604,16.5446038 30.7835849,17.4310189 C30.3130189,18.1117736 29.7688679,18.8668679 28.9111321,19.2668679" id="Fill-162" fill="#599948"></path>
            <path d="M27.1387547,16.9264151 C27.058,16.7396226 27.1496981,7.06264151 29.6787547,7.23811321 C32.2040377,7.41320755 27.8296981,16.2486792 27.1387547,16.9264151" id="Fill-164" fill="#4CBD5A"></path>
            <path d="M18.0556226,17.0480377 C18.4197736,18.6970943 26.3288302,17.1563396 27.3692075,16.8789811 C26.6699623,16.7804906 17.4020377,14.0876604 18.0556226,17.0480377" id="Fill-166" fill="#599948"></path>
            <path d="M22.4869811,11.2947925 C21.9345283,11.1808302 17.6884906,9.66875472 17.6756604,10.8268679 C17.6624528,11.9872453 19.9462264,11.8423396 20.5892453,11.7921509 C21.1311321,11.7498868 21.8986792,11.5510189 22.4869811,11.2947925" id="Fill-168" fill="#4CBD5A"></path>
            <path d="M24.8491698,14.012566 C23.9103019,13.4310566 21.6880377,12.9706792 20.8503019,12.8627547 C20.2046415,12.7793585 18.2684151,12.7736981 18.3238868,13.8721887 C18.3936981,15.2518113 23.0276604,14.6604906 24.8491698,14.012566" id="Fill-170" fill="#72A863"></path>
            <path d="M22.6601887,11.3548679 C22.3092453,10.4216604 21.3254717,6.13109434 22.8130189,5.77864151 C24.4062264,5.40090566 24.3224528,9.5514717 22.6601887,11.3548679" id="Fill-172" fill="#72A863"></path>
            <path d="M24.8003396,13.9381509 C24.7210943,12.7007925 24.536566,11.5060755 24.5720377,9.79626415 C24.5905283,8.88683019 24.6916604,7.39286792 25.6101509,6.84645283 C26.2418491,6.47098113 26.5127925,6.894 26.476566,7.62079245 C26.3592075,10.0068302 25.4263774,13.439283 24.8003396,13.9381509" id="Fill-174" fill="#599948"></path>
            <path d="M105.422943,70.3513962 C105.770491,70.0944151 108.802943,68.4449811 108.148981,67.8457358 C107.493509,67.2457358 106.409358,68.6219623 106.109358,69.0144151 C105.856151,69.3453585 105.57766,69.8849811 105.422943,70.3513962" id="Fill-176" fill="#599948"></path>
            <path d="M102.901547,70.3591321 C103.715887,70.1308302 105.127208,69.1157358 105.622302,68.6995094 C106.003811,68.378 107.010604,67.2889434 106.361925,66.7508302 C105.547585,66.0753585 103.480038,68.9961132 102.901547,70.3591321" id="Fill-178" fill="#4CBD5A"></path>
            <path d="M101.309584,70.4497736 C101.455245,70.3935472 106.684679,65.140717 105.229208,63.8550566 C103.775623,62.5716604 101.308075,69.7086415 101.309584,70.4497736" id="Fill-180" fill="#72A863"></path>
            <path d="M99.0410189,70.5260755 C99.0410189,70.5260755 104.593849,63.9268302 102.336491,62.703434 C100.142528,61.5143774 99.0410189,70.5260755 99.0410189,70.5260755" id="Fill-182" fill="#599948"></path>
            <path d="M95.707434,70.8308302 C96.7813962,69.9500755 97.6323396,68.4678113 98.3096981,67.278 C98.8942264,66.2523396 99.443283,65.1644151 99.7878113,64.0349811 C99.9700755,63.4372453 100.051208,61.8413962 99.0881887,61.8051698 C98.0470566,61.7663019 97.6153585,63.878 97.4115849,64.5900755 C97.0115849,65.9859245 95.6734717,70.1546038 95.707434,70.8308302" id="Fill-184" fill="#79C732"></path>
            <path d="M92.0451321,71.2247547 C93.0862642,70.3198491 98.1843774,61.6541887 95.2372075,62.5541887 C93.4681509,63.0949434 91.9213585,69.6028679 92.0451321,71.2247547 C92.8594717,70.5168302 91.974566,70.3024906 92.0451321,71.2247547" id="Fill-186" fill="#4CBD5A"></path>
            <path d="M91.1739623,62.4651698 C89.6520755,61.9678113 88.3724528,70.1802642 88.825283,71.878 C88.6622642,71.2659245 93.510566,63.228566 91.1739623,62.4651698" id="Fill-188" fill="#599948"></path>
            <path d="M85.1144869,72.4504528 C85.9182642,71.6247925 87.2880755,67.8100755 87.7929811,65.7338491 C87.9401509,65.128566 88.4797736,61.7813962 87.4363774,61.9489434 C86.7733585,62.0553585 86.4843019,63.4549811 86.3635472,63.9791321 C86.1552453,64.8802642 85.1122264,72.4134717 85.1144869,72.4504528" id="Fill-190" fill="#72A863"></path>
            <path d="M105.300226,70.4195472 C106.011925,70.6961509 108.962491,72.3282264 108.403245,73.3569057 C107.804755,74.4587925 105.479472,72.2897358 105.300226,70.4195472" id="Fill-192" fill="#599948"></path>
            <path d="M102.969019,70.3701887 C103.707887,70.9664151 104.477321,71.4815094 105.423736,72.3875472 C105.926755,72.869434 106.717321,73.7 106.549396,74.5015094 C106.434302,75.0524528 106.055434,74.9860377 105.663736,74.589434 C104.37883,73.2867925 102.926,70.9818868 102.969019,70.3701887" id="Fill-194" fill="#599948"></path>
            <path d="M100.605736,70.4070189 C101.114415,70.9402264 106.730264,75.3655094 104.595547,76.2798491 C103.406868,76.7889057 100.836302,71.1775849 100.544981,70.4062642 C100.918189,70.7972075 100.846491,71.044 100.605736,70.4070189" id="Fill-196" fill="#8DCF51"></path>
            <path d="M97.9866792,70.5717736 C99.4278113,71.9513962 100.908189,73.3242264 102.20517,74.8313962 C102.620264,75.3140377 103.661019,76.5517736 103.025547,77.2344151 C101.987434,78.3502642 98.9481887,73.2261132 98.5651698,72.4955472 C98.2708302,71.9336604 97.9523396,71.2959245 97.9866792,70.5717736" id="Fill-198" fill="#599948"></path>
            <path d="M100.267057,78.4715849 C99.2346038,79.1908302 95.2987547,71.9523396 95.3251698,70.747434 C96.5383774,71.9376226 102.111585,77.1866792 100.267057,78.4715849" id="Fill-200" fill="#599948"></path>
            <path d="M92.0790566,71.1330189 C94.2345283,73.07 99.3696226,78.8254717 97.4356604,79.4643396 C96.2126415,79.8684906 92.3515094,72.0013208 92.0790566,71.1330189" id="Fill-202" fill="#72A863"></path>
            <path d="M94.5020377,80.6270189 C93.3827925,81.3141887 89.2843019,73.4606038 88.8178868,71.6390943 C90.3427925,73.0077736 96.4352453,79.4394717 94.5020377,80.6270189" id="Fill-204" fill="#79C732"></path>
            <path d="M90.7804151,81.7351698 C89.1249434,82.1793208 85.7709811,73.5476226 85.1917358,72.4200755 C86.7789057,73.8110189 93.3185283,81.0544151 90.7804151,81.7351698" id="Fill-206" fill="#599948"></path>
            <path d="M83.9016981,62.5949057 C82.304717,61.4545283 81.89,72.0262264 81.7409434,73.0869811 C83.0092453,71.0122642 85.6918868,63.8733962 83.9016981,62.5949057" id="Fill-208" fill="#599948"></path>
            <path d="M81.7241509,73.0028302 C82.2709434,73.5515094 88.9441509,81.3790566 87.2554717,82.4869811 C85.5,83.639434 82.454717,74.275283 81.7241509,73.0028302 C82.2849057,73.5658491 82.0807547,73.6239623 81.7241509,73.0028302" id="Fill-210" fill="#599948"></path>
            <path d="M78.5254717,73.9569434 C79.1198113,72.5588302 80.5666038,66.595434 80.5971698,65.0056226 C80.604717,64.6335472 80.7213208,63.7222264 80.1835849,63.6603396 C79.8677358,63.6241132 79.3413208,63.906 79.0567925,64.4693962 C78.0884906,66.3875094 78.2503774,73.5897736 78.5254717,73.9569434" id="Fill-212" fill="#72A863"></path>
            <path d="M83.0467547,79.7967925 C83.4988302,80.5643396 85.2599623,83.4624528 83.3063774,82.6903774 C81.5139245,81.9820755 78.5622264,75.4028302 78.4920377,73.7567925 C79.0505283,74.3835849 81.7641132,77.6190566 83.0467547,79.7967925" id="Fill-214" fill="#8DCF51"></path>
            <path d="M75.6484528,66.2962642 C74.2227925,67.2253208 74.6084528,73.8196604 74.9933585,75.0030566 C75.7480755,73.2162642 78.1310943,64.6789057 75.6484528,66.2962642" id="Fill-216" fill="#79C732"></path>
            <path d="M80.3547547,82.9895849 C78.5762642,83.6771321 75.563434,75.2703396 74.7294717,74.996 C76.6207925,75.6178868 82.0955094,82.3167547 80.3547547,82.9895849" id="Fill-218" fill="#4CBD5A"></path>
            <path d="M72.6284906,69.0604906 C71.4518868,69.2808679 71.3937736,72.8035094 71.7473585,76.1533208 C71.7303774,75.9933208 74.6832075,68.6752075 72.6284906,69.0604906" id="Fill-220" fill="#599948"></path>
            <path d="M71.6309434,76.1245283 C72.9916981,77.1256604 74.0686792,78.3728302 75.1192453,79.6958491 C75.7841509,80.5328302 78.0418868,83.2086792 77.0516981,83.6656604 C76.1830189,84.0664151 75.3641509,82.6162264 75.0335849,82.1388679 C74.1392453,80.8475472 71.6584906,76.8132075 71.6309434,76.1245283" id="Fill-222" fill="#72A863"></path>
            <path d="M69.899283,71.0158113 C68.4268302,70.8176981 68.4298491,76.8829811 68.4921132,77.6399623 C68.9038113,77.3610943 71.6732453,71.2543019 69.899283,71.0158113" id="Fill-224" fill="#599948"></path>
            <path d="M66.4654717,73.4749057 C65.2149057,73.3798113 65.5130189,78.4918868 65.6020755,79.1269811 C65.935283,78.8718868 67.9722642,73.59 66.4654717,73.4749057" id="Fill-226" fill="#79C732"></path>
            <path d="M68.5755849,77.4972453 C68.8944528,77.8787547 75.3835094,83.907434 73.3121887,84.2093208 C71.6521887,84.4512075 69.1204906,78.4542264 68.5755849,77.4972453 C69.0657736,78.0836604 69.0393585,78.3112075 68.5755849,77.4972453" id="Fill-228" fill="#599948"></path>
            <path d="M65.7903396,78.912717 C66.0409057,79.2130943 70.8303396,83.872717 69.2009057,84.1096981 C67.8948679,84.2998868 65.9922264,79.2568679 65.3427925,79.0334717 C65.3910943,79.0500755 65.5446792,78.9112075 65.7903396,78.912717" id="Fill-230" fill="#599948"></path>
            <path d="M63.4991321,48.1473208 C64.3523396,49.2680755 59.3523396,52.1076981 58.6995094,52.4114717 C58.7361132,51.9416604 62.4708302,46.7971321 63.4991321,48.1473208" id="Fill-232" fill="#79C732"></path>
            <path d="M63.8136604,53.0529811 C64.6668679,54.1737358 59.6668679,57.0133585 59.0140377,57.3171321 C59.0506415,56.8473208 62.7853585,51.7027925 63.8136604,53.0529811" id="Fill-234" fill="#72A863"></path>
            <path d="M64.4478491,57.6457736 C65.1501132,58.8665283 59.826717,61.0404906 59.1403019,61.2578491 C59.2369057,60.796717 63.6018113,56.1748302 64.4478491,57.6457736" id="Fill-236" fill="#72A863"></path>
            <path d="M53.7415849,58.8906038 C53.0887547,60.1385283 58.4947925,62.0977736 59.1895094,62.2875849 C59.0740377,61.8302264 54.5283774,57.3868302 53.7415849,58.8906038" id="Fill-238" fill="#72A863"></path>
            <path d="M63.9315849,62.1331698 C64.5595094,63.2244906 59.8010189,65.1675094 59.187434,65.3618491 C59.2738491,64.9493962 63.1753585,60.8184528 63.9315849,62.1331698" id="Fill-240" fill="#599948"></path>
            <path d="M53.8359245,62.334 C53.1830943,63.5819245 58.5891321,65.5411698 59.2838491,65.7309811 C59.1683774,65.2736226 54.622717,60.8302264 53.8359245,62.334" id="Fill-242" fill="#79C732"></path>
            <path d="M63.0716226,43.6190189 C64.1629434,44.6956226 59.0048302,48.8510943 58.3478491,49.2782642 C58.3153962,48.766566 61.7569057,42.3216604 63.0716226,43.6190189" id="Fill-244" fill="#599948"></path>
            <path d="M52.6364151,55.0613585 C52.0288679,56.4685283 58.3696226,58.3843774 59.1386792,58.5338113 C58.9767925,58.0470189 53.3681132,53.3655094 52.6364151,55.0613585" id="Fill-246" fill="#79C732"></path>
            <path d="M58.742717,53.7955094 C58.2596981,53.6298491 50.3461132,49.9581509 50.8155472,52.0566415 C51.1917736,53.7377736 58.2291321,53.7090943 58.8038491,54.3970189 C58.7612075,54.3460755 58.8593208,54.0947547 58.742717,53.7955094" id="Fill-248" fill="#4CBD5A"></path>
            <path d="M48.084717,47.7563019 C48.6349057,49.8755472 57.1330189,49.8834717 58.5609434,50.0540377 C57.6069811,49.7615849 47.3979245,45.1110189 48.084717,47.7563019" id="Fill-250" fill="#72A863"></path>
            <path d="M64.2633962,38.8876604 C64.9498113,40.2484151 61.4309434,43.0303019 57.7686792,45.2608679 C57.9433962,45.1540755 63.0649057,36.5110566 64.2633962,38.8876604" id="Fill-252" fill="#8DCF51"></path>
            <path d="M58.0123019,45.7309434 C56.0738113,44.6784906 54.0024906,44.0981132 51.8560755,43.5901887 C50.4979623,43.269434 46.0821132,42.0860377 46.0919245,43.509434 C46.1002264,44.7584906 48.2689057,44.9218868 49.0164528,45.0475472 C51.038717,45.3875472 57.1824906,46.0807547 58.0123019,45.7309434" id="Fill-254" fill="#599948"></path>
            <path d="M64.2309811,34.0015094 C64.4860755,35.925283 58.4913585,40.4890566 57.1815472,41.0350943 C58.1679623,39.054717 63.7868302,30.6513208 64.2309811,34.0015094" id="Fill-256" fill="#599948"></path>
            <path d="M44.4559623,40.8186792 C45.0744528,43.23 56.2929434,40.0541509 57.2170943,40.7322642 C55.1216226,39.1941509 43.8506792,38.4583019 44.4559623,40.8186792" id="Fill-258" fill="#599948"></path>
            <path d="M54.254566,28.9919245 C54.5224906,27.5115472 57.5364528,23.1628679 59.3598491,21.0511698 C59.8915472,20.4353208 63.0390943,17.3228679 63.6523019,18.558717 C64.0421132,19.3443774 62.7741887,20.7130566 62.3089057,21.2390943 C61.5089057,22.144 54.2956981,28.9666415 54.254566,28.9919245" id="Fill-260" fill="#4CBD5A"></path>
            <path d="M40.0910943,29.4489057 C40.8752453,31.5447547 52.5910943,28.5609811 54.2280755,28.3213585 C51.546566,27.6896604 38.8888302,26.2356981 40.0910943,29.4489057" id="Fill-262" fill="#599948"></path>
            <path d="M65.0102264,23.2763019 C67.434,24.1083774 56.5143774,32.5683774 55.5007925,33.5313962 C56.743434,30.6102642 62.294,22.3438491 65.0102264,23.2763019" id="Fill-264" fill="#72A863"></path>
            <path d="M41.2233585,32.5986038 C40.9467547,35.3265283 53.6271321,33.2133208 55.540717,33.2929434 C54.5509057,32.9827547 41.4897736,29.9755849 41.2233585,32.5986038" id="Fill-266" fill="#79C732"></path>
            <path d="M56.3786792,37.2296981 C57.37,35.5123396 62.455283,29.3210189 64.0892453,28.0410189 C64.4718868,27.7410189 65.3307547,26.9040377 65.8179245,27.4164906 C66.1032075,27.7172453 66.2220755,28.4878113 65.8583019,29.2266792 C64.6171698,31.743283 56.9767925,37.2281887 56.3786792,37.2296981" id="Fill-268" fill="#599948"></path>
            <path d="M46.6736981,35.6812075 C45.5103019,35.6729057 41.0842642,35.5800755 43.2348302,37.2815849 C45.2084151,38.8430943 54.5721887,37.8713962 56.4782264,36.873283 C55.4042642,36.6529057 49.9736981,35.7046038 46.6736981,35.6812075" id="Fill-270" fill="#72A863"></path>
            <path d="M60.7404151,14.4050566 C62.4230566,15.6446792 54.6672075,23.2341132 52.5196604,24.0409057 C53.294,23.7503396 58.1558868,12.501283 60.7404151,14.4050566" id="Fill-272" fill="#79C732"></path>
            <path d="M38.7756981,24.5830189 C38.8938113,26.2932075 50.3485283,24.6909434 52.6375849,23.8045283 C50.0270189,23.2230189 38.5711698,21.6279245 38.7756981,24.5830189" id="Fill-274" fill="#599948"></path>
            <path d="M57.7517736,10.1630943 C58.5196981,12.4529057 52.777434,19.033283 50.9600755,20.1317736 C51.0944151,18.7298868 56.4725283,6.34875472 57.7517736,10.1630943" id="Fill-276" fill="#599948"></path>
            <path d="M51.0085283,19.766566 C47.3149434,18.9458113 37.3043774,17.8552453 38.0919245,20.3948679 C38.5904151,22.0009057 49.8790943,20.136 51.0085283,19.766566" id="Fill-278" fill="#599948"></path>
            <path d="M48.9308302,15.8706415 C49.0519623,14.0619623 49.9813962,12.033283 50.7315849,10.4102642 C51.3783774,9.01139623 52.1176226,7.60271698 53.0564906,6.38045283 C53.5538491,5.73290566 55.1878113,4.43630189 55.9564906,5.43215094 C56.7878113,6.50837736 54.8715849,8.56950943 54.2696981,9.32611321 C53.0896981,10.8098868 49.6749811,15.3940377 48.9308302,15.8706415" id="Fill-280" fill="#79C732"></path>
            <path d="M37.3530189,16.8221132 C37.3718868,18.4651321 48.0492453,17.1556981 49.3092453,16.2138113 C47.1243396,15.8273962 37.319434,13.8873962 37.3530189,16.8221132" id="Fill-282" fill="#67C773"></path>
            <path d="M46.8909057,12.0270189 C46.8909057,12.0270189 49.691283,1.12060377 52.7033585,2.59079245 C55.6309057,4.02022642 46.8909057,12.0270189 46.8909057,12.0270189" id="Fill-284" fill="#72A863"></path>
            <path d="M47.6655472,13.2287547 C45.1066792,12.7442264 42.5247925,12.2121509 39.9395094,11.9778113 C39.1115849,11.9023396 37.007434,11.7355472 36.7636604,12.9291321 C36.3655472,14.878566 44.1157358,14.2208302 45.1825283,14.073283 C46.0029057,13.9596981 46.9221509,13.8147925 47.6655472,13.2287547" id="Fill-286" fill="#599948"></path>
            <path d="M45.2038491,9.44041509 C45.1536604,9.24343396 46.7683774,-0.29845283 49.2381887,0.273245283 C51.7046038,0.843811321 45.9929057,8.88003774 45.2038491,9.44041509" id="Fill-288" fill="#4CBD5A"></path>
            <path d="M36.6578491,10.536 C37.0189811,12.1858113 44.9310566,10.6605283 45.9721887,10.3850566 C45.2729434,10.2850566 36.0099245,7.57411321 36.6578491,10.536" id="Fill-290" fill="#599948"></path>
            <path d="M42.0701887,5.18369811 C42.08,4.61992453 41.5320755,0.145584906 42.6649057,0.386339623 C43.7996226,0.62709434 43.1596226,2.82369811 42.9701887,3.44030189 C42.810566,3.96030189 42.4486792,4.66558491 42.0701887,5.18369811" id="Fill-292" fill="#79C732"></path>
            <path d="M43.9746792,7.86871698 C43.5995849,6.82984906 43.6075094,4.56041509 43.6750566,3.71890566 C43.7267547,3.0694717 44.1203396,1.174 45.1837358,1.45513208 C46.5192075,1.80758491 44.9844906,6.22003774 43.9746792,7.86871698" id="Fill-294" fill="#72A863"></path>
            <path d="M42.0910189,5.36577358 C41.257434,4.81973585 37.2853585,2.922 36.6159245,4.29671698 C35.8993208,5.76879245 39.968,6.59407547 42.0910189,5.36577358" id="Fill-296" fill="#72A863"></path>
            <path d="M43.9118491,7.80569811 C42.7175094,7.47249057 41.586566,7.04569811 39.906566,6.72758491 C39.0126038,6.55815094 37.5303396,6.34871698 36.8058113,7.13513208 C36.3080755,7.67513208 36.6658113,8.02758491 37.3846792,8.14267925 C39.7435472,8.51966038 43.2948679,8.31550943 43.9118491,7.80569811" id="Fill-298" fill="#79C732"></path>
            <path d="M91.3655849,7.54218868 C91.3576604,6.97841509 91.9150189,2.50558491 90.781434,2.74332075 C89.6459623,2.98181132 90.281434,5.17992453 90.4693585,5.79690566 C90.6282264,6.31690566 90.9882264,7.02332075 91.3655849,7.54218868" id="Fill-300" fill="#72A863"></path>
            <path d="M89.4552075,10.2227925 C89.832566,9.1850566 89.8295472,6.91562264 89.7642642,6.07373585 C89.7140755,5.42467925 89.3246415,3.52807547 88.2604906,3.80656604 C86.9242642,4.15675472 88.4491698,8.57184906 89.4552075,10.2227925" id="Fill-302" fill="#599948"></path>
            <path d="M88.3401132,11.9806038 C88.3910566,11.784 86.7974717,2.23909434 84.3261509,2.80475472 C81.8586038,3.37003774 87.552566,11.418717 88.3401132,11.9806038" id="Fill-304" fill="#79C732"></path>
            <path d="M86.6946792,14.4459623 C86.6946792,14.4459623 83.9188302,3.53313208 80.9029811,4.99728302 C77.9724151,6.41954717 86.6946792,14.4459623 86.6946792,14.4459623" id="Fill-306" fill="#599948"></path>
            <path d="M84.4813962,18.214 C84.3640377,16.4049434 83.4391321,14.374 82.692717,12.7498491 C82.0489434,11.3494717 81.3130943,9.93890566 80.3768679,8.71437736 C79.8810189,8.06607547 78.2496981,6.76569811 77.4787547,7.75966038 C76.6451698,8.83475472 78.5568679,10.8996604 79.1572453,11.6577736 C80.3338491,13.1438113 83.738,17.7358868 84.4813962,18.214" id="Fill-308" fill="#72A863"></path>
            <path d="M82.112566,22.3992075 C81.9450189,20.606 76.6310566,8.60373585 75.3431321,12.415434 C74.5703019,14.7037358 80.2974717,21.296566 82.112566,22.3992075 C81.9812453,20.9969434 81.0808679,21.7724151 82.112566,22.3992075" id="Fill-310" fill="#79C732"></path>
            <path d="M72.1564151,16.6581509 C70.4707547,17.894 78.21,25.5011698 80.3560377,26.3121132 C79.5824528,26.0200377 74.7450943,14.7604151 72.1564151,16.6581509" id="Fill-312" fill="#599948"></path>
            <path d="M78.1396226,30.6845283 C77.8750943,29.2037736 74.870566,24.8479245 73.0520755,22.7328302 C72.5215094,22.1154717 69.3811321,18.9958491 68.7649057,20.2301887 C68.3735849,21.0150943 69.6384906,22.3867925 70.1022642,22.9135849 C70.9003774,23.8203774 78.0984906,30.6592453 78.1396226,30.6845283" id="Fill-314" fill="#72A863"></path>
            <path d="M91.3446038,7.72426415 C92.1796981,7.18011321 96.1559245,5.29143396 96.8219623,6.66728302 C97.5351698,8.14086792 93.4646038,8.9574717 91.3446038,7.72426415" id="Fill-316" fill="#599948"></path>
            <path d="M89.5182264,10.1601132 C90.7133208,9.82992453 91.8453962,9.40539623 93.5257736,9.09067925 C94.4201132,8.92350943 95.9031321,8.7174717 96.6257736,9.50501887 C97.1223774,10.0465283 96.7635094,10.3978491 96.0446415,10.511434 C93.6850189,10.8831321 90.1344528,10.6710566 89.5182264,10.1601132" id="Fill-318" fill="#72A863"></path>
            <path d="M87.7589434,12.6951321 C88.7117736,12.5615472 97.6800755,9.97022642 97.0257358,12.9306038 C96.6612075,14.5796604 88.7525283,13.0366415 87.7117736,12.7589057 C88.4113962,12.6604151 88.6178113,12.924566 87.7589434,12.6951321" id="Fill-320" fill="#72A863"></path>
            <path d="M85.9410566,15.5990189 C88.5010566,15.1197736 91.0840755,14.5937358 93.6697358,14.3646792 C94.4984151,14.2914717 96.6029434,14.1288302 96.8440755,15.3231698 C97.2376604,17.2733585 89.4886038,16.5986415 88.4221887,16.4488302 C87.6021887,16.3337358 86.6833208,16.186566 85.9410566,15.5990189" id="Fill-322" fill="#79C732"></path>
            <path d="M96.0571698,19.1909434 C96.0345283,20.8339623 85.3601887,19.5007547 84.1024528,18.5558491 C86.2877358,18.174717 96.0971698,16.2566038 96.0571698,19.1909434" id="Fill-324" fill="#599948"></path>
            <path d="M82.0410943,22.2934717 C85.736566,21.4806415 95.7493962,20.4123396 94.9561887,22.9500755 C94.4543019,24.5549811 83.1693962,22.6651698 82.0410943,22.2934717" id="Fill-326" fill="#72A863"></path>
            <path d="M93.9569811,26.9470566 C93.8350943,28.6572453 82.3837736,27.0300755 80.0969811,26.1376226 C82.7086792,25.5621509 94.1679245,23.992717 93.9569811,26.9470566" id="Fill-328" fill="#4CBD5A"></path>
            <path d="M92.3009057,31.7388302 C91.5122264,33.8327925 79.8027925,30.8229811 78.166566,30.5799623 C80.8488302,29.9543019 93.5099623,28.5282642 92.3009057,31.7388302" id="Fill-330" fill="#599948"></path>
            <path d="M66.7610189,24.4721132 C64.3353585,25.2985283 75.2361132,33.7830566 76.2478113,34.7475849 C75.0112075,31.8238113 69.4791321,23.5456981 66.7610189,24.4721132" id="Fill-332" fill="#599948"></path>
            <path d="M76.1459623,34.7016981 C77.1440755,34.539434 90.5255849,33.4160377 90.4165283,36.05 C90.3029434,38.7896226 78.0516226,34.895283 76.1459623,34.7016981 C77.1697358,34.535283 77.0765283,34.7960377 76.1459623,34.7016981" id="Fill-334" fill="#79C732"></path>
            <path d="M74.7235094,38.8213413 C73.6933208,37.1273585 68.467283,31.0545283 66.8042642,29.8122642 C66.4144528,29.5209434 65.5363396,28.7035849 65.0616226,29.2277358 C64.7827547,29.5349057 64.682,30.3077358 65.0627547,31.0383019 C66.3612453,33.5254717 74.1253962,38.8333962 74.7235094,38.8213413" id="Fill-336" fill="#67C773"></path>
            <path d="M84.3597736,38.4682642 C85.5182642,38.5724151 89.9329811,38.9093962 87.6273208,40.3943019 C85.5118491,41.7573208 76.2861887,39.8826038 74.4858113,38.7044906 C75.5763774,38.5890189 81.0733585,38.1720377 84.3597736,38.4682642" id="Fill-338" fill="#599948"></path>
            <path d="M64.0970189,35.6321887 C63.9973962,37.851434 71.2875849,42.4604906 72.8355094,42.9521887 C71.514,40.7921887 64.2702264,31.7676604 64.0970189,35.6321887" id="Fill-340" fill="#79C732"></path>
            <path d="M85.3624906,43.5884151 C84.738717,45.9986038 73.5273962,42.7978491 72.6017358,43.4740755 C74.7006038,41.9404906 85.9730566,41.2295472 85.3624906,43.5884151" id="Fill-342" fill="#599948"></path>
            <path d="M64.2980377,41.1212075 C63.6369057,42.5370566 67.3297358,45.2796981 71.1527547,47.4525283 C70.9697358,47.3491321 65.4531321,38.648 64.2980377,41.1212075" id="Fill-344" fill="#599948"></path>
            <path d="M70.9616981,47.3896226 C73.0598113,46.7077358 75.2020755,46.5149057 77.404717,46.4066038 C78.7990566,46.3379245 83.3564151,45.9790566 83.0873585,47.3771698 C82.8515094,48.6035849 80.6896226,48.3696226 79.9318868,48.3567925 C77.8813208,48.3224528 71.7137736,47.884717 70.9616981,47.3896226" id="Fill-346" fill="#67C773"></path>
            <path d="M63.3084151,45.137283 C61.9778491,46.5486038 68.4148302,51.1606792 69.26545,51.6704906 C69.2831321,51.0218113 64.9118113,43.4365283 63.3084151,45.137283" id="Fill-348" fill="#599948"></path>
            <path d="M62.3556226,50.9181509 C61.3027925,52.1724906 66.9529811,55.7460755 67.6944906,56.1347547 C67.6775094,55.5872075 63.6243019,49.4068302 62.3556226,50.9181509" id="Fill-350" fill="#599948"></path>
            <path d="M69.2414717,51.5951321 C69.8890189,51.5472075 81.2229811,49.2506038 79.9667547,51.6777736 C78.9603396,53.6223019 70.6716604,51.7453208 69.2414717,51.5951321 C70.236566,51.5215472 70.4584528,51.7230566 69.2414717,51.5951321" id="Fill-352" fill="#8DCF51"></path>
            <path d="M67.8042642,55.6082264 C68.3136981,55.5701132 76.9012453,54.0346415 75.9129434,55.9440755 C75.1212453,57.4738868 68.3231321,55.6553962 67.5921887,56.1742642 C67.6465283,56.1353962 67.6155849,55.8674717 67.8042642,55.6082264" id="Fill-354" fill="#599948"></path>
            <path d="M115.214717,48.2659623 C115.593208,47.8482264 119.051698,44.9580377 118.060755,44.3587925 C117.067925,43.7587925 116.033208,45.7991698 115.749811,46.3784151 C115.510943,46.8670943 115.292453,47.6293585 115.214717,48.2659623" id="Fill-356" fill="#599948"></path>
            <path d="M111.941962,48.64 C112.925358,48.1388679 114.471396,46.4773585 114.998189,45.8169811 C115.404226,45.3079245 116.413283,43.6554717 115.444981,43.1332075 C114.229132,42.4777358 112.332151,46.7464151 111.941962,48.64" id="Fill-358" fill="#67C773"></path>
            <path d="M109.549925,48.834566 C109.721245,48.7251321 115.067283,40.658717 112.874453,39.3866415 C110.684642,38.1168302 109.357094,47.8858868 109.549925,48.834566" id="Fill-360" fill="#79C732"></path>
            <path d="M106.688792,49.160717 C106.688792,49.160717 112.103132,39.2878868 108.899358,38.3010943 C105.785774,37.3422264 106.688792,49.160717 106.688792,49.160717" id="Fill-362" fill="#72A863"></path>
            <path d="M102.311208,49.9817736 C103.459509,48.5791321 104.168566,46.463283 104.73083,44.7663019 C105.214981,43.303283 105.639132,41.7696981 105.790075,40.2357358 C105.869698,39.4236604 105.564038,37.3598868 104.322151,37.5606415 C102.979509,37.778 102.968566,40.5919623 102.890075,41.5561132 C102.736868,43.4451698 102.093849,49.1251698 102.311208,49.9817736" id="Fill-364" fill="#599948"></path>
            <path d="M100.033434,39.2753208 C97.8677736,40.3443774 97.2470189,49.0556981 97.7489057,51.1194717 C98.6485283,50.0360755 103.641358,37.4938113 100.033434,39.2753208" id="Fill-366" fill="#599948"></path>
            <path d="M94.5727925,39.752566 C92.4969434,39.5069057 92.9667547,50.3480377 93.9829811,52.4050189 C93.616566,51.6635094 97.7599623,40.1306792 94.5727925,39.752566" id="Fill-368" fill="#599948"></path>
            <path d="M89.4423396,53.9016604 C90.2589434,52.6382642 91.033283,47.4039245 91.1468679,44.6167547 C91.1796981,43.8031698 91.0113962,39.3801509 89.7189434,39.8624151 C88.897434,40.1692075 88.8864906,42.0348679 88.8664906,42.7371321 C88.8313962,43.9443019 89.4295094,53.8548679 89.4423396,53.9016604" id="Fill-370" fill="#79C732"></path>
            <path d="M115.074679,48.3378113 C116.056943,48.5091321 120.252415,49.8404528 119.800717,51.3012075 C119.317321,52.8653585 115.784113,50.6857358 115.074679,48.3378113" id="Fill-372" fill="#599948"></path>
            <path d="M112.077585,48.4833962 C113.064377,49.0513208 114.080981,49.5128302 115.359472,50.4139623 C116.039849,50.8935849 117.116453,51.7377358 116.993434,52.7573585 C116.909283,53.4584906 116.428906,53.4603774 115.897585,53.0603774 C114.152679,51.7471698 112.090038,49.2430189 112.077585,48.4833962" id="Fill-374" fill="#599948"></path>
            <path d="M109.472528,48.6208302 C110.137811,49.2378113 116.939321,53.6710189 114.266491,55.0657358 C112.777811,55.842717 109.794038,49.5691321 109.39517,48.6264906 C109.883472,49.0793208 109.801585,49.3989434 109.472528,48.6208302" id="Fill-376" fill="#72A863"></path>
            <path d="M105.921547,49.1655094 C107.784943,50.8349434 112.285321,55.0658868 111.153245,56.1979623 C109.74683,57.6043774 107.193623,52.5006038 106.692491,51.5907925 C106.30683,50.8907925 106.058906,50.2228679 105.921547,49.1655094" id="Fill-378" fill="#599948"></path>
            <path d="M108.040113,58.2733208 C106.77634,59.3231321 101.879358,51.5631321 101.780868,49.9933208 C103.490302,51.407283 110.297472,56.3974717 108.040113,58.2733208" id="Fill-380" fill="#72A863"></path>
            <path d="M97.4195472,51.1182642 C100.513509,53.2782642 107.174264,58.8786415 104.644075,60.1601509 C103.044075,60.9699623 97.8750189,52.2356226 97.4195472,51.1182642" id="Fill-382" fill="#79C732"></path>
            <path d="M100.775962,61.7638868 C99.4076604,62.796717 94.3242642,54.6650189 93.491434,52.3555849 C95.6435094,53.9442642 103.140491,59.9793585 100.775962,61.7638868" id="Fill-384" fill="#4CBD5A"></path>
            <path d="M96.0589811,63.6506792 C93.9699245,64.4518113 89.8552075,55.4389811 88.9499245,54.0540755 C91.1997358,55.6438868 99.262,62.4216226 96.0589811,63.6506792" id="Fill-386" fill="#72A863"></path>
            <path d="M85.1712453,41.9743396 C82.8338868,40.9241509 85.017283,54.5637736 85.0987925,55.9596226 C86.1889811,52.9781132 87.7908679,43.1509434 85.1712453,41.9743396" id="Fill-388" fill="#4CBD5A"></path>
            <path d="M84.4946415,56.2914717 C85.3157736,56.8816604 94.0353962,63.7503396 92.0969057,65.5375094 C90.0810566,67.396 85.706717,57.7744906 84.4946415,56.2914717 C85.3365283,56.8967547 85.0863396,57.0156226 84.4946415,56.2914717" id="Fill-390" fill="#599948"></path>
            <path d="M81.3939623,58.0872453 C81.7958491,56.1453585 82.1173585,48.1400755 81.7486792,46.097434 C81.6622642,45.618566 81.5777358,44.4223396 80.8732075,44.4808302 C80.46,44.5155472 79.8588679,45.0121509 79.6392453,45.8061132 C78.8916981,48.5102642 80.9479245,57.688 81.3939623,58.0872453" id="Fill-392" fill="#599948"></path>
            <path d="M87.4029811,64.4898113 C88.1546792,65.3777358 89.360717,67.7543396 86.9078868,66.6222642 C84.6233585,65.5675472 81.0901509,60.5649057 80.6343019,58.4618868 C81.4924151,59.1449057 85.2701509,61.9716981 87.4029811,64.4898113" id="Fill-394" fill="#79C732"></path>
            <path d="M75.8622264,49.8269811 C74.275434,51.3816981 76.4263774,59.4990566 77.2226038,60.9149057 C77.7301509,58.4337736 78.6248679,47.1190566 75.8622264,49.8269811" id="Fill-396" fill="#599948"></path>
            <path d="M83.7004906,68.6035094 C81.2476604,70.0186038 77.6506792,61.3408679 76.5193585,61.1559623 C79.0846415,61.5759623 85.811434,67.3853962 83.7004906,68.6035094" id="Fill-398" fill="#599948"></path>
            <path d="M72.6421132,55.0469811 C71.1926792,55.6311321 72.0217358,60.155283 73.3349434,64.3522642 C73.2723019,64.1518868 75.1738113,54.0266038 72.6421132,55.0469811" id="Fill-400" fill="#8DCF51"></path>
            <path d="M73.3673585,64.0789057 C75.1790566,64.7547547 76.7107547,65.8547547 78.3262264,66.9173962 C81.2477358,68.839283 80.2718868,71.504566 77.71,69.6411698 C75.6345283,68.1317358 73.6137736,64.828717 73.3673585,64.0789057" id="Fill-402" fill="#599948"></path>
            <path d="M70.0909057,59.038 C68.1550566,59.1621509 69.7161887,66.9255472 69.9893962,67.8787547 C70.4452453,67.4161132 72.4233585,58.8881887 70.0909057,59.038" id="Fill-404" fill="#599948"></path>
            <path d="M67.0543396,63.778566 C65.4286792,63.977434 67.1226415,70.4449811 67.3996226,71.2347925 C67.7611321,70.822717 69.0128302,63.538566 67.0543396,63.778566" id="Fill-406" fill="#4CBD5A"></path>
            <path d="M69.9976604,67.7780377 C70.4474717,67.9950189 78.1274717,70.3636981 76.3569057,71.4965283 C74.9380377,72.4048302 70.7591698,68.3312453 69.9976604,67.7780377" id="Fill-408" fill="#599948"></path>
            <path d="M67.6008679,70.6572453 C67.9348302,70.7983774 73.8536981,72.6112075 72.6110566,73.4964906 C71.6155849,74.2059245 67.9133208,70.8549811 67.2835094,70.9459245 C67.3303019,70.9391321 67.3978491,70.7598868 67.6008679,70.6572453" id="Fill-410" fill="#72A863"></path>
            <path d="M92.0576604,6.44181132 C84.9116226,15.257283 79.9535094,25.7448302 75.4950189,36.1112453 C71.1176604,46.2897358 67.0942642,56.6286038 63.4655849,67.0976604 C61.5935094,72.4987925 59.7738868,77.9474717 58.4244528,83.5059623 C58.3670943,83.7421887 58.7308679,83.842566 58.7882264,83.6063396 C61.3418113,73.0889811 65.2444528,62.8380377 69.1263396,52.7546415 C72.8516226,43.0784151 76.7636981,33.4074717 81.4508679,24.1512453 C84.5440755,18.0421887 88.0029434,12.0399245 92.3244528,6.70860377 C92.4761509,6.52143396 92.2108679,6.25275472 92.0576604,6.44181132" id="Fill-412" fill="#397B3B"></path>
            <path d="M41.3031321,4.63316981 C48.2982264,12.6935472 52.5601132,22.8226038 55.2280377,33.0622264 C58.051434,43.8969434 59.1891698,55.186 58.9736981,66.3697736 C58.8616226,72.1878868 58.3684151,78.0044906 57.3865283,83.7418491 C57.3461509,83.9795849 57.7095472,84.0814717 57.7503019,83.8422264 C59.5669057,73.2267547 59.8080377,62.3180755 58.8065283,51.6052453 C57.7695472,40.5124151 55.3823774,29.3841132 50.8155849,19.1826038 C48.4284151,13.8497736 45.4061509,8.78713208 41.5699245,4.36637736 C41.4106792,4.18260377 41.1446415,4.4505283 41.3031321,4.63316981" id="Fill-414" fill="#397B3B"></path>
            <path d="M56.5857736,83.7719245 C55.7918113,80.5881509 53.922,77.7115472 51.9687925,75.1224906 C49.3386038,71.6364528 46.2853962,68.4738113 43.0823774,65.5130566 C36.0499245,59.0126792 28.1318113,53.2183396 19.6046415,48.833434 C15.8231321,46.8889057 11.7933208,45.1130566 7.57332075,44.4066415 C7.33558491,44.3666415 7.23369811,44.7300377 7.4729434,44.7704151 C11.1280377,45.3824906 14.6287925,46.8141887 17.9461509,48.4251321 C22.0487925,50.4175849 25.9638868,52.7941887 29.7246415,55.3689057 C37.3604906,60.5975849 44.7057736,66.7062642 50.5518113,73.9198491 C52.9223774,76.8451321 55.296717,80.1624906 56.222,83.8723019 C56.2804906,84.1077736 56.6446415,84.0077736 56.5857736,83.7719245" id="Fill-416" fill="#397B3B"></path>
            <path d="M55.9390566,83.6967547 C54.3666038,81.086566 51.7360377,79.2639245 49.0983019,77.8503396 C45.5658491,75.9575094 41.7239623,74.6548679 37.8707547,73.5918491 C29.3409434,71.2386415 20.464717,69.9937358 11.6462264,69.4005283 C7.94207547,69.1514717 4.20283019,68.9918491 0.493018868,69.2167547 C0.251886792,69.2310943 0.25,69.6084528 0.493018868,69.5941132 C7.74698113,69.1548679 15.1609434,69.8846792 22.339434,70.8767547 C30.7662264,72.041283 39.5081132,73.6944906 47.2533962,77.3458113 C50.4209434,78.8390189 53.7583019,80.8080755 55.6133962,83.8873208 C55.7383019,84.0952453 56.064717,83.9058113 55.9390566,83.6967547" id="Fill-418" fill="#397B3B"></path>
            <path d="M117.285396,48.0846415 C106.737849,48.111434 96.0374717,50.4695472 86.5080377,55.012566 C82.6231321,56.8650189 78.8959623,59.1363396 75.576717,61.8853962 C72.7038868,64.2646415 70.2257736,67.0442642 67.951434,69.991434 C64.7201132,74.1774717 61.7616226,78.5706792 58.6321887,82.8321887 C58.4884151,83.0280377 58.8155849,83.216717 58.9578491,83.0223774 C63.9050189,76.2861509 68.3487925,68.8257736 74.6235094,63.2031321 C81.5069057,57.0355849 90.3106792,53.1442642 99.182,50.8401132 C105.090302,49.3053962 111.179736,48.4774717 117.285396,48.462 C117.528415,48.4612453 117.528792,48.0838868 117.285396,48.0846415" id="Fill-420" fill="#397B3B"></path>
            <path d="M58.7397736,83.831283 C69.5050566,74.9120377 84.0899623,71.8309057 97.710717,70.866 C100.897132,70.6399623 104.091094,70.5392075 107.285434,70.5373208 C107.528453,70.5373208 107.52883,70.1599623 107.285434,70.1599623 C94.2084528,70.1686415 80.5703396,71.6739245 68.5944906,77.2422264 C64.9726038,78.926 61.550717,81.0143019 58.4729811,83.5644906 C58.2858113,83.7192075 58.5541132,83.9848679 58.7397736,83.831283" id="Fill-422" fill="#397B3B"></path>
            <path d="M53.0909811,53.5858491 C54.0524906,54.6149057 49.3641887,57.9435849 48.7449173,58.3111321 C48.7343774,57.8398113 51.9321132,52.3458491 53.0909811,53.5858491" id="Fill-424" fill="#72A863"></path>
            <path d="M53.6761887,57.1040377 C54.7735472,57.9870566 50.6010943,61.943283 50.0399623,62.3949811 C49.9629811,61.9296981 52.3543019,56.0398868 53.6761887,57.1040377" id="Fill-426" fill="#599948"></path>
            <path d="M52.3819623,49.653434 C53.4438491,50.758717 48.1770566,54.7749434 47.5087547,55.1847547 C47.4902642,54.6723019 51.1023396,48.3217358 52.3819623,49.653434" id="Fill-428" fill="#599948"></path>
            <path d="M43.2096604,60.6189434 C42.918717,62.1238491 49.5224906,62.6336604 50.3062642,62.6144151 C50.0432453,62.1736604 43.5602264,58.8057358 43.2096604,60.6189434" id="Fill-430" fill="#599948"></path>
            <path d="M48.7699623,58.5206038 C48.2729811,58.404 40.0295849,55.5477736 40.7080755,57.5881509 C41.2518491,59.2228679 48.2503396,58.4862642 48.8914717,59.1126792 C48.8435472,59.0662642 48.916,58.8062642 48.7699623,58.5206038" id="Fill-432" fill="#79C732"></path>
            <path d="M37.0549057,53.9620755 C37.8156604,56.0149057 46.2715094,55.1673585 47.7092453,55.1937736 C46.7311321,54.9986792 36.1054717,51.399434 37.0549057,53.9620755" id="Fill-434" fill="#72A863"></path>
            <path d="M35.8704906,50.1601132 C36.061434,51.6721887 41.9795472,51.892566 46.2633208,51.6963396 C46.0587925,51.7061509 35.5369057,47.5193585 35.8704906,50.1601132" id="Fill-436" fill="#72A863"></path>
            <path d="M46.135283,51.5310189 C47.1549057,49.5747925 48.5488679,47.9366792 50.0454717,46.3166792 C50.9922642,45.2913962 53.9937736,41.8430943 54.7809434,43.0291321 C55.4715094,44.0698868 53.764717,45.4170566 53.2149057,45.9389434 C51.7273585,47.3506415 47.0186792,51.357434 46.135283,51.5310189" id="Fill-438" fill="#79C732"></path>
            <path d="M33.7006792,46.5752075 C34.6633208,48.2604906 43.3293585,48.4193585 44.7021887,48.0604906 C42.7180377,47.082 32.0248302,43.6408679 33.7006792,46.5752075" id="Fill-440" fill="#599948"></path>
            <path d="M53.525283,37.9943774 C54.7456604,40.1638113 44.445283,45.6268302 44.2471698,46.7558868 C44.6969811,44.1955094 52.330566,35.8702264 53.525283,37.9943774" id="Fill-442" fill="#72A863"></path>
            <path d="M42.9262642,43.9031321 C41.109283,43.1091698 33.3424906,41.1431321 31.2673962,41.082 C30.7813585,41.0680377 29.593434,40.9038868 29.5058868,41.6053962 C29.4541887,42.016717 29.8156981,42.7076604 30.5473962,43.0861509 C33.0394717,44.3755849 42.444,44.256717 42.9262642,43.9031321" id="Fill-444" fill="#79C732"></path>
            <path d="M48.7417736,34.7304528 C49.632717,33.9829057 52.9844151,31.0900755 52.4115849,33.7719623 C51.8863019,36.232717 44.0515849,41.4523396 41.9466792,41.8983774 C42.6338491,41.0436604 46.2142264,36.8519623 48.7417736,34.7304528" id="Fill-446" fill="#599948"></path>
            <path d="M26.8655094,38.1870943 C25.7307925,40.4848302 39.4409811,38.7995472 40.838717,38.7693585 C37.8990943,37.5708679 28.1368302,35.612 26.8655094,38.1870943" id="Fill-448" fill="#599948"></path>
            <path d="M50.723283,27.8023774 C52.5629057,29.8355849 41.0968679,35.6484151 39.6029057,36.8465283 C40.2161132,36.0099245 48.9546038,25.847283 50.723283,27.8023774" id="Fill-450" fill="#72A863"></path>
            <path d="M21.3031321,10.1048679 C29.6235094,19.3739245 36.316717,29.8595849 41.5438868,41.1520377 C45.876717,50.5124151 49.3631321,60.2939245 52.6152075,70.0739245 C54.122,74.6063774 55.6521887,79.1841132 56.6635094,83.8576981 C56.7148302,84.0950566 57.0786038,83.9950566 57.027283,83.7576981 C56.1352075,79.6343019 54.8197358,75.5927925 53.5110566,71.5871321 C51.8770943,66.5871321 50.1303019,61.6226038 48.3001132,56.691283 C44.4310566,46.2629811 40.0348302,36.0282642 34.151434,26.5580755 C30.4635094,20.6203396 26.2378491,15.0380755 21.5699245,9.83807547 C21.407283,9.6569434 21.1412453,9.92411321 21.3031321,10.1048679" id="Fill-452" fill="#397B3B"></path>
        </g>
    </g>
</svg>