<?xml version="1.0" encoding="UTF-8"?>
<svg width="120px" height="120px" viewBox="0 0 120 120" version="1.1" xmlns="http://www.w3.org/2000/svg" xmlns:xlink="http://www.w3.org/1999/xlink">
    <!-- Generator: Sketch 51.1 (57501) - http://www.bohemiancoding.com/sketch -->
    <title>Lotus Root</title>
    <desc>Created with Sketch.</desc>
    <defs>
        <polygon id="path-1" points="0 2.2336 109.7592 2.2336 109.7592 112 0 112"></polygon>
    </defs>
    <g id="Lotus-Root" stroke="none" stroke-width="1" fill="none" fill-rule="evenodd">
        <g id="Page-1" transform="translate(4.000000, 0.000000)">
            <g id="Group-3" transform="translate(0.000000, 5.765600)">
                <mask id="mask-2" fill="white">
                    <use xlink:href="#path-1"></use>
                </mask>
                <g id="Clip-2"></g>
                <path d="M109.7592,57.1136 C109.7592,87.4336 85.1912,112.0016 54.8792,112.0016 C24.5752,112.0016 -0.0008,87.4336 -0.0008,57.1136 C-0.0008,26.8096 24.5752,2.2336 54.8792,2.2336 C85.1912,2.2336 109.7592,26.8096 109.7592,57.1136" id="Fill-1" fill="#E2DECC" mask="url(#mask-2)"></path>
            </g>
            <path d="M101.1424,62.8792 C101.1424,88.4312 80.4304,109.1512 54.8784,109.1512 C29.3264,109.1512 8.6224,88.4312 8.6224,62.8792 C8.6224,37.3352 29.3264,16.6152 54.8784,16.6152 C80.4304,16.6152 101.1424,37.3352 101.1424,62.8792" id="Fill-4" fill="#F7F3ED"></path>
            <path d="M44.048,46.4688 C44.048,50.0688 41.136,52.9808 37.544,52.9808 C33.944,52.9808 31.024,50.0688 31.024,46.4688 C31.024,42.8688 33.944,39.9648 37.544,39.9648 C41.136,39.9648 44.048,42.8688 44.048,46.4688" id="Fill-6" fill="#E2DECC"></path>
            <path d="M32.5952,75.1136 C32.5952,78.7136 29.6832,81.6256 26.0912,81.6256 C22.4832,81.6256 19.5792,78.7136 19.5792,75.1136 C19.5792,71.5216 22.4832,68.6096 26.0912,68.6096 C29.6832,68.6096 32.5952,71.5216 32.5952,75.1136" id="Fill-8" fill="#E2DECC"></path>
            <path d="M63.5016,90.9608 C63.5016,94.5608 60.5816,97.4728 56.9896,97.4728 C53.3896,97.4728 50.4776,94.5608 50.4776,90.9608 C50.4776,87.3688 53.3896,84.4488 56.9896,84.4488 C60.5816,84.4488 63.5016,87.3688 63.5016,90.9608" id="Fill-10" fill="#E2DECC"></path>
            <path d="M65.884,63.9768 C65.884,67.5688 62.964,70.4888 59.372,70.4888 C55.772,70.4888 52.86,67.5688 52.86,63.9768 C52.86,60.3768 55.772,57.4648 59.372,57.4648 C62.964,57.4648 65.884,60.3768 65.884,63.9768" id="Fill-12" fill="#E2DECC"></path>
            <path d="M74.3688,37.3824 C74.3688,40.9824 71.4568,43.8944 67.8568,43.8944 C64.2568,43.8944 61.3448,40.9824 61.3448,37.3824 C61.3448,33.7824 64.2568,30.8704 67.8568,30.8704 C71.4568,30.8704 74.3688,33.7824 74.3688,37.3824" id="Fill-14" fill="#E2DECC"></path>
            <path d="M90.8608,70.488 C90.8608,74.08 87.9408,77 84.3488,77 C80.7408,77 77.8288,74.08 77.8288,70.488 C77.8288,66.888 80.7408,63.976 84.3488,63.976 C87.9408,63.976 90.8608,66.888 90.8608,70.488" id="Fill-16" fill="#E2DECC"></path>
        </g>
    </g>
</svg>