<?xml version="1.0" encoding="UTF-8"?>
<svg width="120px" height="120px" viewBox="0 0 120 120" version="1.1" xmlns="http://www.w3.org/2000/svg" xmlns:xlink="http://www.w3.org/1999/xlink">
    <!-- Generator: Sketch 51.1 (57501) - http://www.bohemiancoding.com/sketch -->
    <title>Fish14</title>
    <desc>Created with Sketch.</desc>
    <defs>
        <polygon id="path-1" points="0.194914242 0.117989503 27.2593548 0.117989503 27.2593548 37.2913005 0.194914242 37.2913005"></polygon>
        <polygon id="path-3" points="0 0.0281667072 98.8916111 0.0281667072 98.8916111 65.1236946 0 65.1236946"></polygon>
    </defs>
    <g id="Fish14" stroke="none" stroke-width="1" fill="none" fill-rule="evenodd">
        <g id="Group" transform="translate(60.000000, 60.500000) scale(-1, 1) translate(-60.000000, -60.500000) translate(0.000000, 20.000000)">
            <path d="M24.5698065,38.3093865 C24.8944839,53.0637548 35.9335161,66.1180931 49.2409355,72.661147 C62.5481129,79.2044434 77.7832742,80.3207398 92.5418226,80.2254314 C94.520371,71.8104045 93.9423871,62.7837548 90.9034355,54.630159 L24.5698065,38.3093865 Z" id="Fill-1" fill="#E8DC00"></path>
            <path d="M33.6931935,67.8265868 C35.2200484,68.995024 36.9944032,69.9730868 37.9732742,71.6297066 C39.2988387,73.872485 38.630129,77.0804731 36.5197258,78.6034671 C34.4088387,80.1264611 31.1615806,79.7442575 29.4605323,77.7723683 C28.1819032,76.2901168 27.8262581,74.2311647 27.7002097,72.275524 C27.6031935,70.7741138 27.1817419,62.9115359 28.8416613,62.2465599 C29.8442419,61.8449551 32.4612581,66.8836886 33.6931935,67.8265868" id="Fill-3" fill="#1CA538"></path>
            <path d="M25.4936129,12.8403431 C34.8923226,1.34076826 51.6330484,-2.05565389 66.1160323,1.14311856 C80.5995,4.3416485 93.2297419,13.0605467 104.735468,22.4400557 C101.070629,30.3625347 95.0234516,37.1590168 87.5885323,41.7110228 L25.4936129,12.8403431 Z" id="Fill-5" fill="#E8DC00"></path>
            <g id="Group-9" transform="translate(92.661290, 35.168551)">
                <mask id="mask-2" fill="white">
                    <use xlink:href="#path-1"></use>
                </mask>
                <g id="Clip-8"></g>
                <path d="M24.8075081,0.383998204 C25.51275,0.508408383 26.2155726,0.677198802 26.9133145,0.893279641 C28.6612984,1.43481557 23.2586371,9.56512994 22.494121,10.391621 C19.5954919,13.5253994 16.1774274,16.094118 11.8487177,16.7329024 C18.4429113,20.9560581 21.8387177,29.6349413 19.8671855,37.2259024 C13.9951694,37.924588 3.61492742,32.9229593 1.3518629,27.1009024 C-4.11708871,13.0313964 10.8207339,-2.08068144 24.8075081,0.383998204" id="Fill-7" fill="#1CA538" mask="url(#mask-2)"></path>
            </g>
            <g id="Group-12" transform="translate(0.000000, 3.641605)">
                <mask id="mask-4" fill="white">
                    <use xlink:href="#path-3"></use>
                </mask>
                <g id="Clip-11"></g>
                <path d="M32.1995323,1.82286377 C44.0132419,-1.62497156 56.9376774,0.0641452096 67.9123548,5.44045958 C81.993,12.3383129 102.042194,30.8768847 98.4734032,48.3190464 C94.2983226,68.7232859 69.9305806,64.5360225 54.3913065,65.0273578 C43.6007419,65.3685763 32.781629,64.803274 22.0856613,63.3329057 C18.6794516,62.8648518 15.2345323,62.2898488 12.1198548,60.8306362 C6.06856452,57.9956362 1.84001613,51.9111781 0.523645161,45.3470254 C-3.34054839,26.0743608 14.8769516,6.87833084 32.1995323,1.82286377" id="Fill-10" fill="#A9C255" mask="url(#mask-4)"></path>
            </g>
            <path d="M25.0647823,44.6389302 C27.3186532,45.7993644 29.9855081,46.3860081 32.4101855,45.6482775 C35.1036532,44.829062 37.14075,42.448535 38.0555081,39.7801428 C40.834621,31.6731099 34.8247016,19.7336129 25.0863145,25.3786338 C16.9016371,30.1231967 16.5394597,40.2494093 25.0647823,44.6389302" id="Fill-13" fill="#D0DD7B"></path>
            <path d="M23.3065161,37.2510997 C24.2587742,35.6197015 25.6165161,34.0326835 27.6676452,34.0305009 C29.4495,34.0285608 31.0878871,35.2113063 31.7270806,36.8730189 C32.3805484,38.5718362 35.0549032,37.9238362 34.5100645,36.1040039 C33.6461129,33.2192883 30.6961935,31.131962 27.6596613,31.5621835 C25.0915161,31.9261985 22.3373226,34.2582225 22.5949839,37.0578153 C22.6278871,37.418435 23.1023226,37.6008063 23.3065161,37.2510997" id="Fill-15" fill="#1D1D1B"></path>
            <path d="M64.0865806,30.3132557 C65.480129,30.5790521 66.9223065,31.8236389 66.5412581,33.193121 C66.4118226,33.6580222 66.0927097,34.043621 65.7682742,34.400603 C64.6055323,35.680112 63.2642419,36.7964084 61.7956935,37.7070521 C63.5136774,38.1212677 65.6407742,39.0564054 65.5200484,40.8233695 C65.3966613,42.6252557 63.0883548,43.2334832 61.2912581,43.3622587 C62.4329516,44.8338395 63.6411774,46.6655551 63.0160161,48.4213635 C62.5014194,49.8660251 60.8347258,50.650076 59.3066613,50.5613156 C57.7790806,50.4727976 56.3797258,49.6904443 55.1262581,48.8103575 C51.7674677,46.4516569 48.4498065,41.9168695 50.6037581,37.7351838 C52.4548065,34.142082 60.0907742,29.5510311 64.0865806,30.3132557" id="Fill-17" fill="#E8DC00"></path>
            <path d="M45.4814032,20.4559922 C53.2155968,33.1739623 49.1752742,48.5280701 41.7125323,60.3087198 C41.3750323,60.8412826 42.2227742,61.3364982 42.5551935,60.8024802 C46.4360806,54.5674204 49.4501129,47.6387677 50.2247903,40.2721329 C50.9532581,33.3451778 49.6451129,26.1395731 45.7013226,20.3272168 C45.6101129,20.1928635 45.3952742,20.314121 45.4814032,20.4559922" id="Fill-19" fill="#1CA538"></path>
            <path d="M45.494879,69.4109856 C47.3459274,69.9248749 49.3559274,70.1693299 50.8808468,71.3406772 C52.9447984,72.9264826 53.5172177,76.1531443 52.124879,78.3551802 C50.7327823,80.5569737 47.5774597,81.4154766 45.2657661,80.2215754 C43.5279435,79.323785 42.4322177,77.5461503 41.5881048,75.7787012 C40.9397177,74.4215874 37.6249597,67.2831593 38.9178629,66.0460904 C39.6988306,65.2986593 44.0009274,68.996285 45.494879,69.4109856" id="Fill-21" fill="#1CA538"></path>
            <path d="M82.8946935,71.6273542 C82.7146935,71.8737494 82.5765484,72.1601596 82.4981613,72.4865847 C81.9153387,74.9192524 84.7646129,76.8421536 86.8280806,75.5058961 C88.5610645,74.3837793 88.8380806,71.8242763 87.276629,70.4220548 C85.8700161,69.1583093 83.2890484,69.6734111 82.8946935,71.6273542" id="Fill-23" fill="#1D1D1B"></path>
            <path d="M74.1932903,71.2168249 C73.6593387,71.1050254 73.1822419,71.2953997 72.840871,71.7171332 C72.282,72.4075734 72.2962742,73.4004296 72.9236129,74.0452769 C73.0215968,74.1459207 73.1336129,74.1958787 73.2451452,74.2070344 C73.9070806,74.6595674 74.805629,74.7866452 75.3199839,74.0583728 C75.7927258,73.3895165 75.6499839,72.4735374 75.165871,71.8565793 C74.9212742,71.5451901 74.5859516,71.2990374 74.1932903,71.2168249" id="Fill-25" fill="#1D1D1B"></path>
            <path d="M63.0129919,73.2098614 C63.0134758,73.2098614 63.0142016,73.2098614 63.0146855,73.2098614 C63.0076694,73.2154392 63.0033145,73.2185919 63.0006532,73.2198045 C63.0004113,73.220047 62.9999274,73.220047 62.9994435,73.220047 C63.0011371,73.2178644 63.0057339,73.2144692 63.0129919,73.2098614 M62.9292823,73.2270799 C62.9384758,73.2178644 62.9624274,73.2130141 62.9849274,73.2108314 C62.9721048,73.2164093 62.9612177,73.2212596 62.9515403,73.2253823 C62.94525,73.2258674 62.9370242,73.2263524 62.9292823,73.2270799 M62.4069435,72.4362386 C62.4137177,72.4391488 62.4178306,72.4413314 62.4262984,72.4449692 C62.4180726,72.4413314 62.4098468,72.4403614 62.401621,72.4369662 C62.4030726,72.4367237 62.4054919,72.4364811 62.4069435,72.4362386 M62.1304113,71.1615799 C61.7106532,71.3138793 61.3237984,71.5888913 61.0854919,71.9744901 C60.79275,72.4478793 60.7100081,73.1191608 61.0583952,73.5910949 C61.246621,73.8462207 61.4682339,74.0836428 61.793879,74.1580949 C62.0692016,74.2209063 62.333879,74.2063554 62.5951694,74.0957686 C62.6404113,74.0766099 62.6810565,74.0513883 62.7226694,74.0278644 C62.8644435,74.0327147 63.0030726,74.0205889 63.128879,73.9919722 C63.9756532,73.7986877 64.4948468,72.9581308 64.2400887,72.1153913 C63.9715403,71.2273015 62.9585565,70.8606189 62.1304113,71.1615799" id="Fill-27" fill="#1D1D1B"></path>
            <path d="M96.0024435,20.9937207 C95.0995403,20.5273644 93.9285726,20.5288195 93.0687339,21.1047925 C92.3438952,21.590065 91.9125242,22.3619901 91.8638952,23.1741728 C91.6616371,23.6121548 91.5963145,24.117071 91.6674435,24.612529 C91.812121,25.6172686 92.4810726,26.3967117 93.4294597,26.7389003 C95.4326855,27.4618374 97.5220403,25.6778973 97.5152661,23.6521698 C97.5116371,22.594562 96.9641371,21.4901488 96.0024435,20.9937207" id="Fill-29" fill="#1D1D1B"></path>
            <path d="M85.7747661,16.8629147 L85.778879,16.8629147 C85.7796048,16.8631572 85.7800887,16.8636422 85.7808145,16.8641272 C85.7406532,16.8646123 85.7508145,16.8638847 85.7747661,16.8629147 M84.6933145,17.9699955 C85.0690403,18.1901991 85.5495242,18.2178458 85.9651694,18.1128368 C86.7478306,17.9154296 87.3937984,17.2371153 87.4257339,16.4089266 C87.4583952,15.5661871 86.6350887,15.093768 85.8439597,15.0447799 C85.7258952,14.9906991 85.5882339,14.9788159 85.448879,14.9979746 C84.6086371,15.1131692 84.009121,15.9231692 84.0173468,16.7486901 C84.0226694,17.2686422 84.2408952,17.7046841 84.6933145,17.9699955" id="Fill-31" fill="#1D1D1B"></path>
            <path d="M76.9070323,10.1663973 C76.9220323,10.1411757 76.9878387,10.0904901 77.0630806,10.0368943 C77.058,10.0441698 77.0531613,10.0507177 77.0497742,10.0558105 C77.0330806,10.0691488 77.0113065,10.0870949 76.9774355,10.1159542 C76.9455,10.1382656 76.9237258,10.154029 76.9070323,10.1663973 M77.549371,8.57307395 C77.526629,8.51147515 77.4980806,8.45205898 77.4625161,8.39652305 C77.1659032,7.9355021 76.6150161,7.67989132 76.0725968,7.82952305 C75.3954194,8.01625958 74.9947742,8.60532844 74.9630806,9.28606796 C74.9596935,9.35712485 74.9652581,9.42527156 74.9739677,9.49390329 C74.961629,9.42963683 74.9947742,9.71143922 75.0233226,9.83681946 C75.0642097,10.0157955 75.1336452,10.194044 75.224129,10.3533763 C75.6678387,11.1357296 76.6423548,11.5557656 77.4617903,11.0675829 C77.8963065,10.8088195 78.1474355,10.3558015 78.1740484,9.85646317 C78.1960645,9.44734042 78.0092903,9.06440928 77.7472742,8.7617506 C77.6877581,8.69311886 77.6209839,8.62982246 77.549371,8.57307395" id="Fill-33" fill="#1D1D1B"></path>
            <path d="M7.92682258,50.2090868 C8.40198387,52.0252814 10.1257742,53.2880569 11.9088387,53.6341257 C14.0990806,54.059012 16.2155323,53.4881317 18.2739194,52.7610719 C19.8559355,52.2025599 19.1857742,49.6697335 17.5752097,50.220485 C14.8696452,51.1461647 11.3988387,52.3846886 9.34940323,49.6078922 C8.84980645,48.9310329 7.68851613,49.2974731 7.92682258,50.2090868" id="Fill-35" fill="#1D1D1B"></path>
        </g>
    </g>
</svg>