<?xml version="1.0" encoding="UTF-8"?>
<svg width="120px" height="120px" viewBox="0 0 120 120" version="1.1" xmlns="http://www.w3.org/2000/svg" xmlns:xlink="http://www.w3.org/1999/xlink">
    <!-- Generator: Sketch 51.1 (57501) - http://www.bohemiancoding.com/sketch -->
    <title>Apartment34</title>
    <desc>Created with Sketch.</desc>
    <defs>
        <polygon id="path-1" points="0 119.215686 111.346797 119.215686 111.346797 0.0988235294 0 0.0988235294"></polygon>
        <polygon id="path-3" points="0.506741259 0.683921569 0.506741259 38.1796078 0.506741259 103.529412 70.1997203 103.529412 108.997147 103.529412 108.997147 54.88 70.1997203 38.1796078 70.1997203 0.683921569"></polygon>
    </defs>
    <g id="Apartment34" stroke="none" stroke-width="1" fill="none" fill-rule="evenodd">
        <g id="Page-1" transform="translate(4.000000, 0.000000)">
            <polygon id="Fill-1" fill="#999999" points="2.85623497 17.0555294 2.85623497 54.5512157 2.85623497 119.90102 72.549214 119.90102 111.346641 119.90102 111.346641 71.2516078 72.549214 54.5512157 72.549214 17.0555294"></polygon>
            <g id="Group-27" transform="translate(0.000000, 0.685490)">
                <path d="M100.441443,79.8460392 C100.44301,79.7770196 100.456324,79.7127059 100.456324,79.6421176 C100.456324,75.1025098 95.5361566,71.4217255 89.4732755,71.4217255 C83.4096112,71.4217255 78.491793,75.1025098 78.491793,79.6421176 C78.491793,79.7127059 78.5035413,79.7770196 78.5035413,79.8460392 L78.4855273,79.8460392 L78.4855273,110.421725 L100.46259,110.421725 L100.46259,79.8460392 L100.441443,79.8460392 Z" id="Fill-2" fill="#313335"></path>
                <mask id="mask-2" fill="white">
                    <use xlink:href="#path-1"></use>
                </mask>
                <g id="Clip-5"></g>
                <path d="M56.0626573,78.4243137 L63.4687552,78.4243137 L63.4687552,71.8392157 L56.0626573,71.8392157 L56.0626573,78.4243137 Z M34.0002238,78.4243137 L41.4063217,78.4243137 L41.4063217,71.8392157 L34.0002238,71.8392157 L34.0002238,78.4243137 Z M11.9362238,78.4243137 L19.3415385,78.4243137 L19.3415385,71.8392157 L11.9362238,71.8392157 L11.9362238,78.4243137 Z M56.0626573,67.7890196 L63.4687552,67.7890196 L63.4687552,61.2031373 L56.0626573,61.2031373 L56.0626573,67.7890196 Z M34.0002238,67.7890196 L41.4063217,67.7890196 L41.4063217,61.2031373 L34.0002238,61.2031373 L34.0002238,67.7890196 Z M11.9362238,67.7890196 L19.3415385,67.7890196 L19.3415385,61.2031373 L11.9362238,61.2031373 L11.9362238,67.7890196 Z M56.0626573,57.1521569 L63.4687552,57.1521569 L63.4687552,50.5670588 L56.0626573,50.5670588 L56.0626573,57.1521569 Z M34.0002238,57.1521569 L41.4063217,57.1521569 L41.4063217,50.5670588 L34.0002238,50.5670588 L34.0002238,57.1521569 Z M11.9362238,57.1521569 L19.3415385,57.1521569 L19.3415385,50.5670588 L11.9362238,50.5670588 L11.9362238,57.1521569 Z" id="Fill-4" fill="#FFFFFF" mask="url(#mask-2)"></path>
                <polygon id="Fill-6" fill="#666666" mask="url(#mask-2)" points="34.7330797 61.9370196 41.4068699 61.9370196 41.4068699 61.2021176 33.9999888 61.2021176 33.9999888 67.7887843 34.7330797 67.7887843"></polygon>
                <polygon id="Fill-7" fill="#666666" mask="url(#mask-2)" points="34.7330797 51.3013333 41.4068699 51.3013333 41.4068699 50.5664314 33.9999888 50.5664314 33.9999888 57.1523137 34.7330797 57.1523137"></polygon>
                <polygon id="Fill-8" fill="#666666" mask="url(#mask-2)" points="56.7947301 51.3013333 63.4685203 51.3013333 63.4685203 50.5664314 56.0624224 50.5664314 56.0624224 57.1523137 56.7947301 57.1523137"></polygon>
                <polygon id="Fill-9" fill="#666666" mask="url(#mask-2)" points="56.7947301 61.9370196 63.4685203 61.9370196 63.4685203 61.2021176 56.0624224 61.2021176 56.0624224 67.7887843 56.7947301 67.7887843"></polygon>
                <polygon id="Fill-10" fill="#666666" mask="url(#mask-2)" points="12.669158 51.3013333 19.342165 51.3013333 19.342165 50.5664314 11.9360671 50.5664314 11.9360671 57.1523137 12.669158 57.1523137"></polygon>
                <polygon id="Fill-11" fill="#666666" mask="url(#mask-2)" points="56.7947301 72.5734902 63.4685203 72.5734902 63.4685203 71.8385882 56.0624224 71.8385882 56.0624224 78.4244706 56.7947301 78.4244706"></polygon>
                <polygon id="Fill-12" fill="#666666" mask="url(#mask-2)" points="34.7330797 72.5734902 41.4068699 72.5734902 41.4068699 71.8385882 33.9999888 71.8385882 33.9999888 78.4244706 34.7330797 78.4244706"></polygon>
                <polygon id="Fill-13" fill="#666666" mask="url(#mask-2)" points="12.669158 61.9370196 19.342165 61.9370196 19.342165 61.2021176 11.9360671 61.2021176 11.9360671 67.7887843 12.669158 67.7887843"></polygon>
                <polygon id="Fill-14" fill="#666666" mask="url(#mask-2)" points="12.669158 72.5734902 19.342165 72.5734902 19.342165 71.8385882 11.9360671 71.8385882 11.9360671 78.4244706 12.669158 78.4244706"></polygon>
                <polygon id="Fill-15" fill="#313335" mask="url(#mask-2)" points="10.9924476 89.8392157 21.6128671 89.8392157 21.6128671 84.4486275 10.9924476 84.4486275"></polygon>
                <polygon id="Fill-16" fill="#313335" mask="url(#mask-2)" points="25.257958 89.8392157 35.8807273 89.8392157 35.8807273 84.4486275 25.257958 84.4486275"></polygon>
                <polygon id="Fill-17" fill="#313335" mask="url(#mask-2)" points="39.5234685 89.8392157 50.1462378 89.8392157 50.1462378 84.4486275 39.5234685 84.4486275"></polygon>
                <polygon id="Fill-18" fill="#313335" mask="url(#mask-2)" points="53.7913287 89.8392157 64.4125315 89.8392157 64.4125315 84.4486275 53.7913287 84.4486275"></polygon>
                <polygon id="Fill-19" fill="#313335" mask="url(#mask-2)" points="10.9924476 100.128627 21.6128671 100.128627 21.6128671 94.7380392 10.9924476 94.7380392"></polygon>
                <polygon id="Fill-20" fill="#313335" mask="url(#mask-2)" points="25.257958 100.128627 35.8807273 100.128627 35.8807273 94.7380392 25.257958 94.7380392"></polygon>
                <polygon id="Fill-21" fill="#313335" mask="url(#mask-2)" points="39.5234685 100.128627 50.1462378 100.128627 50.1462378 94.7380392 39.5234685 94.7380392"></polygon>
                <polygon id="Fill-22" fill="#313335" mask="url(#mask-2)" points="53.7913287 100.128627 64.4125315 100.128627 64.4125315 94.7380392 53.7913287 94.7380392"></polygon>
                <polygon id="Fill-23" fill="#313335" mask="url(#mask-2)" points="10.9924476 110.418039 21.6128671 110.418039 21.6128671 105.027451 10.9924476 105.027451"></polygon>
                <polygon id="Fill-24" fill="#313335" mask="url(#mask-2)" points="25.257958 110.418039 35.8807273 110.418039 35.8807273 105.027451 25.257958 105.027451"></polygon>
                <polygon id="Fill-25" fill="#313335" mask="url(#mask-2)" points="39.5234685 110.418039 50.1462378 110.418039 50.1462378 105.027451 39.5234685 105.027451"></polygon>
                <polygon id="Fill-26" fill="#313335" mask="url(#mask-2)" points="53.7913287 110.418039 64.4125315 110.418039 64.4125315 105.027451 53.7913287 105.027451"></polygon>
            </g>
            <g id="Group-30" transform="translate(2.349650, 16.371765)">
                <mask id="mask-4" fill="white">
                    <use xlink:href="#path-3"></use>
                </mask>
                <g id="Clip-29"></g>
                <polygon id="Fill-28" fill="#9F5E1A" mask="url(#mask-4)" points="-2.34965035 28.6501961 73.0545455 28.6501961 73.0545455 0.687843137 -2.34965035 0.687843137"></polygon>
            </g>
            <g id="Group-40" transform="translate(0.000000, 0.685490)">
                <polygon id="Fill-31" fill="#666666" points="7.504 20.4988235 25.257958 20.4988235 25.257958 0.0988235294 7.504 0.0988235294"></polygon>
                <polygon id="Fill-33" fill="#666666" points="0 43.1019608 75.4041958 43.1019608 75.4041958 15.1388235 0 15.1388235"></polygon>
                <path d="M68.7946294,26.1221176 C68.7946294,26.0978039 68.7993287,26.0742745 68.7993287,26.0491765 C68.7993287,24.4264314 67.0425734,23.1111373 64.8730629,23.1111373 C62.7043357,23.1111373 60.946014,24.4264314 60.946014,26.0491765 C60.946014,26.0742745 60.9499301,26.0978039 60.9507133,26.1221176 L60.9436643,26.1221176 L60.9436643,35.4656471 L68.8016783,35.4656471 L68.8016783,26.1221176 L68.7946294,26.1221176 Z M50.6858741,26.0491765 C50.6858741,24.4264314 48.9267692,23.1111373 46.7588252,23.1111373 C44.5908811,23.1111373 42.8325594,24.4264314 42.8325594,26.0491765 C42.8325594,26.0742745 42.8356923,26.0978039 42.8356923,26.1221176 L42.830993,26.1221176 L42.830993,35.4656471 L50.6882238,35.4656471 L50.6882238,26.1221176 L50.6803916,26.1221176 C50.681958,26.0978039 50.6858741,26.0742745 50.6858741,26.0491765 Z M32.5724196,26.0491765 C32.5724196,24.4264314 30.8133147,23.1111373 28.6453706,23.1111373 C26.4782098,23.1111373 24.7191049,24.4264314 24.7191049,26.0491765 C24.7191049,26.0742745 24.7222378,26.0978039 24.723021,26.1221176 L24.7151888,26.1221176 L24.7151888,35.4656471 L32.5755524,35.4656471 L32.5755524,26.1221176 L32.5685035,26.1221176 C32.5685035,26.0978039 32.5724196,26.0742745 32.5724196,26.0491765 Z M14.4581818,26.0491765 C14.4581818,24.4264314 12.7014266,23.1111373 10.5303497,23.1111373 C8.36318881,23.1111373 6.60486713,24.4264314 6.60486713,26.0491765 C6.60486713,26.0742745 6.61034965,26.0978039 6.61034965,26.1221176 L6.6033007,26.1221176 L6.6033007,35.4656471 L14.4605315,35.4656471 L14.4605315,26.1221176 L14.4534825,26.1221176 C14.455049,26.0978039 14.4581818,26.0742745 14.4581818,26.0491765 Z" id="Fill-34" fill="#DF9A4B"></path>
                <path d="M7.26316084,26.7830588 L7.27099301,26.7830588 C7.27099301,26.7595294 7.26551049,26.7352157 7.26551049,26.7101176 C7.26551049,25.0873725 9.02383217,23.7720784 11.1917762,23.7720784 C12.2812308,23.7720784 13.2665175,24.1038431 13.9784615,24.6418824 C13.3119441,23.7289412 12.0172867,23.110902 10.5307413,23.110902 C8.3627972,23.110902 6.60447552,24.4261961 6.60447552,26.0489412 C6.60447552,26.0748235 6.60995804,26.0975686 6.61074126,26.1218824 L6.60290909,26.1218824 L6.60290909,35.4654118 L7.26316084,35.4654118 L7.26316084,26.7830588 Z" id="Fill-35" fill="#9F5E1A"></path>
                <path d="M25.375049,26.7830588 L25.3836643,26.7830588 C25.3836643,26.7595294 25.3797483,26.7352157 25.3797483,26.7101176 C25.3797483,25.0873725 27.1380699,23.7720784 29.306014,23.7720784 C30.3946853,23.7720784 31.3807552,24.1046275 32.0919161,24.6418824 C31.4261818,23.7289412 30.1315245,23.110902 28.6457622,23.110902 C26.4778182,23.110902 24.7187133,24.4261961 24.7187133,26.0489412 C24.7187133,26.0748235 24.7226294,26.0975686 24.7234126,26.1218824 L24.7147972,26.1218824 L24.7147972,35.4654118 L25.375049,35.4654118 L25.375049,26.7830588 Z" id="Fill-36" fill="#9F5E1A"></path>
                <path d="M61.604151,26.7830588 L61.6112,26.7830588 C61.6112,26.7595294 61.6057175,26.7352157 61.6057175,26.7101176 C61.6057175,25.0873725 63.3648224,23.7720784 65.5327664,23.7720784 C66.622221,23.7720784 67.6075077,24.1038431 68.3186685,24.641098 C67.6529343,23.7289412 66.3582769,23.110902 64.8732979,23.110902 C62.7037874,23.110902 60.9454657,24.4261961 60.9454657,26.0489412 C60.9454657,26.0748235 60.950165,26.0975686 60.9509483,26.1218824 L60.9431161,26.1218824 L60.9431161,35.4654118 L61.604151,35.4654118 L61.604151,26.7830588 Z" id="Fill-37" fill="#9F5E1A"></path>
                <path d="M43.4906965,26.7830588 L43.4969622,26.7830588 C43.4969622,26.7595294 43.4930462,26.7352157 43.4930462,26.7101176 C43.4930462,25.0873725 45.2513678,23.7720784 47.4185287,23.7720784 C48.5072,23.7720784 49.4940531,24.1046275 50.2044308,24.6418824 C49.5386965,23.7289412 48.2448224,23.110902 46.7590601,23.110902 C44.5903329,23.110902 42.8320112,24.4261961 42.8320112,26.0489412 C42.8320112,26.0748235 42.8359273,26.0975686 42.8359273,26.1218824 L42.8304448,26.1218824 L42.8304448,35.4654118 L43.4906965,35.4654118 L43.4906965,26.7830588 Z" id="Fill-38" fill="#9F5E1A"></path>
                <path d="M90.6672895,72.8254902 L90.6672895,85.3007843 L99.0657231,85.3007843 L99.0657231,80.3682353 C99.0657231,75.592549 94.9146741,73.205098 90.6672895,72.8254902 M79.8823944,80.3682353 L79.8823944,85.3007843 L88.2823944,85.3007843 L88.2823944,72.8254902 C84.0404923,73.2027451 79.8823944,75.592549 79.8823944,80.3682353" id="Fill-39" fill="#71E5FF"></path>
            </g>
        </g>
    </g>
</svg>