<?xml version="1.0" encoding="UTF-8"?>
<svg width="480px" height="360px" viewBox="0 0 480 360" version="1.1" xmlns="http://www.w3.org/2000/svg" xmlns:xlink="http://www.w3.org/1999/xlink" style="background: #FFFFFF;">
    <!-- Generator: Sketch 48.2 (47327) - http://www.bohemiancoding.com/sketch -->
    <title>Bus station1</title>
    <desc>Created with Sketch.</desc>
    <defs>
        <polygon id="path-1" points="0 0.434533333 479.4 0.434533333 479.4 10.6612 0 10.6612"></polygon>
        <polygon id="path-3" points="0 0.364266667 479.4 0.364266667 479.4 29.7669333 0 29.7669333"></polygon>
        <polygon id="path-5" points="0 480 479.4 480 479.4 0 0 0"></polygon>
    </defs>
    <g id="备份" stroke="none" stroke-width="1" fill="none" fill-rule="evenodd">
        <g id="Bus-station1">
            <g id="Page-1" transform="translate(0.000000, -97.000000)">
                <polygon id="Fill-1" fill="#FFFFFF" points="0.00133333333 479.7 479.4 479.7 479.4 0.3 0.00133333333 0.3"></polygon>
                <polygon id="Fill-2" fill="#82C3FF" points="0 479.401333 479.4 479.401333 479.4 0 0 0"></polygon>
                <g id="Group-9" transform="translate(20.000000, 132.000000)" fill="#FDFFFF">
                    <path d="M30.7393333,19.3357333 C29.7206667,19.3357333 28.75,19.5410667 27.8646667,19.9077333 C26.2153333,16.7384 22.9033333,14.5717333 19.0846667,14.5717333 C13.9326667,14.5717333 9.70066667,18.5117333 9.23533333,23.5437333 C8.42733333,23.1090667 7.50066667,22.8610667 6.518,22.8610667 C3.34333333,22.8610667 0.768666667,25.4344 0.768666667,28.6090667 C0.768666667,31.7837333 3.34333333,34.3584 6.518,34.3584 L30.7393333,34.3584 C34.8873333,34.3584 38.25,30.9944 38.25,26.8464 C38.25,22.6984 34.8873333,19.3357333 30.7393333,19.3357333" id="Fill-3"></path>
                    <path d="M294.765333,75.3468 C293.746667,75.3468 292.776,75.5508 291.890667,75.9188 C290.241333,72.7494667 286.929333,70.5828 283.110667,70.5828 C277.958667,70.5828 273.726667,74.5228 273.261333,79.5548 C272.453333,79.1201333 271.526667,78.8721333 270.544,78.8721333 C267.369333,78.8721333 264.794667,81.4454667 264.794667,84.6201333 C264.794667,87.7948 267.369333,90.3681333 270.544,90.3681333 L294.765333,90.3681333 C298.913333,90.3681333 302.276,87.0054667 302.276,82.8574667 C302.276,78.7094667 298.913333,75.3468 294.765333,75.3468" id="Fill-5"></path>
                    <path d="M406.433333,5.3032 C405.413333,5.3032 404.444,5.50853333 403.558667,5.87653333 C401.909333,2.70586667 398.597333,0.540533333 394.778667,0.540533333 C389.625333,0.540533333 385.394667,4.48053333 384.929333,9.5112 C384.12,9.07653333 383.194667,8.82853333 382.212,8.82853333 C379.037333,8.82853333 376.462667,11.4018667 376.462667,14.5765333 C376.462667,17.7512 379.037333,20.3258667 382.212,20.3258667 L406.433333,20.3258667 C410.581333,20.3258667 413.944,16.9632 413.944,12.8138667 C413.944,8.66586667 410.581333,5.3032 406.433333,5.3032" id="Fill-7"></path>
                </g>
                <path d="M415.9428,156.4368 L415.9428,156.726133 L414.313467,156.726133 L414.313467,159.646133 L415.9428,159.646133 L415.9428,172.623467 L414.313467,172.623467 L414.313467,175.543467 L415.9428,175.543467 L415.9428,188.522133 L414.313467,188.522133 L414.313467,191.442133 L415.9428,191.442133 L415.9428,204.418133 L414.313467,204.418133 L414.313467,207.338133 L415.9428,207.338133 L415.9428,220.3168 L414.313467,220.3168 L414.313467,223.2368 L415.9428,223.2368 L415.9428,236.214133 L414.313467,236.214133 L414.313467,239.134133 L415.9428,239.134133 L415.9428,244.002133 L399.676133,244.002133 L399.676133,191.7648 L390.352133,191.7648 L386.773467,191.7648 L386.773467,185.678133 L390.352133,185.678133 L390.352133,182.762133 L386.309467,182.762133 L386.309467,168.7408 L387.833467,168.7408 L387.833467,165.455467 L373.440133,165.455467 L373.440133,168.7408 L375.1468,168.7408 L375.1468,182.762133 L351.397467,182.762133 L351.397467,185.678133 L352.457467,185.678133 L352.457467,191.7648 L352.457467,269.470133 L342.369467,269.470133 L342.369467,255.0328 L339.768133,255.0328 L339.768133,239.3168 L341.393467,239.3168 L341.393467,236.031467 L337.7948,236.031467 L337.7948,227.759467 L339.320133,227.759467 L339.320133,224.474133 L324.925467,224.474133 L324.925467,227.759467 L326.633467,227.759467 L326.633467,236.031467 L303.3348,236.031467 L303.3348,239.3168 L306.056133,239.3168 L306.056133,255.0328 L282.392133,255.0328 L282.392133,286.827467 L274.708133,286.827467 L274.708133,232.990133 L277.637467,232.990133 L277.637467,229.706133 L202.124133,229.706133 L202.124133,232.990133 L203.997467,232.990133 L203.997467,257.8048 L190.900133,257.8048 L190.900133,173.250133 L183.6268,167.942133 L183.6268,159.646133 L177.304133,159.646133 L177.304133,163.3288 L153.432133,145.907467 L153.185467,239.610133 L141.3748,239.610133 L141.3748,207.278133 L142.921467,207.278133 L142.921467,203.9928 L101.9348,203.9928 L101.9348,207.278133 L103.480133,207.278133 L103.480133,257.8048 L92.0561333,257.8048 L92.0561333,255.031467 L93.5214667,255.031467 L93.5214667,252.111467 L92.0561333,252.111467 L92.0561333,239.134133 L93.5214667,239.134133 L93.5214667,236.214133 L92.0561333,236.214133 L92.0561333,223.2368 L93.5214667,223.2368 L93.5214667,220.3168 L92.0561333,220.3168 L92.0561333,207.338133 L93.5214667,207.338133 L93.5214667,204.418133 L92.0561333,204.418133 L92.0561333,191.442133 L93.5214667,191.442133 L93.5214667,188.522133 L92.0561333,188.522133 L92.0561333,175.543467 L93.5214667,175.543467 L93.5214667,172.623467 L92.0561333,172.623467 L92.0561333,159.646133 L93.5214667,159.646133 L93.5214667,156.726133 L92.0561333,156.726133 L92.0561333,156.4368 L87.4014667,151.127467 L87.4014667,139.367467 L81.0774667,139.367467 L81.0774667,143.914133 L73.1094667,134.826133 L54.1614667,156.4368 L54.1614667,156.726133 L52.5321333,156.726133 L52.5321333,159.646133 L54.1614667,159.646133 L54.1614667,172.623467 L52.5321333,172.623467 L52.5321333,175.543467 L54.1614667,175.543467 L54.1614667,188.522133 L52.5321333,188.522133 L52.5321333,191.442133 L54.1614667,191.442133 L54.1614667,204.418133 L52.5321333,204.418133 L52.5321333,207.338133 L54.1614667,207.338133 L54.1614667,220.3168 L52.5321333,220.3168 L52.5321333,223.2368 L54.1614667,223.2368 L54.1614667,236.214133 L52.5321333,236.214133 L52.5321333,239.134133 L54.1614667,239.134133 L54.1614667,244.002133 L37.8948,244.002133 L37.8948,191.7648 L0.00146666667,191.7648 L0.00146666667,309.946133 L24.3974667,309.946133 L37.8948,309.946133 L54.1614667,309.946133 L62.2908,309.946133 L81.0774667,309.946133 L92.0561333,309.946133 L103.480133,309.946133 L118.972133,309.946133 L136.952133,309.946133 L141.3748,309.946133 L174.8468,309.946133 L174.8468,308.8568 L175.621467,308.8568 L175.621467,309.946133 L203.997467,309.946133 L213.5148,309.946133 L263.445467,309.946133 L274.708133,309.946133 L282.392133,309.946133 L301.3388,309.946133 L326.633467,309.946133 L342.369467,309.946133 L352.457467,309.946133 L361.781467,309.946133 L364.529467,309.946133 L386.177467,309.946133 L390.352133,309.946133 L399.676133,309.946133 L415.9428,309.946133 L424.073467,309.946133 L442.857467,309.946133 L453.836133,309.946133 L465.261467,309.946133 L479.400133,309.946133 L479.400133,203.9928 L463.7148,203.9928 L463.7148,207.278133 L465.261467,207.278133 L465.261467,257.8048 L453.836133,257.8048 L453.836133,255.031467 L455.300133,255.031467 L455.300133,252.111467 L453.836133,252.111467 L453.836133,239.134133 L455.300133,239.134133 L455.300133,236.214133 L453.836133,236.214133 L453.836133,223.2368 L455.300133,223.2368 L455.300133,220.3168 L453.836133,220.3168 L453.836133,207.338133 L455.300133,207.338133 L455.300133,204.418133 L453.836133,204.418133 L453.836133,191.442133 L455.300133,191.442133 L455.300133,188.522133 L453.836133,188.522133 L453.836133,175.543467 L455.300133,175.543467 L455.300133,172.623467 L453.836133,172.623467 L453.836133,159.646133 L455.300133,159.646133 L455.300133,156.726133 L453.836133,156.726133 L453.836133,156.4368 L449.180133,151.127467 L449.180133,139.367467 L442.857467,139.367467 L442.857467,143.914133 L434.889467,134.826133 L415.9428,156.4368 Z M365.7908,191.7648 L373.440133,191.7648 L373.440133,185.678133 L365.7908,185.678133 L365.7908,191.7648 Z M355.300133,185.678133 L362.948133,185.678133 L362.948133,191.7648 L361.781467,191.7648 L355.300133,191.7648 L355.300133,185.678133 Z" id="Fill-10" fill="#67ADE4"></path>
                <polygon id="Fill-11" fill="#8C8C8C" points="0 480 479.4 480 479.4 400.157333 0 400.157333"></polygon>
                <polygon id="Fill-12" fill="#C1A9A9" points="0 400.157333 479.4 400.157333 479.4 387.794667 0 387.794667"></polygon>
                <polygon id="Fill-13" fill="#8C6D6D" points="19.092 400.157333 20.7693333 400.157333 20.7693333 387.794667 19.092 387.794667"></polygon>
                <polygon id="Fill-14" fill="#8C6D6D" points="75.98 400.157333 77.6586667 400.157333 77.6586667 387.794667 75.98 387.794667"></polygon>
                <polygon id="Fill-15" fill="#8C6D6D" points="132.869333 400.157333 134.546667 400.157333 134.546667 387.794667 132.869333 387.794667"></polygon>
                <polygon id="Fill-16" fill="#8C6D6D" points="189.757333 400.157333 191.436 400.157333 191.436 387.794667 189.757333 387.794667"></polygon>
                <polygon id="Fill-17" fill="#8C6D6D" points="246.646667 400.157333 248.325333 400.157333 248.325333 387.794667 246.646667 387.794667"></polygon>
                <polygon id="Fill-18" fill="#8C6D6D" points="303.536 400.157333 305.213333 400.157333 305.213333 387.794667 303.536 387.794667"></polygon>
                <polygon id="Fill-19" fill="#8C6D6D" points="360.424 400.157333 362.102667 400.157333 362.102667 387.794667 360.424 387.794667"></polygon>
                <polygon id="Fill-20" fill="#8C6D6D" points="417.313333 400.157333 418.992 400.157333 418.992 387.794667 417.313333 387.794667"></polygon>
                <polygon id="Fill-21" fill="#8C6D6D" points="474.202667 400.157333 475.88 400.157333 475.88 387.794667 474.202667 387.794667"></polygon>
                <polygon id="Fill-22" fill="#C6C6C6" points="0 387.794667 479.4 387.794667 479.4 341.256 0 341.256"></polygon>
                <polygon id="Fill-23" fill="#50B771" points="0 341.256 479.4 341.256 479.4 307.1 0 307.1"></polygon>
                <g id="Group-82">
                    <g id="Group-26" transform="translate(0.000000, 306.666667)">
                        <mask id="mask-2" fill="white">
                            <use xlink:href="#path-1"></use>
                        </mask>
                        <g id="Clip-25"></g>
                        <path d="M-0.000266666667,10.6612 C76.9050667,7.27586667 157.011733,5.38253333 240.0944,5.38786667 C322.895733,5.3932 402.7384,7.28653333 479.401067,10.6612 L479.401067,0.434533333 L-0.000266666667,0.434533333 L-0.000266666667,10.6612 Z" id="Fill-24" fill="#71CC79" mask="url(#mask-2)"></path>
                    </g>
                    <g id="Group-29" transform="translate(0.000000, 277.333333)">
                        <mask id="mask-4" fill="white">
                            <use xlink:href="#path-3"></use>
                        </mask>
                        <g id="Clip-28"></g>
                        <path d="M-0.000266666667,0.364266667 C70.8770667,9.09093333 151.311733,15.0656 239.699733,15.0656 C328.087733,15.0656 408.523733,9.09093333 479.401067,0.364266667 L479.401067,29.7669333 L-0.000266666667,29.7669333 L-0.000266666667,0.364266667 Z" id="Fill-27" fill="#26A7B8" mask="url(#mask-4)"></path>
                    </g>
                    <mask id="mask-6" fill="white">
                        <use xlink:href="#path-5"></use>
                    </mask>
                    <g id="Clip-31"></g>
                    <polygon id="Fill-30" fill="#579B6B" mask="url(#mask-6)" points="0 341.256 479.401333 341.256 479.401333 337.145333 0 337.145333"></polygon>
                    <polygon id="Fill-32" fill="#D8D8D8" mask="url(#mask-6)" points="0 387.793333 479.401333 387.793333 479.401333 383.005333 0 383.005333"></polygon>
                    <polygon id="Fill-33" fill="#FFFFFF" mask="url(#mask-6)" points="0 419.781333 479.401333 419.781333 479.401333 412.648 0 412.648"></polygon>
                    <path d="M84.3565333,232.1364 C82.7952,232.1364 81.3072,232.451067 79.9485333,233.013733 C77.4218667,228.155067 72.3445333,224.833733 66.4885333,224.833733 C58.5898667,224.833733 52.1032,230.873733 51.3898667,238.587067 C50.1498667,237.9204 48.7312,237.5404 47.2232,237.5404 C42.3565333,237.5404 38.4112,241.485733 38.4112,246.353733 C38.4112,251.2204 42.3565333,255.165733 47.2232,255.165733 L84.3565333,255.165733 C90.7165333,255.165733 95.8712,250.011067 95.8712,243.651067 C95.8712,237.2924 90.7165333,232.1364 84.3565333,232.1364" id="Fill-34" fill="#FDFFFF" mask="url(#mask-6)"></path>
                    <path d="M311.562267,234.354533 C310.440933,234.354533 309.372933,234.579867 308.398267,234.9852 C306.5836,231.495867 302.938267,229.111867 298.734267,229.111867 C293.0636,229.111867 288.4076,233.4492 287.8956,238.986533 C287.004933,238.507867 285.986267,238.234533 284.904933,238.234533 C281.410267,238.234533 278.578267,241.066533 278.578267,244.5612 C278.578267,248.054533 281.410267,250.887867 284.904933,250.887867 L311.562267,250.887867 C316.1276,250.887867 319.828933,247.186533 319.828933,242.6212 C319.828933,238.055867 316.1276,234.354533 311.562267,234.354533" id="Fill-35" fill="#FDFFFF" mask="url(#mask-6)"></path>
                    <path d="M433.455467,232.1364 C431.8928,232.1364 430.406133,232.451067 429.047467,233.013733 C426.5208,228.155067 421.442133,224.833733 415.587467,224.833733 C407.687467,224.833733 401.202133,230.873733 400.4888,238.587067 C399.2488,237.9204 397.8288,237.5404 396.322133,237.5404 C391.455467,237.5404 387.5088,241.485733 387.5088,246.353733 C387.5088,251.2204 391.455467,255.165733 396.322133,255.165733 L433.455467,255.165733 C439.815467,255.165733 444.970133,250.011067 444.970133,243.651067 C444.970133,237.2924 439.815467,232.1364 433.455467,232.1364" id="Fill-36" fill="#FDFFFF" mask="url(#mask-6)"></path>
                    <path d="M192.488,234.8708 C191.469333,234.8708 190.5,235.076133 189.613333,235.4428 C187.964,232.273467 184.653333,230.1068 180.833333,230.1068 C175.681333,230.1068 171.450667,234.0468 170.985333,239.0788 C170.176,238.644133 169.249333,238.396133 168.266667,238.396133 C165.092,238.396133 162.517333,240.969467 162.517333,244.144133 C162.517333,247.3188 165.092,249.893467 168.266667,249.893467 L192.488,249.893467 C196.636,249.893467 200,246.529467 200,242.381467 C200,238.233467 196.636,234.8708 192.488,234.8708" id="Fill-37" fill="#FDFFFF" mask="url(#mask-6)"></path>
                    <path d="M79.0765333,365.7628 L128.216533,346.661467 L424.453867,346.661467 L399.6752,365.7628 C399.6752,365.7628 358.5432,359.0508 253.8952,359.0508 C149.248533,359.0508 89.1445333,365.7628 89.1445333,365.7628 L79.0765333,365.7628 Z" id="Fill-38" fill="#572E0C" mask="url(#mask-6)"></path>
                    <polygon id="Fill-39" fill="#7283A0" mask="url(#mask-6)" points="79.076 365.762667 89.144 365.762667 89.144 148.330667 79.076 148.330667"></polygon>
                    <path d="M79.0765333,169.079867 C83.9645333,173.123867 86.9365333,175.574533 89.1445333,179.1292 L89.1445333,148.330533 L79.0765333,148.330533 L79.0765333,169.079867 Z" id="Fill-40" fill="#586A80" mask="url(#mask-6)"></path>
                    <path d="M79.0765333,304.258133 L79.0765333,365.762133 L89.1445333,365.762133 L89.1445333,321.911467 C85.8085333,316.810133 82.3858667,310.931467 79.0765333,304.258133" id="Fill-41" fill="#9FB3CF" mask="url(#mask-6)"></path>
                    <polygon id="Fill-42" fill="#7283A0" mask="url(#mask-6)" points="389.608 365.762667 399.676 365.762667 399.676 148.330667 389.608 148.330667"></polygon>
                    <path d="M389.607733,169.079867 C394.495733,173.123867 397.469067,175.574533 399.675733,179.1292 L399.675733,148.330533 L389.607733,148.330533 L389.607733,169.079867 Z" id="Fill-43" fill="#586A80" mask="url(#mask-6)"></path>
                    <path d="M389.607733,304.258133 L389.607733,365.762133 L399.675733,365.762133 L399.675733,321.911467 C396.341067,316.810133 392.917067,310.931467 389.607733,304.258133" id="Fill-44" fill="#9FB3CF" mask="url(#mask-6)"></path>
                    <polygon id="Fill-45" fill="#7283A0" mask="url(#mask-6)" points="128.217333 346.661333 136.858667 346.661333 136.858667 152.948 128.217333 152.948"></polygon>
                    <path d="M128.2172,171.434667 C132.411867,175.037333 134.963867,177.22 136.858533,180.386667 L136.858533,152.948 L128.2172,152.948 L128.2172,171.434667 Z" id="Fill-46" fill="#586A80" mask="url(#mask-6)"></path>
                    <path d="M128.2172,291.866267 L128.2172,346.662267 L136.858533,346.662267 L136.858533,307.594267 C133.995867,303.048933 131.058533,297.8116 128.2172,291.866267" id="Fill-47" fill="#9FB3CF" mask="url(#mask-6)"></path>
                    <polygon id="Fill-48" fill="#7283A0" mask="url(#mask-6)" points="341.618667 346.661333 350.26 346.661333 350.26 152.948 341.618667 152.948"></polygon>
                    <path d="M341.618267,171.434667 C345.812933,175.037333 348.364933,177.22 350.2596,180.386667 L350.2596,152.948 L341.618267,152.948 L341.618267,171.434667 Z" id="Fill-49" fill="#586A80" mask="url(#mask-6)"></path>
                    <path d="M341.618267,291.866267 L341.618267,346.662267 L350.2596,346.662267 L350.2596,307.594267 C347.396933,303.048933 344.4596,297.8116 341.618267,291.866267" id="Fill-50" fill="#9FB3CF" mask="url(#mask-6)"></path>
                    <path d="M107.464,331.912 L371.936,331.912 L371.936,171.312 L107.464,171.312 L107.464,331.912 Z M99.7933333,339.581333 L379.605333,339.581333 L379.605333,163.641333 L99.7933333,163.641333 L99.7933333,339.581333 Z" id="Fill-51" fill="#7283A0" mask="url(#mask-6)"></path>
                    <polygon id="Fill-52" fill-opacity="0.5" fill="#FDFFFF" mask="url(#mask-6)" points="107.464 331.912 371.936 331.912 371.936 171.312 107.464 171.312"></polygon>
                    <polygon id="Fill-53" fill="#FDFFFF" mask="url(#mask-6)" points="107.464 173.522667 371.936 173.522667 371.936 171.312 107.464 171.312"></polygon>
                    <g id="Group-57" mask="url(#mask-6)" fill="#FDFFFF">
                        <g transform="translate(106.666667, 170.666667)">
                            <polygon id="Fill-54" fill-opacity="0.4" points="194.7132 0.6456 102.938533 0.6456 0.7972 102.786933 0.7972 161.2456 34.1145333 161.2456"></polygon>
                            <polygon id="Fill-55" fill-opacity="0.5" points="220.497067 0.6456 205.2464 0.6456 44.6464 161.2456 59.8984 161.2456"></polygon>
                            <polygon id="Fill-56" fill-opacity="0.4" points="265.2692 45.5010667 149.523867 161.245067 179.171867 161.245067 265.2692 75.1477333"></polygon>
                        </g>
                    </g>
                    <polygon id="Fill-58" fill="#7283A0" mask="url(#mask-6)" points="72.8693333 155.785333 406.532 155.785333 406.532 133.093333 72.8693333 133.093333"></polygon>
                    <polygon id="Fill-59" fill="#9FB3CF" mask="url(#mask-6)" points="72.8693333 137.888 406.532 137.888 406.532 133.093333 72.8693333 133.093333"></polygon>
                    <path d="M406.532267,140.875333 C355.768267,145.420667 300.384267,148.288667 240.9736,148.33 C180.588267,148.371333 124.3456,145.484667 72.8696,140.875333 L72.8696,155.786 L406.532267,155.786 L406.532267,140.875333 Z" id="Fill-60" fill="#586A80" mask="url(#mask-6)"></path>
                    <polygon id="Fill-61" fill="#9FB3CF" mask="url(#mask-6)" points="72.8693333 155.785333 406.532 155.785333 406.532 153.388 72.8693333 153.388"></polygon>
                    <polygon id="Fill-62" fill="#9FB3CF" mask="url(#mask-6)" points="99.7946667 166.572 379.606667 166.572 379.606667 163.641333 99.7946667 163.641333"></polygon>
                    <path d="M387.675467,114.237333 L91.7248,114.237333 C81.3114667,114.237333 72.8701333,122.68 72.8701333,133.093333 L406.5328,133.093333 C406.5328,122.68 398.090133,114.237333 387.675467,114.237333" id="Fill-63" fill="#FF8923" mask="url(#mask-6)"></path>
                    <path d="M405.184667,126.123467 C257.706,136.422133 134.754,131.591467 82.9233333,116.423467 C76.946,119.586133 72.87,125.8608 72.87,133.094133 L406.532667,133.094133 C406.532667,130.6288 406.046,128.282133 405.184667,126.123467" id="Fill-64" fill="#DA6419" mask="url(#mask-6)"></path>
                    <path d="M119.525733,117.433333 L389.229733,117.433333 C392.583067,117.433333 395.3004,120.224 395.3004,123.665333 L119.525733,117.433333 Z" id="Fill-65" fill="#FFCDAA" mask="url(#mask-6)"></path>
                    <path d="M169.1156,346.661867 L162.518267,346.661867 L162.518267,311.021867 L179.5556,311.021867 C177.4516,313.709867 175.166267,317.185867 173.252933,321.4912 C168.6836,331.765867 168.6716,341.264533 169.1156,346.661867" id="Fill-66" fill="#586A80" mask="url(#mask-6)"></path>
                    <path d="M153.040133,362.909867 L143.436133,362.909867 L143.436133,311.020533 L168.2388,311.020533 C165.176133,314.9352 161.848133,319.9952 159.0628,326.264533 C152.4108,341.221867 152.393467,355.052533 153.040133,362.909867" id="Fill-67" fill="#9FB3CF" mask="url(#mask-6)"></path>
                    <path d="M309.642933,346.661867 L316.240267,346.661867 L316.240267,311.021867 L299.202933,311.021867 C301.306933,313.709867 303.592267,317.185867 305.506933,321.4912 C310.074933,331.765867 310.088267,341.264533 309.642933,346.661867" id="Fill-68" fill="#586A80" mask="url(#mask-6)"></path>
                    <path d="M325.7184,362.909867 L335.323733,362.909867 L335.323733,311.020533 L310.519733,311.020533 C313.5824,314.9352 316.9104,319.9952 319.697067,326.264533 C326.347733,341.221867 326.365067,355.052533 325.7184,362.909867" id="Fill-69" fill="#9FB3CF" mask="url(#mask-6)"></path>
                    <path d="M335.964533,311.0212 L143.436533,311.0212 C141.225867,311.0212 139.417867,309.2132 139.417867,307.002533 C139.417867,304.7932 141.225867,302.9852 143.436533,302.9852 L335.964533,302.9852 C338.173867,302.9852 339.9832,304.7932 339.9832,307.002533 C339.9832,309.2132 338.173867,311.0212 335.964533,311.0212" id="Fill-70" fill="#FF8923" mask="url(#mask-6)"></path>
                    <path d="M335.964533,307.198267 L143.436533,307.198267 C141.920533,307.198267 140.609867,306.338267 139.925867,305.0916 C139.6112,305.6636 139.417867,306.308933 139.417867,307.0036 C139.417867,309.212933 141.225867,311.020933 143.436533,311.020933 L335.964533,311.020933 C338.173867,311.020933 339.9832,309.212933 339.9832,307.0036 C339.9832,306.308933 339.788533,305.6636 339.4752,305.0916 C338.789867,306.338267 337.480533,307.198267 335.964533,307.198267" id="Fill-71" fill="#DA6419" mask="url(#mask-6)"></path>
                    <polygon id="Fill-72" fill="#9FB3CF" mask="url(#mask-6)" points="143.436 326.265333 335.324 326.265333 335.324 311.021333 143.436 311.021333"></polygon>
                    <path d="M335.324,318.642933 C305.636,316.2816 273.561333,314.832267 239.38,314.832267 C209.598667,314.832267 177.510667,315.932267 143.436,318.642933 L143.436,311.0216 L335.324,311.0216 L335.324,318.642933 Z" id="Fill-73" fill="#7283A0" mask="url(#mask-6)"></path>
                    <path d="M429.458,192.539467 L395.740667,192.539467 C394.642,192.539467 393.743333,191.6408 393.743333,190.542133 C393.743333,189.443467 394.642,188.5448 395.740667,188.5448 L429.458,188.5448 C430.556667,188.5448 431.455333,189.443467 431.455333,190.542133 C431.455333,191.6408 430.556667,192.539467 429.458,192.539467" id="Fill-74" fill="#9FB3CF" mask="url(#mask-6)"></path>
                    <path d="M429.458,211.236 L395.740667,211.236 C394.642,211.236 393.743333,210.337333 393.743333,209.238667 C393.743333,208.14 394.642,207.241333 395.740667,207.241333 L429.458,207.241333 C430.556667,207.241333 431.455333,208.14 431.455333,209.238667 C431.455333,210.337333 430.556667,211.236 429.458,211.236" id="Fill-75" fill="#9FB3CF" mask="url(#mask-6)"></path>
                    <path d="M453.5088,199.930133 C453.5088,214.051467 442.0608,225.498133 427.939467,225.498133 C413.819467,225.498133 402.371467,214.051467 402.371467,199.930133 C402.371467,185.8088 413.819467,174.362133 427.939467,174.362133 C442.0608,174.362133 453.5088,185.8088 453.5088,199.930133" id="Fill-76" fill="#FF8923" mask="url(#mask-6)"></path>
                    <path d="M450.3916,199.930133 C450.3916,212.330133 440.3396,222.382133 427.9396,222.382133 C415.5396,222.382133 405.4876,212.330133 405.4876,199.930133 C405.4876,187.530133 415.5396,177.478133 427.9396,177.478133 C440.3396,177.478133 450.3916,187.530133 450.3916,199.930133" id="Fill-77" fill="#FDFFFF" mask="url(#mask-6)"></path>
                    <path d="M447.882533,199.930133 C447.882533,210.943467 438.954533,219.8728 427.939867,219.8728 C416.926533,219.8728 407.998533,210.943467 407.998533,199.930133 C407.998533,188.9168 416.926533,179.987467 427.939867,179.987467 C438.954533,179.987467 447.882533,188.9168 447.882533,199.930133" id="Fill-78" fill="#FF8923" mask="url(#mask-6)"></path>
                    <path d="M419.242667,204.341333 L436.637333,204.341333 L436.637333,192.009333 L419.242667,192.009333 L419.242667,204.341333 Z M434.32,208.854667 C433.4,208.854667 432.654667,208.108 432.654667,207.188 C432.654667,206.268 433.4,205.521333 434.32,205.521333 C435.24,205.521333 435.986667,206.268 435.986667,207.188 C435.986667,208.108 435.24,208.854667 434.32,208.854667 Z M421.561333,208.854667 C420.64,208.854667 419.894667,208.108 419.894667,207.188 C419.894667,206.268 420.64,205.521333 421.561333,205.521333 C422.48,205.521333 423.226667,206.268 423.226667,207.188 C423.226667,208.108 422.48,208.854667 421.561333,208.854667 Z M424.454667,190.324 L431.426667,190.324 L431.426667,188.490667 L424.454667,188.490667 L424.454667,190.324 Z M432.092,186.214667 L423.789333,186.214667 C420.3,186.214667 417.472,189.044 417.472,192.532 L417.472,207.42 C417.472,208.686667 418.389333,209.74 419.596,209.954667 L419.596,212.854667 C419.596,213.289333 419.952,213.645333 420.385333,213.645333 L422.736,213.645333 C423.170667,213.645333 423.524,213.289333 423.524,212.854667 L423.524,209.994667 L432.354667,209.994667 L432.354667,212.854667 C432.354667,213.289333 432.710667,213.645333 433.145333,213.645333 L435.496,213.645333 C435.929333,213.645333 436.285333,213.289333 436.285333,212.854667 L436.285333,209.954667 C437.492,209.74 438.406667,208.686667 438.406667,207.42 L438.406667,192.532 C438.406667,189.044 435.58,186.214667 432.092,186.214667 Z" id="Fill-79" fill="#FDFFFF" mask="url(#mask-6)"></path>
                    <path d="M414.167733,194.081067 L414.167733,196.379733 C414.167733,197.523733 415.0944,198.451733 416.239733,198.451733 L416.239733,192.009067 C415.0944,192.009067 414.167733,192.937067 414.167733,194.081067" id="Fill-80" fill="#FDFFFF" mask="url(#mask-6)"></path>
                    <path d="M439.6416,192.009467 L439.6416,198.452133 C440.784267,198.452133 441.7136,197.524133 441.7136,196.3788 L441.7136,194.081467 C441.7136,192.937467 440.784267,192.009467 439.6416,192.009467" id="Fill-81" fill="#FDFFFF" mask="url(#mask-6)"></path>
                </g>
            </g>
        </g>
    </g>
</svg>