<?xml version="1.0" encoding="UTF-8"?>
<svg width="120px" height="120px" viewBox="0 0 120 120" version="1.1" xmlns="http://www.w3.org/2000/svg" xmlns:xlink="http://www.w3.org/1999/xlink">
    <!-- Generator: Sketch 51.1 (57501) - http://www.bohemiancoding.com/sketch -->
    <title>Car26</title>
    <desc>Created with Sketch.</desc>
    <defs></defs>
    <g id="Car26" stroke="none" stroke-width="1" fill="none" fill-rule="evenodd">
        <g id="Group" transform="translate(60.500000, 60.421875) scale(-1, 1) translate(-60.500000, -60.421875) translate(3.000000, 27.000000)">
            <polygon id="Fill-1" fill="#41FCFC" points="110.999294 32.1655 99.1715438 8.11325 43.5331063 7.42396875 25.6204188 29.9963125"></polygon>
            <polygon id="Fill-2" fill="#B1FFFE" points="42.3567281 30.4214531 51.8140406 30.6615156 77.5222906 7.84479687 67.9276969 7.72548437"></polygon>
            <polygon id="Fill-3" fill="#B1FFFE" points="31.4376219 30.1440156 36.3028406 30.2676406 61.7861219 7.65001562 56.8497469 7.58820312"></polygon>
            <polygon id="Fill-4" fill="#B1FFFE" points="58.8785625 30.8413469 63.7437813 30.9649719 89.6238125 7.99444063 84.688875 7.93334688"></polygon>
            <polygon id="Fill-5" fill="#B1FFFE" points="32.3990937 21.4539687 48.1425937 7.48075 43.53325 7.42325"></polygon>
            <polygon id="Fill-6" fill="#B1FFFE" points="65.2940531 31.0043594 74.4768031 31.2379531 99.5848969 8.95382812 99.1716156 8.11289062 91.1970844 8.01442187"></polygon>
            <polygon id="Fill-7" fill="#B1FFFE" points="84.3135437 31.4876469 88.6289187 31.5976156 104.008012 17.9478344 102.658919 15.2050844"></polygon>
            <polygon id="Fill-8" fill="#B1FFFE" points="94.0745281 31.7356875 98.9404656 31.8593125 107.230528 24.5014688 105.709653 21.4086875"></polygon>
            <polygon id="Fill-9" fill="#1A393A" points="13.2380812 55.4055625 107.996644 58.3438125 108.417831 45.1554688 13.6592687 42.2179375"></polygon>
            <g id="Group-136" transform="translate(0.000000, 0.658375)">
                <path d="M93.990075,3.27584687 C93.9807312,3.61294062 93.696825,3.87959688 93.3539813,3.86953437 L50.3267313,2.69222188 C49.985325,2.68359688 49.715075,2.40256562 49.7251375,2.06547188 C49.7352,1.72765938 50.019825,1.46244063 50.3605125,1.47106563 L93.3884812,2.64765938 C93.7298875,2.65700312 94.0001375,2.93875313 93.990075,3.27584687" id="Fill-10" fill="#A9B1B0"></path>
                <path d="M93.1954969,5.99854375 C93.2328719,4.6092 93.2752781,3.05310625 93.3119344,1.73491875 C93.8387781,1.8477625 94.6940906,2.0605125 94.6940906,2.0605125 C95.3373719,3.025075 95.7240594,5.06129375 95.9784969,5.9302625 C95.8821844,5.9762625 95.7844344,6.020825 95.6392469,6.01723125 L93.1954969,5.99854375 Z" id="Fill-12" fill="#5E7576"></path>
                <path d="M50.4172938,4.82841875 C50.4561063,3.439075 50.497075,1.88298125 50.5337313,0.56479375 C50.0032938,0.6488875 49.1357625,0.81491875 49.1357625,0.81491875 C48.4392938,1.74354375 47.944075,3.7538875 47.6429188,4.6092 C47.737075,4.6595125 47.83195,4.709825 47.9757,4.7141375 L50.4172938,4.82841875 Z" id="Fill-14" fill="#5E7576"></path>
                <path d="M97.0822813,29.2986219 C96.809875,29.0707781 96.692,28.7070906 96.5992813,28.3793406 C96.462,27.8949031 96.3261563,27.4111844 96.1895938,26.9274656 C95.9164687,25.9600281 95.6440625,24.9925906 95.3716563,24.0244344 C94.5918125,21.2594031 93.8126875,18.4950906 93.0328438,15.7300594 C92.6447188,14.3522156 92.1358438,12.9714969 91.747,11.5929344 C91.542875,10.8691531 90.6882813,8.56771562 91.186375,8.43762187 C91.5615625,8.33987188 93.3066875,8.38587187 94.0232813,8.38587187 C95.3429063,8.39737188 96.66325,8.43330937 97.982875,8.45702812 C98.1338125,8.45990312 98.2840313,8.46493437 98.4356875,8.46565312 C99.0336875,8.46924687 99.190375,8.88468437 99.4074375,9.32455937 C99.5849688,9.68609063 99.7632188,10.0483406 99.9414688,10.4098719 C100.456812,11.4556531 100.971438,12.5014344 101.486063,13.5472156 L103.428125,17.4917156 C104.113094,18.8824969 104.798063,20.2732781 105.482313,21.6647781 C106.109063,22.9376844 106.736531,24.2120281 107.363281,25.4856531 C107.880781,26.5343094 108.376719,27.5966219 108.92225,28.6316219 C109.111281,28.9917156 109.090437,29.3460594 108.676438,29.5437156 C108.34725,29.7011219 107.946906,29.7672469 107.459594,29.7564656 C106.695563,29.7384969 105.929375,29.7198094 105.165344,29.7025594 C103.555344,29.6651844 101.946781,29.6270906 100.338219,29.5897156 C99.6812813,29.5739031 99.0243437,29.5588094 98.3666875,29.5437156 C97.9045313,29.5322156 97.505625,29.6213406 97.1160625,29.3259344 C97.1052813,29.3165906 97.0930625,29.3072469 97.0822813,29.2986219 Z M73.0329063,28.5094344 C72.7554688,28.1816844 72.7676875,27.7482781 72.7813438,27.3393094 C72.7942813,26.9346531 72.8072188,26.5285594 72.8201563,26.1239031 C72.8632813,24.7704969 72.907125,23.4170906 72.9495313,22.0651219 C73.0012813,20.4630281 73.0523125,18.8616531 73.1033438,17.2602781 C73.1529375,15.7257469 73.2018125,14.1912156 73.2506875,12.6566844 C73.2880625,11.5045281 73.3254375,10.3530906 73.361375,9.20093437 C73.3735938,8.79627812 73.2240938,8.19540312 73.6711563,7.95749688 C73.9629688,7.80224687 74.3546875,7.86405937 74.6745313,7.87268437 C75.30775,7.89065313 75.9395313,7.90862187 76.57275,7.92659063 C78.2294688,7.97330937 79.8854688,8.02002812 81.5414688,8.06602813 C83.050125,8.10915312 84.5595,8.15227812 86.0674375,8.19540312 C86.5885313,8.21049687 87.1146563,8.15012188 87.6185,8.30896562 C87.8463438,8.38012188 87.8837188,8.61587188 87.9426563,8.82071563 C88.0310625,9.12905938 88.1201875,9.43668438 88.2085938,9.74502813 C88.54425,10.9122781 88.8799063,12.0795281 89.2162813,13.2474969 C89.6561563,14.7777156 90.0974688,16.3086531 90.5387813,17.8395906 C90.9959063,19.4294656 91.45375,21.0193406 91.910875,22.6084969 C92.2975625,23.9525594 92.6849688,25.2966219 93.0716563,26.6399656 C93.2118125,27.1244031 93.3548438,27.6074031 93.4899688,28.0925594 C93.589875,28.4548094 93.7178125,28.9320594 93.3275313,29.1692469 C93.0730938,29.3237781 92.7755313,29.2828094 92.4923438,29.2741844 C92.140875,29.2641219 91.7886875,29.2554969 91.4365,29.2468719 C90.0795,29.2109344 88.7239375,29.1749969 87.3669375,29.1390594 C85.7325,29.0959344 84.0980625,29.0528094 82.463625,29.0096844 C80.8838125,28.9687156 79.3047188,28.9263094 77.725625,28.8846219 C76.506625,28.8529969 75.287625,28.8206531 74.0693438,28.7890281 C73.7451875,28.7796844 73.3426875,28.8213719 73.094,28.5762781 C73.0717188,28.5539969 73.0515938,28.5324344 73.0329063,28.5094344 Z M68.8943437,28.4433094 C68.5867187,28.6783406 68.0663438,28.6352156 67.7220625,28.6273094 C67.1003438,28.6143719 66.4779063,28.5999969 65.8561875,28.5863406 C64.6486875,28.5604656 63.43975,28.5345906 62.2308125,28.5072781 C60.7645625,28.4749344 59.2983125,28.4433094 57.8313437,28.4109656 C56.2472188,28.3771844 54.6638125,28.3419656 53.0796875,28.3074656 C51.5192813,28.2736844 49.958875,28.2391844 48.3984687,28.2054031 C47.0026563,28.1744969 45.6068438,28.1443094 44.2103125,28.1141219 C43.11925,28.0896844 42.0281875,28.0659656 40.937125,28.0422469 C40.5497188,28.0336219 40.1630312,28.0249969 39.775625,28.0163719 C39.6304375,28.0127781 39.4830937,28.0163719 39.3371875,28.0070281 C38.6874375,27.9653406 39.0058437,27.3666219 39.194875,27.0230594 C39.6635,26.1778094 40.1306875,25.3325594 40.5985938,24.4865906 C41.253375,23.3042469 41.9081563,22.1211844 42.5629375,20.9381219 C43.3025313,19.6005281 44.042125,18.2636531 44.7824375,16.9274969 C45.5047813,15.6215281 46.2278437,14.3155594 46.9501875,13.0095906 C47.5539375,11.9178094 48.1569687,10.8274656 48.7614375,9.73640313 C48.9705937,9.35905937 49.1790313,8.98171563 49.3874688,8.60437187 C49.5808125,8.25577812 49.7475625,7.84393437 49.9976875,7.53271562 C50.3894063,7.04755938 51.1354687,7.24234063 51.6860313,7.25671562 C52.954625,7.28905937 54.2217812,7.32212187 55.4882188,7.35446562 C57.1190625,7.39687188 58.7484688,7.43927813 60.3771562,7.48096562 C61.9749375,7.52265313 63.5712813,7.56362188 65.1690625,7.60530937 C65.8763125,7.62327813 66.5842812,7.64124687 67.29225,7.65921562 C67.9197188,7.67574687 68.6657812,7.58230938 69.2515625,7.84249687 C69.8855,8.12496562 69.7338437,8.84084062 69.715875,9.40937188 C69.6763438,10.6520906 69.635375,11.8955281 69.5958438,13.1382469 C69.5448125,14.7338719 69.4945,16.3287781 69.44275,17.9236844 C69.3924375,19.5379969 69.3406875,21.1508719 69.2889375,22.7637469 L69.1645937,26.6543406 C69.1538125,26.9820906 69.1653125,27.3105594 69.1516563,27.6375906 C69.1423125,27.8568094 69.1516563,28.1371219 69.0129375,28.3239969 C68.9784375,28.3699969 68.9381875,28.4102469 68.8943437,28.4433094 Z M112.968813,38.9880906 C113.096031,36.5457781 113.216781,34.0301531 113.123344,32.7565281 L113.157844,32.7356844 L113.113281,32.6350594 C113.096031,32.4510594 113.076625,32.2871844 113.048594,32.1700281 C112.802781,31.1379031 111.317844,28.0343406 109.423219,24.3212781 L109.409563,24.2939656 C107.293563,20.1482156 104.673719,15.2592781 102.687094,11.6389344 C101.952531,10.2991844 100.170031,7.21215313 100.170031,7.21215313 C98.6103437,4.69580937 96.539625,4.80146563 96.539625,4.80146563 L49.7734375,3.76502813 C49.7734375,3.76502813 44.7227813,3.75927812 43.2989375,7.02887188 C43.835125,7.03318438 44.37275,7.03821562 44.9096562,7.04252812 C45.333,7.04540313 45.7585,7.04827812 46.184,7.05187188 C46.3658438,7.05330937 46.5455313,7.05474688 46.727375,7.05618438 C47.4382187,7.06193437 46.8042813,7.93305938 46.629625,8.22487187 C46.3888437,8.62880938 46.1487812,9.03274688 45.9072812,9.43668438 C45.249625,10.5399656 44.59125,11.6439656 43.9335938,12.7472469 C43.1408125,14.0769344 42.3480312,15.4066219 41.55525,16.7363094 C40.7488125,18.0897156 39.9409375,19.4438406 39.1337813,20.7972469 C38.433,21.9731219 37.7315,23.1489969 37.03,24.3248719 C36.5563437,25.1212469 36.08125,25.9169031 35.6061562,26.7132781 C35.47175,26.9404031 35.3351875,27.1682469 35.1993437,27.3960906 C33.7029062,27.3960906 26.9337187,27.7259969 26.9337187,27.7259969 C23.411125,28.4418719 3.24228125,36.8605906 3.24228125,36.8605906 C2.40709375,37.7791531 2.003875,38.7559344 1.83065625,39.7779969 C1.50075,41.7229344 1.72715625,54.1580281 1.66534375,56.0878719 L9.524875,56.5040281 L15.9275,56.7024031 C15.8937187,56.2912781 15.8800625,55.8744031 15.8937187,55.4524969 C16.0870625,49.3819344 21.2405,44.6166219 27.4030625,44.8078094 C33.5663437,44.9975594 38.4064063,50.0740906 38.2123437,56.1446531 C38.1994062,56.5665594 38.157,56.9819969 38.096625,57.3895281 L81.0555937,58.7220906 C81.020375,58.3102469 81.008875,57.8933719 81.0225313,57.4714656 C81.215875,51.4009031 86.3685938,46.6355906 92.5311563,46.8267781 C98.6944375,47.0172469 103.533062,52.0930594 103.339719,58.1629031 C103.324625,58.5855281 103.285813,59.0009656 103.226875,59.4092156 L112.058875,59.5371531 L112.202625,54.3750906 C112.204063,54.3456219 112.2055,54.3168719 112.206219,54.2874031 L112.968813,38.9880906 Z" id="Fill-16" fill="#FF4343"></path>
                <path d="M101.32075,38.1194094 C102.121438,37.9411594 102.674156,37.6651594 102.882594,37.3374094 C102.981063,37.1814406 103.004063,37.0139719 102.953031,36.8242219 C102.828688,36.3081594 102.03375,36.1701594 101.386156,36.0817531 L101.32075,38.1194094 Z M101.133156,35.9329719 L101.145375,35.7942531 L101.285531,35.8136594 C102.021531,35.9099719 103.027781,36.0429406 103.201,36.7631281 C103.27,37.0175656 103.2355,37.2554719 103.100375,37.4696594 C102.769031,37.9950656 101.89,38.2667531 101.213656,38.4018781 L101.054094,38.4327844 L101.133156,35.9329719 Z" id="Fill-18" fill="#BE2323"></path>
                <path d="M102.375731,34.3431687 C101.860388,34.3273562 101.428419,34.7262625 101.412606,35.2329812 L101.393919,35.8281062 C102.116981,35.9244188 103.036263,36.0775125 103.200856,36.7632 C103.269856,37.0176375 103.235356,37.2555438 103.099513,37.4697312 C102.785419,37.9692625 101.973231,38.2395125 101.3127,38.3811062 L101.306231,38.5751688 C101.290419,39.0818875 101.695075,39.5073875 102.210419,39.5224812 L105.602919,39.6281375 C106.118263,39.64395 106.550231,39.2450438 106.566044,38.738325 L106.672419,35.3961375 C106.68895,34.8894187 106.283575,34.4639187 105.76895,34.4481062 L102.375731,34.3431687 Z M101.049638,38.5679813 L101.062575,38.1726687 L101.162481,38.1532625 C102.049419,37.9771687 102.660356,37.6867937 102.88245,37.3374812 C102.980919,37.1815125 103.003919,37.0140437 102.953606,36.8242937 C102.818481,36.2701375 101.913575,36.1515438 101.245138,36.0624187 L101.130138,36.0487625 L101.156731,35.2257937 C101.177575,34.5789187 101.728856,34.0700438 102.383638,34.0901687 L105.776856,34.1951062 C106.433794,34.2166687 106.948419,34.7586062 106.928294,35.4040437 L106.821919,38.7462313 C106.800356,39.3916688 106.250513,39.9012625 105.595013,39.8811375 L102.201794,39.7762 C101.545575,39.7553563 101.028794,39.2134187 101.049638,38.5679813 Z" id="Fill-20" fill="#BE2323"></path>
                <path d="M82.8045281,56.1948937 C82.9640906,51.1334562 87.1939344,47.1587687 92.2481844,47.3176125 C97.3045906,47.477175 101.274966,51.7098937 101.115403,56.7706125 C100.956559,61.8327687 96.7274344,65.808175 91.6703094,65.6493313 C86.6174969,65.4897687 82.6449656,61.2563313 82.8045281,56.1948937" id="Fill-22" fill="#182929"></path>
                <path d="M87.6799531,56.3485625 C87.7547031,53.9817187 89.7312656,52.1230312 92.0937969,52.1985 C94.4599219,52.2725313 96.3150156,54.2519687 96.2402656,56.6180937 C96.1662344,58.9842187 94.1896719,60.8421875 91.8242656,60.7674375 C89.4617344,60.6934062 87.6052031,58.7146875 87.6799531,56.3485625" id="Fill-24" fill="#5E7576"></path>
                <path d="M91.7214844,53.3104062 C91.7272344,53.121375 91.8832031,52.97475 92.0686406,52.9805 C92.2569531,52.98625 92.4028594,53.1429375 92.3971094,53.33125 C92.3920781,53.5166875 92.2353906,53.6654687 92.0485156,53.659 C91.8616406,53.65325 91.7157344,53.4958437 91.7214844,53.3104062" id="Fill-26" fill="#1A393A"></path>
                <path d="M91.5137656,59.8907063 C91.5202344,59.7031125 91.6762031,59.5557687 91.8623594,59.5615187 C92.0499531,59.5679875 92.1965781,59.724675 92.1908281,59.9122688 C92.1850781,60.098425 92.0283906,60.24505 91.8415156,60.2385813 C91.6539219,60.23355 91.5080156,60.0761437 91.5137656,59.8907063" id="Fill-28" fill="#1A393A"></path>
                <path d="M94.1234031,54.1105906 C94.2578094,53.9819344 94.4727156,53.9891219 94.5992156,54.1256844 C94.7278719,54.2600906 94.7206844,54.4749969 94.5841219,54.6036531 C94.4497156,54.7308719 94.2340906,54.7236844 94.1083094,54.5885594 C93.9789344,54.4519969 93.9861219,54.2363719 94.1234031,54.1105906" id="Fill-30" fill="#1A393A"></path>
                <path d="M89.3294125,58.6171531 C89.4631,58.4870594 89.6765688,58.4949656 89.8059438,58.6322469 C89.9346,58.7688094 89.9274125,58.9815594 89.7915688,59.1109344 C89.65285,59.2374344 89.4393812,59.2309656 89.3143188,59.0958406 C89.184225,58.9592781 89.1914125,58.7429344 89.3294125,58.6171531" id="Fill-32" fill="#1A393A"></path>
                <path d="M95.2534938,56.3745812 C95.4403687,56.3796125 95.586275,56.539175 95.5812437,56.723175 C95.574775,56.9114875 95.4180875,57.056675 95.23265,57.050925 C95.0472125,57.0458937 94.89915,56.889925 94.9049,56.7016125 C94.9099312,56.5183313 95.0680562,56.3688312 95.2534938,56.3745812" id="Fill-34" fill="#1A393A"></path>
                <path d="M88.6808844,56.1675094 C88.8670406,56.1725406 89.0122281,56.3321031 89.0064781,56.5161031 C89.0000094,56.7044156 88.8454781,56.8496031 88.6600406,56.8438531 C88.4724469,56.8388219 88.3258219,56.6835719 88.3315719,56.4952594 C88.3373219,56.3105406 88.4940094,56.1617594 88.6808844,56.1675094" id="Fill-36" fill="#1A393A"></path>
                <path d="M94.4526625,58.7767875 C94.5813188,58.91335 94.57485,59.1282562 94.4375688,59.2569125 C94.29885,59.3841312 94.0875375,59.3769437 93.9596,59.2411 C93.8323813,59.1045375 93.83885,58.8925062 93.9746938,58.7631312 C94.1112563,58.6337562 94.3268813,58.640225 94.4526625,58.7767875" id="Fill-38" fill="#1A393A"></path>
                <path d="M89.9519937,53.9782688 C90.08065,54.1141125 90.0741812,54.3268625 89.9376187,54.4548 C89.7989,54.584175 89.5854312,54.5777063 89.4610875,54.4418625 C89.3309937,54.3053 89.3381812,54.0903938 89.4733062,53.963175 C89.6084312,53.8359563 89.8226187,53.842425 89.9519937,53.9782688" id="Fill-40" fill="#1A393A"></path>
                <path d="M91.7214844,53.3104062 C91.7272344,53.121375 91.8832031,52.97475 92.0686406,52.9805 C92.2569531,52.98625 92.4028594,53.1429375 92.3971094,53.33125 C92.3920781,53.5166875 92.2353906,53.6654687 92.0485156,53.659 C91.8616406,53.65325 91.7157344,53.4958437 91.7214844,53.3104062" id="Fill-42" fill="#041D1D"></path>
                <path d="M91.5137656,59.8907063 C91.5202344,59.7031125 91.6762031,59.5557687 91.8623594,59.5615187 C92.0499531,59.5679875 92.1965781,59.724675 92.1908281,59.9122688 C92.1850781,60.098425 92.0283906,60.24505 91.8415156,60.2385813 C91.6539219,60.23355 91.5080156,60.0761437 91.5137656,59.8907063" id="Fill-44" fill="#041D1D"></path>
                <path d="M94.1234031,54.1105906 C94.2578094,53.9819344 94.4727156,53.9891219 94.5992156,54.1256844 C94.7278719,54.2600906 94.7206844,54.4749969 94.5841219,54.6036531 C94.4497156,54.7308719 94.2340906,54.7236844 94.1083094,54.5885594 C93.9789344,54.4519969 93.9861219,54.2363719 94.1234031,54.1105906" id="Fill-46" fill="#041D1D"></path>
                <path d="M89.3294125,58.6171531 C89.4631,58.4870594 89.6765688,58.4949656 89.8059438,58.6322469 C89.9346,58.7688094 89.9274125,58.9815594 89.7915688,59.1109344 C89.65285,59.2374344 89.4393812,59.2309656 89.3143188,59.0958406 C89.184225,58.9592781 89.1914125,58.7429344 89.3294125,58.6171531" id="Fill-48" fill="#041D1D"></path>
                <path d="M95.2534938,56.3745812 C95.4403687,56.3796125 95.586275,56.539175 95.5812437,56.723175 C95.574775,56.9114875 95.4180875,57.056675 95.23265,57.050925 C95.0472125,57.0458937 94.89915,56.889925 94.9049,56.7016125 C94.9099312,56.5183313 95.0680562,56.3688312 95.2534938,56.3745812" id="Fill-50" fill="#041D1D"></path>
                <path d="M88.6808844,56.1675094 C88.8670406,56.1725406 89.0122281,56.3321031 89.0064781,56.5161031 C89.0000094,56.7044156 88.8454781,56.8496031 88.6600406,56.8438531 C88.4724469,56.8388219 88.3258219,56.6835719 88.3315719,56.4952594 C88.3373219,56.3105406 88.4940094,56.1617594 88.6808844,56.1675094" id="Fill-52" fill="#041D1D"></path>
                <path d="M94.4526625,58.7767875 C94.5813188,58.91335 94.57485,59.1282562 94.4375688,59.2569125 C94.29885,59.3841312 94.0875375,59.3769437 93.9596,59.2411 C93.8323813,59.1045375 93.83885,58.8925062 93.9746938,58.7631312 C94.1112563,58.6337562 94.3268813,58.640225 94.4526625,58.7767875" id="Fill-54" fill="#041D1D"></path>
                <path d="M89.9519937,53.9782688 C90.08065,54.1141125 90.0741812,54.3268625 89.9376187,54.4548 C89.7989,54.584175 89.5854312,54.5777063 89.4610875,54.4418625 C89.3309937,54.3053 89.3381812,54.0903938 89.4733062,53.963175 C89.6084312,53.8359563 89.8226187,53.842425 89.9519937,53.9782688" id="Fill-56" fill="#041D1D"></path>
                <path d="M17.5470594,54.901575 C17.7066219,49.8394187 21.9371844,45.8647312 26.9907156,46.023575 C32.0478406,46.1831375 36.0182156,50.4151375 35.8593719,55.4780125 C35.6990906,60.5387312 31.4699656,64.5141375 26.4135594,64.354575 C21.3600281,64.1957312 17.3874969,59.9630125 17.5470594,54.901575" id="Fill-58" fill="#182929"></path>
                <path d="M22.4224844,55.0545969 C22.4972344,52.6884719 24.4745156,50.8297844 26.8370469,50.9038156 C29.2017344,50.9778469 31.0575469,52.9580031 30.9827969,55.3241281 C30.9087656,57.6902531 28.9314844,59.5482219 26.5675156,59.4741906 C24.2049844,59.4001594 22.3477344,57.4207219 22.4224844,55.0545969" id="Fill-60" fill="#5E7576"></path>
                <path d="M26.4640875,52.0164406 C26.4698375,51.8281281 26.6258062,51.6815031 26.8119625,51.6872531 C26.9995563,51.6930031 27.1461813,51.8496906 27.1404313,52.0380031 C27.1354,52.2234406 26.9779938,52.3715031 26.7904,52.3650344 C26.6042437,52.3600031 26.4576188,52.2025969 26.4640875,52.0164406" id="Fill-62" fill="#1A393A"></path>
                <path d="M26.2570156,58.5971 C26.2627656,58.410225 26.4187344,58.2621625 26.6056094,58.2679125 C26.7917656,58.2736625 26.9398281,58.4310687 26.9333594,58.6186625 C26.9276094,58.8041 26.7716406,58.9521625 26.5833281,58.9456937 C26.3971719,58.9399437 26.2505469,58.7825375 26.2570156,58.5971" id="Fill-64" fill="#1A393A"></path>
                <path d="M28.8660063,52.8159062 C29.0004125,52.6879688 29.2153188,52.695875 29.3418188,52.831 C29.470475,52.966125 29.4640062,53.1810312 29.326725,53.3104062 C29.1916,53.4361875 28.9774125,53.4304375 28.8509125,53.2945937 C28.7215375,53.1573125 28.7294438,52.9438437 28.8660063,52.8159062" id="Fill-66" fill="#1A393A"></path>
                <path d="M24.0720156,57.3231875 C24.2064219,57.1938125 24.4184531,57.2002812 24.5485469,57.3382812 C24.6772031,57.4755625 24.6700156,57.6883125 24.5341719,57.8176875 C24.3961719,57.9434687 24.1819844,57.9362813 24.0569219,57.801875 C23.9275469,57.6645937 23.9340156,57.4496875 24.0720156,57.3231875" id="Fill-68" fill="#1A393A"></path>
                <path d="M29.9967438,55.0806156 C30.1829,55.0856469 30.329525,55.2452094 30.323775,55.4284906 C30.3173063,55.6175219 30.1613375,55.7627094 29.9751813,55.7569594 C29.7897438,55.7512094 29.6416813,55.5966781 29.64815,55.4083656 C29.6531813,55.2236469 29.8105875,55.0741469 29.9967438,55.0806156" id="Fill-70" fill="#1A393A"></path>
                <path d="M23.4241344,54.8735437 C23.6102906,54.8792938 23.7554781,55.0381375 23.7490094,55.2221375 C23.7432594,55.4111687 23.5887281,55.5563563 23.4018531,55.5506063 C23.2156969,55.5448562 23.0683531,55.3896062 23.0741031,55.2012937 C23.0798531,55.0172938 23.2365406,54.8677937 23.4241344,54.8735437" id="Fill-72" fill="#1A393A"></path>
                <path d="M29.1959125,57.482175 C29.3245688,57.6194563 29.3173813,57.8343625 29.1793813,57.9630188 C29.0421,58.0902375 28.8300688,58.08305 28.70285,57.947925 C28.5756313,57.8113625 28.5821,57.5986125 28.7179437,57.4699563 C28.8530687,57.3398625 29.0686937,57.34705 29.1959125,57.482175" id="Fill-74" fill="#1A393A"></path>
                <path d="M24.6952438,52.6853094 C24.8231813,52.8204344 24.8167125,53.0339031 24.68015,53.1611219 C24.5428688,53.2912156 24.3279625,53.2833094 24.2043375,53.1481844 C24.0728063,53.0116219 24.0807125,52.7967156 24.2151188,52.6694969 C24.3509625,52.5422781 24.5658688,52.5487469 24.6952438,52.6853094" id="Fill-76" fill="#1A393A"></path>
                <path d="M26.4640875,52.0164406 C26.4698375,51.8281281 26.6258062,51.6815031 26.8119625,51.6872531 C26.9995563,51.6930031 27.1461813,51.8496906 27.1404313,52.0380031 C27.1354,52.2234406 26.9779938,52.3715031 26.7904,52.3650344 C26.6042437,52.3600031 26.4576188,52.2025969 26.4640875,52.0164406" id="Fill-78" fill="#041D1D"></path>
                <path d="M26.2570156,58.5971 C26.2627656,58.410225 26.4187344,58.2621625 26.6056094,58.2679125 C26.7917656,58.2736625 26.9398281,58.4310687 26.9333594,58.6186625 C26.9276094,58.8041 26.7716406,58.9521625 26.5833281,58.9456937 C26.3971719,58.9399437 26.2505469,58.7825375 26.2570156,58.5971" id="Fill-80" fill="#041D1D"></path>
                <path d="M28.8660063,52.8159062 C29.0004125,52.6879688 29.2153188,52.695875 29.3418188,52.831 C29.470475,52.966125 29.4640062,53.1810312 29.326725,53.3104062 C29.1916,53.4361875 28.9774125,53.4304375 28.8509125,53.2945937 C28.7215375,53.1573125 28.7294438,52.9438437 28.8660063,52.8159062" id="Fill-82" fill="#041D1D"></path>
                <path d="M24.0720156,57.3231875 C24.2064219,57.1938125 24.4184531,57.2002812 24.5485469,57.3382812 C24.6772031,57.4755625 24.6700156,57.6883125 24.5341719,57.8176875 C24.3961719,57.9434687 24.1819844,57.9362813 24.0569219,57.801875 C23.9275469,57.6645937 23.9340156,57.4496875 24.0720156,57.3231875" id="Fill-84" fill="#041D1D"></path>
                <path d="M29.9967438,55.0806156 C30.1829,55.0856469 30.329525,55.2452094 30.323775,55.4284906 C30.3173063,55.6175219 30.1613375,55.7627094 29.9751813,55.7569594 C29.7897438,55.7512094 29.6416813,55.5966781 29.64815,55.4083656 C29.6531813,55.2236469 29.8105875,55.0741469 29.9967438,55.0806156" id="Fill-86" fill="#041D1D"></path>
                <path d="M23.4241344,54.8735437 C23.6102906,54.8792938 23.7554781,55.0381375 23.7490094,55.2221375 C23.7432594,55.4111687 23.5887281,55.5563563 23.4018531,55.5506063 C23.2156969,55.5448562 23.0683531,55.3896062 23.0741031,55.2012937 C23.0798531,55.0172938 23.2365406,54.8677937 23.4241344,54.8735437" id="Fill-88" fill="#041D1D"></path>
                <path d="M29.1959125,57.482175 C29.3245688,57.6194563 29.3173813,57.8343625 29.1793813,57.9630188 C29.0421,58.0902375 28.8300688,58.08305 28.70285,57.947925 C28.5756313,57.8113625 28.5821,57.5986125 28.7179437,57.4699563 C28.8530687,57.3398625 29.0686937,57.34705 29.1959125,57.482175" id="Fill-90" fill="#041D1D"></path>
                <path d="M24.6952438,52.6853094 C24.8231813,52.8204344 24.8167125,53.0339031 24.68015,53.1611219 C24.5428688,53.2912156 24.3279625,53.2833094 24.2043375,53.1481844 C24.0728063,53.0116219 24.0807125,52.7967156 24.2151188,52.6694969 C24.3509625,52.5422781 24.5658688,52.5487469 24.6952438,52.6853094" id="Fill-92" fill="#041D1D"></path>
                <path d="M67.0004375,34.9303156 C66.9831875,35.5577844 66.4599375,36.0508469 65.8324688,36.0328781 L60.5424687,35.8769094 C59.9157187,35.8589406 59.4226562,35.3349719 59.4413438,34.7082219 C59.4593125,34.0814719 59.9818437,33.5876906 60.6085937,33.6056594 L65.9000312,33.7616281 C66.5260625,33.7795969 67.0184062,34.3035656 67.0004375,34.9303156" id="Fill-94" fill="#1A393A"></path>
                <path d="M69.132825,29.8383313 L68.6390437,42.756425 L68.0877625,55.6716438 L68.0812938,55.8074875 L67.9447312,55.803175 L54.4796687,55.3187375 L41.0182,54.7552375 L40.8852312,54.7502063 L40.8837937,54.612925 L40.8701375,53.2724563 C40.8306062,52.82755 40.802575,52.3812063 40.7501062,51.9384563 C40.6660125,51.5014563 40.6307937,51.0529563 40.50645,50.6238625 L40.3432937,49.9762688 L40.1283875,49.3444875 C40.0629812,49.1310188 39.9709812,48.9283312 39.8789813,48.7256438 C39.7869812,48.523675 39.7057625,48.3159562 39.5900437,48.1254875 C39.4786375,47.9343 39.3859187,47.730175 39.2587,47.54905 C39.1307625,47.3672063 39.0193563,47.1738625 38.8784812,47.0020813 C38.7361687,46.8324563 38.6111062,46.6477375 38.4522625,46.4917688 C38.3034812,46.3286125 38.1496687,46.1697688 37.9814812,46.0253 C37.8219187,45.8722063 37.6422312,45.740675 37.4654187,45.6098625 C37.28645,45.4840813 37.0952625,45.36405 36.90695,45.2742063 L36.8386687,45.2418625 L36.8415437,45.1721438 L37.1635437,37.3406438 L37.5186062,29.5098625 L37.3029812,37.345675 L37.0550125,45.18005 L36.9896062,45.0779875 C37.2095438,45.1793313 37.4007312,45.3000813 37.5904813,45.4316125 C37.7759187,45.5660188 37.962075,45.7018625 38.128825,45.8592687 C38.3034812,46.00805 38.4637625,46.1712063 38.6190125,46.3393937 C38.7828875,46.4989563 38.9137,46.6879875 39.0617625,46.861925 C39.20695,47.0387375 39.3226687,47.2363938 39.4556375,47.42255 C39.5878875,47.6087063 39.6842,47.816425 39.8006375,48.0126438 C39.91995,48.2081438 40.0054812,48.420175 40.1003562,48.627175 C40.19595,48.834175 40.290825,49.041175 40.359825,49.2589562 L40.5833562,49.903675 L40.7544187,50.564925 C40.883075,51.001925 40.9226063,51.4576125 41.0110125,51.9032375 C41.067075,52.353175 41.0987,52.8067063 41.1411062,53.2580813 L41.1633875,54.618675 L41.0289812,54.4763625 L54.4940437,54.9629563 L67.9555125,55.5286125 L67.8124812,55.659425 L68.4435438,42.7470813 L69.132825,29.8383313 Z" id="Fill-96" fill="#BE2323"></path>
                <path d="M112.243091,52.737275 C110.701372,52.639525 110.701372,52.639525 107.553966,52.4792437 C106.063278,52.403775 103.393841,52.0494312 102.935278,53.6544 C102.620466,54.7548062 102.651372,56.0787437 102.666466,57.1956812 C102.682997,58.3111812 102.720372,59.0946187 103.102028,59.5948687 C103.835872,60.5536812 104.862247,60.8879 106.258059,60.8879 C107.647403,60.8879 109.260278,61.0963375 110.707122,60.8879 C113.812841,60.3754312 113.130028,58.0474 113.365778,55.520275 C113.523903,53.7507125 113.854528,49.931275 112.329341,49.6358688 L112.243091,52.737275 Z" id="Fill-98" fill="#A9B1B0"></path>
                <path d="M112.855178,49.874925 C113.842741,50.0883937 114.163303,49.3638937 114.322147,48.7198937 C114.506866,47.8926125 114.518366,46.9898625 114.509741,46.1568312 C114.501834,45.8168625 114.550709,45.395675 114.457272,45.0542688 C114.330053,44.6683 113.930428,44.6129563 113.495584,44.5856438 C113.129022,44.5612062 112.666866,44.5834875 112.455553,44.8788938 C112.218366,45.2102375 112.288084,45.7902687 112.293116,46.1589875 C112.301741,46.9345187 112.225553,47.7237062 112.252866,48.4999562 C112.260053,48.7968 112.254303,49.73405 112.254303,49.73405 L112.855178,49.874925 Z" id="Fill-100" fill="#FF7200"></path>
                <path d="M112.855178,45.1374281 C113.842741,45.3516156 114.163303,44.6285531 114.322147,43.9831156 C114.506866,43.1551156 114.518366,42.2523656 114.509741,41.4200531 C114.501834,41.0793656 114.550709,40.6581781 114.457272,40.3167719 C114.330053,39.9322406 113.930428,39.8776156 113.495584,39.8488656 C113.129022,39.8237094 112.666866,39.8467094 112.455553,40.1413969 C112.218366,40.4727406 112.288084,41.0534906 112.293116,41.4214906 C112.301741,42.1977406 112.225553,42.9862094 112.252866,43.7638969 C112.260053,44.0600219 112.254303,44.9972719 112.254303,44.9972719 L112.855178,45.1374281 Z" id="Fill-102" fill="#FED927"></path>
                <path d="M1.53941875,50.3497312 C2.823825,51.2373875 4.04498125,49.7941375 3.86673125,48.2711062 C3.76323125,47.2432937 3.18535625,46.615825 2.139575,46.6122312 C1.3360125,46.6086375 1.49916875,47.6874812 1.47329375,48.490325 C1.45891875,48.93595 1.4165125,49.945075 1.53941875,50.3497312" id="Fill-104" fill="#FF7200"></path>
                <path d="M15.6645812,47.3010094 C15.6645812,47.3010094 15.8191125,47.0487281 16.1411125,46.6433531 C16.4631125,46.2408531 16.9338937,45.6636969 17.5980187,45.0707281 C17.9200187,44.7616656 18.2995187,44.4641031 18.7027375,44.1500094 C19.1109875,43.8438219 19.5594875,43.5397906 20.04105,43.2587594 C20.5333937,42.9971344 21.032925,42.7031656 21.5834875,42.4961656 C21.8566125,42.3883531 22.12255,42.2553844 22.4057375,42.1648219 L23.26105,41.9039156 L23.6915813,41.7795719 L24.1314562,41.7026656 C24.4247062,41.6523531 24.7165187,41.6013219 25.0054562,41.5510094 C25.5862062,41.4676344 26.1669562,41.4712281 26.7232687,41.4288219 C27.2810187,41.4209156 27.8186437,41.4913531 28.3282375,41.5208219 C28.8399875,41.5387906 29.3064562,41.6882906 29.7456125,41.7551344 C30.181175,41.8428219 30.5851125,41.9031969 30.922925,42.0376031 C31.26505,42.1511656 31.5626125,42.2503531 31.808425,42.3322906 C32.2986125,42.4947281 32.5774875,42.5881656 32.5774875,42.5881656 C32.5774875,42.5881656 32.291425,42.5162906 31.791175,42.3897906 C31.5417687,42.3272594 31.2384562,42.2510719 30.8913,42.1633844 C30.5484562,42.0577281 30.1430812,42.0275406 29.709675,41.9549469 C29.2733937,41.9067906 28.8090812,41.7781344 28.3045187,41.7824469 C27.8028313,41.7745406 27.2738312,41.7314156 26.7290188,41.7407594 C26.184925,41.7903531 25.6171125,41.7932281 25.052175,41.8837906 C24.770425,41.9369781 24.4865187,41.9901656 24.2018937,42.0433531 L23.7735187,42.1238531 L23.3566437,42.2503531 L22.5193,42.4925719 C22.2425812,42.5766656 21.9809562,42.7031656 21.7135812,42.8052281 C21.1723625,42.9992906 20.6807375,43.2803219 20.1948625,43.5290094 C19.7226437,43.8028531 19.2691125,44.0766969 18.8551125,44.3613219 C18.4468625,44.6531344 18.0608938,44.9312906 17.7317062,45.2216656 C17.0560812,45.7830094 16.5321125,46.3005094 16.1871125,46.6821656 C15.8370813,47.0609469 15.6645812,47.3010094 15.6645812,47.3010094" id="Fill-106" fill="#BE2323"></path>
                <path d="M7.11116875,38.4328563 C7.11116875,38.4328563 8.47391875,37.8715125 10.5180438,37.0291375 C12.5707938,36.208325 15.3063563,35.1143875 18.0426375,34.02045 C19.4111375,33.4763562 20.7803563,32.9329812 22.063325,32.4233875 C23.3391063,31.8987 24.5430125,31.4315125 25.5348875,30.9592938 C25.772075,30.843575 26.0387313,30.7149187 26.1832,30.5898562 C26.243575,30.4834812 26.3025125,30.3792625 26.3600125,30.2779187 C26.40745,30.1722625 26.4426688,30.0666062 26.4829188,29.9652625 C26.6302625,29.5512625 26.7143563,29.1652937 26.7768875,28.8512 C26.8983563,28.2194187 26.933575,27.8514188 26.933575,27.8514188 C26.933575,27.8514188 26.9213563,28.2201375 26.8365438,28.8612625 C26.7927,29.181825 26.7330438,29.5685125 26.605825,30.0091062 C26.542575,30.2405438 26.4541688,30.452575 26.3255125,30.6876063 C26.1034188,30.9118562 25.8734188,30.9981063 25.62545,31.1404187 C23.644575,32.148825 20.9082938,33.2485125 18.1756063,34.35395 C16.7992,34.8843875 15.4235125,35.4141062 14.134075,35.9107625 C12.8439188,36.403825 11.6277937,36.8357938 10.5906375,37.21745 C8.50841875,37.962075 7.11116875,38.4328563 7.11116875,38.4328563" id="Fill-108" fill="#BE2323"></path>
                <path d="M1.72478438,45.753325 C1.86134688,45.891325 2.01012813,45.845325 2.39106563,45.8870125 C3.62875313,45.9617625 4.37553438,45.1847937 4.83194063,44.0772 C5.51475313,42.297575 5.74475312,39.094825 4.48190938,37.4884188 C3.76603438,36.5784813 2.79715938,36.7437938 2.28900313,37.6134813 C1.78300313,38.5291688 1.81965938,39.537575 1.64644063,40.5423875 C1.43081563,41.8361375 1.40062813,44.9468875 1.64787813,45.7756063 L1.72478438,45.753325 Z" id="Fill-110" fill="#92DDE9"></path>
                <path d="M12.5782688,50.5778625 L12.5351437,58.1973312 L3.0771125,57.9004875 C0.28189375,57.9436125 0.4177375,55.8772062 0.424925,54.5144562 C0.44576875,50.87255 0.44720625,50.2673625 2.12333125,50.2788625 C2.7091125,50.283175 12.5782688,50.5778625 12.5782688,50.5778625" id="Fill-112" fill="#A9B1B0"></path>
                <path d="M94.5445906,26.2758469 L96.3148719,31.7670969 L96.3177469,31.7764406 L96.3177469,31.7886594 L96.3723719,38.2897531 L96.4025594,44.7901281 L96.4032781,44.9906594 L96.2034656,44.9453781 C95.2856219,44.7383781 94.3289656,44.6276906 93.3809344,44.5716281 C92.4300281,44.5198781 91.4748094,44.5392844 90.5303719,44.6377531 C89.5852156,44.7355031 88.6501219,44.9202219 87.7437781,45.1947844 C87.2895281,45.3306281 86.8482156,45.5009719 86.4119344,45.6835344 C85.9806844,45.8797531 85.5587781,46.0925031 85.1548406,46.3383156 C84.7552156,46.5898781 84.3577469,46.8486281 83.9983719,47.1555344 C83.6224656,47.4415969 83.2918406,47.7822844 82.9633719,48.1208156 L82.4954656,48.6534094 L82.0742781,49.2248156 C81.7975594,49.6071906 81.5596531,50.0197531 81.3325281,50.4344719 C81.1197781,50.8585344 80.9041531,51.2811594 80.7438719,51.7296594 C80.5541219,52.1652219 80.4240281,52.6237844 80.2802781,53.0773156 C80.1329344,53.5294094 80.0517156,54.0009094 79.9331219,54.4623469 C79.8439969,54.9309719 79.7749969,55.4031906 79.6952156,55.8739719 L79.6758094,55.9860969 L79.5687156,55.9839406 C75.6953719,55.8998469 71.8227469,55.7834094 67.9501219,55.6655344 C71.8249031,55.6770344 75.6996844,55.6885344 79.5730281,55.7330969 L79.4465281,55.8430656 C79.5205594,55.3658156 79.5830906,54.8864094 79.6664656,54.4105969 C79.7785906,53.9398156 79.8554969,53.4596906 79.9985281,52.9968156 C80.1365281,52.5317844 80.2651844,52.0638781 80.4570906,51.6168156 C80.6202469,51.1589719 80.8387469,50.7241281 81.0543719,50.2878469 C81.2858094,49.8609094 81.5287469,49.4368469 81.8112156,49.0408156 L82.2424656,48.4507219 L82.7218719,47.8980031 C83.0596844,47.5472531 83.3996531,47.1936281 83.7863406,46.8953469 C84.1564969,46.5769406 84.5654656,46.3074094 84.9758719,46.0457844 C85.3934656,45.7899094 85.8268719,45.5685344 86.2710594,45.3644094 C86.7188406,45.1739406 87.1730906,44.9964094 87.6388406,44.8540969 C88.5689031,44.5651594 89.5298719,44.3890656 90.4944344,44.2913156 C91.4604344,44.1957219 92.4329031,44.1806281 93.3996219,44.2381281 C94.3677781,44.3006594 95.3265906,44.4142219 96.2810906,44.6341594 L96.0827156,44.7901281 L96.1129031,38.2897531 L96.1675281,31.7886594 L96.1704031,31.8109406 L94.5445906,26.2758469 Z" id="Fill-114" fill="#BE2323"></path>
                <path d="M94.6976125,35.86735 C94.6803625,36.4948188 94.1571125,36.9878812 93.5303625,36.9699125 L88.2396438,36.8139437 C87.6136125,36.795975 87.1198313,36.2720062 87.1385188,35.6452562 C87.1564875,35.0177875 87.6790188,34.5240062 88.3057688,34.5426937 L93.5972063,34.6979438 C94.2232375,34.7166312 94.7163,35.2406 94.6976125,35.86735" id="Fill-116" fill="#1A393A"></path>
                <path d="M101.412678,35.2331969 C101.406209,35.1620406 101.410522,35.0657281 101.451491,34.9960094 C101.488866,34.9241344 101.522647,34.8393219 101.586616,34.7868531 C101.644116,34.7279156 101.703053,34.6639469 101.767022,34.6064469 C101.835303,34.5626031 101.907178,34.5230719 101.980491,34.4828219 C102.124959,34.3901031 102.278053,34.3383531 102.434741,34.2981031 C102.589991,34.2607281 102.748116,34.1866969 102.905522,34.1823844 C103.219616,34.1543531 103.543053,34.0896656 103.854991,34.1119469 C104.169084,34.1162594 104.482459,34.1421344 104.795834,34.1593844 L104.754866,34.1593844 C105.191147,34.1536344 105.606584,34.2089781 106.015553,34.3764469 C106.213209,34.4641344 106.415897,34.5856031 106.546709,34.7775094 C106.609959,34.8687906 106.665303,34.9737281 106.678959,35.0829781 C106.710584,35.1886344 106.683272,35.2978844 106.671772,35.3963531 C106.625053,35.1936656 106.535928,35.0254781 106.391459,34.9226969 C106.247709,34.8220719 106.082397,34.7552281 105.900553,34.7243219 C105.546928,34.6502906 105.151616,34.6452594 104.791522,34.6761656 L104.782897,34.6768844 L104.751272,34.6754469 C104.450116,34.6661031 104.149678,34.6646656 103.849959,34.6416656 C103.548084,34.6172281 103.258428,34.6531656 102.958709,34.6445406 C102.806334,34.6373531 102.670491,34.6718531 102.523147,34.6840719 C102.377241,34.7006031 102.229178,34.7106656 102.097647,34.7602594 C102.028647,34.7803844 101.960366,34.7997906 101.886334,34.8156031 L101.698022,34.9119156 C101.626147,34.9392281 101.585897,34.9938531 101.531991,35.0448844 C101.475928,35.0937594 101.439991,35.1562906 101.412678,35.2331969" id="Fill-118" fill="#FFA5A5"></path>
                <path d="M71.098175,7.97050625 L70.7538938,19.6969125 L70.344925,31.4211625 C70.0308313,39.2361312 69.7483625,47.0518187 69.3839563,54.8639125 L69.1410188,54.6022875 L78.8225813,54.9379437 L78.590425,55.1370375 C78.7420813,54.1875687 78.9979563,53.2876937 79.326425,52.4036312 C79.6563313,51.5231625 80.0602688,50.6685687 80.545425,49.8621312 C80.7905188,49.46035 81.0550188,49.0715062 81.3338938,48.692725 C81.6221125,48.3196937 81.9247063,47.9596 82.2467063,47.6160375 C82.575175,47.2789437 82.9137063,46.9519125 83.2773938,46.6529125 C83.6418,46.3567875 84.0148313,46.0664125 84.4158938,45.8220375 C84.806175,45.558975 85.2252063,45.34335 85.6442375,45.1327562 C86.0726125,44.9394125 86.5031438,44.7525375 86.9502063,44.610225 C87.3886438,44.4441937 87.8493625,44.3471625 88.3007375,44.2300062 C88.7600188,44.1451937 89.216425,44.0416937 89.682175,44.0021625 C90.14505,43.9367563 90.6100813,43.9137562 91.07655,43.897225 C91.5415813,43.862725 92.00805,43.9051312 92.4723625,43.9044125 C92.9373938,43.9252562 93.39955,43.9784437 93.8631438,44.0129437 L95.242425,44.2113188 L93.85955,44.0503187 C93.3952375,44.0280375 92.9330813,43.9877875 92.4702063,43.9791625 C92.0066125,43.9913812 91.5423,43.9619125 91.0815813,44.00935 C90.619425,44.0381 90.1587063,44.0726 89.7023,44.150225 C89.2423,44.2012562 88.7938,44.3162562 88.3431438,44.4111312 C87.9011125,44.53835 87.4504563,44.6461625 87.0242375,44.8208187 C86.5893938,44.9717562 86.1732375,45.1665375 85.7592375,45.36635 C85.3567375,45.5855687 84.9484875,45.7968812 84.5725813,46.0613812 C84.1844563,46.3050375 83.8258,46.593975 83.4757688,46.8879437 C83.1250188,47.18335 82.8001438,47.5067875 82.48605,47.8395687 C82.1769875,48.1781 81.8887688,48.5338812 81.6142063,48.9004437 C81.34755,49.273475 81.0952688,49.65585 80.8623938,50.0504437 C80.401675,50.843225 80.0214563,51.6812875 79.7131125,52.5445062 C79.406925,53.4034125 79.1683,54.3054437 79.0410813,55.1916625 L79.0108938,55.3965062 L78.808925,55.3907562 L69.1252063,55.1046937 L68.8722063,55.0967875 L68.88155,54.8430687 C69.171925,47.0273812 69.545675,39.2160062 69.8856437,31.402475 L70.459925,19.6846937 L71.098175,7.97050625 Z" id="Fill-120" fill="#FFA5A5"></path>
                <path d="M5.38731875,37.9874469 C5.38731875,37.9874469 6.75006875,37.3657281 8.81719375,36.4931656 C9.85506875,36.0669469 11.0568187,35.5465719 12.3599125,35.0290719 C13.6622875,34.5115719 15.0516312,33.9588531 16.440975,33.4054156 C17.8403813,32.8756969 19.23835,32.3459781 20.5486313,31.8486031 C21.2127562,31.5927281 21.8502875,31.3893219 22.4705688,31.1988531 C23.0851,31.0019156 23.6593812,30.8279781 24.1653813,30.6030094 C24.4126313,30.4894469 24.674975,30.3952906 24.8798188,30.2795719 C25.1155687,30.1588219 25.2895062,30.0215406 25.4469125,29.8785094 C25.761725,29.5744781 25.8946937,29.1942594 25.991725,28.8887906 C26.17285,28.2649156 26.2569438,27.8969156 26.2569438,27.8969156 C26.2569438,27.8969156 26.2440063,27.9896344 26.21885,28.1635719 C26.1901,28.3367906 26.1685375,28.5933844 26.0937875,28.9161031 C26.0197563,29.2323531 25.9155375,29.6470719 25.594975,30.0143531 C25.272975,30.4003219 24.8079437,30.6324781 24.289725,30.8797281 C23.7822875,31.1363219 23.1986625,31.3454781 22.6006625,31.5697281 C22.0019437,31.7860719 21.3622563,32.0340406 20.7182563,32.2841656 C19.4158812,32.8023844 18.0258188,33.3551031 16.636475,33.9078219 C15.2377875,34.4375406 13.8398188,34.9672594 12.5288188,35.4646344 C11.2178188,35.9627281 9.98085,36.3896656 8.9271625,36.7749156 C6.81188125,37.5260094 5.38731875,37.9874469 5.38731875,37.9874469" id="Fill-122" fill="#FFA5A5"></path>
                <path d="M15.6645812,46.1326812 C15.6645812,46.1326812 15.817675,45.8998062 16.1389562,45.532525 C16.4609562,45.1688375 16.9288625,44.6455875 17.5735813,44.1079625 C17.8898313,43.830525 18.2506437,43.554525 18.6416438,43.2720562 C19.026175,42.9809625 19.4646125,42.7193375 19.9138312,42.4454937 C20.3867688,42.214775 20.8503625,41.9164937 21.3736125,41.7281813 C21.630925,41.6232438 21.889675,41.5175875 22.1491438,41.4119312 C22.4150812,41.32065 22.6874875,41.2444625 22.9563,41.15965 C23.4917687,40.9778063 24.051675,40.892275 24.5972062,40.7880563 L25.0040188,40.7118688 L25.4137063,40.6824 C25.684675,40.6637125 25.9527688,40.6443062 26.2172688,40.6263375 C26.742675,40.5674 27.254425,40.65365 27.7352687,40.6644312 C28.2189875,40.6687438 28.6667688,40.7722437 29.0807687,40.8390875 C29.4926125,40.9188688 29.8771438,40.95265 30.1991437,41.0726813 C30.5233,41.174025 30.8057688,41.26315 31.0393625,41.3357437 C31.5000812,41.4874 31.7638625,41.5743687 31.7638625,41.5743687 C31.7638625,41.5743687 31.4914562,41.5240563 31.0127687,41.4370875 C30.7748625,41.3903687 30.4880812,41.3335875 30.1574563,41.2689 C29.8318625,41.1876812 29.4466125,41.197025 29.0405187,41.139525 C28.6301125,41.1014312 28.1895188,41.0295562 27.7173,41.0568687 C27.2472375,41.07915 26.7520188,41.0317125 26.2438625,41.0999937 C25.7378625,41.1704313 25.2059875,41.1704313 24.6848937,41.300525 C24.1594875,41.4083375 23.6218625,41.4953062 23.1072375,41.6764313 C22.8477688,41.7554937 22.5839875,41.8252125 22.3273937,41.910025 C22.0751125,42.0099313 21.82355,42.1091187 21.5748625,42.2075875 C21.0681438,42.3865563 20.607425,42.6496188 20.141675,42.8609313 C19.6996437,43.1182438 19.2518625,43.3367438 18.859425,43.5969312 C18.4612375,43.8470563 18.088925,44.0935875 17.7618937,44.3444312 C17.0992063,44.8331812 16.5658937,45.2730562 16.214425,45.6051187 C15.85505,45.929275 15.6645812,46.1326812 15.6645812,46.1326812" id="Fill-124" fill="#FFA5A5"></path>
                <path d="M39.2204625,27.7109031 C39.2233375,27.7109031 39.2571188,27.7317469 39.3548688,27.7382156 C39.4439938,27.7432469 39.5338375,27.7439656 39.6236813,27.7446844 L44.2164937,27.8445906 L67.8389313,28.3613719 C67.9136812,28.3635281 67.9934625,28.3656844 68.0754,28.3656844 C68.2802437,28.3656844 68.5699,28.3520281 68.7309,28.2291219 C68.756775,28.2097156 68.7783375,28.1881531 68.7963063,28.1629969 C68.8689,28.0659656 68.87465,27.8762156 68.8796813,27.7094656 L68.8825562,27.6268094 C68.889025,27.4564656 68.889025,27.2868406 68.8897437,27.1157781 C68.8897437,26.9590906 68.8897437,26.8024031 68.894775,26.6457156 L69.446775,9.40002812 C69.44965,9.31809062 69.4539625,9.23184063 69.4597125,9.14415312 C69.4942125,8.59071562 69.4899,8.24355938 69.142025,8.08902813 C68.8185875,7.94527812 68.423275,7.92515312 68.0444938,7.92515312 L67.47165,7.93018437 L65.1623063,7.87484062 L51.679275,7.52624687 C51.5635563,7.52265312 51.4392125,7.51187188 51.311275,7.50109062 C51.16465,7.48887187 51.012275,7.47521563 50.8634937,7.47521563 C50.5357437,7.47521563 50.333775,7.54493437 50.207275,7.70234062 C50.0513063,7.89640312 49.9233688,8.15012187 49.7997437,8.39521562 C49.741525,8.51165312 49.684025,8.62593437 49.62365,8.73446562 L39.4310563,27.1538719 C39.213275,27.5477469 39.2053687,27.6720906 39.2204625,27.7109031 M68.0754,28.9047469 C67.9877125,28.9047469 67.9021812,28.9025906 67.8231187,28.8997156 L39.6193688,28.2837469 C39.5194625,28.2830281 39.4195562,28.2823094 39.3203688,28.2765594 C38.9724937,28.2535594 38.816525,28.0968719 38.747525,27.9689344 C38.5570563,27.6210594 38.8086188,27.1653719 38.9595562,26.8929656 L49.1514313,8.47355937 C49.2082125,8.37077812 49.2635562,8.26224688 49.3181813,8.15299687 C49.454025,7.88274687 49.5956187,7.60315312 49.7868062,7.36380937 C50.0965875,6.98071562 50.5501188,6.93615313 50.8634937,6.93615313 C51.0280875,6.93615313 51.1955562,6.95052812 51.3579937,6.96418438 C51.4744313,6.97424687 51.587275,6.98430937 51.69365,6.98718437 L67.47165,7.39112187 L68.0444938,7.38609062 C68.4829312,7.38609062 68.9458063,7.41124687 69.3612437,7.59596562 C70.0764,7.91509062 70.0311187,8.64462187 69.9980562,9.17721562 C69.9923063,9.25915313 69.9879937,9.33965312 69.9858375,9.41727812 L69.4338375,26.6629656 C69.4288062,26.8139031 69.4288062,26.9648406 69.4288062,27.1164969 C69.4280875,27.2940281 69.4280875,27.4715594 69.4216187,27.6490906 L69.4187438,27.7259969 C69.4115562,27.9603094 69.4022125,28.2514031 69.2289938,28.4849969 C69.1808375,28.5504031 69.1226188,28.6093406 69.0564937,28.6582156 C68.7704313,28.8767156 68.3815875,28.9047469 68.0754,28.9047469" id="Fill-126" fill="#BE2323"></path>
                <path d="M74.2026719,8.12280937 C74.0201094,8.12280937 73.8907344,8.14580937 73.7980156,8.19540312 C73.6089844,8.29602812 73.6061094,8.54471563 73.6233594,8.91415312 C73.6291094,9.01837187 73.6334219,9.11827813 73.6305469,9.20884062 L73.0505156,27.3479344 C73.0382969,27.7274344 73.0267969,28.0853719 73.2381094,28.3354969 C73.4163594,28.5159031 73.6729531,28.5166219 73.9202031,28.5173406 L77.7324531,28.6150906 L92.6278281,29.0104031 C92.8578281,29.0204656 93.0648281,29.0139969 93.1870156,28.9385281 C93.3731719,28.8256844 93.3480156,28.5892156 93.2308594,28.1644344 C93.1388594,27.8345281 93.0425469,27.5053406 92.9462344,27.1754344 L87.6634219,8.82071563 C87.6152656,8.64677812 87.5893906,8.58209062 87.5376406,8.56627813 C87.2731406,8.48218437 86.9921094,8.46565313 86.6528594,8.46565313 L86.2827031,8.46709062 L86.0598906,8.46493437 L74.4736406,8.13287187 C74.3852344,8.12784063 74.2932344,8.12280937 74.2026719,8.12280937 M92.8204531,29.5544969 C92.7485781,29.5544969 92.6752656,29.5516219 92.6033906,29.5487469 L87.3601094,29.4085906 L73.9180469,29.0564031 C73.5960469,29.0556844 73.1949844,29.0535281 72.9046094,28.7681844 C72.8751406,28.7387156 72.8492656,28.7114031 72.8255469,28.6819344 C72.4805469,28.2751219 72.4985156,27.7518719 72.5114531,27.3306844 L73.0914844,9.19230937 C73.0943594,9.11396563 73.0893281,9.02843438 73.0850156,8.94002812 C73.0677656,8.56052812 73.0404531,7.98768437 73.5450156,7.71959062 C73.7735781,7.59812187 74.0301719,7.58374687 74.2026719,7.58374687 C74.3040156,7.58374687 74.4053594,7.58949687 74.5038281,7.59452812 L76.5810156,7.65705938 L86.2827031,7.92802812 L86.6528594,7.92659063 C86.9669531,7.92659063 87.3320781,7.93593437 87.6986406,8.05165312 C88.0422031,8.15946562 88.1270156,8.47212188 88.1830781,8.67912187 L88.4677031,9.67099687 L93.4644531,27.0252156 C93.5607656,27.3565594 93.6570781,27.6879031 93.7497969,28.0206844 C93.8497031,28.3822156 94.0351406,29.0549656 93.4673281,29.3992469 C93.2409219,29.5372469 93.0022969,29.5544969 92.8204531,29.5544969" id="Fill-128" fill="#BE2323"></path>
                <path d="M98.2710219,29.2733219 L101.917241,29.3566969 L107.560866,29.4882281 C107.969116,29.4882281 108.296147,29.4271344 108.559928,29.3006344 C108.666303,29.2503219 108.731709,29.1885094 108.755428,29.1180719 C108.784897,29.0289469 108.759022,28.9002906 108.683553,28.7565406 C108.304772,28.0370719 107.948991,27.3032281 107.593209,26.5708219 C107.436522,26.2488219 107.279834,25.9261031 107.121709,25.6048219 L99.1198656,9.35029062 C98.9143031,8.92479063 98.8064906,8.73719687 98.4348969,8.73504062 L96.6718031,8.70054062 C95.7884594,8.68185312 94.9036781,8.66316562 94.0210531,8.65525938 L93.4424594,8.65094688 C93.1592719,8.64807187 92.8379906,8.64447812 92.5282094,8.64447812 C91.7692094,8.64447812 91.4436156,8.66675937 91.3077719,8.68760312 C91.2186469,9.03547813 91.6664281,10.4370406 91.8389281,10.9775406 C91.9079281,11.1967594 91.9683031,11.3850719 92.0063969,11.5201969 C92.1990219,12.2037281 92.4218344,12.8879781 92.6446469,13.5722281 C92.8703344,14.2672594 93.0967406,14.9622906 93.2922406,15.6573219 L96.8586781,28.3058844 C96.9434906,28.6070406 97.0441156,28.9153844 97.2554281,29.0921969 C97.4638656,29.2510406 97.6500219,29.2783531 97.9087719,29.2783531 L98.2710219,29.2733219 Z M107.560866,30.0272906 L105.158803,29.9719469 L98.2710219,29.8123844 L97.9087719,29.8174156 C97.6018656,29.8174156 97.2741156,29.7836344 96.9535531,29.5406969 C96.5805219,29.2301969 96.4432406,28.8176344 96.3390219,28.4525094 L92.7733031,15.8032281 C92.5792406,15.1153844 92.3557094,14.4275406 92.1314594,13.7389781 C91.9072094,13.0475406 91.6822406,12.3568219 91.4874594,11.6661031 C91.4508031,11.5352906 91.3925844,11.3534469 91.3250219,11.1414156 C90.8405844,9.62269687 90.6335844,8.78032187 90.8477719,8.39291562 C90.9088656,8.28150937 91.0023031,8.20675937 91.1187406,8.17657187 C91.3099281,8.12697812 91.7311156,8.10541562 92.5282094,8.10541562 C92.8401469,8.10541562 93.1635844,8.10900937 93.4482094,8.11188438 L94.0232094,8.11619688 C94.9108656,8.12410312 95.7978031,8.14279062 96.6833031,8.16147812 L98.4370531,8.19597812 C99.1608344,8.20029062 99.4073656,8.70772812 99.6043031,9.11525937 L107.605428,25.3669156 C107.764272,25.6889156 107.920959,26.0116344 108.078366,26.3357906 C108.431272,27.0624469 108.784178,27.7905406 109.160803,28.5056969 C109.306709,28.7852906 109.343366,29.0555406 109.266459,29.2876969 C109.216866,29.4357594 109.095397,29.6427594 108.793522,29.7872281 C108.454272,29.9482281 108.051053,30.0272906 107.560866,30.0272906 Z" id="Fill-130" fill="#BE2323"></path>
                <path d="M26.9470156,27.9951687 L26.9204219,27.456825 C27.1885156,27.4438875 33.3122656,27.1456062 35.0458906,27.1276375 L46.4704219,7.97223125 C46.6759844,7.64591875 46.7830781,7.42885625 46.7881094,7.3275125 C46.7787656,7.3303875 46.7557656,7.32679375 46.7255781,7.326075 L43.2971406,7.2987625 L43.3014531,6.7597 L46.7291719,6.7870125 C47.0533281,6.78916875 47.1992344,6.9336375 47.2653594,7.0543875 C47.4464844,7.38573125 47.2071406,7.8133875 46.9253906,8.25973125 L46.1390781,9.57504375 L35.3520781,27.6659812 L35.1989844,27.6659812 C33.7269844,27.6659812 27.0145781,27.9922937 26.9470156,27.9951687" id="Fill-132" fill="#BE2323"></path>
                <path d="M38.9446063,29.0589188 C39.0897938,30.6495125 38.226575,32.0295125 37.0162,32.1409187 C35.8051063,32.2516063 34.7068563,31.0520125 34.5602313,29.4614188 L34.0132625,23.5058563 C33.8673563,21.9152625 34.7298562,20.5352625 35.94095,20.4238563 C37.1520438,20.3131687 38.2510125,21.5120438 38.3976375,23.1033563 L38.9446063,29.0589188 Z" id="Fill-134" fill="#1A393A"></path>
            </g>
        </g>
    </g>
</svg>