<?xml version="1.0" encoding="UTF-8"?>
<svg width="120px" height="120px" viewBox="0 0 120 120" version="1.1" xmlns="http://www.w3.org/2000/svg" xmlns:xlink="http://www.w3.org/1999/xlink">
    <!-- Generator: Sketch 51.1 (57501) - http://www.bohemiancoding.com/sketch -->
    <title>Bird17</title>
    <desc>Created with Sketch.</desc>
    <defs>
        <polygon id="path-1" points="0.0353032258 0.733624113 24.8351496 0.733624113 24.8351496 60.3924936 0.0353032258 60.3924936"></polygon>
        <polygon id="path-3" points="0.143380645 0.127862411 46.7572103 0.127862411 46.7572103 36.3333333 0.143380645 36.3333333"></polygon>
    </defs>
    <g id="Bird17" stroke="none" stroke-width="1" fill="none" fill-rule="evenodd">
        <g id="Group" transform="translate(60.000000, 60.500000) scale(-1, 1) translate(-60.000000, -60.500000) translate(0.000000, 6.000000)">
            <g id="Group-3" transform="translate(41.806452, 0.039426)">
                <mask id="mask-2" fill="white">
                    <use xlink:href="#path-1"></use>
                </mask>
                <g id="Clip-2"></g>
                <path d="M0.203303226,40.5204794 C5.06291613,29.0244582 5.24407742,12.8228837 0.0353032258,0.788819858 C5.31607742,-0.0800879433 9.43865806,9.47789787 9.89543226,13.8579972 C11.3578839,11.9663447 11.4267871,9.29081986 12.1003355,7.2391461 C17.922271,11.395061 17.4360774,20.0408482 18.4711742,26.0605858 C19.9645935,24.3544652 21.3813677,20.9584582 21.6577548,19.4726567 C27.3271742,35.1872099 26.1527226,50.5299262 12.0283355,60.3924936 L0.203303226,40.5204794 Z" id="Fill-1" fill="#F289AA" mask="url(#mask-2)"></path>
            </g>
            <g id="Group-6" transform="translate(72.774194, 71.933043)">
                <mask id="mask-4" fill="white">
                    <use xlink:href="#path-3"></use>
                </mask>
                <g id="Clip-5"></g>
                <path d="M11.0223484,0.127862411 C18.2958968,1.50311773 23.0641548,2.80261418 30.1170581,2.84977021 C32.8708645,2.86909645 35.3335742,3.08555035 38.1485419,2.52508936 C39.8146065,2.19345106 43.296929,0.385287943 44.6107355,0.488876596 C52.5957677,1.11968511 35.8058323,8.5471461 34.7838968,9.81572057 C38.3405419,11.0580113 41.4613161,12.0482879 45.2277677,12.9171957 C41.4574452,15.9784723 35.6935742,19.4541035 30.8982194,18.2141319 C31.8226065,20.3067773 38.2383484,25.4042667 36.3942194,27.340756 C34.632929,29.1906638 27.2037677,25.1383376 25.8024774,24.2485574 C26.5518968,28.3233021 27.9059613,32.1290255 26.8530581,36.1249191 C21.9214452,37.6578766 16.808671,30.3417348 13.9093161,27.0214865 C10.0174452,22.5609901 3.13873548,19.3860752 0.143380645,16.8937631 L11.0223484,0.127862411 Z" id="Fill-4" fill="#F289AA" mask="url(#mask-4)"></path>
            </g>
            <path d="M14.1161032,47.6060206 C8.6828129,48.8343965 5.11610323,49.7203113 0.000232258065,49.7736518 C2.59997419,53.9836801 7.72668387,53.7749567 10.4959742,57.1972475 C8.20900645,58.9829922 4.35816774,60.4850277 1.12900645,60.6342262 C4.00126452,63.4156589 7.96436129,65.1047723 11.7215226,65.6861057 L14.1161032,47.6060206 Z" id="Fill-7" fill="#FFCC5A"></path>
            <path d="M22.7970581,88.6806993 C14.6091871,80.9401532 9.85021935,73.7878979 8.25770323,62.4882312 C5.11834839,40.2220823 24.9353806,31.0598979 43.1118968,35.6773234 C58.568671,39.6028695 64.2257032,60.0337986 80.1020903,63.403522 C86.4644129,72.745827 83.4706065,80.4655007 76.0522839,87.4051674 C61.7885419,100.748777 38.0540903,103.103487 22.7970581,88.6806993" id="Fill-9" fill="#F6ABBC"></path>
            <path d="M26.4896516,59.5894496 C26.4896516,59.5894496 22.8772645,58.7630596 19.6682323,56.340322 C17.8279742,54.9488326 21.5108129,46.4336908 26.5144258,48.6794 C31.6782968,50.9939106 29.0545548,58.6679745 26.4896516,59.5894496" id="Fill-11" fill="#FFFFFF"></path>
            <path d="M20.9848258,54.2705589 C22.5037935,50.021105 27.1899871,51.998566 26.9298581,55.9588993 C26.1200516,55.066027 25.8792774,53.960566 24.701729,53.4596298 C23.4916645,52.9455518 22.2715355,53.3251191 21.1559226,53.7588 L20.9848258,54.2705589 Z" id="Fill-13" fill="#341812"></path>
            <path d="M60.6312774,56.1824652 C56.9422452,58.8286142 52.429471,59.697522 47.8717935,59.2669333 C45.5298581,59.0450681 43.3164387,58.2171319 41.0108903,57.8352454 C39.7388903,57.6249759 39.6328258,58.0393305 38.8036645,58.8827277 C38.3794065,59.3133163 37.1964387,59.6248553 36.9332129,60.0770894 C36.4160516,60.9622312 37.5750194,62.5925929 38.0472774,63.2504582 C35.8663742,63.4243943 36.3905032,66.392905 37.2165677,68.0178553 C34.5440516,67.8740681 36.3881806,71.2252383 36.9835355,72.7512383 C34.8630194,72.963827 36.0080516,74.4303021 37.0973419,75.7622667 C36.6932129,75.8326142 36.1566968,75.9756284 35.9298581,76.3691106 C34.4991484,78.8552383 39.3680516,80.4647277 40.7445677,80.875217 C43.3265032,81.6459475 45.9804387,82.0193305 48.6126968,82.1159617 C54.4075355,82.3285504 60.1512774,81.232366 65.4970839,79.2904652 C75.4400516,75.6787773 85.9822452,68.4322099 89.0635355,57.0938908 C86.2075355,58.4490468 82.6423742,60.1992312 80.5141161,62.1797844 C83.7881806,60.9398128 85.1886968,47.8026071 83.3190194,44.2883234 C82.9621161,48.734905 79.4403097,49.4770326 77.8338581,52.7508979 C78.6444387,47.7956496 77.5954065,42.0356567 74.2539871,38.0413092 C69.5856,43.923444 67.4960516,51.2565929 60.6312774,56.1824652" id="Fill-15" fill="#F289AA"></path>
        </g>
    </g>
</svg>