<?xml version="1.0" encoding="UTF-8"?>
<svg width="120px" height="120px" viewBox="0 0 120 120" version="1.1" xmlns="http://www.w3.org/2000/svg" xmlns:xlink="http://www.w3.org/1999/xlink">
    <!-- Generator: Sketch 48.2 (47327) - http://www.bohemiancoding.com/sketch -->
    <title>Owl</title>
    <desc>Created with Sketch.</desc>
    <defs>
        <polygon id="path-1" points="0.12096493 0.415214473 14.7668725 0.415214473 14.7668725 12.2352941 0.12096493 12.2352941"></polygon>
        <polygon id="path-3" points="0.122972107 0.415214473 14.769198 0.415214473 14.769198 12.2352941 0.122972107 12.2352941"></polygon>
    </defs>
    <g id="ALL" stroke="none" stroke-width="1" fill="none" fill-rule="evenodd">
        <g id="Owl">
            <g id="Page-1">
                <g id="Group-3" transform="translate(29.781022, 91.289277)">
                    <mask id="mask-2" fill="white">
                        <use xlink:href="#path-1"></use>
                    </mask>
                    <g id="Clip-2"></g>
                    <path d="M1.32718248,3.07001008 C0.784992701,3.66866555 0.327766423,4.37306891 0.172729927,5.16486723 C0.0176934307,5.95666555 0.206890511,6.84547227 0.794627737,7.40043025 C1.65564964,8.21232941 3.10616058,8.06725378 4.08192701,7.39518655 C5.05769343,6.72224538 5.67083212,5.65515294 6.25331387,4.62389244 C5.44134307,5.81158992 4.95783942,7.21952269 4.86849635,8.65367395 C4.82032117,9.42537143 5.10411679,10.4339092 5.87754745,10.4644975 C6.3330219,10.4828504 6.7070365,10.126279 7.01010219,9.78631261 C7.9000292,8.78738824 8.70061314,7.7098084 9.3969635,6.56843025 C8.89594161,7.73864874 8.38353285,8.99626218 8.62265693,10.2451361 C8.86178102,11.494884 10.2071825,12.6091697 11.3826569,12.1162622 C11.9844088,11.8645647 12.371562,11.2816403 12.6930219,10.716195 C13.4182774,9.44110252 13.9981314,8.08298487 14.4176934,6.67767395 C14.7076204,5.70584202 14.9204672,4.65710252 14.6244088,3.68614454 C14.2994453,2.61992605 13.3928759,1.80715294 12.382073,1.33259832 C8.95024818,-0.280712605 3.93127007,0.194715966 1.32718248,3.07001008" id="Fill-1" fill="#817440" mask="url(#mask-2)"></path>
                </g>
                <g id="Group-6" transform="translate(66.569343, 91.289277)">
                    <mask id="mask-4" fill="white">
                        <use xlink:href="#path-3"></use>
                    </mask>
                    <g id="Clip-5"></g>
                    <path d="M13.5635036,3.07001008 C14.1048175,3.66866555 14.5629197,4.37306891 14.7170803,5.16486723 C14.8729927,5.95666555 14.6829197,6.84547227 14.0951825,7.40043025 C13.2341606,8.21232941 11.7845255,8.06725378 10.8078832,7.39518655 C9.8329927,6.72224538 9.2189781,5.65515294 8.63737226,4.62389244 C9.44934307,5.81158992 9.93284672,7.21952269 10.0221898,8.65367395 C10.070365,9.42537143 9.78656934,10.4339092 9.01313869,10.4644975 C8.55678832,10.4828504 8.18277372,10.126279 7.88058394,9.78631261 C6.98978102,8.78738824 6.19007299,7.7098084 5.49284672,6.56843025 C5.99386861,7.73864874 6.50627737,8.99626218 6.2680292,10.2451361 C6.0280292,11.494884 4.68350365,12.6091697 3.5080292,12.1162622 C2.90627737,11.8645647 2.51912409,11.2816403 2.19678832,10.716195 C1.47153285,9.44110252 0.891678832,8.08298487 0.472992701,6.67767395 C0.182189781,5.70584202 -0.0306569343,4.65710252 0.26540146,3.68614454 C0.590364964,2.61992605 1.49781022,1.80715294 2.50773723,1.33259832 C5.94043796,-0.280712605 10.9585401,0.194715966 13.5635036,3.07001008" id="Fill-4" fill="#817440" mask="url(#mask-4)"></path>
                </g>
                <path d="M20.9428029,13.3277311 C20.9428029,13.3277311 21.161781,56.1512605 21.5997372,67.2941176 C22.0376934,78.4369748 24.4464526,86.302521 34.5194453,93.0756303 C44.592438,99.8487395 60.1906861,101.481277 69.7749197,96.789916 C81.3807591,91.1092437 87.512146,79.3109244 88.6070365,70.3529412 C89.701927,61.394958 88.8260146,12.6722689 88.8260146,12.6722689 C88.8260146,12.6722689 73.4975474,10.2689076 55.7603212,10.0504202 C38.0230949,9.83193277 20.9428029,13.3277311 20.9428029,13.3277311" id="Fill-7" fill="#BAB396"></path>
                <path d="M41.0165255,47.7138891 C35.5087883,48.6734857 29.5411971,45.7676034 26.9099562,40.8455193 C24.2787153,35.9234353 25.1835328,29.3600739 29.0489343,25.3302924 C32.9152117,21.299637 39.4468905,20.1110655 44.4903942,22.5179227 C52.9701022,26.5651832 54.4863066,38.1520067 47.6533139,44.3885109 C45.8033869,46.0769815 43.4944818,47.2830319 41.0165255,47.7138891" id="Fill-9" fill="#F9F5C1"></path>
                <path d="M67.0001168,47.7138891 C72.507854,48.6734857 78.4754453,45.7676034 81.1066861,40.8455193 C83.737927,35.9234353 82.8331095,29.3600739 78.967708,25.3302924 C75.1014307,21.299637 68.5697518,20.1110655 63.5262482,22.5179227 C55.0465401,26.5651832 53.5312117,38.1520067 60.3642044,44.3885109 C62.2141314,46.0769815 64.5230365,47.2830319 67.0001168,47.7138891" id="Fill-11" fill="#F9F5C1"></path>
                <path d="M34.6422482,36.2356101 C35.1599124,34.3234084 35.6950949,30.2621647 38.2974307,30.1843832 C41.0320292,30.1022319 40.7193285,33.4835429 42.484292,34.4990723 C42.6489635,34.5943328 42.8285255,34.5252908 42.933635,34.3810891 C43.813927,33.1706689 42.6165547,31.3528538 41.8273577,30.3757782 C40.8918832,29.216921 39.5000584,28.2695597 37.943562,28.4530891 C34.6545109,28.8402487 33.2688175,33.5036437 33.8110073,36.2356101 C33.8950949,36.6629714 34.5362628,36.6280134 34.6422482,36.2356101" id="Fill-13" fill="#635A31"></path>
                <path d="M65.3560292,35.5370622 C65.5531095,33.2036168 67.2952993,29.8965916 70.1341314,30.6280874 C72.6558832,31.2774319 72.1627445,33.9858017 73.4503358,35.6244571 C73.5808467,35.7896336 73.8760292,35.7275832 73.9671241,35.557163 C75.4395328,32.8217008 72.2897518,28.9457345 69.4001168,29.091684 C66.2161752,29.2524908 64.0404088,32.6967261 64.7113577,35.6244571 C64.798073,36.0046252 65.3271241,35.886642 65.3560292,35.5370622" id="Fill-15" fill="#635A31"></path>
                <path d="M14.0086423,0 C14.0086423,0 12.8410511,14.2742185 21.4538978,16.0221176 C30.0667445,17.7700168 40.1397372,15.4400672 45.6877664,19.517916 C51.2349197,23.5966387 54.3006131,28.6943866 54.3006131,28.6943866 C54.3006131,28.6943866 54.8848467,20.8288403 41.3082044,14.1291429 C27.731562,7.42857143 26.4176934,9.61344538 21.162219,6.40867227 C15.9067445,3.20477311 14.0086423,0 14.0086423,0" id="Fill-17" fill="#817440"></path>
                <path d="M94.5459854,0 C94.5459854,0 95.7135766,14.2742185 87.1007299,16.0221176 C78.4870073,17.7700168 68.4140146,15.4400672 62.8668613,19.517916 C57.319708,23.5966387 54.2540146,28.6943866 54.2540146,28.6943866 C54.2540146,28.6943866 53.669781,20.8288403 67.2464234,14.1291429 C80.8230657,7.42857143 82.1369343,9.61344538 87.3924088,6.40867227 C92.6478832,3.20477311 94.5459854,0 94.5459854,0" id="Fill-19" fill="#817440"></path>
                <path d="M26.9360584,42.3890891 C26.9360584,42.3890891 16.3068613,45.8009882 8.34131387,59.0046185 C0.376642336,72.2082487 -0.855766423,78.1974252 0.447591241,79.5730218 C1.75182482,80.9494924 5.39124088,78.3407529 8.26861314,75.4724504 C11.1451095,72.6041479 12.2960584,66.9776605 12.2960584,66.9776605 C12.2960584,66.9776605 12.0858394,73.8993412 14.7538686,73.6485176 C17.4218978,73.3985681 20.6706569,67.1882824 21.9477372,62.1753076 C23.2248175,57.1623328 23.329927,53.7014924 23.329927,53.7014924 C23.329927,53.7014924 23.3719708,58.9810218 25.5661314,58.3605176 C27.7594161,57.7408874 28.8,51.8251227 28.7421898,47.6546353 C28.6852555,43.4841479 26.9360584,42.3890891 26.9360584,42.3890891" id="Fill-21" fill="#817440"></path>
                <path d="M82.0565255,43.6377008 C82.0565255,43.6377008 93.2191533,43.3973647 105.071124,53.2791126 C116.923095,63.1617345 120.049226,68.4202891 119.267036,70.1463395 C118.485723,71.871516 114.191124,70.5920538 110.533314,68.819684 C106.875504,67.0473143 103.944701,62.1042555 103.944701,62.1042555 C103.944701,62.1042555 106.410394,68.5767261 103.806307,69.2103395 C101.202219,69.843079 96.0982774,65.0328605 93.2498102,60.7111798 C90.4013431,56.3894992 89.1689343,53.1532639 89.1689343,53.1532639 C89.1689343,53.1532639 90.8585693,58.1574992 88.5811971,58.2859697 C86.3055766,58.4153143 83.3852847,53.1637513 82.0740438,49.2030118 C80.761927,45.2422723 82.0565255,43.6377008 82.0565255,43.6377008" id="Fill-23" fill="#817440"></path>
                <path d="M81.3320584,87.2925311 C81.2935182,86.8118588 81.2488467,86.3320605 81.1945401,85.8575059 C80.1145401,76.4380773 77.2091387,67.2292706 72.6850511,58.8917916 C70.8105985,55.4396908 68.6216934,52.0863462 65.6497226,49.5125647 C62.6777518,46.9387832 58.8289927,45.1961277 54.8978978,45.382279 C48.7235912,45.6759261 43.7343942,50.4878924 40.1781898,55.5323294 C37.0739562,59.9344134 34.5881168,64.7647328 32.7714745,69.8310185 C30.8111825,75.2958252 29.1565839,81.9509513 28.8184818,88.2888336 C30.3776058,89.9554555 32.2441752,91.5460437 34.5197956,93.0754555 C44.5927883,99.8485647 60.1901606,101.481103 69.7752701,96.7897412 C74.5481168,94.4536739 78.3811095,91.0749849 81.3320584,87.2925311" id="Fill-25" fill="#E3E0D5"></path>
                <path d="M46.5632409,36.9969076 C46.5632409,36.9969076 49.4809051,34.1452101 53.7168175,34.0840336 C58.7533139,34.0106218 61.4537518,36.850958 61.4537518,36.850958 L54.4464526,49.5241008 L46.5632409,36.9969076 Z" id="Fill-27" fill="#635A31"></path>
                <path d="M36.3952993,38.8779092 C34.2545693,39.523758 32.3319416,41.5714218 34.3316496,43.4469176 C35.8934015,44.9125311 40.3272701,44.0656739 42.0335474,43.2476571 C44.1944234,42.2111529 45.4189489,39.8008 42.7211387,38.5318252 C40.9474161,37.6963294 38.1523796,38.3482958 36.3952993,38.8779092" id="Fill-29" fill="#F4C4CC"></path>
                <path d="M72.1658102,38.8779092 C74.3065401,39.523758 76.2291679,41.5714218 74.2294599,43.4469176 C72.667708,44.9125311 68.2347153,44.0656739 66.527562,43.2476571 C64.367562,42.2111529 63.1421606,39.8008 65.8399708,38.5318252 C67.6145693,37.6963294 70.4087299,38.3482958 72.1658102,38.8779092" id="Fill-31" fill="#F4C4CC"></path>
            </g>
        </g>
    </g>
</svg>