<?xml version="1.0" encoding="UTF-8"?>
<svg width="480px" height="360px" viewBox="0 0 480 360" version="1.1" xmlns="http://www.w3.org/2000/svg" xmlns:xlink="http://www.w3.org/1999/xlink">
    <!-- Generator: Sketch 51.1 (57501) - http://www.bohemiancoding.com/sketch -->
    <title>Classroom3</title>
    <desc>Created with Sketch.</desc>
    <defs>
        <linearGradient x1="50%" y1="-5.234%" x2="50%" y2="75.382602%" id="linearGradient-1">
            <stop stop-color="#D8EDEC" offset="0%"></stop>
            <stop stop-color="#B7E1EA" offset="100%"></stop>
        </linearGradient>
        <linearGradient x1="50%" y1="-18.6674085%" x2="50%" y2="119.459604%" id="linearGradient-2">
            <stop stop-color="#308EA0" offset="0%"></stop>
            <stop stop-color="#2C8393" offset="100%"></stop>
        </linearGradient>
    </defs>
    <g id="Classroom3" stroke="none" stroke-width="1" fill="none" fill-rule="evenodd">
        <g id="Group-2" transform="translate(0.000000, -6.000000)" fill-rule="nonzero">
            <g id="Classroom-with-Kids-01">
                <g id="BG_classroom">
                    <g id="Group">
                        <rect id="Rectangle-path" fill="url(#linearGradient-1)" x="0" y="0" width="480" height="354"></rect>
                        <g transform="translate(0.000000, 229.542857)" id="Rectangle-path">
                            <rect fill="#91C8D7" x="0" y="3.87428571" width="480" height="8.12571429"></rect>
                            <rect fill="#F2F2F3" x="0" y="0.205714286" width="480" height="3.6"></rect>
                        </g>
                        <rect id="Rectangle-path" fill="url(#linearGradient-2)" x="0" y="241.542857" width="480" height="125.142857"></rect>
                        <rect id="Rectangle-path" fill="#2B8091" x="0" y="241.542857" width="480" height="5.38285714"></rect>
                        <g transform="translate(357.028571, 72.857143)">
                            <g transform="translate(0.914286, 0.000000)">
                                <path d="M52.4914286,0.205714286 L4.32,0.205714286 C2.02285714,0.205714286 0.171428571,2.05714286 0.171428571,4.35428571 L0.171428571,172.08 C0.171428571,174.377143 2.02285714,176.228571 4.32,176.228571 L7.64571429,176.228571 L13.9885714,176.228571 L42.7542857,176.228571 L49.0971429,176.228571 L52.4914286,176.228571 C54.7885714,176.228571 56.64,174.377143 56.64,172.08 L56.64,4.35428571 C56.64,2.05714286 54.7885714,0.205714286 52.4914286,0.205714286 Z M49.0971429,166.834286 L7.74857143,166.834286 L7.74857143,132.617143 L49.0971429,132.617143 L49.0971429,166.834286 Z M49.0971429,125.04 L7.74857143,125.04 L7.74857143,90.8228571 L49.0971429,90.8228571 L49.0971429,125.04 Z M49.0971429,83.2457143 L7.74857143,83.2457143 L7.74857143,49.0285714 L49.0971429,49.0285714 L49.0971429,83.2457143 Z M49.0971429,41.4514286 L7.74857143,41.4514286 L7.74857143,7.23428571 L49.0971429,7.23428571 L49.0971429,41.4514286 Z" id="Shape" fill="#D89E55"></path>
                                <path d="M7.74857143,41.4514286 L49.0971429,41.4514286 L49.0971429,7.23428571 L7.74857143,7.23428571 L7.74857143,41.4514286 Z M9.46285714,8.94857143 L47.3828571,8.94857143 L47.3828571,39.7371429 L9.46285714,39.7371429 L9.46285714,8.94857143 Z" id="Shape" fill="#B98848"></path>
                                <path d="M47.3828571,8.94857143 L9.46285714,8.94857143 L9.46285714,39.7371429 L47.3828571,39.7371429 L47.3828571,8.94857143 Z M42.3428571,27.2228571 C40.7657143,27.2228571 39.4628571,25.9542857 39.4628571,24.3428571 C39.4628571,22.7657143 40.7314286,21.4628571 42.3428571,21.4628571 C43.9542857,21.4628571 45.2228571,22.7314286 45.2228571,24.3428571 C45.2228571,25.92 43.9542857,27.2228571 42.3428571,27.2228571 Z" id="Shape" fill="#C28E4C"></path>
                                <path d="M7.74857143,83.2457143 L49.0971429,83.2457143 L49.0971429,49.0285714 L7.74857143,49.0285714 L7.74857143,83.2457143 Z M9.46285714,50.7428571 L47.3828571,50.7428571 L47.3828571,81.5314286 L9.46285714,81.5314286 L9.46285714,50.7428571 Z" id="Shape" fill="#B98848"></path>
                                <path d="M47.3828571,50.7428571 L9.46285714,50.7428571 L9.46285714,81.5314286 L47.3828571,81.5314286 L47.3828571,50.7428571 Z M42.3428571,69.0171429 C40.7657143,69.0171429 39.4628571,67.7485714 39.4628571,66.1371429 C39.4628571,64.56 40.7314286,63.2571429 42.3428571,63.2571429 C43.9542857,63.2571429 45.2228571,64.5257143 45.2228571,66.1371429 C45.2228571,67.7142857 43.9542857,69.0171429 42.3428571,69.0171429 Z" id="Shape" fill="#C28E4C"></path>
                                <path d="M7.74857143,125.04 L49.0971429,125.04 L49.0971429,90.8228571 L7.74857143,90.8228571 L7.74857143,125.04 Z M9.46285714,92.5371429 L47.3828571,92.5371429 L47.3828571,123.325714 L9.46285714,123.325714 L9.46285714,92.5371429 Z" id="Shape" fill="#B98848"></path>
                                <path d="M47.3828571,92.5371429 L9.46285714,92.5371429 L9.46285714,123.325714 L47.3828571,123.325714 L47.3828571,92.5371429 Z M42.3428571,110.777143 C40.7657143,110.777143 39.4628571,109.508571 39.4628571,107.897143 C39.4628571,106.32 40.7314286,105.017143 42.3428571,105.017143 C43.9542857,105.017143 45.2228571,106.285714 45.2228571,107.897143 C45.2228571,109.508571 43.9542857,110.777143 42.3428571,110.777143 Z" id="Shape" fill="#C28E4C"></path>
                                <path d="M7.74857143,166.834286 L49.0971429,166.834286 L49.0971429,132.617143 L7.74857143,132.617143 L7.74857143,166.834286 Z M9.46285714,134.297143 L47.3828571,134.297143 L47.3828571,165.085714 L9.46285714,165.085714 L9.46285714,134.297143 Z" id="Shape" fill="#B98848"></path>
                                <path d="M47.3828571,134.297143 L9.46285714,134.297143 L9.46285714,165.085714 L47.3828571,165.085714 L47.3828571,134.297143 Z M42.3428571,152.571429 C40.7657143,152.571429 39.4628571,151.302857 39.4628571,149.691429 C39.4628571,148.114286 40.7314286,146.811429 42.3428571,146.811429 C43.9542857,146.811429 45.2228571,148.08 45.2228571,149.691429 C45.2228571,151.302857 43.9542857,152.571429 42.3428571,152.571429 Z" id="Shape" fill="#C28E4C"></path>
                                <path d="M111.668571,0.205714286 L63.4971429,0.205714286 C61.2,0.205714286 59.3485714,2.05714286 59.3485714,4.35428571 L59.3485714,172.08 C59.3485714,174.377143 61.2,176.228571 63.4971429,176.228571 L66.8571429,176.228571 L73.2,176.228571 L101.965714,176.228571 L108.308571,176.228571 L111.668571,176.228571 C113.965714,176.228571 115.817143,174.377143 115.817143,172.08 L115.817143,4.35428571 C115.817143,2.05714286 113.965714,0.205714286 111.668571,0.205714286 Z M108.274286,166.834286 L66.9257143,166.834286 L66.9257143,132.617143 L108.274286,132.617143 L108.274286,166.834286 Z M108.274286,125.04 L66.9257143,125.04 L66.9257143,90.8228571 L108.274286,90.8228571 L108.274286,125.04 Z M108.274286,83.2457143 L66.9257143,83.2457143 L66.9257143,49.0285714 L108.274286,49.0285714 L108.274286,83.2457143 Z M108.274286,41.4514286 L66.9257143,41.4514286 L66.9257143,7.23428571 L108.274286,7.23428571 L108.274286,41.4514286 Z" id="Shape" fill="#D89E55"></path>
                                <path d="M66.9257143,41.4514286 L108.274286,41.4514286 L108.274286,7.23428571 L66.9257143,7.23428571 L66.9257143,41.4514286 Z M68.64,8.94857143 L106.56,8.94857143 L106.56,39.7371429 L68.64,39.7371429 L68.64,8.94857143 Z" id="Shape" fill="#B98848"></path>
                                <path d="M106.56,8.94857143 L68.64,8.94857143 L68.64,39.7371429 L106.56,39.7371429 L106.56,8.94857143 Z M101.794286,27.2228571 C100.217143,27.2228571 98.9142857,25.9542857 98.9142857,24.3428571 C98.9142857,22.7657143 100.182857,21.4628571 101.794286,21.4628571 C103.371429,21.4628571 104.674286,22.7314286 104.674286,24.3428571 C104.674286,25.92 103.371429,27.2228571 101.794286,27.2228571 Z" id="Shape" fill="#C28E4C"></path>
                                <path d="M66.9257143,83.2457143 L108.274286,83.2457143 L108.274286,49.0285714 L66.9257143,49.0285714 L66.9257143,83.2457143 Z M68.64,50.7428571 L106.56,50.7428571 L106.56,81.5314286 L68.64,81.5314286 L68.64,50.7428571 Z" id="Shape" fill="#B98848"></path>
                                <path d="M106.56,50.7428571 L68.64,50.7428571 L68.64,81.5314286 L106.56,81.5314286 L106.56,50.7428571 Z M101.794286,69.0171429 C100.217143,69.0171429 98.9142857,67.7485714 98.9142857,66.1371429 C98.9142857,64.56 100.182857,63.2571429 101.794286,63.2571429 C103.371429,63.2571429 104.674286,64.5257143 104.674286,66.1371429 C104.674286,67.7142857 103.371429,69.0171429 101.794286,69.0171429 Z" id="Shape" fill="#C28E4C"></path>
                                <path d="M66.9257143,125.04 L108.274286,125.04 L108.274286,90.8228571 L66.9257143,90.8228571 L66.9257143,125.04 Z M68.64,92.5371429 L106.56,92.5371429 L106.56,123.325714 L68.64,123.325714 L68.64,92.5371429 Z" id="Shape" fill="#B98848"></path>
                                <path d="M106.56,92.5371429 L68.64,92.5371429 L68.64,123.325714 L106.56,123.325714 L106.56,92.5371429 Z M101.794286,110.777143 C100.217143,110.777143 98.9142857,109.508571 98.9142857,107.897143 C98.9142857,106.32 100.182857,105.017143 101.794286,105.017143 C103.371429,105.017143 104.674286,106.285714 104.674286,107.897143 C104.674286,109.508571 103.371429,110.777143 101.794286,110.777143 Z" id="Shape" fill="#C28E4C"></path>
                                <path d="M66.9257143,166.834286 L108.274286,166.834286 L108.274286,132.617143 L66.9257143,132.617143 L66.9257143,166.834286 Z M68.64,134.297143 L106.56,134.297143 L106.56,165.085714 L68.64,165.085714 L68.64,134.297143 Z" id="Shape" fill="#B98848"></path>
                                <path d="M106.56,134.297143 L68.64,134.297143 L68.64,165.085714 L106.56,165.085714 L106.56,134.297143 Z M101.794286,152.571429 C100.217143,152.571429 98.9142857,151.302857 98.9142857,149.691429 C98.9142857,148.114286 100.182857,146.811429 101.794286,146.811429 C103.371429,146.811429 104.674286,148.08 104.674286,149.691429 C104.674286,151.302857 103.371429,152.571429 101.794286,152.571429 Z" id="Shape" fill="#C28E4C"></path>
                                <circle id="Oval" fill="#F2F2F3" cx="42.3428571" cy="24.3428571" r="2.88"></circle>
                                <circle id="Oval" fill="#F2F2F3" cx="42.3428571" cy="66.1371429" r="2.88"></circle>
                                <circle id="Oval" fill="#F2F2F3" cx="42.3428571" cy="107.931429" r="2.88"></circle>
                                <circle id="Oval" fill="#F2F2F3" cx="42.3428571" cy="149.691429" r="2.88"></circle>
                                <circle id="Oval" fill="#F2F2F3" cx="101.794286" cy="24.3428571" r="2.88"></circle>
                                <circle id="Oval" fill="#F2F2F3" cx="101.794286" cy="66.1371429" r="2.88"></circle>
                                <circle id="Oval" fill="#F2F2F3" cx="101.794286" cy="107.931429" r="2.88"></circle>
                                <circle id="Oval" fill="#F2F2F3" cx="101.794286" cy="149.691429" r="2.88"></circle>
                                <rect id="Rectangle-path" fill="#3E4A5A" x="7.68" y="176.228571" width="6.34285714" height="3.6"></rect>
                                <rect id="Rectangle-path" fill="#3E4A5A" x="42.7542857" y="176.228571" width="6.34285714" height="3.6"></rect>
                                <rect id="Rectangle-path" fill="#3E4A5A" x="66.8571429" y="176.228571" width="6.34285714" height="3.6"></rect>
                                <rect id="Rectangle-path" fill="#3E4A5A" x="101.965714" y="176.228571" width="6.34285714" height="3.6"></rect>
                            </g>
                        </g>
                        <g transform="translate(135.085714, 36.171429)">
                            <path d="M11.4514286,7.33714286 L192.308571,7.33714286 C192.48,7.33714286 192.617143,7.47428571 192.617143,7.64571429 L192.617143,113.417143 C192.617143,113.245714 192.754286,113.108571 192.925714,113.108571 L199.577143,113.108571 C199.748571,113.108571 199.885714,113.245714 199.885714,113.417143 L199.885714,2.33142857 C199.885714,1.09714286 198.891429,0.0685714286 197.622857,0.0685714286 L6.10285714,0.0685714286 C5.04,0.0685714286 4.14857143,0.925714286 4.14857143,2.02285714 L4.14857143,113.108571 L11.4171429,113.108571 L11.4171429,7.33714286 L11.4514286,7.33714286 Z" id="Shape" fill="#F7C683"></path>
                            <path d="M202.182857,122.164286 C202.56,122.164286 202.868571,122.014286 203.142857,121.714286 C202.902857,121.964286 202.56,122.164286 202.182857,122.164286 Z" id="Shape" fill="#F7C683"></path>
                            <path d="M202.182857,114.754286 L199.885714,114.754286 L199.885714,114.445714 C199.885714,114.617143 199.748571,114.754286 199.577143,114.754286 L192.925714,114.754286 C192.754286,114.754286 192.617143,114.617143 192.617143,114.445714 C192.617143,114.617143 192.48,114.754286 192.308571,114.754286 L11.4514286,114.754286 L4.18285714,114.754286 L1.54285714,114.754286 C0.754285714,114.754286 0.102857143,115.405714 0.102857143,116.194286 L0.102857143,118.971429 C0.102857143,119.76 0.754285714,120.411429 1.54285714,120.411429 L202.525714,120.411429 C202.868571,120.411429 203.177143,120.274286 203.417143,120.102857 C203.622857,119.931429 203.931429,120.068571 203.931429,120.342857 L203.931429,116.571429 C203.931429,115.508571 203.142857,114.754286 202.182857,114.754286 Z" id="Shape" fill="#F7C683"></path>
                            <path d="M203.417143,120.034286 C203.177143,120.24 202.868571,120.342857 202.525714,120.342857 L1.54285714,120.342857 C0.754285714,120.342857 0.102857143,119.691429 0.102857143,118.902857 L0.102857143,120.548571 C0.102857143,121.337143 0.72,121.954286 1.50857143,121.988571 L201.874286,121.988571 L202.217143,121.988571 C202.594286,121.988571 202.902857,121.885714 203.177143,121.68 C203.657143,121.371429 203.931429,120.822857 203.931429,120.24 C203.931429,120 203.622857,119.862857 203.417143,120.034286 Z" id="Shape" fill="#E4B77A"></path>
                            <path d="M192.617143,7.64571429 C192.617143,7.47428571 192.48,7.33714286 192.308571,7.33714286 L11.4514286,7.33714286 L11.4514286,113.108571 L11.4514286,114.754286 L192.308571,114.754286 C192.48,114.754286 192.617143,114.617143 192.617143,114.445714 L192.617143,113.417143 L192.617143,7.64571429 Z M190.971429,112.765714 C190.971429,112.937143 190.834286,113.074286 190.662857,113.074286 L13.0971429,113.074286 L13.0971429,8.98285714 L190.628571,8.98285714 C190.8,8.98285714 190.937143,9.12 190.937143,9.29142857 L190.937143,112.765714 L190.971429,112.765714 Z" id="Shape" fill="#69955E"></path>
                            <path d="M190.628571,8.98285714 L13.0971429,8.98285714 L13.0971429,113.074286 L190.628571,113.074286 C190.8,113.074286 190.937143,112.937143 190.937143,112.765714 L190.937143,9.29142857 C190.971429,9.12 190.834286,8.98285714 190.628571,8.98285714 Z" id="Shape" fill="#75A467"></path>
                            <rect id="Rectangle-path" fill="#E4B77A" x="4.14857143" y="113.074286" width="7.26857143" height="1.64571429"></rect>
                            <path d="M199.577143,113.074286 L192.925714,113.074286 C192.754286,113.074286 192.617143,113.211429 192.617143,113.382857 L192.617143,114.411429 C192.617143,114.582857 192.754286,114.72 192.925714,114.72 L199.577143,114.72 C199.748571,114.72 199.885714,114.582857 199.885714,114.411429 L199.885714,113.382857 C199.885714,113.211429 199.748571,113.074286 199.577143,113.074286 Z" id="Shape" fill="#E4B77A"></path>
                            <polygon id="Shape" fill="#9BCDDA" points="1.50857143 121.988571 1.47428571 121.988571 1.47428571 124.902857 201.874286 124.902857 201.874286 122.022857 201.874286 121.988571"></polygon>
                        </g>
                        <g transform="translate(7.542857, 153.771429)">
                            <ellipse id="Oval" fill="#2B8091" cx="69.8742857" cy="97.7828571" rx="69.8057143" ry="5.79428571"></ellipse>
                            <g transform="translate(1.714286, 0.000000)">
                                <path d="M51.3257143,7.06285714 C51.3257143,3.29142857 54.3771429,0.24 58.1485714,0.24 L53.1428571,0.24 C49.3714286,0.24 46.32,3.29142857 46.32,7.06285714 L46.32,29.4857143 L51.36,29.4857143 L51.36,7.06285714 L51.3257143,7.06285714 Z" id="Shape" fill="#3E4A5A"></path>
                                <path d="M51.3257143,7.06285714 L51.3257143,29.4857143 L95.76,29.4857143 L95.76,7.06285714 C95.76,3.29142857 92.7085714,0.24 88.9371429,0.24 L83.8971429,0.24 L58.1828571,0.24 C54.3771429,0.205714286 51.3257143,3.29142857 51.3257143,7.06285714 Z" id="Shape" fill="#3E4A5A"></path>
                                <path d="M5.58857143,37.4742857 L126.651429,37.4742857 L126.651429,91.1657143 C126.651429,93.5657143 124.697143,95.4857143 122.331429,95.4857143 L115.2,95.4857143 L107.657143,95.4857143 L24.7885714,95.4857143 L17.2457143,95.4857143 L9.90857143,95.4857143 C7.50857143,95.4857143 5.58857143,93.5314286 5.58857143,91.1657143 L5.58857143,37.4742857 Z" id="Combined-Shape" fill="#D89E55"></path>
                                <path d="M20.3657143,41.52 L20.3657143,42.0342857 C20.3657143,45.4971429 17.5542857,48.3085714 14.0914286,48.3085714 L13.5771429,48.3085714 L13.5771429,81.6685714 L14.0914286,81.6685714 C17.5542857,81.6685714 20.3657143,84.48 20.3657143,87.9428571 L20.3657143,88.4571429 L111.874286,88.4571429 L111.874286,87.9428571 C111.874286,84.48 114.685714,81.6685714 118.148571,81.6685714 L118.662857,81.6685714 L118.662857,48.3085714 L118.148571,48.3085714 C114.685714,48.3085714 111.874286,45.4971429 111.874286,42.0342857 L111.874286,41.52 L20.3657143,41.52 Z M117.634286,49.3028571 L117.634286,80.64 C114,80.88 111.12,83.7942857 110.88,87.3942857 L21.3942857,87.3942857 C21.1542857,83.76 18.24,80.88 14.64,80.64 L14.64,49.3028571 C18.2742857,49.0628571 21.1542857,46.1485714 21.3942857,42.5485714 L110.88,42.5485714 C111.12,46.1485714 114,49.0628571 117.634286,49.3028571 Z" id="Shape" fill="#D89E55"></path>
                                <polygon id="Shape" fill="#D89E55" points="95.76 29.4857143 51.3257143 29.4857143 46.2857143 29.4857143 42.0342857 29.4857143 36.8571429 29.4857143 30.4114286 29.4857143 25.2342857 29.4857143 19.2 29.4857143 14.0228571 29.4857143 0.171428571 29.4857143 0.171428571 34.4914286 5.58857143 34.4914286 126.651429 34.4914286 126.651429 34.4914286 132.068571 34.4914286 132.068571 29.4857143"></polygon>
                                <polygon id="Shape" fill="#C28E4C" points="5.58857143 34.4914286 5.58857143 41.52 126.651429 41.52 126.651429 41.52 126.651429 34.4914286 126.651429 34.4914286"></polygon>
                                <path d="M17.2457143,98.2628571 C17.2457143,98.7428571 17.6228571,99.1542857 18.1371429,99.1542857 L23.9314286,99.1542857 C24.4114286,99.1542857 24.8228571,98.7771429 24.8228571,98.2628571 L24.8228571,95.4857143 L17.28,95.4857143 L17.28,98.2628571 L17.2457143,98.2628571 Z" id="Shape" fill="#3E4A5A"></path>
                                <path d="M107.657143,98.2628571 C107.657143,98.7428571 108.034286,99.1542857 108.548571,99.1542857 L114.342857,99.1542857 C114.822857,99.1542857 115.234286,98.7771429 115.234286,98.2628571 L115.234286,95.4857143 L107.691429,95.4857143 L107.691429,98.2628571 L107.657143,98.2628571 Z" id="Shape" fill="#3E4A5A"></path>
                                <path d="M21.6342857,27.0514286 L21.6342857,2.64 C21.6342857,1.30285714 20.5371429,0.205714286 19.2,0.205714286 L14.0228571,0.205714286 C12.6857143,0.205714286 11.5885714,1.30285714 11.5885714,2.64 L11.5885714,27.0514286 C11.5885714,28.3885714 12.6857143,29.4857143 14.0228571,29.4857143 L19.2,29.4857143 C20.5371429,29.4857143 21.6342857,28.3885714 21.6342857,27.0514286 Z M13.2,8.77714286 L13.2,5.79428571 L20.0228571,5.79428571 L20.0228571,8.77714286 L13.2,8.77714286 Z" id="Shape" fill="#F15D4F"></path>
                                <path d="M32.8457143,27.0514286 L32.8457143,2.64 C32.8457143,1.30285714 31.7485714,0.205714286 30.4114286,0.205714286 L25.2342857,0.205714286 C23.8971429,0.205714286 22.8,1.30285714 22.8,2.64 L22.8,27.0514286 C22.8,28.3885714 23.8971429,29.4857143 25.2342857,29.4857143 L30.4114286,29.4857143 C31.7485714,29.4857143 32.8457143,28.3885714 32.8457143,27.0514286 Z M24.4114286,8.77714286 L24.4114286,5.79428571 L31.2342857,5.79428571 L31.2342857,8.77714286 L24.4114286,8.77714286 Z" id="Shape" fill="#FFDE17"></path>
                                <path d="M44.4685714,27.0514286 L44.4685714,2.64 C44.4685714,1.30285714 43.3714286,0.205714286 42.0342857,0.205714286 L36.8571429,0.205714286 C35.52,0.205714286 34.4228571,1.30285714 34.4228571,2.64 L34.4228571,27.0514286 C34.4228571,28.3885714 35.52,29.4857143 36.8571429,29.4857143 L42.0342857,29.4857143 C43.3714286,29.4857143 44.4685714,28.3885714 44.4685714,27.0514286 Z M35.6228571,8.77714286 L35.6228571,5.79428571 L42.4457143,5.79428571 L42.4457143,8.77714286 L35.6228571,8.77714286 Z" id="Shape" fill="#0368B1"></path>
                                <rect id="Rectangle-path" fill="#FFFFFF" x="13.2" y="5.79428571" width="6.82285714" height="2.98285714"></rect>
                                <rect id="Rectangle-path" fill="#FFFFFF" x="24.4114286" y="5.79428571" width="6.82285714" height="2.98285714"></rect>
                                <rect id="Rectangle-path" fill="#FFFFFF" x="35.6228571" y="5.79428571" width="6.82285714" height="2.98285714"></rect>
                            </g>
                        </g>
                        <g transform="translate(52.800000, 43.028571)" id="Shape">
                            <path d="M21.9771429,0.102857143 C9.97714286,0.102857143 0.24,9.84 0.24,21.84 C0.24,33.84 9.97714286,43.5771429 21.9771429,43.5771429 C33.9771429,43.5771429 43.7142857,33.84 43.7142857,21.84 C43.7142857,9.84 33.9771429,0.102857143 21.9771429,0.102857143 Z M22.4228571,40.1485714 L22.4228571,39.12 L22.4228571,38.88 C22.4228571,38.7428571 22.32,38.6742857 22.2171429,38.6742857 L21.5314286,38.6742857 C21.3942857,38.6742857 21.3257143,38.7771429 21.3257143,38.88 L21.3257143,39.0857143 L21.3257143,40.1142857 C11.6571429,39.7714286 3.94285714,31.9542857 3.66857143,22.2857143 L4.69714286,22.2857143 L4.83428571,22.2857143 C4.97142857,22.2857143 5.04,22.1828571 5.04,22.08 L5.04,21.3942857 C5.04,21.2571429 4.93714286,21.1885714 4.83428571,21.1885714 L4.69714286,21.1885714 L3.66857143,21.1885714 C4.01142857,11.5542857 11.76,3.84 21.3942857,3.53142857 L21.3942857,4.56 L21.3942857,4.69714286 C21.3942857,4.83428571 21.4971429,4.90285714 21.6,4.90285714 L22.2857143,4.90285714 C22.4228571,4.90285714 22.4914286,4.8 22.4914286,4.69714286 L22.4914286,4.56 L22.4914286,3.53142857 C32.16,3.80571429 39.9428571,11.6228571 40.2171429,21.2914286 L39.1885714,21.2914286 L38.9485714,21.2914286 C38.8114286,21.2914286 38.7428571,21.3942857 38.7428571,21.4971429 L38.7428571,22.1828571 C38.7428571,22.32 38.8457143,22.3885714 38.9485714,22.3885714 L39.1885714,22.3885714 L40.2171429,22.3885714 C39.9771429,32.0914286 32.1257143,39.9085714 22.4228571,40.1485714 Z" fill="#3E4A5A"></path>
                            <path d="M39.2228571,22.4228571 C38.9142857,31.5428571 31.5428571,38.88 22.4228571,39.12 L22.4228571,40.1485714 C32.1257143,39.9085714 39.9771429,32.1257143 40.2514286,22.4228571 L39.2228571,22.4228571 Z" fill="#D1D2D1"></path>
                            <path d="M39.2228571,21.2914286 L40.2514286,21.2914286 C39.9771429,11.6228571 32.1942857,3.84 22.5257143,3.53142857 L22.5257143,4.56 C31.6114286,4.86857143 38.9485714,12.2057143 39.2228571,21.2914286 Z" fill="#D1D2D1"></path>
                            <path d="M21.3942857,4.59428571 L21.3942857,3.56571429 C11.76,3.84 3.97714286,11.5885714 3.66857143,21.2228571 L4.69714286,21.2228571 C5.04,12.1371429 12.3428571,4.86857143 21.3942857,4.59428571 Z" fill="#D1D2D1"></path>
                            <path d="M4.69714286,22.32 L3.66857143,22.32 C3.90857143,31.9885714 11.6571429,39.8057143 21.3257143,40.1485714 L21.3257143,39.12 C12.2057143,38.7428571 4.93714286,31.4057143 4.69714286,22.32 Z" fill="#D1D2D1"></path>
                            <path d="M39.2228571,22.4228571 L38.9828571,22.4228571 C38.8457143,22.4228571 38.7771429,22.32 38.7771429,22.2171429 L38.7771429,21.5314286 C38.7771429,21.3942857 38.88,21.3257143 38.9828571,21.3257143 L39.2228571,21.3257143 C38.9485714,12.24 31.6114286,4.90285714 22.5257143,4.59428571 L22.5257143,4.73142857 C22.5257143,4.86857143 22.4228571,4.93714286 22.32,4.93714286 L21.6342857,4.93714286 C21.4971429,4.93714286 21.4285714,4.83428571 21.4285714,4.73142857 L21.4285714,4.59428571 C12.3771429,4.86857143 5.07428571,12.1371429 4.73142857,21.2228571 L4.86857143,21.2228571 C5.00571429,21.2228571 5.07428571,21.3257143 5.07428571,21.4285714 L5.07428571,22.1142857 C5.07428571,22.2514286 4.97142857,22.32 4.86857143,22.32 L4.73142857,22.32 C4.97142857,31.44 12.24,38.7771429 21.3257143,39.12 L21.3257143,38.9142857 C21.3257143,38.7771429 21.4285714,38.7085714 21.5314286,38.7085714 L22.2171429,38.7085714 C22.3542857,38.7085714 22.4228571,38.8114286 22.4228571,38.9142857 L22.4228571,39.1542857 C31.5428571,38.88 38.9142857,31.5428571 39.2228571,22.4228571 Z M21.9771429,22.9714286 C21.9085714,22.9714286 21.84,22.9714286 21.7371429,22.9371429 L14.8114286,30.72 C14.6057143,30.96 14.2628571,30.96 14.0228571,30.7542857 C13.7828571,30.5485714 13.7828571,30.2057143 13.9885714,29.9657143 L20.9142857,22.1828571 C20.88,22.08 20.8457143,21.9428571 20.8457143,21.84 C20.8457143,21.4285714 21.0857143,21.0857143 21.3942857,20.88 L21.3942857,7.33714286 C21.3942857,7.02857143 21.6342857,6.78857143 21.9428571,6.78857143 C22.2514286,6.78857143 22.4914286,7.02857143 22.4914286,7.33714286 L22.4914286,20.88 C22.8342857,21.0857143 23.04,21.4285714 23.04,21.84 C23.0742857,22.4571429 22.5942857,22.9714286 21.9771429,22.9714286 Z" fill="#F2F2F3"></path>
                            <path d="M22.5257143,20.88 L22.5257143,7.33714286 C22.5257143,7.02857143 22.2857143,6.78857143 21.9771429,6.78857143 C21.6685714,6.78857143 21.4285714,7.02857143 21.4285714,7.33714286 L21.4285714,20.88 C21.0857143,21.0857143 20.88,21.4285714 20.88,21.84 C20.88,21.9771429 20.9142857,22.08 20.9485714,22.1828571 L14.0228571,29.9657143 C13.8171429,30.2057143 13.8514286,30.5485714 14.0571429,30.7542857 C14.2971429,30.96 14.64,30.9257143 14.8457143,30.72 L21.7714286,22.9371429 C21.84,22.9371429 21.9085714,22.9714286 22.0114286,22.9714286 C22.6285714,22.9714286 23.1428571,22.4571429 23.1428571,21.84 C23.0742857,21.4285714 22.8342857,21.0857143 22.5257143,20.88 Z" fill="#3E4A5A"></path>
                        </g>
                    </g>
                </g>
            </g>
        </g>
    </g>
</svg>