<?xml version="1.0" encoding="UTF-8"?>
<svg width="120px" height="120px" viewBox="0 0 120 120" version="1.1" xmlns="http://www.w3.org/2000/svg" xmlns:xlink="http://www.w3.org/1999/xlink">
    <!-- Generator: Sketch 51.1 (57501) - http://www.bohemiancoding.com/sketch -->
    <title>Snow5</title>
    <desc>Created with Sketch.</desc>
    <defs>
        <polygon id="path-1" points="0.302697177 0.670968153 118.589603 0.670968153 118.589603 119.939312 0.302697177 119.939312"></polygon>
    </defs>
    <g id="Snow5" stroke="none" stroke-width="1" fill="none" fill-rule="evenodd">
        <g id="Group-19" transform="translate(1.000000, 0.000000)">
            <mask id="mask-2" fill="white">
                <use xlink:href="#path-1"></use>
            </mask>
            <g id="Clip-18"></g>
            <path d="M113.5617,71.9958726 L95.8581615,76.7492484 L89.6770269,73.173707 L99.6661615,70.4916688 C101.796719,69.919949 103.060713,67.7255541 102.490123,65.5907771 C101.919533,63.456 99.7294756,62.1895032 97.5989179,62.7612229 L81.2356551,67.1545987 C81.6925846,65.0771465 80.4545269,62.987465 78.3827064,62.4310318 L70.4638667,60.3054268 L78.3827064,58.1798217 C80.4545269,57.6233885 81.6925846,55.533707 81.2356551,53.4562548 L97.5989179,57.8496306 C99.7294756,58.4213503 101.919533,57.1548535 102.490123,55.0200764 C103.060713,52.8852994 101.796719,50.6909045 99.6661615,50.1191847 L89.6770269,47.4371465 L95.8581615,43.8616051 L113.5617,48.6149809 C115.692258,49.1867006 117.881553,47.9202038 118.452905,45.7854268 C119.023495,43.651414 117.759501,41.4570191 115.628944,40.8852994 L100.184879,36.7380382 L104.323181,21.2633885 C104.894533,19.1293758 103.629014,16.9349809 101.499219,16.3632611 C99.3686615,15.7907771 97.1786038,17.0580382 96.6080141,19.1928153 L91.8647962,36.931414 L85.6836615,40.5069554 L88.3603987,30.4980382 C88.9317513,28.3632611 87.6669949,26.1688662 85.5364372,25.5971465 C83.4066423,25.0254268 81.2165846,26.2919236 80.6459949,28.4267006 L76.2613026,44.8223694 C74.6937064,43.3869554 72.2687,43.4167643 70.7522128,44.9370191 L64.9547769,50.7444076 L67.0777064,42.8098854 C67.6322769,40.7354904 66.4445654,38.616 64.4208026,37.9731975 L76.3993731,25.9709045 C77.959341,24.4078471 77.959341,21.8740892 76.3993731,20.3117962 C74.8401679,18.7487389 72.3121808,18.7487389 70.7522128,20.3117962 L63.4398154,27.6386752 L63.4398154,20.4875924 L76.3993731,7.50236943 C77.959341,5.9393121 77.959341,3.40631847 76.3993731,1.84326115 C74.8401679,0.280203822 72.3121808,0.280203822 70.7522128,1.84326115 L59.44645,13.171414 L48.1399244,1.84326115 C46.5807192,0.280203822 44.0519692,0.280203822 42.4927641,1.84326115 C40.9327962,3.40631847 40.9327962,5.9393121 42.4927641,7.50236943 L55.4523218,20.4875924 L55.4523218,27.6386752 L48.1399244,20.3117962 C46.5807192,18.7487389 44.0519692,18.7487389 42.4927641,20.3117962 C40.9327962,21.8740892 40.9327962,24.4078471 42.4927641,25.9709045 L54.4713346,37.9731975 C52.4475718,38.6152357 51.2606231,40.7354904 51.8159564,42.8098854 L53.9373603,50.7444076 L48.1399244,44.9370191 C46.6242,43.4167643 44.1984308,43.3869554 42.6323603,44.8223694 L38.2476679,28.4267006 C37.6763154,26.2919236 35.4862577,25.0254268 33.3557,25.5971465 C31.2259051,26.1688662 29.9611487,28.3632611 30.5317385,30.4980382 L33.2084756,40.5069554 L27.0288667,36.931414 L22.2848859,19.1928153 C21.7135333,17.0580382 19.5242385,15.7907771 17.3936808,16.3632611 C15.2631231,16.9349809 13.9983667,19.1293758 14.5697192,21.2633885 L18.7072577,36.7380382 L3.26319359,40.8852994 C1.1326359,41.4570191 -0.131357692,43.6506497 0.439994872,45.7854268 C1.01058462,47.9202038 3.19987949,49.1867006 5.33043718,48.6149809 L23.0347385,43.8616051 L29.2151103,47.4371465 L19.2259756,50.1191847 C17.0954179,50.6909045 15.8314244,52.8852994 16.4027769,55.0200764 C16.9733667,57.1548535 19.1626615,58.4213503 21.2932192,57.8488662 L37.6564821,53.4562548 C37.2003154,55.533707 38.4383731,57.6233885 40.5094308,58.1798217 L48.4282705,60.3054268 L40.5094308,62.4310318 C38.4383731,62.987465 37.2003154,65.0771465 37.6572449,67.1545987 L21.2932192,62.7612229 C19.1626615,62.1895032 16.9733667,63.456 16.4027769,65.5907771 C15.8314244,67.7255541 17.0954179,69.919949 19.2259756,70.4916688 L29.2151103,73.173707 L23.0347385,76.7492484 L5.33043718,71.9958726 C3.19987949,71.4241529 1.01058462,72.6906497 0.439994872,74.8254268 C-0.131357692,76.9594395 1.1326359,79.1538344 3.26319359,79.7255541 L18.7072577,83.872051 L14.5697192,99.3467006 C13.9983667,101.481478 15.2631231,103.675873 17.3936808,104.247592 C19.5242385,104.820076 21.7135333,103.552815 22.2848859,101.418038 L27.0288667,83.6794395 L33.2084756,80.1038981 L30.5317385,90.1128153 C29.9611487,92.2475924 31.2259051,94.4412229 33.3557,95.013707 C35.4862577,95.5854268 37.6763154,94.3189299 38.2476679,92.1841529 L42.6323603,75.7884841 C44.1984308,77.2231338 46.6242,77.1940892 48.1399244,75.6738344 L53.9373603,69.8664459 L51.8159564,77.8009682 C51.2606231,79.8761274 52.4475718,81.9948535 54.4713346,82.6376561 L42.4927641,94.639949 C40.9327962,96.2030064 40.9327962,98.736 42.4927641,100.299057 C44.0519692,101.86135 46.5807192,101.86135 48.1399244,100.299057 L55.4523218,92.9721783 L55.4523218,100.123261 L42.4927641,113.108484 C40.9327962,114.671541 40.9327962,117.204535 42.4927641,118.767592 C44.0519692,120.329885 46.5807192,120.329885 48.1399244,118.767592 L59.44645,107.439439 L70.7522128,118.767592 C72.3121808,120.329885 74.8401679,120.329885 76.3993731,118.767592 C77.959341,117.204535 77.959341,114.671541 76.3993731,113.108484 L63.4398154,100.123261 L63.4398154,92.9721783 L70.7522128,100.299057 C72.3121808,101.86135 74.8401679,101.86135 76.3993731,100.299057 C77.959341,98.736 77.959341,96.2030064 76.3993731,94.639949 L64.4208026,82.6376561 C66.4445654,81.9948535 67.6322769,79.8761274 67.0777064,77.8009682 L64.9547769,69.8664459 L70.7522128,75.6738344 C72.2679372,77.1940892 74.6937064,77.2231338 76.2613026,75.7884841 L80.6459949,92.1841529 C81.2165846,94.3189299 83.4066423,95.5854268 85.5364372,95.013707 C87.6669949,94.4412229 88.9317513,92.2475924 88.3603987,90.1128153 L85.6836615,80.1038981 L91.8647962,83.6794395 L96.6080141,101.418038 C97.1786038,103.552815 99.3686615,104.820076 101.499219,104.247592 C103.629014,103.675873 104.893771,101.481478 104.323181,99.3467006 L100.184879,83.8728153 L115.628944,79.7255541 C117.759501,79.1538344 119.023495,76.9594395 118.452905,74.8254268 C117.881553,72.6906497 115.692258,71.4241529 113.5617,71.9958726" id="Fill-17" fill="#70A8E2" mask="url(#mask-2)"></path>
        </g>
    </g>
</svg>