<?xml version="1.0" encoding="UTF-8"?>
<svg width="480px" height="360px" viewBox="0 0 480 360" version="1.1" xmlns="http://www.w3.org/2000/svg" xmlns:xlink="http://www.w3.org/1999/xlink">
    <!-- Generator: Sketch 51.1 (57501) - http://www.bohemiancoding.com/sketch -->
    <title>Shcool1</title>
    <desc>Created with Sketch.</desc>
    <defs>
        <path d="M0.346274945,408.492239 L0.346274945,0 L408.838514,0 L408.838514,408.492239 L0.346274945,408.492239 Z M0.856252772,407.982262 L408.328537,407.982262 L408.328537,0.509977827 L0.856252772,0.509977827 L0.856252772,407.982262 Z" id="path-1"></path>
        <linearGradient x1="2.48689139e-05%" y1="50%" x2="100.000025%" y2="50%" id="linearGradient-3">
            <stop stop-color="#B1D6C1" offset="0%"></stop>
            <stop stop-color="#DDE4CA" offset="100%"></stop>
        </linearGradient>
        <polygon id="path-4" points="0 0.25208204 221.096042 0.25208204 221.096042 202.383324 0 202.383324"></polygon>
        <polygon id="path-6" points="0.351731707 0.381208426 161.790466 0.381208426 161.790466 151.999146 0.351731707 151.999146"></polygon>
    </defs>
    <g id="Shcool1" stroke="none" stroke-width="1" fill="none" fill-rule="evenodd">
        <g id="Group" transform="translate(-5.000000, -48.000000)">
            <g id="Group-6" transform="translate(3.957530, 0.000000)">
                <polygon id="Fill-1" fill="#BAE5FF" points="0 408.237251 480 408.237251 480 0.254988914 0 0.254988914"></polygon>
                <g id="Group-5" transform="translate(32.461538, 0.000000)">
                    <mask id="mask-2" fill="white">
                        <use xlink:href="#path-1"></use>
                    </mask>
                    <g id="Clip-4"></g>
                    <path d="M0.856252772,407.982262 L408.328537,407.982262 L408.328537,0.509977827 L0.856252772,0.509977827 L0.856252772,407.982262 Z M0.346274945,408.492239 L408.838514,408.492239 L408.838514,0 L0.346274945,0 L0.346274945,408.492239 Z" id="Fill-3" fill="url(#linearGradient-3)" mask="url(#mask-2)"></path>
                </g>
            </g>
            <polygon id="Fill-7" fill="#9FBA33" points="0.6171875 408.237251 491.099309 408.237251 491.099309 367.671064 0.6171875 367.671064"></polygon>
            <polygon id="Fill-8" fill="#AFCD3A" points="0.6171875 367.671064 491.099309 367.671064 491.099309 352.372749 0.6171875 352.372749"></polygon>
            <g id="Group-76" transform="translate(15.000000, 73.654528)">
                <g id="Group-75">
                    <g id="Group-67" transform="translate(0.000000, 76.278953)">
                        <mask id="mask-5" fill="white">
                            <use xlink:href="#path-4"></use>
                        </mask>
                        <g id="Clip-66"></g>
                        <path d="M221.096042,187.51696 C221.096042,179.092636 212.381541,172.264543 201.630698,172.264543 C199.212384,172.264543 196.900654,172.611328 194.764867,173.242681 C197.085266,170.73155 198.456086,167.647714 198.456086,164.310929 C198.456086,155.887625 189.741075,149.059532 178.990233,149.059532 C174.140854,149.059532 169.709656,150.450752 166.301475,152.748202 C165.497749,147.165984 160.850831,142.495608 154.479169,140.404188 C155.287483,138.727891 155.733204,136.91237 155.733204,135.014233 C155.733204,132.481683 154.940698,130.095497 153.545909,127.993368 C161.056863,125.87849 166.428969,120.250375 166.428969,113.637492 C166.428969,110.00594 164.807239,106.674255 162.103337,104.053989 C166.980255,101.282769 170.154357,96.784255 170.154357,91.7033459 C170.154357,83.2795322 161.439346,76.450929 150.687993,76.450929 L150.687993,76.4499091 C150.687993,68.0271153 141.972982,61.1974922 131.22163,61.1974922 C129.414268,61.1974922 127.666574,61.3953636 126.006086,61.755408 C123.894268,57.7816608 119.697661,54.6595765 114.486707,53.2234789 C115.961053,51.0764723 116.799967,48.6199091 116.799967,46.0093326 C116.799967,37.5860288 108.084446,30.7574257 97.3330931,30.7574257 C96.8577938,30.7574257 96.3886142,30.7752749 95.9224945,30.8012838 C96.829235,29.0393104 97.3330931,27.116694 97.3330931,25.1002417 C97.3330931,16.6779579 88.6175721,9.84782483 77.8667295,9.84782483 C74.5676829,9.84782483 71.461918,10.4934568 68.7391463,11.6281574 C66.5498115,5.083102 58.950122,0.25208204 49.9082151,0.25208204 C39.1573725,0.25208204 30.4418514,7.08119512 30.4418514,15.5039889 C30.4418514,22.3280022 36.1602328,28.1029911 44.0465299,30.0516164 C40.871408,32.7657184 38.9334922,36.3819712 38.9334922,40.3526585 C38.9334922,45.5100643 42.2019401,50.0646763 47.2012528,52.8251863 C42.2019401,55.5856962 38.9334922,60.1413282 38.9334922,65.297714 C38.9334922,66.0866497 39.0099889,66.860286 39.1573725,67.6181131 C39.0818958,67.6170931 39.008459,67.6135233 38.9334922,67.6135233 C28.1821397,67.6135233 19.4666186,74.4431463 19.4666186,82.8654302 C19.4666186,85.4326585 20.2800333,87.8509734 21.7105211,89.9745211 C11.7853326,90.6726807 4.00511086,97.2039667 4.00511086,105.161151 C4.00511086,113.584455 12.7206319,120.413568 23.4719845,120.413568 C24.6694124,120.413568 25.8393016,120.324831 26.9775721,120.163169 C24.770388,122.635541 23.4719845,125.64237 23.4719845,128.889399 C23.4719845,131.270486 24.1691242,133.524078 25.4109202,135.53186 C17.0987916,137.270375 10.9754878,143.207537 10.9754878,150.26614 C10.9754878,153.02512 11.914867,155.611217 13.5503659,157.84492 C5.69313747,159.806295 -0.000254988914,165.570574 -0.000254988914,172.376738 C-0.000254988914,178.860086 5.16633038,184.395896 12.4462639,186.60308 C11.500255,188.397182 10.9754878,190.362126 10.9754878,192.424477 C10.9754878,196.231461 12.7599002,199.71002 15.7045122,202.383324 L205.97316,202.383324 C214.632583,200.836051 221.096042,194.770375 221.096042,187.51696" id="Fill-65" fill="#FFFFFF" mask="url(#mask-5)"></path>
                    </g>
                    <g id="Group-70" transform="translate(297.827051, 129.826625)">
                        <mask id="mask-7" fill="white">
                            <use xlink:href="#path-6"></use>
                        </mask>
                        <g id="Clip-69"></g>
                        <path d="M150.969603,129.395909 C155.720047,126.83633 158.837541,122.550477 158.837541,117.692428 C158.837541,115.417417 158.151111,113.26939 156.936344,111.363093 L157.069958,111.363093 C159.809559,108.875421 161.471067,105.637572 161.471067,102.094756 C161.471067,96.1774834 156.846078,91.1062639 150.276033,88.9760865 C151.197053,87.2732705 151.707031,85.4021619 151.707031,83.4377273 C151.707031,75.5993681 143.595834,69.2435144 133.591089,69.2435144 C133.359049,69.2435144 133.129049,69.2501441 132.899049,69.2562639 C135.136322,66.8950665 136.461244,63.9718736 136.461244,60.8049113 C136.461244,53.268969 128.96355,47.1063969 119.494282,46.6412971 C123.387962,44.0373503 125.860845,40.1666186 125.860845,35.8414967 C125.860845,30.3714745 121.908007,25.6256208 116.119248,23.2557539 C118.491155,20.8557982 119.906344,17.8459091 119.906344,14.5759313 C119.906344,6.73655211 111.795656,0.381208426 101.789381,0.381208426 C91.7841264,0.381208426 83.6724191,6.73655211 83.6724191,14.5759313 C83.6724191,17.2237361 84.6010887,19.7012084 86.2131286,21.8227162 C77.8403126,23.0747118 71.5104678,28.8384812 71.5104678,35.7624501 C71.5104678,36.6656208 71.622663,37.5483925 71.828694,38.4046452 C71.5456563,38.3949557 71.2615987,38.3883259 70.9755011,38.3883259 C61.1635277,38.3883259 53.1793149,44.5009202 52.8733282,52.1296785 C49.5620421,49.3095011 44.8141486,47.540898 39.5384279,47.540898 C29.532663,47.540898 21.4219756,53.8967517 21.4219756,61.7351109 C21.4219756,62.1145344 21.4464545,62.490388 21.4831729,62.8621619 C21.4632838,62.8621619 21.4423747,62.860122 21.4219756,62.860122 C11.4162106,62.860122 3.3050133,69.2164856 3.3050133,77.0553548 C3.3050133,81.9144235 6.42250776,86.1997672 11.1729512,88.7593459 C4.80179823,90.9588803 0.351731707,95.9469734 0.351731707,101.752051 C0.351731707,105.45959 2.16827273,108.834623 5.13940355,111.363093 L20.4902461,111.363093 C14.5316652,113.687062 10.4355233,118.505333 10.4355233,124.07378 C10.4355233,126.038725 10.9460111,127.909834 11.8665211,129.61265 C5.29647672,131.742827 0.671487805,136.814047 0.671487805,142.730809 C0.671487805,146.274135 2.33299557,149.511984 5.07259645,151.999146 L157.003151,151.999146 C159.974282,149.470676 161.790823,146.096153 161.790823,142.388614 C161.790823,136.583537 157.340756,131.594933 150.969603,129.395909" id="Fill-68" fill="#FFFFFF" mask="url(#mask-7)"></path>
                    </g>
                    <path d="M376.072517,11.3668958 C376.072517,7.94800443 372.534801,5.17576497 368.170411,5.17576497 C367.230522,5.17576497 366.329391,5.30478936 365.493027,5.54090909 C365.077906,2.42749446 361.718172,0 357.634779,0 C353.492739,0 350.097307,2.4978714 349.761741,5.67503326 C348.807063,5.35374723 347.755999,5.17576497 346.651387,5.17576497 C342.286486,5.17576497 338.74826,7.94800443 338.74826,11.3668958 C334.38438,11.3668958 330.846154,14.1396452 330.846154,17.5590466 C330.846154,20.9789579 334.38438,23.7506874 338.74826,23.7506874 C340.472495,23.7506874 342.066176,23.3161863 343.36407,22.5828381 C343.894957,25.598847 347.195533,27.922306 351.190699,27.922306 C354.876309,27.922306 357.972894,25.944612 358.846486,23.2702882 C360.244846,25.0113525 362.717728,26.1690022 365.537396,26.1690022 C368.477418,26.1690022 371.041586,24.909357 372.402717,23.0428381 C373.499169,23.4936585 374.747085,23.7506874 376.072517,23.7506874 C380.437418,23.7506874 383.974624,20.9789579 383.974624,17.5590466 C383.974624,14.1396452 380.437418,11.3668958 376.072517,11.3668958" id="Fill-71" fill="#FFFFFF"></path>
                    <path d="M164.107962,19.457184 C164.107962,13.6046785 158.052485,8.85933481 150.58182,8.85933481 C148.97335,8.85933481 147.430157,9.07964523 145.999159,9.48354767 C145.28927,4.15478936 139.53723,0 132.546964,0 C125.457252,0 119.645545,4.27463415 119.07131,9.71354767 C117.436831,9.16379157 115.637629,8.85933481 113.745611,8.85933481 C106.275966,8.85933481 100.21896,13.6046785 100.21896,19.457184 C92.7482944,19.457184 86.6923077,24.2030377 86.6923077,30.0565632 C86.6923077,35.9090687 92.7482944,40.6544124 100.21896,40.6544124 C103.169691,40.6544124 105.898583,39.9113747 108.120556,38.6552993 C109.028827,43.8183149 114.678361,47.795122 121.516654,47.795122 C127.825589,47.795122 133.126299,44.4109091 134.621044,39.8338581 C137.0159,42.8126386 141.247696,44.7949224 146.074636,44.7949224 C151.108117,44.7949224 155.495966,42.6387361 157.826055,39.4421951 C159.704303,40.2148115 161.84009,40.6544124 164.107962,40.6544124 C171.579647,40.6544124 177.634614,35.9090687 177.634614,30.0565632 C177.634614,24.2035477 171.579647,19.457184 164.107962,19.457184" id="Fill-73" fill="#FFFFFF"></path>
                </g>
            </g>
            <polygon id="Fill-77" fill="#F68E21" points="291.486927 171.777616 205.712226 171.777616 205.712226 120.915998 247.359055 90.27449 291.486927 120.915998"></polygon>
            <g id="Group-123" transform="translate(63.957871, 80.576497)">
                <path d="M184.641603,36.2726829 C174.81688,36.2726829 166.824508,44.2655654 166.824508,54.0897783 C166.824508,63.9134812 174.81688,71.9063636 184.641603,71.9063636 C194.466326,71.9063636 202.458698,63.9139911 202.458698,54.0897783 C202.458698,44.2655654 194.466326,36.2726829 184.641603,36.2726829" id="Fill-78" fill="#FFFFFF"></path>
                <polygon id="Fill-80" fill="#414042" points="133.300197 54.0895233 125.970796 41.1065078 183.273945 0.405177384 240.299155 38.6081264 233.313479 51.8282816 183.527914 18.9902993"></polygon>
                <path d="M193.349576,48.7720865 L185.792725,52.9651242 C185.44849,52.785102 185.056827,52.6810665 184.641195,52.6810665 C184.225563,52.6810665 183.83492,52.785102 183.490685,52.9651242 L175.933324,48.7720865 C175.218845,48.3753237 174.317714,48.6333725 173.920951,49.3483614 C173.524188,50.0628404 173.782237,50.9634612 174.497226,51.3602239 L182.207581,55.6384279 C182.430951,56.7802683 183.435608,57.6416208 184.641195,57.6416208 C185.847803,57.6416208 186.851949,56.7802683 187.074809,55.6384279 L194.785164,51.3602239 C195.500153,50.9639712 195.758202,50.0628404 195.361949,49.3483614 C194.965186,48.6333725 194.064565,48.3753237 193.349576,48.7720865" id="Fill-82" fill="#414042"></path>
                <polygon id="Fill-84" fill="#D57C1C" points="22.4890022 275.034612 342.629623 275.034612 342.629623 195.842195 22.4890022 195.842195"></polygon>
                <polygon id="Fill-86" fill="#414042" points="348.737933 197.939632 15.5388204 197.939632 0.374119734 158.367902 364.745118 158.367902"></polygon>
                <polygon id="Fill-87" fill="#F68E21" points="114.037672 275.034612 251.080953 275.034612 251.080953 112.420532 114.037672 112.420532"></polygon>
                <polygon id="Fill-88" fill="#895E3C" points="142.330222 275.034612 222.789424 275.034612 222.789424 186.76918 142.330222 186.76918"></polygon>
                <polygon id="Fill-89" fill="#99D7DE" points="146.647694 275.034612 218.471441 275.034612 218.471441 191.505344 146.647694 191.505344"></polygon>
                <polygon id="Fill-90" fill="#FFFFFF" points="175.133322 191.50514 146.648 191.50514 146.648 208.635295 202.196825 275.034408 218.471237 275.034408 218.471237 242.673255"></polygon>
                <polygon id="Fill-91" fill="#895E3C" points="180.946763 275.034612 184.316186 275.034612 184.316186 189.259401 180.946763 189.259401"></polygon>
                <polygon id="Fill-92" fill="#C2986C" points="128.852018 280.948315 236.267118 280.948315 236.267118 269.995521 128.852018 269.995521"></polygon>
                <polygon id="Fill-93" fill="#414042" points="269.123612 121.274104 95.1528359 121.274104 79.9881353 81.7023747 285.130796 81.7023747"></polygon>
                <polygon id="Fill-94" fill="#895E3C" points="37.6894013 256.024678 102.138359 256.024678 102.138359 214.57878 37.6894013 214.57878"></polygon>
                <polygon id="Fill-95" fill="#99D7DE" points="40.1668736 253.800155 100.032661 253.800155 100.032661 216.803304 40.1668736 216.803304"></polygon>
                <polygon id="Fill-96" fill="#FFFFFF" points="80.8775366 216.803304 67.7374479 216.803304 60.7165831 216.803304 92.0042328 253.800155 100.032304 253.800155 100.032304 239.41878"></polygon>
                <polygon id="Fill-97" fill="#FFFFFF" points="54.5735942 216.803304 42.895102 216.803304 74.1827517 253.800155 86.5527738 253.800155"></polygon>
                <polygon id="Fill-98" fill="#895E3C" points="58.4704878 254.531973 60.1554545 254.531973 60.1554545 216.070976 58.4704878 216.070976"></polygon>
                <polygon id="Fill-99" fill="#895E3C" points="81.2175388 254.531973 82.9025055 254.531973 82.9025055 216.070976 81.2175388 216.070976"></polygon>
                <polygon id="Fill-100" fill="#895E3C" points="38.9587361 236.144213 100.7349 236.144213 100.7349 234.459246 38.9587361 234.459246"></polygon>
                <polygon id="Fill-101" fill="#895E3C" points="264.427583 256.024678 328.877051 256.024678 328.877051 214.57878 264.427583 214.57878"></polygon>
                <polygon id="Fill-102" fill="#99D7DE" points="266.905055 253.800155 326.771353 253.800155 326.771353 216.803304 266.905055 216.803304"></polygon>
                <polygon id="Fill-103" fill="#FFFFFF" points="307.615973 216.803304 294.475375 216.803304 287.45502 216.803304 318.74216 253.800155 326.771251 253.800155 326.771251 239.41878"></polygon>
                <polygon id="Fill-104" fill="#FFFFFF" points="281.311776 216.803304 269.633794 216.803304 300.920424 253.800155 313.290956 253.800155"></polygon>
                <polygon id="Fill-105" fill="#895E3C" points="285.20816 254.531973 286.893126 254.531973 286.893126 216.070976 285.20816 216.070976"></polygon>
                <polygon id="Fill-106" fill="#895E3C" points="307.955211 254.531973 309.640177 254.531973 309.640177 216.070976 307.955211 216.070976"></polygon>
                <polygon id="Fill-107" fill="#895E3C" points="265.696408 236.144213 327.473082 236.144213 327.473082 234.459246 265.696408 234.459246"></polygon>
                <polygon id="Fill-108" fill="#895E3C" points="127.024767 146.50643 184.140754 146.50643 184.140754 127.566874 127.024767 127.566874"></polygon>
                <polygon id="Fill-109" fill="#99D7DE" points="128.605188 145.489024 182.661308 145.489024 182.661308 128.582749 128.605188 128.582749"></polygon>
                <polygon id="Fill-110" fill="#FFFFFF" points="163.757654 128.582647 152.217876 128.582647 146.052244 128.582647 160.361202 145.503202 178.089051 145.503202"></polygon>
                <polygon id="Fill-111" fill="#FFFFFF" points="140.65678 128.582647 130.400616 128.582647 144.710084 145.503202 155.282435 145.503202"></polygon>
                <polygon id="Fill-112" fill="#895E3C" points="144.68071 145.82153 146.160155 145.82153 146.160155 128.137029 144.68071 128.137029"></polygon>
                <polygon id="Fill-113" fill="#895E3C" points="164.657051 145.82153 166.137007 145.82153 166.137007 128.137029 164.657051 128.137029"></polygon>
                <polygon id="Fill-114" fill="#895E3C" points="182.661818 145.82153 184.140754 145.82153 184.140754 128.137029 182.661818 128.137029"></polygon>
                <polygon id="Fill-115" fill="#895E3C" points="182.661308 146.51255 239.776785 146.51255 239.776785 127.572993 182.661308 127.572993"></polygon>
                <polygon id="Fill-116" fill="#99D7DE" points="184.24071 145.495144 238.296829 145.495144 238.296829 128.588869 184.24071 128.588869"></polygon>
                <polygon id="Fill-117" fill="#FFFFFF" points="219.393787 128.589124 207.852989 128.589124 201.687357 128.589124 215.997335 145.509678 233.725184 145.509678"></polygon>
                <polygon id="Fill-118" fill="#FFFFFF" points="196.292404 128.589124 186.036239 128.589124 200.345707 145.509678 210.919078 145.509678"></polygon>
                <polygon id="Fill-119" fill="#895E3C" points="200.316741 145.82765 201.796186 145.82765 201.796186 128.143149 200.316741 128.143149"></polygon>
                <polygon id="Fill-120" fill="#895E3C" points="220.293082 145.82765 221.773038 145.82765 221.773038 128.143149 220.293082 128.143149"></polygon>
                <polygon id="Fill-121" fill="#895E3C" points="238.296829 145.82765 239.776785 145.82765 239.776785 128.143149 238.296829 128.143149"></polygon>
                <polygon id="Fill-122" fill="#FFFFFF" points="132.94102 181.395033 232.380067 181.395033 232.380067 153.245787 132.94102 153.245787"></polygon>
            </g>
            <text id="SCHOOL" font-family="LucidaGrande, Lucida Grande" font-size="16.7619002" font-weight="normal" fill="#414042">
                <tspan x="205.622878" y="250.229881">SCHOOL</tspan>
            </text>
            <path d="M50.1078714,346.892217 C50.1078714,345.003259 49.2862971,343.306053 47.9817738,342.137694 C48.8074279,341.051441 49.2980266,339.69592 49.2980266,338.226164 C49.2980266,335.317251 47.37898,332.856098 44.7378049,332.040133 C44.9305765,331.42714 45.035122,330.774878 45.035122,330.097627 C45.035122,326.523193 42.136408,323.623969 38.5609534,323.623969 C38.2687361,323.623969 37.9811086,323.645898 37.6985809,323.683126 C36.9223947,320.979224 34.4321729,319 31.4778714,319 C28.9198226,319 26.7085588,320.484035 25.6574945,322.638692 C24.7267849,322.120554 23.6558315,321.824767 22.5155211,321.824767 C20.0864967,321.824767 17.9716186,323.162949 16.8639468,325.141663 C15.7384257,324.194634 14.2870288,323.623969 12.7015078,323.623969 C9.12605322,323.623969 6.22784922,326.523193 6.22784922,330.097627 C6.22784922,330.201153 6.23039911,330.303659 6.23549889,330.406164 C2.75694013,330.617295 0,333.504279 0,337.036896 C0,339.423592 1.25913525,341.514501 3.14809313,342.68694 C3.14350333,342.724678 3.13789357,342.763947 3.13381375,342.802195 C1.35144124,343.955255 0.170842572,345.959468 0.170842572,348.240089 C0.170842572,351.463149 2.52643016,354.135432 5.6097561,354.630111 C6.18348115,357.526785 8.68849224,359.726319 11.7269401,359.833925 L11.7269401,359.839534 L38.5609534,359.839534 C41.4142794,359.839534 43.7270288,357.526785 43.7270288,354.672949 C43.7270288,354.18592 43.6581818,353.715211 43.5317073,353.26796 C43.5969845,353.27 43.6617517,353.27306 43.7270288,353.27306 C47.2509756,353.27306 50.1078714,350.416674 50.1078714,346.892217" id="Fill-124" fill="#9FBA33"></path>
            <g id="Group-128" transform="translate(446.372506, 321.796009)" fill="#9FBA33">
                <path d="M50.1083814,27.8922173 C50.1083814,26.0032594 49.2868071,24.3060532 47.9817738,23.137694 C48.8074279,22.0514412 49.2985366,20.6959202 49.2985366,19.2261641 C49.2985366,16.3172506 47.37898,13.8560976 44.7383149,13.040133 C44.9310865,12.4271397 45.0356319,11.774878 45.0356319,11.0976275 C45.0356319,7.5231929 42.136408,4.62396896 38.5609534,4.62396896 C38.2687361,4.62396896 37.9816186,4.645898 37.6990909,4.68312639 C36.9229047,1.97922395 34.4326829,0 31.4783814,0 C28.9198226,0 26.7090687,1.48403548 25.6574945,3.6386918 C24.7267849,3.12055432 23.6563415,2.82476718 22.516031,2.82476718 C20.0870067,2.82476718 17.9716186,4.162949 16.8639468,6.14166297 C15.7384257,5.19463415 14.2875388,4.62396896 12.7015078,4.62396896 C9.12656319,4.62396896 6.22784922,7.5231929 6.22784922,11.0976275 C6.22784922,11.201153 6.23090909,11.3036585 6.23600887,11.4061641 C2.75694013,11.6172949 0,14.5042794 0,18.0368958 C0,20.423592 1.25913525,22.5145011 3.1486031,23.6869401 C3.14350333,23.7246785 3.13789357,23.7639468 3.13381375,23.8021951 C1.35195122,24.955255 0.170842572,26.9594678 0.170842572,29.2400887 C0.170842572,32.4631486 2.52694013,35.1354324 5.6097561,35.6301109 C6.18348115,38.5267849 8.68849224,40.7263193 11.7274501,40.8339246 L11.7274501,40.8395344 L38.5609534,40.8395344 C41.4142794,40.8395344 43.7275388,38.5267849 43.7275388,35.672949 C43.7275388,35.1859202 43.6586918,34.7152106 43.5322173,34.2679601 C43.5969845,34.27 43.6617517,34.2730599 43.7275388,34.2730599 C47.2514856,34.2730599 50.1083814,31.4166741 50.1083814,27.8922173" id="Fill-126"></path>
            </g>
        </g>
    </g>
</svg>