<?xml version="1.0" encoding="UTF-8"?>
<svg width="120px" height="120px" viewBox="0 0 120 120" version="1.1" xmlns="http://www.w3.org/2000/svg" xmlns:xlink="http://www.w3.org/1999/xlink">
    <!-- Generator: Sketch 51.1 (57501) - http://www.bohemiancoding.com/sketch -->
    <title>Juice2</title>
    <desc>Created with Sketch.</desc>
    <defs>
        <polygon id="path-1" points="0.108614155 0.172241379 51.7070457 0.172241379 51.7070457 51.8966897 0.108614155 51.8966897"></polygon>
        <polygon id="path-3" points="3.36795518e-05 0.171931034 85.182138 0.171931034 85.182138 93.6206897 3.36795518e-05 93.6206897"></polygon>
    </defs>
    <g id="Juice2" stroke="none" stroke-width="1" fill="none" fill-rule="evenodd">
        <g id="Page-1" transform="translate(4.000000, 0.000000)">
            <g id="Group-3" transform="translate(60.885845, 0.345000)">
                <mask id="mask-2" fill="white">
                    <use xlink:href="#path-1"></use>
                </mask>
                <g id="Clip-2"></g>
                <path d="M13.4725411,9.52324138 C16.6066142,7.14755172 20.4377785,5.65065517 24.6038151,5.38996552 L24.3994863,20.8647931 L13.4725411,9.52324138 Z M5.34892466,24.2584138 C5.69721233,20.1587586 7.23690183,16.4015172 9.62125342,13.3332414 L21.4165959,24.0365172 L5.34892466,24.2584138 Z M38.2891986,9.48031034 C35.7490205,12.1296207 32.1970023,15.9396207 28.2858607,20.1773793 L27.6037329,5.41944828 C31.5938196,5.74531034 35.2639977,7.20393103 38.2891986,9.48031034 Z M46.4117831,23.691 L30.4865228,23.9103103 L41.2607374,12.2097931 C44.0558105,15.3282414 45.9174726,19.3006552 46.4117831,23.691 Z M41.9356416,39.0654828 L30.1841575,26.868931 L46.528911,26.7504828 C46.3705046,31.4113448 44.6775685,35.6806552 41.9356416,39.0654828 Z M29.4994498,46.4056552 L28.7734635,30.7115172 L40.1317694,41.018069 C37.2520753,43.7661724 33.5834452,45.6866897 29.4994498,46.4056552 Z M24.1879338,30.7508276 L24.2699749,30.6613448 L24.1879338,36.8873793 L24.1879338,48.7984138 C24.266363,49.5551379 24.3060936,50.3227241 24.294226,51.1027241 L24.2828744,51.8403103 C24.8210434,51.873931 25.3617922,51.8966897 25.9077009,51.8966897 C40.1560205,51.8966897 51.7073037,40.3177241 51.7073037,26.0341034 C51.7073037,11.7515172 40.1560205,0.172034483 25.9077009,0.172034483 C11.6593813,0.172034483 0.108614155,11.7515172 0.108614155,26.0341034 L24.1879338,26.0341034 L24.1879338,30.7508276 Z" id="Fill-1" fill="#F68E1E" mask="url(#mask-2)"></path>
            </g>
            <path d="M66.2349758,24.603569 L82.302647,24.3811552 L70.5073046,13.6783966 C68.122953,16.7466724 66.5832635,20.5033966 66.2349758,24.603569" id="Fill-4" fill="#FFCA05"></path>
            <path d="M85.4898146,5.73486207 C81.3232621,5.99555172 77.4920977,7.49244828 74.3585406,9.86813793 L85.2854858,21.2096897 L85.4898146,5.73486207 Z" id="Fill-6" fill="#FFCA05"></path>
            <path d="M99.1749402,9.82531034 C96.1502553,7.54893103 92.4795612,6.09031034 88.4899904,5.76444828 L89.1721183,20.5223793 C93.0827438,16.2846207 96.6347621,12.4746207 99.1749402,9.82531034" id="Fill-8" fill="#FFCA05"></path>
            <path d="M107.297576,24.0357931 C106.803266,19.6459655 104.94212,15.6730345 102.146531,12.5551034 L91.372316,24.2556207 L107.297576,24.0357931 Z" id="Fill-10" fill="#FFCA05"></path>
            <path d="M102.82128,39.4106379 C105.563207,36.0258103 107.256659,31.7565 107.415065,27.0951207 L91.0703119,27.2140862 L102.82128,39.4106379 Z" id="Fill-12" fill="#FFCA05"></path>
            <path d="M90.3850881,46.7505 C94.4695995,46.0315345 98.1377137,44.1110172 101.017408,41.3629138 L89.6591018,31.0563621 L90.3850881,46.7505 Z" id="Fill-14" fill="#FFCA05"></path>
            <polygon id="Fill-16" fill="#FFCA05" points="85.0738301 31.0958793 85.0738301 37.232431 85.1558712 31.0063966"></polygon>
            <g id="Group-20" transform="translate(0.000000, 26.207069)">
                <mask id="mask-4" fill="white">
                    <use xlink:href="#path-3"></use>
                </mask>
                <g id="Clip-19"></g>
                <path d="M22.2984087,53.9893448 C13.2166142,53.8502069 5.96758676,46.356931 6.10638584,37.2534828 L6.27407991,26.2341724 L6.19719863,26.2341724 L6.19719863,12.3214138 C10.5820114,11.3029655 16.4146689,11.1146897 21.8892352,14.6546897 C32.5530297,21.5515862 38.4006507,24.3105517 45.9685548,18.4481379 C53.5359429,12.5857241 62.8236142,8.79331034 69.015395,13.6202069 C72.3599886,16.2286552 75.3046963,19.9377931 78.9851941,21.0633103 L78.9851941,23.8750345 C79.0522717,24.5231379 79.0863265,25.1815862 79.0765228,25.8493448 L78.8850936,38.3691724 C78.7462945,47.4726207 71.2717831,54.7398621 62.1905046,54.6007241 L22.2984087,53.9893448 Z M46.8741027,58.5167586 L65.4690525,58.8022759 C76.0698973,58.9641724 84.7951484,50.4814138 84.9576826,39.8546897 L85.1687192,25.9781379 L85.1800708,25.2405517 C85.1919384,24.4605517 85.1522078,23.6929655 85.0737785,22.9362414 L85.0737785,11.0257241 L85.0737785,4.88865517 L85.0737785,0.171931034 L60.9944589,0.171931034 L0.108614155,0.171931034 L0.108614155,25.6895172 L0.198394977,25.6895172 L0.00232191781,38.5527931 C-0.159696347,49.1795172 8.30240411,57.9255517 18.9037648,58.0884828 L38.307774,58.3858966 L38.307774,86.0676207 L27.6094087,86.0345172 C20.6679064,86.0138276 14.9544406,87.1108966 14.8481484,88.4862414 L14.7021256,90.3772759 C14.6943858,90.4781379 14.7207009,90.576931 14.7722991,90.6757241 L14.7722991,93.6208966 L70.4100936,93.6208966 L70.4100936,90.3188276 L70.3512717,90.3188276 L70.4797511,88.6548621 C70.5855274,87.2795172 65.0443995,86.1477931 58.1023813,86.1271034 L46.8741027,86.0929655 L46.8741027,58.5167586 Z" id="Fill-18" fill="#8AD3DC" mask="url(#mask-4)"></path>
            </g>
            <path d="M54.9121178,45.3452586 C56.8119626,45.3452586 58.352168,46.8887069 58.352168,48.7931897 C58.352168,50.6976724 56.8119626,52.2416379 54.9121178,52.2416379 C53.0122731,52.2416379 51.4720676,50.6976724 51.4720676,48.7931897 C51.4720676,46.8887069 53.0122731,45.3452586 54.9121178,45.3452586 Z M62.8236658,41.2073276 C63.9634694,41.2073276 64.8875927,42.1331897 64.8875927,43.2762931 C64.8875927,44.4188793 63.9634694,45.3452586 62.8236658,45.3452586 C61.6838621,45.3452586 60.7597388,44.4188793 60.7597388,43.2762931 C60.7597388,42.1331897 61.6838621,41.2073276 62.8236658,41.2073276 Z M17.0731132,47.7587069 C15.553547,47.7587069 14.3213826,46.5235345 14.3213826,45.0002586 C14.3213826,43.4769828 15.553547,42.2418103 17.0731132,42.2418103 C18.5931954,42.2418103 19.8253598,43.4769828 19.8253598,45.0002586 C19.8253598,46.5235345 18.5931954,47.7587069 17.0731132,47.7587069 Z M11.5696521,70.5173276 C6.75347854,62.5864655 10.1935288,44.6552586 10.1935288,44.6552586 C11.9132959,51.8966379 11.5696521,70.5173276 11.5696521,70.5173276 Z M62.1900402,80.8078448 C71.2718347,80.9469828 78.7463461,73.6797414 78.8851452,64.5762931 L79.0765744,52.0564655 C79.0863781,51.3887069 79.0523233,50.7302586 78.9852457,50.0821552 L78.9852457,47.270431 C75.3047479,46.1449138 72.3600402,42.4357759 69.0154466,39.8273276 C62.8236658,35.000431 53.5359945,38.7928448 45.9686064,44.6552586 C38.4007023,50.5176724 32.5525653,47.7587069 21.8892868,40.8618103 C16.4147205,37.3218103 10.582063,37.5100862 6.19725023,38.5285345 L6.19725023,52.4412931 L6.27413151,52.4412931 L6.10643744,63.4600862 C5.96763836,72.5640517 13.2166658,80.0573276 22.2984603,80.1964655 L62.1900402,80.8078448 Z" id="Fill-21" fill="#FBB216"></path>
            <path d="M54.9121178,52.2416379 C56.8119626,52.2416379 58.352168,50.6976724 58.352168,48.7931897 C58.352168,46.8887069 56.8119626,45.3452586 54.9121178,45.3452586 C53.0122731,45.3452586 51.4720676,46.8887069 51.4720676,48.7931897 C51.4720676,50.6976724 53.0122731,52.2416379 54.9121178,52.2416379" id="Fill-23" fill="#F68E1E"></path>
            <path d="M62.8236658,45.3452586 C63.9634694,45.3452586 64.8875927,44.4188793 64.8875927,43.2762931 C64.8875927,42.1331897 63.9634694,41.2073276 62.8236658,41.2073276 C61.6838621,41.2073276 60.7597388,42.1331897 60.7597388,43.2762931 C60.7597388,44.4188793 61.6838621,45.3452586 62.8236658,45.3452586" id="Fill-25" fill="#F68E1E"></path>
            <path d="M17.0733712,42.2418103 C15.553805,42.2418103 14.3216406,43.4769828 14.3216406,45.0002586 C14.3216406,46.5235345 15.553805,47.7587069 17.0733712,47.7587069 C18.5929374,47.7587069 19.8251018,46.5235345 19.8251018,45.0002586 C19.8251018,43.4769828 18.5929374,42.2418103 17.0733712,42.2418103" id="Fill-27" fill="#F68E1E"></path>
            <path d="M11.5696521,70.5173276 C11.5696521,70.5173276 11.9138119,51.8966379 10.1935288,44.6552586 C10.1935288,44.6552586 6.75399452,62.5864655 11.5696521,70.5173276" id="Fill-29" fill="#FEFEFE"></path>
        </g>
    </g>
</svg>