<?xml version="1.0" encoding="UTF-8"?>
<svg width="120px" height="120px" viewBox="0 0 120 120" version="1.1" xmlns="http://www.w3.org/2000/svg" xmlns:xlink="http://www.w3.org/1999/xlink">
    <!-- Generator: Sketch 51.1 (57501) - http://www.bohemiancoding.com/sketch -->
    <title>Athlete6</title>
    <desc>Created with Sketch.</desc>
    <defs>
        <polygon id="path-1" points="0.199373684 0.299053333 13.3734789 0.299053333 13.3734789 5.86666667 0.199373684 5.86666667"></polygon>
    </defs>
    <g id="Athlete6" stroke="none" stroke-width="1" fill="none" fill-rule="evenodd">
        <g id="Group-21" transform="translate(22.000000, 1.000000)">
            <path d="M47.9390629,112.828945 L48.4580343,93.2667636 C48.4580343,93.2667636 44.0717486,88.4318545 42.0610057,87.8711273 C40.6126629,87.4674909 36.1308343,88.8005818 36.1308343,88.8005818 L38.11552,112.828945 L38.1220343,112.828945 C36.2828343,113.976582 34.9474057,116.304582 36.5238629,118.207127 C37.7138057,119.544582 39.46832,118.488582 40.7994057,117.923491 C42.2716343,117.218764 43.95232,116.730036 45.2834057,115.811491 C46.1454629,115.204945 47.1551771,114.5504 47.73712,113.651491 C47.9173486,113.372218 48.0020343,113.088582 47.9390629,112.828945" id="Fill-281" fill="#FDDFBB"></path>
            <path d="M59.0908686,112.828945 L59.0973829,112.828945 L61.08424,88.8005818 C61.08424,88.8005818 56.66104,87.4500364 55.23224,87.8427636 C53.1976114,88.4013091 48.7526971,93.2667636 48.7526971,93.2667636 L49.27384,112.828945 L49.2781829,112.828945 C49.2108686,113.099491 49.2977257,113.372218 49.4779543,113.651491 C50.0577257,114.5504 51.0696114,115.204945 51.9294971,115.811491 C53.2605829,116.730036 54.9456114,117.218764 56.4156686,117.923491 C57.7489257,118.488582 59.5012686,119.544582 60.6933829,118.207127 C62.2676686,116.304582 60.93224,113.970036 59.0908686,112.828945" id="Fill-283" fill="#FDDFBB"></path>
            <path d="M44.9490057,106.060945 L44.81872,106.041309 C44.8274057,105.986764 45.5526629,100.831127 45.5526629,99.1293091 L45.68512,99.1293091 C45.68512,100.831127 44.95552,106.008582 44.9490057,106.060945" id="Fill-285" fill="#EEAC6C"></path>
            <path d="M39.5586514,106.060945 C39.5499657,106.008582 38.8203657,100.831127 38.8203657,99.1293091 L38.9506514,99.1293091 C38.9506514,100.831127 39.6802514,105.986764 39.6889371,106.041309 L39.5586514,106.060945 Z" id="Fill-287" fill="#EEAC6C"></path>
            <path d="M52.27128,106.060945 L52.3993943,106.041309 C52.39288,105.986764 51.66328,100.831127 51.66328,99.1293091 L51.5329943,99.1293091 C51.5329943,100.831127 52.2625943,106.008582 52.27128,106.060945" id="Fill-289" fill="#EEAC6C"></path>
            <path d="M57.6616343,106.060945 C57.6681486,106.008582 58.39992,100.831127 58.39992,99.1293091 L58.2674629,99.1293091 C58.2674629,100.831127 57.5378629,105.986764 57.5313486,106.041309 L57.6616343,106.060945 Z" id="Fill-291" fill="#EEAC6C"></path>
            <path d="M35.9113029,85.8824 C35.9113029,85.8824 35.6854743,88.2191273 36.1306171,88.8016727 C41.1683314,88.7274909 48.4578171,93.2678545 48.4578171,93.2678545 L48.7531314,93.2678545 C48.7531314,93.2678545 55.8319886,88.5965818 61.0846743,88.8016727 C61.5254743,88.2191273 61.3018171,85.8824 61.3018171,85.8824 L35.9113029,85.8824 Z" id="Fill-293" fill="#E63744"></path>
            <path d="M57.8631429,89.1677818 C59.0943429,88.2143273 60.4905714,87.3743273 61.3526286,86.8681455 C61.3461143,86.3270545 61.3026857,85.9059636 61.3026857,85.9059636 L58.7404,85.9059636 C57.8392571,86.9205091 55.1988,89.1328727 53.6028,90.6688727 C54.9230286,90.0819636 56.3974286,89.5168727 57.8631429,89.1677818" id="Fill-295" fill="#F7B90B"></path>
            <path d="M56.6373714,89.5044364 C58.5004571,87.9771636 60.9715429,86.6200727 61.3385143,86.4193455 C61.3233143,86.1051636 61.3016,85.9066182 61.3016,85.9066182 L57.9380571,85.9066182 C56.8784,87.0542545 53.4345143,89.9364364 52.0838857,91.3917091 C53.4019429,90.7306182 54.9936,90.0106182 56.6373714,89.5044364" id="Fill-297" fill="#E63744"></path>
            <path d="M35.85832,86.8698909 C36.7529486,87.3935273 38.2164914,88.2880727 39.4780914,89.2786182 C40.9546629,89.6604364 42.4464343,90.2473455 43.7818629,90.8429818 C42.21192,89.3048 39.4086057,86.9200727 38.4705486,85.9077091 L35.9104343,85.9077091 C35.9104343,85.9077091 35.8670057,86.3266182 35.85832,86.8698909" id="Fill-299" fill="#F7B90B"></path>
            <path d="M35.8730857,86.4213091 C36.2704571,86.6394909 38.8653143,88.0729455 40.7392571,89.6482182 C42.3656571,90.1784 43.9529714,90.8874909 45.2601714,91.5333091 C44.0094286,90.1304 40.3679429,87.1194909 39.2735429,85.9064 L35.9121714,85.9064 C35.9121714,85.9064 35.8926286,86.1071273 35.8730857,86.4213091" id="Fill-301" fill="#E63744"></path>
            <path d="M72.4864114,79.3986909 C72.3800114,78.3797818 72.0412686,77.4699636 71.55704,76.7696 C71.5635543,76.8132364 71.5635543,76.8350545 71.5635543,76.8350545 C71.5635543,76.8350545 70.12824,62.3696 66.3825257,57.5608727 C64.6670971,55.3572364 58.7412686,52.1608727 58.0485829,51.7921455 C56.7413829,50.8386909 53.7904114,50.4110545 51.9555543,50.2386909 C52.2638971,49.5601455 52.4462971,48.8205091 52.4462971,48.2837818 L44.69864,48.2837818 C44.69864,48.8205091 44.88104,49.5470545 45.18504,50.2212364 C43.3827543,50.3979636 40.4013829,50.8277818 39.04424,51.7746909 C39.04424,51.7746909 36.6947543,52.6212364 35.9108686,52.9005091 C32.4430971,51.1550545 27.1969257,56.0401455 27.1969257,56.0401455 L21.57944,49.4117818 L21.57944,49.4161455 C21.6749829,49.1477818 21.7422971,48.8597818 21.7900686,48.5608727 C22.1483543,47.8997818 22.44584,47.0772364 22.6238971,46.1565091 C23.0885829,43.7477818 22.5717829,41.6270545 21.4643543,41.4088727 C20.8693829,41.2910545 20.2331543,41.7470545 19.6924686,42.5630545 C18.5003543,41.4132364 17.0302971,40.9332364 15.80344,41.4525091 C13.91864,42.2554182 13.32584,45.1026909 14.46584,47.8146909 C15.2041257,49.5579636 16.4744114,50.8168727 17.7902971,51.2881455 L17.7881257,51.2881455 C17.7881257,51.2881455 21.29064,61.2830545 24.3436686,62.3957818 C26.8125829,63.2946909 35.8283543,59.6554182 35.8283543,59.6554182 L35.8283543,59.6423273 C34.1368114,70.0256 35.9108686,85.8830545 35.9108686,85.8830545 L61.3035543,85.8830545 C61.3035543,85.8830545 62.8235543,71.4896 61.4620686,61.1434182 L61.4620686,61.1477818 C61.66184,61.6997818 62.7605829,62.6728727 63.6291543,63.9099636 C65.3684686,66.3819636 66.99704,76.8263273 66.99704,76.8263273 C66.9536114,76.8983273 66.9188686,76.9703273 66.8841257,77.0445091 C66.4433257,77.4786909 66.0133829,78.0590545 65.6529257,78.7419636 C64.7083543,80.5245091 64.61064,82.3310545 65.43144,82.7674182 C65.87224,83.0030545 66.4867543,82.8001455 67.1056114,82.2830545 C67.77224,83.4808727 68.82104,84.2139636 69.9132686,84.0983273 C71.5896114,83.9194182 72.7404686,81.8139636 72.4864114,79.3986909" id="Fill-303" fill="#FDDFBB"></path>
            <path d="M45.53008,50.8581091 L52.4200229,48.5737455 L52.4330514,48.5606545 C51.1519086,48.7810182 49.8338514,48.8944727 48.4897371,48.8944727 C47.2042514,48.8944727 45.9426514,48.7875636 44.7136229,48.5868364 C44.78528,49.2610182 45.0936229,50.1904727 45.53008,50.8581091" id="Fill-305" fill="#EEAC6C"></path>
            <path d="M23.1478629,37.8950545 C23.1478629,44.2092364 18.0580343,49.3234182 11.7760914,49.3234182 C5.49197714,49.3234182 0.402148571,44.2092364 0.402148571,37.8950545 C0.402148571,31.5830545 5.49197714,26.4688727 11.7760914,26.4688727 C18.0580343,26.4688727 23.1478629,31.5830545 23.1478629,37.8950545" id="Fill-307" fill="#F7B90B"></path>
            <path d="M19.86944,45.9234909 C19.6175543,45.9125818 19.3613257,45.9060364 19.0985829,45.9060364 C14.6970971,45.9060364 10.7060114,47.2129455 10.2890971,47.3547636 C10.2217829,47.0384 9.71584,44.7125818 9.47698286,41.6274909 L22.52944,41.6274909 C22.5359543,41.6034909 22.5402971,41.5816727 22.5511543,41.5598545 L9.47046857,41.5598545 C9.34452571,39.9234909 9.29892571,38.0885818 9.42486857,36.2340364 L23.0266971,36.2340364 C23.0245257,36.2122182 23.0223543,36.1882182 23.0201829,36.1664 L9.43138286,36.1664 C9.51606857,34.9729455 9.67892571,33.7751273 9.93949714,32.6187636 C10.0372114,32.2434909 10.1457829,31.8769455 10.2695543,31.5147636 L21.2113829,31.5147636 C21.1961829,31.4929455 21.1809829,31.4689455 21.1657829,31.4449455 L19.4872686,31.4449455 C19.2701257,31.1744 18.1084114,29.7474909 16.4972114,28.2965818 C15.9760686,27.8274909 15.3767543,27.3300364 14.7209829,26.8565818 C14.6580114,26.8391273 14.5928686,26.8238545 14.5277257,26.8064 C17.0226971,28.5693091 19.0095543,30.9605818 19.4004114,31.4449455 L15.12704,31.4449455 C14.8621257,31.2333091 13.43984,30.1140364 11.3487543,29.1147636 C10.1479543,28.5387636 8.58018286,27.9365818 6.80829714,27.6114909 C6.77572571,27.6289455 6.74315429,27.6464 6.70624,27.6638545 C8.50852571,27.9802182 10.1023543,28.5933091 11.3183543,29.1736727 C13.2704686,30.1096727 14.6384686,31.1438545 15.02064,31.4449455 L10.2500114,31.4449455 C10.1197257,31.4056727 7.26212571,30.5831273 4.13092571,30.5831273 C3.74441143,30.5831273 3.36875429,30.5940364 3.00612571,30.6202182 C2.98875429,30.6442182 2.96921143,30.6682182 2.94749714,30.6922182 C3.32966857,30.6638545 3.72269714,30.6485818 4.13092571,30.6485818 C4.86486857,30.6485818 5.58361143,30.6944 6.25241143,30.7642182 L6.25241143,47.8871273 C6.27629714,47.8980364 6.29801143,47.9133091 6.31972571,47.9264 L6.31972571,30.7707636 C8.27401143,30.9802182 9.82006857,31.3969455 10.1653257,31.4929455 C10.0545829,31.8616727 9.95904,32.2347636 9.87218286,32.6122182 C9.07526857,35.7278545 9.14692571,39.2929455 9.37492571,41.8674909 C9.63332571,44.8085818 10.14144,47.0798545 10.2065829,47.3700364 C9.98726857,47.4376727 8.56715429,47.8696727 6.67584,48.1118545 C6.70841143,48.1293091 6.74749714,48.1489455 6.78441143,48.1642182 C8.66486857,47.9176727 10.0589257,47.4878545 10.2369829,47.4289455 C10.2369829,47.4289455 12.5104686,46.6020364 15.6025829,46.2245818 C15.29424,46.4689455 13.3551543,47.6187636 11.3205257,48.5809455 C10.90144,48.7816727 10.4324114,48.9802182 9.93081143,49.1700364 C9.97424,49.1787636 10.0176686,49.1874909 10.0632686,49.1962182 C10.5279543,49.0129455 10.9578971,48.8253091 11.3487543,48.6420364 C13.6613257,47.5511273 15.6959543,46.2093091 15.6959543,46.2093091 C16.90544,46.0238545 17.71104,45.9714909 19.0985829,45.9714909 C19.2071543,45.9714909 19.3178971,45.9758545 19.4242971,45.9780364 C19.2809829,46.1634909 18.9335543,46.5998545 18.4362971,47.1584 C18.5296686,47.0929455 18.6186971,47.0231273 18.7098971,46.9554909 C19.1007543,46.5016727 19.3765257,46.1504 19.5068114,45.9780364 C19.6088686,45.9802182 19.7065829,45.9845818 19.8064686,45.9867636 L19.86944,45.9234909 Z" id="Fill-309" fill="#727371"></path>
            <path d="M2.63155429,31.1024 L2.63155429,44.6907636 C2.65326857,44.7191273 2.67715429,44.7496727 2.69669714,44.7802182 L2.69669714,31.0107636 C2.67715429,31.0434909 2.65326857,31.0696727 2.63155429,31.1024" id="Fill-311" fill="#727371"></path>
            <path d="M22.7259543,45.7210182 C22.3806971,48.0272 21.24504,49.7661091 20.18104,49.6068364 C19.1235543,49.4475636 18.53944,47.4512 18.8803543,45.1428364 C19.2256114,42.8344727 20.3656114,41.0955636 21.4230971,41.2526545 C22.4870971,41.4119273 23.0668686,43.4126545 22.7259543,45.7210182" id="Fill-313" fill="#FDDFBB"></path>
            <path d="M42.0269143,64.3688 C40.1681714,64.3688 38.8436,64.0437091 38.0336571,63.3760727 C37.3453143,62.8131636 37.0087429,61.9862545 37.0087429,60.9389818 L37.1412,60.9389818 C37.1412,61.9862545 37.4582286,62.7368 38.114,63.2757091 C39.5949143,64.4888 42.8433714,64.5629818 48.0461143,63.5026182 L48.0721714,63.6269818 C45.6423429,64.1244364 43.6337714,64.3688 42.0269143,64.3688" id="Fill-315" fill="#EEAC6C"></path>
            <path d="M55.3798971,64.3688 C57.23864,64.3688 58.56104,64.0437091 59.3731543,63.3760727 C60.0614971,62.8131636 60.3958971,61.9862545 60.3958971,60.9389818 L60.26344,60.9389818 C60.26344,61.9862545 59.9464114,62.7368 59.29064,63.2757091 C57.8097257,64.4888 54.56344,64.5629818 49.3606971,63.5026182 L49.3324686,63.6269818 C51.7622971,64.1244364 53.77304,64.3688 55.3798971,64.3688" id="Fill-317" fill="#EEAC6C"></path>
            <polygon id="Fill-319" fill="#EEAC6C" points="48.5857143 62.3144 48.7138286 62.3144 48.7138286 59.3645818 48.5857143 59.3645818"></polygon>
            <path d="M44.8324,75.4397818 C43.7532,75.4397818 42.9866857,75.2499636 42.5198286,74.8616 C42.1202857,74.5365091 41.9248571,74.0390545 41.9248571,73.4499636 L41.9986857,73.4499636 C41.9986857,74.0390545 42.1854286,74.4928727 42.5654286,74.8048727 C43.4253143,75.5096 45.3079429,75.5510545 48.3218857,74.9336 L48.3370857,75.0099636 C46.93,75.2979636 45.7639429,75.4397818 44.8324,75.4397818" id="Fill-321" fill="#EEAC6C"></path>
            <path d="M52.5724571,75.4397818 C53.6538286,75.4397818 54.4181714,75.2499636 54.8872,74.8616 C55.2867429,74.5365091 55.48,74.0390545 55.48,73.4499636 L55.4061714,73.4499636 C55.4061714,74.0390545 55.2216,74.4928727 54.8416,74.8048727 C53.9838857,75.5096 52.0990857,75.5510545 49.0851429,74.9336 L49.0699429,75.0099636 C50.4770286,75.2979636 51.6409143,75.4397818 52.5724571,75.4397818" id="Fill-322" fill="#EEAC6C"></path>
            <path d="M44.8324,78.7146909 C43.7532,78.7146909 42.9866857,78.5248727 42.5198286,78.1386909 C42.1202857,77.8114182 41.9248571,77.3161455 41.9248571,76.7248727 L41.9986857,76.7248727 C41.9986857,77.3161455 42.1854286,77.7677818 42.5654286,78.0776 C43.4253143,78.7845091 45.3079429,78.8281455 48.3218857,78.2128727 L48.3370857,78.2870545 C46.93,78.5728727 45.7639429,78.7146909 44.8324,78.7146909" id="Fill-323" fill="#EEAC6C"></path>
            <path d="M52.5724571,78.7146909 C53.6538286,78.7146909 54.4181714,78.5248727 54.8872,78.1386909 C55.2867429,77.8114182 55.48,77.3161455 55.48,76.7248727 L55.4061714,76.7248727 C55.4061714,77.3161455 55.2216,77.7677818 54.8416,78.0776 C53.9838857,78.7845091 52.0990857,78.8281455 49.0851429,78.2128727 L49.0699429,78.2870545 C50.4770286,78.5728727 51.6409143,78.7146909 52.5724571,78.7146909" id="Fill-324" fill="#EEAC6C"></path>
            <path d="M44.8324,82.0554909 C43.7532,82.0554909 42.9866857,81.8656727 42.5198286,81.4816727 C42.1202857,81.1522182 41.9248571,80.6547636 41.9248571,80.0656727 L41.9986857,80.0656727 C41.9986857,80.6547636 42.1854286,81.1085818 42.5654286,81.4227636 C43.4253143,82.1253091 45.3079429,82.1689455 48.3218857,81.5514909 L48.3370857,81.6278545 C46.93,81.9136727 45.7639429,82.0554909 44.8324,82.0554909" id="Fill-325" fill="#EEAC6C"></path>
            <path d="M52.5724571,82.0554909 C53.6538286,82.0554909 54.4181714,81.8656727 54.8872,81.4816727 C55.2867429,81.1522182 55.48,80.6547636 55.48,80.0656727 L55.4061714,80.0656727 C55.4061714,80.6547636 55.2216,81.1085818 54.8416,81.4227636 C53.9838857,82.1253091 52.0990857,82.1689455 49.0851429,81.5514909 L49.0699429,81.6278545 C50.4770286,81.9136727 51.6409143,82.0554909 52.5724571,82.0554909" id="Fill-326" fill="#EEAC6C"></path>
            <path d="M44.38704,72.2139636 C43.18624,72.2139636 42.3306971,71.9914182 41.8073829,71.5616 C41.36224,71.1972364 41.1472686,70.6343273 41.1472686,69.9797818 L41.2319543,69.9797818 C41.2319543,70.6343273 41.43824,71.1514182 41.8594971,71.4961455 C42.8170971,72.2837818 44.9168686,72.3339636 48.27824,71.6488727 L48.2956114,71.7317818 C46.7234971,72.0525091 45.4271543,72.2139636 44.38704,72.2139636" id="Fill-327" fill="#EEAC6C"></path>
            <path d="M53.0176,72.2139636 C54.2227429,72.2139636 55.0739429,71.9914182 55.5972571,71.5616 C56.0445714,71.1972364 56.2595429,70.6343273 56.2595429,69.9797818 L56.1770286,69.9797818 C56.1770286,70.6343273 55.9685714,71.1514182 55.5473143,71.4961455 C54.5897143,72.2837818 52.4899429,72.3339636 49.1264,71.6488727 L49.1090286,71.7317818 C50.6811429,72.0525091 51.9774857,72.2139636 53.0176,72.2139636" id="Fill-328" fill="#EEAC6C"></path>
            <path d="M31.4264343,58.0406545 C31.1723771,58.0406545 30.9313486,58.0297455 30.7011771,58.0166545 C28.8902057,57.9010182 27.4766057,57.3882909 27.4614057,57.3817455 L27.5070057,57.2595636 C27.5200343,57.2661091 28.9184343,57.7701091 30.7142057,57.8857455 C32.3644914,57.9926545 34.7009486,57.7832 36.4489486,56.1752 L36.5358057,56.2712 C34.9984343,57.6872 33.0137486,58.0406545 31.4264343,58.0406545" id="Fill-329" fill="#EEAC6C"></path>
            <path d="M66.5551543,61.2900364 C66.6050971,61.1089455 66.94384,59.8740364 67.0415543,58.5387636 C67.0002971,58.4689455 66.9612114,58.4013091 66.9177829,58.3336727 C66.8352686,59.8151273 66.4292114,61.2485818 66.4226971,61.2725818 L66.4226971,61.3096727 L68.02304,66.6289455 L68.1468114,66.5940364 L66.5551543,61.2900364 Z" id="Fill-330" fill="#EEAC6C"></path>
            <path d="M50.3289371,51.3928727 C49.8447086,51.2946909 49.6709943,50.5070545 49.6557943,50.5877818 L49.5906514,50.0728727 C49.7209371,50.2626909 51.61008,51.6546909 50.3289371,51.3928727 M47.2303086,51.4343273 C46.5745371,52.2219636 46.2205943,51.4801455 46.6223086,50.7252364 C46.7699657,50.4176 47.3171657,50.1950545 47.3931657,50.2103273 C47.3931657,50.2103273 47.4583086,51.1463273 47.2303086,51.4343273 M51.7186514,51.0699636 C50.37888,49.7259636 49.1541943,49.9899636 48.8545371,49.1848727 C48.4506514,48.0917818 47.8035657,47.3237818 48.0728229,48.3143273 C47.9816229,48.5390545 48.0424229,48.7834182 47.9577371,49.0037818 C47.8209371,49.3681455 47.2042514,49.7106909 46.8481371,49.8786909 C46.3335086,50.1208727 45.6625371,50.3150545 45.3737371,50.7186909 C44.7136229,51.5106909 45.4149943,52.5754182 46.3465371,52.9310545 C48.1205943,53.5136 48.3659657,51.6110545 48.0597943,50.3237818 C48.0597943,50.3237818 48.1053943,49.8568727 48.58528,50.4328727 C49.23888,51.2139636 50.2225371,52.6779636 51.1605943,52.6539636 C52.38528,52.5405091 52.3005943,51.6503273 51.7186514,51.0699636" id="Fill-331" fill="#E63744"></path>
            <path d="M71.53424,28.9952 C71.7057829,27.8453818 71.7969829,26.6693818 71.7969829,25.4737455 C71.7969829,12.5377455 61.3589257,2.04974545 48.4845257,2.04974545 C35.6122971,2.04974545 25.17424,12.5377455 25.17424,25.4737455 C25.17424,26.6126545 25.2567543,27.7384727 25.4130971,28.8337455 C24.0689829,29.5733818 23.1613257,30.9697455 23.1613257,32.5733818 C23.1613257,34.9493818 25.1546971,36.8759273 27.6105829,36.8759273 C27.7777829,36.8759273 27.9428114,36.8650182 28.1056686,36.8497455 C32.0858971,44.0344727 39.72064,48.8933818 48.4845257,48.8933818 C57.2418971,48.8933818 64.8701257,44.0432 68.8568686,36.8693818 C68.9241829,36.8715636 68.99584,36.8759273 69.0631543,36.8759273 C71.5212114,36.8759273 73.5145829,34.9493818 73.5145829,32.5733818 C73.5145829,31.0810182 72.7306971,29.7675636 71.53424,28.9952" id="Fill-332" fill="#FDDFBB"></path>
            <path d="M72.7217943,22.4198545 C72.7044229,21.1936727 72.6175657,19.7056727 72.44168,18.1151273 C69.3126514,7.8104 59.7713943,0.311490909 48.4908229,0.311490909 C38.66728,0.311490909 30.1661371,5.99512727 26.0643086,14.2685818 C24.9329943,17.5194909 24.2337943,20.7202182 24.1773371,22.1602182 C23.9775657,27.1718545 27.6125371,34.6707636 27.6125371,34.6707636 C27.1739086,26.4278545 27.2651086,26.4431273 29.2476229,25.0140364 C31.7035086,23.2380364 36.8867086,19.9282182 38.8865943,17.6460364 C39.2665943,17.2074909 40.0569943,15.6409455 40.0569943,15.6409455 C40.0569943,15.6409455 39.9809943,16.8693091 40.6649943,17.4125818 C44.7907086,20.6831273 56.9572229,17.0438545 61.5715086,19.5704 C65.3497943,21.6344 69.93368,34.6707636 69.93368,34.6707636 C71.8011086,31.1209455 72.7587086,25.1689455 72.7217943,22.4198545" id="Fill-341" fill="#333433"></path>
            <path d="M71.8310743,29.204 C72.4390743,26.5945455 72.7409029,23.9872727 72.72136,22.4207273 C72.7039886,21.1945455 72.6171314,19.7043636 72.4412457,18.1138182 C69.3122171,7.80909091 59.77096,0.312363636 48.4903886,0.312363636 C38.6690171,0.312363636 30.1678743,5.99381818 26.0638743,14.2672727 C24.93256,17.5203636 24.23336,20.7189091 24.1769029,22.1610909 C24.0943886,24.2098182 24.6524457,26.6752727 25.3451314,28.8745455 C24.0379314,29.6207273 23.1606743,30.9974545 23.1606743,32.5727273 C23.1606743,34.9509091 25.1540457,36.8774545 27.6121029,36.8774545 C27.7771314,36.8774545 27.94216,36.8665455 28.1050171,36.8490909 C29.2363314,38.8912727 30.6673029,40.748 32.3306171,42.3603636 C30.41976,22.5145455 35.75496,17.276 48.4838743,17.276 C60.39416,17.276 65.5295886,23.0512727 64.6306171,42.3690909 C66.2939314,40.7632727 67.72056,38.9109091 68.8562171,36.8709091 C68.9235314,36.8730909 68.9951886,36.8774545 69.0646743,36.8774545 C71.52056,36.8774545 73.5139314,34.9509091 73.5139314,32.5727273 C73.5139314,31.2047273 72.85816,29.9916364 71.8310743,29.204" id="Fill-342" fill="#E63744"></path>
            <path d="M29.2910514,30.3651636 C30.7849943,34.8509818 30.7849943,38.8982545 29.28888,39.4044364 C27.7927657,39.9062545 23.8190514,37.4168 22.32728,32.9288 C20.8311657,28.4386182 22.3750514,23.6517091 23.8733371,23.1477091 C25.3694514,22.6415273 27.7971086,25.8728 29.2910514,30.3651636" id="Fill-343" fill="#CC3A48"></path>
            <path d="M26.1144686,25.2047273 C26.3424686,25.9378182 26.0949257,26.6665455 25.5650971,26.8301818 C25.0309257,26.9938182 24.4207543,26.5356364 24.1927543,25.8025455 C23.9690971,25.0738182 24.2144686,24.3450909 24.7464686,24.1814545 C25.2762971,24.0156364 25.8908114,24.4738182 26.1144686,25.2047273" id="Fill-344" fill="#A53647"></path>
            <path d="M28.7990057,31.3410909 C29.0248343,32.0741818 28.7772914,32.7963636 28.2474629,32.9643636 C27.7154629,33.1301818 27.10312,32.672 26.8772914,31.9389091 C26.6514629,31.208 26.8990057,30.4814545 27.4310057,30.3134545 C27.9608343,30.1498182 28.5753486,30.608 28.7990057,31.3410909" id="Fill-345" fill="#A53647"></path>
            <path d="M29.5116686,36.9171636 C29.4508686,37.6786182 28.9492686,38.2589818 28.3933829,38.2131636 C27.8374971,38.1651636 27.4444686,37.5084364 27.50744,36.7469818 C27.5704114,35.9833455 28.0720114,35.4029818 28.6257257,35.4509818 C29.17944,35.4968 29.57464,36.1513455 29.5116686,36.9171636" id="Fill-346" fill="#A53647"></path>
            <path d="M67.3227543,30.3651636 C65.82664,34.8509818 65.8309829,38.8982545 67.3249257,39.4044364 C68.82104,39.9062545 72.7947543,37.4168 74.2865257,32.9288 C75.78264,28.4386182 74.2387543,23.6517091 72.7404686,23.1477091 C71.2465257,22.6415273 68.8166971,25.8728 67.3227543,30.3651636" id="Fill-347" fill="#CC3A48"></path>
            <path d="M70.4993371,25.2047273 C70.2713371,25.9378182 70.5210514,26.6665455 71.05088,26.8301818 C71.5807086,26.9938182 72.1952229,26.5356364 72.4210514,25.8025455 C72.6447086,25.0738182 72.3993371,24.3450909 71.8673371,24.1814545 C71.3375086,24.0156364 70.7229943,24.4738182 70.4993371,25.2047273" id="Fill-348" fill="#A53647"></path>
            <path d="M67.8148,31.3410909 C67.5868,32.0741818 67.8365143,32.7963636 68.3663429,32.9643636 C68.8983429,33.1301818 69.5106857,32.672 69.7365143,31.9389091 C69.9623429,31.208 69.7148,30.4814545 69.1828,30.3134545 C68.6551429,30.1498182 68.0384571,30.608 67.8148,31.3410909" id="Fill-349" fill="#A53647"></path>
            <path d="M67.1023543,36.9171636 C67.1631543,37.6786182 67.6669257,38.2589818 68.2228114,38.2131636 C68.7743543,38.1651636 69.1717257,37.5084364 69.1087543,36.7469818 C69.0436114,35.9833455 68.5420114,35.4029818 67.9882971,35.4509818 C67.4345829,35.4968 67.0393829,36.1513455 67.1023543,36.9171636" id="Fill-350" fill="#A53647"></path>
            <path d="M48.4903886,15.2117818 C38.6690171,15.2117818 29.1972457,15.2117818 31.2926743,41.2910545 C31.4815886,41.5245091 31.8051314,41.8845091 32.3306171,42.3601455 C30.41976,22.5143273 35.75496,17.2757818 48.4838743,17.2757818 C60.39416,17.2757818 65.5295886,23.0510545 64.6306171,42.3688727 C65.06056,41.9783273 65.2321029,41.8190545 65.5491314,41.4219636 C68.1049029,16.8743273 59.77096,15.2117818 48.4903886,15.2117818" id="Fill-351" fill="#EEEEED"></path>
        </g>
        <g id="Page-1" transform="translate(58.000000, 24.000000)">
            <path d="M8.31106854,1.65026755 C8.31106854,1.65026755 7.80801591,3.45328977 6.22875275,3.09640088 C5.45712117,2.92235643 5.3211738,1.89471199 2.8433317,2.35573421 C2.06412117,2.53613421 0.42612117,3.51195643 0.110647486,4.16364532 C-0.205299883,4.8158231 0.0234895909,1.77248977 2.56764749,0.641689768 C4.4031738,-0.0329768984 5.02512117,0.000267546019 6.54470012,0.000267546019 C8.06427906,0.000267546019 8.53227906,0.907156435 8.31106854,1.65026755" id="Fill-1" fill="#333433"></path>
            <path d="M18.05184,1.65026755 C18.05184,1.65026755 18.5548926,3.45328977 20.1341558,3.09640088 C20.9057873,2.92235643 21.0417347,1.89471199 23.5195768,2.35573421 C24.2987873,2.53613421 25.9367873,3.51195643 26.252261,4.16364532 C26.5682084,4.8158231 26.3394189,1.77248977 23.795261,0.641689768 C21.9597347,-0.0329768984 21.3377873,0.000267546019 19.8182084,0.000267546019 C18.2986294,0.000267546019 17.8306294,0.907156435 18.05184,1.65026755" id="Fill-3" fill="#333433"></path>
            <path d="M6,9 C6,10.6568785 5.10453816,12 3.99983098,12 C2.89512381,12 2,10.6568785 2,9 C2,7.34312148 2.89512381,6 3.99983098,6 C5.10453816,6 6,7.34312148 6,9" id="Fill-5" fill="#333433"></path>
            <path d="M24,9 C24,10.6568785 23.1048762,12 22.000169,12 C20.8951238,12 20,10.6568785 20,9 C20,7.34312148 20.8951238,6 22.000169,6 C23.1048762,6 24,7.34312148 24,9" id="Fill-7" fill="#333433"></path>
            <path d="M13.0197368,12.0692 C13.8586316,11.9552889 15.9802632,13.8262667 15.9802632,13.8262667 C15.9802632,13.8262667 16.0825789,13.4116889 15.6396842,12.5884 C15.1626842,11.7025333 12.9903684,11 12.9903684,11 C12.9903684,11 11.3026316,11.4478222 10.5030526,12.6040444 C10.207,12.8939556 10,13.9025333 10,13.9025333 C10,13.9025333 11.8947368,12.2217333 13.0197368,12.0692 Z" id="Fill-9" fill="#EEAC6C"></path>
            <g id="Group-13" transform="translate(6.000000, 15.000000)">
                <mask id="mask-2" fill="white">
                    <use xlink:href="#path-1"></use>
                </mask>
                <g id="Clip-12"></g>
                <path d="M0.199373684,0.696031111 C0.199373684,0.696031111 7.09763684,3.90412 13.3734789,0.299053333 C13.3734789,0.299053333 11.9822684,5.76825333 7.42305789,5.86016444 C3.30768947,5.98238667 2.43942632,4.36807556 1.94632105,3.90412 C1.45274211,3.44114222 0.524794737,2.13238667 0.199373684,0.696031111" id="Fill-11" fill="#EEAC6C" mask="url(#mask-2)"></path>
            </g>
        </g>
    </g>
</svg>