<?xml version="1.0" encoding="UTF-8"?>
<svg width="120px" height="120px" viewBox="0 0 120 120" version="1.1" xmlns="http://www.w3.org/2000/svg" xmlns:xlink="http://www.w3.org/1999/xlink">
    <!-- Generator: Sketch 51.1 (57501) - http://www.bohemiancoding.com/sketch -->
    <title>Electric eggbeater2</title>
    <desc>Created with Sketch.</desc>
    <defs></defs>
    <g id="Electric-eggbeater2" stroke="none" stroke-width="1" fill="none" fill-rule="evenodd">
        <g id="Group" transform="translate(0.000000, 28.000000)">
            <path d="M109.795576,8.85069124 C109.366452,8.42654378 108.877604,8.12239631 108.378249,7.9675576 C107.616774,7.61253456 106.856406,7.57327189 106.206083,7.85364055 C105.819539,7.42506912 105.427465,7.01364055 105.033733,6.6243318 C97.7823041,-0.529769585 90.1725346,-0.0901382488 85.0650691,1.54009217 C77.4691244,3.96110599 69.7863594,11.2031336 69.4628571,11.5100461 C69.3047005,11.6599078 69.2206452,11.8717051 69.2328111,12.0906912 C69.2466359,12.3417512 69.2643318,12.59447 69.2842396,12.8477419 L66.836129,13.9891244 C66.5646083,14.1157604 66.3948387,14.3939171 66.4086636,14.6936406 L66.481659,16.4836866 C66.484424,16.5439631 66.4943779,16.6053456 66.5115207,16.6634101 C66.5187097,16.6877419 67.1889401,18.9483871 68.2993548,21.9472811 L38.9032258,35.5935484 C38.8661751,35.5454378 38.8263594,35.4989862 38.7815668,35.4552995 L34.6141935,31.3426728 C34.557788,31.2486636 34.4919816,31.1629493 34.4151152,31.0882949 C34.3404608,31.0136406 34.2547465,30.9500461 34.1657143,30.8991705 C33.7681106,30.6724424 33.2776037,30.6846083 32.8905069,30.9174194 C30.4711521,31.5207373 14.157788,35.7334562 2.41714286,42.2195392 C2.38396313,42.237788 2.35133641,42.2593548 2.32147465,42.2831336 L2.26175115,42.3323502 C2.22414747,42.358894 2.14728111,42.4141935 2.07373272,42.5015668 C1.95760369,42.6359447 -0.734930876,45.8820276 1.0075576,52.1928111 C1.52626728,54.0713364 2.48294931,55.7082028 3.85050691,57.0591705 C6.23336406,59.4099539 9.04645161,60.0591705 9.17308756,60.0868203 C9.26267281,60.1061751 9.33511521,60.1061751 9.33290323,60.1039631 C9.39317972,60.1105991 9.45179724,60.1128111 9.50543779,60.1105991 C9.62322581,60.1039631 9.72110599,60.0790783 9.78304147,60.0619355 C9.82617512,60.0503226 9.86764977,60.0387097 9.90193548,60.0254378 C9.9356682,60.0143779 9.96718894,60.001659 9.99705069,59.9883871 L37.8901382,46.3946544 C38.2374194,46.2248848 38.4934562,45.8969585 38.5736406,45.5192627 L39.9500461,39.0248848 C39.9799078,38.88553 39.9854378,38.7406452 39.964424,38.5946544 C39.9743779,38.4624885 39.9743779,38.3258986 39.96553,38.1837788 L69.3113364,24.5601843 C71.278894,29.4204608 73.2558525,33.0464516 75.1918894,35.3474654 C76.2541935,37.9504147 77.4387097,40.6141935 78.8101382,43.4858986 L78.8145622,43.4986175 C79.0473733,43.9835945 79.2779724,44.4630415 79.5096774,44.9386175 C79.5096774,44.9386175 79.9896774,45.9190783 80.2003687,46.3443318 C80.2003687,46.3443318 80.6897696,47.3253456 80.8927189,47.7295853 C80.8927189,47.7295853 81.3743779,48.6846083 81.5701382,49.0672811 L82.2398157,50.3740092 L82.9050691,51.6613825 L84.7791705,55.2647005 C84.7791705,55.2647005 85.6407373,56.9341935 85.799447,57.2460829 C86.8103226,59.2357604 87.8051613,60.6995392 88.8387097,61.7198157 C92.6571429,65.4862673 97.0302304,63.3904147 104.272258,59.9170507 C105.327373,59.4099539 106.454378,58.8696774 107.67871,58.2984332 C117.223963,53.518894 120.91023,44.6117972 118.359816,32.518341 C118.876866,32.1428571 119.247373,31.5384332 119.406083,30.7896774 C119.469677,30.603871 119.520553,30.4081106 119.555945,30.1968664 L119.573641,30.0796313 C119.783779,29.2894009 119.713548,28.3786175 119.371797,27.5093088 C119.136221,26.9098618 118.788387,26.3729032 118.364793,25.9548387 C118.071705,25.6661751 117.753733,25.442212 117.417512,25.2901382 C116.975668,25.0114286 116.507281,24.8560369 116.047189,24.8311521 C115.902857,24.4567742 115.751336,24.0768664 115.595392,23.6958525 C116.11023,23.2551152 116.428756,22.5754839 116.490691,21.7647926 C116.531613,21.5717972 116.554839,21.3660829 116.563134,21.121106 L116.565346,21.0337327 C116.668203,20.2235945 116.476866,19.3327189 116.024516,18.5176037 C115.804424,18.121106 115.537327,17.76553 115.228203,17.4619355 C114.798525,17.037788 114.31023,16.7341935 113.810323,16.5799078 C113.203134,16.2962212 112.594839,16.2138249 112.042949,16.3354839 C111.638157,15.6105069 111.22341,14.8982488 110.80424,14.2081106 C110.943594,13.8923502 111.029309,13.5356682 111.059171,13.1535484 C111.098986,12.961106 111.122212,12.7542857 111.131613,12.5082028 L111.132719,12.4213825 C111.235023,11.6117972 111.045346,10.7214747 110.591889,9.90580645 C110.37235,9.50986175 110.104147,9.15428571 109.795576,8.85069124 Z M109.270783,9.37493088 C109.270783,9.37548387 109.271336,9.37548387 109.271336,9.37548387 C109.52129,9.62267281 109.75023,9.92239631 109.940461,10.2641475 C110.348571,11.0001843 110.493456,11.7815668 110.38894,12.4169585 C110.38894,12.6409217 110.36682,12.8554839 110.321475,13.0551152 C110.292166,13.5085714 110.164977,13.9133641 109.943779,14.2263594 C110.524424,15.1670046 111.116682,16.1828571 111.707281,17.2634101 C111.735484,17.2457143 111.763134,17.2291244 111.792442,17.2119816 C112.302304,16.9299539 112.932166,16.9725346 113.544332,17.2728111 C113.939724,17.3850691 114.342857,17.6317051 114.701751,17.9861751 C114.702304,17.9861751 114.702304,17.9861751 114.70341,17.9867281 C114.70341,17.9872811 114.70341,17.9872811 114.70341,17.9872811 C114.951152,18.2317051 115.178433,18.5275576 115.367558,18.8670968 C115.369217,18.8698618 115.370876,18.8731797 115.372535,18.8764977 C115.781198,19.6130876 115.926083,20.395576 115.821014,21.0315207 C115.821014,21.2532719 115.797788,21.4656221 115.754101,21.6630415 C115.70765,22.3935484 115.407373,22.9985253 114.869862,23.2971429 C114.802949,23.3341935 114.734931,23.3651613 114.665253,23.3905991 C114.968295,24.1139171 115.261935,24.8499539 115.541751,25.5959447 C116.035023,25.4764977 116.577512,25.6136406 117.077419,25.9476498 C117.341751,26.0626728 117.6,26.2418433 117.837788,26.4763134 C117.837788,26.4774194 117.837788,26.4774194 117.837788,26.4774194 L117.838894,26.4774194 L117.839447,26.4779724 C118.17788,26.8130876 118.472627,27.2560369 118.677235,27.7786175 C118.986359,28.563871 119.025622,29.3585253 118.837604,29.9745622 C118.808848,30.1935484 118.757972,30.4003687 118.688295,30.5911521 C118.546175,31.3094931 118.168479,31.8691244 117.59447,32.0947465 C117.567926,32.1052535 117.539724,32.1152074 117.512074,32.1240553 C119.242396,39.8211982 118.776221,47.7882028 113.122396,53.522212 C111.595023,55.0711521 109.687742,56.4580645 107.343594,57.6320737 C97.8752074,62.0494009 93.3096774,65.0864516 89.3585253,61.1878341 C88.3764055,60.2184332 87.4313364,58.8204608 86.4586175,56.9082028 C83.7992627,51.6774194 79.4173272,43.7635023 75.8305991,34.9587097 C73.4167742,32.1312442 71.2584332,27.483871 69.7072811,23.5537327 C69.6956682,23.5592627 69.6851613,23.5658986 69.6729954,23.5703226 L39.1515207,37.7397235 C39.2283871,38.0698618 39.2488479,38.3767742 39.2167742,38.6311521 C39.236682,38.7080184 39.238341,38.7887558 39.2211982,38.8678341 L37.8447926,45.362765 C37.8110599,45.5209217 37.7065438,45.6547465 37.561659,45.724977 L9.66912442,59.3181567 C9.56239631,59.3701382 9.44073733,59.3845161 9.32516129,59.3585253 C9.21511521,59.3330876 6.60165899,58.7303226 4.37032258,56.5282949 C3.09677419,55.2707834 2.20479263,53.7445161 1.72147465,51.9926267 C0.0823963134,46.0578802 2.52995392,43.1054378 2.63557604,42.9821198 C2.6764977,42.9345622 2.72571429,42.8941935 2.77990783,42.8637788 C14.6040553,36.3323502 31.0672811,32.1317972 33.1885714,31.6064516 C33.3517051,31.4610138 33.595023,31.4278341 33.7952074,31.5423041 C33.836682,31.5660829 33.8742857,31.5942857 33.9063594,31.6263594 C33.958894,31.677788 33.9987097,31.7386175 34.0247005,31.8060829 L38.2578802,35.9823041 C38.3153917,36.0387097 38.3579724,36.1072811 38.3850691,36.1835945 C38.4741014,36.2870046 38.5609217,36.4031336 38.642765,36.5303226 L69.120553,22.3819355 C69.1592627,22.3636866 69.1985253,22.3493088 69.237788,22.3393548 C67.9758525,19.0070046 67.2226728,16.4510599 67.2226728,16.4510599 L67.20553,16.0556682 L67.1480184,14.6610138 L70.0589862,13.3023041 C70.0241475,12.8825806 69.9953917,12.4645161 69.9721659,12.0470046 C69.9804608,12.0398157 77.7716129,4.64184332 85.2884793,2.24516129 C91.5107834,0.261013825 98.3447005,1.06396313 104.510599,7.14746544 C105.034839,7.66506912 105.552995,8.21917051 106.067281,8.81419355 C106.154654,8.73179724 106.252535,8.66046083 106.359816,8.60018433 C106.362028,8.59963134 106.363134,8.59797235 106.365346,8.59741935 C106.875207,8.31760369 107.502304,8.36184332 108.112811,8.66156682 C108.508203,8.77382488 108.910783,9.01990783 109.269124,9.37437788 C109.269677,9.37493088 109.269677,9.37493088 109.269677,9.37493088 L109.270783,9.37493088 Z M107.142304,23.2363134 C106.400737,22.5052535 105.5353,21.8997235 104.559816,21.5646083 C103.019171,21.2173272 101.612903,21.7830415 100.418433,22.7076498 C99.0110599,23.8943779 97.8176959,25.5976037 97.1800922,26.7085714 C96.8571429,27.2731797 96.5596313,27.8482949 96.2853456,28.4317051 C95.4442396,30.4910599 94.7668203,32.3612903 94.2232258,34.0661751 C94.0468203,34.6689401 93.8770507,35.27447 93.7105991,35.880553 C92.8258065,39.1006452 92.2401843,42.4401843 92.1030415,45.7858065 C92.0726267,47.1754839 92.1223963,48.4130876 92.1666359,49.5804608 C92.2882949,50.9789862 92.521106,52.0888479 92.8147465,52.9343779 C93.1266359,53.6593548 93.5037788,54.1564977 93.842212,54.4905069 C94.1684793,54.8123502 94.4588018,54.9832258 94.6202765,55.0628571 C94.7402765,55.0661751 94.8575115,55.0435023 94.9714286,54.9976037 L95.403318,54.9323502 C95.403318,54.9323502 104.151705,51.5386175 107.537696,49.7236866 C110.923134,47.9093088 116.080922,43.3028571 111.738802,31.4101382 C110.962949,29.284977 109.885714,27.0796313 108.676313,25.1651613 C108.249954,24.4899539 107.736221,23.8224885 107.142304,23.2363134 Z M94.2221198,53.7301382 C93.3505991,52.8691244 92.5653456,50.5526267 92.6200922,46.4178802 C92.6599078,42.9384332 93.236129,39.4517972 94.1557604,36.1017512 C94.9719816,33.1288479 95.8733641,30.1775115 97.4156682,27.4860829 C98.4978802,25.5970507 101.292719,21.8870046 103.897327,22.5218433 C104.998894,22.7894931 105.964424,23.4270968 106.772903,24.2245161 C107.330876,24.7747465 107.814194,25.4023963 108.215115,26.037235 C109.349862,27.83447 110.361843,29.9059908 111.090691,31.9023041 C115.170138,43.0739171 110.324793,47.401106 107.144516,49.1054378 C103.963687,50.8097696 95.7461751,53.998341 95.7461751,53.998341 L95.3397235,54.0591705 C94.9913364,54.2012903 94.5981567,54.1006452 94.2221198,53.7301382 Z M36.9837788,36.1979724 L33.7034101,32.9623963 C33.4943779,33.6182488 33.2704147,34.7109677 33.4075576,36.1708756 L36.9837788,36.1979724 Z M34.1131797,35.4353917 C34.1065438,35.0748387 34.1236866,34.7458065 34.1563134,34.4499539 L35.162212,35.4425806 L34.1131797,35.4353917 Z M32.6549309,32.8219355 C28.7292166,33.8328111 14.1323502,37.8138249 3.38267281,43.7292166 C3.06635945,44.1682949 1.3802765,46.8176959 2.73124424,51.7139171 C3.16589862,53.2866359 3.96497696,54.6541935 5.10635945,55.7823041 C6.80792627,57.4606452 8.79926267,58.1236866 9.38488479,58.2901382 L36.4534562,45.0984332 C35.5946544,44.041659 34.9034101,43.0318894 34.3504147,42.0729954 L7.63907834,56.9104147 C7.43115207,57.0254378 7.17788018,56.9834101 7.01640553,56.8247005 C6.98211982,56.7904147 6.95115207,56.7505991 6.92626728,56.7052535 C6.78580645,56.4525346 6.87760369,56.1345622 7.12976959,55.9929954 L33.8516129,41.1511521 C33.6127189,40.677788 33.4086636,40.2199078 33.2339171,39.7758525 L4.86138249,52.9913364 C4.65732719,53.0864516 4.42285714,53.039447 4.2718894,52.8901382 C4.22820276,52.8470046 4.19170507,52.796129 4.16460829,52.7386175 C4.04294931,52.4753917 4.15631336,52.1635023 4.41843318,52.0418433 L32.883318,38.7826728 C32.7511521,38.3612903 32.6460829,37.9548387 32.5653456,37.564977 L3.56073733,48.5673733 C3.36331797,48.6414747 3.14764977,48.5894931 3.00663594,48.4501382 C2.95410138,48.3987097 2.91317972,48.3356682 2.88497696,48.2637788 C2.78211982,47.9928111 2.91815668,47.6897696 3.18857143,47.5869124 L32.3933641,36.5093088 C32.2058986,34.8945622 32.4171429,33.6398157 32.6549309,32.8219355 Z M4.21382488,46.4062673 C4.10930876,45.3937327 4.14359447,44.6162212 4.19391705,44.1373272 C13.918894,38.8860829 26.5537327,35.2175115 31.682765,33.8477419 C31.5970507,34.4588018 31.5539171,35.1859908 31.6064516,36.0149309 L4.21382488,46.4062673 Z M7.67281106,54.844424 C7.24423963,54.2527189 6.85050691,53.6532719 6.49769585,53.0516129 L32.8540092,40.7756682 L32.884977,40.8431336 L7.67281106,54.844424 Z M9.71723502,57.3058065 C9.57290323,57.1520737 9.43133641,56.998341 9.29364055,56.8435023 L34.0882949,43.0728111 C34.4521659,43.6556682 34.8602765,44.2446083 35.3070968,44.8341014 L9.71723502,57.3058065 Z M5.36294931,50.7848848 C5.10414747,50.1660829 4.88626728,49.5461751 4.70875576,48.9295853 L29.7002765,39.4490323 L5.36294931,50.7848848 Z M37.0739171,37.2470046 L33.5607373,37.2199078 C33.6337327,37.5870968 33.7282949,37.9725346 33.8516129,38.3762212 L37.084424,37.2901382 C37.08,37.2757604 37.076682,37.2608295 37.0739171,37.2470046 Z M38.1080184,39.0685714 C38.0676498,39.0364977 38.0294931,39.002212 37.9902304,38.9646083 L35.4458986,41.4436866 C35.4121659,41.4763134 35.3751152,41.5039631 35.3341935,41.5271889 L35.2661751,41.5647926 C35.7389862,42.3810138 36.3207373,43.2425806 37.0313364,44.1439631 L38.1080184,39.0685714 Z M36.6508756,42.3688479 C36.5043318,42.1526267 36.363318,41.9364055 36.2289401,41.7223963 L36.9340092,41.03447 L36.6508756,42.3688479 Z M37.0645161,38.401659 L34.196682,39.3660829 C34.3576037,39.7758525 34.5467281,40.201106 34.7673733,40.6412903 L37.0645161,38.401659 Z" id="Fill-1181" fill="#352C1F"></path>
            <path d="M3.38267281,43.7292166 C3.06635945,44.1682949 1.3802765,46.8176959 2.73124424,51.7139171 C3.16589862,53.2866359 3.96497696,54.6541935 5.10635945,55.7823041 C6.80792627,57.4606452 8.79926267,58.1236866 9.38488479,58.2901382 L36.8720737,44.8949309 L38.1666359,38.7915207 L37.4333641,36.6420276 L33.3760369,32.639447 C31.0589862,33.2156682 14.9817512,37.3476498 3.38267281,43.7292166 Z M4.37032258,56.5282949 C3.09677419,55.2707834 2.20479263,53.7445161 1.72147465,51.9926267 C0.0823963134,46.0578802 2.52995392,43.1054378 2.63557604,42.9821198 C2.6764977,42.9345622 2.72571429,42.8941935 2.77990783,42.8637788 C15.3760369,35.9059908 33.236129,31.5931797 33.4152995,31.5500461 C33.5911521,31.5080184 33.7758525,31.56 33.9047005,31.6866359 L38.2578802,35.9823041 C38.3153917,36.0387097 38.3585253,36.1089401 38.3856221,36.1858065 L39.2051613,38.5891244 C39.235576,38.6792627 39.241106,38.7749309 39.2211982,38.8678341 L37.8447926,45.362765 C37.8110599,45.5209217 37.7065438,45.6547465 37.561659,45.724977 L9.66912442,59.3181567 C9.56239631,59.3701382 9.44073733,59.3845161 9.32516129,59.3585253 C9.21511521,59.3330876 6.60165899,58.7303226 4.37032258,56.5282949 Z" id="Fill-1182" fill="#8677AA"></path>
            <path d="M3.00663594,48.4501382 C2.95410138,48.3987097 2.91317972,48.3356682 2.88497696,48.2637788 C2.78211982,47.9928111 2.91815668,47.6897696 3.18857143,47.5869124 L33.1963134,36.2046083 C33.2565899,36.1808295 33.3212903,36.1703226 33.3859908,36.1703226 L37.6490323,36.2029493 C37.9382488,36.2051613 38.1705069,36.4418433 38.1682949,36.7310599 C38.1671889,37.0213825 37.9299539,37.2536406 37.6401843,37.2514286 L33.476682,37.2193548 L3.56073733,48.5673733 C3.36331797,48.6414747 3.14764977,48.5894931 3.00663594,48.4501382" id="Fill-1183" fill="#8677AA"></path>
            <path d="M9.07078341,59.2202765 L9.06801843,59.2169585 C0.746543779,50.881106 2.44866359,43.5063594 2.52497696,43.196682 C2.59410138,42.9152074 2.87834101,42.7437788 3.15926267,42.8140092 C3.44018433,42.8825806 3.6116129,43.1668203 3.54359447,43.4471889 C3.52645161,43.5179724 1.93105991,50.5852535 9.81013825,58.4764977 C10.0152995,58.681106 10.0141935,59.0129032 9.80903226,59.2180645 C9.60552995,59.4215668 9.2759447,59.4215668 9.07078341,59.2202765" id="Fill-1184" fill="#8677AA"></path>
            <path d="M4.2718894,52.8901382 C4.22820276,52.8470046 4.19170507,52.796129 4.16460829,52.7386175 C4.04294931,52.4753917 4.15631336,52.1635023 4.41843318,52.0418433 L33.48553,38.5017512 L33.5391705,38.4807373 L37.9459908,36.9998157 C38.2208295,36.9074654 38.518894,37.0556682 38.6101382,37.3294009 C38.7024885,37.6042396 38.5559447,37.9011982 38.280553,37.9929954 L33.9013825,39.4650691 L4.86138249,52.9913364 C4.65732719,53.0864516 4.42285714,53.039447 4.2718894,52.8901382" id="Fill-1185" fill="#8677AA"></path>
            <path d="M7.01640553,56.8247005 C6.98211982,56.7904147 6.95115207,56.7505991 6.92626728,56.7052535 C6.78580645,56.4525346 6.87760369,56.1345622 7.12976959,55.9929954 L34.7640553,40.6435023 L37.9050691,37.5832258 C38.1124424,37.3808295 38.4447926,37.3885714 38.6466359,37.5931797 C38.8479263,37.799447 38.8435023,38.1317972 38.637235,38.3341935 L35.4458986,41.4436866 C35.4121659,41.4763134 35.3751152,41.5039631 35.3341935,41.5271889 L7.63907834,56.9104147 C7.43115207,57.0254378 7.17788018,56.9834101 7.01640553,56.8247005" id="Fill-1186" fill="#8677AA"></path>
            <path d="M36.8715207,45.597235 L36.838894,45.5629493 C29.9557604,37.4527189 32.9496774,31.9681106 33.0801843,31.7386175 C33.2239631,31.4864516 33.5435945,31.3990783 33.7952074,31.5423041 C34.0490323,31.684424 34.1347465,32.0046083 33.9931797,32.2556682 C33.8787097,32.4613825 31.2619355,37.3714286 37.6385253,44.884424 C37.8248848,45.1050691 37.798894,45.4357604 37.5782488,45.6232258 C37.3692166,45.8007373 37.0623041,45.7858065 36.8715207,45.597235" id="Fill-1187" fill="#8677AA"></path>
            <path d="M38.8412903,39.2759447 C38.3729032,39.4672811 37.6661751,38.8263594 37.2647005,37.8436866 C36.8621198,36.8615668 36.9168664,35.9093088 37.3852535,35.7179724 C37.8541935,35.5260829 38.5603687,36.1664516 38.9623963,37.1491244 C39.364424,38.1312442 39.3102304,39.0835023 38.8412903,39.2759447" id="Fill-1188" fill="#F4D47B"></path>
            <path d="M38.2302304,36.358341 C37.9902304,36.121659 37.7375115,36.0138249 37.5395392,36.0951152 C37.1706912,36.2460829 37.1281106,36.9953917 37.444977,37.7701382 C37.5920737,38.1295853 37.7894931,38.4304147 37.9968664,38.635023 C38.2368664,38.8717051 38.4895853,38.9789862 38.6870046,38.8976959 C38.9574194,38.7876498 39.0525346,38.3563134 38.9601843,37.8287558 L38.638894,37.9775115 C38.3706912,38.1030415 38.0648848,38.044424 37.8735484,37.8552995 C37.8210138,37.802765 37.7767742,37.7408295 37.7441475,37.6705991 C37.5920737,37.3426728 37.7447005,36.9478341 38.0870046,36.7891244 L38.4514286,36.6199078 C38.3800922,36.5209217 38.3065438,36.4324424 38.2302304,36.358341" id="Fill-1189" fill="#EEB64D"></path>
            <path d="M38.638894,37.9775115 C38.2965899,38.1367742 37.8956682,37.9990783 37.7441475,37.6705991 C37.5920737,37.3426728 37.7447005,36.9478341 38.0870046,36.7891244 L69.120553,22.3819355 C69.4623041,22.2232258 69.8632258,22.3603687 70.0152995,22.6888479 C70.1679263,23.0162212 70.0147465,23.4116129 69.6729954,23.5703226 L38.638894,37.9775115" id="Fill-1190" fill="#8677AA"></path>
            <path d="M65.756682,24.48553 C65.7102304,24.4390783 65.636129,24.4235945 65.5730876,24.4534562 L45.3848848,33.7133641 C45.3035945,33.7520737 45.2665438,33.8494009 45.3047005,33.9312442 C45.3129954,33.9500461 45.3246083,33.96553 45.3384332,33.9799078 C45.3848848,34.0263594 45.4578802,34.0407373 45.5214747,34.0114286 L65.7102304,24.7504147 C65.7926267,24.7128111 65.8285714,24.6154839 65.7915207,24.5330876 C65.7826728,24.5142857 65.7710599,24.4982488 65.756682,24.48553" id="Fill-1191" fill="#9B8EB6"></path>
            <path d="M30.8057143,32.5271889 C30.7719816,32.4934562 30.722765,32.4790783 30.6752074,32.4940092 L18.2283871,36.4269124 L8.75612903,40.2436866 C8.68921659,40.2707834 8.65658986,40.3470968 8.68368664,40.4134562 L8.71354839,40.4582488 C8.74949309,40.4936406 8.80423963,40.5063594 8.85456221,40.4864516 L18.3174194,36.6741014 L30.7537327,32.7445161 C30.8223041,32.7229493 30.8610138,32.6494009 30.838341,32.5791705 C30.8322581,32.5587097 30.8200922,32.5404608 30.8057143,32.5271889" id="Fill-1192" fill="#9B8EB6"></path>
            <path d="M32.039447,36.8726267 C32.0046083,36.838341 31.9504147,36.8245161 31.9011982,36.843871 L11.522212,44.7185253 C11.4541935,44.7445161 11.4204608,44.8197235 11.4470046,44.8877419 L11.4768664,44.9336406 C11.5122581,44.9690323 11.5664516,44.9811982 11.6162212,44.9629493 L31.9952074,37.0882949 C32.0621198,37.0617512 32.0958525,36.9859908 32.0704147,36.9190783 C32.0626728,36.9002765 32.0527189,36.8853456 32.039447,36.8726267" id="Fill-1193" fill="#9B8EB6"></path>
            <path d="M32.3817512,39.3262673 C32.3430415,39.2886636 32.284424,39.2764977 32.2335484,39.3008295 L13.7590783,47.9496774 C13.6938249,47.9806452 13.6661751,48.0591705 13.6954839,48.124424 L13.7220276,48.1620276 C13.7607373,48.1996313 13.8188018,48.2112442 13.8702304,48.1869124 L32.3435945,39.5380645 C32.4094009,39.5070968 32.4376037,39.4296774 32.4077419,39.363871 C32.401106,39.3500461 32.3917051,39.3367742 32.3817512,39.3262673" id="Fill-1194" fill="#9B8EB6"></path>
            <path d="M32.9546544,42.0088479 C32.9142857,41.9690323 32.8512442,41.9590783 32.7998157,41.9883871 L15.0746544,51.837235 C15.0110599,51.8726267 14.9883871,51.9522581 15.0237788,52.0152995 L15.0458986,52.0451613 C15.0857143,52.084424 15.1498618,52.0954839 15.2018433,52.0661751 L32.9258986,42.2173272 C32.9894931,42.1819355 33.0121659,42.1017512 32.9778802,42.0392627 C32.9712442,42.0270968 32.9635023,42.0176959 32.9546544,42.0088479" id="Fill-1195" fill="#9B8EB6"></path>
            <path d="M35.5288479,45.9295853 C35.4912442,45.8925346 35.4309677,45.8809217 35.3800922,45.9058065 L16.2160369,55.2547465 C16.1502304,55.2862673 16.1231336,55.3647926 16.1557604,55.4294931 L16.1811982,55.4654378 C16.2193548,55.5030415 16.2796313,55.5152074 16.3299539,55.4897696 L35.4951152,46.1419355 C35.5603687,46.1098618 35.5874654,46.0318894 35.5548387,45.9660829 C35.5482028,45.9522581 35.5393548,45.9400922 35.5288479,45.9295853" id="Fill-1196" fill="#9B8EB6"></path>
            <polyline id="Fill-1197" fill="#E575A3" points="70.1037788 13.2818433 67.1480184 14.6610138 67.20553 16.0556682 70.4477419 14.5288479 70.1037788 13.2818433"></polyline>
            <path d="M76.1828571,35.3563134 L70.4477419,14.5288479 L67.20553,16.0556682 L67.2226728,16.4510599 C67.2226728,16.4510599 71.2047926,29.9529954 76.1828571,35.3563134" id="Fill-1198" fill="#E88EB0"></path>
            <path d="M70.1917051,14.6494009 L67.20553,16.0556682 L67.2226728,16.4510599 C67.2226728,16.4510599 71.0189862,29.3214747 75.8305991,34.9587097 C73.1734562,28.436129 70.9537327,21.4241475 70.1917051,14.6494009 Z M72.243318,28.2165899 C69.5214747,23.1384332 67.7474654,16.4787097 67.7474654,16.4787097 L69.8095853,15.4451613 C68.1826728,16.9083871 72.243318,28.2165899 72.243318,28.2165899 Z" id="Fill-1199" fill="#DD5C87"></path>
            <path d="M107.537696,49.7236866 C104.151705,51.5386175 95.403318,54.9323502 95.403318,54.9323502 L94.9714286,54.9976037 C93.7393548,55.5002765 91.9935484,53.164424 92.0753917,46.8630415 C92.1179724,43.1579724 92.7312442,39.4468203 93.7105991,35.880553 C94.5788018,32.7146544 95.5399078,29.5736406 97.1800922,26.7085714 C98.3325346,24.6984332 101.307097,20.7489401 104.080922,21.4241475 C106.061751,21.9058065 107.632258,23.5105991 108.676313,25.1651613 C109.885714,27.0796313 110.962949,29.284977 111.738802,31.4101382 C116.080922,43.3028571 110.923134,47.9093088 107.537696,49.7236866 Z M108.269309,11.6654378 C101.220829,1.52018433 92.8086636,-0.153179724 85.2884793,2.24516129 C77.7671889,4.6435023 69.9721659,12.0470046 69.9721659,12.0470046 C70.8873733,28.6589862 81.5756682,47.3032258 86.4586175,56.9082028 C91.3421198,66.5109677 95.52,63.1482028 107.343594,57.6320737 C127.476498,47.5515207 115.318341,21.8112442 108.269309,11.6654378 Z" id="Fill-1200" fill="#ABD18E"></path>
            <path d="M104.559816,21.5646083 C104.403318,21.5104147 104.242949,21.4634101 104.080922,21.4241475 C102.84,21.121659 101.55871,21.7454378 100.418433,22.7076498 C101.612903,21.7830415 103.019171,21.2173272 104.559816,21.5646083 Z M96.2853456,28.4317051 C95.4315207,30.244424 94.7894931,32.1411982 94.2232258,34.0661751 C94.7668203,32.3612903 95.4442396,30.4910599 96.2853456,28.4317051 Z M92.1030415,45.7858065 C92.0886636,46.1447005 92.0792627,46.5035945 92.0753917,46.8630415 C92.0621198,47.8678341 92.0952995,48.7725346 92.1666359,49.5804608 C92.1223963,48.4130876 92.0726267,47.1754839 92.1030415,45.7858065 Z M92.8147465,52.9343779 C93.0956682,53.7384332 93.4318894,54.3024885 93.7813825,54.6481106 C94.0600922,54.9223963 94.3465438,55.0573272 94.6202765,55.0628571 C94.4588018,54.9832258 94.1684793,54.8123502 93.842212,54.4905069 C93.5037788,54.1564977 93.1266359,53.6593548 92.8147465,52.9343779 Z" id="Fill-1201" fill="#252417"></path>
            <path d="M106.167373,21.7354839 C104.131797,19.7264516 100.179539,17.2329954 95.9236866,22.1270046 C89.762212,29.2103226 86.163871,45.1719816 91.1386175,54.5900461 C91.2458986,54.7714286 91.3631336,54.9268203 91.4925346,55.0540092 C92.1539171,55.7059908 93.1332719,55.675576 94.7557604,55.1225806 C94.7557604,55.1225806 94.7059908,55.1059908 94.6202765,55.0628571 C94.3465438,55.0573272 94.0600922,54.9223963 93.7813825,54.6481106 C93.4318894,54.3024885 93.0956682,53.7384332 92.8147465,52.9343779 C92.4807373,52.1541014 92.2224885,51.1100461 92.1710599,49.7192627 C92.1699539,49.6728111 92.1677419,49.6269124 92.1666359,49.5804608 C92.0952995,48.7725346 92.0621198,47.8678341 92.0753917,46.8630415 C92.0792627,46.5035945 92.0886636,46.1447005 92.1030415,45.7858065 C92.1677419,42.8234101 92.5963134,39.1736406 94.2232258,34.0661751 C94.7894931,32.1411982 95.4315207,30.244424 96.2853456,28.4317051 C96.361659,28.2458986 96.4396313,28.0578802 96.5176037,27.8676498 C96.9185253,26.9817512 98.3518894,24.3063594 100.418433,22.7076498 C101.55871,21.7454378 102.84,21.121659 104.080922,21.4241475 C104.242949,21.4634101 104.403318,21.5104147 104.559816,21.5646083 C105.492719,21.7741935 106.475392,22.318894 107.489585,23.3192627 C107.529401,23.3585253 107.568664,23.397788 107.607373,23.4381567 C107.607373,23.4381567 107.080369,22.6352074 106.167373,21.7354839 Z M90.9959447,49.3614747 C90.0680184,48.4462673 88.8326267,45.1620276 90.1896774,37.5472811 C91.3111521,32.0261751 94.4820276,21.3489401 98.2086636,24.2892166 C98.2086636,24.2892166 91.680553,31.8387097 91.796682,49.2580645 C91.8154839,49.6943779 91.440553,49.800553 90.9959447,49.3614747 Z" id="Fill-1202" fill="#7CB861"></path>
            <path d="M104.510599,7.14746544 C98.3447005,1.06396313 91.5107834,0.261013825 85.2884793,2.24516129 C77.7716129,4.64184332 69.9804608,12.0398157 69.9721659,12.0470046 C70.8873733,28.6589862 81.5756682,47.3032258 86.4586175,56.9082028 C87.4313364,58.8204608 88.3764055,60.2184332 89.3585253,61.1878341 C93.3096774,65.0864516 97.8752074,62.0494009 107.343594,57.6320737 C109.687742,56.4580645 111.595023,55.0711521 113.122396,53.522212 C111.595023,55.0711521 109.687742,56.4580645 107.343594,57.6320737 C97.8752074,62.0494009 93.3096774,65.0864516 89.3585253,61.1878341 C88.3764055,60.2184332 87.4313364,58.8204608 86.4586175,56.9082028 C83.8435023,51.7642396 79.56553,44.0278341 76.0130876,35.400553 C77.761659,38.6820276 83.518341,49.5179724 86.2617512,55.1176037 C87.4025806,57.4473733 88.5235023,59.0941935 89.642212,60.1974194 C91.7159447,62.2435023 93.7802765,62.4171429 95.9424885,61.6003687 C99.2693088,60.3434101 97.915576,61.0932719 105.856037,56.9010138 C113.797051,52.7093088 117.583963,46.2591705 117.478894,39.8964055 C117.284793,37.2315207 116.844055,34.5837788 116.23576,32.0112442 C115.939355,31.8752074 115.649032,31.6694931 115.381382,31.4057143 C114.983779,31.0130876 114.636498,30.4916129 114.395945,29.878894 C114.008848,28.8940092 113.982857,27.8964055 114.25659,27.1553917 C114.321843,26.8296774 114.43576,26.5354839 114.59447,26.2916129 C114.264332,25.3100461 113.917051,24.3483871 113.556498,23.4071889 C113.08977,23.27447 112.6153,22.9847005 112.192258,22.5671889 C111.898065,22.2774194 111.629309,21.9257143 111.405899,21.5236866 C110.892719,20.5996313 110.734009,19.6141935 110.908203,18.844424 C110.931982,18.4656221 111.024885,18.121106 111.183594,17.8346544 C110.649954,16.6954839 110.111889,15.6105069 109.584885,14.5918894 C109.53788,14.6256221 109.488664,14.6576959 109.436682,14.6858986 C109.020276,14.9170507 108.522028,14.9297696 108.021014,14.763871 C114.402028,25.7601843 115.926083,38.6095853 115.926083,38.6095853 C117.249954,51.8211982 99.9323502,57.8057143 95.7423041,59.4392627 C93.1775115,60.4390783 91.6490323,60.6691244 89.9452535,58.9880184 C88.8658065,57.9229493 87.715576,56.0914286 86.1870968,53.2031336 C82.2458986,45.7553917 77.037788,33.8676498 74.5045161,24.6182488 C71.9712442,15.3694009 71.0189862,11.6073733 77.2285714,7.17953917 C83.4376037,2.75170507 94.0412903,-0.531981567 101.500645,6.33732719 C101.656037,6.48442396 101.810876,6.63373272 101.964055,6.78470046 C103.21659,8.02064516 104.362949,9.36442396 105.409217,10.7762212 C105.4153,10.5870968 105.437419,10.4040553 105.475023,10.2320737 C105.51318,9.64921659 105.713364,9.14543779 106.067281,8.81419355 C105.552995,8.21917051 105.034839,7.66506912 104.510599,7.14746544" id="Fill-1203" fill="#629C42"></path>
            <path d="M109.943779,14.2263594 C109.843687,14.3684793 109.723687,14.4917972 109.584885,14.5918894 C110.111889,15.6105069 110.649954,16.6954839 111.183594,17.8346544 C111.313548,17.6001843 111.488848,17.404977 111.707281,17.2634101 C111.116682,16.1828571 110.524424,15.1670046 109.943779,14.2263594 Z M114.665253,23.3905991 C114.324055,23.517235 113.943041,23.516682 113.556498,23.4071889 C113.917051,24.3483871 114.264332,25.3100461 114.59447,26.2916129 C114.783041,26.0007373 115.036866,25.7795392 115.349309,25.6567742 C115.411797,25.6324424 115.476498,25.6114286 115.541751,25.5959447 C115.261935,24.8499539 114.968295,24.1139171 114.665253,23.3905991 Z M117.512074,32.1240553 C117.107834,32.2556682 116.665438,32.2070046 116.23576,32.0112442 C116.844055,34.5837788 117.284793,37.2315207 117.478894,39.8964055 C117.583963,46.2591705 113.797051,52.7093088 105.856037,56.9010138 C97.915576,61.0932719 99.2693088,60.3434101 95.9424885,61.6003687 C93.7802765,62.4171429 91.7159447,62.2435023 89.642212,60.1974194 C88.5235023,59.0941935 87.4025806,57.4473733 86.2617512,55.1176037 C83.518341,49.5179724 77.761659,38.6820276 76.0130876,35.400553 C79.56553,44.0278341 83.8435023,51.7642396 86.4586175,56.9082028 C87.4313364,58.8204608 88.3764055,60.2184332 89.3585253,61.1878341 C93.3096774,65.0864516 97.8752074,62.0494009 107.343594,57.6320737 C109.687742,56.4580645 111.595023,55.0711521 113.122396,53.522212 C118.776221,47.7882028 119.242396,39.8211982 117.512074,32.1240553 Z" id="Fill-1204" fill="#316C37"></path>
            <path d="M110.321475,13.0551152 C110.234654,13.441106 110.063779,13.7740092 109.813825,14.0173272 C109.856959,14.0864516 109.900092,14.156682 109.943779,14.2263594 C110.164977,13.9133641 110.292166,13.5085714 110.321475,13.0551152" id="Fill-1205" fill="#192016"></path>
            <path d="M105.409217,10.7762212 C105.390968,11.4387097 105.575668,12.1935484 105.973272,12.9107834 C106.196682,13.31447 106.465438,13.6656221 106.760184,13.9553917 C107.151705,14.3424885 107.588018,14.6195392 108.021014,14.763871 C107.901014,14.5564977 107.779908,14.3524424 107.657143,14.1456221 C107.368479,13.9929954 107.085346,13.7828571 106.82212,13.5240553 C106.82212,13.5235023 106.821567,13.5229493 106.821567,13.5229493 L106.821014,13.5229493 C106.821014,13.5223963 106.821014,13.5223963 106.821014,13.5223963 C106.534562,13.2403687 106.272442,12.9002765 106.052903,12.5109677 C106.050691,12.5076498 106.048479,12.5043318 106.047926,12.4999078 C106.046267,12.4976959 106.044608,12.4954839 106.043502,12.4943779 C106.040184,12.4888479 106.037972,12.484424 106.034654,12.478341 C105.926267,12.2836866 105.833917,12.0857143 105.757051,11.8871889 C105.755945,11.88553 105.755392,11.883318 105.754839,11.881659 C105.626544,11.5504147 105.541935,11.2191705 105.499908,10.8995392 C105.470046,10.8586175 105.440184,10.8176959 105.409217,10.7762212" id="Fill-1206" fill="#56AA66"></path>
            <path d="M105.475023,10.2320737 C105.437419,10.4040553 105.4153,10.5870968 105.409217,10.7762212 C105.440184,10.8176959 105.470046,10.8586175 105.499908,10.8995392 C105.470046,10.6700461 105.462304,10.44553 105.475023,10.2320737 Z M109.427834,14.2894009 C108.905806,14.5437788 108.268756,14.4724424 107.657143,14.1456221 C107.779908,14.3524424 107.901014,14.5564977 108.021014,14.763871 C108.522028,14.9297696 109.020276,14.9170507 109.436682,14.6858986 C109.488664,14.6576959 109.53788,14.6256221 109.584885,14.5918894 C109.531797,14.4906912 109.479816,14.3894931 109.427834,14.2894009 Z" id="Fill-1207" fill="#367B3D"></path>
            <path d="M109.813825,14.0173272 C109.719816,14.1085714 109.6153,14.1887558 109.497512,14.2529032 C109.4953,14.2545622 109.493088,14.2556682 109.48977,14.2573272 C109.481475,14.2606452 109.472627,14.2667281 109.464332,14.2705991 C109.46212,14.2717051 109.460461,14.2722581 109.458802,14.2733641 C109.457143,14.275023 109.454931,14.275576 109.452166,14.277235 C109.443318,14.281659 109.435576,14.284977 109.427834,14.2894009 C109.479816,14.3894931 109.531797,14.4906912 109.584885,14.5918894 C109.723687,14.4917972 109.843687,14.3684793 109.943779,14.2263594 C109.900092,14.156682 109.856959,14.0864516 109.813825,14.0173272" id="Fill-1208" fill="#1A502C"></path>
            <path d="M109.497512,14.2529032 C108.450691,14.8341014 106.901198,14.039447 106.034654,12.478341 C105.168664,10.917235 105.314101,9.18193548 106.359816,8.60018433 C107.407742,8.01953917 108.957235,8.81419355 109.823779,10.3752995 C110.690876,11.9364055 110.543779,13.6711521 109.497512,14.2529032" id="Fill-1209" fill="#DC403C"></path>
            <path d="M109.713733,13.924424 C108.667465,14.5050691 107.117419,13.7104147 106.250876,12.1498618 C105.614378,11.0040553 105.525899,9.76645161 105.936221,8.95907834 C105.2953,9.72608295 105.303594,11.162765 106.034654,12.478341 C106.901198,14.039447 108.450691,14.8341014 109.497512,14.2529032 C109.776221,14.0975115 109.988571,13.8597235 110.137327,13.5666359 C110.017327,13.7098618 109.877972,13.8326267 109.713733,13.924424" id="Fill-1210" fill="#EAA46E"></path>
            <path d="M106.250876,12.1498618 C107.117419,13.7104147 108.667465,14.5050691 109.713733,13.924424 C109.877972,13.8326267 110.017327,13.7098618 110.137327,13.5666359 C110.54765,12.7581567 110.459724,11.520553 109.823779,10.3752995 C108.957235,8.81419355 107.407742,8.01953917 106.359816,8.60018433 C106.195576,8.69253456 106.055668,8.81474654 105.936221,8.95907834 C105.525899,9.76645161 105.614378,11.0040553 106.250876,12.1498618" id="Fill-1211" fill="#F4D47B"></path>
            <path d="M109.662857,13.5660829 C108.771429,14.0599078 107.452535,13.3847005 106.714286,12.0547465 C105.976037,10.7264516 106.099908,9.24829493 106.991889,8.75336406 C107.881659,8.25898618 109.203318,8.93585253 109.940461,10.2641475 C110.678157,11.5929954 110.553733,13.0711521 109.662857,13.5660829" id="Fill-1212" fill="#E88EB0"></path>
            <path d="M109.270783,9.37493088 C109.270783,9.37548387 109.271336,9.37548387 109.271336,9.37548387 C109.271336,9.37548387 109.270783,9.37548387 109.270783,9.37493088 Z M109.269124,9.37437788 C108.910783,9.01990783 108.508203,8.77382488 108.112811,8.66156682 C108.508203,8.77382488 108.910783,9.01990783 109.269124,9.37437788 Z" id="Fill-1213" fill="#2F1916"></path>
            <path d="M108.112811,8.66156682 C107.722949,8.54986175 107.339724,8.56866359 107.013456,8.74175115 C107.339724,8.56866359 107.722949,8.54986175 108.112811,8.66156682 Z M107.007926,8.74451613 C107.007926,8.74451613 107.00682,8.74617512 107.005161,8.74617512 C107.00682,8.74617512 107.007373,8.74451613 107.007373,8.74451613 L107.007926,8.74451613 Z M107.00129,8.7483871 C107.000184,8.74894009 106.999631,8.74949309 106.997972,8.75059908 C106.999631,8.74949309 107.000184,8.74894009 107.00129,8.7483871 Z M109.65788,13.5688479 C108.997604,13.9305069 108.102857,13.6534562 107.385069,12.9456221 C108.102857,13.6540092 108.997604,13.9305069 109.65788,13.5688479 Z M106.714286,12.0547465 C106.716498,12.0591705 106.71871,12.0635945 106.720922,12.0674654 C106.71871,12.0635945 106.716498,12.0591705 106.714286,12.0547465 Z" id="Fill-1214" fill="#E67F5F"></path>
            <path d="M109.270783,9.37493088 C109.270783,9.37493088 109.269677,9.37493088 109.269124,9.37437788 C108.910783,9.01990783 108.508203,8.77382488 108.112811,8.66156682 C107.722949,8.54986175 107.339724,8.56866359 107.013456,8.74175115 C107.011244,8.74230415 107.010138,8.74396313 107.007926,8.74451613 C107.007926,8.74451613 107.00682,8.74617512 107.005161,8.74617512 C107.003502,8.74672811 107.002949,8.74728111 107.00129,8.7483871 C107.000184,8.74894009 106.999631,8.74949309 106.997972,8.75059908 C106.99576,8.75115207 106.993548,8.75225806 106.991889,8.75336406 C106.883502,8.81308756 106.786728,8.88829493 106.701567,8.97456221 C106.082765,9.60442396 106.065622,10.8862673 106.714286,12.0547465 C106.716498,12.0591705 106.71871,12.0635945 106.720922,12.0674654 C106.910046,12.4047926 107.136221,12.7000922 107.383963,12.9445161 C107.384516,12.9450691 107.384516,12.9456221 107.384516,12.9456221 C108.102857,13.6534562 108.997604,13.9305069 109.65788,13.5688479 C109.659539,13.5677419 109.661751,13.5666359 109.662857,13.5660829 C109.770691,13.5052535 109.868018,13.4311521 109.95318,13.3448848 C110.570876,12.715576 110.588018,11.4326267 109.940461,10.2641475 C109.75023,9.92239631 109.52129,9.62267281 109.271336,9.37548387 C109.271336,9.37548387 109.270783,9.37548387 109.270783,9.37493088 Z M107.642765,12.5845161 C107.422673,12.3671889 107.221935,12.1028571 107.053825,11.8009217 C106.403502,10.6307834 106.513548,9.32903226 107.297696,8.89271889 C107.880553,8.56921659 108.671336,8.81419355 109.306175,9.44073733 C109.52682,9.65806452 109.728664,9.92184332 109.896221,10.2237788 C110.545438,11.39447 110.435945,12.6956682 109.651797,13.1319816 C109.069493,13.4549309 108.278157,13.2105069 107.642765,12.5845161 Z" id="Fill-1215" fill="#DD5C87"></path>
            <path d="M109.247005,9.59004608 C109.169032,9.51262673 109.079447,9.43631336 108.982673,9.36552995 C108.622673,9.10230415 108.294194,9.01769585 108.251613,9.17640553 C108.220092,9.29364055 108.349493,9.50709677 108.560737,9.71668203 C108.639816,9.79299539 108.729401,9.87096774 108.826728,9.94175115 C109.187834,10.20553 109.514654,10.2895853 109.557788,10.1308756 C109.589309,10.0136406 109.459908,9.80018433 109.247005,9.59004608" id="Fill-1216" fill="#F2C0CF"></path>
            <path d="M115.754101,21.6630415 C115.638525,22.1795392 115.374747,22.5998157 114.968848,22.8409217 C114.968848,22.8420276 114.968295,22.8420276 114.967742,22.8425806 C114.966083,22.8431336 114.96553,22.8442396 114.964424,22.8442396 C114.963871,22.8447926 114.962765,22.8458986 114.961106,22.8470046 L114.959447,22.8475576 C114.957235,22.8492166 114.956129,22.8497696 114.95447,22.8503226 C114.95447,22.8503226 114.95447,22.8503226 114.953917,22.8503226 C114.946175,22.8547465 114.93788,22.8597235 114.929585,22.8641475 C114.925714,22.8669124 114.921843,22.8691244 114.918525,22.8702304 C114.911889,22.8746544 114.905253,22.8779724 114.898065,22.8807373 C114.774747,22.9470968 114.643134,22.9924424 114.50765,23.0206452 C114.560184,23.1434101 114.612719,23.2678341 114.665253,23.3905991 C114.734931,23.3651613 114.802949,23.3341935 114.869862,23.2971429 C115.407373,22.9985253 115.70765,22.3935484 115.754101,21.6630415" id="Fill-1217" fill="#192016"></path>
            <path d="M110.908203,18.844424 C110.734009,19.6141935 110.892719,20.5996313 111.405899,21.5236866 C111.629309,21.9257143 111.898065,22.2774194 112.192258,22.5671889 C112.6153,22.9847005 113.08977,23.27447 113.556498,23.4071889 C113.489585,23.2313364 113.42212,23.0576959 113.354101,22.8823963 C112.9753,22.7292166 112.598157,22.4737327 112.254747,22.1364055 C112.254194,22.1358525 112.254194,22.1352995 112.254194,22.1352995 L112.253641,22.1352995 C112.252535,22.1341935 112.252535,22.1341935 112.252535,22.1336406 C111.966636,21.8516129 111.703963,21.5098618 111.484424,21.120553 C111.482765,21.118341 111.481659,21.116129 111.48,21.1139171 C111.476129,21.1056221 111.470599,21.0984332 111.466728,21.0895853 C111.465069,21.0868203 111.463963,21.0840553 111.462304,21.0812903 C111.462304,21.0807373 111.461198,21.0801843 111.461198,21.0796313 C111.460092,21.0774194 111.458986,21.0752074 111.457327,21.0729954 C111.457327,21.0718894 111.456774,21.0707834 111.456774,21.0702304 C111.455115,21.0680184 111.453456,21.0658065 111.452903,21.0641475 C111.45235,21.0624885 111.451244,21.0619355 111.451244,21.0613825 C111.450138,21.0591705 111.449032,21.0569585 111.447373,21.0547465 C111.447373,21.0547465 111.44682,21.0536406 111.44682,21.0530876 C111.44129,21.0436866 111.437419,21.0353917 111.431889,21.0265438 C111.431889,21.0259908 111.431889,21.0254378 111.431889,21.0243318 C111.43023,21.0226728 111.428571,21.0193548 111.427465,21.0176959 C111.427465,21.0165899 111.427465,21.0160369 111.426359,21.0154839 C111.425253,21.0132719 111.424147,21.0110599 111.421935,21.0088479 C111.421935,21.0082949 111.421935,21.0082949 111.421935,21.0066359 C111.420276,21.003871 111.418618,21.001659 111.417512,20.998894 L111.416959,20.998341 C111.414194,20.9917051 111.410876,20.9867281 111.407005,20.9811982 C111.407005,20.9795392 111.407005,20.9795392 111.407005,20.9778802 C111.405899,20.9762212 111.404793,20.9740092 111.403687,20.9717972 C111.403134,20.9712442 111.402581,20.9695853 111.401475,20.9690323 C111.400922,20.9668203 111.400369,20.9651613 111.39871,20.9640553 C111.398157,20.9623963 111.398157,20.9618433 111.397051,20.9601843 C111.396498,20.9579724 111.394839,20.9568664 111.394839,20.9552074 C111.394286,20.9541014 111.393733,20.9524424 111.39318,20.9507834 C111.392074,20.9491244 111.390968,20.9469124 111.389309,20.9447005 C111.389309,20.9441475 111.388756,20.9424885 111.38765,20.9413825 C111.386544,20.9397235 111.385438,20.9375115 111.384332,20.9352995 C111.383779,20.9330876 111.383226,20.9314286 111.381567,20.9297696 C111.381567,20.9286636 111.381014,20.9275576 111.379908,20.9270046 C111.379355,20.9247926 111.377696,20.9225806 111.377143,20.9203687 L111.375484,20.9192627 C111.375484,20.9164977 111.373825,20.9142857 111.373272,20.9126267 L111.372166,20.9115207 C111.019355,20.2070046 110.866728,19.4781567 110.908203,18.844424" id="Fill-1218" fill="#367B3D"></path>
            <path d="M114.50765,23.0206452 C114.145991,23.0952995 113.74894,23.043318 113.354101,22.8823963 C113.42212,23.0576959 113.489585,23.2313364 113.556498,23.4071889 C113.943041,23.516682 114.324055,23.517235 114.665253,23.3905991 C114.612719,23.2678341 114.560184,23.1434101 114.50765,23.0206452" id="Fill-1219" fill="#1A502C"></path>
            <path d="M114.929585,22.8641475 C113.883318,23.4447926 112.333272,22.6512442 111.466728,21.0895853 C110.600184,19.5290323 110.746728,17.7931797 111.792442,17.2119816 C112.840369,16.6318894 114.389309,17.4248848 115.256406,18.9865438 C116.12129,20.5476498 115.976406,22.2823963 114.929585,22.8641475" id="Fill-1220" fill="#DC403C"></path>
            <path d="M115.146912,22.5351152 C114.099539,23.1163134 112.550046,22.322765 111.682949,20.761659 C111.047558,19.6158525 110.957972,18.3782488 111.369401,17.5703226 C110.727373,18.3384332 110.737327,19.7740092 111.466728,21.0895853 C112.333272,22.6512442 113.883318,23.4447926 114.929585,22.8641475 C115.208295,22.7098618 115.421198,22.4709677 115.569954,22.1784332 C115.450507,22.322212 115.311152,22.444424 115.146912,22.5351152" id="Fill-1221" fill="#EAA46E"></path>
            <path d="M111.682949,20.761659 C112.550046,22.322765 114.099539,23.1163134 115.146912,22.5351152 C115.311152,22.444424 115.450507,22.322212 115.569954,22.1784332 C115.980276,21.3699539 115.89235,20.1329032 115.256406,18.9865438 C114.389309,17.4248848 112.840369,16.6318894 111.792442,17.2119816 C111.628203,17.3037788 111.487742,17.4265438 111.369401,17.5703226 C110.957972,18.3782488 111.047558,19.6158525 111.682949,20.761659" id="Fill-1222" fill="#F4D47B"></path>
            <path d="M115.095484,22.1773272 C114.204055,22.6717051 112.884608,21.9964977 112.145806,20.6659908 C111.408664,19.3376959 111.532535,17.8600922 112.423963,17.3651613 C113.314286,16.8696774 114.635392,17.5470968 115.372535,18.8764977 C116.110783,20.2053456 115.986359,21.6829493 115.095484,22.1773272" id="Fill-1223" fill="#E88EB0"></path>
            <path d="M114.70341,17.9867281 C114.70341,17.9872811 114.70341,17.9872811 114.70341,17.9872811 C114.70341,17.9872811 114.70341,17.9872811 114.70341,17.9867281 Z M114.701751,17.9861751 C114.342857,17.6317051 113.939724,17.3850691 113.544332,17.2728111 C113.939724,17.3850691 114.342857,17.6317051 114.701751,17.9861751 Z M115.367558,18.8670968 C115.369217,18.8698618 115.370876,18.8731797 115.372535,18.8764977 C115.781198,19.6130876 115.926083,20.395576 115.821014,21.0315207 C115.926083,20.395576 115.781198,19.6130876 115.372535,18.8764977 C115.370876,18.8731797 115.369217,18.8698618 115.367558,18.8670968 Z" id="Fill-1224" fill="#2F1916"></path>
            <path d="M113.544332,17.2728111 C113.153917,17.161106 112.771244,17.1804608 112.444977,17.3535484 C112.771244,17.1804608 113.15447,17.161106 113.544332,17.2728111 Z M112.441659,17.3552074 C112.44,17.3557604 112.438341,17.3574194 112.436129,17.3585253 C112.438341,17.3574194 112.44,17.3557604 112.441659,17.3552074 Z M115.088295,22.1806452 C114.428571,22.5423041 113.534931,22.2652535 112.817696,21.5574194 C113.536037,22.2652535 114.428571,22.5423041 115.088295,22.1806452 Z M112.145806,20.6659908 C112.154101,20.6803687 112.160737,20.6925346 112.168479,20.7058065 C112.160737,20.6925346 112.154101,20.6803687 112.145806,20.6659908 Z M112.815484,21.5557604 L112.81659,21.5563134 L112.815484,21.5557604 Z" id="Fill-1225" fill="#E67F5F"></path>
            <path d="M114.70341,17.9867281 C114.702304,17.9861751 114.702304,17.9861751 114.701751,17.9861751 C114.342857,17.6317051 113.939724,17.3850691 113.544332,17.2728111 C113.15447,17.161106 112.771244,17.1804608 112.444977,17.3535484 C112.443318,17.3546544 112.442765,17.3546544 112.441659,17.3552074 C112.44,17.3557604 112.438341,17.3574194 112.436129,17.3585253 C112.431705,17.3607373 112.428387,17.3629493 112.423963,17.3651613 C112.315576,17.4248848 112.219355,17.4995392 112.134194,17.5858065 C111.514839,18.2162212 111.497696,19.4980645 112.145806,20.6659908 C112.154101,20.6803687 112.160737,20.6925346 112.168479,20.7058065 C112.354286,21.0326267 112.574931,21.3185253 112.815484,21.5557604 L112.81659,21.5563134 C112.81659,21.5568664 112.817143,21.5568664 112.817696,21.5574194 C113.534931,22.2652535 114.428571,22.5423041 115.088295,22.1806452 C115.090507,22.1795392 115.093272,22.1784332 115.095484,22.1773272 C115.202212,22.1176037 115.298986,22.0435023 115.3847,21.956129 C115.613641,21.723871 115.759631,21.4031336 115.821014,21.0315207 C115.926083,20.395576 115.781198,19.6130876 115.372535,18.8764977 C115.370876,18.8731797 115.369217,18.8698618 115.367558,18.8670968 C115.178433,18.5275576 114.951152,18.2317051 114.70341,17.9872811 C114.70341,17.9872811 114.70341,17.9872811 114.70341,17.9867281 Z M113.075945,21.1963134 C112.8553,20.9778802 112.653456,20.7146544 112.485899,20.4127189 C111.836129,19.2414747 111.946175,17.9402765 112.730323,17.5050691 C113.312074,17.1815668 114.10341,17.4259908 114.738249,18.0519816 C114.958894,18.2698618 115.160184,18.5336406 115.328295,18.835023 C115.978618,20.0062673 115.868571,21.3080184 115.083318,21.7432258 C114.501567,22.0672811 113.710783,21.8223041 113.075945,21.1963134 Z" id="Fill-1226" fill="#DD5C87"></path>
            <path d="M114.679631,18.2012903 C114.600553,18.124424 114.511521,18.0475576 114.414747,17.9767742 C114.054194,17.7146544 113.72682,17.6294931 113.683687,17.7882028 C113.652719,17.9048848 113.781014,18.118341 113.993917,18.3279263 C114.072442,18.4053456 114.162028,18.482212 114.259355,18.5535484 C114.619908,18.8173272 114.946728,18.9008295 114.990415,18.7426728 C115.020829,18.6254378 114.892535,18.4114286 114.679631,18.2012903" id="Fill-1227" fill="#F2C0CF"></path>
            <path d="M118.688295,30.5911521 C118.517972,31.0534562 118.230968,31.4167742 117.842212,31.6147465 C117.841106,31.6147465 117.841106,31.6152995 117.839447,31.6152995 L117.838894,31.6158525 C117.797972,31.6368664 117.755392,31.6567742 117.711705,31.6728111 C117.707281,31.675023 117.701751,31.677235 117.696221,31.679447 C117.692903,31.68 117.690138,31.681106 117.687373,31.681659 L117.687373,31.682212 C117.602212,31.7142857 117.515945,31.7375115 117.427465,31.7529954 C117.455668,31.8774194 117.483318,31.9996313 117.512074,32.1240553 C117.539724,32.1152074 117.567926,32.1052535 117.59447,32.0947465 C118.168479,31.8691244 118.546175,31.3094931 118.688295,30.5911521" id="Fill-1228" fill="#192016"></path>
            <path d="M114.25659,27.1553917 C113.982857,27.8964055 114.008848,28.8940092 114.395945,29.878894 C114.636498,30.4916129 114.983779,31.0130876 115.381382,31.4057143 C115.649032,31.6694931 115.939355,31.8752074 116.23576,32.0112442 C116.192627,31.8254378 116.148387,31.6418433 116.103041,31.4571429 C115.894562,31.3338249 115.691613,31.1745622 115.500276,30.9865438 C115.500276,30.9854378 115.500276,30.9854378 115.499171,30.9854378 C115.499171,30.9848848 115.499171,30.9848848 115.499171,30.9843318 C115.103779,30.5939171 114.758157,30.0752074 114.517604,29.4669124 C114.516498,29.4635945 114.515392,29.4608295 114.513733,29.4575115 C114.419171,29.2175115 114.347281,28.9780645 114.2953,28.7402765 C114.2953,28.7397235 114.2953,28.7380645 114.294194,28.7369585 C114.294194,28.7358525 114.294194,28.7358525 114.294194,28.7352995 C114.170876,28.1740092 114.162028,27.6298618 114.25659,27.1553917" id="Fill-1229" fill="#367B3D"></path>
            <path d="M117.427465,31.7529954 C116.998341,31.8287558 116.538249,31.7176037 116.103041,31.4571429 C116.148387,31.6418433 116.192627,31.8254378 116.23576,32.0112442 C116.665438,32.2070046 117.107834,32.2556682 117.512074,32.1240553 C117.483318,31.9996313 117.455668,31.8774194 117.427465,31.7529954" id="Fill-1230" fill="#1A502C"></path>
            <path d="M117.711705,31.6728111 C116.599078,32.1118894 115.167373,31.1192627 114.513733,29.4575115 C113.860645,27.7957604 114.235023,26.0947465 115.349309,25.6567742 C116.463041,25.2193548 117.894747,26.2114286 118.547281,27.8726267 C119.199816,29.5343779 118.825991,31.2348387 117.711705,31.6728111" id="Fill-1231" fill="#DC403C"></path>
            <path d="M117.969401,31.3764055 C116.855668,31.8138249 115.425069,30.8217512 114.771429,29.160553 C114.293088,27.9406452 114.367189,26.7019355 114.881475,25.9553917 C114.144885,26.6322581 113.963502,28.0562212 114.513733,29.4575115 C115.167373,31.1192627 116.599078,32.1118894 117.711705,31.6728111 C118.009217,31.556682 118.251429,31.3487558 118.437235,31.077788 C118.300092,31.204424 118.145253,31.3072811 117.969401,31.3764055" id="Fill-1232" fill="#EAA46E"></path>
            <path d="M114.771429,29.160553 C115.425069,30.8217512 116.855668,31.8138249 117.969401,31.3764055 C118.145253,31.3072811 118.300092,31.204424 118.437235,31.077788 C118.951521,30.3301382 119.026728,29.0919816 118.547281,27.8726267 C117.894747,26.2114286 116.463041,25.2193548 115.349309,25.6567742 C115.173456,25.7258986 115.018618,25.8287558 114.881475,25.9553917 C114.367189,26.7019355 114.293088,27.9406452 114.771429,29.160553" id="Fill-1233" fill="#F4D47B"></path>
            <path d="M117.966636,31.0136406 C117.017696,31.3863594 115.799447,30.5424885 115.243134,29.1279263 C114.687373,27.7128111 115.005346,26.2639631 115.95318,25.8917972 C116.90212,25.5185253 118.122028,26.3635023 118.677235,27.7786175 C119.234101,29.1931797 118.915576,30.6420276 117.966636,31.0136406" id="Fill-1234" fill="#E88EB0"></path>
            <path d="M117.838894,26.4774194 L117.839447,26.4779724 L117.838894,26.4774194 Z M117.837788,26.4763134 C117.6,26.2418433 117.341751,26.0626728 117.077419,25.9476498 C117.341751,26.0626728 117.6,26.2418433 117.837788,26.4763134 Z" id="Fill-1235" fill="#2F1916"></path>
            <path d="M117.077419,25.9476498 C116.701935,25.7839631 116.316498,25.7541014 115.966452,25.8868203 C116.316498,25.7541014 116.702488,25.7845161 117.077419,25.9476498 Z M117.947281,31.0213825 C117.943963,31.0230415 117.940092,31.0241475 117.937327,31.0258065 C117.940092,31.0241475 117.943963,31.0230415 117.947281,31.0213825 Z M117.930138,31.0280184 C117.339539,31.2392627 116.65106,30.9882028 116.083687,30.4296774 C116.65106,30.9882028 117.339539,31.2392627 117.930138,31.0280184 Z M115.250323,29.1450691 C115.253088,29.1511521 115.256406,29.157788 115.258618,29.163871 C115.256406,29.157788 115.253088,29.1511521 115.250323,29.1450691 Z M116.081475,30.4274654 L116.082581,30.4280184 L116.081475,30.4274654 Z" id="Fill-1236" fill="#E67F5F"></path>
            <path d="M117.838894,26.4774194 C117.838894,26.4774194 117.837788,26.4774194 117.837788,26.4763134 C117.6,26.2418433 117.341751,26.0626728 117.077419,25.9476498 C116.702488,25.7845161 116.316498,25.7541014 115.966452,25.8868203 C115.962581,25.8884793 115.958157,25.8895853 115.95318,25.8917972 C115.78341,25.9581567 115.633548,26.0599078 115.5047,26.1904147 C114.919631,26.7837788 114.786359,27.9671889 115.243134,29.1279263 C115.246452,29.1334562 115.248664,29.1395392 115.250323,29.1450691 C115.253088,29.1511521 115.256406,29.157788 115.258618,29.163871 C115.462673,29.6698618 115.751336,30.1011982 116.081475,30.4274654 L116.082581,30.4280184 C116.082581,30.4291244 116.083687,30.4291244 116.083687,30.4296774 C116.65106,30.9882028 117.339539,31.2392627 117.930138,31.0280184 C117.932903,31.0269124 117.935115,31.0258065 117.937327,31.0258065 C117.940092,31.0241475 117.943963,31.0230415 117.947281,31.0213825 C117.953917,31.0186175 117.961106,31.0164055 117.966636,31.0136406 C118.137512,30.9472811 118.287926,30.84553 118.416221,30.715576 C119.001843,30.122212 119.134009,28.9388018 118.677235,27.7786175 C118.472627,27.2565899 118.17788,26.8130876 117.839447,26.4779724 L117.838894,26.4774194 Z M116.352442,30.0663594 C116.054378,29.7716129 115.795023,29.3806452 115.613641,28.920553 C115.124793,27.6741014 115.403502,26.398341 116.239631,26.0704147 C116.767189,25.8624885 117.389309,26.0820276 117.899171,26.5863594 C118.198341,26.881106 118.458249,27.2715207 118.639078,27.7321659 C119.129585,28.9791705 118.848664,30.2538249 118.012535,30.5828571 C117.484977,30.7896774 116.86341,30.5695853 116.352442,30.0663594 Z" id="Fill-1237" fill="#DD5C87"></path>
            <path d="M117.87318,26.7865438 C117.864885,26.7782488 117.856037,26.7699539 117.847189,26.760553 C117.52424,26.4530876 117.211244,26.3253456 117.14765,26.4774194 C117.085161,26.6256221 117.282581,26.9817512 117.590599,27.2858986 C117.598894,27.2947465 117.608848,27.3024885 117.61659,27.3118894 C117.939539,27.6204608 118.253088,27.7470968 118.317235,27.595576 C118.377512,27.4468203 118.181198,27.0901382 117.87318,26.7865438" id="Fill-1238" fill="#F2C0CF"></path>
            <path d="M96.001659,15.2040553 C94.6949309,16.6877419 92.6117972,17.9303226 90.1111521,18.5541014 C86.4475576,19.4665438 82.9537327,18.7841475 81.1791705,17.0333641 C80.638894,16.5013825 80.2589862,15.8715207 80.0809217,15.1570507 C79.7612903,13.8768664 80.1411982,12.5319816 81.0387097,11.3115207 C79.8503226,12.6608295 79.3028571,14.2086636 79.6667281,15.6685714 C79.8453456,16.3830415 80.2258065,17.0140092 80.76553,17.5459908 C82.5395392,19.2967742 86.035023,19.9786175 89.6975115,19.0667281 C92.4807373,18.3727189 94.7474654,16.9105991 96.001659,15.2040553" id="Fill-1239" fill="#7CB861"></path>
            <path d="M90.1111521,18.5541014 C85.3354839,19.7441475 80.8446083,18.2234101 80.0809217,15.1570507 C79.316682,12.0895853 82.5682949,8.63889401 87.3434101,7.44884793 C92.1185253,6.25935484 96.6088479,7.78064516 97.3730876,10.8470046 C98.1373272,13.9139171 94.8851613,17.3640553 90.1111521,18.5541014" id="Fill-1240" fill="#F4D47B"></path>
            <path d="M95.6626728,9.29695853 C94.0318894,7.68829493 90.8206452,7.06119816 87.4556682,7.90009217 C83.0682028,8.99336406 80.0798157,12.1636866 80.7826728,14.9811982 C80.9458065,15.6387097 81.2958525,16.2182488 81.7907834,16.7059908 C83.4215668,18.3152074 86.6333641,18.9417512 89.997788,18.1034101 C94.3858065,17.0101382 97.3736406,13.8398157 96.6713364,11.0211982 C96.5082028,10.3653456 96.1587097,9.78580645 95.6626728,9.29695853 Z M95.6715207,13.8342857 L94.7225806,9.11889401 C94.8873733,9.24276498 95.041106,9.37493088 95.1832258,9.51428571 C95.644977,9.96940092 95.9723502,10.5085714 96.124424,11.1201843 C96.3478341,12.0171429 96.1636866,12.9500461 95.6715207,13.8342857 Z M93.7476498,15.9522581 L92.0554839,8.02009217 C92.398894,8.08534562 92.7312442,8.16774194 93.0436866,8.27004608 L94.5102304,15.3069124 C94.2757604,15.5308756 94.0235945,15.7470968 93.7476498,15.9522581 Z M91.4245161,17.2412903 L89.4984332,7.88626728 C89.8921659,7.85806452 90.2787097,7.85087558 90.6558525,7.86414747 L92.4647005,16.7568664 C92.1334562,16.9327189 91.7883871,17.0958525 91.4245161,17.2412903 Z M89.0084793,17.9225806 L86.9087558,8.37069124 C87.1056221,8.31152074 87.3041475,8.25179724 87.5070968,8.20092166 C87.7034101,8.15225806 87.8969585,8.11354839 88.0921659,8.0759447 L90.0906912,17.6825806 C90.0215668,17.7008295 89.9546544,17.7223963 89.884424,17.7400922 C89.5907834,17.8136406 89.2988018,17.8722581 89.0084793,17.9225806 Z M86.0239631,18.0248848 L84.237788,9.58119816 C84.6376037,9.32847926 85.0694931,9.09677419 85.5290323,8.88884793 L87.6270968,18.0768664 C87.0729954,18.1034101 86.5371429,18.0823963 86.0239631,18.0248848 Z M83.3695853,17.2567742 L82.1082028,11.5050691 C82.4068203,11.1035945 82.7684793,10.7170507 83.1882028,10.3559447 L84.7747465,17.7959447 C84.2632258,17.6610138 83.7926267,17.4796313 83.3695853,17.2567742 Z M81.7421198,16.0446083 C81.0940092,15.4042396 80.3032258,14.16 81.4025806,12.4645161 L82.3576037,16.5345622 C82.3576037,16.5345622 82.0672811,16.3647926 81.7421198,16.0446083 Z" id="Fill-1241" fill="#EEB64D"></path>
            <path d="M85.5290323,8.88884793 C85.0694931,9.09677419 84.6376037,9.32847926 84.237788,9.58119816 L86.0239631,18.0248848 C86.5371429,18.0823963 87.0729954,18.1034101 87.6270968,18.0768664 L85.5290323,8.88884793" id="Fill-1242" fill="#E99C3B"></path>
            <path d="M88.0921659,8.0759447 C87.8969585,8.11354839 87.7034101,8.15225806 87.5070968,8.20092166 C87.3041475,8.25179724 87.1056221,8.31152074 86.9087558,8.37069124 L89.0084793,17.9225806 C89.2988018,17.8722581 89.5907834,17.8136406 89.884424,17.7400922 C89.9546544,17.7223963 90.0215668,17.7008295 90.0906912,17.6825806 L88.0921659,8.0759447" id="Fill-1243" fill="#E99C3B"></path>
            <path d="M83.1882028,10.3559447 C82.7684793,10.7170507 82.4068203,11.1035945 82.1082028,11.5050691 L83.3695853,17.2567742 C83.7926267,17.4796313 84.2632258,17.6610138 84.7747465,17.7959447 L83.1882028,10.3559447" id="Fill-1244" fill="#E99C3B"></path>
            <path d="M93.0436866,8.27004608 C92.7312442,8.16774194 92.398894,8.08534562 92.0554839,8.02009217 L93.7476498,15.9522581 C94.0235945,15.7470968 94.2757604,15.5308756 94.5102304,15.3069124 L93.0436866,8.27004608" id="Fill-1245" fill="#E99C3B"></path>
            <path d="M95.1832258,9.51428571 C95.041106,9.37493088 94.8873733,9.24276498 94.7225806,9.11889401 L95.6715207,13.8342857 C96.1636866,12.9500461 96.3478341,12.0171429 96.124424,11.1201843 C95.9723502,10.5085714 95.644977,9.96940092 95.1832258,9.51428571" id="Fill-1246" fill="#E99C3B"></path>
            <path d="M90.6558525,7.86414747 C90.2787097,7.85087558 89.8921659,7.85806452 89.4984332,7.88626728 L91.4245161,17.2412903 C91.7883871,17.0958525 92.1334562,16.9327189 92.4647005,16.7568664 L90.6558525,7.86414747" id="Fill-1247" fill="#E99C3B"></path>
            <path d="M81.4025806,12.4645161 C80.3032258,14.16 81.0940092,15.4042396 81.7421198,16.0446083 C82.0672811,16.3647926 82.3576037,16.5345622 82.3576037,16.5345622 L81.4025806,12.4645161" id="Fill-1248" fill="#E99C3B"></path>
            <path d="M101.602949,7.03963134 C94.197235,-0.265990783 85.1214747,4.28018433 85.1214747,4.28018433 C97.6993548,1.83760369 106.871889,14.5437788 104.314286,10.4195392 C103.451613,9.08073733 102.540829,7.96479263 101.602949,7.03963134 Z M98.7351152,5.90599078 C98.4962212,5.67096774 98.3756682,5.46193548 98.4442396,5.36073733 C98.5509677,5.20036866 99.0929032,5.37511521 99.6547465,5.75281106 C99.8626728,5.89105991 100.044608,6.03926267 100.185069,6.17695853 C100.423963,6.41198157 100.54341,6.62211982 100.475945,6.72276498 C100.368664,6.88368664 99.8267281,6.7078341 99.2648848,6.33179724 C99.0564055,6.19299539 98.876129,6.04479263 98.7351152,5.90599078 Z" id="Fill-1249" fill="#C3DDA9"></path>
            <path d="M100.185069,6.17695853 C100.044608,6.03926267 99.8626728,5.89105991 99.6547465,5.75281106 C99.0929032,5.37511521 98.5509677,5.20036866 98.4442396,5.36073733 C98.3756682,5.46193548 98.4962212,5.67096774 98.7351152,5.90599078 C98.876129,6.04479263 99.0564055,6.19299539 99.2648848,6.33179724 C99.8267281,6.7078341 100.368664,6.88368664 100.475945,6.72276498 C100.54341,6.62211982 100.423963,6.41198157 100.185069,6.17695853" id="Fill-1250" fill="#D4E6BF"></path>
            <path d="M98.2086636,24.2892166 C94.4820276,21.3489401 91.3111521,32.0261751 90.1896774,37.5472811 C88.8326267,45.1620276 90.0680184,48.4462673 90.9959447,49.3614747 C91.440553,49.800553 91.8154839,49.6943779 91.796682,49.2580645 C91.680553,31.8387097 98.2086636,24.2892166 98.2086636,24.2892166" id="Fill-1251" fill="#40813F"></path>
        </g>
    </g>
</svg>