<?xml version="1.0" encoding="UTF-8"?>
<svg width="120px" height="120px" viewBox="0 0 120 120" version="1.1" xmlns="http://www.w3.org/2000/svg" xmlns:xlink="http://www.w3.org/1999/xlink">
    <!-- Generator: Sketch 51.1 (57501) - http://www.bohemiancoding.com/sketch -->
    <title>Bus 0</title>
    <desc>Created with Sketch.</desc>
    <defs></defs>
    <g id="Bus-0" stroke="none" stroke-width="1" fill="none" fill-rule="evenodd">
        <g id="Group-72" transform="translate(7.000000, 29.000000)">
            <path d="M47.0148406,0 L87.4361739,0 C92.8652174,0 97.5875942,3.71546341 98.8672754,8.99209756 L102.882986,25.5657073 L102.882986,47.3590976 C102.882986,49.4427073 101.196203,51.129878 99.1146087,51.129878 L81.0946087,51.129878 L58.4782029,51.129878 L42.8316812,51.129878 L6.84391304,51.129878 C4.76078261,51.129878 3.07246377,49.4427073 3.07246377,47.3606341 L3.07246377,26.2879024 L7.29095652,5.02770732 C7.87165217,2.10512195 10.434087,0 13.4143768,0 L47.0148406,0 Z" id="Fill-60" fill="#A4C639"></path>
            <path d="M96.9884638,23.5512439 L94.0757681,11.3123415 C93.3537391,8.28373171 90.6484348,6.14634146 87.536029,6.14634146 L72.2028986,6.14634146 L72.2028986,23.5512439 L96.9884638,23.5512439 Z" id="Fill-61" fill="#52631D"></path>
            <path d="M66.057971,48.8987561 C66.057971,56.3865366 72.126087,62.4560488 79.6121449,62.4560488 C87.0982029,62.4560488 93.1663188,56.3865366 93.1663188,48.8987561 C93.1663188,41.4109756 87.0982029,35.3414634 79.6121449,35.3414634 C72.126087,35.3414634 66.057971,41.4109756 66.057971,48.8987561" id="Fill-62" fill="#522D2D"></path>
            <path d="M73.7391304,48.3824634 C73.7391304,52.190122 76.8269565,55.277122 80.6322029,55.277122 C84.4405217,55.277122 87.5268116,52.190122 87.5268116,48.3824634 C87.5268116,44.5748049 84.4405217,41.4878049 80.6322029,41.4878049 C76.8269565,41.4878049 73.7391304,44.5748049 73.7391304,48.3824634" id="Fill-63" fill="#FFFFFF"></path>
            <path d="M78.3478261,48.1888537 C78.3478261,49.3443659 79.2833913,50.2801463 80.4386377,50.2801463 C81.5938841,50.2801463 82.5309855,49.3443659 82.5309855,48.1888537 C82.5309855,47.0333415 81.5938841,46.097561 80.4386377,46.097561 C79.2833913,46.097561 78.3478261,47.0333415 78.3478261,48.1888537" id="Fill-64" fill="#522D2D"></path>
            <path d="M15.3623188,48.8987561 C15.3623188,56.3865366 21.4304348,62.4560488 28.9164928,62.4560488 C36.4025507,62.4560488 42.4706667,56.3865366 42.4706667,48.8987561 C42.4706667,41.4109756 36.4025507,35.3414634 28.9164928,35.3414634 C21.4304348,35.3414634 15.3623188,41.4109756 15.3623188,48.8987561" id="Fill-65" fill="#522D2D"></path>
            <path d="M23.0434783,48.3824634 C23.0434783,52.190122 26.1313043,55.277122 29.9365507,55.277122 C33.7448696,55.277122 36.8311594,52.190122 36.8311594,48.3824634 C36.8311594,44.5748049 33.7448696,41.4878049 29.9365507,41.4878049 C26.1313043,41.4878049 23.0434783,44.5748049 23.0434783,48.3824634" id="Fill-66" fill="#FFFFFF"></path>
            <path d="M27.6521739,48.1888537 C27.6521739,49.3443659 28.5877391,50.2801463 29.7429855,50.2801463 C30.8982319,50.2801463 31.8353333,49.3443659 31.8353333,48.1888537 C31.8353333,47.0333415 30.8982319,46.097561 29.7429855,46.097561 C28.5877391,46.097561 27.6521739,47.0333415 27.6521739,48.1888537" id="Fill-67" fill="#522D2D"></path>
            <path d="M103.429884,43.0243902 L95.6073913,43.0243902 C94.5596812,43.0243902 93.7101449,43.874122 93.7101449,44.9220732 L93.7101449,51.3910976 L100.137739,51.3910976 C103.004348,51.3910976 105.32713,49.0677805 105.32713,46.2005122 L105.32713,44.9220732 C105.32713,43.874122 104.47913,43.0243902 103.429884,43.0243902" id="Fill-69" fill="#522D2D"></path>
            <path d="M1.89724638,43.0243902 L9.71973913,43.0243902 C10.7674493,43.0243902 11.6169855,43.874122 11.6169855,44.9220732 L11.6169855,51.3910976 L5.1893913,51.3910976 C2.32278261,51.3910976 0,49.0677805 0,46.2005122 L0,44.9220732 C0,43.874122 0.848,43.0243902 1.89724638,43.0243902" id="Fill-70" fill="#522D2D"></path>
            <polygon id="Fill-71" fill="#AE392E" points="3.07246377 39.3058537 8.28797101 39.3058537 8.28797101 30.7317073 3.07246377 30.7317073"></polygon>
            <polygon id="Fill-72" fill="#FFD800" points="3.07246377 33.2624634 8.28797101 33.2624634 8.28797101 30.7317073 3.07246377 30.7317073"></polygon>
            <polygon id="Fill-73" fill="#7B952B" points="72.2028986 27.4772195 78.2448986 27.4772195 78.2448986 24.5853659 72.2028986 24.5853659"></polygon>
            <polygon id="Fill-74" fill="#7B952B" points="47.6231884 27.4772195 53.6651884 27.4772195 53.6651884 24.5853659 47.6231884 24.5853659"></polygon>
            <polygon id="Fill-75" fill="#52631D" points="23.0434783 23.5512439 45.0407826 23.5512439 45.0407826 6.14634146 23.0434783 6.14634146"></polygon>
            <polygon id="Fill-76" fill="#52631D" points="47.6231884 23.5512439 69.6189565 23.5512439 69.6189565 6.14634146 47.6231884 6.14634146"></polygon>
            <path d="M21.7131014,23.5512439 L21.7131014,6.14634146 L14.6833043,6.14634146 C13.4282029,6.14634146 12.3528406,7.03756098 12.1193333,8.26836585 L9.2173913,23.5512439 L21.7131014,23.5512439 Z" id="Fill-77" fill="#52631D"></path>
        </g>
    </g>
</svg>