<?xml version="1.0" encoding="UTF-8"?>
<svg width="120px" height="120px" viewBox="0 0 120 120" version="1.1" xmlns="http://www.w3.org/2000/svg" xmlns:xlink="http://www.w3.org/1999/xlink">
    <!-- Generator: Sketch 51.1 (57501) - http://www.bohemiancoding.com/sketch -->
    <title>Cake</title>
    <desc>Created with Sketch.</desc>
    <defs>
        <polygon id="path-1" points="0 0.085692 120 0.085692 120 39.12 0 39.12"></polygon>
    </defs>
    <g id="Cake" stroke="none" stroke-width="1" fill="none" fill-rule="evenodd">
        <g id="Page-1" transform="translate(0.000000, 30.000000)">
            <g id="Group-3" transform="translate(0.000000, 20.955600)">
                <mask id="mask-2" fill="white">
                    <use xlink:href="#path-1"></use>
                </mask>
                <g id="Clip-2"></g>
                <path d="M120,19.602852 C120,30.381852 93.13716,39.120012 60,39.120012 C26.86284,39.120012 0,30.381852 0,19.602852 C0,8.823852 26.86284,0.085692 60,0.085692 C93.13716,0.085692 120,8.823852 120,19.602852" id="Fill-1" fill="#FFC31A" mask="url(#mask-2)"></path>
            </g>
            <path d="M120,39.29928 C120,50.07828 93.13716,58.81644 60,58.81644 C26.86284,58.81644 0,50.07828 0,39.29928 C0,28.52028 26.86284,19.78212 60,19.78212 C93.13716,19.78212 120,28.52028 120,39.29928" id="Fill-4" fill="#FFF017"></path>
            <path d="M106.838676,38.291928 C106.838676,46.706568 85.868316,53.527848 60.000036,53.527848 C34.131636,53.527848 13.161276,46.706568 13.161276,38.291928 C13.161276,29.877288 34.131636,23.056008 60.000036,23.056008 C85.868316,23.056008 106.838676,29.877288 106.838676,38.291928 Z" id="Stroke-6" stroke="#F4A721" stroke-width="1.39716" stroke-linecap="round"></path>
            <path d="M96.774144,38.795604 C96.774144,45.402084 80.309904,50.757804 60.000024,50.757804 C39.690144,50.757804 23.225784,45.402084 23.225784,38.795604 C23.225784,32.189124 39.690144,26.833524 60.000024,26.833524 C80.309904,26.833524 96.774144,32.189124 96.774144,38.795604 Z" id="Stroke-8" stroke="#F4A721" stroke-width="1.39716" stroke-linecap="round"></path>
            <path d="M87.733128,39.047436 C87.733128,43.845876 75.774888,47.735676 61.023408,47.735676 C46.272168,47.735676 34.313808,43.845876 34.313808,39.047436 C34.313808,34.248996 46.272168,30.359196 61.023408,30.359196 C75.774888,30.359196 87.733128,34.248996 87.733128,39.047436 Z" id="Stroke-10" stroke="#DBDBDB" stroke-width="0.50772"></path>
            <path d="M99.036324,40.272576 C99.037164,40.241256 99.040284,40.210056 99.040284,40.178616 C99.040284,39.775656 98.965044,39.377976 98.821884,38.986296 L94.253724,11.586576 C94.283844,11.438976 94.299444,11.290416 94.299444,11.141016 C94.299444,6.428016 79.070244,2.607576 60.284004,2.607576 C41.497884,2.607576 26.268684,6.428016 26.268684,11.141016 C26.268684,11.363136 26.302644,11.583336 26.369124,11.801256 L22.238964,40.297056 L22.481124,40.297056 C22.700004,46.395336 39.751644,51.319536 60.758244,51.319536 C81.764604,51.319536 98.816364,46.395336 99.035124,40.297056 L99.040284,40.297056 L99.036324,40.272576 Z" id="Fill-12" fill="#CF620D"></path>
            <path d="M98.821872,39.223344 L95.977392,22.162464 C89.431752,30.556464 73.107072,36.504384 54.002472,36.504384 C42.320352,36.504384 31.677432,34.280304 23.674032,30.633024 L22.238952,40.534104 L22.481112,40.534104 C22.699992,46.632384 39.751752,51.556584 60.758232,51.556584 C81.764592,51.556584 98.816352,46.632384 99.035112,40.534104 L99.040272,40.534104 L99.036312,40.509624 C99.037152,40.478304 99.040272,40.446984 99.040272,40.415664 C99.040272,40.012824 98.965032,39.615144 98.821872,39.223344" id="Fill-14" fill="#BA550F"></path>
            <path d="M92.62266,9.722844 C92.62266,13.396884 78.30342,16.375284 60.63966,16.375284 C42.97602,16.375284 28.65678,13.396884 28.65678,9.722844 C28.65678,6.048804 42.97602,3.070404 60.63966,3.070404 C78.30342,3.070404 92.62266,6.048804 92.62266,9.722844" id="Fill-16" fill="#E27830"></path>
            <path d="M62.298984,6.163104 L58.032144,6.163104 C56.467704,6.163104 55.187664,4.883064 55.187664,3.318624 L55.187664,2.844504 C55.187664,1.280064 56.467704,2.4e-05 58.032144,2.4e-05 L60.383784,0.255864 L62.298984,2.4e-05 C63.512784,2.4e-05 64.327104,0.714984 64.733424,1.791024 C64.850904,2.101944 65.143464,2.493864 65.143464,2.844504 L65.143464,3.318624 C65.143464,4.883064 63.863424,6.163104 62.298984,6.163104" id="Fill-18" fill="#ED3200"></path>
            <path d="M62.298984,4.740852 L58.032144,4.740852 C56.629464,4.740852 55.458624,3.710892 55.230864,2.370492 C55.204464,2.525052 55.187664,2.682732 55.187664,2.844492 L55.187664,3.318612 C55.187664,4.883172 56.467704,6.163092 58.032144,6.163092 L62.298984,6.163092 C63.863424,6.163092 65.143464,4.883172 65.143464,3.318612 L65.143464,2.844492 C65.143464,2.682732 63.701544,4.740852 62.298984,4.740852" id="Fill-20" fill="#BC1F00"></path>
            <path d="M55.42476,2.370444 C55.42476,2.370444 56.37288,1.659324 56.847,1.896324 C57.32112,2.133444 58.50624,2.370444 58.98036,2.370444 C59.45448,2.370444 61.11372,1.659324 61.35084,1.896324 C61.58772,2.133444 63.2472,2.844564 63.7212,2.370444 C64.19532,1.896324 64.6056,2.174844 64.6056,2.174844" id="Stroke-22" stroke="#C1272D" stroke-width="0.5"></path>
            <path d="M55.543248,3.911232 C55.543248,3.911232 56.380608,3.297192 56.858448,3.561192 C57.336288,3.825192 58.146888,3.200112 58.624848,3.200112 C59.102688,3.200112 60.282168,3.410232 60.521088,3.674232 C60.760128,3.938232 63.124848,4.439232 63.602688,3.911232 C64.080648,3.383232 64.787928,3.911232 64.787928,3.911232" id="Stroke-24" stroke="#C1272D" stroke-width="0.5"></path>
            <path d="M56.254392,5.333472 C56.254392,5.333472 57.676632,5.096472 57.913752,5.333472 C58.150752,5.570592 59.809992,5.807592 60.047112,5.333472 C60.284112,4.859352 61.469352,5.096472 61.706352,5.333472 C61.943472,5.570592 63.128592,5.570592 63.365592,5.333472 C63.602712,5.096472 64.076712,5.096472 64.076712,5.096472" id="Stroke-26" stroke="#C1272D" stroke-width="0.5"></path>
            <path d="M51.513576,5.333472 C51.513576,5.333472 50.266536,6.044592 48.728376,6.044592 C47.190096,6.044592 45.943056,5.726232 45.943056,5.333472 C45.943056,4.940712 47.190096,4.622352 48.728376,4.622352 C50.266536,4.622352 51.513576,5.333472 51.513576,5.333472" id="Fill-28" fill="#F2F2F2"></path>
            <path d="M67.395348,5.333472 C67.395348,5.333472 68.536188,4.622352 69.943548,4.622352 C71.350908,4.622352 72.491748,4.940712 72.491748,5.333472 C72.491748,5.726232 71.350908,6.044592 69.943548,6.044592 C68.536188,6.044592 67.395348,5.333472 67.395348,5.333472" id="Fill-30" fill="#F2F2F2"></path>
            <path d="M60.22488,8.059428 C60.22488,8.059428 61.58772,8.749308 61.58772,9.600228 C61.58772,10.451148 60.97752,11.141028 60.22488,11.141028 C59.47212,11.141028 58.8618,10.451148 58.8618,9.600228 C58.8618,8.749308 60.22488,8.059428 60.22488,8.059428" id="Fill-32" fill="#F2F2F2"></path>
        </g>
    </g>
</svg>