<?xml version="1.0" encoding="UTF-8"?>
<svg width="480px" height="360px" viewBox="0 0 480 360" version="1.1" xmlns="http://www.w3.org/2000/svg" xmlns:xlink="http://www.w3.org/1999/xlink">
    <!-- Generator: Sketch 51.1 (57501) - http://www.bohemiancoding.com/sketch -->
    <title>Living room5</title>
    <desc>Created with Sketch.</desc>
    <defs>
        <polygon id="path-1" points="0.594929577 0.409190476 88.3782761 0.409190476 88.3782761 48.450381 0.594929577 48.450381"></polygon>
        <polygon id="path-3" points="0.452394366 0.409190476 87.0258028 0.409190476 87.0258028 48.450381 0.452394366 48.450381"></polygon>
    </defs>
    <g id="Living-room5" stroke="none" stroke-width="1" fill="none" fill-rule="evenodd">
        <rect id="Rectangle" fill="#FFF0CA" x="0" y="0" width="480" height="360"></rect>
        <g id="Group-2" transform="translate(20.000000, 115.000000)">
            <polygon id="Fill-188" fill="#302A34" points="172.706197 49.6030476 266.737296 49.6030476 266.737296 0.128142857 172.706197 0.128142857"></polygon>
            <polygon id="Fill-189" fill="#FEDD76" points="175.577352 46.735 263.866141 46.735 263.866141 2.27933333 175.577352 2.27933333"></polygon>
            <polygon id="Fill-190" fill="#FFFFFF" points="184.191437 39.5645714 255.252676 39.5645714 255.252676 10.166619 184.191437 10.166619"></polygon>
            <path d="M238.707746,22.0723286 C237.811014,20.6157095 236.953324,19.5255667 236.953324,19.5255667 C236.953324,19.5255667 236.096254,20.6516143 235.143127,22.0723286 C232.95738,25.3353286 236.152648,27.2593286 236.870282,27.3961381 L236.870282,27.4010905 L236.870282,27.3998524 L236.870282,27.4010905 L236.870282,27.3961381 C239.024423,27.2593286 240.852592,25.5526143 238.707746,22.0723286" id="Fill-191" fill="#AC901F"></path>
            <polygon id="Fill-192" fill="#C56D27" points="238.382766 24.9643952 237.191048 25.6533952 237.008231 23.8402048 236.824175 25.6533952 235.633696 24.9643952 236.733076 26.1381095 236.759104 29.9904429 237.338541 29.9904429 237.283386 26.1381095"></polygon>
            <path d="M211.832918,23.6495381 C211.832918,21.7880619 212.90689,20.2788238 214.228749,20.2788238 C215.551228,20.2788238 216.623961,21.7880619 216.623961,23.6495381 C216.623961,25.5116333 215.551228,27.0202524 214.228749,27.0202524 C212.90689,27.0202524 211.832918,25.5116333 211.832918,23.6495381" id="Fill-193" fill="#AC901F"></path>
            <polygon id="Fill-194" fill="#C56D27" points="215.861707 24.7951476 214.44689 25.6141476 214.228749 23.4592429 214.011228 25.6141476 212.597031 24.7951476 213.98458 26.2090524 213.819735 29.9908143 214.637763 29.9908143 214.474158 26.2090524"></polygon>
            <path d="M228.377724,22.7228238 C228.227132,21.2884905 227.013104,20.1698714 225.535696,20.1698714 C224.028541,20.1698714 222.794682,21.3373952 222.686851,22.815681 C222.040485,23.193919 221.645724,23.6953476 221.645724,24.2475381 C221.645724,25.4193952 223.423076,26.3677762 225.618738,26.3677762 C227.812541,26.3677762 229.591132,25.4193952 229.591132,24.2475381 C229.591132,23.6495381 229.125724,23.1091095 228.377724,22.7228238" id="Fill-195" fill="#AC901F"></path>
            <path d="M228.014569,23.2838048 C227.883808,22.0370429 226.829668,21.0669952 225.54747,21.0669952 C224.237386,21.0669952 223.165273,22.0809952 223.072315,23.365519 C222.510231,23.6929952 222.166287,24.1281857 222.166287,24.6091857 C222.166287,25.6250429 223.711865,26.4502333 225.618738,26.4502333 C227.523132,26.4502333 229.06809,25.6250429 229.06809,24.6091857 C229.06809,24.0885667 228.663414,23.6187095 228.014569,23.2838048" id="Fill-196" fill="#DBB03B"></path>
            <polygon id="Fill-197" fill="#C56D27" points="227.250208 25.3658476 225.836011 26.4293714 225.61849 25.3082762 225.401589 26.3482762 223.984913 25.3658476 225.373082 26.7816095 225.291899 29.9907524 225.943842 29.9907524 225.862659 26.7816095"></polygon>
            <path d="M205.613921,22.5849619 C205.306541,21.3382 204.181132,20.414581 202.838203,20.414581 C201.497752,20.414581 200.372344,21.3382 200.064963,22.5849619 C199.119893,23.0504857 198.471048,24.0217714 198.471048,25.1453429 C198.471048,26.7214381 199.749527,27.9991524 201.327949,27.9991524 C201.883217,27.9991524 202.400682,27.8406762 202.838203,27.5676762 C203.276963,27.8406762 203.793808,27.9991524 204.349076,27.9991524 C205.926259,27.9991524 207.207837,26.7214381 207.207837,25.1453429 C207.207837,24.0217714 206.557132,23.0504857 205.613921,22.5849619" id="Fill-198" fill="#AC901F"></path>
            <path d="M204.349386,27.1020905 C203.981893,27.1020905 203.624935,26.9999476 203.315076,26.8055667 L202.837893,26.5109 L202.362569,26.8055667 C202.05271,26.9999476 201.695132,27.1020905 201.328259,27.1020905 C200.246851,27.1020905 199.36809,26.2236619 199.36809,25.145281 C199.36809,24.3943762 199.787639,23.7220905 200.463132,23.3890429 L200.837442,23.2039476 L200.937217,22.7997095 C201.151639,21.922519 201.934963,21.311519 202.837893,21.311519 C203.742682,21.311519 204.524766,21.922519 204.740428,22.7997095 L204.840203,23.2039476 L205.215752,23.3890429 C205.890006,23.7220905 206.309555,24.3943762 206.309555,25.145281 C206.309555,26.2236619 205.430175,27.1020905 204.349386,27.1020905" id="Fill-199" fill="#DBB03B"></path>
            <polygon id="Fill-200" fill="#C56D27" points="204.471346 25.9365476 203.05529 26.7555476 202.837769 24.6012619 202.620868 26.7555476 201.206051 25.9365476 202.511177 27.3516905 202.348811 29.9906905 203.328586 29.9906905 203.16498 27.3516905"></polygon>
            <path d="M238.834851,22.0723286 C237.937499,20.6157095 237.018456,19.5255667 237.018456,19.5255667 C237.018456,19.5255667 237.015977,19.5274238 237.014118,19.5311381 L237.014118,30.2059952 L237.338851,30.2059952 L237.298569,27.3719952 C238.77102,27.1231381 240.894175,25.4164238 238.834851,22.0723286" id="Fill-201" fill="#FFFFFF"></path>
            <path d="M216.624208,23.6495381 C216.624208,21.7880619 215.550856,20.2788238 214.228997,20.2788238 C214.22218,20.2788238 214.215363,20.2788238 214.207927,20.2800619 L214.207927,30.2058714 L214.637392,30.2058714 L214.502293,26.9979667 C215.69649,26.807919 216.624208,25.3816333 216.624208,23.6495381" id="Fill-202" fill="#FFFFFF"></path>
            <path d="M228.377724,22.7228238 C228.228992,21.3039667 227.038513,20.1946333 225.584654,20.1704905 L225.584654,30.2058714 L225.94347,30.2058714 L225.862287,26.8883952 L226.29547,26.4142048 C226.930062,26.3467286 227.502062,26.1863952 227.958175,25.9604429 C228.948485,25.5747762 229.591132,24.9520143 229.591132,24.2475381 C229.591132,23.6495381 229.125724,23.1091095 228.377724,22.7228238" id="Fill-203" fill="#FFFFFF"></path>
            <path d="M205.613921,22.5849619 C205.309639,21.3536762 204.20778,20.4368667 202.885921,20.415819 L202.885921,30.2060571 L203.3284,30.2060571 L203.182766,27.7509143 C203.539104,27.9106286 203.933245,27.9991524 204.349076,27.9991524 C205.926259,27.9991524 207.207837,26.7214381 207.207837,25.1453429 C207.207837,24.0217714 206.557132,23.0504857 205.613921,22.5849619" id="Fill-204" fill="#FFFFFF"></path>
            <polygon id="Fill-205" fill="#FF7543" points="159.442986 80.3313333 163.197239 80.3313333 163.197239 75.3312857 159.442986 75.3312857"></polygon>
            <polygon id="Fill-206" fill="#B0948E" points="168.829859 80.3313333 172.583493 80.3313333 172.583493 75.3312857 168.829859 75.3312857"></polygon>
            <polygon id="Fill-207" fill="#E9BF9E" points="164.136113 80.3313333 167.890986 80.3313333 167.890986 71.8930952 164.136113 71.8930952"></polygon>
            <polygon id="Fill-208" fill="#FED859" points="145.829014 99.8090476 197.938028 99.8090476 197.938028 83.1461429 145.829014 83.1461429"></polygon>
            <polygon id="Fill-209" fill="#302A34" points="143.548451 129.725762 145.829014 129.725762 145.829014 80.8160476 143.548451 80.8160476"></polygon>
            <polygon id="Fill-210" fill="#302A34" points="196.798366 129.725762 199.079549 129.725762 199.079549 80.8160476 196.798366 80.8160476"></polygon>
            <polygon id="Fill-211" fill="#302A34" points="143.54907 83.0935238 199.079549 83.0935238 199.079549 80.8160476 143.54907 80.8160476"></polygon>
            <polygon id="Fill-212" fill="#302A34" points="143.54907 99.8090476 199.079549 99.8090476 199.079549 97.5309524 143.54907 97.5309524"></polygon>
            <polygon id="Fill-213" fill="#413C44" points="169.183099 92.2380952 178.478873 92.2380952 178.478873 90.3809524 169.183099 90.3809524"></polygon>
            <polygon id="Fill-214" fill="#9AE4E8" points="158.456642 80.3310857 155.501206 80.3310857 154.515854 64.7174667 159.443234 64.7174667"></polygon>
            <path d="M157.673814,69.9088619 C157.650265,69.8073381 157.612462,69.7033381 157.561645,69.598719 C157.663279,68.3872429 157.627335,67.1491476 157.862828,65.9525286 C158.022715,65.1378619 158.456518,64.476719 158.12373,63.6601952 C158.07973,63.5500048 157.889476,63.5481476 157.896293,63.6892905 C157.944011,64.6351952 157.475504,65.3545286 157.402377,66.2558619 C157.327392,67.1856714 157.22018,68.1278619 157.222039,69.0638619 C157.11173,68.9171476 156.992744,68.7729095 156.877476,68.6348619 C156.962377,68.2813857 157.041082,67.9322429 157.087561,67.5948619 C157.230715,66.5579571 156.677307,65.4442905 156.441194,64.4649571 C156.38542,64.2359095 156.031561,64.3293857 156.087335,64.5590524 C156.399054,65.8565762 156.666772,66.9318619 156.53787,68.2170048 C156.515561,68.1866714 156.488913,68.1551 156.467842,68.1247667 C155.647955,66.9832429 156.004913,65.5891476 155.513476,64.3621952 C155.427955,64.1529571 155.088349,64.2328143 155.164575,64.4556714 C155.501701,65.4362429 155.3288,66.4106238 155.639279,67.3831476 C155.801025,67.8901476 156.130715,68.3414333 156.459786,68.7679571 C156.444293,68.8502905 156.435617,68.9276714 156.416406,69.0106238 C156.199504,70.013481 156.027842,70.845481 156.092913,71.8761952 C156.161701,72.9700524 156.519899,73.9716714 156.455448,75.0896714 C156.392856,76.2281 156.345138,77.0953857 156.678546,78.2003857 C156.712011,78.308719 156.883673,78.2932429 156.881194,78.1756238 C156.856406,77.1096238 156.827899,76.1661952 156.894208,75.0933857 C156.97911,73.7463381 156.568237,72.5323857 156.478377,71.1902905 C156.435617,70.5409095 156.586208,69.8451 156.751673,69.155481 C157.609363,70.3335286 157.316856,71.5066238 157.329251,72.8313857 C157.336687,73.6070524 157.593251,74.3561 157.74818,75.1076238 C157.761194,75.1775762 157.865927,75.1590048 157.868406,75.0927667 C157.891955,74.1165286 157.664518,73.1693857 157.669476,72.1906714 C157.675054,71.3778619 157.856011,70.7105286 157.673814,69.9088619" id="Fill-215" fill="#009245"></path>
            <path d="M163.208642,61.7517952 C162.864699,61.3512714 162.336079,61.0819857 161.796304,61.1587476 C161.523628,61.1977476 161.223065,61.3568429 161.025375,61.5821762 C160.636811,60.7408905 159.967515,59.9714143 159.053431,60.6864143 C158.173431,61.3754143 157.759459,62.9372714 157.774332,63.997081 C157.778051,64.2682238 158.129431,64.2979381 158.225487,64.0936524 L158.267008,64.0453667 C158.296755,64.0088429 158.284361,63.9698429 158.255854,63.9487952 C158.315346,63.1601286 158.538445,62.3925095 158.903459,61.6929857 C159.075121,61.3642714 159.323008,60.9878905 159.69422,60.8659381 C160.108192,60.7297476 160.424868,61.3395095 160.599628,61.7381762 C158.752868,62.8091286 160.832023,64.2676048 161.905375,65.1441762 C161.965487,65.1949381 162.036135,65.1949381 162.09191,65.1695571 C162.173713,65.1837952 162.260473,65.1577952 162.300135,65.0754619 C162.468699,64.7343667 162.57653,64.4248429 162.8176,64.1202714 C163.020248,63.8646048 163.232192,63.621319 163.390839,63.334081 C163.67467,62.8221286 163.58667,62.1925571 163.208642,61.7517952" id="Fill-216" fill="#009245"></path>
            <path d="M171.107324,56.6518952 C170.421915,56.4729905 169.739606,56.3052286 169.199831,55.8168 C168.791437,55.4497048 168.643944,54.829419 168.489014,54.2605143 C168.735042,54.4740857 169.029408,54.6220381 169.370254,54.6672286 C169.86231,54.7328476 170.365521,54.7489429 170.860676,54.8201333 C171.332901,54.8869905 171.64462,54.7334667 171.946423,55.1940381 C171.981746,55.2472762 172.079662,55.2144667 172.056113,55.1482286 C171.914817,54.7848476 171.751211,54.6412286 171.363268,54.6009905 C170.843944,54.5471333 170.321521,54.4852286 169.800958,54.4449905 C169.209127,54.3998 168.824282,54.2116095 168.384901,53.9002286 C168.360732,53.8240857 168.335944,53.749181 168.309296,53.6792286 C167.373521,51.2785619 163.859718,51.5546571 161.805972,51.8431333 C161.434141,51.8957524 161.066028,51.9787048 160.71031,52.0926095 C160.99662,51.8437524 161.28293,51.5961333 161.583493,51.3627524 C161.731606,51.2482286 161.977634,51.0470381 162.267662,50.8433714 C162.855775,50.8625619 163.500901,51.0767524 164.060507,50.8316095 C164.556282,50.6143238 164.879155,50.2119429 165.253465,49.8460857 C165.281352,49.8355619 165.310479,49.8306095 165.336507,49.8188476 C165.459831,49.7687048 165.371831,49.5706095 165.249127,49.6077524 C164.784338,49.7513714 164.307155,49.7748952 163.837408,49.8844667 C163.765521,49.9018 163.697352,49.9302762 163.627944,49.9562762 C163.103662,50.0157048 162.515549,50.4057048 162.167268,50.6279429 C161.67831,50.9362286 161.224056,51.2977524 160.785915,51.6728952 C160.630986,51.8059905 160.259155,52.0567048 160.153803,52.3018476 C159.680338,52.5110857 159.238479,52.7834667 158.850535,53.1400381 C158.385746,53.5653238 158.163268,54.1026571 158.021352,54.6765143 C157.995324,54.3292286 157.939549,54.0438476 158.065972,53.697181 C158.072789,53.6755143 158.040563,53.6625143 158.030648,53.6823238 C157.912901,53.9095143 157.891831,54.1069905 157.918479,54.3608 C157.940789,54.5793238 157.951944,54.7829905 157.951944,54.9878952 C157.837296,55.5654667 157.773465,56.1665619 157.614197,56.7162762 C157.332225,57.6807524 156.630704,58.4205143 156.011606,59.209181 C155.878986,58.8482762 155.741408,58.4886095 155.644113,58.1103714 C155.628,58.0150381 155.608789,57.9203238 155.586479,57.8256095 C155.544958,57.6015143 155.513972,57.3730857 155.51893,57.1298 C155.54062,56.0278952 155.355944,54.7848476 154.265859,54.205419 C153.959718,54.0426095 153.679606,53.9367524 153.416225,53.8773238 C153.240845,53.6105143 153.023324,53.3579429 152.794648,53.1555143 C152.61307,52.9939429 152.123493,52.7512762 151.987155,53.0929905 C151.972282,53.1295143 152.010085,53.1728476 152.047268,53.1716095 C152.178028,53.1672762 152.266028,53.0998 152.403606,53.1400381 C152.578986,53.1908 152.727099,53.3505143 152.851042,53.477419 C152.956394,53.5869905 153.048113,53.7126571 153.14293,53.8364667 C152.433352,53.7597048 151.818592,54.0172286 151.113352,54.4648 C150.661577,54.3583238 150.23831,53.8599905 149.834254,53.6848 C149.347155,53.4724667 148.762761,53.4798952 148.243437,53.5331333 C148.074254,53.5510857 148.068056,53.7566095 148.21431,53.8018 C148.221127,53.853181 148.245296,53.9039429 148.300451,53.9448 C148.306648,53.9497524 148.314704,53.9540857 148.322141,53.958419 C148.338873,53.9992762 148.369859,54.0320857 148.413859,54.0580857 C148.563831,54.4344667 148.683437,54.8083714 149.155662,54.8981333 C149.386197,54.9848 149.671268,54.9668476 149.812563,54.8028 C149.818141,54.7953714 149.82,54.789181 149.825577,54.7823714 C150.01893,54.6907524 150.189972,54.5527048 150.28231,54.3812286 C150.357915,54.438181 150.432901,54.4938952 150.509127,54.5477524 C150.599606,54.6090381 150.688845,54.6542286 150.776225,54.6858 C150.727268,54.7192286 150.679549,54.7520381 150.629972,54.7848476 C149.994141,55.2206571 149.283944,55.4206095 148.605352,55.6440857 C148.441746,55.6137524 147.983155,55.5227524 147.912507,55.5159429 C147.700563,55.4936571 147.288451,55.4292762 147.142817,55.6360381 C147.106254,55.6855619 147.153352,55.7648 147.213465,55.7610857 C147.363437,55.7505619 147.499155,55.7115619 147.653465,55.7146571 C147.846817,55.7189905 148.03893,55.7456095 148.231662,55.7555143 C148.241577,55.7561333 148.255831,55.7586095 148.270085,55.7592286 C147.545014,56.0186095 146.874479,56.3566095 146.397296,57.1106095 C146.318592,57.2356571 146.508845,57.3378 146.592507,57.2238952 C147.403718,56.1046571 148.278761,56.1826571 149.250479,55.9059429 C149.224451,55.9498952 149.204,55.9938476 149.18169,56.037181 C148.801183,56.441419 148.297972,56.7125619 147.921183,57.156419 C147.408676,57.7624667 147.678873,58.6347048 147.81831,59.3181333 C147.851775,59.4865143 148.042648,59.469181 148.118873,59.3577524 C148.454761,59.3008 148.831549,59.1144667 149.13769,58.9677524 C149.231268,58.9238 149.31493,58.8656095 149.391775,58.8030857 C149.667549,58.6675143 149.895606,58.4910857 149.986085,58.221181 C150.070366,57.9717048 150.109408,57.7216095 149.93093,57.4975143 C149.79769,57.3291333 149.641521,57.1886095 149.487831,57.0400381 C149.260394,56.8215143 149.20462,56.6110381 149.231268,56.4092286 C149.404169,56.2297048 149.543606,56.0303714 149.591944,55.7945143 C149.690479,55.7567524 149.790873,55.7146571 149.892507,55.6651333 C150.389521,55.4193714 150.843775,55.1383238 151.305465,54.8362286 C151.960507,54.4103238 152.603155,54.2766095 153.172056,54.3583238 C152.973746,54.4239429 152.793408,54.5124667 152.61431,54.6505143 C152.238141,54.9433238 152.054704,55.2745143 151.570085,55.4150381 C151.516789,55.4292762 151.507493,55.518419 151.569465,55.530181 C151.925183,55.5920857 152.17307,55.4063714 152.413521,55.1655619 C152.553577,55.0256571 152.670704,54.8616095 152.802085,54.7155143 C152.942141,54.5582762 153.121859,54.4598476 153.310254,54.3793714 C154.292507,54.5873714 155.008282,55.4695143 155.065296,56.6599429 C155.068394,56.7243238 155.070254,56.7874667 155.072113,56.8499905 C154.957465,56.7342286 154.822366,56.6345619 154.664958,56.557181 C153.981408,56.2278476 153.00907,56.7948952 152.506479,56.0607048 C152.466197,56.0031333 152.378197,56.0545143 152.411042,56.1170381 C152.652732,56.5615143 153.095831,56.6085619 153.562479,56.6178476 C153.944225,56.6258952 154.33093,56.5899905 154.68107,56.7670381 C154.873183,56.8623714 154.995887,57.0282762 155.083887,57.2238952 C155.101859,57.8033238 155.135944,58.3158952 155.413577,58.924419 C155.525746,59.1677048 155.609408,59.4091333 155.684394,59.6493238 C155.476789,59.9421333 155.293352,60.2473238 155.155155,60.5791333 C154.735606,61.5918952 154.909127,62.7328 155.114873,63.8025143 C155.068394,64.1052286 155.136563,64.4463238 155.246873,64.7279905 C155.266704,64.7775143 155.338592,64.761419 155.328676,64.7063238 C155.318141,64.6660857 155.316282,64.6270857 155.310704,64.5868476 C155.36338,64.6023238 155.43093,64.5763238 155.423493,64.5119429 C155.309465,63.3277048 155.084507,62.1205619 155.36462,60.9443714 C155.447042,60.600181 155.597634,60.2819905 155.78107,59.9792762 C156.055606,61.0688 156.025239,62.1298476 156.100225,63.2398 C156.095887,63.3060381 156.09093,63.3710381 156.092789,63.4385143 C156.070479,63.6390857 156.048789,63.8433714 156.059944,64.0420857 C156.04631,64.1640381 156.027718,64.2853714 156.025859,64.4079429 C156.025239,64.5113238 156.121915,64.552181 156.19938,64.5336095 C156.254535,64.5812762 156.342535,64.552181 156.360507,64.487181 C156.438592,64.4828476 156.517296,64.4147524 156.498085,64.3225143 C156.44231,64.0470381 156.416282,63.7628952 156.380958,63.4837048 C156.455324,62.5260381 156.478254,61.5739429 156.381577,60.6100857 C156.342535,60.2176095 156.235944,59.8505143 156.112,59.4896095 C156.555099,58.8916095 157.086197,58.3332286 157.466085,57.7321333 C157.831718,57.1533238 157.976113,56.5119905 158.093239,55.8632286 C158.403099,55.2881333 158.882141,55.0392762 159.612169,55.1971333 C160.037915,55.2906095 160.46862,55.049181 160.823718,54.8486095 C160.893746,54.8089905 160.847887,54.6938476 160.769803,54.7192286 C160.332282,54.8609905 159.988338,55.1005619 159.502479,55.0039905 C159.202535,54.9433238 159.004845,54.9303238 158.710479,55.0318476 C158.456394,55.1185143 158.281014,55.2992762 158.155211,55.5165619 C158.214085,55.1928 158.272338,54.867181 158.35662,54.5489905 C158.747042,53.0905143 160.294479,52.4714667 161.631211,52.242419 C162.055718,52.1687524 162.488901,52.1378 162.923944,52.1278952 C162.980338,52.2065143 163.037972,52.2808 163.099944,52.3519905 C163.572789,53.2545619 163.113577,54.2920857 163.30631,55.3184667 C163.398028,55.8056571 163.980563,56.6240381 164.476338,56.7459905 C165.415211,56.9756571 165.182817,55.518419 165.165465,54.9736571 C165.139437,54.1750857 164.97769,53.3703238 164.337521,52.8298952 C164.043775,52.5822762 163.412282,52.4739429 163.207775,52.1526571 C163.74631,52.047419 164.413746,52.1681333 164.964676,52.2127048 C165.883718,52.2857524 166.828789,52.5717524 167.494986,53.2279429 C167.678423,53.4074667 167.701352,53.6377524 167.822817,53.8878476 C167.695155,54.8962762 167.170254,55.8093714 166.925465,56.7769429 C166.810197,56.9707048 166.707324,57.1607524 166.635437,57.3483238 C166.20969,58.4310381 166.585239,59.2549905 166.863493,60.2070857 C166.859155,60.2368 166.999831,60.7345143 167.019662,60.8422286 C167.043831,60.9703714 167.218592,60.9233238 167.218592,60.8050857 C167.770141,60.0770857 169.134141,59.5620381 169.166986,58.534419 C169.207268,57.2858 168.044676,56.3306095 167.990761,55.1884667 C168.000676,55.1438952 168.008732,55.1005619 168.018028,55.0559905 C168.061408,54.9278476 168.097972,54.7972286 168.117183,54.6659905 C168.163662,54.8436571 168.208901,55.0169905 168.25662,55.1773238 C168.480958,55.920181 168.999662,56.4092286 169.693746,56.7156571 C170.632,57.1279429 172.015831,56.9868 172.535155,58.0348476 C172.574817,58.1140857 172.714254,58.0788 172.705577,57.9896571 C172.629352,57.0734667 171.90738,56.8580381 171.107324,56.6518952" id="Fill-217" fill="#009245"></path>
            <path d="M152.06431,55.8333905 C152.074845,55.8519619 152.08538,55.8711524 152.094056,55.8897238 C152.087239,55.8841524 152.079803,55.878581 152.071746,55.8730095 C152.049437,55.852581 152.036423,55.8302952 152.028366,55.8067714 C152.025268,55.7950095 152.022169,55.7820095 152.022169,55.7696286 C152.036423,55.7900571 152.051296,55.8104857 152.06431,55.8333905 M152.421268,55.9151048 C152.747859,55.9151048 152.707577,56.4221048 152.381606,56.4221048 C152.055014,56.4221048 152.094056,55.9151048 152.421268,55.9151048 M152.291127,56.6041048 C152.323972,56.5663429 152.356817,56.5223905 152.385324,56.4784381 C152.39462,56.5700571 152.408873,56.6629143 152.456592,56.7409143 C152.566901,56.919819 152.749099,56.9507714 152.94431,56.9396286 C152.990789,56.9365333 153.044085,56.9024857 153.077549,56.8585333 C153.092423,56.8399619 153.105437,56.8189143 153.108535,56.7984857 C153.112873,56.7780571 153.115352,56.7594857 153.11907,56.7409143 C153.148817,56.5527238 153.124028,56.3694857 152.996366,56.216581 C152.991408,56.2097714 152.985831,56.2054381 152.979014,56.1980095 C153.080028,56.1627238 153.178563,56.086581 153.225662,55.9918667 C153.274,55.8934381 153.29569,55.7826286 153.265324,55.6724381 C153.233718,55.5653429 153.170507,55.4687714 153.07507,55.4087238 C153.034169,55.3821048 152.98707,55.3629143 152.939972,55.3523905 C152.913944,55.3474381 152.889155,55.3431048 152.864366,55.3431048 C152.807972,55.3443429 152.759014,55.3548667 152.711915,55.371581 C152.667296,55.3889143 152.625775,55.410581 152.581775,55.4402952 C152.509887,55.4904381 152.451634,55.5659619 152.406394,55.6402476 C152.39462,55.6600571 152.384085,55.6798667 152.373549,55.6990571 C152.364873,55.7163905 152.356817,55.7343429 152.348141,55.7516762 C152.338845,55.7188667 152.32707,55.6879143 152.315296,55.6569619 C152.268817,55.5362476 152.198169,55.4229619 152.095915,55.3183429 C152.009155,55.228581 151.871577,55.2372476 151.797211,55.3387714 C151.647859,55.5424381 151.561099,55.7789143 151.672648,56.021581 C151.700535,56.0797714 151.745775,56.1404381 151.802169,56.1961524 C151.783577,56.2066762 151.764986,56.2172 151.746394,56.2302 C151.577831,56.3496762 151.605718,56.5917238 151.655296,56.762581 C151.686901,56.8690571 151.781718,56.9346762 151.884592,56.9105333 C151.899465,56.906819 151.912479,56.9037238 151.925493,56.8975333 C152.074845,56.8312952 152.188254,56.7285333 152.291127,56.6041048" id="Fill-218" fill="#FF7543"></path>
            <path d="M152.38173,56.4222286 C152.707701,56.4222286 152.747363,55.9152286 152.420772,55.9152286 C152.09418,55.9152286 152.055138,56.4222286 152.38173,56.4222286" id="Fill-219" fill="#FFD80B"></path>
            <path d="M160.481944,54.4078476 C160.492479,54.4270381 160.502394,54.4462286 160.51107,54.4648 C160.506113,54.4598476 160.497437,54.4542762 160.488761,54.4487048 C160.46707,54.4276571 160.454056,54.4053714 160.44662,54.3824667 C160.442901,54.3694667 160.439183,54.3570857 160.439183,54.3447048 C160.454056,54.3651333 160.46893,54.386181 160.481944,54.4078476 M160.838901,54.4908 C161.166113,54.4908 161.125831,54.997181 160.799239,54.997181 C160.472648,54.997181 160.51107,54.4908 160.838901,54.4908 M160.71,55.179181 C160.740986,55.141419 160.773831,55.0974667 160.802958,55.0535143 C160.812254,55.1463714 160.825887,55.2379905 160.874225,55.3166095 C160.983915,55.4948952 161.166113,55.5264667 161.361944,55.5140857 C161.408423,55.5116095 161.461099,55.478181 161.494563,55.4342286 C161.510056,55.4150381 161.522451,55.3933714 161.527408,55.3735619 C161.530507,55.3531333 161.533606,55.3345619 161.537944,55.3166095 C161.565831,55.1278 161.542282,54.9445619 161.41462,54.7916571 C161.408423,54.7848476 161.402845,54.7798952 161.397268,54.7737048 C161.498901,54.7378 161.595577,54.6616571 161.643296,54.5669429 C161.691634,54.4685143 161.713324,54.3583238 161.682958,54.2481333 C161.651352,54.140419 161.588141,54.0438476 161.492085,53.9825619 C161.451183,53.9578 161.405944,53.9386095 161.358225,53.9280857 C161.332197,53.9225143 161.307408,53.918181 161.28138,53.9188 C161.226225,53.919419 161.176028,53.9299429 161.130169,53.9466571 C161.08493,53.9639905 161.043408,53.9862762 161.000028,54.0159905 C160.926901,54.0661333 160.869268,54.1416571 160.824028,54.2153238 C160.812254,54.2351333 160.802338,54.2549429 160.791803,54.2747524 C160.781887,54.2914667 160.773831,54.3088 160.765155,54.3267524 C160.755859,54.2939429 160.744704,54.2629905 160.73293,54.2326571 C160.685831,54.1113238 160.615803,53.9980381 160.513549,53.893419 C160.426789,53.8036571 160.289211,53.8123238 160.215465,53.9144667 C160.066113,54.1175143 159.978732,54.3539905 160.090282,54.5966571 C160.118169,54.6548476 160.163408,54.7155143 160.219803,54.7718476 C160.201211,54.7817524 160.183239,54.7928952 160.164648,54.8046571 C159.996085,54.9247524 160.023352,55.1668 160.07293,55.3382762 C160.105155,55.4441333 160.198732,55.5103714 160.302845,55.4856095 C160.317099,55.4825143 160.329493,55.479419 160.343127,55.4732286 C160.492479,55.4063714 160.606507,55.3036095 160.71,55.179181" id="Fill-220" fill="#FF7543"></path>
            <path d="M160.799363,54.9973048 C161.125335,54.9973048 161.166237,54.4909238 160.838406,54.4909238 C160.511194,54.4909238 160.472772,54.9973048 160.799363,54.9973048" id="Fill-221" fill="#FFD80B"></path>
            <path d="M151.881803,52.7998095 C151.888,52.8128095 151.896676,52.8258095 151.902254,52.8394286 C151.897915,52.8363333 151.892338,52.832619 151.886761,52.8276667 C151.870648,52.8128095 151.861352,52.7967143 151.855775,52.7812381 C151.853915,52.7725714 151.852056,52.7632857 151.852056,52.753381 C151.861352,52.7688571 151.871887,52.7837143 151.881803,52.7998095 M152.137127,52.858619 C152.370141,52.858619 152.341014,53.2201429 152.10738,53.2201429 C151.874986,53.2201429 151.902254,52.858619 152.137127,52.858619 M152.043549,53.3495238 C152.067099,53.3222857 152.089408,53.2919524 152.110479,53.2591429 C152.116676,53.326619 152.127211,53.391619 152.161915,53.4473333 C152.23938,53.5748571 152.370141,53.5971429 152.510197,53.5890952 C152.541803,53.586619 152.580845,53.5618571 152.605014,53.5315238 C152.61493,53.5172857 152.623606,53.5030476 152.627324,53.4875714 C152.629183,53.4739524 152.631662,53.4597143 152.634761,53.4473333 C152.654592,53.313 152.637859,53.1817619 152.546141,53.0734286 C152.543042,53.0678571 152.538704,53.0647619 152.534366,53.0604286 C152.606873,53.0356667 152.676282,52.9805714 152.710366,52.9124762 C152.74507,52.8431429 152.759944,52.7632857 152.738254,52.6852857 C152.715324,52.6085238 152.670085,52.5398095 152.602535,52.4958571 C152.572789,52.4779048 152.539944,52.4642857 152.506479,52.4562381 C152.487887,52.4519048 152.469915,52.4506667 152.451944,52.4506667 C152.412282,52.4512857 152.377577,52.4580952 152.343493,52.4704762 C152.311268,52.4822381 152.282141,52.4995714 152.251155,52.52 C152.198479,52.5546667 152.158197,52.6097619 152.125972,52.662381 C152.116676,52.675381 152.109859,52.689619 152.101803,52.7038571 C152.095606,52.7162381 152.089408,52.7292381 152.083831,52.741 C152.076394,52.7187143 152.069577,52.6958095 152.060282,52.6735238 C152.026817,52.5874762 151.977239,52.507 151.904113,52.4320952 C151.842761,52.3695714 151.743606,52.3745238 151.69093,52.4475714 C151.584958,52.5918095 151.522366,52.7608095 151.60231,52.9335238 C151.622141,52.9762381 151.654986,53.0195714 151.694028,53.0579524 C151.682254,53.066 151.66862,53.0740476 151.654986,53.0827143 C151.534141,53.1681429 151.554592,53.3402381 151.590535,53.4621905 C151.611606,53.5383333 151.678535,53.585381 151.753521,53.5686667 C151.763437,53.5661905 151.773352,53.5637143 151.783268,53.56 C151.888,53.5117143 151.970423,53.4386667 152.043549,53.3495238" id="Fill-222" fill="#FF7543"></path>
            <path d="M152.107566,53.2199571 C152.3412,53.2199571 152.369707,52.8584333 152.137313,52.8584333 C151.90182,52.8584333 151.875172,53.2199571 152.107566,53.2199571" id="Fill-223" fill="#FFD80B"></path>
            <path d="M190.873239,78.7393286 C190.873239,79.6988524 190.094873,80.4763762 189.13431,80.4763762 L177.73893,80.4763762 C176.778366,80.4763762 176,79.6988524 176,78.7393286 L176,74.7842333 C176,73.8253286 176.778366,73.0478048 177.73893,73.0478048 L189.13431,73.0478048 C190.094873,73.0478048 190.873239,73.8253286 190.873239,74.7842333 L190.873239,78.7393286 Z" id="Fill-224" fill="#A67C52"></path>
            <path d="M190.873239,78.120281 C190.873239,79.0798048 190.094873,79.8573286 189.13431,79.8573286 L177.73893,79.8573286 C176.778366,79.8573286 176,79.0798048 176,78.120281 L176,75.403281 C176,74.4443762 176.778366,73.6668524 177.73893,73.6668524 L189.13431,73.6668524 C190.094873,73.6668524 190.873239,74.4443762 190.873239,75.403281 L190.873239,78.120281 Z" id="Fill-225" fill="#FFD80B"></path>
            <path d="M190.873239,78.120281 C190.873239,79.0798048 190.094873,79.8573286 189.13431,79.8573286 L177.73893,79.8573286 C176.778366,79.8573286 176,79.0798048 176,78.120281 L176,75.403281 C176,74.4443762 176.778366,73.6668524 177.73893,73.6668524 L189.13431,73.6668524 C190.094873,73.6668524 190.873239,74.4443762 190.873239,75.403281 L190.873239,78.120281 Z" id="Fill-226" fill="#000000"></path>
            <polygon id="Fill-227" fill="#A67C52" points="175.380282 79.2380952 192.112676 79.2380952 192.112676 78.6190476 175.380282 78.6190476"></polygon>
            <polygon id="Fill-228" fill="#87603D" points="174.760563 80.4761905 193.352113 80.4761905 193.352113 79.2380952 174.760563 79.2380952"></polygon>
            <path d="M187.637876,75.6858143 C187.637876,75.8238619 187.526946,75.9346714 187.389369,75.9346714 L181.181031,75.9346714 C181.043454,75.9346714 180.932524,75.8238619 180.932524,75.6858143 L180.932524,74.6383857 C180.932524,74.5009571 181.043454,74.3882905 181.181031,74.3882905 L187.389369,74.3882905 C187.526946,74.3882905 187.637876,74.5009571 187.637876,74.6383857 L187.637876,75.6858143 Z" id="Fill-229" fill="#FFFFFF"></path>
            <path d="M187.465408,75.5830524 C187.465408,75.6932429 187.359437,75.7823857 187.229296,75.7823857 L181.343211,75.7823857 C181.211831,75.7823857 181.105859,75.6932429 181.105859,75.5830524 L181.105859,74.7423857 C181.105859,74.6315762 181.211831,74.5411952 181.343211,74.5411952 L187.229296,74.5411952 C187.359437,74.5411952 187.465408,74.6315762 187.465408,74.7423857 L187.465408,75.5830524 Z" id="Fill-230" fill="#E6E6E6"></path>
            <path d="M182.143639,77.0442524 C182.143639,77.4119667 181.846794,77.7103476 181.476823,77.7103476 C181.10871,77.7103476 180.810625,77.4119667 180.810625,77.0442524 C180.810625,76.675919 181.10871,76.3781571 181.476823,76.3781571 C181.846794,76.3781571 182.143639,76.675919 182.143639,77.0442524" id="Fill-231" fill="#FFFFFF"></path>
            <path d="M182.022299,77.0442524 C182.022299,77.3451095 181.77751,77.5890143 181.476946,77.5890143 C181.176383,77.5890143 180.932214,77.3451095 180.932214,77.0442524 C180.932214,76.7427762 181.176383,76.4994905 181.476946,76.4994905 C181.77751,76.4994905 182.022299,76.7427762 182.022299,77.0442524" id="Fill-232" fill="#A67C52"></path>
            <path d="M181.840721,77.0442524 C181.840721,77.2442048 181.678355,77.4070143 181.476946,77.4070143 C181.275538,77.4070143 181.113792,77.2442048 181.113792,77.0442524 C181.113792,76.843681 181.275538,76.6814905 181.476946,76.6814905 C181.678355,76.6814905 181.840721,76.843681 181.840721,77.0442524" id="Fill-233" fill="#FFCC31"></path>
            <path d="M184.951087,77.0442524 C184.951087,77.4119667 184.653003,77.7103476 184.28427,77.7103476 C183.918017,77.7103476 183.618073,77.4119667 183.618073,77.0442524 C183.618073,76.675919 183.918017,76.3781571 184.28427,76.3781571 C184.653003,76.3781571 184.951087,76.675919 184.951087,77.0442524" id="Fill-234" fill="#FFFFFF"></path>
            <path d="M184.830366,77.0442524 C184.830366,77.3451095 184.586197,77.5890143 184.284394,77.5890143 C183.984451,77.5890143 183.739662,77.3451095 183.739662,77.0442524 C183.739662,76.7427762 183.984451,76.4994905 184.284394,76.4994905 C184.586197,76.4994905 184.830366,76.7427762 184.830366,77.0442524" id="Fill-235" fill="#A67C52"></path>
            <path d="M184.648231,77.0442524 C184.648231,77.2442048 184.485865,77.4070143 184.284456,77.4070143 C184.084907,77.4070143 183.921301,77.2442048 183.921301,77.0442524 C183.921301,76.843681 184.084907,76.6814905 184.284456,76.6814905 C184.485865,76.6814905 184.648231,76.843681 184.648231,77.0442524" id="Fill-236" fill="#FFCC31"></path>
            <path d="M187.759837,77.0442524 C187.759837,77.4119667 187.461132,77.7103476 187.09302,77.7103476 C186.725527,77.7103476 186.426823,77.4119667 186.426823,77.0442524 C186.426823,76.675919 186.725527,76.3781571 187.09302,76.3781571 C187.461132,76.3781571 187.759837,76.675919 187.759837,77.0442524" id="Fill-237" fill="#FFFFFF"></path>
            <path d="M187.637876,77.0442524 C187.637876,77.3451095 187.394327,77.5890143 187.093144,77.5890143 C186.79258,77.5890143 186.547792,77.3451095 186.547792,77.0442524 C186.547792,76.7427762 186.79258,76.4994905 187.093144,76.4994905 C187.394327,76.4994905 187.637876,76.7427762 187.637876,77.0442524" id="Fill-238" fill="#A67C52"></path>
            <path d="M187.456918,77.0442524 C187.456918,77.2442048 187.293932,77.4070143 187.093144,77.4070143 C186.891735,77.4070143 186.729369,77.2442048 186.729369,77.0442524 C186.729369,76.843681 186.891735,76.6814905 187.093144,76.6814905 C187.293932,76.6814905 187.456918,76.843681 187.456918,77.0442524" id="Fill-239" fill="#FFCC31"></path>
            <polygon id="Fill-240" fill="#302A34" points="225.230113 129.725514 221.946845 129.725514 221.946845 119.752657 227.211972 119.752657"></polygon>
            <polygon id="Fill-241" fill="#302A34" points="281.158451 129.725514 284.346901 129.725514 284.346901 119.752657 279.176592 119.752657"></polygon>
            <path d="M295.566901,71.214681 L283.352873,71.214681 L283.352873,115.144776 C283.352873,116.197157 282.814338,116.427443 281.762056,116.427443 L225.555465,116.427443 C224.502563,116.427443 223.913831,116.197157 223.913831,115.144776 L223.913831,71.214681 L211.751859,71.214681 C210.658056,71.214681 209.270507,71.3948238 209.270507,72.488681 L209.270507,123.9823 C209.270507,125.076157 210.658056,125.735443 211.751859,125.735443 L295.566901,125.735443 C296.660085,125.735443 297.996817,125.076157 297.996817,123.9823 L297.996817,72.488681 C297.996817,71.3948238 296.660085,71.214681 295.566901,71.214681" id="Fill-242" fill="#302A34"></path>
            <path d="M281.761808,96.1470714 C281.761808,97.2403095 280.803104,97.8705 279.708062,97.8705 L227.483161,97.8705 C226.388118,97.8705 225.185245,97.2403095 225.185245,96.1470714 L225.185245,61.8735 C225.185245,60.7802619 226.388118,59.9711667 227.483161,59.9711667 L279.708062,59.9711667 C280.803104,59.9711667 281.761808,60.7802619 281.761808,61.8735 L281.761808,96.1470714 Z" id="Fill-243" fill="#FED859"></path>
            <path d="M281.761808,100.515443 C281.761808,99.4222048 280.698992,98.5357286 279.594654,98.5357286 L227.184456,98.5357286 C226.079499,98.5357286 225.185245,99.4222048 225.185245,100.515443 L225.185245,112.513205 C225.185245,113.605824 226.079499,114.493538 227.184456,114.493538 L279.594654,114.493538 C280.698992,114.493538 281.761808,113.605824 281.761808,112.513205 L281.761808,100.515443 Z" id="Fill-244" fill="#FF9169"></path>
            <path d="M281.761808,110.489724 C281.761808,109.395867 280.698992,108.50939 279.594654,108.50939 L227.184456,108.50939 C226.079499,108.50939 225.185245,109.395867 225.185245,110.489724 L225.185245,113.178248 C225.185245,114.270867 226.079499,115.157962 227.184456,115.157962 L279.594654,115.157962 C280.698992,115.157962 281.761808,114.270867 281.761808,113.178248 L281.761808,110.489724 Z" id="Fill-245" fill="#B6483D"></path>
            <path d="M275.166456,101.366633 C277.769893,104.681014 250.136034,101.349919 253.453386,98.748681 C250.136034,101.349919 253.470738,73.7453476 256.074794,77.0603476 C253.470738,73.7453476 281.104597,77.0770619 277.787245,79.677681 C281.104597,77.0770619 277.769893,104.681014 275.166456,101.366633" id="Fill-246" fill="#FFFFFF"></path>
            <path d="M275.166456,101.366633 C277.769893,104.681014 250.136034,101.349919 253.453386,98.748681 C250.136034,101.349919 253.470738,73.7453476 256.074794,77.0603476 C253.470738,73.7453476 281.104597,77.0770619 277.787245,79.677681 C281.104597,77.0770619 277.769893,104.681014 275.166456,101.366633" id="Fill-247" fill="#000000"></path>
            <path d="M265.430062,101.508086 C265.430062,101.508086 260.388654,101.779848 252.557273,100.77699 C244.725893,99.7741333 240.718794,98.3447524 240.718794,98.3447524 L242.108203,87.5132762 C242.108203,87.5132762 246.146907,87.1127524 254.179076,88.1409905 C262.210006,89.1692286 266.81947,90.6778476 266.81947,90.6778476 L265.430062,101.508086 Z" id="Fill-248" fill="#ED1C24"></path>
            <polygon id="Fill-249" fill="#FED859" points="0.61971831 120.095238 133.859155 120.095238 133.859155 110.809524 0.61971831 110.809524"></polygon>
            <polygon id="Fill-250" fill="#949B9C" points="54.0648451 110.591 75.5994366 110.591 75.5994366 102.703714 54.0648451 102.703714"></polygon>
            <path d="M16.7390254,90.5145429 L112.924885,90.5145429 L112.924885,35.0163048 C112.924885,34.3093524 112.284715,34.5860667 111.577617,34.5860667 L18.174293,34.5860667 C17.4671944,34.5860667 16.6993634,34.8343048 16.6993634,35.5412571" id="Fill-251" fill="#323526"></path>
            <path d="M112.858946,90.5145429 L16.7387775,90.5145429 L16.7387775,101.187543 C16.7387775,101.587448 17.0752845,102.058543 17.3628338,102.293162 C17.5840732,102.472686 18.0104394,102.70359 18.3190592,102.70359 L54.6977634,102.70359 L75.4174254,102.70359 L111.79613,102.70359 C112.504468,102.70359 112.924637,101.894495 112.924637,101.187543 L112.924637,90.5145429 L112.858946,90.5145429 Z" id="Fill-252" fill="#DBDEDC"></path>
            <path d="M66.5065577,97.430481 C66.3634028,97.0844333 66.1427831,96.7631476 65.9723606,96.4301 C65.7449239,95.9837667 65.8874592,95.5281476 65.7244732,95.0867667 C65.5862761,94.7097667 65.3675155,94.5451 65.065093,94.5160048 C65.0093183,94.3073857 64.9622197,94.0931952 64.9237972,93.8790048 C65.1183887,93.9588619 65.3811493,93.9155286 65.5652056,93.855481 C65.7945014,93.7811952 66.0033465,93.5775286 66.1105577,93.3429095 C66.2115718,93.1850524 66.2723042,92.9522905 66.1266704,92.803719 C66.1018817,92.7795762 66.0677972,92.7771 66.0423887,92.7901 C65.7560789,92.7523381 65.3879662,92.9962429 65.1741634,93.1559571 C65.0465014,93.2519095 64.937431,93.3788143 64.8686423,93.5230524 C64.8153465,93.062481 64.8227831,92.6000524 64.9523042,92.1543381 C64.9715155,92.0930524 64.8835155,92.0429095 64.8488113,92.1035762 C64.462107,92.7671952 64.5352338,93.7093857 64.7546141,94.5290048 C64.7087549,94.5364333 64.6635155,94.5426238 64.6145577,94.5543857 C64.5575437,94.5667667 64.5123042,94.5896714 64.4751211,94.6175286 C64.3164732,94.6794333 64.1869521,94.7964333 64.1194028,95.0050524 C63.8058254,95.9769571 63.7835155,97.0113857 63.4866704,97.9925762 C63.1080225,99.2399571 63.7277408,100.377767 65.1822197,100.266957 C66.7191211,100.151195 67.0190648,98.6729095 66.5065577,97.430481" id="Fill-253" fill="#323526"></path>
            <polygon id="Fill-254" fill="#72BDC5" points="21.0456338 86.2122857 109.335662 86.2122857 109.335662 38.1717143 21.0456338 38.1717143"></polygon>
            <g id="Group-258" transform="translate(20.450704, 37.761905)">
                <mask id="mask-2" fill="white">
                    <use xlink:href="#path-1"></use>
                </mask>
                <g id="Clip-257"></g>
                <polygon id="Fill-256" fill="#FCF5F1" mask="url(#mask-2)" points="88.3782761 -17.7909952 -4.94138592 68.141481 -7.25293521 65.6368143 86.066107 -20.2969"></polygon>
            </g>
            <g id="Group-261" transform="translate(22.309859, 37.761905)">
                <mask id="mask-4" fill="white">
                    <use xlink:href="#path-3"></use>
                </mask>
                <g id="Clip-260"></g>
                <polygon id="Fill-259" fill="#FCF5F1" mask="url(#mask-4)" points="94.8553239 -18.5436333 1.53566197 67.3888429 0.452394366 66.2157476 93.7726761 -19.7173476"></polygon>
            </g>
            <path d="M78.3789352,111.103324 C78.2215268,110.325181 77.5336394,109.740181 76.7081746,109.740181 L52.8248507,109.740181 C51.9993859,109.740181 51.3114986,110.325181 51.1534704,111.103324 L78.3789352,111.103324 Z" id="Fill-263" fill="#DBDEDC"></path>
            <polygon id="Fill-265" fill="#736357" points="124.816349 93.6291571 127.200406 72.6682048 127.206603 72.6143476 127.216518 72.5895857 128.824687 69.018919 127.78542 72.7938714 127.800913 72.7158714 126.17787 93.9232048"></polygon>
            <polygon id="Fill-267" fill="#736357" points="126.065454 87.1768857 119.277679 80.8409333 126.454017 86.7355048"></polygon>
            <polygon id="Fill-269" fill="#736357" points="126.486056 82.1265714 121.911296 72.2515238 127.013437 81.8647143"></polygon>
            <polygon id="Fill-271" fill="#736357" points="127.24893 73.2096238 123.41907 66.2632905 127.75338 72.9087667"></polygon>
            <polygon id="Fill-273" fill="#736357" points="126.503037 83.7382619 130.14822 78.6422619 126.732952 84.5436429"></polygon>
            <polygon id="Fill-275" fill="#29A89E" points="129.560789 110.809524 121.617239 110.809524 124.118423 91.6190476 127.059606 91.6190476"></polygon>
            <polygon id="Fill-277" fill="#302A34" points="0.114647887 129.725762 2.39521127 129.725762 2.39521127 110.88381 0.114647887 110.88381"></polygon>
            <polygon id="Fill-279" fill="#302A34" points="65.1057465 122.581952 67.3863099 122.581952 67.3863099 110.88381 65.1057465 110.88381"></polygon>
            <polygon id="Fill-280" fill="#302A34" points="0.829802817 113.161905 134.923211 113.161905 134.923211 110.88381 0.829802817 110.88381"></polygon>
            <polygon id="Fill-281" fill="#302A34" points="0.829802817 122.582571 134.923211 122.582571 134.923211 120.305095 0.829802817 120.305095"></polygon>
            <polygon id="Fill-282" fill="#302A34" points="132.642648 129.725762 134.923211 129.725762 134.923211 110.88381 132.642648 110.88381"></polygon>
            <polygon id="Fill-283" fill="#302A34" points="24.7887324 117.619048 35.943662 117.619048 35.943662 115.761905 24.7887324 115.761905"></polygon>
            <polygon id="Fill-284" fill="#302A34" points="97.915493 117.619048 109.690141 117.619048 109.690141 115.761905 97.915493 115.761905"></polygon>
            <path d="M435.042254,84.2775143 C435.042254,90.7255143 429.809972,95.9521333 423.354986,95.9521333 L423.180225,95.9521333 C416.725239,95.9521333 411.492958,90.7255143 411.492958,84.2775143 L411.492958,58.7226095 C411.492958,52.2746095 416.725239,47.0473714 423.180225,47.0473714 L423.354986,47.0473714 C429.809972,47.0473714 435.042254,52.2746095 435.042254,58.7226095 L435.042254,84.2775143 Z" id="Fill-285" fill="#D64C4C"></path>
            <polygon id="Fill-286" fill="#302A34" points="437.889054 129.725514 439.891983 129.725514 438.889899 87.7268476 435.641955 87.7268476"></polygon>
            <polygon id="Fill-287" fill="#302A34" points="408.684828 129.725514 406.681899 129.725514 407.683983 89.7511333 410.931927 89.7511333"></polygon>
            <polygon id="Fill-288" fill="#302A34" points="407.15493 102.142857 438.760563 102.142857 438.760563 89.7619048 407.15493 89.7619048"></polygon>
            <path d="M435.748485,84.1904762 L411.608597,84.1904762 C409.525724,84.1904762 407.836992,86.6666667 407.836992,89.7619048 L439.52133,89.7619048 C439.52133,86.6666667 437.833217,84.1904762 435.748485,84.1904762" id="Fill-289" fill="#F56563"></path>
            <polygon id="Fill-290" fill="#302A34" points="330.309859 81.0952381 343.323944 81.0952381 343.323944 78.6190476 330.309859 78.6190476"></polygon>
            <polygon id="Fill-291" fill="#302A34" points="335.267606 78.6190476 337.746479 78.6190476 337.746479 58.8095238 335.267606 58.8095238"></polygon>
            <polygon id="Fill-292" fill="#302A34" points="349.921775 55.570419 331.372366 63.3010857 330.820197 61.9775619 349.368366 54.2468952"></polygon>
            <polygon id="Fill-293" fill="#302A34" points="355.044118 57.3205286 347.562259 60.4386714 346.198879 52.4597667 350.327442 50.7394333"></polygon>
            <path d="M339.634699,59.4007762 C339.634699,60.8604905 338.449797,62.0447286 336.987882,62.0447286 C335.525966,62.0447286 334.341065,60.8604905 334.341065,59.4007762 C334.341065,57.9410619 335.525966,56.7568238 336.987882,56.7568238 C338.449797,56.7568238 339.634699,57.9410619 339.634699,59.4007762" id="Fill-294" fill="#F2C238"></path>
            <polygon id="Fill-295" fill="#527872" points="347.149961 72.7127143 346.926242 71.9141429 347.123932 73.3682857 347.19458 73.3682857"></polygon>
            <polygon id="Fill-296" fill="#527872" points="347.055577 71.3917905 346.691803 68.7466 346.502169 68.7670286 346.725268 70.3876952 347.077268 71.6808857"></polygon>
            <polygon id="Fill-297" fill="#527872" points="347.836237 69.2190571 347.645983 69.2487714 347.838715 73.3679143 348.029589 73.3679143"></polygon>
            <polygon id="Fill-298" fill="#B6483D" points="349.604665 73.3680381 350.504496 69.662419 350.317341 69.6048476 349.423087 73.2801333 349.418749 73.3680381"></polygon>
            <polygon id="Fill-299" fill="#B6483D" points="348.93227 71.7702143 348.980608 68.6316429 348.790355 68.6619762 348.717848 73.3679762 348.729003 73.3679762"></polygon>
            <polygon id="Fill-300" fill="#FF7543" points="347.338789 72.6438143 347.120648 69.6791952 346.930394 69.6903381 347.055577 71.3921 347.077268 71.6805762"></polygon>
            <polygon id="Fill-301" fill="#FF7543" points="347.149961 72.7568524 347.19458 73.3678524 347.316045 73.3678524"></polygon>
            <polygon id="Fill-302" fill="#FF7543" points="351.167223 70.6892952 350.990603 70.647819 349.763561 73.3679143 349.969927 73.3679143"></polygon>
            <polygon id="Fill-303" fill="#A6C92E" points="348.920744 73.3680381 349.4568 69.232181 349.267786 69.1913238 348.932518 71.781419 348.728631 73.3680381"></polygon>
            <polygon id="Fill-304" fill="#A6C92E" points="348.312552 70.8199143 348.122918 70.854581 348.323707 73.3679143 348.51458 73.3679143"></polygon>
            <polygon id="Fill-305" fill="#A6C92E" points="349.418873 73.3680381 349.423211 73.2702286 349.791324 68.4478476 349.60107 68.4688952 349.22738 73.3680381"></polygon>
            <polygon id="Fill-306" fill="#A6C92E" points="347.315797 73.3680381 347.512248 73.3680381 347.338727 72.6877048 347.077206 71.7028 346.725206 70.3984667 346.689262 70.2610381 346.503966 70.298181 346.925994 71.8495143 347.149713 72.7130857"></polygon>
            <polygon id="Fill-307" fill="#FFBD32" points="349.763808 73.3680381 349.604541 73.3680381 349.418625 73.3680381 349.227752 73.3680381 348.920992 73.3680381 348.728879 73.3680381 348.718344 73.3680381 348.514456 73.3680381 348.323583 73.3680381 348.029217 73.3680381 347.838963 73.3680381 347.512372 73.3680381 347.315921 73.3680381 347.194456 73.3680381 347.123808 73.3680381 346.787921 73.3680381 347.359301 80.113181 349.839414 80.113181 350.410794 73.3680381 349.970175 73.3680381"></polygon>
            <polygon id="Fill-308" fill="#29ABE2" points="376.209915 80.1858571 392.060451 80.1858571 392.060451 77.922 376.209915 77.922"></polygon>
            <polygon id="Fill-309" fill="#FCE476" points="379.778873 75.6587619 391.789014 75.6587619 391.789014 73.7712857 379.778873 73.7712857"></polygon>
            <polygon id="Fill-310" fill="#F7931E" points="376.912056 77.922 392.763831 77.922 392.763831 75.6587619 376.912056 75.6587619"></polygon>
            <polygon id="Fill-311" fill="#FED859" points="325.352113 99.047619 401.577465 99.047619 401.577465 81.0952381 325.352113 81.0952381"></polygon>
            <polygon id="Fill-312" fill="#302A34" points="323.492958 82.3333333 402.816901 82.3333333 402.816901 80.4761905 323.492958 80.4761905"></polygon>
            <polygon id="Fill-313" fill="#302A34" points="323.492958 99.6666667 402.816901 99.6666667 402.816901 97.1904762 323.492958 97.1904762"></polygon>
            <polygon id="Fill-314" fill="#302A34" points="400.974479 129.725762 403.255042 129.725762 403.255042 80.8160476 400.974479 80.8160476"></polygon>
            <polygon id="Fill-315" fill="#302A34" points="323.579099 129.725762 325.859042 129.725762 325.859042 80.8160476 323.579099 80.8160476"></polygon>
            <path d="M370.331949,12.9171714 L370.331949,10.6923143 L365.910879,10.6923143 L365.910879,12.8106952 C363.384907,13.3740286 360.404682,16.0984571 360.404682,19.3812667 C360.404682,23.0732667 363.836682,28.6354095 367.818992,28.6354095 C371.796963,28.6354095 375.379555,23.0732667 375.379555,19.3812667 C375.379555,16.2705524 372.858541,13.6600286 370.331949,12.9171714" id="Fill-316" fill="#2FC1C7"></path>
            <polygon id="Fill-317" fill="#F34B6E" points="390.555155 28.9881429 392.449014 28.9881429 392.449014 9.42995238 390.555155 9.42995238"></polygon>
            <polygon id="Fill-318" fill="#FEDD76" points="396.236732 28.9881429 399.396676 28.9881429 399.396676 6.90547619 396.236732 6.90547619"></polygon>
            <polygon id="Fill-319" fill="#4E1F13" points="392.449014 28.9881429 396.237352 28.9881429 396.237352 11.9538095 392.449014 11.9538095"></polygon>
            <polygon id="Fill-320" fill="#8C6239" points="382.414597 28.9882048 385.237414 28.9882048 384.296062 9.43001429 381.474485 9.43001429"></polygon>
            <polygon id="Fill-321" fill="#FEDD76" points="378.55493 28.9881429 381.713634 28.9881429 381.713634 6.90547619 378.55493 6.90547619"></polygon>
            <polygon id="Fill-322" fill="#2FC1C7" points="385.237228 28.9882048 388.998918 28.9882048 389.939031 11.9538714 386.177961 11.9538714"></polygon>
            <polygon id="Fill-323" fill="#4E1F13" points="356.100676 31.1956667 404.788225 31.1956667 404.788225 28.9881429 356.100676 28.9881429"></polygon>
        </g>
    </g>
</svg>