<?xml version="1.0" encoding="UTF-8"?>
<svg width="120px" height="120px" viewBox="0 0 120 120" version="1.1" xmlns="http://www.w3.org/2000/svg" xmlns:xlink="http://www.w3.org/1999/xlink">
    <!-- Generator: Sketch 51.1 (57501) - http://www.bohemiancoding.com/sketch -->
    <title>Car86</title>
    <desc>Created with Sketch.</desc>
    <defs></defs>
    <g id="Car86" stroke="none" stroke-width="1" fill="none" fill-rule="evenodd">
        <g id="Group" transform="translate(60.000000, 60.500000) scale(-1, 1) translate(-60.000000, -60.500000) translate(2.000000, 40.000000)">
            <path d="M113.256707,27.9891175 L115.888412,27.9891175 L115.888412,30.0297667 C115.888412,31.6496263 114.829467,33.076714 113.289443,33.527714 L109.871357,34.5318544 L104.954523,34.5318544 C105.121762,33.8693807 105.210719,33.1766965 105.210719,32.4609947 C105.210719,30.8245912 104.748142,29.2975211 103.942547,28.0056614 C111.16586,27.9955912 113.00478,27.9891175 113.00478,27.9891175 L113.256707,27.9891175 Z" id="Fill-220" fill="#CECA86"></path>
            <path d="M63.7809276,14.0330053 L66.0817129,2.6213386 L58.2712834,2.6213386 C53.8504736,2.6213386 49.5470871,4.0959 46.0371975,6.81484737 L35.8377374,14.7120228 C35.8377374,14.7120228 51.0351607,14.3279175 63.7809276,14.0330053 Z M113.256707,25.5604789 L113.256707,27.9888298 L113.004069,27.9888298 C113.004069,27.9888298 111.165148,27.9953035 103.942547,28.006093 C102.477247,25.6403211 99.874719,24.070093 96.9092466,24.070093 C93.9366577,24.070093 91.3305718,25.6467947 89.8688294,28.0183211 C70.9423264,28.0420579 45.5746209,28.0751456 27.5391117,28.095286 C26.0844859,25.6798825 23.4527804,24.070093 20.4503018,24.070093 C17.4414184,24.070093 14.8068663,25.6863561 13.3515288,28.1118298 C8.38630184,28.1183035 5.3382773,28.1219 5.13830184,28.1219 C10.906989,27.2069526 12.1488294,23.2421807 12.1488294,23.2421807 L5.52828957,23.2421807 L5.45285399,23.1860754 C6.3936638,21.9330579 7.57359018,20.6980228 9.00259632,19.8032158 C13.3152344,17.1065667 33.8550626,13.0561982 33.8550626,13.0561982 L45.1981546,4.40304035 C48.6881178,1.74307544 52.9424,0.302321053 57.3148172,0.302321053 L68.0544245,0.302321053 C69.3624491,0.302321053 70.4213939,1.37191754 70.4213939,2.69398772 L70.4213939,15.2781105 L76.4839951,15.2781105 L93.1396025,15.2781105 L98.4364613,15.2781105 L109.094228,15.2781105 L113.256707,15.2781105 L113.256707,17.7697596 L107.757026,17.7697596 L107.757026,22.2315667 C107.757026,24.070093 109.23229,25.5604789 111.050572,25.5604789 L113.256707,25.5604789 Z" id="Fill-221" fill="#BFBC62"></path>
            <path d="M113.256707,17.7700474 L113.256707,25.5607667 L111.050572,25.5607667 C109.23229,25.5607667 107.757026,24.0703807 107.757026,22.2318544 L107.757026,17.7700474 L113.256707,17.7700474 Z" id="Fill-222" fill="#FC6460"></path>
            <polygon id="Fill-223" fill="#BD8864" points="98.436319 15.278614 109.094086 15.278614 109.094086 11.800807 98.436319 11.800807"></polygon>
            <path d="M101.33333,32.4608509 C101.33333,29.9929386 99.3542135,27.9889737 96.908962,27.9889737 C94.4637104,27.9889737 92.4845939,29.9929386 92.4845939,32.4608509 C92.4845939,34.9323596 94.4637104,36.9334474 96.908962,36.9334474 C99.3542135,36.9334474 101.33333,34.9323596 101.33333,32.4608509 M103.942263,28.0062368 C104.748569,29.2980965 105.210434,30.8251667 105.210434,32.4608509 C105.210434,33.1765526 105.122189,33.8692368 104.95495,34.5317105 C104.044029,38.1656053 100.786066,40.8550614 96.908962,40.8550614 C93.0318577,40.8550614 89.7738945,38.1656053 88.8629742,34.5317105 C88.695735,33.8692368 88.6074896,33.1765526 88.6074896,32.4608509 C88.6074896,30.8309211 89.0657963,29.3074474 89.8692564,28.0184649 C91.3309988,25.6469386 93.936373,24.0702368 96.908962,24.0702368 C99.875146,24.0702368 102.476962,25.6404649 103.942263,28.0062368" id="Fill-224" fill="#3B4D57"></path>
            <path d="M98.318184,32.4608509 C98.318184,31.6760965 97.6855215,31.0395175 96.9091043,31.0395175 C96.1319755,31.0395175 95.5000245,31.6760965 95.5000245,32.4608509 C95.5000245,33.2463246 96.1319755,33.8850614 96.9091043,33.8850614 C97.6855215,33.8850614 98.318184,33.2463246 98.318184,32.4608509 M100.435362,32.0371842 C100.759877,32.2292368 100.759877,32.6960614 100.435362,32.8888333 C99.6980859,33.3290439 99.4881472,33.8426228 99.7009325,34.6842018 C99.7927362,35.0481667 99.4689325,35.3761667 99.1081227,35.2833772 C98.2754847,35.068307 97.7680736,35.2805 97.3282699,36.0285702 C97.1382577,36.3529737 96.6792393,36.3529737 96.489227,36.0285702 C96.0536933,35.2805 95.5420123,35.068307 94.7129325,35.2833772 C94.3492761,35.3761667 94.0247607,35.0481667 94.1165644,34.6842018 C94.3300613,33.8426228 94.1201227,33.3290439 93.382135,32.8888333 C93.0611779,32.6960614 93.0611779,32.2292368 93.382135,32.0371842 C94.1201227,31.5969737 94.3300613,31.0797982 94.1165644,30.2418158 C94.0247607,29.8735351 94.3492761,29.5455351 94.7129325,29.6383246 C95.5420123,29.8577105 96.0536933,29.6419211 96.489227,28.8967281 C96.6792393,28.5723246 97.1382577,28.5723246 97.3282699,28.8967281 C97.7680736,29.6419211 98.2754847,29.8577105 99.1081227,29.6383246 C99.4689325,29.5455351 99.7927362,29.8735351 99.7009325,30.2418158 C99.4881472,31.0797982 99.6980859,31.5969737 100.435362,32.0371842" id="Fill-225" fill="#BFBC62"></path>
            <path d="M100.435433,32.8886175 C100.759948,32.6958456 100.759948,32.2290211 100.435433,32.0369684 C99.6981571,31.5967579 99.4882184,31.0795825 99.7010037,30.2416 C99.7928074,29.8740386 99.4690037,29.5460386 99.1081939,29.6381088 C98.2755558,29.8574947 97.7674331,29.6417053 97.3283411,28.8965123 C97.1383288,28.5721088 96.6793104,28.5721088 96.4892982,28.8965123 C96.0537644,29.6417053 95.5420834,29.8574947 94.7130037,29.6381088 C94.3493472,29.5460386 94.0248319,29.8740386 94.1166356,30.2416 C94.3294209,31.0795825 94.1194822,31.5967579 93.3822061,32.0369684 C93.0612491,32.2290211 93.0612491,32.6958456 93.3822061,32.8886175 C94.1194822,33.3288281 94.3294209,33.842407 94.1166356,34.683986 C94.0248319,35.0479509 94.3493472,35.3759509 94.7130037,35.2831614 C95.5420834,35.0680912 96.0537644,35.2802842 96.4892982,36.0283544 C96.6793104,36.3527579 97.1383288,36.3527579 97.3283411,36.0283544 C97.7674331,35.2802842 98.2755558,35.0680912 99.1081939,35.2831614 C99.4690037,35.3759509 99.7928074,35.0479509 99.7010037,34.683986 C99.4882184,33.842407 99.6981571,33.3288281 100.435433,32.8886175 M96.9091755,27.9887579 C99.3537153,27.9887579 101.333544,29.9934421 101.333544,32.4606351 C101.333544,34.9321439 99.3537153,36.9332316 96.9091755,36.9332316 C94.4639239,36.9332316 92.4848074,34.9321439 92.4848074,32.4606351 C92.4848074,29.9934421 94.4639239,27.9887579 96.9091755,27.9887579" id="Fill-226" fill="#767D85"></path>
            <path d="M96.9091043,31.0398053 C97.6855215,31.0398053 98.318184,31.6763842 98.318184,32.4611386 C98.318184,33.245893 97.6855215,33.8853491 96.9091043,33.8853491 C96.1319755,33.8853491 95.5000245,33.245893 95.5000245,32.4611386 C95.5000245,31.6763842 96.1319755,31.0398053 96.9091043,31.0398053" id="Fill-227" fill="#767D85"></path>
            <polygon id="Fill-228" fill="#BD8864" points="76.4845644 15.278614 93.1401718 15.278614 93.1401718 9.64722807 76.4845644 9.64722807"></polygon>
            <path d="M88.8629742,34.5316386 L28.4967166,34.5316386 C28.6639558,33.8691649 28.7522012,33.1764807 28.7522012,32.4607789 C28.7522012,30.8639368 28.3095509,29.3670772 27.5395387,28.0953579 C45.5750479,28.0752175 70.9420417,28.0421298 89.8692564,28.018393 C89.0657963,29.3073754 88.6074896,30.8308491 88.6074896,32.4607789 C88.6074896,33.1764807 88.695735,33.8691649 88.8629742,34.5316386" id="Fill-229" fill="#CECA86"></path>
            <path d="M66.0816417,2.62119474 L63.7808564,14.0328614 C51.0350896,14.3277737 35.8376663,14.7125982 35.8376663,14.7125982 L46.0371264,6.81470351 C49.547016,4.09575614 53.8504025,2.62119474 58.2712123,2.62119474 L66.0816417,2.62119474 Z" id="Fill-230" fill="#3B4D57"></path>
            <path d="M24.8747411,32.4608509 C24.8747411,29.9929386 22.8956245,27.9889737 20.450373,27.9889737 C18.0086798,27.9889737 16.0260049,29.9929386 16.0260049,32.4608509 C16.0260049,34.9323596 18.0086798,36.9334474 20.450373,36.9334474 C22.8956245,36.9334474 24.8747411,34.9323596 24.8747411,32.4608509 M12.4043853,34.5317105 C12.237146,33.8692368 12.1489006,33.1765526 12.1489006,32.4608509 C12.1489006,30.8676053 12.5879926,29.3808158 13.3516,28.1119737 C14.8069374,25.6865 17.4414896,24.0702368 20.450373,24.0702368 C23.4521399,24.0702368 26.0845571,25.6800263 27.5391828,28.0954298 C28.3099067,29.3671491 28.7518454,30.8640088 28.7518454,32.4608509 C28.7518454,33.1765526 28.6636,33.8692368 28.4963607,34.5317105 C27.5854405,38.1656053 24.3274773,40.8550614 20.450373,40.8550614 C16.5732687,40.8550614 13.3153055,38.1656053 12.4043853,34.5317105" id="Fill-231" fill="#3B4D57"></path>
            <path d="M21.8595951,32.4608509 C21.8595951,31.6760965 21.2269325,31.0395175 20.4505153,31.0395175 C19.6733865,31.0395175 19.0414356,31.6760965 19.0414356,32.4608509 C19.0414356,33.2463246 19.6733865,33.8850614 20.4505153,33.8850614 C21.2269325,33.8850614 21.8595951,33.2463246 21.8595951,32.4608509 M23.9803313,32.0371842 C24.3012883,32.2292368 24.3012883,32.6960614 23.9803313,32.8888333 C23.2394969,33.3290439 23.0295583,33.8426228 23.2430552,34.6842018 C23.3348589,35.0481667 23.0103436,35.3761667 22.6495337,35.2833772 C21.8168957,35.068307 21.3094847,35.2805 20.869681,36.0285702 C20.6796687,36.3529737 20.221362,36.3529737 20.0313497,36.0285702 C19.5951043,35.2805 19.084135,35.068307 18.2550552,35.2833772 C17.8906871,35.3761667 17.5661718,35.0481667 17.6579755,34.6842018 C17.8714724,33.8426228 17.6615337,33.3290439 16.923546,32.8888333 C16.602589,32.6960614 16.602589,32.2292368 16.923546,32.0371842 C17.6615337,31.5969737 17.8714724,31.0797982 17.6579755,30.2418158 C17.5661718,29.8735351 17.8906871,29.5455351 18.2550552,29.6383246 C19.084135,29.8577105 19.5951043,29.6419211 20.0313497,28.8967281 C20.221362,28.5723246 20.6796687,28.5723246 20.869681,28.8967281 C21.3094847,29.6419211 21.8168957,29.8577105 22.6495337,29.6383246 C23.0103436,29.5455351 23.3348589,29.8735351 23.2430552,30.2418158 C23.0295583,31.0797982 23.2394969,31.5969737 23.9803313,32.0371842" id="Fill-232" fill="#BFBC62"></path>
            <path d="M23.9803313,32.8886175 C24.3012883,32.6958456 24.3012883,32.2290211 23.9803313,32.0369684 C23.2394969,31.5967579 23.0295583,31.0795825 23.2430552,30.2416 C23.3348589,29.8740386 23.0103436,29.5460386 22.6495337,29.6381088 C21.8168957,29.8574947 21.3094847,29.6417053 20.869681,28.8965123 C20.6796687,28.5721088 20.221362,28.5721088 20.0313497,28.8965123 C19.5951043,29.6417053 19.084135,29.8574947 18.2550552,29.6381088 C17.8906871,29.5460386 17.5661718,29.8740386 17.6579755,30.2416 C17.8714724,31.0795825 17.6615337,31.5967579 16.923546,32.0369684 C16.602589,32.2290211 16.602589,32.6958456 16.923546,32.8886175 C17.6615337,33.3288281 17.8714724,33.842407 17.6579755,34.683986 C17.5661718,35.0479509 17.8906871,35.3759509 18.2550552,35.2831614 C19.084135,35.0680912 19.5951043,35.2802842 20.0313497,36.0283544 C20.221362,36.3527579 20.6796687,36.3527579 20.869681,36.0283544 C21.3094847,35.2802842 21.8168957,35.0680912 22.6495337,35.2831614 C23.0103436,35.3759509 23.3348589,35.0479509 23.2430552,34.683986 C23.0295583,33.842407 23.2394969,33.3288281 23.9803313,32.8886175 M20.4505153,27.9887579 C22.8957669,27.9887579 24.8748834,29.9934421 24.8748834,32.4606351 C24.8748834,34.9321439 22.8957669,36.9332316 20.4505153,36.9332316 C18.0088221,36.9332316 16.0261472,34.9321439 16.0261472,32.4606351 C16.0261472,29.9934421 18.0088221,27.9887579 20.4505153,27.9887579" id="Fill-233" fill="#767D85"></path>
            <path d="M20.4505153,31.0398053 C21.2269325,31.0398053 21.8595951,31.6763842 21.8595951,32.4611386 C21.8595951,33.245893 21.2269325,33.8853491 20.4505153,33.8853491 C19.6733865,33.8853491 19.0414356,33.245893 19.0414356,32.4611386 C19.0414356,31.6763842 19.6733865,31.0398053 20.4505153,31.0398053" id="Fill-234" fill="#767D85"></path>
            <path d="M12.4043853,34.5316386 L4.85655706,34.5316386 C-1.12491534,34.5316386 0.104115337,28.3104281 0.104115337,28.3104281 L2.64117055,28.3104281 C3.5520908,28.3104281 4.37832393,28.2442526 5.12840982,28.1219719 L5.13837301,28.1219719 C5.33834847,28.1219719 8.38637301,28.1183754 13.3516,28.1119018 C12.5879926,29.3807439 12.1489006,30.8675333 12.1489006,32.4607789 C12.1489006,33.1764807 12.237146,33.8691649 12.4043853,34.5316386" id="Fill-235" fill="#CECA86"></path>
            <path d="M5.52828957,23.2420368 L12.1488294,23.2420368 C12.1488294,23.2420368 10.906989,27.2075281 5.13830184,28.1217561 L5.12833865,28.1217561 C4.37825276,28.2440368 3.55201963,28.3102123 2.64109939,28.3102123 C2.64109939,28.3102123 3.55842454,25.7135456 5.45285399,23.1859316 L5.52828957,23.2420368 Z" id="Fill-236" fill="#E9E5D9"></path>
        </g>
    </g>
</svg>