<?xml version="1.0" encoding="UTF-8"?>
<svg width="120px" height="120px" viewBox="0 0 120 120" version="1.1" xmlns="http://www.w3.org/2000/svg" xmlns:xlink="http://www.w3.org/1999/xlink">
    <!-- Generator: Sketch 51.1 (57501) - http://www.bohemiancoding.com/sketch -->
    <title>Muffin8</title>
    <desc>Created with Sketch.</desc>
    <defs>
        <polygon id="path-1" points="0.388721311 1.56074667 103.091016 1.56074667 103.091016 104.233333 0.388721311 104.233333"></polygon>
        <polygon id="path-3" points="0.968852459 1.6048 103.670164 1.6048 103.670164 104.278567 0.968852459 104.278567"></polygon>
    </defs>
    <g id="Muffin8" stroke="none" stroke-width="1" fill="none" fill-rule="evenodd">
        <g id="Page-1" transform="translate(0.000000, 1.000000)">
            <g id="Group-3" transform="translate(13.770492, 12.163047)">
                <mask id="mask-2" fill="white">
                    <use xlink:href="#path-1"></use>
                </mask>
                <g id="Clip-2"></g>
                <path d="M103.091016,52.8966467 C103.091016,81.25008 80.1001967,104.234513 51.7388852,104.234513 C23.379541,104.234513 0.388721311,81.25008 0.388721311,52.8966467 C0.388721311,24.54518 23.379541,1.56074667 51.7388852,1.56074667 C80.1001967,1.56074667 103.091016,24.54518 103.091016,52.8966467" id="Fill-1" fill="#EABB6D" mask="url(#mask-2)"></path>
            </g>
            <path d="M104.27823,33.1607533 C114.318885,46.69732 117.895279,65.0718867 112.58577,81.05302 C107.276262,97.03612 92.8192131,109.913853 76.1038033,112.33482 C68.2762623,113.46762 60.2500328,112.415453 52.636918,110.279653 C44.8231475,108.08682 37.2454426,104.69432 31.0408525,99.4826533 C20.6323279,90.73492 14.7621639,76.88762 15.7201967,63.35302 C16.8513443,47.4269533 27.0375738,33.00342 40.4264262,24.2379867 C54.2677377,15.1755867 72.7182295,11.7535867 87.6277377,18.93782 C94.2729836,22.1395533 99.889377,27.24502 104.27823,33.1607533" id="Fill-4" fill="#E37603"></path>
            <path d="M86.8575738,24.5182367 C86.8575738,25.0905367 86.3952787,25.55467 85.8228197,25.55467 C85.2503607,25.55467 84.7860984,25.0905367 84.7860984,24.5182367 C84.7860984,23.9459367 85.2503607,23.48377 85.8228197,23.48377 C86.3952787,23.48377 86.8575738,23.9459367 86.8575738,24.5182367" id="Fill-6" fill="#F79922"></path>
            <path d="M70.5397377,41.58438 C70.5397377,42.15668 70.0774426,42.6188467 69.5069508,42.6188467 C68.9344918,42.6188467 68.4682623,42.15668 68.4682623,41.58438 C68.4682623,41.01208 68.9344918,40.5479467 69.5069508,40.5479467 C70.0774426,40.5479467 70.5397377,41.01208 70.5397377,41.58438" id="Fill-8" fill="#F79922"></path>
            <path d="M83.2803934,36.1493 C83.2803934,36.3204 83.1426885,36.4600333 82.9695738,36.4600333 C82.7984262,36.4600333 82.6607213,36.3204 82.6607213,36.1493 C82.6607213,35.9782 82.7984262,35.8405333 82.9695738,35.8405333 C83.1426885,35.8405333 83.2803934,35.9782 83.2803934,36.1493" id="Fill-10" fill="#F79922"></path>
            <path d="M93.4642623,42.3411533 C93.4642623,42.7600533 93.1239344,43.1002867 92.704918,43.1002867 C92.2859016,43.1002867 91.947541,42.7600533 91.947541,42.3411533 C91.947541,41.9222533 92.2859016,41.5839867 92.704918,41.5839867 C93.1239344,41.5839867 93.4642623,41.9222533 93.4642623,42.3411533" id="Fill-12" fill="#F79922"></path>
            <path d="M42.4109508,78.2904433 C42.4109508,79.1046433 41.7519344,79.7654433 40.935541,79.7654433 C40.1211148,79.7654433 39.4620984,79.1046433 39.4620984,78.2904433 C39.4620984,77.4762433 40.1211148,76.8154433 40.935541,76.8154433 C41.7519344,76.8154433 42.4109508,77.4762433 42.4109508,78.2904433" id="Fill-14" fill="#F79922"></path>
            <path d="M102.941115,71.1152567 C102.941115,71.6305233 102.522098,72.0474567 102.006689,72.0474567 C101.493246,72.0474567 101.07423,71.6305233 101.07423,71.1152567 C101.07423,70.5980233 101.493246,70.18109 102.006689,70.18109 C102.522098,70.18109 102.941115,70.5980233 102.941115,71.1152567" id="Fill-16" fill="#F79922"></path>
            <path d="M90.8112787,79.7654433 C90.8112787,80.6268433 90.112918,81.3289433 89.2473443,81.3289433 C88.3857049,81.3289433 87.6834098,80.6268433 87.6834098,79.7654433 C87.6834098,78.9020767 88.3857049,78.2019433 89.2473443,78.2019433 C90.112918,78.2019433 90.8112787,78.9020767 90.8112787,79.7654433" id="Fill-18" fill="#F79922"></path>
            <path d="M53.8760656,95.1030833 C53.8760656,95.77175 53.3331148,96.31455 52.6622951,96.31455 C51.9934426,96.31455 51.452459,95.77175 51.452459,95.1030833 C51.452459,94.43245 51.9934426,93.88965 52.6622951,93.88965 C53.3331148,93.88965 53.8760656,94.43245 53.8760656,95.1030833" id="Fill-20" fill="#F79922"></path>
            <path d="M66.1422295,86.9945167 C66.1422295,87.30525 65.888459,87.55895 65.5756721,87.55895 C65.2648525,87.55895 65.011082,87.30525 65.011082,86.9945167 C65.011082,86.6818167 65.2648525,86.4281167 65.5756721,86.4281167 C65.888459,86.4281167 66.1422295,86.6818167 66.1422295,86.9945167" id="Fill-22" fill="#F79922"></path>
            <path d="M31.3203934,67.1376733 C31.3203934,68.0797067 30.5571148,68.8408067 29.6167869,68.8408067 C28.6744918,68.8408067 27.9151475,68.0797067 27.9151475,67.1376733 C27.9151475,66.1976067 28.6744918,65.43454 29.6167869,65.43454 C30.5571148,65.43454 31.3203934,66.1976067 31.3203934,67.1376733" id="Fill-24" fill="#F79922"></path>
            <path d="M59.6240656,30.50654 C59.6240656,30.9352733 59.2778361,31.2833733 58.8509508,31.2833733 C58.4260328,31.2833733 58.0758689,30.9352733 58.0758689,30.50654 C58.0758689,30.0797733 58.4260328,29.73364 58.8509508,29.73364 C59.2778361,29.73364 59.6240656,30.0797733 59.6240656,30.50654" id="Fill-26" fill="#F79922"></path>
            <path d="M34.2615738,40.48403 C34.2615738,41.51063 33.4314098,42.3405633 32.4064918,42.3405633 C31.3776393,42.3405633 30.5455082,41.51063 30.5455082,40.48403 C30.5455082,39.4593967 31.3776393,38.6274967 32.4064918,38.6274967 C33.4314098,38.6274967 34.2615738,39.4593967 34.2615738,40.48403" id="Fill-28" fill="#F79922"></path>
            <polygon id="Fill-30" fill="#F79922" points="72.6299016 27.74298 72.1046557 27.74298 71.581377 27.74298 72.1046557 27.74298"></polygon>
            <path d="M103.747869,64.2163867 C103.747869,64.8889867 103.202951,65.4337533 102.528197,65.4337533 C101.85541,65.4337533 101.310492,64.8889867 101.310492,64.2163867 C101.310492,63.5437867 101.85541,62.99902 102.528197,62.99902 C103.202951,62.99902 103.747869,63.5437867 103.747869,64.2163867" id="Fill-32" fill="#F79922"></path>
            <path d="M84.631082,64.2087167 C84.631082,64.7239833 84.2120656,65.1409167 83.698623,65.1409167 C83.1832131,65.1409167 82.7661639,64.7239833 82.7661639,64.2087167 C82.7661639,63.6914833 83.1832131,63.27455 83.698623,63.27455 C84.2120656,63.27455 84.631082,63.6914833 84.631082,64.2087167" id="Fill-34" fill="#F79922"></path>
            <path d="M45.8073443,51.8287467 C45.8073443,52.34598 45.3883279,52.7629133 44.872918,52.7629133 C44.3594754,52.7629133 43.9424262,52.34598 43.9424262,51.8287467 C43.9424262,51.31348 44.3594754,50.8965467 44.872918,50.8965467 C45.3883279,50.8965467 45.8073443,51.31348 45.8073443,51.8287467" id="Fill-36" fill="#F79922"></path>
            <path d="M85.4378361,57.3100433 C85.4378361,57.9826433 84.892918,58.52741 84.2181639,58.52741 C83.545377,58.52741 83.000459,57.9826433 83.000459,57.3100433 C83.000459,56.6374433 83.545377,56.0926767 84.2181639,56.0926767 C84.892918,56.0926767 85.4378361,56.6374433 85.4378361,57.3100433" id="Fill-38" fill="#F79922"></path>
            <path d="M79.6707541,99.25157 C79.6707541,100.33127 78.7973115,101.20447 77.7173115,101.20447 C76.6373115,101.20447 75.7619016,100.33127 75.7619016,99.25157 C75.7619016,98.17187 76.6373115,97.2967033 77.7173115,97.2967033 C78.7973115,97.2967033 79.6707541,98.17187 79.6707541,99.25157" id="Fill-40" fill="#F79922"></path>
            <path d="M35.5024918,98.37955 C35.5024918,98.9793833 35.014623,99.4631833 34.4165902,99.4631833 C33.8205246,99.4631833 33.3326557,98.9793833 33.3326557,98.37955 C33.3326557,97.7797167 33.8205246,97.2959167 34.4165902,97.2959167 C35.014623,97.2959167 35.5024918,97.7797167 35.5024918,98.37955" id="Fill-42" fill="#FCB830"></path>
            <path d="M26.9382295,87.7204133 C26.9382295,88.5641133 26.2536393,89.24458 25.4136393,89.24458 C24.5716721,89.24458 23.887082,88.5641133 23.887082,87.7204133 C23.887082,86.87868 24.5716721,86.1982133 25.4136393,86.1982133 C26.2536393,86.1982133 26.9382295,86.87868 26.9382295,87.7204133" id="Fill-44" fill="#FCB830"></path>
            <path d="M30.0562623,94.49617 C30.0562623,94.8305033 29.7847869,95.10387 29.4483934,95.10387 C29.1139672,95.10387 28.844459,94.8305033 28.844459,94.49617 C28.844459,94.1618367 29.1139672,93.88847 29.4483934,93.88847 C29.7847869,93.88847 30.0562623,94.1618367 30.0562623,94.49617" id="Fill-46" fill="#FCB830"></path>
            <path d="M102.702885,32.2023967 C102.702885,32.5858967 102.392066,32.8985967 102.006492,32.8985967 C101.622885,32.8985967 101.310098,32.5858967 101.310098,32.2023967 C101.310098,31.81693 101.622885,31.5061967 102.006492,31.5061967 C102.392066,31.5061967 102.702885,31.81693 102.702885,32.2023967" id="Fill-48" fill="#FCB830"></path>
            <g id="Group-52" transform="translate(15.737705, 0.363047)">
                <mask id="mask-4" fill="white">
                    <use xlink:href="#path-3"></use>
                </mask>
                <g id="Clip-51"></g>
                <path d="M103.671148,52.9426667 C103.671148,81.2941333 80.6783607,104.278567 52.3190164,104.278567 C23.9577049,104.278567 0.968852459,81.2941333 0.968852459,52.9426667 C0.968852459,24.5892333 23.9577049,1.6048 52.3190164,1.6048 C80.6783607,1.6048 103.671148,24.5892333 103.671148,52.9426667" id="Fill-50" fill="#FDDE97" mask="url(#mask-4)"></path>
            </g>
            <path d="M106.823607,21.40697 C116.864262,34.9435367 120.440656,53.3161367 115.133115,69.2992367 C109.821639,85.2823367 95.3645902,98.16007 78.6511475,100.581037 C70.8216393,101.713837 62.797377,100.66167 55.1822951,98.5239033 C47.3704918,96.3330367 39.7908197,92.9405367 33.5862295,87.7269033 C23.1777049,78.97917 17.307541,65.13187 18.2655738,51.5992367 C19.3967213,35.67317 29.584918,21.24767 42.9718033,12.4842033 C56.815082,3.41983667 75.2636066,-0.00216333333 90.1731148,7.18403667 C96.8203279,10.3838033 102.434754,15.4912367 106.823607,21.40697" id="Fill-53" fill="#F79922"></path>
            <path d="M86.7039344,16.1675733 C95.5957377,21.1884733 103.586557,27.7827067 108.705246,36.7644733 C111.697377,42.0194067 113.829836,47.5654067 115.228525,53.2726733 C115.226557,53.25694 115.228525,53.2431733 115.226557,53.22744 C114.549836,40.0094733 108.532131,27.3716733 99.7131148,17.5049067 C95.0311475,12.2676733 89.34,7.61257333 82.555082,5.79340667 C76.6632787,4.21024 70.3977049,4.87497333 64.4390164,6.16904 C64.0888525,6.24574 63.7386885,6.33227333 63.3885246,6.41290667 C71.6055738,8.35794 79.8540984,12.2971733 86.7039344,16.1675733" id="Fill-55" fill="#FCB830"></path>
            <path d="M89.404918,12.7642567 C89.404918,13.3365567 88.9406557,13.80069 88.3681967,13.80069 C87.7957377,13.80069 87.3314754,13.3365567 87.3314754,12.7642567 C87.3314754,12.1919567 87.7957377,11.7278233 88.3681967,11.7278233 C88.9406557,11.7278233 89.404918,12.1919567 89.404918,12.7642567" id="Fill-57" fill="#F79922"></path>
            <path d="M73.087082,29.82863 C73.087082,30.40093 72.6228197,30.8630967 72.0523279,30.8630967 C71.4798689,30.8630967 71.0156066,30.40093 71.0156066,29.82863 C71.0156066,29.25633 71.4798689,28.7941633 72.0523279,28.7941633 C72.6228197,28.7941633 73.087082,29.25633 73.087082,29.82863" id="Fill-59" fill="#F79922"></path>
            <path d="M85.8259672,24.39532 C85.8259672,24.56642 85.6882623,24.7040867 85.5171148,24.7040867 C85.344,24.7040867 85.2062951,24.56642 85.2062951,24.39532 C85.2062951,24.2222533 85.344,24.0845867 85.5171148,24.0845867 C85.6882623,24.0845867 85.8259672,24.2222533 85.8259672,24.39532" id="Fill-61" fill="#F79922"></path>
            <path d="M96.0096393,30.5871733 C96.0096393,31.0060733 95.6712787,31.34434 95.2522623,31.34434 C94.8332459,31.34434 94.492918,31.0060733 94.492918,30.5871733 C94.492918,30.1682733 94.8332459,29.82804 95.2522623,29.82804 C95.6712787,29.82804 96.0096393,30.1682733 96.0096393,30.5871733" id="Fill-63" fill="#F79922"></path>
            <path d="M44.9582951,66.5346933 C44.9582951,67.3488933 44.2973115,68.0096933 43.4828852,68.0096933 C42.668459,68.0096933 42.0074754,67.3488933 42.0074754,66.5346933 C42.0074754,65.7204933 42.668459,65.0596933 43.4828852,65.0596933 C44.2973115,65.0596933 44.9582951,65.7204933 44.9582951,66.5346933" id="Fill-65" fill="#F79922"></path>
            <path d="M105.486492,59.3573433 C105.486492,59.8745767 105.067475,60.29151 104.554033,60.29151 C104.038623,60.29151 103.621574,59.8745767 103.621574,59.3573433 C103.621574,58.8440433 104.038623,58.4251433 104.554033,58.4251433 C105.067475,58.4251433 105.486492,58.8440433 105.486492,59.3573433" id="Fill-67" fill="#F79922"></path>
            <path d="M93.358623,68.0096933 C93.358623,68.87306 92.6602623,69.57516 91.7946885,69.57516 C90.931082,69.57516 90.2307541,68.87306 90.2307541,68.0096933 C90.2307541,67.1482933 90.931082,66.4461933 91.7946885,66.4461933 C92.6602623,66.4461933 93.358623,67.1482933 93.358623,68.0096933" id="Fill-69" fill="#F79922"></path>
            <path d="M56.4234098,83.3493 C56.4234098,84.0179667 55.8784918,84.5588 55.2096393,84.5588 C54.5407869,84.5588 53.9978361,84.0179667 53.9978361,83.3493 C53.9978361,82.6767 54.5407869,82.1358667 55.2096393,82.1358667 C55.8784918,82.1358667 56.4234098,82.6767 56.4234098,83.3493" id="Fill-71" fill="#F79922"></path>
            <path d="M68.6878033,75.2368 C68.6878033,75.5495 68.4340328,75.8032 68.1232131,75.8032 C67.8123934,75.8032 67.558623,75.5495 67.558623,75.2368 C67.558623,74.9260667 67.8123934,74.6723667 68.1232131,74.6723667 C68.4340328,74.6723667 68.6878033,74.9260667 68.6878033,75.2368" id="Fill-73" fill="#F79922"></path>
            <path d="M33.8657705,55.3836933 C33.8657705,56.32376 33.104459,57.0868267 32.1641311,57.0868267 C31.2218361,57.0868267 30.4624918,56.32376 30.4624918,55.3836933 C30.4624918,54.4436267 31.2218361,53.68056 32.1641311,53.68056 C33.104459,53.68056 33.8657705,54.4436267 33.8657705,55.3836933" id="Fill-75" fill="#F79922"></path>
            <path d="M62.1714098,18.7527567 C62.1714098,19.1795233 61.8251803,19.5276233 61.3982951,19.5276233 C60.9714098,19.5276233 60.6232131,19.1795233 60.6232131,18.7527567 C60.6232131,18.32599 60.9714098,17.97789 61.3982951,17.97789 C61.8251803,17.97789 62.1714098,18.32599 62.1714098,18.7527567" id="Fill-77" fill="#F79922"></path>
            <path d="M36.808918,28.7280833 C36.808918,29.7527167 35.9767869,30.5865833 34.9518689,30.5865833 C33.9230164,30.5865833 33.0928525,29.7527167 33.0928525,28.7280833 C33.0928525,27.70345 33.9230164,26.8735167 34.9518689,26.8735167 C35.9767869,26.8735167 36.808918,27.70345 36.808918,28.7280833" id="Fill-79" fill="#F79922"></path>
            <polygon id="Fill-81" fill="#F79922" points="75.1772459 15.9870333 74.6500328 15.9870333 74.1267541 15.9870333 74.6500328 15.9870333"></polygon>
            <path d="M106.293443,52.4626033 C106.293443,53.1352033 105.748525,53.67997 105.07377,53.67997 C104.400984,53.67997 103.856066,53.1352033 103.856066,52.4626033 C103.856066,51.7900033 104.400984,51.2452367 105.07377,51.2452367 C105.748525,51.2452367 106.293443,51.7900033 106.293443,52.4626033" id="Fill-83" fill="#F79922"></path>
            <path d="M87.176459,52.4529667 C87.176459,52.9682333 86.7594098,53.3851667 86.2420328,53.3851667 C85.7285902,53.3851667 85.311541,52.9682333 85.311541,52.4529667 C85.311541,51.9357333 85.7285902,51.5207667 86.2420328,51.5207667 C86.7594098,51.5207667 87.176459,51.9357333 87.176459,52.4529667" id="Fill-85" fill="#F79922"></path>
            <path d="M48.3546885,40.0749633 C48.3546885,40.59023 47.9356721,41.00913 47.4202623,41.00913 C46.9068197,41.00913 46.4878033,40.59023 46.4878033,40.0749633 C46.4878033,39.5596967 46.9068197,39.1407967 47.4202623,39.1407967 C47.9356721,39.1407967 48.3546885,39.5596967 48.3546885,40.0749633" id="Fill-87" fill="#F79922"></path>
            <path d="M87.9834098,45.55626 C87.9834098,46.22886 87.4384918,46.7736267 86.7657049,46.7736267 C86.092918,46.7736267 85.548,46.22886 85.548,45.55626 C85.548,44.88366 86.092918,44.3388933 86.7657049,44.3388933 C87.4384918,44.3388933 87.9834098,44.88366 87.9834098,45.55626" id="Fill-89" fill="#F79922"></path>
            <path d="M82.2161311,87.49582 C82.2161311,88.57552 81.3426885,89.44872 80.2626885,89.44872 C79.1826885,89.44872 78.3092459,88.57552 78.3092459,87.49582 C78.3092459,86.41612 79.1826885,85.54292 80.2626885,85.54292 C81.3426885,85.54292 82.2161311,86.41612 82.2161311,87.49582" id="Fill-91" fill="#F79922"></path>
            <path d="M38.0480656,86.6257667 C38.0480656,87.2256 37.5621639,87.7094 36.9641311,87.7094 C36.3660984,87.7094 35.8782295,87.2256 35.8782295,86.6257667 C35.8782295,86.0259333 36.3660984,85.5421333 36.9641311,85.5421333 C37.5621639,85.5421333 38.0480656,86.0259333 38.0480656,86.6257667" id="Fill-93" fill="#FCB830"></path>
            <path d="M29.4855738,75.96663 C29.4855738,76.8083633 28.8009836,77.4907967 27.9609836,77.4907967 C27.1190164,77.4907967 26.4344262,76.8083633 26.4344262,75.96663 C26.4344262,75.1248967 27.1190164,74.4424633 27.9609836,74.4424633 C28.8009836,74.4424633 29.4855738,75.1248967 29.4855738,75.96663" id="Fill-95" fill="#FCB830"></path>
            <path d="M32.6016393,82.7423867 C32.6016393,83.07672 32.3301639,83.3500867 31.9937705,83.3500867 C31.6593443,83.3500867 31.3898361,83.07672 31.3898361,82.7423867 C31.3898361,82.4080533 31.6593443,82.1346867 31.9937705,82.1346867 C32.3301639,82.1346867 32.6016393,82.4080533 32.6016393,82.7423867" id="Fill-97" fill="#FCB830"></path>
            <path d="M105.25023,20.4466467 C105.25023,20.8301467 104.93941,21.1428467 104.553836,21.1428467 C104.166295,21.1428467 103.855475,20.8301467 103.855475,20.4466467 C103.855475,20.0631467 104.166295,19.7504467 104.553836,19.7504467 C104.93941,19.7504467 105.25023,20.0631467 105.25023,20.4466467" id="Fill-99" fill="#FCB830"></path>
            <path d="M55.2092459,8.42185667 C49.561377,8.42185667 44.124,9.32062333 39.0210492,10.9667233 C25.5476066,20.21989 16.7069508,35.7270567 16.7069508,53.3051233 C16.7069508,81.65659 39.6958033,104.641023 68.0571148,104.641023 C76.764,104.641023 84.9594098,102.46589 92.1436721,98.6446567 C101.865639,89.09059 107.897115,75.7998567 107.897115,61.0931233 C107.897115,32.0041567 84.3082623,8.42185667 55.2092459,8.42185667" id="Fill-101" fill="#E37603"></path>
            <path d="M105.254164,63.3752433 C105.254164,34.28431 81.6672787,10.70201 52.5662951,10.70201 C49.9794098,10.70201 47.4397377,10.89671 44.9551475,11.2605433 C44.2882623,11.6597767 43.621377,12.05901 42.9721967,12.48381 C29.5853115,21.2472767 19.3951475,35.6727767 18.2659672,51.5988433 C17.3079344,65.1334433 23.1780984,78.9787767 33.5846557,87.72651 C39.7912131,92.9401433 47.3708852,96.3326433 55.1826885,98.52351 C62.7977705,100.661277 70.8220328,101.713443 78.651541,100.580643 C84.4980984,99.73301 90.0535082,97.58541 95.0521967,94.4918433 C101.457443,85.77361 105.254164,75.0218433 105.254164,63.3752433" id="Fill-103" fill="#E37603"></path>
            <path d="M102.702885,61.2010933 C102.702885,89.5545267 79.7100984,112.53896 51.3507541,112.53896 C22.9894426,112.53896 0.000590163934,89.5545267 0.000590163934,61.2010933 C0.000590163934,32.8496267 22.9894426,9.86322667 51.3507541,9.86322667 C79.7100984,9.86322667 102.702885,32.8496267 102.702885,61.2010933" id="Fill-105" fill="#FDDE97"></path>
            <path d="M90.1176393,29.3043167 C100.158295,42.8408833 103.734689,61.2134833 98.4271475,77.1965833 C93.1156721,93.1796833 78.658623,106.057417 61.9451803,108.478383 C54.1156721,109.611183 46.0914098,108.559017 38.4763279,106.42125 C30.6645246,104.230383 23.0848525,100.837883 16.8802623,95.62425 C6.4717377,86.87455 0.599606557,73.0292167 1.55960656,59.4965833 C2.6907541,43.5705167 12.8789508,29.1450167 26.2658361,20.38155 C40.1091148,11.3171833 58.5556721,7.89518333 73.4671475,15.0794167 C80.1143607,18.28115 85.7287869,23.3885833 90.1176393,29.3043167" id="Fill-107" fill="#F79922"></path>
            <path d="M84.1449836,96.6742533 C73.801377,105.604887 58.9076066,108.466387 45.6151475,105.29022 C32.3246557,102.114053 20.7200656,93.32502 12.868918,82.1425533 C8.48793443,75.90822 5.14563934,68.7672533 4.40793443,61.18182 C3.27481967,49.55882 8.5292459,37.8512533 16.8643279,29.6659867 C25.1974426,21.4787533 36.3180984,16.5522533 47.7318689,14.0663867 C53.6925246,12.77232 59.9580984,12.1075867 65.8479344,13.6907533 C72.6308852,15.50992 78.3259672,20.16502 83.0059672,25.4022533 C91.8249836,35.26902 97.8446557,47.90682 98.5194098,61.1247867 C99.1941639,74.3427533 94.1659672,88.02682 84.1449836,96.6742533" id="Fill-109" fill="#FCB830"></path>
            <path d="M84.0336393,77.74312 C84.0060984,78.0105867 83.9687213,78.2819867 83.9116721,78.5671533 C83.3274098,81.4699533 80.8172459,83.6450867 78.1005246,84.8250867 C75.3857705,85.9991867 72.4034754,86.3944867 69.5392131,87.14182 C66.6749508,87.8891533 63.7634754,89.09472 61.9457705,91.4330867 C60.3149508,93.5275867 59.5123279,96.5326533 57.0611803,97.54942 C54.787082,98.4914533 52.174623,97.1737867 50.4257705,95.43722 C48.676918,93.7045867 47.3588852,91.5215867 45.3582295,90.08592 C42.1182295,87.7632867 37.8100328,87.85572 33.824459,87.6983867 C29.8388852,87.5351533 25.369377,86.7484867 23.1051148,83.4641533 C22.1077377,82.0186533 21.7123279,80.5023533 21.6434754,78.9545867 C21.5352787,80.9251867 21.8500328,82.8544867 23.1051148,84.67562 C25.369377,87.9599533 29.8388852,88.7485867 33.824459,88.9078867 C37.8100328,89.06522 42.1182295,88.9727867 45.3582295,91.2993533 C47.3588852,92.7330533 48.676918,94.9140867 50.4257705,96.6486867 C52.174623,98.3832867 54.787082,99.7009533 57.0611803,98.7608867 C59.5123279,97.74412 60.3149508,94.7390533 61.9457705,92.6445533 C63.7634754,90.3061867 66.6749508,89.0986533 69.5392131,88.3552533 C72.4034754,87.6059533 75.3857705,87.2106533 78.1005246,86.0345867 C80.8172459,84.8545867 83.3274098,82.68142 83.9116721,79.7766533 C84.0572459,79.04702 84.0828197,78.37442 84.0336393,77.74312 M78.7497049,59.25842 C79.5385574,57.2445533 80.8664262,55.4863533 81.7890492,53.5275533 C82.4460984,52.14302 82.8729836,50.5578867 82.7352787,49.0592867 C82.6310164,50.1763533 82.2710164,51.3032533 81.7890492,52.3180533 C80.8664262,54.2748867 79.5385574,56.03112 78.7497049,58.0469533 C78.159541,59.5573533 77.9313443,61.18182 78.0080656,62.79842 C78.0729836,61.58892 78.307082,60.3892533 78.7497049,59.25842 M23.2152787,68.2008533 C22.9221639,62.56832 18.0887213,61.00482 14.6638033,57.3251867 C12.999541,55.5335533 12.1339672,53.0358867 12.2952787,50.5952533 C12.4408525,52.6307533 13.2729836,54.6190533 14.6638033,56.1156867 C18.2264262,59.94282 23.3313443,61.4689533 23.2428197,67.6855867 C23.2408525,67.85472 23.227082,68.0297533 23.2152787,68.2008533" id="Fill-111" fill="#F79922"></path>
            <path d="M29.8314098,30.48353 C29.3396066,31.0754967 28.9107541,31.7618633 28.5527213,32.5209967 C27.6419016,34.44243 26.9789508,36.56053 25.4700984,38.0610967 C23.0917377,40.4269967 19.3028852,40.6039967 16.4641967,42.3877633 C14.2314098,43.7899967 12.6753443,46.2168633 12.3330492,48.8285967 C11.9927213,51.44033 12.8720656,54.1877633 14.6661639,56.1150967 C18.2268197,59.94223 23.3297705,61.4683633 23.2412459,67.6849967 C23.168459,72.9005967 19.7238689,78.5586967 23.1055082,83.4635633 C25.3678033,86.7478967 29.8392787,87.53653 33.8228852,87.6977967 C37.8104262,87.85513 42.118623,87.7626967 45.358623,90.0872967 C47.3592787,91.5209967 48.6773115,93.7039967 50.4261639,95.43663 C52.1730492,97.1731967 54.7874754,98.4908633 57.0615738,97.5507967 C59.5127213,96.5320633 60.3153443,93.5289633 61.9461639,91.4324967 C63.7638689,89.0960967 66.6753443,87.8885633 69.5396066,87.1431967 C72.4038689,86.3958633 75.3822295,86.0005633 78.100918,84.8244967 C80.8156721,83.6444967 83.3258361,81.4693633 83.9100984,78.5665633 C84.8268197,74.0038967 81.4176393,71.60653 79.5015738,68.1412633 C77.8215738,65.1007967 77.4773115,61.2972633 78.7500984,58.04833 C79.5389508,56.03053 80.8648525,54.2762633 81.7894426,52.31943 C82.716,50.36063 83.2117377,48.00653 82.2576393,46.0634633 C81.0753443,43.65233 78.1658361,42.7240633 75.5494426,42.11833 C72.9330492,41.51063 70.0255082,40.80853 68.5540328,38.56063 C67.2694426,36.6037967 67.4838689,34.0628633 66.903541,31.79923 C66.0714098,28.5561967 63.4353443,25.8362967 60.2150164,24.9040967 C56.9966557,23.9738633 53.316,24.8686967 50.878623,27.16773 C49.6569836,28.3260967 48.7500984,29.78733 47.5087869,30.92603 C43.4346885,34.6626967 40.4700984,30.67233 36.7776393,28.9042967 C33.968459,27.55713 31.531082,28.43623 29.8314098,30.48353" id="Fill-113" fill="#FBE066"></path>
            <path d="M61.5989508,66.0621033 C64.5615738,63.52707 65.6140328,59.22007 62.9012459,56.1068367 C61.5340328,54.5394033 59.4173115,53.6524367 57.3379672,53.7842033 C58.0678033,52.4095033 58.1012459,50.6867033 57.4225574,49.2864367 C55.5556721,45.4278367 51.0527213,45.48487 49.056,48.24017 C48.9930492,48.0828367 48.936,47.92157 48.853377,47.76817 C47.5432131,45.2764033 44.1517377,44.26947 41.5530492,45.3472033 C38.9523934,46.4249367 37.296,49.2530033 37.268459,52.0673033 C37.2605902,52.79497 37.3648525,53.5128033 37.5419016,54.2149033 C36.0251803,54.0713367 34.4848525,54.2680033 33.0822295,54.8678367 C30.3458361,56.0321033 28.2802623,58.8051033 28.2527213,61.7787033 C28.2271475,64.75427 30.4461639,67.6826367 33.3812459,68.1802033 C31.3943607,72.63667 32.6022295,78.4560367 36.7274754,81.0638367 C40.8507541,83.6716367 46.8330492,82.77287 50.0081311,79.0657033 C50.7969836,80.47187 52.5241967,81.6263033 54.1373115,81.6892367 C55.7464918,81.75217 57.3694426,80.9242033 58.2605902,79.58097 C58.2645246,79.5770367 58.2645246,79.5731033 58.2664918,79.5711367 C61.5576393,79.3351367 64.7641967,77.1344367 65.6927213,73.97007 C66.6232131,70.79587 64.7897705,66.9274367 61.5989508,66.0621033" id="Fill-115" fill="#F79922"></path>
            <path d="M62.668918,64.0667233 C65.631541,61.53169 66.6820328,57.22469 63.9712131,54.1114567 C62.604,52.5440233 60.4853115,51.65509 58.4059672,51.7868567 C59.1377705,50.4141233 59.1712131,48.6913233 58.4925246,47.28909 C56.6236721,43.43049 52.1207213,43.48949 50.1259672,46.24479 C50.0610492,46.08549 50.0059672,45.9242233 49.9233443,45.7708233 C48.6151475,43.2810233 45.2236721,42.2721233 42.6230164,43.3518233 C40.0203934,44.42759 38.3659672,47.2576233 38.3384262,50.0699567 C38.3305574,50.79959 38.4348197,51.5154567 38.6118689,52.2175567 C37.0931803,52.0759567 35.5548197,52.2706567 34.1521967,52.87049 C31.4138361,54.0367233 29.3482623,56.8077567 29.3226885,59.7833233 C29.2971148,62.7569233 31.5161311,65.6872567 34.4492459,66.1828567 C32.4643279,70.6393233 33.6721967,76.4606567 37.7954754,79.06649 C41.9226885,81.67429 47.9030164,80.7755233 51.0780984,77.0683567 C51.8669508,78.47649 53.5941639,79.6309233 55.2053115,79.69189 C56.8184262,79.7548233 58.4374426,78.9268567 59.3325246,77.5836233 C59.3325246,77.57969 59.3344918,77.5777233 59.336459,77.57379 C62.6276066,77.3397567 65.8341639,75.1390567 66.7626885,71.9727233 C67.6931803,68.7985233 65.8597377,64.9320567 62.668918,64.0667233" id="Fill-117" fill="#F1F3E2"></path>
            <path d="M39.7943607,47.31151 C38.9071475,49.1149433 38.7399344,51.26451 39.3399344,53.18201 C39.9379672,55.1034433 41.2973115,56.77511 43.0520656,57.7564767 C44.3543607,58.4821767 45.8278033,58.8263433 47.191082,59.4281433 C48.5504262,60.0299433 49.8782951,60.99361 50.3287869,62.4135433 C50.7478033,60.36821 49.1504262,58.4998767 47.6061639,57.09961 C46.0579672,55.69541 44.3012459,54.10241 44.2776393,52.0177433 C44.2619016,50.87511 44.7851803,49.8091767 45.0979672,48.7137433 C45.4107541,47.6163433 45.4599344,46.2986767 44.6671475,45.4785767 C43.9589508,44.74501 42.7491148,44.66831 41.828459,45.1068767 C40.9078033,45.54151 40.2448525,46.39701 39.7943607,47.31151" id="Fill-119" fill="#EAE6CE"></path>
            <path d="M33.5199344,63.80732 C35.5520656,64.83392 37.9245246,65.1800533 40.1671475,64.7729533 C41.6720656,64.5015533 43.1120656,63.90172 44.6327213,63.7404533 C46.1553443,63.58312 47.8825574,63.98432 48.718623,65.26462 C47.7664918,62.93412 45.2307541,61.3509533 42.718623,61.5279533 C41.4930492,61.61252 40.3205902,62.0687867 39.1048525,62.24972 C37.8891148,62.4306533 36.5022295,62.2654533 35.6878033,61.34702 C34.8104262,60.3577867 34.7474754,58.68612 33.5769836,58.0705533 C32.6819016,57.6024867 31.4779672,58.0980867 30.9999344,58.9889867 C30.5199344,59.8818533 30.6832131,61.0205533 31.2182951,61.8819533 C31.7573115,62.7374533 32.6169836,63.3490867 33.5199344,63.80732" id="Fill-121" fill="#EAE6CE"></path>
            <path d="M40.0996721,78.97032 C43.4360656,80.4728533 47.6439344,79.0312867 49.8629508,76.1284867 C52.0819672,73.2197867 52.4754098,69.1900867 51.48,65.6697533 C51.8970492,67.96092 51.202623,70.42712 49.652459,72.1636867 C48.1042623,73.90222 45.7318033,74.8737533 43.4104918,74.72232 C42.4131148,74.65742 41.4236066,74.39782 40.4281967,74.4843533 C39.4327869,74.5728533 38.3763934,75.13532 38.1363934,76.1048867 C37.8354098,77.3261867 38.9508197,78.4550533 40.0996721,78.97032" id="Fill-123" fill="#EAE6CE"></path>
            <path d="M56.1238033,75.1233233 C55.4490492,76.1892567 52.6792131,77.6898233 55.6713443,77.91599 C57.3001967,78.03989 58.7579016,75.99259 58.7579016,74.40549 C59.0136393,72.36999 57.8883934,70.2322233 56.0667541,69.2862567 C57.2038033,71.00119 57.2274098,73.38479 56.1238033,75.1233233" id="Fill-125" fill="#EAE6CE"></path>
            <path d="M64.807082,73.29688 C66.1565902,71.29088 65.4287213,68.4372467 63.7979016,66.6554467 C62.1690492,64.87168 59.8536393,63.9080133 57.6188852,62.99548 C56.3500328,62.4802133 55.0831475,61.96298 53.8162623,61.4477133 C53.6883934,62.9974467 54.994623,64.3190467 56.4031475,64.9798467 C57.8077377,65.64458 59.389377,65.8943467 60.7565902,66.6318467 C62.1257705,67.37328 63.3001967,68.8738467 62.9205246,70.38228 C62.7611803,71.0096467 62.3559344,71.5426133 62.0942951,72.1365467 C61.834623,72.7324467 61.7460984,73.4896133 62.1749508,73.97538 C62.8674098,74.7620467 64.2228197,74.1681133 64.807082,73.29688" id="Fill-127" fill="#EAE6CE"></path>
            <path d="M53.9047869,57.95157 C54.4123279,56.4903367 55.2680656,55.1058033 56.5388852,54.2188367 C57.8077377,53.3299033 59.5251148,53.0054033 60.9474098,53.6229367 C62.3697049,54.24047 63.339541,55.89247 62.952,57.3950033 C61.8267541,57.39697 60.7487213,56.9918367 59.6883934,56.6162033 C58.6280656,56.2445033 57.5185574,55.8944367 56.4011803,56.0183367 C55.2818361,56.1383033 54.1565902,56.8561367 53.9047869,57.95157" id="Fill-129" fill="#EAE6CE"></path>
            <path d="M54.5368525,46.1496033 C55.6384918,46.1378033 56.9132459,47.03067 56.6083279,48.08677 C56.3978361,48.8105033 55.5971803,49.14287 54.9283279,49.4890033 C52.308,50.8381367 50.6299672,53.82157 50.8325902,56.75977 C50.295541,54.6515033 49.7565246,52.45867 50.1971803,50.3307367 C50.6378361,48.2028033 52.3650492,46.1732033 54.5368525,46.1496033" id="Fill-131" fill="#EAE6CE"></path>
            <path d="M70.9776393,23.88438 C70.9776393,24.45668 70.513377,24.9208133 69.940918,24.9208133 C69.368459,24.9208133 68.9041967,24.45668 68.9041967,23.88438 C68.9041967,23.31208 69.368459,22.8499133 69.940918,22.8499133 C70.513377,22.8499133 70.9776393,23.31208 70.9776393,23.88438" id="Fill-133" fill="#F79922"></path>
            <path d="M56.3811148,37.7259767 C56.3811148,38.2982767 55.9168525,38.7604433 55.3443934,38.7604433 C54.7739016,38.7604433 54.3096393,38.2982767 54.3096393,37.7259767 C54.3096393,37.1536767 54.7739016,36.69151 55.3443934,36.69151 C55.9168525,36.69151 56.3811148,37.1536767 56.3811148,37.7259767" id="Fill-135" fill="#F79922"></path>
            <path d="M69.12,32.2926667 C69.12,32.4618 68.9803279,32.6014333 68.8111475,32.6014333 C68.6380328,32.6014333 68.5003279,32.4618 68.5003279,32.2926667 C68.5003279,32.1196 68.6380328,31.9819333 68.8111475,31.9819333 C68.9803279,31.9819333 69.12,32.1196 69.12,32.2926667" id="Fill-137" fill="#F79922"></path>
            <path d="M79.3038689,38.4847167 C79.3038689,38.9036167 78.9655082,39.2418833 78.5464918,39.2418833 C78.1274754,39.2418833 77.7871475,38.9036167 77.7871475,38.4847167 C77.7871475,38.0658167 78.1274754,37.7255833 78.5464918,37.7255833 C78.9655082,37.7255833 79.3038689,38.0658167 79.3038689,38.4847167" id="Fill-139" fill="#F79922"></path>
            <path d="M28.2523279,74.43204 C28.2523279,75.24624 27.5913443,75.90704 26.776918,75.90704 C25.9624918,75.90704 25.3015082,75.24624 25.3015082,74.43204 C25.3015082,73.61784 25.9624918,72.95704 26.776918,72.95704 C27.5913443,72.95704 28.2523279,73.61784 28.2523279,74.43204" id="Fill-141" fill="#F79922"></path>
            <path d="M88.7787541,67.2548867 C88.7787541,67.77212 88.3617049,68.1890533 87.8462951,68.1890533 C87.3328525,68.1890533 86.9158033,67.77212 86.9158033,67.2548867 C86.9158033,66.73962 87.3328525,66.3226867 87.8462951,66.3226867 C88.3617049,66.3226867 88.7787541,66.73962 88.7787541,67.2548867" id="Fill-143" fill="#F79922"></path>
            <path d="M76.6526557,75.90704 C76.6526557,76.7704067 75.9542951,77.47054 75.0887213,77.47054 C74.2251148,77.47054 73.5247869,76.7704067 73.5247869,75.90704 C73.5247869,75.04564 74.2251148,74.3415733 75.0887213,74.3415733 C75.9542951,74.3415733 76.6526557,75.04564 76.6526557,75.90704" id="Fill-145" fill="#F79922"></path>
            <path d="M39.7174426,91.2466467 C39.7174426,91.9153133 39.1725246,92.4561467 38.5036721,92.4561467 C37.8328525,92.4561467 37.2918689,91.9153133 37.2918689,91.2466467 C37.2918689,90.5740467 37.8328525,90.0332133 38.5036721,90.0332133 C39.1725246,90.0332133 39.7174426,90.5740467 39.7174426,91.2466467" id="Fill-147" fill="#F79922"></path>
            <path d="M51.9818361,83.1341467 C51.9818361,83.4468467 51.7280656,83.7005467 51.4172459,83.7005467 C51.1064262,83.7005467 50.8526557,83.4468467 50.8526557,83.1341467 C50.8526557,82.8234133 51.1064262,82.5697133 51.4172459,82.5697133 C51.7280656,82.5697133 51.9818361,82.8234133 51.9818361,83.1341467" id="Fill-149" fill="#F79922"></path>
            <path d="M17.1598033,63.2812367 C17.1598033,64.2213033 16.3984918,64.98437 15.4581639,64.98437 C14.5158689,64.98437 13.7565246,64.2213033 13.7565246,63.2812367 C13.7565246,62.3392033 14.5158689,61.5781033 15.4581639,61.5781033 C16.3984918,61.5781033 17.1598033,62.3392033 17.1598033,63.2812367" id="Fill-151" fill="#F79922"></path>
            <path d="M45.4654426,26.6501033 C45.4654426,27.07687 45.1192131,27.42497 44.6903607,27.42497 C44.2634754,27.42497 43.9172459,27.07687 43.9172459,26.6501033 C43.9172459,26.22137 44.2634754,25.8752367 44.6903607,25.8752367 C45.1192131,25.8752367 45.4654426,26.22137 45.4654426,26.6501033" id="Fill-153" fill="#F79922"></path>
            <path d="M20.1029508,36.6256267 C20.1029508,37.65026 19.2708197,38.4841267 18.2459016,38.4841267 C17.2170492,38.4841267 16.3868852,37.65026 16.3868852,36.6256267 C16.3868852,35.6009933 17.2170492,34.77106 18.2459016,34.77106 C19.2708197,34.77106 20.1029508,35.6009933 20.1029508,36.6256267" id="Fill-155" fill="#F79922"></path>
            <polygon id="Fill-157" fill="#F79922" points="58.4712787 23.88438 57.9440656 23.88438 57.4207869 23.88438 57.9440656 23.88438"></polygon>
            <path d="M89.5855082,60.35995 C89.5855082,61.03255 89.0405902,61.5773167 88.3678033,61.5773167 C87.6950164,61.5773167 87.1500984,61.03255 87.1500984,60.35995 C87.1500984,59.68735 87.6950164,59.1425833 88.3678033,59.1425833 C89.0405902,59.1425833 89.5855082,59.68735 89.5855082,60.35995" id="Fill-159" fill="#F79922"></path>
            <path d="M70.4704918,60.3503133 C70.4704918,60.86558 70.0514754,61.2825133 69.5360656,61.2825133 C69.022623,61.2825133 68.6055738,60.86558 68.6055738,60.3503133 C68.6055738,59.83308 69.022623,59.4161467 69.5360656,59.4161467 C70.0514754,59.4161467 70.4704918,59.83308 70.4704918,60.3503133" id="Fill-161" fill="#F79922"></path>
            <path d="M31.6469508,47.97231 C31.6469508,48.4875767 31.2299016,48.9064767 30.7144918,48.9064767 C30.2010492,48.9064767 29.7820328,48.4875767 29.7820328,47.97231 C29.7820328,47.4570433 30.2010492,47.0381433 30.7144918,47.0381433 C31.2299016,47.0381433 31.6469508,47.4570433 31.6469508,47.97231" id="Fill-163" fill="#F79922"></path>
            <path d="M71.2774426,53.4536067 C71.2774426,54.1262067 70.7325246,54.6709733 70.0597377,54.6709733 C69.3869508,54.6709733 68.8420328,54.1262067 68.8420328,53.4536067 C68.8420328,52.7810067 69.3869508,52.23624 70.0597377,52.23624 C70.7325246,52.23624 71.2774426,52.7810067 71.2774426,53.4536067" id="Fill-165" fill="#F79922"></path>
            <path d="M65.5101639,95.3931667 C65.5101639,96.4728667 64.6367213,97.3460667 63.5567213,97.3460667 C62.4767213,97.3460667 61.6013115,96.4728667 61.6013115,95.3931667 C61.6013115,94.3134667 62.4767213,93.4402667 63.5567213,93.4402667 C64.6367213,93.4402667 65.5101639,94.3134667 65.5101639,95.3931667" id="Fill-167" fill="#F79922"></path>
            <path d="M21.3420984,94.5231133 C21.3420984,95.12098 20.8561967,95.6067467 20.2561967,95.6067467 C19.6601311,95.6067467 19.1722623,95.12098 19.1722623,94.5231133 C19.1722623,93.92328 19.6601311,93.43948 20.2561967,93.43948 C20.8561967,93.43948 21.3420984,93.92328 21.3420984,94.5231133" id="Fill-169" fill="#FCB830"></path>
            <path d="M12.7778361,83.8639767 C12.7778361,84.70571 12.0952131,85.3881433 11.2552131,85.3881433 C10.4112787,85.3881433 9.72865574,84.70571 9.72865574,83.8639767 C9.72865574,83.0222433 10.4112787,82.33981 11.2552131,82.33981 C12.0952131,82.33981 12.7778361,83.0222433 12.7778361,83.8639767" id="Fill-171" fill="#FCB830"></path>
            <path d="M15.8956721,90.6397333 C15.8956721,90.9740667 15.6241967,91.2474333 15.2878033,91.2474333 C14.953377,91.2474333 14.6838689,90.9740667 14.6838689,90.6397333 C14.6838689,90.3034333 14.953377,90.0320333 15.2878033,90.0320333 C15.6241967,90.0320333 15.8956721,90.3034333 15.8956721,90.6397333" id="Fill-173" fill="#FCB830"></path>
            <path d="M88.5442623,28.3439933 C88.5442623,28.7274933 88.2334426,29.0401933 87.8478689,29.0401933 C87.4603279,29.0401933 87.1495082,28.7274933 87.1495082,28.3439933 C87.1495082,27.9604933 87.4603279,27.6477933 87.8478689,27.6477933 C88.2334426,27.6477933 88.5442623,27.9604933 88.5442623,28.3439933" id="Fill-175" fill="#FCB830"></path>
            <path d="M76.8102295,57.26776 C74.6817049,61.1597933 75.4154754,66.41276 78.5335082,69.5731933 C75.8679344,69.5318933 74.091541,66.5917267 74.0010492,63.92886 C73.9085902,61.2659933 74.931541,58.6975267 75.2580984,56.0543267 C75.586623,53.4071933 74.9472787,50.28216 72.5905574,49.0333267 C71.2017049,48.29386 69.5256393,48.3784267 68.026623,47.89266 C65.0403934,46.9270267 63.2443279,43.88066 62.2194098,40.9149267 C61.1944918,37.9472267 60.6220328,34.74746 58.8358033,32.1612933 C57.0495738,29.5810267 53.4771148,27.8247933 50.7249836,29.3391267 C52.3558033,26.9810933 55.3046557,25.59656 58.1630164,25.8541933 C61.0194098,26.1118267 63.6751475,27.9939267 64.861377,30.60566 C65.6600656,32.3618933 65.811541,34.3423267 66.4744918,36.1536267 C67.4305574,38.7633933 69.4823607,40.9503267 72.0259672,42.0732933 C73.6744918,42.8029267 75.4803934,43.0880933 77.1721967,43.7134933 C78.8620328,44.3428267 80.5262951,45.4303933 81.1479344,47.11976 C81.8128525,48.9172933 81.1400656,50.94886 80.119082,52.5693933 C79.0961311,54.1918933 77.7328525,55.58626 76.8102295,57.26776" id="Fill-177" fill="#FADC53"></path>
            <path d="M13.8304918,49.35704 C13.5098361,47.2881067 14.9065574,45.2939067 16.6298361,44.1040733 C18.3531148,42.9181733 20.3990164,42.3045733 22.2777049,41.38024 C26.4816393,39.30934 29.8318033,35.5726733 31.4370492,31.1712733 C31.287541,33.4250733 31.1301639,35.7083733 30.4455738,37.8599067 C29.7590164,40.0134067 28.4744262,42.0607067 26.5308197,43.2171067 C24.4022951,44.48364 21.7996721,44.5347733 19.3760656,45.0539733 C16.9563934,45.57514 14.3557377,46.93804 13.8304918,49.35704" id="Fill-179" fill="#FADC53"></path>
            <path d="M50.2855082,92.5218333 C51.2514098,93.5936667 52.1071475,94.7874333 53.2619016,95.6527667 C54.418623,96.5161333 55.9943607,97.0019 57.3182951,96.4276333 C59.1596066,95.6331 59.6612459,93.3321 60.6055082,91.5660333 C62.0415738,88.8835 65.016,87.1017 68.0573115,87.1036667 C66.6074754,86.1714667 64.6304262,86.5864333 63.1904262,87.5343667 C61.748459,88.4764 60.668459,89.8668333 59.4173115,91.0507667 C58.1661639,92.2347 56.5904262,93.2672 54.8691148,93.1983667 C52.3766557,93.102 50.6199344,90.8580333 48.723541,89.2414333 C45.0841967,86.14 39.8337049,85.0445667 35.2579672,86.435 C40.8389508,86.0633 46.5399344,88.3721667 50.2855082,92.5218333" id="Fill-181" fill="#FADC53"></path>
            <path d="M72.8335082,109.53055 C85.1600656,105.496917 96.7351475,99.1976833 106.81318,91.0360167 C102.542361,96.2870167 97.8780984,101.34135 92.1554754,104.960017 C86.4348197,108.576717 79.5082623,110.659417 72.8335082,109.53055" id="Fill-183" fill="#F79922"></path>
        </g>
    </g>
</svg>