<?xml version="1.0" encoding="UTF-8"?>
<svg width="120px" height="120px" viewBox="0 0 120 120" version="1.1" xmlns="http://www.w3.org/2000/svg" xmlns:xlink="http://www.w3.org/1999/xlink">
    <!-- Generator: Sketch 51.1 (57501) - http://www.bohemiancoding.com/sketch -->
    <title>Helicopter3</title>
    <desc>Created with Sketch.</desc>
    <defs></defs>
    <g id="Helicopter3" stroke="none" stroke-width="1" fill="none" fill-rule="evenodd">
        <g id="Group-3" transform="translate(60.000000, 60.000000) scale(-1, 1) translate(-60.000000, -60.000000) translate(6.000000, 31.000000)">
            <polygon id="Fill-145" fill="#787878" points="15.9319286 55.5340333 17.6232857 55.5340333 17.6232857 45.5097 15.9319286 45.5097"></polygon>
            <polygon id="Fill-146" fill="#787878" points="30.8118214 55.5340333 32.5031786 55.5340333 32.5031786 44.9132667 30.8118214 44.9132667"></polygon>
            <polygon id="Fill-147" fill="#787878" points="45.6926786 55.5340333 47.3840357 55.5340333 47.3840357 44.3168333 45.6926786 44.3168333"></polygon>
            <polygon id="Fill-148" fill="#787878" points="60.5716071 55.5340333 62.2629643 55.5340333 62.2629643 43.7194333 60.5716071 43.7194333"></polygon>
            <path d="M101.233125,14.7268767 L96.9140893,23.57381 L60.7340893,24.3326433 L59.0735893,21.26251 C58.0890536,19.43841 56.1855536,18.3035433 54.1210179,18.3035433 L29.6551607,18.3035433 C27.5858036,18.3035433 25.6851964,19.43841 24.701625,21.26251 L23.844375,22.8449433 L19.0229464,23.43171 C17.222625,23.43171 14.4030536,25.4220767 13.3423393,26.87981 L9.75230357,31.8146433 C8.97219643,32.89151 7.83819643,33.65131 6.54701786,33.97031 C4.29251786,34.5232433 0.850017857,35.7847433 0.850017857,38.3135433 C0.850017857,42.0709767 4.70041071,47.57711 27.3312321,47.57711 C49.9620536,47.57711 56.0650179,46.5466433 56.0650179,46.5466433 C56.0650179,46.5466433 72.5340536,44.59301 77.2224107,31.8339767 C77.6736964,30.6072767 78.7932321,29.7459767 80.0950179,29.62901 L101.327625,27.7169433 L107.054518,14.7268767 L101.233125,14.7268767 Z" id="Fill-149" fill="#00B1A7"></path>
            <polygon id="Fill-150" fill="#787878" points="7.89267857 57.0884333 68.742 57.0884333 68.742 53.9806 7.89267857 53.9806"></polygon>
            <path d="M12.7278,27.7240967 L9.75201429,31.8140633 C8.97190714,32.8918967 7.83887143,33.6516967 6.54672857,33.9706967 C4.29222857,34.52363 0.850692857,35.78513 0.850692857,38.31393 C0.850692857,42.0713633 4.70012143,47.5774967 27.3319071,47.5774967 C49.9617643,47.5774967 56.0647286,46.54703 56.0647286,46.54703 C56.0647286,46.54703 72.5337643,44.5933967 77.2221214,31.8343633 C77.6743714,30.6066967 78.7939071,29.7463633 80.0947286,29.6293967 L101.255014,27.7240967 L12.7278,27.7240967 Z" id="Fill-151" fill="#00A79D"></path>
            <path d="M54.0932464,18.3037367 L31.2753536,18.3037367 L32.0168893,16.69037 C32.9387464,14.6903367 34.9357821,13.4085367 37.1333893,13.4085367 L48.4839964,13.4085367 C51.1068536,13.4085367 53.3844964,15.22297 53.973675,17.78657 L54.0932464,18.3037367 Z" id="Fill-152" fill="#00A79D"></path>
            <path d="M10.9914107,32.8953767 C10.9914107,32.8953767 13.6711607,27.3476767 17.1898393,25.6453767 C19.7249464,24.4196433 21.1337679,24.5588433 21.1337679,24.5588433 L19.537875,32.8953767 L10.9914107,32.8953767 Z" id="Fill-153" fill="#00918C"></path>
            <path d="M44.3280214,29.88305 C44.3280214,31.0759167 43.0243071,32.0474167 41.4168429,32.0474167 C39.8093786,32.0474167 38.5066286,31.0759167 38.5066286,29.88305 C38.5066286,28.6872833 39.8093786,27.7177167 41.4168429,27.7177167 C43.0243071,27.7177167 44.3280214,28.6872833 44.3280214,29.88305" id="Fill-154" fill="#00918C"></path>
            <path d="M55.7835429,29.88305 C55.7835429,31.0759167 54.4807929,32.0474167 52.8742929,32.0474167 C51.2649,32.0474167 49.96215,31.0759167 49.96215,29.88305 C49.96215,28.6872833 51.2649,27.7177167 52.8742929,27.7177167 C54.4807929,27.7177167 55.7835429,28.6872833 55.7835429,29.88305" id="Fill-155" fill="#00918C"></path>
            <path d="M66.67515,29.88305 C66.67515,31.0759167 65.3714357,32.0474167 63.7659,32.0474167 C62.1574714,32.0474167 60.8547214,31.0759167 60.8547214,29.88305 C60.8547214,28.6872833 62.1574714,27.7177167 63.7659,27.7177167 C65.3714357,27.7177167 66.67515,28.6872833 66.67515,29.88305" id="Fill-156" fill="#00918C"></path>
            <polygon id="Fill-157" fill="#787878" points="43.2009643 13.4096 45.4554643 13.4096 45.4554643 4.2775 43.2009643 4.2775"></polygon>
            <path d="M44.3298536,3.30909333 C44.3298536,3.30909333 46.7318893,2.98719333 50.3334964,2.60632667 C52.1318893,2.42169333 54.2340321,2.20322667 56.4837107,2.00892667 C58.732425,1.78756 61.1334964,1.63579333 63.5326393,1.45406 C65.9317821,1.30519333 68.3347821,0.83926 70.5834964,0.81606 C72.8312464,0.81606 74.9285679,1.15439333 76.7250321,1.53139333 C77.6247107,1.71796 78.4482107,1.93449333 79.1762464,2.16166 C79.907175,2.38592667 80.5407107,2.60246 81.0652821,2.81319333 C82.1124964,3.21822667 82.7093893,3.55366 82.7093893,3.55366 L82.7074607,4.11916 C82.7074607,4.11916 82.1028536,4.44589333 81.0517821,4.83739333 C80.5252821,5.04039333 79.886925,5.25209333 79.1559964,5.46476 C78.4231393,5.68322667 77.598675,5.88816 76.6951393,6.06506 C74.8957821,6.41499333 72.7946036,6.72916 70.5458893,6.70112667 C68.297175,6.64796 65.9038179,6.15206 63.504675,5.97226 C61.1064964,5.76249333 58.7083179,5.57979333 56.4615321,5.32846 C54.2147464,5.10322667 52.1164607,4.85769333 50.3199964,4.65082667 C46.7251393,4.22452667 44.327925,3.87266 44.327925,3.87266 L44.3298536,3.30909333 Z" id="Fill-158" fill="#787878"></path>
            <path d="M44.3280214,3.87266 C44.3280214,3.87266 41.9317714,4.22452667 38.3349857,4.65082667 C36.5394857,4.85769333 34.4421643,5.10322667 32.19345,5.32846 C29.9457,5.57979333 27.54945,5.76249333 25.1512714,5.97226 C22.7521286,6.15206 20.3587714,6.64796 18.1100571,6.70112667 C15.8603786,6.72916 13.7611286,6.41499333 11.9579143,6.06506 C11.0572714,5.88816 10.2337714,5.68322667 9.49995,5.46476 C8.76709286,5.25209333 8.12873571,5.04039333 7.6032,4.83739333 C6.55116429,4.44589333 5.94945,4.11916 5.94945,4.11916 L5.94462857,3.55366 C5.94462857,3.55366 6.54441429,3.21822667 7.5897,2.81319333 C8.11234286,2.60246 8.74973571,2.38592667 9.4797,2.16069333 C10.2087,1.93449333 11.0312357,1.71796 11.9289857,1.53139333 C13.7283429,1.15439333 15.8227714,0.81606 18.07245,0.81606 C20.3211643,0.83926 22.7222357,1.30519333 25.1233071,1.45406 C27.52245,1.63579333 29.9215929,1.78756 32.1741643,2.00892667 C34.4228786,2.20322667 36.5240571,2.42169333 38.3214857,2.60632667 C41.9221286,2.98719333 44.3232,3.30909333 44.3232,3.30909333 L44.3280214,3.87266 Z" id="Fill-159" fill="#787878"></path>
            <path d="M47.3329286,3.71219333 C47.3329286,5.37969333 45.9867857,6.72722667 44.3282143,6.72722667 C42.6686786,6.72722667 41.3225357,5.37969333 41.3225357,3.71219333 C41.3225357,2.04856 42.6686786,0.701026667 44.3282143,0.701026667 C45.9867857,0.701026667 47.3329286,2.04856 47.3329286,3.71219333" id="Fill-160" fill="#A7A9AC"></path>
            <path d="M75.98745,32.2571833 C70.3454143,42.7116833 56.0672357,44.2892833 56.0653071,44.2892833 C56.0653071,44.2892833 49.9623429,45.3178167 27.3315214,45.3178167 C7.24834286,45.3178167 1.95827143,40.9832833 1.02195,37.3805167 C0.91395,37.6714833 0.850307143,37.9817833 0.850307143,38.3143167 C0.850307143,42.0707833 4.69973571,47.5778833 27.3315214,47.5778833 C49.9623429,47.5778833 56.0653071,46.54645 56.0653071,46.54645 C56.0653071,46.54645 72.5343429,44.5937833 77.2217357,31.83475 C77.6739857,30.6070833 78.7935214,29.7457833 80.0953071,29.6288167 C80.0953071,29.6288167 77.7106286,29.0604167 75.98745,32.2571833" id="Fill-161" fill="#00918C"></path>
        </g>
    </g>
</svg>