<?xml version="1.0" encoding="UTF-8"?>
<svg width="120px" height="120px" viewBox="0 0 120 120" version="1.1" xmlns="http://www.w3.org/2000/svg" xmlns:xlink="http://www.w3.org/1999/xlink">
    <!-- Generator: Sketch 51.1 (57501) - http://www.bohemiancoding.com/sketch -->
    <title>Scissors1</title>
    <desc>Created with Sketch.</desc>
    <defs></defs>
    <g id="Scissors1" stroke="none" stroke-width="1" fill="none" fill-rule="evenodd">
        <g id="Group-2" transform="translate(9.000000, 0.000000)">
            <path d="M33.2642424,66.4357576 C33.2642424,66.4357576 31.5727273,81.0127273 24.430303,87.6909091 C17.2872727,94.3690909 6.44242424,92.3387879 8.09454545,80.8854545 C9.74484848,69.4321212 23.64,61.3612121 33.2642424,66.4357576 Z M51.1975758,56.1551515 C42.3406061,61.0624242 23.5393939,53 10.0721212,64.7206061 C-3.39757576,76.4381818 -2.67090909,96.2878788 12.4884848,98.4636364 C23.8460606,100.094545 34.4939394,90.06 36.1563636,79.3078788 C37.7139394,69.2254545 49.1315152,66.7218182 53.7424242,64.450303 C57.170303,62.7593939 71.5369697,59.4872727 85.0139394,41.1781818 C98.4890909,22.8642424 101.390303,3.41151515 101.390303,3.41151515 C101.390303,3.41151515 102.842424,-1.22606061 98.7024242,2.12787879 C93.5169697,6.33151515 90.2666667,13.6793939 77.9187879,30.6272727 C65.5721212,47.5709091 59.5618182,51.5175758 51.1975758,56.1551515 Z" id="Fill-39" fill="#3196A0"></path>
            <path d="M48.1218182,110.909697 C37.4721212,115.436364 32.7375758,105.475758 37.3642424,96.86 C41.9939394,88.2466667 55.6551515,82.8812121 55.6551515,82.8812121 C63.0242424,90.8909091 58.7727273,106.386061 48.1218182,110.909697 Z M78.850303,30.5533333 C92.0769697,14.2824242 98.3466667,9.25878788 101.083636,3.17333333 C103.269697,-1.68606061 99.1575758,0.899393939 99.1575758,0.899393939 C99.1575758,0.899393939 81.0921212,8.67939394 66.8369697,26.3951515 C52.5818182,44.1060606 53.0915152,58.8309091 52.3357576,62.5763636 C51.3187879,67.6187879 51.8169697,79.2975758 42.4733333,83.3787879 C32.4993939,87.7357576 25.5236364,100.597576 30.0042424,111.158788 C35.9848485,125.258788 55.3593939,120.883636 63.2466667,104.864242 C71.1290909,88.8478788 58.7454545,75.8587879 61.1090909,63.8890909 C63.070303,53.9551515 65.6260606,46.8242424 78.850303,30.5533333 Z" id="Fill-40" fill="#66BFB2"></path>
            <path d="M57.2363636,54.7654545 C55.7339394,54.9745455 54.5272727,56.2024242 54.409697,57.7775758 C54.2921212,59.349697 55.3018182,60.7472727 56.7563636,61.1787879 L57.2363636,54.7654545" id="Fill-41" fill="#3196A0"></path>
            <path d="M58.6327273,54.8684848 L58.1527273,61.2824242 C59.6533333,61.0727273 60.8612121,59.8424242 60.9793939,58.269697 C61.0969697,56.6975758 60.0860606,55.3 58.6327273,54.8684848" id="Fill-42" fill="#3196A0"></path>
        </g>
    </g>
</svg>