<?xml version="1.0" encoding="UTF-8"?>
<svg width="480px" height="360px" viewBox="0 0 480 360" version="1.1" xmlns="http://www.w3.org/2000/svg" xmlns:xlink="http://www.w3.org/1999/xlink">
    <!-- Generator: Sketch 51.1 (57501) - http://www.bohemiancoding.com/sketch -->
    <title>Village4</title>
    <desc>Created with Sketch.</desc>
    <defs>
        <polygon id="path-1" points="0 0.379427111 649.468 0.379427111 649.468 264.592 0 264.592"></polygon>
    </defs>
    <g id="Village4" stroke="none" stroke-width="1" fill="none" fill-rule="evenodd">
        <g id="Group-66" transform="translate(0.000000, 19.393000)">
            <path d="M139.1279,51.8599 C136.6849,51.5549 134.3229,52.0109 132.2779,53.0429 C132.4259,52.3909 132.5449,51.7259 132.6289,51.0479 C134.0109,39.9869 126.1649,29.9009 115.1039,28.5189 C110.7979,27.9809 106.6419,28.8469 103.0859,30.7529 C101.6849,23.8749 96.0429,18.3409 88.6919,17.4229 C79.4749,16.2709 71.0699,22.8099 69.9189,32.0269 C69.8049,32.9389 69.7689,33.8419 69.8009,34.7319 C60.9979,33.7999 53.0329,40.0839 51.9299,48.9049 C51.8259,49.7409 51.7869,50.5689 51.8089,51.3859 C51.0189,51.1139 50.1889,50.9179 49.3259,50.8099 C42.5939,49.9689 36.4549,54.7449 35.6139,61.4759 C35.4729,62.6019 35.4929,63.7109 35.6499,64.7819 L76.6469,64.7819 L100.6159,64.7819 L124.5789,64.7819 L125.7579,64.7819 L149.5369,64.7819 C150.1169,58.3999 145.5359,52.6609 139.1279,51.8599" id="Fill-2" fill="#FFFFFF"></path>
            <path d="M274.4897,68.5264 C272.0467,68.2214 269.6847,68.6774 267.6397,69.7094 C267.7877,69.0574 267.9067,68.3924 267.9907,67.7144 C269.3727,56.6534 261.5267,46.5674 250.4657,45.1854 C246.1597,44.6474 242.0037,45.5134 238.4487,47.4194 C237.0467,40.5414 231.4047,35.0074 224.0537,34.0894 C214.8367,32.9374 206.4317,39.4764 205.2807,48.6934 C205.1667,49.6054 205.1307,50.5084 205.1627,51.3984 C196.3597,50.4664 188.3947,56.7504 187.2917,65.5714 C187.1877,66.4074 187.1487,67.2354 187.1707,68.0524 C186.3807,67.7804 185.5507,67.5844 184.6877,67.4764 C177.9557,66.6354 171.8167,71.4114 170.9757,78.1424 C170.8347,79.2684 170.8547,80.3774 171.0117,81.4484 L212.0087,81.4484 L235.9777,81.4484 L259.9407,81.4484 L261.1197,81.4484 L284.8987,81.4484 C285.4787,75.0664 280.8977,69.3274 274.4897,68.5264" id="Fill-4" fill="#FFFFFF"></path>
            <path d="M320.6714,34.7813 C323.1144,34.4763 325.4764,34.9323 327.5214,35.9643 C327.3724,35.3123 327.2554,34.6473 327.1694,33.9693 C325.7884,22.9083 333.6344,12.8223 344.6944,11.4403 C349.0014,10.9023 353.1574,11.7683 356.7124,13.6743 C358.1144,6.7963 363.7564,1.2623 371.1074,0.3443 C380.3234,-0.8077 388.7304,5.7313 389.8804,14.9483 C389.9944,15.8603 390.0304,16.7633 389.9984,17.6533 C398.8024,16.7213 406.7674,23.0053 407.8684,31.8263 C407.9734,32.6623 408.0124,33.4903 407.9894,34.3073 C408.7804,34.0353 409.6104,33.8393 410.4744,33.7313 C417.2044,32.8903 423.3444,37.6663 424.1854,44.3973 C424.3254,45.5233 424.3064,46.6323 424.1504,47.7033 L383.1524,47.7033 L359.1834,47.7033 L335.2204,47.7033 L334.0414,47.7033 L310.2624,47.7033 C309.6834,41.3213 314.2634,35.5823 320.6714,34.7813" id="Fill-6" fill="#FFFFFF"></path>
            <path d="M480.2769,89.2671 C480.2769,121.5001 454.1469,147.6301 421.9139,147.6301 C389.6809,147.6301 363.5509,121.5001 363.5509,89.2671 C363.5509,57.0341 389.6809,30.9041 421.9139,30.9041 C454.1469,30.9041 480.2769,57.0341 480.2769,89.2671" id="Fill-11" fill="#F2D500"></path>
            <path d="M292.7964,47.0342 L432.5544,107.4412 C437.6034,109.6242 444.7554,108.0742 448.4474,103.9982 L512.0204,33.8202 C515.7124,29.7442 520.5814,30.5122 522.8404,35.5272 L572.6274,146.0872 C574.8864,151.1022 572.7944,157.3802 567.9804,160.0392 L415.5194,244.2292 C410.7044,246.8882 402.3424,248.2322 396.9374,247.2172 L246.5324,218.9722" id="Fill-13" fill="#76C6BF"></path>
            <path d="M29.5264,77.9961 C31.6114,72.9071 37.1544,71.0931 41.8454,73.9651 L86.7064,101.4371 C91.3964,104.3091 98.1804,103.2581 101.7814,99.1011 L149.7204,42.5771 C157.1714,37.3121 160.8594,36.8751 165.9754,40.0451 L252.9244,92.3381 C257.6374,95.1731 265.6504,99.2171 270.7304,101.3251 L363.1224,139.6601 C368.2024,141.7671 376.7834,142.6731 382.1924,141.6731 L454.4014,128.3111 C459.8094,127.3111 466.2824,122.4851 468.7864,117.5891 L510.4314,36.1451 C512.9354,31.2491 516.4874,30.3561 517.9254,30.4661 C522.6514,30.8261 524.5554,40.3781 527.0684,43.3261 C533.3184,50.6591 539.8084,25.7591 544.1774,22.4171 L545.2904,21.5671 C549.6594,18.2251 556.1624,18.9091 559.7414,23.0851 L570.7264,35.8991 C574.3054,40.0761 581.7244,43.1991 587.2124,42.8411 L605.5264,34.5141 C618.4014,41.0761 627.7284,46.8681 630.8964,51.3641 L643.2074,68.8321 C646.3754,73.3281 648.8984,81.5061 648.8134,87.0051 C648.8134,87.0051 645.9684,270.3381 648.9684,270.9141 L25.2344,270.9141 C19.7344,270.9141 14.6474,266.4531 13.9294,261.0001 L0.8044,161.2031 C0.0874,155.7491 1.2064,147.1241 3.2914,142.0351 L29.5264,77.9961 Z" id="Fill-15" fill="#76C6BF"></path>
            <g id="Group-19" transform="translate(0.000000, 22.000000)">
                <mask id="mask-2" fill="white">
                    <use xlink:href="#path-1"></use>
                </mask>
                <g id="Clip-18"></g>
                <path d="M0,78.4092 C0,72.9092 4.011,66.3692 8.914,63.8772 L32.82,51.7232 C37.723,49.2302 41.087,51.6442 40.297,57.0872 L36.17,85.5132 C35.38,90.9562 38.505,92.9542 43.115,89.9542 L152.353,18.8642 C156.962,15.8642 158.966,17.5472 156.806,22.6052 L123.662,100.2132 C121.501,105.2712 123.707,107.2962 128.562,104.7132 L278.207,25.1052 C283.063,22.5222 290.656,23.0812 295.081,26.3482 L336.844727,57.0872 C341.270727,60.3542 351.511,70.3582 354.15,75.1832 L368.062,100.6352 C370.701,105.4602 377.18,108.1542 382.462,106.6202 L432.13,92.1982 C437.413,90.6642 444.755,86.0742 448.448,81.9982 L480,46.1812187 C480,46.1812187 480,118.721583 480,263.802313 L10,269.0002 C4.5,269.0002 0,264.5002 0,259.0002 L0,78.4092 Z" id="Fill-17" fill="#4A9B99" mask="url(#mask-2)"></path>
            </g>
            <polygon id="Fill-25" fill="#FFFFFF" points="395.384 149.093 448.541 149.093 448.541 110.824 395.384 110.824"></polygon>
            <polygon id="Fill-26" fill="#FFDFC9" points="395.3794 110.8237 421.9624 64.7817 448.5444 110.8237"></polygon>
            <path d="M416.311,128.334 C416.311,129.526 415.344,130.493 414.152,130.493 L405.242,130.493 C404.049,130.493 403.082,129.526 403.082,128.334 L403.082,120.661 C403.082,119.468 404.049,118.501 405.242,118.501 L414.152,118.501 C415.344,118.501 416.311,119.468 416.311,120.661 L416.311,128.334 Z" id="Fill-27" fill="#4E4643"></path>
            <path d="M440.5239,128.334 C440.5239,129.526 439.5569,130.493 438.3649,130.493 L429.4549,130.493 C428.2619,130.493 427.2949,129.526 427.2949,128.334 L427.2949,120.661 C427.2949,119.468 428.2619,118.501 429.4549,118.501 L438.3649,118.501 C439.5569,118.501 440.5239,119.468 440.5239,120.661 L440.5239,128.334 Z" id="Fill-28" fill="#4E4643"></path>
            <polygon id="Fill-33" fill="#FFFFFF" points="235.415 166.755 288.572 166.755 288.572 128.486 235.415 128.486"></polygon>
            <polygon id="Fill-34" fill="#FFDFC9" points="235.4107 128.4858 261.9937 82.4438 288.5767 128.4858"></polygon>
            <path d="M256.3423,145.9961 C256.3423,147.1881 255.3763,148.1561 254.1843,148.1561 L245.2733,148.1561 C244.0803,148.1561 243.1143,147.1881 243.1143,145.9961 L243.1143,138.3231 C243.1143,137.1311 244.0803,136.1641 245.2733,136.1641 L254.1843,136.1641 C255.3763,136.1641 256.3423,137.1311 256.3423,138.3231 L256.3423,145.9961 Z" id="Fill-35" fill="#4E4643"></path>
            <path d="M280.5552,145.9961 C280.5552,147.1881 279.5892,148.1561 278.3972,148.1561 L269.4862,148.1561 C268.2932,148.1561 267.3262,147.1881 267.3262,145.9961 L267.3262,138.3231 C267.3262,137.1311 268.2932,136.1641 269.4862,136.1641 L278.3972,136.1641 C279.5892,136.1641 280.5552,137.1311 280.5552,138.3231 L280.5552,145.9961 Z" id="Fill-36" fill="#4E4643"></path>
            <polygon id="Fill-37" fill="#FFFFFF" points="149.873 182.99 203.03 182.99 203.03 144.72 149.873 144.72"></polygon>
            <polygon id="Fill-38" fill="#5BD1B0" points="149.8701 144.7207 176.4521 98.6787 203.0351 144.7207"></polygon>
            <path d="M170.8008,162.231 C170.8008,163.424 169.8348,164.391 168.6428,164.391 L159.7318,164.391 C158.5388,164.391 157.5728,163.424 157.5728,162.231 L157.5728,154.558 C157.5728,153.366 158.5388,152.399 159.7318,152.399 L168.6428,152.399 C169.8348,152.399 170.8008,153.366 170.8008,154.558 L170.8008,162.231 Z" id="Fill-39" fill="#4E4643"></path>
            <path d="M195.0137,162.231 C195.0137,163.424 194.0477,164.391 192.8557,164.391 L183.9447,164.391 C182.7517,164.391 181.7847,163.424 181.7847,162.231 L181.7847,154.558 C181.7847,153.366 182.7517,152.399 183.9447,152.399 L192.8557,152.399 C194.0477,152.399 195.0137,153.366 195.0137,154.558 L195.0137,162.231 Z" id="Fill-40" fill="#4E4643"></path>
            <path d="M0,231.1523 C0,231.1523 281.125,123.435125 480,151.302313 L480,340.607 L0,340.607 L0,231.1523 Z" id="Fill-41" fill="#BBEFBF"></path>
            <polygon id="Fill-42" fill="#FFFFFF" points="123.088 236.624 176.245 236.624 176.245 198.355 123.088 198.355"></polygon>
            <polygon id="Fill-43" fill="#FFDFC9" points="123.084 198.3545 149.667 152.3125 176.25 198.3545"></polygon>
            <path d="M144.0156,215.8647 C144.0156,217.0567 143.0496,218.0247 141.8576,218.0247 L132.9466,218.0247 C131.7536,218.0247 130.7876,217.0567 130.7876,215.8647 L130.7876,208.1917 C130.7876,206.9997 131.7536,206.0327 132.9466,206.0327 L141.8576,206.0327 C143.0496,206.0327 144.0156,206.9997 144.0156,208.1917 L144.0156,215.8647 Z" id="Fill-44" fill="#4E4643"></path>
            <path d="M168.2285,215.8647 C168.2285,217.0567 167.2625,218.0247 166.0705,218.0247 L157.1595,218.0247 C155.9665,218.0247 154.9995,217.0567 154.9995,215.8647 L154.9995,208.1917 C154.9995,206.9997 155.9665,206.0327 157.1595,206.0327 L166.0705,206.0327 C167.2625,206.0327 168.2285,206.9997 168.2285,208.1917 L168.2285,215.8647 Z" id="Fill-45" fill="#4E4643"></path>
            <polygon id="Fill-46" fill="#FFFFFF" points="26.329 230.984 79.486 230.984 79.486 192.715 26.329 192.715"></polygon>
            <polygon id="Fill-47" fill="#405490" points="26.3247 192.7148 52.9077 146.6728 79.4907 192.7148"></polygon>
            <path d="M47.2564,210.2251 C47.2564,211.4171 46.2894,212.3841 45.0974,212.3841 L36.1874,212.3841 C34.9944,212.3841 34.0274,211.4171 34.0274,210.2251 L34.0274,202.5521 C34.0274,201.3601 34.9944,200.3921 36.1874,200.3921 L45.0974,200.3921 C46.2894,200.3921 47.2564,201.3601 47.2564,202.5521 L47.2564,210.2251 Z" id="Fill-48" fill="#4E4643"></path>
            <path d="M71.4693,210.2251 C71.4693,211.4171 70.5023,212.3841 69.3103,212.3841 L60.4003,212.3841 C59.2073,212.3841 58.2403,211.4171 58.2403,210.2251 L58.2403,202.5521 C58.2403,201.3601 59.2073,200.3921 60.4003,200.3921 L69.3103,200.3921 C70.5023,200.3921 71.4693,201.3601 71.4693,202.5521 L71.4693,210.2251 Z" id="Fill-49" fill="#4E4643"></path>
            <polygon id="Fill-50" fill="#FFFFFF" points="279.803 182.269 332.96 182.269 332.96 144 279.803 144"></polygon>
            <polygon id="Fill-51" fill="#405490" points="279.7998 144 306.3828 97.958 332.9668 144"></polygon>
            <path d="M300.7314,161.5103 C300.7314,162.7023 299.7644,163.6693 298.5724,163.6693 L289.6624,163.6693 C288.4694,163.6693 287.5024,162.7023 287.5024,161.5103 L287.5024,153.8373 C287.5024,152.6453 288.4694,151.6773 289.6624,151.6773 L298.5724,151.6773 C299.7644,151.6773 300.7314,152.6453 300.7314,153.8373 L300.7314,161.5103 Z" id="Fill-52" fill="#4E4643"></path>
            <path d="M324.9443,161.5103 C324.9443,162.7023 323.9773,163.6693 322.7853,163.6693 L313.8753,163.6693 C312.6823,163.6693 311.7153,162.7023 311.7153,161.5103 L311.7153,153.8373 C311.7153,152.6453 312.6823,151.6773 313.8753,151.6773 L322.7853,151.6773 C323.9773,151.6773 324.9443,152.6453 324.9443,153.8373 L324.9443,161.5103 Z" id="Fill-53" fill="#4E4643"></path>
        </g>
    </g>
</svg>