<?xml version="1.0" encoding="UTF-8"?>
<svg width="120px" height="120px" viewBox="0 0 120 120" version="1.1" xmlns="http://www.w3.org/2000/svg" xmlns:xlink="http://www.w3.org/1999/xlink">
    <!-- Generator: Sketch 51.1 (57501) - http://www.bohemiancoding.com/sketch -->
    <title>Carousel6</title>
    <desc>Created with Sketch.</desc>
    <defs>
        <polygon id="path-1" points="0 112.371429 119.834595 112.371429 119.834595 1.4136 0 1.4136"></polygon>
    </defs>
    <g id="Carousel6" stroke="none" stroke-width="1" fill="none" fill-rule="evenodd">
        <g id="Page-1" transform="translate(0.000000, 3.000000)">
            <polygon id="Fill-1" fill="#FFFFFF" points="29.4518919 78.1883657 31.8178378 78.1883657 31.8178378 29.9289086 29.4518919 29.9289086"></polygon>
            <polygon id="Fill-2" fill="#FFFFFF" points="88.0135135 78.1883657 90.3794595 78.1883657 90.3794595 29.9289086 88.0135135 29.9289086"></polygon>
            <g id="Group-37" transform="translate(0.000000, 0.215623)">
                <path d="M38.4945405,78.8953286 C37.1129189,78.5240143 35.6907568,79.3480714 35.3242703,80.7372429 L33.7464324,86.6619857 L33.6523784,87.0202714 C33.5891351,87.2580429 33.6199459,87.5235 33.7577838,87.7498714 L35.9794054,91.3180714 C36.2437297,91.7382429 36.7934595,91.8978429 37.2426486,91.6617 C37.7145405,91.4141571 37.8929189,90.8311286 37.6464324,90.3621 L36.0588649,87.3297 L39.7642703,83.1328714 C40.0188649,82.8397286 40.2167027,82.4798143 40.3221081,82.0791857 C40.6983243,80.6916429 39.8761622,79.2666429 38.4945405,78.8953286" id="Fill-3" fill="#794B12"></path>
                <path d="M24.6330811,80.4444257 C23.8644324,80.10894 22.9774054,80.4558257 22.6417297,81.2228829 L20.3536216,86.4326829 L20.2984865,86.5564543 C20.1801081,86.8447114 20.1865946,87.1867114 20.3665946,87.4700829 L22.4795676,90.8640257 C22.7325405,91.2679114 23.2547027,91.4144829 23.6795676,91.18974 C24.1271351,90.9568543 24.2957838,90.40314 24.0638919,89.9536543 L22.5152432,86.9912829 L25.2882162,82.65114 C25.3303784,82.5876257 25.3709189,82.51434 25.404973,82.4426829 C25.7374054,81.6772543 25.3887568,80.7847971 24.6330811,80.4444257" id="Fill-5" fill="#794B12"></path>
                <path d="M41.4321081,74.5836857 C41.4321081,74.5836857 41.5456216,74.3198571 41.8294054,73.9436571 C42.1212973,73.5674571 42.5834595,73.0756286 43.344,72.6798857 C43.7153514,72.4860857 44.1726486,72.3102 44.7353514,72.2434286 C45.2850811,72.1750286 45.9856216,72.2255143 46.6764324,72.5349429 C47.3737297,72.8411143 48.0094054,73.4176286 48.396973,74.0397429 C48.7942703,74.6634857 49.0067027,75.3084 49.116973,75.9028286 C49.151027,76.0559143 49.1704865,76.2057429 49.1899459,76.3490571 L49.2126486,76.5672857 L49.2223784,76.6747714 L49.2288649,76.7285143 L49.2288649,76.7578286 C49.2223784,76.722 49.236973,76.8425143 49.2175135,76.6829143 L49.2175135,76.6894286 L49.2223784,76.6992 C49.2402162,76.9239429 49.2564324,77.1454286 49.2661622,77.3685429 C49.2694054,77.6209714 49.2888649,77.7496286 49.2937297,77.9027143 C49.2985946,78.0558 49.2888649,78.2088857 49.3115676,78.3684857 C49.3261622,78.6925714 49.3423784,78.9873429 49.3715676,79.2625714 C49.3942703,79.3863429 49.3975135,79.5410571 49.4267027,79.6501714 C49.4445405,79.7755714 49.4672432,79.9009714 49.4996757,80.0068286 C49.5564324,80.2494857 49.6521081,80.4449143 49.7688649,80.655 C49.8888649,80.8422857 50.0412973,81.0198 50.1937297,81.1484571 C50.4937297,81.4220571 50.7612973,81.5393143 50.7612973,81.5393143 C50.7612973,81.5393143 50.7223784,81.5995714 50.6137297,81.6777429 C50.5131892,81.7526571 50.3461622,81.8829429 50.1077838,81.9676286 C49.8661622,82.0653429 49.5515676,82.1223429 49.1591351,82.1158286 C48.7829189,82.0881429 48.3272432,81.9904286 47.9007568,81.7526571 C47.0137297,81.2966571 46.2791351,80.3928 45.8412973,79.4286857 C45.7164324,79.1892857 45.6272432,78.9238286 45.5445405,78.6486 L45.4164324,78.2349429 C45.3694054,78.0786 45.3612973,78.0069429 45.3321081,77.8864286 C45.2850811,77.6714571 45.2412973,77.4483429 45.204,77.2268571 L45.156973,76.9076571 C45.1488649,76.8262286 45.1294054,76.7545714 45.1148108,76.6845429 C45.0645405,76.3979143 45.0045405,76.1666571 44.964,76.0200857 C44.916973,75.8653714 44.916973,75.8002286 44.8780541,75.6878571 C44.8456216,75.5771143 44.7304865,75.4224 44.5148108,75.3084 C44.3072432,75.1846286 44.0315676,75.0836571 43.7494054,75.0071143 C43.1753514,74.8475143 42.576973,74.7595714 42.1504865,74.6960571 C41.6915676,74.6227714 41.4321081,74.5836857 41.4321081,74.5836857" id="Fill-7" fill="#1D82BF"></path>
                <path d="M20.5125405,66.3851314 C20.0147027,66.4730743 19.4730811,65.7532457 19.3060541,64.77936 C19.1974054,64.1621314 19.464973,63.5546743 19.6741622,63.19476 C19.7892973,63.0025886 20.052,62.95536 20.2255135,63.0986743 C20.544973,63.3690171 20.9957838,63.8461886 21.1076757,64.4650457 C21.2730811,65.44056 21.0055135,66.2988171 20.5125405,66.3851314" id="Fill-9" fill="#794B12"></path>
                <path d="M44.3633514,76.5081686 C43.0271351,73.70214 39.9963243,72.1696543 37.1082162,73.2901114 L36.6833514,73.4545971 C36.6833514,73.4545971 36.1936216,73.6483971 35.3244324,73.9855114 C35.1622703,74.0490257 34.9838919,74.1141686 34.7925405,74.1858257 C31.5460541,75.0082543 27.9801081,74.4138257 26.1541622,73.9855114 C26.2417297,72.93834 26.3374054,71.8113686 26.2530811,70.3749686 C26.2433514,70.1632543 26.2109189,69.9075686 26.184973,69.6795686 C26.1541622,69.43854 26.0925405,69.1567971 26.0374054,68.9043686 C25.9498378,68.6047114 25.8784865,68.3343686 25.7487568,68.0216829 C25.6076757,67.7008543 25.4730811,67.3995686 25.2379459,67.0657114 C25.0384865,66.74814 24.7660541,66.4419686 24.4644324,66.1716257 C24.3428108,66.0462257 24.1271351,65.8849971 23.9163243,65.74494 C23.7055135,65.6065114 23.4817297,65.4778543 23.2595676,65.3719971 L23.064973,65.3068543 L22.9692973,65.27754 L22.9238919,65.2628829 C22.4065946,65.0576829 22.764973,65.2009971 22.6433514,65.1553971 L22.5801081,65.14074 C22.4925405,65.1211971 22.4065946,65.1032829 22.319027,65.0853686 C22.3206486,64.8883114 22.3092973,64.6814829 22.2736216,64.4648829 C22.164973,63.8476543 21.7060541,63.3704829 21.3882162,63.10014 C21.2179459,62.9551971 20.952,63.0024257 20.8433514,63.1945971 C20.6292973,63.5545114 20.3617297,64.1619686 20.4736216,64.7791971 C20.4784865,64.8231686 20.4914595,64.8638829 20.5028108,64.9078543 C20.0828108,64.90134 19.7292973,64.98114 19.3644324,65.03814 C18.6168649,65.1814543 17.9682162,65.4127114 17.4055135,65.6700257 C16.2817297,66.1944257 15.432,66.7611686 14.7314595,67.3034829 C14.0374054,67.8490543 13.4876757,68.3506543 13.044973,68.7675686 C12.6055135,69.1909971 12.2828108,69.5378829 12.0557838,69.7837971 C11.8206486,70.0411114 11.699027,70.1779114 11.699027,70.1779114 C10.8995676,71.0654829 10.9141622,72.4351114 11.7557838,73.3015114 C12.2876757,73.8487114 13.0255135,74.0701971 13.7228108,73.9627114 L13.7195676,73.97574 L13.7698378,73.9578257 C14.0665946,73.90734 14.3552432,73.79334 14.6244324,73.62234 L17.1963243,72.60774 C17.1963243,72.60774 17.6503784,72.8911114 18.7952432,72.9578829 C18.779027,73.0099971 18.7644324,73.0621114 18.744973,73.1174829 C18.359027,74.2819114 17.892,75.5570829 17.6406486,77.33874 C17.544973,78.2377114 17.4784865,79.3044257 17.8352432,80.6935971 C17.9114595,81.0241971 18.0703784,81.4231971 18.2179459,81.7700829 C18.3930811,82.1446543 18.6022703,82.52574 18.8487568,82.8807686 C19.1147027,83.2390543 19.3936216,83.6022257 19.7211892,83.8986257 C19.7941622,83.9670257 19.8736216,84.0321686 19.9514595,84.1005686 L18.624973,87.1166829 L18.564973,87.2534829 C18.4287568,87.5710543 18.4417297,87.9537686 18.6395676,88.2680829 L20.9925405,92.0414829 C21.2682162,92.4877114 21.8503784,92.6538257 22.3255135,92.4046543 C22.8217297,92.1440829 23.0098378,91.5284829 22.7536216,91.0285114 L21.0282162,87.73554 L22.4211892,85.5662829 C22.5898378,85.6297971 22.764973,85.6900543 22.9368649,85.7470543 L23.3341622,85.8594257 C23.579027,85.9278257 23.8482162,85.9978543 24.0687568,86.0418257 C25.0222703,86.2486543 25.8428108,86.32194 26.6163243,86.36754 C28.1682162,86.4408257 29.4914595,86.3398543 30.7206486,86.2209686 C31.9514595,86.0857971 33.0557838,85.9033971 34.0611892,85.7144829 C34.7292973,85.5858257 35.3309189,85.4506543 35.9001081,85.3171114 L35.424973,87.1166829 L35.3244324,87.4945114 C35.2563243,87.7485686 35.2903784,88.0303114 35.4379459,88.2680829 L37.7909189,92.0414829 C38.0682162,92.4877114 38.6536216,92.6538257 39.1222703,92.4046543 C39.6184865,92.1440829 39.8098378,91.5284829 39.5536216,91.0285114 L37.8752432,87.8234829 C37.8752432,87.8234829 46.6092973,81.2228829 44.3633514,76.5081686" id="Fill-11" fill="#FFA326"></path>
                <path d="M35.7358378,73.8250971 C35.610973,73.8739543 35.4763784,73.9260686 35.3239459,73.9863257 C35.1617838,74.04984 34.9834054,74.1149829 34.7920541,74.18664 C31.5455676,75.0090686 27.9812432,74.4130114 26.1552973,73.9863257 C26.1552973,73.9863257 19.7125946,82.1177829 30.3617838,82.1177829 C41.0174595,82.1177829 35.7358378,73.8250971 35.7358378,73.8250971" id="Fill-13" fill="#1D82BF"></path>
                <path d="M20.3858919,67.3696029 C20.3858919,67.3696029 19.9902162,67.9689171 19.3788649,68.0878029 C18.7675135,68.20506 18.1772432,67.80606 18.1772432,67.80606 C18.1772432,67.80606 18.5761622,67.20186 19.1794054,67.0829743 C19.7891351,66.9640886 20.3858919,67.3696029 20.3858919,67.3696029" id="Fill-15" fill="#794B12"></path>
                <path d="M81.3408649,78.8953286 C82.7224865,78.5240143 84.1414054,79.3480714 84.5062703,80.7372429 L86.0873514,86.6619857 L86.1781622,87.0202714 C86.243027,87.2580429 86.2105946,87.5235 86.0727568,87.7498714 L83.8511351,91.3180714 C83.5868108,91.7382429 83.0370811,91.8978429 82.5911351,91.6617 C82.1208649,91.4141571 81.9441081,90.8311286 82.1873514,90.3621 L83.7716757,87.3297 L80.0662703,83.1328714 C79.8132973,82.8397286 79.6154595,82.4798143 79.5068108,82.0791857 C79.1370811,80.6916429 79.956,79.2666429 81.3408649,78.8953286" id="Fill-17" fill="#794B12"></path>
                <path d="M95.2021622,80.4444257 C95.9659459,80.10894 96.852973,80.4558257 97.1918919,81.2228829 L99.4767568,86.4326829 L99.5335135,86.5564543 C99.6551351,86.8447114 99.6421622,87.1867114 99.4637838,87.4700829 L97.3508108,90.8640257 C97.1027027,91.2679114 96.5772973,91.4144829 96.1508108,91.18974 C95.7081081,90.9568543 95.5345946,90.40314 95.7664865,89.9536543 L97.3135135,86.9912829 L94.5437838,82.65114 C94.5016216,82.5876257 94.4594595,82.51434 94.4254054,82.4426829 C94.0945946,81.6772543 94.44,80.7847971 95.2021622,80.4444257" id="Fill-19" fill="#794B12"></path>
                <path d="M78.3984324,74.5836857 C78.3984324,74.5836857 78.2881622,74.3198571 77.9995135,73.9436571 C77.7092432,73.5674571 77.2470811,73.0756286 76.493027,72.6798857 C76.1184324,72.4860857 75.6595135,72.3102 75.0935676,72.2434286 C74.5454595,72.1750286 73.8465405,72.2255143 73.1541081,72.5349429 C72.4568108,72.8411143 71.8227568,73.4176286 71.4351892,74.0397429 C71.0378919,74.6634857 70.8238378,75.3084 70.7135676,75.9028286 C70.6811351,76.0559143 70.6568108,76.2057429 70.6454595,76.3490571 L70.6211351,76.5672857 L70.6114054,76.6747714 L70.6016757,76.7285143 L70.6016757,76.7578286 C70.6065405,76.722 70.5935676,76.8425143 70.6114054,76.6829143 L70.6114054,76.6894286 L70.6114054,76.6992 C70.5903243,76.9239429 70.578973,77.1454286 70.566,77.3685429 C70.5611351,77.6209714 70.5465405,77.7496286 70.5368108,77.9027143 C70.5335676,78.0558 70.5416757,78.2088857 70.5254595,78.3684857 C70.506,78.6925714 70.4881622,78.9873429 70.458973,79.2625714 C70.4411351,79.3863429 70.4314054,79.5410571 70.4103243,79.6501714 C70.386,79.7755714 70.3632973,79.9009714 70.3308649,80.0068286 C70.2773514,80.2494857 70.1832973,80.4449143 70.0665405,80.655 C69.9416757,80.8422857 69.7892432,81.0198 69.6416757,81.1484571 C69.3368108,81.4220571 69.0692432,81.5393143 69.0692432,81.5393143 C69.0692432,81.5393143 69.1081622,81.5995714 69.2168108,81.6777429 C69.3173514,81.7526571 69.4843784,81.8829429 69.7243784,81.9676286 C69.9643784,82.0653429 70.2773514,82.1223429 70.6714054,82.1158286 C71.046,82.0881429 71.5081622,81.9904286 71.9281622,81.7526571 C72.8168108,81.2966571 73.5497838,80.3928 73.9876216,79.4286857 C74.1141081,79.1892857 74.2032973,78.9238286 74.2908649,78.6486 L74.4141081,78.2349429 C74.4611351,78.0786 74.4708649,78.0069429 74.4984324,77.8864286 C74.5454595,77.6714571 74.5908649,77.4483429 74.6265405,77.2268571 L74.6735676,76.9076571 C74.6865405,76.8262286 74.7027568,76.7545714 74.7205946,76.6845429 C74.766,76.3979143 74.826,76.1666571 74.8697838,76.0200857 C74.9135676,75.8653714 74.9135676,75.8002286 74.9492432,75.6878571 C74.9881622,75.5771143 75.1049189,75.4224 75.3173514,75.3084 C75.5232973,75.1846286 75.8005946,75.0836571 76.0811351,75.0071143 C76.6551892,74.8475143 77.2535676,74.7595714 77.6816757,74.6960571 C78.1405946,74.6227714 78.3984324,74.5836857 78.3984324,74.5836857" id="Fill-21" fill="#1D82BF"></path>
                <path d="M99.3196216,66.3851314 C99.8207027,66.4730743 100.354216,65.7532457 100.524486,64.77936 C100.633135,64.1621314 100.365568,63.5546743 100.158,63.19476 C100.041243,63.0025886 99.7785405,62.95536 99.6082703,63.0986743 C99.2871892,63.3690171 98.8331351,63.8461886 98.7293514,64.4650457 C98.5574595,65.44056 98.825027,66.2988171 99.3196216,66.3851314" id="Fill-23" fill="#794B12"></path>
                <path d="M75.4671892,76.5081686 C76.8082703,73.70214 79.8342162,72.1696543 82.7223243,73.2901114 L83.1471892,73.4545971 C83.1471892,73.4545971 83.6417838,73.6483971 84.5061081,73.9855114 C84.6682703,74.0490257 84.8466486,74.1141686 85.0412432,74.1858257 C88.290973,75.0082543 91.8488108,74.4138257 93.6731351,73.9855114 C93.5904324,72.93834 93.4931351,71.8113686 93.5774595,70.3749686 C93.5855676,70.1632543 93.6228649,69.9075686 93.6455676,69.6795686 C93.6812432,69.43854 93.7428649,69.1567971 93.798,68.9043686 C93.8807027,68.6047114 93.9520541,68.3343686 94.0834054,68.0216829 C94.2228649,67.7008543 94.3574595,67.3995686 94.5942162,67.0657114 C94.7969189,66.74814 95.0644865,66.4419686 95.3644865,66.1716257 C95.4893514,66.0462257 95.7034054,65.8849971 95.9142162,65.74494 C96.125027,65.6065114 96.3488108,65.4778543 96.5725946,65.3719971 L96.7639459,65.3068543 L96.8628649,65.27754 L96.9082703,65.2628829 C97.4271892,65.0576829 97.0639459,65.2009971 97.1855676,65.1553971 L97.2504324,65.14074 C97.338,65.1211971 97.4271892,65.1032829 97.5147568,65.0853686 C97.5098919,64.8883114 97.5244865,64.6814829 97.5569189,64.4648829 C97.6655676,63.8476543 98.1244865,63.3704829 98.4423243,63.10014 C98.6125946,62.9551971 98.8769189,63.0024257 98.9871892,63.1945971 C99.2012432,63.5545114 99.4671892,64.1619686 99.3569189,64.7791971 C99.3520541,64.8231686 99.3390811,64.8638829 99.3293514,64.9078543 C99.7444865,64.90134 100.101243,64.98114 100.466108,65.03814 C101.218541,65.1814543 101.865568,65.4127114 102.425027,65.6700257 C103.545568,66.1944257 104.396919,66.7611686 105.102324,67.3034829 C105.793135,67.8490543 106.342865,68.3506543 106.787189,68.7675686 C107.225027,69.1909971 107.54773,69.5378829 107.774757,69.7837971 C108.009892,70.0411114 108.131514,70.1779114 108.131514,70.1779114 C108.932595,71.0654829 108.916378,72.4351114 108.074757,73.3015114 C107.544486,73.8487114 106.805027,74.0701971 106.109351,73.9627114 L106.112595,73.97574 L106.065568,73.9578257 C105.767189,73.90734 105.475297,73.79334 105.210973,73.62234 L102.634216,72.60774 C102.634216,72.60774 102.181784,72.8911114 101.035297,72.9578829 C101.053135,73.0099971 101.070973,73.0621114 101.083946,73.1174829 C101.478,74.2819114 101.940162,75.5570829 102.189892,77.33874 C102.285568,78.2377114 102.352054,79.3044257 101.998541,80.6935971 C101.923946,81.0241971 101.760162,81.4231971 101.617459,81.7700829 C101.442324,82.1446543 101.22827,82.52574 100.983405,82.8807686 C100.715838,83.2390543 100.441784,83.6022257 100.110973,83.8986257 C100.034757,83.9670257 99.9585405,84.0321686 99.8839459,84.1005686 L101.203946,87.1166829 L101.265568,87.2534829 C101.403405,87.5710543 101.388811,87.9537686 101.190973,88.2680829 L98.8396216,92.0414829 C98.5623243,92.4877114 97.9801622,92.6538257 97.5098919,92.4046543 C97.0088108,92.1440829 96.8207027,91.5284829 97.0785405,91.0285114 L98.8023243,87.73554 L97.4174595,85.5662829 C97.2390811,85.6297971 97.0688108,85.6900543 96.8952973,85.7470543 L96.5028649,85.8594257 C96.2515135,85.9278257 95.9888108,85.9978543 95.7617838,86.0418257 C94.8098919,86.2486543 93.9893514,86.32194 93.2142162,86.36754 C91.6623243,86.4408257 90.3439459,86.3398543 89.1082703,86.2209686 C87.8823243,86.0857971 86.7763784,85.9033971 85.770973,85.7144829 C85.1012432,85.5858257 84.5012432,85.4506543 83.9288108,85.3171114 L84.4039459,87.1166829 L84.5061081,87.4945114 C84.5758378,87.7485686 84.5401622,88.0303114 84.3925946,88.2680829 L82.0396216,92.0414829 C81.7623243,92.4877114 81.1785405,92.6538257 80.7082703,92.4046543 C80.2136757,92.1440829 80.0190811,91.5284829 80.285027,91.0285114 L81.9552973,87.8234829 C81.9552973,87.8234829 73.2228649,81.2228829 75.4671892,76.5081686" id="Fill-25" fill="#FFA326"></path>
                <path d="M84.0947027,73.8250971 C84.2211892,73.8739543 84.359027,73.9260686 84.5065946,73.9863257 C84.6687568,74.04984 84.8471351,74.1149829 85.0417297,74.18664 C88.2914595,75.0090686 91.8476757,74.4130114 93.672,73.9863257 C93.672,73.9863257 100.117946,82.1177829 89.4687568,82.1177829 C78.8195676,82.1177829 84.0947027,73.8250971 84.0947027,73.8250971" id="Fill-27" fill="#1D82BF"></path>
                <path d="M99.4446486,67.3696029 C99.4446486,67.3696029 99.8419459,67.9689171 100.451676,68.0878029 C101.061405,68.20506 101.653297,67.80606 101.653297,67.80606 C101.653297,67.80606 101.256,67.20186 100.651135,67.0829743 C100.041405,66.9640886 99.4446486,67.3696029 99.4446486,67.3696029" id="Fill-29" fill="#794B12"></path>
                <mask id="mask-2" fill="white">
                    <use xlink:href="#path-1"></use>
                </mask>
                <g id="Clip-32"></g>
                <polygon id="Fill-31" fill="#FFA326" mask="url(#mask-2)" points="56.1308108 93.9913714 63.6989189 93.9913714 63.6989189 32.8531714 56.1308108 32.8531714"></polygon>
                <path d="M112.132703,112.371754 L7.70351351,112.371754 C5.85486486,112.371754 4.35810811,110.866954 4.35810811,109.01364 L4.35810811,101.359354 L115.474865,101.359354 L115.474865,109.01364 C115.474865,110.866954 113.976486,112.371754 112.132703,112.371754" id="Fill-33" fill="#FFA326" mask="url(#mask-2)"></path>
                <path d="M108.135568,93.9913714 L11.6928649,93.9913714 C7.64205405,93.9913714 4.35827027,97.2892286 4.35827027,101.359029 C4.35827027,105.430457 7.64205405,108.731571 11.6928649,108.731571 C14.8858378,108.731571 17.5712432,106.673057 18.5831351,103.818171 C19.5966486,106.673057 22.2852973,108.731571 25.4717838,108.731571 C28.6615135,108.731571 31.3501622,106.673057 32.3636757,103.818171 C33.3755676,106.673057 36.0593514,108.731571 39.2507027,108.731571 C42.4420541,108.731571 45.1258378,106.673057 46.1425946,103.816543 C47.148,106.673057 49.8382703,108.731571 53.0263784,108.731571 C56.2193514,108.731571 58.9047568,106.674686 59.915027,103.821429 C60.9285405,106.674686 63.6139459,108.731571 66.8069189,108.731571 C69.9966486,108.731571 72.6820541,106.673057 73.6923243,103.816543 C74.7058378,106.673057 77.3944865,108.731571 80.5825946,108.731571 C83.7723243,108.731571 86.460973,106.673057 87.4728649,103.818171 C88.4847568,106.673057 91.1685405,108.731571 94.3631351,108.731571 C97.5512432,108.731571 100.233405,106.673057 101.251784,103.818171 C102.258811,106.673057 104.945838,108.731571 108.135568,108.731571 C112.192865,108.731571 115.473405,105.430457 115.473405,101.359029 C115.473405,97.2892286 112.192865,93.9913714 108.135568,93.9913714" id="Fill-34" fill="#0F4160" mask="url(#mask-2)"></path>
                <polygon id="Fill-35" fill="#FFA326" mask="url(#mask-2)" points="115.474054 32.6512286 4.35891892 32.6512286 4.35891892 28.2752571 59.9140541 1.41197143 115.474054 28.2752571"></polygon>
                <path d="M115.474054,28.2759086 L4.35891892,28.2759086 C1.94918919,28.2759086 0,30.2334514 0,32.65188 C0,35.06868 1.94918919,37.02948 4.35891892,37.02948 C6.47351351,37.02948 8.23459459,35.51328 8.63027027,33.5052514 C9.02918919,35.51328 10.787027,37.02948 12.9064865,37.02948 C15.0227027,37.02948 16.7821622,35.51328 17.1810811,33.5052514 C17.5767568,35.51328 19.332973,37.02948 21.4540541,37.02948 C23.5686486,37.02948 25.3297297,35.51328 25.727027,33.5052514 C26.1243243,35.51328 27.8805405,37.02948 30.0016216,37.02948 C32.1178378,37.02948 33.8837838,35.5083943 34.2778378,33.4971086 C34.6686486,35.5083943 36.4281081,37.02948 38.5475676,37.02948 C40.6654054,37.02948 42.4264865,35.51328 42.8189189,33.5052514 C43.2162162,35.51328 44.9772973,37.02948 47.0918919,37.02948 C49.212973,37.02948 50.9772973,35.51328 51.3664865,33.5052514 C51.7654054,35.51328 53.5248649,37.02948 55.6427027,37.02948 C57.7621622,37.02948 59.5281081,35.5083943 59.9140541,33.4971086 C60.3081081,35.5083943 62.0740541,37.02948 64.1886486,37.02948 C66.312973,37.02948 68.0659459,35.51328 68.4648649,33.5052514 C68.8589189,35.51328 70.6216216,37.02948 72.7378378,37.02948 C74.8524324,37.02948 76.6135135,35.51328 77.0124324,33.5052514 C77.4081081,35.51328 79.1675676,37.02948 81.2854054,37.02948 C83.4081081,37.02948 85.1675676,35.5083943 85.56,33.4971086 C85.9524324,35.5083943 87.7118919,37.02948 89.832973,37.02948 C91.9491892,37.02948 93.7086486,35.51328 94.1027027,33.5052514 C94.5016216,35.51328 96.2659459,37.02948 98.3837838,37.02948 C100.498378,37.02948 102.259459,35.51328 102.65027,33.5052514 C103.049189,35.51328 104.808649,37.02948 106.926486,37.02948 C109.045946,37.02948 110.805405,35.51328 111.201081,33.5052514 C111.595135,35.51328 113.356216,37.02948 115.474054,37.02948 C117.883784,37.02948 119.834595,35.06868 119.834595,32.65188 C119.834595,30.2334514 117.883784,28.2759086 115.474054,28.2759086" id="Fill-36" fill="#0F4160" mask="url(#mask-2)"></path>
            </g>
        </g>
    </g>
</svg>