<?xml version="1.0" encoding="UTF-8"?>
<svg width="120px" height="120px" viewBox="0 0 120 120" version="1.1" xmlns="http://www.w3.org/2000/svg" xmlns:xlink="http://www.w3.org/1999/xlink">
    <!-- Generator: Sketch 51.1 (57501) - http://www.bohemiancoding.com/sketch -->
    <title>Racing Car4</title>
    <desc>Created with Sketch.</desc>
    <defs></defs>
    <g id="Racing-Car4" stroke="none" stroke-width="1" fill="none" fill-rule="evenodd">
        <g id="Group" transform="translate(60.000000, 60.000000) scale(-1, 1) translate(-60.000000, -60.000000) translate(0.000000, 42.000000)">
            <path d="M0.993269534,32 L5,32 L5,34 L0.993269534,34 C0.444841729,34 0,33.5525549 0,33.0002648 C0,32.4474451 0.444841729,32 0.993269534,32" id="Fill-63-Copy" fill="#242424"></path>
            <path d="M100.921259,17.8779316 L102.252134,11.2184928 C102.62589,9.34685279 104.267387,8 106.173544,8 L111.710692,8 L111.710692,10.2391933 C112.554674,8.84886105 114.062831,8 115.688166,8 L120,8 L116.623062,26 L100,25.1663062 L100.921259,17.8779316 Z" id="Fill-65-Copy" fill="#242424"></path>
            <path d="M15.0580611,30.1536574 C15.0580611,30.1536574 19.533534,26.4776949 25.4572066,26.4776949 L47.1544323,26.4776949 C49.2029325,26.4776949 50.8633597,28.1234166 50.8633597,30.1536574 L46.7714122,30.1536574 C45.9775805,30.1536574 45.3348345,30.7905172 45.3348345,31.5765784 C45.3348345,32.3626396 45.9775805,33 46.7714122,33 L113.918664,33 L112.734233,29.7390978 L118,29.7390978 L118,24.7388474 L106.81056,24.7388474 L96.6741723,16.9563411 C96.6741723,16.9563411 91.4745996,13.2388224 91.0132576,9.84724378 C90.5529261,6.45616582 96.6084829,7.76042658 96.6084829,7.76042658 L101.412908,3 L65.4095307,3 C64.1376819,3 63.1063575,4.02187954 63.1063575,5.28258149 L63.1063575,7.76042658 C63.1063575,9.0216292 64.1376819,10.0435087 65.4095307,10.0435087 L65.4095307,11.7392981 L63.566689,11.7392981 C62.8400626,11.7392981 62.2508787,12.3230862 62.2508787,13.0430581 L60.2786793,13.0430581 C58.9280031,13.0430581 57.6334156,13.5747759 56.6783921,14.5205527 L52.1801806,14.5205527 L51.0068659,13.3579833 C51.0068659,13.3579833 31.1838108,14.5430832 28.0903429,15.1954639 C24.9968751,15.8478446 4,28.4343364 4,28.4343364 L15.0580611,30.1536574 Z" id="Fill-67-Copy" fill="#242424"></path>
            <path d="M16,28.1098851 C16,28.1098851 21.7877075,22.1802373 32.0473444,20.045912 C42.3069813,17.9120985 55.8555588,18.0584463 62.0375959,20.3181395 C68.219633,22.5773211 89.1337411,31 89.1337411,31 L94,31 C94,31 82.2938149,21.924896 74.6642198,20.3181395 C67.0356345,18.7118948 56.3443053,15.5377831 43.1668317,16.0566529 C29.9893582,16.5765461 16,23.4441508 16,28.1098851" id="Fill-69-Copy" fill="#FFFFFF"></path>
            <path d="M90.5266695,3 C90.5266695,3 80.623606,7.16435889 78.9237585,11.7722949 C76.0948891,19.4457743 91,24.9859312 91,24.9859312 C91,24.9859312 77.717953,25.7338347 74.3839283,16.3235179 C71.0499036,6.91370742 90.5266695,3 90.5266695,3" id="Fill-71-Copy" fill="#FFFFFF"></path>
            <path d="M71,2 L65.2779057,2 C64.5717795,2 64,1.55247108 64,0.999789695 C64,0.447949527 64.5717795,0 65.2779057,0 L68.4447259,0 C69.8559036,0 71,0.895478444 71,2" id="Fill-73-Copy" fill="#242424"></path>
            <polygon id="Fill-75-Copy" fill="#191919" points="66 3 69 3 69 2 66 2"></polygon>
            <path d="M89.8770876,3 L65.3815435,3 C64.1097692,3 63.0789149,4.03964052 63.0789149,5.32276374 L63.0789149,7.84367553 C63.0789149,9.12628936 64.1097692,10.1659299 65.3815435,10.1659299 L65.3815435,11.8911932 L63.5395416,11.8911932 C62.8127413,11.8911932 62.223826,12.485128 62.223826,13.2181229 L60.2530304,13.2181229 C58.9029698,13.2181229 57.6084673,13.758573 56.654384,14.7212975 L52.1577175,14.7212975 L50.9849376,13.5380123 C50.9849376,13.5380123 31.1714218,14.7442195 28.0793638,15.4074296 C24.9868008,16.0711492 4,28.8769124 4,28.8769124 L12.8569633,30.2782114 C13.676192,29.7173862 14.1752043,29.3190526 14.1752043,29.3190526 C14.1752043,29.3190526 19.5804974,24.0057305 24.6686047,20.4670814 C29.7562068,16.9284324 43.1492323,16.9997453 43.1492323,16.9997453 L56.2806299,16.9997453 C56.2806299,16.9997453 64.1754288,17.3761757 73.342507,22.153632 C83.0439526,27.2092088 94,31 94,31 L93.1711749,25.847132 C93.1711749,25.847132 90.9301652,25.7804035 83.7808544,22.5071404 C76.6315435,19.2338773 74.7895416,14.1029126 77.684116,9.94485983 C80.5791955,5.78680711 89.8770876,3 89.8770876,3" id="Fill-77-Copy" fill="#FF6622"></path>
            <path d="M54.4207201,17.0315926 C54.4207201,17.0315926 72.0114549,16.5988471 82.2144356,18.9365705 C92.4169098,21.274294 93.6485398,22.3471839 93.6485398,22.3471839 L94,30 L52,30 C52,30 52.6613934,17.5510867 54.4207201,17.0315926" id="Fill-78-Copy" fill="#000000"></path>
            <path d="M44,26.0002523 C44,31.5228173 39.5229302,36 34.0005045,36 C28.4770698,36 24,31.5228173 24,26.0002523 C24,20.4771827 28.4770698,16 34.0005045,16 C39.5229302,16 44,20.4771827 44,26.0002523" id="Fill-79-Copy" fill="#191919"></path>
            <path d="M39,26.0002495 C39,29.3139839 36.3135967,32 33.000499,32 C29.6864033,32 27,29.3139839 27,26.0002495 C27,22.6860161 29.6864033,20 33.000499,20 C36.3135967,20 39,22.6860161 39,26.0002495" id="Fill-80-Copy" fill="#FF6622"></path>
            <path d="M39,26 C39,28.7611384 36.7616713,31 34,31 C31.2388616,31 29,28.7611384 29,26 C29,23.2383287 31.2388616,21 34,21 C36.7616713,21 39,23.2383287 39,26" id="Fill-81-Copy" fill="#191919"></path>
            <path d="M35,26 C35,27.10428 34.1041741,28 32.9997635,28 C31.895353,28 31,27.10428 31,26 C31,24.8952471 31.895353,24 32.9997635,24 C34.1041741,24 35,24.8952471 35,26" id="Fill-82-Copy" fill="#D2D2D2"></path>
            <path d="M113,24.9997412 C113,31.0748818 108.074882,36 102.000259,36 C95.9251182,36 91,31.0748818 91,24.9997412 C91,18.9251182 95.9251182,14 102.000259,14 C108.074882,14 113,18.9251182 113,24.9997412" id="Fill-83-Copy" fill="#191919"></path>
            <path d="M108,24.499748 C108,28.0893792 105.090275,31 101.5,31 C97.9102296,31 95,28.0893792 95,24.499748 C95,20.9101167 97.9102296,18 101.5,18 C105.090275,18 108,20.9101167 108,24.499748" id="Fill-84-Copy" fill="#FF6622"></path>
            <path d="M107,24.9997515 C107,27.7615427 104.761431,30 102,30 C99.2385686,30 97,27.7615427 97,24.9997515 C97,22.2384573 99.2385686,20 102,20 C104.761431,20 107,22.2384573 107,24.9997515" id="Fill-85-Copy" fill="#191919"></path>
            <path d="M104,25.5 C104,26.8812307 102.880679,28 101.5,28 C100.118769,28 99,26.8812307 99,25.5 C99,24.1193207 100.118769,23 101.5,23 C102.880679,23 104,24.1193207 104,25.5" id="Fill-86-Copy" fill="#D2D2D2"></path>
            <path d="M48,30 L48,23.4642934 C48,22.7212234 48.3174774,22.0087386 48.8823609,21.4837762 L50.2854063,20.1781391 C50.8325024,19.6692214 51.1391996,18.9798009 51.1391996,18.2602965 C51.1391996,17.01232 52.2274626,16 53.5695998,16 C54.911737,16 56,17.01232 56,18.2602965 L56,19.3623666 C56,20.1495595 55.6636572,20.9041616 55.0648161,21.4612134 L54.4287832,22.0528615 C53.8638997,22.5783253 53.5469613,23.2908101 53.5469613,24.0338801 L53.5469613,30 L48,30 Z" id="Fill-87-Copy" fill="#FF7833"></path>
            <path d="M17,32.8554662 L17,28.1440171 C17,27.5120691 16.4804329,27 15.8387073,27 L4.16129274,27 C3.52009138,27 3,27.5120691 3,28.1440171 L3,32.8554662 C3,33.4874142 3.52009138,34 4.16129274,34 L15.8387073,34 C16.4804329,34 17,33.4874142 17,32.8554662" id="Fill-88-Copy" fill="#191919"></path>
            <path d="M10.0145594,32 L15,27 L4.13103448,27 C3.50625798,27 3,27.5077885 3,28.1344538 L3,32 L10.0145594,32 Z" id="Fill-89-Copy" fill="#FF7833"></path>
            <polygon id="Fill-90-Copy" fill="#FFFFFF" points="12.7861697 27 8 32 9.21383031 32 14 27"></polygon>
            <path d="M72.5168212,5 L65.482649,5 C65.2161589,5 65,4.77631579 65,4.5 C65,4.22368421 65.2161589,4 65.482649,4 L72.5168212,4 C72.7838411,4 73,4.22368421 73,4.5 C73,4.77631579 72.7838411,5 72.5168212,5" id="Fill-91-Copy" fill="#FFB189"></path>
            <path d="M70.517351,13 L63.4831788,13 C63.2161589,13 63,12.7763158 63,12.5 C63,12.2236842 63.2161589,12 63.4831788,12 L70.517351,12 C70.7838411,12 71,12.2236842 71,12.5 C71,12.7763158 70.7838411,13 70.517351,13" id="Fill-92-Copy" fill="#FFB189"></path>
            <path d="M50.565113,15.0320359 L36.4918065,15.9990025 C36.2366951,16.0165631 36.0166488,15.800171 36.0008949,15.5158024 C35.985141,15.2308674 36.1792696,14.9855853 36.434381,14.9685911 L50.5081957,14.0010581 C50.7633071,13.982931 50.9828452,14.1998896 50.9991072,14.4842582 C51.0148611,14.7691932 50.8202244,15.0144753 50.565113,15.0320359" id="Fill-93-Copy" fill="#FFB189"></path>
            <path d="M62.5369383,15 L59.4630617,15 C59.2071592,15 59,14.7761931 59,14.4997257 C59,14.2238069 59.2071592,14 59.4630617,14 L62.5369383,14 C62.7928408,14 63,14.2238069 63,14.4997257 C63,14.7761931 62.7928408,15 62.5369383,15" id="Fill-94-Copy" fill="#FFB189"></path>
            <path d="M52.5369383,24 L49.4625539,24 C49.2071592,24 49,23.7761931 49,23.5002743 C49,23.2238069 49.2071592,23 49.4625539,23 L52.5369383,23 C52.7928408,23 53,23.2238069 53,23.5002743 C53,23.7761931 52.7928408,24 52.5369383,24" id="Fill-95-Copy" fill="#FFB189"></path>
            <path d="M13.5549917,29 L4.4450083,29 C4.19908266,29 4,28.7761931 4,28.5002743 C4,28.2238069 4.19908266,28 4.4450083,28 L13.5549917,28 C13.8009173,28 14,28.2238069 14,28.5002743 C14,28.7761931 13.8009173,29 13.5549917,29" id="Fill-96-Copy" fill="#FFB189"></path>
            <path d="M110.505614,10 L104.493843,10 C104.221172,10 104,9.77619309 104,9.50027427 C104,9.22380691 104.221172,9 104.493843,9 L110.505614,9 C110.778285,9 111,9.22380691 111,9.50027427 C111,9.77619309 110.778285,10 110.505614,10" id="Fill-97-Copy" fill="#FFB189"></path>
        </g>
    </g>
</svg>