<?xml version="1.0" encoding="UTF-8"?>
<svg width="120px" height="120px" viewBox="0 0 120 120" version="1.1" xmlns="http://www.w3.org/2000/svg" xmlns:xlink="http://www.w3.org/1999/xlink">
    <!-- Generator: Sketch 51.1 (57501) - http://www.bohemiancoding.com/sketch -->
    <title>Boy19</title>
    <desc>Created with Sketch.</desc>
    <defs></defs>
    <g id="Boy19" stroke="none" stroke-width="1" fill="none" fill-rule="evenodd">
        <g id="Group-155" transform="translate(60.500000, 60.000000) scale(-1, 1) translate(-60.500000, -60.000000) translate(29.000000, 2.000000)">
            <path d="M51.5850882,59.5087873 C50.2075588,57.1845882 46.5112059,59.2804615 47.8924412,61.6099095 C51.9673235,68.4864525 53.8642059,76.9360814 53.1860294,84.8560995 C53.1860294,84.8560995 50.9969118,85.6455294 51.4241471,86.2008597 C51.8519118,86.75619 53.1860294,86.2008597 53.1860294,86.2008597 C53.1860294,86.2008597 52.3061471,88.8373665 52.6852059,89.2536018 C53.0637353,89.670362 56.1290294,90.2955023 56.5573235,89.670362 C56.9845588,89.0457466 57.4086176,85.3946335 57.4086176,85.3946335 C58.2990882,76.6305973 56.0967353,67.1222715 51.5850882,59.5087873" id="Fill-235" fill="#AE6959"></path>
            <path d="M0.302982353,40.8194552 C0.398276471,40.0746407 3.42598235,39.2941339 3.95539412,39.5014643 C4.48639412,39.7077448 4.91468824,42.4487041 4.91468824,42.4487041 C4.91468824,42.4487041 5.85068824,41.3711113 6.48968824,41.6802697 C7.1271,41.9899529 5.5341,43.6512199 5.5341,43.6512199 C6.85551176,48.2623511 8.06786471,53.9117086 11.0664529,57.6893195 C11.8611,58.689229 16.7046882,56.9828217 18.1055118,56.6033285 C20.4968647,55.9545683 22.8665118,55.2144778 25.2075706,54.4135005 C27.8143941,53.520143 28.8435706,57.565971 26.2669235,58.4483059 C23.5462765,59.3810299 20.7875118,60.2140253 18.0054529,60.948867 C15.5225118,61.6039258 11.1696882,63.1271475 8.84292353,61.352505 C6.15827647,59.3049213 4.99674706,55.3105321 3.86168824,52.3312742 C2.9061,49.8275638 2.05957059,47.2750389 1.29774706,44.708867 C1.29774706,44.708867 0.208217647,41.5642697 0.302982353,40.8194552" id="Fill-237" fill="#AE6959"></path>
            <path d="M32.2569,110.435412 C32.2569,110.435412 34.3353706,112.46305 34.0828412,115.543086 L20.9052529,115.485873 C20.9052529,115.485873 20.8576059,112.830471 24.9144882,112.36962 L28.0835471,110.41914 L32.2569,110.435412 Z" id="Fill-239" fill="#91875D"></path>
            <path d="M27.3918706,110.843406 C27.7778118,111.055461 28.1658706,111.26699 28.5523412,111.476945 C28.7492824,111.585071 28.9393412,111.314755 28.7424,111.206628 C28.3993412,111.019768 28.0573412,110.832909 27.7132235,110.645524 L27.3918706,110.843406 Z" id="Fill-241" fill="#FFFFFF"></path>
            <path d="M26.8066588,111.203741 C27.2248941,111.432067 27.6436588,111.660393 28.0624235,111.890293 C28.2593647,111.99632 28.4488941,111.724954 28.2519529,111.618927 C27.8766,111.413696 27.5023059,111.21109 27.1285412,111.006909 L26.8066588,111.203741 Z" id="Fill-243" fill="#FFFFFF"></path>
            <path d="M27.5707588,112.301175 C27.7682294,112.408252 27.9572294,112.13741 27.7608176,112.029808 C27.3552882,111.809356 26.9492294,111.587329 26.5431706,111.367926 L26.2212882,111.564758 C26.6718176,111.809356 27.1212882,112.056052 27.5707588,112.301175" id="Fill-245" fill="#FFFFFF"></path>
            <path d="M27.0796235,112.712266 C27.2776235,112.820393 27.4655647,112.549026 27.2696824,112.441949 C26.8323882,112.203126 26.3950941,111.965352 25.9583294,111.727053 L25.6359176,111.925986 C26.1182118,112.187904 26.5994471,112.451397 27.0796235,112.712266" id="Fill-247" fill="#FFFFFF"></path>
            <path d="M26.5889647,113.124407 C26.7859059,113.231484 26.9754353,112.961167 26.7784941,112.85409 C26.3110235,112.597946 25.8414353,112.343376 25.3734353,112.086706 L25.0504941,112.284588 C25.5640235,112.564878 26.0770235,112.844118 26.5889647,113.124407" id="Fill-249" fill="#FFFFFF"></path>
            <path d="M20.9040353,115.751414 C25.2960353,115.770834 29.6896235,115.78973 34.0826824,115.807052 C34.4649176,115.809151 34.4680941,115.280065 34.0837412,115.276916 C29.6922706,115.25802 25.2986824,115.239124 20.9066824,115.219703 C20.5212706,115.217604 20.5191529,115.749314 20.9040353,115.751414" id="Fill-251" fill="#FFFFFF"></path>
            <path d="M28.0825941,110.684523 C29.4744176,110.689772 30.8646529,110.695546 32.2559471,110.701844 C32.6403,110.703944 32.6434765,110.171184 32.2580647,110.170659 C30.8678294,110.16436 29.4760059,110.159111 28.0841824,110.152813 C27.7003588,110.149663 27.6977118,110.682424 28.0825941,110.684523" id="Fill-253" fill="#FFFFFF"></path>
            <path d="M40.0532824,110.435412 C40.0532824,110.435412 37.9753412,112.46305 38.2278706,115.543086 L51.4054588,115.485873 C51.4054588,115.485873 51.4531059,112.830471 47.3962235,112.36962 L44.2271647,110.41914 L40.0532824,110.435412 Z" id="Fill-255" fill="#91875D"></path>
            <path d="M44.9188412,110.843406 C44.5323706,111.055461 44.1443118,111.26699 43.7583706,111.476945 C43.5609,111.585071 43.3713706,111.314755 43.5683118,111.206628 C43.9108412,111.019768 44.2533706,110.832909 44.5974882,110.645524 L44.9188412,110.843406 Z" id="Fill-257" fill="#FFFFFF"></path>
            <path d="M45.5035765,111.203741 C45.0853412,111.432067 44.6665765,111.660393 44.2483412,111.890293 C44.0514,111.99632 43.8613412,111.724954 44.0588118,111.618927 C44.4336353,111.413696 44.8084588,111.21109 45.1822235,111.006909 L45.5035765,111.203741 Z" id="Fill-259" fill="#FFFFFF"></path>
            <path d="M44.7399529,112.301175 C44.5424824,112.408252 44.3534824,112.13741 44.5498941,112.029808 C44.9554235,111.809356 45.3614824,111.587329 45.7675412,111.367926 L46.0888941,111.564758 C45.6388941,111.809356 45.1894235,112.056052 44.7399529,112.301175" id="Fill-261" fill="#FFFFFF"></path>
            <path d="M45.2305588,112.712266 C45.0330882,112.820393 44.8440882,112.549026 45.0410294,112.441949 C45.4777941,112.203126 45.9156176,111.965352 46.3523824,111.727053 L46.6742647,111.925986 C46.1925,112.187904 45.7112647,112.451397 45.2305588,112.712266" id="Fill-263" fill="#FFFFFF"></path>
            <path d="M45.7217471,113.124407 C45.5248059,113.231484 45.3352765,112.961167 45.5316882,112.85409 C45.9991588,112.597946 46.4687471,112.343376 46.9372765,112.086706 L47.2596882,112.284588 C46.7466882,112.564878 46.2336882,112.844118 45.7217471,113.124407" id="Fill-265" fill="#FFFFFF"></path>
            <path d="M51.4067294,115.751414 C47.0147294,115.770834 42.6206118,115.78973 38.2280824,115.807052 C37.8453176,115.809151 37.8426706,115.280065 38.2270235,115.276916 C42.6184941,115.25802 47.0120824,115.239124 51.4040824,115.219703 C51.7894941,115.217604 51.7916118,115.749314 51.4067294,115.751414" id="Fill-267" fill="#FFFFFF"></path>
            <path d="M44.2281176,110.684523 C42.8362941,110.689772 41.4460588,110.695546 40.0547647,110.701844 C39.6704118,110.703944 39.6672353,110.171184 40.0521176,110.170659 C41.4428824,110.16436 42.8347059,110.159111 44.226,110.152813 C44.6092941,110.149663 44.6124706,110.682424 44.2281176,110.684523" id="Fill-269" fill="#FFFFFF"></path>
            <path d="M36.2445353,85.4015095 L36.2440059,85.4020344 L36.2440059,85.4015095 L24.0633,83.7124235 C24.0633,83.7124235 25.2735353,104.880062 25.9379471,111.84636 L33.8680059,111.84636 C33.8680059,111.84636 34.3709471,107.326559 36.2440059,89.8299801 L36.2440059,89.8289303 L36.2445353,89.8299801 C38.2065353,107.457256 38.6205353,111.84636 38.6205353,111.84636 L46.5500647,111.84636 C47.2144765,104.880062 48.4247118,83.7124235 48.4247118,83.7124235 L36.2445353,85.4015095 Z" id="Fill-271" fill="#333E40"></path>
            <path d="M48.0601588,89.9009973 C48.2788059,86.2714045 48.4243941,83.712581 48.4243941,83.712581 L43.5553941,84.3881104 C43.8624529,86.4136489 44.8921588,89.0239113 48.0601588,89.9009973" id="Fill-273" fill="#192223"></path>
            <path d="M24.4289647,89.9009973 C24.2103176,86.2714045 24.0636706,83.712581 24.0636706,83.712581 L28.9332,84.3881104 C28.6256118,86.4136489 27.5969647,89.0239113 24.4289647,89.9009973" id="Fill-275" fill="#192223"></path>
            <path d="M47.6894647,62.7037213 L52.2254647,60.0871602 C49.5376412,51.3378208 39.5227588,52.3975674 39.5227588,52.3975674 C38.8001118,54.5144362 36.2499353,54.4797937 36.2441118,54.4797937 C36.2382882,54.4797937 33.6875824,54.5144362 32.9654647,52.3975674 C32.9654647,52.3975674 27.1197,50.8061104 17.7305824,55.8455493 L20.2791706,61.5909611 L26.2350529,59.842038 C26.2350529,59.842038 25.1725235,77.3816579 23.6981118,83.5527529 C23.6981118,83.5527529 27.3335824,85.4035041 36.0657,85.4035041 C36.1276412,85.4035041 36.1827,85.4014045 36.2441118,85.4014045 C36.3049941,85.4014045 36.3605824,85.4035041 36.4219941,85.4035041 C45.1541118,85.4035041 48.7901118,83.5527529 48.7901118,83.5527529 C47.3157,77.3816579 46.2531706,59.842038 46.2531706,59.842038 L47.6894647,62.7037213 Z" id="Fill-277" fill="#FED614"></path>
            <path d="M45.8122235,84.4506769 C45.8101059,84.4197086 43.9132235,60.2407946 42.1365176,58.675057 C40.5101647,57.241591 36.7794,57.5559982 36.1536353,57.6195095 C35.5278706,57.5559982 31.7971059,57.241591 30.1707529,58.675057 C28.3945765,60.2407946 26.4976941,84.4197086 26.4945176,84.4506769 C28.4909294,84.9220253 31.6123412,85.4033466 36.0657529,85.4033466 C36.0959294,85.4033466 36.1250471,85.4028217 36.1536353,85.4022968 C36.1827529,85.4028217 36.2108118,85.4033466 36.2415176,85.4033466 C40.6954588,85.4033466 43.8163412,84.9220253 45.8122235,84.4506769" id="Fill-279" fill="#FFE67B"></path>
            <path d="M10.8229765,23.9467041 C12.5340353,22.4665231 14.5357412,26.1633014 14.5357412,26.1633014 L14.5362706,26.164876 C14.4690353,27.6009665 14.4769765,29.1304869 14.5616824,30.7508127 L14.5357412,30.7938534 C11.6896235,30.053238 9.11244706,25.42741 10.8229765,23.9467041" id="Fill-281" fill="#AE6959"></path>
            <path d="M36.2445353,3.12932308 C36.2445353,3.12932308 11.0095941,0.908526697 14.0034176,32.9675674 C14.0034176,32.9675674 14.5735941,41.1558027 21.2748882,43.9319294 C27.9751235,46.7075312 32.9653588,48.3735222 32.9653588,52.3978299 C32.9653588,52.3978299 33.0130059,54.6648163 36.2445353,54.6648163 C39.4760647,54.6648163 39.5231824,52.3978299 39.5231824,52.3978299 C39.5231824,48.3735222 44.5128882,46.7075312 51.2136529,43.9319294 C57.9144176,41.1558027 58.4840647,32.9675674 58.4840647,32.9675674 C61.4784176,0.908526697 36.2445353,3.12932308 36.2445353,3.12932308" id="Fill-283" fill="#AE6959"></path>
            <path d="M62.1614118,23.9467041 C60.4503529,22.4665231 58.4486471,26.1633014 58.4486471,26.1633014 L58.4481176,26.164876 C58.5153529,27.6009665 58.5074118,29.1304869 58.4227059,30.7508127 L58.4486471,30.7938534 C61.2947647,30.053238 63.8714118,25.42741 62.1614118,23.9467041" id="Fill-285" fill="#AE6959"></path>
            <path d="M49.3599176,30.7474009 C49.3599176,31.9992561 48.7008,33.0143873 47.8876235,33.0143873 C47.0739176,33.0143873 46.4142706,31.9992561 46.4142706,30.7474009 C46.4142706,29.4955457 47.0739176,28.4809394 47.8876235,28.4809394 C48.7008,28.4809394 49.3599176,29.4955457 49.3599176,30.7474009" id="Fill-287" fill="#2B2629"></path>
            <path d="M25.6940471,30.7474009 C25.6940471,31.9992561 25.0344,33.0143873 24.2206941,33.0143873 C23.4075176,33.0143873 22.7478706,31.9992561 22.7478706,30.7474009 C22.7478706,29.4955457 23.4075176,28.4809394 24.2206941,28.4809394 C25.0344,28.4809394 25.6940471,29.4955457 25.6940471,30.7474009" id="Fill-289" fill="#2B2629"></path>
            <path d="M33.7732412,34.3101231 C33.7732412,34.3101231 36.4345941,35.7903041 38.3346529,34.3101231 C38.3346529,34.3101231 37.1948294,37.36339 33.7732412,34.3101231" id="Fill-291" fill="#964A3E"></path>
            <path d="M26.2731176,37.4346172 C26.2731176,37.4346172 37.3642941,39.9052597 45.8354118,36.1890606 C45.8354118,36.1890606 44.649,39.2627982 41.5641176,40.4380199 C38.4792353,41.6132416 30.051,42.1801195 26.2731176,37.4346172" id="Fill-293" fill="#FFFFFF"></path>
            <path d="M60.5664529,19.6765919 C60.5664529,19.6765919 62.5194529,16.511524 59.4456882,15.7593611 C59.4456882,15.7593611 61.3573941,12.3339493 57.8362765,11.8421303 C57.8362765,11.8421303 59.4822176,7.73331584 54.6026294,7.27194027 C54.6026294,7.27194027 53.9101588,2.57157828 48.6298059,3.61610317 C48.6298059,3.61610317 46.0325118,-1.47634932 40.1301,1.39635656 C40.1301,1.39635656 37.0547471,-1.54196018 31.7092765,1.65722534 C31.7092765,1.65722534 25.3452176,-0.823390045 22.2751588,5.31358733 C22.2751588,5.31358733 15.7183941,5.1828905 16.5236294,10.4055149 C16.5236294,10.4055149 11.1580412,11.189171 13.0358647,16.4123204 C13.0358647,16.4123204 8.58033529,18.3512525 11.6382176,22.7944199 C11.0288647,23.6363385 10.5089824,24.9511801 12.0072176,26.0313973 C13.3201588,26.9782932 14.2593353,26.4565557 14.8469824,25.7847005 C15.5463353,26.1232525 16.4172176,26.2544742 16.7915118,25.1154697 C17.4622765,23.0715602 16.7915118,22.1577321 16.7915118,22.1577321 C16.7915118,22.1577321 18.4009235,22.5057321 19.6085118,21.3305104 C20.8155706,20.1558136 19.3401,17.7182389 19.3401,17.7182389 C19.3401,17.7182389 20.7107471,18.632067 21.9326294,17.5875421 C23.1561,16.5430172 22.8368647,14.1925738 22.8368647,14.1925738 C22.8368647,14.1925738 24.2297471,16.6301484 26.1361588,16.3687548 C28.0415118,16.107886 28.8753353,14.1925738 28.8753353,14.1925738 C28.8753353,14.1925738 30.3677471,17.9791077 33.7734529,15.7593611 C33.7734529,15.7593611 34.6311,18.632067 37.4481,16.803886 C37.4481,16.803886 38.9230412,19.6765919 41.3376882,17.9791077 C41.3376882,17.9791077 43.5029824,21.374076 46.1759824,19.0236326 C46.1759824,19.0236326 46.8838059,22.4186009 50.6161588,20.8518136 C50.6161588,20.8518136 51.0979235,25.406257 54.6026294,23.0715602 C54.6026294,23.0715602 54.7355118,28.3802661 58.4488059,26.1631439 C58.4488059,26.1631439 61.4193353,26.473352 60.5664529,23.7932796 C60.5664529,23.7932796 63.6571588,21.2732977 60.5664529,19.6765919" id="Fill-295" fill="#2B2629"></path>
        </g>
    </g>
</svg>