<?xml version="1.0" encoding="UTF-8"?>
<svg width="120px" height="120px" viewBox="0 0 120 120" version="1.1" xmlns="http://www.w3.org/2000/svg" xmlns:xlink="http://www.w3.org/1999/xlink">
    <!-- Generator: Sketch 51.1 (57501) - http://www.bohemiancoding.com/sketch -->
    <title>Game button2</title>
    <desc>Created with Sketch.</desc>
    <defs>
        <polygon id="path-1" points="0 0.489154639 91.0213884 0.489154639 91.0213884 47.5051546 0 47.5051546"></polygon>
    </defs>
    <g id="Game-button2" stroke="none" stroke-width="1" fill="none" fill-rule="evenodd">
        <g id="Page-1" transform="translate(0.000000, 36.000000)">
            <path d="M118.016529,36.8824082 C118.016529,42.7488 113.25124,47.5052536 107.371736,47.5052536 L10.6447934,47.5052536 C4.76528926,47.5052536 0,42.7488 0,36.8824082 L0,13.0971711 C0,7.23028454 4.76528926,2.47432577 10.6447934,2.47432577 L107.371736,2.47432577 C113.25124,2.47432577 118.016529,7.23028454 118.016529,13.0971711 L118.016529,36.8824082 Z" id="Fill-1" fill="#0A3633"></path>
            <path d="M120,34.9035216 C120,40.7699134 115.234711,45.5258722 109.355207,45.5258722 L12.6282645,45.5258722 C6.74876033,45.5258722 1.98347107,40.7699134 1.98347107,34.9035216 L1.98347107,11.1172948 C1.98347107,5.25040825 6.74876033,0.49494433 12.6282645,0.49494433 L109.355207,0.49494433 C115.234711,0.49494433 120,5.25040825 120,11.1172948 L120,34.9035216 Z" id="Fill-3" fill="#06BCCB"></path>
            <path d="M115.041322,34.5072495 C115.041322,37.859332 112.318017,40.5775175 108.958512,40.5775175 L12.5290909,40.5775175 C9.16958678,40.5775175 6.44628099,37.859332 6.44628099,34.5072495 L6.44628099,11.0184247 C6.44628099,7.66634227 9.16958678,4.94865155 12.5290909,4.94865155 L108.958512,4.94865155 C112.318017,4.94865155 115.041322,7.66634227 115.041322,11.0184247 L115.041322,34.5072495 Z" id="Fill-5" fill="#7EE7E0"></path>
            <path d="M39.6781488,19.3545402 C40.1640992,17.2643134 40.6465785,15.3383753 41.1250909,13.5767258 C41.2574876,13.0996948 41.4593058,12.8037773 41.7315372,12.6879835 C42.0032727,12.5731794 42.403438,12.5810969 42.9315372,12.7127258 C43.1794711,12.7790351 43.4016198,12.8364371 43.5994711,12.8859216 C43.7973223,12.9349113 43.9907107,13.0007258 44.1806281,13.0828701 C44.3705455,13.1655093 44.5728595,13.2644784 44.7870744,13.3797773 C45.0007934,13.4945814 45.2487273,13.6430351 45.5293884,13.8236536 C46.007405,14.120066 46.2756694,14.4204371 46.333686,14.7252619 C46.3907107,15.0300866 46.3540165,15.3957773 46.2221157,15.8238186 C45.8427769,17.0421278 45.4465785,18.4247258 45.0350083,19.9716124 C44.6224463,21.5189938 44.2133554,23.0911175 43.809719,24.6874887 C43.4055868,26.2843546 43.018314,27.8441072 42.6469091,29.3662515 C42.2755041,30.8893856 41.9581488,32.2269526 41.6943471,33.3784577 C41.5956694,34.0039423 41.1007934,34.2182103 40.209719,34.020767 C39.4510413,33.8723134 38.676,33.6585402 37.884595,33.3784577 C37.1581488,33.0988701 36.647405,32.6050144 36.3503802,31.8973856 C36.1188099,31.3872 35.8842645,30.7943753 35.6452562,30.1194062 C35.4062479,29.444932 35.1632727,28.7165196 34.9153388,27.9346639 C34.6679008,27.1528082 34.4199669,26.3377979 34.1730248,25.489633 C33.9255868,24.6424577 33.6950083,23.7908289 33.4802975,22.9342515 C33.2988099,23.9556124 33.1133554,24.9754887 32.9239339,25.9963546 C32.7340165,27.0167258 32.5525289,27.992066 32.3794711,28.9218804 C32.2064132,29.8521897 32.0492231,30.7161897 31.9093884,31.5143753 C31.7690579,32.3130557 31.6574876,33.0083134 31.5751736,33.6006433 C31.5087273,33.8802309 31.4026116,34.0573856 31.2538512,34.1316124 C31.1050909,34.2058392 30.8164959,34.1850557 30.3875702,34.0697567 C29.9918678,33.9712825 29.5917025,33.8678598 29.1875702,33.7609732 C28.783438,33.6540866 28.3921983,33.4858392 28.0128595,33.2552412 C27.6498843,33.0746227 27.4064132,32.8643134 27.2824463,32.6253031 C27.1589752,32.3872825 27.1138512,32.0537567 27.1470744,31.6257155 C27.1798017,31.1808495 27.2328595,30.5474474 27.3077355,29.7245196 C27.3816198,28.9015918 27.4802975,27.9673237 27.6037686,26.9222103 C27.7277355,25.8770969 27.868562,24.7577567 28.0252562,23.5641897 C28.1819504,22.3711175 28.3505455,21.1815093 28.5315372,19.9963546 C28.7140165,18.8112 28.8989752,17.6676124 29.0888926,16.5641072 C29.278314,15.4620866 29.4632727,14.4822928 29.6457521,13.6262103 C29.7607934,13.1328495 29.9670744,12.824066 30.2640992,12.7008495 C30.5606281,12.5771381 30.9647603,12.5810969 31.476,12.7127258 C32.0859174,12.8938392 32.6799669,13.0754474 33.2581488,13.256066 C33.834843,13.4371794 34.4368264,13.6756948 35.0636033,13.9721072 C35.574843,14.1863753 35.9378182,14.4535918 36.1525289,14.7742515 C36.3667438,15.0954062 36.5239339,15.5689732 36.6226116,16.1939629 C36.7049256,16.6714887 36.8120331,17.2806433 36.9439339,18.0214268 C37.0758347,18.7622103 37.224595,19.5643546 37.389719,20.4283546 C37.5543471,21.2928495 37.727405,22.1815918 37.9088926,23.0950763 C38.0903802,24.0085608 38.2718678,24.8854268 38.4528595,25.7246845 C38.7831074,23.5686433 39.1912066,21.4452619 39.6781488,19.3545402" id="Fill-7" fill="#FAFCFB"></path>
            <path d="M49.5000992,13.5275381 C50.3663802,13.3300948 51.2728264,13.1489814 52.2219174,12.9841979 C53.1700165,12.8199093 54.1429091,12.6754144 55.1410909,12.5521979 C56.1387769,12.4289814 57.1329917,12.3507959 58.1227438,12.3181361 C59.0624132,12.3013113 59.6648926,12.6635381 59.9281983,13.4043216 C60.1429091,13.7992082 60.2916694,14.1569814 60.3739835,14.4781361 C60.4562975,14.7987959 60.5386116,15.1486515 60.6214215,15.5277031 C60.6873719,15.9557443 60.6541488,16.2432495 60.5227438,16.3917031 C60.3903471,16.5396619 60.0853884,16.6470433 59.606876,16.7128577 C58.617124,16.8281567 57.5941488,16.9429608 56.5389421,17.0582598 C55.4827438,17.1735588 54.3700165,17.3136 53.1992727,17.4778887 C52.9513388,18.2186722 52.7202645,18.9881567 52.5060496,19.7863423 C52.2918347,20.5855175 52.0523306,21.4203216 51.7885289,22.292734 C52.283405,22.2269196 52.778281,22.1774351 53.2726612,22.1442804 C53.7675372,22.1121155 54.2956364,22.0868784 54.8564628,22.0705485 C55.3181157,22.0542186 55.6815868,22.0947959 55.9448926,22.1942598 C56.2086942,22.292734 56.4318347,22.5070021 56.6133223,22.8360742 C56.8111736,23.1656412 56.9639008,23.4902598 57.0715041,23.8109196 C57.1776198,24.1320742 57.2728264,24.4571876 57.3556364,24.7862598 C57.4870413,25.1653113 57.499438,25.4201567 57.3928264,25.5517856 C57.2852231,25.6834144 57.000595,25.7987134 56.5389421,25.8971876 C55.5491901,26.0787959 54.5386116,26.2514969 53.5081983,26.4157856 C52.4772893,26.5805691 51.4830744,26.7616825 50.5270413,26.9591258 C50.3946446,27.4861361 50.2711736,27.9839505 50.1556364,28.4525691 C50.0400992,28.9216825 49.9166281,29.387332 49.7842314,29.8475381 C50.5602645,29.7164041 51.2981157,29.6095175 51.9992727,29.5268784 C52.6999339,29.444734 53.4625785,29.3784247 54.2877025,29.3294351 C54.7488595,29.2962804 55.1083636,29.3294351 55.3637355,29.4284041 C55.6196033,29.5268784 55.8377851,29.7243216 56.0192727,30.020734 C56.217124,30.350301 56.3698512,30.6585897 56.4769587,30.9465897 C56.5840661,31.2345897 56.7035702,31.5265485 56.8359669,31.8234557 C56.918281,32.1525278 56.918281,32.3786722 56.8359669,32.5023835 C56.753157,32.6256 56.4893554,32.7285278 56.0440661,32.8106722 C54.9883636,33.0081155 53.9162975,33.2139711 52.8278678,33.4282392 C51.739438,33.6420124 50.7000992,33.8394557 49.710843,34.0205691 C49.0503471,34.1848577 48.5515041,34.2219711 48.2133223,34.1319093 C47.8756364,34.0408577 47.5830744,33.9131876 47.3351405,33.748899 C47.0544793,33.5677856 46.7867107,33.3827134 46.5313388,33.1931876 C46.2754711,33.0041567 45.9744793,32.7611876 45.6278678,32.4652701 C45.3477025,32.2346722 45.1300165,31.9630021 44.9723306,31.6502598 C44.8161322,31.3375175 44.7541488,30.9589608 44.786876,30.5145897 L47.1372893,14.0951258 C47.8463802,13.9145072 48.634314,13.7249814 49.5000992,13.5275381" id="Fill-9" fill="#FAFCFB"></path>
            <path d="M70.7037521,15.5277031 C71.5695372,14.4246928 72.3485455,13.486466 73.0417686,12.7130227 C73.3710248,12.334466 73.7097025,12.1449402 74.0558182,12.1449402 C74.2373058,12.1449402 74.4187934,12.1780948 74.5997851,12.2434144 C74.7817686,12.3097237 74.9632562,12.4002804 75.1442479,12.5150845 C75.5240826,12.8114969 75.8949917,13.1692701 76.2579669,13.5893938 C76.6204463,14.0090227 76.9174711,14.4004454 77.1485455,14.7621773 C77.4292066,15.2065485 77.5278843,15.6182598 77.4455702,15.9963216 C77.3632562,16.3753732 77.1733388,16.7371052 76.876314,17.0830021 C75.9857355,18.1197031 74.9672231,19.3013938 73.8207769,20.6260948 C72.6748264,21.9507959 71.4827603,23.3378474 70.2455702,24.7862598 C70.9387934,26.4326103 71.5859008,27.9676206 72.1878843,29.3912907 C72.7898678,30.8154557 73.3303636,32.078301 73.808876,33.1813113 C74.1872231,33.7573113 74.0146612,34.0947959 73.2887107,34.1932701 C72.4640826,34.2759093 71.6062314,34.2759093 70.7156529,34.1932701 C70.2708595,34.1437856 69.9242479,34.0329402 69.6768099,33.8602392 C69.4293719,33.6870433 69.1650744,33.4034969 68.8849091,33.0081155 C68.6875537,32.7285278 68.394,32.2059711 68.0067273,31.4404454 C67.6189587,30.6749196 67.1607769,29.732734 66.6336694,28.6133938 C65.7430909,29.6832495 64.9387934,30.6917443 64.2217686,31.6378887 C63.5037521,32.5845278 62.8561488,33.4034969 62.2789587,34.0947959 C61.8832562,34.5886515 61.3635868,34.6297237 60.7204463,34.2185072 C60.488876,34.0863835 60.2419339,33.9216 59.9781322,33.7241567 C59.7143306,33.5267134 59.4629256,33.316899 59.2234215,33.0947134 C58.9844132,32.8725278 58.782595,32.654301 58.6174711,32.4405278 C58.452843,32.2267546 58.3616033,32.0451464 58.3452397,31.8971876 C58.3452397,31.7823835 58.3660661,31.6502598 58.4067273,31.5018062 C58.4483802,31.3538474 58.535157,31.1811464 58.6670579,30.9832082 C59.2447438,30.0618062 60.0153223,28.9305897 60.980281,27.5885691 C61.9452397,26.2470433 63.012843,24.8357443 64.1840826,23.3541773 C63.7883802,22.5149196 63.3926777,21.6717031 62.9964793,20.8235381 C62.600281,19.975868 62.225405,19.156899 61.8713554,18.3666309 C61.5158182,17.5768577 61.186562,16.8365691 60.8811074,16.1447753 C60.5756529,15.4534763 60.3168099,14.8448165 60.1016033,14.3178062 C59.9042479,13.7907959 59.8546612,13.4335175 59.9533388,13.2439918 C60.0525124,13.054466 60.3411074,12.9267959 60.819124,12.8609814 C60.9510248,12.8446515 61.0749917,12.836734 61.1900331,12.836734 L61.561438,12.836734 L62.2789587,12.836734 C62.5268926,12.836734 62.7817686,12.8401979 63.0460661,12.8486103 C63.3098678,12.8575175 63.5820992,12.8693938 63.8622645,12.8857237 C64.4394545,12.9683629 64.8852397,13.1534351 65.1986281,13.4409402 C65.5115207,13.7294351 65.7837521,14.1124454 66.0153223,14.5894763 C66.2786281,15.2644454 66.571686,15.9844454 66.8935041,16.7499711 C67.2153223,17.5154969 67.5490413,18.3176412 67.895157,19.156899 C68.9012727,17.8406103 69.8379669,16.6307134 70.7037521,15.5277031" id="Fill-11" fill="#FAFCFB"></path>
            <path d="M91.696314,16.6753979 C90.9376364,16.7496247 90.1541653,16.8283052 89.3459008,16.9104495 C88.9997851,18.2930474 88.6407769,19.7246351 88.2693719,21.2062021 C87.8984628,22.6872742 87.5399504,24.1564701 87.1933388,25.6132948 C86.8472231,27.0701196 86.5209421,28.4898309 86.2159835,29.8724289 C85.9110248,31.2550268 85.6427603,32.5475629 85.4121818,33.7490474 C85.3789587,33.9791505 85.3011074,34.1315629 85.1771405,34.2057897 C85.0531736,34.2795216 84.8840826,34.3126763 84.6693719,34.3042639 C84.455157,34.2958515 84.2072231,34.2508206 83.9275537,34.1686763 C83.6468926,34.086532 83.334,33.9959753 82.9873884,33.8970062 C82.6407769,33.798532 82.3273884,33.6916454 82.0472231,33.5758515 C81.7670579,33.4610474 81.5315207,33.3210062 81.3420992,33.1567175 C81.1521818,32.9924289 81.016314,32.7984495 80.934,32.5762639 C80.8511901,32.3540784 80.8427603,32.0868619 80.9087107,31.7736247 C80.9587934,30.9833567 81.0574711,30.0124701 81.2062314,28.8604701 C81.3544959,27.7084701 81.5315207,26.4901608 81.7378017,25.2060371 C81.9440826,23.9224082 82.1706942,22.6259134 82.4186281,21.3175423 C82.6655702,20.0086763 82.9130083,18.7948206 83.1604463,17.6754804 C82.6819339,17.7581196 82.220281,17.8278928 81.7749917,17.8852948 C81.3301983,17.9436866 80.9587934,18.0129649 80.6617686,18.0951093 C80.2492066,18.1940784 79.9110248,18.2064495 79.6472231,18.1322227 C79.3834215,18.0584907 79.0859008,17.8481814 78.7566446,17.5027794 C78.4100331,17.1573773 78.0921818,16.7214186 77.8035868,16.1939134 C77.5154876,15.6673979 77.2809421,15.2230268 77.0989587,14.8608 C76.9011074,14.4822433 76.8515207,14.2313567 76.9506942,14.1081402 C77.0493719,13.9844289 77.2556529,13.881501 77.5690413,13.7993567 C78.5419339,13.6014186 79.6427603,13.4208 80.8720165,13.2560165 C82.100281,13.0917278 83.3543306,12.9432742 84.6326777,12.8111505 C85.9110248,12.6800165 87.1640826,12.5686763 88.3933388,12.4786144 C89.6216033,12.3880577 90.7229256,12.3262021 91.696314,12.2930474 C92.2070579,12.2930474 92.5744959,12.3385732 92.7971405,12.4291299 C93.0197851,12.5196866 93.2136694,12.6716041 93.3792893,12.8858722 C93.7085455,13.2644289 93.980281,13.6756454 94.1954876,14.1200165 C94.4097025,14.5643876 94.5743306,15.0008412 94.6898678,15.4283876 C94.7890413,15.8074392 94.7930083,16.067233 94.7022645,16.2067794 C94.6115207,16.3463258 94.3100331,16.4329237 93.7992893,16.4655835 C93.1561488,16.5318928 92.4549917,16.601666 91.696314,16.6753979" id="Fill-13" fill="#FAFCFB"></path>
            <g id="Group-17" transform="translate(0.000000, 0.005790)">
                <mask id="mask-2" fill="white">
                    <use xlink:href="#path-1"></use>
                </mask>
                <g id="Clip-16"></g>
                <path d="M55.6233719,8.91884536 C56.673124,8.59373196 57.7263471,8.27406186 58.7820496,7.96329897 C59.2888264,7.81435052 59.7956033,7.66490722 60.3038678,7.51843299 C61.4349421,7.19381443 62.5694876,6.87760825 63.7060165,6.56734021 C64.0888264,6.46292784 64.4696529,6.3545567 64.8529587,6.25162887 C66.2909752,5.86663918 67.7339504,5.49501031 69.179405,5.13278351 C69.2324628,5.11991753 69.2860165,5.10606186 69.3395702,5.09319588 C70.5053554,4.80173196 71.6726281,4.51571134 72.842876,4.23810309 C72.8453554,4.23760825 72.8483306,4.2371134 72.8508099,4.23661856 C74.0151074,3.96049485 75.1813884,3.69426804 76.3476694,3.43298969 C76.6149421,3.3731134 76.8827107,3.31323711 77.1494876,3.25336082 C78.3127934,2.99554639 79.476595,2.75257732 80.6408926,2.50713402 C84.100562,1.7782268 87.5646942,0.984 91.0213884,0.489154639 L12.5448595,0.489154639 C9.08766942,0.489154639 6.08915702,2.13006186 4.14436364,4.67802062 C1.59163636,6.61880412 -9.91735537e-05,9.66309278 -9.91735537e-05,13.1136495 L-9.91735537e-05,36.888 C-9.91735537e-05,42.7232165 4.65163636,47.4549278 10.4870083,47.5054021 C10.8787438,46.5755876 11.2640331,45.6556701 11.6949421,44.7436701 C11.9577521,44.1909278 12.2116364,43.6421443 12.4883306,43.0963299 C12.5875041,42.9003711 12.6767603,42.7019381 12.7784132,42.5069691 C12.9241983,42.2278763 13.0714711,41.9517526 13.2202314,41.6746392 C13.3506446,41.4331546 13.4785785,41.009567 13.6114711,40.7690722 C13.6149421,40.7641237 13.6159339,40.5716289 13.6189091,40.5716289 L13.6199008,40.5716289 C13.9273388,40.0767835 14.2441983,39.6556701 14.5684959,39.1138144 C14.6022149,39.0564124 14.6374215,39.0910515 14.6716364,39.0336495 C14.9532893,38.5660206 15.2423802,38.1473814 15.5374215,37.6871753 C15.6053554,37.5812784 15.6732893,37.4986392 15.7412231,37.3922474 C16.0104793,36.9785567 16.2866777,36.5802062 16.5663471,36.1729485 C16.6481653,36.0536907 16.7289917,35.9388866 16.8122975,35.819134 C17.1643636,35.3153814 17.5233719,34.8185567 17.8937851,34.3256907 C26.0855207,23.4242474 36.8448595,15.2182268 49.806843,10.7992577 C51.2721322,10.2999588 52.7493223,9.82045361 54.2309752,9.35035052 C54.6946116,9.20387629 55.1592397,9.06284536 55.6233719,8.91884536" id="Fill-15" fill="#FAFCFB" opacity="0.4" mask="url(#mask-2)"></path>
            </g>
        </g>
    </g>
</svg>