<?xml version="1.0" encoding="UTF-8"?>
<svg width="120px" height="120px" viewBox="0 0 120 120" version="1.1" xmlns="http://www.w3.org/2000/svg" xmlns:xlink="http://www.w3.org/1999/xlink">
    <!-- Generator: Sketch 51.1 (57501) - http://www.bohemiancoding.com/sketch -->
    <title>Train</title>
    <desc>Created with Sketch.</desc>
    <defs></defs>
    <g id="Train" stroke="none" stroke-width="1" fill="none" fill-rule="evenodd">
        <g id="tramway" transform="translate(0.000000, 30.000000)">
            <path d="M60.0002335,20.2272656 C59.8480156,20.2272656 59.693463,20.191875 59.5529183,20.1213281 L43.5494942,12.0883594 C43.2114397,11.9177344 42.9966537,11.5703906 42.9966537,11.1902344 C42.9966537,10.8098437 43.2114397,10.4627344 43.5494942,10.2921094 L59.5529183,2.25914062 C59.8342412,2.1178125 60.1662257,2.1178125 60.4475486,2.25914062 L76.4509728,10.2921094 C76.7890272,10.4627344 77.0038132,10.8100781 77.0038132,11.1902344 C77.0038132,11.570625 76.7890272,11.9177344 76.4509728,12.0883594 L60.4475486,20.1213281 C60.3070039,20.1921094 60.1526848,20.2272656 60.0002335,20.2272656 Z M46.2333852,11.1902344 L60,18.1003125 L73.7666148,11.1902344 L60,4.28015625 L46.2333852,11.1902344 Z" id="Shape" fill="#FFC84B"></path>
            <path d="M117.012374,57.3796875 L2.98785992,57.3796875 C2.43548638,57.3796875 1.98770428,56.9301562 1.98770428,56.375625 L1.98770428,54.3672656 C1.98770428,53.8127344 2.43548638,53.3632031 2.98785992,53.3632031 L117.01214,53.3632031 C117.564514,53.3632031 118.012296,53.8127344 118.012296,54.3672656 L118.012296,56.375625 C118.012529,56.9301562 117.564747,57.3796875 117.012374,57.3796875 Z" id="Shape" fill="#504B5A"></path>
            <ellipse id="Oval" fill="#625D6B" cx="27.9945525" cy="55.3701562" rx="4.00085603" ry="4.01648438"></ellipse>
            <ellipse id="Oval" fill="#625D6B" cx="43.9954086" cy="55.3701562" rx="4.00085603" ry="4.01648438"></ellipse>
            <ellipse id="Oval" fill="#625D6B" cx="76.0022568" cy="55.3701562" rx="4.00085603" ry="4.01648438"></ellipse>
            <ellipse id="Oval" fill="#625D6B" cx="92.0056809" cy="55.3701562" rx="4.00085603" ry="4.01648438"></ellipse>
            <path d="M119.527938,37.3572656 L116.012218,23.2396875 L3.98824903,23.2396875 L0.47229572,37.3572656 C0.153618677,38.6364844 0.153618677,39.9747656 0.47229572,41.25375 L3.60910506,53.8502344 C3.83159533,54.7441406 4.63190661,55.3715625 5.54988327,55.3715625 L24.9924514,55.3715625 L25.992607,53.3632031 L45.9968872,53.3632031 L46.9970428,55.3715625 L73.0027237,55.3715625 L74.0028794,53.3632031 L94.0071595,53.3632031 L95.0073152,55.3715625 L114.449883,55.3715625 C115.36786,55.3715625 116.167938,54.744375 116.390661,53.8502344 L119.527471,41.25375 C119.846381,39.9747656 119.846381,38.6364844 119.527938,37.3572656 Z" id="Shape" fill="#FFC84B"></path>
            <polygon id="Shape" fill="#FF6464" points="2.4877821 49.3467187 117.512451 49.3467187 119.512763 41.31375 0.487470817 41.31375"></polygon>
            <path d="M116.012218,21.2313281 L3.98824903,21.2313281 C2.88350195,21.2313281 1.98793774,22.130625 1.98793774,23.2394531 L1.98793774,24.2435156 C1.98793774,24.7980469 2.43571984,25.2475781 2.98809339,25.2475781 L117.012374,25.2475781 C117.564747,25.2475781 118.012529,24.7980469 118.012529,24.2435156 L118.012529,23.2394531 C118.012529,22.130625 117.116732,21.2313281 116.012218,21.2313281 Z" id="Shape" fill="#FFDC5A"></path>
            <path d="M111.010973,23.2396875 L8.9892607,23.2396875 C8.43688716,23.2396875 7.98910506,22.7901562 7.98910506,22.235625 L7.98910506,20.2275 C7.98910506,19.6729687 8.43688716,19.2234375 8.9892607,19.2234375 L111.010973,19.2234375 C111.563346,19.2234375 112.011128,19.6729688 112.011128,20.2275 L112.011128,22.235625 C112.011362,22.7899219 111.563346,23.2396875 111.010973,23.2396875 Z" id="Shape" fill="#A7A5AC"></path>
            <path d="M63.0007004,21.2313281 L56.9992996,21.2313281 C56.4469261,21.2313281 55.999144,20.7817969 55.999144,20.2272656 L55.999144,18.2189062 C55.999144,17.664375 56.4469261,17.2148437 56.9992996,17.2148437 L63.0007004,17.2148437 C63.5530739,17.2148437 64.000856,17.664375 64.000856,18.2189062 L64.000856,20.2272656 C64.0010895,20.7817969 63.5530739,21.2313281 63.0007004,21.2313281 Z" id="Shape" fill="#736F7B"></path>
            <path d="M65.0012451,55.3715625 L54.9992218,55.3715625 C53.8944747,55.3715625 52.998677,54.4722656 52.998677,53.3632031 L52.998677,29.2642969 C52.998677,28.1552344 53.8944747,27.2561719 54.9992218,27.2561719 L65.0012451,27.2561719 C66.1059922,27.2561719 67.0015564,28.1554688 67.0015564,29.2642969 L67.0015564,53.3632031 C67.0015564,54.4722656 66.1059922,55.3715625 65.0012451,55.3715625 Z" id="Shape" fill="#FFDC5A"></path>
            <path d="M57.9996887,41.31375 L55.9993774,41.31375 C55.4470039,41.31375 54.9992218,40.8642188 54.9992218,40.3096875 L54.9992218,30.2685938 C54.9992218,29.7140625 55.4470039,29.2645313 55.9993774,29.2645313 L57.9996887,29.2645313 C58.5520623,29.2645313 58.9998444,29.7140625 58.9998444,30.2685938 L58.9998444,40.3096875 C58.9998444,40.8642188 58.5520623,41.31375 57.9996887,41.31375 Z" id="Shape" fill="#625D6B"></path>
            <path d="M64.0010895,41.31375 L62.0005447,41.31375 C61.4481712,41.31375 61.0003891,40.8642188 61.0003891,40.3096875 L61.0003891,30.2685938 C61.0003891,29.7140625 61.4481712,29.2645313 62.0005447,29.2645313 L64.0010895,29.2645313 C64.553463,29.2645313 65.0012451,29.7140625 65.0012451,30.2685938 L65.0012451,40.3096875 C65.0012451,40.8642188 64.5532296,41.31375 64.0010895,41.31375 Z" id="Shape" fill="#625D6B"></path>
            <path d="M108.010506,55.3715625 L98.0084825,55.3715625 C96.9037354,55.3715625 96.0079377,54.4722656 96.0079377,53.3632031 L96.0079377,29.2642969 C96.0079377,28.1552344 96.9037354,27.2561719 98.0084825,27.2561719 L108.010506,27.2561719 C109.115253,27.2561719 110.010817,28.1554688 110.010817,29.2642969 L110.010817,53.3632031 C110.010817,54.4722656 109.115019,55.3715625 108.010506,55.3715625 Z" id="Shape" fill="#FFDC5A"></path>
            <path d="M101.008949,41.31375 L99.0086381,41.31375 C98.4562646,41.31375 98.0084825,40.8642188 98.0084825,40.3096875 L98.0084825,30.2685938 C98.0084825,29.7140625 98.4562646,29.2645313 99.0086381,29.2645313 L101.008949,29.2645313 C101.561323,29.2645313 102.009105,29.7140625 102.009105,30.2685938 L102.009105,40.3096875 C102.009105,40.8642188 101.561323,41.31375 101.008949,41.31375 Z" id="Shape" fill="#625D6B"></path>
            <path d="M107.010117,41.31375 L105.009805,41.31375 C104.457432,41.31375 104.00965,40.8642188 104.00965,40.3096875 L104.00965,30.2685938 C104.00965,29.7140625 104.457432,29.2645313 105.009805,29.2645313 L107.010117,29.2645313 C107.56249,29.2645313 108.010272,29.7140625 108.010272,30.2685938 L108.010272,40.3096875 C108.010506,40.8642188 107.56249,41.31375 107.010117,41.31375 Z" id="Shape" fill="#625D6B"></path>
            <path d="M21.9919844,55.3715625 L11.9899611,55.3715625 C10.885214,55.3715625 9.98941634,54.4722656 9.98941634,53.3632031 L9.98941634,29.2642969 C9.98941634,28.1552344 10.885214,27.2561719 11.9899611,27.2561719 L21.9919844,27.2561719 C23.0967315,27.2561719 23.9922957,28.1554688 23.9922957,29.2642969 L23.9922957,53.3632031 C23.9925292,54.4722656 23.0967315,55.3715625 21.9919844,55.3715625 Z" id="Shape" fill="#FFDC5A"></path>
            <path d="M14.990428,41.31375 L12.9898833,41.31375 C12.4375097,41.31375 11.9897276,40.8642188 11.9897276,40.3096875 L11.9897276,30.2685938 C11.9897276,29.7140625 12.4375097,29.2645313 12.9898833,29.2645313 L14.990428,29.2645313 C15.5428016,29.2645313 15.9905837,29.7140625 15.9905837,30.2685938 L15.9905837,40.3096875 C15.9908171,40.8642188 15.5428016,41.31375 14.990428,41.31375 Z" id="Shape" fill="#625D6B"></path>
            <path d="M20.9918288,41.31375 L18.991284,41.31375 C18.4389105,41.31375 17.9911284,40.8642188 17.9911284,40.3096875 L17.9911284,30.2685938 C17.9911284,29.7140625 18.4389105,29.2645313 18.991284,29.2645313 L20.9918288,29.2645313 C21.5442023,29.2645313 21.9919844,29.7140625 21.9919844,30.2685938 L21.9919844,40.3096875 C21.9919844,40.8642188 21.5442023,41.31375 20.9918288,41.31375 Z" id="Shape" fill="#625D6B"></path>
            <path d="M32.9943969,39.305625 L26.9929961,39.305625 C26.4406226,39.305625 25.9928405,38.8560938 25.9928405,38.3015625 L25.9928405,28.2602344 C25.9928405,27.7057031 26.4406226,27.2561719 26.9929961,27.2561719 L32.9941634,27.2561719 C33.546537,27.2561719 33.9943191,27.7057031 33.9943191,28.2602344 L33.9943191,38.3015625 C33.9945525,38.8558594 33.5467704,39.305625 32.9943969,39.305625 Z" id="Shape" fill="#625D6B"></path>
            <path d="M48.997821,39.305625 L36.9952529,39.305625 C36.4428794,39.305625 35.9950973,38.8560938 35.9950973,38.3015625 L35.9950973,28.2602344 C35.9950973,27.7057031 36.4428794,27.2561719 36.9952529,27.2561719 L48.997821,27.2561719 C49.5501946,27.2561719 49.9979767,27.7057031 49.9979767,28.2602344 L49.9979767,38.3015625 C49.9979767,38.8558594 49.5501946,39.305625 48.997821,39.305625 Z" id="Shape" fill="#625D6B"></path>
            <path d="M77.0038132,39.305625 L71.0026459,39.305625 C70.4502724,39.305625 70.0024903,38.8560938 70.0024903,38.3015625 L70.0024903,28.2602344 C70.0024903,27.7057031 70.4502724,27.2561719 71.0026459,27.2561719 L77.0038132,27.2561719 C77.5561868,27.2561719 78.0039689,27.7057031 78.0039689,28.2602344 L78.0039689,38.3015625 C78.0039689,38.8558594 77.5561868,39.305625 77.0038132,39.305625 Z" id="Shape" fill="#625D6B"></path>
            <path d="M93.0072374,39.305625 L81.0046693,39.305625 C80.4522957,39.305625 80.0045136,38.8560938 80.0045136,38.3015625 L80.0045136,28.2602344 C80.0045136,27.7057031 80.4522957,27.2561719 81.0046693,27.2561719 L93.0072374,27.2561719 C93.5596109,27.2561719 94.007393,27.7057031 94.007393,28.2602344 L94.007393,38.3015625 C94.007393,38.8558594 93.5596109,39.305625 93.0072374,39.305625 Z" id="Shape" fill="#625D6B"></path>
            <path d="M117.012374,27.2561719 L113.011518,27.2561719 C112.459144,27.2561719 112.011362,27.7057031 112.011362,28.2602344 L112.011362,38.3015625 C112.011362,38.8560938 112.459144,39.305625 113.011518,39.305625 L119.76677,39.305625 C119.76677,38.6514844 119.68716,37.9971094 119.527704,37.3572656 L117.012374,27.2561719 Z" id="Shape" fill="#625D6B"></path>
            <path d="M7.98910506,38.3013281 L7.98910506,28.26 C7.98910506,27.7054687 7.54132296,27.2559375 6.98894942,27.2559375 L2.98785992,27.2559375 L0.47229572,37.3572656 C0.313307393,37.996875 0.233463035,38.65125 0.233463035,39.305625 L6.98871595,39.305625 C7.54108949,39.305625 7.98910506,38.8558594 7.98910506,38.3013281 Z" id="Shape" fill="#625D6B"></path>
            <path d="M60.0002335,6.16945312 C59.447393,6.16945312 59.0000778,5.72039062 59.0000778,5.16539062 L59.0000778,1.14890625 C59.0000778,0.59390625 59.447393,0.14484375 60.0002335,0.14484375 C60.5530739,0.14484375 61.0003891,0.59390625 61.0003891,1.14890625 L61.0003891,5.16539062 C61.0003891,5.72039062 60.5530739,6.16945312 60.0002335,6.16945312 Z" id="Shape" fill="#736F7B"></path>
        </g>
    </g>
</svg>