<?xml version="1.0" encoding="UTF-8"?>
<svg width="120px" height="120px" viewBox="0 0 120 120" version="1.1" xmlns="http://www.w3.org/2000/svg" xmlns:xlink="http://www.w3.org/1999/xlink">
    <!-- Generator: Sketch 48.2 (47327) - http://www.bohemiancoding.com/sketch -->
    <title>House16</title>
    <desc>Created with Sketch.</desc>
    <defs>
        <polygon id="path-1" points="0 85.4866542 119.002991 85.4866542 119.002991 -0.000448598131 0 -0.000448598131"></polygon>
    </defs>
    <g id="建筑" stroke="none" stroke-width="1" fill="none" fill-rule="evenodd">
        <g id="House16">
            <g id="Page-1" transform="translate(0.000000, 17.000000)">
                <path d="M29.1983551,84.668972 L35.9273271,84.668972 L35.9273271,42.9818692 L29.1983551,42.9818692 L29.1983551,57.8865421 C28.5748037,57.0958879 27.909757,56.3691589 27.200972,55.7074766 C22.5019065,51.3246729 17.700785,51.5198131 17.1669533,51.5590654 L17.6334953,58.271215 L17.5628411,58.2757009 C17.6716262,58.2757009 20.1703178,58.2420561 22.7957383,60.8046729 C25.7172336,63.6566355 29.1983551,70.1119626 29.1983551,84.668972" id="Fill-1" fill="#5B3F2C"></path>
                <path d="M51.6977944,6.06897196 C53.8084486,8.78747664 54.6103178,12.1059813 54.2020935,15.2708411 C54.2491963,15.3269159 54.3019065,15.3796262 54.3478879,15.4379439 C57.0753645,18.9515888 57.4936822,23.5250467 55.8372336,27.3347664 C58.8820935,32.9557009 57.5194766,40.1108411 52.3034019,44.1583178 C48.8211589,46.8611215 44.4237757,47.5485981 40.4873271,46.4237383 C39.9512523,47.5239252 39.1718131,48.5254206 38.1389159,49.3284112 C34.5434019,52.1175701 29.3654579,51.4648598 26.5762991,47.8704673 C25.8495701,46.9340187 25.3617196,45.888785 25.0925607,44.8076636 C21.3837757,47.6248598 16.0914393,46.9407477 13.2293832,43.253271 C12.7695701,42.66 12.4095701,42.0207477 12.1280748,41.3613084 C9.94676636,40.7220561 7.93592523,39.426729 6.43648598,37.4943925 C3.6002243,33.8405607 3.3837757,28.9856075 5.49891589,25.1826168 C3.54639252,21.0185047 4.65218692,15.9134579 8.43835514,12.9751402 C10.4323738,11.4274766 12.8245234,10.7557009 15.1617196,10.8857944 C15.5710654,8.6271028 16.7721869,6.50635514 18.7280748,4.98897196 C20.234243,3.81925234 21.9781682,3.17439252 23.7456449,3.01065421 C23.8835888,2.89401869 24.0114393,2.7717757 24.1561121,2.65850467 C28.3908785,-0.627476636 34.0454579,-0.801308411 38.3946168,1.77252336 C43.1486355,0.381869159 48.4768598,1.91943925 51.6977944,6.06897196" id="Fill-3" fill="#63CE72"></path>
                <mask id="mask-2" fill="white">
                    <use xlink:href="#path-1"></use>
                </mask>
                <g id="Clip-6"></g>
                <polygon id="Fill-5" fill="#FFFFFF" mask="url(#mask-2)" points="91.4702804 25.9117009 103.907664 25.9117009 103.907664 8.98945794 91.4702804 8.98945794"></polygon>
                <polygon id="Fill-7" fill="#FFD586" mask="url(#mask-2)" points="36.8319252 35.6873271 74.1070654 6.28059813 111.382206 35.6873271 111.382206 82.2148037 36.8319252 82.2148037"></polygon>
                <path d="M33.924785,84.1082243 C33.924785,84.417757 34.176,84.668972 34.4855327,84.668972 L113.72815,84.668972 C114.038804,84.668972 114.288897,84.417757 114.288897,84.1082243 L114.288897,81.1407477 C114.288897,80.831215 114.038804,80.58 113.72815,80.58 L34.4855327,80.58 C34.176,80.58 33.924785,80.831215 33.924785,81.1407477 L33.924785,84.1082243 Z" id="Fill-8" fill="#795737" mask="url(#mask-2)"></path>
                <path d="M72.9339813,68.1373458 C72.9339813,68.4648224 72.6681869,68.7306168 72.3407103,68.7306168 L59.452486,68.7306168 C59.1250093,68.7306168 58.8580935,68.4648224 58.8580935,68.1373458 L58.8580935,46.2771589 C58.8580935,45.9496822 59.1250093,45.6838879 59.452486,45.6838879 L72.3407103,45.6838879 C72.6681869,45.6838879 72.9339813,45.9496822 72.9339813,46.2771589 L72.9339813,68.1373458 Z" id="Fill-9" fill="#A5815E" mask="url(#mask-2)"></path>
                <path d="M59.7103178,67.3180935 C59.7103178,67.6276262 59.9615327,67.8788411 60.2710654,67.8788411 L71.520785,67.8788411 C71.8303178,67.8788411 72.0815327,67.6276262 72.0815327,67.3180935 L72.0815327,47.0975327 C72.0815327,46.7868785 71.8303178,46.536785 71.520785,46.536785 L60.2710654,46.536785 C59.9615327,46.536785 59.7103178,46.7868785 59.7103178,47.0975327 L59.7103178,67.3180935 Z" id="Fill-10" fill="#B5FFFF" mask="url(#mask-2)"></path>
                <path d="M59.7108785,68.1373458 C59.7108785,68.4648224 59.4450841,68.7306168 59.1176075,68.7306168 L46.2293832,68.7306168 C45.9019065,68.7306168 45.6349907,68.4648224 45.6349907,68.1373458 L45.6349907,46.2771589 C45.6349907,45.9496822 45.9019065,45.6838879 46.2293832,45.6838879 L59.1176075,45.6838879 C59.4450841,45.6838879 59.7108785,45.9496822 59.7108785,46.2771589 L59.7108785,68.1373458 Z" id="Fill-12" fill="#A5815E" mask="url(#mask-2)"></path>
                <path d="M46.4873271,67.3180935 C46.4873271,67.6276262 46.7385421,67.8788411 47.0480748,67.8788411 L58.2977944,67.8788411 C58.6073271,67.8788411 58.8585421,67.6276262 58.8585421,67.3180935 L58.8585421,47.0975327 C58.8585421,46.7868785 58.6073271,46.536785 58.2977944,46.536785 L47.0480748,46.536785 C46.7385421,46.536785 46.4873271,46.7868785 46.4873271,47.0975327 L46.4873271,67.3180935 Z" id="Fill-13" fill="#B5FFFF" mask="url(#mask-2)"></path>
                <path d="M74.7093084,71.0735327 C74.7093084,71.3830654 74.4580935,71.6342804 74.1485607,71.6342804 L44.4210841,71.6342804 C44.1104299,71.6342804 43.8603364,71.3830654 43.8603364,71.0735327 L43.8603364,67.7090467 C43.8603364,67.399514 44.1104299,67.1482991 44.4210841,67.1482991 L74.1485607,67.1482991 C74.4580935,67.1482991 74.7093084,67.399514 74.7093084,67.7090467 L74.7093084,71.0735327 Z" id="Fill-15" fill="#795737" mask="url(#mask-2)"></path>
                <path d="M84.8027664,80.7201869 C84.8027664,81.0297196 85.0539813,81.2809346 85.363514,81.2809346 L103.346692,81.2809346 C103.656224,81.2809346 103.907439,81.0297196 103.907439,80.7201869 L103.907439,50.8603738 C103.907439,50.5508411 103.656224,50.2996262 103.346692,50.2996262 L85.363514,50.2996262 C85.0539813,50.2996262 84.8027664,50.5508411 84.8027664,50.8603738 L84.8027664,80.7201869 Z" id="Fill-16" fill="#795737" mask="url(#mask-2)"></path>
                <polygon id="Fill-17" fill="#A5815E" mask="url(#mask-2)" points="86.5536449 64.8085234 102.157009 64.8085234 102.157009 51.8720748 86.5536449 51.8720748"></polygon>
                <polygon id="Fill-18" fill="#B5FFFF" mask="url(#mask-2)" points="87.2052336 64.0683364 101.504299 64.0683364 101.504299 52.6122617 87.2052336 52.6122617"></polygon>
                <path d="M86.844785,69.5753271 C86.844785,70.2717757 87.4100187,70.8370093 88.1064673,70.8370093 C88.8040374,70.8370093 89.3681495,70.2717757 89.3681495,69.5753271 C89.3681495,68.8788785 88.8040374,68.3136449 88.1064673,68.3136449 C87.4100187,68.3136449 86.844785,68.8788785 86.844785,69.5753271" id="Fill-20" fill="#FFD46F" mask="url(#mask-2)"></path>
                <path d="M83.8410841,82.2151402 L83.8410841,81.0476636 C83.8410841,80.7897196 84.0922991,80.58 84.4018318,80.58 L104.308374,80.58 C104.617907,80.58 104.869121,80.7897196 104.869121,81.0476636 L104.869121,82.2151402 L83.8410841,82.2151402 Z" id="Fill-21" fill="#C1C1C1" mask="url(#mask-2)"></path>
                <path d="M82.5137944,83.8514019 L82.5137944,82.6828037 C82.5137944,82.4248598 82.7964112,82.2151402 83.1451963,82.2151402 L105.565009,82.2151402 C105.913794,82.2151402 106.196411,82.4248598 106.196411,82.6828037 L106.196411,83.8514019 L82.5137944,83.8514019 Z" id="Fill-22" fill="#9B9B9B" mask="url(#mask-2)"></path>
                <path d="M81.282729,85.4865421 L81.282729,84.3179439 C81.282729,84.06 81.5945047,83.8514019 81.9802991,83.8514019 L106.730579,83.8514019 C107.115252,83.8514019 107.427028,84.06 107.427028,84.3179439 L107.427028,85.4865421 L81.282729,85.4865421 Z" id="Fill-23" fill="#717171" mask="url(#mask-2)"></path>
                <polygon id="Fill-24" fill="#DA565B" mask="url(#mask-2)" points="74.1069533 0.476859813 119.003776 35.945271 29.2101308 35.945271"></polygon>
                <polygon id="Fill-25" fill="#DA565B" mask="url(#mask-2)" points="88.1069159 9.89226168 107.271028 9.89226168 107.271028 2.9277757 88.1069159 2.9277757"></polygon>
                <polygon id="Fill-26" fill="#A5815E" mask="url(#mask-2)" points="22.7180187 65.2365981 27.6402617 59.4160374 32.5625047 65.2365981 32.5625047 84.6687477 22.7180187 84.6687477"></polygon>
                <polygon id="Fill-27" fill="#A5815E" mask="url(#mask-2)" points="7.55596262 65.2365981 12.4782056 59.4160374 17.4004486 65.2365981 17.4004486 84.6687477 7.55596262 84.6687477"></polygon>
                <polygon id="Fill-28" fill="#795737" mask="url(#mask-2)" points="6.33420561 70.1221682 36.8321495 70.1221682 36.8321495 67.8791776 6.33420561 67.8791776"></polygon>
                <polygon id="Fill-29" fill="#795737" mask="url(#mask-2)" points="6.33420561 79.6795514 36.8321495 79.6795514 36.8321495 77.4365607 6.33420561 77.4365607"></polygon>
                <path d="M0,51.247514 C0,49.5181682 0.70317757,47.9548037 1.84037383,46.8243364 C1.83925234,46.7873271 1.83476636,46.7503178 1.83476636,46.7133084 C1.83476636,44.4781682 3.07626168,42.5346168 4.90766355,41.5331215 C5.43028037,38.3648972 8.17457944,35.9458318 11.4919626,35.9458318 C13.7057944,35.9458318 15.6628037,37.0269533 16.8785047,38.6856449 C17.4302804,38.414243 18.0482243,38.2572336 18.7042991,38.2572336 C20.991028,38.2572336 22.8448598,40.1110654 22.8448598,42.3966729 C22.8448598,42.9921869 22.7158879,43.5574206 22.4893458,44.0688224 C24.828785,44.0934953 26.7185047,45.9944299 26.7185047,48.3394766 C26.7185047,48.7174206 26.6646729,49.080785 26.5727103,49.4295701 C27.242243,50.3548037 27.6403738,51.4886355 27.6403738,52.7177944 C27.6403738,55.0404112 26.2306542,57.0344299 24.2209346,57.8912523 C23.7128972,60.1465794 21.7020561,61.8310654 19.2942056,61.8310654 C18.0257944,61.8310654 16.8695327,61.3611589 15.9824299,60.5895701 C15.124486,61.3589159 13.9951402,61.8310654 12.7514019,61.8310654 C11.7936449,61.8310654 10.9031776,61.5495701 10.1506542,61.0695701 C10.0598131,61.0740561 9.97121495,61.0841495 9.87925234,61.0841495 C7.18654206,61.0841495 4.88859813,59.4108785 3.95551402,57.0490093 C1.64074766,56.1372336 0,53.8863925 0,51.247514" id="Fill-30" fill="#ADDF6B" mask="url(#mask-2)"></path>
            </g>
        </g>
    </g>
</svg>