<?xml version="1.0" encoding="UTF-8"?>
<svg width="120px" height="120px" viewBox="0 0 120 120" version="1.1" xmlns="http://www.w3.org/2000/svg" xmlns:xlink="http://www.w3.org/1999/xlink">
    <!-- Generator: Sketch 51.1 (57501) - http://www.bohemiancoding.com/sketch -->
    <title>Tree48</title>
    <desc>Created with Sketch.</desc>
    <defs>
        <polygon id="path-1" points="0.169419477 0.748235294 26.8096752 0.748235294 26.8096752 28.7125678 0.169419477 28.7125678"></polygon>
        <polygon id="path-3" points="0 0.281440172 33.5400879 0.281440172 33.5400879 35.4875524 0 35.4875524"></polygon>
    </defs>
    <g id="Tree48" stroke="none" stroke-width="1" fill="none" fill-rule="evenodd">
        <g id="Group" transform="translate(23.000000, 0.000000)">
            <g id="Group-3" transform="translate(21.960784, 0.036078)">
                <mask id="mask-2" fill="white">
                    <use xlink:href="#path-1"></use>
                </mask>
                <g id="Clip-2"></g>
                <path d="M19.5302745,1.67262745 C14.0557647,-0.337568627 7.67301961,0.991843137 3.24243137,5.064 C2.48478431,5.76047059 1.77105882,6.54478431 1.29341176,7.49615686 C0.691843137,8.69223529 0.494980392,10.0781176 0.361647059,11.4373333 C0.105960784,14.0255686 0.0447843137,16.6694902 0.560078431,19.2106667 C1.07537255,21.7526275 2.20713725,24.2012549 4.02439216,25.8663529 C6.16635294,27.8287059 9.044,28.5369412 11.8275294,28.6820392 C14.6134118,28.8263529 17.4298824,28.4632157 20.0800784,27.5032157 C21.6071373,26.9502745 23.1145882,26.1706667 24.2181176,24.8820392 C25.1702745,23.7698824 25.7663529,22.3392941 26.1671373,20.8741961 C27.3451765,16.5659608 26.8871373,11.7447843 24.9263529,7.79733333 C24.1867451,6.30870588 20.9506667,2.33145098 19.5302745,1.67262745" id="Fill-1" fill="#D8C95B" mask="url(#mask-2)"></path>
            </g>
            <path d="M27.8912157,6.93921569 C25.7908235,9.02627451 24.5265098,12.0984314 24.4865098,15.2129412 L27.8912157,6.93921569 Z M25.1223529,17.0923922 C24.8494118,19.3206275 25.6321569,21.6727843 27.1466667,23.1810196 L25.1223529,17.0923922 Z M29.2836863,24.5533333 L35.4091765,27.2113725 C34.6562353,27.205098 33.9040784,27.1329412 33.160549,26.9964706 C32.400549,26.8560784 31.642902,26.645098 30.9566275,26.2584314 C30.2695686,25.8717647 29.6546667,25.2976471 29.2836863,24.5533333 Z M28.2787451,11.6562353 C27.2912941,13.1338824 26.9469804,15.108 27.3658039,16.882902 L28.2787451,11.6562353 Z M29.2338824,19.4277647 C29.6268235,21.1046275 30.608,22.6050196 31.928,23.5461961 L29.2338824,19.4277647 Z M31.9835294,13.1846275 L32.6109804,18.1399216 C32.4298039,18.1532549 32.3192157,17.9297255 32.2611765,17.7399216 C31.8172549,16.281098 31.7207843,14.696 31.9835294,13.1846275 Z M33.6464314,20.2361569 L37.5460392,21.7483137 C37.515451,21.6126275 37.3562353,21.5796863 37.2299608,21.5757647 C36.5656471,21.5553725 35.8919216,21.591451 35.2425098,21.4330196 C34.593098,21.2761569 33.9507451,20.8879216 33.6464314,20.2361569 Z M36.8916078,23.9746667 L44.4759216,22.575451 C43.086902,23.0899608 41.6672941,23.4993725 40.2280784,23.800549 C39.1276863,24.0303529 37.9927843,24.1974118 36.8916078,23.9746667 Z M40.2694118,26.3996078 L45.2968627,24.8733333 C45.1368627,25.1007843 44.8631373,25.1823529 44.6090196,25.2490196 C43.1619608,25.632549 41.7164706,26.0160784 40.2694118,26.3996078 Z M30.216549,9.87654902 C31.6643922,8.08831373 33.6243922,6.80988235 35.7443922,6.27027451 L30.216549,9.87654902 Z M30.9388235,4.74596078 C31.6313725,4.0612549 32.505098,3.63145098 33.4039216,3.36713725 C34.3019608,3.10282353 35.2321569,2.99537255 36.1568627,2.8894902 L30.9388235,4.74596078 Z M26.6779608,4.92941176 C27.5987451,4.06666667 28.6661961,3.3945098 29.8081569,2.95764706 L26.6779608,4.92941176 Z M38.2006275,4.09764706 C39.4280784,4.00196078 40.6798431,4.32666667 41.7402353,5.01607843 L38.2006275,4.09764706 Z M37.9639216,9.08156863 L36.2862745,14.0909804 C36.0352941,13.5741176 36.172549,12.9411765 36.3192157,12.3780392 C36.6407843,11.1498039 37.0321569,9.84156863 37.9639216,9.08156863 Z M37.9831373,16.4214902 L43.4145098,17.4669804 C42.5572549,17.9665882 41.5290196,18.0395294 40.5823529,17.8058039 C39.6364706,17.5720784 38.7658824,17.0505098 37.9831373,16.4214902 Z M39.7883922,10.3319216 L41.6040784,13.5021176 C41.1099608,13.1178039 40.6072157,12.7264314 40.2378039,12.1985882 C39.8683922,11.6715294 39.6440784,10.9789804 39.7883922,10.3319216 Z M44.6673725,9.44156863 C45.5481569,10.8533333 45.9677647,12.6062745 45.8336471,14.3121569 L44.6673725,9.44156863 Z M46.0651765,17.0752157 C45.804,18.3199216 45.3310588,19.6101176 44.3577255,20.3058039 C43.5977255,20.848549 42.6526275,20.943451 41.7506667,21.023451 L46.0651765,17.0752157 Z M39.496549,7.03192157 C40.7396863,7.02643137 41.978902,7.54486275 42.9051765,8.45780392 L39.496549,7.03192157 Z" id="Combined-Shape" stroke="#E7D884" stroke-linecap="round" stroke-linejoin="round"></path>
            <path d="M64.3388235,25.6467451 C57.4462745,23.116549 49.4109804,24.7894902 43.8329412,29.9157647 C42.8784314,30.7934118 41.9803922,31.7808627 41.3788235,32.9785098 C40.6219608,34.4843922 40.3733333,36.2294902 40.2047059,37.9400784 C39.8839216,41.1996863 39.8078431,44.5275294 40.4556863,47.7267451 C41.1043137,50.9267451 42.5286275,54.0098824 44.8172549,56.1071373 C47.5137255,58.5777255 51.1372549,59.4694902 54.6407843,59.6506667 C58.1482353,59.8326275 61.694902,59.3753725 65.0313725,58.1675294 C66.9545098,57.4710588 68.8517647,56.4898824 70.24,54.8679216 C71.44,53.4671373 72.1913725,51.6655686 72.694902,49.8216471 C74.1772549,44.3973333 73.6015686,38.3275294 71.1317647,33.3581176 C70.2015686,31.4836078 66.1262745,26.476549 64.3388235,25.6467451" id="Fill-42" fill="#DABE0A"></path>
            <path d="M47.2171765,32.2318431 C44.5724706,34.8592941 42.981098,38.7275294 42.9301176,42.649098 L47.2171765,32.2318431 Z M43.7306667,45.0148235 C43.3879216,47.8203137 44.3722353,50.7818824 46.2796863,52.6799216 L43.7306667,45.0148235 Z M48.9696471,54.4082353 L56.6818039,57.7541176 C55.7335686,57.7462745 54.7861176,57.6560784 53.852,57.4835294 C52.8935686,57.3070588 51.9398431,57.0411765 51.0763137,56.5541176 C50.2112157,56.0678431 49.4363137,55.3454902 48.9696471,54.4082353 Z M47.7043137,38.1708235 C46.4619608,40.0312157 46.0282353,42.5167059 46.5552941,44.7512157 L47.7043137,38.1708235 Z M48.9068235,47.954902 C49.4017255,50.0654902 50.6378039,51.954902 52.2989804,53.1407843 L48.9068235,47.954902 Z M52.3687843,40.094902 L53.1593725,46.3333333 C52.9311373,46.3513725 52.7907451,46.0690196 52.7178039,45.8298039 C52.1593725,43.9929412 52.0378039,41.9976471 52.3687843,40.094902 Z M54.462902,48.9727843 L59.3727059,50.8763137 C59.3334902,50.7061176 59.1334902,50.664549 58.9742745,50.6598431 C58.1374118,50.6339608 57.2895686,50.6786667 56.4723137,50.4802353 C55.6542745,50.2818039 54.8456471,49.7923922 54.462902,48.9727843 Z M58.5483922,53.679451 L68.0974118,51.9178824 C66.3483922,52.5657255 64.5601569,53.0810196 62.7483922,53.4598431 C61.3632941,53.7500392 59.9358431,53.959451 58.5483922,53.679451 Z M62.8007843,56.7324706 L69.1301961,54.810902 C68.9294118,55.0979608 68.5843137,55.1999216 68.265098,55.2846275 C66.4439216,55.7669804 64.6219608,56.2501176 62.8007843,56.7324706 Z M50.1437647,35.9301176 C51.9665098,33.6783529 54.4347451,32.0689412 57.1037647,31.3897255 L50.1437647,35.9301176 Z M51.0545098,29.4706667 C51.925098,28.6087059 53.0262745,28.0667451 54.1572549,27.7341961 C55.2882353,27.4016471 56.4592157,27.2667451 57.6239216,27.1334118 L51.0545098,29.4706667 Z M45.6898824,29.7015686 C46.849098,28.6160784 48.1918431,27.7698039 49.6294902,27.2192157 L45.6898824,29.7015686 Z M60.1966275,28.6545098 C61.7425098,28.5337255 63.3174118,28.9431373 64.6523137,29.8113725 L60.1966275,28.6545098 Z M59.8986667,34.9290196 L57.7865098,41.2364706 C57.4696471,40.5847059 57.6429804,39.7886275 57.8280784,39.0796078 C58.232,37.5329412 58.724549,35.8858824 59.8986667,34.9290196 Z M59.9224314,44.1700392 L66.7608627,45.486902 C65.6816471,46.1151373 64.3859608,46.206902 63.1961569,45.9127843 C62.004,45.6186667 60.9083137,44.9621961 59.9224314,44.1700392 Z M62.1956863,36.5030588 L64.4819608,40.4936471 C63.8592157,40.0112941 63.2262745,39.5179608 62.7611765,38.8544314 C62.2952941,38.1901176 62.0137255,37.3179608 62.1956863,36.5030588 Z M68.3377255,35.3825098 C69.4467451,37.1597647 69.9753725,39.3668235 69.8067451,41.5142745 L68.3377255,35.3825098 Z M70.0978039,44.9930196 C69.7683922,46.5608627 69.1738824,48.1851765 67.948,49.0604706 C66.9911373,49.7436078 65.8021176,49.8628235 64.6656471,49.964 L70.0978039,44.9930196 Z M61.8280784,32.3490196 C63.3927843,32.3419608 64.9527843,32.9945098 66.1198431,34.1435294 L61.8280784,32.3490196 Z" id="Combined-Shape" stroke="#E7CF60" stroke-width="1.5" stroke-linecap="round" stroke-linejoin="round"></path>
            <g id="Group-84" transform="translate(0.000000, 37.683137)">
                <mask id="mask-4" fill="white">
                    <use xlink:href="#path-3"></use>
                </mask>
                <g id="Clip-83"></g>
                <path d="M24.3748235,1.44509804 C17.4822745,-1.08509804 9.44698039,0.587843137 3.86894118,5.71411765 C2.91443137,6.59176471 2.01717647,7.57921569 1.41482353,8.77686275 C0.657176471,10.2827451 0.410117647,12.0278431 0.240705882,13.7384314 C-0.0800784314,16.9980392 -0.156156863,20.3258824 0.491686275,23.525098 C1.14031373,26.725098 2.56541176,29.8082353 4.8532549,31.9054902 C7.54972549,34.3760784 11.1732549,35.2678431 14.6767843,35.4490196 C18.1850196,35.6309804 21.730902,35.1737255 25.0673725,33.9658824 C26.9905098,33.2694118 28.8877647,32.2882353 30.276,30.6662745 C31.4767843,29.2654902 32.2273725,27.4639216 32.730902,25.62 C34.2140392,20.1956863 33.6383529,14.1258824 31.168549,9.15647059 C30.2375686,7.28196078 26.1630588,2.27490196 24.3748235,1.44509804" id="Fill-82" fill="#CBAA00" mask="url(#mask-4)"></path>
            </g>
            <path d="M7.25317647,45.7133333 C4.60847059,48.3407843 3.01709804,52.2090196 2.96690196,56.1305882 L7.25317647,45.7133333 Z M3.76705882,58.4963922 C3.42431373,61.3018824 4.40862745,64.263451 6.31607843,66.1614902 L3.76705882,58.4963922 Z M9.00564706,67.8897255 L16.7178039,71.2363922 C15.7695686,71.2277647 14.822902,71.1375686 13.888,70.9650196 C12.9303529,70.788549 11.9758431,70.5226667 11.1123137,70.0356078 C10.2472157,69.5493333 9.47309804,68.8269804 9.00564706,67.8897255 Z M7.74031373,51.6523922 C6.49796078,53.5127843 6.06423529,55.9982745 6.59129412,58.2327843 L7.74031373,51.6523922 Z M8.94282353,61.4363922 C9.43772549,63.5469804 10.6738039,65.4363922 12.3349804,66.6222745 L8.94282353,61.4363922 Z M12.4047843,53.5763922 L13.1953725,59.8148235 C12.9671373,59.8328627 12.8267451,59.5505098 12.7545882,59.3112941 C12.1953725,57.4744314 12.0738039,55.4791373 12.4047843,53.5763922 Z M14.498902,62.4543529 L19.4087059,64.3578824 C19.3694902,64.1876863 19.1702745,64.1461176 19.0102745,64.1414118 C18.1741961,64.1155294 17.3255686,64.1602353 16.5083137,63.9618039 C15.6902745,63.7633725 14.8816471,63.2739608 14.498902,62.4543529 Z M18.5843922,67.1609412 L28.1334118,65.3993725 C26.3843922,66.0472157 24.5961569,66.5625098 22.7843922,66.9413333 C21.4000784,67.2315294 19.9718431,67.4409412 18.5843922,67.1609412 Z M22.8375686,70.2139608 L29.1661961,68.2923922 C28.9654118,68.579451 28.6203137,68.6814118 28.301098,68.7661176 C26.4799216,69.2484706 24.6579608,69.7316078 22.8375686,70.2139608 Z M10.1797647,49.4116863 C12.0032941,47.1599216 14.4707451,45.5505098 17.1397647,44.8712941 L10.1797647,49.4116863 Z M11.0905098,42.9517647 C11.961098,42.0898039 13.0622745,41.5478431 14.1932549,41.2160784 C15.3242353,40.8827451 16.4952157,40.7478431 17.6599216,40.6145098 L11.0905098,42.9517647 Z M5.72588235,43.1831373 C6.88509804,42.0976471 8.22784314,41.2513725 9.6654902,40.7007843 L5.72588235,43.1831373 Z M20.2326275,42.1360784 C21.7785098,42.0152941 23.3541961,42.4247059 24.6883137,43.2929412 L20.2326275,42.1360784 Z M19.9346667,48.4101961 L17.8225098,54.7176471 C17.5056471,54.0666667 17.6789804,53.2705882 17.8640784,52.5607843 C18.268,51.014902 18.760549,49.3678431 19.9346667,48.4101961 Z M19.9584314,57.6515294 L26.7968627,58.9683922 C25.7176471,59.5966275 24.4227451,59.6876078 23.2321569,59.3942745 C22.0407843,59.1001569 20.9443137,58.4436863 19.9584314,57.6515294 Z M22.2316863,49.984549 L24.5179608,53.9751373 C23.8952157,53.4927843 23.2622745,52.999451 22.7971765,52.3351373 C22.3312941,51.6716078 22.0505098,50.799451 22.2316863,49.984549 Z M28.3737255,48.864 C29.4827451,50.6412549 30.0113725,52.8483137 29.8427451,54.9957647 L28.3737255,48.864 Z M30.1338039,58.4745098 C29.8043922,60.0423529 29.2098824,61.6666667 27.9847843,62.5419608 C27.0279216,63.225098 25.8381176,63.3443137 24.7016471,63.4447059 L30.1338039,58.4745098 Z M21.8640784,45.8305882 C23.4287843,45.8235294 24.9887843,46.4760784 26.1558431,47.625098 L21.8640784,45.8305882 Z" id="Combined-Shape" stroke="#E2C034" stroke-width="1.5" stroke-linecap="round" stroke-linejoin="round"></path>
            <path d="M36.2199216,110.968 C36.1642353,112.72251 36.0865882,114.509176 35.6277647,116.148392 C35.4332549,116.84251 35.1705098,117.604863 35.3799216,118.289569 C35.6779608,119.265255 36.6544314,119.319373 37.4207059,119.212706 C39.1846275,118.969569 40.9477647,118.725647 42.7116863,118.483294 C43.1791373,111.73349 41.2183529,105.160157 40.4967843,98.4527059 C40.1697255,95.4119216 40.0983529,92.3319216 40.0230588,89.2597647 C39.4544314,66.0495686 38.6567843,42.8495686 37.6324706,19.6683922 C37.4920784,16.5013333 37.270902,12.1193725 35.161098,10.1813333 C34.0450196,14.8072157 35.0622745,21.3138824 34.8544314,26.2221176 C34.5650196,33.0597647 34.550902,39.9146667 34.6803137,46.7601569 C34.9414902,60.5923137 35.7932549,74.3876078 36.1775686,88.2134902 C36.388549,95.7938824 36.4622745,103.386824 36.2199216,110.968" id="Fill-123" fill="#766835"></path>
            <path d="M56.0866667,56.0458039 C56.0152941,57.868549 55.8898039,59.7344314 55.1376471,61.4050196 C53.9039216,64.1414902 51.1117647,65.9791373 48.165098,66.8097255 C45.2192157,67.6395294 42.0968627,67.5971765 39.0309804,67.496 C38.6043137,67.4818824 38.1305882,67.4818824 37.8105882,67.7579608 C37.5415686,67.9901176 37.4537255,68.3571765 37.38,68.6999216 C37.1070588,69.9720784 37.0207843,71.6442353 38.2239216,72.2042353 C38.6247059,72.390902 39.0866667,72.3948235 39.5321569,72.3956078 C42.9007843,72.3995294 46.2701961,72.4026667 49.6403922,72.4065882 C50.7831373,72.4081569 51.952549,72.4050196 53.0294118,72.028549 C55.8552941,71.041098 57.1392157,67.8936471 57.8435294,65.0489412 C59.2207843,59.4881569 59.6733333,53.710902 59.1768627,48.0112941 C59.1007843,47.1265882 58.9870588,46.2058039 58.4866667,45.4638431 C56.165098,42.028549 56.0905882,47.0442353 56.1282353,48.3540392 C56.2019608,50.9171765 56.1862745,53.483451 56.0866667,56.0458039" id="Fill-125" fill="#766835"></path>
            <path d="M20.0556863,71.3816471 C20.1270588,73.2043922 20.2517647,75.0702745 21.0047059,76.7408627 C22.2376471,79.4773333 25.0305882,81.3149804 27.9772549,82.1455686 C30.9231373,82.9753725 34.0454902,82.9330196 37.1105882,82.8318431 C37.5380392,82.8177255 38.0117647,82.8177255 38.3317647,83.0938039 C38.6007843,83.3259608 38.6886275,83.6930196 38.7623529,84.0357647 C39.0352941,85.3079216 39.1215686,86.9800784 37.9176471,87.5400784 C37.5168627,87.7267451 37.0556863,87.7306667 36.6101961,87.731451 C33.2415686,87.7353725 29.8713725,87.7385098 26.5019608,87.7424314 C25.3592157,87.744 24.1898039,87.7408627 23.1129412,87.3643922 C20.2870588,86.3769412 19.0031373,83.2294902 18.2988235,80.3847843 C16.9207843,74.824 16.4690196,69.0467451 16.9654902,63.3471373 C17.0415686,62.4624314 17.1552941,61.5416471 17.6556863,60.7996863 C19.9772549,57.3643922 20.0517647,62.3800784 20.0141176,63.6898824 C19.9403922,66.2530196 19.9552941,68.8192941 20.0556863,71.3816471" id="Fill-127" fill="#766835"></path>
        </g>
    </g>
</svg>