<?xml version="1.0" encoding="UTF-8"?>
<svg width="120px" height="120px" viewBox="0 0 120 120" version="1.1" xmlns="http://www.w3.org/2000/svg" xmlns:xlink="http://www.w3.org/1999/xlink">
    <!-- Generator: Sketch 51.1 (57501) - http://www.bohemiancoding.com/sketch -->
    <title>Factory28</title>
    <desc>Created with Sketch.</desc>
    <defs>
        <polygon id="path-1" points="0 82.6832061 119.858413 82.6832061 119.858413 0.00316793893 0 0.00316793893"></polygon>
    </defs>
    <g id="Factory28" stroke="none" stroke-width="1" fill="none" fill-rule="evenodd">
        <g id="Page-1" transform="translate(0.000000, 18.000000)">
            <polygon id="Fill-1" fill="#D5D5D5" points="37.8593016 54.9266439 30.852 54.9266439 31.8958095 1.07136527 36.8154921 1.07136527"></polygon>
            <polygon id="Fill-2" fill="#C4C4C5" points="34.3554603 1.07136527 31.8957778 1.07136527 30.8519683 54.9266439 34.3554603 54.9266439"></polygon>
            <polygon id="Fill-3" fill="#B2514D" points="36.8988571 5.38118779 31.8125079 5.38118779 31.771873 7.46474122 36.9394921 7.46474122"></polygon>
            <polygon id="Fill-4" fill="#B2514D" points="36.9965397 10.4167851 31.7149524 10.4167851 31.674 12.5003385 37.0368571 12.5003385"></polygon>
            <polygon id="Fill-5" fill="#B2514D" points="37.093873 15.4523824 31.6170476 15.4523824 31.5767302 17.5359359 37.1345079 17.5359359"></polygon>
            <g id="Group-192" transform="translate(0.000000, 0.313626)">
                <path d="M36.7249524,0.00316793893 L31.9944762,0.00316793893 C31.8227302,0.00316793893 31.6824127,0.142240458 31.6824127,0.313942748 L31.6824127,0.446362595 C31.6824127,0.618381679 31.8227302,0.757770992 31.9944762,0.757770992 L36.7249524,0.757770992 C36.8973333,0.757770992 37.0366984,0.618381679 37.0366984,0.446362595 L37.0366984,0.313942748 C37.0366984,0.142240458 36.8973333,0.00316793893 36.7249524,0.00316793893" id="Fill-6" fill="#B4B5B5"></path>
                <polygon id="Fill-8" fill="#D5D5D5" points="53.868127 54.6130179 46.8608254 54.6130179 47.9049524 0.757739313 52.8243175 0.757739313"></polygon>
                <polygon id="Fill-10" fill="#C4C4C5" points="50.364254 0.757739313 47.9048889 0.757739313 46.8607619 54.6130179 50.364254 54.6130179"></polygon>
                <polygon id="Fill-12" fill="#B2514D" points="52.9076825 5.06756183 47.8216508 5.06756183 47.7810159 7.15111527 52.9483175 7.15111527"></polygon>
                <polygon id="Fill-14" fill="#B2514D" points="53.0053333 10.1031592 47.723746 10.1031592 47.6831111 12.1867126 53.0456508 12.1867126"></polygon>
                <polygon id="Fill-16" fill="#B2514D" points="53.1026667 15.1387565 47.6258413 15.1387565 47.5855238 17.2223099 53.1433016 17.2223099"></polygon>
                <path d="M52.733746,0.00316793893 L48.0032698,0.00316793893 C47.8312063,0.00316793893 47.6915238,0.142240458 47.6915238,0.313942748 L47.6915238,0.446362595 C47.6915238,0.618381679 47.8312063,0.757770992 48.0032698,0.757770992 L52.733746,0.757770992 C52.906127,0.757770992 53.0454921,0.618381679 53.0454921,0.446362595 L53.0454921,0.313942748 C53.0454921,0.142240458 52.906127,0.00316793893 52.733746,0.00316793893" id="Fill-18" fill="#B4B5B5"></path>
                <polygon id="Fill-20" fill="#D5D5D5" points="69.8769206 54.6130179 62.8699365 54.6130179 63.913746 0.757739313 68.8327937 0.757739313"></polygon>
                <polygon id="Fill-22" fill="#C4C4C5" points="66.3733968 0.757739313 63.9137143 0.757739313 62.8699048 54.6130179 66.3733968 54.6130179"></polygon>
                <polygon id="Fill-24" fill="#B2514D" points="68.9164762 5.06756183 63.830127 5.06756183 63.7898095 7.15111527 68.9567937 7.15111527"></polygon>
                <polygon id="Fill-26" fill="#B2514D" points="69.014127 10.1031592 63.7322222 10.1031592 63.6919048 12.1867126 69.0544444 12.1867126"></polygon>
                <polygon id="Fill-28" fill="#B2514D" points="69.1120952 15.1387565 63.6349524 15.1387565 63.5943175 17.2223099 69.1520952 17.2223099"></polygon>
                <path d="M68.7428571,0.00316793893 L64.012381,0.00316793893 C63.8403175,0.00316793893 63.7003175,0.142240458 63.7003175,0.313942748 L63.7003175,0.446362595 C63.7003175,0.618381679 63.8403175,0.757770992 64.012381,0.757770992 L68.7428571,0.757770992 C68.9149206,0.757770992 69.0542857,0.618381679 69.0542857,0.446362595 L69.0542857,0.313942748 C69.0542857,0.142240458 68.9149206,0.00316793893 68.7428571,0.00316793893" id="Fill-30" fill="#B4B5B5"></path>
                <mask id="mask-2" fill="white">
                    <use xlink:href="#path-1"></use>
                </mask>
                <g id="Clip-33"></g>
                <polygon id="Fill-32" fill="#8C7371" mask="url(#mask-2)" points="41.5571429 82.6832061 119.858413 82.6832061 119.858413 74.6955649 41.5571429 74.6955649"></polygon>
                <polygon id="Fill-34" fill="#D8D8CF" mask="url(#mask-2)" points="41.5568254 74.6955649 118.466032 74.6955649 118.466032 52.8174618 41.5568254 52.8174618"></polygon>
                <polygon id="Fill-35" fill="#4C5261" mask="url(#mask-2)" points="118.466032 52.8177469 41.5568254 52.8177469 41.5568254 43.5610294 112.224127 43.5610294"></polygon>
                <polygon id="Fill-36" fill="#3F4553" mask="url(#mask-2)" points="111.289048 43.5610927 110.505556 43.5610927 116.74746 52.8178103 117.530317 52.8178103"></polygon>
                <polygon id="Fill-37" fill="#3F4553" mask="url(#mask-2)" points="109.330984 43.5610927 108.548127 43.5610927 114.790349 52.8178103 115.573206 52.8178103"></polygon>
                <polygon id="Fill-38" fill="#3F4553" mask="url(#mask-2)" points="107.37381 43.5610927 106.590952 43.5610927 112.832222 52.8178103 113.615079 52.8178103"></polygon>
                <polygon id="Fill-39" fill="#3F4553" mask="url(#mask-2)" points="105.416349 43.5610927 104.632857 43.5610927 110.875079 52.8178103 111.658571 52.8178103"></polygon>
                <polygon id="Fill-40" fill="#3F4553" mask="url(#mask-2)" points="103.458889 43.5610927 102.675714 43.5610927 108.917302 52.8178103 109.700159 52.8178103"></polygon>
                <polygon id="Fill-41" fill="#3F4553" mask="url(#mask-2)" points="101.501111 43.5610927 100.717937 43.5610927 106.960159 52.8178103 107.743016 52.8178103"></polygon>
                <polygon id="Fill-42" fill="#3F4553" mask="url(#mask-2)" points="99.5436508 43.5610927 98.7607937 43.5610927 105.002381 52.8178103 105.785556 52.8178103"></polygon>
                <polygon id="Fill-43" fill="#3F4553" mask="url(#mask-2)" points="97.5861905 43.5610927 96.8030159 43.5610927 103.044921 52.8178103 103.828095 52.8178103"></polygon>
                <polygon id="Fill-44" fill="#3F4553" mask="url(#mask-2)" points="95.6284127 43.5610927 94.845873 43.5610927 101.08746 52.8178103 101.870317 52.8178103"></polygon>
                <polygon id="Fill-45" fill="#3F4553" mask="url(#mask-2)" points="93.6709524 43.5610927 92.8880952 43.5610927 99.13 52.8178103 99.9131746 52.8178103"></polygon>
                <polygon id="Fill-46" fill="#3F4553" mask="url(#mask-2)" points="91.7134921 43.5610927 90.9306349 43.5610927 97.1725397 52.8178103 97.9550794 52.8178103"></polygon>
                <polygon id="Fill-47" fill="#3F4553" mask="url(#mask-2)" points="89.756 43.5610927 88.9728254 43.5610927 95.2150476 52.8178103 95.9979048 52.8178103"></polygon>
                <polygon id="Fill-48" fill="#3F4553" mask="url(#mask-2)" points="87.798254 43.5610927 87.0153968 43.5610927 93.2573016 52.8178103 94.0404762 52.8178103"></polygon>
                <polygon id="Fill-49" fill="#3F4553" mask="url(#mask-2)" points="85.8407619 43.5610927 85.0579048 43.5610927 91.2994921 52.8178103 92.0829841 52.8178103"></polygon>
                <polygon id="Fill-50" fill="#3F4553" mask="url(#mask-2)" points="83.8833016 43.5610927 83.1004444 43.5610927 89.3423492 52.8178103 90.1252063 52.8178103"></polygon>
                <polygon id="Fill-51" fill="#3F4553" mask="url(#mask-2)" points="81.9261587 43.5610927 81.1426667 43.5610927 87.3848889 52.8178103 88.1680635 52.8178103"></polygon>
                <polygon id="Fill-52" fill="#3F4553" mask="url(#mask-2)" points="79.968381 43.5610927 79.1852063 43.5610927 85.4274286 52.8178103 86.2099683 52.8178103"></polygon>
                <polygon id="Fill-53" fill="#3F4553" mask="url(#mask-2)" points="78.0106032 43.5610927 77.227746 43.5610927 83.4696508 52.8178103 84.2528254 52.8178103"></polygon>
                <polygon id="Fill-54" fill="#3F4553" mask="url(#mask-2)" points="76.0531429 43.5610927 75.2702857 43.5610927 81.511873 52.8178103 82.2950476 52.8178103"></polygon>
                <polygon id="Fill-55" fill="#3F4553" mask="url(#mask-2)" points="74.0956825 43.5610927 73.3125079 43.5610927 79.5544127 52.8178103 80.3375873 52.8178103"></polygon>
                <polygon id="Fill-56" fill="#3F4553" mask="url(#mask-2)" points="72.1381905 43.5610927 71.3553333 43.5610927 77.5972381 52.8178103 78.3804127 52.8178103"></polygon>
                <polygon id="Fill-57" fill="#3F4553" mask="url(#mask-2)" points="70.1807302 43.5610927 69.397873 43.5610927 75.6394603 52.8178103 76.4226349 52.8178103"></polygon>
                <polygon id="Fill-58" fill="#3F4553" mask="url(#mask-2)" points="68.2232698 43.5610927 67.4404127 43.5610927 73.6823175 52.8178103 74.4651746 52.8178103"></polygon>
                <polygon id="Fill-59" fill="#3F4553" mask="url(#mask-2)" points="66.2658095 43.5610927 65.4826349 43.5610927 71.7245397 52.8178103 72.5077143 52.8178103"></polygon>
                <polygon id="Fill-60" fill="#3F4553" mask="url(#mask-2)" points="64.3080317 43.5610927 63.5251746 43.5610927 69.7670794 52.8178103 70.550254 52.8178103"></polygon>
                <polygon id="Fill-61" fill="#3F4553" mask="url(#mask-2)" points="62.3505714 43.5610927 61.5673968 43.5610927 67.809619 52.8178103 68.5927937 52.8178103"></polygon>
                <polygon id="Fill-62" fill="#3F4553" mask="url(#mask-2)" points="60.3931111 43.5610927 59.610254 43.5610927 65.8521587 52.8178103 66.6350159 52.8178103"></polygon>
                <polygon id="Fill-63" fill="#3F4553" mask="url(#mask-2)" points="58.4356508 43.5610927 57.6524762 43.5610927 63.8946984 52.8178103 64.6775556 52.8178103"></polygon>
                <polygon id="Fill-64" fill="#3F4553" mask="url(#mask-2)" points="56.4781587 43.5610927 55.6949841 43.5610927 61.9368889 52.8178103 62.7200635 52.8178103"></polygon>
                <polygon id="Fill-65" fill="#3F4553" mask="url(#mask-2)" points="54.5206984 43.5610927 53.7375238 43.5610927 59.9794286 52.8178103 60.7626032 52.8178103"></polygon>
                <polygon id="Fill-66" fill="#3F4553" mask="url(#mask-2)" points="52.5629206 43.5610927 51.7800635 43.5610927 58.0219683 52.8178103 58.8048254 52.8178103"></polygon>
                <polygon id="Fill-67" fill="#3F4553" mask="url(#mask-2)" points="50.6054603 43.5610927 49.8226032 43.5610927 56.0645079 52.8178103 56.8476825 52.8178103"></polygon>
                <polygon id="Fill-68" fill="#3F4553" mask="url(#mask-2)" points="48.648 43.5610927 47.8651429 43.5610927 54.1070476 52.8178103 54.8899048 52.8178103"></polygon>
                <polygon id="Fill-69" fill="#3F4553" mask="url(#mask-2)" points="46.6902222 43.5610927 45.9073651 43.5610927 52.1492698 52.8178103 52.9324444 52.8178103"></polygon>
                <polygon id="Fill-70" fill="#3F4553" mask="url(#mask-2)" points="44.7330794 43.5610927 43.9499048 43.5610927 50.1918095 52.8178103 50.9749841 52.8178103"></polygon>
                <polygon id="Fill-71" fill="#3F4553" mask="url(#mask-2)" points="42.7753016 43.5610927 41.992127 43.5610927 48.2346667 52.8178103 49.0175238 52.8178103"></polygon>
                <polygon id="Fill-72" fill="#3F4553" mask="url(#mask-2)" points="40.8178413 43.5610927 40.0346667 43.5610927 46.2768889 52.8178103 47.059746 52.8178103"></polygon>
                <polygon id="Fill-73" fill="#3F4553" mask="url(#mask-2)" points="38.8606667 43.5610927 38.0771746 43.5610927 44.3193968 52.8178103 45.102254 52.8178103"></polygon>
                <polygon id="Fill-74" fill="#3F4553" mask="url(#mask-2)" points="36.9028889 43.5610927 36.1200317 43.5610927 42.3619365 52.8178103 43.1447937 52.8178103"></polygon>
                <polygon id="Fill-75" fill="#3F4553" mask="url(#mask-2)" points="34.9454286 43.5610927 34.162254 43.5610927 40.4041587 52.8178103 41.1873333 52.8178103"></polygon>
                <polygon id="Fill-76" fill="#E1E2E0" mask="url(#mask-2)" points="2.84190476 82.6832061 41.5568254 82.6832061 41.5568254 29.3034351 2.84190476 29.3034351"></polygon>
                <polygon id="Fill-77" fill="#4C5261" mask="url(#mask-2)" points="2.23269841 29.3034351 42.1663492 29.3034351 42.1663492 27.6516718 2.23269841 27.6516718"></polygon>
                <polygon id="Fill-78" fill="#B2514D" mask="url(#mask-2)" points="41.5568254 74.6955649 118.466032 74.6955649 118.466032 69.0525153 41.5568254 69.0525153"></polygon>
                <polygon id="Fill-79" fill="#AC6761" mask="url(#mask-2)" points="41.5568254 74.6955649 118.466032 74.6955649 118.466032 74.0014695 41.5568254 74.0014695"></polygon>
                <polygon id="Fill-80" fill="#AC6761" mask="url(#mask-2)" points="41.5571429 82.6832061 119.858413 82.6832061 119.858413 81.3228931 41.5571429 81.3228931"></polygon>
                <polygon id="Fill-81" fill="#AC6761" mask="url(#mask-2)" points="41.5568254 53.511874 118.466032 53.511874 118.466032 52.8177786 41.5568254 52.8177786"></polygon>
                <polygon id="Fill-82" fill="#37395A" mask="url(#mask-2)" points="43.1526984 67.5106794 47.6330159 67.5106794 47.6330159 64.6535153 43.1526984 64.6535153"></polygon>
                <polygon id="Fill-83" fill="#FFFFFF" mask="url(#mask-2)" points="43.1525714 64.6535786 43.1525714 65.3917084 46.8824127 65.3917084 46.8824127 67.5107427 47.6328889 67.5107427 47.6328889 64.6535786"></polygon>
                <polygon id="Fill-84" fill="#37395A" mask="url(#mask-2)" points="48.0247619 67.5106794 52.5047619 67.5106794 52.5047619 64.6535153 48.0247619 64.6535153"></polygon>
                <polygon id="Fill-85" fill="#FFFFFF" mask="url(#mask-2)" points="48.0245397 64.6535786 48.0245397 65.3917084 51.7546984 65.3917084 51.7546984 67.5107427 52.5045397 67.5107427 52.5045397 64.6535786"></polygon>
                <polygon id="Fill-86" fill="#37395A" mask="url(#mask-2)" points="59.1028571 67.5106794 63.5834921 67.5106794 63.5834921 64.6535153 59.1028571 64.6535153"></polygon>
                <polygon id="Fill-87" fill="#FFFFFF" mask="url(#mask-2)" points="59.1027937 64.6535786 59.1027937 65.3917084 62.8326349 65.3917084 62.8326349 67.5107427 63.5834286 67.5107427 63.5834286 64.6535786"></polygon>
                <polygon id="Fill-88" fill="#37395A" mask="url(#mask-2)" points="63.9749206 67.5106794 68.4555556 67.5106794 68.4555556 64.6535153 63.9749206 64.6535153"></polygon>
                <polygon id="Fill-89" fill="#FFFFFF" mask="url(#mask-2)" points="63.9747619 64.6535786 63.9747619 65.3917084 67.7049206 65.3917084 67.7049206 67.5107427 68.4553968 67.5107427 68.4553968 64.6535786"></polygon>
                <polygon id="Fill-90" fill="#37395A" mask="url(#mask-2)" points="75.0530159 67.5106794 79.5330159 67.5106794 79.5330159 64.6535153 75.0530159 64.6535153"></polygon>
                <polygon id="Fill-91" fill="#FFFFFF" mask="url(#mask-2)" points="75.0530159 64.6535786 75.0530159 65.3917084 78.7828571 65.3917084 78.7828571 67.5107427 79.5330159 67.5107427 79.5330159 64.6535786"></polygon>
                <polygon id="Fill-92" fill="#37395A" mask="url(#mask-2)" points="79.9250794 67.5106794 84.4053968 67.5106794 84.4053968 64.6535153 79.9250794 64.6535153"></polygon>
                <polygon id="Fill-93" fill="#FFFFFF" mask="url(#mask-2)" points="79.9249841 64.6535786 79.9249841 65.3917084 83.6551429 65.3917084 83.6551429 67.5107427 84.4053016 67.5107427 84.4053016 64.6535786"></polygon>
                <polygon id="Fill-94" fill="#37395A" mask="url(#mask-2)" points="91.0028571 67.5106794 95.4831746 67.5106794 95.4831746 64.6535153 91.0028571 64.6535153"></polygon>
                <polygon id="Fill-95" fill="#FFFFFF" mask="url(#mask-2)" points="91.0029206 64.6535786 91.0029206 65.3917084 94.7327619 65.3917084 94.7327619 67.5107427 95.4832381 67.5107427 95.4832381 64.6535786"></polygon>
                <polygon id="Fill-96" fill="#37395A" mask="url(#mask-2)" points="95.8749206 67.5106794 100.355873 67.5106794 100.355873 64.6535153 95.8749206 64.6535153"></polygon>
                <polygon id="Fill-97" fill="#FFFFFF" mask="url(#mask-2)" points="95.8748889 64.6535786 95.8748889 65.3917084 99.6053651 65.3917084 99.6053651 67.5107427 100.355841 67.5107427 100.355841 64.6535786"></polygon>
                <polygon id="Fill-98" fill="#37395A" mask="url(#mask-2)" points="106.953333 67.5106794 111.433968 67.5106794 111.433968 64.6535153 106.953333 64.6535153"></polygon>
                <polygon id="Fill-99" fill="#FFFFFF" mask="url(#mask-2)" points="106.953111 64.6535786 106.953111 65.3917084 110.68327 65.3917084 110.68327 67.5107427 111.433746 67.5107427 111.433746 64.6535786"></polygon>
                <polygon id="Fill-100" fill="#37395A" mask="url(#mask-2)" points="111.825079 67.5106794 116.305397 67.5106794 116.305397 64.6535153 111.825079 64.6535153"></polygon>
                <polygon id="Fill-101" fill="#FFFFFF" mask="url(#mask-2)" points="111.825079 64.6535786 111.825079 65.3917084 115.554921 65.3917084 115.554921 67.5107427 116.305397 67.5107427 116.305397 64.6535786"></polygon>
                <polygon id="Fill-102" fill="#BBBDBF" mask="url(#mask-2)" points="48.6479365 43.5610611 51.6495238 43.5610611 51.6495238 42.3128931 48.6479365 42.3128931"></polygon>
                <path d="M51.7853968,40.8034019 L48.5120635,40.8034019 C48.0946032,40.8034019 47.7561905,41.141421 47.7561905,41.558005 C47.7561905,41.9749057 48.0946032,42.3129248 48.5120635,42.3129248 L51.7853968,42.3129248 C52.2028571,42.3129248 52.5412698,41.9749057 52.5412698,41.558005 C52.5412698,41.141421 52.2028571,40.8034019 51.7853968,40.8034019" id="Fill-103" fill="#D0D2D3" mask="url(#mask-2)"></path>
                <path d="M51.7853968,40.8034019 L48.5120635,40.8034019 C48.0946032,40.8034019 47.7561905,41.141421 47.7561905,41.558005 L52.5412698,41.558005 C52.5412698,41.141421 52.2028571,40.8034019 51.7853968,40.8034019" id="Fill-104" fill="#E6E7E8" mask="url(#mask-2)"></path>
                <path d="M51.9813333,41.1307134 L51.9813333,41.9854233 C52.143873,41.9109767 52.2568889,41.7478279 52.2568889,41.5580683 C52.2568889,41.3683088 52.143873,41.2048431 51.9813333,41.1307134" id="Fill-105" fill="#37395A" mask="url(#mask-2)"></path>
                <path d="M51.3507619,41.1307134 L51.3507619,41.9854233 C51.5133016,41.9109767 51.626,41.7478279 51.626,41.5580683 C51.626,41.3683088 51.5133016,41.2048431 51.3507619,41.1307134" id="Fill-106" fill="#37395A" mask="url(#mask-2)"></path>
                <path d="M50.7195556,41.1307134 L50.7195556,41.9854233 C50.8824127,41.9109767 50.9951111,41.7478279 50.9951111,41.5580683 C50.9951111,41.3683088 50.8824127,41.2048431 50.7195556,41.1307134" id="Fill-107" fill="#37395A" mask="url(#mask-2)"></path>
                <path d="M50.0889841,41.1307134 L50.0889841,41.9854233 C50.2515238,41.9109767 50.3642222,41.7478279 50.3642222,41.5580683 C50.3642222,41.3683088 50.2515238,41.2048431 50.0889841,41.1307134" id="Fill-108" fill="#37395A" mask="url(#mask-2)"></path>
                <path d="M49.458381,41.1307134 L49.458381,41.9854233 C49.6206032,41.9109767 49.733619,41.7478279 49.733619,41.5580683 C49.733619,41.3683088 49.6206032,41.2048431 49.458381,41.1307134" id="Fill-109" fill="#37395A" mask="url(#mask-2)"></path>
                <path d="M48.8274921,41.1307134 L48.8274921,41.9854233 C48.9903492,41.9109767 49.1027302,41.7478279 49.1027302,41.5580683 C49.1027302,41.3683088 48.9903492,41.2048431 48.8274921,41.1307134" id="Fill-110" fill="#37395A" mask="url(#mask-2)"></path>
                <path d="M48.1969206,41.1307134 L48.1969206,41.9854233 C48.3591429,41.9109767 48.4721587,41.7478279 48.4721587,41.5580683 C48.4721587,41.3683088 48.3591429,41.2048431 48.1969206,41.1307134" id="Fill-111" fill="#37395A" mask="url(#mask-2)"></path>
                <polygon id="Fill-112" fill="#AC6761" mask="url(#mask-2)" points="48.6479365 42.6316233 51.6495238 42.6316233 51.6495238 42.3128931 48.6479365 42.3128931"></polygon>
                <polygon id="Fill-113" fill="#BBBDBF" mask="url(#mask-2)" points="61.5022222 43.5610611 64.5038095 43.5610611 64.5038095 42.3128931 61.5022222 42.3128931"></polygon>
                <path d="M64.639746,40.8034019 L61.3670476,40.8034019 C60.9492698,40.8034019 60.6108571,41.141421 60.6108571,41.558005 C60.6108571,41.9749057 60.9492698,42.3129248 61.3670476,42.3129248 L64.639746,42.3129248 C65.0572063,42.3129248 65.3959365,41.9749057 65.3959365,41.558005 C65.3959365,41.141421 65.0572063,40.8034019 64.639746,40.8034019" id="Fill-114" fill="#D0D2D3" mask="url(#mask-2)"></path>
                <path d="M64.639746,40.8034019 L61.3670476,40.8034019 C60.9492698,40.8034019 60.6108571,41.141421 60.6108571,41.558005 L65.3959365,41.558005 C65.3959365,41.141421 65.0572063,40.8034019 64.639746,40.8034019" id="Fill-115" fill="#E6E7E8" mask="url(#mask-2)"></path>
                <path d="M64.8356825,41.1307134 L64.8356825,41.9854233 C64.9982222,41.9109767 65.1109206,41.7478279 65.1109206,41.5580683 C65.1109206,41.3683088 64.9982222,41.2048431 64.8356825,41.1307134" id="Fill-116" fill="#37395A" mask="url(#mask-2)"></path>
                <path d="M64.2047937,41.1307134 L64.2047937,41.9854233 C64.3673333,41.9109767 64.4803492,41.7478279 64.4803492,41.5580683 C64.4803492,41.3683088 64.3673333,41.2048431 64.2047937,41.1307134" id="Fill-117" fill="#37395A" mask="url(#mask-2)"></path>
                <path d="M63.5742222,41.1307134 L63.5742222,41.9854233 C63.7367619,41.9109767 63.8497778,41.7478279 63.8497778,41.5580683 C63.8497778,41.3683088 63.7367619,41.2048431 63.5742222,41.1307134" id="Fill-118" fill="#37395A" mask="url(#mask-2)"></path>
                <path d="M62.9433333,41.1307134 L62.9433333,41.9854233 C63.1061905,41.9109767 63.2188889,41.7478279 63.2188889,41.5580683 C63.2188889,41.3683088 63.1061905,41.2048431 62.9433333,41.1307134" id="Fill-119" fill="#37395A" mask="url(#mask-2)"></path>
                <path d="M62.3130476,41.1307134 L62.3130476,41.9854233 C62.4749524,41.9109767 62.5882857,41.7478279 62.5882857,41.5580683 C62.5882857,41.3683088 62.4749524,41.2048431 62.3130476,41.1307134" id="Fill-120" fill="#37395A" mask="url(#mask-2)"></path>
                <path d="M61.6815556,41.1307134 L61.6815556,41.9854233 C61.8447302,41.9109767 61.9571111,41.7478279 61.9571111,41.5580683 C61.9571111,41.3683088 61.8447302,41.2048431 61.6815556,41.1307134" id="Fill-121" fill="#37395A" mask="url(#mask-2)"></path>
                <path d="M61.0509524,41.1307134 L61.0509524,41.9854233 C61.2134921,41.9109767 61.3268254,41.7478279 61.3268254,41.5580683 C61.3268254,41.3683088 61.2134921,41.2048431 61.0509524,41.1307134" id="Fill-122" fill="#37395A" mask="url(#mask-2)"></path>
                <polygon id="Fill-123" fill="#AC6761" mask="url(#mask-2)" points="61.5022222 42.6316233 64.5038095 42.6316233 64.5038095 42.3128931 61.5022222 42.3128931"></polygon>
                <polygon id="Fill-124" fill="#BBBDBF" mask="url(#mask-2)" points="74.3568254 43.5610611 77.3584127 43.5610611 77.3584127 42.3128931 74.3568254 42.3128931"></polygon>
                <path d="M77.4940952,40.8034019 L74.2207619,40.8034019 C73.8033016,40.8034019 73.4652063,41.141421 73.4652063,41.558005 C73.4652063,41.9749057 73.8033016,42.3129248 74.2207619,42.3129248 L77.4940952,42.3129248 C77.9112381,42.3129248 78.2502857,41.9749057 78.2502857,41.558005 C78.2502857,41.141421 77.9112381,40.8034019 77.4940952,40.8034019" id="Fill-125" fill="#D0D2D3" mask="url(#mask-2)"></path>
                <path d="M77.4940952,40.8034019 L74.2207619,40.8034019 C73.8033016,40.8034019 73.4652063,41.141421 73.4652063,41.558005 L78.2502857,41.558005 C78.2502857,41.141421 77.9112381,40.8034019 77.4940952,40.8034019" id="Fill-126" fill="#E6E7E8" mask="url(#mask-2)"></path>
                <path d="M77.6900317,41.1307134 L77.6900317,41.9854233 C77.8525714,41.9109767 77.9655873,41.7478279 77.9655873,41.5580683 C77.9655873,41.3683088 77.8525714,41.2048431 77.6900317,41.1307134" id="Fill-127" fill="#37395A" mask="url(#mask-2)"></path>
                <path d="M77.0591429,41.1307134 L77.0591429,41.9854233 C77.2216825,41.9109767 77.3346984,41.7478279 77.3346984,41.5580683 C77.3346984,41.3683088 77.2216825,41.2048431 77.0591429,41.1307134" id="Fill-128" fill="#37395A" mask="url(#mask-2)"></path>
                <path d="M76.4285714,41.1307134 L76.4285714,41.9854233 C76.5911111,41.9109767 76.704127,41.7478279 76.704127,41.5580683 C76.704127,41.3683088 76.5911111,41.2048431 76.4285714,41.1307134" id="Fill-129" fill="#37395A" mask="url(#mask-2)"></path>
                <path d="M75.798,41.1307134 L75.798,41.9854233 C75.9605397,41.9109767 76.0732381,41.7478279 76.0732381,41.5580683 C76.0732381,41.3683088 75.9605397,41.2048431 75.798,41.1307134" id="Fill-130" fill="#37395A" mask="url(#mask-2)"></path>
                <path d="M75.1667937,41.1307134 L75.1667937,41.9854233 C75.3293333,41.9109767 75.4426667,41.7478279 75.4426667,41.5580683 C75.4426667,41.3683088 75.3293333,41.2048431 75.1667937,41.1307134" id="Fill-131" fill="#37395A" mask="url(#mask-2)"></path>
                <path d="M74.5361905,41.1307134 L74.5361905,41.9854233 C74.6987302,41.9109767 74.811746,41.7478279 74.811746,41.5580683 C74.811746,41.3683088 74.6987302,41.2048431 74.5361905,41.1307134" id="Fill-132" fill="#37395A" mask="url(#mask-2)"></path>
                <path d="M73.905619,41.1307134 L73.905619,41.9854233 C74.0681587,41.9109767 74.1808571,41.7478279 74.1808571,41.5580683 C74.1808571,41.3683088 74.0681587,41.2048431 73.905619,41.1307134" id="Fill-133" fill="#37395A" mask="url(#mask-2)"></path>
                <polygon id="Fill-134" fill="#AC6761" mask="url(#mask-2)" points="74.3568254 42.6316233 77.3584127 42.6316233 77.3584127 42.3128931 74.3568254 42.3128931"></polygon>
                <polygon id="Fill-135" fill="#BBBDBF" mask="url(#mask-2)" points="87.2114286 43.5610611 90.2126984 43.5610611 90.2126984 42.3128931 87.2114286 42.3128931"></polygon>
                <path d="M90.3484762,40.8034019 L87.0754603,40.8034019 C86.658,40.8034019 86.3195873,41.141421 86.3195873,41.558005 C86.3195873,41.9749057 86.658,42.3129248 87.0754603,42.3129248 L90.3484762,42.3129248 C90.7659365,42.3129248 91.1046667,41.9749057 91.1046667,41.558005 C91.1046667,41.141421 90.7659365,40.8034019 90.3484762,40.8034019" id="Fill-136" fill="#D0D2D3" mask="url(#mask-2)"></path>
                <path d="M90.3484762,40.8034019 L87.0754603,40.8034019 C86.658,40.8034019 86.3195873,41.141421 86.3195873,41.558005 L91.1046667,41.558005 C91.1046667,41.141421 90.7659365,40.8034019 90.3484762,40.8034019" id="Fill-137" fill="#E6E7E8" mask="url(#mask-2)"></path>
                <path d="M90.5446984,41.1307134 L90.5446984,41.9854233 C90.7069206,41.9109767 90.8199365,41.7478279 90.8199365,41.5580683 C90.8199365,41.3683088 90.7069206,41.2048431 90.5446984,41.1307134" id="Fill-138" fill="#37395A" mask="url(#mask-2)"></path>
                <path d="M89.9138095,41.1307134 L89.9138095,41.9854233 C90.0763492,41.9109767 90.1890476,41.7478279 90.1890476,41.5580683 C90.1890476,41.3683088 90.0763492,41.2048431 89.9138095,41.1307134" id="Fill-139" fill="#37395A" mask="url(#mask-2)"></path>
                <path d="M89.2826032,41.1307134 L89.2826032,41.9854233 C89.4451429,41.9109767 89.5581587,41.7478279 89.5581587,41.5580683 C89.5581587,41.3683088 89.4451429,41.2048431 89.2826032,41.1307134" id="Fill-140" fill="#37395A" mask="url(#mask-2)"></path>
                <path d="M88.6520317,41.1307134 L88.6520317,41.9854233 C88.8148889,41.9109767 88.9275873,41.7478279 88.9275873,41.5580683 C88.9275873,41.3683088 88.8148889,41.2048431 88.6520317,41.1307134" id="Fill-141" fill="#37395A" mask="url(#mask-2)"></path>
                <path d="M88.0214603,41.1307134 L88.0214603,41.9854233 C88.184,41.9109767 88.2966984,41.7478279 88.2966984,41.5580683 C88.2966984,41.3683088 88.184,41.2048431 88.0214603,41.1307134" id="Fill-142" fill="#37395A" mask="url(#mask-2)"></path>
                <path d="M87.3905714,41.1307134 L87.3905714,41.9854233 C87.5534286,41.9109767 87.666127,41.7478279 87.666127,41.5580683 C87.666127,41.3683088 87.5534286,41.2048431 87.3905714,41.1307134" id="Fill-143" fill="#37395A" mask="url(#mask-2)"></path>
                <path d="M86.7596825,41.1307134 L86.7596825,41.9854233 C86.9222222,41.9109767 87.0352381,41.7478279 87.0352381,41.5580683 C87.0352381,41.3683088 86.9222222,41.2048431 86.7596825,41.1307134" id="Fill-144" fill="#37395A" mask="url(#mask-2)"></path>
                <polygon id="Fill-145" fill="#AC6761" mask="url(#mask-2)" points="87.2114286 42.6316233 90.2126984 42.6316233 90.2126984 42.3128931 87.2114286 42.3128931"></polygon>
                <polygon id="Fill-146" fill="#BBBDBF" mask="url(#mask-2)" points="100.065397 43.5610611 103.067302 43.5610611 103.067302 42.3128931 100.065397 42.3128931"></polygon>
                <path d="M103.202508,40.8034019 L99.9298095,40.8034019 C99.5126667,40.8034019 99.174254,41.141421 99.174254,41.558005 C99.174254,41.9749057 99.5126667,42.3129248 99.9298095,42.3129248 L103.202508,42.3129248 C103.620286,42.3129248 103.959333,41.9749057 103.959333,41.558005 C103.959333,41.141421 103.620286,40.8034019 103.202508,40.8034019" id="Fill-147" fill="#D0D2D3" mask="url(#mask-2)"></path>
                <path d="M103.202508,40.8034019 L99.9298095,40.8034019 C99.5126667,40.8034019 99.174254,41.141421 99.174254,41.558005 L103.959333,41.558005 C103.959333,41.141421 103.620286,40.8034019 103.202508,40.8034019" id="Fill-148" fill="#E6E7E8" mask="url(#mask-2)"></path>
                <path d="M103.398762,41.1307134 L103.398762,41.9854233 C103.561302,41.9109767 103.674317,41.7478279 103.674317,41.5580683 C103.674317,41.3683088 103.561302,41.2048431 103.398762,41.1307134" id="Fill-149" fill="#37395A" mask="url(#mask-2)"></path>
                <path d="M102.768159,41.1307134 L102.768159,41.9854233 C102.930381,41.9109767 103.043714,41.7478279 103.043714,41.5580683 C103.043714,41.3683088 102.930381,41.2048431 102.768159,41.1307134" id="Fill-150" fill="#37395A" mask="url(#mask-2)"></path>
                <path d="M102.137587,41.1307134 L102.137587,41.9854233 C102.29981,41.9109767 102.413143,41.7478279 102.413143,41.5580683 C102.413143,41.3683088 102.29981,41.2048431 102.137587,41.1307134" id="Fill-151" fill="#37395A" mask="url(#mask-2)"></path>
                <path d="M101.506698,41.1307134 L101.506698,41.9854233 C101.668921,41.9109767 101.782254,41.7478279 101.782254,41.5580683 C101.782254,41.3683088 101.668921,41.2048431 101.506698,41.1307134" id="Fill-152" fill="#37395A" mask="url(#mask-2)"></path>
                <path d="M100.87581,41.1307134 L100.87581,41.9854233 C101.038349,41.9109767 101.15073,41.7478279 101.15073,41.5580683 C101.15073,41.3683088 101.038349,41.2048431 100.87581,41.1307134" id="Fill-153" fill="#37395A" mask="url(#mask-2)"></path>
                <path d="M100.245238,41.1307134 L100.245238,41.9854233 C100.40746,41.9109767 100.520476,41.7478279 100.520476,41.5580683 C100.520476,41.3683088 100.40746,41.2048431 100.245238,41.1307134" id="Fill-154" fill="#37395A" mask="url(#mask-2)"></path>
                <path d="M99.6140317,41.1307134 L99.6140317,41.9854233 C99.7768889,41.9109767 99.8902222,41.7478279 99.8902222,41.5580683 C99.8902222,41.3683088 99.7768889,41.2048431 99.6140317,41.1307134" id="Fill-155" fill="#37395A" mask="url(#mask-2)"></path>
                <polygon id="Fill-156" fill="#AC6761" mask="url(#mask-2)" points="100.065397 42.6316233 103.067302 42.6316233 103.067302 42.3128931 100.065397 42.3128931"></polygon>
                <polygon id="Fill-157" fill="#37395A" mask="url(#mask-2)" points="8.48253968 39.3499198 12.528254 39.3499198 12.528254 35.3126985 8.48253968 35.3126985"></polygon>
                <polygon id="Fill-158" fill="#FFFFFF" mask="url(#mask-2)" points="8.48244444 35.3126985 8.48244444 36.1284427 11.6900635 36.1284427 11.6900635 39.3499198 12.5281587 39.3499198 12.5281587 35.3126985"></polygon>
                <polygon id="Fill-159" fill="#37395A" mask="url(#mask-2)" points="20.0679365 39.3499198 24.1136508 39.3499198 24.1136508 35.3126985 20.0679365 35.3126985"></polygon>
                <polygon id="Fill-160" fill="#FFFFFF" mask="url(#mask-2)" points="20.0679048 35.3126985 20.0679048 36.1284427 23.2758413 36.1284427 23.2758413 39.3499198 24.113619 39.3499198 24.113619 35.3126985"></polygon>
                <polygon id="Fill-161" fill="#37395A" mask="url(#mask-2)" points="8.48253968 52.1173473 12.528254 52.1173473 12.528254 48.0804427 8.48253968 48.0804427"></polygon>
                <polygon id="Fill-162" fill="#FFFFFF" mask="url(#mask-2)" points="8.48244444 48.0803794 8.48244444 48.8958069 11.6900635 48.8958069 11.6900635 52.117284 12.5281587 52.117284 12.5281587 48.0803794"></polygon>
                <polygon id="Fill-163" fill="#37395A" mask="url(#mask-2)" points="20.0679365 52.1173473 24.1136508 52.1173473 24.1136508 48.0804427 20.0679365 48.0804427"></polygon>
                <polygon id="Fill-164" fill="#FFFFFF" mask="url(#mask-2)" points="20.0679048 48.0803794 20.0679048 48.8958069 23.2758413 48.8958069 23.2758413 52.117284 24.113619 52.117284 24.113619 48.0803794"></polygon>
                <polygon id="Fill-165" fill="#37395A" mask="url(#mask-2)" points="32.224127 39.3499198 36.2698413 39.3499198 36.2698413 35.3126985 32.224127 35.3126985"></polygon>
                <polygon id="Fill-166" fill="#FFFFFF" mask="url(#mask-2)" points="32.2240952 35.3126985 32.2240952 36.1284427 35.4317143 36.1284427 35.4317143 39.3499198 36.2698095 39.3499198 36.2698095 35.3126985"></polygon>
                <polygon id="Fill-167" fill="#37395A" mask="url(#mask-2)" points="32.224127 52.1173473 36.2698413 52.1173473 36.2698413 48.0804427 32.224127 48.0804427"></polygon>
                <polygon id="Fill-168" fill="#FFFFFF" mask="url(#mask-2)" points="32.2240952 48.0803794 32.2240952 48.8958069 35.4317143 48.8958069 35.4317143 52.117284 36.2698095 52.117284 36.2698095 48.0803794"></polygon>
                <polygon id="Fill-169" fill="#8AAAB1" mask="url(#mask-2)" points="16.0371429 82.6832061 38.6571429 82.6832061 38.6571429 69.0525153 16.0371429 69.0525153"></polygon>
                <polygon id="Fill-170" fill="#996059" mask="url(#mask-2)" points="0 82.6832061 13.2822222 82.6832061 13.2822222 72.9015611 0 72.9015611"></polygon>
                <polygon id="Fill-171" fill="#83524B" mask="url(#mask-2)" points="0.522222222 82.2200534 5.39428571 82.2200534 5.39428571 73.3643969 0.522222222 73.3643969"></polygon>
                <polygon id="Fill-172" fill="#83524B" mask="url(#mask-2)" points="5.85809524 82.2200534 10.7301587 82.2200534 10.7301587 73.3643969 5.85809524 73.3643969"></polygon>
                <polygon id="Fill-173" fill="#AC6761" mask="url(#mask-2)" points="2.84190476 29.8977405 41.5568254 29.8977405 41.5568254 29.3034351 2.84190476 29.3034351"></polygon>
                <polygon id="Fill-174" fill="#748F96" mask="url(#mask-2)" points="16.0371429 69.458547 38.6571429 69.458547 38.6571429 69.0525153 16.0371429 69.0525153"></polygon>
                <polygon id="Fill-175" fill="#748F96" mask="url(#mask-2)" points="16.0371429 70.3843836 38.6571429 70.3843836 38.6571429 70.0507328 16.0371429 70.0507328"></polygon>
                <polygon id="Fill-176" fill="#748F96" mask="url(#mask-2)" points="16.0371429 71.382918 38.6571429 71.382918 38.6571429 71.0492672 16.0371429 71.0492672"></polygon>
                <polygon id="Fill-177" fill="#748F96" mask="url(#mask-2)" points="16.0371429 72.3814517 38.6571429 72.3814517 38.6571429 72.0481183 16.0371429 72.0481183"></polygon>
                <polygon id="Fill-178" fill="#748F96" mask="url(#mask-2)" points="16.0371429 73.3796692 38.6571429 73.3796692 38.6571429 73.0463359 16.0371429 73.0463359"></polygon>
                <polygon id="Fill-179" fill="#748F96" mask="url(#mask-2)" points="16.0371429 74.378521 38.6571429 74.378521 38.6571429 74.0448702 16.0371429 74.0448702"></polygon>
                <polygon id="Fill-180" fill="#748F96" mask="url(#mask-2)" points="16.0371429 75.3764211 38.6571429 75.3764211 38.6571429 75.0430878 16.0371429 75.0430878"></polygon>
                <polygon id="Fill-181" fill="#748F96" mask="url(#mask-2)" points="16.0371429 76.3749561 38.6571429 76.3749561 38.6571429 76.0413053 16.0371429 76.0413053"></polygon>
                <polygon id="Fill-182" fill="#748F96" mask="url(#mask-2)" points="16.0371429 77.3734898 38.6571429 77.3734898 38.6571429 77.0401565 16.0371429 77.0401565"></polygon>
                <polygon id="Fill-183" fill="#748F96" mask="url(#mask-2)" points="16.0371429 78.3717074 38.6571429 78.3717074 38.6571429 78.038374 16.0371429 78.038374"></polygon>
                <polygon id="Fill-184" fill="#748F96" mask="url(#mask-2)" points="16.0371429 79.3702417 38.6571429 79.3702417 38.6571429 79.0369084 16.0371429 79.0369084"></polygon>
                <polygon id="Fill-185" fill="#748F96" mask="url(#mask-2)" points="16.0371429 80.3687767 38.6571429 80.3687767 38.6571429 80.035126 16.0371429 80.035126"></polygon>
                <polygon id="Fill-186" fill="#748F96" mask="url(#mask-2)" points="16.0371429 81.3669943 38.6571429 81.3669943 38.6571429 81.0333435 16.0371429 81.0333435"></polygon>
                <polygon id="Fill-187" fill="#748F96" mask="url(#mask-2)" points="26.4625397 82.2574737 28.231746 82.2574737 28.231746 81.7863626 26.4625397 81.7863626"></polygon>
                <polygon id="Fill-188" fill="#748F96" mask="url(#mask-2)" points="16.0371429 82.6832061 16.472381 82.6832061 16.472381 69.0525153 16.0371429 69.0525153"></polygon>
                <polygon id="Fill-189" fill="#AC6761" mask="url(#mask-2)" points="13.2822222 82.6832061 16.0371429 82.6832061 16.0371429 81.0333435 13.2822222 81.0333435"></polygon>
                <polygon id="Fill-190" fill="#AC6761" mask="url(#mask-2)" points="38.6568254 82.6832061 41.5568254 82.6832061 41.5568254 81.0333435 38.6568254 81.0333435"></polygon>
                <polygon id="Fill-191" fill="#B2514D" mask="url(#mask-2)" points="2.95777778 60.9603321 41.5568254 60.9603321 41.5568254 56.7285992 2.95777778 56.7285992"></polygon>
            </g>
        </g>
    </g>
</svg>