<?xml version="1.0" encoding="UTF-8"?>
<svg width="480px" height="360px" viewBox="0 0 480 360" version="1.1" xmlns="http://www.w3.org/2000/svg" xmlns:xlink="http://www.w3.org/1999/xlink">
    <!-- Generator: Sketch 51.1 (57501) - http://www.bohemiancoding.com/sketch -->
    <title>Lake2</title>
    <desc>Created with Sketch.</desc>
    <defs>
        <polygon id="path-1" points="0.518112012 0 481.848985 0 481.848985 481.331475 0.518112012 481.331475"></polygon>
        <linearGradient x1="-7.10812886e-06%" y1="50.0000122%" x2="99.9999818%" y2="50.0000122%" id="linearGradient-3">
            <stop stop-color="#FFFFFF" offset="0%"></stop>
            <stop stop-color="#FFFFFF" offset="100%"></stop>
        </linearGradient>
        <path d="M0,64.4570418 L846.852733,0.0656409885 C846.852733,64.4907657 787.402041,116.7157 714.067107,116.7157 C667.597583,116.7157 626.710755,95.7412961 602.985349,63.9867151 C594.15736,68.6484297 584.056886,71.2987599 573.323477,71.2987599 C554.474431,71.2987599 537.585557,63.126758 526.10851,50.2165606 C514.518955,56.9185658 497.926092,61.1189868 479.488574,61.1189868 C457.583756,61.1189868 438.284076,55.1914249 426.891862,46.1817476 C417.03325,102.053069 362.044383,144.819076 295.682555,144.819076 C249.213632,144.819076 208.326805,123.84407 184.600797,92.0894891 C175.772808,96.7512037 165.672334,99.4015339 154.938925,99.4015339 C136.089879,99.4015339 119.201005,91.229532 107.72456,78.3193346 C96.1344033,85.0213398 79.5415397,89.2217608 61.1046235,89.2217608" id="path-4"></path>
        <linearGradient x1="0%" y1="49.9999772%" x2="99.9999795%" y2="49.9999772%" id="linearGradient-6">
            <stop stop-color="#FFFFFF" offset="0%"></stop>
            <stop stop-color="#FFFFFF" offset="100%"></stop>
        </linearGradient>
        <path d="M0.512969356,79.3129002 C0.512969356,122.752851 40.4470932,157.967958 89.7077687,157.967958 C120.921413,157.967958 148.386297,143.825546 164.323787,122.41367 C170.253568,125.556831 177.038099,127.343869 184.2473,127.343869 C196.908754,127.343869 208.253545,121.833682 215.961901,113.128431 C223.747142,117.647026 234.893714,120.479974 247.27886,120.479974 C266.848581,120.479974 283.325469,113.410881 288.322416,103.781632 C291.97567,106.353858 298.483293,108.06787 305.906332,108.06787 C317.338221,108.06787 326.605907,104.006144 326.605907,98.9962791 C326.605907,93.9864144 317.338221,89.9252916 305.906332,89.9252916 C299.052725,89.9252916 293.319362,95.1693243 289.213204,93.6339555 C278.706343,89.7056084 280.153349,75.0381294 247.27886,74.8371555 C244.097129,74.8178426 240.900381,75.8715981 237.840585,76.925957 C233.246686,78.5090043 228.962731,80.091448 225.507095,78.0418756 C208.883044,68.1820804 219.686635,50.0926121 184.2473,44.6608831 C181.851842,44.2945431 178.320522,44.6620901 174.454631,45.0296371 C170.897483,45.3682149 167.057421,45.7067927 163.559138,45.4720213 C139.816586,43.8811282 158.819277,27.1586451 133.99132,18.7092889 C119.014297,13.6125165 121.427175,3.01762724 89.7077687,0.657842737 C87.5549793,0.497304969 85.4190085,0.41884666 83.3034604,0.41884666 C37.1464297,0.41884666 0.512969356,37.7764683 0.512969356,79.3129002" id="path-7"></path>
        <linearGradient x1="9.06637686e-05%" y1="50.0001002%" x2="99.9998676%" y2="50.0001002%" id="linearGradient-9">
            <stop stop-color="#FFFFFF" offset="0%"></stop>
            <stop stop-color="#FFFFFF" offset="100%"></stop>
        </linearGradient>
        <polygon id="path-10" points="0.51648727 0.0724613858 481.849166 0.0724613858 481.849166 135.413719 0.51648727 135.413719"></polygon>
        <path d="M46.378547,1.20367751 C46.378547,1.86810749 36.0512086,2.40735501 23.3108282,2.40735501 C10.5710496,2.40735501 0.243711225,1.86810749 0.243711225,1.20367751 C0.243711225,0.539247522 10.5710496,0 23.3108282,0" id="path-12"></path>
        <linearGradient x1="0.000356607145%" y1="50%" x2="100.000356%" y2="50%" id="linearGradient-14">
            <stop stop-color="#FFFFFF" offset="0%"></stop>
            <stop stop-color="#FFFFFF" offset="100%"></stop>
        </linearGradient>
        <path d="M46.4573771,2.40976237 C46.4573771,3.57311667 36.1300387,4.516198 23.3896583,4.516198 C10.6498797,4.516198 0.322541276,3.57311667 0.322541276,2.40976237 C0.322541276,1.24640806 10.6498797,0.303326731 23.3896583,0.303326731" id="path-15"></path>
        <linearGradient x1="0.00025278151%" y1="49.99866%" x2="100.000123%" y2="49.99866%" id="linearGradient-17">
            <stop stop-color="#FFFFFF" offset="0%"></stop>
            <stop stop-color="#FFFFFF" offset="100%"></stop>
        </linearGradient>
        <path d="M46.3978032,1.20608486 C46.3978032,1.87051484 36.0704648,2.40976237 23.3306862,2.40976237 C10.5909076,2.40976237 0.263569177,1.87051484 0.263569177,1.20608486 C0.263569177,0.541053039 10.5909076,0.00240735501 23.3306862,0.00240735501" id="path-18"></path>
        <linearGradient x1="-0.000652179584%" y1="49.997655%" x2="100.000652%" y2="49.997655%" id="linearGradient-20">
            <stop stop-color="#FFFFFF" offset="0%"></stop>
            <stop stop-color="#FFFFFF" offset="100%"></stop>
        </linearGradient>
    </defs>
    <g id="Lake2" stroke="none" stroke-width="1" fill="none" fill-rule="evenodd">
        <g id="Group" transform="translate(-229.000000, -122.000000)">
            <g id="Group-3" transform="translate(228.000000, 0.000000)">
                <mask id="mask-2" fill="white">
                    <use xlink:href="#path-1"></use>
                </mask>
                <g id="Clip-2"></g>
                <polygon id="Fill-1" fill="#9EE2DD" mask="url(#mask-2)" points="0.518112012 481.331475 481.848985 481.331475 481.848985 121 0.518112012 121"></polygon>
            </g>
            <g id="Group-14" transform="translate(0.000000, 169.000000)">
                <path d="M406.603312,87.1476862 C406.603312,103.780149 393.133004,117.263049 376.516676,117.263049 C359.900348,117.263049 346.429439,103.780149 346.429439,87.1476862 C346.429439,70.5158255 359.900348,57.0329256 376.516676,57.0329256 C393.133004,57.0329256 406.603312,70.5158255 406.603312,87.1476862" id="Fill-4" fill="#FFFBB5"></path>
                <path d="M376.516496,108.229765 C364.902875,108.229765 355.454587,98.7726451 355.454587,87.1475658 C355.454587,75.5230887 364.902875,66.0659687 376.516496,66.0659687 C388.130116,66.0659687 397.578404,75.5230887 397.578404,87.1475658 C397.578404,98.7726451 388.130116,108.229765 376.516496,108.229765" id="Fill-6" fill="#FFEE8F"></path>
                <g id="Group-10" fill="url(#linearGradient-3)">
                    <path d="M831.235863,213.122024 C831.235863,148.698104 787.20109,16.5047942 714.067107,21.9246924 C666.846124,25.4247421 670.436762,41.1370268 648.140271,48.6959781 C611.178598,61.2267826 628.482008,87.9775931 593.134558,90.3364532 C582.265778,91.0621173 589.169093,90.3460886 573.323477,87.1838791 C520.98427,76.7391332 502.153876,107.643392 489.515648,133.478842 C479.843547,153.251233 458.900163,122.851024 431.36572,135.69799 C365.664502,166.352331 425.744518,75.5280871 325.669919,79.8935139 C298.059668,81.0979357 325.52071,18.0663271 245.515901,1.20442181 C207.329271,-6.84412692 217.489309,37.3870595 182.141859,39.7459196 C171.273681,40.4715838 161.786286,114.241215 154.938925,115.286653 C102.179767,123.341826 124.25064,137.636506 99.5012282,152.258789 C90.9301439,157.323383 81.6539275,156.242414 70.1401805,153.463211 C26.9021104,143.02509 16.0706327,171.324787 0.429577019,177.150575 L593.134558,177.150575 C638.566406,181.866897 672.318428,185.89235 694.390625,189.226935 C725.229829,193.886005 770.844909,201.851035 831.235863,213.122024 Z" id="Fill-8"></path>
                </g>
                <g id="Group-13" transform="translate(0.000000, 138.508508)">
                    <mask id="mask-5" fill="white">
                        <use xlink:href="#path-4"></use>
                    </mask>
                    <g id="Clip-12"></g>
                    <path d="M0,64.4570418 C7.43998517,78.7378712 31.9697956,89.2217608 61.1046235,89.2217608 C79.5415397,89.2217608 96.1344033,85.0213398 107.72456,78.3193346 C119.201005,91.229532 136.089879,99.4015339 154.938925,99.4015339 C165.672334,99.4015339 175.772808,96.7512037 184.600797,92.0894891 C208.326805,123.84407 249.213632,144.819076 295.682555,144.819076 C362.044383,144.819076 417.03325,102.053069 426.891862,46.1817476 C438.284076,55.1914249 457.583756,61.1189868 479.488574,61.1189868 C497.926092,61.1189868 514.518955,56.9185658 526.10851,50.2165606 C537.585557,63.126758 554.474431,71.2987599 573.323477,71.2987599 C584.056886,71.2987599 594.15736,68.6484297 602.985349,63.9867151 C626.710755,95.7412961 667.597583,116.7157 714.067107,116.7157 C787.402041,116.7157 846.852733,64.4907657 846.852733,0.0656409885" id="Fill-11" fill="url(#linearGradient-6)" mask="url(#mask-5)"></path>
                </g>
            </g>
            <g id="Group-17" transform="translate(162.000000, 246.000000)">
                <mask id="mask-8" fill="white">
                    <use xlink:href="#path-7"></use>
                </mask>
                <g id="Clip-16"></g>
                <path d="M0.512969356,79.3129002 C0.512969356,122.752851 40.4470932,157.967958 89.7077687,157.967958 C120.921413,157.967958 148.386297,143.825546 164.323787,122.41367 C170.253568,125.556831 177.038099,127.343869 184.2473,127.343869 C196.908754,127.343869 208.253545,121.833682 215.961901,113.128431 C223.747142,117.647026 234.893714,120.479974 247.27886,120.479974 C266.848581,120.479974 283.325469,113.410881 288.322416,103.781632 C291.97567,106.353858 298.483293,108.06787 305.906332,108.06787 C317.338221,108.06787 326.605907,104.006144 326.605907,98.9962791 C326.605907,93.9864144 317.338221,89.9252916 305.906332,89.9252916 C299.052725,89.9252916 293.319362,95.1693243 289.213204,93.6339555 C278.706343,89.7056084 280.153349,75.0381294 247.27886,74.8371555 C244.097129,74.8178426 240.900381,75.8715981 237.840585,76.925957 C233.246686,78.5090043 228.962731,80.091448 225.507095,78.0418756 C208.883044,68.1820804 219.686635,50.0926121 184.2473,44.6608831 C181.851842,44.2945431 178.320522,44.6620901 174.454631,45.0296371 C170.897483,45.3682149 167.057421,45.7067927 163.559138,45.4720213 C139.816586,43.8811282 158.819277,27.1586451 133.99132,18.7092889 C119.014297,13.6125165 121.427175,3.01762724 89.7077687,0.657842737 C87.5549793,0.497304969 85.4190085,0.41884666 83.3034604,0.41884666 C37.1464297,0.41884666 0.512969356,37.7764683 0.512969356,79.3129002" id="Fill-15" fill="url(#linearGradient-9)" mask="url(#mask-8)"></path>
            </g>
            <g id="Group-75" transform="translate(228.000000, 266.000000)">
                <g id="Group-23" transform="translate(0.000000, 80.044554)">
                    <mask id="mask-11" fill="white">
                        <use xlink:href="#path-10"></use>
                    </mask>
                    <g id="Clip-22"></g>
                    <path d="M481.849166,20.6794203 L481.849166,135.41396 L0.51648727,135.41396 L0.51648727,12.5907074 C30.7487143,9.23184536 63.6467209,6.6559755 97.5135549,4.74273011 C156.220881,1.42058019 217.85876,0.0724613858 273.611463,0.0724613858 C300.239171,0.0724613858 326.126719,0.951145965 350.925088,2.60620253 C399.661316,5.86816857 444.191268,12.1393284 481.849166,20.6794203" id="Fill-21" fill="#BCCF5F" mask="url(#mask-11)"></path>
                </g>
                <path d="M481.849166,103.648489 L481.849166,215.458093 L66.4990449,215.458093 C59.2960242,207.8996 55.4568202,199.960745 55.4568202,191.763701 C55.4568202,140.908327 203.320332,99.6823721 385.718627,99.6823721 C419.158214,99.6823721 451.430394,101.066601 481.849166,103.648489" id="Fill-24" fill="#327D55"></path>
                <path d="M481.849166,106.356764 L481.849166,215.458093 L79.8700657,215.458093 C74.9176129,209.114712 72.3059913,202.530596 72.3059913,195.771947 C72.3059913,179.841877 86.8143312,164.855491 112.346843,151.789571 C142.585088,136.31088 188.294482,123.515788 243.680114,115.02926 C290.821688,107.801177 344.973721,103.690618 402.567798,103.690618 C429.89956,103.690618 456.455058,104.61745 481.849166,106.356764" id="Fill-26" fill="#3A918A"></path>
                <path d="M481.849166,111.430686 L481.849166,159.63797 C434.815908,155.990827 287.126906,143.063331 281.061204,124.177631 C280.188658,121.463338 282.878507,119.236534 288.282277,117.425 C317.726204,107.506095 427.823502,109.696788 481.849166,111.430686" id="Fill-28" fill="#42A69E"></path>
                <path d="M350.924908,82.6505761 C317.082746,89.9629169 270.415958,94.4887444 218.881564,94.4887444 C172.570414,94.4887444 130.188731,90.8355831 97.5133743,84.7871037 C156.220701,81.4649537 217.858579,80.1168349 273.611884,80.1168349 C300.239592,80.1168349 326.126539,80.9955195 350.924908,82.6505761" id="Fill-30" fill="#C7DB65"></path>
                <path d="M257.771377,106.907506 L251.075637,99.6806267 C251.075637,99.6806267 250.167587,92.2437053 259.399729,101.911643 C259.399729,101.911643 260.576764,90.046392 265.618277,91.47937 C270.659789,92.9123481 263.195607,103.693086 263.195607,103.693086 C263.195607,103.693086 272.036607,98.9505963 274.443632,99.4278544 C276.850656,99.9051126 273.642694,105.178424 273.642694,105.178424 L257.771377,106.907506 Z" id="Fill-32" fill="#88C13F"></path>
                <path d="M215.593509,112.821234 C215.593509,112.821234 211.209114,108.794331 213.616138,106.907567 C216.023163,105.020802 218.129309,109.93301 218.129309,109.93301 C218.129309,109.93301 220.987651,103.365746 223.244236,103.064826 C225.500821,102.763907 223.244236,111.575428 223.244236,111.575428 L215.593509,112.821234 Z" id="Fill-34" fill="#88C13F"></path>
                <path d="M339.992805,100.556422 C339.992805,100.556422 335.62225,96.5951198 338.029274,95.3914423 C340.436299,94.1877648 341.338933,97.9739324 341.338933,97.9739324 C341.338933,97.9739324 343.595518,93.134547 345.099909,93.134547 C346.604299,93.134547 344.354333,100.395732 344.354333,100.395732 L339.992805,100.556422 Z" id="Fill-36" fill="#88C13F"></path>
                <path d="M394.293651,99.6807471 C394.293651,99.6807471 390.081359,92.9840873 393.090139,93.134547 C396.09892,93.2850067 395.69815,98.7015554 395.898535,99.0024748 L396.09892,99.3033942 C396.09892,99.3033942 396.901061,94.0878596 400.010334,95.19103 C403.119608,96.2942004 399.608963,97.8993044 399.608963,97.8993044 C399.608963,97.8993044 402.718237,96.9965463 404.222627,97.7987973 C405.727018,98.6010484 405.225755,99.2028871 405.225755,99.2028871 C405.225755,99.2028871 407.331299,95.9168475 409.838817,96.4067443 C412.346335,96.8960392 412.445023,99.9780554 412.445023,99.9780554 L394.293651,99.6807471 Z" id="Fill-38" fill="#88C13F"></path>
                <g id="Group-42" transform="translate(347.815032, 117.358557)">
                    <mask id="mask-13" fill="white">
                        <use xlink:href="#path-12"></use>
                    </mask>
                    <g id="Clip-41"></g>
                    <path d="M46.378547,1.20367751 C46.378547,1.86810749 36.0512086,2.40735501 23.3108282,2.40735501 C10.5710496,2.40735501 0.243711225,1.86810749 0.243711225,1.20367751 C0.243711225,0.539247522 10.5710496,0 23.3108282,0 C36.0512086,0 46.378547,0.539247522 46.378547,1.20367751" id="Fill-40" fill="url(#linearGradient-14)" mask="url(#mask-13)"></path>
                </g>
                <g id="Group-45" transform="translate(336.983422, 123.376944)">
                    <mask id="mask-16" fill="white">
                        <use xlink:href="#path-15"></use>
                    </mask>
                    <g id="Clip-44"></g>
                    <path d="M46.4573771,2.40976237 C46.4573771,3.57311667 36.1300387,4.516198 23.3896583,4.516198 C10.6498797,4.516198 0.322541276,3.57311667 0.322541276,2.40976237 C0.322541276,1.24640806 10.6498797,0.303326731 23.3896583,0.303326731 C36.1300387,0.303326731 46.4573771,1.24640806 46.4573771,2.40976237" id="Fill-43" fill="url(#linearGradient-17)" mask="url(#mask-16)"></path>
                </g>
                <g id="Group-48" transform="translate(391.743228, 122.173267)">
                    <mask id="mask-19" fill="white">
                        <use xlink:href="#path-18"></use>
                    </mask>
                    <g id="Clip-47"></g>
                    <path d="M46.3978032,1.20608486 C46.3978032,1.87051484 36.0704648,2.40976237 23.3306862,2.40976237 C10.5909076,2.40976237 0.263569177,1.87051484 0.263569177,1.20608486 C0.263569177,0.541053039 10.5909076,0.00240735501 23.3306862,0.00240735501 C36.0704648,0.00240735501 46.3978032,0.541053039 46.3978032,1.20608486" id="Fill-46" fill="url(#linearGradient-20)" mask="url(#mask-19)"></path>
                </g>
                <path d="M481.849166,156.905381 L481.849166,215.458273 L0.51648727,215.458273 L0.51648727,133.764681 C56.4978583,121.595502 126.897306,114.349363 203.37449,114.349363 C217.016301,114.349363 230.471568,114.578062 243.680114,115.029441 C258.892509,115.541606 273.779955,116.347468 288.282277,117.424759 C369.188386,123.407036 437.896899,137.730799 481.849166,156.905381" id="Fill-49" fill="#88C13F"></path>
                <path d="M427.293836,215.458273 L0.516366919,215.458273 L0.516366919,153.095742 C21.9388845,152.09669 61.6848756,150.82681 112.346723,151.789752 C168.027216,152.855006 236.90422,156.622517 309.145041,166.438507 L169.585764,171.313401 C169.585764,171.313401 286.278309,178.144271 407.833044,210.041725 C414.163518,211.7028 420.674519,213.514334 427.293836,215.458273" id="Fill-51" fill="#BCCF5F"></path>
                <path d="M36.0404372,179.151628 L0.518172187,215.384729 L224.869098,215.384729 C224.869098,215.384729 136.392897,174.303817 130.352469,171.541377 C114.768791,164.415607 62.0020011,166.43959 62.0020011,166.43959 L36.0404372,179.151628 Z" id="Fill-53" fill="#BCCF5F"></path>
                <path d="M90.8369504,152.998124 L86.8250425,171.541979 C86.8250425,171.541979 95.9247984,177.222735 100.465048,172.290065 C101.154059,171.541979 97.0548963,149.788518 97.0548963,149.788518 L90.8369504,152.998124 Z" id="Fill-55" fill="#754C29"></path>
                <path d="M86.423972,0.933331538 C69.2739228,9.35907407 50.9137421,139.552444 55.4335323,150.708127 C57.5396787,155.90681 113.202119,165.754096 133.060071,150.708127 C134.498869,149.618197 109.270245,-10.2909612 86.423972,0.933331538" id="Fill-57" fill="#618A2E"></path>
                <path d="M81.8106088,13.1705189 L68.1712048,107.458791 L78.8511722,86.5948467 L81.2822669,145.976471 C81.2822669,145.976471 105.078712,-28.1559427 81.8106088,13.1705189" id="Fill-59" fill="#6F9E34"></path>
                <path d="M40.0520443,160.608074 L36.0401363,179.151929 C36.0401363,179.151929 45.1398922,184.832685 49.6801421,179.900015 C50.3691528,179.151929 46.2699902,157.398468 46.2699902,157.398468 L40.0520443,160.608074 Z" id="Fill-61" fill="#754C29"></path>
                <path d="M38.6170365,82.0181639 C28.8306769,86.8256519 18.354103,161.117229 20.9332297,167.482878 C22.1349366,170.449341 53.8974294,176.068108 65.228497,167.482878 C66.0498941,166.861178 51.6540827,75.6127941 38.6170365,82.0181639" id="Fill-63" fill="#6F9E34"></path>
                <path d="M27.2515485,152.998124 C27.2515485,151.393622 32.0655974,94.0185277 38.8852994,86.996875 C38.8852994,86.996875 42.4958361,129.726825 42.0950665,128.924574 C41.6936952,128.122322 38.2835433,124.912716 38.2835433,124.912716 L32.0655974,166.43959 L29.0568168,155.004654 L25.8476515,162.046167 L27.2515485,152.998124 Z" id="Fill-65" fill="#78AB38"></path>
                <path d="M179.608313,116.643271 L177.245818,127.563636 C177.245818,127.563636 182.604457,130.908655 185.278059,128.00358 C185.683643,127.563636 183.269999,114.752896 183.269999,114.752896 L179.608313,116.643271 Z" id="Fill-67" fill="#754C29"></path>
                <path d="M178.763267,70.3622324 C173.000248,73.1932819 166.830443,116.942145 168.349275,120.6916 C169.057542,122.438136 187.761326,125.747045 194.434199,120.6916 C194.918011,120.325682 186.440471,66.590509 178.763267,70.3622324" id="Fill-69" fill="#6F9E34"></path>
                <path d="M172.070234,112.1618 C172.070234,111.216913 174.905107,77.4290833 178.921228,73.294451 C178.921228,73.294451 181.047232,98.4573293 180.811344,97.9848858 C180.574854,97.5124424 178.566793,95.6226687 178.566793,95.6226687 L174.905107,120.077183 L173.133537,113.343209 L171.243422,117.49048 L172.070234,112.1618 Z" id="Fill-71" fill="#78AB38"></path>
                <path d="M166.935329,126.715886 C166.935329,126.715886 192.764507,124.910369 195.472409,126.715886 C198.180312,128.521402 223.735089,144.331706 215.921887,144.701837 C208.109288,145.071967 169.689567,132.433354 166.935329,126.715886" id="Fill-73" fill="#BCCF5F"></path>
            </g>
        </g>
    </g>
</svg>