<?xml version="1.0" encoding="UTF-8"?>
<svg width="120px" height="120px" viewBox="0 0 120 120" version="1.1" xmlns="http://www.w3.org/2000/svg" xmlns:xlink="http://www.w3.org/1999/xlink">
    <!-- Generator: Sketch 51.1 (57501) - http://www.bohemiancoding.com/sketch -->
    <title>Animal number2</title>
    <desc>Created with Sketch.</desc>
    <defs>
        <polygon id="path-1" points="0 0.3376 74.363 0.3376 74.363 108 0 108"></polygon>
        <polygon id="path-3" points="0 0.594722047 59.3574937 0.594722047 59.3574937 69.4508 0 69.4508"></polygon>
    </defs>
    <g id="Animal-number2" stroke="none" stroke-width="1" fill="none" fill-rule="evenodd">
        <g id="Page-1" transform="translate(19.000000, 0.000000)">
            <path d="M43.8912,14.3634 L49.7182,8.2224 C51.1572,6.7074 53.6982,7.3164 54.2902,9.3214 L56.6952,17.4374 L43.8912,14.3634 Z" id="Fill-1" fill="#314B22"></path>
            <path d="M54.5992,15.4962 L61.9212,11.2502 C63.7302,10.2012 65.9952,11.5042 65.9992,13.5942 L66.0152,22.0582 L54.5992,15.4962 Z" id="Fill-3" fill="#314B22"></path>
            <path d="M64.8795,21.1232 L73.3415,20.8782 C75.4305,20.8172 76.8015,23.0422 75.8095,24.8812 L71.7905,32.3322 L64.8795,21.1232 Z" id="Fill-5" fill="#314B22"></path>
            <path d="M71.1998,31.1535 L79.2248,33.8455 C81.2068,34.5105 81.7248,37.0715 80.1588,38.4555 L73.8138,44.0585 L71.1998,31.1535 Z" id="Fill-7" fill="#314B22"></path>
            <path d="M73.4254,43.1046 L80.0504,48.3746 C81.6864,49.6746 81.3004,52.2586 79.3554,53.0256 L71.4794,56.1276 L73.4254,43.1046 Z" id="Fill-9" fill="#314B22"></path>
            <path d="M72.2193,54.6007 L76.6343,61.8237 C77.7243,63.6067 76.4743,65.9017 74.3853,65.9547 L65.9223,66.1647 L72.2193,54.6007 Z" id="Fill-11" fill="#314B22"></path>
            <g id="Group-15" transform="translate(0.000000, 12.000000)">
                <mask id="mask-2" fill="white">
                    <use xlink:href="#path-1"></use>
                </mask>
                <g id="Clip-14"></g>
                <path d="M70.109,83.0216 C67.423,80.4826 63.662,79.0206 59.66,79.0206 L45.463,79.0206 L55.992,67.9206 C62.518,60.9816 67.171,54.7736 69.87,49.4696 C72.727,43.9256 73.871,38.4496 73.871,31.9216 C73.871,21.8056 70.441,13.9626 63.662,8.3396 C57.134,3.0226 48.162,0.3376 37.38,0.3376 C27.837,0.3376 19.502,3.8466 12.974,9.3906 C7.019,14.6146 3.097,21.2346 2.207,27.3496 C2.034,28.4136 1.954,29.3966 1.954,30.3676 C1.954,34.2886 3.27,37.7976 5.636,40.3246 C8.162,43.0226 11.591,44.3256 15.992,44.3256 C23.183,44.3256 28.155,40.1646 30.043,32.2546 C31.585,28.9056 34.284,27.9206 37.793,27.9206 C39.668,27.9206 41.222,28.2536 42.446,28.9846 C44.161,29.8886 44.971,31.3506 44.971,33.3046 C44.971,34.5416 44.652,35.8436 43.908,37.2266 C43.548,37.9446 43.124,38.6756 42.645,39.3936 C42.645,39.3936 42.645,39.4066 42.631,39.4066 C41.515,41.1346 40.08,42.8626 38.365,44.5776 L35.666,47.2626 L34.935,47.9276 L34.443,48.4066 L34.204,48.6586 L34.124,48.7386 C34.124,48.8186 34.124,48.8186 34.031,48.8186 L4.241,82.9426 C1.382,85.6266 0,89.0566 0,93.2176 C0,97.3786 1.635,101.0606 4.32,103.6666 C4.587,103.9456 4.866,104.1986 5.158,104.4506 C7.723,106.6836 11.167,108.0006 14.689,108.0006 L59.66,108.0006 C63.582,108.0006 67.423,106.3656 70.109,103.7466 C72.807,101.0606 74.363,97.3786 74.363,93.3906 C74.363,89.3896 72.807,85.7076 70.109,83.0216" id="Fill-13" fill="#FFC422" mask="url(#mask-2)"></path>
            </g>
            <path d="M45.7516,20.8771 C45.7516,15.0231 41.0066,10.2771 35.1516,10.2771 C29.2986,10.2771 24.5526,15.0231 24.5526,20.8771 C24.5526,26.7311 29.2986,31.4771 35.1516,31.4771 C41.0066,31.4771 45.7516,26.7311 45.7516,20.8771" id="Fill-16" fill="#FFFFFF"></path>
            <path d="M42.6705,22.0587 C42.6705,19.0257 40.2115,16.5667 37.1785,16.5667 C34.1465,16.5667 31.6875,19.0257 31.6875,22.0587 C31.6875,25.0917 34.1465,27.5507 37.1785,27.5507 C40.2115,27.5507 42.6705,25.0917 42.6705,22.0587" id="Fill-18" fill="#1F3016"></path>
            <path d="M35.0777,18.7755 C35.0777,17.6155 34.1367,16.6745 32.9757,16.6745 C31.8157,16.6745 30.8747,17.6155 30.8747,18.7755 C30.8747,19.9365 31.8157,20.8775 32.9757,20.8775 C34.1367,20.8775 35.0777,19.9365 35.0777,18.7755" id="Fill-20" fill="#FFFFFF"></path>
            <path d="M39.7525,4.6066 C35.9355,-2.4564 28.4635,-1.1644 26.0345,6.8906 C25.3175,9.2686 28.1885,10.3026 28.8975,7.9516 C30.3275,3.2036 34.9655,2.5026 37.1895,6.6196 C38.3025,8.6756 40.8775,6.6876 39.7525,4.6066" id="Fill-22" fill="#E3A500"></path>
            <path d="M14.191,45.4083 C13.855,45.8693 13.633,46.3733 13.513,46.9293 C13.333,47.7633 14.614,48.1203 14.795,47.2833 C14.894,46.8283 15.064,46.4563 15.338,46.0793 C15.843,45.3873 14.69,44.7223 14.191,45.4083" id="Fill-24" fill="#1F3016"></path>
            <path d="M8.0524,47.2218 C7.7504,46.7838 7.4494,46.3438 7.1484,45.9048 C6.6674,45.2028 5.5154,45.8678 6.0004,46.5758 C6.3014,47.0148 6.6034,47.4538 6.9044,47.8928 C7.3854,48.5938 8.5374,47.9298 8.0524,47.2218" id="Fill-26" fill="#1F3016"></path>
            <g id="Group-30" transform="translate(0.000000, 47.000000)">
                <mask id="mask-4" fill="white">
                    <use xlink:href="#path-3"></use>
                </mask>
                <g id="Clip-29"></g>
                <path d="M59.3414,7.5968 C60.2054,20.6638 26.0814,68.7458 5.1574,69.4508 C4.8654,69.1988 4.5864,68.9458 4.3204,68.6658 C1.6354,66.0608 -0.0006,62.3788 -0.0006,58.2178 C-0.0006,54.0568 1.3824,50.6268 4.2404,47.9428 L34.0304,13.8188 C34.1234,13.8188 34.1234,13.8188 34.1234,13.7388 L34.2034,13.6588 L34.4434,13.4068 L34.9354,12.9278 L35.6654,12.2628 L38.3644,9.5768 C40.0794,7.8628 41.5154,6.1348 42.6314,4.4068 C42.6454,4.4068 42.6454,4.3938 42.6454,4.3938 C42.6574,4.3938 42.6714,4.3798 42.6714,4.3798 C42.6714,4.3798 58.4374,-5.9892 59.3414,7.5968" id="Fill-28" fill="#FFCD45" mask="url(#mask-4)"></path>
            </g>
            <path d="M53.8815,68.5079 C48.1705,65.4289 42.7475,61.9089 37.6095,57.9479 C36.2545,56.9039 34.9295,59.2129 36.2675,60.2439 C41.4055,64.2049 46.8285,67.7249 52.5395,70.8039 C54.0455,71.6149 55.3895,69.3209 53.8815,68.5079" id="Fill-31" fill="#FFD970"></path>
            <path d="M44.3922,83.0197 C38.0422,79.5937 32.0132,75.6777 26.3002,71.2697 C24.7942,70.1077 23.3212,72.6767 24.8082,73.8247 C30.5212,78.2327 36.5502,82.1487 42.9002,85.5747 C44.5752,86.4787 46.0692,83.9247 44.3922,83.0197" id="Fill-33" fill="#FFD970"></path>
            <path d="M33.3287,96.4035 C26.8357,92.9505 20.6697,89.0055 14.8267,84.5625 C13.2877,83.3925 11.7807,85.9805 13.3017,87.1365 C19.1437,91.5795 25.3097,95.5245 31.8037,98.9775 C33.5157,99.8875 35.0437,97.3155 33.3287,96.4035" id="Fill-35" fill="#FFD970"></path>
            <path d="M19.319,108.382 C13.608,105.303 8.185,101.783 3.047,97.822 C1.692,96.778 0.367,99.087 1.705,100.118 C6.843,104.079 12.266,107.599 17.977,110.678 C19.483,111.489 20.827,109.195 19.319,108.382" id="Fill-37" fill="#FFD970"></path>
            <path d="M53.191,33.6408 C53.191,30.7358 50.837,28.3798 47.931,28.3798 C45.026,28.3798 42.67,30.7358 42.67,33.6408 C42.67,36.5458 45.026,38.9018 47.931,38.9018 C50.837,38.9018 53.191,36.5458 53.191,33.6408" id="Fill-39" fill="#F77293"></path>
        </g>
    </g>
</svg>