<?xml version="1.0" encoding="UTF-8"?>
<svg width="120px" height="120px" viewBox="0 0 120 120" version="1.1" xmlns="http://www.w3.org/2000/svg" xmlns:xlink="http://www.w3.org/1999/xlink">
    <!-- Generator: Sketch 51.1 (57501) - http://www.bohemiancoding.com/sketch -->
    <title>CD1</title>
    <desc>Created with Sketch.</desc>
    <defs></defs>
    <g id="CD1" stroke="none" stroke-width="1" fill="none" fill-rule="evenodd">
        <g id="Group-23" transform="translate(12.000000, 12.000000)">
            <path d="M95.8566,47.9286 C95.8566,74.3988 74.3982,95.8572 47.9286,95.8572 C21.4578,95.8572 0,74.3988 0,47.9286 C0,21.4584 21.4578,0 47.9286,0 C74.3982,0 95.8566,21.4584 95.8566,47.9286" id="Fill-347" fill="#004E66"></path>
            <path d="M47.9286,0 C21.4584,0 0,21.4584 0,47.9286 C0,74.3988 21.4584,95.8572 47.9286,95.8572 L47.9286,0 Z" id="Fill-348" fill="#004E66"></path>
            <path d="M79.368,48.084 C79.368,65.3616 65.3616,79.368 48.084,79.368 C30.8064,79.368 16.8,65.3616 16.8,48.084 C16.8,30.8064 30.8064,16.8 48.084,16.8 C65.3616,16.8 79.368,30.8064 79.368,48.084" id="Fill-349" fill="#FF5F2E"></path>
            <path d="M68.7798,48.1902 C68.7798,59.8932 59.2926,69.3798 47.5902,69.3798 C35.8872,69.3798 26.4,59.8932 26.4,48.1902 C26.4,36.4872 35.8872,27 47.5902,27 C59.2926,27 68.7798,36.4872 68.7798,48.1902" id="Fill-350" fill="#E1EEF6"></path>
            <path d="M53.4528,48.0264 C53.4528,51.0234 51.0234,53.4528 48.0264,53.4528 C45.0294,53.4528 42.6,51.0234 42.6,48.0264 C42.6,45.0294 45.0294,42.6 48.0264,42.6 C51.0234,42.6 53.4528,45.0294 53.4528,48.0264" id="Fill-351" fill="#004E66"></path>
        </g>
    </g>
</svg>