<?xml version="1.0" encoding="UTF-8"?>
<svg width="120px" height="120px" viewBox="0 0 120 120" version="1.1" xmlns="http://www.w3.org/2000/svg" xmlns:xlink="http://www.w3.org/1999/xlink">
    <!-- Generator: Sketch 51.1 (57501) - http://www.bohemiancoding.com/sketch -->
    <title>Kayaker2</title>
    <desc>Created with Sketch.</desc>
    <defs>
        <polygon id="path-1" points="0.199373684 0.299053333 13.3734789 0.299053333 13.3734789 5.86666667 0.199373684 5.86666667"></polygon>
    </defs>
    <g id="Kayaker2" stroke="none" stroke-width="1" fill="none" fill-rule="evenodd">
        <g id="Group-42" transform="translate(6.000000, 1.000000)">
            <path d="M20.9616619,47.7489041 C28.9459119,60.1979041 39.5943735,49.811797 35.9722196,38.8040827 C33.3415465,30.8159041 47.6163542,41.4021898 47.6163542,41.4021898 C47.6163542,41.4021898 39.2589888,64.561797 32.0062965,64.9073684 C24.7557004,65.2529398 20.9365081,53.9186184 20.9616619,47.7489041" id="Fill-192" fill="#AD6921"></path>
            <path d="M48.2315224,110.414286 L48.2315224,99.0357143 L58.0792531,99.0357143 L57.6327724,110.414286 L57.6243878,110.414286 C59.385157,111.514214 60.6680031,113.745679 59.1566762,115.564143 C58.0184647,116.847393 56.3394455,115.833857 55.0649839,115.294429 C53.6563685,114.620143 52.0444262,114.148143 50.7699647,113.269464 C49.9461762,112.692107 48.9777531,112.062071 48.4243685,111.20025 C48.2524839,110.932643 48.1707339,110.662929 48.2315224,110.414286" id="Fill-193" fill="#FDDFBB"></path>
            <path d="M37.8363,110.414286 L37.8300115,110.414286 L37.3814346,99.0357143 L47.2291653,99.0357143 L47.2291653,110.414286 L47.2270692,110.414286 C47.2899538,110.673464 47.2103,110.932643 47.0363192,111.20025 C46.4808384,112.062071 45.5124153,112.692107 44.6886269,113.269464 C43.4141653,114.148143 41.8043192,114.620143 40.3957038,115.294429 C39.1191461,115.833857 37.442223,116.847393 36.3040115,115.564143 C34.7926846,113.745679 36.0734346,111.507893 37.8363,110.414286" id="Fill-194" fill="#FDDFBB"></path>
            <path d="M57.6099586,111.340258 L57.6330163,111.331829 L57.6330163,111.340258 L57.6246317,111.340258 C59.3874971,112.469687 60.6661509,114.680079 59.1569202,116.498544 C58.0166125,117.781794 56.3417855,116.772472 55.0652279,116.233044 C53.6566125,115.560865 52.0467663,115.090972 50.7702086,114.214401 C49.9485163,113.634937 48.9800932,112.996472 48.4246125,112.132544 C48.2506317,111.869151 48.1709779,111.591008 48.2317663,111.340258 L48.2317663,109.648222 C48.2317663,109.648222 48.3449586,109.475437 48.7369394,109.648222 C49.5125163,109.989579 50.026074,111.534115 51.6841317,111.340258 C55.7821125,110.191865 57.6099586,111.340258 57.6099586,111.340258" id="Fill-195" fill="#333433"></path>
            <path d="M37.849982,111.340258 L37.8269243,111.331829 L37.8269243,111.340258 L37.8374051,111.340258 C36.0724436,112.469687 34.7937897,114.680079 36.3030205,116.498544 C37.4454243,117.781794 39.1202513,116.772472 40.3968089,116.233044 C41.8075205,115.560865 43.4152705,115.090972 44.6918282,114.214401 C45.5135205,113.634937 46.4798474,112.996472 47.0395205,112.132544 C47.2114051,111.869151 47.2910589,111.591008 47.2302705,111.340258 L47.2323666,109.648222 C47.2323666,109.648222 47.1170782,109.475437 46.7250974,109.648222 C45.9495205,109.989579 45.4359628,111.534115 43.7779051,111.340258 C39.6778282,110.191865 37.849982,111.340258 37.849982,111.340258" id="Fill-196" fill="#333433"></path>
            <path d="M25.1884534,77.4095928 C25.2932611,76.4129142 25.6265496,75.5215928 26.0981842,74.8346642 C26.0939919,74.8768071 26.0918957,74.8999856 26.0918957,74.8999856 C26.0918957,74.8999856 27.498415,60.7315571 31.1624919,56.0199856 C32.8436073,53.8622713 38.6478573,50.7289499 39.3228188,50.3686285 C40.6035688,49.4372713 43.4920688,49.0158428 45.2905688,48.8451642 L51.9186073,48.8304142 C53.6835688,49.0031999 56.6056073,49.4246285 57.9303765,50.3517713 C57.9303765,50.3517713 60.2340496,51.1819856 60.9991457,51.4580213 C65.4702419,52.8698071 69.5304919,54.5302356 69.5304919,54.5302356 L75.0307996,48.0402356 C74.9385688,47.7768428 74.8693957,47.4986999 74.8232804,47.2036999 C74.4711265,46.5568071 74.1818573,45.7497713 74.0057804,44.8479142 C73.5488188,42.4921285 74.0581842,40.4102713 75.1439919,40.1995571 C75.7225304,40.0857713 76.3492804,40.5303785 76.875415,41.3310928 C78.0429727,40.2016642 79.4830304,39.7296642 80.6862227,40.2416999 C82.5266457,41.0276642 83.1114727,43.8175213 81.9921265,46.4746285 C81.2731457,48.1814142 80.0280304,49.4161999 78.7409919,49.8776642 C78.7409919,49.8776642 75.3095881,59.6653428 72.3225688,60.7568428 C69.9057034,61.6376285 61.0767034,58.0702356 61.0767034,58.0702356 L61.0767034,58.0575928 C62.7347611,68.2287713 60.9991457,83.7605213 60.9991457,83.7605213 L36.1387611,83.7605213 C36.1387611,83.7605213 34.6483957,69.6616285 35.9815496,59.5283785 L35.9815496,59.5346999 C35.7866073,60.0699142 34.7112804,61.0286642 33.8602419,62.2381642 C32.158165,64.6571642 30.5629919,74.8936642 30.5629919,74.8936642 C30.6007227,74.9610928 30.6405496,75.0327356 30.6740881,75.1043785 C31.1037996,75.5300213 31.5272227,76.0968428 31.8772804,76.7648071 C32.8037804,78.5137356 32.8981073,80.2837356 32.0931842,80.7114856 C31.6634727,80.9411642 31.0618765,80.7388785 30.4539919,80.2373785 C29.8020881,81.4068428 28.779165,82.1274856 27.7059342,82.0158071 C26.0646457,81.8409142 24.9390111,79.7780213 25.1884534,77.4095928" id="Fill-197" fill="#FDDFBB"></path>
            <path d="M30.1573654,56.4229643 C31.8405769,54.2673571 37.6427308,51.1319286 38.3197885,50.7716071 C39.6005385,49.84025 42.4890385,49.4125 44.2854423,49.2439286 L50.9134808,49.2270714 C52.6784423,49.3998571 55.6025769,49.8233929 56.9273462,50.75475 C56.9273462,50.75475 59.2289231,51.5828571 59.9940192,51.8588929 C64.4651154,53.2706786 68.5274615,54.9332143 68.5274615,54.9332143 L74.0089038,48.4642857 L77.9811154,50.1816071 C77.8972692,50.2195357 77.8176154,50.2490357 77.7358654,50.2806429 C77.7358654,50.2806429 74.3065577,60.0683214 71.3195385,61.1598214 C68.9131538,62.0363929 60.1596154,58.5111429 60.0736731,58.4774286 C60.8576346,63.2796071 60.8806923,69.2765357 60.6899423,74.26625 L34.5089808,74.6181429 C34.3496731,70.0519643 34.3685385,64.5797143 34.9764231,59.9397857 C34.7793846,60.4771071 33.7061538,61.4316429 32.8551154,62.6411429 C31.4087692,64.6998214 30.0378846,72.3993214 29.6647692,74.6645 L25.1538462,74.6645 C25.4829423,71.8556786 26.9586346,60.534 30.1573654,56.4229643" id="Fill-198" fill="#333433"></path>
            <path d="M49.6243462,51.7851429 L45.9288269,51.7851429 C44.8744615,51.7851429 44.0192308,49.5052143 44.0192308,48.4642857 L51.5339423,48.4642857 C51.5339423,49.5052143 50.6787115,51.7851429 49.6243462,51.7851429" id="Fill-199" fill="#FDDFBB"></path>
            <path d="M44.8094808,50.6936429 L51.4899231,48.4811429 L51.5025,48.4642857 C50.2615769,48.6792143 48.9829231,48.7908929 47.6791154,48.7908929 C46.434,48.7908929 45.2098462,48.6876429 44.0192308,48.4937857 C44.0884038,49.1448929 44.3860577,50.0446429 44.8094808,50.6936429" id="Fill-200" fill="#EEAC6C"></path>
            <path d="M34.418123,59.8175714 C34.4411807,59.6974643 34.5187384,59.6216071 34.581623,59.4825357 C34.6340268,59.5352143 34.8897576,59.3582143 35.0113345,59.2760357 C36.1327768,58.4985 38.6628345,55.7655357 38.6816999,49.7665 L38.6879884,49.7580714 C39.7968537,49.0500714 41.8741422,48.6665714 43.5028537,48.4642857 C43.5028537,48.4642857 43.8026037,59.4551429 47.7014499,59.4467143 C51.5877191,59.4361786 51.8161999,48.4663929 51.8161999,48.4663929 C53.2876999,48.6391786 55.1050653,48.9615714 56.2474691,49.5389286 C56.3858153,49.6084643 56.5031999,49.6653571 56.6184884,49.7412143 C56.6184884,49.7412143 56.626873,49.9392857 56.654123,50.268 C56.7966614,51.9832143 57.4674307,57.3142857 60.3161037,57.5502857 C62.2089307,64.959 61.5423537,76.2785714 61.0853922,81.5485357 C60.9281807,83.3459286 60.6032768,84.4332143 60.6032768,84.4332143 C60.6032768,84.4332143 58.4672961,94.0186071 58.2409114,99.0883929 L48.3931807,99.0883929 C48.4330076,97.8051429 47.8942961,91.7112857 47.8942961,91.7112857 L47.6113153,91.7112857 C47.6113153,91.7112857 47.0558345,97.4216429 47.1145268,99.0883929 L37.2646999,99.0883929 C37.0005845,94.7898214 34.7535076,84.4332143 34.7535076,84.4332143 C34.7535076,84.4332143 34.3971614,83.3396071 34.200123,81.5464286 C33.6781807,76.7400357 32.919373,66.9397143 34.418123,59.8175714" id="Fill-201" fill="#E63744"></path>
            <path d="M56.6578178,50.5714286 C56.8862986,50.6536071 57.1022024,50.7463214 57.2971448,50.8453571 C57.4354909,50.9148929 57.5528755,50.9696786 57.6660678,51.0476429 C57.6660678,51.0476429 57.6744524,51.2436071 57.7037986,51.5744286 C57.8442409,53.2896429 58.5171063,58.6186071 61.3657794,58.8567143 C61.5187986,59.4551429 61.6550486,60.07675 61.7745294,60.7194286 C59.2172217,60.3317143 56.1191063,53.6246786 56.6578178,50.5714286" id="Fill-202" fill="#EEEEED"></path>
            <path d="M35.6346154,61.9626429 C35.6828269,61.6887143 35.7373269,61.4147857 35.7939231,61.1471786 C35.8169808,61.0291786 35.8945385,60.9533214 35.9574231,60.8121429 C36.0098269,60.8648214 36.2655577,60.6899286 36.3871346,60.6056429 C37.5106731,59.8281071 40.0407308,57.0951429 40.0575,51.0982143 L40.0637885,51.0876786 C40.3719231,50.8896071 40.7513269,50.7210357 41.1789423,50.5714286 C41.7931154,53.9386429 38.2736731,62.3061071 35.6346154,61.9626429" id="Fill-203" fill="#EEEEED"></path>
            <path d="M49.2155962,60.8311071 C53.2234423,60.8205714 54.1247885,51.8736429 54.3134423,48.5991429 C53.9738654,48.5485714 53.6342885,48.5022143 53.3156731,48.4663929 C53.3156731,48.4663929 53.0892885,59.4361786 49.2009231,59.4467143 C45.3020769,59.4551429 45.0023269,48.4642857 45.0023269,48.4642857 C44.6858077,48.5001071 44.3567115,48.5485714 44.0192308,48.5991429 C44.2330385,51.8820714 45.1951731,60.8416429 49.2155962,60.8311071" id="Fill-204" fill="#EEEEED"></path>
            <path d="M27.0508654,30.0478571 C26.8852692,28.9458214 26.8014231,27.8163929 26.8014231,26.6701071 C26.8014231,14.2674643 36.8000769,4.21428571 49.1380385,4.21428571 C61.4739038,4.21428571 71.4746538,14.2674643 71.4746538,26.6701071 C71.4746538,27.7658214 71.3970962,28.8404643 71.2461731,29.8919286 C72.5353077,30.5999286 73.4052115,31.9400714 73.4052115,33.4761786 C73.4052115,35.754 71.4956154,37.6019643 69.1416346,37.6019643 C68.9802308,37.6019643 68.8230192,37.5935357 68.6679038,37.5766786 C64.8529038,44.4649286 57.5373269,49.1259286 49.1380385,49.1259286 C40.7450385,49.1259286 33.43575,44.4733571 29.62075,37.5956429 C29.5515769,37.5998571 29.4824038,37.6019643 29.4174231,37.6019643 C27.0613462,37.6019643 25.1538462,35.754 25.1538462,33.4761786 C25.1538462,32.0454286 25.9063654,30.7853571 27.0508654,30.0478571" id="Fill-205" fill="#FDDFBB"></path>
            <g id="Page-1" transform="translate(36.000000, 22.000000)">
                <path d="M8.31106854,1.65026755 C8.31106854,1.65026755 7.80801591,3.45328977 6.22875275,3.09640088 C5.45712117,2.92235643 5.3211738,1.89471199 2.8433317,2.35573421 C2.06412117,2.53613421 0.42612117,3.51195643 0.110647486,4.16364532 C-0.205299883,4.8158231 0.0234895909,1.77248977 2.56764749,0.641689768 C4.4031738,-0.0329768984 5.02512117,0.000267546019 6.54470012,0.000267546019 C8.06427906,0.000267546019 8.53227906,0.907156435 8.31106854,1.65026755" id="Fill-1" fill="#E74B1D"></path>
                <path d="M18.05184,1.65026755 C18.05184,1.65026755 18.5548926,3.45328977 20.1341558,3.09640088 C20.9057873,2.92235643 21.0417347,1.89471199 23.5195768,2.35573421 C24.2987873,2.53613421 25.9367873,3.51195643 26.252261,4.16364532 C26.5682084,4.8158231 26.3394189,1.77248977 23.795261,0.641689768 C21.9597347,-0.0329768984 21.3377873,0.000267546019 19.8182084,0.000267546019 C18.2986294,0.000267546019 17.8306294,0.907156435 18.05184,1.65026755" id="Fill-3" fill="#E74B1D"></path>
                <path d="M6,9 C6,10.6568785 5.10453816,12 3.99983098,12 C2.89512381,12 2,10.6568785 2,9 C2,7.34312148 2.89512381,6 3.99983098,6 C5.10453816,6 6,7.34312148 6,9" id="Fill-5" fill="#6172BB"></path>
                <path d="M24,9 C24,10.6568785 23.1048762,12 22.000169,12 C20.8951238,12 20,10.6568785 20,9 C20,7.34312148 20.8951238,6 22.000169,6 C23.1048762,6 24,7.34312148 24,9" id="Fill-7" fill="#6172BB"></path>
                <path d="M13.0197368,12.0692 C13.8586316,11.9552889 15.9802632,13.8262667 15.9802632,13.8262667 C15.9802632,13.8262667 16.0825789,13.4116889 15.6396842,12.5884 C15.1626842,11.7025333 12.9903684,11 12.9903684,11 C12.9903684,11 11.3026316,11.4478222 10.5030526,12.6040444 C10.207,12.8939556 10,13.9025333 10,13.9025333 C10,13.9025333 11.8947368,12.2217333 13.0197368,12.0692 Z" id="Fill-9" fill="#EEAC6C"></path>
                <g id="Group-13" transform="translate(6.000000, 15.000000)">
                    <mask id="mask-2" fill="white">
                        <use xlink:href="#path-1"></use>
                    </mask>
                    <g id="Clip-12"></g>
                    <path d="M0.199373684,0.696031111 C0.199373684,0.696031111 7.09763684,3.90412 13.3734789,0.299053333 C13.3734789,0.299053333 11.9822684,5.76825333 7.42305789,5.86016444 C3.30768947,5.98238667 2.43942632,4.36807556 1.94632105,3.90412 C1.45274211,3.44114222 0.524794737,2.13238667 0.199373684,0.696031111" id="Fill-11" fill="#EEAC6C" mask="url(#mask-2)"></path>
                </g>
            </g>
            <path d="M61.2364478,26.7004771 C59.4127939,25.5689414 56.7339093,24.8525129 56.7339093,24.8525129 C56.4131978,24.2582986 56.6982747,23.2447629 57.1196016,23.1857629 C58.4569478,22.9940129 61.2364478,26.7004771 61.2364478,26.7004771" id="Fill-212" fill="#AD6921"></path>
            <path d="M35.6346154,26.7004771 C37.4561731,25.5689414 40.1371538,24.8525129 40.1371538,24.8525129 C40.4578654,24.2582986 40.1727885,23.2447629 39.7535577,23.1857629 C38.4141154,22.9940129 35.6346154,26.7004771 35.6346154,26.7004771" id="Fill-213" fill="#AD6921"></path>
            <path d="M71.4512717,23.1933214 C71.4386948,22.0259643 71.3527525,20.6036429 71.1892525,19.0907143 C68.2022333,9.25667857 59.1070217,2.10714286 48.3495602,2.10714286 C38.9881371,2.10714286 30.8823102,7.52460714 26.9687909,15.4158571 C25.8913679,18.5175714 25.2268871,21.5708214 25.1723871,22.9488929 C24.9795409,27.7236786 26.3546179,29.3040357 26.3546179,29.3040357 C26.3546179,29.3040357 30.3603679,23.7369643 35.0976756,20.3929286 C38.8225409,17.7653214 42.1365602,22.8414286 46.5552525,18.4943929 C46.9514256,18.1024643 48.4313102,16.6021786 48.4313102,16.6021786 C48.4313102,16.6021786 49.6449833,17.9739286 50.2968871,18.4943929 C54.2292717,21.6108571 56.4239448,18.0645357 60.8258679,20.4751071 C64.424964,22.4431786 70.3256371,29.4662857 70.3256371,29.4662857 C70.3256371,29.4662857 71.4890025,25.8167143 71.4512717,23.1933214" id="Fill-214" fill="#AD6921"></path>
            <path d="M25.1538462,25.6607857 C25.1538462,25.6607857 28.1513462,47.7099286 49.3749038,47.6024643 C27.0382885,41.7361786 27.7740385,23.9835 27.7740385,23.9835 L25.8141346,23.1785714 L25.1538462,25.6607857 Z" id="Fill-215" fill="#333433"></path>
            <path d="M72.4346923,25.6607857 C72.4346923,25.6607857 69.4350962,47.7099286 48.2115385,47.6024643 C70.55025,41.7361786 69.8124038,23.9835 69.8124038,23.9835 L71.7723077,23.1785714 L72.4346923,25.6607857 Z" id="Fill-216" fill="#333433"></path>
            <path d="M58.6524808,1.62039286 C56.898,0.9145 51.3767308,0 49.3811923,0 C47.6937885,0 43.7886538,0.370857143 40.8142115,1.39703571 C31.8804038,4.484 25.1538462,12.7271429 25.1538462,26.3203214 C28.6523269,31.2995 43.2834808,24.5713929 49.34975,24.5713929 C55.4055385,24.5713929 69.8710962,31.1815 73.5184038,26.3203214 C73.5184038,12.4447857 66.9343846,4.72210714 58.6524808,1.62039286" id="Fill-217" fill="#DBDBDB"></path>
            <path d="M31.6380535,17.4961389 C31.9923035,19.1354961 31.8057458,20.5662461 31.2251112,20.6947818 C30.6423804,20.8212103 29.8814765,19.5969603 29.5272265,17.9576032 C29.1708804,16.3182461 29.3574381,14.8853889 29.9380727,14.7589603 C30.5228996,14.6325318 31.2817073,15.8588889 31.6380535,17.4961389" id="Fill-218" fill="#333433"></path>
            <path d="M27.4442258,23.8173099 C27.7984758,25.4545599 27.6119181,26.8895242 27.0312834,27.0180599 C26.4485527,27.1423814 25.6918411,25.9181314 25.335495,24.2808814 C24.9791488,22.6415242 25.1636104,21.2086671 25.744245,21.0801314 C26.3290719,20.9558099 27.0878796,22.1779528 27.4442258,23.8173099" id="Fill-219" fill="#333433"></path>
            <path d="M65.1598946,17.4961389 C64.8077408,19.1354961 64.9901061,20.5662461 65.5728369,20.6947818 C66.1555677,20.8212103 66.9143754,19.5969603 67.2707215,17.9576032 C67.6228754,16.3182461 67.44051,14.8853889 66.8577792,14.7589603 C66.2729523,14.6325318 65.5162408,15.8588889 65.1598946,17.4961389" id="Fill-220" fill="#333433"></path>
            <path d="M69.3546395,23.8173099 C68.9982933,25.4545599 69.1827549,26.8895242 69.7654856,27.0180599 C70.3482164,27.1423814 71.1091202,25.9181314 71.4633702,24.2808814 C71.8176202,22.6415242 71.6352549,21.2086671 71.0525241,21.0801314 C70.4676972,20.9558099 69.7109856,22.1779528 69.3546395,23.8173099" id="Fill-221" fill="#333433"></path>
            <polygon id="Fill-222" fill="#C6C5C6" points="23.0576923 82.6716429 24.4725962 84.6165357 82.4438269 41.9785 81.0289231 40.0357143"></polygon>
            <path d="M81.0689324,42.4342124 C80.5134516,42.206641 79.6393554,41.0919624 79.6540285,40.4893195 C86.6342208,33.2576052 87.7640478,24.477141 94.0839516,22.2288195 C100.397567,19.9847124 108.038048,20.9919267 108.530644,25.3558195 C109.121759,30.6110338 98.6451824,38.4643552 93.7590478,40.4239981 C90.7762208,41.6187481 86.6530862,40.1837838 81.0689324,42.4342124" id="Fill-223" fill="#EF8214"></path>
            <path d="M82.8190385,41.5465357 C90.1513846,36.6263571 104.002769,25.2857143 104.002769,25.2857143 C104.002769,25.2857143 88.7658269,34.9153571 81.75,40.07575 L82.8190385,41.5465357 Z" id="Fill-224" fill="#CB6F1A"></path>
            <path d="M82.2593654,41.5465357 L81.75,40.8469643 L103.443096,25.2857143 C103.443096,25.2857143 89.5917115,36.6263571 82.2593654,41.5465357" id="Fill-225" fill="#F3AB6C"></path>
            <polygon id="Fill-226" fill="#CB6F1A" points="25.3781346 80.7541429 24.8813462 80.0714286 20.9615385 82.954 21.4583269 83.6367143"></polygon>
            <path d="M26.535835,81.4558214 C26.5735657,80.9753929 26.0222773,80.1262143 25.527585,80.0714286 C16.8453157,84.9621071 9.25933497,84.8757143 4.8888542,89.8001071 C0.520469584,94.7223929 -1.73708811,101.104929 1.60418112,102.011 C5.63298881,103.1025 16.2311427,95.4156429 19.792508,91.6333214 C21.9641234,89.3217857 22.4588157,85.7754643 26.535835,81.4558214" id="Fill-227" fill="#EF8214"></path>
            <path d="M25.9252308,83.2258214 C18.9785769,88.6748929 4.19230769,98.7259643 4.19230769,98.7259643 C4.19230769,98.7259643 18.1610769,87.3305357 25.1643269,82.1785714 L25.9252308,83.2258214 Z" id="Fill-228" fill="#CB6F1A"></path>
            <path d="M25.9252308,82.6758571 L25.5625962,82.1785714 L4.19230769,98.176 C4.19230769,98.176 18.9785769,88.1249286 25.9252308,82.6758571" id="Fill-229" fill="#F3AB6C"></path>
            <path d="M78.2536154,44.25 C78.5051538,44.7515 78.589,45.1413214 78.4464615,45.2487857 C78.2997308,45.3520357 77.9580577,45.1539643 77.5576923,44.7599286 L78.2536154,44.25 Z" id="Fill-230" fill="#EF8214"></path>
            <path d="M78.5013529,42.643705 L77.8117183,43.1515264 C77.5685644,42.6563478 77.4847183,42.274955 77.6272568,42.1695978 C77.7697952,42.068455 78.107276,42.260205 78.5013529,42.643705" id="Fill-231" fill="#EF8214"></path>
            <path d="M78.9705,44.4185714 C78.7231538,44.1804643 78.4548462,43.8665 78.1928269,43.5082857 C77.9308077,43.1458571 77.7086154,42.7855357 77.5576923,42.4736786 L77.8972692,42.1428571 C78.0754423,42.4568214 78.3018269,42.8719286 78.5680385,43.2343571 C78.8279615,43.5904643 79.1381923,43.955 79.3897308,44.1931071 L78.9705,44.4185714 Z" id="Fill-232" fill="#EF8214"></path>
            <path d="M30.0441731,80.0714286 C30.2936154,80.5750357 30.3816538,80.9648571 30.2370192,81.0723214 C30.0902885,81.1776786 29.7507115,80.9775 29.3461538,80.5855714 L30.0441731,80.0714286 Z" id="Fill-233" fill="#EF8214"></path>
            <path d="M28.1937368,78.4658959 L27.5020061,78.9716102 C27.2609484,78.4764316 27.1771022,78.0971459 27.3196407,77.9917888 C27.4621792,77.8885388 27.7996599,78.0823959 28.1937368,78.4658959" id="Fill-234" fill="#EF8214"></path>
            <path d="M28.6628077,80.2421071 C28.4175577,80.0018929 28.14925,79.6879286 27.8893269,79.3297143 C27.6231154,78.9672857 27.4030192,78.6090714 27.25,78.293 L27.5895769,77.9642857 C27.7698462,78.2803571 28.0004231,78.69125 28.2624423,79.0557857 C28.5244615,79.414 28.8325962,79.7764286 29.0841346,80.0124286 L28.6628077,80.2421071 Z" id="Fill-235" fill="#EF8214"></path>
            <path d="M73.4594551,44.3587909 C73.7927436,46.588148 74.8932244,48.2654337 75.9161474,48.1137194 C76.9411667,47.959898 77.5029359,46.0297551 77.1717436,43.800398 C76.8405513,41.5752551 75.7421667,39.891648 74.7171474,40.0454694 C73.6921282,40.1992909 73.130359,42.1294337 73.4594551,44.3587909" id="Fill-236" fill="#FDDFBB"></path>
            <path d="M30.1162992,80.04825 C31.0700492,81.9151786 32.5373569,83.072 33.3967799,82.6295 C34.256203,82.187 34.1786453,80.3116429 33.2248953,78.4447143 C32.5436453,77.1108929 31.6024722,76.1416071 30.8059338,75.8571429 L29.9423184,75.8655714 C29.0849915,76.3080714 29.160453,78.1813214 30.1162992,80.04825" id="Fill-237" fill="#FDDFBB"></path>
        </g>
    </g>
</svg>