<?xml version="1.0" encoding="UTF-8"?>
<svg width="120px" height="120px" viewBox="0 0 120 120" version="1.1" xmlns="http://www.w3.org/2000/svg" xmlns:xlink="http://www.w3.org/1999/xlink">
    <!-- Generator: Sketch 51.1 (57501) - http://www.bohemiancoding.com/sketch -->
    <title>Umbrella</title>
    <desc>Created with Sketch.</desc>
    <defs>
        <polygon id="path-1" points="0.0738340945 0.00026909223 78.744 0.00026909223 78.744 78.6698766 0.0738340945 78.6698766"></polygon>
        <polygon id="path-3" points="0.38 0.7776 35.603 0.7776 35.603 36 0.38 36"></polygon>
        <polygon id="path-5" points="0 0.2593 22.4107 0.2593 22.4107 22.6693 0 22.6693"></polygon>
    </defs>
    <g id="Umbrella" stroke="none" stroke-width="1" fill="none" fill-rule="evenodd">
        <g id="Page-1">
            <path d="M98.8736,79.3449 L98.8736,100.0679 C98.8736,102.0659 98.0616,103.8839 96.7516,105.1959 C95.4406,106.5059 93.6306,107.3179 91.6336,107.3179 L70.8926,107.3179 C66.8966,107.3179 63.6516,104.0719 63.6516,100.0679 L63.6516,79.3449 C63.6516,77.3469 64.4626,75.5289 65.7736,74.2179 C67.0846,72.9069 68.8946,72.0949 70.8926,72.0949 L91.6336,72.0949 C95.6276,72.0949 98.8736,75.3409 98.8736,79.3449" id="Fill-1" fill="#487220"></path>
            <path d="M98.8736,79.3449 L98.8736,100.0679 C98.8736,102.0659 98.0616,103.8839 96.7516,105.1959 L65.7736,74.2179 C67.0846,72.9069 68.8946,72.0949 70.8926,72.0949 L91.6336,72.0949 C95.6276,72.0949 98.8736,75.3409 98.8736,79.3449" id="Fill-3" fill="#598E2B"></path>
            <path d="M15.2964,113.2746 C10.7254,112.1706 9.7784,109.9646 9.7784,109.9646 C9.7784,109.9646 7.5724,109.0186 6.4694,104.4476 C5.3654,99.8766 7.2574,92.3096 15.2964,86.7936 C18.4804,84.6046 21.7464,82.3476 24.5214,80.4056 C29.3184,77.0706 33.7894,73.2936 37.8884,69.1196 C39.6854,67.2846 41.8104,65.1216 44.1874,62.7186 C47.1124,59.7436 50.4164,56.4016 53.9034,52.8896 C57.0434,49.7236 60.3344,46.4076 63.6514,43.0906 C66.9364,39.8056 70.2464,36.5076 73.4494,33.3426 C86.2364,20.6946 97.3154,10.1206 98.5254,10.1836 L104.9884,14.7546 L109.5604,21.2176 C109.6234,22.4286 99.0494,33.5066 86.4004,46.2946 C83.2354,49.4976 79.9434,52.8006 76.6524,56.0926 C73.3364,59.4096 70.0254,62.6946 66.8544,65.8396 C63.3424,69.3276 60.0004,72.6306 57.0254,75.5566 C54.6224,77.9336 52.4594,80.0586 50.6244,81.8556 C46.4504,85.9546 42.6734,90.4246 39.3384,95.2226 C37.3964,97.9976 35.1394,101.2636 32.9504,104.4476 C27.4344,112.4866 19.8674,114.3786 15.2964,113.2746" id="Fill-5" fill="#684026"></path>
            <path d="M76.6528,56.093 L63.6518,43.091 C66.9358,39.806 70.2468,36.508 73.4498,33.343 L86.4008,46.294 C83.2358,49.497 79.9438,52.801 76.6528,56.093" id="Fill-7" fill="#C17D49"></path>
            <path d="M76.6528,56.093 C73.3368,59.409 70.0258,62.695 66.8538,65.84 L53.9038,52.89 C57.0438,49.724 60.3348,46.407 63.6518,43.091 L76.6528,56.093 Z" id="Fill-9" fill="#A36333"></path>
            <path d="M66.854,65.8401 C63.342,69.3271 60,72.6311 57.025,75.5571 L44.187,62.7191 C47.113,59.7431 50.417,56.4021 53.904,52.8901 L66.854,65.8401 Z" id="Fill-11" fill="#C17D49"></path>
            <g id="Group-15" transform="translate(41.000000, 0.000000)">
                <mask id="mask-2" fill="white">
                    <use xlink:href="#path-1"></use>
                </mask>
                <g id="Clip-14"></g>
                <path d="M75.1802,78.3694 C69.6322,75.3434 58.0622,67.3534 38.1372,46.5974 L35.0782,43.6654 L32.1472,40.6064 C11.3902,20.6814 3.4022,9.1114 0.3742,3.5634 C-0.5778,1.8294 0.8672,-0.2576 2.8272,0.0264 C4.1262,0.2154 5.4002,0.4174 6.6422,0.6254 L6.6492,0.6314 C42.8662,6.7604 56.7382,22.0064 56.7382,22.0064 C56.7382,22.0064 71.9842,35.8784 78.1132,72.0954 L78.1182,72.1014 C78.3262,73.3444 78.5292,74.6174 78.7182,75.9164 C79.0012,77.8774 76.9142,79.3214 75.1802,78.3694" id="Fill-13" fill="#D6D6D6" mask="url(#mask-2)"></path>
            </g>
            <path d="M119.1128,72.0949 C112.9588,68.3369 101.8548,59.9699 84.1808,41.5529 L81.1238,38.6199 L78.1908,35.5629 C59.7738,17.8889 51.4068,6.7849 47.6488,0.6309 C83.8658,6.7599 97.7378,22.0059 97.7378,22.0059 C97.7378,22.0059 112.9838,35.8779 119.1128,72.0949" id="Fill-16" fill="#AAAAAA"></path>
            <g id="Group-20" transform="translate(83.000000, 84.000000)">
                <mask id="mask-4" fill="white">
                    <use xlink:href="#path-3"></use>
                </mask>
                <g id="Clip-19"></g>
                <path d="M35.603,8.0276 L35.603,28.7506 C35.603,30.7486 34.791,32.5666 33.481,33.8786 C32.169,35.1886 30.36,36.0006 28.362,36.0006 L7.622,36.0006 C3.626,36.0006 0.38,32.7546 0.38,28.7506 L0.38,8.0276 C0.38,6.0306 1.192,4.2116 2.502,2.9006 C3.814,1.5896 5.624,0.7776 7.622,0.7776 L28.362,0.7776 C32.357,0.7776 35.603,4.0236 35.603,8.0276" id="Fill-18" fill="#598E2B" mask="url(#mask-4)"></path>
            </g>
            <path d="M118.603,92.0276 L118.603,112.7506 C118.603,114.7486 117.791,116.5666 116.481,117.8786 L85.502,86.9006 C86.814,85.5896 88.624,84.7776 90.622,84.7776 L111.362,84.7776 C115.357,84.7776 118.603,88.0236 118.603,92.0276" id="Fill-21" fill="#74B244"></path>
            <path d="M32.563,48.2756 L32.563,57.5036 C32.563,58.3926 32.202,59.2026 31.619,59.7866 C31.035,60.3696 30.228,60.7306 29.339,60.7306 L20.104,60.7306 C18.325,60.7306 16.88,59.2856 16.88,57.5036 L16.88,48.2756 C16.88,47.3856 17.241,46.5766 17.825,45.9926 C18.409,45.4096 19.214,45.0476 20.104,45.0476 L29.339,45.0476 C31.118,45.0476 32.563,46.4936 32.563,48.2756" id="Fill-23" fill="#74B244"></path>
            <path d="M32.563,48.2756 L32.563,57.5036 C32.563,58.3926 32.202,59.2026 31.619,59.7866 L17.825,45.9926 C18.409,45.4096 19.214,45.0476 20.104,45.0476 L29.339,45.0476 C31.118,45.0476 32.563,46.4936 32.563,48.2756" id="Fill-25" fill="#93C666"></path>
            <path d="M69.5864,104.7346 L69.5864,114.4706 C69.5864,115.4106 69.2054,116.2646 68.5894,116.8806 C67.9734,117.4966 67.1224,117.8786 66.1844,117.8786 L56.4394,117.8786 C54.5624,117.8786 53.0364,116.3526 53.0364,114.4706 L53.0364,104.7346 C53.0364,103.7966 53.4184,102.9406 54.0334,102.3256 C54.6494,101.7096 55.5004,101.3276 56.4394,101.3276 L66.1844,101.3276 C68.0624,101.3276 69.5864,102.8526 69.5864,104.7346" id="Fill-27" fill="#74B244"></path>
            <path d="M69.5864,104.7346 L69.5864,114.4706 C69.5864,115.4106 69.2054,116.2646 68.5894,116.8806 L54.0334,102.3256 C54.6494,101.7096 55.5004,101.3276 56.4394,101.3276 L66.1844,101.3276 C68.0624,101.3276 69.5864,102.8526 69.5864,104.7346" id="Fill-29" fill="#93C666"></path>
            <g id="Group-33" transform="translate(0.000000, 56.000000)">
                <mask id="mask-6" fill="white">
                    <use xlink:href="#path-5"></use>
                </mask>
                <g id="Clip-32"></g>
                <path d="M22.4107,4.8713 L22.4107,18.0573 C22.4107,19.3273 21.8947,20.4853 21.0607,21.3193 C20.2267,22.1533 19.0747,22.6693 17.8047,22.6693 L4.6067,22.6693 C2.0647,22.6693 -0.0003,20.6043 -0.0003,18.0573 L-0.0003,4.8713 C-0.0003,3.6003 0.5157,2.4423 1.3497,1.6083 C2.1837,0.7743 3.3367,0.2593 4.6067,0.2593 L17.8047,0.2593 C20.3467,0.2593 22.4107,2.3233 22.4107,4.8713" id="Fill-31" fill="#598E2B" mask="url(#mask-6)"></path>
            </g>
            <path d="M22.4107,60.8713 L22.4107,74.0573 C22.4107,75.3273 21.8947,76.4853 21.0607,77.3193 L1.3497,57.6083 C2.1837,56.7743 3.3367,56.2593 4.6067,56.2593 L17.8047,56.2593 C20.3467,56.2593 22.4107,58.3233 22.4107,60.8713" id="Fill-34" fill="#74B244"></path>
        </g>
    </g>
</svg>