<?xml version="1.0" encoding="UTF-8"?>
<svg width="120px" height="120px" viewBox="0 0 120 120" version="1.1" xmlns="http://www.w3.org/2000/svg" xmlns:xlink="http://www.w3.org/1999/xlink">
    <!-- Generator: Sketch 51.1 (57501) - http://www.bohemiancoding.com/sketch -->
    <title>Sculpture1</title>
    <desc>Created with Sketch.</desc>
    <defs>
        <polygon id="path-1" points="0 94.2083333 119.342781 94.2083333 119.342781 0.415625 0 0.415625"></polygon>
    </defs>
    <g id="Sculpture1" stroke="none" stroke-width="1" fill="none" fill-rule="evenodd">
        <g id="Page-1" transform="translate(0.000000, 12.000000)">
            <polygon id="Fill-1" fill="#708B99" points="20.7830464 59.2340833 31.4264901 59.2340833 31.4264901 15.8000833 20.7830464 15.8000833"></polygon>
            <polygon id="Fill-2" fill="#708B99" points="39.1096689 59.2340833 49.7531126 59.2340833 49.7531126 37.5162917 39.1096689 37.5162917"></polygon>
            <polygon id="Fill-3" fill="#708B99" points="53.7703311 59.2340833 64.4137748 59.2340833 64.4137748 26.7836667 53.7703311 26.7836667"></polygon>
            <polygon id="Fill-4" fill="#708B99" points="69.8829139 59.2332917 80.5263576 59.2332917 80.5263576 0.791666667 69.8829139 0.791666667"></polygon>
            <polygon id="Fill-5" fill="#708B99" points="87.3655629 59.2340833 98.0090066 59.2340833 98.0090066 24.7467083 87.3655629 24.7467083"></polygon>
            <polygon id="Fill-6" fill="#5F7782" points="20.7830464 59.2340833 31.4264901 59.2340833 31.4264901 41.5419167 20.7830464 41.5419167"></polygon>
            <polygon id="Fill-7" fill="#5F7782" points="39.1096689 59.2340833 49.7531126 59.2340833 49.7531126 50.388 39.1096689 50.388"></polygon>
            <polygon id="Fill-8" fill="#5F7782" points="53.7703311 59.2340833 64.4137748 59.2340833 64.4137748 46.0164167 53.7703311 46.0164167"></polygon>
            <polygon id="Fill-9" fill="#5F7782" points="69.8829139 59.2340833 80.5263576 59.2340833 80.5263576 35.4294583 69.8829139 35.4294583"></polygon>
            <polygon id="Fill-10" fill="#5F7782" points="87.3655629 59.2340833 98.0090066 59.2340833 98.0090066 45.18675 87.3655629 45.18675"></polygon>
            <g id="Group-141" transform="translate(0.000000, 0.376042)">
                <path d="M27.3792318,43.8246083 C27.6979073,44.4959417 27.8759205,45.24565 27.8759205,46.0373167 C27.8759205,48.8984 25.5474437,51.218775 22.674596,51.218775 C21.879894,51.218775 21.1273113,51.04065 20.453404,50.7239833 C21.2870464,52.4791083 23.0806887,53.693525 25.1588344,53.693525 C28.0308874,53.693525 30.3601589,51.37315 30.3601589,48.511275 C30.3601589,46.4410667 29.1410861,44.6550667 27.3792318,43.8246083" id="Fill-11" fill="#498451"></path>
                <path d="M27.8759205,46.0372375 C27.8759205,45.2455708 27.6979073,44.4958625 27.3792318,43.8245292 C26.7053245,43.5078625 25.9527417,43.3297375 25.1588344,43.3297375 C22.2859868,43.3297375 19.9567152,45.6501125 19.9567152,48.5111958 C19.9567152,49.3028625 20.1355232,50.0525708 20.453404,50.7239042 C21.1273113,51.0405708 21.879894,51.2186958 22.674596,51.2186958 C25.5474437,51.2186958 27.8759205,48.8983208 27.8759205,46.0372375" id="Fill-13" fill="#58A565"></path>
                <path d="M25.1091656,49.9306542 L22.9698278,48.3330708 C22.8410861,48.2372792 22.8140662,48.0551958 22.9102252,47.9269458 C23.0071788,47.7986958 23.1899603,47.7717792 23.318702,47.8683625 L25.4588344,49.4651542 C25.5883709,49.5617375 25.614596,49.7438208 25.5176424,49.8720708 C25.4214834,50.0003208 25.2379073,50.0264458 25.1091656,49.9306542" id="Fill-15" fill="#664634"></path>
                <path d="M25.5476821,45.8733625 L24.7768212,45.8733625 C24.6933775,45.8733625 24.5264901,46.1171958 24.4629139,46.1607375 C24.5662252,46.2319875 24.5439735,46.5684458 24.5439735,46.7030292 L24.5439735,58.0650292 L25.8162914,58.0650292 L25.8162914,46.7030292 C25.8162914,46.4845292 25.7662252,45.8733625 25.5476821,45.8733625" id="Fill-17" fill="#724F3D"></path>
                <path d="M24.5442119,46.3774167 C24.4409007,46.4486667 24.5442119,46.5682083 24.5442119,46.7027917 L24.5442119,58.417875 L24.5442119,46.7027917 C24.5442119,46.5682083 24.6483179,46.4486667 24.5442119,46.3774167" id="Fill-19" fill="#895F4C"></path>
                <path d="M28.1071788,50.275425 L26.0051921,51.9220917 C25.8788344,52.02105 25.6952583,51.999675 25.5959205,51.8730083 C25.4965828,51.7463417 25.5180397,51.5642583 25.6443974,51.4645083 L27.7471788,49.8186333 C27.8735364,49.719675 28.0571126,49.74105 28.1564503,49.866925 C28.2557881,49.9943833 28.2343311,50.1764667 28.1071788,50.275425" id="Fill-21" fill="#664634"></path>
                <path d="M27.3792318,43.8246083 C27.6979073,44.4959417 27.8759205,45.24565 27.8759205,46.0373167 C27.8759205,48.8984 25.5474437,51.218775 22.674596,51.218775 C21.879894,51.218775 21.1273113,51.04065 20.453404,50.7239833 C21.2870464,52.4791083 23.0806887,53.693525 25.1588344,53.693525 C28.0308874,53.693525 30.3601589,51.37315 30.3601589,48.511275 C30.3601589,46.4410667 29.1410861,44.6550667 27.3792318,43.8246083" id="Fill-23" fill="#231F20"></path>
                <path d="M27.8759205,46.0372375 C27.8759205,45.2455708 27.6979073,44.4958625 27.3792318,43.8245292 C26.7053245,43.5078625 25.9527417,43.3297375 25.1588344,43.3297375 C22.2859868,43.3297375 19.9567152,45.6501125 19.9567152,48.5111958 C19.9567152,49.3028625 20.1355232,50.0525708 20.453404,50.7239042 C21.1273113,51.0405708 21.879894,51.2186958 22.674596,51.2186958 C25.5474437,51.2186958 27.8759205,48.8983208 27.8759205,46.0372375" id="Fill-25" fill="#231F20"></path>
                <path d="M25.1091656,49.9306542 L22.9698278,48.3330708 C22.8410861,48.2372792 22.8140662,48.0551958 22.9102252,47.9269458 C23.0071788,47.7986958 23.1899603,47.7717792 23.318702,47.8683625 L25.4588344,49.4651542 C25.5883709,49.5617375 25.614596,49.7438208 25.5176424,49.8720708 C25.4214834,50.0003208 25.2379073,50.0264458 25.1091656,49.9306542" id="Fill-27" fill="#231F20"></path>
                <path d="M25.5476821,45.8733625 L24.7768212,45.8733625 C24.6933775,45.8733625 24.5264901,46.1171958 24.4629139,46.1607375 C24.5662252,46.2319875 24.5439735,46.5684458 24.5439735,46.7030292 L24.5439735,58.0650292 L25.8162914,58.0650292 L25.8162914,46.7030292 C25.8162914,46.4845292 25.7662252,45.8733625 25.5476821,45.8733625" id="Fill-29" fill="#231F20"></path>
                <path d="M24.5442119,46.3774167 C24.4409007,46.4486667 24.5442119,46.5682083 24.5442119,46.7027917 L24.5442119,58.417875 L24.5442119,46.7027917 C24.5442119,46.5682083 24.6483179,46.4486667 24.5442119,46.3774167" id="Fill-31" fill="#231F20"></path>
                <path d="M28.1071788,50.275425 L26.0051921,51.9220917 C25.8788344,52.02105 25.6952583,51.999675 25.5959205,51.8730083 C25.4965828,51.7463417 25.5180397,51.5642583 25.6443974,51.4645083 L27.7471788,49.8186333 C27.8735364,49.719675 28.0571126,49.74105 28.1564503,49.866925 C28.2557881,49.9943833 28.2343311,50.1764667 28.1071788,50.275425" id="Fill-33" fill="#231F20"></path>
                <path d="M35.2385166,30.6005292 C35.8583841,31.9067792 36.2056689,33.3674042 36.2056689,34.9087792 C36.2056689,40.4821125 31.6703046,45.0001542 26.0763974,45.0001542 C24.5283179,45.0001542 23.0628874,44.6549875 21.7508344,44.0366958 C23.3728212,47.4543208 26.8663311,49.8190292 30.9137483,49.8190292 C36.5076556,49.8190292 41.0430199,45.3009875 41.0430199,39.7276542 C41.0430199,35.6964875 38.669245,32.2171125 35.2385166,30.6005292" id="Fill-35" fill="#498451"></path>
                <path d="M36.2055099,34.9090167 C36.2055099,33.3676417 35.8582252,31.9070167 35.2383576,30.6007667 C33.9270993,29.982475 32.4608742,29.6373083 30.9135894,29.6373083 C25.3188874,29.6373083 20.7835232,34.1545583 20.7835232,39.7278917 C20.7835232,41.2692667 21.1300132,42.7298917 21.7514702,44.0361417 C23.0627285,44.655225 24.5289536,45.0003917 26.0762384,45.0003917 C31.6701457,45.0003917 36.2055099,40.48235 36.2055099,34.9090167" id="Fill-37" fill="#58A565"></path>
                <path d="M30.8172715,42.4917583 L26.6498543,39.3813 C26.3987285,39.193675 26.3478675,38.8398 26.5354172,38.5888417 C26.7245563,38.3394667 27.0797881,38.2880083 27.3309139,38.4756333 L31.4983311,41.5853 C31.7502517,41.772925 31.8003179,42.1275917 31.6127682,42.3777583 C31.4252185,42.627925 31.0683974,42.6785917 30.8172715,42.4917583" id="Fill-39" fill="#664634"></path>
                <path d="M31.6709404,35.8986 L30.170543,35.8986 C30.0076291,35.8986 29.6388874,35.7173083 29.5141192,35.8036 C29.7159735,35.9429333 29.6309404,35.943725 29.6309404,36.2065583 L29.6309404,58.0652667 L32.0150464,58.0652667 L32.0150464,36.2065583 C32.0150464,35.7814333 32.0976954,35.8986 31.6709404,35.8986" id="Fill-41" fill="#724F3D"></path>
                <path d="M29.6306225,35.5723542 C29.4287682,35.7116875 29.6306225,35.9436458 29.6306225,36.2064792 L29.6306225,58.0731042 L29.6306225,36.2064792 C29.6306225,35.9436458 29.8324768,35.7116875 29.6306225,35.5723542" id="Fill-43" fill="#895F4C"></path>
                <path d="M36.6564238,43.1635667 L32.5629139,46.3698167 C32.3157616,46.5629833 31.9589404,46.5202333 31.7650331,46.2748167 C31.5711258,46.0286083 31.613245,45.67315 31.8603974,45.4799833 L35.9539073,42.2737333 C36.2010596,42.0805667 36.5578808,42.1241083 36.7517881,42.3687333 C36.9456954,42.6149417 36.9035762,42.9704 36.6564238,43.1635667" id="Fill-45" fill="#664634"></path>
                <path d="M85.6579073,43.8246083 C85.9757881,44.4959417 86.154596,45.24565 86.154596,46.0373167 C86.154596,48.8984 83.8253245,51.218775 80.9524768,51.218775 C80.1585695,51.218775 79.4059868,51.04065 78.7320795,50.7239833 C79.5649272,52.4791083 81.3585695,53.693525 83.4367152,53.693525 C86.3087682,53.693525 88.6380397,51.37315 88.6380397,48.511275 C88.6380397,46.4410667 87.4197616,44.6550667 85.6579073,43.8246083" id="Fill-47" fill="#498451"></path>
                <path d="M86.154596,46.0372375 C86.154596,45.2455708 85.9757881,44.4958625 85.6579073,43.8245292 C84.984,43.5078625 84.2314172,43.3297375 83.4367152,43.3297375 C80.5638675,43.3297375 78.2353907,45.6501125 78.2353907,48.5111958 C78.2353907,49.3028625 78.413404,50.0525708 78.7320795,50.7239042 C79.4059868,51.0405708 80.1585695,51.2186958 80.9524768,51.2186958 C83.8253245,51.2186958 86.154596,48.8983208 86.154596,46.0372375" id="Fill-49" fill="#58A565"></path>
                <path d="M83.3871258,49.9306542 L81.2477881,48.3330708 C81.1190464,48.2372792 81.0920265,48.0551958 81.1889801,47.9269458 C81.2851391,47.7986958 81.4687152,47.7717792 81.597457,47.8683625 L83.7367947,49.4651542 C83.8663311,49.5617375 83.8925563,49.7438208 83.7963974,49.8720708 C83.6994437,50.0003208 83.5158675,50.0264458 83.3871258,49.9306542" id="Fill-51" fill="#664634"></path>
                <path d="M83.8255629,45.8733625 L83.054702,45.8733625 C82.972053,45.8733625 82.8313907,46.1171958 82.7670199,46.1607375 C82.8703311,46.2319875 82.875894,46.5684458 82.875894,46.7030292 L82.875894,58.0650292 L84.1466225,58.0650292 L84.1466225,46.7030292 C84.1466225,46.4845292 84.0449007,45.8733625 83.8255629,45.8733625" id="Fill-53" fill="#724F3D"></path>
                <path d="M82.8756556,46.3774167 C82.7715497,46.4486667 82.8756556,46.5682083 82.8756556,46.7027917 L82.8756556,58.417875 L82.8756556,46.7027917 C82.8756556,46.5682083 82.9789669,46.4486667 82.8756556,46.3774167" id="Fill-55" fill="#895F4C"></path>
                <path d="M86.3858543,50.275425 L84.2830728,51.9220917 C84.1567152,52.02105 83.9739338,51.999675 83.8738013,51.8730083 C83.7744636,51.7463417 83.7959205,51.5642583 83.9222781,51.4645083 L86.0250596,49.8186333 C86.1514172,49.719675 86.3349934,49.74105 86.4351258,49.866925 C86.5344636,49.9943833 86.5122119,50.1764667 86.3858543,50.275425" id="Fill-57" fill="#664634"></path>
                <path d="M85.6579073,43.8246083 C85.9757881,44.4959417 86.154596,45.24565 86.154596,46.0373167 C86.154596,48.8984 83.8253245,51.218775 80.9524768,51.218775 C80.1585695,51.218775 79.4059868,51.04065 78.7320795,50.7239833 C79.5649272,52.4791083 81.3585695,53.693525 83.4367152,53.693525 C86.3087682,53.693525 88.6380397,51.37315 88.6380397,48.511275 C88.6380397,46.4410667 87.4197616,44.6550667 85.6579073,43.8246083" id="Fill-59" fill="#231F20"></path>
                <path d="M86.154596,46.0372375 C86.154596,45.2455708 85.9757881,44.4958625 85.6579073,43.8245292 C84.984,43.5078625 84.2314172,43.3297375 83.4367152,43.3297375 C80.5638675,43.3297375 78.2353907,45.6501125 78.2353907,48.5111958 C78.2353907,49.3028625 78.413404,50.0525708 78.7320795,50.7239042 C79.4059868,51.0405708 80.1585695,51.2186958 80.9524768,51.2186958 C83.8253245,51.2186958 86.154596,48.8983208 86.154596,46.0372375" id="Fill-61" fill="#231F20"></path>
                <path d="M83.3871258,49.9306542 L81.2477881,48.3330708 C81.1190464,48.2372792 81.0920265,48.0551958 81.1889801,47.9269458 C81.2851391,47.7986958 81.4687152,47.7717792 81.597457,47.8683625 L83.7367947,49.4651542 C83.8663311,49.5617375 83.8925563,49.7438208 83.7963974,49.8720708 C83.6994437,50.0003208 83.5158675,50.0264458 83.3871258,49.9306542" id="Fill-63" fill="#231F20"></path>
                <path d="M83.8255629,45.8733625 L83.054702,45.8733625 C82.972053,45.8733625 82.8313907,46.1171958 82.7670199,46.1607375 C82.8703311,46.2319875 82.875894,46.5684458 82.875894,46.7030292 L82.875894,58.0650292 L84.1466225,58.0650292 L84.1466225,46.7030292 C84.1466225,46.4845292 84.0449007,45.8733625 83.8255629,45.8733625" id="Fill-65" fill="#231F20"></path>
                <path d="M82.8756556,46.3774167 C82.7715497,46.4486667 82.8756556,46.5682083 82.8756556,46.7027917 L82.8756556,58.417875 L82.8756556,46.7027917 C82.8756556,46.5682083 82.9789669,46.4486667 82.8756556,46.3774167" id="Fill-67" fill="#231F20"></path>
                <path d="M86.3858543,50.275425 L84.2830728,51.9220917 C84.1567152,52.02105 83.9739338,51.999675 83.8738013,51.8730083 C83.7744636,51.7463417 83.7959205,51.5642583 83.9222781,51.4645083 L86.0250596,49.8186333 C86.1514172,49.719675 86.3349934,49.74105 86.4351258,49.866925 C86.5344636,49.9943833 86.5122119,50.1764667 86.3858543,50.275425" id="Fill-69" fill="#231F20"></path>
                <path d="M93.5164768,30.6005292 C94.1363444,31.9067792 94.4844238,33.3674042 94.4844238,34.9087792 C94.4844238,40.4821125 89.9490596,45.0001542 84.3543576,45.0001542 C82.8062781,45.0001542 81.3408477,44.6549875 80.0287947,44.0366958 C81.6515762,47.4543208 85.1442914,49.8190292 89.1917086,49.8190292 C94.7864106,49.8190292 99.3217748,45.3009875 99.3217748,39.7276542 C99.3217748,35.6964875 96.9472053,32.2171125 93.5164768,30.6005292" id="Fill-71" fill="#498451"></path>
                <path d="M94.4841854,34.9090167 C94.4841854,33.3676417 94.1369007,31.9070167 93.5162384,30.6007667 C92.2049801,29.982475 90.738755,29.6373083 89.1914702,29.6373083 C83.5967682,29.6373083 79.061404,34.1545583 79.061404,39.7278917 C79.061404,41.2692667 79.4086887,42.7298917 80.029351,44.0361417 C81.3406093,44.655225 82.8068344,45.0003917 84.3541192,45.0003917 C89.9488212,45.0003917 94.4841854,40.48235 94.4841854,34.9090167" id="Fill-73" fill="#58A565"></path>
                <path d="M89.095947,42.4917583 L84.9285298,39.3813 C84.6766093,39.193675 84.6257483,38.8398 84.813298,38.5888417 C85.0024371,38.3394667 85.3584636,38.2880083 85.6087947,38.4756333 L89.7762119,41.5853 C90.0281325,41.772925 90.0789934,42.1275917 89.890649,42.3777583 C89.7030993,42.627925 89.3462781,42.6785917 89.095947,42.4917583" id="Fill-75" fill="#664634"></path>
                <path d="M89.9488212,35.8986 L88.4484238,35.8986 C88.2855099,35.8986 87.8635232,35.7173083 87.7395497,35.8036 C87.941404,35.9429333 87.8031258,35.943725 87.8031258,36.2065583 L87.8031258,58.0652667 L90.1872318,58.0652667 L90.1872318,36.2065583 C90.1872318,35.7814333 90.3755762,35.8986 89.9488212,35.8986" id="Fill-77" fill="#724F3D"></path>
                <path d="M87.8029669,35.5723542 C87.6011126,35.7116875 87.8029669,35.9436458 87.8029669,36.2064792 L87.8029669,58.0731042 L87.8029669,36.2064792 C87.8029669,35.9436458 88.0040265,35.7116875 87.8029669,35.5723542" id="Fill-79" fill="#895F4C"></path>
                <path d="M94.9343046,43.1635667 L90.8407947,46.3698167 C90.5936424,46.5629833 90.2368212,46.5202333 90.0429139,46.2748167 C89.8498013,46.0286083 89.8919205,45.67315 90.1390728,45.4799833 L94.2317881,42.2737333 C94.4789404,42.0805667 94.8357616,42.1241083 95.0296689,42.3687333 C95.2235762,42.6149417 95.181457,42.9704 94.9343046,43.1635667" id="Fill-81" fill="#664634"></path>
                <path d="M83.5112583,55.6013625 L34.7189404,55.6013625 L34.7189404,50.6993625 C34.7189404,47.6799458 37.1753642,45.2321125 40.2071523,45.2321125 L78.0230464,45.2321125 C81.0540397,45.2321125 83.5112583,47.6799458 83.5112583,50.6993625 L83.5112583,55.6013625 Z" id="Fill-83" fill="#DDD3CC"></path>
                <path d="M53.9403974,11.0716958 C53.9403974,8.22407083 56.2569536,5.9163625 59.114702,5.9163625 C61.9724503,5.9163625 64.2890066,8.22407083 64.2890066,11.0716958 C64.2890066,13.9185292 61.9724503,16.2262375 59.114702,16.2262375 C56.2569536,16.2262375 53.9403974,13.9185292 53.9403974,11.0716958" id="Fill-85" fill="#363C47"></path>
                <mask id="mask-2" fill="white">
                    <use xlink:href="#path-1"></use>
                </mask>
                <g id="Clip-88"></g>
                <polygon id="Fill-87" fill="#BCAC9C" mask="url(#mask-2)" points="54.2209272 50.300125 56.354702 50.300125 56.354702 16.3241667 54.2209272 16.3241667"></polygon>
                <polygon id="Fill-89" fill="#DDD3CC" mask="url(#mask-2)" points="54.2209272 50.300125 54.8209272 50.300125 54.8209272 16.3241667 54.2209272 16.3241667"></polygon>
                <polygon id="Fill-90" fill="#685D52" mask="url(#mask-2)" points="54.2209272 50.300125 56.354702 50.300125 56.354702 47.0186667 54.2209272 47.0186667"></polygon>
                <polygon id="Fill-91" fill="#96877A" mask="url(#mask-2)" points="54.2209272 25.6175417 56.354702 25.6175417 56.354702 16.3241667 54.2209272 16.3241667"></polygon>
                <polygon id="Fill-92" fill="#7F7166" mask="url(#mask-2)" points="54.2209272 20.9704583 56.354702 20.9704583 56.354702 16.3241667 54.2209272 16.3241667"></polygon>
                <polygon id="Fill-93" fill="#BCAC9C" mask="url(#mask-2)" points="46.3478146 51.33325 71.8839735 51.33325 71.8839735 45.2279167 46.3478146 45.2279167"></polygon>
                <polygon id="Fill-94" fill="#BCAC9C" mask="url(#mask-2)" points="62.077351 50.300125 64.2119205 50.300125 64.2119205 16.3241667 62.077351 16.3241667"></polygon>
                <polygon id="Fill-95" fill="#DDD3CC" mask="url(#mask-2)" points="62.077351 50.300125 62.6781457 50.300125 62.6781457 16.3241667 62.077351 16.3241667"></polygon>
                <polygon id="Fill-96" fill="#685D52" mask="url(#mask-2)" points="62.077351 50.300125 64.2119205 50.300125 64.2119205 47.0186667 62.077351 47.0186667"></polygon>
                <polygon id="Fill-97" fill="#96877A" mask="url(#mask-2)" points="62.077351 25.6175417 64.2119205 25.6175417 64.2119205 16.3241667 62.077351 16.3241667"></polygon>
                <polygon id="Fill-98" fill="#7F7166" mask="url(#mask-2)" points="62.077351 20.9704583 64.2119205 20.9704583 64.2119205 16.3241667 62.077351 16.3241667"></polygon>
                <polygon id="Fill-99" fill="#BCAC9C" mask="url(#mask-2)" points="66.5944371 45.7393333 68.9125828 45.7393333 68.9125828 16.3241667 66.5944371 16.3241667"></polygon>
                <polygon id="Fill-100" fill="#DDD3CC" mask="url(#mask-2)" points="66.5944371 45.7393333 67.2468874 45.7393333 67.2468874 16.3241667 66.5944371 16.3241667"></polygon>
                <polygon id="Fill-101" fill="#685D52" mask="url(#mask-2)" points="66.5944371 45.7393333 68.9125828 45.7393333 68.9125828 42.8988333 66.5944371 42.8988333"></polygon>
                <polygon id="Fill-102" fill="#96877A" mask="url(#mask-2)" points="66.5944371 24.369875 68.9125828 24.369875 68.9125828 16.3241667 66.5944371 16.3241667"></polygon>
                <polygon id="Fill-103" fill="#7F7166" mask="url(#mask-2)" points="66.5944371 20.346625 68.9125828 20.346625 68.9125828 16.3241667 66.5944371 16.3241667"></polygon>
                <polygon id="Fill-104" fill="#BCAC9C" mask="url(#mask-2)" points="50.2672848 45.7393333 52.5854305 45.7393333 52.5854305 16.3241667 50.2672848 16.3241667"></polygon>
                <polygon id="Fill-105" fill="#DDD3CC" mask="url(#mask-2)" points="50.2672848 45.7393333 50.9197351 45.7393333 50.9197351 16.3241667 50.2672848 16.3241667"></polygon>
                <polygon id="Fill-106" fill="#685D52" mask="url(#mask-2)" points="50.2672848 45.7393333 52.5854305 45.7393333 52.5854305 42.8988333 50.2672848 42.8988333"></polygon>
                <polygon id="Fill-107" fill="#96877A" mask="url(#mask-2)" points="50.2672848 24.369875 52.5854305 24.369875 52.5854305 16.3241667 50.2672848 16.3241667"></polygon>
                <polygon id="Fill-108" fill="#7F7166" mask="url(#mask-2)" points="50.2672848 20.346625 52.5854305 20.346625 52.5854305 16.3241667 50.2672848 16.3241667"></polygon>
                <polygon id="Fill-109" fill="#BCAC9C" mask="url(#mask-2)" points="58.0577483 45.7393333 60.375894 45.7393333 60.375894 16.3241667 58.0577483 16.3241667"></polygon>
                <polygon id="Fill-110" fill="#DDD3CC" mask="url(#mask-2)" points="58.0577483 45.7393333 58.709404 45.7393333 58.709404 16.3241667 58.0577483 16.3241667"></polygon>
                <polygon id="Fill-111" fill="#685D52" mask="url(#mask-2)" points="58.0577483 45.7393333 60.375894 45.7393333 60.375894 42.8988333 58.0577483 42.8988333"></polygon>
                <polygon id="Fill-112" fill="#96877A" mask="url(#mask-2)" points="58.0577483 24.369875 60.375894 24.369875 60.375894 16.3241667 58.0577483 16.3241667"></polygon>
                <polygon id="Fill-113" fill="#7F7166" mask="url(#mask-2)" points="58.0577483 20.346625 60.375894 20.346625 60.375894 16.3241667 58.0577483 16.3241667"></polygon>
                <path d="M73.5495894,17.0114917 L45.7922384,17.0114917 L45.7922384,15.436075 C45.7922384,14.7869083 46.3207152,14.2612417 46.9723709,14.2612417 L72.3710464,14.2612417 C73.0219073,14.2612417 73.5495894,14.7869083 73.5495894,15.436075 L73.5495894,17.0114917 Z" id="Fill-114" fill="#CAC8CC" mask="url(#mask-2)"></path>
                <polygon id="Fill-115" fill="#938C9B" mask="url(#mask-2)" points="45.7923179 17.0113333 73.5496689 17.0113333 73.5496689 15.637 45.7923179 15.637"></polygon>
                <path d="M109.598305,70.2526583 L11.1522119,70.2526583 L11.1522119,62.2227833 C11.1522119,58.566075 14.1283709,55.6012833 17.7990993,55.6012833 L102.951417,55.6012833 C106.622146,55.6012833 109.598305,58.566075 109.598305,62.2227833 L109.598305,70.2526583 Z" id="Fill-116" fill="#487C35" mask="url(#mask-2)"></path>
                <polygon id="Fill-117" fill="#335426" mask="url(#mask-2)" points="11.152053 70.2525 109.598146 70.2525 109.598146 64.1978333 11.152053 64.1978333"></polygon>
                <polygon id="Fill-118" fill="#779E67" mask="url(#mask-2)" points="21.653245 57.63175 60.375894 57.63175 60.375894 55.6019167 21.653245 55.6019167"></polygon>
                <polygon id="Fill-119" fill="#779E67" mask="url(#mask-2)" points="66.5944371 57.63175 85.9557616 57.63175 85.9557616 55.6019167 66.5944371 55.6019167"></polygon>
                <polygon id="Fill-120" fill="#DDDABA" mask="url(#mask-2)" points="0 74.0683333 119.342781 74.0683333 119.342781 69.623125 0 69.623125"></polygon>
                <polygon id="Fill-121" fill="#ED7F77" mask="url(#mask-2)" points="26.28 74.0683333 40.4296689 74.0683333 40.4296689 69.623125 26.28 69.623125"></polygon>
                <polygon id="Fill-122" fill="#ED7F77" mask="url(#mask-2)" points="52.56 74.0683333 66.7096689 74.0683333 66.7096689 69.623125 52.56 69.623125"></polygon>
                <polygon id="Fill-123" fill="#ED7F77" mask="url(#mask-2)" points="78.8407947 74.0683333 92.9904636 74.0683333 92.9904636 69.623125 78.8407947 69.623125"></polygon>
                <polygon id="Fill-124" fill="#ED7F77" mask="url(#mask-2)" points="105.121589 74.0683333 119.270464 74.0683333 119.270464 69.623125 105.121589 69.623125"></polygon>
                <polygon id="Fill-125" fill="#44392F" mask="url(#mask-2)" points="0 94.2083333 119.342781 94.2083333 119.342781 74.069125 0 74.069125"></polygon>
                <polygon id="Fill-126" fill="#352C25" mask="url(#mask-2)" points="0 82.372125 119.342781 82.372125 119.342781 74.069125 0 74.069125"></polygon>
                <polygon id="Fill-127" fill="#DDDABA" mask="url(#mask-2)" points="8.37774834 84.1612917 26.6360265 84.1612917 26.6360265 82.372125 8.37774834 82.372125"></polygon>
                <polygon id="Fill-128" fill="#DDDABA" mask="url(#mask-2)" points="34.9056954 84.1612917 53.1647682 84.1612917 53.1647682 82.372125 34.9056954 82.372125"></polygon>
                <polygon id="Fill-129" fill="#DDDABA" mask="url(#mask-2)" points="61.4352318 84.1612917 79.6943046 84.1612917 79.6943046 82.372125 61.4352318 82.372125"></polygon>
                <polygon id="Fill-130" fill="#DDDABA" mask="url(#mask-2)" points="87.9639735 84.1612917 106.223046 84.1612917 106.223046 82.372125 87.9639735 82.372125"></polygon>
                <polygon id="Fill-131" fill="#C6BC75" mask="url(#mask-2)" points="8.37774834 84.1985 26.6360265 84.1985 26.6360265 83.2279167 8.37774834 83.2279167"></polygon>
                <polygon id="Fill-132" fill="#C6BC75" mask="url(#mask-2)" points="34.9056954 84.1985 53.1647682 84.1985 53.1647682 83.2279167 34.9056954 83.2279167"></polygon>
                <polygon id="Fill-133" fill="#C6BC75" mask="url(#mask-2)" points="61.4352318 84.1985 79.6943046 84.1985 79.6943046 83.2279167 61.4352318 83.2279167"></polygon>
                <polygon id="Fill-134" fill="#C6BC75" mask="url(#mask-2)" points="87.9639735 84.1985 106.223046 84.1985 106.223046 83.2279167 87.9639735 83.2279167"></polygon>
                <polygon id="Fill-135" fill="#ED7F77" mask="url(#mask-2)" points="0 74.0683333 14.1488742 74.0683333 14.1488742 69.623125 0 69.623125"></polygon>
                <polygon id="Fill-136" fill="#C96A67" mask="url(#mask-2)" points="26.28 74.0683333 40.4296689 74.0683333 40.4296689 71.8453333 26.28 71.8453333"></polygon>
                <polygon id="Fill-137" fill="#C96A67" mask="url(#mask-2)" points="52.56 74.0683333 66.7096689 74.0683333 66.7096689 71.8453333 52.56 71.8453333"></polygon>
                <polygon id="Fill-138" fill="#C96A67" mask="url(#mask-2)" points="78.8407947 74.0683333 92.9904636 74.0683333 92.9904636 71.8453333 78.8407947 71.8453333"></polygon>
                <polygon id="Fill-139" fill="#C96A67" mask="url(#mask-2)" points="105.121589 74.0683333 119.270464 74.0683333 119.270464 71.8453333 105.121589 71.8453333"></polygon>
                <polygon id="Fill-140" fill="#C96A67" mask="url(#mask-2)" points="0 74.0683333 14.1488742 74.0683333 14.1488742 71.8453333 0 71.8453333"></polygon>
            </g>
        </g>
    </g>
</svg>