<?xml version="1.0" encoding="UTF-8"?>
<svg width="120px" height="120px" viewBox="0 0 120 120" version="1.1" xmlns="http://www.w3.org/2000/svg" xmlns:xlink="http://www.w3.org/1999/xlink">
    <!-- Generator: Sketch 51.1 (57501) - http://www.bohemiancoding.com/sketch -->
    <title>Monkey1</title>
    <desc>Created with Sketch.</desc>
    <defs>
        <polygon id="path-1" points="0.162500919 0.175568182 21.1078479 0.175568182 21.1078479 21.6944661 0.162500919 21.6944661"></polygon>
        <polygon id="path-3" points="0 0.0886243515 22.265324 0.0886243515 22.265324 22.5742841 0 22.5742841"></polygon>
    </defs>
    <g id="Monkey1" stroke="none" stroke-width="1" fill="none" fill-rule="evenodd">
        <g id="Group" transform="translate(14.000000, 0.000000)">
            <path d="M86.1511764,96.6739432 C80.5191469,88.8309886 72.655014,90.1612159 66.5833535,93.0701932 C66.7313683,90.8788295 66.6970804,88.6905341 66.5480472,86.5936023 C70.1306155,86.7262159 74.5622317,84.9412159 78.1661875,82.7137159 C83.3898185,79.6438295 78.5599882,75.6838295 72.2493314,77.962125 C68.2257742,79.3976932 65.2559734,76.1113295 64.7382613,75.4874659 C64.1108959,72.974625 63.5741727,71.4268977 63.5741727,71.4268977 L29.0684015,72.4162159 C29.0684015,72.4162159 27.6836487,76.4539432 26.636003,81.8805341 C25.4226893,82.473375 23.1474716,82.8432614 20.3901875,79.7426932 C16.249848,75.1895114 14.5751764,74.5956477 12.7989993,77.0720114 C11.1243277,79.4461023 17.8291247,90.5345114 24.3336266,90.0398523 C24.7848,90.0054205 25.1965934,89.954625 25.5788517,89.8922386 C25.3300103,93.8645114 25.5479587,97.9141705 26.7011838,101.32633 C26.9184531,101.947807 27.2209328,102.540648 27.5919882,103.106898 C23.1274421,106.930875 21.7063646,116.783489 23.8410362,118.158716 C26.3070435,119.741557 27.6860251,118.653716 29.8566819,112.909739 C31.4926524,108.43292 34.1915454,108.399511 35.4214937,108.65417 C40.8990583,110.704398 47.917538,111.255307 53.7936561,109.919966 C53.8001063,109.927125 53.806217,109.935648 53.8126672,109.942466 C53.8126672,109.942466 53.8788664,109.911784 53.9976856,109.870534 C54.2173314,109.819057 54.4352797,109.764852 54.6511911,109.70758 C55.9520915,109.495534 58.4690214,109.714057 60.0248738,113.902125 C62.1955306,119.642693 63.6726229,120.730534 66.0401801,119.148034 C68.0519587,117.855307 66.9065417,109.095307 63.0326967,104.852011 C63.4434716,104.357352 63.8087557,103.829284 64.1237963,103.266443 C67.6194568,100.468261 75.8600768,95.024625 80.1358701,100.930875 C82.3065269,104.00042 82.5034273,106.575648 81.7154863,108.158489 C81.518586,108.653148 81.1241063,109.048602 80.8287557,109.345534 C80.5334052,109.543261 80.3365048,109.642125 80.0408148,109.642125 C79.6432797,109.642125 79.1510288,109.147466 78.6584384,108.158489 C77.8701579,106.279057 75.6017299,105.484398 73.8286081,106.37792 C71.9536413,107.16917 71.1653609,109.345534 71.9536413,111.228034 C73.8286081,115.287239 76.8853166,116.968602 80.0408148,116.968602 C81.7154863,117.067466 83.4882686,116.473943 84.9694347,115.386102 C86.3484162,114.495648 87.5335528,113.107466 88.4202834,111.425761 C90.1930657,107.66383 90.1930657,102.315648 86.1511764,96.6739432" id="Fill-1" fill="#CEC5B6"></path>
            <path d="M71.8550893,78.061125 C71.9535395,78.061125 72.1504399,77.9622614 72.2492295,77.9622614 C78.5598863,75.683625 83.3900561,79.6439659 78.1660856,82.7135114 C77.0824546,83.4058977 75.8969786,83.9994205 74.7152369,84.5963523 C74.6167867,84.5963523 68.6995911,81.5264659 71.8550893,78.061125" id="Fill-3" fill="#F9E1D4"></path>
            <path d="M79.249445,109.048568 C79.0525446,108.850841 78.8556443,108.55425 78.6584044,108.158455 C77.8704635,106.279023 75.6016959,105.484364 73.8285742,106.377886 C71.9536074,107.169136 71.1656664,109.3455 71.9536074,111.228341 C72.6430982,112.613114 73.4344339,113.803227 74.3208251,114.594818 C74.3208251,114.594818 80.434921,115.188341 79.249445,109.048568" id="Fill-5" fill="#F9E1D4"></path>
            <path d="M35.277417,74.1999205 C35.277417,74.1999205 27.6862288,81.3286705 30.2503469,92.1204886 C34.489476,109.642193 56.0812989,107.268102 61.0099188,95.6846932 C61.998155,93.4067386 62.293845,90.3368523 61.8997048,86.179125 C60.7145683,74.299125 56.6723395,72.4162841 56.6723395,72.4162841 L35.277417,74.1999205 Z" id="Fill-7" fill="#FEFEFE"></path>
            <g id="Group-11" transform="translate(70.612546, 0.165341)">
                <mask id="mask-2" fill="white">
                    <use xlink:href="#path-1"></use>
                </mask>
                <g id="Clip-10"></g>
                <path d="M0.257566052,12.2541477 C0.257566052,12.2541477 3.80686494,0.275284091 9.42837048,0.176420455 C15.1449314,0.0772159091 24.6107469,6.70960227 19.7775218,16.7105114 C14.9476915,26.6101705 -1.22020517,19.9760795 0.257566052,12.2541477" id="Fill-9" fill="#CEC5B6" mask="url(#mask-2)"></path>
            </g>
            <path d="M75.601662,15.192375 C75.601662,15.192375 73.9269904,8.95407955 79.1509609,6.38055682 C84.2795365,3.70817045 89.503507,9.74703409 86.2498982,14.7969205 C82.9959498,19.7458977 76.2908133,17.5681705 75.601662,15.192375" id="Fill-12" fill="#FEFEFE"></path>
            <g id="Group-16" transform="translate(0.000000, 1.528977)">
                <mask id="mask-4" fill="white">
                    <use xlink:href="#path-3"></use>
                </mask>
                <g id="Clip-15"></g>
                <path d="M22.265324,12.4748523 C22.265324,12.4748523 21.2801432,0.495988636 13.4883203,0.0984886364 C5.60144207,-0.198102273 -0.804270111,6.23826136 0.0821210332,13.3666705 C0.968851661,20.3965568 8.65849004,22.5742841 12.9957299,22.5742841 C17.3333092,22.5742841 22.265324,12.4748523 22.265324,12.4748523" id="Fill-14" fill="#CEC5B6" mask="url(#mask-4)"></path>
            </g>
            <path d="M18.4202672,14.8957159 C18.4202672,14.8957159 18.2233668,9.64810227 13.9845771,7.76730682 C9.74205314,5.88582955 5.60137417,10.7362841 5.89706421,14.3004886 C6.09396458,17.9638977 11.9123705,20.8357159 13.9845771,20.4402614 C16.05271,20.0427614 18.4202672,14.8957159 18.4202672,14.8957159" id="Fill-17" fill="#FEFEFE"></path>
            <path d="M25.4204487,9.25073864 C25.4204487,9.25073864 5.79864797,15.8848295 4.51811661,33.7065341 C3.23758524,51.6271023 8.0674155,69.943125 29.758028,75.8814205 C51.5470908,81.7242614 86.052862,75.4859659 88.4200797,51.4276705 C90.8826923,27.3690341 79.3480649,11.034375 68.0099985,8.45948864 C56.6726111,5.78710227 33.898707,6.67721591 25.4204487,9.25073864" id="Fill-19" fill="#CEC5B6"></path>
            <path d="M17.5304472,70.1412955 C20.8828458,72.6139091 24.9281299,74.5956136 29.7582996,75.8815227 C46.5168974,80.4384545 70.9685284,77.6655 82.3065948,65.1885682 C90.9844694,49.3485682 76.0940487,48.9531136 76.0940487,48.9531136 C76.0940487,48.9531136 84.1812221,30.3401591 72.4462996,21.4291364 C60.6159823,12.5184545 45.2360266,29.5489091 45.2360266,29.5489091 C45.2360266,29.5489091 41.5882775,18.5590227 23.3488531,21.4291364 C5.1090893,24.3009545 15.5600856,48.85425 15.5600856,48.85425 C2.84337712,57.3691364 16.8409565,69.5477727 17.5304472,70.1412955" id="Fill-21" fill="#FEFEFE"></path>
            <path d="M18.8141018,78.061125 C15.7573934,75.0901023 14.2799616,74.9912386 12.7987956,77.0721477 C12.1093048,78.061125 12.8972458,80.5374886 14.3784118,83.0104432 C17.7308103,82.7135114 18.6172015,80.1382841 18.8141018,78.061125" id="Fill-23" fill="#F9E1D4"></path>
            <path d="M62.7861638,50.63625 C65.6463114,50.63625 68.0101343,47.0720455 68.0101343,42.7165909 C68.0101343,38.35875 65.6463114,34.7945455 62.7861638,34.7945455 C59.9263557,34.7945455 57.559138,38.35875 57.559138,42.7165909 C57.559138,47.0720455 59.9263557,50.63625 62.7861638,50.63625" id="Fill-25" fill="#47362B"></path>
            <path d="M26.8980502,51.3287386 C29.7581978,51.3287386 32.1220207,47.7645341 32.1220207,43.4087386 C32.1220207,39.0529432 29.7581978,35.4887386 26.8980502,35.4887386 C23.9394524,35.4887386 21.5756295,39.0529432 21.5756295,43.4087386 C21.5756295,47.7645341 23.9394524,51.3287386 26.8980502,51.3287386" id="Fill-27" fill="#47362B"></path>
            <path d="M21.1782303,32.4189205 C21.1782303,32.4189205 23.1516472,28.0634659 28.2771675,28.558125 C28.2771675,28.558125 21.8711159,24.598125 21.1782303,32.4189205" id="Fill-29" fill="#47362B"></path>
            <path d="M72.5479749,32.4189205 C72.5479749,32.4189205 70.5748974,28.0634659 65.4493771,28.558125 C65.4493771,28.558125 71.8550893,24.598125 72.5479749,32.4189205" id="Fill-31" fill="#47362B"></path>
            <path d="M44.9407439,59.0524432 L44.8422937,59.4482386 C44.8422937,59.4482386 45.1376443,60.0414205 45.1376443,61.3276705 C45.1376443,62.6169886 44.5466037,64.0017614 43.7590022,64.0017614 C42.8685373,64.0017614 42.9673269,64.3975568 43.1676221,64.3975568 C43.3645225,64.4964205 45.1376443,64.7930114 45.5317845,64.7930114 L47.1114007,64.7930114 L47.7021018,64.3975568 L47.7021018,64.100625 C47.7021018,64.100625 46.9107661,63.8040341 46.8153712,62.8147159 C46.6154155,61.726875 46.5169653,59.9425568 47.4067513,59.2501705 C48.1946923,58.6552841 46.3197255,58.4572159 46.3197255,58.4572159 L44.9407439,59.0524432 Z" id="Fill-33" fill="#47362B"></path>
            <path d="M46.3198952,60.9317727 C46.3198952,60.9317727 45.4331646,61.3275682 42.868707,59.2500682 C40.4064339,57.2687045 39.4178583,56.5763182 39.9138435,55.4881364 C40.3076443,54.2993864 45.925755,53.6056364 48.6871129,54.1016591 C51.3500207,54.6951818 51.6457107,56.4774545 51.0543306,57.4681364 C50.4636295,58.4571136 48.5886627,59.8439318 46.3198952,60.9317727" id="Fill-35" fill="#47362B"></path>
            <path d="M22.7576428,64.5952159 C27.5878125,64.5952159 31.5312517,62.1222614 31.5312517,59.052375 C31.5312517,55.9828295 27.5878125,53.4076023 22.7576428,53.4076023 C17.9274731,53.4076023 13.9843734,55.9828295 13.9843734,59.052375 C13.9843734,62.1222614 17.9274731,64.5952159 22.7576428,64.5952159" id="Fill-37" fill="#F9CACF"></path>
            <path d="M68.9001919,52.3194886 C73.8288118,52.3194886 77.6734613,54.8930114 77.6734613,57.9628977 C77.6734613,61.0310795 73.8288118,63.5071023 68.9001919,63.5071023 C64.0669668,63.5071023 60.1231882,61.0310795 60.1231882,57.9628977 C60.1231882,54.8930114 64.0669668,52.3194886 68.9001919,52.3194886" id="Fill-39" fill="#F9CACF"></path>
            <path d="M33.8985712,55.2904432 C33.8985712,55.2904432 37.2509697,64.1994205 46.0242391,64.1994205 C54.8993535,64.1994205 56.9678258,55.5870341 57.2631764,54.9918068 C57.5588664,54.2994205 57.066276,60.1405568 53.7138775,63.2101023 C50.361479,66.181125 41.4897594,66.181125 37.940121,62.9135114 C34.292372,59.6458977 33.8985712,55.2904432 33.8985712,55.2904432" id="Fill-41" fill="#47362B"></path>
            <path d="M29.0685712,114.990511 C27.2923941,118.851307 25.9130731,119.543693 23.8412059,118.15892 C22.8560251,117.466875 22.6591247,114.891307 23.1517151,111.920625 C26.4056635,111.030511 28.1787852,113.10767 29.0685712,114.990511" id="Fill-43" fill="#F9E1D4"></path>
            <path d="M60.9114007,115.979591 C62.5891277,119.93925 63.9684487,120.532773 66.0399764,119.148 C67.1236074,118.455955 67.3208472,115.880727 66.7298066,113.008568 C63.5743085,112.019591 61.8011867,114.199023 60.9114007,115.979591" id="Fill-45" fill="#F9E1D4"></path>
        </g>
    </g>
</svg>