<?xml version="1.0" encoding="UTF-8"?>
<svg width="120px" height="120px" viewBox="0 0 120 120" version="1.1" xmlns="http://www.w3.org/2000/svg" xmlns:xlink="http://www.w3.org/1999/xlink">
    <!-- Generator: Sketch 51.1 (57501) - http://www.bohemiancoding.com/sketch -->
    <title>Apartment38</title>
    <desc>Created with Sketch.</desc>
    <defs></defs>
    <g id="Apartment38" stroke="none" stroke-width="1" fill="none" fill-rule="evenodd">
        <g id="Page-1" transform="translate(0.000000, 25.000000)">
            <polygon id="Fill-1" fill="#CBC1B1" points="10.2781034 61.3697246 109.294138 61.3697246 109.294138 24.6189928 10.2781034 24.6189928"></polygon>
            <polygon id="Fill-2" fill="#989185" points="10.2784655 24.6193014 10.2784655 26.2204029 10.2784655 27.8256203 109.2945 27.8256203 109.2945 26.2204029 109.2945 24.6193014"></polygon>
            <polygon id="Fill-3" fill="#D5CDC1" points="10.2781034 29.4300145 109.294138 29.4300145 109.294138 27.8227391 10.2781034 27.8227391"></polygon>
            <polygon id="Fill-4" fill="#D5CDC1" points="10.2781034 32.6342754 109.294138 32.6342754 109.294138 31.0321449 10.2781034 31.0321449"></polygon>
            <polygon id="Fill-5" fill="#D5CDC1" points="10.2781034 35.8405942 109.294138 35.8405942 109.294138 34.2384638 10.2781034 34.2384638"></polygon>
            <polygon id="Fill-6" fill="#D5CDC1" points="10.2781034 38.9913478 109.294138 38.9913478 109.294138 37.3902464 10.2781034 37.3902464"></polygon>
            <polygon id="Fill-7" fill="#D5CDC1" points="10.2781034 42.1986957 109.294138 42.1986957 109.294138 40.5975942 10.2781034 40.5975942"></polygon>
            <polygon id="Fill-8" fill="#D5CDC1" points="10.2781034 45.3612826 109.294138 45.3612826 109.294138 43.7601812 10.2781034 43.7601812"></polygon>
            <polygon id="Fill-9" fill="#D5CDC1" points="10.2781034 48.5696594 109.294138 48.5696594 109.294138 46.965471 10.2781034 46.965471"></polygon>
            <polygon id="Fill-10" fill="#D5CDC1" points="10.2781034 51.7744348 109.294138 51.7744348 109.294138 50.1723043 10.2781034 50.1723043"></polygon>
            <polygon id="Fill-11" fill="#D5CDC1" points="10.2781034 54.9812681 109.294138 54.9812681 109.294138 53.3801667 10.2781034 53.3801667"></polygon>
            <polygon id="Fill-12" fill="#D5CDC1" points="10.2781034 58.1340797 109.294138 58.1340797 109.294138 56.5288623 10.2781034 56.5288623"></polygon>
            <polygon id="Fill-13" fill="#D5CDC1" points="10.2781034 61.340913 109.294138 61.340913 109.294138 59.7377536 10.2781034 59.7377536"></polygon>
            <polygon id="Fill-14" fill="#24474C" points="21.1200517 0.000205797101 14.4062586 15.3408362 5.17241379e-05 24.6191986 59.786431 24.6191986 59.786431 0.000205797101"></polygon>
            <polygon id="Fill-15" fill="#24474C" points="2.99586207 70.7828841 116.576379 70.7828841 116.576379 61.3697246 2.99586207 61.3697246"></polygon>
            <polygon id="Fill-16" fill="#122426" points="52.6417241 61.340913 66.932069 61.340913 66.932069 42.1986957 52.6417241 42.1986957"></polygon>
            <polygon id="Fill-17" fill="#FFFFFF" points="54.4825862 53.9260435 55.6525862 53.9260435 55.6525862 50.7881522 54.4825862 50.7881522"></polygon>
            <polygon id="Fill-18" fill="#122426" points="71.6477586 70.7828841 81.1339655 70.7828841 71.6477586 61.3403986"></polygon>
            <polygon id="Fill-19" fill="#EAE6E0" points="47.6852586 61.3405014 42.2614655 70.782987 77.0687069 70.782987 71.6475 61.3405014"></polygon>
            <polygon id="Fill-20" fill="#747474" points="16.2739655 50.0189855 20.5117241 50.0189855 20.5117241 43.8852029 16.2739655 43.8852029"></polygon>
            <polygon id="Fill-21" fill="#747474" points="22.277069 50.0189855 26.5148276 50.0189855 26.5148276 43.8852029 22.277069 43.8852029"></polygon>
            <polygon id="Fill-22" fill="#747474" points="16.2739655 42.1307826 20.5117241 42.1307826 20.5117241 35.9928841 16.2739655 35.9928841"></polygon>
            <polygon id="Fill-23" fill="#747474" points="22.2765517 42.1307826 26.5143103 42.1307826 26.5143103 35.9928841 22.2765517 35.9928841"></polygon>
            <path d="M22.2765517,50.0189855 L26.5143103,50.0189855 L26.5143103,43.8852029 L22.2765517,43.8852029 L22.2765517,50.0189855 Z M16.2739655,50.0189855 L20.5117241,50.0189855 L20.5117241,43.8852029 L16.2739655,43.8852029 L16.2739655,50.0189855 Z M16.2739655,42.1307826 L20.5117241,42.1307826 L20.5117241,35.9928841 L16.2739655,35.9928841 L16.2739655,42.1307826 Z M22.277069,42.1307826 L26.5148276,42.1307826 L26.5148276,35.9928841 L22.277069,35.9928841 L22.277069,42.1307826 Z M14.5122414,34.2384638 L14.5122414,51.7744348 L20.5117241,51.7744348 L22.277069,51.7744348 L28.2765517,51.7744348 L28.2765517,34.2384638 L14.5122414,34.2384638 Z" id="Fill-24" fill="#FFFFFF"></path>
            <polygon id="Fill-25" fill="#747474" points="35.4196552 50.0189855 39.6594828 50.0189855 39.6594828 43.8852029 35.4196552 43.8852029"></polygon>
            <polygon id="Fill-26" fill="#747474" points="41.4237931 50.0189855 45.6594828 50.0189855 45.6594828 43.8852029 41.4237931 43.8852029"></polygon>
            <polygon id="Fill-27" fill="#747474" points="35.4196552 42.1307826 39.6594828 42.1307826 39.6594828 35.9928841 35.4196552 35.9928841"></polygon>
            <polygon id="Fill-28" fill="#747474" points="41.4237931 42.1307826 45.6594828 42.1307826 45.6594828 35.9928841 41.4237931 35.9928841"></polygon>
            <path d="M41.4237931,50.0189855 L45.6594828,50.0189855 L45.6594828,43.8852029 L41.4237931,43.8852029 L41.4237931,50.0189855 Z M35.4196552,50.0189855 L39.6594828,50.0189855 L39.6594828,43.8852029 L35.4196552,43.8852029 L35.4196552,50.0189855 Z M35.4196552,42.1307826 L39.6594828,42.1307826 L39.6594828,35.9928841 L35.4196552,35.9928841 L35.4196552,42.1307826 Z M41.4237931,42.1307826 L45.6594828,42.1307826 L45.6594828,35.9928841 L41.4237931,35.9928841 L41.4237931,42.1307826 Z M33.66,34.2384638 L33.66,51.7744348 L39.6594828,51.7744348 L41.4237931,51.7744348 L47.4243103,51.7744348 L47.4243103,34.2384638 L33.66,34.2384638 Z" id="Fill-29" fill="#FFFFFF"></path>
            <polygon id="Fill-30" fill="#747474" points="73.9065517 50.0189855 78.1474138 50.0189855 78.1474138 43.8852029 73.9065517 43.8852029"></polygon>
            <polygon id="Fill-31" fill="#747474" points="79.9091379 50.0189855 84.1468966 50.0189855 84.1468966 43.8852029 79.9091379 43.8852029"></polygon>
            <polygon id="Fill-32" fill="#747474" points="73.9065517 42.1307826 78.1474138 42.1307826 78.1474138 35.9928841 73.9065517 35.9928841"></polygon>
            <polygon id="Fill-33" fill="#747474" points="79.9091379 42.1307826 84.1468966 42.1307826 84.1468966 35.9928841 79.9091379 35.9928841"></polygon>
            <path d="M79.9091379,50.0189855 L84.1468966,50.0189855 L84.1468966,43.8852029 L79.9091379,43.8852029 L79.9091379,50.0189855 Z M73.9065517,50.0189855 L78.1474138,50.0189855 L78.1474138,43.8852029 L73.9065517,43.8852029 L73.9065517,50.0189855 Z M73.9065517,42.1307826 L78.1474138,42.1307826 L78.1474138,35.9928841 L73.9065517,35.9928841 L73.9065517,42.1307826 Z M79.9091379,42.1307826 L84.1468966,42.1307826 L84.1468966,35.9928841 L79.9091379,35.9928841 L79.9091379,42.1307826 Z M72.1448276,34.2384638 L72.1448276,51.7744348 L78.1474138,51.7744348 L79.9091379,51.7744348 L85.9117241,51.7744348 L85.9117241,34.2384638 L72.1448276,34.2384638 Z" id="Fill-34" fill="#FFFFFF"></path>
            <polygon id="Fill-35" fill="#747474" points="93.2312069 50.0189855 97.472069 50.0189855 97.472069 43.8852029 93.2312069 43.8852029"></polygon>
            <polygon id="Fill-36" fill="#747474" points="99.2343103 50.0189855 103.472069 50.0189855 103.472069 43.8852029 99.2343103 43.8852029"></polygon>
            <polygon id="Fill-37" fill="#747474" points="93.2312069 42.1307826 97.472069 42.1307826 97.472069 35.9928841 93.2312069 35.9928841"></polygon>
            <polygon id="Fill-38" fill="#747474" points="99.2343103 42.1307826 103.472069 42.1307826 103.472069 35.9928841 99.2343103 35.9928841"></polygon>
            <path d="M99.2343103,50.0189855 L103.472069,50.0189855 L103.472069,43.8852029 L99.2343103,43.8852029 L99.2343103,50.0189855 Z M93.2312069,50.0189855 L97.472069,50.0189855 L97.472069,43.8852029 L93.2312069,43.8852029 L93.2312069,50.0189855 Z M93.2312069,42.1307826 L97.472069,42.1307826 L97.472069,35.9928841 L93.2312069,35.9928841 L93.2312069,42.1307826 Z M99.2343103,42.1307826 L103.472069,42.1307826 L103.472069,35.9928841 L99.2343103,35.9928841 L99.2343103,42.1307826 Z M91.4694828,34.2384638 L91.4694828,51.7744348 L97.472069,51.7744348 L99.2343103,51.7744348 L105.235862,51.7744348 L105.235862,34.2384638 L91.4694828,34.2384638 Z" id="Fill-39" fill="#FFFFFF"></path>
            <polygon id="Fill-40" fill="#2B6A73" points="5.64258621 27.8227391 10.2781034 27.8227391 10.2781034 24.6189928 5.64258621 24.6189928"></polygon>
            <polygon id="Fill-41" fill="#398D99" points="5.64258621 70.7828841 10.2786207 70.7828841 10.2786207 27.8227391 5.64258621 27.8227391"></polygon>
            <polygon id="Fill-42" fill="#2B6A73" points="109.294655 27.8232536 113.931207 27.8232536 113.931207 24.6195072 109.294655 24.6195072"></polygon>
            <polygon id="Fill-43" fill="#398D99" points="109.294138 70.7828841 113.931207 70.7828841 113.931207 27.8227391 109.294138 27.8227391"></polygon>
            <polygon id="Fill-44" fill="#122426" points="54.4826897 24.6193014 28.904069 24.6193014 24.8783793 20.6150043 39.4588966 9.39391739"></polygon>
            <polygon id="Fill-45" fill="#122426" points="59.7863793 0.000205797101 59.7863793 15.003329 52.4958621 20.6149014 56.5215517 24.6191986 59.7863793 24.6191986 82.1017241 24.6191986 119.572759 24.6191986 105.167586 15.3408362 98.4512069 0.000205797101"></polygon>
            <polygon id="Fill-46" fill="#122426" points="32.1700862 3.37136812 24.8785345 9.39402029 24.8785345 11.4478754 32.1700862 5.42316522 39.4585345 11.4478754 39.4585345 9.39402029"></polygon>
            <polygon id="Fill-47" fill="#CBC1B1" points="24.878431 11.4479783 24.878431 20.6146957 39.458431 20.6146957 39.458431 11.4479783 32.1699828 5.42326812"></polygon>
            <polygon id="Fill-48" fill="#747474" points="29.1144828 17.8745072 31.6432759 17.8745072 31.6432759 15.019587 29.1144828 15.019587"></polygon>
            <polygon id="Fill-49" fill="#747474" points="32.6963793 17.8745072 35.2231034 17.8745072 35.2231034 15.019587 32.6963793 15.019587"></polygon>
            <polygon id="Fill-50" fill="#747474" points="29.1144828 13.9710507 31.6432759 13.9710507 31.6432759 11.1115 29.1144828 11.1115"></polygon>
            <polygon id="Fill-51" fill="#747474" points="32.6963793 13.9710507 35.2231034 13.9710507 35.2231034 11.1115 32.6963793 11.1115"></polygon>
            <path d="M32.6963793,17.8745072 L35.2231034,17.8745072 L35.2231034,15.019587 L32.6963793,15.019587 L32.6963793,17.8745072 Z M29.1144828,17.8745072 L31.6432759,17.8745072 L31.6432759,15.019587 L29.1144828,15.019587 L29.1144828,17.8745072 Z M29.1144828,13.9710507 L31.6432759,13.9710507 L31.6432759,11.1115 L29.1144828,11.1115 L29.1144828,13.9710507 Z M32.6963793,13.9710507 L35.2231034,13.9710507 L35.2231034,11.1115 L32.6963793,11.1115 L32.6963793,13.9710507 Z M28.0644828,10.0645072 L28.0644828,18.9256159 L31.6432759,18.9256159 L32.6963793,18.9256159 L36.2751724,18.9256159 L36.2751724,10.0645072 L28.0644828,10.0645072 Z" id="Fill-52" fill="#FFFFFF"></path>
            <polygon id="Fill-53" fill="#122426" points="59.786431 3.37136812 52.4959138 9.39402029 52.4959138 11.4478754 59.786431 5.42316522 67.0759138 11.4478754 67.0759138 9.39402029"></polygon>
            <polygon id="Fill-54" fill="#CBC1B1" points="52.4958103 11.4479783 52.4958103 20.6146957 67.0758103 20.6146957 67.0758103 11.4479783 59.7863276 5.42326812"></polygon>
            <polygon id="Fill-55" fill="#747474" points="56.7336207 17.8745072 59.2603448 17.8745072 59.2603448 15.019587 56.7336207 15.019587"></polygon>
            <polygon id="Fill-56" fill="#747474" points="60.3124138 17.8745072 62.8401724 17.8745072 62.8401724 15.019587 60.3124138 15.019587"></polygon>
            <polygon id="Fill-57" fill="#747474" points="56.7336207 13.9710507 59.2603448 13.9710507 59.2603448 11.1115 56.7336207 11.1115"></polygon>
            <polygon id="Fill-58" fill="#747474" points="60.3124138 13.9710507 62.8401724 13.9710507 62.8401724 11.1115 60.3124138 11.1115"></polygon>
            <path d="M60.3124138,17.8745072 L62.8401724,17.8745072 L62.8401724,15.019587 L60.3124138,15.019587 L60.3124138,17.8745072 Z M56.7336207,17.8745072 L59.2603448,17.8745072 L59.2603448,15.019587 L56.7336207,15.019587 L56.7336207,17.8745072 Z M56.7336207,13.9710507 L59.2603448,13.9710507 L59.2603448,11.1115 L56.7336207,11.1115 L56.7336207,13.9710507 Z M60.3124138,13.9710507 L62.8401724,13.9710507 L62.8401724,11.1115 L60.3124138,11.1115 L60.3124138,13.9710507 Z M55.6815517,10.0645072 L55.6815517,18.9256159 L59.2603448,18.9256159 L60.3124138,18.9256159 L63.8922414,18.9256159 L63.8922414,10.0645072 L55.6815517,10.0645072 Z" id="Fill-59" fill="#FFFFFF"></path>
            <polygon id="Fill-60" fill="#24474C" points="87.3636207 3.37136812 80.0751724 9.39402029 80.0751724 11.4478754 87.3636207 5.42316522 94.6551724 11.4478754 94.6551724 9.39402029"></polygon>
            <polygon id="Fill-61" fill="#CBC1B1" points="80.0752759 11.4479783 80.0752759 20.6146957 94.6552759 20.6146957 94.6552759 11.4479783 87.3637241 5.42326812"></polygon>
            <polygon id="Fill-62" fill="#747474" points="84.3108621 17.8745072 86.8396552 17.8745072 86.8396552 15.019587 84.3108621 15.019587"></polygon>
            <polygon id="Fill-63" fill="#747474" points="87.8896552 17.8745072 90.4194828 17.8745072 90.4194828 15.019587 87.8896552 15.019587"></polygon>
            <polygon id="Fill-64" fill="#747474" points="84.3108621 13.9710507 86.8396552 13.9710507 86.8396552 11.1115 84.3108621 11.1115"></polygon>
            <polygon id="Fill-65" fill="#747474" points="87.8896552 13.9710507 90.4194828 13.9710507 90.4194828 11.1115 87.8896552 11.1115"></polygon>
            <path d="M87.8896552,17.8745072 L90.4194828,17.8745072 L90.4194828,15.019587 L87.8896552,15.019587 L87.8896552,17.8745072 Z M84.3108621,17.8745072 L86.8396552,17.8745072 L86.8396552,15.019587 L84.3108621,15.019587 L84.3108621,17.8745072 Z M84.3108621,13.9710507 L86.8396552,13.9710507 L86.8396552,11.1115 L84.3108621,11.1115 L84.3108621,13.9710507 Z M87.8896552,13.9710507 L90.4194828,13.9710507 L90.4194828,11.1115 L87.8896552,11.1115 L87.8896552,13.9710507 Z M83.2608621,10.0645072 L83.2608621,18.9256159 L86.8396552,18.9256159 L87.8896552,18.9256159 L91.4694828,18.9256159 L91.4694828,10.0645072 L83.2608621,10.0645072 Z" id="Fill-66" fill="#FFFFFF"></path>
        </g>
    </g>
</svg>