<?xml version="1.0" encoding="UTF-8"?>
<svg width="120px" height="120px" viewBox="0 0 120 120" version="1.1" xmlns="http://www.w3.org/2000/svg" xmlns:xlink="http://www.w3.org/1999/xlink">
    <!-- Generator: Sketch 51.1 (57501) - http://www.bohemiancoding.com/sketch -->
    <title>Billboard2</title>
    <desc>Created with Sketch.</desc>
    <defs>
        <polygon id="path-1" points="0.861710448 0.268846154 67.2506507 0.268846154 67.2506507 86.1101538 0.861710448 86.1101538"></polygon>
        <polygon id="path-3" points="0 118.846154 75.9438358 118.846154 75.9438358 0.268846154 0 0.268846154"></polygon>
    </defs>
    <g id="Billboard2" stroke="none" stroke-width="1" fill="none" fill-rule="evenodd">
        <g id="Page-1" transform="translate(22.000000, 0.000000)">
            <polygon id="Fill-1" fill="#7A8F10" points="0 115.883654 4.85214925 119.731731 75.9449851 119.731731 71.0916866 115.883654"></polygon>
            <g id="Group-17" transform="translate(0.000000, 0.885000)">
                <g id="Group-4" transform="translate(2.298507, 0.000000)">
                    <mask id="mask-2" fill="white">
                        <use xlink:href="#path-1"></use>
                    </mask>
                    <g id="Clip-3"></g>
                    <path d="M4.37727761,0.268615385 L63.7350836,0.268615385 C65.6692776,0.268615385 67.2506507,1.66938462 67.2506507,3.38053846 L67.2506507,82.9982308 C67.2506507,84.7105385 65.6692776,86.1101538 63.7350836,86.1101538 L4.37727761,86.1101538 C2.44308358,86.1101538 0.861710448,84.7105385 0.861710448,82.9982308 L0.861710448,3.38053846 C0.861710448,1.66938462 2.44308358,0.268615385 4.37727761,0.268615385" id="Fill-2" fill="#595959" mask="url(#mask-2)"></path>
                </g>
                <path d="M14.8384746,2.25184615 L64.6218478,2.25184615 C66.2434448,2.25184615 67.5708328,3.58338462 67.5708328,5.21146154 L67.5708328,80.9268462 C67.5708328,82.5537692 66.2434448,83.8853077 64.6218478,83.8853077 L14.8384746,83.8853077 C13.2168776,83.8853077 11.8917881,82.5537692 11.8917881,80.9268462 L11.8917881,5.21146154 C11.8917881,3.58338462 13.2168776,2.25184615 14.8384746,2.25184615" id="Fill-5" fill="#9E9E9E"></path>
                <mask id="mask-4" fill="white">
                    <use xlink:href="#path-3"></use>
                </mask>
                <g id="Clip-8"></g>
                <polygon id="Fill-7" fill="#454545" mask="url(#mask-4)" points="26.1478209 116.471538 50.2005522 116.471538 50.2005522 86.1115385 26.1478209 86.1115385"></polygon>
                <path d="M14.6555134,6.38492308 L61.351991,6.38492308 C62.873603,6.38492308 64.1170955,7.64953846 64.1170955,9.19569231 L64.1170955,81.0756923 C64.1170955,82.6206923 62.873603,83.8853077 61.351991,83.8853077 L14.6555134,83.8853077 C13.1350507,83.8853077 11.8915582,82.6206923 11.8915582,81.0756923 L11.8915582,9.19569231 C11.8915582,7.64953846 13.1350507,6.38492308 14.6555134,6.38492308" id="Fill-9" fill="#E3F1FF" mask="url(#mask-4)"></path>
                <path d="M11.8912134,80.9263846 L11.8912134,74.8594615 L3.16033284,74.8594615 L3.16033284,82.9986923 C3.16033284,84.7098462 4.74170597,86.1106154 6.6759,86.1106154 L19.5567358,86.1106154 L19.5567358,83.8848462 L14.8379,83.8848462 L14.6551687,83.8848462 C13.134706,83.8848462 11.8912134,82.6213846 11.8912134,81.0763846 L11.8912134,80.9263846 Z" id="Fill-10" fill="#402B2B" mask="url(#mask-4)"></path>
                <path d="M11.8912134,5.45307692 L11.8912134,11.52 L3.16033284,11.52 L3.16033284,3.38076923 C3.16033284,1.66961538 4.74170597,0.268846154 6.6759,0.268846154 L19.5567358,0.268846154 L19.5567358,2.49346154 L14.8379,2.49346154 L14.6551687,2.49346154 C13.134706,2.49346154 11.8912134,3.75692308 11.8912134,5.30307692 L11.8912134,5.45307692 Z" id="Fill-11" fill="#402B2B" mask="url(#mask-4)"></path>
                <path d="M61.239594,2.25184615 L64.6218478,2.25184615 C66.2434448,2.25184615 67.5708328,3.58338462 67.5708328,5.21146154 L67.5708328,11.5195385 L69.5486985,11.5195385 L69.5486985,3.38146154 C69.5486985,1.66915385 67.9673254,0.268384615 66.0342806,0.268384615 L61.239594,0.268384615 L61.239594,2.25184615 Z" id="Fill-12" fill="#402B2B" mask="url(#mask-4)"></path>
                <path d="M61.239594,84.1264615 L64.6218478,84.1264615 C66.2434448,84.1264615 67.5708328,82.7960769 67.5708328,81.168 L67.5708328,74.8599231 L69.5486985,74.8599231 L69.5486985,82.998 C69.5486985,84.7103077 67.9673254,86.1110769 66.0342806,86.1110769 L61.239594,86.1110769 L61.239594,84.1264615 Z" id="Fill-13" fill="#402B2B" mask="url(#mask-4)"></path>
                <polygon id="Fill-14" fill="#595959" mask="url(#mask-4)" points="33.893791 116.471538 50.199403 116.471538 50.199403 90.9842308 33.893791 90.9842308"></polygon>
                <polygon id="Fill-15" fill="#757575" mask="url(#mask-4)" points="3.16067761 29.6376923 11.8915582 25.815 11.8915582 45.1361538 3.16067761 48.9576923"></polygon>
                <polygon id="Fill-16" fill="#757575" mask="url(#mask-4)" points="3.16067761 52.2784615 11.8915582 48.4557692 11.8915582 51.4026923 3.16067761 55.2242308"></polygon>
            </g>
        </g>
    </g>
</svg>