<?xml version="1.0" encoding="UTF-8"?>
<svg width="120px" height="120px" viewBox="0 0 120 120" version="1.1" xmlns="http://www.w3.org/2000/svg" xmlns:xlink="http://www.w3.org/1999/xlink">
    <!-- Generator: Sketch 51.1 (57501) - http://www.bohemiancoding.com/sketch -->
    <title>Tent2</title>
    <desc>Created with Sketch.</desc>
    <defs></defs>
    <g id="Tent2" stroke="none" stroke-width="1" fill="none" fill-rule="evenodd">
        <g id="Page-1" transform="translate(0.000000, 16.000000)">
            <path d="M68.8812614,32.2929773 L69.2562614,28.9097955 L69.1243295,28.9097955 L68.7493295,32.2929773 L68.8812614,32.2929773 Z M67.3696705,32.2929773 L67.5016023,32.2929773 L67.5016023,28.9097955 L67.3696705,28.9097955 L67.3696705,32.2929773 Z M65.9903523,32.2929773 L65.6153523,28.9097955 L65.7472841,28.9097955 L66.1219432,32.2929773 L65.9903523,32.2929773 Z" id="Fill-4" fill="#998675"></path>
            <path d="M77.5255227,5.10977273 C79.0626818,7.91443182 79.2160909,11.59625 78.0467727,15.1110227 C75.6495,22.3175 69.5305227,27.5020455 67.4356364,27.5020455 C65.3414318,27.5020455 59.2221136,22.3175 56.8245,15.1110227 C55.6804091,11.6698864 55.8000682,8.05863636 57.2479091,5.27443182 C58.5164318,2.83352273 62.0083636,-0.125568182 64.9879091,0.193863636 C65.6946136,0.269886364 66.6549545,0.294090909 67.4090455,0.550113636 C68.0274545,0.277045455 68.9093864,0.265795455 69.5066591,0.156363636 C72.3767727,-0.368636364 76.2518864,2.78647727 77.5255227,5.10977273" id="Fill-6" fill="#D64752"></path>
            <path d="M69.0130909,32.2929773 C69.024,32.4058182 69.0297955,32.5217273 69.0297955,32.6403636 C69.0297955,33.5420682 68.6987727,34.3282045 68.21025,34.7383182 L66.6615,34.7383182 C66.1726364,34.3282045 65.8416136,33.5420682 65.8416136,32.6403636 C65.8416136,32.5217273 65.8480909,32.4058182 65.8586591,32.2929773 L69.0130909,32.2929773 Z" id="Fill-8" fill="#998675"></path>
            <path d="M73.9492841,2.47273864 C76.8937159,5.27739773 77.6709886,10.2908068 76.3274659,15.1109205 C74.3184886,22.3173977 69.1915568,27.5019432 67.435875,27.5019432 C65.6805341,27.5019432 60.5532614,22.3173977 58.5442841,15.1109205 C57.2184886,10.353875 57.9476932,5.37489773 60.8000795,2.56376136 C62.1575795,1.22603409 63.9507614,-0.107261364 65.9689432,0.239102273 C66.4070114,0.315125 67.008375,0.322965909 67.4488295,0.485238636 C67.8453068,0.259897727 68.3740568,0.250352273 68.8295114,0.173647727 C70.6990568,-0.143397727 72.7959886,1.37432955 73.9492841,2.47273864" id="Fill-10" fill="#D64752"></path>
            <path d="M72.5060795,3.09530682 C74.210625,5.96780682 74.5941477,10.6631477 73.7186932,15.1109886 C72.2991477,22.3174659 68.6763068,27.5020114 67.4357386,27.5020114 C66.1958523,27.5020114 62.5726705,22.3174659 61.153125,15.1109886 C60.2674432,10.6120114 60.6707386,5.87064773 62.4260795,3.00701136 C63.4208523,1.38326136 65.2961932,-0.131397727 66.9935795,0.249738636 C67.1336932,0.281443182 67.2744886,0.338715909 67.4190341,0.412693182 C67.5390341,0.329170455 67.6685795,0.268147727 67.8052841,0.225193182 C69.5442614,-0.328102273 71.5917614,1.55473864 72.5060795,3.09530682" id="Fill-12" fill="#FAF5DC"></path>
            <path d="M68.6419091,0.840090909 C70.1691818,2.82452273 70.6665682,9.10338636 70.1548636,15.1108864 C69.5405455,22.3173636 67.9727045,27.5019091 67.4357727,27.5019091 C66.8991818,27.5019091 65.3313409,22.3173636 64.7170227,15.1108864 C64.2042955,9.09895455 64.6935,2.70725 66.2337273,0.835318182 C66.9537273,-0.0397954545 67.986,-0.0118409091 68.6419091,0.840090909" id="Fill-14" fill="#FAF5DC"></path>
            <polygon id="Fill-16" fill="#FECD8A" points="73.5807614 22.9645795 69.6115568 28.0362841 65.2601932 28.0362841 61.2913295 22.9645795"></polygon>
            <polygon id="Fill-18" fill="#998675" points="65.3795455 29.0927273 69.4922727 29.0927273 69.4922727 28.03625 65.3795455 28.03625"></polygon>
            <path d="M31.9062955,18.8084205 L31.9062955,5.09842045" id="Stroke-21" stroke="#4D4D4D" stroke-width="0.5"></path>
            <polygon id="Fill-23" fill="#D64752" points="44.0305227 10.6512159 32.0710909 10.6512159 32.0710909 5.08178409 44.0305227 5.08178409 40.6026818 7.86667045"></polygon>
            <path d="M63.2892273,87.6513977 L0.000136363636,87.6513977 C0.000136363636,87.6513977 2.01456818,77.2267386 2.01456818,68.5598068 C2.01456818,60.4867386 0.000136363636,49.467875 0.000136363636,49.467875 L63.2892273,49.467875 C63.2892273,49.467875 61.4128636,61.1856023 61.4128636,68.5598068 C61.4128636,75.6575341 63.2892273,87.6513977 63.2892273,87.6513977" id="Fill-24" fill="#E5B120"></path>
            <path d="M62.6859886,87.9127386 L0.366784091,87.9127386 C0.366784091,87.9127386 2.35019318,78.3069432 2.35019318,70.3208068 C2.35019318,62.8821705 0.366784091,52.728875 0.366784091,52.728875 L62.6859886,52.728875 C62.6859886,52.728875 60.8382614,63.5261477 60.8382614,70.3208068 C60.8382614,76.8611477 62.6859886,87.9127386 62.6859886,87.9127386" id="Fill-25" fill="#000000" opacity="0.118376359"></path>
            <path d="M37.5662386,87.6513977 C37.9501023,73.0052614 32.0956705,57.837875 32.0956705,57.837875 L32.0090795,57.837875 C32.0090795,57.837875 26.1549886,73.0052614 26.5381705,87.6513977" id="Fill-26" fill="#C69B32"></path>
            <path d="M32.0957045,57.8378409 C32.0957045,57.8378409 23.1696818,72.7447727 11.0353636,71.2982955 C11.0353636,71.2982955 13.5168409,81.3373864 26.5382045,87.6513636 C26.5382045,87.6513636 26.0309318,73.1402273 32.0957045,57.8378409" id="Fill-27" fill="#EFC12E"></path>
            <path d="M32.0307955,57.8378409 C32.0307955,57.8378409 40.9575,72.7447727 53.0911364,71.2982955 C53.0911364,71.2982955 50.61,81.3373864 37.5886364,87.6513636 C37.5886364,87.6513636 38.1330682,73.8789773 32.0307955,57.8378409" id="Fill-28" fill="#EFC12E"></path>
            <path d="M31.9062955,18.5999886 L31.9062955,18.4551023 C31.9062955,18.4551023 31.88925,18.4806705 31.8582273,18.5266932 C31.8282273,18.4806705 31.8118636,18.4551023 31.8118636,18.4551023 L31.8118636,18.5955568 C30.5856136,20.4108977 17.4251591,39.5106705 -6.81818182e-05,49.4679432 C-6.81818182e-05,52.4788523 2.4705,54.9187386 5.51754545,54.9187386 C7.97822727,54.9187386 10.0605,53.327375 10.7719773,51.1302159 C11.4837955,53.327375 13.5660682,54.9187386 16.0264091,54.9187386 C18.48675,54.9187386 20.5690227,53.3270341 21.2801591,51.1291932 C21.9919773,53.3270341 24.0745909,54.9187386 26.5345909,54.9187386 C28.9956136,54.9187386 31.0778864,53.3270341 31.7893636,51.1295341 C32.5008409,53.3270341 34.5834545,54.9187386 37.0431136,54.9187386 C39.5044773,54.9187386 41.5870909,53.3266932 42.2985682,51.1288523 C43.0097045,53.3266932 45.0923182,54.9187386 47.5526591,54.9187386 C50.5997045,54.9187386 53.0699318,52.4788523 53.0699318,49.4679432 C53.0699318,52.2422614 55.3468636,54.4905568 58.1535682,54.4905568 C60.9616364,54.4905568 63.2375455,52.2422614 63.2375455,49.4679432 L63.2893636,49.4679432 C45.8764091,39.5178295 33.1107273,20.4391932 31.9062955,18.5999886" id="Fill-29" fill="#EFC12E"></path>
            <path d="M70.2229432,64.9293636 C70.1305568,64.9048182 69.8670341,64.9716364 69.8977159,64.89425 C69.9280568,64.8172045 69.9989659,64.6348182 69.9989659,64.6348182 L70.1581705,64.6453864 C70.1581705,64.6453864 70.3146477,64.9539091 70.2229432,64.9293636" id="Fill-30" fill="#CED8D8"></path>
            <path d="M69.8164432,64.8820795 C69.3047386,68.7923068 70.4484886,72.3534432 71.553375,76.0482159 C72.0814432,77.8124205 72.5017841,79.6015114 72.6299659,81.4427614 C72.7966705,83.832875 72.367125,86.2062841 71.602125,88.4644659 C71.5878068,88.5060568 71.7149659,88.512875 71.7265568,88.4787841 C72.4530341,86.3358295 72.8536023,84.1274205 72.7806477,81.860375 C72.7192841,79.9427614 72.2730341,78.065375 71.7374659,76.2319659 C70.6353068,72.4642386 69.4240568,68.8690114 69.9459886,64.8820795 C69.9504205,64.8469659 69.8218977,64.8408295 69.8164432,64.8820795" id="Fill-32" fill="#102F41"></path>
            <path d="M70.0015568,65.0062386 C69.9105341,64.9820341 69.6497386,65.0481705 69.6800795,64.9718068 C69.7097386,64.8954432 69.7803068,64.7151023 69.7803068,64.7151023 L69.9378068,64.7256705 C69.9378068,64.7256705 70.0925795,65.0307841 70.0015568,65.0062386" id="Fill-33" fill="#838BC5"></path>
            <path d="M70.659375,56.82875 C69.7989205,56.7363636 68.9541477,56.9845455 68.2805114,57.5272727 C67.6082386,58.0706818 67.1861932,58.8438636 67.0934659,59.7039773 C66.8057386,62.3886364 69.0584659,64.6468182 69.8122159,64.7276136 C70.5911932,64.8111364 73.2407386,63.1314773 73.5346023,60.3939773 C73.6266477,59.5342045 73.3784659,58.6894318 72.8353977,58.0161364 C72.2923295,57.3425 71.5188068,56.9211364 70.659375,56.82875" id="Fill-34" fill="#838BC5"></path>
            <path d="M73.1003523,60.1073409 C73.0969432,59.7221136 73.0802386,59.5018864 72.9762614,59.1497273 C72.8954659,59.2704091 72.778875,59.2622273 72.6878523,59.3730227 C72.7471705,59.59325 72.7202386,59.8560909 72.7423977,60.0923409 C72.8548977,61.3400682 72.3823977,62.5042727 71.5516023,63.3166591 C72.4696705,62.5755227 73.1109205,61.3785909 73.1003523,60.1073409" id="Fill-35" fill="#FFFFFF"></path>
            <path d="M73.7701705,71.5421136 C73.6805114,71.5114318 73.4139205,71.5601818 73.4500568,71.4858636 C73.4848295,71.4105227 73.5676705,71.2346136 73.5676705,71.2346136 L73.7251705,71.25575 C73.7251705,71.25575 73.8598295,71.5731364 73.7701705,71.5421136" id="Fill-36" fill="#CED8D8"></path>
            <path d="M73.31475,71.4572273 C73.3154318,72.45575 73.3529318,73.4539318 73.4057727,74.4504091 C73.5117955,76.4679091 73.9294091,78.4448409 74.0569091,80.4534773 C74.2321364,83.2243864 73.3856591,86.4538182 71.5631591,88.6189318 C71.5212273,88.6690455 71.6453182,88.69325 71.6749773,88.6567727 C73.3355455,86.6849545 74.1100909,83.9062045 74.1990682,81.3800682 C74.2737273,79.24325 73.7050909,77.0798409 73.5639545,74.9443864 C73.4835,73.7283636 73.4395227,72.5062045 73.4439545,71.2871136 C73.4446364,71.2352955 73.3144091,71.4006364 73.31475,71.4572273" id="Fill-38" fill="#102F41"></path>
            <path d="M73.5498068,71.5773977 C73.4604886,71.5470568 73.1962841,71.5958068 73.2307159,71.5218295 C73.2658295,71.4475114 73.3483295,71.2719432 73.3483295,71.2719432 L73.5044659,71.2930795 C73.5044659,71.2930795 73.6387841,71.6080795 73.5498068,71.5773977" id="Fill-39" fill="#53BABC"></path>
            <path d="M74.7556364,63.4625 C73.9033636,63.3128409 73.0439318,63.50375 72.3355227,64.0001136 C71.6277955,64.4964773 71.1549545,65.24 71.0046136,66.0919318 C70.5375682,68.7506818 72.6327955,71.1551136 73.3797273,71.2867045 C74.1512045,71.4223864 76.9077955,69.9247727 77.3843864,67.2131818 C77.5343864,66.36125 77.3431364,65.5018182 76.8471136,64.79375 C76.3510909,64.085 75.6072273,63.6125 74.7556364,63.4625" id="Fill-40" fill="#53BABC"></path>
            <path d="M77.0421136,67.1692386 C77.1017727,66.7884432 77.1222273,66.5682159 77.0779091,66.204125 C76.9783636,66.3098068 76.8645,66.2821932 76.7564318,66.3762841 C76.7785909,66.6040114 76.7083636,66.8583295 76.6916591,67.0949205 C76.5955227,68.3443523 75.9375682,69.4144659 74.9843864,70.0782159 C76.0118864,69.4986705 76.8416591,68.4244659 77.0421136,67.1692386" id="Fill-41" fill="#FFFFFF"></path>
            <path d="M84.2275227,41.1196591 C84.1365,41.0954545 83.8757045,41.1615909 83.9063864,41.0852273 C83.9360455,41.0088636 84.0062727,40.8285227 84.0062727,40.8285227 L84.1637727,40.8390909 C84.1637727,40.8390909 84.3185455,41.1442045 84.2275227,41.1196591" id="Fill-42" fill="#CED8D8"></path>
            <path d="M84.8853409,32.9421364 C84.0248864,32.84975 83.1804545,33.0979318 82.5068182,33.6406591 C81.8342045,34.1840682 81.4121591,34.95725 81.3197727,35.8173636 C81.0320455,38.5020227 83.2844318,40.7602045 84.0385227,40.841 C84.8171591,40.9245227 87.4670455,39.2448636 87.7609091,36.5073636 C87.8529545,35.6475909 87.6047727,34.8028182 87.0613636,34.1295227 C86.5186364,33.4558864 85.7451136,33.0345227 84.8853409,32.9421364" id="Fill-43" fill="#CED8D8"></path>
            <path d="M83.9282045,39.2196705 C83.7120682,41.6111477 83.8058182,43.9521705 83.9353636,46.342625 C84.0925227,49.2348977 83.8218409,52.0494432 83.2954773,54.8984205 C83.2774091,54.9948977 83.4250227,55.0364886 83.4430909,54.9393295 C83.949,52.2035341 84.2411591,49.477625 84.1071818,46.6941023 C83.9868409,44.1839886 83.8545682,41.7314886 84.0812727,39.2196705 C84.0904773,39.1211477 83.9367273,39.1218295 83.9282045,39.2196705" id="Fill-44" fill="#102F41"></path>
            <path d="M84.0114545,41.1196591 C83.9204318,41.0954545 83.6596364,41.1615909 83.6899773,41.0852273 C83.7199773,41.0088636 83.7902045,40.8285227 83.7902045,40.8285227 L83.9477045,40.8390909 C83.9477045,40.8390909 84.1024773,41.1442045 84.0114545,41.1196591" id="Fill-45" fill="#65C8D0"></path>
            <path d="M84.6693068,32.9421364 C83.8088523,32.84975 82.9644205,33.0979318 82.2907841,33.6406591 C81.6181705,34.1840682 81.196125,34.95725 81.1037386,35.8173636 C80.8160114,38.5020227 83.0687386,40.7602045 83.8224886,40.841 C84.601125,40.9245227 87.2510114,39.2448636 87.544875,36.5073636 C87.6369205,35.6475909 87.3887386,34.8028182 86.8453295,34.1295227 C86.3026023,33.4558864 85.5290795,33.0345227 84.6693068,32.9421364" id="Fill-46" fill="#65C8D0"></path>
            <path d="M86.8642159,36.8819205 C86.923875,36.501125 86.9443295,36.2808977 86.8996705,35.9168068 C86.8004659,36.0224886 86.6866023,35.994875 86.5785341,36.0889659 C86.6003523,36.3166932 86.5304659,36.5710114 86.5134205,36.8076023 C86.417625,38.0570341 85.7593295,39.1271477 84.8061477,39.7908977 C85.8339886,39.2113523 86.6637614,38.1371477 86.8642159,36.8819205" id="Fill-47" fill="#FFFFFF"></path>
            <path d="M75.7620341,78.1545568 C75.6877159,78.0959205 75.4204432,78.052625 75.4790795,77.9943295 C75.537375,77.9353523 75.6740795,77.7969432 75.6740795,77.7969432 L75.8155568,77.8698977 C75.8155568,77.8698977 75.8363523,78.213875 75.7620341,78.1545568" id="Fill-48" fill="#CED8D8"></path>
            <path d="M75.3398864,77.7813636 C74.5523864,81.5835227 72.6170455,84.9145455 71.5568182,88.6270455 C71.5401136,88.6860227 71.6676136,88.6986364 71.6819318,88.6488636 C72.7605682,84.8705682 74.7419318,81.485 75.5055682,77.6 C75.5157955,77.5488636 75.3525,77.7210227 75.3398864,77.7813636" id="Fill-50" fill="#102F41"></path>
            <path d="M75.5240114,77.9564545 C75.450375,77.8967955 75.1854886,77.8504318 75.2448068,77.7931591 C75.3031023,77.7362273 75.4408295,77.5995227 75.4408295,77.5995227 L75.5799205,77.6738409 C75.5799205,77.6738409 75.5969659,78.0161136 75.5240114,77.9564545" id="Fill-51" fill="#838BC5"></path>
            <path d="M79.4717727,70.7647386 C78.7245,70.328375 77.8517727,70.2087159 77.0155227,70.4286023 C76.1792727,70.6488295 75.4773409,71.1816705 75.0413182,71.9282614 C73.6797273,74.2593977 74.8105227,77.2420114 75.4654091,77.6248523 C76.1421136,78.019625 79.2474545,77.5720114 80.6352955,75.1945114 C81.0713182,74.4475795 81.1906364,73.5751932 80.9704091,72.7389432 C80.7518864,71.9016705 80.2180227,71.2011023 79.4717727,70.7647386" id="Fill-52" fill="#838BC5"></path>
            <path d="M80.1818864,75.0886932 C80.3697273,74.7525568 80.4648409,74.553125 80.5490455,74.1958523 C80.4195,74.2602841 80.3223409,74.1951705 80.1883636,74.2459659 C80.1300682,74.4675568 79.9763182,74.6819886 79.8781364,74.898125 C79.3568864,76.0371023 78.3685909,76.8133523 77.2446136,77.1065341 C78.4095,76.9183523 79.5600682,76.1973295 80.1818864,75.0886932" id="Fill-53" fill="#FFFFFF"></path>
            <path d="M70.413375,77.6598295 C70.3192841,77.6588068 70.0826932,77.7873295 70.0936023,77.7061932 C70.1034886,77.624375 70.1266705,77.4321023 70.1266705,77.4321023 L70.282125,77.4038068 C70.282125,77.4038068 70.507125,77.6611932 70.413375,77.6598295" id="Fill-54" fill="#CED8D8"></path>
            <path d="M70.0321705,77.3935114 C69.3622841,79.4287386 69.1983068,81.3613523 70.2912614,83.2605568 C70.6853523,83.9451023 71.136375,84.5883977 71.4312614,85.326125 C71.833875,86.3341932 71.7987614,87.4227159 71.5996705,88.4713523 C71.5887614,88.5289659 71.7172841,88.532375 71.7292159,88.4716932 C72.0786477,86.6280568 71.6398977,85.2258977 70.678875,83.6716932 C70.2452386,82.9701023 69.8705795,82.2627159 69.6892159,81.452375 C69.4045568,80.184875 69.7004659,78.8485114 70.0873977,77.6307841 C70.1102386,77.5591932 70.0502386,77.338625 70.0321705,77.3935114" id="Fill-56" fill="#102F41"></path>
            <path d="M70.22625,77.6615 C70.1321591,77.6608182 69.89625,77.7900227 69.9064773,77.7085455 C69.9160227,77.6270682 69.9392045,77.4347955 69.9392045,77.4347955 L70.0943182,77.4054773 C70.0943182,77.4054773 70.3203409,77.6625227 70.22625,77.6615" id="Fill-57" fill="#65C8D0"></path>
            <path d="M68.8216705,69.5785455 C67.9656477,69.704 67.2098523,70.1550227 66.693375,70.8491136 C66.1775795,71.5432045 65.9617841,72.3971818 66.0872386,73.2528636 C66.4786023,75.9238864 69.2232614,77.5486591 69.9736023,77.4388864 C70.7484886,77.3253636 72.8951932,75.0371818 72.4959886,72.3133182 C72.370875,71.4572955 71.9191705,70.7015 71.2254205,70.1850227 C70.5320114,69.6685455 69.6780341,69.4534318 68.8216705,69.5785455" id="Fill-58" fill="#65C8D0"></path>
            <path d="M72.1701818,72.8970909 C72.1606364,72.5118636 72.1405227,72.2916364 72.0304091,71.9415227 C71.9516591,72.0635682 71.8347273,72.05675 71.7460909,72.16925 C71.8084773,72.3891364 71.7859773,72.6516364 71.8115455,72.8878864 C71.9448409,74.1335682 71.4914318,75.3052727 70.6739318,76.1312955 C71.5800682,75.3751591 72.2012045,74.1676591 72.1701818,72.8970909" id="Fill-59" fill="#FFFFFF"></path>
            <polygon id="Fill-60" fill="#666666" points="70.4942045 88.7323864 73.5163636 88.7323864 73.5163636 87.53375 70.4942045 87.53375"></polygon>
            <polygon id="Fill-63" fill="#D64752" points="90.6497727 77.8563636 112.788409 77.8563636 112.788409 45.0946591 90.6497727 45.0946591"></polygon>
            <polygon id="Fill-64" fill="#FFFFFF" points="91.8409091 71.95625 111.696477 71.95625 111.696477 48.7676136 91.8409091 48.7676136"></polygon>
            <path d="M101.254977,62.1454659 C101.254977,62.5156932 100.954977,62.8156932 100.585091,62.8156932 C100.214864,62.8156932 99.9148636,62.5156932 99.9148636,62.1454659 C99.9148636,61.7752386 100.214864,61.4752386 100.585091,61.4752386 C100.954977,61.4752386 101.254977,61.7752386 101.254977,62.1454659" id="Fill-65" fill="#F9F9F9"></path>
            <polygon id="Fill-66" fill="#333333" points="89.3091818 45.0946932 114.128727 45.0946932 112.142932 41.1234432 91.0958864 41.1234432"></polygon>
            <polygon id="Fill-67" fill="#D64752" points="111.696477 87.7928409 112.788409 87.7928409 112.788409 77.8563636 111.696477 77.8563636"></polygon>
            <polygon id="Fill-68" fill="#D64752" points="108.643295 87.7928409 109.760114 87.7928409 109.760114 77.8563636 108.643295 77.8563636"></polygon>
            <polygon id="Fill-69" fill="#D64752" points="90.6494318 79.8745455 91.8405682 79.8745455 91.8405682 77.8563636 90.6494318 77.8563636"></polygon>
            <polygon id="Fill-70" fill="#FFCE85" points="90.6494318 71.95625 91.8405682 71.95625 91.8405682 45.0946591 90.6494318 45.0946591"></polygon>
            <polygon id="Fill-71" fill="#FFCE85" points="111.646705 71.95625 112.837841 71.95625 112.837841 45.0946591 111.646705 45.0946591"></polygon>
            <polyline id="Fill-72" fill="#D64752" points="112.676114 67.0510455 119.866227 67.0510455 118.4235 70.1816136 112.676114 72.2611591"></polyline>
            <path d="M110.48683,61.181 C110.315352,60.9624773 110.05558,60.8196364 109.760352,60.8196364 C109.64683,60.8196364 109.539784,60.8435 109.438875,60.8816818 C109.274216,60.6069091 108.981034,60.4217955 108.643534,60.4217955 C108.253193,60.4217955 107.919784,60.6669091 107.77967,61.0146364 C107.683534,60.7552045 107.440807,60.5700909 107.154443,60.5700909 C106.852057,60.5700909 106.599443,60.7763409 106.51592,61.0579318 C106.351602,60.9116818 106.139557,60.8196364 105.90467,60.8196364 C105.736602,60.8196364 105.581148,60.8687273 105.445125,60.9478182 C105.31967,60.5714545 104.97467,60.2990682 104.564216,60.2990682 C104.186489,60.2990682 103.862284,60.5298636 103.715011,60.8605455 C103.597739,60.7575909 103.447739,60.6931591 103.281034,60.6931591 C103.12558,60.6931591 102.984784,60.7490682 102.871261,60.83975 C102.705239,60.3791818 102.276034,60.0495227 101.768761,60.0495227 C101.117284,60.0495227 100.589216,60.5895227 100.589216,61.256 C100.589216,61.3415682 100.59842,61.4244091 100.615125,61.5052045 L100.585125,61.5052045 C100.585125,60.9767955 100.166489,60.5489545 99.6500114,60.5489545 C99.482625,60.5489545 99.3278523,60.5980455 99.1918295,60.6767955 C99.1236477,60.2169091 98.7391023,59.8640682 98.2706932,59.8640682 C97.768875,59.8640682 97.3631932,60.2683864 97.3403523,60.7756591 C97.2466023,60.7245227 97.1416023,60.6931591 97.0280795,60.6931591 C96.8511477,60.6931591 96.6916023,60.7644091 96.5719432,60.8786136 C96.4072841,60.6058864 96.1147841,60.4217955 95.7779659,60.4217955 C95.6542159,60.4217955 95.5366023,60.4480455 95.4285341,60.4923636 C95.3146705,60.2799773 95.0964886,60.1344091 94.8428523,60.1344091 C94.791375,60.1344091 94.7416023,60.1415682 94.6935341,60.1531591 C94.4927386,59.7798636 94.1095568,59.5238409 93.6636477,59.5238409 C93.0125114,59.5238409 92.4844432,60.0641818 92.4844432,60.7303182 C92.4844432,60.7804318 92.4933068,60.8278182 92.4987614,60.8762273 C92.3371705,60.6900909 92.1036477,60.5700909 91.8408068,60.5700909 L91.8408068,61.5052045 L91.8408068,62.37725 L91.8408068,62.7324773 L91.8408068,71.5395227 L111.646602,71.5395227 L111.646602,62.5841818 L111.646602,61.5052045 L111.646602,60.17225 C111.061602,60.17225 110.579216,60.6089545 110.48683,61.181" id="Fill-73" fill="#EFE8CE"></path>
            <path d="M110.48683,61.8285227 C110.315352,61.6147727 110.05558,61.4753409 109.760352,61.4753409 C109.64683,61.4753409 109.539784,61.4985227 109.438875,61.5356818 C109.274216,61.2673864 108.981034,61.0863636 108.643534,61.0863636 C108.253193,61.0863636 107.919784,61.3256818 107.77967,61.6652273 C107.683534,61.4119318 107.440807,61.23125 107.154443,61.23125 C106.852057,61.23125 106.599443,61.4330682 106.51592,61.7078409 C106.351602,61.565 106.139557,61.4753409 105.90467,61.4753409 C105.736602,61.4753409 105.581148,61.5230682 105.445125,61.6004545 C105.31967,61.2326136 104.97467,60.9663636 104.564216,60.9663636 C104.186489,60.9663636 103.862284,61.1920455 103.715011,61.5148864 C103.597739,61.4143182 103.447739,61.3515909 103.281034,61.3515909 C103.12558,61.3515909 102.984784,61.4064773 102.871261,61.4947727 C102.705239,61.0444318 102.276034,60.7219318 101.768761,60.7219318 C101.117284,60.7219318 100.589216,61.25 100.589216,61.9014773 C100.589216,61.9853409 100.59842,62.0664773 100.615125,62.1455682 L100.585125,62.1455682 C100.585125,61.6290909 100.166489,61.2107955 99.6500114,61.2107955 C99.482625,61.2107955 99.3278523,61.2581818 99.1918295,61.3352273 C99.1236477,60.8859091 98.7391023,60.5405682 98.2706932,60.5405682 C97.768875,60.5405682 97.3631932,60.9363636 97.3403523,61.4320455 C97.2466023,61.3819318 97.1416023,61.3515909 97.0280795,61.3515909 C96.8511477,61.3515909 96.6916023,61.4211364 96.5719432,61.5329545 C96.4072841,61.2660227 96.1147841,61.0863636 95.7779659,61.0863636 C95.6542159,61.0863636 95.5366023,61.1115909 95.4285341,61.1552273 C95.3146705,60.9476136 95.0964886,60.8051136 94.8428523,60.8051136 C94.791375,60.8051136 94.7416023,60.8122727 94.6935341,60.8235227 C94.4927386,60.4584091 94.1095568,60.2081818 93.6636477,60.2081818 C93.0125114,60.2081818 92.4844432,60.73625 92.4844432,61.3877273 C92.4844432,61.4368182 92.4933068,61.4831818 92.4987614,61.5305682 C92.3371705,61.3485227 92.1036477,61.23125 91.8408068,61.23125 L91.8408068,62.1455682 L91.8408068,62.9978409 L91.8408068,63.3452273 L91.8408068,71.95625 L111.646602,71.95625 L111.646602,63.2003409 L111.646602,62.1455682 L111.646602,60.8419318 C111.061602,60.8419318 110.579216,61.2690909 110.48683,61.8285227" id="Fill-74" fill="#FAF5DC"></path>
            <polygon id="Fill-75" fill="#F2F4F4" points="91.7911364 71.95625 111.646705 71.95625 111.646705 48.7676136 91.7911364 48.7676136"></polygon>
            <path d="M83.36925,79.8744091 C83.36925,75.5012273 86.9140227,71.9561136 91.2875455,71.9561136 C95.6610682,71.9561136 99.2058409,75.5012273 99.2058409,79.8744091 C99.2058409,84.24725 95.6610682,87.7930455 91.2875455,87.7930455 C86.9140227,87.7930455 83.36925,84.24725 83.36925,79.8744091 Z" id="Stroke-76" stroke="#333333" stroke-width="0.681818182"></path>
            <path d="M90.2150455,79.8744091 C90.2150455,79.28225 90.6950455,78.8019091 91.2875455,78.8019091 C91.8797045,78.8019091 92.3597045,79.28225 92.3597045,79.8744091 C92.3597045,80.4665682 91.8797045,80.9469091 91.2875455,80.9469091 C90.6950455,80.9469091 90.2150455,80.4665682 90.2150455,79.8744091" id="Fill-77" fill="#333333"></path>
            <path d="M91.287375,71.9562841 L91.287375,87.792875" id="Stroke-78" stroke="#333333" stroke-width="0.5"></path>
            <path d="M83.36925,79.8744091 L99.2058409,79.8744091" id="Stroke-79" stroke="#333333" stroke-width="0.5"></path>
            <path d="M85.9387159,74.036 L96.6845114,85.6661136" id="Stroke-80" stroke="#333333" stroke-width="0.5"></path>
            <path d="M96.6846818,74.036 L85.9388864,85.6661136" id="Stroke-81" stroke="#333333" stroke-width="0.5"></path>
        </g>
    </g>
</svg>