<?xml version="1.0" encoding="UTF-8"?>
<svg width="120px" height="120px" viewBox="0 0 120 120" version="1.1" xmlns="http://www.w3.org/2000/svg" xmlns:xlink="http://www.w3.org/1999/xlink">
    <!-- Generator: Sketch 51.1 (57501) - http://www.bohemiancoding.com/sketch -->
    <title>Exit button3</title>
    <desc>Created with Sketch.</desc>
    <defs>
        <polygon id="path-1" points="0 0 119.999773 0 119.999773 120 0 120"></polygon>
        <polygon id="path-3" points="0.000139195803 0.9173 110.2124 0.9173 110.2124 111 0.000139195803 111"></polygon>
    </defs>
    <g id="Exit-button3" stroke="none" stroke-width="1" fill="none" fill-rule="evenodd">
        <g id="Page-1">
            <g id="Group-3">
                <mask id="mask-2" fill="white">
                    <use xlink:href="#path-1"></use>
                </mask>
                <g id="Clip-2"></g>
                <path d="M81.7966,118.125 C70.8986,120.625 49.1016,120.625 38.2026,118.125 C18.6476,113.64 6.3196,101.361 1.8746,81.797 C-0.6374,70.741 -0.6134,48.946 1.8746,38.203 C6.4016,18.657 18.6596,6.415 38.2026,1.875 C48.8956,-0.609 70.6896,-0.641 81.7966,1.875 C101.3636,6.308 113.4716,18.687 118.1246,38.203 C120.5766,48.488 120.6726,70.261 118.1246,81.797 C113.7976,101.388 101.3516,113.64 81.7966,118.125" id="Fill-1" fill="#83C5EA" mask="url(#mask-2)"></path>
            </g>
            <g id="Group-6" transform="translate(0.000000, 9.000000)">
                <mask id="mask-4" fill="white">
                    <use xlink:href="#path-3"></use>
                </mask>
                <g id="Clip-5"></g>
                <path d="M91.6404,99.2813 C80.7424,101.7813 58.9454,101.7813 48.0464,99.2813 C28.4914,94.7963 16.1634,82.5173 11.7184,62.9533 C9.2064,51.8973 9.2304,30.1023 11.7184,19.3593 C13.3694,12.2293 16.0614,6.0843 19.7484,0.9173 C10.7534,7.3373 4.7494,16.7913 1.8744,29.2033 C-0.6126,39.9463 -0.6366,61.7413 1.8744,72.7973 C6.3194,92.3613 18.6474,104.6393 38.2024,109.1253 C49.1014,111.6253 70.8984,111.6253 81.7964,109.1253 C94.2374,106.2713 103.7864,100.2623 110.2124,91.2333 C105.0054,94.9403 98.8054,97.6373 91.6404,99.2813" id="Fill-4" fill="#6CB7D8" mask="url(#mask-4)"></path>
            </g>
            <path d="M38.0183,87.6826 C36.5083,87.6826 35.2843,86.5126 35.2843,85.0706 L35.2843,34.9296 C35.2843,33.4876 36.5083,32.3176 38.0183,32.3176 L53.3033,32.3176 L53.3033,87.6826 L38.0183,87.6826 Z M60.9743,55.1146 C62.3863,55.1146 63.5313,57.3016 63.5313,59.9996 C63.5313,62.6976 62.3863,64.8846 60.9743,64.8846 C59.5613,64.8846 58.4173,62.6976 58.4173,59.9996 C58.4173,57.3016 59.5613,55.1146 60.9743,55.1146 Z M83.4673,27.0606 L62.0193,20.9026 C57.6763,19.6566 53.3033,22.7626 53.3033,27.0946 L53.3033,29.0616 L38.0183,29.0616 C34.6253,29.0616 31.8743,31.6886 31.8743,34.9296 L31.8743,85.0706 C31.8743,88.3116 34.6253,90.9386 38.0183,90.9386 L53.3033,90.9386 L53.3033,92.9056 C53.3033,97.2376 57.6763,100.3436 62.0193,99.0976 L83.4673,92.9396 C86.2603,92.1366 88.1243,89.8006 88.1243,87.0826 L88.1243,85.0706 L88.1243,34.9296 L88.1243,32.9166 C88.1243,30.1996 86.2603,27.8636 83.4673,27.0606 Z" id="Fill-7" fill="#FFFFFF"></path>
        </g>
    </g>
</svg>