<?xml version="1.0" encoding="UTF-8"?>
<svg width="120px" height="120px" viewBox="0 0 120 120" version="1.1" xmlns="http://www.w3.org/2000/svg" xmlns:xlink="http://www.w3.org/1999/xlink">
    <!-- Generator: Sketch 51.1 (57501) - http://www.bohemiancoding.com/sketch -->
    <title>Animal number8</title>
    <desc>Created with Sketch.</desc>
    <defs>
        <polygon id="path-1" points="0 0 19.4158 0 19.4158 36.5548 0 36.5548"></polygon>
        <polygon id="path-3" points="0.8601 0 20.276 0 20.276 36.5548 0.8601 36.5548"></polygon>
    </defs>
    <g id="Animal-number8" stroke="none" stroke-width="1" fill="none" fill-rule="evenodd">
        <g id="Page-1" transform="translate(22.000000, 0.000000)">
            <g id="Group-3">
                <mask id="mask-2" fill="white">
                    <use xlink:href="#path-1"></use>
                </mask>
                <g id="Clip-2"></g>
                <path d="M19.4158,21.2498 L12.7088,36.5548 L6.6848,30.5038 L5.7388,29.5458 L4.3608,28.1668 C2.8248,26.6178 1.6838,24.8078 0.9608,22.8638 C0.7908,22.4318 0.6458,21.9718 0.5278,21.5248 C-0.5622,17.5348 0.0288,13.1638 2.3528,9.5418 C2.6148,9.1218 2.9168,8.7018 3.2318,8.3078 C3.2848,8.2418 3.3238,8.1888 3.3768,8.1238 L6.7108,4.0548 L7.5628,3.0048 L9.9128,0.1308 C10.1368,-0.1462 10.5568,0.0518 10.5038,0.3928 L9.8998,4.0678 L9.6898,5.4198 L9.6768,5.4598 C9.4928,6.5748 9.4538,7.6908 9.5458,8.7938 C9.5718,9.2398 9.6248,9.6868 9.7168,10.1188 C9.9128,11.3008 10.2808,12.4558 10.7928,13.5318 C10.9768,13.9378 11.1738,14.3328 11.4088,14.7128 C11.9608,15.6578 12.6298,16.5508 13.4038,17.3388 C13.7198,17.6528 14.0478,17.9688 14.3898,18.2438 C15.1768,18.9138 16.0428,19.5038 16.9878,19.9898 L19.4158,21.2498 Z" id="Fill-1" fill="#FFC422" mask="url(#mask-2)"></path>
            </g>
            <path d="M9.9001,4.0681 L9.6901,5.4201 C8.7061,4.9471 7.7081,4.4881 6.7111,4.0541 L7.5631,3.0051 C8.3511,3.3461 9.1261,3.7011 9.9001,4.0681" id="Fill-4" fill="#FFD970"></path>
            <path d="M9.7165,10.1189 C7.2615,9.9619 4.8075,9.7779 2.3525,9.5419 C2.6145,9.1219 2.9165,8.7019 3.2325,8.3069 C5.3315,8.5049 7.4325,8.6619 9.5455,8.7939 C9.5715,9.2399 9.6245,9.6859 9.7165,10.1189" id="Fill-6" fill="#FFD970"></path>
            <path d="M11.4089,14.7127 L0.9609,22.8637 C0.7909,22.4317 0.6459,21.9717 0.5279,21.5247 L10.7929,13.5317 C10.9759,13.9387 11.1739,14.3327 11.4089,14.7127" id="Fill-8" fill="#FFD970"></path>
            <path d="M14.3894,18.2439 C11.8424,22.3399 9.2704,26.4339 6.6844,30.5039 L5.7394,29.5459 C8.3114,25.4889 10.8704,21.4209 13.4044,17.3389 C13.7194,17.6529 14.0474,17.9689 14.3894,18.2439" id="Fill-10" fill="#FFD970"></path>
            <g id="Group-14" transform="translate(56.000000, 0.000000)">
                <mask id="mask-4" fill="white">
                    <use xlink:href="#path-3"></use>
                </mask>
                <g id="Clip-13"></g>
                <path d="M0.8601,21.2498 L7.5671,36.5548 L13.5911,30.5038 L14.5371,29.5458 L15.9151,28.1668 C17.4511,26.6178 18.5921,24.8078 19.3151,22.8638 C19.4851,22.4318 19.6301,21.9718 19.7481,21.5248 C20.8381,17.5348 20.2471,13.1638 17.9231,9.5418 C17.6611,9.1218 17.3591,8.7018 17.0441,8.3078 C16.9911,8.2418 16.9521,8.1888 16.8991,8.1238 L13.5651,4.0548 L12.7131,3.0048 L10.3631,0.1308 C10.1391,-0.1462 9.7191,0.0518 9.7721,0.3928 L10.3761,4.0678 L10.5861,5.4198 L10.5991,5.4598 C10.7831,6.5748 10.8221,7.6908 10.7301,8.7938 C10.7041,9.2398 10.6521,9.6868 10.5591,10.1188 C10.3631,11.3008 9.9951,12.4558 9.4831,13.5318 C9.2991,13.9378 9.1021,14.3328 8.8671,14.7128 C8.3151,15.6578 7.6461,16.5508 6.8721,17.3388 C6.5561,17.6528 6.2281,17.9688 5.8861,18.2438 C5.0991,18.9138 4.2331,19.5038 3.2881,19.9898 L0.8601,21.2498 Z" id="Fill-12" fill="#FFC422" mask="url(#mask-4)"></path>
            </g>
            <path d="M66.3757,4.0681 L66.5857,5.4201 C67.5697,4.9471 68.5677,4.4881 69.5647,4.0541 L68.7127,3.0051 C67.9247,3.3461 67.1497,3.7011 66.3757,4.0681" id="Fill-15" fill="#FFD970"></path>
            <path d="M66.5593,10.1189 C69.0143,9.9619 71.4683,9.7779 73.9233,9.5419 C73.6613,9.1219 73.3593,8.7019 73.0433,8.3069 C70.9443,8.5049 68.8433,8.6619 66.7303,8.7939 C66.7043,9.2399 66.6523,9.6859 66.5593,10.1189" id="Fill-17" fill="#FFD970"></path>
            <path d="M64.8669,14.7127 L75.3149,22.8637 C75.4849,22.4317 75.6299,21.9717 75.7479,21.5247 L65.4829,13.5317 C65.2999,13.9387 65.1019,14.3327 64.8669,14.7127" id="Fill-19" fill="#FFD970"></path>
            <path d="M61.8865,18.2439 C64.4335,22.3399 67.0055,26.4339 69.5915,30.5039 L70.5365,29.5459 C67.9645,25.4889 65.4055,21.4209 62.8715,17.3389 C62.5565,17.6529 62.2285,17.9689 61.8865,18.2439" id="Fill-21" fill="#FFD970"></path>
            <path d="M44.3777,41.6629 C44.3777,39.9699 43.8147,38.5999 42.6057,37.3909 C41.3967,36.1819 39.9447,35.6179 38.2537,35.6179 C36.7217,35.6179 35.2717,36.2629 34.0627,37.4719 C32.8537,38.6799 32.2087,40.1309 32.2087,41.7439 C32.2087,43.3539 32.8537,44.7259 34.0627,45.8529 C35.2717,46.9819 36.7217,47.5469 38.2537,47.5469 C41.5587,47.5469 44.3777,44.8869 44.3777,41.6629 M44.5397,88.8919 C46.2327,87.3589 47.0377,85.4259 47.0377,83.0889 C47.0377,80.9119 46.2327,78.8969 44.5397,77.1249 C42.8477,75.4319 40.9137,74.6259 38.7367,74.6259 C36.4817,74.6259 34.5467,75.5119 32.9347,77.2049 C31.3227,78.9779 30.5167,80.9119 30.5167,83.0889 C30.5167,87.8429 33.9817,91.2279 38.7367,91.2279 C40.9137,91.2279 42.8477,90.4219 44.5397,88.8919 M12.6247,109.2009 C5.7737,102.4319 1.7427,93.1629 1.7427,83.0889 C1.7427,73.4969 5.7737,65.1149 12.7847,58.4269 C9.4807,54.2349 7.7887,49.3999 7.7887,43.9189 C7.7887,35.1349 11.2547,27.3969 17.0577,21.8359 C22.7787,16.4359 30.2737,13.3739 38.3347,13.3739 C46.3937,13.3739 53.9697,16.4359 59.6917,21.8359 C65.4947,27.3969 68.9597,35.1349 68.9597,43.9189 C68.9597,48.9959 67.3487,53.6709 64.2057,57.7819 C71.5387,64.4709 75.8117,73.0949 75.8117,83.0889 C75.8117,93.0819 71.7807,102.3509 64.9297,109.2009 C58.0797,115.9719 48.6497,119.9999 38.7367,119.9999 C28.6627,119.9999 19.3947,115.9719 12.6247,109.2009" id="Fill-23" fill="#F74A75"></path>
            <path d="M9.3005,22.1492 C9.3005,14.7332 15.3125,8.7222 22.7275,8.7222 C30.1435,8.7222 36.1545,14.7332 36.1545,22.1492 C36.1545,29.5642 30.1435,35.5762 22.7275,35.5762 C15.3125,35.5762 9.3005,29.5642 9.3005,22.1492" id="Fill-25" fill="#FFFFFF"></path>
            <path d="M21.5339,22.1492 C21.5339,19.0652 24.0339,16.5652 27.1169,16.5652 C30.2009,16.5652 32.7009,19.0652 32.7009,22.1492 C32.7009,25.2332 30.2009,27.7332 27.1169,27.7332 C24.0339,27.7332 21.5339,25.2332 21.5339,22.1492" id="Fill-27" fill="#1F3016"></path>
            <path d="M56.5398,23.9715 C56.5398,20.1275 53.4238,17.0115 49.5798,17.0115 C45.7358,17.0115 42.6198,20.1275 42.6198,23.9715 C42.6198,27.8155 45.7358,30.9315 49.5798,30.9315 C53.4238,30.9315 56.5398,27.8155 56.5398,23.9715" id="Fill-29" fill="#FFFFFF"></path>
            <path d="M52.241,23.2722 C52.241,21.2812 50.627,19.6672 48.636,19.6672 C46.643,19.6672 45.029,21.2812 45.029,23.2722 C45.029,25.2642 46.643,26.8782 48.636,26.8782 C50.627,26.8782 52.241,25.2642 52.241,23.2722" id="Fill-31" fill="#1F3016"></path>
            <path d="M46.947,20.9715 C46.947,20.2505 46.363,19.6665 45.643,19.6665 C44.923,19.6665 44.338,20.2505 44.338,20.9715 C44.338,21.6925 44.923,22.2765 45.643,22.2765 C46.363,22.2765 46.947,21.6925 46.947,20.9715" id="Fill-33" fill="#FFFFFF"></path>
            <path d="M24.99,18.6385 C24.99,17.3885 23.977,16.3755 22.727,16.3755 C21.478,16.3755 20.465,17.3885 20.465,18.6385 C20.465,19.8875 21.478,20.9015 22.727,20.9015 C23.977,20.9015 24.99,19.8875 24.99,18.6385" id="Fill-35" fill="#FFFFFF"></path>
            <path d="M71.5476,70.9754 C70.6326,68.5454 68.5626,67.0754 66.9226,67.6924 C65.2826,68.3094 64.6946,70.7804 65.6096,73.2104 C66.5246,75.6404 68.5946,77.1114 70.2346,76.4944 C71.8736,75.8764 72.4616,73.4064 71.5476,70.9754" id="Fill-37" fill="#F75E85"></path>
            <path d="M65.9665,78.6267 C65.6405,77.7597 64.9015,77.2347 64.3165,77.4547 C63.7305,77.6757 63.5205,78.5577 63.8475,79.4247 C64.1735,80.2927 64.9125,80.8167 65.4985,80.5977 C66.0835,80.3767 66.2935,79.4947 65.9665,78.6267" id="Fill-39" fill="#F75E85"></path>
            <path d="M72.0661,80.2498 C71.4471,78.8268 70.0071,78.0818 68.8511,78.5848 C67.6941,79.0878 67.2561,80.6488 67.8761,82.0708 C68.4941,83.4928 69.9331,84.2388 71.0901,83.7348 C72.2471,83.2318 72.6841,81.6718 72.0661,80.2498" id="Fill-41" fill="#F75E85"></path>
            <path d="M5.2224,70.9754 C6.1374,68.5454 8.2074,67.0754 9.8474,67.6924 C11.4874,68.3094 12.0754,70.7804 11.1594,73.2104 C10.2454,75.6404 8.1744,77.1114 6.5344,76.4944 C4.8954,75.8764 4.3084,73.4064 5.2224,70.9754" id="Fill-43" fill="#F75E85"></path>
            <path d="M10.8025,78.6267 C11.1295,77.7597 11.8685,77.2347 12.4535,77.4547 C13.0395,77.6757 13.2485,78.5577 12.9225,79.4247 C12.5965,80.2927 11.8575,80.8167 11.2715,80.5977 C10.6865,80.3767 10.4765,79.4947 10.8025,78.6267" id="Fill-45" fill="#F75E85"></path>
            <path d="M4.7038,80.2498 C5.3218,78.8268 6.7618,78.0818 7.9188,78.5848 C9.0758,79.0878 9.5128,80.6488 8.8938,82.0708 C8.2758,83.4928 6.8368,84.2388 5.6798,83.7348 C4.5218,83.2318 4.0858,81.6718 4.7038,80.2498" id="Fill-47" fill="#F75E85"></path>
            <path d="M38.2566,16.3758 C38.2566,16.3758 29.3966,3.8538 33.9896,1.0098 C38.5846,-1.8342 39.4596,11.1828 39.4596,11.1828 C39.4596,11.1828 40.8816,4.8238 43.7256,5.5418 C46.5696,6.2608 44.8186,11.5058 40.0066,16.3758 L38.2566,16.3758 Z" id="Fill-49" fill="#F74A75"></path>
            <path d="M61.3327,96.7185 C61.3327,82.5495 51.2807,61.8255 38.8817,61.8255 C26.4817,61.8255 16.4317,82.5495 16.4317,96.7185 C16.4317,110.8885 26.4817,113.1385 38.8817,113.1385 C51.2807,113.1385 61.3327,110.8885 61.3327,96.7185" id="Fill-51" fill="#F77293"></path>
            <path d="M50.3972,67.1863 L27.5372,67.1863 C26.6922,67.1863 26.6912,68.4983 27.5372,68.4983 L50.3972,68.4983 C51.2422,68.4983 51.2442,67.1863 50.3972,67.1863" id="Fill-53" fill="#F78DA7"></path>
            <path d="M56.6326,77.7957 L20.5356,77.7957 C19.6926,77.7957 19.6906,79.1077 20.5356,79.1077 L56.6326,79.1077 C57.4776,79.1077 57.4786,77.7957 56.6326,77.7957" id="Fill-55" fill="#F78DA7"></path>
            <path d="M60.1326,90.2654 L16.8176,90.2654 C15.9726,90.2654 15.9716,91.5774 16.8176,91.5774 L60.1326,91.5774 C60.9776,91.5774 60.9786,90.2654 60.1326,90.2654" id="Fill-57" fill="#F78DA7"></path>
            <path d="M59.9138,103.282 L17.8018,103.282 C16.9568,103.282 16.9558,104.594 17.8018,104.594 L59.9138,104.594 C60.7588,104.594 60.7598,103.282 59.9138,103.282" id="Fill-59" fill="#F78DA7"></path>
        </g>
    </g>
</svg>