<?xml version="1.0" encoding="UTF-8"?>
<svg width="480px" height="360px" viewBox="0 0 480 360" version="1.1" xmlns="http://www.w3.org/2000/svg" xmlns:xlink="http://www.w3.org/1999/xlink">
    <!-- Generator: Sketch 51.1 (57501) - http://www.bohemiancoding.com/sketch -->
    <title>Seaside8</title>
    <desc>Created with Sketch.</desc>
    <defs>
        <polygon id="path-1" points="0.036 0 480 0 480 343.1736 0.036 343.1736"></polygon>
        <polygon id="path-3" points="0.036 0.1428 480 0.1428 480 291.0474 0.036 291.0474"></polygon>
        <polygon id="path-5" points="0.036 0.5256 480 0.5256 480 152.235 0.036 152.235"></polygon>
        <polygon id="path-7" points="0.036 0 402.0684 0 402.0684 343.1736 0.036 343.1736"></polygon>
        <polygon id="path-9" points="0.036 0.2274 480 0.2274 480 311.4 0.036 311.4"></polygon>
        <polygon id="path-11" points="0.036 0.486662103 480 0.486662103 480 112.7004 0.036 112.7004"></polygon>
        <polygon id="path-13" points="0.036 0.45566414 480 0.45566414 480 134.9004 0.036 134.9004"></polygon>
    </defs>
    <g id="Seaside8" stroke="none" stroke-width="1" fill="none" fill-rule="evenodd">
        <g id="Group" transform="translate(0.000000, -60.000000)">
            <g id="Group-3">
                <mask id="mask-2" fill="white">
                    <use xlink:href="#path-1"></use>
                </mask>
                <g id="Clip-2"></g>
                <polygon id="Fill-1" fill="#BCE0DA" mask="url(#mask-2)" points="0.036 343.1736 480 343.1736 480 0 0.036 0"></polygon>
            </g>
            <path d="M244.5036,167.0298 C242.8122,166.9542 241.11,166.9164 239.4,166.9164 C238.3566,166.9164 237.318,166.9302 236.2812,166.9584 L230.2416,0 L250.5468,0 L244.5036,167.0298" id="Fill-4" fill="#C3E3DD"></path>
            <path d="M265.4748,169.9398 C262.7892,169.3056 260.0676,168.7668 257.3118,168.3282 L280.6122,0 L301.8522,0 L265.4748,169.9398" id="Fill-5" fill="#C3E3DD"></path>
            <path d="M286.5162,177.1788 C283.7682,175.9158 280.9596,174.7602 278.0982,173.7174 L334.71,0 L360.4968,0 L286.5162,177.1788" id="Fill-6" fill="#C3E3DD"></path>
            <path d="M306.0462,188.6544 C303.3876,186.7098 300.6414,184.8786 297.8142,183.168 L397.0314,0 L430.8462,0 L306.0462,188.6544" id="Fill-7" fill="#C3E3DD"></path>
            <path d="M323.5032,204.4494 C321.5334,202.2558 319.4736,200.1342 317.34,198.1002 L480,6.1056 L480,46.962 L323.5032,204.4494" id="Fill-8" fill="#C3E3DD"></path>
            <g id="Group-12" transform="translate(0.000000, 105.600000)">
                <mask id="mask-4" fill="white">
                    <use xlink:href="#path-3"></use>
                </mask>
                <g id="Clip-10"></g>
                <path d="M339.222,121.32 C337.515,118.1106 335.6592,114.996 333.6612,111.9804 L480,0.1428 L480,34.2582 L339.222,121.32" id="Fill-9" fill="#C3E3DD" mask="url(#mask-4)"></path>
                <polyline id="Fill-11" fill="#FFFFFE" mask="url(#mask-4)" points="0 291.0474 0 263.667 77.9886 237.5736 118.4406 237.5736 0 291.0474"></polyline>
            </g>
            <path d="M118.4406,343.1736 L77.9886,343.1736 L135.3294,323.988 C136.7064,327.234 138.2316,330.405 139.8948,333.4872 L118.4406,343.1736" id="Fill-13" fill="#C3E3DD"></path>
            <g id="Group-21" transform="translate(0.000000, 179.400000)">
                <mask id="mask-6" fill="white">
                    <use xlink:href="#path-5"></use>
                </mask>
                <g id="Clip-15"></g>
                <path d="M348.8748,72.4278 C347.9616,68.8578 346.878,65.3538 345.6342,61.929 L480,1.2654 L480,28.5576 L348.8748,72.4278" id="Fill-14" fill="#C3E3DD" mask="url(#mask-6)"></path>
                <path d="M0,152.0304 L0,127.0158 L127.7034,117.672 C128.2698,121.3872 129.0168,125.0424 129.9354,128.6292 L0,152.0304" id="Fill-16" fill="#C3E3DD" mask="url(#mask-6)"></path>
                <path d="M352.3914,100.5414 C352.3914,100.53 352.3914,100.5198 352.3914,100.5084 C352.3914,96.7452 352.2072,93.021 351.8478,89.3526 L480,66.27 L480,91.203 L352.3914,100.5414" id="Fill-17" fill="#C3E3DD" mask="url(#mask-6)"></path>
                <path d="M126.4086,100.2342 L0,90.804 L0,65.7852 L127.0032,88.842 C126.6192,92.5878 126.4176,96.3894 126.4086,100.2342" id="Fill-18" fill="#C3E3DD" mask="url(#mask-6)"></path>
                <path d="M480,152.235 L348.9138,128.4366 C349.809,124.914 350.5386,121.329 351.0948,117.6834 L480,127.299 L480,152.235" id="Fill-19" fill="#C3E3DD" mask="url(#mask-6)"></path>
                <path d="M130.1232,71.6652 L88.4658,57.6642 C88.7496,57.546 88.9434,57.3072 88.9434,57.0312 L88.9434,51.4344 C88.9434,51.0408 88.5486,50.7222 88.0614,50.7222 L87.8586,50.7222 L84.4092,46.8618 L84.1872,47.1312 C83.9286,47.445 81.873,49.944 81.2982,50.7222 L81.126,50.7222 C80.6382,50.7222 80.2434,51.0408 80.2434,51.4344 L80.2434,54.9012 L0,27.9318 L0,0.5256 L133.5018,61.0158 C132.207,64.4874 131.0766,68.0418 130.1232,71.6652 M87.0534,50.7222 L82.0518,50.7222 C82.6008,50.0202 83.637,48.7458 84.4278,47.7828 L87.0534,50.7222" id="Fill-20" fill="#C3E3DD" mask="url(#mask-6)"></path>
            </g>
            <polyline id="Fill-22" fill="#FFFFFE" points="480 396.6804 361.9098 343.1736 402.0684 343.1736 480 369.3654 480 396.6804"></polyline>
            <g id="Group-27">
                <mask id="mask-8" fill="white">
                    <use xlink:href="#path-7"></use>
                </mask>
                <g id="Clip-24"></g>
                <path d="M402.0684,343.1736 L361.9098,343.1736 L339.2232,332.8944 C340.8384,329.8578 342.3204,326.736 343.6584,323.5422 L402.0684,343.1736" id="Fill-23" fill="#C3E3DD" mask="url(#mask-8)"></path>
                <path d="M140.0082,226.1196 L0,139.7874 L0,99.2778 L146.8068,215.133 C144.3402,218.6526 142.068,222.3216 140.0082,226.1196" id="Fill-25" fill="#C3E3DD" mask="url(#mask-8)"></path>
                <path d="M156.4866,203.145 L0,44.6946 L0,0 L3.0318,0 L163.8588,195.879 C161.2914,198.1884 158.8326,200.6118 156.4866,203.145" id="Fill-26" fill="#C3E3DD" mask="url(#mask-8)"></path>
            </g>
            <path d="M174.4518,187.4364 L51.474,0 L82.3098,0 L182.1024,182.5008 C179.4834,184.0446 176.9298,185.6928 174.4518,187.4364" id="Fill-28" fill="#C3E3DD"></path>
            <path d="M193.992,176.4108 L120.3912,0 L146.3982,0 L202.5966,173.0454 C199.671,174.0528 196.8036,175.1754 193.992,176.4108" id="Fill-29" fill="#C3E3DD"></path>
            <path d="M215.337,169.4838 L179.2332,0 L200.4624,0 L223.5516,168.0192 C220.7796,168.408 218.0412,168.8976 215.337,169.4838" id="Fill-30" fill="#C3E3DD"></path>
            <path d="M239.4,392.8992 C200.436,392.8992 166.08,373.1802 145.767,343.1736 L333.033,343.1736 C312.72,373.1802 278.364,392.8992 239.4,392.8992" id="Fill-31" fill="#F1F2EF"></path>
            <path d="M333.033,343.1736 L145.767,343.1736 C143.6544,340.053 141.693,336.8202 139.8948,333.4872 L234.2208,290.901 L135.3294,323.988 C133.1514,318.852 131.3424,313.521 129.9354,308.0292 L233.9412,289.2984 L127.7034,297.072 C126.8508,291.4752 126.4086,285.7434 126.4086,279.9084 C126.4086,279.8166 126.4086,279.7254 126.4086,279.6342 L233.9412,287.6562 L127.0032,268.242 C127.6056,262.3716 128.6574,256.6344 130.1232,251.0652 L234.2232,286.053 L133.5018,240.4158 C135.345,235.4748 137.5206,230.7054 140.0082,226.1196 L234.7758,284.5554 L146.8068,215.133 C149.7612,210.918 152.9982,206.9112 156.4866,203.145 L235.5756,283.227 L163.8588,195.879 C167.2134,192.8616 170.7522,190.0398 174.4518,187.4364 L236.5806,282.1308 L182.1024,182.5008 C185.9268,180.246 189.8958,178.2108 193.992,176.4108 L237.7572,281.3094 L202.5966,173.0454 C206.7402,171.6186 210.9918,170.4264 215.337,169.4838 L239.0502,280.8024 L223.5516,168.0192 C227.7246,167.4336 231.975,167.0754 236.2812,166.9584 L240.3936,280.6338 L244.5036,167.0298 C248.8404,167.2224 253.116,167.6598 257.3118,168.3282 L241.7418,280.8096 L265.4748,169.9398 C269.784,170.9574 273.9954,172.2216 278.0982,173.7174 L243.0336,281.3172 L286.5162,177.1788 C290.4078,178.9662 294.1758,180.966 297.8142,183.168 L244.206,282.1356 L306.0462,188.6544 C310.0146,191.5584 313.788,194.715 317.34,198.1002 L245.214,283.2342 L323.5032,204.4494 C327.1998,208.5666 330.594,212.9514 333.6612,217.5804 L246.015,284.562 L339.222,226.92 C341.6796,231.5412 343.8276,236.3544 345.6342,241.329 L246.5634,286.0578 L348.8748,251.8278 C350.2794,257.3202 351.2814,262.971 351.8478,268.7526 L246.8478,287.6646 L352.3914,279.9414 C352.3896,285.768 351.9468,291.4944 351.0948,297.0834 L246.8478,289.3074 L348.9138,307.8366 C347.5404,313.2366 345.7776,318.4842 343.6584,323.5422 L246.5604,290.9088 L339.2232,332.8944 C337.3386,336.4368 335.2704,339.8682 333.033,343.1736" id="Fill-32" fill="#AFD4CD"></path>
            <path d="M240.3936,280.6338 L236.2812,166.9584 C237.318,166.9302 238.3566,166.9164 239.4,166.9164 C241.11,166.9164 242.8122,166.9542 244.5036,167.0298 L240.3936,280.6338" id="Fill-33" fill="#B6D6CF"></path>
            <path d="M241.7418,280.8096 L257.3118,168.3282 C260.0676,168.7668 262.7892,169.3056 265.4748,169.9398 L241.7418,280.8096" id="Fill-34" fill="#B6D6CF"></path>
            <path d="M243.0336,281.3172 L278.0982,173.7174 C280.9596,174.7602 283.7682,175.9158 286.5162,177.1788 L243.0336,281.3172" id="Fill-35" fill="#B6D6CF"></path>
            <path d="M244.206,282.1356 L297.8142,183.168 C300.6414,184.8786 303.3876,186.7098 306.0462,188.6544 L244.206,282.1356" id="Fill-36" fill="#B6D6CF"></path>
            <path d="M245.214,283.2342 L317.34,198.1002 C319.4736,200.1342 321.5334,202.2558 323.5032,204.4494 L245.214,283.2342" id="Fill-37" fill="#B6D6CF"></path>
            <path d="M246.015,284.562 L333.6612,217.5804 C335.6592,220.596 337.515,223.7106 339.222,226.92 L246.015,284.562" id="Fill-38" fill="#B6D6CF"></path>
            <path d="M139.8948,333.4872 C138.2316,330.405 136.7064,327.234 135.3294,323.988 L234.2208,290.901 L139.8948,333.4872" id="Fill-39" fill="#B6D6CF"></path>
            <path d="M246.5634,286.0578 L345.6342,241.329 C346.878,244.7538 347.9616,248.2578 348.8748,251.8278 L246.5634,286.0578" id="Fill-40" fill="#B6D6CF"></path>
            <path d="M129.9354,308.0292 C129.0168,304.4424 128.2698,300.7872 127.7034,297.072 L233.9412,289.2984 L129.9354,308.0292" id="Fill-41" fill="#B6D6CF"></path>
            <path d="M246.8478,287.6646 L351.8478,268.7526 C352.2072,272.421 352.3914,276.1452 352.3914,279.9084 C352.3914,279.9198 352.3914,279.93 352.3914,279.9414 L246.8478,287.6646" id="Fill-42" fill="#B6D6CF"></path>
            <path d="M233.9412,287.6562 L126.4086,279.6342 C126.4176,275.7894 126.6192,271.9878 127.0032,268.242 L233.9412,287.6562" id="Fill-43" fill="#B6D6CF"></path>
            <path d="M348.9138,307.8366 L246.8478,289.3074 L351.0948,297.0834 C350.5386,300.729 349.809,304.314 348.9138,307.8366" id="Fill-44" fill="#B6D6CF"></path>
            <path d="M234.2232,286.053 L130.1232,251.0652 C131.0766,247.4418 132.207,243.8874 133.5018,240.4158 L234.2232,286.053" id="Fill-45" fill="#B6D6CF"></path>
            <path d="M339.2232,332.8944 L246.5604,290.9088 L343.6584,323.5422 C342.3204,326.736 340.8384,329.8578 339.2232,332.8944" id="Fill-46" fill="#B6D6CF"></path>
            <path d="M234.7758,284.5554 L140.0082,226.1196 C142.068,222.3216 144.3402,218.6526 146.8068,215.133 L234.7758,284.5554" id="Fill-47" fill="#B6D6CF"></path>
            <path d="M235.5756,283.227 L156.4866,203.145 C158.8326,200.6118 161.2914,198.1884 163.8588,195.879 L235.5756,283.227" id="Fill-48" fill="#B6D6CF"></path>
            <path d="M236.5806,282.1308 L174.4518,187.4364 C176.9298,185.6928 179.4834,184.0446 182.1024,182.5008 L236.5806,282.1308" id="Fill-49" fill="#B6D6CF"></path>
            <path d="M237.7572,281.3094 L193.992,176.4108 C196.8036,175.1754 199.671,174.0528 202.5966,173.0454 L237.7572,281.3094" id="Fill-50" fill="#B6D6CF"></path>
            <path d="M239.0502,280.8024 L215.337,169.4838 C218.0412,168.8976 220.7796,168.408 223.5516,168.0192 L239.0502,280.8024" id="Fill-51" fill="#B6D6CF"></path>
            <g id="Group-57" transform="translate(0.000000, 168.600000)">
                <mask id="mask-10" fill="white">
                    <use xlink:href="#path-9"></use>
                </mask>
                <g id="Clip-53"></g>
                <path d="M353.4498,113.6772 C353.4498,176.334 302.6568,227.127 240,227.127 C177.3432,227.127 126.5502,176.334 126.5502,113.6772 C126.5502,51.0204 177.3432,0.2274 240,0.2274 C302.6568,0.2274 353.4498,51.0204 353.4498,113.6772" id="Fill-52" fill="#EDCA71" mask="url(#mask-10)"></path>
                <polygon id="Fill-54" fill="#659C9E" mask="url(#mask-10)" points="0.036 311.4 480 311.4 480 174.5736 0.036 174.5736"></polygon>
                <polygon id="Fill-55" fill="#598D8E" mask="url(#mask-10)" points="0.036 179.973 480 179.973 480 146.9004 0.036 146.9004"></polygon>
                <polygon id="Fill-56" fill="#4E7C7D" mask="url(#mask-10)" points="0.036 154.5 480 154.5 480 146.9004 0.036 146.9004"></polygon>
            </g>
            <g id="Group-92" transform="translate(0.000000, 202.800000)">
                <mask id="mask-12" fill="white">
                    <use xlink:href="#path-11"></use>
                </mask>
                <g id="Clip-90"></g>
                <path d="M295.0446,112.671 C295.0446,112.671 318.5586,83.0028 320.6376,70.3842 C322.7178,57.765 335.886,49.5768 336.453,37.7226 C337.02,25.8684 346.6626,18.9858 350.4426,11.529 C354.2238,4.0722 366.8904,4.8378 370.2936,6.9402 C373.6968,9.0438 388.065,20.8974 392.6022,34.8552 C397.1394,48.8124 410.1846,63.9162 423.2286,65.6376 C436.2732,67.3578 434.0052,74.6232 439.2984,86.6682 C444.5916,98.7138 480.9912,100.5108 493.0446,112.7004 C480.759,112.7004 295.0446,112.671 295.0446,112.671" id="Fill-89" fill="#528A5A" mask="url(#mask-12)"></path>
                <path d="M-30.042,107.3904 C-26.5764,94.191 -2.9964,86.583 5.4204,68.2554 C13.8366,49.9272 19.6578,36.0102 27.8244,19.4694 C35.9898,2.928 43.1094,-2.0964 55.0434,1.6728 C66.978,5.4414 74.9346,23.0286 79.5414,41.2452 C84.1476,59.4612 132.3642,81.4278 141.159,107.3904 C78.693,107.3904 36.8808,107.3904 -30.042,107.3904" id="Fill-91" fill="#4D8153" mask="url(#mask-12)"></path>
            </g>
            <path d="M17.4126,309.8364 C17.4126,309.8364 27.2388,287.7462 43.404,286.479 C59.5692,285.213 70.98,264.1086 75.1008,256.9332 C79.221,249.7572 92.5338,238.7826 110.9178,239.6262 C129.3018,240.4704 130.5816,251.9562 136.9206,262.9308 C143.2602,273.9048 166.8072,274.0128 170.295,286.3836 C174.5538,301.4916 203.5338,309.2154 203.5338,309.2154 L17.4126,309.8364" id="Fill-93" fill="#528A5A"></path>
            <path d="M433.404,204.4446 C433.2498,204.4446 433.0962,204.3858 432.9798,204.2688 C429.3702,200.6616 425.46,204.1374 425.2944,204.2874 C425.0502,204.5112 424.6704,204.4932 424.4472,204.249 C424.2246,204.0048 424.2408,203.6262 424.485,203.4024 C424.5318,203.3598 429.12,199.2444 433.4382,203.0544 C439.0368,198.8508 443.487,203.3832 443.5326,203.43 C443.7618,203.6694 443.7534,204.0492 443.5134,204.2784 C443.274,204.5076 442.8942,204.4992 442.665,204.2598 C442.5072,204.096 438.705,200.2692 433.785,204.3084 C433.6734,204.3996 433.5384,204.4446 433.404,204.4446" id="Fill-94" fill="#1B1A19"></path>
            <path d="M447.5634,257.3784 C447.4098,257.3784 447.2562,257.319 447.1392,257.2026 C445.6734,255.7356 444.108,257.0658 443.9334,257.2224 C443.6886,257.4438 443.3094,257.4258 443.0874,257.181 C442.8648,256.9368 442.8816,256.5594 443.1246,256.3362 C443.9382,255.591 445.8462,254.652 447.594,256.0056 C449.8104,254.496 451.8078,255.5436 452.592,256.3632 C452.8212,256.6032 452.8128,256.983 452.5734,257.2122 C452.3352,257.4414 451.9542,257.433 451.725,257.193 C451.5576,257.022 450.0066,255.5508 447.9444,257.2416 C447.8334,257.3334 447.6984,257.3784 447.5634,257.3784" id="Fill-95" fill="#1B1A19"></path>
            <path d="M417.2772,233.5536 C417.123,233.5536 416.9694,233.4942 416.853,233.3778 C415.3878,231.9108 413.8212,233.241 413.6466,233.3976 C413.4018,233.6196 413.022,233.6016 412.8006,233.3562 C412.5786,233.112 412.5948,232.7346 412.8378,232.5114 C413.6514,231.7656 415.56,230.8266 417.3078,232.1808 C419.5236,230.6706 421.521,231.7194 422.3058,232.5384 C422.535,232.7784 422.5266,233.1582 422.2872,233.3874 C422.0484,233.6166 421.668,233.6082 421.4382,233.3682 C421.2702,233.1972 419.7198,231.726 417.6582,233.4168 C417.5466,233.5086 417.4122,233.5536 417.2772,233.5536" id="Fill-96" fill="#1B1A19"></path>
            <path d="M109.2696,210.2712 C109.1154,210.2712 108.9624,210.2124 108.8454,210.0954 C105.2364,206.4876 101.3256,209.964 101.1606,210.114 C100.9158,210.3378 100.5366,210.3198 100.3128,210.0756 C100.0902,209.8314 100.107,209.4528 100.3506,209.229 C100.3974,209.1864 104.9862,205.071 109.3044,208.881 C114.9024,204.6774 119.3526,209.2098 119.3982,209.2566 C119.6274,209.496 119.619,209.8758 119.3796,210.105 C119.1396,210.3342 118.7604,210.3258 118.5312,210.0864 C118.3728,209.9226 114.5706,206.0958 109.6506,210.135 C109.539,210.2262 109.4046,210.2712 109.2696,210.2712" id="Fill-97" fill="#1B1A19"></path>
            <path d="M13.6458,218.739 C13.4916,218.739 13.338,218.6802 13.2216,218.5632 C11.7552,217.0962 10.1898,218.427 10.0152,218.5836 C9.771,218.805 9.3912,218.787 9.1692,218.5416 C8.9472,218.2974 8.9634,217.92 9.2064,217.6968 C10.0206,216.9522 11.928,216.0126 13.6758,217.3662 C15.8922,215.8572 17.8896,216.9048 18.6744,217.7244 C18.903,217.9638 18.8952,218.3436 18.6552,218.5728 C18.417,218.8026 18.036,218.7936 17.8068,218.5542 C17.6394,218.3832 16.0884,216.912 14.0262,218.6028 C13.9152,218.694 13.7802,218.739 13.6458,218.739" id="Fill-98" fill="#1B1A19"></path>
            <path d="M57.3948,195.1452 C57.2406,195.1452 57.087,195.0858 56.9706,194.9694 C55.5048,193.5018 53.9388,194.8326 53.7642,194.9892 C53.5194,195.2112 53.1396,195.1932 52.9182,194.9478 C52.6962,194.703 52.7124,194.3256 52.9554,194.1024 C53.769,193.3572 55.677,192.4182 57.4248,193.7724 C59.6412,192.2622 61.6386,193.311 62.4234,194.13 C62.652,194.37 62.6442,194.7498 62.4042,194.9784 C62.166,195.2082 61.7856,195.1998 61.5558,194.9598 C61.3878,194.7888 59.8374,193.3176 57.7758,195.0084 C57.6642,195.1002 57.5292,195.1452 57.3948,195.1452" id="Fill-99" fill="#1B1A19"></path>
            <polygon id="Fill-100" fill="#E9E7CD" points="275.421 305.607 290.9244 305.607 290.9244 247.5648 275.421 247.5648"></polygon>
            <polygon id="Fill-101" fill="#1B1A19" points="278.1738 300.6966 288.1722 300.6966 288.1722 299.154 278.1738 299.154"></polygon>
            <polygon id="Fill-102" fill="#1B1A19" points="278.1738 297.612 288.1722 297.612 288.1722 296.0706 278.1738 296.0706"></polygon>
            <polygon id="Fill-103" fill="#1B1A19" points="278.1738 294.5274 288.1722 294.5274 288.1722 292.9842 278.1738 292.9842"></polygon>
            <polygon id="Fill-104" fill="#1B1A19" points="278.1738 291.4422 288.1722 291.4422 288.1722 289.8996 278.1738 289.8996"></polygon>
            <polygon id="Fill-105" fill="#1B1A19" points="278.1738 288.3582 288.1722 288.3582 288.1722 286.8156 278.1738 286.8156"></polygon>
            <polygon id="Fill-106" fill="#1B1A19" points="278.1738 285.273 288.1722 285.273 288.1722 283.7298 278.1738 283.7298"></polygon>
            <polygon id="Fill-107" fill="#1B1A19" points="278.1738 282.1884 288.1722 282.1884 288.1722 280.6464 278.1738 280.6464"></polygon>
            <polygon id="Fill-108" fill="#1B1A19" points="278.1738 279.1026 288.1722 279.1026 288.1722 277.5618 278.1738 277.5618"></polygon>
            <polygon id="Fill-109" fill="#1B1A19" points="278.1738 276.018 288.1722 276.018 288.1722 274.4778 278.1738 274.4778"></polygon>
            <polygon id="Fill-110" fill="#1B1A19" points="278.1738 272.934 288.1722 272.934 288.1722 271.3908 278.1738 271.3908"></polygon>
            <polygon id="Fill-111" fill="#1B1A19" points="278.1738 269.8482 288.1722 269.8482 288.1722 268.3074 278.1738 268.3074"></polygon>
            <polygon id="Fill-112" fill="#1B1A19" points="278.1738 266.7636 288.1722 266.7636 288.1722 265.2222 278.1738 265.2222"></polygon>
            <polygon id="Fill-113" fill="#1B1A19" points="278.1738 263.6796 288.1722 263.6796 288.1722 262.137 278.1738 262.137"></polygon>
            <polygon id="Fill-114" fill="#1B1A19" points="278.1738 260.595 288.1722 260.595 288.1722 259.0524 278.1738 259.0524"></polygon>
            <polygon id="Fill-115" fill="#1B1A19" points="278.1738 257.5104 288.1722 257.5104 288.1722 255.9672 278.1738 255.9672"></polygon>
            <polygon id="Fill-116" fill="#1B1A19" points="278.1738 254.4252 288.1722 254.4252 288.1722 252.882 278.1738 252.882"></polygon>
            <polygon id="Fill-117" fill="#1B1A19" points="278.1738 251.3412 288.1722 251.3412 288.1722 249.7974 278.1738 249.7974"></polygon>
            <polygon id="Fill-118" fill="#DA7643" points="234.5388 308.3088 251.8266 308.3088 251.8266 243.585 234.5388 243.585"></polygon>
            <polygon id="Fill-119" fill="#0B0D0A" points="236.8434 300.5328 249.5232 300.5328 249.5232 298.8828 236.8434 298.8828"></polygon>
            <polygon id="Fill-120" fill="#0B0D0A" points="236.8434 297.2316 249.5232 297.2316 249.5232 295.5822 236.8434 295.5822"></polygon>
            <polygon id="Fill-121" fill="#0B0D0A" points="236.8434 293.9322 249.5232 293.9322 249.5232 292.281 236.8434 292.281"></polygon>
            <polygon id="Fill-122" fill="#0B0D0A" points="236.8434 290.6316 249.5232 290.6316 249.5232 288.9816 236.8434 288.9816"></polygon>
            <polygon id="Fill-123" fill="#0B0D0A" points="236.8434 287.331 249.5232 287.331 249.5232 285.681 236.8434 285.681"></polygon>
            <polygon id="Fill-124" fill="#0B0D0A" points="236.8434 284.0304 249.5232 284.0304 249.5232 282.3798 236.8434 282.3798"></polygon>
            <polygon id="Fill-125" fill="#0B0D0A" points="236.8434 280.7292 249.5232 280.7292 249.5232 279.0804 236.8434 279.0804"></polygon>
            <polygon id="Fill-126" fill="#0B0D0A" points="236.8434 277.4298 249.5232 277.4298 249.5232 275.7792 236.8434 275.7792"></polygon>
            <polygon id="Fill-127" fill="#0B0D0A" points="236.8434 274.1292 249.5232 274.1292 249.5232 272.4786 236.8434 272.4786"></polygon>
            <polygon id="Fill-128" fill="#0B0D0A" points="236.8434 270.8286 249.5232 270.8286 249.5232 269.1786 236.8434 269.1786"></polygon>
            <polygon id="Fill-129" fill="#0B0D0A" points="236.8434 267.528 249.5232 267.528 249.5232 265.8774 236.8434 265.8774"></polygon>
            <polygon id="Fill-130" fill="#0B0D0A" points="236.8434 264.228 249.5232 264.228 249.5232 262.5774 236.8434 262.5774"></polygon>
            <polygon id="Fill-131" fill="#0B0D0A" points="236.8434 260.928 249.5232 260.928 249.5232 259.2774 236.8434 259.2774"></polygon>
            <polygon id="Fill-132" fill="#0B0D0A" points="236.8434 257.6274 249.5232 257.6274 249.5232 255.9768 236.8434 255.9768"></polygon>
            <polygon id="Fill-133" fill="#0B0D0A" points="236.8434 254.3262 249.5232 254.3262 249.5232 252.6756 236.8434 252.6756"></polygon>
            <polygon id="Fill-134" fill="#0B0D0A" points="236.8434 251.0262 249.5232 251.0262 249.5232 249.3762 236.8434 249.3762"></polygon>
            <polygon id="Fill-135" fill="#0B0D0A" points="236.8434 247.7262 249.5232 247.7262 249.5232 246.075 236.8434 246.075"></polygon>
            <polyline id="Fill-136" fill="#DE5A62" points="299.5986 252.8238 299.5986 239.2104 285.6618 239.2104 285.6618 300.3372 308.9238 300.3372 308.9238 252.8238 299.5986 252.8238"></polyline>
            <polyline id="Fill-137" fill="#D95F59" points="264.7626 252.8238 264.7626 239.2104 278.7006 239.2104 278.7006 300.3372 255.438 300.3372 255.438 252.8238 264.7626 252.8238"></polyline>
            <polyline id="Fill-138" fill="#DE5A62" points="252.4926 300.0306 252.7002 308.673 311.6496 308.673 311.442 300.0306 252.4926 300.0306"></polyline>
            <polygon id="Fill-139" fill="#1B1A19" points="285.672 243.0918 299.6094 243.0918 299.6094 241.857 285.672 241.857"></polygon>
            <polygon id="Fill-140" fill="#1B1A19" points="285.672 246.411 299.6094 246.411 299.6094 245.1756 285.672 245.1756"></polygon>
            <polygon id="Fill-141" fill="#1B1A19" points="285.672 249.7296 299.6094 249.7296 299.6094 248.4942 285.672 248.4942"></polygon>
            <polygon id="Fill-142" fill="#1B1A19" points="285.672 253.0464 299.6094 253.0464 299.6094 251.8116 285.672 251.8116"></polygon>
            <polygon id="Fill-143" fill="#1B1A19" points="285.672 256.3644 308.9364 256.3644 308.9364 255.1302 285.672 255.1302"></polygon>
            <polygon id="Fill-144" fill="#1B1A19" points="285.672 259.6836 308.9364 259.6836 308.9364 258.4488 285.672 258.4488"></polygon>
            <polygon id="Fill-145" fill="#1B1A19" points="285.672 263.0022 308.9364 263.0022 308.9364 261.7674 285.672 261.7674"></polygon>
            <polygon id="Fill-146" fill="#1B1A19" points="285.672 266.3202 308.9364 266.3202 308.9364 265.086 285.672 265.086"></polygon>
            <polygon id="Fill-147" fill="#1B1A19" points="285.672 269.6388 308.9364 269.6388 308.9364 268.4046 285.672 268.4046"></polygon>
            <polygon id="Fill-148" fill="#1B1A19" points="285.672 272.958 308.9364 272.958 308.9364 271.7232 285.672 271.7232"></polygon>
            <polygon id="Fill-149" fill="#1B1A19" points="285.672 276.2766 308.9364 276.2766 308.9364 275.0412 285.672 275.0412"></polygon>
            <polygon id="Fill-150" fill="#1B1A19" points="285.672 279.594 308.9364 279.594 308.9364 278.3592 285.672 278.3592"></polygon>
            <polygon id="Fill-151" fill="#1B1A19" points="285.672 282.9126 308.9364 282.9126 308.9364 281.6772 285.672 281.6772"></polygon>
            <polygon id="Fill-152" fill="#1B1A19" points="285.672 286.2312 308.9364 286.2312 308.9364 284.9958 285.672 284.9958"></polygon>
            <polygon id="Fill-153" fill="#1B1A19" points="285.672 289.5498 308.9364 289.5498 308.9364 288.3144 285.672 288.3144"></polygon>
            <polygon id="Fill-154" fill="#1B1A19" points="285.672 292.8672 308.9364 292.8672 308.9364 291.6324 285.672 291.6324"></polygon>
            <polygon id="Fill-155" fill="#1B1A19" points="285.672 296.1864 308.9364 296.1864 308.9364 294.951 285.672 294.951"></polygon>
            <polygon id="Fill-156" fill="#1B1A19" points="264.7752 243.0918 278.712 243.0918 278.712 241.857 264.7752 241.857"></polygon>
            <polygon id="Fill-157" fill="#1B1A19" points="264.7752 246.411 278.712 246.411 278.712 245.1756 264.7752 245.1756"></polygon>
            <polygon id="Fill-158" fill="#1B1A19" points="264.7752 249.7296 278.712 249.7296 278.712 248.4942 264.7752 248.4942"></polygon>
            <polygon id="Fill-159" fill="#1B1A19" points="264.7752 253.0464 278.712 253.0464 278.712 251.8116 264.7752 251.8116"></polygon>
            <polygon id="Fill-160" fill="#1B1A19" points="255.4488 256.3644 278.712 256.3644 278.712 255.1302 255.4488 255.1302"></polygon>
            <polygon id="Fill-161" fill="#1B1A19" points="255.4488 259.6836 278.712 259.6836 278.712 258.4488 255.4488 258.4488"></polygon>
            <polygon id="Fill-162" fill="#1B1A19" points="255.4488 263.0022 278.712 263.0022 278.712 261.7674 255.4488 261.7674"></polygon>
            <polygon id="Fill-163" fill="#1B1A19" points="255.4488 266.3202 278.712 266.3202 278.712 265.086 255.4488 265.086"></polygon>
            <polygon id="Fill-164" fill="#1B1A19" points="255.4488 269.6388 278.712 269.6388 278.712 268.4046 255.4488 268.4046"></polygon>
            <polygon id="Fill-165" fill="#1B1A19" points="255.4488 272.958 278.712 272.958 278.712 271.7232 255.4488 271.7232"></polygon>
            <polygon id="Fill-166" fill="#1B1A19" points="255.4488 276.2766 278.712 276.2766 278.712 275.0412 255.4488 275.0412"></polygon>
            <polygon id="Fill-167" fill="#1B1A19" points="255.4488 279.594 278.712 279.594 278.712 278.3592 255.4488 278.3592"></polygon>
            <polygon id="Fill-168" fill="#1B1A19" points="255.4488 282.9126 278.712 282.9126 278.712 281.6772 255.4488 281.6772"></polygon>
            <polygon id="Fill-169" fill="#1B1A19" points="255.4488 286.2312 278.712 286.2312 278.712 284.9958 255.4488 284.9958"></polygon>
            <polygon id="Fill-170" fill="#1B1A19" points="255.4488 289.5498 278.712 289.5498 278.712 288.3144 255.4488 288.3144"></polygon>
            <polygon id="Fill-171" fill="#1B1A19" points="255.4488 292.8672 278.712 292.8672 278.712 291.6324 255.4488 291.6324"></polygon>
            <polygon id="Fill-172" fill="#1B1A19" points="255.4488 296.1864 278.712 296.1864 278.712 294.951 255.4488 294.951"></polygon>
            <polygon id="Fill-173" fill="#776959" points="203.2806 299.8326 218.7846 299.8326 218.7846 245.9208 203.2806 245.9208"></polygon>
            <polygon id="Fill-174" fill="#1B1A19" points="203.2956 249.2574 218.7696 249.2574 218.7696 248.01 203.2956 248.01"></polygon>
            <polygon id="Fill-175" fill="#1B1A19" points="203.2956 252.54 218.7696 252.54 218.7696 251.2932 203.2956 251.2932"></polygon>
            <polygon id="Fill-176" fill="#1B1A19" points="203.2956 255.8226 218.7696 255.8226 218.7696 254.5758 203.2956 254.5758"></polygon>
            <polygon id="Fill-177" fill="#1B1A19" points="203.2956 259.104 218.7696 259.104 218.7696 257.8572 203.2956 257.8572"></polygon>
            <polygon id="Fill-178" fill="#1B1A19" points="203.2956 262.3878 215.0442 262.3878 215.0442 261.1398 203.2956 261.1398"></polygon>
            <polygon id="Fill-179" fill="#1B1A19" points="203.2806 265.6692 215.0442 265.6692 215.0442 264.4218 203.2806 264.4218"></polygon>
            <polygon id="Fill-180" fill="#1B1A19" points="206.4918 268.9524 215.0442 268.9524 215.0442 267.7056 206.4918 267.7056"></polygon>
            <polygon id="Fill-181" fill="#1B1A19" points="206.4918 272.2338 215.0442 272.2338 215.0442 270.987 206.4918 270.987"></polygon>
            <polygon id="Fill-182" fill="#1B1A19" points="206.4918 275.5152 215.0442 275.5152 215.0442 274.2684 206.4918 274.2684"></polygon>
            <polygon id="Fill-183" fill="#1B1A19" points="206.4918 278.7984 215.0442 278.7984 215.0442 277.5516 206.4918 277.5516"></polygon>
            <polygon id="Fill-184" fill="#E9E7CD" points="244.5558 308.6154 260.0592 308.6154 260.0592 250.5744 244.5558 250.5744"></polygon>
            <polygon id="Fill-185" fill="#1B1A19" points="247.308 303.7056 257.3064 303.7056 257.3064 302.163 247.308 302.163"></polygon>
            <polygon id="Fill-186" fill="#1B1A19" points="247.308 300.621 257.3064 300.621 257.3064 299.0796 247.308 299.0796"></polygon>
            <polygon id="Fill-187" fill="#1B1A19" points="247.308 297.537 257.3064 297.537 257.3064 295.9926 247.308 295.9926"></polygon>
            <polygon id="Fill-188" fill="#1B1A19" points="247.308 294.4518 257.3064 294.4518 257.3064 292.9092 247.308 292.9092"></polygon>
            <polygon id="Fill-189" fill="#1B1A19" points="247.308 291.3672 257.3064 291.3672 257.3064 289.8252 247.308 289.8252"></polygon>
            <polygon id="Fill-190" fill="#1B1A19" points="247.308 288.282 257.3064 288.282 257.3064 286.7388 247.308 286.7388"></polygon>
            <polygon id="Fill-191" fill="#1B1A19" points="247.308 285.1974 257.3064 285.1974 257.3064 283.656 247.308 283.656"></polygon>
            <polygon id="Fill-192" fill="#1B1A19" points="247.308 282.1122 257.3064 282.1122 257.3064 280.5702 247.308 280.5702"></polygon>
            <polygon id="Fill-193" fill="#1B1A19" points="247.308 279.0276 257.3064 279.0276 257.3064 277.4868 247.308 277.4868"></polygon>
            <polygon id="Fill-194" fill="#1B1A19" points="247.308 275.943 257.3064 275.943 257.3064 274.4004 247.308 274.4004"></polygon>
            <polygon id="Fill-195" fill="#1B1A19" points="247.308 272.8572 257.3064 272.8572 257.3064 271.3164 247.308 271.3164"></polygon>
            <polygon id="Fill-196" fill="#1B1A19" points="247.308 269.7726 257.3064 269.7726 257.3064 268.2318 247.308 268.2318"></polygon>
            <polygon id="Fill-197" fill="#1B1A19" points="247.308 266.6886 257.3064 266.6886 257.3064 265.146 247.308 265.146"></polygon>
            <polygon id="Fill-198" fill="#1B1A19" points="247.308 263.6046 257.3064 263.6046 257.3064 262.0614 247.308 262.0614"></polygon>
            <polygon id="Fill-199" fill="#1B1A19" points="247.308 260.5194 257.3064 260.5194 257.3064 258.9768 247.308 258.9768"></polygon>
            <polygon id="Fill-200" fill="#1B1A19" points="247.308 257.4348 257.3064 257.4348 257.3064 255.891 247.308 255.891"></polygon>
            <polygon id="Fill-201" fill="#1B1A19" points="247.308 254.3502 257.3064 254.3502 257.3064 252.807 247.308 252.807"></polygon>
            <polygon id="Fill-202" fill="#E9E7CD" points="226.4328 308.6154 241.9368 308.6154 241.9368 250.5744 226.4328 250.5744"></polygon>
            <polygon id="Fill-203" fill="#1B1A19" points="229.185 303.7056 239.184 303.7056 239.184 302.163 229.185 302.163"></polygon>
            <polygon id="Fill-204" fill="#1B1A19" points="229.185 300.621 239.184 300.621 239.184 299.0796 229.185 299.0796"></polygon>
            <polygon id="Fill-205" fill="#1B1A19" points="229.185 297.537 239.184 297.537 239.184 295.9926 229.185 295.9926"></polygon>
            <polygon id="Fill-206" fill="#1B1A19" points="229.185 294.4518 239.184 294.4518 239.184 292.9092 229.185 292.9092"></polygon>
            <polygon id="Fill-207" fill="#1B1A19" points="229.185 291.3672 239.184 291.3672 239.184 289.8252 229.185 289.8252"></polygon>
            <polygon id="Fill-208" fill="#1B1A19" points="229.185 288.282 239.184 288.282 239.184 286.7388 229.185 286.7388"></polygon>
            <polygon id="Fill-209" fill="#1B1A19" points="229.185 285.1974 239.184 285.1974 239.184 283.656 229.185 283.656"></polygon>
            <polygon id="Fill-210" fill="#1B1A19" points="229.185 282.1122 239.184 282.1122 239.184 280.5702 229.185 280.5702"></polygon>
            <polygon id="Fill-211" fill="#1B1A19" points="229.185 279.0276 239.184 279.0276 239.184 277.4868 229.185 277.4868"></polygon>
            <polygon id="Fill-212" fill="#1B1A19" points="229.185 275.943 239.184 275.943 239.184 274.4004 229.185 274.4004"></polygon>
            <polygon id="Fill-213" fill="#1B1A19" points="229.185 272.8572 239.184 272.8572 239.184 271.3164 229.185 271.3164"></polygon>
            <polygon id="Fill-214" fill="#1B1A19" points="229.185 269.7726 239.184 269.7726 239.184 268.2318 229.185 268.2318"></polygon>
            <polygon id="Fill-215" fill="#1B1A19" points="229.185 266.6886 239.184 266.6886 239.184 265.146 229.185 265.146"></polygon>
            <polygon id="Fill-216" fill="#1B1A19" points="229.185 263.6046 239.184 263.6046 239.184 262.0614 229.185 262.0614"></polygon>
            <polygon id="Fill-217" fill="#1B1A19" points="229.185 260.5194 239.184 260.5194 239.184 258.9768 229.185 258.9768"></polygon>
            <polygon id="Fill-218" fill="#1B1A19" points="229.185 257.4348 239.184 257.4348 239.184 255.891 229.185 255.891"></polygon>
            <polygon id="Fill-219" fill="#1B1A19" points="229.185 254.3502 239.184 254.3502 239.184 252.807 229.185 252.807"></polygon>
            <polygon id="Fill-220" fill="#DE5A62" points="191.559 307.8642 208.8108 307.8642 208.8108 266.3784 191.559 266.3784"></polygon>
            <polygon id="Fill-221" fill="#1B1A19" points="195.1368 286.1886 199.3728 286.1886 199.3728 281.9514 195.1368 281.9514"></polygon>
            <polygon id="Fill-222" fill="#1B1A19" points="195.1368 280.1082 199.3728 280.1082 199.3728 275.871 195.1368 275.871"></polygon>
            <polygon id="Fill-223" fill="#1B1A19" points="195.1368 273.918 199.3728 273.918 199.3728 269.6808 195.1368 269.6808"></polygon>
            <polygon id="Fill-224" fill="#1B1A19" points="201.4152 286.1886 205.6524 286.1886 205.6524 281.9514 201.4152 281.9514"></polygon>
            <polygon id="Fill-225" fill="#1B1A19" points="201.4152 280.1082 205.6524 280.1082 205.6524 275.871 201.4152 275.871"></polygon>
            <polygon id="Fill-226" fill="#1B1A19" points="201.4152 273.918 205.6524 273.918 205.6524 269.6808 201.4152 269.6808"></polygon>
            <polygon id="Fill-227" fill="#DE5A62" points="212.5488 308.6154 229.8006 308.6154 229.8006 260.1522 212.5488 260.1522"></polygon>
            <polygon id="Fill-228" fill="#1B1A19" points="215.9172 281.0328 220.1538 281.0328 220.1538 276.795 215.9172 276.795"></polygon>
            <polygon id="Fill-229" fill="#1B1A19" points="215.9172 274.9512 220.1538 274.9512 220.1538 270.714 215.9172 270.714"></polygon>
            <polygon id="Fill-230" fill="#1B1A19" points="215.9172 268.7622 220.1538 268.7622 220.1538 264.5244 215.9172 264.5244"></polygon>
            <polygon id="Fill-231" fill="#1B1A19" points="222.1962 281.0328 226.4328 281.0328 226.4328 276.795 222.1962 276.795"></polygon>
            <polygon id="Fill-232" fill="#1B1A19" points="222.1962 274.9512 226.4328 274.9512 226.4328 270.714 222.1962 270.714"></polygon>
            <polygon id="Fill-233" fill="#1B1A19" points="222.1962 268.7622 226.4328 268.7622 226.4328 264.5244 222.1962 264.5244"></polygon>
            <polygon id="Fill-234" fill="#1B1A19" points="215.9166 299.3778 220.1532 299.3778 220.1532 295.14 215.9166 295.14"></polygon>
            <polygon id="Fill-235" fill="#1B1A19" points="215.9166 293.2968 220.1532 293.2968 220.1532 289.0602 215.9166 289.0602"></polygon>
            <polygon id="Fill-236" fill="#1B1A19" points="215.9166 287.1072 220.1532 287.1072 220.1532 282.8694 215.9166 282.8694"></polygon>
            <polygon id="Fill-237" fill="#1B1A19" points="222.1956 299.3778 226.4322 299.3778 226.4322 295.14 222.1956 295.14"></polygon>
            <polygon id="Fill-238" fill="#1B1A19" points="222.1956 293.2968 226.4322 293.2968 226.4322 289.0602 222.1956 289.0602"></polygon>
            <polygon id="Fill-239" fill="#1B1A19" points="222.1956 287.1072 226.4322 287.1072 226.4322 282.8694 222.1956 282.8694"></polygon>
            <polygon id="Fill-240" fill="#D97944" points="170.8878 308.6154 188.139 308.6154 188.139 254.7048 170.8878 254.7048"></polygon>
            <polygon id="Fill-241" fill="#1B1A19" points="174.2556 274.749 178.4916 274.749 178.4916 270.5118 174.2556 270.5118"></polygon>
            <polygon id="Fill-242" fill="#1B1A19" points="174.2556 268.6674 178.4916 268.6674 178.4916 264.4308 174.2556 264.4308"></polygon>
            <polygon id="Fill-243" fill="#1B1A19" points="174.2556 262.479 178.4916 262.479 178.4916 258.2412 174.2556 258.2412"></polygon>
            <polygon id="Fill-244" fill="#1B1A19" points="180.534 274.749 184.7712 274.749 184.7712 270.5118 180.534 270.5118"></polygon>
            <polygon id="Fill-245" fill="#1B1A19" points="180.534 268.6674 184.7712 268.6674 184.7712 264.4308 180.534 264.4308"></polygon>
            <polygon id="Fill-246" fill="#1B1A19" points="180.534 262.479 184.7712 262.479 184.7712 258.2412 180.534 258.2412"></polygon>
            <polygon id="Fill-247" fill="#1B1A19" points="174.2556 287.3478 178.4916 287.3478 178.4916 283.1112 174.2556 283.1112"></polygon>
            <polygon id="Fill-248" fill="#1B1A19" points="174.2556 281.1594 178.4916 281.1594 178.4916 276.921 174.2556 276.921"></polygon>
            <polygon id="Fill-249" fill="#1B1A19" points="180.534 287.3478 184.7712 287.3478 184.7712 283.1112 180.534 283.1112"></polygon>
            <polygon id="Fill-250" fill="#1B1A19" points="180.534 281.1594 184.7712 281.1594 184.7712 276.921 180.534 276.921"></polygon>
            <polyline id="Fill-251" fill="#73695E" points="198.732 279.876 198.732 289.5354 185.3754 289.5354 185.3754 308.6154 220.437 308.6154 220.437 279.876 198.732 279.876"></polyline>
            <polygon id="Fill-252" fill="#1B1A19" points="188.2182 295.1406 191.8866 295.1406 191.8866 291.471 188.2182 291.471"></polygon>
            <polygon id="Fill-253" fill="#1B1A19" points="188.2176 305.7888 191.8866 305.7888 191.8866 302.1192 188.2176 302.1192"></polygon>
            <polygon id="Fill-254" fill="#1B1A19" points="188.2182 300.3318 191.8872 300.3318 191.8872 296.6628 188.2182 296.6628"></polygon>
            <polygon id="Fill-255" fill="#1B1A19" points="201.018 299.6424 205.2546 299.6424 205.2546 295.4052 201.018 295.4052"></polygon>
            <polygon id="Fill-256" fill="#1B1A19" points="201.018 293.562 205.2546 293.562 205.2546 289.3248 201.018 289.3248"></polygon>
            <polygon id="Fill-257" fill="#1B1A19" points="201.018 287.3718 205.2546 287.3718 205.2546 283.1346 201.018 283.1346"></polygon>
            <polygon id="Fill-258" fill="#1B1A19" points="207.297 299.6424 211.5342 299.6424 211.5342 295.4052 207.297 295.4052"></polygon>
            <polygon id="Fill-259" fill="#1B1A19" points="207.297 293.562 211.5342 293.562 211.5342 289.3248 207.297 289.3248"></polygon>
            <polygon id="Fill-260" fill="#1B1A19" points="207.297 287.3718 211.5342 287.3718 211.5342 283.1346 207.297 283.1346"></polygon>
            <polygon id="Fill-261" fill="#1B1A19" points="213.5766 299.6424 217.8132 299.6424 217.8132 295.4052 213.5766 295.4052"></polygon>
            <polygon id="Fill-262" fill="#1B1A19" points="213.5766 293.562 217.8132 293.562 217.8132 289.3248 213.5766 289.3248"></polygon>
            <polygon id="Fill-263" fill="#1B1A19" points="213.5766 287.3718 217.8132 287.3718 217.8132 283.1346 213.5766 283.1346"></polygon>
            <polygon id="Fill-264" fill="#FFFFFE" points="162.558 308.6154 181.3836 308.6154 181.3836 290.0418 162.558 290.0418"></polygon>
            <polygon id="Fill-265" fill="#1B1A19" points="165.6708 306.4848 169.8714 306.4848 169.8714 303.9294 165.6708 303.9294"></polygon>
            <polygon id="Fill-266" fill="#1B1A19" points="165.6708 301.1658 169.8714 301.1658 169.8714 298.6098 165.6708 298.6098"></polygon>
            <polygon id="Fill-267" fill="#1B1A19" points="165.6708 295.9338 169.8714 295.9338 169.8714 293.3778 165.6708 293.3778"></polygon>
            <polygon id="Fill-268" fill="#1B1A19" points="172.695 306.4848 178.2696 306.4848 178.2696 300.837 172.695 300.837"></polygon>
            <polygon id="Fill-269" fill="#1B1A19" points="172.695 299.0262 178.2696 299.0262 178.2696 293.3778 172.695 293.3778"></polygon>
            <polygon id="Fill-270" fill="#FFFFFE" points="303.2706 308.8896 322.0968 308.8896 322.0968 290.3154 303.2706 290.3154"></polygon>
            <polygon id="Fill-271" fill="#1B1A19" points="306.384 306.7584 311.3712 306.7584 311.3712 304.2036 306.384 304.2036"></polygon>
            <polygon id="Fill-272" fill="#1B1A19" points="306.384 302.3688 311.3712 302.3688 311.3712 298.2636 306.384 298.2636"></polygon>
            <polygon id="Fill-273" fill="#1B1A19" points="306.384 296.208 311.3712 296.208 311.3712 293.652 306.384 293.652"></polygon>
            <polygon id="Fill-274" fill="#1B1A19" points="314.034 306.7584 319.0212 306.7584 319.0212 304.2036 314.034 304.2036"></polygon>
            <polygon id="Fill-275" fill="#1B1A19" points="314.034 302.3688 319.0212 302.3688 319.0212 298.2636 314.034 298.2636"></polygon>
            <polygon id="Fill-276" fill="#1B1A19" points="314.034 296.208 319.0212 296.208 319.0212 293.652 314.034 293.652"></polygon>
            <g id="Group-280" transform="translate(0.000000, 180.600000)">
                <mask id="mask-14" fill="white">
                    <use xlink:href="#path-13"></use>
                </mask>
                <g id="Clip-278"></g>
                <path d="M376.7328,4.9446 C376.677,4.8522 376.5024,4.8156 376.5024,4.8156 L375.4716,4.6314 C375.4716,4.6314 375.6642,4.3092 375.4812,4.3002 C375.297,4.2912 373.41,4.8798 373.1352,4.917 C372.858,4.9536 369.186,4.8528 369.0114,4.7874 C368.838,4.7226 367.6548,4.2588 367.1808,4.3002 C366.7062,4.3416 364.3458,4.0884 364.3458,4.0884 C364.3458,4.0884 364.3278,2.8368 364.1982,1.5396 C364.0866,0.4056 363.1164,0.456 362.874,0.456 C362.631,0.456 361.6614,0.4056 361.548,1.5396 C361.4196,2.8368 361.4016,4.0884 361.4016,4.0884 C361.4016,4.0884 359.0406,4.3416 358.5666,4.3002 C358.0926,4.2588 356.9094,4.7226 356.7354,4.7874 C356.5626,4.8528 352.8882,4.9536 352.6128,4.917 C352.3368,4.8798 350.4498,4.2912 350.2662,4.3002 C350.0826,4.3092 350.2758,4.6314 350.2758,4.6314 L349.245,4.8156 C349.245,4.8156 349.0698,4.8522 349.0146,4.9446 C348.96,5.0364 349.0974,5.1192 349.0974,5.1192 C349.0974,5.1192 349.272,5.2572 349.5024,5.3214 C349.4106,5.478 349.6674,5.4504 349.8066,5.469 C349.9434,5.487 351.711,5.736 351.9138,5.5974 C352.116,5.4594 352.7046,5.5974 352.7046,5.5974 C352.7046,5.5974 353.0856,6.36 353.5332,7.254 C353.9808,8.1486 356.0298,7.6404 356.2938,7.5852 C356.5578,7.53 358.4304,8.3814 358.5024,8.4138 C358.5738,8.4462 358.6518,9.1908 358.5576,10.2906 C358.3782,12.3888 358.323,12.831 358.944,13.2726 C358.986,13.8108 358.6572,15.789 358.6266,15.978 C358.5954,16.1664 359.22,15.8676 359.22,15.8676 L358.5294,25.8612 L357.2328,26.3028 L357.2328,27.5178 L356.2938,27.5178 L356.2938,29.6712 L369.4542,29.6712 L369.4542,27.5178 L368.5146,27.5178 L368.5146,26.3028 L367.2168,25.8612 L366.5268,15.8676 C366.5268,15.8676 367.1508,16.1664 367.1202,15.978 C367.0896,15.789 366.7626,13.8108 366.804,13.2726 C367.4244,12.831 367.3692,12.3888 367.1898,10.2906 C367.0956,9.1908 367.173,8.4462 367.245,8.4138 C367.3164,8.3814 369.1884,7.53 369.4542,7.5852 C369.7176,7.6404 371.7666,8.1486 372.2142,7.254 C372.6612,6.36 373.0422,5.5974 373.0422,5.5974 C373.0422,5.5974 373.632,5.4594 373.8342,5.5974 C374.0364,5.736 375.8028,5.487 375.9414,5.469 C376.0788,5.4504 376.3374,5.478 376.2444,5.3214 C376.4748,5.2572 376.6494,5.1192 376.6494,5.1192 C376.6494,5.1192 376.7874,5.0364 376.7328,4.9446" id="Fill-277" fill="#1B1A19" mask="url(#mask-14)"></path>
                <polygon id="Fill-279" fill="#DCD0B9" mask="url(#mask-14)" points="0.036 134.9004 480 134.9004 480 127.0002 0.036 127.0002"></polygon>
            </g>
            <path d="M198.0282,309.8364 C191.9472,308.2326 185.859,305.7966 180.3864,303.9726 C172.9446,301.9428 164.8266,302.6196 157.3848,300.5898 C155.3556,299.913 153.3258,297.8844 150.6198,297.2076 C143.8548,295.1778 137.0898,302.6196 130.3248,298.5606 C120.8532,293.1486 110.0292,289.089 99.2052,290.442 C89.0574,291.7956 56.4912,299.8116 52.1514,305.5746 C47.811,311.3376 32.022,307.5378 9.8502,308.1288 C9.3024,309.1896 9.0132,309.8364 9.0132,309.8364 L106.5342,313.6128 L198.0282,309.8364" id="Fill-281" fill="#DCD0B9"></path>
            <path d="M444.6,309.6 C435.6,307.2 427.2,305.4 418.2,304.8 C394.2,304.8 370.8,304.2 346.8,304.2 C337.8,304.2 305.1264,310.1244 298.4826,310.9956 C296.3988,313.7628 295.0446,315.471 295.0446,315.471 C295.0446,315.471 428.469,315.492 476.613,315.4986 C467.9424,313.485 459.2712,311.4156 450.6,308.4 C448.8,307.2 445.8,309.6 444.6,309.6" id="Fill-282" fill="#DCD0B9"></path>
            <polyline id="Fill-283" fill="#B79167" points="454.2294 311.376 453.0882 311.376 452.6898 309.5802 454.6272 309.5802 454.2294 311.376"></polyline>
            <polyline id="Fill-284" fill="#B79167" points="454.2294 309.5802 453.0882 309.5802 452.6898 307.7844 454.6272 307.7844 454.2294 309.5802"></polyline>
            <polyline id="Fill-285" fill="#B79167" points="454.2294 307.7844 453.0882 307.7844 452.6898 305.9886 454.6272 305.9886 454.2294 307.7844"></polyline>
            <polyline id="Fill-286" fill="#B79167" points="454.2294 305.9886 453.0882 305.9886 452.6898 304.1922 454.6272 304.1922 454.2294 305.9886"></polyline>
            <polyline id="Fill-287" fill="#B79167" points="454.2294 304.1922 453.0882 304.1922 452.6898 302.397 454.6272 302.397 454.2294 304.1922"></polyline>
            <polyline id="Fill-288" fill="#B79167" points="454.2294 302.397 453.0882 302.397 452.6898 300.6012 454.6272 300.6012 454.2294 302.397"></polyline>
            <polyline id="Fill-289" fill="#B79167" points="454.2294 300.6012 453.0882 300.6012 452.6898 298.8048 454.6272 298.8048 454.2294 300.6012"></polyline>
            <path d="M453.5442,298.7478 C453.5442,298.7478 448.893,297.1944 446.9838,302.7534 C446.8038,301.7982 445.6038,299.6124 449.0184,297.492 C452.1144,295.5696 453.5442,298.7478 453.5442,298.7478" id="Fill-290" fill="#67A16C"></path>
            <path d="M453.582,298.7478 C453.582,298.7478 451.3266,294.3936 446.0844,297.0522 C446.6208,296.241 447.282,293.8374 451.2096,294.6942 C454.7688,295.4712 453.582,298.7478 453.582,298.7478" id="Fill-291" fill="#67A16C"></path>
            <path d="M453.7716,298.7478 C453.7716,298.7478 458.4228,297.1944 460.3332,302.7534 C460.5126,301.7982 461.7126,299.6124 458.2974,297.492 C455.202,295.5696 453.7716,298.7478 453.7716,298.7478" id="Fill-292" fill="#67A16C"></path>
            <path d="M453.735,298.7478 C453.735,298.7478 455.9898,294.3936 461.232,297.0522 C460.6956,296.241 460.035,293.8374 456.1074,294.6942 C452.547,295.4712 453.735,298.7478 453.735,298.7478" id="Fill-293" fill="#67A16C"></path>
            <polyline id="Fill-294" fill="#B79167" points="434.5632 311.376 433.4226 311.376 433.0236 309.5802 434.9622 309.5802 434.5632 311.376"></polyline>
            <polyline id="Fill-295" fill="#B79167" points="434.5632 309.5802 433.4226 309.5802 433.0236 307.7844 434.9622 307.7844 434.5632 309.5802"></polyline>
            <polyline id="Fill-296" fill="#B79167" points="434.5632 307.7844 433.4226 307.7844 433.0236 305.9886 434.9622 305.9886 434.5632 307.7844"></polyline>
            <polyline id="Fill-297" fill="#B79167" points="434.5632 305.9886 433.4226 305.9886 433.0236 304.1922 434.9622 304.1922 434.5632 305.9886"></polyline>
            <polyline id="Fill-298" fill="#B79167" points="434.5632 304.1922 433.4226 304.1922 433.0236 302.397 434.9622 302.397 434.5632 304.1922"></polyline>
            <polyline id="Fill-299" fill="#B79167" points="434.5632 302.397 433.4226 302.397 433.0236 300.6012 434.9622 300.6012 434.5632 302.397"></polyline>
            <polyline id="Fill-300" fill="#B79167" points="434.5632 300.6012 433.4226 300.6012 433.0236 298.8048 434.9622 298.8048 434.5632 300.6012"></polyline>
            <path d="M433.8792,298.7478 C433.8792,298.7478 429.228,297.1944 427.3176,302.7534 C427.1376,301.7982 425.9376,299.6124 429.3534,297.492 C432.4488,295.5696 433.8792,298.7478 433.8792,298.7478" id="Fill-301" fill="#67A16C"></path>
            <path d="M433.9158,298.7478 C433.9158,298.7478 431.661,294.3936 426.4188,297.0522 C426.9552,296.241 427.6158,293.8374 431.5434,294.6942 C435.1038,295.4712 433.9158,298.7478 433.9158,298.7478" id="Fill-302" fill="#67A16C"></path>
            <path d="M434.1066,298.7478 C434.1066,298.7478 438.7572,297.1944 440.667,302.7534 C440.847,301.7982 442.047,299.6124 438.6318,297.492 C435.5364,295.5696 434.1066,298.7478 434.1066,298.7478" id="Fill-303" fill="#67A16C"></path>
            <path d="M434.0688,298.7478 C434.0688,298.7478 436.3242,294.3936 441.5664,297.0522 C441.03,296.241 440.3688,293.8374 436.4412,294.6942 C432.8814,295.4712 434.0688,298.7478 434.0688,298.7478" id="Fill-304" fill="#67A16C"></path>
            <polyline id="Fill-305" fill="#B79167" points="414.8976 311.376 413.757 311.376 413.3586 309.5802 415.2954 309.5802 414.8976 311.376"></polyline>
            <polyline id="Fill-306" fill="#B79167" points="414.8976 309.5802 413.757 309.5802 413.3586 307.7844 415.2954 307.7844 414.8976 309.5802"></polyline>
            <polyline id="Fill-307" fill="#B79167" points="414.8976 307.7844 413.757 307.7844 413.3586 305.9886 415.2954 305.9886 414.8976 307.7844"></polyline>
            <polyline id="Fill-308" fill="#B79167" points="414.8976 305.9886 413.757 305.9886 413.3586 304.1922 415.2954 304.1922 414.8976 305.9886"></polyline>
            <polyline id="Fill-309" fill="#B79167" points="414.8976 304.1922 413.757 304.1922 413.3586 302.397 415.2954 302.397 414.8976 304.1922"></polyline>
            <polyline id="Fill-310" fill="#B79167" points="414.8976 302.397 413.757 302.397 413.3586 300.6012 415.2954 300.6012 414.8976 302.397"></polyline>
            <polyline id="Fill-311" fill="#B79167" points="414.8976 300.6012 413.757 300.6012 413.3586 298.8048 415.2954 298.8048 414.8976 300.6012"></polyline>
            <path d="M414.2124,298.7478 C414.2124,298.7478 409.5624,297.1944 407.652,302.7534 C407.472,301.7982 406.272,299.6124 409.6878,297.492 C412.7832,295.5696 414.2124,298.7478 414.2124,298.7478" id="Fill-312" fill="#67A16C"></path>
            <path d="M414.2502,298.7478 C414.2502,298.7478 411.9948,294.3936 406.7526,297.0522 C407.289,296.241 407.9502,293.8374 411.8778,294.6942 C415.4376,295.4712 414.2502,298.7478 414.2502,298.7478" id="Fill-313" fill="#67A16C"></path>
            <path d="M414.4398,298.7478 C414.4398,298.7478 419.091,297.1944 421.0014,302.7534 C421.1814,301.7982 422.3814,299.6124 418.9656,297.492 C415.8702,295.5696 414.4398,298.7478 414.4398,298.7478" id="Fill-314" fill="#67A16C"></path>
            <path d="M414.4032,298.7478 C414.4032,298.7478 416.6586,294.3936 421.9002,297.0522 C421.3638,296.241 420.7032,293.8374 416.7756,294.6942 C413.2152,295.4712 414.4032,298.7478 414.4032,298.7478" id="Fill-315" fill="#67A16C"></path>
            <polyline id="Fill-316" fill="#B79167" points="395.232 311.376 394.0908 311.376 393.6924 309.5802 395.6304 309.5802 395.232 311.376"></polyline>
            <polyline id="Fill-317" fill="#B79167" points="395.232 309.5802 394.0908 309.5802 393.6924 307.7844 395.6304 307.7844 395.232 309.5802"></polyline>
            <polyline id="Fill-318" fill="#B79167" points="395.232 307.7844 394.0908 307.7844 393.6924 305.9886 395.6304 305.9886 395.232 307.7844"></polyline>
            <polyline id="Fill-319" fill="#B79167" points="395.232 305.9886 394.0908 305.9886 393.6924 304.1922 395.6304 304.1922 395.232 305.9886"></polyline>
            <polyline id="Fill-320" fill="#B79167" points="395.232 304.1922 394.0908 304.1922 393.6924 302.397 395.6304 302.397 395.232 304.1922"></polyline>
            <polyline id="Fill-321" fill="#B79167" points="395.232 302.397 394.0908 302.397 393.6924 300.6012 395.6304 300.6012 395.232 302.397"></polyline>
            <polyline id="Fill-322" fill="#B79167" points="395.232 300.6012 394.0908 300.6012 393.6924 298.8048 395.6304 298.8048 395.232 300.6012"></polyline>
            <path d="M394.5474,298.7478 C394.5474,298.7478 389.8962,297.1944 387.9864,302.7534 C387.8064,301.7982 386.6064,299.6124 390.0216,297.492 C393.117,295.5696 394.5474,298.7478 394.5474,298.7478" id="Fill-323" fill="#67A16C"></path>
            <path d="M394.5846,298.7478 C394.5846,298.7478 392.3292,294.3936 387.0876,297.0522 C387.6234,296.241 388.2846,293.8374 392.2122,294.6942 C395.772,295.4712 394.5846,298.7478 394.5846,298.7478" id="Fill-324" fill="#67A16C"></path>
            <path d="M394.7748,298.7478 C394.7748,298.7478 399.426,297.1944 401.3358,302.7534 C401.5152,301.7982 402.7152,299.6124 399.3006,297.492 C396.2046,295.5696 394.7748,298.7478 394.7748,298.7478" id="Fill-325" fill="#67A16C"></path>
            <path d="M394.7376,298.7478 C394.7376,298.7478 396.9924,294.3936 402.2352,297.0522 C401.6982,296.241 401.0376,293.8374 397.11,294.6942 C393.5496,295.4712 394.7376,298.7478 394.7376,298.7478" id="Fill-326" fill="#67A16C"></path>
            <polyline id="Fill-327" fill="#B79167" points="375.5658 311.376 374.4252 311.376 374.0268 309.5802 375.9642 309.5802 375.5658 311.376"></polyline>
            <polyline id="Fill-328" fill="#B79167" points="375.5658 309.5802 374.4252 309.5802 374.0268 307.7844 375.9642 307.7844 375.5658 309.5802"></polyline>
            <polyline id="Fill-329" fill="#B79167" points="375.5658 307.7844 374.4252 307.7844 374.0268 305.9886 375.9642 305.9886 375.5658 307.7844"></polyline>
            <polyline id="Fill-330" fill="#B79167" points="375.5658 305.9886 374.4252 305.9886 374.0268 304.1922 375.9642 304.1922 375.5658 305.9886"></polyline>
            <polyline id="Fill-331" fill="#B79167" points="375.5658 304.1922 374.4252 304.1922 374.0268 302.397 375.9642 302.397 375.5658 304.1922"></polyline>
            <polyline id="Fill-332" fill="#B79167" points="375.5658 302.397 374.4252 302.397 374.0268 300.6012 375.9642 300.6012 375.5658 302.397"></polyline>
            <polyline id="Fill-333" fill="#B79167" points="375.5658 300.6012 374.4252 300.6012 374.0268 298.8048 375.9642 298.8048 375.5658 300.6012"></polyline>
            <path d="M374.8818,298.7478 C374.8818,298.7478 370.2306,297.1944 368.3202,302.7534 C368.1402,301.7982 366.9402,299.6124 370.356,297.492 C373.4514,295.5696 374.8818,298.7478 374.8818,298.7478" id="Fill-334" fill="#67A16C"></path>
            <path d="M374.9184,298.7478 C374.9184,298.7478 372.663,294.3936 367.4214,297.0522 C367.9578,296.241 368.6184,293.8374 372.546,294.6942 C376.1064,295.4712 374.9184,298.7478 374.9184,298.7478" id="Fill-335" fill="#67A16C"></path>
            <path d="M375.1092,298.7478 C375.1092,298.7478 379.7598,297.1944 381.6696,302.7534 C381.8496,301.7982 383.0496,299.6124 379.6344,297.492 C376.5384,295.5696 375.1092,298.7478 375.1092,298.7478" id="Fill-336" fill="#67A16C"></path>
            <path d="M375.0714,298.7478 C375.0714,298.7478 377.3268,294.3936 382.569,297.0522 C382.0326,296.241 381.3714,293.8374 377.4438,294.6942 C373.884,295.4712 375.0714,298.7478 375.0714,298.7478" id="Fill-337" fill="#67A16C"></path>
            <polyline id="Fill-338" fill="#B79167" points="355.9002 311.376 354.7602 311.376 354.3612 309.5802 356.2986 309.5802 355.9002 311.376"></polyline>
            <polyline id="Fill-339" fill="#B79167" points="355.9002 309.5802 354.7602 309.5802 354.3612 307.7844 356.2986 307.7844 355.9002 309.5802"></polyline>
            <polyline id="Fill-340" fill="#B79167" points="355.9002 307.7844 354.7602 307.7844 354.3612 305.9886 356.2986 305.9886 355.9002 307.7844"></polyline>
            <polyline id="Fill-341" fill="#B79167" points="355.9002 305.9886 354.7602 305.9886 354.3612 304.1922 356.2986 304.1922 355.9002 305.9886"></polyline>
            <polyline id="Fill-342" fill="#B79167" points="355.9002 304.1922 354.7602 304.1922 354.3612 302.397 356.2986 302.397 355.9002 304.1922"></polyline>
            <polyline id="Fill-343" fill="#B79167" points="355.9002 302.397 354.7602 302.397 354.3612 300.6012 356.2986 300.6012 355.9002 302.397"></polyline>
            <polyline id="Fill-344" fill="#B79167" points="355.9002 300.6012 354.7602 300.6012 354.3612 298.8048 356.2986 298.8048 355.9002 300.6012"></polyline>
            <path d="M355.2156,298.7478 C355.2156,298.7478 350.5644,297.1944 348.6546,302.7534 C348.4746,301.7982 347.2746,299.6124 350.6898,297.492 C353.7858,295.5696 355.2156,298.7478 355.2156,298.7478" id="Fill-345" fill="#67A16C"></path>
            <path d="M355.2528,298.7478 C355.2528,298.7478 352.9974,294.3936 347.7558,297.0522 C348.2916,296.241 348.9528,293.8374 352.8804,294.6942 C356.4402,295.4712 355.2528,298.7478 355.2528,298.7478" id="Fill-346" fill="#67A16C"></path>
            <path d="M355.443,298.7478 C355.443,298.7478 360.0942,297.1944 362.004,302.7534 C362.184,301.7982 363.384,299.6124 359.9688,297.492 C356.8728,295.5696 355.443,298.7478 355.443,298.7478" id="Fill-347" fill="#67A16C"></path>
            <path d="M355.4058,298.7478 C355.4058,298.7478 357.6612,294.3936 362.9034,297.0522 C362.3664,296.241 361.7058,293.8374 357.7782,294.6942 C354.2184,295.4712 355.4058,298.7478 355.4058,298.7478" id="Fill-348" fill="#67A16C"></path>
            <polyline id="Fill-349" fill="#B79167" points="336.2346 311.376 335.0934 311.376 334.695 309.5802 336.633 309.5802 336.2346 311.376"></polyline>
            <polyline id="Fill-350" fill="#B79167" points="336.2346 309.5802 335.0934 309.5802 334.695 307.7844 336.633 307.7844 336.2346 309.5802"></polyline>
            <polyline id="Fill-351" fill="#B79167" points="336.2346 307.7844 335.0934 307.7844 334.695 305.9886 336.633 305.9886 336.2346 307.7844"></polyline>
            <polyline id="Fill-352" fill="#B79167" points="336.2346 305.9886 335.0934 305.9886 334.695 304.1922 336.633 304.1922 336.2346 305.9886"></polyline>
            <polyline id="Fill-353" fill="#B79167" points="336.2346 304.1922 335.0934 304.1922 334.695 302.397 336.633 302.397 336.2346 304.1922"></polyline>
            <polyline id="Fill-354" fill="#B79167" points="336.2346 302.397 335.0934 302.397 334.695 300.6012 336.633 300.6012 336.2346 302.397"></polyline>
            <polyline id="Fill-355" fill="#B79167" points="336.2346 300.6012 335.0934 300.6012 334.695 298.8048 336.633 298.8048 336.2346 300.6012"></polyline>
            <path d="M335.55,298.7478 C335.55,298.7478 330.8988,297.1944 328.9884,302.7534 C328.809,301.7982 327.609,299.6124 331.0242,297.492 C334.1196,295.5696 335.55,298.7478 335.55,298.7478" id="Fill-356" fill="#67A16C"></path>
            <path d="M335.5872,298.7478 C335.5872,298.7478 333.3318,294.3936 328.0896,297.0522 C328.626,296.241 329.2872,293.8374 333.2142,294.6942 C336.7746,295.4712 335.5872,298.7478 335.5872,298.7478" id="Fill-357" fill="#67A16C"></path>
            <path d="M335.7774,298.7478 C335.7774,298.7478 340.4286,297.1944 342.3378,302.7534 C342.5178,301.7982 343.7178,299.6124 340.3032,297.492 C337.2072,295.5696 335.7774,298.7478 335.7774,298.7478" id="Fill-358" fill="#67A16C"></path>
            <path d="M335.7396,298.7478 C335.7396,298.7478 337.995,294.3936 343.2378,297.0522 C342.7008,296.241 342.0396,293.8374 338.1126,294.6942 C334.5522,295.4712 335.7396,298.7478 335.7396,298.7478" id="Fill-359" fill="#67A16C"></path>
            <polyline id="Fill-360" fill="#B79167" points="176.025 310.6398 174.885 310.6398 174.486 308.844 176.424 308.844 176.025 310.6398"></polyline>
            <polyline id="Fill-361" fill="#B79167" points="176.025 308.844 174.885 308.844 174.486 307.0482 176.424 307.0482 176.025 308.844"></polyline>
            <polyline id="Fill-362" fill="#B79167" points="176.025 307.0482 174.885 307.0482 174.486 305.253 176.424 305.253 176.025 307.0482"></polyline>
            <polyline id="Fill-363" fill="#B79167" points="176.025 305.253 174.885 305.253 174.486 303.4566 176.424 303.4566 176.025 305.253"></polyline>
            <polyline id="Fill-364" fill="#B79167" points="176.025 303.4566 174.885 303.4566 174.486 301.6614 176.424 301.6614 176.025 303.4566"></polyline>
            <polyline id="Fill-365" fill="#B79167" points="176.025 301.6614 174.885 301.6614 174.486 299.865 176.424 299.865 176.025 301.6614"></polyline>
            <polyline id="Fill-366" fill="#B79167" points="176.025 299.865 174.885 299.865 174.486 298.0686 176.424 298.0686 176.025 299.865"></polyline>
            <path d="M175.341,298.0122 C175.341,298.0122 170.6898,296.4588 168.78,302.0172 C168.6,301.0626 167.4,298.8762 170.8152,296.7564 C173.9112,294.834 175.341,298.0122 175.341,298.0122" id="Fill-367" fill="#67A16C"></path>
            <path d="M175.3782,298.0122 C175.3782,298.0122 173.1228,293.658 167.8806,296.316 C168.417,295.506 169.0782,293.1018 173.0052,293.9586 C176.5656,294.7362 175.3782,298.0122 175.3782,298.0122" id="Fill-368" fill="#67A16C"></path>
            <path d="M175.5684,298.0122 C175.5684,298.0122 180.219,296.4588 182.1288,302.0172 C182.3088,301.0626 183.5088,298.8762 180.0936,296.7564 C176.9982,294.834 175.5684,298.0122 175.5684,298.0122" id="Fill-369" fill="#67A16C"></path>
            <path d="M175.5306,298.0122 C175.5306,298.0122 177.7866,293.658 183.0282,296.316 C182.4918,295.506 181.8306,293.1018 177.9036,293.9586 C174.3432,294.7362 175.5306,298.0122 175.5306,298.0122" id="Fill-370" fill="#67A16C"></path>
            <polyline id="Fill-371" fill="#B79167" points="156.3594 310.6398 155.2194 310.6398 154.8204 308.844 156.7578 308.844 156.3594 310.6398"></polyline>
            <polyline id="Fill-372" fill="#B79167" points="156.3594 308.844 155.2194 308.844 154.8204 307.0482 156.7578 307.0482 156.3594 308.844"></polyline>
            <polyline id="Fill-373" fill="#B79167" points="156.3594 307.0482 155.2194 307.0482 154.8204 305.253 156.7578 305.253 156.3594 307.0482"></polyline>
            <polyline id="Fill-374" fill="#B79167" points="156.3594 305.253 155.2194 305.253 154.8204 303.4566 156.7578 303.4566 156.3594 305.253"></polyline>
            <polyline id="Fill-375" fill="#B79167" points="156.3594 303.4566 155.2194 303.4566 154.8204 301.6614 156.7578 301.6614 156.3594 303.4566"></polyline>
            <polyline id="Fill-376" fill="#B79167" points="156.3594 301.6614 155.2194 301.6614 154.8204 299.865 156.7578 299.865 156.3594 301.6614"></polyline>
            <polyline id="Fill-377" fill="#B79167" points="156.3594 299.865 155.2194 299.865 154.8204 298.0686 156.7578 298.0686 156.3594 299.865"></polyline>
            <path d="M155.6748,298.0122 C155.6748,298.0122 151.0242,296.4588 149.1138,302.0172 C148.9344,301.0626 147.7344,298.8762 151.1496,296.7564 C154.245,294.834 155.6748,298.0122 155.6748,298.0122" id="Fill-378" fill="#67A16C"></path>
            <path d="M155.7126,298.0122 C155.7126,298.0122 153.4566,293.658 148.215,296.316 C148.7514,295.506 149.4126,293.1018 153.3396,293.9586 C156.9,294.7362 155.7126,298.0122 155.7126,298.0122" id="Fill-379" fill="#67A16C"></path>
            <path d="M155.9022,298.0122 C155.9022,298.0122 160.5534,296.4588 162.4632,302.0172 C162.6432,301.0626 163.8432,298.8762 160.428,296.7564 C157.332,294.834 155.9022,298.0122 155.9022,298.0122" id="Fill-380" fill="#67A16C"></path>
            <path d="M155.865,298.0122 C155.865,298.0122 158.1204,293.658 163.3626,296.316 C162.8262,295.506 162.165,293.1018 158.2374,293.9586 C154.6776,294.7362 155.865,298.0122 155.865,298.0122" id="Fill-381" fill="#67A16C"></path>
            <polyline id="Fill-382" fill="#B79167" points="136.6938 310.6398 135.5532 310.6398 135.1542 308.844 137.0922 308.844 136.6938 310.6398"></polyline>
            <polyline id="Fill-383" fill="#B79167" points="136.6938 308.844 135.5532 308.844 135.1542 307.0482 137.0922 307.0482 136.6938 308.844"></polyline>
            <polyline id="Fill-384" fill="#B79167" points="136.6938 307.0482 135.5532 307.0482 135.1542 305.253 137.0922 305.253 136.6938 307.0482"></polyline>
            <polyline id="Fill-385" fill="#B79167" points="136.6938 305.253 135.5532 305.253 135.1542 303.4566 137.0922 303.4566 136.6938 305.253"></polyline>
            <polyline id="Fill-386" fill="#B79167" points="136.6938 303.4566 135.5532 303.4566 135.1542 301.6614 137.0922 301.6614 136.6938 303.4566"></polyline>
            <polyline id="Fill-387" fill="#B79167" points="136.6938 301.6614 135.5532 301.6614 135.1542 299.865 137.0922 299.865 136.6938 301.6614"></polyline>
            <polyline id="Fill-388" fill="#B79167" points="136.6938 299.865 135.5532 299.865 135.1542 298.0686 137.0922 298.0686 136.6938 299.865"></polyline>
            <path d="M136.0092,298.0122 C136.0092,298.0122 131.358,296.4588 129.4482,302.0172 C129.2682,301.0626 128.0682,298.8762 131.4834,296.7564 C134.5794,294.834 136.0092,298.0122 136.0092,298.0122" id="Fill-389" fill="#67A16C"></path>
            <path d="M136.0464,298.0122 C136.0464,298.0122 133.791,293.658 128.5494,296.316 C129.0858,295.506 129.7464,293.1018 133.674,293.9586 C137.2338,294.7362 136.0464,298.0122 136.0464,298.0122" id="Fill-390" fill="#67A16C"></path>
            <path d="M136.2366,298.0122 C136.2366,298.0122 140.8878,296.4588 142.7976,302.0172 C142.977,301.0626 144.177,298.8762 140.7624,296.7564 C137.6664,294.834 136.2366,298.0122 136.2366,298.0122" id="Fill-391" fill="#67A16C"></path>
            <path d="M136.1994,298.0122 C136.1994,298.0122 138.4548,293.658 143.697,296.316 C143.1606,295.506 142.4994,293.1018 138.5718,293.9586 C135.012,294.7362 136.1994,298.0122 136.1994,298.0122" id="Fill-392" fill="#67A16C"></path>
            <polyline id="Fill-393" fill="#B79167" points="117.0282 310.6398 115.8876 310.6398 115.4886 308.844 117.426 308.844 117.0282 310.6398"></polyline>
            <polyline id="Fill-394" fill="#B79167" points="117.0282 308.844 115.8876 308.844 115.4886 307.0482 117.426 307.0482 117.0282 308.844"></polyline>
            <polyline id="Fill-395" fill="#B79167" points="117.0282 307.0482 115.8876 307.0482 115.4886 305.253 117.426 305.253 117.0282 307.0482"></polyline>
            <polyline id="Fill-396" fill="#B79167" points="117.0282 305.253 115.8876 305.253 115.4886 303.4566 117.426 303.4566 117.0282 305.253"></polyline>
            <polyline id="Fill-397" fill="#B79167" points="117.0282 303.4566 115.8876 303.4566 115.4886 301.6614 117.426 301.6614 117.0282 303.4566"></polyline>
            <polyline id="Fill-398" fill="#B79167" points="117.0282 301.6614 115.8876 301.6614 115.4886 299.865 117.426 299.865 117.0282 301.6614"></polyline>
            <polyline id="Fill-399" fill="#B79167" points="117.0282 299.865 115.8876 299.865 115.4886 298.0686 117.426 298.0686 117.0282 299.865"></polyline>
            <path d="M116.3436,298.0122 C116.3436,298.0122 111.6924,296.4588 109.7826,302.0172 C109.6026,301.0626 108.4026,298.8762 111.8178,296.7564 C114.9132,294.834 116.3436,298.0122 116.3436,298.0122" id="Fill-400" fill="#67A16C"></path>
            <path d="M116.3808,298.0122 C116.3808,298.0122 114.1248,293.658 108.8832,296.316 C109.4196,295.506 110.0808,293.1018 114.0084,293.9586 C117.5682,294.7362 116.3808,298.0122 116.3808,298.0122" id="Fill-401" fill="#67A16C"></path>
            <path d="M116.571,298.0122 C116.571,298.0122 121.2222,296.4588 123.132,302.0172 C123.312,301.0626 124.5114,298.8762 121.0968,296.7564 C118.0002,294.834 116.571,298.0122 116.571,298.0122" id="Fill-402" fill="#67A16C"></path>
            <path d="M116.5332,298.0122 C116.5332,298.0122 118.7886,293.658 124.0308,296.316 C123.4944,295.506 122.8338,293.1018 118.9062,293.9586 C115.3464,294.7362 116.5332,298.0122 116.5332,298.0122" id="Fill-403" fill="#67A16C"></path>
            <polyline id="Fill-404" fill="#B79167" points="97.3626 310.6398 96.222 310.6398 95.823 308.844 97.7604 308.844 97.3626 310.6398"></polyline>
            <polyline id="Fill-405" fill="#B79167" points="97.3626 308.844 96.222 308.844 95.823 307.0482 97.7604 307.0482 97.3626 308.844"></polyline>
            <polyline id="Fill-406" fill="#B79167" points="97.3626 307.0482 96.222 307.0482 95.823 305.253 97.7604 305.253 97.3626 307.0482"></polyline>
            <polyline id="Fill-407" fill="#B79167" points="97.3626 305.253 96.222 305.253 95.823 303.4566 97.7604 303.4566 97.3626 305.253"></polyline>
            <polyline id="Fill-408" fill="#B79167" points="97.3626 303.4566 96.222 303.4566 95.823 301.6614 97.7604 301.6614 97.3626 303.4566"></polyline>
            <polyline id="Fill-409" fill="#B79167" points="97.3626 301.6614 96.222 301.6614 95.823 299.865 97.7604 299.865 97.3626 301.6614"></polyline>
            <polyline id="Fill-410" fill="#B79167" points="97.3626 299.865 96.222 299.865 95.823 298.0686 97.7604 298.0686 97.3626 299.865"></polyline>
            <path d="M96.6774,298.0122 C96.6774,298.0122 92.0262,296.4588 90.1164,302.0172 C89.937,301.0626 88.737,298.8762 92.1516,296.7564 C95.2476,294.834 96.6774,298.0122 96.6774,298.0122" id="Fill-411" fill="#67A16C"></path>
            <path d="M96.7152,298.0122 C96.7152,298.0122 94.4598,293.658 89.2176,296.316 C89.754,295.506 90.4146,293.1018 94.3422,293.9586 C97.902,294.7362 96.7152,298.0122 96.7152,298.0122" id="Fill-412" fill="#67A16C"></path>
            <path d="M96.9048,298.0122 C96.9048,298.0122 101.556,296.4588 103.4658,302.0172 C103.6458,301.0626 104.8458,298.8762 101.4306,296.7564 C98.3352,294.834 96.9048,298.0122 96.9048,298.0122" id="Fill-413" fill="#67A16C"></path>
            <path d="M96.8676,298.0122 C96.8676,298.0122 99.1236,293.658 104.3652,296.316 C103.8288,295.506 103.1676,293.1018 99.24,293.9586 C95.6802,294.7362 96.8676,298.0122 96.8676,298.0122" id="Fill-414" fill="#67A16C"></path>
            <polyline id="Fill-415" fill="#B79167" points="77.6964 310.6398 76.5558 310.6398 76.1568 308.844 78.0948 308.844 77.6964 310.6398"></polyline>
            <polyline id="Fill-416" fill="#B79167" points="77.6964 308.844 76.5558 308.844 76.1568 307.0482 78.0948 307.0482 77.6964 308.844"></polyline>
            <polyline id="Fill-417" fill="#B79167" points="77.6964 307.0482 76.5558 307.0482 76.1568 305.253 78.0948 305.253 77.6964 307.0482"></polyline>
            <polyline id="Fill-418" fill="#B79167" points="77.6964 305.253 76.5558 305.253 76.1568 303.4566 78.0948 303.4566 77.6964 305.253"></polyline>
            <polyline id="Fill-419" fill="#B79167" points="77.6964 303.4566 76.5558 303.4566 76.1568 301.6614 78.0948 301.6614 77.6964 303.4566"></polyline>
            <polyline id="Fill-420" fill="#B79167" points="77.6964 301.6614 76.5558 301.6614 76.1568 299.865 78.0948 299.865 77.6964 301.6614"></polyline>
            <polyline id="Fill-421" fill="#B79167" points="77.6964 299.865 76.5558 299.865 76.1568 298.0686 78.0948 298.0686 77.6964 299.865"></polyline>
            <path d="M77.0118,298.0122 C77.0118,298.0122 72.3606,296.4588 70.4508,302.0172 C70.2714,301.0626 69.0714,298.8762 72.486,296.7564 C75.582,294.834 77.0118,298.0122 77.0118,298.0122" id="Fill-422" fill="#67A16C"></path>
            <path d="M77.0496,298.0122 C77.0496,298.0122 74.7936,293.658 69.5514,296.316 C70.0878,295.506 70.749,293.1018 74.6766,293.9586 C78.2364,294.7362 77.0496,298.0122 77.0496,298.0122" id="Fill-423" fill="#67A16C"></path>
            <path d="M77.2392,298.0122 C77.2392,298.0122 81.8904,296.4588 83.8002,302.0172 C83.9802,301.0626 85.1802,298.8762 81.765,296.7564 C78.669,294.834 77.2392,298.0122 77.2392,298.0122" id="Fill-424" fill="#67A16C"></path>
            <path d="M77.202,298.0122 C77.202,298.0122 79.4574,293.658 84.6996,296.316 C84.1626,295.506 83.502,293.1018 79.5744,293.9586 C76.0146,294.7362 77.202,298.0122 77.202,298.0122" id="Fill-425" fill="#67A16C"></path>
            <polyline id="Fill-426" fill="#B79167" points="58.0308 310.6398 56.8902 310.6398 56.4912 308.844 58.4286 308.844 58.0308 310.6398"></polyline>
            <polyline id="Fill-427" fill="#B79167" points="58.0308 308.844 56.8902 308.844 56.4912 307.0482 58.4286 307.0482 58.0308 308.844"></polyline>
            <polyline id="Fill-428" fill="#B79167" points="58.0308 307.0482 56.8902 307.0482 56.4912 305.253 58.4286 305.253 58.0308 307.0482"></polyline>
            <polyline id="Fill-429" fill="#B79167" points="58.0308 305.253 56.8902 305.253 56.4912 303.4566 58.4286 303.4566 58.0308 305.253"></polyline>
            <polyline id="Fill-430" fill="#B79167" points="58.0308 303.4566 56.8902 303.4566 56.4912 301.6614 58.4286 301.6614 58.0308 303.4566"></polyline>
            <polyline id="Fill-431" fill="#B79167" points="58.0308 301.6614 56.8902 301.6614 56.4912 299.865 58.4286 299.865 58.0308 301.6614"></polyline>
            <polyline id="Fill-432" fill="#B79167" points="58.0308 299.865 56.8902 299.865 56.4912 298.0686 58.4286 298.0686 58.0308 299.865"></polyline>
            <path d="M57.3462,298.0122 C57.3462,298.0122 52.695,296.4588 50.7852,302.0172 C50.6052,301.0626 49.4052,298.8762 52.8204,296.7564 C55.9164,294.834 57.3462,298.0122 57.3462,298.0122" id="Fill-433" fill="#67A16C"></path>
            <path d="M57.3834,298.0122 C57.3834,298.0122 55.128,293.658 49.8858,296.316 C50.4222,295.506 51.0834,293.1018 55.011,293.9586 C58.5708,294.7362 57.3834,298.0122 57.3834,298.0122" id="Fill-434" fill="#67A16C"></path>
            <path d="M57.5736,298.0122 C57.5736,298.0122 62.2248,296.4588 64.1346,302.0172 C64.314,301.0626 65.514,298.8762 62.0994,296.7564 C59.0034,294.834 57.5736,298.0122 57.5736,298.0122" id="Fill-435" fill="#67A16C"></path>
            <path d="M57.5364,298.0122 C57.5364,298.0122 59.7918,293.658 65.0334,296.316 C64.497,295.506 63.8364,293.1018 59.9088,293.9586 C56.349,294.7362 57.5364,298.0122 57.5364,298.0122" id="Fill-436" fill="#67A16C"></path>
            <path d="M114.5718,239.9538 C87.315,231.5298 71.31,218.5824 61.6824,210.7932 C56.6436,206.7168 53.0028,203.772 50.3874,203.463 C50.3874,203.463 50.292,203.4132 48.6288,203.2926 C49.3032,202.7346 50.4294,202.8648 50.4294,202.8648 C53.2332,203.187 56.7444,206.0268 62.0598,210.327 C71.8182,218.2212 88.1508,231.4344 116.154,239.808 C116.154,239.808 116.7468,240.0378 117.7386,240.5874 C116.3904,240.2154 115.0386,240.0984 114.5718,239.9538" id="Fill-437" fill="#1B1A19"></path>
            <path d="M84.4278,227.1828 L87.0534,230.1222 L82.0518,230.1222 C82.6008,229.4202 83.637,228.1458 84.4278,227.1828 M88.0614,230.1222 L87.8586,230.1222 L84.4092,226.2618 L84.1872,226.5312 C83.9286,226.845 81.873,229.344 81.2982,230.1222 L81.126,230.1222 C80.6382,230.1222 80.2434,230.4408 80.2434,230.8344 L80.2434,236.4312 C80.2434,236.8248 80.6382,237.1434 81.126,237.1434 L88.0614,237.1434 C88.5486,237.1434 88.9434,236.8248 88.9434,236.4312 L88.9434,230.8344 C88.9434,230.4408 88.5486,230.1222 88.0614,230.1222" id="Fill-438" fill="#1B1A19"></path>
            <polygon id="Fill-439" fill="#99B6B2" points="81.7434 233.922 87.4434 233.922 87.4434 231.5718 81.7434 231.5718"></polygon>
            <polyline id="Fill-440" fill="#DE5A62" points="61.4166 314.0334 61.1898 307.3374 64.9176 307.2114 65.1438 313.9074 61.4166 314.0334"></polyline>
            <polyline id="Fill-441" fill="#D97944" points="80.9214 314.0334 80.6946 307.3374 84.4224 307.2114 84.6492 313.9074 80.9214 314.0334"></polyline>
            <polyline id="Fill-442" fill="#DE5A62" points="100.4262 314.0334 100.2 307.3374 103.9272 307.2114 104.154 313.9074 100.4262 314.0334"></polyline>
            <polyline id="Fill-443" fill="#D97944" points="119.9316 314.0334 119.7048 307.3374 123.4326 307.2114 123.6588 313.9074 119.9316 314.0334"></polyline>
            <polyline id="Fill-444" fill="#DE5A62" points="139.4364 314.0334 139.2096 307.3374 142.9374 307.2114 143.1636 313.9074 139.4364 314.0334"></polyline>
            <polyline id="Fill-445" fill="#DE5A62" points="339.621 313.2606 339.3936 306.564 343.1214 306.438 343.3482 313.1346 339.621 313.2606"></polyline>
            <polyline id="Fill-446" fill="#D97944" points="359.1258 313.2606 358.899 306.564 362.6268 306.438 362.8536 313.1346 359.1258 313.2606"></polyline>
            <polyline id="Fill-447" fill="#DE5A62" points="378.6306 313.2606 378.4044 306.564 382.1322 306.438 382.3584 313.1346 378.6306 313.2606"></polyline>
            <polyline id="Fill-448" fill="#D97944" points="398.136 313.2606 397.9092 306.564 401.637 306.438 401.8626 313.1346 398.136 313.2606"></polyline>
            <polyline id="Fill-449" fill="#DE5A62" points="417.6408 313.2606 417.4134 306.564 421.1412 306.438 421.368 313.1346 417.6408 313.2606"></polyline>
            <polygon id="Fill-450" fill="#1B1A19" points="383.7102 322.9134 385.1472 322.9134 385.1472 291.006 383.7102 291.006"></polygon>
            <polyline id="Fill-451" fill="#E9E7CD" points="382.9116 291.0918 382.9116 321.5604 366.1974 321.5604 382.9116 291.0918"></polyline>
            <polyline id="Fill-452" fill="#DE5A62" points="385.9464 291.0918 385.9026 321.5604 404.1096 321.5604 385.9464 291.0918"></polyline>
            <path d="M409.2636,321.9408 C402.7158,321.9408 367.419,321.8838 361.0308,321.8838 C361.2132,322.4934 361.4472,323.0706 361.7184,323.619 L408.9924,323.619 C409.1496,323.082 409.248,322.5228 409.2636,321.9408" id="Fill-453" fill="#FFFFFE"></path>
            <path d="M361.7184,323.619 C362.0064,324.2028 362.3358,324.7536 362.6964,325.269 L408.297,325.269 C408.5874,324.747 408.8238,324.1956 408.9924,323.619 L361.7184,323.619" id="Fill-454" fill="#1B1A19"></path>
            <path d="M362.6964,325.269 C365.5554,329.3556 370.2942,331.3152 370.2942,331.3152 C370.2942,331.3152 376.6428,332.787 380.0178,331.3152 C383.3928,329.844 387.5694,329.562 390.3936,331.3152 C393.2178,333.069 401.4384,331.3152 401.4384,331.3152 C401.4384,331.3152 406.203,329.0304 408.297,325.269 L362.6964,325.269" id="Fill-455" fill="#FFFFFE"></path>
        </g>
    </g>
</svg>