<?xml version="1.0" encoding="UTF-8"?>
<svg width="120px" height="120px" viewBox="0 0 120 120" version="1.1" xmlns="http://www.w3.org/2000/svg" xmlns:xlink="http://www.w3.org/1999/xlink">
    <!-- Generator: Sketch 51.1 (57501) - http://www.bohemiancoding.com/sketch -->
    <title>Boy13</title>
    <desc>Created with Sketch.</desc>
    <defs>
        <polygon id="path-1" points="0.084996 0.038952 20.36904 0.038952 20.36904 11.195232 0.084996 11.195232"></polygon>
    </defs>
    <g id="Boy13" stroke="none" stroke-width="1" fill="none" fill-rule="evenodd">
        <g id="Page-1" transform="translate(35.000000, 12.000000)">
            <path d="M1.2e-05,108 L50.710332,108 L50.710332,75.73344 C50.710332,61.73028 39.358452,50.3784 25.355172,50.3784 L25.355052,50.3784 C11.351892,50.3784 1.2e-05,61.73028 1.2e-05,75.73344 L1.2e-05,108 Z" id="Fill-1" fill="#3A934D"></path>
            <path d="M25.355172,60.255828 C29.556132,60.255828 32.961732,56.850228 32.961732,52.649268 L32.961732,52.649148 C32.961732,48.448308 29.556132,45.042708 25.355172,45.042708 C21.154212,45.042708 17.748612,48.448308 17.748612,52.649148 L17.748612,52.649268 C17.748612,56.850228 21.154212,60.255828 25.355172,60.255828" id="Fill-3" fill="#FFFFFF"></path>
            <path d="M25.366008,56.704692 C25.292568,56.704692 25.219008,56.703252 25.144848,56.700012 C22.346808,56.579892 20.175888,54.214332 20.295888,51.416412 L20.687568,42.288492 C20.807568,39.490212 23.173128,37.309812 25.971168,37.439532 C28.769328,37.559532 30.940368,39.925212 30.820128,42.723132 L30.428568,51.851052 C30.311688,54.575052 28.066368,56.704692 25.366008,56.704692" id="Fill-5" fill="#FEAC94"></path>
            <path d="M47.446836,1.630668 L27.162636,1.630668 C15.960036,1.630668 6.878556,10.712268 6.878556,21.914748 L6.878556,29.221788 C6.878556,40.424268 15.960036,49.505868 27.162636,49.505868 L27.162756,49.505868 C38.365356,49.505868 47.446836,40.424268 47.446836,29.221788 L47.446836,1.630668 Z" id="Fill-7" fill="#FCB212"></path>
            <path d="M0.304764,30.337032 L0.304764,30.337152 C0.304764,33.417792 2.802204,35.915232 5.882844,35.915232 L15.010764,35.915232 C18.091524,35.915232 20.588964,33.417792 20.588964,30.337152 L20.588964,30.337032 C20.588964,27.256392 18.091524,24.758952 15.010764,24.758952 L5.882844,24.758952 C2.802204,24.758952 0.304764,27.256392 0.304764,30.337032" id="Fill-9" fill="#FFCCBB"></path>
            <path d="M2.838348,30.337032 C2.838348,31.969992 4.162068,33.293832 5.795028,33.293832 L10.633308,33.293832 C12.266148,33.293832 13.589988,31.969992 13.589988,30.337032 C13.589988,28.704192 12.266148,27.380352 10.633308,27.380352 L5.795028,27.380352 C4.162068,27.380352 2.838348,28.704192 2.838348,30.337032" id="Fill-11" fill="#FEAC94"></path>
            <g id="Group-15" transform="translate(31.680000, 24.720000)">
                <mask id="mask-2" fill="white">
                    <use xlink:href="#path-1"></use>
                </mask>
                <g id="Clip-14"></g>
                <path d="M20.369076,5.617032 L20.369076,5.617152 C20.369076,8.697792 17.871636,11.195232 14.790996,11.195232 L5.663076,11.195232 C2.582316,11.195232 0.084996,8.697792 0.084996,5.617152 L0.084996,5.617032 C0.084996,2.536392 2.582316,0.038952 5.663076,0.038952 L14.790996,0.038952 C17.871636,0.038952 20.369076,2.536392 20.369076,5.617032" id="Fill-13" fill="#FFCCBB" mask="url(#mask-2)"></path>
            </g>
            <path d="M49.51548,30.337032 C49.51548,31.969992 48.19176,33.293832 46.5588,33.293832 L41.72052,33.293832 C40.08768,33.293832 38.76384,31.969992 38.76384,30.337032 C38.76384,28.704192 40.08768,27.380352 41.72052,27.380352 L46.5588,27.380352 C48.19176,27.380352 49.51548,28.704192 49.51548,30.337032" id="Fill-16" fill="#FEAC94"></path>
            <path d="M27.162732,1.630668 C15.960132,1.630668 6.878532,10.712268 6.878532,21.914748 L6.878532,29.221788 C6.878532,40.424268 15.960132,49.505868 27.162732,49.505868 C38.365332,49.505868 47.446812,40.424268 47.446812,29.221788 L47.446812,21.914748 C47.446812,10.712268 38.365332,1.630668 27.162732,1.630668" id="Fill-18" fill="#FFCCBB"></path>
            <path d="M17.49564,30.539184 C17.49564,32.779704 15.67932,34.596024 13.4388,34.596024 C11.19828,34.596024 9.38196,32.779704 9.38196,30.539184 C9.38196,28.298664 11.19828,26.482344 13.4388,26.482344 C15.67932,26.482344 17.49564,28.298664 17.49564,30.539184" id="Fill-20" fill="#FEAC94"></path>
            <path d="M44.943408,30.539184 C44.943408,32.779704 43.127088,34.596024 40.886568,34.596024 C38.646048,34.596024 36.829728,32.779704 36.829728,30.539184 C36.829728,28.298664 38.646048,26.482344 40.886568,26.482344 C43.127088,26.482344 44.943408,28.298664 44.943408,30.539184" id="Fill-22" fill="#FEAC94"></path>
            <path d="M22.791864,34.995936 C22.791864,36.396216 25.327224,37.096416 27.862824,37.096416 C30.398304,37.096416 32.933904,36.396336 32.933904,34.995936" id="Stroke-24" stroke="#212121" stroke-width="2.02836" stroke-linecap="round" stroke-linejoin="round"></path>
            <path d="M27.86286,30.111096 L27.86286,23.450616" id="Stroke-26" stroke="#FEAC94" stroke-width="3.0426" stroke-linecap="round" stroke-linejoin="round"></path>
            <path d="M21.799464,23.213784 C21.799464,25.324944 20.641584,27.036264 19.213224,27.036264 C17.784864,27.036264 16.626984,25.324944 16.626984,23.213784 C16.626984,21.102624 17.784864,19.391304 19.213224,19.391304 C20.641584,19.391304 21.799464,21.102624 21.799464,23.213784" id="Fill-28" fill="#496CB0"></path>
            <path d="M39.098808,23.213784 C39.098808,25.324944 37.940928,27.036264 36.512568,27.036264 C35.084208,27.036264 33.926328,25.324944 33.926328,23.213784 C33.926328,21.102624 35.084208,19.391304 36.512568,19.391304 C37.940928,19.391304 39.098808,21.102624 39.098808,23.213784" id="Fill-30" fill="#496CB0"></path>
            <path d="M18.909792,0 L15.517032,0 C9.274992,0 4.214832,5.06016 4.214832,11.3022 L4.214832,25.77372 C8.896392,25.77372 12.691512,21.9786 12.691512,17.29728 L12.691512,14.75256 L12.691512,14.04792 C12.691512,12.51156 13.951272,11.29824 15.487752,11.3022 L15.517032,11.3022 L18.909792,11.3022 L38.121312,11.3022 L39.252312,11.3022 C44.233272,11.3022 48.461832,8.07996 49.966872,3.60624 C50.563392,1.83324 49.227312,0 47.356752,0 L18.909792,0 Z" id="Fill-32" fill="#FCB212"></path>
        </g>
    </g>
</svg>