<?xml version="1.0" encoding="UTF-8"?>
<svg width="120px" height="120px" viewBox="0 0 120 120" version="1.1" xmlns="http://www.w3.org/2000/svg" xmlns:xlink="http://www.w3.org/1999/xlink">
    <!-- Generator: Sketch 51.1 (57501) - http://www.bohemiancoding.com/sketch -->
    <title>Animal number0</title>
    <desc>Created with Sketch.</desc>
    <defs>
        <polygon id="path-1" points="0.0004 0.1313 80.6984 0.1313 80.6984 106 0.0004 106"></polygon>
        <polygon id="path-3" points="0.296596841 0 14.0264001 0 14.0264001 9.02844365 0.296596841 9.02844365"></polygon>
        <polygon id="path-5" points="0.567327376 0.7764 16.8059475 0.7764 16.8059475 13 0.567327376 13"></polygon>
    </defs>
    <g id="Animal-number0" stroke="none" stroke-width="1" fill="none" fill-rule="evenodd">
        <g id="Page-1" transform="translate(11.000000, 0.000000)">
            <path d="M93.7905,91.7209 C93.7355,89.2279 89.8545,89.2189 89.9105,91.7209 C90.0625,98.5769 91.1885,113.2629 81.9435,114.2039 C74.3895,114.9729 67.7325,109.5409 64.4885,103.1589 C63.3575,100.9309 60.0085,102.8929 61.1385,105.1169 C65.1615,113.0329 74.1755,119.6789 83.4685,117.9459 C94.8175,115.8289 93.9875,100.5669 93.7905,91.7209" id="Fill-1" fill="#E3A500"></path>
            <path d="M10.3784,30.0383 C10.3784,30.0383 -0.0906,20.2183 7.4444,9.0993 C8.5914,7.4063 11.1774,7.6083 12.0874,9.4393 C13.8804,13.0503 17.4744,18.0223 24.0334,19.4623 L10.3784,30.0383 Z" id="Fill-3" fill="#1F3016"></path>
            <path d="M70.7573,30.0383 C70.7573,30.0383 81.2273,20.2183 73.6923,9.0993 C72.5443,7.4063 69.9583,7.6083 69.0493,9.4393 C67.2563,13.0503 63.6623,18.0223 57.1023,19.4623 L70.7573,30.0383 Z" id="Fill-5" fill="#1F3016"></path>
            <g id="Group-9" transform="translate(0.000000, 14.000000)">
                <mask id="mask-2" fill="white">
                    <use xlink:href="#path-1"></use>
                </mask>
                <g id="Clip-8"></g>
                <path d="M52.2554,63.9113 C52.2554,69.3823 50.9104,73.1203 48.1294,75.2673 C46.3064,76.7803 43.6804,77.4923 40.4334,77.4923 C37.0964,77.4923 34.4704,76.7803 32.6474,75.2673 C31.7544,74.5683 30.9904,73.7023 30.3704,72.6683 C29.3354,70.9083 28.7014,68.6713 28.5084,65.9293 L28.5084,65.9163 C28.4554,65.2823 28.4304,64.6093 28.4304,63.9113 L28.4304,42.3093 C28.4304,36.8263 29.8654,33.0103 32.6474,30.7853 C34.4704,29.3623 37.0964,28.6513 40.4334,28.6513 C43.6804,28.6513 46.3064,29.3623 48.1294,30.7853 C50.9104,33.0103 52.2554,36.8263 52.2554,42.3093 L52.2554,63.9113 Z M68.5404,11.3323 C61.2324,4.1013 50.9874,0.1313 40.4334,0.1313 C29.7104,0.1313 19.6214,4.1013 12.2354,11.3323 C4.5264,18.8733 0.0004,29.5963 0.0004,42.5433 L0.0004,63.6653 C0.0004,65.5153 0.0904,67.3123 0.2724,69.0583 C0.9954,76.0433 3.1174,82.2263 6.4284,87.4773 C8.0704,90.1293 10.0244,92.5483 12.2354,94.7213 C16.6084,99.0413 21.9104,102.1973 27.7444,104.0473 L27.7574,104.0473 C31.7794,105.3403 36.0484,106.0003 40.4334,106.0003 C41.3134,106.0003 42.1794,105.9743 43.0464,105.9093 C52.6694,105.3143 61.8404,101.4213 68.5404,94.7213 C74.4254,88.9003 78.4614,81.2953 80.0004,72.1763 L80.0004,72.1633 C80.4664,69.4603 80.6984,66.6273 80.6984,63.6653 L80.6984,42.5433 C80.6984,29.5963 76.1714,18.9633 68.5404,11.3323 Z" id="Fill-7" fill="#FFC422" mask="url(#mask-2)"></path>
            </g>
            <path d="M53.4868,22.26 C53.4868,14.952 47.5628,9.029 40.2558,9.029 C32.9478,9.029 27.0238,14.952 27.0238,22.26 C27.0238,29.568 32.9478,35.491 40.2558,35.491 C47.5628,35.491 53.4868,29.568 53.4868,22.26" id="Fill-10" fill="#FFFFFF"></path>
            <path d="M49.6401,23.7346 C49.6401,19.9486 46.5711,16.8796 42.7851,16.8796 C38.9981,16.8796 35.9291,19.9486 35.9291,23.7346 C35.9291,27.5206 38.9981,30.5896 42.7851,30.5896 C46.5711,30.5896 49.6401,27.5206 49.6401,23.7346" id="Fill-12" fill="#1F3016"></path>
            <path d="M40.1616,19.6369 C40.1616,18.1879 38.9876,17.0139 37.5386,17.0139 C36.0906,17.0139 34.9156,18.1879 34.9156,19.6369 C34.9156,21.0849 36.0906,22.2599 37.5386,22.2599 C38.9876,22.2599 40.1616,21.0849 40.1616,19.6369" id="Fill-14" fill="#FFFFFF"></path>
            <g id="Group-18" transform="translate(33.000000, 0.000000)">
                <mask id="mask-4" fill="white">
                    <use xlink:href="#path-3"></use>
                </mask>
                <g id="Clip-17"></g>
                <path d="M13.7554,4.4816 C10.0404,-2.3904 2.7714,-1.1334 0.4074,6.7046 C-0.2896,9.0186 2.5024,10.0246 3.1924,7.7366 C4.5854,3.1166 9.0974,2.4356 11.2624,6.4406 C12.3444,8.4416 14.8504,6.5066 13.7554,4.4816" id="Fill-16" fill="#E3A500" mask="url(#mask-4)"></path>
            </g>
            <path d="M12.6245,92.4748 C12.6765,93.8078 12.3915,95.0628 11.7835,96.2128 C11.3955,97.4158 10.7235,98.4518 9.7785,99.3298 C8.8475,100.2618 7.6835,100.9988 6.4285,101.4778 C3.1175,96.2268 0.9955,90.0428 0.2715,83.0588 C1.0095,82.8658 1.7465,82.7748 2.4835,82.7748 L2.9235,82.7748 C5.5495,82.7748 7.8775,83.8738 9.7785,85.6198 C11.6805,87.3668 12.5075,89.9658 12.6245,92.4748" id="Fill-19" fill="#FFD970"></path>
            <path d="M22.7515,99.8049 C17.7585,99.8049 17.7495,107.5659 22.7515,107.5659 C27.7455,107.5659 27.7545,99.8049 22.7515,99.8049" id="Fill-21" fill="#FFD970"></path>
            <path d="M30.3706,86.6682 C29.4776,88.3112 27.6536,89.4612 25.7666,89.4612 L25.3386,89.4612 C22.4416,89.4612 20.2946,87.0812 20.1646,84.2872 C20.0356,81.4942 22.6356,79.1132 25.3386,79.1132 L25.7666,79.1132 C26.8006,79.1132 27.7316,79.4112 28.5086,79.9162 L28.5086,79.9292 C28.7016,82.6712 29.3356,84.9082 30.3706,86.6682" id="Fill-23" fill="#FFD970"></path>
            <path d="M8.0923,71.9953 C3.9313,71.9953 3.9243,78.4633 8.0923,78.4633 C12.2543,78.4633 12.2613,71.9953 8.0923,71.9953" id="Fill-25" fill="#FFD970"></path>
            <path d="M18.0093,61.0012 C11.3513,61.0012 11.3403,71.3492 18.0093,71.3492 C24.6673,71.3492 24.6783,61.0012 18.0093,61.0012" id="Fill-27" fill="#FFD970"></path>
            <g id="Group-31" transform="translate(27.000000, 107.000000)">
                <mask id="mask-6" fill="white">
                    <use xlink:href="#path-5"></use>
                </mask>
                <g id="Clip-30"></g>
                <path d="M16.0464,12.9094 C15.1794,12.9734 14.3134,13.0004 13.4334,13.0004 C9.0484,13.0004 4.7794,12.3404 0.7574,11.0474 L0.7444,11.0474 C-0.1736,6.3254 2.4784,0.7764 8.6864,0.7764 C15.7614,0.7764 18.2064,7.9304 16.0464,12.9094" id="Fill-29" fill="#FFD970" mask="url(#mask-6)"></path>
            </g>
            <path d="M35.9292,95.008 C31.7682,95.008 31.7612,101.476 35.9292,101.476 C40.0912,101.476 40.0982,95.008 35.9292,95.008" id="Fill-32" fill="#FFD970"></path>
            <path d="M54.6567,97.0022 C47.1667,97.0022 47.1537,108.6442 54.6567,108.6442 C62.1477,108.6442 62.1597,97.0022 54.6567,97.0022" id="Fill-34" fill="#FFD970"></path>
            <path d="M60.9087,83.6369 C59.1567,83.7149 57.6757,85.0579 57.6757,86.8699 L57.6757,87.3009 C57.6757,88.9929 59.1627,90.6139 60.9087,90.5349 C62.6607,90.4559 64.1417,89.1149 64.1417,87.3009 L64.1417,86.8699 C64.1417,85.1789 62.6547,83.5589 60.9087,83.6369" id="Fill-36" fill="#FFD970"></path>
            <path d="M70.1782,93.9846 C66.0172,93.9846 66.0102,100.4516 70.1782,100.4516 C74.3402,100.4516 74.3472,93.9846 70.1782,93.9846" id="Fill-38" fill="#FFD970"></path>
            <path d="M73.3022,65.5988 C71.0032,65.5988 71.0002,69.1708 73.3022,69.1708 C75.6012,69.1708 75.6052,65.5988 73.3022,65.5988" id="Fill-40" fill="#FFD970"></path>
            <path d="M80.6987,74.2502 L80.6987,77.6652 C80.6987,80.6272 80.4667,83.4602 80.0007,86.1632 L80.0007,86.1762 C79.0297,86.7452 77.8277,87.0812 76.4177,87.0812 C67.2467,87.0812 67.2597,72.8542 76.4177,72.8542 C78.1887,72.8542 79.6117,73.3842 80.6987,74.2502" id="Fill-42" fill="#FFD970"></path>
            <path d="M54.7388,76.5266 C53.6908,76.5266 52.8638,76.1906 52.2558,75.6336 L52.2558,69.6586 C52.8638,69.1026 53.6908,68.7656 54.7388,68.7656 C59.7318,68.7656 59.7318,76.5266 54.7388,76.5266" id="Fill-44" fill="#FFD970"></path>
            <path d="M66.4302,58.4143 C61.4372,58.4143 61.4282,66.1753 66.4302,66.1753 C71.4242,66.1753 71.4322,58.4143 66.4302,58.4143" id="Fill-46" fill="#FFD970"></path>
            <path d="M89.7554,82.7492 L86.3804,91.1282 C85.5454,93.2032 87.8524,95.1362 89.7484,93.9502 L91.9624,92.5672 L94.0224,93.5982 C95.9484,94.5622 98.0304,92.5982 97.1784,90.6182 L93.7704,82.7012 C93.0054,80.9262 90.4774,80.9562 89.7554,82.7492" id="Fill-48" fill="#E3A500"></path>
        </g>
    </g>
</svg>