<?xml version="1.0" encoding="UTF-8"?>
<svg width="120px" height="120px" viewBox="0 0 120 120" version="1.1" xmlns="http://www.w3.org/2000/svg" xmlns:xlink="http://www.w3.org/1999/xlink">
    <!-- Generator: Sketch 51.1 (57501) - http://www.bohemiancoding.com/sketch -->
    <title>Airplane21</title>
    <desc>Created with Sketch.</desc>
    <defs></defs>
    <g id="Airplane21" stroke="none" stroke-width="1" fill="none" fill-rule="evenodd">
        <polygon id="Fill-195" fill="#541900" points="50.5941256 66 22 39.4281141 22.4058744 39 51 65.5718859"></polygon>
        <polygon id="Fill-196" fill="#541900" points="70.4058744 66 70 65.5718859 98.5941256 39 99 39.4281141"></polygon>
        <polygon id="Fill-197" fill="#C3996B" points="54 49.2750382 52.7771139 50 47 39.7249618 48.2228861 39"></polygon>
        <path d="M47.8289673,39.2698363 L53.4440564,49.1572302 L54.1710327,48.7301637 L48.5559436,38.8432432 L47.8289673,39.2698363 Z M53.2219117,50 L47,39.0439929 L48.7780883,38 L55,48.9560071 L53.2219117,50 Z" id="Fill-198" fill="#541900"></path>
        <polygon id="Fill-199" fill="#C3996B" points="66 49.2750382 67.2228861 50 73 39.7249618 71.7771139 39"></polygon>
        <path d="M66.8289673,48.7301637 L67.5559436,49.1567568 L73.1710327,39.2698363 L72.4440564,38.8427698 L66.8289673,48.7301637 Z M67.7780883,50 L66,48.9560071 L72.2219117,38 L74,39.0439929 L67.7780883,50 Z" id="Fill-200" fill="#541900"></path>
        <polygon id="Fill-201" fill="#8A5D3B" points="20 66 22 66 22 39 20 39"></polygon>
        <path d="M20.4863755,66.4033792 L21.5132512,66.4033792 L21.5132512,39.5957057 L20.4863755,39.5957057 L20.4863755,66.4033792 Z M20,67 L22,67 L22,39 L20,39 L20,67 Z" id="Fill-202" fill="#541900"></path>
        <polygon id="Fill-203" fill="#8A5D3B" points="98 66 100 66 100 39 98 39"></polygon>
        <path d="M98.4863755,66.4033792 L99.5132512,66.4033792 L99.5132512,39.5957057 L98.4863755,39.5957057 L98.4863755,66.4033792 Z M98,67 L100,67 L100,39 L98,39 L98,67 Z" id="Fill-204" fill="#541900"></path>
        <path d="M118.907504,66.1559463 L60.5,68 L2.09294869,66.1559463 C1.48348933,66.1369221 1,65.6600191 1,65.0780504 C1,64.4688425 1.52925542,63.9806979 2.16771508,64.0005869 L60.5,65.8420464 L118.832738,64.0005869 C119.471198,63.9806979 120,64.4688425 120,65.0780504 C120,65.6600191 119.516511,66.1369221 118.907504,66.1559463" id="Fill-205" fill="#C3996B"></path>
        <path d="M1.5256757,64.790824 C1.33366118,64.790824 1.15254109,64.8640785 1.01363697,64.9987576 C0.868831685,65.1393516 0.788939116,65.3281753 0.788939116,65.5301939 C0.788939116,65.9310462 1.1021543,66.2554589 1.50207108,66.2691088 L59.999773,68.2087605 L118.498383,66.2691088 C118.897846,66.2554589 119.211061,65.9310462 119.211061,65.5301939 C119.211061,65.3281753 119.131622,65.1393516 118.986817,64.9987576 C118.841558,64.8581636 118.651813,64.7849091 118.449358,64.791279 L59.999773,66.7295657 L59.9870629,66.7291107 L1.55064213,64.791279 C1.5424713,64.790824 1.53430047,64.790824 1.5256757,64.790824 Z M59.999773,69 L59.9870629,68.999545 L1.47619678,67.0589834 C0.648219251,67.0316836 0,66.3601082 0,65.5301939 C0,65.1120518 0.165232358,64.7212095 0.465283426,64.4304665 C0.764880558,64.1397235 1.16071192,63.9872996 1.57697036,64.0009495 L59.999773,65.9383261 L118.423484,64.0009495 C118.841558,63.9863896 119.235119,64.1397235 119.535171,64.4304665 C119.834768,64.7212095 120,65.1120518 120,65.5301939 C120,66.3601082 119.351781,67.0316836 118.524257,67.0589834 L59.999773,69 Z" id="Fill-206" fill="#541900"></path>
        <path d="M118.907504,39.1557586 L60.5,41 L2.09294869,39.1557586 C1.48348933,39.1367325 1,38.6597809 1,38.0781855 C1,37.4684832 1.52925542,36.9802889 2.16771508,37.0006123 L60.5,38.8422592 L118.832738,37.0006123 C119.471198,36.9802889 120,37.4684832 120,38.0781855 C120,38.6597809 119.516511,39.1367325 118.907504,39.1557586" id="Fill-207" fill="#C3996B"></path>
        <path d="M1.52522177,36.7908703 C1.33320724,36.7908703 1.15208716,36.864579 1.01318303,36.9988016 C0.86837775,37.1393941 0.788485181,37.3282157 0.788485181,37.5302321 C0.788485181,37.9310799 1.10170037,38.2559441 1.50161714,38.2691389 L59.999773,40.2092242 L118.497929,38.2691389 C118.897846,38.2559441 119.211061,37.9310799 119.211061,37.5302321 C119.211061,37.3282157 119.131168,37.1393941 118.986363,36.9988016 C118.841558,36.8582091 118.649543,36.7835905 118.449358,36.7913253 L59.999773,38.7295906 L59.9866089,38.7295906 L1.55064213,36.7913253 C1.54201736,36.7908703 1.53384653,36.7908703 1.52522177,36.7908703 Z M59.999773,41 L59.9866089,40.999545 L1.47574285,39.0594597 C0.647765316,39.0317052 0,38.3601373 0,37.5302321 C0,37.1120946 0.164778423,36.7212566 0.464829491,36.4305168 C0.764880558,36.139777 1.15980405,35.9882647 1.57651643,36.0010045 L59.999773,37.9388148 L118.42303,36.0010045 C118.84292,35.9859897 119.235119,36.139777 119.534717,36.4305168 C119.834768,36.7212566 120,37.1120946 120,37.5302321 C120,38.3601373 119.351327,39.0317052 118.524257,39.0594597 L118.523803,39.0594597 L59.999773,41 Z" id="Fill-208" fill="#541900"></path>
        <path d="M58,46 L57,46 L57,43.466035 C57,43.2086164 57.1705392,43 57.3809733,43 L57.6190267,43 C57.8294608,43 58,43.2086164 58,43.466035 L58,46 Z" id="Fill-209" fill="#541900"></path>
        <path d="M63,46 L62,46 L62,43.466035 C62,43.2086164 62.1705392,43 62.3809733,43 L62.6190267,43 C62.8294608,43 63,43.2086164 63,43.466035 L63,46 Z" id="Fill-210" fill="#541900"></path>
        <polygon id="Fill-211" fill="#C3996B" points="77 79.0753591 75.1379162 79.0753591 65.3664188 62.0937177 63.0546466 63.4327374 72.7983518 79.0753591 47.1428744 79.0753591 56.9448978 63.3394769 54.6331256 62 44.8083216 79.0753591 43 79.0753591 43 81 73.9975209 81 74.1583518 81 77 81"></polygon>
        <path d="M43.7965795,80.203063 L77.2034205,80.203063 L77.2034205,79.06956 L75.4984286,79.06956 L65.7529333,62.1821079 L64.1295244,63.1202742 L74.0936436,79.06956 L46.8481483,79.06956 L56.8704756,63.0262742 L55.2470667,62.0885664 L45.4474883,79.06956 L43.7965795,79.06956 L43.7965795,80.203063 Z M78,81 L43,81 L43,78.2726231 L44.9877822,78.2726231 L54.9555681,61 L57.9833037,62.7488594 L48.2850165,78.2726231 L72.6563171,78.2726231 L63.0166963,62.8428594 L66.0444319,61.094 L75.9581347,78.2726231 L78,78.2726231 L78,81 Z" id="Fill-212" fill="#541900"></path>
        <path d="M71,57.5 C71,63.2993538 66.298889,68 60.5,68 C54.701111,68 50,63.2993538 50,57.5 C50,51.701111 54.701111,47 60.5,47 C66.298889,47 71,51.701111 71,57.5" id="Fill-213" fill="#58585B"></path>
        <polygon id="Fill-214" fill="#231F20" points="59 67 62 67 62 47 59 47"></polygon>
        <path d="M59.2782545,66.8079202 L60.7217455,66.8079202 L60.7217455,48.1929947 L59.2782545,48.1929947 L59.2782545,66.8079202 Z M58,68 L62,68 L62,47 L58,47 L58,68 Z" id="Fill-215" fill="#DBDCDD"></path>
        <polygon id="Fill-216" fill="#231F20" points="53.8179713 65 52 63.1819761 66.1815655 49 68 50.8180239"></polygon>
        <path d="M52.6395239,62.4351033 L53.5653414,63.3609207 L66.3609207,50.5648967 L65.4351033,49.6395239 L52.6395239,62.4351033 Z M53.5653414,65 L51,62.4351033 L65.4351033,48 L68,50.5648967 L53.5653414,65 Z" id="Fill-217" fill="#DBDCDD"></path>
        <polygon id="Fill-218" fill="#231F20" points="50 59 70 59 70 56 50 56"></polygon>
        <path d="M51.1925372,57.7222358 L69.8079202,57.7222358 L69.8079202,56.2787448 L51.1925372,56.2787448 L51.1925372,57.7222358 Z M50,59 L71,59 L71,55 L50,55 L50,59 Z" id="Fill-219" fill="#DBDCDD"></path>
        <polygon id="Fill-220" fill="#231F20" points="52 50.8180239 53.8180239 49 68 63.1819761 66.1819761 65"></polygon>
        <path d="M52.6395239,50.5648967 L65.4351033,63.3604761 L66.3609207,62.4351033 L53.5653414,49.6390793 L52.6395239,50.5648967 Z M65.4351033,65 L51,50.5648967 L53.5653414,48 L68,62.4351033 L65.4351033,65 Z" id="Fill-221" fill="#DBDCDD"></path>
        <path d="M60.4997713,66.8401793 C55.3415058,66.8401793 51.1598207,62.6584942 51.1598207,57.4997713 C51.1598207,52.3415058 55.3415058,48.1598207 60.4997713,48.1598207 C65.6584942,48.1598207 69.8401793,52.3415058 69.8401793,57.4997713 C69.8401793,62.6584942 65.6584942,66.8401793 60.4997713,66.8401793 M60.4997713,45 C53.5964688,45 48,50.5964688 48,57.4997713 C48,64.4035312 53.5964688,70 60.4997713,70 C67.4035312,70 73,64.4035312 73,57.4997713 C73,50.5964688 67.4035312,45 60.4997713,45" id="Fill-222" fill="#DBDCDD"></path>
        <path d="M59.5,47.6683763 C54.6302763,47.6683763 50.6683763,51.6302763 50.6683763,56.5 C50.6683763,61.3697237 54.6302763,65.3316237 59.5,65.3316237 C64.3697237,65.3316237 68.3316237,61.3697237 68.3316237,56.5 C68.3316237,51.6302763 64.3697237,47.6683763 59.5,47.6683763 M59.5,65.9137567 C54.3090532,65.9137567 50.0862433,61.6909468 50.0862433,56.5 C50.0862433,51.3090532 54.3090532,47.0857965 59.5,47.0857965 C64.6909468,47.0857965 68.9137567,51.3090532 68.9137567,56.5 C68.9137567,61.6909468 64.6909468,65.9137567 59.5,65.9137567 M59.5,44.582133 C52.9285536,44.582133 47.5825798,49.9285536 47.5825798,56.5 C47.5825798,63.0714464 52.9285536,68.4174202 59.5,68.4174202 C66.0714464,68.4174202 71.417867,63.0714464 71.417867,56.5 C71.417867,49.9285536 66.0714464,44.582133 59.5,44.582133 M59.5,69 C52.6077773,69 47,63.3922227 47,56.5 C47,49.6073305 52.6077773,44 59.5,44 C66.3926695,44 72,49.6073305 72,56.5 C72,63.3922227 66.3926695,69 59.5,69" id="Fill-223" fill="#541900"></path>
        <path d="M63,56.5 C63,58.4330346 61.4330346,60 59.5,60 C57.5665357,60 56,58.4330346 56,56.5 C56,54.5669654 57.5665357,53 59.5,53 C61.4330346,53 63,54.5669654 63,56.5" id="Fill-224" fill="#231F20"></path>
        <path d="M60.4997619,54.2414943 C58.7030002,54.2414943 57.2414943,55.7030002 57.2414943,57.4997619 C57.2414943,59.2969998 58.7030002,60.7585057 60.4997619,60.7585057 C62.2965236,60.7585057 63.7585057,59.2969998 63.7585057,57.4997619 C63.7585057,55.7030002 62.2965236,54.2414943 60.4997619,54.2414943 M60.4997619,62 C58.0186782,62 56,59.9813218 56,57.4997619 C56,55.0186782 58.0186782,53 60.4997619,53 C62.9813218,53 65,55.0186782 65,57.4997619 C65,59.9813218 62.9813218,62 60.4997619,62" id="Fill-225" fill="#DBDCDD"></path>
        <path d="M58.9386229,56.4427126 C58.6909409,57.4927342 57.7606778,58.1633963 56.8263838,57.9653868 L38.1239305,54.0408951 C36.6190273,53.7224615 35.6941388,52.0427124 36.092759,50.3515397 C36.4913792,48.660367 38.0522684,47.6427123 39.5208927,48.1163168 L57.7512722,54.0413711 C58.6631719,54.3350535 59.1863049,55.3926909 58.9386229,56.4427126" id="Fill-226" fill="#833500"></path>
        <path d="M57.9525947,55.960294 C57.7362721,56.7887005 56.9274135,57.126852 56.0554049,56.9575614 L37.8860944,53.4282404 C36.480669,53.155399 35.736752,52.0395423 36.0851972,50.7054126 C36.4340902,49.3708531 37.6361813,48.7194713 39.0098077,49.1143393 L56.7693144,54.2227028 C57.6225124,54.4680452 58.1689174,55.1318875 57.9525947,55.960294" id="Fill-227" fill="#8A5D3B"></path>
        <path d="M58,55.960294 C57.7832102,56.7887005 56.972605,57.126852 56.0987133,56.9575614 L37.8901673,53.4282404 C36.481707,53.155399 35.7361836,52.0395423 36.0853812,50.7054126 C36.4350276,49.3708531 37.6397145,48.7194713 39.0163072,49.1143393 L51.9891331,53.6314749 C52.8437247,53.8763877 58,55.960294 58,55.960294" id="Fill-228" fill="#C3996B"></path>
        <path d="M61.0609566,57.5609511 C61.3077088,56.5095189 62.237396,55.8370027 63.1720092,56.034325 L81.8741259,59.950743 C83.3792697,60.2686511 84.3053742,61.9497033 83.9077046,63.6431478 C83.510035,65.3365922 81.9502564,66.3570438 80.4813865,65.884233 L62.2494873,59.964565 C61.3377132,59.6709648 60.8142044,58.6123832 61.0609566,57.5609511" id="Fill-229" fill="#833500"></path>
        <path d="M62.0471762,57.0419846 C62.2625745,56.2122781 63.0708778,55.8731656 63.9432185,56.0422915 L82.1128032,59.5646713 C83.5180419,59.8370802 84.2627558,60.9542577 83.9152525,62.2909116 C83.5677492,63.6275654 82.3662656,64.2808302 80.9923738,63.8857728 L63.2311951,58.7814421 C62.3785582,58.5365754 61.8313301,57.8721216 62.0471762,57.0419846" id="Fill-230" fill="#8A5D3B"></path>
        <path d="M62,57.0419846 C62.2158612,56.2122781 63.0259016,55.8731656 63.9001169,56.0422915 L82.1087476,59.5646713 C83.5170062,59.8370802 84.2633204,60.9542577 83.9150704,62.2909116 C83.5668203,63.6275654 82.3627547,64.2808302 80.9859105,63.8857728 L68.0118011,59.3710157 C67.1568831,59.1257187 62,57.0419846 62,57.0419846" id="Fill-231" fill="#C3996B"></path>
        <path d="M63,56.9997773 C63,58.6568693 61.6568693,60 59.9997773,60 C58.3431307,60 57,58.6568693 57,56.9997773 C57,55.3431307 58.3431307,54 59.9997773,54 C61.6568693,54 63,55.3431307 63,56.9997773" id="Fill-232" fill="#DBDCDD"></path>
        <path d="M60.5,54.4241389 C58.8039325,54.4241389 57.4241389,55.8039325 57.4241389,57.5 C57.4241389,59.1960675 58.8039325,60.5758611 60.5,60.5758611 C62.1960675,60.5758611 63.5758611,59.1960675 63.5758611,57.5 C63.5758611,55.8039325 62.1960675,54.4241389 60.5,54.4241389 M60.5,61 C58.5701436,61 57,59.4298564 57,57.5 C57,55.5701436 58.5701436,54 60.5,54 C62.4298564,54 64,55.5701436 64,57.5 C64,59.4298564 62.4298564,61 60.5,61" id="Fill-233" fill="#833500"></path>
        <path d="M62,57.4997298 C62,58.3282291 61.3282291,59 60.4997298,59 C59.6712304,59 59,58.3282291 59,57.4997298 C59,56.6712304 59.6712304,56 60.4997298,56 C61.3282291,56 62,56.6712304 62,57.4997298" id="Fill-234" fill="#231F20"></path>
        <polygon id="Fill-235" fill="#322F31" points="49 81 51 81 51 78 49 78"></polygon>
        <polygon id="Fill-236" fill="#322F31" points="69 81 71 81 71 78 69 78"></polygon>
        <path d="M42,84 C41.4477081,84 41,83.5263653 41,82.9420904 L41,76.0574388 C41,75.4731638 41.4477081,75 42,75 C42.5522919,75 43,75.4731638 43,76.0574388 L43,82.9420904 C43,83.5263653 42.5522919,84 42,84" id="Fill-237" fill="#322F31"></path>
        <path d="M78,85 C77.4477081,85 77,84.5263653 77,83.9420904 L77,77.0574388 C77,76.4736347 77.4477081,76 78,76 C78.5522919,76 79,76.4736347 79,77.0574388 L79,83.9420904 C79,84.5263653 78.5522919,85 78,85" id="Fill-238" fill="#322F31"></path>
    </g>
</svg>