<?xml version="1.0" encoding="UTF-8"?>
<svg width="120px" height="120px" viewBox="0 0 120 120" version="1.1" xmlns="http://www.w3.org/2000/svg" xmlns:xlink="http://www.w3.org/1999/xlink">
    <!-- Generator: Sketch 51.1 (57501) - http://www.bohemiancoding.com/sketch -->
    <title>Yellow button34</title>
    <desc>Created with Sketch.</desc>
    <defs>
        <polygon id="path-1" points="0 8.08003932e-05 119.999773 8.08003932e-05 119.999773 120 0 120"></polygon>
        <polygon id="path-3" points="0.000139195803 0.9173 110.2124 0.9173 110.2124 111 0.000139195803 111"></polygon>
    </defs>
    <g id="Yellow-button34" stroke="none" stroke-width="1" fill="none" fill-rule="evenodd">
        <g id="Page-1">
            <g id="Group-3">
                <mask id="mask-2" fill="white">
                    <use xlink:href="#path-1"></use>
                </mask>
                <g id="Clip-2"></g>
                <path d="M81.7966,118.1251 C70.8986,120.6251 49.1016,120.6251 38.2026,118.1251 C18.6476,113.6401 6.3196,101.3611 1.8746,81.7971 C-0.6374,70.7411 -0.6134,48.9461 1.8746,38.2031 C6.4016,18.6571 18.6596,6.4151 38.2026,1.8751 C48.8956,-0.6089 70.6896,-0.6409 81.7966,1.8751 C101.3636,6.3081 113.4716,18.6871 118.1246,38.2031 C120.5766,48.4881 120.6726,70.2611 118.1246,81.7971 C113.7976,101.3881 101.3516,113.6401 81.7966,118.1251" id="Fill-1" fill="#FBC02D" mask="url(#mask-2)"></path>
            </g>
            <g id="Group-6" transform="translate(0.000000, 9.000000)">
                <mask id="mask-4" fill="white">
                    <use xlink:href="#path-3"></use>
                </mask>
                <g id="Clip-5"></g>
                <path d="M91.6404,99.2813 C80.7424,101.7813 58.9454,101.7813 48.0464,99.2813 C28.4914,94.7963 16.1634,82.5173 11.7184,62.9533 C9.2064,51.8973 9.2304,30.1023 11.7184,19.3593 C13.3694,12.2293 16.0614,6.0843 19.7484,0.9173 C10.7534,7.3373 4.7494,16.7913 1.8744,29.2033 C-0.6126,39.9463 -0.6366,61.7413 1.8744,72.7973 C6.3194,92.3613 18.6474,104.6393 38.2024,109.1253 C49.1014,111.6253 70.8984,111.6253 81.7964,109.1253 C94.2374,106.2713 103.7864,100.2623 110.2124,91.2333 C105.0054,94.9403 98.8054,97.6373 91.6404,99.2813" id="Fill-4" fill="#E8AD28" mask="url(#mask-4)"></path>
            </g>
            <path d="M63.0208,54.2364 C61.5108,54.4264 58.4928,54.4154 56.9828,54.2364 C49.4468,53.3434 43.9508,48.3904 43.2308,41.2674 C43.0888,39.8624 43.0908,37.0174 43.2308,35.5744 C43.9198,28.4474 49.4308,23.3674 56.9828,22.6054 C58.3188,22.4704 61.3228,22.4594 63.0208,22.6054 C70.5838,23.2574 76.1458,28.4414 76.7728,35.5744 C76.9018,37.0424 76.9158,39.8974 76.7728,41.2674 C76.0308,48.3884 70.5488,53.2884 63.0208,54.2364" id="Fill-7" fill="#FFFFFF"></path>
            <path d="M78.8616,93.7501 C83.0146,93.7501 86.3736,89.4101 86.2466,84.1491 C86.2196,83.0421 86.1806,82.0961 86.1296,81.4841 C85.1516,69.7631 76.4886,61.2451 64.7066,60.1731 C62.0616,59.9331 57.3826,59.9521 55.3006,60.1731 C43.5366,61.4251 34.9516,69.7731 33.8786,81.4841 C33.8226,82.0901 33.7806,83.0341 33.7536,84.1451 C33.6236,89.4061 36.9846,93.7501 41.1386,93.7501 L78.8616,93.7501 Z" id="Fill-9" fill="#FFFFFF"></path>
        </g>
    </g>
</svg>