<?xml version="1.0" encoding="UTF-8"?>
<svg width="120px" height="120px" viewBox="0 0 120 120" version="1.1" xmlns="http://www.w3.org/2000/svg" xmlns:xlink="http://www.w3.org/1999/xlink">
    <!-- Generator: Sketch 51.1 (57501) - http://www.bohemiancoding.com/sketch -->
    <title>Airplane15</title>
    <desc>Created with Sketch.</desc>
    <defs>
        <path d="M8.609,8.68 C8.609,24.021 0.348,16.553 0.348,22.882 C0.348,28.302 24.251,32.695 53.738,32.695 C83.223,32.695 107.361,34.962 107.126,25.336 C106.893,15.71 104.953,15.639 75.468,15.639 C72.234,15.639 66.784,16.1 60.616,16.505 C60.611,16.27 60.588,16.036 60.541,15.806 C59.684,11.569 51.863,9.576 43.073,11.355 C38.565,12.266 34.679,13.993 32.077,16.029 C28.666,15.294 26.085,14.117 24.881,12.309 C20.676,5.994 21.194,0.451 16.644,0.451 C12.096,0.451 8.609,2.131 8.609,8.68 Z" id="path-1"></path>
        <path d="M0.669,16.121 C7.313,15.184 11.222,13.236 11.126,9.336 C10.971,2.906 10.051,0.74 0.669,0.01 L0.669,16.121 Z" id="path-3"></path>
        <path d="M0.14,9.571 C0.14,9.988 0.193,10.397 0.295,10.799 L25.49,10.799 L25.49,1.409 C23.11,0.765 20.408,0.401 17.547,0.401 C7.933,0.401 0.14,4.507 0.14,9.571 Z" id="path-5"></path>
        <path d="M0.088,4.011 C0.088,5.85 7.986,7.341 17.729,7.341 C27.472,7.341 35.369,5.85 35.369,4.011 C35.369,2.172 27.472,0.682 17.729,0.682 C7.986,0.682 0.088,2.172 0.088,4.011 Z" id="path-7"></path>
        <path d="M0.928,6.244 L25.93,6.244 C25.93,3.196 20.332,0.725 13.429,0.725 C6.526,0.725 0.928,3.196 0.928,6.244 Z" id="path-9"></path>
    </defs>
    <g id="Airplane15" stroke="none" stroke-width="1" fill="none" fill-rule="evenodd">
        <g id="Group" transform="translate(4.000000, 38.000000)">
            <path d="M75.4677,16.3946 C72.2337,16.3946 66.7837,16.8546 60.6157,17.2596 C60.6117,17.0256 60.5877,16.7926 60.5407,16.5616 C59.6837,12.3246 51.8637,10.3316 43.0717,12.1096 C38.5657,13.0216 34.6797,14.7486 32.0767,16.7856 C28.6657,16.0496 26.0847,14.8726 24.8807,13.0646 C20.6757,6.7496 21.1937,1.2066 16.6447,1.2066 C12.0957,1.2066 8.6097,2.8856 8.6097,9.4356 C8.6097,24.7766 0.3477,17.3086 0.3477,23.6376 C0.3477,29.0576 24.2507,33.4516 53.7377,33.4516 C83.2237,33.4516 107.3607,35.7166 107.1267,26.0916 C106.8937,16.4656 104.9527,16.3946 75.4677,16.3946" id="Fill-1" fill="#0F364A"></path>
            <g id="Group-7" transform="translate(0.000000, 0.755600)">
                <mask id="mask-2" fill="white">
                    <use xlink:href="#path-1"></use>
                </mask>
                <g id="Clip-4"></g>
                <polygon id="Fill-3" fill="#0A122E" mask="url(#mask-2)" points="-10.343 42.157 112.325 42.157 112.325 24.867 -10.343 24.867"></polygon>
                <path d="M-14.0001,-3.7555 L16.2939,-3.7555 L16.2939,5.3805 C16.2939,10.4055 12.1829,14.5165 7.1569,14.5165 L-14.0001,14.5165 L-14.0001,-3.7555 Z" id="Fill-5" fill="#05918A" mask="url(#mask-2)"></path>
                <polygon id="Fill-6" fill="#F58F7D" mask="url(#mask-2)" points="96.67 35.965 110.339 35.965 110.339 10.38 96.67 10.38"></polygon>
            </g>
            <g id="Group-10" transform="translate(96.000000, 16.755600)">
                <mask id="mask-4" fill="white">
                    <use xlink:href="#path-3"></use>
                </mask>
                <g id="Clip-9"></g>
                <polygon id="Fill-8" fill="#FC694F" mask="url(#mask-4)" points="0.67 19.848 15.683 19.848 15.683 8.808 0.67 8.808"></polygon>
            </g>
            <path d="M72.5468,25.1568 C75.4078,25.1568 78.1088,25.5208 80.4898,26.1648 L80.4898,35.5538 L55.2948,35.5538 C55.1928,35.1528 55.1398,34.7438 55.1398,34.3268 C55.1398,29.2628 62.9328,25.1568 72.5468,25.1568" id="Fill-11" fill="#0A2E33"></path>
            <g id="Group-15" transform="translate(55.000000, 24.755600)">
                <mask id="mask-6" fill="white">
                    <use xlink:href="#path-5"></use>
                </mask>
                <g id="Clip-14"></g>
                <polygon id="Fill-13" fill="#00031C" mask="url(#mask-6)" points="-2.548 11.584 28.808 11.584 28.808 6.826 -2.548 6.826"></polygon>
            </g>
            <path d="M71.7284,35.4376 C81.4714,35.4376 89.3694,36.9276 89.3694,38.7666 C89.3694,40.6056 81.4714,42.0966 71.7284,42.0966 C61.9864,42.0966 54.0874,40.6056 54.0874,38.7666 C54.0874,36.9276 61.9864,35.4376 71.7284,35.4376" id="Fill-16" fill="#0A2E33"></path>
            <g id="Group-20" transform="translate(54.000000, 34.755600)">
                <mask id="mask-8" fill="white">
                    <use xlink:href="#path-7"></use>
                </mask>
                <g id="Clip-19"></g>
                <polygon id="Fill-18" fill="#00031C" mask="url(#mask-8)" points="-7.857 14 35.369 14 35.369 4.011 -7.857 4.011"></polygon>
            </g>
            <path d="M47.4286,12.4805 C40.5256,12.4805 34.9286,14.9515 34.9286,18.0005 L59.9296,18.0005 C59.9296,14.9515 54.3316,12.4805 47.4286,12.4805" id="Fill-21" fill="#00B8AD"></path>
            <g id="Group-25" transform="translate(34.000000, 11.755600)">
                <mask id="mask-10" fill="white">
                    <use xlink:href="#path-9"></use>
                </mask>
                <g id="Clip-24"></g>
                <polygon id="Fill-23" fill="#05918A" mask="url(#mask-10)" points="-0.415 8.727 15.999 8.727 15.999 -0.853 -0.415 -0.853"></polygon>
            </g>
            <g id="Group-30" transform="translate(106.000000, 4.755600)" fill="#0A2E33">
                <path d="M0.8651,17.8724 L2.2801,17.8724 C3.0591,17.8724 3.6961,18.5094 3.6961,19.2884 L3.6961,20.8524 C3.6961,21.6314 3.0591,22.2684 2.2801,22.2684 L0.8651,22.2684 L0.8651,17.8724 Z" id="Fill-26"></path>
                <path d="M4.5136,0.2684 C4.1596,0.2684 3.8716,9.1344 3.8716,20.0704 C3.8716,31.0064 4.1596,39.8724 4.5136,39.8724 C4.8686,39.8724 5.1566,31.0064 5.1566,20.0704 C5.1566,9.1344 4.8686,0.2684 4.5136,0.2684" id="Fill-28"></path>
            </g>
        </g>
    </g>
</svg>