<?xml version="1.0" encoding="UTF-8"?>
<svg width="120px" height="120px" viewBox="0 0 120 120" version="1.1" xmlns="http://www.w3.org/2000/svg" xmlns:xlink="http://www.w3.org/1999/xlink">
    <!-- Generator: Sketch 51.1 (57501) - http://www.bohemiancoding.com/sketch -->
    <title>Motorcycle16</title>
    <desc>Created with Sketch.</desc>
    <defs></defs>
    <g id="Motorcycle16" stroke="none" stroke-width="1" fill="none" fill-rule="evenodd">
        <g id="Group" transform="translate(60.000000, 60.500000) scale(-1, 1) translate(-60.000000, -60.500000) translate(0.000000, 35.000000)" fill-rule="nonzero">
            <path d="M68.4059406,17.9245614 L61.6039604,17.9245614 C60.5643564,17.9245614 59.7326733,18.7596491 59.7326733,19.8035088 L59.7326733,21.9508772 L70.2772277,21.9508772 L70.2772277,19.8035088 C70.2772277,18.7596491 69.4158416,17.9245614 68.4059406,17.9245614 Z" id="Shape" fill="#1E1E1E"></path>
            <path d="M79.0990099,17.9245614 L72.2970297,17.9245614 C71.2574257,17.9245614 70.4257426,18.7596491 70.4257426,19.8035088 L70.4257426,21.9508772 L80.970297,21.9508772 L80.970297,19.8035088 C80.970297,18.7596491 80.1386139,17.9245614 79.0990099,17.9245614 Z" id="Shape" fill="#1E1E1E"></path>
            <path d="M89.7920792,17.9245614 L82.990099,17.9245614 C81.950495,17.9245614 81.1188119,18.7596491 81.1188119,19.8035088 L81.1188119,21.9508772 L91.6633663,21.9508772 L91.6633663,19.8035088 C91.6633663,18.7596491 90.8316832,17.9245614 89.7920792,17.9245614 Z" id="Shape" fill="#1E1E1E"></path>
            <path d="M100.485149,17.9245614 L93.6831683,17.9245614 C92.6435644,17.9245614 91.8118812,18.7596491 91.8118812,19.8035088 L91.8118812,21.9508772 L102.356436,21.9508772 L102.356436,19.8035088 C102.356436,18.7596491 101.524752,17.9245614 100.485149,17.9245614 Z" id="Shape" fill="#1E1E1E"></path>
            <path d="M111.178218,17.9245614 L104.376238,17.9245614 C103.336634,17.9245614 102.50495,18.7596491 102.50495,19.8035088 L102.50495,21.9508772 L113.049505,21.9508772 L113.049505,19.8035088 C113.049505,18.7596491 112.217822,17.9245614 111.178218,17.9245614 Z" id="Shape" fill="#1E1E1E"></path>
            <path d="M118.09901,15.5087719 L115.09901,15.5087719 C114.059406,15.5087719 113.19802,16.3438596 113.19802,17.4175439 L113.19802,21.9210526 L119.970297,21.9210526 L119.970297,17.4175439 C119.970297,16.3736842 119.138614,15.5087719 118.09901,15.5087719 Z" id="Shape" fill="#1E1E1E"></path>
            <path d="M26.2574257,44.4982456 C25.5742574,44.2298246 25.2772277,43.454386 25.5445545,42.7684211 L27.8316832,37.1912281 C28.0990099,36.5052632 28.8712871,36.2070175 29.5544554,36.4754386 C30.2376238,36.7438596 30.5346535,37.5192982 30.2673267,38.2052632 L27.980198,43.7824561 C27.7128713,44.4385965 26.9108911,44.7666667 26.2574257,44.4982456 Z" id="Shape" fill="#1E1E1E"></path>
            <path d="M29.3465347,41.3070175 L26.3762376,39.1298246 C26.1089109,38.9508772 26.049505,38.5631579 26.2574257,38.2947368 C26.4356436,38.0263158 26.8217822,37.9666667 27.0891089,38.1754386 L30.0594059,40.3526316 C30.3267327,40.5315789 30.3861386,40.9192982 30.1782178,41.1877193 C29.970297,41.4561404 29.6138614,41.5157895 29.3465347,41.3070175 Z" id="Shape" fill="#1E1E1E"></path>
            <path d="M28.7227723,42.7982456 L25.7524752,40.6210526 C25.4851485,40.4421053 25.4257426,40.054386 25.6336634,39.7859649 C25.8118812,39.5175439 26.1980198,39.4578947 26.4653465,39.6666667 L29.4356436,41.8438596 C29.7029703,42.022807 29.7623762,42.4105263 29.5544554,42.6789474 C29.3762376,42.9175439 28.990099,42.977193 28.7227723,42.7982456 Z" id="Shape" fill="#1E1E1E"></path>
            <path d="M32.7326733,44.4982456 C32.049505,44.2298246 31.7524752,43.454386 32.019802,42.7684211 L34.3069307,37.1912281 C34.5742574,36.5052632 35.3465347,36.2070175 36.029703,36.4754386 C36.7128713,36.7438596 37.009901,37.5192982 36.7425743,38.2052632 L34.4554455,43.7824561 C34.1881188,44.4385965 33.4158416,44.7666667 32.7326733,44.4982456 Z" id="Shape" fill="#1E1E1E"></path>
            <path d="M35.8217822,41.3070175 L32.8514851,39.1298246 C32.5841584,38.9508772 32.5247525,38.5631579 32.7326733,38.2947368 C32.9108911,38.0263158 33.2970297,37.9666667 33.5643564,38.1754386 L36.5346535,40.3526316 C36.8019802,40.5315789 36.8613861,40.9192982 36.6534653,41.1877193 C36.4455446,41.4561404 36.0891089,41.5157895 35.8217822,41.3070175 Z" id="Shape" fill="#1E1E1E"></path>
            <path d="M35.2277228,42.7982456 L32.2574257,40.6210526 C31.990099,40.4421053 31.9306931,40.054386 32.1386139,39.7859649 C32.3168317,39.5175439 32.7029703,39.4578947 32.970297,39.6666667 L35.9405941,41.8438596 C36.2079208,42.022807 36.2673267,42.4105263 36.0594059,42.6789474 C35.8514851,42.9175439 35.4653465,42.977193 35.2277228,42.7982456 Z" id="Shape" fill="#1E1E1E"></path>
            <path d="M47.1683168,50.4631579 C46.7524752,50.4631579 46.3366337,50.1947368 46.1584158,49.777193 L45.5940594,48.3754386 C44.970297,46.7947368 43.4554455,45.7807018 41.7623762,45.7807018 L16.6336634,45.7807018 C16.039604,45.7807018 15.5643564,45.3035088 15.5643564,44.7070175 C15.5643564,44.1105263 16.039604,43.6333333 16.6336634,43.6333333 L41.7623762,43.6333333 C44.3465347,43.6333333 46.6336634,45.1842105 47.5841584,47.6 L48.1485149,49.0017544 C48.3564356,49.5684211 48.0891089,50.1947368 47.5544554,50.4035088 C47.4356436,50.4333333 47.2871287,50.4631579 47.1683168,50.4631579 Z" id="Shape" fill="#1E1E1E"></path>
            <path d="M55.039604,4.35438596 L63.6831683,0.119298246 C63.8019802,0.0596491228 63.950495,0.0298245614 64.0990099,0.0298245614 L66.8019802,0.0298245614 C67.3366337,0.0298245614 67.7524752,0.447368421 67.7524752,0.984210526 L67.7524752,4.26491228 C67.7524752,4.80175439 67.3366337,5.21929825 66.8019802,5.21929825 L64.7524752,5.21929825 C64.5445545,5.21929825 64.3366337,5.27894737 64.1584158,5.42807018 L58.1584158,10.3192982 L55.039604,4.35438596 Z" id="Shape" fill="#161E26"></path>
            <path d="M116.227723,19.5350877 L61.0990099,19.5350877 L61.0990099,26.9315789 L119.970297,26.9315789 L119.970297,22.2789474 C119.970297,20.7578947 118.306931,19.5350877 116.227723,19.5350877 Z" id="Shape" fill="#1E1E1E"></path>
            <path d="M58.1881188,10.2894737 L55.0693069,4.38421053 L44.8514851,4.38421053 C43.4257426,4.38421053 42.029703,4.86140351 40.8712871,5.72631579 L34.8712871,10.3192982 L58.1881188,10.3192982 L58.1881188,10.2894737 Z" id="Shape" fill="#161E26"></path>
            <g transform="translate(103.069307, 34.596491)" id="Oval">
                <ellipse fill="#B6D1FF" cx="4.96039604" cy="5.15964912" rx="4.9009901" ry="4.92105263"></ellipse>
                <ellipse fill="#1E1E1E" cx="4.96039604" cy="5.15964912" rx="1.93069307" ry="1.93859649"></ellipse>
            </g>
            <g transform="translate(88.811881, 34.596491)" id="Oval">
                <ellipse fill="#B6D1FF" cx="5.13861386" cy="5.15964912" rx="4.9009901" ry="4.92105263"></ellipse>
                <ellipse fill="#1E1E1E" cx="5.13861386" cy="5.15964912" rx="1.93069307" ry="1.93859649"></ellipse>
            </g>
            <g transform="translate(74.851485, 34.596491)" id="Oval">
                <ellipse fill="#B6D1FF" cx="5.04950495" cy="5.15964912" rx="4.9009901" ry="4.92105263"></ellipse>
                <ellipse fill="#1E1E1E" cx="5.04950495" cy="5.15964912" rx="1.93069307" ry="1.93859649"></ellipse>
            </g>
            <g transform="translate(60.891089, 34.596491)" id="Oval">
                <ellipse fill="#B6D1FF" cx="4.96039604" cy="5.15964912" rx="4.9009901" ry="4.92105263"></ellipse>
                <ellipse fill="#1E1E1E" cx="4.96039604" cy="5.15964912" rx="1.93069307" ry="1.93859649"></ellipse>
            </g>
            <path d="M106.039604,50.4333333 L64.7524752,50.4333333 C58.3663366,50.4333333 53.1683168,45.2140351 53.1683168,38.8017544 C53.1683168,38.2052632 53.6435644,37.7578947 54.2079208,37.7578947 C54.7722772,37.7578947 55.2475248,38.2350877 55.2475248,38.8017544 C55.2475248,44.0508772 59.4950495,48.3157895 64.7227723,48.3157895 L106.009901,48.3157895 C111.237624,48.3157895 115.485149,44.0508772 115.485149,38.8017544 C115.485149,38.2052632 115.960396,37.7578947 116.524752,37.7578947 C117.089109,37.7578947 117.564356,38.2350877 117.564356,38.8017544 C117.623762,45.2140351 112.425743,50.4333333 106.039604,50.4333333 Z" id="Shape" fill="#1E1E1E"></path>
            <path d="M21,50.7912281 C21,50.7912281 21,50.7912281 21,50.7912281 L8.43564356,50.7912281 C3.92079208,50.7912281 0.237623762,47.0929825 0.237623762,42.5596491 C0.237623762,39.6964912 2.55445545,37.4 5.37623762,37.4 C10.1881188,37.4 14.7029703,39.5175439 17.7623762,43.245614 L21.6831683,47.9578947 L49.2475248,47.9578947 C50.019802,47.9578947 50.6732673,48.5842105 50.6732673,49.3894737 C50.6732673,50.1649123 50.049505,50.8210526 49.2475248,50.8210526 L21,50.8210526 C21,50.7912281 21,50.7912281 21,50.7912281 Z M5.37623762,40.2333333 C4.0990099,40.2333333 3.05940594,41.277193 3.05940594,42.5596491 C3.05940594,45.5421053 5.46534653,47.9578947 8.43564356,47.9578947 L18,47.9578947 L15.5940594,45.0350877 C13.039604,41.9631579 9.32673267,40.2333333 5.37623762,40.2333333 Z" id="Shape" fill="#00B5B8"></path>
            <path d="M63.4455446,26.9017544 L58.1881188,10.2596491 L34.9009901,10.2596491 L8.10891089,23.6508772 C5.4950495,24.9631579 5.58415842,28.7210526 8.22772277,29.9140351 C16.0693069,33.4333333 26.8811881,38.7719298 41.2871287,38.7719298 L116.881188,38.7719298 C118.60396,38.7719298 120,37.3701754 120,35.6403509 L120,26.8719298 L63.4455446,26.8719298 L63.4455446,26.9017544 Z" id="Shape" fill="#00B5B8"></path>
            <path d="M65.7326733,46.645614 C65.3168317,46.645614 64.990099,46.9140351 64.9009901,47.3315789 L64.4554455,49.3596491 L67.009901,49.3596491 L66.5643564,47.3315789 C66.4752475,46.9438596 66.1485149,46.645614 65.7326733,46.645614 Z" id="Shape" fill="#1E1E1E"></path>
            <path d="M69.4752475,46.645614 C69.0594059,46.645614 68.7326733,46.9140351 68.6435644,47.3315789 L68.1980198,49.3596491 L70.7524752,49.3596491 L70.3069307,47.3315789 C70.2475248,46.9438596 69.8910891,46.645614 69.4752475,46.645614 Z" id="Shape" fill="#1E1E1E"></path>
            <path d="M73.2178218,46.645614 C72.8019802,46.645614 72.4752475,46.9140351 72.3861386,47.3315789 L71.9405941,49.3596491 L74.4950495,49.3596491 L74.049505,47.3315789 C73.990099,46.9438596 73.6336634,46.645614 73.2178218,46.645614 Z" id="Shape" fill="#1E1E1E"></path>
            <path d="M76.990099,46.645614 C76.5742574,46.645614 76.2475248,46.9140351 76.1584158,47.3315789 L75.7128713,49.3596491 L78.2673267,49.3596491 L77.8217822,47.3315789 C77.7326733,46.9438596 77.3762376,46.645614 76.990099,46.645614 Z" id="Shape" fill="#1E1E1E"></path>
            <path d="M80.7326733,46.645614 C80.3168317,46.645614 79.990099,46.9140351 79.9009901,47.3315789 L79.4554455,49.3596491 L82.009901,49.3596491 L81.5643564,47.3315789 C81.4752475,46.9438596 81.1188119,46.645614 80.7326733,46.645614 Z" id="Shape" fill="#1E1E1E"></path>
            <path d="M84.4752475,46.645614 C84.0594059,46.645614 83.7326733,46.9140351 83.6435644,47.3315789 L83.1980198,49.3596491 L85.7524752,49.3596491 L85.3069307,47.3315789 C85.2178218,46.9438596 84.8613861,46.645614 84.4752475,46.645614 Z" id="Shape" fill="#1E1E1E"></path>
            <path d="M88.2178218,46.645614 C87.8019802,46.645614 87.4752475,46.9140351 87.3861386,47.3315789 L86.9405941,49.3596491 L89.4950495,49.3596491 L89.049505,47.3315789 C88.960396,46.9438596 88.6336634,46.645614 88.2178218,46.645614 Z" id="Shape" fill="#1E1E1E"></path>
            <path d="M91.960396,46.645614 C91.5445545,46.645614 91.2178218,46.9140351 91.1287129,47.3315789 L90.6831683,49.3596491 L93.2376238,49.3596491 L92.7920792,47.3315789 C92.7326733,46.9438596 92.3762376,46.645614 91.960396,46.645614 Z" id="Shape" fill="#1E1E1E"></path>
            <path d="M95.7029703,46.645614 C95.2871287,46.645614 94.960396,46.9140351 94.8712871,47.3315789 L94.4257426,49.3596491 L96.980198,49.3596491 L96.5346535,47.3315789 C96.4752475,46.9438596 96.1188119,46.645614 95.7029703,46.645614 Z" id="Shape" fill="#1E1E1E"></path>
            <path d="M99.4752475,46.645614 C99.0594059,46.645614 98.7326733,46.9140351 98.6435644,47.3315789 L98.1980198,49.3596491 L100.752475,49.3596491 L100.306931,47.3315789 C100.217822,46.9438596 99.8613861,46.645614 99.4752475,46.645614 Z" id="Shape" fill="#1E1E1E"></path>
            <path d="M103.217822,46.645614 C102.80198,46.645614 102.475248,46.9140351 102.386139,47.3315789 L101.940594,49.3596491 L104.49505,49.3596491 L104.049505,47.3315789 C103.960396,46.9438596 103.60396,46.645614 103.217822,46.645614 Z" id="Shape" fill="#1E1E1E"></path>
            <path d="M106.960396,46.645614 C106.544554,46.645614 106.217822,46.9140351 106.128713,47.3315789 L105.683168,49.3596491 L108.237624,49.3596491 L107.792079,47.3315789 C107.70297,46.9438596 107.376238,46.645614 106.960396,46.645614 Z" id="Shape" fill="#1E1E1E"></path>
            <path d="M75.5940594,3.34035088 L67.009901,3.34035088 C66.4158416,3.34035088 65.9405941,2.86315789 65.9405941,2.26666667 C65.9405941,1.67017544 66.4158416,1.19298246 67.009901,1.19298246 L75.5940594,1.19298246 C76.1881188,1.19298246 76.6633663,1.67017544 76.6633663,2.26666667 C76.6633663,2.86315789 76.1881188,3.34035088 75.5940594,3.34035088 Z" id="Shape" fill="#161E26"></path>
            <path d="M74.4950495,4.59298246 L64.5445545,4.59298246 C64.3366337,4.59298246 64.1584158,4.41403509 64.1584158,4.20526316 C64.1584158,3.99649123 64.3366337,3.81754386 64.5445545,3.81754386 L74.4950495,3.81754386 C74.7029703,3.81754386 74.8811881,3.99649123 74.8811881,4.20526316 C74.8811881,4.41403509 74.7029703,4.59298246 74.4950495,4.59298246 Z" id="Shape" fill="#161E26"></path>
            <polygon id="Shape" fill="#036B6B" points="63.4455446 26.9017544 65.8514851 34.8052632 119.970297 30.8684211 119.970297 26.9017544"></polygon>
            <path d="M30.0594059,10.8859649 C32.7326733,10.8859649 34.9009901,8.70877193 34.9009901,6.0245614 C34.9009901,3.34035088 32.7326733,1.16315789 30.0594059,1.16315789 L30.0594059,10.8859649 Z" id="Shape" fill="#00B5B8"></path>
        </g>
    </g>
</svg>