<?xml version="1.0" encoding="UTF-8"?>
<svg width="120px" height="120px" viewBox="0 0 120 120" version="1.1" xmlns="http://www.w3.org/2000/svg" xmlns:xlink="http://www.w3.org/1999/xlink">
    <!-- Generator: Sketch 51.1 (57501) - http://www.bohemiancoding.com/sketch -->
    <title>Kiwi1</title>
    <desc>Created with Sketch.</desc>
    <defs>
        <polygon id="path-1" points="0 0.149098482 118.633627 0.149098482 118.633627 63.2914675 0 63.2914675"></polygon>
        <polygon id="path-3" points="0.249450639 0.21913107 119.987797 0.21913107 119.987797 77.2258173 0.249450639 77.2258173"></polygon>
    </defs>
    <g id="Kiwi1" stroke="none" stroke-width="1" fill="none" fill-rule="evenodd">
        <g id="Page-1" transform="translate(0.000000, 11.000000)">
            <g id="Group-3" transform="translate(0.000000, 34.489058)">
                <mask id="mask-2" fill="white">
                    <use xlink:href="#path-1"></use>
                </mask>
                <g id="Clip-2"></g>
                <path d="M118.633627,10.2665208 C112.985492,30.6872708 88.5217627,68.9419792 42.195661,62.5883125 C3.70210169,57.3044792 -1.88501695,21.4548542 0.458033898,6.90185417 C3.18955932,-10.0541875 118.633627,10.2665208 118.633627,10.2665208" id="Fill-1" fill="#A66B2F" mask="url(#mask-2)"></path>
            </g>
            <g id="Group-6" transform="translate(0.000000, 1.822392)">
                <mask id="mask-4" fill="white">
                    <use xlink:href="#path-3"></use>
                </mask>
                <g id="Clip-5"></g>
                <path d="M101.437831,63.6810125 C77.5069831,79.8714292 39.6113898,81.8253042 16.7910508,68.0399708 C-6.02522034,54.2587208 -5.12827119,29.9567625 18.8005424,13.7622625 C42.7313898,-2.42815417 80.6269831,-4.37794583 103.445288,9.40330417 C126.263593,23.1886375 125.366644,47.4844708 101.437831,63.6810125" id="Fill-4" fill="#8A5927" mask="url(#mask-4)"></path>
            </g>
            <path d="M99.7059661,64.4546 C76.7798644,79.9712667 40.4707119,81.8414333 18.6063051,68.6338917 C-3.2560678,55.4304333 -2.39369492,32.1472667 20.5324068,16.6326417 C43.4585085,1.12005833 79.7656271,-0.75215 101.632068,12.45335 C123.494441,25.6629333 122.632068,48.9420167 99.7059661,64.4546" id="Fill-7" fill="#9FBA25"></path>
            <path d="M36.8945085,27.8371042 C35.3914576,26.9428542 33.8599322,26.4263125 32.6456949,27.2593125 C31.4314576,28.0902708 32.3406102,29.0314792 33.843661,29.9298125 C35.3467119,30.8301875 37.6999322,30.7771042 38.0924746,30.5116875 C38.4829831,30.2421875 38.3995932,28.7354375 36.8945085,27.8371042" id="Fill-9" fill="#403F31"></path>
            <path d="M30.0567458,35.7457042 C28.132678,35.3169542 26.4404746,35.2516208 25.9218305,36.3520792 C25.4031864,37.4545792 26.8309831,38.0854542 28.7530169,38.5142042 C30.6750508,38.9429542 32.7211525,38.2610375 32.8858983,37.9057875 C33.052678,37.5546208 31.9787797,36.1744542 30.0567458,35.7457042" id="Fill-11" fill="#403F31"></path>
            <path d="M25.0297627,45.3848208 C23.0467119,45.5073208 21.5131525,45.8993208 21.7856949,47.0651125 C22.0602712,48.2309042 23.7382373,48.4371125 25.7192542,48.3125708 C27.7023051,48.1941542 29.0528136,47.0079458 28.9653559,46.6363625 C28.8758644,46.2606958 27.0107797,45.2664042 25.0297627,45.3848208" id="Fill-13" fill="#403F31"></path>
            <path d="M28.6814237,54.8902083 C27.0136271,55.5312917 25.9193898,56.3152917 26.936339,57.3279583 C27.955322,58.3365417 29.5682034,58.071125 31.236,57.4239167 C32.9058305,56.77875 33.3085424,55.3107917 32.9831186,54.9882083 C32.655661,54.665625 30.3512542,54.2450417 28.6814237,54.8902083" id="Fill-15" fill="#403F31"></path>
            <path d="M39.0882712,60.3831083 C38.0448814,61.432525 37.5994576,62.4574417 39.1675932,63.123025 C40.7377627,63.7886083 41.9845424,63.1066917 43.0279322,62.0531917 C44.0733559,61.003775 43.4530169,59.52765 42.9486102,59.3153167 C42.4442034,59.1029833 40.1336949,59.3296083 39.0882712,60.3831083" id="Fill-17" fill="#403F31"></path>
            <path d="M51.1694237,61.3281958 C50.9477288,62.5858625 51.2324746,63.6577375 53.0609492,63.8537375 C54.8853559,64.0517792 55.5341695,63.0799458 55.7558644,61.8222792 C55.9795932,60.5625708 54.4541695,59.3539042 53.8663729,59.2946958 C53.2806102,59.2293625 51.3931525,60.0684875 51.1694237,61.3281958" id="Fill-19" fill="#403F31"></path>
            <path d="M67.864678,58.3973833 C68.503322,59.63055 69.4694237,60.5513417 71.2104407,60.2389667 C72.9494237,59.9327167 72.8782373,58.852675 72.2375593,57.62155 C71.5989153,56.3883833 69.4531525,55.6778833 68.8938305,55.777925 C68.3345085,55.8800083 67.2260339,57.1683 67.864678,58.3973833" id="Fill-21" fill="#403F31"></path>
            <path d="M81.5627797,52.9222458 C82.9458305,53.8961208 84.4082034,54.4943292 85.7383729,53.7307458 C87.0685424,52.9753292 86.2895593,51.9871625 84.9065085,51.0153292 C83.5234576,50.0414542 81.1580339,49.9659125 80.7329492,50.2047875 C80.3037966,50.4538708 80.1817627,51.9483708 81.5627797,52.9222458" id="Fill-23" fill="#403F31"></path>
            <path d="M91.1125424,44.3380583 C92.9776271,44.872975 94.6637288,45.0281417 95.3328814,43.966475 C96.0040678,42.9027667 94.6637288,42.2004333 92.7945763,41.6675583 C90.9294915,41.1326417 88.7877966,41.6961417 88.5742373,42.0411833 C88.3586441,42.3801 89.2474576,43.807225 91.1125424,44.3380583" id="Fill-25" fill="#403F31"></path>
            <path d="M94.972678,35.8602417 C96.972,35.852075 98.5665763,35.545825 98.4486102,34.3718667 C98.3347119,33.2019917 96.6831864,32.9079917 94.6797966,32.9161583 C92.6804746,32.924325 91.1672542,34.0288667 91.2038644,34.4045333 C91.2425085,34.7802 92.9733559,35.8684083 94.972678,35.8602417" id="Fill-27" fill="#403F31"></path>
            <path d="M92.9011525,26.9738875 C94.6604746,26.4267208 95.8625085,25.7100958 94.9818305,24.6545542 C94.1052203,23.5969708 92.451661,23.7684708 90.692339,24.3156375 C88.9330169,24.8648458 88.3269153,26.2940125 88.6096271,26.6349708 C88.892339,26.9738875 91.1418305,27.5230958 92.9011525,26.9738875" id="Fill-29" fill="#403F31"></path>
            <path d="M83.060339,20.0753 C84.199322,19.064675 84.7362712,18.0683417 83.2250847,17.3476333 C81.7138983,16.6289667 80.4020339,17.2618833 79.2630508,18.268425 C78.1220339,19.2770083 78.6122034,20.7653833 79.0983051,21.000175 C79.5844068,21.2288417 81.919322,21.085925 83.060339,20.0753" id="Fill-31" fill="#403F31"></path>
            <path d="M65.7870508,18.3245708 C65.8541695,17.0485292 65.4392542,15.9889042 63.6006102,15.8868208 C61.7660339,15.7806542 61.243322,16.7871958 61.1721356,18.0591542 C61.1050169,19.3311125 62.7687458,20.4601542 63.3565424,20.4928208 C63.9484068,20.5295708 65.7199322,19.5965292 65.7870508,18.3245708" id="Fill-33" fill="#403F31"></path>
            <path d="M49.1324746,21.8946292 C48.304678,20.7043375 47.2063729,19.8468375 45.5324746,20.2674208 C43.8585763,20.6920875 44.1006102,21.7639625 44.9304407,22.9583375 C45.7582373,24.1486292 47.9914576,24.7202958 48.5304407,24.5814625 C49.0673898,24.4467125 49.9623051,23.0890042 49.1324746,21.8946292" id="Fill-35" fill="#403F31"></path>
            <path d="M95.2926102,63.8124958 C95.0037966,64.0044125 94.416,63.9472458 93.976678,63.6818292 L69.5190508,48.9103708 C69.0776949,48.6449542 68.9536271,48.2713292 69.2404068,48.0753292 C69.5271864,47.8834125 70.1170169,47.9405792 70.556339,48.2059958 L95.016,62.9794958 C95.455322,63.2449125 95.5793898,63.6205792 95.2926102,63.8124958" id="Fill-37" fill="#B6CC58"></path>
            <path d="M108.907119,50.7341917 C108.783051,50.995525 108.223729,51.09965 107.658305,50.971025 L76.2650847,43.82315 C75.699661,43.6965667 75.3416949,43.3801083 75.4677966,43.1228583 C75.5918644,42.8656083 76.1511864,42.7594417 76.7145763,42.8901083 L108.107797,50.0339 C108.67322,50.1666083 109.031186,50.4769417 108.907119,50.7341917" id="Fill-39" fill="#B6CC58"></path>
            <path d="M113.930237,35.5662417 C113.991254,35.839825 113.570237,36.084825 112.984475,36.121575 L80.5397288,37.9427417 C79.956,37.9754083 79.4332881,37.7773667 79.3702373,37.5037833 C79.3092203,37.2302 79.7322712,36.9811167 80.316,36.94845 L112.760746,35.129325 C113.344475,35.0966583 113.86922,35.2926583 113.930237,35.5662417" id="Fill-41" fill="#B6CC58"></path>
            <path d="M107.426441,23.2523375 C107.644068,23.4932542 107.410169,23.8342125 106.903729,24.0057125 L78.6671186,33.5872542 C78.1566102,33.7587542 77.5688136,33.7015875 77.3511864,33.4565875 C77.1294915,33.2095458 77.3654237,32.8747125 77.8718644,32.7032125 L106.110508,23.1216708 C106.618983,22.9501708 107.20678,23.0073375 107.426441,23.2523375" id="Fill-43" fill="#B6CC58"></path>
            <path d="M94.1633898,14.0717792 C94.5030508,14.2514458 94.480678,14.6271125 94.1186441,14.9109042 L73.8711864,30.5847792 C73.5071186,30.8685708 72.9355932,30.9502375 72.5979661,30.7644458 C72.2583051,30.5847792 72.2786441,30.2091125 72.6427119,29.9273625 L92.8901695,14.2514458 C93.2562712,13.9696958 93.8257627,13.8880292 94.1633898,14.0717792" id="Fill-45" fill="#B6CC58"></path>
            <path d="M75.940678,9.0215125 C76.359661,9.10317917 76.579322,9.4625125 76.4369492,9.81980417 L68.3786441,29.7464708 C68.2322034,30.1078458 67.7766102,30.3324292 67.3576271,30.2487208 C66.940678,30.1629708 66.7189831,29.8077208 66.8654237,29.4483875 L74.9237288,9.51967917 C75.0681356,9.16442917 75.5237288,8.93984583 75.940678,9.0215125" id="Fill-47" fill="#B6CC58"></path>
            <path d="M49.9698305,9.42617083 C50.3786441,9.35675417 50.8586441,9.5935875 51.0457627,9.95292083 L61.3128814,30.1347958 C61.4959322,30.4982125 61.3149153,30.8514208 60.9040678,30.9208375 C60.4952542,30.9943375 60.0132203,30.7575042 59.8281356,30.3940875 L49.5630508,10.2122125 C49.3779661,9.84879583 49.5610169,9.4955875 49.9698305,9.42617083" id="Fill-49" fill="#B6CC58"></path>
            <path d="M27.8570847,17.5969208 C28.172339,17.4172542 28.752,17.5070875 29.1587797,17.7970042 L51.6211525,33.8036708 C52.0258983,34.0895042 52.0950508,34.4651708 51.7838644,34.6427958 C51.4686102,34.8183792 50.8889492,34.7285458 50.4842034,34.4406708 L28.0218305,18.4360458 C27.6170847,18.1502125 27.5438644,17.7725042 27.8570847,17.5969208" id="Fill-51" fill="#B6CC58"></path>
            <path d="M14.2157288,28.9696167 C14.3743729,28.7205333 14.9479322,28.6470333 15.4970847,28.8062833 L45.9465763,37.640575 C46.4957288,37.7957417 46.8089492,38.1264917 46.6503051,38.375575 C46.491661,38.6246583 45.9160678,38.6981583 45.3689492,38.5389083 L14.9174237,29.7107417 C14.3703051,29.5514917 14.0570847,29.2187 14.2157288,28.9696167" id="Fill-53" fill="#B6CC58"></path>
            <path d="M10.3812203,41.8886708 C10.3568136,41.6110042 10.8144407,41.3905042 11.4042712,41.3905042 L44.1357966,41.3905042 C44.727661,41.3905042 45.2239322,41.6110042 45.248339,41.8886708 C45.2727458,42.1622542 44.8151186,42.3827542 44.2252881,42.3827542 L11.4917288,42.3827542 C10.9018983,42.3827542 10.4056271,42.1622542 10.3812203,41.8886708" id="Fill-55" fill="#B6CC58"></path>
            <path d="M12.5859661,56.9618875 C12.3825763,56.7148458 12.6388475,56.3840958 13.1574915,56.2289292 L42.0368136,47.3966792 C42.5574915,47.2374292 43.1452881,47.3109292 43.348678,47.5579708 C43.5541017,47.8070542 43.2978305,48.1378042 42.7771525,48.2970542 L13.8957966,57.1272625 C13.3751186,57.2865125 12.7893559,57.2130125 12.5859661,56.9618875" id="Fill-57" fill="#B6CC58"></path>
            <path d="M25.8400678,67.7024833 C25.496339,67.5248583 25.5024407,67.1491917 25.8543051,66.859275 L45.4712542,50.8566917 C45.8251525,50.566775 46.3905763,50.4769417 46.736339,50.652525 C47.0821017,50.8281083 47.076,51.203775 46.7241356,51.4936917 L27.1051525,67.5003583 C26.7532881,67.7882333 26.1858305,67.8780667 25.8400678,67.7024833" id="Fill-59" fill="#B6CC58"></path>
            <path d="M44.6674576,74.1145417 C44.2464407,74.045125 44.000339,73.6939583 44.1223729,73.3285 L50.8016949,53.146625 C50.9216949,52.7832083 51.3589831,52.5504583 51.7820339,52.619875 C52.2050847,52.6913333 52.4491525,53.0425 52.3291525,53.403875 L45.6498305,73.58575 C45.5298305,73.9512083 45.0905085,74.1880417 44.6674576,74.1145417" id="Fill-61" fill="#B6CC58"></path>
            <path d="M68.5350508,72.97815 C68.1140339,73.02715 67.6645424,72.7658167 67.5303051,72.3942333 L60.0191186,51.816275 C59.8848814,51.4467333 60.1147119,51.1078167 60.5336949,51.0608583 C60.952678,51.0118583 61.4021695,51.2752333 61.5384407,51.644775 L69.0496271,72.2227333 C69.1838644,72.5902333 68.9540339,72.92915 68.5350508,72.97815" id="Fill-63" fill="#B6CC58"></path>
            <path d="M72.8023729,48.0106083 C63.7942373,54.1090667 50.8871186,55.662775 43.9738983,51.485525 C37.0566102,47.3103167 38.7549153,38.9844 47.7610169,32.8879833 C56.7711864,26.789525 69.6783051,25.2358167 76.5935593,29.411025 C83.5088136,33.5923583 81.8125424,41.918275 72.8023729,48.0106083" id="Fill-65" fill="#ECEDAA"></path>
        </g>
    </g>
</svg>