<?xml version="1.0" encoding="UTF-8"?>
<svg width="120px" height="120px" viewBox="0 0 120 120" version="1.1" xmlns="http://www.w3.org/2000/svg" xmlns:xlink="http://www.w3.org/1999/xlink">
    <!-- Generator: Sketch 51.1 (57501) - http://www.bohemiancoding.com/sketch -->
    <title>Cactus7</title>
    <desc>Created with Sketch.</desc>
    <defs>
        <polygon id="path-1" points="0 0.634214036 35.4650028 0.634214036 35.4650028 81.9603474 0 81.9603474"></polygon>
        <polygon id="path-3" points="0.0729932277 0.48 29.8854226 0.48 29.8854226 90.6965206 0.0729932277 90.6965206"></polygon>
        <polygon id="path-5" points="0.18 0.823913043 68.473913 0.823913043 68.473913 31.3043478 0.18 31.3043478"></polygon>
        <polygon id="path-7" points="0.18 0.823913043 31.38 0.823913043 31.38 31.3043478 0.18 31.3043478"></polygon>
    </defs>
    <g id="Cactus7" stroke="none" stroke-width="1" fill="none" fill-rule="evenodd">
        <g id="Group" transform="translate(21.000000, 0.000000)">
            <g id="Group-3" transform="translate(0.000000, 9.085217)">
                <mask id="mask-2" fill="white">
                    <use xlink:href="#path-1"></use>
                </mask>
                <g id="Clip-2"></g>
                <path d="M7.43121739,0.876608696 L8.58078261,0.73226087 C13.3251304,0.014 17.926,3.32095652 18.6451304,8.06530435 L21.0894783,23.0183478 C21.3773043,24.600087 21.0894783,26.1818261 20.5146957,27.6192174 C21.952087,28.4818261 22.9581739,29.7757391 23.6781739,31.3574783 L29.5729565,45.3035652 C30.4355652,47.3166087 30.4355652,49.4731304 29.859913,51.4861739 C31.2973043,52.780087 32.3042609,54.3618261 32.592087,56.3748696 L35.3233913,71.327913 C36.186,76.0722609 33.0233913,80.6731304 28.1355652,81.5357391 L27.1277391,81.8235652 C22.3833913,82.6853043 17.6390435,79.3783478 16.7764348,74.634 L14.1886087,59.6809565 C13.9007826,58.3870435 14.0442609,56.9496522 14.3329565,55.6557391 C13.4694783,54.7931304 12.7503478,53.7861739 12.3190435,52.6357391 L6.42426087,38.834 C5.41817391,36.5331304 5.41817391,34.0887826 6.28078261,31.9322609 C4.41121739,30.6383478 2.97382609,28.4818261 2.54252174,26.0374783 L0.098173913,11.0844348 C-0.620956522,6.1966087 2.686,1.73921739 7.43121739,0.876608696" id="Fill-1" fill="#99CC33" mask="url(#mask-2)"></path>
            </g>
            <path d="M7.43121739,9.96182609 L8.58078261,9.81747826 C8.8686087,9.81747826 9.29991304,9.674 9.73208696,9.674 L14.0442609,37.5670435 L23.5346957,62.1531304 L23.5346957,62.4409565 L29.1416522,90.4774783 C28.8538261,90.4774783 28.4225217,90.6209565 28.1355652,90.6209565 L27.1277391,90.9087826 L26.2651304,90.9087826 L20.8025217,63.1592174 L11.3129565,38.4296522 L11.3129565,38.1418261 L6.99991304,10.1053043 C7.1433913,10.1053043 7.28686957,9.96182609 7.43121739,9.96182609" id="Fill-4" fill="#436E17"></path>
            <path d="M20.2266957,89.1831304 C18.5023478,87.8892174 17.2075652,86.0196522 16.7762609,83.7196522 L14.1884348,68.7666087 C13.9014783,67.4726957 14.0449565,66.0344348 14.3327826,64.7413913 C13.4693043,63.877913 12.7501739,62.8718261 12.3188696,61.7213913 L6.42408696,47.9187826 C5.418,45.6187826 5.418,43.1744348 6.2806087,41.017913 C4.41191304,39.724 2.97365217,37.5674783 2.54234783,35.1231304 L0.0988695652,20.170087 C-0.333304348,16.8631304 0.961478261,13.6996522 3.40495652,11.6866087 L8.14930435,40.2987826 L17.9258261,64.4535652 L20.2266957,89.1831304 Z" id="Fill-6" fill="#669933"></path>
            <path d="M71.6992174,60.5711304 L72.7053043,60.8589565 C77.1626957,62.7276522 79.320087,67.9041739 77.4505217,72.5050435 L71.8426957,86.4511304 C69.974,90.9085217 64.7974783,93.2093913 60.1966087,91.3398261 L59.334,90.9085217 C54.7331304,89.0398261 52.5774783,83.8633043 54.4461739,79.4067826 L60.0531304,65.3163478 C61.9226957,60.8589565 67.0983478,58.7024348 71.6992174,60.5711304" id="Fill-8" fill="#99CC33"></path>
            <path d="M72.1306087,60.7150435 L72.7053913,60.8593913 C73.4245217,61.1463478 74.1427826,61.5776522 74.7193043,62.1524348 L61.6349565,91.7706957 C61.0601739,91.6272174 60.628,91.4837391 60.1966957,91.3402609 L59.334087,90.9089565 C59.1906087,90.9089565 59.0471304,90.7646087 58.9027826,90.7646087 L72.1306087,60.7150435 Z" id="Fill-10" fill="#436E17"></path>
            <path d="M77.0193913,64.7410435 C78.3124348,67.041913 78.6002609,69.9166957 77.4506957,72.5045217 L71.8428696,86.4514783 C70.6933043,89.0393043 68.6802609,90.7645217 66.235913,91.6271304 L77.0193913,64.7410435 Z" id="Fill-12" fill="#669933"></path>
            <g id="Group-16" transform="translate(37.391304, 0.389565)">
                <mask id="mask-4" fill="white">
                    <use xlink:href="#path-3"></use>
                </mask>
                <g id="Clip-15"></g>
                <path d="M18.0613043,61.0443478 C19.4986957,62.7695652 20.3621739,65.0704348 20.2178261,67.513913 L18.923913,82.6104348 C18.4926087,87.3556522 14.1786957,91.093913 9.29086957,90.6626087 L8.28478261,90.5191304 C3.39608696,90.0878261 -0.198695652,85.773913 0.0891304348,80.886087 L1.38304348,65.9330435 C1.67,63.0573913 3.10826087,60.7565217 5.26478261,59.3191304 C3.8273913,57.593913 3.10826087,55.2930435 3.2526087,52.8495652 L4.54565217,37.7521739 C4.83347826,34.5895652 6.84652174,31.8573913 9.57782609,30.5634783 C6.84652174,28.2634783 5.5526087,24.5252174 6.84652174,20.9304348 L11.5917391,6.55304348 C13.1726087,1.95217391 18.2047826,-0.636521739 22.8056522,0.945217391 L23.8117391,1.37652174 C28.4126087,2.81478261 31.0013043,7.84695652 29.4195652,12.5913043 L24.5308696,26.8252174 C23.8117391,29.126087 22.2308696,30.8513043 20.2178261,31.8573913 C22.2308696,33.7269565 23.5247826,36.4582609 23.2369565,39.333913 L21.9430435,54.4304348 C21.7995652,57.1626087 20.2178261,59.6069565 18.0613043,61.0443478" id="Fill-14" fill="#99CC33" mask="url(#mask-4)"></path>
            </g>
            <path d="M48.5513043,90.9086957 C47.9765217,91.0521739 47.2573913,91.0521739 46.6826087,91.0521739 L45.6756522,90.9086957 L46.826087,60.14 L46.826087,59.9965217 L50.7078261,30.666087 L50.7078261,30.5217391 L59.9104348,1.33478261 L59.9104348,1.19130435 C60.053913,1.33478261 60.053913,1.33478261 60.1973913,1.33478261 L61.2034783,1.76608696 C61.7791304,1.91043478 62.2095652,2.05391304 62.6408696,2.34173913 L62.4973913,2.48521739 L53.4391304,31.2408696 L49.7008696,60.2834783 L48.5513043,90.9086957 Z" id="Fill-17" fill="#436E17"></path>
            <path d="M55.4526087,61.433913 C56.89,63.1591304 57.7534783,65.46 57.6091304,67.9034783 L56.89,75.8121739 C54.7334783,81.8504348 53.0082609,86.7391304 52.0013043,89.7582609 L51.8578261,89.7582609 C52.4326087,81.993913 53.0082609,60.7147826 53.0082609,60.7147826 L56.0273913,32.3913043 L64.9413043,4.21043478 C67.0986957,6.51130435 67.8178261,9.81826087 66.8108696,12.9808696 L61.9221739,27.2147826 C61.2030435,29.5156522 59.6221739,31.2408696 57.6091304,32.2469565 C59.6221739,34.1165217 60.916087,36.8478261 60.6282609,39.7234783 L59.3343478,54.82 C59.1908696,57.5521739 57.6091304,59.9965217 55.4526087,61.433913" id="Fill-19" fill="#669933"></path>
            <path d="M8.29313043,85.732 C8.29313043,85.732 6.71226087,97.5224348 12.0322609,107.298957 C14.9070435,112.474609 18.6453043,115.35113 22.5270435,117.075478 C22.6713913,118.369391 22.8148696,119.088522 22.8148696,119.088522 C36.3296522,119.663304 48.120087,119.663304 61.6348696,119.088522 C61.6348696,119.088522 61.7792174,118.369391 61.7792174,117.075478 C65.8044348,115.35113 69.3983478,112.474609 72.274,107.298957 C77.594,97.5224348 76.1566087,85.732 76.1566087,85.732 C50.1322609,86.7389565 34.3174783,86.7389565 8.29313043,85.732" id="Fill-21" fill="#E1C35D"></path>
            <g id="Group-25" transform="translate(7.826087, 88.215652)">
                <mask id="mask-6" fill="white">
                    <use xlink:href="#path-5"></use>
                </mask>
                <g id="Clip-24"></g>
                <path d="M0.18,0.823913043 C0.18,5.13695652 0.754782609,12.6134783 4.20608696,19.0830435 C7.08173913,24.2586957 10.8191304,27.1352174 14.7008696,28.8595652 C14.8452174,30.1543478 14.9886957,30.8734783 14.9886957,30.8734783 C28.5034783,31.4482609 40.293913,31.4482609 53.8086957,30.8734783 C53.8086957,30.8734783 53.9530435,30.1543478 53.9530435,28.8595652 C57.9782609,27.1352174 61.5730435,24.2586957 64.4478261,19.0830435 C68.0426087,12.6134783 68.473913,5.13695652 68.473913,0.823913043 C43.8886957,1.25434783 24.7652174,1.25434783 0.18,0.823913043" id="Fill-23" fill="#D1A338" mask="url(#mask-6)"></path>
            </g>
            <g id="Group-28" transform="translate(7.826087, 88.215652)">
                <mask id="mask-8" fill="white">
                    <use xlink:href="#path-7"></use>
                </mask>
                <g id="Clip-27"></g>
                <path d="M0.18,0.823913043 C0.18,5.13695652 0.754782609,12.6134783 4.20608696,19.0830435 C7.08173913,24.2586957 10.8191304,27.1352174 14.7008696,28.8595652 C14.8452174,30.1543478 14.9886957,30.8734783 14.9886957,30.8734783 C20.5965217,31.1604348 26.06,31.1604348 31.38,31.3047826 C14.413913,19.9456522 18.0086957,1.11086957 18.0086957,1.11086957 C12.2573913,1.11086957 6.50608696,0.967391304 0.18,0.823913043" id="Fill-26" fill="#B48133" mask="url(#mask-8)"></path>
            </g>
            <path d="M32.736087,107.011739 C34.8917391,107.011739 36.6178261,105.286522 36.6178261,103.12913 C36.6178261,100.972609 34.8917391,99.2473913 32.736087,99.2473913 C30.7230435,99.2473913 28.9969565,100.972609 28.9969565,103.12913 C28.9969565,105.286522 30.7230435,107.011739 32.736087,107.011739" id="Fill-29" fill="#000000"></path>
            <path d="M51.5701739,107.011739 C53.7266957,107.011739 55.4527826,105.286522 55.4527826,103.12913 C55.4527826,100.972609 53.7266957,99.2473913 51.5701739,99.2473913 C49.4145217,99.2473913 47.6884348,100.972609 47.6884348,103.12913 C47.6884348,105.286522 49.4145217,107.011739 51.5701739,107.011739" id="Fill-31" fill="#000000"></path>
        </g>
    </g>
</svg>