<?xml version="1.0" encoding="UTF-8"?>
<svg width="120px" height="120px" viewBox="0 0 120 120" version="1.1" xmlns="http://www.w3.org/2000/svg" xmlns:xlink="http://www.w3.org/1999/xlink">
    <!-- Generator: Sketch 51.1 (57501) - http://www.bohemiancoding.com/sketch -->
    <title>Sushi4</title>
    <desc>Created with Sketch.</desc>
    <defs>
        <polygon id="path-1" points="2.39453756 3.29297948 110.473548 3.29297948 110.473548 62.08 2.39453756 62.08"></polygon>
        <polygon id="path-3" points="0 0.70515878 114.584204 0.70515878 114.584204 81.5296137 0 81.5296137"></polygon>
    </defs>
    <g id="Sushi4" stroke="none" stroke-width="1" fill="none" fill-rule="evenodd">
        <g id="Page-1" transform="translate(61.000000, 60.500000) scale(-1, 1) translate(-61.000000, -60.500000) translate(1.000000, 12.000000)">
            <g id="Group-3" transform="translate(7.741935, 34.216168)">
                <mask id="mask-2" fill="white">
                    <use xlink:href="#path-1"></use>
                </mask>
                <g id="Clip-2"></g>
                <path d="M103.216258,36.015712 L19.4756129,61.631472 C14.067871,63.288232 8.33883871,60.226912 6.68593548,54.806552 L2.84206452,42.177152 C1.19303226,36.752912 4.24335484,31.014392 9.65496774,29.353752 L93.387871,3.741872 C98.8033548,2.088992 104.528516,5.142552 106.181419,10.570672 L110.02529,23.196192 C111.678194,28.624312 108.627871,34.358952 103.216258,36.015712" id="Fill-1" fill="#FFFFFF" mask="url(#mask-2)"></path>
            </g>
            <path d="M36.1509677,84.554512 C35.04,84.426472 34.3470968,82.517512 34.6064516,80.282632 C34.8619355,78.055512 35.9690323,76.356072 37.08,76.487992 C38.1909677,76.612152 38.883871,78.524992 38.6283871,80.752112 C38.3690323,82.979232 37.2619355,84.682552 36.1509677,84.554512" id="Fill-4" fill="#F1F1F1"></path>
            <path d="M92.1402581,68.29576 C92.984129,69.03296 92.4692903,71.004 90.9944516,72.68792 C89.5196129,74.37184 87.6421935,75.14008 86.8021935,74.399 C85.9583226,73.66568 86.4731613,71.7024 87.948,70.01072 C89.4228387,68.32292 91.3002581,67.55856 92.1402581,68.29576" id="Fill-6" fill="#F1F1F1"></path>
            <path d="M79.7864516,50.468324 C79.62,49.366404 81.2806452,48.190764 83.4909677,47.853204 C85.7012903,47.515644 87.6329032,48.136444 87.7993548,49.250004 C87.9696774,50.359684 86.3129032,51.527564 84.0987097,51.869004 C81.8845161,52.206564 79.9567742,51.578004 79.7864516,50.468324" id="Fill-8" fill="#F1F1F1"></path>
            <path d="M36.6952258,63.896616 C37.7636129,63.570696 39.1610323,65.041216 39.8152258,67.186856 C40.4694194,69.328616 40.1326452,71.334576 39.0565161,71.664376 C37.988129,71.990296 36.5945806,70.515896 35.9403871,68.370256 C35.2861935,66.228496 35.6229677,64.230296 36.6952258,63.896616" id="Fill-10" fill="#F1F1F1"></path>
            <path d="M44.3237419,80.894508 C43.2592258,80.553068 42.9456774,78.547108 43.6230968,76.413108 C44.3005161,74.275228 45.7172903,72.816348 46.7818065,73.157788 C47.8463226,73.495348 48.1637419,75.505188 47.4824516,77.635308 C46.8050323,79.780948 45.3882581,81.239828 44.3237419,80.894508" id="Fill-12" fill="#F1F1F1"></path>
            <path d="M82.3908387,62.164972 C83.5095484,62.199892 84.3689032,64.035132 84.3030968,66.281652 C84.2411613,68.528172 83.2850323,70.312972 82.1663226,70.285812 C81.0476129,70.250892 80.196,68.411772 80.2540645,66.165252 C80.316,63.922612 81.272129,62.137812 82.3908387,62.164972" id="Fill-14" fill="#F1F1F1"></path>
            <path d="M47.9794839,60.403064 C48.2504516,59.316664 50.2323871,58.870464 52.404,59.421424 C54.5717419,59.964624 56.1123871,61.291584 55.8414194,62.381864 C55.5665806,63.464384 53.5846452,63.902824 51.4207742,63.363504 C49.2452903,62.816424 47.7085161,61.493344 47.9794839,60.403064" id="Fill-16" fill="#F1F1F1"></path>
            <path d="M24.1296774,76.999376 C23.6148387,76.006096 24.8070968,74.360976 26.7890323,73.325016 C28.7787097,72.296816 30.8070968,72.265776 31.3219355,73.259056 C31.8367742,74.256216 30.6483871,75.897456 28.6587097,76.933416 C26.6729032,77.969376 24.6445161,77.996536 24.1296774,76.999376" id="Fill-18" fill="#F1F1F1"></path>
            <path d="M70.5096774,71.705892 C69.5225806,71.178212 69.5767742,69.148972 70.6296774,67.170172 C71.6864516,65.187492 73.3354839,64.011852 74.3264516,64.543412 C75.3096774,65.071092 75.2593548,67.104212 74.2064516,69.079132 C73.1535484,71.057932 71.4967742,72.237452 70.5096774,71.705892" id="Fill-20" fill="#F1F1F1"></path>
            <path d="M100.037032,50.411288 C98.984129,50.776008 97.5325161,49.359808 96.8009032,47.241328 C96.0654194,45.118968 96.3325161,43.101368 97.3854194,42.732768 C98.4460645,42.368048 99.8976774,43.788128 100.625419,45.906608 C101.360903,48.025088 101.093806,50.038808 100.037032,50.411288" id="Fill-22" fill="#F1F1F1"></path>
            <path d="M109.38929,53.393456 C108.332516,53.762056 106.880903,52.341976 106.14929,50.223496 C105.417677,48.101136 105.680903,46.087416 106.737677,45.718816 C107.794452,45.350216 109.246065,46.770296 109.977677,48.892656 C110.713161,51.015016 110.446065,53.024856 109.38929,53.393456" id="Fill-24" fill="#F1F1F1"></path>
            <path d="M77.556,76.040628 C77.4166452,77.158068 75.5043871,77.825428 73.2824516,77.542188 C71.0643871,77.262828 69.3805161,76.133748 69.516,75.020188 C69.6592258,73.906628 71.5714839,73.235388 73.7895484,73.514748 C76.0114839,73.801868 77.6953548,74.930948 77.556,76.040628" id="Fill-26" fill="#F1F1F1"></path>
            <path d="M46.524,85.232736 C46.0285161,84.223936 47.2594839,82.605976 49.2685161,81.616576 C51.2736774,80.623296 53.3020645,80.642696 53.7975484,81.651496 C54.2930323,82.652536 53.0620645,84.270496 51.0569032,85.263776 C49.044,86.253176 47.0194839,86.241536 46.524,85.232736" id="Fill-28" fill="#F1F1F1"></path>
            <path d="M57.1803871,78.779908 C56.9171613,77.693508 58.4616774,76.378188 60.6371613,75.842748 C62.8049032,75.303428 64.7868387,75.757388 65.0500645,76.839908 C65.3210323,77.930188 63.7726452,79.249388 61.6049032,79.788708 C59.4294194,80.316388 57.4474839,79.870188 57.1803871,78.779908" id="Fill-30" fill="#F1F1F1"></path>
            <path d="M60.5070968,64.446024 C61.1187097,63.510944 63.1354839,63.747624 65.0012903,64.985344 C66.8748387,66.219184 67.8890323,67.976824 67.2735484,68.911904 C66.6619355,69.850864 64.6412903,69.610304 62.7754839,68.372584 C60.9096774,67.142624 59.8916129,65.377224 60.5070968,64.446024" id="Fill-32" fill="#F1F1F1"></path>
            <path d="M74.5091613,62.002012 C73.5917419,61.365692 73.8743226,59.348092 75.147871,57.508972 C76.4214194,55.662092 78.2020645,54.688212 79.1194839,55.320652 C80.0446452,55.960852 79.7543226,57.974572 78.4807742,59.821452 C77.2072258,61.660572 75.4265806,62.642212 74.5091613,62.002012" id="Fill-34" fill="#F1F1F1"></path>
            <path d="M97.508129,70.504644 C96.5907097,69.868324 96.8771613,67.850724 98.1507097,66.007724 C99.4242581,64.164724 101.201032,63.186964 102.118452,63.827164 C103.043613,64.463484 102.75329,66.477204 101.479742,68.324084 C100.206194,70.163204 98.4294194,71.144844 97.508129,70.504644" id="Fill-36" fill="#F1F1F1"></path>
            <path d="M112.232129,57.955172 C112.870839,58.878612 111.887613,60.659532 110.052774,61.932172 C108.206323,63.208692 106.201161,63.491932 105.562452,62.568492 C104.927613,61.645052 105.906968,59.860252 107.749548,58.587612 C109.588258,57.318852 111.601161,57.035612 112.232129,57.955172" id="Fill-38" fill="#F1F1F1"></path>
            <path d="M88.356,64.214776 C88.3366452,63.093456 90.1289032,62.150616 92.3663226,62.096296 C94.599871,62.045856 96.4347097,62.914976 96.4618065,64.036296 C96.4850323,65.161496 94.6889032,66.108216 92.4553548,66.158656 C90.2140645,66.205216 88.3830968,65.336096 88.356,64.214776" id="Fill-40" fill="#F1F1F1"></path>
            <path d="M50.9922581,69.542404 C51.3987097,68.490924 53.4193548,68.308564 55.5058065,69.115604 C57.5922581,69.930404 58.9548387,71.428084 58.5483871,72.475684 C58.1458065,73.519404 56.1251613,73.713404 54.0387097,72.898604 C51.9522581,72.087684 50.5896774,70.590004 50.9922581,69.542404" id="Fill-42" fill="#F1F1F1"></path>
            <path d="M56.1747097,55.799444 C56.5772903,54.755724 58.5979355,54.565604 60.6843871,55.384284 C62.7708387,56.187444 64.1334194,57.696764 63.7269677,58.740484 C63.3243871,59.788084 61.3037419,59.970444 59.2172903,59.163404 C57.1308387,58.352484 55.7682581,56.847044 56.1747097,55.799444" id="Fill-44" fill="#F1F1F1"></path>
            <path d="M65.8637419,61.918592 C65.0005161,61.200792 65.4572903,59.221992 66.8818065,57.491512 C68.3063226,55.764912 70.1605161,54.942352 71.0237419,55.660152 C71.8869677,56.366312 71.4263226,58.352872 70.0018065,60.079472 C68.5772903,61.809952 66.7230968,62.632512 65.8637419,61.918592" id="Fill-46" fill="#F1F1F1"></path>
            <path d="M45.7943226,70.205496 C44.7104516,70.492616 43.3710968,68.967776 42.7943226,66.798856 C42.2214194,64.633816 42.6356129,62.643376 43.7156129,62.360136 C44.7956129,62.069136 46.1388387,63.593976 46.7117419,65.759016 C47.2846452,67.931816 46.8704516,69.922256 45.7943226,70.205496" id="Fill-48" fill="#F1F1F1"></path>
            <path d="M25.263871,81.913784 C25.8445161,80.955424 27.8690323,81.122264 29.7812903,82.282384 C31.6935484,83.446384 32.7696774,85.169104 32.1929032,86.127464 C31.6122581,87.081944 29.5916129,86.918984 27.6793548,85.754984 C25.7632258,84.590984 24.6870968,82.868264 25.263871,81.913784" id="Fill-50" fill="#F1F1F1"></path>
            <path d="M24.7420645,71.274048 C23.6310968,71.146008 22.9343226,69.237048 23.1936774,67.002168 C23.4491613,64.778928 24.560129,63.083368 25.6672258,63.207528 C26.7820645,63.335568 27.4749677,65.240648 27.2194839,67.475528 C26.960129,69.702648 25.8530323,71.402088 24.7420645,71.274048" id="Fill-52" fill="#F1F1F1"></path>
            <path d="M13.8549677,68.632932 C14.4356129,67.678452 16.460129,67.841412 18.3685161,69.009292 C20.2807742,70.169412 21.3607742,71.892132 20.784,72.850492 C20.2072258,73.804972 18.1827097,73.642012 16.2704516,72.474132 C14.3581935,71.314012 13.2743226,69.595172 13.8549677,68.632932" id="Fill-54" fill="#F1F1F1"></path>
            <path d="M94.2383226,58.849512 C93.1854194,59.225872 91.7260645,57.809672 90.9828387,55.698952 C90.2396129,53.580472 90.4912258,51.562872 91.548,51.190392 C92.6009032,50.821792 94.0602581,52.234112 94.8034839,54.344832 C95.5467097,56.463312 95.2912258,58.477032 94.2383226,58.849512" id="Fill-56" fill="#F1F1F1"></path>
            <path d="M26.6965161,89.867008 C26.3442581,90.937888 24.3390968,91.232768 22.2139355,90.534368 C20.0887742,89.828208 18.6487742,88.392608 18.9971613,87.333368 C19.3494194,86.266368 21.3507097,85.967608 23.4797419,86.673768 C25.6049032,87.368288 27.0449032,88.807768 26.6965161,89.867008" id="Fill-58" fill="#F1F1F1"></path>
            <path d="M22.3796129,80.731548 C22.0273548,81.790788 20.0221935,82.089548 17.8970323,81.387268 C15.768,80.684988 14.331871,79.253268 14.684129,78.194028 C15.0325161,77.123148 17.0376774,76.832148 19.1628387,77.534428 C21.288,78.232828 22.728,79.664548 22.3796129,80.731548" id="Fill-60" fill="#F1F1F1"></path>
            <path d="M98.6423226,59.308128 C97.8797419,58.481688 98.5842581,56.580488 100.221677,55.047888 C101.855226,53.515288 103.802323,52.941048 104.564903,53.759728 C105.331355,54.578408 104.622968,56.483488 102.985548,58.016088 C101.352,59.548688 99.4049032,60.119048 98.6423226,59.308128" id="Fill-62" fill="#F1F1F1"></path>
            <g id="Group-66" transform="translate(0.000000, 3.176168)">
                <mask id="mask-4" fill="white">
                    <use xlink:href="#path-3"></use>
                </mask>
                <g id="Clip-65"></g>
                <path d="M90.288,1.179132 L7.67380645,26.449572 C1.95251613,28.199452 -1.272,34.263892 0.473806452,40.010172 L10.7744516,73.836012 C12.5202581,79.570652 18.5744516,82.806572 24.2957419,81.052812 L106.909935,55.786252 C112.631226,54.036372 115.855742,47.964172 114.109935,42.229532 L103.80929,8.392052 C102.063484,2.661292 96.0092903,-0.566868 90.288,1.179132" id="Fill-64" fill="#FFCF72" mask="url(#mask-4)"></path>
            </g>
            <path d="M6.37006452,37.505632 C15.1765161,34.812912 16.7249032,39.884072 25.5313548,37.191352 C34.3455484,34.494752 32.7971613,29.423592 41.6113548,26.726992 C50.4255484,24.030392 51.9700645,29.101552 60.788129,26.408832 C69.6139355,23.704472 68.0694194,18.637192 76.8952258,15.932832 C85.7171613,13.236232 87.2616774,18.311272 96.0874839,15.610792" id="Stroke-67" stroke="#FFFFFF" stroke-width="2.33032258" stroke-linecap="round"></path>
            <path d="M8.85367742,45.671092 C17.664,42.974492 19.2085161,48.045652 28.0149677,45.352932 C36.8291613,42.660212 35.2846452,37.585172 44.0949677,34.892452 C52.9130323,32.195852 54.4536774,37.267012 63.2756129,34.570412 C72.0975484,31.869932 70.5530323,26.798772 79.3827097,24.098292 C88.2046452,21.401692 89.7452903,26.472852 98.5710968,23.772372" id="Stroke-69" stroke="#FFFFFF" stroke-width="2.33032258" stroke-linecap="round"></path>
            <path d="M11.3411613,53.832672 C20.1476129,51.139952 21.696,56.211112 30.5024516,53.514512 C39.3166452,50.821792 37.7682581,45.746752 46.5785806,43.054032 C55.3966452,40.349672 56.9411613,45.424712 65.7630968,42.731992 C74.5850323,40.027632 73.0405161,34.956472 81.8663226,32.255992 C90.6882581,29.559392 92.2327742,34.630552 101.058581,31.930072" id="Stroke-71" stroke="#FFFFFF" stroke-width="2.33032258" stroke-linecap="round"></path>
            <path d="M58.3409032,14.12708 L39.6170323,19.85396 C37.1396129,20.61444 35.7383226,23.24508 36.4970323,25.72828 L53.8660645,82.77592 C54.6209032,85.263 57.2492903,86.66368 59.7305806,85.9032 L78.4467097,80.17632 C80.931871,79.41584 82.3254194,76.7852 81.5705806,74.302 L64.2054194,17.25824 C63.4467097,14.76728 60.8221935,13.37048 58.3409032,14.12708" id="Fill-73" fill="#1C1C1B"></path>
        </g>
    </g>
</svg>