<?xml version="1.0" encoding="UTF-8"?>
<svg width="120px" height="120px" viewBox="0 0 120 120" version="1.1" xmlns="http://www.w3.org/2000/svg" xmlns:xlink="http://www.w3.org/1999/xlink">
    <!-- Generator: Sketch 51.1 (57501) - http://www.bohemiancoding.com/sketch -->
    <title>Rainshoes1</title>
    <desc>Created with Sketch.</desc>
    <defs></defs>
    <g id="Rainshoes1" stroke="none" stroke-width="1" fill="none" fill-rule="evenodd">
        <g id="Group" transform="translate(11.000000, 0.000000)">
            <path d="M10.919397,105.016281 C10.919397,105.016281 8.77386935,112.044422 10.4532663,118.374271 L42.4184925,119.489246 L42.5843216,114.729648 C42.5843216,114.729648 69.6560804,125.734673 98.358392,113.080402 L98.6574874,104.053869 L10.919397,105.016281" id="Fill-83" fill="#513B32"></path>
            <path d="M96.3955779,106.884422 C93.1314573,102.832161 85.4152764,102.287035 71.0237186,102.507739 C53.1358794,102.782714 49.6854271,72.2592965 51.3015075,46.0745729 C51.3925628,33.358191 52.8964824,20.6273367 54.8080402,11.6611055 C47.4434171,10.3718593 24.3364824,7.62452261 2.40241206,18.7091457 L4.8440201,27.4552764 C4.8440201,27.4552764 16.5220101,59.6719598 13.8367839,82.1342714 C13.9646231,85.7372864 13.8663317,89.2594975 13.4442211,92.561005 C12.761608,97.8994975 12.2424121,101.957789 11.8456281,105.061508 C16.3941709,105.294874 36.8122613,106.51598 47.9541709,110.070754 C64.0377889,115.201809 88.8476382,111.015075 96.3955779,106.884422" id="Fill-84" fill="#144439"></path>
            <path d="M10.919397,105.016281 C10.919397,105.016281 18.4649246,105.337688 27.3292462,106.310955 C28.9067337,66.3509548 19.480402,17.9258291 12.7320603,4.55155779 C8.50251256,5.95055276 4.22231156,7.7758794 0.0120603015,10.1445226 L4.8440201,27.4552764 C4.8440201,27.4552764 16.6679397,60.0615075 13.7933668,82.5388945 C10.919397,105.016281 10.919397,105.016281 10.919397,105.016281" id="Fill-85" fill="#147061"></path>
            <path d="M71.3728643,92.4856281 C43.3525628,92.9155779 50.7551759,17.7672362 57.5722613,2.11718593 C57.5722613,2.11718593 47.8697487,-0.227939698 34.5015075,0.519798995 C27.6970854,27.2611055 32.4970854,90.2357789 33.9557789,107.143719 C39.039799,107.873367 44.0635176,108.829749 47.9541709,110.070754 C67.0631156,116.167236 98.4970854,109.110754 98.6532663,104.621307 C99.0434171,93.4432161 92.1847236,92.1660302 71.3728643,92.4856281" id="Fill-86" fill="#147061"></path>
            <path d="M34.8850251,24.2182915 C27.8689447,22.5334673 20.881809,23.6894472 15.2864322,26.8745729 C14.8245226,26.081608 14.3481407,25.2964824 13.8566834,24.5179899 C20.0309548,20.9813065 27.6934673,19.7017085 35.3565829,21.4926633 C35.2154774,22.4056281 35.0580905,23.3143719 34.8850251,24.2182915" id="Fill-87" fill="#F8C638"></path>
            <path d="M34.0239196,31.799397 C28.2476382,30.4124623 22.4948744,31.3531658 17.8769849,33.958794 C17.4186935,33.1646231 16.9417085,32.3788945 16.4472362,31.601608 C21.640402,28.6456281 28.0649246,27.5813065 34.4858291,29.0713568 C34.3507538,29.9855276 34.1969849,30.8954774 34.0239196,31.799397" id="Fill-88" fill="#F8C638"></path>
            <path d="M71.3728643,92.4856281 C69.0820101,92.520603 67.0317588,92.0424121 65.1943719,91.1409045 C68.3252261,97.6974874 72.8219095,101.496482 79.2838191,98.9656281 C79.2838191,98.9656281 86.0508543,95.7370854 89.2848241,101.729849 C91.0558794,105.011457 95.0550754,105.059095 98.6586935,104.263719 C98.8860302,93.4215075 91.9567839,92.1696482 71.3728643,92.4856281" id="Fill-89" fill="#178070"></path>
            <path d="M14.2365829,73.9646231 C14.2739698,76.921206 14.1431156,79.8054271 13.7933668,82.5388945 C11.9969849,96.5885427 11.3234171,101.856482 11.0707538,103.831357 C13.3959799,103.009447 15.1423116,101.138291 14.8558794,97.9151759 C14.0080402,88.3821106 19.2838191,94.2922613 20.640603,84.4932663 C21.4371859,78.7423116 17.5688442,75.5897487 14.2365829,73.9646231" id="Fill-90" fill="#178070"></path>
        </g>
    </g>
</svg>