<?xml version="1.0" encoding="UTF-8"?>
<svg width="120px" height="120px" viewBox="0 0 120 120" version="1.1" xmlns="http://www.w3.org/2000/svg" xmlns:xlink="http://www.w3.org/1999/xlink">
    <!-- Generator: Sketch 51.1 (57501) - http://www.bohemiancoding.com/sketch -->
    <title>Historic building15</title>
    <desc>Created with Sketch.</desc>
    <defs>
        <polygon id="path-1" points="0 79.9334078 119.616444 79.9334078 119.616444 0 0 0"></polygon>
    </defs>
    <g id="Historic-building15" stroke="none" stroke-width="1" fill="none" fill-rule="evenodd">
        <g id="Page-1" transform="translate(0.000000, 21.000000)">
            <path d="M115.8996,42.4698101 L2.79648889,42.4698101 C2.13604444,42.4698101 2.01471111,41.5267933 2.65737778,41.3520447 C18.8622667,36.8112626 24.2809333,31.8508156 25.2191556,30.8903687 C25.3404889,30.7679106 25.4796,30.7156201 25.6360444,30.7156201 L93.0600444,30.7156201 C93.2164889,30.7156201 93.3551556,30.7679106 93.4596,30.8903687 C94.3973778,31.8508156 99.8338222,36.8112626 116.038267,41.3520447 C116.681378,41.5267933 116.5596,42.4698101 115.8996,42.4698101" id="Fill-1" fill="#FFBC00"></path>
            <mask id="mask-2" fill="white">
                <use xlink:href="#path-1"></use>
            </mask>
            <g id="Clip-4"></g>
            <polygon id="Fill-3" fill="#136C00" mask="url(#mask-2)" points="9.48311111 45.4042458 109.490667 45.4042458 109.490667 42.4701676 9.48311111 42.4701676"></polygon>
            <polygon id="Fill-5" fill="#700208" mask="url(#mask-2)" points="9.48311111 74.3794413 109.490667 74.3794413 109.490667 45.4042458 9.48311111 45.4042458"></polygon>
            <polygon id="Fill-6" fill="#DE0A19" mask="url(#mask-2)" points="15.8311111 74.3718436 18.7253333 74.3718436 18.7253333 42.4750838 15.8311111 42.4750838"></polygon>
            <polygon id="Fill-7" fill="#DE0A19" mask="url(#mask-2)" points="32.6564444 74.3718436 35.5506667 74.3718436 35.5506667 42.4750838 32.6564444 42.4750838"></polygon>
            <polygon id="Fill-8" fill="#DE0A19" mask="url(#mask-2)" points="49.4817778 74.3718436 52.3764444 74.3718436 52.3764444 42.4750838 49.4817778 42.4750838"></polygon>
            <polygon id="Fill-9" fill="#DE0A19" mask="url(#mask-2)" points="66.308 74.3718436 69.2022222 74.3718436 69.2022222 42.4750838 66.308 42.4750838"></polygon>
            <polygon id="Fill-10" fill="#DE0A19" mask="url(#mask-2)" points="83.1333333 74.3718436 86.0275556 74.3718436 86.0275556 42.4750838 83.1333333 42.4750838"></polygon>
            <polygon id="Fill-11" fill="#DE0A19" mask="url(#mask-2)" points="99.9591111 74.3718436 102.853333 74.3718436 102.853333 42.4750838 99.9591111 42.4750838"></polygon>
            <path d="M98.3227111,18.4723575 L20.3733778,18.4723575 C19.9738222,18.4723575 19.8693778,17.9311285 20.2516,17.7912402 C33.1911556,12.9532514 36.4911556,7.43414525 36.4911556,7.43414525 L36.5431556,7.43414525 C36.6124889,6.00218994 36.6649333,2.47414525 35.5356,0.552804469 C35.3449333,0.221184358 35.6920444,-0.128312849 36.0222667,0.0459888268 C37.5853778,0.937162011 39.7213778,2.9107933 40.9893778,7.17224581 C41.0418222,7.32911732 41.1804889,7.43414525 41.3369333,7.43414525 L77.4458222,7.43414525 C77.6022667,7.43414525 77.7236,7.32911732 77.7760444,7.17224581 C79.0436,2.9107933 81.1973778,0.937162011 82.7604889,0.0459888268 C83.0733778,-0.128312849 83.4204889,0.221184358 83.2298222,0.552804469 C82.1178222,2.45671508 82.1524889,5.98475978 82.2396,7.41671508 C82.2396,7.48688268 82.2569333,7.53917318 82.2916,7.59146369 C82.9342667,8.51749721 86.7724889,13.4247598 98.4444889,17.7912402 C98.8089333,17.9311285 98.7222667,18.4723575 98.3227111,18.4723575" id="Fill-12" fill="#FFBC00" mask="url(#mask-2)"></path>
            <polygon id="Fill-13" fill="#C40715" mask="url(#mask-2)" points="25.3577778 30.7155307 93.3204444 30.7155307 93.3204444 18.4719553 25.3577778 18.4719553"></polygon>
            <polygon id="Fill-14" fill="#700208" mask="url(#mask-2)" points="31.5866667 27.0753073 34.4808889 27.0753073 34.4808889 21.1083799 31.5866667 21.1083799"></polygon>
            <polygon id="Fill-15" fill="#700208" mask="url(#mask-2)" points="37.4328889 27.0753073 40.3271111 27.0753073 40.3271111 21.1083799 37.4328889 21.1083799"></polygon>
            <polygon id="Fill-16" fill="#700208" mask="url(#mask-2)" points="43.2786667 27.0753073 46.1733333 27.0753073 46.1733333 21.1083799 43.2786667 21.1083799"></polygon>
            <polygon id="Fill-17" fill="#700208" mask="url(#mask-2)" points="49.1257778 27.0753073 52.02 27.0753073 52.02 21.1083799 49.1257778 21.1083799"></polygon>
            <polygon id="Fill-18" fill="#700208" mask="url(#mask-2)" points="54.972 27.0753073 57.8662222 27.0753073 57.8662222 21.1083799 54.972 21.1083799"></polygon>
            <polygon id="Fill-19" fill="#700208" mask="url(#mask-2)" points="60.8182222 27.0753073 63.7128889 27.0753073 63.7128889 21.1083799 60.8182222 21.1083799"></polygon>
            <polygon id="Fill-20" fill="#700208" mask="url(#mask-2)" points="66.6644444 27.0753073 69.5586667 27.0753073 69.5586667 21.1083799 66.6644444 21.1083799"></polygon>
            <polygon id="Fill-21" fill="#700208" mask="url(#mask-2)" points="72.5111111 27.0753073 75.4053333 27.0753073 75.4053333 21.1083799 72.5111111 21.1083799"></polygon>
            <polygon id="Fill-22" fill="#700208" mask="url(#mask-2)" points="78.3573333 27.0753073 81.2515556 27.0753073 81.2515556 21.1083799 78.3573333 21.1083799"></polygon>
            <polygon id="Fill-23" fill="#700208" mask="url(#mask-2)" points="84.2035556 27.0753073 87.0977778 27.0753073 87.0977778 21.1083799 84.2035556 21.1083799"></polygon>
            <polygon id="Fill-24" fill="#FFD900" mask="url(#mask-2)" points="16.672 46.2364246 17.9266667 46.2364246 17.9266667 43.9436872 16.672 43.9436872"></polygon>
            <polygon id="Fill-25" fill="#FFD900" mask="url(#mask-2)" points="33.4768889 46.2364246 34.7311111 46.2364246 34.7311111 43.9436872 33.4768889 43.9436872"></polygon>
            <polygon id="Fill-26" fill="#FFD900" mask="url(#mask-2)" points="50.2808889 46.2364246 51.5351111 46.2364246 51.5351111 43.9436872 50.2808889 43.9436872"></polygon>
            <polygon id="Fill-27" fill="#FFD900" mask="url(#mask-2)" points="67.0848889 46.2364246 68.3391111 46.2364246 68.3391111 43.9436872 67.0848889 43.9436872"></polygon>
            <polygon id="Fill-28" fill="#FFD900" mask="url(#mask-2)" points="83.8888889 46.2364246 85.1431111 46.2364246 85.1431111 43.9436872 83.8888889 43.9436872"></polygon>
            <polygon id="Fill-29" fill="#FFD900" mask="url(#mask-2)" points="100.693333 46.2364246 101.947556 46.2364246 101.947556 43.9436872 100.693333 43.9436872"></polygon>
            <polygon id="Fill-30" fill="#C63604" mask="url(#mask-2)" points="0 79.9334078 119.616444 79.9334078 119.616444 55.3242458 0 55.3242458"></polygon>
            <polygon id="Fill-31" fill="#EDB0A0" mask="url(#mask-2)" points="119.6164 51.8662346 119.6164 55.359419 -4.44444444e-05 55.359419 -4.44444444e-05 51.8662346 4.13373333 51.8662346 4.13373333 53.6128268 8.25017778 53.6128268 8.25017778 51.8662346 12.3835111 51.8662346 12.3835111 53.6128268 16.4999556 53.6128268 16.4999556 51.8662346 20.6337333 51.8662346 20.6337333 53.6128268 24.7501778 53.6128268 24.7501778 51.8662346 28.8835111 51.8662346 28.8835111 53.6128268 32.9999556 53.6128268 32.9999556 51.8662346 37.1337333 51.8662346 37.1337333 53.6128268 41.2501778 53.6128268 41.2501778 51.8662346 45.3835111 51.8662346 45.3835111 53.6128268 49.4999556 53.6128268 49.4999556 51.8662346 53.6164 51.8662346 53.6164 53.6128268 57.7501778 53.6128268 57.7501778 51.8662346 61.8666222 51.8662346 61.8666222 53.6128268 65.9999556 53.6128268 65.9999556 51.8662346 70.1164 51.8662346 70.1164 53.6128268 74.2501778 53.6128268 74.2501778 51.8662346 78.3666222 51.8662346 78.3666222 53.6128268 82.4999556 53.6128268 82.4999556 51.8662346 86.6164 51.8662346 86.6164 53.6128268 90.7501778 53.6128268 90.7501778 51.8662346 94.8666222 51.8662346 94.8666222 53.6128268 98.9999556 53.6128268 98.9999556 51.8662346 103.1164 51.8662346 103.1164 53.6128268 107.250178 53.6128268 107.250178 51.8662346 111.366622 51.8662346 111.366622 53.6128268 115.499956 53.6128268 115.499956 51.8662346"></polygon>
            <path d="M66.9379111,69.4015642 L66.9379111,79.9334078 L51.7405778,79.9334078 L51.7405778,69.4015642 C51.7405778,68.3012291 51.9663556,67.2706145 52.3832444,66.3275978 C53.2690222,64.2842458 55.0232444,62.7124022 57.1596889,62.0835754 C57.8543556,61.8565363 58.5836889,61.7519553 59.3481333,61.7519553 C61.4494667,61.7519553 63.3428,62.6078212 64.7148,63.987486 C65.3748,64.6686034 65.9303556,65.4721788 66.3125778,66.3624581 C66.7121333,67.2880447 66.9379111,68.3186592 66.9379111,69.4015642" id="Fill-32" fill="#700208" mask="url(#mask-2)"></path>
            <path d="M85.9563556,78.4837095 L85.9563556,79.9335419 L70.7590222,79.9335419 L70.7590222,78.4837095 C70.7590222,76.9646034 71.1932444,75.5670615 71.9750222,74.3791285 C73.2945778,72.2486257 75.6568,70.8515307 78.3492444,70.8515307 C80.1554667,70.8515307 81.8225778,71.4799106 83.1252444,72.5453855 C83.3336889,72.7201341 83.5421333,72.8948827 83.7332444,73.0870615 C84.1154667,73.4709721 84.4625778,73.908067 84.7581333,74.3791285 C85.5221333,75.5670615 85.9563556,76.9646034 85.9563556,78.4837095" id="Fill-33" fill="#700208" mask="url(#mask-2)"></path>
            <path d="M47.9229333,79.9266145 L32.7309333,79.9266145 L32.7309333,78.4816983 C32.7309333,74.2627039 36.1318222,70.8432626 40.3269333,70.8432626 C44.5220444,70.8432626 47.9229333,74.2627039 47.9229333,78.4816983 L47.9229333,79.9266145 Z" id="Fill-34" fill="#700208" mask="url(#mask-2)"></path>
            <path d="M119.6164,51.8662346 L119.6164,79.9337207 L57.1595111,79.9337207 L57.1595111,7.43405587 L77.4457333,7.43405587 C77.6021778,7.43405587 77.7235111,7.32947486 77.7759556,7.17215642 C79.0435111,2.91070391 81.1972889,0.937072626 82.7604,0.0463463687 C83.0732889,-0.128402235 83.4204,0.221094972 83.2297333,0.553162011 C82.1177333,2.4566257 82.1528444,5.98467039 82.2395111,7.4166257 C82.2395111,7.4867933 82.2568444,7.5390838 82.2915111,7.59182123 C82.9341778,8.51740782 86.7728444,13.4246704 98.4444,17.7911508 C98.8088444,17.9310391 98.7221778,18.4722682 98.3226222,18.4722682 L93.3204,18.4722682 L93.3204,30.7158436 L93.0599556,30.7158436 C93.2164,30.7158436 93.3555111,30.7681341 93.4595111,30.8901453 C94.3972889,31.8510391 99.8337333,36.8110391 116.038622,41.3522682 C116.681289,41.5265698 116.559511,42.4700335 115.899511,42.4700335 L109.490622,42.4700335 L109.490622,51.8662346 L111.366622,51.8662346 L111.366622,53.6128268 L115.499956,53.6128268 L115.499956,51.8662346 L119.6164,51.8662346 Z" id="Fill-35" fill="#000000" opacity="0.15942029" mask="url(#mask-2)"></path>
        </g>
    </g>
</svg>