<?xml version="1.0" encoding="UTF-8"?>
<svg width="120px" height="120px" viewBox="0 0 120 120" version="1.1" xmlns="http://www.w3.org/2000/svg" xmlns:xlink="http://www.w3.org/1999/xlink">
    <!-- Generator: Sketch 51.1 (57501) - http://www.bohemiancoding.com/sketch -->
    <title>Boat13</title>
    <desc>Created with Sketch.</desc>
    <defs></defs>
    <g id="Boat13" stroke="none" stroke-width="1" fill="none" fill-rule="evenodd">
        <g id="Group" transform="translate(0.000000, 16.000000)">
            <polygon id="Fill-163" fill="#183756" points="6.58281407 68.2086192 5.48110553 67.5196877 44.140402 5.8124 45.2421106 6.50193425"></polygon>
            <polygon id="Fill-164" fill="#183756" points="95.3249849 60.8639342 96.2687035 59.9712767 46.1864925 7.10376986 45.2421709 7.99703014"></polygon>
            <path d="M45.0727236,50.1099726 L44.3099095,50.1099726 C43.5603618,50.1099726 42.9519196,49.502411 42.9519196,48.7526027 L42.9519196,1.77747945 C42.9519196,1.02706849 43.5603618,0.420109589 44.3099095,0.420109589 L45.0727236,0.420109589 C45.8228744,0.420109589 46.4307136,1.02706849 46.4307136,1.77747945 L46.4307136,48.7526027 C46.4307136,49.502411 45.8228744,50.1099726 45.0727236,50.1099726" id="Fill-165" fill="#9B9B9B"></path>
            <path d="M100.536,79.0891562 C98.9567035,79.0891562 97.6758995,77.8095397 97.6758995,76.2309644 L97.6758995,32.2574849 C97.6758995,30.6789096 98.9567035,29.3992932 100.536,29.3992932 C102.115296,29.3992932 103.396101,30.6789096 103.396101,32.2574849 L103.396101,76.2309644 C103.396101,77.8095397 102.115296,79.0891562 100.536,79.0891562" id="Fill-166" fill="#9B9B9B"></path>
            <polygon id="Fill-167" fill="#C6C6C6" points="67.6080603 65.3868329 29.9087638 65.3868329 29.9087638 44.1468877 62.2701709 44.1468877"></polygon>
            <polygon id="Fill-168" fill="#9B9B9B" points="62.9759397 46.954389 62.2704121 44.1468274 29.909005 44.1468274 29.909005 46.954389"></polygon>
            <polygon id="Fill-169" fill="#828282" points="33.1049246 66.0982466 40.8777889 66.0982466 40.8777889 46.4748493 33.1049246 46.4748493"></polygon>
            <path d="M108.043055,87.8659507 L3.9361206,87.8659507 L0.10998995,68.3160877 L118.193608,50.9933479 C118.516824,50.9457315 118.780342,51.2489096 118.68808,51.5623342 L108.043055,87.8659507 Z" id="Fill-170" fill="#183756"></path>
            <path d="M21.8766633,81.4954137 C19.8161608,81.4954137 18.145809,79.8252219 18.145809,77.766263 C18.145809,75.7067014 19.8161608,74.0371123 21.8766633,74.0371123 C23.9365628,74.0371123 25.6075176,75.7067014 25.6075176,77.766263 C25.6075176,79.8252219 23.9365628,81.4954137 21.8766633,81.4954137 M21.8766633,71.6364 C18.4895276,71.6364 15.743397,74.3800712 15.743397,77.766263 C15.743397,81.1518521 18.4895276,83.896126 21.8766633,83.896126 C25.263196,83.896126 28.0093266,81.1518521 28.0093266,77.766263 C28.0093266,74.3800712 25.263196,71.6364 21.8766633,71.6364" id="Fill-171" fill="#0A2A44"></path>
            <path d="M53.2752362,77.7659616 C51.2153367,77.7659616 49.5443819,76.0963726 49.5443819,74.036811 C49.5443819,71.9772493 51.2153367,70.308263 53.2752362,70.308263 C55.3357387,70.308263 57.0060905,71.9772493 57.0060905,74.036811 C57.0060905,76.0963726 55.3357387,77.7659616 53.2752362,77.7659616 M53.2752362,67.9069479 C49.8887035,67.9069479 47.1425729,70.6512219 47.1425729,74.036811 C47.1425729,77.4230027 49.8887035,80.1672767 53.2752362,80.1672767 C56.6623719,80.1672767 59.4085025,77.4230027 59.4085025,74.036811 C59.4085025,70.6512219 56.6623719,67.9069479 53.2752362,67.9069479" id="Fill-172" fill="#0A2A44"></path>
            <path d="M86.0636382,73.077611 C84.0031357,73.077611 82.3327839,71.4080219 82.3327839,69.3484603 C82.3327839,67.2888986 84.0031357,65.6193096 86.0636382,65.6193096 C88.1241407,65.6193096 89.7944925,67.2888986 89.7944925,69.3484603 C89.7944925,71.4080219 88.1241407,73.077611 86.0636382,73.077611 M86.0636382,63.2185973 C82.6765025,63.2185973 79.9303719,65.9628712 79.9303719,69.3484603 C79.9303719,72.7346521 82.6765025,75.4783233 86.0636382,75.4783233 C89.4507739,75.4783233 92.1969045,72.7346521 92.1969045,69.3484603 C92.1969045,65.9628712 89.4507739,63.2185973 86.0636382,63.2185973" id="Fill-173" fill="#0A2A44"></path>
            <polygon id="Fill-174" fill="#0A2A44" points="2.64910553 81.2881918 3.93654271 87.8658904 108.042874 87.8658904 109.97192 81.2881918"></polygon>
            <path d="M118.194211,50.9934685 L0.10998995,68.3162082 L1.30456281,74.4201534 L116.961045,57.4530301 L118.68808,51.5618521 C118.780342,51.2490301 118.516824,50.9458521 118.194211,50.9934685" id="Fill-175" fill="#0A2A44"></path>
            <polygon id="Fill-176" fill="#9B9B9B" points="67.1951759 41.4564384 68.5658291 41.4564384 68.5658291 32.9523836 67.1951759 32.9523836"></polygon>
            <polygon id="Fill-177" fill="#9B9B9B" points="61.799397 41.4564384 63.1700503 41.4564384 63.1700503 32.9523836 61.799397 32.9523836"></polygon>
            <path d="M68.7033769,33.9837315 L50.8517186,33.9837315 C50.4736281,33.9837315 50.1660905,33.676937 50.1660905,33.2984164 C50.1660905,32.9198959 50.4736281,32.6137041 50.8517186,32.6137041 L68.7033769,32.6137041 C69.0820704,32.6137041 69.389005,32.9198959 69.389005,33.2984164 C69.389005,33.676937 69.0820704,33.9837315 68.7033769,33.9837315" id="Fill-178" fill="#9B9B9B"></path>
            <polygon id="Fill-179" fill="#9B9B9B" points="56.4036181 41.4564384 57.7742714 41.4564384 57.7742714 32.9523836 56.4036181 32.9523836"></polygon>
            <polygon id="Fill-180" fill="#9B9B9B" points="51.0072362 41.4564384 52.3778894 41.4564384 52.3778894 32.9523836 51.0072362 32.9523836"></polygon>
            <path d="M25.4529648,44.1467068 L71.9472362,44.1467068 C72.699799,44.1467068 73.3088442,43.5367342 73.3088442,42.7851178 L73.3088442,42.1642959 C73.3088442,41.4120767 72.699799,40.8027068 71.9472362,40.8027068 L25.4529648,40.8027068 C24.701005,40.8027068 24.0907538,41.4120767 24.0907538,42.1642959 L24.0907538,42.7851178 C24.0907538,43.5367342 24.701005,44.1467068 25.4529648,44.1467068" id="Fill-181" fill="#183756"></path>
            <polygon id="Fill-182" fill="#589BAE" points="44.5344724 54.2441644 52.3067337 54.2441644 52.3067337 46.4748493 44.5344724 46.4748493"></polygon>
            <polygon id="Fill-183" fill="#6EC0D3" points="44.5344724 51.4708384 44.5344724 53.164537 51.2267337 46.4753315 49.5316583 46.4753315"></polygon>
            <polygon id="Fill-184" fill="#6EC0D3" points="46.9165025 46.4752712 44.534593 46.4752712 44.534593 48.8560932"></polygon>
            <polygon id="Fill-185" fill="#6EC0D3" points="46.0696884 54.2444055 52.3066734 54.2444055 52.3066734 48.0096658"></polygon>
            <polygon id="Fill-186" fill="#589BAE" points="51.559598 54.2441644 52.3061307 54.2441644 52.3061307 46.4748493 51.559598 46.4748493"></polygon>
            <polygon id="Fill-187" fill="#589BAE" points="56.7478794 46.4752712 56.7478794 51.4701753 62.6495879 46.4752712"></polygon>
            <polygon id="Fill-188" fill="#589BAE" points="56.7478794 54.2438027 58.5605427 54.2438027 63.7121005 49.8841863 63.1699899 47.7281863 56.7478794 53.1642959"></polygon>
            <polygon id="Fill-189" fill="#6EC0D3" points="56.7478794 51.4702356 56.7478794 53.164537 63.1699899 47.7284274 62.8558191 46.4753315 62.6495879 46.4753315"></polygon>
            <polygon id="Fill-190" fill="#6EC0D3" points="64.8078995 54.2438027 63.7122211 49.8841863 58.5606633 54.2438027"></polygon>
            <path d="M21.8766633,79.6871945 C19.8161608,79.6871945 18.145809,78.0170027 18.145809,75.9580438 C18.145809,73.8984822 19.8161608,72.2288932 21.8766633,72.2288932 C23.9365628,72.2288932 25.6075176,73.8984822 25.6075176,75.9580438 C25.6075176,78.0170027 23.9365628,79.6871945 21.8766633,79.6871945 M21.8766633,69.8281808 C18.4895276,69.8281808 15.743397,72.5718521 15.743397,75.9580438 C15.743397,79.3436329 18.4895276,82.0879068 21.8766633,82.0879068 C25.263196,82.0879068 28.0093266,79.3436329 28.0093266,75.9580438 C28.0093266,72.5718521 25.263196,69.8281808 21.8766633,69.8281808" id="Fill-191" fill="#F04E24"></path>
            <path d="M53.2752362,75.9577425 C51.2153367,75.9577425 49.5443819,74.2881534 49.5443819,72.2285918 C49.5443819,70.1690301 51.2153367,68.5000438 53.2752362,68.5000438 C55.3357387,68.5000438 57.0060905,70.1690301 57.0060905,72.2285918 C57.0060905,74.2881534 55.3357387,75.9577425 53.2752362,75.9577425 M53.2752362,66.0987288 C49.8887035,66.0987288 47.1425729,68.8430027 47.1425729,72.2285918 C47.1425729,75.6147836 49.8887035,78.3590575 53.2752362,78.3590575 C56.6623719,78.3590575 59.4085025,75.6147836 59.4085025,72.2285918 C59.4085025,68.8430027 56.6623719,66.0987288 53.2752362,66.0987288" id="Fill-192" fill="#F04E24"></path>
            <path d="M86.0636382,71.2693918 C84.0031357,71.2693918 82.3327839,69.5998027 82.3327839,67.5402411 C82.3327839,65.4806795 84.0031357,63.8110904 86.0636382,63.8110904 C88.1241407,63.8110904 89.7944925,65.4806795 89.7944925,67.5402411 C89.7944925,69.5998027 88.1241407,71.2693918 86.0636382,71.2693918 M86.0636382,61.4103781 C82.6765025,61.4103781 79.9303719,64.1546521 79.9303719,67.5402411 C79.9303719,70.9264329 82.6765025,73.6701041 86.0636382,73.6701041 C89.4507739,73.6701041 92.1969045,70.9264329 92.1969045,67.5402411 C92.1969045,64.1546521 89.4507739,61.4103781 86.0636382,61.4103781" id="Fill-193" fill="#F04E24"></path>
            <path d="M21.8766633,73.6703452 C21.2935477,73.6703452 20.8213869,73.1984 20.8213869,72.6155507 L20.8213869,64.866126 C20.8213869,64.2838795 21.2935477,63.8113315 21.8766633,63.8113315 C22.4591759,63.8113315 22.9319397,64.2838795 22.9319397,64.866126 L22.9319397,72.6155507 C22.9319397,73.1984 22.4591759,73.6703452 21.8766633,73.6703452" id="Fill-194" fill="#9B9B9B"></path>
            <path d="M53.2752362,69.4270575 C52.6927236,69.4270575 52.2199598,68.9551123 52.2199598,68.372263 L52.2199598,60.6228384 C52.2199598,60.0405918 52.6927236,59.5680438 53.2752362,59.5680438 C53.8583518,59.5680438 54.3305126,60.0405918 54.3305126,60.6228384 L54.3305126,68.372263 C54.3305126,68.9551123 53.8583518,69.4270575 53.2752362,69.4270575" id="Fill-195" fill="#9B9B9B"></path>
            <path d="M86.0636382,64.4974301 C85.4805226,64.4974301 85.0083618,64.0254849 85.0083618,63.4426356 L85.0083618,55.693211 C85.0083618,55.1103616 85.4805226,54.6384164 86.0636382,54.6384164 C86.6467538,54.6384164 87.1189146,55.1103616 87.1189146,55.693211 L87.1189146,63.4426356 C87.1189146,64.0254849 86.6467538,64.4974301 86.0636382,64.4974301" id="Fill-196" fill="#9B9B9B"></path>
            <polygon id="Fill-197" fill="#0A2A44" points="93.6419698 56.2868493 96.9585528 48.0100274 119.722372 44.1464658 118.688201 51.5619726 103.742472 56.2868493"></polygon>
        </g>
    </g>
</svg>