<?xml version="1.0" encoding="UTF-8"?>
<svg width="120px" height="120px" viewBox="0 0 120 120" version="1.1" xmlns="http://www.w3.org/2000/svg" xmlns:xlink="http://www.w3.org/1999/xlink">
    <!-- Generator: Sketch 51.1 (57501) - http://www.bohemiancoding.com/sketch -->
    <title>Star3</title>
    <desc>Created with Sketch.</desc>
    <defs>
        <polygon id="path-1" points="0.0276034675 0.5316 117.800928 0.5316 117.800928 114 0.0276034675 114"></polygon>
    </defs>
    <g id="Star3" stroke="none" stroke-width="1" fill="none" fill-rule="evenodd">
        <g id="Page-1" transform="translate(1.000000, 0.000000)">
            <path d="M90.8429,115.4612 C90.4059,115.4612 89.9689,115.3562 89.5699,115.1462 L58.9149,98.9132 L28.2599,115.1462 C27.3459,115.6292 26.2339,115.5522 25.3969,114.9442 C24.5549,114.3372 23.0469,113.3062 23.2189,112.2842 L30.1649,77.8802 L5.3509,53.5162 C4.6129,52.7942 4.3509,46.2762 4.6699,45.2962 C4.9929,44.3132 5.8409,44.6872 6.8619,44.5362 L41.1409,43.8692 L56.4729,12.5792 C56.9299,11.6472 57.8769,11.0572 58.9149,11.0572 C59.9539,11.0572 60.8999,11.6472 61.3589,12.5792 L76.6869,43.8692 L110.9669,44.5362 C111.9899,44.6872 112.8379,44.3132 113.1579,45.2962 C113.4789,46.2762 113.2179,52.7942 112.4769,53.5182 L87.6619,77.8802 L94.5529,111.9462 C94.6299,112.1972 94.6699,112.4672 94.6699,112.7432 C94.6699,114.2422 92.3659,115.4612 90.8639,115.4612 L90.8429,115.4612 Z" id="Fill-1" fill="#C94B06"></path>
            <g id="Group-5" transform="translate(0.000000, 5.993000)">
                <mask id="mask-2" fill="white">
                    <use xlink:href="#path-1"></use>
                </mask>
                <g id="Clip-4"></g>
                <path d="M8.5196,44.2826 L8.5316,44.2946 C8.5276,44.2916 8.5236,44.2876 8.5196,44.2826 Z M109.3016,44.2916 C109.2966,44.2956 109.2916,44.3016 109.2876,44.3046 L109.3016,44.2916 Z M58.9156,88.3886 C59.6436,88.3886 60.3726,88.5646 61.0366,88.9166 L89.5366,104.0076 L83.2206,72.7856 C82.9156,71.2826 83.3936,69.7276 84.4876,68.6536 L108.5186,45.0606 C108.5956,44.5186 108.6616,43.7796 108.7056,43.0316 L76.5986,42.4066 C74.9016,42.3736 73.3646,41.3936 72.6176,39.8696 L58.9156,11.8996 L45.2096,39.8706 C44.4616,41.3946 42.9256,42.3736 41.2286,42.4066 L9.1236,43.0316 C9.1676,43.7796 9.2326,44.5186 9.3106,45.0596 L33.3396,68.6536 C34.4326,69.7276 34.9096,71.2816 34.6066,72.7836 L28.3026,104.0036 L56.7946,88.9166 C57.4576,88.5646 58.1866,88.3886 58.9156,88.3886 Z M91.6906,105.1486 L91.6996,105.1486 L91.6906,105.1486 Z M28.0456,105.2746 L28.0466,105.2746 L28.0456,105.2746 Z M90.8636,114.0006 L90.8426,114.0006 C89.6666,114.0006 88.4966,113.7106 87.4566,113.1616 L58.9156,98.0486 L30.3796,113.1576 C27.9486,114.4416 24.9506,114.2276 22.7356,112.6186 L22.6436,112.5536 C21.2906,111.5806 18.1166,109.3036 18.7496,105.5406 C18.7576,105.4916 18.7666,105.4426 18.7766,105.3946 L25.2366,73.3986 L2.1756,50.7566 C-0.6474,47.9946 -0.0064,39.0296 0.3596,37.9026 C0.8336,36.4636 2.1936,34.0746 6.0366,34.0566 C6.0686,34.0556 6.0976,34.0566 6.1306,34.0566 C6.1736,34.0566 6.2196,34.0556 6.2646,34.0536 C6.4556,34.0246 6.5826,34.0156 6.7736,34.0116 L38.2876,33.3996 L52.4026,4.5926 C53.6326,2.0866 56.1276,0.5316 58.9156,0.5316 C61.7006,0.5316 64.1946,2.0856 65.4236,4.5866 L79.5396,33.3996 L111.0556,34.0116 C111.2476,34.0156 111.4386,34.0326 111.6276,34.0596 C111.6446,34.0576 111.7016,34.0566 111.7936,34.0566 C115.6466,34.0746 117.0006,36.4716 117.4656,37.9006 C117.8336,39.0236 118.4826,47.9936 115.6436,50.7656 L92.5906,73.3976 L98.9606,104.8906 C99.1216,105.4946 99.2026,106.1186 99.2026,106.7516 C99.2026,111.0226 94.8076,114.0006 90.8636,114.0006 Z" id="Fill-3" fill="#7C4E24" mask="url(#mask-2)"></path>
            </g>
            <path d="M90.8429,108.9348 C90.4059,108.9348 89.9689,108.8318 89.5699,108.6208 L58.9149,92.3888 L28.2599,108.6208 C27.3459,109.1048 26.2339,109.0278 25.3969,108.4178 C24.5549,107.8128 24.1329,106.7798 24.3079,105.7598 L30.1649,71.3558 L5.3509,46.9918 C4.6129,46.2668 4.3509,45.1898 4.6699,44.2068 C4.9929,43.2268 5.8409,42.5118 6.8619,42.3618 L41.1409,37.3438 L56.4729,6.0548 C56.9299,5.1218 57.8769,4.5328 58.9149,4.5328 C59.9539,4.5328 60.8999,5.1218 61.3589,6.0548 L76.6869,37.3438 L110.9669,42.3618 C111.9899,42.5118 112.8379,43.2268 113.1579,44.2068 C113.4789,45.1898 113.2179,46.2668 112.4769,46.9918 L87.6619,71.3558 L93.4659,105.4218 C93.5419,105.6728 93.5809,105.9428 93.5809,106.2158 C93.5809,107.7178 92.3659,108.9348 90.8639,108.9348 L90.8429,108.9348 Z" id="Fill-6" fill="#C94B06"></path>
            <path d="M109.3018,43.758 C109.3008,43.759 109.2998,43.76 109.2988,43.762 L109.3018,43.758 Z M58.9148,87.857 C59.6438,87.857 60.3718,88.033 61.0358,88.384 L88.4388,102.894 L83.1958,72.116 C82.9468,70.654 83.4288,69.162 84.4878,68.122 L106.6968,46.317 L76.0308,41.828 C74.5518,41.612 73.2758,40.68 72.6168,39.337 L58.9148,11.368 L45.2098,39.338 C44.5518,40.68 43.2758,41.612 41.7968,41.828 L11.1308,46.317 L33.3398,68.122 C34.3988,69.162 34.8808,70.654 34.6318,72.116 L29.3928,102.893 L56.7948,88.384 C57.4578,88.033 58.1868,87.857 58.9148,87.857 Z M91.6908,104.615 L91.6988,104.615 L91.6908,104.615 Z M28.7758,106.516 L28.7748,106.521 C28.7758,106.52 28.7758,106.518 28.7758,106.516 Z M89.1328,106.748 C89.1328,106.749 89.1338,106.75 89.1338,106.752 C89.1338,106.75 89.1328,106.749 89.1328,106.748 Z M90.8638,113.467 L90.8428,113.467 C89.6628,113.467 88.4898,113.175 87.4488,112.625 L58.9148,97.517 L30.3798,112.625 C27.9528,113.909 24.9508,113.7 22.7298,112.082 C20.5178,110.49 19.3758,107.702 19.8418,104.993 L25.2998,72.93 L2.1758,50.225 C0.2008,48.283 -0.4952,45.443 0.3588,42.809 C1.2348,40.162 3.4698,38.282 6.1998,37.878 L38.1208,33.206 L52.4028,4.061 C53.6328,1.556 56.1278,0 58.9148,0 C61.6998,0 64.1948,1.554 65.4238,4.055 L79.7048,33.206 L111.6238,37.877 C114.3678,38.282 116.6048,40.168 117.4648,42.799 C118.3258,45.442 117.6298,48.288 115.6478,50.229 L92.5278,72.93 L97.8968,104.446 C98.0388,105.018 98.1128,105.612 98.1128,106.215 C98.1128,110.213 94.8608,113.467 90.8638,113.467 Z" id="Fill-8" fill="#7C4E24"></path>
            <path d="M90.8429,115.4612 C90.4059,115.4612 89.9689,115.3562 89.5699,115.1462 L58.9149,98.9132 L28.2599,115.1462 C27.3459,115.6292 26.2339,115.5522 25.3969,114.9442 C24.5549,114.3372 23.0469,113.3062 23.2189,112.2842 L30.1649,77.8802 L5.3509,53.5162 C4.6129,52.7942 4.3509,46.2762 4.6699,45.2962 C4.9929,44.3132 5.8409,44.6872 6.8619,44.5362 L41.1409,43.8692 L56.4729,12.5792 C56.9299,11.6472 57.8769,11.0572 58.9149,11.0572 C59.9539,11.0572 60.8999,11.6472 61.3589,12.5792 L76.6869,43.8692 L110.9669,44.5362 C111.9899,44.6872 112.8379,44.3132 113.1579,45.2962 C113.4789,46.2762 113.2179,52.7942 112.4769,53.5182 L87.6619,77.8802 L94.5529,111.9462 C94.6299,112.1972 94.6699,112.4672 94.6699,112.7432 C94.6699,114.2422 92.3659,115.4612 90.8639,115.4612 L90.8429,115.4612 Z" id="Fill-10" fill="#AF6311"></path>
            <path d="M90.8429,108.9348 C90.4059,108.9348 89.9689,108.8318 89.5699,108.6208 L58.9149,92.3888 L28.2599,108.6208 C27.3459,109.1048 26.2339,109.0278 25.3969,108.4178 C24.5549,107.8128 24.1329,106.7798 24.3079,105.7598 L30.1649,71.3558 L5.3509,46.9918 C4.6129,46.2668 4.3509,45.1898 4.6699,44.2068 C4.9929,43.2268 5.8409,42.5118 6.8619,42.3618 L41.1409,37.3438 L56.4729,6.0548 C56.9299,5.1218 57.8769,4.5328 58.9149,4.5328 C59.9539,4.5328 60.8999,5.1218 61.3589,6.0548 L76.6869,37.3438 L110.9669,42.3618 C111.9899,42.5118 112.8379,43.2268 113.1579,44.2068 C113.4789,45.1898 113.2179,46.2668 112.4769,46.9918 L87.6619,71.3558 L93.4659,105.4218 C93.5419,105.6728 93.5809,105.9428 93.5809,106.2158 C93.5809,107.7178 92.3659,108.9348 90.8639,108.9348 L90.8429,108.9348 Z" id="Fill-12" fill="#E2A836"></path>
            <path d="M56.5655,11.0481 C54.2175,14.7761 46.0695,30.6411 57.6185,26.2361 C68.1125,22.2401 61.7185,2.8601 56.5655,11.0481 C55.2515,13.1301 57.6625,9.3031 56.5655,11.0481" id="Fill-14" fill="#FFFFFF"></path>
            <path d="M48.4952,28.2971 C47.0242,29.2081 45.4942,31.3461 45.8402,33.0161 C46.0962,34.2741 46.7622,35.5601 47.9482,36.2341 C49.3462,37.0271 51.4452,36.8721 52.7552,35.9521 C54.6022,34.6581 55.0302,31.2961 53.4852,29.6351 C52.0502,28.0951 50.5122,27.7351 48.4952,28.2971" id="Fill-16" fill="#FFFFFF"></path>
            <path d="M28.2911,43.0862 C23.7981,41.8332 4.9571,42.4562 10.8931,49.0052 C19.1001,58.0622 34.6621,44.8622 28.2911,43.0862 C27.4281,42.8452 29.5311,43.4342 28.2911,43.0862" id="Fill-18" fill="#FFFFFF"></path>
            <path d="M113.1583,44.2072 C112.8383,43.2272 111.9903,42.5122 110.9673,42.3612 L83.6173,38.3582 C82.8173,64.3792 60.9013,85.8302 34.7163,85.8302 C32.3693,85.8302 30.0563,85.6472 27.7893,85.3132 L24.3073,105.7602 C24.1333,106.7792 24.5543,107.8122 25.3963,108.4182 C26.2333,109.0272 27.3453,109.1042 28.2603,108.6202 L58.9153,92.3892 L89.5693,108.6202 C89.9693,108.8322 90.4063,108.9352 90.8433,108.9352 L90.8603,108.9352 C92.3663,108.9352 93.5813,107.7182 93.5813,106.2162 C93.5813,105.9422 93.5423,105.6732 93.4663,105.4222 L87.6623,71.3552 L112.4763,46.9912 C113.2183,46.2672 113.4783,45.1892 113.1583,44.2072" id="Fill-20" fill="#AF6311"></path>
            <path d="M113.1583,44.2072 C112.8383,43.2272 111.9903,42.5122 110.9673,42.3612 L90.4133,39.3532 C90.4293,39.8892 90.4553,40.4292 90.4553,40.9662 C90.4553,69.1282 66.9543,92.6262 38.7963,92.6262 C34.6723,92.6262 30.6553,92.1092 26.7923,91.1602 L24.3073,105.7602 C24.1333,106.7792 24.5543,107.8122 25.3963,108.4182 C26.2333,109.0272 27.3453,109.1042 28.2603,108.6202 L58.9153,92.3892 L89.5693,108.6202 C89.9693,108.8322 90.4063,108.9352 90.8433,108.9352 L90.8603,108.9352 C92.3663,108.9352 93.5813,107.7182 93.5813,106.2162 C93.5813,105.9422 93.5423,105.6732 93.4663,105.4222 L87.6623,71.3552 L112.4763,46.9912 C113.2183,46.2672 113.4783,45.1892 113.1583,44.2072" id="Fill-22" fill="#AF6311"></path>
        </g>
    </g>
</svg>