<?xml version="1.0" encoding="UTF-8"?>
<svg width="120px" height="120px" viewBox="0 0 120 120" version="1.1" xmlns="http://www.w3.org/2000/svg" xmlns:xlink="http://www.w3.org/1999/xlink">
    <!-- Generator: Sketch 48.2 (47327) - http://www.bohemiancoding.com/sketch -->
    <title>Tree7</title>
    <desc>Created with Sketch.</desc>
    <defs></defs>
    <g id="ALL" stroke="none" stroke-width="1" fill="none" fill-rule="evenodd">
        <g id="Tree7">
            <g id="Group-157" transform="translate(26.000000, 0.000000)">
                <path d="M41.0096296,54.6014815 C40.6496296,62.0474074 46.3948148,68.3762963 53.8414815,68.7355556 C61.2874074,69.0948148 67.6155556,63.3496296 67.9762963,55.9037037 C68.3348148,48.4562963 62.5896296,42.1281481 55.142963,41.7688889 C47.697037,41.4088889 41.3688889,47.1540741 41.0096296,54.6014815" id="Fill-23" fill="#94A948"></path>
                <path d="M0.534074074,61.2814815 C0.174814815,68.7288889 5.92,75.0562963 13.3666667,75.417037 C20.8133333,75.7762963 27.1414815,70.0303704 27.5014815,62.5837037 C27.86,55.1377778 22.1148148,48.8096296 14.6688889,48.4496296 C7.22222222,48.0903704 0.894074074,53.8355556 0.534074074,61.2814815" id="Fill-24" fill="#94A948"></path>
                <path d="M8.22888889,26.3340741 C7.50888889,41.2777778 19.0362963,53.9755556 33.98,54.6977778 C48.9222222,55.4192593 61.6214815,43.8911111 62.3437037,28.9474074 C63.0644444,14.0037037 51.5362963,1.30592593 36.5925926,0.584444444 C21.6496296,-0.137037037 8.95111111,11.3911111 8.22888889,26.3340741" id="Fill-25" fill="#AAC354"></path>
                <path d="M38.6807407,112.935556 C38.6807407,112.935556 38.6948148,112.843704 38.7222222,112.666667 C38.7503704,112.488148 38.7933333,112.223704 38.8340741,111.883704 C38.9281481,111.198519 39.0288889,110.203704 39.1074074,108.94963 C39.1822222,107.695556 39.2274074,106.184444 39.2214815,104.465926 C39.2185185,102.754074 39.1533333,100.812593 39.08,98.7740741 C39.0740741,98.5348148 39.0666667,98.2933333 39.0607407,98.0503704 C39.057037,97.8222222 39.0711111,97.5340741 39.0755556,97.2740741 C39.0888889,96.7414815 39.102963,96.197037 39.1177778,95.6444444 C39.1451852,94.5377778 39.1740741,93.3948148 39.202963,92.2192593 C39.2622222,89.8503704 39.3244444,87.3511111 39.3896296,84.7659259 C39.4185185,83.4711111 39.4155556,82.1451852 39.4288889,80.8074074 C39.4325926,80.1392593 39.437037,79.4651852 39.4414815,78.7888889 C39.44,78.1103704 39.4644444,77.437037 39.437037,76.7444444 C39.4037037,75.3688889 39.3674074,73.9807407 39.3333333,72.5874074 C39.3155556,71.8911111 39.297037,71.1933333 39.2777778,70.4955556 C39.2474074,69.7977778 39.1577778,69.0977778 39.1,68.3992593 C38.8385185,65.6088889 38.5303704,62.88 38.2192593,60.1755556 C37.9081481,57.4837037 37.6014815,54.8333333 37.3044444,52.2688889 C36.7422222,47.1496296 36.2918519,42.3785185 36.1125926,38.2807407 C35.922963,34.182963 35.9592593,30.7681481 36.042963,28.3777778 C36.1081481,27.1844444 36.16,26.2474074 36.1948148,25.6074074 C36.2081481,25.2881481 36.2414815,25.0444444 36.2525926,24.8792593 C36.2688889,24.7140741 36.2762963,24.6296296 36.2762963,24.6296296 C36.4022222,23.2474074 36.1614815,22.1903704 35.7392593,22.2733333 C35.3703704,22.3481481 34.982963,23.2851852 34.8044444,24.4644444 C34.8044444,24.4644444 34.7918519,24.5503704 34.7674074,24.717037 C34.7451852,24.8844444 34.6962963,25.1303704 34.662963,25.4540741 C34.5874074,26.1022222 34.4792593,27.0525926 34.34,28.2607407 C34.1318519,30.6851852 33.8733333,34.16 33.8859259,38.3303704 C33.8859259,42.5 34.0859259,47.357037 34.46,52.5288889 C34.6451852,55.1125926 34.8585185,57.7807407 35.0725926,60.4814815 C35.2866667,63.1777778 35.5007407,65.9355556 35.6637037,68.6414815 C35.697037,69.317037 35.7637037,69.9888889 35.7711111,70.6666667 C35.7681481,71.3451852 35.7637037,72.0222222 35.7592593,72.7 C35.7525926,74.0518519 35.7451852,75.3977778 35.7377778,76.7333333 C35.7466667,77.3977778 35.7014815,78.0740741 35.6844444,78.7407407 C35.6614815,79.4081481 35.6377778,80.0725926 35.6133333,80.7318519 C35.5644444,82.0533333 35.5325926,83.3540741 35.4718519,84.6414815 C35.3488889,87.22 35.2303704,89.7140741 35.1185185,92.0777778 C35.0622222,93.2688889 35.0088889,94.4274074 34.9577778,95.5481481 C34.9318519,96.1088889 34.9059259,96.66 34.8814815,97.2014815 C34.8755556,97.3355556 34.8681481,97.4711111 34.8622222,97.6051852 C34.8585185,97.742963 34.8466667,97.8607407 34.8481481,98.0214815 C34.8496296,98.3051852 34.8511111,98.5859259 34.8525926,98.8644444 C34.8844444,100.958519 34.9192593,102.805185 34.9,104.452593 C34.8844444,106.094074 34.8281481,107.511852 34.7392593,108.662963 C34.6585185,109.814074 34.5585185,110.704444 34.4733333,111.299259 C34.4340741,111.6 34.3955556,111.823704 34.3703704,111.975556 C34.3459259,112.128148 34.3333333,112.206667 34.3333333,112.206667 C34.1711111,113.151111 34.0251852,114.026667 33.882963,114.784444 C33.7414815,115.543704 33.6051852,116.177778 33.4822222,116.68 L33.4407407,116.873333 L33.3925926,117.038519 C33.3622222,117.14963 33.3392593,117.273333 33.3074074,117.362963 C33.277037,117.471111 33.2496296,117.571852 33.2237037,117.666667 C33.1903704,117.754074 33.1614815,117.845185 33.1333333,117.939259 L33.0933333,118.080741 L33.0496296,118.203704 C33.0237037,118.287407 32.9992593,118.371111 32.9814815,118.454815 C32.9459259,118.622222 32.9311111,118.785185 32.9659259,118.934815 C33.0281481,119.227407 33.3044444,119.459259 33.8614815,119.499259 C34.4022222,119.522222 35.1881481,119.256296 35.8925926,118.665926 C36.6,118.084444 37.2066667,117.242222 37.6637037,116.292593 C38.1222222,115.339259 38.4444444,114.271852 38.6444444,113.157778 L38.6807407,112.935556" id="Fill-26" fill="#90553E"></path>
                <path d="M37.4318519,51.2911111 C37.4318519,51.2911111 37.4911111,50.9237037 37.5940741,50.2807407 C37.64,49.9585185 37.7414815,49.5718519 37.8325926,49.1244444 C37.8837037,48.9022222 37.9281481,48.6637037 37.9888889,48.4140741 C38.0555556,48.1651852 38.1237037,47.9037037 38.1955556,47.6303704 C38.2696296,47.3577778 38.3377778,47.0711111 38.4244444,46.777037 C38.5140741,46.4844444 38.6066667,46.1814815 38.7037037,45.8696296 C38.8814815,45.2437037 39.1259259,44.5948148 39.3488889,43.9155556 C39.8266667,42.562963 40.3703704,41.1251852 40.9392593,39.6844444 C41.5,38.2437037 42.0748148,36.7948148 42.5851852,35.4244444 C43.0933333,34.0511111 43.537037,32.7548148 43.8785185,31.6266667 C44.2377778,30.5066667 44.4474074,29.542963 44.6222222,28.88 C44.757037,28.2051852 44.8333333,27.82 44.8333333,27.82 C44.9118519,27.4266667 44.8044444,27.1059259 44.5948148,27.1007407 C44.4111111,27.0962963 44.2118519,27.3288889 44.1148148,27.6422222 C44.1148148,27.6422222 44,28.0096296 43.8007407,28.6496296 C43.5703704,29.282963 43.2622222,30.1896296 42.8266667,31.2577778 C42.4103704,32.3311111 41.8548148,33.5607407 41.2644444,34.8792593 C40.6540741,36.1985185 40.002963,37.6051852 39.3533333,39.0111111 C38.7007407,40.4237037 38.0688889,41.857037 37.5155556,43.2259259 C37.2466667,43.9155556 36.9792593,44.577037 36.7637037,45.2251852 C36.6511111,45.5466667 36.5422222,45.86 36.4362963,46.1622222 C36.3340741,46.4674074 36.2511111,46.7681481 36.162963,47.0540741 C36.0762963,47.3407407 35.9940741,47.6155556 35.917037,47.877037 C35.8437037,48.14 35.7881481,48.3955556 35.7288889,48.6325926 C35.6192593,49.1096296 35.5066667,49.5207407 35.4444444,49.8681481 C35.322963,50.5637037 35.2533333,50.9622222 35.2533333,50.9622222 C35.2274074,51.1125926 35.2096296,51.2607407 35.1985185,51.4044444 C35.1955556,51.5511111 35.2037037,51.6933333 35.217037,51.8296296 C35.2444444,52.1014815 35.2992593,52.3488889 35.3777778,52.5577778 C35.5340741,52.9777778 35.782963,53.2422222 36.0851852,53.2688889 C36.3888889,53.2948148 36.6881481,53.0844444 36.9259259,52.737037 C37.0444444,52.5622222 37.1466667,52.3540741 37.2296296,52.1192593 C37.2696296,52.0014815 37.302963,51.8777778 37.3318519,51.7488889 C37.3651852,51.62 37.4,51.4859259 37.422963,51.3466667 L37.4318519,51.2911111" id="Fill-27" fill="#90553E"></path>
                <path d="M35.702963,41.7674074 C35.702963,41.7674074 35.6948148,41.6962963 35.6755556,41.5637037 C35.6555556,41.4325926 35.6377778,41.2340741 35.5755556,41.0014815 C35.5192593,40.7644444 35.4496296,40.4785185 35.3703704,40.1488889 C35.2674074,39.8333333 35.1518519,39.4785185 35.0244444,39.0903704 C34.88,38.7148148 34.7162963,38.3125926 34.54,37.8888889 C34.3459259,37.48 34.1607407,37.0340741 33.9325926,36.6 C33.4881481,35.7222222 32.9814815,34.8133333 32.4511111,33.9296296 C31.92,33.042963 31.3733333,32.177037 30.8518519,31.3725926 C30.3325926,30.5718519 29.8481481,29.8244444 29.4311111,29.1837037 C29.0251852,28.542963 28.6851852,28.0074074 28.4474074,27.6333333 C28.2192593,27.2548148 28.0888889,27.0392593 28.0888889,27.0392593 C27.957037,26.8192593 27.7096296,26.7288889 27.5362963,26.8392593 C27.3844444,26.9355556 27.3422222,27.157037 27.4244444,27.3637037 C27.4244444,27.3637037 27.52,27.6037037 27.6896296,28.0237037 C27.8718519,28.4355556 28.1207407,29.0325926 28.4592593,29.7244444 C28.7918519,30.4192593 29.1814815,31.2266667 29.6125926,32.08 C30.0377778,32.9355556 30.4992593,33.84 30.9348148,34.7481481 C31.377037,35.6540741 31.7911111,36.5644444 32.1511111,37.4207407 C32.3348148,37.8481481 32.4866667,38.2637037 32.6444444,38.6555556 C32.7822222,39.0496296 32.9096296,39.422963 33.0207407,39.7666667 C33.1162963,40.1088889 33.2044444,40.4244444 33.282963,40.7037037 C33.3392593,40.9807407 33.3881481,41.2222222 33.4274074,41.4214815 C33.4792593,41.6207407 33.4837037,41.7725926 33.4985185,41.8777778 C33.5096296,41.982963 33.5155556,42.0385185 33.5155556,42.0385185 C33.5318519,42.2066667 33.5911111,42.3659259 33.6518519,42.5088889 C33.7051852,42.6488889 33.7859259,42.7785185 33.8859259,42.8925926 C34.0844444,43.1192593 34.3607407,43.2896296 34.6644444,43.3148148 C34.9666667,43.3392593 35.242963,43.1992593 35.4444444,42.9222222 C35.5437037,42.7851852 35.6251852,42.6140741 35.68,42.4222222 C35.7362963,42.2274074 35.7288889,42.0259259 35.7088889,41.8096296 L35.702963,41.7674074" id="Fill-28" fill="#90553E"></path>
                <path d="M37.1555556,79.8607407 C37.1555556,79.8607407 36.8288889,79.3807407 36.2051852,78.6548148 C35.5785185,77.9259259 34.657037,76.9459259 33.497037,75.8503704 C32.917037,75.3022222 32.2814815,74.7207407 31.6014815,74.117037 C30.922963,73.5140741 30.2022222,72.8851852 29.4459259,72.2488889 C27.937037,70.9733333 26.3022222,69.6525926 24.6540741,68.3503704 C23.0051852,67.0511111 21.3451852,65.7688889 19.78,64.5807407 C18.2148148,63.397037 16.7518519,62.2925926 15.4977778,61.3451852 C14.2488889,60.3962963 13.2044444,59.6125926 12.4881481,59.0481481 C11.7711111,58.4881481 11.3785185,58.1548148 11.3785185,58.1548148 C10.9748148,57.8222222 10.6007407,57.6762963 10.4814815,57.8488889 C10.3792593,58.002963 10.5511111,58.382963 10.88,58.7007407 C10.88,58.7007407 11.257037,59.0777778 11.9385185,59.7 C12.622963,60.3177778 13.6022222,61.1918519 14.7992593,62.2118519 C15.9955556,63.2311111 17.3918519,64.4207407 18.8859259,65.6940741 C20.3777778,66.9659259 21.9674074,68.3222222 23.5577778,69.6792593 C25.14,71.0422222 26.7103704,72.417037 28.157037,73.7244444 C28.8785185,74.3807407 29.5748148,75.0148148 30.222963,75.6251852 C30.8725926,76.2355556 31.4755556,76.8192593 32.0214815,77.3651852 C33.1148148,78.4577778 33.9785185,79.3940741 34.5325926,80.0674074 C35.0955556,80.7362963 35.3533333,81.1288889 35.3533333,81.1288889 C35.7696296,81.7162963 36.1355556,82.1866667 36.3659259,82.4311111 C36.477037,82.5496296 36.5925926,82.6288889 36.6814815,82.7422222 C36.7711111,82.8674074 36.822963,83.022963 36.9414815,83.1214815 C37.0555556,83.2185185 37.2207407,83.2548148 37.4422222,83.1459259 C37.6562963,83.0192593 37.8703704,82.6785185 37.9192593,82.277037 C37.9718519,81.8888889 37.9111111,81.4711111 37.7822222,81.0718519 C37.6533333,80.6696296 37.4511111,80.2955556 37.2066667,79.9311111 L37.1555556,79.8607407" id="Fill-29" fill="#90553E"></path>
                <path d="M40.0074074,72.1822222 C40.0074074,72.1822222 40.2659259,71.9325926 40.7177778,71.4962963 C40.9333333,71.2696296 41.2355556,71.0266667 41.5607407,70.7296296 C41.7259259,70.582963 41.9007407,70.4266667 42.0859259,70.2622222 C42.277037,70.102963 42.4785185,69.9348148 42.6881481,69.7592593 C42.8977778,69.5837037 43.1177778,69.3992593 43.3437037,69.2103704 C43.5762963,69.0244444 43.8148148,68.8333333 44.0637037,68.6355556 C44.5614815,68.2414815 45.0881481,67.8266667 45.6325926,67.397037 C46.7274074,66.5318519 47.9111111,65.6103704 49.0525926,64.6133333 C49.6325926,64.1274074 50.1807407,63.5955556 50.7274074,63.0844444 C50.9985185,62.8274074 51.2503704,62.5466667 51.5074074,62.2837037 C51.7607407,62.0162963 52.0185185,61.7607407 52.2437037,61.477037 C52.4740741,61.2022222 52.7007407,60.9318519 52.9222222,60.6659259 C53.1511111,60.4074074 53.3288889,60.1140741 53.5259259,59.8503704 C53.717037,59.5814815 53.9044444,59.322963 54.0785185,59.0666667 C54.2362963,58.8 54.3896296,58.5414815 54.537037,58.2948148 C54.682963,58.0474074 54.8251852,57.8133333 54.9540741,57.5851852 C55.0651852,57.3488889 55.1703704,57.1244444 55.2703704,56.9133333 C55.46,56.4888889 55.6525926,56.1311111 55.7637037,55.8177778 C55.9866667,55.1903704 56.1140741,54.8311111 56.1140741,54.8311111 C56.242963,54.4659259 56.1792593,54.1466667 55.9711111,54.1133333 C55.7896296,54.0844444 55.562963,54.2748148 55.4266667,54.5562963 C55.4266667,54.5562963 55.2674074,54.8851852 54.9881481,55.4585185 C54.857037,55.7488889 54.6340741,56.0696296 54.4140741,56.4518519 C54.3,56.6422222 54.18,56.842963 54.0540741,57.0555556 C53.9088889,57.2585185 53.7585185,57.4696296 53.6007407,57.6911111 C53.442963,57.9118519 53.28,58.1407407 53.1103704,58.3792593 C52.9251852,58.6051852 52.7259259,58.8333333 52.5259259,59.0696296 C52.3192593,59.3022222 52.1325926,59.5592593 51.897037,59.7866667 C51.6696296,60.02 51.4362963,60.2592593 51.1992593,60.5014815 C50.9711111,60.7503704 50.7074074,60.9748148 50.4496296,61.2111111 C50.1881481,61.4437037 49.9362963,61.6896296 49.66,61.9185185 C49.1059259,62.3725926 48.5548148,62.8437037 47.962963,63.2792593 C46.8081481,64.1733333 45.5933333,65.0155556 44.4592593,65.8274074 C43.8874074,66.2325926 43.3407407,66.6266667 42.82,67.0133333 C42.5592593,67.2051852 42.3059259,67.3918519 42.0614815,67.5725926 C41.8185185,67.76 41.5844444,67.9414815 41.36,68.1148148 C41.1355556,68.2896296 40.92,68.457037 40.7162963,68.617037 C40.5162963,68.7851852 40.3266667,68.9451852 40.1488889,69.0948148 C39.7962963,69.4007407 39.4777778,69.6488889 39.2348148,69.8851852 C38.7444444,70.3459259 38.4637037,70.6096296 38.4637037,70.6096296 C38.3577778,70.7103704 38.2562963,70.8118519 38.1696296,70.9185185 C38.0844444,71.0303704 38.0081481,71.1422222 37.94,71.2540741 C37.8051852,71.4777778 37.7051852,71.7 37.6459259,71.9066667 C37.5288889,72.3222222 37.5725926,72.677037 37.7962963,72.882963 C38.0192593,73.0881481 38.3785185,73.1103704 38.7688889,72.9888889 C38.9644444,72.9274074 39.1681481,72.8303704 39.3688889,72.7 C39.5688889,72.5681481 39.7659259,72.4014815 39.9681481,72.22 L40.0074074,72.1822222" id="Fill-30" fill="#90553E"></path>
                <path d="M27.5533333,71.8844444 C27.5533333,71.8844444 27.2725926,71.6911111 26.7807407,71.3540741 C26.2718519,71.0474074 25.557037,70.5822222 24.6540741,70.117037 C24.2118519,69.8688889 23.7155556,69.6340741 23.1948148,69.3792593 C22.6748148,69.1177778 22.1140741,68.882963 21.5392593,68.6222222 C20.3822222,68.1244444 19.1362963,67.6251852 17.8837037,67.1562963 C16.6318519,66.682963 15.3777778,66.2311111 14.2044444,65.802963 C13.0325926,65.3696296 11.9385185,64.9711111 11.0125926,64.6014815 C10.0837037,64.2385185 9.32148148,63.9111111 8.78592593,63.6837037 C8.25777778,63.442963 7.95703704,63.3044444 7.95703704,63.3044444 C7.65037037,63.1637037 7.38740741,63.1355556 7.37111111,63.2414815 C7.35703704,63.3340741 7.53777778,63.5 7.79111111,63.6355556 C7.79111111,63.6355556 8.08592593,63.7933333 8.6037037,64.0696296 C9.13037037,64.3266667 9.87851852,64.7066667 10.797037,65.1140741 C11.7118519,65.5281481 12.7881481,65.9896296 13.9451852,66.4674074 C15.1014815,66.942963 16.3340741,67.4511111 17.5666667,67.957037 C18.7962963,68.4644444 20.0118519,68.9962963 21.137037,69.5155556 C21.6925926,69.7896296 22.2437037,70.0281481 22.7414815,70.2962963 C23.2451852,70.5555556 23.7237037,70.7955556 24.1481481,71.0451852 C25.0148148,71.5162963 25.697037,71.9674074 26.1822222,72.2696296 C26.6496296,72.5962963 26.9155556,72.782963 26.9155556,72.782963 C27.3296296,73.0548148 27.7007407,73.302963 28.0237037,73.4259259 C28.3451852,73.5533333 28.5962963,73.5785185 28.7022222,73.4674074 C28.8066667,73.3555556 28.74,73.1266667 28.5414815,72.8407407 C28.442963,72.6985185 28.3118519,72.5422222 28.1540741,72.3814815 C28.0755556,72.3007407 27.9918519,72.217037 27.8992593,72.1385185 C27.8037037,72.062963 27.7022222,71.9881481 27.597037,71.9140741 L27.5533333,71.8844444" id="Fill-31" fill="#90553E"></path>
                <path d="M22.5725926,66.7288889 C22.5725926,66.7288889 22.4592593,66.5451852 22.262963,66.2244444 C22.0762963,65.8977778 21.84,65.4111111 21.5362963,64.8385185 C21.4644444,64.6940741 21.3785185,64.5481481 21.3066667,64.3888889 C21.237037,64.2281481 21.1644444,64.0622222 21.0911111,63.8918519 C20.9414815,63.5511111 20.7844444,63.1918519 20.6207407,62.8192593 C20.462963,62.4437037 20.3311111,62.042963 20.1777778,61.6437037 C20.0318519,61.2414815 19.8696296,60.837037 19.7525926,60.417037 C19.6237037,60.0007407 19.4948148,59.5837037 19.3674074,59.1740741 C19.2422222,58.7637037 19.1518519,58.3488889 19.0437037,57.9540741 C18.8251852,57.162963 18.6733333,56.4118519 18.537037,55.7688889 C18.3896296,55.1266667 18.3074074,54.5844444 18.2377778,54.2066667 C18.1696296,53.8281481 18.1311111,53.6118519 18.1311111,53.6118519 C18.0918519,53.3911111 17.98,53.24 17.8807407,53.2740741 C17.7948148,53.302963 17.7474074,53.4666667 17.762963,53.6555556 C17.762963,53.6555556 17.7822222,53.8755556 17.8155556,54.2622222 C17.8548148,54.6474074 17.8837037,55.202963 17.9874074,55.8607407 C18.08,56.52 18.1725926,57.2933333 18.3481481,58.1088889 C18.4303704,58.5177778 18.497037,58.9451852 18.6022222,59.3703704 C18.7096296,59.797037 18.8177778,60.2296296 18.9266667,60.6622222 C19.0266667,61.097037 19.1711111,61.5207407 19.302963,61.94 C19.44,62.3585185 19.5585185,62.7762963 19.7051852,63.1696296 C19.8614815,63.5607407 20.0103704,63.9377778 20.1518519,64.297037 C20.222963,64.4755556 20.2925926,64.6496296 20.3585185,64.8192593 C20.4296296,64.9866667 20.5118519,65.1414815 20.582963,65.2940741 C20.8785185,65.9014815 21.12,66.4103704 21.3066667,66.7577778 C21.5074074,67.0962963 21.6244444,67.2903704 21.6244444,67.2903704 C21.9762963,67.88 22.4711111,68.2251852 22.7288889,68.0622222 C22.9844444,67.8992593 22.9222222,67.3133333 22.5896296,66.7562963 L22.5725926,66.7288889" id="Fill-32" fill="#90553E"></path>
                <path d="M47.737037,65.66 C47.737037,65.66 47.9177778,65.4762963 48.1711111,65.1237037 C48.42,64.7696296 48.7414815,64.2496296 49.0362963,63.5985185 C49.1851852,63.2740741 49.3333333,62.9177778 49.4703704,62.5392593 C49.6111111,62.16 49.7451852,61.7577778 49.8666667,61.3377778 C50.1140741,60.4992593 50.3296296,59.597037 50.5066667,58.6903704 C50.682963,57.7837037 50.8259259,56.8733333 50.9377778,56.0185185 C51.0503704,55.1637037 51.1266667,54.3637037 51.1866667,53.6777778 C51.2474074,52.9918519 51.2762963,52.4192593 51.2992593,52.0192593 C51.3162963,51.6177778 51.3266667,51.3888889 51.3266667,51.3888889 C51.337037,51.1555556 51.2585185,50.9785185 51.1548148,50.9955556 C51.0637037,51.0088889 50.9822222,51.1644444 50.9577778,51.3577778 C50.9577778,51.3577778 50.9288889,51.5837037 50.8755556,51.9785185 C50.8214815,52.3733333 50.7377778,52.937037 50.6333333,53.6111111 C50.5296296,54.2851852 50.3918519,55.0696296 50.2325926,55.9051852 C50.0711111,56.7407407 49.882963,57.6274074 49.6659259,58.5037037 C49.4503704,59.3814815 49.2014815,60.2474074 48.9325926,61.0414815 C48.7977778,61.4385185 48.6614815,61.8192593 48.517037,62.1718519 C48.3755556,62.5244444 48.2274074,62.8518519 48.082963,63.1444444 C47.7925926,63.7333333 47.5044444,64.1844444 47.2874074,64.4777778 C47.0688889,64.7725926 46.9274074,64.9125926 46.9274074,64.9125926 C46.8274074,65.0333333 46.7259259,65.1274074 46.6496296,65.2422222 C46.5681481,65.3466667 46.4962963,65.4437037 46.4437037,65.5474074 C46.3296296,65.7296296 46.2733333,65.9207407 46.3355556,66.0607407 C46.3977778,66.1985185 46.582963,66.2533333 46.8577778,66.2088889 C46.9866667,66.177037 47.1340741,66.1185185 47.2859259,66.0348148 C47.4244444,65.9414815 47.5851852,65.8318519 47.7111111,65.6888889 L47.737037,65.66" id="Fill-33" fill="#90553E"></path>
                <path d="M29.6844444,108.957037 C35.5081481,108.957037 40.2288889,113.677778 40.2288889,119.500741 L19.1422222,119.500741 C19.1422222,113.677778 23.8614815,108.957037 29.6844444,108.957037" id="Fill-34" fill="#94A948"></path>
                <path d="M19.1422222,112.122963 C23.2162963,112.122963 26.5192593,115.426667 26.5192593,119.500741 L11.7637037,119.500741 C11.7637037,115.426667 15.0666667,112.122963 19.1422222,112.122963" id="Fill-35" fill="#AAC354"></path>
                <path d="M47.5577778,115.717037 C49.6481481,115.717037 51.342963,117.411111 51.342963,119.500741 L43.7748148,119.500741 C43.7748148,117.411111 45.4688889,115.717037 47.5577778,115.717037" id="Fill-36" fill="#AAC354"></path>
            </g>
        </g>
    </g>
</svg>