<?xml version="1.0" encoding="UTF-8"?>
<svg width="120px" height="120px" viewBox="0 0 120 120" version="1.1" xmlns="http://www.w3.org/2000/svg" xmlns:xlink="http://www.w3.org/1999/xlink">
    <!-- Generator: Sketch 51.1 (57501) - http://www.bohemiancoding.com/sketch -->
    <title>Car82</title>
    <desc>Created with Sketch.</desc>
    <defs></defs>
    <g id="Car82" stroke="none" stroke-width="1" fill="none" fill-rule="evenodd">
        <g id="Group-6" transform="translate(60.000000, 60.000000) scale(-1, 1) translate(-60.000000, -60.000000) translate(6.000000, 27.000000)">
            <path d="M32.8237291,53.945134 L3.16884304,53.945134 C0.138691139,53.945134 0.571374684,49.7918969 0.571374684,47.9670309 C0.571374684,46.2911753 3.12783038,32.7053814 18.2997797,27.995567 C20.8938304,27.1906392 23.0353747,25.3474021 24.1741595,22.890433 C26.8228937,17.1770103 33.5346152,6.99259794 48.8419063,2.61686598 C70.7043873,-3.63136082 90.6187671,3.32653608 96.4630709,8.0356701 C102.307375,12.7441237 107.286311,42.220268 107.718995,47.5206804 C108.151678,52.8217732 100.359273,53.945134 97.9778051,53.945134 L32.8237291,53.945134 Z" id="Fill-177" fill="#9A8479"></path>
            <path d="M0.571648101,47.9669629 C0.571648101,49.7918289 0.138281013,53.945066 3.16911646,53.945066 L32.8240025,53.945066 L97.9780785,53.945066 C100.358863,53.945066 108.151952,52.8217052 107.719268,47.5206124 C107.698762,47.2702206 107.664585,46.9497464 107.624256,46.5966124 L0.755521519,46.5966124 C0.624964557,47.2491278 0.571648101,47.7301794 0.571648101,47.9669629" id="Fill-178" fill="#BBBDBF"></path>
            <path d="M0.557020253,48.8387072 C0.518058228,50.859532 0.555653165,53.9452021 3.16884304,53.9452021 L32.8237291,53.9452021 L97.9778051,53.9452021 C100.147375,53.9452021 106.804413,53.0116763 107.645856,48.8387072 L0.557020253,48.8387072 Z" id="Fill-179" fill="#D0D2D3"></path>
            <path d="M6.84843038,41.2099918 C11.3946835,41.2099918 18.7537215,32.3761979 16.1562532,32.3761979 L9.75349367,32.3761979 C6.21820253,35.1121361 3.98848101,38.3665485 2.61592405,41.2099918 L6.84843038,41.2099918 Z" id="Fill-180" fill="#F6921E"></path>
            <path d="M64.6432633,3.61054021 C53.1713392,3.61054021 43.6468329,7.92027216 36.5037949,14.1691794 C29.360757,20.4167258 24.1651367,27.3630557 35.2050608,27.3630557 L82.1761747,27.3630557 C87.3717949,27.3630557 90.6186304,23.6493649 91.0519975,18.0468495 C91.484681,12.444334 88.8872127,10.2901485 88.8872127,10.2901485 C88.8872127,10.2901485 82.1761747,3.61054021 64.6432633,3.61054021" id="Fill-181" fill="#58595B"></path>
            <path d="M38.6472532,16.5962103 C37.5870759,17.5236124 36.7012025,18.3530351 35.9561392,19.0960454 C35.7503924,19.3015299 35.6382911,19.5798186 35.6382911,19.8703546 L34.6642405,23.0281485 C34.6642405,23.6377979 35.1598101,24.1317773 35.7722658,24.1317773 L57.1084177,24.1317773 C57.7974304,24.1317773 58.4044177,23.6820247 58.601962,23.0254268 L63.1871772,7.81412784 C63.3259367,7.35416907 62.9650253,6.88876701 62.4838101,6.91394227 C51.3577595,7.49025155 43.4272785,12.4143959 38.6472532,16.5962103" id="Fill-182" fill="#53C9F4"></path>
            <path d="M86.7563316,12.739633 L86.6196228,12.6035505 C86.5622051,12.5497979 81.0159266,7.46643711 67.1837241,6.89829278 C66.9157747,6.88672577 66.6683316,7.06091134 66.5924582,7.31674639 L61.8090152,23.3840041 C61.6975975,23.7568701 61.9785342,24.1317773 62.3702051,24.1317773 L82.1772684,24.1317773 C86.6565342,24.1317773 87.6312684,20.1642928 87.8137747,17.7991794 C88.0680532,14.5073443 87.0160785,13.0458186 86.7563316,12.739633" id="Fill-183" fill="#53C9F4"></path>
            <path d="M55.3086456,32.3759258 L51.1957595,32.3759258 C50.586038,32.3759258 50.0863671,31.8792247 50.0863671,31.2716165 C50.0863671,30.6640082 50.586038,30.1673072 51.1957595,30.1673072 L55.3086456,30.1673072 C55.9190506,30.1673072 56.418038,30.6640082 56.418038,31.2716165 C56.418038,31.8792247 55.9190506,32.3759258 55.3086456,32.3759258" id="Fill-184" fill="#D0D2D3"></path>
            <path d="M72.0300532,32.3759258 L67.9171671,32.3759258 C67.3074456,32.3759258 66.8077747,31.8792247 66.8077747,31.2716165 C66.8077747,30.6640082 67.3074456,30.1673072 67.9171671,30.1673072 L72.0300532,30.1673072 C72.6404582,30.1673072 73.1394456,30.6640082 73.1394456,31.2716165 C73.1394456,31.8792247 72.6404582,32.3759258 72.0300532,32.3759258" id="Fill-185" fill="#D0D2D3"></path>
            <path d="M48.5225544,10.2572165 L36.4060481,24.1321856 L38.3630354,24.1321856 L51.2239215,9.16243299 C50.2854152,9.50059794 49.3879215,9.86938144 48.5225544,10.2572165" id="Fill-188" fill="#FFFFFF"></path>
            <path d="M76.8709823,8.21795258 L62.9745266,24.1321175 L64.9212608,24.1321175 L78.2695139,8.59490103 C77.8217924,8.46494227 77.3583494,8.33906598 76.8709823,8.21795258" id="Fill-191" fill="#FFFFFF"></path>
            <path d="M45.3905544,54.2361464 C45.5689595,53.2924144 45.6653392,52.3207856 45.6653392,51.3260227 C45.6653392,42.6439608 38.5954405,35.6057753 29.8727316,35.6057753 C21.1507063,35.6057753 14.0801241,42.6439608 14.0801241,51.3260227 C14.0801241,52.3207856 14.1771873,53.2924144 14.3549089,54.2361464 L34.0027063,54.2361464 L45.3905544,54.2361464 Z" id="Fill-192" fill="#6C5D54"></path>
            <path d="M44.2810937,51.3258186 C44.2810937,59.2471794 37.8298025,65.6675505 29.8726633,65.6675505 C21.9155241,65.6675505 15.4649165,59.2471794 15.4649165,51.3258186 C15.4649165,43.4044577 21.9155241,36.9840866 29.8726633,36.9840866 C37.8298025,36.9840866 44.2810937,43.4044577 44.2810937,51.3258186" id="Fill-193" fill="#404041"></path>
            <path d="M37.4837241,51.3258186 C37.4837241,55.5096742 34.0762557,58.9022103 29.8724582,58.9022103 C25.6700278,58.9022103 22.2618759,55.5096742 22.2618759,51.3258186 C22.2618759,47.1419629 25.6700278,43.7501072 29.8724582,43.7501072 C34.0762557,43.7501072 37.4837241,47.1419629 37.4837241,51.3258186" id="Fill-194" fill="#D0D2D3"></path>
            <path d="M32.7022633,51.3258186 C32.7022633,52.8812412 31.4349722,54.1427258 29.8723899,54.1427258 C28.3098076,54.1427258 27.0438835,52.8812412 27.0438835,51.3258186 C27.0438835,49.7703959 28.3098076,48.5089113 29.8723899,48.5089113 C31.4349722,48.5089113 32.7022633,49.7703959 32.7022633,51.3258186" id="Fill-195" fill="#F1F1F2"></path>
            <path d="M98.964638,54.2361464 C99.1423595,53.2924144 99.2387392,52.3207856 99.2387392,51.3260227 C99.2387392,42.6439608 92.1688405,35.6057753 83.4468152,35.6057753 C74.7247899,35.6057753 67.6535241,42.6439608 67.6535241,51.3260227 C67.6535241,52.3207856 67.7512709,53.2924144 67.9289924,54.2361464 L87.5767899,54.2361464 L98.964638,54.2361464 Z" id="Fill-196" fill="#6C5D54"></path>
            <path d="M97.854562,51.3258186 C97.854562,59.2471794 91.4039544,65.6675505 83.4468152,65.6675505 C75.4889924,65.6675505 69.0383848,59.2471794 69.0383848,51.3258186 C69.0383848,43.4044577 75.4889924,36.9840866 83.4468152,36.9840866 C91.4039544,36.9840866 97.854562,43.4044577 97.854562,51.3258186" id="Fill-197" fill="#404041"></path>
            <path d="M91.0571924,51.3258186 C91.0571924,55.5096742 87.6504076,58.9022103 83.4466101,58.9022103 C79.2434962,58.9022103 75.8360278,55.5096742 75.8360278,51.3258186 C75.8360278,47.1419629 79.2434962,43.7501072 83.4466101,43.7501072 C87.6504076,43.7501072 91.0571924,47.1419629 91.0571924,51.3258186" id="Fill-198" fill="#D0D2D3"></path>
            <path d="M86.2763468,51.3258186 C86.2763468,52.8812412 85.0090557,54.1427258 83.4464734,54.1427258 C81.8838911,54.1427258 80.6172835,52.8812412 80.6172835,51.3258186 C80.6172835,49.7703959 81.8838911,48.5089113 83.4464734,48.5089113 C85.0090557,48.5089113 86.2763468,49.7703959 86.2763468,51.3258186" id="Fill-199" fill="#F1F1F2"></path>
            <path d="M104.62459,30.1672392 L100.680539,30.1672392 C97.946362,30.1672392 100.148742,38.1049299 103.946514,38.3321876 C104.763349,38.3804969 105.511147,38.4077134 106.188539,38.4213216 C105.768159,35.9521052 105.24183,33.127033 104.62459,30.1672392" id="Fill-200" fill="#EE4036"></path>
        </g>
    </g>
</svg>