<?xml version="1.0" encoding="UTF-8"?>
<svg width="120px" height="120px" viewBox="0 0 120 120" version="1.1" xmlns="http://www.w3.org/2000/svg" xmlns:xlink="http://www.w3.org/1999/xlink">
    <!-- Generator: Sketch 48.2 (47327) - http://www.bohemiancoding.com/sketch -->
    <title>Drum1</title>
    <desc>Created with Sketch.</desc>
    <defs>
        <polygon id="path-1" points="0.000374125874 0 106.611657 0 106.611657 106.860525 0.000374125874 106.860525"></polygon>
    </defs>
    <g id="ALL" stroke="none" stroke-width="1" fill="none" fill-rule="evenodd">
        <g id="Drum1">
            <g id="Page-1" transform="translate(7.000000, 0.000000)">
                <g id="Group-3">
                    <mask id="mask-2" fill="white">
                        <use xlink:href="#path-1"></use>
                    </mask>
                    <g id="Clip-2"></g>
                    <path d="M106.612031,53.430525 C106.612031,82.939275 82.7457937,106.860525 53.3073252,106.860525 C23.8666119,106.860525 0.000374125874,82.939275 0.000374125874,53.430525 C0.000374125874,23.921025 23.8666119,-0.000225 53.3073252,-0.000225 C82.7457937,-0.000225 106.612031,23.921025 106.612031,53.430525" id="Fill-1" fill="#443332" mask="url(#mask-2)"></path>
                </g>
                <path d="M100.613597,53.430525 C100.613597,79.618275 79.4328343,100.847775 53.3068762,100.847775 C27.1794217,100.847775 5.99940769,79.618275 5.99940769,53.430525 C5.99940769,27.242775 27.1794217,6.013275 53.3068762,6.013275 C79.4328343,6.013275 100.613597,27.242775 100.613597,53.430525" id="Fill-4" fill="#FFEFD3"></path>
                <polygon id="Fill-6" fill="#FFEFD3" points="18.7611406 120 27.2133923 120 28.9261406 115.2015 20.361651 115.2015"></polygon>
                <polygon id="Fill-8" fill="#443332" points="26.071186 98.08335 20.3612769 115.20135 28.9257664 115.20135 34.286242 100.1766"></polygon>
                <polygon id="Fill-10" fill="#FFEFD3" points="87.8508909 120 79.3993874 120 77.6866392 115.2015 86.2511287 115.2015"></polygon>
                <polygon id="Fill-12" fill="#443332" points="80.5408455 98.08335 86.2515028 115.20135 77.6870133 115.20135 72.3250413 100.1766"></polygon>
                <path d="M5.99918322,53.430525 C5.99918322,79.618275 27.1799455,100.847775 53.3074,100.847775 C62.1884,100.847775 70.4969874,98.392275 77.5978965,94.124775 L29.8459664,12.246525 C15.5992531,20.417025 5.99918322,35.799525 5.99918322,53.430525" id="Fill-14" fill-opacity="0.4" fill="#FFFFFF"></path>
                <path d="M56.5734441,6.05235 C56.5734441,8.05785 54.9512343,9.68385 52.9504091,9.68385 C50.9495839,9.68385 49.3273741,8.05785 49.3273741,6.05235 C49.3273741,4.04685 50.9495839,2.42085 52.9504091,2.42085 C54.9512343,2.42085 56.5734441,4.04685 56.5734441,6.05235" id="Fill-16" fill="#696670"></path>
                <path d="M55.8821343,100.84755 C55.8821343,102.8538 54.261421,104.4783 52.2598476,104.4783 C50.2582741,104.4783 48.6375608,102.8538 48.6375608,100.84755 C48.6375608,98.8428 50.2582741,97.2168 52.2598476,97.2168 C54.261421,97.2168 55.8821343,98.8428 55.8821343,100.84755" id="Fill-18" fill="#696670"></path>
                <path d="M99.8923566,57.42735 C97.8915315,57.42735 96.2700699,55.8021 96.2700699,53.79585 C96.2700699,51.79035 97.8915315,50.1651 99.8923566,50.1651 C101.89393,50.1651 103.514643,51.79035 103.514643,53.79585 C103.514643,55.8021 101.89393,57.42735 99.8923566,57.42735" id="Fill-20" fill="#696670"></path>
                <path d="M5.3181993,56.735625 C3.31587762,56.735625 1.69516434,55.109625 1.69516434,53.104125 C1.69516434,51.098625 3.31587762,49.472625 5.3181993,49.472625 C7.31902448,49.472625 8.94123427,51.098625 8.94123427,53.104125 C8.94123427,55.109625 7.31902448,56.735625 5.3181993,56.735625" id="Fill-22" fill="#696670"></path>
                <path d="M88.8476371,22.74645 C87.432693,24.16545 85.1400497,24.16545 83.7251056,22.74645 C82.3109098,21.32895 82.3109098,19.0302 83.7251056,17.6112 C85.1400497,16.1937 87.432693,16.1937 88.8476371,17.6112 C90.2640776,19.0302 90.2640776,21.32895 88.8476371,22.74645" id="Fill-24" fill="#696670"></path>
                <path d="M21.4859741,89.2881 C20.0702818,90.70635 17.7768902,90.70635 16.3619462,89.2881 C14.9477503,87.86985 14.9477503,85.5711 16.3619462,84.15285 C17.7768902,82.7346 20.0702818,82.7346 21.4859741,84.15285 C22.9009182,85.5711 22.9009182,87.86985 21.4859741,89.2881" id="Fill-26" fill="#696670"></path>
                <path d="M83.2371706,89.7777 C81.8214783,88.3587 81.8214783,86.05995 83.2371706,84.64245 C84.6521147,83.2242 86.944758,83.2242 88.3597021,84.64245 C89.7753944,86.05995 89.7753944,88.3587 88.3597021,89.7777 C86.944758,91.19595 84.6521147,91.19595 83.2371706,89.7777" id="Fill-28" fill="#696670"></path>
                <path d="M16.8503301,22.257975 C15.435386,20.838975 15.435386,18.540975 16.8503301,17.122725 C18.2660224,15.704475 20.5586657,15.703725 21.974358,17.122725 C23.3878056,18.540225 23.3885538,20.839725 21.974358,22.257975 C20.559414,23.676225 18.2652741,23.675475 16.8503301,22.257975" id="Fill-30" fill="#696670"></path>
            </g>
        </g>
    </g>
</svg>