<?xml version="1.0" encoding="UTF-8"?>
<svg width="120px" height="120px" viewBox="0 0 120 120" version="1.1" xmlns="http://www.w3.org/2000/svg" xmlns:xlink="http://www.w3.org/1999/xlink">
    <!-- Generator: Sketch 48.2 (47327) - http://www.bohemiancoding.com/sketch -->
    <title>Watermelon2</title>
    <desc>Created with Sketch.</desc>
    <defs>
        <polygon id="path-1" points="3.6e-05 0.034692 120 0.034692 120 30.496812 3.6e-05 30.496812"></polygon>
        <polygon id="path-3" points="3.6e-05 0.034692 120 0.034692 120 30.496812 3.6e-05 30.496812"></polygon>
        <path d="M18.63804,0.02064 C17.90784,0.02064 17.25096,0.43992 16.97832,1.08 L0.82092,39.0078 L0.24252,40.36596 L0.2424,40.36596 C-0.09396,41.1558 0.243,42.05904 1.02936,42.4746 C5.718,44.95308 11.35464,46.39968 17.4192,46.40136 L24.53988,46.40136 C30.60456,46.39968 36.2412,44.9532 40.92972,42.47472 C41.71608,42.05904 42.05304,41.1558 41.71668,40.36596 L41.13816,39.0078 L24.98076,1.08 C24.70812,0.43992 24.05124,0.02064 23.32104,0.02064" id="path-5"></path>
        <path d="M18.63804,0.02064 C17.90784,0.02064 17.25096,0.43992 16.97832,1.08 L0.82092,39.0078 L0.24252,40.36596 L0.2424,40.36596 C-0.09396,41.1558 0.243,42.05904 1.02936,42.4746 C5.718,44.95308 11.35464,46.39968 17.4192,46.40136 L24.53988,46.40136 C30.60456,46.39968 36.2412,44.9532 40.92972,42.47472 C41.71608,42.05904 42.05304,41.1558 41.71668,40.36596 L41.13816,39.0078 L24.98076,1.08 C24.70812,0.43992 24.05124,0.02064 23.32104,0.02064" id="path-7"></path>
        <path d="M18.63804,0.02064 C17.90784,0.02064 17.25096,0.43992 16.97832,1.08 L0.82092,39.0078 L0.24252,40.36596 L0.2424,40.36596 C-0.09396,41.1558 0.243,42.05904 1.02936,42.4746 C5.718,44.95308 11.35464,46.39968 17.4192,46.40136 L24.53988,46.40136 C30.60456,46.39968 36.2412,44.9532 40.92972,42.47472 C41.71608,42.05904 42.05304,41.1558 41.71668,40.36596 L41.13816,39.0078 L24.98076,1.08 C24.70812,0.43992 24.05124,0.02064 23.32104,0.02064" id="path-9"></path>
        <path d="M18.63804,0.02064 C17.90784,0.02064 17.25096,0.43992 16.97832,1.08 L0.82092,39.0078 L0.24252,40.36596 L0.2424,40.36596 C-0.09396,41.1558 0.243,42.05904 1.02936,42.4746 C5.718,44.95308 11.35464,46.39968 17.4192,46.40136 L24.53988,46.40136 C30.60456,46.39968 36.2412,44.9532 40.92972,42.47472 C41.71608,42.05904 42.05304,41.1558 41.71668,40.36596 L41.13816,39.0078 L24.98076,1.08 C24.70812,0.43992 24.05124,0.02064 23.32104,0.02064" id="path-11"></path>
        <path d="M18.63804,0.02064 C17.90784,0.02064 17.25096,0.43992 16.97832,1.08 L0.82092,39.0078 L0.24252,40.36596 L0.2424,40.36596 C-0.09396,41.1558 0.243,42.05904 1.02936,42.4746 C5.718,44.95308 11.35464,46.39968 17.4192,46.40136 L24.53988,46.40136 C30.60456,46.39968 36.2412,44.9532 40.92972,42.47472 C41.71608,42.05904 42.05304,41.1558 41.71668,40.36596 L41.13816,39.0078 L24.98076,1.08 C24.70812,0.43992 24.05124,0.02064 23.32104,0.02064 L18.63804,0.02064 Z" id="path-13"></path>
        <path d="M18.63804,0.02064 C17.90784,0.02064 17.25096,0.43992 16.97832,1.08 L0.82092,39.0078 L0.24252,40.36596 L0.2424,40.36596 C-0.09396,41.1558 0.243,42.05904 1.02936,42.4746 C5.718,44.95308 11.35464,46.39968 17.4192,46.40136 L24.53988,46.40136 C30.60456,46.39968 36.2412,44.9532 40.92972,42.47472 C41.71608,42.05904 42.05304,41.1558 41.71668,40.36596 L41.13816,39.0078 L24.98076,1.08 C24.70812,0.43992 24.05124,0.02064 23.32104,0.02064 L18.63804,0.02064 Z" id="path-15"></path>
        <path d="M18.63804,0.02064 C17.90784,0.02064 17.25096,0.43992 16.97832,1.08 L0.82092,39.0078 L0.24252,40.36596 L0.2424,40.36596 C-0.09396,41.1558 0.243,42.05904 1.02936,42.4746 C5.718,44.95308 11.35464,46.39968 17.4192,46.40136 L24.53988,46.40136 C30.60456,46.39968 36.2412,44.9532 40.92972,42.47472 C41.71608,42.05904 42.05304,41.1558 41.71668,40.36596 L41.13816,39.0078 L24.98076,1.08 C24.70812,0.43992 24.05124,0.02064 23.32104,0.02064" id="path-17"></path>
        <path d="M18.63804,0.02064 C17.90784,0.02064 17.25096,0.43992 16.97832,1.08 L0.82092,39.0078 L0.24252,40.36596 L0.2424,40.36596 C-0.09396,41.1558 0.243,42.05904 1.02936,42.4746 C5.718,44.95308 11.35464,46.39968 17.4192,46.40136 L24.53988,46.40136 C30.60456,46.39968 36.2412,44.9532 40.92972,42.47472 C41.71608,42.05904 42.05304,41.1558 41.71668,40.36596 L41.13816,39.0078 L24.98076,1.08 C24.70812,0.43992 24.05124,0.02064 23.32104,0.02064 L18.63804,0.02064 Z" id="path-19"></path>
        <path d="M18.63804,0.02064 C17.90784,0.02064 17.25096,0.43992 16.97832,1.08 L0.82092,39.0078 L0.24252,40.36596 L0.2424,40.36596 C-0.09396,41.1558 0.243,42.05904 1.02936,42.4746 C5.718,44.95308 11.35464,46.39968 17.4192,46.40136 L24.53988,46.40136 C30.60456,46.39968 36.2412,44.9532 40.92972,42.47472 C41.71608,42.05904 42.05304,41.1558 41.71668,40.36596 L41.13816,39.0078 L24.98076,1.08 C24.70812,0.43992 24.05124,0.02064 23.32104,0.02064" id="path-21"></path>
        <path d="M18.63804,0.02064 C17.90784,0.02064 17.25096,0.43992 16.97832,1.08 L0.82092,39.0078 L0.24252,40.36596 L0.2424,40.36596 C-0.09396,41.1558 0.243,42.05904 1.02936,42.4746 C5.718,44.95308 11.35464,46.39968 17.4192,46.40136 L24.53988,46.40136 C30.60456,46.39968 36.2412,44.9532 40.92972,42.47472 C41.71608,42.05904 42.05304,41.1558 41.71668,40.36596 L41.13816,39.0078 L24.98076,1.08 C24.70812,0.43992 24.05124,0.02064 23.32104,0.02064 L18.63804,0.02064 Z" id="path-23"></path>
        <path d="M18.63804,0.02064 C17.90784,0.02064 17.25096,0.43992 16.97832,1.08 L0.82092,39.0078 L0.24252,40.36596 L0.2424,40.36596 C-0.09396,41.1558 0.243,42.05904 1.02936,42.4746 C5.718,44.95308 11.35464,46.39968 17.4192,46.40136 L24.53988,46.40136 C30.60456,46.39968 36.2412,44.9532 40.92972,42.47472 C41.71608,42.05904 42.05304,41.1558 41.71668,40.36596 L41.13816,39.0078 L24.98076,1.08 C24.70812,0.43992 24.05124,0.02064 23.32104,0.02064" id="path-25"></path>
        <path d="M18.63804,0.02064 C17.90784,0.02064 17.25096,0.43992 16.97832,1.08 L0.82092,39.0078 L0.24252,40.36596 L0.2424,40.36596 C-0.09396,41.1558 0.243,42.05904 1.02936,42.4746 C5.718,44.95308 11.35464,46.39968 17.4192,46.40136 L24.53988,46.40136 C30.60456,46.39968 36.2412,44.9532 40.92972,42.47472 C41.71608,42.05904 42.05304,41.1558 41.71668,40.36596 L41.13816,39.0078 L24.98076,1.08 C24.70812,0.43992 24.05124,0.02064 23.32104,0.02064 L18.63804,0.02064 Z" id="path-27"></path>
        <path d="M18.63804,0.02064 C17.90784,0.02064 17.25096,0.43992 16.97832,1.08 L0.82092,39.0078 L0.24252,40.36596 L0.2424,40.36596 C-0.09396,41.1558 0.243,42.05904 1.02936,42.4746 C5.718,44.95308 11.35464,46.39968 17.4192,46.40136 L24.53988,46.40136 C30.60456,46.39968 36.2412,44.9532 40.92972,42.47472 C41.71608,42.05904 42.05304,41.1558 41.71668,40.36596 L41.13816,39.0078 L24.98076,1.08 C24.70812,0.43992 24.05124,0.02064 23.32104,0.02064" id="path-29"></path>
        <path d="M18.63804,0.02064 C17.90784,0.02064 17.25096,0.43992 16.97832,1.08 L0.82092,39.0078 L0.24252,40.36596 L0.2424,40.36596 C-0.09396,41.1558 0.243,42.05904 1.02936,42.4746 C5.718,44.95308 11.35464,46.39968 17.4192,46.40136 L24.53988,46.40136 C30.60456,46.39968 36.2412,44.9532 40.92972,42.47472 C41.71608,42.05904 42.05304,41.1558 41.71668,40.36596 L41.13816,39.0078 L24.98076,1.08 C24.70812,0.43992 24.05124,0.02064 23.32104,0.02064" id="path-31"></path>
        <path d="M18.63804,0.02064 C17.90784,0.02064 17.25096,0.43992 16.97832,1.08 L0.82092,39.0078 L0.24252,40.36596 L0.2424,40.36596 C-0.09396,41.1558 0.243,42.05904 1.02936,42.4746 C5.718,44.95308 11.35464,46.39968 17.4192,46.40136 L24.53988,46.40136 C30.60456,46.39968 36.2412,44.9532 40.92972,42.47472 C41.71608,42.05904 42.05304,41.1558 41.71668,40.36596 L41.13816,39.0078 L24.98076,1.08 C24.70812,0.43992 24.05124,0.02064 23.32104,0.02064" id="path-33"></path>
        <path d="M18.63804,0.02064 C17.90784,0.02064 17.25096,0.43992 16.97832,1.08 L0.82092,39.0078 L0.24252,40.36596 L0.2424,40.36596 C-0.09396,41.1558 0.243,42.05904 1.02936,42.4746 C5.718,44.95308 11.35464,46.39968 17.4192,46.40136 L24.53988,46.40136 C30.60456,46.39968 36.2412,44.9532 40.92972,42.47472 C41.71608,42.05904 42.05304,41.1558 41.71668,40.36596 L41.13816,39.0078 L24.98076,1.08 C24.70812,0.43992 24.05124,0.02064 23.32104,0.02064" id="path-35"></path>
        <path d="M18.63804,0.02064 C17.90784,0.02064 17.25096,0.43992 16.97832,1.08 L0.82092,39.0078 L0.24252,40.36596 L0.2424,40.36596 C-0.09396,41.1558 0.243,42.05904 1.02936,42.4746 C5.718,44.95308 11.35464,46.39968 17.4192,46.40136 L24.53988,46.40136 C30.60456,46.39968 36.2412,44.9532 40.92972,42.47472 C41.71608,42.05904 42.05304,41.1558 41.71668,40.36596 L41.13816,39.0078 L24.98076,1.08 C24.70812,0.43992 24.05124,0.02064 23.32104,0.02064" id="path-37"></path>
        <path d="M18.63804,0.02064 C17.90784,0.02064 17.25096,0.43992 16.97832,1.08 L0.82092,39.0078 L0.24252,40.36596 L0.2424,40.36596 C-0.09396,41.1558 0.243,42.05904 1.02936,42.4746 C5.718,44.95308 11.35464,46.39968 17.4192,46.40136 L24.53988,46.40136 C30.60456,46.39968 36.2412,44.9532 40.92972,42.47472 C41.71608,42.05904 42.05304,41.1558 41.71668,40.36596 L41.13816,39.0078 L24.98076,1.08 C24.70812,0.43992 24.05124,0.02064 23.32104,0.02064" id="path-39"></path>
        <path d="M18.63804,0.02064 C17.90784,0.02064 17.25096,0.43992 16.97832,1.08 L0.82092,39.0078 L0.24252,40.36596 L0.2424,40.36596 C-0.09396,41.1558 0.243,42.05904 1.02936,42.4746 C5.718,44.95308 11.35464,46.39968 17.4192,46.40136 L24.53988,46.40136 C30.60456,46.39968 36.2412,44.9532 40.92972,42.47472 C41.71608,42.05904 42.05304,41.1558 41.71668,40.36596 L41.13816,39.0078 L24.98076,1.08 C24.70812,0.43992 24.05124,0.02064 23.32104,0.02064" id="path-41"></path>
        <path d="M18.5388,0.03492 C17.8086,0.03492 17.15172,0.45408 16.87908,1.09416 L0.72168,39.02208 L0.14316,40.38012 C-0.1932,41.16996 0.14388,42.0732 0.93012,42.48876 C5.61864,44.96736 11.2554,46.41384 17.32008,46.41552 L24.44064,46.41552 C30.50532,46.41384 36.14184,44.96736 40.83048,42.48888 C41.61696,42.0732 41.95392,41.16996 41.61744,40.38012 L41.03892,39.02208 L24.88152,1.09416 C24.609,0.45408 23.952,0.03492 23.2218,0.03492" id="path-43"></path>
        <path d="M18.5388,0.03492 C17.8086,0.03492 17.15172,0.45408 16.87908,1.09416 L0.72168,39.02208 L0.14316,40.38012 C-0.1932,41.16996 0.14388,42.0732 0.93012,42.48876 C5.61864,44.96736 11.2554,46.41384 17.32008,46.41552 L24.44064,46.41552 C30.50532,46.41384 36.14184,44.96736 40.83048,42.48888 C41.61696,42.0732 41.95392,41.16996 41.61744,40.38012 L41.03892,39.02208 L24.88152,1.09416 C24.609,0.45408 23.952,0.03492 23.2218,0.03492" id="path-45"></path>
        <path d="M18.5388,0.03492 C17.8086,0.03492 17.15172,0.45408 16.87908,1.09416 L0.72168,39.02208 L0.14316,40.38012 C-0.1932,41.16996 0.14388,42.0732 0.93012,42.48876 C5.61864,44.96736 11.2554,46.41384 17.32008,46.41552 L24.44064,46.41552 C30.50532,46.41384 36.14184,44.96736 40.83048,42.48888 C41.61696,42.0732 41.95392,41.16996 41.61744,40.38012 L41.03892,39.02208 L24.88152,1.09416 C24.609,0.45408 23.952,0.03492 23.2218,0.03492" id="path-47"></path>
        <path d="M18.5388,0.03492 C17.8086,0.03492 17.15172,0.45408 16.87908,1.09416 L0.72168,39.02208 L0.14316,40.38012 C-0.1932,41.16996 0.14388,42.0732 0.93012,42.48876 C5.61864,44.96736 11.2554,46.41384 17.32008,46.41552 L24.44064,46.41552 C30.50532,46.41384 36.14184,44.96736 40.83048,42.48888 C41.61696,42.0732 41.95392,41.16996 41.61744,40.38012 L41.03892,39.02208 L24.88152,1.09416 C24.609,0.45408 23.952,0.03492 23.2218,0.03492" id="path-49"></path>
        <path d="M18.5388,0.03492 C17.8086,0.03492 17.15172,0.45408 16.87908,1.09416 L0.72168,39.02208 L0.14316,40.38012 C-0.1932,41.16996 0.14388,42.0732 0.93012,42.48876 C5.61864,44.96736 11.2554,46.41384 17.32008,46.41552 L24.44064,46.41552 C30.50532,46.41384 36.14184,44.96736 40.83048,42.48888 C41.61696,42.0732 41.95392,41.16996 41.61744,40.38012 L41.03892,39.02208 L24.88152,1.09416 C24.609,0.45408 23.952,0.03492 23.2218,0.03492 L18.5388,0.03492 Z" id="path-51"></path>
        <path d="M18.5388,0.03492 C17.8086,0.03492 17.15172,0.45408 16.87908,1.09416 L0.72168,39.02208 L0.14316,40.38012 C-0.1932,41.16996 0.14388,42.0732 0.93012,42.48876 C5.61864,44.96736 11.2554,46.41384 17.32008,46.41552 L24.44064,46.41552 C30.50532,46.41384 36.14184,44.96736 40.83048,42.48888 C41.61696,42.0732 41.95392,41.16996 41.61744,40.38012 L41.03892,39.02208 L24.88152,1.09416 C24.609,0.45408 23.952,0.03492 23.2218,0.03492 L18.5388,0.03492 Z" id="path-53"></path>
        <path d="M18.5388,0.03492 C17.8086,0.03492 17.15172,0.45408 16.87908,1.09416 L0.72168,39.02208 L0.14316,40.38012 C-0.1932,41.16996 0.14388,42.0732 0.93012,42.48876 C5.61864,44.96736 11.2554,46.41384 17.32008,46.41552 L24.44064,46.41552 C30.50532,46.41384 36.14184,44.96736 40.83048,42.48888 C41.61696,42.0732 41.95392,41.16996 41.61744,40.38012 L41.03892,39.02208 L24.88152,1.09416 C24.609,0.45408 23.952,0.03492 23.2218,0.03492" id="path-55"></path>
        <path d="M18.5388,0.03492 C17.8086,0.03492 17.15172,0.45408 16.87908,1.09416 L0.72168,39.02208 L0.14316,40.38012 C-0.1932,41.16996 0.14388,42.0732 0.93012,42.48876 C5.61864,44.96736 11.2554,46.41384 17.32008,46.41552 L24.44064,46.41552 C30.50532,46.41384 36.14184,44.96736 40.83048,42.48888 C41.61696,42.0732 41.95392,41.16996 41.61744,40.38012 L41.03892,39.02208 L24.88152,1.09416 C24.609,0.45408 23.952,0.03492 23.2218,0.03492 L18.5388,0.03492 Z" id="path-57"></path>
        <path d="M18.5388,0.03492 C17.8086,0.03492 17.15172,0.45408 16.87908,1.09416 L0.72168,39.02208 L0.14316,40.38012 C-0.1932,41.16996 0.14388,42.0732 0.93012,42.48876 C5.61864,44.96736 11.2554,46.41384 17.32008,46.41552 L24.44064,46.41552 C30.50532,46.41384 36.14184,44.96736 40.83048,42.48888 C41.61696,42.0732 41.95392,41.16996 41.61744,40.38012 L41.03892,39.02208 L24.88152,1.09416 C24.609,0.45408 23.952,0.03492 23.2218,0.03492" id="path-59"></path>
        <path d="M18.5388,0.03492 C17.8086,0.03492 17.15172,0.45408 16.87908,1.09416 L0.72168,39.02208 L0.14316,40.38012 C-0.1932,41.16996 0.14388,42.0732 0.93012,42.48876 C5.61864,44.96736 11.2554,46.41384 17.32008,46.41552 L24.44064,46.41552 C30.50532,46.41384 36.14184,44.96736 40.83048,42.48888 C41.61696,42.0732 41.95392,41.16996 41.61744,40.38012 L41.03892,39.02208 L24.88152,1.09416 C24.609,0.45408 23.952,0.03492 23.2218,0.03492 L18.5388,0.03492 Z" id="path-61"></path>
        <path d="M18.5388,0.03492 C17.8086,0.03492 17.15172,0.45408 16.87908,1.09416 L0.72168,39.02208 L0.14316,40.38012 C-0.1932,41.16996 0.14388,42.0732 0.93012,42.48876 C5.61864,44.96736 11.2554,46.41384 17.32008,46.41552 L24.44064,46.41552 C30.50532,46.41384 36.14184,44.96736 40.83048,42.48888 C41.61696,42.0732 41.95392,41.16996 41.61744,40.38012 L41.03892,39.02208 L24.88152,1.09416 C24.609,0.45408 23.952,0.03492 23.2218,0.03492" id="path-63"></path>
        <path d="M18.5388,0.03492 C17.8086,0.03492 17.15172,0.45408 16.87908,1.09416 L0.72168,39.02208 L0.14316,40.38012 C-0.1932,41.16996 0.14388,42.0732 0.93012,42.48876 C5.61864,44.96736 11.2554,46.41384 17.32008,46.41552 L24.44064,46.41552 C30.50532,46.41384 36.14184,44.96736 40.83048,42.48888 C41.61696,42.0732 41.95392,41.16996 41.61744,40.38012 L41.03892,39.02208 L24.88152,1.09416 C24.609,0.45408 23.952,0.03492 23.2218,0.03492 L18.5388,0.03492 Z" id="path-65"></path>
        <path d="M18.5388,0.03492 C17.8086,0.03492 17.15172,0.45408 16.87908,1.09416 L0.72168,39.02208 L0.14316,40.38012 C-0.1932,41.16996 0.14388,42.0732 0.93012,42.48876 C5.61864,44.96736 11.2554,46.41384 17.32008,46.41552 L24.44064,46.41552 C30.50532,46.41384 36.14184,44.96736 40.83048,42.48888 C41.61696,42.0732 41.95392,41.16996 41.61744,40.38012 L41.03892,39.02208 L24.88152,1.09416 C24.609,0.45408 23.952,0.03492 23.2218,0.03492" id="path-67"></path>
        <path d="M18.5388,0.03492 C17.8086,0.03492 17.15172,0.45408 16.87908,1.09416 L0.72168,39.02208 L0.14316,40.38012 C-0.1932,41.16996 0.14388,42.0732 0.93012,42.48876 C5.61864,44.96736 11.2554,46.41384 17.32008,46.41552 L24.44064,46.41552 C30.50532,46.41384 36.14184,44.96736 40.83048,42.48888 C41.61696,42.0732 41.95392,41.16996 41.61744,40.38012 L41.03892,39.02208 L24.88152,1.09416 C24.609,0.45408 23.952,0.03492 23.2218,0.03492" id="path-69"></path>
        <path d="M18.5388,0.03492 C17.8086,0.03492 17.15172,0.45408 16.87908,1.09416 L0.72168,39.02208 L0.14316,40.38012 C-0.1932,41.16996 0.14388,42.0732 0.93012,42.48876 C5.61864,44.96736 11.2554,46.41384 17.32008,46.41552 L24.44064,46.41552 C30.50532,46.41384 36.14184,44.96736 40.83048,42.48888 C41.61696,42.0732 41.95392,41.16996 41.61744,40.38012 L41.03892,39.02208 L24.88152,1.09416 C24.609,0.45408 23.952,0.03492 23.2218,0.03492" id="path-71"></path>
        <path d="M18.5388,0.03492 C17.8086,0.03492 17.15172,0.45408 16.87908,1.09416 L0.72168,39.02208 L0.14316,40.38012 C-0.1932,41.16996 0.14388,42.0732 0.93012,42.48876 C5.61864,44.96736 11.2554,46.41384 17.32008,46.41552 L24.44064,46.41552 C30.50532,46.41384 36.14184,44.96736 40.83048,42.48888 C41.61696,42.0732 41.95392,41.16996 41.61744,40.38012 L41.03892,39.02208 L24.88152,1.09416 C24.609,0.45408 23.952,0.03492 23.2218,0.03492" id="path-73"></path>
        <path d="M18.5388,0.03492 C17.8086,0.03492 17.15172,0.45408 16.87908,1.09416 L0.72168,39.02208 L0.14316,40.38012 C-0.1932,41.16996 0.14388,42.0732 0.93012,42.48876 C5.61864,44.96736 11.2554,46.41384 17.32008,46.41552 L24.44064,46.41552 C30.50532,46.41384 36.14184,44.96736 40.83048,42.48888 C41.61696,42.0732 41.95392,41.16996 41.61744,40.38012 L41.03892,39.02208 L24.88152,1.09416 C24.609,0.45408 23.952,0.03492 23.2218,0.03492" id="path-75"></path>
        <path d="M18.5388,0.03492 C17.8086,0.03492 17.15172,0.45408 16.87908,1.09416 L0.72168,39.02208 L0.14316,40.38012 C-0.1932,41.16996 0.14388,42.0732 0.93012,42.48876 C5.61864,44.96736 11.2554,46.41384 17.32008,46.41552 L24.44064,46.41552 C30.50532,46.41384 36.14184,44.96736 40.83048,42.48888 C41.61696,42.0732 41.95392,41.16996 41.61744,40.38012 L41.03892,39.02208 L24.88152,1.09416 C24.609,0.45408 23.952,0.03492 23.2218,0.03492" id="path-77"></path>
        <path d="M18.5388,0.03492 C17.8086,0.03492 17.15172,0.45408 16.87908,1.09416 L0.72168,39.02208 L0.14316,40.38012 C-0.1932,41.16996 0.14388,42.0732 0.93012,42.48876 C5.61864,44.96736 11.2554,46.41384 17.32008,46.41552 L24.44064,46.41552 C30.50532,46.41384 36.14184,44.96736 40.83048,42.48888 C41.61696,42.0732 41.95392,41.16996 41.61744,40.38012 L41.03892,39.02208 L24.88152,1.09416 C24.609,0.45408 23.952,0.03492 23.2218,0.03492" id="path-79"></path>
        <path d="M18.55956,0.04908 C17.82948,0.04908 17.17248,0.46836 16.89984,1.10832 L0.74256,39.03624 L0.16404,40.39428 C-0.17244,41.18412 0.16452,42.08736 0.95088,42.50304 C5.63952,44.98152 11.27616,46.428 17.34084,46.42968 L24.4614,46.42968 C30.52596,46.428 36.1626,44.98152 40.85124,42.50304 C41.6376,42.08736 41.97468,41.18412 41.63808,40.39428 L41.05968,39.03624 L24.9024,1.10832 C24.62964,0.46836 23.97276,0.04908 23.24256,0.04908" id="path-81"></path>
        <path d="M18.55956,0.04908 C17.82948,0.04908 17.17248,0.46836 16.89984,1.10832 L0.74256,39.03624 L0.16404,40.39428 C-0.17244,41.18412 0.16452,42.08736 0.95088,42.50304 C5.63952,44.98152 11.27616,46.428 17.34084,46.42968 L24.4614,46.42968 C30.52596,46.428 36.1626,44.98152 40.85124,42.50304 C41.6376,42.08736 41.97468,41.18412 41.63808,40.39428 L41.05968,39.03624 L24.9024,1.10832 C24.62964,0.46836 23.97276,0.04908 23.24256,0.04908" id="path-83"></path>
        <path d="M18.55956,0.04908 C17.82948,0.04908 17.17248,0.46836 16.89984,1.10832 L0.74256,39.03624 L0.16404,40.39428 C-0.17244,41.18412 0.16452,42.08736 0.95088,42.50304 C5.63952,44.98152 11.27616,46.428 17.34084,46.42968 L24.4614,46.42968 C30.52596,46.428 36.1626,44.98152 40.85124,42.50304 C41.6376,42.08736 41.97468,41.18412 41.63808,40.39428 L41.05968,39.03624 L24.9024,1.10832 C24.62964,0.46836 23.97276,0.04908 23.24256,0.04908" id="path-85"></path>
        <path d="M18.55956,0.04908 C17.82948,0.04908 17.17248,0.46836 16.89984,1.10832 L0.74256,39.03624 L0.16404,40.39428 C-0.17244,41.18412 0.16452,42.08736 0.95088,42.50304 C5.63952,44.98152 11.27616,46.428 17.34084,46.42968 L24.4614,46.42968 C30.52596,46.428 36.1626,44.98152 40.85124,42.50304 C41.6376,42.08736 41.97468,41.18412 41.63808,40.39428 L41.05968,39.03624 L24.9024,1.10832 C24.62964,0.46836 23.97276,0.04908 23.24256,0.04908" id="path-87"></path>
        <path d="M18.55956,0.04908 C17.82948,0.04908 17.17248,0.46836 16.89984,1.10832 L0.74256,39.03624 L0.16404,40.39428 C-0.17244,41.18412 0.16452,42.08736 0.95088,42.50304 C5.63952,44.98152 11.27616,46.428 17.34084,46.42968 L24.4614,46.42968 C30.52596,46.428 36.1626,44.98152 40.85124,42.50304 C41.6376,42.08736 41.97468,41.18412 41.63808,40.39428 L41.05968,39.03624 L24.9024,1.10832 C24.62964,0.46836 23.97276,0.04908 23.24256,0.04908 L18.55956,0.04908 Z" id="path-89"></path>
        <path d="M18.55956,0.04908 C17.82948,0.04908 17.17248,0.46836 16.89984,1.10832 L0.74256,39.03624 L0.16404,40.39428 C-0.17244,41.18412 0.16452,42.08736 0.95088,42.50304 C5.63952,44.98152 11.27616,46.428 17.34084,46.42968 L24.4614,46.42968 C30.52596,46.428 36.1626,44.98152 40.85124,42.50304 C41.6376,42.08736 41.97468,41.18412 41.63808,40.39428 L41.05968,39.03624 L24.9024,1.10832 C24.62964,0.46836 23.97276,0.04908 23.24256,0.04908 L18.55956,0.04908 Z" id="path-91"></path>
        <path d="M18.55956,0.04908 C17.82948,0.04908 17.17248,0.46836 16.89984,1.10832 L0.74256,39.03624 L0.16404,40.39428 C-0.17244,41.18412 0.16452,42.08736 0.95088,42.50304 C5.63952,44.98152 11.27616,46.428 17.34084,46.42968 L24.4614,46.42968 C30.52596,46.428 36.1626,44.98152 40.85124,42.50304 C41.6376,42.08736 41.97468,41.18412 41.63808,40.39428 L41.05968,39.03624 L24.9024,1.10832 C24.62964,0.46836 23.97276,0.04908 23.24256,0.04908" id="path-93"></path>
        <path d="M18.55956,0.04908 C17.82948,0.04908 17.17248,0.46836 16.89984,1.10832 L0.74256,39.03624 L0.16404,40.39428 C-0.17244,41.18412 0.16452,42.08736 0.95088,42.50304 C5.63952,44.98152 11.27616,46.428 17.34084,46.42968 L24.4614,46.42968 C30.52596,46.428 36.1626,44.98152 40.85124,42.50304 C41.6376,42.08736 41.97468,41.18412 41.63808,40.39428 L41.05968,39.03624 L24.9024,1.10832 C24.62964,0.46836 23.97276,0.04908 23.24256,0.04908 L18.55956,0.04908 Z" id="path-95"></path>
        <path d="M18.55956,0.04908 C17.82948,0.04908 17.17248,0.46836 16.89984,1.10832 L0.74256,39.03624 L0.16404,40.39428 C-0.17244,41.18412 0.16452,42.08736 0.95088,42.50304 C5.63952,44.98152 11.27616,46.428 17.34084,46.42968 L24.4614,46.42968 C30.52596,46.428 36.1626,44.98152 40.85124,42.50304 C41.6376,42.08736 41.97468,41.18412 41.63808,40.39428 L41.05968,39.03624 L24.9024,1.10832 C24.62964,0.46836 23.97276,0.04908 23.24256,0.04908" id="path-97"></path>
        <path d="M18.55956,0.04908 C17.82948,0.04908 17.17248,0.46836 16.89984,1.10832 L0.74256,39.03624 L0.16404,40.39428 C-0.17244,41.18412 0.16452,42.08736 0.95088,42.50304 C5.63952,44.98152 11.27616,46.428 17.34084,46.42968 L24.4614,46.42968 C30.52596,46.428 36.1626,44.98152 40.85124,42.50304 C41.6376,42.08736 41.97468,41.18412 41.63808,40.39428 L41.05968,39.03624 L24.9024,1.10832 C24.62964,0.46836 23.97276,0.04908 23.24256,0.04908 L18.55956,0.04908 Z" id="path-99"></path>
        <path d="M18.55956,0.04908 C17.82948,0.04908 17.17248,0.46836 16.89984,1.10832 L0.74256,39.03624 L0.16404,40.39428 C-0.17244,41.18412 0.16452,42.08736 0.95088,42.50304 C5.63952,44.98152 11.27616,46.428 17.34084,46.42968 L24.4614,46.42968 C30.52596,46.428 36.1626,44.98152 40.85124,42.50304 C41.6376,42.08736 41.97468,41.18412 41.63808,40.39428 L41.05968,39.03624 L24.9024,1.10832 C24.62964,0.46836 23.97276,0.04908 23.24256,0.04908" id="path-101"></path>
        <path d="M18.55956,0.04908 C17.82948,0.04908 17.17248,0.46836 16.89984,1.10832 L0.74256,39.03624 L0.16404,40.39428 C-0.17244,41.18412 0.16452,42.08736 0.95088,42.50304 C5.63952,44.98152 11.27616,46.428 17.34084,46.42968 L24.4614,46.42968 C30.52596,46.428 36.1626,44.98152 40.85124,42.50304 C41.6376,42.08736 41.97468,41.18412 41.63808,40.39428 L41.05968,39.03624 L24.9024,1.10832 C24.62964,0.46836 23.97276,0.04908 23.24256,0.04908 L18.55956,0.04908 Z" id="path-103"></path>
        <path d="M18.55956,0.04908 C17.82948,0.04908 17.17248,0.46836 16.89984,1.10832 L0.74256,39.03624 L0.16404,40.39428 C-0.17244,41.18412 0.16452,42.08736 0.95088,42.50304 C5.63952,44.98152 11.27616,46.428 17.34084,46.42968 L24.4614,46.42968 C30.52596,46.428 36.1626,44.98152 40.85124,42.50304 C41.6376,42.08736 41.97468,41.18412 41.63808,40.39428 L41.05968,39.03624 L24.9024,1.10832 C24.62964,0.46836 23.97276,0.04908 23.24256,0.04908" id="path-105"></path>
        <path d="M18.55956,0.04908 C17.82948,0.04908 17.17248,0.46836 16.89984,1.10832 L0.74256,39.03624 L0.16404,40.39428 C-0.17244,41.18412 0.16452,42.08736 0.95088,42.50304 C5.63952,44.98152 11.27616,46.428 17.34084,46.42968 L24.4614,46.42968 C30.52596,46.428 36.1626,44.98152 40.85124,42.50304 C41.6376,42.08736 41.97468,41.18412 41.63808,40.39428 L41.05968,39.03624 L24.9024,1.10832 C24.62964,0.46836 23.97276,0.04908 23.24256,0.04908" id="path-107"></path>
        <path d="M18.55956,0.04908 C17.82948,0.04908 17.17248,0.46836 16.89984,1.10832 L0.74256,39.03624 L0.16404,40.39428 C-0.17244,41.18412 0.16452,42.08736 0.95088,42.50304 C5.63952,44.98152 11.27616,46.428 17.34084,46.42968 L24.4614,46.42968 C30.52596,46.428 36.1626,44.98152 40.85124,42.50304 C41.6376,42.08736 41.97468,41.18412 41.63808,40.39428 L41.05968,39.03624 L24.9024,1.10832 C24.62964,0.46836 23.97276,0.04908 23.24256,0.04908" id="path-109"></path>
        <path d="M18.55956,0.04908 C17.82948,0.04908 17.17248,0.46836 16.89984,1.10832 L0.74256,39.03624 L0.16404,40.39428 C-0.17244,41.18412 0.16452,42.08736 0.95088,42.50304 C5.63952,44.98152 11.27616,46.428 17.34084,46.42968 L24.4614,46.42968 C30.52596,46.428 36.1626,44.98152 40.85124,42.50304 C41.6376,42.08736 41.97468,41.18412 41.63808,40.39428 L41.05968,39.03624 L24.9024,1.10832 C24.62964,0.46836 23.97276,0.04908 23.24256,0.04908" id="path-111"></path>
        <path d="M18.55956,0.04908 C17.82948,0.04908 17.17248,0.46836 16.89984,1.10832 L0.74256,39.03624 L0.16404,40.39428 C-0.17244,41.18412 0.16452,42.08736 0.95088,42.50304 C5.63952,44.98152 11.27616,46.428 17.34084,46.42968 L24.4614,46.42968 C30.52596,46.428 36.1626,44.98152 40.85124,42.50304 C41.6376,42.08736 41.97468,41.18412 41.63808,40.39428 L41.05968,39.03624 L24.9024,1.10832 C24.62964,0.46836 23.97276,0.04908 23.24256,0.04908" id="path-113"></path>
        <path d="M18.55956,0.04908 C17.82948,0.04908 17.17248,0.46836 16.89984,1.10832 L0.74256,39.03624 L0.16404,40.39428 C-0.17244,41.18412 0.16452,42.08736 0.95088,42.50304 C5.63952,44.98152 11.27616,46.428 17.34084,46.42968 L24.4614,46.42968 C30.52596,46.428 36.1626,44.98152 40.85124,42.50304 C41.6376,42.08736 41.97468,41.18412 41.63808,40.39428 L41.05968,39.03624 L24.9024,1.10832 C24.62964,0.46836 23.97276,0.04908 23.24256,0.04908" id="path-115"></path>
        <path d="M18.55956,0.04908 C17.82948,0.04908 17.17248,0.46836 16.89984,1.10832 L0.74256,39.03624 L0.16404,40.39428 C-0.17244,41.18412 0.16452,42.08736 0.95088,42.50304 C5.63952,44.98152 11.27616,46.428 17.34084,46.42968 L24.4614,46.42968 C30.52596,46.428 36.1626,44.98152 40.85124,42.50304 C41.6376,42.08736 41.97468,41.18412 41.63808,40.39428 L41.05968,39.03624 L24.9024,1.10832 C24.62964,0.46836 23.97276,0.04908 23.24256,0.04908" id="path-117"></path>
    </defs>
    <g id="ALL" stroke="none" stroke-width="1" fill="none" fill-rule="evenodd">
        <g id="Watermelon2">
            <g id="Page-1" transform="translate(0.000000, 28.680000)">
                <g id="Group-12" transform="translate(0.000000, 32.159760)">
                    <path d="M118.042776,15.265728 C118.042776,22.596648 92.056176,28.539528 60.000096,28.539528 C27.943896,28.539528 1.957416,22.596648 1.957416,15.265728 C1.957416,7.934808 27.943896,1.991928 60.000096,1.991928 C92.056176,1.991928 118.042776,7.934808 118.042776,15.265728" id="Fill-2" fill="#F2F2F2"></path>
                    <path d="M60.000036,1.991928 C27.943956,1.991928 1.957356,7.934808 1.957356,15.265728 C1.957356,22.596648 27.943956,28.539528 60.000036,28.539528 C92.056116,28.539528 118.042716,22.596648 118.042716,15.265728 C118.042716,7.934808 92.056116,1.991928 60.000036,1.991928 M60.000036,3.198648 C75.415956,3.198648 89.896236,4.568568 100.773396,7.056168 C105.997596,8.250888 110.080116,9.631728 112.907556,11.160528 C115.440756,12.530208 116.835996,13.988208 116.835996,15.265728 C116.835996,16.543248 115.440756,18.001248 112.907556,19.370928 C110.080116,20.899728 105.997596,22.280568 100.773396,23.475288 C89.896236,25.962888 75.415956,27.332808 60.000036,27.332808 C44.584116,27.332808 30.103836,25.962888 19.226676,23.475288 C14.002476,22.280568 9.920076,20.899728 7.092636,19.370928 C4.559316,18.001248 3.164196,16.543248 3.164196,15.265728 C3.164196,13.988208 4.559316,12.530208 7.092636,11.160528 C9.920076,9.631728 14.002476,8.250888 19.226676,7.056168 C30.103836,4.568568 44.584116,3.198648 60.000036,3.198648" id="Fill-4" fill="#CCCCCC"></path>
                    <g id="Group-8">
                        <mask id="mask-2" fill="white">
                            <use xlink:href="#path-1"></use>
                        </mask>
                        <g id="Clip-7"></g>
                        <path d="M60.000036,0.034692 C44.353836,0.034692 29.622996,1.432932 18.521316,3.971772 C6.231516,6.782292 3.6e-05,10.582212 3.6e-05,15.265812 C3.6e-05,19.949292 6.231516,23.749092 18.521316,26.559732 C29.622996,29.098572 44.353836,30.496812 60.000036,30.496812 C75.646236,30.496812 90.377076,29.098572 101.478756,26.559732 C113.768556,23.749092 120.000036,19.949292 120.000036,15.265812 C120.000036,10.582212 113.768556,6.782292 101.478756,3.971772 C90.377076,1.432932 75.646236,0.034692 60.000036,0.034692 M60.000036,1.992012 C92.056236,1.992012 118.042716,7.934772 118.042716,15.265812 C118.042716,22.596732 92.056236,28.539612 60.000036,28.539612 C27.943836,28.539612 1.957236,22.596732 1.957236,15.265812 C1.957236,7.934772 27.943836,1.992012 60.000036,1.992012" id="Fill-6" fill="#000000" mask="url(#mask-2)"></path>
                    </g>
                    <g id="Group-11">
                        <mask id="mask-4" fill="white">
                            <use xlink:href="#path-3"></use>
                        </mask>
                        <g id="Clip-10"></g>
                        <path d="M60.000036,0.034692 C44.353836,0.034692 29.622996,1.432932 18.521316,3.971772 C6.231516,6.782292 3.6e-05,10.582212 3.6e-05,15.265812 C3.6e-05,19.949292 6.231516,23.749092 18.521316,26.559732 C29.622996,29.098572 44.353836,30.496812 60.000036,30.496812 C75.646236,30.496812 90.377076,29.098572 101.478756,26.559732 C113.768556,23.749092 120.000036,19.949292 120.000036,15.265812 C120.000036,10.582212 113.768556,6.782292 101.478756,3.971772 C90.377076,1.432932 75.646236,0.034692 60.000036,0.034692 M60.000036,1.992012 C92.056236,1.992012 118.042716,7.934772 118.042716,15.265812 C118.042716,22.596732 92.056236,28.539612 60.000036,28.539612 C27.943836,28.539612 1.957236,22.596732 1.957236,15.265812 C1.957236,7.934772 27.943836,1.992012 60.000036,1.992012" id="Fill-9" fill="#000000" mask="url(#mask-4)"></path>
                    </g>
                </g>
                <g id="Group-70" transform="translate(60.120000, 2.039760)">
                    <g id="Group-15">
                        <mask id="mask-6" fill="white">
                            <use xlink:href="#path-5"></use>
                        </mask>
                        <g id="Clip-14"></g>
                        <path d="M42.289728,41.711136 L24.529608,0.020736 L17.429568,0.020736 L-0.330552,41.711136 C4.612128,44.655096 10.762488,46.401216 17.429568,46.401216 C18.631128,46.401216 19.815528,46.343736 20.979648,46.233456 C22.143528,46.343736 23.328048,46.401216 24.529608,46.401216 C31.196688,46.401216 37.347048,44.655096 42.289728,41.711136" id="Fill-13" fill="#AA212B" mask="url(#mask-6)"></path>
                    </g>
                    <g id="Group-18">
                        <mask id="mask-8" fill="white">
                            <use xlink:href="#path-7"></use>
                        </mask>
                        <g id="Clip-17"></g>
                        <path d="M42.289728,41.711136 L24.529608,0.020736 L20.979648,8.354016 L17.429568,0.020736 L-0.330552,41.711136 C4.612128,44.655096 10.762488,46.401216 17.429568,46.401216 L24.529608,46.401216 C31.196688,46.401216 37.347048,44.655096 42.289728,41.711136" id="Fill-16" fill="#006837" mask="url(#mask-8)"></path>
                    </g>
                    <g id="Group-21">
                        <mask id="mask-10" fill="white">
                            <use xlink:href="#path-9"></use>
                        </mask>
                        <g id="Clip-20"></g>
                        <path d="M24.529548,46.401276 C31.196748,46.401276 37.346988,44.655156 42.289668,41.711196 L24.529548,0.020676 L6.769428,41.711196 C11.712108,44.655156 17.862468,46.401276 24.529548,46.401276" id="Fill-19" fill="#3A6212" mask="url(#mask-10)"></path>
                    </g>
                    <g id="Group-24">
                        <mask id="mask-12" fill="white">
                            <use xlink:href="#path-11"></use>
                        </mask>
                        <g id="Clip-23"></g>
                        <path d="M17.429568,46.401276 C24.096648,46.401276 30.247008,44.655156 35.189688,41.711196 L17.429568,0.020676 L-0.330552,41.711196 C4.612128,44.655156 10.762488,46.401276 17.429568,46.401276" id="Fill-22" fill="#83B24F" mask="url(#mask-12)"></path>
                    </g>
                    <g id="Group-27">
                        <mask id="mask-14" fill="white">
                            <use xlink:href="#path-13"></use>
                        </mask>
                        <g id="Clip-26"></g>
                        <polygon id="Fill-25" fill="#628C3F" mask="url(#mask-14)" points="42.289728 41.711136 24.529608 0.020736 20.979648 8.354016 35.189688 41.711136"></polygon>
                    </g>
                    <g id="Group-30">
                        <mask id="mask-16" fill="white">
                            <use xlink:href="#path-15"></use>
                        </mask>
                        <g id="Clip-29"></g>
                        <path d="M0.242496,40.365912 C5.084016,43.108392 11.017536,44.724192 17.429616,44.724192 C23.841696,44.724192 29.775096,43.108392 34.616616,40.365912 L17.429616,0.020712 L0.242496,40.365912 Z" id="Fill-28" fill="#FFFFFF" mask="url(#mask-16)"></path>
                    </g>
                    <g id="Group-33">
                        <mask id="mask-18" fill="white">
                            <use xlink:href="#path-17"></use>
                        </mask>
                        <g id="Clip-32"></g>
                        <polyline id="Fill-31" fill="#EADED9" mask="url(#mask-18)" points="41.71668 40.365912 24.52956 0.020712 20.9796 8.353992 34.61664 40.365912"></polyline>
                    </g>
                    <g id="Group-36">
                        <mask id="mask-20" fill="white">
                            <use xlink:href="#path-19"></use>
                        </mask>
                        <g id="Clip-35"></g>
                        <path d="M0.820992,39.007884 C5.553432,41.555964 11.270592,43.046964 17.429592,43.046964 C23.588592,43.046964 29.305752,41.555964 34.038192,39.007884 L17.429592,0.020724 L0.820992,39.007884 Z" id="Fill-34" fill="#C1272D" mask="url(#mask-20)"></path>
                    </g>
                    <g id="Group-39">
                        <mask id="mask-22" fill="white">
                            <use xlink:href="#path-21"></use>
                        </mask>
                        <g id="Clip-38"></g>
                        <polyline id="Fill-37" fill="#AA212B" mask="url(#mask-22)" points="41.138124 39.007884 24.529524 0.020724 20.979564 8.354004 34.038084 39.007884"></polyline>
                    </g>
                    <g id="Group-42">
                        <mask id="mask-24" fill="white">
                            <use xlink:href="#path-23"></use>
                        </mask>
                        <g id="Clip-41"></g>
                        <path d="M0.820992,39.007884 C5.553432,41.555964 11.270592,43.046964 17.429592,43.046964 C23.588592,43.046964 29.305752,41.555964 34.038192,39.007884 L17.429592,0.020724 L0.820992,39.007884 Z" id="Fill-40" fill="#C1272D" mask="url(#mask-24)"></path>
                    </g>
                    <g id="Group-45">
                        <mask id="mask-26" fill="white">
                            <use xlink:href="#path-25"></use>
                        </mask>
                        <g id="Clip-44"></g>
                        <polyline id="Fill-43" fill="#AA212B" mask="url(#mask-26)" points="41.138124 39.007884 24.529524 0.020724 20.979564 8.354004 34.038084 39.007884"></polyline>
                    </g>
                    <g id="Group-48">
                        <mask id="mask-28" fill="white">
                            <use xlink:href="#path-27"></use>
                        </mask>
                        <g id="Clip-47"></g>
                        <path d="M0.820992,39.007884 C5.553432,41.555964 11.270592,43.046964 17.429592,43.046964 C23.588592,43.046964 29.305752,41.555964 34.038192,39.007884 L17.429592,0.020724 L0.820992,39.007884 Z" id="Fill-46" fill="#E84D40" mask="url(#mask-28)"></path>
                    </g>
                    <g id="Group-51">
                        <mask id="mask-30" fill="white">
                            <use xlink:href="#path-29"></use>
                        </mask>
                        <g id="Clip-50"></g>
                        <path d="M17.429508,41.752452 C11.464068,41.752452 5.915868,40.350492 1.272828,37.947252 L0.821028,39.007932 C5.553348,41.555892 11.270508,43.047012 17.429508,43.047012 C23.588628,43.047012 29.305668,41.555892 34.038108,39.007932 L33.586308,37.947252 C28.943148,40.350492 23.395068,41.752452 17.429508,41.752452" id="Fill-49" fill="#FFFFFF" mask="url(#mask-30)"></path>
                    </g>
                    <g id="Group-54">
                        <mask id="mask-32" fill="white">
                            <use xlink:href="#path-31"></use>
                        </mask>
                        <g id="Clip-53"></g>
                        <polyline id="Fill-52" fill="#CD1D19" mask="url(#mask-32)" points="41.138124 39.007884 24.529524 0.020724 17.429604 0.020724 34.038084 39.007884"></polyline>
                    </g>
                    <g id="Group-57">
                        <mask id="mask-34" fill="white">
                            <use xlink:href="#path-33"></use>
                        </mask>
                        <g id="Clip-56"></g>
                        <polyline id="Fill-55" fill="#CD1D19" mask="url(#mask-34)" points="34.038144 39.007884 20.979624 8.354004 24.529584 0.020724 41.138184 39.007884"></polyline>
                    </g>
                    <g id="Group-60">
                        <mask id="mask-36" fill="white">
                            <use xlink:href="#path-35"></use>
                        </mask>
                        <g id="Clip-59"></g>
                        <path d="M23.061192,36.185664 C23.061192,37.079064 22.592832,37.443744 22.015032,37.443744 C21.437232,37.443744 20.968752,37.079064 20.968752,36.185664 C20.968752,35.292264 22.015032,34.568064 22.015032,34.568064 C22.015032,34.568064 23.061192,35.292264 23.061192,36.185664" id="Fill-58" fill="#42210B" mask="url(#mask-36)"></path>
                    </g>
                    <g id="Group-63">
                        <mask id="mask-38" fill="white">
                            <use xlink:href="#path-37"></use>
                        </mask>
                        <g id="Clip-62"></g>
                        <polyline id="Fill-61" fill="#FFFFFF" mask="url(#mask-38)" points="41.162556 39.007884 40.710636 37.947204 33.586236 37.947204 34.038156 39.007884"></polyline>
                    </g>
                    <g id="Group-66">
                        <mask id="mask-40" fill="white">
                            <use xlink:href="#path-39"></use>
                        </mask>
                        <g id="Clip-65"></g>
                        <path d="M18.542964,24.90306 C18.542964,25.79646 18.074604,26.16114 17.496804,26.16114 C16.919004,26.16114 16.450524,25.79646 16.450524,24.90306 C16.450524,24.00966 17.496804,23.28546 17.496804,23.28546 C17.496804,23.28546 18.542964,24.00966 18.542964,24.90306" id="Fill-64" fill="#42210B" mask="url(#mask-40)"></path>
                    </g>
                    <g id="Group-69">
                        <mask id="mask-42" fill="white">
                            <use xlink:href="#path-41"></use>
                        </mask>
                        <g id="Clip-68"></g>
                        <path d="M13.379328,28.562292 C13.379328,29.455692 12.910968,29.820372 12.333168,29.820372 C11.755368,29.820372 11.286888,29.455692 11.286888,28.562292 C11.286888,27.668892 12.333168,26.944692 12.333168,26.944692 C12.333168,26.944692 13.379328,27.668892 13.379328,28.562292" id="Fill-67" fill="#42210B" mask="url(#mask-42)"></path>
                    </g>
                </g>
                <path d="M83.603712,0.103188 L83.441112,0.103188 L78.757992,0.103188 L78.595392,0.103188 C77.173992,0.103188 75.895752,0.948108 75.338832,2.255628 L58.561752,41.638548 L58.545912,41.675748 C57.826032,43.365588 58.491072,45.286548 60.092232,46.163868 C60.140952,46.193148 60.184632,46.218228 60.229992,46.242348 C60.307392,46.283268 60.380832,46.320108 60.454152,46.356948 L60.562632,46.411668 C60.702312,46.483668 60.843672,46.556268 60.986472,46.627188 C61.182192,46.724388 61.380672,46.819188 61.579752,46.913268 L61.667592,46.954788 C61.778712,47.007468 61.890072,47.060268 62.002392,47.111508 C62.212032,47.207028 62.424792,47.299428 62.637912,47.391348 L62.757552,47.443428 C62.851872,47.484468 62.945952,47.525508 63.041232,47.565108 C63.281352,47.665188 63.525192,47.761308 63.769512,47.856588 L63.881232,47.901108 C63.953952,47.930268 64.026792,47.959308 64.100352,47.987148 C64.466232,48.125868 64.829712,48.257268 65.181192,48.377628 C65.217792,48.389988 65.253312,48.401508 65.288832,48.412788 L65.319432,48.422628 C65.658912,48.537468 65.974632,48.639708 66.282792,48.734388 C66.368232,48.760668 66.454992,48.785748 66.541752,48.810708 L66.669672,48.847788 C66.914832,48.920028 67.158672,48.991668 67.405392,49.058868 C67.515072,49.088748 67.623912,49.116588 67.733112,49.144548 L67.859112,49.176948 C68.088312,49.236108 68.317032,49.294908 68.548152,49.350108 C68.684472,49.382628 68.821632,49.413348 68.958672,49.444068 L69.033672,49.460868 C69.257832,49.511268 69.483072,49.560588 69.709512,49.607148 C69.876552,49.641468 70.044792,49.674108 70.213392,49.706268 C70.437912,49.749348 70.663632,49.790628 70.890552,49.829628 C71.060712,49.859148 71.232072,49.887588 71.404272,49.914828 C71.631792,49.950948 71.861352,49.984668 72.091872,50.016828 C72.262872,50.040948 72.434592,50.064708 72.607392,50.086548 C72.841872,50.116188 73.077792,50.142468 73.314312,50.168028 L73.415712,50.178948 C73.551192,50.193828 73.686912,50.208348 73.823232,50.221308 C74.071272,50.244708 74.320872,50.263788 74.570352,50.282628 L74.710272,50.293548 C74.823792,50.302428 74.937072,50.311308 75.051072,50.318508 C75.331632,50.336148 75.613752,50.348388 75.896112,50.360148 L76.028352,50.366388 C76.116192,50.370708 76.204392,50.375028 76.292832,50.377788 C76.720872,50.391348 77.140392,50.398188 77.538912,50.398308 L84.649632,50.398308 C85.058832,50.398188 85.478232,50.391348 85.907112,50.377788 C85.994712,50.375028 86.082792,50.370708 86.170872,50.366388 L86.304312,50.360028 C86.585712,50.348388 86.867592,50.336148 87.147672,50.318628 C87.262152,50.311308 87.375672,50.302428 87.489312,50.293428 L87.628752,50.282628 C87.878592,50.263788 88.128192,50.244708 88.375872,50.221308 C88.511592,50.208468 88.646472,50.193828 88.781472,50.179308 L88.883952,50.168148 C89.121432,50.142468 89.357592,50.116188 89.592312,50.086428 C89.764512,50.064708 89.936352,50.040948 90.108192,50.016828 C90.337872,49.984668 90.567432,49.950948 90.795912,49.914588 C90.966552,49.887708 91.137672,49.859148 91.308552,49.829748 C91.535592,49.790508 91.760712,49.749348 91.985112,49.706508 C92.154672,49.673988 92.323272,49.641228 92.490912,49.606908 C92.716392,49.560588 92.941392,49.511268 93.165792,49.460748 L93.252192,49.441428 C93.385032,49.411668 93.517872,49.381788 93.649992,49.350348 C93.882432,49.294908 94.111512,49.236108 94.340712,49.176828 L94.471632,49.143228 C94.578912,49.115628 94.686312,49.088148 94.792752,49.059228 C95.040312,48.991668 95.284032,48.920028 95.527872,48.848148 L95.652552,48.812028 C95.740992,48.786588 95.829312,48.761148 95.916792,48.734268 C96.221472,48.640668 96.537672,48.538428 96.882672,48.421788 L96.910272,48.412908 C96.946752,48.401268 96.982992,48.389508 97.018992,48.377148 C97.369512,48.257028 97.733232,48.125748 98.098872,47.987028 C98.172072,47.959428 98.245752,47.930028 98.319312,47.900628 L98.429352,47.856708 C98.674392,47.760948 98.918112,47.665068 99.158712,47.564868 C99.254952,47.524788 99.349752,47.483508 99.444552,47.441988 L99.561672,47.391108 C99.774432,47.299308 99.987552,47.206908 100.197552,47.111028 C100.310952,47.059428 100.423872,47.005908 100.537032,46.952268 L100.619472,46.913268 C100.818432,46.819188 101.016792,46.724388 101.213352,46.626948 C101.354352,46.556748 101.494632,46.484868 101.634912,46.412628 L101.745072,46.356948 C101.818512,46.320108 101.891592,46.283268 101.963832,46.245108 C102.013272,46.218948 102.060672,46.191828 102.107232,46.163868 C103.708032,45.286428 104.373072,43.365468 103.653672,41.677068 L103.636872,41.637708 L103.178592,40.561788 C103.154112,40.466508 103.122432,40.372548 103.083192,40.280508 L102.631392,39.219828 C102.592152,39.128028 102.546432,39.040188 102.495072,38.956908 L86.860152,2.255508 C86.303352,0.948108 85.024992,0.103188 83.603712,0.103188 M83.603712,2.060508 C84.237912,2.060508 84.811032,2.439228 85.059432,3.022668 L100.806312,39.986988 L100.830672,39.986988 L101.282472,41.047668 L101.257992,41.047668 L101.836632,42.405708 L101.853072,42.444228 C102.173472,43.196148 101.870472,44.072148 101.149272,44.456748 C101.144832,44.459028 101.140512,44.461308 101.136192,44.463588 C101.107632,44.480868 101.079672,44.498628 101.049672,44.514468 C100.948392,44.567988 100.844232,44.618388 100.741992,44.670948 C100.609152,44.739228 100.476432,44.807508 100.342272,44.874108 C100.157472,44.965908 99.970512,45.055068 99.783072,45.143748 C99.650592,45.206268 99.518712,45.269508 99.384912,45.330468 C99.187032,45.420708 98.986272,45.507588 98.785512,45.594348 C98.658912,45.648948 98.533512,45.704988 98.405832,45.758148 C98.178672,45.852948 97.948272,45.943308 97.717752,46.033428 C97.613232,46.074228 97.510152,46.117188 97.404912,46.157028 C97.067952,46.284828 96.727632,46.408068 96.383592,46.525908 C96.341592,46.540308 96.298392,46.553268 96.256152,46.567548 C95.953632,46.669788 95.649072,46.768908 95.341752,46.863348 C95.220192,46.900788 95.096712,46.934748 94.974312,46.970748 C94.743312,47.038908 94.512432,47.106948 94.278672,47.170668 C94.136832,47.209308 93.993312,47.244828 93.850632,47.281908 C93.633312,47.338068 93.415992,47.393988 93.196512,47.446308 C93.043992,47.482668 92.890392,47.516628 92.736912,47.551068 C92.524152,47.598828 92.311032,47.645748 92.096352,47.689788 C91.937592,47.722428 91.777752,47.753268 91.617552,47.783988 C91.404672,47.824668 91.190952,47.863788 90.976272,47.900868 C90.814272,47.928828 90.651792,47.955828 90.488712,47.981628 C90.272112,48.016068 90.054432,48.047988 89.836152,48.078588 C89.673312,48.101388 89.510472,48.124068 89.346792,48.144708 C89.123832,48.172908 88.899552,48.197868 88.674792,48.222108 C88.513872,48.239388 88.353312,48.257388 88.191552,48.272748 C87.956112,48.294948 87.718872,48.313068 87.481752,48.330948 C87.329352,48.342348 87.177792,48.355548 87.024672,48.365148 C86.758632,48.381948 86.490672,48.393468 86.222712,48.404508 C86.096712,48.409788 85.971672,48.417468 85.845432,48.421428 C85.452072,48.433908 85.056912,48.440988 84.659952,48.440988 L84.649632,48.440988 L77.549592,48.440988 L77.539272,48.440988 C77.142072,48.440988 76.747032,48.433908 76.353672,48.421428 C76.227552,48.417468 76.102752,48.409788 75.976872,48.404508 C75.708552,48.393468 75.440592,48.381948 75.174312,48.365148 C75.021432,48.355548 74.869872,48.342348 74.717472,48.330948 C74.480352,48.313068 74.243112,48.294948 74.007432,48.272748 C73.845792,48.257388 73.685232,48.239388 73.524432,48.222108 C73.299672,48.197868 73.075512,48.172908 72.852192,48.144708 C72.688632,48.124068 72.525912,48.101388 72.363072,48.078588 C72.144552,48.047988 71.926872,48.016068 71.710392,47.981628 C71.547312,47.955828 71.385072,47.928828 71.223192,47.900868 C71.008152,47.863788 70.794192,47.824668 70.581072,47.783868 C70.421232,47.753268 70.261632,47.722428 70.103112,47.689908 C69.888432,47.645748 69.675072,47.598828 69.462312,47.551068 C69.308712,47.516628 69.154872,47.482548 69.002112,47.446188 C68.783232,47.393988 68.566512,47.338308 68.349792,47.282148 C68.206512,47.245068 68.062632,47.209308 67.920312,47.170548 C67.686432,47.106828 67.455432,47.038788 67.224072,46.970628 C67.102152,46.934628 66.978912,46.900788 66.857712,46.863468 C66.550752,46.769148 66.246672,46.670148 65.944632,46.568028 C65.901792,46.553508 65.858112,46.540428 65.815272,46.525788 C65.471352,46.408068 65.131152,46.284828 64.794192,46.157028 C64.689072,46.117188 64.586112,46.074228 64.481472,46.033428 C64.250952,45.943428 64.020672,45.852948 63.793392,45.758148 C63.665472,45.704988 63.540072,45.648828 63.413472,45.594228 C63.212472,45.507588 63.011952,45.420708 62.814192,45.330468 C62.680392,45.269508 62.548512,45.206148 62.416032,45.143628 C62.228592,45.055068 62.041632,44.965788 61.856952,44.874108 C61.722792,44.807508 61.589952,44.739228 61.457232,44.670948 C61.354992,44.618388 61.250712,44.567988 61.149312,44.514468 C61.119552,44.498628 61.091592,44.480868 61.063032,44.463708 C61.058592,44.461308 61.054152,44.459028 61.049952,44.456748 C60.328752,44.072148 60.025632,43.196148 60.346032,42.444228 L60.362472,42.405948 L60.362472,42.405708 L77.139672,3.022668 C77.388072,2.439228 77.961192,2.060508 78.595392,2.060508 L78.757992,2.060508 L83.441112,2.060508 L83.603712,2.060508" id="Fill-71" fill="#000000"></path>
                <g id="Group-130" transform="translate(39.120000, 5.039760)">
                    <g id="Group-75">
                        <mask id="mask-44" fill="white">
                            <use xlink:href="#path-43"></use>
                        </mask>
                        <g id="Clip-74"></g>
                        <path d="M42.190464,41.72532 L24.430344,0.03492 L17.330304,0.03492 L-0.429816,41.72532 C4.512864,44.66928 10.663224,46.4154 17.330304,46.4154 C18.531864,46.4154 19.716384,46.35792 20.880264,46.24764 C22.044264,46.35792 23.228784,46.4154 24.430344,46.4154 C31.097424,46.4154 37.247784,44.66928 42.190464,41.72532" id="Fill-73" fill="#AA212B" mask="url(#mask-44)"></path>
                    </g>
                    <g id="Group-78">
                        <mask id="mask-46" fill="white">
                            <use xlink:href="#path-45"></use>
                        </mask>
                        <g id="Clip-77"></g>
                        <path d="M42.190464,41.72532 L24.430344,0.03492 L20.880264,8.3682 L17.330304,0.03492 L-0.429816,41.72532 C4.512864,44.66928 10.663224,46.4154 17.330304,46.4154 L24.430344,46.4154 C31.097424,46.4154 37.247784,44.66928 42.190464,41.72532" id="Fill-76" fill="#006837" mask="url(#mask-46)"></path>
                    </g>
                    <g id="Group-81">
                        <mask id="mask-48" fill="white">
                            <use xlink:href="#path-47"></use>
                        </mask>
                        <g id="Clip-80"></g>
                        <path d="M24.430344,46.41546 C31.097424,46.41546 37.247784,44.66934 42.190464,41.72538 L24.430344,0.03486 L6.670224,41.72538 C11.612904,44.66934 17.763264,46.41546 24.430344,46.41546" id="Fill-79" fill="#3A6212" mask="url(#mask-48)"></path>
                    </g>
                    <g id="Group-84">
                        <mask id="mask-50" fill="white">
                            <use xlink:href="#path-49"></use>
                        </mask>
                        <g id="Clip-83"></g>
                        <path d="M17.330304,46.41546 C23.997504,46.41546 30.147744,44.66934 35.090424,41.72538 L17.330304,0.03486 L-0.429816,41.72538 C4.512864,44.66934 10.663224,46.41546 17.330304,46.41546" id="Fill-82" fill="#83B24F" mask="url(#mask-50)"></path>
                    </g>
                    <g id="Group-87">
                        <mask id="mask-52" fill="white">
                            <use xlink:href="#path-51"></use>
                        </mask>
                        <g id="Clip-86"></g>
                        <polygon id="Fill-85" fill="#628C3F" mask="url(#mask-52)" points="42.190464 41.72532 24.430344 0.03492 20.880264 8.3682 35.090424 41.72532"></polygon>
                    </g>
                    <g id="Group-90">
                        <mask id="mask-54" fill="white">
                            <use xlink:href="#path-53"></use>
                        </mask>
                        <g id="Clip-89"></g>
                        <path d="M0.143232,40.380096 C4.984752,43.122576 10.918272,44.738256 17.330352,44.738256 C23.742432,44.738256 29.675832,43.122576 34.517472,40.380096 L17.330352,0.034896 L0.143232,40.380096 Z" id="Fill-88" fill="#FFFFFF" mask="url(#mask-54)"></path>
                    </g>
                    <g id="Group-93">
                        <mask id="mask-56" fill="white">
                            <use xlink:href="#path-55"></use>
                        </mask>
                        <g id="Clip-92"></g>
                        <polyline id="Fill-91" fill="#EADED9" mask="url(#mask-56)" points="41.617416 40.380096 24.430296 0.034896 20.880336 8.368176 34.517376 40.380096"></polyline>
                    </g>
                    <g id="Group-96">
                        <mask id="mask-58" fill="white">
                            <use xlink:href="#path-57"></use>
                        </mask>
                        <g id="Clip-95"></g>
                        <path d="M0.721788,39.022068 C5.454228,41.570148 11.171268,43.061148 17.330268,43.061148 C23.489388,43.061148 29.206548,41.570148 33.938868,39.022068 L17.330268,0.034908 L0.721788,39.022068 Z" id="Fill-94" fill="#C1272D" mask="url(#mask-58)"></path>
                    </g>
                    <g id="Group-99">
                        <mask id="mask-60" fill="white">
                            <use xlink:href="#path-59"></use>
                        </mask>
                        <g id="Clip-98"></g>
                        <polyline id="Fill-97" fill="#AA212B" mask="url(#mask-60)" points="41.03892 39.022068 24.43032 0.034908 20.88036 8.368188 33.93888 39.022068"></polyline>
                    </g>
                    <g id="Group-102">
                        <mask id="mask-62" fill="white">
                            <use xlink:href="#path-61"></use>
                        </mask>
                        <g id="Clip-101"></g>
                        <path d="M0.721788,39.022068 C5.454228,41.570148 11.171268,43.061148 17.330268,43.061148 C23.489388,43.061148 29.206548,41.570148 33.938868,39.022068 L17.330268,0.034908 L0.721788,39.022068 Z" id="Fill-100" fill="#C1272D" mask="url(#mask-62)"></path>
                    </g>
                    <g id="Group-105">
                        <mask id="mask-64" fill="white">
                            <use xlink:href="#path-63"></use>
                        </mask>
                        <g id="Clip-104"></g>
                        <polyline id="Fill-103" fill="#AA212B" mask="url(#mask-64)" points="41.03892 39.022068 24.43032 0.034908 20.88036 8.368188 33.93888 39.022068"></polyline>
                    </g>
                    <g id="Group-108">
                        <mask id="mask-66" fill="white">
                            <use xlink:href="#path-65"></use>
                        </mask>
                        <g id="Clip-107"></g>
                        <path d="M0.721788,39.022068 C5.454228,41.570148 11.171268,43.061148 17.330268,43.061148 C23.489388,43.061148 29.206548,41.570148 33.938868,39.022068 L17.330268,0.034908 L0.721788,39.022068 Z" id="Fill-106" fill="#E84D40" mask="url(#mask-66)"></path>
                    </g>
                    <g id="Group-111">
                        <mask id="mask-68" fill="white">
                            <use xlink:href="#path-67"></use>
                        </mask>
                        <g id="Clip-110"></g>
                        <path d="M17.330304,41.766624 C11.364864,41.766624 5.816664,40.364664 1.173624,37.961424 L0.721704,39.022104 C5.454144,41.570064 11.171304,43.061184 17.330304,43.061184 C23.489304,43.061184 29.206464,41.570064 33.938904,39.022104 L33.487104,37.961424 C28.843944,40.364664 23.295744,41.766624 17.330304,41.766624" id="Fill-109" fill="#FFFFFF" mask="url(#mask-68)"></path>
                    </g>
                    <g id="Group-114">
                        <mask id="mask-70" fill="white">
                            <use xlink:href="#path-69"></use>
                        </mask>
                        <g id="Clip-113"></g>
                        <polyline id="Fill-112" fill="#CD1D19" mask="url(#mask-70)" points="41.03892 39.022068 24.43032 0.034908 17.33028 0.034908 33.93888 39.022068"></polyline>
                    </g>
                    <g id="Group-117">
                        <mask id="mask-72" fill="white">
                            <use xlink:href="#path-71"></use>
                        </mask>
                        <g id="Clip-116"></g>
                        <polyline id="Fill-115" fill="#CD1D19" mask="url(#mask-72)" points="33.93888 39.022068 20.88036 8.368188 24.43032 0.034908 41.03892 39.022068"></polyline>
                    </g>
                    <g id="Group-120">
                        <mask id="mask-74" fill="white">
                            <use xlink:href="#path-73"></use>
                        </mask>
                        <g id="Clip-119"></g>
                        <path d="M22.961988,36.199836 C22.961988,37.093236 22.493508,37.457916 21.915708,37.457916 C21.337908,37.457916 20.869548,37.093236 20.869548,36.199836 C20.869548,35.306436 21.915708,34.582236 21.915708,34.582236 C21.915708,34.582236 22.961988,35.306436 22.961988,36.199836" id="Fill-118" fill="#42210B" mask="url(#mask-74)"></path>
                    </g>
                    <g id="Group-123">
                        <mask id="mask-76" fill="white">
                            <use xlink:href="#path-75"></use>
                        </mask>
                        <g id="Clip-122"></g>
                        <polyline id="Fill-121" fill="#FFFFFF" mask="url(#mask-76)" points="41.063304 39.022068 40.611504 37.961388 33.487104 37.961388 33.938904 39.022068"></polyline>
                    </g>
                    <g id="Group-126">
                        <mask id="mask-78" fill="white">
                            <use xlink:href="#path-77"></use>
                        </mask>
                        <g id="Clip-125"></g>
                        <path d="M18.44376,24.917232 C18.44376,25.810632 17.9754,26.175312 17.3976,26.175312 C16.8198,26.175312 16.35132,25.810632 16.35132,24.917232 C16.35132,24.023832 17.3976,23.299632 17.3976,23.299632 C17.3976,23.299632 18.44376,24.023832 18.44376,24.917232" id="Fill-124" fill="#42210B" mask="url(#mask-78)"></path>
                    </g>
                    <g id="Group-129">
                        <mask id="mask-80" fill="white">
                            <use xlink:href="#path-79"></use>
                        </mask>
                        <g id="Clip-128"></g>
                        <path d="M13.280136,28.57644 C13.280136,29.46984 12.811776,29.83452 12.233856,29.83452 C11.656056,29.83452 11.187696,29.46984 11.187696,28.57644 C11.187696,27.68304 12.233856,26.95884 12.233856,26.95884 C12.233856,26.95884 13.280136,27.68304 13.280136,28.57644" id="Fill-127" fill="#42210B" mask="url(#mask-80)"></path>
                    </g>
                </g>
                <path d="M62.504508,3.11736 L62.341908,3.11736 L57.658788,3.11736 L57.496188,3.11736 C56.074788,3.11736 54.796548,3.9624 54.239748,5.27004 L37.462548,44.6526 L37.445868,44.69208 C36.727068,46.37904 37.391508,48.29916 38.991108,49.17696 C39.042828,49.20816 39.090708,49.2354 39.139908,49.26132 C39.208068,49.29732 39.281388,49.33428 39.354948,49.37124 L39.463428,49.42596 C39.603348,49.49796 39.743988,49.57032 39.886188,49.641 C40.083228,49.7388 40.281228,49.83324 40.479828,49.92708 L40.573548,49.9716 C40.682628,50.02332 40.791828,50.07492 40.902228,50.1252 C41.112948,50.22132 41.325588,50.31348 41.538828,50.4054 L41.655348,50.45616 C41.749908,50.49756 41.844948,50.53884 41.940948,50.57892 C42.181908,50.67936 42.425988,50.77536 42.670308,50.87076 L42.780828,50.9148 C42.854148,50.9442 42.927708,50.97348 43.002228,51.0018 C43.366788,51.14004 43.730508,51.27132 44.081988,51.39168 C44.116908,51.40368 44.154468,51.4158 44.192148,51.4278 L44.220588,51.43692 C44.564508,51.55332 44.880588,51.65556 45.184548,51.7488 C45.269028,51.77472 45.355788,51.79992 45.442548,51.82488 L45.570468,51.86196 C45.815268,51.9342 46.059348,52.00572 46.306188,52.07304 C46.415868,52.10292 46.526748,52.13136 46.637748,52.15968 L46.760508,52.19112 C46.988748,52.25028 47.217228,52.30896 47.448228,52.36416 C47.579148,52.39524 47.710068,52.42476 47.840988,52.45404 L47.933268,52.4748 C48.158628,52.52544 48.383628,52.57476 48.610068,52.62132 C48.777588,52.65564 48.945588,52.68828 49.113948,52.72044 C49.338708,52.7634 49.564428,52.80468 49.791348,52.8438 C49.961508,52.8732 50.132868,52.90176 50.305068,52.929 C50.532588,52.96512 50.762148,52.99884 50.992668,53.031 C51.163308,53.055 51.335388,53.07888 51.507948,53.10072 C51.742668,53.13036 51.979188,53.15676 52.215948,53.18232 L52.316508,53.19324 C52.451988,53.20788 52.587468,53.22252 52.723788,53.23548 C52.972308,53.25888 53.221548,53.27796 53.471508,53.2968 L53.611428,53.30772 C53.724588,53.3166 53.837988,53.32548 53.951868,53.33268 C54.232668,53.35032 54.514548,53.36256 54.796908,53.37432 L54.931308,53.38056 C55.018068,53.38488 55.104828,53.38908 55.191948,53.39196 C55.628868,53.40564 56.036628,53.41236 56.439468,53.41248 L63.550428,53.41248 C63.963948,53.41236 64.371588,53.40564 64.807548,53.39196 C64.895868,53.3892 64.982868,53.38488 65.069748,53.38056 L65.205108,53.3742 C65.486508,53.36256 65.768388,53.35032 66.048228,53.33268 C66.162948,53.32548 66.276468,53.3166 66.389748,53.30772 L66.529548,53.2968 C66.779148,53.27796 67.028748,53.25888 67.276668,53.23548 C67.412148,53.22264 67.547028,53.208 67.681908,53.19336 L67.784748,53.18232 C68.021748,53.15676 68.258148,53.13036 68.493108,53.1006 C68.665068,53.07888 68.837028,53.05512 69.008988,53.03088 C69.238788,52.99884 69.468228,52.96512 69.696708,52.92876 C69.867708,52.90176 70.039188,52.8732 70.210428,52.84368 C70.436388,52.80468 70.661748,52.7634 70.886148,52.72056 C71.054508,52.6884 71.223108,52.65576 71.390508,52.62132 C71.617788,52.57464 71.842548,52.52532 72.066828,52.4748 L72.132948,52.46004 C72.272868,52.42872 72.412788,52.39752 72.551748,52.36428 C72.783348,52.30896 73.012548,52.25016 73.241748,52.19088 L73.368468,52.15824 C73.477068,52.13052 73.585548,52.10268 73.693428,52.07328 C73.941108,52.00572 74.185428,51.9342 74.429508,51.86208 L74.553348,51.8262 C74.641788,51.80076 74.730108,51.7752 74.817708,51.74844 C75.123708,51.65436 75.440028,51.552 75.783828,51.43572 L75.810468,51.4272 C75.846228,51.4158 75.881748,51.4044 75.917028,51.39228 C76.269228,51.27168 76.632708,51.1404 76.999188,51.00156 C77.073348,50.97348 77.145948,50.94444 77.218428,50.91528 L77.330148,50.87088 C77.575428,50.775 77.819388,50.67912 78.059988,50.5788 C78.156468,50.5386 78.251988,50.49696 78.347628,50.4552 L78.462708,50.40516 C78.674988,50.31348 78.888348,50.22108 79.098348,50.12508 C79.211628,50.0736 79.324548,50.02008 79.437228,49.96656 L79.520028,49.92744 C79.719228,49.83336 79.917588,49.73868 80.113788,49.64112 C80.256108,49.57056 80.396988,49.49808 80.538108,49.42548 L80.647188,49.3704 C80.720388,49.33368 80.793828,49.29672 80.865828,49.25856 C80.914548,49.23276 80.962308,49.2054 81.009588,49.17696 C82.607868,48.30336 83.274468,46.38084 82.554588,44.69112 L82.537548,44.6514 L82.079388,43.57596 C82.054908,43.48068 82.023228,43.3866 81.983988,43.29468 L81.532188,42.23412 C81.492828,42.14184 81.446988,42.05376 81.395268,41.97024 L65.760948,5.2698 C65.204148,3.9624 63.925788,3.11736 62.504508,3.11736 M62.504508,5.07456 C63.138708,5.07456 63.711828,5.4534 63.960228,6.03684 L79.706988,43.00116 L79.731468,43.00116 L80.183268,44.06184 L80.158908,44.06184 L80.737428,45.41976 L80.753868,45.45828 C81.074268,46.2102 80.771268,47.08632 80.049828,47.47092 C80.045628,47.4732 80.041308,47.47548 80.037108,47.47776 C80.008428,47.49492 79.980348,47.5128 79.950468,47.52864 C79.849188,47.58228 79.744788,47.63244 79.642788,47.68512 C79.509948,47.7534 79.377228,47.82168 79.242948,47.8884 C79.058268,47.98008 78.871308,48.06924 78.683868,48.1578 C78.551388,48.22044 78.419508,48.28356 78.285708,48.34464 C78.087828,48.43488 77.887188,48.52176 77.686308,48.60852 C77.559708,48.66312 77.434188,48.71916 77.306508,48.77232 C77.079468,48.86712 76.849068,48.95748 76.618548,49.0476 C76.514028,49.0884 76.410948,49.13136 76.305708,49.1712 C75.968748,49.299 75.628428,49.42224 75.284508,49.54008 C75.242148,49.55448 75.199188,49.56744 75.156828,49.5816 C74.854428,49.68384 74.549868,49.78308 74.242548,49.87752 C74.120988,49.91484 73.997508,49.94892 73.875108,49.98492 C73.644108,50.0532 73.412988,50.121 73.179228,50.18484 C73.037388,50.22336 72.894108,50.259 72.751308,50.29608 C72.534108,50.35224 72.316788,50.40816 72.097308,50.46048 C71.944788,50.49696 71.791188,50.5308 71.637468,50.56524 C71.424948,50.613 71.211828,50.6598 70.997148,50.70396 C70.838388,50.7366 70.678428,50.76756 70.518348,50.79816 C70.305468,50.83884 70.091748,50.87796 69.877068,50.91504 C69.715068,50.943 69.552588,50.97 69.389508,50.9958 C69.172908,51.03012 68.955228,51.06216 68.737068,51.09264 C68.574108,51.11556 68.411268,51.13824 68.247468,51.15876 C68.024628,51.18708 67.800228,51.21204 67.575588,51.23628 C67.414668,51.25356 67.254108,51.27156 67.092468,51.28692 C66.857028,51.30912 66.619668,51.32724 66.382548,51.34512 C66.230148,51.35652 66.078588,51.3696 65.925468,51.37932 C65.659548,51.396 65.391468,51.40752 65.123508,51.41868 C64.997508,51.42396 64.872588,51.43164 64.746228,51.43572 C64.352868,51.44796 63.957708,51.45504 63.560628,51.45516 L63.550428,51.45516 L56.450268,51.45516 L56.439828,51.45516 C56.042748,51.45504 55.647588,51.44796 55.254348,51.43572 C55.128348,51.43164 55.003548,51.42396 54.877668,51.41868 C54.609348,51.40752 54.341388,51.396 54.075108,51.37932 C53.922228,51.3696 53.770668,51.35652 53.618268,51.34512 C53.380908,51.32724 53.143908,51.30912 52.908228,51.28692 C52.746588,51.27156 52.586028,51.25356 52.425228,51.23628 C52.200468,51.21204 51.976068,51.18708 51.752988,51.15876 C51.589308,51.13824 51.426588,51.11556 51.263868,51.09264 C51.045348,51.06216 50.827668,51.03012 50.611188,50.9958 C50.448108,50.97 50.285868,50.943 50.123988,50.91504 C49.908948,50.87796 49.694988,50.83884 49.481868,50.79804 C49.322028,50.76744 49.162428,50.7366 49.003668,50.70396 C48.788988,50.65992 48.575868,50.61312 48.363108,50.56536 C48.209508,50.5308 48.055668,50.49684 47.902908,50.46036 C47.684028,50.40816 47.467308,50.35236 47.250588,50.29632 C47.107188,50.25924 46.963308,50.22348 46.821108,50.18472 C46.587228,50.121 46.356228,50.05308 46.124868,49.9848 C46.002948,49.9488 45.879708,49.91484 45.758508,49.87764 C45.451428,49.78344 45.147468,49.68432 44.845428,49.58208 C44.802588,49.56768 44.758908,49.55472 44.716068,49.53996 C44.372148,49.42224 44.031948,49.299 43.694988,49.1712 C43.589628,49.13136 43.486908,49.0884 43.382268,49.0476 C43.151748,48.9576 42.921228,48.86712 42.694188,48.77244 C42.566388,48.71916 42.440748,48.663 42.314268,48.6084 C42.113268,48.52164 41.912868,48.43488 41.714988,48.34476 C41.581188,48.28356 41.449308,48.22044 41.316708,48.1578 C41.129388,48.06924 40.942428,47.98008 40.757508,47.8884 C40.623348,47.82168 40.490748,47.7534 40.358148,47.68512 C40.255668,47.63244 40.151508,47.58216 40.050108,47.52864 C40.020108,47.5128 39.992268,47.49492 39.963828,47.47788 C39.959388,47.4756 39.954948,47.4732 39.950748,47.47092 C39.229428,47.08632 38.926548,46.21032 39.246828,45.4584 L39.263028,45.42012 C39.263268,45.42 39.263268,45.41988 39.263268,45.41988 L39.263268,45.41976 L56.040468,6.03684 C56.288868,5.4534 56.861868,5.07456 57.496188,5.07456 L57.658788,5.07456 L62.341908,5.07456 L62.504508,5.07456" id="Fill-131" fill="#000000"></path>
                <g id="Group-190" transform="translate(18.000000, 8.039760)">
                    <g id="Group-135">
                        <mask id="mask-82" fill="white">
                            <use xlink:href="#path-81"></use>
                        </mask>
                        <g id="Clip-134"></g>
                        <path d="M42.21126,41.739504 L24.45114,0.048984 L17.3511,0.048984 L-0.40902,41.739504 C4.53366,44.683464 10.68402,46.429584 17.3511,46.429584 C18.55266,46.429584 19.73706,46.372104 20.90118,46.261824 C22.06506,46.372104 23.24958,46.429584 24.45114,46.429584 C31.11822,46.429584 37.26858,44.683464 42.21126,41.739504" id="Fill-133" fill="#AA212B" mask="url(#mask-82)"></path>
                    </g>
                    <g id="Group-138">
                        <mask id="mask-84" fill="white">
                            <use xlink:href="#path-83"></use>
                        </mask>
                        <g id="Clip-137"></g>
                        <path d="M42.21126,41.739504 L24.45114,0.048984 L20.90118,8.382384 L17.3511,0.048984 L-0.40902,41.739504 C4.53366,44.683464 10.68402,46.429584 17.3511,46.429584 L24.45114,46.429584 C31.11822,46.429584 37.26858,44.683464 42.21126,41.739504" id="Fill-136" fill="#006837" mask="url(#mask-84)"></path>
                    </g>
                    <g id="Group-141">
                        <mask id="mask-86" fill="white">
                            <use xlink:href="#path-85"></use>
                        </mask>
                        <g id="Clip-140"></g>
                        <path d="M24.451092,46.429632 C31.118292,46.429632 37.268532,44.683512 42.211212,41.739552 L24.451092,0.049032 L6.690972,41.739552 C11.633652,44.683512 17.784012,46.429632 24.451092,46.429632" id="Fill-139" fill="#3A6212" mask="url(#mask-86)"></path>
                    </g>
                    <g id="Group-144">
                        <mask id="mask-88" fill="white">
                            <use xlink:href="#path-87"></use>
                        </mask>
                        <g id="Clip-143"></g>
                        <path d="M17.351112,46.429632 C24.018192,46.429632 30.168552,44.683512 35.111232,41.739552 L17.351112,0.049032 L-0.409008,41.739552 C4.533672,44.683512 10.684032,46.429632 17.351112,46.429632" id="Fill-142" fill="#83B24F" mask="url(#mask-88)"></path>
                    </g>
                    <g id="Group-147">
                        <mask id="mask-90" fill="white">
                            <use xlink:href="#path-89"></use>
                        </mask>
                        <g id="Clip-146"></g>
                        <polygon id="Fill-145" fill="#628C3F" mask="url(#mask-90)" points="42.21126 41.739504 24.45114 0.048984 20.90118 8.382384 35.11122 41.739504"></polygon>
                    </g>
                    <g id="Group-150">
                        <mask id="mask-92" fill="white">
                            <use xlink:href="#path-91"></use>
                        </mask>
                        <g id="Clip-149"></g>
                        <path d="M0.16404,40.39428 C5.00556,43.13676 10.93908,44.75244 17.35116,44.75244 C23.76324,44.75244 29.69664,43.13676 34.53816,40.39428 L17.35116,0.04908 L0.16404,40.39428 Z" id="Fill-148" fill="#FFFFFF" mask="url(#mask-92)"></path>
                    </g>
                    <g id="Group-153">
                        <mask id="mask-94" fill="white">
                            <use xlink:href="#path-93"></use>
                        </mask>
                        <g id="Clip-152"></g>
                        <polyline id="Fill-151" fill="#EADED9" mask="url(#mask-94)" points="41.638212 40.39428 24.451092 0.04908 20.901132 8.38236 34.538172 40.39428"></polyline>
                    </g>
                    <g id="Group-156">
                        <mask id="mask-96" fill="white">
                            <use xlink:href="#path-95"></use>
                        </mask>
                        <g id="Clip-155"></g>
                        <path d="M0.742536,39.036252 C5.474976,41.584332 11.192136,43.075332 17.351136,43.075332 C23.510136,43.075332 29.227296,41.584332 33.959736,39.036252 L17.351136,0.048972 L0.742536,39.036252 Z" id="Fill-154" fill="#C1272D" mask="url(#mask-96)"></path>
                    </g>
                    <g id="Group-159">
                        <mask id="mask-98" fill="white">
                            <use xlink:href="#path-97"></use>
                        </mask>
                        <g id="Clip-158"></g>
                        <polyline id="Fill-157" fill="#AA212B" mask="url(#mask-98)" points="41.059656 39.036252 24.451056 0.048972 20.901096 8.382372 33.959616 39.036252"></polyline>
                    </g>
                    <g id="Group-162">
                        <mask id="mask-100" fill="white">
                            <use xlink:href="#path-99"></use>
                        </mask>
                        <g id="Clip-161"></g>
                        <path d="M0.742536,39.036252 C5.474976,41.584332 11.192136,43.075332 17.351136,43.075332 C23.510136,43.075332 29.227296,41.584332 33.959736,39.036252 L17.351136,0.048972 L0.742536,39.036252 Z" id="Fill-160" fill="#C1272D" mask="url(#mask-100)"></path>
                    </g>
                    <g id="Group-165">
                        <mask id="mask-102" fill="white">
                            <use xlink:href="#path-101"></use>
                        </mask>
                        <g id="Clip-164"></g>
                        <polyline id="Fill-163" fill="#AA212B" mask="url(#mask-102)" points="41.059656 39.036252 24.451056 0.048972 20.901096 8.382372 33.959616 39.036252"></polyline>
                    </g>
                    <g id="Group-168">
                        <mask id="mask-104" fill="white">
                            <use xlink:href="#path-103"></use>
                        </mask>
                        <g id="Clip-167"></g>
                        <path d="M0.742536,39.036252 C5.474976,41.584332 11.192136,43.075332 17.351136,43.075332 C23.510136,43.075332 29.227296,41.584332 33.959736,39.036252 L17.351136,0.048972 L0.742536,39.036252 Z" id="Fill-166" fill="#E84D40" mask="url(#mask-104)"></path>
                    </g>
                    <g id="Group-171">
                        <mask id="mask-106" fill="white">
                            <use xlink:href="#path-105"></use>
                        </mask>
                        <g id="Clip-170"></g>
                        <path d="M17.351052,41.780808 C11.385612,41.780808 5.837412,40.378848 1.194372,37.975608 L0.742572,39.036288 C5.474892,41.584248 11.192052,43.075368 17.351052,43.075368 C23.510172,43.075368 29.227332,41.584248 33.959652,39.036288 L33.507852,37.975608 C28.864692,40.378848 23.316612,41.780808 17.351052,41.780808" id="Fill-169" fill="#FFFFFF" mask="url(#mask-106)"></path>
                    </g>
                    <g id="Group-174">
                        <mask id="mask-108" fill="white">
                            <use xlink:href="#path-107"></use>
                        </mask>
                        <g id="Clip-173"></g>
                        <polyline id="Fill-172" fill="#CD1D19" mask="url(#mask-108)" points="41.059656 39.036252 24.451056 0.048972 17.351136 0.048972 33.959616 39.036252"></polyline>
                    </g>
                    <g id="Group-177">
                        <mask id="mask-110" fill="white">
                            <use xlink:href="#path-109"></use>
                        </mask>
                        <g id="Clip-176"></g>
                        <polyline id="Fill-175" fill="#CD1D19" mask="url(#mask-110)" points="33.959676 39.036252 20.901156 8.382372 24.451116 0.048972 41.059716 39.036252"></polyline>
                    </g>
                    <g id="Group-180">
                        <mask id="mask-112" fill="white">
                            <use xlink:href="#path-111"></use>
                        </mask>
                        <g id="Clip-179"></g>
                        <path d="M22.982724,36.21402 C22.982724,37.10742 22.514364,37.4721 21.936564,37.4721 C21.358764,37.4721 20.890284,37.10742 20.890284,36.21402 C20.890284,35.32062 21.936564,34.59642 21.936564,34.59642 C21.936564,34.59642 22.982724,35.32062 22.982724,36.21402" id="Fill-178" fill="#42210B" mask="url(#mask-112)"></path>
                    </g>
                    <g id="Group-183">
                        <mask id="mask-114" fill="white">
                            <use xlink:href="#path-113"></use>
                        </mask>
                        <g id="Clip-182"></g>
                        <polyline id="Fill-181" fill="#FFFFFF" mask="url(#mask-114)" points="41.0841 39.036252 40.63218 37.975572 33.50778 37.975572 33.9597 39.036252"></polyline>
                    </g>
                    <g id="Group-186">
                        <mask id="mask-116" fill="white">
                            <use xlink:href="#path-115"></use>
                        </mask>
                        <g id="Clip-185"></g>
                        <path d="M18.464568,24.931416 C18.464568,25.824816 17.996088,26.189496 17.418288,26.189496 C16.840488,26.189496 16.372128,25.824816 16.372128,24.931416 C16.372128,24.038016 17.418288,23.313816 17.418288,23.313816 C17.418288,23.313816 18.464568,24.038016 18.464568,24.931416" id="Fill-184" fill="#42210B" mask="url(#mask-116)"></path>
                    </g>
                    <g id="Group-189">
                        <mask id="mask-118" fill="white">
                            <use xlink:href="#path-117"></use>
                        </mask>
                        <g id="Clip-188"></g>
                        <path d="M13.300872,28.590624 C13.300872,29.484024 12.832512,29.848704 12.254712,29.848704 C11.676912,29.848704 11.208432,29.484024 11.208432,28.590624 C11.208432,27.697224 12.254712,26.973024 12.254712,26.973024 C12.254712,26.973024 13.300872,27.697224 13.300872,28.590624" id="Fill-187" fill="#42210B" mask="url(#mask-118)"></path>
                    </g>
                </g>
                <path d="M41.405136,6.13152 L41.242656,6.13152 L36.559656,6.13152 L36.396936,6.13152 C34.975656,6.13152 33.697296,6.97656 33.140496,8.2842 L16.363296,47.66688 L16.347576,47.7042 C15.627816,49.39344 16.292496,51.31404 17.892696,52.1916 C17.944416,52.22268 17.991456,52.24968 18.040176,52.27524 C18.107616,52.31088 18.180936,52.34784 18.254136,52.38456 L18.362616,52.4394 L18.382656,52.44972 C18.517176,52.51884 18.651336,52.58772 18.787056,52.65516 C18.984216,52.75296 19.182456,52.84764 19.381296,52.94172 L19.475616,52.98636 C19.584816,53.03796 19.693776,53.08956 19.804056,53.13984 C20.013696,53.23548 20.226456,53.32776 20.439576,53.41968 L20.553816,53.46936 C20.649456,53.51112 20.745096,53.55276 20.841576,53.59308 C21.082896,53.69364 21.327096,53.78964 21.571656,53.88516 L21.676776,53.92704 C21.751416,53.95692 21.825936,53.98668 21.901656,54.01536 C22.268016,54.15432 22.631496,54.2856 22.982256,54.40584 C23.018976,54.41832 23.054136,54.42972 23.089536,54.44088 L23.117736,54.45 C23.466096,54.56772 23.781816,54.66984 24.084816,54.76296 C24.171576,54.7896 24.258936,54.81468 24.346056,54.83988 L24.472656,54.87648 C24.715656,54.94836 24.960336,55.02 25.207656,55.08744 C25.316616,55.11708 25.427736,55.14564 25.538736,55.17396 L25.661256,55.2054 C25.889376,55.26444 26.118456,55.32336 26.349816,55.37856 C26.484336,55.41048 26.619456,55.44096 26.754576,55.4712 L26.834496,55.48908 C27.059616,55.5396 27.284616,55.58892 27.510936,55.63548 C27.677976,55.66992 27.846936,55.70256 28.015896,55.73484 C28.239216,55.77756 28.464576,55.81872 28.690776,55.85784 C28.862856,55.88748 29.033376,55.9158 29.204376,55.94304 C29.433936,55.97928 29.663136,56.01312 29.892816,56.04528 C30.065256,56.0694 30.236616,56.09316 30.409176,56.11488 C30.643536,56.14452 30.879936,56.17092 31.116816,56.19648 L31.217856,56.2074 C31.353216,56.22204 31.488456,56.23668 31.624416,56.24964 C31.872696,56.27304 32.122416,56.29224 32.372136,56.31108 L32.518176,56.32236 C32.629776,56.33112 32.741376,56.33988 32.853576,56.34684 C33.132576,56.36448 33.414696,56.37672 33.696936,56.38848 L33.835296,56.39496 C33.920976,56.39928 34.006536,56.40336 34.092696,56.40612 C34.520136,56.41968 34.939776,56.42652 35.340096,56.42664 L42.451056,56.42664 C42.862416,56.42652 43.281936,56.41968 43.708776,56.40612 C43.796736,56.40336 43.883616,56.39904 43.970616,56.39484 L44.105976,56.38836 C44.387376,56.37672 44.669016,56.36448 44.949096,56.34684 C45.062976,56.33976 45.177096,56.33088 45.290976,56.32188 L45.430296,56.31096 C45.680016,56.29212 45.929376,56.27304 46.177296,56.24964 C46.313136,56.2368 46.448136,56.22216 46.583136,56.20752 L46.685496,56.19648 C46.922136,56.17092 47.158176,56.14452 47.392896,56.115 C47.566656,56.09292 47.738136,56.06916 47.909856,56.04516 C48.138816,56.01312 48.368136,55.97928 48.596376,55.94316 C48.768936,55.9158 48.939816,55.88736 49.110696,55.85796 C49.336656,55.81896 49.562256,55.77768 49.786776,55.73484 C49.955496,55.70244 50.124096,55.66992 50.292096,55.63536 C50.517816,55.58892 50.742696,55.53948 50.966856,55.4892 L51.053376,55.46988 C51.186816,55.44 51.320496,55.41 51.453096,55.37832 C51.684216,55.32312 51.913896,55.26432 52.143336,55.2048 L52.268496,55.17264 C52.377456,55.1448 52.486176,55.11684 52.594176,55.08744 C52.841136,55.02024 53.085456,54.94848 53.329536,54.8766 L53.459136,54.83904 C53.545656,54.81408 53.632056,54.78912 53.717736,54.76284 C54.025176,54.6684 54.341616,54.56592 54.685056,54.44976 L54.712176,54.44112 C54.747576,54.42984 54.782856,54.41844 54.817896,54.40644 C55.173576,54.28452 55.537176,54.15324 55.900296,54.0156 C55.973136,53.98788 56.044896,53.95932 56.116536,53.93052 L56.229816,53.88552 C56.476176,53.78916 56.720136,53.69328 56.960736,53.59296 C57.056136,53.55324 57.152136,53.51148 57.247776,53.46972 L57.363336,53.41944 C57.575496,53.32776 57.788016,53.2356 57.998016,53.13996 C58.112616,53.08776 58.224576,53.03472 58.336776,52.98156 L58.421016,52.9416 C58.620096,52.84752 58.818456,52.75272 59.014776,52.65528 C59.156136,52.58496 59.296416,52.51296 59.436936,52.44072 L59.547936,52.38456 C59.621376,52.34784 59.694576,52.31088 59.766816,52.27272 C59.815176,52.24716 59.862456,52.22004 59.908896,52.19208 C61.505256,51.32712 62.176896,49.39932 61.455336,47.7054 L61.437816,47.66448 L60.980136,46.59012 C60.955776,46.49484 60.923976,46.40088 60.884856,46.30884 L60.432936,45.24828 C60.393576,45.156 60.347736,45.06792 60.296136,44.98452 L44.661816,8.28396 C44.104416,6.97632 42.826296,6.13152 41.405136,6.13152 M41.405136,8.08872 C42.039576,8.08872 42.612456,8.46756 42.861096,9.051 L58.607736,46.01544 L58.632336,46.01544 L59.084136,47.076 L59.059656,47.076 L59.638176,48.43404 L59.654736,48.47244 C59.975016,49.22448 59.671896,50.10048 58.950696,50.48508 C58.946496,50.48736 58.942176,50.48976 58.937736,50.49204 C58.909176,50.5092 58.881096,50.52708 58.851336,50.5428 C58.750056,50.59644 58.645656,50.64672 58.543416,50.69928 C58.410696,50.76756 58.278096,50.83584 58.143696,50.90256 C57.959136,50.99424 57.772176,51.0834 57.584616,51.17196 C57.452256,51.2346 57.320256,51.29772 57.186456,51.35892 C56.988456,51.44904 56.787936,51.53592 56.587056,51.62268 C56.460576,51.67728 56.335056,51.73344 56.207376,51.78648 C55.980216,51.88128 55.749936,51.97164 55.519416,52.06176 C55.414656,52.10256 55.311576,52.14552 55.206336,52.18548 C54.869376,52.31316 54.529056,52.4364 54.185256,52.55424 C54.143016,52.56864 54.099816,52.5816 54.057576,52.59576 C53.755176,52.69812 53.450736,52.79736 53.143176,52.8918 C53.021736,52.929 52.898256,52.96308 52.775976,52.9992 C52.544976,53.06736 52.313856,53.13528 52.080096,53.199 C51.938256,53.23752 51.794856,53.27316 51.652056,53.31024 C51.434976,53.36652 51.217416,53.42232 50.997936,53.47464 C50.845656,53.51112 50.691816,53.54496 50.538336,53.57952 C50.325816,53.62716 50.112696,53.67408 49.898016,53.71812 C49.739016,53.75088 49.579176,53.78172 49.419216,53.81232 C49.206336,53.853 48.992616,53.89224 48.777936,53.9292 C48.615696,53.95716 48.453216,53.98416 48.290136,54.01008 C48.073536,54.0444 47.856096,54.07632 47.637816,54.1068 C47.474976,54.12972 47.312136,54.1524 47.148336,54.17304 C46.925256,54.20124 46.700976,54.2262 46.476456,54.25044 C46.315536,54.26772 46.154976,54.28572 45.993216,54.30108 C45.757656,54.32328 45.520536,54.3414 45.283296,54.35928 C45.131016,54.37068 44.979456,54.38388 44.826336,54.39348 C44.560176,54.41016 44.292336,54.4218 44.024376,54.43284 C43.898376,54.43812 43.773336,54.4458 43.646976,54.44988 C43.253616,54.46224 42.858576,54.4692 42.461376,54.46932 L42.451056,54.46932 L35.351016,54.46932 L35.340696,54.46932 C34.943496,54.4692 34.548456,54.46224 34.155096,54.44988 C34.028976,54.4458 33.904176,54.43812 33.778296,54.43296 C33.510216,54.4218 33.242016,54.41028 32.975736,54.39348 C32.822976,54.38388 32.671416,54.37068 32.519136,54.3594 C32.281776,54.34152 32.044536,54.32328 31.808856,54.30108 C31.647336,54.28572 31.486776,54.26772 31.326096,54.25044 C31.101216,54.2262 30.876936,54.20124 30.653856,54.17292 C30.490056,54.1524 30.327336,54.12972 30.164496,54.10692 C29.946216,54.07632 29.728536,54.0444 29.511816,54.01008 C29.348976,53.98416 29.186616,53.95716 29.024616,53.92932 C28.809696,53.89212 28.595856,53.853 28.382736,53.8122 C28.222896,53.78172 28.063296,53.75088 27.904536,53.71812 C27.689856,53.67408 27.476736,53.62728 27.263736,53.57952 C27.110256,53.54496 26.956416,53.511 26.803656,53.47452 C26.584896,53.42244 26.367936,53.36652 26.151336,53.31048 C26.007936,53.2734 25.864056,53.23764 25.721856,53.19888 C25.488096,53.13516 25.256856,53.06724 25.025736,52.99896 C24.903816,52.96308 24.780456,52.929 24.659376,52.89192 C24.352176,52.7976 24.048216,52.69848 23.746296,52.59636 C23.703456,52.58184 23.659656,52.56888 23.616936,52.55424 C23.273016,52.4364 22.932816,52.31316 22.595736,52.18548 C22.490496,52.14552 22.387536,52.10268 22.283136,52.06176 C22.052376,51.97176 21.822096,51.88128 21.595056,51.7866 C21.467136,51.73332 21.341616,51.67728 21.214896,51.62256 C21.014136,51.53592 20.813616,51.44904 20.615736,51.35892 C20.481816,51.29772 20.350176,51.2346 20.217456,51.17196 C20.030016,51.0834 19.843176,50.99424 19.658376,50.90256 C19.524216,50.83584 19.391616,50.76756 19.258776,50.69928 C19.156416,50.64672 19.052256,50.59644 18.950976,50.5428 C18.920976,50.52708 18.893016,50.5092 18.864456,50.49204 C18.860136,50.48976 18.855816,50.48748 18.851376,50.48508 C18.130176,50.10048 17.827296,49.22448 18.147696,48.47256 L18.163896,48.43428 C18.164136,48.43416 18.164136,48.43404 18.164136,48.43404 L34.941216,9.051 C35.189736,8.46756 35.762736,8.08872 36.396936,8.08872 L36.559656,8.08872 L41.242656,8.08872 L41.405136,8.08872" id="Fill-191" fill="#000000"></path>
            </g>
        </g>
    </g>
</svg>