<?xml version="1.0" encoding="UTF-8"?>
<svg width="120px" height="120px" viewBox="0 0 120 120" version="1.1" xmlns="http://www.w3.org/2000/svg" xmlns:xlink="http://www.w3.org/1999/xlink">
    <!-- Generator: Sketch 51.1 (57501) - http://www.bohemiancoding.com/sketch -->
    <title>Snow4</title>
    <desc>Created with Sketch.</desc>
    <defs></defs>
    <g id="Snow4" stroke="none" stroke-width="1" fill="none" fill-rule="evenodd">
        <path d="M72.855544,69.39975 C73.458544,69.05175 73.791544,68.56675 73.918544,68.04675 C73.971544,67.84875 74.002544,67.63375 74.002544,67.39875 L74.002544,60.21775 L74.002544,55.25875 C74.002544,54.31175 74.185544,53.02475 73.686544,52.17175 C73.218544,51.37275 72.152544,50.93475 71.379544,50.48975 C69.974544,49.67775 68.570544,48.86775 67.165544,48.05575 C65.003544,46.80775 62.842544,45.56075 60.681544,44.31275 C59.959544,43.89575 59.064544,43.89575 58.342544,44.31275 C55.038544,46.22075 51.734544,48.12875 48.430544,50.03575 C47.102544,50.80275 45.022544,51.55775 45.022544,53.37775 L45.022544,58.11475 L45.022544,65.25875 C45.022544,66.78275 44.725544,68.56575 46.287544,69.46775 C49.813544,71.50375 53.340544,73.53975 56.867544,75.57575 C57.358544,75.85975 57.851544,76.14375 58.342544,76.42775 C59.064544,76.84475 59.959544,76.84475 60.681544,76.42775 C64.740544,74.08575 68.797544,71.74275 72.855544,69.39975" id="Fill-7" fill="#70A8E2"></path>
        <path d="M36.2033793,79.0837083 C35.709002,78.8080933 35.1661563,78.5284371 34.6305809,78.2253415 C35.1677719,78.5284371 35.7073864,78.8072851 36.2033793,79.0837083 Z M40.3514635,48.9333728 C46.7379783,45.2444971 53.1236853,41.5548132 59.5102001,37.8667457 C65.8959071,41.5548132 72.2824219,45.2444971 78.6681289,48.9333728 L78.6681289,71.0658189 C72.2824219,74.7555029 65.8959071,78.4443786 59.5102001,82.132446 C53.1236853,78.4443786 46.7379783,74.7555029 40.3514635,71.0658189 L40.3514635,48.9333728 Z M7.56746191,90 C8.73554949,92.0238705 11.3213367,92.716545 13.3440831,91.5486165 L26.0799536,84.1910715 L23.2453621,94.7751704 C22.6411232,97.0326266 23.9804657,99.3523183 26.236668,99.9577013 C28.4928704,100.562276 30.8112738,99.2229975 31.4163205,96.9655414 L36.2041871,79.0845165 C36.2833521,79.1289706 36.3665562,79.1726163 36.4424899,79.2170703 C39.1736822,80.7939758 41.9040668,82.3716895 44.6344513,83.9494032 C48.8350429,86.3749764 53.0356344,88.8021661 57.2370338,91.2285476 C56.3678345,90.7274295 55.5002508,90.2263114 54.6318592,89.7243851 L41.5462087,102.817307 C39.8950531,104.470189 39.8950531,107.149554 41.5462087,108.802436 C43.1981721,110.454509 45.8760492,110.454509 47.5272048,108.802436 L55.2708338,101.054503 L55.2708338,115.768785 C55.2708338,118.104642 57.1643313,120 59.4996986,120 C61.8358738,120 63.7293712,118.104642 63.7293712,115.768785 L63.7293712,101.054503 L71.4730002,108.802436 C73.1241558,110.454509 75.8020329,110.454509 77.4531885,108.802436 C79.105152,107.149554 79.105152,104.470189 77.4531885,102.817307 L64.3756161,89.7316593 C69.9333218,86.5204623 75.4918354,83.3100736 81.0511568,80.0988765 C81.5940025,79.7844653 82.2030882,79.4708624 82.8250989,79.1386696 C82.8202521,79.1410944 82.816213,79.1435191 82.812174,79.1459439 L87.5838845,96.9655414 C88.1881234,99.2229975 90.5073347,100.562276 92.763537,99.9577013 C95.0197394,99.3523183 96.358274,97.0326266 95.7540351,94.7751704 L92.9194436,84.1910715 L105.655314,91.5486165 C107.67806,92.716545 110.264656,92.0238705 111.432743,90 C112.600831,87.9761295 111.906925,85.3880971 109.884179,84.2193604 L97.1491162,76.8626236 L107.727337,74.0264569 C109.982731,73.4210739 111.322074,71.1013821 110.717027,68.843926 C110.112788,66.5864698 107.793577,65.2471913 105.537374,65.851766 L87.6759744,70.6406768 L87.6759744,64.3863998 L87.6759744,50.4916884 C87.6759744,50.1223159 87.6848602,49.7448608 87.6953617,49.3641728 L105.537374,54.1474257 C107.793577,54.7520004 110.112788,53.4127219 110.717027,51.1552658 C111.322074,48.8978096 109.982731,46.5781178 107.727337,45.9727349 L97.1491162,43.1365681 L109.884179,35.7798313 C111.906925,34.6119029 112.600831,32.0230622 111.432743,29.9991917 C110.264656,27.9761295 107.67806,27.2826468 105.655314,28.4505752 L92.9194436,35.8081203 L95.7540351,25.2248296 C96.358274,22.9673734 95.0197394,20.6468734 92.763537,20.0422987 C90.5073347,19.4369157 88.1881234,20.7761942 87.5838845,23.0336503 L82.7968257,40.9098257 L85.2153971,42.3064903 C78.3611626,38.3476574 71.5069281,34.387208 64.6510779,30.4275669 C63.6954433,29.8747205 62.739001,29.3226823 61.7833664,28.7706442 C62.6469111,29.2693375 63.5112636,29.7680308 64.3756161,30.2683407 L77.4531885,17.1818843 C79.105152,15.5298111 79.105152,12.8504459 77.4531885,11.1975645 C75.8020329,9.54549128 73.1241558,9.54549128 71.4730002,11.1975645 L63.7293712,18.9454967 L63.7293712,4.23121481 C63.7293712,1.89454967 61.8358738,0 59.4996986,0 C57.1643313,0 55.2708338,1.89454967 55.2708338,4.23121481 L55.2708338,18.9454967 L47.5280126,11.1975645 C45.8760492,9.54549128 43.1981721,9.54549128 41.5462087,11.1975645 C39.8950531,12.8504459 39.8950531,15.5298111 41.5462087,17.1818843 L54.6318592,30.2748067 L36.2058027,40.9187165 L31.4163205,23.0336503 C30.8112738,20.7761942 28.4928704,19.4369157 26.236668,20.0422987 C23.9804657,20.6468734 22.6411232,22.9673734 23.2453621,25.2240213 L26.0799536,35.8081203 L13.3440831,28.4505752 C11.3213367,27.2826468 8.73554949,27.9761295 7.56746191,29.9991917 C6.39937433,32.0230622 7.09247194,34.6119029 9.11521834,35.7798313 L21.8510889,43.1365681 L11.2736762,45.9727349 C9.01747381,46.5773096 7.67813134,48.8978096 8.28317809,51.1552658 C8.88741703,53.4127219 11.2066283,54.7520004 13.4628306,54.1474257 L31.343618,49.3536654 L31.343618,60.2966296 L31.343618,69.9399197 C31.343618,70.1654229 31.3379634,70.4006251 31.3306931,70.6422933 L13.4628306,65.851766 C11.2066283,65.2471913 8.88741703,66.5864698 8.28317809,68.843926 C7.67813134,71.1013821 9.01747381,73.4210739 11.2736762,74.0264569 L21.8510889,76.8626236 L9.11521834,84.2193604 C7.09247194,85.3880971 6.39937433,87.9761295 7.56746191,90 Z" id="Fill-9" fill="#70A8E2"></path>
    </g>
</svg>