<?xml version="1.0" encoding="UTF-8"?>
<svg width="120px" height="120px" viewBox="0 0 120 120" version="1.1" xmlns="http://www.w3.org/2000/svg" xmlns:xlink="http://www.w3.org/1999/xlink">
    <!-- Generator: Sketch 51.1 (57501) - http://www.bohemiancoding.com/sketch -->
    <title>Bam</title>
    <desc>Created with Sketch.</desc>
    <defs>
        <polygon id="path-1" points="0.162552901 0.329064286 112.372014 0.329064286 112.372014 90.3571429 0.162552901 90.3571429"></polygon>
        <polygon id="path-3" points="0.29578157 0.15271933 27.7798771 0.15271933 27.7798771 20.125 0.29578157 20.125"></polygon>
        <polygon id="path-5" points="0.266432909 0.258801339 37.4232082 0.258801339 37.4232082 24.5794018 0.266432909 24.5794018"></polygon>
        <polygon id="path-7" points="0.27230281 0.262364286 29.6416382 0.262364286 29.6416382 45.3435964 0.27230281 45.3435964"></polygon>
    </defs>
    <g id="Bam" stroke="none" stroke-width="1" fill="none" fill-rule="evenodd">
        <g id="Group" transform="translate(0.000000, 14.000000)">
            <g id="Group-3" transform="translate(7.372014, 1.372607)">
                <mask id="mask-2" fill="white">
                    <use xlink:href="#path-1"></use>
                </mask>
                <g id="Clip-2"></g>
                <path d="M25.3195495,27.5167071 C26.2046007,26.63285 24.5205051,0.329064286 24.5205051,0.329064286 L53.475727,28.43835 L58.9969556,2.31404643 L63.9398908,23.984975 L94.4207099,13.4053857 L83.4937474,33.8967429 L112.372382,58.4862071 L75.7113584,57.8450821 L77.4658976,81.668975 L55.9285597,70.8548679 L53.9913584,90.357225 L48.178116,70.8869036 L26.5072628,88.7349036 L29.6809147,70.8700643 L0.162552901,74.7989571 L20.123099,59.3101 L4.70739932,46.7755107 L18.7588669,42.2120643 L3.24528328,22.6620643 L25.3195495,27.5167071 Z" id="Fill-1" fill="#FEC40E" mask="url(#mask-2)"></path>
            </g>
            <path d="M66.3687645,3.68657143 C66.6153174,4.58028571 66.8663754,5.47317857 67.0981843,6.36976786 L67.8079454,9.05748214 C68.0467167,9.95325 68.2801638,10.8494286 68.5054198,11.7484821 L69.1881502,14.4419464 C69.6284232,16.2416964 70.0826212,18.03775 70.5114266,19.8399643 C70.939413,21.6421786 71.3817338,23.4411071 71.7974334,25.2461964 L71.1491058,24.8855893 L74.9547031,23.5495357 C76.2214608,23.1002143 77.496,22.67225 78.7664437,22.2331964 L82.5835085,20.9295893 L86.4075358,19.6481607 L90.2393447,18.3889107 L94.0789352,17.15225 C95.3579795,16.7366071 96.6468532,16.3505357 97.9308123,15.9500893 C99.2151809,15.5504643 100.500778,15.1545357 101.792519,14.7779107 C100.544601,15.2822679 99.2905392,15.7681429 98.03443,16.2503214 C96.7783208,16.7312679 95.5271263,17.227 94.2656928,17.6935714 L90.4854881,19.1010893 L86.6970922,20.48725 L82.9009147,21.8508214 L79.0973652,23.1918036 C77.8281502,23.6345536 76.5626212,24.0883929 75.2893106,24.5204643 L71.4747031,25.8294107 L71.4722457,25.8302321 C71.2121775,25.9193571 70.9299932,25.7805357 70.8411195,25.5201429 C70.8349761,25.5033036 70.830471,25.4856429 70.8263754,25.4688036 C70.4180478,23.6624821 70.0367509,21.8495893 69.6403003,20.0395714 C69.2454881,18.2299643 68.8760683,16.4141964 68.4927235,14.6017143 L67.939413,11.8778571 C67.7526553,10.9705893 67.5740887,10.0612679 67.401256,9.151125 L66.8745666,6.42110714 C66.6951809,5.51219643 66.5338157,4.59917857 66.3687645,3.68657143" id="Fill-4" fill="#414549"></path>
            <path d="M31.8924369,1.70154821 C33.1464983,2.82320893 34.3858157,3.96047679 35.6226758,5.09979821 C36.8595358,6.23994107 38.1054061,7.37022679 39.3312082,8.52145893 L43.013529,11.9702268 L46.679058,15.4358339 L50.3290239,18.9182804 L53.9609693,22.4183875 L57.5839044,25.9287625 L61.1929147,29.4531018 L60.3619249,29.7073339 L61.7937338,23.1872446 L63.2624027,16.6753696 C63.769843,14.5084411 64.2588532,12.3374054 64.7871809,10.1749946 L65.5682048,6.92870893 C65.8237679,5.84565536 66.0989898,4.76670893 66.3688874,3.68653036 C66.1784437,4.78354821 65.9937338,5.88179821 65.7893652,6.97553036 L65.1893652,10.2604232 C64.7978294,12.4519946 64.3669761,14.6349411 63.9537338,16.8219946 L62.6624027,23.3720661 L61.333802,29.9139232 C61.2789215,30.1825304 61.0180341,30.3558518 60.7501843,30.3012268 C60.6555768,30.2815125 60.5728464,30.2363339 60.507727,30.1739054 L60.5024027,30.1689768 L56.8729147,26.6655839 L53.256942,23.1486375 L49.6499795,19.6214232 L46.0610375,16.0761375 L42.4880683,12.5148339 L38.9314812,8.93586964 C37.7441775,7.74479821 36.576942,6.53278036 35.4006962,5.33020893 C34.2248601,4.12722679 33.0514812,2.92178036 31.8924369,1.70154821" id="Fill-6" fill="#414549"></path>
            <path d="M10.6173379,24.0345482 C12.4783618,24.3405304 14.3328328,24.6769054 16.1856655,25.0202625 L18.9624573,25.5480304 C19.8880546,25.7234054 20.8124232,25.9037089 21.7355631,26.0905839 C23.5838908,26.4557089 25.4297611,26.8302804 27.2731741,27.2179946 L30.0384983,27.7966911 L32.8001365,28.3926375 L32.3336519,28.5289946 C32.2390444,28.6329054 32.2861433,28.6041554 32.2869625,28.5614411 C32.29843,28.5199589 32.3086689,28.4641018 32.3180887,28.4037268 C32.3373379,28.2846196 32.3512628,28.1519589 32.3631399,28.0188875 C32.385256,27.7506911 32.3995904,27.4742804 32.4086007,27.1962268 C32.425802,26.6401196 32.4335836,26.0766196 32.4364505,25.5135304 C32.4409556,24.3852982 32.4225256,23.2537804 32.3975427,22.1218518 L32.3152218,18.7227804 L32.2148805,15.3220661 L32.0240273,8.51529821 L31.9445734,5.10965536 L31.8925597,1.70154821 C32.0244369,2.83060179 32.1427986,3.96047679 32.254198,5.09158393 C32.3610922,6.22228036 32.4671672,7.35379821 32.5625939,8.48572679 C32.7550853,10.7491732 32.919727,13.0150839 33.0638908,15.2826375 C33.1376109,16.4166196 33.1933106,17.5518339 33.2522867,18.6866375 C33.3088055,19.8218518 33.3640956,20.9578875 33.3948123,22.0951554 C33.4288055,23.2328339 33.4558362,24.3705125 33.4603413,25.5135304 C33.4619795,26.0852446 33.4603413,26.6573696 33.4349488,27.2352446 C33.4230717,27.5243875 33.4062799,27.8147625 33.3792491,28.1121196 C33.3649147,28.2616196 33.3485324,28.4111196 33.3215017,28.5725304 C33.3079863,28.6517982 33.2924232,28.7351732 33.2662116,28.8308696 C33.2580205,28.8702982 33.2342662,28.9360125 33.2109215,28.9943339 C33.2031399,29.0317089 33.1261433,29.1676554 33.0491468,29.2493875 C32.9291468,29.3771196 32.7559044,29.4243518 32.596587,29.3890304 L32.5830717,29.3857446 L29.8259386,28.7680304 L27.072901,28.1330661 C25.2368601,27.7120839 23.4040956,27.2775482 21.5729693,26.8331554 C20.6567918,26.6154768 19.741843,26.3912268 18.8281229,26.1624589 L16.0861433,25.4761554 C14.2599317,25.0108161 12.4349488,24.5380839 10.6173379,24.0345482" id="Fill-8" fill="#414549"></path>
            <path d="M12.079372,48.1479946 C13.2257201,47.6921018 14.3757543,47.2464768 15.5315222,46.8185125 C16.6848328,46.3835661 17.8438771,45.9662804 19.0021024,45.5469411 L22.4857884,44.3160304 L25.980942,43.1216732 L25.7507713,43.8880661 L23.7955495,41.4570482 C23.1455836,40.6450661 22.4919317,39.8367804 21.8526143,39.0161732 L19.9256519,36.5629768 L18.0195768,34.0925304 C17.3818976,33.2711018 16.7573242,32.4394054 16.1307031,31.6085304 C15.501215,30.7805304 14.8799181,29.9459589 14.2631263,29.1081018 C13.0250375,27.4348518 11.8025119,25.7501018 10.617256,24.0345482 C12.0179386,25.5780125 13.380942,27.1510482 14.7283823,28.7364054 C15.4041502,29.5278518 16.075413,30.3225839 16.7388942,31.1234768 C17.4052423,31.9219054 18.0732287,32.7195125 18.7285188,33.5265661 L20.700942,35.9440304 L22.6520683,38.3783339 C23.3057201,39.1870304 23.944628,40.0076375 24.5876314,40.8249589 L26.5109078,43.2814411 L26.5170512,43.2900661 C26.6812833,43.4995304 26.6448328,43.8022268 26.435959,43.9665125 C26.3884505,44.0038875 26.3347986,44.0314054 26.2803276,44.0482446 L22.7503618,45.1349946 L19.2081092,46.1860125 C18.0244915,46.5269054 16.8416928,46.8702625 15.6531604,47.1959589 C14.4666758,47.5282268 13.2748669,47.8432446 12.079372,48.1479946" id="Fill-10" fill="#414549"></path>
            <path d="M7.53464846,76.1716054 C8.32877816,75.4774982 9.12946075,74.7920161 9.9334198,74.1102304 L12.3575836,72.0825339 L14.7977201,70.0757839 L17.2517816,68.0862839 L19.720587,66.1164982 C20.5425666,65.4581232 21.3678225,64.8046768 22.1988123,64.1582125 L24.6856382,62.2118375 L27.1859795,60.2823018 L27.1769693,61.0762125 C25.8942389,60.0293018 24.6176519,58.9745875 23.3500751,57.9091946 L21.4452287,56.3148018 L19.5518498,54.7064446 C18.9186758,54.1725161 18.2928737,53.6303732 17.6662526,53.0886411 L15.7896655,51.4589268 C14.5433857,50.3676589 13.30243,49.2685875 12.0794949,48.1481589 C13.4257065,49.1162125 14.7543072,50.1064446 16.0767645,51.1040696 L18.0545119,52.6085161 C18.7122594,53.1116411 19.3708259,53.6135339 20.0228396,54.1240518 L21.9829761,55.6494446 L23.9324642,57.1888018 C25.2336246,58.2127125 26.5265939,59.2473018 27.8130102,60.2896946 C28.0296655,60.4654804 28.0632491,60.7833732 27.887959,61.0006411 C27.8637952,61.0310339 27.8367645,61.0573196 27.807686,61.0803196 L27.804,61.0836054 L25.3143072,63.0266946 L22.811099,64.9521232 C21.9788805,65.5961232 21.1405188,66.2335518 20.2992901,66.8660518 L17.7780614,68.7684804 L15.2416792,70.6511946 L12.6917816,72.5162482 L10.1263208,74.3603554 C9.26666212,74.9694446 8.40413652,75.5748375 7.53464846,76.1716054" id="Fill-12" fill="#414549"></path>
            <path d="M33.8792355,90.1074286 C34.0647645,88.604625 34.2605324,87.103875 34.4755495,85.606 C34.6823754,84.1073036 34.9100887,82.6114821 35.1328874,81.11525 L35.8328191,76.6323036 L36.5712491,72.1563393 L37.1171877,72.728875 L33.4295427,73.23775 C32.2004642,73.407375 30.9713857,73.577 29.7402594,73.7314286 L26.0485188,74.2078571 L22.3530922,74.6555357 C21.1219659,74.8087321 19.8879727,74.942625 18.6547986,75.0822679 C17.4220341,75.2247857 16.188041,75.3553929 14.9532287,75.483125 C13.7192355,75.6161964 12.482785,75.7320179 11.2471536,75.8519464 C10.0111126,75.9673571 8.77343345,76.075375 7.5345256,76.1714821 C8.75582253,75.94025 9.97834812,75.7209286 11.2016928,75.5085893 C12.4258567,75.3015893 13.6492014,75.0900714 14.875413,74.8958036 C16.1003959,74.6957857 17.326198,74.4990536 18.5532287,74.3138214 C19.7798498,74.126125 21.0056519,73.9326786 22.2343208,73.758125 L25.9186894,73.2241964 L29.6059249,72.7177857 C30.8350034,72.5452857 32.0657201,72.3871607 33.2964369,72.2294464 L36.988587,71.7563036 L36.9967782,71.7550714 C37.2621706,71.7209821 37.5050375,71.9095 37.5390307,72.1760536 C37.5455836,72.2273929 37.5431263,72.280375 37.534116,72.3284286 L36.6863345,76.7846786 L35.7992355,81.2343571 C35.4932969,82.7158036 35.1918635,84.1976607 34.8695427,85.6762321 C34.5558225,87.1560357 34.2228532,88.6329643 33.8792355,90.1074286" id="Fill-14" fill="#414549"></path>
            <g id="Group-18" transform="translate(33.583618, 71.604750)">
                <mask id="mask-4" fill="white">
                    <use xlink:href="#path-3"></use>
                </mask>
                <g id="Clip-17"></g>
                <path d="M27.7798771,20.1250821 C27.2081365,18.5286357 26.6560546,16.9264393 26.1174881,15.3201357 L25.3155768,12.9088321 L24.5259522,10.4942429 C24.0123686,8.88013571 23.484041,7.27054643 22.98643,5.65233214 C22.4847235,4.03493929 21.971959,2.42083214 21.4870444,0.7981 L22.2836314,1.04206429 L19.5838362,3.28415357 L16.8680683,5.50693929 C15.9613106,6.24540357 15.0598771,6.99126071 14.1453379,7.72068929 L11.4095017,9.91883214 C9.57714676,11.3731714 7.74315358,12.8266893 5.89195904,14.25885 C4.04158362,15.6914214 2.18424573,17.1166 0.29578157,18.5027607 C2.01878498,16.9141179 3.77332423,15.3644929 5.53482594,13.8222607 C7.29509898,12.2796179 9.07339249,10.7583321 10.8520956,9.23827857 L13.5342799,6.97401071 C14.4254744,6.21624286 15.3301843,5.47490357 16.2287509,4.72617143 L18.9310034,2.48695714 L21.6488191,0.266635714 L21.6504573,0.265403571 C21.8646553,0.0904392857 22.1796041,0.122885714 22.3540751,0.337278571 C22.3962594,0.389439286 22.4269761,0.450225 22.4454061,0.5106 C22.9295017,2.13333214 23.3857474,3.76427857 23.8530512,5.39193929 C24.324041,7.01877857 24.7647235,8.65424286 25.2201502,10.2856 L25.8836314,12.7383857 L26.5352355,15.1944571 C26.9656792,16.8332071 27.3826075,18.4760643 27.7798771,20.1250821" id="Fill-16" fill="#414549" mask="url(#mask-4)"></path>
            </g>
            <path d="M84.8379932,83.0414589 C83.913215,82.6451196 82.9933515,82.2397446 82.0759454,81.8294411 L79.3323276,80.5808696 L76.6001775,79.3088875 L73.8782662,78.0167804 L71.1665939,76.7037268 C70.2631126,76.2659054 69.3592218,75.8284946 68.4614744,75.3783518 C66.6627031,74.4846375 64.8614744,73.5970839 63.0737611,72.6811911 L63.8044096,72.2774589 L63.5513038,74.7146375 L63.2797679,77.1489411 C63.1016109,78.7724946 62.9083003,80.3948161 62.7076177,82.0159054 C62.611372,82.8274768 62.5077543,83.6374054 62.4004505,84.4473339 L62.0777201,86.8771196 C61.8549215,88.4961554 61.6243413,90.1147804 61.3634539,91.7297089 C61.4252969,90.0946554 61.5178567,88.4624768 61.6177884,86.8315304 L61.7791536,84.3849054 C61.8336246,83.5700482 61.8909625,82.7551911 61.9560819,81.9407446 C62.0785392,80.3118518 62.207959,78.6837804 62.3525324,77.0565304 L62.5655017,74.6156554 L62.796901,72.1768339 C62.8231126,71.8987804 63.069256,71.6946554 63.3469352,71.7213518 C63.4087782,71.7266911 63.4669352,71.7435304 63.5197679,71.7694054 L63.5271399,71.7731018 C65.3291877,72.6598339 67.1173106,73.5744946 68.9083003,74.4829946 C69.8052287,74.9347804 70.6964232,75.3984768 71.5872082,75.8613518 L74.2599727,77.2520304 L76.9224983,78.6636554 L79.5743754,80.0949946 L82.2156041,81.5501554 C83.0924642,82.0405482 83.967686,82.5366911 84.8379932,83.0414589" id="Fill-19" fill="#414549"></path>
            <g id="Group-23" transform="translate(82.320819, 58.461893)">
                <mask id="mask-6" fill="white">
                    <use xlink:href="#path-5"></use>
                </mask>
                <g id="Clip-22"></g>
                <path d="M37.4234539,1.39704464 C35.8945802,1.43934821 34.366116,1.46029464 32.8380614,1.47795536 C31.3095973,1.49561607 29.7811331,1.5251875 28.2530785,1.52600893 C26.7250239,1.53299107 25.1965597,1.54325893 23.6689147,1.53709821 L19.08557,1.52354464 L14.5018157,1.48740179 L9.9192901,1.4245625 C6.86359044,1.38965179 3.80911945,1.31284821 0.754238908,1.25288393 L1.25717406,0.719366071 L1.642157,6.67924107 L1.98946075,12.6419911 C2.08857338,14.6306696 2.20406826,16.6185268 2.2814744,18.6084375 L2.40966553,21.5935089 C2.45676451,22.5878482 2.48379522,23.5842411 2.51737884,24.5794018 C2.40393174,23.5899911 2.28516041,22.6005804 2.18604778,21.6099375 L1.87519454,18.6384196 C1.66058703,16.6583661 1.4836587,14.6754375 1.28993857,12.6937411 L0.759972696,6.74454464 L0.268095563,0.792473214 C0.245979522,0.520991071 0.447071672,0.282776786 0.717788396,0.2601875 C0.733761092,0.258955357 0.749324232,0.258544643 0.764887372,0.258955357 L0.771440273,0.258955357 C3.82673038,0.305776786 6.88202048,0.335758929 9.93690102,0.408044643 L14.5190171,0.505383929 L19.1007235,0.629830357 L23.6820205,0.776044643 C25.2096655,0.8236875 26.7360819,0.887348214 28.2633174,0.9473125 C29.7901433,1.0019375 31.3169693,1.08490179 32.8433857,1.15595536 C34.3702116,1.22741964 35.896628,1.30175893 37.4234539,1.39704464" id="Fill-21" fill="#414549" mask="url(#mask-6)"></path>
            </g>
            <g id="Group-26" transform="translate(90.102389, 14.515464)">
                <mask id="mask-8" fill="white">
                    <use xlink:href="#path-7"></use>
                </mask>
                <g id="Clip-25"></g>
                <path d="M11.6902116,0.262364286 C11.2683686,1.1339 10.8534881,2.00954286 10.4197679,2.87450714 L9.13130375,5.47761429 C8.27860751,7.21657857 7.39888055,8.94075714 6.5265256,10.6686321 L3.87833447,15.8362393 L1.19533106,20.9853643 L1.08065529,20.37915 L4.70195222,23.4397929 C5.90932423,24.4591857 7.11546758,25.4802214 8.31301024,26.511525 L11.9130102,29.5968107 L15.4941706,32.7038643 C16.6908942,33.7368107 17.8745119,34.7845429 19.0622253,35.8273464 C20.2515768,36.8685071 21.4331468,37.9187036 22.6130785,38.9709536 C23.7975154,40.0174536 24.9659795,41.0832571 26.1385392,42.1441321 C27.3123276,43.203775 28.4844778,44.2650607 29.641884,45.3435964 C28.3923276,44.3730786 27.158744,43.3849 25.92557,42.3959 C24.6915768,41.4077214 23.4534881,40.4240607 22.231372,39.4215071 C21.0043413,38.4247036 19.7797679,37.4254357 18.5625666,36.4175429 C17.343727,35.4112929 16.1207918,34.4099714 14.9105529,33.3934536 L11.2724642,30.3533464 L7.65321502,27.2910607 C6.44379522,26.2729 5.24420478,25.2448821 4.04461433,24.2152214 L0.44625256,21.1282929 L0.441337884,21.1241857 C0.264409556,20.9722214 0.223863481,20.7196321 0.331576792,20.5220786 L3.11205461,15.425525 L5.92734471,10.3474536 C6.87587713,8.65982857 7.81785666,6.96932857 8.78604778,5.29238214 L10.2293242,2.77223929 C10.7064573,1.93068571 11.2020205,1.09816786 11.6902116,0.262364286" id="Fill-24" fill="#414549" mask="url(#mask-8)"></path>
            </g>
            <path d="M47.0228396,28.837975 L54.9199044,0.0547071429 C54.9403823,-0.0196321429 55.047686,-0.0110071429 55.0562867,0.0653857143 L57.4313038,21.0060643 C57.4362184,21.0512429 57.4824983,21.0795821 57.5250922,21.0635643 L89.964,8.90642143 C90.0205188,8.88465357 90.0758089,8.94174286 90.0528737,8.99801071 L83.8640683,24.2449571 C83.8489147,24.2823321 83.8681638,24.3250464 83.9062526,24.3377786 L110.231304,33.3981357 C110.285365,33.4166179 110.295195,33.4889036 110.248505,33.5217607 L84.8678908,51.2387429 C84.8375836,51.2601 84.8289829,51.3007607 84.8478225,51.3327964 L102.797038,81.2993321 C102.83144,81.3572429 102.773283,81.4254214 102.711031,81.4007786 L66.5189488,66.8097429 C66.4554676,66.7842786 66.3973106,66.8549214 66.4337611,66.9120107 L78.2895973,85.538725 C78.3301433,85.6032071 78.2535563,85.6775464 78.1908942,85.6340107 L59.5012014,72.6821357 C59.4737611,72.6628321 59.436901,72.6661179 59.4127372,72.6895286 L41.6060478,90.086975 C41.5528055,90.1395464 41.4659795,90.0820464 41.4921911,90.0118143 L47.9984027,72.7889214 C48.0192901,72.733475 47.9664573,72.6784393 47.9103481,72.6977429 L22.6239317,81.4094036 C22.5604505,81.4315821 22.50557,81.3588857 22.5436587,81.3034393 L36.5250922,60.9406357 C36.5508942,60.90285 36.5341024,60.8502786 36.4906894,60.8350821 L15.82243,59.7811893 C15.7483003,59.7549036 15.7671399,59.6452429 15.8457747,59.6452429 L34.6194266,53.6274571 C34.691099,53.6274571 34.7160819,53.5325821 34.6542389,53.49685 L0.0713037543,33.6729036 C0.00167918089,33.6330643 0.0430443686,33.5262786 0.120860068,33.5439393 L39.2838635,42.3077607 C39.3506212,42.3225464 39.3964915,42.2424571 39.3506212,42.1919393 L11.3791536,11.63685 C11.3271399,11.5797607 11.3918498,11.4931 11.4614744,11.5271893 L46.9249556,28.8819214 C46.964273,28.901225 47.011372,28.8802786 47.0228396,28.837975" id="Fill-27" fill="#EA202D"></path>
            <path d="M55.0563686,0.06555 C55.0563686,0.06555 55.0907713,0.281996429 55.1550717,0.688192857 C55.2173242,1.0948 55.3193038,1.68951429 55.4274266,2.448925 C55.6440819,3.96774643 55.9831945,6.13426429 56.3370512,8.74024643 C56.5123413,10.0434429 56.702785,11.4550679 56.9034676,12.948425 C57.0955495,14.4426036 57.2974608,16.0185143 57.5063345,17.6486393 C57.6074949,18.4639071 57.7102935,19.2927286 57.8143208,20.1322286 C57.8401229,20.3421036 57.8663345,20.5528 57.8925461,20.7639071 L57.9122048,20.9220321 L57.9146621,20.9417464 C57.9146621,20.9417464 57.9134334,20.9269607 57.9085188,20.9072464 C57.8786212,20.7910143 57.8401229,20.7466571 57.779099,20.68505 C57.7201229,20.6320679 57.6476314,20.5967464 57.5677679,20.5836036 C57.528041,20.5770321 57.4870853,20.5758 57.4469488,20.5811393 C57.4174608,20.5819607 57.3453788,20.6066036 57.357256,20.6029071 L57.6550034,20.4879071 C58.0539113,20.3363536 58.4544573,20.1839786 58.8570512,20.0316036 C60.4666075,19.4221036 62.1019659,18.8027464 63.7369147,18.1833893 C65.3763686,17.5751214 67.0158225,16.9668536 68.629884,16.3684429 C70.2414881,15.7646929 71.8387577,15.1987286 73.3778703,14.63605 C76.4606007,13.5189071 79.3455154,12.4974607 81.8245597,11.6394786 C84.3007372,10.7728714 86.3804642,10.0943714 87.8290648,9.59905 C88.5527509,9.35097857 89.1273584,9.17231786 89.517256,9.04335357 C89.7122048,8.98010357 89.8621024,8.93163929 89.9628532,8.89919286 C90.023058,8.88276429 90.0574608,8.93287143 90.0586894,8.957925 C90.0619659,8.98585357 90.0529556,8.998175 90.0529556,8.998175 C90.0529556,8.998175 90.0607372,8.98503214 90.0550034,8.95833571 C90.0513174,8.93451429 90.015686,8.89385357 89.9669488,8.91274643 C89.8694744,8.95463929 89.724901,9.01583571 89.5365051,9.09633571 C89.1588942,9.25528214 88.6076314,9.498425 87.899099,9.78756786 C86.4816246,10.3658536 84.4678362,11.2213714 82.0322048,12.1959964 C79.5998498,13.1792464 76.753843,14.3050143 73.6960956,15.4895143 C72.1655836,16.0768357 70.59043,16.7003 68.9784164,17.3048714 C67.3684505,17.9139607 65.7335017,18.5333179 64.0981433,19.1522643 C62.4586894,19.7601214 60.8192355,20.3683893 59.2055836,20.9668 C58.8017611,21.1163 58.3999863,21.2645679 57.9998498,21.4128357 L57.6996451,21.521675 C57.6996451,21.521675 57.6140478,21.5512464 57.5714539,21.5537107 C57.5182116,21.5602821 57.4637406,21.5598714 57.4109078,21.5508357 C57.3048328,21.5335857 57.2073584,21.4859429 57.1287235,21.4148893 C57.0476314,21.3364429 56.9952082,21.2678536 56.9579386,21.1261571 C56.9493379,21.0937107 56.9476997,21.0641393 56.9456519,21.0522286 L56.9436041,21.0325143 L56.9272218,20.8735679 C56.9055154,20.66205 56.8838089,20.4513536 56.8621024,20.2410679 C56.775686,19.3995143 56.6900887,18.5686393 56.6057201,17.7513179 C56.4447645,16.1158536 56.2887235,14.5346036 56.1408737,13.0354964 C56.0024437,11.5351571 55.8717952,10.1169607 55.7509761,8.80719286 C55.5122048,6.18806786 55.357802,4.00060357 55.2287918,2.47151429 C55.1640819,1.707175 55.1304983,1.10424643 55.0997816,0.694353571 C55.0715222,0.28405 55.0563686,0.06555 55.0563686,0.06555" id="Fill-29" fill="#414549"></path>
            <path d="M11.4614334,11.527025 C11.4614334,11.527025 11.7096246,11.6379179 12.1752901,11.8449179 C12.6401365,12.0547929 13.3265529,12.3525607 14.1907167,12.7509536 C15.9190444,13.5477393 18.4009556,14.6587214 21.356314,16.0399536 C22.8331741,16.7324179 24.4333106,17.4819714 26.1255973,18.2750607 C27.8137884,19.076775 29.5937201,19.9216143 31.4354949,20.796025 C33.2727645,21.6794714 35.1718771,22.5916679 37.1008874,23.5190607 C39.0262116,24.4546679 40.981843,25.4050607 42.9374744,26.3554536 C43.9130375,26.8355786 44.8881911,27.3161143 45.8596587,27.7945964 L46.5878498,28.1535607 L46.9507167,28.3326321 L47.1325597,28.4221679 C47.152628,28.432025 47.1391126,28.4250429 47.105529,28.4110786 C47.017884,28.3827393 46.9908532,28.3852036 46.9302389,28.3856143 C46.8249829,28.3921857 46.7258703,28.4361321 46.6509215,28.5104714 C46.6136519,28.547025 46.5825256,28.5922036 46.5608191,28.6398464 C46.5329693,28.7092571 46.537884,28.7088464 46.54157,28.6903643 L46.5554949,28.6419 C46.6996587,28.1211143 46.843413,27.6027929 46.9867577,27.0861143 C47.5544027,25.0173464 48.1425256,22.98965 48.6954266,21.02315 C49.8114676,17.093025 50.8734471,13.430275 51.8027304,10.2961143 C52.7230034,7.15907857 53.5343345,4.55720357 54.0815017,2.73075714 C54.3546758,1.81691786 54.5860751,1.10391786 54.7367918,0.615989286 C54.8133788,0.372025 54.8719454,0.18515 54.9112628,0.0590607143 C54.9329693,-0.018975 55.0177474,-0.00542142857 55.0357679,0.0196321429 C55.0595222,0.0459178571 55.0546075,0.0664535714 55.0562457,0.0656321429 C55.0550171,0.0668642857 55.057884,0.0455071429 55.0333106,0.0225071429 C55.0132423,0.000328571429 54.9374744,-0.00501071429 54.9251877,0.0627571429 C54.894471,0.1909 54.8494198,0.381882143 54.7908532,0.630775 C54.6712628,1.12732857 54.5062116,1.85881071 54.2752218,2.78415 C53.8132423,4.63441786 53.1833447,7.2864 52.3740614,10.4538286 C51.5733788,13.6233107 50.617884,17.3156321 49.5718771,21.2650607 C49.043959,23.2385429 48.5148123,25.2822571 47.9475768,27.351025 C47.807099,27.868525 47.6662116,28.3880786 47.5249147,28.909275 L47.5113993,28.9577393 C47.5109898,28.9560964 47.5118089,28.972525 47.4769966,29.0571321 C47.4487372,29.1199714 47.4077816,29.1791143 47.3582253,29.2279893 C47.2595222,29.3257393 47.1280546,29.3844714 46.9888055,29.3930964 C46.9113993,29.3943286 46.8675768,29.3947393 46.7635495,29.36065 C46.7139932,29.3421679 46.6857338,29.3265607 46.691058,29.3294357 L46.5088055,29.2411321 L46.1447099,29.0637036 L45.4148805,28.7092571 C44.4409556,28.2361143 43.4629352,27.7600964 42.4853242,27.2849 C40.5346075,26.3238286 38.5843003,25.3627571 36.6643003,24.4164714 C34.7483959,23.4619714 32.8627986,22.5222571 31.0378157,21.6133464 C29.2173379,20.6954 27.457884,19.8082571 25.788942,18.9667036 C24.1240956,18.1169357 22.5505802,17.3135786 21.0974744,16.5718286 C18.1933106,15.0858643 15.792901,13.8073107 14.1030717,12.9312571 C13.258157,12.4934357 12.6020478,12.1340607 12.1511263,11.8954357 C11.7010239,11.6551679 11.4614334,11.527025 11.4614334,11.527025" id="Fill-31" fill="#414549"></path>
            <path d="M0.855972696,33.7083893 C0.855972696,33.7083893 1.16723549,33.7683536 1.7512628,33.8800679 C2.33447099,33.993425 3.19003413,34.160175 4.27904437,34.3716929 C6.45337884,34.8128 9.56559727,35.413675 13.2884642,36.1874607 C15.1498976,36.5755857 17.1661433,36.9961571 19.2991126,37.4409607 C21.4296246,37.8952107 23.6764505,38.3741036 26.0010922,38.869425 C28.3228669,39.3741929 30.7224573,39.8958 33.1609556,40.4256214 C34.3793857,40.6954607 35.6072355,40.9673536 36.8395904,41.2400679 C37.4559727,41.376425 38.0735836,41.5131929 38.6916041,41.6499607 L39.1556314,41.7522286 L39.3874403,41.8035679 C39.3829352,41.8080857 39.3915358,41.7937107 39.2780887,41.7949429 C39.1937201,41.8006929 39.1408874,41.8204071 39.080273,41.8528536 C38.9664164,41.9189786 38.894744,42.0200143 38.8668942,42.1399429 C38.8353584,42.2598714 38.8709898,42.4143 38.9447099,42.5067107 C39.003686,42.5769429 38.949215,42.5136929 38.9574061,42.52355 L38.9369283,42.5017821 L38.2926962,41.8011036 C36.5827986,39.9249607 34.8733106,38.0484071 33.1904437,36.201425 C31.5141297,34.3486929 29.8644369,32.5247107 28.2679863,30.7594607 C25.0808191,27.2244429 22.1221843,23.9103893 19.6001365,21.0563357 C17.0715358,18.2092643 14.9983618,15.8049429 13.5309215,14.1366214 C12.803959,13.2963 12.2330375,12.6358714 11.8435495,12.1861393 C11.6494198,11.9602464 11.5007509,11.7873357 11.4004096,11.6706929 C11.3758362,11.6444071 11.3479863,11.6119607 11.3574061,11.5786929 C11.363959,11.5487107 11.385256,11.5294071 11.403686,11.5228357 C11.443413,11.5105143 11.461843,11.5294071 11.4614334,11.5269429 C11.461843,11.5289964 11.4417747,11.5117464 11.4049147,11.5261214 C11.3668259,11.5384429 11.338157,11.6136036 11.4106485,11.6608357 C11.5183618,11.7713179 11.6772696,11.9343714 11.8849147,12.1479429 C12.2989761,12.5754964 12.9059386,13.2022464 13.6791809,14.0002643 C15.2113311,15.6086214 17.4233447,17.8856214 20.0367235,20.6546571 C22.6566553,23.4179429 25.6972014,26.6568357 28.9376109,30.1429786 C30.5549488,31.888925 32.2263481,33.6927821 33.9243686,35.5258 C35.6158362,37.3649786 37.3343345,39.2333179 39.0528328,41.1016571 L39.6937884,41.8052107 L39.7134471,41.8273893 C39.734744,41.8520321 39.6954266,41.8027464 39.7654608,41.8889964 C39.8641638,42.0126214 39.9079863,42.2093536 39.8678498,42.3678893 C39.8309898,42.5268357 39.734744,42.6631929 39.5856655,42.7482107 C39.5078498,42.7905143 39.4357679,42.8159786 39.3317406,42.82255 C39.1986348,42.8262464 39.1875768,42.8073536 39.1638225,42.8077643 L38.9324232,42.7551929 L38.4688055,42.6504607 C37.8516041,42.5108179 37.2348123,42.371175 36.6188396,42.2319429 C35.3873038,41.9530679 34.1610922,41.675425 32.9443003,41.4006571 C30.5123549,40.8404429 28.1193174,40.289675 25.8032765,39.7569786 C23.4896928,39.2140143 21.2526962,38.6899429 19.1320137,38.1925679 C17.0129693,37.6861571 15.0094198,37.2072643 13.160273,36.7645143 C9.46238908,35.8773714 6.39030717,35.0949607 4.2356314,34.5671929 C3.16013652,34.2948893 2.31522184,34.0804964 1.73897611,33.9346929 C1.16313993,33.7868357 0.855972696,33.7083893 0.855972696,33.7083893" id="Fill-33" fill="#414549"></path>
            <path d="M15.8457747,59.6451607 L18.1646826,58.8056607 L20.4897338,57.985875 C22.040314,57.4412679 23.5880273,56.8863929 25.1439317,56.3582143 C26.6977884,55.823875 28.2516451,55.2887143 29.8095973,54.7671071 L34.4830444,53.2002321 L34.6194266,53.178875 C34.4912355,53.1686071 34.320041,53.2753929 34.2733515,53.4039464 C34.2164232,53.5234643 34.2311672,53.6939107 34.3376519,53.8121964 C34.3630444,53.8405357 34.3904846,53.8627143 34.4171058,53.8799643 C34.4453652,53.8963929 34.4146485,53.8787321 34.4166962,53.8799643 L34.3814744,53.86025 L34.3118498,53.8212321 L34.0321229,53.6643393 L33.4734881,53.3517857 L32.3558089,52.7250357 L30.1212696,51.4707143 L25.6669352,48.9366071 C24.1794266,48.0966964 22.7062526,47.2317321 21.2252969,46.3803214 C19.7451604,45.5276786 18.2662526,44.6725714 16.7947167,43.8047321 C15.3223618,42.9377143 13.8434539,42.0821964 12.3780614,41.2040893 C10.9114403,40.3280357 9.43826621,39.4618393 7.97819795,38.5742857 C6.51362457,37.6945357 5.05314676,36.8069821 3.60045051,35.905875 L1.41751536,34.5616071 C1.05260068,34.3385893 0.690143345,34.1126964 0.329324232,33.8831071 L0.0581979522,33.71225 C-0.0175699659,33.6818571 -0.021665529,33.5479643 0.0602457338,33.5183929 C0.14952901,33.496625 0.179836177,33.5360536 0.237174061,33.5418036 L0.856013652,33.7085536 L0.225296928,33.5947857 C0.179017065,33.5898571 0.104068259,33.5660357 0.0897337884,33.5791786 C0.0667986348,33.5956071 0.0651604096,33.6313393 0.098334471,33.6416071 L0.382976109,33.7890536 C0.763044369,33.9845536 1.1414744,34.1833393 1.51785666,34.3854107 L3.78106485,35.589625 C5.29191809,36.3876429 6.79580887,37.1992143 8.29519454,38.0185893 C9.79908532,38.82975 11.2902799,39.6630893 12.7876177,40.4861607 C14.2857747,41.3067679 15.7712355,42.1499643 17.2632491,42.9828929 C18.7556724,43.8137679 20.2407235,44.6577857 21.7245461,45.5038571 C23.207959,46.3519821 24.698744,47.1861429 26.1751945,48.0453571 L30.6131468,50.6082143 L32.8247509,51.9019643 L33.9301433,52.5504821 L34.4826348,52.8745357 L34.7590853,53.0363571 L34.8283003,53.0770179 L34.8627031,53.0971429 L34.8966962,53.1176786 C34.934785,53.1415 34.9724642,53.1727143 35.0064573,53.2109107 C35.1493925,53.3694464 35.1715085,53.6006786 35.0924642,53.7690714 C35.0248874,53.9477321 34.8012696,54.0865536 34.6198362,54.0762857 L34.7558089,54.0553393 L30.0422253,55.4965357 C28.4715768,55.9783036 26.8960137,56.4461071 25.3212696,56.9143214 C23.7481638,57.3891071 22.1668669,57.8376071 20.5884369,58.2955536 L18.2203823,58.9802143 L15.8457747,59.6451607 Z" id="Fill-35" fill="#414549"></path>
            <path d="M22.5438635,81.3035214 C23.0812014,80.4172 23.6259113,79.5358071 24.1755358,78.6589321 L25.838744,76.0352893 L27.52243,73.4260214 L29.2257747,70.8311286 C29.7901433,69.9637 30.3725324,69.1085929 30.9450922,68.2469143 C31.522157,67.3881107 32.089802,66.5227357 32.6746485,65.6696821 L34.4209966,63.1035393 L35.2941706,61.8208786 L35.7360819,61.18345 L35.9572423,60.8639143 L36.0678225,60.7049679 L36.0952628,60.6651286 L36.1022253,60.6552714 C36.0960819,60.6647179 36.1210648,60.6261107 36.0891195,60.6753964 L36.0923959,60.6704679 C36.0883003,60.6733429 36.0543072,60.7419321 36.0514403,60.75795 C36.0428396,60.7821821 36.0366962,60.8076464 36.0330102,60.8331107 C35.9965597,61.0364143 36.1259795,61.2512179 36.3213379,61.3165214 L36.4646826,61.3448607 C34.7429078,61.2471107 33.020314,61.1629143 31.2993584,61.0458607 L28.7179249,60.8799321 L26.136901,60.6959321 C25.2768328,60.6335036 24.4163549,60.5727179 23.5566962,60.5004321 L20.9773106,60.2885036 C19.2584027,60.1353071 17.5390853,59.9841643 15.8218157,59.79195 L15.8189488,59.7915393 C15.7829078,59.7783964 15.76243,59.7365036 15.7714403,59.7024143 C15.7784027,59.6670929 15.8123959,59.6420393 15.8459795,59.645325 C15.8119863,59.6461464 15.7849556,59.6732536 15.7820887,59.7040571 C15.7784027,59.7352714 15.798471,59.7640214 15.8263208,59.7705929 L15.8230444,59.7701821 C17.5509625,59.7537536 19.2760137,59.7783964 21.001884,59.8009857 L23.5894608,59.852325 C24.4519863,59.8675214 25.3141024,59.8946286 26.1762184,59.9205036 L28.7625666,59.9993607 L31.347686,60.0975214 C33.0715085,60.1562536 34.7936928,60.2470214 36.5166962,60.3250571 C36.5617474,60.3271107 36.6051604,60.3349143 36.646116,60.3484679 L36.660041,60.3533964 C36.9176519,60.4392357 37.0876177,60.7230393 37.0401092,60.990825 C37.034785,61.0245036 37.0265939,61.0573607 37.0155358,61.0893964 C37.0102116,61.1132179 36.9725324,61.1887893 36.9647509,61.1990571 L36.9352628,61.2450571 L36.9078225,61.2853071 L36.7988805,61.445075 L36.580587,61.7662536 L36.144,62.4073786 L35.260587,63.6838786 L33.4933515,66.234825 C32.9072765,67.0874679 32.304,67.9277893 31.7097338,68.7746821 C31.111372,69.6187 30.5220205,70.4688786 29.9154676,71.3071464 L28.1060478,73.8293429 L26.2757406,76.3371643 L24.4253652,78.8310214 C23.8044778,79.6594321 23.1778567,80.4841464 22.5438635,81.3035214" id="Fill-37" fill="#414549"></path>
            <path d="M41.4922321,90.0123482 C41.4922321,90.0123482 42.3367372,87.2876696 43.7312765,83.2495268 C44.0785802,82.2395804 44.4545529,81.1454375 44.8665666,79.9929732 C45.2753038,78.8400982 45.7012423,77.6219196 46.1611741,76.3692411 C46.3888874,75.7420804 46.6206962,75.1042411 46.8549625,74.4590089 C46.9720956,74.1361875 47.0900478,73.8117232 47.2088191,73.4852054 L47.3902526,72.9956339 L47.4819932,72.7504375 L47.5274539,72.6272232 C47.5241775,72.6374911 47.5430171,72.5824554 47.5217201,72.6469375 C47.5217201,72.6469375 47.5286826,72.6132589 47.5118908,72.6900625 C47.4975563,72.7894554 47.5090239,72.8391518 47.5311399,72.9102054 C47.5778294,73.0383482 47.6765324,73.1328125 47.8088191,73.1747054 C47.8743481,73.1952411 47.9472491,73.1985268 48.0123686,73.1857946 C48.1065666,73.1627946 48.051686,73.1751161 48.0512765,73.1775804 L47.9894334,73.1989375 L47.8653379,73.2420625 L47.6171468,73.3291339 L47.1195358,73.5028661 C46.7873857,73.6186875 46.4540068,73.7349196 46.1202184,73.8515625 C45.4522321,74.0852589 44.7817884,74.3193661 44.1113447,74.5530625 C42.7667713,75.0105982 41.422198,75.4677232 40.0981024,75.9178661 C38.7764642,76.3725268 37.4654744,76.7922768 36.2024027,77.2132589 C33.6729829,78.0465982 31.3049283,78.8035446 29.2690239,79.4344018 C27.2347577,80.0705982 25.5318225,80.5774196 24.3383754,80.9277589 C23.7404232,81.0994375 23.2702526,81.2345625 22.9503891,81.3269732 C22.7869761,81.3659911 22.6731195,81.4210268 22.5776928,81.4169196 C22.5322321,81.3972054 22.5252696,81.3540804 22.5301843,81.3335446 C22.5355085,81.3113661 22.5436997,81.3035625 22.5436997,81.3035625 C22.5482048,81.2932946 22.5002867,81.3659911 22.582198,81.4033661 C22.6563276,81.3984375 22.778785,81.3302589 22.931959,81.2735804 C23.2411741,81.1487232 23.6945529,80.9659554 24.2716177,80.7326696 C25.4277952,80.2730804 27.0815836,79.6237411 29.0765324,78.8721339 C31.0690239,78.1147768 33.4010375,77.2530982 35.9071126,76.3511696 C37.1615836,75.9047232 38.4529147,75.4278839 39.7745529,74.9724018 C41.0945529,74.5115804 42.4354403,74.0433661 43.7763276,73.5751518 C44.4488191,73.3467946 45.120901,73.1180268 45.7909352,72.8904911 C46.1255427,72.7767232 46.4597406,72.6633661 46.7931195,72.5500089 L47.2923686,72.3803839 L47.5413788,72.2957768 L47.6654744,72.2538839 L47.727727,72.2325268 C47.7477952,72.2275982 47.7133925,72.2321161 47.8288874,72.2045982 C47.9157133,72.1881696 48.0107304,72.1922768 48.0971468,72.2193839 C48.2720273,72.2731875 48.4047235,72.4017411 48.4665666,72.5705446 C48.4964642,72.6621339 48.5099795,72.7344196 48.4927782,72.8555804 C48.4747577,72.9434732 48.4768055,72.9204732 48.4751672,72.9303304 L48.4575563,72.9804375 L48.4108669,73.1032411 L48.3170785,73.3480268 L48.1295017,73.8347232 C48.0025392,74.1579554 47.8763959,74.4799554 47.7510717,74.7994911 C47.5004232,75.4385625 47.2526416,76.0702411 47.0089556,76.6912411 C46.5256792,77.9352946 46.0399454,79.1304732 45.5841092,80.2660982 C45.1315495,81.4021339 44.6904573,82.4720446 44.2829488,83.4594018 C42.6594676,87.4104732 41.4922321,90.0123482 41.4922321,90.0123482" id="Fill-39" fill="#414549"></path>
            <path d="M78.2895154,85.5386018 C78.2895154,85.5386018 78.298116,85.5472268 78.3022116,85.5714589 C78.3063072,85.5928161 78.29443,85.6388161 78.2436451,85.6523696 C78.1871263,85.6626375 78.1457611,85.6104768 78.0876041,85.5813161 C78.0302662,85.5464054 77.9639181,85.5053339 77.8889693,85.4589232 C77.5895836,85.2724589 77.1509488,84.9989232 76.5919044,84.6506375 C75.4783208,83.9487268 73.8916997,82.9400125 72.0036451,81.7058161 C71.0592082,81.0901554 70.035727,80.4231554 68.9614608,79.7056375 C67.8855563,78.9909946 66.7473993,78.2410304 65.5822116,77.4487625 C64.4162048,76.6569054 63.203099,75.8514946 61.9854881,75.0103518 C61.3760683,74.5918339 60.7613242,74.1692089 60.1441229,73.7453518 L59.2172969,73.1083339 C59.2222116,73.1103875 59.2115631,73.1066911 59.2529283,73.1296911 C59.3041229,73.1563875 59.3266485,73.1621375 59.366785,73.1724054 C59.439686,73.1884232 59.5154539,73.1855482 59.5867167,73.1646018 C59.6547031,73.1465304 59.7312901,73.0964232 59.7689693,73.0578161 L59.7435768,73.0828696 L59.6432355,73.1814411 L59.4425529,73.3794054 L59.0407782,73.7749232 C57.9611877,74.8214232 56.8815973,75.8683339 55.8183891,76.8988161 C54.759686,77.9329946 53.6960683,78.9293875 52.6787304,79.9052446 C50.6366826,81.8499768 48.7158635,83.6489054 47.0555222,85.1775839 C45.399686,86.7107804 44.0026894,87.9704411 43.0213925,88.8485482 C42.5282867,89.2847268 42.1408464,89.6280839 41.8766826,89.8617804 C41.737843,89.9722625 41.6567509,90.0819232 41.5605051,90.1143696 C41.5076724,90.1119054 41.486785,90.0683696 41.4863754,90.0470125 C41.4855563,90.0227804 41.4921092,90.0125125 41.4921092,90.0125125 C41.4921092,90.0125125 41.486785,90.0236018 41.4896519,90.0466018 C41.4925188,90.0667268 41.5166826,90.1028696 41.559686,90.0999946 C41.6305392,90.0687804 41.7161365,89.9435125 41.8377747,89.8219411 C42.0777747,89.5631911 42.4295836,89.1836911 42.8780478,88.7006911 C43.7786621,87.7396196 45.0708123,86.3719411 46.6422799,84.7520839 C48.2088328,83.1277089 50.0526553,81.2491018 52.0443276,79.2522089 C53.0436451,78.2574589 54.0642594,77.2175304 55.1229625,76.1829411 C56.1779795,75.1442446 57.2493788,74.0891196 58.3211877,73.0344054 L58.7258294,72.6417625 L58.9285597,72.4454411 L59.0297201,72.3476911 L59.0547031,72.3226375 C59.1087645,72.2676018 59.2062389,72.2047625 59.2967509,72.1809411 C59.3901297,72.1526018 59.490471,72.1489054 59.5858976,72.1702625 C59.6379113,72.1825839 59.6714949,72.1928518 59.7329283,72.2244768 C59.784942,72.2528161 59.7833038,72.2561018 59.7984573,72.2651375 L60.7203686,72.9091375 C61.333884,73.3383339 61.9453515,73.7654768 62.5514949,74.1889232 C63.7666485,75.0337625 64.9469898,75.8868161 66.0974334,76.7004411 C67.2486962,77.5136554 68.3499932,78.3157804 69.3976382,79.0723161 C70.4469215,79.8263875 71.4310853,80.5504768 72.3394812,81.2191196 C74.1579113,82.5535304 75.6597543,83.6854589 76.7082184,84.4822446 C77.2304027,84.8826911 77.6407782,85.1981196 77.9209147,85.4125125 C78.0609829,85.5119054 78.1658294,85.6236196 78.2411877,85.6384054 C78.283372,85.6326554 78.3005734,85.5928161 78.2985256,85.5714589 C78.2972969,85.5488696 78.2895154,85.5386018 78.2895154,85.5386018" id="Fill-41" fill="#414549"></path>
            <path d="M102.796874,81.2995375 C102.796874,81.2995375 102.80916,81.3114482 102.808341,81.3422518 C102.810389,81.3697696 102.77271,81.4289125 102.706362,81.4067339 C102.59742,81.3673054 102.434416,81.3093946 102.222676,81.2338232 C101.799195,81.0802161 101.174621,80.8654125 100.387863,80.5721625 C98.813529,79.9852518 96.5540068,79.1745018 93.8624027,78.1522339 C92.5170102,77.6396625 91.0598089,77.0839661 89.5178294,76.4966446 C87.9799454,75.9002875 86.3581024,75.2718946 84.6805597,74.6213232 C83.0062935,73.9621268 81.2759181,73.2807518 79.5181024,72.5882875 C77.7635631,71.8876089 75.9811741,71.1758411 74.1991945,70.4632518 C72.4213106,69.7399839 70.6430171,69.0175375 68.8933925,68.3053589 C68.4555768,68.1275196 68.0198089,67.9500911 67.5860887,67.7734839 C67.369843,67.6843589 67.1544164,67.5948232 66.9389898,67.5056982 L66.6170785,67.3722161 L66.4565324,67.3056804 L66.3758498,67.2724125 L66.3557816,67.2637875 C66.3656109,67.2674839 66.3054061,67.2448946 66.3725734,67.2691268 C66.3348942,67.2576268 66.4159863,67.2863768 66.4794676,67.2863768 C66.5245188,67.2876089 66.5699795,67.2814482 66.6121638,67.2683054 C66.7825392,67.2124482 66.8906621,67.0740375 66.9017201,66.8920911 C66.9074539,66.8033768 66.8734608,66.7060375 66.8382389,66.6546982 L66.8611741,66.6912518 L66.9525051,66.8386982 L67.1359863,67.1323589 C67.2580341,67.3274482 67.3792628,67.5225375 67.5000819,67.7172161 C67.7421297,68.1053411 67.9825392,68.4905911 68.220901,68.8733768 C70.126157,71.9331982 71.8856109,74.8016268 73.3780341,77.2700196 C74.8778294,79.7334839 76.0888874,81.8116982 76.9546894,83.2545375 C77.388,83.9761625 77.7135973,84.5519839 77.9417201,84.9405196 C78.1686143,85.3306982 78.2894334,85.5385196 78.2894334,85.5385196 C78.2894334,85.5385196 78.1522321,85.3413768 77.8946212,84.9709125 C77.639058,84.5996268 77.2557133,84.0607696 76.7851331,83.3629661 C75.8447918,81.9677696 74.4756451,79.9910018 72.8783754,77.5899661 C71.2737338,75.1934482 69.420901,72.3849839 67.4550307,69.3633589 C67.2092969,68.9859125 66.9619249,68.6051804 66.7125051,68.2211625 C66.588,68.0293589 66.4626758,67.8371446 66.3373515,67.6436982 L66.1485461,67.3533232 L66.0539386,67.2079304 L66.0305939,67.1717875 C65.9793993,67.0953946 65.9363959,66.9688946 65.9437679,66.8518411 C65.9564642,66.6111625 66.1067713,66.4189482 66.3324369,66.3466625 C66.3889556,66.3290018 66.4487509,66.3207875 66.5085461,66.3224304 C66.5863618,66.3236625 66.6817884,66.3544661 66.6576246,66.3478946 L66.7350307,66.3766446 L66.8157133,66.4082696 L66.9778976,66.4719304 L67.3026758,66.5992518 C67.5193311,66.6842696 67.7368055,66.7692875 67.9546894,66.8547161 C68.3892287,67.0284482 68.8262253,67.2030018 69.2648601,67.3779661 C71.0193993,68.0794661 72.8017884,68.7916446 74.5837679,69.5034125 C76.3616519,70.2270911 78.1395358,70.9503589 79.88957,71.6621268 C81.6363276,72.3825196 83.3548259,73.0918232 85.0184437,73.7781268 C86.6783754,74.4730554 88.2830171,75.1453946 89.8041092,75.7824125 C91.3223345,76.4284661 92.7574198,77.0391982 94.0823345,77.6031089 C96.7305256,78.7338054 98.9212423,79.7170554 100.462403,80.3861089 C101.233188,80.7204304 101.832369,80.9993054 102.243154,81.1820732 C102.448341,81.2744839 102.60602,81.3455375 102.712096,81.3935911 C102.764928,81.4174125 102.804655,81.3689482 102.805065,81.3422518 C102.807932,81.3126804 102.796874,81.2995375 102.796874,81.2995375" id="Fill-43" fill="#414549"></path>
            <path d="M110.231304,33.3979714 C110.231304,33.3979714 110.249734,33.3996143 110.269392,33.4263107 C110.293147,33.4509536 110.284137,33.5199536 110.223113,33.5478821 C110.123181,33.6234536 109.975331,33.7351679 109.781611,33.8817929 C109.393761,34.1717571 108.83144,34.6062929 108.10284,35.1418643 C106.645638,36.2130071 104.581474,37.76715 102.074171,39.5882571 C100.8197,40.4979893 99.4599727,41.4832929 98.02243,42.525275 C96.5795631,43.5594536 95.0576519,44.6499 93.4833174,45.7785429 C91.9036587,46.8989714 90.2715768,48.0563643 88.6128737,49.2330607 C87.7810648,49.8175071 86.9422935,50.4064714 86.1002457,50.9979 L85.4683003,51.4418821 L85.309802,51.552775 L85.2307577,51.6086321 L85.1914403,51.63615 L85.1717816,51.6501143 C85.1558089,51.6607929 85.1631809,51.6570964 85.1914403,51.6340964 C85.3732833,51.4776143 85.3859795,51.2394 85.2860478,51.0693643 L85.3360137,51.1527393 L85.4359454,51.3182571 L86.2362184,52.6460964 C87.2941024,54.4232571 88.3515768,56.2008286 89.3926689,57.9500607 C90.4386758,59.6964179 91.4420887,61.431275 92.4266621,63.1012393 C94.3884369,66.4465071 96.2007235,69.5798464 97.7373788,72.2753643 C99.2822253,74.966775 100.530143,77.2330964 101.421747,78.8081857 C101.867754,79.595525 102.20359,80.2235071 102.439085,80.6473643 C102.672532,81.0728643 102.797038,81.2995786 102.797038,81.2995786 C102.797038,81.2995786 102.655741,81.0831321 102.390758,80.676525 C102.128232,80.2686857 101.73342,79.6768464 101.249324,78.9116857 C100.281952,77.3825964 98.8730785,75.2132036 97.229529,72.5813464 C95.5786075,69.9548286 93.6708942,66.8785786 91.647686,63.5706857 C90.6401775,61.914275 89.5847509,60.2110429 88.5383345,58.4646857 C87.4878225,56.7212036 86.4196997,54.9502036 85.3523959,53.1787929 L84.5590853,51.8464357 L84.4603823,51.6800964 L84.4108259,51.5967214 C84.2760819,51.37165 84.2994266,51.0545786 84.5304164,50.8549714 C84.5705529,50.8217036 84.5914403,50.8093821 84.5889829,50.8106143 L84.6086416,50.79665 L84.6483686,50.7691321 L84.7282321,50.7140964 L84.8867304,50.604025 L85.5211331,50.1637393 C86.3664573,49.57765 87.2085051,48.9932036 88.044,48.4136857 C89.7199044,47.2624536 91.3691877,46.1288821 92.9656382,45.032275 C94.567413,43.9438821 96.1155358,42.8912214 97.5837952,41.8935964 C99.0577884,40.9029536 100.450689,39.9669357 101.737106,39.1032036 C104.310758,37.3769714 106.481406,35.9752036 107.988573,34.9771679 C108.741747,34.4777393 109.344205,34.0998821 109.750075,33.8353821 C109.953625,33.704775 110.109666,33.60415 110.215331,33.5363821 C110.276765,33.5109179 110.284956,33.4554714 110.266526,33.4283643 C110.249734,33.4012571 110.231304,33.3979714 110.231304,33.3979714" id="Fill-45" fill="#414549"></path>
            <path d="M90.0530375,8.998175 C90.0530375,8.998175 89.1675768,11.6386571 87.7128328,15.5478357 C87.3503754,16.5257464 86.9580205,17.5849786 86.529215,18.6996571 C86.1032765,19.8159786 85.6593174,20.9947286 85.1809556,22.2067464 C84.943413,22.8137821 84.7025939,23.430675 84.4584983,24.0549607 L84.3667577,24.2890679 L84.3208874,24.4069429 L84.3151536,24.4217286 C84.3126962,24.4266571 84.3249829,24.3974964 84.3229352,24.4016036 C84.339727,24.3469786 84.3413652,24.3186393 84.343413,24.2878357 C84.3446416,24.2558 84.3421843,24.224175 84.3364505,24.1937821 C84.3139249,24.0709786 84.2332423,23.9600857 84.1202048,23.9013536 C84.034198,23.8623357 84.0812969,23.884925 84.0837543,23.8836929 L84.1136519,23.89355 L84.1738567,23.9132643 L84.2934471,23.9526929 L84.5342662,24.0319607 C84.8549488,24.1403893 85.1768601,24.2496393 85.5,24.3584786 C86.7925597,24.7975321 88.1060068,25.2431571 89.4190444,25.6887821 C90.7283959,26.1454964 92.0377474,26.6018 93.3266212,27.0519429 C94.6175427,27.4963357 95.8777474,27.9624964 97.1027304,28.3978536 C99.5494198,29.278425 101.826143,30.1208 103.771126,30.8604964 C107.665188,32.3312643 110.231468,33.3978893 110.231468,33.3978893 C110.231468,33.3978893 107.55256,32.6602464 103.578635,31.4227643 C101.590648,30.8087464 99.2774744,30.0723357 96.8074403,29.2599429 C95.5738567,28.8492286 94.2935836,28.4409786 93.0030717,27.9969964 C91.7105119,27.5579429 90.3974744,27.1123179 89.0844369,26.6671036 C87.7750853,26.2095679 86.4657338,25.7528536 85.1768601,25.3031214 C84.8549488,25.190175 84.5338567,25.0776393 84.2148123,24.9663357 L83.976041,24.8804964 L83.8572696,24.8377821 L83.797884,24.816425 L83.7679863,24.8057464 C83.750785,24.7975321 83.7778157,24.8143714 83.6725597,24.7663179 C83.5222526,24.6878714 83.4137201,24.5400143 83.3838225,24.3757286 C83.376041,24.3346571 83.3727645,24.2923536 83.3744027,24.2504607 C83.3764505,24.2089786 83.3805461,24.1699607 83.3997952,24.1050679 L83.4182253,24.0553714 L83.423959,24.0409964 L83.4735154,23.9247643 L83.5709898,23.6923 C83.8314676,23.0745857 84.0886689,22.4642643 84.3413652,21.8638 C84.8426621,20.6612286 85.3460068,19.5067107 85.8182253,18.4096929 C86.2879863,17.3114429 86.7446416,16.2784964 87.1664846,15.3248179 C88.8477133,11.50805 90.0530375,8.998175 90.0530375,8.998175" id="Fill-47" fill="#414549"></path>
            <path d="M39.835413,48.1431482 C40.5648328,47.7229875 41.1791672,47.2987196 41.6775973,46.8711661 C42.1760273,46.4440232 42.540942,46.0382375 42.7723413,45.6542196 C43.0033311,45.2706125 43.0897474,44.9625768 43.0324096,44.7301125 C42.9746621,44.5420054 42.8157543,44.4015411 42.555686,44.3062554 C42.2956177,44.2126125 41.9597816,44.1760589 41.5477679,44.1982375 C41.1357543,44.2195946 40.6627167,44.3029696 40.1278362,44.4479518 C39.5933652,44.5925232 39.0154812,44.8102018 38.3941843,45.1001661 C38.1914539,45.7232196 38.0182116,46.3750232 37.8740478,47.0563982 C37.7294744,47.7373625 37.5562321,48.4614518 37.3535017,49.2298982 C38.2782799,48.9251482 39.1055836,48.5633089 39.835413,48.1431482 M36.1727509,54.5872554 C36.0494744,55.1454161 35.937256,55.7142554 35.8365051,56.2937732 C36.5876314,56.1056661 37.2740478,55.8773089 37.8957543,55.6091125 C38.5166416,55.3409161 39.0441502,55.0587554 39.4778703,54.7613982 C39.9115904,54.4648625 40.2326826,54.1675054 40.4423754,53.8701482 C40.6516587,53.5736125 40.7274266,53.3017196 40.6700887,53.0548804 C40.5971877,52.9103089 40.4530239,52.7801125 40.2363686,52.6638804 C40.0197133,52.5480589 39.7305666,52.4683804 39.3693379,52.4248446 C39.0081092,52.3813089 38.5895427,52.3923982 38.1124096,52.4572911 C37.6352765,52.5225946 37.1081775,52.6499161 36.5302935,52.8376125 C36.4143891,53.4462911 36.2952082,54.0295054 36.1727509,54.5872554 M44.4519317,51.9898982 C44.8057884,52.5119161 45.0404642,53.0478982 45.1563686,53.5982554 C45.2284505,54.2504696 45.1420341,54.8049339 44.8963003,55.2612375 C44.6505666,55.7175411 44.2532969,56.1631661 43.7040819,56.5981125 C43.3281092,56.9312018 42.8837406,57.2499161 42.3713857,57.5542554 C41.8582116,57.8585946 41.3163686,58.1337732 40.7458567,58.3802018 C40.1749352,58.6266304 39.6003276,58.8471839 39.0228532,59.0430946 C38.4445597,59.2390054 37.8957543,59.4016482 37.3756177,59.5318446 C37.1008055,59.6045411 36.8661297,59.6550589 36.6711809,59.6846304 C36.4758225,59.7129696 36.2878362,59.7199518 36.1072218,59.7059875 C35.9270171,59.6916125 35.7496792,59.6550589 35.5764369,59.5975589 C35.4031945,59.5392375 35.2004642,59.4455946 34.969884,59.3149875 C34.5361638,59.1260589 34.1569147,58.9276839 33.831727,58.7169875 C33.5065392,58.5071125 33.1276997,58.2352196 32.6939795,57.9021304 C32.5350717,57.7279875 32.3941843,57.5797196 32.2713174,57.4565054 C32.1484505,57.3332911 32.0513857,57.2030946 31.9784846,57.0655054 C31.9068123,56.9279161 31.8560273,56.7718446 31.8269488,56.5981125 C31.7982799,56.4239696 31.7982799,56.1993089 31.8269488,55.9241304 C31.8703618,55.0258982 31.9498157,54.0081482 32.0653106,52.8704696 C32.181215,51.7327911 32.3077679,50.5519875 32.4445597,49.3276482 C32.5821706,48.1033089 32.704628,46.8711661 32.8131604,45.6328625 C32.9216928,44.3933268 32.9900887,43.2166304 33.0187577,42.1003089 C33.5679727,41.7963804 34.2036041,41.5138089 34.926471,41.2530054 C35.6485188,40.9917911 36.4037406,40.7675411 37.1913174,40.5790232 C37.9784846,40.3909161 38.7767099,40.2529161 39.5864027,40.1662554 C40.3952765,40.0791839 41.1648328,40.0574161 41.8946621,40.1009518 C42.6240819,40.1440768 43.2924778,40.2635946 43.8990307,40.4595054 C44.5059932,40.6550054 45.0048328,40.9412732 45.3947304,41.3183089 C45.9005324,41.8255411 46.3231945,42.3689161 46.6627167,42.9484339 C47.0022389,43.5279518 47.2512491,44.2015232 47.4105666,44.9695589 C47.4826485,45.3901304 47.4789625,45.7950946 47.3999181,46.1869161 C47.3200546,46.5779161 47.1865392,46.9549518 46.9985529,47.3167911 C46.8105666,47.6794518 46.5795768,48.0162375 46.3051741,48.3275589 C46.0303618,48.6392911 45.7342526,48.9329518 45.4164369,49.2081304 C45.0699522,49.4689339 44.715686,49.7330232 44.3544573,50.0008089 C43.9932287,50.2698268 43.5668805,50.5269339 43.0758225,50.7729518 C43.639372,51.0625054 44.0976655,51.4687018 44.4519317,51.9898982" id="Fill-49" fill="#F7DD05"></path>
            <path d="M54.5734198,51.6855589 C55.2307577,51.6132732 55.8917816,51.5553625 56.5564915,51.5118268 C56.527413,50.3240411 56.5057065,49.1395411 56.4917816,47.9579161 C56.4770375,46.7775232 56.484,45.6073982 56.5134881,44.4479518 C55.9351945,45.5059518 55.3102116,46.6756661 54.6385392,47.9579161 C53.9664573,49.2405768 53.291099,50.5700589 52.6116451,51.9467732 C53.2620205,51.8457375 53.9156724,51.7586661 54.5734198,51.6855589 M53.5114403,55.4349696 C52.4347167,55.5873446 51.4849556,55.7717554 50.6613379,55.9894339 C50.3721911,56.5541661 50.1194949,57.0798804 49.9028396,57.5649339 C49.6857747,58.0508089 49.4764915,58.5251839 49.2741706,58.9884696 C49.1582662,59.2348982 49.0177884,59.3798804 48.8515085,59.4234161 C48.6852287,59.4665411 48.4362184,59.4303982 48.1036587,59.3149875 C47.9160819,59.2418804 47.7104846,59.1589161 47.4860478,59.0648625 C47.2620205,58.9708089 47.0347167,58.8656661 46.8033174,58.7498446 C46.6300751,58.6340232 46.4781297,58.5362732 46.3483003,58.4561839 C46.2180614,58.3769161 46.1173106,58.2787554 46.0448191,58.1629339 C45.9727372,58.0471125 45.9330102,57.8988446 45.9256382,57.7173089 C45.9182662,57.5361839 45.9579932,57.2930411 46.0448191,56.9891125 C46.3917133,55.9894339 46.8430444,54.8156125 47.3992218,53.4680589 C47.9553993,52.1205054 48.5553993,50.7294161 49.1984027,49.2952018 C49.8409966,47.8605768 50.498744,46.4440232 51.1704164,45.0455411 C51.8424983,43.6474696 52.4818157,42.4046482 53.0887782,41.3183089 C53.3054334,40.9268982 53.5872082,40.6081839 53.9341024,40.3617554 C54.2809966,40.1157375 54.7937611,40.0212732 55.4728055,40.0791839 C56.0654334,40.1083446 56.5925324,40.1555768 57.0553311,40.2204696 C57.5173106,40.2857732 57.9399727,40.3617554 58.3229078,40.4488268 C58.705843,40.5358982 59.0601092,40.6299518 59.3852969,40.7309875 C59.7100751,40.8328446 60.0385392,40.9268982 60.371099,41.0139696 C60.8191536,41.1733268 61.1046143,41.3832018 61.2274812,41.6444161 C61.3499386,41.9052196 61.3900751,42.2457018 61.3466621,42.6658625 C61.2598362,43.6947018 61.1873447,44.8755054 61.1300068,46.2082732 C61.0718498,47.5418625 61.0284369,48.9329518 60.9997679,50.3815411 C60.9706894,51.8309518 60.9526689,53.2836482 60.9457065,54.7396304 C60.9383345,56.1956125 60.9420205,57.5468625 60.9563549,58.7933804 C60.9563549,59.0537732 60.9022935,59.2348982 60.7937611,59.3363446 C60.6856382,59.4377911 60.4435904,59.4887196 60.0680273,59.4887196 C59.6920546,59.4887196 59.3451604,59.4780411 59.0273447,59.4558625 C58.709529,59.4345054 58.3843413,59.3655054 58.0521911,59.2496839 C57.7052969,59.1482375 57.4632491,59.0180411 57.3260478,58.8582732 C57.1884369,58.6989161 57.0909625,58.4167554 57.033215,58.0105589 C56.9754676,57.5903982 56.9250922,57.1303982 56.8816792,56.6305589 C56.8382662,56.1307196 56.7948532,55.5836482 56.7518498,54.9893446 C55.6681638,55.1343268 54.5877543,55.2830054 53.5114403,55.4349696" id="Fill-51" fill="#F7DD05"></path>
            <path d="M66.7867167,51.4248786 C66.6130648,52.4101821 66.454157,53.3597536 66.3095836,54.2723607 C66.1650102,55.1853786 66.0388669,56.040075 65.9303345,56.8372714 C65.8222116,57.6340571 65.7386621,58.3441821 65.6813242,58.9672357 C65.6231672,59.2280393 65.5293788,59.398075 65.3991399,59.4777536 C65.2693106,59.5574321 65.0309488,59.5615393 64.6840546,59.4888429 C64.3519044,59.4161464 64.0156587,59.3253786 63.6761365,59.2173607 C63.3366143,59.1085214 63.0228942,58.9816107 62.7333379,58.8370393 C62.3725188,58.6628964 62.126785,58.4747893 61.9965461,58.2714857 C61.8663072,58.0690036 61.8159317,57.77945 61.8450102,57.4024143 C61.8450102,56.8372714 61.8704027,56.1452179 61.9207782,55.3262536 C61.9715631,54.5081107 62.0436451,53.6205571 62.1374334,52.6640036 C62.2316314,51.70745 62.3364778,50.7147536 62.4519727,49.686325 C62.5674676,48.6574857 62.6940205,47.6430214 62.8308123,46.6429321 C62.9684232,45.6436643 63.1056246,44.6982 63.2428259,43.80695 C63.3800273,42.9157 63.5139522,42.1295929 63.6437816,41.4486286 C63.7740205,40.9561821 63.9583208,40.6481464 64.1966826,40.5245214 C64.4350444,40.4017179 64.8065119,40.3766643 65.312314,40.4485393 C66.0929283,40.5647714 66.7539522,40.6949679 67.2957952,40.8403607 C67.8376382,40.9849321 68.3827577,41.1586643 68.9319727,41.3615571 C69.2792765,41.4917536 69.5532696,41.6330393 69.756,41.7854143 C69.9579113,41.9373786 70.1168191,42.1041286 70.2327235,42.2852536 C70.3482184,42.4663786 70.4309488,42.6659857 70.4817338,42.8828429 C70.5325188,43.1001107 70.5861706,43.34695 70.6443276,43.6221286 C70.6443276,43.752325 70.6553857,43.9083964 70.6770922,44.0895214 C70.6987986,44.2706464 70.741802,44.5926464 70.8069215,45.0563429 C70.8724505,45.52045 70.9699249,46.1796464 71.0997543,47.0347536 C71.2299932,47.8898607 71.410198,49.0632714 71.6415973,50.5558071 C71.872587,50.0337893 72.1433038,49.4616643 72.4545666,48.8382 C72.7650102,48.2155571 73.0865119,47.5777179 73.4186621,46.9259143 C73.7512218,46.2737 74.0940205,45.6214857 74.4482867,44.9696821 C74.8021433,44.3174679 75.1453515,43.7018071 75.4779113,43.1218786 C75.8100614,42.4557 76.0987986,41.9086286 76.3445324,41.481075 C76.5902662,41.0539321 76.843372,40.727825 77.1030307,40.5031643 C77.3635085,40.2780929 77.6559317,40.1515929 77.9811195,40.1224321 C78.3063072,40.0936821 78.7215973,40.1515929 79.2273993,40.296575 C79.8196177,40.4563429 80.4446007,40.64445 81.1019386,40.8613071 C81.759686,41.0789857 82.4059659,41.3328071 83.0420068,41.6223607 C83.4609829,41.8256643 83.7243276,42.0605929 83.8328601,42.3292 C83.9413925,42.5969857 83.916,42.9699143 83.7575017,43.4479857 C83.5404369,44.1293607 83.2947031,44.9121821 83.0203003,45.7952179 C82.7458976,46.6794857 82.4678089,47.6068786 82.1860341,48.5773964 C81.9038498,49.5487357 81.6224846,50.5336286 81.3407099,51.5341286 C81.0589352,52.5333964 80.7910853,53.48995 80.5387986,54.4025571 C80.2856928,55.3159857 80.0579795,56.1563071 79.8556587,56.9243429 C79.6533379,57.6923786 79.49443,58.3298071 79.3789352,58.8370393 C79.2777747,59.0978429 79.1626894,59.2855393 79.032041,59.4017714 C78.9022116,59.5175929 78.6491058,59.5319679 78.2739522,59.4453071 C77.9409829,59.3726107 77.6018703,59.2855393 77.2549761,59.1845036 C76.9084915,59.0830571 76.6050102,58.9602536 76.3445324,58.8148607 C76.0119727,58.6555036 75.792041,58.4669857 75.6839181,58.2497179 C75.5753857,58.03245 75.5569556,57.7428964 75.6294471,57.3802357 C75.686785,56.9457 75.7813925,56.3842536 75.9112218,55.6958964 C76.0414608,55.00795 76.1929966,54.2468964 76.3666485,53.4139679 C76.5394812,52.5802179 76.7311536,51.70745 76.9408464,50.7948429 C77.1501297,49.881825 77.3774334,48.9983786 77.6235768,48.1432714 C77.1898567,48.8965214 76.7311536,49.7154857 76.2474676,50.5989321 C75.7629625,51.4832 75.2936109,52.3526821 74.8381843,53.2073786 C74.3831672,54.0624857 73.9637816,54.86995 73.581256,55.6305929 C73.1983208,56.3916464 72.8911536,57.0257893 72.6601638,57.5326107 C72.5876724,57.6923786 72.5266485,57.8188786 72.476273,57.9129321 C72.4250785,58.0069857 72.3636451,58.0759857 72.2915631,58.1195214 C72.2194812,58.1630571 72.1252833,58.1885214 72.010198,58.1955036 C71.8942935,58.2028964 71.7427577,58.1844143 71.5547713,58.1412893 C70.9764778,58.0250571 70.4710853,57.8948607 70.0373652,57.7498786 C69.8784573,57.6923786 69.741256,57.62995 69.6257611,57.5650571 C69.5098567,57.4997536 69.4091058,57.4130929 69.3222799,57.3042536 C69.2354539,57.195825 69.159686,57.0619321 69.0949761,56.9021643 C69.0298567,56.7428071 68.9614608,56.540325 68.8889693,56.2934857 C68.5998225,55.2502714 68.3217338,54.0481107 68.0547031,52.6853607 C67.7868532,51.3238429 67.545215,49.9183786 67.3281502,48.4689679 C67.1405734,49.4546821 66.959959,50.4399857 66.7867167,51.4248786" id="Fill-53" fill="#F7DD05"></path>
            <path d="M91.2021297,41.1333643 C91.2959181,41.4015607 91.2783072,41.7309536 91.1480683,42.1223643 C90.7720956,43.2091143 90.4002184,44.3102393 90.0320273,45.42615 C89.6634266,46.5420607 89.3091604,47.6431857 88.9700478,48.7299357 C88.630116,49.8166857 88.3196724,50.8635964 88.0378976,51.8710786 C87.7561229,52.8777393 87.5071126,53.8158107 87.2900478,54.6852929 C87.2175563,54.9892214 87.1057474,55.1777393 86.9542116,55.2504357 C86.8022662,55.3231321 86.5602184,55.3157393 86.2276587,55.2286679 C85.8234266,55.1563821 85.4511399,55.0656143 85.1120273,54.956775 C84.7720956,54.8487571 84.4432218,54.7144536 84.1258157,54.5550964 C83.7928464,54.3809536 83.5729147,54.18915 83.4643823,53.9784536 C83.3562594,53.7689893 83.3382389,53.4539714 83.4107304,53.0334 C83.5262253,52.1930786 83.6884096,51.2044893 83.8981024,50.0664 C84.1073857,48.9287214 84.342471,47.7594179 84.6025392,46.556025 C84.8626075,45.3534536 85.1296382,44.1656679 85.4044505,42.9914357 C85.6788532,41.818025 85.9389215,40.7674179 86.1846553,39.840025 C86.3001502,39.391525 86.4697065,39.115525 86.6937338,39.0144893 C86.9177611,38.9130429 87.2609693,38.9417929 87.7237679,39.10115 C88.1566689,39.2169714 88.630116,39.3833107 89.1432901,39.6009893 C89.6560546,39.8186679 90.1004232,40.0572929 90.4763959,40.3180964 C90.8662935,40.5940964 91.1083413,40.8655786 91.2021297,41.1333643 M82.5760546,56.8481143 C82.713256,56.5795071 82.9118908,56.3556679 83.1723686,56.1741321 C83.4320273,55.9934179 83.7465666,55.8771857 84.1147577,55.8262571 C84.4833584,55.7757393 84.8982389,55.8151679 85.3610375,55.945775 C85.7509352,56.0476321 86.0691604,56.1959 86.3144846,56.3914 C86.5602184,56.5873107 86.7404232,56.8008821 86.8567372,57.032525 C86.9722321,57.2645786 87.033256,57.4966321 87.0410375,57.7278643 C87.0475904,57.9603286 87.0226075,58.1632214 86.9648601,58.3369536 C86.9218567,58.46715 86.8383072,58.6232214 86.7158498,58.8039357 C86.5925734,58.9854714 86.4410375,59.1518107 86.2608328,59.3041857 C86.0798089,59.4557393 85.8631536,59.5867571 85.6104573,59.6951857 C85.3573515,59.8036143 85.0718908,59.8582393 84.7544846,59.8582393 C84.0750307,59.8726143 83.4971468,59.6919 83.0200137,59.315275 C82.5432901,58.9382393 82.3200819,58.4018464 82.3483413,57.7065071 C82.3630853,57.4021679 82.4388532,57.1163107 82.5760546,56.8481143" id="Fill-55" fill="#F7DD05"></path>
            <path d="M39.835413,48.1431482 C40.5648328,47.7229875 41.1791672,47.2987196 41.6775973,46.8711661 C42.1760273,46.4440232 42.540942,46.0382375 42.7723413,45.6542196 C43.0033311,45.2706125 43.0897474,44.9625768 43.0324096,44.7301125 C42.9746621,44.5420054 42.8157543,44.4015411 42.555686,44.3062554 C42.2956177,44.2126125 41.9597816,44.1760589 41.5477679,44.1982375 C41.1357543,44.2195946 40.6627167,44.3029696 40.1278362,44.4479518 C39.5933652,44.5925232 39.0154812,44.8102018 38.3941843,45.1001661 C38.1914539,45.7232196 38.0182116,46.3750232 37.8740478,47.0563982 C37.7294744,47.7373625 37.5562321,48.4614518 37.3535017,49.2298982 C38.2782799,48.9251482 39.1055836,48.5633089 39.835413,48.1431482 Z M36.1727509,54.5872554 C36.0494744,55.1454161 35.937256,55.7142554 35.8365051,56.2937732 C36.5876314,56.1056661 37.2740478,55.8773089 37.8957543,55.6091125 C38.5166416,55.3409161 39.0441502,55.0587554 39.4778703,54.7613982 C39.9115904,54.4648625 40.2326826,54.1675054 40.4423754,53.8701482 C40.6516587,53.5736125 40.7274266,53.3017196 40.6700887,53.0548804 C40.5971877,52.9103089 40.4530239,52.7801125 40.2363686,52.6638804 C40.0197133,52.5480589 39.7305666,52.4683804 39.3693379,52.4248446 C39.0081092,52.3813089 38.5895427,52.3923982 38.1124096,52.4572911 C37.6352765,52.5225946 37.1081775,52.6499161 36.5302935,52.8376125 C36.4143891,53.4462911 36.2952082,54.0295054 36.1727509,54.5872554 Z M44.4519317,51.9898982 C44.8057884,52.5119161 45.0404642,53.0478982 45.1563686,53.5982554 C45.2284505,54.2504696 45.1420341,54.8049339 44.8963003,55.2612375 C44.6505666,55.7175411 44.2532969,56.1631661 43.7040819,56.5981125 C43.3281092,56.9312018 42.8837406,57.2499161 42.3713857,57.5542554 C41.8582116,57.8585946 41.3163686,58.1337732 40.7458567,58.3802018 C40.1749352,58.6266304 39.6003276,58.8471839 39.0228532,59.0430946 C38.4445597,59.2390054 37.8957543,59.4016482 37.3756177,59.5318446 C37.1008055,59.6045411 36.8661297,59.6550589 36.6711809,59.6846304 C36.4758225,59.7129696 36.2878362,59.7199518 36.1072218,59.7059875 C35.9270171,59.6916125 35.7496792,59.6550589 35.5764369,59.5975589 C35.4031945,59.5392375 35.2004642,59.4455946 34.969884,59.3149875 C34.5361638,59.1260589 34.1569147,58.9276839 33.831727,58.7169875 C33.5065392,58.5071125 33.1276997,58.2352196 32.6939795,57.9021304 C32.5350717,57.7279875 32.3941843,57.5797196 32.2713174,57.4565054 C32.1484505,57.3332911 32.0513857,57.2030946 31.9784846,57.0655054 C31.9068123,56.9279161 31.8560273,56.7718446 31.8269488,56.5981125 C31.7982799,56.4239696 31.7982799,56.1993089 31.8269488,55.9241304 C31.8703618,55.0258982 31.9498157,54.0081482 32.0653106,52.8704696 C32.181215,51.7327911 32.3077679,50.5519875 32.4445597,49.3276482 C32.5821706,48.1033089 32.704628,46.8711661 32.8131604,45.6328625 C32.9216928,44.3933268 32.9900887,43.2166304 33.0187577,42.1003089 C33.5679727,41.7963804 34.2036041,41.5138089 34.926471,41.2530054 C35.6485188,40.9917911 36.4037406,40.7675411 37.1913174,40.5790232 C37.9784846,40.3909161 38.7767099,40.2529161 39.5864027,40.1662554 C40.3952765,40.0791839 41.1648328,40.0574161 41.8946621,40.1009518 C42.6240819,40.1440768 43.2924778,40.2635946 43.8990307,40.4595054 C44.5059932,40.6550054 45.0048328,40.9412732 45.3947304,41.3183089 C45.9005324,41.8255411 46.3231945,42.3689161 46.6627167,42.9484339 C47.0022389,43.5279518 47.2512491,44.2015232 47.4105666,44.9695589 C47.4826485,45.3901304 47.4789625,45.7950946 47.3999181,46.1869161 C47.3200546,46.5779161 47.1865392,46.9549518 46.9985529,47.3167911 C46.8105666,47.6794518 46.5795768,48.0162375 46.3051741,48.3275589 C46.0303618,48.6392911 45.7342526,48.9329518 45.4164369,49.2081304 C45.0699522,49.4689339 44.715686,49.7330232 44.3544573,50.0008089 C43.9932287,50.2698268 43.5668805,50.5269339 43.0758225,50.7729518 C43.639372,51.0625054 44.0976655,51.4687018 44.4519317,51.9898982 Z" id="Stroke-57" stroke="#34373A" stroke-width="0.819112628"></path>
            <path d="M54.5734198,51.6855589 C55.2307577,51.6132732 55.8917816,51.5553625 56.5564915,51.5118268 C56.527413,50.3240411 56.5057065,49.1395411 56.4917816,47.9579161 C56.4770375,46.7775232 56.484,45.6073982 56.5134881,44.4479518 C55.9351945,45.5059518 55.3102116,46.6756661 54.6385392,47.9579161 C53.9664573,49.2405768 53.291099,50.5700589 52.6116451,51.9467732 C53.2620205,51.8457375 53.9156724,51.7586661 54.5734198,51.6855589 Z M53.5114403,55.4349696 C52.4347167,55.5873446 51.4849556,55.7717554 50.6613379,55.9894339 C50.3721911,56.5541661 50.1194949,57.0798804 49.9028396,57.5649339 C49.6857747,58.0508089 49.4764915,58.5251839 49.2741706,58.9884696 C49.1582662,59.2348982 49.0177884,59.3798804 48.8515085,59.4234161 C48.6852287,59.4665411 48.4362184,59.4303982 48.1036587,59.3149875 C47.9160819,59.2418804 47.7104846,59.1589161 47.4860478,59.0648625 C47.2620205,58.9708089 47.0347167,58.8656661 46.8033174,58.7498446 C46.6300751,58.6340232 46.4781297,58.5362732 46.3483003,58.4561839 C46.2180614,58.3769161 46.1173106,58.2787554 46.0448191,58.1629339 C45.9727372,58.0471125 45.9330102,57.8988446 45.9256382,57.7173089 C45.9182662,57.5361839 45.9579932,57.2930411 46.0448191,56.9891125 C46.3917133,55.9894339 46.8430444,54.8156125 47.3992218,53.4680589 C47.9553993,52.1205054 48.5553993,50.7294161 49.1984027,49.2952018 C49.8409966,47.8605768 50.498744,46.4440232 51.1704164,45.0455411 C51.8424983,43.6474696 52.4818157,42.4046482 53.0887782,41.3183089 C53.3054334,40.9268982 53.5872082,40.6081839 53.9341024,40.3617554 C54.2809966,40.1157375 54.7937611,40.0212732 55.4728055,40.0791839 C56.0654334,40.1083446 56.5925324,40.1555768 57.0553311,40.2204696 C57.5173106,40.2857732 57.9399727,40.3617554 58.3229078,40.4488268 C58.705843,40.5358982 59.0601092,40.6299518 59.3852969,40.7309875 C59.7100751,40.8328446 60.0385392,40.9268982 60.371099,41.0139696 C60.8191536,41.1733268 61.1046143,41.3832018 61.2274812,41.6444161 C61.3499386,41.9052196 61.3900751,42.2457018 61.3466621,42.6658625 C61.2598362,43.6947018 61.1873447,44.8755054 61.1300068,46.2082732 C61.0718498,47.5418625 61.0284369,48.9329518 60.9997679,50.3815411 C60.9706894,51.8309518 60.9526689,53.2836482 60.9457065,54.7396304 C60.9383345,56.1956125 60.9420205,57.5468625 60.9563549,58.7933804 C60.9563549,59.0537732 60.9022935,59.2348982 60.7937611,59.3363446 C60.6856382,59.4377911 60.4435904,59.4887196 60.0680273,59.4887196 C59.6920546,59.4887196 59.3451604,59.4780411 59.0273447,59.4558625 C58.709529,59.4345054 58.3843413,59.3655054 58.0521911,59.2496839 C57.7052969,59.1482375 57.4632491,59.0180411 57.3260478,58.8582732 C57.1884369,58.6989161 57.0909625,58.4167554 57.033215,58.0105589 C56.9754676,57.5903982 56.9250922,57.1303982 56.8816792,56.6305589 C56.8382662,56.1307196 56.7948532,55.5836482 56.7518498,54.9893446 C55.6681638,55.1343268 54.5877543,55.2830054 53.5114403,55.4349696 Z" id="Stroke-59" stroke="#34373A" stroke-width="0.819112628"></path>
            <path d="M66.7867167,51.4248786 C66.6130648,52.4101821 66.454157,53.3597536 66.3095836,54.2723607 C66.1650102,55.1853786 66.0388669,56.040075 65.9303345,56.8372714 C65.8222116,57.6340571 65.7386621,58.3441821 65.6813242,58.9672357 C65.6231672,59.2280393 65.5293788,59.398075 65.3991399,59.4777536 C65.2693106,59.5574321 65.0309488,59.5615393 64.6840546,59.4888429 C64.3519044,59.4161464 64.0156587,59.3253786 63.6761365,59.2173607 C63.3366143,59.1085214 63.0228942,58.9816107 62.7333379,58.8370393 C62.3725188,58.6628964 62.126785,58.4747893 61.9965461,58.2714857 C61.8663072,58.0690036 61.8159317,57.77945 61.8450102,57.4024143 C61.8450102,56.8372714 61.8704027,56.1452179 61.9207782,55.3262536 C61.9715631,54.5081107 62.0436451,53.6205571 62.1374334,52.6640036 C62.2316314,51.70745 62.3364778,50.7147536 62.4519727,49.686325 C62.5674676,48.6574857 62.6940205,47.6430214 62.8308123,46.6429321 C62.9684232,45.6436643 63.1056246,44.6982 63.2428259,43.80695 C63.3800273,42.9157 63.5139522,42.1295929 63.6437816,41.4486286 C63.7740205,40.9561821 63.9583208,40.6481464 64.1966826,40.5245214 C64.4350444,40.4017179 64.8065119,40.3766643 65.312314,40.4485393 C66.0929283,40.5647714 66.7539522,40.6949679 67.2957952,40.8403607 C67.8376382,40.9849321 68.3827577,41.1586643 68.9319727,41.3615571 C69.2792765,41.4917536 69.5532696,41.6330393 69.756,41.7854143 C69.9579113,41.9373786 70.1168191,42.1041286 70.2327235,42.2852536 C70.3482184,42.4663786 70.4309488,42.6659857 70.4817338,42.8828429 C70.5325188,43.1001107 70.5861706,43.34695 70.6443276,43.6221286 C70.6443276,43.752325 70.6553857,43.9083964 70.6770922,44.0895214 C70.6987986,44.2706464 70.741802,44.5926464 70.8069215,45.0563429 C70.8724505,45.52045 70.9699249,46.1796464 71.0997543,47.0347536 C71.2299932,47.8898607 71.410198,49.0632714 71.6415973,50.5558071 C71.872587,50.0337893 72.1433038,49.4616643 72.4545666,48.8382 C72.7650102,48.2155571 73.0865119,47.5777179 73.4186621,46.9259143 C73.7512218,46.2737 74.0940205,45.6214857 74.4482867,44.9696821 C74.8021433,44.3174679 75.1453515,43.7018071 75.4779113,43.1218786 C75.8100614,42.4557 76.0987986,41.9086286 76.3445324,41.481075 C76.5902662,41.0539321 76.843372,40.727825 77.1030307,40.5031643 C77.3635085,40.2780929 77.6559317,40.1515929 77.9811195,40.1224321 C78.3063072,40.0936821 78.7215973,40.1515929 79.2273993,40.296575 C79.8196177,40.4563429 80.4446007,40.64445 81.1019386,40.8613071 C81.759686,41.0789857 82.4059659,41.3328071 83.0420068,41.6223607 C83.4609829,41.8256643 83.7243276,42.0605929 83.8328601,42.3292 C83.9413925,42.5969857 83.916,42.9699143 83.7575017,43.4479857 C83.5404369,44.1293607 83.2947031,44.9121821 83.0203003,45.7952179 C82.7458976,46.6794857 82.4678089,47.6068786 82.1860341,48.5773964 C81.9038498,49.5487357 81.6224846,50.5336286 81.3407099,51.5341286 C81.0589352,52.5333964 80.7910853,53.48995 80.5387986,54.4025571 C80.2856928,55.3159857 80.0579795,56.1563071 79.8556587,56.9243429 C79.6533379,57.6923786 79.49443,58.3298071 79.3789352,58.8370393 C79.2777747,59.0978429 79.1626894,59.2855393 79.032041,59.4017714 C78.9022116,59.5175929 78.6491058,59.5319679 78.2739522,59.4453071 C77.9409829,59.3726107 77.6018703,59.2855393 77.2549761,59.1845036 C76.9084915,59.0830571 76.6050102,58.9602536 76.3445324,58.8148607 C76.0119727,58.6555036 75.792041,58.4669857 75.6839181,58.2497179 C75.5753857,58.03245 75.5569556,57.7428964 75.6294471,57.3802357 C75.686785,56.9457 75.7813925,56.3842536 75.9112218,55.6958964 C76.0414608,55.00795 76.1929966,54.2468964 76.3666485,53.4139679 C76.5394812,52.5802179 76.7311536,51.70745 76.9408464,50.7948429 C77.1501297,49.881825 77.3774334,48.9983786 77.6235768,48.1432714 C77.1898567,48.8965214 76.7311536,49.7154857 76.2474676,50.5989321 C75.7629625,51.4832 75.2936109,52.3526821 74.8381843,53.2073786 C74.3831672,54.0624857 73.9637816,54.86995 73.581256,55.6305929 C73.1983208,56.3916464 72.8911536,57.0257893 72.6601638,57.5326107 C72.5876724,57.6923786 72.5266485,57.8188786 72.476273,57.9129321 C72.4250785,58.0069857 72.3636451,58.0759857 72.2915631,58.1195214 C72.2194812,58.1630571 72.1252833,58.1885214 72.010198,58.1955036 C71.8942935,58.2028964 71.7427577,58.1844143 71.5547713,58.1412893 C70.9764778,58.0250571 70.4710853,57.8948607 70.0373652,57.7498786 C69.8784573,57.6923786 69.741256,57.62995 69.6257611,57.5650571 C69.5098567,57.4997536 69.4091058,57.4130929 69.3222799,57.3042536 C69.2354539,57.195825 69.159686,57.0619321 69.0949761,56.9021643 C69.0298567,56.7428071 68.9614608,56.540325 68.8889693,56.2934857 C68.5998225,55.2502714 68.3217338,54.0481107 68.0547031,52.6853607 C67.7868532,51.3238429 67.545215,49.9183786 67.3281502,48.4689679 C67.1405734,49.4546821 66.959959,50.4399857 66.7867167,51.4248786 Z" id="Stroke-61" stroke="#34373A" stroke-width="0.819112628"></path>
            <path d="M91.2021297,41.1333643 C91.2959181,41.4015607 91.2783072,41.7309536 91.1480683,42.1223643 C90.7720956,43.2091143 90.4002184,44.3102393 90.0320273,45.42615 C89.6634266,46.5420607 89.3091604,47.6431857 88.9700478,48.7299357 C88.630116,49.8166857 88.3196724,50.8635964 88.0378976,51.8710786 C87.7561229,52.8777393 87.5071126,53.8158107 87.2900478,54.6852929 C87.2175563,54.9892214 87.1057474,55.1777393 86.9542116,55.2504357 C86.8022662,55.3231321 86.5602184,55.3157393 86.2276587,55.2286679 C85.8234266,55.1563821 85.4511399,55.0656143 85.1120273,54.956775 C84.7720956,54.8487571 84.4432218,54.7144536 84.1258157,54.5550964 C83.7928464,54.3809536 83.5729147,54.18915 83.4643823,53.9784536 C83.3562594,53.7689893 83.3382389,53.4539714 83.4107304,53.0334 C83.5262253,52.1930786 83.6884096,51.2044893 83.8981024,50.0664 C84.1073857,48.9287214 84.342471,47.7594179 84.6025392,46.556025 C84.8626075,45.3534536 85.1296382,44.1656679 85.4044505,42.9914357 C85.6788532,41.818025 85.9389215,40.7674179 86.1846553,39.840025 C86.3001502,39.391525 86.4697065,39.115525 86.6937338,39.0144893 C86.9177611,38.9130429 87.2609693,38.9417929 87.7237679,39.10115 C88.1566689,39.2169714 88.630116,39.3833107 89.1432901,39.6009893 C89.6560546,39.8186679 90.1004232,40.0572929 90.4763959,40.3180964 C90.8662935,40.5940964 91.1083413,40.8655786 91.2021297,41.1333643 Z M82.5760546,56.8481143 C82.713256,56.5795071 82.9118908,56.3556679 83.1723686,56.1741321 C83.4320273,55.9934179 83.7465666,55.8771857 84.1147577,55.8262571 C84.4833584,55.7757393 84.8982389,55.8151679 85.3610375,55.945775 C85.7509352,56.0476321 86.0691604,56.1959 86.3144846,56.3914 C86.5602184,56.5873107 86.7404232,56.8008821 86.8567372,57.032525 C86.9722321,57.2645786 87.033256,57.4966321 87.0410375,57.7278643 C87.0475904,57.9603286 87.0226075,58.1632214 86.9648601,58.3369536 C86.9218567,58.46715 86.8383072,58.6232214 86.7158498,58.8039357 C86.5925734,58.9854714 86.4410375,59.1518107 86.2608328,59.3041857 C86.0798089,59.4557393 85.8631536,59.5867571 85.6104573,59.6951857 C85.3573515,59.8036143 85.0718908,59.8582393 84.7544846,59.8582393 C84.0750307,59.8726143 83.4971468,59.6919 83.0200137,59.315275 C82.5432901,58.9382393 82.3200819,58.4018464 82.3483413,57.7065071 C82.3630853,57.4021679 82.4388532,57.1163107 82.5760546,56.8481143 Z" id="Stroke-63" stroke="#34373A" stroke-width="0.819112628"></path>
        </g>
    </g>
</svg>