<?xml version="1.0" encoding="UTF-8"?>
<svg width="120px" height="120px" viewBox="0 0 120 120" version="1.1" xmlns="http://www.w3.org/2000/svg" xmlns:xlink="http://www.w3.org/1999/xlink">
    <!-- Generator: Sketch 51.1 (57501) - http://www.bohemiancoding.com/sketch -->
    <title>Game element27</title>
    <desc>Created with Sketch.</desc>
    <defs>
        <polygon id="path-1" points="0.0866 0.4012 70.7216 0.4012 70.7216 14 0.0866 14"></polygon>
        <polygon id="path-3" points="0 0.279 13.5997 0.279 13.5997 35.165 0 35.165"></polygon>
        <polygon id="path-5" points="0 0.0045 13.5993 0.0045 13.5993 13.5995 0 13.5995"></polygon>
    </defs>
    <g id="Game-element27" stroke="none" stroke-width="1" fill="none" fill-rule="evenodd">
        <g id="Page-1">
            <path d="M113.2008,119.9999 C111.4078,119.9999 109.6568,119.2719 108.3918,118.0089 C108.0808,117.6959 107.7928,117.3449 107.5448,116.9769 C107.3048,116.6079 107.0968,116.2089 106.9208,115.8009 C106.7528,115.3929 106.6248,114.9609 106.5368,114.5279 C106.4488,114.0889 106.4008,113.6409 106.4008,113.1999 C106.4008,111.4089 107.1288,109.6569 108.3918,108.3939 C109.9768,106.8099 112.3198,106.0899 114.5288,106.5369 C114.9688,106.6249 115.3918,106.7539 115.8008,106.9209 C116.2168,107.0889 116.6078,107.3059 116.9758,107.5449 C117.3518,107.7929 117.6958,108.0809 118.0078,108.3939 C119.2718,109.6569 119.9998,111.4089 119.9998,113.1999 C119.9998,113.6409 119.9608,114.0889 119.8718,114.5279 C119.7838,114.9609 119.6478,115.3929 119.4798,115.8009 C119.3118,116.2089 119.0968,116.6079 118.8558,116.9769 C118.6078,117.3449 118.3198,117.6959 118.0078,118.0089 C117.6958,118.3199 117.3518,118.6079 116.9758,118.8559 C116.6078,119.0969 116.2168,119.3129 115.8008,119.4799 C115.3918,119.6479 114.9688,119.7759 114.5288,119.8639 C114.0968,119.9519 113.6478,119.9999 113.2008,119.9999" id="Fill-1" fill="#F4B30F"></path>
            <g id="Group-5" transform="translate(28.000000, 106.000000)">
                <mask id="mask-2" fill="white">
                    <use xlink:href="#path-1"></use>
                </mask>
                <g id="Clip-4"></g>
                <path d="M35.8436,7.2002 C35.8436,3.4492 38.8836,0.4012 42.6436,0.4012 C46.3956,0.4012 49.4426,3.4492 49.4426,7.2002 C49.4426,10.9532 46.3956,14.0002 42.6436,14.0002 C38.8836,14.0002 35.8436,10.9532 35.8436,7.2002 M57.1226,7.2002 C57.1226,3.4492 60.1706,0.4012 63.9216,0.4012 C67.6816,0.4012 70.7216,3.4492 70.7216,7.2002 C70.7216,10.9532 67.6816,14.0002 63.9216,14.0002 C60.1706,14.0002 57.1226,10.9532 57.1226,7.2002" id="Fill-3" fill="#F4B30F" mask="url(#mask-2)"></path>
            </g>
            <g id="Group-8" transform="translate(0.000000, 21.000000)">
                <mask id="mask-4" fill="white">
                    <use xlink:href="#path-3"></use>
                </mask>
                <g id="Clip-7"></g>
                <path d="M-0.0003,7.079 C-0.0003,3.327 3.0477,0.279 6.7997,0.279 C10.5597,0.279 13.5997,3.327 13.5997,7.079 C13.5997,10.838 10.5597,13.878 6.7997,13.878 C3.0477,13.878 -0.0003,10.838 -0.0003,7.079 M-0.0003,28.365 C-0.0003,24.605 3.0477,21.558 6.7997,21.558 C10.5597,21.558 13.5997,24.605 13.5997,28.365 C13.5997,32.117 10.5597,35.165 6.7997,35.165 C3.0477,35.165 -0.0003,32.117 -0.0003,28.365" id="Fill-6" fill="#F4B30F" mask="url(#mask-4)"></path>
            </g>
            <g id="Group-11">
                <mask id="mask-6" fill="white">
                    <use xlink:href="#path-5"></use>
                </mask>
                <g id="Clip-10"></g>
                <path d="M6.8073,13.5995 C6.3603,13.5995 5.9113,13.5595 5.4723,13.4715 C5.0393,13.3835 4.6163,13.2475 4.2003,13.0795 C3.7913,12.9125 3.4003,12.6955 3.0323,12.4545 C2.6563,12.2075 2.3123,11.9195 1.9923,11.6075 C0.7283,10.3435 -0.0007,8.5915 -0.0007,6.7995 C-0.0007,6.3605 0.0483,5.9125 0.1363,5.4715 C0.2243,5.0395 0.3523,4.6085 0.5283,4.2005 C0.6963,3.7915 0.9043,3.3925 1.1523,3.0245 C1.4003,2.6565 1.6803,2.3045 1.9923,1.9925 C2.3123,1.6805 2.6563,1.3925 3.0323,1.1445 C3.4003,0.9045 3.7913,0.6965 4.2003,0.5205 C4.6163,0.3525 5.0393,0.2245 5.4723,0.1365 C6.3523,-0.0395 7.2553,-0.0395 8.1353,0.1365 C8.5683,0.2245 8.9923,0.3525 9.4083,0.5205 C9.8153,0.6965 10.2073,0.9045 10.5763,1.1445 C10.9523,1.3925 11.2953,1.6805 11.6153,1.9925 C11.9273,2.3045 12.2073,2.6565 12.4553,3.0245 C12.7033,3.3925 12.9113,3.7915 13.0783,4.2005 C13.2553,4.6085 13.3833,5.0395 13.4713,5.4715 C13.5593,5.9125 13.5993,6.3605 13.5993,6.7995 C13.5993,8.5915 12.8793,10.3435 11.6153,11.6075 C11.2953,11.9195 10.9523,12.2075 10.5763,12.4545 C10.2073,12.6955 9.8153,12.9125 9.4083,13.0795 C8.9923,13.2475 8.5683,13.3835 8.1353,13.4715 C7.6963,13.5595 7.2473,13.5995 6.8073,13.5995" id="Fill-9" fill="#F4B30F" mask="url(#mask-6)"></path>
            </g>
            <path d="M21.2868,6.7997 C21.2868,3.0487 24.3268,0.0007 28.0868,0.0007 C31.8388,0.0007 34.8868,3.0487 34.8868,6.7997 C34.8868,10.5597 31.8388,13.5997 28.0868,13.5997 C24.3268,13.5997 21.2868,10.5597 21.2868,6.7997 M42.5648,6.7997 C42.5648,3.0487 45.6048,0.0007 49.3648,0.0007 C53.1168,0.0007 56.1648,3.0487 56.1648,6.7997 C56.1648,10.5597 53.1168,13.5997 49.3648,13.5997 C45.6048,13.5997 42.5648,10.5597 42.5648,6.7997 M63.8438,6.7997 C63.8438,3.0487 66.8838,0.0007 70.6428,0.0007 C74.3948,0.0007 77.4428,3.0487 77.4428,6.7997 C77.4428,10.5597 74.3948,13.5997 70.6428,13.5997 C66.8838,13.5997 63.8438,10.5597 63.8438,6.7997" id="Fill-12" fill="#F4B30F"></path>
            <path d="M106.401,49.3573 C106.401,45.6053 109.449,42.5653 113.201,42.5653 C116.961,42.5653 120,45.6053 120,49.3573 C120,53.1173 116.961,56.1573 113.201,56.1573 C109.449,56.1573 106.401,53.1173 106.401,49.3573 M106.401,70.6433 C106.401,66.8833 109.449,63.8443 113.201,63.8443 C116.961,63.8443 120,66.8833 120,70.6433 C120,74.3953 116.961,77.4433 113.201,77.4433 C109.449,77.4433 106.401,74.3953 106.401,70.6433 M106.401,91.9223 C106.401,88.1623 109.449,85.1233 113.201,85.1233 C116.961,85.1233 120,88.1623 120,91.9223 C120,95.6733 116.961,98.7213 113.201,98.7213 C109.449,98.7213 106.401,95.6733 106.401,91.9223" id="Fill-14" fill="#F4B30F"></path>
            <path d="M60.777,16.0887 C39.406,15.6607 22.049,33.3577 22.049,54.7327 L22.049,100.7277 C22.049,102.9187 24.763,103.9427 26.21,102.2957 L32.916,94.6637 C33.862,93.5867 35.539,93.5867 36.485,94.6637 L42.626,101.6517 C45.18,104.5607 49.665,104.6917 52.385,101.9397 L58.313,95.9417 C59.243,95.0007 60.762,95.0007 61.693,95.9417 L67.621,101.9397 C70.341,104.6917 74.826,104.5607 77.381,101.6517 L83.521,94.6637 C84.467,93.5867 86.144,93.5867 87.09,94.6637 L93.796,102.2957 C95.243,103.9427 97.957,102.9187 97.957,100.7277 L97.957,54.0347 C97.957,33.3317 81.381,16.5007 60.777,16.0887" id="Fill-16" fill="#D63C3C"></path>
            <path d="M48.735,48.2352 C48.735,51.4932 46.093,54.1342 42.836,54.1342 C39.577,54.1342 36.936,51.4932 36.936,48.2352 C36.936,44.9772 39.577,42.3362 42.836,42.3362 C46.093,42.3362 48.735,44.9772 48.735,48.2352" id="Fill-18" fill="#093B4C"></path>
            <path d="M83.07,48.2352 C83.07,51.4932 80.428,54.1342 77.171,54.1342 C73.913,54.1342 71.271,51.4932 71.271,48.2352 C71.271,44.9772 73.913,42.3362 77.171,42.3362 C80.428,42.3362 83.07,44.9772 83.07,48.2352" id="Fill-20" fill="#093B4C"></path>
            <path d="M69.7331,59.1503 C69.0161,59.1503 68.2991,59.4233 67.7531,59.9693 L59.8641,67.8593 L52.2001,60.1963 C51.1071,59.1023 49.3351,59.1033 48.2411,60.1963 L38.1831,70.2543 C37.0901,71.3473 37.0901,73.1203 38.1831,74.2133 C39.2771,75.3063 41.0491,75.3063 42.1431,74.2133 L50.2201,66.1353 L57.8841,73.7983 C58.9781,74.8913 60.7511,74.8913 61.8431,73.7983 L69.7331,65.9093 L77.8631,74.0393 C78.9561,75.1323 80.7291,75.1323 81.8221,74.0393 C82.9161,72.9453 82.9161,71.1723 81.8221,70.0793 L71.7121,59.9693 C71.1661,59.4233 70.4501,59.1503 69.7331,59.1503" id="Fill-22" fill="#093B4C"></path>
        </g>
    </g>
</svg>