<?xml version="1.0" encoding="UTF-8"?>
<svg width="120px" height="120px" viewBox="0 0 120 120" version="1.1" xmlns="http://www.w3.org/2000/svg" xmlns:xlink="http://www.w3.org/1999/xlink">
    <!-- Generator: Sketch 51.1 (57501) - http://www.bohemiancoding.com/sketch -->
    <title> Director1</title>
    <desc>Created with Sketch.</desc>
    <defs>
        <polygon id="path-1" points="0.199373684 0.299053333 13.3734789 0.299053333 13.3734789 5.86666667 0.199373684 5.86666667"></polygon>
    </defs>
    <g id="-Director1" stroke="none" stroke-width="1" fill="none" fill-rule="evenodd">
        <g id="Group-91" transform="translate(31.000000, 1.000000)">
            <path d="M50.9526,59.1568 C54.5746,63.7748 55.9586,77.6628 55.9586,77.6628 C55.9586,77.6628 55.9546,77.6408 55.9466,77.6028 C56.4066,78.2808 56.7366,79.1568 56.8466,80.1328 C57.0926,82.4488 55.9806,84.4728 54.3606,84.6448 C53.3066,84.7548 52.2946,84.0508 51.6486,82.9008 C51.0526,83.3948 50.4646,83.5948 50.0366,83.3648 C49.2446,82.9488 49.3406,81.2148 50.2446,79.4968 C50.6006,78.8488 51.0086,78.2868 51.4286,77.8668 C51.4766,77.7968 51.5086,77.7308 51.5426,77.6628 C51.5426,77.6628 49.9706,67.6288 48.3046,65.2548 C47.4546,64.0668 46.9166,63.4028 46.7226,62.8688 C46.5666,62.4528 46.4026,61.6408 46.3346,61.3368 C45.8006,58.9528 42.8466,53.5788 42.8466,53.5788 C42.8466,53.5788 49.1906,56.9068 50.9526,59.1568" id="Fill-382" fill="#FDDFBB"></path>
            <path d="M2.144,43.688 C3.324,43.186 4.742,43.646 5.894,44.752 C6.412,43.966 7.036,43.528 7.604,43.642 C8.672,43.852 9.168,45.896 8.726,48.196 C8.554,49.086 8.27,49.882 7.92,50.508 C7.87,50.806 7.802,51.078 7.716,51.328 L13.136,57.704 L24.632,53.578 C24.632,53.578 22.68,56.684 22.202,57.812 C21.844,58.638 21.168,61.25 21.168,61.25 C21.168,61.25 12.766,64.66 10.386,63.8 C7.434,62.73 4.054,53.134 4.054,53.134 C2.788,52.686 1.558,51.466 0.854,49.8 C-0.25,47.192 0.32,44.454 2.144,43.688" id="Fill-383" fill="#FDDFBB"></path>
            <path d="M8.7924,47.9106 C8.4624,50.1186 7.3704,51.7826 6.3504,51.6286 C5.3284,51.4806 4.7704,49.5666 5.1004,47.3566 C5.4284,45.1486 6.5264,43.4886 7.5424,43.6406 C8.5664,43.7886 9.1284,45.7026 8.7924,47.9106" id="Fill-384" fill="#FDDFBB"></path>
            <path d="M43.7436,112.1606 C45.5216,113.2546 46.8116,115.5726 45.2896,117.4006 C44.1396,118.6846 42.4516,117.7066 41.1656,117.1666 C39.7416,116.4886 38.1136,116.0326 36.8316,115.1506 C35.9956,114.5666 35.0236,113.8746 34.4636,113.0086 C34.2856,112.7406 34.2016,112.4246 34.2736,112.1606 L43.7436,112.1606 Z" id="Fill-385" fill="#333433"></path>
            <path d="M23.5034,112.1606 C21.7354,113.2546 20.4374,115.5726 21.9614,117.4006 C23.1174,118.6846 24.7954,117.7066 26.0834,117.1666 C27.5074,116.4886 29.1314,116.0326 30.4174,115.1506 C31.2494,114.5666 32.2234,113.8746 32.7834,113.0086 C32.9634,112.7406 33.0434,112.4246 32.9754,112.1606 L23.5034,112.1606 Z" id="Fill-386" fill="#333433"></path>
            <polygon id="Fill-387" fill="#226380" points="45.8822 86.3676 43.9402 112.2256 34.1342 112.2256 33.7702 93.5256 33.4782 93.5256 33.1102 112.2256 23.3042 112.2256 21.3722 86.3676"></polygon>
            <path d="M14.599,56.8442 C14.599,56.8442 16.975,55.7462 25.089,53.3322 C27.333,52.2522 31.883,51.9902 31.883,51.9902 L33.601,52.0482 L33.753,52.0482 L35.479,52.0282 C35.479,52.0282 40.635,52.2342 42.681,53.4922 L42.681,53.5042 C50.637,56.5662 52.965,61.5582 52.965,61.5582 C52.143,64.7702 47.577,64.7702 47.577,64.7702 L47.125,64.1222 C49.111,73.8982 49.363,86.3622 49.363,86.3622 L18.003,86.3622 C18.003,86.3622 18.427,71.3402 20.999,61.3602 L15.949,63.3162 C15.949,63.3162 13.779,59.5542 14.599,56.8442" id="Fill-388" fill="#565657"></path>
            <path d="M44.6772,53.731 C43.3032,52.555 38.1712,52.185 38.1712,52.185 L33.8232,57.941 L29.4752,52.185 C29.4752,52.185 24.3352,52.555 22.9672,53.731 C20.5392,61.431 16.3612,82.053 18.2532,86.621 C20.1952,88.769 32.6052,86.707 33.8232,86.505 C35.0472,86.707 47.4412,88.769 49.3892,86.621 C51.2832,82.053 47.1012,61.431 44.6772,53.731" id="Fill-389" fill="#E63744"></path>
            <path d="M42.926,65.1252 L46.28,65.1252 L46.28,61.5152 L42.926,61.5152 L42.926,65.1252 Z M42.926,72.0952 L46.28,72.0952 L46.28,68.6752 L42.926,68.6752 L42.926,72.0952 Z M42.926,79.1792 L46.28,79.1792 L46.28,75.6372 L42.926,75.6372 L42.926,79.1792 Z M42.926,86.0872 L46.28,86.0872 L46.28,82.7312 L42.926,82.7312 L42.926,86.0872 Z M35.83,65.1252 L39.45,65.1252 L39.45,61.5152 L35.83,61.5152 L35.83,65.1252 Z M35.83,72.0952 L39.45,72.0952 L39.45,68.6752 L35.83,68.6752 L35.83,72.0952 Z M35.83,79.1792 L39.45,79.1792 L39.45,75.6372 L35.83,75.6372 L35.83,79.1792 Z M35.83,86.0872 L39.45,86.0872 L39.45,82.7312 L35.83,82.7312 L35.83,86.0872 Z M28.874,65.1252 L32.294,65.1252 L32.294,61.5152 L28.874,61.5152 L28.874,65.1252 Z M28.874,72.0952 L32.294,72.0952 L32.294,68.6752 L28.874,68.6752 L28.874,72.0952 Z M28.874,79.1792 L32.294,79.1792 L32.294,75.6372 L28.874,75.6372 L28.874,79.1792 Z M28.874,86.0872 L32.294,86.0872 L32.294,82.7312 L28.874,82.7312 L28.874,86.0872 Z M21.776,65.1252 L25.386,65.1252 L25.386,61.5152 L21.776,61.5152 L21.776,65.1252 Z M21.776,72.0952 L25.386,72.0952 L25.386,68.6752 L21.776,68.6752 L21.776,72.0952 Z M21.776,79.1792 L25.386,79.1792 L25.386,75.6372 L21.776,75.6372 L21.776,79.1792 Z M21.776,86.0872 L25.386,86.0872 L25.386,82.7312 L21.776,82.7312 L21.776,86.0872 Z M49.832,82.7312 L49.862,82.7312 C49.828,76.4132 47.722,65.3232 45.866,58.0352 L42.928,58.0352 L42.928,54.6792 L44.964,54.6792 C44.866,54.3572 44.766,54.0312 44.678,53.7312 C43.304,52.5552 38.172,52.1832 38.172,52.1832 L36.28,54.6792 L39.45,54.6792 L39.45,58.0352 L35.832,58.0352 L35.832,55.3132 L33.836,57.9412 L32.294,55.9292 L32.294,58.0352 L28.874,58.0352 L28.874,54.6792 L31.358,54.6792 L29.476,52.1832 C29.476,52.1832 24.336,52.5552 22.966,53.7312 C22.87,54.0312 22.77,54.3572 22.676,54.6792 L25.386,54.6792 L25.386,58.0352 L21.776,58.0352 L21.776,58.0312 C20.422,63.3472 18.948,70.6732 18.236,76.6912 L18.236,79.1792 L17.96,79.1792 C17.844,80.4772 17.78,81.6352 17.776,82.7312 L18.236,82.7312 L18.236,86.0872 L18.072,86.0872 C18.124,86.2772 18.186,86.4652 18.254,86.6292 C20.194,88.7752 32.604,86.7152 33.824,86.5092 C35.046,86.7152 47.456,88.7672 49.402,86.6212 C49.604,86.1272 49.696,85.4452 49.832,84.6092 L49.832,82.7312 Z" id="Fill-390" fill="#BA3B4B"></path>
            <path d="M21.7768,61.516 L21.7768,58.036 L21.7608,58.036 C21.4868,59.13 21.2028,60.294 20.9308,61.516 L21.7768,61.516 Z" id="Fill-391" fill="#343434"></path>
            <path d="M28.8744,52.2388 C28.0924,52.3168 26.6144,52.4868 25.3864,52.7788 L25.3864,54.6808 L28.8744,54.6808 L28.8744,52.2388 Z" id="Fill-392" fill="#343434"></path>
            <polygon id="Fill-393" fill="#343434" points="25.358 61.5312 28.858 61.5312 28.858 58.0312 25.358 58.0312"></polygon>
            <polygon id="Fill-394" fill="#343434" points="32.304 61.5312 35.806 61.5312 35.806 58.0312 32.304 58.0312"></polygon>
            <path d="M42.9272,52.9536 C41.8352,52.6296 40.4132,52.4216 39.4512,52.3056 L39.4512,54.6796 L42.9272,54.6796 L42.9272,52.9536 Z" id="Fill-395" fill="#343434"></path>
            <polygon id="Fill-396" fill="#343434" points="39.45 61.5312 42.948 61.5312 42.948 58.0312 39.45 58.0312"></polygon>
            <path d="M46.2808,59.772 L46.2808,61.516 L46.7108,61.516 C46.5728,60.934 46.4168,60.34 46.2808,59.772" id="Fill-397" fill="#343434"></path>
            <path d="M21.7768,68.6742 L21.7768,65.1262 L20.1468,65.1262 C19.9088,66.2902 19.6748,67.4502 19.4588,68.6742 L21.7768,68.6742 Z" id="Fill-398" fill="#343434"></path>
            <polygon id="Fill-399" fill="#343434" points="25.358 68.6692 28.858 68.6692 28.858 65.1272 25.358 65.1272"></polygon>
            <polygon id="Fill-400" fill="#343434" points="32.304 68.6692 35.806 68.6692 35.806 65.1272 32.304 65.1272"></polygon>
            <polygon id="Fill-401" fill="#343434" points="39.45 68.6692 42.948 68.6692 42.948 65.1272 39.45 65.1272"></polygon>
            <path d="M47.4916,65.1254 L46.2816,65.1254 L46.2816,68.6734 L48.1796,68.6734 C47.9616,67.4494 47.7256,66.2894 47.4916,65.1254" id="Fill-402" fill="#343434"></path>
            <path d="M21.7768,75.6392 L21.7768,72.0952 L18.8708,72.0952 C18.6808,73.2552 18.5028,74.4812 18.3508,75.6392 L21.7768,75.6392 Z" id="Fill-403" fill="#343434"></path>
            <polygon id="Fill-404" fill="#343434" points="25.358 75.6172 28.858 75.6172 28.858 72.0712 25.358 72.0712"></polygon>
            <polygon id="Fill-405" fill="#343434" points="32.304 75.6172 35.806 75.6172 35.806 72.0712 32.304 72.0712"></polygon>
            <polygon id="Fill-406" fill="#343434" points="39.45 75.6172 42.948 75.6172 42.948 72.0712 39.45 72.0712"></polygon>
            <path d="M48.767,72.0942 L46.281,72.0942 L46.281,75.6382 L49.289,75.6382 C49.137,74.4802 48.959,73.2542 48.767,72.0942" id="Fill-407" fill="#343434"></path>
            <polygon id="Fill-408" fill="#343434" points="18.224 82.7092 21.762 82.7092 21.762 79.2152 18.224 79.2152"></polygon>
            <polygon id="Fill-409" fill="#343434" points="25.358 82.7092 28.858 82.7092 28.858 79.2152 25.358 79.2152"></polygon>
            <polygon id="Fill-410" fill="#343434" points="32.304 82.7092 35.806 82.7092 35.806 79.2152 32.304 79.2152"></polygon>
            <polygon id="Fill-411" fill="#343434" points="39.45 82.7092 42.948 82.7092 42.948 79.2152 39.45 79.2152"></polygon>
            <path d="M49.8314,80.7818 C49.7654,80.2778 49.7294,79.7638 49.6814,79.1798 L46.2814,79.1798 L46.2814,82.7318 L49.8314,82.7318 L49.8314,80.7818 Z" id="Fill-412" fill="#343434"></path>
            <path d="M18.2358,86.5258 C18.2358,86.5598 18.2538,86.5858 18.2618,86.6218 C18.7918,87.2078 20.0998,87.4838 21.7778,87.5658 L21.7778,86.0858 L18.2358,86.0858 L18.2358,86.5258 Z" id="Fill-413" fill="#343434"></path>
            <path d="M28.8744,87.1996 L28.8744,86.0856 L25.3864,86.0856 L25.3864,87.5076 C26.5484,87.4416 27.7804,87.3236 28.8744,87.1996" id="Fill-414" fill="#343434"></path>
            <path d="M32.2944,86.7426 C33.0624,86.6326 33.6204,86.5386 33.8364,86.5046 C34.0824,86.5426 34.8044,86.6706 35.8324,86.8126 L35.8324,86.0866 L32.2944,86.0866 L32.2944,86.7426 Z" id="Fill-415" fill="#343434"></path>
            <path d="M42.9272,87.5434 L42.9272,86.0854 L39.4512,86.0854 L39.4512,87.2694 C40.6012,87.3894 41.7692,87.4894 42.9272,87.5434" id="Fill-416" fill="#343434"></path>
            <path d="M46.2808,86.0864 L46.2808,87.5384 C47.7688,87.4304 48.8908,87.1684 49.3828,86.6284 C49.4528,86.4644 49.5188,86.2784 49.5668,86.0864 L46.2808,86.0864 Z" id="Fill-417" fill="#343434"></path>
            <path d="M47.3998,77.9594 L47.3998,80.9814 C47.3998,82.9834 45.7718,84.6054 43.7758,84.6054 L43.6018,84.6054 C41.5858,84.6054 39.9738,82.9834 39.9738,80.9814 L39.9738,77.3174 L47.3998,77.9594 Z" id="Fill-418" fill="#9B1826"></path>
            <path d="M19.7886,77.9594 L19.7886,80.9814 C19.7886,82.9834 21.4086,84.6054 23.4126,84.6054 L23.5946,84.6054 C25.5886,84.6054 27.2186,82.9834 27.2186,80.9814 L27.2186,77.3174 L19.7886,77.9594 Z" id="Fill-419" fill="#9B1826"></path>
            <path d="M33.6636,57.729 L33.6636,86.529 C33.7316,86.515 33.7836,86.509 33.8236,86.505 C33.8676,86.509 33.9176,86.515 33.9876,86.529 L33.9876,57.729 L33.8236,57.941 L33.6636,57.729 Z" id="Fill-420" fill="#343434"></path>
            <path d="M56.8472,80.145 C56.7352,79.169 56.4252,78.333 55.9592,77.663 L51.5812,77.657 C51.5432,77.723 51.4872,77.825 51.4552,77.891 C51.0272,78.305 50.6132,78.861 50.2692,79.519 C49.3712,81.225 49.2712,82.957 50.0612,83.371 C50.4832,83.599 51.0772,83.399 51.6692,82.907 C52.3052,84.051 53.3192,84.755 54.3712,84.645 C55.9872,84.473 57.0932,82.457 56.8472,80.145" id="Fill-421" fill="#FDDFBB"></path>
            <path d="M33.8354,56.2192 L29.9374,52.1952 C31.1454,52.0552 32.0454,52.0152 32.0454,52.0152 L33.7834,52.1092 L33.9174,52.1092 L35.6554,52.0372 C35.6554,52.0372 36.4714,52.0732 37.5994,52.1892 L33.8354,56.2192 Z" id="Fill-422" fill="#FDDFBB"></path>
            <path d="M55.98,31.7856 C56.14,30.6736 56.234,29.5496 56.234,28.4016 C56.234,15.9776 46.158,5.8996 33.732,5.8996 C21.308,5.8996 11.238,15.9776 11.238,28.4016 C11.238,29.4936 11.316,30.5716 11.464,31.6296 C10.17,32.3376 9.29,33.6836 9.29,35.2196 C9.29,37.4956 11.22,39.3516 13.59,39.3516 C13.75,39.3516 13.914,39.3436 14.066,39.3256 C17.906,46.2296 25.276,50.9036 33.732,50.9036 C42.188,50.9036 49.542,46.2376 53.388,39.3436 C53.458,39.3516 53.524,39.3516 53.594,39.3516 C55.976,39.3516 57.888,37.4956 57.888,35.2196 C57.888,33.7876 57.136,32.5196 55.98,31.7856" id="Fill-423" fill="#FDDFBB"></path>
            <g id="Page-1" transform="translate(21.000000, 25.000000)">
                <path d="M6.22875275,3.09640088 C5.45712117,2.92235643 5.3211738,1.89471199 2.8433317,2.35573421 C2.06412117,2.53613421 0.42612117,3.51195643 0.110647486,4.16364532 C-0.205299883,4.8158231 0.0234895909,1.77248977 2.56764749,0.641689768 C4.4031738,-0.0329768984 5.02512117,0.000267546019 6.54470012,0.000267546019 C8.06427906,0.000267546019 8.53227906,0.907156435 8.31106854,1.65026755 C8.31106854,1.65026755 7.80801591,3.45328977 6.22875275,3.09640088 Z" id="Fill-1" fill="#343434"></path>
                <path d="M20.1341558,3.09640088 C20.9057873,2.92235643 21.0417347,1.89471199 23.5195768,2.35573421 C24.2987873,2.53613421 25.9367873,3.51195643 26.252261,4.16364532 C26.5682084,4.8158231 26.3394189,1.77248977 23.795261,0.641689768 C21.9597347,-0.0329768984 21.3377873,0.000267546019 19.8182084,0.000267546019 C18.2986294,0.000267546019 17.8306294,0.907156435 18.05184,1.65026755 C18.05184,1.65026755 18.5548926,3.45328977 20.1341558,3.09640088 Z" id="Fill-3" fill="#343434"></path>
                <path d="M3.99983098,12 C2.89512381,12 2,10.6568785 2,9 C2,7.34312148 2.89512381,6 3.99983098,6 C5.10453816,6 6,7.34312148 6,9 C6,10.6568785 5.10453816,12 3.99983098,12 Z" id="Fill-5" fill="#343434"></path>
                <path d="M22.000169,12 C20.8951238,12 20,10.6568785 20,9 C20,7.34312148 20.8951238,6 22.000169,6 C23.1048762,6 24,7.34312148 24,9 C24,10.6568785 23.1048762,12 22.000169,12 Z" id="Fill-7" fill="#343434"></path>
                <path d="M13.0197368,12.0692 C13.8586316,11.9552889 15.9802632,13.8262667 15.9802632,13.8262667 C15.9802632,13.8262667 16.0825789,13.4116889 15.6396842,12.5884 C15.1626842,11.7025333 12.9903684,11 12.9903684,11 C12.9903684,11 11.3026316,11.4478222 10.5030526,12.6040444 C10.207,12.8939556 10,13.9025333 10,13.9025333 C10,13.9025333 11.8947368,12.2217333 13.0197368,12.0692 Z" id="Fill-9" fill="#EEAC6C"></path>
                <g id="Group-13" transform="translate(6.000000, 15.000000)">
                    <mask id="mask-2" fill="white">
                        <use xlink:href="#path-1"></use>
                    </mask>
                    <g id="Clip-12"></g>
                    <path d="M0.199373684,0.696031111 C0.199373684,0.696031111 7.09763684,3.90412 13.3734789,0.299053333 C13.3734789,0.299053333 11.9822684,5.76825333 7.42305789,5.86016444 C3.30768947,5.98238667 2.43942632,4.36807556 1.94632105,3.90412 C1.45274211,3.44114222 0.524794737,2.13238667 0.199373684,0.696031111" id="Fill-11" fill="#EEAC6C" mask="url(#mask-2)"></path>
                </g>
            </g>
            <path d="M25.1792,33.3676 C25.1792,34.7616 24.3472,35.8996 23.3112,35.8996 C22.2812,35.8996 21.4492,34.7616 21.4492,33.3676 C21.4492,31.9736 22.2812,30.8476 23.3112,30.8476 C24.3472,30.8476 25.1792,31.9736 25.1792,33.3676" id="Fill-426" fill="#FFFFFF"></path>
            <path d="M45.2378,33.3676 C45.2378,34.7616 44.3998,35.8996 43.3658,35.8996 C42.3418,35.8996 41.5078,34.7616 41.5078,33.3676 C41.5078,31.9736 42.3418,30.8476 43.3658,30.8476 C44.3998,30.8476 45.2378,31.9736 45.2378,33.3676" id="Fill-427" fill="#FFFFFF"></path>
            <path d="M24.4682,34.0668 C24.4682,34.9348 23.9502,35.6328 23.3122,35.6328 C22.6782,35.6328 22.1562,34.9348 22.1562,34.0668 C22.1562,33.2068 22.6782,32.5088 23.3122,32.5088 C23.9502,32.5088 24.4682,33.2068 24.4682,34.0668" id="Fill-428" fill="#343434"></path>
            <path d="M44.5308,34.0668 C44.5308,34.9348 44.0108,35.6328 43.3668,35.6328 C42.7328,35.6328 42.2148,34.9348 42.2148,34.0668 C42.2148,33.2068 42.7328,32.5088 43.3668,32.5088 C44.0108,32.5088 44.5308,33.2068 44.5308,34.0668" id="Fill-429" fill="#343434"></path>
            <path d="M57.1224,25.4654 C57.1104,24.2894 57.0264,22.8594 56.8544,21.3394 C53.8304,11.4374 44.6244,4.2354 33.7384,4.2354 C24.2644,4.2354 16.0524,9.6954 12.0924,17.6414 C10.9984,20.7634 10.3304,23.8314 10.2764,25.2214 C10.0884,30.0314 13.5884,37.2314 13.5884,37.2314 C13.1644,29.3174 13.2564,29.3334 15.1624,27.9654 C17.5384,26.2554 22.5424,23.0754 24.4684,20.8794 C24.8364,20.4614 25.6044,18.9594 25.6044,18.9594 C25.6044,18.9594 25.5184,20.1354 26.1864,20.6654 C30.1684,23.7974 41.9144,20.3054 46.3624,22.7334 C50.0104,24.7154 54.4324,37.2314 54.4324,37.2314 C56.2344,33.8294 57.1644,28.1134 57.1224,25.4654" id="Fill-432" fill="#333433"></path>
            <path d="M31.9722,53.475 L35.6562,53.475 C36.7062,53.475 37.5562,51.219 37.5562,50.185 L30.0782,50.185 C30.0782,51.219 30.9302,53.475 31.9722,53.475" id="Fill-433" fill="#FDDFBB"></path>
            <path d="M30.8822,52.7778 L37.5302,50.5898 L37.5422,50.5758 C36.3122,50.7898 35.0422,50.9038 33.7382,50.9038 C32.4962,50.9038 31.2762,50.7938 30.0922,50.6058 C30.1642,51.2458 30.4602,52.1438 30.8822,52.7778" id="Fill-434" fill="#EEAC6C"></path>
            <path d="M51.1596,29.3852 L16.2576,29.3852 L18.0976,30.7192 C17.7016,32.1052 16.9596,35.6332 18.2916,37.4112 C20.3396,40.1652 29.9136,36.5092 32.0456,33.8152 C32.8116,32.8492 32.5536,31.4292 32.2976,30.7032 L35.1456,30.7032 C34.8896,31.4292 34.6376,32.8372 35.3976,33.8012 C37.5356,36.4932 47.1016,40.1792 49.1556,37.4232 C50.4736,35.6472 49.7356,32.1052 49.3476,30.7192 L51.1596,29.3852 Z" id="Fill-435" fill="#343434"></path>
            <path d="M21.6538,30.7368 C21.8298,31.0128 21.7498,31.3828 21.4718,31.5588 L19.4178,32.8828 C19.1418,33.0628 18.7798,32.9808 18.6018,32.7068 L18.5978,32.6988 C18.4178,32.4268 18.4958,32.0648 18.7758,31.8868 L20.8338,30.5548 C21.1058,30.3828 21.4718,30.4568 21.6538,30.7308 L21.6538,30.7368 Z" id="Fill-436" fill="#515151"></path>
            <path d="M20.812,33.645 C20.812,34.005 20.52,34.305 20.146,34.305 C19.782,34.305 19.492,34.005 19.492,33.645 C19.492,33.275 19.782,32.981 20.146,32.981 C20.52,32.981 20.812,33.275 20.812,33.645" id="Fill-437" fill="#515151"></path>
            <path d="M10.8646,22.0278 C10.8646,32.9818 16.3786,30.5798 21.5846,28.7778 C33.5886,24.6138 33.5886,24.6138 45.2526,28.9378 C50.6906,30.9578 56.7806,33.6458 56.7806,22.0278 C56.7806,22.0278 45.6246,14.7658 33.5886,14.7658 C18.9766,14.7658 10.8646,22.0278 10.8646,22.0278" id="Fill-438" fill="#7F4A1A"></path>
            <path d="M10.8042,22.0552 C10.8042,22.0552 32.9062,15.8672 56.7802,22.0552 C59.3122,19.5192 51.2002,0.2492 34.0182,0.2492 C16.2962,0.2492 8.4582,19.7012 10.8042,22.0552" id="Fill-439" fill="#AD6921"></path>
        </g>
    </g>
</svg>