<?xml version="1.0" encoding="UTF-8"?>
<svg width="120px" height="120px" viewBox="0 0 120 120" version="1.1" xmlns="http://www.w3.org/2000/svg" xmlns:xlink="http://www.w3.org/1999/xlink">
    <!-- Generator: Sketch 51.1 (57501) - http://www.bohemiancoding.com/sketch -->
    <title>Game control4</title>
    <desc>Created with Sketch.</desc>
    <defs>
        <polygon id="path-1" points="0 1.05789474 118.447895 1.05789474 118.447895 53.6842105 0 53.6842105"></polygon>
        <polygon id="path-3" points="0 0.873157895 118.447895 0.873157895 118.447895 53.4991579 0 53.4991579"></polygon>
    </defs>
    <g id="Game-control4" stroke="none" stroke-width="1" fill="none" fill-rule="evenodd">
        <g id="Page-1" transform="translate(0.000000, 30.000000)">
            <g id="Group-3" transform="translate(0.000000, 5.442947)">
                <mask id="mask-2" fill="white">
                    <use xlink:href="#path-1"></use>
                </mask>
                <g id="Clip-2"></g>
                <path d="M118.448684,27.3726316 C118.448684,41.9036842 91.9334211,53.6842105 59.2239474,53.6842105 C26.5144737,53.6842105 -0.000789473684,41.9036842 -0.000789473684,27.3726316 C-0.000789473684,12.84 26.5144737,1.05789474 59.2239474,1.05789474 C91.9334211,1.05789474 118.448684,12.84 118.448684,27.3726316" id="Fill-1" fill="#F08B0C" mask="url(#mask-2)"></path>
            </g>
            <g id="Group-6" transform="translate(0.000000, 0.706105)">
                <mask id="mask-4" fill="white">
                    <use xlink:href="#path-3"></use>
                </mask>
                <g id="Clip-5"></g>
                <path d="M118.448684,27.186 C118.448684,41.7186316 91.9334211,53.4991579 59.2239474,53.4991579 C26.5144737,53.4991579 -0.000789473684,41.7186316 -0.000789473684,27.186 C-0.000789473684,12.6549474 26.5144737,0.872842105 59.2239474,0.872842105 C91.9334211,0.872842105 118.448684,12.6549474 118.448684,27.186" id="Fill-4" fill="#FFB956" mask="url(#mask-4)"></path>
            </g>
            <path d="M62.1911053,19.3327895 C62.1911053,24.6948947 52.4032105,29.0448947 40.329,29.0448947 C28.2563684,29.0448947 18.4700526,24.6948947 18.4700526,19.3327895 C18.4700526,13.9691053 28.2563684,9.62226316 40.329,9.62226316 C52.4032105,9.62226316 62.1911053,13.9691053 62.1911053,19.3327895" id="Fill-7" fill="#FFFFFF"></path>
        </g>
    </g>
</svg>