<?xml version="1.0" encoding="UTF-8"?>
<svg width="120px" height="120px" viewBox="0 0 120 120" version="1.1" xmlns="http://www.w3.org/2000/svg" xmlns:xlink="http://www.w3.org/1999/xlink">
    <!-- Generator: Sketch 51.1 (57501) - http://www.bohemiancoding.com/sketch -->
    <title>Fireworks4</title>
    <desc>Created with Sketch.</desc>
    <defs></defs>
    <g id="Fireworks4" stroke="none" stroke-width="1" fill="none" fill-rule="evenodd">
        <g id="Group" transform="translate(1.000000, 0.000000)">
            <polygon id="Fill-1" fill="#11897D" points="61.8379146 21.4366452 59.3340772 54.606 56.8302398 21.4366452"></polygon>
            <polygon id="Fill-2" fill="#11897D" points="53.5737033 34.8337742 59.0409309 58.1834516 50.1304431 35.9186129"></polygon>
            <polygon id="Fill-3" fill="#00AEEF" points="48.5671894 18.9114194 50.2447992 30.2388387 45.1239293 19.9962581"></polygon>
            <polygon id="Fill-4" fill="#00AEEF" points="71.3199894 19.4169677 63.7185016 43.4653548 66.4351846 18.3892258"></polygon>
            <polygon id="Fill-5" fill="#11897D" points="70.1487585 0.967258065 69.3757423 16.7830645 75.0345309 1.99403226"></polygon>
            <polygon id="Fill-6" fill="#11897D" points="33.6189512 31.0544516 55.2972683 56.2776774 30.0789431 34.5944516"></polygon>
            <polygon id="Fill-7" fill="#11897D" points="37.2465163 46.3720645 57.6197033 59.0165806 35.5795488 49.5743226"></polygon>
            <polygon id="Fill-8" fill="#00AEEF" points="22.4499789 38.6547097 31.6449057 45.4772903 20.7830114 41.8569677"></polygon>
            <polygon id="Fill-9" fill="#00AEEF" points="38.8966496 22.9174839 50.5218854 45.3013548 34.7161699 25.6465161"></polygon>
            <polygon id="Fill-10" fill="#00AEEF" points="29.2048252 7.9713871 35.6598496 22.4304194 25.025313 10.7013871"></polygon>
            <polygon id="Fill-11" fill="#00AEEF" points="20.4640333 57.8129032 53.6243992 60.3174194 20.4640333 62.8209677"></polygon>
            <polygon id="Fill-12" fill="#11897D" points="33.8575317 66.0783871 57.2018488 60.6096774 34.9430439 69.5235484"></polygon>
            <polygon id="Fill-13" fill="#00AEEF" points="17.9390081 71.0863548 29.2643252 69.4073226 19.0254878 74.5315161"></polygon>
            <polygon id="Fill-14" fill="#11897D" points="18.4445163 48.3264194 42.4883211 55.932871 17.4180203 53.2135161"></polygon>
            <polygon id="Fill-15" fill="#11897D" points="0 49.4993226 15.8124878 50.2706129 1.02552846 44.6131935"></polygon>
            <polygon id="Fill-16" fill="#00AEEF" points="30.0792333 86.0390323 55.2975585 64.3558065 33.6192415 89.5790323"></polygon>
            <polygon id="Fill-17" fill="#11897D" points="45.3926951 82.4109677 58.0337846 62.0293548 48.5950528 84.0783871"></polygon>
            <polygon id="Fill-18" fill="#00AEEF" points="37.676948 97.2115161 44.4986472 88.0121613 40.8793057 98.8789355"></polygon>
            <polygon id="Fill-19" fill="#11897D" points="21.9454382 80.760871 44.3222756 69.1305484 24.6746984 84.9395806"></polygon>
            <polygon id="Fill-20" fill="#11897D" points="7.00290813 90.4533871 21.4589894 83.9966129 9.73216829 94.635"></polygon>
            <polygon id="Fill-21" fill="#11897D" points="56.8314008 99.1961613 59.3352382 66.0277742 61.8361732 99.1980968"></polygon>
            <polygon id="Fill-22" fill="#11897D" points="65.0946447 85.800871 59.6264496 62.4473226 68.5379049 84.7160323"></polygon>
            <polygon id="Fill-23" fill="#00AEEF" points="70.1016423 101.722355 68.423065 90.393 73.5449024 100.637516"></polygon>
            <polygon id="Fill-24" fill="#11897D" points="47.3488423 101.217677 54.9512976 77.1663871 52.2336472 102.244452"></polygon>
            <polygon id="Fill-25" fill="#00AEEF" points="43.634978 118.642839 48.5207504 119.66671 49.2918317 103.850903"></polygon>
            <polygon id="Fill-26" fill="#00AEEF" points="85.048913 89.5792258 63.3705959 64.3540645 88.5889211 86.0392258"></polygon>
            <polygon id="Fill-27" fill="#11897D" points="81.421348 74.2617097 61.0471935 61.6162258 83.0892829 71.0594516"></polygon>
            <polygon id="Fill-28" fill="#00AEEF" points="96.2178854 81.9800323 87.023926 75.1564839 97.8858203 78.7758387"></polygon>
            <polygon id="Fill-29" fill="#11897D" points="79.7726659 97.7143548 68.1464626 75.3333871 83.952178 94.9862903"></polygon>
            <polygon id="Fill-30" fill="#11897D" points="89.4640065 112.660452 83.0080146 98.2014194 93.6425512 109.932387"></polygon>
            <polygon id="Fill-31" fill="#00AEEF" points="98.2029602 62.8207742 65.0435618 60.3172258 98.2039276 57.8127097"></polygon>
            <polygon id="Fill-32" fill="#11897D" points="84.8098488 54.5562581 61.4645642 60.0249677 83.7262715 51.1110968"></polygon>
            <polygon id="Fill-33" fill="#00AEEF" points="100.72934 49.5455806 89.4040228 51.2246129 99.6438276 46.1033226"></polygon>
            <polygon id="Fill-34" fill="#11897D" points="100.224412 72.3054194 76.1796398 64.701871 101.249941 67.4183226"></polygon>
            <polygon id="Fill-35" fill="#11897D" points="117.64282 76.0194194 118.66738 71.1313548 102.85586 70.362"></polygon>
            <polygon id="Fill-36" fill="#00AEEF" points="88.5876634 34.5946452 63.3712732 56.277871 85.0495902 31.0546452"></polygon>
            <polygon id="Fill-37" fill="#11897D" points="73.2747821 38.2228065 60.6336927 58.6024839 70.0743593 36.5534516"></polygon>
            <polygon id="Fill-38" fill="#11897D" points="80.9919805 23.423129 74.1693138 32.6195806 77.7886553 21.7557097"></polygon>
            <polygon id="Fill-39" fill="#11897D" points="96.7233935 39.8747419 74.3455886 51.503129 93.9941333 35.6921613"></polygon>
            <polygon id="Fill-40" fill="#00AEEF" points="111.66544 30.1784516 97.210326 36.638129 108.935212 25.9987742"></polygon>
        </g>
    </g>
</svg>