<?xml version="1.0" encoding="UTF-8"?>
<svg width="120px" height="120px" viewBox="0 0 120 120" version="1.1" xmlns="http://www.w3.org/2000/svg" xmlns:xlink="http://www.w3.org/1999/xlink">
    <!-- Generator: Sketch 51.1 (57501) - http://www.bohemiancoding.com/sketch -->
    <title>Flower17</title>
    <desc>Created with Sketch.</desc>
    <defs>
        <polygon id="path-1" points="0.331383473 0.562933739 34.1130358 0.562933739 34.1130358 110.638298 0.331383473 110.638298"></polygon>
        <polygon id="path-3" points="0.331981424 0.740425532 10.4918225 0.740425532 10.4918225 11.6743571 0.331981424 11.6743571"></polygon>
    </defs>
    <g id="Flower17" stroke="none" stroke-width="1" fill="none" fill-rule="evenodd">
        <g id="Group" transform="translate(31.000000, 0.000000)">
            <path d="M20.3310638,24.2406809 C18.3982979,23.7700426 15.2025532,24.0100426 13.8161702,25.4994043 C11.9974468,27.4500426 11.2638298,29.5428085 11.8748936,32.1342979 C13.0859574,37.2611064 20.3234043,40.2117447 23.9489362,35.6304681 C26.692766,32.1649362 24.8987234,25.3530213 20.3310638,24.2406809" id="Fill-1" fill="#687F38"></path>
            <path d="M23.1302128,48.1252766 C27.8782979,46.5227234 30.7480851,40.1065532 32.5625532,35.8282553 C32.9097872,35.0086809 34.1029787,35.7150638 33.7574468,36.5278298 C31.7787234,41.1933617 28.6817021,47.7116596 23.4987234,49.4597447 C22.6510638,49.7457021 22.2893617,48.4095319 23.1302128,48.1252766" id="Fill-3" fill="#687F38"></path>
            <path d="M12.9058723,39.3786383 C13.4914043,42.6697021 13.8777872,46.2237447 15.7177872,49.0994894 C16.7177872,50.6637447 17.9186383,52.0467234 19.3024681,53.2765106 C20.4505532,54.2986383 21.8922553,54.800766 22.8811915,55.9939574 C23.4462979,56.6773617 22.4726809,57.6611915 21.901617,56.9735319 C20.9594894,55.8365106 19.4735319,55.1931064 18.3228936,54.2569362 C16.9977872,53.175234 15.9339574,51.8084255 14.9450213,50.4254468 C12.7126809,47.3028936 12.2275745,43.4297021 11.5714043,39.7462979 C11.4148085,38.8731064 12.7492766,38.5011915 12.9058723,39.3786383" id="Fill-5" fill="#687F38"></path>
            <g id="Group-9" transform="translate(8.510638, 8.621277)">
                <mask id="mask-2" fill="white">
                    <use xlink:href="#path-1"></use>
                </mask>
                <g id="Clip-8"></g>
                <path d="M1.90348936,46.7397447 C3.46519149,52.7805957 6.55795745,58.1644255 9.42519149,63.651234 C10.5085957,65.7261277 11.5571064,67.810383 12.379234,70.0027234 C12.779234,71.0716596 13.1443404,72.4946383 13.7171064,73.717617 C13.6864681,66.2946383 13.7307234,58.8691064 13.898383,51.4452766 C14.1145532,41.8708085 13.5417872,39.9729362 14.084766,30.410383 C14.3511489,25.7005957 14.7009362,20.9950638 15.1630638,16.3005957 C15.1698723,16.2410213 15.1758298,16.1831489 15.1817872,16.1244255 C14.925617,13.4614468 13.5077447,11.2605957 12.1868936,8.96868085 C10.872,6.68357447 10.2958298,4.02655319 9.48391489,1.544 C9.16221277,0.559319149 10.7094468,0.142297872 11.0277447,1.11846809 C11.9213617,3.84953191 12.6081702,6.57548936 14.098383,9.06229787 C14.6532766,9.98740426 15.1732766,10.9184681 15.6081702,11.877617 C15.9188085,8.69634043 16.178383,5.52782979 16.178383,2.29123404 C16.178383,1.25974468 17.7800851,1.25974468 17.7800851,2.29123404 C17.779234,5.33038298 17.5588085,8.29889362 17.2728511,11.2827234 C17.6702979,10.6742128 18.1281702,10.0937872 18.6805106,9.54740426 C20.7324255,7.51080851 23.2566809,5.40187234 23.3826383,2.29123404 C23.4243404,1.26229787 25.0251915,1.25974468 24.9834894,2.29123404 C24.8737021,4.99421277 23.3707234,7.0452766 21.5639149,8.94059574 C20.5605106,9.99421277 19.3971064,10.9201702 18.5579574,12.116766 C17.7613617,13.2554894 17.312,14.6350638 16.8039149,15.916766 C16.7971064,15.9848511 16.792,16.0529362 16.7843404,16.1210213 C16.8013617,16.3125106 16.8132766,16.504 16.819234,16.6980426 C16.8251915,16.8946383 16.7741277,17.0520851 16.6839149,17.1720851 C16.2771064,21.3720851 15.9707234,25.5814468 15.7205106,29.7933617 C15.1409362,39.5584681 15.7290213,41.6648511 15.499234,51.4452766 C15.4260426,54.5950638 15.3809362,57.7457021 15.3494468,60.8937872 C15.8362553,59.8563404 16.3945532,58.850383 16.9766809,57.890383 C17.7332766,56.6418723 18.6260426,55.3448511 19.6924255,54.251234 C19.9588085,54.5925106 20.2405106,54.917617 20.5332766,55.2325106 C19.5826383,56.2291064 18.792,57.4061277 18.0830638,58.5363404 C16.8813617,60.4495319 15.8277447,62.5822979 15.3162553,64.8001702 C15.2975319,68.4920851 15.298383,72.1831489 15.3213617,75.876766 C15.4617872,76.0929362 15.4430638,76.3320851 15.324766,76.5354894 C15.3613617,82.0435745 15.4379574,87.5542128 15.5332766,93.0631489 C17.7775319,89.5057021 21.1681702,86.6980426 23.8566809,83.4614468 C25.9426383,80.9482553 27.9179574,78.3618723 29.2549787,75.3635745 C30.0149787,73.6580426 30.7732766,72.0554894 31.2890213,70.2469787 C31.7426383,68.6648511 32.0941277,67.0554894 32.5358298,65.4699574 C32.8124255,64.4759149 34.3579574,64.8997447 34.0796596,65.8954894 C33.2634894,68.8222979 32.6600851,71.7780426 31.4473191,74.5788936 C30.1494468,77.5737872 28.4124255,80.290383 26.404766,82.8520851 C24.5724255,85.1874043 22.5468936,87.3099574 20.499234,89.451234 C18.5162553,91.5286809 16.6354043,93.7363404 15.5954043,96.4274043 C15.6779574,100.906553 15.7681702,105.384851 15.859234,109.864851 C15.8805106,110.897191 14.2796596,110.895489 14.259234,109.864851 C14.1732766,105.730383 13.7749787,83.1048511 13.7307234,76.5686809 C12.5273191,75.4197447 11.9690213,73.436766 11.405617,71.957617 C10.4209362,69.3729362 9.31795745,66.917617 8.04306383,64.4588936 C5.12817021,58.8393191 1.95710638,53.344 0.360510638,47.1669787 C0.101787234,46.1661277 1.64476596,45.7422979 1.90348936,46.7397447" id="Fill-7" fill="#687F38" mask="url(#mask-2)"></path>
            </g>
            <path d="M21.4064681,38.6538723 C21.1885957,35.6649362 23.3843404,31.6640851 27.4098723,32.1594043 C25.5809362,30.3738723 20.9264681,26.1057872 24.0575319,23.5177021 C27.6243404,20.5738723 31.3137021,26.9636596 32.1724255,29.4751489 C32.3358298,27.3806809 31.1034894,18.0904681 34.5945532,18.6385532 C39.4030638,19.3968511 37.3537021,27.5798298 36.0941277,30.1449362 C38.1749787,28.6240851 41.445617,25.6172766 44.2481702,25.7534468 C49.8685957,26.0274894 45.0898723,33.4394043 42.0243404,34.2589787 C41.3860426,34.4300426 40.3230638,34.5449362 39.3102979,34.4683404 C40.0813617,34.8172766 40.819234,35.2377021 41.4788085,35.7679149 C43.0566809,37.0351489 47.1766809,42.4640851 43.3077447,43.622383 C41.004766,44.3134468 37.9307234,40.3925957 36.7230638,38.8615319 C36.9026383,41.3866383 36.2115745,48.9908936 31.8575319,46.5730213 C28.4405106,44.6742979 30.1375319,39.4385532 31.7051915,37.0130213 C30.5375319,38.8215319 27.3860426,41.1406809 25.3162553,41.6291915 C22.7971064,42.222383 21.5537021,40.6683404 21.4064681,38.6538723" id="Fill-10" fill="#D55B93"></path>
            <path d="M5.0733617,29.6412766 C3.66485106,28.3417021 2.33038298,26.4693617 2.46740426,24.4285106 C2.59761702,22.4906383 4.25293617,21.4846809 6.06059574,22.1365957 C8.02740426,22.8446809 9.53293617,25.6285106 9.99846809,27.527234 C10.2657021,25.2880851 10.597617,20.2148936 13.6197447,19.9502128 C18.9150638,19.4829787 15.7916596,27.1110638 14.4163404,28.9995745 C15.9031489,27.9740426 19.9916596,27.2225532 21.5797447,28.312766 C25.2869787,30.8565957 18.4648511,34.0480851 16.5448511,34.3323404 C18.3925106,36.1706383 19.4018723,38.1655319 17.8571915,40.5570213 C16.3235745,42.9340426 14.7899574,41.9902128 13.1763404,40.4489362 C12.7584681,42.6812766 9.28868085,44.9817021 8.22995745,41.9068085 C7.39165957,39.4753191 8.14995745,36.6591489 8.52612766,34.2174468 C7.21889362,36.6540426 3.03251064,41.3629787 0.587404255,37.2378723 C-1.39812766,33.8846809 2.04442553,30.407234 5.0733617,29.6412766" id="Fill-12" fill="#ED75A7"></path>
            <path d="M24.8722553,76.2835745 L24.8722553,76.1269787 C25.0194894,76.2171915 25.1811915,76.2699574 25.3522553,76.2937872 C25.1888511,76.2852766 25.0288511,76.2835745 24.8722553,76.2835745 M10.7999149,83.5559149 C10.8628936,85.2963404 12.0254468,86.2971915 13.7845957,86.1754894 C16.9428936,85.9593191 19.5488511,81.7788936 20.5054468,79.0827234 C19.6918298,81.3797447 18.7071489,84.7031489 19.9811915,87.0350638 C20.9905532,88.8801702 22.8909787,88.4580426 24.0220426,87.0248511 C25.3820426,85.2997447 25.0245957,82.6699574 24.7173617,80.6537872 C24.8169362,80.9142128 24.9420426,81.1771915 25.0799149,81.4699574 C25.7114043,82.8146383 26.000766,83.891234 27.4654468,84.5618723 C29.3709787,85.4342128 33.2637447,85.0469787 33.4892766,82.476766 C33.8262979,78.6274043 29.0135319,76.5559149 25.6041702,76.3082553 C26.3633191,76.3005957 27.2467234,75.8495319 27.8126809,75.6222979 C30.5199149,74.5346383 35.694383,66.9686809 29.840766,66.784 C26.7760851,66.6895319 24.6867234,70.2248511 23.1948085,72.4035745 C23.8169362,70.4554894 25.9275745,61.5099574 21.4986383,61.8137872 C18.2960851,62.0333617 19.3973617,70.5005957 19.360766,72.397617 C18.3097021,69.4750638 16.7726809,67.2095319 13.4501277,66.876766 C6.83480851,66.2137872 12.5599149,77.7150638 15.974383,75.6784681 C15.5777872,75.8878298 15.1820426,76.1371915 14.7982128,76.4180426 C12.5709787,78.0435745 10.6994894,80.7669787 10.7999149,83.5559149" id="Fill-14" fill="#D55B93"></path>
            <path d="M38.9763404,9.78587234 C38.7091064,6.83182979 34.956766,5.7867234 32.5159149,6.88714894 C27.1346383,9.31523404 31.1780426,19.2088511 37.2571915,14.5262979 C38.7295319,13.3926809 39.1363404,11.554383 38.9763404,9.78587234" id="Fill-16" fill="#D55B93"></path>
            <path d="M13.2782128,9.45676596 C11.8458723,12.4354894 14.5148085,15.5708085 17.4271489,16.0644255 C22.055234,16.8457021 22.2841702,10.6252766 19.6875745,8.13165957 C17.6339574,6.16229787 14.4909787,6.93676596 13.2782128,9.45676596" id="Fill-18" fill="#D55B93"></path>
            <g id="Group-22" transform="translate(19.574468, 0.110638)">
                <mask id="mask-4" fill="white">
                    <use xlink:href="#path-3"></use>
                </mask>
                <g id="Clip-21"></g>
                <path d="M9.36034043,2.5292766 C4.3586383,-3.35668085 -3.99114894,6.81097872 3.02076596,11.0228936 C7.81395745,13.9003404 12.7765106,6.55055319 9.36034043,2.5292766" id="Fill-20" fill="#ED75A7" mask="url(#mask-4)"></path>
            </g>
            <path d="M34.1109787,31.9617021 C36.3824681,31.9617021 36.3824681,35.4842553 34.1109787,35.4842553 C31.8403404,35.4842553 31.8403404,31.9617021 34.1109787,31.9617021" id="Fill-23" fill="#72331F"></path>
            <path d="M10.2055319,29.7210213 C12.8889362,29.7210213 12.8889362,33.8835745 10.2055319,33.8835745 C7.5212766,33.8835745 7.5212766,29.7210213 10.2055319,29.7210213" id="Fill-25" fill="#72331F"></path>
            <path d="M20.6643404,74.0644255 C23.1409362,74.0644255 23.1409362,77.9078298 20.6643404,77.9078298 C18.1868936,77.9078298 18.1868936,74.0644255 20.6643404,74.0644255" id="Fill-27" fill="#72331F"></path>
            <path d="M10.8762553,49.5664681 C8.94348936,49.0958298 5.74774468,49.3358298 4.3613617,50.8251915 C2.5426383,52.7758298 1.80902128,54.8702979 2.42008511,57.4600851 C3.63114894,62.5868936 10.8685957,65.5375319 14.4941277,60.9579574 C17.2379574,57.4907234 15.4439149,50.6805106 10.8762553,49.5664681" id="Fill-29" fill="#687F38"></path>
            <path d="M31.1505532,65.6485957 C32.7956596,65.5575319 34.495234,64.8707234 35.6382128,63.8205106 C38.8262979,60.8945532 38.1897021,53.864766 32.8501277,53.864766 C29.095234,53.8664681 25.4773617,58.8962553 26.3582128,62.4588085 C26.9556596,64.8758298 29.0058723,65.7685957 31.1505532,65.6485957" id="Fill-31" fill="#687F38"></path>
            <path d="M47.812766,67.8725957 C45.4834043,63.9194043 38.1421277,63.6989787 36.1046809,68.0674894 C33.0519149,74.6164255 38.1574468,85.8649362 45.7889362,78.608766 C48.3787234,76.1491915 49.7225532,71.1091915 47.812766,67.8725957" id="Fill-33" fill="#687F38"></path>
        </g>
    </g>
</svg>