<?xml version="1.0" encoding="UTF-8"?>
<svg width="120px" height="120px" viewBox="0 0 120 120" version="1.1" xmlns="http://www.w3.org/2000/svg" xmlns:xlink="http://www.w3.org/1999/xlink">
    <!-- Generator: Sketch 51.1 (57501) - http://www.bohemiancoding.com/sketch -->
    <title>Cristo Redentor2</title>
    <desc>Created with Sketch.</desc>
    <defs>
        <polygon id="path-1" points="0 0.191489362 99.1652542 0.191489362 99.1652542 98.8548085 0 98.8548085"></polygon>
        <polygon id="path-3" points="0.0219491525 0.531319149 28.9194068 0.531319149 28.9194068 19.5744681 0.0219491525 19.5744681"></polygon>
        <polygon id="path-5" points="0.0222881356 0.180595745 28.9197458 0.180595745 28.9197458 19.5744681 0.0222881356 19.5744681"></polygon>
    </defs>
    <g id="Cristo-Redentor2" stroke="none" stroke-width="1" fill="none" fill-rule="evenodd">
        <g id="Page-1" transform="translate(10.000000, 0.000000)">
            <polygon id="Fill-1" fill="#AD8B5C" points="62.6133051 101.08783 40.8226271 101.20783 40.4573729 63.4137872 62.2480508 63.2946383"></polygon>
            <g id="Group-87" transform="translate(0.000000, 0.659574)">
                <g id="Group-4">
                    <mask id="mask-2" fill="white">
                        <use xlink:href="#path-1"></use>
                    </mask>
                    <g id="Clip-3"></g>
                    <path d="M94.6375424,17.2990638 C94.6375424,17.2990638 94.705339,16.2284255 92.8095763,16.380766 C90.9129661,16.5331064 87.7595763,17.3994894 85.7951695,17.7645957 C83.8307627,18.1297021 73.9951695,18.4658723 70.6909322,18.3433191 C70.6909322,18.3433191 69.9078814,17.2845957 68.5722881,17.2922553 C67.2375424,17.2999149 66.6705932,16.808 66.4578814,16.5960851 C66.2451695,16.3850213 62.7858475,14.7756596 61.8722881,14.780766 C60.9587288,14.7867234 59.9688983,14.154383 59.055339,14.1603404 C58.1417797,14.1645957 56.385,14.1739574 56.385,14.1739574 C56.385,14.1739574 56.1197458,8.58417021 55.7409322,5.68374468 C55.3612712,2.78331915 54.1409322,0.171404255 50.4172034,0.190978723 C46.6926271,0.212255319 45.6638136,2.90757447 45.3968644,4.32459574 C45.1299153,5.74161702 44.7900847,14.3084255 44.7900847,14.3084255 C44.7900847,14.3084255 40.0095763,14.0522553 38.3960169,14.4139574 C36.7833051,14.7773617 35.3833051,15.3509787 34.5400847,15.3560851 C33.6968644,15.3611915 33.3519492,15.9994894 32.5782203,15.9331064 C31.8044915,15.8658723 30.1163559,15.7339574 29.6960169,15.8777872 C29.275678,16.021617 28.5790678,16.6624681 28.2282203,16.7356596 C27.8782203,16.808 27.2519492,17.5194894 26.9011017,17.5220426 C26.5494068,17.5237447 11.5833051,17.2862979 11.5833051,17.2862979 C11.5833051,17.2862979 9.73923729,16.1254468 8.43584746,16.2394894 C7.13330508,16.3526809 4.23754237,15.8709787 3.99432203,16.1918298 C3.75025424,16.5135319 3.89771186,17.1518298 3.89771186,17.1518298 C3.89771186,17.1518298 1.28754237,17.0241702 0.62059322,17.2760851 C-0.0472033898,17.5288511 -0.0751694915,18.274383 0.0731355932,19.0190638 C0.221440678,19.7637447 2.95194915,21.3824681 3.62144068,21.4139574 C4.29177966,21.4454468 13.6697458,21.5722553 13.6697458,21.5722553 C13.6697458,21.5722553 13.6883898,23.5237447 14.1527966,24.1960851 C14.6180508,24.8692766 19.0366949,29.8148085 19.4960169,29.9186383 C19.955339,30.0233191 29.8951695,30.0037447 29.8951695,30.0037447 C29.8951695,30.0037447 31.825678,31.5850213 33.125678,32.0505532 C34.4265254,32.515234 37.0222881,32.9177872 37.0222881,32.9177872 C37.0222881,32.9177872 36.6044915,49.6658723 36.7451695,49.9424681 C36.8858475,50.2199149 37.8765254,50.0471489 37.8765254,50.0471489 C37.8765254,50.0471489 37.8205932,52.8250213 37.9595763,52.9628936 C38.0994068,53.101617 38.8163559,53.180766 38.8163559,53.180766 C38.8163559,53.180766 38.8375424,61.0684255 39.0061864,61.3994894 C39.1748305,61.7322553 39.5926271,62.1748085 39.5926271,62.1748085 L39.6333051,98.8548085 L41.6714407,98.8428936 L41.3578814,66.4258723 L41.9900847,66.4224681 L42.5807627,98.4139574 L43.4222881,98.2675745 L42.9782203,66.8411915 L43.614661,67.2624681 L44.1977119,98.4760851 L50.5214407,98.3705532 L50.2578814,71.1186383 L52.0155085,71.1101277 L52.4883898,98.288 L53.4722881,98.2828936 L53.2188983,72.0939574 L54.4138136,72.0871489 L54.6663559,98.2054468 L60.5002542,98.315234 L61.6273729,98.5926809 L62.6833051,98.7986383 L62.1705932,74.8054468 L62.8748305,74.9424681 L63.525678,76.8514043 L64.2968644,76.634383 L64.1909322,65.7339574 C64.1909322,65.7339574 64.7544915,65.8011915 64.7494068,65.3058723 C64.744322,64.8105532 63.8688983,46.9067234 63.6926271,43.2267234 C63.5172034,39.5475745 63.2460169,33.3194894 63.2460169,33.3194894 C63.2460169,33.3194894 64.5807627,33.3118298 65.2070339,32.6709787 C65.8341525,32.0309787 68.2858475,31.2386383 68.2858475,31.2386383 L81.7731356,30.6692766 C81.7731356,30.6692766 83.0316102,29.954383 84.0722881,28.6037447 C85.1138136,27.2531064 87.5375424,23.5586383 87.5960169,22.355234 C87.5960169,22.355234 94.2722881,22.3186383 95.8163559,22.0982128 C97.3604237,21.8769362 99.1739831,20.5220426 99.1655085,19.6020426 C99.1570339,18.6820426 98.5138136,16.9662979 94.6375424,17.2990638" id="Fill-2" fill="#755429" mask="url(#mask-2)"></path>
                </g>
                <path d="M10.2066102,20.4199149 C9.7159322,20.515234 7.62864407,20.6505532 7.07610169,20.5918298 C6.52271186,20.5331064 5.50915254,20.5390638 5.25830508,19.9833191 C5.00745763,19.4284255 4.66254237,18.7492766 4.75322034,18.5628936 C4.84305085,18.3773617 5.02610169,18.221617 5.21,18.220766 C5.39474576,18.2199149 5.64135593,18.3424681 5.82864407,18.6190638 C6.01508475,18.8965106 6.69305085,19.0786383 6.84644068,19.0777872 C6.99983051,19.0769362 7.92016949,18.9790638 7.92016949,18.9790638 C8.47271186,18.9765106 10.3455932,18.8735319 10.4405085,19.181617 C10.5354237,19.4905532 10.6972881,20.3245957 10.2066102,20.4199149" id="Fill-5" fill="#AD8B5C"></path>
                <path d="M56.4725424,33.2873191 C52.3420339,33.0754043 50.0462712,29.8022128 50.0462712,29.8022128 C50.4344068,28.6260426 52.0055932,29.1545532 52.0055932,29.1545532 C53.4877966,31.0243404 56.429322,32.2149787 56.429322,32.2149787 L56.4725424,33.2873191 Z" id="Fill-7" fill="#AD8B5C"></path>
                <path d="M48.2019492,24.9162553 C48.5688983,24.9809362 50.655339,23.7962553 50.8866949,23.6600851 C51.1180508,23.524766 55.7460169,20.0788085 55.7460169,20.0788085 L55.635,22.3937021 C55.635,22.3937021 49.9383898,27.2039149 49.7900847,27.3554043 C49.6417797,27.5068936 46.3638136,27.6090213 45.1307627,27.5154043 C43.8977119,27.4209362 43.6587288,26.7851915 43.6587288,26.7851915 C43.6587288,26.7851915 46.905339,25.0907234 47.0036441,24.9902979 C47.1027966,24.8890213 47.835,24.8515745 48.2019492,24.9162553" id="Fill-9" fill="#AD8B5C"></path>
                <path d="M44.1516949,21.4446809 C44.1516949,21.4446809 46.129661,21.0710638 48.4711864,21.0582979 C50.8118644,21.0446809 52.4364407,21.3987234 52.4364407,21.3987234 C52.4364407,21.3987234 49.7601695,23.953617 49.5364407,24.1817021 C49.3135593,24.4097872 48.1440678,24.5519149 47.3779661,24.42 C46.6110169,24.2889362 44.1516949,21.4446809 44.1516949,21.4446809" id="Fill-11" fill="#AD8B5C"></path>
                <path d="M53.6347458,19.9404255 C53.7144068,19.7114894 54.6194915,17.0961702 54.7423729,16.7148936 C54.8644068,16.3344681 55.1576271,15.4961702 55.1576271,15.4961702 C55.1576271,15.4961702 55.7381356,15.6195745 55.7677966,16.1268085 C55.7983051,16.6331915 55.6457627,19.08 55.6457627,19.08 C55.6457627,19.08 53.7279661,21.1302128 53.5254237,21.0306383 C53.3228814,20.9302128 53.5559322,20.1693617 53.6347458,19.9404255" id="Fill-13" fill="#AD8B5C"></path>
                <path d="M55.8650847,22.9291064 L55.8871186,25.2431489 C55.8871186,25.2431489 53.4210169,27.536766 53.0574576,27.7733617 C52.6930508,28.0108085 50.4244068,27.5299574 50.4244068,27.5299574 L55.8650847,22.9291064 Z" id="Fill-15" fill="#AD8B5C"></path>
                <path d="M47.4236441,30.5205106 C48.2439831,29.2422128 49.9914407,30.9426383 52.1024576,32.3732766 C54.214322,33.8030638 55.8804237,34.0626383 56.1151695,34.1613617 C56.3490678,34.2609362 56.0566949,34.9673191 56.0566949,34.9673191 C52.6939831,34.9851915 47.4236441,30.5205106 47.4236441,30.5205106" id="Fill-17" fill="#AD8B5C"></path>
                <path d="M56.1708475,62.1619574 C56.1708475,62.1619574 51.3767797,55.2581277 50.5479661,51.0300426 C50.5479661,51.0300426 52.4428814,54.0879149 56.0844068,55.8930213 L56.1708475,62.1619574 Z" id="Fill-19" fill="#AD8B5C"></path>
                <path d="M45.2031356,29.928766 C45.6438136,30.3662128 50.6455085,34.5134468 55.5073729,35.4198298 C55.5073729,35.4198298 55.7268644,46.8964255 55.7311017,47.3364255 C55.7361864,47.7764255 56.0217797,54.7491915 56.0217797,54.7491915 C56.0217797,54.7491915 52.1794068,52.1891915 48.8929661,45.0130213 C45.6073729,37.836 44.1031356,34.5491915 44.2073729,34.1083404 C44.3124576,33.6691915 46.0760169,35.5815319 48.3251695,36.9977021 C50.574322,38.4130213 51.1192373,38.409617 51.1192373,38.409617 C51.1192373,38.409617 48.5361864,36.2819574 46.9370339,34.4785532 C45.3387288,32.6751489 43.9624576,31.2547234 43.7929661,30.7057872 C43.624322,30.1577021 43.4404237,28.9713191 43.6777119,28.729617 C43.9141525,28.4879149 44.7624576,29.4921702 45.2031356,29.928766" id="Fill-21" fill="#AD8B5C"></path>
                <path d="M44.1140678,38.8657872 C44.4640678,38.7228085 44.6818644,39.4385532 44.6818644,39.4385532 C44.6818644,39.4385532 46.9233898,45.9330213 49.4284746,51.0342979 C51.9327119,56.1355745 55.7344068,62.636 55.7920339,62.8036596 C55.849661,62.9721702 56.3683051,64.7117447 56.3725424,65.1049362 C56.3759322,65.4989787 56.8505085,68.4198298 56.8505085,68.4198298 C56.8505085,68.4198298 52.8216949,63.663234 49.9462712,56.6521702 C47.0708475,49.6419574 44.1225424,41.2045106 43.910678,40.2717447 C43.7081356,39.3806809 43.710678,39.0308936 44.1140678,38.8657872" id="Fill-23" fill="#AD8B5C"></path>
                <path d="M56.5900847,62.6548085 C56.5883898,62.4905532 56.4468644,47.7892766 56.4468644,47.7892766 C56.4468644,47.7892766 57.0460169,47.9331064 57.0502542,48.4275745 C57.055339,48.9220426 57.2977119,62.7611915 57.2977119,62.7611915 C57.2977119,62.7611915 56.5909322,62.8199149 56.5900847,62.6548085" id="Fill-25" fill="#AD8B5C"></path>
                <path d="M56.2842373,31.0083404 C54.0520339,30.8525957 53.000339,28.7462128 53.000339,28.7462128 L56.3291525,28.7274894 L56.2842373,31.0083404 Z" id="Fill-27" fill="#AD8B5C"></path>
                <polygon id="Fill-29" fill="#AD8B5C" points="56.2354237 25.9451915 56.2557627 28.0575319 53.7142373 28.138383"></polygon>
                <path d="M54.5115254,10.7399149 C54.5386441,10.0131064 55.1216949,6.34587234 55.1216949,6.34587234 C55.1216949,6.34587234 55.7759322,13.6718298 55.7810169,14.1909787 C55.7852542,14.7092766 55.3386441,14.5875745 55.0649153,14.7024681 C54.7911864,14.8182128 53.7284746,14.9620426 53.7250847,14.6173617 C53.7216949,14.2709787 53.529322,12.1288511 53.5615254,11.8522553 C53.5928814,11.5748085 54.4844068,11.4667234 54.5115254,10.7399149" id="Fill-31" fill="#AD8B5C"></path>
                <path d="M50.6520339,2.08297872 C53.3638983,2.06765957 53.5571186,4.31446809 53.5571186,4.31446809 C53.5571186,4.31446809 51.7401695,4.53148936 51.5689831,4.60212766 C51.3977966,4.67191489 51.2638983,5.01829787 51.2647458,5.12212766 C51.2664407,5.22595745 51.4757627,5.5706383 51.4774576,5.74340426 C51.4791525,5.91617021 51.8571186,5.98340426 52.1316949,6.01659574 C52.4071186,6.04893617 53.8850847,6.3187234 53.8850847,6.3187234 C53.8850847,6.3187234 54.1172881,9.04808511 54.0172881,9.2906383 C53.9164407,9.53319149 52.5418644,11.1825532 52.389322,11.3391489 C52.2367797,11.4965957 51.709661,12.0344681 51.3672881,12.1051064 C51.0240678,12.1765957 50.3291525,11.247234 50.3274576,11.073617 C50.3257627,10.9008511 50.7342373,10.5876596 50.8698305,10.4489362 C51.0062712,10.3093617 51.8969492,10.0974468 51.8579661,9.64808511 C51.8189831,9.1987234 51.4681356,8.37148936 51.4655932,8.09404255 C51.4630508,7.81744681 51.5961017,7.40212766 51.3215254,7.40382979 C51.0469492,7.40553191 50.2079661,7.63446809 50.0867797,7.51446809 C49.9655932,7.39361702 49.7401695,7.13574468 49.7359322,6.75531915 C49.7325424,6.37489362 49.920678,4.54170213 49.6452542,4.43957447 C49.3698305,4.33659574 48.4935593,4.2906383 48.2723729,4.51617021 C48.0520339,4.74255319 48.1062712,5.03617021 47.9342373,5.03702128 C47.7630508,5.03787234 47.3155932,4.93659574 47.3155932,4.93659574 C47.3155932,4.93659574 47.9410169,2.09829787 50.6520339,2.08297872" id="Fill-33" fill="#AD8B5C"></path>
                <path d="M48.2197458,9.7027234 C48.3417797,9.82357447 48.635,10.0116596 48.7502542,10.2525106 C48.8655085,10.4950638 49.464661,10.5946383 49.7392373,10.6627234 C50.014661,10.7299574 49.7468644,11.3878298 49.7485593,11.5614468 C49.7502542,11.7342128 48.925678,11.6354894 48.2358475,11.3274043 C47.5460169,11.0201702 47.6417797,9.46442553 47.6417797,9.46442553 C47.6460169,9.2227234 48.0985593,9.58187234 48.2197458,9.7027234" id="Fill-35" fill="#AD8B5C"></path>
                <path d="M47.6735593,6.42144681 C47.6735593,6.42144681 47.9108475,6.14314894 48.1498305,6.03846809 C48.389661,5.93378723 48.6667797,6.17378723 49.0786441,6.24017021 C49.4922034,6.30740426 49.0854237,6.89804255 49.0862712,7.03591489 C49.0879661,7.17378723 48.1616949,7.21378723 47.8167797,7.04187234 C47.4718644,6.87165957 47.6735593,6.42144681 47.6735593,6.42144681" id="Fill-37" fill="#AD8B5C"></path>
                <path d="M46.8980508,7.87753191 C46.8980508,7.87753191 46.8717797,12.3030638 46.8090678,12.8911489 C46.7463559,13.479234 46.3751695,14.1379574 46.2039831,14.2077447 C46.0327966,14.278383 45.655678,14.3149787 45.655678,14.3149787 C45.655678,14.3149787 45.5175424,10.6511489 45.5116102,10.0979574 C45.5065254,9.54476596 46.3844915,7.98391489 46.8980508,7.87753191" id="Fill-39" fill="#AD8B5C"></path>
                <path d="M47.2195763,14.8722553 C47.3365254,14.0731064 47.3339831,11.6662979 47.4780508,11.5190638 C47.4780508,11.5190638 48.0687288,12.7565106 48.5034746,13.188 C48.9373729,13.6177872 49.9017797,14.7786383 49.9017797,14.7786383 C49.9017797,14.7786383 51.0755085,14.0518298 51.3204237,13.6739574 C51.5661864,13.295234 52.6755085,12.0348085 52.6755085,12.0348085 C52.6755085,12.0348085 52.4526271,14.7633191 52.7034746,14.841617 C52.9534746,14.920766 53.9975424,15.5420426 53.9975424,15.5420426 C53.9975424,15.5420426 54.2958475,16.2935319 54.1738136,16.5454468 C54.0517797,16.7973617 53.0433051,19.9411915 52.8788983,20.1931064 C52.715339,20.4458723 52.1763559,20.5318298 52.0102542,20.5326809 C51.8441525,20.5335319 47.9365254,20.3045957 47.9365254,20.3045957 L45.4365254,15.2126809 C45.4365254,15.2126809 47.1026271,15.6714043 47.2195763,14.8722553" id="Fill-41" fill="#AD8B5C"></path>
                <path d="M44.9420339,15.08 C45.1674576,15.3038298 47.4649153,20.3897872 47.4674576,20.6323404 C47.4691525,20.8748936 46.37,20.7421277 46.0954237,20.7438298 C45.8208475,20.7446809 43.0530508,14.986383 43.0530508,14.986383 C43.3759322,14.6561702 44.7166102,14.8561702 44.9420339,15.08" id="Fill-43" fill="#AD8B5C"></path>
                <path d="M42.4299153,15.1631489 C42.9994068,15.4593191 45.6663559,20.8210213 45.6663559,20.8210213 L43.1866949,20.9171915 C43.1866949,20.9171915 42.5883898,20.376766 42.2087288,20.1078298 C41.8282203,19.8380426 37.5502542,15.190383 37.5502542,15.190383 C38.5951695,14.4780426 41.8612712,14.8678298 42.4299153,15.1631489" id="Fill-45" fill="#AD8B5C"></path>
                <path d="M36.4041525,15.5229787 C37.5160169,15.4889362 43.9236441,22.8080851 43.9236441,22.8080851 C38.7439831,21.2787234 33.7388983,16.1034043 33.7388983,16.1034043 C34.0524576,15.7502128 36.0524576,15.5340426 36.4041525,15.5229787" id="Fill-47" fill="#AD8B5C"></path>
                <path d="M30.8729661,20.2845106 C29.6678814,19.3211064 28.3602542,18.1236596 28.3602542,18.1236596 L29.3873729,21.2291915 C29.3873729,21.2291915 27.2966949,19.7525957 26.9780508,19.436 C26.6594068,19.1202553 26.0441525,19.0062128 26.0441525,19.0062128 L29.4687288,22.8019574 C29.4687288,22.8019574 28.2729661,22.808766 26.2687288,21.648766 C24.2644915,20.4879149 21.9195763,18.4938723 21.9195763,18.4938723 C21.9195763,18.4938723 24.3882203,22.449617 24.745,22.8870638 C24.7780508,22.9134468 24.7924576,22.9279149 24.785678,22.9279149 C24.7805932,22.9279149 24.765339,22.9125957 24.745,22.8870638 C24.2678814,22.4989787 19.9026271,19.4751489 19.9026271,19.4751489 L24.5365254,24.6351489 C24.5365254,24.6351489 20.4797458,22.4325957 20.3619492,22.3168511 C20.2441525,22.2002553 18.095,21.4921702 18.095,21.4921702 L25.135678,28.1789787 C25.135678,28.1789787 20.4899153,28.6394043 19.9890678,28.4419574 C19.4890678,28.2436596 13.2805932,18.2402553 13.2805932,18.2402553 C13.2805932,18.2402553 21.2822881,17.7942979 22.345,17.7883404 C23.4077119,17.783234 27.1611017,17.7619574 27.4585593,17.6266383 C27.7568644,17.4913191 28.7772034,16.5483404 30.135678,16.1730213 C31.4941525,15.7985532 32.8924576,16.1908936 32.9933051,16.2913191 C33.0941525,16.3917447 33.865339,17.1228085 34.1678814,17.5228085 C34.4712712,17.9228085 38.9822881,20.6751489 39.2839831,20.9747234 C39.585678,21.2734468 42.724661,22.9628085 43.0238136,23.0291915 C43.3238136,23.0938723 46.4975424,24.9500426 46.4975424,24.9500426 C46.4975424,24.9500426 42.9882203,26.1406809 42.6238136,26.3100426 C42.2611017,26.4785532 40.7975424,26.3866383 38.6627966,25.4947234 C36.5288983,24.6036596 32.0780508,21.248766 30.8729661,20.2845106" id="Fill-49" fill="#AD8B5C"></path>
                <path d="M39.3317797,47.8368511 C39.3317797,47.8368511 37.9402542,48.0002553 37.9377119,47.7406809 C37.9351695,47.4802553 38.625,28.0385532 38.7241525,27.6742979 C38.8241525,27.3100426 40.2699153,27.4062128 40.2699153,27.4062128 L39.3317797,47.8368511 Z" id="Fill-51" fill="#AD8B5C"></path>
                <path d="M40.3277966,49.4425532 L41.1574576,28.5446809 L41.1574576,28.4408511 C41.3574576,27.867234 42.600678,28.2765957 42.600678,28.2765957 L43.289661,51.6093617 C41.4261017,50.9957447 40.3277966,49.4425532 40.3277966,49.4425532" id="Fill-53" fill="#AD8B5C"></path>
                <polygon id="Fill-55" fill="#AD8B5C" points="45.3839831 96.7131915 44.5772034 96.7174468 44.2966949 67.6595745 45.1034746 67.6553191"></polygon>
                <polygon id="Fill-57" fill="#AD8B5C" points="47.2221186 96.702383 46.1127966 96.7091915 45.845 69.0206809 46.9551695 69.0138723"></polygon>
                <polygon id="Fill-59" fill="#AD8B5C" points="49.7363559 96.6890213 48.1566949 96.6975319 47.8999153 70.1137021 49.4795763 70.1060426"></polygon>
                <path d="M42.3475424,64.0901277 L42.345,59.7786383 C42.345,59.7786383 44.4187288,63.0109787 50.1026271,65.9862979 C50.1026271,65.9862979 44.935678,59.6450213 42.0924576,53.9258723 C42.0924576,53.9258723 43.1500847,53.6433191 43.6619492,53.7982128 C44.1738136,53.9539574 44.2466949,53.320766 44.1661864,53.0833191 C44.0848305,52.8467234 43.9958475,47.7445957 43.9958475,47.7445957 C43.9958475,47.7445957 47.5500847,63.1769362 57.0907627,69.8637447 L57.024661,71.1292766 C57.024661,71.1292766 47.7611017,67.5420426 42.3475424,64.0901277" id="Fill-61" fill="#AD8B5C"></path>
                <polygon id="Fill-63" fill="#AD8B5C" points="56.4530508 97.1253617 55.5183051 97.1313191 55.2750847 71.916 56.2098305 71.9108936"></polygon>
                <polygon id="Fill-65" fill="#AD8B5C" points="58.3114407 97.1154043 57.0639831 97.1222128 56.8309322 72.9605106 58.0783898 72.9537021"></polygon>
                <polygon id="Fill-67" fill="#AD8B5C" points="60.2120339 97.1054468 58.9645763 97.1122553 58.7366102 73.5811915 59.9849153 73.575234"></polygon>
                <polygon id="Fill-69" fill="#AD8B5C" points="61.9177119 97.0954894 60.6702542 97.1031489 60.4524576 74.5729362 61.7007627 74.5652766"></polygon>
                <path d="M62.3144915,73.9488511 C62.3144915,73.9488511 60.0280508,73.0518298 58.7204237,71.8722553 C58.7204237,71.8722553 61.2975424,70.3548085 62.4272034,69.3990638 L62.3144915,73.9488511 Z" id="Fill-71" fill="#AD8B5C"></path>
                <path d="M61.4021186,68.9305532 C60.3877119,69.608 58.5529661,70.8045957 58.4334746,70.5688511 C58.3131356,70.3314043 58.2733051,66.2173617 58.2733051,66.2173617 C58.3877119,65.900766 59.9122881,65.140766 60.304661,65.0599149 C60.6961864,64.9782128 62.7597458,67.1824681 62.8004237,67.340766 C62.8411017,67.4982128 62.4165254,68.2522553 61.4021186,68.9305532" id="Fill-73" fill="#AD8B5C"></path>
                <path d="M66.8481356,27.9199149 C64.1820339,30.2169362 62.6642373,31.3411915 62.6667797,31.5531064 C62.6684746,31.7658723 62.6761017,32.5088511 62.6820339,33.1982128 C62.6888136,33.8892766 63.7727119,64.2501277 63.7727119,64.2501277 L62.2972881,64.2577872 L60.3845763,18.9828936 C60.3845763,18.9828936 59.9608475,18.7735319 59.9642373,19.1982128 C59.9684746,19.6228936 61.4989831,63.5190638 61.4989831,63.5190638 L58.1277966,63.7497021 L56.2972881,15.1299492 C56.2972881,15.1299492 60.2413559,15.1088511 60.6676271,15.5309787 C61.0930508,15.9531064 62.680339,16.5284255 62.8930508,16.7394894 C63.1049153,16.9505532 65.1125424,17.4177872 65.3261017,17.6288511 C65.5388136,17.8399149 65.2540678,18.3990638 64.8625424,18.7990638 C64.4710169,19.1999149 62.0447458,21.681617 62.0447458,21.681617 C62.0447458,21.681617 61.9489831,22.6909787 62.1566102,22.3709787 C62.3642373,22.0509787 65.5472881,18.7956596 65.5472881,18.7956596 L66.5964407,18.1982128 C66.5964407,18.1982128 67.8176271,19.1020426 68.1337288,19.1003404 C68.4498305,19.0986383 69.2413559,19.1999149 69.2413559,19.1999149 C69.2413559,19.1999149 64.6735593,23.7641702 63.969322,24.4850213 C63.2642373,25.2058723 62.6091525,25.5548085 62.6108475,25.7667234 C62.6125424,25.9794894 62.3888136,27.3871489 62.5752542,27.5718298 C62.7616949,27.7565106 66.7523729,23.4611915 67.3761017,22.5020426 C67.9989831,21.5428936 69.5583051,19.2509787 69.5583051,19.2509787 C69.5583051,19.2509787 74.7218644,19.1165106 74.880339,19.1156596 C74.989661,19.1156596 76.5049153,19.080766 77.5218644,19.0603404 C77.2116949,19.255234 76.8862712,19.4765106 76.8862712,19.4765106 C69.9633898,25.2475745 69.9583051,25.2399149 66.8481356,27.9199149" id="Fill-75" fill="#AD8B5C"></path>
                <path d="M82.3316102,26.6134468 L77.1138136,26.642383 L81.444322,22.0534468 C81.444322,22.0534468 78.564661,24.0857872 76.1595763,26.1172766 C73.7544915,28.1479149 72.7087288,28.9181277 72.3917797,28.9198298 C72.075678,28.9215319 69.1765254,28.8628085 69.1765254,28.8628085 L79.2155085,20.5257872 L71.8358475,25.8594043 C71.8358475,25.8594043 76.814661,20.1700426 77.8316102,19.0534468 C78.1214407,19.0474894 78.3392373,19.0440851 78.4112712,19.043234 C78.6494068,19.042383 79.9629661,19.2474894 80.6265254,19.2440851 C80.9951695,19.2415319 85.5265254,19.0577021 85.5265254,19.0577021 C85.5265254,19.0577021 84.7833051,23.9989787 82.3316102,26.6134468" id="Fill-77" fill="#AD8B5C"></path>
                <path d="M92.7121186,20.1963404 C92.5239831,20.6159149 91.8570339,21.0380426 91.2824576,21.137617 C90.7078814,21.2380426 89.5604237,21.5333617 88.664661,21.4422979 C87.7688983,21.350383 85.9680508,20.297617 87.3036441,19.5180426 C87.3036441,19.5180426 90.1138136,19.2771915 91.2663559,19.4320851 C91.2663559,19.4320851 91.4188983,18.6252766 91.7044915,18.4635745 C91.9909322,18.3001702 92.5061864,18.7163404 92.6044915,18.9733617 C92.7027966,19.230383 92.8994068,19.776766 92.7121186,20.1963404" id="Fill-79" fill="#AD8B5C"></path>
                <g id="Group-83" transform="translate(37.288136, 99.574468)">
                    <mask id="mask-4" fill="white">
                        <use xlink:href="#path-3"></use>
                    </mask>
                    <g id="Clip-82"></g>
                    <polygon id="Fill-81" fill="#755429" mask="url(#mask-4)" points="26.9600847 0.531319149 1.61686441 0.670893617 0.0219491525 19.5747234 28.9194068 19.4155745"></polygon>
                </g>
                <g id="Group-86" transform="translate(37.288136, 99.574468)">
                    <mask id="mask-6" fill="white">
                        <use xlink:href="#path-5"></use>
                    </mask>
                    <g id="Clip-85"></g>
                    <polygon id="Fill-84" fill="#AD8B5C" mask="url(#mask-6)" points="24.155339 0.180595745 4.41466102 0.288680851 0.0222881356 19.5746383 28.9197458 19.4163404"></polygon>
                </g>
            </g>
        </g>
    </g>
</svg>