<?xml version="1.0" encoding="UTF-8"?>
<svg width="120px" height="120px" viewBox="0 0 120 120" version="1.1" xmlns="http://www.w3.org/2000/svg" xmlns:xlink="http://www.w3.org/1999/xlink">
    <!-- Generator: Sketch 48.2 (47327) - http://www.bohemiancoding.com/sketch -->
    <title>Note2</title>
    <desc>Created with Sketch.</desc>
    <defs>
        <polygon id="path-1" points="0 -0.000352941176 75.1127442 -0.000352941176 75.1127442 118.645941 0 118.645941"></polygon>
    </defs>
    <g id="ALL" stroke="none" stroke-width="1" fill="none" fill-rule="evenodd">
        <g id="Note2">
            <g id="Page-1" transform="translate(22.000000, 0.000000)">
                <mask id="mask-2" fill="white">
                    <use xlink:href="#path-1"></use>
                </mask>
                <g id="Clip-2"></g>
                <path d="M63.2682326,29.022 C45.8801395,17.4137647 43.4870233,0.308470588 43.4870233,0.195529412 L43.4870233,-0.000352941176 L38.2589302,-0.000352941176 L38.6795814,88.3761176 C34.633907,84.5308235 28.6953023,82.0972941 22.0709302,82.0972941 C9.88088372,82.0972941 -0.00088372093,90.3243529 -0.00088372093,100.471412 C-0.00088372093,110.616706 9.88088372,118.646118 22.0709302,118.646118 C34.1549302,118.646118 43.966,111.163765 44.1356744,100.342588 L44.4714884,100.342588 L44.4714884,100.499647 L44.4714884,100.471412 L44.4714884,100.434353 L44.0066512,17.9872941 C46.8257209,22.4502353 51.7533488,27.7337647 60.8326977,34.5137647 C78.805814,47.9396471 65.8151163,61.8967059 65.8151163,61.8967059 C77.222186,56.3872941 80.050093,40.2261176 63.2682326,29.022" id="Fill-1" fill="#F7B018" mask="url(#mask-2)"></path>
            </g>
        </g>
    </g>
</svg>