<?xml version="1.0" encoding="UTF-8"?>
<svg width="480px" height="360px" viewBox="0 0 480 360" version="1.1" xmlns="http://www.w3.org/2000/svg" xmlns:xlink="http://www.w3.org/1999/xlink">
    <!-- Generator: Sketch 51.1 (57501) - http://www.bohemiancoding.com/sketch -->
    <title>Planet1</title>
    <desc>Created with Sketch.</desc>
    <defs></defs>
    <g id="Planet1" stroke="none" stroke-width="1" fill="none" fill-rule="evenodd">
        <g id="Group-2" transform="translate(0.000000, -2.000000)">
            <g id="Indonesian-Astronaut-Exlpore-To-Mars-Vector">
                <rect id="Rectangle-path" fill="#4D0D86" x="0" y="0" width="479.725871" height="316.646488"></rect>
                <g id="Group" transform="translate(9.594517, 58.691034)" fill="#FFFFFF">
                    <path d="M275.527127,43.3946316 C276.185037,43.3946316 276.705882,43.9428898 276.705882,44.5733866 C276.705882,45.2312964 276.185037,45.7521416 275.527127,45.7521416 C274.869218,45.7521416 274.348372,45.2312964 274.348372,44.5733866 C274.348372,43.9428898 274.89663,43.3946316 275.527127,43.3946316 Z" id="Shape"></path>
                    <path d="M101.318104,4.57795545 C101.976014,4.57795545 102.496859,5.12621359 102.496859,5.75671045 C102.496859,6.38720731 101.948601,6.93546545 101.318104,6.93546545 C100.687607,6.93546545 100.139349,6.41462022 100.139349,5.75671045 C100.139349,5.09880069 100.660194,4.57795545 101.318104,4.57795545 Z" id="Shape"></path>
                    <path d="M14.9948601,50.6042262 C15.6527698,50.6042262 16.1736151,51.1250714 16.1736151,51.7829812 C16.1736151,52.4408909 15.6527698,52.9617362 14.9948601,52.9617362 C14.3369503,52.9617362 13.8161051,52.4408909 13.8161051,51.7829812 C13.8161051,51.1250714 14.3369503,50.6042262 14.9948601,50.6042262 Z" id="Shape"></path>
                    <path d="M156.143918,82.4031982 C156.801828,82.4031982 157.322673,82.9240434 157.322673,83.5819532 C157.322673,84.2398629 156.774415,84.7607082 156.143918,84.7607082 C155.486008,84.7607082 154.965163,84.2398629 154.965163,83.5819532 C154.965163,82.9514563 155.486008,82.4031982 156.143918,82.4031982 Z" id="Shape"></path>
                    <path d="M336.219303,21.491719 C336.877213,21.491719 337.398058,22.0125642 337.398058,22.670474 C337.398058,23.3283838 336.877213,23.849229 336.219303,23.849229 C335.561393,23.849229 335.040548,23.3283838 335.040548,22.670474 C335.040548,22.0125642 335.561393,21.491719 336.219303,21.491719 Z" id="Shape"></path>
                    <path d="M405.272416,79.7167333 C405.930326,79.7167333 406.451171,80.2375785 406.451171,80.8954883 C406.451171,81.5533981 405.930326,82.0742433 405.272416,82.0742433 C404.614506,82.0742433 404.093661,81.5533981 404.093661,80.8954883 C404.066248,80.2375785 404.614506,79.7167333 405.272416,79.7167333 Z" id="Shape"></path>
                    <path d="M170.535694,94.4100514 C170.864649,94.4100514 171.138778,94.6841805 171.138778,95.0131354 C171.138778,95.3420902 170.892062,95.6162193 170.535694,95.6162193 C170.206739,95.6162193 169.960023,95.3420902 169.960023,95.0131354 C169.960023,94.6841805 170.206739,94.4100514 170.535694,94.4100514 Z" id="Shape"></path>
                    <path d="M201.841234,53.0439749 C202.170188,53.0439749 202.416905,53.290691 202.416905,53.6196459 C202.416905,53.9486008 202.170188,54.2227299 201.841234,54.2227299 C201.512279,54.2227299 201.23815,53.9760137 201.23815,53.6196459 C201.23815,53.290691 201.512279,53.0439749 201.841234,53.0439749 Z" id="Shape"></path>
                    <path d="M155.458595,27.6596231 C155.78755,27.6596231 156.034266,27.9337521 156.034266,28.262707 C156.034266,28.5916619 155.78755,28.8383781 155.458595,28.8383781 C155.12964,28.8383781 154.855511,28.5916619 154.855511,28.262707 C154.882924,27.9063392 155.157053,27.6596231 155.458595,27.6596231 Z" id="Shape"></path>
                    <path d="M128.374643,63.8720731 C128.703598,63.8720731 128.977727,64.1187893 128.977727,64.4477441 C128.977727,64.776699 128.703598,65.0508281 128.374643,65.0508281 C128.045688,65.0508281 127.798972,64.776699 127.798972,64.4477441 C127.798972,64.1187893 128.045688,63.8720731 128.374643,63.8720731 Z" id="Shape"></path>
                    <path d="M64.7492861,17.1604797 C65.078241,17.1604797 65.3523701,17.4346088 65.3523701,17.7635637 C65.3523701,18.0925186 65.078241,18.3666476 64.7492861,18.3666476 C64.4203312,18.3666476 64.1462022,18.0925186 64.1462022,17.7635637 C64.1462022,17.4346088 64.4203312,17.1604797 64.7492861,17.1604797 Z" id="Shape"></path>
                    <path d="M10.9377499,2.93318104 C11.2667047,2.93318104 11.5408338,3.1798972 11.5408338,3.50885208 C11.5408338,3.83780697 11.2667047,4.11193604 10.9377499,4.11193604 C10.608795,4.11193604 10.3346659,3.83780697 10.3346659,3.50885208 C10.3346659,3.20731011 10.608795,2.93318104 10.9377499,2.93318104 Z" id="Shape"></path>
                    <path d="M48.8498001,60.8292404 C49.178755,60.8292404 49.4528841,61.1033695 49.4528841,61.4323244 C49.4528841,61.7612793 49.178755,62.0354083 48.8498001,62.0354083 C48.5208452,62.0354083 48.2467162,61.7612793 48.2467162,61.4323244 C48.2467162,61.1033695 48.5208452,60.8292404 48.8498001,60.8292404 Z" id="Shape"></path>
                    <path d="M2.82352941,87.5568247 C3.15248429,87.5568247 3.42661336,87.8309537 3.42661336,88.1599086 C3.42661336,88.4888635 3.15248429,88.7629926 2.82352941,88.7629926 C2.49457453,88.7629926 2.24785837,88.4888635 2.24785837,88.1599086 C2.24785837,87.8309537 2.49457453,87.5568247 2.82352941,87.5568247 Z" id="Shape"></path>
                    <path d="M29.7978298,109.130782 C30.1267847,109.130782 30.3735009,109.404911 30.3735009,109.733866 C30.3735009,110.062821 30.1267847,110.309537 29.7978298,110.309537 C29.4688749,110.309537 29.1947459,110.062821 29.1947459,109.733866 C29.2221588,109.404911 29.4962878,109.130782 29.7978298,109.130782 Z" id="Shape"></path>
                    <path d="M169.93261,5.23586522 C170.261565,5.23586522 170.508281,5.48258138 170.508281,5.81153626 C170.508281,6.14049115 170.261565,6.41462022 169.93261,6.41462022 C169.603655,6.41462022 169.329526,6.16790405 169.329526,5.81153626 C169.356939,5.48258138 169.603655,5.23586522 169.93261,5.23586522 Z" id="Shape"></path>
                    <path d="M251.157053,95.5888064 C251.486008,95.5888064 251.760137,95.8629355 251.760137,96.1918903 C251.760137,96.5208452 251.486008,96.7675614 251.157053,96.7675614 C250.828098,96.7675614 250.581382,96.5208452 250.581382,96.1918903 C250.581382,95.8629355 250.828098,95.5888064 251.157053,95.5888064 Z" id="Shape"></path>
                    <path d="M197.016562,122.343804 C197.345517,122.343804 197.619646,122.59052 197.619646,122.946887 C197.619646,123.275842 197.345517,123.522559 197.016562,123.522559 C196.687607,123.522559 196.413478,123.275842 196.413478,122.946887 C196.413478,122.59052 196.687607,122.343804 197.016562,122.343804 Z" id="Shape"></path>
                    <path d="M311.76699,109.816105 C312.095945,109.816105 312.370074,110.062821 312.370074,110.391776 C312.370074,110.720731 312.095945,110.99486 311.76699,110.99486 C311.438035,110.99486 311.163906,110.720731 311.163906,110.391776 C311.163906,110.062821 311.438035,109.816105 311.76699,109.816105 Z" id="Shape"></path>
                    <path d="M348.308395,71.7395774 C348.63735,71.7395774 348.911479,71.9862935 348.911479,72.3426613 C348.911479,72.6716162 348.63735,72.9183324 348.308395,72.9183324 C347.97944,72.9183324 347.705311,72.6716162 347.705311,72.3426613 C347.705311,71.9862935 347.97944,71.7395774 348.308395,71.7395774 Z" id="Shape"></path>
                    <path d="M447.131925,110.99486 C447.460879,110.99486 447.735009,111.268989 447.735009,111.597944 C447.735009,111.926899 447.460879,112.201028 447.131925,112.201028 C446.80297,112.201028 446.528841,111.926899 446.528841,111.597944 C446.528841,111.268989 446.80297,110.99486 447.131925,110.99486 Z" id="Shape"></path>
                    <path d="M451.490577,73.2472873 C451.682467,73.2472873 451.846945,73.4117647 451.846945,73.6036551 C451.846945,73.7955454 451.682467,73.9600228 451.490577,73.9600228 C451.298686,73.9600228 451.134209,73.7955454 451.134209,73.6036551 C451.134209,73.4117647 451.298686,73.2472873 451.490577,73.2472873 Z" id="Shape"></path>
                    <path d="M455.273558,20.7515705 C455.465448,20.7515705 455.629926,20.916048 455.629926,21.1079383 C455.629926,21.2998287 455.465448,21.4643061 455.273558,21.4643061 C455.081668,21.4643061 454.91719,21.2998287 454.91719,21.1079383 C454.91719,20.916048 455.081668,20.7515705 455.273558,20.7515705 Z" id="Shape"></path>
                    <path d="M430.245574,3.15248429 C430.437464,3.15248429 430.601942,3.31696174 430.601942,3.50885208 C430.601942,3.70074243 430.437464,3.86521987 430.245574,3.86521987 C430.053684,3.86521987 429.889206,3.70074243 429.889206,3.50885208 C429.861793,3.28954883 430.026271,3.15248429 430.245574,3.15248429 Z" id="Shape"></path>
                    <path d="M353.407196,31.2507139 C353.599086,31.2507139 353.763564,31.4151913 353.763564,31.6070817 C353.763564,31.798972 353.599086,31.9634495 353.407196,31.9634495 C353.215306,31.9634495 353.050828,31.798972 353.050828,31.6070817 C353.050828,31.3877784 353.215306,31.2507139 353.407196,31.2507139 Z" id="Shape"></path>
                    <path d="M302.638492,6.52427184 C302.830383,6.52427184 302.99486,6.68874929 302.99486,6.88063963 C302.99486,7.07252998 302.830383,7.23700742 302.638492,7.23700742 C302.446602,7.23700742 302.282125,7.07252998 302.282125,6.88063963 C302.254712,6.68874929 302.419189,6.52427184 302.638492,6.52427184 Z" id="Shape"></path>
                    <path d="M291.454026,43.7509994 C291.645917,43.7509994 291.810394,43.9154769 291.810394,44.1073672 C291.810394,44.2992576 291.645917,44.463735 291.454026,44.463735 C291.262136,44.463735 291.097658,44.2992576 291.097658,44.1073672 C291.097658,43.9154769 291.262136,43.7509994 291.454026,43.7509994 Z" id="Shape"></path>
                    <path d="M314.809823,78.620217 C315.001713,78.620217 315.166191,78.7846945 315.166191,78.9765848 C315.166191,79.1684752 315.001713,79.3329526 314.809823,79.3329526 C314.617933,79.3329526 314.453455,79.1684752 314.453455,78.9765848 C314.453455,78.7846945 314.617933,78.620217 314.809823,78.620217 Z" id="Shape"></path>
                    <path d="M287.396916,110.775557 C287.588806,110.775557 287.753284,110.940034 287.753284,111.131925 C287.753284,111.323815 287.588806,111.488292 287.396916,111.488292 C287.205026,111.488292 287.040548,111.323815 287.040548,111.131925 C287.040548,110.940034 287.205026,110.775557 287.396916,110.775557 Z" id="Shape"></path>
                    <path d="M321.553398,145.617362 C321.745288,145.617362 321.909766,145.781839 321.909766,145.973729 C321.909766,146.16562 321.745288,146.330097 321.553398,146.330097 C321.361508,146.330097 321.19703,146.16562 321.19703,145.973729 C321.19703,145.781839 321.361508,145.617362 321.553398,145.617362 Z" id="Shape"></path>
                    <path d="M366.949172,109.733866 C367.141062,109.733866 367.30554,109.898344 367.30554,110.090234 C367.30554,110.282125 367.141062,110.446602 366.949172,110.446602 C366.757282,110.446602 366.592804,110.282125 366.592804,110.090234 C366.592804,109.898344 366.757282,109.733866 366.949172,109.733866 Z" id="Shape"></path>
                    <path d="M250.828098,63.7350086 C251.019989,63.7350086 251.184466,63.899486 251.184466,64.0913764 C251.184466,64.2832667 251.019989,64.4477441 250.828098,64.4477441 C250.636208,64.4477441 250.47173,64.2832667 250.47173,64.0913764 C250.47173,63.899486 250.636208,63.7350086 250.828098,63.7350086 Z" id="Shape"></path>
                    <path d="M198.716162,100.276413 C198.908053,100.276413 199.07253,100.440891 199.07253,100.632781 C199.07253,100.824672 198.908053,100.989149 198.716162,100.989149 C198.524272,100.989149 198.359794,100.824672 198.359794,100.632781 C198.359794,100.440891 198.524272,100.276413 198.716162,100.276413 Z" id="Shape"></path>
                    <path d="M135.776128,112.475157 C135.968018,112.475157 136.132496,112.639634 136.132496,112.831525 C136.132496,113.023415 135.968018,113.187893 135.776128,113.187893 C135.584238,113.187893 135.41976,113.023415 135.41976,112.831525 C135.392347,112.639634 135.556825,112.475157 135.776128,112.475157 Z" id="Shape"></path>
                    <path d="M135.090805,86.7344375 C135.282696,86.7344375 135.447173,86.8989149 135.447173,87.0908053 C135.447173,87.2826956 135.282696,87.447173 135.090805,87.447173 C134.898915,87.447173 134.734437,87.2826956 134.734437,87.0908053 C134.734437,86.8989149 134.898915,86.7344375 135.090805,86.7344375 Z" id="Shape"></path>
                    <path d="M165.546545,50.1930326 C165.738435,50.1930326 165.902913,50.35751 165.902913,50.5494003 C165.902913,50.7412907 165.738435,50.9057681 165.546545,50.9057681 C165.354654,50.9057681 165.190177,50.7412907 165.190177,50.5494003 C165.190177,50.35751 165.354654,50.1930326 165.546545,50.1930326 Z" id="Shape"></path>
                    <path d="M108.692176,33.2518561 C108.884066,33.2518561 109.048544,33.4163335 109.048544,33.6082239 C109.048544,33.8001142 108.884066,33.9645917 108.692176,33.9645917 C108.500286,33.9645917 108.335808,33.8001142 108.335808,33.6082239 C108.335808,33.4163335 108.472873,33.2518561 108.692176,33.2518561 Z" id="Shape"></path>
                    <path d="M36.9251856,25.8229583 C37.117076,25.8229583 37.2815534,25.9874358 37.2815534,26.1793261 C37.2815534,26.3712164 37.117076,26.5356939 36.9251856,26.5356939 C36.7332953,26.5356939 36.5688178,26.3712164 36.5688178,26.1793261 C36.5688178,25.9874358 36.7332953,25.8229583 36.9251856,25.8229583 Z" id="Shape"></path>
                    <path d="M0.383780697,40.0228441 C0.575671045,40.0228441 0.740148487,40.1873215 0.740148487,40.3792119 C0.740148487,40.5711022 0.575671045,40.7355797 0.383780697,40.7355797 C0.191890348,40.7355797 0.0274129069,40.5711022 0.0274129069,40.3792119 C9.02056208e-17,40.1873215 0.164477441,40.0228441 0.383780697,40.0228441 Z" id="Shape"></path>
                    <path d="M47.0679612,100.276413 C47.2598515,100.276413 47.424329,100.440891 47.424329,100.632781 C47.424329,100.824672 47.2598515,100.989149 47.0679612,100.989149 C46.8760708,100.989149 46.7115934,100.824672 46.7115934,100.632781 C46.7390063,100.440891 46.8760708,100.276413 47.0679612,100.276413 Z" id="Shape"></path>
                    <path d="M20.011422,132.788121 C20.2033124,132.788121 20.3677898,132.952599 20.3677898,133.144489 C20.3677898,133.336379 20.2033124,133.500857 20.011422,133.500857 C19.8195317,133.500857 19.6550543,133.336379 19.6550543,133.144489 C19.6276413,132.952599 19.7921188,132.788121 20.011422,132.788121 Z" id="Shape"></path>
                    <path d="M45.0394061,4.82467162 C45.2312964,4.82467162 45.3957738,4.98914906 45.3957738,5.18103941 C45.3957738,5.37292975 45.2312964,5.5374072 45.0394061,5.5374072 C44.8475157,5.5374072 44.6830383,5.37292975 44.6830383,5.18103941 C44.6830383,4.98914906 44.8475157,4.82467162 45.0394061,4.82467162 Z" id="Shape"></path>
                    <path d="M215.629926,10.2524272 C215.821816,10.2524272 215.986294,10.4169046 215.986294,10.608795 C215.986294,10.8006853 215.821816,10.9651628 215.629926,10.9651628 C215.438035,10.9651628 215.273558,10.8006853 215.273558,10.608795 C215.273558,10.4169046 215.438035,10.2524272 215.629926,10.2524272 Z" id="Shape"></path>
                    <path d="M255.570531,0.0822387207 C255.762421,0.0822387207 255.926899,0.246716162 255.926899,0.438606511 C255.926899,0.630496859 255.762421,0.7949743 255.570531,0.7949743 C255.378641,0.7949743 255.214163,0.630496859 255.214163,0.438606511 C255.214163,0.246716162 255.378641,0.0822387207 255.570531,0.0822387207 Z" id="Shape"></path>
                    <path d="M397.048544,54.9354654 C397.240434,54.9354654 397.404911,55.0999429 397.404911,55.2918332 C397.404911,55.4837236 397.240434,55.648201 397.048544,55.648201 C396.856653,55.648201 396.692176,55.4837236 396.692176,55.2918332 C396.692176,55.0999429 396.856653,54.9354654 397.048544,54.9354654 Z" id="Shape"></path>
                    <path d="M380.13478,8.22387207 C380.32667,8.22387207 380.491148,8.38834951 380.491148,8.58023986 C380.491148,8.77213021 380.32667,8.93660765 380.13478,8.93660765 C379.94289,8.93660765 379.778412,8.77213021 379.778412,8.58023986 C379.778412,8.38834951 379.94289,8.22387207 380.13478,8.22387207 Z" id="Shape"></path>
                </g>
                <g id="Group" transform="translate(0.000000, 243.179897)">
                    <path d="M479.725871,19.76053 L479.725871,121 L0,121 L0,19.76053 C67.5179897,7.34266453 150.332381,0.0274129069 239.862935,0.0274129069 C329.393489,0.0274129069 412.207881,7.34266453 479.725871,19.76053 Z" id="Shape" fill="#FF6666"></path>
                    <path d="M184.92747,121 L158.172473,121 L149.098801,116.84566 L133.802399,121 L0,121 L0,19.76053 C67.5179897,7.34266453 150.332381,0.0274129069 239.862935,0.0274129069 C258.914906,0.0274129069 280.461451,2.37551837 291.344375,6.93626167 L194.384923,10.5938875 L251.266705,15.1546308 L211.984009,17.8188274 L163.271274,23.5084675 L89.4757282,27.3918727 L68.4774415,35.2038389 L82.3483724,40.216141 L89.1193604,48.5699777 L138.544832,58.0527113 L156.472873,53.5822798 L173.743004,58.5945818 L211.984009,62.477987 L166.972016,67.490289 L146.001142,78.64379 L105.402627,78.64379 L54.6339235,94.3580342 L77.6607653,101.041104 L85.4460308,110.523837 L153.484866,108.85307 L184.92747,121 Z M181.802399,77.0181785 L174.510565,74.7603848 L163.161622,76.4311521 L171.961165,78.1019195 L181.802399,77.0181785 Z M192.466019,77.560049 L200.58024,75.03132 L207.351228,76.9730226 L196.002284,78.64379 L192.466019,77.560049 Z M216.836094,64.7357807 L232.571102,66.6774833 L243.563678,64.1487543 L259.134209,67.490289 L285.368361,64.6906248 L267.412907,63.0198575 L256.420331,65.2324953 L239.862935,60.5362844 L228.513992,63.6520397 L216.836094,64.7357807 Z M443.952027,61.2136225 L438.770988,58.8203612 L429.779555,61.2587784 L435.563678,63.1553251 L443.952027,61.2136225 Z M413.825243,33.5330716 L409.74072,32.8557335 L402.640777,33.5330716 L407.218732,34.0297862 L413.825243,33.5330716 Z M459.824101,35.3393066 L458.426042,34.7071243 L455.958881,35.3844624 L457.548829,35.9263329 L459.824101,35.3393066 Z M423.913192,72.3671234 L413.934894,67.7612243 L396.582524,72.5025911 L407.739577,76.115061 L423.913192,72.3671234 Z M68.0662479,51.3696419 L58.0879497,46.7637427 L40.7355797,51.5051095 L51.8926328,55.1175795 L68.0662479,51.3696419 Z M194.001142,98.9639334 L216.671616,93.9516313 L257.626499,100.09283 L222.757282,107.904796 L194.001142,98.9639334 Z M122.919475,89.5263557 L129.690463,88.4426147 L134.432895,89.8424468 L127.990862,89.8424468 L122.919475,89.5263557 Z M258.476299,121 L292.824672,106.55012 L312.452313,114.903957 L316.673901,118.516427 L334.272987,121 L258.476299,121 Z M87.2004569,99.0090892 L96.8498001,102.892494 L101.263278,102.034533 L93.1490577,99.2348686 L87.2004569,99.0090892 Z M94.9857224,42.2933112 L106.992576,45.9057811 L117.573958,43.6931433 L112.584809,40.6225439 L94.9857224,42.2933112 Z M189.669903,36.8746063 L196.358652,35.4747742 L201.512279,37.7325679 L193.480297,38.1389708 L189.669903,36.8746063 Z M315.714449,14.2515133 L313.000571,13.980578 L310.505997,14.4772927 L314.014849,14.6127603 L315.714449,14.2515133 Z M298.334666,7.11688516 L301.679041,6.71048229 L303.460879,7.34266453 L298.334666,7.11688516 Z M265.411765,15.6061895 L275.581953,15.0191632 L280.817818,15.6061895 L272.868075,17.8188274 L265.411765,15.6061895 Z M168.095945,31.1849661 L175.552256,31.1849661 L181.144489,35.0683713 L187.230154,36.4682034 L178.595089,36.7391387 L178.101656,36.7391387 L173.359223,32.5847982 L168.095945,31.1849661 Z M370.156482,45.1381313 L361.850371,42.3384671 L355.243861,45.4090665 L347.78755,45.950937 L359.821816,48.479666 L370.156482,45.1381313 Z M310.094803,60.4911285 L298.581382,58.8203612 L307.05197,58.2333348 L310.094803,60.4911285 Z M332.271845,64.3745337 L322.458024,68.2579389 L337.178755,70.5157326 L349.870931,66.045301 L332.271845,64.3745337 Z M304.968589,26.21782 L367.963449,34.2555656 L380.820103,41.4805055 L452.587093,51.5051095 L436.002284,52.6340064 L415.031411,60.4459726 L374.734437,66.6323274 L344.964021,87.2685619 L301.624215,97.293166 L339.536265,97.293166 L367.30554,105.105132 L402.174757,89.4811998 L459.714449,84.4688977 L438.058252,95.0805282 L426.544832,109.033693 L384.219303,121 L479.725871,121 L479.725871,19.76053 L304.968589,26.21782 Z" id="Shape" fill="#DB4646"></path>
                    <path d="M88.2147344,13.246536 L23.2187322,19.67156 L53.3455168,26.6186172 L59.78755,30.0720676 L40.4888635,34.0475512 L21.190177,36.537248 L37.4460308,44.970092 L7.64820103,46.2149404 L53.6744717,55.410756 L73.3021131,46.4960352 L100.71502,52.4391824 L117.985151,53.9249692 L77.0302684,63.8436 L54.6887493,60.8720264 L19.1616219,68.260804 L0,68.260804 L0,7.78526556 L88.2147344,13.246536 Z M463.250714,104 L453.272416,98.0970092 L437.701885,100.345768 L428.545974,97.8560708 L411.467733,104 L463.250714,104 Z M479.725871,79.504596 L461.222159,85.6886816 L479.725871,89.9051036 L479.725871,79.504596 Z M479.725871,38.8261628 L467.993147,40.0710112 L460.728726,44.0464948 L452.258138,48.2629168 L450.394061,51.9573056 L428.737864,59.9082728 L453.957738,60.8720264 L465.471159,67.8190836 L474.106225,63.3617232 L479.753284,65.3293868 L479.753284,38.8261628 L479.725871,38.8261628 Z M383.013135,20.273906 L394.170188,23.9682948 L421.774986,22.0006312 L441.402627,28.70675 L421.089663,28.70675 L455.438035,34.6498972 L463.223301,32.1602004 L443.59566,27.1808068 L463.744146,24.2092332 L479.725871,27.6626836 L479.725871,10.5560572 L383.013135,20.273906 Z M477.203883,100.827644 L473.749857,99.2213884 L468.322102,100.064673 L472.900057,101.791398 L477.203883,100.827644 Z M459.522559,94.1215256 L446.748144,91.149952 L440.909195,94.362464 L459.522559,94.1215256 Z M39.6390634,29.2689396 L36.1576242,27.6626836 L30.7572816,28.505968 L35.335237,30.2326932 L39.6390634,29.2689396 Z M21.9577384,22.6029772 L9.18332381,19.6314036 L3.34437464,22.8439156 L21.9577384,22.6029772 Z M388.05711,73.3205104 L386.631639,72.7583208 L384.164477,73.3606668 L385.754426,73.8425436 L388.05711,73.3205104 Z M382.49229,68.0198656 L377.311251,65.8915764 L368.319817,68.1001784 L374.103941,69.7465908 L382.49229,68.0198656 Z M368.81325,77.5369324 L364.728726,76.9747428 L357.628784,77.5770888 L362.206739,78.0589656 L368.81325,77.5369324 Z M137.640206,56.5752916 L146.604226,58.1815476 L153.457453,57.5792016 L150.250143,55.611538 L137.640206,56.5752916 Z M14.0079954,74.6456716 L9.34780126,72.678008 L5.20845231,72.7984772 L9.5396916,75.1677048 L14.0079954,74.6456716 Z M23.9040548,76.89443 L32.2924043,78.6211552 L40.7629926,77.1353684 L51.5910908,80.5888188 L40.6807539,75.2480176 L33.0599657,76.6133352 L30.0171331,74.88661 L23.9040548,76.89443 Z M57.2381496,22.7234464 L64.6944603,25.5745508 L71.7121645,22.1211004 L66.4762993,20.9967212 L57.2381496,22.7234464 Z M47.9451742,19.269996 L50.8235294,20.0329676 L44.9845802,19.67156 L47.9451742,19.269996 Z M0,80.4281932 L30.3460879,95.2860612 L57.0736722,92.555426 L77.0302684,104 L0,104 L0,80.4281932 Z" id="Shape" fill="#A62A38"></path>
                </g>
                <g id="Group" transform="translate(0.000000, 104.196459)">
                    <g id="Shape">
                        <path d="M0,115.627641 L16.0091376,107.842376 L42.407767,107.157053 L51.536265,92.9297544 L63.0496859,89.2015991 L69.8206739,49.2609937 L76.9206168,47.9177613 L78.9491719,26.2615648 L87.748715,22.2044546 L88.7629926,0.548258138 C90.7641348,0.0274129069 90.4351799,0.191890348 92.4911479,0.191890348 L106.033124,1.53512279 L109.10337,32.7035979 L116.55968,34.4031982 L121.987436,67.5728155 L131.472302,67.5728155 L137.557967,100.413478 L158.528841,109.541976 L162.585951,124.783552 L192.027413,136.625928 L194.384923,145.425471 L211.984009,149.811536 L0,150.990291 L0,115.627641 Z" fill="#FF6198"></path>
                        <path d="M0,125.030268 L13.6516276,113.681325 L10.9377499,129.416334 L2.65905197,141.094232 L20.4226156,127.716733 L14.9948601,123.824101 L30.4009138,113.489435 L40.2147344,112.118789 L34.1290691,121.987436 L42.5996573,116.066248 L48.3563678,105.402627 L57.5122787,98.1107938 L62.2547116,95.396916 L60.2261565,112.50257 L53.1262136,117.40948 L49.5625357,125.359223 L49.0416905,125.715591 L38.3780697,129.608224 C37.6105083,130.129069 37.6379212,129.937179 36.8703598,130.458024 L29.5511136,141.4506 L38.5151342,131.801256 L63.0496859,128.237579 L57.9508852,124.701314 L59.1296402,117.40948 L69.6287836,110.80297 L72.150771,92.8749286 L78.5928041,89.3112507 L85.692747,110.14506 L94.3278127,117.40948 L98.5494003,129.443746 L96.3289549,112.173615 L95.8355226,112.009138 L87.447173,103.346659 L84.0479726,77.441462 L77.1125071,66.4488864 L75.4129069,53.2358652 L78.1267847,51.536265 L84.0479726,67.1067961 L84.0479726,65.4071959 L82.3483724,50.1930326 L84.0479726,31.4151913 L88.4340377,28.3723587 L90.4625928,42.7641348 L94.3552256,9.43003998 L102.469446,16.3655054 L108.061679,50.3849229 L102.304969,59.7053113 L97.7270131,91.1753284 L102.798401,67.6550543 L113.790977,66.6407767 L120.890919,78.1541976 L125.112507,101.345517 L124.09823,72.7538549 L128.676185,74.9468875 L135.255283,108.280982 L125.605939,121.987436 L123.056539,139.778412 L127.278127,125.907481 L139.805825,116.778983 L140.820103,110.007995 L155.019989,113.407196 L159.762421,133.966876 L167.218732,142.766419 L162.997144,128.456882 L189.724729,137.941748 L192.274129,146.220445 L200.059395,149.921188 L0,150.990291 L0,125.030268 Z" fill="#A13A67"></path>
                        <polygon fill="#4A1330" points="0 134.323244 5.86636208 127.387778 11.5134209 125.98972 10.9377499 129.416334 2.65905197 141.094232 4.52312964 147.01542 4.66019417 141.615077 23.7944032 132.459166 25.4940034 123.851513 35.9657339 118.999429 34.1290691 121.987436 31.5796688 130.951456 37.6653341 121.631068 45.1216448 121.466591 49.5351228 113.35237 60.5002856 109.925757 60.1987436 112.50257 53.0713878 117.40948 49.5351228 125.359223 36.8429469 130.430611 29.5511136 141.4506 18.0376927 146.686465 36.4865791 141.779555 40.9000571 135.008567 56.6350657 130.951456 60.363221 136.187322 68.4774415 139.230154 74.7275842 148.029697 69.6561965 135.693889 65.4346088 133.144489 63.0770988 128.237579 60.5276985 126.45574 61.8709309 119.76699 70.0125642 114.695603 71.6847516 126.044546 74.5631068 110.80297 73.3843518 103.209595 82.1838949 99.7281553 85.7475728 110.14506 94.3826385 117.40948 98.6042262 129.416334 93.5602513 143.177613 99.2621359 131.444889 105.018846 127.387778 102.661336 116.888635 98.6042262 111.65277 96.9046259 102.688749 91.6687607 97.2609937 88.2695603 81.3615077 82.1838949 69.3546545 86.9263278 72.0411194 87.6116505 49.0416905 90.2707025 41.3386636 90.2981154 44.463735 89.4483152 55.1273558 94.8760708 43.9703027 94.7115934 28.564249 100.139349 28.7287264 105.210737 55.0451171 102.332381 59.7053113 97.754426 91.1753284 102.140491 77.9623073 112.996002 77.6333524 119.76699 89.6402056 122.645346 104.881782 111.296402 123.001713 118.560822 119.958881 120.095945 142.629355 123.138778 139.750999 127.360366 125.880069 134.816676 120.4249 143.122787 125.880069 142.272987 119.602513 151.565962 118.588235 156.719589 136.488864 165.080525 140.079954 167.300971 142.711593 169.000571 147.536265 170.371216 139.394632 183.721302 141.779555 188.79269 149.948601 0 150.990291"></polygon>
                    </g>
                    <g transform="translate(298.800685, 62.227299)" id="Shape">
                        <polygon fill="#FF6198" points="180.925186 24.2878355 164.998287 22.9446031 161.297544 34.458024 156.555111 34.458024 150.798401 55.0999429 138.956025 61.541976 137.58538 70.9994289 133.884637 69.2998287 132.87036 49.3432324 129.827527 46.3003998 129.142204 13.8161051 121.000571 8.05939463 120.342661 0.246716162 111.872073 0.246716162 109.514563 18.5311251 73.631068 29.7155911 72.9457453 39.173044 75.3306682 44.9297544 69.2175899 51.0428327 66.86008 63.2141633 52.6327813 62.8852085 41.4757282 74.0422616 34.0194175 74.7275842 26.9194746 81.8275271 0.164477441 92.6556254 180.925186 93.5054255"></polygon>
                        <polygon fill="#A13A67" points="6.16790405 92.6830383 27.3032553 83.9109081 26.6179326 86.4603084 33.3889206 78.4009138 40.8452313 76.4545974 38.6521987 84.9251856 49.480297 74.7824101 53.8663621 64.776699 67.0793832 65.2975443 66.7230154 78.6750428 72.3152484 50.7412907 78.4009138 46.4922901 79.5796688 54.7984009 81.6356368 44.8201028 76.8932039 39.9131925 78.5928041 33.6630497 93.64249 29.2495717 93.9714449 51.4266134 89.229012 53.7841234 88.9000571 74.5631068 91.4494575 55.1547687 104.799543 53.7841234 99.8926328 51.4266134 98.7138778 30.4283267 110.391776 24.3426613 112.091376 33.1422045 114.284409 12.5002856 119.026842 11.486008 127.661907 17.5716733 126.45574 58.3620788 128.319817 52.0845231 131.033695 54.7984009 131.55454 80.5391205 133.583095 74.7824101 137.311251 75.4403198 138.490006 88.4888635 141.532838 65.7909766 150.003427 58.8555111 150.003427 70.6978869 156.938892 41.6127927 159.65277 41.4209023 161.845802 64.6122216 169.2747 68.8338093 172.153055 83.3900628 171.138778 65.6264991 166.25928 59.7053113 163.024557 37.1993147 167.602513 27.0565391 180.925186 28.3997716 180.925186 93.5054255"></polygon>
                        <polygon fill="#4A1330" points="94.3826385 63.0496859 104.11422 58.3894917 106.828098 67.3535123 107.842376 48.2467162 105.978298 37.7475728 110.035408 34.8692176 112.749286 44.6830383 115.106796 22.0125642 124.427184 26.2341519 123.906339 61.2678469 116.641919 75.4951456 126.949172 65.8458024 128.977727 72.0959452 129.827527 89.2015991 131.55454 80.5391205 135.090805 81.7452884 138.490006 88.4888635 142.026271 83.7738435 142.711593 71.2461451 150.003427 67.0245574 150.003427 70.6978869 146.412336 83.2804112 155.211879 65.3249572 160.118789 68.7241576 161.653912 80.2375785 168.945745 83.7738435 171.961165 91.3946316 172.153055 83.3900628 174.675043 79.0314106 175.031411 63.8172473 169.08281 54.8532267 167.410623 39.2826956 172.153055 33.3615077 180.925186 36.5688178 180.925186 93.5054255 14.7755568 92.7378641 26.6179326 86.4603084 25.9326099 89.8320959 33.0599657 81.0325528 39.9406054 79.8812107 38.6521987 84.9251856 34.458024 89.0645346 49.7818389 81.6356368 51.4540263 76.5368361 57.8960594 73.1650485 59.2392918 68.916048 66.9697316 69.6013706 66.7230154 78.6750428 62.3643632 81.0325528 60.4180468 89.0645346 63.4060537 83.3900628 63.6527698 83.2255854 68.7241576 81.5259852 71.3557967 67.2438607 75.4951456 66.3940605 78.8121074 49.2609937 79.5796688 54.7984009 83.636779 56.6076528 85.1444889 64.5848087 84.4043404 39.2826956 88.5436893 39.2826956 91.1753284 52.8246716 89.229012 53.7841234 88.9000571 74.5631068 93.8617933 82.5128498"></polygon>
                    </g>
                </g>
                <g id="Group" transform="translate(138.161051, 244.276413)">
                    <g transform="translate(159.817247, 0.000000)" id="Shape">
                        <polygon fill="#FF6198" points="11.9794403 24.7812678 16.8589377 17.3523701 25.8777841 12.8566533 26.3712164 11.5682467 30.2638492 2.7687036 39.748715 0.246716162 46.1633352 12.7470017 55.8126785 15.9817247 61.240434 26.809823 48.1918903 27.4677327 38.5425471 30.1816105 19.1067961 29.8526556 5.5648201 27.4677327 0.137064535 27.4677327 5.5648201 23.2461451 10.1153626 22.7527127"></polygon>
                        <polygon fill="#A13A67" points="7.31924615 24.4249001 10.0331239 25.027984 11.0474015 26.4808681 16.4751571 22.4785837 18.8874929 17.6539121 27.1387778 16.0913764 30.044546 23.6299258 30.0993718 15.899486 28.2352941 13.6790405 30.1816105 9.97829812 36.8703598 9.62193033 43.3672187 14.3643632 46.6841805 23.7669903 47.9451742 18.0925186 53.5374072 21.9851513 54.7161622 27.1387778 48.1918903 27.4677327 38.5425471 30.1816105 19.1067961 29.8526556 5.5648201 27.4677327 2.85094232 27.4677327"></polygon>
                        <polygon fill="#4A1330" points="13.4871502 28.865791 21.8754997 22.9994289 24.2055968 18.5037122 27.1936037 19.4631639 31.6619075 28.0982296 32.1553398 15.7350086 39.0085665 17.0234152 45.2587093 28.2901199 38.5425471 30.1816105 19.1067961 29.8526556"></polygon>
                    </g>
                    <g transform="translate(296.333524, 6.853227)" id="Shape">
                        <polygon fill="#FF6198" points="36.5962307 18.3392347 33.0051399 12.8018275 26.3163906 9.48486579 25.9326099 8.52541405 23.0542547 2.0011422 16.0365505 0.137064535 11.2667047 9.40262707 4.11193604 11.8149629 0.0822387207 19.8469446 9.75899486 20.3403769 16.9137636 22.3415191 31.3329526 22.094803 41.3660765 20.3403769 45.3957738 20.3403769 41.3660765 17.1878926 37.994289 16.8315248"></polygon>
                        <polygon fill="#A13A67" points="40.050257 18.0925186 38.0491148 18.5037122 37.3089663 19.6002284 33.279269 16.6396345 31.4700171 13.0485437 25.3843518 11.8697887 23.2187322 17.4620217 23.1913192 11.7327242 24.5619646 10.1153626 23.1090805 7.34665905 18.1473444 7.09994289 13.3226728 10.608795 10.882924 17.5716733 9.9234723 13.3774986 5.81153626 16.2558538 4.90691034 20.0936608 9.75899486 20.3403769 16.9137636 22.3415191 31.3329526 22.094803 41.3660765 20.3403769 43.3946316 20.3403769"></polygon>
                        <polygon fill="#4A1330" points="35.4997144 21.3546545 29.2769846 16.9960023 27.5499714 13.6790405 25.329526 14.3917761 22.0125642 20.7789834 21.6561965 11.6230725 16.5573958 12.5825243 11.9246145 20.9434609 16.9137636 22.3415191 31.3329526 22.094803"></polygon>
                    </g>
                    <g transform="translate(0.000000, 3.015420)" id="Shape">
                        <polygon fill="#FF6198" points="5.97601371 12.363221 8.41576242 8.66247858 12.9388921 6.41462022 13.1856082 5.75671045 15.1319246 1.37064535 19.8743575 0.0822387207 23.0816676 6.3597944 27.9063392 7.97715591 30.620217 13.3774986 24.0959452 13.7064535 19.2712736 15.0770988 9.5396916 14.9126214 2.7687036 13.7064535 0.0548258138 13.7064535 2.7687036 11.5956596 5.04397487 11.3489435"></polygon>
                        <polygon fill="#A13A67" points="3.64591662 12.1987436 5.01656196 12.5002856 5.50999429 13.2130211 8.22387207 11.2118789 9.43003998 8.79954312 13.5693889 8.00456882 15.022273 11.78755 15.0496859 7.9223301 14.1176471 6.82581382 15.0770988 4.96173615 18.4214734 4.79725871 21.6836094 7.1547687 23.3283838 11.8423758 23.9588806 9.01884637 26.7549971 10.9651628 27.3580811 13.541976 24.0959452 13.7064535 19.2712736 15.0770988 9.5396916 14.9126214 2.7687036 13.7064535 1.42547116 13.7064535"></polygon>
                        <polygon fill="#4A1330" points="6.7435751 14.419189 10.9377499 11.486008 12.0890919 9.23814963 13.5968018 9.70416905 15.8172473 14.0354083 16.0639634 7.84009138 19.4905768 8.49800114 22.6156482 14.1176471 19.2712736 15.0770988 9.5396916 14.9126214"></polygon>
                    </g>
                </g>
            </g>
        </g>
    </g>
</svg>