<?xml version="1.0" encoding="UTF-8"?>
<svg width="120px" height="120px" viewBox="0 0 120 120" version="1.1" xmlns="http://www.w3.org/2000/svg" xmlns:xlink="http://www.w3.org/1999/xlink">
    <!-- Generator: Sketch 51.1 (57501) - http://www.bohemiancoding.com/sketch -->
    <title>Turkey1</title>
    <desc>Created with Sketch.</desc>
    <defs>
        <polygon id="path-1" points="0.144259815 0.711505333 69.2178462 0.711505333 69.2178462 81.2917335 0.144259815 81.2917335"></polygon>
    </defs>
    <g id="Turkey1" stroke="none" stroke-width="1" fill="none" fill-rule="evenodd">
        <g id="Group" transform="translate(60.000000, 60.000000) scale(-1, 1) translate(-60.000000, -60.000000) ">
            <g id="Group-3" transform="translate(50.769231, 11.854154)">
                <mask id="mask-2" fill="white">
                    <use xlink:href="#path-1"></use>
                </mask>
                <g id="Clip-2"></g>
                <path d="M24.3492923,63.4516615 C24.8182154,65.9153538 24.5745231,68.7021231 25.8640615,72.7692 C26.9717538,76.2639692 33.3732923,85.4910462 39.0769846,79.0830462 C43.4754462,83.8618154 50.8646769,79.7781231 49.8714462,73.2464308 C55.4246769,77.7741231 61.7643692,67.7698154 57.2846769,65.0873538 C63.3696,67.3156615 67.2686769,58.9452 62.2268308,55.5058154 C68.7899077,55.7698154 72.0769846,46.4347385 65.7252923,41.4990462 C70.4172923,37.6424308 70.6785231,31.5270462 64.6932923,28.5861231 C68.9431385,24.8328923 65.3976,16.3553538 59.5083692,18.3805846 C61.7939077,14.5230462 57.6594462,9.22735385 52.4006769,10.7282769 C54.1563692,6.00396923 47.5102154,2.58212308 44.9606769,6.26981538 C43.6877538,1.49196923 38.8563692,0.521815385 35.9772923,5.22489231 C35.0449846,0.778430769 27.8440615,-2.07756923 25.5502154,4.97473846 C22.1376,-0.348646154 14.4336,3.8652 15.3742154,9.01596923 C11.2139077,4.70150769 3.49513846,10.3516615 5.57113846,15.8495077 C5.65606154,15.9298154 5.65883077,15.9279692 5.5776,15.8430462 C0.469292308,16.3821231 -3.38455385,23.2701231 5.24344615,28.8178154 C9.67606154,31.6682769 6.57729231,37.3692 10.9868308,34.5122769 L24.3492923,63.4516615 Z" id="Fill-1" fill="#E8D7C4" mask="url(#mask-2)"></path>
            </g>
            <path d="M72.2352923,74.2718769 C73.2562154,76.9737231 79.1629846,83.2700308 81.7909846,84.5872615 C85.0199077,86.2072615 89.3860615,82.8869538 86.9159077,77.7878769 C92.1248308,83.7998769 99.6885231,76.1106462 94.0337538,70.5500308 C102.155908,76.0912615 108.904523,65.3300308 103.144523,60.1561846 C103.045754,60.0555692 103.044831,60.0564923 103.141754,60.1589538 C110.659292,60.2060308 114.465138,45.7063385 101.238369,46.7134154 C109.612523,42.0444923 104.352831,32.9226462 94.8156,39.0601846 C96.6774462,38.1149538 100.530369,34.2500308 96.6857538,30.4681846 C93.3257538,27.1626462 88.3928308,30.5189538 86.0620615,32.6789538 C90.7291385,28.1438769 83.7931385,19.5426462 79.4916,28.9903385 C78.2445231,19.4244923 65.3334462,24.1506462 67.6937538,31.9617231 C61.0540615,24.3204923 52.6909846,35.2266462 56.0122154,40.6728 L72.2352923,74.2718769 Z" id="Fill-4" fill="#000000"></path>
            <path d="M21.9505846,104.2908 C24.6865846,103.796954 27.4216615,103.481262 30.1650462,103.349262 C31.9770462,94.8320308 33.7918154,86.3138769 35.6001231,77.7957231 C36.2028923,74.9517231 40.5496615,76.1581846 39.9478154,78.9948 C38.2281231,87.0994154 36.5019692,95.2040308 34.7776615,103.308646 C35.9693538,103.340954 37.1628923,103.401877 38.3610462,103.505262 C41.2364308,103.753569 41.2595077,108.265569 38.3610462,108.014492 C36.4438154,107.849262 34.5330462,107.768031 32.6268923,107.778185 C31.9272,108.1548 30.8148923,109.149877 30.1355077,109.8228 C29.2281231,110.7228 28.3918154,111.704031 27.8038154,112.844954 C26.4718154,115.430492 22.5810462,113.149569 23.9102769,110.568646 C24.3044308,109.803415 24.8010462,109.034492 25.3705846,108.291415 C24.6293538,108.392954 23.8899692,108.505569 23.1496615,108.639415 C20.3065846,109.153569 19.0918154,104.807723 21.9505846,104.2908" id="Fill-6" fill="#FFAA00"></path>
            <path d="M42.0401538,110.754092 C44.6016923,109.953785 47.1955385,109.339015 49.8170769,108.8904 C50.5546154,100.325169 51.294,91.7599385 52.0269231,83.1937846 C52.2733846,80.3184 56.7844615,80.2944 56.5370769,83.1937846 C55.8207692,91.5568615 55.098,99.9199385 54.3789231,108.283015 C55.6601538,108.159323 56.9478462,108.070708 58.2429231,108.021785 C61.1524615,107.911938 61.1413846,112.422092 58.2429231,112.531015 C56.4272308,112.599323 54.6336923,112.7544 52.8549231,112.987938 C51.0844615,114.143631 49.4201538,116.483631 48.7426154,118.319631 C47.7447692,121.024246 43.3850769,119.855631 44.394,117.121477 C44.7216923,116.2344 45.1675385,115.3104 45.6918462,114.402092 C44.8721538,114.619015 44.0543077,114.847938 43.2383077,115.101785 C40.4552308,115.9704 39.2736923,111.617169 42.0401538,110.754092" id="Fill-8" fill="#FFAA00"></path>
            <path d="M11.9779385,58.3108615 C15.3093231,75.4404 24.7339385,92.5164 48.6757846,90.4791692 C71.7665538,88.5139385 85.6985538,70.0468615 79.9007077,46.8527077 C78.3591692,40.6865538 73.4262462,48.2400923 55.0819385,41.9197846 C34.8185538,34.9385538 9.5724,45.9425538 11.9779385,58.3108615" id="Fill-10" fill="#564149"></path>
            <path d="M37.8984923,39.8962154 C25.5135692,37.2479077 39.9671077,19.8312923 30.4861846,7.27744615 C25.6501846,0.874984615 16.9335692,-0.781015385 11.2160308,2.06483077 C-3.67781538,9.47621538 7.44433846,21.3719077 12.0569538,19.9272923 C21.2074154,17.0639077 21.9984923,21.4688308 15.6551077,34.6568308 C12.2360308,41.7663692 11.1624923,50.1303692 11.5954154,56.4312923 C11.9443385,61.5202154 22.3944923,58.8405231 26.9720308,56.3029846 C36.2932615,51.1365231 37.8984923,39.8962154 37.8984923,39.8962154" id="Fill-12" fill="#DD4A7F"></path>
            <path d="M20.3270769,14.8505538 C20.4489231,16.1640923 21.9443077,17.1000923 23.6686154,16.9394769 C25.392,16.7797846 26.6907692,15.5853231 26.568,14.2717846 C26.4461538,12.9591692 24.9507692,12.0231692 23.2273846,12.1837846 C21.504,12.3434769 20.2052308,13.5379385 20.3270769,14.8505538" id="Fill-14" fill="#FFB0DD"></path>
            <path d="M49.8294462,50.6892 C62.2208308,57.8439692 54.1697538,71.2230462 66.5703692,70.1827385 C67.3522154,70.1172 69.8085231,69.1618154 70.8220615,68.8996615 C73.8109846,68.1279692 72.1494462,75.0039692 66.0949846,77.0642769 C69.6903692,77.0393538 72.4042154,75.4765846 73.4629846,76.0618154 C74.9039077,76.8593538 71.4608308,84.1119692 65.2706769,83.6153538 C67.5303692,84.7045846 72.0414462,83.5064308 70.6319077,85.8224308 C67.9476,90.2328923 59.8245231,92.3199692 52.7399077,90.6048923 C40.7814462,87.7101231 35.8069846,77.6015077 35.1479077,73.2732 C32.3796,55.0932 43.2765231,46.9045846 49.8294462,50.6892" id="Fill-16" fill="#AF7E7E"></path>
            <path d="M13.098,0.6168 C8.15123077,2.04110769 4.302,4.9728 1.79584615,9.24849231 C-0.195230769,12.6463385 -0.721384615,16.2694154 1.19584615,20.0023385 C2.01,21.5872615 1.97861538,26.2672615 2.28507692,28.0635692 C3.28569231,33.9380308 0.880153846,39.5291077 0.346615385,43.1844923 C-0.270923077,47.4186462 2.52507692,53.3180308 5.79553846,52.9174154 C10.1810769,52.3801846 11.2029231,47.1463385 9.48784615,43.2260308 C7.57892308,38.8617231 6.74907692,35.2192615 6.02630769,31.1494154 C5.49,28.1244923 4.63153846,24.8180308 5.59153846,22.8352615 C6.68538462,20.5783385 7.95461538,20.4592615 10.0416923,20.4343385 C11.3090769,20.4195692 12.798,19.8223385 13.2706154,19.6774154 C20.8093846,17.3724923 22.8955385,11.2211077 24.1352308,5.13433846 C25.3472308,-0.814892308 16.7395385,-0.430892308 13.098,0.6168" id="Fill-18" fill="#84004F"></path>
            <path d="M18.7815692,9.36073846 C18.7981846,13.5912 18.8498769,14.0721231 13.8154154,13.1684308 C10.4664923,12.5684308 9.93203077,13.2505846 9.91726154,9.39396923 C9.90803077,6.94689231 11.8843385,4.95489231 14.3323385,4.94566154 C16.7803385,4.93550769 18.7723385,6.91273846 18.7815692,9.36073846" id="Fill-20" fill="#FFFFFF"></path>
            <path d="M17.2585846,9.24535385 C17.4108923,10.8367385 16.2441231,12.2490462 14.6536615,12.4013538 C13.0632,12.5527385 11.6499692,11.3868923 11.4985846,9.79643077 C11.3462769,8.20504615 12.5121231,6.79273846 14.1035077,6.64043077 C15.6939692,6.48904615 17.1062769,7.65396923 17.2585846,9.24535385" id="Fill-22" fill="#000000"></path>
            <path d="M17.5925538,4.02424615 C17.6645538,4.02332308 17.7365538,4.00486154 17.8030154,3.96701538 C18.0088615,3.85070769 18.0808615,3.58763077 17.9636308,3.38270769 C17.2131692,2.06547692 16.0307077,1.34363077 14.7060923,1.41286154 C14.4697846,1.42486154 14.2870154,1.62609231 14.2990154,1.8624 C14.3110154,2.09963077 14.5094769,2.2824 14.7485538,2.2704 C15.7353231,2.22609231 16.6334769,2.78086154 17.2177846,3.80732308 C17.2971692,3.94670769 17.4430154,4.02424615 17.5925538,4.02424615" id="Fill-26" fill="#000000"></path>
            <path d="M61.6749231,78.7114154 C61.1543077,77.6194154 58.038,77.3138769 55.0970769,75.2443385 C60.1564615,76.7674154 65.2296923,72.4169538 65.2176923,70.2320308 C54.7786154,70.1794154 61.7358462,57.5646462 49.8290769,50.6895692 C43.2770769,46.9049538 32.3792308,55.0935692 35.1475385,73.2726462 C35.4069231,74.9775692 36.3493846,77.5806462 38.1115385,80.2843385 C42.8810769,84.6329538 49.4930769,86.8040308 53.6976923,85.0077231 C56.1918462,83.9424923 51.8247692,82.2948 50.6183077,80.0951077 C55.3666154,84.0975692 62.3847692,80.1975692 61.6749231,78.7114154" id="Fill-28" fill="#000000"></path>
        </g>
    </g>
</svg>