<?xml version="1.0" encoding="UTF-8"?>
<svg width="120px" height="120px" viewBox="0 0 120 120" version="1.1" xmlns="http://www.w3.org/2000/svg" xmlns:xlink="http://www.w3.org/1999/xlink">
    <!-- Generator: Sketch 51.1 (57501) - http://www.bohemiancoding.com/sketch -->
    <title>Popcorn2</title>
    <desc>Created with Sketch.</desc>
    <defs>
        <polygon id="path-1" points="0.222938025 0.315347738 25.6488495 0.315347738 25.6488495 71.1258278 0.222938025 71.1258278"></polygon>
        <polygon id="path-3" points="0 0.268227819 108.350929 0.268227819 108.350929 74.410674 0 74.410674"></polygon>
        <polygon id="path-5" points="0 0.234198675 108.350929 0.234198675 108.350929 41.522543 0 41.522543"></polygon>
        <polygon id="path-7" points="0.198498909 0.354 23.6671898 0.354 23.6671898 52.8476821 0.198498909 52.8476821"></polygon>
    </defs>
    <g id="Popcorn2" stroke="none" stroke-width="1" fill="none" fill-rule="evenodd">
        <g id="Page-1" transform="translate(60.500000, 60.000000) scale(-1, 1) translate(-60.500000, -60.000000) translate(6.000000, 0.000000)">
            <g id="Group-3" transform="translate(1.585455, 48.605960)">
                <mask id="mask-2" fill="white">
                    <use xlink:href="#path-1"></use>
                </mask>
                <g id="Clip-2"></g>
                <path d="M17.5059549,8.19695364 C17.3656422,7.35298013 17.4813804,6.63695364 17.5019913,5.81483444 C16.2415549,3.1784106 13.7345549,1.17298013 10.8870785,0.537615894 C7.997984,-0.106887417 4.82747127,0.672715232 2.56383855,2.58437086 C1.40288945,3.56503311 0.450427636,4.89059603 0.260965818,6.4005298 C0.148398545,7.29417219 0.306547636,8.19695364 0.464300364,9.08304636 C1.37633309,13.6561589 2.09771491,18.2761589 2.91343127,22.8675497 C2.91343127,24.72 3.61539127,26.8172185 3.94001309,28.6458278 C4.29753309,30.6556291 4.65465673,32.6654305 5.01178036,34.6756291 C5.67370764,38.4007947 6.39667491,42.0822517 7.26471127,45.7295364 C8.27623127,49.9772185 9.24573673,54.2348344 10.2211876,58.4908609 C10.7277404,60.7009272 11.2358785,62.910596 11.7523404,65.1182781 C12.0357404,66.3298013 12.2085549,69.7768212 13.2062022,70.5548344 C14.2395222,71.3610596 16.7421622,71.0634437 17.9768349,71.0904636 C20.5345695,71.1472848 23.0919076,71.1321854 25.6488495,71.0713907 C24.9036858,65.4484768 24.3463985,59.8259603 23.9306131,54.202649 C22.7070385,38.7143046 21.3300713,23.685298 17.5059549,8.19695364" id="Fill-1" fill="#DD593B" mask="url(#mask-2)"></path>
            </g>
            <path d="M28.6494411,46.6995497 C24.1162302,46.4782252 19.5001793,49.999947 19.1446411,54.5357086 C19.1268047,54.4967682 19.1057975,54.4594172 19.0871684,54.4208742 C19.0669538,55.2429934 18.9512156,55.9590199 19.0915284,56.8029934 C22.9156447,72.2913377 24.292612,87.3203444 25.5161865,102.808689 C25.931972,108.431603 26.4888629,114.054517 27.2344229,119.67743 C32.1378375,119.561404 37.0396665,119.276106 41.937532,118.989616 C42.0556484,118.982861 42.1741611,118.976106 42.2922775,118.968954 C40.4915975,97.4818013 40.2644811,75.8965033 38.7127175,54.3108079 C37.0119211,50.1990199 33.0799938,46.9157086 28.6494411,46.6995497" id="Fill-4" fill="#FFFFFF"></path>
            <path d="M80.9235422,45.1060927 C79.3586985,43.9486093 77.5584149,43.0513907 75.6297095,42.802649 C72.2332695,42.3647682 68.8138404,44.0201325 66.4305058,46.4845033 C64.0467749,48.9488742 62.5580331,52.14 61.3701313,55.3593377 C61.266284,54.9878146 61.1600585,54.6131126 61.0486804,54.2384106 C61.2107931,57.1660927 61.4775458,59.9876821 61.6178585,62.9372185 C62.5532767,81.2968212 61.737164,99.5392053 62.8434149,117.767285 C69.6378804,117.369934 76.4323458,116.972583 83.2268113,116.575232 C84.6616476,95.6856954 86.5741022,74.8537748 87.1238585,53.9312583 C86.0679458,50.4274172 83.8621822,47.2796026 80.9235422,45.1060927" id="Fill-6" fill="#FFFFFF"></path>
            <path d="M108.451869,50.5093113 C107.575112,46.7114305 104.809287,43.0776556 100.97764,42.4120927 C97.7591669,41.8530199 94.4760869,43.4984503 92.2306869,45.8761987 C89.9852869,48.2543444 88.5857269,51.2889139 87.2246142,54.2654702 C87.1933015,54.1534172 87.1572324,54.0429536 87.1235415,53.931298 C86.5741815,74.8538146 84.6617269,95.6857351 83.2264942,116.575272 C83.6157233,116.552225 84.0041596,116.529179 84.3933887,116.506927 C87.3898978,116.331298 90.3871996,116.156066 93.3841051,115.981232 C95.7920142,115.840172 98.3747196,116.320172 100.320865,114.726795 C100.519443,114.564675 100.714851,114.390636 100.844065,114.169311 C100.994287,113.912623 101.045418,113.611828 101.092189,113.317788 C102.855611,102.185205 103.83344,90.876596 105.354287,79.6899735 C106.037221,74.6654702 106.720156,69.6385828 107.642098,64.6514305 C108.487938,60.0783179 109.520069,55.1404371 108.451869,50.5093113" id="Fill-8" fill="#DD593B"></path>
            <path d="M61.4645847,55.1161192 C60.5041956,51.8705563 58.782392,47.6999603 56.0133956,45.8471126 C52.948712,43.7963841 48.6985047,44.1309536 45.5414684,46.035457 C42.3840356,47.9399603 40.2115665,51.1732053 38.8282575,54.5967815 C38.7913956,54.5010199 38.7517593,54.406053 38.7125193,54.3106887 C40.2642829,75.8967815 40.4917956,97.4816821 42.2920793,118.968834 C47.8514756,118.643801 53.4112684,118.318768 58.9706647,117.993338 C60.2616211,117.918238 61.5525775,117.842344 62.8435338,117.767245 C61.7368865,99.5391656 62.5533956,81.2967815 61.6179775,62.9371788 C61.4776647,59.9876424 61.6263011,58.0438013 61.4645847,55.1161192" id="Fill-10" fill="#DD593B"></path>
            <g id="Group-14" transform="translate(0.000000, 0.129139)">
                <mask id="mask-4" fill="white">
                    <use xlink:href="#path-3"></use>
                </mask>
                <g id="Clip-13"></g>
                <path d="M106.819168,57.5524768 C106.711357,58.8204238 105.86948,59.8940662 105.01056,60.8330066 C104.919793,60.9327417 104.829026,61.028106 104.729935,61.1274437 C96.224764,70.2335364 83.2648622,74.0548609 70.8012076,74.3838675 C65.2021749,74.5308874 59.6372295,74.0592318 54.089724,73.3106225 C47.1565313,72.3708874 40.2487058,70.9952583 33.3416731,69.8437351 C26.9435713,68.7748609 20.1653567,67.749298 15.1275749,63.6549934 C11.1167713,60.3915497 8.88920764,55.276053 4.43844036,52.6491656 C2.87121855,53.2809536 1.10105855,51.9867815 0.427636727,50.4287682 C-0.155414182,49.0785695 -0.181177818,47.4426755 0.591731273,46.1918146 C0.824793091,45.8111523 1.13990218,45.4777748 1.50693491,45.2135364 C2.33573127,44.6123444 3.41938945,44.3695629 4.38215673,44.716053 C2.58623309,42.1670464 4.62393855,37.8994967 7.72786218,37.6010861 C6.30769127,35.2594967 7.06752036,31.8577748 9.34700764,30.3430728 C8.10797491,27.9192318 8.30219309,24.8206887 9.83453491,22.5700927 C11.3672731,20.3155232 14.1691676,18.999894 16.8759349,19.268106 C17.9120295,19.3718146 18.948124,19.6833377 19.9715349,19.4973775 C22.3544731,19.0646623 23.9387385,16.0698278 26.3434767,16.3467815 C26.9566513,16.4159205 27.5218658,16.7059868 28.1219604,16.8486358 C29.5163676,17.1820132 30.9757785,16.7147285 32.4003095,16.8184371 C33.8292004,16.9221457 35.4352658,18.0776424 35.0725931,19.4671788 C37.7405167,17.8006887 41.6692731,18.6836026 43.3744295,21.3279735 C43.1976513,17.4589669 43.1544476,13.178702 45.6713567,10.2355232 C48.1494222,7.33605298 52.9109385,6.76466225 56.0021785,8.99777483 C56.1143495,7.49181457 56.4294585,5.9858543 57.1290404,4.64837086 C58.7477895,1.55380132 62.4950113,-0.254940397 65.9144404,0.402675497 C69.3334731,1.06466225 72.1480513,4.13777483 72.5067604,7.60863576 C73.1326185,7.6432053 73.7584767,7.23194702 73.9828185,6.63909934 C77.821204,7.81645033 80.6270622,11.7633377 80.4847676,15.7885033 C81.5985495,14.0314172 84.6204258,14.9226755 85.4623022,16.8271788 C86.3041785,18.7312848 85.695364,20.9298278 85.0778295,22.9205563 C87.2713058,22.0984371 89.8571822,22.0118146 91.851684,23.2451921 C93.8461858,24.4741987 94.9425276,27.2357881 93.8592658,29.3175099 C96.1557967,28.1401589 99.329084,27.1102252 100.991037,29.0922119 C102.048931,30.3518146 101.850353,32.1867815 102.091739,33.8314172 C102.100459,33.9005563 102.109179,33.9740662 102.121862,34.0432053 C102.415964,35.739894 104.202771,37.5490331 105.622942,36.5838675 C107.825139,39.2890331 105.42912,43.711947 107.220684,46.7024106 C107.535793,47.2261192 107.967433,47.6806887 108.187811,48.2477086 C108.969044,50.2904901 106.698277,52.2593642 106.551226,54.4451921 C106.482259,55.4838675 106.905575,56.5138013 106.819168,57.5524768" id="Fill-12" fill="#FDE984" mask="url(#mask-4)"></path>
            </g>
            <path d="M1.44644982,39.5910993 L0.880838909,40.3095099 C1.03224982,40.0496424 1.217748,39.8120265 1.44644982,39.5910993" id="Fill-15" fill="#FFD529"></path>
            <path d="M46.6390112,41.0798146 C46.5996735,41.2788874 46.5265609,41.4604768 46.4268258,41.6210066 C46.4399384,41.434649 46.5047066,41.2530596 46.6390112,41.0798146" id="Fill-17" fill="#FFD529"></path>
            <g id="Group-21" transform="translate(0.000000, 31.917219)">
                <mask id="mask-6" fill="white">
                    <use xlink:href="#path-5"></use>
                </mask>
                <g id="Clip-20"></g>
                <path d="M106.819168,25.7643974 C106.711357,27.0323444 105.86948,28.1059868 105.01056,29.0449272 C104.919793,29.1446623 104.829026,29.2400265 104.729935,29.3393642 C100.814259,32.8058543 95.8145276,34.8617483 90.8025095,36.3808212 C78.9389495,39.9641325 66.4840149,40.9078411 54.089724,41.522543 C47.1565313,40.5828079 40.2487058,39.2071788 33.3416731,38.0556556 C26.9435713,36.9867815 20.1653567,35.9612185 15.1275749,31.8669139 C11.1167713,28.6034702 8.88920764,23.4879735 4.43844036,20.8610861 C2.87121855,21.4928742 1.10105855,20.198702 0.427636727,18.6406887 C-0.155414182,17.2904901 -0.181177818,15.654596 0.591731273,14.4037351 C0.824793091,14.0230728 1.13990218,13.6896954 1.50693491,13.425457 C2.10702945,14.213404 2.91006218,14.8408212 3.84706582,15.1352583 C6.84278218,16.0741987 10.1369604,14.3993642 12.1528658,11.9886358 C12.9043713,12.9669139 14.5362004,12.841351 15.442684,12.0017483 C16.3535276,11.1665166 16.6773567,9.86797351 16.7851676,8.63459603 C16.9405422,10.2100927 18.3004658,11.5821457 19.8720476,11.7462517 C21.4436295,11.910755 23.0580185,10.8462517 23.5285022,9.33592053 C24.8107385,10.7810861 26.8785676,11.4824106 28.7739785,11.1057219 C30.6689931,10.7294305 32.3182622,9.29221192 32.9528404,7.46161589 C33.4796076,9.39631788 35.1372004,10.9761854 37.0888949,11.4089007 C39.0445531,11.8416159 41.2118695,11.1057219 42.4980695,9.56956291 C43.1239276,11.0969801 45.6325131,11.0282384 46.4268258,9.70386755 C46.3618222,10.5085033 47.3115095,11.3743311 48.1664658,11.7939338 C50.4721131,12.9192318 52.9715822,13.8712848 55.5273349,13.6765828 C58.0830876,13.4818808 60.682044,11.8547285 61.2908585,9.35737748 C61.0058731,10.9630728 62.6162985,12.3911523 64.2350476,12.5469139 C65.8494367,12.698702 67.4039749,11.9628079 68.8629895,11.2487682 C69.022724,12.4042649 70.4904585,12.7980397 71.656164,12.8111523 C74.7513676,12.841351 78.0150258,11.9886358 80.1522185,9.7424106 C82.2287676,7.56135099 82.8502658,3.86519205 81.0634585,1.47194702 C82.4875931,3.1034702 85.7774113,2.39817219 86.2827749,0.234198675 C86.1012404,1.99565563 87.7679495,3.51472848 89.5071931,3.82188079 C91.2472295,4.12943046 93.0086695,3.55366887 94.6793422,2.99101987 C94.7958731,4.26770861 96.0781095,5.21578808 97.3559858,5.30201325 C99.0999858,5.42360265 100.736175,4.25896689 101.677142,2.78360265 C101.828553,2.54519205 101.966884,2.29843709 102.091739,2.04333775 C102.100459,2.11247682 102.109179,2.18598675 102.121862,2.25512583 C102.415964,3.95181457 104.202771,5.76095364 105.622942,4.79578808 C107.825139,7.50095364 105.42912,11.9238675 107.220684,14.9143311 C107.535793,15.4380397 107.967433,15.8926093 108.187811,16.4596291 C108.969044,18.5024106 106.698277,20.4712848 106.551226,22.6571126 C106.482259,23.6957881 106.905575,24.7257219 106.819168,25.7643974" id="Fill-19" fill="#FFD529" mask="url(#mask-6)"></path>
            </g>
            <path d="M47.6282436,36.8463179 C47.6583673,35.821947 46.9857382,34.8138675 46.0293127,34.4514834 C45.0732836,34.088702 43.9032182,34.3978411 43.2496145,35.1857881 C42.1722982,34.2202252 40.6470909,33.7791656 39.2221636,34.0211523 C39.9368073,32.6928079 39.9165927,30.8991656 38.8915964,29.7937351 C37.8669964,28.6883046 35.7959964,28.6668477 34.9731455,29.9304238 C36.5708873,29.019298 37.3473636,26.8823444 36.7080291,25.1546623 C37.5614,25.9255232 38.4357782,26.709894 39.4932764,27.1589007 C40.5507745,27.6079073 41.8441091,27.6667152 42.7930036,27.0182384 C43.8711127,26.2811523 44.2306145,24.8789007 44.5092582,23.6010199 C44.0530436,26.1762517 46.6000764,28.8094967 49.1823855,28.4320132 C47.8399018,29.1400927 47.2731018,31.0203576 47.9996364,32.355457 C48.7265673,33.6901589 50.6104836,34.2297616 51.9307709,33.4811523 C51.9854691,34.7638013 52.8491455,35.9185033 53.9538109,36.5681722 C55.05808,37.2174437 56.3728182,37.4216821 57.6530727,37.4232715 C56.2368655,38.1130728 55.24992,39.6146623 55.1777818,41.1917483 C55.1718364,41.319298 52.0794073,44.3189007 51.7654873,44.8688344 C51.6533164,41.4575762 51.5205345,38.0864503 47.6282436,36.8463179" id="Fill-22" fill="#FFD529"></path>
            <path d="M89.6942767,38.4894437 C88.2186149,37.1948742 86.4195204,38.2200397 85.2573822,39.4200397 C83.6085095,41.1214967 82.9719495,43.0760662 83.3920949,45.4136821 C83.6358585,46.7698411 85.0635604,47.7763311 86.3239967,47.9456026 C87.7493204,48.1379205 89.0648513,47.4703709 89.837364,46.258053 C90.1100622,45.8309007 90.2507713,45.3509007 90.4402331,44.8852053 C90.1072876,45.7037483 90.500084,44.8812318 90.5813385,44.736596 C90.2963531,45.2467947 90.452124,44.9130199 90.7553422,44.6297086 C90.9630367,44.435404 91.1873785,44.2526225 91.4014149,44.0650728 C92.7958222,42.8408344 92.7561858,40.5441457 91.6923458,39.1637483 C90.5294149,37.655404 88.5575058,37.3351391 86.8892113,38.2021589 C84.4206585,39.4852053 82.822124,42.6985828 83.3920949,45.4136821 C85.1190513,44.0825563 86.8456113,42.7518278 88.5725676,41.4210993 C88.930484,41.6344768 89.1873276,41.923351 89.3419095,42.2881192 C89.3680695,42.6079868 89.3724295,42.5809669 89.3557822,42.207457 C89.4045349,41.787457 89.3117858,42.1363311 89.4148404,41.6710331 C89.4814295,41.3702384 89.5440549,41.0682517 89.6114367,40.7678543 C89.6360113,40.6053377 89.676044,40.4467947 89.732724,40.2922252 C89.8492549,39.9969934 89.8361749,40.010106 89.6942767,40.3311656 C90.2162876,39.9079868 90.1814076,38.9169934 89.6942767,38.4894437" id="Fill-24" fill="#FDE984"></path>
            <path d="M96.7602909,40.069947 C96.7868473,40.2269007 96.8134036,40.3838543 96.8395636,40.5408079 C96.9061527,40.9349801 97.4194436,41.0875629 97.7313818,40.9043841 C98.0722545,40.7045166 98.1233855,40.2316689 97.8546509,39.9483576 C97.7488218,39.837894 97.6437855,39.7270331 97.5383527,39.6161722 C97.3964545,39.4667682 97.1491236,39.440543 96.9743273,39.5430596 C96.7844691,39.6547152 96.7258073,39.8637219 96.7602909,40.069947" id="Fill-26" fill="#FDE984"></path>
            <path d="M18.1754131,46.1473907 C18.104464,45.6475232 17.467904,45.5458013 17.0731258,45.6836821 C16.8035985,45.7782517 16.5804458,45.9344106 16.4064422,46.1605033 C16.2728676,46.3337483 16.1297804,46.5415629 16.098864,46.7620927 C16.0572458,47.0589139 16.0429767,47.3084503 16.1630749,47.594543 C16.251464,47.8043444 16.3755258,47.9660662 16.5558713,48.1055364 C17.0148604,48.4611656 17.6419076,48.4611656 18.1008967,48.1055364 C18.5028095,47.7944106 18.6954422,47.2631523 18.5575076,46.7620927 C18.4187804,46.2566623 17.8785367,45.7714967 17.328384,45.823947 C17.3085658,45.8271258 17.289144,45.8279205 17.2693258,45.8263311 C17.3759476,45.8406358 17.4825695,45.8549404 17.5891913,45.869245 C17.5602567,45.8652715 17.5368713,45.8597086 17.5099185,45.8493775 C17.6716349,45.9435497 17.8333513,46.0381192 17.9946713,46.1322914 C17.8809149,46.0341457 18.1246785,46.325404 18.0767185,46.2483179 C18.0200385,46.1569272 18.1615404,46.4982517 18.1242822,46.3591788 C18.0894022,46.2300397 18.1373622,46.5622252 18.1381549,46.4605033 C18.1389476,46.3846093 18.0846458,46.663947 18.1278495,46.5375894 C18.1223004,46.5530861 18.0636385,46.6901722 18.0993113,46.6031523 C18.1500458,46.4787815 18.1758095,46.4020927 18.1865113,46.2721589 C18.1833404,46.311894 18.1627295,46.4152053 18.1326058,46.4756026 C18.1877004,46.3655364 18.1924567,46.2693775 18.1754131,46.1473907" id="Fill-28" fill="#FDE984"></path>
            <path d="M14.2963211,21.9311126 C13.2867829,22.3038278 12.5768956,23.0333642 12.1872702,24.0346887 C12.0215902,24.460649 11.8943575,24.9764106 11.9221029,25.4377351 C11.9173465,25.6650199 11.9335975,25.6550861 11.9708556,25.4075364 C11.932012,25.6229007 11.905852,25.8398543 11.892772,26.058 C11.901492,26.552702 12.0822338,26.9440927 12.2879465,27.3831656 C12.8674302,28.622106 14.6768302,28.6928344 15.5615138,27.8063444 C16.5551975,26.8101854 16.2281975,25.2875364 15.1393865,24.5242252 C15.0517902,24.4654172 14.9661756,24.4030331 14.8833356,24.3378675 C14.6241138,24.1964106 14.6891175,24.2774702 15.0787429,24.580649 C15.1290811,24.7260795 15.1223429,24.7038278 15.0597175,24.513894 C15.0224593,24.3307152 15.0113611,24.2993245 15.0264229,24.4201192 C14.9895611,24.1137616 15.0351429,23.8467417 15.2610702,23.5924371 C15.8643356,22.9141589 15.2943647,21.5623709 14.2963211,21.9311126" id="Fill-30" fill="#FFF2BF"></path>
            <path d="M18.819504,24.5398808 C18.1199222,25.1418675 18.1080313,26.1396159 18.4762531,26.9188212 C18.8056313,27.6145828 19.8199258,27.657894 20.3197404,27.1572318 C20.8155913,26.6601457 20.781504,25.6286225 20.0823185,25.3091523 C19.9955149,25.2694172 19.7957476,25.100543 20.0232604,25.2984238 C19.9503295,25.2201457 19.9590495,25.2380265 20.049024,25.3512715 C20.0292058,25.3238543 20.0109731,25.2956424 19.9947222,25.2658411 C19.9630131,25.2074305 19.9693549,25.2292848 20.014144,25.3318013 C19.9982895,25.2900795 19.9852095,25.2471656 19.974904,25.203457 C19.9832276,25.3095497 19.9840204,25.3151126 19.9776785,25.219351 C19.9816422,25.1343179 19.9788676,25.1315364 19.9693549,25.2110066 C20.0803367,24.5295497 19.3641076,24.0710066 18.819504,24.5398808" id="Fill-32" fill="#FFF2BF"></path>
            <path d="M11.7974069,34.9689934 C11.8310978,35.3293907 11.8647887,35.6901854 11.8984796,36.0509801 C11.938116,36.4737616 12.0459269,36.8456821 12.3550905,37.1552185 C12.6250142,37.4266093 13.0685451,37.6304503 13.4569815,37.6129669 C13.8596869,37.5946887 14.2778505,37.4619735 14.558476,37.1552185 C14.8525778,36.8341589 14.9746578,36.4844901 15.0150869,36.0509801 C15.0487778,35.6901854 15.0824687,35.3293907 15.1161596,34.9689934 C15.1538142,34.5680662 14.9041051,34.0670066 14.6302178,33.7928344 C14.3424578,33.5039603 13.8699924,33.2870066 13.4569815,33.3052848 C13.0277196,33.324755 12.5826033,33.4658146 12.2833487,33.7928344 C12.0019305,34.0999868 11.7565815,34.5354834 11.7974069,34.9689934" id="Fill-34" fill="#FFF2BF"></path>
            <path d="M50.9059727,13.2817351 C49.9983,14.7173642 50.2270018,16.488755 50.8837764,17.9712715 C51.3911218,19.1168344 53.0772527,19.1533907 53.8711691,18.3570993 C54.6963982,17.5306093 54.5933436,15.919351 53.4863,15.3622649 C53.3872091,15.3169669 53.2920818,15.2645166 53.2005218,15.2045166 C53.2314382,15.2291523 53.2627509,15.2537881 53.2936673,15.2788212 C53.3776964,15.431404 53.2893073,15.1604106 53.2897036,15.1612053 C53.2734527,15.079351 53.2849473,14.7694172 53.3174491,14.6947152 C53.6178927,14.0021325 53.52118,13.1927285 52.8164455,12.7794834 C52.1438164,12.3853113 51.31066,12.6416026 50.9059727,13.2817351" id="Fill-36" fill="#FFF2BF"></path>
            <path d="M59.0024135,20.1806623 C61.1304898,20.1806623 61.1340571,16.8651656 59.0024135,16.8651656 C56.8747335,16.8651656 56.8711662,20.1806623 59.0024135,20.1806623" id="Fill-38" fill="#FFF2BF"></path>
            <path d="M62.9977589,5.43870199 C62.8098825,5.54598675 62.6224025,5.65327152 62.4341298,5.76015894 C62.1685662,5.91154967 61.9390716,6.11141722 61.7020462,6.3037351 C61.337788,6.59936424 61.2355262,7.19658278 61.3536425,7.62611921 C61.4662098,8.03658278 61.7539698,8.34413245 62.1384425,8.50704636 C63.0334316,8.88572185 63.9902535,8.22611921 64.0168098,7.26492715 C64.0290971,6.8234702 63.966868,6.40188079 63.9113771,5.96439735 C63.8543007,5.52015894 63.4361371,5.18876821 62.9977589,5.43870199" id="Fill-40" fill="#FFF2BF"></path>
            <path d="M73.7963691,33.9660795 C71.0012127,34.5819735 69.8549291,38.3711126 71.4760564,40.6026358 C72.3543982,41.8121722 73.8835691,42.2981325 75.1626345,41.3083311 C76.3350782,40.4015762 76.48966,38.6242252 75.4167036,37.5541589 C75.2185218,37.3562781 75.3283145,37.4198543 75.4163073,37.5958808 C75.3437727,37.4504503 75.2589509,37.3014437 75.1753182,37.1615762 C75.1507436,37.1198543 74.9648491,36.7622384 75.0686964,37.0026358 C75.1796782,37.2601192 75.0096382,36.7356159 75.0064673,36.7185298 C75.0825691,37.1341589 75.0750382,36.318 75.0258891,36.5854172 C75.0762273,36.3128344 75.1602564,36.1010464 75.28194,35.9031656 C75.9137436,34.8764106 74.8740818,33.7284636 73.7963691,33.9660795" id="Fill-42" fill="#FFF2BF"></path>
            <path d="M31.6786502,31.124702 C30.7123156,31.3801987 29.9980684,32.0052318 29.3234575,32.708543 C28.3055956,33.7702649 28.7443702,35.5988742 30.1899084,35.9978146 C31.619592,36.3923841 33.0199447,35.0239073 32.6041593,33.5771523 C32.5883047,33.5219205 32.578792,33.4619205 32.5593702,33.4078808 C32.526472,33.2175497 32.5229047,33.299404 32.5486684,33.6530464 C32.5284538,33.9947682 32.5340029,34.0877483 32.565712,33.9323841 C32.5887011,33.8727815 32.5982138,33.8044371 32.6172393,33.7428477 C32.6707484,33.5719868 32.7559665,33.5942384 32.5823593,33.8008609 C32.6592538,33.7094702 32.7119702,33.5616556 32.7757847,33.4571523 C32.905792,33.2433775 32.6445884,33.5811258 32.7666684,33.4706623 C32.8265193,33.4166225 32.8804247,33.3510596 32.9386902,33.2946358 C33.8895665,32.3843046 32.9049993,30.8004636 31.6786502,31.124702" id="Fill-44" fill="#FFF2BF"></path>
            <path d="M32.4522331,23.4566623 C34.3413022,23.4566623 34.3440767,20.5138808 32.4522331,20.5138808 C30.563164,20.5138808 30.5603895,23.4566623 32.4522331,23.4566623" id="Fill-46" fill="#FFF2BF"></path>
            <path d="M78.6634371,31.4845828 C78.4256189,31.9029934 78.2024662,32.3353113 77.9424516,32.7402119 C78.1176444,32.6047152 78.2928371,32.4696159 78.4684262,32.3345166 C77.2266189,32.538755 77.2056116,34.3951788 78.4858662,34.5676291 C79.1073644,34.6514702 79.6658407,34.2259073 79.7494735,33.6028609 C79.8228007,33.057298 79.5453462,32.7298808 79.1470007,32.4235232 C79.2920698,32.6774305 79.4375353,32.9313377 79.5826044,33.185245 C79.5417789,32.6996821 79.5457425,32.2069669 79.5306807,31.7198146 C79.516808,31.2680265 78.8980844,31.0713377 78.6634371,31.4845828" id="Fill-48" fill="#FFF2BF"></path>
            <path d="M65.91012,28.7564901 C66.2684327,28.7564901 66.2692255,28.1978146 65.91012,28.1978146 C65.5514109,28.1978146 65.5510145,28.7564901 65.91012,28.7564901" id="Fill-50" fill="#FFF2BF"></path>
            <path d="M63.49904,27.3576159 C62.4300473,27.1152318 61.4304182,27.5201325 60.5663455,28.1380132 C59.5013164,28.8993377 58.5028764,29.8509934 58.1136473,31.1447682 C57.5817273,32.9117881 58.2916145,34.8687417 59.8897527,35.8259603 C60.7879127,36.3643709 61.9552036,36.5503311 62.9726691,36.2531126 C64.0856582,35.9276821 64.7539273,35.2796026 65.4483564,34.3676821 C65.9786909,33.6715232 66.0333891,32.369404 65.8138036,31.5695364 C65.5823273,30.7271523 64.9322909,29.8144371 64.1490764,29.3996026 C62.5021855,28.5274172 60.1033927,28.8909934 59.1929455,30.7021192 C60.0407673,30.2153642 60.8889855,29.7282119 61.7376,29.241457 C61.6900364,29.2474172 61.6420764,29.2533775 61.5945127,29.2597351 C63.5430364,31.4634437 64.36668,32.0264901 64.0666327,30.9476821 C64.0277891,30.7875497 64.0305636,30.8161589 64.0741636,31.0331126 C64.1712727,31.4296689 64.1169709,31.0350993 64.1141964,30.915894 C64.1074582,30.6087417 63.9631818,31.4686093 64.1498691,30.9 C64.2081345,30.7223841 64.2243855,30.6508609 64.1359964,30.8638411 C64.1902982,30.7331126 64.26204,30.6087417 64.3238727,30.4815894 C64.5739782,29.9666225 64.6901127,29.5784106 64.7618545,29.0205298 C64.8530182,28.3100662 64.1653273,27.5086093 63.49904,27.3576159" id="Fill-52" fill="#FFF2BF"></path>
            <path d="M69.4979244,24.1450331 C69.4424335,24.3377483 69.3968516,24.5376159 69.3199571,24.7231788 C69.3770335,24.5876821 69.4341098,24.4517881 69.4907898,24.3166887 C69.3865462,24.5113907 69.2815098,24.7060927 69.1764735,24.9007947 C68.5323825,26.0984106 69.2157135,27.5825166 70.5807898,27.7664901 C71.180488,27.8471523 71.7611607,27.6723179 72.196368,27.2364238 C72.4341862,26.9960265 72.5990735,26.7123179 72.6906335,26.3860927 C72.7817971,26.0443709 72.7817971,25.7030464 72.6906335,25.3613245 C72.6581316,25.1487417 72.6256298,24.9357616 72.593128,24.7231788 L72.6533753,25.1753642 C72.6426735,24.9766887 72.6660589,24.7748344 72.6779498,24.5765563 C72.7263062,23.7715232 72.0247425,23.0837086 71.2740298,22.9823841 C70.4805098,22.8754967 69.7226625,23.3622517 69.4979244,24.1450331" id="Fill-54" fill="#FFF2BF"></path>
            <path d="M52.5994364,23.6105166 C51.8023491,23.9168742 51.0068473,24.1819073 50.18796,24.4223046 C49.1617745,24.723894 48.7455927,25.9628344 49.3999891,26.8115762 C50.0325855,27.6329007 51.3798255,27.6023046 51.9018364,26.657404 C52.3219818,25.8980662 52.7599636,25.1677351 53.2391673,24.4449536 C53.4995782,24.0515762 53.0608036,23.4329007 52.5994364,23.6105166" id="Fill-56" fill="#FFF2BF"></path>
            <path d="M49.5047876,29.8482517 C50.9871876,29.8482517 50.9895658,27.5388477 49.5047876,27.5388477 C48.0223876,27.5388477 48.0200095,29.8482517 49.5047876,29.8482517" id="Fill-58" fill="#FFF2BF"></path>
            <path d="M42.0313513,29.625298 C41.8367367,29.8839735 41.6425185,30.142649 41.447904,30.4013245 C41.2398131,30.6782781 41.2421913,31.0950993 41.3151222,31.4177483 C41.4054931,31.8139073 41.7166385,32.1194702 42.0769331,32.272053 C42.7939549,32.5752318 43.6421731,32.1850331 43.8522458,31.4177483 C43.9354822,31.1117881 44.0191149,30.8062252 44.1027476,30.5006623 C44.2525731,29.9523179 43.9608495,29.3777483 43.4463695,29.1603974 C43.2212349,29.0650331 42.947744,29.0256954 42.7083404,29.1031788 C42.4098785,29.2001325 42.2188313,29.3757616 42.0313513,29.625298" id="Fill-60" fill="#FFF2BF"></path>
            <path d="M18.6542204,34.1205298 C17.4770204,35.0976159 16.9550095,36.518543 16.8016167,37.9978808 C16.6442604,39.5117881 18.2852058,40.6287417 19.6213476,40.4487417 C21.173904,40.2397351 21.9773331,38.8108609 21.6907622,37.334702 C21.6420095,37.0708609 21.6499367,37.1392053 21.714544,37.538543 C21.7078058,37.4376159 21.705824,37.3362914 21.7089949,37.2349669 C21.6780785,36.7915232 21.5742313,37.7217219 21.7010676,37.2540397 C21.7244531,37.1682119 21.8362276,36.9047682 21.8302822,36.8201325 C21.7026531,37.1117881 21.692744,37.1495364 21.8001585,36.9333775 C21.8493076,36.8451656 21.902024,36.7601325 21.9594967,36.6774834 C22.5377913,35.7989404 22.2036567,34.5643709 21.4176676,33.9556291 C20.5405149,33.2761589 19.473504,33.4406623 18.6542204,34.1205298" id="Fill-62" fill="#FFF2BF"></path>
            <path d="M69.3086211,13.0073642 C68.1100175,14.096106 67.0378538,15.5623311 67.4928793,17.2757086 C67.7263375,18.1542517 68.2887775,18.882596 69.0965665,19.301404 C70.1528756,19.849351 71.1588465,19.7551788 72.2127775,19.2775629 C73.3063447,18.7816689 73.654352,17.1064371 73.0328538,16.1408742 C72.3978793,15.1526623 70.9650247,14.6007417 69.9043556,15.3183576 C69.3918575,15.6656424 70.9983193,14.9607417 70.9412429,15.3068344 C70.9436211,15.2929272 70.6499156,15.1339868 70.6447629,15.1395497 C70.6816247,15.0994172 70.911912,15.4411391 70.8877338,15.4323974 C70.7042175,15.3648477 71.0680793,14.2896159 71.1350647,14.073457 C71.474352,12.9775629 70.0799447,12.3072318 69.3086211,13.0073642" id="Fill-64" fill="#FFF2BF"></path>
            <path d="M76.1636905,20.3283179 C76.2160105,20.6942781 76.2687269,21.0602384 76.3206505,21.426596 C76.3860505,21.8791788 76.8490033,22.3830199 77.2231705,22.6023576 C77.6437124,22.8491126 78.2640215,22.9536159 78.7356942,22.8010331 C79.7610869,22.468053 80.3817924,21.4484503 80.106716,20.3799735 C80.015156,20.0247417 79.923596,19.6695099 79.8324324,19.3142781 C79.7139196,18.854543 79.3643269,18.4130861 78.9580542,18.1746755 C78.550196,17.9354702 77.9493087,17.8341457 77.4923015,17.9823576 C77.0317269,18.1317616 76.5877996,18.417457 76.3551342,18.8589139 C76.2913196,19.010702 76.2275051,19.1624901 76.1636905,19.3142781 C76.0729233,19.6524238 76.0729233,19.9901722 76.1636905,20.3283179" id="Fill-66" fill="#FFF2BF"></path>
            <path d="M88.3592447,31.9519868 C90.3196593,31.9519868 90.3228302,28.8975497 88.3592447,28.8975497 C86.3984338,28.8975497 86.3952629,31.9519868 88.3592447,31.9519868" id="Fill-68" fill="#FFF2BF"></path>
            <path d="M25.3792429,24.8978543 C24.5670938,25.9695099 24.307872,27.569245 24.7922284,28.8264636 C25.1909702,29.862755 26.2385593,30.6928212 27.4058502,30.3141457 C28.4122175,29.9879205 29.3183047,28.8069934 28.8898356,27.6940132 C28.8184902,27.5076556 28.7796465,27.3252715 28.7301011,27.133351 C28.6250647,26.7264636 28.7205884,27.5728212 28.7277229,27.1170596 C28.7241556,27.0443444 28.724552,26.9716291 28.7293084,26.8989139 C28.7388211,26.7419603 28.7281193,26.8019603 28.6975993,27.0797086 C28.6361629,26.9942781 28.9853593,26.3410331 28.7340647,26.863947 C29.1744247,25.9476556 29.0150865,24.7170596 28.0372575,24.1993113 C27.0122611,23.6565298 26.0379993,24.0284503 25.3792429,24.8978543" id="Fill-70" fill="#FFD529"></path>
            <path d="M25.1131244,39.5301854 C26.5237825,39.5301854 26.5261607,37.3324371 25.1131244,37.3324371 C23.7024662,37.3324371 23.700088,39.5301854 25.1131244,39.5301854" id="Fill-72" fill="#FFD529"></path>
            <path d="M13.4020058,35.5630728 C13.234344,35.7462517 13.0321985,35.9282384 12.9006058,36.1396291 C12.7543476,36.3740662 12.7273949,36.6514172 12.676264,36.917245 C12.5989731,37.3181722 12.7559331,37.7099603 13.1451622,37.8744636 C13.5232931,38.034596 13.9359076,37.8859868 14.1554931,37.5422781 C14.3001658,37.3165828 14.4721876,37.0956556 14.5348131,36.8302252 C14.5934749,36.5818808 14.5720713,36.3049272 14.5764313,36.0510199 C14.5871331,35.468106 13.8066931,35.1208212 13.4020058,35.5630728" id="Fill-74" fill="#FFD529"></path>
            <path d="M50.5529713,19.6030728 L49.8189058,20.634596 C49.6254804,20.9063841 49.5973385,21.3720795 49.6825567,21.6816159 C49.768964,21.9971126 50.0123313,22.3388344 50.3056404,22.4941987 C50.9176258,22.8184371 51.8252985,22.6869139 52.1610185,22.006649 C52.3469131,21.6287682 52.533204,21.2504901 52.7198913,20.8726093 C53.0100295,20.2837351 52.8970658,19.4842649 52.2696222,19.1516821 C51.6227567,18.8091656 50.9608295,19.029298 50.5529713,19.6030728" id="Fill-76" fill="#FFD529"></path>
            <path d="M56.0463335,28.3536954 C55.8762935,28.7792583 55.7066498,29.2048212 55.5366098,29.6303841 C55.4141335,29.9367417 55.5144135,30.4060132 55.6733553,30.6778013 C55.8378462,30.9599205 56.1604862,31.2285298 56.4839189,31.3024371 C57.1961844,31.465351 57.954428,31.0878675 58.1518171,30.3531656 C58.2691407,29.913298 58.3872571,29.4730331 58.5049771,29.0331656 C58.678188,28.3882649 58.2889589,27.6150199 57.6147444,27.4608477 C56.8779044,27.2927682 56.3122935,27.6873377 56.0463335,28.3536954" id="Fill-78" fill="#FFD529"></path>
            <path d="M65.4781629,14.7378278 C67.0085229,14.7378278 67.0109011,12.3537219 65.4781629,12.3537219 C63.9481993,12.3537219 63.9454247,14.7378278 65.4781629,14.7378278" id="Fill-80" fill="#FFD529"></path>
            <path d="M67.8528567,27.5308609 C69.6939658,27.5308609 69.6967404,24.6623841 67.8528567,24.6623841 C66.0113513,24.6623841 66.0085767,27.5308609 67.8528567,27.5308609" id="Fill-82" fill="#FFD529"></path>
            <path d="M66.6858036,37.7820795 C66.6675709,38.0705563 66.6497345,38.3590331 66.6315018,38.6475099 C66.5942436,39.249894 67.1023818,39.9031391 67.6862255,40.036649 C67.9391055,40.0942649 68.1975345,40.0942649 68.4504145,40.036649 C68.7587855,39.9663179 69.1745709,39.6706887 69.3089382,39.3746623 C69.4278473,39.1136026 69.54636,38.8521457 69.6648727,38.5910861 C69.8999164,38.0729404 69.9946473,37.4856556 69.6648727,36.9730728 C69.4389455,36.6218146 69.11908,36.3496291 68.70924,36.2367815 C68.3097055,36.1263179 67.8352582,36.1883046 67.4773418,36.398106 C66.9680145,36.6973113 66.7214764,37.2079073 66.6858036,37.7820795" id="Fill-84" fill="#FFD529"></path>
            <path d="M24.0374331,86.3252185 C22.9926185,76.5118411 21.5478731,66.752106 19.0912113,56.8028344 C18.9512949,55.9592583 19.0670331,55.2428344 19.0872476,54.4207152 C17.8272076,51.7842914 15.3198113,49.7788609 12.4727313,49.1434967 C9.58363673,48.4989934 6.413124,49.278596 4.14949127,51.1902517 C2.98814582,52.1709139 2.03608036,53.4964768 1.84622218,55.0064106 C1.73405127,55.900053 1.89220036,56.8028344 2.04955673,57.6893245 C2.68175673,60.8578013 3.22200036,64.0493245 3.76581127,67.2380662 C8.54437127,75.1938278 15.9115822,81.3356821 24.0374331,86.3252185" id="Fill-86" fill="#DD593B"></path>
            <path d="M19.0914095,56.8029139 C21.5480713,66.7521854 22.9924204,76.5119205 24.0376313,86.325298 C27.4340713,88.4109934 30.9613113,90.2976159 34.4877585,92.0292715 C36.5654967,93.0500662 38.6674131,94.034702 40.7883549,94.9827815 C40.1403004,81.4418543 39.6876531,67.8762914 38.7125985,54.3107285 C37.0118022,50.1989404 33.0798749,46.9160265 28.6493222,46.6994702 C24.1165076,46.4781457 19.5000604,49.9998675 19.1445222,54.5356291 C19.1266858,54.4966887 19.1056785,54.4593377 19.0874458,54.4207947 C19.0668349,55.2429139 18.9510967,55.9589404 19.0914095,56.8029139" id="Fill-88" fill="#FFFFFF"></path>
            <path d="M61.6178585,62.9370199 C62.2984149,76.2911921 62.0546513,89.5833775 62.295244,102.852914 C69.3968913,104.846821 76.630924,106.24351 83.9220331,106.863377 C85.2225022,89.2245695 86.6597167,71.61 87.1238585,53.931457 C86.0679458,50.4272185 83.8621822,47.2798013 80.9235422,45.105894 C79.3586985,43.9488079 77.5584149,43.0515894 75.6297095,42.8028477 C72.2332695,42.3645695 68.8138404,44.0199338 66.4305058,46.4843046 C64.1074185,48.885894 62.6373058,51.9780795 61.4636731,55.1135762 C61.4640695,55.1143709 61.4644658,55.1151656 61.4644658,55.1159603 C61.6261822,58.0436424 61.4775458,59.9878808 61.6178585,62.9370199" id="Fill-90" fill="#FFFFFF"></path>
            <path d="M108.451472,50.5093113 C107.575112,46.7114305 104.809287,43.0776556 100.97764,42.4120927 C97.7591669,41.8530199 94.4760869,43.4984503 92.2306869,45.8761987 C89.9852869,48.2543444 88.5857269,51.2889139 87.2246142,54.2654702 C87.1933015,54.1534172 87.1572324,54.0429536 87.1235415,53.931298 C86.659796,71.6102384 85.2225815,89.2248079 83.9221124,106.863219 C89.1901815,107.310636 94.4879778,107.355536 99.787756,106.915669 C100.548378,106.85249 101.324854,106.769841 102.064865,106.586662 C103.264261,97.6442781 104.139036,88.6287815 105.354287,79.6899735 C106.037221,74.6654702 106.720156,69.6385828 107.642098,64.6514305 C108.487938,60.0783179 109.520069,55.1404371 108.451472,50.5093113" id="Fill-92" fill="#DD593B"></path>
            <path d="M62.295244,102.852954 C62.0546513,89.5830199 62.2984149,76.2912318 61.6178585,62.9370596 C61.4775458,59.9879205 61.2107931,57.1659338 61.0486804,54.2382517 C61.1600585,54.613351 61.266284,54.9876556 61.3701313,55.3591788 C61.4002549,55.2773245 61.4331531,55.1954702 61.4636731,55.1136159 C60.503284,51.8684503 58.7818767,47.6994437 56.0132767,45.8469934 C52.9485931,43.7962649 48.6983858,44.1308344 45.5413495,46.0353377 C42.3839167,47.9402384 40.211844,51.1730861 38.8281385,54.5970596 C38.7916731,54.5009007 38.7520367,54.4059338 38.7124004,54.3105695 C39.6878513,67.8765298 40.1401022,81.4416954 40.7885531,94.9826225 C47.7617785,98.098649 54.957364,100.792689 62.295244,102.852954" id="Fill-94" fill="#DD593B"></path>
            <path d="M61.0488785,54.2383709 C61.2105949,57.1656556 61.477744,59.9876424 61.6180567,62.9371788 C61.477744,59.9876424 61.6263804,58.0438013 61.464664,55.1161192 C61.464664,55.1153245 61.4642676,55.1145298 61.4638713,55.1137351 C61.4333513,55.1955894 61.4004531,55.2770464 61.3703295,55.359298 C61.2664822,54.9877748 61.1598604,54.6130728 61.0488785,54.2383709" id="Fill-96" fill="#DD593B"></path>
            <g id="Group-100" transform="translate(3.567273, 66.884106)">
                <mask id="mask-8" fill="white">
                    <use xlink:href="#path-7"></use>
                </mask>
                <g id="Clip-99"></g>
                <path d="M1.95835345,10.3676424 C2.31547709,12.3778411 2.67260073,14.387245 3.02972436,16.3974437 C3.692048,20.1226093 4.41461891,23.8040662 5.28305164,27.451351 C6.29417527,31.6994305 7.26368073,35.956649 8.239528,40.2126755 C8.74608073,42.4227417 9.25421891,44.6324106 9.77068073,46.8400927 C10.0540807,48.0516159 10.2268953,51.4986358 11.2241462,52.276649 C12.2578625,53.0828742 14.7601062,52.7852583 15.9951753,52.8122781 C18.5525135,52.8690993 21.1098516,52.854 23.6671898,52.7932053 C22.9216298,47.1702914 22.3643425,41.5477748 21.9489535,35.9244636 C21.511368,30.3853907 21.0519825,24.9051258 20.4701207,19.4411523 C12.3442698,14.4516159 4.97705891,8.30976159 0.198498909,0.354 C0.439488,1.76698013 0.681269818,3.17956291 0.931771636,4.58936424 C0.931771636,6.44181457 1.63373164,8.53903311 1.95835345,10.3676424" id="Fill-98" fill="#CC3922" mask="url(#mask-8)"></path>
            </g>
            <path d="M34.4876396,92.0293907 C30.9611924,90.2977351 27.4339524,88.4111126 24.0375124,86.3254172 C24.6193742,91.7893907 25.0787596,97.2696556 25.5163451,102.808728 C25.9317342,108.431642 26.4890215,114.054556 27.2341851,119.67747 C32.137996,119.561444 37.0398251,119.276146 41.9372942,118.989656 C42.0558069,118.982901 42.1739233,118.975748 42.2920396,118.968993 C41.6229778,110.985417 41.171916,102.988331 40.788236,94.9829007 C38.6672942,94.0348212 36.5653778,93.0497881 34.4876396,92.0293907" id="Fill-101" fill="#E9E9EA"></path>
            <path d="M62.8433356,117.767205 C69.6381975,117.369854 76.4322665,116.972106 83.226732,116.575152 C83.449092,113.336742 83.6837393,110.099523 83.9223502,106.863497 C76.6308447,106.243629 69.396812,104.846543 62.2951647,102.853033 C62.3855356,107.826675 62.5417029,112.797536 62.8433356,117.767205" id="Fill-103" fill="#E9E9EA"></path>
            <path d="M83.9222313,106.863298 C83.6836204,110.099722 83.4493695,113.336543 83.2266131,116.574954 C83.6158422,116.552305 84.0042785,116.529258 84.3931113,116.507007 C87.3900167,116.331377 90.3873185,116.156146 93.384224,115.980914 C95.7917367,115.840252 98.3748385,116.320252 100.320984,114.726874 C100.519562,114.564755 100.714573,114.390318 100.843788,114.169391 C100.994009,113.912702 101.045537,113.61151 101.091911,113.317868 C101.44626,111.080781 101.763351,108.835748 102.064588,106.586742 C101.324577,106.769921 100.5481,106.85257 99.7874785,106.915748 C94.4877004,107.355616 89.1903004,107.310715 83.9222313,106.863298" id="Fill-105" fill="#CC3922"></path>
            <path d="M40.7884342,94.9827417 C41.1717178,102.988172 41.623176,110.985258 42.2922378,118.968834 C47.8516342,118.643801 53.4110305,118.318768 58.9708233,117.993338 C60.2613833,117.918238 61.5523396,117.842344 62.843296,117.767245 C62.5416633,112.797576 62.385496,107.826715 62.2951251,102.853073 C54.9576415,100.792808 47.7616596,98.0987682 40.7884342,94.9827417" id="Fill-107" fill="#CC3922"></path>
            <path d="M101.393187,49.401298 C98.7193182,48.7941457 96.9503473,52.1156026 98.26786,54.2803709 C99.1759291,55.7724238 101.150613,56.2154702 102.6235,55.2952053 C104.109864,54.366596 104.883565,52.1525563 103.782864,50.6259338 C103.332198,50.0005033 102.836744,49.5681854 102.101885,49.3301722 C101.254856,49.0552053 100.329347,49.3083179 99.64998,49.8348079 C99.0399764,50.3072583 98.6939509,50.909245 98.5916891,51.674543 C98.4846709,52.4720265 98.6844382,53.510702 99.3653909,54.0431523 C99.8921582,54.4782517 99.6987327,53.9676556 98.7851145,52.5113642 C98.77362,52.2467285 98.8271291,51.9999735 98.9468309,51.7710993 C99.0189691,51.545404 99.1446164,51.351894 99.3241691,51.1897748 C99.1866309,51.3137483 99.2207182,51.2946755 99.4268273,51.1321589 C99.9793582,50.7276556 100.756231,50.5989139 101.361478,50.9537483 C101.456605,51.0272583 101.552129,51.1011656 101.648049,51.1750728 C101.861689,51.4826225 101.907271,51.5394437 101.784795,51.3459338 C101.899344,51.6542781 101.933035,51.7309669 101.887056,51.5752053 C101.847024,51.4218278 101.854555,51.501298 101.910838,51.8140132 C101.915595,51.6161325 101.908856,51.6582517 101.890227,51.9407682 C101.904893,51.8950728 101.919558,51.8497748 101.933827,51.8040795 C101.854555,51.9999735 101.861689,52.0091126 101.955231,51.8322914 C101.982184,51.7925563 102.009136,51.7528212 102.036089,51.7126887 C102.160547,51.4806358 102.227929,51.246596 102.297689,50.998649 C102.481602,50.346596 102.073744,49.5558675 101.393187,49.401298" id="Fill-109" fill="#EA705D"></path>
            <path d="M100.451427,62.254053 C100.327762,62.7443841 100.2037,63.2355099 100.080035,63.7258411 C99.8291364,64.7204106 100.472831,65.7149801 101.493071,65.8524636 C102.522427,65.9911391 103.382536,65.2091523 103.418605,64.1788212 C103.436442,63.6737881 103.454278,63.1691523 103.472115,62.6637219 C103.499067,61.8972318 102.866075,61.2479603 102.138747,61.1498146 C101.4027,61.0504768 100.640096,61.5054437 100.451427,62.254053" id="Fill-111" fill="#EA705D"></path>
            <path d="M54.4693611,55.309947 L54.4693611,56.1757748 C54.4693611,56.6748477 54.686172,57.199351 55.0389356,57.5529934 C55.3754484,57.8907417 55.9283756,58.144649 56.4119393,58.1231921 C56.9145284,58.100543 57.4357465,57.935245 57.7857356,57.5529934 C58.134932,57.1719338 58.3549138,56.7030596 58.3549138,56.1757748 L58.3549138,55.309947 C58.3549138,54.8104768 58.1384993,54.2859735 57.7857356,53.9327285 C57.4492229,53.5949801 56.8962956,53.3406755 56.4119393,53.3625298 C55.9097465,53.3851788 55.3885284,53.5504768 55.0389356,53.9327285 C54.6897393,54.3137881 54.4693611,54.7822649 54.4693611,55.309947" id="Fill-113" fill="#EA705D"></path>
        </g>
    </g>
</svg>