<?xml version="1.0" encoding="UTF-8"?>
<svg width="120px" height="120px" viewBox="0 0 120 120" version="1.1" xmlns="http://www.w3.org/2000/svg" xmlns:xlink="http://www.w3.org/1999/xlink">
    <!-- Generator: Sketch 51.1 (57501) - http://www.bohemiancoding.com/sketch -->
    <title>Tree63</title>
    <desc>Created with Sketch.</desc>
    <defs>
        <polygon id="path-1" points="0 0.136875 56.1353353 0.136875 56.1353353 94.2205123 0 94.2205123"></polygon>
    </defs>
    <g id="Tree63" stroke="none" stroke-width="1" fill="none" fill-rule="evenodd">
        <g id="Group" transform="translate(32.000000, 0.000000)">
            <path d="M26.43775,110.99525 C30.53775,111.679625 43.72525,109.09775 45.203375,112.70525 C48.7065,121.254 31.5215,119.763375 28.104625,119.763375 C22.637125,119.763375 11.52275,120.6765 9.844,116.3715 C6.599625,108.0465 23.02025,110.99525 26.43775,110.99525" id="Fill-1" fill="#E7E5E3"></path>
            <g id="Group-5" transform="translate(0.000000, 0.488125)">
                <mask id="mask-2" fill="white">
                    <use xlink:href="#path-1"></use>
                </mask>
                <g id="Clip-4"></g>
                <path d="M26.1698125,93.831375 C18.0298125,94.527 8.3385625,95.17075 3.0273125,87.4245 C-3.0858125,78.510125 1.6323125,66.963875 3.5585625,57.567625 C6.0954375,45.17825 8.6479375,32.788875 11.3479375,20.43325 C13.2166875,11.881375 16.0066875,0.02075 26.9529375,0.137625 C50.0373125,0.37825 51.2666875,37.9195 54.1404375,54.090125 C55.8741875,63.848875 58.7360625,77.323875 51.1091875,85.277 C48.0448125,88.473875 43.9335625,90.487 39.8348125,91.932625 C35.8591875,93.336375 31.4579375,93.253875 26.1698125,93.831375 C26.1698125,93.831375 26.1698125,93.828875 26.1698125,93.831375" id="Fill-3" fill="#50A09D" mask="url(#mask-2)"></path>
            </g>
            <path d="M24.8838125,38.272125 C24.8525625,38.008375 24.8475625,37.729 24.7931875,37.478375 C24.7600625,37.223375 24.6906875,36.974625 24.6250625,36.72775 C24.5438125,36.4865 24.4650625,36.24525 24.3456875,36.025875 C24.2450625,35.798375 24.1094375,35.59025 23.9650625,35.39525 C23.6713125,35.009 23.3163125,34.679 22.9056875,34.445875 C22.7006875,34.33025 22.4875625,34.23275 22.2669375,34.159 C22.0475625,34.084 21.8206875,34.028375 21.5931875,34.009625 C21.1413125,33.963375 20.6813125,34.009 20.3056875,34.179625 C20.1100625,34.253375 19.9588125,34.38025 19.8181875,34.50525 C19.6994375,34.649625 19.5838125,34.793375 19.5244375,34.974 C19.4506875,35.147125 19.4288125,35.34775 19.4188125,35.554625 C19.4306875,35.6615 19.4288125,35.768375 19.4363125,35.87775 L19.4931875,36.212125 C19.5569375,36.4365 19.6200625,36.663375 19.7125625,36.8915 C19.7856875,37.123375 19.9150625,37.34275 20.0156875,37.570875 L19.1856875,37.804625 C19.1888125,37.59275 19.1931875,37.378375 19.1550625,37.177125 C19.1213125,36.974 19.0550625,36.78525 18.9625625,36.609 C18.9138125,36.52275 18.8506875,36.447125 18.7938125,36.364625 C18.7188125,36.299625 18.6569375,36.2165 18.5706875,36.159625 C18.4069375,36.039 18.2200625,35.93025 18.0081875,35.87025 C17.8019375,35.794625 17.5750625,35.770875 17.3481875,35.759 C17.1206875,35.75025 16.8894375,35.7665 16.6600625,35.802125 C16.2044375,35.888375 15.7550625,36.04525 15.3519375,36.2815 C15.1513125,36.402125 14.9619375,36.53775 14.7856875,36.68775 C14.6100625,36.839625 14.4550625,37.01025 14.3206875,37.193375 C14.1925625,37.3815 14.0844375,37.579 14.0094375,37.7865 C13.9419375,37.997125 13.9031875,38.21275 13.9081875,38.42775 C13.9119375,38.85775 14.0675625,39.272125 14.3056875,39.639625 C14.4331875,39.8215 14.5681875,39.995875 14.7306875,40.154625 C14.8744375,40.324 15.0681875,40.459625 15.2319375,40.61275 C15.4038125,40.774 15.4125625,41.044625 15.2506875,41.2165 C15.1306875,41.34525 14.9488125,41.38275 14.7925625,41.325875 L14.7550625,41.3115 C14.5544375,41.238375 14.3563125,41.158375 14.1556875,41.1165 C13.9581875,41.065875 13.7581875,41.0315 13.5675625,41.03275 C13.3750625,41.022125 13.1906875,41.050875 13.0169375,41.093375 C12.8400625,41.133375 12.6813125,41.213375 12.5269375,41.299625 C11.9238125,41.685875 11.5338125,42.449 11.3931875,43.25525 C11.2431875,44.067125 11.3338125,44.9265 11.5838125,45.697125 C11.7125625,46.08275 11.8944375,46.444625 12.1269375,46.759625 C12.2406875,46.919 12.3663125,47.06775 12.5019375,47.20525 C12.6400625,47.3415 12.7913125,47.46025 12.9488125,47.57275 C13.2400625,47.7815 13.3069375,48.187125 13.0981875,48.47775 C12.9188125,48.727125 12.5963125,48.8115 12.3244375,48.70025 L12.3206875,48.698375 C12.1463125,48.6265 11.9756875,48.525875 11.7981875,48.474625 C11.6225625,48.403375 11.4456875,48.364 11.2706875,48.319 C11.0950625,48.28775 10.9188125,48.255875 10.7488125,48.259 C10.5769375,48.254 10.4075625,48.269 10.2475625,48.309625 C10.0844375,48.342125 9.9313125,48.404 9.7863125,48.48275 C9.6381875,48.557125 9.5050625,48.659 9.3775625,48.7715 C9.2550625,48.89025 9.1431875,49.024 9.0488125,49.174 C8.9569375,49.32525 8.8756875,49.485875 8.8169375,49.658375 C8.5631875,50.33775 8.6113125,51.175875 9.0675625,51.77775 C9.1763125,51.930875 9.3106875,52.06775 9.4631875,52.187125 C9.6138125,52.308375 9.7869375,52.409 9.9731875,52.485875 C10.1575625,52.564 10.3563125,52.629625 10.5619375,52.660875 C10.7663125,52.710875 10.9775625,52.7215 11.1919375,52.74275 L11.1988125,52.743375 C11.2331875,52.7465 11.2581875,52.777125 11.2550625,52.8115 C11.2519375,52.8415 11.2288125,52.864 11.2000625,52.867125 C10.9825625,52.89275 10.7613125,52.932125 10.5363125,52.923375 C10.3119375,52.928375 10.0825625,52.8965 9.8581875,52.845875 C9.6325625,52.795875 9.4075625,52.71525 9.1975625,52.600875 C8.9869375,52.489625 8.7813125,52.348375 8.6175625,52.1665 C7.9200625,51.454625 7.7031875,50.37275 7.9244375,49.404625 C7.9775625,49.158375 8.0719375,48.92275 8.1825625,48.69275 C8.2981875,48.464625 8.4431875,48.249 8.6150625,48.05025 C8.9588125,47.654625 9.4281875,47.350875 9.9388125,47.199 C10.1925625,47.1165 10.4569375,47.07525 10.7156875,47.06275 C10.9769375,47.044 11.2313125,47.068375 11.4838125,47.09775 C11.7313125,47.138375 11.9756875,47.194625 12.2063125,47.274 C12.4469375,47.339 12.6575625,47.448375 12.8838125,47.5365 L12.2556875,48.662125 C12.0238125,48.5115 11.8006875,48.348375 11.5975625,48.1615 C11.3975625,47.97275 11.2088125,47.7715 11.0463125,47.5515 C10.7250625,47.109625 10.4863125,46.6215 10.3200625,46.117125 C10.2356875,45.86525 10.1675625,45.609 10.1250625,45.349625 C10.0781875,45.09025 10.0531875,44.828375 10.0444375,44.567125 C10.0250625,44.044 10.0694375,43.519625 10.1850625,43.005875 C10.3025625,42.49275 10.4906875,41.98775 10.7794375,41.5215 C10.9188125,41.287125 11.0938125,41.065875 11.2925625,40.86525 C11.4875625,40.660875 11.7250625,40.49025 11.9756875,40.344625 C12.2363125,40.213375 12.5106875,40.105875 12.7963125,40.05775 C13.0800625,40.004 13.3706875,39.997125 13.6438125,40.03525 C13.9200625,40.062125 14.1838125,40.134 14.4306875,40.22275 C14.6831875,40.308375 14.9094375,40.430875 15.1369375,40.548375 L14.6606875,41.247125 C14.4875625,41.0465 14.2969375,40.873375 14.1450625,40.652125 C13.9800625,40.4465 13.8413125,40.217125 13.7144375,39.980875 C13.4688125,39.504 13.3225625,38.95025 13.3750625,38.402125 C13.3956875,38.128375 13.4769375,37.86525 13.5775625,37.61775 C13.6831875,37.370875 13.8250625,37.1465 13.9856875,36.939625 C14.3175625,36.535875 14.7169375,36.203375 15.1613125,35.954 C15.6031875,35.702125 16.0788125,35.5065 16.5813125,35.402125 C17.0800625,35.28525 17.6069375,35.25525 18.1375625,35.355875 C18.4044375,35.39775 18.6669375,35.500875 18.9138125,35.639625 C19.0400625,35.704625 19.1469375,35.804 19.2644375,35.889 C19.3638125,35.9915 19.4700625,36.09525 19.5569375,36.210875 C19.7269375,36.4465 19.8569375,36.709625 19.9375625,36.9815 C20.0238125,37.25525 20.0544375,37.529 20.0813125,37.804625 C20.1050625,38.04525 19.9288125,38.259 19.6881875,38.282125 C19.5156875,38.298375 19.3569375,38.21275 19.2725625,38.074 L19.2513125,38.038375 C19.1044375,37.79525 18.9331875,37.569 18.8081875,37.304 C18.6631875,37.053375 18.5644375,36.7715 18.4663125,36.48775 L18.3594375,36.039 C18.3363125,35.883375 18.3206875,35.723375 18.3100625,35.56525 C18.3156875,35.239625 18.3500625,34.903375 18.4763125,34.579625 C18.5819375,34.249 18.7988125,33.959 19.0388125,33.71275 C19.2950625,33.48525 19.5794375,33.28775 19.8863125,33.177125 C20.1894375,33.049 20.5050625,32.99025 20.8169375,32.957125 C21.1288125,32.939 21.4394375,32.950875 21.7394375,33.009 C22.0406875,33.057125 22.3319375,33.148375 22.6088125,33.264625 C22.8888125,33.3765 23.1500625,33.529 23.3919375,33.70275 C23.8750625,34.052125 24.2838125,34.50025 24.5613125,35.013375 C24.7006875,35.26775 24.8225625,35.5315 24.9025625,35.805875 C24.9969375,36.0765 25.0375625,36.359 25.0794375,36.634625 C25.1094375,36.91275 25.1225625,37.190875 25.1044375,37.47025 C25.1094375,37.7515 25.0381875,38.0065 25.0081875,38.27525 C25.0044375,38.309625 24.9738125,38.334625 24.9394375,38.330875 C24.9100625,38.327125 24.8875625,38.304 24.8838125,38.275875 L24.8838125,38.272125 Z M36.298625,52.83725 C36.153625,52.6485 36.001125,52.466 35.86175,52.27225 C35.733625,52.0685 35.584875,51.869125 35.472375,51.652875 C35.233625,51.227875 35.034875,50.771625 34.90175,50.284125 C34.848,50.036625 34.787375,49.787875 34.77175,49.52725 C34.753,49.3985 34.753,49.26725 34.759875,49.13475 C34.759875,49.002875 34.767375,48.86975 34.791125,48.73725 C34.824875,48.471625 34.8905,48.202875 35.0005,47.9485 C35.097375,47.687875 35.252375,47.447875 35.42925,47.22725 C35.60925,47.0085 35.823,46.8135 36.064875,46.657875 C36.304875,46.49725 36.57175,46.37975 36.853625,46.299125 C37.4155,46.151625 38.04925,46.184125 38.6055,46.450375 C38.883625,46.58225 39.13425,46.77225 39.34175,46.9985 C39.543625,47.22975 39.698625,47.4935 39.804875,47.766 C39.90925,48.0385 39.978625,48.31725 40.003625,48.59225 C40.032375,48.869125 40.018,49.136625 40.002375,49.40225 L38.953,49.32725 C39.026125,48.6285 39.093625,47.879125 39.19425,47.137875 C39.299875,46.395375 39.443625,45.64475 39.721125,44.925375 C39.856125,44.566 40.028625,44.21475 40.25175,43.891 C40.373,43.736 40.504875,43.585375 40.6405,43.442875 C40.803625,43.327875 40.938625,43.170375 41.12675,43.095375 C41.30675,43.006625 41.483,42.910375 41.679875,42.877875 C41.871125,42.821625 42.063625,42.777875 42.25925,42.781625 C42.6555,42.75225 43.007375,42.76225 43.4205,42.860375 C43.80925,42.956 44.178625,43.16725 44.473625,43.4535 C44.769875,43.741 44.9805,44.099125 45.129875,44.466 C45.424875,45.207875 45.523625,45.985375 45.556125,46.746625 C45.61425,48.27475 45.361125,49.774125 45.053625,51.219125 L44.14925,50.594125 C44.737375,50.19225 45.348,49.80725 46.083625,49.537875 C46.45425,49.410375 46.859875,49.29475 47.37675,49.34225 C47.6355,49.374125 47.931125,49.467875 48.18425,49.6785 C48.439875,49.8885 48.589875,50.186 48.657375,50.446 C48.793625,50.9835 48.698625,51.411 48.6005,51.807875 C48.49425,52.20225 48.32425,52.551 48.1405,52.881 C47.768625,53.539125 47.31175,54.11725 46.799875,54.6335 L46.473,53.607875 C46.771125,53.6785 47.093,53.71475 47.438625,53.739125 C47.78425,53.766625 48.156125,53.77475 48.5605,53.8485 C48.763,53.885375 48.973,53.941625 49.18175,54.02475 C49.389875,54.115375 49.5955,54.230375 49.769875,54.381625 C49.94675,54.529125 50.096125,54.70225 50.211125,54.8835 C50.263625,54.976 50.329875,55.065375 50.367375,55.15975 L50.493,55.43975 L50.4705,55.396625 C50.568,55.597875 50.657375,55.801625 50.714875,56.022875 C50.773,56.24225 50.80175,56.47225 50.798,56.702875 C50.791125,56.9335 50.746125,57.160375 50.672375,57.37475 C50.589875,57.585375 50.487375,57.785375 50.353,57.957875 C50.218625,58.12975 50.06675,58.28225 49.901125,58.410375 C49.738,58.54225 49.562375,58.65225 49.381125,58.745375 C49.019875,58.93475 48.632375,59.052875 48.243625,59.115375 C48.209875,59.121 48.177375,59.09725 48.17175,59.062875 C48.16675,59.034125 48.184875,59.006 48.211125,58.99475 C48.388,58.919125 48.5605,58.841625 48.72425,58.747875 C48.888625,58.65725 49.047375,58.559125 49.192375,58.445375 C49.483625,58.22225 49.72925,57.951625 49.88675,57.651 C49.969875,57.5035 50.0255,57.347875 50.06425,57.19225 C50.0955,57.034125 50.1055,56.876625 50.088625,56.721 C50.069875,56.56475 50.0305,56.41225 49.96925,56.264125 C49.90925,56.116 49.823,55.976 49.73425,55.8385 L49.71175,55.79475 L49.5905,55.59975 C49.55425,55.531 49.5005,55.48475 49.458625,55.426 C49.368625,55.316 49.273,55.2235 49.167375,55.154125 C48.959875,55.011 48.714875,54.940375 48.408625,54.916625 C47.799875,54.866 47.038625,54.949125 46.23175,54.81475 C45.902375,54.759125 45.681125,54.447875 45.736125,54.119125 C45.754875,54.00475 45.804875,53.904125 45.874875,53.822875 L45.904875,53.7885 C46.32425,53.30975 46.708,52.800375 46.9855,52.25725 C47.126125,51.9885 47.234875,51.70975 47.31175,51.44725 C47.384875,51.191 47.413,50.9185 47.3705,50.791 C47.352375,50.72475 47.338625,50.702875 47.327375,50.695375 C47.3155,50.68725 47.278,50.667875 47.20175,50.64975 C47.03675,50.621625 46.759875,50.6585 46.487375,50.745375 C45.931125,50.9185 45.354875,51.234125 44.8055,51.5785 L44.7805,51.594125 C44.506125,51.766 44.14425,51.68225 43.972375,51.407875 C43.884875,51.26725 43.863625,51.10225 43.901125,50.952875 C44.25675,49.5435 44.57675,48.144125 44.693,46.7335 C44.7455,46.03225 44.739875,45.320375 44.549875,44.67225 C44.456125,44.349125 44.31425,44.046 44.10675,43.797875 C43.903,43.545375 43.619875,43.369125 43.303,43.2685 C43.008625,43.16725 42.61675,43.144125 42.282375,43.167875 C42.108,43.15975 41.942375,43.195375 41.779875,43.241 C41.608625,43.26475 41.46675,43.35725 41.318,43.43225 C41.161125,43.495375 41.054875,43.636625 40.9205,43.73225 C40.80675,43.855375 40.701125,43.9885 40.60925,44.130375 C40.442375,44.4285 40.29925,44.744125 40.219875,45.08725 C40.05175,45.76725 40.006125,46.482875 39.993625,47.200375 C39.976125,47.92225 40.027375,48.64225 40.00175,49.407875 C39.99175,49.69725 39.74925,49.9235 39.4605,49.914125 C39.1805,49.90475 38.95925,49.67725 38.953625,49.400375 L38.952375,49.33225 C38.948625,49.125375 38.947375,48.91975 38.912375,48.726625 C38.88175,48.5335 38.838625,48.349125 38.7705,48.18225 C38.703,48.015375 38.611125,47.869125 38.5005,47.746 C38.393,47.621 38.264875,47.516 38.118625,47.43975 C37.527375,47.12975 36.668625,47.30725 36.154875,47.860375 C36.028625,48.001 35.9105,48.1535 35.82175,48.3285 C35.724875,48.497875 35.656125,48.6885 35.609875,48.887875 C35.557375,49.08475 35.533625,49.29475 35.528,49.50725 C35.509875,49.721 35.533,49.9385 35.54925,50.157875 C35.613,50.59475 35.71175,51.040375 35.868,51.47475 C36.011125,51.90725 36.204875,52.337875 36.406125,52.77225 C36.4205,52.804125 36.40675,52.841625 36.374875,52.856 C36.348,52.8685 36.316125,52.860375 36.298625,52.83725 Z M33.6490625,22.377375 C33.4878125,22.227375 33.3109375,22.1055 33.1621875,21.932375 C33.0040625,21.768 32.8571875,21.591125 32.7303125,21.4005 C32.6065625,21.208625 32.4846875,21.008 32.3990625,20.787375 C32.3003125,20.57175 32.2421875,20.33675 32.1996875,20.098 C32.1184375,19.618 32.1640625,19.101125 32.3465625,18.63175 C32.4359375,18.39675 32.5503125,18.168625 32.6984375,17.963625 C32.8365625,17.7505 33.0159375,17.567375 33.2065625,17.39925 C33.5896875,17.06425 34.0621875,16.8155 34.5984375,16.71675 C34.8640625,16.664875 35.1496875,16.673 35.4315625,16.71675 C35.7103125,16.7805 35.9965625,16.874875 36.2334375,17.0505 C36.4790625,17.21175 36.6740625,17.428625 36.8359375,17.656125 C36.9065625,17.773625 36.9690625,17.89425 37.0328125,18.01425 L37.1728125,18.38175 C37.2390625,18.627375 37.3053125,18.873625 37.3184375,19.11675 C37.3540625,19.362375 37.3365625,19.597375 37.3440625,19.836125 L36.2978125,19.836125 C36.3021875,19.532375 36.3209375,19.22175 36.3178125,18.904875 L36.3109375,17.9405 C36.3096875,17.291125 36.3171875,16.62675 36.4253125,15.959875 C36.4815625,15.628625 36.5534375,15.293 36.6834375,14.971125 C36.7415625,14.808625 36.8465625,14.66175 36.9203125,14.504875 C37.0296875,14.367375 37.1284375,14.216125 37.2584375,14.097375 C37.5215625,13.859875 37.8328125,13.681125 38.1584375,13.574875 C38.4846875,13.45175 38.8203125,13.428625 39.1559375,13.381125 L39.6540625,13.381125 C39.8215625,13.392375 40.0065625,13.43925 40.1840625,13.467375 C40.3590625,13.508625 40.5190625,13.583625 40.6890625,13.643625 C40.8471875,13.72425 40.9971875,13.82425 41.1509375,13.918625 C41.2821875,14.037375 41.4240625,14.15175 41.5478125,14.2805 C41.6571875,14.41925 41.7821875,14.552375 41.8771875,14.701125 C42.0734375,14.997375 42.2309375,15.3155 42.3515625,15.6455 C42.4696875,15.97675 42.5528125,16.317375 42.6084375,16.662375 C42.6565625,17.00925 42.6728125,17.358 42.6684375,17.708625 L42.6240625,18.23425 L42.5315625,18.757375 L42.3871875,19.274875 L42.1828125,19.783 L41.3671875,19.02675 C41.6928125,18.822375 42.0290625,18.61925 42.4059375,18.4405 C42.7828125,18.268 43.2046875,18.0955 43.7496875,18.089875 C44.0234375,18.10425 44.3265625,18.154875 44.5828125,18.308625 C44.8490625,18.448 45.0434375,18.6505 45.2071875,18.8505 C45.3578125,19.053 45.4703125,19.26425 45.5590625,19.46925 C45.6121875,19.573625 45.6371875,19.673 45.6765625,19.7755 L45.7309375,19.928 L45.7378125,19.947375 L45.7615625,20.048625 L45.7628125,20.057375 L45.7690625,20.09175 L45.7796875,20.161125 C45.8059375,20.35675 45.8509375,20.504875 45.8609375,20.738625 C45.8515625,20.9955 45.8559375,21.28175 45.7959375,21.514875 C45.7221875,21.733625 45.6696875,21.974875 45.5671875,22.169875 C45.4628125,22.359875 45.3703125,22.576125 45.2503125,22.738625 C45.1328125,22.903625 45.0178125,23.088625 44.8978125,23.236125 C44.7790625,23.3855 44.6578125,23.54675 44.5396875,23.68675 C44.2965625,23.97175 44.0784375,24.252375 43.8646875,24.53175 L43.4159375,23.63425 L43.9253125,23.71675 C44.0946875,23.74425 44.2528125,23.81175 44.4153125,23.86175 C44.5790625,23.90675 44.7271875,23.991125 44.8790625,24.063 C45.0328125,24.1305 45.1753125,24.218625 45.3134375,24.31425 C45.4553125,24.403 45.5909375,24.498 45.7146875,24.612375 C45.8428125,24.71925 45.9665625,24.829875 46.0728125,24.96175 C46.1834375,25.087375 46.2953125,25.20925 46.3828125,25.358 C46.4778125,25.497375 46.5684375,25.638625 46.6328125,25.802375 C46.7115625,25.953625 46.7640625,26.122375 46.7990625,26.29925 C46.8546875,26.464875 46.8334375,26.663 46.8384375,26.842375 C46.7978125,27.023 46.7728125,27.221125 46.6659375,27.37675 C46.6159375,27.45675 46.5609375,27.533625 46.5071875,27.607375 C46.4478125,27.6755 46.3703125,27.723625 46.3021875,27.779875 C46.1678125,27.903 46.0103125,27.958625 45.8571875,28.019875 C45.7071875,28.09425 45.5490625,28.11175 45.3946875,28.139875 C45.2403125,28.1705 45.0884375,28.196125 44.9346875,28.184875 L44.4796875,28.179875 C44.4453125,28.17925 44.4178125,28.151125 44.4184375,28.117375 C44.4184375,28.088625 44.4384375,28.064875 44.4640625,28.058 L44.4746875,28.054875 C44.7590625,27.97675 45.0540625,27.949875 45.3096875,27.829875 C45.4403125,27.77925 45.5753125,27.738 45.6784375,27.653 C45.7903125,27.581125 45.9046875,27.516125 45.9715625,27.413625 C46.0078125,27.36675 46.0565625,27.328 46.0840625,27.278625 C46.1040625,27.224875 46.1234375,27.173625 46.1478125,27.126125 C46.2009375,27.032375 46.1846875,26.913625 46.2003125,26.812375 C46.1703125,26.69925 46.1834375,26.592375 46.1215625,26.4805 C46.0828125,26.36925 46.0334375,26.261125 45.9565625,26.158 C45.8990625,26.0505 45.8134375,25.954875 45.7259375,25.8605 C45.6496875,25.7605 45.5459375,25.67925 45.4484375,25.594875 C45.3571875,25.504875 45.2434375,25.438625 45.1371875,25.364875 C45.0353125,25.2855 44.9215625,25.223625 44.8046875,25.167375 C44.6921875,25.10425 44.5765625,25.047375 44.4534375,25.009875 C44.3328125,24.968625 44.2165625,24.913 44.0903125,24.894875 C43.9659375,24.87425 43.8459375,24.8305 43.7215625,24.821125 L43.3515625,24.788 L43.3384375,24.78675 C43.0184375,24.758625 42.7821875,24.476125 42.8109375,24.156125 C42.8196875,24.058625 42.8534375,23.967375 42.9028125,23.8905 C43.1184375,23.558625 43.3378125,23.233 43.5578125,22.931125 L43.8759375,22.488 C43.9871875,22.341125 44.0603125,22.20175 44.1553125,22.059875 C44.2534375,21.917375 44.2928125,21.77925 44.3678125,21.64175 C44.4365625,21.50425 44.4440625,21.368625 44.4928125,21.2355 C44.5165625,21.10675 44.5040625,21.012375 44.5334375,20.898625 C44.5384375,20.761125 44.4840625,20.542375 44.4628125,20.368625 L44.4509375,20.29925 L44.4453125,20.264875 L44.4440625,20.256125 L44.4440625,20.25425 C44.4246875,20.1705 44.4696875,20.364875 44.4653125,20.34425 L44.4640625,20.3405 L44.4590625,20.32675 L44.4190625,20.2155 C44.3909375,20.14425 44.3721875,20.059875 44.3384375,19.998625 C44.2809375,19.858 44.2096875,19.743625 44.1465625,19.638625 C44.0771875,19.549875 44.0128125,19.471125 43.9465625,19.4355 C43.8853125,19.383625 43.8065625,19.376125 43.7115625,19.35675 C43.5046875,19.343625 43.2015625,19.421125 42.8990625,19.548625 C42.5934375,19.6755 42.2784375,19.842375 41.9628125,20.0205 C41.6821875,20.178625 41.3253125,20.07925 41.1671875,19.798 C41.0721875,19.629875 41.0728125,19.428 41.1465625,19.264875 L41.3203125,18.886125 L41.4603125,18.483 L41.5653125,18.062375 L41.6334375,17.6305 C41.6665625,17.33925 41.6834375,17.046125 41.6740625,16.751125 C41.6615625,16.457375 41.6315625,16.16425 41.5690625,15.878 C41.5053125,15.592375 41.4103125,15.31675 41.2840625,15.05675 C41.2215625,14.926125 41.1334375,14.814875 41.0590625,14.689875 C40.9734375,14.577375 40.8721875,14.478 40.7790625,14.368 C40.6665625,14.28425 40.5578125,14.1905 40.4390625,14.109875 C40.3109375,14.05175 40.1846875,13.971125 40.0521875,13.923625 C39.9146875,13.891125 39.7896875,13.844875 39.6384375,13.822375 L39.1740625,13.79175 C38.8703125,13.816125 38.5621875,13.839875 38.2796875,13.938 C37.9915625,14.018625 37.7403125,14.178625 37.5328125,14.377375 C37.4290625,14.47675 37.3546875,14.60425 37.2659375,14.71675 C37.2065625,14.85175 37.1353125,14.978625 37.0959375,15.122375 C37.0140625,15.407375 36.9571875,15.7055 36.9565625,16.013625 C36.9421875,16.627375 37.0215625,17.252375 37.1096875,17.883625 C37.1934375,18.516125 37.3121875,19.154875 37.3440625,19.836125 C37.3571875,20.123 37.1353125,20.366125 36.8484375,20.37925 C36.5746875,20.39175 36.3403125,20.189875 36.3084375,19.92175 L36.2978125,19.836125 C36.2759375,19.643 36.2784375,19.441125 36.2346875,19.25925 C36.2059375,19.069875 36.1621875,18.896125 36.1121875,18.724875 L36.0184375,18.486125 L35.8990625,18.27675 C35.8071875,18.154875 35.7184375,18.034875 35.6003125,17.95675 C35.1665625,17.609875 34.3846875,17.722375 33.8146875,18.149875 C33.6721875,18.257375 33.5365625,18.378625 33.4203125,18.516125 C33.2978125,18.64925 33.1978125,18.803 33.1146875,18.96425 C32.9490625,19.288 32.8565625,19.654875 32.8596875,20.03675 C32.8634375,20.228 32.8846875,20.42175 32.9296875,20.6155 C32.9640625,20.811125 33.0365625,21.002375 33.1134375,21.192375 C33.1934375,21.383625 33.2821875,21.5705 33.3909375,21.748 C33.4865625,21.933625 33.6271875,22.112375 33.7428125,22.294875 L33.7446875,22.298 C33.7634375,22.32675 33.7546875,22.3655 33.7253125,22.38425 C33.7009375,22.399875 33.6690625,22.396125 33.6490625,22.377375 Z M26.60375,7.636125 L26.621875,7.301125 L26.598125,6.9905 C26.566875,6.782375 26.515625,6.583625 26.4425,6.3955 C26.36625,6.208625 26.271875,6.032375 26.15125,5.878625 C26.041875,5.71925 25.903125,5.582375 25.754375,5.468625 C25.606875,5.35175 25.441875,5.267375 25.2775,5.193625 C25.193125,5.161125 25.105,5.1405 25.020625,5.111125 L24.75625,5.072375 C24.5775,5.06425 24.400625,5.073625 24.2225,5.101125 L24.090625,5.133 L24.024375,5.148 L23.99125,5.154875 L23.975625,5.158625 L23.973125,5.15925 C23.928125,5.173 24.0325,5.1405 24.020625,5.14425 L24.015625,5.14675 L24.006875,5.1505 L23.69875,5.27675 C23.531875,5.367375 23.435,5.433625 23.29625,5.552375 C23.16875,5.65925 23.06,5.786125 22.971875,5.933 C22.880625,6.0755 22.808125,6.238 22.753125,6.413625 C22.696875,6.587375 22.646875,6.772375 22.61375,6.967375 C22.574375,7.15925 22.554375,7.363 22.5375,7.568625 C22.51375,7.773 22.500625,7.984875 22.48875,8.198 L22.420625,9.523625 L22.418125,9.562375 C22.405625,9.803625 22.199375,9.98925 21.958125,9.97675 C21.803125,9.968625 21.67,9.878625 21.59875,9.75425 C21.5125,9.601125 21.4325,9.439875 21.325,9.30425 C21.22375,9.163625 21.1075,9.033 20.975,8.929875 C20.846875,8.81675 20.7,8.731125 20.54375,8.667375 C20.388125,8.598 20.2175,8.564875 20.0425,8.5455 C19.691875,8.5255 19.32375,8.619875 18.995,8.7955 C18.67,8.976125 18.36625,9.21675 18.134375,9.517375 C17.659375,10.102375 17.404375,10.888625 17.546875,11.5955 C17.6125,11.947375 17.763125,12.272375 17.98375,12.544875 C18.095625,12.679875 18.213125,12.809875 18.355625,12.918 C18.485,13.03675 18.64375,13.127375 18.79,13.226125 C18.98875,13.3605 19.04125,13.6305 18.9075,13.829875 C18.800625,13.988625 18.606875,14.053625 18.4325,14.006125 L18.358125,13.9855 L17.9275,13.86675 C17.7875,13.8105 17.645625,13.821125 17.508125,13.801125 C17.368125,13.772375 17.23625,13.78925 17.109375,13.8055 C17.045625,13.813 16.97875,13.80925 16.91875,13.82425 L16.746875,13.884875 C16.624375,13.906125 16.538125,13.988 16.438125,14.042375 C16.3325,14.091125 16.278125,14.202375 16.188125,14.268625 C16.131875,14.36925 16.059375,14.458 16.0175,14.566125 C15.989375,14.6805 15.924375,14.7805 15.92625,14.9055 C15.906875,15.023625 15.89375,15.14175 15.915625,15.264875 C15.913125,15.386125 15.946875,15.5055 15.984375,15.623625 C16.003125,15.7455 16.075625,15.853 16.128125,15.964875 C16.17,16.083 16.269375,16.17425 16.34125,16.27675 C16.4075,16.38425 16.515,16.464875 16.608125,16.556125 C16.694375,16.653625 16.805,16.729875 16.92375,16.79925 C17.038125,16.8705 17.141875,16.958 17.279375,17.003 C17.40875,17.058625 17.538125,17.112375 17.665,17.17425 L17.7625,17.221125 C18.08875,17.3805 18.224375,17.77425 18.065,18.101125 C17.9575,18.32175 17.74125,18.4555 17.5125,18.46925 L16.3225,18.539875 C15.946875,18.56675 15.59375,18.613 15.279375,18.693 C15.124375,18.736125 14.98,18.789875 14.848125,18.856125 C14.72125,18.92675 14.604375,19.006125 14.503125,19.106125 C14.4025,19.204875 14.310625,19.319875 14.230625,19.45175 C14.153125,19.5855 14.08875,19.734875 14.036875,19.896125 L14.025,19.926125 L14.019375,19.9405 L14.018125,19.94425 L14.0175,19.946125 C14.040625,19.784875 14.02375,19.902375 14.02875,19.867375 L14.028125,19.87675 L14.01875,19.9505 L14.00125,20.098625 L13.963125,20.39425 C13.943125,20.586125 13.995625,20.68425 13.993125,20.84425 C14.014375,20.993625 14.09875,21.14675 14.143125,21.30675 C14.22125,21.453 14.32375,21.5905 14.41375,21.739875 L14.795625,22.108 C14.9475,22.203 15.095,22.31675 15.258125,22.4055 C15.43,22.472375 15.6025,22.553625 15.78375,22.61425 L16.3525,22.742375 L16.36375,22.744875 C16.3975,22.752375 16.418125,22.7855 16.410625,22.818625 C16.404375,22.847375 16.38,22.86675 16.3525,22.867375 L15.73625,22.887375 C15.53125,22.866125 15.32625,22.8205 15.11625,22.784875 C14.91375,22.72675 14.716875,22.63675 14.5125,22.55925 C14.3225,22.456125 14.145625,22.31925 13.960625,22.19425 C13.808125,22.03175 13.64375,21.8705 13.504375,21.688625 C13.39875,21.483625 13.265625,21.293625 13.190625,21.0605 C13.13625,20.82925 13.051875,20.54175 13.049375,20.33925 L13.049375,20.041125 L13.049375,19.892375 L13.05,19.818 L13.05,19.808625 L13.06375,19.718 L13.06875,19.69675 L13.078125,19.654875 C13.12375,19.431125 13.18875,19.20675 13.285625,18.983 C13.386875,18.762375 13.5125,18.543 13.679375,18.349875 C13.845625,18.156125 14.043125,17.991125 14.253125,17.853 C14.465625,17.7205 14.68625,17.617375 14.9075,17.536125 C15.796875,17.228625 16.639375,17.241125 17.379375,17.1405 L17.22625,18.4355 L16.691875,18.203625 C16.510625,18.136125 16.3475,18.01425 16.18,17.906125 C16.010625,17.801125 15.848125,17.68425 15.705625,17.533625 C15.559375,17.389875 15.40125,17.259875 15.293125,17.07675 C15.178125,16.903 15.04625,16.742375 14.973125,16.541125 C14.889375,16.347375 14.795,16.159875 14.761875,15.94675 C14.710625,15.7405 14.67125,15.533 14.679375,15.31675 C14.663125,15.103 14.690625,14.889875 14.7375,14.677375 C14.761875,14.463 14.8675,14.263625 14.94625,14.062375 C15.03875,13.866125 15.180625,13.687375 15.311875,13.513625 C15.48,13.369875 15.62625,13.192375 15.825625,13.093625 C16.019375,12.988 16.213125,12.876125 16.42625,12.839875 L16.739375,12.766125 C16.843125,12.7505 16.94625,12.75675 17.049375,12.753 C17.258125,12.742375 17.460625,12.754875 17.64875,12.808 C17.839375,12.85425 18.039375,12.878 18.20625,12.963 L18.72125,13.18675 L18.28875,13.946125 C18.120625,13.79675 17.948125,13.658 17.80125,13.483625 C17.64625,13.323 17.515,13.133 17.39875,12.939875 C17.165625,12.551125 17.02125,12.1055 16.996875,11.659875 C16.954375,10.761125 17.303125,9.9255 17.838125,9.2755 C17.973125,9.113 18.120625,8.959875 18.280625,8.8205 C18.4375,8.677375 18.611875,8.552375 18.796875,8.44425 C18.981875,8.33675 19.176875,8.241125 19.384375,8.168 C19.591875,8.096125 19.811875,8.054875 20.0375,8.038 C20.2625,8.026125 20.496875,8.0355 20.72125,8.093625 C20.94625,8.14675 21.169375,8.234875 21.365,8.357375 C21.56875,8.471125 21.74875,8.621125 21.91125,8.77925 C22.08125,8.936125 22.215625,9.114875 22.355625,9.293 L21.534375,9.523625 C21.47,8.66425 21.34125,7.746125 21.5125,6.774875 C21.55,6.533 21.606875,6.284875 21.70125,6.043 C21.78875,5.8005 21.90625,5.557375 22.06125,5.333625 C22.211875,5.108 22.403125,4.898625 22.62,4.729875 C22.8175,4.558625 23.115625,4.414875 23.349375,4.32175 L23.666875,4.221125 L23.736875,4.199875 L23.76125,4.196125 L23.81,4.188625 L23.908125,4.173625 L24.1025,4.146125 C24.365625,4.123 24.6325,4.136125 24.89375,4.188 C25.02375,4.218 25.150625,4.259875 25.276875,4.297375 C25.396875,4.352375 25.520625,4.40175 25.635,4.464875 C25.8625,4.59675 26.0725,4.754875 26.243125,4.948 C26.416875,5.1355 26.565,5.344875 26.67125,5.571125 C26.784375,5.79425 26.85125,6.0355 26.895,6.27425 C26.938125,6.514875 26.934375,6.758 26.91125,6.993 C26.89375,7.112375 26.866875,7.23175 26.840625,7.3455 L26.725625,7.661125 C26.714375,7.69425 26.6775,7.711125 26.645,7.69925 C26.618125,7.68925 26.601875,7.663 26.60375,7.636125 Z M33.6399375,80.1758125 L33.3405625,79.7089375 L33.0961875,79.1851875 C32.9599375,78.8289375 32.8574375,78.4595625 32.7843125,78.0814375 C32.7199375,77.7033125 32.6818125,77.3183125 32.6818125,76.9308125 C32.6774375,76.5433125 32.7086875,76.1526875 32.7855625,75.7670625 C32.8155625,75.5726875 32.8561875,75.3801875 32.9174375,75.1901875 C32.9699375,74.9983125 33.0261875,74.8064375 33.1136875,74.6239375 C33.2630625,74.2514375 33.4636875,73.8901875 33.7161875,73.5601875 C33.9618125,73.2251875 34.2755625,72.9245625 34.6349375,72.6920625 C34.9893125,72.4501875 35.3980625,72.2776875 35.8143125,72.1814375 C36.0343125,72.1464375 36.2111875,72.0776875 36.4705625,72.0851875 C36.6605625,72.0870625 36.8243125,72.0708125 37.0355625,72.0876875 C37.2574375,72.1176875 37.4880625,72.1358125 37.7011875,72.1889375 C37.9043125,72.2608125 38.1136875,72.3145625 38.3068125,72.4083125 C38.6955625,72.5939375 39.0549375,72.8401875 39.3380625,73.1489375 C39.4818125,73.3008125 39.6230625,73.4526875 39.7330625,73.6251875 C39.8561875,73.7889375 39.9630625,73.9595625 40.0524375,74.1383125 C40.2480625,74.4864375 40.3874375,74.8545625 40.5005625,75.2239375 C40.6168125,75.5920625 40.6968125,75.9664375 40.7568125,76.3408125 C40.8774375,77.0895625 40.9243125,77.8376875 40.9230625,78.5864375 L40.5318125,78.5701875 C40.6049375,77.8758125 40.6605625,77.1770625 40.7574375,76.4801875 C40.8468125,75.7833125 40.9561875,75.0845625 41.1261875,74.3889375 C41.2086875,74.0414375 41.3130625,73.6945625 41.4468125,73.3533125 C41.5718125,73.0095625 41.7361875,72.6714375 41.9418125,72.3458125 C42.1530625,72.0239375 42.4155625,71.7089375 42.7643125,71.4676875 C42.9474375,71.3595625 43.1205625,71.2258125 43.3368125,71.1764375 C43.5449375,71.1076875 43.7561875,71.0370625 43.9718125,71.0426875 L44.2961875,71.0308125 L44.3368125,71.0301875 L44.3568125,71.0295625 L44.3668125,71.0295625 L44.3724375,71.0295625 C44.4030625,71.0345625 44.3105625,71.0183125 44.4424375,71.0401875 L44.5068125,71.0526875 L44.6349375,71.0776875 L44.8911875,71.1283125 C44.9780625,71.1458125 45.1130625,71.2139375 45.2218125,71.2608125 C45.3343125,71.3151875 45.4555625,71.3683125 45.5543125,71.4333125 L45.8143125,71.6508125 C46.0018125,71.7901875 46.1105625,71.9764375 46.2455625,72.1501875 C46.4855625,72.5083125 46.6311875,72.8914375 46.7443125,73.2708125 C46.8430625,73.6495625 46.9093125,74.0276875 46.9461875,74.4020625 C46.9799375,74.7758125 46.9961875,75.1483125 46.9886875,75.5151875 C46.9843125,75.8833125 46.9705625,76.2489375 46.9243125,76.6101875 C46.8393125,77.3345625 46.7236875,78.0445625 46.5243125,78.7608125 L45.3730625,78.1608125 L45.6611875,77.8570625 C45.7543125,77.7533125 45.8686875,77.6695625 45.9718125,77.5751875 C46.1849375,77.3945625 46.4143125,77.2289375 46.6661875,77.0901875 C46.9124375,76.9470625 47.1786875,76.8251875 47.4736875,76.7439375 C47.6186875,76.7014375 47.7680625,76.6670625 47.9343125,76.6558125 C48.0893125,76.6301875 48.2661875,76.6408125 48.4411875,76.6595625 C48.6124375,76.6758125 48.8080625,76.7420625 48.9799375,76.8214375 C49.1574375,76.9239375 49.3274375,77.0376875 49.4461875,77.2058125 C49.5911875,77.3601875 49.6430625,77.5358125 49.7168125,77.7083125 C49.7705625,77.8776875 49.7805625,78.0389375 49.8043125,78.2045625 C49.8024375,78.3570625 49.7918125,78.5064375 49.7818125,78.6558125 C49.7674375,78.8014375 49.7286875,78.9320625 49.7024375,79.0701875 C49.6505625,79.3476875 49.5399375,79.5826875 49.4605625,79.8383125 L48.7305625,79.2901875 L49.0824375,79.0995625 C49.1943125,79.0320625 49.3318125,78.9945625 49.4655625,78.9551875 C49.5968125,78.9120625 49.7305625,78.8770625 49.8793125,78.8758125 C50.0236875,78.8639375 50.1649375,78.8520625 50.3118125,78.8870625 C50.4574375,78.9076875 50.5993125,78.9376875 50.7305625,79.0058125 C50.8680625,79.0570625 50.9899375,79.1314375 51.0993125,79.2239375 C51.2186875,79.3033125 51.3074375,79.4095625 51.3955625,79.5145625 C51.4930625,79.6139375 51.5468125,79.7389375 51.6161875,79.8526875 C51.6874375,79.9664375 51.7143125,80.0983125 51.7624375,80.2189375 C51.8024375,80.3433125 51.8080625,80.4764375 51.8299375,80.6020625 C51.8386875,80.7308125 51.8280625,80.8608125 51.8255625,80.9870625 C51.8030625,81.1139375 51.7755625,81.2395625 51.7443125,81.3608125 C51.6918125,81.4776875 51.6480625,81.5976875 51.5861875,81.7058125 C51.5099375,81.8064375 51.4455625,81.9151875 51.3593125,82.0020625 C51.2643125,82.0826875 51.1755625,82.1676875 51.0743125,82.2314375 L50.7555625,82.3920625 C50.7249375,82.4070625 50.6874375,82.3951875 50.6724375,82.3645625 C50.6586875,82.3383125 50.6661875,82.3070625 50.6880625,82.2889375 L50.6993125,82.2801875 L50.9505625,82.0745625 C51.0268125,82.0001875 51.0818125,81.9070625 51.1499375,81.8308125 C51.2080625,81.7470625 51.2418125,81.6470625 51.2893125,81.5595625 C51.3230625,81.4645625 51.3374375,81.3633125 51.3636875,81.2689375 L51.3743125,80.9714375 C51.3555625,80.8733125 51.3486875,80.7751875 51.3249375,80.6814375 C51.2886875,80.5895625 51.2686875,80.4939375 51.2249375,80.4089375 C51.1749375,80.3270625 51.1486875,80.2326875 51.0855625,80.1626875 C51.0249375,80.0920625 50.9818125,80.0070625 50.9068125,79.9558125 C50.8399375,79.8964375 50.7774375,79.8333125 50.6974375,79.8001875 C50.6268125,79.7526875 50.5511875,79.7195625 50.4699375,79.7058125 C50.3949375,79.6733125 50.3130625,79.6726875 50.2324375,79.6739375 C50.1549375,79.6595625 50.0718125,79.6845625 49.9918125,79.7026875 C49.9118125,79.7095625 49.8311875,79.7451875 49.7518125,79.7858125 C49.6724375,79.8226875 49.5918125,79.8495625 49.5174375,79.9139375 L49.2868125,80.0701875 C49.0674375,80.2189375 48.7680625,80.1620625 48.6193125,79.9414375 C48.5443125,79.8314375 48.5211875,79.7014375 48.5449375,79.5795625 L48.5561875,79.5214375 C48.5993125,79.3058125 48.6793125,79.0851875 48.6936875,78.8783125 C48.7024375,78.7758125 48.7255625,78.6676875 48.7249375,78.5708125 L48.7124375,78.2914375 C48.6849375,78.2195625 48.6793125,78.1320625 48.6536875,78.0733125 C48.6186875,78.0289375 48.6080625,77.9583125 48.5674375,77.9445625 C48.5468125,77.9064375 48.5005625,77.9001875 48.4693125,77.8770625 C48.4193125,77.8689375 48.3774375,77.8470625 48.3074375,77.8495625 C48.1774375,77.8451875 48.0074375,77.8689375 47.8349375,77.9376875 C47.6630625,77.9933125 47.4818125,78.0801875 47.3130625,78.1889375 C47.1418125,78.2908125 46.9761875,78.4195625 46.8243125,78.5595625 C46.7511875,78.6333125 46.6668125,78.6951875 46.6011875,78.7770625 L46.3936875,79.0114375 C46.1505625,79.2889375 45.7286875,79.3164375 45.4505625,79.0726875 C45.2580625,78.9033125 45.1874375,78.6445625 45.2424375,78.4114375 C45.3974375,77.7808125 45.5280625,77.1176875 45.6030625,76.4595625 C45.6805625,75.8008125 45.7355625,75.1401875 45.7005625,74.4995625 C45.6843125,74.1789375 45.6418125,73.8689375 45.5799375,73.5708125 C45.5055625,73.2801875 45.4118125,73.0026875 45.2730625,72.7758125 C45.1949375,72.6758125 45.1386875,72.5445625 45.0393125,72.4770625 C44.9949375,72.4358125 44.9511875,72.3939375 44.9086875,72.3483125 C44.8649375,72.3158125 44.8236875,72.3026875 44.7830625,72.2733125 C44.7343125,72.2489375 44.7249375,72.2095625 44.6430625,72.1864375 L44.3905625,72.1195625 L44.2643125,72.0864375 L44.2011875,72.0695625 C44.3299375,72.0914375 44.2349375,72.0758125 44.2630625,72.0808125 L44.2599375,72.0808125 L44.2536875,72.0808125 L44.2418125,72.0808125 L44.2168125,72.0808125 L44.0186875,72.0758125 C43.8824375,72.0501875 43.7593125,72.0895625 43.6324375,72.1158125 C43.4980625,72.1214375 43.3880625,72.2070625 43.2636875,72.2589375 C43.0224375,72.3839375 42.7993125,72.5864375 42.5999375,72.8233125 C42.4036875,73.0651875 42.2255625,73.3376875 42.0774375,73.6333125 C41.9249375,73.9251875 41.7949375,74.2376875 41.6824375,74.5570625 C41.4474375,75.1933125 41.2799375,75.8633125 41.1630625,76.5426875 C41.0486875,77.2220625 40.9643125,77.9089375 40.9224375,78.6020625 C40.9161875,78.7101875 40.8230625,78.7920625 40.7149375,78.7858125 C40.6124375,78.7795625 40.5330625,78.6945625 40.5318125,78.5933125 L40.5311875,78.5864375 C40.5230625,77.8664375 40.4199375,77.1445625 40.2230625,76.4595625 C40.1230625,76.1170625 40.0049375,75.7820625 39.8574375,75.4651875 C39.7136875,75.1483125 39.5493125,74.8414375 39.3493125,74.5714375 C39.2561875,74.4295625 39.1505625,74.3020625 39.0361875,74.1851875 C38.9330625,74.0558125 38.8068125,73.9551875 38.6843125,73.8539375 C38.4386875,73.6520625 38.1655625,73.5076875 37.8874375,73.3889375 C37.7468125,73.3308125 37.5924375,73.3083125 37.4486875,73.2633125 C37.3043125,73.2358125 37.1668125,73.2276875 37.0261875,73.2014375 C36.8724375,73.1870625 36.6674375,73.2064375 36.4905625,73.2070625 C36.3805625,73.1983125 36.2018125,73.2558125 36.0593125,73.2695625 C35.7618125,73.3276875 35.4761875,73.4364375 35.2199375,73.6001875 C34.9593125,73.7558125 34.7268125,73.9664375 34.5186875,74.2058125 C34.3086875,74.4433125 34.1274375,74.7195625 33.9843125,75.0183125 C33.9011875,75.1626875 33.8436875,75.3201875 33.7811875,75.4770625 C33.7111875,75.6314375 33.6593125,75.7939375 33.6168125,75.9595625 C33.5118125,76.2851875 33.4586875,76.6295625 33.4086875,76.9726875 C33.3580625,77.3189375 33.3511875,77.6689375 33.3524375,78.0220625 C33.3630625,78.1964375 33.3655625,78.3751875 33.3818125,78.5514375 L33.4555625,79.0795625 L33.5743125,79.5958125 L33.7524375,80.1214375 C33.7636875,80.1539375 33.7461875,80.1901875 33.7130625,80.2014375 C33.6855625,80.2108125 33.6549375,80.1995625 33.6399375,80.1758125 Z M22.2275625,68.7445625 L22.1488125,68.2064375 C22.1325625,68.0226875 22.0906875,67.8520625 22.0394375,67.6889375 C21.9856875,67.5245625 21.9675625,67.3570625 21.8819375,67.2039375 C21.8069375,67.0501875 21.7494375,66.8895625 21.6638125,66.7464375 L21.3844375,66.3376875 C21.2700625,66.2233125 21.1669375,66.0995625 21.0506875,65.9939375 C20.9175625,65.9114375 20.8050625,65.7989375 20.6663125,65.7389375 C20.5256875,65.6876875 20.4006875,65.5976875 20.2563125,65.5864375 L20.0494375,65.5414375 L19.8450625,65.5489375 C19.7069375,65.5289375 19.5913125,65.6158125 19.4644375,65.6295625 C19.3650625,65.7170625 19.2325625,65.7358125 19.1513125,65.8458125 C19.0588125,65.9351875 18.9638125,66.0226875 18.9063125,66.1539375 C18.8731875,66.2139375 18.8325625,66.2676875 18.8025625,66.3295625 L18.7369375,66.5383125 L18.6700625,66.7451875 L18.6438125,66.9745625 C18.6250625,67.1276875 18.5888125,67.2745625 18.6050625,67.4395625 L18.6138125,67.9208125 L18.6144375,67.9383125 C18.6194375,68.2389375 18.3800625,68.4864375 18.0794375,68.4920625 C17.7994375,68.4970625 17.5644375,68.2870625 17.5294375,68.0151875 C17.4800625,67.6183125 17.3500625,67.1989375 17.1931875,66.7995625 C17.0406875,66.3951875 16.8319375,66.0133125 16.5981875,65.6633125 C16.4825625,65.4889375 16.3588125,65.3170625 16.2188125,65.1720625 C16.1519375,65.0933125 16.0806875,65.0226875 16.0044375,64.9614375 C15.9331875,64.8914375 15.8600625,64.8245625 15.7806875,64.7739375 C15.7038125,64.7151875 15.6256875,64.6583125 15.5413125,64.6220625 C15.4594375,64.5764375 15.3763125,64.5326875 15.2875625,64.5126875 C15.2019375,64.4808125 15.1138125,64.4533125 15.0231875,64.4495625 C14.9325625,64.4351875 14.8406875,64.4226875 14.7469375,64.4370625 L14.6056875,64.4458125 L14.5694375,64.4470625 C14.6213125,64.4320625 14.5588125,64.4489375 14.5594375,64.4483125 L14.4738125,64.4708125 C14.3644375,64.5008125 14.2250625,64.5264375 14.1675625,64.5658125 C14.0206875,64.6239375 13.8406875,64.7264375 13.7081875,64.8664375 C13.5619375,64.9951875 13.4488125,65.1701875 13.3506875,65.3564375 C13.2519375,65.5426875 13.1781875,65.7508125 13.1181875,65.9658125 C12.8963125,66.8420625 12.9419375,67.7908125 12.9475625,68.7426875 C12.9481875,68.8464375 12.8644375,68.9314375 12.7606875,68.9320625 C12.6731875,68.9326875 12.5988125,68.8739375 12.5775625,68.7933125 L12.5725625,68.7764375 C12.4719375,68.4026875 12.4188125,68.0120625 12.2794375,67.6526875 C12.2119375,67.4733125 12.1519375,67.2889375 12.0763125,67.1145625 L11.8169375,66.6076875 C11.6163125,66.2889375 11.3825625,65.9995625 11.1113125,65.7645625 C10.9756875,65.6489375 10.8181875,65.5664375 10.6756875,65.4683125 C10.5094375,65.4170625 10.3625625,65.3214375 10.1906875,65.3001875 C10.0231875,65.2695625 9.8581875,65.2364375 9.6850625,65.2539375 C9.5156875,65.2439375 9.3456875,65.2833125 9.1769375,65.3164375 C9.0081875,65.3401875 8.8444375,65.4251875 8.6794375,65.4733125 C8.5188125,65.5489375 8.3606875,65.6276875 8.2044375,65.7120625 C7.5888125,66.0745625 7.0438125,66.5789375 6.5888125,67.1445625 C6.1350625,67.7133125 5.7688125,68.3545625 5.5513125,69.0258125 C5.4975625,69.1939375 5.4419375,69.3608125 5.4175625,69.5320625 C5.3794375,69.7014375 5.3513125,69.8701875 5.3481875,70.0383125 C5.3263125,70.2076875 5.3331875,70.3726875 5.3494375,70.5351875 C5.3469375,70.7020625 5.3944375,70.8551875 5.4263125,71.0114375 C5.5019375,71.3208125 5.6388125,71.6014375 5.8050625,71.8676875 C5.8950625,71.9964375 6.0094375,72.1101875 6.1063125,72.2351875 C6.2238125,72.3470625 6.3556875,72.4464375 6.4781875,72.5558125 C6.7575625,72.7395625 7.0369375,72.9351875 7.3688125,73.0683125 C7.6756875,73.2364375 8.0431875,73.3133125 8.3819375,73.4376875 L8.4188125,73.4514375 C8.7494375,73.5733125 8.9181875,73.9389375 8.7963125,74.2689375 C8.6881875,74.5633125 8.3856875,74.7289375 8.0869375,74.6758125 C7.8988125,74.6420625 7.7094375,74.5908125 7.5238125,74.5808125 C7.3363125,74.5520625 7.1544375,74.5545625 6.9750625,74.5614375 C6.6156875,74.5808125 6.2800625,74.6770625 5.9950625,74.8564375 C5.8544375,74.9476875 5.7175625,75.0501875 5.6025625,75.1795625 C5.4800625,75.3008125 5.3819375,75.4508125 5.2944375,75.6070625 C5.1188125,75.9233125 5.0206875,76.2945625 4.9831875,76.6776875 C4.9119375,77.4451875 5.1288125,78.2714375 5.6263125,78.9020625 C5.7475625,79.0620625 5.8850625,79.2139375 6.0413125,79.3439375 C6.1938125,79.4795625 6.3638125,79.6001875 6.5488125,79.6951875 C6.7294375,79.7995625 6.9281875,79.8758125 7.1306875,79.9383125 C7.3331875,80.0089375 7.5456875,80.0464375 7.7613125,80.0858125 L7.7663125,80.0870625 C7.8000625,80.0933125 7.8225625,80.1258125 7.8163125,80.1601875 C7.8113125,80.1895625 7.7856875,80.2108125 7.7563125,80.2114375 C7.5319375,80.2158125 7.3038125,80.2220625 7.0763125,80.1908125 C6.8500625,80.1601875 6.6206875,80.1120625 6.4019375,80.0308125 C6.1794375,79.9589375 5.9644375,79.8551875 5.7631875,79.7289375 C5.5594375,79.6070625 5.3650625,79.4608125 5.1969375,79.2889375 C4.5119375,78.6058125 4.1181875,77.6464375 4.0894375,76.6539375 C4.0825625,76.4045625 4.1013125,76.1533125 4.1469375,75.9039375 C4.1988125,75.6545625 4.2681875,75.4058125 4.3744375,75.1670625 C4.4800625,74.9295625 4.6081875,74.6945625 4.7781875,74.4864375 C4.9394375,74.2714375 5.1413125,74.0839375 5.3619375,73.9245625 C5.8050625,73.6033125 6.3350625,73.4201875 6.8525625,73.3576875 C7.1106875,73.3295625 7.3725625,73.3139375 7.6238125,73.3345625 C7.8800625,73.3426875 8.1206875,73.3951875 8.3675625,73.4339375 L8.0731875,74.6720625 C7.6631875,74.5420625 7.2450625,74.4651875 6.8444375,74.2714375 C6.4363125,74.1176875 6.0425625,73.8876875 5.6731875,73.6245625 C5.4969375,73.4726875 5.3156875,73.3289375 5.1500625,73.1658125 C4.9994375,72.9839375 4.8369375,72.8101875 4.7025625,72.6151875 C4.4450625,72.2133125 4.2388125,71.7708125 4.1500625,71.3045625 C4.1094375,71.0720625 4.0594375,70.8395625 4.0663125,70.6076875 C4.0544375,70.3751875 4.0581875,70.1451875 4.0925625,69.9208125 C4.1100625,69.6926875 4.1550625,69.4733125 4.2119375,69.2583125 C4.2556875,69.0376875 4.3319375,68.8314375 4.4069375,68.6258125 C4.5569375,68.2126875 4.7531875,67.8245625 4.9775625,67.4583125 C5.2013125,67.0908125 5.4550625,66.7445625 5.7413125,66.4270625 C6.0250625,66.1076875 6.3381875,65.8151875 6.6756875,65.5508125 C7.0163125,65.2895625 7.3881875,65.0670625 7.7788125,64.8776875 C7.9794375,64.7914375 8.1863125,64.7170625 8.3931875,64.6476875 C8.6125625,64.6039375 8.8188125,64.5295625 9.0450625,64.5183125 C9.2694375,64.4983125 9.4900625,64.4758125 9.7175625,64.5101875 C9.9438125,64.5158125 10.1625625,64.5801875 10.3794375,64.6464375 C10.5988125,64.7008125 10.7881875,64.8351875 10.9894375,64.9283125 C11.1619375,65.0651875 11.3469375,65.1920625 11.4969375,65.3470625 C11.6331875,65.5139375 11.7938125,65.6639375 11.9019375,65.8445625 C12.0088125,66.0258125 12.1275625,66.2014375 12.2206875,66.3858125 L12.4731875,66.9501875 C12.5450625,67.1414375 12.5956875,67.3389375 12.6594375,67.5320625 C12.7988125,67.9151875 12.8469375,68.3170625 12.9444375,68.7083125 L12.5694375,68.7426875 C12.5694375,68.2758125 12.5381875,67.8014375 12.5406875,67.3220625 C12.5375625,66.8426875 12.5425625,66.3551875 12.6294375,65.8633125 C12.6681875,65.6164375 12.7231875,65.3670625 12.8169375,65.1220625 C12.9106875,64.8789375 13.0306875,64.6314375 13.2131875,64.4208125 C13.3856875,64.1995625 13.6013125,64.0220625 13.8775625,63.8751875 C14.0219375,63.7870625 14.1175625,63.7651875 14.2319375,63.7183125 L14.3150625,63.6864375 C14.3438125,63.6776875 14.3094375,63.6845625 14.3894375,63.6620625 L14.4413125,63.6520625 L14.6513125,63.6126875 C14.7913125,63.5783125 14.9350625,63.5758125 15.0806875,63.5808125 C15.2281875,63.5745625 15.3706875,63.5976875 15.5131875,63.6295625 C15.6594375,63.6514375 15.7944375,63.6989375 15.9275625,63.7526875 C16.0663125,63.7983125 16.1894375,63.8651875 16.3106875,63.9364375 C16.5588125,64.0701875 16.7781875,64.2426875 16.9669375,64.4326875 C17.1663125,64.6164375 17.3344375,64.8208125 17.4931875,65.0295625 C17.8050625,65.4508125 18.0456875,65.9095625 18.2369375,66.3858125 C18.4238125,66.8658125 18.5569375,67.3633125 18.6125625,67.9070625 L17.5281875,68.0014375 L17.5331875,67.4008125 C17.5238125,67.2033125 17.5675625,66.9964375 17.6050625,66.7926875 L17.6638125,66.4889375 C17.6975625,66.3876875 17.7400625,66.2870625 17.7788125,66.1864375 L17.9006875,65.8883125 C17.9538125,65.7920625 18.0219375,65.6995625 18.0844375,65.6070625 C18.1969375,65.4133125 18.3663125,65.2551875 18.5475625,65.1083125 C18.7100625,64.9433125 18.9531875,64.8745625 19.1563125,64.7720625 C19.3838125,64.7383125 19.6125625,64.6514375 19.8381875,64.6883125 L20.1750625,64.7164375 C20.2813125,64.7433125 20.3856875,64.7789375 20.4900625,64.8120625 C20.7050625,64.8645625 20.8794375,64.9920625 21.0613125,65.0989375 C21.2400625,65.2101875 21.3756875,65.3708125 21.5294375,65.5051875 C21.6613125,65.6589375 21.7719375,65.8283125 21.8906875,65.9883125 C21.9869375,66.1608125 22.0613125,66.3451875 22.1431875,66.5208125 C22.2131875,66.7020625 22.2488125,66.8933125 22.3006875,67.0764375 C22.3619375,67.2558125 22.3556875,67.4564375 22.3813125,67.6433125 C22.4025625,67.8339375 22.4213125,68.0189375 22.3963125,68.1976875 L22.3519375,68.7401875 C22.3494375,68.7745625 22.3194375,68.8008125 22.2850625,68.7983125 C22.2550625,68.7964375 22.2319375,68.7726875 22.2275625,68.7445625 Z" id="Combined-Shape" fill="#3C605A"></path>
            <g id="Group-28" transform="translate(6.250000, 17.988125)" fill="#3C605A">
                <path d="M27.3765,13.4120625 C27.3465,13.1433125 27.27525,12.8883125 27.280875,12.6070625 C27.262125,12.3276875 27.27525,12.0495625 27.30525,11.7714375 C27.347125,11.4958125 27.388375,11.2133125 27.482125,10.9426875 C27.562125,10.6683125 27.684,10.4045625 27.823375,10.1501875 C28.100875,9.6370625 28.509625,9.1889375 28.99275,8.8395625 C29.23525,8.6658125 29.4965,8.5133125 29.775875,8.4014375 C30.05275,8.2851875 30.344,8.1939375 30.64525,8.1458125 C30.94525,8.0876875 31.255875,8.0758125 31.56775,8.0939375 C31.879625,8.1270625 32.19525,8.1858125 32.498375,8.3139375 C32.805875,8.4251875 33.09025,8.6220625 33.345875,8.8495625 C33.5865,9.0958125 33.80275,9.3858125 33.908375,9.7164375 C34.034625,10.0401875 34.069,10.3770625 34.074625,10.7020625 C34.064,10.8601875 34.048375,11.0201875 34.025875,11.1758125 L33.918375,11.6245625 C33.820875,11.9083125 33.7215,12.1901875 33.5765,12.4408125 C33.452125,12.7064375 33.28025,12.9320625 33.133375,13.1751875 L33.11275,13.2101875 C32.98775,13.4164375 32.718375,13.4826875 32.512125,13.3576875 C32.363375,13.2683125 32.28775,13.1033125 32.303375,12.9420625 C32.33025,12.6658125 32.3615,12.3920625 32.447125,12.1183125 C32.52775,11.8470625 32.65775,11.5833125 32.828375,11.3476875 C32.914625,11.2320625 33.020875,11.1283125 33.12025,11.0258125 C33.23775,10.9408125 33.344625,10.8414375 33.470875,10.7764375 C33.71775,10.6383125 33.98025,10.5345625 34.247125,10.4926875 C34.77775,10.3920625 35.30525,10.4220625 35.803375,10.5389375 C36.305875,10.6433125 36.7815,10.8389375 37.223375,11.0908125 C37.66775,11.3408125 38.067125,11.6726875 38.399625,12.0764375 C38.56025,12.2833125 38.7015,12.5076875 38.807125,12.7545625 C38.90775,13.0020625 38.989,13.2651875 39.009625,13.5389375 C39.062125,14.0876875 38.915875,14.6408125 38.67025,15.1176875 C38.543375,15.3539375 38.40525,15.5833125 38.239625,15.7889375 C38.088375,16.0101875 37.897125,16.1839375 37.724625,16.3839375 L37.24775,15.6851875 C37.47525,15.5676875 37.702125,15.4451875 37.954,15.3595625 C38.200875,15.2708125 38.464625,15.1989375 38.7415,15.1720625 C39.014,15.1339375 39.304625,15.1414375 39.588375,15.1951875 C39.874,15.2426875 40.149,15.3501875 40.409625,15.4814375 C40.659625,15.6270625 40.897125,15.7976875 41.092125,16.0026875 C41.2915,16.2026875 41.465875,16.4239375 41.605875,16.6583125 C41.894625,17.1245625 42.082125,17.6295625 42.199625,18.1426875 C42.31525,18.6564375 42.36025,19.1808125 42.34025,19.7039375 C42.3315,19.9651875 42.307125,20.2270625 42.259625,20.4864375 C42.217125,20.7458125 42.149,21.0026875 42.064625,21.2539375 C41.898375,21.7583125 41.66025,22.2464375 41.338375,22.6883125 C41.175875,22.9083125 40.987125,23.1095625 40.787125,23.2983125 C40.584,23.4851875 40.360875,23.6483125 40.129,23.7989375 L39.500875,22.6733125 C39.72775,22.5851875 39.938375,22.4758125 40.178375,22.4108125 C40.409625,22.3314375 40.653375,22.2751875 40.9015,22.2345625 C41.153375,22.2051875 41.40775,22.1808125 41.669,22.2001875 C41.92775,22.2120625 42.192125,22.2533125 42.445875,22.3358125 C42.957125,22.4876875 43.4265,22.7914375 43.769625,23.1870625 C43.9415,23.3858125 44.0865,23.6014375 44.202125,23.8295625 C44.313375,24.0589375 44.407125,24.2958125 44.46025,24.5414375 C44.6815,25.5095625 44.464625,26.5914375 43.76775,27.3039375 C43.603375,27.4851875 43.39775,27.6264375 43.187125,27.7376875 C42.977125,27.8520625 42.75275,27.9326875 42.5265,27.9826875 C42.302125,28.0339375 42.073375,28.0651875 41.848375,28.0601875 C41.623375,28.0689375 41.402125,28.0295625 41.184625,28.0039375 C41.15025,28.0001875 41.125875,27.9695625 41.13025,27.9351875 C41.133375,27.9051875 41.157125,27.8826875 41.185875,27.8801875 L41.19275,27.8795625 C41.407125,27.8583125 41.618375,27.8476875 41.82275,27.7983125 C42.028375,27.7664375 42.227125,27.7008125 42.412125,27.6226875 C42.59775,27.5458125 42.770875,27.4451875 42.9215,27.3239375 C43.074,27.2045625 43.208375,27.0676875 43.317125,26.9145625 C43.773375,26.3133125 43.8215,25.4745625 43.56775,24.7951875 C43.509,24.6226875 43.428375,24.4620625 43.335875,24.3108125 C43.2415,24.1608125 43.129625,24.0270625 43.007125,23.9083125 C42.88025,23.7958125 42.7465,23.6939375 42.598375,23.6195625 C42.453375,23.5414375 42.30025,23.4789375 42.137125,23.4464375 C41.977125,23.4058125 41.80775,23.3908125 41.635875,23.3958125 C41.465875,23.3926875 41.289625,23.4245625 41.114,23.4558125 C40.939,23.5014375 40.762125,23.5401875 40.5865,23.6114375 C40.409625,23.6626875 40.238375,23.7633125 40.064,23.8351875 L40.060875,23.8364375 C39.729625,23.9726875 39.35025,23.8145625 39.214,23.4833125 C39.09775,23.1995625 39.197125,22.8808125 39.435875,22.7095625 C39.593375,22.5970625 39.744625,22.4783125 39.88275,22.3426875 C40.019,22.2045625 40.144,22.0564375 40.25775,21.8964375 C40.49025,21.5814375 40.672125,21.2195625 40.800875,20.8339375 C41.050875,20.0633125 41.1415,19.2039375 40.9915,18.3920625 C40.8515,17.5858125 40.4615,16.8233125 39.858375,16.4364375 C39.704,16.3501875 39.544625,16.2701875 39.368375,16.2301875 C39.194,16.1876875 39.009625,16.1595625 38.81775,16.1701875 C38.6265,16.1683125 38.427125,16.2026875 38.229,16.2533125 C38.028375,16.2951875 37.830875,16.3751875 37.629625,16.4483125 L37.592125,16.4620625 C37.37025,16.5433125 37.12525,16.4295625 37.044625,16.2076875 C36.983375,16.0420625 37.032125,15.8626875 37.153375,15.7495625 C37.3165,15.5964375 37.51025,15.4608125 37.654,15.2914375 C37.8165,15.1326875 37.9515,14.9583125 38.079,14.7770625 C38.317125,14.4089375 38.47275,13.9951875 38.4765,13.5645625 C38.482125,13.3495625 38.44275,13.1339375 38.375875,12.9233125 C38.300875,12.7158125 38.19275,12.5183125 38.064625,12.3308125 C37.929625,12.1470625 37.77525,11.9764375 37.599,11.8245625 C37.42275,11.6745625 37.233375,11.5389375 37.03275,11.4189375 C36.63025,11.1820625 36.18025,11.0251875 35.724625,10.9389375 C35.49525,10.9033125 35.264,10.8870625 35.0365,10.8958125 C34.81025,10.9076875 34.58275,10.9314375 34.3765,11.0070625 C34.164625,11.0670625 33.978375,11.1758125 33.814,11.2964375 C33.72775,11.3533125 33.665875,11.4364375 33.590875,11.5014375 C33.534625,11.5839375 33.470875,11.6595625 33.422125,11.7458125 C33.329625,11.9220625 33.263375,12.1108125 33.229625,12.3139375 C33.192125,12.5151875 33.1965,12.7295625 33.199,12.9420625 L32.369,12.7083125 C32.469625,12.4795625 32.599,12.2601875 32.67275,12.0283125 C32.764625,11.8001875 32.828375,11.5739375 32.8915,11.3489375 L32.948375,11.0145625 C32.955875,10.9051875 32.954,10.7983125 32.965875,10.6914375 C32.955875,10.4845625 32.934625,10.2839375 32.86025,10.1108125 C32.8015,9.9301875 32.68525,9.7864375 32.567125,9.6420625 C32.425875,9.5176875 32.274625,9.3901875 32.079,9.3164375 C31.703375,9.1458125 31.243375,9.1001875 30.7915,9.1464375 C30.564625,9.1658125 30.337125,9.2208125 30.11775,9.2958125 C29.897125,9.3695625 29.684,9.4670625 29.479,9.5826875 C29.068375,9.8158125 28.714,10.1458125 28.419625,10.5326875 C28.27525,10.7276875 28.14025,10.9358125 28.039625,11.1626875 C27.919625,11.3820625 27.840875,11.6233125 27.759625,11.8645625 C27.694,12.1114375 27.624625,12.3601875 27.5915,12.6151875 C27.537125,12.8658125 27.532125,13.1451875 27.500875,13.4089375 L27.500875,13.4126875 C27.4965,13.4470625 27.465875,13.4714375 27.4315,13.4676875 C27.4015,13.4639375 27.379625,13.4401875 27.3765,13.4120625 Z M19.10375,36.0344375 C19.305,35.6000625 19.49875,35.1688125 19.641875,34.7363125 C19.798125,34.3025625 19.896875,33.8569375 19.960625,33.4200625 C19.97625,33.2006875 20,32.9825625 19.981875,32.7694375 C19.97625,32.5569375 19.951875,32.3469375 19.899375,32.1494375 C19.85375,31.9506875 19.785,31.7594375 19.688125,31.5900625 C19.599375,31.4150625 19.48125,31.2625625 19.355,31.1225625 C18.84125,30.5694375 17.9825,30.3919375 17.39125,30.7019375 C17.244375,30.7775625 17.116875,30.8831875 17.00875,31.0075625 C16.89875,31.1313125 16.806875,31.2775625 16.739375,31.4444375 C16.670625,31.6113125 16.628125,31.7950625 16.5975,31.9888125 C16.5625,32.1813125 16.56125,32.3875625 16.5575,32.5944375 L16.55625,32.6613125 C16.55125,32.9506875 16.311875,33.1813125 16.0225,33.1763125 C15.7425,33.1713125 15.518125,32.9463125 15.508125,32.6694375 C15.4825,31.9044375 15.53375,31.1844375 15.51625,30.4625625 C15.50375,29.7450625 15.458125,29.0294375 15.289375,28.3488125 C15.210625,28.0063125 15.0675,27.6900625 14.9,27.3919375 C14.80875,27.2506875 14.703125,27.1169375 14.589375,26.9938125 C14.455,26.8981875 14.34875,26.7569375 14.191875,26.6938125 C14.043125,26.6194375 13.90125,26.5263125 13.73,26.5025625 C13.5675,26.4575625 13.401875,26.4219375 13.2275,26.4300625 C12.8925,26.4063125 12.50125,26.4288125 12.206875,26.5300625 C11.89,26.6306875 11.606875,26.8075625 11.403125,27.0600625 C11.195625,27.3081875 11.05375,27.6113125 10.96,27.9338125 C10.77,28.5819375 10.764375,29.2944375 10.816875,29.9950625 C10.933125,31.4063125 11.2525,32.8056875 11.60875,34.2150625 C11.688125,34.5288125 11.498125,34.8481875 11.18375,34.9275625 C11.023125,34.9675625 10.86125,34.9381875 10.730625,34.8569375 L10.704375,34.8400625 C10.155,34.4963125 9.57875,34.1806875 9.0225,34.0075625 C8.75,33.9200625 8.473125,33.8831875 8.308125,33.9113125 C8.23125,33.9294375 8.194375,33.9488125 8.1825,33.9575625 C8.17125,33.9650625 8.1575,33.9863125 8.139375,34.0525625 C8.096875,34.1800625 8.125,34.4531875 8.198125,34.7088125 C8.275,34.9713125 8.38375,35.2500625 8.524375,35.5188125 C8.801875,36.0619375 9.185625,36.5713125 9.605,37.0506875 L9.633125,37.0825625 C9.8525,37.3338125 9.826875,37.7150625 9.57625,37.9350625 C9.489375,38.0113125 9.38375,38.0581875 9.278125,38.0763125 C8.47125,38.2113125 7.71,38.1275625 7.10125,38.1788125 C6.795,38.2025625 6.55,38.2725625 6.3425,38.4163125 C6.236875,38.4856875 6.14125,38.5781875 6.05125,38.6881875 C6.009375,38.7469375 5.955625,38.7931875 5.919375,38.8619375 L5.798125,39.0569375 L5.775625,39.1000625 C5.686875,39.2381875 5.600625,39.3781875 5.540625,39.5263125 C5.479375,39.6738125 5.44,39.8263125 5.420625,39.9825625 C5.404375,40.1388125 5.414375,40.2963125 5.445,40.4544375 C5.484375,40.6100625 5.54,40.7650625 5.623125,40.9131875 C5.780625,41.2131875 6.02625,41.4844375 6.3175,41.7075625 C6.461875,41.8213125 6.62125,41.9188125 6.785625,42.0100625 C6.949375,42.1038125 7.121875,42.1813125 7.29875,42.2563125 C7.33125,42.2694375 7.346875,42.3056875 7.334375,42.3375625 C7.32375,42.3650625 7.29375,42.3806875 7.26625,42.3769375 C6.8775,42.3144375 6.49,42.1969375 6.12875,42.0069375 C5.9475,41.9144375 5.771875,41.8038125 5.60875,41.6725625 C5.443125,41.5438125 5.290625,41.3913125 5.156875,41.2194375 C5.0225,41.0469375 4.92,40.8475625 4.8375,40.6363125 C4.76375,40.4225625 4.718125,40.1950625 4.711875,39.9644375 C4.708125,39.7338125 4.736875,39.5044375 4.794375,39.2844375 C4.8525,39.0638125 4.941875,38.8600625 5.039375,38.6588125 L5.016875,38.7019375 L5.1425,38.4213125 C5.18,38.3269375 5.24625,38.2375625 5.29875,38.1456875 C5.41375,37.9644375 5.563125,37.7906875 5.74,37.6431875 C5.91375,37.4919375 6.12,37.3769375 6.328125,37.2869375 C6.536875,37.2038125 6.746875,37.1475625 6.949375,37.1106875 C7.35375,37.0369375 7.725625,37.0281875 8.07125,37.0006875 C8.416875,36.9763125 8.73875,36.9406875 9.036875,36.8694375 L8.71,37.8956875 C8.198125,37.3788125 7.74125,36.8006875 7.369375,36.1431875 C7.185625,35.8131875 7.015625,35.4638125 6.909375,35.0694375 C6.81125,34.6731875 6.71625,34.2450625 6.851875,33.7081875 C6.92,33.4475625 7.07,33.1500625 7.325625,32.9406875 C7.57875,32.7294375 7.874375,32.6363125 8.133125,32.6044375 C8.649375,32.5563125 9.055625,32.6719375 9.42625,32.7994375 C10.161875,33.0694375 10.7725,33.4538125 11.360625,33.8556875 L10.45625,34.4813125 C10.14875,33.0356875 9.895625,31.5369375 9.95375,30.0081875 C9.98625,29.2469375 10.085,28.4694375 10.38,27.7281875 C10.529375,27.3606875 10.74,27.0025625 11.03625,26.7150625 C11.330625,26.4294375 11.700625,26.2181875 12.089375,26.1225625 C12.501875,26.0244375 12.854375,26.0144375 13.250625,26.0438125 C13.44625,26.0400625 13.63875,26.0831875 13.83,26.1394375 C14.026875,26.1725625 14.203125,26.2688125 14.383125,26.3569375 C14.57125,26.4325625 14.70625,26.5894375 14.869375,26.7050625 C15.004375,26.8475625 15.136875,26.9981875 15.258125,27.1531875 C15.48125,27.4763125 15.653125,27.8281875 15.78875,28.1869375 C16.06625,28.9063125 16.21,29.6575625 16.315625,30.4000625 C16.41625,31.1413125 16.48375,31.8900625 16.556875,32.5888125 L15.5075,32.6638125 C15.491875,32.3988125 15.4775,32.1313125 15.50625,31.8544375 C15.53125,31.5794375 15.600625,31.3006875 15.705,31.0275625 C15.810625,30.7556875 15.965625,30.4919375 16.168125,30.2606875 C16.375625,30.0344375 16.62625,29.8444375 16.90375,29.7119375 C17.460625,29.4463125 18.094375,29.4138125 18.65625,29.5613125 C18.9375,29.6419375 19.205,29.7594375 19.445,29.9194375 C19.686875,30.0756875 19.9,30.2706875 20.08,30.4888125 C20.2575,30.7100625 20.4125,30.9500625 20.509375,31.2100625 C20.619375,31.4644375 20.685,31.7338125 20.71875,31.9988125 C20.7425,32.1319375 20.75,32.2644375 20.75,32.3969375 C20.756875,32.5288125 20.756875,32.6600625 20.738125,32.7888125 C20.7225,33.0500625 20.661875,33.2988125 20.608125,33.5463125 C20.475,34.0338125 20.27625,34.4900625 20.0375,34.9150625 C19.924375,35.1306875 19.77625,35.3300625 19.648125,35.5344375 C19.508125,35.7281875 19.35625,35.9106875 19.21125,36.0994375 C19.19,36.1263125 19.15,36.1319375 19.1225,36.1106875 C19.09875,36.0925625 19.091875,36.0606875 19.10375,36.0344375 Z M21.14175,9.3068125 C21.258,9.1243125 21.398,8.9455625 21.493625,8.7599375 C21.602375,8.5824375 21.69175,8.3955625 21.77175,8.2036875 C21.848625,8.0143125 21.9205,7.8230625 21.9555,7.6274375 C21.999875,7.4336875 22.021125,7.2393125 22.024875,7.0486875 C22.028,6.6668125 21.936125,6.2999375 21.7705,5.9761875 C21.68675,5.8149375 21.587375,5.6611875 21.464875,5.5280625 C21.348,5.3905625 21.212375,5.2693125 21.0705,5.1618125 C20.5005,4.7343125 19.718625,4.6211875 19.28425,4.9686875 C19.16675,5.0468125 19.077375,5.1661875 18.986125,5.2886875 L18.866125,5.4980625 L18.772375,5.7368125 C18.723,5.9080625 18.67925,6.0818125 18.6505,6.2711875 C18.606125,6.4530625 18.608625,6.6549375 18.58675,6.8480625 L17.5405,6.8480625 C17.572375,6.1668125 17.691125,5.5280625 17.774875,4.8949375 C17.863,4.2643125 17.943,3.6393125 17.928,3.0255625 C17.927375,2.7174375 17.871125,2.4193125 17.78925,2.1343125 C17.74925,1.9905625 17.678,1.8636875 17.618625,1.7286875 C17.5305,1.6161875 17.456125,1.4886875 17.352375,1.3893125 C17.14425,1.1905625 16.893,1.0305625 16.604875,0.9493125 C16.322375,0.8518125 16.014875,0.8280625 15.711125,0.8036875 L15.246125,0.8336875 C15.094875,0.8568125 14.969875,0.9030625 14.832375,0.9355625 C14.699875,0.9830625 14.573625,1.0636875 14.4455,1.1218125 C14.327375,1.2024375 14.218625,1.2961875 14.1055,1.3799375 C14.013,1.4899375 13.91175,1.5886875 13.8255,1.7018125 C13.75175,1.8268125 13.663,1.9374375 13.601125,2.0686875 C13.47425,2.3286875 13.37925,2.6043125 13.316125,2.8893125 C13.253,3.1761875 13.223,3.4693125 13.211125,3.7630625 C13.201125,4.0580625 13.218,4.3511875 13.251125,4.6424375 L13.31925,5.0743125 L13.42425,5.4943125 L13.56425,5.8974375 L13.738,6.2761875 C13.87425,6.5686875 13.748,6.9161875 13.4555,7.0530625 C13.279875,7.1343125 13.079875,7.1186875 12.922375,7.0318125 C12.60675,6.8543125 12.29175,6.6874375 11.986125,6.5599375 C11.683,6.4330625 11.3805,6.3555625 11.173625,6.3680625 C11.078,6.3880625 10.99925,6.3955625 10.938625,6.4474375 C10.87175,6.4830625 10.808,6.5618125 10.738,6.6505625 C10.674875,6.7549375 10.60425,6.8699375 10.54675,7.0105625 C10.512375,7.0711875 10.493625,7.1561875 10.4655,7.2274375 L10.4255,7.3386875 L10.421125,7.3524375 L10.419875,7.3561875 C10.414875,7.3768125 10.459875,7.1824375 10.4405,7.2655625 L10.4405,7.2680625 L10.43925,7.2761875 L10.433625,7.3111875 L10.422375,7.3799375 C10.4005,7.5543125 10.34675,7.7724375 10.351125,7.9105625 C10.3805,8.0243125 10.368625,8.1186875 10.392375,8.2474375 C10.4405,8.3805625 10.448625,8.5155625 10.51675,8.6536875 C10.59175,8.7911875 10.63175,8.9293125 10.729875,9.0718125 C10.82425,9.2136875 10.897375,9.3530625 11.008625,9.4999375 L11.32675,9.9430625 C11.54675,10.2443125 11.766125,10.5705625 11.982375,10.9024375 C12.157375,11.1711875 12.081125,11.5318125 11.81175,11.7068125 C11.729875,11.7599375 11.639875,11.7905625 11.548625,11.7986875 L11.533,11.7999375 L11.163,11.8330625 C11.038625,11.8424375 10.91925,11.8855625 10.79425,11.9068125 C10.668,11.9249375 10.552375,11.9805625 10.431125,12.0218125 C10.308,12.0593125 10.192375,12.1161875 10.0805,12.1793125 C9.963,12.2355625 9.849875,12.2974375 9.748,12.3768125 C9.64175,12.4505625 9.527375,12.5168125 9.436125,12.6068125 C9.338625,12.6911875 9.234875,12.7724375 9.158625,12.8724375 C9.07175,12.9661875 8.986125,13.0624375 8.928,13.1699375 C8.851125,13.2730625 8.802375,13.3811875 8.763,13.4924375 C8.70175,13.6043125 8.71425,13.7105625 8.68425,13.8243125 C8.7005,13.9255625 8.683625,14.0443125 8.73675,14.1380625 C8.761125,14.1855625 8.781125,14.2368125 8.801125,14.2905625 C8.828625,14.3399375 8.87675,14.3786875 8.913625,14.4255625 C8.979875,14.5280625 9.094875,14.5930625 9.206125,14.6649375 C9.30925,14.7493125 9.44425,14.7905625 9.574875,14.8411875 C9.8305,14.9618125 10.1255,14.9886875 10.409875,15.0668125 L10.421125,15.0699375 C10.453625,15.0786875 10.473625,15.1130625 10.46425,15.1461875 C10.456125,15.1736875 10.43175,15.1918125 10.404875,15.1918125 L9.9505,15.1968125 C9.79675,15.2080625 9.64425,15.1824375 9.489875,15.1518125 C9.3355,15.1236875 9.177375,15.1061875 9.027375,15.0318125 C8.87425,14.9705625 8.71675,14.9149375 8.582375,14.7918125 C8.514875,14.7355625 8.437375,14.6868125 8.377375,14.6193125 C8.323625,14.5449375 8.268625,14.4686875 8.218625,14.3880625 C8.11175,14.2330625 8.08675,14.0343125 8.04675,13.8536875 C8.05175,13.6749375 8.029875,13.4761875 8.0855,13.3111875 C8.1205,13.1343125 8.173,12.9655625 8.25175,12.8143125 C8.316125,12.6505625 8.40675,12.5093125 8.50175,12.3693125 C8.58925,12.2211875 8.70175,12.0993125 8.81175,11.9736875 C8.918,11.8418125 9.042375,11.7311875 9.1705,11.6243125 C9.293625,11.5099375 9.429875,11.4149375 9.571125,11.3255625 C9.70925,11.2305625 9.852375,11.1424375 10.006125,11.0749375 C10.158,11.0030625 10.3055,10.9186875 10.469875,10.8730625 C10.632375,10.8236875 10.7905,10.7555625 10.95925,10.7286875 L11.468625,10.6461875 L11.0205,11.5436875 C10.806125,11.2636875 10.588,10.9836875 10.3455,10.6986875 C10.22675,10.5586875 10.106125,10.3974375 9.98675,10.2474375 C9.86675,10.1005625 9.75175,9.9155625 9.634875,9.7505625 C9.51425,9.5880625 9.42175,9.3718125 9.317375,9.1818125 C9.214875,8.9868125 9.162375,8.7455625 9.08925,8.5261875 C9.028625,8.2930625 9.033,8.0068125 9.023625,7.7505625 C9.033625,7.5168125 9.078625,7.3680625 9.104875,7.1730625 L9.116125,7.1036875 L9.122375,7.0693125 L9.123625,7.0605625 L9.147375,6.9593125 L9.153625,6.9399375 L9.208,6.7874375 C9.248,6.6849375 9.273,6.5855625 9.326125,6.4811875 C9.41425,6.2761875 9.52675,6.0649375 9.677375,5.8624375 C9.841125,5.6624375 10.0355,5.4599375 10.30175,5.3205625 C10.558,5.1668125 10.86175,5.1155625 11.134875,5.1011875 C11.679875,5.1074375 12.10175,5.2799375 12.47925,5.4524375 C12.8555,5.6311875 13.19175,5.8343125 13.518,6.0386875 L12.70175,6.7943125 L12.497375,6.2868125 L12.353,5.7686875 L12.2605,5.2455625 L12.21675,4.7205625 C12.212375,4.3699375 12.228,4.0205625 12.276125,3.6743125 C12.33175,3.3293125 12.414875,2.9886875 12.533625,2.6574375 C12.653625,2.3274375 12.811125,2.0093125 13.007375,1.7130625 C13.103,1.5643125 13.228,1.4311875 13.337375,1.2924375 C13.4605,1.1636875 13.602375,1.0493125 13.733625,0.9305625 C13.888,0.8361875 14.038,0.7361875 14.196125,0.6555625 C14.3655,0.5955625 14.5255,0.5205625 14.7005,0.4786875 C14.878625,0.4511875 15.063,0.4036875 15.2305,0.3930625 L15.72925,0.3930625 C16.06425,0.4399375 16.399875,0.4636875 16.72675,0.5861875 C17.05175,0.6930625 17.363,0.8711875 17.626125,1.1093125 C17.756125,1.2280625 17.854875,1.3786875 17.96425,1.5168125 C18.038,1.6736875 18.143,1.8205625 18.201125,1.9830625 C18.331125,2.3049375 18.403,2.6405625 18.45925,2.9718125 C18.568,3.6386875 18.5755,4.3030625 18.57425,4.9524375 L18.567375,5.9168125 C18.563625,6.2336875 18.582375,6.5443125 18.58675,6.8480625 L18.58675,6.8568125 C18.5905,7.1455625 18.35925,7.3824375 18.069875,7.3861875 C17.781125,7.3899375 17.54425,7.1586875 17.5405,6.8699375 L17.5405,6.8480625 C17.548,6.6093125 17.531125,6.3743125 17.566125,6.1286875 C17.579875,5.8855625 17.6455,5.6393125 17.712375,5.3936875 L17.85175,5.0261875 C17.916125,4.9055625 17.978,4.7855625 18.04925,4.6680625 C18.211125,4.4399375 18.4055,4.2236875 18.65175,4.0624375 C18.888625,3.8868125 19.174875,3.7924375 19.453625,3.7286875 C19.734875,3.6843125 20.0205,3.6768125 20.28675,3.7286875 C20.822375,3.8268125 21.294875,4.0761875 21.678,4.4111875 C21.868625,4.5793125 22.048,4.7624375 22.18675,4.9749375 C22.33425,5.1799375 22.44925,5.4086875 22.538,5.6436875 C22.7205,6.1130625 22.76675,6.6299375 22.6855,7.1093125 C22.642375,7.3486875 22.584875,7.5836875 22.4855,7.7993125 C22.4005,8.0193125 22.278,8.2205625 22.15425,8.4124375 C22.027375,8.6030625 21.881125,8.7799375 21.723,8.9436875 C21.573625,9.1174375 21.39675,9.2393125 21.2355,9.3893125 C21.209875,9.4130625 21.1705,9.4111875 21.147375,9.3861875 C21.127375,9.3649375 21.1255,9.3330625 21.139875,9.3093125 L21.14175,9.3068125 Z M18.6325625,65.883375 L18.8106875,65.35775 L18.9294375,64.8415 L19.0031875,64.313375 C19.0194375,64.137125 19.0219375,63.958375 19.0325625,63.784 C19.0338125,63.430875 19.0269375,63.080875 18.9763125,62.734625 C18.9263125,62.3915 18.8731875,62.047125 18.7681875,61.7215 C18.7250625,61.555875 18.6731875,61.393375 18.6038125,61.239 C18.5413125,61.082125 18.4838125,60.924 18.4006875,60.78025 C18.2569375,60.480875 18.0756875,60.20525 17.8656875,59.96775 C17.6575625,59.728375 17.4250625,59.517125 17.1644375,59.362125 C16.9088125,59.198375 16.6231875,59.089625 16.3256875,59.0315 C16.1831875,59.01775 16.0044375,58.96025 15.8944375,58.969 C15.7175625,58.968375 15.5125625,58.949 15.3588125,58.963375 C15.2181875,58.989625 15.0800625,58.997125 14.9363125,59.02525 C14.7919375,59.07025 14.6375625,59.09275 14.4975625,59.150875 C14.2188125,59.269625 13.9463125,59.414 13.7000625,59.615875 C13.5781875,59.717125 13.4519375,59.81775 13.3488125,59.9465 C13.2338125,60.063375 13.1281875,60.1915 13.0356875,60.333375 C12.8356875,60.603375 12.6713125,60.909625 12.5269375,61.227125 C12.3800625,61.544 12.2619375,61.879 12.1613125,62.2215 C11.9650625,62.9065 11.8619375,63.628375 11.8531875,64.34775 L11.8525625,64.354625 C11.8513125,64.46275 11.7631875,64.549 11.6550625,64.54775 C11.5525625,64.5465 11.4688125,64.46525 11.4619375,64.364 C11.4206875,63.670875 11.3363125,62.984 11.2219375,62.304 C11.1050625,61.62525 10.9369375,60.95525 10.7025625,60.319 C10.5900625,59.999625 10.4600625,59.687125 10.3075625,59.39525 C10.1588125,59.099625 9.9806875,58.8265 9.7850625,58.58525 C9.5850625,58.348375 9.3625625,58.145875 9.1206875,58.02025 C8.9969375,57.968375 8.8863125,57.883375 8.7519375,57.877125 C8.6250625,57.8515 8.5025625,57.812125 8.3656875,57.837125 L8.1681875,57.84275 L8.1431875,57.84275 L8.1306875,57.84275 L8.1250625,57.84275 L8.1219375,57.84275 C8.1500625,57.83775 8.0544375,57.853375 8.1831875,57.8315 L8.1206875,57.848375 L7.9944375,57.8815 L7.7413125,57.948375 C7.6594375,57.9715 7.6506875,58.010875 7.6019375,58.03525 C7.5613125,58.064625 7.5200625,58.07775 7.4756875,58.11025 C7.4338125,58.155875 7.3900625,58.19775 7.3450625,58.239 C7.2456875,58.305875 7.1894375,58.437125 7.1113125,58.53775 C6.9731875,58.764625 6.8788125,59.042125 6.8050625,59.33275 C6.7431875,59.630875 6.7006875,59.940875 6.6844375,60.2615 C6.6494375,60.902125 6.7044375,61.56275 6.7819375,62.2215 C6.8563125,62.879625 6.9875625,63.54275 7.1419375,64.173375 C7.2300625,64.5315 7.0106875,64.893375 6.6525625,64.9815 C6.4031875,65.04275 6.1500625,64.95275 5.9906875,64.773375 L5.7831875,64.539 C5.7181875,64.457125 5.6338125,64.39525 5.5606875,64.3215 C5.4088125,64.1815 5.2431875,64.05275 5.0719375,63.950875 C4.9025625,63.842125 4.7219375,63.75525 4.5500625,63.699625 C4.3769375,63.630875 4.2075625,63.607125 4.0775625,63.6115 C4.0075625,63.609 3.9650625,63.630875 3.9156875,63.639 C3.8838125,63.662125 3.8381875,63.668375 3.8175625,63.7065 C3.7763125,63.72025 3.7663125,63.790875 3.7306875,63.83525 C3.7050625,63.894 3.6994375,63.9815 3.6719375,64.053375 L3.6600625,64.33275 C3.6594375,64.429625 3.6825625,64.53775 3.6913125,64.64025 C3.7050625,64.847125 3.7856875,65.06775 3.8281875,65.283375 L3.8400625,65.34025 C3.8913125,65.600875 3.7219375,65.854 3.4613125,65.905875 C3.3300625,65.9315 3.2000625,65.900875 3.0981875,65.8315 L2.8669375,65.67525 C2.7925625,65.610875 2.7119375,65.584625 2.6325625,65.54775 C2.5531875,65.5065 2.4731875,65.4715 2.3931875,65.464625 C2.3131875,65.4465 2.2300625,65.4215 2.1525625,65.435875 C2.0719375,65.434625 1.9900625,65.43525 1.9150625,65.46775 C1.8338125,65.4815 1.7581875,65.514625 1.6875625,65.562125 C1.6075625,65.59525 1.5450625,65.658375 1.4781875,65.71775 C1.4031875,65.769 1.3594375,65.854 1.2994375,65.924 C1.2363125,65.994625 1.2100625,66.089 1.1600625,66.170875 C1.1163125,66.255875 1.0956875,66.3515 1.0600625,66.443375 C1.0363125,66.537125 1.0294375,66.63525 1.0106875,66.733375 L1.0206875,67.030875 C1.0469375,67.12525 1.0619375,67.2265 1.0950625,67.3215 C1.1431875,67.409 1.1763125,67.509 1.2350625,67.59275 C1.3025625,67.669 1.3575625,67.762125 1.4338125,67.8365 L1.6856875,68.042125 L1.6963125,68.050875 C1.7225625,68.07275 1.7263125,68.1115 1.7050625,68.13775 C1.6863125,68.160875 1.6550625,68.1665 1.6294375,68.154 L1.3106875,67.993375 C1.2094375,67.929625 1.1200625,67.844625 1.0256875,67.764 C0.9388125,67.677125 0.8750625,67.568375 0.7988125,67.46775 C0.7363125,67.359625 0.6931875,67.239625 0.6406875,67.12275 C0.6094375,67.0015 0.5819375,66.875875 0.5594375,66.749 C0.5569375,66.62275 0.5463125,66.49275 0.5544375,66.364 C0.5763125,66.238375 0.5825625,66.10525 0.6225625,65.980875 C0.6706875,65.86025 0.6975625,65.72775 0.7688125,65.614625 C0.8375625,65.500875 0.8913125,65.375875 0.9894375,65.2765 C1.0775625,65.1715 1.1663125,65.064625 1.2856875,64.985875 C1.3950625,64.893375 1.5163125,64.819 1.6544375,64.76775 C1.7856875,64.699 1.9269375,64.669625 2.0731875,64.649 C2.2194375,64.614 2.3613125,64.625875 2.5050625,64.63775 C2.6544375,64.639 2.7875625,64.674 2.9188125,64.717125 C3.0525625,64.7565 3.1906875,64.794 3.3025625,64.8615 L3.6544375,65.0515 L2.9238125,65.60025 C2.8444375,65.344625 2.7344375,65.109625 2.6819375,64.832125 C2.6563125,64.694 2.6175625,64.563375 2.6031875,64.41775 C2.5931875,64.268375 2.5819375,64.119 2.5800625,63.9665 C2.6038125,63.800875 2.6144375,63.639625 2.6681875,63.47025 C2.7413125,63.29775 2.7931875,63.122125 2.9388125,62.96775 C3.0575625,62.799 3.2275625,62.685875 3.4050625,62.583375 C3.5769375,62.504 3.7725625,62.43775 3.9438125,62.420875 C4.1181875,62.40275 4.2956875,62.392125 4.4506875,62.41775 C4.6163125,62.429 4.7656875,62.463375 4.9113125,62.505875 C5.2063125,62.587125 5.4719375,62.709 5.7188125,62.852125 C5.9700625,62.990875 6.1994375,63.1565 6.4125625,63.337125 C6.5156875,63.4315 6.6306875,63.51525 6.7231875,63.618375 L7.0113125,63.92275 L5.8600625,64.52275 C5.6613125,63.8065 5.5456875,63.0965 5.4606875,62.372125 C5.4144375,62.010875 5.4006875,61.64525 5.3956875,61.277125 C5.3888125,60.909625 5.4050625,60.53775 5.4388125,60.164 C5.4750625,59.789625 5.5419375,59.4115 5.6406875,59.03275 C5.7538125,58.653375 5.8994375,58.27025 6.1394375,57.912125 C6.2744375,57.738375 6.3825625,57.552125 6.5700625,57.41275 L6.8300625,57.19525 C6.9288125,57.13025 7.0506875,57.077125 7.1625625,57.02275 C7.2713125,56.975875 7.4069375,56.90775 7.4938125,56.89025 L7.7500625,56.839625 L7.8781875,56.814625 L7.9425625,56.802125 C8.0738125,56.78025 7.9819375,56.795875 8.0125625,56.7915 L8.0181875,56.7915 L8.0275625,56.7915 L8.0475625,56.792125 L8.0888125,56.79275 L8.4125625,56.804625 C8.6288125,56.799 8.8400625,56.869625 9.0481875,56.93775 C9.2644375,56.98775 9.4375625,57.120875 9.6206875,57.229625 C9.9694375,57.470875 10.2319375,57.785875 10.4425625,58.10775 C10.6488125,58.433375 10.8125625,58.7715 10.9375625,59.11525 C11.0713125,59.4565 11.1756875,59.80275 11.2588125,60.150875 C11.4288125,60.8465 11.5375625,61.54525 11.6275625,62.242125 C11.7238125,62.939 11.7800625,63.63775 11.8525625,64.332125 L11.4613125,64.34775 C11.4600625,63.599625 11.5075625,62.850875 11.6281875,62.10275 C11.6881875,61.728375 11.7681875,61.354 11.8844375,60.985875 C11.9975625,60.6165 12.1363125,60.248375 12.3325625,59.90025 C12.4213125,59.7215 12.5281875,59.550875 12.6519375,59.3865 C12.7613125,59.214625 12.9031875,59.06275 13.0463125,58.910875 C13.3300625,58.602125 13.6894375,58.355875 14.0781875,58.17025 C14.2706875,58.0765 14.4800625,58.02275 14.6838125,57.950875 C14.8963125,57.89775 15.1275625,57.879625 15.3494375,57.849625 C15.5606875,57.83275 15.7244375,57.849 15.9138125,57.847125 C16.1731875,57.839625 16.3506875,57.908375 16.5706875,57.943375 C16.9863125,58.039625 17.3956875,58.212125 17.7500625,58.454 C18.1094375,58.6865 18.4231875,58.987125 18.6688125,59.3215 C18.9213125,59.652125 19.1213125,60.013375 19.2706875,60.385875 C19.3588125,60.568375 19.4150625,60.76025 19.4675625,60.952125 C19.5288125,61.142125 19.5694375,61.334625 19.5994375,61.529 C19.6763125,61.914625 19.7075625,62.30525 19.7031875,62.69275 C19.7031875,63.08025 19.6644375,63.46525 19.6006875,63.843375 C19.5275625,64.2215 19.4250625,64.590875 19.2888125,64.947125 L19.0444375,65.470875 L18.7450625,65.93775 C18.7256875,65.967125 18.6875625,65.97525 18.6581875,65.9565 C18.6331875,65.940875 18.6231875,65.909625 18.6325625,65.883375 Z M28.15775,46.377125 L28.114,45.834625 C28.089,45.655875 28.107125,45.470875 28.128375,45.28025 C28.154,45.093375 28.14775,44.89275 28.209,44.71275 C28.260875,44.529625 28.297125,44.339 28.3665,44.15775 C28.448375,43.9815 28.52275,43.79775 28.619,43.62525 C28.73775,43.46525 28.848375,43.295875 28.98025,43.142125 C29.134,43.00775 29.269625,42.847125 29.448375,42.73525 C29.63025,42.628375 29.804625,42.500875 30.019625,42.448375 C30.124,42.415875 30.228375,42.379625 30.334625,42.353375 L30.6715,42.32525 C30.897125,42.288375 31.125875,42.37525 31.353375,42.408375 C31.5565,42.5115 31.799625,42.58025 31.962125,42.74525 C32.143375,42.892125 32.31275,43.05025 32.42525,43.244 C32.48775,43.3365 32.555875,43.429 32.609,43.52525 L32.730875,43.823375 C32.769625,43.924 32.812125,44.024625 32.845875,44.12525 L32.90525,44.429625 C32.942125,44.63275 32.9865,44.84025 32.9765,45.03775 L32.9815,45.638375 L31.897125,45.544 C31.95275,45.00025 32.085875,44.50275 32.27275,44.02275 C32.464625,43.5465 32.704625,43.08775 33.0165,42.6665 C33.17525,42.45775 33.343375,42.25275 33.54275,42.069 C33.7315,41.879625 33.9515,41.707125 34.199,41.57275 C34.32025,41.502125 34.444,41.43525 34.582125,41.389625 C34.71525,41.335875 34.85025,41.28775 34.9965,41.2665 C35.139,41.234 35.2815,41.2115 35.429,41.21775 C35.574625,41.21275 35.719,41.21525 35.858375,41.249 L36.068375,41.288375 L36.12025,41.299 C36.20025,41.3215 36.165875,41.314 36.194625,41.323375 L36.27775,41.35525 C36.392125,41.402125 36.48775,41.424 36.63275,41.512125 C36.908375,41.659 37.124625,41.8365 37.2965,42.057125 C37.479,42.268375 37.599,42.515875 37.69275,42.759 C37.7865,43.004 37.8415,43.253375 37.880875,43.499625 C37.967125,43.992125 37.972125,44.479 37.969,44.958375 C37.9715,45.438375 37.94025,45.91275 37.94025,46.379 L37.56525,46.34525 C37.66275,45.954 37.710875,45.552125 37.85025,45.168375 C37.914,44.975875 37.964625,44.778375 38.037125,44.587125 L38.289,44.02275 C38.382125,43.838375 38.500875,43.66275 38.60775,43.4815 C38.7165,43.300875 38.8765,43.150875 39.01275,42.984 C39.16275,42.829 39.34775,42.702125 39.520875,42.56525 C39.7215,42.4715 39.9115,42.33775 40.13025,42.283375 C40.347125,42.217125 40.5665,42.15275 40.792125,42.1465 C41.019625,42.11275 41.240875,42.134625 41.464625,42.15525 C41.690875,42.1665 41.897125,42.240875 42.1165,42.284625 C42.323375,42.354 42.53025,42.428375 42.730875,42.514 C43.1215,42.704 43.493375,42.9265 43.834,43.18775 C44.1715,43.4515 44.484625,43.744625 44.768375,44.064 C45.054625,44.3815 45.308375,44.72775 45.532125,45.09525 C45.7565,45.4615 45.953375,45.849625 46.10275,46.262125 C46.17775,46.468375 46.254,46.674625 46.29775,46.89525 C46.354625,47.11025 46.399625,47.329625 46.417125,47.55775 C46.452125,47.782125 46.45525,48.012125 46.443375,48.244625 C46.450875,48.4765 46.40025,48.708375 46.359625,48.9415 C46.270875,49.40775 46.064625,49.85025 45.807125,50.252125 C45.67275,50.447125 45.510875,50.620875 45.359625,50.80275 C45.194,50.965875 45.01275,51.109625 44.837125,51.260875 C44.467125,51.524625 44.073375,51.754625 43.66525,51.908375 C43.264625,52.102125 42.8465,52.179 42.437125,52.309 L42.142125,51.070875 C42.389625,51.032125 42.629625,50.979625 42.885875,50.9715 C43.137125,50.950875 43.399,50.9665 43.657125,50.994625 C44.174625,51.057125 44.70525,51.24025 45.148375,51.560875 C45.368375,51.720875 45.57025,51.908375 45.7315,52.12275 C45.902125,52.330875 46.03025,52.565875 46.135875,52.804 C46.242125,53.04275 46.310875,53.2915 46.36275,53.54025 C46.408375,53.79025 46.427125,54.0415 46.420875,54.290875 C46.3915,55.283375 45.99775,56.24275 45.31275,56.925875 C45.14525,57.09775 44.95025,57.244 44.7465,57.365875 C44.545875,57.492125 44.33025,57.595875 44.108375,57.667125 C43.889,57.749 43.66025,57.7965 43.433375,57.82775 C43.205875,57.859 42.97775,57.852125 42.754,57.848375 C42.719,57.847125 42.6915,57.819 42.692125,57.784 C42.69275,57.754 42.714625,57.729625 42.743375,57.724 L42.749,57.72275 C42.964,57.683375 43.1765,57.645875 43.379,57.57525 C43.582125,57.51275 43.78025,57.4365 43.960875,57.3315 C44.145875,57.2365 44.3165,57.1165 44.469,56.980875 C44.62525,56.850875 44.762125,56.699 44.883375,56.539 C45.3815,55.908375 45.59775,55.082125 45.5265,54.314625 C45.489,53.930875 45.390875,53.56025 45.21525,53.244 C45.12775,53.08775 45.029625,52.93775 44.907125,52.8165 C44.792125,52.687125 44.65525,52.584625 44.514625,52.493375 C44.229625,52.314 43.894,52.21775 43.53525,52.19775 C43.35525,52.1915 43.173375,52.189 42.9865,52.21775 C42.800875,52.22775 42.610875,52.278375 42.42275,52.31275 C42.077125,52.374 41.745875,52.144 41.684625,51.79775 C41.629,51.489 41.8065,51.19275 42.09025,51.088375 L42.128375,51.074625 C42.467125,50.949625 42.834,50.873375 43.1415,50.70525 C43.47275,50.5715 43.752125,50.3765 44.0315,50.19275 C44.154,50.083375 44.2865,49.984 44.403375,49.872125 C44.50025,49.747125 44.614625,49.63275 44.70525,49.504 C44.870875,49.238375 45.00775,48.95775 45.083375,48.648375 C45.11525,48.492125 45.16275,48.339 45.16025,48.172125 C45.1765,48.009625 45.183375,47.844625 45.1615,47.67525 C45.158375,47.507125 45.13025,47.338375 45.092125,47.169 C45.068375,46.99775 45.012125,46.830875 44.958375,46.66275 C44.740875,45.9915 44.374625,45.349625 43.9215,44.7815 C43.465875,44.215875 42.920875,43.7115 42.30525,43.349 C42.149625,43.264625 41.990875,43.185875 41.83025,43.11025 C41.66525,43.062125 41.502125,42.977125 41.33275,42.953375 C41.164625,42.92025 40.994,42.880875 40.82525,42.890875 C40.6515,42.873375 40.487125,42.9065 40.319,42.937125 C40.14775,42.958375 40.00025,43.054 39.834625,43.10525 C39.6915,43.203375 39.534,43.285875 39.398375,43.4015 C39.127125,43.6365 38.893375,43.925875 38.69275,44.244625 L38.433375,44.750875 C38.35775,44.925875 38.298375,45.11025 38.23025,45.289625 C38.0915,45.649 38.038375,46.039 37.937125,46.413375 L37.93275,46.429625 C37.905875,46.53025 37.802125,46.589625 37.7015,46.562125 C37.617125,46.539625 37.562125,46.46275 37.562125,46.379 C37.568375,45.42775 37.613375,44.479 37.3915,43.60275 C37.3315,43.38775 37.258375,43.179625 37.159,42.99275 C37.060875,42.807125 36.94775,42.632125 36.8015,42.503375 C36.669,42.363375 36.489,42.260875 36.342125,42.20275 C36.284625,42.163375 36.14525,42.13775 36.035875,42.10775 L35.95025,42.08525 C35.950875,42.085875 35.888375,42.068375 35.94025,42.084 L35.904625,42.082125 L35.76275,42.074 C35.669625,42.059625 35.577125,42.072125 35.487125,42.0865 C35.395875,42.09025 35.30775,42.11775 35.222125,42.149 C35.133375,42.169625 35.05025,42.21275 34.968375,42.259 C34.884625,42.29525 34.8065,42.352125 34.729625,42.410875 C34.649625,42.4615 34.577125,42.528375 34.50525,42.598375 C34.429,42.659625 34.35775,42.73025 34.290875,42.809 C34.150875,42.954 34.02775,43.12525 33.9115,43.30025 C33.67775,43.65025 33.469,44.032125 33.3165,44.4365 C33.159625,44.835875 33.029625,45.25525 32.98025,45.652125 C32.94275,45.95025 32.670875,46.162125 32.37275,46.124625 C32.094625,46.09025 31.892125,45.8515 31.89525,45.57775 L31.895875,45.55775 L31.904625,45.0765 C31.920875,44.9115 31.884625,44.764625 31.8665,44.6115 L31.84025,44.382125 L31.77275,44.17525 L31.70775,43.9665 C31.677125,43.904 31.6365,43.850875 31.604,43.790875 C31.545875,43.659625 31.4515,43.572125 31.358375,43.48275 C31.277125,43.37275 31.144625,43.354 31.04525,43.2665 C30.918375,43.25275 30.80275,43.165875 30.664625,43.185875 L30.460875,43.178375 L30.254,43.223375 C30.109,43.234625 29.984,43.324625 29.843375,43.375875 C29.70525,43.435875 29.592125,43.548375 29.459,43.630875 C29.34275,43.7365 29.239625,43.86025 29.12525,43.974625 L28.8465,44.383375 C28.76025,44.5265 28.70275,44.6865 28.62775,44.840875 C28.542125,44.994 28.524,45.1615 28.47025,45.32525 C28.419,45.489 28.37775,45.659625 28.360875,45.843375 L28.282125,46.3815 C28.277125,46.415875 28.245875,46.439625 28.2115,46.434625 C28.1815,46.43025 28.159625,46.405875 28.15775,46.377125 Z" id="Combined-Shape"></path>
            </g>
            <path d="M26.1277311,88.2879643 C22.6673154,87.7323736 19.4150157,86.0853706 17.0743125,83.309125 C14.5005625,80.256625 14.1880625,75.93725 14.4461875,72.13475 C14.5043125,71.27975 15.2149375,71.27475 15.1568125,72.13475 C14.9118125,75.7435 15.7474375,80.039125 18.4055625,82.8235 C20.531016,85.0493812 23.2758259,86.0008607 26.2129021,86.3661992 C26.5547863,78.8345581 26.985962,71.3828555 27.4265975,63.9396104 C23.4385721,64.0154359 19.6035018,62.1227694 17.8801875,58.2020625 C16.1939375,54.3658125 16.0333125,50.1239375 15.6339375,46.0095625 C15.5501875,45.1520625 16.2620625,45.1601875 16.3445625,46.0095625 C17.0592542,53.3690892 18.0407475,62.2876228 27.5430093,61.9761106 C28.1351004,51.9994156 28.7315753,42.0266228 29.1401192,31.8855339 C23.0656766,30.0357724 21.2411895,22.3772627 21.5714375,16.717875 C21.6208125,15.861625 22.3326875,15.85725 22.2820625,16.717875 C21.9929683,21.6707822 23.9416376,28.0721596 29.218244,29.8821368 C29.4852294,22.7967223 29.6547399,15.6240178 29.661625,8.3056875 C29.662875,7.1569375 30.819125,7.1569375 30.817875,8.3056875 C30.8074954,19.3384681 30.592769,30.0402821 30.2971191,40.611002 C30.3092457,40.6120505 30.3214776,40.613525 30.3338125,40.6154375 C40.1138125,42.1329375 40.4119375,30.0698125 40.4050625,23.4473125 C40.4038125,22.5860625 41.1150625,22.5860625 41.1156875,23.4473125 C41.1237468,31.1266065 40.9245725,44.0162577 30.2414621,42.5674746 C29.9730267,51.8521243 29.6478742,61.0448903 29.3500054,70.2818038 C32.9914233,70.234699 37.0256473,69.3296484 39.10925,66.05175 C41.328,62.562375 41.916125,58.44675 41.219875,54.499875 C41.071125,53.657375 41.733,53.297375 41.883,54.144875 C42.67425,58.628 42.6855,63.402375 39.898,67.22675 C37.4520803,70.5824505 33.2301664,72.1371584 29.2873791,72.2381075 C28.8506809,85.9873093 28.4874582,99.8554187 28.474125,114.290063 C28.472875,115.438813 25.504125,115.438813 25.505375,114.290063 C25.5135458,105.444277 25.7593482,96.8112496 26.1277311,88.2879643 Z" id="Combined-Shape" fill="#534741"></path>
        </g>
    </g>
</svg>