<?xml version="1.0" encoding="UTF-8"?>
<svg width="120px" height="120px" viewBox="0 0 120 120" version="1.1" xmlns="http://www.w3.org/2000/svg" xmlns:xlink="http://www.w3.org/1999/xlink">
    <!-- Generator: Sketch 51.1 (57501) - http://www.bohemiancoding.com/sketch -->
    <title>Tambourine5</title>
    <desc>Created with Sketch.</desc>
    <defs></defs>
    <g id="Tambourine5" stroke="none" stroke-width="1" fill="none" fill-rule="evenodd">
        <g id="Group" transform="translate(0.000000, 19.000000)" fill-rule="nonzero">
            <ellipse id="Oval" fill="#E5DBBA" cx="60.1232877" cy="12.628" rx="12.369863" ry="12.341"></ellipse>
            <ellipse id="Oval" fill="#E5DBBA" cx="88.6849315" cy="23.042" rx="12.369863" ry="12.341"></ellipse>
            <ellipse id="Oval" fill="#E5DBBA" cx="107.465753" cy="47.765" rx="12.369863" ry="12.341"></ellipse>
            <ellipse id="Oval" fill="#E5DBBA" cx="31.5205479" cy="23.042" rx="12.369863" ry="12.341"></ellipse>
            <ellipse id="Oval" fill="#E5DBBA" cx="12.739726" cy="47.765" rx="12.369863" ry="12.341"></ellipse>
            <path d="M100.027397,81.754 L99.6164384,81.754 C94.1506849,81.754 89.3424658,78.187 87.6575342,72.898 C84.6164384,63.181 73.5205479,56.375 60.739726,56.375 C47.9589041,56.375 36.9041096,63.181 33.8219178,72.898 C32.1369863,78.187 27.369863,81.754 21.8630137,81.754 L21.4520548,81.754 C15.6164384,81.754 10.4794521,77.613 9.24657534,71.914 C8.34246575,67.691 7.97260274,63.345 8.1369863,58.999 C8.63013699,45.551 14.260274,32.923 23.9589041,23.452 C33.6986301,13.981 46.4794521,8.651 59.9589041,8.487 C60.2054795,8.487 60.4520548,8.487 60.6986301,8.487 C89.7123288,8.487 113.30137,32.021 113.30137,60.967 C113.30137,64.657 112.931507,68.388 112.150685,71.955 C111,77.613 105.90411,81.754 100.027397,81.754 Z M60.7808219,48.011 C77.1780822,48.011 91.5205479,57.195 95.6712329,70.397 C96.2465753,72.201 97.8493151,73.431 99.6575342,73.431 L100.068493,73.431 C102,73.431 103.684932,72.078 104.09589,70.233 C104.753425,67.199 105.082192,64.083 105.082192,60.967 C105.082192,36.408 84.9041096,16.523 60.2054795,16.851 C48.8630137,17.015 38.1369863,21.484 29.9589041,29.438 C21.7808219,37.433 17.0547945,48.011 16.6438356,59.327 C16.5205479,62.976 16.8082192,66.666 17.5890411,70.192 C18,72.078 19.6849315,73.431 21.6164384,73.431 L22.0273973,73.431 C23.8356164,73.431 25.4383562,72.201 26.0136986,70.397 C30.0410959,57.195 44.3835616,48.011 60.7808219,48.011 Z" id="Shape" fill="#5892CD"></path>
        </g>
    </g>
</svg>