<?xml version="1.0" encoding="UTF-8"?>
<svg width="100px" height="100px" viewBox="0 0 100 100" version="1.1" xmlns="http://www.w3.org/2000/svg" xmlns:xlink="http://www.w3.org/1999/xlink">
    <!-- Generator: Sketch 48.2 (47327) - http://www.bohemiancoding.com/sketch -->
    <title>Neuron 蜂鸣器 万圣节装扮（2）</title>
    <desc>Created with Sketch.</desc>
    <defs>
        <polygon id="path-1" points="23.7510733 0.0813206157 23.7510733 21.1112682 0.17349344 21.1112682 0.17349344 0.0813206157 23.7510733 0.0813206157"></polygon>
    </defs>
    <g id="裁剪面板" stroke="none" stroke-width="1" fill="none" fill-rule="evenodd">
        <g id="Neuron-蜂鸣器-万圣节装扮（2）">
            <g id="Page-1" transform="translate(3.600000, 13.000000)">
                <path d="M23.2394211,37.4375363 C23.1897304,37.2191372 22.9852064,37.1012054 22.8040874,37.1860083 C22.532949,37.3127625 22.2546091,37.4281737 21.9692477,37.5306214 C17.1722949,39.2545873 12.2484149,36.7947625 10.97158,32.0366165 C10.7472517,31.2008307 10.6507509,30.3499207 10.669655,29.5053124 C10.6773967,29.1628599 10.3979765,28.9053903 10.1151356,29.0067577 C10.1117149,29.008018 10.1082942,29.0090983 10.1050535,29.0103586 C4.6226932,30.9804511 1.55861355,37.7205727 3.26106006,44.0647674 C3.32605405,44.3067528 3.57540773,44.4028988 3.75436626,44.2566993 C4.18843971,43.9018234 4.67724494,43.6187869 5.2121401,43.4264949 C7.68551258,42.5377747 10.2971548,43.8953416 11.4092542,46.4995655 C11.5052149,46.7244462 11.7561889,46.779181 11.919124,46.6138964 C12.3434754,46.1830399 12.8506446,45.8454487 13.4246081,45.6392929 C15.1634225,45.0145241 16.9879353,45.7768501 18.008575,47.3846847 C18.1749308,47.6466555 18.5350083,47.5474487 18.5852391,47.2276822 C19.0544201,44.2437358 20.8124986,41.6297893 23.3751703,40.4544316 C23.5004773,40.3969961 23.5820349,40.2540375 23.5775339,40.0981153 C23.5517884,39.2155168 23.4414246,38.3240959 23.2394211,37.4375363" id="Fill-1" fill="#808080"></path>
                <g id="Group-5" transform="translate(0.000000, 22.533810)" fill="#27221F">
                    <path d="M2.30305581,10.441292 C1.66535853,10.3255207 1.0330624,10.3150779 0.423631202,10.39718 C0.172477132,10.4312092 -0.0390684109,10.2124501 0.00612131783,9.96308273 C1.19275678,3.4269562 7.4528845,-0.909695864 13.9888316,0.276824818 C13.9927924,0.277545012 13.9967533,0.278265207 14.0007141,0.278985401 C14.3377467,0.340562044 14.5053628,0.718304136 14.339187,1.01790511 C13.9294188,1.75664477 13.6348754,2.56272263 13.4786017,3.42371533 C12.5886702,8.32590024 16.5032529,13.1416618 22.2221841,14.1800024 C22.5624574,14.2417591 22.9012903,14.2883917 23.2379628,14.3209805 C23.4630112,14.3425864 23.6183847,14.5564842 23.5683339,14.7770438 C23.3656103,15.6711655 23.0667459,16.520635 22.6850638,17.3169903 C22.6177293,17.4576083 22.467937,17.5407908 22.3129236,17.5245864 C19.1399205,17.1956375 16.1276921,18.5726496 14.2666314,20.9672968 C14.0671484,21.2238662 13.651799,21.1192579 13.6022884,20.797871 C13.298563,18.8263382 11.7790359,17.1738516 9.70624961,16.7975499 C9.02192229,16.6733163 8.34551667,16.7012238 7.71088004,16.8560657 C7.4672876,16.9156618 7.2350376,16.7327324 7.24043876,16.4819246 C7.30363236,13.5779197 5.25191066,10.9765766 2.30305581,10.441292" id="Fill-3"></path>
                </g>
                <path d="M24.8312878,38.6026672 C24.8312878,40.0317134 24.246882,41.1901465 23.5258268,41.1901465 C22.8049516,41.1901465 22.2205458,40.0317134 22.2205458,38.6026672 C22.2205458,37.1736209 22.8049516,36.0151878 23.5258268,36.0151878 C24.246882,36.0151878 24.8312878,37.1736209 24.8312878,38.6026672" id="Fill-6" fill="#27221F"></path>
                <path d="M50.6589281,0.601866667 L59.0116463,10.9451221 C59.2172506,11.1997109 59.2970078,11.5338813 59.228413,11.8540078 L57.9553589,17.789672 C57.8484159,18.2898472 57.4064208,18.6470637 56.8951107,18.6470637 L47.1206264,18.6470637 C46.2620215,18.6470637 45.74387,17.6967669 46.2087301,16.9751319 L49.6490907,11.6339883 C49.7846599,11.4236915 49.8431725,11.1730637 49.8150865,10.9245966 L48.7373744,1.4052438 C48.6153082,0.327112409 49.9771213,-0.242381509 50.6589281,0.601866667" id="Fill-8" fill="#27221F"></path>
                <g id="Group-12" transform="translate(25.565504, 0.027727)" fill="#27221F">
                    <path d="M8.69549401,0.558835036 L0.342775795,10.9020905 C0.137171531,11.1566793 0.0574143605,11.4908496 0.126009128,11.8109762 L1.3990632,17.7466404 C1.50618626,18.2468156 1.94800138,18.6040321 2.45931145,18.6040321 L12.2337958,18.6040321 C13.0924006,18.6040321 13.6105522,17.6537353 13.1456921,16.9321002 L9.70533141,11.5909567 C9.56994227,11.3806599 9.51124963,11.1300321 9.53933568,10.881565 L10.6170477,1.36221217 C10.739114,0.284080779 9.37730079,-0.285413139 8.69549401,0.558835036" id="Fill-10"></path>
                </g>
                <path d="M73.4081757,54.6612973 L73.4081757,28.6340029 C73.4081757,22.7093217 68.6054617,17.9063436 62.6811063,17.9063436 L36.6552433,17.9063436 C30.7308879,17.9063436 25.928174,22.7093217 25.928174,28.6340029 L25.928174,54.6612973 C25.928174,60.5859786 30.7308879,65.3889567 36.6552433,65.3889567 L62.6811063,65.3889567 C68.6054617,65.3889567 73.4081757,60.5859786 73.4081757,54.6612973" id="Fill-13" fill="#1796D1"></path>
                <path d="M25.92821,39.0183275 L25.92821,54.6613153 C25.92821,60.5859966 30.7309239,65.3887946 36.6552793,65.3887946 L62.6811423,65.3887946 C68.6054978,65.3887946 73.4082117,60.5859966 73.4082117,54.6613153 L73.4082117,39.0183275 L25.92821,39.0183275 Z" id="Fill-15" fill="#1796D1"></path>
                <path d="M78.4949728,65.8366117 C79.1256486,65.408456 79.5357769,64.6817796 79.5249746,63.8625582 C79.4889668,61.153726 78.7034577,58.5122321 77.2536056,56.2236336 C75.8039335,53.9352151 73.7509515,52.0967382 71.3173676,50.9071567 L70.5774083,50.545619 C69.4132777,49.9764852 68.0080751,50.4591956 67.4389726,51.6233903 C66.8698701,52.787765 67.352374,54.1930448 68.5166846,54.7621786 L69.2564639,55.1237163 C70.9097598,55.9319547 72.3043401,57.1809523 73.2893321,58.7354925 C74.2743242,60.2902127 74.807779,62.0847577 74.8322643,63.925035 C74.849548,65.2210253 75.9139372,66.2575655 77.2096761,66.2402808 C77.6865988,66.2339791 78.1280538,66.085799 78.4949728,65.8366117" id="Fill-19" fill="#33ADDC"></path>
                <path d="M13.4031295,65.8366117 C12.7726338,65.408456 12.3623254,64.6817796 12.3733078,63.8625582 C12.4093155,61.153726 13.1946446,58.5122321 14.6444967,56.2236336 C16.0943489,53.9352151 18.1471508,52.0967382 20.5809148,50.9071567 L21.320694,50.545619 C22.4850047,49.9764852 23.8902072,50.4591956 24.4593097,51.6233903 C25.0284122,52.787765 24.5457283,54.1930448 23.3814177,54.7621786 L22.6418184,55.1237163 C20.9883425,55.9319547 19.5937622,57.1809523 18.6089502,58.7354925 C17.6239582,60.2902127 17.0905033,62.0847577 17.065838,63.925035 C17.0487343,65.2210253 15.9841652,66.2575655 14.6884262,66.2402808 C14.2116836,66.2339791 13.7700485,66.085799 13.4031295,65.8366117" id="Fill-21" fill="#1796D1"></path>
                <path d="M53.7410477,73.7686915 C55.1838783,73.4341611 56.0822717,71.9932316 55.7477597,70.5503217 L53.6274432,61.4061903 L48.4025384,62.6179178 L50.5226748,71.7618691 C50.8571868,73.2047791 52.298037,74.1032219 53.7410477,73.7686915" id="Fill-23" fill="#1796D1"></path>
                <g id="Group-27" transform="translate(34.747481, 61.244273)" fill="#1796D1">
                    <path d="M5.67719822,12.5181713 C7.11174705,12.1492516 7.97539298,10.6872564 7.60631353,9.25262871 L5.26797012,0.161971776 L0.0736718605,1.49829294 L2.41183523,10.5889499 C2.78091469,12.0233976 4.24282942,12.887271 5.67719822,12.5181713" id="Fill-25"></path>
                </g>
                <path d="M64.4062377,54.6612973 L64.4062377,28.6340029 C64.4062377,22.7093217 59.6035238,17.9063436 53.6791683,17.9063436 L27.6533053,17.9063436 C21.7289499,17.9063436 16.926236,22.7093217 16.926236,28.6340029 L16.926236,54.6612973 C16.926236,60.5859786 21.7289499,65.3889567 27.6533053,65.3889567 L53.6791683,65.3889567 C59.6035238,65.3889567 64.4062377,60.5859786 64.4062377,54.6612973" id="Fill-28" fill="#33ADDC"></path>
                <path d="M27.6533594,60.6955562 C24.3262431,60.6955562 21.6193603,57.9885246 21.6193603,54.6612253 L21.6193603,28.6339309 C21.6193603,25.3066316 24.3262431,22.59978 27.6533594,22.59978 L53.6792223,22.59978 C57.0063386,22.59978 59.7132214,25.3066316 59.7132214,28.6339309 L59.7132214,54.6612253 C59.7132214,57.9885246 57.0063386,60.6955562 53.6792223,60.6955562 L27.6533594,60.6955562 Z" id="Fill-30" fill="#FFFFFF"></path>
                <path d="M27.1084901,46.6595027 C27.1084901,43.6278433 24.650961,41.169999 21.6194684,41.169999 L21.6194684,52.1490063 C24.650961,52.1490063 27.1084901,49.6913421 27.1084901,46.6595027" id="Fill-32" fill="#EF92B7"></path>
                <path d="M54.2240196,46.6595027 C54.2240196,43.6278433 56.6815487,41.169999 59.7132214,41.169999 L59.7132214,52.1490063 C56.6815487,52.1490063 54.2240196,49.6913421 54.2240196,46.6595027" id="Fill-34" fill="#EF92B7"></path>
                <path d="M29.6612056,37.4371942 C29.6612056,39.4558998 28.0246533,41.0925421 26.0060587,41.0925421 C23.9874641,41.0925421 22.3509118,39.4558998 22.3509118,37.4371942 C22.3509118,35.4184886 23.9874641,33.7820263 26.0060587,33.7820263 C28.0246533,33.7820263 29.6612056,35.4184886 29.6612056,37.4371942" id="Fill-36" fill="#514740"></path>
                <path d="M59.140266,37.4371942 C59.140266,39.4558998 57.5038937,41.0925421 55.4852992,41.0925421 C53.4665246,41.0925421 51.8301523,39.4558998 51.8301523,37.4371942 C51.8301523,35.4184886 53.4665246,33.7820263 55.4852992,33.7820263 C57.5038937,33.7820263 59.140266,35.4184886 59.140266,37.4371942" id="Fill-38" fill="#514740"></path>
                <path d="M40.5479334,55.1097445 C34.6556248,55.1097445 29.8619128,50.3157689 29.8619128,44.4231363 C29.8619128,38.5303236 34.6556248,33.7363479 40.5479334,33.7363479 C46.4402419,33.7363479 51.2339539,38.5303236 51.2339539,44.4231363 C51.2339539,50.3157689 46.4402419,55.1097445 40.5479334,55.1097445" id="Fill-40" fill="#6D6D6D"></path>
                <path d="M46.0883381,44.4230462 C46.0883381,47.4831533 43.6079441,49.9636837 40.5480054,49.9636837 C37.4878866,49.9636837 35.0074926,47.4831533 35.0074926,44.4230462 C35.0074926,41.3629392 37.4878866,38.8822287 40.5480054,38.8822287 C43.6079441,38.8822287 46.0883381,41.3629392 46.0883381,44.4230462" id="Fill-42" fill="#27221F"></path>
                <path d="M82.750837,29.0103406 C82.7474163,29.0090803 82.7441756,29.008 82.7409349,29.0067397 C82.4633151,28.9053723 82.1891161,29.1628418 82.1966777,29.5054745 C82.2150417,30.3499027 82.1205213,31.2009927 81.9003339,32.0365985 C80.6470841,36.7947445 75.8148438,39.2545693 71.1068303,37.5306034 C70.82687,37.4281557 70.5535711,37.3127445 70.2874739,37.1859903 C70.1099556,37.1011873 69.9092124,37.2191192 69.8602419,37.4375182 C69.6621992,38.3240779 69.5536359,39.2156788 69.5286105,40.0982774 C69.5239295,40.2540195 69.6042268,40.3969781 69.7270132,40.4544136 C72.2423347,41.6297713 73.9676461,44.2437178 74.4280053,47.2276642 C74.4775159,47.5474307 74.830752,47.6466375 74.9940471,47.3846667 C75.9956027,45.7770122 77.7862682,45.0145061 79.4926756,45.6392749 C80.0561969,45.8454307 80.5538241,46.1830219 80.9702537,46.6138783 C81.1303082,46.779163 81.3766012,46.7244282 81.4709415,46.4995474 C82.5621564,43.8953236 85.1251882,42.5377567 87.5528308,43.4264769 C88.0778239,43.6187689 88.5574471,43.9018054 88.9834188,44.2566813 C89.1591366,44.4028808 89.4038093,44.3069148 89.4677231,44.0647494 C91.1386628,37.7205547 88.1312954,30.9804331 82.750837,29.0103406" id="Fill-44" fill="#808080"></path>
                <g id="Group-48" transform="translate(69.134884, 22.533810)">
                    <mask id="mask-2" fill="white">
                        <use xlink:href="#path-1"></use>
                    </mask>
                    <g id="Clip-47"></g>
                    <path d="M21.4479994,10.441292 C22.0856967,10.3255207 22.7181729,10.3150779 23.3274241,10.39718 C23.5785781,10.4312092 23.7903037,10.2124501 23.745114,9.96308273 C22.5584785,3.4269562 16.2981708,-0.909695864 9.7624037,0.276824818 C9.75826281,0.277545012 9.754482,0.278265207 9.7503411,0.278985401 C9.41330855,0.340562044 9.24569246,0.718304136 9.41186824,1.01790511 C9.82181649,1.75664477 10.1163599,2.56272263 10.2726335,3.42371533 C11.1623851,8.32590024 7.24780234,13.1416618 1.52887114,14.1800024 C1.18877793,14.2417591 0.849944981,14.2883917 0.513092461,14.3209805 C0.28822405,14.3425864 0.132850601,14.5564842 0.182901376,14.7770438 C0.385444981,15.6711655 0.684309322,16.520635 1.06599149,17.3169903 C1.13332599,17.4576083 1.28329828,17.5407908 1.43831165,17.5245864 C4.61113471,17.1956375 7.62354324,18.5726496 9.4846039,20.9672968 C9.6839068,21.2238662 10.0992562,21.1192579 10.1487669,20.797871 C10.4526723,18.8263382 11.9720194,17.1738516 14.0449857,16.7975499 C14.729313,16.6733163 15.4055386,16.7012238 16.0403553,16.8560657 C16.2839477,16.9156618 16.5160177,16.7327324 16.5106165,16.4819246 C16.4476029,13.5779197 18.4993246,10.9765766 21.4479994,10.441292" id="Fill-46" fill="#27221F" mask="url(#mask-2)"></path>
                </g>
                <path d="M68.0546512,38.6026672 C68.0546512,40.0317134 68.639057,41.1901465 69.3601122,41.1901465 C70.0811674,41.1901465 70.6655733,40.0317134 70.6655733,38.6026672 C70.6655733,37.1736209 70.0811674,36.0151878 69.3601122,36.0151878 C68.639057,36.0151878 68.0546512,37.1736209 68.0546512,38.6026672" id="Fill-49" fill="#27221F"></path>
                <path d="M2.81496002,28.9836934 C1.87641797,27.0355669 1.35034471,24.8512165 1.35034471,22.5438929" id="Stroke-51" stroke="#808080" stroke-width="0.9" stroke-linecap="round"></path>
                <path d="M3.87083333,22.5438749 C3.87083333,25.2275002 4.72781783,27.7109114 6.18325116,29.7353786" id="Stroke-53" stroke="#808080" stroke-width="0.9" stroke-linecap="round"></path>
                <path d="M88.4364791,28.9836934 C89.3752012,27.0355669 89.9012744,24.8512165 89.9012744,22.5438929" id="Stroke-55" stroke="#808080" stroke-width="0.9" stroke-linecap="round"></path>
                <path d="M87.3806778,22.5438749 C87.3806778,25.2275002 86.5235132,27.7109114 85.0682599,29.7353786" id="Stroke-57" stroke="#808080" stroke-width="0.9" stroke-linecap="round"></path>
            </g>
        </g>
    </g>
</svg>