<?xml version="1.0" encoding="UTF-8"?>
<svg width="120px" height="120px" viewBox="0 0 120 120" version="1.1" xmlns="http://www.w3.org/2000/svg" xmlns:xlink="http://www.w3.org/1999/xlink">
    <!-- Generator: Sketch 48.2 (47327) - http://www.bohemiancoding.com/sketch -->
    <title>Rocket</title>
    <desc>Created with Sketch.</desc>
    <defs>
        <polygon id="path-1" points="0 0.0205425488 40.1631837 0.0205425488 40.1631837 25.9360157 0 25.9360157"></polygon>
        <polygon id="path-3" points="0.523634286 0.651184211 61.3596286 0.651184211 61.3596286 100.323743 0.523634286 100.323743"></polygon>
        <polygon id="path-5" points="0.111768848 0.112827689 12.1733687 0.112827689 12.1733687 14 0.111768848 14"></polygon>
    </defs>
    <g id="交通" stroke="none" stroke-width="1" fill="none" fill-rule="evenodd">
        <g id="Rocket">
            <g id="Page-1" transform="translate(60.337216, 60.527241) rotate(-19.000000) translate(-60.337216, -60.527241) translate(19.837216, 5.027241)">
                <g id="Group-3" transform="translate(0.000000, 60.000000)">
                    <mask id="mask-2" fill="white">
                        <use xlink:href="#path-1"></use>
                    </mask>
                    <g id="Clip-2"></g>
                    <path d="M35.9816,23.8689862 C35.3639261,25.5186414 33.533187,26.3515379 31.8949696,25.7302276 L2.45696957,14.5708483 C0.81786087,13.9504345 -0.961182609,12.2586414 0.606621739,10.4610552 L10.6034913,2.12581379 C12.9440565,0.183882759 13.051013,-0.355841379 14.6901217,0.265468966 L38.1082522,9.14222759 C39.7482522,9.76443448 40.5762739,11.6041586 39.9586,13.2529172 L35.9816,23.8689862 Z" id="Fill-1" fill="#17775E" mask="url(#mask-2)"></path>
                </g>
                <path d="M35.2012562,83.5575458 C34.5936285,85.1909849 35.4081828,87.0135122 37.021509,87.6287151 L65.9798367,98.6775099 C67.5922861,99.2927127 69.9982464,99.2030511 70,96.8345645 L67.9912336,84.0635568 C67.515127,81.0807551 67.784307,80.6084782 66.1718576,79.9932753 L43.1337354,71.2037753 C41.5212861,70.5885724 39.7211999,71.4132816 39.1135722,73.0458329 L35.2012562,83.5575458 Z" id="Fill-4" fill="#17775E"></path>
                <g id="Group-8" transform="translate(19.000000, 0.000000)">
                    <mask id="mask-4" fill="white">
                        <use xlink:href="#path-3"></use>
                    </mask>
                    <g id="Clip-7"></g>
                    <path d="M59.1490629,44.1633132 C66.1834057,25.4916026 54.8436057,3.92987456 47.3044057,1.08858509 C40.5862629,-1.4443886 17.2662914,7.05201491 10.2319486,25.7246114 C10.1389486,25.9717956 10.0087486,26.2730237 9.95472,26.4617342 C0.544891429,59.1387781 0.523634286,91.9850412 0.523634286,91.9850412 L22.64612,100.323743 C22.64612,100.323743 47.97932,69.3442079 58.8638629,44.8977781 C58.9701486,44.6594535 59.0560629,44.4096114 59.1490629,44.1633132" id="Fill-6" fill="#F1C660" mask="url(#mask-4)"></path>
                </g>
                <polygon id="Fill-9" fill="#575756" points="38.3375876 101 21 94.6966667 21.6624124 93 39 99.305"></polygon>
                <path d="M43.3717066,26.7298135 C42.1630252,26.2680206 40.8124023,26.8828598 40.360453,28.1010376 L27.7084855,62.2073629 C27.2574071,63.4246561 27.8730682,64.7932263 29.0808787,65.2559038 L52.6283941,74.269712 C53.8362046,74.7323896 55.1876984,74.1175504 55.6396477,72.8993726 L68.2907443,38.7939319 C68.7426936,37.5757541 68.1270325,36.2071839 66.9183511,35.7445064 L43.3717066,26.7298135 Z M52.0815268,75.7426722 L28.5348822,66.7288639 C26.5198328,65.9583244 25.4940212,63.6785537 26.24727,61.6473727 L38.8983666,27.5410474 C39.6524862,25.510751 41.9035245,24.4854292 43.9177031,25.2568534 L67.4652185,34.2706616 C69.4793971,35.0429704 70.5060795,37.3227411 69.7528307,39.3539222 L57.1017341,73.4593628 C56.3476145,75.4896592 54.0957054,76.514981 52.0815268,75.7426722 Z" id="Fill-11" fill="#C9942B"></path>
                <path d="M59.682114,18.7544133 C52.1034484,15.8983971 43.6141578,19.7401179 40.757671,27.319847 C39.3982691,30.9306113 39.5037099,34.8647147 41.0556937,38.4013987 C42.2085711,41.0316875 44.08472,43.2462548 46.4793588,44.8045572 C46.801781,45.0145968 47.1398887,45.2150496 47.4832248,45.4024293 C48.0905986,45.7309975 48.7093007,46.0151176 49.3236458,46.2469455 C49.6356111,46.3646026 49.9693617,46.4752874 50.3736966,46.593816 C57.7074956,48.7517335 65.3550027,45.0111107 68.161819,37.892423 L68.2071324,37.7817382 C68.221075,37.7477484 68.2350176,37.7146301 68.2472174,37.6815118 C68.5888107,36.7759882 68.84152,35.8329887 68.9983741,34.8760446 C69.0593729,34.5117435 69.1046863,34.1334979 69.1395427,33.7186478 C69.3774381,30.8722186 68.7813926,28.0327616 67.4150194,25.5070568 C65.7323239,22.3974243 62.9865063,19.999835 59.682114,18.7544133 M48.6857726,47.9403356 C47.9947433,47.679747 47.299357,47.3607657 46.6205274,46.9921069 C46.2344921,46.7829388 45.8545567,46.55634 45.4920496,46.3201544 C42.8011309,44.5692431 40.694058,42.0827573 39.3991405,39.1282578 C37.6563176,35.1566785 37.5378056,30.7362593 39.0653899,26.6827558 C42.2730556,18.1687426 51.8080399,13.8520359 60.3199872,17.0610232 C64.0313287,18.4598348 67.1169967,21.1537457 69.0053454,24.6459814 C70.5407724,27.4819523 71.2100164,30.6726373 70.9424931,33.8702947 C70.904151,34.3330791 70.8518663,34.7583876 70.7838962,35.1714946 C70.6069996,36.2426096 70.3237909,37.3023946 69.9403699,38.3177314 C69.9203274,38.3726381 69.8994135,38.4240586 69.8767568,38.4763506 L69.8445146,38.5565317 C68.3265158,42.4052247 65.4412724,45.522701 61.7212168,47.3328766 C58.0159753,49.1352084 53.8044436,49.4899226 49.8630495,48.3299112 C49.415144,48.1974381 49.0404371,48.0745518 48.6857726,47.9403356" id="Fill-13" fill="#C9942B"></path>
                <path d="M69.8038288,35.4291089 C69.8686442,35.0349036 69.9148141,34.6398105 69.9485536,34.2464931 C70.1936091,31.3014955 69.5561097,28.3911241 68.1878833,25.8625281 C66.5293194,22.7976709 63.8061849,20.292159 60.2910595,18.9674872 C52.5398484,16.0464616 43.8883247,19.9627667 40.9663046,27.712807 C39.5279355,31.5305608 39.749906,35.5640621 41.2699603,39.0275638 C42.4215434,41.6511598 44.3198354,43.9435878 46.8085691,45.5639135 C47.140637,45.779661 47.4824717,45.9838664 47.8349609,46.1747541 C48.4333934,46.4997071 49.0584625,46.790034 49.7128316,47.0368562 C50.0679845,47.1709215 50.425801,47.2854541 50.7845053,47.3911082 C58.1725727,49.5645644 66.0889299,45.7610161 68.9496862,38.506396 C68.9780984,38.4344802 69.0100622,38.3643401 69.0375865,38.2915364 C69.3927394,37.3459765 69.6457858,36.3879866 69.8038288,35.4291089" id="Fill-15" fill="#88BFB7"></path>
                <path d="M67.2336225,26 L41,39.3645786 C42.1214796,42.0279405 43.9715747,44.3551149 46.3971205,46 L68.9495901,34.511041 C69.1892891,31.521406 68.5671102,28.5678233 67.2336225,26" id="Fill-17" fill="#CCFEF8"></path>
                <path d="M70,35 L48,45.7797818 C48.5992806,46.1057671 49.2252354,46.3970163 49.8805319,46.6446226 C50.236188,46.7791138 50.5945116,46.8940102 50.9537243,47 L69.144647,38.087063 C69.1730995,38.0149187 69.2051085,37.9445558 69.2326719,37.8715208 C69.588328,36.922957 69.841733,35.9619238 70,35" id="Fill-19" fill="#CCFEF8"></path>
                <path d="M61.9110594,58.1792929 C61.6422483,58.8336878 60.8448661,59.1650375 60.1325621,58.9183938 L55.8949417,57.4526489 C55.1808275,57.2060051 54.8196975,56.4743784 55.0894137,55.8199835 C55.3582247,55.1655886 56.1556069,54.8350693 56.868816,55.0817131 L61.1055313,56.5457971 C61.8187404,56.7932713 62.1798704,57.5240676 61.9110594,58.1792929" id="Fill-21" fill="#F6F6F6"></path>
                <g id="Group-25" transform="translate(21.000000, 97.000000)">
                    <mask id="mask-6" fill="white">
                        <use xlink:href="#path-5"></use>
                    </mask>
                    <g id="Clip-24"></g>
                    <path d="M1.118,3.5914375 C0.1014,5.2023125 -0.1794,7.3539375 0.4342,9.9255625 C0.949866667,12.0833125 1.84773333,13.0650625 2.37206667,14.0004375 C2.37206667,14.0004375 6.38126667,9.3673125 7.74193333,9.6271875 C8.95873333,9.8590625 6.643,13.1893125 6.643,13.1893125 C6.643,13.1893125 9.87306667,11.6134375 10.946,9.9124375 C12.9800667,6.6889375 12.4288667,2.6613125 9.71533333,0.9148125 C7.00093333,-0.8308125 3.15206667,0.3679375 1.118,3.5914375" id="Fill-23" fill="#DB5A33" mask="url(#mask-6)"></path>
                </g>
            </g>
        </g>
    </g>
</svg>