<?xml version="1.0" encoding="UTF-8"?>
<svg width="120px" height="120px" viewBox="0 0 120 120" version="1.1" xmlns="http://www.w3.org/2000/svg" xmlns:xlink="http://www.w3.org/1999/xlink">
    <!-- Generator: Sketch 51.1 (57501) - http://www.bohemiancoding.com/sketch -->
    <title>Hotel3</title>
    <desc>Created with Sketch.</desc>
    <defs>
        <polygon id="path-1" points="0 0.680200685 55.3159381 0.680200685 55.3159381 7.34693878 0 7.34693878"></polygon>
    </defs>
    <g id="Hotel3" stroke="none" stroke-width="1" fill="none" fill-rule="evenodd">
        <g id="Page-1" transform="translate(32.000000, 0.000000)">
            <polygon id="Fill-1" fill="#1A6473" points="17.6748353 27.6129796 10.8354235 27.5852245 10.8914235 21.521551 17.7308353 21.5493061"></polygon>
            <g id="Group-35" transform="translate(0.000000, 0.691429)">
                <path d="M16.7535529,13.5223673 L15.8196706,114.208898 L49.1042588,114.345224 C61.2521412,66.8905306 42.3364941,27.2644082 16.7535529,13.5223673" id="Fill-2" fill="#217C8F"></path>
                <path d="M18.9905882,19.8137959 L18.1505882,110.354204 L44.6591765,110.462776 C54.3792941,67.7860408 39.3523529,32.1607347 18.9905882,19.8137959" id="Fill-4" fill="#4B909E"></path>
                <polygon id="Fill-6" fill="#217C8F" points="33.7988 32.0029388 17.5003294 31.936 17.5242118 29.4355918 33.8218588 29.5025306"></polygon>
                <polygon id="Fill-8" fill="#217C8F" points="39.2643176 39.9804082 17.4267882 39.8914286 17.4506706 37.3902041 39.2873765 37.48"></polygon>
                <polygon id="Fill-10" fill="#217C8F" points="42.8334941 47.9499592 17.3534941 47.8454694 17.3765529 45.3458776 42.8565529 45.449551"></polygon>
                <polygon id="Fill-12" fill="#217C8F" points="46.662 55.9211429 17.2792941 55.8011429 17.3023529 53.3007347 46.6850588 53.4207347"></polygon>
                <polygon id="Fill-14" fill="#217C8F" points="48.4245176 63.8835102 17.2053412 63.7561633 17.2292235 61.2549388 48.4475765 61.383102"></polygon>
                <polygon id="Fill-16" fill="#217C8F" points="49.2689647 71.8418776 17.1323765 71.710449 17.1546118 69.2100408 49.2920235 69.3414694"></polygon>
                <polygon id="Fill-18" fill="#217C8F" points="49.1949294 79.7970612 17.0583412 79.6656327 17.0814 77.1652245 49.2179882 77.2966531"></polygon>
                <polygon id="Fill-20" fill="#217C8F" points="49.1213882 87.7522449 16.9848 87.6208163 17.0078588 85.1195918 49.1444471 85.2518367"></polygon>
                <polygon id="Fill-22" fill="#217C8F" points="49.0473529 95.7066939 16.9107647 95.5752653 16.9338235 93.0748571 49.0704118 93.2062857"></polygon>
                <polygon id="Fill-24" fill="#217C8F" points="48.9738118 103.661878 16.8372235 103.530449 16.8594588 101.030041 48.9968706 101.161469"></polygon>
                <g id="Group-28" transform="translate(0.000000, 111.836735)">
                    <mask id="mask-2" fill="white">
                        <use xlink:href="#path-1"></use>
                    </mask>
                    <g id="Clip-27"></g>
                    <path d="M49.1334118,0.855755102 L6.30247059,0.680244898 C2.85517647,0.667183673 0.0329411765,3.54963265 0,7.12106122 L55.3159381,7.34718367 C55.3485882,3.77657143 52.5815294,0.87044898 49.1334118,0.855755102" id="Fill-26" fill="#1A6473" mask="url(#mask-2)"></path>
                </g>
                <polygon id="Fill-29" fill="#4B909E" points="11.0263176 112.53698 8.69572941 112.527184 9.60243529 14.8724898 11.9322 14.8822857"></polygon>
                <polygon id="Fill-31" fill="#217C8F" points="13.2648353 28.6387755 11.8047176 28.6322449 12.0690706 0.125306122 13.5291882 0.131020408"></polygon>
                <polygon id="Fill-33" fill="#1A6473" points="28.0268471 40.7831837 7.40402353 40.6982857 7.45014118 35.7121633 28.0729647 35.7970612"></polygon>
            </g>
        </g>
    </g>
</svg>