<?xml version="1.0" encoding="UTF-8"?>
<svg width="120px" height="120px" viewBox="0 0 120 120" version="1.1" xmlns="http://www.w3.org/2000/svg" xmlns:xlink="http://www.w3.org/1999/xlink">
    <!-- Generator: Sketch 48.2 (47327) - http://www.bohemiancoding.com/sketch -->
    <title>Court</title>
    <desc>Created with Sketch.</desc>
    <defs>
        <polygon id="path-1" points="0 91.8367347 118.795102 91.8367347 118.795102 0.546122449 0 0.546122449"></polygon>
        <polygon id="path-3" points="0 91.8367347 118.795102 91.8367347 118.795102 0.546122449 0 0.546122449"></polygon>
    </defs>
    <g id="建筑" stroke="none" stroke-width="1" fill="none" fill-rule="evenodd">
        <g id="Court">
            <g id="Page-1" transform="translate(0.000000, 13.000000)">
                <polygon id="Fill-1" fill="#B3B3B3" points="11.5163265 85.312898 107.281224 85.312898 107.281224 37.3826939 11.5163265 37.3826939"></polygon>
                <polygon id="Fill-2" fill="#CCCCCC" points="106.350735 29.6321633 12.4458367 29.6321633 12.4458367 21.0117551 59.3976735 2.54032653 106.350735 21.0117551"></polygon>
                <polygon id="Fill-3" fill="#F2F2F2" points="59.3977959 1.2244898 12.4459592 19.6959184 12.4459592 22.3420408 59.3977959 3.85591837 106.350857 22.3420408 106.350857 19.6959184"></polygon>
                <polygon id="Fill-4" fill="#F2F2F2" points="4.62857143 25.9116735 15.8559184 25.9116735 15.8559184 23.8239184 4.62857143 23.8239184"></polygon>
                <polygon id="Fill-5" fill="#E6E6E6" points="14.0194286 27.9993061 6.46555102 27.9993061 4.62881633 25.911551 15.8561633 25.911551"></polygon>
                <polygon id="Fill-6" fill="#F2F2F2" points="102.939184 25.9116735 114.166531 25.9116735 114.166531 23.8239184 102.939184 23.8239184"></polygon>
                <polygon id="Fill-7" fill="#E6E6E6" points="112.329673 27.9993061 104.775796 27.9993061 102.939061 25.911551 114.166408 25.911551"></polygon>
                <polygon id="Fill-8" fill="#F2F2F2" points="8.86653061 40.5884082 26.9620408 40.5884082 26.9620408 38.5006531 8.86653061 38.5006531"></polygon>
                <polygon id="Fill-9" fill="#E6E6E6" points="25.1248163 42.6764082 10.7027755 42.6764082 8.86604082 40.5886531 26.961551 40.5886531"></polygon>
                <polygon id="Fill-10" fill="#F2F2F2" points="8.86530612 83.8716735 26.9608163 83.8716735 26.9608163 81.7839184 8.86530612 81.7839184"></polygon>
                <polygon id="Fill-11" fill="#E6E6E6" points="10.7024082 79.6957959 25.124449 79.6957959 26.9611837 81.783551 8.86567347 81.783551"></polygon>
                <polygon id="Fill-12" fill="#CCCCCC" points="10.6542857 79.6961633 25.1742857 79.6961633 25.1742857 42.6773878 10.6542857 42.6773878"></polygon>
                <g id="Group-62" transform="translate(0.000000, 0.678612)">
                    <path d="M12.2377959,78.4049388 C12.2377959,78.742898 11.9635102,79.0171837 11.625551,79.0171837 L11.265551,79.0171837 C10.9275918,79.0171837 10.6533061,78.742898 10.6533061,78.4049388 L10.6533061,42.6106531 C10.6533061,42.2726939 10.9275918,41.9984082 11.265551,41.9984082 L11.625551,41.9984082 C11.9635102,41.9984082 12.2377959,42.2726939 12.2377959,42.6106531 L12.2377959,78.4049388 Z" id="Fill-13" fill="#E6E6E6"></path>
                    <path d="M14.8255102,78.4049388 C14.8255102,78.742898 14.5512245,79.0171837 14.2132653,79.0171837 L13.8520408,79.0171837 C13.5140816,79.0171837 13.2397959,78.742898 13.2397959,78.4049388 L13.2397959,42.6106531 C13.2397959,42.2726939 13.5140816,41.9984082 13.8520408,41.9984082 L14.2132653,41.9984082 C14.5512245,41.9984082 14.8255102,42.2726939 14.8255102,42.6106531 L14.8255102,78.4049388 Z" id="Fill-15" fill="#E6E6E6"></path>
                    <path d="M17.413102,78.4049388 C17.413102,78.742898 17.1375918,79.0171837 16.8008571,79.0171837 L16.4396327,79.0171837 C16.1016735,79.0171837 15.8273878,78.742898 15.8273878,78.4049388 L15.8273878,42.6106531 C15.8273878,42.2726939 16.1016735,41.9984082 16.4396327,41.9984082 L16.8008571,41.9984082 C17.1375918,41.9984082 17.413102,42.2726939 17.413102,42.6106531 L17.413102,78.4049388 Z" id="Fill-17" fill="#E6E6E6"></path>
                    <path d="M19.9995918,78.4049388 C19.9995918,78.742898 19.7253061,79.0171837 19.3873469,79.0171837 L19.0261224,79.0171837 C18.6893878,79.0171837 18.4138776,78.742898 18.4138776,78.4049388 L18.4138776,42.6106531 C18.4138776,42.2726939 18.6893878,41.9984082 19.0261224,41.9984082 L19.3873469,41.9984082 C19.7253061,41.9984082 19.9995918,42.2726939 19.9995918,42.6106531 L19.9995918,78.4049388 Z" id="Fill-19" fill="#E6E6E6"></path>
                    <path d="M22.5873061,78.4049388 C22.5873061,78.742898 22.3130204,79.0171837 21.9750612,79.0171837 L21.6138367,79.0171837 C21.2758776,79.0171837 21.0015918,78.742898 21.0015918,78.4049388 L21.0015918,42.6106531 C21.0015918,42.2726939 21.2758776,41.9984082 21.6138367,41.9984082 L21.9750612,41.9984082 C22.3130204,41.9984082 22.5873061,42.2726939 22.5873061,42.6106531 L22.5873061,78.4049388 Z" id="Fill-21" fill="#E6E6E6"></path>
                    <path d="M25.1737959,78.4049388 C25.1737959,78.742898 24.8995102,79.0171837 24.561551,79.0171837 L24.201551,79.0171837 C23.8635918,79.0171837 23.5893061,78.742898 23.5893061,78.4049388 L23.5893061,42.6106531 C23.5893061,42.2726939 23.8635918,41.9984082 24.201551,41.9984082 L24.561551,41.9984082 C24.8995102,41.9984082 25.1737959,42.2726939 25.1737959,42.6106531 L25.1737959,78.4049388 Z" id="Fill-23" fill="#E6E6E6"></path>
                    <mask id="mask-2" fill="white">
                        <use xlink:href="#path-1"></use>
                    </mask>
                    <g id="Clip-26"></g>
                    <polygon id="Fill-25" fill="#F2F2F2" mask="url(#mask-2)" points="29.0008163 39.9097959 47.095102 39.9097959 47.095102 37.8220408 29.0008163 37.8220408"></polygon>
                    <polygon id="Fill-27" fill="#E6E6E6" mask="url(#mask-2)" points="45.2583673 41.9977959 30.837551 41.9977959 29.0008163 39.9100408 47.095102 39.9100408"></polygon>
                    <polygon id="Fill-28" fill="#F2F2F2" mask="url(#mask-2)" points="29.0008163 83.1930612 47.095102 83.1930612 47.095102 81.1053061 29.0008163 81.1053061"></polygon>
                    <polygon id="Fill-29" fill="#E6E6E6" mask="url(#mask-2)" points="30.8370612 79.0171837 45.2578776 79.0171837 47.0946122 81.1049388 29.0003265 81.1049388"></polygon>
                    <polygon id="Fill-30" fill="#CCCCCC" mask="url(#mask-2)" points="30.7873469 79.017551 45.3085714 79.017551 45.3085714 41.9987755 30.7873469 41.9987755"></polygon>
                    <path d="M32.372449,78.4049388 C32.372449,78.742898 32.0981633,79.0171837 31.7602041,79.0171837 L31.3989796,79.0171837 C31.0610204,79.0171837 30.7867347,78.742898 30.7867347,78.4049388 L30.7867347,42.6106531 C30.7867347,42.2726939 31.0610204,41.9984082 31.3989796,41.9984082 L31.7602041,41.9984082 C32.0981633,41.9984082 32.372449,42.2726939 32.372449,42.6106531 L32.372449,78.4049388 Z" id="Fill-31" fill="#E6E6E6" mask="url(#mask-2)"></path>
                    <path d="M34.9589388,78.4049388 C34.9589388,78.742898 34.6846531,79.0171837 34.3466939,79.0171837 L33.9866939,79.0171837 C33.6487347,79.0171837 33.374449,78.742898 33.374449,78.4049388 L33.374449,42.6106531 C33.374449,42.2726939 33.6487347,41.9984082 33.9866939,41.9984082 L34.3466939,41.9984082 C34.6846531,41.9984082 34.9589388,42.2726939 34.9589388,42.6106531 L34.9589388,78.4049388 Z" id="Fill-32" fill="#E6E6E6" mask="url(#mask-2)"></path>
                    <path d="M37.5466531,78.4049388 C37.5466531,78.742898 37.2723673,79.0171837 36.9344082,79.0171837 L36.5731837,79.0171837 C36.236449,79.0171837 35.9609388,78.742898 35.9609388,78.4049388 L35.9609388,42.6106531 C35.9609388,42.2726939 36.236449,41.9984082 36.5731837,41.9984082 L36.9344082,41.9984082 C37.2723673,41.9984082 37.5466531,42.2726939 37.5466531,42.6106531 L37.5466531,78.4049388 Z" id="Fill-33" fill="#E6E6E6" mask="url(#mask-2)"></path>
                    <path d="M40.1343673,78.4049388 C40.1343673,78.742898 39.8588571,79.0171837 39.5221224,79.0171837 L39.160898,79.0171837 C38.8229388,79.0171837 38.5486531,78.742898 38.5486531,78.4049388 L38.5486531,42.6106531 C38.5486531,42.2726939 38.8229388,41.9984082 39.160898,41.9984082 L39.5221224,41.9984082 C39.8588571,41.9984082 40.1343673,42.2726939 40.1343673,42.6106531 L40.1343673,78.4049388 Z" id="Fill-34" fill="#E6E6E6" mask="url(#mask-2)"></path>
                    <path d="M42.7208571,78.4049388 C42.7208571,78.742898 42.4465714,79.0171837 42.1086122,79.0171837 L41.7486122,79.0171837 C41.4106531,79.0171837 41.1363673,78.742898 41.1363673,78.4049388 L41.1363673,42.6106531 C41.1363673,42.2726939 41.4106531,41.9984082 41.7486122,41.9984082 L42.1086122,41.9984082 C42.4465714,41.9984082 42.7208571,42.2726939 42.7208571,42.6106531 L42.7208571,78.4049388 Z" id="Fill-35" fill="#E6E6E6" mask="url(#mask-2)"></path>
                    <path d="M45.3085714,78.4049388 C45.3085714,78.742898 45.0342857,79.0171837 44.6963265,79.0171837 L44.335102,79.0171837 C43.9971429,79.0171837 43.7228571,78.742898 43.7228571,78.4049388 L43.7228571,42.6106531 C43.7228571,42.2726939 43.9971429,41.9984082 44.335102,41.9984082 L44.6963265,41.9984082 C45.0342857,41.9984082 45.3085714,42.2726939 45.3085714,42.6106531 L45.3085714,78.4049388 Z" id="Fill-36" fill="#E6E6E6" mask="url(#mask-2)"></path>
                    <polygon id="Fill-37" fill="#F2F2F2" mask="url(#mask-2)" points="71.7012245 39.9097959 89.7967347 39.9097959 89.7967347 37.8220408 71.7012245 37.8220408"></polygon>
                    <polygon id="Fill-38" fill="#E6E6E6" mask="url(#mask-2)" points="87.9593878 41.9977959 73.5373469 41.9977959 71.7006122 39.9100408 89.7961224 39.9100408"></polygon>
                    <polygon id="Fill-39" fill="#F2F2F2" mask="url(#mask-2)" points="71.7 83.1930612 89.7955102 83.1930612 89.7955102 81.1053061 71.7 81.1053061"></polygon>
                    <polygon id="Fill-40" fill="#E6E6E6" mask="url(#mask-2)" points="73.5369796 79.0171837 87.9590204 79.0171837 89.7957551 81.1049388 71.7002449 81.1049388"></polygon>
                    <polygon id="Fill-41" fill="#CCCCCC" mask="url(#mask-2)" points="73.4877551 79.017551 88.0089796 79.017551 88.0089796 41.9987755 73.4877551 41.9987755"></polygon>
                    <path d="M75.0723673,78.4049388 C75.0723673,78.742898 74.7980816,79.0171837 74.4601224,79.0171837 L74.098898,79.0171837 C73.7621633,79.0171837 73.4866531,78.742898 73.4866531,78.4049388 L73.4866531,42.6106531 C73.4866531,42.2726939 73.7621633,41.9984082 74.098898,41.9984082 L74.4601224,41.9984082 C74.7980816,41.9984082 75.0723673,42.2726939 75.0723673,42.6106531 L75.0723673,78.4049388 Z" id="Fill-42" fill="#E6E6E6" mask="url(#mask-2)"></path>
                    <path d="M77.6600816,78.4049388 C77.6600816,78.742898 77.3845714,79.0171837 77.0478367,79.0171837 L76.6866122,79.0171837 C76.3486531,79.0171837 76.0743673,78.742898 76.0743673,78.4049388 L76.0743673,42.6106531 C76.0743673,42.2726939 76.3486531,41.9984082 76.6866122,41.9984082 L77.0478367,41.9984082 C77.3845714,41.9984082 77.6600816,42.2726939 77.6600816,42.6106531 L77.6600816,78.4049388 Z" id="Fill-43" fill="#E6E6E6" mask="url(#mask-2)"></path>
                    <path d="M80.2465714,78.4049388 C80.2465714,78.742898 79.9722857,79.0171837 79.6343265,79.0171837 L79.2743265,79.0171837 C78.9363673,79.0171837 78.6620816,78.742898 78.6620816,78.4049388 L78.6620816,42.6106531 C78.6620816,42.2726939 78.9363673,41.9984082 79.2743265,41.9984082 L79.6343265,41.9984082 C79.9722857,41.9984082 80.2465714,42.2726939 80.2465714,42.6106531 L80.2465714,78.4049388 Z" id="Fill-44" fill="#E6E6E6" mask="url(#mask-2)"></path>
                    <path d="M82.8342857,78.4049388 C82.8342857,78.742898 82.56,79.0171837 82.2220408,79.0171837 L81.8608163,79.0171837 C81.5228571,79.0171837 81.2485714,78.742898 81.2485714,78.4049388 L81.2485714,42.6106531 C81.2485714,42.2726939 81.5228571,41.9984082 81.8608163,41.9984082 L82.2220408,41.9984082 C82.56,41.9984082 82.8342857,42.2726939 82.8342857,42.6106531 L82.8342857,78.4049388 Z" id="Fill-45" fill="#E6E6E6" mask="url(#mask-2)"></path>
                    <path d="M85.422,78.4049388 C85.422,78.742898 85.1464898,79.0171837 84.8097551,79.0171837 L84.4485306,79.0171837 C84.1105714,79.0171837 83.8362857,78.742898 83.8362857,78.4049388 L83.8362857,42.6106531 C83.8362857,42.2726939 84.1105714,41.9984082 84.4485306,41.9984082 L84.8097551,41.9984082 C85.1464898,41.9984082 85.422,42.2726939 85.422,42.6106531 L85.422,78.4049388 Z" id="Fill-46" fill="#E6E6E6" mask="url(#mask-2)"></path>
                    <path d="M88.0084898,78.4049388 C88.0084898,78.742898 87.7342041,79.0171837 87.3962449,79.0171837 L87.0350204,79.0171837 C86.6982857,79.0171837 86.4227755,78.742898 86.4227755,78.4049388 L86.4227755,42.6106531 C86.4227755,42.2726939 86.6982857,41.9984082 87.0350204,41.9984082 L87.3962449,41.9984082 C87.7342041,41.9984082 88.0084898,42.2726939 88.0084898,42.6106531 L88.0084898,78.4049388 Z" id="Fill-47" fill="#E6E6E6" mask="url(#mask-2)"></path>
                    <polygon id="Fill-48" fill="#F2F2F2" mask="url(#mask-2)" points="91.8342857 39.9097959 109.929796 39.9097959 109.929796 37.8220408 91.8342857 37.8220408"></polygon>
                    <polygon id="Fill-49" fill="#E6E6E6" mask="url(#mask-2)" points="108.092939 41.9977959 93.670898 41.9977959 91.8341633 39.9100408 109.929673 39.9100408"></polygon>
                    <polygon id="Fill-50" fill="#F2F2F2" mask="url(#mask-2)" points="91.8342857 83.1930612 109.929796 83.1930612 109.929796 81.1053061 91.8342857 81.1053061"></polygon>
                    <polygon id="Fill-51" fill="#E6E6E6" mask="url(#mask-2)" points="93.6705306 79.0171837 108.092571 79.0171837 109.929306 81.1049388 91.8337959 81.1049388"></polygon>
                    <polygon id="Fill-52" fill="#CCCCCC" mask="url(#mask-2)" points="93.6220408 79.017551 108.143265 79.017551 108.143265 41.9987755 93.6220408 41.9987755"></polygon>
                    <path d="M95.2071429,78.4049388 C95.2071429,78.742898 94.9316327,79.0171837 94.594898,79.0171837 L94.2336735,79.0171837 C93.8957143,79.0171837 93.6214286,78.742898 93.6214286,78.4049388 L93.6214286,42.6106531 C93.6214286,42.2726939 93.8957143,41.9984082 94.2336735,41.9984082 L94.594898,41.9984082 C94.9316327,41.9984082 95.2071429,42.2726939 95.2071429,42.6106531 L95.2071429,78.4049388 Z" id="Fill-53" fill="#E6E6E6" mask="url(#mask-2)"></path>
                    <path d="M97.7936327,78.4049388 C97.7936327,78.742898 97.5193469,79.0171837 97.1813878,79.0171837 L96.8201633,79.0171837 C96.4834286,79.0171837 96.2079184,78.742898 96.2079184,78.4049388 L96.2079184,42.6106531 C96.2079184,42.2726939 96.4834286,41.9984082 96.8201633,41.9984082 L97.1813878,41.9984082 C97.5193469,41.9984082 97.7936327,42.2726939 97.7936327,42.6106531 L97.7936327,78.4049388 Z" id="Fill-54" fill="#E6E6E6" mask="url(#mask-2)"></path>
                    <path d="M100.381347,78.4049388 C100.381347,78.742898 100.107061,79.0171837 99.769102,79.0171837 L99.4078776,79.0171837 C99.0699184,79.0171837 98.7956327,78.742898 98.7956327,78.4049388 L98.7956327,42.6106531 C98.7956327,42.2726939 99.0699184,41.9984082 99.4078776,41.9984082 L99.769102,41.9984082 C100.107061,41.9984082 100.381347,42.2726939 100.381347,42.6106531 L100.381347,78.4049388 Z" id="Fill-55" fill="#E6E6E6" mask="url(#mask-2)"></path>
                    <path d="M102.967837,78.4049388 C102.967837,78.742898 102.693551,79.0171837 102.355592,79.0171837 L101.995592,79.0171837 C101.657633,79.0171837 101.383347,78.742898 101.383347,78.4049388 L101.383347,42.6106531 C101.383347,42.2726939 101.657633,41.9984082 101.995592,41.9984082 L102.355592,41.9984082 C102.693551,41.9984082 102.967837,42.2726939 102.967837,42.6106531 L102.967837,78.4049388 Z" id="Fill-56" fill="#E6E6E6" mask="url(#mask-2)"></path>
                    <path d="M105.555429,78.4049388 C105.555429,78.742898 105.281143,79.0171837 104.943184,79.0171837 L104.581959,79.0171837 C104.245224,79.0171837 103.969714,78.742898 103.969714,78.4049388 L103.969714,42.6106531 C103.969714,42.2726939 104.245224,41.9984082 104.581959,41.9984082 L104.943184,41.9984082 C105.281143,41.9984082 105.555429,42.2726939 105.555429,42.6106531 L105.555429,78.4049388 Z" id="Fill-57" fill="#E6E6E6" mask="url(#mask-2)"></path>
                    <path d="M108.143143,78.4049388 C108.143143,78.742898 107.867633,79.0171837 107.530898,79.0171837 L107.169673,79.0171837 C106.831714,79.0171837 106.557429,78.742898 106.557429,78.4049388 L106.557429,42.6106531 C106.557429,42.2726939 106.831714,41.9984082 107.169673,41.9984082 L107.530898,41.9984082 C107.867633,41.9984082 108.143143,42.2726939 108.143143,42.6106531 L108.143143,78.4049388 Z" id="Fill-58" fill="#E6E6E6" mask="url(#mask-2)"></path>
                    <polygon id="Fill-59" fill="#E6E6E6" mask="url(#mask-2)" points="8.07183673 37.8220408 110.72449 37.8220408 110.72449 35.5861224 8.07183673 35.5861224"></polygon>
                    <polygon id="Fill-60" fill="#CCCCCC" mask="url(#mask-2)" points="112.357102 33.0353878 6.43873469 33.0353878 8.07097959 35.586 110.724857 35.586"></polygon>
                    <polygon id="Fill-61" fill="#F2F2F2" mask="url(#mask-2)" points="6.43836735 33.0355102 112.356735 33.0355102 112.356735 27.3208163 6.43836735 27.3208163"></polygon>
                </g>
                <text id="$" font-family="LucidaGrande, Lucida Grande" font-size="8.865" font-weight="normal" fill="#F2F2F2">
                    <tspan x="56.613551" y="18.6336956">$</tspan>
                </text>
                <g id="Group-70" transform="translate(0.000000, 0.678612)">
                    <path d="M66.6181224,16.521551 C66.6181224,20.5097143 63.3854694,23.7411429 59.3973061,23.7411429 C55.4103673,23.7411429 52.1777143,20.5097143 52.1777143,16.521551 C52.1777143,12.5333878 55.4103673,9.30195918 59.3973061,9.30195918 C63.3854694,9.30195918 66.6181224,12.5333878 66.6181224,16.521551 Z" id="Stroke-63" stroke="#F2F2F2" stroke-width="0.5"></path>
                    <mask id="mask-4" fill="white">
                        <use xlink:href="#path-3"></use>
                    </mask>
                    <g id="Clip-66"></g>
                    <polygon id="Fill-65" fill="#CCCCCC" mask="url(#mask-4)" points="6.43836735 86.0742857 112.356735 86.0742857 112.356735 83.1930612 6.43836735 83.1930612"></polygon>
                    <polygon id="Fill-67" fill="#E6E6E6" mask="url(#mask-4)" points="3.47387755 88.9555102 115.321224 88.9555102 115.321224 86.0742857 3.47387755 86.0742857"></polygon>
                    <polygon id="Fill-68" fill="#F2F2F2" mask="url(#mask-4)" points="0 91.8367347 118.795102 91.8367347 118.795102 88.9555102 0 88.9555102"></polygon>
                    <path d="M68.7227755,83.1928163 L68.7227755,54.6034286 C68.7227755,54.2654694 68.4484898,53.9911837 68.1105306,53.9911837 L50.6848163,53.9911837 C50.3468571,53.9911837 50.0725714,54.2654694 50.0725714,54.6034286 L50.0725714,83.1928163 L68.7227755,83.1928163 Z" id="Fill-69" fill="#808080" mask="url(#mask-4)"></path>
                </g>
            </g>
        </g>
    </g>
</svg>