<?xml version="1.0" encoding="UTF-8"?>
<svg width="120px" height="120px" viewBox="0 0 120 120" version="1.1" xmlns="http://www.w3.org/2000/svg" xmlns:xlink="http://www.w3.org/1999/xlink">
    <!-- Generator: Sketch 51.1 (57501) - http://www.bohemiancoding.com/sketch -->
    <title>Horseman</title>
    <desc>Created with Sketch.</desc>
    <defs>
        <polygon id="path-1" points="0.199373684 0.299053333 13.3734789 0.299053333 13.3734789 5.86666667 0.199373684 5.86666667"></polygon>
    </defs>
    <g id="Horseman" stroke="none" stroke-width="1" fill="none" fill-rule="evenodd">
        <g id="Group-41" transform="translate(13.000000, -1.000000)">
            <path d="M36.5630933,59.3058571 C37.02176,60.2701429 35.8292267,61.7208571 34.5022933,62.1237143 L34.4958933,62.1258571 C33.1646933,62.533 31.96576,62.4601429 31.8164267,61.9672857 L23.7844267,35.3401429 C23.63296,34.8472857 24.59296,34.1208571 25.9220267,33.7158571 L25.93056,33.7137143 C27.2596267,33.3065714 28.43936,33.3837143 28.6078933,33.8744286 C29.7748267,37.2751429 31.19776,40.5751429 31.4964267,48.0044286 C31.6564267,51.9644286 35.0974933,56.2458571 36.5630933,59.3058571" id="Fill-59" fill="#81461D"></path>
            <polygon id="Fill-60" fill="#B75F22" points="24.1671467 59.9523571 28.0327467 69.8116429 34.4114133 68.0695 34.4114133 62.9502143 28.90528 46.2466429 25.7074133 50.1637857"></polygon>
            <path d="M2.70261333,50.3849286 C-0.90912,55.1699286 -0.362986667,68.0120714 14.0327467,66.1542143 C33.35008,63.6599286 28.78048,38.5027857 27.7543467,34.7699286 C26.70048,30.9149286 21.1175467,29.9185 18.70048,34.7699286 C16.2855467,39.6235 13.2690133,43.1077857 11.91008,43.8663571 C10.55328,44.6249286 4.99168,47.3549286 2.70261333,50.3849286" id="Fill-61" fill="#B75F22"></path>
            <path d="M21.7255467,60.8125 C21.7255467,53.6553571 16.2514133,47.8503571 9.50154667,47.8503571 C7.27221333,47.8503571 5.17941333,48.4846429 3.38101333,49.5903571 C3.13141333,49.8517857 2.90528,50.1153571 2.70261333,50.3853571 C-0.90912,55.1703571 -0.362986667,68.0103571 14.0327467,66.1546429 C17.06208,65.7646429 19.5047467,64.8153571 21.4674133,63.4760714 C21.63808,62.6167857 21.7255467,61.7253571 21.7255467,60.8125" id="Fill-62" fill="#F4D2B2"></path>
            <path d="M21.4964267,38.6598571 C21.38336,39.5362857 20.7710933,40.1812857 20.1246933,40.0977143 C19.4804267,40.0162857 19.04736,39.2384286 19.1582933,38.3577143 C19.27136,37.4812857 19.8836267,36.8362857 20.53216,36.9198571 C21.1764267,37.0034286 21.6094933,37.7812857 21.4964267,38.6598571" id="Fill-63" fill="#FFFFFF"></path>
            <path d="M20.9963733,39.0427857 C20.9281067,39.5849286 20.5441067,39.9813571 20.1473067,39.9299286 C19.74624,39.8806429 19.4795733,39.3985 19.54784,38.8542143 C19.61824,38.3099286 19.9979733,37.9135 20.39904,37.9649286 C20.79584,38.0163571 21.06464,38.4985 20.9963733,39.0427857" id="Fill-64" fill="#81461D"></path>
            <path d="M18.70048,36.3224286 C19.94208,35.7588571 21.6914133,35.5252857 21.6914133,35.5252857 C21.9410133,35.176 21.84288,34.5138571 21.5826133,34.4431429 C20.75488,34.2138571 18.70048,36.3224286 18.70048,36.3224286" id="Fill-65" fill="#81461D"></path>
            <path d="M26.2795733,39.2457143 C26.16864,40.1242857 25.55424,40.7671429 24.90784,40.6857143 C24.2657067,40.6021429 23.8305067,39.8242857 23.94144,38.9457143 C24.0545067,38.0692857 24.67104,37.4242857 25.3153067,37.5057143 C25.9617067,37.5914286 26.39264,38.3692857 26.2795733,39.2457143" id="Fill-66" fill="#FFFFFF"></path>
            <path d="M25.7816533,39.6288571 C25.7112533,40.1731429 25.33152,40.5695714 24.9325867,40.5181429 C24.5293867,40.4688571 24.2648533,39.9845714 24.3309867,39.4424286 C24.40352,38.8981429 24.7832533,38.5017143 25.1821867,38.5531429 C25.5789867,38.6024286 25.84992,39.0845714 25.7816533,39.6288571" id="Fill-67" fill="#81461D"></path>
            <path d="M27.23808,37.3938571 C26.1778133,36.5324286 24.54368,35.8638571 24.54368,35.8638571 C24.39008,35.4631429 24.65248,34.8481429 24.9234133,34.846 C25.7810133,34.8331429 27.23808,37.3938571 27.23808,37.3938571" id="Fill-68" fill="#81461D"></path>
            <path d="M9.4672,53.6242857 C9.4672,53.6242857 6.01973333,53.6071429 5.78293333,52.6835714 C5.61653333,52.0278571 5.77653333,51.7 6.41226667,51.37 C7.2592,50.9328571 9.4672,53.6242857 9.4672,53.6242857" id="Fill-69" fill="#81461D"></path>
            <path d="M10.1338667,53.6159286 C10.1338667,53.6159286 13.5856,53.6480714 13.8330667,52.7245 C14.008,52.0752143 13.8565333,51.7430714 13.2208,51.4023571 C12.3888,50.9545 10.1338667,53.6159286 10.1338667,53.6159286" id="Fill-70" fill="#81461D"></path>
            <path d="M9.81706667,65.0855714 C14.408,65.0855714 14.408,60.5062857 14.408,60.5062857 C14.408,60.5062857 9.81706667,63.592 5.22613333,60.5062857 C5.22613333,60.5062857 5.22613333,65.0855714 9.81706667,65.0855714" id="Fill-71" fill="#81461D"></path>
            <path d="M16.5733333,32.2795 C17.672,33.3487857 19.0928,33.8716429 20.5050667,33.8523571 C20.4816,32.4316429 19.9205333,31.0216429 18.8282667,29.9523571 C17.7338667,28.8830714 16.3130667,28.3602143 14.8986667,28.3773571 C14.92,29.7980714 15.4810667,31.2123571 16.5733333,32.2795" id="Fill-72" fill="#B75F22"></path>
            <path d="M17.03584,31.8044286 C17.68224,32.4344286 18.52064,32.743 19.3569067,32.7322857 C19.3419733,31.8922857 19.01344,31.0587143 18.3649067,30.4265714 C17.7185067,29.7965714 16.88224,29.488 16.0459733,29.4987143 C16.0587733,30.3365714 16.3915733,31.1701429 17.03584,31.8044286" id="Fill-73" fill="#81461D"></path>
            <path d="M30.5338667,33.2671429 C29.3669333,34.2592857 27.9141333,34.6792857 26.5018667,34.5635714 C26.6213333,33.1492857 27.2805333,31.78 28.4453333,30.79 C29.608,29.7978571 31.0629333,29.3757143 32.4709333,29.4892857 C32.3536,30.9057143 31.6965333,32.2771429 30.5338667,33.2671429" id="Fill-74" fill="#B75F22"></path>
            <path d="M30.1025067,32.7607857 C29.4177067,33.3436429 28.5579733,33.5965 27.7259733,33.5257857 C27.7963733,32.6900714 28.18464,31.8822143 28.8715733,31.2950714 C29.5585067,30.7122143 30.4161067,30.4615 31.25024,30.5300714 C31.17984,31.3657857 30.7915733,32.1757857 30.1025067,32.7607857" id="Fill-75" fill="#81461D"></path>
            <path d="M19.9358933,31.4549286 C20.0276267,30.9749286 20.4884267,30.6663571 20.96416,30.7563571 C21.1540267,30.7927857 21.3182933,30.8892143 21.4420267,31.0220714 C21.48896,31.0392143 21.53376,31.0585 21.5764267,31.0842143 C21.5764267,31.0692143 21.5806933,31.0563571 21.5806933,31.0435 C21.66816,30.5806429 22.1140267,30.2785 22.5748267,30.3663571 C22.70496,30.3942143 22.8222933,30.4435 22.9204267,30.5185 C22.9246933,30.4927857 22.9268267,30.4627857 22.9332267,30.4349286 C23.01216,30.0213571 23.4132267,29.7492143 23.82496,29.8285 C24.2388267,29.9077857 24.5054933,30.3020714 24.43296,30.7135 C24.61856,30.6685 24.8212267,30.6577857 25.0260267,30.6963571 C25.5316267,30.7949286 25.9220267,31.1613571 26.0734933,31.6242143 C26.1310933,31.6263571 26.1908267,31.6306429 26.2484267,31.6435 C26.85856,31.7635 27.2596267,32.3527857 27.1422933,32.9656429 C27.0228267,33.5806429 26.4340267,33.9813571 25.8238933,33.8635 C25.52096,33.8056429 25.2734933,33.6342143 25.1134933,33.4006429 C24.9172267,33.4499286 24.7124267,33.4606429 24.50336,33.4199286 C24.11296,33.3449286 23.79296,33.1092143 23.5966933,32.7985 C23.4174933,32.9720714 23.17856,33.0770714 22.91616,33.0877857 C22.8116267,33.5227857 22.3806933,33.8013571 21.9348267,33.7177857 C21.9092267,33.7135 21.87936,33.7049286 21.8558933,33.6963571 C21.6340267,34.0242143 21.23296,34.2063571 20.82336,34.1270714 C20.2686933,34.0177857 19.9102933,33.4842143 20.0148267,32.9313571 C20.0596267,32.7063571 20.1726933,32.5113571 20.33056,32.3699286 C20.0340267,32.1813571 19.8676267,31.8235 19.9358933,31.4549286" id="Fill-76" fill="#81461D"></path>
            <path d="M34.01504,108.574857 C33.95104,109.556286 32.5345067,110.261286 31.55744,110.199143 L31.1819733,110.175571 C30.20704,110.113429 28.8907733,109.226286 28.95264,108.247 C29.3793067,101.606286 30.8107733,88.3612857 31.23744,81.7227143 C31.30144,80.7434286 32.1419733,79.9977143 33.1211733,80.0598571 L33.49664,80.0855714 C34.4737067,80.1477143 35.2139733,80.9962857 35.1499733,81.9777143 C34.7233067,88.6184286 34.44384,101.934143 34.01504,108.574857" id="Fill-77" fill="#81461D"></path>
            <path d="M64.7568,107.938643 C64.7845333,108.922214 63.4384,109.757929 62.4613333,109.783643 L62.0837333,109.7965 C61.1045333,109.824357 59.7136,109.063643 59.6858667,108.082214 C59.5002667,101.430786 59.7050667,88.1107857 59.5173333,81.4593571 C59.4917333,80.4779286 60.264,79.6572143 61.2410667,79.6315 L61.6165333,79.6186429 C62.5957333,79.5907857 63.4106667,80.3665 63.4384,81.3500714 C63.6261333,88.0015 64.5733333,101.287214 64.7568,107.938643" id="Fill-78" fill="#81461D"></path>
            <path d="M70.6130133,71.9851429 C70.6130133,71.9851429 70.81568,69.0708571 71.6050133,68.8972857 C74.4871467,68.263 74.12448,73.8022857 74.75808,76.5258571 C75.3746133,79.1787143 79.4578133,83.5158571 84.15968,81.973 C84.15968,81.973 77.6146133,79.6201429 81.7170133,69.0344286 C82.7687467,66.3237143 78.5554133,58.0287143 70.6130133,66.5444286 C70.02208,67.1808571 69.4226133,69.8101429 69.4226133,69.8101429 L70.6130133,71.9851429 Z" id="Fill-79" fill="#81461D"></path>
            <path d="M71.8546133,71.3635 C71.8546133,80.4192143 64.39648,91.7656429 52.2962133,91.7656429 C40.1959467,91.7656429 28.47968,85.9156429 28.0402133,71.3635 C27.89728,66.5356429 28.6610133,62.6077857 33.9431467,62.2949286 C38.5639467,62.0227857 49.33088,66.5549286 54.97568,66.6920714 C58.1010133,66.7692143 60.4754133,65.4256429 63.9911467,64.6027857 C67.6007467,63.7542143 71.8546133,64.9049286 71.8546133,71.3635" id="Fill-80" fill="#B75F22"></path>
            <path d="M40.7026133,114.725071 C40.7026133,115.708643 39.3330133,116.5165 38.3538133,116.5165 L37.9783467,116.5165 C36.9991467,116.5165 35.6295467,115.708643 35.6295467,114.725071 C35.6295467,108.0715 36.2055467,94.7686429 36.2055467,88.1129286 C36.2055467,87.1293571 36.9991467,86.3365 37.9783467,86.3365 L38.3538133,86.3365 C39.3330133,86.3365 40.12448,87.1293571 40.12448,88.1129286 C40.12448,94.7686429 40.7026133,108.0715 40.7026133,114.725071" id="Fill-81" fill="#B75F22"></path>
            <path d="M70.6130133,113.542643 C70.6130133,114.526214 69.2434133,115.329786 68.2642133,115.329786 L67.8887467,115.329786 C66.9095467,115.329786 65.5378133,114.526214 65.5378133,113.542643 C65.5378133,106.889071 66.1159467,86.9969286 66.1159467,80.3433571 C66.1159467,79.3619286 66.9095467,78.5476429 67.8887467,78.5476429 L68.2642133,78.5476429 C69.2434133,78.5476429 70.0370133,79.3619286 70.0370133,80.3433571 C70.0370133,86.9969286 70.6130133,106.889071 70.6130133,113.542643" id="Fill-82" fill="#B75F22"></path>
            <path d="M35.6338133,113.452643 C35.63168,113.896214 35.6295467,114.326929 35.6295467,114.7255 C35.6295467,115.709071 36.9991467,116.516929 37.9783467,116.516929 L38.3538133,116.516929 C39.3330133,116.516929 40.7026133,115.709071 40.7026133,114.7255 C40.7026133,114.318357 40.70048,113.883357 40.6983467,113.433357 C39.47168,113.692643 37.39808,113.973357 35.6338133,113.452643" id="Fill-83" fill="#373737"></path>
            <path d="M65.5463467,112.255643 C65.54208,112.720643 65.5378133,113.157786 65.5378133,113.5435 C65.5378133,114.527071 66.9095467,115.330643 67.8887467,115.330643 L68.2642133,115.330643 C69.2434133,115.330643 70.6130133,114.527071 70.6130133,113.5435 C70.6130133,113.159929 70.6087467,112.731357 70.6066133,112.266357 C69.35648,112.527786 67.2914133,112.791357 65.5463467,112.255643" id="Fill-84" fill="#373737"></path>
            <path d="M59.65472,106.756214 C59.6653867,107.223357 59.6760533,107.664786 59.68672,108.082643 C59.71232,109.064071 61.1053867,109.824786 62.0845867,109.796929 L62.4600533,109.784071 C63.43712,109.756214 64.7832533,108.922643 64.7576533,107.939071 C64.7469867,107.519071 64.7320533,107.0755 64.7149867,106.608357 C63.5864533,106.869786 61.48512,107.212643 59.65472,106.756214" id="Fill-85" fill="#373737"></path>
            <path d="M29.03392,107.057714 C29.0040533,107.473429 28.97632,107.872 28.9528533,108.247 C28.8909867,109.226286 30.2072533,110.113429 31.1821867,110.175571 L31.5576533,110.199143 C32.53472,110.261286 33.9512533,109.556286 34.0152533,108.574857 C34.0429867,108.142 34.07072,107.679143 34.0984533,107.192714 C32.9592533,107.387714 30.8408533,107.617 29.03392,107.057714" id="Fill-86" fill="#373737"></path>
            <path d="M32.6046933,51.586 C40.8286933,64.4024286 51.80256,53.7052857 48.07136,42.376 C45.3598933,34.1474286 60.07136,45.0502857 60.07136,45.0502857 C60.07136,45.0502857 51.4590933,68.8981429 43.9860267,69.2517143 C36.5108267,69.6074286 32.57696,57.9374286 32.6046933,51.586" id="Fill-87" fill="#F6B90C"></path>
            <path d="M73.7797333,62.11 C76.4016,72.3507143 76.7088,87.7857143 76.7088,87.7857143 C76.7088,87.7857143 77.1653333,102.82 74.7717333,103.664286 L65.5557333,89.8257143 C61.7285333,89.4292857 60.8218667,85.2164286 60.8218667,85.2164286 C60.8218667,85.2164286 59.8085333,89.4292857 56.4357333,89.8257143 L46.5541333,103.664286 C44.0624,102.779286 44.6448,87.775 44.6448,87.775 L44.6533333,87.775 C44.6533333,87.775 44.9605333,72.3378571 47.5802667,62.0885714 C46.0890667,62.68 75.3093333,62.7142857 73.7797333,62.11" id="Fill-88" fill="#B52836"></path>
            <polygon id="Fill-89" fill="#EEEEED" points="48.1985067 87.7992143 50.17824 105.014929 59.93184 105.014929 60.57824 95.1492143 60.86624 95.1492143 61.51264 105.014929 71.2683733 105.014929 73.2459733 87.7992143"></polygon>
            <path d="M50.3922133,114.423786 L50.38368,114.423786 L49.9207467,102.768786 L60.0626133,102.768786 L60.0626133,114.423786 L60.0711467,114.423786 C60.1351467,114.685214 60.0519467,114.942357 59.87488,115.216643 C59.3010133,116.105929 58.3047467,116.748786 57.45568,117.342357 C56.1415467,118.248786 54.47968,118.730929 53.0290133,119.425214 C51.71488,119.980214 49.98688,121.032357 48.80928,119.7145 C47.25408,117.841643 48.57248,115.546643 50.3922133,114.423786" id="Fill-90" fill="#343434"></path>
            <path d="M61.3837867,114.423786 L61.3837867,102.768786 L71.54272,102.768786 L71.0840533,114.423786 L71.07552,114.423786 C72.89312,115.546643 74.21152,117.8395 72.6541867,119.7145 C71.47872,121.032357 69.75072,119.9845 68.43872,119.427357 C66.9837867,118.735214 65.3240533,118.242357 64.00992,117.340214 C63.1608533,116.7445 62.1645867,116.108071 61.59072,115.220929 C61.4136533,114.942357 61.3304533,114.620929 61.39232,114.423786 L61.3837867,114.423786 Z" id="Fill-91" fill="#343434"></path>
            <polygon id="Fill-92" fill="#D0D0D0" points="51.65472 87.7992143 68.9453867 87.7992143 60.4397867 82.8599286"></polygon>
            <path d="M87.24832,43.9437143 C87.83072,43.828 88.4621867,44.278 88.99552,45.0815714 C90.1709867,43.948 91.6216533,43.4744286 92.8333867,43.9887143 C94.6872533,44.7794286 95.2781867,47.5887143 94.1496533,50.263 C93.02112,52.9394286 90.5997867,54.4694286 88.74592,53.6808571 C87.7517867,53.2565714 87.1181867,52.2515714 86.9240533,50.9937143 C86.5720533,50.3444286 86.2776533,49.5301429 86.1048533,48.6258571 C85.6440533,46.2515714 86.15392,44.158 87.24832,43.9437143" id="Fill-93" fill="#333433"></path>
            <path d="M37.1275733,81.3997857 C37.2321067,80.3990714 37.56064,79.5419286 38.03424,78.8540714 L42.5057067,78.8476429 C42.5441067,78.9162143 42.6017067,79.0169286 42.6379733,79.0897857 C43.07104,79.5162143 43.4913067,80.0862143 43.8475733,80.7547857 C44.7755733,82.5119286 44.8715733,84.2862143 44.06304,84.7147857 C43.6299733,84.9440714 43.02624,84.7447857 42.4161067,84.2390714 C41.7633067,85.4133571 40.7329067,86.1355 39.6577067,86.0219286 C38.00864,85.8462143 36.8779733,83.7762143 37.1275733,81.3997857" id="Fill-94" fill="#333433"></path>
            <path d="M87.0462933,51.8643571 L81.5934933,58.4429286 L69.8622933,54.1615 C69.8622933,54.1615 69.86656,54.1657857 69.8750933,54.1807857 C67.8462933,52.8286429 62.4212267,52.6293571 62.4212267,52.6293571 L60.6526933,52.6893571 L60.50336,52.6893571 L58.7348267,52.6143571 C58.7348267,52.6143571 53.4164267,52.8500714 51.34496,54.1679286 C51.3470933,54.1657857 51.3470933,54.1615 51.3470933,54.1615 C51.3470933,54.1615 44.8574933,57.5729286 43.05696,59.8829286 C39.3620267,64.6250714 37.9454933,78.8900714 37.9454933,78.8900714 L42.7582933,78.8857857 C42.7582933,78.8857857 44.06176,68.5850714 45.7726933,66.1465 C46.3956267,65.2615 46.77536,64.6636429 47.01216,64.1943571 C44.8190933,74.3279286 44.54816,87.9050714 44.54816,87.9050714 L44.5118933,89.9665 L55.70336,89.9665 C59.53056,89.5700714 60.4350933,85.3572143 60.4350933,85.3572143 C60.4350933,85.3572143 61.45056,89.5036429 64.8212267,89.9665 L76.68256,89.9665 L76.61216,87.9136429 L76.60576,87.9136429 C76.60576,87.9136429 76.29856,72.4679286 73.6788267,62.2207857 C75.2126933,62.8250714 82.2398933,65.5015 84.4094933,64.7107857 C87.4174933,63.6157857 91.8590933,54.2450714 91.8590933,54.2450714 L87.0462933,51.8643571 Z" id="Fill-95" fill="#E63744"></path>
            <path d="M60.11296,71.1772857 L58.02016,66.4287143 L55.4750933,52.8558571 C57.25216,52.5858571 58.8372267,52.5258571 58.8372267,52.5258571 L60.6078933,52.573 L60.7550933,52.573 L62.52576,52.5087143 C62.52576,52.5087143 63.9508267,52.573 65.61056,52.8194286 L63.3470933,66.4287143 L61.40576,70.8687143 L60.6462933,71.9701429 L60.11296,71.1772857 Z" id="Fill-96" fill="#FFFFFF"></path>
            <path d="M58.4651733,62.6330714 C58.48864,61.1180714 59.5425067,56.6695 59.5425067,56.6695 C59.07104,56.2816429 58.66784,54.3873571 58.66784,54.3873571 L60.6433067,52.6666429 L62.8257067,54.3873571 C62.8257067,54.3873571 62.3969067,56.3287857 61.8849067,56.6695 C61.8849067,56.6695 62.8171733,61.1309286 62.8257067,62.6395 C62.8299733,64.2252143 61.8849067,68.9095 61.8849067,68.9095 L60.64544,71.9459286 L59.4273067,69.0466429 C59.4273067,69.0466429 58.4417067,64.2552143 58.4651733,62.6330714" id="Fill-97" fill="#D0D0D0"></path>
            <path d="M60.6733867,52.6072857 L60.7544533,52.6072857 L62.52512,52.5258571 C62.52512,52.5258571 64.5240533,52.6072857 66.5485867,52.9822857 C66.60192,53.6658571 66.5976533,54.3965714 66.4269867,55.0737143 C66.2840533,55.6008571 66.01952,55.7165714 65.7272533,56.1001429 C65.46272,56.4815714 65.60992,56.7451429 65.0829867,56.8308571 C64.7629867,56.8887143 64.5005867,56.7708571 64.2680533,56.5694286 L64.2424533,56.5887143 C64.2424533,56.5887143 60.6733867,53.9315714 60.6733867,52.6072857" id="Fill-98" fill="#FFFFFF"></path>
            <path d="M62.5255467,52.5571429 L60.75488,52.6407143 L60.70368,52.6407143 C60.7634133,53.8921429 63.95488,56.3307143 64.24288,56.5471429 L64.26848,56.5257143 L64.2898133,56.5428571 C64.54368,56.7678571 64.7975467,56.8492857 65.0791467,56.8 C65.41408,56.7442857 65.4567467,56.6242857 65.5314133,56.4271429 C65.5698133,56.3242857 65.6103467,56.2107143 65.70208,56.0821429 C65.7895467,55.9621429 65.8770133,55.8721429 65.9602133,55.7842857 C66.1394133,55.5914286 66.29728,55.4264286 66.3954133,55.0685714 C66.54048,54.4921429 66.57888,53.8192857 66.52128,53.0114286 C64.5266133,52.645 62.5447467,52.5614286 62.5255467,52.5571429 M64.2663467,56.6114286 L64.2450133,56.6307143 L64.2215467,56.6157143 C64.07648,56.5064286 60.63968,53.9328571 60.63968,52.6064286 L60.63968,52.5742857 L60.75488,52.5742857 L62.5255467,52.4928571 C62.54688,52.4928571 64.55008,52.5807143 66.5575467,52.9492857 L66.5810133,52.9557143 L66.5831467,52.9792857 C66.6471467,53.8064286 66.6087467,54.4964286 66.4615467,55.0857143 C66.3591467,55.4585714 66.19488,55.6321429 66.00928,55.8292857 C65.92608,55.9171429 65.84288,56.005 65.7554133,56.1185714 C65.67008,56.2428571 65.6295467,56.3521429 65.5911467,56.4485714 C65.51648,56.6457143 65.4631467,56.8021429 65.0898133,56.8642857 C65.0343467,56.8771429 64.9746133,56.8814286 64.9234133,56.8814286 C64.69728,56.8814286 64.4818133,56.7914286 64.2663467,56.6114286" id="Fill-99" fill="#666767"></path>
            <path d="M55.21504,55.3047143 C54.9761067,54.6618571 54.6859733,53.674 54.9057067,52.9475714 C56.9003733,52.6004286 58.83744,52.5425714 58.83744,52.5425714 L60.6081067,52.6068571 L60.61664,52.6068571 C60.61664,53.9311429 57.04544,56.5882857 57.04544,56.5882857 L56.9665067,56.5754286 C56.0619733,56.5754286 55.5371733,56.1854286 55.21504,55.3047143" id="Fill-100" fill="#FFFFFF"></path>
            <path d="M58.83808,52.5738571 C58.8210133,52.5738571 56.89248,52.6381429 54.93408,52.9767143 C54.77408,53.5274286 54.8807467,54.3095714 55.2455467,55.2974286 C55.56768,56.1717143 56.07968,56.5445714 56.9714133,56.5445714 L57.0375467,56.5531429 C57.25728,56.3902857 60.5255467,53.9067143 60.5810133,52.6381429 L58.83808,52.5738571 Z M56.9671467,56.6088571 C56.0626133,56.6088571 55.51008,56.2102857 55.18368,55.3167143 C54.80608,54.3074286 54.7058133,53.506 54.87648,52.9402857 L54.88288,52.9188571 L54.90208,52.9167143 C56.87328,52.5717143 58.8167467,52.5095714 58.83808,52.5095714 L60.6087467,52.5738571 L60.6514133,52.5738571 L60.6514133,52.6081429 C60.6514133,53.9324286 57.2146133,56.506 57.0674133,56.6152857 L57.0567467,56.6238571 L56.9671467,56.6088571 Z" id="Fill-101" fill="#666767"></path>
            <path d="M60.6296533,71.983 C60.6296533,71.983 63.9512533,58.2644286 64.94752,52.7294286 C66.2424533,52.8901429 67.7997867,53.1665714 68.9752533,53.6122857 L68.42912,56.9915714 L66.2104533,57.5594286 L67.34112,59.7451429 C67.34112,59.7451429 64.80032,69.2294286 60.6296533,71.983" id="Fill-102" fill="#B52836"></path>
            <path d="M60.6712533,71.983 C60.6712533,71.983 57.34752,58.2644286 56.3512533,52.7294286 C55.0584533,52.8901429 53.4968533,53.1665714 52.32352,53.6122857 L52.86752,56.9915714 L55.0861867,57.5594286 L53.9576533,59.7451429 C53.9576533,59.7451429 56.49632,69.2294286 60.6712533,71.983" id="Fill-103" fill="#B52836"></path>
            <path d="M59.9088,75.2099286 C59.9088,75.5635 60.1925333,75.8506429 60.5445333,75.8506429 C60.8965333,75.8506429 61.1845333,75.5635 61.1845333,75.2099286 C61.1845333,74.8563571 60.8965333,74.5692143 60.5445333,74.5692143 C60.1925333,74.5692143 59.9088,74.8563571 59.9088,75.2099286" id="Fill-104" fill="#F6B90C"></path>
            <path d="M59.9088,78.058 C59.9088,78.4094286 60.1925333,78.6987143 60.5445333,78.6987143 C60.8965333,78.6987143 61.1845333,78.4094286 61.1845333,78.058 C61.1845333,77.7022857 60.8965333,77.4151429 60.5445333,77.4151429 C60.1925333,77.4151429 59.9088,77.7022857 59.9088,78.058" id="Fill-105" fill="#F6B90C"></path>
            <path d="M59.9088,80.9688571 C59.9088,81.3245714 60.1925333,81.6117143 60.5445333,81.6117143 C60.8965333,81.6117143 61.1845333,81.3245714 61.1845333,80.9688571 C61.1845333,80.6152857 60.8965333,80.3302857 60.5445333,80.3302857 C60.1925333,80.3302857 59.9088,80.6152857 59.9088,80.9688571" id="Fill-106" fill="#F6B90C"></path>
            <path d="M38.1400533,31.6139286 C37.9693867,30.4803571 37.88192,29.3210714 37.88192,28.1360714 C37.88192,15.3689286 48.1880533,5.01678571 60.9005867,5.01678571 C73.61312,5.01678571 83.9213867,15.3689286 83.9213867,28.1360714 C83.9213867,29.2632143 83.8381867,30.3732143 83.6824533,31.4553571 C85.0136533,32.1860714 85.9096533,33.5639286 85.9096533,35.1453571 C85.9096533,37.4917857 83.9384533,39.3946429 81.5128533,39.3946429 C81.3485867,39.3946429 81.1864533,39.3839286 81.0264533,39.3646429 C77.09472,46.4617857 69.55552,51.2596429 60.9005867,51.2596429 C52.2541867,51.2596429 44.7213867,46.4703571 40.7853867,39.3860714 C40.71712,39.3925 40.6488533,39.3946429 40.5805867,39.3946429 C38.1528533,39.3946429 36.1837867,37.4917857 36.1837867,35.1453571 C36.1837867,33.6732143 36.9624533,32.3746429 38.1400533,31.6139286" id="Fill-107" fill="#FDDFBB"></path>
            <g id="Page-1" transform="translate(48.000000, 27.000000)">
                <path d="M8.31106854,1.65026755 C8.31106854,1.65026755 7.80801591,3.45328977 6.22875275,3.09640088 C5.45712117,2.92235643 5.3211738,1.89471199 2.8433317,2.35573421 C2.06412117,2.53613421 0.42612117,3.51195643 0.110647486,4.16364532 C-0.205299883,4.8158231 0.0234895909,1.77248977 2.56764749,0.641689768 C4.4031738,-0.0329768984 5.02512117,0.000267546019 6.54470012,0.000267546019 C8.06427906,0.000267546019 8.53227906,0.907156435 8.31106854,1.65026755" id="Fill-1" fill="#F6B90C"></path>
                <path d="M18.05184,1.65026755 C18.05184,1.65026755 18.5548926,3.45328977 20.1341558,3.09640088 C20.9057873,2.92235643 21.0417347,1.89471199 23.5195768,2.35573421 C24.2987873,2.53613421 25.9367873,3.51195643 26.252261,4.16364532 C26.5682084,4.8158231 26.3394189,1.77248977 23.795261,0.641689768 C21.9597347,-0.0329768984 21.3377873,0.000267546019 19.8182084,0.000267546019 C18.2986294,0.000267546019 17.8306294,0.907156435 18.05184,1.65026755" id="Fill-3" fill="#F6B90C"></path>
                <path d="M6,9 C6,10.6568785 5.10453816,12 3.99983098,12 C2.89512381,12 2,10.6568785 2,9 C2,7.34312148 2.89512381,6 3.99983098,6 C5.10453816,6 6,7.34312148 6,9" id="Fill-5" fill="#6172BB"></path>
                <path d="M24,9 C24,10.6568785 23.1048762,12 22.000169,12 C20.8951238,12 20,10.6568785 20,9 C20,7.34312148 20.8951238,6 22.000169,6 C23.1048762,6 24,7.34312148 24,9" id="Fill-7" fill="#6172BB"></path>
                <path d="M13.0197368,12.0692 C13.8586316,11.9552889 15.9802632,13.8262667 15.9802632,13.8262667 C15.9802632,13.8262667 16.0825789,13.4116889 15.6396842,12.5884 C15.1626842,11.7025333 12.9903684,11 12.9903684,11 C12.9903684,11 11.3026316,11.4478222 10.5030526,12.6040444 C10.207,12.8939556 10,13.9025333 10,13.9025333 C10,13.9025333 11.8947368,12.2217333 13.0197368,12.0692 Z" id="Fill-9" fill="#EEAC6C"></path>
                <g id="Group-13" transform="translate(6.000000, 15.000000)">
                    <mask id="mask-2" fill="white">
                        <use xlink:href="#path-1"></use>
                    </mask>
                    <g id="Clip-12"></g>
                    <path d="M0.199373684,0.696031111 C0.199373684,0.696031111 7.09763684,3.90412 13.3734789,0.299053333 C13.3734789,0.299053333 11.9822684,5.76825333 7.42305789,5.86016444 C3.30768947,5.98238667 2.43942632,4.36807556 1.94632105,3.90412 C1.45274211,3.44114222 0.524794737,2.13238667 0.199373684,0.696031111" id="Fill-11" fill="#EEAC6C" mask="url(#mask-2)"></path>
                </g>
            </g>
            <path d="M74.6213333,30.0695714 C72.744,28.9038571 69.9792,28.1688571 69.9792,28.1688571 C69.6528,27.556 69.9450667,26.5145714 70.3802667,26.4524286 C71.7584,26.2574286 74.6213333,30.0695714 74.6213333,30.0695714" id="Fill-114" fill="#F6B90C"></path>
            <path d="M47.9755733,30.0695714 C49.85504,28.9038571 52.6177067,28.1688571 52.6177067,28.1688571 C52.9441067,27.556 52.6539733,26.5145714 52.2187733,26.4524286 C50.8427733,26.2574286 47.9755733,30.0695714 47.9755733,30.0695714" id="Fill-115" fill="#F6B90C"></path>
            <path d="M84.73184,25.3507857 C84.7169067,24.1486429 84.62944,22.6872143 84.4587733,21.1250714 C81.38464,11.0043571 72.0129067,3.63935714 60.9281067,3.63935714 C51.2769067,3.63935714 42.9227733,9.22364286 38.8971733,17.3450714 C37.7793067,20.5400714 37.09664,23.6836429 37.0433067,25.0979286 C36.8427733,30.0179286 38.26144,31.6465 38.26144,31.6465 C38.26144,31.6465 42.38944,25.9122143 47.2705067,22.4665 C51.1083733,19.7622143 54.5217067,24.9907857 59.08064,20.5100714 C59.48384,20.1136429 61.0091733,18.5643571 61.0091733,18.5643571 C61.0091733,18.5643571 62.2593067,19.9786429 62.9313067,20.5100714 C66.98464,23.7243571 69.2459733,20.0750714 73.7793067,22.5522143 C77.4913067,24.5815 83.5713067,31.8115 83.5713067,31.8115 C83.5713067,31.8115 84.7681067,28.0550714 84.73184,25.3507857" id="Fill-116" fill="#F6B90C"></path>
            <path d="M58.6462933,54.0303571 L62.4052267,54.0303571 C63.4782933,54.0303571 64.3486933,51.7139286 64.3486933,50.6553571 L56.7006933,50.6553571 C56.7006933,51.7139286 57.5710933,54.0303571 58.6462933,54.0303571" id="Fill-117" fill="#FDDFBB"></path>
            <path d="M57.5922133,53.2936429 L64.3207467,51.0650714 L64.3335467,51.0500714 C63.06848,51.2665 61.76928,51.3800714 60.44448,51.3800714 C59.1751467,51.3800714 57.9314133,51.2793571 56.7175467,51.0800714 C56.79008,51.7379286 57.1634133,52.6315 57.5922133,53.2936429" id="Fill-118" fill="#EEAC6C"></path>
            <path d="M85.0296533,26.0767857 C84.7608533,31.6567857 82.3288533,51.4760714 60.7672533,51.3646429 C82.9197867,47.7110714 82.71072,27.3882143 82.71072,27.3882143 L85.0296533,26.0767857 Z" id="Fill-119" fill="#333433"></path>
            <path d="M36.5067733,26.0767857 C36.5067733,31.4596429 39.3057067,51.4760714 60.8673067,51.3646429 C37.3857067,47.2460714 38.9195733,27.3882143 38.9195733,27.3882143 L36.5067733,26.0767857 Z" id="Fill-120" fill="#333433"></path>
            <path d="M85.0296533,26.0767857 C79.99072,34.2303571 43.21632,34.3032143 36.5069867,26.0767857 C36.5069867,26.0767857 47.8264533,15.3903571 61.0125867,15.3903571 C77.0360533,15.3903571 85.0296533,26.0767857 85.0296533,26.0767857" id="Fill-121" fill="#1D1D1D"></path>
            <path d="M85.0296533,26.0767857 C85.0296533,12.5703571 74.16672,1.70821429 60.7672533,1.70821429 C47.3677867,1.70821429 36.5069867,12.5703571 36.5069867,26.0767857 L85.0296533,26.0767857 Z" id="Fill-122" fill="#333433"></path>
            <path d="M57.2941867,12.8450714 L64.2552533,12.8450714 L65.45632,9.75935714 C63.5597867,8.37292857 57.59712,8.4265 56.09312,9.75935714 L57.2941867,12.8450714 Z" id="Fill-123" fill="#1D1D1D"></path>
            <path d="M58.1899733,19.3595714 L63.35904,19.3595714 L64.2507733,17.0688571 C62.8449067,16.0381429 58.4161067,16.081 57.29824,17.0688571 L58.1899733,19.3595714 Z" id="Fill-124" fill="#1D1D1D"></path>
            <path d="M56.1108267,6.49814286 L65.43776,6.49814286 L67.0462933,2.36242857 C64.5054933,0.508857143 56.5182933,0.581714286 54.5022933,2.36242857 L56.1108267,6.49814286 Z" id="Fill-125" fill="#1D1D1D"></path>
            <path d="M67.7963733,23.2079286 C71.07104,20.7865 72.10784,9.95435714 72.10784,9.95435714 C72.10784,9.95435714 73.6801067,23.2079286 67.7963733,23.2079286" id="Fill-126" fill="#1D1D1D"></path>
            <path d="M53.94208,23.2079286 C50.69728,20.1436429 49.69248,9.95435714 49.69248,9.95435714 C49.69248,9.95435714 47.40768,22.7150714 53.94208,23.2079286" id="Fill-127" fill="#1D1D1D"></path>
        </g>
    </g>
</svg>