<?xml version="1.0" encoding="UTF-8"?>
<svg width="120px" height="120px" viewBox="0 0 120 120" version="1.1" xmlns="http://www.w3.org/2000/svg" xmlns:xlink="http://www.w3.org/1999/xlink">
    <!-- Generator: Sketch 51.1 (57501) - http://www.bohemiancoding.com/sketch -->
    <title>Boom</title>
    <desc>Created with Sketch.</desc>
    <defs>
        <polygon id="path-1" points="0.369066667 0.170090909 15.7424899 0.170090909 15.7424899 40 0.369066667 40"></polygon>
    </defs>
    <g id="Boom" stroke="none" stroke-width="1" fill="none" fill-rule="evenodd">
        <path d="M18.2379506,44 C18.2379506,44 14.338219,33.8342387 16.8344782,33.0536518 C19.3298395,32.2721584 27,40.2865461 27,40.2865461 C27,40.2865461 24.4821903,38.1360792 23.5941327,38.5313589 C22.706075,38.9257321 23.6084996,43.300101 23.6084996,43.300101 C23.6084996,43.300101 21.3474994,39.2104061 19.7590524,39.970141 C18.1741972,40.7298759 18.2379506,44 18.2379506,44" id="Fill-23" fill="#FFFFFF"></path>
        <path d="M16,52 L32.4075397,86.0223749 L33,89 C33,89 18.4983688,62.9061965 16,52" id="Fill-25" fill="#FFFFFF"></path>
        <g id="Group-45" transform="translate(32.000000, 80.000000)">
            <mask id="mask-2" fill="white">
                <use xlink:href="#path-1"></use>
            </mask>
            <g id="Clip-44"></g>
            <path d="M15.7361778,0.170090909 C15.7361778,0.170090909 16.0846222,12.1437273 11.6037333,23.5828182 C7.12462222,35.021 3.13884444,40.0000909 3.13884444,40.0000909 L5.16195556,34.2291818 L0.369066667,38.3128182 C0.369066667,38.3128182 15.7415111,19.6491818 15.7361778,0.170090909" id="Fill-43" fill="#000000" mask="url(#mask-2)"></path>
        </g>
        <path d="M34.9018108,99 C34.9018108,99 39.5829953,66.1190441 45.1523025,67.9309068 C50.7216098,69.7427695 55.0907756,83.2738572 55.0907756,83.2738572 C55.0907756,83.2738572 56.9384688,57.6645821 64.624981,59.7214367 C72.3114932,61.7782913 78.2588405,74.5869671 78.2588405,74.5869671 C78.2588405,74.5869671 72.4996088,54.5362248 75.6604936,53.4530558 C78.8222829,52.3689893 91.9234496,66.9177354 91.9234496,66.9177354 C91.9234496,66.9177354 81.9741237,50.4691808 84.3436568,49.6444647 C86.7131899,48.8197486 99.2463922,59.3687561 99.2463922,59.3687561 C99.2463922,59.3687561 83.7313767,41.6422954 91.1230539,40.7655297 C98.514731,39.8887641 111,45.9004869 111,45.9004869 C111,45.9004869 99.3721041,23.07676 87.6772824,14.5074301 C75.9842695,5.93810019 66.9746173,6.02245635 64.0904794,8.331482 C61.2081504,10.641405 64.7434577,20.2140349 64.7434577,20.2140349 C64.7434577,20.2140349 51.111407,5.65093027 44.5336916,8.53070613 C37.9559762,11.4113794 48.694845,27.4507169 48.694845,27.4507169 C48.694845,27.4507169 37.4522243,13.8200171 30.3562866,17.6295056 C23.2594444,21.4398915 36.0811509,34.3876653 36.0811509,34.3876653 C36.0811509,34.3876653 28.0790024,27.4291791 26.2828602,32.5695207 C24.4858135,37.7116571 29.0132497,41.135261 29.0132497,41.135261 C29.0132497,41.135261 19.0865338,26.8216353 10.4404511,34.1175461 C1.79346404,41.4134569 34.9018108,99 34.9018108,99" id="Fill-1" fill="#000000"></path>
        <path d="M81.1129454,47.2360349 C80.5623548,48.7766322 82.508733,53.1348892 84.7299574,57.3063251 C81.0069589,53.6881324 76.5474445,49.8695809 74.2938852,49.8695809 C74.0486793,49.8695809 73.8034733,49.9156093 73.5888059,49.9787855 C71.1071063,50.8253469 71.8876336,57.3839416 73.5582674,64.5138298 C71.0756696,60.9867914 67.535902,57.123114 63.4437473,56.0292628 C63.0763875,55.937206 62.6928603,55.8911776 62.3416679,55.8911776 C56.548341,55.8911776 54.1887953,68.1780508 53.2986888,75.3702127 C51.5229667,71.1807265 48.3963666,65.2538941 44.5332504,64.0057124 C44.2880445,63.9280959 44.0284675,63.8820675 43.7823634,63.8820675 C38.7264506,63.8820675 35.1247079,82.7293403 33.6543705,92 C21.5018568,70.5652095 5.67215231,37.5980506 11.0972212,33.0394347 C12.3079817,32.0241025 13.5789208,31.4383687 14.9432718,31.3147238 C15.157041,31.2840382 15.3860796,31.2695979 15.6169144,31.2695979 C15.8917606,31.2695979 16.1827743,31.2840382 16.4603151,31.3300666 C16.5204938,31.3300666 16.5680979,31.3300666 16.6282766,31.3463119 C20.2596597,31.8688695 23.7087101,35.0565613 25.5311381,37.0276595 C25.7314345,37.2433612 26.0071789,37.3661036 26.2820251,37.3661036 C26.4823215,37.3661036 26.6960908,37.2893896 26.881118,37.1657447 C27.2933873,36.873329 27.4317086,36.304743 27.1874009,35.842654 C26.4212446,34.3941135 26.2667559,32.9013495 26.7275275,31.376095 C26.7580659,31.2840382 26.7877062,31.1775411 26.8191429,31.0836793 C27.1101565,30.2678035 27.5394914,29.9437997 28.3209169,29.9437997 C30.20532,29.9437997 33.085816,31.9609263 34.4052575,33.0249944 L34.4196285,33.0394347 C34.4510652,33.0710228 34.4654362,33.0854631 34.4968729,33.0999034 C34.5884883,33.1630796 34.6648345,33.2235483 34.7250132,33.285822 C34.9109386,33.4554953 35.1561445,33.5322093 35.385183,33.5322093 C35.6761966,33.5322093 35.9357736,33.4239072 36.1522375,33.209108 C36.5195973,32.7930474 36.504328,32.1612852 36.1208008,31.7768127 C33.9004746,29.5277391 28.2436726,22.9059683 28.7951614,19.1821811 C28.887675,18.5964473 29.1319827,18.1027702 29.5622158,17.7020524 C29.761614,17.5179389 30.0220892,17.3338253 30.3131028,17.1794948 C30.9732726,16.8239029 31.692723,16.6551321 32.5199562,16.6551321 C38.6941158,16.6551321 46.8029771,26.3409499 46.8784251,26.449252 C47.0320156,26.6189253 47.1999772,26.7254223 47.4002736,26.7732558 L47.4137465,26.7732558 C47.4909908,26.8021363 47.5835044,26.8192841 47.676018,26.8192841 C47.8906855,26.8192841 48.1053529,26.7416676 48.2876855,26.6017774 C48.7331879,26.2795787 48.8391743,25.6631592 48.5337897,25.2010703 C46.5407056,22.246228 41.6231141,13.7300729 42.7404627,9.89527612 C42.8940533,9.34113038 43.1706959,8.94131513 43.5991326,8.64889946 L43.6144018,8.64889946 C43.7374539,8.54059736 43.8910444,8.46388337 44.0437367,8.40251218 C44.4560061,8.21659358 44.9643817,8.1245368 45.5149723,8.1245368 C50.2951407,8.1245368 58.1273594,15.0080377 61.6967673,18.580202 C61.6967673,18.580202 61.6967673,18.5964473 61.7129348,18.6108875 C62.0344869,18.9348913 62.3102313,19.2110617 62.5563354,19.4745968 C62.7557336,19.689396 63.0296816,19.795893 63.3072224,19.795893 C63.4904532,19.795893 63.6745822,19.7498646 63.843442,19.6433676 C64.2575077,19.380735 64.4407385,18.8726176 64.2575077,18.4105287 C63.0296816,15.1000945 61.9419733,10.0496066 63.0296816,8.38626687 C63.106926,8.24818169 63.1994396,8.15612491 63.3072224,8.06406812 C64.1488267,7.38447245 65.713474,7 67.5817097,7 C70.4792713,7 76.5779829,7.92417791 85.0218692,14.068517 C90.9984269,18.426774 97.0198942,26.7732558 101.311447,33.5619923 C103.303633,36.7352438 104.929357,39.5529035 106,41.4779733 C102.308438,39.9536212 95.6869799,37.5502171 90.5071169,37.5502171 C89.9250896,37.5502171 89.3727026,37.5818052 88.8526505,37.644079 C87.1829149,37.8426328 86.4922066,38.7523704 86.2182586,39.4915323 C85.2823444,41.9545025 87.8709286,46.5591467 90.6921441,50.5320288 C87.5664421,48.2685149 84.2557129,46.1891146 82.6766945,46.1891146 C82.4458596,46.1891146 82.2320904,46.2207027 82.0326921,46.2974167 C81.6042554,46.4517472 81.2809069,46.7739459 81.1129454,47.2360349" id="Fill-3" fill="#7DB031"></path>
        <path d="M81.1129454,47.0038816 C80.5623548,48.5524688 82.508733,52.9333284 84.7299574,57.126398 C81.0069589,53.4894408 76.5474445,49.6510857 74.2938852,49.6510857 C74.0486793,49.6510857 73.8034733,49.6973528 73.5888059,49.7608566 C71.1071063,50.6118084 71.8876336,57.204417 73.5582674,64.371282 C71.0756696,60.8259518 67.535902,56.9422368 63.4437473,55.8427127 C63.0763875,55.7501785 62.6928603,55.7039114 62.3416679,55.7039114 C56.548341,55.7039114 54.1887953,68.0545062 53.2986888,75.2839679 C51.5229667,71.0727543 48.3963666,65.1151844 44.5332504,63.8605294 C44.2880445,63.7825104 44.0284675,63.7362433 43.7823634,63.7362433 C38.7264506,63.7362433 35.1247079,82.6812612 33.6543705,92 C21.5018568,70.4540452 5.67215231,37.3159131 11.0972212,32.7336556 C12.3079817,31.7130577 13.5789208,31.1242861 14.9432718,31 L16.4603151,31.0154224 L16.6740843,31.0154224 C16.6740843,31.0154224 16.6588151,31.0154224 16.6282766,31.0317519 C16.2447494,31.2168203 13.1190474,32.9504759 14.6522581,39.1248662 C16.2914553,45.7029595 30.8645916,74.8503272 30.8645916,74.8503272 C30.8645916,74.8503272 32.5954042,54.8828971 41.8979603,55.9669988 C51.1861454,57.0492861 51.8283514,62.3291791 51.8283514,62.3291791 C51.8283514,62.3291791 54.5265148,48.6295806 61.8961656,49.4496877 C67.9643387,50.1300863 69.0062394,52.359072 69.1921647,53.1347264 C68.914624,50.9202558 67.535902,35.6902142 79.3659654,33.3070048 C87.334709,31.7130577 95.9627243,32.4705681 101.311447,33.2589233 C103.303633,36.4486318 104.929357,39.2809042 106,41.2159578 C102.308438,39.6837002 95.6869799,37.2678316 90.5071169,37.2678316 C89.9250896,37.2678316 89.3727026,37.2995836 88.8526505,37.3621802 C87.1829149,37.5617638 86.4922066,38.4762195 86.2182586,39.2192148 C85.2823444,41.6949584 87.8709286,46.323483 90.6921441,50.3169691 C87.5664421,48.0417162 84.2557129,45.9515318 82.6766945,45.9515318 C82.4458596,45.9515318 82.2320904,45.9832838 82.0326921,46.0603956 C81.6042554,46.2155265 81.2809069,46.5393962 81.1129454,47.0038816" id="Fill-5" fill="#5F7C2C"></path>
        <path d="M43,62.7761634 C43,62.7761634 45.0438351,60.337795 46.7674754,61.1750225 C48.4884098,62.013155 53,71 53,71 C53,71 48.3431947,63.2495364 46.1397132,62.95266 C43.9362316,62.6575939 43,62.7761634 43,62.7761634" id="Fill-27" fill="#7DB031"></path>
        <path d="M72,47.9297407 C72,47.9297407 74.2077346,47.2175948 76.1360653,47.9819831 C78.062622,48.7445384 82,53 82,53 C82,53 75.7138549,41.559838 72,47.9297407" id="Fill-29" fill="#7DB031"></path>
        <path d="M81.0254354,46.5683392 C81.0254354,46.5683392 81.9945132,44.8224723 83.7407168,45.0662645 C85.4869204,45.3109306 88,47 88,47 C88,47 85.5055565,43.7835155 83.0623623,44.0115792 C80.6182364,44.2396429 81.0254354,46.5683392 81.0254354,46.5683392" id="Fill-31" fill="#7DB031"></path>
        <path d="M67.5217561,66 C67.5217561,66 74.0200091,79.4379141 72.8616988,94.1284696 C71.7043333,108.819025 68.0839051,116 68.0839051,116 L68.3030959,108.67845 L63,115.15834 C63,115.15834 77.2370128,88.0720963 67.5217561,66" id="Fill-39" fill="#000000"></path>
        <path d="M77.7115904,60 C77.7115904,60 81.6111156,71.2858012 80.9172928,83.6269383 C80.2217484,95.9680754 78.0490328,102 78.0490328,102 L78.1815994,95.8513226 L75,101.293098 C75,101.293098 83.5419402,78.5399818 77.7115904,60" id="Fill-41" fill="#000000"></path>
        <path d="M39.9994215,33.8527669 C40.047245,35.6850997 37.1197001,35.1981485 34.9910881,33.2727221 C35.0876727,33.3344862 35.1673784,33.3944599 35.2302053,33.4571191 C35.4233745,33.6245085 35.6803083,33.7014898 35.9184878,33.7014898 C36.223245,33.7014898 36.4942445,33.593179 36.7202337,33.3801378 C37.1028213,32.9674825 37.0878178,32.3417861 36.6874137,31.9595652 C34.3684456,29.7297943 28.4627194,23.1622195 29.0394138,19.4680146 C29.1359984,18.8870746 29.3910568,18.3974381 29.8402221,18 C29.6948763,18.7483294 29.8561632,19.8180107 30.9917355,21.2385833 C33.4551117,24.3232041 39.9515981,32.006112 39.9994215,33.8527669" id="Fill-7" fill="#5F7C2C"></path>
        <path d="M31.8410681,37.0666639 C30.8816248,38.4381149 27.4574534,38.3638891 26,36.4046734 C26.2091455,36.6109521 26.4980101,36.7291955 26.7840612,36.7291955 C26.9932067,36.7291955 27.2164202,36.6549697 27.4096219,36.5367263 C27.8401053,36.2570849 27.9854754,35.7133378 27.7294363,35.2714355 C26.9303692,33.886175 26.7690552,32.4594862 27.2492458,31 C27.3289649,31.3400577 27.5212287,31.7655614 27.9057563,32.2972252 C29.1540642,34.0786442 32.8005113,35.7133378 31.8410681,37.0666639" id="Fill-9" fill="#5F7C2C"></path>
        <path d="M52.844932,27.9514634 C51.8146892,29.6820529 49.7361607,29.1207312 47.8579072,27.3590587 C47.9354911,27.3883133 48.0275093,27.4056832 48.1213318,27.4056832 C48.3360409,27.4056832 48.5516521,27.3270616 48.7347864,27.1853598 C49.1822474,26.8589888 49.2896019,26.2345869 48.9819725,25.7665141 C46.9801258,22.7724938 42.0409144,14.1469724 43.1640775,10.2625167 C43.3174412,9.701195 43.5953,9.29620232 44.0265225,9 C43.8109112,9.74781944 43.7946727,11.0121645 44.8411541,12.9767904 C46.8114258,16.6262956 54.1530337,25.7198897 52.844932,27.9514634" id="Fill-11" fill="#5F7C2C"></path>
        <path d="M65.9676381,22.8849105 C64.6908293,23.4753999 63.2332625,21.7058003 62,19.5848968 C62.2933209,19.9203172 62.5463821,20.2062187 62.7706864,20.4790398 C62.9530876,20.7014077 63.2045056,20.8116573 63.4575668,20.8116573 C63.6251787,20.8116573 63.7936123,20.764007 63.9488999,20.6537574 C64.32767,20.3818707 64.4944604,19.8558492 64.32767,19.377478 C63.2045056,15.950397 62.209515,10.7219494 63.2045056,9 C63.1346673,9.7334402 63.1346673,11.9010596 64.579088,14.2770321 C66.3595543,17.1939752 68.2098589,21.848751 65.9676381,22.8849105" id="Fill-13" fill="#5F7C2C"></path>
        <path d="M67.9265594,18 C67.9265594,18 61.2036181,10.6993604 65.3516667,9.26076618 C69.4997154,7.81945761 79,12.8228703 79,12.8228703 C79,12.8228703 73.6048199,11.2331784 72.8554893,11.9470469 C72.1070352,12.6609153 73.316481,15.6041525 73.316481,15.6041525 C73.316481,15.6041525 70.6022392,12.4021493 68.8003402,12.7233449 C66.9993176,13.04635 67.9265594,18 67.9265594,18" id="Fill-15" fill="#FFFFFF"></path>
        <path d="M52.3562451,21.4434462 C52.3652102,21.2473882 41.9307336,10.0088683 45.9013752,9.05423084 C49.8702236,8.09959338 62,20.0646272 62,20.0646272 C62,20.0646272 58.5538167,18.1745916 57.3085647,18.0170123 C56.0615197,17.8603492 58.4587866,23 58.4587866,23 C58.4587866,23 52.9210462,16.5621522 51.7815823,16.9506035 C50.644808,17.3390548 52.3562451,21.4434462 52.3562451,21.4434462" id="Fill-17" fill="#FFFFFF"></path>
        <path d="M37.8727384,29.8266154 C37.8727384,29.8266154 27.9919145,19.5755962 31.9251638,18.1365965 C35.8584132,16.6975967 46,27.1025294 46,27.1025294 C46,27.1025294 42.0294988,23.9111394 40.6884325,24.390497 C39.3473662,24.8707817 43.5468299,30 43.5468299,30 C43.5468299,30 38.9475903,24.9254859 37.6792105,25.6004807 C36.4126479,26.2773298 37.8727384,29.8266154 37.8727384,29.8266154" id="Fill-19" fill="#FFFFFF"></path>
        <path d="M29.4244949,35 C29.4244949,35 26.2079209,32.3240849 27.1846274,31.1990173 C28.1613339,30.0758895 33,34.0727891 33,34.0727891 C33,34.0727891 30.7126776,32.6286291 29.8170757,33.0418004 C28.9214738,33.4559417 29.4244949,35 29.4244949,35" id="Fill-21" fill="#FFFFFF"></path>
        <path d="M35,14.4647785 C35,14.4647785 34.7912732,14.2618853 34.4194237,13.952062 C32.725053,12.5382074 27.6542191,8.87333555 23.5428269,11.7869544 C18.5298751,15.3403264 22.4842837,23 22.4842837,23 C22.4842837,23 15.3542456,11.6791103 21.4932698,8.63571294 C27.634925,5.59231561 35,14.4647785 35,14.4647785" id="Fill-33" fill="#000000"></path>
        <path d="M40.4098701,15 C40.4098701,15 34.5384322,6.36825403 41.2098135,3.46876319 C47.8848558,0.570162036 57,8.21168607 57,8.21168607 C57,8.21168607 45.4923478,-3.38182885 38.6434047,0.982087246 C31.7981227,5.34333428 40.4098701,15 40.4098701,15" id="Fill-35" fill="#000000"></path>
        <path d="M25.4600104,6 C25.4600104,6 24.8120207,2.52960368 26.60588,1.59805616 C28.3988069,0.665554175 33,3.82384389 33,3.82384389 C33,3.82384389 27.6529195,-1.08205189 25.0562989,0.219823955 C22.4634077,1.5216998 25.4600104,6 25.4600104,6" id="Fill-37" fill="#000000"></path>
    </g>
</svg>