<?xml version="1.0" encoding="UTF-8"?>
<svg width="120px" height="120px" viewBox="0 0 120 120" version="1.1" xmlns="http://www.w3.org/2000/svg" xmlns:xlink="http://www.w3.org/1999/xlink">
    <!-- Generator: Sketch 51.1 (57501) - http://www.bohemiancoding.com/sketch -->
    <title>Balloon3</title>
    <desc>Created with Sketch.</desc>
    <defs></defs>
    <g id="Balloon3" stroke="none" stroke-width="1" fill="none" fill-rule="evenodd">
        <g id="Group-6" transform="translate(0.000000, 32.000000)">
            <polygon id="Fill-186" fill="#B5D305" points="70.0498286 41.8937244 59.8647896 55.7947911 38.8981403 55.7947911 36.0542961 41.8937244"></polygon>
            <polygon id="Fill-187" fill="#A01FA0" points="68.2929039 44.2878178 61.6171636 53.4049289 38.4085403 53.4049289 36.5440208 44.2878178"></polygon>
            <path d="M114.371657,0.127648889 L114.371657,17.65876 L95.2233974,13.6597378 C95.2093714,13.5010711 95.2046961,7.22782667 95.2046961,7.22782667 C95.2046961,3.24311556 98.4359688,0.0172044444 102.428384,0.0172044444 C102.428384,0.0172044444 113.963034,0.0554711111 114.371657,0.127648889" id="Fill-188" fill="#FFA105"></path>
            <path d="M114.371657,41.7831244 L114.371657,24.2517022 L95.2233974,28.2510356 C95.2093714,28.4097022 95.2046961,34.6829467 95.2046961,34.6829467 C95.2046961,38.66828 98.4359688,41.8935689 102.428384,41.8935689 C102.428384,41.8935689 113.963034,41.8553022 114.371657,41.7831244" id="Fill-189" fill="#FFA105"></path>
            <path d="M119.938816,21.7292133 C119.938816,21.7292133 89.9631273,10.3895244 53.4248416,10.3895244 C17.1701922,10.3895244 0.523542857,21.5525022 0.265464935,21.7264133 C17.5638545,-15.55932 114.372374,3.38765778 119.938816,21.7292133" id="Fill-190" fill="#FF4412"></path>
            <path d="M119.938816,21.7292133 C119.938816,21.7292133 89.9631273,33.0695244 53.4248416,33.0695244 C17.1701922,33.0695244 0.523542857,21.9065467 0.265464935,21.7329467 C17.5638545,59.0180578 114.372374,40.07108 119.938816,21.7292133" id="Fill-191" fill="#FFD546"></path>
            <path d="M53.4247169,10.3894622 C17.1703792,10.3894622 0.523418182,21.55244 0.265651948,21.7263511 L119.930275,21.7263511 C119.574639,21.5925733 89.7441974,10.3894622 53.4247169,10.3894622" id="Fill-192" fill="#FFD546"></path>
            <path d="M53.4247169,33.0732267 C17.1703792,33.0732267 0.523418182,21.9099378 0.265651948,21.7360267 L119.930275,21.7360267 C119.574639,21.8701156 89.7441974,33.0732267 53.4247169,33.0732267" id="Fill-193" fill="#FF4412"></path>
            <path d="M0.265599084,21.7264756 L0.262472727,21.7292893 C0.26372327,21.7317904 0.264973813,21.7339788 0.265599084,21.7358546 L0.265599084,21.7264756 Z" id="Fill-194" fill="#FFD546"></path>
            <path d="M106.536218,22.9973984 L83.872426,22.9973984 C83.8979844,21.3485095 85.0241143,19.7024206 87.1769455,19.7024206 L103.231699,19.7024206 C105.381413,19.7024206 106.510348,21.3519317 106.536218,22.9973984" id="Fill-195" fill="#B5D305"></path>
            <path d="M106.536218,21.7246711 C106.55866,23.37356 105.48427,25.02276 103.231699,25.02276 L87.1769455,25.02276 C84.924374,25.02276 83.8468675,23.37356 83.872426,21.7246711 L106.536218,21.7246711 Z" id="Fill-196" fill="#B5D305"></path>
            <path d="M72.2931117,45.1828533 L72.2931117,49.74312 L61.0985143,49.74312 C61.0985143,47.4632978 62.606774,45.1828533 65.6295273,45.1828533 L72.2931117,45.1828533 Z" id="Fill-197" fill="#B5D305"></path>
            <path d="M43.8398338,48.6199778 C43.8398338,50.0240222 42.7034182,51.1623778 41.2967688,51.1623778 L37.9495481,51.1623778 L36.9119377,46.0816222 L41.2967688,46.0816222 C42.7034182,46.0816222 43.8398338,47.2159333 43.8398338,48.6199778" id="Fill-198" fill="#5AE0E0"></path>
            <polygon id="Fill-199" fill="#5AE0E0" points="46.0877922 51.1622222 51.9285195 51.1622222 51.9285195 46.0802222 46.0877922 46.0802222"></polygon>
            <polygon id="Fill-200" fill="#5AE0E0" points="54.1751688 53.4047111 57.0956883 53.4047111 57.0956883 46.0802222 54.1751688 46.0802222"></polygon>
            <path d="M72.2931117,49.7431822 L72.2931117,54.3003378 L65.6295273,54.3003378 C62.606774,54.3003378 61.0985143,52.0198933 61.0985143,49.7431822 L72.2931117,49.7431822 Z" id="Fill-201" fill="#83AD00"></path>
        </g>
    </g>
</svg>