<?xml version="1.0" encoding="UTF-8"?>
<svg width="120px" height="120px" viewBox="0 0 120 120" version="1.1" xmlns="http://www.w3.org/2000/svg" xmlns:xlink="http://www.w3.org/1999/xlink">
    <!-- Generator: Sketch 51.1 (57501) - http://www.bohemiancoding.com/sketch -->
    <title>Lipstick1</title>
    <desc>Created with Sketch.</desc>
    <defs></defs>
    <g id="Lipstick1" stroke="none" stroke-width="1" fill="none" fill-rule="evenodd">
        <g id="Group" transform="translate(59.608696, 60.000000) scale(-1, 1) translate(-59.608696, -60.000000) translate(17.000000, 0.000000)">
            <path d="M62.8389037,119.224632 L83.2190279,106.305377 C85.1345559,105.087986 85.7084689,102.526495 84.4935621,100.608483 L56.0438727,55.7314644 C54.1830031,52.7997874 53.4227546,52.5041352 50.7097112,54.2258743 L29.4600217,67.6966818 C26.7469782,69.4184209 26.9258602,70.2855017 28.324618,72.4917129 L57.1420093,117.947613 C58.3569161,119.865626 60.9208913,120.439539 62.8389037,119.224632" id="Fill-4-Copy" fill="#262039"></path>
            <path d="M33.5340805,75.4932284 L56.1974345,61.1255265 C56.8930867,60.6857749 57.1017823,59.7565824 56.6620308,59.0609302 L53.9961923,54.854719 C53.5539563,54.1590669 52.6247637,53.9528557 51.9291115,54.3926072 L29.2657575,68.7603091 C28.5701053,69.2000607 28.3614097,70.1317377 28.8036457,70.8249054 L31.4694842,75.0311166 C31.9092358,75.7267687 32.8384283,75.9354644 33.5340805,75.4932284" id="Fill-5-Copy" fill="#E1C9A8"></path>
            <path d="M40.7767769,61.726915 C47.5072116,57.4610765 53.7954104,55.3169772 54.8239818,56.9393374 C55.8525533,58.5616977 51.2314352,63.3343685 44.5010005,67.600207 C37.7705657,71.86853 31.4823669,74.0126293 30.4537955,72.3902691 C29.4252241,70.7679088 34.0463421,65.9927536 40.7767769,61.726915" id="Fill-6-Copy" fill="#D6AB62"></path>
            <path d="M53.2770186,57.026087 C54.2136646,58.5043478 50.0024845,62.8546584 43.868323,66.7428571 C37.7341615,70.6310559 32.0024845,72.5838509 31.063354,71.1055901 L5.46583851,30.7254658 L27.6770186,16.6459627 L53.2770186,57.026087" id="Fill-7-Copy" fill="#D6AB62"></path>
            <path d="M51.9279503,60.1937888 C50.2782609,62.0944099 47.4062112,64.4645963 43.9055901,66.6832298 C40.4049689,68.9018634 37.0360248,70.489441 34.6136646,71.1701863 L7.95031056,29.115528 L25.2670807,18.136646 L51.9279503,60.1937888" id="Fill-8-Copy" fill="#E1C9A8"></path>
            <path d="M39.0732919,69.468323 L11.9254658,26.6459627 L21.0385093,20.8695652 L48.1863354,63.689441 C46.8919255,64.7229814 45.4012422,65.7838509 43.778882,66.8149068 C42.1540373,67.8434783 40.5590062,68.7378882 39.0732919,69.468323" id="Fill-9-Copy" fill="#F5E0C6"></path>
            <path d="M14.4099379,25.2124224 L18.9068323,22.3602484 C19.9776398,23.7714286 21.0857143,25.3664596 22.178882,27.0881988 C26.5142857,33.9304348 28.936646,40.1689441 27.5875776,41.0236025 C26.2385093,41.8807453 21.6273292,37.0285714 17.2919255,30.1888199 C16.1987578,28.4645963 15.2273292,26.7801242 14.4099379,25.2124224" id="Fill-10-Copy" fill="#D6AB62"></path>
            <path d="M14.7564421,21.0055964 C20.8906036,17.1173976 26.6222806,15.1646026 27.5589266,16.6428635 C28.4955726,18.1211243 24.2843924,22.4714349 18.150231,26.3596337 C12.0160695,30.2478324 6.28439245,32.2006274 5.34774648,30.7223666 C4.41110052,29.2465902 8.62228065,24.8937951 14.7564421,21.0055964" id="Fill-11-Copy" fill="#E1C9A8"></path>
            <path d="M4.45223812,0.749588227 C12.1789462,-4.14979066 25.1503748,16.5235013 25.9478903,17.7831286 C26.7454058,19.0402715 23.1578282,22.7446193 17.9379524,26.0539361 C12.7180766,29.3632528 7.83857352,31.0253646 7.041058,29.7682218 C6.76776607,29.3359236 1.68702073,21.2638739 0.698200853,17.1719485 C-1.20242027,9.31853233 1.01869775,2.92598574 4.45223812,0.749588227" id="Fill-12-Copy" fill="#DC3767"></path>
            <path d="M5.52316728,1.00483515 C8.00515485,0.753903469 10.0001859,4.80856185 9.98031013,10.0657047 C9.96043436,15.3203631 7.93310516,19.7874438 5.45111759,20.04086 C2.96913001,20.2917917 0.97161448,16.2371333 0.993974729,10.9799904 C1.01385051,5.72284757 3.0411797,1.2582513 5.52316728,1.00483515" id="Fill-13-Copy" fill="#E0547E"></path>
        </g>
    </g>
</svg>