<?xml version="1.0" encoding="UTF-8"?>
<svg width="120px" height="120px" viewBox="0 0 120 120" version="1.1" xmlns="http://www.w3.org/2000/svg" xmlns:xlink="http://www.w3.org/1999/xlink">
    <!-- Generator: Sketch 51.1 (57501) - http://www.bohemiancoding.com/sketch -->
    <title>Starfish2</title>
    <desc>Created with Sketch.</desc>
    <defs>
        <polygon id="path-1" points="0.000112300084 0.197194848 119.953916 0.197194848 119.953916 115.545098 0.000112300084 115.545098"></polygon>
    </defs>
    <g id="Starfish2" stroke="none" stroke-width="1" fill="none" fill-rule="evenodd">
        <g id="Group" transform="translate(0.000000, 2.000000)">
            <g id="Group-3" transform="translate(0.000000, 0.257929)">
                <mask id="mask-2" fill="white">
                    <use xlink:href="#path-1"></use>
                </mask>
                <g id="Clip-2"></g>
                <path d="M55.3643954,74.6445898 C52.5532928,88.6018918 15.1096426,125.281092 6.84880608,102.243037 C2.23359696,89.3611231 27.1069049,71.043131 34.942038,63.7533271 C24.2561065,62.0547231 -9.97309506,48.6674133 2.82447148,33.4354761 C13.1572471,21.1494839 37.5291103,35.649029 47.9604411,40.7366525 C44.8742053,28.4797741 62.0556502,-10.3351906 77.7085779,2.91883294 C85.2722281,9.32385255 85.8494144,39.3569349 76.0294905,44.1575153 C85.2585399,39.6462525 109.437856,43.8754761 116.391468,51.5396643 C131.507361,68.1990839 94.3023422,76.1325741 83.4749658,68.9483075 C92.5561825,76.5092329 102.648046,104.795947 90.3158783,113.818927 C76.0450038,124.254378 60.7643954,84.3676643 55.3643954,74.6445898" id="Fill-1" fill="#EA5759" mask="url(#mask-2)"></path>
            </g>
            <path d="M64.106692,49.5170792 C62.3098859,48.1878557 60.358403,47.5578165 58.3480608,47.7738949 C58.2052471,47.7193067 58.0615209,47.6688125 57.9159696,47.6228675 C54.8274525,46.6489224 51.3629658,48.5031027 49.158251,50.5060361 C47.7657034,51.7715733 47.253308,54.4964361 48.438251,56.0694871 C50.4107224,58.6874478 52.3234221,61.7866949 55.9777186,61.9450008 C59.0662357,62.078742 61.6861597,59.5372047 64.106692,57.9878086 C67.441597,55.8524988 67.0806844,51.7169851 64.106692,49.5170792" id="Fill-4" fill="#D12F28"></path>
            <path d="M60.7795437,36.9288502 C60.9479087,37.0962541 61.1358935,37.2491012 61.3439544,37.3637365 C62.0342966,37.7431247 62.6639544,37.7613208 63.4368821,37.6371325 C63.823346,37.574811 64.4676046,37.1808659 64.7071483,36.8815404 C65.0306464,36.4789522 65.2359696,36.1832659 65.4458555,35.7370071 C65.7114068,35.1724737 65.9755894,34.6338698 65.9527757,33.9847247 C65.9149049,32.9125208 65.3053232,31.6451639 64.1263118,31.422262 C63.4067681,31.2857914 62.661673,31.3158149 62.0365779,31.7447875 C61.745019,31.9440345 61.5041065,32.1578384 61.2919392,32.4007561 C60.4665399,32.8770384 59.858327,33.7481757 59.9322433,34.7280345 C59.9947529,35.5636894 60.1553612,36.3092737 60.7795437,36.9288502" id="Fill-6" fill="#D12F28"></path>
            <path d="M69.7356958,23.7560267 C70.4620837,22.6983796 70.2239087,21.21176 69.3579011,20.3224267 C68.3499924,19.2875247 66.6152395,19.313909 65.6036806,20.3224267 C65.4207148,20.5048424 65.2674068,20.7122776 65.146038,20.9360894 C65.0369886,21.035258 64.9261141,21.1316973 64.8184335,21.2295012 C63.7183574,22.2207325 63.8105247,24.0576267 64.8184335,25.0620502 C65.8258859,26.0664737 67.6687757,26.1583639 68.6620837,25.0620502 C69.0417034,24.6439953 69.4153916,24.2227561 69.7356958,23.7560267" id="Fill-8" fill="#D12F28"></path>
            <path d="M85.8171103,53.2635608 C85.7144487,53.0479373 85.5898859,52.8514196 85.4206084,52.7040314 C84.6996958,52.0767216 83.838251,52.0849098 83.204943,52.5466353 C82.8923954,52.5216157 82.5784791,52.5334431 82.2627376,52.603498 C80.444943,53.0079059 80.3856274,55.3656627 80.358251,56.8131608 C80.3404563,57.7507137 81.1590114,58.5431529 82.0893536,58.5390588 C83.7803042,58.5313255 85.2326236,57.7871059 85.8531559,56.1712941 C86.1155133,55.4880314 86.2063118,54.3985412 85.936654,53.5592471 C85.9147529,53.4532549 85.8736882,53.3531765 85.8171103,53.2635608" id="Fill-10" fill="#D12F28"></path>
            <path d="M99.3591787,54.9832267 C99.0489125,54.6411404 98.6542357,54.3813914 98.1710418,54.2635718 C97.9871635,54.2185365 97.8064791,54.1885129 97.6294449,54.1170933 C97.6385703,54.1207325 97.6472395,54.1243718 97.6568213,54.1284659 C97.6207757,54.1161835 97.5851863,54.1070855 97.549597,54.0961678 C97.2119544,53.87736 96.8099772,53.752262 96.4157567,53.752262 C95.7605475,53.752262 94.9273916,54.1266463 94.6486084,54.7630541 C94.5509658,54.9855012 94.4487605,55.2061286 94.3689125,55.4358541 C94.3533992,55.487258 94.3433612,55.5400267 94.3383422,55.5937051 C94.2730951,56.2892502 94.2457186,56.3793208 94.2562129,55.863462 C93.8241217,56.9429443 94.5354525,58.2648894 95.4612319,58.8157757 C96.0781141,59.1824267 96.7648061,59.3502855 97.4770494,59.3798541 C98.0870875,59.4048737 98.7149202,59.1487639 99.1899011,58.7398071 C99.3354525,58.6447325 99.4787224,58.54056 99.6233612,58.4172816 C100.556441,57.6184737 100.465643,56.0153992 99.6233612,55.2020345 C99.5366692,55.1187875 99.4486084,55.0487325 99.3591787,54.9832267" id="Fill-12" fill="#D12F28"></path>
            <path d="M109.317901,56.4767608 C109.238966,56.4376392 109.16003,56.3985176 109.081095,56.3593961 C108.573262,56.1073804 108.186342,56.0637098 107.617369,56.1460471 C107.485506,56.1651529 107.353643,56.1842588 107.221323,56.2033647 C106.488091,56.3102667 105.977065,57.1522902 105.977065,57.8328235 C105.977065,58.5138118 106.488091,59.3558353 107.221323,59.4622824 C107.353643,59.4818431 107.485506,59.500949 107.617369,59.5200549 C108.186342,59.6028471 108.573262,59.5587216 109.081095,59.3071608 C109.16003,59.2680392 109.238966,59.2284627 109.317901,59.1893412 C110.346342,58.6793961 110.346342,56.9871608 109.317901,56.4767608" id="Fill-14" fill="#D12F28"></path>
            <path d="M74.0168213,68.4201663 C73.2931711,67.4134682 72.4554525,66.8898761 71.1892928,66.7998055 C70.6522586,66.7615937 69.8510418,66.9908643 69.4084563,67.293829 C68.4945399,67.9193192 67.8037414,68.7213114 67.5181141,69.8353663 C67.4733992,70.0100486 67.4305095,70.184731 67.3826008,70.3585035 C67.1686084,71.1268329 67.1950722,71.9165427 67.467924,72.6198212 C67.4702053,72.629829 67.4711179,72.6398369 67.4738555,72.6498447 C67.608,73.1252173 67.8489125,73.5378133 68.197962,73.8880878 C68.2987985,73.9886212 68.4160608,74.0814212 68.539711,74.1696722 C68.5885323,74.2301741 68.6323346,74.2929506 68.6875437,74.3507231 C69.653019,75.3624251 71.1783422,75.5116329 72.3833612,74.8529349 C72.9984183,74.5163075 73.4583422,73.8953663 73.8375057,73.3321976 C73.9552243,73.1570604 74.0533232,72.968731 74.149597,72.7808565 C74.2956046,72.495178 74.4872395,72.1116957 74.5620684,71.8396643 C74.6510418,71.5185035 74.6624487,71.2401035 74.6414601,70.9585192 C74.59127,70.1433349 74.5178099,69.1161663 74.0168213,68.4201663" id="Fill-16" fill="#D12F28"></path>
            <path d="M78.9707681,81.3104502 C78.6376882,80.9720031 78.2110722,80.7841286 77.7771559,80.6176345 C76.8988289,80.2805522 75.6696274,80.7331796 75.2594373,81.5911247 C75.0148745,82.1033443 74.8976122,82.6000973 75.0532015,83.1637208 C75.2028593,83.7068737 75.5674221,84.1363012 76.0433156,84.4005992 C76.2650646,84.6071247 76.5338099,84.7481443 76.8043802,84.8855247 C77.6138099,85.2967561 78.5697034,85.2357992 79.234038,84.5730071 C79.895635,83.9138541 79.9659011,82.954011 79.5479544,82.1501992 C79.3868897,81.840411 79.2249125,81.5683796 78.9707681,81.3104502" id="Fill-18" fill="#D12F28"></path>
            <path d="M81.0917567,100.539384 C81.2236198,100.607619 81.3632395,100.670395 81.5115285,100.732262 C81.3563954,100.693595 81.2195133,100.62445 81.0917567,100.539384 M81.5115285,96.551258 C80.5871179,96.8605914 79.9150266,97.637109 79.9150266,98.6419875 C79.9163954,99.0332031 80.0154068,99.3980345 80.2116046,99.7360267 C80.3247605,99.9284502 80.4543422,100.080387 80.5980684,100.208215 L80.6099316,100.238238 C80.6710722,100.411556 80.7162433,100.588513 80.7746464,100.763195 C81.1186768,101.788544 81.9865095,102.532764 83.1062053,102.532764 C83.3297795,102.532764 83.550616,102.493642 83.7650646,102.431321 C83.7600456,102.436325 83.7545703,102.441784 83.7490951,102.446787 C84.2569278,102.377187 84.7392091,101.99598 85.0654449,101.538348 C85.1074221,101.482395 85.143924,101.423713 85.1804259,101.364121 C85.2005019,101.330913 85.2192091,101.297705 85.2374601,101.263587 C85.2712243,101.200811 85.304076,101.138035 85.3319087,101.071619 C85.3766236,100.967901 85.414038,100.864184 85.4382205,100.763195 C85.7279544,99.5622541 85.6426312,98.2007325 84.6817186,97.3045757 C83.8353308,96.5153208 82.6307681,96.1773286 81.5115285,96.551258" id="Fill-20" fill="#D12F28"></path>
            <path d="M43.7173688,69.0620784 C43.3044411,68.8755686 43.0023878,68.7759451 42.6286996,68.6690431 C42.1591939,68.4206667 41.696076,68.3392392 41.1581293,68.3219529 C40.4344791,68.2987529 39.6962281,68.6303765 39.1906768,69.1344078 C38.5172167,69.806298 38.359346,70.5987373 38.4323498,71.4685098 C38.1380532,71.7077882 38.0007148,72.0908157 38.2325019,72.5084157 C38.1394221,72.7172157 38.1202586,72.9196471 38.0928821,73.1571059 C38.0901445,73.1771216 38.0874068,73.1971373 38.0846692,73.2171529 C38.0778251,73.2703765 38.0696122,73.3304235 38.0595741,73.4059373 C38.0454297,73.5114745 38.032654,73.6170118 38.022616,73.7230039 C38.0801065,73.1134353 37.9555437,73.9463608 37.9623878,74.1838196 C37.9728821,74.5654824 38.0755437,74.9808078 38.2913612,75.300149 C39.5474829,77.1575137 41.8179011,76.1653725 43.4645932,75.3169804 C44.0285475,75.2451059 44.5194981,74.9958196 44.9219316,74.5327294 C45.020943,74.4135451 45.0934905,74.3243843 45.1514373,74.2506902 C45.3590418,74.0664549 45.5328821,73.8726667 45.7062662,73.5810745 C46.3701445,72.4638353 46.1237567,70.868949 45.1870266,69.9746118 C44.7207148,69.5292627 44.2785856,69.3159137 43.7173688,69.0620784" id="Fill-22" fill="#D12F28"></path>
            <path d="M30.7634829,86.9889459 C30.7621141,86.9889459 30.7607452,86.9894008 30.7593764,86.9894008 L30.7539011,86.9889459 C30.7570951,86.9889459 30.760289,86.9889459 30.7634829,86.9889459 M33.3158783,84.5120047 C33.2825703,84.2185929 33.2547376,83.9179027 33.1712395,83.6340439 C32.9047757,82.4531184 31.9835589,81.4568831 30.7940532,81.1307184 C29.0305551,80.6471576 27.1488821,81.7102635 26.6638631,83.4689145 C26.1783878,85.2275655 27.2451559,87.1031263 29.008654,87.5866871 C30.5079696,87.9979184 32.2559544,87.243691 32.9225703,85.8512361 C33.1972471,85.4468282 33.366981,84.9723655 33.3158783,84.5120047" id="Fill-24" fill="#D12F28"></path>
            <path d="M22.8437567,94.6718761 C22.884365,94.3484408 22.792654,94.018182 22.529384,93.7493349 L22.6014753,93.799829 C22.4668745,93.5136957 22.2204867,93.2935231 21.9334905,93.1438604 C21.3937186,92.7444565 20.6262662,92.6703075 19.9988897,92.8145114 C19.0840608,93.0242212 18.4484715,93.6119545 17.921019,94.3529898 C17.4588137,95.0025898 17.3379011,96.0743388 17.5468745,96.8035467 C17.7937186,97.6646761 18.3166084,98.3274682 19.0972928,98.7632643 C19.9669506,99.2481898 21.0291559,99.2700251 21.8974449,98.7632643 C22.6772167,98.3079075 23.3648213,97.3180408 23.2712852,96.375029 C23.2379772,96.041131 23.2448213,95.7240643 23.1512852,95.3856173 C23.0814753,95.1308722 22.9737947,94.894778 22.8437567,94.6718761" id="Fill-26" fill="#D12F28"></path>
            <path d="M41.4351331,52.0458792 C41.9826616,50.9736753 42.5493536,49.7818322 42.5311027,48.5449537 C42.5119392,47.2830557 41.8471483,46.3218478 40.871635,45.7150086 C40.4723954,45.3806557 39.9905703,45.1422871 39.4768061,45.044938 C39.168365,44.9862557 38.8562738,44.9498635 38.5469202,44.89664 C37.9911787,44.8011106 37.4938403,44.8183969 36.96,44.7856439 C36.48,44.71104 36.0378707,44.692389 35.540076,44.8638871 C34.5408365,45.2082478 33.7245627,45.9087969 33.4407605,46.9500675 C33.2272243,47.7352282 33.3212167,48.6545851 33.7870722,49.3378478 C33.8158175,49.3796988 33.8454753,49.416091 33.8751331,49.4561224 C34.1936122,51.1997616 36.3604563,52.2842478 37.7530038,53.0084518 C38.9931559,53.6535027 40.746616,53.3937537 41.4351331,52.0458792" id="Fill-28" fill="#D12F28"></path>
            <path d="M28.2753764,43.0833553 C28.1065551,42.9277788 27.9710418,42.7358102 27.8268593,42.5579435 C27.3783422,42.0061475 26.2855665,42.0061475 25.8365932,42.5579435 C25.6924106,42.7358102 25.5568973,42.9277788 25.388076,43.0833553 C24.058038,44.3079514 25.1033612,46.5583514 26.8317262,46.5583514 C28.5600913,46.5583514 29.6058707,44.3079514 28.2753764,43.0833553" id="Fill-30" fill="#D12F28"></path>
            <path d="M13.2112243,34.8769239 C12.8845323,34.760469 12.6043802,34.6949631 12.2941141,34.6453788 C12.3776122,34.6562965 12.4601977,34.667669 12.5432395,34.6785867 C12.2384487,34.5998886 11.9359392,34.5539435 11.6101597,34.5402965 C10.6104639,34.4975357 9.34156654,35.1753396 8.93365779,36.1174416 C8.62795437,36.8243592 8.52438023,37.0604533 8.48605323,37.8592612 C8.44179468,38.7818024 8.88118631,39.4828063 9.44285932,40.147418 C10.4375361,41.3247043 12.5131255,41.2168925 13.525597,40.147418 C13.6770798,39.9877475 13.8399696,39.7966886 13.9850646,39.5901631 C14.6941141,39.1079671 15.1599696,38.3651122 15.1599696,37.428469 C15.1599696,36.1838573 14.3354829,35.2786024 13.2112243,34.8769239" id="Fill-32" fill="#D12F28"></path>
        </g>
    </g>
</svg>