<?xml version="1.0" encoding="UTF-8"?>
<svg width="120px" height="120px" viewBox="0 0 120 120" version="1.1" xmlns="http://www.w3.org/2000/svg" xmlns:xlink="http://www.w3.org/1999/xlink">
    <!-- Generator: Sketch 51.1 (57501) - http://www.bohemiancoding.com/sketch -->
    <title>Turtle7</title>
    <desc>Created with Sketch.</desc>
    <defs>
        <polygon id="path-1" points="0.285552632 0.0980465116 82.0189737 0.0980465116 82.0189737 26.9284744 0.285552632 26.9284744"></polygon>
        <polygon id="path-3" points="0.522062596 0.326276579 44.4107002 0.326276579 44.4107002 30.0465116 0.522062596 30.0465116"></polygon>
        <polygon id="path-5" points="0 0.325892764 43.8888611 0.325892764 43.8888611 30.0465116 0 30.0465116"></polygon>
    </defs>
    <g id="Turtle7" stroke="none" stroke-width="1" fill="none" fill-rule="evenodd">
        <g id="Group" transform="translate(0.000000, 26.000000)">
            <path d="M59.7055263,27.5163581 C56.5010526,26.7043116 33.7989474,22.1902186 10.1218421,49.8907302 C10.1218421,49.8907302 11.9257895,54.4664977 24.8984211,58.4326372 C24.8984211,58.4326372 39.1160526,64.2142186 59.7055263,60.5477535 C80.2957895,64.2142186 94.5134211,58.4326372 94.5134211,58.4326372 C107.486053,54.4664977 109.289211,49.8907302 109.289211,49.8907302 C85.6121053,22.1902186 62.9107895,26.7043116 59.7055263,27.5163581" id="Fill-1" fill="#473E33"></path>
            <path d="M75.522,44.3990186 C75.522,49.4539488 71.4309474,53.5505535 66.3846316,53.5505535 L53.0259474,53.5505535 C47.9796316,53.5505535 43.8893684,49.4539488 43.8893684,44.3990186 L43.8893684,36.7727395 C43.8893684,31.7186 47.9796316,27.6212047 53.0259474,27.6212047 L66.3846316,27.6212047 C71.4309474,27.6212047 75.522,31.7186 75.522,36.7727395 L75.522,44.3990186 Z" id="Fill-3" fill="#948173"></path>
            <path d="M72.462,44.5163581 L70.2198947,42.1830093 L69.7864737,42.7293814 C68.0748947,44.8935209 62.9677895,50.5066837 59.9212105,50.5066837 C59.8454211,50.5066837 59.7735789,50.5240791 59.7064737,50.5501721 C59.6385789,50.5240791 59.5667368,50.5066837 59.4901579,50.5066837 C56.4443684,50.5066837 51.3364737,44.8935209 49.6248947,42.7293814 L49.1914737,42.1830093 L46.9501579,44.5163581 C46.7172632,44.7591023 46.7235789,45.1449628 46.9667368,45.3782186 C47.2091053,45.6114744 47.5943684,45.6051488 47.8280526,45.3608233 L49.1101579,44.0269163 C50.6512105,45.8724047 55.8277895,51.7267302 59.4901579,51.7267302 C59.5667368,51.7267302 59.6385789,51.7085442 59.7064737,51.6832419 C59.7735789,51.7085442 59.8454211,51.7267302 59.9212105,51.7267302 C63.5843684,51.7267302 68.7609474,45.8724047 70.302,44.0269163 L71.5841053,45.3608233 C71.8177895,45.6051488 72.2038421,45.6114744 72.4454211,45.3782186 C72.6877895,45.1449628 72.6948947,44.7591023 72.462,44.5163581" id="Fill-5" fill="#4B190D"></path>
            <path d="M51.4353158,36.3916233 C51.4353158,38.118507 50.0371579,39.5188326 48.3129474,39.5188326 C46.5887368,39.5188326 45.1913684,38.118507 45.1913684,36.3916233 C45.1913684,34.6647395 46.5887368,33.2659953 48.3129474,33.2659953 C50.0371579,33.2659953 51.4353158,34.6647395 51.4353158,36.3916233" id="Fill-7" fill="#4B190D"></path>
            <path d="M50.7006316,35.5484233 C50.7006316,36.2094465 50.1661579,36.7439581 49.5069474,36.7439581 C48.8469474,36.7439581 48.3132632,36.2094465 48.3132632,35.5484233 C48.3132632,34.8889814 48.8469474,34.3528884 49.5069474,34.3528884 C50.1661579,34.3528884 50.7006316,34.8889814 50.7006316,35.5484233" id="Fill-9" fill="#F9F4F0"></path>
            <path d="M74.2206316,36.3916233 C74.2206316,38.118507 72.8224737,39.5188326 71.0990526,39.5188326 C69.3748421,39.5188326 67.9774737,38.118507 67.9774737,36.3916233 C67.9774737,34.6647395 69.3748421,33.2659953 71.0990526,33.2659953 C72.8224737,33.2659953 74.2206316,34.6647395 74.2206316,36.3916233" id="Fill-11" fill="#4B190D"></path>
            <path d="M73.4866579,35.5484233 C73.4866579,36.2094465 72.9521842,36.7439581 72.2929737,36.7439581 C71.6329737,36.7439581 71.0992895,36.2094465 71.0992895,35.5484233 C71.0992895,34.8889814 71.6329737,34.3528884 72.2929737,34.3528884 C72.9521842,34.3528884 73.4866579,34.8889814 73.4866579,35.5484233" id="Fill-13" fill="#F9F4F0"></path>
            <path d="M58.6847368,37.6750047 C58.6847368,38.2893767 58.1865789,38.788307 57.5723684,38.788307 C56.9573684,38.788307 56.46,38.2893767 56.46,37.6750047 C56.46,37.0590512 56.9573684,36.5601209 57.5723684,36.5601209 C58.1865789,36.5601209 58.6847368,37.0590512 58.6847368,37.6750047" id="Fill-15" fill="#4B190D"></path>
            <path d="M62.9520789,37.6750047 C62.9520789,38.2893767 62.4539211,38.788307 61.8397105,38.788307 C61.2247105,38.788307 60.7273421,38.2893767 60.7273421,37.6750047 C60.7273421,37.0590512 61.2247105,36.5601209 61.8397105,36.5601209 C62.4539211,36.5601209 62.9520789,37.0590512 62.9520789,37.6750047" id="Fill-17" fill="#4B190D"></path>
            <path d="M59.6145789,53.6727163 L59.6145789,67.5826698 C59.6145789,67.5826698 27.3740526,68.1922977 24.5090526,58.4327163 C24.5090526,58.4327163 31.4122105,60.8696465 40.7564211,56.9066698 C50.1014211,52.943693 59.6145789,53.6727163 59.6145789,53.6727163" id="Fill-19" fill="#D5D2B1"></path>
            <path d="M59.6145789,53.6727163 L59.6145789,67.5826698 C59.6145789,67.5826698 92.0366842,68.1922977 94.9016842,58.4327163 C94.9016842,58.4327163 87.9985263,60.8696465 78.6535263,56.9066698 C69.3085263,52.943693 59.6145789,53.6727163 59.6145789,53.6727163" id="Fill-21" fill="#DDDCD3"></path>
            <g id="Group-25" transform="translate(18.157895, 0.692888)">
                <mask id="mask-2" fill="white">
                    <use xlink:href="#path-1"></use>
                </mask>
                <g id="Clip-24"></g>
                <path d="M82.0189737,26.9284744 C82.0189737,26.9284744 80.6460789,15.3368465 70.0860789,5.88089302 C60.3945,-2.79859535 54.1402895,3.68275349 53.1787105,4.80633488 C47.9184474,0.670195349 43.0513421,0.152288372 41.4242368,0.101683721 C41.3887105,0.100102326 41.3026579,0.0969395349 41.1526579,0.0977302326 C41.0026579,0.0969395349 40.9166053,0.100102326 40.8810789,0.101683721 C39.2539737,0.152288372 34.3876579,0.670195349 29.1273947,4.80633488 C28.1642368,3.68275349 21.9100263,-2.79859535 12.2184474,5.88089302 C1.65923684,15.3368465 0.285552632,26.9284744 0.285552632,26.9284744 L29.2616053,22.0482884 L29.2616053,19.3021953 L40.7579211,19.3021953 L41.5473947,19.3021953 L53.0437105,19.3021953 L53.0437105,22.0482884 L82.0189737,26.9284744 Z" id="Fill-23" fill="#7F614B" mask="url(#mask-2)"></path>
            </g>
            <path d="M59.7055263,27.6213628 C59.7055263,27.6213628 43.3728947,25.1812698 30.3765789,40.5856419 C17.3810526,55.9908047 9.73342105,49.8905721 9.73342105,49.8905721 C9.73342105,49.8905721 15.1286842,31.272014 18.4428947,27.6213628 C18.4428947,27.6213628 47.4189474,11.7591767 59.7055263,19.9950837 L59.7055263,27.6213628 Z" id="Fill-26" fill="#D5D2B1"></path>
            <path d="M59.7055263,27.6213628 C59.7055263,27.6213628 76.0373684,25.1812698 89.0336842,40.5856419 C102.03,55.9908047 109.677632,49.8905721 109.677632,49.8905721 C109.677632,49.8905721 104.282368,31.272014 100.967368,27.6213628 C100.967368,27.6213628 71.9921053,11.7591767 59.7055263,19.9950837 L59.7055263,27.6213628 Z" id="Fill-28" fill="#DDDCD3"></path>
            <path d="M54.5137895,17.9801488 C54.5137895,17.9801488 50.2743158,23.6352186 50.883,28.1200558 C50.883,28.1200558 45.3748421,29.1859163 40.6261579,31.9581023 C40.6261579,31.9581023 37.7066842,28.4118233 42.0622105,18.6119163 C42.0622105,18.6119163 49.3987895,16.8700093 54.5137895,17.9801488" id="Fill-30" fill="#94997E"></path>
            <path d="M33.2681842,21.1306047 C33.2681842,21.1306047 26.3602895,27.7866977 29.9618684,42.4992093 C29.9618684,42.4992093 24.5816053,50.0946512 17.0208158,49.844 C17.0208158,49.844 16.6726579,38.472186 24.7710789,24.5361395 C24.7710789,24.5361395 29.6389737,22.2454884 33.2681842,21.1306047" id="Fill-32" fill="#94997E"></path>
            <path d="M64.8247895,17.9801488 C64.8247895,17.9801488 69.0642632,23.6352186 68.4555789,28.1200558 C68.4555789,28.1200558 73.9645263,29.1859163 78.7132105,31.9581023 C78.7132105,31.9581023 81.6318947,28.4118233 77.2771579,18.6119163 C77.2771579,18.6119163 69.9397895,16.8700093 64.8247895,17.9801488" id="Fill-34" fill="#94997E"></path>
            <path d="M86.0703947,21.1306047 C86.0703947,21.1306047 92.9782895,27.7866977 89.3775,42.4992093 C89.3775,42.4992093 94.7577632,50.0946512 102.317763,49.844 C102.317763,49.844 102.665921,38.472186 94.5682895,24.5361395 C94.5682895,24.5361395 89.6996053,22.2454884 86.0703947,21.1306047" id="Fill-36" fill="#94997E"></path>
            <g id="Group-40" transform="translate(75.000000, 37.855679)">
                <mask id="mask-4" fill="white">
                    <use xlink:href="#path-3"></use>
                </mask>
                <g id="Clip-39"></g>
                <path d="M24.9193421,29.7345814 L44.4106579,29.7764884 C44.4303947,20.9578372 37.5556579,3.47472093 11.4098684,0.394162791 C6.06355263,-0.236023256 1.21934211,3.59174419 0.590131579,8.94634884 C0.346184211,11.0156047 0.768552632,13.0097442 1.68671053,14.7144884 C3.14328947,17.4202558 5.84960526,19.3954186 9.12828947,19.7812791 C23.5993421,21.4876047 24.8277632,28.6315581 24.9256579,30.046907 C24.9114474,29.8444884 24.9193421,29.7345814 24.9193421,29.7345814" id="Fill-38" fill="#7F614B" mask="url(#mask-4)"></path>
            </g>
            <g id="Group-43" transform="translate(0.000000, 37.855679)">
                <mask id="mask-6" fill="white">
                    <use xlink:href="#path-5"></use>
                </mask>
                <g id="Clip-42"></g>
                <path d="M33.0006316,0.393767442 C6.85563158,3.47432558 -0.0198947368,20.9582326 -0.000157894737,29.776093 L19.4919474,29.734186 C19.4919474,29.734186 19.4990526,29.844093 19.4856316,30.0465116 C19.5835263,28.6319535 20.8111579,21.488 35.283,19.7816744 C38.5616842,19.3950233 41.2672105,17.4198605 42.7237895,14.714093 C43.6419474,13.0093488 44.0643158,11.016 43.8211579,8.94595349 C43.1911579,3.59213953 38.3469474,-0.236418605 33.0006316,0.393767442" id="Fill-41" fill="#7F614B" mask="url(#mask-6)"></path>
            </g>
        </g>
    </g>
</svg>