<?xml version="1.0" encoding="UTF-8"?>
<svg width="120px" height="120px" viewBox="0 0 120 120" version="1.1" xmlns="http://www.w3.org/2000/svg" xmlns:xlink="http://www.w3.org/1999/xlink">
    <!-- Generator: Sketch 51.1 (57501) - http://www.bohemiancoding.com/sketch -->
    <title>Girl6</title>
    <desc>Created with Sketch.</desc>
    <defs>
        <polygon id="path-1" points="0.199373684 0.299053333 13.3734789 0.299053333 13.3734789 5.86666667 0.199373684 5.86666667"></polygon>
    </defs>
    <g id="Girl6" stroke="none" stroke-width="1" fill="none" fill-rule="evenodd">
        <g id="Group-111" transform="translate(28.000000, 5.000000)">
            <path d="M22.7604552,104.926488 C21.0399034,105.986651 19.7859034,108.131896 21.2629379,109.892039 C22.3781103,111.133427 24.0190069,110.145753 25.2661793,109.620202 C26.6430759,108.967794 28.2179724,108.505671 29.4651448,107.656182 C30.2730759,107.094386 31.2175586,106.503141 31.7614897,105.667243 C31.9299034,105.411263 32.0095586,105.173406 31.9481103,104.926488 L22.7604552,104.926488 Z" id="Fill-594" fill="#FDDFBB"></path>
            <path d="M42.3918138,104.926488 C44.1146414,105.986651 45.3663655,108.131896 43.889331,109.892039 C42.7741586,111.133427 41.1332621,110.145753 39.8860897,109.620202 C38.5091931,108.967794 36.9342966,108.505671 35.6871241,107.656182 C34.881469,107.094386 33.9347103,106.503141 33.3907793,105.667243 C33.2223655,105.411263 33.1427103,105.173406 33.2018828,104.926488 L42.3918138,104.926488 Z" id="Fill-595" fill="#FDDFBB"></path>
            <path d="M31.9483379,104.926488 L31.3657172,104.926488 C31.3497862,104.987651 31.3315793,105.026161 31.3133724,105.096386 C31.2337172,105.386345 30.7785448,105.800896 30.1390276,106.244896 C30.1299241,106.235835 29.3197172,105.486018 28.0019931,104.926488 L22.7606828,104.926488 C22.6491655,104.987651 22.5376483,105.05108 22.426131,105.173406 C22.426131,105.173406 26.5704759,104.382814 29.1330966,106.876916 C28.6802,107.151018 28.1954414,107.416059 27.7129586,107.676569 C27.6264759,107.588222 27.5377172,107.508937 27.4580621,107.445508 C26.4657862,106.695692 25.0797862,105.823549 23.8166828,105.7941 C23.0383379,105.764651 22.2577172,105.823549 21.4793724,106.002508 C21.3519241,106.156549 21.2335793,106.319651 21.1288897,106.487284 C21.7046828,106.410263 22.5422,106.42159 22.8198552,106.42159 C24.0852345,106.453304 25.4712345,106.87012 26.4043379,107.771712 C26.5158552,107.889508 26.6205448,108.036753 26.7252345,108.186263 C26.420269,108.3471 26.1289586,108.494345 25.8626828,108.627998 C25.4803379,108.247427 24.8635793,107.932549 24.2991655,107.739998 C23.450269,107.429651 21.7274414,107.094386 20.8193724,107.599549 C20.8262,107.595018 20.8239241,107.590488 20.8057172,107.590488 C20.7533724,107.610876 20.7078552,107.628998 20.6600621,107.651651 C20.5189586,108.390141 20.6691655,109.164876 21.2631655,109.873916 C22.2736483,110.995243 23.714269,110.299794 24.902269,109.769712 L24.9045448,109.769712 C24.9295793,109.758386 24.9523379,109.747059 24.9773724,109.737998 C25.0069586,109.722141 25.0388207,109.708549 25.0706828,109.694957 C25.0866138,109.688161 25.1048207,109.681365 25.1207517,109.674569 C25.1708207,109.651916 25.2186138,109.631529 25.264131,109.608876 L25.5122,109.497876 C25.5531655,109.479753 25.594131,109.461631 25.6373724,109.441243 C25.6760621,109.42312 25.7170276,109.409529 25.7557172,109.391406 C25.8148897,109.364222 25.8740621,109.339304 25.9309586,109.314386 C25.9514414,109.30759 25.9719241,109.298529 25.9924069,109.289467 C26.0675103,109.257753 26.1403379,109.260018 26.2131655,109.228304 C26.5499931,109.09012 26.8913724,108.972324 27.2304759,108.847733 C27.542269,108.661978 27.8563379,108.553243 28.1613034,108.410529 L28.1613034,108.392406 C28.6187517,108.181733 29.0579931,107.93708 29.4653724,107.660712 C29.5655103,107.592753 29.6656483,107.517998 29.7680621,107.445508 C29.7703379,107.447773 29.7703379,107.445508 29.7726138,107.447773 C29.9865448,107.300529 30.2027517,107.144222 30.4166828,106.983386 C30.4144069,106.983386 30.4144069,106.983386 30.4144069,106.98112 C30.9333034,106.596018 31.4271655,106.185998 31.7617172,105.667243 C31.930131,105.406733 32.0097862,105.173406 31.9483379,104.926488" id="Fill-596" fill="#B16B1A"></path>
            <path d="M33.203931,104.926488 L33.7888276,104.926488 C33.8047586,104.987651 33.8206897,105.026161 33.8388966,105.096386 C33.9185517,105.386345 34.376,105.800896 35.0132414,106.244896 C35.0246207,106.235835 35.8348276,105.549447 37.1502759,104.926488 L42.3915862,104.926488 C42.5053793,104.987651 42.5964138,105.019365 42.7397931,105.141692 C42.7397931,105.141692 38.584069,104.371488 36.0191724,106.867855 C36.472069,107.141957 36.9591034,107.411529 37.4393103,107.672039 C37.528069,107.583692 37.6145517,107.504406 37.6942069,107.443243 C38.6864828,106.693427 40.0747586,105.823549 41.3355862,105.7941 C42.1162069,105.762386 42.8945517,105.823549 43.6728966,106.000243 C43.8003448,106.156549 43.9186897,106.319651 44.0256552,106.487284 C43.4475862,106.407998 42.6123448,106.42159 42.3324138,106.42159 C41.0670345,106.453304 39.6810345,106.87012 38.747931,107.771712 C38.6386897,107.889508 38.5317241,108.036753 38.4270345,108.186263 C38.732,108.3471 39.0255862,108.494345 39.2895862,108.627998 C39.6742069,108.247427 40.2886897,107.932549 40.8553793,107.739998 C41.7042759,107.429651 43.4271034,107.094386 44.3328966,107.599549 C44.3283448,107.595018 44.4444138,107.628998 44.4922069,107.651651 C44.6333103,108.390141 44.4831034,109.164876 43.8891034,109.873916 C42.8808966,110.995243 41.438,110.299794 40.25,109.769712 L40.2477241,109.769712 C40.2226897,109.758386 40.199931,109.747059 40.1771724,109.737998 C40.1453103,109.722141 40.1134483,109.708549 40.0815862,109.694957 C40.0656552,109.688161 40.0474483,109.681365 40.0315172,109.674569 C39.9837241,109.651916 39.935931,109.631529 39.8881379,109.608876 C39.8062069,109.572631 39.722,109.53412 39.6423448,109.497876 C39.5991034,109.479753 39.5581379,109.461631 39.5171724,109.441243 C39.4762069,109.42312 39.4375172,109.409529 39.3988276,109.391406 C39.3373793,109.364222 39.2782069,109.339304 39.2213103,109.314386 C39.2008276,109.30759 39.1803448,109.298529 39.1598621,109.289467 C39.0870345,109.257753 39.011931,109.260018 38.9391034,109.228304 C38.6022759,109.09012 38.2631724,108.972324 37.924069,108.847733 C37.61,108.661978 37.295931,108.553243 36.9932414,108.410529 L36.9932414,108.392406 C36.5335172,108.181733 36.0942759,107.93708 35.6868966,107.660712 C35.5890345,107.592753 35.4866207,107.517998 35.3842069,107.445508 C35.381931,107.447773 35.381931,107.445508 35.381931,107.447773 C35.168,107.300529 34.9495172,107.144222 34.7355862,106.983386 C34.7378621,106.983386 34.7378621,106.983386 34.7378621,106.98112 C34.2189655,106.596018 33.7273793,106.185998 33.3905517,105.667243 C33.2221379,105.406733 33.1424828,105.173406 33.203931,104.926488" id="Fill-597" fill="#B16B1A"></path>
            <path d="M12.5145241,52.4130673 L7.17307586,46.4054755 C7.30507586,46.0996592 7.39838621,45.7643939 7.4530069,45.4064755 C7.78983448,44.7971082 8.06748966,44.0314347 8.23362759,43.1819449 C8.6705931,40.9483531 8.18355862,38.9775367 7.14804138,38.7759245 C6.59273103,38.6717204 5.99417931,39.090802 5.48893793,39.8496796 C4.37376552,38.7804551 2.99686897,38.3364551 1.84755862,38.8212306 C0.0860413793,39.5619857 -0.471544828,42.205598 0.600386207,44.7200878 C1.29907586,46.3669653 2.52348966,47.5517204 3.77976552,47.9662714 C3.77976552,47.9662714 6.98417931,57.272149 9.84266207,58.3028633 C12.1549379,59.1364959 19.364869,55.8404755 19.364869,55.8404755 C19.364869,55.8404755 20.0021103,53.1221082 20.5278345,51.9396184 C21.8614897,48.9312918 22.7035586,48.4306592 22.7035586,48.4306592 L12.5145241,52.4130673 Z" id="Fill-598" fill="#FDDFBB"></path>
            <path d="M55.0358207,73.9423102 C54.9152,72.8051265 54.4782345,71.8038612 53.8705793,71.1197388 C53.8705793,71.1197388 52.8282345,57.7159224 49.321131,53.2555347 C47.6142345,51.0853714 42.4639586,48.3307592 42.4639586,48.3307592 C42.4639586,48.3307592 44.0456828,49.8258612 44.7694069,52.2859837 C44.7694069,52.2859837 45.1585793,53.309902 45.2996828,53.8218612 C46.0234069,56.4858612 46.4307862,58.7874122 46.4307862,58.7874122 C48.0557517,61.0776367 50.1814069,71.1197388 50.1814069,71.1197388 L50.1836828,71.1197388 C50.0357517,71.3054939 49.9037517,71.5320245 49.7876828,71.7630857 C49.3780276,72.1640449 48.9729241,72.7077184 48.6360966,73.3397388 C47.7553379,74.9979429 47.6643034,76.6697388 48.4335448,77.0774939 C48.8432,77.2949633 49.4189931,77.1046776 49.9993379,76.6289633 C50.6252,77.7389633 51.6015448,78.4162898 52.6256828,78.3075551 C54.1960276,78.1421878 55.2725103,76.1849633 55.0358207,73.9423102" id="Fill-599" fill="#FDDFBB"></path>
            <path d="M42.7452552,48.625702 C41.2682207,47.071702 34.3564276,46.879151 34.3564276,46.879151 L32.6904966,46.9629673 L32.551669,46.9629673 L30.8720828,46.879151 C30.8720828,46.879151 23.9329793,47.1056816 22.4582207,48.6596816 C16.9733931,54.4248857 17.3807724,79.9820694 17.3807724,79.9820694 L17.3807724,104.988784 L47.7840138,104.988784 L47.7840138,79.9820694 C47.7840138,79.9820694 48.2300828,54.3909061 42.7452552,48.625702" id="Fill-600" fill="#EEEEED"></path>
            <path d="M35.8309586,46.9332918 C36.122269,46.3148633 36.2975103,45.6148837 36.2975103,45.1550265 L29.0420621,45.1550265 C29.0420621,45.6126184 29.2173034,46.3103327 29.5063379,46.9287612 C28.8008207,46.9808633 27.9018552,47.0669449 26.9687517,47.1983327 L33.3684759,57.7999653 L39.7113034,47.4293939 C38.3708207,47.1620878 36.8937862,47.0125776 35.8309586,46.9332918" id="Fill-601" fill="#FDDFBB"></path>
            <path d="M29.8190414,47.4799102 L36.2711103,45.361849 L36.2824897,45.3482571 C35.0831103,45.5521347 33.8495931,45.6586041 32.5933172,45.6586041 C31.3871103,45.6586041 30.2082138,45.5589306 29.0566276,45.3731755 C29.1226276,45.9961347 29.4093862,46.8614816 29.8190414,47.4799102" id="Fill-602" fill="#EEAC6C"></path>
            <path d="M39.1091103,72.2698347 C38.9748345,72.3989571 38.7995931,72.4873041 38.6425586,72.5779163 C38.603869,72.6005694 38.5651793,72.6186918 38.5219379,72.6413449 C38.5264897,72.6300184 38.5310414,72.6186918 38.5333172,72.6073653 C38.5583517,72.5824469 38.5765586,72.5484673 38.5924897,72.5212837 C38.6630414,72.4216102 38.7404207,72.3264673 38.8473862,72.2630388 C38.9293172,72.213202 39.0453862,72.213202 39.1409724,72.2381204 C39.1295931,72.2494469 39.1182138,72.2585082 39.1091103,72.2698347 Z M36.9743517,72.0682224 C36.9652483,72.1678959 36.9447655,72.2698347 36.9288345,72.3717735 C36.8264207,72.3128755 36.7308345,72.1928143 36.6807655,72.108998 C36.6329724,72.0319776 36.5487655,71.5018959 36.7467655,71.5313449 C36.8423517,71.5449367 36.9333862,71.6967122 36.9652483,71.7714673 C36.9971103,71.8552837 36.9789034,71.9798755 36.9743517,72.0682224 Z M47.7186966,72.4895694 L42.4523517,72.4895694 L33.6038,57.9168551 L39.9056621,47.4715286 C39.8009724,47.4466102 39.6940069,47.4262224 39.5870414,47.4035694 L33.3830414,57.5362837 L27.085731,47.1793041 C26.9787655,47.1951612 26.8900069,47.2087531 26.7648345,47.2268755 L26.7648345,47.2359367 L42.0108345,72.4895694 L39.8123517,72.4895694 C40.1924207,72.1769571 40.4154552,71.6559367 39.6621448,71.4316714 C39.0772483,71.2957531 38.1486966,71.9889367 37.7618,72.4895694 L37.4181448,72.4895694 C37.7754552,71.7420184 37.8619379,70.5232837 36.6739379,70.659202 C36.0435241,70.7634061 35.4654552,71.331998 35.7818,71.9051204 C35.9115241,72.1950796 36.2779379,72.3627122 36.6011103,72.4895694 L17.5066276,72.4895694 L17.5066276,73.2982837 L37.1882828,73.2982837 C37.1450414,73.4840388 37.1450414,73.5995694 37.1723517,73.7490796 C36.8787655,74.3335286 36.0321448,74.6529367 35.7294552,75.3098755 C35.4654552,75.8308959 35.3630414,76.6169571 35.4131103,77.2421816 C35.4131103,77.7111 35.4563517,78.651202 36.1891793,78.3906918 C36.5032483,78.2864878 36.3348345,77.9217735 36.3348345,77.9217735 L36.3348345,77.9761408 C35.1468345,76.8480184 36.4008345,75.1037327 37.3339379,74.2519776 C37.4522828,74.4988959 37.6115931,74.7367531 37.7162828,74.9496918 C38.1873862,75.8354265 38.3990414,76.6192224 38.4513862,77.6091612 C38.6084207,79.8540796 36.9333862,81.7342837 37.0403517,84.0290388 C37.8255241,83.7164265 37.9848345,82.0446306 38.2442828,81.2631 C38.5060069,80.3252633 38.9793862,79.3851612 39.1364207,78.4450592 C39.295731,77.4528551 39.031731,76.4538551 38.6653172,75.5137531 C38.4240759,74.8885286 37.8300759,74.0435694 37.7754552,73.2982837 L47.7186966,73.2982837 L47.7186966,72.4895694 Z" id="Fill-603" fill="#F6B90C"></path>
            <path d="M62.6679241,55.8708306 C62.3515793,55.8096673 62.0079241,55.8436469 61.6324069,55.9048102 C61.3069586,55.4834633 60.8768207,54.9647082 60.608269,54.7925449 C60.0825448,54.4640755 58.8854414,54.171851 57.8795103,54.1741163 C57.8385448,54.0721776 57.7953034,53.9815653 57.7543379,53.9181367 C57.3651655,53.3291571 56.1612345,52.4253 55.1507517,52.0787082 C55.1484759,52.0198102 55.1416483,51.9654429 55.1325448,51.922402 C54.9823379,51.1725857 54.0719931,49.7250551 53.1957862,49.0953 C53.1707517,48.3296265 52.7929586,47.0474633 52.258131,46.2455449 C52.3104759,46.1594633 52.3537172,46.0847082 52.3787517,46.016749 C52.720131,45.1989735 52.7406138,43.042402 52.1443379,42.1747898 C52.2239931,42.0887082 52.2877172,42.0071571 52.3309586,41.939198 C52.8839931,41.0330755 53.2890966,38.1674633 52.3332345,37.7008102 C52.886269,36.7924224 53.2890966,33.9268102 52.3309586,33.4646878 C51.8484759,33.2336265 50.7424069,34.2643408 50.6468207,34.7898918 C50.5876483,35.1047694 50.6308897,35.4468306 50.6946138,35.8206061 C50.2804069,36.1513408 49.7637862,36.5885449 49.5976483,36.855851 C49.0468897,37.7642388 48.6417862,40.629851 49.5953724,41.0965041 C49.0423379,42.0048918 48.6417862,44.8705041 49.5976483,45.3326265 C49.6272345,45.3439531 49.6545448,45.3530143 49.6864069,45.3575449 C49.6272345,45.4481571 49.5771655,45.5342388 49.5475793,45.6067286 C49.1424759,46.5830755 49.1948207,49.4849327 50.212131,49.790749 C50.2599241,49.8066061 50.3099931,49.8088714 50.3646138,49.8020755 C50.2917862,50.8780959 51.2157862,53.5806061 52.2717862,53.5670143 C52.3878552,53.5670143 52.5062,53.4967898 52.6154414,53.3835245 C52.9909586,54.504851 54.4975793,56.5458918 55.4443379,56.2604633 C55.5786138,56.2174224 55.6810276,56.0928306 55.7606828,55.918402 C55.7766138,55.9523816 55.7925448,55.9840959 55.8107517,56.0112796 C56.3933724,56.8970143 58.826269,58.4940551 59.6569586,57.8325857 C59.7320621,57.7714224 59.7775793,57.6740143 59.8026138,57.5539531 C60.7903379,58.0930959 63.5031655,58.4872592 63.9697172,57.5720755 C64.2132345,57.0940959 63.1936483,55.9773 62.6679241,55.8708306" id="Fill-604" fill="#AD6922"></path>
            <path d="M54.1668966,27.2070061 C54.3284828,26.1400469 54.4126897,25.0481694 54.4126897,23.9404347 C54.4126897,11.9433735 44.6424138,2.21841429 32.594,2.21841429 C20.5410345,2.21841429 10.7707586,11.9433735 10.7707586,23.9404347 C10.7707586,24.993802 10.8458621,26.0358429 10.9937931,27.0529653 C9.73296552,27.7393531 8.8817931,29.0351082 8.8817931,30.5234143 C8.8817931,32.7275571 10.7457241,34.5126184 13.0488966,34.5126184 C13.2036552,34.5126184 13.3584138,34.5035571 13.5131724,34.4877 C17.2364828,41.1499653 24.3872414,45.6601898 32.594,45.6601898 C40.7893793,45.6601898 47.9310345,41.1590265 51.6588966,34.5080878 C51.7248966,34.5126184 51.7863448,34.5126184 51.850069,34.5126184 C54.1532414,34.5126184 56.0171724,32.7275571 56.0171724,30.5234143 C56.0171724,29.1415776 55.2843448,27.9205776 54.1668966,27.2070061" id="Fill-605" fill="#FDDFBB"></path>
            <g id="Page-1" transform="translate(20.000000, 20.000000)">
                <path d="M6.22875275,3.09640088 C5.45712117,2.92235643 5.3211738,1.89471199 2.8433317,2.35573421 C2.06412117,2.53613421 0.42612117,3.51195643 0.110647486,4.16364532 C-0.205299883,4.8158231 0.0234895909,1.77248977 2.56764749,0.641689768 C4.4031738,-0.0329768984 5.02512117,0.000267546019 6.54470012,0.000267546019 C8.06427906,0.000267546019 8.53227906,0.907156435 8.31106854,1.65026755 C8.31106854,1.65026755 7.80801591,3.45328977 6.22875275,3.09640088 Z" id="Fill-1" fill="#AD6922"></path>
                <path d="M20.1341558,3.09640088 C20.9057873,2.92235643 21.0417347,1.89471199 23.5195768,2.35573421 C24.2987873,2.53613421 25.9367873,3.51195643 26.252261,4.16364532 C26.5682084,4.8158231 26.3394189,1.77248977 23.795261,0.641689768 C21.9597347,-0.0329768984 21.3377873,0.000267546019 19.8182084,0.000267546019 C18.2986294,0.000267546019 17.8306294,0.907156435 18.05184,1.65026755 C18.05184,1.65026755 18.5548926,3.45328977 20.1341558,3.09640088 Z" id="Fill-3" fill="#AD6922"></path>
                <path d="M6,9 C6,10.6568785 5.10453816,12 3.99983098,12 C2.89512381,12 2,10.6568785 2,9 C2,7.34312148 2.89512381,6 3.99983098,6 C5.10453816,6 6,7.34312148 6,9" id="Fill-5" fill="#6172BB"></path>
                <path d="M24,9 C24,10.6568785 23.1048762,12 22.000169,12 C20.8951238,12 20,10.6568785 20,9 C20,7.34312148 20.8951238,6 22.000169,6 C23.1048762,6 24,7.34312148 24,9" id="Fill-7" fill="#6172BB"></path>
                <path d="M13.0197368,12.0692 C13.8586316,11.9552889 15.9802632,13.8262667 15.9802632,13.8262667 C15.9802632,13.8262667 16.0825789,13.4116889 15.6396842,12.5884 C15.1626842,11.7025333 12.9903684,11 12.9903684,11 C12.9903684,11 11.3026316,11.4478222 10.5030526,12.6040444 C10.207,12.8939556 10,13.9025333 10,13.9025333 C10,13.9025333 11.8947368,12.2217333 13.0197368,12.0692 Z" id="Fill-9" fill="#EEAC6C"></path>
                <g id="Group-13" transform="translate(6.000000, 15.000000)">
                    <mask id="mask-2" fill="white">
                        <use xlink:href="#path-1"></use>
                    </mask>
                    <g id="Clip-12"></g>
                    <path d="M0.199373684,0.696031111 C0.199373684,0.696031111 7.09763684,3.90412 13.3734789,0.299053333 C13.3734789,0.299053333 11.9822684,5.76825333 7.42305789,5.86016444 C3.30768947,5.98238667 2.43942632,4.36807556 1.94632105,3.90412 C1.45274211,3.44114222 0.524794737,2.13238667 0.199373684,0.696031111" id="Fill-11" fill="#EEAC6C" mask="url(#mask-2)"></path>
                </g>
            </g>
            <path d="M55.2759241,21.1081224 C55.2599931,19.9709388 55.1780621,18.5913673 55.0142,17.1166531 C52.0828897,7.55932653 43.1546828,0.604836735 32.5924069,0.604836735 C23.3956483,0.604836735 15.4369586,5.87393878 11.5998552,13.5465306 C10.5370276,16.5616531 9.88613103,19.5314694 9.83151034,20.868 C9.64261379,25.5118776 10.9944759,27.0500204 10.9944759,27.0500204 C10.9944759,27.0500204 14.9271655,21.6382041 19.5790276,18.3852245 C23.2363379,15.8299592 26.4908207,20.7660612 30.8308897,16.5344694 C31.2177862,16.1584286 32.6675103,14.6995714 32.6675103,14.6995714 C32.6675103,14.6995714 33.8623379,16.0338367 34.5018552,16.5344694 C38.3617172,19.5699796 40.5192345,16.124449 44.8388207,18.4622449 C48.3755103,20.3786939 54.1698552,27.2063265 54.1698552,27.2063265 C54.1698552,27.2063265 55.3100621,23.6588571 55.2759241,21.1081224" id="Fill-614" fill="#AD6922"></path>
            <path d="M8.38064828,22.8467449 C8.38064828,22.8467449 31.205269,11.6787857 56.2898207,22.8467449 L56.2898207,19.8837245 C56.2898207,19.8837245 37.5367172,8.95815306 8.37609655,19.317398 L8.38064828,22.8467449 Z" id="Fill-615" fill="#F7B90B"></path>
        </g>
    </g>
</svg>