<?xml version="1.0" encoding="UTF-8"?>
<svg width="120px" height="120px" viewBox="0 0 120 120" version="1.1" xmlns="http://www.w3.org/2000/svg" xmlns:xlink="http://www.w3.org/1999/xlink">
    <!-- Generator: Sketch 51.1 (57501) - http://www.bohemiancoding.com/sketch -->
    <title>Apartment29</title>
    <desc>Created with Sketch.</desc>
    <defs>
        <polygon id="path-1" points="0 119.344262 72.6089286 119.344262 72.6089286 0.415737705 0 0.415737705"></polygon>
    </defs>
    <g id="Apartment29" stroke="none" stroke-width="1" fill="none" fill-rule="evenodd">
        <g id="Page-1" transform="translate(23.000000, 0.000000)">
            <polygon id="Fill-1" fill="#245778" points="11.2185357 12.0393443 61.3897411 12.0393443 61.3897411 1.30163934 11.2185357 1.30163934"></polygon>
            <polygon id="Fill-2" fill="#245778" points="0 119.584262 72.6089286 119.584262 72.6089286 9.67213115 0 9.67213115"></polygon>
            <polygon id="Fill-3" fill="#2C6B8F" points="0 119.584262 72.6089286 119.584262 72.6089286 96.9252459 0 96.9252459"></polygon>
            <g id="Group-31" transform="translate(0.000000, 0.240000)">
                <path d="M70.0038714,19.408918 C70.0038714,21.556459 68.2733804,23.2980984 66.1381304,23.2980984 L6.47040714,23.2980984 C4.33580893,23.2980984 2.60531786,21.556459 2.60531786,19.408918 C2.60531786,17.2607213 4.33580893,15.519082 6.47040714,15.519082 L66.1381304,15.519082 C68.2733804,15.519082 70.0038714,17.2607213 70.0038714,19.408918" id="Fill-4" fill="#71E5FF"></path>
                <path d="M70.0038714,30.5692459 C70.0038714,32.7167869 68.2733804,34.4584262 66.1381304,34.4584262 L6.47040714,34.4584262 C4.33580893,34.4584262 2.60531786,32.7167869 2.60531786,30.5692459 C2.60531786,28.4210492 4.33580893,26.6794098 6.47040714,26.6794098 L66.1381304,26.6794098 C68.2733804,26.6794098 70.0038714,28.4210492 70.0038714,30.5692459" id="Fill-6" fill="#71E5FF"></path>
                <path d="M70.0038714,41.7295738 C70.0038714,43.8771148 68.2733804,45.6187541 66.1381304,45.6187541 L6.47040714,45.6187541 C4.33580893,45.6187541 2.60531786,43.8771148 2.60531786,41.7295738 C2.60531786,39.581377 4.33580893,37.8397377 6.47040714,37.8397377 L66.1381304,37.8397377 C68.2733804,37.8397377 70.0038714,39.581377 70.0038714,41.7295738" id="Fill-8" fill="#71E5FF"></path>
                <path d="M70.0038714,52.8893115 C70.0038714,55.0375082 68.2733804,56.7791475 66.1381304,56.7791475 L6.47040714,56.7791475 C4.33580893,56.7791475 2.60531786,55.0375082 2.60531786,52.8893115 C2.60531786,50.7417705 4.33580893,49.0001311 6.47040714,49.0001311 L66.1381304,49.0001311 C68.2733804,49.0001311 70.0038714,50.7417705 70.0038714,52.8893115" id="Fill-10" fill="#71E5FF"></path>
                <path d="M70.0038714,64.0496393 C70.0038714,66.1978361 68.2733804,67.9394754 66.1381304,67.9394754 L6.47040714,67.9394754 C4.33580893,67.9394754 2.60531786,66.1978361 2.60531786,64.0496393 C2.60531786,61.9020984 4.33580893,60.160459 6.47040714,60.160459 L66.1381304,60.160459 C68.2733804,60.160459 70.0038714,61.9020984 70.0038714,64.0496393" id="Fill-12" fill="#71E5FF"></path>
                <path d="M70.0038714,75.2100328 C70.0038714,77.3582295 68.2733804,79.0998689 66.1381304,79.0998689 L6.47040714,79.0998689 C4.33580893,79.0998689 2.60531786,77.3582295 2.60531786,75.2100328 C2.60531786,73.0624918 4.33580893,71.3208525 6.47040714,71.3208525 L66.1381304,71.3208525 C68.2733804,71.3208525 70.0038714,73.0624918 70.0038714,75.2100328" id="Fill-14" fill="#71E5FF"></path>
                <path d="M70.0038714,86.3703607 C70.0038714,88.5185574 68.2733804,90.2601967 66.1381304,90.2601967 L6.47040714,90.2601967 C4.33580893,90.2601967 2.60531786,88.5185574 2.60531786,86.3703607 C2.60531786,84.2228197 4.33580893,82.4811803 6.47040714,82.4811803 L66.1381304,82.4811803 C68.2733804,82.4811803 70.0038714,84.2228197 70.0038714,86.3703607" id="Fill-16" fill="#71E5FF"></path>
                <mask id="mask-2" fill="white">
                    <use xlink:href="#path-1"></use>
                </mask>
                <g id="Clip-19"></g>
                <polygon id="Fill-18" fill="#2C6B8F" mask="url(#mask-2)" points="18.824875 97.6996721 53.7847054 97.6996721 53.7847054 4.95147541 18.824875 4.95147541"></polygon>
                <path d="M54.7932134,3.93632787 L52.7759366,3.93632787 L19.8327313,3.93632787 L17.8161063,3.93632787 L17.8161063,5.96583607 L17.8161063,96.6851803 L17.8161063,98.7146885 L19.8327313,98.7146885 L52.7759366,98.7146885 L54.7932134,98.7146885 L54.7932134,96.6851803 L54.7932134,5.96583607 L54.7932134,3.93632787 Z M19.8327313,96.6851803 L52.7759366,96.6851803 L52.7759366,5.96518033 L19.8327313,5.96518033 L19.8327313,96.6851803 Z" id="Fill-20" fill="#245778" mask="url(#mask-2)"></path>
                <polygon id="Fill-21" fill="#71E5FF" mask="url(#mask-2)" points="19.8331875 20.2537705 52.7763929 20.2537705 52.7763929 12.4754098 19.8331875 12.4754098"></polygon>
                <polygon id="Fill-22" fill="#71E5FF" mask="url(#mask-2)" points="19.8331875 31.4144262 52.7763929 31.4144262 52.7763929 23.6360656 19.8331875 23.6360656"></polygon>
                <polygon id="Fill-23" fill="#71E5FF" mask="url(#mask-2)" points="19.8331875 42.575082 52.7763929 42.575082 52.7763929 34.7967213 19.8331875 34.7967213"></polygon>
                <polygon id="Fill-24" fill="#71E5FF" mask="url(#mask-2)" points="19.8331875 53.735082 52.7763929 53.735082 52.7763929 45.9567213 19.8331875 45.9567213"></polygon>
                <polygon id="Fill-25" fill="#71E5FF" mask="url(#mask-2)" points="19.8331875 64.8957377 52.7763929 64.8957377 52.7763929 57.117377 19.8331875 57.117377"></polygon>
                <polygon id="Fill-26" fill="#71E5FF" mask="url(#mask-2)" points="19.8331875 76.0557377 52.7763929 76.0557377 52.7763929 68.277377 19.8331875 68.277377"></polygon>
                <polygon id="Fill-27" fill="#71E5FF" mask="url(#mask-2)" points="19.8331875 87.2163934 52.7763929 87.2163934 52.7763929 79.4380328 19.8331875 79.4380328"></polygon>
                <polygon id="Fill-28" fill="#3789B3" mask="url(#mask-2)" points="16.1349554 119.344262 56.4733214 119.344262 56.4733214 96.6852459 16.1349554 96.6852459"></polygon>
                <polygon id="Fill-29" fill="#245778" mask="url(#mask-2)" points="28.8669375 119.344262 43.7419911 119.344262 43.7419911 107.000656 28.8669375 107.000656"></polygon>
                <polygon id="Fill-30" fill="#245A79" opacity="0.38915308" mask="url(#mask-2)" points="36.3045295 0.415540984 36.3045295 119.344066 72.6089938 119.344066 72.6089938 9.43193443 61.1799313 9.43193443 61.3898063 1.06144262"></polygon>
            </g>
        </g>
    </g>
</svg>