<?xml version="1.0" encoding="UTF-8"?>
<svg width="120px" height="120px" viewBox="0 0 120 120" version="1.1" xmlns="http://www.w3.org/2000/svg" xmlns:xlink="http://www.w3.org/1999/xlink">
    <!-- Generator: Sketch 51.1 (57501) - http://www.bohemiancoding.com/sketch -->
    <title>Tape player</title>
    <desc>Created with Sketch.</desc>
    <defs></defs>
    <g id="Tape-player" stroke="none" stroke-width="1" fill="none" fill-rule="evenodd">
        <g id="Group-2" transform="translate(12.000000, 26.000000)">
            <polygon id="Fill-161" fill="#FF5F2E" points="0 69.6283333 95.8883433 69.6283333 95.8883433 0 0 0"></polygon>
            <polygon id="Fill-162" fill="#FF5F2E" points="0 69.6283333 47.9443777 69.6283333 47.9443777 0 0 0"></polygon>
            <path d="M42.7047554,44.92625 C42.7047554,55.0108333 34.6205665,63.18625 24.648515,63.18625 C14.6764635,63.18625 6.59227468,55.0108333 6.59227468,44.92625 C6.59227468,34.8416667 14.6764635,26.6666667 24.648515,26.6666667 C34.6205665,26.6666667 42.7047554,34.8416667 42.7047554,44.92625" id="Fill-171" fill="#FF5F2E"></path>
            <path d="M40.4951073,44.8508333 C40.4951073,53.7433333 33.3667983,60.9520833 24.5735279,60.9520833 C15.7806695,60.9520833 8.65236052,53.7433333 8.65236052,44.8508333 C8.65236052,35.9583333 15.7806695,28.75 24.5735279,28.75 C33.3667983,28.75 40.4951073,35.9583333 40.4951073,44.8508333" id="Fill-172" fill="#004E66"></path>
            <path d="M24.5735279,28.75 C15.7806695,28.75 8.65236052,35.9583333 8.65236052,44.8508333 C8.65236052,53.7429167 15.7806695,60.9516667 24.5735279,60.9516667 L24.5735279,28.75 Z" id="Fill-173" fill="#004E66"></path>
            <path d="M29.5758283,44.7466667 C29.5758283,47.5983333 27.2899571,49.91 24.4701116,49.91 C21.6506781,49.91 19.3648069,47.5983333 19.3648069,44.7466667 C19.3648069,41.895 21.6506781,39.5833333 24.4701116,39.5833333 C27.2899571,39.5833333 29.5758283,41.895 29.5758283,44.7466667" id="Fill-174" fill="#004E66"></path>
            <path d="M29.5758283,44.7466667 C29.5758283,47.5983333 27.2899571,49.91 24.4701116,49.91 C21.6506781,49.91 19.3648069,47.5983333 19.3648069,44.7466667 C19.3648069,41.895 21.6506781,39.5833333 24.4701116,39.5833333 C27.2899571,39.5833333 29.5758283,41.895 29.5758283,44.7466667" id="Fill-175" fill="#004E66"></path>
            <g id="Group-178" transform="translate(18.952790, 39.166667)">
                <path d="M10.6072996,5.46720833 C10.6072996,8.318875 8.32142833,10.6305417 5.50158283,10.6305417 C2.68214936,10.6305417 0.396278112,8.318875 0.396278112,5.46720833 C0.396278112,2.61554167 2.68214936,0.303875 5.50158283,0.303875 C8.32142833,0.303875 10.6072996,2.61554167 10.6072996,5.46720833" id="Fill-176" fill="#004E66"></path>
                <path d="M10.6072996,5.46720833 C10.6072996,8.318875 8.32142833,10.6305417 5.50158283,10.6305417 C2.68214936,10.6305417 0.396278112,8.318875 0.396278112,5.46720833 C0.396278112,2.61554167 2.68214936,0.303875 5.50158283,0.303875 C8.32142833,0.303875 10.6072996,2.61554167 10.6072996,5.46720833" id="Fill-177" fill="#007498"></path>
            </g>
            <polygon id="Fill-179" fill="#FCBE32" points="0 19.37125 95.8883433 19.37125 95.8883433 0 0 0"></polygon>
            <polygon id="Fill-180" fill="#007498" points="47.7939914 19.37125 95.7511416 19.37125 95.7511416 0 47.7939914 0"></polygon>
            <path d="M13.5265236,9.96458333 C13.5265236,12.24625 11.6975794,14.0958333 9.44137339,14.0958333 C7.18516738,14.0958333 5.35622318,12.24625 5.35622318,9.96458333 C5.35622318,7.68291667 7.18516738,5.83333333 9.44137339,5.83333333 C11.6975794,5.83333333 13.5265236,7.68291667 13.5265236,9.96458333" id="Fill-185" fill="#E1EEF6"></path>
            <path d="M9.47639485,5.83333333 L9.47639485,14.0958333 C11.7326009,14.0958333 13.5615451,12.24625 13.5615451,9.96458333 C13.5615451,7.68291667 11.7326009,5.83333333 9.47639485,5.83333333" id="Fill-186" fill="#FF5F2E"></path>
            <path d="M19.3648069,5.97083333 C19.3648069,4.74916667 20.352824,3.75 21.5608584,3.75 L42.1786094,3.75 C43.3862318,3.75 44.3742489,4.74916667 44.3742489,5.97083333 C44.3742489,7.19208333 43.3862318,8.19125 42.1786094,8.19125 L21.5608584,8.19125 C20.352824,8.19125 19.3648069,7.19208333 19.3648069,5.97083333" id="Fill-187" fill="#FF5F2E"></path>
            <path d="M19.3648069,13.8870833 C19.3648069,12.6658333 20.352824,11.6666667 21.5608584,11.6666667 L42.1786094,11.6666667 C43.3862318,11.6666667 44.3742489,12.6658333 44.3742489,13.8870833 C44.3742489,15.10875 43.3862318,16.1079167 42.1786094,16.1079167 L21.5608584,16.1079167 C20.352824,16.1079167 19.3648069,15.10875 19.3648069,13.8870833" id="Fill-188" fill="#FF5F2E"></path>
            <path d="M91.3223691,44.92625 C91.3223691,55.0108333 83.2385923,63.18625 73.2665408,63.18625 C63.2944893,63.18625 55.2103004,55.0108333 55.2103004,44.92625 C55.2103004,34.8416667 63.2944893,26.6666667 73.2665408,26.6666667 C83.2385923,26.6666667 91.3223691,34.8416667 91.3223691,44.92625" id="Fill-163" fill="#FF5F2E"></path>
            <path d="M89.112721,44.8508333 C89.112721,53.7433333 81.984412,60.9520833 73.1915536,60.9520833 C64.3986953,60.9520833 57.2703863,53.7433333 57.2703863,44.8508333 C57.2703863,35.9583333 64.3986953,28.75 73.1915536,28.75 C81.984412,28.75 89.112721,35.9583333 89.112721,44.8508333" id="Fill-164" fill="#004E66"></path>
            <path d="M73.1919657,28.75 C64.3986953,28.75 57.2703863,35.9583333 57.2703863,44.8508333 C57.2703863,53.7429167 64.3986953,60.9516667 73.1919657,60.9516667 L73.1919657,28.75 Z" id="Fill-165" fill="#004E66"></path>
            <path d="M78.6058712,44.7466667 C78.6058712,47.5983333 76.32,49.91 73.5001545,49.91 C70.680721,49.91 68.3948498,47.5983333 68.3948498,44.7466667 C68.3948498,41.895 70.680721,39.5833333 73.5001545,39.5833333 C76.32,39.5833333 78.6058712,41.895 78.6058712,44.7466667" id="Fill-166" fill="#004E66"></path>
            <path d="M78.6058712,44.7466667 C78.6058712,47.5983333 76.32,49.91 73.5001545,49.91 C70.680721,49.91 68.3948498,47.5983333 68.3948498,44.7466667 C68.3948498,41.895 70.680721,39.5833333 73.5001545,39.5833333 C76.32,39.5833333 78.6058712,41.895 78.6058712,44.7466667" id="Fill-167" fill="#004E66"></path>
            <g id="Group-170" transform="translate(67.982833, 39.166667)">
                <path d="M10.4338815,5.46720833 C10.4338815,8.318875 8.1480103,10.6305417 5.32816481,10.6305417 C2.50873133,10.6305417 0.222860086,8.318875 0.222860086,5.46720833 C0.222860086,2.61554167 2.50873133,0.303875 5.32816481,0.303875 C8.1480103,0.303875 10.4338815,2.61554167 10.4338815,5.46720833" id="Fill-168" fill="#004E66"></path>
                <path d="M10.4338815,5.46720833 C10.4338815,8.318875 8.1480103,10.6305417 5.32816481,10.6305417 C2.50873133,10.6305417 0.222860086,8.318875 0.222860086,5.46720833 C0.222860086,2.61554167 2.50873133,0.303875 5.32816481,0.303875 C8.1480103,0.303875 10.4338815,2.61554167 10.4338815,5.46720833" id="Fill-169" fill="#007498"></path>
            </g>
            <path d="M87.4477597,5.67541667 C87.4477597,6.96916667 86.4107124,8.01791667 85.1318112,8.01791667 C83.8520858,8.01791667 82.8154506,6.96916667 82.8154506,5.67541667 C82.8154506,4.38208333 83.8520858,3.33333333 85.1318112,3.33333333 C86.4107124,3.33333333 87.4477597,4.38208333 87.4477597,5.67541667" id="Fill-181" fill="#FF5F2E"></path>
            <path d="M85.2875536,3.33333333 L85.2875536,8.01791667 C86.5664549,8.01791667 87.6035021,6.96958333 87.6035021,5.67541667 C87.6035021,4.38208333 86.5664549,3.33333333 85.2875536,3.33333333" id="Fill-182" fill="#FF5F2E"></path>
            <path d="M87.4477597,14.00875 C87.4477597,15.3025 86.4107124,16.35125 85.1318112,16.35125 C83.8520858,16.35125 82.8154506,15.3025 82.8154506,14.00875 C82.8154506,12.7154167 83.8520858,11.6666667 85.1318112,11.6666667 C86.4107124,11.6666667 87.4477597,12.7154167 87.4477597,14.00875" id="Fill-183" fill="#FF5F2E"></path>
            <path d="M85.2875536,11.6666667 L85.2875536,16.35125 C86.5664549,16.35125 87.6035021,15.3025 87.6035021,14.00875 C87.6035021,12.7154167 86.5664549,11.6666667 85.2875536,11.6666667" id="Fill-184" fill="#FF5F2E"></path>
            <path d="M62.7621631,16.9804167 C61.5545408,16.9804167 60.5665236,15.98125 60.5665236,14.76 L60.5665236,5.1375 C60.5665236,3.91625 61.5545408,2.91666667 62.7621631,2.91666667 C63.9701974,2.91666667 64.9578026,3.91625 64.9578026,5.1375 L64.9578026,14.76 C64.9578026,15.98125 63.9701974,16.9804167 62.7621631,16.9804167" id="Fill-189" fill="#004E66"></path>
            <path d="M55.3458541,16.9804167 C54.1382318,16.9804167 53.1502146,15.98125 53.1502146,14.76 L53.1502146,5.1375 C53.1502146,3.91625 54.1382318,2.91666667 55.3458541,2.91666667 C56.5538884,2.91666667 57.5419056,3.91625 57.5419056,5.1375 L57.5419056,14.76 C57.5419056,15.98125 56.5538884,16.9804167 55.3458541,16.9804167" id="Fill-190" fill="#FF5F2E"></path>
            <path d="M70.5904893,16.9804167 C69.382867,16.9804167 68.3948498,15.98125 68.3948498,14.76 L68.3948498,5.1375 C68.3948498,3.91625 69.382867,2.91666667 70.5904893,2.91666667 C71.7981116,2.91666667 72.7861288,3.91625 72.7861288,5.1375 L72.7861288,14.76 C72.7861288,15.98125 71.7981116,16.9804167 70.5904893,16.9804167" id="Fill-191" fill="#FF5F2E"></path>
        </g>
    </g>
</svg>