<?xml version="1.0" encoding="UTF-8"?>
<svg width="120px" height="120px" viewBox="0 0 120 120" version="1.1" xmlns="http://www.w3.org/2000/svg" xmlns:xlink="http://www.w3.org/1999/xlink">
    <!-- Generator: Sketch 51.1 (57501) - http://www.bohemiancoding.com/sketch -->
    <title>Tree61</title>
    <desc>Created with Sketch.</desc>
    <defs>
        <polygon id="path-1" points="0 0.57442623 85.5134426 0.57442623 85.5134426 67.9034476 0 67.9034476"></polygon>
    </defs>
    <g id="Tree61" stroke="none" stroke-width="1" fill="none" fill-rule="evenodd">
        <g id="Group" transform="translate(17.000000, 0.000000)">
            <path d="M40.8337705,109.618623 C45.1891803,110.417311 59.8390164,108.42059 61.4232787,113.213377 C64.195082,121.200918 47.564918,119.203541 43.2088525,119.203541 C39.2495082,119.203541 25.9295082,120.40223 23.9498361,115.609443 C21.5734426,108.819934 36.8737705,109.618623 40.8337705,109.618623" id="Fill-1" fill="#E7E5E3"></path>
            <g id="Group-5" transform="translate(0.000000, 0.081311)">
                <mask id="mask-2" fill="white">
                    <use xlink:href="#path-1"></use>
                </mask>
                <g id="Clip-4"></g>
                <path d="M0,36.1769836 C1.28590164,-21.2302295 98.2590164,-3.37252459 84.1022951,48.3041967 C77.7980328,71.3205902 45.9291803,68.968459 25.5731148,66.1717377 C6.06163934,63.491082 1.83803279,49.1992787 1.86885246,49.2589508 C0,45.633377 0.0419672131,36.183541 0,36.1769836" id="Fill-3" fill="#B2C045" mask="url(#mask-2)"></path>
            </g>
            <path d="M38.6251148,12.1842623 C38.6251148,12.1842623 39.0579016,11.9154098 39.8382295,11.492459 C40.236918,11.3003279 40.716918,11.0314754 41.2913443,10.7954098 C41.5785574,10.6727869 41.8841311,10.5429508 42.2054426,10.4052459 C42.5359344,10.2872131 42.8828197,10.1632787 43.2447869,10.0340984 C43.9759344,9.79278689 44.7772459,9.53704918 45.6526557,9.36655738 C46.0854426,9.26163934 46.5379016,9.1842623 47.0047869,9.11606557 C47.4683934,9.02622951 47.9503607,8.99409836 48.4421639,8.96459016 C48.9326557,8.91737705 49.436918,8.92065574 49.9483934,8.92786885 C50.4598689,8.91081967 50.9798689,8.98032787 51.5018361,9.03934426 C52.0264262,9.08065574 52.5457705,9.23409836 53.0723279,9.32983607 C53.5936393,9.46032787 54.1083934,9.64262295 54.624459,9.80918033 C55.1162623,10.0465574 55.6290492,10.2432787 56.0959344,10.5232787 L56.7877377,10.9560656 C57.0231475,11.092459 57.2382295,11.255082 57.4415082,11.4327869 C57.8552787,11.7757377 58.2847869,12.0970492 58.6185574,12.504918 C58.7949508,12.6983607 58.9700328,12.8904918 59.144459,13.0813115 L59.2736393,13.2242623 C59.3523279,13.3147541 59.3575738,13.3311475 59.4028197,13.3881967 L59.6159344,13.6727869 C60.2480656,14.5285246 60.6585574,15.4013115 60.9824918,16.2616393 C61.3097049,17.1167213 61.504459,17.96 61.6165902,18.7422951 C61.7418361,19.5232787 61.7556066,20.252459 61.7103607,20.8898361 C61.6847869,21.5278689 61.5582295,22.0754098 61.4460984,22.5134426 C61.3215082,22.9508197 61.1916721,23.28 61.0821639,23.495082 C60.9765902,23.7095082 60.9201967,23.8236066 60.9201967,23.8236066 C60.9201967,23.8236066 60.9385574,23.6977049 60.9739672,23.4622951 C61.0218361,23.2327869 61.0375738,22.8839344 61.0592131,22.4557377 C61.0710164,21.5921311 60.956918,20.3672131 60.5142951,18.9895082 C60.2959344,18.3029508 60.0021639,17.5796721 59.6375738,16.8511475 C59.2697049,16.1291803 58.7890492,15.3960656 58.2677377,14.7606557 C57.6801967,14.0885246 57.024459,13.4891803 56.2926557,12.9560656 C55.9529836,12.655082 55.5228197,12.4806557 55.1451148,12.2262295 C54.7529836,11.9934426 54.3149508,11.8413115 53.9038033,11.6380328 C53.467082,11.4904918 53.0356066,11.322623 52.5890492,11.2006557 C52.1333115,11.1108197 51.6933115,10.9613115 51.2297049,10.9167213 C50.3156066,10.7855738 49.3962623,10.677377 48.4952787,10.6918033 C48.0447869,10.682623 47.6015082,10.6970492 47.1634754,10.722623 C46.7267541,10.7357377 46.2979016,10.7593443 45.8808525,10.8118033 C45.0460984,10.8904918 44.2539672,11.0085246 43.5215082,11.1239344 C42.7910164,11.2537705 42.1175738,11.3770492 41.5228197,11.5081967 C40.9267541,11.6314754 40.4139672,11.7619672 39.9811803,11.8544262 C39.1228197,12.0734426 38.6251148,12.1842623 38.6251148,12.1842623 Z M66.8218361,33.6596721 C66.8218361,33.6596721 66.8782295,33.5711475 66.984459,33.4052459 C67.1038033,33.2472131 67.2159344,32.9836066 67.5215082,32.7363934 C67.7949508,32.4439344 68.187082,32.1862295 68.6683934,31.9298361 C68.9208525,31.8295082 69.1897049,31.7232787 69.4723279,31.6104918 C69.7641311,31.5370492 70.0775738,31.4655738 70.4067541,31.4013115 C70.7339672,31.3698361 71.0815082,31.3167213 71.4388852,31.3029508 C71.7929836,31.3081967 72.169377,31.2931148 72.5438033,31.3396721 C72.9188852,31.3816393 73.3110164,31.4098361 73.6985574,31.4970492 C73.8939672,31.5357377 74.0913443,31.5757377 74.2913443,31.615082 C74.4860984,31.6721311 74.6828197,31.7298361 74.8815082,31.787541 C75.676918,32.0196721 76.4716721,32.362623 77.2421639,32.8045902 C78.014623,33.2413115 78.7477377,33.8229508 79.3864262,34.5685246 L79.6106885,34.8695082 L79.7215082,35.0203279 L79.7765902,35.0963934 L79.8251148,35.1796721 L79.8336393,35.1967213 L79.852,35.2308197 L80.1352787,35.7790164 C80.3241311,36.2104918 80.5110164,36.692459 80.6133115,37.1101639 C80.8572459,37.972459 80.9647869,38.837377 80.9792131,39.6655738 C81.0139672,40.495082 80.9162623,41.2904918 80.7942951,42.0308197 C80.6585574,42.7711475 80.4749508,43.4577049 80.2211803,44.0636066 C79.9949508,44.6760656 79.7024918,45.2059016 79.412,45.6478689 C79.2788852,45.8740984 79.1208525,46.0688525 78.9759344,46.2445902 C78.8382295,46.4255738 78.6939672,46.5770492 78.5542951,46.7055738 C78.2985574,46.9803279 78.0526557,47.1462295 77.889377,47.2596721 C77.7274098,47.3711475 77.6415082,47.4301639 77.6415082,47.4301639 C77.6415082,47.4301639 77.6998689,47.3429508 77.8100328,47.1790164 C77.9267541,47.0236066 78.079541,46.787541 78.2415082,46.4708197 C78.3306885,46.3193443 78.4172459,46.1455738 78.4906885,45.944918 C78.5667541,45.7462295 78.6729836,45.5495082 78.7379016,45.3127869 C78.8106885,45.0806557 78.9018361,44.8445902 78.9529836,44.5757377 C79.0159344,44.3134426 79.094623,44.0445902 79.1352787,43.7501639 C79.1949508,43.4622951 79.2329836,43.1580328 79.2592131,42.8419672 C79.3031475,42.5304918 79.3116721,42.2019672 79.334623,41.8701639 C79.3497049,41.2006557 79.329377,40.4970492 79.2382295,39.7842623 C79.1621639,39.0701639 79.0080656,38.3468852 78.784459,37.655082 C78.6788852,37.2872131 78.5398689,37.0157377 78.4106885,36.6904918 L78.119541,36.1462295 L77.8598689,35.8091803 C77.4329836,35.2996721 76.8710164,34.8242623 76.249377,34.4308197 C75.627082,34.0406557 74.9713443,33.6931148 74.3024918,33.427541 C74.1359344,33.36 73.9700328,33.2931148 73.8060984,33.2268852 C73.6382295,33.1718033 73.4716721,33.1167213 73.3064262,33.0629508 C72.9792131,32.9377049 72.6480656,32.8701639 72.3260984,32.7862295 C71.6788852,32.6406557 71.0605246,32.5613115 70.4815082,32.5232787 C70.1936393,32.5285246 69.9175738,32.5337705 69.6552787,32.5383607 C69.3942951,32.5731148 69.147082,32.6065574 68.9142951,32.637377 C68.4664262,32.7619672 68.0572459,32.867541 67.7680656,33.037377 C67.4480656,33.1632787 67.2231475,33.3731148 67.0664262,33.482623 C66.9064262,33.5980328 66.8218361,33.6596721 66.8218361,33.6596721 Z M66.8218361,20.3809836 C66.8218361,20.3809836 66.9982295,20.2636066 67.3123279,20.0983607 C67.4710164,20.0177049 67.6552787,19.907541 67.8959344,19.8308197 C68.1313443,19.7488525 68.4054426,19.6301639 68.707082,19.5645902 C69.009377,19.5009836 69.3385574,19.4085246 69.6992131,19.3855738 C70.0579016,19.3436066 70.4421639,19.3259016 70.8441311,19.3567213 C71.0454426,19.3567213 71.2500328,19.3829508 71.4572459,19.4229508 C71.664459,19.4616393 71.8775738,19.4813115 72.0854426,19.5495082 C72.294623,19.615082 72.5077377,19.6754098 72.716918,19.7508197 C72.9241311,19.8367213 73.1280656,19.9409836 73.3326557,20.0386885 C73.5398689,20.1304918 73.7215082,20.2819672 73.9136393,20.4065574 C74.1090492,20.5272131 74.2788852,20.6839344 74.4415082,20.8472131 C74.787082,21.147541 75.0408525,21.5318033 75.2723279,21.8911475 C75.4723279,22.2747541 75.6474098,22.6478689 75.7300328,23.0242623 C75.8487213,23.3901639 75.8611803,23.7495082 75.8880656,24.0701639 C75.919541,24.3908197 75.854623,24.6859016 75.8356066,24.9377049 C75.8224918,25.1901639 75.7424918,25.4065574 75.6952787,25.5809836 C75.5923279,25.9304918 75.5103607,26.1186885 75.5103607,26.1186885 C75.5103607,26.1186885 75.4205246,25.9206557 75.304459,25.5927869 C75.2447869,25.4301639 75.184459,25.2327869 75.0867541,25.0196721 C74.984459,24.8085246 74.9129836,24.5639344 74.7772459,24.3278689 C74.6460984,24.0904918 74.5392131,23.827541 74.3628197,23.5934426 C74.2224918,23.3396721 74.0211803,23.12 73.8401967,22.8865574 C73.6264262,22.677377 73.4277377,22.455082 73.1772459,22.2767213 C73.0638033,22.1763934 72.9385574,22.0885246 72.8028197,22.0091803 C72.6677377,21.9311475 72.5510164,21.8281967 72.399541,21.7691803 C72.2565902,21.6990164 72.1188852,21.6190164 71.9726557,21.5521311 C71.8185574,21.4983607 71.6710164,21.4308197 71.5201967,21.3691803 C71.2087213,21.2708197 70.9038033,21.1455738 70.5831475,21.0767213 C70.4238033,21.0347541 70.267082,20.9934426 70.1136393,20.9527869 C69.9556066,20.9213115 69.8001967,20.8957377 69.6480656,20.8596721 C69.344459,20.7809836 69.0454426,20.7567213 68.7680656,20.6977049 C68.489377,20.6432787 68.236918,20.6163934 68.0028197,20.572459 C67.7621639,20.5370492 67.5516721,20.5068852 67.3792131,20.4813115 C67.0264262,20.4321311 66.8218361,20.3809836 66.8218361,20.3809836 Z M41.412,23.6596721 C41.412,23.6596721 41.4729836,23.4668852 41.609377,23.1567213 C41.6441311,23.0793443 41.6821639,22.9940984 41.7234754,22.9009836 C41.7765902,22.8104918 41.8565902,22.722623 41.9352787,22.6216393 C42.0959344,22.4196721 42.2933115,22.1698361 42.5523279,21.997377 C42.6782295,21.9003279 42.8152787,21.802623 42.9601967,21.7022951 C43.1123279,21.6242623 43.2762623,21.5514754 43.4460984,21.4734426 C43.784459,21.2977049 44.1706885,21.2478689 44.5713443,21.1580328 C44.9687213,21.132459 45.3962623,21.0845902 45.8106885,21.1567213 C46.236918,21.1822951 46.6434754,21.3154098 47.0539672,21.4314754 C47.4421639,21.602623 47.8460984,21.747541 48.187082,21.9947541 C48.5497049,22.202623 48.8572459,22.4845902 49.144459,22.757377 C49.4172459,23.0472131 49.6631475,23.3462295 49.8474098,23.6616393 C50.027082,23.9836066 50.187082,24.2819672 50.2638033,24.5967213 C50.3064262,24.7495082 50.3510164,24.8918033 50.3824918,25.0288525 C50.3936393,25.172459 50.4041311,25.3081967 50.4139672,25.4360656 C50.4408525,25.6845902 50.4316721,25.8996721 50.3897049,26.0780328 C50.3267541,26.4301639 50.264459,26.6104918 50.264459,26.6104918 C50.264459,26.6104918 50.1529836,26.4281967 50.0041311,26.144918 C49.9438033,26 49.8205246,25.8432787 49.6985574,25.6695082 C49.6382295,25.5855738 49.5752787,25.4957377 49.5083934,25.4013115 C49.4290492,25.317377 49.3457705,25.2288525 49.2592131,25.1357377 C49.1110164,24.9442623 48.8972459,24.7777049 48.6979016,24.5960656 C48.4959344,24.4170492 48.2533115,24.2563934 48.0185574,24.0898361 C47.8880656,24.0183607 47.7647869,23.9377049 47.639541,23.8583607 C47.5156066,23.7763934 47.3674098,23.7259016 47.236918,23.6498361 C46.9733115,23.4983607 46.6756066,23.4059016 46.3949508,23.2845902 C46.1018361,23.1980328 45.8133115,23.0885246 45.5182295,23.0393443 C45.224459,22.9534426 44.9372459,22.9495082 44.649377,22.895082 C44.374623,22.9095082 44.0815082,22.8491803 43.8257705,22.8990164 C43.6900328,22.9081967 43.5582295,22.9180328 43.4310164,22.9272131 C43.3057705,22.9547541 43.1851148,22.9816393 43.0690492,23.0078689 C42.814623,23.0452459 42.6231475,23.1206557 42.4264262,23.1862295 C42.3241311,23.2216393 42.2290492,23.2544262 42.1405246,23.2845902 C42.0513443,23.3337705 41.9700328,23.3796721 41.8959344,23.4203279 C41.5988852,23.5822951 41.412,23.6596721 41.412,23.6596721 Z M34.5267541,8.41377049 C34.5267541,8.41377049 34.1254426,8.38163934 33.4349508,8.28786885 C33.0913443,8.23344262 32.6664262,8.1757377 32.2001967,8.1704918 C31.7274098,8.16590164 31.224459,8.08983607 30.6480656,8.14032787 C30.0782295,8.16262295 29.4703607,8.17967213 28.8362623,8.2904918 C28.1975738,8.34229508 27.5523279,8.54491803 26.8834754,8.69704918 C26.5503607,8.77901639 26.2297049,8.92655738 25.894623,9.03409836 L25.3949508,9.20983607 L24.9116721,9.44262295 C24.5936393,9.60721311 24.2506885,9.72786885 23.9464262,9.92655738 L23.0152787,10.4904918 C22.4336393,10.9265574 21.8303607,11.3383607 21.3188852,11.8478689 C20.7634754,12.3101639 20.3247869,12.8734426 19.8487213,13.3777049 C19.454623,13.9442623 18.9883934,14.4452459 18.6801967,15.0118033 C18.5103607,15.2865574 18.3451148,15.5547541 18.1851148,15.8131148 C18.0447869,16.0859016 17.9097049,16.3488525 17.7798689,16.6013115 C17.5005246,17.1036066 17.3175738,17.5967213 17.1313443,18.0314754 C17.0388852,18.2511475 16.9523279,18.4557377 16.8723279,18.6459016 C16.8080656,18.8413115 16.7490492,19.0209836 16.6952787,19.1829508 C16.4788852,19.8354098 16.3300328,20.2170492 16.3300328,20.2170492 C16.3300328,20.2170492 16.307082,19.8216393 16.3097049,19.1147541 C16.3116721,18.9370492 16.3129836,18.7403279 16.3149508,18.5259016 C16.3306885,18.3140984 16.3713443,18.0878689 16.4028197,17.842623 C16.4710164,17.3534426 16.5280656,16.787541 16.7221639,16.2045902 C16.8060984,15.9068852 16.8926557,15.597377 16.9831475,15.2760656 C17.0965902,14.9632787 17.2454426,14.652459 17.3824918,14.3232787 C17.6342951,13.652459 18.0480656,13.0183607 18.4454426,12.3409836 C18.9201967,11.7206557 19.3772459,11.0367213 19.9929836,10.4760656 C20.5516721,9.85836066 21.2467541,9.36655738 21.9201967,8.85704918 L23.014623,8.21508197 C23.3713443,7.98885246 23.7811803,7.86754098 24.1582295,7.69245902 L24.7313443,7.45311475 C24.9306885,7.39803279 25.1280656,7.34360656 25.3247869,7.28918033 C25.7201967,7.19016393 26.1005246,7.05442623 26.4926557,7.00262295 C27.2749508,6.88852459 28.0277377,6.7895082 28.7477377,6.83016393 C29.1051148,6.84590164 29.452,6.80918033 29.784459,6.8695082 C30.1149508,6.92131148 30.4342951,6.97114754 30.7405246,7.01967213 C31.3497049,7.07868852 31.8985574,7.30688525 32.3733115,7.44196721 C32.8598689,7.56918033 33.2336393,7.76 33.547082,7.9147541 C34.174623,8.21836066 34.5267541,8.41377049 34.5267541,8.41377049 Z M29.9365902,21.2006557 C29.9365902,21.2006557 29.7811803,21.2852459 29.5097049,21.3934426 C29.2218361,21.5016393 28.8913443,21.6629508 28.4880656,21.8583607 C28.2860984,21.9481967 28.0762623,22.055082 27.8624918,22.1731148 C27.6421639,22.2714754 27.4349508,22.4229508 27.209377,22.535082 C27.0008525,22.6832787 26.7726557,22.802623 26.569377,22.9619672 C26.3536393,23.1042623 26.1608525,23.2734426 25.9582295,23.4295082 C25.7726557,23.602623 25.5779016,23.7665574 25.412,23.9508197 C25.2283934,24.1232787 25.0880656,24.3213115 24.9247869,24.5029508 C24.7916721,24.7009836 24.6303607,24.8845902 24.5215082,25.0865574 C24.3864262,25.2786885 24.2860984,25.4786885 24.1851148,25.6695082 C24.0697049,25.8570492 24.0041311,26.0465574 23.9188852,26.2157377 C23.8382295,26.3855738 23.7739672,26.5416393 23.7260984,26.6734426 C23.624459,26.9377049 23.5431475,27.1022951 23.5431475,27.1022951 C23.5431475,27.1022951 23.4533115,26.957377 23.3352787,26.6786885 C23.2756066,26.5403279 23.199541,26.3665574 23.1680656,26.1606557 C23.1287213,25.9560656 23.0585574,25.7147541 23.0657705,25.4511475 C23.0579016,25.1862295 23.0611803,24.8931148 23.1260984,24.5888525 C23.1674098,24.2780328 23.2821639,23.9691803 23.4054426,23.6459016 C23.5562623,23.3416393 23.7103607,23.0091803 23.9424918,22.732459 C24.1490492,22.4308197 24.4205246,22.1842623 24.6847869,21.9304918 C24.9765902,21.7134426 25.2624918,21.4859016 25.5824918,21.332459 C25.8874098,21.1501639 26.2198689,21.0452459 26.5306885,20.9337705 C26.8533115,20.8557377 27.1601967,20.7704918 27.4611803,20.7534426 C27.7588852,20.7186885 28.039541,20.7160656 28.2985574,20.7396721 C28.5523279,20.7481967 28.7962623,20.8006557 29.0021639,20.8478689 C29.212,20.8832787 29.3779016,20.9468852 29.5110164,21.0045902 C29.7818361,21.1147541 29.9365902,21.2006557 29.9365902,21.2006557 Z M17.969377,32.1842623 C17.969377,32.1842623 17.8821639,32.237377 17.7175738,32.3370492 C17.5562623,32.437377 17.3018361,32.5698361 17.009377,32.7632787 C16.7123279,32.9488525 16.3641311,33.1822951 15.9706885,33.4636066 C15.7700328,33.5954098 15.572,33.7593443 15.3615082,33.9265574 C15.1490492,34.0885246 14.9287213,34.2622951 14.7097049,34.4563934 C14.4834754,34.6406557 14.2618361,34.8478689 14.0388852,35.0681967 C13.8087213,35.2786885 13.5831475,35.5081967 13.3542951,35.7462295 C12.8959344,36.2196721 12.4651148,36.762623 12.0382295,37.3265574 C11.6277377,37.9036066 11.2264262,38.5108197 10.8913443,39.162623 C10.5588852,39.8131148 10.2526557,40.4891803 10.0506885,41.1934426 C9.92740984,41.5396721 9.85527869,41.8970492 9.77265574,42.2511475 L9.75691803,42.317377 L9.74904918,42.3508197 C9.74183607,42.3986885 9.75757377,42.2944262 9.75560656,42.3088525 L9.75429508,42.3180328 L9.75167213,42.3363934 L9.73134426,42.4852459 L9.68806557,42.7816393 L9.59954098,43.3718033 C9.57462295,43.5639344 9.53134426,43.7711475 9.52216393,43.9488525 L9.50577049,44.4622951 C9.50380328,44.8039344 9.45003279,45.1377049 9.50118033,45.4832787 C9.53068852,45.8281967 9.56019672,46.1672131 9.58839344,46.4990164 C9.65462295,46.8281967 9.71888525,47.1508197 9.7824918,47.464918 C9.83822951,47.7836066 9.97790164,48.0721311 10.0585574,48.3704918 C10.1418361,48.6681967 10.2342951,48.9554098 10.359541,49.2203279 C10.5857705,49.7567213 10.787082,50.2629508 11.0126557,50.6944262 C11.227082,51.1298361 11.4008525,51.5239344 11.572,51.8334426 C11.8972459,52.4622951 12.0677377,52.84 12.0677377,52.84 C12.0677377,52.84 11.7621639,52.5685246 11.2539672,52.0616393 C10.9949508,51.8131148 10.7005246,51.4911475 10.3811803,51.1036066 C10.2218361,50.9095082 10.036918,50.7127869 9.86839344,50.4845902 C9.70642623,50.2491803 9.53593443,50.0013115 9.35822951,49.7429508 C9.17134426,49.4891803 9.00872131,49.2019672 8.85068852,48.8944262 C8.69790164,48.5862295 8.51101639,48.2780328 8.38839344,47.9278689 C8.26380328,47.5763934 8.13593443,47.2144262 8.00544262,46.8452459 C7.89790164,46.467541 7.84740984,46.0662295 7.76609836,45.6629508 C7.66577049,45.2642623 7.69003279,44.8255738 7.6677377,44.3921311 C7.6624918,44.1737705 7.6572459,43.9540984 7.652,43.7331148 C7.65659016,43.52 7.68872131,43.3370492 7.70642623,43.1357377 L7.76806557,42.5422951 L7.80085246,42.2445902 L7.81855738,42.0957377 L7.83101639,42.0072131 L7.83954098,41.9665574 L7.85659016,41.8865574 C7.94839344,41.4583607 8.03167213,41.0242623 8.17331148,40.6091803 C8.42904918,39.7691803 8.7962623,38.972459 9.22642623,38.2360656 C9.64937705,37.4944262 10.1621639,36.8314754 10.6900328,36.227541 C11.2257705,35.6295082 11.7988852,35.1088525 12.372,34.6616393 C12.9398689,34.2059016 13.5156066,33.8314754 14.0703607,33.5318033 C14.6113443,33.2131148 15.144459,32.9868852 15.6159344,32.8039344 C16.0828197,32.6118033 16.5149508,32.4944262 16.8651148,32.4019672 C17.2106885,32.295082 17.4913443,32.2754098 17.6788852,32.2321311 C17.8683934,32.2006557 17.969377,32.1842623 17.969377,32.1842623 Z M10.9201967,21.8563934 C10.9201967,21.8563934 10.796918,22.0347541 10.559541,22.3127869 C10.439541,22.4491803 10.292,22.6216393 10.147082,22.8098361 C10.0015082,23.0059016 9.82839344,23.1940984 9.6624918,23.4354098 C9.49068852,23.6681967 9.29855738,23.904918 9.12872131,24.1763934 C8.93855738,24.4308197 8.7772459,24.7219672 8.59757377,25.0059016 C8.44085246,25.304918 8.2572459,25.5954098 8.12019672,25.917377 C7.96478689,26.2288525 7.83822951,26.5593443 7.70445902,26.8872131 C7.58970492,27.2242623 7.4677377,27.557377 7.37462295,27.9016393 C7.26577049,28.2386885 7.19691803,28.5881967 7.10577049,28.922623 C6.95954098,29.6013115 6.82380328,30.2570492 6.7267541,30.837377 C6.61593443,31.4321311 6.52347541,31.9265574 6.45855738,32.2734426 C6.39101639,32.6288525 6.33003279,32.84 6.33003279,32.84 C6.33003279,32.84 6.22118033,32.655082 6.06970492,32.3180328 C5.99298361,32.1495082 5.89986885,31.9429508 5.8277377,31.6996721 C5.7477377,31.4570492 5.64806557,31.1816393 5.58708197,30.8721311 C5.43757377,30.2577049 5.3562623,29.5160656 5.37396721,28.7081967 C5.40281967,28.3055738 5.41855738,27.8832787 5.51757377,27.4629508 C5.58380328,27.0367213 5.72872131,26.6177049 5.86314754,26.197377 C6.03888525,25.7895082 6.20806557,25.3783607 6.44609836,25.0085246 C6.54904918,24.8157377 6.67101639,24.6360656 6.80478689,24.4681967 C6.93593443,24.2990164 7.052,24.122623 7.19757377,23.9737705 C7.74970492,23.3540984 8.36281967,22.8865574 8.92544262,22.572459 C9.19232787,22.4006557 9.48872131,22.2970492 9.72413115,22.1921311 C9.96085246,22.0786885 10.1759344,22.0308197 10.3523279,21.9829508 C10.7057705,21.8904918 10.9201967,21.8563934 10.9201967,21.8563934 Z M18.7890492,53.6596721 C18.7890492,53.6596721 18.824459,53.7245902 18.8906885,53.8465574 C18.9497049,53.9698361 19.0513443,54.1501639 19.1726557,54.3632787 C19.2887213,54.5770492 19.4585574,54.8340984 19.6375738,55.1213115 C19.8231475,55.4072131 20.0447869,55.7193443 20.2867541,56.0537705 C21.276918,57.3757377 22.7280656,59.0098361 24.4047869,60.3022951 C24.8224918,60.6236066 25.2506885,60.9304918 25.6867541,61.197377 C26.1254426,61.4590164 26.5608525,61.7101639 27.0015082,61.8983607 C27.439541,62.0963934 27.8749508,62.2544262 28.2992131,62.3593443 C28.7234754,62.4793443 29.1339672,62.5304918 29.5247869,62.5711475 C29.9116721,62.5855738 30.2775738,62.5803279 30.6067541,62.5488525 C30.9313443,62.5016393 31.2257705,62.4603279 31.464459,62.3954098 C31.7090492,62.3468852 31.8926557,62.2767213 32.0264262,62.2413115 C32.1601967,62.2039344 32.2316721,62.1842623 32.2316721,62.1842623 C32.2316721,62.1842623 32.1805246,62.2380328 32.0854426,62.3377049 C31.9838033,62.427541 31.8533115,62.6 31.6375738,62.7462295 C31.5306885,62.8262295 31.412,62.9134426 31.2841311,63.0091803 C31.1483934,63.095082 30.9936393,63.175082 30.8290492,63.2681967 C30.6605246,63.3514754 30.4742951,63.424918 30.2762623,63.5108197 C30.0749508,63.5822951 29.8552787,63.6360656 29.6257705,63.6963934 C29.1641311,63.7862295 28.6421639,63.8642623 28.0965902,63.8262295 C27.5497049,63.8059016 26.9772459,63.7101639 26.412,63.5403279 C25.8408525,63.3803279 25.2815082,63.1409836 24.7418361,62.855082 C24.1956066,62.5770492 23.692,62.2216393 23.199541,61.8570492 C21.2598689,60.3508197 19.892,58.2806557 19.2939672,56.5822951 C19.129377,56.1645902 19.0238033,55.762623 18.9451148,55.4065574 C18.8611803,55.0511475 18.8205246,54.7383607 18.799541,54.4727869 C18.7680656,54.2104918 18.7792131,54.0098361 18.7811803,53.8721311 C18.7864262,53.7337705 18.7890492,53.6596721 18.7890492,53.6596721 Z M61.412,61.5285246 C61.412,61.5285246 61.6749508,61.5560656 62.119541,61.6393443 C62.2303607,61.6609836 62.3529836,61.6845902 62.4860984,61.7101639 C62.6205246,61.7213115 62.756918,61.7219672 62.9011803,61.7291803 C63.1916721,61.7363934 63.4887213,61.7704918 63.8428197,61.7167213 C64.012,61.7042623 64.1877377,61.6904918 64.3706885,61.6767213 C64.5477377,61.6367213 64.7313443,61.5947541 64.919541,61.5514754 C65.012,61.5331148 65.1057705,61.5140984 65.2001967,61.495082 C65.2939672,61.4668852 65.387082,61.4268852 65.4808525,61.3940984 C65.667082,61.3285246 65.8572459,61.2616393 66.0506885,61.1934426 C66.4205246,60.9980328 66.8113443,60.8472131 67.1739672,60.5960656 C67.5542951,60.3901639 67.8959344,60.0944262 68.2572459,59.837377 C68.587082,59.532459 68.9418361,59.2557377 69.239541,58.92 C69.5628197,58.6104918 69.8310164,58.2609836 70.1156066,57.935082 C70.3667541,57.5888525 70.6342951,57.2577049 70.8434754,56.9186885 C71.052,56.5783607 71.2742951,56.2590164 71.4231475,55.9377049 C71.5090492,55.7790164 71.5923279,55.6268852 71.6710164,55.4819672 C71.7372459,55.3311475 71.8001967,55.1881967 71.8598689,55.0531148 C71.9733115,54.7796721 72.0992131,54.5377049 72.1536393,54.3285246 C72.292,53.9134426 72.3956066,53.6596721 72.3956066,53.6596721 C72.3956066,53.6596721 72.464459,53.9062295 72.5431475,54.3659016 C72.5942951,54.5980328 72.6054426,54.877377 72.5975738,55.2019672 C72.5949508,55.3645902 72.5982295,55.5409836 72.5897049,55.7259016 C72.5628197,55.907541 72.534623,56.0977049 72.5051148,56.2963934 C72.4559344,56.7036066 72.3208525,57.1180328 72.1765902,57.5639344 C72.0283934,58.0072131 71.8067541,58.4478689 71.5680656,58.9009836 C71.2979016,59.3331148 71.0264262,59.7940984 70.6598689,60.1940984 C70.3333115,60.6281967 69.9038033,60.9829508 69.4998689,61.3613115 C69.0441311,61.6813115 68.6106885,62.0327869 68.0998689,62.2616393 C67.6231475,62.5396721 67.0847869,62.6898361 66.584459,62.8491803 C66.3241311,62.9036066 66.0631475,62.9436066 65.8106885,62.9783607 C65.5608525,63.0242623 65.3116721,63.0367213 65.0657705,63.0196721 C64.8218361,63.0104918 64.5877377,63.0059016 64.3634754,62.9895082 C64.1424918,62.9396721 63.9280656,62.8911475 63.7228197,62.8452459 C63.3188852,62.775082 62.9588852,62.5816393 62.6579016,62.437377 C62.5090492,62.3613115 62.3634754,62.3042623 62.2506885,62.2255738 C62.1438033,62.1409836 62.0460984,62.0629508 61.9575738,61.9927869 C61.6041311,61.7108197 61.412,61.5285246 61.412,61.5285246 Z" id="Combined-Shape" fill="#858F34"></path>
            <path d="M26.0028197,39.2443279 C29.0408525,39.2443279 29.0460984,34.5230164 26.0028197,34.5230164 C22.9647869,34.5230164 22.959541,39.2443279 26.0028197,39.2443279 Z M65.7838033,16.5557377 C68.3156066,16.5557377 68.319541,12.6213115 65.7838033,12.6213115 C63.252,12.6213115 63.2480656,16.5557377 65.7838033,16.5557377 Z M72.7785574,47.5505574 C75.8165902,47.5505574 75.8218361,42.8292459 72.7785574,42.8292459 C69.7405246,42.8292459 69.7352787,47.5505574 72.7785574,47.5505574 Z M4.58183607,39.7252459 C7.11363934,39.7252459 7.11757377,35.7908197 4.58183607,35.7908197 C2.05003279,35.7908197 2.04609836,39.7252459 4.58183607,39.7252459 Z M35.6198689,20.927541 C38.1516721,20.927541 38.1556066,16.9931148 35.6198689,16.9931148 C33.0880656,16.9931148 33.0841311,20.927541 35.6198689,20.927541 Z M52.2323279,56.337377 C54.7641311,56.337377 54.7680656,52.4029508 52.2323279,52.4029508 C49.7005246,52.4029508 49.6965902,56.337377 52.2323279,56.337377 Z M60.1011803,31.3098361 C61.3667541,31.3098361 61.369377,29.342623 60.1011803,29.342623 C58.8356066,29.342623 58.8329836,31.3098361 60.1011803,31.3098361 Z M39.9916721,6.39180328 C41.2572459,6.39180328 41.2598689,4.42459016 39.9916721,4.42459016 C38.7260984,4.42459016 38.7234754,6.39180328 39.9916721,6.39180328 Z M14.199541,57.5393443 C15.4651148,57.5393443 15.4677377,55.5721311 14.199541,55.5721311 C12.9339672,55.5721311 12.9313443,57.5393443 14.199541,57.5393443 Z M16.8224918,26.9383607 C18.0880656,26.9383607 18.0906885,24.9711475 16.8224918,24.9711475 C15.556918,24.9711475 15.5542951,26.9383607 16.8224918,26.9383607 Z" id="Combined-Shape" fill="#FBEC21"></path>
            <path d="M44.3529103,62.151713 C44.8220814,79.4112459 44.3640305,96.7046992 44.3414426,113.954426 C44.3401311,115.159672 41.225377,115.159672 41.2266885,113.954426 C41.2513743,95.1025646 42.6873927,76.1984768 42.5355578,57.3435167 C37.1732242,57.3328061 30.5361906,57.4490559 25.9503607,54.2405246 C21.236918,50.9434754 20.1424918,45.4824918 20.0729836,40.0313443 C20.0605246,39.127082 20.8067541,39.1283934 20.8185574,40.0313443 C20.8847869,45.1979016 22.5759344,51.0608525 27.6592131,53.6260984 C32.1883208,55.9115815 37.5414875,55.2960987 42.512553,55.286955 C42.4597991,51.6209886 42.3428721,47.957024 42.139715,44.2958021 C42.1361088,44.2956616 42.132488,44.2954873 42.1288525,44.2952787 C39.0704918,44.1201967 35.1419672,42.9700328 33.4862295,39.969377 C31.7891803,36.8939672 32.1144262,33.0356066 32.1163934,29.6487213 C32.1163934,28.7451148 32.862623,28.7451148 32.8619672,29.6487213 C32.8606557,32.4139672 33.195082,35.6552787 34.2311475,38.2854426 C35.4989526,41.5032186 38.9249031,42.0463535 42.0158318,42.23097 C41.7805325,38.5872714 41.4556673,34.9464297 41.0194754,31.3091803 C40.8758689,30.1144262 42.0916066,30.1281967 42.2332459,31.3091803 C42.9200933,37.0388396 43.4136277,42.7774132 43.7642975,48.5220264 C43.8418283,48.4818281 43.9303779,48.4617205 44.0299672,48.4672131 C53.2581639,48.9793443 55.8745574,41.0357377 55.1984918,33.3865574 C55.1184918,32.4855738 55.865377,32.4934426 55.9440656,33.3865574 C56.6961967,41.8881967 54.0037377,51.0777049 44.0299672,50.524918 C43.976558,50.5219552 43.9263056,50.5118955 43.8792132,50.4956037 C44.056555,53.6938262 44.1914259,56.8938179 44.2925252,60.095083 C48.9786115,60.0995334 54.5583969,60.3845967 58.7911475,58.0912131 C63.527541,55.5253115 64.847541,50.4571148 65.34,45.4302295 C65.4272131,44.539082 66.1740984,44.5305574 66.0855738,45.4302295 C65.5872131,50.5226885 64.8914754,56.3797377 59.9970492,59.031541 C55.2812249,61.5860529 49.5827575,62.1230302 44.3529103,62.151713 Z" id="Combined-Shape" fill="#534741"></path>
        </g>
    </g>
</svg>