<?xml version="1.0" encoding="UTF-8"?>
<svg width="120px" height="120px" viewBox="0 0 120 120" version="1.1" xmlns="http://www.w3.org/2000/svg" xmlns:xlink="http://www.w3.org/1999/xlink">
    <!-- Generator: Sketch 51.1 (57501) - http://www.bohemiancoding.com/sketch -->
    <title>Gymnast2</title>
    <desc>Created with Sketch.</desc>
    <defs>
        <polygon id="path-1" points="0.199373684 0.299053333 13.3734789 0.299053333 13.3734789 5.86666667 0.199373684 5.86666667"></polygon>
    </defs>
    <g id="Gymnast2" stroke="none" stroke-width="1" fill="none" fill-rule="evenodd">
        <g id="Group-57" transform="translate(28.000000, 1.000000)">
            <path d="M0.0396064516,48.6206429 C8.24915484,61.4392143 19.2030258,50.7420714 15.4750903,39.4127857 C12.7712194,31.1842143 27.4508968,42.0870714 27.4508968,42.0870714 C27.4508968,42.0870714 18.8538645,65.9349286 11.3979935,66.2906429 C3.93999355,66.6442143 0.0140580645,54.9742143 0.0396064516,48.6206429" id="Fill-111" fill="#AD6920"></path>
            <path d="M6.35176129,75.7892857 C6.34963226,75.7978571 6.34963226,75.8042857 6.34963226,75.8107143 C6.34963226,75.8042857 6.34963226,75.7978571 6.35176129,75.7892857 M61.1381484,40.9892857 C59.9309871,40.4771429 58.4853742,40.9464286 57.3144065,42.0821429 C56.7842774,41.2785714 56.1583419,40.8307143 55.5749871,40.9442857 C54.4849226,41.1585714 53.9760839,43.2478571 54.4359548,45.6157143 C54.6105355,46.5221429 54.9022129,47.3385714 55.2556323,47.9835714 C55.3003419,48.2792857 55.368471,48.56 55.4621484,48.8257143 L55.4621484,48.8235714 L49.9436968,55.3464286 C49.9436968,55.3464286 47.4122774,54.0928571 41.3786,52.2585714 C40.6121484,51.9821429 38.3021484,51.1485714 38.3021484,51.1485714 C36.9715032,50.2142857 34.0398258,49.8007143 32.268471,49.6271429 C32.5665355,48.9628571 32.7453742,48.2535714 32.7453742,47.7221429 L25.1276968,47.7221429 C25.1276968,48.2535714 25.3129226,48.9757143 25.6152452,49.6442857 C23.8119548,49.8114286 20.9143419,50.2314286 19.6262774,51.17 C18.9492452,51.5321429 13.1263419,54.6757143 11.4401484,56.8442857 C7.84634194,61.4642857 6.41563226,75.1442857 6.35176129,75.7892857 C6.35176129,75.7785714 6.35389032,75.7635714 6.35389032,75.7485714 C5.87911613,76.4385714 5.5469871,77.3342857 5.44266452,78.335 C5.19143871,80.7157143 6.32408387,82.7857143 7.96982581,82.9614286 C9.04711613,83.075 10.0733097,82.3528571 10.7290516,81.1764286 C11.3379548,81.6821429 11.940471,81.8835714 12.3705355,81.6521429 C13.1795677,81.2214286 13.0837613,79.4471429 12.1576323,77.69 C11.8042129,77.0171429 11.3805355,76.4471429 10.9483419,76.0207143 C10.9142774,75.9478571 10.8759548,75.875 10.8376323,75.8085714 C10.8376323,75.8085714 12.4365355,65.525 14.1418903,63.0907143 C14.9998903,61.8778571 16.0729226,60.92 16.2751806,60.3778571 C14.9360194,70.5607143 16.428471,84.7164286 16.428471,84.7164286 L18.1402129,99.5771429 L18.6000839,111.221429 L18.6043419,111.221429 C16.7946645,112.348571 15.4831806,114.654286 17.0288581,116.525 C18.1998258,117.842857 19.9222129,116.807857 21.2294387,116.250714 C22.6793097,115.558571 24.3314387,115.074286 25.6407935,114.174286 C26.4838903,113.578571 27.4781484,112.925 28.048729,112.035714 C28.2254387,111.761429 28.308471,111.487143 28.246729,111.221429 L28.2616323,111.221429 L28.2616323,99.5835714 L28.7619548,91.955 L29.0493742,91.955 L29.5773742,99.5835714 L29.5773742,111.221429 L29.562471,111.221429 C29.4986,111.487143 29.5816323,111.763571 29.7583419,112.037857 C30.3310516,112.925 31.3231806,113.576429 32.1684065,114.172143 C33.4777613,115.072143 35.1320194,115.560714 36.5776323,116.252857 C37.8869871,116.81 39.6072452,117.840714 40.7803419,116.522857 C42.3260194,114.654286 41.0124065,112.348571 39.2048581,111.221429 L39.2155032,111.221429 L39.6689871,99.5771429 L41.3786,84.7121429 C41.3786,84.7121429 43.1222774,69.1228571 41.4573742,58.9035714 C41.5467935,58.94 50.3311806,62.4821429 52.7433742,61.6014286 C55.7431806,60.5042857 59.1858258,50.6685714 59.1858258,50.6685714 C60.4760194,50.2078571 61.7278903,48.965 62.4475032,47.2528571 C63.5716323,44.5807143 62.9861484,41.7778571 61.1381484,40.9892857" id="Fill-112" fill="#FDDFBB"></path>
            <path d="M9.03796129,79.3592857 C10.0194452,81.1764286 11.4906065,82.2778571 12.3251871,81.8214286 C13.1597677,81.3671429 13.042671,79.5221429 12.0590581,77.7071429 C11.0818323,75.89 9.61067097,74.7864286 8.77609032,75.2428571 C7.94150968,75.6992857 8.05860645,77.54 9.03796129,79.3592857" id="Fill-113" fill="#FDDFBB"></path>
            <path d="M54.3422774,45.2702857 C54.6765355,47.5374286 55.7964065,49.2431429 56.8353742,49.0867143 C57.8743419,48.9324286 58.4449226,46.9695714 58.1106645,44.7024286 C57.7742774,42.4395714 56.6565355,40.7274286 55.6196968,40.8838571 C54.576471,41.0381429 54.0080194,43.0031429 54.3422774,45.2702857" id="Fill-114" fill="#FDDFBB"></path>
            <path d="M41.3790258,84.7121429 C41.3790258,84.7121429 43.1205742,69.125 41.4578,58.9035714 C41.5472194,58.94 50.3316065,62.4821429 52.7438,61.6014286 C55.2752194,60.6757143 58.1217355,53.5292857 58.9478,51.32 C57.6788968,50.9171429 56.3482516,50.1971429 55.2901226,49.0378571 C55.2901226,49.0357143 55.2879935,49.0357143 55.2837355,49.0314286 L49.9419935,55.3464286 C49.9419935,55.3464286 47.4127032,54.0928571 41.3790258,52.2564286 C40.6125742,51.9821429 38.3025742,51.1485714 38.3025742,51.1485714 C36.971929,50.2142857 34.0402516,49.8007143 32.2688968,49.6271429 C31.9048323,51.7742857 25.9690903,51.7121429 25.615671,49.6442857 C25.4240581,49.6614286 25.2218,49.6807143 25.0131548,49.7042857 C24.6086387,49.7535714 24.031671,49.8307143 23.3205742,49.9421429 C21.9026387,50.1907143 20.4421226,50.5764286 19.6267032,51.17 C18.949671,51.5321429 13.1246387,54.6757143 11.4384452,56.8442857 C8.04476774,61.2092857 6.58212258,73.6571429 6.37560645,75.5642857 C7.20592903,75.5921429 9.03263871,74.7457143 10.9040581,75.3885714 C11.2234129,73.445 12.6413484,65.2314286 14.1423161,63.0907143 C14.9981871,61.8778571 16.0733484,60.9178571 16.2756065,60.3778571 C14.9364452,70.5607143 16.4288968,84.7164286 16.4288968,84.7164286 L16.4331548,84.7421429 C16.7950903,84.8921429 25.021671,88.3057143 28.7091548,92.0192857 C28.721929,92.0321429 28.7368323,92.0385714 28.7538645,92.0492857 L28.7623806,91.9507143 L29.0498,91.9507143 L29.0561871,92.0492857 C29.0774774,92.0428571 29.0923806,92.0321429 29.1030258,92.0192857 C32.2454774,88.7085714 40.6998645,85.0442857 41.3747677,84.7571429 L41.3790258,84.7121429 Z" id="Fill-115" fill="#0771B7"></path>
            <path d="M7.08776774,70.4612857 L12.8233806,66.3941429 C13.1257032,65.3398571 13.4514452,64.4034286 13.7835742,63.722 L7.53060645,68.0205714 C7.36454194,68.867 7.21550968,69.6877143 7.08776774,70.4612857" id="Fill-116" fill="#6CC5D8"></path>
            <path d="M6.47652258,74.6717857 L11.7011677,71.0717857 C11.8714903,70.2467857 12.0609742,69.3725 12.2674903,68.5175 L6.80013548,72.2846429 C6.65749032,73.2446429 6.55103871,74.0675 6.47652258,74.6717857" id="Fill-117" fill="#6CC5D8"></path>
            <path d="M53.0346258,51.6967143 L55.2126258,59.1431429 C55.6277871,58.5088571 56.0323032,57.8038571 56.415529,57.0774286 L54.2950129,50.2052857 L53.0346258,51.6967143 Z" id="Fill-118" fill="#6CC5D8"></path>
            <path d="M54.2258194,60.4543571 L51.9349806,52.9929286 L50.5681419,54.6065 L52.7205935,61.6072143 C52.7291097,61.6050714 52.7376258,61.6029286 52.7440129,61.6007857 C53.2336903,61.4207857 53.7340129,61.0157857 54.2258194,60.4543571" id="Fill-119" fill="#6CC5D8"></path>
            <path d="M25.9165032,50.1356429 L32.7102452,47.8792143 L32.7251484,47.8663571 C31.4605032,48.0827857 30.1596645,48.1985 28.8332774,48.1985 C27.5643742,48.1985 26.3210194,48.0913571 25.1096,47.8920714 C25.1798581,48.5563571 25.4821806,49.4735 25.9165032,50.1356429" id="Fill-120" fill="#EEAC6C"></path>
            <path d="M51.7329355,28.6505 C51.9032581,27.5169286 51.9926774,26.3555 51.9926774,25.1747857 C51.9926774,12.4055 41.7051935,2.05335714 29.0182903,2.05335714 C16.3335161,2.05335714 6.04603226,12.4055 6.04603226,25.1747857 C6.04603226,26.2997857 6.12693548,27.4076429 6.28235484,28.4919286 C4.95596774,29.2226429 4.06177419,30.6005 4.06177419,32.1819286 C4.06177419,34.5283571 6.02687097,36.4312143 8.44970968,36.4312143 C8.61151613,36.4312143 8.77545161,36.4205 8.933,36.4033571 C12.8546774,43.4983571 20.3829355,48.2962143 29.0182903,48.2962143 C37.6493871,48.2962143 45.167,43.5069286 49.0929355,36.4247857 C49.1631935,36.4290714 49.2291935,36.4312143 49.2994516,36.4312143 C51.7222903,36.4312143 53.6852581,34.5283571 53.6852581,32.1819286 C53.6852581,30.7119286 52.9102903,29.4112143 51.7329355,28.6505" id="Fill-121" fill="#FDDFBB"></path>
            <g id="Page-1" transform="translate(16.000000, 22.000000)">
                <path d="M8.31106854,1.65026755 C8.31106854,1.65026755 7.80801591,3.45328977 6.22875275,3.09640088 C5.45712117,2.92235643 5.3211738,1.89471199 2.8433317,2.35573421 C2.06412117,2.53613421 0.42612117,3.51195643 0.110647486,4.16364532 C-0.205299883,4.8158231 0.0234895909,1.77248977 2.56764749,0.641689768 C4.4031738,-0.0329768984 5.02512117,0.000267546019 6.54470012,0.000267546019 C8.06427906,0.000267546019 8.53227906,0.907156435 8.31106854,1.65026755" id="Fill-1" fill="#AD6920"></path>
                <path d="M18.05184,1.65026755 C18.05184,1.65026755 18.5548926,3.45328977 20.1341558,3.09640088 C20.9057873,2.92235643 21.0417347,1.89471199 23.5195768,2.35573421 C24.2987873,2.53613421 25.9367873,3.51195643 26.252261,4.16364532 C26.5682084,4.8158231 26.3394189,1.77248977 23.795261,0.641689768 C21.9597347,-0.0329768984 21.3377873,0.000267546019 19.8182084,0.000267546019 C18.2986294,0.000267546019 17.8306294,0.907156435 18.05184,1.65026755" id="Fill-3" fill="#AD6920"></path>
                <path d="M6,9 C6,10.6568785 5.10453816,12 3.99983098,12 C2.89512381,12 2,10.6568785 2,9 C2,7.34312148 2.89512381,6 3.99983098,6 C5.10453816,6 6,7.34312148 6,9" id="Fill-5" fill="#6172BB"></path>
                <path d="M24,9 C24,10.6568785 23.1048762,12 22.000169,12 C20.8951238,12 20,10.6568785 20,9 C20,7.34312148 20.8951238,6 22.000169,6 C23.1048762,6 24,7.34312148 24,9" id="Fill-7" fill="#6172BB"></path>
                <path d="M13.0197368,12.0692 C13.8586316,11.9552889 15.9802632,13.8262667 15.9802632,13.8262667 C15.9802632,13.8262667 16.0825789,13.4116889 15.6396842,12.5884 C15.1626842,11.7025333 12.9903684,11 12.9903684,11 C12.9903684,11 11.3026316,11.4478222 10.5030526,12.6040444 C10.207,12.8939556 10,13.9025333 10,13.9025333 C10,13.9025333 11.8947368,12.2217333 13.0197368,12.0692 Z" id="Fill-9" fill="#EEAC6C"></path>
                <g id="Group-13" transform="translate(6.000000, 15.000000)">
                    <mask id="mask-2" fill="white">
                        <use xlink:href="#path-1"></use>
                    </mask>
                    <g id="Clip-12"></g>
                    <path d="M0.199373684,0.696031111 C0.199373684,0.696031111 7.09763684,3.90412 13.3734789,0.299053333 C13.3734789,0.299053333 11.9822684,5.76825333 7.42305789,5.86016444 C3.30768947,5.98238667 2.43942632,4.36807556 1.94632105,3.90412 C1.45274211,3.44114222 0.524794737,2.13238667 0.199373684,0.696031111" id="Fill-11" fill="#EEAC6C" mask="url(#mask-2)"></path>
                </g>
            </g>
            <path d="M5.23529677,22.3895 C5.2502,21.1873571 5.33961935,19.7259286 5.5078129,18.1637857 C8.57787742,8.04092857 17.9307161,0.678071429 28.9910387,0.678071429 C38.6227806,0.678071429 46.960071,6.26021429 50.9796839,14.3837857 C52.0931677,17.5745 52.7744581,20.7202143 52.8298129,22.1345 C53.0278129,27.0545 51.6120065,28.6852143 51.6120065,28.6852143 C51.6120065,28.6852143 47.4944581,22.9487857 42.6232323,19.5030714 C38.7931032,16.8009286 35.3845226,22.0295 30.8369097,17.5466429 C30.4323935,17.1502143 28.9101355,15.6030714 28.9101355,15.6030714 C28.9101355,15.6030714 27.6625226,17.0152143 26.9918774,17.5466429 C22.9467161,20.7609286 20.6899419,17.1116429 16.1657484,19.5887857 C12.4633613,21.6180714 6.39561935,28.8480714 6.39561935,28.8480714 C6.39561935,28.8480714 5.19910323,25.0916429 5.23529677,22.3895" id="Fill-130" fill="#AD6920"></path>
        </g>
    </g>
</svg>