<?xml version="1.0" encoding="UTF-8"?>
<svg width="120px" height="120px" viewBox="0 0 120 120" version="1.1" xmlns="http://www.w3.org/2000/svg" xmlns:xlink="http://www.w3.org/1999/xlink">
    <!-- Generator: Sketch 51.1 (57501) - http://www.bohemiancoding.com/sketch -->
    <title>Display board4</title>
    <desc>Created with Sketch.</desc>
    <defs>
        <path d="M99.7497402,81.8888275 C99.7497402,91.4981948 91.8565806,99.3601561 82.2090808,99.3601561 L17.6480279,99.3601561 C8.00052815,99.3601561 0.106976744,91.4981948 0.106976744,81.8888275 L0.106976744,17.5829566 C0.106976744,7.9735892 8.00052815,0.1112376 17.6480279,0.1112376 L82.2090808,0.1112376 C91.8565806,0.1112376 99.7497402,7.9735892 99.7497402,17.5829566 L99.7497402,81.8888275 Z" id="path-1"></path>
        <path d="M99.7497402,81.8888275 C99.7497402,91.4981948 91.8565806,99.3601561 82.2090808,99.3601561 L17.6480279,99.3601561 C8.00052815,99.3601561 0.106976744,91.4981948 0.106976744,81.8888275 L0.106976744,17.5829566 C0.106976744,7.9735892 8.00052815,0.1112376 17.6480279,0.1112376 L82.2090808,0.1112376 C91.8565806,0.1112376 99.7497402,7.9735892 99.7497402,17.5829566 L99.7497402,81.8888275 Z" id="path-3"></path>
        <path d="M99.7497402,81.8888275 C99.7497402,91.4981948 91.8565806,99.3601561 82.2090808,99.3601561 L17.6480279,99.3601561 C8.00052815,99.3601561 0.106976744,91.4981948 0.106976744,81.8888275 L0.106976744,17.5829566 C0.106976744,7.9735892 8.00052815,0.1112376 17.6480279,0.1112376 L82.2090808,0.1112376 C91.8565806,0.1112376 99.7497402,7.9735892 99.7497402,17.5829566 L99.7497402,81.8888275 Z" id="path-5"></path>
        <path d="M99.7497402,81.8888275 C99.7497402,91.4981948 91.8565806,99.3601561 82.2090808,99.3601561 L17.6480279,99.3601561 C8.00052815,99.3601561 0.106976744,91.4981948 0.106976744,81.8888275 L0.106976744,17.5829566 C0.106976744,7.9735892 8.00052815,0.1112376 17.6480279,0.1112376 L82.2090808,0.1112376 C91.8565806,0.1112376 99.7497402,7.9735892 99.7497402,17.5829566 L99.7497402,81.8888275 Z" id="path-7"></path>
        <path d="M99.7497402,81.8888275 C99.7497402,91.4981948 91.8565806,99.3601561 82.2090808,99.3601561 L17.6480279,99.3601561 C8.00052815,99.3601561 0.106976744,91.4981948 0.106976744,81.8888275 L0.106976744,17.5829566 C0.106976744,7.9735892 8.00052815,0.1112376 17.6480279,0.1112376 L82.2090808,0.1112376 C91.8565806,0.1112376 99.7497402,7.9735892 99.7497402,17.5829566 L99.7497402,81.8888275 Z" id="path-9"></path>
        <path d="M99.7497402,81.8888275 C99.7497402,91.4981948 91.8565806,99.3601561 82.2090808,99.3601561 L17.6480279,99.3601561 C8.00052815,99.3601561 0.106976744,91.4981948 0.106976744,81.8888275 L0.106976744,17.5829566 C0.106976744,7.9735892 8.00052815,0.1112376 17.6480279,0.1112376 L82.2090808,0.1112376 C91.8565806,0.1112376 99.7497402,7.9735892 99.7497402,17.5829566 L99.7497402,81.8888275 Z" id="path-11"></path>
        <path d="M99.7497402,81.8888275 C99.7497402,91.4981948 91.8565806,99.3601561 82.2090808,99.3601561 L17.6480279,99.3601561 C8.00052815,99.3601561 0.106976744,91.4981948 0.106976744,81.8888275 L0.106976744,17.5829566 C0.106976744,7.9735892 8.00052815,0.1112376 17.6480279,0.1112376 L82.2090808,0.1112376 C91.8565806,0.1112376 99.7497402,7.9735892 99.7497402,17.5829566 L99.7497402,81.8888275 Z" id="path-13"></path>
        <path d="M99.7497402,81.8888275 C99.7497402,91.4981948 91.8565806,99.3601561 82.2090808,99.3601561 L17.6480279,99.3601561 C8.00052815,99.3601561 0.106976744,91.4981948 0.106976744,81.8888275 L0.106976744,17.5829566 C0.106976744,7.9735892 8.00052815,0.1112376 17.6480279,0.1112376 L82.2090808,0.1112376 C91.8565806,0.1112376 99.7497402,7.9735892 99.7497402,17.5829566 L99.7497402,81.8888275 Z" id="path-15"></path>
        <path d="M99.7497402,81.8888275 C99.7497402,91.4981948 91.8565806,99.3601561 82.2090808,99.3601561 L17.6480279,99.3601561 C8.00052815,99.3601561 0.106976744,91.4981948 0.106976744,81.8888275 L0.106976744,17.5829566 C0.106976744,7.9735892 8.00052815,0.1112376 17.6480279,0.1112376 L82.2090808,0.1112376 C91.8565806,0.1112376 99.7497402,7.9735892 99.7497402,17.5829566 L99.7497402,81.8888275 Z" id="path-17"></path>
        <path d="M99.7497402,81.8888275 C99.7497402,91.4981948 91.8565806,99.3601561 82.2090808,99.3601561 L17.6480279,99.3601561 C8.00052815,99.3601561 0.106976744,91.4981948 0.106976744,81.8888275 L0.106976744,17.5829566 C0.106976744,7.9735892 8.00052815,0.1112376 17.6480279,0.1112376 L82.2090808,0.1112376 C91.8565806,0.1112376 99.7497402,7.9735892 99.7497402,17.5829566 L99.7497402,81.8888275 Z" id="path-19"></path>
        <path d="M99.7497402,81.8888275 C99.7497402,91.4981948 91.8565806,99.3601561 82.2090808,99.3601561 L17.6480279,99.3601561 C8.00052815,99.3601561 0.106976744,91.4981948 0.106976744,81.8888275 L0.106976744,17.5829566 C0.106976744,7.9735892 8.00052815,0.1112376 17.6480279,0.1112376 L82.2090808,0.1112376 C91.8565806,0.1112376 99.7497402,7.9735892 99.7497402,17.5829566 L99.7497402,81.8888275 Z" id="path-21"></path>
        <path d="M99.7497402,81.8888275 C99.7497402,91.4981948 91.8565806,99.3601561 82.2090808,99.3601561 L17.6480279,99.3601561 C8.00052815,99.3601561 0.106976744,91.4981948 0.106976744,81.8888275 L0.106976744,17.5829566 C0.106976744,7.9735892 8.00052815,0.1112376 17.6480279,0.1112376 L82.2090808,0.1112376 C91.8565806,0.1112376 99.7497402,7.9735892 99.7497402,17.5829566 L99.7497402,81.8888275 Z" id="path-23"></path>
        <path d="M99.7497402,81.8888275 C99.7497402,91.4981948 91.8565806,99.3601561 82.2090808,99.3601561 L17.6480279,99.3601561 C8.00052815,99.3601561 0.106976744,91.4981948 0.106976744,81.8888275 L0.106976744,17.5829566 C0.106976744,7.9735892 8.00052815,0.1112376 17.6480279,0.1112376 L82.2090808,0.1112376 C91.8565806,0.1112376 99.7497402,7.9735892 99.7497402,17.5829566 L99.7497402,81.8888275 Z" id="path-25"></path>
        <path d="M99.7497402,81.8888275 C99.7497402,91.4981948 91.8565806,99.3601561 82.2090808,99.3601561 L17.6480279,99.3601561 C8.00052815,99.3601561 0.106976744,91.4981948 0.106976744,81.8888275 L0.106976744,17.5829566 C0.106976744,7.9735892 8.00052815,0.1112376 17.6480279,0.1112376 L82.2090808,0.1112376 C91.8565806,0.1112376 99.7497402,7.9735892 99.7497402,17.5829566 L99.7497402,81.8888275 Z" id="path-27"></path>
        <path d="M99.7497402,81.8888275 C99.7497402,91.4981948 91.8565806,99.3601561 82.2090808,99.3601561 L17.6480279,99.3601561 C8.00052815,99.3601561 0.106976744,91.4981948 0.106976744,81.8888275 L0.106976744,17.5829566 C0.106976744,7.9735892 8.00052815,0.1112376 17.6480279,0.1112376 L82.2090808,0.1112376 C91.8565806,0.1112376 99.7497402,7.9735892 99.7497402,17.5829566 L99.7497402,81.8888275 Z" id="path-29"></path>
        <path d="M99.7497402,81.8888275 C99.7497402,91.4981948 91.8565806,99.3601561 82.2090808,99.3601561 L17.6480279,99.3601561 C8.00052815,99.3601561 0.106976744,91.4981948 0.106976744,81.8888275 L0.106976744,17.5829566 C0.106976744,7.9735892 8.00052815,0.1112376 17.6480279,0.1112376 L82.2090808,0.1112376 C91.8565806,0.1112376 99.7497402,7.9735892 99.7497402,17.5829566 L99.7497402,81.8888275 Z" id="path-31"></path>
        <path d="M99.7497402,81.8888275 C99.7497402,91.4981948 91.8565806,99.3601561 82.2090808,99.3601561 L17.6480279,99.3601561 C8.00052815,99.3601561 0.106976744,91.4981948 0.106976744,81.8888275 L0.106976744,17.5829566 C0.106976744,7.9735892 8.00052815,0.1112376 17.6480279,0.1112376 L82.2090808,0.1112376 C91.8565806,0.1112376 99.7497402,7.9735892 99.7497402,17.5829566 L99.7497402,81.8888275 Z" id="path-33"></path>
        <path d="M99.7497402,81.8888275 C99.7497402,91.4981948 91.8565806,99.3601561 82.2090808,99.3601561 L17.6480279,99.3601561 C8.00052815,99.3601561 0.106976744,91.4981948 0.106976744,81.8888275 L0.106976744,17.5829566 C0.106976744,7.9735892 8.00052815,0.1112376 17.6480279,0.1112376 L82.2090808,0.1112376 C91.8565806,0.1112376 99.7497402,7.9735892 99.7497402,17.5829566 L99.7497402,81.8888275 Z" id="path-35"></path>
        <path d="M99.7497402,81.8888275 C99.7497402,91.4981948 91.8565806,99.3601561 82.2090808,99.3601561 L17.6480279,99.3601561 C8.00052815,99.3601561 0.106976744,91.4981948 0.106976744,81.8888275 L0.106976744,17.5829566 C0.106976744,7.9735892 8.00052815,0.1112376 17.6480279,0.1112376 L82.2090808,0.1112376 C91.8565806,0.1112376 99.7497402,7.9735892 99.7497402,17.5829566 L99.7497402,81.8888275 Z" id="path-37"></path>
        <path d="M99.7497402,81.8888275 C99.7497402,91.4981948 91.8565806,99.3601561 82.2090808,99.3601561 L17.6480279,99.3601561 C8.00052815,99.3601561 0.106976744,91.4981948 0.106976744,81.8888275 L0.106976744,17.5829566 C0.106976744,7.9735892 8.00052815,0.1112376 17.6480279,0.1112376 L82.2090808,0.1112376 C91.8565806,0.1112376 99.7497402,7.9735892 99.7497402,17.5829566 L99.7497402,81.8888275 Z" id="path-39"></path>
    </defs>
    <g id="Display-board4" stroke="none" stroke-width="1" fill="none" fill-rule="evenodd">
        <g id="Page-1" transform="translate(4.000000, 0.000000)">
            <path d="M113.139627,99.3185363 C113.139627,110.224505 104.181403,119.147712 93.2317648,119.147712 L19.9597484,119.147712 C9.01050231,119.147712 0.051885737,110.224505 0.051885737,99.3185363 L0.051885737,26.3361327 C0.051885737,15.4297739 9.01050231,6.50695723 19.9597484,6.50695723 L93.2317648,6.50695723 C104.181403,6.50695723 113.139627,15.4297739 113.139627,26.3361327 L113.139627,99.3185363 Z" id="Fill-2" fill="#774111"></path>
            <path d="M111.645676,98.3542039 C111.645676,108.972516 102.924132,117.659587 92.2640759,117.659587 L20.9278292,117.659587 C10.267773,117.659587 1.54544567,108.972516 1.54544567,98.3542039 L1.54544567,27.2999187 C1.54544567,16.6819971 10.267773,7.9945357 20.9278292,7.9945357 L92.2640759,7.9945357 C102.924132,7.9945357 111.645676,16.6819971 111.645676,27.2999187 L111.645676,98.3542039 Z" id="Fill-4" fill="#B47F44"></path>
            <path d="M111.272198,98.1133453 C111.272198,108.65945 102.609824,117.287585 92.0218696,117.287585 L21.1699571,117.287585 C10.5816106,117.287585 1.9192373,108.65945 1.9192373,98.1133453 L1.9192373,27.5410896 C1.9192373,16.9949846 10.5816106,8.36684989 21.1699571,8.36684989 L92.0218696,8.36684989 C102.609824,8.36684989 111.272198,16.9949846 111.272198,27.5410896 L111.272198,98.1133453 Z" id="Stroke-6" stroke="#FCEBDB" stroke-width="1.1393072"></path>
            <path d="M107.19944,95.4848593 C107.19944,105.245276 99.1820621,113.230964 89.3829139,113.230964 L23.8085209,113.230964 C14.0101565,113.230964 5.99277849,105.245276 5.99277849,95.4848593 L5.99277849,30.1696536 C5.99277849,20.4092373 14.0101565,12.4235485 23.8085209,12.4235485 L89.3829139,12.4235485 C99.1820621,12.4235485 107.19944,20.4092373 107.19944,30.1696536 L107.19944,95.4848593 Z" id="Fill-8" fill="#774111"></path>
            <path d="M106.452445,95.0026736 C106.452445,104.619067 98.5534072,112.486882 88.8992458,112.486882 L24.2927376,112.486882 C14.6381844,112.486882 6.73953886,104.619067 6.73953886,95.0026736 L6.73953886,30.6519174 C6.73953886,21.0355245 14.6381844,13.1677086 24.2927376,13.1677086 L88.8992458,13.1677086 C98.5534072,13.1677086 106.452445,21.0355245 106.452445,30.6519174 L106.452445,95.0026736 Z" id="Fill-10" fill="#F7E490"></path>
            <g id="Group-72" transform="translate(6.667320, 13.091560)">
                <g id="Group-14">
                    <mask id="mask-2" fill="white">
                        <use xlink:href="#path-1"></use>
                    </mask>
                    <g id="Clip-13"></g>
                    <polygon id="Fill-12" fill="#FFF6CF" mask="url(#mask-2)" points="50.0251469 49.8159831 47.6485391 -3.48243942 45.2719312 -56.7804716 50.0251469 -56.7804716 54.777579 -56.7804716 52.4009711 -3.48243942"></polygon>
                </g>
                <g id="Group-17">
                    <mask id="mask-4" fill="white">
                        <use xlink:href="#path-3"></use>
                    </mask>
                    <g id="Clip-16"></g>
                    <polygon id="Fill-15" fill="#FFF6CF" mask="url(#mask-4)" points="50.0450141 49.7824167 31.2492393 -0.175755407 12.4538564 -50.1339275 16.9739177 -51.5967995 21.4947628 -53.0600618 35.7696925 -1.63862742"></polygon>
                </g>
                <g id="Group-20">
                    <mask id="mask-6" fill="white">
                        <use xlink:href="#path-5"></use>
                    </mask>
                    <g id="Clip-19"></g>
                    <polygon id="Fill-18" fill="#FFF6CF" mask="url(#mask-6)" points="50.0538308 49.7443227 16.6790459 8.01656204 -16.695739 -33.7115889 -12.8508459 -36.4936998 -9.00556095 -39.2765913 20.5243309 5.23367052"></polygon>
                </g>
                <g id="Group-23">
                    <mask id="mask-8" fill="white">
                        <use xlink:href="#path-7"></use>
                    </mask>
                    <g id="Clip-22"></g>
                    <polygon id="Fill-21" fill="#FFF6CF" mask="url(#mask-8)" points="50.0499906 49.705448 5.36310078 20.2926655 -39.3241809 -9.1205074 -36.5302462 -12.9502033 -33.7367033 -16.7806798 8.15703552 16.462189"></polygon>
                </g>
                <g id="Group-26">
                    <mask id="mask-10" fill="white">
                        <use xlink:href="#path-9"></use>
                    </mask>
                    <g id="Clip-25"></g>
                    <polygon id="Fill-24" fill="#FFF6CF" mask="url(#mask-10)" points="50.0350609 49.6696178 -1.59003493 35.4507204 -53.2159145 21.2318231 -51.7464537 16.7292373 -50.2773848 12.2266515 -0.121749723 30.9481347"></polygon>
                </g>
                <g id="Group-29">
                    <mask id="mask-12" fill="white">
                        <use xlink:href="#path-11"></use>
                    </mask>
                    <g id="Clip-28"></g>
                    <polygon id="Fill-27" fill="#FFF6CF" mask="url(#mask-12)" points="50.0094335 49.6402667 -3.50088253 52.0070906 -57.0104149 54.3743048 -57.010023 49.6402667 -57.010023 44.9058383 -3.50088253 47.2730525"></polygon>
                </g>
                <g id="Group-32">
                    <mask id="mask-14" fill="white">
                        <use xlink:href="#path-13"></use>
                    </mask>
                    <g id="Clip-31"></g>
                    <polygon id="Fill-30" fill="#FFF6CF" mask="url(#mask-14)" points="49.9757731 49.6200488 -0.181037567 68.341532 -50.3374563 87.0626248 -51.8057415 82.560039 -53.2740267 78.0574532 -1.64971463 63.8389462"></polygon>
                </g>
                <g id="Group-35">
                    <mask id="mask-16" fill="white">
                        <use xlink:href="#path-15"></use>
                    </mask>
                    <g id="Clip-34"></g>
                    <polygon id="Fill-33" fill="#FFF6CF" mask="url(#mask-16)" points="49.9374887 49.6112669 8.04414175 82.8541356 -33.8492052 116.097004 -36.6427481 112.266918 -39.4366829 108.436832 5.250207 79.0240494"></polygon>
                </g>
                <g id="Group-38">
                    <mask id="mask-18" fill="white">
                        <use xlink:href="#path-17"></use>
                    </mask>
                    <g id="Clip-37"></g>
                    <polygon id="Fill-36" fill="#FFF6CF" mask="url(#mask-18)" points="49.8988517 49.6147016 20.3689599 94.1253537 -9.16093194 138.635616 -13.0062169 135.852724 -16.8507181 133.069832 16.5236749 91.3424622"></polygon>
                </g>
                <g id="Group-41">
                    <mask id="mask-20" fill="white">
                        <use xlink:href="#path-19"></use>
                    </mask>
                    <g id="Clip-40"></g>
                    <polygon id="Fill-39" fill="#FFF6CF" mask="url(#mask-20)" points="49.8620956 49.6295723 35.586774 101.051007 21.3118443 152.47166 16.7913911 151.009179 12.2717216 149.545526 31.0671045 99.5881347"></polygon>
                </g>
                <g id="Group-44">
                    <mask id="mask-22" fill="white">
                        <use xlink:href="#path-21"></use>
                    </mask>
                    <g id="Clip-43"></g>
                    <polygon id="Fill-42" fill="#FFF6CF" mask="url(#mask-22)" points="49.8330198 49.6554887 52.2092359 102.953911 54.5858438 156.251553 49.8330198 156.251553 45.0801959 156.251163 47.4568038 102.953911"></polygon>
                </g>
                <g id="Group-47">
                    <mask id="mask-24" fill="white">
                        <use xlink:href="#path-23"></use>
                    </mask>
                    <g id="Clip-46"></g>
                    <polygon id="Fill-45" fill="#FFF6CF" mask="url(#mask-24)" points="49.8127609 49.6890551 68.6085357 99.6476175 87.4043104 149.605009 82.8838572 151.067881 78.363404 152.530363 64.0884743 101.110099"></polygon>
                </g>
                <g id="Group-50">
                    <mask id="mask-26" fill="white">
                        <use xlink:href="#path-25"></use>
                    </mask>
                    <g id="Clip-49"></g>
                    <polygon id="Fill-48" fill="#FFF6CF" mask="url(#mask-26)" points="49.8039441 49.7271491 83.1791209 91.4549097 116.553906 133.18267 112.708229 135.964781 108.863336 138.747282 79.3334441 94.237411"></polygon>
                </g>
                <g id="Group-53">
                    <mask id="mask-28" fill="white">
                        <use xlink:href="#path-27"></use>
                    </mask>
                    <g id="Clip-52"></g>
                    <polygon id="Fill-51" fill="#FFF6CF" mask="url(#mask-28)" points="49.8073925 49.7660237 94.495066 79.1788063 139.181564 108.591589 136.387629 112.421285 133.594478 116.251371 91.7011313 83.0085022"></polygon>
                </g>
                <g id="Group-56">
                    <mask id="mask-30" fill="white">
                        <use xlink:href="#path-29"></use>
                    </mask>
                    <g id="Clip-55"></g>
                    <polygon id="Fill-54" fill="#FFF6CF" mask="url(#mask-30)" points="49.8230667 49.8022443 101.448163 64.0207513 153.072083 78.2392584 151.603798 82.7418442 150.135512 87.2440397 99.9794855 68.5225565"></polygon>
                </g>
                <g id="Group-59">
                    <mask id="mask-32" fill="white">
                        <use xlink:href="#path-31"></use>
                    </mask>
                    <g id="Clip-58"></g>
                    <polygon id="Fill-57" fill="#FFF6CF" mask="url(#mask-32)" points="49.8483414 49.8315954 103.359049 47.4643812 156.867406 45.097167 156.867406 49.8312051 156.867406 54.5648528 103.358657 52.1976386"></polygon>
                </g>
                <g id="Group-62">
                    <mask id="mask-34" fill="white">
                        <use xlink:href="#path-33"></use>
                    </mask>
                    <g id="Clip-61"></g>
                    <polygon id="Fill-60" fill="#FFF6CF" mask="url(#mask-34)" points="49.8820019 49.851423 100.039204 31.1299398 150.194448 12.408847 151.662733 16.9114328 153.13141 21.4132379 101.507098 35.631745"></polygon>
                </g>
                <g id="Group-65">
                    <mask id="mask-36" fill="white">
                        <use xlink:href="#path-35"></use>
                    </mask>
                    <g id="Clip-64"></g>
                    <polygon id="Fill-63" fill="#FFF6CF" mask="url(#mask-36)" points="49.9202862 49.8601659 91.814025 16.6169068 133.706196 -16.6255716 136.500523 -12.7954854 139.293674 -8.96617987 94.6071761 20.4466027"></polygon>
                </g>
                <g id="Group-68">
                    <mask id="mask-38" fill="white">
                        <use xlink:href="#path-37"></use>
                    </mask>
                    <g id="Clip-67"></g>
                    <polygon id="Fill-66" fill="#FFF6CF" mask="url(#mask-38)" points="49.9593151 49.8567702 79.4892069 5.34572776 109.018315 -39.1637535 112.863208 -36.3812522 116.708493 -33.5991413 83.3337082 8.12822898"></polygon>
                </g>
                <g id="Group-71">
                    <mask id="mask-40" fill="white">
                        <use xlink:href="#path-39"></use>
                    </mask>
                    <g id="Clip-70"></g>
                    <polygon id="Fill-69" fill="#FFF6CF" mask="url(#mask-40)" points="49.9952875 49.8411189 64.2710009 -1.5803155 78.5459307 -53.0001886 83.065992 -51.5373166 87.5860533 -50.0748349 68.7902786 -0.117443487"></polygon>
                </g>
            </g>
            <path d="M86.6694665,9.03595381 C86.6694665,13.7614051 82.8233978,17.5918816 78.078411,17.5918816 L35.1219581,17.5918816 C30.3777551,17.5918816 26.5309027,13.7614051 26.5309027,9.03595381 C26.5309027,4.31089283 30.3777551,0.48002602 35.1219581,0.48002602 L78.078411,0.48002602 C82.8233978,0.48002602 86.6694665,4.31089283 86.6694665,9.03595381" id="Fill-73" fill="#B47F44"></path>
            <path d="M86.7854167,9.03595381 C86.7854167,13.7809205 82.9236738,17.6277899 78.1598779,17.6277899 L35.0321839,17.6277899 C30.268388,17.6277899 26.4062532,13.7809205 26.4062532,9.03595381 C26.4062532,4.29137746 30.268388,0.44450805 35.0321839,0.44450805 L78.1598779,0.44450805 C82.9236738,0.44450805 86.7854167,4.29137746 86.7854167,9.03595381 Z" id="Stroke-75" stroke="#562802" stroke-width="0.909090909"></path>
            <path d="M84.2578658,9.03595381 C84.2578658,12.5986795 80.7194043,15.4857831 76.3541261,15.4857831 L36.8373871,15.4857831 C32.4725008,15.4857831 28.9340392,12.5986795 28.9340392,9.03595381 C28.9340392,5.47361847 32.4725008,2.58651488 36.8373871,2.58651488 L76.3541261,2.58651488 C80.7194043,2.58651488 84.2578658,5.47361847 84.2578658,9.03595381" id="Fill-77" fill="#774111"></path>
            <path d="M84.2578658,9.03595381 C84.2578658,12.5986795 80.7194043,15.4857831 76.3541261,15.4857831 L36.8373871,15.4857831 C32.4725008,15.4857831 28.9340392,12.5986795 28.9340392,9.03595381 C28.9340392,5.47361847 32.4725008,2.58651488 36.8373871,2.58651488 L76.3541261,2.58651488 C80.7194043,2.58651488 84.2578658,5.47361847 84.2578658,9.03595381 Z" id="Stroke-79" stroke="#562802" stroke-width="0.909090909"></path>
            <path d="M86.3273368,9.01273053 C86.3273368,13.4622345 82.5318176,17.0698455 77.8507034,17.0698455 L35.467928,17.0698455 C30.7864219,17.0698455 26.9912945,13.4622345 26.9912945,9.01273053 C26.9912945,4.56361685 30.7864219,0.956396162 35.467928,0.956396162 L77.8507034,0.956396162 C82.5318176,0.956396162 86.3273368,4.56361685 86.3273368,9.01273053 Z" id="Stroke-81" stroke="#FCCDA9" stroke-width="0.909090909"></path>
        </g>
    </g>
</svg>