<?xml version="1.0" encoding="UTF-8"?>
<svg width="120px" height="120px" viewBox="0 0 120 120" version="1.1" xmlns="http://www.w3.org/2000/svg" xmlns:xlink="http://www.w3.org/1999/xlink">
    <!-- Generator: Sketch 51.1 (57501) - http://www.bohemiancoding.com/sketch -->
    <title>Game hint3</title>
    <desc>Created with Sketch.</desc>
    <defs></defs>
    <g id="Game-hint3" stroke="none" stroke-width="1" fill="none" fill-rule="evenodd">
        <g id="Page-1" transform="translate(0.000000, 4.000000)">
            <polygon id="Fill-1" fill="#58BE00" points="17.393 6.376 23.769 6.376 23.769 0 17.393 0"></polygon>
            <polygon id="Fill-2" fill="#70A100" points="23.77 12.752 30.145 12.752 30.145 6.376 23.77 6.376"></polygon>
            <polygon id="Fill-3" fill="#70A100" points="87.528 12.752 93.903 12.752 93.903 6.376 87.528 6.376"></polygon>
            <polygon id="Fill-4" fill="#72C621" points="30.145 19.128 36.521 19.128 36.521 12.752 30.145 12.752"></polygon>
            <polygon id="Fill-5" fill="#72C621" points="42.897 19.128 49.273 19.128 49.273 12.752 42.897 12.752"></polygon>
            <polygon id="Fill-6" fill="#58BE00" points="49.273 19.128 55.648 19.128 55.648 12.752 49.273 12.752"></polygon>
            <polygon id="Fill-7" fill="#58BE00" points="55.648 19.128 62.025 19.128 62.025 12.752 55.648 12.752"></polygon>
            <polygon id="Fill-8" fill="#58BE00" points="62.025 19.128 68.401 19.128 68.401 12.752 62.025 12.752"></polygon>
            <polygon id="Fill-9" fill="#58BE00" points="68.4 19.128 74.776 19.128 74.776 12.752 68.4 12.752"></polygon>
            <polygon id="Fill-10" fill="#58BE00" points="81.152 19.128 87.528 19.128 87.528 12.752 81.152 12.752"></polygon>
            <polygon id="Fill-11" fill="#72C621" points="36.521 25.504 42.897 25.504 42.897 19.128 36.521 19.128"></polygon>
            <polygon id="Fill-12" fill="#58BE00" points="42.897 25.504 49.273 25.504 49.273 19.128 42.897 19.128"></polygon>
            <polygon id="Fill-13" fill="#58BE00" points="49.273 25.504 55.648 25.504 55.648 19.128 49.273 19.128"></polygon>
            <polygon id="Fill-14" fill="#366171" points="55.648 25.504 62.025 25.504 62.025 19.128 55.648 19.128"></polygon>
            <polygon id="Fill-15" fill="#58BE00" points="62.025 25.504 68.401 25.504 68.401 19.128 62.025 19.128"></polygon>
            <polygon id="Fill-16" fill="#58BE00" points="68.4 25.504 74.776 25.504 74.776 19.128 68.4 19.128"></polygon>
            <polygon id="Fill-17" fill="#58BE00" points="74.776 25.504 81.152 25.504 81.152 19.128 74.776 19.128"></polygon>
            <polygon id="Fill-18" fill="#72C621" points="30.145 31.879 36.521 31.879 36.521 25.504 30.145 25.504"></polygon>
            <polygon id="Fill-19" fill="#58BE00" points="36.521 31.879 42.897 31.879 42.897 25.504 36.521 25.504"></polygon>
            <polygon id="Fill-20" fill="#58BE00" points="42.897 31.879 49.273 31.879 49.273 25.504 42.897 25.504"></polygon>
            <polygon id="Fill-21" fill="#58BE00" points="49.273 31.879 55.648 31.879 55.648 25.504 49.273 25.504"></polygon>
            <polygon id="Fill-22" fill="#70A100" points="55.648 31.879 62.025 31.879 62.025 25.504 55.648 25.504"></polygon>
            <polygon id="Fill-23" fill="#58BE00" points="62.025 31.879 68.401 31.879 68.401 25.504 62.025 25.504"></polygon>
            <polygon id="Fill-24" fill="#58BE00" points="68.4 31.879 74.776 31.879 74.776 25.504 68.4 25.504"></polygon>
            <polygon id="Fill-25" fill="#58BE00" points="74.776 31.879 81.152 31.879 81.152 25.504 74.776 25.504"></polygon>
            <polygon id="Fill-26" fill="#58BE00" points="81.152 31.879 87.528 31.879 87.528 25.504 81.152 25.504"></polygon>
            <polygon id="Fill-27" fill="#70A100" points="23.77 38.255 30.145 38.255 30.145 31.879 23.77 31.879"></polygon>
            <polygon id="Fill-28" fill="#58BE00" points="30.145 38.255 36.521 38.255 36.521 31.879 30.145 31.879"></polygon>
            <polygon id="Fill-29" fill="#58BE00" points="36.521 38.255 42.897 38.255 42.897 31.879 36.521 31.879"></polygon>
            <polygon id="Fill-30" fill="#FFFFFF" points="42.897 38.255 49.273 38.255 49.273 31.879 42.897 31.879"></polygon>
            <polygon id="Fill-31" fill="#58BE00" points="49.273 38.255 55.648 38.255 55.648 31.879 49.273 31.879"></polygon>
            <polygon id="Fill-32" fill="#58BE00" points="55.648 38.255 62.025 38.255 62.025 31.879 55.648 31.879"></polygon>
            <polygon id="Fill-33" fill="#58BE00" points="62.025 38.255 68.401 38.255 68.401 31.879 62.025 31.879"></polygon>
            <polygon id="Fill-34" fill="#FFFFFF" points="68.4 38.255 74.776 38.255 74.776 31.879 68.4 31.879"></polygon>
            <polygon id="Fill-35" fill="#58BE00" points="74.776 38.255 81.152 38.255 81.152 31.879 74.776 31.879"></polygon>
            <polygon id="Fill-36" fill="#58BE00" points="81.152 38.255 87.528 38.255 87.528 31.879 81.152 31.879"></polygon>
            <polygon id="Fill-37" fill="#70A100" points="87.528 38.255 93.903 38.255 93.903 31.879 87.528 31.879"></polygon>
            <polygon id="Fill-38" fill="#58BE00" points="17.394 44.632 23.77 44.632 23.77 38.255 17.394 38.255"></polygon>
            <polygon id="Fill-39" fill="#58BE00" points="30.145 44.632 36.521 44.632 36.521 38.255 30.145 38.255"></polygon>
            <polygon id="Fill-40" fill="#58BE00" points="36.521 44.632 42.897 44.632 42.897 38.255 36.521 38.255"></polygon>
            <polygon id="Fill-41" fill="#70A100" points="42.897 44.632 49.273 44.632 49.273 38.255 42.897 38.255"></polygon>
            <polygon id="Fill-42" fill="#58BE00" points="49.273 44.632 55.648 44.632 55.648 38.255 49.273 38.255"></polygon>
            <polygon id="Fill-43" fill="#58BE00" points="55.648 44.632 62.025 44.632 62.025 38.255 55.648 38.255"></polygon>
            <polygon id="Fill-44" fill="#58BE00" points="62.025 44.632 68.401 44.632 68.401 38.255 62.025 38.255"></polygon>
            <polygon id="Fill-45" fill="#70A100" points="68.4 44.632 74.776 44.632 74.776 38.255 68.4 38.255"></polygon>
            <polygon id="Fill-46" fill="#58BE00" points="74.776 44.632 81.152 44.632 81.152 38.255 74.776 38.255"></polygon>
            <polygon id="Fill-47" fill="#58BE00" points="81.152 44.632 87.528 44.632 87.528 38.255 81.152 38.255"></polygon>
            <polygon id="Fill-48" fill="#58BE00" points="17.394 51.008 23.77 51.008 23.77 44.632 17.394 44.632"></polygon>
            <polygon id="Fill-49" fill="#58BE00" points="30.145 51.008 36.521 51.008 36.521 44.632 30.145 44.632"></polygon>
            <polygon id="Fill-50" fill="#70A100" points="36.521 51.008 42.897 51.008 42.897 44.632 36.521 44.632"></polygon>
            <polygon id="Fill-51" fill="#58BE00" points="42.897 51.008 49.273 51.008 49.273 44.632 42.897 44.632"></polygon>
            <polygon id="Fill-52" fill="#70A100" points="49.273 51.008 55.648 51.008 55.648 44.632 49.273 44.632"></polygon>
            <polygon id="Fill-53" fill="#58BE00" points="55.648 51.008 62.025 51.008 62.025 44.632 55.648 44.632"></polygon>
            <polygon id="Fill-54" fill="#70A100" points="62.025 51.008 68.401 51.008 68.401 44.632 62.025 44.632"></polygon>
            <polygon id="Fill-55" fill="#58BE00" points="68.4 51.008 74.776 51.008 74.776 44.632 68.4 44.632"></polygon>
            <polygon id="Fill-56" fill="#70A100" points="74.776 51.008 81.152 51.008 81.152 44.632 74.776 44.632"></polygon>
            <polygon id="Fill-57" fill="#58BE00" points="81.152 51.008 87.528 51.008 87.528 44.632 81.152 44.632"></polygon>
            <polygon id="Fill-58" fill="#58BE00" points="17.394 57.383 23.77 57.383 23.77 51.008 17.394 51.008"></polygon>
            <polygon id="Fill-59" fill="#58BE00" points="30.145 57.383 36.521 57.383 36.521 51.008 30.145 51.008"></polygon>
            <polygon id="Fill-60" fill="#58BE00" points="81.152 57.383 87.528 57.383 87.528 51.008 81.152 51.008"></polygon>
            <polygon id="Fill-61" fill="#70A100" points="36.521 63.759 42.897 63.759 42.897 57.383 36.521 57.383"></polygon>
            <polygon id="Fill-62" fill="#70A100" points="74.776 63.759 81.152 63.759 81.152 57.383 74.776 57.383"></polygon>
            <polygon id="Fill-63" fill="#58BE00" points="42.897 70.135 49.273 70.135 49.273 63.759 42.897 63.759"></polygon>
            <polygon id="Fill-64" fill="#58BE00" points="68.4 70.135 74.776 70.135 74.776 63.759 68.4 63.759"></polygon>
            <polygon id="Fill-65" fill="#58BE00" points="93.903 6.376 100.28 6.376 100.28 0 93.903 0"></polygon>
            <polygon id="Fill-66" fill="#58BE00" points="93.903 44.632 100.279 44.632 100.279 38.255 93.903 38.255"></polygon>
            <polygon id="Fill-67" fill="#58BE00" points="93.903 51.008 100.279 51.008 100.279 44.632 93.903 44.632"></polygon>
            <polygon id="Fill-68" fill="#58BE00" points="93.903 57.383 100.279 57.383 100.279 51.008 93.903 51.008"></polygon>
            <path d="M4.6179,87.2607 L4.6179,91.8797 L-0.0001,91.8797 L-0.0001,105.7337 L4.6179,105.7337 L4.6179,91.8797 L18.4729,91.8797 L18.4729,87.2607 L4.6179,87.2607 Z M9.2369,96.4977 L9.2369,101.1157 L13.8559,101.1157 L13.8559,105.7337 L4.6179,105.7337 L4.6179,110.3517 L13.8559,110.3517 L13.8559,105.7337 L18.4729,105.7337 L18.4729,96.4977 L9.2369,96.4977 Z" id="Fill-69" fill="#366171"></path>
            <path d="M30.111,91.879 L39.348,91.879 L39.348,87.26 L30.111,87.26 L30.111,91.879 Z M39.348,91.879 L39.348,96.497 L30.111,96.497 L30.111,91.879 L25.493,91.879 L25.493,110.352 L30.111,110.352 L30.111,101.115 L39.348,101.115 L39.348,110.352 L43.966,110.352 L43.966,91.879 L39.348,91.879 Z" id="Fill-70" fill="#366171"></path>
            <path d="M69.2361,87.2607 L69.2361,91.8797 L64.6191,91.8797 L64.6191,96.4977 L60.0001,96.4977 L60.0001,101.1157 L64.6191,101.1157 L64.6191,96.4977 L69.2361,96.4977 L69.2361,110.3517 L73.8561,110.3517 L73.8561,87.2607 L69.2361,87.2607 Z M50.7631,87.2607 L50.7631,110.3517 L55.3811,110.3517 L55.3811,96.4977 L60.0001,96.4977 L60.0001,91.8797 L55.3811,91.8797 L55.3811,87.2607 L50.7631,87.2607 Z" id="Fill-71" fill="#366171"></path>
            <polygon id="Fill-72" fill="#366171" points="80.7642 87.2607 80.7642 110.3517 94.6192 110.3517 94.6192 105.7337 85.3822 105.7337 85.3822 101.1157 94.6192 101.1157 94.6192 96.4977 85.3822 96.4977 85.3822 91.8797 94.6192 91.8797 94.6192 87.2607"></polygon>
            <path d="M101.5263,87.2607 L101.5263,110.3517 L106.1463,110.3517 L106.1463,101.1157 L115.3813,101.1157 L115.3813,96.4977 L119.9993,96.4977 L119.9993,91.8797 L115.3813,91.8797 L115.3813,96.4977 L106.1463,96.4977 L106.1463,91.8797 L115.3813,91.8797 L115.3813,87.2607 L101.5263,87.2607 Z M110.7643,105.7337 L115.3823,105.7337 L115.3823,101.1147 L110.7643,101.1147 L110.7643,105.7337 Z M115.3813,110.3517 L119.9993,110.3517 L119.9993,105.7337 L115.3813,105.7337 L115.3813,110.3517 Z" id="Fill-73" fill="#366171"></path>
        </g>
    </g>
</svg>