<?xml version="1.0" encoding="UTF-8"?>
<svg width="120px" height="120px" viewBox="0 0 120 120" version="1.1" xmlns="http://www.w3.org/2000/svg" xmlns:xlink="http://www.w3.org/1999/xlink">
    <!-- Generator: Sketch 51.1 (57501) - http://www.bohemiancoding.com/sketch -->
    <title>Axe2</title>
    <desc>Created with Sketch.</desc>
    <defs>
        <polygon id="path-1" points="0 0.0424999447 29.5235652 0.0424999447 29.5235652 29.5652174 0 29.5652174"></polygon>
        <polygon id="path-3" points="0.0092173913 0.0571304348 83.1895652 0.0571304348 83.1895652 83.2395217 0.0092173913 83.2395217"></polygon>
    </defs>
    <g id="Axe2" stroke="none" stroke-width="1" fill="none" fill-rule="evenodd">
        <g id="Page-1">
            <path d="M25.9774783,110.378522 C23.5922609,112.763739 19.7244348,112.763739 17.3383478,110.378522 L9.93486957,102.974174 C7.54965217,100.588957 7.54791304,96.7202609 9.934,94.3350435 L68.5566087,35.7124348 C70.9418261,33.3272174 74.8096522,33.3272174 77.1948696,35.7124348 L84.600087,43.1176522 C86.9861739,45.5037391 86.9861739,49.3706957 84.600087,51.755913 L25.9774783,110.378522 Z" id="Fill-1" fill="#603E2A"></path>
            <g id="Group-7" transform="translate(45.217391, 49.239130)" fill="#FFB726">
                <path d="M14.0914783,21.9010435 C14.0914783,23.1149565 13.3749565,24.0993043 12.4897391,24.0993043 L12.2149565,24.0993043 C11.3297391,24.0993043 10.6132174,23.1149565 10.6132174,21.9010435 L10.6132174,2.82017391 C10.6132174,1.6053913 11.3297391,0.621043478 12.2149565,0.621043478 L12.4897391,0.621043478 C13.3749565,0.621043478 14.0914783,1.6053913 14.0914783,2.82017391 L14.0914783,21.9010435 Z" id="Fill-3"></path>
                <path d="M24.5262609,12.3944348 C24.5262609,11.3170435 23.3471304,11.0561739 22.268,11.0561739 L2.39321739,11.0561739 C1.31408696,11.0561739 0.178434783,11.3170435 0.178434783,12.3944348 L0.178434783,12.7335652 C0.178434783,13.8144348 1.31408696,14.5344348 2.39321739,14.5344348 L22.268,14.5344348 C23.3471304,14.5344348 24.5262609,13.8144348 24.5262609,12.7335652 L24.5262609,12.3944348 Z" id="Fill-5"></path>
            </g>
            <g id="Group-12" transform="translate(32.173913, 64.021739)" fill="#FFB726">
                <path d="M13.221913,22.4173913 C13.221913,23.5991304 12.5436522,24.1 11.4645217,24.1 L10.9497391,24.1 C9.8706087,24.1 8.87408696,23.5991304 8.87408696,22.4173913 L8.87408696,2.81913043 C8.87408696,1.63652174 9.8706087,0.62173913 10.9497391,0.62173913 L11.4645217,0.62173913 C12.5436522,0.62173913 13.221913,1.63652174 13.221913,2.81913043 L13.221913,22.4173913 Z" id="Fill-8"></path>
                <path d="M1.82582609,11.0561739 C0.554521739,11.0561739 1.04756522,11.630087 1.04756522,12.8987826 L1.04756522,13.0187826 C1.04756522,14.2918261 0.170173913,15.404 1.44147826,15.404 L21.2275652,15.404 C22.4971304,15.404 23.6562609,14.2918261 23.6562609,13.0196522 L23.6562609,12.8987826 C23.6562609,11.630087 22.8545217,11.0561739 21.584087,11.0561739 L1.82582609,11.0561739 Z" id="Fill-10"></path>
            </g>
            <g id="Group-17" transform="translate(17.391304, 78.804348)" fill="#FFB726">
                <path d="M14.9610435,22.1447826 C14.9610435,23.223913 14.0862609,24.0995652 13.0062609,24.0995652 L12.568,24.0995652 C11.488,24.0995652 10.6132174,23.223913 10.6132174,22.1447826 L10.6132174,2.57608696 C10.6132174,1.49695652 11.488,0.621304348 12.568,0.621304348 L13.0062609,0.621304348 C14.0862609,0.621304348 14.9610435,1.49695652 14.9610435,2.57608696 L14.9610435,22.1447826 Z" id="Fill-13"></path>
                <path d="M23.6566957,10.8616522 C23.6566957,9.7833913 23.1410435,8.44773913 22.0627826,8.44773913 L2.18713043,8.44773913 C1.10713043,8.44773913 0.178434783,9.7833913 0.178434783,10.8616522 L0.178434783,11.199913 C0.178434783,12.279913 1.10713043,13.6651304 2.18713043,13.6651304 L22.0627826,13.6651304 C23.1410435,13.6651304 23.6566957,12.279913 23.6566957,11.199913 L23.6566957,10.8616522 Z" id="Fill-15"></path>
            </g>
            <g id="Group-20" transform="translate(0.000000, 90.108696)">
                <mask id="mask-2" fill="white">
                    <use xlink:href="#path-1"></use>
                </mask>
                <g id="Clip-19"></g>
                <path d="M25.1996522,25.2426087 C19.4344348,31.0069565 10.0883478,31.0052174 4.32226087,25.2426087 C-1.44034783,19.4773913 -1.44208696,10.1321739 4.32226087,4.36869565 C10.0883478,-1.39913043 19.4344348,-1.39913043 25.1996522,4.36608696 C30.964,10.1321739 30.9657391,19.4773913 25.1996522,25.2426087" id="Fill-18" fill="#FFB726" mask="url(#mask-2)"></path>
            </g>
            <path d="M22.6962609,112.847913 C18.3145217,117.231391 11.2093043,117.229652 6.82756522,112.846174 C2.44495652,108.464435 2.44321739,101.360087 6.82669565,96.9766087 C11.2093043,92.5957391 18.3145217,92.5957391 22.6962609,96.9766087 C27.0788696,101.360087 27.0797391,108.464435 22.6962609,112.847913" id="Fill-21" fill="#FFD47D"></path>
            <g id="Group-25" transform="translate(36.521739, 0.543478)">
                <mask id="mask-4" fill="white">
                    <use xlink:href="#path-3"></use>
                </mask>
                <g id="Clip-24"></g>
                <path d="M58.5683478,81.4493043 C56.1831304,83.8362609 52.3161739,83.8362609 49.9292174,81.4493043 L1.79878261,33.318 C-0.587304348,30.9310435 -0.587304348,27.0649565 1.79878261,24.6788696 L24.630087,1.84669565 C27.0161739,-0.539391304 30.8831304,-0.539391304 33.2674783,1.84669565 L81.4013913,49.9806087 C83.7857391,52.3658261 83.7857391,56.2327826 81.4013913,58.618 L58.5683478,81.4493043 Z" id="Fill-23" fill="#28D7CB" mask="url(#mask-4)"></path>
            </g>
            <path d="M107.123043,55.1509565 C106.271739,56.0022609 104.89087,56.0022609 104.037826,55.1509565 L65.1621739,16.2744348 C64.3108696,15.4222609 64.3108696,14.0422609 65.1621739,13.1892174 C66.0152174,12.337913 67.3943478,12.337913 68.2482609,13.1892174 L107.123043,52.0657391 C107.975217,52.917913 107.975217,54.2987826 107.123043,55.1509565" id="Fill-26" fill="#FAFCFB"></path>
            <path d="M99.3997391,63.4712174 C98.5475652,64.3233913 97.1666957,64.3233913 96.3145217,63.4712174 L57.438,24.5955652 C56.5858261,23.7425217 56.5858261,22.3625217 57.4371304,21.5068696 C58.291913,20.6581739 59.671913,20.6581739 60.5232174,21.5068696 L99.3997391,60.3868696 C100.251043,61.2373043 100.251043,62.6181739 99.3997391,63.4712174" id="Fill-28" fill="#FAFCFB"></path>
            <path d="M91.0786087,71.1953913 C90.2273043,72.0466957 88.8464348,72.0466957 87.9942609,71.1953913 L49.1186087,32.318 C48.2673043,31.4666957 48.2673043,30.0875652 49.1186087,29.231913 C49.9707826,28.3814783 51.3507826,28.3814783 52.2038261,29.231913 L91.0786087,68.1110435 C91.9307826,68.9623478 91.9307826,70.3423478 91.0786087,71.1953913" id="Fill-30" fill="#FAFCFB"></path>
            <path d="M93.2236522,24.621913 L70.3923478,1.78973913 C68.0062609,-0.596347826 64.1384348,-0.596347826 61.7532174,1.78973913 L38.9201739,24.621913 C36.5358261,27.0053913 36.5358261,30.874087 38.9201739,33.2610435 L54.9653913,49.3036522 L14.8653913,89.4053913 C11.1036522,89.4184348 7.34626087,90.8558261 4.47582609,93.7262609 C-1.07982609,99.2827826 -1.26417391,108.155826 3.89147826,113.952348 L93.2236522,24.621913 Z" id="Fill-32" fill="#FAFCFB" opacity="0.448652627"></path>
        </g>
    </g>
</svg>