<?xml version="1.0" encoding="UTF-8"?>
<svg width="120px" height="120px" viewBox="0 0 120 120" version="1.1" xmlns="http://www.w3.org/2000/svg" xmlns:xlink="http://www.w3.org/1999/xlink">
    <!-- Generator: Sketch 51.1 (57501) - http://www.bohemiancoding.com/sketch -->
    <title>Green button19</title>
    <desc>Created with Sketch.</desc>
    <defs>
        <polygon id="path-1" points="0 0 119.999873 0 119.999873 120 0 120"></polygon>
        <polygon id="path-3" points="0.000139195803 0.9173 110.2124 0.9173 110.2124 111 0.000139195803 111"></polygon>
    </defs>
    <g id="Green-button19" stroke="none" stroke-width="1" fill="none" fill-rule="evenodd">
        <g id="Page-1">
            <g id="Group-3">
                <mask id="mask-2" fill="white">
                    <use xlink:href="#path-1"></use>
                </mask>
                <g id="Clip-2"></g>
                <path d="M81.7967,118.125 C70.8987,120.625 49.1017,120.625 38.2027,118.125 C18.6477,113.64 6.3197,101.361 1.8747,81.797 C-0.6373,70.741 -0.6133,48.946 1.8747,38.203 C6.4017,18.657 18.6597,6.415 38.2027,1.875 C48.8957,-0.609 70.6897,-0.641 81.7967,1.875 C101.3637,6.308 113.4717,18.687 118.1247,38.203 C120.5767,48.488 120.6727,70.261 118.1247,81.797 C113.7977,101.388 101.3517,113.64 81.7967,118.125" id="Fill-1" fill="#62D31A" mask="url(#mask-2)"></path>
            </g>
            <g id="Group-6" transform="translate(0.000000, 9.000000)">
                <mask id="mask-4" fill="white">
                    <use xlink:href="#path-3"></use>
                </mask>
                <g id="Clip-5"></g>
                <path d="M91.6404,99.2813 C80.7424,101.7813 58.9454,101.7813 48.0464,99.2813 C28.4914,94.7963 16.1634,82.5173 11.7184,62.9533 C9.2064,51.8973 9.2304,30.1023 11.7184,19.3593 C13.3694,12.2293 16.0614,6.0843 19.7484,0.9173 C10.7534,7.3373 4.7494,16.7913 1.8744,29.2033 C-0.6126,39.9463 -0.6366,61.7413 1.8744,72.7973 C6.3194,92.3613 18.6474,104.6393 38.2024,109.1253 C49.1014,111.6253 70.8984,111.6253 81.7964,109.1253 C94.2364,106.2713 103.7864,100.2623 110.2124,91.2333 C105.0054,94.9403 98.8054,97.6373 91.6404,99.2813" id="Fill-4" fill="#5BBF1B" mask="url(#mask-4)"></path>
            </g>
            <path d="M92.5218,36.6299 C92.5218,30.8979 87.7668,26.2739 81.8998,26.2499 C73.8138,26.2179 58.7898,28.5229 51.6298,30.4849 C45.9818,32.0339 41.0088,35.1329 41.0088,40.8649 L41.0088,61.7509 C40.0508,61.5579 39.0588,61.4549 38.0418,61.4549 C29.9758,61.4549 23.4378,67.8449 23.4378,75.7279 C23.4378,83.6089 29.9758,89.9999 38.0418,89.9999 C46.1078,89.9999 52.6468,83.6089 52.6468,75.7279 C52.6468,75.4349 52.6648,75.1509 52.6468,74.8619 L52.6468,48.9979 L80.8838,44.7629 L80.8838,57.5159 C79.9258,57.3219 78.9338,57.2199 77.9168,57.2199 C69.8508,57.2199 63.3118,63.6089 63.3118,71.4919 C63.3118,79.3739 69.8508,85.7649 77.9168,85.7649 C85.9828,85.7649 91.9138,79.5299 92.5218,71.6699 C93.1768,63.1989 92.5218,45.1299 92.5218,36.6299" id="Fill-7" fill="#FFFFFF"></path>
        </g>
    </g>
</svg>