<?xml version="1.0" encoding="UTF-8"?>
<svg width="120px" height="120px" viewBox="0 0 120 120" version="1.1" xmlns="http://www.w3.org/2000/svg" xmlns:xlink="http://www.w3.org/1999/xlink">
    <!-- Generator: Sketch 51.1 (57501) - http://www.bohemiancoding.com/sketch -->
    <title>Bird16</title>
    <desc>Created with Sketch.</desc>
    <defs>
        <polygon id="path-1" points="8.76058097e-06 0.297981691 76.9124809 0.297981691 76.9124809 119.577445 8.76058097e-06 119.577445"></polygon>
        <polygon id="path-3" points="0.245935064 0.0842548689 42.4097486 0.0842548689 42.4097486 57.8851432 0.245935064 57.8851432"></polygon>
        <polygon id="path-5" points="0.337790164 0.140366197 42.4097486 0.140366197 42.4097486 57.8851432 0.337790164 57.8851432"></polygon>
    </defs>
    <g id="Bird16" stroke="none" stroke-width="1" fill="none" fill-rule="evenodd">
        <g id="Group-2" transform="translate(22.000000, 0.000000)">
            <path d="M61.4820596,96.4199577 C61.2758847,96.2847465 61.073076,96.1347465 60.849229,96.0308028 L60.1844202,95.6885493 C59.9622563,95.5693944 59.724524,95.4954507 59.4901579,95.4037606 C59.2541087,95.3200986 59.0205842,95.2157324 58.777382,95.1498169 C58.5346005,95.0800986 58.2876115,95.0243239 58.0410432,94.9613662 C57.7953164,94.8899577 57.5415951,94.8726338 57.2899776,94.8261549 C57.0375186,94.7847465 56.784218,94.743338 56.5288137,94.7323521 C56.2734093,94.7167183 56.0159011,94.6943239 55.7592344,94.695169 L54.9867098,94.712493 L54.2162891,94.7893944 C53.9596224,94.8181268 53.7059011,94.8696761 53.4504967,94.9144648 C53.1955131,94.9605211 52.9459995,95.0327746 52.6926989,95.0919296 C52.6371579,95.1071408 52.5828792,95.1261549 52.527759,95.1422113 C52.5290213,95.1384085 52.5307044,95.1346056 52.5319667,95.1308028 C52.6068628,94.9672817 52.6804967,94.7864366 52.7797973,94.6136197 C52.9678792,94.2595352 53.219076,93.9041831 53.5123492,93.5758732 C53.6533055,93.4043239 53.8262399,93.267 53.9823437,93.1085493 C54.1498082,92.9661549 54.3282126,92.8398169 54.4969393,92.7067183 C54.6745022,92.588831 54.8554311,92.487 55.0249995,92.3817887 C55.194147,92.2736197 55.3725514,92.2123521 55.5299175,92.1329155 C55.6893874,92.0602394 55.8353929,91.9837606 55.9729831,91.9448873 C56.1093109,91.8984085 56.2283874,91.8578451 56.3268464,91.8244648 C56.5250268,91.7568592 56.6382126,91.718831 56.6382126,91.718831 C56.6382126,91.718831 56.5191361,91.7272817 56.3108574,91.7420704 C56.2056661,91.7492535 56.0781743,91.7585493 55.9317481,91.7695352 C55.7827973,91.7729155 55.6212235,91.8096761 55.4411361,91.8409437 C55.2635732,91.8785493 55.0607645,91.8958732 54.8600596,91.9600986 C54.6580923,92.0217887 54.4392945,92.0796761 54.2175514,92.1561549 C54.003382,92.2478451 53.7736443,92.3353099 53.548535,92.4443239 C53.333524,92.5689718 53.0970541,92.6779859 52.8875131,92.8275634 C52.5736224,93.0346056 52.2744585,93.2712254 52.0039066,93.525169 C52.015688,93.0857324 52.0304148,92.6467183 52.0388301,92.2072817 C52.0670213,90.6764366 52.0741743,89.1447465 52.0464038,87.6122113 C52.0211579,86.0796761 51.9706661,84.5467183 51.8730486,83.012493 C51.8381251,82.2455915 51.7661743,81.4774225 51.7081087,80.7100986 C51.6353164,79.9423521 51.5604202,79.1746056 51.4514421,78.4055915 C51.3003874,79.167 51.1834148,79.9296761 51.0689667,80.6923521 C50.9692454,81.4554507 50.855218,82.2185493 50.778218,82.9820704 C50.5968683,84.5086901 50.463065,86.037 50.3540869,87.5653099 C50.2425842,89.0944648 50.1660049,90.6236197 50.1100432,92.1540423 C50.0831142,92.9192535 50.0587098,93.6840423 50.0456661,94.4496761 C50.027994,95.1185493 50.0246279,95.7874225 50.0187372,96.4567183 C49.8895623,96.4639014 49.7380869,96.4693944 49.5680978,96.5040423 C49.3901142,96.5298169 49.1927754,96.5910845 48.9882836,96.6667183 C48.8885623,96.7123521 48.7850541,96.7600986 48.677759,96.8095352 C48.5763546,96.8674225 48.4762126,96.9362958 48.3743874,97.0034789 C48.2683546,97.0664366 48.1825186,97.1568592 48.088688,97.2400986 C47.9969612,97.3258732 47.9018683,97.4103803 47.8299175,97.5130563 C47.7546005,97.611507 47.6784421,97.7120704 47.6010213,97.8134789 C47.542535,97.9208028 47.4827863,98.0293944 47.4226169,98.138831 C47.2926005,98.3530563 47.2370596,98.5879859 47.1516443,98.8098169 C47.075065,99.0341831 47.0456115,99.2636197 46.9946989,99.4820704 C46.9475732,99.7013662 46.9450486,99.9189718 46.9206443,100.125592 C46.8945568,100.332211 46.8941361,100.530803 46.8975022,100.718831 C46.8983437,100.905169 46.8991852,101.081366 46.9000268,101.244042 C46.9484148,101.891366 46.9896497,102.312211 46.9896497,102.312211 C46.9896497,102.312211 47.0708574,101.889254 47.2025568,101.274042 C47.2463164,101.123197 47.2934421,100.959676 47.3435131,100.786859 C47.3906388,100.614465 47.4436552,100.434465 47.5214967,100.258268 C47.5976552,100.082493 47.6540377,99.8927746 47.7491306,99.7212254 C47.8471689,99.5526338 47.9245896,99.3696761 48.0356716,99.2167183 C48.153065,99.0696761 48.2435295,98.901507 48.3764913,98.7912254 L48.5544749,98.6137606 C48.6188519,98.5693944 48.6819667,98.5254507 48.7442399,98.4827746 C48.8010432,98.4337606 48.8683656,98.4100986 48.9289557,98.3822113 C48.9908082,98.3564366 49.0438246,98.3196761 49.105677,98.3120704 C49.1629011,98.2968592 49.2184421,98.282493 49.2718792,98.2689718 C49.3257372,98.2639014 49.377912,98.2592535 49.4279831,98.2546056 C49.5281251,98.2562958 49.6156443,98.2541831 49.6939066,98.2727746 C49.7709066,98.2808028 49.8348628,98.3057324 49.8857754,98.3184085 C49.9329011,98.3386901 49.9741361,98.3526338 49.9648792,98.3593944 C49.9556224,98.361507 50.0014858,98.3775634 49.999382,98.3771408 L49.9985404,98.450662 L51.4421852,97.5679859 C51.5780923,97.4847465 51.7867918,97.3617887 51.9778191,97.2696761 C52.171371,97.1678451 52.3762836,97.0803803 52.5795131,96.9899577 C52.9914421,96.8192535 53.4126279,96.6599577 53.8451743,96.5340423 C54.0635514,96.4795352 54.2781415,96.4043239 54.4986224,96.3561549 L55.1630104,96.2137606 L55.837076,96.1093944 C56.0630268,96.0755915 56.2906607,96.0722113 56.5191361,96.0460141 C56.7476115,96.0160141 56.9765077,96.015169 57.2066661,96.0134789 C57.4359831,96.0177042 57.6699284,95.991507 57.8992454,96.0193944 C58.1302454,96.0354507 58.3608246,96.0582676 58.5956115,96.0671408 C58.8299776,96.0781268 59.058453,96.1279859 59.2923984,96.1562958 C59.5246607,96.1930563 59.7636552,96.2129155 59.9908683,96.278831 L60.6910213,96.4322113 C60.9304366,96.4736197 61.150076,96.5682676 61.3852836,96.6299577 L62.0896443,96.8365775 C61.8914639,96.6937606 61.6869721,96.5585493 61.4820596,96.4199577" id="Fill-1" fill="#BB4345"></path>
            <path d="M46.8446541,94.9060141 C46.6384792,94.7708028 46.4356705,94.6208028 46.2118235,94.5168592 L45.5470148,94.1746056 C45.3248508,94.0554507 45.0866978,93.981507 44.8527525,93.8898169 C44.6162825,93.8065775 44.3831787,93.7017887 44.1395557,93.6358732 C43.8967743,93.5661549 43.650206,93.5103803 43.4032169,93.4474225 C43.1574902,93.3760141 42.9037689,93.3586901 42.6525721,93.3122113 C42.4001131,93.2708028 42.1468126,93.2293944 41.8909874,93.2184085 C41.6355831,93.2027746 41.3784956,93.1808028 41.121829,93.1812254 L40.3493044,93.1985493 L39.5788836,93.2758732 C39.3217962,93.3041831 39.0684956,93.3561549 38.8130913,93.4009437 C38.5576869,93.4465775 38.3081732,93.5192535 38.0548727,93.5779859 C37.9997525,93.5931972 37.945053,93.6126338 37.8899328,93.6286901 C37.8911951,93.6244648 37.8928781,93.6210845 37.8941404,93.6172817 C37.9690366,93.453338 38.0426705,93.2729155 38.141971,93.1000986 C38.330053,92.7455915 38.5812497,92.390662 38.874523,92.0619296 C39.0154792,91.8908028 39.1884137,91.7530563 39.3445175,91.5950282 C39.511982,91.4522113 39.6903863,91.3258732 39.8591131,91.1927746 C40.036676,91.0753099 40.2176049,90.9730563 40.3871732,90.8678451 C40.5563208,90.7600986 40.7347251,90.6984085 40.8920913,90.6189718 C41.0515612,90.5462958 41.1975667,90.4702394 41.3351568,90.4309437 C41.4714847,90.3844648 41.5905612,90.3439014 41.6890202,90.3105211 C41.8872005,90.243338 42.0003863,90.2048873 42.0003863,90.2048873 C42.0003863,90.2048873 41.8813098,90.213338 41.6730311,90.2281268 C41.5678399,90.2357324 41.4403481,90.2450282 41.2939219,90.2555915 C41.144971,90.2593944 40.9833973,90.2961549 40.8033098,90.327 C40.625747,90.3650282 40.4229383,90.3823521 40.2222333,90.4465775 C40.0202661,90.5078451 39.8014683,90.5661549 39.5797251,90.6422113 C39.3655557,90.7343239 39.135818,90.8217887 38.9107087,90.9308028 C38.6956978,91.0554507 38.4592279,91.1644648 38.2496869,91.3136197 C37.9357962,91.5210845 37.6366322,91.7577042 37.3660803,92.0112254 C37.3778617,91.5722113 37.3930093,91.1327746 37.4014246,90.693338 C37.4291951,89.162493 37.4363481,87.6312254 37.4085776,86.0986901 C37.3837525,84.5661549 37.3332607,83.0331972 37.2356432,81.4989718 C37.2007197,80.7320704 37.1287689,79.9639014 37.0707033,79.1965775 C36.9979109,78.428831 36.9230148,77.6610845 36.8140366,76.8920704 C36.662982,77.6534789 36.5460093,78.4161549 36.4315612,79.178831 C36.3318399,79.9419296 36.2178126,80.7050282 36.1408126,81.4685493 C35.9594628,82.995169 35.8256596,84.5230563 35.7166814,86.0517887 C35.6051787,87.5805211 35.5285995,89.1100986 35.4726377,90.6400986 C35.445288,91.4053099 35.4208836,92.1705211 35.4082607,92.9361549 C35.3901678,93.6046056 35.3872224,94.2739014 35.3813317,94.9427746 C35.2517361,94.9499577 35.0998399,94.9558732 34.9302716,94.9905211 C34.7518672,95.0162958 34.5549492,95.0775634 34.3500366,95.1531972 C34.2507361,95.198831 34.1468071,95.2465775 34.0399328,95.2955915 C33.9381077,95.3539014 33.8379656,95.4223521 33.7361404,95.4899577 C33.6305284,95.5529155 33.5442716,95.643338 33.4508617,95.7265775 C33.3587142,95.8119296 33.2636213,95.8964366 33.1920913,95.9991127 C33.1167743,96.0975634 33.0401951,96.1981268 32.9627743,96.2995352 C32.904288,96.4068592 32.8445393,96.5158732 32.7843699,96.6248873 C32.6543536,96.8391127 32.5992333,97.0744648 32.5133973,97.2962958 C32.436818,97.5202394 32.4073645,97.7496761 32.3564519,97.9681268 C32.3093262,98.1874225 32.3068016,98.4054507 32.2823973,98.6120704 C32.2563098,98.8182676 32.2558891,99.0168592 32.2592552,99.2048873 C32.2600967,99.3912254 32.2609383,99.5674225 32.2617798,99.7300986 C32.3101678,100.377845 32.3514027,100.798268 32.3514027,100.798268 C32.3514027,100.798268 32.4326104,100.37531 32.5643098,99.7600986 C32.6080694,99.6092535 32.6551951,99.4457324 32.7052661,99.2729155 C32.7523918,99.1005211 32.8054082,98.9209437 32.8832497,98.7447465 C32.9594082,98.5689718 33.0157907,98.378831 33.1108836,98.2072817 C33.2089219,98.0391127 33.2863426,97.8557324 33.3978454,97.7027746 C33.514818,97.5561549 33.6052825,97.3879859 33.7382443,97.2772817 L33.9162279,97.1002394 C33.9806049,97.0558732 34.0437197,97.0119296 34.1059929,96.968831 C34.1627962,96.9202394 34.2305393,96.8961549 34.2907087,96.8686901 C34.3525612,96.8429155 34.4055776,96.8061549 34.4674301,96.7981268 C34.5246541,96.783338 34.5801951,96.7689718 34.6336322,96.7554507 C34.6874902,96.7503803 34.739665,96.7457324 34.7897361,96.7410845 C34.8898781,96.7423521 34.9773973,96.7402394 35.0552388,96.7592535 C35.1330803,96.7672817 35.1966158,96.7922113 35.2475284,96.8048873 C35.2946541,96.825169 35.3358891,96.8391127 35.3266322,96.8458732 C35.3173754,96.8479859 35.3661842,96.8648873 35.3619765,96.8640423 L35.361135,96.9367183 L36.8047798,96.0540423 C36.9406869,95.9712254 37.1493863,95.8478451 37.3399929,95.7557324 C37.5339656,95.6539014 37.7388781,95.5668592 37.9416869,95.4760141 C38.3540366,95.3053099 38.7748016,95.1464366 39.2077689,95.0205211 C39.4257251,94.9660141 39.6403153,94.8903803 39.8612169,94.8422113 L40.5256049,94.6998169 L41.1996705,94.5954507 C41.4256213,94.5616479 41.6532552,94.5582676 41.8813098,94.532493 C42.110206,94.5020704 42.3391022,94.5012254 42.5688399,94.4999577 C42.7985776,94.5037606 43.032523,94.4775634 43.2618399,94.5054507 C43.4928399,94.521507 43.7234191,94.5443239 43.958206,94.5531972 C44.1925721,94.5641831 44.4210475,94.6140423 44.6549929,94.6423521 C44.8872552,94.6791127 45.1262497,94.6989718 45.3534628,94.7648873 L46.0531951,94.9186901 C46.2930311,94.9596761 46.5126705,95.0543239 46.7478781,95.1164366 L47.4522388,95.3226338 C47.2540585,95.1802394 47.0495667,95.0450282 46.8446541,94.9060141" id="Fill-3" fill="#BB4345"></path>
            <polygon id="Fill-5" fill="#BB4345" points="60.9367902 5.53132394 76.1461836 1.66597183 66.447129 15.762169"></polygon>
            <g id="Group-9" transform="translate(0.000000, 0.124648)">
                <mask id="mask-2" fill="white">
                    <use xlink:href="#path-1"></use>
                </mask>
                <g id="Clip-8"></g>
                <path d="M72.4232126,32.5944085 C72.3950213,32.5179296 72.3659885,32.4418732 72.3369557,32.3658169 C69.9499557,26.0624366 70.1906333,19.0373662 67.8755842,12.7821549 C67.410218,11.5255352 66.8093656,10.3149718 66.0086497,9.17328169 C61.7366224,3.07525352 55.081382,-0.580943662 47.5240213,0.480464789 C34.8480541,2.2614507 29.0288738,17.4621549 21.5926934,23.7139859 C14.1569339,29.9662394 -3.15544317,52.3770845 6.95091202,73.9846901 C8.98699399,78.3363803 12.0459557,81.6346901 15.7537372,84.0262394 C9.24576448,92.7097606 0.431157923,104.952718 0.0440540984,108.048634 C-0.464230055,112.117648 3.48170437,117.303845 9.03411967,112.482718 C8.89190109,113.043423 8.81742568,113.504408 8.82752404,113.842014 C8.96090656,118.464972 14.9134694,123.706099 20.2087973,114.333845 C20.2302563,114.612718 20.264759,114.854408 20.3177754,115.044549 C21.6671689,119.845394 29.7222945,123.856944 32.0667973,110.454127 C33.0619066,104.765958 33.7157754,96.3765211 34.1285459,89.1355352 C46.4262454,89.4820141 59.5604257,85.2013099 67.2423328,78.7428592 C76.0443164,71.3408873 77.7299011,58.7958169 76.6018301,47.9970845 C76.0148628,42.3722958 74.3881852,37.7907465 72.4232126,32.5944085" id="Fill-7" fill="#61ABA9" mask="url(#mask-2)"></path>
            </g>
            <path d="M53.5606951,12.1497465 C49.2932962,14.0663662 46.0592962,17.933831 48.0907497,22.1363662 C49.6913399,25.4460845 52.7385202,23.9414366 54.9803563,22.3007324 C56.9979246,20.8248169 58.7382087,19.0134085 60.7107552,17.4817183 C61.699553,16.7139718 68.4902798,14.4842535 67.4505694,12.5253803 C65.4149082,8.68876056 57.4818044,10.3890423 53.5606951,12.1497465" id="Fill-10" fill="#D8B129"></path>
            <path d="M61.5897333,15.4524507 C61.5089464,18.2061127 59.2208262,20.3720282 56.4787005,20.2909014 C53.7365749,20.2089296 51.5797333,17.9107606 51.660941,15.1575211 C51.7421486,12.4042817 54.0302689,10.2383662 56.7723945,10.3199155 C59.5145202,10.4014648 61.670941,12.6992113 61.5897333,15.4524507" id="Fill-12" fill="#FFFFFF"></path>
            <path d="M60.248124,15.4126479 C60.1887962,17.4218028 58.5196213,19.002507 56.5184628,18.9429296 C54.5173044,18.8833521 52.9436432,17.2067324 53.002971,15.1971549 C53.0622989,13.1884225 54.7314738,11.6077183 56.7326322,11.6672958 C58.7337907,11.7268732 60.3074519,13.4039155 60.248124,15.4126479" id="Fill-14" fill="#474029"></path>
            <path d="M24.8122191,45.980831 C28.300782,36.0757606 25.0693066,27.8046338 22.3364377,23.1778732 C22.0902902,23.4068873 21.8424596,23.6287183 21.5929459,23.8387183 C14.1571863,30.0909718 -3.15519071,52.5018169 6.95116448,74.1094225 C8.77223552,78.002662 11.4137984,81.0495634 14.6044596,83.3612535 C13.6076672,73.0459014 19.6401754,60.6651972 24.8122191,45.980831" id="Fill-16" fill="#FFA69D"></path>
            <g id="Group-20" transform="translate(34.502732, 31.392254)">
                <mask id="mask-4" fill="white">
                    <use xlink:href="#path-3"></use>
                </mask>
                <g id="Clip-19"></g>
                <path d="M42.0991399,16.7295211 C41.5117519,11.1047324 39.8854951,6.5231831 37.9205224,1.32684507 C37.8923311,1.2503662 37.8632984,1.17430986 37.8342656,1.09825352 C37.7164514,0.787690141 37.6099978,0.474169014 37.5048066,0.160647887 C29.8990579,-0.31428169 12.4600306,0.863323944 5.5889377,20.3109296 C0.19767541,35.5703662 -0.127575956,49.3686761 0.453921311,57.8819155 C12.5101016,58.0188169 25.2298284,53.7888169 32.7396426,47.4752958 C41.5416262,40.0733239 43.2272109,27.5282535 42.0991399,16.7295211" id="Fill-18" fill="#FFA69D" mask="url(#mask-4)"></path>
            </g>
            <path d="M9.05881858,71.8305634 C0.619534426,53.7870423 11.2985508,35.1866197 19.3810262,25.8992958 C11.2728842,34.1040845 -2.24924153,54.4385915 6.95120656,74.1092958 C8.7722776,78.0025352 11.4138404,81.0494366 14.6045016,83.3615493 C14.4774306,82.0474648 14.4660699,80.6991549 14.5506437,79.3174648 C12.3231137,77.2812676 10.4502885,74.8047887 9.05881858,71.8305634" id="Fill-21" fill="#DE9089"></path>
            <g id="Group-25" transform="translate(34.502732, 31.392254)">
                <mask id="mask-6" fill="white">
                    <use xlink:href="#path-5"></use>
                </mask>
                <g id="Clip-24"></g>
                <path d="M42.0991399,16.7295211 C41.5117519,11.1047324 39.8854951,6.5231831 37.9205224,1.32684507 C37.8923311,1.2503662 37.8632984,1.17430986 37.8342656,1.09825352 C37.7164514,0.787690141 37.6099978,0.474169014 37.5048066,0.160647887 C37.3899377,0.153464789 37.2725443,0.146704225 37.1538885,0.140366197 C38.9657027,4.97459155 40.4417464,9.34825352 40.9946317,14.6472676 C42.1227027,25.4464225 40.437118,37.991493 31.6355552,45.3930423 C24.3302328,51.5345915 12.0956481,55.7037465 0.337790164,55.799662 C0.369768306,56.5230423 0.408478689,57.2202254 0.453921311,57.8819155 C12.5101016,58.0188169 25.2298284,53.7888169 32.7396426,47.4752958 C41.5416262,40.0733239 43.2272109,27.5282535 42.0991399,16.7295211" id="Fill-23" fill="#DE9089" mask="url(#mask-6)"></path>
            </g>
            <path d="M49.4177585,71.5180141 C49.4177585,71.5180141 49.4573104,71.7774507 49.5271574,72.230831 C49.6041574,72.6766056 49.7143978,73.3061831 49.9066874,74.0059014 C50.1006601,74.6984366 50.3884634,75.4809718 50.8559333,76.053507 C51.091141,76.3370282 51.3583268,76.5605493 51.6667475,76.7232254 C51.825376,76.7997042 51.9907366,76.862662 52.1699825,76.9133662 C52.2612885,76.935338 52.3475454,76.9670282 52.4464251,76.977169 L52.5903268,77.0016761 L52.6260918,77.0080141 L52.6349279,77.0097042 C52.6547038,77.0118169 52.4750372,76.995338 52.554141,77.0020986 L52.5600317,77.0025211 L52.5835945,77.0033662 L52.6791082,77.0067465 L53.0599005,77.0287183 C53.1873923,77.037169 53.3266656,77.049 53.3838896,77.0236479 C53.542518,76.977169 53.6826328,77.0198451 53.8728186,76.9429437 C54.0533268,76.8922394 54.2384634,76.8537887 54.409294,76.7633662 C54.4963923,76.7236479 54.5864361,76.6911127 54.6726929,76.6484366 C54.7539005,76.5939296 54.8393158,76.5457606 54.9230481,76.4959014 C55.2600809,76.2981549 55.5689224,76.035338 55.8563049,75.7682958 C56.1424251,75.4970282 56.4020372,75.2097042 56.6355617,74.9304085 C56.867824,74.6502676 57.0761027,74.379 57.2561902,74.1313944 C57.4354361,73.8833662 57.5978514,73.6628028 57.721977,73.4743521 C57.9765399,73.0928028 58.1221246,72.8743521 58.1221246,72.8743521 C58.1221246,72.8743521 58.126753,72.9419577 58.1238077,73.0670282 C58.1170754,73.190831 58.1191792,73.3788592 58.0850973,73.6087183 C58.0329224,74.073507 57.9121628,74.7373099 57.6087913,75.5016761 C57.455212,75.8823803 57.2570317,76.2892817 56.9911082,76.6982958 C56.719294,77.102662 56.3927803,77.523507 55.9543432,77.8847746 C55.845365,77.9756197 55.7363869,78.069 55.621518,78.1577324 C55.5003377,78.2388592 55.369059,78.3115352 55.2398842,78.3884366 C55.1069224,78.4598451 54.984059,78.5506901 54.8384743,78.6039296 L54.3991956,78.7628028 C54.1231738,78.8836479 53.7453268,78.9157606 53.4066109,78.9601268 C53.2134798,78.9880141 53.0986109,78.9766056 52.9723814,78.9719577 L52.5911683,78.9575915 L52.4960754,78.9520986 L52.4725126,78.9504085 L52.3736328,78.9415352 L52.358906,78.939 L52.3012612,78.9284366 L52.0694197,78.884493 C51.9158404,78.8595634 51.7609989,78.8088592 51.6078404,78.764493 C51.2998404,78.6736479 51.0044634,78.524493 50.7233923,78.3605493 C50.1633541,78.0170282 49.7190262,77.5218169 49.4244907,77.0109718 C49.1223814,76.4984366 48.969223,75.9694225 48.8779169,75.4818169 C48.789977,74.9920986 48.773988,74.5357606 48.7908186,74.1229437 C48.8282667,73.2964648 48.9974142,72.6440704 49.1434197,72.1995634 C49.2885836,71.7550563 49.4177585,71.5180141 49.4177585,71.5180141" id="Fill-26" fill="#BB4345"></path>
            <path d="M71.4816246,49.7822113 C71.452171,50.457 71.3705426,51.1246056 71.2539907,51.7778451 C71.1391219,52.430662 70.954406,53.067 70.7069962,53.6496761 C70.4600071,54.2298169 70.0956246,54.747 69.6386738,55.023338 C69.414406,55.160662 69.1615262,55.2485493 68.9157995,55.2747465 C68.8547885,55.2768592 68.8101874,55.2857324 68.7382366,55.2878451 L68.4870399,55.281507 C68.4020454,55.262493 68.2341601,55.2536197 68.1209743,55.2105211 C67.1132421,54.9354507 66.4248705,53.8630563 65.985171,52.718831 C65.7621656,52.1403803 65.5955426,51.5277042 65.4592148,50.9061549 C65.3897885,50.5955915 65.3296191,50.2816479 65.2795481,49.9664366 C65.2307393,49.6567183 65.1861383,49.323338 65.1621546,49.0385493 L64.914324,46.0453099 L63.4917175,48.7495352 C63.3617011,48.9975634 63.1891874,49.293338 63.0196191,49.5574225 C62.8471055,49.827 62.6649142,50.090662 62.4734661,50.3446056 C62.0905699,50.8520704 61.6769579,51.3265775 61.2275809,51.7313662 C60.7769415,52.1302394 60.2922202,52.4623521 59.7978213,52.6592535 C59.551253,52.761507 59.3021601,52.827 59.0547503,52.8527746 C58.9339907,52.8739014 58.8006082,52.8675634 58.6912093,52.8705211 C58.6411383,52.8658732 58.591488,52.863338 58.5414169,52.863338 C58.4820891,52.8595352 58.3794224,52.8384085 58.3007393,52.8274225 C58.0848869,52.7881268 57.8349525,52.7205211 57.6468705,52.6085493 C57.4491109,52.4999577 57.2723896,52.3600986 57.114182,52.1830563 C56.8011328,51.8264366 56.5676082,51.3181268 56.415712,50.7523521 C56.2659197,50.1827746 56.197335,49.5616479 56.170406,48.9291127 C56.1582038,48.6126338 56.1590454,48.2927746 56.1720891,47.9729155 C56.184712,47.6593944 56.2124825,47.3179859 56.2490891,47.0386901 L56.6761656,43.7547465 L54.7044607,46.3482676 C54.5336301,46.5734789 54.3156738,46.8312254 54.1061328,47.0631972 C53.8923842,47.2993944 53.6710617,47.528831 53.4430071,47.7489718 C52.9868978,48.1879859 52.5126956,48.6075634 52.0031492,48.945169 C51.4973896,49.287 50.9579689,49.551507 50.4202311,49.6702394 C50.1513623,49.7293944 49.8867011,49.7467183 49.6275098,49.7226338 C49.4991765,49.7175634 49.3641109,49.6812254 49.2496628,49.653338 L49.0838814,49.6039014 L48.8549852,49.4953099 C48.651335,49.3917887 48.4199142,49.2257324 48.2764333,49.0372817 C48.1232749,48.8454507 48.0264989,48.608831 47.9764279,48.3384085 C47.8804934,47.7912254 47.9945208,47.1498169 48.1922803,46.538831 C48.3992967,45.9257324 48.665641,45.3130563 48.9866847,44.7257324 C49.3056246,44.1371408 49.654018,43.5574225 50.0394388,42.9984085 C49.5479852,43.467 49.0906137,43.9761549 48.6732148,44.5208028 C48.2587612,45.0675634 47.8645044,45.6413662 47.560712,46.2819296 C47.2623896,46.9208028 47.0086683,47.6243239 47.0334934,48.435169 C47.0499033,48.8374225 47.1710836,49.263338 47.399559,49.6309437 C47.6343459,50.0044648 47.931406,50.2820704 48.3050454,50.5229155 L48.5217393,50.6547465 L48.8242694,50.7950282 C49.0279197,50.8740423 49.2172639,50.9412254 49.4234388,50.9779859 C49.8282148,51.0616479 50.2477175,51.0760141 50.6423951,51.0168592 C51.4359579,50.9040423 52.1487339,50.6027746 52.7891383,50.2393944 C53.111865,50.0581268 53.4173404,49.8574225 53.7110344,49.6448873 C53.9260454,49.4881268 54.1351656,49.3254507 54.3383951,49.1568592 C54.3442858,49.8337606 54.4162366,50.5212254 54.5778104,51.2175634 C54.7650508,51.9768592 55.0713678,52.7737606 55.6617011,53.4582676 C55.9558158,53.7962958 56.3176738,54.0946056 56.7195044,54.3164366 C57.1268049,54.5462958 57.5437831,54.6747465 57.9986301,54.7567183 C58.0890945,54.7698169 58.1543131,54.7841831 58.2653951,54.795169 L58.6280945,54.818831 C58.8590945,54.8184085 59.0703186,54.8175634 59.2878541,54.7841831 C59.7199798,54.7334789 60.1382202,54.6164366 60.5227995,54.4554507 C61.3012148,54.1389718 61.9462475,53.6564366 62.5075481,53.1358732 C63.0419197,52.6271408 63.5085481,52.0774225 63.9150071,51.4964366 C64.0984607,52.1150282 64.3202038,52.7260141 64.6004333,53.3226338 C64.9122202,53.9762958 65.2942749,54.6185493 65.8177066,55.1889718 C66.081947,55.472493 66.3903678,55.7289718 66.739182,55.9355915 C67.0854716,56.1460141 67.4843568,56.2900986 67.8878705,56.3530563 C67.9888541,56.3716479 68.0898377,56.3864366 68.1912421,56.3877042 C68.3031656,56.3902394 68.370488,56.4016479 68.517335,56.3948873 L68.7681109,56.3754507 C68.8627831,56.3644648 68.9831219,56.3412254 69.0883131,56.3222113 C69.5006628,56.2300986 69.8801929,56.0522113 70.1957667,55.7931972 C70.827335,55.268831 71.1551109,54.5585493 71.3486628,53.8803803 C71.5472639,53.1946056 71.6086956,52.4986901 71.625947,51.8150282 C71.6394115,51.1305211 71.5910235,50.4493944 71.4816246,49.7822113" id="Fill-28" fill="#BB4345"></path>
            <path d="M64.6856803,63.8490423 C64.5809098,64.1317183 64.4622541,64.4072113 64.3259262,64.6691831 C64.1883361,64.9298873 64.0465383,65.1850986 63.8807568,65.4158028 C63.8050191,65.5370704 63.7170792,65.646507 63.6236694,65.7496056 C63.5357295,65.8573521 63.4456858,65.9608732 63.3409153,66.0458028 C63.1473634,66.2334085 62.9357186,66.3842535 62.7181831,66.5084789 C62.6028934,66.5587606 62.4951776,66.6187606 62.381571,66.6639718 L62.0285492,66.756507 C61.9132596,66.7839718 61.806806,66.7704507 61.701194,66.785662 C61.6443907,66.7886197 61.6048388,66.8008732 61.5362541,66.8000282 L61.309041,66.7839718 L61.0818279,66.767493 L60.9678005,66.7594648 L60.9109973,66.7552394 L60.9076311,66.7548169 C60.8929044,66.7543944 61.0203962,66.7598873 60.965276,66.7569296 L60.959806,66.7552394 L60.9480246,66.7522817 L60.9253033,66.7459437 L60.567653,66.6508732 C60.4456311,66.6327042 60.3370738,66.5727042 60.2264126,66.5241127 C60.1186967,66.467493 59.9996202,66.443831 59.9011612,66.366507 L59.5969481,66.1670704 C59.4963852,66.0994648 59.4084454,66.0060845 59.3133525,65.9291831 L59.1732377,65.8091831 L59.0465874,65.6659437 C58.9641175,65.5679155 58.8715492,65.4855211 58.796653,65.3781972 C58.6430738,65.1681972 58.4852869,64.9624225 58.3540082,64.7270704 C58.2105273,64.5052394 58.0973415,64.253831 57.978265,64.0108732 C57.8612923,63.7632676 57.7561011,63.5084789 57.6605874,63.2481972 C57.5663361,62.9866479 57.4838661,62.7204507 57.4047623,62.4534085 C57.3315492,62.1939718 57.2549699,61.8981972 57.2145765,61.6729859 L56.7841339,59.262 L55.4191721,61.3624225 C55.3775164,61.4266479 55.2862104,61.5648169 55.2028989,61.6679155 C55.1187459,61.7798873 55.0249153,61.8889014 54.9331885,61.9991831 C54.7421612,62.2142535 54.5372486,62.4200282 54.3176093,62.6080563 C54.0979699,62.7969296 53.8648661,62.9672113 53.6275546,63.1311549 L53.2585437,63.3563662 L52.8722814,63.5490423 C52.7456311,63.6196056 52.6067787,63.6610141 52.4738169,63.7172113 C52.3395929,63.7704507 52.2066311,63.8287606 52.0644126,63.8612958 L51.6449098,63.9812958 L51.2123634,64.0590423 L50.9952486,64.1008732 L50.7865492,64.1177746 L50.3670464,64.1566479 C50.2185164,64.1646761 50.0375874,64.1503099 49.8747514,64.1515775 L49.6235546,64.1473521 L49.4981667,64.1452394 L49.4670301,64.1448169 L49.4518825,64.1443944 L49.4245328,64.1414366 C49.1417787,64.1152394 48.8581831,64.080169 48.6086694,64.0003099 C48.3553689,63.9250986 48.1180574,63.8236901 47.9224016,63.6758028 C47.5197295,63.3981972 47.2306639,62.9308732 47.1094836,62.3481972 C46.9710519,61.7710141 46.9685273,61.1215775 47.0324836,60.4725634 C47.0955984,59.8205915 47.2239317,59.1627042 47.3964454,58.5060845 C47.0164945,59.0718592 46.7190137,59.6934085 46.4863306,60.3500282 C46.3664126,60.6787606 46.2835219,61.0214366 46.2178825,61.373831 C46.1560301,61.7270704 46.1173197,62.0934085 46.1316257,62.472 C46.148877,62.8493239 46.2204071,63.2414366 46.3714617,63.6225634 C46.5208333,64.0032676 46.756041,64.368338 47.0564672,64.6687606 C47.3564727,64.9750986 47.7221175,65.1905915 48.0890246,65.3579155 C48.458877,65.5341127 48.8384071,65.6211549 49.2141503,65.6980563 L49.2852596,65.7128451 L49.3891885,65.7255211 L49.513735,65.7411549 L49.7628279,65.772 C49.9328169,65.7910141 50.0855546,65.8180563 50.2706913,65.825662 L50.8530301,65.8303099 L51.1454617,65.8294648 L51.4248497,65.802 L51.9844672,65.7398873 L52.5386148,65.6194648 C52.7250137,65.5852394 52.9042596,65.5231268 53.0851885,65.4639718 C53.2644344,65.4022817 53.4499918,65.3536901 53.6208224,65.2687606 C53.7941776,65.1905915 53.9696366,65.1158028 54.1404672,65.0317183 L54.6390738,64.7528451 C54.9626421,64.5521408 55.2748497,64.3332676 55.5647568,64.086507 C55.6632158,64.0041127 55.7562049,63.9158028 55.8500355,63.8287606 C55.8643415,63.8650986 55.8773852,63.9014366 55.8916913,63.9373521 C56.0166585,64.2441127 56.1546694,64.5470704 56.3086694,64.8449577 C56.4706639,65.1398873 56.6313962,65.4348169 56.8325219,65.7145352 C57.0193415,65.9993239 57.2402432,66.2697465 57.4716639,66.5304507 C57.584429,66.6618592 57.7253852,66.7776338 57.851194,66.9005915 L58.0455874,67.0805915 L58.2635437,67.2415775 C58.4124945,67.3442535 58.5500847,67.4596056 58.7091339,67.5479155 L59.1980628,67.7959437 C59.3562705,67.8846761 59.5430902,67.9197465 59.7139208,67.9810141 C59.8885383,68.0346761 60.0602104,68.0967887 60.2428224,68.1098873 L60.7805601,68.1732676 L60.8138005,68.1770704 L60.8302104,68.1787606 L60.8386257,68.1796056 L60.9072104,68.1825634 L60.9640137,68.1791831 L61.0776202,68.1724225 L61.3048333,68.1589014 L61.5324672,68.1449577 C61.6149372,68.1373521 61.7230738,68.1094648 61.8164836,68.0904507 C62.0066694,68.0431268 62.2077951,68.0105915 62.3786257,67.9396056 L62.8768115,67.7105915 C63.0324945,67.6172113 63.1776585,67.5069296 63.3245055,67.4046761 C63.5984235,67.1777746 63.8534071,66.9289014 64.0393852,66.6411549 C64.1449973,66.5055211 64.2270464,66.3584789 64.3040464,66.210169 C64.3873579,66.0648169 64.4601503,65.9169296 64.5177951,65.7635493 C64.6499153,65.4643944 64.7433251,65.1550986 64.8114891,64.8436901 C64.8809153,64.5335493 64.9339317,64.2234085 64.9591776,63.9111549 C64.9831612,63.5997465 64.9966257,63.2887606 64.9718005,62.9798873 C64.8897514,63.2773521 64.7984454,63.5676338 64.6856803,63.8490423" id="Fill-30" fill="#BB4345"></path>
            <path d="M23.2368328,40.3397324 C23.0941934,41.0200141 22.9229421,41.691 22.6742699,42.3260704 C22.4239148,42.9581831 22.1239093,43.5649437 21.7237617,44.0812817 C21.5285268,44.3424085 21.3021552,44.5726901 21.0627399,44.7771972 C20.9419803,44.8853662 20.8224831,44.9681831 20.7055104,45.0543803 L20.4846087,45.1917042 L20.428647,45.2259296 C20.4269639,45.2267746 20.3933027,45.2487465 20.4177071,45.2322676 L20.3911989,45.2453662 L20.2868492,45.2994507 C20.0091443,45.4384648 19.7217617,45.5386056 19.4722481,45.555507 C19.2185268,45.5732535 19.0346525,45.5102958 18.8667672,45.3848028 C18.5204776,45.1207183 18.2835869,44.5021268 18.1581989,43.8843803 C18.0323902,43.2543803 17.9667508,42.584662 17.9440295,41.9107183 C17.9326689,41.5735352 17.9326689,41.2342394 17.9406634,40.8945211 C17.9490787,40.5586056 17.9659093,40.2083239 17.9941005,39.8893099 L18.3164066,36.2090282 L16.7452699,39.5622676 C16.6135705,39.842831 16.4583082,40.154662 16.2984175,40.4436761 C16.1376852,40.736493 15.9672754,41.0242394 15.7876087,41.3035352 C15.4295377,41.8629718 15.0277071,42.3890282 14.5867454,42.8440986 C14.1499913,43.2970563 13.6497016,43.6790282 13.1359475,43.8180423 L12.9444995,43.8590282 L12.7534721,43.8763521 L12.5641279,43.8695915 C12.5123738,43.8594507 12.4601989,43.8548028 12.4054995,43.8514225 L12.1564066,43.779169 L12.1404175,43.7745211 L12.1391552,43.7740986 L12.1315814,43.7715634 L12.0794066,43.7512817 C12.0453246,43.737338 12.008718,43.7259296 11.9758984,43.7098732 C11.8399913,43.6515634 11.7120787,43.5831127 11.5904776,43.5074789 C11.3523246,43.3519859 11.1499366,43.1601549 11.0022481,42.9248028 C10.8511934,42.6915634 10.7556798,42.4156479 10.698035,42.1186056 C10.5890568,41.5190282 10.6706852,40.8497324 10.8263683,40.1990282 C10.9770022,39.542831 11.2189421,38.8976197 11.4882317,38.2617042 C11.763412,37.6283239 12.0688874,37.0004366 12.4155978,36.3924085 C11.9569639,36.9222676 11.5420896,37.4931127 11.1705541,38.0952254 C10.7973355,38.696493 10.474188,39.3340986 10.2183628,40.0139577 C9.97473989,40.6950845 9.79928087,41.4311408 9.85524262,42.2238169 C9.88595847,42.6180423 9.98736284,43.0266338 10.1901716,43.3963521 C10.3866689,43.7690282 10.678259,44.0905775 11.0064557,44.3390282 C11.1718164,44.4611408 11.3443301,44.5697324 11.5223137,44.6618451 C11.5660732,44.6871972 11.6115158,44.7057887 11.6561169,44.7277606 L11.7234393,44.7594507 L11.7571005,44.775507 L11.8202153,44.7995915 L12.0659421,44.8917042 C12.182494,44.9217042 12.3003082,44.9504366 12.4193847,44.9732535 L12.750106,45.0011408 L13.079565,44.9876197 L13.4014503,44.9360704 C14.2509749,44.7404366 14.9040022,44.2456479 15.4552044,43.7326901 C15.9327727,43.2797324 16.3270295,42.7743803 16.6884667,42.2550845 C16.7301224,42.8884648 16.8033355,43.526493 16.9720623,44.1670563 C17.067576,44.5363521 17.1917016,44.9081831 17.3751552,45.2762113 C17.5607126,45.6395915 17.8131716,46.0177606 18.2162645,46.3004366 C18.6172536,46.5919859 19.1663519,46.677338 19.6039475,46.5983239 C20.0503792,46.5252254 20.4202317,46.3452254 20.7530568,46.1474789 L20.876341,46.0705775 L20.9508164,46.0224085 L21.0046743,45.9839577 L21.2205268,45.8297324 C21.3799967,45.7004366 21.5390459,45.5707183 21.6699038,45.4338169 C21.9387727,45.1579014 22.1794503,44.8587465 22.3772098,44.5384648 C22.7769366,43.9000141 23.0567454,43.2112817 23.2359913,42.5081831 C23.5940623,41.102831 23.6676962,39.6611408 23.5094885,38.2587465 C23.4699366,38.9622676 23.3681115,39.657338 23.2368328,40.3397324" id="Fill-32" fill="#BB4345"></path>
            <path d="M15.0777361,51.7217746 C14.5963809,52.3682535 14.0296104,53.1136056 13.3437634,53.7913521 C12.6688563,54.4640282 11.8483645,55.0902254 11.009359,55.229662 C10.8082333,55.2676901 10.5784956,55.2702254 10.4034574,55.2512113 C10.3639055,55.2495211 10.2772279,55.2309296 10.2166377,55.2224789 L10.0773645,55.1890986 C9.9688071,55.1700845 9.87665956,55.1299437 9.77988361,55.0969859 C9.40666503,54.9457183 9.12559399,54.707831 8.93582896,54.3600845 C8.74017322,54.0199437 8.63961038,53.5885352 8.59164317,53.1664225 C8.55167049,52.7417746 8.55419508,52.3167042 8.57733716,51.9224789 C8.63203661,51.132338 8.74480164,50.4583944 8.82979617,49.9872676 C8.92320601,49.5127606 8.97664317,49.2419155 8.97664317,49.2419155 C8.97664317,49.2419155 8.81296557,49.4688169 8.58491093,49.9010704 C8.35980164,50.3337465 8.05727158,50.9692394 7.83847377,51.7990986 C7.73033716,52.2140282 7.63145738,52.6771268 7.61757213,53.1930423 C7.60705301,53.7047324 7.63187814,54.2840282 7.89317322,54.8683944 C8.12838087,55.4544507 8.6598071,55.9999437 9.27454481,56.2665634 C9.42812404,56.3307887 9.58338634,56.3983944 9.73991093,56.436 C9.82658852,56.4592394 9.87960492,56.477831 9.99363224,56.5040282 C10.0668454,56.5167042 10.1127087,56.5285352 10.2082224,56.5407887 C10.5721842,56.5889577 10.8923863,56.580507 11.2289984,56.5272676 C11.8891787,56.4089577 12.4765667,56.1165634 12.9608672,55.7616338 C13.4510585,55.409662 13.8537306,54.9964225 14.2025448,54.5793803 C14.5526213,54.1619155 14.8379,53.7279718 15.0895175,53.3113521 C15.3453426,52.8968451 15.5510967,52.4874085 15.7265557,52.1058592 C16.0833645,51.3444507 16.3017415,50.6806479 16.4376486,50.2133239 C16.5739765,49.7451549 16.6206814,49.4688169 16.6206814,49.4688169 C16.6206814,49.4688169 16.4683645,49.6995211 16.2011787,50.1026197 C15.9344137,50.502338 15.550676,51.0676901 15.0777361,51.7217746" id="Fill-34" fill="#BB4345"></path>
            <path d="M10.4914393,59.3909577 C10.4914393,59.3909577 10.5023792,60.012507 10.3912973,60.9403944 C10.3378601,61.4047606 10.257494,61.9468732 10.1211661,62.5227887 C9.99072896,63.1003944 9.80054317,63.7096901 9.53798579,64.3071549 C9.40839016,64.6063099 9.26785464,64.9067324 9.10459781,65.1995493 C8.94428634,65.4932113 8.74778907,65.772507 8.51005683,66.0103944 C8.2685377,66.2436338 7.99461967,66.4422254 7.69924262,66.5719437 C7.40975628,66.7109577 7.1063847,66.7819437 6.82994208,66.8110986 C6.55097486,66.8305352 6.29977814,66.8094085 6.08813333,66.7587042 C5.87522623,66.7194085 5.70607869,66.6306761 5.56933005,66.5753239 C5.30508962,66.4253239 5.17843934,66.3158873 5.17843934,66.3158873 L5.21420437,66.1891268 C5.21420437,66.1891268 5.38419344,66.1494085 5.64170164,66.1088451 C5.7708765,66.0657465 5.92235191,66.0518028 6.08098033,65.9892676 C6.24171257,65.9432113 6.40707322,65.8675775 6.57369617,65.7860282 C6.73779454,65.693493 6.90357596,65.5941972 7.06472896,65.4636338 C7.22756503,65.3381408 7.39040109,65.1889859 7.56039016,65.0250423 C7.73374536,64.8653239 7.91761967,64.6878592 8.10149399,64.488 C8.28410601,64.2885634 8.4574612,64.0629296 8.60851585,63.8191268 C9.21273443,62.8384225 9.64191475,61.698 9.93518798,60.8394085 C10.2166798,59.9732113 10.3610022,59.3757465 10.3610022,59.3757465 L10.4914393,59.3909577 Z" id="Fill-36" fill="#BB4345"></path>
            <path d="M20.8289208,84.7183099 C20.8289208,84.7183099 20.7397186,85.1594366 20.5432213,85.913662 C20.3496694,86.6687324 20.0471393,87.7364789 19.6478333,89.0019718 C19.2451612,90.2657746 18.7394016,91.7243662 18.153276,93.2674648 C17.8608443,94.0394366 17.5503197,94.8333803 17.2208607,95.6340845 C16.8972923,96.4373239 16.5488989,97.2443662 16.2026093,98.0530986 C15.8458005,98.856338 15.4923579,99.6616901 15.123347,100.44507 C14.7627514,101.232254 14.389112,101.99831 14.023888,102.738169 C13.2917568,104.217042 12.5667787,105.579296 11.9141721,106.732817 C11.2581995,107.885493 10.6804891,108.831972 10.258041,109.486901 C9.83895902,110.142676 9.57556011,110.507324 9.57556011,110.507324 C9.57556011,110.507324 9.66434153,110.065775 9.86041803,109.311549 C10.0535492,108.556056 10.3548169,107.487887 10.754123,106.222394 C11.1563743,104.958592 11.6621339,103.5 12.2486803,101.956901 C12.5427951,101.185352 12.8507951,100.390141 13.1819372,99.5907042 C13.5059262,98.7874648 13.855582,97.9808451 14.2018716,97.1725352 C14.5591011,96.3692958 14.913806,95.5643662 15.2823962,94.7809859 C15.6455164,93.995493 16.0162104,93.2277465 16.3835383,92.4887324 C17.1160902,91.0098592 17.8410683,89.6480282 18.4932541,88.4940845 C19.1492268,87.3414085 19.7256749,86.394507 20.1472814,85.7395775 C20.5663634,85.0829577 20.8289208,84.7183099 20.8289208,84.7183099" id="Fill-38" fill="#45838E"></path>
            <g id="Group" transform="translate(20.617486, 86.197183)" fill="#45838E">
                <path d="M0.0263398907,27.054 C0.0263398907,27.054 0.0141377049,26.6166761 0.0360174863,25.8590704 C0.0549519126,25.1014648 0.109651366,24.024 0.214421858,22.7386479 C0.32255847,21.4545634 0.487498361,19.9634366 0.711345355,18.3751268 C0.822427322,17.580338 0.946553005,16.7614648 1.08708852,15.9320282 C1.2221541,15.1017465 1.38036175,14.262169 1.53562404,13.4213239 C1.70266776,12.5838592 1.86592459,11.7451268 2.04895738,10.9237183 C2.22357486,10.1010423 2.41502295,9.29484507 2.60436721,8.51569014 C2.98515956,6.95780282 3.38446557,5.51230986 3.76105027,4.27977465 C4.14058033,3.04808451 4.49023607,2.02766197 4.75405574,1.31738028 C5.01493005,0.606676056 5.18954754,0.205267606 5.18954754,0.205267606 C5.18954754,0.205267606 5.20259126,0.643014085 5.18113224,1.40019718 C5.16261858,2.15822535 5.10876066,3.23569014 5.00483169,4.52104225 C4.89669508,5.8055493 4.73175519,7.29667606 4.50706667,8.88498592 C4.39430164,9.67892958 4.27312131,10.4982254 4.1300612,11.3272394 C3.99541639,12.1579437 3.83594645,12.9970986 3.68026339,13.8375211 C3.51279891,14.6754085 3.34827978,15.5137183 3.16524699,16.3351268 C2.98852568,17.1573803 2.80002295,17.964 2.60857486,18.7427324 C2.22736175,20.3010423 1.82763497,21.7461127 1.4518918,22.9786479 C1.07236175,24.2107606 0.723547541,25.2311831 0.460569399,25.9414648 C0.200115847,26.6525915 0.0263398907,27.054 0.0263398907,27.054" id="Fill-40"></path>
            </g>
        </g>
    </g>
</svg>