<?xml version="1.0" encoding="UTF-8"?>
<svg width="120px" height="120px" viewBox="0 0 120 120" version="1.1" xmlns="http://www.w3.org/2000/svg" xmlns:xlink="http://www.w3.org/1999/xlink">
    <!-- Generator: Sketch 51.1 (57501) - http://www.bohemiancoding.com/sketch -->
    <title>Procyon lotor1</title>
    <desc>Created with Sketch.</desc>
    <defs>
        <polygon id="path-1" points="0 0.0552031863 88.539161 0.0552031863 88.539161 33.0982758 0 33.0982758"></polygon>
    </defs>
    <g id="Procyon-lotor1" stroke="none" stroke-width="1" fill="none" fill-rule="evenodd">
        <g id="Group" transform="translate(11.000000, 0.000000)">
            <path d="M4.76026187,27.2052143 C4.76026187,27.2052143 1.24362518,9.67842857 4.86353525,4.38985714 C8.58671871,-0.798357143 24.6165281,12.8945 24.6165281,12.8945 L4.76026187,27.2052143 Z" id="Fill-1" fill="#916D53"></path>
            <path d="M7.55003201,22.1239643 C7.34312914,21.1914643 5.69004281,11.1293214 7.75657878,9.36753571 C9.72340252,7.60253571 18.3064888,13.51575 18.3064888,13.51575 L7.55003201,22.1239643 Z" id="Fill-3" fill="#AB8765"></path>
            <path d="M79.636241,23.9930357 C79.636241,23.9930357 83.1528777,6.35875 79.4293381,1.17375 C75.8094281,-4.01446429 59.7796187,9.67839286 59.7796187,9.67839286 L79.636241,23.9930357 Z" id="Fill-5" fill="#916D53"></path>
            <path d="M76.7393158,18.4935714 C76.9458626,17.4575 78.6025101,7.49857143 76.5327691,5.73714286 C74.5695065,3.97178571 65.9864201,9.88535714 65.9864201,9.88535714 L76.7393158,18.4935714 Z" id="Fill-7" fill="#AB8765"></path>
            <path d="M55.4364032,98.0485357 C55.4364032,98.0485357 65.8794788,96.3871071 71.4662126,86.1213929 C77.0490291,75.85175 89.1530255,70.8738929 98.9761047,77.1985357 C98.9761047,77.1985357 94.8391155,77.0949643 90.4959356,89.0228214 C86.1527558,100.949964 78.7060327,117.133536 59.0563133,103.440679 L55.4364032,98.0485357 Z" id="Fill-9" fill="#47362B"></path>
            <path d="M79.1194468,77.7168571 C80.7728892,76.5772143 82.6360835,75.7479286 84.4960727,75.1261429 C88.3225295,76.7843571 92.0460691,79.689 94.0125367,81.4543571 C92.9794468,83.2157857 91.7358928,85.6029286 90.4959,89.0225714 L90.1860799,89.8550714 C88.0127094,84.2522143 82.8426302,80.104 79.1194468,77.7168571 M67.8462669,91.0986429 C69.189177,89.7515 70.4327309,88.0900714 71.466177,86.1211429 C71.7759971,85.6029286 72.0861734,85.0811429 72.3959935,84.5632857 C79.5325403,87.9865 81.9128137,97.1125714 82.6360835,103.7515 C79.6361698,107.174714 75.7060835,109.250786 70.5360043,108.525429 C73.3258101,102.404357 70.4327309,95.3507857 67.8462669,91.0986429" id="Fill-11" fill="#916D53"></path>
            <path d="M28.3399964,104.894964 C28.3399964,104.894964 22.6496331,106.138536 18.0999065,105.102107 C13.4469065,104.166036 7.5499964,105.723893 9.93026978,112.363179 C12.3098309,118.894964 17.1700899,120.867821 24.2033633,117.755321 C31.1333633,114.53925 34.9598201,107.796393 28.3399964,104.894964" id="Fill-13" fill="#916D53"></path>
            <path d="M13.1365878,105.206071 C10.3432209,105.931071 8.38031439,108.1075 9.93012734,112.363214 C11.6864871,117.133214 14.7900302,119.516786 19.0299367,119.102143 C21.926577,118.169643 20.5833108,112.048571 16.3434043,107.485714 C15.2031237,106.242143 14.1696777,105.620357 13.1365878,105.206071" id="Fill-15" fill="#47362B"></path>
            <path d="M54.7130266,104.998536 C54.7130266,104.998536 59.5729295,107.58925 66.7098324,105.413179 C73.7395446,103.129964 79.4291957,107.58925 77.8797388,112.881036 C76.3260086,118.169607 69.499282,121.48925 63.1928396,118.58425 C56.8831921,115.678893 52.746559,113.813893 52.1262065,110.079964 C51.6098396,106.345679 54.7130266,104.998536 54.7130266,104.998536" id="Fill-17" fill="#916D53"></path>
            <path d="M25.9598655,76.5770714 C25.9598655,76.5770714 19.442959,95.2470714 23.4798799,106.863857 C27.406405,118.377071 58.2260309,120.971357 63.3996712,107.485643 C68.4661209,94.0038571 62.1596784,75.5406429 62.1596784,75.5406429 L25.9598655,76.5770714 Z" id="Fill-19" fill="#916D53"></path>
            <path d="M32.4767007,78.4457857 C32.4767007,78.4457857 24.5132547,85.9136429 27.1997871,97.2193571 C31.6501576,115.575429 54.2997906,113.088643 59.3662403,100.950071 C60.3993302,98.5668571 60.8127799,95.3507857 60.3993302,90.9950714 C59.1596935,78.5493571 54.9194309,76.5772143 54.9194309,76.5772143 L32.4767007,78.4457857 Z" id="Fill-21" fill="#AB8765"></path>
            <path d="M22.133373,10.4038214 C22.133373,10.4038214 1.55348094,17.3538214 0.206653597,36.0238214 C-1.13661259,54.7981071 3.82656367,73.9863214 26.6830996,80.2073929 C49.4363622,86.3284643 85.7394486,79.6891786 88.2190781,54.5909643 C90.7026248,29.3848929 78.6025457,12.2723929 66.8129989,9.57489286 C54.9194665,6.77346429 31.0266356,7.70596429 22.133373,10.4038214" id="Fill-23" fill="#916D53"></path>
            <g id="Group-27" transform="translate(0.000000, 25.750000)">
                <mask id="mask-2" fill="white">
                    <use xlink:href="#path-1"></use>
                </mask>
                <g id="Clip-26"></g>
                <path d="M23.5797345,10.4814643 C28.3399252,10.4814643 32.166382,15.1478929 32.166382,20.85075 C32.166382,26.6611071 28.3399252,31.3275357 23.5797345,31.3275357 C18.9267345,31.3275357 15.0999216,26.6611071 15.0999216,20.85075 C15.0999216,15.1478929 18.9267345,10.4814643 23.5797345,10.4814643 M62.8827345,9.65253571 C67.6397201,9.65253571 71.466177,14.3189643 71.466177,20.0218214 C71.466177,25.72825 67.6397201,30.3950357 62.8827345,30.3950357 C58.1264612,30.3950357 54.3000043,25.72825 54.3000043,20.0218214 C54.3000043,14.3189643 58.1264612,9.65253571 62.8827345,9.65253571 M-7.12230216e-05,15.2514643 C-7.12230216e-05,18.98575 0.20647554,22.6161071 0.830033094,26.14325 C0.933306475,26.2468214 21.3066518,37.5525357 30.4064612,31.1203929 C39.5098317,24.6886071 46.2297237,26.9718214 56.4694576,31.0168214 C66.7095475,34.95825 88.426159,22.7200357 88.5294324,22.6161071 C88.6327058,17.01325 87.909436,11.82825 86.5661698,7.26539286 C80.5659863,-0.513535714 67.4328173,-3.72960714 59.8828209,6.54003571 C52.3328245,16.8061071 42.2996374,24.6886071 37.2331878,16.2878929 C32.0631086,7.78325 24.3065655,4.25646429 24.3065655,4.25646429 C7.23974892,-1.86103571 0.103202158,15.0443214 -7.12230216e-05,15.2514643" id="Fill-25" fill="#47362B" mask="url(#mask-2)"></path>
            </g>
            <path d="M63.2963266,79.6891786 C63.2963266,79.6891786 60.2960568,78.86025 58.1262475,80.93275 C58.1262475,80.93275 58.4364237,86.4320357 53.7795065,88.1934643 C47.1628878,90.5806071 46.0229633,97.0123929 52.2296935,96.0763214 C58.4364237,95.0398929 65.466136,92.2388214 66.5027871,87.4681071 C67.4326036,82.6981071 63.2963266,79.6891786 63.2963266,79.6891786" id="Fill-28" fill="#916D53"></path>
            <path d="M54.1927781,87.9864643 C54.0895047,87.9864643 53.8829579,88.0900357 53.7796845,88.1936071 C47.1630658,90.58075 46.0231414,97.0121786 52.2295155,96.0761071 C53.5731378,95.7653929 55.0232385,95.5578929 56.3665047,95.1436071 C56.3665047,95.0400357 59.0562421,88.6078929 54.1927781,87.9864643" id="Fill-30" fill="#47362B"></path>
            <path d="M25.0299421,79.6891786 C25.0299421,79.6891786 29.4763953,79.8963214 30.3032946,81.0363214 C30.3032946,81.0363214 27.7200356,84.8741786 33.4064817,88.1934643 C38.9932155,91.3059643 39.923032,92.96775 37.853291,95.2473929 C35.7863989,97.5306071 22.959845,93.0673929 22.0296723,86.3284643 C20.9965824,79.4820357 25.0299421,79.6891786 25.0299421,79.6891786" id="Fill-32" fill="#916D53"></path>
            <path d="M35.4765788,89.3369286 C39.1997622,91.8240714 39.6132119,93.2783571 37.853291,95.2472857 C37.0267478,96.2833571 34.3366543,96.0762143 31.3399457,94.9365714 C30.923291,91.4097857 33.4068378,89.9587143 35.4765788,89.3369286" id="Fill-34" fill="#47362B"></path>
            <path d="M62.9861147,54.1726429 C65.9863845,54.1726429 68.4663701,50.4387143 68.4663701,45.8758571 C68.4663701,41.3122857 65.9863845,37.5783571 62.9861147,37.5783571 C59.8829277,37.5783571 57.3993809,41.3122857 57.3993809,45.8758571 C57.3993809,50.4387143 59.8829277,54.1726429 62.9861147,54.1726429" id="Fill-36" fill="#47362B"></path>
            <path d="M23.5797345,54.9015714 C26.6832777,54.9015714 29.1664683,51.1676429 29.1664683,46.6008571 C29.1664683,42.0376429 26.6832777,38.3037143 23.5797345,38.3037143 C20.583382,38.3037143 18.0998353,42.0376429 18.0998353,46.6008571 C18.0998353,51.1676429 20.583382,54.9015714 23.5797345,54.9015714" id="Fill-38" fill="#47362B"></path>
            <path d="M17.6864568,36.8529643 C17.6864568,36.8529643 19.7533489,32.1865357 25.1331799,32.8083214 C25.1331799,32.8083214 18.4097266,28.5561786 17.6864568,36.8529643" id="Fill-40" fill="#47362B"></path>
            <path d="M71.5693791,36.8529643 C71.5693791,36.8529643 69.4996381,32.1865357 64.1230122,32.8083214 C64.1230122,32.8083214 70.8461094,28.5561786 71.5693791,36.8529643" id="Fill-42" fill="#47362B"></path>
            <path d="M31.0265288,60.6043571 C31.0265288,60.6043571 34.4398921,69.9415 43.7501655,69.9415 C53.0561655,69.9415 55.1266187,61.019 55.5397122,60.2936429 C55.8495324,59.5682857 55.3331655,65.7893571 51.8165288,68.9015 C48.2998921,72.1172143 38.9931799,72.0136429 35.166723,68.5907857 C31.4431835,65.1675714 31.0265288,60.6043571 31.0265288,60.6043571" id="Fill-44" fill="#47362B"></path>
            <path d="M42.5063622,64.5458214 L42.5063622,65.0640357 C42.5063622,65.0640357 42.712909,65.5818929 42.712909,66.9329643 C42.712909,68.27975 42.1965421,69.7340357 41.3699989,69.7340357 C40.4398263,69.7340357 40.5430996,70.1486786 40.7496464,70.2526071 C40.8529198,70.2526071 42.8197435,70.5633214 43.2331932,70.5633214 L44.8866356,70.5633214 L45.5062759,70.1486786 L45.4030025,69.8343929 C45.4030025,69.8343929 44.6800888,69.62725 44.4728299,68.48725 C44.3695565,67.4508214 44.2662831,65.4783214 45.0931824,64.8565357 C46.0229989,64.1315357 43.9564629,63.9240357 43.9564629,63.9240357 L42.5063622,64.5458214 Z" id="Fill-46" fill="#47362B"></path>
            <path d="M44.0598432,65.3748571 C44.0598432,65.3748571 43.0267532,65.7891429 40.4399331,63.6130714 C37.7494835,61.5373571 36.8196669,60.812 37.3363899,59.6716429 C37.7494835,58.4284286 43.6463935,57.6995 46.5398288,58.2212857 C49.3331957,58.8430714 49.5397424,60.7084286 48.9193899,61.7445 C48.2997496,62.7841429 46.4361993,64.2352143 44.0598432,65.3748571" id="Fill-48" fill="#47362B"></path>
            <path d="M18.3065245,71.703 C23.4798086,71.703 27.6167978,69.0051429 27.6167978,65.7890714 C27.6167978,62.5769286 23.4798086,59.983 18.3065245,59.983 C13.2397187,59.983 9.10344173,62.5769286 9.10344173,65.7890714 C9.10344173,69.0051429 13.2397187,71.703 18.3065245,71.703" id="Fill-50" fill="#F9CACF"></path>
            <path d="M69.2928777,58.8430714 C74.3628885,58.8430714 78.4995216,61.5373571 78.4995216,64.7530714 C78.4995216,67.9691429 74.3628885,70.5630714 69.2928777,70.5630714 C64.2260719,70.5630714 60.0894388,67.9691429 60.0894388,64.7530714 C60.0894388,61.5373571 64.2260719,58.8430714 69.2928777,58.8430714" id="Fill-52" fill="#F9CACF"></path>
            <path d="M77.8796676,112.881143 C78.6025813,110.286857 77.6727647,107.900071 75.6026676,106.345786 C75.4993942,106.345786 74.4663043,105.827571 73.119477,106.138643 C71.9827576,106.449357 70.536218,107.278286 69.0861173,109.457929 C65.9864914,114.435786 63.9160381,118.687929 66.8130345,119.620429 C71.8794842,120.138643 76.6361137,117.133286 77.8796676,112.881143" id="Fill-54" fill="#47362B"></path>
        </g>
    </g>
</svg>