<?xml version="1.0" encoding="UTF-8"?>
<svg width="120px" height="120px" viewBox="0 0 120 120" version="1.1" xmlns="http://www.w3.org/2000/svg" xmlns:xlink="http://www.w3.org/1999/xlink">
    <!-- Generator: Sketch 51.1 (57501) - http://www.bohemiancoding.com/sketch -->
    <title>Bus5</title>
    <desc>Created with Sketch.</desc>
    <defs>
        <polygon id="path-1" points="0.246445596 0.0560103627 105.422811 0.0560103627 105.422811 54.8744249 0.246445596 54.8744249"></polygon>
        <polygon id="path-3" points="0.5123439 0.0560103627 79.2487642 0.0560103627 79.2487642 54.8744249 0.5123439 54.8744249"></polygon>
        <polygon id="path-5" points="0 64.8921762 115 64.8921762 115 0 0 0"></polygon>
    </defs>
    <g id="Bus5" stroke="none" stroke-width="1" fill="none" fill-rule="evenodd">
        <g id="Group-35" transform="translate(3.000000, 28.000000)">
            <path d="M101.257694,55.1010881 C101.257694,49.68 97.0974352,45.2849741 91.9653368,45.2849741 C86.8338342,45.2849741 82.6735751,49.68 82.6735751,55.1010881 C82.6735751,60.522772 86.8338342,64.9177979 91.9653368,64.9177979 C97.0974352,64.9177979 101.257694,60.522772 101.257694,55.1010881" id="Fill-3" fill="#23262A"></path>
            <path d="M49.5685751,55.1010881 C49.5685751,49.68 45.4077202,45.2849741 40.2762176,45.2849741 C35.144715,45.2849741 30.984456,49.68 30.984456,55.1010881 C30.984456,60.522772 35.144715,64.9177979 40.2762176,64.9177979 C45.4077202,64.9177979 49.5685751,60.522772 49.5685751,55.1010881" id="Fill-5" fill="#23262A"></path>
            <path d="M49.5685751,55.1010881 C49.5685751,49.68 45.4077202,45.2849741 40.2762176,45.2849741 C35.144715,45.2849741 30.984456,49.68 30.984456,55.1010881 C30.984456,60.522772 35.144715,64.9177979 40.2762176,64.9177979 C45.4077202,64.9177979 49.5685751,60.522772 49.5685751,55.1010881" id="Fill-7" fill="#23262A"></path>
            <g id="Group-11" transform="translate(8.937824, 0.000000)">
                <mask id="mask-2" fill="white">
                    <use xlink:href="#path-1"></use>
                </mask>
                <g id="Clip-10"></g>
                <path d="M0.246445596,49.7750984 C0.246445596,52.6036218 2.53929534,54.8744249 5.36781865,54.8744249 L99.4753575,54.8744249 C102.304477,54.8744249 104.596731,52.6036218 104.596731,49.7750984 C104.596731,49.7750984 106.713207,41.7775337 104.170694,27.4764197 C100.75585,8.27022798 94.7806166,0.0557720207 88.3787513,0.0557720207 L9.67167876,0.0557720207 C6.84315544,0.0557720207 4.5503057,2.24077202 4.5503057,5.06929534 L0.246445596,49.7750984 Z" id="Fill-9" fill="#EBE7DE" mask="url(#mask-2)"></path>
            </g>
            <path d="M10.1295337,22.8170725 L13.2351295,5.95854922 L106.003782,5.95854922 C108.377073,9.71779793 110.514404,15.3676943 112.167306,22.9141969 L10.1295337,22.8170725 Z" id="Fill-12" fill="#454C53"></path>
            <path d="M112.796528,29.1968912 C114.878446,42.4183161 112.916891,49.9463472 112.916891,49.9463472 C112.916891,52.7748705 110.4,55.0051554 107.570881,55.0051554 L13.463342,55.0051554 C10.6348187,55.0051554 8.34196891,52.7123057 8.34196891,49.8837824 L9.22860104,29.1968912 L112.796528,29.1968912 Z" id="Fill-14" fill="#DF2000"></path>
            <g id="Group-18" transform="translate(1.191710, 0.000000)">
                <mask id="mask-4" fill="white">
                    <use xlink:href="#path-3"></use>
                </mask>
                <g id="Clip-17"></g>
                <path d="M2.23094041,49.7750984 C2.23094041,52.6036218 4.52379016,54.8744249 7.35231347,54.8744249 L73.9319508,54.8744249 C76.7604741,54.8744249 79.2487642,52.6256684 79.2487642,49.7971451 L79.2487642,28.8045803 C79.2487642,28.8045803 78.7524171,26.5069637 78.5534016,24.7331036 C78.3549819,22.9586477 72.7491788,5.08061658 72.7491788,5.08061658 C71.651614,2.26460622 70.3586088,0.0557720207 67.5300855,0.0557720207 L11.6561736,0.0557720207 C8.82765026,0.0557720207 7.05081088,1.71880311 4.76689896,7.08149741 C3.12233938,10.9432332 0.3105,16.7575855 0.523816062,29.775228 C0.737132124,42.7922746 2.23094041,49.7750984 2.23094041,49.7750984" id="Fill-16" fill="#FFFFFF" mask="url(#mask-4)"></path>
            </g>
            <path d="M80.2419948,29.3297668 L80.2419948,49.9237047 C80.2419948,52.752228 77.7662176,55.0450777 74.9376943,55.0450777 L8.35805699,55.0450777 C5.52893782,55.0450777 3.76163212,55.2357513 2.83031088,49.8355181 C1.52717617,42.6852591 1.19409326,29.4179534 1.19170984,29.1968912 L80.2419948,29.3297668 Z" id="Fill-19" fill="#FF4A39"></path>
            <mask id="mask-6" fill="white">
                <use xlink:href="#path-5"></use>
            </mask>
            <g id="Clip-22"></g>
            <polygon id="Fill-21" fill="#454C53" mask="url(#mask-6)" points="29.7927461 23.238342 47.0725389 23.238342 47.0725389 6.55440415 29.7927461 6.55440415"></polygon>
            <polygon id="Fill-23" fill="#454C53" mask="url(#mask-6)" points="7.15025907 23.238342 24.3609326 23.238342 24.3609326 6.55440415 10.8582642 6.55440415"></polygon>
            <polygon id="Fill-24" fill="#454C53" mask="url(#mask-6)" points="51.8393782 23.238342 69.3616839 23.238342 66.1613472 6.55440415 51.8393782 6.55440415"></polygon>
            <path d="M81.0362694,51.893601 C81.0362694,53.8384715 82.6129016,55.4145078 84.5571762,55.4145078 L111.479093,55.4145078 C113.423368,55.4145078 115,53.8384715 115,51.893601 L115,51.7851554 C115,49.8408808 113.423368,48.2642487 111.479093,48.2642487 L84.5571762,48.2642487 C82.6129016,48.2642487 81.0362694,49.8408808 81.0362694,51.7851554 L81.0362694,51.893601 Z" id="Fill-25" fill="#FFFFFF" mask="url(#mask-6)"></path>
            <path d="M0,51.893601 C0,53.8384715 1.57663212,55.4145078 3.52090674,55.4145078 L4.82106218,55.4145078 C6.76533679,55.4145078 8.34196891,53.8384715 8.34196891,51.893601 L8.34196891,51.7851554 C8.34196891,49.8408808 6.76533679,48.2642487 4.82106218,48.2642487 L3.52090674,48.2642487 C1.57663212,48.2642487 0,49.8408808 0,51.7851554 L0,51.893601 Z" id="Fill-26" fill="#DF2000" mask="url(#mask-6)"></path>
            <path d="M80.8270207,54.1667876 C80.8270207,48.2743782 76.3050777,43.4974093 70.7266839,43.4974093 C65.148886,43.4974093 60.626943,48.2743782 60.626943,54.1667876 C60.626943,60.0597927 65.148886,64.8367617 70.7266839,64.8367617 C76.3050777,64.8367617 80.8270207,60.0597927 80.8270207,54.1667876" id="Fill-27" fill="#23262A" mask="url(#mask-6)"></path>
            <path d="M76.8800777,54.05 C76.8800777,50.5255181 74.1754922,47.6683938 70.8387047,47.6683938 C67.502513,47.6683938 64.7979275,50.5255181 64.7979275,54.05 C64.7979275,57.5750777 67.502513,60.4322021 70.8387047,60.4322021 C74.1754922,60.4322021 76.8800777,57.5750777 76.8800777,54.05" id="Fill-28" fill="#FFFFFF" mask="url(#mask-6)"></path>
            <path d="M74.4156218,53.8730311 C74.4156218,51.762513 72.7960881,50.0518135 70.7981865,50.0518135 C68.8008808,50.0518135 67.1813472,51.762513 67.1813472,53.8730311 C67.1813472,55.9835492 68.8008808,57.6948446 70.7981865,57.6948446 C72.7960881,57.6948446 74.4156218,55.9835492 74.4156218,53.8730311" id="Fill-29" fill="#B0ADA7" mask="url(#mask-6)"></path>
            <path d="M29.1373057,54.1667876 C29.1373057,48.2743782 24.6153627,43.4974093 19.0375648,43.4974093 C13.4597668,43.4974093 8.93782383,48.2743782 8.93782383,54.1667876 C8.93782383,60.0597927 13.4597668,64.8367617 19.0375648,64.8367617 C24.6153627,64.8367617 29.1373057,60.0597927 29.1373057,54.1667876" id="Fill-30" fill="#23262A" mask="url(#mask-6)"></path>
            <path d="M25.1909585,54.05 C25.1909585,50.5255181 22.4857772,47.6683938 19.1495855,47.6683938 C15.8133938,47.6683938 13.1088083,50.5255181 13.1088083,54.05 C13.1088083,57.5750777 15.8133938,60.4322021 19.1495855,60.4322021 C22.4857772,60.4322021 25.1909585,57.5750777 25.1909585,54.05" id="Fill-31" fill="#FFFFFF" mask="url(#mask-6)"></path>
            <path d="M22.7265026,53.8730311 C22.7265026,51.762513 21.1069689,50.0518135 19.1090674,50.0518135 C17.1117617,50.0518135 15.492228,51.762513 15.492228,53.8730311 C15.492228,55.9835492 17.1117617,57.6948446 19.1090674,57.6948446 C21.1069689,57.6948446 22.7265026,55.9835492 22.7265026,53.8730311" id="Fill-32" fill="#B0ADA7" mask="url(#mask-6)"></path>
            <path d="M94.4900777,39.7971503 C94.4900777,37.2337824 92.4123316,35.1554404 89.8489637,35.1554404 C87.2855959,35.1554404 85.2072539,37.2337824 85.2072539,39.7971503 C85.2072539,42.3605181 87.2855959,44.4382642 89.8489637,44.4382642 C92.4123316,44.4382642 94.4900777,42.3605181 94.4900777,39.7971503" id="Fill-33" fill="#B0ADA7" mask="url(#mask-6)"></path>
            <path d="M93.228057,39.7619948 C93.228057,37.876114 91.6996891,36.3471503 89.8138083,36.3471503 C87.9273316,36.3471503 86.3989637,37.876114 86.3989637,39.7619948 C86.3989637,41.6478756 87.9273316,43.1768394 89.8138083,43.1768394 C91.6996891,43.1768394 93.228057,41.6478756 93.228057,39.7619948" id="Fill-34" fill="#FFFFFF" mask="url(#mask-6)"></path>
            <path d="M114.15329,39.7971503 C114.15329,37.2337824 112.074948,35.1554404 109.51158,35.1554404 C106.948808,35.1554404 104.870466,37.2337824 104.870466,39.7971503 C104.870466,42.3605181 106.948808,44.4382642 109.51158,44.4382642 C112.074948,44.4382642 114.15329,42.3605181 114.15329,39.7971503" id="Fill-35" fill="#B0ADA7" mask="url(#mask-6)"></path>
            <path d="M112.891269,39.7619948 C112.891269,37.876114 111.362306,36.3471503 109.476425,36.3471503 C107.590544,36.3471503 106.062176,37.876114 106.062176,39.7619948 C106.062176,41.6478756 107.590544,43.1768394 109.476425,43.1768394 C111.362306,43.1768394 112.891269,41.6478756 112.891269,39.7619948" id="Fill-36" fill="#FFFFFF" mask="url(#mask-6)"></path>
            <path d="M83.4196891,29.1784197 C86.7135751,28.9222021 92.8276425,29.682513 97.0278238,33.3708549 C98.9852073,35.0887047 100.927694,37.641943 101.131477,39.9818653 C101.131477,39.9818653 104.042824,29.2177461 113.363782,29.2177461 L112.192927,26.6448446 L88.9676943,26.2176166 L83.4196891,29.1784197 Z" id="Fill-37" fill="#EBE7DE" mask="url(#mask-6)"></path>
            <path d="M51.8393782,35.5469171 C51.8393782,35.9890415 52.1980829,36.3471503 52.6396114,36.3471503 L58.1894041,36.3471503 C58.6309326,36.3471503 58.9896373,35.9890415 58.9896373,35.5469171 L58.9896373,35.3604145 C58.9896373,34.9182902 58.6309326,34.5595855 58.1894041,34.5595855 L52.6396114,34.5595855 C52.1980829,34.5595855 51.8393782,34.9182902 51.8393782,35.3604145 L51.8393782,35.5469171 Z" id="Fill-38" fill="#FFFFFF" mask="url(#mask-6)"></path>
            <path d="M103.437435,31.1620207 C103.437435,29.7474611 102.29101,28.6010363 100.876451,28.6010363 C99.462487,28.6010363 98.3160622,29.7474611 98.3160622,31.1620207 C98.3160622,32.5759845 99.462487,33.7224093 100.876451,33.7224093 C102.29101,33.7224093 103.437435,32.5759845 103.437435,31.1620207" id="Fill-39" fill="#638ABD" mask="url(#mask-6)"></path>
        </g>
    </g>
</svg>