<?xml version="1.0" encoding="UTF-8"?>
<svg width="120px" height="120px" viewBox="0 0 120 120" version="1.1" xmlns="http://www.w3.org/2000/svg" xmlns:xlink="http://www.w3.org/1999/xlink">
    <!-- Generator: Sketch 51.1 (57501) - http://www.bohemiancoding.com/sketch -->
    <title>Starfish1</title>
    <desc>Created with Sketch.</desc>
    <defs></defs>
    <g id="Starfish1" stroke="none" stroke-width="1" fill="none" fill-rule="evenodd">
        <g id="Group" transform="translate(5.000000, 0.000000)">
            <path d="M74.2765909,107.704091 C74.7688636,121.570227 68.8322727,123.497727 61.0840909,111.987955 L57.3238636,106.401136 C49.5756818,94.8906818 32.5711364,89.3618182 19.5354545,94.1147727 L13.2081818,96.4213636 C0.171818182,101.175 -3.49568182,96.1240909 5.05704545,85.1986364 L9.20795455,79.8954545 C17.7606818,68.97 17.7647727,51.0893182 9.21613636,40.1604545 L5.06727273,34.8559091 C-3.48136364,23.9270455 0.188181818,18.8781818 13.2218182,23.6359091 L19.5484091,25.9452273 C32.5820455,30.7029545 49.5886364,25.1809091 57.3409091,13.6738636 L61.1038636,8.08772727 C68.8561364,-3.41931818 74.7920455,-1.48977273 74.295,12.3763636 L74.0536364,19.1065909 C73.5559091,32.9727273 84.0634091,47.4409091 97.4031818,51.2577273 L103.878409,53.1109091 C117.218182,56.9277273 117.216818,63.1690909 103.875682,66.9811364 L97.3997727,68.8315909 C84.0586364,72.6429545 73.5456818,87.1070455 74.0372727,100.973182 L74.2765909,107.704091" id="Fill-15998" fill="#507A88"></path>
            <path d="M67.6547727,89.6331818 C67.56,89.6331818 67.4843182,89.5568182 67.4843182,89.4627273 C67.4843182,89.3686364 67.56,89.2922727 67.6547727,89.2922727 C67.7488636,89.2922727 67.8252273,89.3686364 67.8252273,89.4627273 C67.8252273,89.5568182 67.7488636,89.6331818 67.6547727,89.6331818" id="Fill-15999" fill="#162E44"></path>
            <path d="M66.8781818,96.4111364 C66.7602273,96.4111364 66.6647727,96.3163636 66.6647727,96.1984091 C66.6647727,96.0804545 66.7602273,95.985 66.8781818,95.985 C66.9961364,95.985 67.0915909,96.0804545 67.0915909,96.1984091 C67.0915909,96.3163636 66.9961364,96.4111364 66.8781818,96.4111364" id="Fill-16000" fill="#162E44"></path>
            <path d="M61.4379545,97.4959091 C61.2429545,97.4959091 61.0847727,97.3377273 61.0847727,97.1427273 C61.0847727,96.9470455 61.2429545,96.7888636 61.4379545,96.7888636 C61.6336364,96.7888636 61.7918182,96.9470455 61.7918182,97.1427273 C61.7918182,97.3377273 61.6336364,97.4959091 61.4379545,97.4959091" id="Fill-16001" fill="#162E44"></path>
            <path d="M57.0797727,92.5159091 C56.7552273,92.5159091 56.4927273,92.2534091 56.4927273,91.9288636 C56.4927273,91.605 56.7552273,91.3418182 57.0797727,91.3418182 C57.4036364,91.3418182 57.6668182,91.605 57.6668182,91.9288636 C57.6668182,92.2534091 57.4036364,92.5159091 57.0797727,92.5159091" id="Fill-16002" fill="#162E44"></path>
            <path d="M52.2231818,88.0513636 C51.7411364,88.0513636 51.3504545,87.6606818 51.3504545,87.1779545 C51.3504545,86.6959091 51.7411364,86.3052273 52.2231818,86.3052273 C52.7059091,86.3052273 53.0965909,86.6959091 53.0965909,87.1779545 C53.0965909,87.6606818 52.7059091,88.0513636 52.2231818,88.0513636" id="Fill-16003" fill="#162E44"></path>
            <path d="M46.2456818,85.0861364 C45.6109091,85.0861364 45.0961364,84.5713636 45.0961364,83.9365909 C45.0961364,83.3018182 45.6109091,82.7870455 46.2456818,82.7870455 C46.8804545,82.7870455 47.3952273,83.3018182 47.3952273,83.9365909 C47.3952273,84.5713636 46.8804545,85.0861364 46.2456818,85.0861364" id="Fill-16004" fill="#162E44"></path>
            <path d="M39.6484091,83.6440909 C38.8943182,83.6440909 38.2834091,83.0331818 38.2834091,82.2790909 C38.2834091,81.5256818 38.8943182,80.9147727 39.6484091,80.9147727 C40.4018182,80.9147727 41.0134091,81.5256818 41.0134091,82.2790909 C41.0134091,83.0331818 40.4018182,83.6440909 39.6484091,83.6440909" id="Fill-16005" fill="#162E44"></path>
            <path d="M32.8493182,83.8711364 C32.0263636,83.8711364 31.3588636,83.2043182 31.3588636,82.3813636 C31.3588636,81.5584091 32.0263636,80.8909091 32.8493182,80.8909091 C33.6722727,80.8909091 34.3390909,81.5584091 34.3390909,82.3813636 C34.3390909,83.2043182 33.6722727,83.8711364 32.8493182,83.8711364" id="Fill-16006" fill="#162E44"></path>
            <path d="M26.2909091,85.7481818 C25.4488636,85.7481818 24.7656818,85.065 24.7656818,84.2229545 C24.7656818,83.3809091 25.4488636,82.6984091 26.2909091,82.6984091 C27.1329545,82.6984091 27.8154545,83.3809091 27.8154545,84.2229545 C27.8154545,85.065 27.1329545,85.7481818 26.2909091,85.7481818" id="Fill-16007" fill="#162E44"></path>
            <path d="M19.7938636,85.1802273 C18.9804545,85.1802273 18.3211364,84.5209091 18.3211364,83.7075 C18.3211364,82.8940909 18.9804545,82.2347727 19.7938636,82.2347727 C20.6072727,82.2347727 21.2665909,82.8940909 21.2665909,83.7075 C21.2665909,84.5209091 20.6072727,85.1802273 19.7938636,85.1802273" id="Fill-16008" fill="#162E44"></path>
            <path d="M20.9795455,78.7179545 C20.2418182,78.7179545 19.6431818,78.1193182 19.6431818,77.3815909 C19.6431818,76.6431818 20.2418182,76.0452273 20.9795455,76.0452273 C21.7179545,76.0452273 22.3159091,76.6431818 22.3159091,77.3815909 C22.3159091,78.1193182 21.7179545,78.7179545 20.9795455,78.7179545" id="Fill-16009" fill="#162E44"></path>
            <path d="M24.7806818,72.8638636 C24.1534091,72.8638636 23.6454545,72.3552273 23.6454545,71.7286364 C23.6454545,71.1013636 24.1534091,70.5934091 24.7806818,70.5934091 C25.4072727,70.5934091 25.9159091,71.1013636 25.9159091,71.7286364 C25.9159091,72.3552273 25.4072727,72.8638636 24.7806818,72.8638636" id="Fill-16010" fill="#162E44"></path>
            <path d="M27.0593182,66.2447727 C26.5506818,66.2447727 26.1388636,65.8322727 26.1388636,65.3243182 C26.1388636,64.8156818 26.5506818,64.4038636 27.0593182,64.4038636 C27.5679545,64.4038636 27.9797727,64.8156818 27.9797727,65.3243182 C27.9797727,65.8322727 27.5679545,66.2447727 27.0593182,66.2447727" id="Fill-16011" fill="#162E44"></path>
            <path d="M27.5993182,59.2554545 C27.2072727,59.2554545 26.8888636,58.9370455 26.8888636,58.5443182 C26.8888636,58.1515909 27.2072727,57.8331818 27.5993182,57.8331818 C27.9927273,57.8331818 28.3104545,58.1515909 28.3104545,58.5443182 C28.3104545,58.9370455 27.9927273,59.2554545 27.5993182,59.2554545" id="Fill-16012" fill="#162E44"></path>
            <path d="M26.4429545,52.4140909 C26.1265909,52.4140909 25.8702273,52.1584091 25.8702273,51.8420455 C25.8702273,51.5256818 26.1265909,51.27 26.4429545,51.27 C26.7586364,51.27 27.015,51.5256818 27.015,51.8420455 C27.015,52.1584091 26.7586364,52.4140909 26.4429545,52.4140909" id="Fill-16013" fill="#162E44"></path>
            <path d="M23.5084091,46.2327273 C23.2213636,46.2327273 22.9888636,45.9995455 22.9888636,45.7131818 C22.9888636,45.4261364 23.2213636,45.1936364 23.5084091,45.1936364 C23.7947727,45.1936364 24.0272727,45.4261364 24.0272727,45.7131818 C24.0272727,45.9995455 23.7947727,46.2327273 23.5084091,46.2327273" id="Fill-16014" fill="#162E44"></path>
            <path d="M19.8368182,40.5211364 C19.5402273,40.5211364 19.2995455,40.2804545 19.2995455,39.9838636 C19.2995455,39.6872727 19.5402273,39.4459091 19.8368182,39.4459091 C20.1334091,39.4459091 20.3740909,39.6872727 20.3740909,39.9838636 C20.3740909,40.2804545 20.1334091,40.5211364 19.8368182,40.5211364" id="Fill-16015" fill="#162E44"></path>
            <path d="M22.0090909,35.4695455 C21.6688636,35.4695455 21.3927273,35.1940909 21.3927273,34.8538636 C21.3927273,34.5136364 21.6688636,34.2375 22.0090909,34.2375 C22.3493182,34.2375 22.6254545,34.5136364 22.6254545,34.8538636 C22.6254545,35.1940909 22.3493182,35.4695455 22.0090909,35.4695455" id="Fill-16016" fill="#162E44"></path>
            <path d="M28.6684091,36.8393182 C28.2443182,36.8393182 27.9006818,36.4956818 27.9006818,36.0715909 C27.9006818,35.6475 28.2443182,35.3031818 28.6684091,35.3031818 C29.0925,35.3031818 29.4368182,35.6475 29.4368182,36.0715909 C29.4368182,36.4956818 29.0925,36.8393182 28.6684091,36.8393182" id="Fill-16017" fill="#162E44"></path>
            <path d="M35.3215909,38.3754545 C34.8040909,38.3754545 34.3847727,37.9561364 34.3847727,37.4386364 C34.3847727,36.9211364 34.8040909,36.5018182 35.3215909,36.5018182 C35.8384091,36.5018182 36.2584091,36.9211364 36.2584091,37.4386364 C36.2584091,37.9561364 35.8384091,38.3754545 35.3215909,38.3754545" id="Fill-16018" fill="#162E44"></path>
            <path d="M42.0975,38.0059091 C41.4729545,38.0059091 40.9663636,37.5 40.9663636,36.8747727 C40.9663636,36.2509091 41.4729545,35.7443182 42.0975,35.7443182 C42.7220455,35.7443182 43.2279545,36.2509091 43.2279545,36.8747727 C43.2279545,37.5 42.7220455,38.0059091 42.0975,38.0059091" id="Fill-16019" fill="#162E44"></path>
            <path d="M48.5195455,35.9461364 C47.7934091,35.9461364 47.2056818,35.3577273 47.2056818,34.6322727 C47.2056818,33.9068182 47.7934091,33.3184091 48.5195455,33.3184091 C49.245,33.3184091 49.8327273,33.9068182 49.8327273,34.6322727 C49.8327273,35.3577273 49.245,35.9461364 48.5195455,35.9461364" id="Fill-16020" fill="#162E44"></path>
            <path d="M54.1595455,32.2895455 C53.3570455,32.2895455 52.7072727,31.6390909 52.7072727,30.8372727 C52.7072727,30.0347727 53.3570455,29.3843182 54.1595455,29.3843182 C54.9620455,29.3843182 55.6118182,30.0347727 55.6118182,30.8372727 C55.6118182,31.6390909 54.9620455,32.2895455 54.1595455,32.2895455" id="Fill-16021" fill="#162E44"></path>
            <path d="M58.5231818,27.1697727 C57.6668182,27.1697727 56.9727273,26.4756818 56.9727273,25.6193182 C56.9727273,24.7629545 57.6668182,24.0688636 58.5231818,24.0688636 C59.3795455,24.0688636 60.0729545,24.7629545 60.0729545,25.6193182 C60.0729545,26.4756818 59.3795455,27.1697727 58.5231818,27.1697727" id="Fill-16022" fill="#162E44"></path>
            <path d="M63.6102273,22.8647727 C62.7136364,22.8647727 61.9875,22.1379545 61.9875,21.2413636 C61.9875,20.3447727 62.7136364,19.6179545 63.6102273,19.6179545 C64.5068182,19.6179545 65.2336364,20.3447727 65.2336364,21.2413636 C65.2336364,22.1379545 64.5068182,22.8647727 63.6102273,22.8647727" id="Fill-16023" fill="#162E44"></path>
            <path d="M67.4884091,27.4718182 C66.5522727,27.4718182 65.7927273,26.7129545 65.7927273,25.7761364 C65.7927273,24.8393182 66.5522727,24.0797727 67.4884091,24.0797727 C68.4252273,24.0797727 69.1847727,24.8393182 69.1847727,25.7761364 C69.1847727,26.7129545 68.4252273,27.4718182 67.4884091,27.4718182" id="Fill-16024" fill="#162E44"></path>
            <path d="M67.7270455,34.3540909 C66.75,34.3540909 65.9584091,33.5618182 65.9584091,32.5847727 C65.9584091,31.6077273 66.75,30.8154545 67.7270455,30.8154545 C68.7047727,30.8154545 69.4963636,31.6077273 69.4963636,32.5847727 C69.4963636,33.5618182 68.7047727,34.3540909 67.7270455,34.3540909" id="Fill-16025" fill="#162E44"></path>
            <path d="M69.3006818,41.0106818 C68.2984091,41.0106818 67.4856818,40.1986364 67.4856818,39.1963636 C67.4856818,38.1940909 68.2984091,37.3813636 69.3006818,37.3813636 C70.3029545,37.3813636 71.1156818,38.1940909 71.1156818,39.1963636 C71.1156818,40.1986364 70.3029545,41.0106818 69.3006818,41.0106818" id="Fill-16026" fill="#162E44"></path>
            <path d="M72.5740909,46.9813636 C71.5670455,46.9813636 70.7509091,46.1645455 70.7509091,45.1575 C70.7509091,44.1504545 71.5670455,43.3336364 72.5740909,43.3336364 C73.5811364,43.3336364 74.3979545,44.1504545 74.3979545,45.1575 C74.3979545,46.1645455 73.5811364,46.9813636 72.5740909,46.9813636" id="Fill-16027" fill="#162E44"></path>
            <path d="M77.2206818,51.9109091 C76.2347727,51.9109091 75.4343182,51.1111364 75.4343182,50.1245455 C75.4343182,49.1379545 76.2347727,48.3381818 77.2206818,48.3381818 C78.2079545,48.3381818 79.0070455,49.1379545 79.0070455,50.1245455 C79.0070455,51.1111364 78.2079545,51.9109091 77.2206818,51.9109091" id="Fill-16028" fill="#162E44"></path>
            <path d="M83.0140909,55.4072727 C82.0602273,55.4072727 81.2877273,54.6334091 81.2877273,53.6802273 C81.2877273,52.7270455 82.0602273,51.9538636 83.0140909,51.9538636 C83.9679545,51.9538636 84.7411364,52.7270455 84.7411364,53.6802273 C84.7411364,54.6334091 83.9679545,55.4072727 83.0140909,55.4072727" id="Fill-16029" fill="#162E44"></path>
            <path d="M89.4177273,57.6320455 C88.5225,57.6320455 87.7977273,56.9065909 87.7977273,56.0113636 C87.7977273,55.1161364 88.5225,54.3906818 89.4177273,54.3906818 C90.3129545,54.3906818 91.0384091,55.1161364 91.0384091,56.0113636 C91.0384091,56.9065909 90.3129545,57.6320455 89.4177273,57.6320455" id="Fill-16030" fill="#162E44"></path>
            <path d="M92.6031818,62.5234091 C91.8068182,62.5234091 91.1611364,61.8770455 91.1611364,61.0806818 C91.1611364,60.2843182 91.8068182,59.6379545 92.6031818,59.6379545 C93.4002273,59.6379545 94.0465909,60.2843182 94.0465909,61.0806818 C94.0465909,61.8770455 93.4002273,62.5234091 92.6031818,62.5234091" id="Fill-16031" fill="#162E44"></path>
            <path d="M86.8915909,65.775 C86.2370455,65.775 85.7072727,65.2445455 85.7072727,64.5906818 C85.7072727,63.9361364 86.2370455,63.4056818 86.8915909,63.4056818 C87.5454545,63.4056818 88.0759091,63.9361364 88.0759091,64.5906818 C88.0759091,65.2445455 87.5454545,65.775 86.8915909,65.775" id="Fill-16032" fill="#162E44"></path>
            <path d="M80.5765909,68.0113636 C80.0815909,68.0113636 79.6806818,67.6097727 79.6806818,67.1154545 C79.6806818,66.6197727 80.0815909,66.2188636 80.5765909,66.2188636 C81.0715909,66.2188636 81.4725,66.6197727 81.4725,67.1154545 C81.4725,67.6097727 81.0715909,68.0113636 80.5765909,68.0113636" id="Fill-16033" fill="#162E44"></path>
            <path d="M75.2120455,71.9004545 C74.8765909,71.9004545 74.6052273,71.6284091 74.6052273,71.2936364 C74.6052273,70.9588636 74.8765909,70.6868182 75.2120455,70.6868182 C75.5468182,70.6868182 75.8188636,70.9588636 75.8188636,71.2936364 C75.8188636,71.6284091 75.5468182,71.9004545 75.2120455,71.9004545" id="Fill-16034" fill="#162E44"></path>
            <path d="M71.0815909,77.0720455 C70.875,77.0720455 70.7079545,76.9043182 70.7079545,76.6984091 C70.7079545,76.4918182 70.875,76.3240909 71.0815909,76.3240909 C71.2881818,76.3240909 71.4559091,76.4918182 71.4559091,76.6984091 C71.4559091,76.9043182 71.2881818,77.0720455 71.0815909,77.0720455" id="Fill-16035" fill="#162E44"></path>
            <path d="M68.4361364,83.1913636 C68.31,83.1913636 68.2077273,83.0890909 68.2077273,82.9629545 C68.2077273,82.8368182 68.31,82.7345455 68.4361364,82.7345455 C68.5622727,82.7345455 68.6645455,82.8368182 68.6645455,82.9629545 C68.6645455,83.0890909 68.5622727,83.1913636 68.4361364,83.1913636" id="Fill-16036" fill="#162E44"></path>
            <path d="M71.2513636,102.482727 C71.2513636,102.482727 71.2172727,102.311591 71.1531818,101.989091 C71.0959091,101.666591 71.0072727,101.191364 70.9465909,100.581136 C70.8225,99.3613636 70.6827273,97.6015909 70.8047727,95.4879545 C70.9077273,93.3756818 71.2670455,90.9088636 71.9972727,88.3472727 C72.3838636,87.0743182 72.8140909,85.7611364 73.3997727,84.4854545 C73.6711364,83.8390909 74.0134091,83.2179545 74.3222727,82.5790909 C74.6815909,81.9668182 75.0020455,81.3279545 75.3975,80.7334091 C75.7881818,80.1368182 76.1754545,79.5375 76.6152273,78.9784091 L77.2568182,78.1309091 L77.9413636,77.3256818 C78.8440909,76.2504545 79.8525,75.3006818 80.8534091,74.4225 C81.8597727,73.5497727 82.8906818,72.7731818 83.9134091,72.1138636 C84.1656818,71.9447727 84.4152273,71.7777273 84.6606818,71.6140909 C84.9163636,71.4661364 85.1686364,71.3202273 85.4161364,71.1770455 C85.9172727,70.9022727 86.385,70.6084091 86.8615909,70.3786364 C87.8140909,69.9170455 88.6759091,69.4759091 89.4845455,69.1854545 C90.2836364,68.8745455 90.9661364,68.5793182 91.5559091,68.4040909 C92.7231818,68.025 93.3920455,67.8279545 93.3920455,67.8279545 C93.3920455,67.8279545 92.7620455,68.1395455 91.6561364,68.6502273 C91.095,68.8854545 90.4506818,69.2536364 89.7013636,69.6443182 C88.9431818,70.0186364 88.1461364,70.5470455 87.2481818,71.0597727 C86.8009091,71.3202273 86.3672727,71.6440909 85.9022727,71.9495455 C85.6704545,72.1036364 85.4352273,72.2597727 85.1965909,72.4193182 C84.9675,72.5925 84.735,72.7684091 84.4990909,72.9463636 C83.5452273,73.6411364 82.6009091,74.4531818 81.6552273,75.3163636 C80.7143182,76.1870455 79.8054545,77.1518182 78.9436364,78.1793182 L78.2979545,78.9565909 L77.6945455,79.7734091 C77.2793182,80.3113636 76.9186364,80.8902273 76.5490909,81.4622727 C76.1645455,82.0247727 75.8522727,82.6329545 75.5011364,83.2138636 C75.1990909,83.8220455 74.8643182,84.4118182 74.5977273,85.0288636 C74.0318182,86.2472727 73.5484091,87.4820455 73.1420455,88.6997727 C72.7615909,89.925 72.4063636,91.1188636 72.165,92.2759091 C71.91,93.4295455 71.7204545,94.5340909 71.5806818,95.5602273 C71.31,97.6138636 71.2029545,99.3497727 71.2104545,100.566818 C71.2125,101.175 71.2104545,101.655 71.2261364,101.981591 C71.2425,102.308182 71.2513636,102.482727 71.2513636,102.482727" id="Fill-16037" fill="#FFFFFE"></path>
            <path d="M21.4077273,91.2477273 C21.4077273,91.2477273 21.5665909,91.1740909 21.8645455,91.0363636 C22.1652273,90.9047727 22.6063636,90.7070455 23.1859091,90.5052273 C24.3415909,90.0988636 26.0195455,89.5506818 28.1038636,89.1743182 C30.1813636,88.7788636 32.6631818,88.5504545 35.325,88.6609091 C36.6525,88.7379545 38.0304545,88.8490909 39.4077273,89.1190909 C40.0997727,89.2322727 40.7829545,89.4184091 41.4770455,89.5697727 C42.1561364,89.775 42.8529545,89.9372727 43.5231818,90.1827273 C44.1947727,90.4227273 44.8684091,90.6579545 45.5147727,90.9552273 L46.4890909,91.38 C46.8040909,91.5395455 47.1184091,91.6984091 47.4320455,91.8565909 C48.6886364,92.4831818 49.8484091,93.24 50.9365909,94.0077273 C52.0213636,94.7815909 53.0168182,95.6018182 53.8977273,96.4418182 C54.1213636,96.6477273 54.3422727,96.8509091 54.5597727,97.0513636 C54.7629545,97.2654545 54.9634091,97.4754545 55.1604545,97.6834091 C55.5456818,98.1061364 55.9404545,98.4913636 56.2759091,98.9018182 C56.9475,99.7193182 57.5781818,100.453636 58.0506818,101.171591 C58.5395455,101.875227 58.9868182,102.469773 59.295,103.002273 C59.9365909,104.048182 60.285,104.652273 60.285,104.652273 C60.285,104.652273 59.8343182,104.112955 59.0795455,103.157727 C58.7195455,102.666818 58.2102273,102.126818 57.6552273,101.49 C57.1131818,100.840227 56.4129545,100.189773 55.7038636,99.4363636 C55.3459091,99.0627273 54.9293182,98.7177273 54.5236364,98.3365909 C54.3197727,98.1477273 54.1125,97.9554545 53.9018182,97.7604545 C53.6795455,97.5784091 53.4545455,97.3936364 53.2261364,97.2061364 C52.3268182,96.4411364 51.3163636,95.7136364 50.2554545,94.9963636 C49.1884091,94.2859091 48.0381818,93.6286364 46.8368182,93.0313636 L45.93,92.5854545 L44.9945455,92.19 C44.3747727,91.9125 43.7270455,91.6977273 43.0840909,91.4727273 C42.4472727,91.2306818 41.7831818,91.0697727 41.1361364,90.8645455 C40.4740909,90.7131818 39.8222727,90.5256818 39.1602273,90.4111364 C37.8429545,90.1465909 36.5290909,89.9659091 35.25,89.8561364 C33.9702273,89.7729545 32.7259091,89.7075 31.5443182,89.7443182 C30.3634091,89.7661364 29.2452273,89.8411364 28.215,89.9454545 C26.1552273,90.1636364 24.4425,90.4663636 23.2609091,90.7581818 C22.6704545,90.9034091 22.2034091,91.0138636 21.8890909,91.1052273 C21.5754545,91.1979545 21.4077273,91.2477273 21.4077273,91.2477273" id="Fill-16038" fill="#FFFFFE"></path>
            <path d="M100.4325,54.0422727 C100.4325,54.0422727 100.257273,54.0375 99.9293182,54.0293182 C99.6020455,54.0136364 99.1186364,53.9959091 98.5097727,53.9202273 C97.2934091,53.7722727 95.5459091,53.5206818 93.5106818,52.9356818 C91.4734091,52.3690909 89.1470455,51.4745455 86.8090909,50.1975 C85.6527273,49.5395455 84.4663636,48.8297727 83.3522727,47.9775 C82.7809091,47.5704545 82.2511364,47.1 81.6961364,46.6575 C81.1779545,46.1720455 80.625,45.7179545 80.1327273,45.2011364 C79.6370455,44.6884091 79.1372727,44.1790909 78.6893182,43.6268182 L78.0040909,42.8134091 L77.37,41.9686364 C76.5204545,40.8511364 75.8161364,39.6586364 75.1806818,38.4879545 C74.5506818,37.3138636 74.0215909,36.1370455 73.6036364,34.9943182 C73.4945455,34.7106818 73.3868182,34.4304545 73.2811364,34.155 C73.1931818,33.8727273 73.1065909,33.5945455 73.0213636,33.3218182 C72.8638636,32.7722727 72.6804545,32.2513636 72.5618182,31.7352273 C72.3218182,30.7043182 72.0811364,29.7668182 71.9761364,28.9145455 C71.8493182,28.0670455 71.7115909,27.3354545 71.6713636,26.7218182 C71.5588636,25.4993182 71.5145455,24.8038636 71.5145455,24.8038636 C71.5145455,24.8038636 71.6788636,25.4870455 71.9331818,26.6775 C72.0388636,27.2768182 72.2556818,27.9872727 72.4718182,28.8040909 C72.6695455,29.6256818 73.0090909,30.5202273 73.3111364,31.5088636 C73.4665909,32.0025 73.6868182,32.4968182 73.8818182,33.0177273 C73.9813636,33.2775 74.0822727,33.5420455 74.1845455,33.81 C74.3031818,34.0718182 74.4231818,34.3370455 74.5445455,34.6063636 C75.0122727,35.6904545 75.5959091,36.7895455 76.2293182,37.9029545 C76.8709091,39.0129545 77.6113636,40.1120455 78.4234091,41.1790909 L79.0390909,41.9809091 L79.7031818,42.7493182 C80.1361364,43.2729545 80.6209091,43.7522727 81.0975,44.2390909 C81.5618182,44.7381818 82.0861364,45.1765909 82.575,45.6477273 C83.1020455,46.0759091 83.6031818,46.5327273 84.1459091,46.9288636 C85.2095455,47.7497727 86.3072727,48.4936364 87.4056818,49.1584091 C88.5163636,49.8 89.6025,50.4095455 90.6784091,50.8997727 C91.7475,51.4036364 92.7831818,51.8318182 93.7527273,52.1945455 C95.6959091,52.9111364 97.3656818,53.3986364 98.5540909,53.6597727 C99.1479545,53.7913636 99.6156818,53.8990909 99.9375,53.9563636 C100.26,54.0122727 100.4325,54.0422727 100.4325,54.0422727" id="Fill-16039" fill="#FFFFFE"></path>
        </g>
    </g>
</svg>