<?xml version="1.0" encoding="UTF-8"?>
<svg width="480px" height="360px" viewBox="0 0 480 360" version="1.1" xmlns="http://www.w3.org/2000/svg" xmlns:xlink="http://www.w3.org/1999/xlink">
    <!-- Generator: Sketch 51.1 (57501) - http://www.bohemiancoding.com/sketch -->
    <title>Seaside9</title>
    <desc>Created with Sketch.</desc>
    <defs></defs>
    <g id="Seaside9" stroke="none" stroke-width="1" fill="none" fill-rule="evenodd">
        <g id="Group" transform="translate(0.000000, -2.000000)">
            <polygon id="Fill-1" fill="#A8D4CA" points="0.299121172 361.21241 479.661252 361.21241 479.661252 0 0.299121172 0"></polygon>
            <path d="M0.299121172,282.913609 L479.661252,282.913609 L479.661252,114.855446 C479.661252,114.855446 419.472703,126.852889 347.07004,126.852889 C277.00474,126.852889 210.7347,95.1243142 152.159361,95.1243142 C59.1256458,95.1243142 0.299121172,114.709081 0.299121172,114.709081 L0.299121172,282.913609" id="Fill-2" fill="#B5DAD3"></path>
            <path d="M479.661252,360.573262 L0.299121172,360.573262 L0.299121172,201.463169 C0.299121172,201.463169 60.4863915,213.460613 132.891611,213.460613 C202.954354,213.460613 269.224394,181.732037 327.799734,181.732037 C420.834088,181.732037 479.661252,201.316804 479.661252,201.316804 L479.661252,360.573262" id="Fill-3" fill="#C4E4DF"></path>
            <path d="M479.661252,211.55787 C469.096138,213.247137 458.818642,214.958136 448.784021,218.671585 C431.162716,225.19281 415.452463,237.838349 396.738216,239.455393 C393.778961,239.711052 390.749401,239.687403 387.917976,240.587324 C383.680426,241.93273 380.376032,245.168096 376.675366,247.630732 C367.401332,253.808735 355.813582,255.054434 344.730759,256.210652 C340.256724,256.676591 335.571771,257.233289 331.883888,259.805859 C327.403462,262.931931 324.182157,269.00767 318.723835,268.834461 L479.661252,264.641651 L479.661252,211.55787" id="Fill-4" fill="#5A504A"></path>
            <path d="M80.311478,262.237816 C77.6513449,259.674194 75.6444208,256.622264 72.3924368,254.543755 C67.1443941,251.188868 59.792277,251.03739 53.7440213,248.705779 C50.694008,247.529747 47.978269,245.797656 44.7806125,244.90988 C41.7695872,244.074514 38.5207989,244.039361 35.338482,243.920479 C23.6657257,243.484581 11.4183755,241.795952 0.299121172,238.914674 L0.240958722,267.614328 C31.3674567,265.021944 67.8953928,276.712597 98.5649001,271.721491 C91.736245,266.233129 83.8172037,265.615073 80.311478,262.237816" id="Fill-5" fill="#5A504A"></path>
            <polyline id="Fill-6" fill="#FFFFFE" points="346.296671 266.017736 350.738748 186.450866 365.074834 186.450866 377.391212 264.156538 346.296671 266.017736"></polyline>
            <polyline id="Fill-7" fill="#FFFFFE" points="344.64767 185.966391 350.559787 189.595473 365.573369 189.595473 369.804527 184.50466 369.804527 176.867483 367.446072 176.867483 367.950999 184.350626 346.296671 185.453156 346.296671 176.867483 344.64767 176.867483 344.64767 185.966391"></polyline>
            <polyline id="Fill-8" fill="#FFFFFE" points="350.738748 186.450866 350.738748 172.698322 357.226099 167.02972 364.173635 173.170652 364.173635 186.450866 350.738748 186.450866"></polyline>
            <path d="M357.986684,166.684581 C357.986684,167.128788 357.62237,167.489268 357.181358,167.489268 C356.733955,167.489268 356.376032,167.128788 356.376032,166.684581 C356.376032,166.239734 356.586951,165.971931 357.034354,165.971931 C357.475366,165.971931 357.986684,166.239734 357.986684,166.684581" id="Fill-9" fill="#FFFFFE"></path>
            <polyline id="Fill-10" fill="#C4E4DF" points="352.151265 173.438455 362.275366 173.850067 362.275366 181.029614 352.151265 181.029614 352.151265 173.438455"></polyline>
            <polyline id="Fill-11" fill="#FFFFFE" points="354.918775 173.026205 355.506791 181.500666 356.376032 181.500666 355.922237 173.026205 354.918775 173.026205"></polyline>
            <polygon id="Fill-12" fill="#FFFFFE" points="358.804794 181.500666 359.744341 181.500666 359.744341 173.438455 358.804794 173.438455"></polygon>
            <path d="M346.034621,178.322823 C346.296671,178.381625 368.098003,178.322823 368.098003,178.322823 L368.098003,179.029081 L345.798136,179.029081 L346.034621,178.322823" id="Fill-13" fill="#FFFFFE"></path>
            <polyline id="Fill-14" fill="#FFFFFE" points="345.798136 182.736138 368.392011 181.971079 368.392011 182.736138 345.798136 183.231478 345.798136 182.736138"></polyline>
            <polyline id="Fill-15" fill="#FFFFFE" points="372.252463 231.753023 348.271638 230.657523 347.638881 241.936565 373.869507 241.936565 372.252463 231.753023"></polyline>
            <polyline id="Fill-16" fill="#FFFFFE" points="369.408256 213.798083 349.160053 214.704394 348.71265 222.684154 370.692943 221.912703 369.408256 213.798083"></polyline>
            <polyline id="Fill-17" fill="#FFFFFE" points="347.012517 253.130599 346.296671 266.017736 377.391212 264.156538 375.294807 250.907643 347.012517 253.130599"></polyline>
            <path d="M365.841811,191.317337 C361.661784,191.273875 353.51265,191.202929 350.470306,191.271957 L350.042077,198.898269 L366.826099,197.520266 L365.841811,191.317337" id="Fill-18" fill="#E15A4B"></path>
            <polyline id="Fill-19" fill="#E15A4B" points="368.321704 206.949614 349.594674 206.949614 349.160053 214.704394 369.408256 213.798083 368.321704 206.949614"></polyline>
            <polyline id="Fill-20" fill="#E15A4B" points="370.692943 221.912703 348.71265 222.684154 348.271638 230.657523 372.252463 231.753023 370.692943 221.912703"></polyline>
            <polyline id="Fill-21" fill="#E15A4B" points="373.869507 241.936565 347.638881 241.936565 347.012517 253.130599 375.294807 250.907643 373.869507 241.936565"></polyline>
            <polyline id="Fill-22" fill="#37393C" points="356.951265 260.000799 357.181358 247.533582 362.275366 247.533582 364.173635 260.000799 356.951265 260.000799"></polyline>
            <polyline id="Fill-23" fill="#37393C" points="357.181358 226.233981 360.754194 226.233981 360.262051 220.711744 357.181358 220.711744 357.181358 226.233981"></polyline>
            <polyline id="Fill-24" fill="#37393C" points="357.181358 208.96996 359.744341 208.96996 359.284154 204.453742 357.181358 204.453742 357.181358 208.96996"></polyline>
            <path d="M120.785513,278.906152 C115.347643,273.938056 102.962876,270.983915 93.4734487,268.81273 C89.1214913,267.816937 84.6135819,267.747909 80.2034621,267.052517 C68.8400533,265.262264 58.4462317,259.3853 47.1058322,257.454434 C41.2180027,256.45225 35.2080959,256.537257 29.241012,256.273289 C19.4543808,255.842503 9.70929427,254.463862 0.186631158,252.165486 L0.299121172,295.711904 L107.71494,287.574274 L120.785513,278.906152" id="Fill-25" fill="#696159"></path>
            <path d="M297.578908,277.981944 C306.132623,271.34759 316.416511,266.963675 327.128628,265.383063 C333.494541,264.444794 340.154461,264.435846 346.009055,261.761012 C348.846871,260.46482 351.416245,258.569108 354.388282,257.629561 C358.344607,256.379387 362.607723,256.932889 366.755792,256.804421 C377.85779,256.458642 388.320639,251.163941 399.409854,250.50498 C402.957124,250.294061 406.52996,250.561864 410.058056,250.159201 C418.341411,249.21518 425.72996,244.696405 433.649001,242.120639 C448.573103,237.272064 465.08229,239.401065 479.974434,234.474514 L479.974434,283.491398 L297.578908,277.981944" id="Fill-26" fill="#696159"></path>
            <path d="M479.661252,278.468975 C384.805326,273.485539 0.299121172,277.916112 0.299121172,277.916112 L0.299121172,345.11036 L479.661252,345.11036 L479.661252,278.468975" id="Fill-27" fill="#6EC0BD"></path>
            <path d="M479.661252,309.442077 C384.805326,305.57012 289.415712,306.806871 194.465193,308.900719 C92.5831158,311.147324 27.9345939,305.840479 0.299121172,309.011931 L0.299121172,361.21241 L479.661252,361.21241 L479.661252,309.442077" id="Fill-28" fill="#D1C5A4"></path>
            <path d="M131.00229,271.435792 C132.224341,269.672383 133.828602,268.326977 135.439893,267.055073 C139.093262,264.171877 143.158242,261.459334 147.565166,261.512383 C153.81731,261.587803 158.855073,267.05763 163.700453,271.61731 C170.023542,277.568415 175.908815,283.928575 183.42008,287.584501 C168.706897,289.344714 155.096884,288.841704 140.313395,288.993822 C136.899707,289.028975 115.347643,289.395846 115.347643,289.395846 C115.347643,289.395846 129.20245,274.033928 131.00229,271.435792" id="Fill-29" fill="#757166"></path>
            <path d="M135.623329,266.579547 C134.012037,267.852091 132.488948,269.455712 130.631585,271.511212 C128.553715,273.812144 115.347643,289.395846 115.347643,289.395846 C115.347643,289.395846 135.503169,289.053262 139.917763,288.998296 C137.71526,288.068975 135.579867,286.448735 134.789241,283.908762 C134.678668,283.552117 134.598136,283.150732 134.724687,282.801119 C134.950945,282.177949 135.660399,282.073129 136.241385,282.062903 C138.396591,282.025193 141.122557,283.656298 142.705726,281.950413 C143.623542,280.96229 141.530333,279.512703 140.404794,278.894647 C139.277976,278.276591 137.108708,277.028336 137.945992,275.949454 C140.650866,272.464181 145.976884,275.091718 149.99265,274.66285 C150.760905,274.580399 151.810386,273.841545 151.335499,273.139121 C151.183382,272.912863 150.920692,272.838083 150.677816,272.778003 C148.149987,272.147803 144.136778,273.431212 143.093049,270.888682 C141.432543,266.844794 150.912383,269.161065 153.899121,265.076272 C154.598349,264.121385 153.716325,262.27233 148.254807,261.54498 C148.026631,261.527084 147.796538,261.51494 147.565166,261.512383 C143.158242,261.459334 139.276698,263.696991 135.623329,266.579547" id="Fill-30" fill="#696159"></path>
            <path d="M155.085379,270.67968 C154.359308,270.742317 153.56996,270.787057 152.9698,270.31217 C152.569694,269.995792 152.301891,269.357284 152.531984,268.860666 C152.774221,268.338482 153.382051,268.266258 153.892091,268.259867 C155.292463,268.241332 156.695393,268.224075 158.090013,268.363409 C158.522077,268.406871 158.969481,268.471425 159.338269,268.736032 C159.707057,269 160.197284,269.681971 159.863009,270.006019 C158.651824,271.182051 156.640426,270.695659 155.085379,270.67968" id="Fill-31" fill="#696159"></path>
            <path d="M152.927617,280.544288 C150.351851,281.247989 149.219281,282.910413 149.02498,283.167989 C148.830679,283.424927 148.728415,283.809694 148.861997,284.11265 C149.019228,284.468655 149.412304,284.563888 149.756165,284.611824 C152.258429,284.958242 154.804794,284.885379 157.292996,284.395153 C157.562716,284.342104 157.850333,284.273076 158.044634,284.049374 C158.311798,283.741305 158.316911,283.234461 158.201864,282.820932 C157.533316,280.413901 154.54466,280.103276 152.927617,280.544288" id="Fill-32" fill="#696159"></path>
            <path d="M134.066365,277.199627 C133.880373,276.94269 133.578695,276.85257 133.296831,276.782903 C132.638509,276.620559 131.974434,276.498482 131.305885,276.414754 C131.121172,276.391744 130.925593,276.374487 130.759414,276.470999 C130.610493,276.557284 130.224447,276.841065 130.136245,277.004687 C129.858855,277.517923 129.571877,278.002397 129.796858,278.545672 C130.191851,279.498642 131.569854,279.115792 132.474887,278.969427 C132.474887,278.969427 133.089108,279.056352 133.595952,278.785992 C134.102796,278.514993 134.423648,277.69241 134.066365,277.199627" id="Fill-33" fill="#757166"></path>
            <path d="M219.589454,104.813156 C196.203675,99.400213 173.664128,95.1243142 152.159361,95.1243142 C150.183755,95.1243142 148.227324,95.1332623 146.282397,95.1505193 C145.945566,85.0078828 149.689694,74.7604261 157.493688,67.0817044 C164.818322,59.8740346 174.349294,56.2781891 183.873236,56.2781891 C193.601704,56.2781891 203.323142,60.0280692 210.685486,67.5099334 C221.399521,78.3984554 224.556911,92.381731 219.589454,104.813156" id="Fill-34" fill="#B6D9D1"></path>
            <path d="M181.016245,129.973209 C172.204314,129.973209 163.620559,126.935979 157.06482,120.273502 C150.173529,113.27036 146.584714,104.252623 146.282397,95.1505193 C148.227324,95.1332623 150.183755,95.1243142 152.159361,95.1243142 C173.664128,95.1243142 196.203675,99.400213 219.589454,104.813156 C217.802397,109.28719 214.962663,113.559893 211.044048,117.415872 C202.899387,125.430146 191.788442,129.973209 181.016245,129.973209" id="Fill-35" fill="#C1E1D9"></path>
            <path d="M198.388921,92.8930493 C198.388921,101.255659 191.61012,108.0351 183.24751,108.0351 C174.8849,108.0351 168.105459,101.255659 168.105459,92.8930493 C168.105459,84.5304394 173.730599,78.4725965 182.093209,78.4725965 C190.455819,78.4725965 198.388921,84.5304394 198.388921,92.8930493" id="Fill-36" fill="#FFFFFE"></path>
            <path d="M363.63036,335.459228 C363.617577,335.205486 362.690812,335.062317 362.690812,335.062317 C361.776831,334.676272 356.177896,334.191158 355.532357,334.387377 C355.302264,334.458961 360.945939,335.614541 362.403196,335.747483 C362.403196,335.747483 358.907057,337.065406 357.737417,337.919947 C356.567776,338.774487 362.588549,336.501039 362.588549,336.501039 C362.588549,336.501039 360.920373,340.128842 360.760586,340.832543 C360.60719,341.536884 363.700666,336.419228 363.63036,335.459228" id="Fill-37" fill="#C2B494"></path>
            <path d="M386.070839,335.459228 C386.058056,335.205486 385.131292,335.062317 385.131292,335.062317 C384.21731,334.676272 378.618375,334.191158 377.972836,334.387377 C377.736352,334.458961 383.386418,335.614541 384.843675,335.747483 C384.843675,335.747483 381.347537,337.065406 380.177896,337.919947 C379.008256,338.774487 385.029028,336.501039 385.029028,336.501039 C385.029028,336.501039 383.360852,340.128842 383.201065,340.832543 C383.041278,341.536884 386.134754,336.419228 386.070839,335.459228" id="Fill-38" fill="#C2B494"></path>
            <path d="M408.511318,333.989188 C408.492144,333.735446 407.571771,333.592277 407.571771,333.592277 C406.65779,333.206871 401.058855,332.721119 400.413316,332.917337 C400.176831,332.988921 405.826897,334.144501 407.284154,334.277443 C407.284154,334.277443 403.788016,335.595366 402.618375,336.449907 C401.448735,337.304447 407.469507,335.030999 407.469507,335.030999 C407.469507,335.030999 405.801332,338.658802 405.641545,339.362503 C405.481758,340.066844 408.575233,334.949188 408.511318,333.989188" id="Fill-39" fill="#C2B494"></path>
            <path d="M426.822903,343.697843 C427.02743,343.544447 426.643941,342.693742 426.643941,342.693742 C426.471372,341.717763 423.8253,336.756698 423.30759,336.322077 C423.122237,336.164208 425.231425,341.530493 425.908921,342.824128 C425.908921,342.824128 422.904927,340.611398 421.549933,340.094967 C420.19494,339.578535 425.378429,343.391052 425.378429,343.391052 C425.378429,343.391052 421.422104,343.963728 420.744607,344.214274 C420.073502,344.466099 426.049534,344.274993 426.822903,343.697843" id="Fill-40" fill="#C2B494"></path>
            <path d="M435.54727,356.14972 C435.802929,356.148442 436.007457,355.237656 436.007457,355.237656 C436.448469,354.351158 437.292144,348.794407 437.138748,348.137364 C437.081225,347.898961 435.566445,353.460186 435.342743,354.90466 C435.342743,354.90466 434.2498,351.333103 433.47004,350.110413 C432.696671,348.888362 434.575766,355.043356 434.575766,355.043356 C434.575766,355.043356 431.060453,353.139973 430.370173,352.937364 C429.679893,352.734754 434.588549,356.152916 435.54727,356.14972" id="Fill-41" fill="#C2B494"></path>
            <path d="M353.372037,327.467963 C353.493475,327.691664 352.796804,328.307164 352.796804,328.307164 C352.227963,329.122716 347.766711,332.538961 347.11478,332.71984 C346.878296,332.785033 351.026365,328.778216 352.183222,327.884048 C352.183222,327.884048 348.527297,328.648469 347.082823,328.555153 C345.638349,328.462477 351.933955,327.14775 351.933955,327.14775 C351.933955,327.14775 348.578429,324.984874 348.067111,324.475473 C347.555792,323.966072 352.911851,326.623009 353.372037,327.467963" id="Fill-42" fill="#C2B494"></path>
            <path d="M376.637017,324.530439 C376.758455,324.75478 376.061784,325.36964 376.061784,325.36964 C375.492943,326.185832 371.031691,329.601438 370.37976,329.782317 C370.143276,329.848149 374.291345,325.841332 375.448202,324.947164 C375.448202,324.947164 371.792277,325.710945 370.347803,325.618269 C368.903329,325.525593 375.198935,324.210866 375.198935,324.210866 C375.198935,324.210866 371.843409,322.047989 371.332091,321.538589 C370.820772,321.029188 376.176831,323.685486 376.637017,324.530439" id="Fill-43" fill="#C2B494"></path>
            <path d="M395.952064,325.034727 C396.073502,325.258429 395.370439,325.873289 395.370439,325.873289 C394.807989,326.689481 390.346738,330.105087 389.694807,330.285965 C389.458322,330.351798 393.606391,326.344341 394.763249,325.450812 C394.763249,325.450812 391.107324,326.214594 389.66285,326.121917 C388.218375,326.028602 394.513981,324.715153 394.513981,324.715153 C394.513981,324.715153 391.158455,322.551638 390.647137,322.042237 C390.135819,321.532836 395.491877,324.189134 395.952064,325.034727" id="Fill-44" fill="#C2B494"></path>
            <path d="M419.881758,326.920852 C419.939281,327.168202 419.101997,327.575979 419.101997,327.575979 C418.341411,328.213848 413.132357,330.328149 412.45486,330.330067 C412.211984,330.331345 417.267643,327.563196 418.622636,327.006498 C418.622636,327.006498 414.896405,326.777044 413.528628,326.305353 C412.154461,325.833662 418.577896,326.231851 418.577896,326.231851 C418.577896,326.231851 415.91265,323.257257 415.554727,322.630892 C415.196804,322.004527 419.658056,325.983862 419.881758,326.920852" id="Fill-45" fill="#C2B494"></path>
            <path d="M441.612783,338.008149 C441.568043,338.258695 440.634887,338.287457 440.634887,338.287457 C439.682557,338.558455 434.064447,338.355206 433.444474,338.081012 C433.220772,337.981305 438.966711,337.525593 440.43036,337.571611 C440.43036,337.571611 437.125965,335.836325 436.06498,334.845646 C435.010386,333.854328 440.711585,336.846818 440.711585,336.846818 C440.711585,336.846818 439.490812,333.041971 439.420506,332.324208 C439.3502,331.605806 441.798136,337.064128 441.612783,338.008149" id="Fill-46" fill="#C2B494"></path>
            <path d="M451.813582,351.936458 C451.660186,352.140346 450.81012,351.753023 450.81012,351.753023 C449.838615,351.574061 444.891611,348.908176 444.456991,348.389188 C444.303595,348.201278 449.659654,350.334115 450.944341,351.021198 C450.944341,351.021198 448.752064,348.002503 448.240746,346.646871 C447.729427,345.290599 451.519574,350.493901 451.519574,350.493901 C451.519574,350.493901 452.10759,346.543968 452.363249,345.869028 C452.618908,345.194727 452.395206,351.17012 451.813582,351.936458" id="Fill-47" fill="#C2B494"></path>
            <path d="M158.748975,336.809108 C158.765593,336.561119 159.664874,336.422423 159.664874,336.422423 C160.555206,336.045965 166.012889,335.572996 166.643089,335.76474 C166.871265,335.833768 161.366285,336.960586 159.946738,337.090333 C159.946738,337.090333 163.352117,338.374381 164.492357,339.20719 C165.632597,340.04 159.764581,337.824075 159.764581,337.824075 C159.764581,337.824075 161.394407,341.360479 161.547803,342.046924 C161.700559,342.73273 158.68506,337.744181 158.748975,336.809108" id="Fill-48" fill="#C2B494"></path>
            <path d="M180.798935,338.938748 C180.703702,338.709294 181.445752,338.183915 181.445752,338.183915 C182.074035,337.448895 186.744288,334.586152 187.393662,334.476218 C187.628229,334.435952 183.207244,337.904607 181.996059,338.654967 C181.996059,338.654967 185.616831,338.281704 187.008895,338.516911 C188.40032,338.752117 182.161598,339.393182 182.161598,339.393182 C182.161598,339.393182 185.200107,341.828336 185.643675,342.373529 C186.087244,342.918722 181.160053,339.804794 180.798935,338.938748" id="Fill-49" fill="#C2B494"></path>
            <path d="M199.681917,334.63217 C199.543862,334.457683 200.05518,333.823648 200.05518,333.823648 C200.418216,333.038775 203.745619,329.437177 204.278668,329.184714 C204.471691,329.092676 201.505406,333.155739 200.644474,334.096565 C200.644474,334.096565 203.672756,332.894967 204.929321,332.759467 C206.185885,332.623968 200.965965,334.692889 200.965965,334.692889 C200.965965,334.692889 204.175126,336.051718 204.69028,336.413475 C205.204794,336.775872 200.203462,335.289854 199.681917,334.63217" id="Fill-50" fill="#C2B494"></path>
            <path d="M215.397923,326.18008 C215.184447,326.116804 215.236858,325.303808 215.236858,325.303808 C215.080266,324.453103 215.721971,319.591744 216.010866,319.07787 C216.115686,318.891877 216.035792,323.921332 215.875366,325.186844 C215.875366,325.186844 217.656032,322.458961 218.603888,321.623595 C219.552383,320.788229 216.481278,325.487883 216.481278,325.487883 C216.481278,325.487883 219.887297,324.74775 220.516858,324.745832 C221.146418,324.744554 216.203249,326.416565 215.397923,326.18008" id="Fill-51" fill="#C2B494"></path>
            <path d="M136.876059,336.809108 C136.893316,336.561119 137.791957,336.422423 137.791957,336.422423 C138.68229,336.045965 144.139973,335.572996 144.770173,335.76474 C144.998349,335.833768 139.493369,336.960586 138.073822,337.090333 C138.073822,337.090333 141.479201,338.374381 142.62008,339.20719 C143.75968,340.04 137.891025,337.824075 137.891025,337.824075 C137.891025,337.824075 139.521491,341.360479 139.674248,342.046924 C139.827643,342.73273 136.812783,337.744181 136.876059,336.809108" id="Fill-52" fill="#C2B494"></path>
            <path d="M115.003782,335.376138 C115.020399,335.128149 115.919041,334.989454 115.919041,334.989454 C116.810013,334.613635 122.267057,334.140027 122.897257,334.331132 C123.126072,334.401438 117.619814,335.527617 116.201545,335.658003 C116.201545,335.658003 119.606924,336.941411 120.746525,337.774221 C121.886764,338.607031 116.018109,336.391744 116.018109,336.391744 C116.018109,336.391744 117.647936,339.92751 117.801332,340.613955 C117.955366,341.300399 114.939228,336.311851 115.003782,335.376138" id="Fill-53" fill="#C2B494"></path>
            <path d="M97.1574967,344.839361 C96.9580826,344.6898 97.3313449,343.860826 97.3313449,343.860826 C97.500719,342.909134 100.074567,338.073981 100.578855,337.649587 C100.761012,337.496192 98.7087084,342.726338 98.045273,343.988016 C98.045273,343.988016 100.977044,341.830253 102.297523,341.327883 C103.616724,340.824874 98.5623435,344.540879 98.5623435,344.540879 C98.5623435,344.540879 102.417044,345.098216 103.076644,345.343009 C103.736245,345.588442 97.9078562,345.40245 97.1574967,344.839361" id="Fill-54" fill="#C2B494"></path>
            <path d="M88.6491611,356.976778 C88.4005326,356.975499 88.2043142,356.087723 88.2043142,356.087723 C87.7716112,355.223595 86.9483888,349.807457 87.0992277,349.166391 C87.1541944,348.934381 88.6319041,354.355632 88.8530493,355.763036 C88.8530493,355.763036 89.9165912,352.281598 90.6746205,351.090226 C91.4326498,349.898855 89.5976565,355.897896 89.5976565,355.897896 C89.5976565,355.897896 93.0228495,354.04245 93.6984288,353.845593 C94.3727297,353.648096 89.5867909,356.979973 88.6491611,356.976778" id="Fill-55" fill="#C2B494"></path>
            <path d="M168.747803,329.019174 C168.628921,329.237763 169.31281,329.837284 169.31281,329.837284 C169.862477,330.632383 174.212517,333.961704 174.84719,334.138748 C175.077284,334.202024 171.03723,330.296831 169.909774,329.425672 C169.909774,329.425672 173.471744,330.17028 174.881065,330.079521 C176.289747,329.988762 170.149454,328.707909 170.149454,328.707909 C170.149454,328.707909 173.423169,326.599361 173.920426,326.102104 C174.418961,325.606125 169.196485,328.195952 168.747803,329.019174" id="Fill-56" fill="#C2B494"></path>
            <path d="M185.691611,326.313023 C185.659015,326.559734 186.513555,326.872277 186.513555,326.872277 C187.31249,327.416192 192.571398,328.952064 193.226525,328.888149 C193.464288,328.86514 188.28783,326.679254 186.921332,326.273395 C186.921332,326.273395 190.512703,325.682823 191.794194,325.089694 C193.075686,324.497843 186.886178,325.517284 186.886178,325.517284 C186.886178,325.517284 189.178802,322.370759 189.464501,321.727776 C189.749561,321.084794 185.813049,325.383702 185.691611,326.313023" id="Fill-57" fill="#C2B494"></path>
            <path d="M201.047776,322.009001 C201.021571,322.207776 201.710573,322.46024 201.710573,322.46024 C202.355473,322.899334 206.598775,324.138642 207.127989,324.086871 C207.319734,324.068336 203.142264,322.304288 202.039734,321.976405 C202.039734,321.976405 204.938269,321.499601 205.97241,321.021518 C207.005912,320.543435 202.010972,321.366019 202.010972,321.366019 C202.010972,321.366019 203.861944,318.826684 204.091398,318.308336 C204.32213,317.789987 201.144927,321.258642 201.047776,322.009001" id="Fill-58" fill="#C2B494"></path>
            <path d="M146.072117,326.156431 C145.953236,326.37502 146.637124,326.974541 146.637124,326.974541 C147.186791,327.77028 151.536831,331.099601 152.171505,331.275366 C152.400959,331.33992 148.361545,327.433449 147.233449,326.56229 C147.233449,326.56229 150.796698,327.306897 152.205379,327.216778 C153.614061,327.126019 147.473768,325.844527 147.473768,325.844527 C147.473768,325.844527 150.746844,323.736618 151.245379,323.24 C151.742636,322.743382 146.52016,325.33257 146.072117,326.156431" id="Fill-59" fill="#C2B494"></path>
            <path d="M127.245379,326.647297 C127.125859,326.865885 127.810386,327.465406 127.810386,327.465406 C128.359414,328.260506 132.710093,331.589827 133.344128,331.766871 C133.574221,331.830146 129.534168,327.924953 128.406711,327.053156 C128.406711,327.053156 131.969321,327.798402 133.378642,327.707004 C134.787324,327.616884 128.646391,326.336032 128.646391,326.336032 C128.646391,326.336032 131.920107,324.227483 132.418003,323.730226 C132.915899,323.234248 127.693422,325.824075 127.245379,326.647297" id="Fill-60" fill="#C2B494"></path>
            <path d="M103.921598,328.486125 C103.864714,328.727723 104.682823,329.125273 104.682823,329.125273 C105.422956,329.747164 110.499068,331.807137 111.158029,331.809694 C111.396431,331.810333 106.467324,329.111851 105.149401,328.569854 C105.149401,328.569854 108.781678,328.345513 110.116858,327.885326 C111.452037,327.426418 105.190945,327.814381 105.190945,327.814381 C105.190945,327.814381 107.78972,324.915206 108.138695,324.30482 C108.48767,323.694434 104.136352,327.572783 103.921598,328.486125" id="Fill-61" fill="#C2B494"></path>
            <path d="M82.7364048,339.293475 C82.7837017,339.53763 83.6925699,339.565752 83.6925699,339.565752 C84.62253,339.82972 90.09747,339.631585 90.6989081,339.364421 C90.9174967,339.267909 85.3153662,338.823702 83.8913449,338.867803 C83.8913449,338.867803 87.1139281,337.177257 88.1435952,336.210866 C89.1732623,335.244474 83.6203462,338.162184 83.6203462,338.162184 C83.6203462,338.162184 84.8053262,334.45257 84.8730759,333.752703 C84.9414647,333.052836 82.5587217,338.373103 82.7364048,339.293475" id="Fill-62" fill="#C2B494"></path>
            <path d="M71.6606125,352.303968 C71.8101731,352.502104 72.6378695,352.124368 72.6378695,352.124368 C73.5895606,351.950519 78.4119308,349.351105 78.8331292,348.845539 C78.9858855,348.662104 73.7653262,350.741252 72.5074834,351.411718 C72.5074834,351.411718 74.6499068,348.46972 75.1458855,347.147324 C75.6425033,345.825566 71.9520639,350.897843 71.9520639,350.897843 C71.9520639,350.897843 71.3742743,347.047617 71.1256458,346.389933 C70.8776565,345.731611 71.0936884,351.556804 71.6606125,352.303968" id="Fill-63" fill="#C2B494"></path>
            <path d="M101.411664,314.336032 C135.420719,316.1902 169.500719,314.056724 203.532783,312.678083 C295.46972,308.953129 387.662317,310.740826 479.661252,312.527883 L479.661252,303.809907 C456.38988,308.485273 433.386951,302.207563 409.719308,300.424341 C381.526498,298.298535 353.205859,302.350732 324.949134,301.438029 C304.943808,300.791212 284.990892,297.656192 264.995792,298.612996 C243.519787,299.639467 222.434301,305.371345 200.938482,305.805965 C174.731505,306.335819 148.76996,298.974754 122.587909,300.241545 C110.019068,300.850013 97.5691079,303.444314 84.9868442,303.368256 C75.0774967,303.307537 65.2608256,301.592064 55.3872703,300.752224 C46.0537949,299.959041 36.6538482,299.955846 27.3184554,300.731132 C25.4949667,300.88261 10.1228229,301.845806 0.299121172,300.54514 L0.299121172,309.011931 C2.15073236,311.20229 17.8673768,309.40245 24.3150999,308.955047 C29.2390945,308.613742 34.1829028,309.197284 39.1107324,309.46253 C48.8270573,309.986631 58.521012,310.84245 68.211771,311.712969 C79.2677497,312.704288 90.3250067,313.732037 101.411664,314.336032" id="Fill-64" fill="#EFE6DC"></path>
            <path d="M122.904288,361.213049 C122.904288,361.213049 147.963995,305.284421 153.698429,293.753555 C159.432224,282.222051 165.783435,275.104501 182.665246,284.336352 C199.614807,293.605912 180.004474,361.213049 180.004474,361.213049 L122.904288,361.213049" id="Fill-65" fill="#FFFFFE"></path>
            <path d="M155.132676,306.926391 C155.132676,306.926391 160.603782,297.730333 170.403196,300.287563 C179.027856,302.538003 182.706152,309.224128 182.111105,314.138535 L166.556804,318.255286 L155.132676,306.926391" id="Fill-66" fill="#BB933F"></path>
            <path d="M157.62727,299.03036 C157.62727,300.064501 156.789348,300.903063 155.755206,300.903063 C154.721065,300.903063 153.883142,300.064501 153.883142,299.03036 C153.883142,297.996858 154.441119,297.381997 155.47526,297.381997 C156.508762,297.381997 157.62727,297.996858 157.62727,299.03036" id="Fill-67" fill="#37393C"></path>
            <path d="M184.103968,306.539068 C183.235366,305.977896 182.986099,304.819121 183.54727,303.950519 C184.107803,303.081917 185.266578,302.83265 186.135819,303.393182 C187.003782,303.954354 187.217257,304.757124 186.656724,305.625087 C186.095553,306.494328 184.97257,307.10024 184.103968,306.539068" id="Fill-68" fill="#37393C"></path>
            <path d="M155.408149,299.099387 C155.04,299.121119 154.724261,298.839893 154.703169,298.471744 C154.682077,298.102956 154.962663,297.787217 155.330812,297.765486 C155.699601,297.744394 155.930333,297.930386 155.951425,298.298535 C155.972517,298.667324 155.776937,299.078296 155.408149,299.099387" id="Fill-69" fill="#FFFFFE"></path>
            <path d="M185.670519,305.306791 C185.30237,305.328522 184.986631,305.047297 184.9649,304.679148 C184.943169,304.310999 185.225033,303.99526 185.593182,303.972889 C185.961332,303.951798 186.191425,304.138429 186.213795,304.506578 C186.234887,304.874727 186.038668,305.285699 185.670519,305.306791" id="Fill-70" fill="#FFFFFE"></path>
            <path d="M314.614115,110.66008 C314.614115,110.66008 285.443409,95.2208256 281.834141,93.951478 C278.225513,92.6814913 290.791158,118.260826 303.786951,119.450919 C316.780826,120.641012 314.614115,110.66008 314.614115,110.66008" id="Fill-71" fill="#4E7676"></path>
            <polyline id="Fill-72" fill="#AB853D" points="332.593342 135.843782 332.465513 133.643196 331.80719 131.521864 330.899601 132.039574 329.352863 133.255872 329.710786 133.703915 332.593342 135.843782"></polyline>
            <path d="M325.351798,130.853316 C325.639414,130.786205 325.927031,130.963249 325.990945,131.248948 C326.061252,131.535286 325.88229,131.821625 325.594674,131.888735 C325.313449,131.955846 325.051398,131.856138 324.981092,131.570439 C324.917177,131.284101 325.070573,130.919787 325.351798,130.853316" id="Fill-73" fill="#BB933F"></path>
            <path d="M329.161119,133.691132 C329.161119,133.691132 332.331292,135.656511 332.644474,135.827164 C332.957656,135.997816 330.401065,134.003036 329.761917,133.569694 C329.761917,133.569694 331.756059,133.725007 332.516644,133.627217 C333.283622,133.529427 329.819441,133.179174 329.819441,133.179174 C329.819441,133.179174 331.602663,131.791585 331.858322,131.505885 C332.113981,131.219547 330.439414,131.964154 329.148336,133.263542 L328.854328,133.417577 L329.161119,133.691132" id="Fill-74" fill="#BB933F"></path>
            <polyline id="Fill-75" fill="#BB933F" points="321.708655 127.718935 325.396538 131.626045 329.161119 133.691132 329.423169 133.217523 325.658589 131.153076 321.957923 127.262583 321.708655 127.718935"></polyline>
            <polyline id="Fill-76" fill="#AB853D" points="342.103862 130.573369 341.247403 128.545353 339.905193 126.773635 339.221305 127.569374 338.185885 129.236911 338.671638 129.537949 342.103862 130.573369"></polyline>
            <path d="M333.603196,128.331238 C333.852463,128.171451 334.178429,128.241119 334.344607,128.48719 C334.504394,128.733901 334.434088,129.063063 334.18482,129.22285 C333.941944,129.383276 333.660719,129.377523 333.500932,129.131451 C333.341145,128.885379 333.36032,128.491664 333.603196,128.331238" id="Fill-77" fill="#BB933F"></path>
            <path d="M338.153928,129.710519 C338.153928,129.710519 341.797071,130.487084 342.148602,130.540772 C342.506525,130.594461 339.425832,129.583329 338.671638,129.393502 C338.671638,129.393502 340.601864,128.863009 341.285752,128.512756 C341.96964,128.162503 338.59494,129.006178 338.59494,129.006178 C338.59494,129.006178 339.802929,127.096405 339.949933,126.741039 C340.090546,126.386312 338.76751,127.654381 337.994141,129.312969 L337.770439,129.557763 L338.153928,129.710519" id="Fill-78" fill="#BB933F"></path>
            <polyline id="Fill-79" fill="#BB933F" points="329.109987 126.618961 333.909987 129.043249 338.153928 129.710519 338.237017 129.176831 333.993076 128.509561 329.193076 126.104447 329.109987 126.618961"></polyline>
            <path d="M326.22743,128.565806 C326.22743,128.565806 310.593875,132.126498 306.260453,118.86482 C302.451132,107.213795 301.799201,99.823968 303.91478,97.9519041 C305.538216,96.5227696 308.810652,95.9852463 310.427696,98.9604794 C312.051132,101.935073 317.886551,112.004847 322.232756,113.336831 C328.982157,115.405752 342.70466,104.564527 345.593609,102.505832 C348.476165,100.447776 351.211718,122.205646 326.22743,128.565806" id="Fill-80" fill="#FFFFFE"></path>
            <path d="M308.593342,104.047457 C308.932091,104.425832 308.900133,105.008096 308.523036,105.348762 C308.145939,105.688788 307.564314,105.658109 307.219174,105.279734 C306.880426,104.901358 306.816511,104.421997 307.193609,104.081971 C307.570706,103.741944 308.254594,103.66972 308.593342,104.047457" id="Fill-81" fill="#D7D0C4"></path>
            <path d="M304.080959,105.181305 C304.438881,105.087989 304.828762,104.970386 305.020506,104.655925 C305.327297,104.158029 304.905459,103.474141 304.349401,103.290067 C303.793342,103.105992 303.192543,103.262583 302.623702,103.406391 C297.987963,104.582423 293.177097,104.853422 288.432703,105.47723 C287.987217,105.536032 287.511052,105.611451 287.181252,105.918242 C286.868708,106.209694 286.752383,106.650706 286.666738,107.069348 C286.532517,107.723196 286.436005,108.385353 286.377843,109.050706 C292.385193,108.769481 298.28964,106.689694 304.080959,105.181305" id="Fill-82" fill="#BB933F"></path>
            <path d="M314.141145,107.521225 C314.141145,107.521225 340.474035,87.6213582 343.829561,85.7921172 C347.191478,83.962237 338.869774,111.219973 326.233822,114.47004 C313.591478,117.720107 314.141145,107.521225 314.141145,107.521225" id="Fill-83" fill="#4E7676"></path>
            <path d="M321.337949,110.854381 C323.868975,112.270093 326.694008,112.539814 329.538216,112.787803 C329.736352,112.805699 329.736352,112.491877 329.538216,112.478455 C326.732357,112.28735 323.958455,111.990146 321.414647,110.718242 C321.325166,110.672863 321.248469,110.804527 321.337949,110.854381" id="Fill-84" fill="#466B6A"></path>
            <path d="M324.993875,107.393395 C327.659121,108.846818 330.790945,109.551158 333.826897,109.498748 C334.025033,109.494913 334.025033,109.198988 333.826897,109.189401 C330.707856,109.043036 327.940346,108.391744 325.045007,107.264288 C324.968309,107.234887 324.923569,107.355686 324.993875,107.393395" id="Fill-85" fill="#466B6A"></path>
            <path d="M329.397603,103.214008 C332.075632,104.255819 334.862317,104.641864 337.719308,104.336991 C337.955792,104.311425 337.962184,103.94008 337.719308,103.963089 C336.108655,104.116485 334.517177,104.110093 332.919308,103.826312 C331.736884,103.616671 330.611984,103.199308 329.423169,103.043356 C329.320905,103.029294 329.314514,103.181411 329.397603,103.214008" id="Fill-86" fill="#466B6A"></path>
            <path d="M334.498003,98.1308655 C336.274834,98.9003995 338.479893,99.5619174 340.429294,99.1797071 C340.569907,99.1522237 340.512383,98.96751 340.397337,98.9515313 C338.396804,98.6830892 336.511318,98.6415446 334.5747,97.9544607 C334.472437,97.9180293 334.395739,98.0874035 334.498003,98.1308655" id="Fill-87" fill="#466B6A"></path>
            <path d="M337.604261,94.755526 C338.991212,95.3691079 340.659387,95.4279095 342.148602,95.3128628 C342.372304,95.2956059 342.378695,94.9396005 342.148602,94.9555792 C340.601864,95.0623169 339.195739,94.7894008 337.680959,94.5759254 C337.585087,94.5618642 337.495606,94.7056724 337.604261,94.755526" id="Fill-88" fill="#466B6A"></path>
            <path d="M340.563515,91.326498 C341.055659,91.4460186 341.554194,91.5201598 342.05273,91.6006924 C342.493742,91.672277 342.934754,91.7866844 343.382157,91.7617577 C343.509987,91.754727 343.52277,91.5898269 343.407723,91.5463648 C342.947537,91.3712383 342.410652,91.3463116 341.918509,91.2753662 C341.477497,91.2108123 341.042876,91.14498 340.595473,91.1143009 C340.474035,91.105992 340.448469,91.2977364 340.563515,91.326498" id="Fill-89" fill="#466B6A"></path>
            <path d="M298.918562,117.923356 C301.192011,118.132357 302.949667,115.692091 304.119308,114.092304 C304.202397,113.977896 304.023435,113.849427 303.927563,113.944021 C302.35526,115.492676 301.223968,117.302104 298.878935,117.631904 C298.701891,117.656831 298.764527,117.909294 298.918562,117.923356" id="Fill-90" fill="#466B6A"></path>
            <path d="M294.098748,114.321119 C295.504234,114.294913 297.039467,113.511957 298.253848,112.838935 C299.397923,112.205539 300.546471,111.309454 300.878828,109.991531 C300.898003,109.89502 300.770173,109.845806 300.719041,109.925699 C299.162716,112.236218 296.742903,113.452517 294.068708,114.096138 C293.942796,114.126818 293.969001,114.323675 294.098748,114.321119" id="Fill-91" fill="#466B6A"></path>
            <path d="M290.610919,110.870999 C292.727137,110.783435 295.145672,109.780613 296.734594,108.385353 C296.841971,108.291398 296.705193,108.127776 296.585672,108.192969 C295.572623,108.751585 294.617736,109.337044 293.531824,109.756325 C292.564794,110.129587 291.569001,110.318136 290.57257,110.586578 C290.417896,110.628123 290.445379,110.878029 290.610919,110.870999" id="Fill-92" fill="#466B6A"></path>
            <path d="M285.779601,104.076218 C288.026205,104.336991 290.481172,103.353342 292.002344,101.706897 C292.086072,101.616778 291.972304,101.446125 291.863648,101.527297 C289.96474,102.943648 288.134221,103.571292 285.779601,103.754088 C285.569321,103.770706 285.575073,104.053209 285.779601,104.076218" id="Fill-93" fill="#466B6A"></path>
            <path d="M283.295233,99.9773635 C284.499387,100.426684 286.714035,99.620719 287.518722,98.6696671 C287.578162,98.6 287.523835,98.4581092 287.417736,98.4977364 C286.734487,98.7565912 286.137523,99.170759 285.435739,99.3982956 C284.735233,99.6245539 283.974008,99.5791744 283.295233,99.8284421 C283.221731,99.8559254 283.22237,99.9505193 283.295233,99.9773635" id="Fill-94" fill="#466B6A"></path>
            <path d="M306.720639,102.600426 C306.407457,102.399734 306.317976,101.984288 306.522503,101.673023 C306.720639,101.361119 307.136085,101.271638 307.449268,101.472969 C307.76245,101.674301 307.839148,101.961917 307.634621,102.273182 C307.436485,102.584447 307.033822,102.801758 306.720639,102.600426" id="Fill-95" fill="#37393C"></path>
            <path d="M307.283089,102.158775 C307.148868,102.167084 307.040213,102.066099 307.02743,101.933795 C307.021039,101.801491 307.123302,101.688362 307.257523,101.680692 C307.385353,101.673023 307.468442,101.740133 307.474834,101.871798 C307.487617,102.004101 307.41731,102.151744 307.283089,102.158775" id="Fill-96" fill="#FFFFFE"></path>
            <path d="M283.38727,202.831585 C283.38727,202.831585 271.020399,196.286072 269.490919,195.747909 C267.960799,195.209747 273.288096,206.054168 278.79755,206.558455 C284.307004,207.062743 283.38727,202.831585 283.38727,202.831585" id="Fill-97" fill="#4E7676"></path>
            <polyline id="Fill-98" fill="#AB853D" points="291.009747 213.508549 290.957337 212.575393 290.676751 211.676112 290.291345 211.895979 289.636218 212.411771 289.787057 212.600959 291.009747 213.508549"></polyline>
            <path d="M287.941198,211.392969 C288.061997,211.364208 288.183435,211.439627 288.212197,211.560426 C288.240959,211.681864 288.1649,211.803302 288.044101,211.831425 C287.922663,211.860186 287.81273,211.818003 287.783968,211.696565 C287.755206,211.575766 287.81976,211.421092 287.941198,211.392969" id="Fill-99" fill="#BB933F"></path>
            <path d="M289.555686,212.596485 C289.555686,212.596485 290.898535,213.429294 291.032117,213.502157 C291.165699,213.574381 290.081704,212.728149 289.809427,212.544714 C289.809427,212.544714 290.656298,212.609907 290.979068,212.569001 C291.302477,212.527457 289.834354,212.379174 289.834354,212.379174 C289.834354,212.379174 290.591105,211.791158 290.698482,211.669081 C290.805859,211.548282 290.095766,211.864021 289.550573,212.414328 L289.4253,212.48016 L289.555686,212.596485" id="Fill-100" fill="#BB933F"></path>
            <polyline id="Fill-101" fill="#BB933F" points="286.3951 210.064181 287.960373 211.720213 289.555686 212.596485 289.666258 212.395153 288.070306 211.52016 286.501198 209.870519 286.3951 210.064181"></polyline>
            <polyline id="Fill-102" fill="#AB853D" points="295.043409 211.274088 294.678455 210.414434 294.108975 209.663435 293.821358 210.000266 293.380346 210.707164 293.586152 210.835632 295.043409 211.274088"></polyline>
            <path d="M291.439254,210.323675 C291.543435,210.255286 291.683409,210.285326 291.751798,210.389507 C291.818908,210.494328 291.789507,210.633662 291.685326,210.702051 C291.581145,210.769161 291.462903,210.767244 291.394514,210.663063 C291.326764,210.558242 291.335073,210.391425 291.439254,210.323675" id="Fill-103" fill="#BB933F"></path>
            <path d="M293.366924,210.908495 C293.366924,210.908495 294.911744,211.237656 295.061944,211.260666 C295.212783,211.283036 293.906365,210.854168 293.58743,210.774274 C293.58743,210.774274 294.406178,210.548655 294.696352,210.400373 C294.986525,210.252091 293.554834,210.609374 293.554834,210.609374 C293.554834,210.609374 294.068069,209.800213 294.12751,209.649374 C294.18759,209.499174 293.626418,210.036698 293.300453,210.73976 L293.204581,210.843302 L293.366924,210.908495" id="Fill-104" fill="#BB933F"></path>
            <polyline id="Fill-105" fill="#BB933F" points="289.534594 209.597603 291.569001 210.625992 293.366924 210.908495 293.402716 210.682237 291.604154 210.399095 289.569108 209.379654 289.534594 209.597603"></polyline>
            <path d="M288.310626,210.422743 C288.310626,210.422743 281.683941,211.93241 279.845752,206.310466 C278.230626,201.371132 277.954514,198.23739 278.853156,197.444208 C279.538961,196.838296 280.926551,196.61012 281.613635,197.871158 C282.301358,199.132836 284.77486,203.401704 286.617523,203.966711 C289.479627,204.843622 295.29715,200.24751 296.521119,199.375073 C297.745726,198.501997 298.902583,207.726178 288.310626,210.422743" id="Fill-106" fill="#FFFFFE"></path>
            <path d="M280.835153,200.028282 C280.978961,200.188708 280.966178,200.435419 280.805752,200.579867 C280.645326,200.724314 280.397976,200.710892 280.253529,200.550466 C280.10972,200.39004 280.081598,200.18743 280.242024,200.042983 C280.40245,199.898535 280.690706,199.867856 280.835153,200.028282" id="Fill-107" fill="#D7D0C4"></path>
            <path d="M278.920905,200.508921 C279.073023,200.469294 279.239201,200.419441 279.321012,200.285859 C279.451398,200.075579 279.270519,199.785406 279.035952,199.70743 C278.800746,199.629454 278.545726,199.695286 278.306045,199.756644 C276.338748,200.25518 274.299228,200.370226 272.288469,200.634834 C272.099281,200.659121 271.89731,200.691718 271.757337,200.821465 C271.625033,200.94482 271.575819,201.132091 271.539387,201.309134 C271.482503,201.586525 271.441598,201.867111 271.416671,202.149614 C273.964314,202.030093 276.467217,201.148069 278.920905,200.508921" id="Fill-108" fill="#BB933F"></path>
            <path d="M283.187856,201.500879 C283.187856,201.500879 294.350573,193.064128 295.775233,192.288842 C297.199254,191.512916 293.672437,203.068708 288.313822,204.44735 C282.955206,205.825353 283.187856,201.500879 283.187856,201.500879" id="Fill-109" fill="#4E7676"></path>
            <path d="M286.23787,202.914035 C287.31036,203.514834 288.51004,203.628602 289.714194,203.734061 C289.797923,203.741092 289.798562,203.608788 289.714194,203.602397 C288.526658,203.521225 287.350626,203.395952 286.271105,202.855872 L286.23787,202.914035" id="Fill-110" fill="#466B6A"></path>
            <path d="M287.787803,201.44719 C288.919095,202.063329 290.246605,202.361811 291.533209,202.339441 C291.618216,202.338162 291.617577,202.211611 291.533209,202.208415 C290.212091,202.146418 289.039254,201.870306 287.810812,201.392224 L287.787803,201.44719" id="Fill-111" fill="#466B6A"></path>
            <path d="M289.656032,199.674834 C290.791798,200.116485 291.972943,200.280746 293.184128,200.150999 C293.283835,200.140133 293.285752,199.982903 293.184128,199.99249 C292.500879,200.057683 291.826578,200.055126 291.148442,199.934328 C290.647989,199.845486 290.169907,199.668442 289.666258,199.60261 L289.656032,199.674834" id="Fill-112" fill="#466B6A"></path>
            <path d="M291.81763,197.520266 C292.570546,197.846232 293.506258,198.126818 294.332037,197.964474 C294.391478,197.952969 294.368469,197.874354 294.318615,197.867963 C293.470466,197.754194 292.670892,197.736298 291.849587,197.444847 L291.81763,197.520266" id="Fill-113" fill="#466B6A"></path>
            <path d="M293.134913,196.088575 C293.72229,196.349348 294.430466,196.374274 295.060666,196.325699 C295.157816,196.318029 295.159095,196.166551 295.060666,196.173582 C294.406818,196.218961 293.809854,196.103276 293.16751,196.012517 L293.134913,196.088575" id="Fill-114" fill="#466B6A"></path>
            <path d="M294.390839,194.635153 C294.598562,194.685646 294.81012,194.716964 295.021039,194.751478 C295.206391,194.781518 295.395579,194.830093 295.583489,194.819867 L295.595632,194.728469 C295.400053,194.653688 295.171877,194.643462 294.964794,194.613422 C294.777523,194.585939 294.591531,194.557816 294.402344,194.545033 L294.390839,194.635153" id="Fill-115" fill="#466B6A"></path>
            <path d="M276.733742,205.910999 C277.696937,205.99984 278.441545,204.96506 278.938802,204.287563 L278.85763,204.224288 C278.19036,204.880692 277.710999,205.64767 276.716485,205.787643 C276.641704,205.79787 276.668549,205.905246 276.733742,205.910999" id="Fill-116" fill="#466B6A"></path>
            <path d="M274.689747,204.384075 C275.286072,204.37257 275.937364,204.040852 276.451877,203.755792 C276.936991,203.48735 277.424021,203.107057 277.563356,202.548442 L277.497523,202.52032 C276.837284,203.499494 275.811451,204.015925 274.677603,204.288842 L274.689747,204.384075" id="Fill-117" fill="#466B6A"></path>
            <path d="M273.212037,202.921065 C274.108762,202.883995 275.134594,202.458961 275.807617,201.867111 L275.74498,201.785939 C275.315473,202.023063 274.910253,202.270413 274.449427,202.448735 C274.039734,202.607244 273.617896,202.687137 273.19478,202.800266 C273.129587,202.818162 273.141092,202.924261 273.212037,202.921065" id="Fill-118" fill="#466B6A"></path>
            <path d="M271.163569,200.041065 C272.115899,200.150999 273.156431,199.734274 273.801971,199.036325 L273.74253,198.960266 C272.937204,199.560426 272.161278,199.826312 271.163569,199.904288 C271.074088,199.910679 271.076644,200.030839 271.163569,200.041065" id="Fill-119" fill="#466B6A"></path>
            <path d="M270.109614,198.302583 C270.620293,198.493049 271.559201,198.151744 271.900506,197.748442 L271.858322,197.675579 C271.568788,197.784874 271.315047,197.960639 271.017204,198.05715 C270.72,198.153023 270.39787,198.134487 270.109614,198.239947 L270.109614,198.302583" id="Fill-120" fill="#466B6A"></path>
            <path d="M280.041332,199.41534 C279.909667,199.329694 279.871957,199.153289 279.956964,199.021625 C280.041971,198.889321 280.218375,198.851611 280.350679,198.936618 C280.482344,199.022264 280.51494,199.144341 280.429933,199.276005 C280.344288,199.408309 280.173635,199.500346 280.041332,199.41534" id="Fill-121" fill="#37393C"></path>
            <polyline id="Fill-122" fill="#FFFFFE" points="280.279734 199.228069 280.172357 199.132197 280.268229 199.02482 280.362184 199.105992 280.279734 199.228069"></polyline>
            <path d="M275.824234,304.975073 C275.824234,306.323675 270.17992,307.416618 263.217044,307.416618 C256.254168,307.416618 250.609854,306.323675 250.609854,304.975073 C250.609854,303.626471 258.524421,300.903063 265.487297,300.903063 C272.450173,300.903063 275.824234,303.626471 275.824234,304.975073" id="Fill-123" fill="#6EC0BD"></path>
            <path d="M284.625939,301.998562 C284.625939,302.603196 283.047883,303.093422 281.536298,303.093422 C280.025353,303.093422 279.154194,302.603196 279.154194,301.998562 C279.154194,301.393289 280.378802,300.903063 281.889747,300.903063 C283.400692,300.903063 284.625939,301.393289 284.625939,301.998562" id="Fill-124" fill="#6EC0BD"></path>
            <path d="M474.867643,308.068549 C474.867643,308.673182 473.288948,309.163409 471.780559,309.163409 C470.265779,309.163409 469.396538,308.673182 469.396538,308.068549 C469.396538,307.462636 470.61731,306.973049 472.132091,306.973049 C473.640479,306.973049 474.867643,307.462636 474.867643,308.068549" id="Fill-125" fill="#6EC0BD"></path>
            <path d="M106.654594,306.718029 C106.654594,307.323941 105.076538,307.814168 103.565593,307.814168 C102.054647,307.814168 101.183489,307.323941 101.183489,306.718029 C101.183489,306.113395 102.408096,305.62253 103.919041,305.62253 C105.429987,305.62253 106.654594,306.113395 106.654594,306.718029" id="Fill-126" fill="#6EC0BD"></path>
            <path d="M200.674514,302.032437 C200.674514,302.63771 199.095819,303.127936 197.584874,303.127936 C196.073289,303.127936 195.20213,302.63771 195.20213,302.032437 C195.20213,301.427803 196.426738,300.936937 197.937683,300.936937 C199.449268,300.936937 200.674514,301.427803 200.674514,302.032437" id="Fill-127" fill="#EFE6DC"></path>
            <path d="M94.914727,299.475846 C94.905779,300.317603 91.7784288,300.966977 88.7910519,300.935659 C85.803036,300.90498 84.086285,300.205113 84.095233,299.363356 C84.1041811,298.522237 86.5335819,297.865193 89.5203196,297.896511 C92.5083356,297.92719 94.9236751,298.634727 94.914727,299.475846" id="Fill-128" fill="#EFE6DC"></path>
            <path d="M372.763782,296.692996 C372.75739,297.664501 368.449534,298.40783 364.333422,298.365646 C360.21731,298.322823 357.852463,297.509827 357.865246,296.537683 C357.871638,295.5649 361.220772,294.811345 365.336884,294.854807 C369.446605,294.89763 372.776565,295.720213 372.763782,296.692996" id="Fill-129" fill="#EFE6DC"></path>
            <path d="M15.4296671,305.749081 C15.4296671,306.353715 13.8516112,306.844581 12.3406658,306.844581 C10.8290812,306.844581 9.95792277,306.353715 9.95792277,305.749081 C9.95792277,305.143169 11.18253,304.653582 12.6934754,304.653582 C14.2050599,304.653582 15.4296671,305.143169 15.4296671,305.749081" id="Fill-130" fill="#6EC0BD"></path>
            <path d="M428.318509,305.824501 C428.312117,306.826684 423.985087,307.598775 419.8498,307.559787 C415.714514,307.52016 413.336884,306.685433 413.349667,305.681971 C413.356059,304.679787 416.717976,303.898748 420.853262,303.937736 C424.982157,303.976724 428.331292,304.821678 428.318509,305.824501" id="Fill-131" fill="#6EC0BD"></path>
            <path d="M52.6223169,304.700879 C52.6120905,305.703702 48.2869774,306.475792 44.1529694,306.436804 C40.0189614,306.397177 37.6426099,305.561811 37.6521971,304.558988 C37.6617843,303.556804 41.020506,302.775126 45.1538748,302.814754 C49.2878828,302.853742 52.6319041,303.698695 52.6223169,304.700879" id="Fill-132" fill="#6EC0BD"></path>
            <path d="M352.662583,304.561545 C352.662583,305.166818 351.639947,305.657044 350.125166,305.657044 C348.616778,305.657044 346.609854,305.166818 346.609854,304.561545 C346.609854,303.956272 347.830626,303.466045 349.345406,303.466045 C350.853795,303.466045 352.662583,303.956272 352.662583,304.561545" id="Fill-133" fill="#6EC0BD"></path>
            <path d="M458.703595,302.984128 C458.703595,303.588762 457.680959,304.078988 456.166178,304.078988 C454.65779,304.078988 452.650866,303.588762 452.650866,302.984128 C452.650866,302.378855 453.878029,301.888628 455.386418,301.888628 C456.894807,301.888628 458.703595,302.378855 458.703595,302.984128" id="Fill-134" fill="#EFE6DC"></path>
            <path d="M394.558722,304.828708 C394.558722,306.097417 391.068975,307.125166 386.761119,307.125166 C382.453262,307.125166 378.957124,306.097417 378.957124,304.828708 C378.957124,303.561278 379.519574,301.998562 383.821039,301.998562 C388.128895,301.998562 394.558722,303.561278 394.558722,304.828708" id="Fill-135" fill="#6EC0BD"></path>
            <path d="M111.30759,307.824394 C111.301838,306.302583 118.045486,305.039627 126.372943,305.004474 C134.699121,304.968682 141.454274,306.173475 141.460666,307.695286 C141.467696,309.216458 140.39968,311.096831 132.073502,311.132623 C123.746045,311.168415 111.314621,309.346205 111.30759,307.824394" id="Fill-136" fill="#6EC0BD"></path>
            <path d="M250.650759,282.786418 C250.650759,284.087084 248.371558,285.141039 243.815712,285.141039 C239.260506,285.141039 234.154354,284.087084 234.154354,282.786418 C234.154354,281.485752 239.260506,280.105832 243.815712,280.105832 C248.371558,280.105832 250.650759,281.485752 250.650759,282.786418" id="Fill-137" fill="#58B1AC"></path>
            <path d="M238.172676,283.352064 C238.172676,283.352064 231.482716,282.558242 232.049001,276.322077 C232.616565,270.085273 233.264021,265.121651 234.580666,264.529161 C235.587324,264.076644 237.265726,264.310573 237.605752,266.00751 C237.945779,267.703808 238.512703,273.373049 238.512703,273.373049 C238.512703,273.373049 250.606019,269.631478 252.326605,269.064554 C254.046551,268.49763 251.325699,284.032117 238.172676,283.352064" id="Fill-138" fill="#FFFFFE"></path>
            <path d="M238.512703,273.373049 C238.512703,273.373049 238.556804,278.845433 244.859441,277.342157 C251.162716,275.838881 250.596431,269.615499 250.596431,269.615499 L238.512703,273.373049" id="Fill-139" fill="#4E7676"></path>
            <path d="M235.564953,268.187643 C235.738802,268.381305 235.723462,268.678509 235.5298,268.852357 C235.336778,269.026205 235.038935,269.010226 234.865726,268.816565 C234.691238,268.624181 234.658003,268.379387 234.851025,268.2049 C235.044048,268.031691 235.391105,267.993981 235.564953,268.187643" id="Fill-140" fill="#D3C7B9"></path>
            <path d="M233.628975,268.569854 C233.809214,268.515526 234.00735,268.447776 234.100027,268.283515 C234.246391,268.023382 234.016298,267.682716 233.72996,267.598988 C233.443622,267.515899 233.139387,267.607297 232.853049,267.691664 C230.508016,268.381944 228.056884,268.613316 225.647936,269.024288 C225.421039,269.062636 225.179441,269.109933 225.017736,269.272916 C224.863063,269.428229 224.81257,269.655126 224.777417,269.870519 C224.721172,270.20735 224.68474,270.547377 224.668123,270.888043 C227.729001,270.627909 230.702956,269.451877 233.628975,268.569854" id="Fill-141" fill="#BB933F"></path>
            <path d="M234.608788,266.275952 C234.571718,266.5853 234.402344,267.413635 234.838242,267.554887 C235.040213,267.62008 235.129694,267.393182 235.195526,267.245539 C235.314407,266.98285 235.40964,266.711851 235.428176,266.421678 L235.359787,266.406338 C235.29779,266.561651 235.24474,266.719521 235.186578,266.876751 C235.148229,266.979015 235.002503,267.509507 234.796059,267.318402 C234.68996,267.219973 234.704021,266.983489 234.703382,266.85502 C234.701465,266.663276 234.695712,266.474088 234.684208,266.282983 L234.608788,266.275952" id="Fill-142" fill="#303032"></path>
            <path d="M241.479627,275.906631 C242.059334,276.860879 243.133103,277.585033 244.28996,277.427164 C244.358988,277.418216 244.331505,277.322983 244.274621,277.315313 C243.191265,277.173422 242.215925,276.786738 241.579334,275.848469 C241.53779,275.788389 241.440639,275.843356 241.479627,275.906631" id="Fill-143" fill="#466B6A"></path>
            <path d="M243.244953,275.36719 C244.158935,276.154621 245.414221,276.785459 246.654807,276.675526 C246.706578,276.671691 246.72767,276.587963 246.668229,276.577097 C245.400799,276.356591 244.35771,276.113076 243.328682,275.283462 C243.270519,275.236165 243.186152,275.316698 243.244953,275.36719" id="Fill-144" fill="#466B6A"></path>
            <path d="M245.255712,274.561225 C246.066791,275.227217 247.086232,275.678455 248.147217,275.707856 C248.226471,275.710413 248.248202,275.578748 248.166391,275.565326 C247.113076,275.402344 246.196538,275.101944 245.315153,274.483888 L245.255712,274.561225" id="Fill-145" fill="#466B6A"></path>
            <path d="M246.923249,273.577577 C247.667217,274.060133 248.555632,274.309401 249.44213,274.168149 C249.520107,274.155366 249.499015,274.034567 249.424234,274.033928 C248.535819,274.02498 247.77779,273.899068 246.982051,273.476591 C246.91494,273.441438 246.859334,273.536671 246.923249,273.577577" id="Fill-146" fill="#466B6A"></path>
            <path d="M248.003409,272.491664 C248.702636,272.723675 249.384607,272.786312 250.11771,272.691718 C250.221252,272.677656 250.224447,272.514035 250.11771,272.5249 C249.41273,272.601598 248.720533,272.558136 248.028975,272.39771 C247.968256,272.383648 247.944607,272.471212 248.003409,272.491664" id="Fill-147" fill="#466B6A"></path>
            <path d="M248.551798,271.426205 C249.177523,271.600053 249.823063,271.612836 250.445593,271.412783 C250.524208,271.387856 250.49225,271.270253 250.411079,271.289427 C249.79494,271.431957 249.197976,271.467111 248.574807,271.343116 L248.551798,271.426205" id="Fill-148" fill="#466B6A"></path>
            <path d="M149.843089,158.879947 C149.843089,158.879947 171.017417,147.67249 173.637284,146.750839 C176.256511,145.829188 167.135233,164.39771 157.701411,165.261198 C148.26759,166.125326 149.843089,158.879947 149.843089,158.879947" id="Fill-149" fill="#4E7676"></path>
            <polyline id="Fill-150" fill="#AB853D" points="136.791052 177.161491 136.881811 175.564261 137.361811 174.023915 138.021411 174.399734 139.142477 175.282397 138.8849 175.607723 136.791052 177.161491"></polyline>
            <path d="M142.045486,173.538162 C141.838402,173.489587 141.630679,173.618695 141.582104,173.825779 C141.532889,174.033502 141.661997,174.241225 141.86972,174.2898 C142.076804,174.339015 142.266631,174.266152 142.315206,174.059068 C142.363782,173.851345 142.253209,173.587377 142.045486,173.538162" id="Fill-151" fill="#BB933F"></path>
            <path d="M139.280533,175.598775 C139.280533,175.598775 136.982157,177.025353 136.753342,177.149348 C136.524527,177.273342 138.379973,175.825033 138.84719,175.510573 C138.84719,175.510573 137.397603,175.623063 136.843462,175.552117 C136.28996,175.481172 138.803728,175.226791 138.803728,175.226791 C138.803728,175.226791 137.508176,174.220133 137.324101,174.01241 C137.140027,173.804687 138.356325,174.345406 139.29012,175.288149 L139.504874,175.4 L139.280533,175.598775" id="Fill-152" fill="#BB933F"></path>
            <polyline id="Fill-153" fill="#BB933F" points="144.693475 171.263435 142.01225 174.099973 139.280533 175.598775 139.091984 175.254913 141.823702 173.756112 144.511957 170.932357 144.693475 171.263435"></polyline>
            <polyline id="Fill-154" fill="#AB853D" points="129.884421 173.335553 130.510146 171.863595 131.484208 170.576991 131.976991 171.15478 132.733103 172.365326 132.380293 172.583915 129.884421 173.335553"></polyline>
            <path d="M136.055393,171.707643 C135.877071,171.591318 135.63739,171.64245 135.521065,171.821411 C135.40474,171.999734 135.455872,172.238775 135.634834,172.3551 C135.813156,172.471425 136.016405,172.46759 136.132091,172.288628 C136.248415,172.110306 136.233715,171.823968 136.055393,171.707643" id="Fill-155" fill="#BB933F"></path>
            <path d="M132.755473,172.709188 C132.755473,172.709188 130.109401,173.272916 129.852463,173.311904 C129.595526,173.350892 131.831904,172.616511 132.377736,172.479095 C132.377736,172.479095 130.975446,172.093688 130.478189,171.839308 C129.98221,171.585566 132.433342,172.19787 132.433342,172.19787 C132.433342,172.19787 131.555153,170.810919 131.45225,170.553342 C131.349987,170.295766 132.311265,171.216138 132.86988,172.420293 L133.033502,172.597976 L132.755473,172.709188" id="Fill-156" fill="#BB933F"></path>
            <polyline id="Fill-157" fill="#BB933F" points="139.317603 170.464501 135.833609 172.224714 132.755473 172.709188 132.694115 172.321864 135.773529 171.83739 139.258802 170.091238 139.317603 170.464501"></polyline>
            <path d="M141.413369,171.878296 C141.413369,171.878296 152.759521,174.46237 155.907324,164.836165 C158.672277,156.378322 159.144607,151.013316 157.606818,149.655126 C156.432064,148.61715 154.055712,148.227909 152.879041,150.386951 C151.703009,152.545992 147.467377,159.855925 144.311265,160.823595 C139.410919,162.324953 129.451079,154.455126 127.354674,152.960799 C125.258269,151.466471 123.276272,167.261092 141.413369,171.878296" id="Fill-158" fill="#FFFFFE"></path>
            <path d="M154.213582,154.079947 C153.966232,154.35478 153.989241,154.777257 154.263435,155.023968 C154.538269,155.271318 154.960746,155.248948 155.208096,154.974115 C155.454807,154.69992 155.502743,154.352224 155.227909,154.104874 C154.953076,153.858162 154.460293,153.805752 154.213582,154.079947" id="Fill-159" fill="#D7D0C4"></path>
            <path d="M150.183755,156.601385 C150.183755,156.601385 131.071318,142.156005 128.63233,140.827856 C126.193342,139.499707 132.23265,159.286445 141.407617,161.645539 C150.583222,164.005273 150.183755,156.601385 150.183755,156.601385" id="Fill-160" fill="#4E7676"></path>
            <path d="M144.962557,159.021198 C143.125646,160.048948 141.070786,160.244527 139.009534,160.424767 C138.866365,160.43755 138.865087,160.210013 139.009534,160.200426 C141.043302,160.061092 143.056618,159.845699 144.904394,158.92213 C144.969587,158.889534 145.027111,158.984767 144.962557,159.021198" id="Fill-161" fill="#466B6A"></path>
            <path d="M142.308176,156.508708 C140.370919,157.563941 138.098109,158.07526 135.894967,158.036911 C135.74988,158.034354 135.750519,157.818961 135.894967,157.81257 C138.156911,157.706471 140.166391,157.233502 142.269188,156.414754 L142.308176,156.508708" id="Fill-162" fill="#466B6A"></path>
            <path d="M139.108602,153.474674 C137.164953,154.230786 135.142051,154.511372 133.068655,154.289587 C132.897364,154.271691 132.894168,154.001971 133.068655,154.018589 C134.238296,154.1298 135.393236,154.125326 136.553928,153.918881 C137.410386,153.767403 138.229134,153.464447 139.091984,153.350679 C139.168043,153.341092 139.169321,153.451025 139.108602,153.474674" id="Fill-163" fill="#466B6A"></path>
            <path d="M135.407297,149.784874 C134.119414,150.343489 132.517071,150.824128 131.103276,150.546738 C131.001012,150.526285 131.04,150.392064 131.125646,150.381198 C132.578429,150.186258 133.947483,150.155579 135.352969,149.656405 C135.42775,149.6302 135.480799,149.752916 135.407297,149.784874" id="Fill-164" fill="#466B6A"></path>
            <path d="M133.152383,147.334381 C132.147643,147.779867 130.934541,147.82269 129.854381,147.739601 C129.689481,147.726818 129.686924,147.468602 129.854381,147.480107 C130.975446,147.556804 131.996165,147.359308 133.097417,147.203995 C133.168362,147.193768 133.234194,147.298589 133.152383,147.334381" id="Fill-165" fill="#466B6A"></path>
            <path d="M131.002929,144.845539 C130.646285,144.931824 130.284527,144.985513 129.92213,145.044953 C129.605752,145.096085 129.281065,145.179814 128.959574,145.161278 C128.868176,145.156165 128.855393,145.036644 128.939121,145.005326 C129.275313,144.877497 129.663915,144.86024 130.01992,144.80783 C130.340133,144.761172 130.658429,144.713236 130.981838,144.691505 C131.07004,144.685752 131.087936,144.824447 131.002929,144.845539" id="Fill-166" fill="#466B6A"></path>
            <path d="M161.235899,164.152277 C159.585619,164.304394 158.310519,162.532676 157.459174,161.371984 C157.399095,161.288895 157.529481,161.19494 157.599148,161.263968 C158.740666,162.388229 159.56261,163.701678 161.264021,163.940719 C161.393129,163.958615 161.347111,164.142051 161.235899,164.152277" id="Fill-167" fill="#466B6A"></path>
            <path d="M164.733955,161.537523 C163.713875,161.518988 162.599201,160.950146 161.717177,160.461838 C160.888202,160.001651 160.053475,159.350999 159.814434,158.394834 C159.797816,158.324527 159.889214,158.289374 159.928202,158.346897 C161.057577,160.024021 162.814594,160.906684 164.756325,161.374541 C164.847723,161.396272 164.828549,161.539441 164.733955,161.537523" id="Fill-168" fill="#466B6A"></path>
            <path d="M167.265619,159.033342 C165.729747,158.969427 163.974008,158.241438 162.820985,157.229028 C162.743009,157.160639 162.842716,157.041758 162.929001,157.089055 C163.664021,157.494913 164.356858,157.919308 165.146205,158.224181 C165.84735,158.49518 166.570866,158.631318 167.293742,158.826258 C167.406871,158.856937 167.387057,159.038455 167.265619,159.033342" id="Fill-169" fill="#466B6A"></path>
            <path d="M170.773262,154.101039 C169.142796,154.289587 167.360213,153.575659 166.255766,152.381092 C166.195047,152.31526 166.277497,152.191265 166.356751,152.250706 C167.734754,153.278455 169.064181,153.734168 170.773262,153.867111 C170.926019,153.878615 170.922184,154.083782 170.773262,154.101039" id="Fill-170" fill="#466B6A"></path>
            <path d="M172.576937,151.125806 C171.702583,151.451132 170.095126,150.866312 169.510945,150.176032 C169.467483,150.1249 169.507111,150.021997 169.583808,150.051398 C170.079787,150.239308 170.513129,150.539707 171.023169,150.704607 C171.531292,150.868868 172.084154,150.836272 172.576937,151.01715 L172.576937,151.125806" id="Fill-171" fill="#466B6A"></path>
            <path d="M155.571132,153.029827 C155.79739,152.883462 155.861944,152.582423 155.716218,152.356165 C155.570493,152.129907 155.268815,152.064714 155.042557,152.211079 C154.816937,152.356804 154.761332,152.565806 154.907057,152.792064 C155.053422,153.017683 155.345513,153.175553 155.571132,153.029827" id="Fill-172" fill="#37393C"></path>
            <path d="M155.163995,152.708975 C155.259867,152.714727 155.341678,152.641225 155.34743,152.545353 C155.352543,152.449481 155.27968,152.36767 155.183808,152.361917 C155.087936,152.356804 155.028495,152.40474 155.022743,152.500613 C155.016991,152.596485 155.067483,152.703862 155.163995,152.708975" id="Fill-173" fill="#FFFFFE"></path>
            <path d="M157.489214,154.903169 C157.22972,154.835419 156.9453,154.749774 156.804687,154.521598 C156.582903,154.160479 156.891611,153.663862 157.294274,153.53028 C157.695659,153.396698 158.132836,153.509827 158.543808,153.614008 C161.910839,154.467909 165.403142,154.664767 168.84751,155.117923 C169.170919,155.160107 169.516698,155.215712 169.755739,155.438136 C169.982636,155.649055 170.067004,155.969268 170.12964,156.272863 C170.226791,156.748389 170.296458,157.228389 170.338642,157.711585 C165.977736,157.507696 161.691611,155.99739 157.489214,154.903169" id="Fill-174" fill="#BB933F"></path>
            <polyline id="Fill-175" fill="#AB853D" points="143.02466 262.01028 144.260772 262.878881 145.682237 263.425992 145.788336 262.717816 145.788336 261.37241 145.396538 261.37241 143.02466 262.01028"></polyline>
            <path d="M145.962184,258.000905 C146.097044,258.149827 146.084261,258.380559 145.9347,258.51478 C145.785779,258.64964 145.554407,258.637497 145.420186,258.487297 C145.285326,258.338375 145.259121,258.148549 145.409321,258.013688 C145.558881,257.879467 145.827324,257.850706 145.962184,258.000905" id="Fill-176" fill="#BB933F"></path>
            <path d="M145.512863,261.225406 C145.512863,261.225406 143.25028,261.913768 143.02466,262.01028 C142.79968,262.106152 145.007297,261.655553 145.512863,261.494487 C145.512863,261.494487 144.531132,262.428282 144.260772,262.878881 C143.990413,263.33012 145.682237,261.720107 145.682237,261.720107 C145.682237,261.720107 145.63494,263.169055 145.682237,263.425992 C145.728895,263.683569 146.036964,262.467909 145.882929,261.225406 C145.728895,259.982264 145.882929,261.225406 145.882929,261.225406 L145.682237,261.01257 L145.512863,261.225406" id="Fill-177" fill="#BB933F"></path>
            <polyline id="Fill-178" fill="#BB933F" points="145.156218 254.470892 145.512863 258.28277 145.512863 261.225406 145.882929 261.225406 145.882929 258.28277 145.512863 254.470892 145.156218 254.470892"></polyline>
            <polyline id="Fill-179" fill="#AB853D" points="146.516964 263.78775 148.19217 264.965699 150.117923 265.707111 150.26237 264.747111 150.26237 262.923622 149.731877 262.923622 146.516964 263.78775"></polyline>
            <path d="M150.498216,258.353715 C150.680373,258.556964 150.664394,258.868868 150.461145,259.051664 C150.258535,259.233822 149.945992,259.217204 149.763196,259.014594 C149.581039,258.811345 149.545885,258.555047 149.748495,258.372889 C149.951105,258.190093 150.316059,258.151105 150.498216,258.353715" id="Fill-180" fill="#BB933F"></path>
            <path d="M149.889108,262.724208 C149.889108,262.724208 146.823116,263.656724 146.516964,263.78775 C146.212091,263.918136 149.203941,263.30775 149.889108,263.090439 C149.889108,263.090439 148.559041,264.354674 148.19217,264.965699 C147.825939,265.576085 150.117923,263.395313 150.117923,263.395313 C150.117923,263.395313 150.054008,265.358136 150.117923,265.707111 C150.181838,266.056085 150.599201,264.408362 150.390839,262.724208 C150.181838,261.040053 150.390839,262.724208 150.390839,262.724208 L150.117923,262.435313 L149.889108,262.724208" id="Fill-181" fill="#BB933F"></path>
            <polyline id="Fill-182" fill="#BB933F" points="148.922716 253.570972 149.889108 258.736565 149.889108 262.724208 150.390839 262.724208 150.390839 258.736565 149.405912 253.570972 148.922716 253.570972"></polyline>
            <path d="M144.941465,256.1902 C144.941465,256.1902 135.965273,255.12474 136.726498,246.757656 C137.487084,238.390573 138.355686,231.730652 140.12229,230.936192 C141.47217,230.329001 143.724527,230.642823 144.180879,232.918828 C144.63723,235.195473 145.397816,242.801971 145.397816,242.801971 C145.397816,242.801971 161.622583,237.782104 163.931185,237.020879 C166.239787,236.260293 162.588975,257.102264 144.941465,256.1902" id="Fill-183" fill="#FFFFFE"></path>
            <path d="M145.397816,242.801971 C145.397816,242.801971 145.457257,250.143862 153.913182,248.126711 C162.369747,246.109561 161.6098,237.759734 161.6098,237.759734 L145.397816,242.801971" id="Fill-184" fill="#4E7676"></path>
            <path d="M140.701358,235.314354 C140.934008,235.573848 140.912916,235.972676 140.653422,236.205965 C140.394567,236.438615 139.9951,236.417523 139.76245,236.158668 C139.529161,235.899814 139.483142,235.571292 139.743276,235.338003 C140.00213,235.104714 140.46743,235.05486 140.701358,235.314354" id="Fill-185" fill="#D3C7B9"></path>
            <path d="M143.92522,235.093848 C143.92522,235.442823 144.207084,235.724687 144.556059,235.724687 L144.601438,235.720213 C144.545193,235.280479 144.488948,234.861198 144.433981,234.473236 C144.102264,234.487297 143.92522,234.754461 143.92522,235.093848" id="Fill-186" fill="#D3C7B9"></path>
            <path d="M140.760799,233.23968 C140.807457,233.655766 140.840692,234.788975 141.452357,234.840107 C141.737417,234.863755 141.784714,234.539707 141.825619,234.328149 C141.900399,233.947856 141.940666,233.563089 141.876112,233.179601 L141.782157,233.179601 C141.7502,233.387324 141.731664,233.595686 141.705459,233.804687 C141.689481,233.934434 141.662636,234.734008 141.326445,234.544181 C141.15771,234.448948 141.103382,234.136405 141.062477,233.968948 C141.000479,233.718402 140.935925,233.473609 140.861145,233.226258 C140.845166,233.174487 140.755047,233.180879 140.760799,233.23968" id="Fill-187" fill="#303032"></path>
            <path d="M142.978642,233.057523 C142.971611,233.471691 142.866152,234.617044 143.481012,234.728895 C143.713662,234.771718 143.801864,234.53779 143.866418,234.358189 C144.006391,233.967031 144.110573,233.556698 144.092676,233.138695 L143.997443,233.125912 C143.926498,233.37518 143.874727,233.629561 143.806338,233.879467 C143.752011,234.078881 143.657417,234.65731 143.379387,234.413795 C143.209374,234.265513 143.201704,233.9453 143.179334,233.739494 C143.153129,233.505566 143.117976,233.276112 143.078349,233.04474 C143.068762,232.986578 142.979281,233.001917 142.978642,233.057523" id="Fill-188" fill="#303032"></path>
            <path d="M149.378429,246.201598 C150.156272,247.481811 151.596911,248.452676 153.148762,248.240479 C153.242077,248.228336 153.204368,248.101145 153.128309,248.090919 C151.674887,247.899814 150.366551,247.381465 149.512011,246.123622 C149.457044,246.041811 149.326019,246.115313 149.378429,246.201598" id="Fill-189" fill="#466B6A"></path>
            <path d="M151.747111,245.476804 C152.972996,246.532676 154.65779,247.379547 156.321491,247.233182 C156.391158,247.226791 156.41992,247.114301 156.339387,247.100879 C154.639893,246.804314 153.240799,246.47771 151.859601,245.364314 C151.781625,245.301039 151.668495,245.409055 151.747111,245.476804" id="Fill-190" fill="#466B6A"></path>
            <path d="M154.444953,244.395366 C155.533422,245.288895 156.89992,245.894168 158.323941,245.933795 C158.430679,245.936991 158.46008,245.759947 158.349507,245.743329 C156.936991,245.524101 155.706631,245.121438 154.525486,244.291185 C154.464128,244.248362 154.386791,244.34743 154.444953,244.395366" id="Fill-191" fill="#466B6A"></path>
            <path d="M156.681971,243.075526 C157.67968,243.722983 158.871691,244.057257 160.062423,243.868069 C160.166605,243.851451 160.138482,243.689108 160.038136,243.68783 C158.846125,243.676325 157.828602,243.506951 156.761225,242.940027 C156.671105,242.89273 156.596964,243.020559 156.681971,243.075526" id="Fill-192" fill="#466B6A"></path>
            <path d="M158.130919,241.618269 C159.069827,241.930173 159.984447,242.014541 160.968096,241.88735 C161.106791,241.868815 161.111265,241.648309 160.968096,241.663648 C160.022157,241.766551 159.093475,241.70775 158.166072,241.492996 C158.083622,241.473182 158.051664,241.592064 158.130919,241.618269" id="Fill-193" fill="#466B6A"></path>
            <path d="M158.866578,240.188495 C159.706418,240.422423 160.572463,240.43968 161.40719,240.171238 C161.51265,240.137364 161.470466,239.980133 161.361811,240.00506 C160.534754,240.197443 159.733901,240.243462 158.897257,240.077923 C158.825672,240.063862 158.794993,240.168682 158.866578,240.188495" id="Fill-194" fill="#466B6A"></path>
            <path d="M142.778589,236.400905 C142.51526,236.351691 142.224447,236.285859 142.068495,236.067909 C141.822423,235.723409 142.0947,235.206977 142.487137,235.045273 C142.878296,234.883569 143.322503,234.966019 143.739867,235.040799 C147.158029,235.655659 150.656085,235.605806 154.123462,235.814807 C154.448788,235.834621 154.797763,235.8653 155.052144,236.069827 C155.293742,236.265406 155.39984,236.578589 155.483569,236.877071 C155.614594,237.343648 155.718136,237.817896 155.793555,238.297257 C151.429454,238.401438 147.047457,237.196644 142.778589,236.400905" id="Fill-195" fill="#BB933F"></path>
            <path d="M337.885486,336.899228 C337.885486,340.907324 331.883888,344.075579 320.730759,344.075579 C309.57763,344.075579 297.500293,340.907324 297.500293,336.899228 C297.500293,332.891132 306.541678,329.641704 317.694807,329.641704 C328.847936,329.641704 337.885486,332.891132 337.885486,336.899228" id="Fill-196" fill="#C2B494"></path>
            <polyline id="Fill-197" fill="#AB853D" points="309.615979 332.775446 312.338748 334.688415 315.464181 335.89257 315.700666 334.333688 315.700666 331.372517 314.837816 331.372517 309.615979 332.775446"></polyline>
            <path d="M316.084154,323.950093 C316.378162,324.279893 316.352597,324.786738 316.026631,325.083302 C315.694274,325.379867 315.189348,325.353023 314.888948,325.023222 C314.59494,324.693422 314.537417,324.276698 314.863382,323.980133 C315.195739,323.683569 315.790146,323.620932 316.084154,323.950093" id="Fill-198" fill="#BB933F"></path>
            <path d="M315.093475,331.048469 C315.093475,331.048469 310.114514,332.563249 309.615979,332.775446 C309.123835,332.988282 313.981358,331.996325 315.093475,331.641598 C315.093475,331.641598 312.933156,333.696458 312.338748,334.688415 C311.744341,335.680373 315.464181,332.138216 315.464181,332.138216 C315.464181,332.138216 315.361917,335.325646 315.464181,335.89257 C315.566445,336.459494 316.250333,333.784021 315.911585,331.048469 L315.464181,330.579334 L315.093475,331.048469" id="Fill-199" fill="#BB933F"></path>
            <polyline id="Fill-200" fill="#BB933F" points="314.307324 316.181891 315.093475 324.571984 315.093475 331.048469 315.911585 331.048469 315.911585 324.571984 315.093475 316.181891 314.307324 316.181891"></polyline>
            <polyline id="Fill-201" fill="#AB853D" points="317.304927 336.688948 320.99281 339.281332 325.23036 340.913076 325.549933 338.801332 325.549933 334.786205 324.380293 334.786205 317.304927 336.688948"></polyline>
            <path d="M326.067643,324.728575 C326.470306,325.1747 326.431957,325.861784 325.984554,326.263808 C325.53715,326.665193 324.853262,326.629401 324.450599,326.181997 C324.047936,325.735872 323.971238,325.170226 324.418642,324.768842 C324.866045,324.368096 325.66498,324.281811 326.067643,324.728575" id="Fill-202" fill="#BB933F"></path>
            <path d="M324.725433,334.34775 C324.725433,334.34775 317.976032,336.400692 317.304927,336.688948 C316.633822,336.976565 323.217044,335.633076 324.725433,335.153076 C324.725433,335.153076 321.798136,337.936565 320.99281,339.281332 C320.187483,340.62482 325.23036,335.824181 325.23036,335.824181 C325.23036,335.824181 325.089747,340.14482 325.23036,340.913076 C325.370972,341.680692 326.291345,338.055446 325.831158,334.34775 L325.23036,333.712437 L324.725433,334.34775" id="Fill-203" fill="#BB933F"></path>
            <polyline id="Fill-204" fill="#BB933F" points="322.597071 314.200533 324.725433 325.570333 324.725433 334.34775 325.831158 334.34775 325.831158 325.570333 323.664447 314.200533 322.597071 314.200533"></polyline>
            <path d="M313.834354,319.965007 C313.834354,319.965007 294.080852,317.621252 295.75478,299.204208 C297.429348,280.787803 299.341039,266.129587 303.230892,264.38024 C306.202929,263.044421 311.156325,263.7347 312.159787,268.745619 C313.16964,273.755899 314.844208,290.498375 314.844208,290.498375 C314.844208,290.498375 350.553395,279.448149 355.634621,277.774221 C360.715846,276.100293 352.681758,321.973848 313.834354,319.965007" id="Fill-205" fill="#FFFFFE"></path>
            <path d="M314.844208,290.498375 C314.844208,290.498375 314.972037,306.65731 333.584021,302.21779 C352.196005,297.778908 350.52783,279.399574 350.52783,279.399574 L314.844208,290.498375" id="Fill-206" fill="#4E7676"></path>
            <path d="M309.270839,274.343276 C309.788549,274.914035 309.737417,275.792224 309.168575,276.305459 C308.599734,276.818695 307.71771,276.772037 307.206391,276.201278 C306.695073,275.631158 306.59281,274.908282 307.161651,274.395047 C307.736884,273.881811 308.759521,273.772517 309.270839,274.343276" id="Fill-207" fill="#D3C7B9"></path>
            <path d="M300.306152,273.948921 C300.565646,273.223489 300.192383,272.418802 299.463116,272.168895 L299.387696,272.145246 C299.320586,272.449481 299.231744,272.756911 299.163356,273.053475 C299.018269,273.689427 298.896831,274.298535 298.778589,274.874407 C299.48229,275.084687 300.053049,274.655819 300.306152,273.948921" id="Fill-208" fill="#D3C7B9"></path>
            <path d="M302.706791,272.998509 C302.91771,272.080053 303.646338,269.785513 302.44474,269.185353 C301.914248,268.919467 301.575499,269.490866 301.339015,269.880107 C300.88522,270.631105 300.49534,271.426205 300.346418,272.296724 C300.327244,272.408575 300.482557,272.493582 300.54008,272.379174 C300.763782,271.965007 301.773635,269.399467 302.310519,269.648096 C302.770706,269.863489 302.649268,270.895073 302.610919,271.268336 C302.553395,271.837177 302.508655,272.39771 302.483089,272.969108 C302.476698,273.094381 302.674834,273.121864 302.706791,272.998509" id="Fill-209" fill="#303032"></path>
            <path d="M307.270306,273.115473 C307.174434,272.199574 307.116911,269.703063 305.768309,269.584181 C305.148336,269.529214 305.03968,270.243142 304.943808,270.708442 C304.77763,271.544447 304.681758,272.388762 304.815979,273.234993 C304.835153,273.337257 305.007723,273.337257 305.026897,273.234993 C305.103595,272.746684 305.148336,272.255819 305.21225,271.766232 C305.256991,271.447297 305.327297,269.824501 306.049534,270.238668 C306.42024,270.450866 306.535286,271.139867 306.618375,271.508655 C306.752597,272.06024 306.893209,272.600959 307.052996,273.144874 C307.084953,273.260559 307.289481,273.24522 307.270306,273.115473" id="Fill-210" fill="#303032"></path>
            <path d="M323.600533,297.979601 C325.313449,300.797603 328.490013,302.936192 331.903063,302.468975 C332.10759,302.440852 332.024501,302.161545 331.858322,302.139174 C328.656192,301.717976 325.780027,300.578375 323.894541,297.808309 C323.773103,297.628708 323.485486,297.790413 323.600533,297.979601" id="Fill-211" fill="#466B6A"></path>
            <path d="M328.815979,296.385566 C331.513182,298.710146 335.22024,300.574541 338.882557,300.251132 C339.035952,300.23771 339.099867,299.99036 338.927297,299.95968 C335.181891,299.30775 332.101198,298.589987 329.065246,296.138216 C328.892676,295.998881 328.643409,296.236644 328.815979,296.385566" id="Fill-212" fill="#466B6A"></path>
            <path d="M334.753662,294.006019 C337.150466,295.972037 340.160852,297.3053 343.292676,297.391585 C343.529161,297.397976 343.593076,297.008735 343.3502,296.971025 C340.23755,296.489108 337.533955,295.604527 334.932623,293.776565 C334.798402,293.68261 334.625832,293.900559 334.753662,294.006019" id="Fill-213" fill="#466B6A"></path>
            <path d="M339.6751,291.101092 C341.873768,292.524474 344.500666,293.262051 347.121172,292.844048 C347.351265,292.808256 347.28735,292.450333 347.063648,292.447776 C344.443142,292.421571 342.199734,292.048948 339.854061,290.80261 C339.655925,290.698429 339.489747,290.979654 339.6751,291.101092" id="Fill-214" fill="#466B6A"></path>
            <path d="M342.870839,287.89257 C344.935286,288.579015 346.948602,288.764368 349.108921,288.484421 C349.415712,288.444154 349.428495,287.959041 349.108921,287.992916 C347.031691,288.219814 344.986418,288.090067 342.941145,287.616458 C342.762184,287.574274 342.691877,287.834407 342.870839,287.89257" id="Fill-215" fill="#466B6A"></path>
            <path d="M344.487883,284.746045 C346.33502,285.260559 348.23968,285.298908 350.080426,284.708336 C350.310519,284.634194 350.214647,284.287137 349.978162,284.342104 C348.156591,284.765859 346.392543,284.868123 344.551798,284.501891 C344.398402,284.471212 344.328096,284.701944 344.487883,284.746045" id="Fill-216" fill="#466B6A"></path>
            <path d="M290.494594,273.269507 C291.326125,273.632543 288.107377,274.703755 287.296937,274.607883 C286.985672,274.570812 286.655233,274.510093 286.428336,274.294061 C286.167563,274.046072 285.592969,273.526445 285.704181,273.183222 C285.841598,272.759467 286.844421,272.812517 287.215766,272.786951 C288.325965,272.710892 289.473236,272.824021 290.494594,273.269507" id="Fill-217" fill="#E15A4B"></path>
            <path d="M285.663915,283.940719 C285.796218,284.080692 285.964314,284.189348 286.152224,284.231531 C286.209108,284.243675 286.776671,284.342104 286.643089,282.313449 C286.638615,282.252091 286.597071,282.197124 286.555526,282.153023 C286.509507,282.104447 286.448788,282.075047 286.388708,282.046924 C286.090866,281.905672 285.197976,281.27036 284.976192,281.73502 C284.762077,282.183063 285.327723,283.582157 285.663915,283.940719" id="Fill-218" fill="#E15A4B"></path>
            <path d="M298.97225,287.552543 C300.204527,288.208948 301.466844,288.886445 302.4,289.924421 C302.706791,290.2702 302.994407,290.74253 302.821838,291.175872 C302.700399,291.497364 302.342477,291.685912 302.003728,291.710839 C301.658589,291.735766 301.31984,291.627111 300.993875,291.506312 C299.60245,290.986045 298.274301,290.185193 297.387164,288.993822 C297.783435,289.982583 298.130493,291.072969 297.835846,292.096245 C297.732943,292.452889 297.45747,292.840852 297.090599,292.787803 C296.905246,292.760959 296.216245,292.63249 295.676165,291.464767 C295.286285,290.62237 294.953289,289.762716 294.771132,288.85257 C294.605593,288.031265 294.551904,286.620027 295.642929,286.411025 C296.714141,286.20522 298.078722,287.077656 298.97225,287.552543" id="Fill-219" fill="#E15A4B"></path>
            <path d="M296.455286,286.779174 C295.006338,281.993236 286.523569,268.562184 271.59755,265.91036 L272.811292,268.052783 C272.811292,268.052783 271.759893,267.199521 271.850652,267.519095 C272.739707,270.645806 276.681971,278.047776 294.003515,287.243196 C294.505885,287.51036 297.034354,288.692144 296.455286,286.779174" id="Fill-220" fill="#FFFFFE"></path>
            <path d="M279.5249,270.923835 C279.5249,270.923835 278.73747,272.971025 276.115047,273.026631 C276.115047,273.026631 279.06024,274.543329 279.5249,270.923835" id="Fill-221" fill="#B8B8B4"></path>
            <path d="M276.192383,269.791265 C276.083728,270.399734 276.490226,270.981358 277.098695,271.089374 C277.707803,271.19739 278.288788,270.791531 278.396804,270.183063 C278.505459,269.573955 278.203142,269.083089 277.594035,268.975073 C276.985566,268.867057 276.300399,269.182157 276.192383,269.791265" id="Fill-222" fill="#E15A4B"></path>
            <path d="M277.640692,270.861198 C278.097044,270.652836 278.298375,270.112756 278.089374,269.655766 C277.881012,269.198775 277.340932,268.998083 276.883941,269.207084 C276.426951,269.415446 276.238402,269.844314 276.447403,270.301305 C276.656405,270.758296 277.183702,271.0702 277.640692,270.861198" id="Fill-223" fill="#37393C"></path>
            <path d="M277.441917,270.388229 C277.641332,270.29747 277.728256,270.062264 277.637497,269.86285 C277.546099,269.664075 277.311531,269.576511 277.112117,269.667909 C276.913342,269.758668 276.830892,269.9453 276.92229,270.144714 C277.01241,270.343489 277.241864,270.479627 277.441917,270.388229" id="Fill-224" fill="#242528"></path>
            <path d="M277.498802,269.905033 C277.480266,270.011132 277.550573,270.112117 277.656671,270.130652 C277.76213,270.149188 277.863116,270.078881 277.88229,269.972783 C277.901465,269.867324 277.850333,269.80213 277.744234,269.783595 C277.638136,269.764421 277.517337,269.798935 277.498802,269.905033" id="Fill-225" fill="#FFFFFE"></path>
            <path d="M285.969427,275.430466 C286.089587,275.563409 286.212943,275.737257 286.156059,275.90727 C286.068495,276.166764 285.693955,276.134807 285.434461,276.047244 C284.40032,275.699547 283.377683,275.304554 282.416405,274.786844 C282.604953,274.975393 282.796698,275.168415 282.920053,275.404261 C283.044687,275.640107 283.093262,275.93028 282.985246,276.174434 C282.87723,276.418589 282.583222,276.584767 282.332037,276.493369 C282.229774,276.456937 282.144767,276.382796 282.068069,276.306099 C281.558668,275.794141 281.341358,275.087244 281.261465,274.385459 C281.174541,273.629348 281.06269,273.010652 281.97731,273.184501 C283.49976,273.474674 284.930812,274.281278 285.969427,275.430466" id="Fill-226" fill="#E15A4B"></path>
            <path d="M291.746684,280.38514 C291.746684,280.38514 292.234354,281.595686 291.002077,281.095233 L291.746684,280.38514" id="Fill-227" fill="#E4E2DD"></path>
            <path d="M281.868655,271.042077 L281.321545,271.839734 C281.321545,271.839734 282.617097,272.271158 281.868655,271.042077" id="Fill-228" fill="#E4E2DD"></path>
            <path d="M287.479734,280.514887 L286.888522,281.151478 C286.888522,281.151478 288.019174,281.752277 287.479734,280.514887" id="Fill-229" fill="#E4E2DD"></path>
            <path d="M290.367403,282.61257 L289.592756,283.331611 C289.592756,283.331611 290.812889,283.900453 290.367403,282.61257" id="Fill-230" fill="#E4E2DD"></path>
            <path d="M293.372037,282.465566 L292.879893,282.862477 C292.879893,282.862477 293.721651,283.504181 293.372037,282.465566" id="Fill-231" fill="#E4E2DD"></path>
            <path d="M292.017683,283.763036 L291.526818,284.308229 C291.526818,284.308229 292.731611,284.802929 292.017683,283.763036" id="Fill-232" fill="#E4E2DD"></path>
            <path d="M293.725486,284.113928 L293.263382,284.657843 C293.263382,284.657843 294.430466,285.273981 293.725486,284.113928" id="Fill-233" fill="#E4E2DD"></path>
            <path d="M294.238083,285.971931 L293.768948,286.393129 C293.768948,286.393129 294.895126,287.15755 294.238083,285.971931" id="Fill-234" fill="#E4E2DD"></path>
            <path d="M295.162929,284.995313 L294.654807,285.341731 C294.654807,285.341731 295.492091,285.937417 295.162929,284.995313" id="Fill-235" fill="#E4E2DD"></path>
            <path d="M289.359467,280.849161 L288.870519,281.306791 C288.870519,281.306791 289.895073,281.934434 289.359467,280.849161" id="Fill-236" fill="#E4E2DD"></path>
            <path d="M284.903968,280.461838 L284.545406,280.897097 C284.545406,280.897097 285.463862,281.263968 284.903968,280.461838" id="Fill-237" fill="#E4E2DD"></path>
            <path d="M284.785087,272.60032 L284.34727,272.999787 C284.34727,272.999787 285.283622,273.44783 284.785087,272.60032" id="Fill-238" fill="#E4E2DD"></path>
            <path d="M280.360905,272.342743 L279.965273,272.827217 C279.965273,272.827217 281.262104,273.370493 280.360905,272.342743" id="Fill-239" fill="#E4E2DD"></path>
            <path d="M277.174115,273.95723 L276.71968,274.286391 C276.71968,274.286391 277.353715,274.990093 277.174115,273.95723" id="Fill-240" fill="#E4E2DD"></path>
            <path d="M302.598136,276.923515 C303.128628,276.76245 303.716644,276.563036 303.985087,276.077284 C304.419707,275.310306 303.74221,274.30237 302.892144,274.057577 C302.048469,273.811505 301.14727,274.081864 300.304874,274.329854 C293.379707,276.369374 286.141997,277.052623 279.026365,278.264447 C278.357177,278.378216 277.643249,278.519467 277.164527,279.000746 C276.709454,279.457736 276.560533,280.129481 276.454434,280.765433 C276.288895,281.759308 276.181518,282.76213 276.132943,283.768149 C285.17241,283.001811 293.954301,279.528043 302.598136,276.923515" id="Fill-241" fill="#BB933F"></path>
        </g>
    </g>
</svg>