<?xml version="1.0" encoding="UTF-8"?>
<svg width="120px" height="120px" viewBox="0 0 120 120" version="1.1" xmlns="http://www.w3.org/2000/svg" xmlns:xlink="http://www.w3.org/1999/xlink">
    <!-- Generator: Sketch 51.1 (57501) - http://www.bohemiancoding.com/sketch -->
    <title>Bug3</title>
    <desc>Created with Sketch.</desc>
    <defs>
        <polygon id="path-1" points="0.670051198 0.236250519 9.154425 0.236250519 9.154425 4.86498899 0.670051198 4.86498899"></polygon>
        <polygon id="path-3" points="0 119.95751 97.354425 119.95751 97.354425 0.000367346939 0 0.000367346939"></polygon>
    </defs>
    <g id="Bug3" stroke="none" stroke-width="1" fill="none" fill-rule="evenodd">
        <g id="Group" transform="translate(11.000000, 0.000000)">
            <path d="M28.30779,89.6490612 C17.509415,91.1747755 10.11899,101.949061 12.952415,112.766204 C13.373815,114.370286 12.143915,115.932735 10.482815,115.932735 L8.378265,115.932735 C3.32269,101.331918 13.275815,86.0453878 28.18284,84.3347755 C34.460965,83.6123265 40.318915,85.3302857 44.94819,88.6498776 C43.768515,89.9955918 42.555765,91.2947755 41.360165,92.6000816 C37.712115,90.1633469 33.16369,88.9621224 28.30779,89.6490612" id="Fill-1" fill="#7D421A"></path>
            <path d="M4.7612075,112.749306 L10.2504325,112.749306 C11.1299825,112.749306 11.8441575,113.461959 11.8441575,114.342367 C11.8441575,115.222776 11.1299825,115.93298 10.2504325,115.93298 L4.7612075,115.93298 C3.8816575,115.93298 3.1674825,115.222776 3.1674825,114.342367 C3.1674825,113.461959 3.8804325,112.749306 4.7612075,112.749306" id="Fill-3" fill="#7D421A"></path>
            <path d="M4.7612075,107.440041 L10.2504325,107.440041 C11.1299825,107.440041 11.8441575,108.150245 11.8441575,109.033102 C11.8441575,109.911061 11.1299825,110.623714 10.2504325,110.623714 L4.7612075,110.623714 C3.8816575,110.623714 3.1674825,109.911061 3.1674825,109.033102 C3.1674825,108.150245 3.8804325,107.440041 4.7612075,107.440041" id="Fill-5" fill="#7D421A"></path>
            <path d="M4.7612075,102.128327 L10.2504325,102.128327 C11.1299825,102.128327 11.8441575,102.84098 11.8441575,103.721388 C11.8441575,104.601796 11.1299825,105.316898 10.2504325,105.316898 L4.7612075,105.316898 C3.8816575,105.316898 3.1674825,104.601796 3.1674825,103.721388 C3.1674825,102.84098 3.8816575,102.128327 4.7612075,102.128327" id="Fill-7" fill="#7D421A"></path>
            <path d="M69.1347125,89.6490612 C79.9343125,91.1747755 87.3222875,101.949061 84.4888625,112.766204 C84.0686875,114.370286 85.2973625,115.932735 86.9596875,115.932735 L89.0630125,115.932735 C94.1185875,101.331918 84.1666875,86.0453878 69.2596625,84.3347755 C62.9815375,83.6123265 57.1235875,85.3302857 52.4943125,88.6498776 C53.6739875,89.9955918 54.8867375,91.2947755 56.0823375,92.6000816 C59.7303875,90.1633469 64.2788125,88.9621224 69.1347125,89.6490612" id="Fill-9" fill="#7D421A"></path>
            <path d="M92.681295,112.749306 L87.19207,112.749306 C86.311295,112.749306 85.59957,113.461959 85.59957,114.342367 C85.59957,115.222776 86.311295,115.93298 87.19207,115.93298 L92.681295,115.93298 C93.560845,115.93298 94.27502,115.222776 94.27502,114.342367 C94.27502,113.461959 93.560845,112.749306 92.681295,112.749306" id="Fill-11" fill="#7D421A"></path>
            <path d="M92.681295,107.440041 L87.19207,107.440041 C86.311295,107.440041 85.59957,108.150245 85.59957,109.033102 C85.59957,109.911061 86.311295,110.623714 87.19207,110.623714 L92.681295,110.623714 C93.560845,110.623714 94.27502,109.911061 94.27502,109.033102 C94.27502,108.150245 93.560845,107.440041 92.681295,107.440041" id="Fill-13" fill="#7D421A"></path>
            <path d="M92.681295,102.128327 L87.19207,102.128327 C86.311295,102.128327 85.59957,102.84098 85.59957,103.721388 C85.59957,104.601796 86.311295,105.316898 87.19207,105.316898 L92.681295,105.316898 C93.560845,105.316898 94.27502,104.601796 94.27502,103.721388 C94.27502,102.84098 93.560845,102.128327 92.681295,102.128327" id="Fill-15" fill="#7D421A"></path>
            <path d="M30.9850275,65.0373061 C20.1793025,63.5617959 10.1318525,71.9103673 9.9040025,83.0911837 C9.8709275,84.7515918 8.2612775,85.9185306 6.6638775,85.4666939 L4.6401775,84.8924082 C3.7606275,69.4638367 17.5063525,57.4724082 32.3166025,59.8907755 C38.5530775,60.909551 43.7201275,64.156898 47.2677275,68.6128163 C45.7646525,69.5887347 44.2432025,70.5046531 42.7376775,71.4377143 C39.8920025,68.0960816 35.8446025,65.7022041 30.9850275,65.0373061" id="Fill-17" fill="#7D421A"></path>
            <path d="M2.0289675,80.8384898 L7.3099425,82.3360408 C8.1564175,82.5772653 8.6476425,83.4576735 8.4075425,84.3037959 C8.1674425,85.1499184 7.2866675,85.6409388 6.4401925,85.4021633 L1.1592175,83.9046122 C0.3127425,83.6658367 -0.1797075,82.7829796 0.0616175,81.9380816 C0.3004925,81.0919592 1.1824925,80.5997143 2.0289675,80.8384898" id="Fill-19" fill="#7D421A"></path>
            <path d="M3.4776525,75.7324898 L8.7586275,77.2300408 C9.6051025,77.4688163 10.0963275,78.3492245 9.8562275,79.1953469 C9.6173525,80.0426939 8.7353525,80.5349388 7.8901025,80.2937143 L2.6079025,78.7961633 C1.7614275,78.5573878 1.2689775,77.6769796 1.5103025,76.8296327 C1.7504025,75.9835102 2.6311775,75.4912653 3.4776525,75.7324898" id="Fill-21" fill="#7D421A"></path>
            <path d="M4.9263375,70.6240408 L10.2085375,72.1215918 C11.0537875,72.3603673 11.5450125,73.2407755 11.3061375,74.086898 C11.0660375,74.9342449 10.1852625,75.4264898 9.3387875,75.1852653 L4.0565875,73.6877143 C3.2113375,73.4489388 2.7188875,72.5685306 2.9589875,71.7211837 C3.1990875,70.8750612 4.0810875,70.3828163 4.9263375,70.6240408" id="Fill-23" fill="#7D421A"></path>
            <path d="M66.547145,64.9678776 C77.36757,63.6025714 87.33172,72.054 87.443195,83.2372653 C87.45912,84.896449 89.05652,86.0780816 90.657595,85.6433878 L92.68742,85.0911429 C93.72622,69.6748163 80.10422,57.5401224 65.270695,59.8066531 C59.023195,60.7605306 53.824295,63.956449 50.23137,68.3756327 C51.722195,69.3637959 53.23507,70.2993061 54.730795,71.2458367 C57.609545,67.9335918 61.68267,65.5801224 66.547145,64.9678776" id="Fill-25" fill="#7D421A"></path>
            <g id="Group-29" transform="translate(88.200000, 80.773837)">
                <mask id="mask-2" fill="white">
                    <use xlink:href="#path-1"></use>
                </mask>
                <g id="Clip-28"></g>
                <path d="M7.1406475,0.291795918 L1.8461975,1.7342449 C0.9960475,1.96567347 0.4950225,2.84118367 0.7265475,3.6897551 C0.9568475,4.53955102 1.8339475,5.03914286 2.6828725,4.80893878 L7.9797725,3.36526531 C8.8286975,3.13506122 9.3297225,2.25955102 9.0981975,1.41097959 C8.8654475,0.562408163 7.9895725,0.0628163265 7.1406475,0.291795918" id="Fill-27" fill="#7D421A" mask="url(#mask-2)"></path>
            </g>
            <path d="M93.9446375,75.9428571 L88.6489625,77.3853061 C87.8000375,77.6167347 87.2990125,78.4922449 87.5305375,79.3408163 C87.7608375,80.1906122 88.6379375,80.6902041 89.4856375,80.46 L94.7825375,79.0163265 C95.6326875,78.7861224 96.1324875,77.9106122 95.9009625,77.0620408 C95.6694375,76.2134694 94.7935625,75.7114286 93.9446375,75.9428571" id="Fill-30" fill="#7D421A"></path>
            <path d="M92.548505,70.8200816 L87.25283,72.2625306 C86.40268,72.4939592 85.90288,73.3694694 86.134405,74.2180408 C86.364705,75.0678367 87.241805,75.5674286 88.089505,75.336 L93.386405,73.893551 C94.23533,73.6633469 94.736355,72.7878367 94.50483,71.9392653 L94.50483,71.9368163 C94.273305,71.0906939 93.396205,70.5886531 92.548505,70.8200816" id="Fill-32" fill="#7D421A"></path>
            <path d="M28.30779,52.4384082 C17.509415,50.9126939 10.11899,40.1384082 12.952415,29.3212653 C13.373815,27.7147347 12.143915,26.1522857 10.482815,26.1522857 L8.378265,26.1522857 C3.32269,40.755551 13.275815,56.0420816 28.18284,57.7526939 C34.460965,58.4751429 40.318915,56.7571837 44.94819,53.4375918 C43.768515,52.0918776 42.555765,50.7926939 41.360165,49.4849388 C37.712115,51.9241224 33.16369,53.1253469 28.30779,52.4384082" id="Fill-34" fill="#7D421A"></path>
            <path d="M4.7612075,29.3381633 L10.2504325,29.3381633 C11.1299825,29.3381633 11.8441575,28.6255102 11.8441575,27.745102 C11.8441575,26.8646939 11.1299825,26.1520408 10.2504325,26.1520408 L4.7612075,26.1520408 C3.8816575,26.1520408 3.1674825,26.8646939 3.1674825,27.745102 C3.1674825,28.6255102 3.8804325,29.3381633 4.7612075,29.3381633" id="Fill-36" fill="#7D421A"></path>
            <path d="M4.7612075,34.6498776 L10.2504325,34.6498776 C11.1299825,34.6498776 11.8441575,33.9347755 11.8441575,33.0568163 L11.8441575,33.0543673 C11.8441575,32.1764082 11.1299825,31.4613061 10.2504325,31.4613061 L4.7612075,31.4613061 C3.8816575,31.4613061 3.1674825,32.1764082 3.1674825,33.0568163 C3.1674825,33.9347755 3.8804325,34.6498776 4.7612075,34.6498776" id="Fill-38" fill="#7D421A"></path>
            <path d="M4.7612075,39.9591429 L10.2504325,39.9591429 C11.1299825,39.9591429 11.8441575,39.2440408 11.8441575,38.3660816 C11.8441575,37.4856735 11.1299825,36.7730204 10.2504325,36.7730204 L4.7612075,36.7730204 C3.8816575,36.7730204 3.1674825,37.4856735 3.1674825,38.3660816 C3.1674825,39.2440408 3.8816575,39.9591429 4.7612075,39.9591429" id="Fill-40" fill="#7D421A"></path>
            <path d="M69.1347125,52.4384082 C79.9330875,50.9126939 87.3222875,40.1384082 84.4888625,29.3212653 C84.0686875,27.7147347 85.2973625,26.1522857 86.9596875,26.1522857 L89.0630125,26.1522857 C94.1185875,40.755551 84.1666875,56.0420816 69.2596625,57.7526939 C62.9815375,58.4751429 57.1235875,56.7571837 52.4943125,53.4375918 C53.6739875,52.0918776 54.8867375,50.7926939 56.0823375,49.4849388 C59.7303875,51.9241224 64.2788125,53.1253469 69.1347125,52.4384082" id="Fill-42" fill="#7D421A"></path>
            <path d="M92.681295,29.3381633 L87.19207,29.3381633 C86.311295,29.3381633 85.59957,28.6255102 85.59957,27.745102 C85.59957,26.8646939 86.311295,26.1520408 87.19207,26.1520408 L92.681295,26.1520408 C93.560845,26.1520408 94.27502,26.8646939 94.27502,27.745102 C94.27502,28.6255102 93.560845,29.3381633 92.681295,29.3381633" id="Fill-44" fill="#7D421A"></path>
            <path d="M92.681295,34.6498776 L87.19207,34.6498776 C86.311295,34.6498776 85.59957,33.9347755 85.59957,33.0543673 C85.59957,32.1764082 86.311295,31.4613061 87.19207,31.4613061 L92.681295,31.4613061 C93.560845,31.4613061 94.27502,32.1764082 94.27502,33.0543673 C94.27502,33.9347755 93.560845,34.6498776 92.681295,34.6498776" id="Fill-46" fill="#7D421A"></path>
            <path d="M92.681295,39.9591429 L87.19207,39.9591429 C86.311295,39.9591429 85.59957,39.2440408 85.59957,38.3660816 C85.59957,37.4856735 86.311295,36.7730204 87.19207,36.7730204 L92.681295,36.7730204 C93.560845,36.7730204 94.27502,37.4856735 94.27502,38.3660816 C94.27502,39.2440408 93.560845,39.9591429 92.681295,39.9591429" id="Fill-48" fill="#7D421A"></path>
            <path d="M74.0442675,60.844898 L22.4533925,60.844898 L22.4533925,49.2795918 C22.4533925,36.295102 32.9834925,25.7693878 45.9733925,25.7693878 L50.5242675,25.7693878 C63.5141675,25.7693878 74.0442675,36.295102 74.0442675,49.2795918 L74.0442675,60.844898 Z" id="Fill-50" fill="#BF7927"></path>
            <path d="M74.0442675,60.844898 L22.4533925,60.844898 L22.4533925,90.6318367 C22.0319925,110.668163 41.3232925,119.957143 48.4895425,119.957143 C56.4973675,119.957143 74.0442675,110.668163 74.0442675,90.6318367 L74.0442675,60.844898 Z" id="Fill-52" fill="#B14425"></path>
            <path d="M56.56658,14.9647347 C60.45963,9.28432653 66.07258,4.77697959 71.21023,3.2035102 C73.63818,2.45902041 77.66843,1.68391837 81.548005,3.07616327 C81.550455,3.12881633 82.008605,0.594122449 81.930205,0.785142857 C78.573705,-0.321795918 74.695355,-0.266693878 70.53648,1.008 C64.83778,2.75289796 58.907555,7.48677551 54.671505,13.668 L56.56658,14.9647347 Z" id="Fill-54" fill="#19171C"></path>
            <path d="M41.1571825,14.9647347 C37.2629075,9.28432653 31.6524075,4.77697959 26.5135325,3.2035102 C24.0855825,2.45902041 20.0553325,1.68391837 16.1757575,3.07616327 C16.1733075,3.12881633 15.7151575,0.594122449 15.7923325,0.785142857 C19.1500575,-0.321795918 23.0284075,-0.266693878 27.1872825,1.008 C32.8847575,2.75289796 38.8162075,7.48677551 43.0522575,13.668 L41.1571825,14.9647347 Z" id="Fill-56" fill="#19171C"></path>
            <path d="M48.489175,35.8528163 C56.657475,35.8528163 63.2786,29.2332245 63.2786,21.0683265 C63.2786,12.9034286 56.657475,6.28628571 48.489175,6.28628571 C40.320875,6.28628571 33.69975,12.9034286 33.69975,21.0683265 C33.69975,29.2332245 40.320875,35.8528163 48.489175,35.8528163" id="Fill-58" fill="#B14425"></path>
            <path d="M63.0540575,18.4803673 C60.1704075,5.53506122 48.2487075,6.28567347 48.2487075,6.28567347 C48.8146575,21.6922041 63.0540575,18.4803673 63.0540575,18.4803673" id="Fill-60" fill="#19171C"></path>
            <path d="M33.9267425,18.4803673 C36.8103925,5.53506122 48.7320925,6.28567347 48.7320925,6.28567347 C48.1661425,21.6922041 33.9267425,18.4803673 33.9267425,18.4803673" id="Fill-62" fill="#19171C"></path>
            <path d="M45.58813,47.7724898 C45.58813,52.2884082 41.92538,55.9496327 37.40758,55.9496327 C32.88978,55.9496327 29.228255,52.2884082 29.228255,47.7724898 C29.228255,43.2565714 32.88978,39.5953469 37.40758,39.5953469 C41.92538,39.5953469 45.58813,43.2565714 45.58813,47.7724898" id="Fill-64" fill="#FDB947"></path>
            <path d="M68.3487525,47.7724898 C68.3487525,52.2884082 64.6872275,55.9496327 60.1694275,55.9496327 C55.6516275,55.9496327 51.9901025,52.2884082 51.9901025,47.7724898 C51.9901025,43.2565714 55.6516275,39.5953469 60.1694275,39.5953469 C64.6872275,39.5953469 68.3487525,43.2565714 68.3487525,47.7724898" id="Fill-66" fill="#FDB947"></path>
            <mask id="mask-4" fill="white">
                <use xlink:href="#path-3"></use>
            </mask>
            <g id="Clip-69"></g>
            <polygon id="Fill-68" fill="#19171C" mask="url(#mask-4)" points="47.91955 119.95751 49.0588 119.95751 49.0588 60.8452653 47.91955 60.8452653"></polygon>
        </g>
    </g>
</svg>