<?xml version="1.0" encoding="UTF-8"?>
<svg width="120px" height="120px" viewBox="0 0 120 120" version="1.1" xmlns="http://www.w3.org/2000/svg" xmlns:xlink="http://www.w3.org/1999/xlink">
    <!-- Generator: Sketch 51.1 (57501) - http://www.bohemiancoding.com/sketch -->
    <title>Skeleton</title>
    <desc>Created with Sketch.</desc>
    <defs>
        <polygon id="path-1" points="0.0004 0.0003 108.592 0.0003 108.592 120 0.0004 120"></polygon>
    </defs>
    <g id="Skeleton" stroke="none" stroke-width="1" fill="none" fill-rule="evenodd">
        <g id="Page-1" transform="translate(6.000000, 0.000000)">
            <g id="Group-3">
                <mask id="mask-2" fill="white">
                    <use xlink:href="#path-1"></use>
                </mask>
                <g id="Clip-2"></g>
                <path d="M76.9884,80.3343 C68.7244,80.3343 62.0194,73.6213 62.0194,65.3543 C62.0194,57.1013 68.7244,50.3893 76.9884,50.3893 C85.2484,50.3893 91.9544,57.1013 91.9544,65.3543 C91.9544,73.6363 85.2554,80.3343 76.9884,80.3343 M58.5444,91.3363 L50.0404,91.3363 C48.0734,91.3363 46.8174,89.2293 47.7604,87.4983 L52.0294,79.7733 C53.0124,77.9863 55.5834,77.9863 56.5624,79.7733 L60.8244,87.4983 C61.7574,89.2293 60.5044,91.3363 58.5444,91.3363 M31.5864,80.3343 C23.3294,80.3343 16.6244,73.6213 16.6244,65.3543 C16.6244,57.1013 23.3294,50.3893 31.5864,50.3893 C39.8524,50.3893 46.5614,57.1013 46.5614,65.3543 C46.5614,73.6363 39.8524,80.3343 31.5864,80.3343 M54.2914,0.0003 C24.3134,0.0143 0.0004,24.3273 0.0004,54.3303 L0.0004,79.9103 C0.0004,81.2713 0.6284,82.5303 1.7124,83.3563 L25.0554,101.0673 L25.0554,115.6853 C25.0554,118.0623 26.9834,120.0003 29.3714,120.0003 L36.4934,120.0003 C38.8844,120.0003 40.8144,118.0623 40.8144,115.6853 L40.8144,109.7553 C40.8144,108.2403 40.6784,107.1423 41.2594,107.1423 C41.8424,107.1423 42.1684,108.2403 42.1684,109.7553 L42.1684,115.6853 C42.1684,118.0623 44.5554,120.0003 46.9464,120.0003 L48.3754,120.0003 C50.7584,120.0003 52.9664,118.0623 52.9664,115.6853 L52.9664,109.7553 C52.9664,108.2403 53.0924,107.0483 54.1474,107.0203 L54.4304,107.0203 C55.4544,107.0483 55.4894,108.2403 55.4894,109.7553 L55.4894,115.6853 C55.4894,118.0623 56.2004,120.0003 61.4884,120.0003 L61.6244,120.0003 C64.0154,120.0003 66.2554,118.0623 66.2554,115.6853 L66.2554,109.7553 C66.2554,108.2403 66.0214,107.0203 67.2574,107.0203 C68.0004,107.0203 68.0964,108.2403 68.0964,109.7553 L68.0964,115.6853 C68.0964,118.0623 69.3884,120.0003 75.7354,120.0003 L79.2144,120.0003 C81.6044,120.0003 83.5394,118.0623 83.5394,115.6853 L83.5394,101.0533 L106.8844,83.3353 C107.9574,82.5233 108.5924,81.2533 108.5924,79.9023 L108.5924,54.3053 C108.5814,24.3273 84.2674,0.0143 54.2914,0.0003" id="Fill-1" fill="#FFFFFF" mask="url(#mask-2)"></path>
            </g>
            <path d="M50.8517,63.9505 C50.8517,73.0245 43.4937,80.3805 34.4147,80.3805 C25.3397,80.3805 17.9847,73.0245 17.9847,63.9505 C17.9847,54.8725 25.3397,47.5165 34.4147,47.5165 C43.4937,47.5165 50.8517,54.8725 50.8517,63.9505" id="Fill-4" fill="#231F20"></path>
            <path d="M90.7697,63.9505 C90.7697,73.0245 83.4107,80.3805 74.3357,80.3805 C65.2537,80.3805 57.8947,73.0245 57.8947,63.9505 C57.8947,54.8725 65.2537,47.5165 74.3357,47.5165 C83.4107,47.5165 90.7697,54.8725 90.7697,63.9505" id="Fill-6" fill="#231F20"></path>
            <path d="M71.464,83.2484 C71.464,92.3304 64.098,99.6894 55.024,99.6894 C45.952,99.6894 38.593,92.3304 38.593,83.2484 C38.593,74.1744 45.952,66.8114 55.024,66.8114 C64.098,66.8114 71.464,74.1744 71.464,83.2484" id="Fill-8" fill="#231F20"></path>
            <path d="M75.212,78.7396 C67.594,78.7396 61.413,72.5516 61.413,64.9526 C61.413,57.3316 67.594,51.1426 75.212,51.1426 C82.828,51.1426 89.01,57.3316 89.01,64.9526 C89.01,72.5726 82.836,78.7396 75.212,78.7396 M58.211,88.8776 L50.374,88.8776 C48.558,88.8776 47.401,86.9466 48.277,85.3486 L52.209,78.2186 C53.107,76.5796 55.483,76.5796 56.387,78.2186 L60.311,85.3486 C61.176,86.9466 60.02,88.8776 58.211,88.8776 M33.366,78.7396 C25.753,78.7396 19.571,72.5516 19.571,64.9526 C19.571,57.3316 25.753,51.1426 33.366,51.1426 C40.983,51.1426 47.165,57.3316 47.165,64.9526 C47.165,72.5726 40.983,78.7396 33.366,78.7396 M54.291,4.7026 C26.653,4.7136 4.243,27.1206 4.243,54.7676 L4.243,78.3556 C4.243,79.5946 4.832,80.7716 5.826,81.5256 L27.347,97.8586 L27.347,111.3306 C27.347,113.5206 29.119,115.2976 31.327,115.2976 L34.523,115.2976 C36.726,115.2976 39.903,113.5206 39.903,111.3306 L39.903,105.8486 C39.903,104.4686 39.63,103.3366 41.026,103.3366 C42.416,103.3366 43.005,104.4686 43.005,105.8486 L43.005,111.3306 C43.005,113.5206 45.323,115.2976 47.521,115.2976 L47.657,115.2976 C49.858,115.2976 52.255,113.5206 52.255,111.3306 L52.255,105.8486 C52.255,104.4686 52.769,103.3366 54.161,103.3366 L54.42,103.3366 C55.813,103.3366 56.329,104.4686 56.329,105.8486 L56.329,111.3306 C56.329,113.5206 58.72,115.2976 60.921,115.2976 L61.054,115.2976 C63.258,115.2976 65.509,113.5206 65.509,111.3306 L65.509,105.8486 C65.509,104.4686 66.162,103.3366 67.555,103.3366 C68.947,103.3366 68.937,104.4686 68.937,105.8486 L68.937,111.3306 C68.937,113.5206 71.856,115.2976 74.056,115.2976 L77.265,115.2976 C79.469,115.2976 81.246,113.5206 81.246,111.3306 L81.246,97.8436 L102.763,81.5106 C103.764,80.7506 104.345,79.5876 104.345,78.3386 L104.345,54.7536 C104.327,27.1206 81.921,4.7136 54.291,4.7026" id="Fill-10" fill="#774111"></path>
            <path d="M74.6154,78.2054 C67.2204,78.2054 61.2084,72.2074 61.2084,64.8014 C61.2084,57.3954 67.2204,51.3934 74.6154,51.3934 C82.0174,51.3934 88.0224,57.3954 88.0224,64.8014 C88.0224,72.2104 82.0314,78.2054 74.6154,78.2054 M58.1024,88.0734 L50.4894,88.0734 C48.7194,88.0734 47.5994,86.1714 48.4504,84.6234 L52.2654,77.7064 C53.1414,76.1124 55.4544,76.1124 56.3264,77.7064 L60.1414,84.6234 C60.9784,86.1714 59.8544,88.0734 58.1024,88.0734 M33.9584,78.2054 C26.5634,78.2054 20.5514,72.2074 20.5514,64.8014 C20.5514,57.3954 26.5634,51.3934 33.9584,51.3934 C41.3604,51.3934 47.3624,57.3954 47.3624,64.8014 C47.3624,72.2104 41.3604,78.2054 33.9584,78.2054 M54.2914,6.2644 C27.4394,6.2814 5.6574,28.0544 5.6574,54.9114 L5.6574,77.8354 C5.6574,79.0494 6.2314,80.1764 7.1944,80.9154 L28.1074,96.7814 L28.1074,109.8734 C28.1074,112.0094 29.8384,113.7474 31.9764,113.7474 L35.0784,113.7474 C37.2214,113.7474 38.9524,112.0094 38.9524,109.8734 L38.9524,104.5574 C38.9524,103.2004 40.0394,102.1094 41.3924,102.1094 C42.7534,102.1094 43.8444,103.2004 43.8444,104.5574 L43.8444,109.8734 C43.8444,112.0094 45.5754,113.7474 47.7144,113.7474 L47.8444,113.7474 C49.9834,113.7474 51.7104,112.0094 51.7104,109.8734 L51.7104,104.5574 C51.7104,103.2004 52.8074,102.1094 54.1614,102.1094 L54.4164,102.1094 C55.7694,102.1094 56.8684,103.2004 56.8684,104.5574 L56.8684,109.8734 C56.8684,112.0094 58.5974,113.7474 60.7304,113.7474 L60.8674,113.7474 C62.9994,113.7474 64.7294,112.0094 64.7294,109.8734 L64.7294,104.5574 C64.7294,103.2004 65.8284,102.1094 67.1784,102.1094 C68.5344,102.1094 69.6334,103.2004 69.6334,104.5574 L69.6334,109.8734 C69.6334,112.0094 71.3594,113.7474 73.4994,113.7474 L76.6154,113.7474 C78.7544,113.7474 80.4844,112.0094 80.4844,109.8734 L80.4844,96.7744 L101.3904,80.9084 C102.3604,80.1694 102.9274,79.0344 102.9274,77.8204 L102.9274,54.8974 C102.9094,28.0544 81.1414,6.2814 54.2914,6.2644" id="Fill-12" fill="#FFFFFF"></path>
        </g>
    </g>
</svg>