<?xml version="1.0" encoding="UTF-8"?>
<svg width="120px" height="120px" viewBox="0 0 120 120" version="1.1" xmlns="http://www.w3.org/2000/svg" xmlns:xlink="http://www.w3.org/1999/xlink">
    <!-- Generator: Sketch 51.1 (57501) - http://www.bohemiancoding.com/sketch -->
    <title>Cake1</title>
    <desc>Created with Sketch.</desc>
    <defs>
        <polygon id="path-1" points="0.033528 0.09756 49.220328 0.09756 49.220328 36.82518 0.033528 36.82518"></polygon>
        <polygon id="path-3" points="2.71226446e-05 0.0730367529 108 0.0730367529 108 20.4037812 2.71226446e-05 20.4037812"></polygon>
    </defs>
    <g id="Cake1" stroke="none" stroke-width="1" fill="none" fill-rule="evenodd">
        <g id="Page-1" transform="translate(6.000000, 10.680000)">
            <g id="Group-3" transform="translate(28.560000, 0.022440)">
                <mask id="mask-2" fill="white">
                    <use xlink:href="#path-1"></use>
                </mask>
                <g id="Clip-2"></g>
                <path d="M35.418048,0.0975 C31.618008,0.0975 28.475568,1.1973 26.077488,3.36642 C25.892808,3.52962 25.714008,3.69822 25.541208,3.87162 C24.858528,3.12558 24.074928,2.48214 23.196888,1.94802 C21.178968,0.72006 18.714888,0.0975 15.872928,0.0975 C12.787968,0.0975 9.980328,1.10958 7.741368,3.02646 C6.050568,4.02546 4.591248,5.4321 3.402168,7.2099 C1.166808,10.50126 0.033528,14.71698 0.033528,19.73982 C0.033528,24.64914 1.117968,28.49958 3.349008,31.51158 C4.616688,33.24186 6.209328,34.57686 8.082648,35.4795 C9.936048,36.37242 12.032208,36.82518 14.312808,36.82518 C18.007488,36.82518 21.330648,35.51754 23.925528,33.04338 C24.123768,33.23526 24.329448,33.4221 24.542088,33.60306 C27.066168,35.74182 30.450648,36.82518 34.603608,36.82518 C38.702208,36.82518 42.072888,35.75334 44.621928,33.63954 C44.652048,33.61458 44.682288,33.58878 44.710608,33.56418 C47.096208,31.49082 48.464328,28.88466 48.778608,25.8159 C49.071768,24.7719 49.220328,23.65746 49.220328,22.50054 C49.220328,20.34162 48.643848,18.3489 47.504568,16.5639 C47.651448,16.09998 47.767728,15.62046 47.852088,15.12942 C48.232488,14.01378 48.425448,12.79662 48.425448,11.5089 C48.425448,8.33958 47.162688,5.5287 44.774088,3.38022 L44.764248,3.37146 L44.760288,3.36786 L44.756328,3.36438 C42.322728,1.1967 39.180888,0.0975 35.418048,0.0975 M35.418048,1.7403 C38.765688,1.7403 41.540088,2.69946 43.663608,4.59102 L43.675488,4.60182 L43.675488,4.6017 C45.708168,6.43002 46.782528,8.81838 46.782528,11.5089 C46.782528,12.66954 46.605168,13.74414 46.254408,14.72166 C46.138488,15.4569 45.942768,16.1505 45.669648,16.79994 C46.934568,18.4785 47.577528,20.39454 47.577528,22.50054 C47.577528,23.56422 47.437008,24.56718 47.157888,25.5069 C46.915128,28.20966 45.732888,30.49926 43.633368,32.32398 C43.614288,32.34042 43.594008,32.35782 43.573368,32.37498 C41.326848,34.23774 38.309088,35.18238 34.603608,35.18238 C30.850488,35.18238 27.823368,34.23006 25.606488,32.3517 C24.972408,31.8123 24.416928,31.22202 23.945808,30.5877 C23.602248,31.02402 23.223168,31.44126 22.811448,31.83558 C20.525328,34.0251 17.586408,35.18238 14.312808,35.18238 C10.230408,35.18238 6.896448,33.57618 4.671768,30.53742 C2.657088,27.8193 1.676208,24.28614 1.676208,19.73982 C1.676208,15.04998 2.715288,11.14326 4.764168,8.12838 C5.851368,6.5013 7.177368,5.24142 8.701248,4.36866 C10.665648,2.64042 13.099728,1.7403 15.872928,1.7403 C18.409128,1.7403 20.585928,2.28234 22.343088,3.35142 C23.625888,4.1319 24.661848,5.17902 25.440408,6.47286 C25.532928,6.37638 25.627728,6.28122 25.725048,6.18762 C26.136168,5.61318 26.618928,5.07918 27.172608,4.5909 C29.257368,2.70186 32.034408,1.7403 35.418048,1.7403" id="Fill-1" fill="#FFFFFF" mask="url(#mask-2)"></path>
            </g>
            <path d="M26.568984,23.360688 L27.301104,24.843168 C27.384144,25.011288 27.544584,25.127928 27.730344,25.154808 L29.367264,25.392648 C29.834784,25.460448 30.021504,26.034648 29.683224,26.364168 L28.498584,27.518208 C28.364304,27.649008 28.302984,27.837648 28.334664,28.022448 L28.614384,29.651808 C28.694184,30.117168 28.205544,30.472128 27.787224,30.252408 L26.323104,29.483088 C26.157024,29.395728 25.958664,29.395728 25.792584,29.483088 L24.328464,30.252408 C23.910264,30.472128 23.421504,30.117168 23.501424,29.651808 L23.781144,28.022448 C23.812704,27.837648 23.751504,27.649008 23.617104,27.518208 L22.432464,26.364168 C22.094304,26.034648 22.281024,25.460448 22.748424,25.392648 L24.385464,25.154808 C24.571224,25.127928 24.731544,25.011288 24.814704,24.843168 L25.546704,23.360688 C25.755864,22.937328 26.359944,22.937328 26.568984,23.360688" id="Fill-4" fill="#FFFFFF"></path>
            <path d="M26.568984,23.360688 L27.301104,24.843168 C27.384144,25.011288 27.544584,25.127928 27.730344,25.154808 L29.367264,25.392648 C29.834784,25.460448 30.021504,26.034648 29.683224,26.364168 L28.498584,27.518208 C28.364304,27.649008 28.302984,27.837648 28.334664,28.022448 L28.614384,29.651808 C28.694184,30.117168 28.205544,30.472128 27.787224,30.252408 L26.323104,29.483088 C26.157024,29.395728 25.958664,29.395728 25.792584,29.483088 L24.328464,30.252408 C23.910264,30.472128 23.421504,30.117168 23.501424,29.651808 L23.781144,28.022448 C23.812704,27.837648 23.751504,27.649008 23.617104,27.518208 L22.432464,26.364168 C22.094304,26.034648 22.281024,25.460448 22.748424,25.392648 L24.385464,25.154808 C24.571224,25.127928 24.731544,25.011288 24.814704,24.843168 L25.546704,23.360688 C25.755864,22.937328 26.359944,22.937328 26.568984,23.360688 Z" id="Stroke-6" stroke="#FFFFFF" stroke-width="6.5712"></path>
            <path d="M26.568984,23.360688 L27.301104,24.843168 C27.384144,25.011288 27.544584,25.127928 27.730344,25.154808 L29.367264,25.392648 C29.834784,25.460448 30.021504,26.034648 29.683224,26.364168 L28.498584,27.518208 C28.364304,27.649008 28.302984,27.837648 28.334664,28.022448 L28.614384,29.651808 C28.694184,30.117168 28.205544,30.472128 27.787224,30.252408 L26.323104,29.483088 C26.157024,29.395728 25.958664,29.395728 25.792584,29.483088 L24.328464,30.252408 C23.910264,30.472128 23.421504,30.117168 23.501424,29.651808 L23.781144,28.022448 C23.812704,27.837648 23.751504,27.649008 23.617104,27.518208 L22.432464,26.364168 C22.094304,26.034648 22.281024,25.460448 22.748424,25.392648 L24.385464,25.154808 C24.571224,25.127928 24.731544,25.011288 24.814704,24.843168 L25.546704,23.360688 C25.755864,22.937328 26.359944,22.937328 26.568984,23.360688 Z" id="Stroke-8" stroke="#CE3434" stroke-width="2.95704"></path>
            <path d="M26.568984,23.360688 L27.301104,24.843168 C27.384144,25.011288 27.544584,25.127928 27.730344,25.154808 L29.367264,25.392648 C29.834784,25.460448 30.021504,26.034648 29.683224,26.364168 L28.498584,27.518208 C28.364304,27.649008 28.302984,27.837648 28.334664,28.022448 L28.614384,29.651808 C28.694184,30.117168 28.205544,30.472128 27.787224,30.252408 L26.323104,29.483088 C26.157024,29.395728 25.958664,29.395728 25.792584,29.483088 L24.328464,30.252408 C23.910264,30.472128 23.421504,30.117168 23.501424,29.651808 L23.781144,28.022448 C23.812704,27.837648 23.751504,27.649008 23.617104,27.518208 L22.432464,26.364168 C22.094304,26.034648 22.281024,25.460448 22.748424,25.392648 L24.385464,25.154808 C24.571224,25.127928 24.731544,25.011288 24.814704,24.843168 L25.546704,23.360688 C25.755864,22.937328 26.359944,22.937328 26.568984,23.360688" id="Fill-10" fill="#FFDE00"></path>
            <path d="M82.453248,23.360688 L83.185368,24.843168 C83.268408,25.011288 83.428848,25.127928 83.614608,25.154808 L85.251528,25.392648 C85.719048,25.460448 85.905768,26.034648 85.567488,26.364168 L84.382848,27.518208 C84.248568,27.649008 84.187248,27.837648 84.218928,28.022448 L84.498648,29.651808 C84.578448,30.117168 84.089808,30.472128 83.671488,30.252408 L82.207368,29.483088 C82.041288,29.395728 81.842928,29.395728 81.676848,29.483088 L80.212728,30.252408 C79.794528,30.472128 79.305768,30.117168 79.385688,29.651808 L79.665408,28.022448 C79.696968,27.837648 79.635768,27.649008 79.501368,27.518208 L78.316728,26.364168 C77.978568,26.034648 78.165288,25.460448 78.632688,25.392648 L80.269728,25.154808 C80.455488,25.127928 80.615808,25.011288 80.698968,24.843168 L81.430968,23.360688 C81.640128,22.937328 82.244208,22.937328 82.453248,23.360688" id="Fill-12" fill="#FFFFFF"></path>
            <path d="M82.453248,23.360688 L83.185368,24.843168 C83.268408,25.011288 83.428848,25.127928 83.614608,25.154808 L85.251528,25.392648 C85.719048,25.460448 85.905768,26.034648 85.567488,26.364168 L84.382848,27.518208 C84.248568,27.649008 84.187248,27.837648 84.218928,28.022448 L84.498648,29.651808 C84.578448,30.117168 84.089808,30.472128 83.671488,30.252408 L82.207368,29.483088 C82.041288,29.395728 81.842928,29.395728 81.676848,29.483088 L80.212728,30.252408 C79.794528,30.472128 79.305768,30.117168 79.385688,29.651808 L79.665408,28.022448 C79.696968,27.837648 79.635768,27.649008 79.501368,27.518208 L78.316728,26.364168 C77.978568,26.034648 78.165288,25.460448 78.632688,25.392648 L80.269728,25.154808 C80.455488,25.127928 80.615808,25.011288 80.698968,24.843168 L81.430968,23.360688 C81.640128,22.937328 82.244208,22.937328 82.453248,23.360688 Z" id="Stroke-14" stroke="#FFFFFF" stroke-width="6.5712"></path>
            <path d="M82.453248,23.360688 L83.185368,24.843168 C83.268408,25.011288 83.428848,25.127928 83.614608,25.154808 L85.251528,25.392648 C85.719048,25.460448 85.905768,26.034648 85.567488,26.364168 L84.382848,27.518208 C84.248568,27.649008 84.187248,27.837648 84.218928,28.022448 L84.498648,29.651808 C84.578448,30.117168 84.089808,30.472128 83.671488,30.252408 L82.207368,29.483088 C82.041288,29.395728 81.842928,29.395728 81.676848,29.483088 L80.212728,30.252408 C79.794528,30.472128 79.305768,30.117168 79.385688,29.651808 L79.665408,28.022448 C79.696968,27.837648 79.635768,27.649008 79.501368,27.518208 L78.316728,26.364168 C77.978568,26.034648 78.165288,25.460448 78.632688,25.392648 L80.269728,25.154808 C80.455488,25.127928 80.615808,25.011288 80.698968,24.843168 L81.430968,23.360688 C81.640128,22.937328 82.244208,22.937328 82.453248,23.360688 Z" id="Stroke-16" stroke="#CE3434" stroke-width="2.95704"></path>
            <path d="M82.453248,23.360688 L83.185368,24.843168 C83.268408,25.011288 83.428848,25.127928 83.614608,25.154808 L85.251528,25.392648 C85.719048,25.460448 85.905768,26.034648 85.567488,26.364168 L84.382848,27.518208 C84.248568,27.649008 84.187248,27.837648 84.218928,28.022448 L84.498648,29.651808 C84.578448,30.117168 84.089808,30.472128 83.671488,30.252408 L82.207368,29.483088 C82.041288,29.395728 81.842928,29.395728 81.676848,29.483088 L80.212728,30.252408 C79.794528,30.472128 79.305768,30.117168 79.385688,29.651808 L79.665408,28.022448 C79.696968,27.837648 79.635768,27.649008 79.501368,27.518208 L78.316728,26.364168 C77.978568,26.034648 78.165288,25.460448 78.632688,25.392648 L80.269728,25.154808 C80.455488,25.127928 80.615808,25.011288 80.698968,24.843168 L81.430968,23.360688 C81.640128,22.937328 82.244208,22.937328 82.453248,23.360688" id="Fill-18" fill="#FFDE00"></path>
            <path d="M63.163716,35.20488 C59.410476,35.20488 56.383356,34.25244 54.166476,32.3742 C53.532396,31.8348 52.976916,31.24452 52.505796,30.61008 C52.162236,31.04652 51.783156,31.46376 51.371436,31.85808 C49.085316,34.04748 46.146396,35.20488 42.872796,35.20488 C38.790396,35.20488 35.456556,33.59868 33.231756,30.5598 C31.217076,27.8418 30.236196,24.30852 30.236196,19.7622 C30.236196,15.07236 31.275276,11.16564 33.324156,8.15076 C35.597916,4.7484 38.912916,2.94708 42.906996,2.94708 C45.535476,2.94708 47.791596,3.50892 49.612596,4.61688 C50.965956,5.4402 52.055676,6.54804 52.867116,7.92228 C53.342796,7.18584 53.928036,6.50988 54.618036,5.9016 C56.778636,3.94368 59.656716,2.94708 63.163716,2.94708 C66.633276,2.94708 69.508476,3.94116 71.709516,5.90172 L71.721636,5.91276 L71.721636,5.91264 C73.828356,7.80744 74.941836,10.2828 74.941836,13.07124 C74.941836,14.9718 74.484276,16.65024 73.581516,18.05988 C73.559556,18.09432 73.537356,18.12768 73.514676,18.16068 C73.509636,18.168 73.504596,18.1752 73.499436,18.1824 C73.544676,18.23808 73.589436,18.29448 73.633476,18.35124 C75.048276,20.13864 75.765876,22.19496 75.765876,24.46308 C75.765876,27.63396 74.563836,30.2862 72.193236,32.34636 C72.174276,32.36292 72.153996,32.3802 72.133356,32.39736 C69.886956,34.26024 66.869076,35.20488 63.163716,35.20488" id="Fill-20" fill="#841213"></path>
            <path d="M63.978048,32.88738 C60.356568,32.88738 57.435888,31.96842 55.296888,30.15606 C54.685248,29.63562 54.149208,29.0661 53.694648,28.45398 C53.363088,28.87506 52.997328,29.27766 52.600128,29.65818 C50.394168,31.77078 47.558568,32.88738 44.399928,32.88738 C40.460928,32.88738 37.244208,31.33758 35.097648,28.4055 C33.153648,25.7829 32.207328,22.37382 32.207328,17.98722 C32.207328,13.46214 33.209808,9.69258 35.186688,6.78366 C37.380528,3.5007 40.579128,1.76274 44.432928,1.76274 C46.969128,1.76274 49.145928,2.30478 50.903088,3.37386 C52.208688,4.16826 53.260248,5.23734 54.043128,6.56322 C54.502128,5.85258 55.066848,5.20038 55.732608,4.61346 C57.817368,2.7243 60.594408,1.76274 63.978048,1.76274 C67.325688,1.76274 70.100088,2.7219 72.223728,4.61358 L72.235488,4.62426 L72.235488,4.62414 C74.268168,6.45234 75.342528,8.84082 75.342528,11.53122 C75.342528,13.36506 74.900928,14.98458 74.030088,16.34466 C74.008728,16.3779 73.987368,16.41006 73.965408,16.44198 C73.960608,16.44894 73.955568,16.4559 73.950768,16.46286 C73.994448,16.51662 74.037528,16.57098 74.080128,16.6257 C75.445248,18.35046 76.137528,20.33454 76.137528,22.52298 C76.137528,25.58238 74.977728,28.1415 72.690528,30.1293 C72.672168,30.14526 72.652488,30.16194 72.632568,30.1785 C70.465248,31.97598 67.553208,32.88738 63.978048,32.88738" id="Fill-22" fill="#CE3434"></path>
            <path d="M40.308636,18.243804 C39.480516,19.104564 39.082956,20.329524 39.082956,21.852564 C39.082956,23.342364 39.513636,24.534324 40.374876,25.395084 C41.236116,26.255844 42.329436,26.686284 43.687596,26.686284 C45.079116,26.686284 46.172196,26.222724 47.033436,25.295724 C47.894916,24.368724 48.325476,23.176884 48.325476,21.720084 C48.325476,20.263404 47.894916,19.104564 47.099796,18.243804 C46.238436,17.349924 45.112116,16.919484 43.687596,16.919484 C42.230076,16.919484 41.103756,17.349924 40.308636,18.243804 M49.274916,11.787804 C48.538956,11.787804 47.877156,11.351964 47.573436,10.682004 C46.916916,9.234084 45.653916,8.510124 43.820196,8.510124 C42.230076,8.510124 40.971156,9.271644 40.043676,10.827684 C39.116076,12.284364 38.685396,14.105364 38.685396,16.290444 L38.685396,16.588404 L38.851116,16.588404 C39.513636,15.595164 40.341756,14.899884 41.335716,14.436444 C42.263196,13.972884 43.323276,13.774284 44.515956,13.774284 C46.834836,13.774284 48.689916,14.502564 50.081196,15.992484 C51.472596,17.482284 52.168236,19.402524 52.168236,21.720084 C52.168236,24.103884 51.340116,26.057244 49.749996,27.580164 C48.159876,29.103084 46.172196,29.897724 43.820196,29.897724 C40.904916,29.897724 38.685396,28.838244 37.161516,26.752524 C35.637636,24.699804 34.908996,21.885684 34.908996,18.276924 C34.908996,14.403324 35.703996,11.291244 37.327116,8.907444 C38.917236,6.523764 41.103756,5.331804 43.853196,5.331804 C47.427036,5.331804 49.800996,6.609564 50.974956,9.165204 C51.538236,10.391484 50.625036,11.787804 49.274916,11.787804" id="Fill-24" fill="#FF6060"></path>
            <path d="M60.05262,9.536484 C59.32374,10.198644 58.95942,10.993284 58.95942,11.953404 C58.95942,13.045884 59.2575,13.906644 59.85378,14.535804 C60.58266,15.297204 61.74198,15.694524 63.39834,15.694524 C65.02158,15.694524 66.21426,15.297204 66.94302,14.535804 C67.5393,13.906644 67.8375,13.045884 67.8375,11.953404 C67.8375,10.993284 67.47306,10.198644 66.7443,9.536484 C65.88294,8.774964 64.78986,8.410764 63.39834,8.410764 C62.00706,8.410764 60.88062,8.774964 60.05262,9.536484 M59.62182,19.766724 C58.76046,20.528244 58.36302,21.554604 58.36302,22.812684 C58.36302,24.004524 58.7937,24.964644 59.68806,25.693044 C60.54954,26.421444 61.7751,26.785644 63.39834,26.785644 C64.98846,26.785644 66.24738,26.388324 67.17498,25.659924 C68.0031,24.931524 68.43378,24.004524 68.43378,22.812684 C68.43378,21.554604 68.0031,20.528244 67.2081,19.799844 C66.31362,18.972084 65.05482,18.574884 63.39834,18.574884 C61.74198,18.574884 60.48318,18.972084 59.62182,19.766724 M69.46062,7.351404 C70.78578,8.543244 71.48142,10.033044 71.48142,11.820924 C71.48142,13.012764 71.21634,14.039124 70.68642,14.866764 C70.09014,15.727644 69.22878,16.422924 68.06934,16.886364 L68.06934,16.952604 C69.16254,17.250564 70.12326,17.912724 70.91826,18.939084 C71.81274,20.064684 72.27642,21.356004 72.27642,22.812684 C72.27642,24.931524 71.48142,26.620044 69.95766,27.944364 C68.40054,29.235564 66.21426,29.897724 63.39834,29.897724 C60.54954,29.897724 58.36302,29.235564 56.83926,27.944364 C55.28226,26.620044 54.52026,24.931524 54.52026,22.812684 C54.52026,21.356004 54.95082,20.064684 55.87842,18.939084 C56.67354,17.912724 57.60102,17.250564 58.72746,16.952604 L58.72746,16.886364 C57.5349,16.422924 56.67354,15.727644 56.11026,14.866764 C55.58034,14.039124 55.31526,13.012764 55.31526,11.820924 C55.31526,10.033044 55.9779,8.543244 57.33606,7.351404 C58.82682,5.993964 60.84762,5.331804 63.39834,5.331804 C65.91594,5.331804 67.93686,5.993964 69.46062,7.351404" id="Fill-26" fill="#FF6060"></path>
            <path d="M41.468088,17.664432 C40.639968,18.525192 40.242408,19.750152 40.242408,21.273192 C40.242408,22.762992 40.673088,23.954952 41.534328,24.815712 C42.395568,25.676472 43.488888,26.106912 44.847048,26.106912 C46.238448,26.106912 47.331528,25.643352 48.192888,24.716472 C49.054248,23.789352 49.484928,22.597512 49.484928,21.140712 C49.484928,19.684032 49.054248,18.525192 48.259128,17.664432 C47.397888,16.770552 46.271448,16.340112 44.847048,16.340112 C43.389408,16.340112 42.263208,16.770552 41.468088,17.664432 M50.434368,11.208432 C49.698288,11.208432 49.036488,10.772592 48.732768,10.102632 C48.076248,8.654712 46.813368,7.930752 44.979648,7.930752 C43.389408,7.930752 42.130608,8.692272 41.203128,10.248312 C40.275528,11.704992 39.844848,13.525992 39.844848,15.711072 L39.844848,16.009152 L40.010568,16.009152 C40.673088,15.015792 41.501088,14.320512 42.495168,13.857072 C43.422648,13.393512 44.482728,13.194912 45.675408,13.194912 C47.994168,13.194912 49.849368,13.923312 51.240648,15.413112 C52.631928,16.902912 53.327688,18.823272 53.327688,21.140712 C53.327688,23.524512 52.499448,25.477872 50.909448,27.000792 C49.319208,28.523832 47.331528,29.318352 44.979648,29.318352 C42.064368,29.318352 39.844848,28.258872 38.320968,26.173152 C36.797088,24.120432 36.068328,21.306312 36.068328,17.697552 C36.068328,13.823952 36.863448,10.711872 38.486568,8.328072 C40.076688,5.944392 42.263208,4.752432 45.012648,4.752432 C48.586368,4.752432 50.960448,6.030192 52.134408,8.585832 C52.697688,9.812112 51.784488,11.208432 50.434368,11.208432" id="Fill-28" fill="#FFD4D4"></path>
            <path d="M61.211952,8.957112 C60.483192,9.619272 60.118872,10.413912 60.118872,11.374032 C60.118872,12.466512 60.416832,13.327272 61.013232,13.956432 C61.741992,14.717832 62.901432,15.115152 64.557792,15.115152 C66.181032,15.115152 67.373712,14.717832 68.102472,13.956432 C68.698752,13.327272 68.996832,12.466512 68.996832,11.374032 C68.996832,10.413912 68.632512,9.619272 67.903752,8.957112 C67.042392,8.195592 65.949192,7.831392 64.557792,7.831392 C63.166512,7.831392 62.040072,8.195592 61.211952,8.957112 M60.781272,19.187352 C59.919912,19.948872 59.522472,20.975232 59.522472,22.233312 C59.522472,23.425152 59.953152,24.385272 60.847512,25.113672 C61.708992,25.842072 62.934432,26.206272 64.557792,26.206272 C66.147912,26.206272 67.406832,25.808952 68.334432,25.080552 C69.162552,24.352152 69.593232,23.425152 69.593232,22.233312 C69.593232,20.975232 69.162552,19.948872 68.367432,19.220472 C67.473072,18.392832 66.214272,17.995512 64.557792,17.995512 C62.901432,17.995512 61.642632,18.392832 60.781272,19.187352 M70.620072,6.772032 C71.945112,7.963872 72.640872,9.453672 72.640872,11.241552 C72.640872,12.433392 72.375792,13.459752 71.845872,14.287392 C71.249472,15.148272 70.388232,15.843552 69.228792,16.306992 L69.228792,16.373232 C70.321992,16.671192 71.282712,17.333352 72.077712,18.359712 C72.972192,19.485312 73.435872,20.776632 73.435872,22.233312 C73.435872,24.352152 72.640872,26.040672 71.116992,27.364992 C69.559992,28.656192 67.373712,29.318352 64.557792,29.318352 C61.708992,29.318352 59.522472,28.656192 57.998712,27.364992 C56.441592,26.040672 55.679592,24.352152 55.679592,22.233312 C55.679592,20.776632 56.110272,19.485312 57.037872,18.359712 C57.832992,17.333352 58.760472,16.671192 59.886792,16.373232 L59.886792,16.306992 C58.694352,15.843552 57.832992,15.148272 57.269712,14.287392 C56.739672,13.459752 56.474592,12.433392 56.474592,11.241552 C56.474592,9.453672 57.137232,7.963872 58.495512,6.772032 C59.986272,5.414592 62.006952,4.752432 64.557792,4.752432 C67.075392,4.752432 69.096312,5.414592 70.620072,6.772032" id="Fill-30" fill="#FFD4D4"></path>
            <path d="M42.62754,17.664432 C41.79942,18.525192 41.40186,19.750152 41.40186,21.273192 C41.40186,22.762992 41.83242,23.954952 42.69378,24.815712 C43.55502,25.676472 44.64834,26.106912 46.0065,26.106912 C47.3979,26.106912 48.49098,25.643352 49.35234,24.716472 C50.2137,23.789352 50.64438,22.597512 50.64438,21.140712 C50.64438,19.684032 50.2137,18.525192 49.41858,17.664432 C48.55734,16.770552 47.4309,16.340112 46.0065,16.340112 C44.54886,16.340112 43.42254,16.770552 42.62754,17.664432 M51.5937,11.208432 C50.85774,11.208432 50.19594,10.772592 49.89222,10.102632 C49.2357,8.654712 47.97282,7.930752 46.1391,7.930752 C44.54886,7.930752 43.29006,8.692272 42.36246,10.248312 C41.43498,11.704992 41.0043,13.525992 41.0043,15.711072 L41.0043,16.009152 L41.1699,16.009152 C41.83242,15.015792 42.66054,14.320512 43.6545,13.857072 C44.5821,13.393512 45.64218,13.194912 46.83474,13.194912 C49.15362,13.194912 51.00882,13.923312 52.4001,15.413112 C53.79138,16.902912 54.48714,18.823272 54.48714,21.140712 C54.48714,23.524512 53.6589,25.477872 52.0689,27.000792 C50.47866,28.523832 48.49098,29.318352 46.1391,29.318352 C43.22382,29.318352 41.0043,28.258872 39.4803,26.173152 C37.95654,24.120432 37.22778,21.306312 37.22778,17.697552 C37.22778,13.823952 38.02278,10.711872 39.64602,8.328072 C41.23614,5.944392 43.42254,4.752432 46.1721,4.752432 C49.74582,4.752432 52.11978,6.030192 53.29386,8.585832 C53.85714,9.812112 52.94394,11.208432 51.5937,11.208432" id="Fill-32" fill="#FFA9A9"></path>
            <path d="M62.371404,8.957112 C61.642644,9.619272 61.278204,10.413912 61.278204,11.374032 C61.278204,12.466512 61.576284,13.327272 62.172684,13.956432 C62.901444,14.717832 64.060764,15.115152 65.717244,15.115152 C67.340484,15.115152 68.533164,14.717832 69.261924,13.956432 C69.858204,13.327272 70.156284,12.466512 70.156284,11.374032 C70.156284,10.413912 69.791964,9.619272 69.063204,8.957112 C68.201844,8.195592 67.108644,7.831392 65.717244,7.831392 C64.325844,7.831392 63.199524,8.195592 62.371404,8.957112 M61.940724,19.187352 C61.079364,19.948872 60.681924,20.975232 60.681924,22.233312 C60.681924,23.425152 61.112604,24.385272 62.006964,25.113672 C62.868324,25.842072 64.093884,26.206272 65.717244,26.206272 C67.307364,26.206272 68.566164,25.808952 69.493764,25.080552 C70.322004,24.352152 70.752684,23.425152 70.752684,22.233312 C70.752684,20.975232 70.322004,19.948872 69.526884,19.220472 C68.632524,18.392832 67.373604,17.995512 65.717244,17.995512 C64.060764,17.995512 62.802084,18.392832 61.940724,19.187352 M71.779524,6.772032 C73.104564,7.963872 73.800324,9.453672 73.800324,11.241552 C73.800324,12.433392 73.535244,13.459752 73.005324,14.287392 C72.408924,15.148272 71.547684,15.843552 70.388244,16.306992 L70.388244,16.373232 C71.481324,16.671192 72.442164,17.333352 73.237164,18.359712 C74.131524,19.485312 74.595324,20.776632 74.595324,22.233312 C74.595324,24.352152 73.800324,26.040672 72.276444,27.364992 C70.719444,28.656192 68.533164,29.318352 65.717244,29.318352 C62.868324,29.318352 60.681924,28.656192 59.158044,27.364992 C57.601044,26.040672 56.839044,24.352152 56.839044,22.233312 C56.839044,20.776632 57.269724,19.485312 58.197324,18.359712 C58.992444,17.333352 59.919924,16.671192 61.046244,16.373232 L61.046244,16.306992 C59.853684,15.843552 58.992444,15.148272 58.429164,14.287392 C57.899124,13.459752 57.634044,12.433392 57.634044,11.241552 C57.634044,9.453672 58.296684,7.963872 59.654964,6.772032 C61.145604,5.414592 63.166404,4.752432 65.717244,4.752432 C68.234844,4.752432 70.255644,5.414592 71.779524,6.772032" id="Fill-34" fill="#FFA9A9"></path>
            <path d="M39.698436,16.296036 C39.629316,17.522916 39.202956,18.496596 38.746356,18.470916 C38.289756,18.445116 37.975716,17.429796 38.044836,16.202916 C38.113956,14.976036 38.540196,14.002356 38.996796,14.028156 C39.453516,14.053836 39.767556,15.069156 39.698436,16.296036" id="Fill-36" fill="#FFFFFF"></path>
            <path d="M39.591792,20.10012 C39.591792,20.48412 39.280272,20.79528 38.896032,20.79528 C38.511912,20.79528 38.200392,20.48412 38.200392,20.10012 C38.200392,19.71612 38.511912,19.40484 38.896032,19.40484 C39.280272,19.40484 39.591792,19.71612 39.591792,20.10012" id="Fill-38" fill="#FFFFFF"></path>
            <path d="M60.338904,9.876096 C60.079104,10.821096 59.477304,11.479776 58.994784,11.347296 C58.512264,11.214696 58.331544,10.341336 58.591344,9.396336 C58.851264,8.451336 59.452944,7.792776 59.935464,7.925256 C60.417984,8.057736 60.598584,8.931096 60.338904,9.876096" id="Fill-40" fill="#FFFFFF"></path>
            <path d="M60.229452,13.031772 C60.229452,13.415772 59.918052,13.727052 59.533812,13.727052 C59.149692,13.727052 58.838172,13.415772 58.838172,13.031772 C58.838172,12.647772 59.149692,12.336612 59.533812,12.336612 C59.918052,12.336612 60.229452,12.647772 60.229452,13.031772" id="Fill-42" fill="#FFFFFF"></path>
            <path d="M59.759184,21 C59.499384,21.945 58.897584,22.60356 58.415184,22.47108 C57.932544,22.3386 57.751944,21.46512 58.011624,20.52012 C58.271544,19.57524 58.873224,18.91656 59.355864,19.04904 C59.838264,19.18164 60.018984,20.055 59.759184,21" id="Fill-44" fill="#FFFFFF"></path>
            <path d="M59.64984,24.155688 C59.64984,24.539688 59.33832,24.850848 58.95408,24.850848 C58.56996,24.850848 58.25844,24.539688 58.25844,24.155688 C58.25844,23.771688 58.56996,23.460408 58.95408,23.460408 C59.33832,23.460408 59.64984,23.771688 59.64984,24.155688" id="Fill-46" fill="#FFFFFF"></path>
            <polygon id="Fill-48" fill="#FFCC00" points="86.870388 74.208924 18.905988 74.234244 16.904388 37.779084 91.095588 37.193604"></polygon>
            <path d="M93.825,42.531804 C96.28848,39.796044 94.31256,32.016924 90.7386,32.101884 L16.94148,33.855204 C13.36752,33.940164 11.7636,41.804244 14.35452,44.419884 C15.9606,46.041444 18.50064,45.981084 20.02776,44.285124 L23.49072,40.439724 C25.01784,38.743764 27.55788,38.683404 29.16396,40.304964 L32.80572,43.981524 C34.41192,45.603084 36.95196,45.542724 38.47908,43.846764 L41.93436,40.009644 C43.4616,38.313804 46.00164,38.253444 47.60772,39.874884 L51.24156,43.543524 C52.84752,45.164964 55.38768,45.104724 56.91492,43.408764 L60.37764,39.563364 C61.90488,37.867404 64.44492,37.807044 66.05112,39.428604 L69.69276,43.105164 C71.29884,44.726724 73.83888,44.666364 75.36612,42.970404 L78.83256,39.120804 C80.3598,37.424844 82.89984,37.364484 84.50604,38.986044 L88.15164,42.666684 C89.75772,44.288124 92.29776,44.227764 93.825,42.531804" id="Fill-50" fill="#FFF2BD"></path>
            <polygon id="Fill-52" fill="#FFA20D" points="102.240816 98.66244 7.850136 98.409 3.263736 63.56988 104.736216 69.1158"></polygon>
            <g id="Group-56" transform="translate(0.000000, 58.462440)">
                <mask id="mask-4" fill="white">
                    <use xlink:href="#path-3"></use>
                </mask>
                <g id="Clip-55"></g>
                <path d="M106.176684,18.941952 C109.686204,15.577152 107.837364,5.140752 103.121964,4.906872 L5.758884,0.076992 C1.043484,-0.156888 -1.830516,10.045272 1.328484,13.740912 C3.286644,16.031832 6.637884,16.198032 8.813604,14.112192 L13.746564,9.382632 C15.922164,7.296792 19.273404,7.462992 21.231684,9.753912 L25.671804,14.948472 C27.630084,17.239392 30.981204,17.405592 33.156924,15.319752 L38.079204,10.600512 C40.254804,8.514552 43.606044,8.680872 45.564204,10.971792 L49.994724,16.154952 C51.953124,18.445992 55.304244,18.612192 57.479844,16.526352 L62.412924,11.796792 C64.588644,9.710952 67.939644,9.877152 69.898044,12.168072 L74.338164,17.362632 C76.296444,19.653552 79.647684,19.819752 81.823284,17.733912 L86.761524,12.999312 C88.937244,10.913472 92.288484,11.079672 94.246644,13.370592 L98.691564,18.570672 C100.649844,20.861592 104.000964,21.027792 106.176684,18.941952" id="Fill-54" fill="#FFF3C2" mask="url(#mask-4)"></path>
            </g>
            <path d="M78.116016,74.078148 C76.720176,74.078148 75.584496,72.943188 75.584496,71.548068 C75.584496,70.152948 76.720176,69.017868 78.116016,69.017868 C79.511856,69.017868 80.647536,70.152948 80.647536,71.548068 C80.647536,72.943188 79.511856,74.078148 78.116016,74.078148" id="Fill-57" fill="#FFCC00"></path>
            <path d="M78.116016,68.689272 C76.538976,68.689272 75.255936,69.971712 75.255936,71.548032 C75.255936,73.124232 76.538976,74.406792 78.116016,74.406792 C79.693056,74.406792 80.976096,73.124232 80.976096,71.548032 C80.976096,69.971712 79.693056,68.689272 78.116016,68.689272 M78.116016,69.346392 C79.332696,69.346392 80.318856,70.332072 80.318856,71.548032 C80.318856,72.763872 79.332696,73.749552 78.116016,73.749552 C76.899336,73.749552 75.913176,72.763872 75.913176,71.548032 C75.913176,70.332072 76.899336,69.346392 78.116016,69.346392" id="Fill-59" fill="#FFFFFF"></path>
            <path d="M102.57984,75.700368 C101.184,75.700368 100.04832,74.565408 100.04832,73.170288 C100.04832,71.775168 101.184,70.640088 102.57984,70.640088 C103.97568,70.640088 105.11136,71.775168 105.11136,73.170288 C105.11136,74.565408 103.97568,75.700368 102.57984,75.700368" id="Fill-61" fill="#FFCC00"></path>
            <path d="M102.57984,70.311504 C101.0028,70.311504 99.71976,71.593944 99.71976,73.170264 C99.71976,74.746464 101.0028,76.029024 102.57984,76.029024 C104.157,76.029024 105.43992,74.746464 105.43992,73.170264 C105.43992,71.593944 104.157,70.311504 102.57984,70.311504 M102.57984,70.968624 C103.79652,70.968624 104.78268,71.954304 104.78268,73.170264 C104.78268,74.386104 103.79652,75.371784 102.57984,75.371784 C101.36316,75.371784 100.377,74.386104 100.377,73.170264 C100.377,71.954304 101.36316,70.968624 102.57984,70.968624" id="Fill-63" fill="#FFFFFF"></path>
            <path d="M53.652192,72.571764 C52.256352,72.571764 51.120672,71.436804 51.120672,70.041684 C51.120672,68.646564 52.256352,67.511484 53.652192,67.511484 C55.048032,67.511484 56.183712,68.646564 56.183712,70.041684 C56.183712,71.436804 55.048032,72.571764 53.652192,72.571764" id="Fill-65" fill="#FFCC00"></path>
            <path d="M53.652192,67.182948 C52.075032,67.182948 50.792112,68.465388 50.792112,70.041588 C50.792112,71.617908 52.075032,72.900348 53.652192,72.900348 C55.229232,72.900348 56.512272,71.617908 56.512272,70.041588 C56.512272,68.465388 55.229232,67.182948 53.652192,67.182948 M53.652192,67.840068 C54.868872,67.840068 55.855032,68.825748 55.855032,70.041588 C55.855032,71.257548 54.868872,72.243228 53.652192,72.243228 C52.435512,72.243228 51.449352,71.257548 51.449352,70.041588 C51.449352,68.825748 52.435512,67.840068 53.652192,67.840068" id="Fill-67" fill="#FFFFFF"></path>
            <path d="M29.883984,70.717788 C28.488144,70.717788 27.352464,69.582828 27.352464,68.187708 C27.352464,66.792588 28.488144,65.657508 29.883984,65.657508 C31.279824,65.657508 32.415504,66.792588 32.415504,68.187708 C32.415504,69.582828 31.279824,70.717788 29.883984,70.717788" id="Fill-69" fill="#FFCC00"></path>
            <path d="M29.883984,65.328924 C28.306944,65.328924 27.023904,66.611364 27.023904,68.187684 C27.023904,69.763884 28.306944,71.046324 29.883984,71.046324 C31.461024,71.046324 32.744064,69.763884 32.744064,68.187684 C32.744064,66.611364 31.461024,65.328924 29.883984,65.328924 M29.883984,65.986044 C31.100664,65.986044 32.086824,66.971724 32.086824,68.187684 C32.086824,69.403524 31.100664,70.389204 29.883984,70.389204 C28.667304,70.389204 27.681144,69.403524 27.681144,68.187684 C27.681144,66.971724 28.667304,65.986044 29.883984,65.986044" id="Fill-71" fill="#FFFFFF"></path>
            <path d="M5.42016,69.211464 C4.02432,69.211464 2.88864,68.076504 2.88864,66.681384 C2.88864,65.286264 4.02432,64.151184 5.42016,64.151184 C6.816,64.151184 7.95168,65.286264 7.95168,66.681384 C7.95168,68.076504 6.816,69.211464 5.42016,69.211464" id="Fill-73" fill="#FFCC00"></path>
            <path d="M5.42016,63.8226 C3.843,63.8226 2.56008,65.10504 2.56008,66.68124 C2.56008,68.25756 3.843,69.54 5.42016,69.54 C6.9972,69.54 8.28012,68.25756 8.28012,66.68124 C8.28012,65.10504 6.9972,63.8226 5.42016,63.8226 M5.42016,64.47972 C6.63684,64.47972 7.623,65.4654 7.623,66.68124 C7.623,67.8972 6.63684,68.88288 5.42016,68.88288 C4.20348,68.88288 3.21732,67.8972 3.21732,66.68124 C3.21732,65.4654 4.20348,64.47972 5.42016,64.47972" id="Fill-75" fill="#FFFFFF"></path>
            <path d="M16.666524,43.48746 C15.270684,43.48746 14.135004,42.3525 14.135004,40.95738 C14.135004,39.56226 15.270684,38.4273 16.666524,38.4273 C18.062364,38.4273 19.198044,39.56226 19.198044,40.95738 C19.198044,42.3525 18.062364,43.48746 16.666524,43.48746" id="Fill-77" fill="#FBB03B"></path>
            <path d="M16.666524,38.098656 C15.089484,38.098656 13.806564,39.381096 13.806564,40.957296 C13.806564,42.533616 15.089484,43.816176 16.666524,43.816176 C18.243564,43.816176 19.526604,42.533616 19.526604,40.957296 C19.526604,39.381096 18.243564,38.098656 16.666524,38.098656 M16.666524,38.755776 C17.883204,38.755776 18.869364,39.741456 18.869364,40.957296 C18.869364,42.173256 17.883204,43.158936 16.666524,43.158936 C15.449844,43.158936 14.463684,42.173256 14.463684,40.957296 C14.463684,39.741456 15.449844,38.755776 16.666524,38.755776" id="Fill-79" fill="#FFFFFF"></path>
            <path d="M35.2173,43.603356 C33.82146,43.603356 32.68578,42.468396 32.68578,41.073276 C32.68578,39.678156 33.82146,38.543076 35.2173,38.543076 C36.61314,38.543076 37.74882,39.678156 37.74882,41.073276 C37.74882,42.468396 36.61314,43.603356 35.2173,43.603356" id="Fill-81" fill="#FBB03B"></path>
            <path d="M35.2173,38.214492 C33.64026,38.214492 32.35734,39.496932 32.35734,41.073252 C32.35734,42.649452 33.64026,43.932012 35.2173,43.932012 C36.79434,43.932012 38.07738,42.649452 38.07738,41.073252 C38.07738,39.496932 36.79434,38.214492 35.2173,38.214492 M35.2173,38.871612 C36.43398,38.871612 37.42014,39.857292 37.42014,41.073252 C37.42014,42.289212 36.43398,43.274772 35.2173,43.274772 C34.00062,43.274772 33.01446,42.289212 33.01446,41.073252 C33.01446,39.857292 34.00062,38.871612 35.2173,38.871612" id="Fill-83" fill="#FFFFFF"></path>
            <path d="M54,43.603356 C52.60416,43.603356 51.46848,42.468396 51.46848,41.073276 C51.46848,39.678156 52.60416,38.543076 54,38.543076 C55.39584,38.543076 56.53152,39.678156 56.53152,41.073276 C56.53152,42.468396 55.39584,43.603356 54,43.603356" id="Fill-85" fill="#FBB03B"></path>
            <path d="M54,38.214492 C52.42296,38.214492 51.13992,39.496932 51.13992,41.073252 C51.13992,42.649452 52.42296,43.932012 54,43.932012 C55.57704,43.932012 56.86008,42.649452 56.86008,41.073252 C56.86008,39.496932 55.57704,38.214492 54,38.214492 M54,38.871612 C55.21668,38.871612 56.20284,39.857292 56.20284,41.073252 C56.20284,42.289212 55.21668,43.274772 54,43.274772 C52.78332,43.274772 51.79716,42.289212 51.79716,41.073252 C51.79716,39.857292 52.78332,38.871612 54,38.871612" id="Fill-87" fill="#FFFFFF"></path>
            <path d="M72.318864,42.676344 C70.923024,42.676344 69.787344,41.541384 69.787344,40.146264 C69.787344,38.751144 70.923024,37.616064 72.318864,37.616064 C73.714704,37.616064 74.850384,38.751144 74.850384,40.146264 C74.850384,41.541384 73.714704,42.676344 72.318864,42.676344" id="Fill-89" fill="#FBB03B"></path>
            <path d="M72.318864,37.28748 C70.741824,37.28748 69.458904,38.57004 69.458904,40.14624 C69.458904,41.72256 70.741824,43.005 72.318864,43.005 C73.895904,43.005 75.178944,41.72256 75.178944,40.14624 C75.178944,38.57004 73.895904,37.28748 72.318864,37.28748 M72.318864,37.94472 C73.535544,37.94472 74.521824,38.93028 74.521824,40.14624 C74.521824,41.3622 73.535544,42.34788 72.318864,42.34788 C71.102304,42.34788 70.116024,41.3622 70.116024,40.14624 C70.116024,38.93028 71.102304,37.94472 72.318864,37.94472" id="Fill-91" fill="#FFFFFF"></path>
            <path d="M91.101564,41.981136 C89.705724,41.981136 88.570044,40.846176 88.570044,39.451056 C88.570044,38.055936 89.705724,36.920856 91.101564,36.920856 C92.497404,36.920856 93.633084,38.055936 93.633084,39.451056 C93.633084,40.846176 92.497404,41.981136 91.101564,41.981136" id="Fill-93" fill="#FBB03B"></path>
            <path d="M91.101564,36.59226 C89.524524,36.59226 88.241484,37.8747 88.241484,39.45102 C88.241484,41.02734 89.524524,42.30978 91.101564,42.30978 C92.678724,42.30978 93.961644,41.02734 93.961644,39.45102 C93.961644,37.8747 92.678724,36.59226 91.101564,36.59226 M91.101564,37.24938 C92.318244,37.24938 93.304404,38.23506 93.304404,39.45102 C93.304404,40.66698 92.318244,41.65254 91.101564,41.65254 C89.884884,41.65254 88.898724,40.66698 88.898724,39.45102 C88.898724,38.23506 89.884884,37.24938 91.101564,37.24938" id="Fill-95" fill="#FFFFFF"></path>
        </g>
    </g>
</svg>