<?xml version="1.0" encoding="UTF-8"?>
<svg width="120px" height="120px" viewBox="0 0 120 120" version="1.1" xmlns="http://www.w3.org/2000/svg" xmlns:xlink="http://www.w3.org/1999/xlink">
    <!-- Generator: Sketch 51.1 (57501) - http://www.bohemiancoding.com/sketch -->
    <title>Athlete2</title>
    <desc>Created with Sketch.</desc>
    <defs>
        <polygon id="path-1" points="0.199373684 0.299053333 13.3734789 0.299053333 13.3734789 5.86666667 0.199373684 5.86666667"></polygon>
    </defs>
    <g id="Athlete2" stroke="none" stroke-width="1" fill="none" fill-rule="evenodd">
        <g id="Group-20" transform="translate(27.000000, 1.000000)">
            <path d="M19.3707394,59.130007 C19.3707394,59.130007 7.93849697,88.4809544 1.40843636,100.46934 L17.6583758,100.46934 L19.3707394,59.130007 Z" id="Fill-1" fill="#EEEEED"></path>
            <polygon id="Fill-3" fill="#EEEEED" points="41.1056 97.7779053 41.0767515 96.7386772 18.3338424 96.4488526 18.2452364 97.4901509"></polygon>
            <polygon id="Fill-5" fill="#A5D8E5" points="20.8939394 46.9211474 19.8595152 46.9211474 17.6587879 101.813919 18.6952727 101.813919"></polygon>
            <path d="M48.7323152,106.71154 C48.7323152,106.71154 16.8774061,109.526979 3.33098182,106.71154 C1.69486061,106.372032 0.868557576,100.467891 0.868557576,100.467891 C0.868557576,100.467891 30.0694061,99.4348737 40.8752242,100.467891 C43.3685576,100.708032 45.4827394,104.562698 48.7323152,106.71154" id="Fill-7" fill="#DBDBDB"></path>
            <path d="M20.9001212,46.9232175 C38.6666667,51.9868667 41.0775758,96.7399193 41.0775758,96.7399193 L18.9116364,96.7399193 L20.9001212,46.9232175 Z" id="Fill-9" fill="#EEEEED"></path>
            <path d="M42.3190909,110.45566 L42.3190909,99.1131684 L32.4941212,99.1131684 L32.9412727,110.45566 L32.9495152,110.45566 C31.1938788,111.552853 29.9142424,113.776221 31.4205455,115.589695 C32.5600606,116.866993 34.2312121,115.858818 35.5026061,115.320572 C36.9058788,114.647765 38.5131515,114.177835 39.7866061,113.302151 C40.6087879,112.726642 41.5731515,112.097309 42.1274545,111.240256 C42.2984848,110.973204 42.3809091,110.702011 42.3190909,110.45566" id="Fill-11" fill="#FDDFBB"></path>
            <path d="M52.968303,110.45566 L52.9744848,110.45566 L53.4195758,99.1131684 L43.5946061,99.1131684 L43.5946061,110.45566 L43.5966667,110.45566 C43.5369091,110.712361 43.6172727,110.973204 43.788303,111.240256 C44.3446667,112.097309 45.3090303,112.726642 46.1312121,113.302151 C47.4026061,114.177835 49.0078182,114.647765 50.4131515,115.320572 C51.6866061,115.858818 53.3577576,116.866993 54.4972727,115.589695 C56.0015152,113.776221 54.726,111.544572 52.968303,110.45566" id="Fill-13" fill="#FDDFBB"></path>
            <path d="M42.3190909,110.437442 C42.3190909,110.437442 35.8982424,111.104039 32.9412727,110.443653 C32.8320606,110.509898 32.7331515,110.582354 32.6280606,110.661021 C32.6198182,110.667232 32.615697,110.671372 32.6074545,110.675512 C31.0372727,111.853442 30.0131515,113.886354 31.4205455,115.579758 C32.5600606,116.859126 34.2312121,115.861302 35.5026061,115.323056 C36.7616364,114.722705 38.1772727,114.279688 39.3724242,113.579968 L39.3765455,113.579968 C39.5187273,113.449547 39.6547273,113.404004 39.7866061,113.312916 C40.6087879,112.731196 41.5731515,112.093582 42.1274545,111.23446 C42.2593333,111.033653 42.3355758,110.824565 42.339697,110.632039 C42.3417576,110.565793 42.3355758,110.499547 42.3190909,110.437442" id="Fill-15" fill="#333433"></path>
            <path d="M54.5257091,111.899193 C54.4638909,111.892982 54.5030424,111.884702 54.4968606,111.878491 C54.4577091,111.818456 54.4061939,111.758421 54.3629212,111.700456 C54.3567394,111.692175 54.3443758,111.681825 54.3340727,111.671474 C54.2928606,111.615579 54.2475273,111.561754 54.2021939,111.51 C54.1877697,111.491368 54.1712848,111.472737 54.1548,111.454105 C54.1197697,111.414772 54.0806182,111.373368 54.0435273,111.334035 C53.757103,111.025579 53.4335879,110.748175 53.0874061,110.518386 C53.0647394,110.499754 53.0379515,110.487333 53.0152848,110.472842 C52.9988,110.462491 52.9843758,110.448 52.9740727,110.44386 C51.0226788,111.754281 43.6065576,110.437649 43.6065576,110.437649 C43.5426788,110.68814 43.6189212,110.961404 43.7920121,111.228456 C44.3483758,112.089649 45.3086182,112.723123 46.1328606,113.300702 C46.2379515,113.373158 46.3409818,113.447684 46.4501939,113.516 C46.4831636,113.534632 46.5078909,113.51393 46.5408606,113.580175 L46.5429212,113.580175 C47.7401333,114.279895 49.1557697,114.722912 50.4127394,115.323263 C51.6841333,115.861509 53.3697091,116.859333 54.5092242,115.582035 C55.504497,114.385474 55.2901939,113.015018 54.5257091,111.899193" id="Fill-17" fill="#333433"></path>
            <path d="M65.7564242,78.5439053 C65.6533939,77.5709228 65.3298788,76.7014491 64.868303,76.0327825 C64.8724242,76.0762561 64.8744848,76.0969579 64.8744848,76.0969579 C64.8744848,76.0969579 63.5041818,62.2868175 59.9310909,57.6993088 C58.2908485,55.5939404 52.6344848,52.5425018 51.9750909,52.1926421 C50.724303,51.2838351 47.9074545,50.8739404 46.1538788,50.7083263 C46.4485455,50.0624316 46.6257576,49.3523614 46.6257576,48.8410281 L39.2240606,48.8410281 C39.2240606,49.3523614 39.4012727,50.0479404 39.6897576,50.6917649 C37.9691515,50.8615193 35.1234545,51.271414 33.8273333,52.1760807 L22.5187273,56.2460456 L17.1529091,49.9216596 C17.2435758,49.6670281 17.3095152,49.3937649 17.3569091,49.1060105 C17.6989697,48.4787474 17.9812727,47.6900105 18.1502424,46.810186 C18.5953333,44.5164316 18.0987273,42.4855895 17.043697,42.2785719 C16.4790909,42.1688526 15.8670909,42.6035895 15.354,43.3819754 C14.2144848,42.2827123 12.8112121,41.8252035 11.6387273,42.3220456 C9.84187879,43.0880105 9.27315152,45.8082211 10.3652727,48.3980105 C11.0679394,50.0603614 12.2816364,51.2631333 13.5365455,51.7102912 L13.5344848,51.7102912 C13.5344848,51.7102912 16.8788485,61.2496596 19.7925455,62.3137298 C22.1519394,63.1707825 30.7611515,59.6970281 30.7611515,59.6970281 L30.7611515,59.6866772 C29.1415152,69.5986772 30.8373939,84.7316596 30.8373939,84.7316596 L55.0783636,84.7316596 C55.0783636,84.7316596 56.5290303,70.9939754 55.2308485,61.1150982 L55.2308485,61.1213088 C55.4204242,61.6471333 56.4692727,62.5787123 57.3017576,63.7566421 C58.9605455,66.1166421 60.5142424,76.0886772 60.5142424,76.0886772 C60.4750909,76.1590632 60.438,76.2273789 60.4050303,76.2998351 C59.9826061,76.7097298 59.5725455,77.266607 59.2304848,77.9145719 C58.33,79.6224667 58.2372727,81.3448526 59.020303,81.7609579 C59.4447879,81.9845368 60.03,81.7899404 60.6193333,81.2993088 C61.254,82.4399754 62.2575152,83.1438351 63.3001818,83.0320456 C64.8992121,82.8622912 65.9995758,80.8500807 65.7564242,78.5439053" id="Fill-19" fill="#FDDFBB"></path>
            <path d="M59.9308848,57.6984807 C59.4940364,57.1374632 58.7748848,56.5143404 57.9424,55.8891474 C57.8970667,55.8560246 57.8537939,55.8229018 57.8105212,55.7918491 C57.7981576,55.7814982 57.7837333,55.7711474 57.7693091,55.7607965 C57.7342788,55.7380246 57.7033697,55.7131825 57.6662788,55.6862702 C57.6559758,55.6779895 57.6415515,55.6697088 57.6312485,55.6614281 C57.5838545,55.6283053 57.5405818,55.5931123 57.4952485,55.5641298 C57.4870061,55.5579193 57.4828848,55.5537789 57.476703,55.5496386 C57.4354909,55.518586 57.3963394,55.4937439 57.3551273,55.4626912 C57.3427636,55.4544105 57.3283394,55.4440596 57.3118545,55.4337088 C57.2768242,55.4088667 57.2417939,55.3840246 57.2067636,55.3591825 C57.1944,55.3488316 57.1820364,55.3426211 57.1696727,55.3322702 C57.1264,55.3032877 57.0769455,55.2701649 57.0316121,55.2391123 C57.0213091,55.2308316 57.0089455,55.2246211 56.9986424,55.2163404 C56.9636121,55.1894281 56.9244606,55.1625158 56.8873697,55.1397439 C56.8729455,55.1314632 56.8605818,55.1190421 56.844097,55.1107614 C56.8049455,55.0817789 56.7678545,55.059007 56.728703,55.0300246 C56.7184,55.0258842 56.7122182,55.0196737 56.7039758,55.011393 C56.6524606,54.9824105 56.6071273,54.9492877 56.5597333,54.9161649 C56.5453091,54.9078842 56.5350061,54.9016737 56.5205818,54.893393 C56.4834909,54.8685509 56.4484606,54.8457789 56.4134303,54.8188667 C56.3969455,54.810586 56.3804606,54.8023053 56.368097,54.7919544 C56.3227636,54.7629719 56.2794909,54.7339895 56.2362182,54.705007 C56.2300364,54.7029368 56.2279758,54.7008667 56.2238545,54.6987965 C56.1764606,54.6656737 56.1290667,54.6366912 56.0837333,54.6056386 C56.0672485,54.5952877 56.0507636,54.587007 56.0342788,54.574586 C56.0033697,54.551814 55.9662788,54.5331825 55.9353697,54.5104105 C55.9188848,54.5000596 55.9044606,54.4917789 55.8879758,54.4793579 C55.8426424,54.4524456 55.7952485,54.421393 55.7499152,54.3924105 C55.7396121,54.3841298 55.7313697,54.3799895 55.7210667,54.3779193 C55.6819152,54.351007 55.6448242,54.3261649 55.6056727,54.3013228 C55.5891879,54.2909719 55.572703,54.2826912 55.5562182,54.2702702 C55.5191273,54.2495684 55.4902788,54.2288667 55.4552485,54.2060947 C55.4387636,54.1998842 55.4264,54.1916035 55.4140364,54.1812526 L55.2739152,54.0963754 C55.2636121,54.0880947 55.2512485,54.0818842 55.2430061,54.0756737 C55.2059152,54.0508316 55.1688242,54.0301298 55.1337939,54.0094281 C55.1173091,53.9990772 55.1008242,53.9887263 55.0843394,53.9804456 C55.0493091,53.9556035 55.0122182,53.9349018 54.9771879,53.9142 C54.9689455,53.9079895 54.9565818,53.8997088 54.9483394,53.8934982 C54.9009455,53.866586 54.8556121,53.8396737 54.8123394,53.8127614 C54.7979152,53.8024105 54.7834909,53.7962 54.7711273,53.7858491 C54.7381576,53.7672175 54.7051879,53.748586 54.6722182,53.7278842 C54.6577939,53.7196035 54.6433697,53.7092526 54.6289455,53.7009719 C54.5877333,53.6802702 54.552703,53.6533579 54.5135515,53.630586 C54.5053091,53.6285158 54.4991273,53.6243754 54.4929455,53.6202351 C54.4496727,53.595393 54.4064,53.5705509 54.3631273,53.5415684 C54.348703,53.5332877 54.3342788,53.5270772 54.3198545,53.5167263 C54.2910061,53.5001649 54.2580364,53.4815333 54.2291879,53.4629018 C54.2147636,53.4546211 54.2003394,53.4463404 54.1879758,53.4380596 C54.144703,53.4152877 54.1034909,53.3883754 54.0622788,53.3656035 C54.0540364,53.3614632 54.0478545,53.3573228 54.0396121,53.3511123 L53.9365818,53.2910772 C53.9221576,53.2848667 53.9056727,53.2745158 53.8933091,53.2662351 C53.8644606,53.2517439 53.8376727,53.2331123 53.8067636,53.2165509 C53.7923394,53.2103404 53.7820364,53.1999895 53.7676121,53.1937789 L53.6522182,53.1275333 C53.6398545,53.1213228 53.6316121,53.1151123 53.6213091,53.1109719 C53.5924606,53.0923404 53.5636121,53.0778491 53.5347636,53.0612877 C53.5224,53.0509368 53.5059152,53.0447263 53.4914909,53.0364456 C53.464703,53.0198842 53.4399758,53.0033228 53.4111273,52.9888316 C53.3987636,52.9846912 53.3905212,52.9764105 53.3781576,52.9702 L53.2710061,52.9101649 C53.2627636,52.9060246 53.2504,52.8977439 53.2421576,52.8936035 C53.2174303,52.8770421 53.1906424,52.8625509 53.1659152,52.8501298 C53.1535515,52.8397789 53.1370667,52.8335684 53.1267636,52.8273579 C53.0979152,52.8128667 53.0711273,52.7963053 53.0443394,52.7797439 C53.036097,52.7776737 53.0319758,52.7735333 53.0237333,52.7714632 L52.9289455,52.7176386 C52.9186424,52.7093579 52.9062788,52.7031474 52.8980364,52.699007 C52.8753697,52.6845158 52.8506424,52.6720947 52.8300364,52.6596737 C52.8197333,52.6534632 52.8094303,52.6493228 52.7991273,52.6451825 C52.7702788,52.6286211 52.7434909,52.6120596 52.7125818,52.5954982 C52.7064,52.5934281 52.7022788,52.5892877 52.6981576,52.5872175 C52.6754909,52.5727263 52.6507636,52.5603053 52.6239758,52.5478842 C52.6157333,52.5416737 52.6033697,52.5354632 52.5930667,52.5313228 C52.5786424,52.5209719 52.560097,52.5106211 52.5415515,52.4982 C52.5312485,52.4940596 52.5230061,52.4899193 52.512703,52.4837088 C52.4879758,52.4733579 52.4653091,52.4588667 52.4385212,52.4443754 C52.4323394,52.4423053 52.4282182,52.4381649 52.4179152,52.4360947 C52.4034909,52.4236737 52.3849455,52.415393 52.3684606,52.4050421 C52.3602182,52.4009018 52.3519758,52.3967614 52.3416727,52.3926211 C52.3251879,52.3843404 52.3128242,52.3739895 52.2922182,52.3657088 C52.288097,52.3636386 52.2839758,52.3594982 52.2777939,52.3574281 C52.2551273,52.345007 52.2365818,52.332586 52.2159758,52.3243053 C52.2118545,52.3222351 52.2077333,52.3160246 52.2036121,52.3139544 C52.1871273,52.3077439 52.172703,52.3015333 52.1603394,52.2932526 L52.1479758,52.2870421 C52.1314909,52.2766912 52.1170667,52.2704807 52.1026424,52.2642702 C52.1005818,52.2601298 52.0964606,52.2580596 52.0944,52.2559895 C52.0779152,52.2497789 52.0634909,52.2394281 52.0511273,52.2332175 C52.0470061,52.2311474 52.0449455,52.2311474 52.0449455,52.2290772 C52.0305212,52.2207965 52.0181576,52.2166561 52.0057939,52.2125158 L52.0057939,52.2104456 C51.9934303,52.2021649 51.9831273,52.1980246 51.9748848,52.191814 C51.9316121,52.1628316 51.8924606,52.1338491 51.8491879,52.1069368 C51.832703,52.096586 51.8162182,52.0862351 51.7997333,52.0758842 C51.7729455,52.0593228 51.7482182,52.0427614 51.7193697,52.0262 C51.6925818,52.0096386 51.6657939,51.9951474 51.6410667,51.9827263 C51.6204606,51.9703053 51.5998545,51.9599544 51.5792485,51.9496035 C51.5442182,51.9289018 51.5030061,51.9082 51.4679758,51.8895684 C51.4556121,51.8854281 51.4453091,51.8771474 51.4350061,51.8750772 C51.2289455,51.7736386 51.0043394,51.6804807 50.7632485,51.5935333 C50.7550061,51.5914632 50.7467636,51.589393 50.7385212,51.5852526 C50.4170667,51.4734632 50.0729455,51.3699544 49.7144,51.283007 C49.6834909,51.2726561 49.6587636,51.2685158 49.6319758,51.2581649 C49.024097,51.1091123 48.3853091,50.9952526 47.7774303,50.9062351 L47.7733091,50.9083053 C47.188097,50.8213579 46.6337939,50.7592526 46.1536727,50.7137088 C46.4483394,50.0657439 46.6255515,49.3660246 46.6255515,48.8546912 L39.2259152,48.8546912 C39.2259152,49.3660246 39.4010667,50.055393 39.6895515,50.6992175 C39.1682182,50.7489018 38.5438545,50.8234281 37.8885818,50.9269368 L37.8803394,50.9207263 C37.8803394,50.9207263 37.872097,50.9227965 37.8638545,50.9227965 C37.7628848,50.9372877 37.6598545,50.9559193 37.5568242,50.9745509 C37.5568242,50.9745509 37.5382788,50.9766211 37.532097,50.9786912 C37.192097,51.034586 36.8500364,51.1008316 36.5162182,51.1774281 L36.512097,51.1774281 C36.4482182,51.1919193 36.3843394,51.2064105 36.3184,51.2209018 C36.3184,51.2209018 36.3142788,51.2209018 36.3122182,51.2229719 C36.2504,51.2374632 36.1885818,51.2540246 36.1267636,51.2685158 C36.1205818,51.270586 36.1164606,51.2726561 36.1102788,51.2726561 C36.0525818,51.2871474 35.9928242,51.3016386 35.9330667,51.3161298 C35.9268848,51.3202702 35.920703,51.3223404 35.920703,51.3223404 C35.8547636,51.3368316 35.7991273,51.353393 35.7434909,51.3678842 C35.7352485,51.3699544 35.7270061,51.3720246 35.716703,51.3761649 C35.6631273,51.3906561 35.6095515,51.4051474 35.560097,51.4217088 C35.5477333,51.4237789 35.5374303,51.4279193 35.5230061,51.4341298 C35.4735515,51.4444807 35.424097,51.4610421 35.376703,51.4776035 C35.3602182,51.4817439 35.3478545,51.4858842 35.3334303,51.4920947 C35.2860364,51.5045158 35.2427636,51.5210772 35.1953697,51.5334982 L35.1479758,51.5521298 C35.1026424,51.5666211 35.0634909,51.5811123 35.0222788,51.5956035 C35.0016727,51.6038842 34.9851879,51.6100947 34.9645818,51.6163053 C34.9274909,51.6287263 34.8883394,51.6432175 34.8512485,51.6597789 C34.8306424,51.6659895 34.812097,51.6742702 34.7894303,51.6825509 C34.7544,51.6949719 34.7214303,51.7094632 34.6843394,51.7239544 C34.6616727,51.7322351 34.6431273,51.742586 34.6204606,51.7508667 L34.5236121,51.7922702 C34.5030061,51.8026211 34.4762182,51.8150421 34.4556121,51.8233228 C34.4267636,51.837814 34.3979152,51.8523053 34.3711273,51.8626561 C34.3464,51.8750772 34.3216727,51.8874982 34.2990061,51.8999193 C34.2722182,51.9123404 34.2474909,51.9268316 34.2248242,51.9371825 C34.1980364,51.9516737 34.1712485,51.9661649 34.1444606,51.9806561 C34.1259152,51.991007 34.1032485,52.0034281 34.084703,52.0137789 C34.0517333,52.0303404 34.0249455,52.0489719 33.996097,52.0655333 C33.9816727,52.0758842 33.9651879,52.0841649 33.9528242,52.0945158 C33.9095515,52.1214281 33.8704,52.1462702 33.8271273,52.1752526 L29.0382788,53.8976386 L29.032097,53.8997088 L22.5185212,56.2472877 L17.5030061,50.3307263 C16.4417939,50.9662702 15.0364606,51.6929018 13.8557333,52.5747965 C14.7562182,54.9513579 17.4185212,61.4620596 19.7923394,62.3253228 C22.1393697,63.1823754 30.6682182,59.7251825 30.7588848,59.7251825 C30.7279758,59.9197789 30.7011879,60.0791825 30.6723394,60.2675684 C30.6723394,60.2779193 30.6702788,60.2820596 30.6682182,60.2944807 C30.6125818,60.6691825 30.5631273,61.0500947 30.5157333,61.4372175 L30.5157333,61.4496386 C30.4910061,61.6442351 30.4662788,61.8429719 30.4456727,62.0396386 C30.4374303,62.1120947 30.4312485,62.1824807 30.4250667,62.2507965 C30.4250667,62.2590772 30.4230061,62.2673579 30.4209455,62.2756386 C30.4147636,62.3418842 30.4065212,62.4122702 30.4003394,62.4826561 C30.4003394,62.4909368 30.3982788,62.5012877 30.3982788,62.5095684 C30.3900364,62.5778842 30.3838545,62.6462 30.3776727,62.7145158 L30.3776727,62.729007 C30.3735515,62.7310772 30.3735515,62.7352175 30.3735515,62.7393579 L30.3735515,62.7455684 C30.3673697,62.8159544 30.3611879,62.8842702 30.3570667,62.9484456 C30.3529455,62.9608667 30.3529455,62.9732877 30.3529455,62.9815684 C30.3488242,63.0519544 30.3426424,63.1182 30.3344,63.188586 L30.3344,63.2051474 C30.3344,63.2092877 30.3323394,63.2113579 30.3323394,63.2175684 C30.3261576,63.2858842 30.3220364,63.3542 30.3137939,63.4266561 L30.3137939,63.4328667 L30.3137939,63.4432175 C30.0871273,66.1841298 30.0335515,69.1030772 30.072703,71.8709018 L30.072703,71.8812526 C30.072703,71.9474982 30.0768242,72.0116737 30.0768242,72.0799895 L30.0768242,72.1151825 L30.0768242,72.1276035 C30.0768242,72.1959193 30.0809455,72.2621649 30.0809455,72.3284105 C30.0809455,72.3429018 30.0809455,72.3553228 30.0830061,72.369814 C30.0830061,72.4319193 30.0830061,72.4940246 30.0850667,72.5561298 C30.0850667,72.5726912 30.0850667,72.5871825 30.0871273,72.605814 L30.0871273,72.6120246 C30.0871273,72.6720596 30.0685818,72.7383053 30.0706424,72.7983404 C30.0706424,72.8024807 30.0500364,72.8066211 30.0500364,72.8128316 C30.0500364,72.8273228 30.0706424,72.8397439 30.0706424,72.8563053 C30.072703,72.9163404 30.0850667,72.9763754 30.0850667,73.0343404 C30.0871273,73.0612526 30.0912485,73.0860947 30.0912485,73.1088667 C30.0933091,73.1668316 30.0953697,73.2227263 30.0974303,73.2786211 C30.0974303,73.2972526 30.0994909,73.313814 30.0994909,73.3303754 C30.1015515,73.3904105 30.1036121,73.454586 30.1036121,73.5146211 C30.1056727,73.5311825 30.1056727,73.549814 30.1077333,73.5684456 C30.1118545,73.7444105 30.1180364,73.9183053 30.1221576,74.0942702 C30.1242182,74.1377439 30.1262788,74.1832877 30.1262788,74.2267614 C30.1262788,74.2412526 30.1262788,74.257814 30.1283394,74.2723053 C30.1386424,74.5849018 30.1489455,74.8912877 30.1613091,75.1935333 C30.1633697,75.2038842 30.1695515,75.2183754 30.1695515,75.2328667 C30.1695515,75.3032526 30.1798545,75.3715684 30.1798545,75.4419544 L30.1798545,75.4440246 C30.2416727,78.1911474 30.4559758,80.6132526 30.596097,82.3025158 C30.7259152,83.8178842 30.8310061,84.7184105 30.8310061,84.7184105 C30.8310061,84.7184105 32.2672485,94.0673228 32.4939152,99.1206211 L32.7411879,105.140691 L42.3394909,105.842481 L42.3394909,99.1206211 C42.2776727,97.8412526 42.8175515,91.7777088 42.8175515,91.7777088 L43.0998545,91.7777088 C43.0998545,91.7777088 43.6788848,97.4582702 43.6129455,99.1206211 L43.6129455,105.842481 L53.1885818,105.227639 L53.4234909,99.1206211 C53.6872485,94.8353579 55.0802182,84.7184105 55.0802182,84.7184105 C55.0802182,84.7184105 55.3233697,82.4267263 55.5191273,79.0378491 C55.6015515,77.6280596 55.6777939,76.0423053 55.7210667,74.3530421 L55.7210667,74.3323404 C55.7231273,74.3033579 55.7231273,74.2723053 55.7231273,74.2391825 C55.7251879,74.2081298 55.7251879,74.175007 55.7293091,74.139814 L55.7293091,74.1025509 C55.7293091,74.0632175 55.7313697,74.0259544 55.7334303,73.9845509 L55.7334303,73.9141649 C55.7334303,73.891393 55.7354909,73.8706912 55.7354909,73.8458491 C55.7375515,73.7920246 55.7375515,73.7382 55.7375515,73.6843754 C55.7396121,73.6574632 55.7396121,73.6326211 55.7396121,73.6098491 C55.7416727,73.549814 55.7416727,73.4918491 55.7457939,73.4297439 L55.7457939,73.3634982 C55.7457939,73.3158842 55.7457939,73.2682702 55.7499152,73.2206561 C55.7499152,73.1854632 55.7519758,73.1544105 55.7519758,73.1192175 L55.7519758,73.0426211 C55.7519758,73.0219193 55.7540364,73.0032877 55.7540364,72.9846561 C55.7540364,72.947393 55.7540364,72.9142702 55.756097,72.877007 L55.756097,72.8086912 L55.756097,72.7445158 C55.7581576,72.7093228 55.7581576,72.6720596 55.7581576,72.6389368 C55.7581576,72.5975333 55.7602182,72.5582 55.7602182,72.5188667 C55.7602182,72.4795333 55.7602182,72.4381298 55.7622788,72.3987965 L55.7622788,72.2766561 C55.7664,72.2331825 55.7664,72.1917789 55.7664,72.1462351 L55.7664,72.0592877 L55.7664,71.9102351 L55.7664,71.8916035 C55.8076121,71.4692877 55.7231273,67.8568316 55.7231273,67.7802351 C55.7210667,67.7740246 55.7231273,67.7698842 55.7231273,67.7657439 C55.7210667,67.6932877 55.7210667,67.6229018 55.7190061,67.5504456 L55.7190061,67.5173228 C55.7148848,67.449007 55.7148848,67.3806912 55.7128242,67.3144456 C55.708703,67.2999544 55.708703,67.283393 55.708703,67.2709719 C55.708703,67.2047263 55.7045818,67.1405509 55.7025212,67.0722351 C55.7004606,67.0556737 55.7004606,67.0391123 55.7004606,67.0246211 C55.6984,66.9604456 55.6963394,66.8962702 55.6942788,66.8300246 C55.6922182,66.811393 55.6922182,66.7948316 55.6922182,66.7762 C55.688097,66.7161649 55.688097,66.6561298 55.6819152,66.5981649 L55.6819152,66.5857439 L55.6819152,66.5609018 C55.6819152,66.5526211 55.6798545,66.5402 55.6798545,66.5298491 C55.6798545,66.4718842 55.6777939,66.4139193 55.6757333,66.3559544 C55.6736727,66.3311123 55.6695515,66.3021298 55.6695515,66.2772877 C55.6674909,66.221393 55.6654303,66.1675684 55.6613091,66.1116737 C55.6613091,66.0889018 55.6613091,66.0640596 55.6592485,66.0371474 C55.6571879,65.9812526 55.6530667,65.9232877 55.6489455,65.8653228 C55.6468848,65.8404807 55.6468848,65.8156386 55.6448242,65.7907965 C55.6427636,65.7349018 55.6386424,65.6769368 55.6365818,65.6210421 C55.6365818,65.6044807 55.6324606,65.5899895 55.6324606,65.5754982 L55.6324606,65.5568667 C55.6304,65.5506561 55.6304,65.548586 55.6304,65.5465158 C55.6283394,65.4906211 55.6242182,65.4326561 55.6221576,65.3767614 L55.6221576,65.3726211 C55.620097,65.3498491 55.620097,65.3291474 55.6180364,65.3043053 C55.6159758,65.2484105 55.6097939,65.1925158 55.6056727,65.1407614 L55.6056727,65.1366211 C55.6056727,65.1097088 55.6036121,65.0848667 55.6015515,65.0600246 C55.5994909,65.0020596 55.5953697,64.9482351 55.5933091,64.8964807 C55.5933091,64.8902702 55.5912485,64.8840596 55.5912485,64.8799193 C55.5912485,64.8592175 55.5891879,64.8385158 55.5891879,64.817814 L55.5768242,64.6542702 C55.5747636,64.6480596 55.5747636,64.6418491 55.5747636,64.6356386 C55.5747636,64.6232175 55.572703,64.6128667 55.572703,64.6004456 C55.572703,64.5942351 55.5706424,64.5838842 55.5706424,64.5756035 C55.5665212,64.5217789 55.5644606,64.4658842 55.5603394,64.4099895 C55.5562182,64.3851474 55.5541576,64.3603053 55.552097,64.3354632 C55.5500364,64.2837088 55.5459152,64.2298842 55.5397333,64.1802 L55.5397333,64.1470772 L55.5397333,64.1263754 C55.5356121,64.1180947 55.5356121,64.1077439 55.5356121,64.097393 C55.5335515,64.0953228 55.5335515,64.0932526 55.5335515,64.0911825 C55.5314909,64.0394281 55.5273697,63.9814632 55.5232485,63.9297088 C55.5191273,63.9069368 55.5170667,63.8862351 55.5150061,63.8655333 L55.5150061,63.8531123 C55.5108848,63.8013579 55.5088242,63.7516737 55.504703,63.6978491 C55.5005818,63.6626561 55.4985212,63.6274632 55.4964606,63.5943404 C55.4923394,63.5446561 55.4882182,63.4991123 55.484097,63.4514982 C55.4799758,63.424586 55.4779152,63.3956035 55.4758545,63.3666211 C55.4717333,63.3169368 55.4676121,63.2631123 55.4614303,63.2134281 L55.4552485,63.1409719 C55.4511273,63.0892175 55.4428848,63.0333228 55.4387636,62.9815684 C55.436703,62.952586 55.4346424,62.9236035 55.4325818,62.8987614 C55.4264,62.8449368 55.4222788,62.7931825 55.4181576,62.7414281 C55.416097,62.7227965 55.4140364,62.7041649 55.4140364,62.6855333 L55.4119758,62.6834632 C55.4119758,62.6772526 55.4119758,62.6689719 55.4078545,62.6586211 C55.4037333,62.6068667 55.3996121,62.5592526 55.3954909,62.5054281 C55.3934303,62.4950772 55.3934303,62.4888667 55.3913697,62.4847263 C55.3913697,62.4743754 55.3913697,62.4660947 55.3872485,62.4557439 L55.3872485,62.4536737 C55.3810667,62.3936386 55.3748848,62.3315333 55.3666424,62.2735684 C55.3666424,62.2611474 55.3666424,62.2507965 55.3645818,62.2404456 C55.3584,62.1721298 55.348097,62.1079544 55.3419152,62.0396386 C55.3089455,61.7311825 55.2697939,61.4268667 55.232703,61.1246211 L55.232703,61.1266912 C55.2388848,61.1432526 55.2471273,61.1577439 55.2512485,61.1763754 C55.4490667,61.6214632 56.184703,62.3232526 56.8853091,63.2072175 C56.8914909,63.2134281 56.8956121,63.2196386 56.8997333,63.2258491 C56.9203394,63.2548316 56.9450667,63.2796737 56.9656727,63.3107263 C56.9718545,63.3169368 56.9759758,63.3210772 56.980097,63.3272877 C56.9986424,63.3500596 57.0151273,63.3728316 57.0316121,63.3956035 C57.0419152,63.4080246 57.0542788,63.4204456 57.0625212,63.4349368 C57.0810667,63.4556386 57.0975515,63.4825509 57.1181576,63.5053228 C57.1264,63.519814 57.1346424,63.5280947 57.1428848,63.5405158 C57.1964606,63.6129719 57.2459152,63.6854281 57.3036121,63.7578842 C58.7419152,65.8094281 60.1060364,73.6119193 60.4377939,75.6158491 C61.8348848,75.2163053 63.4071273,74.9016386 64.7156121,74.7215333 C64.2664,71.1111474 62.8136727,61.4020246 59.9308848,57.6984807" id="Fill-21" fill="#333433"></path>
            <path d="M33.5514182,95.5299018 C32.6282667,81.6493754 29.8629333,80.7364281 31.8349333,60.4901123 C31.1405091,81.6493754 35.4554182,86.3983579 33.5514182,95.5299018" id="Fill-23" fill="#616160"></path>
            <path d="M52.3886545,95.5299018 C53.3097455,81.6493754 56.0750788,80.7364281 54.1030788,60.4901123 C54.797503,81.6493754 50.4825939,86.3983579 52.3886545,95.5299018" id="Fill-25" fill="#616160"></path>
            <path d="M64.8489333,30.4284737 C65.0117212,29.3333509 65.0962061,28.2113158 65.0962061,27.0685789 C65.0962061,14.7199825 55.1331758,4.70861404 42.8416606,4.70861404 C30.5501455,4.70861404 20.5891758,14.7199825 20.5891758,27.0685789 C20.5891758,28.1574912 20.6654182,29.2298421 20.8158424,30.2752807 C19.5320848,30.9853509 18.6666303,32.3144035 18.6666303,33.8463333 C18.6666303,36.1131754 20.5685697,37.9514912 22.9135394,37.9514912 C23.0722061,37.9514912 23.2308727,37.9432105 23.3833576,37.9266491 C27.1872364,44.7872105 34.4735394,49.4264737 42.8416606,49.4264737 C51.2015394,49.4264737 58.4857818,44.7934211 62.2876,37.9473509 C62.3556,37.9514912 62.4215394,37.9514912 62.4895394,37.9514912 C64.8365697,37.9514912 66.7385091,36.1131754 66.7385091,33.8463333 C66.7385091,32.4220526 65.9884485,31.163386 64.8489333,30.4284737" id="Fill-27" fill="#FDDFBB"></path>
            <path d="M29.5771273,28.9385684 C31.3925212,27.812393 34.0630667,27.1002526 34.0630667,27.1002526 C34.3804,26.5040421 34.098097,25.500007 33.6777333,25.4399719 C32.3465818,25.2495158 29.5771273,28.9385684 29.5771273,28.9385684" id="Fill-41" fill="#F7B90B"></path>
            <path d="M55.3367636,28.9385684 C53.5213697,27.812393 50.8508242,27.1002526 50.8508242,27.1002526 C50.5334909,26.5040421 50.8157939,25.500007 51.2361576,25.4399719 C52.5673091,25.2495158 55.3367636,28.9385684 55.3367636,28.9385684" id="Fill-43" fill="#F7B90B"></path>
            <path d="M65.9797939,24.1552211 C65.9653697,22.9876421 65.8788242,21.5633614 65.7139758,20.047993 C62.7240364,10.2084491 53.6182182,3.05185263 42.8453697,3.05185263 C33.4696121,3.05185263 25.3528848,8.47571228 21.4356727,16.3713614 C20.3517939,19.4745544 19.6903394,22.5301333 19.634703,23.9068 C19.4430667,28.6868351 22.9151879,35.8475719 22.9151879,35.8475719 C22.4968848,27.9788351 22.5834303,27.9933263 24.4730061,26.6311509 C26.8200364,24.9356772 31.7675515,21.7765895 33.6777333,19.5946246 C34.0424606,19.1785193 34.7945818,17.6817825 34.7945818,17.6817825 C34.7945818,17.6817825 34.7204,18.8555719 35.3736121,19.3731158 C39.3155515,22.4970105 50.9311879,19.0253263 55.3367636,21.4329404 C58.9428242,23.4058175 63.3195515,35.8475719 63.3195515,35.8475719 C65.0999152,32.4607649 66.0168848,26.7822737 65.9797939,24.1552211" id="Fill-45" fill="#F7B90B"></path>
            <path d="M20.1896242,21.6099404 C20.1896242,32.4721509 25.6399273,30.0852386 30.7811394,28.2945368 C42.6337455,24.1686772 42.6337455,24.1686772 54.1422303,28.4601509 C59.5245333,30.4640807 65.5250182,33.1242561 65.5250182,21.6099404 C65.5250182,21.6099404 54.5131394,14.4057298 42.6337455,14.4057298 C28.2012606,14.4057298 20.1896242,21.6099404 20.1896242,21.6099404" id="Fill-47" fill="#DBDBDB"></path>
            <path d="M23.6508242,29.7208877 C24.4565212,29.9154842 25.3611273,29.8616596 26.3193091,29.6753439 L24.1742182,18.939414 C23.0779758,19.5418351 22.2001576,20.106993 21.5490061,20.5624316 L23.6508242,29.7208877 Z" id="Fill-49" fill="#6CC5D8"></path>
            <path d="M59.0231879,30.0504596 C59.9648848,30.2409158 60.8612485,30.3030211 61.6690061,30.1436175 L63.8573697,20.6146 C63.154703,20.2233368 62.2562788,19.740986 61.1909455,19.2213719 L59.0231879,30.0504596 Z" id="Fill-51" fill="#6CC5D8"></path>
            <path d="M20.097103,21.6322982 C20.097103,21.6322982 41.9209818,15.4942281 65.4881333,21.6322982 C67.9917697,19.1149649 59.9863152,0.00103508772 43.0192848,0.00103508772 C25.516497,0.00103508772 17.7789212,19.3033509 20.097103,21.6322982" id="Fill-53" fill="#EEEEED"></path>
            <path d="M52.3684606,52.4058702 C52.3602182,52.4017298 52.3519758,52.3975895 52.3416727,52.3913789 C52.3251879,52.3830982 52.3128242,52.3727474 52.2922182,52.3644667 C52.288097,52.3623965 52.2839758,52.3603263 52.2777939,52.3582561 C52.2551273,52.3458351 52.2365818,52.333414 52.2159758,52.3251333 C52.2118545,52.3230632 52.2077333,52.3168526 52.2036121,52.3147825 C52.1871273,52.3085719 52.172703,52.3002912 52.1582788,52.2920105 L52.1479758,52.2858 C52.1314909,52.2775193 52.1170667,52.2713088 52.1026424,52.2650982 C52.1005818,52.2609579 52.0964606,52.2588877 52.0944,52.2568175 C52.0779152,52.250607 52.0634909,52.2402561 52.0511273,52.2340456 C52.0470061,52.2319754 52.0449455,52.2319754 52.0449455,52.2299053 C52.0305212,52.2216246 52.0181576,52.215414 52.0057939,52.2112737 L52.0057939,52.2092035 C51.9934303,52.2009228 51.9831273,52.1967825 51.9748848,52.1905719 C51.9316121,52.1636596 51.8924606,52.1346772 51.8491879,52.1056947 C51.832703,52.097414 51.8141576,52.0870632 51.7997333,52.0767123 C51.7729455,52.0601509 51.7482182,52.0415193 51.7193697,52.0249579 C51.6925818,52.0104667 51.6657939,51.9959754 51.6390061,51.9835544 C51.6204606,51.9711333 51.5998545,51.9587123 51.5792485,51.9483614 C51.5442182,51.9297298 51.5030061,51.9090281 51.4679758,51.8903965 C51.4556121,51.8862561 51.4453091,51.8779754 51.4350061,51.8738351 C51.2289455,51.7723965 51.0043394,51.6792386 50.7632485,51.5922912 C50.7550061,51.5902211 50.7467636,51.5881509 50.7385212,51.5860807 C50.4170667,51.4742912 50.0729455,51.3707825 49.7144,51.2838351 C49.6834909,51.2734842 49.6587636,51.2672737 49.6319758,51.2569228 C49.3950061,51.2010281 49.1497939,51.1513439 48.9066424,51.1016596 C47.7300364,52.8799404 44.7442182,57.1010281 42.904097,57.040993 C41.1319758,56.9830281 38.5026424,52.6480807 37.5547636,50.9753789 C37.5547636,50.9753789 37.5382788,50.9774491 37.532097,50.9795193 C37.192097,51.035414 36.8500364,51.1016596 36.5162182,51.176186 L36.512097,51.176186 C36.4461576,51.1927474 36.3843394,51.2072386 36.3184,51.2217298 C36.3184,51.2217298 36.3142788,51.2217298 36.3122182,51.2238 C36.2504,51.2382912 36.1865212,51.2527825 36.1267636,51.2672737 C36.1205818,51.2693439 36.1164606,51.271414 36.1102788,51.271414 C36.0525818,51.2879754 35.9928242,51.3024667 35.9330667,51.3169579 C35.9268848,51.3210982 35.920703,51.3231684 35.920703,51.3231684 C35.8547636,51.3355895 35.7991273,51.3521509 35.7434909,51.3687123 C35.7352485,51.3707825 35.7270061,51.3728526 35.716703,51.376993 C35.6631273,51.3914842 35.6095515,51.4059754 35.560097,51.4204667 C35.5477333,51.4225368 35.5374303,51.4266772 35.5230061,51.4328877 C35.4735515,51.4453088 35.424097,51.4618702 35.376703,51.4784316 C35.3602182,51.4825719 35.3478545,51.4867123 35.3334303,51.4929228 C35.2860364,51.5032737 35.240703,51.5198351 35.1953697,51.5343263 L35.1479758,51.5529579 C35.1026424,51.5674491 35.0634909,51.5819404 35.0222788,51.5943614 C35.0016727,51.6026421 34.9831273,51.6088526 34.9645818,51.6150632 C34.9274909,51.6295544 34.8883394,51.6440456 34.8512485,51.660607 C34.8306424,51.6668175 34.8100364,51.6730281 34.7894303,51.6813088 C34.7544,51.6937298 34.7214303,51.7102912 34.6843394,51.7247825 C34.6616727,51.7330632 34.6410667,51.743414 34.6204606,51.7516947 L34.5236121,51.7930982 C34.5030061,51.8034491 34.4762182,51.8158702 34.4556121,51.8241509 C34.4267636,51.8386421 34.3979152,51.8510632 34.3711273,51.861414 C34.3464,51.8759053 34.3216727,51.8883263 34.2969455,51.9007474 C34.2722182,51.9131684 34.2474909,51.9276596 34.2248242,51.9359404 C34.1980364,51.9504316 34.1712485,51.966993 34.1444606,51.9814842 C34.1238545,51.9918351 34.1032485,52.0042561 34.084703,52.014607 C34.0517333,52.0290982 34.0249455,52.0477298 33.996097,52.0663614 C33.9816727,52.0767123 33.9651879,52.084993 33.9507636,52.0953439 C33.9095515,52.120186 33.8683394,52.1470982 33.8271273,52.1760807 L33.6911273,52.2257649 C33.4582788,56.6766421 31.8386424,59.8315895 30.4827636,61.7216596 C30.4704,61.8293088 30.4580364,61.9348877 30.4456727,62.0383965 C30.4374303,62.1108526 30.4312485,62.1833088 30.4250667,62.2516246 C30.4250667,62.2599053 30.4230061,62.268186 30.4209455,62.2764667 C30.4147636,62.3427123 30.4065212,62.4130982 30.4003394,62.481414 C30.4003394,62.4917649 30.3982788,62.5021158 30.3982788,62.5103965 C30.3900364,62.5787123 30.3838545,62.6449579 30.3776727,62.7132737 L30.3776727,62.7277649 C30.3735515,62.7298351 30.3735515,62.7339754 30.3735515,62.7381158 L30.3735515,62.7463965 C30.3673697,62.8147123 30.3611879,62.8850982 30.3570667,62.9492737 C30.3529455,62.9616947 30.3529455,62.9720456 30.3508848,62.9803263 C30.3467636,63.0527825 30.3426424,63.1190281 30.3344,63.189414 L30.3344,63.2059754 C30.3344,63.2101158 30.3323394,63.212186 30.3323394,63.2183965 C30.3261576,63.2867123 30.3220364,63.3550281 30.3137939,63.425414 L30.3137939,63.4316246 L30.3137939,63.4440456 C30.0871273,66.1828877 30.0335515,69.1018351 30.072703,71.8696596 L30.072703,71.8800105 C30.072703,71.9462561 30.0768242,72.0125018 30.0768242,72.0808175 L30.0768242,72.1160105 L30.0768242,72.1263614 C30.0768242,72.1967474 30.0809455,72.262993 30.0809455,72.3292386 C30.0809455,72.3437298 30.0809455,72.3561509 30.0830061,72.3706421 C30.0830061,72.4327474 30.0830061,72.4948526 30.0850667,72.5548877 C30.0850667,72.5714491 30.0850667,72.5880105 30.0871273,72.6066421 L30.0871273,72.6128526 C30.0871273,72.6728877 30.0685818,72.7370632 30.0706424,72.7991684 C30.0706424,72.8033088 30.0500364,72.8053789 30.0500364,72.8115895 C30.0500364,72.8260807 30.0706424,72.8405719 30.0706424,72.8571333 C30.072703,72.9150982 30.0850667,72.9772035 30.0850667,73.0351684 C30.0871273,73.0620807 30.0891879,73.0848526 30.0891879,73.1096947 C30.0912485,73.1655895 30.0953697,73.2235544 30.0974303,73.2794491 C30.0974303,73.2980807 30.0994909,73.3146421 30.0994909,73.3291333 C30.1015515,73.3912386 30.1036121,73.455414 30.1036121,73.5133789 C30.1056727,73.5320105 30.1056727,73.5506421 30.1077333,73.5692737 C30.1118545,73.7452386 30.1180364,73.9191333 30.1221576,74.0950982 C30.1242182,74.1385719 30.1262788,74.1841158 30.1262788,74.2275895 C30.1262788,74.2420807 30.1262788,74.2586421 30.1283394,74.2731333 C30.1386424,74.5857298 30.1489455,74.8900456 30.1613091,75.1943614 C30.1633697,75.2047123 30.1695515,75.2192035 30.1695515,75.2316246 C30.1695515,75.3040807 30.1777939,75.3723965 30.1777939,75.4427825 L30.1777939,75.4448526 C30.2251879,77.5543614 30.3632485,79.473414 30.4910061,81.0136246 C36.6398545,84.4128526 50.2542788,84.7544316 55.3996121,80.9328877 C55.4387636,80.3532386 55.4799758,79.7156246 55.5191273,79.036607 C55.6015515,77.6288877 55.6757333,76.0431333 55.7210667,74.3538702 L55.7210667,74.3331684 C55.7231273,74.3021158 55.7231273,74.2731333 55.7231273,74.2400105 C55.7251879,74.2068877 55.7293091,74.1758351 55.7293091,74.1406421 L55.7293091,74.1013088 C55.7293091,74.0640456 55.7313697,74.0247123 55.7334303,73.9853789 L55.7334303,73.914993 C55.7334303,73.8922211 55.7354909,73.8694491 55.7354909,73.844607 C55.7375515,73.7928526 55.7375515,73.7390281 55.7375515,73.6831333 C55.7396121,73.6582912 55.7396121,73.6334491 55.7396121,73.608607 C55.7416727,73.5506421 55.7416727,73.4926772 55.7457939,73.4285018 L55.7457939,73.3643263 C55.7457939,73.3167123 55.7457939,73.2690982 55.7499152,73.2214842 C55.7499152,73.1862912 55.7519758,73.1531684 55.7519758,73.1200456 L55.7519758,73.0434491 C55.7519758,73.0227474 55.7540364,73.0020456 55.7540364,72.983414 C55.7540364,72.9482211 55.7540364,72.9130281 55.756097,72.8778351 L55.756097,72.8074491 L55.756097,72.7432737 C55.7581576,72.7101509 55.7581576,72.6728877 55.7581576,72.6376947 C55.7581576,72.5983614 55.7602182,72.5569579 55.7602182,72.5196947 C55.7602182,72.4782912 55.7602182,72.4389579 55.7602182,72.3975544 L55.7602182,72.2774842 C55.7643394,72.2340105 55.7643394,72.192607 55.7643394,72.1470632 L55.7643394,72.0580456 L55.7643394,71.9110632 L55.7643394,71.8924316 C55.8076121,71.4701158 55.7231273,67.8576596 55.7231273,67.7810632 C55.7210667,67.7748526 55.7231273,67.7707123 55.7231273,67.7665719 C55.7210667,67.6941158 55.7210667,67.6237298 55.7190061,67.5492035 L55.7190061,67.5181509 C55.7148848,67.4498351 55.7148848,67.3794491 55.7128242,67.3132035 C55.708703,67.2987123 55.708703,67.2842211 55.708703,67.2718 C55.708703,67.2034842 55.7045818,67.1393088 55.7025212,67.0730632 C55.7004606,67.0544316 55.7004606,67.0378702 55.7004606,67.0254491 C55.6984,66.9592035 55.6963394,66.8970982 55.6942788,66.8308526 C55.6922182,66.8122211 55.6922182,66.7935895 55.6922182,66.7749579 C55.688097,66.716993 55.688097,66.6569579 55.6819152,66.5969228 L55.6819152,66.5865719 L55.6819152,66.5617298 C55.6819152,66.5534491 55.6798545,66.5410281 55.6798545,66.528607 C55.6777939,66.4727123 55.6757333,66.4147474 55.6736727,66.3547123 C55.6736727,66.3319404 55.6695515,66.3029579 55.6695515,66.2760456 C55.6674909,66.2222211 55.6654303,66.1663263 55.6613091,66.1125018 C55.6613091,66.0876596 55.6613091,66.0648877 55.6592485,66.0379754 C55.6571879,65.9820807 55.6530667,65.9220456 55.6489455,65.8661509 C55.6468848,65.8392386 55.6468848,65.8164667 55.6448242,65.7916246 C55.6427636,65.7336596 55.6386424,65.6777649 55.6365818,65.6218702 C55.6365818,65.6053088 55.6324606,65.5887474 55.6324606,65.5742561 L55.6324606,65.5576947 C55.6304,65.5514842 55.6304,65.549414 55.6304,65.5473439 C55.6283394,65.4893789 55.6242182,65.4334842 55.6221576,65.3775895 L55.6221576,65.3734491 C55.620097,65.3506772 55.620097,65.3279053 55.6180364,65.3030632 C55.6159758,65.2492386 55.6097939,65.1933439 55.6056727,65.1395193 L55.6056727,65.1353789 C55.6056727,65.1105368 55.6036121,65.0856947 55.6015515,65.0587825 C55.5994909,65.0028877 55.5953697,64.9490632 55.5912485,64.8952386 C55.5912485,64.8890281 55.5891879,64.8828175 55.5891879,64.8786772 C55.5891879,64.8600456 55.5871273,64.8393439 55.5871273,64.8186421 L55.5768242,64.6550982 C55.5747636,64.6488877 55.5747636,64.640607 55.5747636,64.6343965 C55.5747636,64.6219754 55.572703,64.6116246 55.572703,64.6012737 C55.572703,64.5950632 55.5706424,64.5847123 55.5706424,64.5764316 C55.5665212,64.522607 55.5644606,64.4646421 55.5603394,64.4108175 C55.5562182,64.3859754 55.5541576,64.3590632 55.552097,64.3362912 C55.5500364,64.2824667 55.5459152,64.2307123 55.5397333,64.1789579 L55.5397333,64.1479053 L55.5397333,64.1272035 C55.5356121,64.1168526 55.5356121,64.1065018 55.5356121,64.0961509 C55.5335515,64.0940807 55.5335515,64.0940807 55.5335515,64.0920105 C55.5314909,64.038186 55.5273697,63.9822912 55.5232485,63.9284667 C55.5191273,63.9077649 55.5170667,63.8870632 55.5150061,63.8642912 L55.5150061,63.8518702 C55.5108848,63.802186 55.5067636,63.7504316 55.5026424,63.6986772 C55.5005818,63.661414 55.4985212,63.6282912 55.4964606,63.5930982 C55.4923394,63.5454842 55.4882182,63.4978702 55.484097,63.4523263 C55.4799758,63.4233439 55.4779152,63.3964316 55.4758545,63.3674491 C55.4717333,63.3177649 55.4676121,63.2639404 55.4614303,63.2142561 L55.4552485,63.1418 C55.4511273,63.0879754 55.4428848,63.0341509 55.4387636,62.9803263 C55.436703,62.953414 55.4346424,62.9244316 55.4325818,62.8975193 C55.4264,62.8457649 55.4202182,62.7940105 55.416097,62.740186 C55.416097,62.7215544 55.4140364,62.704993 55.4140364,62.6863614 L55.4119758,62.6842912 C55.4119758,62.6780807 55.4119758,62.6698 55.4078545,62.6594491 C55.4037333,62.6076947 55.3996121,62.5580105 55.3954909,62.5062561 C55.3934303,62.4959053 55.3934303,62.4896947 55.3913697,62.4834842 C55.3913697,62.4731333 55.3913697,62.4648526 55.3872485,62.4545018 C55.3810667,62.3923965 55.3748848,62.3323614 55.3666424,62.2743965 C55.3666424,62.2619754 55.3666424,62.2516246 55.3645818,62.2412737 C55.3584,62.1729579 55.348097,62.1087825 55.3419152,62.0383965 C55.3377939,61.9949228 55.3295515,61.9473088 55.3274909,61.9017649 C54.2085818,59.7736246 52.6445818,56.1880807 52.3787636,52.4100105 C52.3787636,52.4100105 52.3725818,52.4079404 52.3684606,52.4058702" id="Fill-55" fill="#EEEEED"></path>
            <path d="M40.3227758,77.6280596 C39.0060485,77.5638842 37.7016848,77.4603754 36.3911394,77.325814 C36.4220485,77.0463404 36.4385333,76.9055684 36.4673818,76.6281649 C37.1247152,76.0733579 37.7738061,75.5040596 38.4064121,74.9182 C38.6887152,74.6490772 38.8885939,74.4151474 39.0101697,74.2205509 C39.1317455,74.0259544 39.1956242,73.8417088 39.2079879,73.6719544 C39.2244727,73.4525158 39.1791394,73.2724105 39.0761091,73.1295684 C38.9710182,72.9908667 38.8102909,72.9142702 38.5856848,72.8956386 C38.3507758,72.877007 38.1612,72.9453228 38.0190182,73.1026561 C37.8747758,73.2620596 37.7882303,73.4690772 37.763503,73.7278491 C37.3369576,73.690586 37.1205939,73.667814 36.6919879,73.6181298 C36.6899273,73.6119193 36.6899273,73.6077789 36.6858061,73.5974281 C36.7270182,73.1212877 36.9310182,72.7403754 37.2916242,72.4443404 C37.6522303,72.1483053 38.103503,72.0261649 38.6516242,72.0675684 C39.1997455,72.1110421 39.6159879,72.2766561 39.9044727,72.5768316 C40.1950182,72.8728667 40.3330788,73.2579193 40.3104121,73.7319895 C40.2959879,74.0528667 40.1950182,74.3426912 40.0054424,74.599393 C39.8117455,74.8560947 39.4861697,75.2080246 39.0122303,75.6448316 C38.6083515,76.0423053 38.4022909,76.2389719 37.9881091,76.6323053 C37.9901697,76.640586 37.9901697,76.6426561 37.9922303,76.6509368 C38.7814424,76.7192526 39.5706545,76.7668667 40.3598667,76.8020596 C40.3433818,77.1332877 40.3372,77.2989018 40.3227758,77.6280596" id="Fill-57" fill="#333433"></path>
            <path d="M43.7839758,74.150786 C43.7798545,73.8050667 43.7077333,73.5400842 43.5717333,73.3496281 C43.4377939,73.1612421 43.2523394,73.0701544 43.0153697,73.0701544 C42.7763394,73.0701544 42.5929455,73.1612421 42.4590061,73.3496281 C42.3250667,73.538014 42.2550061,73.8050667 42.2508848,74.150786 C42.2426424,74.8256632 42.2385212,75.1631018 42.2282182,75.8400491 C42.224097,76.1919789 42.2900364,76.4631719 42.428097,76.6536281 C42.564097,76.8440842 42.7660364,76.9413825 43.0236121,76.9413825 C43.2750061,76.9413825 43.4707636,76.8440842 43.6067636,76.6536281 C43.7448242,76.4631719 43.808703,76.1940491 43.8045818,75.8400491 C43.7963394,75.1631018 43.7922182,74.8256632 43.7839758,74.150786 M44.9420364,75.7158386 C44.9585212,76.3431018 44.7998545,76.842014 44.4474909,77.2125754 C44.0971879,77.5769263 43.6191273,77.7653123 43.0236121,77.7653123 C42.4198545,77.7653123 41.9376727,77.5748561 41.5873697,77.2105053 C41.2350061,76.842014 41.0722182,76.3431018 41.0907636,75.7116982 C41.1134303,75.1216982 41.1216727,74.823593 41.1422788,74.233593 C41.1628848,73.6063298 41.3462788,73.1198386 41.6904,72.7658386 C42.0283394,72.4118386 42.4693091,72.240014 43.0153697,72.240014 C43.5614303,72.240014 43.9982788,72.4118386 44.3424,72.7658386 C44.6844606,73.1219088 44.8719758,73.6084 44.8925818,74.2356632 C44.9111273,74.8256632 44.9193697,75.1216982 44.9420364,75.7158386" id="Fill-59" fill="#333433"></path>
            <path d="M49.7867273,77.3146351 C48.4761818,77.4512667 47.167697,77.5527053 45.8571515,77.6230912 C45.8427273,77.3415474 45.8365455,77.1987053 45.8241818,76.9192316 C46.3908485,76.2691965 46.9410303,75.6088105 47.4788485,74.9339333 C47.7158182,74.623407 47.8765455,74.3604947 47.9672121,74.1472667 C48.0599394,73.9361088 48.0970303,73.7456526 48.0826061,73.5758982 C48.062,73.3564596 47.9898788,73.1846351 47.8641818,73.0624947 C47.7446667,72.9403544 47.5715758,72.8886 47.3469697,72.9030912 C47.11,72.9258632 46.9348485,73.0210912 46.8153333,73.1991263 C46.6978788,73.3792316 46.6463636,73.5945298 46.6607879,73.8553719 C46.2342424,73.8822842 46.0178788,73.8947053 45.5872121,73.9133368 C45.5851515,73.9071263 45.5830909,73.9009158 45.5810303,73.8926351 C45.5439394,73.4164947 45.6881818,73.0066 45.9993333,72.6567404 C46.3104848,72.3110211 46.7390909,72.1205649 47.2851515,72.0791614 C47.8332727,72.0356877 48.2701212,72.1371263 48.6018788,72.3855474 C48.935697,72.6360386 49.1314545,72.9941789 49.1809091,73.4661789 C49.2138788,73.7870561 49.1561818,74.0872316 49.0078182,74.3708456 C48.8594545,74.6523895 48.5874545,75.0498632 48.1897576,75.554986 C47.8518182,76.0124947 47.6766667,76.2381439 47.3284242,76.6894421 C47.3304848,76.6977228 47.3325455,76.7018632 47.3366667,76.7080737 C48.1217576,76.6521789 48.9089091,76.5797228 49.6960606,76.4948456 C49.7331515,76.8219333 49.7496364,76.9854772 49.7867273,77.3146351" id="Fill-61" fill="#333433"></path>
        </g>
        <g id="Page-1" transform="translate(59.000000, 31.000000)">
            <path d="M4,3 C4,4.65687852 3.10453816,6 1.99983098,6 C0.895123806,6 0,4.65687852 0,3 C0,1.34312148 0.895123806,0 1.99983098,0 C3.10453816,0 4,1.34312148 4,3" id="Fill-5" fill="#6172BB"></path>
            <path d="M22,3 C22,4.65687852 21.1048762,6 20.000169,6 C18.8951238,6 18,4.65687852 18,3 C18,1.34312148 18.8951238,0 20.000169,0 C21.1048762,0 22,1.34312148 22,3" id="Fill-7" fill="#6172BB"></path>
            <path d="M11.0197368,6.0692 C11.8586316,5.95528889 13.9802632,7.82626667 13.9802632,7.82626667 C13.9802632,7.82626667 14.0825789,7.41168889 13.6396842,6.5884 C13.1626842,5.70253333 10.9903684,5 10.9903684,5 C10.9903684,5 9.30263158,5.44782222 8.50305263,6.60404444 C8.207,6.89395556 8,7.90253333 8,7.90253333 C8,7.90253333 9.89473684,6.22173333 11.0197368,6.0692 Z" id="Fill-9" fill="#EEAC6C"></path>
            <g id="Group-13" transform="translate(4.000000, 9.000000)">
                <mask id="mask-2" fill="white">
                    <use xlink:href="#path-1"></use>
                </mask>
                <g id="Clip-12"></g>
                <path d="M0.199373684,0.696031111 C0.199373684,0.696031111 7.09763684,3.90412 13.3734789,0.299053333 C13.3734789,0.299053333 11.9822684,5.76825333 7.42305789,5.86016444 C3.30768947,5.98238667 2.43942632,4.36807556 1.94632105,3.90412 C1.45274211,3.44114222 0.524794737,2.13238667 0.199373684,0.696031111" id="Fill-11" fill="#EEAC6C" mask="url(#mask-2)"></path>
            </g>
        </g>
    </g>
</svg>