<?xml version="1.0" encoding="UTF-8"?>
<svg width="120px" height="120px" viewBox="0 0 120 120" version="1.1" xmlns="http://www.w3.org/2000/svg" xmlns:xlink="http://www.w3.org/1999/xlink">
    <!-- Generator: Sketch 51.1 (57501) - http://www.bohemiancoding.com/sketch -->
    <title>Peasant</title>
    <desc>Created with Sketch.</desc>
    <defs>
        <polygon id="path-1" points="0.199373684 0.299053333 13.3734789 0.299053333 13.3734789 5.86666667 0.199373684 5.86666667"></polygon>
    </defs>
    <g id="Peasant" stroke="none" stroke-width="1" fill="none" fill-rule="evenodd">
        <g id="Group-123" transform="translate(21.000000, 1.000000)">
            <path d="M52.2418703,112.526737 L52.256627,112.526737 L53.2242486,101.850947 L43.0273297,101.850947 L43.3308973,112.526737 L43.324573,112.526737 C43.2655459,112.764632 43.3435459,113.015158 43.5079784,113.267789 C44.0392216,114.076211 44.9499243,114.676211 45.7404649,115.219368 C46.9505189,116.044632 48.4767892,116.497263 49.8154378,117.133053 C51.0254919,117.640421 52.6171135,118.592 53.6964649,117.383579 C55.1363027,115.663579 53.9178162,113.556211 52.2418703,112.526737" id="Fill-218" fill="#814915"></path>
            <path d="M42.1172595,112.526737 L42.4145027,101.850947 L32.2007189,101.850947 L33.1809892,112.526737 C31.5113676,113.562526 30.2970973,115.663579 31.7242865,117.383579 C32.8078541,118.592 34.4058,117.640421 35.6158541,117.133053 C36.9545027,116.497263 38.4849892,116.044632 39.6992595,115.219368 C40.4792595,114.676211 41.3962865,114.076211 41.9254216,113.267789 C42.0856378,113.015158 42.1615297,112.758316 42.1067189,112.526737 L42.1172595,112.526737 Z" id="Fill-219" fill="#814915"></path>
            <path d="M13.0485568,48.0037895 C14.1616378,47.528 15.4939622,47.9658947 16.5859622,49.0101053 C17.0645027,48.2711579 17.6526649,47.8585263 18.1881243,47.9595789 C19.2000162,48.1595789 19.6680162,50.0774737 19.2442865,52.2501053 C19.0882865,53.0816842 18.8184486,53.8311579 18.4916919,54.4248421 C18.4474216,54.6964211 18.3799622,54.9595789 18.2977459,55.1974737 L23.4035838,61.1848421 L34.2371514,57.3111579 C34.2371514,57.3111579 32.3946649,60.2332632 31.9435297,61.2922105 C31.6104486,62.0732632 30.9632595,64.528 30.9632595,64.528 C30.9632595,64.528 23.0578541,67.7385263 20.8063946,66.9258947 C18.0321243,65.9258947 14.8488811,56.8943158 14.8488811,56.8943158 L14.8488811,56.888 C13.6535838,56.4690526 12.5004486,55.3258947 11.8385027,53.7553684 C10.7928811,51.2964211 11.336773,48.7258947 13.0485568,48.0037895" id="Fill-220" fill="#FDDFBB"></path>
            <path d="M59.0316649,62.5597895 C62.4320432,66.9008421 63.7411784,79.9703158 63.7411784,79.9703158 C63.7411784,79.9703158 63.7411784,79.9513684 63.7327459,79.9134737 C64.1712324,80.5492632 64.4790162,81.3682105 64.5780973,82.2861053 C64.8099892,84.4734737 63.7580432,86.3766316 62.2380973,86.5387368 C61.2472865,86.6397895 60.2965297,85.9766316 59.6893946,84.8966316 C59.1223135,85.3597895 58.565773,85.5471579 58.1694486,85.3345263 C57.4210703,84.9429474 57.5117189,83.3071579 58.3633946,81.6945263 C58.6901514,81.0755789 59.0801514,80.5555789 59.4806919,80.164 C59.5186378,80.0966316 59.5460432,80.0334737 59.5839892,79.9703158 C59.5839892,79.9703158 58.1062054,70.5282105 56.5272324,68.2987368 C55.7345838,67.1766316 55.2265297,66.5513684 55.0452324,66.0524211 C54.8955568,65.6545263 54.743773,64.8945263 54.6805297,64.6061053 C54.1703676,62.3661053 51.3939892,57.3113684 51.3939892,57.3113684 C51.3939892,57.3113684 57.3683676,60.4418947 59.0316649,62.5597895" id="Fill-221" fill="#FDDFBB"></path>
            <path d="M24.8242378,60.3722105 C24.8242378,60.3722105 27.0630486,59.3301053 34.7007243,57.0606316 C36.8172649,56.0522105 41.1009405,55.8458947 41.1009405,55.8458947 L42.7305081,55.9364211 L42.8675351,55.9364211 L44.4949946,55.8774737 C44.4949946,55.8774737 49.3478595,56.0522105 51.2767784,57.2353684 C58.7668865,60.1153684 60.9635351,64.8037895 60.9635351,64.8037895 C60.1919676,67.8290526 55.8893189,67.8290526 55.8893189,67.8290526 L55.461373,67.248 C57.333373,76.4522105 57.5694811,88.2101053 57.5694811,88.2101053 L44.7226703,88.2101053 L42.8338054,85.8437895 L40.9575892,88.2101053 L28.0285622,88.2101053 C28.0285622,88.2101053 28.3110486,74.0458947 30.7332649,64.6543158 L26.0975351,66.4753684 C26.0975351,66.4753684 24.0484541,62.9216842 24.8242378,60.3722105" id="Fill-222" fill="#E63744"></path>
            <path d="M29.0328649,64.3669474 L31.5267568,64.3669474 L31.5267568,62.0574737 L29.0328649,62.0574737 L29.0328649,64.3669474 Z M29.0307568,78.9837895 L31.5246486,78.9837895 L31.5246486,76.4974737 L29.0307568,76.4974737 L29.0307568,78.9837895 Z M29.0328649,83.7206316 L31.5267568,83.7206316 L31.5267568,81.4111579 L29.0328649,81.4111579 L29.0328649,83.7206316 Z M33.9552973,64.3669474 L36.2594595,64.3669474 L36.2594595,62.0574737 L33.9552973,62.0574737 L33.9552973,64.3669474 Z M33.9552973,69.2827368 L36.2594595,69.2827368 L36.2594595,66.7922105 L33.9552973,66.7922105 L33.9552973,69.2827368 Z M33.9552973,74.0722105 L36.2594595,74.0722105 L36.2594595,71.7037895 L33.9552973,71.7037895 L33.9552973,74.0722105 Z M33.9552973,78.9858947 L36.2594595,78.9858947 L36.2594595,76.4995789 L33.9552973,76.4995789 L33.9552973,78.9858947 Z M33.9552973,83.7206316 L36.2594595,83.7206316 L36.2594595,81.4111579 L33.9552973,81.4111579 L33.9552973,83.7206316 Z M38.6922162,59.6343158 L41.1818919,59.6343158 L41.1818919,57.1437895 L38.6922162,57.1437895 L38.6922162,59.6343158 Z M38.6922162,64.3669474 L41.1818919,64.3669474 L41.1818919,62.0574737 L38.6922162,62.0574737 L38.6922162,64.3669474 Z M38.6922162,69.2827368 L41.1818919,69.2827368 L41.1818919,66.7922105 L38.6922162,66.7922105 L38.6922162,69.2827368 Z M38.6922162,74.0722105 L41.1818919,74.0722105 L41.1818919,71.7037895 L38.6922162,71.7037895 L38.6922162,74.0722105 Z M38.6922162,78.9858947 L41.1818919,78.9858947 L41.1818919,76.4995789 L38.6922162,76.4995789 L38.6922162,78.9858947 Z M38.6922162,83.7206316 L41.1818919,83.7206316 L41.1818919,81.4111579 L38.6922162,81.4111579 L38.6922162,83.7206316 Z M43.6125405,59.6343158 L45.9841622,59.6343158 L45.9841622,57.1437895 L43.6125405,57.1437895 L43.6125405,59.6343158 Z M43.6125405,64.3669474 L45.9841622,64.3669474 L45.9841622,62.0574737 L43.6125405,62.0574737 L43.6125405,64.3669474 Z M43.6125405,69.2827368 L45.9841622,69.2827368 L45.9841622,66.7922105 L43.6125405,66.7922105 L43.6125405,69.2827368 Z M43.6125405,74.0722105 L45.9841622,74.0722105 L45.9841622,71.7037895 L43.6125405,71.7037895 L43.6125405,74.0722105 Z M43.6125405,78.9858947 L45.9841622,78.9858947 L45.9841622,76.4995789 L43.6125405,76.4995789 L43.6125405,78.9858947 Z M43.6125405,83.7206316 L45.9841622,83.7206316 L45.9841622,81.4111579 L43.6125405,81.4111579 L43.6125405,83.7206316 Z M48.4127027,59.6343158 L50.9044865,59.6343158 L50.9044865,57.1437895 L48.4127027,57.1437895 L48.4127027,59.6343158 Z M48.4127027,64.3669474 L50.9044865,64.3669474 L50.9044865,62.0574737 L48.4127027,62.0574737 L48.4127027,64.3669474 Z M48.4127027,69.2827368 L50.9044865,69.2827368 L50.9044865,66.7922105 L48.4127027,66.7922105 L48.4127027,69.2827368 Z M48.4127027,74.0722105 L50.9044865,74.0722105 L50.9044865,71.7037895 L48.4127027,71.7037895 L48.4127027,74.0722105 Z M48.4127027,78.9858947 L50.9044865,78.9858947 L50.9044865,76.4995789 L48.4127027,76.4995789 L48.4127027,78.9858947 Z M48.4127027,83.7206316 L50.9044865,83.7206316 L50.9044865,81.4111579 L48.4127027,81.4111579 L48.4127027,83.7206316 Z M53.333027,64.3669474 L55.6435135,64.3669474 L55.6435135,62.0574737 L53.333027,62.0574737 L53.333027,64.3669474 Z M53.333027,74.0722105 L55.6435135,74.0722105 L55.6435135,71.7037895 L53.333027,71.7037895 L53.333027,74.0722105 Z M53.333027,78.9858947 L55.6435135,78.9858947 L55.6435135,76.4995789 L53.333027,76.4995789 L53.333027,78.9858947 Z M53.333027,83.7206316 L55.6435135,83.7206316 L55.6435135,81.4111579 L53.333027,81.4111579 L53.333027,83.7206316 Z M24.8145405,60.3732632 C24.6543243,60.9058947 24.6142703,61.4532632 24.6585405,62.0574737 L26.6064324,62.0574737 L26.6064324,64.3669474 L25.1687027,64.3669474 C25.5818919,65.5837895 26.0962703,66.4764211 26.0962703,66.4764211 L30.732,64.6553684 C30.5507027,65.3437895 30.3862703,66.0658947 30.2302703,66.7922105 L31.5246486,66.7922105 L31.5246486,69.2827368 L29.7517297,69.2827368 C29.6104865,70.0743158 29.4818919,70.9185263 29.3701622,71.7037895 L31.5246486,71.7037895 L31.5246486,74.0722105 L29.0581622,74.0722105 C28.1643243,81.4111579 28.0272973,88.2090526 28.0272973,88.2090526 L29.0328649,88.2090526 L29.0328649,86.1458947 L31.5246486,86.1458947 L31.5246486,88.2090526 L33.9552973,88.2090526 L33.9552973,86.1458947 L36.2573514,86.1458947 L36.2573514,88.2090526 L38.6922162,88.2090526 L38.6922162,86.1458947 L41.1797838,86.1458947 L41.1797838,87.9122105 L42.8304324,85.8427368 L43.6125405,86.8322105 L43.6125405,86.1458947 L45.9841622,86.1458947 L45.9841622,88.2090526 L48.4127027,88.2090526 L48.4127027,86.1458947 L50.9044865,86.1458947 L50.9044865,88.2090526 L53.333027,88.2090526 L53.333027,86.1458947 L55.6435135,86.1458947 L55.6435135,88.2090526 L57.5703243,88.2090526 C57.5703243,88.2090526 57.3447568,77.2364211 55.6435135,68.1922105 L55.6435135,69.2827368 L53.333027,69.2827368 L53.333027,66.7922105 L55.6435135,66.7922105 L55.6435135,67.508 L55.8775135,67.828 C55.8775135,67.828 56.9189189,67.828 58.0699459,67.468 L58.0699459,66.7922105 L59.5203243,66.7922105 C60.1759459,66.348 60.7240541,65.7122105 60.9580541,64.8048421 C60.9580541,64.8048421 60.8674054,64.5543158 60.5680541,64.1374737 L60.5680541,64.3669474 L58.0699459,64.3669474 L58.0699459,62.0574737 L58.8878919,62.0574737 C58.0931351,61.2427368 57.0348649,60.3290526 55.6435135,59.4322105 L55.6435135,59.6343158 L53.333027,59.6343158 L53.333027,58.1332632 C52.728,57.8195789 52.0133514,57.5185263 51.2755135,57.2343158 C49.3465946,56.0532632 44.4958378,55.8785263 44.4958378,55.8785263 L42.8662703,55.9353684 L42.7313514,55.9353684 L41.0996757,55.8448421 C41.0996757,55.8448421 36.8181081,56.0532632 34.6994595,57.0595789 C34.6024865,57.0911579 34.5076216,57.1437895 34.416973,57.1437895 L36.2573514,57.1437895 L36.2573514,59.6343158 L33.9552973,59.6343158 L33.9552973,57.2785263 C33.0994054,57.5501053 32.2519459,57.7964211 31.5246486,58.0258947 L31.5246486,59.6343158 L29.0328649,59.6343158 L29.0328649,58.828 C25.8749189,59.8764211 24.8145405,60.3732632 24.8145405,60.3732632 Z" id="Fill-223" fill="#BA3B4B"></path>
            <polygon id="Fill-224" fill="#9B1826" points="50.9044865 62.0574737 53.333027 62.0574737 53.333027 59.6343158 50.9044865 59.6343158"></polygon>
            <path d="M55.6428811,59.6341053 L55.952773,59.6341053 C56.7791514,60.1856842 57.4621784,60.7456842 58.0693135,61.2867368 L58.0693135,62.0572632 L55.6428811,62.0572632 L55.6428811,59.6341053 Z" id="Fill-225" fill="#9B1826"></path>
            <polygon id="Fill-226" fill="#9B1826" points="55.6435135 66.7922105 58.0699459 66.7922105 58.0699459 64.3669474 55.6435135 64.3669474"></polygon>
            <polygon id="Fill-227" fill="#9B1826" points="50.9044865 66.7922105 53.333027 66.7922105 53.333027 64.3669474 50.9044865 64.3669474"></polygon>
            <polygon id="Fill-228" fill="#9B1826" points="45.9841622 62.0574737 48.4127027 62.0574737 48.4127027 59.6343158 45.9841622 59.6343158"></polygon>
            <polygon id="Fill-229" fill="#9B1826" points="45.9841622 66.7922105 48.4127027 66.7922105 48.4127027 64.3669474 45.9841622 64.3669474"></polygon>
            <polygon id="Fill-230" fill="#9B1826" points="41.1797838 66.7922105 43.6104324 66.7922105 43.6104324 64.3669474 41.1797838 64.3669474"></polygon>
            <polygon id="Fill-231" fill="#9B1826" points="36.2573514 62.0574737 38.6901081 62.0574737 38.6901081 59.6343158 36.2573514 59.6343158"></polygon>
            <polygon id="Fill-232" fill="#9B1826" points="36.2573514 66.7922105 38.6901081 66.7922105 38.6901081 64.3669474 36.2573514 64.3669474"></polygon>
            <polygon id="Fill-233" fill="#9B1826" points="31.5246486 62.0574737 33.9531892 62.0574737 33.9531892 59.6343158 31.5246486 59.6343158"></polygon>
            <polygon id="Fill-234" fill="#9B1826" points="31.5246486 66.7922105 33.9531892 66.7922105 33.9531892 64.3669474 31.5246486 64.3669474"></polygon>
            <path d="M26.7141568,59.6341053 L29.0330757,59.6341053 L29.0330757,62.0572632 L26.6066432,62.0572632 L26.6066432,59.6741053 C26.6656703,59.6614737 26.6762108,59.6341053 26.7141568,59.6341053" id="Fill-235" fill="#9B1826"></path>
            <polygon id="Fill-236" fill="#9B1826" points="29.0322324 65.3187368 26.6079081 66.2724211 26.6079081 64.3671579 29.0322324 64.3671579"></polygon>
            <path d="M36.2581946,56.5193684 C37.0529514,56.3214737 37.904627,56.172 38.6909514,56.0688421 L38.6909514,57.1446316 L36.2581946,57.1446316 L36.2581946,56.5193684 Z" id="Fill-237" fill="#9B1826"></path>
            <path d="M51.1302649,57.1444211 L50.9046973,57.1444211 L50.9046973,57.0349474 C50.9658324,57.0749474 51.0606973,57.1107368 51.1302649,57.1444211" id="Fill-238" fill="#9B1826"></path>
            <polygon id="Fill-239" fill="#9B1826" points="50.9044865 71.7037895 53.333027 71.7037895 53.333027 69.2827368 50.9044865 69.2827368"></polygon>
            <polygon id="Fill-240" fill="#9B1826" points="45.9841622 71.7037895 48.4127027 71.7037895 48.4127027 69.2827368 45.9841622 69.2827368"></polygon>
            <polygon id="Fill-241" fill="#9B1826" points="41.1797838 71.7037895 43.6104324 71.7037895 43.6104324 69.2827368 41.1797838 69.2827368"></polygon>
            <polygon id="Fill-242" fill="#9B1826" points="36.2573514 71.7037895 38.6901081 71.7037895 38.6901081 69.2827368 36.2573514 69.2827368"></polygon>
            <polygon id="Fill-243" fill="#9B1826" points="31.5246486 71.7037895 33.9531892 71.7037895 33.9531892 69.2827368 31.5246486 69.2827368"></polygon>
            <polygon id="Fill-244" fill="#9B1826" points="50.9044865 76.4995789 53.333027 76.4995789 53.333027 74.0743158 50.9044865 74.0743158"></polygon>
            <polygon id="Fill-245" fill="#9B1826" points="45.9841622 76.4995789 48.4127027 76.4995789 48.4127027 74.0743158 45.9841622 74.0743158"></polygon>
            <polygon id="Fill-246" fill="#9B1826" points="41.1797838 76.4995789 43.6104324 76.4995789 43.6104324 74.0743158 41.1797838 74.0743158"></polygon>
            <polygon id="Fill-247" fill="#9B1826" points="36.2573514 76.4995789 38.6901081 76.4995789 38.6901081 74.0743158 36.2573514 74.0743158"></polygon>
            <polygon id="Fill-248" fill="#9B1826" points="31.5246486 76.4995789 33.9531892 76.4995789 33.9531892 74.0743158 31.5246486 74.0743158"></polygon>
            <polygon id="Fill-249" fill="#9B1826" points="50.9044865 81.4111579 53.333027 81.4111579 53.333027 78.9858947 50.9044865 78.9858947"></polygon>
            <polygon id="Fill-250" fill="#9B1826" points="45.9841622 81.4111579 48.4127027 81.4111579 48.4127027 78.9858947 45.9841622 78.9858947"></polygon>
            <polygon id="Fill-251" fill="#9B1826" points="41.1797838 81.4111579 43.6104324 81.4111579 43.6104324 78.9858947 41.1797838 78.9858947"></polygon>
            <polygon id="Fill-252" fill="#9B1826" points="36.2573514 81.4111579 38.6901081 81.4111579 38.6901081 78.9858947 36.2573514 78.9858947"></polygon>
            <polygon id="Fill-253" fill="#9B1826" points="31.5246486 81.4111579 33.9531892 81.4111579 33.9531892 78.9858947 31.5246486 78.9858947"></polygon>
            <polygon id="Fill-254" fill="#9B1826" points="50.9044865 86.1458947 53.333027 86.1458947 53.333027 83.7206316 50.9044865 83.7206316"></polygon>
            <polygon id="Fill-255" fill="#9B1826" points="45.9841622 86.1458947 48.4127027 86.1458947 48.4127027 83.7206316 45.9841622 83.7206316"></polygon>
            <polygon id="Fill-256" fill="#9B1826" points="41.180627 83.7193684 43.6112757 83.7193684 43.6112757 86.1446316 43.0737081 86.1446316 42.8333838 85.8435789 42.5951676 86.1446316 41.180627 86.1446316"></polygon>
            <polygon id="Fill-257" fill="#9B1826" points="36.2573514 86.1458947 38.6901081 86.1458947 38.6901081 83.7206316 36.2573514 83.7206316"></polygon>
            <polygon id="Fill-258" fill="#9B1826" points="31.5246486 86.1458947 33.9531892 86.1458947 33.9531892 83.7206316 31.5246486 83.7206316"></polygon>
            <path d="M55.6428811,69.2825263 L55.8494757,69.2825263 C55.9843946,70.0783158 56.1066649,70.8972632 56.226827,71.7035789 L55.6428811,71.7035789 L55.6428811,69.2825263 Z" id="Fill-259" fill="#9B1826"></path>
            <path d="M55.6428811,74.0728421 L56.5451514,74.0728421 C56.6442324,74.8896842 56.7306649,75.6981053 56.8170973,76.4981053 L55.6428811,76.4981053 L55.6428811,74.0728421 Z" id="Fill-260" fill="#9B1826"></path>
            <path d="M55.6428811,78.9844211 L57.0468811,78.9844211 C57.1164486,79.8286316 57.1754757,80.6454737 57.2345027,81.4096842 L55.6428811,81.4096842 L55.6428811,78.9844211 Z" id="Fill-261" fill="#9B1826"></path>
            <path d="M55.6428811,83.7193684 L57.3841784,83.7193684 C57.434773,84.6456842 57.474827,85.4688421 57.4959081,86.1446316 L55.6428811,86.1446316 L55.6428811,83.7193684 Z" id="Fill-262" fill="#9B1826"></path>
            <path d="M29.0322324,74.1694737 L29.0322324,76.4978947 L28.7855838,76.4978947 C28.8656919,75.7126316 28.9689892,74.9547368 29.0322324,74.1694737" id="Fill-263" fill="#9B1826"></path>
            <path d="M28.3631189,81.4105263 C28.4116054,80.6252632 28.4769568,79.8357895 28.5507405,78.9852632 L29.0313892,78.9852632 L29.0313892,81.4105263 L28.3631189,81.4105263 Z" id="Fill-264" fill="#9B1826"></path>
            <path d="M28.0913838,86.1452632 C28.1272216,85.4757895 28.1630595,84.6273684 28.2136541,83.72 L29.0316,83.72 L29.0316,86.1452632 L28.0913838,86.1452632 Z" id="Fill-265" fill="#9B1826"></path>
            <polygon id="Fill-266" fill="#9B1826" points="42.7760432 61.0157895 43.6108541 59.8326316 43.6108541 62.0578947 41.1802054 62.0578947 41.1802054 59.6347368 41.7704757 59.6347368"></polygon>
            <path d="M46.3191405,56.0115789 C46.951573,56.0747368 47.6830865,56.1715789 48.4124919,56.3105263 L48.4124919,57.1442105 L45.9839514,57.1442105 L45.9839514,56.4831579 L46.3191405,56.0115789 Z" id="Fill-267" fill="#9B1826"></path>
            <path d="M42.7884811,61.0157895 L39.1161568,56.02 C40.2439946,55.8831579 41.0998865,55.8452632 41.0998865,55.8452632 L42.7315622,55.9357895 L42.8664811,55.9357895 L44.4960486,55.8789474 C44.4960486,55.8789474 45.2760486,55.9042105 46.3258865,56.0115789 L42.7884811,61.0157895 Z" id="Fill-268" fill="#FDDFBB"></path>
            <path d="M55.9127189,68.1107368 C54.6520703,66.8496842 54.9999081,65.3275789 55.5163946,64.6454737 C56.3027189,63.5949474 58.7860703,62.8749474 60.0762324,63.1465263 C60.9215838,63.3254737 62.1421784,65.0623158 61.6762865,66.2307368 C61.1555838,67.5570526 56.9203946,69.1128421 55.9127189,68.1107368" id="Fill-269" fill="#9B1826"></path>
            <path d="M22.8499946,61.4597895 C23.8576703,59.8008421 25.2384811,59.4597895 25.9805351,59.9250526 C27.2833459,60.7397895 28.4027514,64.264 27.9790216,65.744 C27.7302649,66.5987368 25.8203189,67.4976842 24.6439946,67.0366316 C23.3222108,66.5145263 22.1100486,62.6703158 22.8499946,61.4597895" id="Fill-270" fill="#9B1826"></path>
            <polygon id="Fill-271" fill="#343434" points="42.6428108 85.8427368 43.0117297 85.8427368 43.0117297 61.0301053 42.6428108 61.0301053"></polygon>
            <path d="M43.395827,64.2846316 C43.395827,64.5077895 43.5750162,64.6888421 43.7921514,64.6888421 C44.0282595,64.6888421 44.2053405,64.5077895 44.2053405,64.2846316 C44.2053405,64.0614737 44.0282595,63.8804211 43.7921514,63.8804211 C43.5750162,63.8804211 43.395827,64.0614737 43.395827,64.2846316" id="Fill-272" fill="#FDDFBB"></path>
            <path d="M43.395827,68.4128421 C43.395827,68.636 43.5750162,68.8170526 43.7921514,68.8170526 C44.0282595,68.8170526 44.2053405,68.636 44.2053405,68.4128421 C44.2053405,68.1875789 44.0282595,68.0065263 43.7921514,68.0065263 C43.5750162,68.0065263 43.395827,68.1875789 43.395827,68.4128421" id="Fill-273" fill="#FDDFBB"></path>
            <path d="M43.395827,72.052 C43.395827,72.2709474 43.5750162,72.4583158 43.7921514,72.4583158 C44.0282595,72.4583158 44.2053405,72.2709474 44.2053405,72.052 C44.2053405,71.8288421 44.0282595,71.6477895 43.7921514,71.6477895 C43.5750162,71.6477895 43.395827,71.8288421 43.395827,72.052" id="Fill-274" fill="#FDDFBB"></path>
            <path d="M43.395827,76.1185263 C43.395827,76.3374737 43.5750162,76.5206316 43.7921514,76.5206316 C44.0282595,76.5206316 44.2053405,76.3374737 44.2053405,76.1185263 C44.2053405,75.8953684 44.0282595,75.7143158 43.7921514,75.7143158 C43.5750162,75.7143158 43.395827,75.8953684 43.395827,76.1185263" id="Fill-275" fill="#FDDFBB"></path>
            <path d="M43.395827,79.8170526 C43.395827,80.0402105 43.5750162,80.2191579 43.7921514,80.2191579 C44.0282595,80.2191579 44.2053405,80.0402105 44.2053405,79.8170526 C44.2053405,79.5896842 44.0282595,79.4128421 43.7921514,79.4128421 C43.5750162,79.4128421 43.395827,79.5896842 43.395827,79.8170526" id="Fill-276" fill="#FDDFBB"></path>
            <path d="M57.2549514,81.7065263 C52.256627,77.7065263 50.1295459,69.1991579 50.1295459,69.1991579 L50.1295459,56.7402105 C49.4127892,56.5023158 48.5526811,56.3254737 47.7621405,56.2054737 L47.7621405,69.2075789 L37.8034378,69.2075789 L37.8034378,56.2244211 C36.9538703,56.3591579 36.1612216,56.5402105 35.4339243,56.7844211 L35.4339243,69.2075789 C35.4339243,69.2075789 33.3216,77.7065263 28.3296,81.7065263 C28.0724108,85.4896842 28.0154919,88.1570526 28.0154919,88.1570526 C28.0154919,92.0054737 32.1895459,101.849684 32.1895459,101.849684 L42.428627,101.837053 L42.5719784,94.8707368 L42.8418162,94.8707368 L42.9809514,101.837053 L53.2242486,101.843368 C53.2242486,101.843368 57.5627351,91.9844211 57.5627351,88.1528421 C57.5627351,88.1528421 57.5121405,85.4896842 57.2549514,81.7065263" id="Fill-277" fill="#0771B7"></path>
            <path d="M56.0712486,87.7282105 C56.1070865,87.7282105 56.1344919,87.7008421 56.1344919,87.6650526 C56.1344919,87.6292632 56.1070865,87.604 56.0712486,87.604 C53.1599514,87.604 49.5213568,86.4671579 48.1932486,84.2861053 C48.1742757,84.2608421 48.1342216,84.2545263 48.1089243,84.2650526 C48.083627,84.2861053 48.0709784,84.324 48.0920595,84.3513684 C49.4349243,86.5682105 53.1241135,87.7282105 56.0712486,87.7282105" id="Fill-278" fill="#0B4768"></path>
            <path d="M29.3697405,87.7282105 C29.3360108,87.7282105 29.3107135,87.7008421 29.3107135,87.6650526 C29.3107135,87.6292632 29.3360108,87.604 29.3697405,87.604 C32.2768216,87.604 35.9238486,86.4671579 37.2498486,84.2861053 C37.2624973,84.2608421 37.3025514,84.2545263 37.3278486,84.2650526 C37.3594703,84.2861053 37.3657946,84.324 37.3531459,84.3513684 C36.0018486,86.5682105 32.3168757,87.7282105 29.3697405,87.7282105" id="Fill-279" fill="#0B4768"></path>
            <path d="M47.7621405,74.0606316 L47.7621405,78.9743158 C47.7621405,81.6564211 45.5928973,83.8290526 42.9029514,83.8290526 L42.6605189,83.8290526 C39.9832216,83.8290526 37.8034378,81.6564211 37.8034378,78.9743158 L37.8034378,74.0606316 L47.7621405,74.0606316 Z" id="Fill-280" fill="#0C6084"></path>
            <path d="M43.949627,59.3688421 C43.949627,59.3688421 45.0036811,60.1856842 44.7970865,61.0151579 C44.5968162,61.8467368 48.5727081,56.1562105 48.4567622,55.8446316 C48.3260595,55.5309474 47.1370865,54.4614737 47.1370865,54.4614737 L43.949627,59.3688421 Z" id="Fill-281" fill="#9B1826"></path>
            <path d="M41.5902324,59.3688421 C41.5902324,59.3688421 40.5446108,60.1856842 40.742773,61.0151579 C40.9472595,61.8467368 36.9671514,56.1562105 37.0873135,55.8446316 C37.2116919,55.5309474 38.402773,54.4614737 38.402773,54.4614737 L41.5902324,59.3688421 Z" id="Fill-282" fill="#9B1826"></path>
            <path d="M63.7582541,36.8071579 C63.9184703,35.7650526 64.0027946,34.704 64.0027946,33.624 C64.0027946,21.9376842 54.5099838,12.4597895 42.8078757,12.4597895 C31.1078757,12.4597895 21.6129568,21.9376842 21.6129568,33.624 C21.6129568,34.6534737 21.6909568,35.6682105 21.8322,36.6618947 C20.6073892,37.3292632 19.785227,38.5903158 19.785227,40.0429474 C19.785227,42.184 21.6003081,43.9271579 23.8285784,43.9271579 C23.9845784,43.9271579 24.1321459,43.9208421 24.2797135,43.9018947 C27.897227,50.3987368 34.8413351,54.7924211 42.8078757,54.7924211 C50.7680919,54.7924211 57.7058757,50.4050526 61.3254973,43.9208421 C61.3908486,43.9271579 61.4540919,43.9271579 61.5194432,43.9271579 C63.7519297,43.9271579 65.5606865,42.184 65.5606865,40.0429474 C65.5606865,38.6934737 64.8460378,37.5018947 63.7582541,36.8071579" id="Fill-283" fill="#FDDFBB"></path>
            <g id="Page-1" transform="translate(30.000000, 30.000000)">
                <path d="M7.95040963,1.55163466 C7.95040963,1.55163466 7.46918697,3.24689418 5.95845596,2.91133576 C5.22030934,2.74769358 5.09026141,1.78146919 2.71994529,2.21493713 C1.97454861,2.38455501 0.407629637,3.30205447 0.105845937,3.91479334 C-0.196390892,4.52799188 0.0224702598,1.66655193 2.4562244,0.603337373 C4.21209803,-0.0310059413 4.80705598,0.000251555378 6.26069279,0.000251555378 C7.71432959,0.000251555378 8.16202073,0.852937677 7.95040963,1.55163466" id="Fill-1" fill="#2C2C2D"></path>
                <path d="M18.0495904,1.55163466 C18.0495904,1.55163466 18.530813,3.24689418 20.041544,2.91133576 C20.7796907,2.74769358 20.9097386,1.78146919 23.2800547,2.21493713 C24.0254514,2.38455501 25.5923704,3.30205447 25.8941541,3.91479334 C26.1963909,4.52799188 25.9775297,1.66655193 23.5437756,0.603337373 C21.787902,-0.0310059413 21.192944,0.000251555378 19.7393072,0.000251555378 C18.2856704,0.000251555378 17.8379793,0.852937677 18.0495904,1.55163466" id="Fill-3" fill="#2C2C2D"></path>
                <path d="M6,9 C6,10.6568785 5.10453816,12 3.99983098,12 C2.89512381,12 2,10.6568785 2,9 C2,7.34312148 2.89512381,6 3.99983098,6 C5.10453816,6 6,7.34312148 6,9" id="Fill-5" fill="#2C2C2D"></path>
                <path d="M24,9 C24,10.6568785 23.1048762,12 22.000169,12 C20.8951238,12 20,10.6568785 20,9 C20,7.34312148 20.8951238,6 22.000169,6 C23.1048762,6 24,7.34312148 24,9" id="Fill-7" fill="#2C2C2D"></path>
                <path d="M13.0245351,10.1051036 C13.8647628,9.98736736 15.9897656,11.9211723 15.9897656,11.9211723 C15.9897656,11.9211723 16.092244,11.4926731 15.6486455,10.6417383 C15.1708875,9.72612431 12.99512,9 12.99512,9 C12.99512,9 11.3047014,9.46286003 10.503852,10.657908 C10.2073289,10.9575543 10,12 10,12 C10,12 11.8977475,10.262759 13.0245351,10.1051036 Z" id="Fill-9" fill="#E2A86E"></path>
                <g id="Group-13" transform="translate(6.000000, 14.000000)">
                    <mask id="mask-2" fill="white">
                        <use xlink:href="#path-1"></use>
                    </mask>
                    <g id="Clip-12"></g>
                    <path d="M0.199373684,0.696031111 C0.199373684,0.696031111 7.09763684,3.90412 13.3734789,0.299053333 C13.3734789,0.299053333 11.9822684,5.76825333 7.42305789,5.86016444 C3.30768947,5.98238667 2.43942632,4.36807556 1.94632105,3.90412 C1.45274211,3.44114222 0.524794737,2.13238667 0.199373684,0.696031111" id="Fill-11" fill="#E2A86E" mask="url(#mask-2)"></path>
                </g>
            </g>
            <path d="M64.8411892,30.8656842 C64.8285405,29.7604211 64.7505405,28.4151579 64.5882162,26.9751579 C61.7401622,17.6677895 53.0695135,10.8888421 42.8135676,10.8888421 C33.8836216,10.8888421 26.1552973,16.0277895 22.4260541,23.5014737 C21.3951892,26.4404211 20.7627568,29.3288421 20.7121622,30.6341053 C20.5266486,35.1541053 23.8279459,41.9330526 23.8279459,41.9330526 C23.4316216,34.4867368 23.5180541,34.4993684 25.3183784,33.2130526 C27.5550811,31.6067368 32.2645946,28.6130526 34.0838919,26.5477895 C34.4275135,26.1583158 35.1442703,24.7435789 35.1442703,24.7435789 C35.1442703,24.7435789 35.0747027,25.8488421 35.6987027,26.3456842 C39.4469189,29.2972632 50.5102703,26.0088421 54.7011892,28.2909474 C58.1416216,30.1562105 62.303027,41.9330526 62.303027,41.9330526 C64.0042703,38.7288421 64.8749189,33.3541053 64.8411892,30.8656842" id="Fill-292" fill="#333433"></path>
            <path d="M41.1517459,57.2143158 L44.6174757,57.2143158 C45.6125027,57.2143158 46.4072595,55.0922105 46.4072595,54.1216842 L39.3619622,54.1216842 C39.3619622,55.0922105 40.1693676,57.2143158 41.1517459,57.2143158" id="Fill-293" fill="#FDDFBB"></path>
            <path d="M40.1223568,56.5606316 L46.3834378,54.5016842 L46.3960865,54.4890526 C45.2387351,54.6806316 44.0392216,54.7922105 42.8123027,54.7922105 C41.6444108,54.7922105 40.4954919,54.6953684 39.3760865,54.508 C39.4477622,55.1185263 39.7260324,55.9564211 40.1223568,56.5606316" id="Fill-294" fill="#EEAC6C"></path>
            <path d="M77.3745243,20.6147368 C77.3745243,24.2084211 61.8525243,27.1221053 42.7024703,27.1221053 C23.5545243,27.1221053 8.03252432,24.2084211 8.03252432,20.6147368 C8.03252432,17.0189474 23.5545243,14.0989474 42.7024703,14.0989474 C61.8525243,14.0989474 77.3745243,17.0189474 77.3745243,20.6147368" id="Fill-295" fill="#F7B90B"></path>
            <path d="M52.9501946,2.2 C52.9501946,3.32421053 48.7339784,6.23789474 43.5248432,6.23789474 C38.3072757,6.23789474 34.0889514,3.32421053 34.0889514,2.2 C34.0889514,1.08 38.3072757,0.475789474 43.5248432,0.475789474 C48.7339784,0.475789474 52.9501946,1.08 52.9501946,2.2" id="Fill-296" fill="#D29B0D"></path>
            <path d="M60.2090432,17.6111579 C57.240827,21.2827368 29.5339622,20.9627368 26.1841784,17.628 L34.0874757,2.17536842 C35.5252054,2.83642105 37.0114216,3.08905263 38.2278,3.75010526 C43.4474757,6.57957895 43.4474757,6.57957895 48.1843946,3.93747368 C49.5757459,3.15852632 51.3107189,2.95010526 52.9782324,2.17536842 L60.2090432,17.6111579 Z" id="Fill-297" fill="#F7B90B"></path>
            <path d="M60.2090432,17.6111579 L58.2653676,13.4532632 C46.8520703,16.0406316 39.7098,16.0406316 28.3239081,13.4532632 L26.1841784,17.628 C29.5339622,20.9627368 57.240827,21.2827368 60.2090432,17.6111579" id="Fill-298" fill="#E63744"></path>
            <path d="M30.1541676,117.352 C29.9855189,117.688842 28.9862757,117.876211 28.6742757,117.672 L12.6863838,44.5330526 L14.1683838,44.2109474 L30.1541676,117.352 Z" id="Fill-299" fill="#AD7144"></path>
            <polygon id="Fill-300" fill="#D0D0D0" points="15.2759838 47.5658947 13.0856595 48.0501053 11.9409568 43.9469474 14.6077135 43.3701053"></polygon>
            <path d="M16.7952973,20.9088421 C16.7952973,20.9088421 19.6032973,37.4562105 19.1331892,37.7256842 C18.5070811,38.0814737 17.0419459,38.4751579 16.3336216,38.332 C15.8171351,38.2288421 11.9867027,21.9572632 11.9867027,21.9572632 C11.6620541,21.7067368 11.1919459,21.8330526 10.9727027,22.1762105 C10.9727027,22.1762105 14.2023243,38.6351579 13.8481622,38.8793684 C13.1883243,39.3341053 11.4807568,39.7467368 10.6965405,39.5593684 C10.2074595,39.452 6.34962162,23.1867368 6.34962162,23.1867368 C6.02918919,22.9362105 5.55908108,23.0625263 5.33562162,23.4098947 C5.33562162,23.4098947 8.39237838,39.7025263 8.21108108,40.1088421 C7.94756757,40.7067368 6.29691892,40.7888421 5.65394595,40.6604211 C5.12691892,40.5572632 0.765243243,24.3993684 0.765243243,24.3993684 C0.444810811,24.1488421 0.219243243,24.2288421 0,24.5762105 C0,24.5762105 2.83540541,44.4014737 4.57881081,45.5551579 C10.1631892,45.7762105 18.0601622,44.4435789 22.1477838,41.7298947 C22.991027,39.4077895 17.5605405,20.7425263 17.5605405,20.7425263 C17.2063784,20.5235789 16.9765946,20.5509474 16.7952973,20.9088421" id="Fill-301" fill="#D0D0D0"></path>
            <path d="M19.3275568,51.9593684 C19.019773,54.0372632 17.9889081,55.6077895 17.0297189,55.4604211 C16.0620973,55.3172632 15.5392865,53.5151579 15.8491784,51.4456842 C16.1590703,49.3677895 17.1857189,47.7993684 18.1449081,47.9404211 C19.1125297,48.0898947 19.643773,49.8856842 19.3275568,51.9593684" id="Fill-302" fill="#FDDFBB"></path>
        </g>
    </g>
</svg>