<?xml version="1.0" encoding="UTF-8"?>
<svg width="100px" height="100px" viewBox="0 0 100 100" version="1.1" xmlns="http://www.w3.org/2000/svg" xmlns:xlink="http://www.w3.org/1999/xlink">
    <!-- Generator: Sketch 48.2 (47327) - http://www.bohemiancoding.com/sketch -->
    <title>MBot Girl 小护士</title>
    <desc>Created with Sketch.</desc>
    <defs>
        <polygon id="path-1" points="0.17202 27.2 4.46442 27.2 4.46442 0.17032 0.17202 0.17032"></polygon>
    </defs>
    <g id="裁剪面板" stroke="none" stroke-width="1" fill="none" fill-rule="evenodd">
        <g id="MBot-Girl-小护士">
            <g id="Page-1" transform="translate(6.400000, 18.300000)">
                <path d="M15.0035,50.18648 C14.9499,55.79588 17.9401,60.50748 21.9725,61.66188 L21.9723,61.66348 C21.9723,61.66348 21.9813,61.66568 21.9943,61.66868 C22.3865,61.77968 22.7887,61.85448 23.1985,61.89568 C24.4507,62.08408 26.4701,62.25588 28.3339,61.83108 C28.3497,61.82748 28.3627,61.82348 28.3781,61.81968 C32.6273,60.95108 35.9091,56.17848 35.9643,50.38628 C36.0149,45.08928 33.3505,40.59428 29.6581,39.13768 C29.5007,39.05268 29.2913,38.97808 29.0191,38.91628 C29.0123,38.91488 29.0057,38.91368 28.9989,38.91208 C28.5635,38.78708 28.1161,38.70388 27.6591,38.66528 C24.5765,38.22268 22.4701,38.77628 22.4701,38.77628 L22.4671,38.78048 C18.2775,39.71508 15.0579,44.45008 15.0035,50.18648" id="Fill-1" fill="#3E3F41"></path>
                <path d="M75.43532,57.6611 C75.22052,58.8809 74.03432,59.7995 72.58832,59.8685 C69.43172,60.0193 62.40172,60.2049 47.76092,60.0653 C33.11472,59.9257 26.08952,59.6061 22.93852,59.3953 C21.49472,59.2987 20.32532,58.3587 20.13392,57.1357 C19.87292,55.4657 19.61532,52.5669 19.66172,47.7083 C19.70572,43.0821 19.98992,40.3845 20.26852,38.8359 C20.48572,37.6295 21.65392,36.7187 23.08392,36.6377 C26.03312,36.4707 32.76932,36.2999 47.98552,36.5015 C63.13892,36.7021 69.87772,36.9763 72.84272,37.1633 C74.28952,37.2543 75.46452,38.1943 75.65772,39.4191 C75.90492,40.9847 76.13412,43.6811 76.09052,48.2461 C76.04452,53.0935 75.72952,55.9915 75.43532,57.6611" id="Fill-3" fill="#D9568C"></path>
                <path d="M25.41306,49.71716 L8.44426,46.08216 C5.10146,45.36596 2.97206,42.07556 3.68826,38.73276 L3.74026,38.48976 C4.45646,35.14676 7.74686,33.01756 11.08966,33.73356 L28.05846,37.36876" id="Fill-5" fill="#D9568C"></path>
                <path d="M67.83474,17.52242 L76.35834,20.60442 C76.90894,20.87082 77.25394,21.49562 77.22354,22.17142 L77.09114,25.78142 L79.35734,26.79342 L79.43394,31.79582 L72.99234,32.32862 L62.92834,30.80742 L67.83474,17.52242 Z" id="Fill-7" fill="#8B8B8B"></path>
                <path d="M68.5906,41.59216 L67.2654,41.35936 C66.5422,41.23236 66.0374,40.66536 66.1378,40.09276 L66.9018,35.74276 L67.6664,31.38796 C67.767,30.81556 68.4348,30.45436 69.158,30.58116 L70.4832,30.81396 C71.2064,30.94096 71.7114,31.50816 71.6108,32.08056 L70.0822,40.78536 C69.9816,41.35796 69.3138,41.71916 68.5906,41.59216" id="Fill-9" fill="#C97F38"></path>
                <path d="M67.25682,41.35798 L66.60262,41.24298 C66.24522,41.18018 66.03742,40.66538 66.13782,40.09278 L66.90182,35.74278 L67.66642,31.38798 C67.76702,30.81558 68.13782,30.40218 68.49502,30.46478 L69.14942,30.57978 C69.50642,30.64258 69.71442,31.15738 69.61382,31.72998 L68.08542,40.43478 C67.98482,41.00718 67.61382,41.42058 67.25682,41.35798" id="Fill-11" fill="#D58830"></path>
                <path d="M59.44782,17.78902 C59.44782,17.78902 64.36722,16.49662 67.67842,17.42202 C68.15262,17.55442 68.48082,17.98542 68.46682,18.47762 L68.22122,27.12982 C68.21082,27.49902 68.47762,27.81782 68.84302,27.87222 L72.56922,28.42942 C72.94242,28.48502 73.21642,28.80902 73.20962,29.18582 L73.16602,31.62122 C73.15942,31.98622 72.85982,32.27782 72.49462,32.27442 L59.24782,32.14822 L59.44782,17.78902 Z" id="Fill-13" fill="#58595B"></path>
                <path d="M64.232,57.55446 C64.058,58.77466 63.1078,59.69546 61.9516,59.76706 C59.4278,59.92406 53.8072,60.12306 42.1026,60.01146 C30.3938,59.90006 24.7778,59.59346 22.259,59.38866 C21.1048,59.29486 20.1718,58.35726 20.0212,57.13466 C19.8156,55.46526 19.6154,52.56706 19.6616,47.70846 C19.7056,43.08226 19.938,40.38406 20.1638,38.83486 C20.3396,37.62806 21.2754,36.71526 22.4188,36.63146 C24.777,36.45866 30.1626,36.27526 42.3272,36.44746 C54.4414,36.61926 59.8284,36.88066 62.1984,37.06166 C63.3548,37.15026 64.2926,38.08786 64.4446,39.31226 C64.6392,40.87726 64.8174,43.57326 64.774,48.13826 C64.7278,52.98546 64.4702,55.88426 64.232,57.55446" id="Fill-15" fill="#F2A7BD"></path>
                <path d="M60.27908,14.78884 C60.17148,15.57284 59.58568,16.16484 58.87308,16.21124 C57.31788,16.31244 53.85408,16.44184 46.64148,16.37264 C39.42588,16.30364 35.96548,16.10824 34.41328,15.97704 C33.70208,15.91704 33.12748,15.31484 33.03488,14.52924 C32.90868,13.45664 32.78608,11.59424 32.81608,8.47244 C32.84428,5.50004 32.98828,3.76624 33.12788,2.77064 C33.23648,1.99504 33.81348,1.40844 34.51788,1.35424 C35.97128,1.24284 39.15808,-0.10176 46.65408,0.00624 C54.11908,0.11384 57.57108,1.50584 59.03148,1.62184 C59.74408,1.67824 60.32168,2.28064 60.41508,3.06744 C60.53448,4.07284 60.64348,5.80504 60.61568,8.73844 C60.58568,11.85304 60.42628,13.71564 60.27908,14.78884" id="Fill-17" fill="#FFFFFF"></path>
                <path d="M48.02634,5.8023 L46.08594,5.7885 C45.70894,5.7857 45.40534,5.4777 45.40794,5.1005 L45.41994,3.4333 C45.42254,3.0563 45.11914,2.7481 44.74194,2.7455 L42.61394,2.7303 C42.23694,2.7275 41.92914,3.0311 41.92634,3.4081 L41.91434,5.0755 C41.91174,5.4527 41.60374,5.7563 41.22654,5.7535 L39.77594,5.7431 C39.39874,5.7403 39.09094,6.0439 39.08834,6.4211 L39.07294,8.5489 C39.07034,8.9261 39.37374,9.2341 39.75094,9.2369 L41.20154,9.2473 C41.57874,9.2499 41.88214,9.5577 41.87954,9.9349 L41.86714,11.6587 C41.86434,12.0357 42.16794,12.3437 42.54514,12.3465 L44.67294,12.3617 C45.05014,12.3645 45.35814,12.0609 45.36094,11.6837 L45.37314,9.9599 C45.37594,9.5829 45.68374,9.2793 46.06094,9.2819 L48.00134,9.2959 C48.37854,9.2985 48.68634,8.9951 48.68894,8.6179 L48.70454,6.4899 C48.70714,6.1129 48.40354,5.8051 48.02634,5.8023" id="Fill-19" fill="#F15A24"></path>
                <path d="M62.00446,39.33004 L25.73486,38.98444 C23.41966,38.96244 21.54346,37.05024 21.56566,34.73484 L21.71246,19.32824 C21.73446,17.01304 23.64666,15.13684 25.96186,15.15904 L62.23166,15.50464 C64.54686,15.52664 66.42306,17.43904 66.40086,19.75424 L66.25406,35.16084 C66.23206,37.47584 64.31966,39.35204 62.00446,39.33004" id="Fill-21" fill="#8B8B8B"></path>
                <path d="M60.64764,39.3773 L25.14484,39.0389 C22.82964,39.0167 20.95344,37.1045 20.97564,34.7895 L21.12304,19.3227 C21.14504,17.0075 23.05744,15.1315 25.37244,15.1535 L60.87544,15.4917 C63.19044,15.5139 65.06664,17.4261 65.04444,19.7411 L64.89724,35.2079 C64.87524,37.5231 62.96284,39.3993 60.64764,39.3773" id="Fill-23" fill="#323232"></path>
                <path d="M31.89196,17.97086 C31.56796,17.96766 29.46916,17.72106 28.69616,17.71386 C23.68976,17.66606 19.59256,21.68586 19.54476,26.69226 C19.49696,31.69886 23.51696,35.79606 28.52336,35.84386 C28.66156,35.84506 31.67856,35.64726 31.72356,35.64766 C36.60476,35.69406 40.59956,31.77486 40.64616,26.89346 C40.69276,22.01226 36.77336,18.01726 31.89196,17.97086" id="Fill-25" fill="#868585"></path>
                <path d="M37.71424,26.86558 C37.66644,31.88298 33.56004,35.91138 28.54304,35.86358 C23.52564,35.81578 19.49704,31.70978 19.54464,26.69238 C19.59264,21.67518 23.69884,17.64638 28.71604,17.69438 C33.73344,17.74218 37.76184,21.84818 37.71424,26.86558" id="Fill-27" fill="#636465"></path>
                <path d="M36.61794,26.85504 C36.57574,31.26704 32.96514,34.80944 28.55334,34.76744 C24.14134,34.72544 20.59894,31.11484 20.64094,26.70284 C20.68314,22.29104 24.29374,18.74864 28.70554,18.79064 C33.11754,18.83264 36.65994,22.44324 36.61794,26.85504" id="Fill-29" fill="#FFFFFF"></path>
                <path d="M21.2488,27.18492 C21.2908,22.77292 24.9016,19.23072 29.3134,19.27252 C31.0208,19.28912 32.5966,19.84132 33.8864,20.76632 C32.5004,19.55332 30.6918,18.80952 28.7056,18.79052 C24.2938,18.74852 20.6832,22.29092 20.641,26.70292 C20.6152,29.40732 21.9376,31.80892 23.9804,33.27372 C22.2876,31.79252 21.2258,29.61052 21.2488,27.18492" id="Fill-31" fill="#515252"></path>
                <path d="M57.57126,27.43668 C57.52346,32.45408 53.41726,36.48248 48.40006,36.43468 C43.38286,36.38688 39.35406,32.28088 39.40186,27.26348 C39.44986,22.24628 43.55586,18.21748 48.57326,18.26548 C53.59066,18.31328 57.61906,22.41928 57.57126,27.43668" id="Fill-33" fill="#888888"></path>
                <path d="M51.74938,18.50934 C51.42538,18.50634 49.32658,18.25974 48.55358,18.25234 C43.54718,18.20474 39.44998,22.22434 39.40238,27.23094 C39.35438,32.23754 43.37438,36.33474 48.38078,36.38234 C48.51898,36.38374 51.53618,36.18574 51.58098,36.18634 C56.46218,36.23274 60.45698,32.31354 60.50358,27.43194 C60.55018,22.55074 56.63078,18.55594 51.74938,18.50934" id="Fill-35" fill="#868585"></path>
                <path d="M57.57126,27.43668 C57.52346,32.45408 53.41726,36.48248 48.40006,36.43468 C43.38286,36.38688 39.35406,32.28088 39.40186,27.26348 C39.44986,22.24628 43.55586,18.21748 48.57326,18.26548 C53.59066,18.31328 57.61906,22.41928 57.57126,27.43668" id="Fill-37" fill="#888888"></path>
                <path d="M56.47498,27.42614 C56.43298,31.83814 52.82238,35.38054 48.41058,35.33854 C43.99858,35.29654 40.45618,31.68594 40.49818,27.27394 C40.54018,22.86214 44.15078,19.31974 48.56258,19.36174 C52.97458,19.40374 56.51718,23.01434 56.47498,27.42614" id="Fill-39" fill="#FFFFFF"></path>
                <path d="M41.04412,27.71384 C41.08612,23.30184 44.69692,19.75964 49.10852,19.80144 C50.81612,19.81784 52.39192,20.37024 53.68172,21.29504 C52.29552,20.08224 50.48712,19.33844 48.50092,19.31944 C44.08912,19.27744 40.47832,22.81984 40.43632,27.23184 C40.41052,29.93604 41.73292,32.33784 43.77552,33.80264 C42.08292,32.32144 41.02112,30.13944 41.04412,27.71384" id="Fill-41" fill="#515252"></path>
                <path d="M30.83962,29.39216 C30.81302,32.18016 28.97902,34.42316 26.74342,34.40196 C24.50762,34.38056 22.71662,32.10316 22.74322,29.31496 C22.76962,26.52676 24.60362,24.28376 26.83962,24.30496 C29.07542,24.32636 30.86622,26.60396 30.83962,29.39216" id="Fill-43" fill="#323232"></path>
                <path d="M50.68416,29.44548 C50.65756,32.23368 48.82356,34.47668 46.58776,34.45548 C44.35196,34.43388 42.56116,32.15668 42.58776,29.36828 C42.61416,26.58028 44.44816,24.33728 46.68396,24.35848 C48.91976,24.37988 50.71076,26.65748 50.68416,29.44548" id="Fill-45" fill="#323232"></path>
                <path d="M76.76716,39.40484 L75.85116,39.24384 C75.35136,39.15624 75.00256,38.76424 75.07196,38.36844 L75.59976,35.36204 L76.12836,32.35204 C76.19776,31.95644 76.65936,31.70684 77.15936,31.79464 L78.07516,31.95544 C78.57516,32.04304 78.92396,32.43504 78.85456,32.83084 L77.79796,38.84724 C77.72856,39.24284 77.26696,39.49244 76.76716,39.40484" id="Fill-47" fill="#C97F38"></path>
                <path d="M73.91912,25.95484 C73.91912,25.95484 88.10832,26.92744 78.75812,31.27944 C72.36672,34.25424 63.44192,38.70604 79.23432,39.08824" id="Stroke-49" stroke="#3E3F41" stroke-width="2" stroke-linecap="round" stroke-linejoin="round"></path>
                <g id="Group-53" transform="translate(68.800000, 32.821200)" fill="#D9568C">
                    <path d="M16.2949,10.54146 C12.7503,12.16466 2.1167,17.03486 2.1167,17.03486 L0.0159,6.72346 C0.0159,6.72346 10.6475,1.85446 14.1913,0.23146 C15.4925,-0.36454 16.7735,0.26046 17.0523,1.62726 C17.3257,2.96726 17.8727,5.64746 18.1461,6.98746 C18.4247,8.35426 17.5961,9.94546 16.2949,10.54146" id="Fill-51"></path>
                </g>
                <path d="M56.12556,43.40894 C56.11976,44.02694 55.61396,44.52294 54.99616,44.51714 C54.37836,44.51134 53.88216,44.00554 53.88796,43.38774 C53.89396,42.76994 54.39956,42.27374 55.01736,42.27974 C55.63536,42.28554 56.13136,42.79114 56.12556,43.40894" id="Fill-54" fill="#2381A9"></path>
                <path d="M41.04412,27.71384 C41.08612,23.30184 44.69692,19.75964 49.10852,19.80144 C50.81612,19.81784 52.39192,20.37024 53.68172,21.29504 C52.29552,20.08224 50.48712,19.33844 48.50092,19.31944 C44.08912,19.27744 40.47832,22.81984 40.43632,27.23184 C40.41052,29.93604 41.73292,32.33784 43.77552,33.80264 C42.08292,32.32144 41.02112,30.13944 41.04412,27.71384" id="Fill-56" fill="#515252"></path>
                <polygon id="Fill-58" fill="#F9C98A" points="7.75524 39.83218 11.45164 42.17918 13.82204 38.44638"></polygon>
                <path d="M7.73104,39.86852 L13.86604,38.49872 L9.85044,20.51352 C9.62824,19.51812 8.64104,18.89112 7.64544,19.11352 L5.11564,19.67832 C4.12024,19.90052 3.49344,20.88772 3.71564,21.88312 L7.73104,39.86852 Z" id="Fill-60" fill="#E6E6E6"></path>
                <path d="M3.95778,22.96774 L10.09258,21.59814 L9.72998,19.97374 C9.57418,19.27654 8.88258,18.83734 8.18518,18.99294 L4.57618,19.79874 C3.87858,19.95454 3.43938,20.64614 3.59518,21.34354 L3.95778,22.96774 Z" id="Fill-62" fill="#F15A24"></path>
                <polygon id="Fill-64" fill="#FBB03B" points="7.73104 39.86852 13.86604 38.49872 10.34764 22.74072 4.21284 24.11052"></polygon>
                <polygon id="Fill-66" fill="#F7931E" points="12.24196 38.8613 13.86596 38.4989 10.34756 22.7407 8.72376 23.1033"></polygon>
                <polygon id="Fill-68" fill="#F7931E" points="7.66794 39.85524 9.29194 39.49284 5.77374 23.73464 4.14974 24.09724"></polygon>
                <path d="M56.39256,40.15894 C56.49676,40.15894 56.60276,40.14494 56.70796,40.11574 L66.56236,37.38314 C67.18896,37.20934 67.55616,36.56034 67.38236,35.93374 C67.20856,35.30674 66.55936,34.93954 65.93296,35.11354 L56.07856,37.84634 C55.45196,38.02014 55.08476,38.66914 55.25836,39.29574 C55.40316,39.81714 55.87676,40.15894 56.39256,40.15894" id="Fill-70" fill="#FFFFFF"></path>
                <path d="M59.30368,53.87634 C59.15488,54.89054 58.31448,55.65934 57.28648,55.72374 C55.04268,55.86434 50.04468,56.05334 39.63448,56.00914 C29.22028,55.96514 24.22428,55.73414 21.98288,55.57434 C20.95608,55.50134 20.12168,54.72634 19.98168,53.71154 C19.79048,52.32574 19.59788,49.91934 19.61488,45.88334 C19.63108,42.04054 19.82448,39.79854 20.01748,38.51094 C20.16788,37.50774 20.99548,36.74554 22.01208,36.67134 C24.10848,36.51794 28.89748,36.34314 39.71708,36.43574 C50.49208,36.52814 55.28448,36.72254 57.39328,36.86334 C58.42228,36.93194 59.26088,37.70674 59.40228,38.72314 C59.58308,40.02234 59.75488,42.26094 59.73888,46.05294 C59.72188,50.07934 59.50748,52.48814 59.30368,53.87634" id="Fill-72" fill="#FFFFFF"></path>
                <path d="M66.29002,57.0232 C66.80802,57.0232 67.28282,56.679 67.42562,56.1552 C67.59662,55.5276 67.22682,54.8804 66.59922,54.7094 L56.73342,52.019 C56.10542,51.8476 55.45862,52.2178 55.28722,52.845 C55.11622,53.4726 55.48602,54.1198 56.11362,54.291 L65.97962,56.9814 C66.08342,57.0098 66.18762,57.0232 66.29002,57.0232" id="Fill-74" fill="#FFFFFF"></path>
                <path d="M20.1949,58.35406 C20.6009,58.35406 20.9959,58.14386 21.2145,57.76746 L23.7931,53.32486 C24.1197,52.76226 23.9285,52.04166 23.3659,51.71526 C22.8037,51.38846 22.0827,51.58006 21.7563,52.14246 L19.1775,56.58506 C18.8509,57.14766 19.0421,57.86826 19.6047,58.19486 C19.7907,58.30286 19.9941,58.35406 20.1949,58.35406" id="Fill-76" fill="#FFFFFF"></path>
                <path d="M25.21092,40.47164 C25.51872,40.47164 25.82592,40.35184 26.05672,40.11344 C26.50932,39.64644 26.49772,38.90084 26.03072,38.44844 L21.46072,34.02084 C20.99352,33.56804 20.24812,33.58024 19.79552,34.04724 C19.34292,34.51444 19.35492,35.25984 19.82192,35.71244 L24.39152,40.13984 C24.62052,40.36144 24.91592,40.47164 25.21092,40.47164" id="Fill-78" fill="#FFFFFF"></path>
                <g id="Group-82" transform="translate(0.000000, 41.221200)" fill="#0D6FA0">
                    <polygon id="Fill-80" points="-2e-05 0.14302 39.93358 0.05762 61.77818 6.35422 61.78318 8.81922 21.84978 8.90442 0.00518 2.60782"></polygon>
                </g>
                <polygon id="Fill-83" fill="#C6C6C6" points="21.84978 50.12554 61.78318 50.04034 39.93878 43.74394 0.00518 43.82914"></polygon>
                <path d="M72.24432,49.97008 L55.25932,51.99368 C51.79652,52.40628 48.65492,49.93348 48.24212,46.47088 L48.24212,46.47068 C47.82972,43.00788 50.30232,39.86628 53.76512,39.45368 L70.75012,37.43008 C74.21312,37.01728 77.35472,39.49028 77.76712,42.95288 C78.17992,46.41588 75.70692,49.55748 72.24432,49.97008" id="Fill-85" fill="#D9568C"></path>
                <path d="M65.82692,49.94332 C66.06832,57.37672 70.44772,63.26652 75.60832,63.09892 C80.76912,62.93132 84.75692,56.76952 84.51532,49.33612 C84.27392,41.90272 79.89472,36.01272 74.73392,36.18032 C69.57312,36.34792 65.58532,42.50992 65.82692,49.94332" id="Fill-87" fill="#3E3F41"></path>
                <path d="M62.51912,50.05074 C62.76072,57.48414 67.13992,63.37414 72.30072,63.20634 C77.46152,63.03874 81.44912,56.87694 81.20772,49.44354 C80.96612,42.01014 76.58692,36.12014 71.42612,36.28794 C66.26532,36.45534 62.27772,42.61734 62.51912,50.05074" id="Fill-89" fill="#3E3F41"></path>
                <g id="Group-93" transform="translate(70.800000, 36.021200)">
                    <mask id="mask-2" fill="white">
                        <use xlink:href="#path-1"></use>
                    </mask>
                    <g id="Clip-92"></g>
                    <polygon id="Fill-91" fill="#3E3F41" mask="url(#mask-2)" points="4.46442 27.08892 1.04662 27.20012 0.17202 0.28132 3.58982 0.17032"></polygon>
                </g>
                <path d="M73.1492,49.8234 C73.3162,54.9656 75.5408,59.0664 78.118,58.9826 C80.695,58.8988 82.6486,54.6624 82.4816,49.5202 C82.3144,44.378 80.09,40.2774 77.5128,40.361 C74.936,40.4448 72.9822,44.6812 73.1492,49.8234" id="Fill-94" fill="#959595"></path>
                <polygon id="Fill-96" fill="#959595" points="77.94606 58.98804 76.23946 59.04344 75.63426 40.42204 77.34106 40.36684"></polygon>
                <path d="M71.49744,49.87712 C71.66444,55.01932 73.88904,59.11992 76.46624,59.03632 C79.04324,58.95252 80.99684,54.71592 80.82984,49.57392 C80.66264,44.43172 78.43824,40.33112 75.86104,40.41472 C73.28424,40.49832 71.33044,44.73492 71.49744,49.87712" id="Fill-98" fill="#CCCECD"></path>
                <path d="M74.83942,49.83102 C74.87662,50.97542 75.49942,51.88382 76.23042,51.86002 C76.96122,51.83622 77.52382,50.88942 77.48662,49.74502 C77.44962,48.60082 76.82682,47.69262 76.09562,47.71622 C75.36462,47.74002 74.80202,48.68682 74.83942,49.83102" id="Fill-100" fill="#3E3F41"></path>
            </g>
        </g>
    </g>
</svg>