<?xml version="1.0" encoding="UTF-8"?>
<svg width="120px" height="120px" viewBox="0 0 120 120" version="1.1" xmlns="http://www.w3.org/2000/svg" xmlns:xlink="http://www.w3.org/1999/xlink">
    <!-- Generator: Sketch 51.1 (57501) - http://www.bohemiancoding.com/sketch -->
    <title>Game control16</title>
    <desc>Created with Sketch.</desc>
    <defs>
        <polygon id="path-1" points="0.000174418605 0.378394161 74.5561047 0.378394161 74.5561047 119.124088 0.000174418605 119.124088"></polygon>
    </defs>
    <g id="Game-control16" stroke="none" stroke-width="1" fill="none" fill-rule="evenodd">
        <g id="Page-1" transform="translate(22.000000, 0.000000)">
            <g id="Group-3" transform="translate(0.000000, 0.497518)">
                <mask id="mask-2" fill="white">
                    <use xlink:href="#path-1"></use>
                </mask>
                <g id="Clip-2"></g>
                <path d="M52.3126744,119.124088 L6.50424419,119.124088 C2.91209302,119.124088 0.000174418605,116.199416 0.000174418605,112.591533 L0.000174418605,6.91094891 C0.000174418605,3.30306569 2.91209302,0.378394161 6.50424419,0.378394161 L68.0522093,0.378394161 C71.6443605,0.378394161 74.5562791,3.30306569 74.5562791,6.91094891 L74.5562791,96.7830657 C74.5562791,109.122044 64.5978488,119.124088 52.3126744,119.124088" id="Fill-1" fill="#F7F6E4" mask="url(#mask-2)"></path>
            </g>
            <path d="M37.4623256,94.4489343 L32.666686,98.4001752 C32.1643605,98.8144818 31.4230814,98.7409051 31.0114535,98.2363796 L30.9966279,98.2179854 C30.5841279,97.7134599 30.6565116,96.9689343 31.1588372,96.5546277 L35.9544767,92.6042628 C36.4568023,92.1899562 37.1980814,92.2635328 37.6105814,92.7680584 L37.625407,92.7864526 C38.0370349,93.2909781 37.9637791,94.0355036 37.4623256,94.4489343" id="Fill-4" fill="#939494"></path>
            <path d="M48.3839826,94.4493723 L43.588343,98.4006131 C43.0860174,98.8140438 42.3447384,98.7404672 41.9331105,98.2368175 L41.9182849,98.2175474 C41.5057849,97.7138978 41.5790407,96.9684964 42.0804942,96.5550657 L46.8761337,92.6038248 C47.3784593,92.1895182 48.1197384,92.2630949 48.5322384,92.7676204 L48.547064,92.7868905 C48.9586919,93.2905401 48.885436,94.0350657 48.3839826,94.4493723" id="Fill-6" fill="#939494"></path>
            <path d="M8.82636628,82.0582774 C8.1984593,82.0582774 7.68828488,81.5458686 7.68828488,80.9152117 L7.68828488,77.6752117 C7.68828488,77.0445547 8.1984593,76.532146 8.82636628,76.532146 L14.0031105,76.532146 C14.2952616,76.532146 14.5725872,76.6433869 14.7845058,76.8448467 L16.4903198,78.4644088 C16.7196802,78.6825109 16.8461337,78.9776934 16.8461337,79.2956496 C16.8461337,79.6127299 16.7196802,79.9079124 16.4903198,80.1260146 L14.7845058,81.7455766 C14.5725872,81.9479124 14.2952616,82.0582774 14.0031105,82.0582774 L8.82636628,82.0582774 Z" id="Fill-8" fill="#3E3A39"></path>
            <path d="M22.4903198,82.0582774 C22.1981686,82.0582774 21.920843,81.9479124 21.7089244,81.7455766 L20.0031105,80.1260146 C19.77375,79.9079124 19.6464244,79.6127299 19.6464244,79.2956496 C19.6464244,78.9776934 19.77375,78.6825109 20.0031105,78.4644088 L21.7089244,76.8448467 C21.920843,76.6433869 22.1981686,76.532146 22.4903198,76.532146 L27.667064,76.532146 C28.2940988,76.532146 28.8051453,77.0445547 28.8051453,77.6752117 L28.8051453,80.9152117 C28.8051453,81.5458686 28.2940988,82.0582774 27.667064,82.0582774 L22.4903198,82.0582774 Z" id="Fill-10" fill="#3E3A39"></path>
            <path d="M16.5525872,89.9816934 C15.9246802,89.9816934 15.4136337,89.4692847 15.4136337,88.8386277 L15.4136337,83.6392117 C15.4136337,83.3466569 15.5243895,83.0672409 15.725843,82.8543942 L17.3374709,81.1411095 C17.5546221,80.9107445 17.8485174,80.7837372 18.1650872,80.7837372 C18.481657,80.7837372 18.7755523,80.9107445 18.9927035,81.1411095 L20.6043314,82.8543942 C20.8057849,83.0672409 20.9165407,83.3466569 20.9165407,83.6392117 L20.9165407,88.8386277 C20.9165407,89.4692847 20.4054942,89.9816934 19.7775872,89.9816934 L16.5525872,89.9816934 Z" id="Fill-12" fill="#3E3A39"></path>
            <path d="M18.1647384,77.9704818 C17.8490407,77.9704818 17.5551453,77.8434745 17.3379942,77.6131095 L15.7254942,75.8998248 C15.5249128,75.6869781 15.414157,75.407562 15.414157,75.1141314 L15.414157,69.9155912 C15.414157,69.2849343 15.9252035,68.7725255 16.5522384,68.7725255 L19.7781105,68.7725255 C20.4051453,68.7725255 20.9161919,69.2849343 20.9161919,69.9155912 L20.9161919,75.1141314 C20.9161919,75.407562 20.805436,75.6869781 20.6048547,75.8998248 L18.9923547,77.6131095 C18.7752035,77.8434745 18.4813081,77.9704818 18.1647384,77.9704818" id="Fill-14" fill="#3E3A39"></path>
            <path d="M56.9609302,80.9442044 C56.9609302,78.8586569 55.2769186,77.1672701 53.2004651,77.1672701 C51.1240116,77.1672701 49.4408721,78.8586569 49.4408721,80.9442044 C49.4408721,83.0297518 51.1240116,84.7211387 53.2004651,84.7211387 C55.2769186,84.7211387 56.9609302,83.0297518 56.9609302,80.9442044" id="Fill-16" fill="#E36393"></path>
            <path d="M65.497936,74.020292 C65.497936,71.9347445 63.8147965,70.2433577 61.7374709,70.2433577 C59.6618895,70.2433577 57.9778779,71.9347445 57.9778779,74.020292 C57.9778779,76.1058394 59.6618895,77.7972263 61.7374709,77.7972263 C63.8147965,77.7972263 65.497936,76.1058394 65.497936,74.020292" id="Fill-18" fill="#E36393"></path>
            <path d="M60.9739535,59.4612263 L12.2117442,59.4612263 C9.71406977,59.4612263 7.68819767,57.4273577 7.68819767,54.9178686 L7.68819767,12.6927591 C7.68819767,10.184146 9.71406977,8.14940146 12.2117442,8.14940146 L60.9739535,8.14940146 C63.4725,8.14940146 65.4975,10.184146 65.4975,12.6927591 L65.4975,54.9178686 C65.4975,57.4273577 63.4725,59.4612263 60.9739535,59.4612263" id="Fill-20" fill="#7DC6B1"></path>
            <path d="M60.2875291,114.084701 L60.2831686,114.08908 C60.1610756,114.211708 59.9639826,114.211708 59.8418895,114.08908 L52.4517733,106.666599 C52.3296802,106.543971 52.3296802,106.346015 52.4517733,106.223387 L52.4561337,106.219007 C52.5773547,106.09638 52.7753198,106.09638 52.8965407,106.219007 L60.2875291,113.642365 C60.4096221,113.764117 60.4096221,113.962949 60.2875291,114.084701" id="Fill-22" fill="#3E3A39"></path>
            <path d="M61.8136919,112.551854 L61.8093314,112.556234 C61.6872384,112.678861 61.4901453,112.678861 61.3680523,112.556234 L53.9788081,105.132876 C53.8567151,105.011124 53.8567151,104.812292 53.9788081,104.689664 L53.9831686,104.686161 C54.1043895,104.563533 54.3023547,104.563533 54.4235756,104.686161 L61.8136919,112.108642 C61.9357849,112.23127 61.9357849,112.429226 61.8136919,112.551854" id="Fill-24" fill="#3E3A39"></path>
            <path d="M63.3407267,111.018131 L63.3363663,111.022511 C63.2142733,111.145139 63.0171802,111.145139 62.8950872,111.022511 L55.5049709,103.600029 C55.3828779,103.477401 55.3828779,103.279445 55.5049709,103.156818 L55.5093314,103.152438 C55.6305523,103.02981 55.8285174,103.02981 55.9497384,103.152438 L63.3407267,110.575796 C63.4628198,110.697547 63.4628198,110.895504 63.3407267,111.018131" id="Fill-26" fill="#3E3A39"></path>
            <path d="M64.8668895,109.484934 L64.8625291,109.489314 C64.740436,109.611942 64.543343,109.611942 64.42125,109.489314 L57.0320058,102.066832 C56.9099128,101.944204 56.9099128,101.746248 57.0320058,101.62362 L57.0363663,101.619241 C57.1575872,101.496613 57.3555523,101.496613 57.4767733,101.619241 L64.8668895,109.042599 C64.9889826,109.16435 64.9889826,109.362307 64.8668895,109.484934" id="Fill-28" fill="#3E3A39"></path>
            <path d="M66.3938372,107.95165 L66.3894767,107.956029 C66.2673837,108.078657 66.0702907,108.078657 65.9481977,107.956029 L58.5580814,100.533547 C58.4359884,100.41092 58.4359884,100.212964 58.5580814,100.090336 L58.5624419,100.085956 C58.6836628,99.9633285 58.8816279,99.9633285 59.0028488,100.085956 L66.3938372,107.509314 C66.5159302,107.631066 66.5159302,107.829022 66.3938372,107.95165" id="Fill-30" fill="#3E3A39"></path>
            <path d="M67.92,106.418365 L67.9156395,106.422745 C67.7935465,106.545372 67.5964535,106.545372 67.4743605,106.422745 L60.0851163,99.0002628 C59.9630233,98.877635 59.9630233,98.6796788 60.0851163,98.5570511 L60.0894767,98.5526715 C60.2106977,98.4300438 60.4086628,98.4300438 60.5298837,98.5526715 L67.92,105.976029 C68.042093,106.097781 68.042093,106.295737 67.92,106.418365" id="Fill-32" fill="#3E3A39"></path>
            <path d="M69.4470349,104.88508 L69.4426744,104.88946 C69.3205814,105.012088 69.1234884,105.012088 69.0013953,104.88946 L61.6112791,97.4669781 C61.489186,97.3443504 61.489186,97.1463942 61.6112791,97.0237664 L61.6156395,97.0193869 C61.7368605,96.8967591 61.9348256,96.8967591 62.0560465,97.0193869 L69.4470349,104.442745 C69.5691279,104.564496 69.5691279,104.762453 69.4470349,104.88508" id="Fill-34" fill="#3E3A39"></path>
            <path d="M70.9740698,103.351796 L70.9688372,103.356175 C70.8467442,103.478803 70.6496512,103.478803 70.5275581,103.356175 L63.138314,95.9336934 C63.0162209,95.8110657 63.0162209,95.6131095 63.138314,95.4904818 L63.1426744,95.4861022 C63.2638953,95.3634745 63.4618605,95.3634745 63.5830814,95.4861022 L70.9740698,102.90946 C71.0952907,103.031212 71.0952907,103.229168 70.9740698,103.351796" id="Fill-36" fill="#3E3A39"></path>
        </g>
    </g>
</svg>