<?xml version="1.0" encoding="UTF-8"?>
<svg width="120px" height="120px" viewBox="0 0 120 120" version="1.1" xmlns="http://www.w3.org/2000/svg" xmlns:xlink="http://www.w3.org/1999/xlink">
    <!-- Generator: Sketch 51.1 (57501) - http://www.bohemiancoding.com/sketch -->
    <title>Banana</title>
    <desc>Created with Sketch.</desc>
    <defs></defs>
    <g id="Banana" stroke="none" stroke-width="1" fill="none" fill-rule="evenodd">
        <g id="Page-1" transform="translate(60.000000, 60.000000) scale(-1, 1) translate(-60.000000, -60.000000) translate(0.000000, 24.000000)">
            <path d="M2.14257534,0.219227586 L0.992712329,0.565158621 C0.992712329,0.565158621 -1.8749589,19.2512276 15.9179178,33.5386759 C33.7107945,47.824469 70.046137,58.7916414 99.8710685,33.3880552 C112.72011,20.8401931 112.356822,9.44350345 112.356822,9.44350345 L119.667781,3.22171034 C119.667781,3.22171034 120.191342,2.16653793 119.180384,1.02115862 C118.167781,-0.125048276 117.335178,-0.225186207 110.297096,7.77012414 C102.655726,13.7659862 88.9839452,26.3345379 54.8653151,25.4937103 C19.6954521,21.5577103 7.08065753,5.37095172 2.14257534,0.219227586" id="Fill-1" fill="#FFCF00"></path>
            <path d="M110.799452,13.3199172 C98.3852055,27.708331 81.3336986,33.8846069 67.1284932,36.2515034 C52.92,38.6192276 27.8120548,32.3808828 15.9969863,23.6175724 C8.0490411,17.7226759 2.94986301,10.8777103 0.460273973,7.02529655 C1.42109589,13.7742621 4.73835616,23.6879172 15.1964384,32.0854345 C32.9893151,46.3720552 69.3254795,57.3392276 99.149589,31.9356414 C106.579726,24.6801931 109.580548,17.824469 110.799452,13.3199172" id="Fill-3" fill="#FFCB00"></path>
            <path d="M4.25589041,34.8307034 L3.20465753,35.4133241 C3.20465753,35.4133241 4.33479452,54.2880828 24.729863,64.4533241 C45.1257534,74.6193931 82.9438356,77.5854621 106.744932,46.3953931 C116.663014,31.3912552 113.907945,20.3305655 113.907945,20.3305655 L119.745205,12.6894621 C119.745205,12.6894621 120.033699,11.5465655 118.80411,10.6428414 C117.574521,9.73994483 116.73863,9.81856552 111.543288,19.1347034 C105.337808,26.6243586 94.6208219,41.8246345 61.1013699,48.2822897 C25.9010959,51.9393931 10.1654795,38.8122207 4.25589041,34.8307034" id="Fill-5" fill="#FFCF00"></path>
            <path d="M114.213123,24.2644966 C105.10874,40.9742897 89.7446301,50.6487724 76.3596986,55.9924966 C62.9714795,61.3387034 37.1213425,60.5988414 23.7306575,54.5558069 C14.7224384,50.4898759 8.29915068,44.8879448 5.05421918,41.6537379 C7.41394521,48.0451862 12.7416164,57.0261517 24.7301096,63.0013241 C45.1251781,73.1673931 82.9440822,76.1334621 106.745178,44.9425655 C112.480521,36.2669793 113.969836,28.9271172 114.213123,24.2644966" id="Fill-7" fill="#FFCB00"></path>
            <path d="M2.14257534,0.219227586 L0.992712329,0.565158621 C0.992712329,0.565158621 -1.8749589,19.2512276 15.9179178,33.5386759 C33.7107945,47.824469 70.046137,58.7916414 99.8710685,33.3880552 C112.72011,20.8401931 112.356822,9.44350345 112.356822,9.44350345 L119.667781,3.22171034 C119.667781,3.22171034 120.191342,2.16653793 119.180384,1.02115862 C118.167781,-0.125048276 117.335178,-0.225186207 110.297096,7.77012414 C102.655726,13.7659862 88.9839452,26.3345379 54.8653151,25.4937103 C19.6954521,21.5577103 7.08065753,5.37095172 2.14257534,0.219227586 Z" id="Stroke-9" stroke="#FFDE00" stroke-width="3.28767123"></path>
            <path d="M4.25589041,34.8307034 L3.20465753,35.4133241 C3.20465753,35.4133241 4.33479452,54.2880828 24.729863,64.4533241 C45.1257534,74.6193931 82.9438356,77.5854621 106.744932,46.3953931 C116.663014,31.3912552 113.907945,20.3305655 113.907945,20.3305655 L119.745205,12.6894621 C119.745205,12.6894621 120.033699,11.5465655 118.80411,10.6428414 C117.574521,9.73994483 116.73863,9.81856552 111.543288,19.1347034 C105.337808,26.6243586 94.6208219,41.8246345 61.1013699,48.2822897 C25.9010959,51.9393931 10.1654795,38.8122207 4.25589041,34.8307034 Z" id="Stroke-11" stroke="#FFDE00" stroke-width="3.28767123"></path>
        </g>
    </g>
</svg>