<?xml version="1.0" encoding="UTF-8"?>
<svg width="120px" height="120px" viewBox="0 0 120 120" version="1.1" xmlns="http://www.w3.org/2000/svg" xmlns:xlink="http://www.w3.org/1999/xlink">
    <!-- Generator: Sketch 51.1 (57501) - http://www.bohemiancoding.com/sketch -->
    <title>Cartoon number6</title>
    <desc>Created with Sketch.</desc>
    <defs>
        <polygon id="path-1" points="0.690243261 0.319173305 5.80995147 0.319173305 5.80995147 3 0.690243261 3"></polygon>
        <polygon id="path-3" points="0 0.206083758 54.4763676 0.206083758 54.4763676 16.2059597 0 16.2059597"></polygon>
        <polygon id="path-5" points="0.785565943 0.440773221 42.688 0.440773221 42.688 30.1841972 0.785565943 30.1841972"></polygon>
    </defs>
    <g id="Cartoon-number6" stroke="none" stroke-width="1" fill="none" fill-rule="evenodd">
        <g id="Page-1" transform="translate(15.000000, 0.000000)">
            <path d="M56.8284,7.687 C59.1204,10.783 59.8264,13.639 59.8264,13.639 L59.8364,13.7 C58.5474,13.855 57.7814,14.309 57.7814,14.309 C52.1024,2.806 39.8154,2.338 39.1454,2.318 C49.4034,1.096 55.1244,5.945 56.8204,7.679 C56.8284,7.679 56.8284,7.679 56.8284,7.687" id="Fill-1" fill="#A3818F"></path>
            <path d="M64.4622,14.3042 C68.8502,16.5922 69.8512,26.2912 68.2792,29.4332 C66.4932,33.0032 61.6382,33.8602 59.7102,31.7182 C55.4512,26.9862 56.5352,14.7922 57.9152,13.8592 C57.9152,13.8592 58.6952,13.4302 59.9892,13.3192 C61.1382,13.2242 62.6892,13.3792 64.4622,14.3042" id="Fill-3" fill="#E16278"></path>
            <path d="M57.2815,14.2211 C57.2815,14.2211 60.9605,12.4721 64.6735,16.5421 C68.3865,20.6131 68.7955,31.2541 63.1735,32.7361 C59.1735,33.7891 59.1375,29.4681 59.1375,29.4681 C59.1375,29.4681 54.6385,17.4351 57.2815,14.2211" id="Fill-5" fill="#C6546D"></path>
            <path d="M63.1761,53.2387 C62.9701,53.2387 62.7891,53.0897 62.7541,52.8797 C62.7161,52.6457 62.8741,52.4257 63.1081,52.3867 C63.1461,52.3817 66.9431,51.7387 69.2331,49.7887 C74.5901,45.2247 73.9651,41.0407 73.9581,40.9987 C73.9191,40.7657 74.0751,40.5447 74.3091,40.5057 C74.5351,40.4667 74.7621,40.6207 74.8021,40.8527 C74.8351,41.0417 75.5461,45.5377 69.7881,50.4407 C67.3141,52.5477 63.4111,53.2057 63.2461,53.2327 C63.2231,53.2367 63.1991,53.2387 63.1761,53.2387" id="Fill-7" fill="#434040"></path>
            <path d="M72.305,37.5668 C70.659,38.7508 71.594,42.0018 74.419,41.5058 C77.245,41.0088 75.329,35.3918 72.305,37.5668" id="Fill-9" fill="#434040"></path>
            <path d="M59.345,75.4438 C59.151,69.6878 53.76,65.2068 47.302,65.4248 C40.844,65.6438 35.769,70.4798 35.963,76.2358 C36.158,81.9908 41.549,86.4798 48.007,86.2618 C54.464,86.0438 59.54,81.1998 59.345,75.4438 M74.383,61.1988 C82.231,74.9258 80.641,103.2238 51.942,112.3328 C23.242,121.4488 -3.372,94.3628 4.63,52.6188 C12.633,10.8808 47.913,11.5478 56.106,13.6718 C66.762,16.4228 68.333,27.1138 63.587,31.5458 C58.775,36.0288 49.019,33.5638 39.991,37.4278 C27.339,42.8468 29.759,50.7568 31.361,52.9918 C32.963,55.2258 36.916,50.9428 46.494,49.1698 C56.61,47.2998 68.166,50.3308 74.383,61.1988" id="Fill-11" fill="#34BFAB"></path>
            <path d="M35.3362,0.4409 C47.2572,-1.4971 53.6032,3.3299 56.8202,7.6789 C55.1242,5.9449 49.4032,1.0959 39.1462,2.3179 C39.1292,2.3189 39.1212,2.3189 39.1212,2.3189 C38.3862,2.4039 37.6282,2.5239 36.8442,2.6789 C22.1422,5.5769 18.3492,22.2199 17.8962,24.5249 C17.7812,24.4429 17.6592,24.3699 17.5372,24.3149 C17.2062,24.1799 16.7912,24.0649 16.3012,24.0039 C15.9222,23.9579 15.4922,23.9379 15.0472,23.9529 L15.0432,23.8329 C15.0432,23.8329 14.9882,3.7449 35.3362,0.4409" id="Fill-13" fill="#C9ADB6"></path>
            <path d="M24.4007,24.2407 C24.4007,24.2407 24.4537,24.3707 24.5607,24.6017 C24.6647,24.8317 24.8397,25.1487 25.0727,25.4987 C25.1917,25.6717 25.3297,25.8487 25.4917,26.0117 C25.6567,26.1687 25.8357,26.3267 26.0377,26.4337 C26.2337,26.5587 26.4607,26.6107 26.6897,26.6407 C26.8057,26.6507 26.9257,26.6307 27.0457,26.6317 C27.1667,26.6057 27.2867,26.5687 27.4107,26.5487 C27.4557,26.5307 27.6767,26.4457 27.7687,26.3937 C27.8397,26.3207 27.9267,26.3057 28.0027,26.2067 C28.1697,26.0527 28.2897,25.8447 28.3797,25.6237 C28.5637,25.1797 28.6327,24.6817 28.6437,24.2577 C28.6557,23.8307 28.6417,23.4647 28.6167,23.2117 C28.5907,22.9607 28.5767,22.8177 28.5767,22.8177 L28.5767,22.8107 C28.5637,22.6857 28.6547,22.5747 28.7797,22.5617 C28.8827,22.5517 28.9787,22.6127 29.0147,22.7057 C29.0147,22.7057 29.2447,23.2957 29.3197,24.2467 C29.3407,24.7187 29.3477,25.2967 29.1277,25.9107 C29.0137,26.2127 28.8487,26.5287 28.5887,26.7887 C28.4827,26.9287 28.2847,27.0397 28.1257,27.1547 C27.9547,27.2427 27.8937,27.2707 27.6617,27.3637 C27.4917,27.4077 27.3187,27.4427 27.1457,27.4717 C26.9647,27.4737 26.7867,27.4907 26.6087,27.4697 C26.2547,27.4207 25.9057,27.3117 25.6287,27.1277 C25.3347,26.9627 25.1157,26.7327 24.9317,26.5127 C24.7477,26.2907 24.6067,26.0647 24.4887,25.8527 C24.0397,24.9977 23.9637,24.3597 23.9637,24.3597 L23.9637,24.3527 C23.9487,24.2287 24.0387,24.1157 24.1637,24.1007 C24.2667,24.0897 24.3627,24.1487 24.4007,24.2407" id="Fill-15" fill="#434040"></path>
            <path d="M45.8733,18.7436 C45.8733,18.7436 45.9263,18.8736 46.0333,19.1036 C46.1373,19.3346 46.3133,19.6516 46.5453,20.0016 C46.6643,20.1736 46.8023,20.3516 46.9643,20.5146 C47.1303,20.6706 47.3083,20.8296 47.5113,20.9356 C47.7073,21.0606 47.9343,21.1136 48.1623,21.1426 C48.2783,21.1536 48.3993,21.1336 48.5193,21.1346 C48.6403,21.1076 48.7593,21.0706 48.8833,21.0516 C48.9283,21.0336 49.1503,20.9476 49.2423,20.8976 C49.3133,20.8226 49.3993,20.8086 49.4763,20.7096 C49.6433,20.5556 49.7633,20.3476 49.8523,20.1266 C50.0373,19.6826 50.1073,19.1846 50.1173,18.7606 C50.1293,18.3336 50.1163,17.9676 50.0913,17.7146 C50.0653,17.4636 50.0513,17.3196 50.0513,17.3196 L50.0513,17.3136 C50.0383,17.1886 50.1293,17.0776 50.2543,17.0646 C50.3573,17.0546 50.4523,17.1156 50.4893,17.2086 C50.4893,17.2086 50.7193,17.7986 50.7933,18.7496 C50.8143,19.2226 50.8213,19.7996 50.6013,20.4136 C50.4873,20.7156 50.3223,21.0316 50.0623,21.2916 C49.9563,21.4316 49.7583,21.5426 49.5993,21.6576 C49.4273,21.7456 49.3673,21.7736 49.1343,21.8666 C48.9643,21.9096 48.7913,21.9446 48.6183,21.9746 C48.4383,21.9756 48.2593,21.9926 48.0813,21.9726 C47.7273,21.9226 47.3783,21.8136 47.1013,21.6296 C46.8073,21.4656 46.5893,21.2356 46.4043,21.0146 C46.2213,20.7936 46.0793,20.5666 45.9623,20.3556 C45.5123,19.5006 45.4363,18.8626 45.4373,18.8626 L45.4363,18.8556 C45.4223,18.7306 45.5113,18.6186 45.6363,18.6036 C45.7393,18.5916 45.8363,18.6516 45.8733,18.7436" id="Fill-17" fill="#434040"></path>
            <path d="M31.1888,32.9262 C31.2688,35.2942 29.4138,37.2802 27.0448,37.3602 C24.6758,37.4412 22.6918,35.5852 22.6118,33.2162 C22.5318,30.8482 24.3858,28.8642 26.7538,28.7822 C29.1238,28.7022 31.1088,30.5582 31.1888,32.9262" id="Fill-19" fill="#F48EB8"></path>
            <path d="M57.6546,25.5424 C57.7346,27.9104 55.8806,29.8964 53.5106,29.9764 C51.1436,30.0564 49.1576,28.2004 49.0776,25.8324 C48.9976,23.4644 50.8536,21.4794 53.2206,21.3984 C55.5906,21.3184 57.5756,23.1734 57.6546,25.5424" id="Fill-21" fill="#F48EB8"></path>
            <path d="M44.303,27.2329 L44.357,27.2819 C43.323,28.4319 41.813,29.3829 39.802,29.8029 C37.717,30.2429 35.89,29.9959 34.454,29.3759 C35.133,28.6499 39.513,24.2829 44.303,27.2329" id="Fill-23" fill="#E88587"></path>
            <path d="M44.5198,20.7426 C46.5188,21.7816 46.4628,24.9386 44.3568,27.2816 L44.3028,27.2326 C39.5128,24.2826 35.1328,28.6496 34.4548,29.3756 C31.6538,28.2006 30.2988,25.6476 31.2758,24.1146 C32.1788,22.6866 35.2898,23.6276 38.2258,22.7306 C41.5008,21.7276 43.0008,19.9456 44.5198,20.7426" id="Fill-25" fill="#434040"></path>
            <path d="M18.3733,70.9956 C15.7243,70.9956 12.6743,70.1656 11.3193,66.7546 C8.5553,59.7876 15.7253,53.8696 15.7983,53.8096 C15.9823,53.6616 16.2513,53.6896 16.4003,53.8736 C16.5503,54.0576 16.5213,54.3266 16.3383,54.4756 C16.2693,54.5306 9.5853,60.0586 12.1163,66.4376 C14.4413,72.2956 22.6723,69.4706 22.7543,69.4396 C22.9773,69.3626 23.2223,69.4786 23.3013,69.7016 C23.3803,69.9246 23.2633,70.1696 23.0393,70.2486 C22.9953,70.2636 20.8613,70.9956 18.3733,70.9956" id="Fill-27" fill="#434040"></path>
            <path d="M25.9612,67.354 C24.5752,65.875 21.4722,67.221 22.3282,69.958 C23.1842,72.697 28.5072,70.073 25.9612,67.354" id="Fill-29" fill="#434040"></path>
            <path d="M13.4261,113.8413 C12.0761,113.8413 10.6821,113.4803 9.2571,112.7583 C9.0471,112.6513 8.9621,112.3933 9.0701,112.1823 C9.1761,111.9723 9.4331,111.8883 9.6451,111.9933 C11.7171,113.0433 13.7021,113.2593 15.5461,112.6323 C19.0451,111.4453 20.9131,107.6263 20.9321,107.5883 C21.0341,107.3753 21.2891,107.2843 21.5031,107.3873 C21.7171,107.4893 21.8071,107.7453 21.7041,107.9593 C21.6231,108.1293 19.6571,112.1433 15.8221,113.4453 C15.0421,113.7083 14.2421,113.8413 13.4261,113.8413" id="Fill-31" fill="#434040"></path>
            <path d="M59.3352,119.1948 L59.3312,119.1948 C59.0942,119.1918 58.9032,118.9988 58.9062,118.7618 C58.9272,116.5618 57.1832,110.1638 57.1652,110.0988 C57.1032,109.8718 57.2362,109.6358 57.4652,109.5728 C57.6952,109.5118 57.9302,109.6458 57.9912,109.8738 C58.0642,110.1398 59.7852,116.4508 59.7642,118.7698 C59.7612,119.0058 59.5702,119.1948 59.3352,119.1948" id="Fill-33" fill="#434040"></path>
            <path d="M8.0305,110.4956 C7.4685,110.5146 6.9805,110.7246 6.6225,111.0996 C6.3645,111.3686 6.3015,111.7116 6.4485,112.0386 C6.7765,112.7716 8.2105,113.3036 9.2225,113.2686 C9.7055,113.2516 10.0775,113.1166 10.3285,112.8676 C10.6145,112.5836 10.6825,112.1986 10.5165,111.8136 C10.1985,111.0776 9.0365,110.4616 8.0305,110.4956" id="Fill-35" fill="#434040"></path>
            <g id="Group-39" transform="translate(58.000000, 117.000000)">
                <mask id="mask-2" fill="white">
                    <use xlink:href="#path-1"></use>
                </mask>
                <g id="Clip-38"></g>
                <path d="M5.7805,1.4809 C5.5665,0.7039 4.7445,0.2809 3.5255,0.3219 C2.5345,0.3549 1.3015,0.7149 0.8615,1.3389 C0.6945,1.5749 0.6485,1.8419 0.7285,2.0909 C1.0095,2.9729 2.5335,3.0179 3.1755,2.9969 C4.1025,2.9639 5.2375,2.7349 5.6435,2.1809 C5.7995,1.9719 5.8475,1.7229 5.7805,1.4809" id="Fill-37" fill="#434040" mask="url(#mask-2)"></path>
            </g>
            <path d="M17.261,45.2319 C17.261,45.2319 17.28,45.2569 17.316,45.3059 C17.349,45.3379 17.381,45.3629 17.473,45.4259 C17.644,45.5389 17.947,45.6689 18.343,45.8159 C19.144,46.0989 20.34,46.4079 21.786,46.7509 C22.509,46.9239 23.295,47.1159 24.139,47.2469 C24.561,47.3129 24.993,47.3889 25.444,47.4099 C25.894,47.4279 26.357,47.4139 26.824,47.4209 C27.756,47.4279 28.696,47.6649 29.669,47.7369 C30.641,47.8239 31.63,47.8469 32.617,47.9009 C33.603,47.9509 34.611,47.9989 35.542,47.6879 C36.462,47.4199 37.413,47.3449 38.156,46.9289 C38.519,46.7289 38.817,46.4639 38.925,46.1339 C39.064,45.8119 38.919,45.5579 38.622,45.3239 C38.009,44.8729 37.159,44.8309 36.47,44.6769 C35.05,44.3669 33.813,44.2319 32.954,44.1179 C32.091,44.0099 31.599,43.9489 31.599,43.9489 C31.497,43.9359 31.425,43.8429 31.438,43.7419 C31.449,43.6559 31.517,43.5899 31.6,43.5809 C31.6,43.5809 32.105,43.5219 32.989,43.5049 C33.871,43.4999 35.135,43.5189 36.654,43.7989 C37.408,43.9759 38.199,44.2879 38.994,44.8409 C39.187,44.9909 39.384,45.1839 39.502,45.4589 C39.622,45.7349 39.628,46.0619 39.537,46.3259 C39.384,46.8729 38.963,47.2809 38.532,47.5559 C37.642,48.0769 36.657,48.4049 35.642,48.4139 C34.624,48.3649 33.634,48.5099 32.622,48.5749 C31.614,48.6399 30.606,48.5889 29.615,48.5469 C28.628,48.4889 27.642,48.5429 26.716,48.3289 C26.253,48.2239 25.803,48.0929 25.362,47.9829 C24.919,47.8769 24.481,47.8199 24.057,47.7439 C23.205,47.5999 22.402,47.4649 21.658,47.3389 C20.178,47.0499 18.967,46.6729 18.147,46.2999 C17.735,46.1179 17.424,45.9289 17.223,45.7559 C17.128,45.6759 17.035,45.5719 16.995,45.5079 C16.966,45.4559 16.95,45.4279 16.95,45.4279 C16.902,45.3389 16.934,45.2269 17.022,45.1779 C17.104,45.1319 17.207,45.1589 17.261,45.2319" id="Fill-40" fill="#EACCCC"></path>
            <g id="Group-44" transform="translate(0.000000, 45.000000)">
                <mask id="mask-4" fill="white">
                    <use xlink:href="#path-3"></use>
                </mask>
                <g id="Clip-43"></g>
                <path d="M5.5159,3.1977 C5.5159,3.1977 5.2199,3.2257 4.6679,3.3437 C4.1219,3.4687 3.3059,3.6637 2.3849,4.1277 C1.9349,4.3667 1.4549,4.6827 1.0839,5.1427 C0.8999,5.3727 0.7479,5.6377 0.6539,5.9337 C0.6049,6.1067 0.5709,6.1927 0.6009,6.3127 C0.6209,6.4347 0.6869,6.5757 0.7719,6.7137 C1.5519,7.8207 3.0269,8.7607 4.5809,9.6537 C6.1669,10.5417 7.9639,11.3897 9.9329,12.1037 C10.9129,12.4717 11.9389,12.8017 13.0029,13.0827 C14.0699,13.3547 15.1729,13.5677 16.2869,13.8077 C18.5189,14.2567 20.8089,14.8247 23.1899,15.0967 C25.5669,15.3907 27.9979,15.5007 30.4309,15.5087 C32.8629,15.5047 35.3139,15.3067 37.6239,14.6637 C39.9489,14.1257 42.2309,13.5587 44.3489,12.7247 C46.4629,11.8977 48.4659,10.9277 50.1109,9.6867 C51.7509,8.4327 52.9109,6.7857 53.3999,5.1627 C53.6379,4.3497 53.6789,3.5227 53.4709,2.8087 C53.2749,2.0937 52.8179,1.5197 52.2579,1.2187 C51.6969,0.9167 51.0569,0.8747 50.4909,1.0087 C49.9189,1.1357 49.4219,1.4087 49.0099,1.7017 C48.1789,2.2947 47.6429,2.9407 47.2979,3.3817 C46.9559,3.8287 46.7939,4.0857 46.7939,4.0857 C46.7409,4.1717 46.6269,4.1977 46.5409,4.1427 C46.4589,4.0927 46.4329,3.9867 46.4769,3.9027 L46.4819,3.8947 C46.4809,3.8937 46.6259,3.6207 46.9469,3.1297 C47.2749,2.6487 47.7669,1.9247 48.6449,1.2147 C49.0869,0.8687 49.6349,0.5257 50.3209,0.3367 C50.9949,0.1447 51.8459,0.1307 52.6199,0.5257 C53.3889,0.9117 54.0079,1.6727 54.2759,2.5657 C54.5549,3.4587 54.5369,4.4647 54.2579,5.4107 C53.7119,7.3467 52.1719,8.8907 50.4829,10.1737 C48.7709,11.4847 46.7419,12.4727 44.6169,13.3887 C42.4749,14.2707 40.1819,15.0427 37.7739,15.4297 C35.3519,15.7107 32.9139,16.0237 30.4489,16.1507 C27.9849,16.2887 25.5119,16.1547 23.0979,15.8987 C20.6889,15.6227 18.3009,15.3427 16.0689,14.7127 C14.9499,14.4137 13.8739,14.0327 12.8269,13.6627 C11.7759,13.3007 10.7509,12.9397 9.7579,12.5777 C7.7809,11.8267 5.9309,11.0547 4.2939,10.1767 C3.4739,9.7417 2.7139,9.2707 2.0199,8.7707 C1.3309,8.2637 0.6909,7.7407 0.2509,7.0247 C0.1469,6.8427 0.0519,6.6447 0.0149,6.4097 C0.0039,6.3517 0.0019,6.2897 -0.0001,6.2287 C0.0009,6.1637 0.0099,6.0717 0.0189,6.0417 C0.0429,5.9177 0.0749,5.8447 0.1039,5.7467 C0.2309,5.3817 0.4269,5.0577 0.6539,4.7897 C1.1119,4.2517 1.6579,3.9177 2.1539,3.6677 C3.1609,3.1797 4.0179,3.0307 4.5919,2.9337 C5.1699,2.8437 5.4869,2.8317 5.4869,2.8317 L5.4919,2.8317 C5.5929,2.8277 5.6779,2.9067 5.6829,3.0087 C5.6859,3.1057 5.6129,3.1887 5.5159,3.1977" id="Fill-42" fill="#EACCCC" mask="url(#mask-4)"></path>
            </g>
            <g id="Group-47" transform="translate(47.000000, 55.000000)">
                <mask id="mask-6" fill="white">
                    <use xlink:href="#path-5"></use>
                </mask>
                <g id="Clip-46"></g>
                <path d="M1.638,10.6264 C1.638,10.6264 1.561,10.9924 1.468,11.6944 C1.381,12.3954 1.265,13.4324 1.297,14.7384 C1.325,15.3884 1.384,16.1154 1.615,16.8424 C1.832,17.5604 2.277,18.3074 3.057,18.5494 C3.832,18.8044 4.789,18.5694 5.71,18.1924 C6.617,17.7944 7.539,17.1994 8.464,16.5544 C10.312,15.2384 12.242,13.6894 14.257,12.0204 C15.268,11.1874 16.304,10.3294 17.351,9.4364 C18.397,8.5394 19.451,7.6024 20.575,6.7094 C22.816,4.9114 25.354,3.3174 28.101,2.0024 C29.48,1.3594 30.938,0.8064 32.493,0.5624 C33.271,0.4414 34.07,0.3994 34.865,0.4884 C35.655,0.5824 36.451,0.8314 37.146,1.1814 C38.549,1.8324 39.876,2.7364 40.901,3.9264 C41.91,5.1154 42.614,6.6244 42.683,8.2254 C42.752,9.8274 42.152,11.3844 41.253,12.6244 C40.341,13.8694 39.135,14.8554 37.794,15.4944 C37.13,15.8164 36.412,16.0504 35.735,16.2234 C35.031,16.3974 34.334,16.5474 33.587,16.5424 C33.218,16.5314 32.821,16.5024 32.428,16.2444 C32.236,16.1144 32.063,15.8784 32.03,15.6204 C31.989,15.3624 32.06,15.1424 32.143,14.9544 C32.513,14.2194 33.145,13.8264 33.774,13.5234 C34.419,13.2354 35.086,13.0724 35.812,13.1094 C36.695,13.2854 37.112,13.8824 37.502,14.4054 C38.239,15.5094 38.584,16.7334 38.738,17.9134 C39.025,20.2894 38.469,22.4974 37.586,24.1974 C36.692,25.9094 35.493,27.1194 34.447,27.9794 C33.384,28.8344 32.446,29.3484 31.809,29.6844 C31.166,30.0164 30.814,30.1674 30.814,30.1664 L30.808,30.1694 C30.714,30.2094 30.606,30.1654 30.567,30.0724 C30.528,29.9824 30.568,29.8794 30.653,29.8364 C30.653,29.8364 30.991,29.6664 31.598,29.3064 C32.201,28.9434 33.075,28.3794 34.052,27.5144 C35.027,26.6544 36.099,25.4574 36.886,23.8454 C37.682,22.2494 38.13,20.1984 37.852,18.0224 C37.714,16.9464 37.431,15.8134 36.857,14.8194 C36.582,14.3474 36.146,13.8534 35.748,13.7684 C35.204,13.7224 34.573,13.8444 34.024,14.0774 C33.488,14.3274 32.94,14.7254 32.714,15.2114 C32.604,15.4674 32.63,15.6134 32.793,15.7254 C32.972,15.8464 33.286,15.9004 33.597,15.8974 C34.228,15.8974 34.905,15.7564 35.553,15.5744 C36.23,15.3844 36.86,15.1614 37.474,14.8484 C39.92,13.6314 41.825,11.0624 41.92,8.2294 C42.002,6.8204 41.491,5.3564 40.502,4.2684 C39.545,3.1464 38.243,2.3624 36.876,1.7754 C35.541,1.1484 34.06,1.0764 32.616,1.3164 C31.17,1.5594 29.777,2.0994 28.45,2.7334 C25.79,4.0314 23.454,5.8244 21.122,7.4384 C19.962,8.2584 18.812,9.0614 17.718,9.8914 C16.625,10.7214 15.588,11.5754 14.577,12.4084 C12.552,14.0654 10.673,15.6854 8.803,17.0284 C7.863,17.6984 6.947,18.3134 5.95,18.7664 C4.976,19.1864 3.882,19.4564 2.864,19.1154 C2.363,18.9464 1.946,18.6044 1.664,18.2184 C1.375,17.8314 1.213,17.4074 1.089,17.0044 C0.847,16.1914 0.803,15.4304 0.787,14.7514 C0.768,13.3914 0.942,12.3424 1.06,11.6324 C1.184,10.9234 1.28,10.5464 1.28,10.5464 C1.302,10.4474 1.402,10.3864 1.5,10.4094 C1.596,10.4314 1.657,10.5294 1.638,10.6264" id="Fill-45" fill="#EACCCC" mask="url(#mask-6)"></path>
            </g>
            <path d="M14.928,42.06 C14.928,42.06 15.743,45.034 16.181,45.304 C16.619,45.576 17.744,45.038 17.806,44.749 C17.867,44.461 17.409,41.476 17.409,41.476 C17.409,41.476 15.571,42.039 14.928,42.06" id="Fill-48" fill="#C9ADB6"></path>
            <path d="M19.511,23.1313 C20.146,24.7763 19.133,31.2633 21.125,39.6383 C21.352,40.5913 19.924,41.7353 18.299,42.3253 L18.244,42.1053 C15.932,30.0553 17.19,23.6123 17.949,22.4593 C18.436,22.5553 18.844,22.7073 19.165,22.8763 C19.283,22.9443 19.402,23.0333 19.511,23.1313" id="Fill-50" fill="#C6546D"></path>
            <path d="M18.2444,42.1049 L18.2994,42.3259 C17.2534,42.7089 15.8794,42.8389 14.1884,42.5159 C9.8884,41.6849 8.6724,32.2849 10.3274,26.9999 C11.4834,23.3179 14.3964,22.2819 16.7014,22.3259 C17.1464,22.3359 17.5744,22.3839 17.9494,22.4589 C17.7254,23.2429 15.9314,30.0549 18.2444,42.1049" id="Fill-52" fill="#E16278"></path>
        </g>
    </g>
</svg>