<?xml version="1.0" encoding="UTF-8"?>
<svg width="480px" height="360px" viewBox="0 0 480 360" version="1.1" xmlns="http://www.w3.org/2000/svg" xmlns:xlink="http://www.w3.org/1999/xlink" style="background: #FFFFFF;">
    <!-- Generator: Sketch 48.2 (47327) - http://www.bohemiancoding.com/sketch -->
    <title>Village1</title>
    <desc>Created with Sketch.</desc>
    <defs>
        <polygon id="path-1" points="0.276666667 1.22266667 291.781333 1.22266667 291.781333 89.7506667 0.276666667 89.7506667"></polygon>
        <polygon id="path-3" points="0 480 479.781333 480 479.781333 0 0 0"></polygon>
    </defs>
    <g id="备份" stroke="none" stroke-width="1" fill="none" fill-rule="evenodd">
        <g id="Village1">
            <g id="Page-1" transform="translate(0.000000, -120.000000)">
                <polygon id="Fill-1" fill="#A8F3FB" points="0 196.174667 479.781333 196.174667 479.781333 10.656 0 10.656"></polygon>
                <g id="Group-136">
                    <polygon id="Fill-5" fill="#5FBCDD" points="0 133.854667 28.4173333 168.648 59.26 143.242667 123.625333 184.738667 142.398667 167.306667 183.969333 192.784 0 199.596"></polygon>
                    <g id="Group-9" transform="translate(188.000000, 121.333333)">
                        <mask id="mask-2" fill="white">
                            <use xlink:href="#path-1"></use>
                        </mask>
                        <g id="Clip-8"></g>
                        <polygon id="Fill-7" fill="#5FBCDD" mask="url(#mask-2)" points="0.276666667 72.5186667 54.126 34.8546667 126.439333 43.2093333 169.260667 13.756 215.214 22.1106667 253.858 1.22266667 291.782 22.1106667 291.782 89.7506667 156.082 76.8253333"></polygon>
                    </g>
                    <polygon id="Fill-10" fill="#FFFFFF" points="0 133.854667 41.8266667 161.941333 28.4173333 168.648"></polygon>
                    <polygon id="Fill-12" fill="#FFFFFF" points="357.2604 135.089067 403.213733 143.445067 379.981733 167.027733 381.4164 162.259733"></polygon>
                    <polygon id="Fill-14" fill="#FFFFFF" points="441.857333 122.556533 479.781333 131.9552 479.781333 162.977867"></polygon>
                    <polygon id="Fill-16" fill="#FFFFFF" points="242.126267 156.188 314.4396 164.542667 292.7876 175.038667 286.442267 177.336 280.898267 172.621333"></polygon>
                    <polygon id="Fill-18" fill="#FFFFFF" points="123.6256 184.7388 121.502933 186.6708 63.2829333 171.329467 59.2602667 143.2428"></polygon>
                    <polygon id="Fill-20" fill="#FFFFFF" points="183.968667 192.784267 150.222 181.146933 150.222 183.800267 155.967333 187.3896 155.967333 189.542933 145.914 186.670933 142.399333 167.306933"></polygon>
                    <mask id="mask-4" fill="white">
                        <use xlink:href="#path-3"></use>
                    </mask>
                    <g id="Clip-23"></g>
                    <polygon id="Fill-22" fill="#249E30" mask="url(#mask-4)" points="0 480.001333 479.781333 480.001333 479.781333 203.585333 0 203.585333"></polygon>
                    <path d="M479.781867,384.120267 C479.781867,384.120267 328.5072,365.3216 277.892533,357.3976 C255.337867,353.866933 236.381867,335.296267 194.020533,350.3736 C181.008533,355.0056 170.124533,360.546933 162.428533,364.7336 C144.345867,374.570933 114.3232,387.326933 82.6818667,379.4296 C74.5072,377.3896 50.0832,370.950933 41.8058667,369.3776 C29.2858667,366.998933 0.000533333333,373.9656 0.000533333333,373.9656 L0.000533333333,336.922933 L217.584533,291.256267 L479.781867,313.784267 L479.781867,384.120267 Z" id="Fill-24" fill="#6BCF2F" mask="url(#mask-4)"></path>
                    <path d="M0,216.980933 L0,272.112933 L0,309.042267 L153.705333,226.118267 L250.872,240.308933 L107.648,327.8916 C107.648,327.8916 132.906667,327.874267 141.110667,326.1836 C152.010667,323.9396 172.084,315.8716 182.846667,313.038267 C229.202667,300.832933 279.56,324.178267 279.56,324.178267 L371.830667,268.934267 L442.956,264.0556 L349.413333,327.5116 C349.413333,327.5116 412.086667,313.9236 433.330667,314.128933 C445.456,314.244933 479.781333,322.692933 479.781333,322.692933 L479.781333,310.698267 L479.781333,304.5516 L479.781333,217.410267 L0,216.980933 Z" id="Fill-25" fill="#6CD5E0" mask="url(#mask-4)"></path>
                    <path d="M371.83,268.934 L279.559333,324.179333 C279.559333,324.179333 286.575333,327.059333 296.694,328.654 C329.720667,333.859333 347.871333,327.758 347.871333,327.758 L349.414,327.512667 L442.955333,264.055333 L371.83,268.934 Z" id="Fill-26" fill="#A8F3FB" mask="url(#mask-4)"></path>
                    <path d="M153.705067,226.1176 L-0.000266666667,309.0416 L-0.000266666667,310.698933 L-0.000266666667,337.006933 C-0.000266666667,337.006933 10.9317333,340.3216 30.5557333,338.8856 C40.2850667,338.1736 63.2597333,331.562933 72.6797333,329.9256 C82.5237333,328.214933 107.647733,327.890933 107.647733,327.890933 L250.871733,240.3096 L153.705067,226.1176 Z" id="Fill-27" fill="#5BB6CE" mask="url(#mask-4)"></path>
                    <path d="M0,185.9536 C0,185.9536 36.9626667,184.612267 54.012,186.960267 C60.8053333,187.896267 111.057333,191.504267 117.913333,191.6976 C168.890667,193.1336 225.538667,183.7576 263.666667,184.5176 C291.646667,185.076267 340.666667,196.602933 368.493333,199.594933 C398.694667,202.842933 479.781333,206.360267 479.781333,206.360267 L479.781333,253.1456 L0,227.9856 L0,185.9536 Z" id="Fill-28" fill="#BDF953" mask="url(#mask-4)"></path>
                    <path d="M479.781867,201.031733 C479.781867,201.031733 448.205867,204.207733 431.676533,202.467733 C420.609867,201.3024 395.8472,193.133067 362.749867,193.133067 C338.337867,193.133067 298.8472,205.3384 265.460533,204.981067 C244.432533,204.7544 196.5712,201.469067 175.924533,205.461067 C161.7112,208.211733 143.0432,213.9544 143.0432,213.9544 L179.5152,212.2824 L180.5912,218.745067 L283.6232,218.745067 C283.6232,218.745067 357.937867,229.245067 382.7072,227.955733 C392.593867,227.4424 411.977867,222.757067 421.837867,221.853067 C436.5872,220.5024 479.781867,218.0264 479.781867,218.0264 L479.781867,201.031733 Z" id="Fill-29" fill="#D0F975" mask="url(#mask-4)"></path>
                    <path d="M0,234.169733 L0,211.801733 C0,211.801733 18.8626667,213.9204 24.336,214.919067 C37.3333333,217.2884 63.5173333,219.415067 76.7213333,218.9804 C87.1733333,218.637733 137.064,212.0364 142.325333,211.801733 C149.626667,211.475067 159.729333,210.8644 166.972,209.869733 C194.738667,206.057733 213.570667,213.691067 237.1,216.827067 C269.409333,221.135067 338.337333,216.109733 338.337333,216.109733 L345.517333,239.085733 L167.609333,241.297733 L61.2413333,241.769733 L0,234.169733 Z" id="Fill-30" fill="#BAEA42" mask="url(#mask-4)"></path>
                    <path d="M29.0949333,250.822133 C39.9349333,251.735467 61.2976,254.806133 72.1749333,254.8808 C84.2082667,254.962133 119.9216,250.822133 119.9216,250.822133 C119.9216,250.822133 152.0336,252.054133 162.6416,250.822133 C168.8696,250.099467 180.7856,245.235467 187.0536,245.078133 C195.262933,244.874133 219.362933,251.002133 219.362933,251.002133 L221.876267,254.771467 C221.876267,254.771467 250.044267,260.422133 259.570933,261.234133 C263.416267,261.5608 275.008267,261.234133 275.008267,261.234133 L276.6296,264.4768 L270.8456,262.779467 L267.9736,268.522133 C267.9736,268.522133 298.1296,275.702133 319.6696,276.4208 C360.668267,277.787467 479.7816,281.447467 479.7816,281.447467 L479.7816,249.7448 L209.670933,240.0528 L209.670933,242.566133 L187.0536,238.8968 L143.570933,240.6408 L143.212267,237.7688 L103.048267,238.6168 L0.000266666667,234.1688 L0.000266666667,251.291467 C0.000266666667,251.291467 22.5069333,250.2688 29.0949333,250.822133" id="Fill-31" fill="#579B9B" mask="url(#mask-4)"></path>
                    <path d="M29.0949333,244.639733 C39.9349333,245.551733 61.2976,250.667733 72.1749333,250.7424 C84.2082667,250.825067 119.9216,244.639733 119.9216,244.639733 C119.9216,244.639733 152.0336,245.871733 162.6416,244.639733 C168.8696,243.917067 180.7856,239.051733 187.0536,238.895733 C195.262933,238.691733 219.362933,244.819733 219.362933,244.819733 L221.876267,248.589067 C221.876267,248.589067 250.044267,254.239733 259.570933,255.0504 C263.416267,255.3784 275.008267,255.0504 275.008267,255.0504 L276.802933,258.641067 L270.8456,262.7784 L271.4176,264.025067 C271.4176,264.025067 305.5856,269.365067 317.010933,269.9584 C357.9776,272.089067 479.7816,270.8464 479.7816,270.8464 L479.7816,227.597067 L384.142933,231.357067 L327.732267,229.7504 C327.732267,229.7504 300.1856,229.145067 281.616267,227.203733 C257.9216,224.725067 236.3816,226.161067 207.874933,228.843733 C192.7456,230.267733 169.608267,236.2144 129.400267,228.315733 C115.240267,225.533067 87.7616,230.503733 73.3976,231.905067 C43.9589333,234.777067 0.000266666667,227.9864 0.000266666667,227.9864 L0.000266666667,243.921067 C0.000266666667,243.921067 22.5069333,244.085067 29.0949333,244.639733" id="Fill-32" fill="#FEE250" mask="url(#mask-4)"></path>
                    <polygon id="Fill-33" fill="#9BB6BC" mask="url(#mask-4)" points="305.989467 237.578533 305.989467 238.951867 307.257467 238.951867 307.257467 251.946533 361.136133 251.946533 372.333467 245.3972 372.333467 223.2132 375.080133 221.310533 375.080133 219.7252 361.981467 224.479867 315.8148 224.586533 315.709467 225.9572 317.293467 226.063867 317.188133 237.262533"></polygon>
                    <polygon id="Fill-34" fill="#C12C27" mask="url(#mask-4)" points="338.633467 215.077333 352.473467 215.077333 375.080133 219.725333 362.0388 224.586667 315.8148 224.586667"></polygon>
                    <polygon id="Fill-35" fill="#9BB6BC" mask="url(#mask-4)" points="341.909333 215.077333 345.448 215.077333 345.448 210.430667 341.909333 210.430667"></polygon>
                    <polygon id="Fill-36" fill="#E9F1F3" mask="url(#mask-4)" points="345.446667 215.077333 347.190667 215.077333 347.190667 210.430667 345.446667 210.430667"></polygon>
                    <polygon id="Fill-37" fill="#32262C" mask="url(#mask-4)" points="324.689333 245.185333 326.908 245.185333 326.908 239.902667 324.689333 239.902667"></polygon>
                    <polygon id="Fill-38" fill="#0F0C16" mask="url(#mask-4)" points="327.788 245.185333 331.908 245.185333 331.908 239.902667 327.788 239.902667"></polygon>
                    <polygon id="Fill-39" fill="#0F0C16" mask="url(#mask-4)" points="332.998667 245.185333 335.006667 245.185333 335.006667 239.902667 332.998667 239.902667"></polygon>
                    <polygon id="Fill-40" fill="#2D404C" mask="url(#mask-4)" points="348.494667 232.932 352.614667 232.932 352.614667 227.649333 348.494667 227.649333"></polygon>
                    <polygon id="Fill-41" fill="#2D404C" mask="url(#mask-4)" points="353.705333 232.932 355.712 232.932 355.712 227.649333 353.705333 227.649333"></polygon>
                    <polygon id="Fill-42" fill="#FFFFFF" mask="url(#mask-4)" points="362.038933 224.5864 362.1216 226.101067 360.854933 226.101067 361.136267 251.947733 372.3336 245.397067 372.3336 223.213067 375.080267 221.3104 375.080267 219.725067"></polygon>
                    <path d="M307.257067,251.947067 L307.257067,257.611067 L347.191733,260.073733 C347.191733,260.073733 363.1744,253.5004 368.711733,251.947067 C369.719733,251.663067 372.8264,251.1724 372.8264,251.1724 L372.3344,245.397733 L361.135733,251.947067 L307.257067,251.947067 Z" id="Fill-43" fill="#2F4254" mask="url(#mask-4)"></path>
                    <polygon id="Fill-44" fill="#86201B" mask="url(#mask-4)" points="393.849467 192.557733 438.220133 192.557733 449.9108 216.081733 406.104133 219.4964 394.6948 194.9524 383.989467 214.637733 382.721467 213.123067"></polygon>
                    <polygon id="Fill-45" fill="#FFFFFF" mask="url(#mask-4)" points="406.245333 240.309067 406.105333 219.497067 448.909333 216.159733 448.502667 236.7864"></polygon>
                    <polygon id="Fill-46" fill="#9BB6BC" mask="url(#mask-4)" points="384.412 235.0968 406.245333 240.3088 406.105333 219.4968 394.694667 194.9528 383.989333 214.6368"></polygon>
                    <polygon id="Fill-47" fill="#32262C" mask="url(#mask-4)" points="441.608667 237.4184 436.811333 237.8264 436.811333 221.127733 442.040667 220.969067"></polygon>
                    <polygon id="Fill-48" fill="#32262C" mask="url(#mask-4)" points="422.477733 222.003067 422.477733 230.231067 431.051067 229.885733 431.051067 222.003067"></polygon>
                    <polygon id="Fill-49" fill="#777057" mask="url(#mask-4)" points="414.594933 223.326 414.306933 230.922 409.128267 231.208667 409.128267 223.326"></polygon>
                    <polygon id="Fill-50" fill="#2D404C" mask="url(#mask-4)" points="393.650933 206.027867 393.650933 213.0852 391.866933 213.0852 392.212267 206.027867"></polygon>
                    <polygon id="Fill-51" fill="#2D404C" mask="url(#mask-4)" points="395.778667 213.430667 397.736 213.430667 397.736 206.028 395.778667 206.028"></polygon>
                    <path d="M384.412,235.0968 L384.952,245.483467 L396.758667,248.139467 C396.758667,248.139467 404.66,245.0808 407.412,244.4888 C409.422667,244.055467 413.58,244.094133 415.601333,243.714133 C418.642667,243.139467 424.438667,240.722133 427.506667,240.3088 C432.708,239.6088 448.496,240.534133 448.496,240.534133 L448.502667,236.787467 L406.245333,240.3088 L384.412,235.0968 Z" id="Fill-52" fill="#2F4254" mask="url(#mask-4)"></path>
                    <path d="M398.649067,361.8624 C339.955733,387.131733 294.7384,387.3544 265.0384,388.293067 C192.585067,390.581067 154.531733,480.001067 154.531733,480.001067 L479.7824,480.001067 L479.7824,353.963733 C479.7824,353.963733 450.343733,339.605067 398.649067,361.8624" id="Fill-53" fill="#117218" mask="url(#mask-4)"></path>
                    <path d="M275.157467,354.967867 C275.0108,351.190533 279.256133,344.311867 286.632133,341.0332 C299.189467,335.451867 309.584133,335.295867 317.701467,346.4892 C323.0708,353.891867 319.3428,362.0892 315.433467,364.2892 C308.9108,367.9612 288.873467,368.326533 281.7188,366.123867 C278.6268,365.171867 275.3948,361.074533 275.157467,354.967867" id="Fill-54" fill="#1F422E" mask="url(#mask-4)"></path>
                    <path d="M278.0032,348.430133 C277.537867,346.3888 281.697867,341.486133 284.916533,338.855467 C292.400533,332.742133 303.8712,333.567467 307.7352,336.559467 C312.0512,339.899467 310.3952,344.814133 307.7992,346.682133 C303.465867,349.799467 289.116533,353.4048 283.772533,353.415467 C281.4632,353.422133 278.753867,351.731467 278.0032,348.430133" id="Fill-55" fill="#1C9358" mask="url(#mask-4)"></path>
                    <path d="M338.673733,361.435333 C338.177733,358.278 331.225733,351.643333 328.171067,350.699333 C322.437733,348.928667 308.509733,353.404667 305.505733,358.598 C299.1204,369.631333 303.315067,373.223333 307.107067,373.982 C313.311067,375.224667 329.969733,375.391333 335.187067,371.81 C337.443067,370.262 339.097733,364.138 338.673733,361.435333" id="Fill-56" fill="#117218" mask="url(#mask-4)"></path>
                    <path d="M325.7096,347.956133 C321.160267,346.0428 309.230933,352.096133 306.932267,355.6188 C302.0496,363.101467 305.756267,364.7388 308.9936,364.713467 C314.290933,364.6748 328.366933,362.652133 332.606933,359.8228 C334.4416,358.600133 334.366933,351.5988 325.7096,347.956133" id="Fill-57" fill="#249E30" mask="url(#mask-4)"></path>
                    <path d="M358.0436,342.788267 C358.7036,340.236267 363.3476,336.620267 365.792933,335.640267 C372.688933,332.8776 381.210267,334.7016 382.860933,338.708267 C384.8956,343.648267 383.1076,347.338933 380.884933,348.4496 C376.354267,350.7136 365.628933,349.2416 360.626267,348.4496 C359.090267,348.2056 356.892933,347.2376 358.0436,342.788267" id="Fill-58" fill="#117218" mask="url(#mask-4)"></path>
                    <path d="M381.290933,337.947067 C381.018933,336.387067 378.508267,333.379067 376.550933,332.9604 C372.878933,332.1684 363.8216,334.609733 361.8016,337.235067 C357.5096,342.811067 362.666933,343.393733 365.1016,343.709733 C369.0856,344.229733 375.456267,345.0084 378.8776,343.149733 C380.358933,342.347067 381.522933,339.281733 381.290933,337.947067" id="Fill-59" fill="#249E30" mask="url(#mask-4)"></path>
                    <polygon id="Fill-60" fill="#F1F2F2" mask="url(#mask-4)" points="93.7666667 207.165333 95.292 207.165333 95.292 202.901333 93.7666667 202.901333"></polygon>
                    <polygon id="Fill-61" fill="#C12C27" mask="url(#mask-4)" points="74.4634667 205.819467 73.9488 209.0448 74.6288 209.070133 102.835467 209.647467 102.835467 206.475467"></polygon>
                    <polygon id="Fill-62" fill="#F1F2F2" mask="url(#mask-4)" points="75.0097333 218.9952 75.1737333 218.9952 102.117733 216.8272 102.117733 209.6472 75.0097333 209.084533"></polygon>
                    <polygon id="Fill-63" fill="#2D404C" mask="url(#mask-4)" points="79.712 213.473333 81.2973333 213.473333 81.2973333 212.325333 79.712 212.325333"></polygon>
                    <polygon id="Fill-64" fill="#2D404C" mask="url(#mask-4)" points="94.3613333 214.04 96.22 214.04 96.22 213.145333 94.3613333 213.145333"></polygon>
                    <polygon id="Fill-65" fill-opacity="0.5" fill="#2F4D0D" mask="url(#mask-4)" points="347.191333 260.073333 288.700667 262.058667 285.686 259.228 302.583333 249.416 307.256667 249.416 307.256667 257.610667"></polygon>
                    <polygon id="Fill-66" fill-opacity="0.3" fill="#2F4D0D" mask="url(#mask-4)" points="396.7584 248.139733 372.8264 251.171733 372.3344 245.397067 372.3344 241.6184 384.611733 238.945067 384.951733 245.483733"></polygon>
                    <path d="M441.9016,329.9328 C441.9016,332.895467 435.8976,335.295467 428.490933,335.295467 C421.0856,335.295467 415.0816,332.895467 415.0816,329.9328 C415.0816,326.9688 421.0856,324.5688 428.490933,324.5688 C435.8976,324.5688 441.9016,326.9688 441.9016,329.9328" id="Fill-67" fill-opacity="0.5" fill="#2F4D0D" mask="url(#mask-4)"></path>
                    <polygon id="Fill-68" fill="#4D1717" mask="url(#mask-4)" points="427.078667 331.005333 430.44 331.005333 430.44 304.121333 427.078667 304.121333"></polygon>
                    <path d="M428.491467,264.215333 C427.975467,264.215333 427.466133,264.298 426.963467,264.452667 C419.1808,266.859333 413.1008,287.091333 413.1008,300.492667 C413.1008,314.532667 419.7768,315.843333 428.091467,315.880667 C428.2248,315.882 428.3568,315.883333 428.491467,315.883333 C436.991467,315.883333 443.882133,314.759333 443.882133,300.492667 C443.882133,286.224667 436.991467,264.215333 428.491467,264.215333" id="Fill-69" fill="#249E30" mask="url(#mask-4)"></path>
                    <path d="M439.110533,305.646267 C436.591867,309.6596 430.818533,310.570267 430.818533,310.570267 C430.818533,310.570267 429.1292,304.974267 431.647867,300.962267 C434.166533,296.948933 439.9412,296.036933 439.9412,296.036933 C439.9412,296.036933 441.630533,301.632933 439.110533,305.646267" id="Fill-70" fill="#117218" mask="url(#mask-4)"></path>
                    <path d="M437.072133,288.651467 C435.3348,292.422133 430.421467,293.862133 430.421467,293.862133 C430.421467,293.862133 428.3228,289.191467 430.060133,285.4208 C431.796133,281.650133 436.7108,280.2088 436.7108,280.2088 C436.7108,280.2088 438.809467,284.8808 437.072133,288.651467" id="Fill-71" fill="#117218" mask="url(#mask-4)"></path>
                    <path d="M433.565733,274.444533 C432.545733,276.4992 429.8084,277.217867 429.8084,277.217867 C429.8084,277.217867 428.723067,274.601867 429.743067,272.5472 C430.763067,270.4912 433.5004,269.773867 433.5004,269.773867 C433.5004,269.773867 434.585733,272.388533 433.565733,274.444533" id="Fill-72" fill="#117218" mask="url(#mask-4)"></path>
                    <path d="M417.960267,305.646267 C420.478933,309.6596 426.2536,310.570267 426.2536,310.570267 C426.2536,310.570267 427.942933,304.974267 425.422933,300.962267 C422.904267,296.948933 417.130933,296.036933 417.130933,296.036933 C417.130933,296.036933 415.4416,301.632933 417.960267,305.646267" id="Fill-73" fill="#117218" mask="url(#mask-4)"></path>
                    <path d="M419.999333,288.651467 C421.736667,292.422133 426.65,293.862133 426.65,293.862133 C426.65,293.862133 428.748667,289.191467 427.011333,285.4208 C425.274,281.650133 420.360667,280.2088 420.360667,280.2088 C420.360667,280.2088 418.262,284.8808 419.999333,288.651467" id="Fill-74" fill="#117218" mask="url(#mask-4)"></path>
                    <path d="M423.505733,274.444533 C424.525733,276.4992 427.263067,277.217867 427.263067,277.217867 C427.263067,277.217867 428.347067,274.601867 427.3284,272.5472 C426.3084,270.4912 423.571067,269.773867 423.571067,269.773867 C423.571067,269.773867 422.485733,272.388533 423.505733,274.444533" id="Fill-75" fill="#117218" mask="url(#mask-4)"></path>
                    <path d="M243.4316,363.755733 C243.4316,369.291733 232.208933,373.781067 218.3676,373.781067 C204.524933,373.781067 193.302267,369.291733 193.302267,363.755733 C193.302267,358.217067 204.524933,353.727733 218.3676,353.727733 C232.208933,353.727733 243.4316,358.217067 243.4316,363.755733" id="Fill-76" fill-opacity="0.5" fill="#2F4D0D" mask="url(#mask-4)"></path>
                    <polygon id="Fill-77" fill="#4D1717" mask="url(#mask-4)" points="216.246667 363.756 221.292 363.756 221.292 323.398667 216.246667 323.398667"></polygon>
                    <path d="M218.367067,263.496533 C217.591067,263.496533 216.8284,263.621867 216.0724,263.8552 C204.391067,267.4672 195.2644,297.8352 195.2644,317.953867 C195.2644,339.029867 205.285733,340.9952 217.765733,341.052533 C217.965733,341.053867 218.165733,341.0552 218.367067,341.0552 C231.125733,341.0552 241.469733,339.368533 241.469733,317.953867 C241.469733,296.5352 231.125733,263.496533 218.367067,263.496533" id="Fill-78" fill="#249E30" mask="url(#mask-4)"></path>
                    <path d="M234.307867,325.689333 C230.526533,331.714667 221.858533,333.081333 221.858533,333.081333 C221.858533,333.081333 219.323867,324.681333 223.1052,318.657333 C226.886533,312.633333 235.5532,311.265333 235.5532,311.265333 C235.5532,311.265333 238.0892,319.664 234.307867,325.689333" id="Fill-79" fill="#117218" mask="url(#mask-4)"></path>
                    <path d="M231.247333,300.1788 C228.639333,305.837467 221.263333,308.001467 221.263333,308.001467 C221.263333,308.001467 218.114,300.988133 220.720667,295.328133 C223.328667,289.668133 230.704667,287.504133 230.704667,287.504133 C230.704667,287.504133 233.854,294.517467 231.247333,300.1788" id="Fill-80" fill="#117218" mask="url(#mask-4)"></path>
                    <path d="M225.983067,278.852 C224.4524,281.936 220.343067,283.014667 220.343067,283.014667 C220.343067,283.014667 218.715067,279.090667 220.245733,276.004 C221.7764,272.92 225.885733,271.841333 225.885733,271.841333 C225.885733,271.841333 227.513733,275.766667 225.983067,278.852" id="Fill-81" fill="#117218" mask="url(#mask-4)"></path>
                    <path d="M202.558533,325.689333 C206.339867,331.714667 215.006533,333.081333 215.006533,333.081333 C215.006533,333.081333 217.543867,324.681333 213.759867,318.657333 C209.979867,312.633333 201.311867,311.265333 201.311867,311.265333 C201.311867,311.265333 198.7772,319.664 202.558533,325.689333" id="Fill-82" fill="#117218" mask="url(#mask-4)"></path>
                    <path d="M205.619067,300.1788 C208.227067,305.837467 215.603067,308.001467 215.603067,308.001467 C215.603067,308.001467 218.7524,300.988133 216.145733,295.328133 C213.537733,289.668133 206.161733,287.504133 206.161733,287.504133 C206.161733,287.504133 203.011067,294.517467 205.619067,300.1788" id="Fill-83" fill="#117218" mask="url(#mask-4)"></path>
                    <path d="M210.8828,278.852 C212.413467,281.936 216.524133,283.014667 216.524133,283.014667 C216.524133,283.014667 218.1508,279.090667 216.620133,276.004 C215.089467,272.92 210.980133,271.841333 210.980133,271.841333 C210.980133,271.841333 209.352133,275.766667 210.8828,278.852" id="Fill-84" fill="#117218" mask="url(#mask-4)"></path>
                    <path d="M71.9614667,347.9328 C71.9614667,351.422133 64.8894667,354.251467 56.1654667,354.251467 C47.4414667,354.251467 40.3694667,351.422133 40.3694667,347.9328 C40.3694667,344.443467 47.4414667,341.614133 56.1654667,341.614133 C64.8894667,341.614133 71.9614667,344.443467 71.9614667,347.9328" id="Fill-85" fill-opacity="0.5" fill="#2F4D0D" mask="url(#mask-4)"></path>
                    <polygon id="Fill-86" fill="#4D1717" mask="url(#mask-4)" points="54.724 347.501333 58.156 347.501333 58.156 320.045333 54.724 320.045333"></polygon>
                    <path d="M56.166,279.292133 C55.638,279.292133 55.1193333,279.377467 54.6046667,279.536133 C46.658,281.993467 40.4486667,302.653467 40.4486667,316.341467 C40.4486667,330.681467 47.266,332.017467 55.7566667,332.056133 C55.8926667,332.057467 56.0286667,332.057467 56.166,332.057467 C64.846,332.057467 71.8833333,330.912133 71.8833333,316.341467 C71.8833333,301.769467 64.846,279.292133 56.166,279.292133" id="Fill-87" fill="#249E30" mask="url(#mask-4)"></path>
                    <path d="M67.0104,321.604667 C64.4370667,325.703333 58.5410667,326.632667 58.5410667,326.632667 C58.5410667,326.632667 56.8157333,320.918 59.3890667,316.820667 C61.9610667,312.722 67.8584,311.791333 67.8584,311.791333 C67.8584,311.791333 69.5837333,317.506 67.0104,321.604667" id="Fill-88" fill="#117218" mask="url(#mask-4)"></path>
                    <path d="M64.9282667,304.2492 C63.1549333,308.099867 58.1362667,309.570533 58.1362667,309.570533 C58.1362667,309.570533 55.9936,304.799867 57.7669333,300.9492 C59.5402667,297.098533 64.5602667,295.626533 64.5602667,295.626533 C64.5602667,295.626533 66.7029333,300.3972 64.9282667,304.2492" id="Fill-89" fill="#117218" mask="url(#mask-4)"></path>
                    <path d="M61.3469333,289.7388 C60.3056,291.837467 57.5096,292.5708 57.5096,292.5708 C57.5096,292.5708 56.4029333,289.901467 57.4442667,287.8028 C58.4856,285.704133 61.2816,284.9708 61.2816,284.9708 C61.2816,284.9708 62.3882667,287.640133 61.3469333,289.7388" id="Fill-90" fill="#117218" mask="url(#mask-4)"></path>
                    <path d="M45.4108,321.604667 C47.9828,325.703333 53.8801333,326.632667 53.8801333,326.632667 C53.8801333,326.632667 55.6054667,320.918 53.0321333,316.820667 C50.4601333,312.722 44.5628,311.791333 44.5628,311.791333 C44.5628,311.791333 42.8374667,317.506 45.4108,321.604667" id="Fill-91" fill="#117218" mask="url(#mask-4)"></path>
                    <path d="M47.4928,304.2492 C49.2674667,308.099867 54.2848,309.570533 54.2848,309.570533 C54.2848,309.570533 56.4274667,304.799867 54.6541333,300.9492 C52.8794667,297.098533 47.8608,295.626533 47.8608,295.626533 C47.8608,295.626533 45.7194667,300.3972 47.4928,304.2492" id="Fill-92" fill="#117218" mask="url(#mask-4)"></path>
                    <path d="M51.0741333,289.7388 C52.1154667,291.837467 54.9114667,292.5708 54.9114667,292.5708 C54.9114667,292.5708 56.0181333,289.901467 54.9768,287.8028 C53.9354667,285.704133 51.1394667,284.9708 51.1394667,284.9708 C51.1394667,284.9708 50.0328,287.640133 51.0741333,289.7388" id="Fill-93" fill="#117218" mask="url(#mask-4)"></path>
                    <path d="M155.815733,359.279067 C154.969067,350.873733 131.289067,352.699067 122.917067,351.5804 C114.0384,350.391067 88.3370667,350.3284 87.9197333,359.279067 C87.4917333,368.455067 113.731733,370.563067 122.917067,370.477733 C131.605067,370.397733 156.685067,367.921733 155.815733,359.279067" id="Fill-94" fill-opacity="0.5" fill="#2F4D0D" mask="url(#mask-4)"></path>
                    <polygon id="Fill-95" fill="#1F422E" mask="url(#mask-4)" points="93.052 308.688 121.964 249.485333 125.737333 257.598667 116.030667 277.472 134.98 277.472 137.984 283.930667 126.094667 283.930667 124.793333 283.930667 112.877333 283.930667 100.786667 308.688"></polygon>
                    <polygon id="Fill-96" fill="#1F422E" mask="url(#mask-4)" points="87.9198667 345.2856 122.0892 275.318933 125.459867 282.5656 112.702533 308.688267 137.6092 308.688267 140.6132 315.146933 109.547867 315.146933 94.8292 345.2856"></polygon>
                    <polygon id="Fill-97" fill="#1F422E" mask="url(#mask-4)" points="121.813733 231.186667 124.389733 236.725333 104.491067 277.472 99.2097333 277.472"></polygon>
                    <polygon id="Fill-98" fill="#4D1717" mask="url(#mask-4)" points="114.178667 359.278667 129.249333 359.278667 129.249333 337.750667 114.178667 337.750667"></polygon>
                    <polygon id="Fill-99" fill="#1C9358" mask="url(#mask-4)" points="124.389867 236.725733 143.341867 277.4724 134.980533 277.4724 116.0312 277.4724 104.4912 277.4724"></polygon>
                    <polygon id="Fill-100" fill="#1C9358" mask="url(#mask-4)" points="154.631467 345.2856 94.8288 345.2856 109.547467 315.146933 140.6128 315.146933"></polygon>
                    <polygon id="Fill-101" fill="#1C9358" mask="url(#mask-4)" points="112.8776 283.930133 124.7936 283.930133 126.094933 283.930133 137.984267 283.930133 149.500267 308.687467 137.6096 308.687467 112.702933 308.687467 100.786933 308.687467"></polygon>
                    <polygon id="Fill-102" fill="#1F422E" mask="url(#mask-4)" points="122.479733 247.1268 126.417067 253.585467 118.343733 253.585467"></polygon>
                    <polygon id="Fill-103" fill="#1F422E" mask="url(#mask-4)" points="129.479067 259.727067 133.4164 266.185733 125.343067 266.185733"></polygon>
                    <polygon id="Fill-104" fill="#1F422E" mask="url(#mask-4)" points="119.928933 267.784267 123.866267 274.242933 115.792933 274.242933"></polygon>
                    <polygon id="Fill-105" fill="#1F422E" mask="url(#mask-4)" points="137.878133 297.523867 141.8168 303.982533 133.742133 303.982533"></polygon>
                    <polygon id="Fill-106" fill="#1F422E" mask="url(#mask-4)" points="115.4804 296.823333 119.417733 303.283333 111.3444 303.283333"></polygon>
                    <polygon id="Fill-107" fill="#1F422E" mask="url(#mask-4)" points="126.037733 287.8364 129.9764 294.295067 121.903067 294.295067"></polygon>
                    <polygon id="Fill-108" fill="#1F422E" mask="url(#mask-4)" points="107.080667 318.522667 111.018 324.981333 102.944667 324.981333"></polygon>
                    <polygon id="Fill-109" fill="#1F422E" mask="url(#mask-4)" points="135.078667 334.7804 139.016 341.239067 130.942667 341.239067"></polygon>
                    <polygon id="Fill-110" fill="#1F422E" mask="url(#mask-4)" points="121.7792 322.721867 125.717867 329.180533 117.644533 329.180533"></polygon>
                    <polygon id="Fill-111" fill="#1F422E" mask="url(#mask-4)" points="110.580667 334.6216 114.518 341.080267 106.444667 341.080267"></polygon>
                    <polygon id="Fill-112" fill="#1F422E" mask="url(#mask-4)" points="137.878133 318.522667 141.8168 324.981333 133.742133 324.981333"></polygon>
                    <path d="M465.2948,248.018667 C465.093467,243.930667 453.4468,244.316 449.3548,244.288 C445.0148,244.258667 432.5988,243.681333 432.397467,248.018667 C432.189467,252.465333 444.904133,253.486667 449.3548,253.444 C453.564133,253.406667 465.501467,252.222667 465.2948,248.018667" id="Fill-113" fill-opacity="0.5" fill="#2F4D0D" mask="url(#mask-4)"></path>
                    <polygon id="Fill-114" fill="#823B17" mask="url(#mask-4)" points="445.12 248.018667 452.421333 248.018667 452.421333 237.588 445.12 237.588"></polygon>
                    <polygon id="Fill-115" fill="#1C9358" mask="url(#mask-4)" points="457.928267 226.634533 456.4736 223.5052 462.2336 223.5052 456.654933 211.5092 455.198933 208.3812 459.250933 208.3812 450.068267 188.6372 448.818933 185.9532 437.866933 208.3812 440.426933 208.3812 442.2696 208.3812 434.882933 223.5052 438.630933 223.5052 441.0576 223.5052 432.3976 241.238533 435.744267 241.238533 464.720267 241.238533"></polygon>
                    <path d="M59.7590667,222.2752 C59.8897333,220.9752 63.5404,221.093867 64.8470667,221.084533 C66.2324,221.076533 70.1230667,220.897867 70.2590667,222.2752 C70.3977333,223.689867 66.2670667,224.021867 64.8470667,224.0072 C63.5030667,223.9952 59.6244,223.612533 59.7590667,222.2752" id="Fill-116" fill-opacity="0.5" fill="#2F4D0D" mask="url(#mask-4)"></path>
                    <polygon id="Fill-117" fill="#823B17" mask="url(#mask-4)" points="63.868 222.274667 66.1986667 222.274667 66.1986667 218.946667 63.868 218.946667"></polygon>
                    <polygon id="Fill-118" fill="#6BCF2F" mask="url(#mask-4)" points="67.4953333 214.452267 68.2686667 214.452267 69.4646667 214.452267 67.1073333 209.6256 67.6966667 209.6256 68.514 209.6256 65.018 202.468267 64.6193333 203.324267 61.6886667 209.6256 62.9806667 209.6256 62.518 210.624267 60.7366667 214.452267 62.5753333 214.452267 62.11 215.450933 59.942 220.112267 69.19 220.112267 70.2593333 220.112267"></polygon>
                    <path d="M259.6008,235.217867 C259.743467,232.3032 268.046133,232.577867 270.963467,232.5592 C274.0568,232.537867 282.906133,232.1272 283.050133,235.217867 C283.198133,238.3872 274.135467,239.113867 270.963467,239.084533 C267.962133,239.057867 259.4528,238.213867 259.6008,235.217867" id="Fill-119" fill-opacity="0.5" fill="#2F4D0D" mask="url(#mask-4)"></path>
                    <polygon id="Fill-120" fill="#823B17" mask="url(#mask-4)" points="268.777333 235.217333 273.981333 235.217333 273.981333 227.782667 268.777333 227.782667"></polygon>
                    <polygon id="Fill-121" fill="#5BB224" mask="url(#mask-4)" points="276.8776 217.7452 278.6056 217.7452 281.276267 217.7452 276.012267 206.9652 277.326933 206.9652 279.150933 206.9652 271.344267 190.979867 270.454933 192.891867 263.908267 206.9652 266.796267 206.9652 265.760267 209.195867 261.782933 217.7452 265.888267 217.7452 264.850933 219.975867 260.010933 230.383867 280.662933 230.383867 283.0496 230.383867"></polygon>
                    <path d="M419.673733,336.1984 C419.673733,338.181067 415.655067,339.787733 410.699067,339.787733 C405.741733,339.787733 401.7244,338.181067 401.7244,336.1984 C401.7244,334.215733 405.741733,332.609067 410.699067,332.609067 C415.655067,332.609067 419.673733,334.215733 419.673733,336.1984" id="Fill-122" fill-opacity="0.5" fill="#2F4D0D" mask="url(#mask-4)"></path>
                    <polygon id="Fill-123" fill="#4D1717" mask="url(#mask-4)" points="409.753333 336.917333 412.002667 336.917333 412.002667 318.924 409.753333 318.924"></polygon>
                    <path d="M410.698533,292.216667 C410.3532,292.216667 410.0132,292.271333 409.675867,292.375333 C404.467867,293.986 400.398533,307.526 400.398533,316.495333 C400.398533,325.892667 404.866533,326.768667 410.430533,326.795333 C410.519867,326.795333 410.6092,326.796667 410.698533,326.796667 C416.387867,326.796667 420.999867,326.044667 420.999867,316.495333 C420.999867,306.947333 416.387867,292.216667 410.698533,292.216667" id="Fill-124" fill="#249E30" mask="url(#mask-4)"></path>
                    <path d="M417.805867,319.944533 C416.1192,322.6312 412.2552,323.240533 412.2552,323.240533 C412.2552,323.240533 411.124533,319.4952 412.8112,316.809867 C414.496533,314.124533 418.361867,313.513867 418.361867,313.513867 C418.361867,313.513867 419.4912,317.2592 417.805867,319.944533" id="Fill-125" fill="#117218" mask="url(#mask-4)"></path>
                    <path d="M416.441333,308.5708 C415.278667,311.0948 411.990667,312.0588 411.990667,312.0588 C411.990667,312.0588 410.585333,308.932133 411.748,306.409467 C412.910667,303.885467 416.2,302.921467 416.2,302.921467 C416.2,302.921467 417.604,306.0468 416.441333,308.5708" id="Fill-126" fill="#117218" mask="url(#mask-4)"></path>
                    <path d="M414.094267,299.062933 C413.4116,300.4376 411.5796,300.918933 411.5796,300.918933 C411.5796,300.918933 410.852933,299.168267 411.536933,297.7936 C412.218267,296.4176 414.050267,295.936267 414.050267,295.936267 C414.050267,295.936267 414.776933,297.686933 414.094267,299.062933" id="Fill-127" fill="#117218" mask="url(#mask-4)"></path>
                    <path d="M403.650267,319.944533 C405.336933,322.6312 409.200933,323.240533 409.200933,323.240533 C409.200933,323.240533 410.3316,319.4952 408.644933,316.809867 C406.9596,314.124533 403.094267,313.513867 403.094267,313.513867 C403.094267,313.513867 401.964933,317.2592 403.650267,319.944533" id="Fill-128" fill="#117218" mask="url(#mask-4)"></path>
                    <path d="M405.014933,308.5708 C406.1776,311.0948 409.4656,312.0588 409.4656,312.0588 C409.4656,312.0588 410.870933,308.932133 409.708267,306.409467 C408.5456,303.885467 405.256267,302.921467 405.256267,302.921467 C405.256267,302.921467 403.852267,306.0468 405.014933,308.5708" id="Fill-129" fill="#117218" mask="url(#mask-4)"></path>
                    <path d="M407.361867,299.062933 C408.044533,300.4376 409.876533,300.918933 409.876533,300.918933 C409.876533,300.918933 410.601867,299.168267 409.9192,297.7936 C409.237867,296.4176 407.405867,295.936267 407.405867,295.936267 C407.405867,295.936267 406.6792,297.686933 407.361867,299.062933" id="Fill-130" fill="#117218" mask="url(#mask-4)"></path>
                    <path d="M45.9212,369.184 C45.1518667,366.210667 39.7398667,361.994667 36.8878667,360.854667 C28.8518667,357.634667 18.9212,359.76 16.9972,364.430667 C14.6252,370.186667 16.7092,374.489333 19.2998667,375.782667 C24.5798667,378.422667 37.0798667,376.706667 42.9105333,375.782667 C44.7012,375.5 47.2625333,374.370667 45.9212,369.184" id="Fill-131" fill="#1F422E" mask="url(#mask-4)"></path>
                    <path d="M18.7473333,362.6828 C19.0633333,360.865467 22.0713333,358.2188 24.3513333,357.729467 C28.63,356.809467 39.1873333,359.653467 41.542,362.712133 C46.5446667,369.2108 45.1966667,369.529467 42.3593333,369.897467 C37.7166667,370.5028 30.6073333,369.4388 26.618,367.2748 C24.8926667,366.337467 18.4766667,364.2388 18.7473333,362.6828" id="Fill-132" fill="#1C9358" mask="url(#mask-4)"></path>
                </g>
            </g>
        </g>
    </g>
</svg>