<?xml version="1.0" encoding="UTF-8"?>
<svg width="480px" height="360px" viewBox="0 0 480 360" version="1.1" xmlns="http://www.w3.org/2000/svg" xmlns:xlink="http://www.w3.org/1999/xlink">
    <!-- Generator: Sketch 51.1 (57501) - http://www.bohemiancoding.com/sketch -->
    <title>Football field3</title>
    <desc>Created with Sketch.</desc>
    <defs></defs>
    <g id="Football-field3" stroke="none" stroke-width="1" fill="none" fill-rule="evenodd">
        <g id="play-house-2" transform="translate(-31.000000, 0.000000)">
            <g id="Group">
                <g>
                    <rect id="Rectangle-path" fill="#C7F7FF" x="0" y="0" width="541" height="361"></rect>
                    <path d="M289.9219,242.64615 C289.6514,235.8052 332.7691,232.6645 338.197133,232.5923 C470.0208,230.8234 250.573167,183.36995 250.573167,177.41345 C408.7255,147.73925 622.456567,156.43935 320.037567,73.91475 C304.601033,69.7091 168.395267,28.46485 72.6743333,0 L0,0 L0,361 L541,361 L541,303.4566 C458.353233,288.4751 290.553067,258.78285 289.9219,242.64615 Z" id="Shape" fill="#D4F9FF"></path>
                </g>
                <path d="M84.1255,193.04475 C77.0384,191.9798 70.2037667,191.8715 63.8019333,192.5935 C54.5869,165.50045 30.6747,141.3315 0,127.6857 L0,214.12715 L140.894433,227.66465 C129.280967,210.26445 108.2,196.65475 84.1255,193.04475 Z" id="Shape" fill="#FFFFFF"></path>
                <path d="M157.719533,229.28915 L173.9315,230.84145 C172.0921,230.3541 170.234667,229.957 168.323133,229.6682 C164.644333,229.1267 161.091767,229.00035 157.719533,229.28915 Z" id="Shape" fill="#FFFFFF"></path>
                <path d="M459.615567,203.6401 C458.695867,203.7845 457.7942,203.965 456.910567,204.19965 L464.755067,203.44155 C463.114033,203.3152 461.382833,203.36935 459.615567,203.6401 Z" id="Shape" fill="#FFFFFF"></path>
                <path d="M510.144967,185.71645 C507.043233,185.3735 503.743133,185.42765 500.3168,185.93305 C488.6853,187.6839 478.496467,194.2541 472.870067,202.68345 L541,196.1313 L541,154.3275 C526.158567,160.91575 514.617233,172.61215 510.144967,185.71645 Z" id="Shape" fill="#FFFFFF"></path>
            </g>
            <path d="M207.246566,97.3351101 C175.646746,119.409781 168.781148,95.3542786 150.11756,98.0846138 C136.621239,100.0476 132.068264,112.075351 120.902632,112.378722 C110.495831,112.646402 107.514716,103.170532 95.3734467,105.294126 C88.4717135,106.489763 81.949395,114.056182 76.9808698,113.663585 C68.507276,113.003308 58.6424951,105.365508 51,118 L272,118 C262.912116,107.988771 241.719097,73.2617625 207.246566,97.3351101 Z" id="Shape" fill="#E0FBFF"></path>
            <path d="M232.873421,129.178687 C213.278816,142.892849 209.024605,127.946555 197.451711,129.642968 C189.0875,130.8751 186.257368,138.339319 179.353289,138.517889 C172.899868,138.696458 171.061184,132.803654 163.526184,134.107214 C159.253947,134.857207 155.198026,139.553593 152.115526,139.303596 C146.869868,138.892885 140.740921,134.142928 136,142 L273,142 C267.375789,135.821484 254.234605,114.214536 232.873421,129.178687 Z" id="Shape" fill="#FFFFFF"></path>
            <path d="M476.722813,158.12112 C472.261652,158.459187 466.415372,151.697837 460.245298,150.612462 C449.380213,148.708608 446.699918,157.213675 437.381848,156.964573 C427.398201,156.697678 423.3148,145.915103 411.208504,144.153593 C394.47915,141.715948 388.327065,163.281098 360.013083,143.477458 C329.144726,121.876722 310.148814,153.050107 302,162 L500,162 C493.16435,150.665841 484.313982,157.53395 476.722813,158.12112 Z" id="Shape" fill="#F2FDFF"></path>
            <g id="Group" transform="translate(29.000000, 103.000000)">
                <path d="M30.2843823,72.2895377 C30.2843823,72.2895377 35.6382284,62.7289538 41.5508936,52.2501217 C37.3507382,44.3459854 32.3754468,38.7284672 27.039627,38.7284672 C18.8376068,38.7284672 11.4828283,51.9800487 6.52556333,66.4199513 C14.0065268,79.5995134 22.7132867,95.1737226 22.7132867,95.1737226 L3.60528361,76.016545 C1.31592852,84.622871 0,92.6710462 0,97.5863747 C0,112.494404 12.1137529,124.593674 27.039627,124.593674 C41.9655012,124.593674 54.0792541,112.494404 54.0792541,97.5863747 C54.0792541,89.2681265 50.3117327,71.9114355 44.3810412,58.1917275 L30.2843823,72.2895377 Z" id="Shape" fill="#BBE055"></path>
                <path d="M87.2118104,86.6034063 C87.2118104,86.6034063 100.587413,62.7109489 112.052214,42.5094891 C104.445066,20.3995134 93.1785548,0.0540145985 80.596115,0.0540145985 C72.4121212,0.0540145985 64.76892,8.6783455 58.3334887,20.7956204 C67.400777,36.8559611 75.6027972,51.529927 75.6027972,51.529927 L54.0071484,29.9060827 C44.9218337,50.9537713 39.1353535,77.5649635 39.1353535,90.3304136 C39.1353535,113.196594 57.7025641,131.741606 80.596115,131.741606 C103.489666,131.741606 122.056876,113.196594 122.056876,90.3304136 C122.056876,82.8043796 120.037918,70.4530414 116.522766,57.2734793 L87.2118104,86.6034063 Z" id="Shape" fill="#94BF1C"></path>
                <path d="M394.309868,121.550852 C394.309868,121.550852 402.09728,107.63309 408.767055,95.8759124 C404.332556,82.9844282 397.77094,71.1552311 390.452214,71.1552311 C385.675214,71.1552311 381.240715,76.1785888 377.49122,83.2364964 C382.77296,92.5990268 387.549961,101.133333 387.549961,101.133333 L374.967521,88.529927 C369.667754,100.791241 366.314841,116.293431 366.314841,123.72944 C366.314841,137.053041 377.130692,147.855961 390.470241,147.855961 C403.80979,147.855961 414.625641,137.053041 414.625641,123.72944 C414.625641,119.336253 413.453924,112.152311 411.398912,104.464234 L394.309868,121.550852 Z" id="Shape" fill="#BBE055"></path>
                <path d="M437.951826,98.2345499 C437.951826,98.2345499 447.938462,80.3737226 456.50101,65.2856448 C450.822688,48.7571776 442.404351,33.5610706 432.994561,33.5610706 C426.865579,33.5610706 421.169231,40.0068127 416.356177,49.0632603 C423.13411,61.0725061 429.263092,72.0374696 429.263092,72.0374696 L413.111422,55.8690998 C406.315462,71.5873479 402.007148,91.4827251 402.007148,101.025304 C402.007148,118.111922 415.869464,131.975669 432.994561,131.975669 C450.101632,131.975669 463.981974,118.129927 463.981974,101.025304 C463.981974,95.4077859 462.485781,86.1712895 459.853924,76.3226277 L437.951826,98.2345499 Z" id="Shape" fill="#94BF1C"></path>
            </g>
            <g id="Group" transform="translate(0.000000, 240.000000)">
                <path d="M0,55.7904192 L0,121 L541,121 L541,78.7586826 C462.681233,29.6703593 360.991267,0.0362275449 249.869867,0.0362275449 C157.358867,0.0362275449 71.3939667,20.5772455 0,55.7904192 Z" id="Shape" fill="#D4F9FF"></path>
                <path d="M290.697333,63.361976 C290.4088,51.6242515 335.2577,46.2263473 340.902133,46.0995509 C400.033433,44.7953593 391.179067,28.8914671 362.019167,10.3973054 C326.1689,3.62275449 288.605467,0.0362275449 249.869867,0.0362275449 C157.358867,0.0362275449 71.3939667,20.5953593 0,55.7904192 L0,121 L402.684333,121 C342.1825,100.096707 291.058,78.3239521 290.697333,63.361976 Z" id="Shape" fill="#EDFDFF"></path>
            </g>
            <g id="Group" transform="translate(0.000000, 196.000000)">
                <path d="M0,0.162295082 L0,165 L541,165 L541,0.162295082 C461.491033,10.3688525 369.088233,16.2114754 270.5,16.2114754 C171.911767,16.2114754 79.5089667,10.3688525 0,0.162295082 Z" id="Shape" fill="#A97B57"></path>
                <path d="M0,0.162295082 L0,43.6393443 C73.2514,65.3688525 167.565733,78.442623 270.5,78.442623 C373.434267,78.442623 467.7486,65.3688525 541,43.6393443 L541,0.162295082 C461.491033,10.3688525 369.088233,16.2114754 270.5,16.2114754 C171.911767,16.2114754 79.5089667,10.3688525 0,0.162295082 Z" id="Shape" fill="#AD815F"></path>
                <path d="M159.883533,159.914754 C159.883533,160.545902 160.388467,161.05082 161.019633,161.05082 C161.6508,161.05082 162.155733,160.545902 162.155733,159.914754 L162.155733,13.8131148 L159.901567,13.704918 L159.901567,159.914754 L159.883533,159.914754 Z" id="Shape" fill="#9C7253"></path>
                <path d="M179.792333,159.914754 C179.792333,160.545902 180.297267,161.05082 180.928433,161.05082 C181.5596,161.05082 182.064533,160.545902 182.064533,159.914754 L182.064533,14.6065574 C181.307133,14.5704918 180.567767,14.552459 179.810367,14.5163934 L179.810367,159.914754 L179.792333,159.914754 Z" id="Shape" fill="#9C7253"></path>
                <path d="M259.427533,159.914754 C259.427533,160.545902 259.932467,161.05082 260.563633,161.05082 C261.1948,161.05082 261.699733,160.545902 261.699733,159.914754 L261.699733,16.1934426 L259.445567,16.1754098 L259.445567,159.914754 L259.427533,159.914754 Z" id="Shape" fill="#9C7253"></path>
                <path d="M239.518733,159.914754 C239.518733,160.545902 240.023667,161.05082 240.654833,161.05082 C241.286,161.05082 241.790933,160.545902 241.790933,159.914754 L241.790933,16.0491803 L239.536767,16.0311475 L239.536767,159.914754 L239.518733,159.914754 Z" id="Shape" fill="#9C7253"></path>
                <path d="M139.974733,159.914754 C139.974733,160.545902 140.479667,161.05082 141.110833,161.05082 C141.742,161.05082 142.246933,160.545902 142.246933,159.914754 L142.246933,12.8213115 L139.992767,12.695082 L139.992767,159.914754 L139.974733,159.914754 Z" id="Shape" fill="#9C7253"></path>
                <path d="M219.609933,159.914754 C219.609933,160.545902 220.114867,161.05082 220.746033,161.05082 C221.3772,161.05082 221.882133,160.545902 221.882133,159.914754 L221.882133,15.742623 L219.627967,15.6885246 L219.627967,159.914754 L219.609933,159.914754 Z" id="Shape" fill="#9C7253"></path>
                <path d="M199.701133,159.914754 C199.701133,160.545902 200.206067,161.05082 200.837233,161.05082 C201.4684,161.05082 201.973333,160.545902 201.973333,159.914754 L201.973333,15.2557377 L199.719167,15.1836066 L199.719167,159.914754 L199.701133,159.914754 Z" id="Shape" fill="#9C7253"></path>
                <path d="M40.4307333,159.914754 C40.4307333,160.545902 40.9356667,161.05082 41.5668333,161.05082 C42.198,161.05082 42.7029333,160.545902 42.7029333,159.914754 L42.7029333,5.0852459 C41.9455333,5.01311475 41.2061667,4.92295082 40.4487667,4.85081967 L40.4487667,159.914754 L40.4307333,159.914754 Z" id="Shape" fill="#9C7253"></path>
                <path d="M60.3395333,159.914754 C60.3395333,160.545902 60.8444667,161.05082 61.4756333,161.05082 C62.1068,161.05082 62.6117333,160.545902 62.6117333,159.914754 L62.6117333,7.03278689 C61.8543333,6.96065574 61.1149667,6.88852459 60.3575667,6.81639344 L60.3575667,159.914754 L60.3395333,159.914754 Z" id="Shape" fill="#9C7253"></path>
                <path d="M80.2483333,159.914754 C80.2483333,160.545902 80.7532667,161.05082 81.3844333,161.05082 C82.0156,161.05082 82.5205333,160.545902 82.5205333,159.914754 L82.5205333,8.76393443 C81.7631333,8.70983607 81.0237667,8.63770492 80.2663667,8.58360656 L80.2663667,159.914754 L80.2483333,159.914754 Z" id="Shape" fill="#9C7253"></path>
                <path d="M120.065933,159.914754 C120.065933,160.545902 120.570867,161.05082 121.202033,161.05082 C121.8332,161.05082 122.338133,160.545902 122.338133,159.914754 L122.338133,11.6491803 L120.083967,11.504918 L120.083967,159.914754 L120.065933,159.914754 Z" id="Shape" fill="#9C7253"></path>
                <path d="M100.157133,159.914754 C100.157133,160.545902 100.662067,161.05082 101.293233,161.05082 C101.9244,161.05082 102.429333,160.545902 102.429333,159.914754 L102.429333,10.3147541 L100.175167,10.152459 L100.175167,159.914754 L100.157133,159.914754 Z" id="Shape" fill="#9C7253"></path>
                <path d="M358.9535,159.914754 C358.9535,160.545902 359.458433,161.05082 360.0896,161.05082 C360.720767,161.05082 361.2257,160.545902 361.2257,159.914754 L361.2257,14.5344262 C360.4683,14.5704918 359.728933,14.5885246 358.971533,14.6245902 L358.971533,159.914754 L358.9535,159.914754 Z" id="Shape" fill="#9C7253"></path>
                <path d="M478.4063,159.914754 C478.4063,160.545902 478.911233,161.05082 479.5424,161.05082 C480.173567,161.05082 480.6785,160.545902 480.6785,159.914754 L480.6785,6.81639344 L478.424333,7.03278689 L478.424333,159.914754 L478.4063,159.914754 Z" id="Shape" fill="#9C7253"></path>
                <path d="M458.4975,159.914754 C458.4975,160.545902 459.002433,161.05082 459.6336,161.05082 C460.264767,161.05082 460.7697,160.545902 460.7697,159.914754 L460.7697,8.58360656 C460.0123,8.63770492 459.272933,8.70983607 458.515533,8.76393443 L458.515533,159.914754 L458.4975,159.914754 Z" id="Shape" fill="#9C7253"></path>
                <path d="M438.5887,159.914754 C438.5887,160.545902 439.093633,161.05082 439.7248,161.05082 C440.355967,161.05082 440.8609,160.545902 440.8609,159.914754 L440.8609,10.152459 L438.606733,10.3147541 L438.606733,159.914754 L438.5887,159.914754 Z" id="Shape" fill="#9C7253"></path>
                <path d="M279.3183,159.914754 C279.3183,160.545902 279.823233,161.05082 280.4544,161.05082 C281.085567,161.05082 281.5905,160.545902 281.5905,159.914754 L281.5905,16.1934426 L279.336333,16.2114754 L279.336333,159.914754 L279.3183,159.914754 Z" id="Shape" fill="#9C7253"></path>
                <path d="M498.3151,159.914754 C498.3151,160.545902 498.820033,161.05082 499.4512,161.05082 C500.082367,161.05082 500.5873,160.545902 500.5873,159.914754 L500.5873,4.85081967 L498.333133,5.0852459 L498.333133,159.914754 L498.3151,159.914754 Z" id="Shape" fill="#9C7253"></path>
                <path d="M418.6799,159.914754 C418.6799,160.545902 419.184833,161.05082 419.816,161.05082 C420.447167,161.05082 420.9521,160.545902 420.9521,159.914754 L420.9521,11.5229508 C420.1947,11.5770492 419.455333,11.6131148 418.697933,11.6672131 L418.697933,159.914754 L418.6799,159.914754 Z" id="Shape" fill="#9C7253"></path>
                <path d="M299.2271,159.914754 C299.2271,160.545902 299.732033,161.05082 300.3632,161.05082 C300.994367,161.05082 301.4993,160.545902 301.4993,159.914754 L301.4993,16.0131148 L299.245133,16.0311475 L299.245133,159.914754 L299.2271,159.914754 Z" id="Shape" fill="#9C7253"></path>
                <path d="M398.7711,159.914754 C398.7711,160.545902 399.276033,161.05082 399.9072,161.05082 C400.538367,161.05082 401.0433,160.545902 401.0433,159.914754 L401.0433,12.695082 L398.789133,12.8213115 L398.789133,159.914754 L398.7711,159.914754 Z" id="Shape" fill="#9C7253"></path>
                <path d="M319.1359,159.914754 C319.1359,160.545902 319.640833,161.05082 320.272,161.05082 C320.903167,161.05082 321.4081,160.545902 321.4081,159.914754 L321.4081,15.6885246 L319.153933,15.742623 L319.153933,159.914754 L319.1359,159.914754 Z" id="Shape" fill="#9C7253"></path>
                <path d="M339.0447,159.914754 C339.0447,160.545902 339.549633,161.05082 340.1808,161.05082 C340.811967,161.05082 341.3169,160.545902 341.3169,159.914754 L341.3169,15.2016393 L339.062733,15.2737705 L339.062733,159.914754 L339.0447,159.914754 Z" id="Shape" fill="#9C7253"></path>
                <path d="M378.8623,159.914754 C378.8623,160.545902 379.367233,161.05082 379.9984,161.05082 C380.629567,161.05082 381.1345,160.545902 381.1345,159.914754 L381.1345,13.704918 L378.880333,13.8131148 L378.880333,159.914754 L378.8623,159.914754 Z" id="Shape" fill="#9C7253"></path>
                <path d="M139.974733,71.1393443 C140.732133,71.2295082 141.4715,71.3196721 142.2289,71.3918033 L142.2289,12.8213115 L139.974733,12.695082 L139.974733,71.1393443 Z" id="Shape" fill="#A97B57"></path>
                <path d="M199.701133,76.3327869 C200.458533,76.3868852 201.1979,76.4229508 201.9553,76.4590164 L201.9553,15.2377049 L199.701133,15.1655738 L199.701133,76.3327869 Z" id="Shape" fill="#A97B57"></path>
                <path d="M159.883533,73.2311475 C160.640933,73.3032787 161.3803,73.3754098 162.1377,73.447541 L162.1377,13.795082 L159.883533,13.6868852 L159.883533,73.2311475 Z" id="Shape" fill="#A97B57"></path>
                <path d="M179.792333,74.9622951 C180.549733,75.0163934 181.2891,75.0704918 182.0465,75.142623 L182.0465,14.6065574 C181.2891,14.5704918 180.549733,14.552459 179.792333,14.5163934 L179.792333,74.9622951 Z" id="Shape" fill="#A97B57"></path>
                <path d="M239.518733,78.0459016 C240.276133,78.0639344 241.0155,78.0819672 241.7729,78.1 L241.7729,16.0491803 L239.518733,16.0311475 L239.518733,78.0459016 Z" id="Shape" fill="#A97B57"></path>
                <path d="M219.609933,77.3606557 C220.367333,77.3967213 221.1067,77.4147541 221.8641,77.4508197 L221.8641,15.7245902 L219.609933,15.6704918 L219.609933,77.3606557 Z" id="Shape" fill="#A97B57"></path>
                <path d="M40.4307333,54.242623 C41.1881333,54.4229508 41.9275,54.6032787 42.6849,54.7655738 L42.6849,5.06721311 C41.9275,4.99508197 41.1881333,4.90491803 40.4307333,4.83278689 L40.4307333,54.242623 Z" id="Shape" fill="#A97B57"></path>
                <path d="M60.3395333,58.5885246 C61.0789,58.7327869 61.8363,58.895082 62.5937,59.0393443 L62.5937,7.03278689 C61.8363,6.96065574 61.0969333,6.88852459 60.3395333,6.81639344 L60.3395333,58.5885246 Z" id="Shape" fill="#A97B57"></path>
                <path d="M259.427533,78.3885246 C260.184933,78.3885246 260.9243,78.3885246 261.6817,78.4065574 L261.6817,16.1934426 L259.427533,16.1754098 L259.427533,78.3885246 Z" id="Shape" fill="#A97B57"></path>
                <path d="M80.2483333,62.3934426 C81.0057333,62.5196721 81.7451,62.6639344 82.5025,62.7901639 L82.5025,8.76393443 C81.7451,8.70983607 81.0057333,8.63770492 80.2483333,8.58360656 L80.2483333,62.3934426 Z" id="Shape" fill="#A97B57"></path>
                <path d="M100.157133,65.7295082 C100.914533,65.8557377 101.6539,65.9639344 102.4113,66.0721311 L102.4113,10.2967213 L100.157133,10.1344262 L100.157133,65.7295082 Z" id="Shape" fill="#A97B57"></path>
                <path d="M120.065933,68.6327869 C120.823333,68.7409836 121.5627,68.8311475 122.3201,68.9393443 L122.3201,11.6491803 L120.065933,11.504918 L120.065933,68.6327869 Z" id="Shape" fill="#A97B57"></path>
                <path d="M279.3183,78.4065574 C280.0757,78.4065574 280.815067,78.4065574 281.572467,78.3885246 L281.572467,16.1754098 L279.3183,16.1934426 L279.3183,78.4065574 Z" id="Shape" fill="#A97B57"></path>
                <path d="M458.4975,62.7901639 C459.2549,62.6639344 460.0123,62.5196721 460.751667,62.3934426 L460.751667,8.58360656 C459.994267,8.63770492 459.2549,8.70983607 458.4975,8.76393443 L458.4975,62.7901639 Z" id="Shape" fill="#A97B57"></path>
                <path d="M438.5887,66.0901639 C439.3461,65.9819672 440.085467,65.8557377 440.842867,65.747541 L440.842867,10.152459 L438.5887,10.3147541 L438.5887,66.0901639 Z" id="Shape" fill="#A97B57"></path>
                <path d="M418.6799,68.9393443 C419.4373,68.8311475 420.176667,68.7409836 420.934067,68.6327869 L420.934067,11.504918 C420.176667,11.5590164 419.4373,11.595082 418.6799,11.6491803 L418.6799,68.9393443 Z" id="Shape" fill="#A97B57"></path>
                <path d="M478.4063,59.0393443 C479.1637,58.895082 479.9211,58.7508197 480.660467,58.5885246 L480.660467,6.81639344 L478.4063,7.03278689 L478.4063,59.0393443 Z" id="Shape" fill="#A97B57"></path>
                <path d="M498.3151,54.7836066 C499.0725,54.6032787 499.811867,54.4229508 500.569267,54.2606557 L500.569267,4.86885246 L498.3151,5.10327869 L498.3151,54.7836066 Z" id="Shape" fill="#A97B57"></path>
                <path d="M358.9535,75.142623 C359.7109,75.0885246 360.450267,75.0344262 361.207667,74.9622951 L361.207667,14.5344262 C360.450267,14.5704918 359.7109,14.5885246 358.9535,14.6245902 L358.9535,75.142623 Z" id="Shape" fill="#A97B57"></path>
                <path d="M319.1359,77.4508197 C319.8933,77.4147541 320.632667,77.3967213 321.390067,77.3606557 L321.390067,15.6885246 L319.1359,15.742623 L319.1359,77.4508197 Z" id="Shape" fill="#A97B57"></path>
                <path d="M398.7711,71.3918033 C399.5285,71.3016393 400.267867,71.2114754 401.025267,71.1393443 L401.025267,12.695082 L398.7711,12.8213115 L398.7711,71.3918033 Z" id="Shape" fill="#A97B57"></path>
                <path d="M339.0447,76.4590164 C339.8021,76.4229508 340.541467,76.3688525 341.298867,76.3327869 L341.298867,15.1836066 L339.0447,15.2557377 L339.0447,76.4590164 Z" id="Shape" fill="#A97B57"></path>
                <path d="M299.2271,78.0819672 C299.9845,78.0639344 300.723867,78.0459016 301.481267,78.0278689 L301.481267,15.995082 L299.2271,16.0131148 L299.2271,78.0819672 Z" id="Shape" fill="#A97B57"></path>
                <path d="M378.8623,73.447541 C379.6197,73.3754098 380.359067,73.3032787 381.116467,73.2311475 L381.116467,13.704918 L378.8623,13.8131148 L378.8623,73.447541 Z" id="Shape" fill="#A97B57"></path>
            </g>
            <g id="Group" transform="translate(0.000000, 273.000000)">
                <path d="M0,0.0360655738 L0,88 L541,88 L541,0.0360655738 C461.454967,18.2491803 369.0702,28.6901639 270.5,28.6901639 C171.9298,28.6721311 79.5450333,18.2491803 0,0.0360655738 Z" id="Shape" fill="#BBE055"></path>
                <path d="M0,54.2065574 L0,88 L541,88 L541,59.1295082 C466.973167,68.3081967 380.683667,73.5737705 288.533333,73.5737705 C180.982533,73.5737705 81.3844333,66.3967213 0,54.2065574 Z" id="Shape" fill="#94BF1C"></path>
            </g>
            <path d="M45.0945337,265.944021 C45.6277365,268.036179 48.2404306,268.625787 50.9597651,267.275394 C53.6613263,265.925001 55.4386692,263.129117 54.9054663,261.055979 C54.3722635,258.963821 51.7595694,258.374213 49.0402349,259.724606 C46.3386737,261.074999 44.5613308,263.870883 45.0945337,265.944021 Z" id="Shape" fill="#BBE055"></path>
            <path d="M47.1637921,257.514911 C49.070067,256.615481 50.2955293,254.764729 49.9381028,253.363693 C49.563656,251.979953 47.7254624,251.582128 45.8362079,252.481559 C43.929933,253.38099 42.7044707,255.231741 43.0618972,256.615481 C43.436344,258.033814 45.2745376,258.414342 47.1637921,257.514911 Z" id="Shape" fill="#BBE055"></path>
            <path d="M47.1264081,275.496414 C47.8711963,278.04988 51.5392782,278.762071 55.337698,277.111872 C59.1361178,275.461673 61.6125386,272.057052 60.8677504,269.503586 C60.1229622,266.95012 56.4548803,266.237929 52.6564605,267.888128 C48.8766604,269.555698 46.4002396,272.942948 47.1264081,275.496414 Z" id="Shape" fill="#BBE055"></path>
            <path d="M38.185798,257.516764 C40.6476369,258.419327 42.3181704,258.020116 41.9488946,256.631557 C41.5620342,255.242998 39.2760409,253.3858 36.814202,252.483236 C34.3523631,251.580673 32.6818296,251.979884 33.0511054,253.368443 C33.4203813,254.757002 35.7239591,256.6142 38.185798,257.516764 Z" id="Shape" fill="#BBE055"></path>
            <path d="M57.4779509,279.046928 C53.1424172,281.005397 50.3012589,285.029161 51.1499165,288.038082 C51.9985742,291.047002 56.1865153,291.901607 60.5220491,289.960942 C64.8575828,288.002473 67.6987411,283.978709 66.8500835,280.969789 C66.0014258,277.960868 61.8134847,277.088459 57.4779509,279.046928 Z" id="Shape" fill="#BBE055"></path>
            <path d="M38.0459977,279.046295 C32.8644623,277.08901 29.3043598,277.960892 30.1150762,280.967992 C30.9257926,283.975092 35.7724669,287.996421 40.9540023,289.953705 C46.1355377,291.91099 49.6956402,291.039108 48.8849238,288.032008 C48.0918316,285.024908 43.2451574,281.003579 38.0459977,279.046295 Z" id="Shape" fill="#BBE055"></path>
            <path d="M38.8085448,277.115545 C43.4429741,278.767059 46.6234648,278.036916 45.8964955,275.498801 C45.1695262,272.943301 40.8440588,269.535968 36.1914552,267.884455 C31.5570259,266.232941 28.3765352,266.963084 29.1035045,269.501199 C29.8304738,272.039315 34.1741154,275.446648 38.8085448,277.115545 Z" id="Shape" fill="#BBE055"></path>
            <path d="M38.4948658,267.275394 C42.0466297,268.625787 44.4640607,268.036179 43.9247876,265.944021 C43.3669189,263.851863 40.0568981,261.074999 36.5051342,259.724606 C32.9533703,258.374213 30.5359393,258.963821 31.0752124,261.055979 C31.6144854,263.148137 34.9431019,265.925001 38.4948658,267.275394 Z" id="Shape" fill="#BBE055"></path>
            <path d="M492.162379,263.594999 C494.072351,264.347488 495.789397,264.02255 495.982323,262.859612 C496.17525,261.696673 494.766886,260.15749 492.837621,259.405001 C490.927649,258.652512 489.210603,258.97745 489.017677,260.140388 C488.82475,261.303327 490.233114,262.84251 492.162379,263.594999 Z" id="Shape" fill="#BBE055"></path>
            <path d="M500.569793,271.438578 C503.320693,270.385953 505.747958,268.228072 505.981695,266.596503 C506.215432,264.982478 504.183721,264.508797 501.43282,265.561422 C498.68192,266.614047 496.254655,268.771928 496.020918,270.403497 C495.769202,272.017522 497.818892,272.491203 500.569793,271.438578 Z" id="Shape" fill="#BBE055"></path>
            <path d="M495.025292,279.714608 C494.710731,282.025312 497.367022,282.701616 500.949519,281.198719 C504.532016,279.695822 507.677623,276.596096 507.974708,274.285392 C508.289269,271.974688 505.632978,271.298384 502.050481,272.801281 C498.48546,274.285392 495.339853,277.385117 495.025292,279.714608 Z" id="Shape" fill="#BBE055"></path>
            <path d="M499.198746,263.598952 C501.126773,262.845815 502.813796,261.305308 502.985941,260.14137 C503.158086,258.977431 501.729281,258.652213 499.801254,259.405349 C497.873227,260.158486 496.186204,261.698993 496.014059,262.862932 C495.841914,264.009754 497.270719,264.352089 499.198746,263.598952 Z" id="Shape" fill="#BBE055"></path>
            <path d="M486.670151,281.883784 C482.814486,280.237691 479.399469,280.953384 479.032262,283.511984 C478.665056,286.052692 481.474184,289.470124 485.329849,291.116216 C489.185514,292.762309 492.600531,292.046616 492.967738,289.488016 C493.334944,286.947308 490.525816,283.529876 486.670151,281.883784 Z" id="Shape" fill="#BBE055"></path>
            <path d="M502.146142,281.884145 C498.016773,283.53091 494.377329,286.949738 494.027383,289.491484 C493.677436,292.03323 496.721971,292.767115 500.85134,291.12035 C504.980709,289.473584 508.620153,286.054757 508.9701,283.51301 C509.337544,280.953364 506.275511,280.23738 502.146142,281.884145 Z" id="Shape" fill="#BBE055"></path>
            <path d="M488.582373,272.805233 C485.278767,271.303751 482.356346,271.960649 482.029615,274.287947 C481.702885,276.596477 484.117059,279.693284 487.420666,281.194767 C490.724272,282.696249 493.646693,282.039351 493.973424,279.712053 C494.282002,277.403523 491.867828,274.306716 488.582373,272.805233 Z" id="Shape" fill="#BBE055"></path>
            <path d="M490.064624,271.434883 C492.540077,272.486184 494.742502,272.03062 494.979126,270.401103 C495.21575,268.789108 493.413766,266.616419 490.938313,265.565117 C488.46286,264.513816 486.260435,264.96938 486.02381,266.598897 C485.768984,268.228414 487.58917,270.383581 490.064624,271.434883 Z" id="Shape" fill="#BBE055"></path>
            <path d="M482.19134,97.8139217 C477.442666,98.192834 471.213418,90.8852404 464.623053,89.7304602 C453.031234,87.6915514 450.196474,96.8395759 440.247732,96.5689243 C429.61287,96.2802292 425.243368,84.6602533 412.369588,82.765692 C394.54852,80.1313497 387.976211,103.353258 357.823036,82.0439544 C324.925381,58.8040025 304.684837,92.3467591 296,102 L507,102 C499.70546,89.802634 490.280335,97.1824013 482.19134,97.8139217 Z" id="Shape" fill="#D4F9FF"></path>
            <path d="M441.569793,333.434527 C444.320693,332.382564 446.747958,330.226041 446.981695,328.595499 C447.215432,326.982489 445.183721,326.509106 442.43282,327.561069 C439.68192,328.613031 437.254655,330.769555 437.020918,332.400097 C436.769202,334.030639 438.818892,334.48649 441.569793,333.434527 Z" id="Shape" fill="#94BF1C"></path>
            <path d="M440.198746,326.594999 C442.126773,325.84251 443.813796,324.303327 443.985941,323.140388 C444.158086,321.97745 442.729281,321.652512 440.801254,322.405001 C438.873227,323.15749 437.186204,324.696673 437.014059,325.859612 C436.841914,327.02255 438.270719,327.347488 440.198746,326.594999 Z" id="Shape" fill="#94BF1C"></path>
            <path d="M436.025292,341.714608 C435.710731,344.025312 438.367022,344.701616 441.949519,343.198719 C445.532016,341.695822 448.677623,338.596096 448.974708,336.285392 C449.289269,333.974688 446.632978,333.298384 443.050481,334.801281 C439.48546,336.304178 436.339853,339.385117 436.025292,341.714608 Z" id="Shape" fill="#94BF1C"></path>
            <path d="M433.162379,326.594999 C435.072351,327.347488 436.789397,327.02255 436.982323,325.859612 C437.17525,324.696673 435.766886,323.15749 433.837621,322.405001 C431.927649,321.652512 430.210603,321.97745 430.017677,323.140388 C429.82475,324.303327 431.233114,325.84251 433.162379,326.594999 Z" id="Shape" fill="#94BF1C"></path>
            <path d="M426.670151,343.883784 C422.814486,342.237691 419.399469,342.953384 419.032262,345.511984 C418.665056,348.052692 421.474184,351.470124 425.329849,353.116216 C429.185514,354.762309 432.600531,354.046616 432.967738,351.488016 C433.334944,348.947308 430.525816,345.547769 426.670151,343.883784 Z" id="Shape" fill="#94BF1C"></path>
            <path d="M442.146142,343.88001 C438.016773,345.527448 434.377329,348.947673 434.027383,351.490459 C433.677436,354.033244 436.721971,354.767428 440.85134,353.11999 C444.980709,351.472552 448.620153,348.052327 448.9701,345.509541 C449.337544,342.966756 446.275511,342.232572 442.146142,343.88001 Z" id="Shape" fill="#94BF1C"></path>
            <path d="M431.064624,333.434883 C433.540077,334.486184 435.742502,334.03062 435.979126,332.401103 C436.21575,330.789108 434.413766,328.616419 431.938313,327.565117 C429.46286,326.513816 427.260435,326.96938 427.02381,328.598897 C426.768984,330.228414 428.58917,332.383581 431.064624,333.434883 Z" id="Shape" fill="#94BF1C"></path>
            <path d="M429.582373,334.805233 C426.278767,333.303751 423.356346,333.960649 423.029615,336.287947 C422.702885,338.596477 425.117059,341.693284 428.420666,343.194767 C431.724272,344.696249 434.646693,344.039351 434.973424,341.712053 C435.282002,339.403523 432.867828,336.325484 429.582373,334.805233 Z" id="Shape" fill="#94BF1C"></path>
            <path d="M78.0945337,330.944021 C78.6277365,333.036179 81.2404306,333.625787 83.9597651,332.275394 C86.6613263,330.925001 88.4386692,328.129117 87.9054663,326.055979 C87.3722635,323.963821 84.7595694,323.374213 82.0402349,324.724606 C79.3386737,326.074999 77.5613308,328.870883 78.0945337,330.944021 Z" id="Shape" fill="#94BF1C"></path>
            <path d="M71.185798,322.516764 C73.6476369,323.419327 75.3181704,323.020116 74.9488946,321.631557 C74.5620342,320.242998 72.2760409,318.3858 69.814202,317.483236 C67.3523631,316.580673 65.6818296,316.979884 66.0511054,318.368443 C66.4203813,319.757002 68.7239591,321.6142 71.185798,322.516764 Z" id="Shape" fill="#94BF1C"></path>
            <path d="M80.1264081,340.496414 C80.8711963,343.04988 84.5392782,343.762071 88.337698,342.111872 C92.1361178,340.461673 94.6125386,337.057052 93.8677504,334.503586 C93.1229622,331.95012 89.4548803,331.237929 85.6564605,332.888128 C81.8766604,334.538327 79.4002396,337.942948 80.1264081,340.496414 Z" id="Shape" fill="#94BF1C"></path>
            <path d="M80.1637921,322.518912 C82.070067,321.618829 83.2955293,319.766735 82.9381028,318.364682 C82.563656,316.979939 80.7254624,316.581825 78.8362079,317.481908 C76.929933,318.381992 75.7044707,320.234086 76.0618972,321.618829 C76.436344,323.020882 78.2745376,323.418996 80.1637921,322.518912 Z" id="Shape" fill="#94BF1C"></path>
            <path d="M71.4948658,332.275394 C75.0466297,333.625787 77.4640607,333.036179 76.9247876,330.944021 C76.3669189,328.851863 73.0568981,326.074999 69.5051342,324.724606 C65.9533703,323.374213 63.5359393,323.963821 64.0752124,326.055979 C64.6144854,328.129117 67.9431019,330.925001 71.4948658,332.275394 Z" id="Shape" fill="#94BF1C"></path>
            <path d="M71.0459977,344.046295 C65.8644623,342.08901 62.3043598,342.960892 63.1150762,345.967992 C63.9257926,348.975092 68.7724669,352.996421 73.9540023,354.953705 C79.1355377,356.91099 82.6956402,356.039108 81.8849238,353.032008 C81.0918316,350.024908 76.2451574,346.003579 71.0459977,344.046295 Z" id="Shape" fill="#94BF1C"></path>
            <path d="M90.4779509,344.051042 C86.1424172,346.008837 83.3012589,350.031216 84.1499165,353.039101 C84.9985742,356.046986 89.1865153,356.901297 93.5220491,354.9613 C97.8575828,353.003505 100.698741,348.981126 99.8500835,345.97324 C99.0014258,342.947557 94.8134847,342.093246 90.4779509,344.051042 Z" id="Shape" fill="#94BF1C"></path>
            <path d="M71.8085448,342.115545 C76.4429741,343.767059 79.6234648,343.036916 78.8964955,340.498801 C78.1695262,337.943301 73.8440588,334.535968 69.1914552,332.884455 C64.5570259,331.232941 61.3765352,331.963084 62.1035045,334.501199 C62.8304738,337.056699 67.1741154,340.464032 71.8085448,342.115545 Z" id="Shape" fill="#94BF1C"></path>
        </g>
    </g>
</svg>