<?xml version="1.0" encoding="UTF-8"?>
<svg width="120px" height="120px" viewBox="0 0 120 120" version="1.1" xmlns="http://www.w3.org/2000/svg" xmlns:xlink="http://www.w3.org/1999/xlink">
    <!-- Generator: Sketch 51.1 (57501) - http://www.bohemiancoding.com/sketch -->
    <title>Fish</title>
    <desc>Created with Sketch.</desc>
    <defs></defs>
    <g id="Fish" stroke="none" stroke-width="1" fill="none" fill-rule="evenodd">
        <g id="Group-74" transform="translate(60.000000, 60.000000) scale(-1, 1) translate(-60.000000, -60.000000) translate(0.000000, 24.000000)">
            <path d="M7.83588119,68.144577 C8.29449505,68.8480525 9.38994059,69.0392656 9.64776238,69.8359869 C9.65964356,69.0699541 8.85528713,68.5329049 8.66162376,67.791659 C8.61053465,67.5945443 8.60459406,67.3891672 8.59984158,67.1861508 C8.59390099,67.0291672 8.58914851,66.8710033 8.58439604,66.711659 C8.56538614,66.1014295 8.06637624,65.2327082 7.54954455,65.9869377 C7.22043564,66.4626098 7.55667327,67.719659 7.83588119,68.144577" id="Fill-60" fill="#CE5619"></path>
            <path d="M32.6877624,15.3363541 C33.6275644,15.2915016 34.5673663,15.2466492 35.5071683,15.202977 C36.1095446,12.5614033 37.0624158,10.0012721 38.3325149,7.60756721 C38.693703,6.9253377 39.2224158,6.16756721 39.9982574,6.16402623 C40.7230099,6.1628459 41.2909307,6.83563279 42.0097426,6.91943607 C42.7630099,7.00914098 43.4782574,6.42841967 44.2315248,6.51930492 C44.9527129,6.60664918 45.4826139,7.28297705 46.1931089,7.4293377 C47.1816238,7.63117377 48.3020198,6.77661639 49.1479604,7.32546885 C49.3962772,7.48599344 49.5709307,7.74802623 49.8370693,7.87904262 C50.584396,8.24022295 51.4766733,7.36087869 52.2608317,7.64061639 C52.6362772,7.7763541 52.8988515,8.1576 53.2909307,8.23314098 C53.8897426,8.35117377 54.6121188,7.73740328 55.0398416,8.16704262 C55.1871683,8.31458361 55.2275644,8.5388459 55.3546931,8.7040918 C55.8572673,9.34973115 57.103604,8.56599344 57.664396,9.16205902 C57.8770693,9.38514098 57.9020198,9.73805902 58.113505,9.96232131 C58.2715248,10.1299279 58.5067723,10.1972066 58.7313267,10.252682 C59.8897426,10.5430426 61.074297,10.7212721 62.2552871,10.8959607 C62.7923168,10.976223 63.3281584,11.0564852 63.864,11.1355672 C64.3808317,11.2134689 64.8964752,11.2890098 65.4109307,11.3669115 C66.3257822,11.5014689 67.2394455,11.6383869 68.1519208,11.7989115 C68.7887525,11.912223 69.4255842,12.0361574 70.0576634,12.1718951 C70.9582574,12.3666492 71.8588515,12.5861902 72.7107327,12.9391082 C73.6612277,13.3297967 74.5380594,13.8786492 75.4089505,14.4239607 C75.6762772,14.5915672 75.9554851,14.770977 76.094495,15.0530754 C76.2655842,15.3953705 76.1871683,15.8037639 76.0909307,16.1732066 C75.7166733,17.6037639 74.9194455,19.1263869 73.484198,19.5158951 C73.0255842,19.6398295 72.544396,19.6339279 72.0691485,19.6339279 C60.2687525,19.6374689 48.9162772,23.7827803 37.8572673,27.874977 C37.0659802,28.166518 35.034297,29.5545836 34.1752871,29.1898623 C33.2045941,28.7802885 33.0406337,26.082059 32.9028119,25.1802885 C32.774495,24.3375344 32.1911287,15.3599607 32.6877624,15.3363541" id="Fill-62" fill="#CE5619"></path>
            <path d="M34.8899406,28.8525246 C34.7366733,27.7748852 34.5834059,26.6913443 34.6071683,25.603082 C34.6190495,24.9621639 34.693901,24.3224262 34.734297,23.6815082 C34.8424158,21.9074754 34.6867723,20.0885902 35.2012277,18.3865574" id="Fill-64" fill="#D65F1D"></path>
            <path d="M39.5310891,6.14278033 C36.8269307,12.0550426 35.6554455,18.6530754 36.1651485,25.1271738" id="Fill-66" fill="#D65F1D"></path>
            <path d="M41.1891089,6.86655738 C39.8940594,10.7262295 39.0362376,14.731082 38.6358416,18.7796066" id="Fill-68" fill="#D65F1D"></path>
            <path d="M38.3940594,20.5152787 C38.2681188,22.5513443 38.250297,24.5909508 38.3453465,26.6281967" id="Fill-70" fill="#D65F1D"></path>
            <path d="M40.4117228,26.6082492 C40.1966733,23.0826098 40.8632079,19.5038557 42.3352871,16.2886426" id="Fill-72" fill="#D65F1D"></path>
            <path d="M42.6963564,15.3375344 C43.6207129,12.848223 44.3407129,10.2821902 44.8444752,7.6748459" id="Fill-74" fill="#D65F1D"></path>
            <path d="M47.3327525,9.19038689 C45.8048317,11.4341902 44.9303762,14.0698623 44.448,16.7385836 C43.9656238,19.4049443 43.8586931,22.1244197 43.7541386,24.8344525" id="Fill-76" fill="#D65F1D"></path>
            <path d="M49.8806733,11.2835803 C47.8359208,15.5292197 46.5004752,20.1100721 45.9444356,24.7841705" id="Fill-78" fill="#D65F1D"></path>
            <path d="M52.905505,13.2811672 C51.1637228,16.3818885 50.016,19.8095607 49.5395644,23.331659" id="Fill-80" fill="#D65F1D"></path>
            <path d="M55.3861782,8.77538361 C55.003604,9.93682623 54.3905347,11.0227279 53.5897426,11.9516459" id="Fill-82" fill="#D65F1D"></path>
            <path d="M52.4623366,22.4310689 C52.9815446,21.6768393 53.0385743,20.7136918 53.2512475,19.8249049 C53.8227327,17.4583475 55.5383762,15.548577 56.586297,13.3496262" id="Fill-84" fill="#D65F1D"></path>
            <path d="M53.910297,21.9319082 C53.720198,21.6804984 53.8152475,21.3252197 53.9269307,21.031318 C54.410495,19.745941 55.0342574,18.5136787 55.7851485,17.362859" id="Fill-86" fill="#D65F1D"></path>
            <path d="M56.204198,21.3683016 C57.2331089,19.3900721 58.1717228,17.3646295 59.0164752,15.3014164 C59.4584554,14.2202361 59.8790495,13.1119082 59.974099,11.9492852" id="Fill-88" fill="#D65F1D"></path>
            <path d="M58.4331089,10.2553967 C58.1574653,11.0332328 57.7166733,11.7532328 57.1475644,12.3528393" id="Fill-90" fill="#D65F1D"></path>
            <path d="M61.8906535,13.1832 C60.9639208,15.339659 60.0288713,17.5232656 59.6534257,19.8390689" id="Fill-92" fill="#D65F1D"></path>
            <path d="M62.3710099,15.9484721 C61.7258614,17.3436197 61.3171485,18.8438164 61.1674455,20.3711607" id="Fill-94" fill="#D65F1D"></path>
            <path d="M66.1186931,13.0240918 C65.4307723,15.3859279 64.5515644,17.6911082 63.4905743,19.9124852" id="Fill-96" fill="#D65F1D"></path>
            <path d="M68.1630891,13.327318 C67.591604,15.2193836 66.8668515,17.0665967 66.0007129,18.8441705" id="Fill-98" fill="#D65F1D"></path>
            <path d="M68.6852673,16.686177 C68.441703,17.3046689 68.0935842,17.8865705 67.662297,18.3941115" id="Fill-100" fill="#D65F1D"></path>
            <path d="M71.3295446,13.4010885 C70.9362772,15.1314492 70.1865743,16.7803672 69.1434059,18.2180066" id="Fill-102" fill="#D65F1D"></path>
            <path d="M72.8344158,14.9848525 C72.2320396,16.2950164 71.4573861,17.5296393 70.5354059,18.6438689" id="Fill-104" fill="#D65F1D"></path>
            <path d="M73.8716436,15.9542557 C73.3678812,16.6671738 72.8641188,17.3800918 72.3615446,18.0930098" id="Fill-106" fill="#D65F1D"></path>
            <path d="M75.186297,15.7086295 C74.6825347,16.599777 74.065901,17.4248262 73.3530297,18.1625311" id="Fill-108" fill="#D65F1D"></path>
            <path d="M1.14689109,61.4141115 C4.96194059,56.7293902 8.77580198,52.0458492 12.5908515,47.3623082 C16.9583762,41.9988984 21.3888713,36.5729311 26.9813465,32.4807344 C33.525505,27.6933246 41.3421386,24.9620459 49.1171881,22.6049311 C57.4720396,20.0719475 66.0645149,17.8706361 74.7995644,17.9874885 C79.1266931,18.0441443 83.5524356,18.6602754 87.7144158,17.4811279 C94.7730297,15.4828328 98.5167921,8.13411148 102.770257,2.19234098 C103.294218,1.45817705 104.459762,0.826701639 105.984119,1.35312787 C106.701743,1.59981639 107.863723,2.89463607 108.235604,3.55207869 C109.724317,6.18066885 110.942139,8.45043934 111.198772,11.4567344 C111.312832,12.7940459 110.124713,14.2895213 110.61897,15.5394885 C110.993228,16.4861115 112.427287,17.2580459 113.250653,17.8647344 C116.364713,20.1616525 117.739366,23.7049967 119.026099,26.8328656 C119.255406,27.3911607 119.477584,27.9836852 119.400356,28.5832918 C119.143723,30.563882 114.523129,30.8542426 112.53303,30.5686033 C107.267287,29.8143738 101.904119,29.7388328 96.6193663,30.347882 C92.2898614,30.848341 87.8237228,31.8952918 84.5005545,34.6997508 C82.4795644,36.4065049 82.0292673,40.0371934 80.345703,42.073259 C76.5199604,46.7048656 71.5607525,50.2517508 66.6609505,53.744341 C61.3322376,57.5414557 54.896198,60.0059803 48.7072871,62.1565377 C45.8653069,63.1456525 42.8902574,63.7629639 40.125505,64.9503738 C37.7468911,65.9713574 35.5167921,67.4160787 32.9813465,67.9495869 C30.955604,68.3745049 28.8573861,68.1927344 26.7948119,68.007423 C20.2090693,67.4148984 13.6197624,66.8235541 7.0340198,66.2310295 C5.25421782,66.0705049 3.21065347,65.757718 2.28273267,64.2409967 C2.93619802,63.9565377 7.35837624,62.946177 7.49263366,62.4398164 C7.61738614,61.9641443 1.35718812,61.1556197 1.14689109,61.4141115" id="Fill-110" fill="#D65F1D"></path>
            <path d="M13.4284752,64.7937443 C13.4284752,64.7937443 13.4771881,64.8197115 13.5520396,64.8740066 C13.625703,64.9164984 13.7231287,65.0392525 13.856198,65.0723016 C13.9785743,65.131318 14.105703,65.1738098 14.2791683,65.217482 C14.4253069,65.2847607 14.6379802,65.2906623 14.7829307,65.3189902 C14.9837228,65.3402361 15.1833267,65.3591213 15.3710495,65.3791869 C15.5575842,65.3957115 15.7334257,65.4547279 15.8843168,65.4830557 C16.1837228,65.559777 16.3738218,65.653023 16.3738218,65.653023 C16.3738218,65.653023 16.1611485,65.7238426 15.8569901,65.7686951 C15.706099,65.782859 15.5326337,65.8218098 15.3413465,65.8218098 C15.1524356,65.8241705 14.9504554,65.8265311 14.7484752,65.8288918 L14.4134257,65.7450885 C14.306495,65.7238426 14.2090693,65.6730885 14.1140198,65.6294164 C13.9215446,65.5585967 13.7670891,65.3933508 13.6470891,65.2694164 C13.505703,65.1561049 13.5211485,65.0121049 13.4700594,64.933023 C13.4403564,64.846859 13.4284752,64.7937443 13.4284752,64.7937443" id="Fill-112" fill="#CC5519"></path>
            <path d="M17.8827327,65.5568262 C17.8827327,65.5568262 18.0930297,65.4458754 18.4708515,65.2747279 C18.8724356,65.1519738 19.4712475,64.9961705 20.1829307,64.951318 C20.535802,64.9111869 20.9231287,64.8958426 21.3128317,64.8238426 C21.5112475,64.7990557 21.7096634,64.7601049 21.9033267,64.6975475 C22.1041188,64.6515148 22.2989703,64.5924984 22.4819406,64.4957115 C22.5651089,64.4567607 22.695802,64.4048262 22.7433267,64.378859 L23.0154059,64.1746623 L23.2922376,63.9681049 L23.4930297,63.7284984 C23.6332277,63.5785967 23.7651089,63.4121705 23.8720396,63.2079738 C23.9920396,63.0203016 24.1049109,62.8267279 24.1880792,62.6130885 C24.3948119,62.2164984 24.5243168,61.7679738 24.6645149,61.3277115 C24.7666931,60.8980721 24.8629307,60.4696131 24.8950099,60.0364328 C24.9579802,59.6103344 24.9377822,59.191318 24.955604,58.7959082 C24.9211485,58.4016787 24.9270891,58.0216131 24.8486733,57.682859 C24.7453069,56.9959082 24.5908515,56.4281705 24.4494653,56.0433836 C24.3092673,55.6550557 24.2296634,55.4331541 24.2296634,55.4331541 C24.2296634,55.4331541 24.3425347,55.6408918 24.5421386,56.0044328 C24.6490693,56.1862033 24.735802,56.4222689 24.8415446,56.6937443 C24.9627327,56.9616787 25.0542178,57.2756459 25.1338218,57.6273836 C25.2383762,57.9732197 25.2645149,58.3639082 25.3310495,58.773482 C25.3441188,59.1854164 25.4023366,59.626859 25.3393663,60.0753836 C25.3167921,60.5274492 25.2276832,60.994859 25.1231287,61.4681705 C24.9924356,61.9131541 24.8736238,62.3817443 24.6526337,62.8279082 C24.5587723,63.0545311 24.4304554,63.2658098 24.2926337,63.4711869 C24.1726337,63.6836459 24.0134257,63.881941 23.8292673,64.0672525 L23.5690693,64.3481705 L23.2874851,64.5464656 L23.0094653,64.7435803 C22.8633267,64.8297443 22.7777822,64.8462689 22.6601584,64.9005639 C22.4439208,65.0032525 22.2229307,65.0752525 22.0007525,65.1047607 C21.7797624,65.1566951 21.5670891,65.1826623 21.3579802,65.1921049 C20.9397624,65.2369574 20.5536238,65.2239738 20.1983762,65.2381377 C19.4843168,65.2369574 18.9116436,65.2888918 18.5076832,65.3667934 L17.8827327,65.5568262 Z" id="Fill-114" fill="#CC5519"></path>
            <path d="M16.2049901,51.7248 C16.2049901,51.7248 16.6386535,51.6138492 17.2921188,51.5088 C17.4560792,51.4851934 17.6331089,51.4580459 17.8208317,51.4308984 C18.0168713,51.4072918 18.1879604,51.361259 18.4303366,51.3648 C18.6370693,51.3600787 18.8497426,51.3565377 19.0659802,51.3529967 C19.2857822,51.3565377 19.4972673,51.3234885 19.7301386,51.3636197 C19.9558812,51.4025705 20.184,51.4391607 20.4073663,51.4757508 C20.6176634,51.5088 20.8707327,51.5489311 21.0548911,51.6291934 C21.2509307,51.6929311 21.4350891,51.7613902 21.6133069,51.8747016 C21.7832079,51.9821115 21.9626139,52.0517508 22.0885545,52.1733246 C22.6493465,52.5840787 22.8192475,53.031423 22.8394455,53.0066361 C22.8394455,53.0066361 22.7491485,52.9405377 22.5923168,52.8272262 C22.4556832,52.6926689 22.2133069,52.5675541 21.934099,52.4164721 C21.8045941,52.3255869 21.6323168,52.290177 21.4719208,52.2205377 C21.3174653,52.1485377 21.1166733,52.1119475 20.9194455,52.0505705 C20.7174653,51.9785705 20.5451881,51.9726689 20.3265743,51.9467016 C20.1210297,51.9230951 19.9131089,51.8983082 19.7051881,51.8747016 C19.5032079,51.8239475 19.2715248,51.8440131 19.0588515,51.8286689 C18.8426139,51.8215869 18.6299406,51.8145049 18.4232079,51.807423 C18.0168713,51.8027016 17.6366733,51.7979803 17.3123168,51.7956197 C16.6493465,51.7767344 16.2049901,51.7248 16.2049901,51.7248" id="Fill-116" fill="#CC5519"></path>
            <path d="M8.61908911,54.593823 C8.61908911,54.593823 8.77829703,54.3530361 9.05750495,53.9304787 C9.35572277,53.5197246 9.70978218,52.8894295 10.297901,52.2367082 C10.5842376,51.9014951 10.8717624,51.5367738 11.2210693,51.1519869 C11.5905743,50.8191344 11.9802772,50.468577 12.3842376,50.1062164 C12.7870099,49.7438557 13.2218614,49.3897574 13.6650297,49.0309377 C14.0903762,48.6638557 14.5893861,48.3203803 14.9695842,47.9214295 C15.3913663,47.5272 15.8143366,47.1317902 16.2289901,46.7434623 C16.6448317,46.3539541 16.9620594,45.9077902 17.3196832,45.5100197 C17.6594851,45.0992656 18.0242376,44.7310033 18.288,44.3119869 C18.5707723,43.9094951 18.8392871,43.5294295 19.087604,43.1776918 C19.587802,42.4753967 19.8895842,41.8203148 20.1569109,41.3906754 C20.4147327,40.9551344 20.5608713,40.7049049 20.5608713,40.7049049 C20.5608713,40.7049049 20.4468119,40.9704787 20.2472079,41.4355279 C20.0167129,41.8816918 19.8028515,42.5910689 19.3347327,43.3264131 C19.1054257,43.6982164 18.8571089,44.1007082 18.5945347,44.5268066 C18.3533465,44.9670689 18.0087921,45.3731016 17.658297,45.7992 C17.3018614,46.2123148 16.9703762,46.6903475 16.5628515,47.0869377 C16.1541386,47.4847082 15.7394851,47.8860197 15.3260198,48.2896918 C14.8947327,48.7193311 14.4230495,49.0226754 13.9810693,49.3897574 C13.5319604,49.7391344 13.0899802,50.0837902 12.6800792,50.4378885 C12.2594851,50.7825443 11.8543366,51.1142164 11.468198,51.4293639 C11.1331485,51.7610361 10.8135446,52.1151344 10.517703,52.4208393 C9.90819802,53.0275279 9.46621782,53.6070689 9.13710891,53.9894951 C8.80681188,54.3731016 8.61908911,54.593823 8.61908911,54.593823" id="Fill-118" fill="#CC5519"></path>
            <path d="M24.9545347,46.0814164 C24.9545347,46.0814164 25.0127525,46.4425967 25.1137426,47.0740721 C25.1600792,47.3892197 25.218297,47.7751869 25.2824554,48.2154492 C25.3739406,48.6498098 25.5592871,49.114859 25.7018614,49.6353836 C25.7790891,49.8926951 25.8610693,50.1618098 25.9442376,50.4403672 C26.0345347,50.7012197 26.1806733,50.986859 26.3030495,51.271318 C26.5442376,51.8555803 26.8531485,52.4363016 27.1644356,53.0359082 C27.7893861,54.2386623 28.5188911,55.5181377 29.1367129,56.8625311 C29.4337426,57.5270557 29.6749307,58.2529574 29.8721584,58.9505311 C30.0396832,59.6646295 30.1905743,60.3751869 30.2000792,61.081023 C30.2487921,61.7844984 30.1418614,62.4655475 30.0040396,63.0946623 C29.8911683,63.3956459 29.7818614,63.6871869 29.6761188,63.9692852 C29.6238416,64.1073836 29.5715644,64.2443016 29.5216634,64.3776787 C29.4420594,64.5016131 29.3660198,64.6255475 29.2911683,64.745941 C28.9905743,65.2310557 28.7149307,65.667777 28.3608713,65.959318 C28.0341386,66.2732852 27.777505,66.5742689 27.4816634,66.7241705 C26.9363168,67.0652852 26.6238416,67.2612197 26.6238416,67.2612197 C26.6238416,67.2612197 26.9137426,67.0381377 27.4198812,66.6462689 C27.6967129,66.4798426 27.9260198,66.1611541 28.218297,65.8318426 C28.5390891,65.5225967 28.7624554,65.0846951 29.0274059,64.6267279 C29.0927525,64.5110557 29.1664158,64.3989246 29.228198,64.2749902 C29.2733465,64.1404328 29.318495,64.0023344 29.3636436,63.8606951 C29.4527525,63.586859 29.5442376,63.3024 29.638099,63.010859 C29.737901,62.4088918 29.8032475,61.7679738 29.7545347,61.1034492 C29.7355248,60.4365639 29.5798812,59.7566951 29.407604,59.0756459 C29.2032475,58.3945967 28.9727525,57.7324328 28.6650297,57.0667279 C28.0828515,55.7435803 27.3818614,54.4676459 26.7628515,53.229482 C26.4444356,52.6098098 26.1699802,52.0031213 25.9573069,51.4141377 C25.8468119,51.1155148 25.7220594,50.8487607 25.6317624,50.547777 C25.5604752,50.2574164 25.4891881,49.9764984 25.4226535,49.705023 C25.2943366,49.1656131 25.148198,48.675777 25.0935446,48.2343344 C25.0626535,47.7905311 25.0353267,47.4033836 25.0139406,47.0846951 C24.9771089,46.447318 24.9545347,46.0814164 24.9545347,46.0814164" id="Fill-120" fill="#CC5519"></path>
            <path d="M29.0479604,68.0258361 C29.0479604,68.0258361 29.1893465,67.903082 29.4364752,67.6894426 C29.6919208,67.4793443 30.0091485,67.1547541 30.3548911,66.7274754 C30.5378614,66.524459 30.704198,66.2789508 30.8752871,66.0180984 C31.0546931,65.7631475 31.193703,65.4609836 31.3683564,65.1718033 C31.5133069,64.864918 31.6772673,64.5556721 31.7925149,64.2157377 C31.9303366,63.8958689 32.0206337,63.5193443 32.1168713,63.2077377 C32.1917228,62.8441967 32.2653861,62.4818361 32.3402376,62.1230164 C32.434099,61.7630164 32.4352871,61.4183607 32.4649901,61.0807869 C32.474495,60.7432131 32.5481584,60.4221639 32.5362772,60.1046557 C32.5362772,59.7883279 32.5362772,59.4920656 32.5374653,59.2158689 C32.5493465,58.6622951 32.4923168,58.2031475 32.4851881,57.877377 C32.4733069,57.5516066 32.4661782,57.3651148 32.4661782,57.3651148 C32.4661782,57.3651148 32.5089505,57.5457049 32.583802,57.8632131 C32.633703,58.1842623 32.7917228,58.6351475 32.8261782,59.1958033 C32.8523168,59.4767213 32.8808317,59.7800656 32.9105347,60.1011148 C32.9533069,60.4221639 32.9188515,60.7703607 32.9081584,61.1256393 C32.8879604,61.4820984 32.8927129,61.8598033 32.8107327,62.2127213 C32.7489505,62.5727213 32.6859802,62.9374426 32.6218218,63.3033443 C32.4923168,63.6999344 32.3960792,64.0422295 32.2380594,64.3916066 C32.1049901,64.7433443 31.9232079,65.0655738 31.7604356,65.383082 C31.3956832,65.9968525 30.9798416,66.5256393 30.5687525,66.9198689 C30.3762772,67.1299672 30.1707327,67.2952131 29.9818218,67.4309508 C29.7988515,67.5749508 29.6384554,67.6929836 29.4946931,67.7697049 C29.2107327,67.9325902 29.0479604,68.0258361 29.0479604,68.0258361" id="Fill-122" fill="#CC5519"></path>
            <path d="M31.9731089,56.2709508 C31.9731089,56.2709508 31.9410297,56.0785574 31.884,55.7421639 C31.8697426,55.5698361 31.8079604,55.3727213 31.7378614,55.1531803 C31.6808317,54.9277377 31.5834059,54.6881311 31.4598416,54.4296393 C31.363604,54.1628852 31.1830099,53.9102951 31.0131089,53.6376393 C30.853901,53.3992131 30.5604356,53.1383607 30.3370693,52.8609836 C30.1018218,52.5800656 29.8463762,52.3050492 29.563604,52.052459 C29.2879604,51.778623 29.0111287,51.5508197 28.7307327,51.2344918 C28.4824158,50.9346885 28.234099,50.6348852 27.9893465,50.3398033 C27.733901,50.0553443 27.5556832,49.6941639 27.344198,49.388459 C27.1469703,49.0709508 26.9390495,48.7711475 26.8202376,48.452459 C26.6847921,48.1408525 26.5564752,47.8481311 26.4388515,47.5778361 C26.1869703,47.0431475 26.133505,46.5391475 26.0253861,46.216918 C25.9445941,45.8852459 25.8994455,45.6963934 25.8994455,45.6963934 C25.8994455,45.6963934 25.9790495,45.874623 26.1204356,46.1874098 C26.2677624,46.4942951 26.4150891,46.9558033 26.7026139,47.4598033 C26.8428119,47.7123934 26.9925149,47.9862295 27.1517228,48.2765902 C27.294297,48.5752131 27.523604,48.8372459 27.713703,49.1382295 C27.9263762,49.4250492 28.0867723,49.7496393 28.3552871,50.0305574 C28.6095446,50.3185574 28.8661782,50.612459 29.124,50.9051803 C29.3509307,51.1801967 29.6645941,51.4658361 29.9259802,51.7396721 C30.2087525,52.0099672 30.4582574,52.2956066 30.6828119,52.5812459 C30.914495,52.8751475 31.1390495,53.1100328 31.3291485,53.4393443 C31.4871683,53.7485902 31.6511287,54.0318689 31.7283564,54.3245902 C31.8388515,54.6043279 31.9006337,54.871082 31.924396,55.1165902 C31.9624158,55.3585574 31.9956832,55.5639344 31.983802,55.735082 C31.9766733,56.0761967 31.9731089,56.2709508 31.9731089,56.2709508" id="Fill-124" fill="#CC5519"></path>
            <path d="M68.3846733,49.0956197 C69.5145743,50.6324066 71.6234851,51.0360787 73.5304158,51.2202098 C75.7973465,51.4397508 78.0785347,51.5188328 80.3549703,51.4550951 C80.9692277,51.4385705 81.6654653,51.3701115 82.0349703,50.886177 C82.4211089,50.3786361 82.2725941,49.6645377 82.1062574,49.0531279 C81.781901,47.8680787 81.4076436,46.6039475 80.4452673,45.8331934 C79.7454653,45.273718 78.8270495,45.0600787 77.9347723,44.9644721 C74.6840792,44.6115541 71.4226931,45.5865049 68.4535842,46.9521443" id="Fill-126" fill="#CE5619"></path>
            <path d="M93.2691089,17.9102951 C93.2691089,17.9102951 94.0176238,16.9518689 95.1843564,15.5567213 C95.4778218,15.2097049 95.7962376,14.8331803 96.1324752,14.4354098 C96.4853465,14.0494426 96.8061386,13.6032787 97.1233663,13.1370492 C97.7768317,12.2175738 98.4742574,11.2367213 99.1716832,10.2546885 C99.5364356,9.77783607 99.8774257,9.27265574 100.199406,8.77337705 C100.52495,8.27409836 100.845743,7.78308197 101.214059,7.33219672 C101.575248,6.88013115 101.879406,6.42098361 102.273861,6.04918033 C102.646931,5.68445902 102.997426,5.33862295 103.381188,5.06478689 C103.737624,4.76262295 104.091683,4.53363934 104.420792,4.35422951 C104.739208,4.15947541 105.020792,3.99540984 105.270297,3.89508197 C105.758614,3.67908197 106.036634,3.55632787 106.036634,3.55632787 C106.036634,3.55632787 105.775248,3.71213115 105.31901,3.98242623 C105.081386,4.104 104.821188,4.29167213 104.527723,4.51239344 C104.222376,4.72013115 103.900396,4.9762623 103.572475,5.27960656 C103.225545,5.55580328 102.895248,5.92170492 102.544752,6.30885246 C102.197822,6.67239344 101.92099,7.15868852 101.574059,7.59304918 C100.877822,8.46885246 100.33604,9.57481967 99.5958416,10.5415082 C98.8710891,11.5223607 98.1451485,12.5032131 97.4643564,13.4226885 C97.1388119,13.896 96.7847525,14.3161967 96.4128713,14.6820984 C96.0528713,15.0598033 95.7142574,15.4174426 95.4005941,15.7479344 C94.1388119,17.060459 93.2691089,17.9102951 93.2691089,17.9102951" id="Fill-128" fill="#CC5519"></path>
            <path d="M94.3052673,18.8519607 C94.3052673,18.8519607 95.041901,18.1036328 96.1884356,17.0283541 C96.4652673,16.7521574 96.8157624,16.4948459 97.0842772,16.1348459 C97.3729901,15.7960918 97.6783366,15.4384525 97.9931881,15.0690098 C98.3139802,14.7054689 98.6442772,14.3301246 98.981703,13.9488787 C99.3072475,13.5652721 99.6102178,13.1261902 99.9250693,12.7142557 C100.561901,11.8915672 101.182099,11.0440918 101.830812,10.2934033 C102.13497,9.90389508 102.487842,9.57222295 102.805069,9.24763279 C103.116356,8.91478033 103.47398,8.66100984 103.768634,8.39779672 C104.064475,8.13222295 104.399525,7.96461639 104.665663,7.78402623 C104.928238,7.59753443 105.193188,7.49248525 105.404673,7.39687869 C105.826455,7.2151082 106.067644,7.11005902 106.067644,7.11005902 C106.067644,7.11005902 105.844277,7.24579672 105.45101,7.48422295 C105.25497,7.60107541 105.010218,7.72973115 104.772594,7.94219016 C104.531406,8.1511082 104.232,8.34232131 103.956356,8.61615738 C102.801505,9.65956721 101.569426,11.3261902 100.333782,13.024682 C100.005861,13.4354361 99.7040792,13.8532721 99.3535842,14.2475016 C99.0007129,14.6311082 98.6537822,15.0088131 98.3175446,15.3747148 C97.9765545,15.7335344 97.6474455,16.0805508 97.3349703,16.4110426 C97.0379406,16.7568787 96.6743762,16.9870426 96.3785347,17.2455344 C95.1512079,18.2275672 94.3052673,18.8519607 94.3052673,18.8519607" id="Fill-130" fill="#CC5519"></path>
            <path d="M95.8750099,19.6000525 C95.8750099,19.6000525 96.1066931,19.4961836 96.5118416,19.3144131 C96.9241188,19.1361836 97.4718416,18.8399213 98.0991683,18.4244459 C98.7407525,18.032577 99.4120396,17.4624787 100.128475,16.8581508 C100.83897,16.2420197 101.55897,15.5397246 102.275406,14.8268066 C103.004911,14.1280525 103.739168,13.4269377 104.450851,12.7883803 C105.169663,12.1604459 105.882535,11.6151344 106.527683,11.199659 C106.840158,10.9789377 107.149069,10.8077902 107.428277,10.6673311 C107.701545,10.5174295 107.941545,10.3923148 108.150653,10.3120525 C108.562931,10.1420852 108.798178,10.0452984 108.798178,10.0452984 C108.798178,10.0452984 108.579564,10.1751344 108.19699,10.400577 C107.81204,10.616577 107.290455,10.9742164 106.695208,11.4333639 C106.086891,11.8759869 105.450059,12.4850361 104.752634,13.1165115 C104.064713,13.7621508 103.351842,14.4762492 102.635406,15.1927082 C101.89996,15.8891016 101.15501,16.5843148 100.416,17.1957246 C99.6710495,17.7988721 98.926099,18.3052328 98.2476832,18.6699541 C97.9185743,18.8670689 97.5954059,19.0146098 97.3007525,19.126741 C97.0132277,19.2506754 96.7625347,19.3510033 96.546297,19.4064787 C96.1197624,19.5292328 95.8750099,19.6000525 95.8750099,19.6000525" id="Fill-132" fill="#CC5519"></path>
            <path d="M96.6199604,20.6156066 C96.6199604,20.6156066 96.8314455,20.5424262 97.2009505,20.4149508 C97.3874851,20.3547541 97.6120396,20.2815738 97.8710495,20.1977705 C98.1348119,20.1257705 98.405703,19.9817705 98.7134257,19.861377 C99.0152079,19.728 99.3514455,19.6111475 99.686495,19.4388197 C100.019168,19.2582295 100.366099,19.0634754 100.734416,18.8793443 C101.101545,18.6963934 101.441347,18.4343607 101.807287,18.208918 C102.175604,17.9858361 102.51303,17.715541 102.868277,17.4393443 C103.568079,16.9058361 104.238178,16.3357377 104.889267,15.8045902 C105.53204,15.2699016 106.186693,14.824918 106.755802,14.464918 C107.031446,14.2701639 107.323723,14.1509508 107.564911,14.0222951 C107.804911,13.8912787 108.029465,13.8062951 108.214812,13.7401967 C108.583129,13.608 108.793426,13.532459 108.793426,13.532459 C108.793426,13.532459 108.598574,13.6410492 108.257584,13.8299016 C108.084119,13.9184262 107.878574,14.0281967 107.658772,14.1887213 C107.440158,14.3468852 107.177584,14.4944262 106.918574,14.7021639 C106.383921,15.0904918 105.804119,15.5992131 105.176792,16.1445246 C104.549465,16.6827541 103.881743,17.283541 103.179564,17.845377 C102.826693,18.1062295 102.460752,18.3824262 102.072238,18.6055082 C101.688475,18.8285902 101.33204,19.0882623 100.948277,19.2676721 C100.190257,19.648918 99.4571881,19.9451803 98.8025347,20.1340328 C98.165703,20.3736393 97.6084752,20.4279344 97.225901,20.5117377 C96.8409505,20.5778361 96.6199604,20.6156066 96.6199604,20.6156066" id="Fill-134" fill="#CC5519"></path>
            <path d="M96.8868119,22.6270033 C96.8868119,22.6270033 97.6400792,22.3944787 98.7794851,22.1052984 C99.3343366,21.963659 99.9973069,21.7488393 100.706614,21.5729705 C101.418297,21.394741 102.177505,21.2035279 102.936713,21.0123148 C103.699485,20.8423475 104.464634,20.6735607 105.181069,20.5153967 C105.897505,20.3548721 106.574733,20.2439213 107.15097,20.1294295 C108.30701,19.9193311 109.088792,19.8190033 109.088792,19.8190033 C109.088792,19.8190033 108.346218,20.0798557 107.217505,20.4091672 C106.65196,20.5649705 105.996119,20.7703475 105.284436,20.9462164 C104.573941,21.1268066 103.813545,21.3180197 103.054337,21.5092328 C101.52404,21.8503475 100.006812,22.1926426 98.8329505,22.3862164 C97.6697822,22.553823 96.8868119,22.6270033 96.8868119,22.6270033" id="Fill-136" fill="#CC5519"></path>
            <path d="M97.3810693,24.5750164 C97.3810693,24.5750164 98.497901,24.4357377 100.177901,24.2858361 C101.017901,24.220918 101.996911,24.1229508 103.048396,24.0592131 C104.098693,23.9931148 105.220277,23.9222951 106.340673,23.8538361 C107.46701,23.8101639 108.581465,23.7582295 109.63295,23.6909508 C110.674931,23.5977049 111.655129,23.572918 112.479683,23.425377 C112.89196,23.3580984 113.279287,23.3333115 113.61196,23.2648525 C113.943446,23.1893115 114.234535,23.1243934 114.473347,23.072459 C114.955723,22.9709508 115.230178,22.9131148 115.230178,22.9131148 C115.230178,22.9131148 114.965228,23.0051803 114.500673,23.1680656 C114.034931,23.3274098 113.367208,23.569377 112.528396,23.7098361 C112.112554,23.796 111.663446,23.8963279 111.179881,23.9494426 C110.699881,24.0096393 110.18899,24.0958033 109.66503,24.1335738 C108.615921,24.220918 107.487208,24.3 106.368,24.3625574 C105.246416,24.4097705 104.124832,24.4558033 103.072158,24.5006557 C102.019485,24.5466885 101.035723,24.5502295 100.193347,24.5726557 C98.5074059,24.598623 97.3810693,24.5750164 97.3810693,24.5750164" id="Fill-138" fill="#CC5519"></path>
            <path d="M97.600396,26.7569705 C97.600396,26.7569705 97.879604,26.7746754 98.3679208,26.8053639 C98.8550495,26.8277902 99.5548515,26.931659 100.387723,26.9257574 C100.802376,26.9328393 101.252673,26.9399213 101.729109,26.9481836 C102.203168,26.9658885 102.708119,26.9068721 103.226139,26.9045115 C104.266931,26.9021508 105.373069,26.7711344 106.479208,26.6826098 C107.58297,26.5563148 108.690297,26.4548066 109.721584,26.290741 C110.756436,26.1455607 111.723564,26.0110033 112.550495,25.8965115 C114.209109,25.6580852 115.32,25.5247082 115.32,25.5247082 C115.32,25.5247082 114.241188,25.8197902 112.602772,26.1797902 C111.781782,26.3450361 110.827723,26.5704787 109.790495,26.729823 C108.756832,26.9163148 107.642376,27.0426098 106.530297,27.1901508 C105.408713,27.2574295 104.291881,27.3672 103.235644,27.3483148 C102.709307,27.3483148 102.20198,27.3660197 101.718416,27.3211672 C101.23604,27.2810361 100.779802,27.2444459 100.35802,27.2113967 C99.5144554,27.1700852 98.8407921,26.9670689 98.3560396,26.9045115 C97.8748515,26.8100852 97.600396,26.7569705 97.600396,26.7569705" id="Fill-140" fill="#CC5519"></path>
            <path d="M97.6201188,28.346518 C97.6201188,28.346518 97.9551683,28.4196984 98.5409109,28.5459934 C98.8331881,28.6168131 99.1955644,28.634518 99.6030891,28.6911738 C100.01299,28.7372066 100.483485,28.7336656 100.989624,28.7584525 C102.00903,28.7643541 103.192396,28.6475016 104.461307,28.4976 C105.721901,28.3358951 107.09299,28.1458623 108.452198,28.0065836 C109.816158,27.8743869 111.177743,27.7410098 112.45497,27.6182557 C113.727446,27.4943213 114.934574,27.3987148 115.961109,27.3621246 C116.479129,27.3656656 116.954376,27.3467803 117.373782,27.3939934 C117.793188,27.4482885 118.159129,27.4530098 118.452594,27.5320918 C119.03596,27.6772721 119.369822,27.7598951 119.369822,27.7598951 C119.369822,27.7598951 119.031208,27.712682 118.438337,27.630059 C118.146059,27.5769443 117.778931,27.6040918 117.366653,27.5840262 C116.954376,27.5745836 116.487446,27.6336 115.980119,27.6489443 C114.954772,27.7292066 113.783287,27.918059 112.502495,28.058518 C111.227644,28.2036984 109.867248,28.3595016 108.506851,28.5141246 C107.141703,28.630977 105.796752,28.7950426 104.51002,28.9378623 C103.226851,29.0688787 102.01497,29.0936656 100.980119,29.0452721 C100.464475,29.0004197 99.9904158,28.9614689 99.5757624,28.8788459 C99.1646733,28.7856 98.7987327,28.7360262 98.5147723,28.6404197 C97.9444752,28.4539279 97.6201188,28.346518 97.6201188,28.346518" id="Fill-142" fill="#CC5519"></path>
            <path d="M110.976,19.2139672 C110.976,19.2139672 111.138772,19.0794098 111.400158,18.9354098 C111.535604,18.8716721 111.685307,18.7772459 111.856396,18.7135082 C112.029861,18.6497705 112.212832,18.5824918 112.395802,18.5140328 C112.585901,18.468 112.777188,18.4219672 112.955406,18.3794754 C113.132436,18.334623 113.310653,18.331082 113.45798,18.3074754 C113.756198,18.2815082 113.967683,18.3039344 113.967683,18.3039344 C113.967683,18.3039344 113.804911,18.4396721 113.542337,18.5836721 C113.408079,18.6462295 113.259564,18.7430164 113.086099,18.8032131 C112.913822,18.8669508 112.730851,18.9354098 112.546693,19.0026885 C112.356594,19.0487213 112.166495,19.0935738 111.988277,19.1384262 C111.808871,19.1820984 111.631842,19.1868197 111.485703,19.2080656 C111.187485,19.2352131 110.976,19.2139672 110.976,19.2139672" id="Fill-144" fill="#CC5519"></path>
            <path d="M108.936238,22.0668197 C108.936238,22.0668197 109.37703,21.9629508 110.041188,21.8673443 C110.717228,21.8036066 111.564356,21.5911475 112.423366,21.4518689 C113.269307,21.2311475 114.141386,21.0812459 114.771089,20.8723279 C115.410297,20.6940984 115.860594,20.6102951 115.860594,20.6102951 C115.860594,20.6102951 115.479208,20.844 114.870891,21.142623 C114.564356,21.283082 114.21505,21.4790164 113.80396,21.5793443 C113.396436,21.6985574 112.96396,21.8260328 112.529109,21.9523279 C112.078812,22.0113443 111.627327,22.0703607 111.203168,22.1258361 C110.781386,22.1966557 110.391683,22.1600656 110.055446,22.1541639 C109.385347,22.1258361 108.936238,22.0668197 108.936238,22.0668197" id="Fill-146" fill="#CC5519"></path>
            <path d="M103.945901,18.9269115 C103.945901,18.9269115 104.07303,18.896223 104.296396,18.8407475 C104.525703,18.7911738 104.810851,18.6790426 105.141149,18.4949115 C105.48095,18.3332066 105.818376,18.0452066 106.180752,17.7501246 C106.537188,17.442059 106.886495,17.074977 107.220356,16.6913705 C107.574416,16.3124852 107.915406,15.9288787 108.274218,15.5830426 C108.605703,15.217141 109.006099,14.9610098 109.326891,14.7273049 C109.63105,14.4688131 109.998178,14.4216 110.194218,14.3141902 C110.408079,14.2351082 110.531644,14.1914361 110.531644,14.1914361 C110.531644,14.1914361 110.424713,14.2693377 110.238178,14.4027148 C110.05996,14.5478951 109.764119,14.6718295 109.502733,14.9586492 C109.364911,15.0884852 109.215208,15.2289443 109.057188,15.3788459 C108.89798,15.5240262 108.764911,15.7223213 108.596198,15.8899279 C108.269465,16.232223 107.940356,16.6406164 107.604119,17.0324852 C107.239366,17.4137311 106.85798,17.7819934 106.462337,18.0924197 C106.060752,18.3945836 105.641347,18.6223869 105.258772,18.7557639 C105.073426,18.8360262 104.890455,18.878518 104.721743,18.8985836 C104.55897,18.9269115 104.41996,18.9481574 104.307089,18.9387148 C104.076594,18.9316328 103.945901,18.9269115 103.945901,18.9269115" id="Fill-148" fill="#CC5519"></path>
            <path d="M106.86404,6.45627541 C106.86404,6.45627541 106.973347,6.3288 107.157505,6.1930623 C107.252554,6.13522623 107.357109,6.04552131 107.48305,5.98886557 C107.607802,5.93102951 107.740871,5.86847213 107.875129,5.80591475 C108.016515,5.76460328 108.157901,5.72447213 108.29097,5.68670164 C108.422851,5.64539016 108.560673,5.64539016 108.671168,5.62768525 C108.899287,5.60761967 109.066812,5.63358689 109.066812,5.63358689 C109.066812,5.63358689 108.958693,5.7610623 108.772158,5.89561967 C108.677109,5.95463607 108.573743,6.04434098 108.447802,6.10099672 C108.32305,6.16001311 108.188792,6.22139016 108.055723,6.28394754 C107.914337,6.32525902 107.77295,6.36539016 107.638693,6.40316066 C107.506812,6.44211148 107.370178,6.44211148 107.258495,6.46217705 C107.031564,6.4810623 106.86404,6.45627541 106.86404,6.45627541" id="Fill-150" fill="#CC5519"></path>
            <path d="M69.266495,48.4224787 C70.7979802,49.3809049 72.5991683,49.8471344 74.3991683,50.0206426 C76.2003564,50.1929705 78.015802,50.0891016 79.8229307,49.9828721" id="Fill-152" fill="#D65F1D"></path>
            <path d="M69.7005149,47.2363672 C72.9880396,46.4774164 76.4157624,46.8126295 79.7733861,47.149023" id="Fill-154" fill="#D65F1D"></path>
            <path d="M70.975604,48.1032 C71.8286733,48.4632 72.6924356,48.826741 73.6072871,48.9813639 C74.586297,49.1454295 75.5890693,49.0639869 76.5775842,48.9518557 C77.9700594,48.7925115 79.3554059,48.5717902 80.7288713,48.2920525" id="Fill-156" fill="#D65F1D"></path>
            <path d="M16.117901,55.029482 C16.5753267,56.170859 16.0121584,57.463318 14.8632475,57.9142033 C13.7167129,58.3686295 12.4145347,57.8091541 11.958297,56.6689574 C11.5032475,55.5275803 12.0652277,54.2351213 13.2141386,53.7818754 C14.3618614,53.3309902 15.6640396,53.8881049 16.117901,55.029482" id="Fill-158" fill="#CE5619"></path>
            <path d="M1.94982178,59.9145049 C1.32249505,60.0171934 0.756950495,60.692341 1.01952475,61.2671607 C1.19655446,61.6578492 1.64922772,61.830177 2.06388119,61.9470295 C3.6690297,62.4014557 6.3969505,62.5253902 8.06388119,62.4474885 C6.61675248,62.8735869 4.12289109,63.3669639 2.67576238,63.7907016 C2.41437624,63.8697836 2.14348515,63.9500459 1.92962376,64.1176525 C1.71576238,64.285259 1.56487129,64.5638164 1.6290297,64.8282098 C1.692,65.0831607 1.94031683,65.2590295 2.19813861,65.3168656 C2.45477228,65.3747016 2.72209901,65.3333902 2.98348515,65.2885377 C5.04368317,64.926177 7.07061386,64.2640131 8.85160396,63.1710295 C9.08091089,63.0293902 9.32447525,62.8582426 9.39576238,62.5973902 C9.47774257,62.3023082 9.29833663,61.9859803 9.04526733,61.8101115 C8.79338614,61.6342426 8.48209901,61.5681443 8.18031683,61.5079475 C6.92922772,61.2518164 5.50823762,61.1373246 4.30586139,60.7124066 C3.492,60.4244066 2.90625743,59.7705049 1.94982178,59.9145049" id="Fill-160" fill="#CE5619"></path>
            <path d="M8.59817822,65.3412984 C8.84768317,66.2737574 9.1340198,67.2935607 9.936,67.8412328 C10.8841188,68.4892328 12.3122376,68.2932984 13.0750099,69.1490361 C13.0072871,68.662741 12.6116436,68.2897574 12.1946139,68.0289049 C11.7787723,67.7692328 11.3130297,67.5709377 10.9625347,67.229823 C10.1023366,66.3917902 10.1926337,65.0131672 9.77441584,63.8906754 C9.5189703,63.2025443 9.02708911,62.5734295 8.34392079,62.2995934 C8.09441584,62.1980852 7.80807921,62.1485115 7.55857426,62.2464787 C6.73283168,62.5710689 7.54194059,63.122282 7.81045545,63.4633967 C8.22986139,64.0004459 8.42590099,64.6932984 8.59817822,65.3412984" id="Fill-162" fill="#CE5619"></path>
            <path d="M34.7263366,64.2507934 C35.8015842,65.5243672 36.9362376,66.7589902 38.2479208,67.7882361 C39.2649505,68.583777 40.3782178,69.2483016 41.4950495,69.897482 C42.799604,70.6587934 44.200396,71.4212852 45.7116832,71.3823344 C46.1762376,71.3705311 46.6681188,71.265482 46.9912871,70.9349902 C47.3156436,70.6056787 47.3774257,70.0013508 47.0221782,69.7050885 C47.449901,69.6755803 47.6625743,69.173941 47.7053465,68.749023 C47.7457426,68.3252852 47.7326733,67.8437115 48.0392079,67.5450885 C48.2530693,67.3373508 48.6071287,67.2358426 48.6748515,66.9466623 C48.7235644,66.7436459 48.6023762,66.5429902 48.5667327,66.3376131 C48.4431683,65.5845639 49.4792079,65.0168262 49.3817822,64.2602361 C49.3520792,64.0347934 49.2213861,63.8305967 49.2118812,63.6027934 C49.1940594,63.1601705 49.6384158,62.7683016 49.539802,62.3363016 C49.4685149,62.0282361 49.1417822,61.8287607 49.0681188,61.5218754 C49.0241584,61.3389246 49.0764356,61.1500721 49.1073267,60.965941 C49.2047525,60.4052852 49.100198,59.813941 48.8174257,59.3193836 C48.7128713,59.1399738 48.5881188,58.9735475 48.4752475,58.798859 C48.3314851,58.5734164 48.210297,58.3338098 48.0879208,58.0965639 C47.6186139,57.1794492 47.1481188,56.2635148 46.68,55.3452197 C43.050297,55.9554492 39.860198,58.1201705 36.2827723,58.9806295" id="Fill-164" fill="#CE5619"></path>
            <path d="M36.1418614,63.4404984 C37.1802772,64.7424 38.2305743,66.0561049 39.5470099,67.0770885 C41.5074059,68.5961705 43.9394851,69.3787279 46.3573069,69.9570885" id="Fill-166" fill="#D65F1D"></path>
            <path d="M37.7732673,62.917141 C39.4639604,65.5764197 42.5435644,67.3056 45.7063366,67.3728787 C46.4679208,67.388223 47.2485149,67.3185836 47.9780198,67.5381246" id="Fill-168" fill="#D65F1D"></path>
            <path d="M37.7233663,60.9542557 C38.8473267,62.0968131 40.0235644,63.2039607 41.3661386,64.0833049 C42.709901,64.9626492 44.2378218,65.6071082 45.8405941,65.7487475 C46.7233663,65.8254689 47.6263366,65.7499279 48.4889109,65.9541246" id="Fill-170" fill="#D65F1D"></path>
            <path d="M39.0577426,60.5968525 C39.9131881,61.0878689 40.7662574,61.5800656 41.6228911,62.0734426 C42.8145743,62.7580328 44.0169505,63.4508852 45.3286337,63.8699016 C46.641505,64.288918 48.0862574,64.4199344 49.3896238,63.9773115" id="Fill-172" fill="#D65F1D"></path>
            <path d="M38.0331089,59.6020721 C40.9309307,58.9883016 44.0045941,59.2137443 46.7812277,60.2441705 C47.4477624,60.490859 48.123802,60.7871213 48.834297,60.7564328" id="Fill-174" fill="#D65F1D"></path>
            <path d="M41.4223366,58.1832 C43.4825347,58.4086426 45.4892673,57.4159869 47.5625347,57.3605115" id="Fill-176" fill="#D65F1D"></path>
            <path d="M41.1786535,60.7363672 C41.644396,60.919318 42.1101386,61.1046295 42.5758812,61.289941 C43.6154851,61.6995148 44.6586535,62.1126295 45.7505347,62.3510557 C46.8424158,62.5883016 47.993703,62.6461377 49.0713267,62.3475148" id="Fill-178" fill="#D65F1D"></path>
            <path d="M66.8763564,53.5886557 C68.2011089,52.6443934 69.5282376,51.6954098 70.8363564,50.7192787 C71.6977426,50.9966557 72.6351683,51.1347541 73.5310099,51.2197377 C75.7979406,51.440459 78.0791287,51.5183607 80.3555644,51.454623 C80.9686337,51.4392787 81.6648713,51.3696393 82.0355644,50.8857049 C82.421703,50.3805246 82.2731881,49.6664262 82.1056634,49.0550164 C82.1056634,49.0550164 81.572198,45.0407213 77.8141782,44.953377 C77.7773465,44.9817049 80.4434851,42.1465574 80.9341782,41.227082 C81.4248713,40.3076066 82.872,36.478623 83.9710099,35.2286557 C85.0700198,33.9810492 87.321505,32.8396721 87.321505,32.8396721 C90.151604,31.3855082 93.422495,30.7162623 96.6197228,30.348 C101.903287,29.7389508 107.267644,29.8133115 112.533386,30.5687213 C114.523485,30.8543607 119.144079,30.564 119.400713,28.5822295 C119.476752,27.9838033 119.255762,27.3912787 119.026455,26.8329836 C118.721109,26.089377 118.408634,25.3221639 118.071208,24.5537705 C117.401109,24.8464918 116.734574,25.2300984 116.096554,25.5287213 C109.523881,28.6117377 101.911604,22.4763934 94.7591287,23.7582295 C89.492198,24.7001311 85.8755644,29.329377 82.0747723,33.0721967 C78.0981386,36.9897049 73.4704158,40.1836721 68.8308119,43.2950164 C61.552396,48.1780328 53.9484356,53.0138361 45.3428911,54.7619016 C41.5789307,55.5267541 37.5761584,55.6601311 33.9809109,54.3180984 C30.3856634,52.9760656 26.5836832,49.4504262 25.8993267,45.6958033 C22.1793267,48.2252459 27.5567525,54.680459 20.5634851,60.382623 C19.3005149,61.4118689 17.6026931,61.7234754 16.0094257,62.0870164 C12.4011089,62.9120656 10.7674455,63.2850492 9.30011881,62.0775738 C9.0090297,61.8391475 3.86447525,64.767541 2.8759604,64.9375082 C3.92982178,65.8605246 5.56823762,66.1001311 7.03437624,66.2311475 C13.6201188,66.8236721 20.2094257,67.4150164 26.7951683,68.007541 C28.8577426,68.1928525 30.9559604,68.374623 32.981703,67.9497049 C34.3278416,67.6664262 35.5872475,67.1258361 36.8300198,66.5285902 C37.2838812,66.9688525 37.7496238,67.3961311 38.2474455,67.788 C39.2656634,68.583541 40.3777426,69.2492459 41.4957624,69.8972459 C42.7991287,70.6585574 44.1999208,71.4210492 45.712396,71.3820984 C46.1757624,71.3702951 46.6676436,71.2664262 46.992,70.9347541 C47.3151683,70.6054426 47.3781386,70.0011148 47.021703,69.7048525 C47.4494257,69.6753443 47.662099,69.1737049 47.7048713,68.7487869 C47.7452673,68.3238689 47.7333861,67.8434754 48.0399208,67.5448525 C48.2525941,67.3371148 48.6066535,67.2367869 48.6755644,66.9464262 C48.7242772,66.7445902 48.601901,66.5439344 48.5674455,66.337377 C48.4426931,65.5843279 49.4787327,65.0177705 49.3813069,64.26 C49.351604,64.0357377 49.222099,63.8303607 49.2125941,63.6025574 C49.1935842,63.1599344 49.6379406,62.7680656 49.5393267,62.3360656 C49.5060594,62.1885246 49.412198,62.0657705 49.3159604,61.9441967 C51.1694257,61.2938361 53.0395248,60.6139672 54.8953663,59.875082 C54.8953663,59.875082 62.0110099,57.3385574 66.8763564,53.5886557" id="Fill-180" fill-opacity="0.3" fill="#6B3713"></path>
            <path d="M37.478495,29.4081049 C37.478495,29.4081049 37.1422574,29.8861377 36.5767129,30.7383344 C36.3236436,31.1821377 35.9707723,31.6896787 35.6523564,32.3246951 C35.3113663,32.9467279 34.9525545,33.6596459 34.5806733,34.4469246 C34.2289901,35.2424656 33.867802,36.1147279 33.5339406,37.0530885 C33.2000792,37.9914492 32.8733465,38.9900066 32.5822574,40.0381377 C32.008396,42.1355803 31.5687921,44.4171541 31.218297,46.7117115 C30.5493861,51.3114492 30.3141386,55.9749246 30.2951287,59.4651541 C30.2856238,61.2096787 30.3628515,62.6662033 30.5101782,63.673023 C30.5743366,64.1782033 30.6729505,64.5677115 30.7525545,64.8285639 C30.8428515,65.0870557 30.8903762,65.2239738 30.8903762,65.2239738 C30.8903762,65.2239738 30.8369109,65.0882361 30.7371089,64.8332852 C30.648,64.5759738 30.5327525,64.1876459 30.448396,63.6836459 C30.2618614,62.6780066 30.127604,61.2191213 30.0705743,59.4675148 C30.0087921,57.7159082 30.048,55.6715803 30.1359208,53.4832525 C30.2262178,51.2961049 30.3925545,48.9614164 30.7169109,46.6432525 C30.8737426,45.4829902 31.0519604,44.3239082 31.2931485,43.1955148 C31.5260198,42.065941 31.8099802,40.9646951 32.1070099,39.905941 C32.4171089,38.8495475 32.7509703,37.8391869 33.1145347,36.8984656 C33.4899802,35.9601049 33.888,35.0925639 34.2729505,34.3017443 C34.6840396,33.5227279 35.0571089,32.8062689 35.4527525,32.209023 C35.8151287,31.5940721 36.2072079,31.1018754 36.4899802,30.675777 C37.1101782,29.8625311 37.478495,29.4081049 37.478495,29.4081049" id="Fill-182" fill="#BC4A17"></path>
            <path d="M44.8009901,27.0832131 C44.8009901,27.0832131 44.7118812,27.1859016 44.5443564,27.3771148 C44.3863366,27.5765902 44.1071287,27.8339016 43.8493069,28.2328525 C43.5629703,28.6081967 43.26,29.0944918 42.9427723,29.6704918 C42.6374257,30.2523934 42.3261386,30.924 42.0231683,31.6723279 C41.7249505,32.4230164 41.4457426,33.2539672 41.1819802,34.1415738 C40.9051485,35.028 40.7162376,35.9781639 40.4607921,36.968459 C40.2172277,37.9552131 39.9653465,38.9738361 39.7087129,40.0101639 C39.42,41.0405902 39.2536634,42.1076066 39.0837624,43.171082 C38.8972277,44.233377 38.709505,45.2956721 38.5253465,46.3402623 C38.3067327,47.3801311 38.2211881,48.4247213 38.1273267,49.4339016 C38.0227723,50.4407213 37.9205941,51.4144918 37.8243564,52.3375082 C37.7186139,53.2617049 37.6164356,54.1351475 37.62,54.9472131 C37.4881188,58.1931148 37.400198,60.3566557 37.400198,60.3566557 C37.400198,60.3566557 37.3657426,58.1883934 37.3134653,54.9354098 C37.2837624,54.118623 37.3538614,53.240459 37.4287129,52.3103607 C37.5011881,51.3802623 37.5784158,50.3982295 37.6580198,49.3843279 C37.7411881,48.3680656 37.8160396,47.3175738 38.0239604,46.263541 C38.1974257,45.2059672 38.3756436,44.1318689 38.5538614,43.0577705 C38.7368317,41.9848525 38.9174257,40.9107541 39.2180198,39.8874098 C39.4853465,38.854623 39.7479208,37.8383607 40.0033663,36.8539672 C40.2576238,35.8778361 40.4976238,34.9087869 40.8065347,34.0259016 C41.1011881,33.1371148 41.4136634,32.3073443 41.7415842,31.5566557 C42.0671287,30.8036066 42.4271287,30.142623 42.7740594,29.5737049 C43.130495,29.0106885 43.4667327,28.537377 43.780396,28.1750164 C44.0643564,27.7890492 44.3566337,27.550623 44.5277228,27.3617705 C44.7059406,27.18 44.8009901,27.0832131 44.8009901,27.0832131" id="Fill-184" fill="#BC4A17"></path>
            <path d="M49.4920396,25.6032 C49.4920396,25.6032 49.2793663,26.114282 48.9086733,27.0066098 C48.5213465,27.8930361 48.0413465,29.1902164 47.4199604,30.722282 C47.145505,31.5012984 46.8496634,32.3452328 46.536,33.238741 C46.2853069,34.1440525 46.0203564,35.100118 45.7470891,36.0892328 C45.5605545,37.1054951 45.3181782,38.1536262 45.1637228,39.2230033 C45.0591683,40.2959213 44.8868911,41.3735607 44.8310495,42.4724459 C44.7704554,43.5713311 44.6587723,44.6643148 44.6433267,45.7502164 C44.6136238,46.8349377 44.5827327,47.9043148 44.5542178,48.9371016 C44.5375842,49.9722492 44.5102574,50.9708066 44.4674851,51.9209705 C44.4223366,52.8711344 44.4128317,53.7681836 44.3451089,54.5955934 C44.2488713,56.2539541 44.0944158,57.6278557 43.9435248,58.5839213 C43.8128317,59.5423475 43.7367921,60.0900197 43.7367921,60.0900197 C43.7367921,60.0900197 43.7783762,59.5388066 43.8532277,58.575659 C43.8841188,58.0929049 43.945901,57.509823 43.9732277,56.8393967 C43.9934257,56.1677902 44.016,55.4100197 44.0385743,54.5837902 C44.0777822,53.758741 44.0587723,52.8605115 44.0718416,51.9127082 C44.0742178,50.9637246 44.0777822,49.9651672 44.0825347,48.9300197 C44.1003564,47.8936918 44.1181782,46.8231344 44.136,45.7348721 C44.1395644,44.6454295 44.2381782,43.538282 44.2892673,42.4311344 C44.3581782,41.3251672 44.545901,40.2180197 44.665901,39.1297574 C44.835802,38.0509377 45.0876832,37.0134295 45.2849109,35.9971672 C45.5569901,34.9714623 45.8742178,34.0272 46.1605545,33.1124459 C46.5074851,32.2248393 46.8354059,31.3844459 47.1371881,30.6101508 C47.806099,29.0875279 48.3954059,27.8375607 48.825505,26.9700197 C49.2496634,26.100118 49.4920396,25.6032 49.4920396,25.6032" id="Fill-186" fill="#BC4A17"></path>
            <path d="M56.2436436,24.1058361 C56.2436436,24.1058361 56.1034455,24.5661639 55.8586931,25.3711475 C55.6305743,26.1820328 55.2218614,27.3210492 54.8820594,28.7185574 C54.7002772,29.4149508 54.5042376,30.1691803 54.297505,30.9659016 C54.0741386,31.7567213 53.9493861,32.623082 53.7438416,33.4965246 C53.558495,34.3758689 53.3386931,35.2788197 53.2127525,36.2148197 C53.0666139,37.1460984 52.9169109,38.0927213 52.7672079,39.0381639 C52.657901,39.9906885 52.5497822,40.9432131 52.4428515,41.8803934 C52.3121584,42.8152131 52.2836436,43.7441311 52.2266139,44.6388197 C52.1921584,45.5370492 52.0816634,46.4034098 52.0840396,47.2272787 C52.0697822,48.0511475 52.0590891,48.8301639 52.0472079,49.5501639 C52.0008713,50.9889836 52.0887921,52.1881967 52.0923564,53.0297705 C52.1125545,53.8725246 52.1244356,54.352918 52.1244356,54.352918 C52.1244356,54.352918 52.0792871,53.8748852 52.0008713,53.0368525 C51.9616634,52.6166557 51.9129505,52.1079344 51.858297,51.5236721 C51.7941386,50.9382295 51.7394851,50.2784262 51.7406733,49.5548852 C51.7240396,48.8313443 51.7062178,48.0487869 51.6872079,47.2201967 C51.6527525,46.3916066 51.7228515,45.5181639 51.7561188,44.6140328 C51.8012673,43.711082 51.8190891,42.775082 51.937901,41.8331803 C52.0341386,40.8877377 52.1315644,39.9269508 52.2289901,38.9673443 C52.3917624,38.0148197 52.5557228,37.0646557 52.7149307,36.1274754 C52.8527525,35.1867541 53.0856238,34.279082 53.2840396,33.3961967 C53.4943366,32.5168525 53.6606733,31.6575738 53.9149307,30.8667541 C54.1549307,30.0723934 54.3830495,29.3205246 54.5909703,28.6276721 C54.7834455,27.9277377 55.0127525,27.3080656 55.2301782,26.7627541 C55.4392871,26.2139016 55.6222574,25.7370492 55.7731485,25.3428197 C56.0713663,24.555541 56.2436436,24.1058361 56.2436436,24.1058361" id="Fill-188" fill="#BC4A17"></path>
            <path d="M63.0834059,21.8869377 C63.0834059,21.8869377 62.9099406,22.4039213 62.6081584,23.3104131 C62.4572673,23.763659 62.2719208,24.3136918 62.0628119,24.9439869 C61.9570693,25.2591344 61.844198,25.5955279 61.7253861,25.9484459 C61.633901,26.3084459 61.5376634,26.6873311 61.4366733,27.082741 C61.2370693,27.8723803 61.0220198,28.7269377 60.7927129,29.6322492 C60.5479604,30.5304787 60.4457822,31.5172328 60.2366733,32.5134295 C60.0513267,33.5155279 59.8386535,34.5459541 59.7376634,35.6129705 C59.6093465,36.6740852 59.4798416,37.7529049 59.3503366,38.8317246 C59.2612277,39.9152656 59.1721188,40.9988066 59.084198,42.0670033 C58.9784554,43.131659 58.9546931,44.1868721 58.9024158,45.2054951 C58.8691485,46.2252984 58.7859802,47.2096918 58.7657822,48.1456918 C58.7372673,49.0816918 58.7087525,49.9657574 58.683802,50.7825443 C58.5792475,54.0520525 58.5091485,56.232118 58.5091485,56.232118 C58.5091485,56.232118 58.493703,55.6868066 58.4651881,54.7331016 C58.4509307,53.7793967 58.3701386,52.416118 58.3772673,50.7801836 C58.3784554,49.1430689 58.3404356,47.2332984 58.4319208,45.1866098 C58.4723168,44.1632656 58.4830099,43.1056918 58.5780594,42.0327738 C58.654099,40.9598557 58.7325149,39.8692328 58.8097426,38.7797902 C58.9523168,37.6950689 59.0960792,36.6103475 59.2362772,35.5421508 C59.3491485,34.4715934 59.5760792,33.4340852 59.7733069,32.4272656 C59.9871683,31.4228066 60.1333069,30.4419541 60.4101386,29.537823 C60.6715248,28.6336918 60.9198416,27.7779541 61.1467723,26.9871344 C61.2655842,26.5940852 61.3630099,26.2128393 61.4818218,25.8599213 C61.6232079,25.5140852 61.7550891,25.1859541 61.8786535,24.8767082 C62.1269703,24.260577 62.344396,23.7223475 62.5226139,23.2797246 C62.8790495,22.3932984 63.0834059,21.8869377 63.0834059,21.8869377" id="Fill-190" fill="#BC4A17"></path>
            <path d="M69.565901,21.3775082 C69.565901,21.3775082 69.3936238,21.844918 69.0942178,22.6628852 C68.9445149,23.0712787 68.7603564,23.5670164 68.5512475,24.1371148 C68.4478812,24.4215738 68.336198,24.724918 68.2185743,25.0436066 C68.1294653,25.3705574 68.035604,25.7140328 67.9381782,26.0728525 C67.7445149,26.7881311 67.5342178,27.5636066 67.3132277,28.3839344 C67.0767921,29.1983607 66.9853069,30.1013115 66.7868911,31.0054426 C66.6122376,31.9166557 66.4138218,32.8550164 66.3282772,33.8276066 C66.2177822,34.7954754 66.1037228,35.7786885 65.9896634,36.7619016 C65.9195644,37.7510164 65.8482772,38.7389508 65.7781782,39.711541 C65.6890693,40.6829508 65.6890693,41.6460984 65.655802,42.5750164 C65.6415446,43.5051148 65.5750099,44.4033443 65.576198,45.255541 C65.565505,46.1100984 65.556,46.9174426 65.546495,47.6622295 C65.5108515,50.644918 65.4870891,52.6325902 65.4870891,52.6325902 C65.4870891,52.6325902 65.4597624,52.1368525 65.4122376,51.2669508 C65.3765941,50.3982295 65.266099,49.1577049 65.2399604,47.6645902 C65.2221386,46.9198033 65.2007525,46.1100984 65.1793663,45.255541 C65.146099,44.4009836 65.1734257,43.4968525 65.1841188,42.5632131 C65.2066931,41.6295738 65.1948119,40.6652459 65.2720396,39.6855738 C65.3314455,38.7059016 65.3896634,37.7097049 65.4490693,36.7135082 C65.576198,35.7232131 65.7021386,34.732918 65.8268911,33.7579672 C65.925505,32.7794754 66.1369901,31.8328525 66.3247129,30.9157377 C66.5266931,30.0021639 66.6621386,29.1051148 66.9306535,28.2859672 C67.186099,27.4632787 67.4272871,26.686623 67.6518416,25.9701639 C67.765901,25.6137049 67.8609505,25.2666885 67.9785743,24.9468197 C68.116396,24.6363934 68.2482772,24.3413115 68.3706535,24.0639344 C68.6177822,23.5103607 68.8328317,23.0264262 69.0086733,22.6286557 C69.3639208,21.8331148 69.565901,21.3775082 69.565901,21.3775082" id="Fill-192" fill="#BC4A17"></path>
            <path d="M75.1665743,20.6501902 C75.1665743,20.6501902 74.8006337,22.1680918 74.1899406,24.4272393 C74.0354851,24.9926164 73.8667723,25.6028459 73.6897426,26.2496656 C73.4901386,26.8917639 73.4307327,27.5987803 73.2691485,28.3081574 C72.9911287,29.7351738 72.6952871,31.2566164 72.3994455,32.7792393 C72.2188515,34.3219279 72.0382574,35.8657967 71.8695446,37.3116984 C71.8077624,38.0364197 71.6509307,38.7304525 71.6449901,39.3996984 C71.6188515,40.0665836 71.5915248,40.698059 71.5689505,41.281141 C71.464396,43.6111082 71.3503366,45.172682 71.3503366,45.172682 C71.3503366,45.172682 71.2885545,43.6181902 71.2624158,41.2728787 C71.2588515,40.6862557 71.254099,40.050059 71.2493465,39.3772721 C71.2232079,38.7033049 71.3384554,38.0010098 71.3990495,37.2715672 C71.5463762,35.8115016 71.704396,34.2534689 71.8624158,32.6966164 C72.1855842,31.1621902 72.5099406,29.6277639 72.814099,28.1913049 C72.9780594,27.4760262 73.083802,26.7690098 73.3107327,26.1363541 C73.5186535,25.5001574 73.7158812,24.8981902 73.8988515,24.3410754 C74.634297,22.1196984 75.1665743,20.6501902 75.1665743,20.6501902" id="Fill-194" fill="#BC4A17"></path>
            <path d="M80.0872871,21.0800656 C80.0872871,21.0800656 79.8651089,22.3052459 79.4718416,24.1288525 C79.3696634,24.5832787 79.2615446,25.0766557 79.1451089,25.5971803 C79.0203564,26.1177049 78.9597624,26.6771803 78.8385743,27.2460984 C78.6247129,28.3851148 78.3954059,29.6020328 78.1672871,30.8177705 C77.9783762,32.0429508 77.7894653,33.2669508 77.6124356,34.4154098 C77.5375842,34.9914098 77.4092673,35.5414426 77.3546139,36.0702295 C77.2904554,36.5990164 77.2298614,37.0994754 77.1740198,37.5621639 C76.9399604,39.4070164 76.7403564,40.6392787 76.7403564,40.6392787 C76.7403564,40.6392787 76.7653069,39.3975738 76.8686733,37.5314754 C76.8971881,37.0664262 76.9280792,36.5612459 76.9601584,36.0265574 C76.9839208,35.4918689 77.0706535,34.9335738 77.1443168,34.3540328 C77.2999604,33.1973115 77.466297,31.9626885 77.6326337,30.7280656 C77.885703,29.5076066 78.1411485,28.2847869 78.3799604,27.1410492 C78.5023366,26.5697705 78.6080792,26.0138361 78.7625347,25.5015738 C78.9098614,24.9893115 79.0476832,24.5018361 79.176,24.0544918 C79.6975842,22.2639344 80.0872871,21.0800656 80.0872871,21.0800656" id="Fill-196" fill="#BC4A17"></path>
            <path d="M58.0328317,22.6626492 C58.0328317,22.6626492 59.725901,22.8727475 62.2542178,23.2504525 C62.8851089,23.3472393 63.5694653,23.4522885 64.2942178,23.5644197 C65.0201584,23.6564852 65.7651089,23.8819279 66.5445149,24.0636984 C68.1009505,24.4520262 69.7595644,24.865141 71.4205545,25.2794361 C73.0316436,25.8424525 74.6439208,26.4054689 76.1552079,26.9330754 C76.906099,27.2092721 77.6510495,27.4264525 78.3104554,27.7498623 C78.9781782,28.0543869 79.6090693,28.3423869 80.1900594,28.6079607 C82.5140198,29.6796984 84.0395644,30.4315672 84.0395644,30.4315672 C84.0395644,30.4315672 82.4379802,29.836682 80.0724356,28.8876984 C79.4819406,28.6492721 78.8427327,28.3907803 78.165505,28.1157639 C77.4965941,27.824223 76.7409505,27.6459934 75.9936238,27.3733377 C74.4847129,26.870518 72.8736238,26.3334689 71.2637228,25.7964197 C69.6241188,25.362059 67.9845149,24.9288787 66.4482772,24.5216656 C65.6748119,24.3387148 64.9476832,24.0719607 64.2241188,23.9503869 C63.5053069,23.8075672 62.8268911,23.6730098 62.2007525,23.5490754 C59.6950099,23.0415344 58.0328317,22.6626492 58.0328317,22.6626492" id="Fill-198" fill="#BC4A17"></path>
            <path d="M52.5330297,25.1997639 C52.5330297,25.1997639 54.3853069,25.466518 57.1536238,25.9115016 C57.8451089,26.0259934 58.5948119,26.1511082 59.3872871,26.2833049 C60.1809505,26.3966164 60.9971881,26.6480262 61.8514455,26.8534033 C63.5528317,27.2901246 65.3706535,27.7575344 67.186099,28.2249443 C68.9528317,28.8457967 70.7207525,29.4654689 72.3769901,30.0461902 C73.2003564,30.3495344 74.0154059,30.5915016 74.7413465,30.9408787 C75.475604,31.2737311 76.1682772,31.5853377 76.8074851,31.874518 C79.3583762,33.0454033 81.0395644,33.8515672 81.0395644,33.8515672 C81.0395644,33.8515672 79.2882772,33.188223 76.6886733,32.1554361 C76.0411485,31.892223 75.3389703,31.6089443 74.596396,31.3079607 C73.8609505,30.9880918 73.0352079,30.7862557 72.2142178,30.4864525 C70.5591683,29.930518 68.7936238,29.3356328 67.0268911,28.7407475 C65.2316436,28.2544525 63.4352079,27.766977 61.7504554,27.3101902 C60.9021386,27.1036328 60.1049109,26.8109115 59.3136238,26.6680918 C58.5270891,26.5040262 57.7833267,26.3505836 57.0977822,26.2077639 C54.355604,25.6199607 52.5330297,25.1997639 52.5330297,25.1997639" id="Fill-200" fill="#BC4A17"></path>
            <path d="M45.1491089,29.1222295 C45.1491089,29.1222295 47.330495,29.5152787 50.6037624,30.1054426 C52.2350495,30.4217705 54.1384158,30.7900328 56.1784158,31.1854426 C57.1966337,31.388459 58.250495,31.5902951 59.3007921,31.8971803 C60.3570297,32.176918 61.4287129,32.461377 62.500396,32.7458361 C64.6390099,33.339541 66.7776238,33.9332459 68.7831683,34.4903607 C70.7934653,35.0321311 72.6326733,35.64 74.190297,36.2431475 C74.9792079,36.5134426 75.6718812,36.8415738 76.2849505,37.1295738 C76.9063366,37.3998689 77.4314851,37.6654426 77.8449505,37.9227541 C78.6861386,38.4043279 79.1661386,38.6805246 79.1661386,38.6805246 C79.1661386,38.6805246 78.6706931,38.4350164 77.8021782,38.0030164 C77.3780198,37.7740328 76.839802,37.5403279 76.2065347,37.3089836 C75.5792079,37.0622951 74.8770297,36.7790164 74.0869307,36.5287869 C73.3063366,36.2573115 72.4520792,35.9834754 71.5348515,35.7238033 C70.6259406,35.4358033 69.6528713,35.2174426 68.650099,34.9412459 C66.6469307,34.4077377 64.509505,33.8388197 62.3720792,33.271082 C61.3075248,32.9748197 60.2417822,32.6797377 59.1926733,32.3881967 C58.149505,32.0706885 57.0980198,31.8570492 56.0809901,31.6434098 C54.0540594,31.1889836 52.1613861,30.7652459 50.5407921,30.4017049 C47.3055446,29.6344918 45.1491089,29.1222295 45.1491089,29.1222295" id="Fill-202" fill="#BC4A17"></path>
            <path d="M34.1926337,32.6274492 C34.1926337,32.6274492 34.8449109,32.6959082 35.985505,32.813941 C36.555802,32.8741377 37.2484752,32.947318 38.0433267,33.0287607 C38.8393663,33.0995803 39.7352079,33.2034492 40.7035248,33.3875803 C41.6754059,33.5504656 42.7292673,33.7275148 43.8425347,33.9140066 C44.9605545,34.0863344 46.1130297,34.3755148 47.3165941,34.6340066 C48.5177822,34.905482 49.7641188,35.1627934 51.0080792,35.5098098 C52.2579802,35.837941 53.5280792,36.1707934 54.7981782,36.5036459 C57.306297,37.270859 59.826297,38.005023 62.1550099,38.793482 C64.4967921,39.5429902 66.6484752,40.3361705 68.5031287,40.9888918 C70.3589703,41.6368918 71.8821386,42.2435803 72.9585743,42.6366295 C74.0302574,43.0403016 74.6445149,43.2716459 74.6445149,43.2716459 C74.6445149,43.2716459 72.1482772,42.4737443 68.4045149,41.2757115 C66.5367921,40.6666623 64.3530297,39.9714492 62.0100594,39.2396459 C59.6777822,38.4724328 57.1565941,37.7665967 54.6484752,37.0229902 C53.385505,36.6795148 52.1237228,36.334859 50.8821386,35.9961049 C49.6441188,35.6396459 48.4049109,35.3705311 47.2108515,35.0907934 C46.0132277,34.8311213 44.8702574,34.4994492 43.766495,34.2987934 C42.6639208,34.0804328 41.6207525,33.8762361 40.6583762,33.6862033 C38.7383762,33.2778098 37.1023366,33.1031213 35.9736238,32.9036459 C34.8401584,32.727777 34.1926337,32.6274492 34.1926337,32.6274492" id="Fill-204" fill="#BC4A17"></path>
            <path d="M28.5293465,38.6870164 C28.5293465,38.6870164 31.1111287,38.998623 34.984396,39.4648525 C35.9503366,39.5911475 36.9982574,39.7257049 38.1067723,39.8697049 C39.2105347,40.0314098 40.3689505,40.2651148 41.5677624,40.489377 C42.7665743,40.719541 44.0045941,40.9567869 45.264,41.1975738 C46.5198416,41.4548852 47.8113267,41.6472787 49.0731089,41.9624262 C51.5954851,42.6033443 54.1178614,43.2442623 56.4822178,43.8450492 C57.0715248,44.0008525 57.6584554,44.1330492 58.2204356,44.2982951 C58.7800396,44.4765246 59.3265743,44.6523934 59.8588515,44.8211803 C60.9245941,45.1611148 61.9309307,45.4833443 62.8612277,45.7796066 C64.7123168,46.3874754 66.2568713,46.8950164 67.3368713,47.2502951 C67.8834059,47.4001967 68.294495,47.6622295 68.4465743,47.9337049 C68.593901,48.2228852 68.4430099,48.3881311 68.464396,48.3834098 C68.444198,48.3893115 68.5820198,48.214623 68.4251881,47.9466885 C68.2624158,47.6905574 67.8608317,47.4592131 67.3083564,47.3352787 C66.2129109,47.0295738 64.6481584,46.5940328 62.7709307,46.0699672 C61.8346931,45.8008525 60.8224158,45.5081311 59.7495446,45.2000656 C58.6814257,44.8778361 57.5467723,44.5697705 56.3598416,44.2982951 C53.9966733,43.7211148 51.474297,43.1049836 48.9519208,42.4900328 C47.6972673,42.1619016 46.414099,41.9577049 45.1653861,41.6909508 C43.9131089,41.439541 42.6810297,41.1916721 41.4893465,40.9520656 C40.294099,40.7254426 39.1487525,40.4492459 38.0497426,40.2580328 C36.9459802,40.0833443 35.9028119,39.916918 34.9404356,39.7646557 L28.5293465,38.6870164 Z" id="Fill-206" fill="#BC4A17"></path>
            <path d="M25.9848713,44.8191738 C25.9848713,44.8191738 28.262495,45.1048131 31.6795248,45.5332721 C32.5325941,45.6489443 33.4557624,45.7752393 34.432396,45.9086164 C35.4125941,46.0278295 36.4331881,46.2414689 37.4929901,46.432682 C39.6102178,46.8304525 41.8688317,47.2541902 44.1286337,47.6779279 C46.3611089,48.2137967 48.5947723,48.7508459 50.6894257,49.2524852 C51.7337822,49.510977 52.7508119,49.7316984 53.6953663,50.0232393 C54.6411089,50.3017967 55.5369505,50.5650098 56.3626931,50.806977 C59.6549703,51.8137967 61.8506139,52.4830426 61.8506139,52.4830426 C61.8506139,52.4830426 59.6228911,51.9294689 56.281901,51.1008787 C55.4502178,50.886059 54.5484356,50.6511738 53.5943762,50.4033049 C52.6450693,50.1448131 51.6197228,49.9630426 50.5765545,49.7080918 C48.481901,49.2276984 46.2482376,48.7177967 44.0145743,48.2055344 C41.7666535,47.7593705 39.5211089,47.3132066 37.4133861,46.8941902 C36.3559604,46.7017967 35.3496238,46.4456656 34.3741782,46.2957639 C33.4011089,46.130518 32.4826931,45.9758951 31.6331881,45.8318951 C28.2434851,45.2252066 25.9848713,44.8191738 25.9848713,44.8191738" id="Fill-208" fill="#BC4A17"></path>
            <path d="M26.944396,51.580682 C26.944396,51.580682 28.4366733,51.7671738 30.6620198,52.1106492 C31.7729109,52.2924197 33.0703366,52.5013377 34.4592475,52.7267803 C35.8445941,52.9711082 37.3226139,53.2296 38.8006337,53.4892721 C40.2596436,53.8598951 41.7174653,54.2293377 43.083802,54.5763541 C44.4501386,54.9210098 45.7154851,55.2845508 46.8049901,55.5749115 C48.9780594,56.174518 50.4109307,56.6159607 50.4109307,56.6159607 C50.4109307,56.6159607 48.9293465,56.3409443 46.7301386,55.8688131 C45.6323168,55.6233049 44.3479604,55.3600918 42.9828119,55.0343213 C41.6176634,54.7109115 40.1598416,54.3650754 38.7020198,54.0204197 C37.2287525,53.7359607 35.7554851,53.452682 34.373703,53.1859279 C32.9954851,52.9014689 31.7099406,52.6370754 30.6061782,52.4092721 C28.4045941,51.937141 26.944396,51.580682 26.944396,51.580682" id="Fill-210" fill="#BC4A17"></path>
            <path d="M81.175604,30.6426098 C80.3035248,24.8601836 71.0350099,21.9117246 66.5308515,25.7088393 C65.9617426,26.1892328 65.3165941,26.9009705 65.1288713,27.644577 C64.6690693,29.4681836 66.2967921,29.7042492 66.1138218,31.0167738 C67.246099,32.3068721 66.2765941,33.5096262 63.2029307,34.6214951 C61.7154059,38.4504787 60.3419406,39.1456918 59.0813465,36.7059541 C59.0730297,36.7012328 56.5946139,33.7268066 56.6516436,33.782282 C55.2995644,32.4945443 53.8369901,31.4546754 52.0500594,30.8538885 C45.5486733,28.6608393 39.9015446,33.4683148 44.5946139,39.2566426 C47.2702574,42.555659 48.6508515,41.9171016 43.4528317,44.3462164 C37.966099,46.9110689 40.0595644,46.1592 38.5138218,42.6005115 C37.905505,41.198282 37.1403564,39.6792 35.8536238,38.7585443 C33.5296634,37.094282 30.6532277,37.2713311 28.8722376,39.473823 C27.8884752,40.690741 29.1811485,42.9286426 30.7150099,41.8474623 C33.6995644,39.744118 37.7165941,50.8155934 40.0571881,52.2709377 C42.3716436,53.7109377 45.4738218,53.7675934 47.8108515,52.3630033 C50.2369901,50.9064787 51.5795644,48.1268066 51.365703,45.3459541 C51.2492673,43.8020852 50.6171881,42.3856918 49.8722376,41.0519213 C48.0817426,37.8508721 45.0651089,38.2238557 50.9213465,36.7295607 C56.2179802,35.3792656 54.9146139,36.7708721 58.1237228,39.9447738 C59.1692673,40.978741 60.195802,41.9454295 61.5894653,42.5131672 C63.9906535,43.4904787 66.5795644,43.1292984 68.5708515,41.4473311 C70.6049109,39.7287738 71.4152079,37.0423475 70.905505,34.4609705 C70.6215446,33.0209705 69.326495,31.982282 69.0603564,30.7122492 C67.4350099,22.9586754 79.035802,27.4214951 79.9316436,30.9837246 C80.1371881,31.8028721 81.2967921,31.4369705 81.175604,30.6426098" id="Fill-212" fill="#FFE2A1"></path>
            <path d="M57.116198,29.4726689 C56.446099,29.7984393 56.3296634,27.8792262 56.0243168,28.7208 C55.9494653,28.9273574 55.6179802,31.535882 55.6738218,31.7259148 C55.7391683,31.9395541 55.9126337,32.0493246 56.0813465,32.1307672 C57.4619406,32.8106361 58.7498614,32.6961443 60.326495,32.5167344 C62.7336238,32.2405377 65.1478812,31.8392262 67.5609505,31.3139803 C68.3653069,31.1369311 71.2346139,30.959882 71.3130297,26.7933246 C71.3344158,25.7097836 68.0148119,27.4401443 67.1700594,27.3032262 C64.0393663,26.7956852 60.2587723,27.9406033 57.116198,29.4726689" id="Fill-214" fill="#000000"></path>
            <path d="M57.4549307,28.3061508 C56.7848317,28.6331016 56.6672079,26.7127082 56.3630495,27.5531016 C56.288198,27.7608393 55.9555248,30.3681836 56.0125545,30.5582164 C56.077901,30.7718557 56.2513663,30.8816262 56.4188911,30.9642492 C57.8006733,31.6429377 59.0874059,31.5284459 60.6640396,31.3490361 C63.0711683,31.0740197 65.4866139,30.6727082 67.8996832,30.146282 C68.7040396,29.9704131 71.5733465,29.7921836 71.6517624,25.6268066 C71.6719604,24.5432656 68.3523564,26.2736262 67.507604,26.1378885 C64.3769109,25.6291672 60.5963168,26.7729049 57.4549307,28.3061508" id="Fill-216" fill="#6A8915"></path>
            <path d="M58.1395248,25.7184 C57.4706139,26.0441705 56.7268515,26.499777 56.4226931,27.3401705 C56.3466535,27.5490885 56.3038812,27.7839738 56.362099,27.9740066 C56.4274455,28.1888262 56.6009109,28.2974164 56.7684356,28.3800393 C58.1502178,29.0587279 59.7731881,28.9418754 61.3510099,28.7612852 C63.7581386,28.4862689 66.1712079,28.0849574 68.5854653,27.5585311 C69.3898218,27.3826623 72.4539802,26.4785311 71.4547723,25.0999082 C70.9236832,24.3645639 69.0381386,23.6858754 68.1945743,23.5489574 C65.0638812,23.0414164 61.2832871,24.1851541 58.1395248,25.7184" id="Fill-218" fill="#90C10A"></path>
            <path d="M58.4609109,26.4192787 C58.2327921,26.5172459 58.002297,26.6423607 57.8133861,26.8500984 C57.6244752,27.0566557 57.4830891,27.3659016 57.4973465,27.6539016 C57.5139802,27.9312787 57.6731881,28.144918 57.8680396,28.2440656 C58.0628911,28.3432131 58.2886337,28.3467541 58.512,28.3337705 C59.5896238,28.2700328 60.7005149,27.8403934 61.7032871,27.1085902 C61.9230891,26.9480656 62.2581386,26.7497705 62.4327921,26.506623 C62.6894257,26.1489836 62.4197228,26.1525246 62.1844752,26.1230164 C61.6141782,26.0474754 61.0403168,25.9872787 60.4557624,26.0014426 C59.7951683,26.0191475 59.1203168,26.132459 58.4609109,26.4192787" id="Fill-220" fill="#B8E028"></path>
            <path d="M61.4706535,27.9891148 C61.6738218,28.1142295 61.9138218,28.144918 62.1502574,28.162623 C64.1522376,28.3219672 66.2647129,27.8498361 68.2571881,26.7958033 C68.0148119,26.4617705 67.5906535,26.4535082 67.2068911,26.4523279 C66.2718416,26.4511475 65.346297,26.3874098 64.4326337,26.2622951 C63.8480792,26.1820328 63.5130297,26.4121967 62.9688713,26.7285246 C62.4199604,27.0460328 61.8603564,27.3352131 61.4706535,27.9891148" id="Fill-222" fill="#B8E028"></path>
            <path d="M68.2942574,24.3697574 C68.7837624,24.382741 69.2269307,24.5975607 69.6546535,24.8324459 C69.969505,25.0059541 70.2831683,25.1912656 70.5362376,25.4757246 C70.6217822,25.5736918 70.7025743,25.6870033 70.7287129,25.8392656 C70.7524752,25.9891672 70.7061386,26.1839213 70.5944554,26.2759869 C70.5005941,26.3515279 70.3924752,26.3444459 70.2938614,26.333823 C69.3837624,26.2393967 68.4772277,26.1331672 67.5730693,26.0186754 C67.1156436,25.9608393 66.6570297,25.9006426 66.2019802,25.8369049 C65.9572277,25.8038557 65.1469307,25.8640525 65.0708911,25.5406426 C65.5722772,25.2715279 66.1413861,25.106282 66.6594059,24.8560525 C67.1952475,24.5975607 67.7489109,24.3567738 68.2942574,24.3697574" id="Fill-224" fill="#B8E028"></path>
            <path d="M62.4812673,25.7057705 C63.027802,25.801377 63.6171089,25.7659672 64.1743366,25.4850492 C64.3929505,25.376459 64.6056238,25.2312787 64.8159208,25.084918 C65.0321584,24.9350164 65.2495842,24.7851148 65.4658218,24.6340328 C65.638099,24.516 65.8400792,24.3377705 65.8400792,24.1064262 C65.5703762,23.9624262 65.2507723,23.9801311 64.9394851,24.012 C64.0198812,24.1087869 63.0919604,24.3165246 62.1747327,24.6328525 C61.997703,24.6930492 61.1814653,24.8464918 61.2444356,25.2572459 C61.2895842,25.5440656 62.2709703,25.668 62.4812673,25.7057705" id="Fill-226" fill="#B8E028"></path>
            <path d="M50.8228515,34.0878689 C50.4497822,34.7299672 49.2771089,33.1979016 49.4945347,34.0654426 C49.5491881,34.279082 50.7337426,36.6291148 50.888198,36.7554098 C51.0616634,36.8982295 51.2672079,36.8923279 51.4525545,36.8663607 C52.9804752,36.6692459 53.9868119,35.8619016 55.1963168,34.840918 C57.0402772,33.2805246 58.8212673,31.611541 60.5309703,29.8398689 C61.1024554,29.2497049 61.4707723,27.9891148 60.0165149,25.7535738 C59.4236436,24.8423607 58.738099,26.3732459 57.9610693,26.7273443 C55.0763168,28.0351475 52.5753267,31.0768525 50.8228515,34.0878689" id="Fill-228" fill="#000000"></path>
            <path d="M48.8770693,34.0878689 C48.5028119,34.7299672 47.3313267,33.1979016 47.5499406,34.0654426 C47.6034059,34.279082 48.7891485,36.6291148 48.9412277,36.7554098 C49.1158812,36.8982295 49.3226139,36.8923279 49.5067723,36.8663607 C51.0358812,36.6692459 52.0410297,35.8619016 53.2493465,34.840918 C55.094495,33.2805246 56.8754851,31.611541 58.5863762,29.8398689 C59.1554851,29.2497049 61.4402376,27.5158033 59.1709307,24.0114098 C58.5804356,23.0978361 56.793505,26.3732459 56.0152871,26.7273443 C53.1305347,28.0351475 50.6295446,31.0768525 48.8770693,34.0878689" id="Fill-230" fill="#6A8915"></path>
            <path d="M47.9976238,31.5578361 C47.6245545,32.2011148 47.2609901,32.9895738 47.4784158,33.8559344 C47.5330693,34.0695738 47.6293069,34.2891148 47.7837624,34.4154098 C47.9572277,34.5582295 48.1639604,34.5511475 48.3481188,34.5287213 C49.8772277,34.3292459 51.160396,33.3330492 52.369901,32.3120656 C54.2138614,30.7516721 55.9948515,29.0826885 57.7057426,27.3110164 C58.2748515,26.7208525 60.3148515,24.2740328 58.7132673,23.6815082 C57.8590099,23.3663607 55.9128713,23.8443934 55.1346535,24.1973115 C52.249901,25.5062951 49.750099,28.548 47.9976238,31.5578361" id="Fill-232" fill="#90C10A"></path>
            <path d="M48.6566733,31.9635148 C48.523604,32.1724328 48.4000396,32.4025967 48.3596436,32.6787934 C48.3192475,32.9561705 48.3750891,33.289023 48.5485545,33.5203672 C48.7184554,33.7446295 48.9691485,33.8319738 49.1865743,33.8071869 C49.404,33.7824 49.594099,33.6596459 49.7711287,33.5250885 C50.6325149,32.8770885 51.3121188,31.9056787 51.7374653,30.7442361 C51.8301386,30.4881049 51.9976634,30.1387279 52.0047921,29.8401049 C52.0166733,29.3998426 51.7980594,29.5532852 51.5830099,29.6583344 C51.0685545,29.9097443 50.5588515,30.1776787 50.0800396,30.5128918 C49.5418218,30.8941377 49.044,31.3603672 48.6566733,31.9635148" id="Fill-234" fill="#B8E028"></path>
            <path d="M52.0365149,31.6028066 C52.2753267,31.5957246 52.4915644,31.4859541 52.6994851,31.3726426 C54.4507723,30.3965115 55.9406733,28.836118 57.0064158,26.8578885 C56.6167129,26.7150689 56.2614653,26.9428721 55.9406733,27.1541508 C55.1648317,27.6711344 54.3592871,28.130282 53.5311683,28.5292328 C53.0012673,28.7853639 52.8503762,29.1654295 52.5747327,29.7272656 C52.2967129,30.2950033 51.9949307,30.8426754 52.0365149,31.6028066" id="Fill-236" fill="#B8E028"></path>
            <path d="M55.6773861,24.8239475 C56.0920396,24.5642754 56.5827327,24.4969967 57.0674851,24.4556852 C57.426297,24.4238164 57.7898614,24.4061115 58.1593663,24.5028984 C58.2853069,24.5359475 58.4183762,24.5867016 58.5229307,24.6976525 C58.6286733,24.8086033 58.6987723,24.9962754 58.6571881,25.1367344 C58.6227327,25.2488656 58.526495,25.3031607 58.4385743,25.3491934 C57.6306535,25.7741115 56.8179802,26.1872262 56.0017426,26.593259 C55.5906535,26.7974557 55.176,27.0004721 54.7613465,27.1987672 C54.5391683,27.306177 53.8987723,27.8042754 53.6575842,27.5776525 C53.9201584,27.0783738 54.3027327,26.6239475 54.5938218,26.1305705 C54.8920396,25.6194885 55.216396,25.1143082 55.6773861,24.8239475" id="Fill-238" fill="#B8E028"></path>
            <path d="M51.5978614,29.1464262 C52.1051881,28.9245246 52.5733069,28.5692459 52.8810297,28.0286557 C53.0010297,27.8150164 53.0948911,27.5777705 53.1875644,27.3405246 C53.2849901,27.0961967 53.3812277,26.8518689 53.4774653,26.607541 C53.553505,26.4139672 53.6212277,26.1531148 53.4905347,25.9619016 C53.1875644,25.9914098 52.9309307,26.182623 52.6921188,26.3820984 C51.9804356,26.9699016 51.3269703,27.6544918 50.7412277,28.4252459 C50.6283564,28.5727869 50.0366733,29.1535082 50.3182574,29.4580328 C50.5166733,29.6716721 51.3994455,29.2325902 51.5978614,29.1464262" id="Fill-240" fill="#B8E028"></path>
        </g>
    </g>
</svg>