<?xml version="1.0" encoding="UTF-8"?>
<svg width="480px" height="360px" viewBox="0 0 480 360" version="1.1" xmlns="http://www.w3.org/2000/svg" xmlns:xlink="http://www.w3.org/1999/xlink">
    <!-- Generator: Sketch 51.1 (57501) - http://www.bohemiancoding.com/sketch -->
    <title>Football field2</title>
    <desc>Created with Sketch.</desc>
    <defs>
        <linearGradient x1="50%" y1="66.3383469%" x2="50%" y2="-30.2606939%" id="linearGradient-1">
            <stop stop-color="#FFFFE2" offset="0%"></stop>
            <stop stop-color="#BFEAC4" offset="50.98%"></stop>
            <stop stop-color="#88EAC4" offset="100%"></stop>
        </linearGradient>
        <rect id="path-2" x="0" y="0" width="537" height="376"></rect>
        <linearGradient x1="50.0035042%" y1="-82.5930624%" x2="50.0035042%" y2="79.7590977%" id="linearGradient-4">
            <stop stop-color="#CFEAC4" offset="0%"></stop>
            <stop stop-color="#79DB8E" offset="100%"></stop>
        </linearGradient>
        <linearGradient x1="50.000007%" y1="-82.5908964%" x2="50.000007%" y2="79.7415863%" id="linearGradient-5">
            <stop stop-color="#CFEAC4" offset="0%"></stop>
            <stop stop-color="#6DBF8E" offset="100%"></stop>
        </linearGradient>
        <radialGradient cx="50.0011081%" cy="50.0126914%" fx="50.0011081%" fy="50.0126914%" r="425.397592%" gradientTransform="translate(0.500011,0.500127),scale(0.133186,1.000000),translate(-0.500011,-0.500127)" id="radialGradient-6">
            <stop stop-color="#56A608" offset="0%"></stop>
            <stop stop-color="#2F5008" offset="78.97%"></stop>
            <stop stop-color="#243908" offset="99.46%"></stop>
        </radialGradient>
        <linearGradient x1="50.0033024%" y1="0.0190000104%" x2="50.0033024%" y2="100.012503%" id="linearGradient-7">
            <stop stop-color="#ABD12A" offset="0%"></stop>
            <stop stop-color="#4C950D" offset="100%"></stop>
        </linearGradient>
    </defs>
    <g id="Football-field2" stroke="none" stroke-width="1" fill="none" fill-rule="evenodd">
        <g id="Group" transform="translate(-29.000000, -8.000000)">
            <g id="Footbal-Ground-Cartoon-Background">
                <rect id="XMLID_175_" fill="url(#linearGradient-1)" fill-rule="nonzero" x="0" y="0" width="537" height="376"></rect>
                <g id="XMLID_174_">
                    <g id="XMLID_158_-Clipped">
                        <mask id="mask-3" fill="white">
                            <use xlink:href="#path-2"></use>
                        </mask>
                        <g id="XMLID_151_"></g>
                        <g id="XMLID_158_" mask="url(#mask-3)">
                            <g transform="translate(-598.371429, 0.000000)">
                                <rect id="XMLID_24_" fill="#88EAC4" fill-rule="nonzero" x="598.371429" y="0" width="538.189071" height="222.56898"></rect>
                                <rect id="XMLID_171_" fill="#357469" fill-rule="nonzero" x="859.315071" y="60.3902041" width="15.1127143" height="37.8302041"></rect>
                                <g id="XMLID_173_" stroke-width="1" fill="none" fill-rule="evenodd" transform="translate(592.617857, 57.167347)">
                                    <path d="M547.509857,0.306938776 C514.1775,8.70938776 480.461571,15.5771429 446.438786,20.8718367 C298.265143,43.8538776 146.524286,36.4873469 1.26578571,0.306938776 L0.0383571429,0.306938776 L0.0383571429,31.5379592 L0.0383571429,64.6873469 L0.0383571429,99.755102 L0.0383571429,137.163265 L0.0383571429,180.595102 L548.430429,180.595102 L548.430429,137.163265 L548.430429,99.755102 L548.430429,64.6873469 L548.430429,31.5763265 L548.430429,0.306938776 L547.509857,0.306938776 Z" id="XMLID_179_" fill="url(#linearGradient-4)" fill-rule="nonzero"></path>
                                    <path d="M548.430429,0.306938776 L548.430429,31.5763265 C512.413071,38.4057143 476.0505,43.9306122 439.419429,48.0742857 C293.048571,64.4571429 143.839286,58.5869388 0.0767142857,31.5379592 L0.0767142857,0.306938776 L1.30414286,0.306938776 C146.562643,36.5257143 298.3035,43.8538776 446.477143,20.8718367 C480.499929,15.5771429 514.1775,8.70938776 547.548214,0.306938776 L548.430429,0.306938776 Z" id="XMLID_187_" fill="#6DBF8E" fill-rule="nonzero"></path>
                                    <path d="M548.430429,31.5379592 L548.430429,64.6489796 C510.034929,69.0612245 471.332571,72.6293878 432.400071,75.1616327 C288.292286,84.6767347 142.113214,80.84 0.0383571429,64.6106122 L0.0383571429,31.4612245 C143.839286,58.5869388 293.048571,64.4571429 439.419429,48.0359184 C476.088857,43.9306122 512.451429,38.3673469 548.430429,31.5379592 Z" id="XMLID_190_" fill="#99E7B8" fill-rule="nonzero"></path>
                                    <path d="M548.430429,64.6873469 L548.430429,99.755102 C507.618429,100.867755 466.576286,101.750204 425.380714,102.402449 C283.574357,104.55102 140.578929,103.515102 0.0767142857,99.7934694 L0.0767142857,64.7257143 C142.151571,80.955102 288.330643,84.7534694 432.438429,75.2767347 C471.332571,72.6293878 510.034929,69.0995918 548.430429,64.6873469 Z" id="XMLID_194_" fill="#85D6A6" fill-rule="nonzero"></path>
                                    <path d="M548.430429,99.755102 L548.430429,137.163265 C365.927143,123.159184 182.58,123.159184 0.0767142857,137.124898 L0.0767142857,99.755102 C140.578929,103.515102 283.612714,104.55102 425.380714,102.364082 C466.576286,101.750204 507.618429,100.829388 548.430429,99.755102 Z" id="XMLID_195_" fill="#6DBF8E" fill-rule="nonzero"></path>
                                    <path d="M548.430429,137.163265 L548.430429,180.595102 L0.0767142857,180.595102 L0.0767142857,137.124898 C182.58,123.159184 365.927143,123.159184 548.430429,137.163265 Z" id="XMLID_197_" fill="url(#linearGradient-5)" fill-rule="nonzero"></path>
                                </g>
                                <g id="XMLID_79_" stroke-width="1" fill="none" fill-rule="evenodd" transform="translate(587.631429, 183.779592)">
                                    <path d="M558.096429,10.8963265 L558.096429,29.4277551 C372.486214,14.9632653 185.955429,14.9632653 0.345214286,29.4277551 L0.345214286,10.8963265 C185.955429,-3.56816327 372.486214,-3.56816327 558.096429,10.8963265 Z" id="XMLID_162_" fill="#80C222" fill-rule="nonzero"></path>
                                    <path d="M558.096429,29.4277551 L558.096429,68.1020408 L0.345214286,68.1020408 L0.345214286,29.4277551 C185.955429,14.9632653 372.486214,14.9632653 558.096429,29.4277551 Z" id="XMLID_160_" fill="#79C8A8" fill-rule="nonzero"></path>
                                </g>
                                <g id="XMLID_78_" stroke-width="1" fill="none" fill-rule="evenodd" transform="translate(587.631429, 202.195918)">
                                    <path d="M558.096429,11.0114286 L558.096429,68.2171429 L0.345214286,68.2171429 L0.345214286,11.0114286 C185.955429,-3.45306122 372.486214,-3.45306122 558.096429,11.0114286 Z" id="XMLID_161_" fill="#6BA21B" fill-rule="nonzero"></path>
                                </g>
                                <g id="XMLID_23_" stroke-width="1" fill="none" fill-rule="evenodd" transform="translate(0.000000, 209.485714)">
                                    <g id="XMLID_81_" fill-rule="nonzero">
                                        <g id="XMLID_82_">
                                            <path d="M1724.15357,230.165714 C1586.5665,230.165714 1449.01779,230.165714 1311.43071,230.165714 C1105.146,230.165714 898.861286,230.165714 692.538214,230.165714 C641.561571,230.165714 590.584929,230.165714 539.608286,230.165714 C359.866714,230.165714 180.086786,230.165714 0.345214286,230.165714 C173.144143,183.08898 335.3565,105.85551 493.503,23.0587755 C679.074857,1.03591837 866.181,-5.48653061 1052.59671,6.52244898 C1112.16536,10.3591837 1171.69564,15.9991837 1230.99579,23.0587755 C1389.14229,105.85551 1551.35464,183.08898 1724.15357,230.165714 Z" id="XMLID_224_" fill="url(#radialGradient-6)"></path>
                                            <g id="XMLID_144_" transform="translate(8.438571, 0.000000)">
                                                <path d="M1029.65914,230.165714 C972.468643,230.165714 915.3165,230.165714 858.126,230.165714 C857.3205,153.546122 856.476643,76.9265306 855.632786,0.306938776 C879.912857,0.345306122 904.192929,0.690612245 928.473,1.26612245 C962.0355,77.6555102 995.674714,153.968163 1029.65914,230.165714 Z" id="XMLID_223_" fill="#83B71D"></path>
                                                <path d="M1201.19229,230.165714 C1144.00179,230.165714 1086.84964,230.165714 1029.65914,230.165714 C995.674714,154.006531 962.0355,77.6555102 928.473,1.26612245 C952.791429,1.91836735 977.109857,2.83918367 1001.42829,4.02857143 C1066.78886,80.4946939 1132.72479,156.462041 1201.19229,230.165714 Z" id="XMLID_154_" fill="#AADD43"></path>
                                                <path d="M1372.68707,230.165714 C1315.49657,230.165714 1258.34443,230.165714 1201.15393,230.165714 C1132.68643,156.462041 1066.7505,80.4946939 1001.42829,4.06693878 C1025.86179,5.33306122 1050.25693,6.8677551 1074.69043,8.63265306 C1171.23536,86.0963265 1268.931,162.485714 1372.68707,230.165714 Z" id="XMLID_153_" fill="#83B71D"></path>
                                                <path d="M1544.22021,230.165714 C1487.02971,230.165714 1429.87757,230.165714 1372.68707,230.165714 C1268.931,162.485714 1171.23536,86.1346939 1074.69043,8.63265306 C1099.27736,10.4742857 1123.82593,12.6228571 1148.33614,14.9632653 C1275.72021,94.6522449 1405.52079,171.693878 1544.22021,230.165714 Z" id="XMLID_152_" fill="#AADD43"></path>
                                                <path d="M343.4115,230.165714 C286.221,230.165714 229.068857,230.165714 171.878357,230.165714 C308.890071,171.195102 437.079643,94.1534694 562.929429,14.6179592 C587.439643,12.277551 611.988214,10.2057143 636.575143,8.36408163 C541.5645,85.7893878 445.4415,162.102041 343.4115,230.165714 Z" id="XMLID_148_" fill="url(#linearGradient-7)"></path>
                                                <path d="M514.944643,230.165714 C457.754143,230.165714 400.602,230.165714 343.4115,230.165714 C445.4415,162.140408 541.5645,85.7893878 636.575143,8.36408163 C660.970286,6.59918367 685.365429,5.10285714 709.798929,3.87510204 C646.049357,80.3028571 581.647714,156.270204 514.944643,230.165714 Z" id="XMLID_147_" fill="#AADD43"></path>
                                                <path d="M686.439429,230.165714 C629.248929,230.165714 572.096786,230.165714 514.906286,230.165714 C581.647714,156.270204 646.011,80.3028571 709.798929,3.87510204 C734.117357,2.72408163 758.435786,1.80326531 782.754214,1.18938776 C750.802714,77.5787755 718.7745,153.929796 686.439429,230.165714 Z" id="XMLID_146_" fill="#83B71D"></path>
                                                <path d="M857.972571,230.165714 C800.782071,230.165714 743.629929,230.165714 686.439429,230.165714 C718.7745,153.929796 750.802714,77.5787755 782.754214,1.18938776 C807.034286,0.613877551 831.314357,0.345306122 855.556071,0.306938776 C856.399929,76.9265306 857.167071,153.546122 857.972571,230.165714 Z" id="XMLID_145_" fill="#AADD43"></path>
                                            </g>
                                            <g id="XMLID_83_" transform="translate(112.002857, 5.371429)" fill="#FFFFFF">
                                                <g id="XMLID_84_">
                                                    <g id="XMLID_140_">
                                                        <path d="M1500.45471,208.756735 C1380.47357,206.262857 1260.49243,204.075918 1140.51129,202.46449 C960.731357,200.047347 780.913071,199.471837 601.133143,200.315918 C400.755429,201.236735 200.416071,204.613061 0.0767142857,208.756735 C138.852857,159.147755 270.187714,91.5828571 398.914286,20.2579592 C575.472214,0.652244898 753.334286,-5.0644898 930.544286,5.48653061 C987.658071,8.86285714 1044.7335,13.9273469 1101.61714,20.2579592 C1230.34371,91.5828571 1361.67857,159.147755 1500.45471,208.756735 Z M14.7291429,206.22449 C211.462929,201.620408 408.235071,197.898776 605.007214,196.939592 C780.874714,196.057143 956.780571,196.67102 1132.60971,199.318367 C1250.32779,201.083265 1368.04586,203.500408 1485.76393,206.262857 C1351.39886,156.653878 1224.0915,90.4702041 1099.239,20.7183673 C1043.1225,14.5412245 986.852571,9.59183673 930.544286,6.25387755 C754.101429,-4.18204082 577.0065,1.38122449 401.215714,20.7183673 C276.401571,90.4318367 149.094214,156.61551 14.7291429,206.22449 Z" id="XMLID_141_"></path>
                                                    </g>
                                                    <g id="XMLID_128_" transform="translate(668.565000, 43.355102)">
                                                        <path d="M81.7007143,44.3142857 C61.2947143,44.3142857 40.7352857,42.9330612 21.0580714,37.3314286 C14.6140714,35.4897959 -2.60828571,30.195102 0.8055,20.9102041 C4.33435714,11.3567347 18.4497857,8.40244898 27.5404286,6.17714286 C45.2997857,1.80326531 63.5194286,0.153469388 81.7007143,0.153469388 C99.882,0.153469388 118.14,1.80326531 135.861,6.17714286 C144.414643,8.28734694 159.2205,11.3183673 162.595929,20.9102041 C165.971357,30.5404082 148.518857,35.5665306 142.343357,37.3314286 C122.7045,42.9330612 102.145071,44.3142857 81.7007143,44.3142857 Z M81.7007143,1.26612245 C64.6317857,1.26612245 47.4861429,2.83918367 30.8391429,6.9444898 C22.4389286,9.01632653 9.129,11.8555102 5.94535714,20.795102 C2.87678571,29.4661224 19.0635,34.4155102 25.1239286,36.1036735 C43.5353571,41.244898 62.6372143,42.6261224 81.6623571,42.6261224 C100.725857,42.6261224 119.866071,41.3216327 138.200786,36.1036735 C143.992714,34.4538776 160.601357,29.5428571 157.379357,20.795102 C154.080643,11.7404082 140.885786,9.01632653 132.485571,6.9444898 C115.915286,2.83918367 98.7696429,1.26612245 81.7007143,1.26612245 Z" id="XMLID_129_"></path>
                                                    </g>
                                                    <path d="M744.934071,63.4979592 C744.934071,62.6922449 747.350571,62.04 750.265714,62.04 C753.180857,62.04 755.597357,62.6922449 755.597357,63.4979592 C755.597357,64.3036735 753.219214,64.9559184 750.265714,64.9559184 C747.312214,64.9559184 744.895714,64.3036735 744.934071,63.4979592 Z" id="XMLID_125_"></path>
                                                    <g id="XMLID_101_" transform="translate(746.046429, 0.383673)">
                                                        <path d="M8.24678571,197.860408 C5.02478571,197.860408 3.41378571,197.860408 0.191785714,197.860408 C0.882214286,131.945306 1.611,65.9918367 2.33978571,0.0767346939 C3.83571429,0.0767346939 4.60285714,0.0767346939 6.09878571,0.0767346939 C6.82757143,65.9918367 7.518,131.945306 8.24678571,197.860408 Z" id="XMLID_102_"></path>
                                                    </g>
                                                </g>
                                            </g>
                                        </g>
                                    </g>
                                </g>
                                <g id="XMLID_156_" stroke-width="1" fill="none" fill-rule="evenodd" transform="translate(807.801429, 19.567347)">
                                    <path d="M118.063286,57.9730612 C78.7472143,62.1167347 39.3927857,62.1167347 0.0767142857,57.9730612 C2.22471429,38.6359184 4.33435714,19.3371429 6.48235714,0 C41.5407857,3.68326531 76.6375714,3.68326531 111.696,0 C113.805643,19.3371429 115.953643,38.6359184 118.063286,57.9730612 Z" id="XMLID_164_" fill="#489184" fill-rule="nonzero"></path>
                                </g>
                            </g>
                        </g>
                    </g>
                </g>
                <rect id="XMLID_20_" x="164.667214" y="139.69551" width="207.703929" height="35.6432653"></rect>
            </g>
        </g>
    </g>
</svg>