<?xml version="1.0" encoding="UTF-8"?>
<svg width="120px" height="120px" viewBox="0 0 120 120" version="1.1" xmlns="http://www.w3.org/2000/svg" xmlns:xlink="http://www.w3.org/1999/xlink">
    <!-- Generator: Sketch 51.1 (57501) - http://www.bohemiancoding.com/sketch -->
    <title>Percussion 2</title>
    <desc>Created with Sketch.</desc>
    <defs></defs>
    <g id="Percussion-2" stroke="none" stroke-width="1" fill="none" fill-rule="evenodd">
        <g id="Group-54" transform="translate(13.000000, 1.000000)">
            <g id="Flat-Marching-Band-Vectors-04" transform="translate(56.000000, 0.000000)"></g>
            <g id="Group" fill-rule="nonzero">
                <g id="Shape">
                    <g transform="translate(29.264407, 0.000000)">
                        <g transform="translate(6.905085, 0.000000)" fill="#59607E">
                            <path d="M4.14305085,118.901381 L2.79491525,118.901381 C1.38101695,118.901381 0.230169492,117.717956 0.295932203,116.271547 L6.37898305,2.62983425 C6.44474576,1.31491713 7.52983051,0.262983425 8.8779661,0.262983425 L10.2261017,0.262983425 C11.64,0.262983425 12.7908475,1.44640884 12.7250847,2.89281768 L6.6420339,116.53453 C6.57627119,117.849448 5.49118644,118.901381 4.14305085,118.901381 Z"></path>
                            <path d="M49.7494915,118.901381 L51.0976271,118.901381 C52.5115254,118.901381 53.6623729,117.717956 53.5966102,116.271547 L47.5135593,2.62983425 C47.4477966,1.31491713 46.3627119,0.262983425 45.0145763,0.262983425 L43.6664407,0.262983425 C42.2525424,0.262983425 41.1016949,1.44640884 41.1674576,2.89281768 L47.2505085,116.53453 C47.3162712,117.849448 48.4013559,118.901381 49.7494915,118.901381 Z"></path>
                        </g>
                        <g transform="translate(0.000000, 6.903315)">
                            <path d="M3.28813559,84.680663 L64.4145763,84.680663 C66.1901695,84.680663 67.6369492,86.1270718 67.6369492,87.9022099 L67.6369492,92.7016575 C67.6369492,94.4767956 66.1901695,95.9232044 64.4145763,95.9232044 L3.28813559,95.9232044 C1.51254237,95.9232044 0.0657627119,94.4767956 0.0657627119,92.7016575 L0.0657627119,87.9022099 C0.0657627119,86.1270718 1.51254237,84.680663 3.28813559,84.680663 Z" fill="#CCB842"></path>
                            <path d="M5.16237288,67.8168508 L62.5074576,67.8168508 C64.2830508,67.8168508 65.7298305,69.2632597 65.7298305,71.0383978 L65.7298305,75.8378453 C65.7298305,77.6129834 64.2830508,79.0593923 62.5074576,79.0593923 L5.16237288,79.0593923 C3.38677966,79.0593923 1.94,77.6129834 1.94,75.8378453 L1.94,71.0383978 C1.94,69.2632597 3.38677966,67.8168508 5.16237288,67.8168508 Z" fill="#CCB842"></path>
                            <path d="M7.03661017,50.9201657 L60.6332203,50.9201657 C62.4088136,50.9201657 63.8555932,52.3665746 63.8555932,54.1417127 L63.8555932,58.9411602 C63.8555932,60.7162983 62.4088136,62.1627072 60.6332203,62.1627072 L7.03661017,62.1627072 C5.26101695,62.1627072 3.81423729,60.7162983 3.81423729,58.9411602 L3.81423729,54.1417127 C3.81423729,52.3665746 5.26101695,50.9201657 7.03661017,50.9201657 Z" fill="#CCB842"></path>
                            <path d="M8.91084746,34.0563536 L58.7589831,34.0563536 C60.5345763,34.0563536 61.9813559,35.5027624 61.9813559,37.2779006 L61.9813559,42.0773481 C61.9813559,43.8524862 60.5345763,45.298895 58.7589831,45.298895 L8.91084746,45.298895 C7.13525424,45.298895 5.68847458,43.8524862 5.68847458,42.0773481 L5.68847458,37.2779006 C5.68847458,35.5027624 7.13525424,34.0563536 8.91084746,34.0563536 Z" fill="#CCB842"></path>
                            <path d="M10.7850847,17.1596685 L56.8847458,17.1596685 C58.660339,17.1596685 60.1071186,18.6060773 60.1071186,20.3812155 L60.1071186,25.180663 C60.1071186,26.9558011 58.660339,28.4022099 56.8847458,28.4022099 L10.7850847,28.4022099 C9.00949153,28.4022099 7.56271186,26.9558011 7.56271186,25.180663 L7.56271186,20.3812155 C7.56271186,18.6060773 9.00949153,17.1596685 10.7850847,17.1596685 Z" fill="#CCB842"></path>
                            <path d="M12.6922034,0.262983425 L55.0433898,0.262983425 C56.8189831,0.262983425 58.2657627,1.70939227 58.2657627,3.48453039 L58.2657627,8.2839779 C58.2657627,10.059116 56.8189831,11.5055249 55.0433898,11.5055249 L12.6922034,11.5055249 C10.9166102,11.5055249 9.46983051,10.059116 9.46983051,8.2839779 L9.46983051,3.48453039 C9.43694915,1.70939227 10.8837288,0.262983425 12.6922034,0.262983425 Z" fill="#CCB842"></path>
                            <path d="M20.7152542,5.88425414 C20.7152542,6.90331492 19.860339,7.75801105 18.8410169,7.75801105 C17.8216949,7.75801105 16.9667797,6.93618785 16.9667797,5.88425414 C16.9667797,4.83232044 17.8216949,4.01049724 18.8410169,4.01049724 C19.860339,4.01049724 20.7152542,4.86519337 20.7152542,5.88425414 Z" fill="#ECEFF0"></path>
                            <path d="M18.8410169,22.7809392 C18.8410169,23.8 17.9861017,24.6546961 16.9667797,24.6546961 C15.9474576,24.6546961 15.0925424,23.8 15.0925424,22.7809392 C15.0925424,21.7290055 15.9474576,20.9071823 16.9667797,20.9071823 C17.9861017,20.9071823 18.8410169,21.7618785 18.8410169,22.7809392 Z" fill="#ECEFF0"></path>
                            <path d="M16.9667797,39.6776243 C16.9667797,40.6966851 16.1447458,41.5513812 15.0925424,41.5513812 C14.0732203,41.5513812 13.2183051,40.6966851 13.2183051,39.6776243 C13.2183051,38.6585635 14.040339,37.8038674 15.0925424,37.8038674 C16.1118644,37.8038674 16.9667797,38.6256906 16.9667797,39.6776243 Z" fill="#ECEFF0"></path>
                            <path d="M16.9667797,56.5414365 C16.9667797,57.5933702 16.1447458,58.4151934 15.0925424,58.4151934 C14.0732203,58.4151934 13.2183051,57.5604972 13.2183051,56.5414365 C13.2183051,55.5223757 14.040339,54.6676796 15.0925424,54.6676796 C16.1118644,54.6676796 16.9667797,55.5223757 16.9667797,56.5414365 Z" fill="#ECEFF0"></path>
                            <path d="M54.4844068,56.5414365 C54.4844068,57.5933702 53.6623729,58.4151934 52.6101695,58.4151934 C51.5908475,58.4151934 50.7359322,57.5604972 50.7359322,56.5414365 C50.7359322,55.5223757 51.5579661,54.6676796 52.6101695,54.6676796 C53.6623729,54.6676796 54.4844068,55.5223757 54.4844068,56.5414365 Z" fill="#ECEFF0"></path>
                            <path d="M56.3586441,73.4381215 C56.3586441,74.4900552 55.5037288,75.3118785 54.4844068,75.3118785 C53.4650847,75.3118785 52.6101695,74.4900552 52.6101695,73.4381215 C52.6101695,72.4190608 53.4650847,71.5643646 54.4844068,71.5643646 C55.5366102,71.5643646 56.3586441,72.3861878 56.3586441,73.4381215 Z" fill="#ECEFF0"></path>
                            <path d="M15.0925424,73.4381215 C15.0925424,74.4900552 14.2705085,75.3118785 13.2183051,75.3118785 C12.1661017,75.3118785 11.3440678,74.4900552 11.3440678,73.4381215 C11.3440678,72.4190608 12.1661017,71.5643646 13.2183051,71.5643646 C14.2376271,71.5643646 15.0925424,72.3861878 15.0925424,73.4381215 Z" fill="#ECEFF0"></path>
                            <path d="M15.0925424,90.3348066 C15.0925424,91.3538674 14.2705085,92.2085635 13.2183051,92.2085635 C12.1661017,92.2085635 11.3440678,91.3867403 11.3440678,90.3348066 C11.3440678,89.2828729 12.1661017,88.4610497 13.2183051,88.4610497 C14.2376271,88.4610497 15.0925424,89.2828729 15.0925424,90.3348066 Z" fill="#ECEFF0"></path>
                            <path d="M56.3586441,90.3348066 C56.3586441,91.3538674 55.5037288,92.2085635 54.4844068,92.2085635 C53.4650847,92.2085635 52.6101695,91.3867403 52.6101695,90.3348066 C52.6101695,89.2828729 53.4650847,88.4610497 54.4844068,88.4610497 C55.5366102,88.4610497 56.3586441,89.2828729 56.3586441,90.3348066 Z" fill="#ECEFF0"></path>
                            <path d="M54.4844068,39.6776243 C54.4844068,40.6966851 53.6623729,41.5513812 52.6101695,41.5513812 C51.5908475,41.5513812 50.7359322,40.6966851 50.7359322,39.6776243 C50.7359322,38.6585635 51.5579661,37.8038674 52.6101695,37.8038674 C53.6623729,37.8038674 54.4844068,38.6256906 54.4844068,39.6776243 Z" fill="#ECEFF0"></path>
                            <path d="M52.6101695,22.7809392 C52.6101695,23.8 51.7881356,24.6546961 50.7359322,24.6546961 C49.6837288,24.6546961 48.8616949,23.8 48.8616949,22.7809392 C48.8616949,21.7290055 49.6837288,20.9071823 50.7359322,20.9071823 C51.7881356,20.9071823 52.6101695,21.7618785 52.6101695,22.7809392 Z" fill="#ECEFF0"></path>
                            <path d="M50.7359322,5.88425414 C50.7359322,6.90331492 49.8810169,7.75801105 48.8616949,7.75801105 C47.8094915,7.75801105 46.9874576,6.93618785 46.9874576,5.88425414 C46.9874576,4.83232044 47.8423729,4.01049724 48.8616949,4.01049724 C49.9138983,4.01049724 50.7359322,4.86519337 50.7359322,5.88425414 Z" fill="#ECEFF0"></path>
                        </g>
                    </g>
                    <path d="M10.6864407,8.02099448 L8.81220339,6.14723757 C8.45050847,5.78563536 7.99016949,5.58839779 7.49694915,5.58839779 L3.74847458,5.58839779 C3.25525424,5.58839779 2.7620339,5.78563536 2.43322034,6.14723757 L0.558983051,8.02099448 C0.197288136,8.38259669 -1.13686838e-13,8.84281768 -1.13686838e-13,9.3359116 L-1.13686838e-13,16.8309392 C-1.13686838e-13,17.3240331 0.197288136,17.8171271 0.558983051,18.1458564 L2.43322034,20.0196133 C2.79491525,20.3812155 3.25525424,20.578453 3.74847458,20.578453 L3.74847458,108.809392 C3.74847458,109.828453 4.57050847,110.683149 5.62271186,110.683149 C6.67491525,110.683149 7.49694915,109.828453 7.49694915,108.809392 L7.49694915,20.611326 C7.99016949,20.611326 8.48338983,20.4140884 8.81220339,20.0524862 L10.6864407,18.1787293 C11.0481356,17.8171271 11.2454237,17.3569061 11.2454237,16.8638122 L11.2454237,9.36878453 C11.2454237,8.84281768 11.0481356,8.38259669 10.6864407,8.02099448 Z" fill="#D5643D"></path>
                    <path d="M23.8389831,101.840331 L21.9647458,99.9665746 C21.6030508,99.6049724 21.1427119,99.4077348 20.6494915,99.4077348 L20.6494915,11.2096685 C20.6494915,10.1906077 19.7945763,9.3359116 18.7752542,9.3359116 C17.7559322,9.3359116 16.9010169,10.1577348 16.9010169,11.2096685 L16.9010169,99.4077348 C16.4077966,99.4077348 15.9145763,99.6049724 15.5857627,99.9665746 L13.7115254,101.840331 C13.3498305,102.201934 13.1525424,102.662155 13.1525424,103.155249 L13.1525424,110.650276 C13.1525424,111.14337 13.3498305,111.636464 13.7115254,111.965193 L15.5857627,113.83895 C15.9474576,114.200552 16.4077966,114.39779 16.9010169,114.39779 L20.6494915,114.39779 C21.1427119,114.39779 21.6359322,114.200552 21.9647458,113.83895 L23.8389831,111.965193 C24.200678,111.603591 24.3979661,111.14337 24.3979661,110.650276 L24.3979661,103.155249 C24.3650847,102.662155 24.200678,102.201934 23.8389831,101.840331 Z" fill="#D5643D"></path>
                </g>
            </g>
        </g>
    </g>
</svg>