<?xml version="1.0" encoding="UTF-8"?>
<svg width="120px" height="120px" viewBox="0 0 120 120" version="1.1" xmlns="http://www.w3.org/2000/svg" xmlns:xlink="http://www.w3.org/1999/xlink">
    <!-- Generator: Sketch 51.1 (57501) - http://www.bohemiancoding.com/sketch -->
    <title>Sewing machine1</title>
    <desc>Created with Sketch.</desc>
    <defs></defs>
    <g id="Sewing-machine1" stroke="none" stroke-width="1" fill="none" fill-rule="evenodd">
        <g id="Group" transform="translate(0.000000, 2.000000)">
            <path d="M25.0574672,80.3151092 C25.0574672,80.8642795 24.7849782,81.3081223 24.448559,81.3081223 C24.1121397,81.3081223 23.8401747,80.8642795 23.8401747,80.3151092 L23.8401747,64.9744978 C23.8401747,64.4274236 24.1121397,63.9825328 24.448559,63.9825328 C24.7849782,63.9825328 25.0574672,64.4274236 25.0574672,64.9744978 L25.0574672,80.3151092" id="Fill-11" fill="#16394D"></path>
            <path d="M119.777293,38.4649782 C119.777293,39.4333624 118.992314,40.2183406 118.02393,40.2183406 L95.4178166,40.2183406 C94.4504803,40.2183406 93.6655022,39.4333624 93.6655022,38.4649782 C93.6655022,37.4971179 94.4504803,36.7121397 95.4178166,36.7121397 L118.02393,36.7121397 C118.992314,36.7121397 119.777293,37.4971179 119.777293,38.4649782" id="Fill-12" fill="#3196A0"></path>
            <path d="M87.5418341,22.7958079 C87.5418341,23.551441 86.9297817,24.1634934 86.1746725,24.1634934 C85.4200873,24.1634934 84.8080349,23.551441 84.8080349,22.7958079 L84.8080349,1.66951965 C84.8080349,0.915458515 85.4200873,0.303406114 86.1746725,0.303406114 C86.9297817,0.303406114 87.5418341,0.915458515 87.5418341,1.66951965 L87.5418341,22.7958079" id="Fill-13" fill="#3196A0"></path>
            <path d="M25.8151965,42.659214 C25.8151965,43.4143231 25.2041921,44.0263755 24.448559,44.0263755 C23.6934498,44.0263755 23.0824454,43.4143231 23.0824454,42.659214 L23.0824454,21.5329258 C23.0824454,20.7783406 23.6934498,20.1662882 24.448559,20.1662882 C25.2041921,20.1662882 25.8151965,20.7783406 25.8151965,21.5329258 L25.8151965,42.659214" id="Fill-14" fill="#68C0B7"></path>
            <path d="M26.159476,72.2903057 C26.159476,72.839476 25.3938865,73.2833188 24.4475109,73.2833188 C23.5042795,73.2833188 22.7381659,72.839476 22.7381659,72.2903057 L22.7381659,56.9491703 C22.7381659,56.4020961 23.5042795,55.9572052 24.4475109,55.9572052 C25.3938865,55.9572052 26.159476,56.4020961 26.159476,56.9491703 L26.159476,72.2903057" id="Fill-15" fill="#68C0B7"></path>
            <path d="M92.5425328,22.1245415 C88.2969432,22.1245415 84.0529258,22.1245415 79.8073362,22.1245415 C82.8178166,17.249607 82.8178166,11.7180786 79.8073362,6.8431441 C84.0529258,6.8431441 88.2969432,6.8431441 92.5425328,6.8431441 C89.5304803,11.7180786 89.5304803,17.249607 92.5425328,22.1245415" id="Fill-16" fill="#DEAF30"></path>
            <path d="M95.7259389,6.8431441 C95.7259389,7.96768559 94.8125764,8.88104803 93.6880349,8.88104803 L78.6618341,8.88104803 C77.5357205,8.88104803 76.6239301,7.96768559 76.6239301,6.8431441 C76.6239301,5.71703057 77.5357205,4.80524017 78.6618341,4.80524017 L93.6880349,4.80524017 C94.8125764,4.80524017 95.7259389,5.71703057 95.7259389,6.8431441" id="Fill-17" fill="#DEAF30"></path>
            <path d="M95.7259389,22.1245415 C95.7259389,23.250655 94.8125764,24.1624454 93.6880349,24.1624454 L78.6618341,24.1624454 C77.5357205,24.1624454 76.6239301,23.250655 76.6239301,22.1245415 C76.6239301,20.999476 77.5357205,20.0861135 78.6618341,20.0861135 L93.6880349,20.0861135 C94.8125764,20.0861135 95.7259389,20.999476 95.7259389,22.1245415" id="Fill-18" fill="#DEAF30"></path>
            <path d="M101.943406,84.6660262 L101.943406,41.309869 C101.943406,41.309869 99.990917,22.5615721 86.3198253,22.5615721 C72.6482096,22.5615721 64.4473362,36.2326638 44.9172052,36.2326638 C25.3870742,36.2326638 33.1765939,26.2024454 28.0993886,25.0307424 C23.0216594,23.8590393 15.6246288,24.1231441 15.6246288,29.5923144 C15.6246288,35.0609607 14.4508297,59.6682969 16.0129258,63.1834061 C17.5750218,66.6990393 21.1121397,68.7427074 29.2925764,66.6990393 C35.5430568,65.1369432 31.6375546,54.5910917 39.0581659,49.1224454 C46.4793013,43.6537991 62.8852402,40.1381659 70.6967686,45.9972052 C78.5072489,51.8557205 80.851179,60.448559 74.6022707,65.9172052 C68.3528384,71.3858515 56.819214,78.4155459 55.7502183,84.6660262 L101.943406,84.6660262" id="Fill-19" fill="#16394D"></path>
            <path d="M92.5425328,38.4639301 C92.5425328,41.9816594 89.6924017,44.8333624 86.1757205,44.8333624 C82.6579913,44.8333624 79.8073362,41.9816594 79.8073362,38.4639301 C79.8073362,34.948821 82.6579913,32.0971179 86.1757205,32.0971179 C89.6924017,32.0971179 92.5425328,34.948821 92.5425328,38.4639301" id="Fill-20" fill="#66BFB2"></path>
            <path d="M90.7860262,38.4639301 C90.7860262,41.011179 88.7213974,43.0768559 86.1757205,43.0768559 C83.6279476,43.0768559 81.5638428,41.011179 81.5638428,38.4639301 C81.5638428,35.9187773 83.6279476,33.8536245 86.1757205,33.8536245 C88.7213974,33.8536245 90.7860262,35.9187773 90.7860262,38.4639301" id="Fill-21" fill="#3196A0"></path>
            <path d="M95.0457642,75.0136245 C95.0457642,75.7048035 94.4855895,76.2655022 93.7944105,76.2655022 C93.1032314,76.2655022 92.5425328,75.7048035 92.5425328,75.0136245 L92.5425328,60.330655 C92.5425328,59.639476 93.1032314,59.0787773 93.7944105,59.0787773 C94.4855895,59.0787773 95.0457642,59.639476 95.0457642,60.330655 L95.0457642,75.0136245" id="Fill-22" fill="#66BFB2"></path>
            <path d="M22.2618341,54.5895197 C22.2618341,55.3451528 21.6497817,55.9572052 20.8946725,55.9572052 C20.1406114,55.9572052 19.5280349,55.3451528 19.5280349,54.5895197 L19.5280349,33.4632314 C19.5280349,32.7091703 20.1406114,32.0971179 20.8946725,32.0971179 C21.6497817,32.0971179 22.2618341,32.7091703 22.2618341,33.4632314 L22.2618341,54.5895197" id="Fill-23" fill="#66BFB2"></path>
            <path d="M111.111616,110.258515 C111.111616,112.803144 109.046987,114.866725 106.502358,114.866725 L4.99755459,114.866725 C2.45135371,114.866725 0.388296943,112.803144 0.388296943,110.258515 L0.388296943,87.1262882 C0.388296943,84.5800873 2.45135371,82.5170306 4.99755459,82.5170306 L106.502358,82.5170306 C109.046987,82.5170306 111.111616,84.5800873 111.111616,87.1262882 L111.111616,110.258515" id="Fill-24" fill="#DEAF30"></path>
            <path d="M100.770131,109.867074 L10.7282096,109.867074 C9.3390393,109.867074 8.21292576,108.740961 8.21292576,107.35179 L8.21292576,94.7245415 C8.21292576,93.3337991 9.3390393,92.2082096 10.7282096,92.2082096 L100.770131,92.2082096 C102.159301,92.2082096 103.287511,93.3337991 103.287511,94.7245415 L103.287511,107.35179 C103.287511,108.740961 102.159301,109.867074 100.770131,109.867074" id="Fill-25" fill="#BA9133"></path>
            <path d="M103.287511,105.006288 C103.287511,106.394934 102.159301,107.521048 100.770131,107.521048 L10.7282096,107.521048 C9.3390393,107.521048 8.21292576,106.394934 8.21292576,105.006288 L8.21292576,92.3785153 C8.21292576,90.9882969 9.3390393,89.8621834 10.7282096,89.8621834 L100.770131,89.8621834 C102.159301,89.8621834 103.287511,90.9882969 103.287511,92.3785153 L103.287511,105.006288" id="Fill-26" fill="#EBE886"></path>
            <path d="M59.8558952,98.6918777 C59.8558952,100.959825 58.0181659,102.797555 55.7502183,102.797555 C53.4822707,102.797555 51.6445415,100.959825 51.6445415,98.6918777 C51.6445415,96.4239301 53.4822707,94.5856769 55.7502183,94.5856769 C58.0181659,94.5856769 59.8558952,96.4239301 59.8558952,98.6918777" id="Fill-27" fill="#DEAF30"></path>
            <path d="M110.722271,43.4510044 C110.722271,45.2279476 109.281223,46.6674236 107.505852,46.6674236 C105.729432,46.6674236 104.288908,45.2279476 104.288908,43.4510044 L104.288908,33.478952 C104.288908,31.7020087 105.729432,30.2625328 107.505852,30.2625328 C109.281223,30.2625328 110.722271,31.7020087 110.722271,33.478952 L110.722271,43.4510044" id="Fill-28" fill="#66BFB2"></path>
            <path d="M117.155633,50.699214 C117.155633,52.4772052 115.715109,53.9172052 113.93869,53.9172052 C112.162795,53.9172052 110.722271,52.4772052 110.722271,50.699214 L110.722271,26.2312664 C110.722271,24.4527511 112.162795,23.0132751 113.93869,23.0132751 C115.715109,23.0132751 117.155633,24.4527511 117.155633,26.2312664 L117.155633,50.699214" id="Fill-29" fill="#66BFB2"></path>
            <path d="M92.2988646,9.48104803 C92.1710044,9.81432314 91.8827948,10.0894323 91.6380786,10.0894323 C87.9961572,10.0894323 84.3537118,10.0894323 80.7117904,10.0894323 C80.4665502,10.0894323 80.1793886,9.81432314 80.0510044,9.48104803 C79.9231441,9.14777293 80.0206114,8.88104803 80.2878603,8.88104803 C84.2127511,8.88104803 88.1376419,8.88104803 92.0620087,8.88104803 C92.3297817,8.88104803 92.4267249,9.14777293 92.2988646,9.48104803" id="Fill-30" fill="#C12E37"></path>
            <path d="M91.8979913,10.7051528 C91.8015721,11.0457642 91.5510917,11.3240175 91.320524,11.3240175 C87.8903057,11.3240175 84.4595633,11.3240175 81.029345,11.3240175 C80.7982533,11.3240175 80.5482969,11.0457642 80.4524017,10.7051528 C80.3559825,10.3629694 80.4634061,10.0894323 80.7117904,10.0894323 C84.3537118,10.0894323 87.9961572,10.0894323 91.6380786,10.0894323 C91.8859389,10.0894323 91.9938865,10.3629694 91.8979913,10.7051528" id="Fill-31" fill="#DD4047"></path>
            <path d="M91.6118777,11.9507424 C91.5474236,12.2960699 91.3304803,12.5806114 91.108821,12.5806114 C87.8195633,12.5806114 84.5303057,12.5806114 81.2415721,12.5806114 C81.0193886,12.5806114 80.8029694,12.2960699 80.7385153,11.9507424 C80.6745852,11.6027948 80.7956332,11.3240175 81.029345,11.3240175 C84.4595633,11.3240175 87.8903057,11.3240175 91.320524,11.3240175 C91.5537118,11.3240175 91.6758079,11.6027948 91.6118777,11.9507424" id="Fill-32" fill="#C12E37"></path>
            <path d="M91.439476,13.2167686 C91.4075109,13.5641921 91.2199127,13.8482096 91.0029694,13.8476856 C87.7844541,13.8476856 84.5654148,13.8476856 81.3474236,13.8476856 C81.1299563,13.8482096 80.9423581,13.5641921 80.910917,13.2167686 C80.8784279,12.8635808 81.0178166,12.5806114 81.2415721,12.5806114 C84.5303057,12.5806114 87.8195633,12.5806114 91.108821,12.5806114 C91.3320524,12.5806114 91.471441,12.8635808 91.439476,13.2167686" id="Fill-33" fill="#DD4047"></path>
            <path d="M91.3823581,14.4833188 C91.3818341,14.8344105 91.2209607,15.119476 91.0029694,15.119476 C87.7844541,15.118952 84.5654148,15.118952 81.3474236,15.119476 C81.1294323,15.119476 80.9675109,14.8344105 80.9675109,14.4833188 C80.9680349,14.1332751 81.1294323,13.8476856 81.3474236,13.8476856 C84.5654148,13.8476856 87.7844541,13.8476856 91.0029694,13.8476856 C91.2209607,13.8476856 91.3818341,14.1332751 91.3823581,14.4833188" id="Fill-34" fill="#C12E37"></path>
            <path d="M91.44,15.7551092 C91.471441,16.1046288 91.3315284,16.3855022 91.1082969,16.3855022 C87.8190393,16.3855022 84.5308297,16.3855022 81.2420961,16.3855022 C81.0183406,16.3855022 80.8784279,16.1046288 80.910393,15.7551092 C80.9423581,15.4045415 81.1294323,15.118952 81.3474236,15.119476 C84.5654148,15.118952 87.7844541,15.118952 91.0029694,15.119476 C91.2199127,15.118952 91.4075109,15.4045415 91.44,15.7551092" id="Fill-35" fill="#DD4047"></path>
            <path d="M91.6113537,17.0153712 C91.6758079,17.3643668 91.5537118,17.6431441 91.320524,17.6431441 C87.8903057,17.6431441 84.4595633,17.6431441 81.029345,17.6431441 C80.7956332,17.6431441 80.6745852,17.3638428 80.7390393,17.0153712 C80.8029694,16.6689956 81.0193886,16.3855022 81.2420961,16.3855022 C84.5308297,16.3855022 87.8190393,16.3855022 91.1082969,16.3855022 C91.3304803,16.3855022 91.5474236,16.6689956 91.6113537,17.0153712" id="Fill-36" fill="#C12E37"></path>
            <path d="M91.8979913,18.2630568 C91.9944105,18.6052402 91.8859389,18.8782533 91.6380786,18.8782533 C87.9961572,18.8782533 84.3537118,18.8782533 80.7117904,18.8782533 C80.4634061,18.8782533 80.3554585,18.6052402 80.4524017,18.2630568 C80.5482969,17.9224454 80.7982533,17.6431441 81.029345,17.6431441 C84.4595633,17.6431441 87.8903057,17.6431441 91.320524,17.6431441 C91.5510917,17.6431441 91.8015721,17.9224454 91.8979913,18.2630568" id="Fill-37" fill="#DD4047"></path>
            <path d="M92.2988646,19.4861135 C92.4267249,19.8193886 92.3297817,20.0861135 92.0620087,20.0861135 C88.1376419,20.0861135 84.2127511,20.0861135 80.2878603,20.0861135 C80.0206114,20.0861135 79.9231441,19.8193886 80.0510044,19.4861135 C80.1793886,19.1528384 80.4665502,18.8782533 80.7117904,18.8782533 C84.3537118,18.8782533 87.9961572,18.8782533 91.6380786,18.8782533 C91.8827948,18.8782533 92.1704803,19.1528384 92.2988646,19.4861135" id="Fill-38" fill="#C12E37"></path>
        </g>
    </g>
</svg>