<?xml version="1.0" encoding="UTF-8"?>
<svg width="120px" height="120px" viewBox="0 0 120 120" version="1.1" xmlns="http://www.w3.org/2000/svg" xmlns:xlink="http://www.w3.org/1999/xlink">
    <!-- Generator: Sketch 51.1 (57501) - http://www.bohemiancoding.com/sketch -->
    <title>Basketball player</title>
    <desc>Created with Sketch.</desc>
    <defs>
        <polygon id="path-1" points="0.199373684 0.299053333 13.3734789 0.299053333 13.3734789 5.86666667 0.199373684 5.86666667"></polygon>
    </defs>
    <g id="Basketball-player" stroke="none" stroke-width="1" fill="none" fill-rule="evenodd">
        <g id="Group-51" transform="translate(21.000000, 1.000000)">
            <path d="M1.83948993e-13,48.0045455 C8.22881081,60.8386545 19.2140811,50.1285455 15.4797297,38.7833818 C12.765973,30.5469818 27.4898649,41.4609091 27.4898649,41.4609091 C27.4898649,41.4609091 18.8681892,65.3376727 11.3909459,65.6938182 C3.90943243,66.0499636 -0.0277567568,54.3658182 1.83948993e-13,48.0045455" id="Fill-63" fill="#F6B90C"></path>
            <path d="M27.5315,106.7782 L18.0450946,106.7782 L17.8080946,110.822382 L17.8145,110.822382 C17.4963649,111.024055 17.1867703,111.281509 16.9070676,111.543255 L16.9070676,114.137109 L24.6319865,114.137109 C24.7771757,114.051291 24.9223649,113.959036 25.0654189,113.862491 C25.9344189,113.251036 26.9550135,112.573073 27.5464459,111.661255 C27.7279324,111.382345 27.8133378,111.088418 27.7492838,110.822382 L27.7279324,110.822382 L27.5315,106.7782 Z" id="Fill-64" fill="#EEEEED"></path>
            <polygon id="Fill-65" fill="#E63744" points="27.5545595 107.234967 18.0169108 107.234967 18.0062351 107.434495 27.5631 107.434495"></polygon>
            <polygon id="Fill-66" fill="#E63744" points="27.5731351 107.633164 17.9927838 107.633164 17.9842432 107.832691 27.5838108 107.832691"></polygon>
            <path d="M40.6593784,112.372473 C40.2408919,111.767455 39.6665405,111.222509 39.0345405,110.821309 L39.0409459,110.821309 L38.8060811,106.779273 L29.3111351,106.779273 L29.1147027,110.821309 L29.104027,110.821309 C29.0378378,111.087345 29.1253784,111.381273 29.3068649,111.662327 C29.894027,112.574145 30.9188919,113.243527 31.790027,113.857127 C31.9288108,113.953673 32.074,114.050218 32.2213243,114.136036 L40.6593784,114.136036 L40.6593784,112.372473 Z" id="Fill-67" fill="#EEEEED"></path>
            <polygon id="Fill-68" fill="#E63744" points="29.2810297 107.434065 38.8443 107.434065 38.8336243 107.234538 29.2895703 107.234538"></polygon>
            <polygon id="Fill-69" fill="#E63744" points="29.2601054 107.832262 38.8682135 107.832262 38.8554027 107.632735 29.2686459 107.632735"></polygon>
            <path d="M17.8315811,110.821953 L22.5331486,110.465807 C22.5331486,110.465807 21.2712838,108.730135 19.6101486,108.813807 C18.0023919,108.893189 17.8080946,110.80908 17.8080946,110.80908 L17.8315811,110.821953 Z" id="Fill-70" fill="#6E6E6D"></path>
            <path d="M18.4321946,110.639804 L21.6626541,110.397367 C21.6626541,110.397367 20.7936541,109.204495 19.6513568,109.258131 C18.549627,109.313913 18.4129784,110.633367 18.4129784,110.633367 L18.4321946,110.639804 Z" id="Fill-71" fill="#E63744"></path>
            <path d="M17.8315811,110.821953 L17.8080946,110.813371 L17.8080946,110.821953 L17.8145,110.821953 C15.9526622,112.014825 14.6011216,114.353371 16.1939324,116.273553 C17.4024189,117.631625 19.1745811,116.565335 20.5239865,115.994644 C22.0121757,115.282353 23.7138784,114.786753 25.0654189,113.859916 C25.9344189,113.246316 26.9550135,112.572644 27.5464459,111.660825 C27.7279324,111.379771 27.8133378,111.087989 27.7492838,110.821953 L27.7492838,109.032644 C27.7492838,109.032644 27.6297162,108.852425 27.2176351,109.032644 C26.3956081,109.395225 25.8532838,111.027916 24.102473,110.821953 C19.7617432,109.609771 17.8315811,110.821953 17.8315811,110.821953" id="Fill-72" fill="#E63744"></path>
            <path d="M27.4147081,111.848553 L27.1990595,111.651171 C27.1990595,111.651171 24.9699784,113.921062 23.0440865,114.485316 L23.2191676,114.843607 C23.8682486,114.562553 24.4981135,114.247171 25.0639243,113.858844 C25.8731405,113.290298 26.8147351,112.668116 27.4147081,111.848553" id="Fill-73" fill="#343434"></path>
            <path d="M17.8315811,110.821953 L17.8080946,110.80908 L17.8080946,110.815516 L17.8145,110.815516 C17.7632568,110.87988 17.7120135,110.886316 17.6607703,110.920644 C17.3746622,111.557844 17.4130946,112.229371 18.8585811,112.220789 C19.9880676,112.214353 21.5808784,111.173807 22.5331486,110.465807 C19.2962838,109.903698 17.8315811,110.821953 17.8315811,110.821953" id="Fill-74" fill="#343434"></path>
            <path d="M17.7628297,112.06224 C17.2738838,112.06224 16.7998838,112.100858 16.3386946,112.169513 C16.3344243,112.175949 16.3301541,112.182385 16.3237486,112.186676 C15.4056405,113.398858 15.0875054,114.937149 16.1956405,116.273767 C17.4019919,117.63184 19.1741541,116.565549 20.5235595,115.994858 C21.5569649,115.501404 22.6907216,115.110931 23.739073,114.608895 C22.5412622,113.085622 20.3143162,112.06224 17.7628297,112.06224" id="Fill-75" fill="#343434"></path>
            <path d="M27.6941973,109.231742 C27.2778459,109.231742 26.9383595,110.010542 26.9383595,110.973851 C26.9383595,111.439415 27.0173595,111.86636 27.1476027,112.177451 C27.294927,112.012251 27.4294405,111.84276 27.546873,111.660396 C27.7283595,111.379342 27.8137649,111.08756 27.7475757,110.821524 L27.7475757,109.236033 C27.7326297,109.233887 27.7134135,109.231742 27.6941973,109.231742" id="Fill-76" fill="#EEEEED"></path>
            <path d="M16.7202432,111.758444 C16.7031622,111.758444 16.6903514,111.749862 16.6860811,111.732698 C16.6818108,111.715535 16.6946216,111.698371 16.7095676,111.69408 C16.7330541,111.689789 18.8361622,111.172735 21.5328378,111.679062 C21.5520541,111.683353 21.5648649,111.700516 21.5627297,111.71768 C21.5584595,111.734844 21.5413784,111.747716 21.5221622,111.745571 C18.8382973,111.241389 16.748,111.752007 16.7266486,111.758444 L16.7202432,111.758444 Z" id="Fill-77" fill="#C12636"></path>
            <path d="M17.2728162,111.247396 C17.2578703,111.247396 17.2471946,111.24096 17.2429243,111.225942 C17.2365189,111.206633 17.2450595,111.189469 17.2642757,111.185178 C17.2834919,111.178742 19.2350054,110.53296 21.9487622,111.150851 C21.9679784,111.155142 21.9786541,111.174451 21.9743838,111.191615 C21.9722486,111.208778 21.9530324,111.221651 21.9359514,111.21736 C19.2392757,110.601615 17.3048432,111.24096 17.285627,111.247396 L17.2728162,111.247396 Z" id="Fill-78" fill="#C12636"></path>
            <path d="M39.0183135,110.821953 L34.3188811,110.465807 C34.3188811,110.465807 35.5807459,108.730135 37.2418811,108.813807 C38.8496378,108.893189 39.0439351,110.80908 39.0439351,110.80908 L39.0183135,110.821953 Z" id="Fill-79" fill="#6E6E6D"></path>
            <path d="M38.4198351,110.639804 L35.1893757,110.397367 C35.1893757,110.397367 36.0562405,109.204495 37.1985378,109.258131 C38.3024027,109.313913 38.4369162,110.633367 38.4369162,110.633367 L38.4198351,110.639804 Z" id="Fill-80" fill="#E63744"></path>
            <path d="M39.0183135,110.821953 L39.0439351,110.813371 L39.0439351,110.821953 L39.0353946,110.821953 C40.8972324,112.014825 42.2509081,114.353371 40.6559622,116.273553 C39.4496108,117.631625 37.6774486,116.565335 36.3259081,115.994644 C34.8355838,115.282353 33.1360162,114.786753 31.7866108,113.859916 C30.9176108,113.246316 29.8948811,112.572644 29.3055838,111.660825 C29.1240973,111.379771 29.0365568,111.087989 29.1027459,110.821953 L29.1027459,109.032644 C29.1027459,109.032644 29.2223135,108.852425 29.6343946,109.032644 C30.4542865,109.395225 30.9987459,111.027916 32.7495568,110.821953 C37.0860162,109.609771 39.0183135,110.821953 39.0183135,110.821953" id="Fill-81" fill="#E63744"></path>
            <path d="M29.4351865,111.848553 L29.6508351,111.651171 C29.6508351,111.651171 31.8799162,113.921062 33.8058081,114.485316 L33.630727,114.843607 C32.9816459,114.562553 32.3539162,114.247171 31.7881054,113.858844 C30.9788892,113.290298 30.0372946,112.668116 29.4351865,111.848553" id="Fill-82" fill="#343434"></path>
            <path d="M39.0183135,110.821953 L39.0439351,110.80908 L39.0439351,110.815516 L39.0353946,110.815516 C39.0866378,110.87988 39.1400162,110.886316 39.1891243,110.920644 C39.4773676,111.557844 39.4389351,112.229371 37.9913135,112.220789 C36.8639622,112.214353 35.2711514,111.173807 34.3188811,110.465807 C37.5536108,109.903698 39.0183135,110.821953 39.0183135,110.821953" id="Fill-83" fill="#343434"></path>
            <path d="M39.0870649,112.06224 C39.5760108,112.06224 40.0521459,112.100858 40.5112,112.169513 C40.5176054,112.175949 40.5218757,112.182385 40.5240108,112.186676 C41.4442541,113.398858 41.7645243,114.937149 40.6542541,116.273767 C39.4500378,117.63184 37.6778757,116.565549 36.3263351,115.994858 C35.2950649,115.501404 34.1613081,115.110931 33.1129568,114.608895 C34.3107676,113.085622 36.5377135,112.06224 39.0870649,112.06224" id="Fill-84" fill="#343434"></path>
            <path d="M29.1559108,109.231742 C29.5743973,109.231742 29.9138838,110.010542 29.9138838,110.973851 C29.9138838,111.439415 29.8327486,111.86636 29.7025054,112.177451 C29.5551811,112.012251 29.4228027,111.84276 29.3053703,111.660396 C29.1238838,111.379342 29.0363432,111.08756 29.1046676,110.821524 L29.1046676,109.236033 C29.1174784,109.233887 29.1388297,109.231742 29.1559108,109.231742" id="Fill-85" fill="#EEEEED"></path>
            <path d="M40.1317865,111.758444 C40.1488676,111.758444 40.1595432,111.749862 40.1659486,111.732698 C40.1702189,111.715535 40.1574081,111.698371 40.1381919,111.69408 C40.1189757,111.689789 38.0158676,111.172735 35.3170568,111.679062 C35.2978405,111.683353 35.2871649,111.700516 35.2893,111.71768 C35.2935703,111.734844 35.3106514,111.747716 35.3277324,111.745571 C38.0137324,111.241389 40.1018946,111.752007 40.1232459,111.758444 L40.1317865,111.758444 Z" id="Fill-86" fill="#C12636"></path>
            <path d="M39.5770784,111.247396 C39.5920243,111.247396 39.6048351,111.24096 39.6091054,111.225942 C39.6133757,111.206633 39.6069703,111.189469 39.5877541,111.185178 C39.5685378,111.178742 37.6127541,110.53296 34.9011324,111.150851 C34.8840514,111.155142 34.8733757,111.174451 34.8776459,111.191615 C34.8797811,111.208778 34.8989973,111.221651 34.9160784,111.21736 C37.6106189,110.601615 39.5471865,111.24096 39.5664027,111.247396 L39.5770784,111.247396 Z" id="Fill-87" fill="#C12636"></path>
            <polygon id="Fill-88" fill="#FDDFBB" points="17.4876108 98.7327455 18.0854486 106.752455 27.5163405 106.752455 27.6743405 98.7327455 29.1774757 98.7327455 29.3354757 106.752455 38.7642324 106.752455 39.3620703 98.7327455"></polygon>
            <path d="M40.9700405,84.2153127 L15.8822027,84.2153127 C15.8822027,84.2153127 13.4630946,93.9320764 15.5405811,101.71364 C17.5347973,103.573749 28.0780946,101.71364 28.0780946,101.71364 L28.2809324,91.5720764 L28.5691757,91.5720764 L28.7741486,101.71364 C28.7741486,101.71364 39.3174459,103.573749 41.3137973,101.71364 C43.4980405,92.4645855 40.9700405,84.2153127 40.9700405,84.2153127" id="Fill-89" fill="#C12636"></path>
            <path d="M17.2875486,84.2301164 L16.1900892,84.2301164 C15.9039811,88.54248 15.4278459,97.4053527 15.9509541,102.003062 C16.2712243,102.161825 16.6833054,102.288407 17.1573054,102.374225 C16.6961162,97.7486255 17.0633595,88.6733527 17.2875486,84.2301164" id="Fill-90" fill="#343434"></path>
            <path d="M39.6125216,84.2301164 C39.8388459,88.6733527 40.2082243,97.7314618 39.7449,102.359207 C40.2253054,102.271244 40.6352514,102.148953 40.9512514,101.979462 C41.4700892,97.3731709 40.9982243,88.54248 40.7121162,84.2301164 L39.6125216,84.2301164 Z" id="Fill-91" fill="#343434"></path>
            <path d="M60.663673,40.2588109 C59.4487811,39.7417564 57.9968892,40.2159018 56.8182946,41.3551382 C56.2866459,40.5463018 55.6525108,40.0957564 55.0674838,40.2116109 C53.9742946,40.4240109 53.459727,42.5265564 53.9230514,44.9015745 C54.0981324,45.8112473 54.3906459,46.6286655 54.7450784,47.2787382 C54.7920514,47.5748109 54.8603757,47.8601564 54.9543216,48.1240473 L54.9543216,48.1219018 L49.4072405,54.6762655 L37.6298351,50.4368473 C37.4803757,50.3617564 37.3052946,50.2416109 37.1344838,50.1922655 C34.8392135,49.08092 30.1846189,48.8620836 30.1846189,48.8620836 L28.4145919,48.96292 L28.2672676,48.96292 L26.4951054,48.8964109 C26.4951054,48.8964109 21.2191865,49.0830655 19.1203486,50.3832109 L19.1203486,50.3810655 C19.0733757,50.4003745 19.015727,50.4046655 18.9751595,50.4368473 C18.9730243,50.4389927 18.9687541,50.4411382 18.9644838,50.4432836 C18.7104027,50.5784473 12.4245649,53.9060473 10.6588081,56.1716473 C7.05042973,60.8122655 5.58786216,74.5410291 5.52167297,75.1932473 C5.06048378,75.8819382 4.74661892,76.7658655 4.63986216,77.7527745 C4.39218649,80.1406655 5.53661892,82.2196109 7.18921351,82.3955382 C8.26959189,82.5092473 9.30513243,81.7840836 9.96488919,80.6040836 C10.577673,81.1125564 11.1861865,81.3142291 11.6196189,81.08252 C12.4309703,80.6491382 12.3348892,78.8684109 11.4082405,77.1048473 C11.0495378,76.4290291 10.6225108,75.8561927 10.1890784,75.4292473 C10.1549162,75.3541564 10.1164838,75.2812109 10.0780514,75.2147018 C10.0780514,75.2147018 11.6879432,64.8886291 13.4024568,62.4513927 C14.0835649,61.4859382 14.5682405,60.8551745 14.8415378,60.3660109 L14.8415378,60.3681564 C12.8131595,70.4303382 12.2857811,84.2299018 12.2857811,84.2299018 L44.3960784,84.2299018 C44.3960784,84.2299018 43.8089162,68.59812 41.1827,58.33212 C41.1827,58.33212 49.7830243,61.8420836 52.2234838,60.9538655 C55.2382946,59.8532473 58.7014838,49.9755745 58.7014838,49.9755745 L58.6993486,49.9755745 C59.9975108,49.5100109 61.2529703,48.2656473 61.9789162,46.5471382 C63.1105378,43.8631745 62.5191054,41.0483382 60.663673,40.2588109" id="Fill-92" fill="#FDDFBB"></path>
            <path d="M37.6108324,50.3512436 C37.6108324,50.3512436 37.6022919,50.3405164 37.6108324,50.3512436 C37.4891297,50.2718618 37.3716973,50.21608 37.2286432,50.1431345 C36.0479135,49.5445527 34.1689946,49.2162982 32.6466432,49.03608 C32.6466432,49.03608 32.4117784,60.3683709 28.3913189,60.3769527 C24.3644541,60.3898255 24.0505892,49.0339345 24.0505892,49.0339345 C22.3659676,49.2420436 20.224427,49.6368073 19.0757243,50.3662618 L19.0714541,50.38128 C19.0522378,56.5752073 16.4366973,59.3986255 15.2773189,60.2010255 C15.1492108,60.2889891 14.8844541,60.4713527 14.8332108,60.4177164 C14.7648865,60.5593164 14.6880216,60.6386982 14.6624,60.7631345 C12.5400757,70.86608 12.2753189,84.1378618 12.2753189,84.1378618 L12.2368865,86.2017891 L44.4325892,86.2017891 L44.4261838,84.1464436 C44.4261838,84.1464436 44.0525351,68.6841527 41.4327243,58.4202982 C38.4862378,58.1757164 37.7944541,52.6683345 37.6492649,50.8961891 C37.619373,50.5550618 37.6108324,50.3512436 37.6108324,50.3512436" id="Fill-93" fill="#E63744"></path>
            <path d="M28.4051973,61.8118327 C32.5516297,61.79896 33.4804135,52.5584873 33.6789811,49.17296 C33.3245486,49.1193236 32.9786568,49.0742691 32.6455757,49.0356509 C32.6455757,49.0356509 32.4128459,60.3679418 28.3902514,60.3765236 C24.3633865,60.3893964 24.0516568,49.0335055 24.0516568,49.0335055 C23.7271162,49.0742691 23.3854946,49.1193236 23.0374676,49.1751055 C23.2573865,52.5649236 24.2523595,61.8204145 28.4051973,61.8118327" id="Fill-94" fill="#343434"></path>
            <path d="M26.5098378,50.3113382 L30.2740811,50.3113382 C31.3480541,50.3113382 32.2191892,47.9921018 32.2191892,46.9301018 L24.5647297,46.9301018 C24.5647297,47.9921018 25.4358649,50.3113382 26.5098378,50.3113382" id="Fill-95" fill="#FDDFBB"></path>
            <path d="M25.4755784,49.5969018 L32.1927135,47.3420291 L32.2033892,47.3291564 C30.9372541,47.5458473 29.6369568,47.6617018 28.3110378,47.6617018 C27.0406324,47.6617018 25.7937135,47.5544291 24.5809568,47.3570473 C24.6535514,48.0199927 25.0421459,48.9361018 25.4755784,49.5969018" id="Fill-96" fill="#EEAC6C"></path>
            <path d="M5.54003514,28.0082655 C5.36922432,26.8754655 5.28168378,25.7104836 5.28168378,24.5283382 C5.28168378,11.7435745 15.5965216,1.37888364 28.321927,1.37888364 C41.0430622,1.37888364 51.3579,11.7435745 51.3579,24.5283382 C51.3579,25.6547018 51.2767649,26.7660473 51.1209,27.8516473 C52.4510892,28.5832473 53.3499811,29.9627745 53.3499811,31.54612 C53.3499811,33.8932473 51.3771162,35.7984109 48.9473324,35.7984109 C48.7850622,35.7984109 48.6227919,35.7898291 48.4626568,35.77052 C44.5276027,42.87412 36.9820351,47.6799382 28.321927,47.6799382 C19.6639541,47.6799382 12.1247919,42.8827018 8.1876027,35.7919745 C8.11714324,35.7962655 8.05095405,35.7984109 7.98049459,35.7984109 C5.55284595,35.7984109 3.58211622,33.8932473 3.58211622,31.54612 C3.58211622,30.0700473 4.35717027,28.7699018 5.54003514,28.0082655" id="Fill-97" fill="#FDDFBB"></path>
            <g id="Page-1" transform="translate(16.000000, 21.000000)">
                <path d="M8.31106854,1.65026755 C8.31106854,1.65026755 7.80801591,3.45328977 6.22875275,3.09640088 C5.45712117,2.92235643 5.3211738,1.89471199 2.8433317,2.35573421 C2.06412117,2.53613421 0.42612117,3.51195643 0.110647486,4.16364532 C-0.205299883,4.8158231 0.0234895909,1.77248977 2.56764749,0.641689768 C4.4031738,-0.0329768984 5.02512117,0.000267546019 6.54470012,0.000267546019 C8.06427906,0.000267546019 8.53227906,0.907156435 8.31106854,1.65026755" id="Fill-1" fill="#F6B90C"></path>
                <path d="M18.05184,1.65026755 C18.05184,1.65026755 18.5548926,3.45328977 20.1341558,3.09640088 C20.9057873,2.92235643 21.0417347,1.89471199 23.5195768,2.35573421 C24.2987873,2.53613421 25.9367873,3.51195643 26.252261,4.16364532 C26.5682084,4.8158231 26.3394189,1.77248977 23.795261,0.641689768 C21.9597347,-0.0329768984 21.3377873,0.000267546019 19.8182084,0.000267546019 C18.2986294,0.000267546019 17.8306294,0.907156435 18.05184,1.65026755" id="Fill-3" fill="#F6B90C"></path>
                <path d="M6,9 C6,10.6568785 5.10453816,12 3.99983098,12 C2.89512381,12 2,10.6568785 2,9 C2,7.34312148 2.89512381,6 3.99983098,6 C5.10453816,6 6,7.34312148 6,9" id="Fill-5" fill="#6172BB"></path>
                <path d="M24,9 C24,10.6568785 23.1048762,12 22.000169,12 C20.8951238,12 20,10.6568785 20,9 C20,7.34312148 20.8951238,6 22.000169,6 C23.1048762,6 24,7.34312148 24,9" id="Fill-7" fill="#6172BB"></path>
                <path d="M13.0197368,12.0692 C13.8586316,11.9552889 15.9802632,13.8262667 15.9802632,13.8262667 C15.9802632,13.8262667 16.0825789,13.4116889 15.6396842,12.5884 C15.1626842,11.7025333 12.9903684,11 12.9903684,11 C12.9903684,11 11.3026316,11.4478222 10.5030526,12.6040444 C10.207,12.8939556 10,13.9025333 10,13.9025333 C10,13.9025333 11.8947368,12.2217333 13.0197368,12.0692 Z" id="Fill-9" fill="#EEAC6C"></path>
                <g id="Group-13" transform="translate(6.000000, 15.000000)">
                    <mask id="mask-2" fill="white">
                        <use xlink:href="#path-1"></use>
                    </mask>
                    <g id="Clip-12"></g>
                    <path d="M0.199373684,0.696031111 C0.199373684,0.696031111 7.09763684,3.90412 13.3734789,0.299053333 C13.3734789,0.299053333 11.9822684,5.76825333 7.42305789,5.86016444 C3.30768947,5.98238667 2.43942632,4.36807556 1.94632105,3.90412 C1.45274211,3.44114222 0.524794737,2.13238667 0.199373684,0.696031111" id="Fill-11" fill="#EEAC6C" mask="url(#mask-2)"></path>
                </g>
            </g>
            <path d="M52.171173,21.7394618 C52.1583622,20.5337164 52.0686865,19.0705164 51.8978757,17.50648 C48.8211459,7.37564364 39.4393622,-0.000429090909 28.3473351,-0.000429090909 C18.6879838,-0.000429090909 10.3267946,5.58848 6.29565946,13.7240436 C5.17898378,16.9207709 4.49574054,20.0681527 4.44022703,21.4862982 C4.24165946,26.4122618 5.66152432,28.0428073 5.66152432,28.0428073 C5.66152432,28.0428073 9.79301081,22.3015709 14.6782,18.85168 C18.517173,16.1419709 21.9355243,21.37688 26.4983081,16.89288 C26.8997135,16.4938255 28.4284703,14.9448073 28.4284703,14.9448073 C28.4284703,14.9448073 29.6796595,16.3565164 30.352227,16.89288 C34.4111189,20.1089164 36.672227,16.4552073 41.2072541,18.9353527 C44.9223892,20.9670982 51.0075243,28.2080073 51.0075243,28.2080073 C51.0075243,28.2080073 52.2096054,24.44488 52.171173,21.7394618" id="Fill-106" fill="#F6B90C"></path>
            <path d="M77.3382243,26.4682582 C77.3382243,34.4407673 70.9071973,40.9050218 62.9709,40.9050218 C55.0346027,40.9050218 48.6014405,34.4407673 48.6014405,26.4682582 C48.6014405,18.4936036 55.0346027,12.0314945 62.9709,12.0314945 C70.9071973,12.0314945 77.3382243,18.4936036 77.3382243,26.4682582" id="Fill-107" fill="#F08314"></path>
            <path d="M64.1394595,38.5596109 C55.8444595,38.5596109 49.1209189,31.80572 49.1209189,23.4706291 C49.1209189,23.1423745 49.1337297,22.8184109 49.1529459,22.4965927 C48.7942432,23.75812 48.6020811,25.0904473 48.6020811,26.4678291 C48.6020811,34.4403382 55.0331081,40.9067382 62.9715405,40.9067382 C68.5762703,40.9067382 73.4315676,37.68212 75.7972973,32.9771382 C73.042973,36.3819745 68.8431622,38.5596109 64.1394595,38.5596109" id="Fill-108" fill="#C86A14"></path>
            <path d="M63.4222676,12.0368582 C62.3290784,13.1246036 61.6565108,14.6285673 61.6565108,16.29344 C61.6565108,19.6060218 64.3275649,22.2899855 67.6242135,22.2899855 C70.775673,22.2899855 73.3549162,19.8355855 73.5748351,16.7246764 C71.0425649,13.9441673 67.4384568,12.16344 63.4222676,12.0368582" id="Fill-109" fill="#F2933D"></path>
            <path d="M75.2551865,18.9739709 C73.4574027,19.1005527 71.3863216,19.3022255 69.1721865,19.6283345 C69.1721865,18.0106618 69.7017,16.1162255 70.8012946,14.3612436 C70.760727,14.3333527 70.7180243,14.3054618 70.6774568,14.2797164 C69.6184297,15.9789164 69.0141865,17.8926618 69.0205919,19.6497891 C68.2007,19.77208 67.3615919,19.9115345 66.5118081,20.0681527 C66.2235649,20.1196436 65.9374568,20.1775709 65.6534838,20.2333527 C65.4655919,18.9675345 65.1987,17.7596436 64.8570784,16.6053891 C64.3745378,14.9662618 63.7361324,13.4386982 62.9504027,12.03128 C62.8842135,12.03128 62.8201595,12.03128 62.7539703,12.0334255 C64.2101324,14.6315709 65.0556459,17.4485527 65.4848081,20.2655345 C63.3902405,20.6860436 61.4002946,21.1902255 59.5213757,21.7737891 C58.7484568,20.3041527 56.7286189,19.4009164 55.1635649,18.9010255 C53.9977811,18.5234255 52.6611865,18.2423709 51.2818892,18.0664436 C51.2519973,18.1136436 51.2178351,18.1629891 51.183673,18.2101891 C52.5458892,18.3775345 53.8995649,18.6564436 55.1144568,19.0447709 C57.3008351,19.7463345 58.767673,20.7053527 59.3740514,21.8188436 C57.3200514,22.46248 55.3984297,23.2026618 53.6305378,24.0308073 C51.7964568,24.89328 50.1225108,25.8565891 48.6108351,26.9142982 C48.6108351,26.9786618 48.6129703,27.0451709 48.6151054,27.11168 C51.9309703,24.7817164 55.7400514,23.1297164 59.4466459,21.9647345 C60.505673,24.2045891 58.4324568,26.75768 56.0389703,29.70768 C54.6105649,31.4690982 52.9899973,33.4643709 51.8733216,35.6269891 C51.8711865,35.6291345 51.8711865,35.63128 51.8711865,35.63128 C51.9010784,35.6720436 51.9373757,35.7149527 51.9715378,35.7535709 C53.0775378,33.6038255 54.6682135,31.64288 56.1585378,29.8063709 C58.5797811,26.8220436 60.6722135,24.2410618 59.5961054,21.9175345 C61.6330243,21.2846255 63.6379162,20.7976073 65.5082946,20.4178618 C66.0079162,23.8055345 65.9139703,27.1803345 65.5723486,30.1603709 C65.1047541,34.2603345 64.1354027,38.0492073 63.2429162,40.9026618 C63.2962946,40.9026618 63.3518081,40.8983709 63.4051865,40.8983709 C64.297673,38.0406255 65.2584838,34.2667709 65.7260784,30.1818255 C66.1296189,26.6504073 66.1125378,23.3700073 65.6791054,20.38568 C65.9673486,20.3277527 66.2534568,20.2719709 66.5352946,20.22048 C67.3808081,20.0638618 68.2092405,19.9265527 69.022727,19.8064073 C69.0846459,22.0119345 70.5450784,23.2112436 72.2339703,24.5972073 C73.9677,26.0217891 75.8679703,27.5815345 76.7604568,30.5379709 C76.7839432,30.4542982 76.8074297,30.3706255 76.8287811,30.2848073 C76.5875108,29.5381891 76.2715108,28.8409164 75.8722405,28.1951345 C74.8729973,26.5645891 73.5214568,25.4553891 72.3321865,24.4770618 C70.6667811,23.1125527 69.2277,21.9304073 69.1721865,19.7828073 C71.4247541,19.4545527 73.5214568,19.2485891 75.3448622,19.1241527 C75.3128351,19.0726618 75.2850784,19.0233164 75.2551865,18.9739709" id="Fill-110" fill="#000001"></path>
        </g>
    </g>
</svg>