<?xml version="1.0" encoding="UTF-8"?>
<svg width="120px" height="120px" viewBox="0 0 120 120" version="1.1" xmlns="http://www.w3.org/2000/svg" xmlns:xlink="http://www.w3.org/1999/xlink">
    <!-- Generator: Sketch 48.2 (47327) - http://www.bohemiancoding.com/sketch -->
    <title>Car</title>
    <desc>Created with Sketch.</desc>
    <defs>
        <polygon id="path-1" points="0.098344339 0.0678 22.1331409 0.0678 22.1331409 22.0954759 0.098344339 22.0954759"></polygon>
        <polygon id="path-3" points="6.40918084e-05 0.091603435 120 0.091603435 120 55.2539479 6.40918084e-05 55.2539479"></polygon>
        <polygon id="path-5" points="0.0358027279 0.107850728 21.1679573 0.107850728 21.1679573 21.24 0.0358027279 21.24"></polygon>
    </defs>
    <g id="交通" stroke="none" stroke-width="1" fill="none" fill-rule="evenodd">
        <g id="Car">
            <g id="Page-1" transform="translate(0.000000, 1.680000)">
                <path d="M60.28998,68.93832 C60.26454,75.65364 65.68782,81.1182 72.40326,81.14364 C79.1187,81.16896 84.58314,75.74568 84.60858,69.03036 C84.63402,62.31492 79.21062,56.85048 72.4953,56.82504 C65.77986,56.7996 60.31542,62.22288 60.28998,68.93832" id="Fill-1" fill="#3E3A39"></path>
                <path d="M22.89996,31.069524 C21.03444,31.693524 19.02876,31.804404 17.05752,31.371084 C14.18328,30.739524 11.72736,29.026164 10.14192,26.547324 C8.556,24.068124 8.03052,21.120204 8.6622,18.245964 C9.29412,15.371724 11.00736,12.915684 13.48632,11.330244 C15.96528,9.744084 18.91308,9.219084 21.78768,9.850884 C24.6618,10.482444 27.11784,12.195804 28.70328,14.674644 C31.97664,19.792404 30.47616,26.618844 25.35864,29.891844 C24.57996,30.390084 23.75424,30.783804 22.89996,31.069524" id="Fill-3" fill="#3E3A39"></path>
                <g id="Group-7" transform="translate(47.640000, 0.052200)">
                    <mask id="mask-2" fill="white">
                        <use xlink:href="#path-1"></use>
                    </mask>
                    <g id="Clip-6"></g>
                    <path d="M14.615448,21.530292 C9.939288,23.094372 4.612728,21.355332 1.838568,17.017572 C0.252768,14.538732 -0.272712,11.590692 0.358968,8.716572 C0.990888,5.842332 2.703888,3.386412 5.182968,1.800492 C10.298928,-1.472148 17.126928,0.028092 20.400048,5.145252 C23.673288,10.262772 22.172808,17.088852 17.055648,20.362332 C16.276128,20.860932 15.455808,21.249252 14.615448,21.530292" id="Fill-5" fill="#3E3A39" mask="url(#mask-2)"></path>
                </g>
                <path d="M55.245408,76.641048 C53.937648,77.078448 52.597968,77.460528 51.230928,77.784648 C41.670408,80.051928 32.275008,79.020528 24.775968,74.879808 C16.900128,70.531128 11.545488,63.206448 9.290208,53.697168 C4.658808,34.169208 16.779648,14.509848 36.306648,9.883008 C55.834728,5.252088 75.489528,17.371608 80.120688,36.899688 C82.326528,46.201248 80.368488,55.522248 74.607408,63.146208 C69.970608,69.282048 63.193728,73.982208 55.245408,76.641048" id="Fill-8" fill="#3E3A39"></path>
                <path d="M34.833624,15.85584 C19.778784,20.89116 10.759104,36.72492 14.491464,52.46364 C16.389384,60.46692 20.839224,66.6 27.359784,70.20024 C33.693024,73.69704 41.732544,74.54352 49.997424,72.58344 C58.464624,70.57476 65.690784,66.07908 70.342584,59.92332 C75.194904,53.50236 76.777464,45.96744 74.919384,38.13324 C70.968504,21.47328 54.200064,11.13336 37.540104,15.08424 C36.618984,15.30276 35.715024,15.561 34.833624,15.85584" id="Fill-10" fill="#FFFFFF"></path>
                <path d="M37.073364,41.416188 C38.890164,43.651188 38.551044,46.935828 36.316044,48.752628 C34.081044,50.569308 30.796404,50.230308 28.979724,47.995308 C27.162924,45.760308 27.501924,42.475668 29.737044,40.658868 C31.972044,38.842068 35.256564,39.181188 37.073364,41.416188" id="Fill-12" fill="#3E3A39"></path>
                <polyline id="Stroke-14" stroke="#3E3A39" stroke-width="2.87796" stroke-linecap="round" stroke-linejoin="round" points="53.354448 43.407264 45.634248 42.024624 51.635688 36.975144"></polyline>
                <path d="M44.155644,46.100988 C45.245724,47.441988 45.042324,49.412748 43.701324,50.502828 C42.360204,51.592908 40.389444,51.389388 39.299484,50.048508 C38.209404,48.707388 38.412804,46.736628 39.753804,45.646548 C41.094804,44.556588 43.065564,44.759988 44.155644,46.100988" id="Fill-16" fill="#3E3A39"></path>
                <path d="M47.131104,55.224744 C46.628064,55.392984 46.059264,55.333344 45.589464,55.026024 L43.007424,53.336544 L41.446584,55.721784 C40.925304,56.517504 39.872904,56.764344 39.054024,56.283144 L35.334624,54.101064 C34.485864,53.603064 34.201344,52.511544 34.699344,51.662664 C35.197224,50.814624 36.289464,50.529744 37.137744,51.027384 L39.393864,52.350864 L41.001024,49.894104 C41.540904,49.070784 42.645144,48.839664 43.467624,49.378824 L46.280064,51.219264 L48.250344,49.089264 C48.919824,48.367944 50.046384,48.323424 50.768544,48.991344 C51.490824,49.659864 51.534504,50.787024 50.866464,51.509544 L47.873064,54.745104 C47.663544,54.971304 47.407344,55.132344 47.131104,55.224744" id="Fill-18" fill="#3E3A39"></path>
                <g id="Group-22" transform="translate(0.000000, 50.932200)">
                    <mask id="mask-4" fill="white">
                        <use xlink:href="#path-3"></use>
                    </mask>
                    <g id="Clip-21"></g>
                    <path d="M104.21082,23.555832 L98.97762,23.536032 L90.7329,2.771832 C89.86746,0.592272 87.39906,-0.472968 85.21962,0.392472 C83.04018,1.257792 81.97494,3.726072 82.84026,5.905632 L80.60262,23.466432 L15.90906,23.221752 C7.1559,23.188632 0.0333,30.257592 0.00018,39.010752 C-0.03294,47.763912 7.03602,54.886632 15.78918,54.919752 L104.09094,55.253832 C112.8441,55.286952 119.96682,48.217992 119.99994,39.464832 C120.03294,30.711552 112.96398,23.588952 104.21082,23.555832" id="Fill-20" fill="#DA4241" mask="url(#mask-4)"></path>
                </g>
                <path d="M81.687288,34.16808 C79.119888,34.64028 76.913208,35.97948 75.380808,37.89684 C75.247248,37.91772 75.114048,37.94052 74.980968,37.96488 C73.835448,38.1756 72.709488,38.51784 71.634408,38.98212 C63.779688,42.37452 60.149448,51.52464 63.541728,59.37924 C66.337968,65.85384 74.087088,69.699 81.566928,68.32344 C82.947768,68.06952 84.263688,67.63716 85.477968,67.03848 C88.828128,65.38692 92.951208,62.10732 93.568848,55.86264 C93.904968,52.46436 93.029328,49.2744 92.414688,47.2182 C93.400848,45.58644 94.398048,43.24296 93.558648,40.47624 C92.407968,36.68352 88.649688,35.19252 87.414648,34.70256 C85.626048,33.99276 83.645448,33.80796 81.687288,34.16808" id="Fill-23" fill="#3E3A39"></path>
                <path d="M38.430648,105.937632 C38.408568,111.773112 33.660048,116.485752 27.824688,116.463672 C21.989208,116.441592 17.276568,111.693072 17.298648,105.857712 C17.320728,100.022232 22.069128,95.309592 27.904608,95.331672 C33.740088,95.353752 38.452728,100.102272 38.430648,105.937632" id="Fill-25" fill="#3E3A39"></path>
                <g id="Group-29" transform="translate(77.640000, 95.452200)">
                    <mask id="mask-6" fill="white">
                        <use xlink:href="#path-5"></use>
                    </mask>
                    <g id="Clip-28"></g>
                    <path d="M21.16788,10.713888 C21.1458,16.549368 16.39728,21.262008 10.56192,21.239928 C4.72644,21.217848 0.0138,16.469328 0.03588,10.633848 C0.05796,4.798488 4.80636,0.085848 10.64184,0.107928 C16.47732,0.130008 21.18996,4.878408 21.16788,10.713888" id="Fill-27" fill="#3E3A39" mask="url(#mask-6)"></path>
                </g>
                <path d="M10.052328,70.789416 C10.052328,70.789416 21.229608,69.464016 29.204208,74.623416" id="Stroke-30" stroke="#3E3A39" stroke-width="16.77156" stroke-linecap="round" stroke-linejoin="round"></path>
                <path d="M61.921116,81.103968 C61.917636,82.030248 60.037596,82.774008 57.721956,82.765248 C55.406196,82.756488 53.531916,81.998568 53.535396,81.072168 C53.538876,80.146008 55.418916,79.402128 57.734556,79.411008 C60.050316,79.419648 61.924596,80.177688 61.921116,81.103968" id="Fill-32" fill="#FFFFFF"></path>
            </g>
        </g>
    </g>
</svg>