<?xml version="1.0" encoding="UTF-8"?>
<svg width="120px" height="120px" viewBox="0 0 120 120" version="1.1" xmlns="http://www.w3.org/2000/svg" xmlns:xlink="http://www.w3.org/1999/xlink">
    <!-- Generator: Sketch 48.2 (47327) - http://www.bohemiancoding.com/sketch -->
    <title>Drum3</title>
    <desc>Created with Sketch.</desc>
    <defs>
        <polygon id="path-1" points="0.732745342 0.56629125 28.1315031 0.56629125 28.1315031 23.05625 0.732745342 23.05625"></polygon>
    </defs>
    <g id="ALL" stroke="none" stroke-width="1" fill="none" fill-rule="evenodd">
        <g id="Drum3">
            <g id="Page-1" transform="translate(0.000000, 1.000000)">
                <path d="M73.8018634,11.244905 C73.8018634,17.4552175 67.6684472,22.4896613 60.1024845,22.4896613 C52.5365217,22.4896613 46.4023602,17.4552175 46.4023602,11.244905 C46.4023602,5.0345925 52.5365217,0.00014875 60.1024845,0.00014875 C67.6684472,0.00014875 73.8018634,5.0345925 73.8018634,11.244905" id="Fill-1" fill="#A94201"></path>
                <g id="Group-5" transform="translate(44.720497, 95.943750)">
                    <mask id="mask-2" fill="white">
                        <use xlink:href="#path-1"></use>
                    </mask>
                    <g id="Clip-4"></g>
                    <path d="M28.1315031,11.8110475 C28.1315031,18.0221037 21.998087,23.0565475 14.4328696,23.0565475 C6.86690683,23.0565475 0.732745342,18.0221037 0.732745342,11.8110475 C0.732745342,5.600735 6.86690683,0.56629125 14.4328696,0.56629125 C21.998087,0.56629125 28.1315031,5.600735 28.1315031,11.8110475" id="Fill-3" fill="#A94201" mask="url(#mask-2)"></path>
                </g>
                <path d="M103.84554,35.3793694 C99.4435528,39.7712131 91.539205,39.0036631 86.1891429,33.6642819 C80.8405714,28.3263881 80.0706335,20.4389194 84.4711304,16.0470756 C88.8716273,11.6559756 96.7759752,12.4235256 102.126037,17.7621631 C107.476099,23.1008006 108.244547,30.9882694 103.84554,35.3793694" id="Fill-6" fill="#A94201"></path>
                <path d="M34.7842733,102.952776 C30.3837764,107.344619 22.4786832,106.577069 17.1293665,101.238432 C11.7793043,95.9005381 11.0101118,88.0123256 15.4106087,83.6197381 C19.8111056,79.2293819 27.7154534,79.9976756 33.0647702,85.3355694 C38.4155776,90.6742069 39.1855155,98.5616756 34.7842733,102.952776" id="Fill-8" fill="#A94201"></path>
                <path d="M107.986435,73.64434 C101.762832,73.64434 96.7168696,67.5232775 96.7168696,59.9734712 C96.7168696,52.4244087 101.762832,46.3033462 107.987925,46.3033462 C114.209292,46.3033462 119.255255,52.4244087 119.255255,59.9734712 C119.255255,67.5232775 114.209292,73.6435963 107.986435,73.64434" id="Fill-10" fill="#A94201"></path>
                <path d="M11.2696398,72.6968769 C5.04529193,72.6968769 7.45341615e-05,66.5758144 7.45341615e-05,59.0267519 C7.45341615e-05,51.4769456 5.04529193,45.3566269 11.2696398,45.3566269 C17.4932422,45.3558831 22.5377143,51.4769456 22.5377143,59.0267519 C22.5377143,66.5758144 17.4932422,72.6968769 11.2696398,72.6968769" id="Fill-12" fill="#A94201"></path>
                <path d="M83.799205,103.623117 C79.4001988,99.2327612 80.168646,91.343805 85.5194534,86.0059112 C90.8680248,80.6672737 98.7738634,79.9004675 103.17436,84.2908237 C107.574857,88.6826675 106.804919,96.5701362 101.454112,101.90803 C96.104795,107.247411 88.2011925,108.014961 83.799205,103.623117" id="Fill-14" fill="#A94201"></path>
                <path d="M16.0823106,34.7103662 C11.6810683,30.3192663 12.4510062,22.4310538 17.800323,17.09316 C23.1496398,11.7545225 31.0547329,10.9869725 35.4552298,15.3780725 C39.8572174,19.7691725 39.0865342,27.6566413 33.7372174,32.9952788 C28.3871553,38.3339162 20.4828075,39.10221 16.0823106,34.7103662" id="Fill-16" fill="#A94201"></path>
                <path d="M110.70723,59.4996281 C110.70723,87.6505656 87.8371677,110.470303 59.6267329,110.470303 C31.4170435,110.470303 8.54847205,87.6505656 8.54847205,59.4996281 C8.54847205,31.3501781 31.4170435,8.52969688 59.6267329,8.52969688 C87.8371677,8.52969688 110.70723,31.3501781 110.70723,59.4996281" id="Fill-18" fill="#FED19C"></path>
                <path d="M105.455627,59.4996281 C105.455627,84.7558906 84.937118,105.229841 59.6268075,105.229841 C34.3179876,105.229841 13.7994783,84.7558906 13.7994783,59.4996281 C13.7994783,34.2441094 34.3179876,13.7709031 59.6268075,13.7709031 C84.937118,13.7709031 105.455627,34.2441094 105.455627,59.4996281" id="Fill-20" fill="#FEE4BB"></path>
                <path d="M52.9585342,11.52634 C53.150087,12.427765 52.5724472,13.3120838 51.6698385,13.5032275 C50.7687205,13.6958588 49.879528,13.1201963 49.6879752,12.2202588 C49.495677,11.321065 50.0740621,10.4330275 50.9751801,10.24114 C51.8792795,10.0514838 52.766236,10.6264025 52.9585342,11.52634" id="Fill-22" fill="#FFEFD3"></path>
                <path d="M43.1082484,13.9576587 C43.4839006,14.8003275 43.1037764,15.7850525 42.2600497,16.1591587 C41.4178137,16.5340087 40.4294907,16.1561837 40.0538385,15.3150025 C39.679677,14.4753087 40.0590559,13.4876087 40.9005466,13.1127587 C41.745764,12.7393962 42.734087,13.117965 43.1082484,13.9576587" id="Fill-24" fill="#FFEFD3"></path>
                <path d="M33.9799752,18.3802194 C34.5233292,19.1254569 34.3563727,20.1689381 33.608795,20.7089006 C32.8641988,21.2503506 31.8184845,21.0859819 31.2758758,20.3414881 C30.7340124,19.5977381 30.8994783,18.5520256 31.6448199,18.0113194 C32.3931429,17.4713569 33.4388571,17.6364694 33.9799752,18.3802194" id="Fill-26" fill="#FFEFD3"></path>
                <path d="M25.9726211,24.5993081 C26.6598261,25.2166206 26.7134907,26.2712581 26.0956025,26.9547644 C25.4799503,27.6390144 24.4215652,27.6955394 23.7365963,27.0789706 C23.0516273,26.4638894 22.9957267,25.4070206 23.6121242,24.7235144 C24.2315031,24.0392644 25.2883975,23.9842269 25.9726211,24.5993081" id="Fill-28" fill="#FFEFD3"></path>
                <path d="M19.4363478,32.3444231 C20.2368447,32.8055481 20.5088944,33.8259731 20.0467826,34.6225294 C19.5876522,35.4198294 18.5642981,35.6942731 17.7660373,35.2331481 C16.9670311,34.7742544 16.6927453,33.7523419 17.1533665,32.9557856 C17.6169689,32.1577419 18.6388323,31.8847856 19.4363478,32.3444231" id="Fill-30" fill="#FFEFD3"></path>
                <path d="M14.6563975,41.2767119 C15.5359006,41.5608244 16.0144099,42.5024119 15.7281988,43.3778056 C15.4457143,44.2531994 14.5013665,44.7336619 13.6240994,44.4488056 C12.7475776,44.1646931 12.266087,43.2223619 12.5508075,42.3477119 C12.837764,41.4708306 13.7806211,40.9918556 14.6563975,41.2767119" id="Fill-32" fill="#FFEFD3"></path>
                <path d="M11.8424348,51.0046644 C12.761441,51.1006081 13.4255404,51.9217081 13.328646,52.8380081 C13.2339876,53.7528206 12.4111304,54.4184769 11.4936149,54.3217894 C10.5775901,54.2265894 9.90976398,53.4040019 10.0051677,52.4899331 C10.1035528,51.5728894 10.9264099,50.9079769 11.8424348,51.0046644" id="Fill-34" fill="#FFEFD3"></path>
                <path d="M11.1167702,61.1044175 C12.0350311,61.00773 12.8563975,61.6733863 12.9525466,62.5889425 C13.0509317,63.503755 12.3838509,64.324855 11.4670807,64.4207987 C10.5495652,64.51823 9.72670807,63.8525737 9.62906832,62.9370175 C9.53440994,62.0207175 10.2007453,61.1996175 11.1167702,61.1044175" id="Fill-36" fill="#FFEFD3"></path>
                <path d="M12.5113789,71.1341837 C13.3901366,70.8485837 14.3315031,71.3290462 14.6162236,72.20444 C14.9024348,73.0798338 14.4216894,74.0206775 13.5444224,74.3062775 C12.6679006,74.5896463 11.7235528,74.1106713 11.4388323,73.2352775 C11.1541118,72.3583962 11.6341118,71.4168088 12.5113789,71.1341837" id="Fill-38" fill="#FFEFD3"></path>
                <path d="M15.9643975,80.6544069 C16.7641491,80.1932819 17.7860124,80.4677256 18.2473789,81.2657694 C18.7094907,82.0623256 18.4344596,83.0820069 17.6361988,83.5423881 C16.8379379,84.0027694 15.8145839,83.7283256 15.3532174,82.9332569 C14.8925963,82.1344694 15.166882,81.1133006 15.9643975,80.6544069" id="Fill-40" fill="#FFEFD3"></path>
                <path d="M21.3266832,89.2522313 C22.0123975,88.6334313 23.0685466,88.6899563 23.6856894,89.3756938 C24.304323,90.0577125 24.2491677,91.1130938 23.5634534,91.7296625 C22.8777391,92.3447437 21.8200994,92.2889625 21.2037019,91.6069437 C20.5858137,90.9212062 20.6409689,89.865825 21.3266832,89.2522313" id="Fill-42" fill="#FFEFD3"></path>
                <path d="M28.3622609,96.5480469 C28.9048696,95.8013219 29.9498385,95.6369531 30.6966708,96.1791469 C31.4435031,96.7191094 31.6082236,97.7618469 31.0663602,98.5070844 C30.5244969,99.2515781 29.4787826,99.4159469 28.7326957,98.8767281 C27.985118,98.3345344 27.8196522,97.2895656 28.3622609,96.5480469" id="Fill-44" fill="#FFEFD3"></path>
                <path d="M36.7641242,102.225314 C37.1397764,101.381901 38.1280994,101.004076 38.9703354,101.380414 C39.8140621,101.753033 40.193441,102.739245 39.8177888,103.58117 C39.4436273,104.420864 38.454559,104.799433 37.612323,104.425326 C36.7685963,104.050476 36.3892174,103.064264 36.7641242,102.225314" id="Fill-46" fill="#FFEFD3"></path>
                <path d="M46.1660124,106.034132 C46.3568199,105.132707 47.2452671,104.558532 48.1478758,104.750419 C49.0504845,104.940819 49.6273789,105.825882 49.4350807,106.725819 C49.243528,107.627988 48.3558261,108.202163 47.4547081,108.011763 C46.5506087,107.818388 45.9737143,106.933326 46.1660124,106.034132" id="Fill-48" fill="#FFEFD3"></path>
                <path d="M56.1553789,107.809612 C56.1546335,106.888849 56.9044472,106.142124 57.8271801,106.142868 C58.7491677,106.140637 59.4967453,106.888849 59.4967453,107.809612 C59.498236,108.729631 58.7484224,109.477099 57.8271801,109.477099 C56.9044472,109.477099 56.1546335,108.728887 56.1553789,107.809612" id="Fill-50" fill="#FFEFD3"></path>
                <path d="M66.2975404,107.474776 C66.1044969,106.573351 66.682882,105.688288 67.5847453,105.497888 C68.487354,105.304513 69.3750559,105.879432 69.567354,106.780857 C69.7589068,107.680051 69.1820124,108.566601 68.2801491,108.757744 C67.3760497,108.949632 66.4883478,108.373226 66.2975404,107.474776" id="Fill-52" fill="#FFEFD3"></path>
                <path d="M76.1478261,105.042341 C75.7706832,104.20116 76.1515528,103.215691 76.9945342,102.840841 C77.8367702,102.465991 78.8250932,102.84456 79.2014907,103.685741 C79.5756522,104.526179 79.1962733,105.512391 78.3547826,105.885754 C77.5103106,106.261348 76.5212422,105.882779 76.1478261,105.042341" id="Fill-54" fill="#FFEFD3"></path>
                <path d="M85.275354,100.619483 C84.732,99.8749894 84.8982112,98.8322519 85.6450435,98.2908019 C86.3918758,97.7493519 87.435354,97.9129769 87.9801988,98.6589581 C88.5220621,99.4034519 88.3565963,100.446933 87.609764,100.988383 C86.8621863,101.529833 85.8179627,101.363977 85.275354,100.619483" id="Fill-56" fill="#FFEFD3"></path>
                <path d="M93.2819627,94.40032 C92.5955031,93.784495 92.5410932,92.7298575 93.1589814,92.0448637 C93.7753789,91.3606137 94.8330186,91.3048325 95.5179876,91.9206575 C96.2044472,92.5364825 96.2596025,93.5918638 95.643205,94.2761138 C95.0253168,94.95962 93.9669317,95.0154012 93.2819627,94.40032" id="Fill-58" fill="#FFEFD3"></path>
                <path d="M99.8189814,86.6545356 C99.0207205,86.1948981 98.7464348,85.1752169 99.2070559,84.3779169 C99.6684224,83.5798731 100.690286,83.3061731 101.489292,83.7672981 C102.289043,84.2261919 102.561839,85.2458731 102.101963,86.0446606 C101.639851,86.8412169 100.617242,87.1149169 99.8189814,86.6545356" id="Fill-60" fill="#FFEFD3"></path>
                <path d="M104.598186,77.7241063 C103.720919,77.43925 103.240174,76.4984063 103.52564,75.6222687 C103.809615,74.7453875 104.753963,74.2671562 105.63123,74.5512687 C106.508497,74.8353812 106.988497,75.7769687 106.703776,76.6531062 C106.418311,77.5285 105.474708,78.0067313 104.598186,77.7241063" id="Fill-62" fill="#FFEFD3"></path>
                <path d="M107.412149,67.9950381 C106.494634,67.8990944 105.829789,67.0794819 105.925938,66.1631819 C106.021342,65.2468819 106.843453,64.5819694 107.761714,64.6779131 C108.67923,64.7738569 109.345565,65.5957006 109.249416,66.5105131 C109.152522,67.4268131 108.328174,68.0909819 107.412149,67.9950381" id="Fill-64" fill="#FFEFD3"></path>
                <path d="M108.138559,57.8959544 C107.220298,57.9918981 106.398186,57.3277294 106.302037,56.4114294 C106.205143,55.4958731 106.870733,54.6740294 107.788994,54.5788294 C108.705764,54.4821419 109.528621,55.1470544 109.626261,56.0626106 C109.720919,56.9789106 109.054584,57.7992669 108.138559,57.8959544" id="Fill-66" fill="#FFEFD3"></path>
                <path d="M106.744696,47.86656 C105.866683,48.1506725 104.924571,47.6716975 104.639106,46.7963037 C104.352894,45.9194225 104.83364,44.9785787 105.710161,44.6944662 C106.587429,44.40961 107.531776,44.8893287 107.815752,45.7647225 C108.101217,46.64086 107.620472,47.5817037 106.744696,47.86656" id="Fill-68" fill="#FFEFD3"></path>
                <path d="M103.290932,38.3455931 C102.49118,38.8059744 101.470062,38.5322744 101.00795,37.7349744 C100.545839,36.9376744 100.82087,35.9172494 101.61913,35.4576119 C102.418137,34.9964869 103.44,35.2701869 103.901366,36.0674869 C104.361988,36.8647869 104.089193,37.8852119 103.290932,38.3455931" id="Fill-70" fill="#FFEFD3"></path>
                <path d="M97.9293913,29.7489587 C97.241441,30.3647838 96.1867826,30.31049 95.5688944,29.6254963 C94.9510062,28.9412463 95.0054161,27.8866087 95.6918758,27.2707838 C96.3768447,26.6549588 97.4352298,26.7099963 98.0516273,27.3935025 C98.6695155,28.07924 98.6128696,29.1331337 97.9293913,29.7489587" id="Fill-72" fill="#FFEFD3"></path>
                <path d="M90.892323,22.4530687 C90.3497143,23.1975625 89.306236,23.3634187 88.557913,22.8219688 C87.8125714,22.2805187 87.6471056,21.2377813 88.1897143,20.4925437 C88.7308323,19.74805 89.7758012,19.5829375 90.5226335,20.1243875 C91.2694658,20.6650937 91.435677,21.708575 90.892323,22.4530687" id="Fill-74" fill="#FFEFD3"></path>
                <path d="M82.4912795,16.7761737 C82.1141366,17.6166112 81.1280497,17.9959237 80.2850683,17.6210737 C79.4413416,17.2469675 79.0612174,16.260755 79.4368696,15.4195737 C79.8125217,14.5783925 80.8000994,14.2005675 81.6445714,14.5754175 C82.4868075,14.9495238 82.865441,15.9357362 82.4912795,16.7761737" id="Fill-76" fill="#FFEFD3"></path>
                <path d="M73.0893168,12.9666119 C72.897764,13.8665494 72.0100621,14.4422119 71.1067081,14.2510681 C70.2040994,14.0591806 69.6279503,13.1741181 69.8202484,12.2734369 C70.0118012,11.3727556 70.8987578,10.7978369 71.8013665,10.9889806 C72.7039752,11.1808681 73.2816149,12.0659306 73.0893168,12.9666119" id="Fill-78" fill="#FFEFD3"></path>
                <path d="M63.0999503,11.19076 C63.0999503,12.1115225 62.3501366,12.8582475 61.4281491,12.8582475 C60.5061615,12.8582475 59.7578385,12.1115225 59.7578385,11.19076 C59.7578385,10.2699975 60.5061615,9.5232725 61.4281491,9.5232725 C62.3501366,9.5232725 63.0999503,10.2699975 63.0999503,11.19076" id="Fill-80" fill="#FFEFD3"></path>
                <path d="M13.7997019,59.4996281 C13.7997019,84.7558906 34.3174658,105.229841 59.6262857,105.229841 C68.2282733,105.229841 76.2749814,102.863228 83.1529938,98.7488031 L36.0906335,20.2571469 C22.7378385,28.2487406 13.7997019,42.8321906 13.7997019,59.4996281" id="Fill-82" fill-opacity="0.4" fill="#FFFFFF"></path>
            </g>
        </g>
    </g>
</svg>