<?xml version="1.0" encoding="UTF-8"?>
<svg width="120px" height="120px" viewBox="0 0 120 120" version="1.1" xmlns="http://www.w3.org/2000/svg" xmlns:xlink="http://www.w3.org/1999/xlink">
    <!-- Generator: Sketch 51.1 (57501) - http://www.bohemiancoding.com/sketch -->
    <title>Game button8</title>
    <desc>Created with Sketch.</desc>
    <defs>
        <polygon id="path-1" points="0 0 119.9997 0 119.9997 119.9999 0 119.9999"></polygon>
    </defs>
    <g id="Game-button8" stroke="none" stroke-width="1" fill="none" fill-rule="evenodd">
        <g id="Page-1">
            <g id="Group-3">
                <mask id="mask-2" fill="white">
                    <use xlink:href="#path-1"></use>
                </mask>
                <g id="Clip-2"></g>
                <path d="M-0.0003,11.6329 L-0.0003,108.3669 C-0.0003,114.7919 5.2077,119.9999 11.6327,119.9999 L108.3667,119.9999 C114.7907,119.9999 119.9997,114.7919 119.9997,108.3669 L119.9997,11.6329 C119.9997,5.2069 114.7907,-0.0001 108.3667,-0.0001 L11.6327,-0.0001 C5.2077,-0.0001 -0.0003,5.2069 -0.0003,11.6329" id="Fill-1" fill="#FF6187" mask="url(#mask-2)"></path>
            </g>
            <path d="M75.4294,67.461 L52.9984,82.975 C47.2854,86.201 40.2144,82.074 40.2144,75.514 L40.2144,44.487 C40.2144,37.927 47.2854,33.799 52.9984,37.025 L75.4294,52.538 C81.2374,55.817 81.2374,64.183 75.4294,67.461" id="Fill-4" fill="#FFFCEE"></path>
        </g>
    </g>
</svg>