<?xml version="1.0" encoding="UTF-8"?>
<svg width="120px" height="120px" viewBox="0 0 120 120" version="1.1" xmlns="http://www.w3.org/2000/svg" xmlns:xlink="http://www.w3.org/1999/xlink">
    <!-- Generator: Sketch 51.1 (57501) - http://www.bohemiancoding.com/sketch -->
    <title>Forklift13</title>
    <desc>Created with Sketch.</desc>
    <defs></defs>
    <g id="Forklift13" stroke="none" stroke-width="1" fill="none" fill-rule="evenodd">
        <g id="excavators" transform="translate(3.000000, 14.000000)">
            <path d="M96.9998741,57 C96.4880677,57 95.9762612,56.8122152 95.5858927,56.4366455 C94.8047024,55.6855061 94.8047024,54.4683903 95.5858927,53.7172509 L96.9998741,52.3576626 L96.9998741,35.8461036 C96.9998741,33.7249192 98.7949351,32 100.999849,32 L105.345559,32.0008714 C109.566433,32.0019606 113,35.3045338 113,39.3628212 C113,41.3291158 112.20295,43.1779904 110.757703,44.5676418 L98.4138556,56.4366455 C98.0234871,56.8122152 97.5116806,57 96.9998741,57 Z" id="Shape" fill="#FFC84B"></path>
            <rect id="Rectangle-path" fill="#CAC9CD" transform="translate(72.000000, 14.500000) rotate(233.142708) translate(-72.000000, -14.500000) " x="71" y="-5" width="2" height="39"></rect>
            <path d="M52.6433068,62 L45,60.5527989 L50.331838,31.8373753 C50.8577324,29.0054598 52.5891318,26.5500211 55.0670898,25.121944 L85.8735341,7.36637831 C86.9535115,6.74395729 88.3122922,6.92808184 89.191866,7.81601578 L89.191866,7.81601578 C90.4293035,9.06552764 90.2165673,11.1476027 88.75296,12.1158131 L59.5325674,31.4471113 C58.6472678,32.0326185 58.0368075,32.9572439 57.8416892,34.0075099 L52.6433068,62 Z" id="Shape" fill="#FFC84B"></path>
            <rect id="Rectangle-path" fill="#625D6B" x="41" y="71" width="16" height="8"></rect>
            <path d="M30.9997815,57 L4,57 L4,55 C4,53.8955596 4.86361025,53 5.92864945,53 L29.0713505,53 C30.1363897,53 31,53.8955596 31,55 L31,57 L30.9997815,57 Z" id="Shape" fill="#736F7B"></path>
            <path d="M78.1903182,93 L11.8094606,93 C7.49645321,93 4,89.4182385 4,85 L4,85 C4,80.5817615 7.49645321,77 11.8094606,77 L78.1905394,77 C82.5035468,77 86,80.5817615 86,85 L86,85 C86,89.4182385 82.5035468,93 78.1903182,93 Z" id="Shape" fill="#504B5A"></path>
            <rect id="Rectangle-path" fill="#625D6B" x="12" y="81" width="66" height="8"></rect>
            <circle id="Oval" fill="#736F7B" cx="12" cy="85" r="4"></circle>
            <circle id="Oval" fill="#736F7B" cx="78" cy="85" r="4"></circle>
            <path d="M58.8774764,40 L36.8823141,40 C35.8103073,40 34.9410471,40.8692486 34.9410471,41.9412411 L34.9410471,57.4705106 L1.94126702,57.4705106 C0.86926014,57.4705106 0,58.3397592 0,59.4117518 L0,71.0587589 C0,72.1307514 0.86926014,73 1.94126702,73 L34.941267,73 L64.058733,73 C65.1307399,73 66,72.1307514 66,71.0587589 L66,65.7295813 C66,62.8183793 65.7378806,59.9131145 65.2171601,57.0487503 L62.6971193,43.1882709 C62.3615537,41.3418049 60.7536533,40 58.8774764,40 Z" id="Shape" fill="#FFDC5A"></path>
            <path d="M64.058733,73 L1.94126702,73 C0.86926014,73 0,72.1044066 0,70.9999245 L0,67 L66,67 L66,70.9999245 C66,72.1044066 65.1307399,73 64.058733,73 Z" id="Shape" fill="#FFC84B"></path>
            <path d="M65.3298238,56.8332877 L62.8224066,43.1476244 C62.4885219,41.3248813 60.8886759,40 59.0218972,40 L41,40 L41,52.1575554 C41,54.1909073 41.813926,56.1408842 43.2630206,57.5786691 L46.4631502,60.7543023 C47.912026,62.1920873 49.8772635,63 51.9260815,63 L66,63 C65.8949773,60.932777 65.7033108,58.8711992 65.3298238,56.8332877 Z" id="Shape" fill="#736F7B"></path>
            <path d="M46.0001699,42 L44.0000566,42 C43.4476919,42 43,42.4508503 43,43.007112 L43,52.76177 C43,54.3641596 43.6323421,55.9012946 44.7574624,57.0345808 L45.4480317,57.730022 C46.0207872,58.3068184 46.9999999,57.8981782 46.9999999,57.0824951 L46.9999999,43.0068839 C47.0002265,42.4508503 46.5525346,42 46.0001699,42 Z" id="Shape" fill="#625D6B"></path>
            <path d="M63.5932693,57.9230142 L61.1209975,43.642349 C60.9561794,42.6912411 60.1679001,42 59.2473779,42 L51.9522345,42 C51.4262835,42 51,42.4476868 51,43.0000453 L51,60.9999547 C51,61.5523132 51.4262835,62 51.9522345,62 L63.0442352,62 C63.6066446,62 64.053854,61.4820789 63.9947439,60.8946033 C63.8888202,59.8435815 63.7565774,58.8661924 63.5932693,57.9230142 Z" id="Shape" fill="#625D6B"></path>
            <path d="M105.594468,31.5851762 L104.399264,31.5849547 C104.396414,31.5780891 104.394223,31.5710021 104.391373,31.5641365 L91.3894446,2.00427461 C90.5488783,0.0936503688 88.2088818,-0.592243138 86.4869811,0.567596802 C85.0614156,1.52767054 84.5866655,3.42279186 85.3884365,4.95248719 L99.5811856,32.0405191 C98.3574876,32.6978429 97.5210857,33.998538 97.5210857,35.4943484 L97.5210857,52.280468 L96.1531654,53.6626641 C95.3974228,54.4262937 95.3974228,55.6636482 96.1531654,56.4272778 C96.5312558,56.8093141 97.0259516,57 97.5210857,57 C98.0162198,57 98.5111348,56.8090926 98.8890061,56.4272778 L110.830747,44.3609117 C112.228915,42.9481527 113,41.0683128 113,39.0695434 C112.999342,34.9435517 109.677626,31.5860621 105.594468,31.5851762 Z M108.094249,41.596298 L101.390321,48.369967 L101.390321,35.4939054 L105.594468,35.4947913 C107.544538,35.4956772 109.129669,37.0986792 109.129669,39.068879 C109.129669,40.0238589 108.761222,40.9212565 108.094249,41.596298 Z" id="Shape" fill="#FFDC5A"></path>
        </g>
    </g>
</svg>