<?xml version="1.0" encoding="UTF-8"?>
<svg width="120px" height="120px" viewBox="0 0 120 120" version="1.1" xmlns="http://www.w3.org/2000/svg" xmlns:xlink="http://www.w3.org/1999/xlink">
    <!-- Generator: Sketch 48.2 (47327) - http://www.bohemiancoding.com/sketch -->
    <title>Grass1</title>
    <desc>Created with Sketch.</desc>
    <defs>
        <polygon id="path-1" points="0.031836 0.050076 116.64 0.050076 116.64 65.350596 0.031836 65.350596"></polygon>
    </defs>
    <g id="ALL" stroke="none" stroke-width="1" fill="none" fill-rule="evenodd">
        <g id="Grass1">
            <g id="Page-1" transform="translate(1.680000, 24.840000)">
                <g id="Group-3" transform="translate(0.000000, 0.069960)">
                    <mask id="mask-2" fill="white">
                        <use xlink:href="#path-1"></use>
                    </mask>
                    <g id="Clip-2"></g>
                    <path d="M23.353596,18.707316 C27.118356,18.707316 30.671676,19.604796 33.819996,21.189156 C33.687396,20.485476 33.615036,19.760556 33.615036,19.018236 C33.615036,12.578196 38.835876,7.357476 45.275916,7.357476 C47.568396,7.357476 49.704636,8.021676 51.507636,9.164316 C55.771356,3.623796 62.465076,0.050076 69.996756,0.050076 C81.283596,0.050076 90.696636,8.068356 92.853036,18.719076 C93.008436,18.716076 93.162276,18.707316 93.318396,18.707316 C106.198596,18.707316 116.640036,29.148756 116.640036,42.028956 C116.640036,54.909156 106.198596,65.350596 93.318396,65.350596 L23.353596,65.350596 C10.473396,65.350596 0.031836,54.909156 0.031836,42.028956 C0.031836,29.148756 10.473396,18.707316 23.353596,18.707316" id="Fill-1" fill="#005800" mask="url(#mask-2)"></path>
                </g>
            </g>
        </g>
    </g>
</svg>