<?xml version="1.0" encoding="UTF-8"?>
<svg width="120px" height="120px" viewBox="0 0 120 120" version="1.1" xmlns="http://www.w3.org/2000/svg" xmlns:xlink="http://www.w3.org/1999/xlink">
    <!-- Generator: Sketch 51.1 (57501) - http://www.bohemiancoding.com/sketch -->
    <title>Drum27</title>
    <desc>Created with Sketch.</desc>
    <defs>
        <polygon id="path-1" points="0.115021672 0.303664748 57.7451146 0.303664748 57.7451146 87.4388489 0.115021672 87.4388489"></polygon>
    </defs>
    <g id="Drum27" stroke="none" stroke-width="1" fill="none" fill-rule="evenodd">
        <g id="Group-2" transform="translate(0.000000, 9.000000)">
            <g id="Group">
                <g id="Group-41" transform="translate(30.835913, 15.417766)">
                    <mask id="mask-2" fill="white">
                        <use xlink:href="#path-1"></use>
                    </mask>
                    <g id="Clip-40"></g>
                    <polygon id="Fill-39" fill="#D9D9D9" mask="url(#mask-2)" points="26.3604706 0.303664748 27.2784892 58.8854705 0.115021672 77.9212043 0.115021672 83.2290388 4.52009907 83.2290388 4.15304025 79.019377 27.2784892 64.7427619 31.683195 83.2290388 31.683195 87.4390712 34.803195 87.4390712 35.7208421 82.6799525 31.4996656 64.193305 54.4415851 79.385064 54.4415851 82.4969237 57.7451146 82.313895 57.7451146 76.2739453 31.4996656 59.2518986 30.3984892 0.310704317"></polygon>
                </g>
                <polygon id="Fill-42" fill="#F4A37E" points="69.4934489 14.4293737 51.6636037 13.2563594 50.7727059 20.4696939 69.4934489 19.5541795"></polygon>
                <path d="M55.1613994,6.55906223 C55.1613994,6.55906223 46.3531022,0.335713309 27.0810279,0.335713309 C7.80932508,0.335713309 0.100718266,6.55906223 0.100718266,6.55906223 C0.100718266,6.55906223 8.36065635,11.3178104 27.0810279,11.3178104 C45.8017709,11.3178104 55.1613994,6.55906223 55.1613994,6.55906223" id="Fill-44" fill="#D1DAEA"></path>
                <path d="M0.100866873,6.55906223 L6.15770898,55.5948428 C6.15770898,55.5948428 22.1251393,62.1842493 49.1047059,56.3269579 L55.161548,6.55906223 L0.100866873,6.55906223 Z" id="Fill-46" fill="#F9C7A2"></path>
                <path d="M54.4412136,12.475523 L55.1612136,6.55895108 L0.100904025,6.55895108 L0.810501548,12.3039799 C6.74548607,14.329523 16.0779938,15.714095 26.750935,15.714095 C38.1048669,15.714095 46.8046811,16.0264295 54.4412136,12.475523" id="Fill-48" fill="#D9D9D9"></path>
                <path d="M55.1613994,6.55906223 C55.1613994,6.55906223 46.3531022,0.335713309 27.0810279,0.335713309 C7.80932508,0.335713309 0.100718266,6.55906223 0.100718266,6.55906223 C0.100718266,6.55906223 8.36065635,11.3178104 27.0810279,11.3178104 C45.8017709,11.3178104 55.1613994,6.55906223 55.1613994,6.55906223" id="Fill-50" fill="#F5F5F5"></path>
                <path d="M45.4341176,18.0815759 C41.9604334,17.6884716 38.3024768,57.8269788 38.2734985,58.0867018 C41.6535604,57.6821119 45.2632198,57.07745 49.1047059,56.199727 C49.1047059,56.199727 48.9211765,18.4757917 45.4341176,18.0815759" id="Fill-52" fill="#F4A37E"></path>
                <path d="M34.9724954,18.0826504 C31.3037647,17.8818374 27.0851889,58.7202259 27.0814737,58.7509777 C30.4463034,58.7669094 34.1893375,58.5749885 38.2726811,58.0866647 C38.2756533,57.8299058 38.6285944,18.2823518 34.9724954,18.0826504" id="Fill-54" fill="#F4A37E"></path>
                <path d="M23.2261672,18.0826504 C18.8244334,18.0744993 16.3835666,57.9195676 16.3798514,57.9658806 C19.3512446,58.4064094 22.9319257,58.7317115 27.0810279,58.7509777 C27.0817709,58.7202259 27.6290155,18.0904309 23.2261672,18.0826504" id="Fill-56" fill="#F4A37E"></path>
                <path d="M10.9294737,18.0906162 C7.07535604,17.5126306 6.15770898,55.4288572 6.15770898,55.4288572 C6.15770898,55.4288572 9.74396285,56.9834903 16.3796285,57.9660658 C16.3773994,57.9190119 14.7809907,18.6682313 10.9294737,18.0906162" id="Fill-58" fill="#F4A37E"></path>
                <path d="M119.824941,6.55906223 C119.824941,6.55906223 111.016644,0.335713309 91.7445697,0.335713309 C72.4728669,0.335713309 64.7646316,6.55906223 64.7646316,6.55906223 C64.7646316,6.55906223 73.0241981,11.3178104 91.7449412,11.3178104 C110.465313,11.3178104 119.824941,6.55906223 119.824941,6.55906223" id="Fill-60" fill="#D1DAEA"></path>
                <path d="M64.7645944,6.55906223 L70.821065,68.9848428 C70.821065,68.9848428 86.7884954,75.5742493 113.768062,69.7173284 L119.824904,6.55906223 L64.7645944,6.55906223 Z" id="Fill-62" fill="#F9C7A2"></path>
                <path d="M119.285796,12.1791942 L119.824867,6.55902518 L64.7645573,6.55902518 L65.337065,12.462259 C71.2724211,14.4874317 80.7416471,15.7141691 91.4142167,15.7141691 C102.76852,15.7141691 111.649263,15.7301007 119.285796,12.1791942" id="Fill-64" fill="#D9D9D9"></path>
                <path d="M119.824941,6.55906223 C119.824941,6.55906223 111.016644,0.335713309 91.7445697,0.335713309 C72.4728669,0.335713309 64.7646316,6.55906223 64.7646316,6.55906223 C64.7646316,6.55906223 73.0241981,11.3178104 91.7449412,11.3178104 C110.465313,11.3178104 119.824941,6.55906223 119.824941,6.55906223" id="Fill-66" fill="#F5F5F5"></path>
                <path d="M110.097288,18.0815759 C106.623975,17.6884716 102.966019,71.2173493 102.93704,71.4767018 C106.317102,71.0721119 109.926762,70.4678205 113.768248,69.589727 C113.768248,69.589727 113.584718,18.4757917 110.097288,18.0815759" id="Fill-68" fill="#F4A37E"></path>
                <path d="M99.6360372,18.0826504 C95.966935,17.8818374 91.7491022,72.1102259 91.7450155,72.1413482 C95.1094737,72.1569094 98.8528793,71.965359 102.936223,71.4766647 C102.939195,71.2206468 103.292136,18.2823518 99.6360372,18.0826504" id="Fill-70" fill="#F4A37E"></path>
                <path d="M87.889709,18.0826504 C83.4879752,18.0744993 81.0471084,71.3099381 81.0433932,71.3562511 C84.0147864,71.7967799 87.5954675,72.122082 91.7449412,72.1413482 C91.7453127,72.1102259 92.2925573,18.0904309 87.889709,18.0826504" id="Fill-72" fill="#F4A37E"></path>
                <path d="M75.5930155,18.0906162 C71.7388978,17.5126306 70.8208793,68.8192277 70.8208793,68.8192277 C70.8208793,68.8192277 74.4075046,70.3734903 81.0435418,71.3564363 C81.0409412,71.3093824 79.444161,18.6682313 75.5930155,18.0906162" id="Fill-74" fill="#F4A37E"></path>
                <path d="M61.32587,16.8629525 C61.32587,17.7217799 60.627418,18.4186971 59.7662415,18.4186971 C58.904322,18.4186971 58.2062415,17.7217799 58.2062415,16.8629525 C58.2062415,16.0037547 58.904322,15.3072079 59.7662415,15.3072079 C60.627418,15.3072079 61.32587,16.0037547 61.32587,16.8629525" id="Fill-76" fill="#D9D9D9"></path>
            </g>
        </g>
    </g>
</svg>