<?xml version="1.0" encoding="UTF-8"?>
<svg width="120px" height="120px" viewBox="0 0 120 120" version="1.1" xmlns="http://www.w3.org/2000/svg" xmlns:xlink="http://www.w3.org/1999/xlink">
    <!-- Generator: Sketch 51.1 (57501) - http://www.bohemiancoding.com/sketch -->
    <title>Goat</title>
    <desc>Created with Sketch.</desc>
    <defs>
        <polygon id="path-1" points="0.69205805 0.213559322 23.4849057 0.213559322 23.4849057 29.5410719 0.69205805 29.5410719"></polygon>
        <polygon id="path-3" points="0 118.787254 106.98317 118.787254 106.98317 1.03471186 0 1.03471186"></polygon>
    </defs>
    <g id="Goat" stroke="none" stroke-width="1" fill="none" fill-rule="evenodd">
        <g id="Group" transform="translate(60.500000, 60.500000) scale(-1, 1) translate(-60.500000, -60.500000) translate(7.000000, 1.000000)">
            <g id="Group-3" transform="translate(14.264151, 0.821153)">
                <mask id="mask-2" fill="white">
                    <use xlink:href="#path-1"></use>
                </mask>
                <g id="Clip-2"></g>
                <path d="M0.692830189,28.1054237 C0.550188679,27.7250847 20.2143396,2.38881356 23.4849057,0.212542373 L3.76369811,29.1935593 C3.76369811,29.1935593 1.58332075,30.4789831 0.692830189,28.1054237" id="Fill-1" fill="#503C3D" mask="url(#mask-2)"></path>
            </g>
            <mask id="mask-4" fill="white">
                <use xlink:href="#path-3"></use>
            </mask>
            <g id="Clip-5"></g>
            <polygon id="Fill-4" fill="#E8965E" mask="url(#mask-4)" points="37.8142642 118.787254 41.8021132 118.787254 41.8021132 79.512678 37.8142642 79.512678"></polygon>
            <path d="M92.3430566,76.2057627 L92.3430566,118.787458 L87.2385283,118.787458 L87.2385283,83.1291525 C87.2385283,83.1291525 71.2830566,80.7555932 71.2830566,66.9088136 C71.2830566,53.0620339 87.4382264,54.6932203 87.4382264,54.6932203 C87.4382264,54.6932203 92.3430566,55.3359322 92.3430566,60.7766102 L92.3430566,76.2057627 Z" id="Fill-6" fill="#E8965E" mask="url(#mask-4)"></path>
            <path d="M105.158581,55.3812881 C103.54877,53.8151864 101.543638,53.723661 100.854883,53.7684068 L97.5700528,53.7684068 C96.7345811,53.7684068 95.9785811,54.1060339 95.4263547,54.6490847 C94.8822792,54.6287458 94.0712604,54.6307797 93.1114868,54.6938305 L42.6958642,54.6938305 L29.9111094,33.0816271 C23.4209208,24.6734915 13.8557887,29.0260339 13.1629585,29.2741695 C12.4701283,29.5202712 10.3406943,34.0212881 9.4970717,34.7128136 C8.65548679,35.4063729 2.11435472,38.3229831 0.926354717,39.1141695 C-0.263683019,39.9053559 0.0317886792,40.4504407 0.0317886792,40.4504407 C0.0317886792,40.4504407 0.975260377,45.1487458 3.40220377,45.1487458 C5.83118491,45.1487458 6.35080755,44.5304407 6.35080755,44.5304407 L15.3433358,44.5304407 C18.1472604,44.5304407 20.4417509,43.8714576 22.2227321,43.0456949 C25.1570717,47.9006102 32.8393358,60.8789153 33.4547321,64.7697627 C33.4689962,64.9121356 33.4812226,65.0484068 33.4954868,65.1968814 C33.4954868,65.2029831 33.4975245,65.2111186 33.4975245,65.2151864 C34.2677887,73.0863729 36.8129208,88.6701017 44.9231094,88.6701017 L44.9496,88.6701017 L44.9496,118.786034 L48.9374491,118.786034 L48.9374491,88.8104407 C60.3956377,89.4287458 82.6497509,91.4992542 95.0942038,82.9467119 C95.6545811,83.0728136 96.0091472,83.1297627 96.0091472,83.1297627 L96.0091472,118.786034 L101.113675,118.786034 L101.113675,94.2409492 C101.584392,95.3168814 102.658279,96.0714576 103.911487,96.0714576 C105.598732,96.0714576 106.968091,94.704678 106.968091,93.0206102 L106.961977,60.8768814 C107.153525,57.9684068 106.085751,56.284339 105.158581,55.3812881" id="Fill-7" fill="#F3B85E" mask="url(#mask-4)"></path>
            <path d="M18.3159849,30.8801356 C18.3159849,30.8801356 21.3644377,31.1750508 24.9304755,33.6258983 C24.9304755,33.6258983 22.403683,35.7757288 17.7963623,35.7757288 C17.7963623,35.7757288 20.8142491,33.351322 18.3159849,30.8801356" id="Fill-8" fill="#CD7931" mask="url(#mask-4)"></path>
            <path d="M12.9151698,34.4414915 C12.9151698,35.411661 12.7378868,36.1967458 12.5198491,36.1967458 C12.2997736,36.1967458 12.1224906,35.411661 12.1224906,34.4414915 C12.1224906,33.471322 12.2997736,32.6862373 12.5198491,32.6862373 C12.7378868,32.6862373 12.9151698,33.471322 12.9151698,34.4414915" id="Fill-9" fill="#503C3D" mask="url(#mask-4)"></path>
            <path d="M19.9019547,28.9265763 C19.7593132,28.5462373 39.4234642,3.2099661 42.6960679,1.03369492 L22.9748604,30.0147119 C22.9748604,30.0147119 20.7924453,31.3001356 19.9019547,28.9265763" id="Fill-10" fill="#503C3D" mask="url(#mask-4)"></path>
        </g>
    </g>
</svg>