<?xml version="1.0" encoding="UTF-8"?>
<svg width="120px" height="120px" viewBox="0 0 120 120" version="1.1" xmlns="http://www.w3.org/2000/svg" xmlns:xlink="http://www.w3.org/1999/xlink">
    <!-- Generator: Sketch 51.1 (57501) - http://www.bohemiancoding.com/sketch -->
    <title>Fire truck2</title>
    <desc>Created with Sketch.</desc>
    <defs></defs>
    <g id="Fire-truck2" stroke="none" stroke-width="1" fill="none" fill-rule="evenodd">
        <g id="Group" transform="translate(1.000000, 35.000000)">
            <polygon id="Fill-174" fill="#EDECEB" points="57.0435745 45.0607363 77.1906383 45.0607363 77.1906383 9.4273537 57.0435745 9.4273537"></polygon>
            <polygon id="Fill-175" fill="#F04925" points="77.1909957 5.42164437 77.1909957 45.0615543 118.572783 45.0615543 118.572783 23.7991814 115.020102 5.42164437"></polygon>
            <polygon id="Fill-176" fill="#F04925" points="0.890212766 45.061418 57.0437447 45.061418 57.0437447 5.42150804 0.890212766 5.42150804"></polygon>
            <polygon id="Fill-177" fill="#FFD702" points="77.1909787 32.5409775 118.572766 32.5409775 118.572766 26.3542926 77.1909787 26.3542926"></polygon>
            <polygon id="Fill-178" fill="#FFD702" points="0.890212766 32.5409775 57.0437447 32.5409775 57.0437447 26.3542926 0.890212766 26.3542926"></polygon>
            <polygon id="Fill-179" fill="#FFFFFF" points="77.1909787 27.8060836 118.572766 27.8060836 118.572766 26.3542926 77.1909787 26.3542926"></polygon>
            <polygon id="Fill-180" fill="#FFFFFF" points="0.890212766 27.8060836 57.0437447 27.8060836 57.0437447 26.3542926 0.890212766 26.3542926"></polygon>
            <path d="M99.1496,3.86681865 L106.186706,3.86681865 L106.186706,2.56959678 C106.186706,1.15853569 105.044238,0.0146900322 103.635047,0.0146900322 L101.70126,0.0146900322 C100.292068,0.0146900322 99.1496,1.15853569 99.1496,2.56959678 L99.1496,3.86681865 Z" id="Fill-181" fill="#F04925"></path>
            <path d="M101.701294,0.0147752412 L103.375506,0.0147752412 C101.966145,0.0147752412 100.823847,1.1586209 100.823847,2.56951158 L100.823847,3.86690386 L99.149634,3.86690386 L99.149634,2.56951158 C99.149634,1.1586209 100.292102,0.0147752412 101.701294,0.0147752412" id="Fill-182" fill="#CC2D12"></path>
            <polygon id="Fill-183" fill="#BFC0C4" points="114.16606 8.08275563 117.058655 23.0420482 104.722826 23.0420482 104.722826 8.08275563"></polygon>
            <path d="M86.8563745,44.3812116 C86.8563745,44.6092309 86.8647149,44.8374206 86.879183,45.0615203 L107.335013,45.0615203 C107.349481,44.8374206 107.357821,44.6092309 107.357821,44.3812116 C107.357821,38.7212887 102.759183,34.1171055 97.1081191,34.1171055 C91.455183,34.1171055 86.8563745,38.7212887 86.8563745,44.3812116" id="Fill-184" fill="#CC2D12"></path>
            <path d="M16.9732426,44.3812116 C16.9732426,44.6092309 16.981583,44.8374206 16.9960511,45.0615203 L37.4518809,45.0615203 C37.4661787,44.8374206 37.4745191,44.6092309 37.4745191,44.3812116 C37.4745191,38.7212887 32.8760511,34.1171055 27.2249872,34.1171055 C21.5720511,34.1171055 16.9732426,38.7212887 16.9732426,44.3812116" id="Fill-185" fill="#CC2D12"></path>
            <polygon id="Fill-186" fill="#323948" points="98.1666383 5.42150804 107.171234 5.42150804 107.171234 3.86644373 98.1666383 3.86644373"></polygon>
            <polygon id="Fill-187" fill="#BFC0C4" points="95.0391489 19.1761158 102.358638 19.1761158 102.358638 8.08275563 95.0391489 8.08275563"></polygon>
            <polygon id="Fill-188" fill="#BFC0C4" points="79.9484255 19.1761158 92.2777872 19.1761158 92.2777872 8.08275563 79.9484255 8.08275563"></polygon>
            <path d="M108.192647,38.3375244 L118.705498,38.3375244 C119.420391,38.3375244 119.999966,38.9177977 119.999966,39.6337238 L119.999966,43.9485373 C119.999966,45.5838685 118.675881,46.9097206 117.042349,46.9097206 L108.192647,46.9097206 L108.192647,38.3375244 Z" id="Fill-189" fill="#EDECEB"></path>
            <path d="M120,42.7386035 L120,43.9485714 C120,45.5839026 118.675915,46.9097547 117.042383,46.9097547 L108.192681,46.9097547 L108.192681,42.7386035 L120,42.7386035 Z" id="Fill-190" fill="#D6D5D4"></path>
            <polygon id="Fill-191" fill="#D6D5D4" points="55.266383 45.6193666 78.9676596 45.6193666 78.9676596 39.5238553 55.266383 39.5238553"></polygon>
            <polygon id="Fill-192" fill="#BCBBBB" points="55.266383 45.6193666 78.9676596 45.6193666 78.9676596 42.9458489 55.266383 42.9458489"></polygon>
            <polygon id="Fill-193" fill="#323948" points="58.8665532 35.589074 75.4941277 35.589074 75.4941277 18.2657428 58.8665532 18.2657428"></polygon>
            <path d="M73.3459064,19.6761733 C73.3459064,20.0972762 73.6868426,20.4384531 74.1072681,20.4384531 C74.5276936,20.4384531 74.8686298,20.0972762 74.8686298,19.6761733 C74.8686298,19.2552408 74.5276936,18.9138936 74.1072681,18.9138936 C73.6868426,18.9138936 73.3459064,19.2552408 73.3459064,19.6761733" id="Fill-194" fill="#F04925"></path>
            <path d="M70.9197106,19.6761733 C70.9197106,20.0972762 71.2606468,20.4384531 71.6812426,20.4384531 C72.1014979,20.4384531 72.442434,20.0972762 72.442434,19.6761733 C72.442434,19.2552408 72.1014979,18.9138936 71.6812426,18.9138936 C71.2606468,18.9138936 70.9197106,19.2552408 70.9197106,19.6761733" id="Fill-195" fill="#FFD702"></path>
            <path d="M62.3153191,19.6761733 C62.3153191,20.0972762 62.6562553,20.4384531 63.0766809,20.4384531 C63.4971064,20.4384531 63.8380426,20.0972762 63.8380426,19.6761733 C63.8380426,19.2552408 63.4971064,18.9138936 63.0766809,18.9138936 C62.6562553,18.9138936 62.3153191,19.2552408 62.3153191,19.6761733" id="Fill-196" fill="#F04925"></path>
            <path d="M59.8891234,19.6761733 C59.8891234,20.0972762 60.2300596,20.4384531 60.6506553,20.4384531 C61.0709106,20.4384531 61.4118468,20.0972762 61.4118468,19.6761733 C61.4118468,19.2552408 61.0709106,18.9138936 60.6506553,18.9138936 C60.2300596,18.9138936 59.8891234,19.2552408 59.8891234,19.6761733" id="Fill-197" fill="#FFD702"></path>
            <polygon id="Fill-198" fill="#D6D5D4" points="72.8740426 26.1468939 74.2723404 26.1468939 74.2723404 21.5323151 72.8740426 21.5323151"></polygon>
            <polygon id="Fill-199" fill="#D6D5D4" points="70.5262979 26.1468939 71.9245957 26.1468939 71.9245957 21.5323151 70.5262979 21.5323151"></polygon>
            <polygon id="Fill-200" fill="#D6D5D4" points="68.3685106 26.1468939 69.7668085 26.1468939 69.7668085 21.5323151 68.3685106 21.5323151"></polygon>
            <polygon id="Fill-201" fill="#D6D5D4" points="66.1935319 26.1468939 67.5918298 26.1468939 67.5918298 21.5323151 66.1935319 21.5323151"></polygon>
            <polygon id="Fill-202" fill="#EDECEB" points="59.4786383 26.112299 65.0025532 26.112299 65.0025532 21.618717 59.4786383 21.618717"></polygon>
            <path d="M60.2380255,29.1800617 C60.2380255,29.795782 60.7365787,30.2947659 61.3513872,30.2947659 C61.966366,30.2947659 62.4649191,29.795782 62.4649191,29.1800617 C62.4649191,28.5643415 61.966366,28.0651871 61.3513872,28.0651871 C60.7365787,28.0651871 60.2380255,28.5643415 60.2380255,29.1800617" id="Fill-203" fill="#D6D5D4"></path>
            <path d="M60.2380255,32.3946907 C60.2380255,33.0104109 60.7365787,33.5095653 61.3513872,33.5095653 C61.966366,33.5095653 62.4649191,33.0104109 62.4649191,32.3946907 C62.4649191,31.7789704 61.966366,31.2798161 61.3513872,31.2798161 C60.7365787,31.2798161 60.2380255,31.7789704 60.2380255,32.3946907" id="Fill-204" fill="#EDECEB"></path>
            <path d="M73.6153532,29.2059312 L74.3419915,29.2059312 C74.4987574,29.2059312 74.6259064,29.0786289 74.6259064,28.921674 L74.6259064,28.1941595 C74.6259064,28.0370341 74.4987574,27.9097318 74.3419915,27.9097318 L73.6153532,27.9097318 C73.458417,27.9097318 73.3312681,28.0370341 73.3312681,28.1941595 L73.3312681,28.921674 C73.3312681,29.0786289 73.458417,29.2059312 73.6153532,29.2059312" id="Fill-205" fill="#F04925"></path>
            <path d="M71.492017,29.2059312 L72.2186553,29.2059312 C72.3754213,29.2059312 72.5025702,29.0786289 72.5025702,28.921674 L72.5025702,28.1941595 C72.5025702,28.0370341 72.3754213,27.9097318 72.2186553,27.9097318 L71.492017,27.9097318 C71.3352511,27.9097318 71.2081021,28.0370341 71.2081021,28.1941595 L71.2081021,28.921674 C71.2081021,29.0786289 71.3352511,29.2059312 71.492017,29.2059312" id="Fill-206" fill="#F04925"></path>
            <path d="M69.3688511,29.2059312 L70.0954894,29.2059312 C70.2522553,29.2059312 70.3794043,29.0786289 70.3794043,28.921674 L70.3794043,28.1941595 C70.3794043,28.0370341 70.2522553,27.9097318 70.0954894,27.9097318 L69.3688511,27.9097318 C69.2119149,27.9097318 69.084766,28.0370341 69.084766,28.1941595 L69.084766,28.921674 C69.084766,29.0786289 69.2119149,29.2059312 69.3688511,29.2059312" id="Fill-207" fill="#F04925"></path>
            <path d="M67.2455149,29.2059312 L67.9721532,29.2059312 C68.1289191,29.2059312 68.2560681,29.0786289 68.2560681,28.921674 L68.2560681,28.1941595 C68.2560681,28.0370341 68.1289191,27.9097318 67.9721532,27.9097318 L67.2455149,27.9097318 C67.0887489,27.9097318 66.9614298,28.0370341 66.9614298,28.1941595 L66.9614298,28.921674 C66.9614298,29.0786289 67.0887489,29.2059312 67.2455149,29.2059312" id="Fill-208" fill="#F04925"></path>
            <path d="M65.1223319,29.2059312 L65.8489702,29.2059312 C66.0057362,29.2059312 66.1328851,29.0786289 66.1328851,28.921674 L66.1328851,28.1941595 C66.1328851,28.0370341 66.0057362,27.9097318 65.8489702,27.9097318 L65.1223319,27.9097318 C64.9653957,27.9097318 64.8382468,28.0370341 64.8382468,28.1941595 L64.8382468,28.921674 C64.8382468,29.0786289 64.9653957,29.2059312 65.1223319,29.2059312" id="Fill-209" fill="#F04925"></path>
            <path d="M73.6153532,31.3317424 L74.3419915,31.3317424 C74.4987574,31.3317424 74.6259064,31.2044402 74.6259064,31.0474852 L74.6259064,30.3199707 C74.6259064,30.1628453 74.4987574,30.0355431 74.3419915,30.0355431 L73.6153532,30.0355431 C73.458417,30.0355431 73.3312681,30.1628453 73.3312681,30.3199707 L73.3312681,31.0474852 C73.3312681,31.2044402 73.458417,31.3317424 73.6153532,31.3317424" id="Fill-210" fill="#EDECEB"></path>
            <path d="M71.492017,31.3317424 L72.2186553,31.3317424 C72.3754213,31.3317424 72.5025702,31.2044402 72.5025702,31.0474852 L72.5025702,30.3199707 C72.5025702,30.1628453 72.3754213,30.0355431 72.2186553,30.0355431 L71.492017,30.0355431 C71.3352511,30.0355431 71.2081021,30.1628453 71.2081021,30.3199707 L71.2081021,31.0474852 C71.2081021,31.2044402 71.3352511,31.3317424 71.492017,31.3317424" id="Fill-211" fill="#EDECEB"></path>
            <path d="M69.3688511,31.3317424 L70.0954894,31.3317424 C70.2522553,31.3317424 70.3794043,31.2044402 70.3794043,31.0474852 L70.3794043,30.3199707 C70.3794043,30.1628453 70.2522553,30.0355431 70.0954894,30.0355431 L69.3688511,30.0355431 C69.2119149,30.0355431 69.084766,30.1628453 69.084766,30.3199707 L69.084766,31.0474852 C69.084766,31.2044402 69.2119149,31.3317424 69.3688511,31.3317424" id="Fill-212" fill="#EDECEB"></path>
            <path d="M67.2455149,31.3317424 L67.9721532,31.3317424 C68.1289191,31.3317424 68.2560681,31.2044402 68.2560681,31.0474852 L68.2560681,30.3199707 C68.2560681,30.1628453 68.1289191,30.0355431 67.9721532,30.0355431 L67.2455149,30.0355431 C67.0887489,30.0355431 66.9614298,30.1628453 66.9614298,30.3199707 L66.9614298,31.0474852 C66.9614298,31.2044402 67.0887489,31.3317424 67.2455149,31.3317424" id="Fill-213" fill="#FFD702"></path>
            <path d="M65.1223319,31.3317424 L65.8489702,31.3317424 C66.0057362,31.3317424 66.1328851,31.2044402 66.1328851,31.0474852 L66.1328851,30.3199707 C66.1328851,30.1628453 66.0057362,30.0355431 65.8489702,30.0355431 L65.1223319,30.0355431 C64.9653957,30.0355431 64.8382468,30.1628453 64.8382468,30.3199707 L64.8382468,31.0474852 C64.8382468,31.2044402 64.9653957,31.3317424 65.1223319,31.3317424" id="Fill-214" fill="#FFD702"></path>
            <path d="M73.6153532,33.4316842 L74.3419915,33.4316842 C74.4987574,33.4316842 74.6259064,33.304382 74.6259064,33.1472566 L74.6259064,32.4199125 C74.6259064,32.2627871 74.4987574,32.1354849 74.3419915,32.1354849 L73.6153532,32.1354849 C73.458417,32.1354849 73.3312681,32.2627871 73.3312681,32.4199125 L73.3312681,33.1472566 C73.3312681,33.304382 73.458417,33.4316842 73.6153532,33.4316842" id="Fill-215" fill="#EDECEB"></path>
            <path d="M71.492017,33.4316842 L72.2186553,33.4316842 C72.3754213,33.4316842 72.5025702,33.304382 72.5025702,33.1472566 L72.5025702,32.4199125 C72.5025702,32.2627871 72.3754213,32.1354849 72.2186553,32.1354849 L71.492017,32.1354849 C71.3352511,32.1354849 71.2081021,32.2627871 71.2081021,32.4199125 L71.2081021,33.1472566 C71.2081021,33.304382 71.3352511,33.4316842 71.492017,33.4316842" id="Fill-216" fill="#EDECEB"></path>
            <path d="M69.3688511,33.4316842 L70.0954894,33.4316842 C70.2522553,33.4316842 70.3794043,33.304382 70.3794043,33.1472566 L70.3794043,32.4199125 C70.3794043,32.2627871 70.2522553,32.1354849 70.0954894,32.1354849 L69.3688511,32.1354849 C69.2119149,32.1354849 69.084766,32.2627871 69.084766,32.4199125 L69.084766,33.1472566 C69.084766,33.304382 69.2119149,33.4316842 69.3688511,33.4316842" id="Fill-217" fill="#EDECEB"></path>
            <path d="M67.2455149,33.4316842 L67.9721532,33.4316842 C68.1289191,33.4316842 68.2560681,33.304382 68.2560681,33.1472566 L68.2560681,32.4199125 C68.2560681,32.2627871 68.1289191,32.1354849 67.9721532,32.1354849 L67.2455149,32.1354849 C67.0887489,32.1354849 66.9614298,32.2627871 66.9614298,32.4199125 L66.9614298,33.1472566 C66.9614298,33.304382 67.0887489,33.4316842 67.2455149,33.4316842" id="Fill-218" fill="#EDECEB"></path>
            <path d="M65.1223319,33.4316842 L65.8489702,33.4316842 C66.0057362,33.4316842 66.1328851,33.304382 66.1328851,33.1472566 L66.1328851,32.4199125 C66.1328851,32.2627871 66.0057362,32.1354849 65.8489702,32.1354849 L65.1223319,32.1354849 C64.9653957,32.1354849 64.8382468,32.2627871 64.8382468,32.4199125 L64.8382468,33.1472566 C64.8382468,33.304382 64.9653957,33.4316842 65.1223319,33.4316842" id="Fill-219" fill="#EDECEB"></path>
            <polygon id="Fill-220" fill="#D6D5D4" points="0.104851064 19.7131029 58.3564255 19.7131029 58.3564255 18.7480257 0.104851064 18.7480257"></polygon>
            <polygon id="Fill-221" fill="#D6D5D4" points="0.104851064 11.4611222 58.3564255 11.4611222 58.3564255 10.496045 0.104851064 10.496045"></polygon>
            <polygon id="Fill-222" fill="#D6D5D4" points="53.2999149 19.1362379 54.3111489 19.1362379 54.3111489 11.2385563 53.2999149 11.2385563"></polygon>
            <polygon id="Fill-223" fill="#D6D5D4" points="47.704 19.1362379 48.715234 19.1362379 48.715234 11.2385563 47.704 11.2385563"></polygon>
            <polygon id="Fill-224" fill="#D6D5D4" points="42.1080851 19.1362379 43.1193191 19.1362379 43.1193191 11.2385563 42.1080851 11.2385563"></polygon>
            <polygon id="Fill-225" fill="#D6D5D4" points="36.5121702 19.1362379 37.5234043 19.1362379 37.5234043 11.2385563 36.5121702 11.2385563"></polygon>
            <polygon id="Fill-226" fill="#D6D5D4" points="30.9162553 19.1362379 31.9274894 19.1362379 31.9274894 11.2385563 30.9162553 11.2385563"></polygon>
            <polygon id="Fill-227" fill="#D6D5D4" points="25.3203404 19.1362379 26.3315745 19.1362379 26.3315745 11.2385563 25.3203404 11.2385563"></polygon>
            <polygon id="Fill-228" fill="#D6D5D4" points="19.7244255 19.1362379 20.7356596 19.1362379 20.7356596 11.2385563 19.7244255 11.2385563"></polygon>
            <polygon id="Fill-229" fill="#D6D5D4" points="14.1285106 19.1362379 15.1397447 19.1362379 15.1397447 11.2385563 14.1285106 11.2385563"></polygon>
            <polygon id="Fill-230" fill="#D6D5D4" points="8.53242553 19.1362379 9.54365957 19.1362379 9.54365957 11.2385563 8.53242553 11.2385563"></polygon>
            <polygon id="Fill-231" fill="#D6D5D4" points="2.93651064 19.1362379 3.94774468 19.1362379 3.94774468 11.2385563 2.93651064 11.2385563"></polygon>
            <path d="M50.1223319,35.9981965 C50.1223319,36.5137109 50.5396936,36.9315759 51.0545872,36.9315759 C51.5693106,36.9315759 51.9866723,36.5137109 51.9866723,35.9981965 C51.9866723,35.4828524 51.5693106,35.064817 51.0545872,35.064817 C50.5396936,35.064817 50.1223319,35.4828524 50.1223319,35.9981965" id="Fill-232" fill="#323948"></path>
            <path d="M38.6481021,35.9981965 C38.6481021,36.5137109 39.0652936,36.9315759 39.5803574,36.9315759 C40.0950809,36.9315759 40.5122723,36.5137109 40.5122723,35.9981965 C40.5122723,35.4828524 40.0950809,35.064817 39.5803574,35.064817 C39.0652936,35.064817 38.6481021,35.4828524 38.6481021,35.9981965" id="Fill-233" fill="#323948"></path>
            <path d="M15.4373277,35.9981965 C15.4373277,36.5137109 15.8546894,36.9315759 16.369583,36.9315759 C16.8843064,36.9315759 17.3016681,36.5137109 17.3016681,35.9981965 C17.3016681,35.4828524 16.8843064,35.064817 16.369583,35.064817 C15.8546894,35.064817 15.4373277,35.4828524 15.4373277,35.9981965" id="Fill-234" fill="#323948"></path>
            <path d="M3.96292766,35.9981965 C3.96292766,36.5137109 4.38028936,36.9315759 4.89518298,36.9315759 C5.4100766,36.9315759 5.82726809,36.5137109 5.82726809,35.9981965 C5.82726809,35.4828524 5.4100766,35.064817 4.89518298,35.064817 C4.38028936,35.064817 3.96292766,35.4828524 3.96292766,35.9981965" id="Fill-235" fill="#323948"></path>
            <polygon id="Fill-236" fill="#CC2D12" points="79.9729362 5.42167846 94.4173617 5.42167846 94.4173617 4.21085852 79.9729362 4.21085852"></polygon>
            <polygon id="Fill-237" fill="#CC2D12" points="24.6645106 5.42167846 39.1089362 5.42167846 39.1089362 4.21085852 24.6645106 4.21085852"></polygon>
            <polygon id="Fill-238" fill="#D6D5D4" points="23.2622979 4.21460772 96.2182128 4.21460772 96.2182128 1.72582315 23.2622979 1.72582315"></polygon>
            <polygon id="Fill-239" fill="#BFBFBF" points="23.2622979 4.21460772 96.2182128 4.21460772 96.2182128 3.03838264 23.2622979 3.03838264"></polygon>
            <path d="M93.8886298,3.82971865 L95.1078638,3.82971865 C95.2310979,3.82971865 95.3308426,3.7298537 95.3308426,3.60647106 L95.3308426,2.38576688 C95.3308426,2.26255466 95.2310979,2.16251929 95.1078638,2.16251929 L93.8886298,2.16251929 C93.7653957,2.16251929 93.6656511,2.26255466 93.6656511,2.38576688 L93.6656511,3.60647106 C93.6656511,3.7298537 93.7653957,3.82971865 93.8886298,3.82971865" id="Fill-240" fill="#B2B1B1"></path>
            <path d="M90.060834,3.82971865 L91.2798979,3.82971865 C91.4031319,3.82971865 91.5030468,3.7298537 91.5030468,3.60647106 L91.5030468,2.38576688 C91.5030468,2.26255466 91.4031319,2.16251929 91.2798979,2.16251929 L90.060834,2.16251929 C89.9376,2.16251929 89.8376851,2.26255466 89.8376851,2.38576688 L89.8376851,3.60647106 C89.8376851,3.7298537 89.9376,3.82971865 90.060834,3.82971865" id="Fill-241" fill="#B2B1B1"></path>
            <path d="M86.2330383,3.82971865 L87.4521021,3.82971865 C87.5753362,3.82971865 87.6752511,3.7298537 87.6752511,3.60647106 L87.6752511,2.38576688 C87.6752511,2.26255466 87.5753362,2.16251929 87.4521021,2.16251929 L86.2330383,2.16251929 C86.1098043,2.16251929 86.0098894,2.26255466 86.0098894,2.38576688 L86.0098894,3.60647106 C86.0098894,3.7298537 86.1098043,3.82971865 86.2330383,3.82971865" id="Fill-242" fill="#B2B1B1"></path>
            <path d="M82.4050894,3.82971865 L83.6243234,3.82971865 C83.7475574,3.82971865 83.8473021,3.7298537 83.8473021,3.60647106 L83.8473021,2.38576688 C83.8473021,2.26255466 83.7475574,2.16251929 83.6243234,2.16251929 L82.4050894,2.16251929 C82.2818553,2.16251929 82.1821106,2.26255466 82.1821106,2.38576688 L82.1821106,3.60647106 C82.1821106,3.7298537 82.2818553,3.82971865 82.4050894,3.82971865" id="Fill-243" fill="#B2B1B1"></path>
            <path d="M78.5772936,3.82971865 L79.7963574,3.82971865 C79.9195915,3.82971865 80.0195064,3.7298537 80.0195064,3.60647106 L80.0195064,2.38576688 C80.0195064,2.26255466 79.9195915,2.16251929 79.7963574,2.16251929 L78.5772936,2.16251929 C78.4540596,2.16251929 78.3541447,2.26255466 78.3541447,2.38576688 L78.3541447,3.60647106 C78.3541447,3.7298537 78.4540596,3.82971865 78.5772936,3.82971865" id="Fill-244" fill="#B2B1B1"></path>
            <path d="M74.7494979,3.82971865 L75.9685617,3.82971865 C76.0917957,3.82971865 76.1917106,3.7298537 76.1917106,3.60647106 L76.1917106,2.38576688 C76.1917106,2.26255466 76.0917957,2.16251929 75.9685617,2.16251929 L74.7494979,2.16251929 C74.6262638,2.16251929 74.5263489,2.26255466 74.5263489,2.38576688 L74.5263489,3.60647106 C74.5263489,3.7298537 74.6262638,3.82971865 74.7494979,3.82971865" id="Fill-245" fill="#B2B1B1"></path>
            <path d="M70.9215489,3.82971865 L72.140783,3.82971865 C72.264017,3.82971865 72.3637617,3.7298537 72.3637617,3.60647106 L72.3637617,2.38576688 C72.3637617,2.26255466 72.264017,2.16251929 72.140783,2.16251929 L70.9215489,2.16251929 C70.7984851,2.16251929 70.6985702,2.26255466 70.6985702,2.38576688 L70.6985702,3.60647106 C70.6985702,3.7298537 70.7984851,3.82971865 70.9215489,3.82971865" id="Fill-246" fill="#B2B1B1"></path>
            <path d="M67.0937532,3.82971865 L68.3129872,3.82971865 C68.4360511,3.82971865 68.535966,3.7298537 68.535966,3.60647106 L68.535966,2.38576688 C68.535966,2.26255466 68.4360511,2.16251929 68.3129872,2.16251929 L67.0937532,2.16251929 C66.9705191,2.16251929 66.8707745,2.26255466 66.8707745,2.38576688 L66.8707745,3.60647106 C66.8707745,3.7298537 66.9705191,3.82971865 67.0937532,3.82971865" id="Fill-247" fill="#B2B1B1"></path>
            <path d="M63.2659574,3.82971865 L64.4850213,3.82971865 C64.6082553,3.82971865 64.7081702,3.7298537 64.7081702,3.60647106 L64.7081702,2.38576688 C64.7081702,2.26255466 64.6082553,2.16251929 64.4850213,2.16251929 L63.2659574,2.16251929 C63.1427234,2.16251929 63.0428085,2.26255466 63.0428085,2.38576688 L63.0428085,3.60647106 C63.0428085,3.7298537 63.1427234,3.82971865 63.2659574,3.82971865" id="Fill-248" fill="#B2B1B1"></path>
            <path d="M59.4381617,3.82971865 L60.6572255,3.82971865 C60.7804596,3.82971865 60.8803745,3.7298537 60.8803745,3.60647106 L60.8803745,2.38576688 C60.8803745,2.26255466 60.7804596,2.16251929 60.6572255,2.16251929 L59.4381617,2.16251929 C59.3149277,2.16251929 59.2150128,2.26255466 59.2150128,2.38576688 L59.2150128,3.60647106 C59.2150128,3.7298537 59.3149277,3.82971865 59.4381617,3.82971865" id="Fill-249" fill="#B2B1B1"></path>
            <path d="M55.6102128,3.82971865 L56.8294468,3.82971865 C56.9526809,3.82971865 57.0524255,3.7298537 57.0524255,3.60647106 L57.0524255,2.38576688 C57.0524255,2.26255466 56.9526809,2.16251929 56.8294468,2.16251929 L55.6102128,2.16251929 C55.4869787,2.16251929 55.387234,2.26255466 55.387234,2.38576688 L55.387234,3.60647106 C55.387234,3.7298537 55.4869787,3.82971865 55.6102128,3.82971865" id="Fill-250" fill="#B2B1B1"></path>
            <path d="M51.782417,3.82971865 L53.0014809,3.82971865 C53.1247149,3.82971865 53.2246298,3.7298537 53.2246298,3.60647106 L53.2246298,2.38576688 C53.2246298,2.26255466 53.1247149,2.16251929 53.0014809,2.16251929 L51.782417,2.16251929 C51.659183,2.16251929 51.5592681,2.26255466 51.5592681,2.38576688 L51.5592681,3.60647106 C51.5592681,3.7298537 51.659183,3.82971865 51.782417,3.82971865" id="Fill-251" fill="#B2B1B1"></path>
            <path d="M47.9546213,3.82971865 L49.1736851,3.82971865 C49.2969191,3.82971865 49.396834,3.7298537 49.396834,3.60647106 L49.396834,2.38576688 C49.396834,2.26255466 49.2969191,2.16251929 49.1736851,2.16251929 L47.9546213,2.16251929 C47.8313872,2.16251929 47.7314723,2.26255466 47.7314723,2.38576688 L47.7314723,3.60647106 C47.7314723,3.7298537 47.8313872,3.82971865 47.9546213,3.82971865" id="Fill-252" fill="#B2B1B1"></path>
            <path d="M44.1266553,3.82971865 L45.3458894,3.82971865 C45.4691234,3.82971865 45.5688681,3.7298537 45.5688681,3.60647106 L45.5688681,2.38576688 C45.5688681,2.26255466 45.4691234,2.16251929 45.3458894,2.16251929 L44.1266553,2.16251929 C44.0035915,2.16251929 43.9036766,2.26255466 43.9036766,2.38576688 L43.9036766,3.60647106 C43.9036766,3.7298537 44.0035915,3.82971865 44.1266553,3.82971865" id="Fill-253" fill="#B2B1B1"></path>
            <path d="M40.2988766,3.82971865 L41.5179404,3.82971865 C41.6411745,3.82971865 41.7410894,3.7298537 41.7410894,3.60647106 L41.7410894,2.38576688 C41.7410894,2.26255466 41.6411745,2.16251929 41.5179404,2.16251929 L40.2988766,2.16251929 C40.1756426,2.16251929 40.0757277,2.26255466 40.0757277,2.38576688 L40.0757277,3.60647106 C40.0757277,3.7298537 40.1756426,3.82971865 40.2988766,3.82971865" id="Fill-254" fill="#B2B1B1"></path>
            <path d="M36.4710809,3.82971865 L37.6901447,3.82971865 C37.8133787,3.82971865 37.9132936,3.7298537 37.9132936,3.60647106 L37.9132936,2.38576688 C37.9132936,2.26255466 37.8133787,2.16251929 37.6901447,2.16251929 L36.4710809,2.16251929 C36.3478468,2.16251929 36.2479319,2.26255466 36.2479319,2.38576688 L36.2479319,3.60647106 C36.2479319,3.7298537 36.3478468,3.82971865 36.4710809,3.82971865" id="Fill-255" fill="#B2B1B1"></path>
            <path d="M32.6431149,3.82971865 L33.8623489,3.82971865 C33.985583,3.82971865 34.0853277,3.7298537 34.0853277,3.60647106 L34.0853277,2.38576688 C34.0853277,2.26255466 33.985583,2.16251929 33.8623489,2.16251929 L32.6431149,2.16251929 C32.5200511,2.16251929 32.4201362,2.26255466 32.4201362,2.38576688 L32.4201362,3.60647106 C32.4201362,3.7298537 32.5200511,3.82971865 32.6431149,3.82971865" id="Fill-256" fill="#B2B1B1"></path>
            <path d="M28.8153191,3.82971865 L30.0345532,3.82971865 C30.157617,3.82971865 30.2575319,3.7298537 30.2575319,3.60647106 L30.2575319,2.38576688 C30.2575319,2.26255466 30.157617,2.16251929 30.0345532,2.16251929 L28.8153191,2.16251929 C28.6920851,2.16251929 28.5923404,2.26255466 28.5923404,2.38576688 L28.5923404,3.60647106 C28.5923404,3.7298537 28.6920851,3.82971865 28.8153191,3.82971865" id="Fill-257" fill="#B2B1B1"></path>
            <path d="M24.9875404,3.82971865 L26.2066043,3.82971865 C26.3298383,3.82971865 26.4297532,3.7298537 26.4297532,3.60647106 L26.4297532,2.38576688 C26.4297532,2.26255466 26.3298383,2.16251929 26.2066043,2.16251929 L24.9875404,2.16251929 C24.8643064,2.16251929 24.7643915,2.26255466 24.7643915,2.38576688 L24.7643915,3.60647106 C24.7643915,3.7298537 24.8643064,3.82971865 24.9875404,3.82971865" id="Fill-258" fill="#B2B1B1"></path>
            <polygon id="Fill-259" fill="#323948" points="65.6105532 16.8614984 75.3640851 16.8614984 75.3640851 12.5061254 65.6105532 12.5061254"></polygon>
            <polygon id="Fill-260" fill="#BCBBBB" points="70.0517447 9.4254791 75.8517447 9.4254791 75.8517447 8.38848553 70.0517447 8.38848553"></polygon>
            <polygon id="Fill-261" fill="#BCBBBB" points="58.9174468 9.4254791 64.717617 9.4254791 64.717617 8.38848553 58.9174468 8.38848553"></polygon>
            <path d="M97.107217,35.7772666 C101.85343,35.7772666 105.700919,39.6293952 105.700919,44.3811605 C105.700919,49.1330961 101.85343,52.9852248 97.107217,52.9852248 C92.3611745,52.9852248 88.5136851,49.1330961 88.5136851,44.3811605 C88.5136851,39.6293952 92.3611745,35.7772666 97.107217,35.7772666" id="Fill-262" fill="#323948"></path>
            <path d="M97.107217,39.219574 C99.9545362,39.219574 102.262621,41.5306125 102.262621,44.3811945 C102.262621,47.2319469 99.9545362,49.5428151 97.107217,49.5428151 C94.2598979,49.5428151 91.9518128,47.2319469 91.9518128,44.3811945 C91.9518128,41.5306125 94.2598979,39.219574 97.107217,39.219574" id="Fill-263" fill="#FFFFFF"></path>
            <path d="M97.107217,41.8648875 C98.4953021,41.8648875 99.6207489,42.9915209 99.6207489,44.3812797 C99.6207489,45.7708682 98.4953021,46.8975016 97.107217,46.8975016 C95.7193021,46.8975016 94.5938553,45.7708682 94.5938553,44.3812797 C94.5938553,42.9915209 95.7193021,41.8648875 97.107217,41.8648875" id="Fill-264" fill="#323948"></path>
            <path d="M27.2244085,35.7772666 C31.9706213,35.7772666 35.8179404,39.6293952 35.8179404,44.3811605 C35.8179404,49.1330961 31.9706213,52.9852248 27.2244085,52.9852248 C22.4781957,52.9852248 18.6308766,49.1330961 18.6308766,44.3811605 C18.6308766,39.6293952 22.4781957,35.7772666 27.2244085,35.7772666" id="Fill-265" fill="#323948"></path>
            <path d="M27.2244085,39.219574 C30.0717277,39.219574 32.3798128,41.5306125 32.3798128,44.3811945 C32.3798128,47.2319469 30.0717277,49.5428151 27.2244085,49.5428151 C24.3770894,49.5428151 22.0690043,47.2319469 22.0690043,44.3811945 C22.0690043,41.5306125 24.3770894,39.219574 27.2244085,39.219574" id="Fill-266" fill="#FFFFFF"></path>
            <path d="M27.2244085,41.8648875 C28.6124936,41.8648875 29.7377702,42.9915209 29.7377702,44.3812797 C29.7377702,45.7708682 28.6124936,46.8975016 27.2244085,46.8975016 C25.8363234,46.8975016 24.7110468,45.7708682 24.7110468,44.3812797 C24.7110468,42.9915209 25.8363234,41.8648875 27.2244085,41.8648875" id="Fill-267" fill="#323948"></path>
        </g>
    </g>
</svg>