<?xml version="1.0" encoding="UTF-8"?>
<svg width="120px" height="120px" viewBox="0 0 120 120" version="1.1" xmlns="http://www.w3.org/2000/svg" xmlns:xlink="http://www.w3.org/1999/xlink">
    <!-- Generator: Sketch 51.1 (57501) - http://www.bohemiancoding.com/sketch -->
    <title>Facility3</title>
    <desc>Created with Sketch.</desc>
    <defs>
        <polygon id="path-1" points="0.0636053812 0.00198587571 9.12538117 0.00198587571 9.12538117 7.34328531 0.0636053812 7.34328531"></polygon>
        <polygon id="path-3" points="0.270672646 0.0424011299 40.5115695 0.0424011299 40.5115695 8.53964124 0.270672646 8.53964124"></polygon>
        <polygon id="path-5" points="0.177793722 0.0613474576 25.4009327 0.0613474576 25.4009327 24.1525424 0.177793722 24.1525424"></polygon>
    </defs>
    <g id="Facility3" stroke="none" stroke-width="1" fill="none" fill-rule="evenodd">
        <g id="Page-1" transform="translate(0.000000, 13.000000)">
            <path d="M93.6212556,59.5291469 L89.1295964,59.5291469 C88.8024215,59.5291469 88.5376682,59.2650791 88.5376682,58.937678 L88.5376682,55.521435 C88.5376682,55.1945706 88.8024215,54.9305028 89.1295964,54.9305028 C89.4573094,54.9305028 89.7220628,55.1945706 89.7220628,55.521435 L89.7220628,58.3467458 L93.0282511,58.3467458 L93.0282511,55.521435 C93.0282511,55.1945706 93.2935426,54.9305028 93.6212556,54.9305028 C93.9468161,54.9305028 94.2121076,55.1945706 94.2121076,55.521435 L94.2121076,58.937678 C94.2121076,59.2650791 93.9468161,59.5291469 93.6212556,59.5291469" id="Fill-1" fill="#571407"></path>
            <path d="M32.2709596,54.8191864 L27.7798386,54.8191864 C27.4526637,54.8191864 27.1873722,54.5535085 27.1873722,54.2277175 L27.1873722,50.8104011 C27.1873722,50.4846102 27.4526637,50.2189322 27.7798386,50.2189322 C28.1064753,50.2189322 28.3717668,50.4846102 28.3717668,50.8104011 L28.3717668,53.6367853 L31.6784933,53.6367853 L31.6784933,50.8104011 C31.6784933,50.4846102 31.9432466,50.2189322 32.2709596,50.2189322 C32.5975964,50.2189322 32.8639641,50.4846102 32.8639641,50.8104011 L32.8639641,54.2277175 C32.8639641,54.5535085 32.5975964,54.8191864 32.2709596,54.8191864" id="Fill-3" fill="#571407"></path>
            <path d="M105.101973,63.2720932 L100.195426,63.2720932 C99.8370404,63.2720932 99.5475336,62.9822627 99.5475336,62.6264153 L99.5475336,58.8913588 C99.5475336,58.5355113 99.8370404,58.2456808 100.195426,58.2456808 C100.552735,58.2456808 100.84278,58.5355113 100.84278,58.8913588 L100.84278,61.9796638 L104.455157,61.9796638 L104.455157,58.8913588 C104.455157,58.5355113 104.745202,58.2456808 105.101973,58.2456808 C105.460897,58.2456808 105.749865,58.5355113 105.749865,58.8913588 L105.749865,62.6264153 C105.749865,62.9822627 105.460897,63.2720932 105.101973,63.2720932" id="Fill-5" fill="#571407"></path>
            <path d="M21.5023318,58.6077006 L16.5952466,58.6077006 C16.236861,58.6077006 15.9473543,58.3189435 15.9473543,57.9620226 L15.9473543,54.2280395 C15.9473543,53.8705819 16.236861,53.5823616 16.5952466,53.5823616 C16.9520179,53.5823616 17.2426009,53.8705819 17.2426009,54.2280395 L17.2426009,57.3168814 L20.8544395,57.3168814 L20.8544395,54.2280395 C20.8544395,53.8705819 21.1444843,53.5823616 21.5023318,53.5823616 C21.8601794,53.5823616 22.1496861,53.8705819 22.1496861,54.2280395 L22.1496861,57.9620226 C22.1496861,58.3189435 21.8601794,58.6077006 21.5023318,58.6077006" id="Fill-7" fill="#571407"></path>
            <g id="Group-11" transform="translate(110.852018, 61.680763)">
                <mask id="mask-2" fill="white">
                    <use xlink:href="#path-1"></use>
                </mask>
                <g id="Clip-10"></g>
                <path d="M8.17947982,7.34328531 L1.00961435,7.34328531 C0.487641256,7.34328531 0.0636053812,6.92195763 0.0636053812,6.40026271 L0.0636053812,0.945545198 C0.0636053812,0.424923729 0.487641256,0.00198587571 1.00961435,0.00198587571 C1.53212556,0.00198587571 1.95616143,0.424923729 1.95616143,0.945545198 L1.95616143,5.45724011 L7.23347085,5.45724011 L7.23347085,0.945545198 C7.23347085,0.424923729 7.65696861,0.00198587571 8.17947982,0.00198587571 C8.70199103,0.00198587571 9.12548879,0.424923729 9.12548879,0.945545198 L9.12548879,6.40026271 C9.12548879,6.92195763 8.70199103,7.34328531 8.17947982,7.34328531" id="Fill-9" fill="#571407" mask="url(#mask-2)"></path>
            </g>
            <path d="M8.11485202,66.2974407 L0.945524664,66.2974407 C0.423013453,66.2974407 5.38116592e-05,65.8739661 5.38116592e-05,65.3544181 L5.38116592e-05,59.8980904 C5.38116592e-05,59.3774689 0.423013453,58.9545311 0.945524664,58.9545311 C1.46749776,58.9545311 1.89207175,59.3774689 1.89207175,59.8980904 L1.89207175,64.410322 L7.16938117,64.410322 L7.16938117,59.8980904 C7.16938117,59.3774689 7.59234081,58.9545311 8.11485202,58.9545311 C8.63736323,58.9545311 9.06032287,59.3774689 9.06032287,59.8980904 L9.06032287,65.3544181 C9.06032287,65.8739661 8.63736323,66.2974407 8.11485202,66.2974407" id="Fill-12" fill="#571407"></path>
            <path d="M80.7127534,54.735887 L76.2216323,54.735887 C75.9149058,54.735887 75.6657578,54.4873842 75.6657578,54.1819887 L75.6657578,50.7641356 C75.6657578,50.4582034 75.9149058,50.2102373 76.2216323,50.2102373 C76.5283587,50.2102373 76.7775067,50.4582034 76.7775067,50.7641356 L76.7775067,53.6275537 L80.1568789,53.6275537 L80.1568789,50.7641356 C80.1568789,50.4582034 80.4060269,50.2102373 80.7127534,50.2102373 C81.0184036,50.2102373 81.2675516,50.4582034 81.2675516,50.7641356 L81.2675516,54.1819887 C81.2675516,54.4873842 81.0184036,54.735887 80.7127534,54.735887" id="Fill-14" fill="#571407"></path>
            <path d="M44.6526457,47.6237684 L40.1615247,47.6237684 C39.8547982,47.6237684 39.6061883,47.3768757 39.6061883,47.0698701 L39.6061883,43.6536271 C39.6061883,43.3466215 39.8547982,43.0986554 40.1615247,43.0986554 C40.4682511,43.0986554 40.7173991,43.3466215 40.7173991,43.6536271 L40.7173991,46.5165085 L44.0967713,46.5165085 L44.0967713,43.6536271 C44.0967713,43.3466215 44.3459193,43.0986554 44.6526457,43.0986554 C44.9588341,43.0986554 45.2074439,43.3466215 45.2074439,43.6536271 L45.2074439,47.0698701 C45.2074439,47.3768757 44.9588341,47.6237684 44.6526457,47.6237684" id="Fill-16" fill="#571407"></path>
            <path d="M89.1292735,56.4220565 C88.960843,56.4220565 88.8085561,56.3055876 88.7681973,56.1349096 L81.2690045,23.8944859 C81.2248789,23.7050226 81.3351928,23.5150226 81.5219193,23.4581299 C81.7070314,23.4023107 81.9055964,23.4978475 81.9750135,23.6803333 L93.9669417,55.0195989 C94.0395874,55.2106723 93.9438027,55.4237514 93.7516951,55.4956723 C93.562278,55.5692034 93.3470314,55.4742034 93.2743857,55.2831299 L83.214296,28.9901356 L89.4898117,55.9690621 C89.5360897,56.167113 89.4117848,56.3657006 89.2126816,56.411322 C89.1857758,56.4182994 89.1567175,56.4220565 89.1292735,56.4220565" id="Fill-18" fill="#571407"></path>
            <path d="M76.2207713,51.6753842 C76.0421166,51.6753842 75.8855247,51.5476441 75.8559283,51.3651582 L72.2505471,29.2269379 C72.2193363,29.0396215 72.3355695,28.8608927 72.5201435,28.8104407 C72.7031031,28.7626723 72.8935964,28.8592825 72.9624753,29.0364011 L81.0584395,50.2750734 C81.1310852,50.4656102 81.0353004,50.6786893 80.8442691,50.7516836 C80.6526996,50.8236045 80.4390673,50.7280678 80.3664215,50.5386045 L73.565704,32.7000734 L76.5877668,51.2481525 C76.6195157,51.4483503 76.482296,51.6383503 76.2805022,51.6700169 C76.2605919,51.6743107 76.2401435,51.6753842 76.2207713,51.6753842" id="Fill-20" fill="#571407"></path>
            <path d="M100.19478,59.5422429 C100.031193,59.5422429 99.8805202,59.4327514 99.8369327,59.266904 L90.2433901,23.0429209 C90.1938834,22.8550678 90.2988161,22.6597006 90.4850045,22.5985141 C90.6711928,22.536791 90.8719103,22.6312542 90.9456323,22.8105198 L105.44626,58.7537966 C105.521596,58.9432599 105.430655,59.1579492 105.2407,59.2347006 C105.052359,59.3098418 104.836036,59.2191356 104.759623,59.0296723 L92.4798027,28.5937119 L100.552628,59.0785141 C100.605363,59.2754915 100.486978,59.4778362 100.290027,59.530435 C100.258278,59.5384859 100.225991,59.5422429 100.19478,59.5422429" id="Fill-22" fill="#571407"></path>
            <path d="M111.83209,63.4749209 C111.678726,63.4749209 111.534511,63.377774 111.482314,63.2242712 L97.4363946,22.0833672 C97.3745112,21.9003446 97.4638386,21.7006836 97.6424933,21.6239322 C97.8189955,21.5493277 98.0261704,21.6217853 98.1160359,21.793 L118.934691,61.7547232 C119.029399,61.9345254 118.958368,62.1578023 118.777022,62.2517288 C118.595139,62.3461921 118.371283,62.2764181 118.27765,62.0944689 L99.7153184,26.4662486 L112.182942,62.9870395 C112.248054,63.1802599 112.145274,63.3906554 111.95209,63.4555989 C111.912807,63.4684802 111.87191,63.4749209 111.83209,63.4749209" id="Fill-24" fill="#571407"></path>
            <path d="M32.2709596,50.9955706 C32.2381345,50.9955706 32.2047713,50.9907401 32.1719462,50.9821525 C31.9749955,50.9274068 31.8593004,50.7239887 31.9131121,50.5270113 L38.346296,27.3588192 L28.1193901,50.6810508 C28.0365202,50.868904 27.8180448,50.952096 27.6318565,50.8715876 C27.4440538,50.7889322 27.3579552,50.5731695 27.4397489,50.3847797 L39.7518565,22.3082542 C39.8298834,22.1311356 40.0316771,22.0447232 40.215713,22.1085932 C40.3981345,22.1735367 40.5003767,22.3678305 40.4481794,22.5551469 L32.6271928,50.7245254 C32.5814529,50.888226 32.4329327,50.9955706 32.2709596,50.9955706" id="Fill-26" fill="#571407"></path>
            <path d="M44.6526457,44.0223559 C44.6235874,44.0223559 44.593991,44.0185989 44.5654709,44.0121582 C44.3663677,43.9627797 44.2436771,43.7641921 44.2921076,43.5650678 L47.3136323,31.1447571 L40.4876233,43.8269887 C40.3913004,44.0073277 40.1663677,44.0754915 39.9866368,43.9778079 C39.8052915,43.8817345 39.7380269,43.6579209 39.835426,43.4781186 L48.0282511,28.2534294 C48.1175785,28.0902655 48.313991,28.0172712 48.4878027,28.0843616 C48.6616143,28.1503785 48.7595516,28.335548 48.715426,28.515887 L45.0121076,43.7400395 C44.9712108,43.9085706 44.8189238,44.0223559 44.6526457,44.0223559" id="Fill-28" fill="#571407"></path>
            <path d="M21.6263677,54.5969831 C21.5930045,54.5969831 21.5612556,54.593226 21.5278924,54.5846384 C21.3298655,54.5304294 21.2136323,54.3264746 21.2690583,54.1300339 L28.8274439,26.6761073 L16.9345291,54.0667006 C16.8538117,54.2529435 16.6369507,54.3398927 16.4469955,54.2583107 C16.2602691,54.1788757 16.1736323,53.9598927 16.2543498,53.773113 L30.2373094,21.5707966 C30.3147982,21.3926045 30.5165919,21.3040452 30.7006278,21.3695254 C30.8830493,21.4344689 30.9858296,21.628226 30.9336323,21.8160791 L21.9826009,54.3259379 C21.9379372,54.4896384 21.7888789,54.5969831 21.6263677,54.5969831" id="Fill-30" fill="#571407"></path>
            <path d="M7.9832287,60.1382203 C7.95040359,60.1382203 7.91650224,60.135 7.8826009,60.1242655 C7.68511211,60.0700565 7.57049327,59.865565 7.62699552,59.6680508 L16.8481614,27.0390395 L1.27883408,59.2526271 C1.19004484,59.4361864 0.97103139,59.5134746 0.785381166,59.4243785 C0.601345291,59.3363559 0.522780269,59.115226 0.612107623,58.9322034 L18.0217937,22.9127119 C18.1035874,22.7388136 18.3064574,22.6583051 18.4856502,22.7270056 C18.6643049,22.7946328 18.7627803,22.9883898 18.710583,23.1724859 L8.34,59.8698588 C8.29426009,60.0324859 8.14520179,60.1382203 7.9832287,60.1382203" id="Fill-32" fill="#571407"></path>
            <g id="Group-36" transform="translate(39.820628, 0.494322)">
                <mask id="mask-4" fill="white">
                    <use xlink:href="#path-3"></use>
                </mask>
                <g id="Clip-35"></g>
                <path d="M0.270672646,8.50475424 C0.270672646,8.50475424 10.6950673,0.042240113 20.7578475,0.042240113 C30.8200897,0.042240113 40.5115695,8.53964124 40.5115695,8.53964124 L0.270672646,8.50475424 Z" id="Fill-34" fill="#EF4F22" mask="url(#mask-4)"></path>
            </g>
            <path d="M13.7238027,24.4267542 L13.1071211,13.8377429 C13.1071211,13.8377429 29.2802152,8.04757345 62.122009,8.04757345 C94.9632646,8.04757345 106.074834,12.9746921 106.074834,12.9746921 L105.407031,23.5438446 L13.7238027,24.4267542 Z" id="Fill-37" fill="#FFC510"></path>
            <path d="M51.1668161,34.1836836 C48.3212556,32.8386554 36.1883408,31.2354633 36.1883408,31.2354633 C36.1883408,31.2354633 34.6886099,28.0333729 28.9027803,27.0479492 C23.118565,26.0630621 13.71713,24.4620169 13.71713,24.4620169 C13.71713,24.4620169 20.261704,19.1667062 59.8934529,18.920887 C99.5246637,18.6739944 105.407354,23.5442203 105.407354,23.5442203 C105.407354,23.5442203 91.296861,26.2525254 84.3842152,30.5608023 C77.0513004,30.8726384 69.0295964,34.3141073 69.0295964,34.3141073 C69.0295964,34.3141073 53.2643946,35.2297571 51.1668161,34.1836836" id="Fill-39" fill="#571407"></path>
            <path d="M23.7249686,16.9660876 C23.7249686,18.9041949 22.1499013,20.4751836 20.2078386,20.4751836 C18.2657758,20.4751836 16.6907085,18.9041949 16.6907085,16.9660876 C16.6907085,15.0295904 18.2657758,13.4591384 20.2078386,13.4591384 C22.1499013,13.4591384 23.7249686,15.0295904 23.7249686,16.9660876" id="Fill-41" fill="#FFFFFF"></path>
            <path d="M20.2080538,14.0130367 C18.57487,14.0130367 17.2462601,15.3382062 17.2462601,16.9660876 C17.2462601,18.5955791 18.57487,19.9207486 20.2080538,19.9207486 C21.8406996,19.9207486 23.1693094,18.5955791 23.1693094,16.9660876 C23.1693094,15.3382062 21.8406996,14.0130367 20.2080538,14.0130367 M20.2080538,21.0296186 C17.9619552,21.0296186 16.1355874,19.2063701 16.1355874,16.9660876 C16.1355874,14.7268785 17.9619552,12.9052401 20.2080538,12.9052401 C22.4530762,12.9052401 24.2805202,14.7268785 24.2805202,16.9660876 C24.2805202,19.2063701 22.4530762,21.0296186 20.2080538,21.0296186" id="Fill-43" fill="#ED2626"></path>
            <path d="M37.0591211,14.8736723 C37.0591211,16.8101695 35.4845919,18.3816949 33.541991,18.3816949 C31.5999283,18.3816949 30.0259372,16.8101695 30.0259372,14.8736723 C30.0259372,12.9366384 31.5999283,11.3661864 33.541991,11.3661864 C35.4845919,11.3661864 37.0591211,12.9366384 37.0591211,14.8736723" id="Fill-45" fill="#FFFFFF"></path>
            <path d="M33.5419372,11.9196017 C31.9098296,11.9196017 30.5817578,13.2447712 30.5817578,14.873726 C30.5817578,16.5021441 31.9098296,17.8273136 33.5419372,17.8273136 C35.1751211,17.8273136 36.5026547,16.5021441 36.5026547,14.873726 C36.5026547,13.2447712 35.1751211,11.9196017 33.5419372,11.9196017 M33.5419372,18.9345734 C31.2969148,18.9345734 29.4694709,17.1140085 29.4694709,14.873726 C29.4694709,12.6339802 31.2969148,10.8112684 33.5419372,10.8112684 C35.7880359,10.8112684 37.6144036,12.6339802 37.6144036,14.873726 C37.6144036,17.1140085 35.7880359,18.9345734 33.5419372,18.9345734" id="Fill-47" fill="#ED2626"></path>
            <path d="M50.1221166,13.7824068 C50.1221166,15.7194407 48.5465112,17.2898927 46.6039103,17.2898927 C44.6618475,17.2898927 43.0867803,15.7194407 43.0867803,13.7824068 C43.0867803,11.8442994 44.6618475,10.2738475 46.6039103,10.2738475 C48.5465112,10.2738475 50.1221166,11.8442994 50.1221166,13.7824068" id="Fill-49" fill="#FFFFFF"></path>
            <path d="M46.6038565,10.8278531 C44.9712108,10.8278531 43.6426009,12.154096 43.6426009,13.7825141 C43.6426009,15.4103955 44.9712108,16.7361017 46.6038565,16.7361017 C48.2365022,16.7361017 49.5651121,15.4103955 49.5651121,13.7825141 C49.5651121,12.154096 48.2365022,10.8278531 46.6038565,10.8278531 M46.6038565,17.844435 C44.3593722,17.844435 42.5313901,16.0227966 42.5313901,13.7825141 C42.5313901,11.5433051 44.3593722,9.71951977 46.6038565,9.71951977 C48.849417,9.71951977 50.676861,11.5433051 50.676861,13.7825141 C50.676861,16.0227966 48.849417,17.844435 46.6038565,17.844435" id="Fill-51" fill="#ED2626"></path>
            <path d="M63.1073004,13.4590311 C63.1073004,15.3966017 61.5327713,16.9659802 59.5907085,16.9659802 C57.6481076,16.9659802 56.0741166,15.3966017 56.0741166,13.4590311 C56.0741166,11.5214605 57.6481076,9.9515452 59.5907085,9.9515452 C61.5327713,9.9515452 63.1073004,11.5214605 63.1073004,13.4590311" id="Fill-53" fill="#FFFFFF"></path>
            <path d="M59.5906547,10.5049605 C57.958009,10.5049605 56.628861,11.8301299 56.628861,13.4590847 C56.628861,15.0869661 57.958009,16.4137458 59.5906547,16.4137458 C61.2238386,16.4137458 62.5524484,15.0869661 62.5524484,13.4590847 C62.5524484,11.8301299 61.2238386,10.5049605 59.5906547,10.5049605 M59.5906547,17.5210056 C57.3445561,17.5210056 55.5192646,15.6993672 55.5192646,13.4590847 C55.5192646,11.2182655 57.3445561,9.39770056 59.5906547,9.39770056 C61.8372915,9.39770056 63.6631211,11.2182655 63.6631211,13.4590847 C63.6631211,15.6993672 61.8372915,17.5210056 59.5906547,17.5210056" id="Fill-55" fill="#ED2626"></path>
            <path d="M76.6800538,13.4590311 C76.6800538,15.3966017 75.1066009,16.9659802 73.164,16.9659802 C71.220861,16.9659802 69.6479462,15.3966017 69.6479462,13.4590311 C69.6479462,11.5214605 71.220861,9.9515452 73.164,9.9515452 C75.1066009,9.9515452 76.6800538,11.5214605 76.6800538,13.4590311" id="Fill-57" fill="#FFFFFF"></path>
            <path d="M73.1638924,10.5054972 C71.5323229,10.5054972 70.203713,11.8301299 70.203713,13.4590847 C70.203713,15.0869661 71.5323229,16.4137458 73.1638924,16.4137458 C74.7965381,16.4137458 76.125148,15.0869661 76.125148,13.4590847 C76.125148,11.8301299 74.7965381,10.5054972 73.1638924,10.5054972 M73.1638924,17.5210056 C70.9183318,17.5210056 69.091426,15.6993672 69.091426,13.4590847 C69.091426,11.2188023 70.9183318,9.39770056 73.1638924,9.39770056 C75.4094529,9.39770056 77.2358206,11.2188023 77.2358206,13.4590847 C77.2358206,15.6993672 75.4094529,17.5210056 73.1638924,17.5210056" id="Fill-59" fill="#ED2626"></path>
            <path d="M90.601722,14.567096 C90.601722,16.5052034 89.0266547,18.0751186 87.0845919,18.0751186 C85.1425291,18.0751186 83.5674619,16.5052034 83.5674619,14.567096 C83.5674619,12.6295254 85.1425291,11.0596102 87.0845919,11.0596102 C89.0266547,11.0596102 90.601722,12.6295254 90.601722,14.567096" id="Fill-61" fill="#FFFFFF"></path>
            <path d="M87.0845381,11.6130254 C85.4518924,11.6130254 84.1238206,12.9392684 84.1238206,14.5671497 C84.1238206,16.1955678 85.4518924,17.521274 87.0845381,17.521274 C88.717722,17.521274 90.0463318,16.1955678 90.0463318,14.5671497 C90.0463318,12.9392684 88.717722,11.6130254 87.0845381,11.6130254 M87.0845381,18.6301441 C84.8389776,18.6301441 83.0120717,16.8068955 83.0120717,14.5671497 C83.0120717,12.3268672 84.8389776,10.5057655 87.0845381,10.5057655 C89.3311749,10.5057655 91.1564664,12.3268672 91.1564664,14.5671497 C91.1564664,16.8068955 89.3311749,18.6301441 87.0845381,18.6301441" id="Fill-63" fill="#ED2626"></path>
            <path d="M103.179121,16.2380226 C103.179121,18.1745198 101.60513,19.7460452 99.6625291,19.7460452 C97.7199283,19.7460452 96.1459372,18.1745198 96.1459372,16.2380226 C96.1459372,14.3009887 97.7199283,12.73 99.6625291,12.73 C101.60513,12.73 103.179121,14.3009887 103.179121,16.2380226" id="Fill-65" fill="#FFFFFF"></path>
            <path d="M99.6624753,13.2844887 C98.0292915,13.2844887 96.7006816,14.6085847 96.7006816,16.2380763 C96.7006816,17.8670311 98.0292915,19.1922006 99.6624753,19.1922006 C101.294583,19.1922006 102.623731,17.8670311 102.623731,16.2380763 C102.623731,14.6085847 101.294583,13.2844887 99.6624753,13.2844887 M99.6624753,20.2994605 C97.4169148,20.2994605 95.590009,18.4783588 95.590009,16.2380763 C95.590009,13.9983305 97.4169148,12.1756186 99.6624753,12.1756186 C101.908574,12.1756186 103.734942,13.9983305 103.734942,16.2380763 C103.734942,18.4783588 101.908574,20.2994605 99.6624753,20.2994605" id="Fill-67" fill="#ED2626"></path>
            <polygon id="Fill-69" fill="#EF4F22" points="61.2470314 43.5144548 61.1921435 43.5144548 50.2694529 43.5144548 50.2694529 66.7883814 61.1921435 66.7883814 61.2470314 66.7883814 72.169722 66.7883814 72.169722 43.5144548"></polygon>
            <polygon id="Fill-71" fill="#571407" points="72.1670314 66.750274 61.4364484 66.6740593 61.4364484 66.6713757 61.2470314 66.6729859 61.2470314 66.6724492 61.2195874 66.6729859 61.1921435 66.6724492 61.1921435 66.6729859 61.0038027 66.6713757 61.0038027 66.6740593 50.2721435 66.750274 48.608287 70.7880424 48.608287 70.866404 61.1921435 70.866404 61.2470314 70.866404 73.831426 70.866404 73.831426 70.7880424"></polygon>
            <g id="Group-75" transform="translate(48.430493, 70.805056)">
                <mask id="mask-6" fill="white">
                    <use xlink:href="#path-5"></use>
                </mask>
                <g id="Clip-74"></g>
                <polygon id="Fill-73" fill="#FFC510" mask="url(#mask-6)" points="12.8165381 0.0613474576 12.7616502 0.0613474576 0.177793722 0.0613474576 0.177793722 24.1527034 12.5733094 24.1527034 12.7616502 24.1527034 12.8165381 24.1527034 13.0059552 24.1527034 25.4009327 24.1527034 25.4009327 0.0613474576"></polygon>
            </g>
            <path d="M79.7090583,31.0865226 C79.7090583,31.0865226 75.3799103,25.9044605 62.5399103,25.9044605 L59.8993722,25.9044605 C47.0593722,25.9044605 42.3352466,32.0955621 42.3352466,32.0955621 L50.146009,45.8539237 L61.2199103,45.6059576 L72.2938117,45.8539237 L79.7090583,31.0865226 Z" id="Fill-76" fill="#EBB712"></path>
            <path d="M52.1594798,45.3610508 C52.1594798,46.8912486 50.9164305,48.1321525 49.381722,48.1321525 C47.8475516,48.1321525 46.6039641,46.8912486 46.6039641,45.3610508 C46.6039641,43.8313898 47.8475516,42.5915593 49.381722,42.5915593 C50.9164305,42.5915593 52.1594798,43.8313898 52.1594798,45.3610508" id="Fill-78" fill="#FFFFFF"></path>
            <path d="M57.7161794,45.3610508 C57.7161794,46.8912486 56.4720538,48.1321525 54.9389596,48.1321525 C53.403713,48.1321525 52.1595874,46.8912486 52.1595874,45.3610508 C52.1595874,43.8313898 53.403713,42.5915593 54.9389596,42.5915593 C56.4720538,42.5915593 57.7161794,43.8313898 57.7161794,45.3610508" id="Fill-80" fill="#FFFFFF"></path>
            <path d="M63.5035695,45.3610508 C63.5035695,46.8912486 62.2599821,48.1321525 60.7247354,48.1321525 C59.1900269,48.1321525 57.9469776,46.8912486 57.9469776,45.3610508 C57.9469776,43.8313898 59.1900269,42.5915593 60.7247354,42.5915593 C62.2599821,42.5915593 63.5035695,43.8313898 63.5035695,45.3610508" id="Fill-82" fill="#FFFFFF"></path>
            <path d="M69.0591928,45.3610508 C69.0591928,46.8912486 67.8150673,48.1321525 66.2803587,48.1321525 C64.7467265,48.1321525 63.5036771,46.8912486 63.5036771,45.3610508 C63.5036771,43.8313898 64.7467265,42.5915593 66.2803587,42.5915593 C67.8150673,42.5915593 69.0591928,43.8313898 69.0591928,45.3610508" id="Fill-84" fill="#FFFFFF"></path>
            <path d="M74.6148161,45.0853362 C74.6148161,46.6149972 73.3712287,47.854291 71.8365202,47.854291 C70.3023498,47.854291 69.0593004,46.6149972 69.0593004,45.0853362 C69.0593004,43.5535282 70.3023498,42.3136977 71.8365202,42.3136977 C73.3712287,42.3136977 74.6148161,43.5535282 74.6148161,45.0853362" id="Fill-86" fill="#FFFFFF"></path>
            <path d="M49.3816682,43.1444379 C48.1563767,43.1444379 47.1592466,44.1395226 47.1592466,45.3611045 C47.1592466,46.5842966 48.1563767,47.5788446 49.3816682,47.5788446 C50.6069596,47.5788446 51.6051659,46.5842966 51.6051659,45.3611045 C51.6051659,44.1395226 50.6069596,43.1444379 49.3816682,43.1444379 M49.3816682,48.6861045 C47.5434619,48.6861045 46.0491121,47.1940141 46.0491121,45.3611045 C46.0491121,43.5281949 47.5434619,42.0366412 49.3816682,42.0366412 C51.2193363,42.0366412 52.7153004,43.5281949 52.7153004,45.3611045 C52.7153004,47.1940141 51.2193363,48.6861045 49.3816682,48.6861045" id="Fill-88" fill="#ED2626"></path>
            <path d="M54.9389058,43.1444379 C53.7125381,43.1444379 52.7154081,44.1395226 52.7154081,45.3611045 C52.7154081,46.5842966 53.7125381,47.5788446 54.9389058,47.5788446 C56.1631211,47.5788446 57.1602511,46.5842966 57.1602511,45.3611045 C57.1602511,44.1395226 56.1631211,43.1444379 54.9389058,43.1444379 M54.9389058,48.6861045 C53.0996233,48.6861045 51.6052735,47.1940141 51.6052735,45.3611045 C51.6052735,43.5281949 53.0996233,42.0366412 54.9389058,42.0366412 C56.7760359,42.0366412 58.2714619,43.5281949 58.2714619,45.3611045 C58.2714619,47.1940141 56.7760359,48.6861045 54.9389058,48.6861045" id="Fill-90" fill="#ED2626"></path>
            <path d="M60.7246816,43.1444379 C59.5004664,43.1444379 58.5027982,44.1395226 58.5027982,45.3611045 C58.5027982,46.5842966 59.5004664,47.5788446 60.7246816,47.5788446 C61.9499731,47.5788446 62.9476413,46.5842966 62.9476413,45.3611045 C62.9476413,44.1395226 61.9499731,43.1444379 60.7246816,43.1444379 M60.7246816,48.6861045 C58.8870135,48.6861045 57.3915874,47.1940141 57.3915874,45.3611045 C57.3915874,43.5281949 58.8870135,42.0366412 60.7246816,42.0366412 C62.5628879,42.0366412 64.0593901,43.5281949 64.0593901,45.3611045 C64.0593901,47.1940141 62.5628879,48.6861045 60.7246816,48.6861045" id="Fill-92" fill="#ED2626"></path>
            <path d="M66.2803049,43.1444379 C65.0550135,43.1444379 64.0594978,44.1395226 64.0594978,45.3611045 C64.0594978,46.5842966 65.0550135,47.5788446 66.2803049,47.5788446 C67.5055964,47.5788446 68.5038027,46.5842966 68.5038027,45.3611045 C68.5038027,44.1395226 67.5055964,43.1444379 66.2803049,43.1444379 M66.2803049,48.6861045 C64.4431749,48.6861045 62.9477489,47.1940141 62.9477489,45.3611045 C62.9477489,43.5281949 64.4431749,42.0366412 66.2803049,42.0366412 C68.1185112,42.0366412 69.6139372,43.5281949 69.6139372,45.3611045 C69.6139372,47.1940141 68.1185112,48.6861045 66.2803049,48.6861045" id="Fill-94" fill="#ED2626"></path>
            <path d="M71.8364664,42.8677034 C70.6111749,42.8677034 69.6140448,43.8627881 69.6140448,45.0854435 C69.6140448,46.3070254 70.6111749,47.3005 71.8364664,47.3005 C73.0617578,47.3005 74.0599641,46.3070254 74.0599641,45.0854435 C74.0599641,43.8627881 73.0617578,42.8677034 71.8364664,42.8677034 M71.8364664,48.4088333 C69.9987982,48.4088333 68.5039103,46.9172797 68.5039103,45.0854435 C68.5039103,43.250387 69.9987982,41.7593701 71.8364664,41.7593701 C73.6752108,41.7593701 75.1700987,43.250387 75.1700987,45.0854435 C75.1700987,46.9172797 73.6752108,48.4088333 71.8364664,48.4088333" id="Fill-96" fill="#ED2626"></path>
        </g>
    </g>
</svg>