<?xml version="1.0" encoding="UTF-8"?>
<svg width="480px" height="360px" viewBox="0 0 480 360" version="1.1" xmlns="http://www.w3.org/2000/svg" xmlns:xlink="http://www.w3.org/1999/xlink">
    <!-- Generator: Sketch 51.1 (57501) - http://www.bohemiancoding.com/sketch -->
    <title>Night1</title>
    <desc>Created with Sketch.</desc>
    <defs>
        <polygon id="path-1" points="0.789831805 0.186213657 633.757457 0.186213657 633.757457 109.823063 0.789831805 109.823063"></polygon>
        <polygon id="path-3" points="0 509.893939 997.654351 509.893939 997.654351 0.186213657 0 0.186213657"></polygon>
    </defs>
    <g id="Night1" stroke="none" stroke-width="1" fill="none" fill-rule="evenodd">
        <g id="Group" transform="translate(-238.000000, -16.000000)">
            <polygon id="Fill-1" fill="#351D55" points="235 500 721 500 721 11 235 11"></polygon>
            <g id="Group-244">
                <g id="Group-4" transform="translate(145.075122, 0.000000)">
                    <mask id="mask-2" fill="white">
                        <use xlink:href="#path-1"></use>
                    </mask>
                    <g id="Clip-3"></g>
                    <path d="M0.789831805,92.0908427 C0.789831805,101.884121 8.71833327,109.823063 18.4987333,109.823063 L469.910199,109.823063 C479.690599,109.823063 487.6191,101.884121 487.6191,92.0908427 C487.6191,82.2975643 495.548575,74.3595978 505.328002,74.3595978 L616.048556,74.3595978 C625.828956,74.3595978 633.757457,66.4196815 633.757457,56.627378 L633.757457,55.0041019 C633.757457,45.2117984 625.828956,37.2718821 616.048556,37.2718821 L479.960302,37.2718821 C470.179902,37.2718821 462.251401,29.3329407 462.251401,19.5396622 L462.251401,17.917361 C462.251401,8.12408261 454.322899,0.186116163 444.543473,0.186116163 L97.535465,0.186116163 C87.755065,0.186116163 79.8275372,8.12408261 79.8275372,17.917361 L79.8275372,19.5396622 C79.8275372,29.3329407 87.755065,37.2718821 97.535465,37.2718821 L108.522228,37.2718821 C118.301654,37.2718821 126.230156,45.2117984 126.230156,55.0041019 C126.230156,64.7973803 118.301654,72.7363217 108.522228,72.7363217 L18.4987333,72.7363217 C8.71833327,72.7363217 0.789831805,80.6752631 0.789831805,90.4685415" id="Fill-2" fill="#3E1D52" mask="url(#mask-2)"></path>
                </g>
                <path d="M145.864954,99.4062121 C145.864954,103.654028 149.304889,107.098494 153.54712,107.098494 L183.401438,107.098494 C187.644642,107.098494 191.083604,110.541984 191.083604,114.790775 C191.083604,119.039566 194.523539,122.483056 198.766743,122.483056 L394.596737,122.483056 C398.838967,122.483056 402.278903,119.039566 402.278903,114.790775 L402.278903,114.086868 C402.278903,109.839052 398.838967,106.394586 394.596737,106.394586 L321.354247,106.394586 C317.111044,106.394586 313.672082,102.951096 313.672082,98.702305 C313.672082,94.4535138 317.111044,91.0100236 321.354247,91.0100236 L350.881416,91.0100236 C355.123646,91.0100236 358.563582,87.5655584 358.563582,83.3177421 L358.563582,82.6128601 C358.563582,78.3650438 355.123646,74.9205787 350.881416,74.9205787 L241.491853,74.9205787 C237.249623,74.9205787 233.809687,78.3650438 233.809687,82.6128601 L233.809687,83.3177421 C233.809687,87.5655584 230.370725,91.0100236 226.127522,91.0100236 L153.54712,91.0100236 C149.304889,91.0100236 145.864954,94.4535138 145.864954,98.702305" id="Fill-10" fill="#281640"></path>
                <path d="M646.964454,65.3323302 C646.964454,61.084514 650.404389,57.6400488 654.647593,57.6400488 L684.174762,57.6400488 C688.416992,57.6400488 691.855954,54.1955836 691.855954,49.9477674 L691.855954,49.2438603 C691.855954,44.9950691 688.416992,41.5506039 684.174762,41.5506039 L574.785199,41.5506039 C570.542969,41.5506039 567.103033,44.9950691 567.103033,49.2438603 L567.103033,49.9477674 C567.103033,54.1955836 563.663098,57.6400488 559.420867,57.6400488 L486.840465,57.6400488 C482.598235,57.6400488 479.1583,61.084514 479.1583,65.3323302 L479.1583,66.0362373 C479.1583,70.2850285 482.598235,73.7285188 486.840465,73.7285188 L516.694783,73.7285188 C520.937014,73.7285188 524.376949,77.1729839 524.376949,81.4208002 C524.376949,85.6695914 527.816885,89.1140565 532.059115,89.1140565 L727.889109,89.1140565 C732.132313,89.1140565 735.572249,85.6695914 735.572249,81.4208002 L735.572249,80.7168931 C735.572249,76.4690768 732.132313,73.0246116 727.889109,73.0246116 L654.647593,73.0246116 C650.404389,73.0246116 646.964454,69.5811214 646.964454,65.3323302" id="Fill-12" fill="#281640"></path>
                <path d="M774.856937,380.751844 C774.856937,376.504027 778.295899,373.058587 782.539102,373.058587 L792.165664,373.058587 C796.409842,373.058587 799.848804,369.615097 799.848804,365.367281 L799.848804,364.662399 C799.848804,360.414583 796.409842,356.970117 792.165664,356.970117 L641.628318,356.970117 C637.386088,356.970117 633.946152,360.414583 633.946152,364.662399 L633.946152,365.367281 C633.946152,369.615097 637.386088,373.058587 641.628318,373.058587 L646.39535,373.058587 C650.63758,373.058587 654.076542,376.504027 654.076542,380.751844 C654.076542,384.99966 650.63758,388.4451 646.39535,388.4451 L607.340933,388.4451 C603.098702,388.4451 599.658767,391.88859 599.658767,396.136407 L599.658767,396.840314 C599.658767,401.08813 603.098702,404.53357 607.340933,404.53357 L803.170927,404.53357 C807.414131,404.53357 810.854066,401.08813 810.854066,396.840314 L810.854066,396.136407 C810.854066,391.88859 807.414131,388.4451 803.170927,388.4451 L782.539102,388.4451 C778.295899,388.4451 774.856937,384.99966 774.856937,380.751844" id="Fill-16" fill="#281640"></path>
                <path d="M144.458212,418.028015 L340.288206,418.028015 C344.53141,418.028015 347.971346,414.584525 347.971346,410.335734 C347.971346,406.086943 351.410308,402.643453 355.653511,402.643453 L403.686034,402.643453 C407.928265,402.643453 411.3682,399.199962 411.3682,394.950196 L411.3682,394.246289 C411.3682,389.998473 407.928265,386.554983 403.686034,386.554983 L344.648249,386.554983 C340.406019,386.554983 336.966083,383.110518 336.966083,378.861726 L336.966083,378.157819 C336.966083,373.910003 333.526148,370.465538 329.283917,370.465538 L178.745597,370.465538 C174.503367,370.465538 171.063431,373.910003 171.063431,378.157819 L171.063431,378.861726 C171.063431,383.110518 174.503367,386.554983 178.745597,386.554983 L183.511656,386.554983 C187.75486,386.554983 191.193822,389.998473 191.193822,394.246289 C191.193822,398.49508 187.75486,401.939546 183.511656,401.939546 L144.458212,401.939546" id="Fill-18" fill="#281640"></path>
                <path d="M997.65367,249.196185 L833.701256,249.196185 C821.919014,249.196185 812.36645,239.632018 812.36645,227.833286 L812.36645,225.87853 C812.36645,214.080774 802.81486,204.515632 791.031644,204.515632 L372.974799,204.515632 C361.191584,204.515632 351.639994,214.080774 351.639994,225.87853 L351.639994,227.833286 C351.639994,239.632018 361.191584,249.196185 372.974799,249.196185 L386.210714,249.196185 C397.992956,249.196185 407.545519,258.760352 407.545519,270.559084 C407.545519,282.35684 397.992956,291.921982 386.210714,291.921982 L277.754889,291.921982 C265.971674,291.921982 256.420083,301.48615 256.420083,313.284881 L256.420083,315.239637 C256.420083,327.037393 265.971674,336.601561 277.754889,336.601561 L821.594786,336.601561 C833.377028,336.601561 842.928618,327.037393 842.928618,315.239637 C842.928618,303.440906 852.480208,293.876738 864.263424,293.876738 L997.65367,293.876738" id="Fill-20" fill="#281640"></path>
                <path d="M756.334641,305.943188 L673.887183,305.943188 C669.644953,305.943188 666.205017,302.499698 666.205017,298.249932 L666.205017,297.547 C666.205017,293.298208 669.644953,289.854718 673.887183,289.854718 L756.334641,289.854718 C760.576871,289.854718 764.01778,293.298208 764.01778,297.547 L764.01778,298.249932 C764.01778,302.499698 760.576871,305.943188 756.334641,305.943188" id="Fill-22" fill="#44305E"></path>
                <path d="M911.935498,200.168372 L852.897713,200.168372 C848.655483,200.168372 845.215547,196.723906 845.215547,192.47609 L845.215547,191.772183 C845.215547,187.523392 841.775612,184.079902 837.533381,184.079902 L686.996035,184.079902 C682.752831,184.079902 679.312895,187.523392 679.312895,191.772183 L679.312895,192.47609 C679.312895,196.723906 682.752831,200.168372 686.996035,200.168372 L691.76112,200.168372 C696.005297,200.168372 699.444259,203.612837 699.444259,207.860653 C699.444259,212.109444 696.005297,215.552934 691.76112,215.552934 L652.70865,215.552934 C648.464472,215.552934 645.02551,218.9974 645.02551,223.245216 L645.02551,223.950098 C645.02551,228.197914 648.464472,231.642379 652.70865,231.642379 L848.538644,231.642379 C852.780874,231.642379 856.22081,228.197914 856.22081,223.950098 C856.22081,219.701307 859.660745,216.256842 863.902975,216.256842 L911.935498,216.256842" id="Fill-24" fill="#44305E"></path>
                <path d="M403.685742,57.6399513 L321.238285,57.6399513 C316.995081,57.6399513 313.556119,54.1954861 313.556119,49.9476699 L313.556119,49.2437628 C313.556119,44.9949716 316.995081,41.5514814 321.238285,41.5514814 L403.685742,41.5514814 C407.927972,41.5514814 411.367908,44.9949716 411.367908,49.2437628 L411.367908,49.9476699 C411.367908,54.1954861 407.927972,57.6399513 403.685742,57.6399513" id="Fill-28" fill="#412D5C"></path>
                <path d="M690.942565,122.483446 L652.707968,122.483446 C648.464764,122.483446 645.025802,119.038981 645.025802,114.791165 L645.025802,114.087258 C645.025802,109.838467 648.464764,106.394976 652.707968,106.394976 L690.942565,106.394976 C695.184795,106.394976 698.625705,109.838467 698.625705,114.087258 L698.625705,114.791165 C698.625705,119.038981 695.184795,122.483446 690.942565,122.483446" id="Fill-30" fill="#44305E"></path>
                <polygon id="Fill-44" fill="#704388" points="302.031215 36.8985773 299.008979 38.4867555 295.987716 36.8946775 296.563148 40.2640723 294.117318 42.6478021 297.49494 43.141122 299.003137 46.2073102 300.516202 43.1440468 303.894797 42.6546267 301.451888 40.2669971"></polygon>
                <polygon id="Fill-46" fill="#704388" points="637.894338 169.758999 634.872101 171.347177 631.851813 169.755099 632.426271 173.123519 629.980441 175.508224 633.358062 176.001544 634.867233 179.067732 636.379325 176.003494 639.75792 175.515048 637.315011 173.127419"></polygon>
                <polygon id="Fill-48" fill="#704388" points="262.589476 265.685941 262.423954 269.100183 259.521478 270.899923 262.713131 272.111774 263.525162 275.431447 265.663316 272.766934 269.067226 273.019444 267.196828 270.160918 268.488873 266.997236 265.194986 267.895156"></polygon>
                <polygon id="Fill-56" fill="#704388" points="275.752852 244.84093 273.360573 242.402604 274.010004 239.046858 270.954663 240.57264 267.968452 238.916216 268.472808 242.29731 265.977321 244.629368 269.344232 245.193859 270.788168 248.291245 272.365494 245.25918"></polygon>
                <polygon id="Fill-58" fill="#947A50" points="266.756053 213.429026 265.151464 211.793076 265.586689 209.541938 263.537138 210.564651 261.534322 209.454193 261.872182 211.72288 260.198463 213.286685 262.45735 213.665937 263.426141 215.743535 264.483534 213.709809"></polygon>
                <polygon id="Fill-60" fill="#947A50" points="674.008209 347.616147 672.40362 345.980197 672.838845 343.730034 670.789294 344.751772 668.786478 343.642289 669.124338 345.910001 667.450619 347.473806 669.708533 347.853058 670.677323 349.930656 671.73569 347.89693"></polygon>
                <polygon id="Fill-62" fill="#947A50" points="428.22554 94.261158 426.620951 92.6252077 427.056176 90.3750447 425.006625 91.3967825 423.003809 90.2863251 423.341669 92.5550119 421.66795 94.1188167 423.925864 94.4980686 424.895628 96.575667 425.953021 94.5419409"></polygon>
                <polygon id="Fill-64" fill="#947A50" points="422.048845 57.2705463 420.444256 55.634596 420.879481 53.384433 418.830903 54.4061708 416.827114 53.2957134 417.164974 55.5644002 415.492228 57.128205 417.750142 57.5074569 418.718933 59.5850553 419.776326 57.5513292"></polygon>
                <polygon id="Fill-66" fill="#947A50" points="582.293177 172.429654 580.688588 170.793703 581.123813 168.542566 579.074262 169.565278 577.071447 168.454821 577.409306 170.723508 575.736561 172.287312 577.994475 172.666564 578.963265 174.744163 580.020658 172.710437"></polygon>
                <polygon id="Fill-70" fill="#947A50" points="259.698878 357.800669 258.094289 356.164719 258.529515 353.914556 256.479963 354.936294 254.477148 353.826811 254.815007 356.093548 253.141288 357.658328 255.399202 358.036605 256.368966 360.114203 257.426359 358.080477"></polygon>
                <polygon id="Fill-76" fill="#947A50" points="335.838684 49.3743073 334.234095 47.7393319 334.66932 45.488194 332.619769 46.5109068 330.616953 45.4004494 330.954813 47.6681613 329.281094 49.231966 331.539981 49.6112179 332.508772 51.6888163 333.566165 49.6550902"></polygon>
                <polygon id="Fill-78" fill="#947A50" points="256.419889 60.1557856 254.815299 58.5198352 255.250525 56.2696723 253.200973 57.292385 251.198158 56.1819276 251.536017 58.4496395 249.862298 60.0134442 252.121186 60.3926961 253.089976 62.4702946 254.14737 60.4365685"></polygon>
                <polygon id="Fill-80" fill="#947A50" points="701.903818 103.887234 700.299229 102.251284 700.734454 100.001121 698.684903 101.022859 696.682087 99.9133762 697.019947 102.181088 695.346228 103.744893 697.605116 104.124145 698.573906 106.201743 699.631299 104.168017"></polygon>
                <polygon id="Fill-84" fill="#947A50" points="391.167025 146.848382 389.562436 145.212432 389.997661 142.962269 387.94811 143.984982 385.945294 142.874524 386.283154 145.142236 384.609435 146.706041 386.867349 147.085293 387.837113 149.162891 388.894506 147.129165"></polygon>
                <polygon id="Fill-86" fill="#947A50" points="356.334488 182.866003 354.729899 181.230053 355.165124 178.978915 353.115573 180.001628 351.112757 178.89117 351.450617 181.159857 349.776898 182.723662 352.035786 183.102914 353.004576 185.180512 354.061969 183.146786"></polygon>
                <polygon id="Fill-88" fill="#947A50" points="503.565582 49.3743073 501.960993 47.7393319 502.396218 45.488194 500.346667 46.5109068 498.343852 45.4004494 498.681711 47.6681613 497.007992 49.231966 499.26688 49.6112179 500.23567 51.6888163 501.293063 49.6550902"></polygon>
                <polygon id="Fill-90" fill="#947A50" points="610.411365 99.5318819 608.806776 97.8969065 609.242001 95.6457687 607.19245 96.6684814 605.189634 95.558024 605.527494 97.8257359 603.853775 99.3895406 606.112662 99.7687925 607.080479 101.846391 608.138846 99.8126648"></polygon>
                <polygon id="Fill-92" fill="#704388" points="396.594879 50.832916 394.2026 48.3945895 394.85203 45.0388439 391.79669 46.563651 388.810479 44.9082019 389.314834 48.2892959 386.819348 50.6213539 390.186259 51.1858445 391.630194 54.2832308 393.206548 51.2511655"></polygon>
                <polygon id="Fill-94" fill="#704388" points="616.907517 127.13869 614.515238 124.700364 615.164668 121.344618 612.109328 122.869425 609.124091 121.213976 609.627472 124.59507 607.132959 126.927128 610.498897 127.491619 611.942832 130.589005 613.520159 127.55694"></polygon>
                <path d="M283.218379,11.8952504 L283.218379,122.987783" id="Stroke-96" stroke="#FFE2B3"></path>
                <path d="M314.906973,11.8952504 L314.906973,122.987783" id="Stroke-98" stroke="#FFE2B3"></path>
                <path d="M346.878901,11.8952504 L346.878901,122.987783" id="Stroke-100" stroke="#FFE2B3"></path>
                <path d="M471.710201,11.8952504 L471.710201,122.987783" id="Stroke-102" stroke="#FFE2B3"></path>
                <path d="M530.225229,11.8952504 L530.225229,122.987783" id="Stroke-104" stroke="#FFE2B3"></path>
                <path d="M569.453055,11.8952504 L569.453055,122.987783" id="Stroke-106" stroke="#FFE2B3"></path>
                <path d="M645.025705,11.8952504 L645.025705,122.987783" id="Stroke-108" stroke="#FFE2B3"></path>
                <path d="M681.779367,11.8952504 L681.779367,122.987783" id="Stroke-110" stroke="#FFE2B3"></path>
                <path d="M402.976432,105.378211 C402.976432,86.1640812 416.688465,70.1604311 434.848171,66.6350459 C432.406235,66.1612247 429.884459,65.910665 427.304264,65.910665 C405.535207,65.910665 387.887646,83.5804886 387.887646,105.378211 C387.887646,111.450141 389.260504,117.200341 391.707308,122.339253 L403.331817,110.699437 C403.098139,108.958193 402.976432,107.182826 402.976432,105.378211" id="Fill-112" fill="#FFE2B3"></path>
                <path d="M403.332109,110.698949 L391.7076,122.338765 C398.043196,135.647679 411.599444,144.846244 427.304556,144.846244 C429.884751,144.846244 432.405553,144.594709 434.848463,144.120888 C418.394607,140.926983 405.591971,127.487426 403.332109,110.698949" id="Fill-114" fill="#FFCF82"></path>
                <path d="M469.540403,61.4987663 C469.540403,62.4961305 470.216122,63.3277548 471.131361,63.5831893 L470.39917,70.0402209 C465.907683,73.1385822 451.39725,83.7176628 451.39725,91.0472663 C451.39725,99.720338 460.492194,106.750635 471.710688,106.750635 L471.710688,59.3256236 C470.512114,59.3256236 469.540403,60.2986144 469.540403,61.4987663" id="Fill-116" fill="#6CE2F3"></path>
                <path d="M473.02094,70.0399285 L472.289723,63.5828968 C473.204962,63.3284373 473.879707,62.495838 473.879707,61.4984738 C473.879707,60.2983219 472.90897,59.3263061 471.710396,59.3263061 L471.710396,106.750342 C482.92889,106.750342 492.023834,99.7200455 492.023834,91.0469738 C492.023834,83.7173703 477.512427,73.1392647 473.02094,70.0399285" id="Fill-118" fill="#5CC0CF"></path>
                <mask id="mask-4" fill="white">
                    <use xlink:href="#path-3"></use>
                </mask>
                <g id="Clip-121"></g>
                <polygon id="Fill-120" fill="#6CE2F3" mask="url(#mask-4)" points="450.774693 156.28493 471.709325 156.28493 471.709325 95.2390234 450.774693 95.2390234"></polygon>
                <polygon id="Fill-122" fill="#5CC0CF" mask="url(#mask-4)" points="471.710299 156.28493 492.644931 156.28493 492.644931 95.2390234 471.710299 95.2390234"></polygon>
                <polygon id="Fill-123" fill="#50C8D9" mask="url(#mask-4)" points="447.614197 95.2390234 471.710299 95.2390234 471.710299 89.8700255 447.614197 89.8700255"></polygon>
                <polygon id="Fill-124" fill="#43A7B5" mask="url(#mask-4)" points="471.709325 95.2390234 495.8064 95.2390234 495.8064 89.8700255 471.709325 89.8700255"></polygon>
                <polygon id="Fill-125" fill="#50C8D9" mask="url(#mask-4)" points="449.609905 163.179125 471.710006 163.179125 471.710006 156.28532 450.775374 156.28532"></polygon>
                <polygon id="Fill-126" fill="#43A7B5" mask="url(#mask-4)" points="493.810984 163.179125 492.645515 156.28532 471.709909 156.28532 471.709909 163.179125"></polygon>
                <path d="M468.05275,112.174229 C468.41982,111.4284 468.626235,110.589951 468.626235,109.702755 C468.626235,106.609268 466.122959,104.101721 463.03354,104.101721 C459.944122,104.101721 457.440846,106.609268 457.440846,109.702755 C457.440846,110.589951 457.647261,111.4284 458.014331,112.174229 C456.770969,112.333145 455.808994,113.39583 455.808994,114.684701 L455.808994,140.368537 L470.258087,125.901393 L470.258087,114.684701 C470.258087,113.39583 469.296112,112.333145 468.05275,112.174229" id="Fill-127" fill="#5B668F" mask="url(#mask-4)"></path>
                <polygon id="Fill-128" fill="#414966" mask="url(#mask-4)" points="455.809286 152.287673 470.257405 152.287673 470.257405 125.901881 455.809286 140.369024"></polygon>
                <path d="M487.73516,114.684896 C487.73516,113.396025 486.774159,112.33334 485.529824,112.174424 C485.896893,111.428595 486.103308,110.590146 486.103308,109.70295 C486.103308,106.609463 483.600032,104.101916 480.510614,104.101916 C477.422169,104.101916 474.917919,106.609463 474.917919,109.70295 C474.917919,110.590146 475.125308,111.428595 475.491404,112.174424 C474.248042,112.33334 473.287041,113.396025 473.287041,114.684896 L473.287041,140.866926 L487.73516,126.399783 L487.73516,114.684896 Z" id="Fill-129" fill="#5B668F" mask="url(#mask-4)"></path>
                <polygon id="Fill-130" fill="#414966" mask="url(#mask-4)" points="473.286652 140.867414 473.286652 152.287868 487.734771 152.287868 487.734771 126.399295"></polygon>
                <path d="M642.855809,24.1868141 C642.855809,25.1841784 643.530555,26.0158027 644.446767,26.2712372 L643.714576,32.7282688 C639.223089,35.8266301 624.712656,46.4057107 624.712656,53.7353142 C624.712656,62.4083858 633.806627,69.4386826 645.026094,69.4386826 L645.026094,22.0136715 C643.827521,22.0136715 642.855809,22.9866622 642.855809,24.1868141" id="Fill-131" fill="#606C96" mask="url(#mask-4)"></path>
                <path d="M646.336833,32.7284638 L645.604642,26.2704572 C646.519881,26.0159977 647.1956,25.1843734 647.1956,24.1870091 C647.1956,22.9868572 646.223889,22.0138665 645.025315,22.0138665 L645.025315,69.4379026 C656.244783,69.4379026 665.338753,62.4076059 665.338753,53.7355092 C665.338753,46.4049307 650.827347,35.8268251 646.336833,32.7284638" id="Fill-132" fill="#354A96" mask="url(#mask-4)"></path>
                <polygon id="Fill-133" fill="#FF6E94" mask="url(#mask-4)" points="624.089807 118.973953 645.025413 118.973953 645.025413 57.9270713 624.089807 57.9270713"></polygon>
                <polygon id="Fill-134" fill="#F54E7A" mask="url(#mask-4)" points="645.025413 118.973953 665.961019 118.973953 665.961019 57.9270713 645.025413 57.9270713"></polygon>
                <polygon id="Fill-135" fill="#FFA1BA" mask="url(#mask-4)" points="620.929311 57.9270713 645.025413 57.9270713 645.025413 52.5580734 620.929311 52.5580734"></polygon>
                <polygon id="Fill-136" fill="#FF7DA0" mask="url(#mask-4)" points="645.025413 57.9270713 669.121514 57.9270713 669.121514 52.5580734 645.025413 52.5580734"></polygon>
                <polygon id="Fill-137" fill="#FFA1BA" mask="url(#mask-4)" points="622.925311 125.867173 645.025413 125.867173 645.025413 118.973368 624.089807 118.973368"></polygon>
                <polygon id="Fill-138" fill="#FF7DA0" mask="url(#mask-4)" points="667.126001 125.867173 665.961505 118.973368 645.0259 118.973368 645.0259 125.867173"></polygon>
                <path d="M641.367767,74.8622772 C641.734836,74.1164476 641.942226,73.2779987 641.942226,72.3908028 C641.942226,69.2973162 639.437976,66.7907439 636.349531,66.7907439 C633.260112,66.7907439 630.755863,69.2973162 630.755863,72.3908028 C630.755863,73.2779987 630.962278,74.1164476 631.329348,74.8622772 C630.085986,75.0211925 629.124985,76.0838778 629.124985,77.3727493 L629.124985,103.05756 L643.573104,88.589441 L643.573104,77.3727493 C643.573104,76.0838778 642.611129,75.0211925 641.367767,74.8622772" id="Fill-139" fill="#F7C672" mask="url(#mask-4)"></path>
                <polygon id="Fill-140" fill="#F7B23A" mask="url(#mask-4)" points="629.12479 114.976209 643.572909 114.976209 643.572909 88.589441 629.12479 103.05756"></polygon>
                <path d="M661.051053,77.3729443 C661.051053,76.0840728 660.089079,75.0213875 658.844743,74.8624722 C659.211812,74.1166426 659.419202,73.2781937 659.419202,72.3909977 C659.419202,69.2975112 656.914952,66.7909389 653.826507,66.7909389 C650.737088,66.7909389 648.232839,69.2975112 648.232839,72.3909977 C648.232839,73.2781937 648.440228,74.1166426 648.807297,74.8624722 C647.562962,75.0213875 646.601961,76.0840728 646.601961,77.3729443 L646.601961,103.554974 L661.051053,89.0878306 L661.051053,77.3729443 Z" id="Fill-141" fill="#F7C672" mask="url(#mask-4)"></path>
                <polygon id="Fill-142" fill="#F7B23A" mask="url(#mask-4)" points="646.602155 103.555462 646.602155 114.975916 661.051248 114.975916 661.051248 89.0883181"></polygon>
                <path d="M642.049523,24.9008606 C642.049523,23.2551609 643.381488,21.9204672 645.025997,21.9204672 C646.669532,21.9204672 648.001497,23.2551609 648.001497,24.9008606 C648.001497,26.5465604 646.669532,27.8812541 645.025997,27.8812541 C643.381488,27.8812541 642.049523,26.5465604 642.049523,24.9008606" id="Fill-143" fill="#F54E7A" mask="url(#mask-4)"></path>
                <path d="M353.484882,71.1615001 C354.514039,70.9606624 355.291018,70.0559175 355.291018,68.9669088 C355.291018,67.7306841 354.291071,66.7294201 353.057446,66.7294201 L353.049656,66.7294201 C353.070103,66.5217578 353.084708,66.3121455 353.084708,66.0996085 C353.084708,62.6678175 346.878609,56.3346033 346.878609,56.3346033 L346.878609,103.976051 C358.097102,103.976051 367.192047,96.9447795 367.192047,88.2726828 C367.192047,82.9056347 359.414462,75.8002676 353.484882,71.1615001" id="Fill-144" fill="#F79E02" mask="url(#mask-4)"></path>
                <path d="M340.672801,66.099706 C340.672801,66.312243 340.687406,66.5218553 340.708827,66.7295176 L340.701037,66.7295176 C339.466438,66.7295176 338.465517,67.7307816 338.465517,68.9670063 C338.465517,70.056015 339.24347,70.9607599 340.272628,71.1615976 C334.343047,75.8003651 326.565463,82.9057322 326.565463,88.2727803 C326.565463,96.944877 335.660407,103.976149 346.878901,103.976149 L346.878901,56.3347008 C346.875006,56.3386006 340.672801,62.66889 340.672801,66.099706" id="Fill-145" fill="#F7B23A" mask="url(#mask-4)"></path>
                <polygon id="Fill-146" fill="#5A658C" mask="url(#mask-4)" points="346.879485 153.510249 367.814117 153.510249 367.814117 92.4643425 346.879485 92.4643425"></polygon>
                <polygon id="Fill-147" fill="#7C8BC2" mask="url(#mask-4)" points="325.943879 153.510249 346.878511 153.510249 346.878511 92.4643425 325.943879 92.4643425"></polygon>
                <polygon id="Fill-148" fill="#97A9ED" mask="url(#mask-4)" points="325.943782 153.510639 324.778312 160.404444 346.878414 160.404444 346.878414 153.510639"></polygon>
                <polygon id="Fill-149" fill="#6A78A8" mask="url(#mask-4)" points="367.81402 153.510639 346.879388 153.510639 346.879388 160.404444 368.979489 160.404444"></polygon>
                <polygon id="Fill-150" fill="#5ABBC9" mask="url(#mask-4)" points="368.045556 87.0947596 346.879193 87.0947596 346.879193 92.4647324 370.974321 92.4647324"></polygon>
                <polygon id="Fill-151" fill="#6CE2F3" mask="url(#mask-4)" points="325.711856 87.0947596 322.783091 92.4647324 346.879193 92.4647324 346.879193 87.0947596"></polygon>
                <path d="M337.313971,104.819765 C337.313971,106.337747 337.667409,107.77091 338.295419,109.046132 C336.168949,109.318141 334.52444,111.136405 334.52444,113.339771 L334.52444,150.490858 L346.879193,150.490858 L346.879193,95.2419483 C341.596122,95.2419483 337.313971,99.530712 337.313971,104.819765" id="Fill-152" fill="#F7C672" mask="url(#mask-4)"></path>
                <path d="M359.233167,113.340063 C359.233167,111.136698 357.589631,109.318433 355.462188,109.046425 C356.089224,107.771203 356.443635,106.337065 356.443635,104.820057 C356.443635,99.5300295 352.161485,95.2422407 346.879388,95.2422407 L346.879388,150.49115 L359.233167,150.49115 L359.233167,113.340063 Z" id="Fill-153" fill="#F7B23A" mask="url(#mask-4)"></path>
                <path d="M548.803705,181.579276 L548.964359,179.745413 C548.991621,179.425633 548.741391,179.150699 548.41911,179.150699 L548.098776,179.150699 C547.778443,179.150699 547.526265,179.425633 547.554501,179.745413 L547.715155,181.579276 C547.772601,182.246136 548.745286,182.246136 548.803705,181.579276" id="Fill-154" fill="#516AC4" mask="url(#mask-4)"></path>
                <path d="M545.854201,174.08481 C545.540683,174.548882 545.356662,175.108498 545.356662,175.710036 C545.356662,177.314789 548.259138,180.276658 548.259138,180.276658 C548.259138,180.276658 551.161614,177.314789 551.161614,175.710036 C551.161614,175.108498 550.978566,174.548882 550.664075,174.08481 L545.854201,174.08481 Z" id="Fill-155" fill="#516AC4" mask="url(#mask-4)"></path>
                <path d="M512.737446,181.579276 L512.898099,179.745413 C512.925362,179.425633 512.674158,179.150699 512.352851,179.150699 L512.032517,179.150699 C511.71121,179.150699 511.460006,179.425633 511.488242,179.745413 L511.648895,181.579276 C511.706341,182.246136 512.679026,182.246136 512.737446,181.579276" id="Fill-156" fill="#7C8BC2" mask="url(#mask-4)"></path>
                <path d="M509.786968,174.08481 C509.474424,174.548882 509.290402,175.108498 509.290402,175.710036 C509.290402,177.314789 512.192878,180.276658 512.192878,180.276658 C512.192878,180.276658 515.094381,177.314789 515.094381,175.710036 C515.094381,175.108498 514.912307,174.548882 514.597815,174.08481 L509.786968,174.08481 Z" id="Fill-157" fill="#7C8BC2" mask="url(#mask-4)"></path>
                <path d="M528.056405,73.3660358 C528.056405,74.3634001 528.73115,75.1950244 529.647363,75.4504589 L529.301714,78.4971483 C526.774097,78.9358716 524.850147,81.1382624 524.850147,83.7949756 C524.850147,84.132305 524.885199,84.4618349 524.944592,84.7825904 C518.926409,89.3433626 509.913252,97.1360629 509.913252,102.914536 C509.913252,111.586633 519.007222,118.616929 530.225716,118.617904 L530.225716,71.1928932 C529.027142,71.1938682 528.056405,72.1668589 528.056405,73.3660358" id="Fill-158" fill="#FF6E94" mask="url(#mask-4)"></path>
                <path d="M535.507132,84.7830779 C535.567499,84.4623224 535.602551,84.1327925 535.602551,83.7944881 C535.602551,81.1377749 533.678601,78.936359 531.15001,78.4966608 L530.805335,75.4499714 C531.720574,75.1955119 532.396293,74.3629126 532.396293,73.3665233 C532.396293,72.1663714 531.424582,71.1933807 530.226008,71.1933807 L530.225035,71.1933807 L530.225035,118.617417 L530.226008,118.617417 C541.445476,118.617417 550.538473,111.58712 550.538473,102.915023 C550.538473,97.1365503 541.526289,89.3428751 535.507132,84.7830779" id="Fill-159" fill="#FF4F7D" mask="url(#mask-4)"></path>
                <polygon id="Fill-160" fill="#FFA1BA" mask="url(#mask-4)" points="509.290597 168.151907 530.225229 168.151907 530.225229 107.106001 509.290597 107.106001"></polygon>
                <polygon id="Fill-161" fill="#FF7A9E" mask="url(#mask-4)" points="530.225229 168.151907 551.161809 168.151907 551.161809 107.106001 530.225229 107.106001"></polygon>
                <path d="M532.633671,179.950638 L530.22484,179.950638 L530.22484,185.01643 L530.22484,186.139561 L530.22484,190.800761 C530.35531,190.801727 530.486754,190.718857 530.502332,190.551167 L530.957031,185.34206 C531.816772,184.34957 533.130237,182.657073 533.130237,181.576839 C533.130237,180.974326 532.947189,180.41471 532.633671,179.950638" id="Fill-162" fill="#516AC4" mask="url(#mask-4)"></path>
                <path d="M527.823408,179.950638 C527.50989,180.41471 527.325869,180.974326 527.325869,181.576839 C527.325869,182.657073 528.640308,184.34957 529.500048,185.34206 L529.954747,190.551167 C529.969352,190.715932 530.096901,190.798802 530.225424,190.800752 L530.225424,186.139561 L530.225424,185.01643 L530.225424,179.950638 L527.823408,179.950638 Z" id="Fill-163" fill="#7C8BC2" mask="url(#mask-4)"></path>
                <path d="M549.929449,171.598517 L530.225521,171.598517 L530.225521,180.886776 C539.730376,180.886776 547.713402,176.937292 549.929449,171.598517" id="Fill-164" fill="#FF8AA9" mask="url(#mask-4)"></path>
                <path d="M530.225229,180.886581 L530.225229,171.598322 L510.522275,171.598322 C512.738322,176.937097 520.719401,180.886581 530.225229,180.886581" id="Fill-165" fill="#FFA1BA" mask="url(#mask-4)"></path>
                <path d="M554.322304,105.779009 C554.322304,103.546395 552.515194,101.736905 550.285516,101.736905 L530.225229,101.736905 L530.225229,107.105903 L554.322304,107.105903 L554.322304,105.779009 Z" id="Fill-166" fill="#09CEEB" mask="url(#mask-4)"></path>
                <path d="M510.166306,101.736905 C507.937601,101.736905 506.129517,103.546395 506.129517,105.779009 L506.129517,107.105903 L530.225619,107.105903 L530.225619,101.736905 L510.166306,101.736905 Z" id="Fill-167" fill="#6CE2F3" mask="url(#mask-4)"></path>
                <polygon id="Fill-168" fill="#50C8D9" mask="url(#mask-4)" points="509.290597 168.152394 508.126101 175.046199 530.225229 175.046199 530.225229 168.152394"></polygon>
                <polygon id="Fill-169" fill="#28B5C9" mask="url(#mask-4)" points="551.161711 168.152394 530.225132 168.152394 530.225132 175.046199 552.326207 175.046199"></polygon>
                <path d="M529.173581,108.478229 C528.031479,108.600097 526.952666,108.927677 525.971218,109.421972 C524.023901,110.390088 522.446574,112.008489 521.533282,113.992494 C521.064952,115.009357 520.771881,116.118839 520.68912,117.292668 C520.669647,117.521779 520.65991,117.761614 520.65991,117.996575 C520.65991,118.353403 520.679384,118.705356 520.71833,119.052435 C520.840037,120.181417 521.162318,121.247027 521.641358,122.220017 C519.517809,122.493001 517.872326,124.31224 517.872326,126.516581 L517.872326,163.664743 L530.225132,163.664743 L530.225132,108.419733 C529.869747,108.419733 529.519229,108.439232 529.173581,108.478229" id="Fill-170" fill="#CE3733" mask="url(#mask-4)"></path>
                <path d="M542.580469,126.516971 C542.580469,124.31263 540.934986,122.493391 538.811437,122.219432 C539.289503,121.247417 539.611784,120.180832 539.733492,119.05185 C539.772438,118.704772 539.792885,118.352818 539.792885,117.99599 C539.792885,117.762004 539.783148,117.522169 539.762701,117.292083 C539.67994,116.119229 539.387843,115.009747 538.91854,113.992884 C538.006221,112.007904 536.433763,110.389503 534.486446,109.416512 C533.504998,108.928067 532.425211,108.600487 531.283109,108.478619 C530.936487,108.439622 530.584996,108.420123 530.228637,108.420123 C530.227663,108.420123 530.22669,108.420123 530.225716,108.420123 L530.225716,163.665133 L542.580469,163.665133 L542.580469,126.516971 Z" id="Fill-171" fill="#A82D2A" mask="url(#mask-4)"></path>
                <path d="M536.800248,129.278977 L532.298051,124.771827 L536.800248,120.259802 L541.300498,124.771827 L536.800248,129.278977 Z M541.300498,137.931575 L536.800248,142.438726 L532.298051,137.931575 L536.800248,133.424425 L541.300498,137.931575 Z M541.300498,151.096198 L536.800248,155.603349 L532.298051,151.096198 L536.800248,146.589048 L541.300498,151.096198 Z M542.580859,126.516971 C542.580859,124.31263 540.934402,122.493391 538.810853,122.219432 C539.289893,121.247417 539.612174,120.180832 539.733881,119.05185 L538.869272,118.187078 L539.763091,117.292083 C539.68033,116.119229 539.387259,115.009747 538.918929,113.992884 L536.800248,116.114354 L532.298051,111.607204 L534.485862,109.416512 C533.504414,108.928067 532.4256,108.600487 531.283499,108.478619 L530.229027,109.53448 L530.225132,109.531555 L530.225132,113.682852 L530.229027,113.679928 L534.729276,118.187078 L530.229027,122.694228 L530.225132,122.691304 L530.225132,126.847475 L530.229027,126.844551 L534.729276,131.351701 L530.229027,135.858852 L530.225132,135.855927 L530.225132,140.007224 L530.229027,140.004299 L534.729276,144.511449 L530.229027,149.023475 L530.225132,149.02055 L530.225132,153.171847 L530.229027,153.168922 L534.729276,157.676073 L530.229027,162.183223 L530.225132,162.180298 L530.225132,163.665133 L532.889062,163.665133 L536.800248,159.748796 L540.710461,163.665133 L542.580859,163.665133 L542.580859,161.391571 L538.869272,157.676073 L542.580859,153.960574 L542.580859,148.230848 L538.869272,144.511449 L542.580859,140.795951 L542.580859,135.0672 L538.869272,131.351701 L542.580859,127.636202 L542.580859,126.516971 Z" id="Fill-172" fill="#FF4A79" mask="url(#mask-4)"></path>
                <path d="M519.150837,151.096198 L523.65206,146.589048 L528.154258,151.096198 L523.65206,155.603349 L519.150837,151.096198 Z M519.150837,137.931575 L523.65206,133.424425 L528.154258,137.931575 L523.65206,142.438726 L519.150837,137.931575 Z M519.150837,124.771827 L523.65206,120.259802 L528.154258,124.771827 L523.65206,129.278977 L519.150837,124.771827 Z M525.726927,157.676073 L530.225229,153.171847 L530.225229,149.02055 L525.726927,144.511449 L530.225229,140.007224 L530.225229,135.855927 L525.726927,131.351701 L530.225229,126.847475 L530.225229,122.691304 L525.726927,118.187078 L530.225229,113.682852 L530.225229,109.531555 L529.173678,108.478619 C528.031577,108.600487 526.952763,108.928067 525.971315,109.421387 L528.154258,111.607204 L523.65206,116.114354 L521.53338,113.992884 C521.06505,115.009747 520.771979,116.119229 520.689218,117.292083 L521.583036,118.187078 L520.718427,119.05185 C520.840135,120.181807 521.162416,121.247417 521.641456,122.219432 C519.517906,122.493391 517.872423,124.31263 517.872423,126.516971 L517.872423,127.636202 L521.583036,131.351701 L517.872423,135.0672 L517.872423,140.795951 L521.583036,144.511449 L517.872423,148.231823 L517.872423,153.960574 L521.583036,157.676073 L517.872423,161.391571 L517.872423,163.665133 L519.741848,163.665133 L523.65206,159.748796 L527.563247,163.665133 L530.225229,163.665133 L530.225229,162.180298 L525.726927,157.676073 Z" id="Fill-173" fill="#FF6E94" mask="url(#mask-4)"></path>
                <path d="M576.059426,61.493989 C577.088583,61.2941262 577.865563,60.3893813 577.865563,59.2993977 C577.865563,58.063173 576.865615,57.061909 575.63199,57.061909 L575.624201,57.061909 C575.644647,56.8542467 575.659252,56.6446344 575.659252,56.4320974 C575.659252,53.0003064 569.454126,46.6670922 569.454126,46.6670922 L569.453153,46.6670922 L569.453153,94.3085401 C580.671646,94.3085401 589.765617,87.2782434 589.765617,78.6051717 C589.765617,73.2381236 581.98998,66.1327565 576.059426,61.493989" id="Fill-174" fill="#FF7399" mask="url(#mask-4)"></path>
                <path d="M563.247832,56.4321949 C563.247832,56.6447319 563.262437,56.8543442 563.282884,57.0620065 L563.275095,57.0620065 C562.041469,57.0620065 561.040548,58.0632705 561.040548,59.2994952 C561.040548,60.3894788 561.817528,61.2942237 562.847659,61.4940865 C556.917104,66.132854 549.140494,73.2382211 549.140494,78.6052692 C549.140494,87.2783409 558.235438,94.3086376 569.452958,94.3086376 L569.452958,46.6671897 C569.449063,46.6710895 563.247832,53.0013789 563.247832,56.4321949" id="Fill-175" fill="#FFA1BA" mask="url(#mask-4)"></path>
                <polygon id="Fill-176" fill="#5A658C" mask="url(#mask-4)" points="569.452958 143.842738 590.388564 143.842738 590.388564 82.7968314 569.452958 82.7968314"></polygon>
                <polygon id="Fill-177" fill="#7C8BC2" mask="url(#mask-4)" points="548.518326 143.842738 569.452958 143.842738 569.452958 82.7968314 548.518326 82.7968314"></polygon>
                <polygon id="Fill-178" fill="#97A9ED" mask="url(#mask-4)" points="548.518423 143.843128 547.352954 150.736933 569.453055 150.736933 569.453055 143.843128"></polygon>
                <polygon id="Fill-179" fill="#6A78A8" mask="url(#mask-4)" points="590.388564 143.843128 569.452958 143.843128 569.452958 150.736933 591.55306 150.736933"></polygon>
                <polygon id="Fill-180" fill="#FF4072" mask="url(#mask-4)" points="590.620587 77.4276384 569.45325 77.4276384 569.45325 82.7966364 593.549352 82.7966364"></polygon>
                <polygon id="Fill-181" fill="#FF6E94" mask="url(#mask-4)" points="548.2864 77.4276384 545.356662 82.7966364 569.452763 82.7966364 569.452763 77.4276384"></polygon>
                <path d="M559.888516,95.1522537 C559.888516,96.6702363 560.241954,98.1043739 560.869963,99.3786213 C558.742519,99.6516046 557.098984,101.468894 557.098984,103.67226 L557.098984,140.823347 L569.452763,140.823347 L569.452763,85.5754121 C564.170666,85.5754121 559.888516,89.8632009 559.888516,95.1522537" id="Fill-182" fill="#F7C672" mask="url(#mask-4)"></path>
                <path d="M581.808198,103.672552 C581.808198,101.469186 580.163689,99.6509222 578.037219,99.3789138 C578.664255,98.1046664 579.018666,96.6695538 579.018666,95.1525462 C579.018666,89.8625185 574.735542,85.5757046 569.453445,85.5757046 L569.453445,140.823639 L581.808198,140.823639 L581.808198,103.672552 Z" id="Fill-183" fill="#F7B23A" mask="url(#mask-4)"></path>
                <path d="M679.609569,103.414973 C679.609569,104.412337 680.284315,105.243961 681.200527,105.499396 L680.468336,111.956428 C675.976849,115.054789 661.466416,125.633869 661.466416,132.963473 C661.466416,141.636545 670.56136,148.666841 681.779854,148.666841 L681.779854,101.24183 C680.58128,101.24183 679.609569,102.214821 679.609569,103.414973" id="Fill-184" fill="#6CE2F3" mask="url(#mask-4)"></path>
                <path d="M683.090593,111.95672 L682.358402,105.499688 C683.273641,105.244254 683.94936,104.41263 683.94936,103.415265 C683.94936,102.215113 682.977649,101.242123 681.779075,101.242123 L681.779075,148.666159 C692.997569,148.666159 702.092513,141.635862 702.092513,132.963765 C702.092513,125.633187 687.581106,115.055081 683.090593,111.95672" id="Fill-185" fill="#5CC0CF" mask="url(#mask-4)"></path>
                <polygon id="Fill-186" fill="#6CE2F3" mask="url(#mask-4)" points="660.843469 198.201526 681.779075 198.201526 681.779075 137.15562 660.843469 137.15562"></polygon>
                <polygon id="Fill-187" fill="#5CC0CF" mask="url(#mask-4)" points="681.779075 198.201526 702.714681 198.201526 702.714681 137.15562 681.779075 137.15562"></polygon>
                <polygon id="Fill-188" fill="#50C8D9" mask="url(#mask-4)" points="657.682974 137.15562 681.779075 137.15562 681.779075 131.785647 657.682974 131.785647"></polygon>
                <polygon id="Fill-189" fill="#43A7B5" mask="url(#mask-4)" points="681.779075 137.15562 705.875177 137.15562 705.875177 131.785647 681.779075 131.785647"></polygon>
                <polygon id="Fill-190" fill="#50C8D9" mask="url(#mask-4)" points="659.679071 205.095429 681.779172 205.095429 681.779172 198.201624 660.843567 198.201624"></polygon>
                <polygon id="Fill-191" fill="#43A7B5" mask="url(#mask-4)" points="703.879663 205.095429 702.715168 198.201624 681.779562 198.201624 681.779562 205.095429"></polygon>
                <path d="M678.121527,154.090436 C678.488596,153.344606 678.695985,152.506157 678.695985,151.618962 C678.695985,148.525475 676.191736,146.018903 673.103291,146.018903 C670.013872,146.018903 667.509622,148.525475 667.509622,151.618962 C667.509622,152.506157 667.716038,153.344606 668.083107,154.090436 C666.839745,154.249351 665.878744,155.312037 665.878744,156.600908 L665.878744,182.284743 L680.326863,167.8176 L680.326863,156.600908 C680.326863,155.312037 679.364889,154.249351 678.121527,154.090436" id="Fill-192" fill="#FFE2B3" mask="url(#mask-4)"></path>
                <polygon id="Fill-193" fill="#FFCF82" mask="url(#mask-4)" points="665.878452 194.204465 680.326571 194.204465 680.326571 167.817697 665.878452 182.284841"></polygon>
                <path d="M697.804813,156.601103 C697.804813,155.312232 696.842838,154.249546 695.598503,154.090631 C695.965572,153.344801 696.172961,152.506352 696.172961,151.619156 C696.172961,148.52567 693.668712,146.019098 690.580267,146.019098 C687.490848,146.019098 684.986598,148.52567 684.986598,151.619156 C684.986598,152.506352 685.193988,153.344801 685.561057,154.090631 C684.316721,154.249546 683.35572,155.312232 683.35572,156.601103 L683.35572,182.783133 L697.804813,168.315989 L697.804813,156.601103 Z" id="Fill-194" fill="#FFE2B3" mask="url(#mask-4)"></path>
                <polygon id="Fill-195" fill="#FFCF82" mask="url(#mask-4)" points="683.355818 182.783621 683.355818 194.204075 697.80491 194.204075 697.80491 168.316477"></polygon>
                <path d="M312.737175,113.425273 C312.737175,114.422637 313.412894,115.254262 314.327159,115.509696 L313.595941,121.966728 C309.104455,125.065089 294.594021,135.64417 294.594021,142.973773 C294.594021,151.646845 303.688966,158.677142 314.90746,158.677142 L314.90746,111.25213 C313.708886,111.25213 312.737175,112.225121 312.737175,113.425273" id="Fill-196" fill="#6CE2F3" mask="url(#mask-4)"></path>
                <path d="M316.217712,121.966435 L315.486494,115.509404 C316.40076,115.253969 317.076479,114.422345 317.076479,113.424981 C317.076479,112.224829 316.105741,111.252813 314.907167,111.252813 L314.907167,158.676849 C326.125661,158.676849 335.219632,151.646552 335.219632,142.973481 C335.219632,135.643877 320.709199,125.065772 316.217712,121.966435" id="Fill-197" fill="#5CC0CF" mask="url(#mask-4)"></path>
                <polygon id="Fill-198" fill="#6CE2F3" mask="url(#mask-4)" points="293.971854 208.211242 314.906486 208.211242 314.906486 147.165335 293.971854 147.165335"></polygon>
                <polygon id="Fill-199" fill="#5CC0CF" mask="url(#mask-4)" points="314.90746 208.211242 335.842092 208.211242 335.842092 147.165335 314.90746 147.165335"></polygon>
                <polygon id="Fill-200" fill="#50C8D9" mask="url(#mask-4)" points="290.810384 147.165335 314.906486 147.165335 314.906486 141.796337 290.810384 141.796337"></polygon>
                <polygon id="Fill-201" fill="#43A7B5" mask="url(#mask-4)" points="314.90746 147.165335 339.003561 147.165335 339.003561 141.796337 314.90746 141.796337"></polygon>
                <polygon id="Fill-202" fill="#50C8D9" mask="url(#mask-4)" points="292.806579 215.105632 314.906681 215.105632 314.906681 208.211827 293.972048 208.211827"></polygon>
                <polygon id="Fill-203" fill="#43A7B5" mask="url(#mask-4)" points="337.007269 215.105632 335.8418 208.211827 314.907167 208.211827 314.907167 215.105632"></polygon>
                <path d="M311.249522,164.100736 C311.615617,163.354907 311.823007,162.516458 311.823007,161.629262 C311.823007,158.535775 309.319731,156.028228 306.230312,156.028228 C303.140893,156.028228 300.637617,158.535775 300.637617,161.629262 C300.637617,162.516458 300.844033,163.354907 301.210129,164.100736 C299.96774,164.259651 299.005766,165.322337 299.005766,166.611208 L299.005766,192.295044 L313.454858,177.8279 L313.454858,166.611208 C313.454858,165.322337 312.492884,164.259651 311.249522,164.100736" id="Fill-204" fill="#FFE2B3" mask="url(#mask-4)"></path>
                <polygon id="Fill-205" fill="#FFCF82" mask="url(#mask-4)" points="299.005571 204.214668 313.454664 204.214668 313.454664 177.8279 299.005571 192.295044"></polygon>
                <path d="M330.931932,166.611403 C330.931932,165.322532 329.970931,164.259846 328.726595,164.100931 C329.093664,163.355102 329.301054,162.516653 329.301054,161.629457 C329.301054,158.53597 326.796804,156.028423 323.707385,156.028423 C320.61894,156.028423 318.114691,158.53597 318.114691,161.629457 C318.114691,162.516653 318.321106,163.355102 318.688176,164.100931 C317.444814,164.259846 316.483813,165.322532 316.483813,166.611403 L316.483813,192.793433 L330.931932,178.32629 L330.931932,166.611403 Z" id="Fill-206" fill="#FFE2B3" mask="url(#mask-4)"></path>
                <polygon id="Fill-207" fill="#FFCF82" mask="url(#mask-4)" points="316.483423 192.793921 316.483423 204.214375 330.931542 204.214375 330.931542 178.325802"></polygon>
                <path d="M301.796758,152.319554 L301.957412,150.485691 C301.985648,150.16591 301.73347,149.890002 301.412163,149.890002 L301.091829,149.890002 C300.771495,149.890002 300.519318,150.16591 300.547554,150.485691 L300.707234,152.319554 C300.765653,152.985438 301.738338,152.985438 301.796758,152.319554" id="Fill-208" fill="#516AC4" mask="url(#mask-4)"></path>
                <path d="M298.846865,144.824698 C298.533347,145.28877 298.350299,145.848386 298.350299,146.449924 C298.350299,148.054676 301.252775,151.016546 301.252775,151.016546 C301.252775,151.016546 304.154277,148.054676 304.154277,146.449924 C304.154277,145.848386 303.971229,145.28877 303.657711,144.824698 L298.846865,144.824698 Z" id="Fill-209" fill="#516AC4" mask="url(#mask-4)"></path>
                <path d="M265.730498,152.319554 L265.891152,150.485691 C265.918414,150.16591 265.667211,149.890002 265.345903,149.890002 L265.02557,149.890002 C264.705236,149.890002 264.453058,150.16591 264.481294,150.485691 L264.640974,152.319554 C264.699394,152.985438 265.672079,152.985438 265.730498,152.319554" id="Fill-210" fill="#7C8BC2" mask="url(#mask-4)"></path>
                <path d="M262.780605,144.824698 C262.467087,145.28877 262.284039,145.848386 262.284039,146.449924 C262.284039,148.054676 265.185542,151.016546 265.185542,151.016546 C265.185542,151.016546 268.088018,148.054676 268.088018,146.449924 C268.088018,145.848386 267.90497,145.28877 267.591452,144.824698 L262.780605,144.824698 Z" id="Fill-211" fill="#7C8BC2" mask="url(#mask-4)"></path>
                <path d="M281.049458,44.1059233 C281.049458,45.1032875 281.724203,45.9349118 282.639442,46.1903463 L282.294767,49.2370357 C279.767149,49.675759 277.8432,51.8781498 277.8432,54.534863 C277.8432,54.8721924 277.878252,55.2017223 277.937645,55.5224778 C271.919461,60.08325 262.906304,67.8759503 262.906304,73.6553982 C262.906304,82.327495 272.000275,89.3577917 283.218769,89.3577917 L283.218769,41.9327806 C282.020195,41.9337556 281.049458,42.9067463 281.049458,44.1059233" id="Fill-212" fill="#5DC2D1" mask="url(#mask-4)"></path>
                <path d="M288.500769,55.5229653 C288.560162,55.2022098 288.595214,54.8726799 288.595214,54.5343755 C288.595214,51.8776623 286.671265,49.6762464 284.143647,49.2365482 L283.797998,46.1908337 C284.713237,45.9353993 285.388956,45.103775 285.388956,44.1064107 C285.388956,42.9062588 284.417245,41.9332681 283.219645,41.9332681 L283.218671,41.9332681 L283.218671,89.3573042 L283.219645,89.3573042 C294.438139,89.3573042 303.532109,82.3270075 303.532109,73.6549108 C303.532109,67.8764378 294.518952,60.0837375 288.500769,55.5229653" id="Fill-213" fill="#21A2B5" mask="url(#mask-4)"></path>
                <polygon id="Fill-214" fill="#8C9CDB" mask="url(#mask-4)" points="262.284137 138.892964 283.218769 138.892964 283.218769 77.8470579 262.284137 77.8470579"></polygon>
                <polygon id="Fill-215" fill="#7C8BC2" mask="url(#mask-4)" points="283.218769 138.892964 304.154375 138.892964 304.154375 77.8470579 283.218769 77.8470579"></polygon>
                <path d="M285.626821,150.691013 L283.21799,150.691013 L283.21799,155.756804 L283.21799,156.879936 L283.21799,161.540186 C283.34846,161.542102 283.479904,161.459232 283.494509,161.290567 L283.950181,156.082435 C284.809922,155.089945 286.123387,153.397448 286.123387,152.316239 C286.123387,151.714701 285.940339,151.155085 285.626821,150.691013" id="Fill-216" fill="#516AC4" mask="url(#mask-4)"></path>
                <path d="M280.816072,150.691013 C280.502554,151.155085 280.319506,151.714701 280.319506,152.316239 C280.319506,153.397448 281.632971,155.089945 282.492712,156.082435 L282.948384,161.290567 C282.962989,161.456307 283.090538,161.539177 283.218087,161.540152 L283.218087,156.879936 L283.218087,155.756804 L283.218087,150.691013 L280.816072,150.691013 Z" id="Fill-217" fill="#7C8BC2" mask="url(#mask-4)"></path>
                <path d="M302.922599,142.338307 L283.218671,142.338307 L283.218671,151.626566 C292.723526,151.626566 300.706552,147.677082 302.922599,142.338307" id="Fill-218" fill="#F79E02" mask="url(#mask-4)"></path>
                <path d="M283.218379,151.626469 L283.218379,142.338209 L263.514452,142.338209 C265.731472,147.676984 273.713525,151.626469 283.218379,151.626469" id="Fill-219" fill="#F7B23A" mask="url(#mask-4)"></path>
                <path d="M307.314968,76.5188963 C307.314968,74.2862823 305.507857,72.4767925 303.278179,72.4767925 L283.217892,72.4767925 L283.217892,77.8467654 L307.314968,77.8467654 L307.314968,76.5188963 Z" id="Fill-220" fill="#09CEEB" mask="url(#mask-4)"></path>
                <path d="M263.159456,72.47728 C260.929778,72.47728 259.122667,74.2867698 259.122667,76.5193838 L259.122667,77.8462779 L283.218769,77.8462779 L283.218769,72.47728 L263.159456,72.47728 Z" id="Fill-221" fill="#6CE2F3" mask="url(#mask-4)"></path>
                <polygon id="Fill-222" fill="#50C8D9" mask="url(#mask-4)" points="262.283747 138.892769 261.119252 145.786574 283.218379 145.786574 283.218379 138.892769"></polygon>
                <polygon id="Fill-223" fill="#28B5C9" mask="url(#mask-4)" points="304.154375 138.892769 283.218769 138.892769 283.218769 145.786574 305.319844 145.786574"></polygon>
                <path d="M282.167218,79.2186043 C281.025116,79.3404719 279.946302,79.668052 278.963881,80.1623468 C277.016564,81.1294879 275.439237,82.7478893 274.526919,84.7328684 C274.057616,85.7497315 273.765518,86.8592139 273.682757,88.0330424 C273.66231,88.2621534 273.652574,88.5010139 273.652574,88.7359746 C273.652574,89.0928028 273.672047,89.4447564 273.710993,89.7918353 C273.833674,90.9217914 274.154981,91.9874015 274.634021,92.9603922 C272.510472,93.2333756 270.864989,95.0526148 270.864989,97.2569555 L270.864989,134.404143 L283.218769,134.404143 L283.218769,79.1601079 C282.863383,79.1601079 282.512866,79.1796067 282.167218,79.2186043" id="Fill-224" fill="#CE3733" mask="url(#mask-4)"></path>
                <path d="M295.573035,97.256858 C295.573035,95.0525173 293.928526,93.2342531 291.804003,92.9602947 C292.283043,91.987304 292.605324,90.9216939 292.727031,89.7917378 C292.765978,89.4446589 292.785451,89.0927053 292.785451,88.7358771 C292.785451,88.5018913 292.775714,88.2620559 292.756241,88.0329449 C292.67348,86.8591164 292.380409,85.749634 291.912079,84.7327709 C290.998787,82.7477919 289.427302,81.1293904 287.479012,80.1563997 C286.497564,79.6679545 285.41875,79.3403744 284.275675,79.2185068 C283.930026,79.1795092 283.578536,79.1600104 283.221203,79.1600104 L283.218282,79.1600104 L283.218282,134.40502 L295.573035,134.40502 L295.573035,97.256858 Z" id="Fill-225" fill="#A82D2A" mask="url(#mask-4)"></path>
                <path d="M289.792911,100.018865 L285.291688,95.5117143 L289.792911,90.9996892 L294.294135,95.5117143 L289.792911,100.018865 Z M294.294135,108.671463 L289.792911,113.178613 L285.291688,108.671463 L289.792911,104.164312 L294.294135,108.671463 Z M294.294135,121.836086 L289.792911,126.343236 L285.291688,121.836086 L289.792911,117.328935 L294.294135,121.836086 Z M295.573522,97.256858 C295.573522,95.0525173 293.928039,93.2342531 291.80449,92.9602947 C292.282556,91.987304 292.604837,90.9216939 292.726544,89.7917378 L291.862909,88.9269654 L292.755754,88.0329449 C292.672993,86.8591164 292.379922,85.749634 291.911592,84.7327709 L289.792911,86.8542417 L285.291688,82.3470913 L287.478525,80.1563997 C286.497077,79.6679545 285.418263,79.3403744 284.276162,79.2185068 L283.22169,80.2743675 L283.218769,80.2714427 L283.218769,84.4227398 L283.22169,84.419815 L287.722913,88.9269654 L283.22169,93.4341159 L283.218769,93.4311911 L283.218769,97.5873629 L283.22169,97.5844381 L287.722913,102.091589 L283.22169,106.598739 L283.218769,106.595814 L283.218769,110.747111 L283.22169,110.744186 L287.722913,115.251337 L283.22169,119.763362 L283.218769,119.760437 L283.218769,123.911734 L283.22169,123.908809 L287.722913,128.41596 L283.22169,132.92311 L283.218769,132.920186 L283.218769,134.40502 L285.881725,134.40502 L289.792911,130.488684 L293.703124,134.40502 L295.573522,134.40502 L295.573522,132.131459 L291.862909,128.41596 L295.573522,124.700461 L295.573522,118.97171 L291.862909,115.251337 L295.573522,111.535838 L295.573522,105.807087 L291.862909,102.091589 L295.573522,98.3760898 L295.573522,97.256858 Z" id="Fill-226" fill="#FF4A79" mask="url(#mask-4)"></path>
                <path d="M272.144377,121.836086 L276.6456,117.328935 L281.146823,121.836086 L276.6456,126.343236 L272.144377,121.836086 Z M272.144377,108.671463 L276.6456,104.164312 L281.146823,108.671463 L276.6456,113.178613 L272.144377,108.671463 Z M272.144377,95.5117143 L276.6456,90.9996892 L281.146823,95.5117143 L276.6456,100.018865 L272.144377,95.5117143 Z M278.720466,128.41596 L283.218769,123.911734 L283.218769,119.760437 L278.720466,115.251337 L283.218769,110.747111 L283.218769,106.595814 L278.720466,102.091589 L283.218769,97.5873629 L283.218769,93.4311911 L278.720466,88.9269654 L283.218769,84.4227398 L283.218769,80.2714427 L282.167218,79.2185068 C281.025116,79.3403744 279.946302,79.6679545 278.963881,80.1622494 L281.146823,82.3470913 L276.6456,86.8542417 L274.526919,84.7327709 C274.057616,85.749634 273.765518,86.8591164 273.682757,88.0329449 L274.575602,88.9269654 L273.710993,89.7917378 C273.833674,90.9216939 274.154981,91.987304 274.634021,92.9602947 C272.510472,93.2342531 270.864989,95.0525173 270.864989,97.256858 L270.864989,98.3770648 L274.575602,102.091589 L270.864989,105.807087 L270.864989,111.536813 L274.575602,115.251337 L270.864989,118.97171 L270.864989,124.700461 L274.575602,128.41596 L270.864989,132.131459 L270.864989,134.40502 L272.734414,134.40502 L276.6456,130.488684 L280.555813,134.40502 L283.218769,134.40502 L283.218769,132.920186 L278.720466,128.41596 Z" id="Fill-227" fill="#FF6E94" mask="url(#mask-4)"></path>
                <polygon id="Fill-228" fill="#FFFFFF" mask="url(#mask-4)" points="343.503421 112.211862 344.43716 116.393382 348.614155 117.329325 344.43716 118.264293 343.503421 122.446789 342.569683 118.264293 338.392688 117.329325 342.569683 116.393382"></polygon>
                <polygon id="Fill-229" fill="#FFFFFF" mask="url(#mask-4)" points="332.560181 96.1362613 333.269004 99.308718 336.437289 100.018475 333.269004 100.728232 332.560181 103.901663 331.851357 100.728232 328.683073 100.018475 331.851357 99.308718"></polygon>
                <polygon id="Fill-230" fill="#FFFFFF" mask="url(#mask-4)" points="269.183481 82.7970264 269.892304 85.9694831 273.060589 86.6792399 269.892304 87.3889966 269.183481 90.5624283 268.473684 87.3889966 265.305399 86.6792399 268.473684 85.9694831"></polygon>
                <polygon id="Fill-231" fill="#FFFFFF" mask="url(#mask-4)" points="459.66215 129.03768 460.371948 132.210136 463.540232 132.919893 460.371948 133.62965 459.66215 136.803082 458.953327 133.62965 455.785042 132.919893 458.953327 132.210136"></polygon>
                <polygon id="Fill-232" fill="#FFFFFF" mask="url(#mask-4)" points="520.581823 91.0226003 521.29162 94.195057 524.458931 94.9048138 521.29162 95.6155455 520.581823 98.7880022 519.872026 95.6155455 516.704715 94.9048138 519.872026 94.195057"></polygon>
                <polygon id="Fill-233" fill="#FFFFFF" mask="url(#mask-4)" points="674.76406 167.715816 675.473857 170.888273 678.641168 171.598029 675.473857 172.307786 674.76406 175.481218 674.055237 172.307786 670.886952 171.598029 674.055237 170.888273"></polygon>
                <polygon id="Fill-234" fill="#FFFFFF" mask="url(#mask-4)" points="634.557902 89.5482951 635.267699 92.7207518 638.43501 93.4305086 635.267699 94.1412403 634.557902 97.3136971 633.849078 94.1412403 630.680794 93.4305086 633.849078 92.7207518"></polygon>
                <polygon id="Fill-235" fill="#FFFFFF" mask="url(#mask-4)" points="697.804813 61.4497267 698.513636 64.6221835 701.681921 65.3319403 698.513636 66.041697 697.804813 69.2151287 697.095016 66.041697 693.926731 65.3319403 697.095016 64.6221835"></polygon>
                <polygon id="Fill-236" fill="#FFFFFF" mask="url(#mask-4)" points="479.966826 77.3496432 480.675649 80.5220999 483.84296 81.2318567 480.675649 81.9416135 479.966826 85.1150451 479.257028 81.9416135 476.088744 81.2318567 479.257028 80.5220999"></polygon>
                <polygon id="Fill-237" fill="#FFFFFF" mask="url(#mask-4)" points="573.903941 121.730402 574.838653 125.911922 579.014674 126.847865 574.838653 127.782834 573.903941 131.965329 572.970202 127.782834 568.794181 126.847865 572.970202 125.911922"></polygon>
                <polygon id="Fill-238" fill="#FF6E94" mask="url(#mask-4)" points="307.314968 189.087392 308.24968 193.268912 312.425701 194.204855 308.24968 195.139823 307.314968 199.321343 306.381229 195.139823 302.204234 194.204855 306.381229 193.268912"></polygon>
                <polygon id="Fill-239" fill="#FF6E94" mask="url(#mask-4)" points="673.102999 155.287273 674.036737 159.468793 678.212759 160.404736 674.036737 161.339704 673.102999 165.5222 672.168286 161.339704 667.992265 160.404736 672.168286 159.468793"></polygon>
                <polygon id="Fill-240" fill="#F7B23A" mask="url(#mask-4)" points="463.033346 117.221692 463.968058 121.403212 468.144079 122.339155 463.968058 123.274123 463.033346 127.456618 462.099607 123.274123 457.922612 122.339155 462.099607 121.403212"></polygon>
                <polygon id="Fill-241" fill="#FFFFFF" mask="url(#mask-4)" points="276.645697 99.3043308 277.579436 103.485851 281.756431 104.421794 277.579436 105.356762 276.645697 109.539257 275.711959 105.356762 271.534964 104.421794 275.711959 103.485851"></polygon>
                <polygon id="Fill-242" fill="#FFFFFF" mask="url(#mask-4)" points="636.349239 74.0425471 637.282977 78.2240674 641.458999 79.1600104 637.282977 80.0949784 636.349239 84.2774737 635.414527 80.0949784 631.238505 79.1600104 635.414527 78.2240674"></polygon>
                <polygon id="Fill-243" fill="#FFFFFF" mask="url(#mask-4)" points="524.998436 150.16981 525.932174 154.352305 530.108196 155.287273 525.932174 156.222241 524.998436 160.404736 524.063723 156.222241 519.887702 155.287273 524.063723 154.352305"></polygon>
            </g>
        </g>
    </g>
</svg>