<?xml version="1.0" encoding="UTF-8"?>
<svg width="120px" height="120px" viewBox="0 0 120 120" version="1.1" xmlns="http://www.w3.org/2000/svg" xmlns:xlink="http://www.w3.org/1999/xlink">
    <!-- Generator: Sketch 51.1 (57501) - http://www.bohemiancoding.com/sketch -->
    <title>Lovely number8</title>
    <desc>Created with Sketch.</desc>
    <defs>
        <polygon id="path-1" points="0.679008962 0.80770353 87.286 0.80770353 87.286 117.999699 0.679008962 117.999699"></polygon>
        <polygon id="path-3" points="0 0.000334839267 86.6055776 0.000334839267 86.6055776 117.191962 0 117.191962"></polygon>
    </defs>
    <g id="Lovely-number8" stroke="none" stroke-width="1" fill="none" fill-rule="evenodd">
        <g id="Page-1" transform="translate(14.000000, 0.000000)">
            <g id="Group-3" transform="translate(4.000000, 2.000000)">
                <mask id="mask-2" fill="white">
                    <use xlink:href="#path-1"></use>
                </mask>
                <g id="Clip-2"></g>
                <path d="M34.1159,83.3555 C34.2359,79.4545 36.9419,74.4805 40.6719,71.9185 C41.1369,71.7185 41.6169,71.5465 42.1249,71.4075 C45.2769,70.5495 49.0159,71.0015 51.6939,72.8825 C53.9809,74.4905 56.6809,76.6315 57.7619,79.2865 C58.8239,81.9125 58.6879,85.0425 57.3889,87.5565 C54.8879,92.3995 48.7839,94.9325 43.5309,93.9035 C38.3349,92.8875 33.9429,88.9395 34.1159,83.3555 M40.2199,24.5565 C40.6859,24.3565 41.1709,24.1795 41.6739,24.0435 C44.8259,23.1825 48.5649,23.6385 51.2429,25.5205 C53.5289,27.1265 56.2339,29.2695 57.3099,31.9235 C58.3719,34.5445 58.2369,37.6735 56.9369,40.1885 C54.4369,45.0365 48.3319,47.5655 43.0799,46.5415 C37.8829,45.5255 33.4919,41.5725 33.6639,35.9935 C33.7849,32.0855 36.4899,27.1185 40.2199,24.5565 M85.5069,92.1105 C87.6989,85.6695 87.9609,78.3645 85.7579,71.8865 C83.7929,66.1175 80.1139,61.1955 75.9459,56.8085 C86.6189,47.8725 85.3659,29.6785 78.6929,18.6705 C70.4319,5.0315 53.9159,-1.4515 38.4739,1.5155 C34.2459,2.3305 30.1379,3.8805 26.3349,5.8875 C25.7289,6.2055 25.1469,6.5445 24.5739,6.8935 C19.6049,9.4685 15.1119,12.9655 11.9449,17.6415 C7.9769,23.4955 6.7439,30.9735 8.3409,37.8365 C9.8309,44.2115 13.9669,49.3535 18.3199,54.0805 C14.2089,58.2195 10.5489,62.9925 7.3729,67.8215 C3.8469,73.1765 0.7369,79.2725 0.6799,85.8245 C0.5689,98.6625 10.8459,108.2045 21.8589,112.9205 C33.9329,118.0895 48.0759,119.8685 60.6999,115.6305 C71.9929,111.8405 81.6079,103.5465 85.5069,92.1105" id="Fill-1" fill="#E6E6E6" mask="url(#mask-2)"></path>
            </g>
            <path d="M58.5212,44.2754 C61.0822,41.2024 62.3632,37.2204 61.9062,33.2294 C61.4082,28.9084 58.8702,25.9194 55.5642,23.3294 C51.9922,20.5314 47.8942,18.2674 43.1862,19.3764 C42.7672,19.4734 42.3432,19.5944 41.9192,19.7344 C40.2862,20.1394 38.7252,20.9214 37.2952,21.9564 C34.2412,24.1684 31.4522,27.8744 30.2502,31.5714 C27.9362,38.7014 31.5632,45.8774 38.3252,48.8204 C45.2032,51.8194 53.6502,50.1144 58.5212,44.2754 M58.9672,91.6424 C61.5342,88.5694 62.8142,84.5884 62.3582,80.5914 C61.8602,76.2754 59.3222,73.2864 56.0152,70.6924 C52.4442,67.8984 48.3462,65.6304 43.6382,66.7384 C43.2192,66.8374 42.7952,66.9624 42.3722,67.0974 C40.7372,67.5024 39.1772,68.2854 37.7482,69.3184 C34.6932,71.5304 31.8992,75.2374 30.6972,78.9394 C28.3872,86.0634 32.0152,93.2444 38.7772,96.1874 C45.6552,99.1814 54.1012,97.4774 58.9672,91.6424 M79.2292,70.3474 C81.5522,75.2044 82.1022,80.8524 81.0912,86.1154 C79.0662,96.6854 71.4612,104.8904 61.7992,109.2164 C50.8842,114.1014 38.2742,113.4864 27.1022,109.8174 C16.9232,106.4784 6.3622,99.7634 4.4342,88.3694 C3.3312,81.8124 6.5202,75.6564 10.0642,70.3714 C13.8772,64.6894 18.6782,60.1354 23.4942,55.3354 C24.5502,54.2874 24.5642,52.4624 23.4942,51.4094 C19.1812,47.1714 14.5852,42.7294 12.7552,36.7874 C10.9302,30.8494 11.8292,24.3494 15.2142,19.1384 C18.2882,14.4174 23.0602,10.9704 28.0342,8.4844 C28.3502,8.3264 28.6672,8.1714 28.9842,8.0234 C37.2262,4.7124 46.3302,3.8794 55.0802,6.4814 C67.8852,10.2994 77.7152,21.7604 78.0792,35.3574 C78.2602,42.3334 75.7642,49.4534 69.5992,53.2294 C68.1272,54.1294 67.6942,56.3444 69.0362,57.5844 C73.0632,61.3134 76.8352,65.3464 79.2292,70.3474" id="Fill-4" fill="#00B3E6"></path>
            <g id="Group-8">
                <mask id="mask-4" fill="white">
                    <use xlink:href="#path-3"></use>
                </mask>
                <g id="Clip-7"></g>
                <path d="M81.0915,86.1152 C82.1025,80.8522 81.5525,75.2042 79.2295,70.3472 C76.8355,65.3462 73.0635,61.3132 69.0355,57.5842 C67.6945,56.3442 68.1275,54.1292 69.5995,53.2292 C75.7645,49.4532 78.2605,42.3332 78.0785,35.3572 C77.7155,21.7612 67.8855,10.3002 55.0795,6.4812 C46.3295,3.8792 37.2265,4.7122 28.9845,8.0232 C28.6665,8.1722 28.3505,8.3262 28.0335,8.4842 C23.0605,10.9702 18.2875,14.4172 15.2145,19.1382 C11.8285,24.3492 10.9305,30.8492 12.7555,36.7872 C14.5855,42.7292 19.1815,47.1722 23.4935,51.4092 C24.5645,52.4622 24.5505,54.2872 23.4935,55.3352 C18.6785,60.1362 13.8775,64.6892 10.0645,70.3712 C6.5205,75.6562 3.3305,81.8122 4.4345,88.3692 C6.3625,99.7632 16.9235,106.4782 27.1025,109.8172 C38.2745,113.4862 50.8845,114.1012 61.7995,109.2172 C71.4615,104.8902 79.0665,96.6852 81.0915,86.1152 M85.0775,71.0792 C87.2795,77.5552 87.0195,84.8622 84.8255,91.3022 C80.9285,102.7392 71.3125,111.0322 60.0205,114.8232 C47.3965,119.0602 33.2535,117.2822 21.1795,112.1132 C10.1665,107.3952 -0.1105,97.8542 0.0005,85.0152 C0.0565,78.4642 3.1675,72.3682 6.6925,67.0132 C9.8675,62.1842 13.5285,57.4112 17.6405,53.2712 C13.2855,48.5452 9.1515,43.4042 7.6605,37.0292 C6.0645,30.1652 7.2975,22.6862 11.2655,16.8342 C14.4315,12.1582 18.9255,8.6612 23.8945,6.0862 C24.4665,5.7362 25.0485,5.3962 25.6535,5.0802 C29.4585,3.0732 33.5665,1.5222 37.7935,0.7082 C53.2355,-2.2588 69.7525,4.2232 78.0135,17.8622 C84.6865,28.8712 85.9395,47.0642 75.2665,56.0012 C79.4335,60.3862 83.1125,65.3092 85.0775,71.0792" id="Fill-6" fill="#118ACB" mask="url(#mask-4)"></path>
            </g>
            <path d="M56.7097,86.748 C58.0087,84.233 58.1437,81.104 57.0817,78.478 C56.0017,75.824 53.3007,73.682 51.0147,72.075 C48.3367,70.194 44.5977,69.742 41.4447,70.599 C40.9377,70.738 40.4577,70.911 39.9917,71.111 C36.2627,73.673 33.5567,78.645 33.4357,82.548 C33.2637,88.131 37.6537,92.08 42.8517,93.096 C48.1047,94.124 54.2087,91.591 56.7097,86.748 M62.3577,80.592 C62.8137,84.588 61.5337,88.569 58.9677,91.643 C54.1017,97.477 45.6547,99.182 38.7767,96.187 C32.0157,93.244 28.3877,86.063 30.6967,78.939 C31.8987,75.237 34.6927,71.53 37.7477,69.318 C39.1777,68.285 40.7367,67.502 42.3717,67.098 C42.7957,66.962 43.2197,66.837 43.6387,66.738 C48.3467,65.631 52.4437,67.898 56.0157,70.692 C59.3217,73.286 61.8597,76.275 62.3577,80.592" id="Fill-9" fill="#118ACB"></path>
            <path d="M56.2575,39.3809 C57.5575,36.8659 57.6925,33.7369 56.6305,31.1149 C55.5545,28.4609 52.8495,26.3189 50.5625,24.7129 C47.8855,22.8309 44.1465,22.3749 40.9925,23.2359 C40.4895,23.3709 40.0055,23.5489 39.5405,23.7489 C35.8105,26.3099 33.1055,31.2779 32.9845,35.1859 C32.8115,40.7639 37.2025,44.7179 42.3995,45.7329 C47.6525,46.7569 53.7575,44.2289 56.2575,39.3809 M61.9055,33.2299 C62.3625,37.2209 61.0815,41.2019 58.5215,44.2759 C53.6505,50.1139 45.2025,51.8189 38.3245,48.8199 C31.5635,45.8769 27.9365,38.7009 30.2505,31.5709 C31.4515,27.8739 34.2405,24.1679 37.2955,21.9559 C38.7255,20.9219 40.2855,20.1399 41.9195,19.7349 C42.3435,19.5949 42.7675,19.4739 43.1865,19.3759 C47.8945,18.2679 51.9915,20.5309 55.5645,23.3289 C58.8695,25.9189 61.4075,28.9079 61.9055,33.2299" id="Fill-11" fill="#118ACB"></path>
            <path d="M71.6501,29.7236 C71.1371,26.7736 69.9121,23.8746 68.2831,21.3696 C64.9111,16.1836 59.8101,12.5496 54.0541,10.4256 C48.2041,8.2676 41.6931,7.8076 35.6661,9.5236 C32.6951,10.3696 29.8371,11.6326 27.3481,13.4706 C24.9161,15.2686 23.3981,17.4336 21.5861,19.8076 C21.1391,20.3916 22.0731,21.0346 22.5711,20.5676 C24.4091,18.8486 26.8631,17.6046 29.0841,16.4396 C31.4051,15.2216 33.8531,14.1926 36.3981,13.5496 C41.4871,12.2646 46.8761,12.5156 51.8161,14.2976 C56.4901,15.9846 60.6811,19.2446 63.3881,23.4116 C64.7351,25.4846 65.7271,27.7226 66.2121,30.1546 C66.6871,32.5376 66.3131,34.7906 67.0061,37.1306 C67.3811,38.3956 69.2511,39.1356 70.1991,37.9746 C72.2661,35.4416 72.1981,32.8746 71.6501,29.7236" id="Fill-13" fill="#FFFFFF" opacity="0.5"></path>
            <path d="M69.487,40.7363 C69.057,40.4863 68.593,40.3613 68.096,40.3593 C67.599,40.3613 67.135,40.4863 66.706,40.7363 C66.665,40.7543 66.623,40.7723 66.582,40.7903 C66.177,41.0303 65.855,41.3513 65.616,41.7573 C65.373,42.1763 65.25,42.6303 65.249,43.1153 C65.25,43.6013 65.373,44.0543 65.616,44.4743 C65.855,44.8793 66.177,45.2013 66.582,45.4403 C66.623,45.4593 66.665,45.4763 66.706,45.4953 C67.135,45.7443 67.599,45.8703 68.096,45.8713 C68.593,45.8703 69.057,45.7443 69.487,45.4953 C70.326,45.0053 70.852,44.0873 70.852,43.1153 C70.852,42.1443 70.326,41.2263 69.487,40.7363" id="Fill-15" fill="#FFFFFF" opacity="0.5"></path>
            <path d="M74.2468,68.668 C71.8048,64.552 68.5158,61.917 64.3858,59.656 C63.8828,59.381 63.3148,60.056 63.7578,60.471 C69.4778,65.836 72.7958,74.055 71.8038,81.86 C71.3148,85.706 69.6848,89.166 67.2068,92.122 C64.5968,95.237 61.2848,97.586 58.8588,100.859 C57.6648,102.47 59.6778,105.165 61.5698,104.387 C70.3938,100.758 76.9208,91.334 77.5188,81.86 C77.8028,77.379 76.5338,72.521 74.2468,68.668" id="Fill-17" fill="#FFFFFF" opacity="0.5"></path>
        </g>
    </g>
</svg>