<?xml version="1.0" encoding="UTF-8"?>
<svg width="120px" height="120px" viewBox="0 0 120 120" version="1.1" xmlns="http://www.w3.org/2000/svg" xmlns:xlink="http://www.w3.org/1999/xlink">
    <!-- Generator: Sketch 51.1 (57501) - http://www.bohemiancoding.com/sketch -->
    <title>Baby8</title>
    <desc>Created with Sketch.</desc>
    <defs></defs>
    <g id="Baby8" stroke="none" stroke-width="1" fill="none" fill-rule="evenodd">
        <g id="Group-170" transform="translate(60.500000, 60.500000) scale(-1, 1) translate(-60.500000, -60.500000) translate(1.000000, 10.000000)">
            <path d="M38.8867027,38.0058113 C39.7542703,38.0058113 40.4742703,38.7144403 40.4742703,39.6006339 C40.4742703,40.4835694 39.7542703,41.1938274 38.8867027,41.1938274 C38.0061622,41.1938274 37.2861622,40.4835694 37.2861622,39.6006339 C37.2861622,38.7144403 38.0061622,38.0058113 38.8867027,38.0058113" id="Fill-93" fill="#FEFEFE"></path>
            <path d="M118.002541,78.104929 C118.487405,80.2014935 117.634432,81.4265258 108.816054,81.7979452 C108.816054,81.7979452 110.403622,77.9876387 105.996054,76.5101065 C105.996054,76.5101065 105.996054,74.5780742 108.199838,74.4005097 L108.199838,74.4135419 C108.199838,74.4135419 105.996054,75.6548645 110.037135,76.6290258 C114.049027,77.6031871 117.694432,77.7351387 117.282541,77.0118484 C117.649027,77.3523161 117.914973,77.7058161 118.002541,78.104929" id="Fill-95" fill="#B4B5B5"></path>
            <path d="M117.281892,77.0120113 C117.693784,77.7353016 114.048378,77.60335 110.036486,76.6291887 C105.995405,75.6550274 108.199189,74.4137048 108.199189,74.4137048 L108.199189,74.3990435 C108.478108,74.369721 108.815405,74.369721 109.185135,74.4137048 C111.771622,74.7101887 115.634324,75.5800919 117.267297,76.99735 C117.267297,76.99735 117.267297,77.0120113 117.281892,77.0120113" id="Fill-97" fill="#C8C9C9"></path>
            <path d="M81.0535676,86.992929 C79.526,84.4532677 79.3054595,81.5601065 79.3054595,81.5601065 C74.0287027,83.0360097 65.0919459,83.5230903 65.0919459,83.5230903 L64.4741081,84.5135419 C61.0508649,90.1679129 56.8914054,94.2274613 56.8914054,94.2274613 C52.4822162,95.9558645 48.073027,93.0008 48.073027,93.0008 C46.3541081,90.1679129 46.3541081,84.1437516 46.3541081,84.1437516 C41.3270811,83.5230903 36.1832973,82.4153484 36.1832973,82.4153484 L30.4362703,89.7997516 C25.7773514,90.6549935 24.4249189,87.9540581 24.4249189,87.9540581 C23.6757297,81.0567355 25.5551892,73.4100581 26.0416757,71.6230097 C29.8768108,72.597171 35.198973,73.5436387 40.4303243,73.1754774 C40.7692432,73.1445258 41.1227568,73.1152032 41.4600541,73.0695903 C51.4832973,71.9765097 64.4011351,69.9255581 70.6038378,56.9486871 C70.6492432,56.9030742 70.6638378,56.8607194 70.6914054,56.8004452 C72.6032973,53.5374935 74.5573514,47.0555742 74.1016757,38.0063 C105.862757,36.9278806 103.305459,75.6548645 103.305459,75.6548645 L105.99573,76.5101065 C110.404919,77.9876387 108.81573,81.7979452 108.81573,81.7979452 C108.81573,81.7979452 99.2627568,88.3222194 89.7097838,90.4187839 C85.0800541,91.4222677 82.4935676,89.3696871 81.0535676,86.992929" id="Fill-99" fill="#CEEAFA"></path>
            <path d="M79.3052973,81.5602694 C79.3052973,81.5602694 79.5258378,84.4534306 81.0534054,86.9930919 C65.4452973,89.6353823 64.4739459,84.5120758 64.4739459,84.5120758 L65.0917838,83.5232532 C65.0917838,83.5232532 74.0285405,83.0361726 79.3052973,81.5602694" id="Fill-101" fill="#B8DAEC"></path>
            <path d="M74.1015135,38.0058113 C74.5571892,47.0567145 72.6031351,53.5370048 70.6912432,56.7999565 C70.6636757,56.8602306 70.6490811,56.9042145 70.6036757,56.9481984 L64.8874595,48.1025532 L64.4739459,47.4704887 C64.4739459,47.4704887 72.0728649,42.8033113 68.5182703,36.8964403 C64.975027,30.9911984 60.4328649,34.5506339 59.6982703,38.8610532 C58.9636757,43.1731016 56.6415135,42.18265 55.9069189,37.5024403 C55.1723243,32.8368919 53.5847568,29.6325855 51.8642162,27.9074403 C51.8642162,27.9074403 40.3555676,23.2418919 26.395027,30.2532468 C26.395027,30.2532468 26.5117838,26.680779 28.9669189,24.7177952 C28.9669189,24.7177952 16.2242162,24.0971339 7.52259459,34.3127952 C7.52259459,34.3127952 6.42151351,31.1101177 7.77394595,28.1566823 C7.77394595,28.1566823 3.80421622,29.9437306 1.37989189,34.757521 C1.16097297,35.1566339 0.968,35.5850694 0.792864865,36.0265371 C0.792864865,36.0265371 -3.86605405,14.5005048 19.5323243,4.16592419 C42.9290811,-6.17028548 58.3604324,6.12890806 60.3161081,14.0117952 C60.3161081,14.0117952 70.7220541,16.9652306 73.1771892,30.2532468 C73.6896216,33.0014242 73.9847568,35.5981016 74.1015135,38.0058113" id="Fill-103" fill="#B18247"></path>
            <path d="M64.8881081,48.1030419 L70.6027027,56.9486871 C64.4016216,69.9255581 51.4821622,71.9765097 41.4605405,73.0695903 C41.1232432,73.1168323 40.7697297,73.1445258 40.4308108,73.1754774 C39.4318919,70.2806871 37.5216216,59.3091548 44.0324324,52.8891387 C50.6454054,46.3632355 64.7243243,48.2073 64.7243243,48.2073 L64.8881081,48.1030419 Z" id="Fill-105" fill="#FEEFC2"></path>
            <path d="M18.0621622,34.9196097 C18.0621622,34.9196097 15.3718919,30.1221097 10.712973,33.9438194 C10.712973,33.9438194 14.2691892,32.4679161 18.0621622,34.9196097 M18.1789189,41.0757226 C18.1789189,38.4920774 16.1064865,36.3955129 13.5345946,36.3955129 C10.9627027,36.3955129 8.87567568,38.4920774 8.87567568,41.0757226 C8.87567568,43.6593677 10.9627027,45.7559323 13.5345946,45.7559323 C16.1064865,45.7559323 18.1789189,43.6593677 18.1789189,41.0757226 M27.8648649,66.1758516 C34.2281081,66.0569323 35.3291892,61.6292226 35.0810811,57.0663032 C34.8459459,52.5196742 31.4064865,48.7093677 26.0275676,48.8266581 C21.0459459,48.9325452 19.6189189,52.5196742 19.4437838,53.0654 C18.1497297,53.0930935 16.8556757,53.3602548 15.8567568,54.1128677 C12.9167568,56.3283516 13.2848649,61.3767226 16.8410811,62.9715452 C17.9291892,63.4602548 19.2086486,63.6361903 20.4864865,63.5628839 C20.8967568,64.2259 22.5443243,66.2801097 27.8648649,66.1758516 M36.3151351,34.9196097 C39.1221622,32.4679161 43.1632432,33.2058677 43.1632432,33.2058677 C37.652973,30.3713516 36.3151351,34.9196097 36.3151351,34.9196097 M44.6340541,41.0757226 C44.6340541,38.4920774 42.5616216,36.3955129 39.9881081,36.3955129 C37.4178378,36.3955129 35.3291892,38.4920774 35.3291892,41.0757226 C35.3291892,43.6593677 37.4178378,45.7559323 39.9881081,45.7559323 C42.5616216,45.7559323 44.6340541,43.6593677 44.6340541,41.0757226 M26.0421622,71.6233355 C22.6318919,70.7518032 20.3843243,69.8672387 20.3843243,69.8672387 C18.0913514,69.378529 16.1064865,68.7448355 14.3859459,68.0362065 C14.6502703,49.8024484 2.14432432,47.9714161 2.01297297,47.9714161 L1.92378378,47.9714161 C2.04054054,44.6791419 2.37945946,41.6686903 2.37945946,40.4550613 C2.37945946,38.3454645 1.64486486,35.6722226 1.38054054,34.7567065 C3.80486486,29.9429161 7.77297297,28.1574968 7.77297297,28.1574968 C6.42054054,31.1093032 7.52324324,34.3136097 7.52324324,34.3136097 C16.2232432,24.0963194 28.9675676,24.7169806 28.9675676,24.7169806 C26.5124324,26.6799645 26.3956757,30.2540613 26.3956757,30.2540613 C40.3562162,23.2410774 51.8648649,27.9066258 51.8648649,27.9066258 C53.5837838,29.6334 55.172973,32.8377065 55.9075676,37.5032548 C56.6421622,42.1834645 58.9643243,43.1722871 59.6989189,38.8618677 C60.4335135,34.5498194 64.9756757,30.9920129 68.5172973,36.8972548 C72.0735135,42.8041258 64.4745946,47.4696742 64.4745946,47.4696742 L64.8881081,48.1033677 L64.7243243,48.2076258 C64.7243243,48.2076258 50.6454054,46.3619323 44.0324324,52.8878355 C37.5216216,59.3094806 39.4318919,70.2810129 40.4308108,73.1741742 C35.1978378,73.5439645 29.8772973,72.5974968 26.0421622,71.6233355" id="Fill-107" fill="#FEEFC2"></path>
            <path d="M56.8907568,94.2281129 C60.1988649,97.062629 57.9934595,99.7635645 55.6567027,100.133355 C53.3345405,100.503145 50.6442703,99.0256129 49.5431892,97.2988387 C48.4404865,95.5867258 46.6031892,96.4419677 45.134,95.4531452 C43.6648108,94.4789839 48.074,93.0014516 48.074,93.0014516 C48.074,93.0014516 52.4815676,95.9565161 56.8907568,94.2281129" id="Fill-109" fill="#FCE2AE"></path>
            <path d="M40.4750811,39.5998194 C40.4750811,38.7136258 39.7550811,38.0049968 38.8875135,38.0049968 C38.006973,38.0049968 37.2853514,38.7136258 37.2853514,39.5998194 C37.2853514,40.4843839 38.006973,41.1946419 38.8875135,41.1946419 C39.7550811,41.1946419 40.4750811,40.4843839 40.4750811,39.5998194 M39.9885946,36.3955129 C42.5621081,36.3955129 44.6329189,38.4920774 44.6329189,41.0757226 C44.6329189,43.6593677 42.5621081,45.7559323 39.9885946,45.7559323 C37.4167027,45.7559323 35.3296757,43.6593677 35.3296757,41.0757226 C35.3296757,38.4920774 37.4167027,36.3955129 39.9885946,36.3955129" id="Fill-111" fill="#3F3A3A"></path>
            <path d="M43.1640541,33.2061935 C43.1640541,33.2061935 39.122973,32.4682419 36.3143243,34.9199355 C36.3143243,34.9199355 37.6537838,30.3716774 43.1640541,33.2061935" id="Fill-113" fill="#B18247"></path>
            <path d="M35.0812432,57.0658145 C35.3293514,61.6287339 34.2282703,66.0580726 27.865027,66.1753629 C22.5444865,66.279621 20.8969189,64.2270403 20.4866486,63.5623952 C23.3812432,63.3864597 26.3504324,61.9692016 27.3639459,60.270121 C28.8331351,57.8037661 28.3498919,54.8519597 24.4255676,53.8761694 C24.4255676,53.8761694 21.9558378,53.0062661 19.4423243,53.0649113 C19.6190811,52.5191855 21.0461081,48.9320565 26.0277297,48.8261694 C31.4066486,48.708879 34.8444865,52.5191855 35.0812432,57.0658145" id="Fill-115" fill="#CEEAFA"></path>
            <path d="M30.4364324,89.7992629 C30.4364324,89.7992629 32.1423784,92.5001984 31.2877838,93.1208597 C30.4364324,93.741521 28.4661622,91.6449565 26.8802162,92.2639887 C25.2926486,92.8699887 23.5737297,94.4794726 21.0018378,92.1320371 C18.4299459,89.7992629 20.0158919,86.8458274 24.4250811,87.9535694 C24.4250811,87.9535694 25.7775135,90.6545048 30.4364324,89.7992629" id="Fill-117" fill="#FCE2AE"></path>
            <path d="M19.442973,53.0649113 C21.9564865,53.0062661 24.4245946,53.8761694 24.4245946,53.8761694 C28.3489189,54.8519597 28.8337838,57.8037661 27.3645946,60.270121 C26.3510811,61.9692016 23.3818919,63.3864597 20.4872973,63.5623952 C19.2078378,63.6357016 17.9283784,63.4597661 16.8418919,62.9710565 C13.2840541,61.3778629 12.9175676,56.3278629 15.8559459,54.1140081 C16.8548649,53.3613952 18.1489189,53.0942339 19.442973,53.0649113" id="Fill-119" fill="#CEEAFA"></path>
            <path d="M14.138,39.4822032 C14.138,38.5960097 13.430973,37.8727194 12.5504324,37.8727194 C11.6698919,37.8727194 10.9628649,38.5960097 10.9628649,39.4822032 C10.9628649,40.3667677 11.6698919,41.0770258 12.5504324,41.0770258 C13.430973,41.0770258 14.138,40.3667677 14.138,39.4822032 M13.5347568,36.3951871 C16.1066486,36.3951871 18.1790811,38.4933806 18.1790811,41.0770258 C18.1790811,43.6590419 16.1066486,45.7572355 13.5347568,45.7572355 C10.9628649,45.7572355 8.87583784,43.6590419 8.87583784,41.0770258 C8.87583784,38.4933806 10.9628649,36.3951871 13.5347568,36.3951871" id="Fill-121" fill="#3F3A3A"></path>
            <path d="M10.7124865,33.9443081 C15.3714054,30.1209694 18.0616757,34.9200984 18.0616757,34.9200984 C14.2687027,32.4684048 10.7124865,33.9443081 10.7124865,33.9443081" id="Fill-123" fill="#B18247"></path>
            <path d="M2.01216216,47.9709274 C2.14351351,47.9709274 14.6510811,49.8019597 14.3867568,68.0357177 C7.94891892,65.3184919 5.1727027,61.2589435 3.24621622,58.0546371 C1.93918919,55.8847661 1.77540541,51.735621 1.92297297,47.9709274 L2.01216216,47.9709274 Z" id="Fill-125" fill="#FEEFC2"></path>
            <path d="M12.5496216,37.8722306 C13.4317838,37.8722306 14.1371892,38.595521 14.1371892,39.4817145 C14.1371892,40.366279 13.4317838,41.0765371 12.5496216,41.0765371 C11.6690811,41.0765371 10.9620541,40.366279 10.9620541,39.4817145 C10.9620541,38.595521 11.6690811,37.8722306 12.5496216,37.8722306" id="Fill-127" fill="#FEFEFE"></path>
            <path d="M51.2515676,14.1318548 C34.9834595,11.5498387 27.3423784,5.75537097 24.3796757,2.30996774 C22.8034595,2.82637097 21.1883243,3.434 19.531027,4.16543548 C12.2450811,7.38277419 7.68183784,11.6866774 4.85048649,16.0866935 C21.6472432,20.7131452 51.2515676,14.1318548 51.2515676,14.1318548" id="Fill-129" fill="#DA974C"></path>
            <path d="M7.178,30.296579 C7.26718919,29.6009823 7.44556757,28.8728048 7.77313514,28.1576597 C7.77313514,28.1576597 5.39583784,29.236079 3.19854054,31.9516758 L7.178,30.296579 Z" id="Fill-131" fill="#FCE2AE"></path>
            <path d="M7.52324324,34.3134468 C7.52324324,34.3134468 18.3297297,27.5220113 27.5762162,26.3425919 C27.9281081,25.7561403 28.3740541,25.1892371 28.9675676,24.7168177 C28.9675676,24.7168177 16.2232432,24.0977855 7.52324324,34.3134468" id="Fill-133" fill="#FCE2AE"></path>
            <path d="M35.0812432,57.0658145 C34.8444865,52.5191855 31.4066486,48.708879 26.0277297,48.8261694 C21.0461081,48.9320565 19.6190811,52.5191855 19.4423243,53.0649113 C21.0055676,53.0274435 22.5493514,53.351621 23.4947568,53.5992339 C26.965027,48.3830726 32.4477297,51.7225887 33.8601622,56.4565565 C35.3293514,61.3778629 29.6974595,63.09975 29.2077297,58.4244274 C28.9888108,56.3392661 27.7482703,55.2852823 26.4396216,54.7542177 C28.4342162,56.0949113 28.5234054,58.3250565 27.3639459,60.270121 C26.3504324,61.9692016 23.3812432,63.3864597 20.4866486,63.5623952 C20.8969189,64.2270403 22.5444865,66.279621 27.865027,66.1753629 C34.2282703,66.0580726 35.3293514,61.6287339 35.0812432,57.0658145" id="Fill-139" fill="#C2DDEC"></path>
            <path d="M15.7341622,56.9481984 C15.7341622,56.9481984 16.7136216,54.4867306 19.6552432,54.4867306 C22.5936216,54.4867306 24.799027,55.71665 24.799027,56.7022145 C24.799027,57.68615 21.8574054,58.9160694 19.8984865,59.1620532 C17.9395676,59.4096661 15.7341622,58.1781177 15.7341622,56.9481984" id="Fill-141" fill="#FEFEFE"></path>
            <path d="M45.1292973,76.6332613 C54.6838919,76.1412935 66.9287568,71.2216161 73.7898378,61.3773742 C80.4595676,51.8035516 85.2903784,42.7298419 94.7914595,46.0905355 C90.4422703,41.1431645 83.9136216,37.6716968 74.1011892,38.0056484 C74.5568649,47.0565516 72.6028108,53.5368419 70.6925405,56.7997935 C70.6633514,56.8600677 70.6487568,56.9040516 70.6033514,56.9480355 C64.4022703,69.9265355 51.4828108,71.9774871 41.4595676,73.0689387 C41.1222703,73.1161806 40.7703784,73.1438742 40.4314595,73.1748258 C35.1984865,73.5446161 29.8779459,72.5965194 26.0411892,71.6239871 C26.0411892,71.6256161 26.0411892,71.6288742 26.0411892,71.6305032 C29.1255135,73.1976323 37.5092973,77.024229 45.1292973,76.6332613" id="Fill-143" fill="#B8DAEC"></path>
            <path d="M66.5619459,64.5142387 C71.0051892,59.578271 84.0008649,44.0894323 74.1397838,38.0929645 C74.9441081,38.5833032 73.6062703,46.5378677 73.4441081,47.6114 C72.9673514,50.8010452 72.1403243,53.9499645 70.7635676,56.8724484 C67.8316757,63.0920935 62.6149189,67.4904806 56.2338378,69.8509484 C52.4538378,71.2535452 48.3008649,72.2146742 44.3051892,72.7310774 C52.5187027,72.3612871 61.2819459,70.3820129 66.5619459,64.5142387" id="Fill-145" fill="#A7C7D7"></path>
        </g>
    </g>
</svg>