<?xml version="1.0" encoding="UTF-8"?>
<svg width="120px" height="120px" viewBox="0 0 120 120" version="1.1" xmlns="http://www.w3.org/2000/svg" xmlns:xlink="http://www.w3.org/1999/xlink">
    <!-- Generator: Sketch 51.1 (57501) - http://www.bohemiancoding.com/sketch -->
    <title>Snow6</title>
    <desc>Created with Sketch.</desc>
    <defs></defs>
    <g id="Snow6" stroke="none" stroke-width="1" fill="none" fill-rule="evenodd">
        <path d="M60.0003229,71.6561406 C53.55283,71.6561406 48.3257179,66.4379537 48.3257179,59.9999129 C48.3257179,53.5625691 53.55283,48.3443822 60.0003229,48.3443822 C66.4478159,48.3443822 71.674928,53.5625691 71.674928,59.9999129 C71.674928,66.4379537 66.4478159,71.6561406 60.0003229,71.6561406 Z M114.398034,46.5313306 C116.34799,47.0534282 118.352403,45.8977036 118.874626,43.9515137 C119.396848,42.0046267 118.24,40.0033691 116.290741,39.4819687 L105.324069,36.5480455 C105.458115,35.7429419 105.324069,34.8890441 104.884229,34.1271582 C104.443691,33.3652722 103.76927,32.82296 103.004787,32.5364686 L105.943336,21.5877562 C106.465558,19.6408692 105.308011,17.6396116 103.358753,17.1182111 C101.408797,16.5968107 99.4036857,17.7518381 98.8814632,19.6987251 L94.5403142,35.8760803 L88.8838347,39.1369243 L91.3336726,30.0089311 C91.8558951,28.0620441 90.6990466,26.0614835 88.7490902,25.5400831 C86.7991337,25.0179856 84.7947209,26.1730131 84.2724984,28.1199 L79.9306512,44.2979522 L79.3190644,44.6499673 C78.6662863,43.5221251 78.0142064,42.3935859 77.3614282,41.2643496 C76.073326,39.0372448 74.8033758,35.5470682 71.7489327,35.5470682 L63.7899268,35.5470682 L63.6551822,35.5470682 L63.6551822,34.9162294 L75.5168937,23.0731898 C76.9446277,21.6477033 76.9446277,19.3369513 75.5168937,17.9121618 C74.0898579,16.4866753 71.7747646,16.4866753 70.3477288,17.9121618 L63.6551822,24.5934764 L63.6551822,18.0731825 L75.5168937,6.23014288 C76.9446277,4.80535342 76.9446277,2.49390436 75.5168937,1.06911489 C74.0898579,-0.356371631 71.7747646,-0.356371631 70.3477288,1.06911489 L62.3203034,9.08390417 C61.6891681,8.56598902 60.8813989,8.25440346 60.0003229,8.25440346 C59.119247,8.25440346 58.3114777,8.56598902 57.6803425,9.08390417 L49.6529171,1.06911489 C48.2251831,-0.356371631 45.910788,-0.356371631 44.4837522,1.06911489 C43.0560182,2.49390436 43.0560182,4.80535342 44.4837522,6.23014288 L56.3454636,18.0731825 L56.3454636,24.5934764 L49.6529171,17.9121618 C48.2251831,16.4866753 45.910788,16.4866753 44.4837522,17.9121618 C43.0560182,19.3369513 43.0560182,21.6477033 44.4837522,23.0731898 L56.3454636,34.9162294 L56.3454636,35.5470682 L51.7871873,35.5470682 C49.2291349,35.5470682 46.232639,35.0500648 44.7176352,37.6703112 C43.372284,39.9970956 42.0269327,42.3238799 40.6815814,44.6499673 L40.0699947,44.2979522 L35.7281475,28.1199 C35.205925,26.1730131 33.2015122,25.0179856 31.2515557,25.5400831 C29.3015993,26.0614835 28.1447508,28.0620441 28.6669733,30.0089311 L31.1168112,39.1369243 L25.4603317,35.8760803 L21.1191827,19.6987251 C20.596262,17.7518381 18.5918492,16.5968107 16.6418927,17.1182111 C14.6926344,17.6396116 13.5350878,19.6408692 14.0573103,21.5877562 L16.9958591,32.5364686 C16.2313756,32.82296 15.5569546,33.3652722 15.1164166,34.1271582 C14.6765768,34.8890441 14.5425304,35.7429419 14.6765768,36.5480455 L3.71060257,39.4819687 C1.76064612,40.0033691 0.603099468,42.0046267 1.12602012,43.9515137 C1.64824262,45.8977036 3.65265542,47.0534282 5.60191372,46.5313306 L21.8054724,42.1970151 L27.4619519,45.4571621 L18.3195674,47.9031436 C16.369611,48.424544 15.2127625,50.4258017 15.7356831,52.3726886 C16.2579056,54.3195756 18.2616203,55.4746031 20.2115767,54.9532026 L36.4151354,50.6181901 L37.0267221,50.9709021 C36.1693836,52.4521534 35.3127432,53.9341017 34.4561029,55.415353 C33.9792607,56.2406714 33.5017203,57.0652927 33.0248781,57.890611 C32.3246252,59.1014033 32.3246252,60.6035663 33.0248781,61.8143586 C34.4009483,64.1948165 35.7784149,66.5752744 37.1544851,68.9557324 L36.4151354,69.3816357 L20.2115767,65.0473202 C18.2616203,64.5259197 16.2579056,65.6809472 15.7356831,67.6278342 C15.2127625,69.5747211 16.369611,71.5759788 18.3195674,72.0973792 L27.4619519,74.5433607 L21.8054724,77.8035077 L5.60191372,73.4691922 C3.65265542,72.9470946 1.64824262,74.1028192 1.12532196,76.0490091 C0.603099468,77.9958961 1.76064612,79.9971537 3.71060257,80.5185541 L14.6765768,83.4524772 C14.5425304,84.2568838 14.6765768,85.1114787 15.1164166,85.8733646 C15.5569546,86.6345535 16.2313756,87.1775628 16.9958591,87.4640542 L14.0573103,98.4127666 C13.5350878,100.359654 14.6926344,102.360911 16.6418927,102.882312 C18.5918492,103.403712 20.596262,102.248685 21.1191827,100.301798 L25.4603317,84.1244425 L31.1168112,80.8635985 L28.6669733,89.9915917 C28.1447508,91.9384787 29.3015993,93.9390392 31.2515557,94.4611368 C33.2015122,94.9825372 35.205925,93.8275097 35.7281475,91.8806228 L40.0699947,75.7032676 L40.8093444,75.2759702 C42.1505067,77.5950869 43.4916691,79.9142036 44.8321332,82.2326233 C45.4164918,83.2433594 46.2312427,83.801704 47.1039407,84.0150042 C47.4369623,84.1042278 47.797212,84.1579014 48.1930678,84.1579014 L56.3454636,84.1579014 L56.3454636,85.0849904 L44.4837522,96.927333 C43.0560182,98.3528195 43.0560182,100.662874 44.4837522,102.088361 C45.910788,103.51315 48.2251831,103.51315 49.6529171,102.088361 L56.3454636,95.4063493 L56.3454636,101.928037 L44.4837522,113.77038 C43.0560182,115.195866 43.0560182,117.505921 44.4837522,118.931408 C45.910788,120.356197 48.2251831,120.356197 49.6529171,118.931408 L57.6803425,110.915922 C58.3114777,111.433837 59.119247,111.746119 60.0003229,111.746119 C60.8813989,111.746119 61.6891681,111.433837 62.3196052,110.915922 L70.3477288,118.931408 C71.7747646,120.356197 74.0898579,120.356197 75.5168937,118.931408 C76.9446277,117.505921 76.9446277,115.195866 75.5168937,113.77038 L63.6551822,101.928037 L63.6551822,95.4063493 L70.3477288,102.088361 C71.7747646,103.51315 74.0898579,103.51315 75.5168937,102.088361 C76.9446277,100.662874 76.9446277,98.3528195 75.5168937,96.927333 L63.6551822,85.0849904 L63.6551822,84.1579014 L68.5869733,84.1579014 C70.1773782,84.1579014 72.3416692,84.4632134 73.7721958,83.6267421 C75.1154526,82.8411561 75.8506134,81.0525016 76.5997374,79.7566682 C77.4640575,78.2635669 78.3276795,76.7697685 79.1906033,75.2759702 L79.9306512,75.7025706 L84.2724984,91.8806228 C84.7947209,93.8275097 86.7991337,94.9825372 88.7490902,94.4611368 C90.6990466,93.9390392 91.8558951,91.9384787 91.3336726,89.9915917 L88.8838347,80.8635985 L94.5403142,84.1244425 L98.8814632,100.301798 C99.4036857,102.248685 101.408797,103.403712 103.358753,102.882312 C105.308011,102.360911 106.465558,100.359654 105.943336,98.4127666 L103.004787,87.4640542 C103.76927,87.1775628 104.443691,86.6345535 104.884229,85.8733646 C105.324069,85.1114787 105.458115,84.2568838 105.324069,83.4524772 L116.290043,80.5185541 C118.24,79.9971537 119.396848,77.9958961 118.874626,76.0497061 C118.352403,74.1028192 116.34799,72.9470946 114.398034,73.4691922 L98.1951735,77.8035077 L92.538694,74.5433607 L101.681078,72.0973792 C103.630337,71.5759788 104.787883,69.5747211 104.264963,67.6278342 C103.74274,65.6809472 101.738327,64.5259197 99.788371,65.0473202 L83.5855105,69.3816357 L82.8461608,68.9557324 L86.9757678,61.8143586 C87.6760207,60.6035663 87.6760207,59.1014033 86.9757678,57.890611 C85.6422852,55.5840414 84.3081045,53.2774718 82.9739237,50.9709021 L83.5855105,50.6181901 L99.788371,54.9532026 C101.738327,55.4746031 103.74274,54.3195756 104.264963,52.3726886 C104.787883,50.4258017 103.630337,48.4252411 101.681078,47.9031436 L92.538694,45.4578591 L98.1951735,42.1970151 L114.398034,46.5313306 Z" id="Fill-13" fill="#70A8E2"></path>
    </g>
</svg>