<?xml version="1.0" encoding="UTF-8"?>
<svg width="120px" height="120px" viewBox="0 0 120 120" version="1.1" xmlns="http://www.w3.org/2000/svg" xmlns:xlink="http://www.w3.org/1999/xlink">
    <!-- Generator: Sketch 51.1 (57501) - http://www.bohemiancoding.com/sketch -->
    <title>Flower66</title>
    <desc>Created with Sketch.</desc>
    <defs>
        <polygon id="path-1" points="0 1.00088475 15.1718018 1.00088475 15.1718018 15.482957 0 15.482957"></polygon>
    </defs>
    <g id="Flower66" stroke="none" stroke-width="1" fill="none" fill-rule="evenodd">
        <g id="Group" transform="translate(28.000000, 0.000000)">
            <path d="M28.1018361,33.7020984 C29.7739672,31.9473443 31.2533115,29.9899672 32.9785574,28.2824262 C35.2133115,26.0712787 37.6211803,24.1158689 40.156918,22.2666885 C40.9260984,21.7060328 40.2021639,20.4135738 39.399541,20.9702951 C35.6559344,23.5670164 31.3811803,26.988 28.5149508,30.9401311 C28.5188852,30.8771803 28.5326557,30.8201311 28.5365902,30.7591475 C28.8277377,26.0024262 28.387082,20.785377 27.0375738,16.2076721 C26.9018361,15.7473443 26.1956066,15.8319344 26.1936393,16.3217705 C26.1798689,21.5034098 27.2775738,26.5788197 26.6834754,31.7781639 C26.2329836,35.7401311 24.2598689,39.4365246 23.6283934,43.335541 C22.5267541,42.3066885 21.2657705,41.3722623 20.1424918,40.4673443 C18.5864262,39.2122623 16.9811803,38.0948852 15.2401967,37.1112787 C14.9077377,36.9243934 14.5752787,37.3591475 14.8349508,37.6365246 C16.3221639,39.2240656 17.8998689,40.6640656 19.5483934,42.080459 C20.827082,43.1761967 22.0585574,44.4450492 23.4375738,45.430623 C23.4356066,45.5742295 23.4277377,45.7158689 23.4297049,45.8594754 C23.5005246,49.7702951 25.0329836,53.4391475 25.7451148,57.2437377 C26.2762623,60.1020984 26.1228197,62.7598033 24.5923279,65.2994754 C23.6087213,66.9263607 22.2887213,68.3525902 21.519541,70.1093115 C21.2579016,70.7093115 21.104459,71.2837377 21.0257705,71.8384918 C20.9942951,71.8109508 20.9765902,71.7775082 20.9372459,71.7539016 C18.2697049,70.0266885 15.7438033,68.1991475 13.2041311,66.283082 C12.7890492,65.9702951 12.3975738,66.6116066 12.6847869,66.9578361 C14.707082,69.4011148 17.3864262,71.5414426 20.1680656,73.0719344 C20.476918,73.243082 20.7660984,73.1840656 20.974623,73.0227541 C21.1103607,75.4109508 22.6152787,77.5099672 23.7779016,79.8902951 C26.1680656,84.7866885 27.4172459,90.1827541 24.0257705,94.9060328 C22.3142951,97.2883279 20.3490492,99.3676721 19.8198689,102.078492 C19.1077377,100.807672 18.0906885,99.6175082 17.1582295,98.5552131 C16.0349508,97.2745574 14.7582295,95.9643934 13.2513443,95.1460328 C12.8913443,94.9512787 12.3365902,95.3820984 12.6336393,95.7657049 C13.6310164,97.0601311 14.8487213,98.1814426 15.907082,99.4286557 C17.0598689,100.788 17.947082,102.338164 19.0860984,103.691607 C19.2729836,103.913902 19.4913443,103.959148 19.6900328,103.908 C19.7038033,104.165705 19.729377,104.429311 19.7706885,104.69882 C20.4985574,109.46341 22.8415082,114.285049 24.3936393,118.831279 C24.7634754,119.909311 26.4828197,119.447016 26.1110164,118.359148 C25.1923279,115.675869 24.2775738,112.99259 23.3608525,110.307344 C22.5090492,107.820787 21.012,104.901443 21.5372459,102.235869 C22.2651148,98.5591475 26.0401967,96.1788197 27.3306885,92.6948852 C27.5254426,92.1735738 27.6690492,91.640459 27.7811803,91.1073443 C29.0382295,90.3401311 30.1988852,89.3466885 31.414623,88.5420984 C32.8349508,87.5998033 34.4224918,86.8247213 35.7011803,85.6975082 C36.1260984,85.3237377 35.6775738,84.6037377 35.1562623,84.7611148 C33.3385574,85.308 31.6959344,86.5493115 30.1811803,87.6666885 C29.4552787,88.1998033 28.7018361,88.7427541 28.0015082,89.3427541 C28.1667541,86.4273443 27.344459,83.4607869 26.2074098,80.785377 C25.2788852,78.5978361 23.5713443,76.4417705 22.9221639,74.1637377 C22.1588852,71.4922623 24.1182295,69.320459 25.5149508,67.2745574 C26.3175738,66.1001311 26.9038033,64.9276721 27.2933115,63.7237377 C28.9201967,62.4666885 30.334623,60.9184918 31.8611803,59.5414426 C32.6736393,58.8116066 33.5057705,58.0994754 34.3556066,57.412918 C34.8965902,56.9742295 36.1949508,55.5578361 36.9936393,55.3552131 C37.3752787,55.5086557 37.8297049,55.3984918 37.9752787,54.8575082 C37.9851148,54.8102951 37.9988852,54.7650492 38.0106885,54.7198033 C38.1287213,54.2752131 37.8631475,53.8561967 37.4401967,53.7145574 C35.8683934,53.1873443 33.3838033,56.0693115 32.3647869,56.960459 C30.8067541,58.3237377 29.1405246,59.7775082 27.796918,61.4220984 C27.934623,60.2083279 27.8972459,58.9414426 27.6926557,57.588 C27.0159344,53.1322623 24.8716721,48.8122623 25.4067541,44.2286557 C25.8316721,40.5952131 27.3326557,37.2647213 28.1018361,33.7020984" id="Fill-1" fill="#2A2120"></path>
            <path d="M34.3109508,58.0137049 C32.9634098,57.0320656 32.568,55.0963279 33.048,53.4989508 C33.5299672,51.903541 34.7220984,50.6130492 36.0401311,49.596 C38.6781639,47.5619016 41.9712787,46.3894426 45.2998033,46.300918 C45.9312787,46.2851803 46.5942295,46.3127213 47.1509508,46.6137049 C47.8257049,46.9776393 48.2486557,47.6878033 48.4807869,48.4176393 C49.1732459,50.593377 48.3981639,53.038623 46.9522623,54.8012459 C45.5043934,56.5678033 43.4742295,57.7500984 41.4027541,58.7100984 C39.3647213,59.6523934 37.1496393,60.4274754 34.9168525,60.1992787 C34.4486557,60.1520656 33.970623,60.0537049 33.5850492,59.7861639 C32.5168525,59.0504262 32.6073443,57.4727213 32.8158689,56.1900984" id="Fill-3" fill="#CC4338"></path>
            <path d="M43.993377,46.9038689 C42.9232131,47.2540328 41.8923934,47.7123934 40.9166557,48.2730492 C39.4491148,49.1150164 37.9756721,50.4782951 38.1074754,52.1641967 C38.260918,54.1530492 40.7632131,55.2881311 42.663541,54.6743607 C44.5619016,54.0625574 45.8445246,52.2841967 46.6864918,50.4763279 C47.1527213,49.4769836 47.5127213,48.253377 46.9343607,47.3130492 C46.4897705,46.5891148 45.5848525,46.2546885 44.7350164,46.2704262 C43.8832131,46.2861639 43.0707541,46.5950164 42.2799344,46.9058361" id="Fill-5" fill="#D77E7B"></path>
            <path d="M19.6318033,1.7002623 C18.2763934,2.96714754 17.9498361,4.97370492 17.857377,6.82681967 C17.7472131,9.036 17.8691803,11.2982951 18.6619672,13.3638689 C19.4527869,15.4274754 20.9891803,17.2825574 23.0586885,18.0596066 C25.1281967,18.838623 27.7229508,18.3330492 29.072459,16.5802623 C30.5655738,14.6405902 30.2213115,11.8825574 29.5662295,9.52386885 C29.1845902,8.1507541 28.7242623,6.80321311 28.1872131,5.48714754 C27.5970492,4.04321311 26.8888525,2.60714754 25.7714754,1.52321311 C24.6521311,0.439278689 23.0429508,-0.245311475 21.5203279,0.0832131148 C19.9977049,0.411737705 18.7268852,1.95403279 19.0219672,3.48452459" id="Fill-7" fill="#CC4338"></path>
            <path d="M20.1485902,3.34465574 C19.7728525,4.92039344 19.3951475,6.56301639 19.7512131,8.14268852 C20.1072787,9.72432787 21.4331803,11.2135082 23.0541639,11.1820328 C24.5099016,11.156459 25.7276066,9.89154098 26.0954754,8.48498361 C26.4672787,7.07645902 26.1485902,5.57744262 25.648918,4.2082623 C25.1630164,2.88039344 24.3761311,1.49940984 23.0344918,1.05088525 C21.6908852,0.600393443 19.888918,1.78662295 20.2921967,3.14203279" id="Fill-9" fill="#D77E7B"></path>
            <path d="M46.5521311,76.1295738 C43.6229508,76.6508852 40.6209836,77.1938361 38.0557377,78.6967869 C35.4845902,80.1958033 33.3954098,82.8810492 33.452459,85.8535082 C33.4622951,86.341377 33.5311475,86.8371148 33.7514754,87.2718689 C34.1488525,88.0528525 34.975082,88.5230164 35.8091803,88.786623 C37.9455738,89.4594098 40.3101639,89.0384262 42.3304918,88.0744918 C44.3527869,87.1125246 46.0839344,85.6449836 47.7462295,84.1459672 C48.7259016,83.2646557 49.7095082,82.3420328 50.3213115,81.1735082 C50.935082,80.008918 51.1160656,78.5354754 50.4668852,77.3885902 C49.7252459,76.0803934 48.0747541,75.5079344 46.5757377,75.6180984 C45.0747541,75.7302295 43.68,76.3951475 42.3265574,77.0502295" id="Fill-11" fill="#CC4338"></path>
            <path d="M45.6664918,76.2525246 L43.240918,77.6118689 C42.2494426,78.1685902 41.228459,78.748918 40.5419016,79.6538361 C39.853377,80.5567869 39.5819016,81.8807213 40.2055082,82.8308852 C40.7700984,83.6925246 41.9228852,84.019082 42.9379672,83.8577705 C43.9569836,83.6984262 44.8619016,83.1377705 45.6979672,82.5338361 C46.7523934,81.7725246 47.7930492,80.8499016 48.1727213,79.6046557 C48.5543607,78.3594098 47.9897705,76.7482623 46.7268197,76.4236721 C45.4304262,76.0912131 44.1792787,77.1810492 42.8396066,77.1987541" id="Fill-13" fill="#D77E7B"></path>
            <path d="M43.7281967,13.9530492 C40.8718033,14.7497705 38.2986885,16.5320656 36.5478689,18.9222295 C35.4659016,20.4015738 34.6770492,22.2999344 35.2239344,24.0487869 C35.8868852,26.1694426 38.3832787,27.3064918 40.5904918,27.0330492 C42.7957377,26.7596066 44.7157377,25.3923934 46.324918,23.8579672 C47.2554098,22.9727213 48.1190164,22.0146885 48.9078689,20.9976393 C50.3557377,19.1248525 51.5557377,16.5025574 50.3222951,14.4822295 C49.3859016,12.9478033 47.3222951,12.4205902 45.5596721,12.7628852 C43.795082,13.1032131 42.2547541,14.1379672 40.7695082,15.1451803" id="Fill-15" fill="#CC4338"></path>
            <path d="M46.9095738,13.1000656 C46.0125246,12.586623 44.9010492,13.1905574 44.0905574,13.8358033 C42.9869508,14.7131803 41.9679344,15.7026885 41.059082,16.7846557 C40.2623607,17.7308852 39.508918,18.9446557 39.8610492,20.128918 C40.228918,21.3800656 41.7476066,21.9977705 43.0282623,21.7735082 C44.3128525,21.5472787 45.3908852,20.6935082 46.3449836,19.8102295 C47.3502295,18.8797377 48.3299016,17.8056393 48.619082,16.4659672 C48.9121967,15.1262951 48.241377,13.4935082 46.9076066,13.1767869 C45.7921967,12.9112131 44.6944918,13.6056393 43.7561311,14.266623" id="Fill-17" fill="#D77E7B"></path>
            <path d="M4.7335082,27.771541 C4.33613115,29.821377 4.2397377,31.9282623 4.44629508,34.0076066 C4.64891803,36.0653115 5.20367213,38.1938361 6.63580328,39.6869508 C7.85547541,40.9597377 9.58662295,41.6305574 11.3197377,41.9610492 C12.8482623,42.2521967 14.5046557,42.291541 15.891541,41.5833443 C18.5118689,40.2476066 19.2338361,36.5767869 18.0712131,33.8738361 C16.9085902,31.1708852 14.368918,29.3138361 11.7544918,27.9662951 C10.4895738,27.3131803 9.09088525,26.7328525 7.68432787,26.9492459 C6.27777049,27.1656393 4.95580328,28.4836721 5.23908197,29.8784262" id="Fill-19" fill="#CC4338"></path>
            <path d="M5.844,28.4036066 C5.80859016,30.0481967 5.78104918,31.7203279 6.22367213,33.3019672 C6.66629508,34.887541 7.6597377,36.3963934 9.16072131,37.0672131 C10.6617049,37.7380328 12.684,37.3288525 13.5121967,35.9085246 C14.2597377,34.6318033 13.8879344,32.977377 13.1797377,31.6790164 C12.1253115,29.737377 10.3567869,28.195082 8.29121311,27.4101639 C7.87416393,27.2527869 7.42367213,27.124918 6.98695082,27.217377 C5.9187541,27.4495082 5.57645902,28.7754098 5.44268852,29.8613115" id="Fill-21" fill="#D77E7B"></path>
            <path d="M4.31095082,59.3738361 C3.84865574,62.1849836 4.7437377,65.1869508 6.66963934,67.2879344 C8.59554098,69.3869508 11.5109508,70.5377705 14.3516066,70.3194098 C15.140459,70.2584262 15.9411148,70.0892459 16.6020984,69.656459 C17.7981639,68.8695738 18.3234098,67.3056393 18.1502951,65.8872787 C17.9771803,64.4649836 17.2099672,63.1803934 16.2775082,62.0925246 C14.0761967,59.5194098 10.848,57.8512131 7.47422951,57.5384262 C6.64406557,57.4617049 5.74701639,57.4794098 5.05259016,57.9436721 C4.35619672,58.4079344 4.00209836,59.456459 4.52340984,60.1076066" id="Fill-23" fill="#CC4338"></path>
            <path d="M6.03993443,59.9136393 C6.11272131,61.9752787 6.71272131,64.1883934 8.36518033,65.4218361 C10.0156721,66.6552787 12.8838689,66.2579016 13.5566557,64.3064262 C14.0720656,62.8152787 13.1238689,61.1628197 11.8491148,60.2264262 C10.8419016,59.4867541 9.53567213,59.0382295 8.33370492,59.3687213 C7.12977049,59.7011803 6.16583607,60.9916721 6.49239344,62.1975738" id="Fill-25" fill="#D77E7B"></path>
            <g id="Group-29" transform="translate(0.000000, 82.067410)">
                <mask id="mask-2" fill="white">
                    <use xlink:href="#path-1"></use>
                </mask>
                <g id="Clip-28"></g>
                <path d="M0.714688525,1.19331148 C0.315344262,2.54085246 0.179606557,3.96118033 0.315344262,5.35986885 C0.600590164,8.30281967 2.1212459,11.0765902 4.33436066,13.0379016 C5.68977049,14.2438033 7.34419672,15.1703607 9.14222951,15.4201967 C10.9402623,15.6700328 12.8858361,15.1762623 14.1704262,13.8975738 C14.6366557,13.4333115 15.0182951,12.856918 15.1323934,12.2097049 C15.2740328,11.416918 15.0123934,10.6123279 14.6897705,9.87659016 C12.6222295,5.10413115 7.87534426,1.60642623 2.7055082,1.04380328 C2.04059016,0.972983607 1.32845902,0.953311475 0.746163934,1.27986885 C0.161901639,1.60839344 -0.209901639,2.39331148 0.128459016,2.97167213" id="Fill-27" fill="#CC4338" mask="url(#mask-2)"></path>
            </g>
            <path d="M0.534098361,84.1579672 C0.164262295,85.7848525 0.429836066,87.5120656 1.05934426,89.0582951 C1.62,90.4353443 2.51704918,91.743541 3.83508197,92.4320656 C5.15508197,93.1205902 6.93934426,93.0379672 7.9642623,91.9599344 C9.0147541,90.8602623 8.98721311,89.0366557 8.23377049,87.7166557 C7.48229508,86.3966557 6.15639344,85.503541 4.79311475,84.8346885 C3.90983607,84.4019016 2.92819672,84.036 1.96032787,84.2091148 C0.990491803,84.3841967 0.0954098361,85.2930492 0.270491803,86.260918" id="Fill-30" fill="#D77E7B"></path>
        </g>
    </g>
</svg>