<?xml version="1.0" encoding="UTF-8"?>
<svg width="120px" height="120px" viewBox="0 0 120 120" version="1.1" xmlns="http://www.w3.org/2000/svg" xmlns:xlink="http://www.w3.org/1999/xlink">
    <!-- Generator: Sketch 51.1 (57501) - http://www.bohemiancoding.com/sketch -->
    <title>wood1</title>
    <desc>Created with Sketch.</desc>
    <defs>
        <polygon id="path-1" points="0.00235384615 0.0973846154 51.198 0.0973846154 51.198 109.384598 0.00235384615 109.384598"></polygon>
        <polygon id="path-3" points="0.128538462 0.337753846 39.6595385 0.337753846 39.6595385 109.384506 0.128538462 109.384506"></polygon>
        <polygon id="path-5" points="0 0.314054769 51.1792008 0.314054769 51.1792008 21.6208809 0 21.6208809"></polygon>
    </defs>
    <g id="wood1" stroke="none" stroke-width="1" fill="none" fill-rule="evenodd">
        <g id="Group" transform="translate(34.000000, 0.000000)">
            <g id="Group-3" transform="translate(0.000000, 10.301538)">
                <mask id="mask-2" fill="white">
                    <use xlink:href="#path-1"></use>
                </mask>
                <g id="Clip-2"></g>
                <path d="M24.9494308,109.381385 C15.8700462,109.279385 10.7105077,101.783077 10.7105077,101.783077 L0.00235384615,0.0973846154 L51.1980462,0.412153846 L46.9472769,102.678 C46.9472769,102.678 40.3343538,109.554462 24.9494308,109.381385" id="Fill-1" fill="#9C622F" mask="url(#mask-2)"></path>
            </g>
            <path d="M12.7349077,39.414 C14.0221385,44.1198462 15.1321385,48.894 16.0049077,53.7226154 C16.8827538,58.584 16.8624462,63.5150769 17.5372154,68.3958462 C17.6129077,68.9427692 18.2969077,68.7544615 18.3329077,68.2730769 C18.7192154,63.1573846 17.8155231,57.8912308 17.2178308,52.8263077 C16.6579846,48.0807692 15.7806,43.4215385 14.7176769,38.7909231 C14.3830615,37.332 12.3407538,37.9716923 12.7349077,39.414" id="Fill-4" fill="#784C25"></path>
            <g id="Group-8" transform="translate(11.538462, 10.301538)">
                <mask id="mask-4" fill="white">
                    <use xlink:href="#path-3"></use>
                </mask>
                <g id="Clip-7"></g>
                <path d="M27.5383846,0.337753846 C29.5673077,32.2909846 33.7386923,65.1488308 23.8682308,93.8749846 C21.3713077,103.480985 9.39576923,105.010062 0.128538462,102.964985 C2.01023077,105.081138 6.61084615,109.305138 13.4111538,109.381292 C28.7960769,109.554369 35.409,102.677908 35.409,102.677908 L39.6597692,0.412523077 L27.5383846,0.337753846 Z" id="Fill-6" fill="#82502D" mask="url(#mask-4)"></path>
            </g>
            <path d="M36.0078923,86.6590154 C36.3245077,89.3027077 35.7646615,92.7684 36.8294308,95.1854769 C37.0403538,95.6636308 37.7603538,95.5630154 37.8545077,95.0327077 C38.1180462,93.5544 37.7968154,91.9740923 37.6754308,90.4819385 C37.5609692,89.0737846 37.4377385,87.6725538 37.2097385,86.2814769 C37.0597385,85.3685538 35.9022,85.7774769 36.0078923,86.6590154" id="Fill-9" fill="#784C25"></path>
            <g id="Group-13" transform="translate(0.000000, 0.147692)">
                <mask id="mask-6" fill="white">
                    <use xlink:href="#path-5"></use>
                </mask>
                <g id="Clip-12"></g>
                <path d="M0.000692307692,10.3351846 C-0.111,16.2087231 11.2548462,21.2524154 25.3871538,21.6018 C39.5194615,21.9507231 51.0666923,17.4724154 51.1783846,11.5993385 C51.2900769,5.72626154 39.9242308,0.682107692 25.7919231,0.333184615 C11.6596154,-0.0162 0.112384615,4.46210769 0.000692307692,10.3351846" id="Fill-11" fill="#CD802E" mask="url(#mask-6)"></path>
            </g>
            <polygon id="Fill-14" fill="#784C25" points="33.7101231 17.2962 32.3338154 15.7915846 34.4707385 21.2848154 36.7567385 33.2668154 36.9921231 20.8842"></polygon>
            <polygon id="Fill-16" fill="#784C25" points="12.2337231 15.2950154 8.52203077 18.6744 7.77110769 28.2402462 6.2268 17.6530154"></polygon>
        </g>
    </g>
</svg>