<?xml version="1.0" encoding="UTF-8"?>
<svg width="120px" height="120px" viewBox="0 0 120 120" version="1.1" xmlns="http://www.w3.org/2000/svg" xmlns:xlink="http://www.w3.org/1999/xlink">
    <!-- Generator: Sketch 51.1 (57501) - http://www.bohemiancoding.com/sketch -->
    <title>Motorcycle18</title>
    <desc>Created with Sketch.</desc>
    <defs></defs>
    <g id="Motorcycle18" stroke="none" stroke-width="1" fill="none" fill-rule="evenodd">
        <g id="Group" transform="translate(60.000000, 60.000000) scale(-1, 1) translate(-60.000000, -60.000000) translate(0.000000, 30.000000)" fill-rule="nonzero">
            <path d="M55.437037,17.9117647 C55.1703704,17.9117647 54.9333333,17.8235294 54.7259259,17.6470588 C54.3111111,17.2647059 54.2814815,16.5882353 54.6666667,16.1764706 L60.9777778,9.32352941 C61.6,8.64705882 62.4592593,8.29411765 63.3481481,8.29411765 L73.0666667,8.29411765 C73.6592593,8.29411765 74.1037037,8.76470588 74.1037037,9.32352941 C74.1037037,9.88235294 73.6296296,10.3529412 73.0666667,10.3529412 L63.3481481,10.3529412 C63.0222222,10.3529412 62.7259259,10.4705882 62.5185185,10.7058824 L56.2074074,17.5588235 C56,17.7941176 55.7333333,17.9117647 55.437037,17.9117647 Z" id="Shape" fill="#1E1E1E"></path>
            <path d="M36.1481481,54.7058824 C35.437037,54.7058824 34.8444444,54.1176471 34.8444444,53.4117647 L34.8444444,47.4705882 C34.8444444,46.7647059 35.437037,46.1764706 36.1481481,46.1764706 C36.8592593,46.1764706 37.4518519,46.7647059 37.4518519,47.4705882 L37.4518519,53.4117647 C37.4814815,54.1176471 36.8888889,54.7058824 36.1481481,54.7058824 Z" id="Shape" fill="#1E1E1E"></path>
            <g transform="translate(102.814815, 43.823529)" id="Oval">
                <ellipse fill="#122233" cx="4.94814815" cy="5.02941176" rx="4.88888889" ry="4.85294118"></ellipse>
                <ellipse fill="#FFFFFF" cx="4.94814815" cy="5.02941176" rx="1.92592593" ry="1.91176471"></ellipse>
            </g>
            <g transform="translate(88.592593, 43.823529)" id="Oval">
                <ellipse fill="#122233" cx="5.15555556" cy="5.02941176" rx="4.88888889" ry="4.85294118"></ellipse>
                <ellipse fill="#FFFFFF" cx="5.15555556" cy="5.02941176" rx="1.92592593" ry="1.91176471"></ellipse>
            </g>
            <g transform="translate(74.666667, 43.823529)" id="Oval">
                <ellipse fill="#122233" cx="5.06666667" cy="5.02941176" rx="4.88888889" ry="4.85294118"></ellipse>
                <ellipse fill="#FFFFFF" cx="5.06666667" cy="5.02941176" rx="1.92592593" ry="1.91176471"></ellipse>
            </g>
            <g transform="translate(60.740741, 43.823529)" id="Oval">
                <ellipse fill="#122233" cx="4.94814815" cy="5.02941176" rx="4.88888889" ry="4.85294118"></ellipse>
                <ellipse fill="#FFFFFF" cx="4.94814815" cy="5.02941176" rx="1.92592593" ry="1.91176471"></ellipse>
            </g>
            <path d="M105.807407,59.3529412 L64.6222222,59.3529412 C58.2518519,59.3529412 53.0666667,54.2058824 53.0666667,47.8823529 C53.0666667,47.2941176 53.5407407,46.8529412 54.1037037,46.8529412 C54.6962963,46.8529412 55.1407407,47.3235294 55.1407407,47.8823529 C55.1407407,53.0588235 59.3777778,57.2647059 64.5925926,57.2647059 L105.777778,57.2647059 C110.992593,57.2647059 115.22963,53.0588235 115.22963,47.8823529 C115.22963,47.2941176 115.703704,46.8529412 116.266667,46.8529412 C116.82963,46.8529412 117.303704,47.3235294 117.303704,47.8823529 C117.362963,54.2352941 112.177778,59.3529412 105.807407,59.3529412 Z" id="Shape" fill="#1E1E1E"></path>
            <path d="M49.1259259,58.0588235 C48.7407407,58.0588235 48.4444444,57.7647059 48.4444444,57.3823529 C48.4444444,55.6176471 43.2,53.6470588 36.1481481,53.6470588 C29.1259259,53.6470588 23.8518519,55.6176471 23.8518519,57.3823529 C23.8518519,57.7647059 23.5555556,58.0588235 23.1703704,58.0588235 C22.7851852,58.0588235 22.4888889,57.7647059 22.4888889,57.3823529 C22.4888889,54.0588235 29.5407407,52.2647059 36.1777778,52.2647059 C42.8148148,52.2647059 49.8666667,54.0588235 49.8666667,57.3823529 C49.837037,57.7352941 49.5111111,58.0588235 49.1259259,58.0588235 Z" id="Shape" fill="#1E1E1E"></path>
            <path d="M49.1259259,59.7352941 L7.58518519,59.7352941 C3.52592593,59.7352941 0.237037037,56.4705882 0.237037037,52.4411765 C0.237037037,49.1764706 2.9037037,46.5294118 6.19259259,46.5294118 C9.48148148,46.5294118 12.1481481,49.1764706 12.1481481,52.4411765 L12.1481481,56.9411765 L49.0962963,56.9411765 C49.8666667,56.9411765 50.5185185,57.5588235 50.5185185,58.3529412 C50.5481481,59.0882353 49.9259259,59.7352941 49.1259259,59.7352941 Z M6.22222222,49.3235294 C4.5037037,49.3235294 3.08148148,50.7352941 3.08148148,52.4411765 C3.08148148,54.9117647 5.12592593,56.9411765 7.61481481,56.9411765 L9.36296296,56.9411765 L9.36296296,52.4411765 C9.36296296,50.7058824 7.94074074,49.3235294 6.22222222,49.3235294 Z" id="Shape" fill="#FF993E"></path>
            <path d="M63.3185185,36.1764706 L58.0740741,19.7941176 L40.7703704,19.7941176 L27.0814815,21.2352941 C20.6814815,21.9117647 15.8222222,27.2647059 15.8222222,33.6470588 C15.8222222,38.2647059 18.4,42.5294118 22.5185185,44.6764706 C26.5481481,46.7941176 31.0518519,47.9117647 35.6444444,47.9117647 L116.622222,47.9117647 C118.340741,47.9117647 119.733333,46.5294118 119.733333,44.8235294 L119.733333,36.1764706 L63.3185185,36.1764706 Z" id="Shape" fill="#FF993E"></path>
            <path d="M105.392593,28.9117647 L60.9777778,28.9117647 L63.3185185,36.2058824 L108.444444,36.2058824 L108.444444,31.6176471 C108.444444,30.1176471 107.081481,28.9117647 105.392593,28.9117647 Z" id="Shape" fill="#122233"></path>
            <path d="M58.0740741,0.117647059 C48.5037037,0.117647059 40.7703704,7.82352941 40.7703704,17.2941176 L58.0740741,17.2941176 L58.0740741,0.117647059 Z" id="Shape" fill="#A2DCFF" opacity="0.6"></path>
            <path d="M65.6,55.6470588 C65.1851852,55.6470588 64.8592593,55.9117647 64.7703704,56.3235294 L64.3259259,58.3235294 L66.8740741,58.3235294 L66.4296296,56.3235294 C66.3407407,55.9411765 65.9851852,55.6470588 65.6,55.6470588 Z" id="Shape" fill="#1E1E1E"></path>
            <path d="M69.3333333,55.6470588 C68.9185185,55.6470588 68.5925926,55.9117647 68.5037037,56.3235294 L68.0592593,58.3235294 L70.6074074,58.3235294 L70.162963,56.3235294 C70.0740741,55.9411765 69.7481481,55.6470588 69.3333333,55.6470588 Z" id="Shape" fill="#1E1E1E"></path>
            <path d="M73.0666667,55.6470588 C72.6518519,55.6470588 72.3259259,55.9117647 72.237037,56.3235294 L71.7925926,58.3235294 L74.3407407,58.3235294 L73.8962963,56.3235294 C73.837037,55.9411765 73.4814815,55.6470588 73.0666667,55.6470588 Z" id="Shape" fill="#1E1E1E"></path>
            <path d="M76.8,55.6470588 C76.3851852,55.6470588 76.0592593,55.9117647 75.9703704,56.3235294 L75.5259259,58.3235294 L78.0740741,58.3235294 L77.6296296,56.3235294 C77.5703704,55.9411765 77.2148148,55.6470588 76.8,55.6470588 Z" id="Shape" fill="#1E1E1E"></path>
            <path d="M80.562963,55.6470588 C80.1481481,55.6470588 79.8222222,55.9117647 79.7333333,56.3235294 L79.2888889,58.3235294 L81.837037,58.3235294 L81.3925926,56.3235294 C81.3037037,55.9411765 80.9481481,55.6470588 80.562963,55.6470588 Z" id="Shape" fill="#1E1E1E"></path>
            <path d="M84.2962963,55.6470588 C83.8814815,55.6470588 83.5555556,55.9117647 83.4666667,56.3235294 L83.0222222,58.3235294 L85.5703704,58.3235294 L85.1259259,56.3235294 C85.037037,55.9411765 84.6814815,55.6470588 84.2962963,55.6470588 Z" id="Shape" fill="#1E1E1E"></path>
            <path d="M88.0296296,55.6470588 C87.6148148,55.6470588 87.2888889,55.9117647 87.2,56.3235294 L86.7555556,58.3235294 L89.3037037,58.3235294 L88.8592593,56.3235294 C88.7703704,55.9411765 88.4444444,55.6470588 88.0296296,55.6470588 Z" id="Shape" fill="#1E1E1E"></path>
            <path d="M91.762963,55.6470588 C91.3481481,55.6470588 91.0222222,55.9117647 90.9333333,56.3235294 L90.4888889,58.3235294 L93.037037,58.3235294 L92.5925926,56.3235294 C92.5037037,55.9411765 92.1777778,55.6470588 91.762963,55.6470588 Z" id="Shape" fill="#1E1E1E"></path>
            <path d="M95.4962963,55.6470588 C95.0814815,55.6470588 94.7555556,55.9117647 94.6666667,56.3235294 L94.2222222,58.3235294 L96.7703704,58.3235294 L96.3259259,56.3235294 C96.2666667,55.9411765 95.9111111,55.6470588 95.4962963,55.6470588 Z" id="Shape" fill="#1E1E1E"></path>
            <path d="M99.2296296,55.6470588 C98.8148148,55.6470588 98.4888889,55.9117647 98.4,56.3235294 L97.9555556,58.3235294 L100.503704,58.3235294 L100.059259,56.3235294 C100,55.9411765 99.6444444,55.6470588 99.2296296,55.6470588 Z" id="Shape" fill="#1E1E1E"></path>
            <path d="M102.992593,55.6470588 C102.577778,55.6470588 102.251852,55.9117647 102.162963,56.3235294 L101.718519,58.3235294 L104.266667,58.3235294 L103.822222,56.3235294 C103.733333,55.9411765 103.377778,55.6470588 102.992593,55.6470588 Z" id="Shape" fill="#1E1E1E"></path>
            <path d="M106.725926,55.6470588 C106.311111,55.6470588 105.985185,55.9117647 105.896296,56.3235294 L105.451852,58.3235294 L108,58.3235294 L107.555556,56.3235294 C107.466667,55.9411765 107.111111,55.6470588 106.725926,55.6470588 Z" id="Shape" fill="#1E1E1E"></path>
            <path d="M37.8074074,50.1764706 L34.2518519,49.3235294 C33.9259259,49.2352941 33.7481481,48.9411765 33.8074074,48.6176471 C33.8962963,48.2941176 34.1925926,48.1176471 34.5185185,48.1764706 L38.0740741,49.0294118 C38.4,49.1176471 38.5777778,49.4117647 38.5185185,49.7352941 C38.4592593,50.0588235 38.1333333,50.2647059 37.8074074,50.1764706 Z" id="Shape" fill="#1E1E1E"></path>
            <path d="M37.8074074,51.7647059 L34.2518519,50.9117647 C33.9259259,50.8235294 33.7481481,50.5294118 33.8074074,50.2058824 C33.8962963,49.8823529 34.1925926,49.7058824 34.5185185,49.7647059 L38.0740741,50.6176471 C38.4,50.7058824 38.5777778,51 38.5185185,51.3235294 C38.4592593,51.6470588 38.1333333,51.8529412 37.8074074,51.7647059 Z" id="Shape" fill="#1E1E1E"></path>
            <path d="M65.037037,11.9411765 C64.4444444,11.9411765 64,11.4705882 64,10.9117647 L64,7.73529412 C64,7.14705882 64.4740741,6.70588235 65.037037,6.70588235 C65.6296296,6.70588235 66.0740741,7.17647059 66.0740741,7.73529412 L66.0740741,10.9117647 C66.0740741,11.4705882 65.6,11.9411765 65.037037,11.9411765 Z" id="Shape" fill="#1E1E1E"></path>
            <path d="M112.266667,19.7941176 C110.162963,19.7941176 108.444444,21.5 108.444444,23.5882353 L108.444444,36.1764706 L114.281481,36.1764706 L114.281481,21.7647059 C114.281481,20.6764706 113.362963,19.7941176 112.266667,19.7941176 Z" id="Shape" fill="#122233"></path>
            <path d="M119.703704,36.1764706 L114.251852,36.1764706 L114.251852,26.9705882 C117.244444,26.9705882 119.703704,29.3823529 119.703704,32.3823529 L119.703704,36.1764706 Z" id="Shape" fill="#FF993E"></path>
            <path d="M60.8,49.5 L35.6148148,49.5 C30.8148148,49.5 26.0148148,48.3235294 21.7481481,46.0882353 C17.0962963,43.6470588 14.2222222,38.8823529 14.2222222,33.6470588 C14.2222222,32.7647059 14.9333333,32.0588235 15.8222222,32.0588235 C16.7111111,32.0588235 17.4222222,32.7647059 17.4222222,33.6470588 C17.4222222,37.7058824 19.6740741,41.3823529 23.2592593,43.2941176 C27.0518519,45.2941176 31.3481481,46.3529412 35.6444444,46.3529412 L60.8296296,46.3529412 C61.7185185,46.3529412 62.4296296,47.0588235 62.4296296,47.9411765 C62.4296296,48.8235294 61.6888889,49.5 60.8,49.5 Z" id="Shape" fill="#D1D3D4"></path>
            <path d="M58.0740741,12.3823529 L50.5777778,12.3823529 C47.8222222,12.3823529 45.6,14.5882353 45.6,17.3235294 L58.0444444,17.3235294 L58.0444444,12.3823529 L58.0740741,12.3823529 Z" id="Shape" fill="#1E1E1E"></path>
            <path d="M33.8074074,33.6470588 L28.9185185,33.6470588 C28.4444444,33.6470588 28.0592593,33.2647059 28.0592593,32.7941176 L28.0592593,26.0882353 C28.0592593,25.6176471 28.4444444,25.2352941 28.9185185,25.2352941 L33.8074074,25.2352941 L33.8074074,33.6470588 Z" id="Shape" fill="#B26B30"></path>
            <path d="M30.1037037,29.4411765 C30.1037037,31.4705882 31.762963,33.1176471 33.8074074,33.1176471 L33.8074074,25.7647059 C31.762963,25.7647059 30.1037037,27.4117647 30.1037037,29.4411765 Z" id="Shape" fill="#FFFFFF"></path>
            <rect id="Rectangle-path" fill="#FF993E" x="40.7407407" y="17.3235294" width="17.3037037" height="2.47058824"></rect>
        </g>
    </g>
</svg>