<?xml version="1.0" encoding="UTF-8"?>
<svg width="480px" height="360px" viewBox="0 0 480 360" version="1.1" xmlns="http://www.w3.org/2000/svg" xmlns:xlink="http://www.w3.org/1999/xlink" style="background: #FFFFFF;">
    <!-- Generator: Sketch 48.2 (47327) - http://www.bohemiancoding.com/sketch -->
    <title>Outskirts5</title>
    <desc>Created with Sketch.</desc>
    <defs>
        <polygon id="path-1" points="0.382894737 0 484.039404 0 484.039404 359.9996 0.382894737 359.9996"></polygon>
        <polygon id="path-3" points="0.382894737 0 484.039404 0 484.039404 359.9996 0.382894737 359.9996"></polygon>
        <polygon id="path-5" points="0.382894737 0 71.0838033 0 71.0838033 359.9995 0.382894737 359.9995"></polygon>
        <polygon id="path-7" points="0.840521314 0.9372 353.720845 0.9372 353.720845 107.9992 0.840521314 107.9992"></polygon>
        <polygon id="path-9" points="0.382894737 0.9376 86.2693087 0.9376 86.2693087 107.9996 0.382894737 107.9996"></polygon>
        <polygon id="path-11" points="0.382894737 0.279221033 484.039404 0.279221033 484.039404 55.9996 0.382894737 55.9996"></polygon>
        <polygon id="path-13" points="0.382894737 0.371914999 312.43297 0.371914999 312.43297 96.9116 0.382894737 96.9116"></polygon>
        <polygon id="path-15" points="0.382894737 0.804287579 484.039404 0.804287579 484.039404 143.9371 0.382894737 143.9371"></polygon>
    </defs>
    <g id="备份" stroke="none" stroke-width="1" fill="none" fill-rule="evenodd">
        <g id="Outskirts5">
            <g transform="translate(-3.000000, 0.000000)">
                <polygon id="Fill-1" fill="#BED9A1" points="0 360 484 360 484 0 0 0"></polygon>
                <g id="Group-11">
                    <g id="Group-4">
                        <mask id="mask-2" fill="white">
                            <use xlink:href="#path-1"></use>
                        </mask>
                        <g id="Clip-3"></g>
                        <path d="M432.189546,287.7086 C406.688756,306.6896 371.684116,317.4876 335.59931,317.4876 C299.515848,317.4876 264.511208,306.6896 239.009075,287.7086 C213.508285,268.7276 199.001277,242.6716 199.001277,215.8136 C199.001277,188.9556 213.508285,162.9006 239.009075,143.9186 C264.511208,124.9376 299.515848,114.1396 335.59931,114.1396 C371.684116,114.1396 406.688756,124.9376 432.189546,143.9186 C457.691679,162.9006 472.198687,188.9556 472.198687,215.8136 C472.198687,242.6716 457.691679,268.7276 432.189546,287.7086 Z M-135.691715,359.9996 L589.79305,359.9996 L589.79305,-0.0004 L-135.691715,-0.0004 L-135.691715,359.9996 Z" id="Fill-2" fill="#BED9A1" mask="url(#mask-2)"></path>
                    </g>
                    <g id="Group-7">
                        <mask id="mask-4" fill="white">
                            <use xlink:href="#path-3"></use>
                        </mask>
                        <g id="Clip-6"></g>
                        <path d="M-135.692252,-0.0004 L-135.692252,359.9996 L190.611986,359.9996 C181.410421,354.8866 172.669673,349.2716 164.48513,343.1796 C119.307582,309.5526 93.6066122,263.3956 93.6066122,215.8136 C93.6066122,168.2326 119.307582,122.0746 164.48513,88.4476 C209.662679,54.8206 271.675504,35.6906 335.600116,35.6906 C399.524729,35.6906 461.537554,54.8206 506.715102,88.4476 C551.892651,122.0746 577.592277,168.2326 577.592277,215.8136 C577.592277,263.3956 551.892651,309.5526 506.715102,343.1796 C498.529216,349.2716 489.788468,354.8866 480.586903,359.9996 L589.792512,359.9996 L589.792512,-0.0004 L-135.692252,-0.0004 Z" id="Fill-5" fill="#BED9A1" mask="url(#mask-4)"></path>
                    </g>
                    <g id="Group-10">
                        <mask id="mask-6" fill="white">
                            <use xlink:href="#path-5"></use>
                        </mask>
                        <g id="Clip-9"></g>
                        <path d="M-55.255338,214.4635 C-55.255338,137.4355 -13.6487867,62.7105 59.489482,8.2715 C63.2808116,5.4495 67.1487202,2.6945 71.0838033,-0.0005 L-135.692789,-0.0005 L-135.692789,359.9995 L-2.85115512,359.9995 C-36.7904072,316.0515 -55.255338,265.7705 -55.255338,214.4635" id="Fill-8" fill="#BED9A1" mask="url(#mask-6)"></path>
                    </g>
                </g>
                <polygon id="Fill-12" fill="#348B6C" points="0 360 484 360 484 250 0 250"></polygon>
                <g id="Group-48" transform="translate(0.000000, 109.000000)">
                    <g id="Group-15" transform="translate(130.318560, 143.000000)">
                        <mask id="mask-8" fill="white">
                            <use xlink:href="#path-7"></use>
                        </mask>
                        <g id="Clip-14"></g>
                        <path d="M15.1211177,103.6862 C14.4748989,104.3152 13.1005083,104.3152 12.447572,104.9442 C11.7932922,105.5732 15.7431537,105.5722 15.1063393,106.2012 C14.4722119,106.8302 4.61368006,106.8302 3.93656094,107.4582 C3.65980194,107.7152 12.3736801,107.8672 22.7709515,107.9992 L387.904747,107.9992 C389.745328,107.8582 391.372295,107.7032 391.102253,107.4222 C390.485591,106.7922 375.133528,106.7922 374.585384,106.1632 C374.047988,105.5342 413.154303,105.5342 412.44494,104.9042 C411.751699,104.2742 402.622683,104.2742 401.969747,103.6452 C401.318154,103.0152 410.913361,103.0152 410.218777,102.3862 C409.494636,101.7562 347.069359,101.7562 346.624663,101.1262 C346.181312,100.4982 410.208029,100.4982 409.47717,99.8682 C408.759747,99.2392 369.034082,99.2392 368.496686,98.6092 C367.928389,97.9802 352.417794,97.9802 351.919359,97.3502 C351.441076,96.7212 401.825993,96.7212 401.11663,96.0922 C400.419359,95.4622 374.451035,95.4622 373.874677,94.8322 C373.276824,94.2042 360.101215,94.2042 359.565162,93.5752 C359.034483,92.9452 382.545564,92.9452 381.904719,92.3162 C381.282683,91.6872 391.984927,91.6872 391.313181,91.0582 C390.644123,90.4282 387.832198,90.4282 387.177918,89.7982 C386.522295,89.1692 388.091492,89.1692 387.429151,88.5402 C386.753375,87.9122 360.775647,87.9122 360.224816,87.2832 C359.653832,86.6542 351.876367,86.6542 351.344345,86.0252 C350.817697,85.3962 368.930633,85.3962 368.315314,84.7662 C367.713431,84.1372 372.473417,84.1372 371.84735,83.5072 C371.213223,82.8792 351.932794,82.8782 351.394054,82.2492 C350.833819,81.6222 332.410536,81.6222 331.943001,80.9932 C331.471436,80.3642 342.303999,80.3642 341.776007,79.7352 C341.278916,79.1062 379.076672,79.1062 378.386118,78.4772 C377.722434,77.8482 385.204331,77.8482 384.503029,77.2192 C383.770827,76.5892 328.949705,76.5902 328.502323,75.9602 C328.021353,75.3322 328.044193,75.3322 327.564566,74.7042 C327.101062,74.0752 353.13253,74.0752 352.53199,73.4462 C351.936824,72.8182 336.197835,72.8182 335.685965,72.1902 C335.170065,71.5602 342.62778,71.5602 342.071575,70.9312 C341.539553,70.3022 372.946325,70.3022 372.245024,69.6732 C371.561187,69.0432 366.807918,69.0432 366.149608,68.4152 C365.489954,67.7852 366.39681,67.7862 365.730439,67.1562 C365.05735,66.5272 351.085051,66.5272 350.487198,65.8982 C349.866506,65.2692 328.127489,65.2682 327.627711,64.6392 C327.115841,64.0102 328.686381,64.0102 328.163763,63.3812 C327.668015,62.7512 365.081533,62.7512 364.374857,62.1232 C363.695051,61.4942 367.873306,61.4942 367.170661,60.8642 C366.442489,60.2352 328.73609,60.2352 328.226907,59.6062 C327.701602,58.9772 339.834663,58.9772 339.238154,58.3482 C338.653735,57.7182 345.290578,57.7192 344.668542,57.0892 C344.042475,56.4602 334.290079,56.4602 333.723126,55.8322 C333.15483,55.2022 341.790785,55.2022 341.171436,54.5732 C340.538652,53.9442 314.624068,53.9442 314.148472,53.3152 C313.680938,52.6852 351.271796,52.6862 350.575868,52.0572 C349.894719,51.4272 331.990024,51.4272 331.41904,50.7982 C330.829248,50.1692 324.326755,50.1692 323.777267,49.5402 C323.222406,48.9122 322.213445,48.9122 321.663957,48.2832 C321.119843,47.6532 328.365287,47.6532 327.775494,47.0242 C327.200481,46.3952 339.017821,46.3952 338.367572,45.7662 C337.732101,45.1362 346.642129,45.1362 345.950231,44.5072 C345.254303,43.8782 331.807309,43.8782 331.200051,43.2492 C330.576672,42.6212 325.143597,42.6212 324.556492,41.9922 C323.972073,41.3632 332.988237,41.3632 332.343361,40.7342 C331.687738,40.1052 308.472226,40.1052 307.972447,39.4762 C307.474012,38.8462 332.997641,38.8462 332.325896,38.2172 C331.666242,37.5882 318.806353,37.5882 318.23537,36.9592 C317.657669,36.3312 324.020439,36.3312 323.398403,35.7022 C322.793832,35.0732 337.206796,35.0732 336.501464,34.4442 C335.80688,33.8152 334.659539,33.8152 333.974359,33.1862 C333.259622,32.5572 302.14976,32.5572 301.659386,31.9282 C301.166325,31.2992 330.299913,31.2992 329.595924,30.6702 C328.920148,30.0412 332.90091,30.0412 332.196921,29.4132 C331.487558,28.7842 323.046409,28.7842 322.401533,28.1542 C321.747253,27.5252 321.540356,27.5252 320.88742,26.8962 C320.207614,26.2672 290.023417,26.2672 289.572004,25.6382 C289.119248,25.0092 315.669303,25.0092 315.012337,24.3802 C314.366118,23.7512 298.535771,23.7512 298.010467,23.1232 C297.477101,22.4952 302.605204,22.4952 302.03019,21.8662 C301.476672,21.2372 318.193722,21.2372 317.507198,20.6082 C316.828735,19.9792 309.802281,19.9802 309.181589,19.3502 C308.546118,18.7212 301.911963,18.7222 301.331575,18.0932 C300.737752,17.4632 294.366921,17.4632 293.826838,16.8342 C293.280037,16.2062 294.75519,16.2062 294.197641,15.5772 C293.656215,14.9472 307.972447,14.9482 307.308763,14.3182 C306.666575,13.6892 312.486575,13.6892 311.794677,13.0602 C311.110841,12.4322 313.260425,12.4312 312.556436,11.8032 C311.834982,11.1742 291.400494,11.1742 290.857724,10.5452 C290.293458,9.9172 289.885037,9.9172 289.324802,9.2892 C288.784719,8.6602 307.51163,8.6602 306.802267,8.0322 C306.08753,7.4032 283.125938,7.4032 282.622129,6.7742 C282.100855,6.1462 288.880107,6.1452 288.295688,5.5172 C287.722018,4.8882 291.045813,4.8882 290.441242,4.2592 C289.844733,3.6302 294.002835,3.6302 293.366021,3.0012 C292.731893,2.3732 290.576935,2.3732 289.964303,1.7442 C289.546478,1.3162 290.619927,1.1782 291.147918,0.9372 L271.207835,0.9372 C271.316658,1.1152 271.362337,1.2132 271.33278,1.2132 C271.283071,1.2132 271.1635,1.1152 270.987503,0.9372 L137.13422,0.9372 C128.554691,1.2022 113.811229,1.3312 113.300702,1.7792 C112.584622,2.4092 126.77591,2.4092 126.198209,3.0392 C125.596325,3.6672 132.526048,3.6672 131.991339,4.2972 C131.463348,4.9272 116.941561,4.9272 116.276533,5.5562 C115.61688,6.1862 126.798749,6.1862 126.241201,6.8162 C125.65947,7.4452 136.865522,7.4452 136.38724,8.0752 C135.926422,8.7052 108.887337,8.7042 108.182004,9.3332 C107.502198,9.9622 111.093348,9.9632 110.444442,10.5922 C109.780758,11.2212 120.102794,11.2222 119.529123,11.8512 C118.959483,12.4812 106.782087,12.4812 106.106312,13.1102 C105.443971,13.7392 105.15512,13.7392 104.488749,14.3692 C103.800882,14.9982 125.870398,14.9982 125.370619,15.6272 C124.854719,16.2562 116.905287,16.2562 116.323555,16.8862 C115.741824,17.5152 124.767392,17.5152 124.259553,18.1442 C123.770522,18.7732 94.8505499,18.7732 94.1264086,19.4022 C93.4210762,20.0322 101.832669,20.0322 101.195855,20.6622 C100.556353,21.2902 95.7721842,21.2902 95.0937216,21.9192 C94.3991371,22.5482 116.660771,22.5482 116.140841,23.1772 C115.606132,23.8062 110.092447,23.8062 109.514747,24.4352 C108.939733,25.0652 111.958555,25.0652 111.405037,25.6942 C110.862267,26.3242 97.5012562,26.3232 96.8563809,26.9532 C96.2276274,27.5822 91.4783892,27.5822 90.814705,28.2102 C90.1550512,28.8392 91.1223643,28.8392 90.469428,29.4672 C89.8030568,30.0962 105.038237,30.0962 104.482032,30.7252 C103.924483,31.3542 91.2674612,31.3542 90.6172119,31.9832 C89.9535277,32.6122 118.58465,32.6122 118.126519,33.2422 C117.644206,33.8712 117.031575,33.8712 116.545231,34.4992 C116.084414,35.1282 85.9956053,35.1282 85.3238601,35.7572 C84.6736108,36.3852 88.5737632,36.3852 87.9503837,37.0142 C87.3243172,37.6422 88.9109792,37.6422 88.2943172,38.2712 C87.6736247,38.9002 90.7045388,38.9002 90.1039986,39.5292 C89.5128629,40.1582 76.196187,40.1592 75.5150374,40.7882 C74.8244834,41.4162 100.117032,41.4162 99.5944141,42.0452 C99.0610485,42.6752 87.6373504,42.6752 87.0274058,43.3042 C86.4376136,43.9332 75.1254252,43.9342 74.4603975,44.5632 C73.7859654,45.1922 98.9952175,45.1922 98.4820042,45.8212 C97.9728213,46.4502 69.4558961,46.4502 68.7639986,47.0802 C68.0761316,47.7082 89.9750235,47.7082 89.4268795,48.3372 C88.8558961,48.9672 96.7381537,48.9672 96.215536,49.5962 C95.7103837,50.2252 65.4872258,50.2252 64.7939848,50.8542 C64.0967133,51.4832 100.417974,51.4842 99.9450651,52.1132 C99.4560346,52.7422 82.1209792,52.7422 81.5271565,53.3712 C80.9521427,53.9992 71.9144834,53.9992 71.2857299,54.6292 C70.650259,55.2582 89.0869765,55.2582 88.5630152,55.8872 C88.036367,56.5162 70.9458269,56.5162 70.3184169,57.1462 C69.6910069,57.7752 86.5544972,57.7752 86.0265055,58.4042 C85.4810485,59.0332 94.2580706,59.0332 93.7636662,59.6622 C93.2679183,60.2902 83.5531399,60.2902 83.0023089,60.9192 C82.4501343,61.5482 95.0520734,61.5482 94.5724474,62.1782 C94.1049127,62.8072 62.5302036,62.8072 61.8826413,63.4362 C61.2364224,64.0662 92.5424335,64.0662 92.0722119,64.6952 C91.5831814,65.3242 88.798126,65.3242 88.2943172,65.9532 C87.8106607,66.5822 59.0586247,66.5822 58.4150928,67.2102 C57.7823089,67.8392 70.6099543,67.8392 70.0483753,68.4682 C69.4679875,69.0972 85.0887493,69.0972 84.5930014,69.7262 C84.1053144,70.3552 56.6497465,70.3552 56.0129321,70.9852 C55.3814917,71.6142 77.4066717,71.6142 76.892115,72.2432 C76.3627798,72.8722 77.0842341,72.8722 76.5589294,73.5002 C76.0255637,74.1292 87.0623366,74.1302 86.5880845,74.7582 C86.1245803,75.3872 58.7630568,75.3872 58.1557992,76.0162 C57.549885,76.6452 81.3484723,76.6452 80.8661593,77.2742 C80.3851898,77.9032 55.9363532,77.9032 55.3290956,78.5322 C54.7460208,79.1612 41.5596634,79.1612 40.9080706,79.7902 C40.2470734,80.4182 67.8450512,80.4182 67.323777,81.0472 C66.7890679,81.6772 63.5633476,81.6772 63.0111731,82.3062 C62.479151,82.9352 34.5681399,82.9352 33.8963947,83.5642 C33.2353975,84.1942 41.9264363,84.1932 41.3097742,84.8222 C40.6675859,85.4512 72.9315055,85.4512 72.4491925,86.0802 C71.9547881,86.7082 61.0254945,86.7082 60.4773504,87.3372 C59.9493587,87.9652 36.0513532,87.9662 35.4078213,88.5942 C34.765633,89.2232 56.0881676,89.2232 55.5480845,89.8522 C55.0012839,90.4812 45.8091233,90.4812 45.2179875,91.1102 C44.6402867,91.7392 31.718597,91.7392 31.0790956,92.3682 C30.4489986,92.9972 27.833223,92.9972 27.1896911,93.6252 C26.5407853,94.2542 39.9232922,94.2542 39.336187,94.8842 C38.7410208,95.5132 41.0101759,95.5132 40.4244141,96.1422 C39.8252175,96.7712 66.1038878,96.7712 65.6242618,97.4002 C65.1379183,98.0292 51.0044003,98.0282 50.4535693,98.6582 C49.9202036,99.2862 30.5511039,99.2862 29.9304114,99.9152 C29.3016579,100.5432 66.9744695,100.5432 66.5136524,101.1712 C66.0676136,101.8002 1.59888781,101.8002 0.863998615,102.4292 C0.154635734,103.0572 15.7606191,103.0572 15.1211177,103.6862" id="Fill-13" fill="#BED9A1" mask="url(#mask-8)"></path>
                    </g>
                    <g id="Group-18" transform="translate(0.000000, 143.000000)">
                        <mask id="mask-10" fill="white">
                            <use xlink:href="#path-9"></use>
                        </mask>
                        <g id="Clip-17"></g>
                        <path d="M66.8723643,5.2506 C67.7510069,4.6216 69.617115,4.6216 70.505162,3.9926 C71.3932091,3.3636 66.0286524,3.3636 66.8938601,2.7356 C67.7550374,2.1066 81.1442618,2.1066 82.0632091,1.4786 C82.4393864,1.2216 70.6045803,1.0696 56.4818102,0.9376 L-135.692386,0.9376 L-135.692386,107.9996 L-98.8511953,107.9996 C-87.1964169,107.7346 -67.1716939,107.6056 -66.4771094,107.1576 C-65.5057659,106.5276 -84.7794778,106.5276 -83.9948795,105.8976 C-83.1780374,105.2696 -92.5905305,105.2696 -91.8637022,104.6396 C-91.1476219,104.0096 -71.4224972,104.0096 -70.5196717,103.3806 C-69.6235637,102.7506 -84.8103781,102.7506 -84.0539931,102.1206 C-83.2653643,101.4916 -98.4857659,101.4916 -97.8355166,100.8616 C-97.2081066,100.2316 -60.4837992,100.2326 -59.5258906,99.6036 C-58.6015693,98.9746 -63.4784391,98.9736 -62.5984529,98.3446 C-61.6969709,97.7156 -75.7162922,97.7146 -74.9384114,97.0856 C-74.1645609,96.4556 -57.6248518,96.4556 -56.7059044,95.8266 C-55.8057659,95.1976 -55.4134668,95.1976 -54.5092978,94.5676 C-53.575572,93.9386 -83.5515277,93.9386 -82.8703781,93.3096 C-82.1704197,92.6806 -71.3741316,92.6806 -70.5841593,92.0506 C-69.7928435,91.4216 -82.0521925,91.4216 -81.3616385,90.7926 C-80.6979543,90.1636 -41.4183283,90.1636 -40.4348934,89.5346 C-39.4769848,88.9046 -50.9020263,88.9046 -50.038162,88.2746 C-49.1675803,87.6466 -42.6691177,87.6466 -41.7488269,87.0176 C-40.8056967,86.3876 -71.040946,86.3886 -70.3356136,85.7596 C-69.6087853,85.1306 -62.1215139,85.1306 -61.3369155,84.5016 C-60.5536607,83.8716 -64.6539931,83.8716 -63.9043255,83.2426 C-63.1667493,82.6126 -45.0188823,82.6136 -44.1415831,81.9836 C-43.2898102,81.3546 -36.8383698,81.3546 -35.9368878,80.7266 C-35.0407798,80.0976 -36.3547133,80.0976 -35.4693532,79.4696 C-34.5638407,78.8406 -55.2549349,78.8406 -54.5012368,78.2116 C-53.7421648,77.5826 -36.5522064,77.5826 -35.6695332,76.9536 C-34.7680512,76.3246 -73.6553781,76.3246 -73.0333421,75.6946 C-72.3763753,75.0656 -71.5460983,75.0656 -70.8851011,74.4376 C-70.2590346,73.8086 -29.391403,73.8086 -28.4791731,73.1796 C-27.5965,72.5516 -32.8938823,72.5516 -32.0474834,71.9226 C-31.1957105,71.2946 -33.350669,71.2946 -32.515018,70.6656 C-31.6713061,70.0366 -35.7864169,70.0366 -34.9722618,69.4076 C-34.1688546,68.7786 -16.0814446,68.7776 -15.1571233,68.1486 C-14.219367,67.5206 -48.5710706,67.5206 -47.8617078,66.8916 C-47.136223,66.2616 -31.621597,66.2616 -30.7940069,65.6326 C-29.9905997,65.0036 -14.6264446,65.0026 -13.7236191,64.3736 C-12.8073587,63.7446 -47.0462091,63.7446 -46.3516247,63.1156 C-45.6583837,62.4866 -6.92690166,62.4866 -5.98511496,61.8566 C-5.05273269,61.2286 -34.7962645,61.2286 -34.0519709,60.5996 C-33.2754335,59.9696 -43.9817078,59.9696 -43.2723449,59.3406 C-42.5871648,58.7116 -1.53547507,58.7116 -0.593688366,58.0826 C0.352128809,57.4536 -48.9794917,57.4526 -48.3373033,56.8236 C-47.6749626,56.1946 -24.127608,56.1946 -23.3215139,55.5656 C-22.540946,54.9376 -10.2668186,54.9376 -9.41235873,54.3076 C-8.54849446,53.6786 -33.5898102,53.6786 -32.8777604,53.0496 C-32.1630235,52.4206 -8.95019806,52.4206 -8.09842521,51.7906 C-7.24665235,51.1616 -30.1504751,51.1616 -29.4343947,50.5326 C-28.6914446,49.9036 -40.6135776,49.9036 -39.9404889,49.2746 C-39.2700873,48.6466 -26.0743255,48.6466 -25.3260014,48.0176 C-24.5763338,47.3886 -41.6924003,47.3886 -41.039464,46.7586 C-40.4053366,46.1296 2.48156094,46.1296 3.3602036,45.5006 C4.23750277,44.8706 -38.2839654,44.8706 -37.644464,44.2416 C-36.9807798,43.6126 -33.1988546,43.6126 -32.5136745,42.9836 C-31.8567078,42.3546 7.19721191,42.3546 8.06913712,41.7266 C8.92897091,41.0976 -8.49341136,41.0976 -7.73030886,40.4686 C-6.94302355,39.8396 -28.1594224,39.8396 -27.4863338,39.2106 C-26.8239931,38.5816 10.4672673,38.5816 11.3311316,37.9516 C12.1896219,37.3226 -17.7258767,37.3226 -17.0272618,36.6936 C-16.3084945,36.0646 -17.2878989,36.0646 -16.573162,35.4366 C-15.8503643,34.8076 -30.8410291,34.8066 -30.1961537,34.1786 C-29.5660568,33.5496 7.59622853,33.5496 8.42247507,32.9206 C9.24334765,32.2916 -23.0783421,32.2916 -22.4240623,31.6626 C-21.7697825,31.0336 11.4359238,31.0336 12.2608269,30.4046 C13.0534861,29.7756 30.9635554,29.7756 31.8489155,29.1466 C32.746367,28.5186 -4.73835596,28.5186 -4.03168006,27.8896 C-3.3048518,27.2596 1.07761357,27.2596 1.82593767,26.6306 C2.55142244,26.0016 40.4593449,26.0016 41.3715748,25.3726 C42.2690263,24.7426 30.4651205,24.7436 31.3034584,24.1146 C32.1740402,23.4856 -11.6479266,23.4856 -10.9936468,22.8566 C-10.3205582,22.2286 4.52232271,22.2286 5.26795983,21.5996 C5.98538366,20.9716 38.4441094,20.9706 39.3187216,20.3426 C40.1906468,19.7136 11.2290263,19.7136 11.962572,19.0846 C12.7068657,18.4556 25.1905776,18.4556 25.9939848,17.8266 C26.7785831,17.1976 44.328597,17.1976 45.1978352,16.5686 C46.054982,15.9396 49.6058269,15.9396 50.4790956,15.3116 C51.3617687,14.6826 33.1856884,14.6826 33.9823781,14.0526 C34.7925028,13.4236 31.7091925,13.4236 32.5031953,12.7946 C33.3186939,12.1656 -2.37381302,12.1656 -1.72222022,11.5366 C-1.06122299,10.9076 18.13591,10.9086 18.8828906,10.2786 C19.6070319,9.6506 45.915259,9.6506 46.7576274,9.0216 C47.6134307,8.3936 -3.554741,8.3936 -2.9313615,7.7656 C-2.32410388,7.1366 85.2392202,7.1366 86.2374335,6.5076 C87.2007161,5.8796 66.0044695,5.8796 66.8723643,5.2506" id="Fill-16" fill="#BED9A1" mask="url(#mask-10)"></path>
                    </g>
                    <path d="M378.314107,148.2506 C378.023913,147.6216 378.31142,147.6216 378.018539,146.9936 C377.724314,146.3646 376.911503,146.3646 376.625339,145.7356 C376.339176,145.1066 378.324855,145.1066 378.021226,144.4786 C377.896281,144.2216 376.062417,144.0696 373.927611,143.9376 L301.845325,143.9376 C301.395256,144.0786 300.974744,144.2336 300.852486,144.5146 C300.575727,145.1446 303.668442,145.1446 303.42124,145.7736 C303.179411,146.4036 295.127874,146.4036 294.809467,147.0326 C294.496434,147.6626 296.417625,147.6626 296.1234,148.2926 C295.830519,148.9216 293.768262,148.9216 293.456572,149.5516 C293.130104,150.1806 306.821614,150.1806 306.621434,150.8106 C306.422597,151.4386 292.086212,151.4386 291.7584,152.0686 C291.434619,152.6976 300.513927,152.6976 300.272098,153.3276 C300.015492,153.9576 303.634855,153.9566 303.411835,154.5866 C303.196877,155.2156 291.202195,155.2156 290.881101,155.8456 C290.568068,156.4746 296.877098,156.4746 296.617805,157.1046 C296.349107,157.7326 299.615132,157.7326 299.373303,158.3626 C299.134162,158.9916 293.190561,158.9916 292.901711,159.6206 C292.622265,160.2496 289.861392,160.2496 289.559107,160.8786 C289.258165,161.5086 289.998428,161.5086 289.70286,162.1386 C289.408636,162.7676 288.988123,162.7676 288.689868,163.3966 C288.384896,164.0246 295.49196,164.0246 295.244758,164.6536 C294.988151,165.2826 297.157888,165.2826 296.918747,165.9116 C296.680949,166.5406 291.530007,166.5416 291.251904,167.1706 C290.981863,167.7996 289.600755,167.7996 289.319965,168.4296 C289.033802,169.0586 294.732888,169.0586 294.49106,169.6876 C294.238483,170.3146 299.788442,170.3156 299.578857,170.9436 C299.366586,171.5726 296.040104,171.5726 295.802306,172.2016 C295.579287,172.8306 283.751198,172.8306 283.440852,173.4596 C283.142597,174.0886 280.756558,174.0886 280.440838,174.7176 C280.111683,175.3476 297.927708,175.3466 297.726184,175.9766 C297.509882,176.6046 297.503165,176.6046 297.286863,177.2336 C297.077278,177.8616 288.294882,177.8616 288.024841,178.4906 C287.757486,179.1186 293.167722,179.1186 292.937985,179.7476 C292.705561,180.3766 290.093816,180.3766 289.842583,181.0056 C289.603442,181.6346 278.397389,181.6346 278.081669,182.2646 C277.77401,182.8936 279.501738,182.8936 279.204827,183.5216 C278.907916,184.1516 278.572043,184.1516 278.272445,184.7806 C277.970159,185.4096 283.239328,185.4106 282.97063,186.0396 C282.691184,186.6686 291.043663,186.6686 290.819301,187.2976 C290.58822,187.9266 289.974245,187.9266 289.739134,188.5556 C289.516115,189.1856 274.602029,189.1856 274.283622,189.8136 C273.977306,190.4436 272.281821,190.4436 271.964758,191.0726 C271.636946,191.7016 287.232181,191.7016 287.003788,192.3306 C286.767334,192.9596 281.655353,192.9596 281.386655,193.5886 C281.124675,194.2186 278.277819,194.2186 277.997029,194.8476 C277.71624,195.4766 281.976447,195.4766 281.722528,196.1046 C281.467265,196.7346 277.622195,196.7346 277.344093,197.3636 C277.059273,197.9926 288.806752,197.9926 288.593137,198.6216 C288.383553,199.2516 271.028345,199.2506 270.715312,199.8806 C270.407652,200.5096 278.827306,200.5096 278.569356,201.1386 C278.303345,201.7676 281.418899,201.7676 281.171697,202.3966 C280.921807,203.0246 281.413525,203.0246 281.167666,203.6546 C280.923151,204.2836 277.322597,204.2836 277.057929,204.9126 C276.798636,205.5416 270.817417,205.5416 270.52588,206.1716 C270.239716,206.8006 265.646323,206.7996 265.334633,207.4296 C265.0216,208.0586 272.081641,208.0586 271.808913,208.6876 C271.528123,209.3156 274.434093,209.3156 274.169425,209.9446 C273.907445,210.5736 268.994301,210.5736 268.70545,211.2026 C268.409882,211.8316 281.295298,211.8316 281.069591,212.4606 C280.846572,213.0896 266.414799,213.0906 266.112514,213.7196 C265.815602,214.3486 273.222265,214.3486 272.962971,214.9776 C272.705021,215.6056 268.970118,215.6056 268.689328,216.2346 C268.417943,216.8636 259.800796,216.8636 259.483733,217.4926 C259.170699,218.1216 259.869314,218.1216 259.560312,218.7506 C259.239217,219.3796 278.550547,219.3796 278.330215,220.0086 C278.108539,220.6376 259.679882,220.6376 259.362819,221.2666 C259.05919,221.8956 256.494467,221.8956 256.177403,222.5236 C255.858996,223.1536 261.40358,223.1526 261.113386,223.7826 C260.819162,224.4116 260.957542,224.4116 260.666004,225.0406 C260.359688,225.6696 280.962112,225.6696 280.759245,226.2986 C280.555035,226.9276 262.083386,226.9276 261.789162,227.5566 C261.497625,228.1856 272.72383,228.1856 272.488719,228.8136 C272.248234,229.4426 268.540201,229.4416 268.282251,230.0706 C268.032361,230.6996 255.707181,230.6996 255.398179,231.3286 C255.09455,231.9576 260.377154,231.9576 260.097708,232.5866 C259.811544,233.2156 264.899342,233.2156 264.638705,233.8446 C264.37135,234.4736 269.353012,234.4736 269.109841,235.1026 C268.863982,235.7306 267.688428,235.7306 267.437195,236.3596 C267.194024,236.9896 255.545963,236.9896 255.246364,237.6186 C254.957514,238.2476 250.126323,238.2476 249.814633,238.8766 C249.506974,239.5056 247.687888,239.5056 247.372168,240.1336 C247.047043,240.7626 264.711253,240.7626 264.466738,241.3916 C264.214162,242.0206 264.574217,242.0206 264.322985,242.6476 C264.079813,243.2766 247.214979,243.2766 246.895229,243.9056 C246.574134,244.5336 267.683054,244.5336 267.456004,245.1626 C267.222237,245.7906 260.858123,245.7916 260.594799,246.4196 C260.336849,247.0486 257.15009,247.0486 256.878705,247.6776 C256.610007,248.3066 252.537888,248.3066 252.251724,248.9356 C251.965561,249.5636 254.121863,249.5636 253.845104,250.1926 C253.658359,250.6216 252.365921,250.7586 251.46847,250.9996 L271.906988,250.9996 C271.995658,250.8216 272.060145,250.7236 272.091046,250.7236 C272.140755,250.7236 272.152846,250.8216 272.132694,250.9996 L409.340672,250.9996 C417.818096,250.7346 432.623359,250.6056 432.393622,250.1576 C432.071184,249.5276 417.886614,249.5276 417.62732,248.8986 C417.355935,248.2696 410.575339,248.2696 410.333511,247.6396 C410.095713,247.0106 424.008899,247.0096 423.710644,246.3806 C423.412389,245.7506 412.92376,245.7506 412.673871,245.1206 C412.411891,244.4916 402.118068,244.4916 401.903109,243.8616 C401.694868,243.2326 426.026821,243.2326 425.708414,242.6036 C425.402098,241.9746 422.236835,241.9736 421.945298,241.3446 C421.647043,240.7146 412.732985,240.7156 412.475035,240.0856 C412.218428,239.4566 422.524342,239.4556 422.220713,238.8266 C421.922458,238.1976 422.162943,238.1976 421.863345,237.5676 C421.552999,236.9386 403.610686,236.9386 403.386323,236.3096 C403.153899,235.6806 409.488456,235.6806 409.227819,235.0506 C408.964494,234.4216 401.912514,234.4216 401.685464,233.7926 C401.465132,233.1636 423.619287,233.1636 423.292819,232.5346 C422.975755,231.9046 416.65732,231.9046 416.371157,231.2746 C416.082306,230.6466 419.607625,230.6466 419.302652,230.0176 C418.989619,229.3886 402.906697,229.3886 402.672929,228.7596 C402.432445,228.1306 406.339314,228.1306 406.078677,227.5016 C405.820727,226.8716 403.720852,226.8726 403.472306,226.2426 C403.226447,225.6136 412.339342,225.6136 412.049148,224.9836 C411.765672,224.3546 414.943026,224.3546 414.644771,223.7266 C414.34786,223.0976 413.712389,223.0986 413.418165,222.4696 C413.118566,221.8406 403.307057,221.8406 403.057168,221.2116 C402.804591,220.5826 410.805076,220.5826 410.512195,219.9536 C410.21394,219.3246 392.455686,219.3246 392.250132,218.6956 C392.032486,218.0656 392.404633,218.0666 392.185644,217.4376 C391.978747,216.8086 409.954647,216.8086 409.652361,216.1796 C409.360824,215.5516 407.074204,215.5516 406.793414,214.9226 C406.512625,214.2946 405.599051,214.2946 405.322292,213.6656 C405.042846,213.0366 403.33124,213.0366 403.061198,212.4076 C402.795187,211.7786 410.180353,211.7786 409.874037,211.1486 C409.563691,210.5206 395.794259,210.5206 395.559148,209.8916 C395.318663,209.2616 401.424827,209.2616 401.150755,208.6326 C400.884744,208.0036 406.820284,208.0036 406.520686,207.3736 C406.217057,206.7446 393.232223,206.7446 393.002486,206.1156 C392.772749,205.4866 407.192431,205.4866 406.880741,204.8576 C406.571738,204.2286 395.700215,204.2286 395.453012,203.5996 C395.196406,202.9706 391.355367,202.9706 391.120256,202.3406 C390.893206,201.7116 405.35588,201.7116 405.04419,201.0826 C404.731157,200.4536 387.666143,200.4536 387.453871,199.8246 C387.233539,199.1956 395.231337,199.1946 394.965325,198.5656 C394.706032,197.9376 398.80099,197.9376 398.517514,197.3086 C398.23135,196.6796 390.032029,196.6786 389.795575,196.0496 C389.55912,195.4206 397.020866,195.4206 396.738733,194.7916 C396.4566,194.1616 389.228622,194.1626 388.990824,193.5326 C388.744965,192.9036 385.050367,192.9036 384.828691,192.2746 C384.605672,191.6466 388.620021,191.6466 388.372819,191.0176 C388.124273,190.3886 383.012292,190.3886 382.79599,189.7586 C382.586406,189.1296 395.162819,189.1296 394.871281,188.5006 C394.581087,187.8716 382.339204,187.8716 382.126932,187.2416 C381.907943,186.6126 382.976018,186.6126 382.748968,185.9836 C382.532666,185.3546 393.367916,185.3546 393.079065,184.7266 C392.795589,184.0976 388.049037,184.0976 387.796461,183.4686 C387.534481,182.8396 381.862265,182.8396 381.639245,182.2106 C381.418913,181.5816 391.207583,181.5816 390.92142,180.9526 C390.6366,180.3226 382.928996,180.3226 382.696572,179.6936 C382.458774,179.0646 382.211572,179.0646 381.975118,178.4366 C381.734633,177.8076 378.014508,177.8076 377.800893,177.1786 C377.592652,176.5496 386.64509,176.5496 386.372361,175.9206 C386.099633,175.2916 378.371877,175.2916 378.155575,174.6626 C377.939273,174.0336 385.730173,174.0336 385.456101,173.4046 C385.19412,172.7756 389.317292,172.7756 389.024411,172.1466 C388.726157,171.5186 380.260824,171.5186 380.025713,170.8896 C379.785229,170.2596 380.756572,170.2606 380.508026,169.6306 C380.268885,169.0016 388.511198,169.0016 388.208913,168.3726 C387.912001,167.7436 385.394301,167.7436 385.116198,167.1146 C384.828691,166.4856 375.65937,166.4856 375.441724,165.8566 C375.220048,165.2286 378.265741,165.2286 378.018539,164.5996 C377.782084,163.9706 384.314134,163.9706 384.02394,163.3426 C383.73509,162.7136 378.018539,162.7136 377.775367,162.0846 C377.529508,161.4556 379.945104,161.4556 379.680436,160.8266 C379.419799,160.1976 382.748968,160.1976 382.461461,159.5686 C382.177985,158.9396 382.838982,158.9396 382.548788,158.3116 C382.257251,157.6826 378.94286,157.6826 378.678193,157.0526 C378.410838,156.4236 377.860007,156.4236 377.596683,155.7946 C377.326641,155.1656 371.075381,155.1656 370.859079,154.5366 C370.64009,153.9086 373.935672,153.9086 373.687126,153.2796 C373.446641,152.6506 377.872098,152.6506 377.592652,152.0216 C377.309176,151.3936 368.880118,151.3936 368.67322,150.7656 C368.471697,150.1366 382.599841,150.1366 382.269342,149.5076 C381.950935,148.8796 378.601614,148.8796 378.314107,148.2506" id="Fill-19" fill="#F1E8B3"></path>
                    <g id="Group-23" transform="translate(0.000000, 195.000000)">
                        <mask id="mask-12" fill="white">
                            <use xlink:href="#path-11"></use>
                        </mask>
                        <g id="Clip-22"></g>
                        <path d="M-135.692252,55.9996 L-135.692252,42.5646 C-131.116324,39.9486 -125.634884,39.8246 -119.469607,40.8706 C-113.869939,41.8216 -109.022626,42.6666 -103.277861,41.6686 C-97.9657008,40.7456 -93.0767396,38.6826 -87.9956593,37.2386 C-84.0310194,36.1126 -80.0516011,35.1906 -76.4161163,33.4956 C-72.7067396,31.7656 -70.0654377,29.1116 -67.7653823,26.3646 C-62.5472659,20.1326 -58.4576814,13.5266 -51.7872521,8.0506 C-46.6793019,3.8556 -40.0075291,-0.2474 -32.0728753,0.3346 C-24.2940665,0.9046 -17.7835125,4.6866 -12.1126399,8.4326 C-8.76600554,10.6426 -5.50669806,12.9196 -1.78926039,14.7736 C2.83906371,17.0816 7.4418615,17.4586 12.8104488,16.7326 C21.2153241,15.5986 29.5610859,12.8036 37.4943961,16.6266 C43.0470416,19.3026 45.9462936,24.2116 48.936903,28.4326 C50.5114737,30.6546 52.3695208,32.7096 55.0524709,34.2406 C58.9257535,36.4496 64.0122078,36.7146 68.6633712,36.8046 C73.3655873,36.8956 77.9965983,36.8736 82.6517922,37.4636 C87.0181357,38.0166 91.205795,39.3316 95.4082327,40.3426 C99.8659335,41.4136 104.621889,42.3886 109.322762,41.8566 C113.402942,41.3966 116.003939,38.8396 118.841391,36.8536 C123.458967,33.6176 129.661861,34.6256 134.432596,37.1536 C140.343953,40.2886 143.76851,45.7546 152.122332,44.5386 C161.227166,43.2136 167.619493,37.6836 173.310518,32.6036 C178.680449,27.8106 184.313704,24.0776 191.733801,21.2266 C199.128371,18.3846 207.304853,16.2306 215.545823,15.4596 C223.358219,14.7286 227.932803,17.6906 233.975823,20.8296 C243.032291,25.5356 253.265657,21.6106 263.190019,22.1256 C267.157346,22.3306 270.541598,23.7196 274.007803,25.0506 C279.847956,27.2916 284.90351,26.2836 290.732914,24.7306 C294.048648,23.8496 297.423496,23.0946 300.873579,23.9396 C304.36128,24.7956 307.099313,27.4146 309.547152,29.3286 C312.801086,31.8716 316.639438,34.2636 320.523468,36.2136 C325.835629,38.8806 331.628759,38.7856 337.732235,38.6106 C341.903773,38.4916 346.041723,38.6316 349.937845,39.8886 C354.552734,41.3766 358.524091,43.6356 362.631141,45.7816 C366.833579,47.9786 371.373233,49.8776 376.244729,51.0606 C382.051294,52.4706 387.800089,51.7696 393.526044,50.5476 C401.112734,48.9296 407.557457,48.3716 414.819022,51.4766 C416.264618,52.0946 416.892028,52.6876 418.712457,52.7206 C421.622457,52.7716 424.003122,51.8186 426.330047,50.6346 C429.707582,48.9156 432.820449,47.0746 437.004078,46.6646 C439.093205,46.4596 440.635532,46.7226 442.35923,47.6246 C445.617194,49.3306 448.809327,50.6816 452.898911,50.7316 C460.703247,50.8286 467.053925,45.0966 471.471321,40.9056 C476.74049,35.9086 481.693939,30.6656 486.80995,25.5766 C489.885199,22.5176 492.557402,17.9246 497.697596,16.5846 C501.010643,15.7206 504.623288,15.4096 508.011571,14.7356 C512.819922,13.7796 517.481834,12.8126 522.494396,13.0766 C525.781917,13.2496 528.828953,14.3486 531.963316,15.0096 C537.208302,16.1166 542.559424,14.1146 547.257609,12.5756 C553.90923,10.3976 559.815213,9.8656 566.450712,12.2196 C570.219202,13.5556 573.830504,15.6506 576.326709,18.2796 C576.517485,18.3936 576.710947,18.5166 576.905753,18.6566 C581.210296,21.7546 582.454368,27.1476 583.308828,31.3616 C584.226432,35.8836 586.644715,39.3526 589.792512,42.7286 L589.792512,55.9996 L-135.692252,55.9996 Z" id="Fill-21" fill="#001827" mask="url(#mask-12)"></path>
                    </g>
                    <g id="Group-26" transform="translate(0.000000, 45.000000)">
                        <mask id="mask-14" fill="white">
                            <use xlink:href="#path-13"></use>
                        </mask>
                        <g id="Clip-25"></g>
                        <path d="M-7.13366482,78.4166 C-10.0087341,81.1896 -12.7373629,84.0516 -15.3101468,86.9986 C-19.0101191,83.6666 -11.6585402,80.7336 -7.13366482,78.4166 M-16.7785817,88.6986 C-16.9854792,88.9446 -16.4628615,89.1716 -16.2573075,88.9266 C-15.9174044,88.5236 -15.5667535,88.1276 -15.2228199,87.7286 C-14.4288172,88.3236 -13.485687,88.8406 -12.6661579,89.3436 C-9.89050693,91.0476 -8.85601939,93.3116 -9.811241,95.9256 C-9.94155956,96.2826 -10.1403961,96.6046 -10.367446,96.9116 L312.43297,96.9116 C310.909452,96.0986 309.412803,95.2606 307.988704,94.3506 C304.643413,92.2146 302.137803,89.6146 299.786695,86.8636 C295.280629,81.5876 290.724853,76.7096 283.39074,73.4196 C275.395629,69.8336 266.140324,67.9916 258.77531,63.6036 C254.961141,61.3296 251.618537,58.4766 248.347139,55.7866 C244.880934,52.9366 241.551765,49.9596 238.656543,46.7706 C236.639964,44.5496 235.828496,42.3926 235.378427,39.7646 C234.963288,37.3336 234.369465,35.0406 233.195255,32.7426 C230.696363,27.8536 226.6229,23.2176 221.428967,19.6846 C216.826169,16.5536 210.677014,14.4046 204.471432,16.0516 C198.122097,17.7366 198.131501,23.1926 195.384064,26.9866 C193.783967,29.1956 191.201778,30.9356 189.334327,33.0136 C187.407762,35.1556 186.834091,37.7386 185.73646,40.1376 C184.876626,42.0106 183.663454,43.4276 181.11754,44.1336 C178.38085,44.8926 175.64013,45.4696 173.020324,46.4626 C165.619036,49.2696 163.032817,56.0426 155.678551,58.8126 C152.951266,59.8406 151.027388,58.5126 149.686584,56.8216 C148.16844,54.9056 147.154105,52.7776 145.801211,50.7976 C142.003163,45.2386 134.875947,42.4656 128.411072,38.8716 C121.697651,35.1396 117.256072,29.6516 110.496972,25.9206 C107.210795,24.1056 103.299895,22.8856 100.377803,20.7176 C98.2886759,19.1686 97.4745208,17.0146 96.5878172,14.9856 C94.6303518,10.5016 93.5165983,4.7236 87.9747008,1.8136 C85.7485374,0.6456 82.0552825,-0.1274 79.4475679,0.7496 C76.9204626,1.6006 75.6441468,3.5716 74.3920139,5.2976 C72.3082604,8.1686 69.5312659,10.6056 66.8630942,13.1826 C63.5997562,16.3306 60.4103102,19.5206 57.1523463,22.6726 C53.8366122,25.8796 50.2911413,28.9326 46.8800194,32.0796 C44.1151163,34.6306 41.7828172,37.4206 39.5123186,40.2216 C37.236446,43.0266 34.9968476,45.8476 32.3756981,48.4846 C29.4307673,51.4466 25.9067922,53.8416 22.0845623,56.1546 C11.7181911,62.4266 2.32316343,69.4826 -5.9164626,77.2496 C-7.95319391,78.6596 -10.6267396,79.6656 -12.8233463,80.8746 C-14.6854238,81.8976 -17.0754931,83.2786 -16.9505485,85.1876 C-16.8927784,86.0566 -16.3674737,86.7676 -15.6460194,87.3886 C-16.0248837,87.8246 -16.4064349,88.2586 -16.7785817,88.6986" id="Fill-24" fill="#001827" mask="url(#mask-14)"></path>
                    </g>
                    <path d="M362.331705,114.5651 C358.242899,129.6921 341.91738,138.8301 325.868762,134.9751 C309.820145,131.1211 300.125409,115.7331 304.214215,100.6061 C308.304082,85.4791 324.62854,76.3411 340.677158,80.1961 C356.725776,84.0501 366.420511,99.4381 362.331705,114.5651" id="Fill-27" fill-opacity="0.3" fill="#F1E8B3"></path>
                    <path d="M289.766511,126.9401 C289.24878,128.8521 287.18528,130.0071 285.15573,129.5201 C283.127241,129.0331 281.900811,127.0871 282.418542,125.1751 C282.935213,123.2621 284.998713,122.1071 287.028263,122.5941 C289.057813,123.0821 290.283182,125.0271 289.766511,126.9401" id="Fill-29" fill-opacity="0.3" fill="#FFFFFF"></path>
                    <path d="M174.961765,201.6227 C174.445094,203.5357 172.380533,204.6907 170.352044,204.2037 C168.322494,203.7167 167.097125,201.7707 167.613796,199.8577 C168.131527,197.9457 170.195027,196.7897 172.223516,197.2767 C174.253067,197.7647 175.479496,199.7107 174.961765,201.6227" id="Fill-31" fill-opacity="0.3" fill="#FFFFFF"></path>
                    <path d="M352.714925,83.5543 C352.503801,84.3373 351.659304,84.8103 350.8286,84.6103 C349.998956,84.4103 349.497138,83.6153 349.709323,82.8323 C349.920448,82.0503 350.764944,81.5773 351.594588,81.7773 C352.425292,81.9763 352.926049,82.7723 352.714925,83.5543" id="Fill-33" fill-opacity="0.3" fill="#FFFFFF"></path>
                    <path d="M203.378332,203.0836 C200.087341,215.2546 186.953085,222.6066 174.040563,219.5056 C161.12698,216.4046 153.327057,204.0236 156.616986,191.8526 C159.907977,179.6816 173.043293,172.3286 185.955816,175.4306 C198.868338,178.5316 206.669322,190.9126 203.378332,203.0836" id="Fill-35" fill-opacity="0.3" fill="#FFFFFF"></path>
                    <path d="M180.983365,164.8746 C160.002505,159.8356 138.583484,171.8246 133.237481,191.6016 C127.890417,211.3776 140.610912,231.5666 161.591771,236.6056 C182.573692,241.6456 203.992713,229.6556 209.338716,209.8796 C214.68578,190.1036 201.965285,169.9136 180.983365,164.8746 M161.238483,237.9146 C139.491636,232.6906 126.307516,211.7666 131.848729,191.2686 C137.391003,170.7706 159.590866,158.3436 181.336653,163.5656 C203.084561,168.7896 216.26762,189.7156 210.726407,210.2126 C205.185194,230.7106 182.985331,243.1376 161.238483,237.9146" id="Fill-37" fill-opacity="0.3" fill="#FFFFFF"></path>
                    <path d="M181.382803,166.7877 C161.618825,162.0407 141.442147,173.3347 136.405934,191.9637 C131.369722,210.5927 143.351812,229.6097 163.115791,234.3567 C182.879769,239.1037 203.056447,227.8097 208.092659,209.1817 C213.128872,190.5527 201.146781,171.5347 181.382803,166.7877 M162.78266,235.5897 C142.297253,230.6697 129.879122,210.9587 135.098874,191.6497 C140.318627,172.3407 161.230526,160.6357 181.715934,165.5557 C202.201341,170.4757 214.619472,190.1867 209.399719,209.4957 C204.179967,228.8047 183.268067,240.5107 162.78266,235.5897" id="Fill-39" fill-opacity="0.3" fill="#FFFFFF"></path>
                    <g id="Group-43">
                        <mask id="mask-16" fill="white">
                            <use xlink:href="#path-15"></use>
                        </mask>
                        <g id="Clip-42"></g>
                        <path d="M587.919553,106.3131 C581.579622,99.7911 575.199386,93.2891 567.908265,87.3051 C560.763583,81.4401 552.538735,76.2631 543.967267,71.5381 C536.403417,67.3681 527.500107,64.1171 520.687267,59.2861 C512.074151,53.1801 517.372877,45.9361 518.815785,38.6511 C520.074636,32.2911 514.990868,27.1061 509.688112,22.4591 C503.549705,17.0801 496.637447,11.9511 489.859539,6.9951 C484.723375,3.2401 478.109373,-0.3779 470.475661,1.1721 C463.531159,2.5831 460.330965,8.4751 457.60368,12.7431 C453.575896,19.0451 447.089525,23.9251 440.319677,28.7221 C433.646561,33.4501 426.976132,38.1471 422.228237,44.0401 C419.976547,46.8341 418.221949,49.6421 415.451672,52.2151 C412.946062,54.5451 410.01188,56.6251 407.083071,58.6691 C401.964373,62.2441 396.58235,65.7141 393.020758,70.2461 C389.068209,75.2771 389.784289,80.5601 390.732794,86.0861 C391.224511,88.9541 391.526796,91.7541 390.603819,94.5961 C389.246893,98.7741 385.057891,102.4301 381.442558,105.6761 C378.333722,108.4671 374.985744,111.1181 372.011256,113.9861 C368.655217,117.2191 365.940024,120.7471 362.154068,123.7411 C356.743832,128.0201 349.64886,130.2701 341.939913,131.3781 C333.423528,132.6031 324.479913,133.1371 315.845301,133.7731 C305.204857,134.5571 295.027918,131.8681 285.08609,129.5161 C275.000508,127.1311 264.693251,125.6311 254.047434,126.1841 C245.192489,126.6431 237.64476,129.9851 229.108223,131.2421 C226.504539,131.6251 224.051325,131.1231 221.641104,130.4261 C217.61735,129.2651 213.710481,127.8071 209.806298,126.4501 C206.749857,125.3861 203.688043,124.3371 200.54965,123.4081 C197.998361,122.6511 194.610079,121.5261 191.756506,121.8071 C185.231173,122.4501 182.189511,127.4401 175.742101,128.0121 C165.508735,128.9201 156.132517,122.2361 147.026339,119.8301 C137.741478,117.3761 127.556478,116.7821 117.841699,115.7981 C107.762835,114.7781 97.5778352,113.4731 88.5227105,109.9221 C79.5885,106.4191 74.1124335,99.9031 67.6489017,94.4631 C61.7617271,89.5071 54.1763809,86.8031 46.6582091,83.4011 C42.4866717,81.5131 38.8175997,79.3621 36.5148573,76.1441 C33.9770042,72.5981 33.582018,68.3831 31.4646773,64.7001 C27.696187,58.1401 18.207115,53.2921 11.1994695,48.6621 C4.18779363,44.0291 -2.28379917,39.0231 -10.2721925,35.2481 C-16.4764307,32.3171 -23.4531759,30.6891 -30.8584945,30.7211 C-39.4460845,30.7591 -47.9960568,33.1811 -55.8420402,35.5111 C-63.1667493,37.6871 -67.6835637,41.7161 -71.1282729,46.7931 C-72.8828712,49.3801 -74.3244363,52.0281 -76.5734391,54.4221 C-79.7373587,57.7891 -84.7284252,60.0841 -88.9362368,62.6941 C-92.1915139,64.7131 -95.2237715,66.8951 -98.053162,69.2281 C-101.128411,71.7641 -103.662234,74.6231 -107.155309,76.8771 C-113.182206,80.7671 -121.59783,81.8001 -127.335877,86.1251 C-130.951209,88.8491 -133.296943,92.3081 -135.692386,95.7301 L-135.692386,143.9371 L589.792378,143.9371 L589.792378,108.2271 C589.166312,107.5901 588.541589,106.9531 587.919553,106.3131" id="Fill-41" fill="#013440" mask="url(#mask-16)"></path>
                    </g>
                    <path d="M277.995863,115.7067 C276.473435,121.3357 270.399638,124.7357 264.427689,123.3017 C258.456801,121.8667 254.849655,116.1427 256.371022,110.5137 C257.892389,104.8847 263.967247,101.4847 269.938135,102.9187 C275.910084,104.3527 279.51723,110.0787 277.995863,115.7067" id="Fill-44" fill-opacity="0.3" fill="#FFFFFF"></path>
                    <path d="M279.488797,108.8756 C278.733418,111.6716 275.716147,113.3596 272.749799,112.6476 C269.784513,111.9356 267.99261,109.0916 268.747989,106.2956 C269.503368,103.5006 272.520639,101.8116 275.486987,102.5236 C278.452273,103.2356 280.244176,106.0796 279.488797,108.8756" id="Fill-46" fill-opacity="0.3" fill="#FFFFFF"></path>
                </g>
            </g>
        </g>
    </g>
</svg>