<?xml version="1.0" encoding="UTF-8"?>
<svg width="480px" height="360px" viewBox="0 0 480 360" version="1.1" xmlns="http://www.w3.org/2000/svg" xmlns:xlink="http://www.w3.org/1999/xlink" style="background: #FFFFFF;">
    <!-- Generator: Sketch 48.2 (47327) - http://www.bohemiancoding.com/sketch -->
    <title>Outskirts1</title>
    <desc>Created with Sketch.</desc>
    <defs>
        <polygon id="path-1" points="0 398.198198 935.774775 398.198198 935.774775 1.17297297 0 1.17297297"></polygon>
        <polygon id="path-3" points="0.327927928 364.886486 865.192793 364.886486 865.192793 1.17117117 0.327927928 1.17117117"></polygon>
    </defs>
    <g id="备份" stroke="none" stroke-width="1" fill="none" fill-rule="evenodd">
        <g id="Outskirts1">
            <g transform="translate(-345.000000, 0.000000)">
                <polygon id="Fill-1" fill="#9CD3DB" points="30.9585586 365.515315 895.823423 365.515315 895.823423 1.8 30.9585586 1.8"></polygon>
                <path d="M30.9578378,227.006847 C105.336216,270.446486 139.083964,154.947387 231.428108,154.947387 C323.772252,154.947387 347.087568,237.522162 444.658739,237.522162 C542.231712,237.522162 589.474955,184.776216 654.613694,172.90955 C718.13982,161.336577 827.766847,203.783423 895.822703,203.783423 L895.822703,313.280721 L30.9578378,313.280721 L30.9578378,227.006847 Z" id="Fill-2" fill="#9B8579"></path>
                <polygon id="Fill-4" fill="#77674D" points="706.614234 213.34018 705.356577 214.626667 697.369189 206.821261 698.623243 205.534775"></polygon>
                <polygon id="Fill-5" fill="#77674D" points="707.597838 213.34018 708.853694 214.626667 716.844685 206.821261 715.587027 205.534775"></polygon>
                <polygon id="Fill-6" fill="#917E63" points="704.142342 227.953153 709.086486 227.953153 709.086486 203.783784 704.142342 203.783784"></polygon>
                <g id="Group-51" transform="translate(0.000000, 0.628829)">
                    <polygon id="Fill-7" fill="#917E63" points="706.614234 203.155135 706.614234 225.126306 704.142162 225.126306 704.142162 227.324505 709.086306 227.324505 709.086306 203.155135"></polygon>
                    <path d="M725.184685,175.346847 C724.75045,175.215315 724.312613,175.130631 723.867568,175.078378 C722.161261,163.215315 715.087387,154.318018 706.618919,154.318018 C698.148649,154.318018 691.072973,163.222523 689.37027,175.090991 C688.912613,175.145045 688.456757,175.233333 688.006306,175.372072 C682.224324,177.15045 679.690991,185.581081 682.346847,194.199099 C684.997297,202.815315 691.838739,208.357658 697.618919,206.577477 C698.593694,206.278378 699.471171,205.784685 700.254955,205.137838 C702.22973,206.278378 704.373874,206.910811 706.618919,206.910811 C708.871171,206.910811 711.022523,206.274775 713.000901,205.128829 C713.791892,205.786486 714.681982,206.283784 715.669369,206.584685 C721.456757,208.346847 728.276577,202.784685 730.905405,194.155856 C733.532432,185.530631 730.973874,177.110811 725.184685,175.346847" id="Fill-9" fill="#B5F4B5"></path>
                    <path d="M730.905045,194.156757 C733.532072,185.531532 730.973514,177.111712 725.184324,175.347748 C724.75009,175.214414 724.312252,175.12973 723.867207,175.077477 C722.555495,165.958559 718.069009,158.598198 712.22036,155.677477 C727.717658,190.457658 699.287027,203.704505 684.905045,199.801802 C688.218559,205.048649 693.223964,207.931532 697.618559,206.578378 C698.593333,206.279279 699.472613,205.783784 700.254595,205.138739 C702.229369,206.279279 704.373514,206.90991 706.618559,206.90991 C708.870811,206.90991 711.022162,206.275676 713.000541,205.12973 C713.791532,205.785586 714.681622,206.282883 715.669009,206.583784 C721.456396,208.347748 728.276216,202.783784 730.905045,194.156757" id="Fill-11" fill="#93D893"></path>
                    <path d="M344.543604,280.738198 C509.127387,236.439099 780.932793,207.68955 895.822883,219.44991 L895.822883,297.857117 L344.543604,280.738198 Z" id="Fill-13" fill="#93D893"></path>
                    <path d="M895.822703,272.876396 L895.822703,240.656577 C689.22991,256.611532 452.41009,266.588108 488.873153,256.611532 C531.995676,244.811532 635.992072,233.485405 895.822703,223.979099 L895.822703,219.451171 C789.92,208.60973 550.689369,232.18991 385.008288,270.64036 C391.343423,273.952072 398.597477,277.353874 406.545225,280.869189 C408.110991,281.559279 409.871351,282.213333 411.801081,282.825946 L616.035315,289.168288 C721.174054,284.795315 836.901982,275.615135 895.822703,272.876396" id="Fill-15" fill="#5A9B5A"></path>
                    <path d="M673.85982,263.346486 C515.65982,269.106847 187.663423,256.813153 30.9571171,263.346486 L30.9571171,364.887027 L673.85982,263.346486 Z" id="Fill-21" fill="#5EAA6B"></path>
                    <path d="M30.9578378,263.346486 L30.9578378,272.191532 C30.9578378,272.191532 292.476757,271.669009 431.592072,273.294234 C570.709189,274.915856 165.011892,315.281622 30.9578378,332.681622 L30.9578378,364.887027 L673.860541,263.346486 C515.660541,269.106847 187.664144,256.813153 30.9578378,263.346486" id="Fill-23" fill="#5EAA6B"></path>
                    <path d="M772.411532,235.918378 C767.568288,227.332793 755.925045,221.280541 742.325045,221.280541 C727.606126,221.280541 715.179099,228.372432 711.186306,238.08955 C702.28,239.64991 695.732252,244.813874 695.732252,250.956216 C695.732252,258.334595 705.166486,264.316577 716.806126,264.316577 C718.964685,264.316577 721.045766,264.109369 723.006126,263.727387 C728.406126,266.624685 735.089009,268.338198 742.325045,268.338198 C750.952072,268.338198 758.786306,265.902162 764.606126,261.929189 C766.676396,262.361622 768.887207,262.603063 771.188108,262.603063 C782.825946,262.603063 792.261982,256.619279 792.261982,249.242703 C792.261982,242.123784 783.478198,236.323784 772.411532,235.918378" id="Fill-25" fill="#5A9B5A"></path>
                    <path d="M792.261261,249.241802 C792.261261,242.124685 783.477477,236.322883 772.410811,235.917477 C771.502703,234.312072 770.36036,232.794955 769.009009,231.38955 C758.326126,253.877838 717.616216,248.65982 696.423423,247.560721 C695.974775,248.645405 695.733333,249.782342 695.733333,250.955315 C695.733333,258.335495 705.165766,264.315676 716.805405,264.315676 C718.963964,264.315676 721.046847,264.11027 723.005405,263.726486 C728.407207,266.623784 735.09009,268.339099 742.324324,268.339099 C750.951351,268.339099 758.787387,265.901261 764.605405,261.928288 C766.677477,262.360721 768.886486,262.602162 771.189189,262.602162 C782.827027,262.602162 792.261261,256.62018 792.261261,249.241802" id="Fill-27" fill="#5A9B5A"></path>
                    <path d="M30.9578378,346.206667 C143.233514,346.206667 623.910991,249.507568 895.822703,249.507568 L895.822703,364.885946 L30.9578378,364.885946 L30.9578378,346.206667 Z" id="Fill-29" fill="#5A9B5A"></path>
                    <path d="M370.645045,364.886306 C612.87027,324.32955 895.823423,317.352973 895.823423,317.352973 L895.823423,257.333153 C635.672072,257.333153 69.1837838,360.58 30.9585586,364.886306 L370.645045,364.886306 Z" id="Fill-31" fill="#D8C264"></path>
                    <path d="M833.811892,291.758378 C887.563243,317.023243 599.729009,264.794414 670.292973,297.857477 C740.858739,330.916937 456.856937,286.533153 524.894775,313.12955 C592.930811,339.72955 450.757838,339.673694 401.101982,325.071892 C351.444324,310.473694 297.15964,320.621441 338.375856,341.569189 C379.593874,362.516937 225.995676,360.581802 130.341622,348.783604 C76.1920721,357.720541 39.7127928,363.900721 30.9578378,364.886306 L370.644324,364.886306 C612.86955,324.32955 895.822703,317.352973 895.822703,317.352973 L895.822703,286.767387 C850.130811,283.088108 806.44973,278.898919 833.811892,291.758378" id="Fill-33" fill="#D8C264"></path>
                    <path d="M252.255676,126.861802 L413.134955,126.861802 C409.235856,122.029369 400.100721,118.638378 389.45027,118.638378 C388.239459,118.638378 387.057477,118.697838 385.893514,118.782523 C383.239459,115.852793 379.221441,113.328468 374.271892,111.432973 C371.949369,106.180721 366.601622,100.478018 359.297117,96.1338739 C347.183604,88.9320721 334.320541,88.1933333 330.425045,94.4383784 C326.758378,92.4131532 322.648468,90.632973 318.205225,89.223964 C298.711532,83.0455856 280.288108,86.3068468 277.055676,96.5068468 C275.879099,100.22036 276.884505,104.337477 279.563784,108.371712 C263.947568,110.586126 252.439459,118.011351 252.255676,126.861802" id="Fill-39" fill="#FCFBE0"></path>
                    <polygon id="Fill-41" fill="#77674D" points="831.476937 217.970811 828.48955 221.026667 809.493153 202.468108 812.480541 199.41045"></polygon>
                    <mask id="mask-2" fill="white">
                        <use xlink:href="#path-1"></use>
                    </mask>
                    <g id="Clip-46"></g>
                    <path d="M875.628108,129.133514 C874.597477,128.82 873.548829,128.616396 872.494775,128.493874 C868.438919,100.284865 851.624505,79.1335135 831.489369,79.1335135 C811.345225,79.1335135 794.527207,100.301081 790.478559,128.524505 C789.386667,128.647027 788.301982,128.85964 787.233514,129.187568 C773.489369,133.423604 767.462342,153.465045 773.775856,173.953333 C780.085766,194.441622 796.343423,207.62 810.091171,203.383964 C812.406486,202.67045 814.496577,201.499279 816.354234,199.962342 C821.04973,202.672252 826.150631,204.174955 831.489369,204.174955 C836.842523,204.174955 841.956036,202.665045 846.662342,199.940721 C848.53982,201.501081 850.656937,202.684865 853.002883,203.401982 C866.763243,207.592973 882.979459,194.364144 889.228108,173.856036 C895.476757,153.347928 889.388468,133.324505 875.628108,129.133514" id="Fill-48" fill="#5A9B5A" mask="url(#mask-2)"></path>
                    <path d="M889.227928,173.856577 C895.476577,153.348468 889.388288,133.325045 875.627928,129.134054 C874.597297,128.820541 873.548649,128.616937 872.494595,128.492613 C869.375676,106.807928 858.712613,89.307027 844.804505,82.3664865 C881.654955,165.061982 814.053153,196.555676 779.856757,187.272793 C787.736036,199.75027 799.636937,206.604324 810.090991,203.384505 C812.406306,202.670991 814.496396,201.49982 816.354054,199.961081 C821.04955,202.672793 826.15045,204.175495 831.489189,204.175495 C836.842342,204.175495 841.955856,202.663784 846.662162,199.941261 C848.53964,201.501622 850.656757,202.685405 853.004505,203.400721 C866.763063,207.593514 882.979279,194.364685 889.227928,173.856577" id="Fill-49" fill="#5A9B5A" mask="url(#mask-2)"></path>
                    <path d="M482.634775,364.886306 L895.822162,364.886306 L895.822162,335.369189 C828.222162,325.626847 658.366306,343.970991 482.634775,364.886306" id="Fill-50" fill="#427C42" mask="url(#mask-2)"></path>
                </g>
                <g id="Group-64" transform="translate(30.630631, 0.628829)">
                    <mask id="mask-4" fill="white">
                        <use xlink:href="#path-3"></use>
                    </mask>
                    <g id="Clip-57"></g>
                    <path d="M863.37982,310.267387 C853.192432,292.204324 828.698739,279.470991 800.087928,279.470991 C769.122162,279.470991 742.978018,294.386306 734.574414,314.833153 C715.839279,318.116036 702.060901,328.977297 702.060901,341.901622 C702.060901,357.425946 721.90955,370.011532 746.396036,370.011532 C750.938378,370.011532 755.316757,369.575495 759.441081,368.771892 C770.801441,374.865586 784.860901,378.472793 800.087928,378.472793 C818.235676,378.472793 834.722162,373.341261 846.96,364.986306 C851.32036,365.896216 855.969009,366.402523 860.808649,366.402523 C885.295135,366.402523 905.143784,353.818739 905.143784,338.294414 C905.143784,323.31964 886.662703,311.116036 863.37982,310.267387" id="Fill-61" fill="#427C42" mask="url(#mask-4)"></path>
                    <path d="M905.143243,338.293874 C905.143243,323.319099 886.662162,311.115495 863.379279,310.266847 C858.999099,302.501081 851.968468,295.724505 843.107207,290.515495 C843.101802,290.56955 843.090991,290.618198 843.083784,290.668649 C837.202703,337.713694 759.451351,352.086667 702.40991,338.365946 C702.181081,339.524505 702.06036,340.702883 702.06036,341.901081 C702.06036,357.425405 721.910811,370.012793 746.395495,370.012793 C750.937838,370.012793 755.318018,369.574955 759.442342,368.771351 C770.800901,374.865045 784.86036,378.472252 800.087387,378.472252 C818.236937,378.472252 834.721622,373.340721 846.959459,364.985766 C851.31982,365.895676 855.968468,366.403784 860.80991,366.403784 C885.294595,366.403784 905.143243,353.818198 905.143243,338.293874" id="Fill-62" fill="#5A9B5A" mask="url(#mask-4)"></path>
                </g>
                <g id="Group-95" transform="translate(149.549550, 31.259459)">
                    <polygon id="Fill-65" fill="#5E4F3A" points="486.443243 322.371171 504.138739 322.371171 504.138739 294.441441 486.443243 294.441441"></polygon>
                    <polygon id="Fill-67" fill="#77674D" points="486.443243 313.468468 504.138739 313.468468 504.138739 308.407207 486.443243 308.407207"></polygon>
                    <polygon id="Fill-68" fill="#427C42" points="514.965045 255.988108 529.701982 264.438559 514.619099 212.55027 509.083964 203.716036 512.646126 205.759279 492.674955 143.555676 478.393874 198.707027 486.442523 194.090811 474.763243 212.73045 463.523604 256.134054 480.561441 246.361081 449.986667 308.407928 540.592072 308.407928"></polygon>
                    <path d="M514.965045,255.988108 L529.701982,264.438559 L514.619099,212.55027 L509.083964,203.716036 L512.646126,205.759279 L492.674955,143.555676 C516.633514,278.577297 480.478559,297.325045 449.986667,308.407928 L540.592072,308.407928 L514.965045,255.988108 Z" id="Fill-69" fill="#5A9B5A"></path>
                    <path d="M663.927027,32.6913514 C659.910811,22.9886486 645.555856,15.8102703 628.458559,15.8102703 C625.363063,15.8102703 622.355856,16.0481081 619.481982,16.4913514 C614.997297,12.0535135 609.026126,8.09315315 602.027928,5.22648649 C583.325225,-2.42756757 564.364865,0.646306306 559.68018,12.094955 C559.184685,13.3003604 558.88018,14.5544144 558.732432,15.8372973 C542.391892,16.2931532 528.84955,23.312973 524.968468,32.6913514 L663.927027,32.6913514 Z" id="Fill-70" fill="#FCFBE0"></path>
                    <polygon id="Fill-77" fill="#917E63" points="289.279279 235.659459 300.52973 235.659459 300.52973 217.904505 289.279279 217.904505"></polygon>
                    <polygon id="Fill-78" fill="#77674D" points="289.279279 230 300.52973 230 300.52973 226.781982 289.279279 226.781982"></polygon>
                    <polygon id="Fill-79" fill="#6FB56F" points="307.412973 193.458198 316.780541 198.829369 307.191351 165.843784 303.676036 160.229369 305.937297 161.526667 293.243604 121.982523 284.164324 157.043784 289.27964 154.108649 281.854414 165.957297 274.712072 193.551892 285.540901 187.339279 266.104865 226.780721 323.703063 226.780721"></polygon>
                    <path d="M307.412973,193.458198 L316.780541,198.829369 L307.191351,165.843784 L303.676036,160.229369 L305.937297,161.526667 L293.243604,121.982523 C308.472432,207.818559 285.488649,219.737477 266.104865,226.780721 L323.703063,226.780721 L307.412973,193.458198 Z" id="Fill-80" fill="#93D893"></path>
                    <path d="M169.687748,92.1227027 C148.570631,92.1227027 129.783243,148.328108 129.783243,180.447027 C129.783243,212.564144 139.176036,211.360541 169.687748,211.360541 C200.201261,211.360541 209.594054,212.564144 209.594054,180.447027 C209.594054,148.328108 190.808468,92.1227027 169.687748,92.1227027" id="Fill-85" fill="#5A9B5A"></path>
                    <path d="M171.843243,92.3232432 C201.308108,121.777297 184.933333,203.37009 131.569369,198.249369 C135.504505,212.04036 146.486486,211.359279 169.688288,211.359279 C200.2,211.359279 209.594595,212.562883 209.594595,180.445766 C209.594595,149.424144 192.07027,95.9394595 171.843243,92.3232432" id="Fill-86" fill="#5A9B5A"></path>
                    <polygon id="Fill-87" fill="#A58763" points="453.728468 186.578198 451.829369 188.524144 439.741081 176.715135 441.643784 174.769189"></polygon>
                    <polygon id="Fill-88" fill="#A58763" points="455.215315 183.391532 457.116216 185.337477 469.204505 173.528468 467.301802 171.582523"></polygon>
                    <polygon id="Fill-89" fill="#A58763" points="449.987387 208.684685 457.47027 208.684685 457.47027 172.118919 449.987387 172.118919"></polygon>
                    <polygon id="Fill-90" fill="#77674D" points="453.728468 172.11982 453.728468 205.359459 449.987928 205.359459 449.987928 208.685586 457.470811 208.685586 457.470811 172.11982"></polygon>
                    <path d="M453.728468,95.0030631 C439.148288,95.0030631 426.180721,133.803063 426.180721,155.976036 C426.180721,178.147207 432.667207,177.318378 453.728468,177.318378 C474.791532,177.318378 481.278018,178.147207 481.278018,155.976036 C481.278018,133.803063 468.308649,95.0030631 453.728468,95.0030631" id="Fill-91" fill="#B5F4B5"></path>
                    <path d="M455.215315,95.1403604 C475.557658,115.473694 464.253153,171.801622 427.413514,168.266486 C430.128829,177.787207 437.709009,177.316937 453.728829,177.316937 C474.791892,177.316937 481.278378,178.147568 481.278378,155.976396 C481.278378,134.561982 469.179279,97.6376577 455.215315,95.1403604" id="Fill-92" fill="#5A9B5A"></path>
                </g>
            </g>
        </g>
    </g>
</svg>