<?xml version="1.0" encoding="UTF-8"?>
<svg width="120px" height="120px" viewBox="0 0 120 120" version="1.1" xmlns="http://www.w3.org/2000/svg" xmlns:xlink="http://www.w3.org/1999/xlink">
    <!-- Generator: Sketch 51.1 (57501) - http://www.bohemiancoding.com/sketch -->
    <title>Meat20</title>
    <desc>Created with Sketch.</desc>
    <defs>
        <polygon id="path-1" points="0 0.236142857 118.974828 0.236142857 118.974828 55.9285714 0 55.9285714"></polygon>
        <polygon id="path-3" points="0.0132413793 0.538885868 118.977931 0.538885868 118.977931 16.756101 0.0132413793 16.756101"></polygon>
        <polygon id="path-5" points="0.0132413793 0.327611845 118.977931 0.327611845 118.977931 16.5456439 0.0132413793 16.5456439"></polygon>
        <polygon id="path-7" points="0.0132413793 1.16940907 118.977931 1.16940907 118.977931 13.7875367 0.0132413793 13.7875367"></polygon>
        <polygon id="path-9" points="0.0132413793 0.0114922885 118.977931 0.0114922885 118.977931 12.6304175 0.0132413793 12.6304175"></polygon>
        <polygon id="path-11" points="0.0132413793 1.9847547 118.977931 1.9847547 118.977931 14.6047153 0.0132413793 14.6047153"></polygon>
        <polygon id="path-13" points="0.0132413793 0.657383331 118.977931 0.657383331 118.977931 16.8743796 0.0132413793 16.8743796"></polygon>
        <polygon id="path-15" points="0 0.236142857 118.975034 0.236142857 118.975034 51.1352857 0 51.1352857"></polygon>
        <polygon id="path-17" points="0.0132413793 0.539487643 118.977931 0.539487643 118.977931 11.9645714 0.0132413793 11.9645714"></polygon>
        <polygon id="path-19" points="1.19337931 0.341205943 32.0813793 0.341205943 32.0813793 11.7534929 1.19337931 11.7534929"></polygon>
        <polygon id="path-21" points="0.754758621 1.21033571 23.8055172 1.21033571 23.8055172 8.99683571 0.754758621 8.99683571"></polygon>
        <polygon id="path-23" points="0.0132413793 1.98496184 118.977931 1.98496184 118.977931 13.3724934 0.0132413793 13.3724934"></polygon>
        <polygon id="path-25" points="0.718551724 1.13245 17.5986207 1.13245 17.5986207 12.0840929 0.718551724 12.0840929"></polygon>
    </defs>
    <g id="Meat20" stroke="none" stroke-width="1" fill="none" fill-rule="evenodd">
        <g id="Page-1" transform="translate(0.000000, 32.000000)">
            <g id="Group-3" transform="translate(0.000000, 0.835907)">
                <mask id="mask-2" fill="white">
                    <use xlink:href="#path-1"></use>
                </mask>
                <g id="Clip-2"></g>
                <path d="M118.974828,51.1348714 C79.3168966,34.5406571 39.6568966,67.7353 -0.00103448276,51.1369429 L-0.00103448276,5.02694286 C39.6568966,21.6253 79.3168966,-11.5693429 118.974828,5.02487143 L118.974828,51.1348714 Z" id="Fill-1" fill="#DC5B56" mask="url(#mask-2)"></path>
            </g>
            <g id="Group-6" transform="translate(0.000000, 4.978764)">
                <mask id="mask-4" fill="white">
                    <use xlink:href="#path-3"></use>
                </mask>
                <g id="Clip-5"></g>
                <path d="M118.978759,11.9649857 C79.3228966,-4.63337143 39.6670345,28.5571286 0.0132413793,11.9691286 L0.0132413793,5.33641429 C39.6670345,21.9223429 79.3228966,-11.2660857 118.978759,5.3302 L118.978759,11.9649857 Z" id="Fill-4" fill="#F4BEBD" mask="url(#mask-4)"></path>
            </g>
            <g id="Group-9" transform="translate(0.000000, 15.335907)">
                <mask id="mask-6" fill="white">
                    <use xlink:href="#path-5"></use>
                </mask>
                <g id="Clip-8"></g>
                <path d="M118.978759,11.7545286 C79.3228966,-4.84382857 39.6670345,28.3466714 0.0132413793,11.7586714 L0.0132413793,5.12595714 C39.6670345,21.7118857 79.3228966,-11.4786143 118.978759,5.11974286 L118.978759,11.7545286 Z" id="Fill-7" fill="#F4BEBD" mask="url(#mask-6)"></path>
            </g>
            <g id="Group-12" transform="translate(0.000000, 19.478764)">
                <mask id="mask-8" fill="white">
                    <use xlink:href="#path-7"></use>
                </mask>
                <g id="Clip-11"></g>
                <path d="M118.978759,8.99642143 C79.3228966,-7.60193571 39.6670345,25.5885643 0.0132413793,9.00056429 L0.0132413793,5.96592143 C39.6670345,22.55185 79.3228966,-10.6365786 118.978759,5.96177857 L118.978759,8.99642143 Z" id="Fill-10" fill="#FFFFFF" mask="url(#mask-8)"></path>
            </g>
            <g id="Group-15" transform="translate(0.000000, 38.121621)">
                <mask id="mask-10" fill="white">
                    <use xlink:href="#path-9"></use>
                </mask>
                <g id="Clip-14"></g>
                <path d="M118.978759,7.83828571 C79.3228966,-8.76007143 39.6670345,24.4304286 0.0132413793,7.8445 L0.0132413793,4.80778571 C39.6670345,21.3957857 79.3228966,-11.7947143 118.978759,4.80364286 L118.978759,7.83828571 Z" id="Fill-13" fill="#FFFFFF" mask="url(#mask-10)"></path>
            </g>
            <g id="Group-18" transform="translate(0.000000, 2.907336)">
                <mask id="mask-12" fill="white">
                    <use xlink:href="#path-11"></use>
                </mask>
                <g id="Clip-17"></g>
                <path d="M118.978759,9.8136 C79.3228966,-6.78475714 39.6670345,26.4057429 0.0132413793,9.81774286 L0.0132413793,6.7831 C39.6670345,23.3690286 79.3228966,-9.82147143 118.978759,6.77688571 L118.978759,9.8136 Z" id="Fill-16" fill="#FFFFFF" mask="url(#mask-12)"></path>
            </g>
            <g id="Group-21" transform="translate(0.000000, 29.835907)">
                <mask id="mask-14" fill="white">
                    <use xlink:href="#path-13"></use>
                </mask>
                <g id="Clip-20"></g>
                <path d="M118.978759,12.0832643 C79.3228966,-4.51509286 39.6670345,28.6754071 0.0132413793,12.0874071 L0.0132413793,5.45469286 C39.6670345,22.0426929 79.3228966,-11.1478071 118.978759,5.44847857 L118.978759,12.0832643 Z" id="Fill-19" fill="#F4BEBD" mask="url(#mask-14)"></path>
            </g>
            <g id="Group-42" transform="translate(0.000000, 0.835907)">
                <g id="Group-24">
                    <mask id="mask-16" fill="white">
                        <use xlink:href="#path-15"></use>
                    </mask>
                    <g id="Clip-23"></g>
                    <path d="M-0.000827586207,5.02735714 L-0.000827586207,12.3726429 C18.266069,14.7092143 36.3198621,16.4388571 54.7377931,14.8024286 C66.981931,13.7149286 81.1212414,10.208 92.3702069,17.1410714 C104.392966,24.5485 105.646759,39.4379286 96.9426207,46.4124286 C104.285379,46.7024286 111.630207,48.0612857 118.975034,51.1352857 L118.975034,5.02528571 C79.3171034,-11.5689286 39.6571034,21.6257143 -0.000827586207,5.02735714" id="Fill-22" fill="#DC5B56" mask="url(#mask-16)"></path>
                </g>
                <g id="Group-27" transform="translate(0.000000, 4.142857)">
                    <mask id="mask-18" fill="white">
                        <use xlink:href="#path-17"></use>
                    </mask>
                    <g id="Clip-26"></g>
                    <path d="M0.0132413793,5.336 L0.0132413793,8.22978571 C18.273931,10.5663571 36.3235862,12.296 54.7373793,10.6595714 C61.4511724,10.063 68.736,8.74764286 75.7994483,8.81807143 C90.1932414,6.48564286 104.584966,5.94085714 118.978759,11.9645714 L118.978759,5.33185714 C79.3228966,-11.2665 39.6670345,21.9219286 0.0132413793,5.336" id="Fill-25" fill="#F4BEBD" mask="url(#mask-18)"></path>
                </g>
                <g id="Group-30" transform="translate(86.896552, 14.500000)">
                    <mask id="mask-20" fill="white">
                        <use xlink:href="#path-19"></use>
                    </mask>
                    <g id="Clip-29"></g>
                    <path d="M1.19337931,0.532564286 C2.6582069,1.09392143 4.08786207,1.78577857 5.47406897,2.64127857 C7.54510345,3.91727857 9.27268966,5.42735 10.7106207,7.06999286 C17.834069,7.41592143 24.9575172,8.77270714 32.0830345,11.7534929 L32.0830345,5.11870714 C21.7857931,0.810135714 11.4906207,-0.128221429 1.19337931,0.532564286" id="Fill-28" fill="#F4BEBD" mask="url(#mask-20)"></path>
                </g>
                <g id="Group-33" transform="translate(95.172414, 18.642857)">
                    <mask id="mask-22" fill="white">
                        <use xlink:href="#path-21"></use>
                    </mask>
                    <g id="Clip-32"></g>
                    <path d="M0.754758621,1.21033571 C1.83475862,2.20255 2.7782069,3.26726429 3.59131034,4.38376429 C10.329931,4.81669286 17.0685517,6.17555 23.8071724,8.99683571 L23.8071724,5.96012143 C16.1230345,2.74526429 8.43889655,1.41126429 0.754758621,1.21033571" id="Fill-31" fill="#FFFFFF" mask="url(#mask-22)"></path>
                </g>
                <path d="M102.204828,37.7838929 C101.989655,38.79475 101.675172,39.7703929 101.269655,40.7128929 C107.172414,41.3053214 113.075172,42.6538214 118.977931,45.1229643 L118.977931,42.0883214 C113.387586,39.7476071 107.795172,38.4239643 102.204828,37.7838929" id="Fill-34" fill="#FFFFFF"></path>
                <g id="Group-38" transform="translate(0.000000, 2.071429)">
                    <mask id="mask-24" fill="white">
                        <use xlink:href="#path-23"></use>
                    </mask>
                    <g id="Clip-37"></g>
                    <path d="M0.0132413793,6.78330714 L0.0132413793,9.81795 C0.644275862,10.0830929 1.27324138,10.2985214 1.90427586,10.5367357 C14.8166897,12.1586643 27.638069,13.4305214 40.5628966,13.37045 C66.7001379,9.56109286 92.8394483,-1.12747857 118.978759,9.81380714 L118.978759,6.77709286 C79.3228966,-9.82126429 39.6670345,23.3692357 0.0132413793,6.78330714" id="Fill-36" fill="#FFFFFF" mask="url(#mask-24)"></path>
                </g>
                <g id="Group-41" transform="translate(101.379310, 29.000000)">
                    <mask id="mask-26" fill="white">
                        <use xlink:href="#path-25"></use>
                    </mask>
                    <g id="Clip-40"></g>
                    <path d="M0.718551724,1.13245 C1.24613793,3.37373571 1.32682759,5.63573571 1.002,7.80037857 C6.53648276,8.44666429 12.0668276,9.76823571 17.5992414,12.0840929 L17.5992414,5.44930714 C11.9716552,3.09409286 6.34613793,1.76837857 0.718551724,1.13245" id="Fill-39" fill="#F4BEBD" mask="url(#mask-26)"></path>
                </g>
            </g>
        </g>
    </g>
</svg>