<?xml version="1.0" encoding="UTF-8"?>
<svg width="120px" height="120px" viewBox="0 0 120 120" version="1.1" xmlns="http://www.w3.org/2000/svg" xmlns:xlink="http://www.w3.org/1999/xlink">
    <!-- Generator: Sketch 51.1 (57501) - http://www.bohemiancoding.com/sketch -->
    <title>Boy10</title>
    <desc>Created with Sketch.</desc>
    <defs>
        <polygon id="path-1" points="0.199373684 0.299053333 13.3734789 0.299053333 13.3734789 5.86666667 0.199373684 5.86666667"></polygon>
    </defs>
    <g id="Boy10" stroke="none" stroke-width="1" fill="none" fill-rule="evenodd">
        <g id="Group-108" transform="translate(31.000000, 1.000000)">
            <path d="M5.71155556,81.2386667 C9.28488889,81.2386667 9.92488889,84.1497778 9.92488889,87.7253333 L9.92266667,95.2453333 L8.396,95.2453333 L8.396,87.7253333 C8.396,84.992 8.44266667,82.7697778 5.71155556,82.7697778 C2.97822222,82.7697778 2.91822222,84.9942222 2.16711111,87.7142222 C1.95822222,88.4808889 1.20711111,88.8675556 0.640444444,87.7142222 C-0.655111111,85.0764444 2.13377778,81.2386667 5.71155556,81.2386667" id="Fill-155" fill="#EEAC6C"></path>
            <path d="M9.18177778,117.640667 L4.59955556,90.8873333 C6.99733333,93.1473333 9.18177778,90.8873333 9.18177778,90.8873333 C9.18177778,90.8873333 11.3995556,93.4273333 13.764,90.8873333 L9.18177778,117.640667 Z" id="Fill-157" fill="#2E6684"></path>
            <path d="M17.1004444,112.284667 C15.4204444,113.324667 14.196,115.438 15.6382222,117.166889 C16.7271111,118.384667 18.3293333,117.420222 19.5471111,116.904667 C20.8915556,116.264667 22.4293333,115.813556 23.6471111,114.982444 C24.4337778,114.431333 25.3582222,113.842444 25.8893333,113.022444 C26.0537778,112.769111 26.1315556,112.529111 26.0715556,112.284667 L17.1004444,112.284667 Z" id="Fill-159" fill="#343434"></path>
            <path d="M36.2671111,112.284667 C37.9515556,113.324667 39.1715556,115.438 37.7315556,117.166889 C36.6426667,118.384667 35.0404444,117.420222 33.8226667,116.904667 C32.476,116.264667 30.9382222,115.813556 29.7226667,114.982444 C28.9337778,114.431333 28.0115556,113.842444 27.4804444,113.022444 C27.316,112.769111 27.2382222,112.529111 27.296,112.284667 L36.2671111,112.284667 Z" id="Fill-161" fill="#343434"></path>
            <path d="M26.5971111,85.5551111 C26.5971111,85.5551111 25.7571111,89.4417778 22.2104444,89.8084444 L30.6615556,89.8084444 C27.5348889,89.3817778 26.5971111,85.5551111 26.5971111,85.5551111" id="Fill-163" fill="#FFFFFF"></path>
            <polygon id="Fill-165" fill="#4F4F4F" points="29.6764444 87.8553333 26.6831111 87.8553333 23.9364444 87.8553333 15.0786667 87.8553333 16.912 112.284222 26.1964444 112.284222 26.5497778 94.5708889 26.8186667 94.5708889 27.172 112.284222 36.4564444 112.284222 38.2897778 87.8553333"></polygon>
            <path d="M4.91511111,81.9222222 C5.14622222,79.7222222 6.57955556,78.0711111 8.10844444,78.2311111 C8.93288889,78.32 9.61511111,78.9133333 10.0373333,79.7822222 C10.4395556,80.1777778 10.8328889,80.7044444 11.164,81.3222222 C12.024,82.9511111 12.1128889,84.5911111 11.3617778,84.9888889 C10.9617778,85.2022222 10.3995556,85.0155556 9.83288889,84.5488889 C9.22177778,85.6355556 8.26622222,86.3044444 7.26844444,86.1977778 C5.73733333,86.0355556 4.684,84.12 4.91511111,81.9222222" id="Fill-167" fill="#FDDFBB"></path>
            <path d="M51.4408889,47.3542222 C51.9808889,47.2497778 52.5653333,47.6631111 53.0608889,48.4053333 C54.1475556,47.3586667 55.492,46.9208889 56.6142222,47.3964444 C58.3342222,48.1253333 58.8808889,50.7164444 57.8342222,53.1831111 C56.7875556,55.652 54.5475556,57.0631111 52.8275556,56.3364444 C51.9053333,55.9431111 51.3186667,55.0164444 51.1386667,53.8586667 C50.812,53.2586667 50.5408889,52.5075556 50.3764444,51.6742222 C49.952,49.4853333 50.4275556,47.552 51.4408889,47.3542222" id="Fill-169" fill="#FDDFBB"></path>
            <path d="M51.2542222,54.6588889 L46.2008889,60.7277778 L35.332,56.7788889 C35.332,56.7788889 35.3342222,56.7855556 35.3431111,56.7966667 C33.4631111,55.5522222 28.4342222,55.3677778 28.4342222,55.3677778 L26.7964444,55.4233333 L26.6608889,55.4233333 L25.0186667,55.3522222 C25.0186667,55.3522222 20.0964444,55.57 18.172,56.7855556 L18.172,56.7788889 C18.172,56.7788889 12.1608889,59.9277778 10.4942222,62.0566667 C7.06977778,66.4322222 5.75644444,79.59 5.75644444,79.59 L10.2164444,79.5855556 C10.2164444,79.5855556 11.4231111,70.0811111 13.012,67.8344444 C13.5875556,67.0188889 13.9408889,66.4655556 14.1586667,66.0322222 C12.1275556,75.3811111 11.8742222,87.9055556 11.8742222,87.9055556 L11.8408889,89.8077778 L22.212,89.8077778 C25.7564444,89.4411111 26.5964444,85.5544444 26.5964444,85.5544444 C26.5964444,85.5544444 27.5342222,89.3811111 30.6608889,89.8077778 L41.6497778,89.8077778 L41.5853333,87.9144444 L41.5786667,87.9144444 C41.5786667,87.9144444 41.2942222,73.6677778 38.8697778,64.2122222 C40.2875556,64.77 46.8008889,67.2388889 48.8053333,66.5122222 C51.5964444,65.5011111 55.7142222,56.8566667 55.7142222,56.8566667 L51.2542222,54.6588889 Z" id="Fill-171" fill="#343434"></path>
            <path d="M27.2524444,72.5602222 L29.1924444,68.1824444 L31.5524444,55.6624444 C29.9035556,55.4135556 28.4346667,55.3691111 28.4346667,55.3691111 L26.7968889,55.4224444 L26.6591111,55.4224444 L25.0191111,55.3535556 C25.0191111,55.3535556 23.6991111,55.4068889 22.1613333,55.6335556 L24.2568889,68.1846667 L26.0546667,72.2802222 L26.7568889,73.2935556 L27.2524444,72.5602222 Z" id="Fill-173" fill="#FFFFFF"></path>
            <path d="M28.7844444,64.6457778 C28.7622222,63.2435556 27.7844444,59.128 27.7844444,59.128 C28.22,58.768 28.5955556,57.0146667 28.5955556,57.0146667 L26.76,55.4235556 L24.7333333,57.0146667 C24.7333333,57.0146667 25.1288889,58.8102222 25.6044444,59.128 C25.6044444,59.128 24.7377778,63.2546667 24.7333333,64.6524444 C24.7266667,66.1191111 25.6044444,70.4546667 25.6044444,70.4546667 L26.7577778,73.2635556 L27.8888889,70.5835556 C27.8888889,70.5835556 28.8066667,66.148 28.7844444,64.6457778" id="Fill-175" fill="#0771B7"></path>
            <path d="M26.736,55.4835556 L26.6604444,55.4835556 L25.0204444,55.3835556 C25.0204444,55.3835556 23.1671111,55.4457778 21.2893333,55.7924444 C21.2404444,56.4235556 21.2448889,57.0902222 21.4026667,57.7168889 C21.536,58.2035556 21.7826667,58.308 22.0537778,58.6591111 C22.296,59.0102222 22.1604444,59.2502222 22.6471111,59.3302222 C22.9448889,59.3857778 23.1871111,59.2768889 23.4048889,59.088 L23.4293333,59.1324444 C23.4293333,59.1324444 26.736,56.7035556 26.736,55.4835556" id="Fill-177" fill="#FFFFFF"></path>
            <path d="M21.3193333,55.8046667 C21.2615556,56.5513333 21.2993333,57.1713333 21.4326667,57.7024444 C21.526,58.0335556 21.6682222,58.1868889 21.8371111,58.3624444 C21.9148889,58.4424444 21.9948889,58.5291111 22.0771111,58.6357778 C22.1593333,58.758 22.1993333,58.8624444 22.2348889,58.9557778 C22.3015556,59.138 22.3437778,59.2491111 22.6526667,59.3002222 C22.9126667,59.3491111 23.146,59.2713333 23.386,59.0646667 L23.4037778,59.0468889 L23.4282222,59.078 C23.6948889,58.878 26.6504444,56.6446667 26.7037778,55.4824444 L26.6593333,55.4824444 L25.0171111,55.3957778 C25.0015556,55.398 23.1637778,55.4691111 21.3193333,55.8046667 M22.7971111,59.3735556 C22.7482222,59.3735556 22.6926667,59.3691111 22.6415556,59.3602222 C22.2971111,59.3024444 22.2437778,59.1602222 22.1771111,58.978 C22.1437778,58.8891111 22.106,58.7868889 22.026,58.6713333 C21.946,58.5668889 21.8682222,58.4846667 21.7926667,58.4068889 C21.6193333,58.2224444 21.4682222,58.0646667 21.3726667,57.718 C21.2371111,57.1735556 21.1993333,56.5402222 21.2593333,55.7757778 L21.2615556,55.7535556 L21.2815556,55.7513333 C23.1393333,55.4068889 24.9993333,55.338 25.0193333,55.338 L26.6593333,55.4224444 L26.7482222,55.4224444 L26.7482222,55.4335556 C26.7482222,56.6557778 23.5748889,59.0291111 23.4393333,59.1291111 L23.4237778,59.1446667 L23.4015556,59.1246667 C23.206,59.2935556 23.0104444,59.3735556 22.7971111,59.3735556" id="Fill-179" fill="#666767"></path>
            <path d="M31.7924444,57.9226667 C32.0146667,57.3271111 32.2835556,56.416 32.0791111,55.7471111 C30.2302222,55.4271111 28.4346667,55.3982222 28.4346667,55.3982222 L26.7968889,55.4826667 L26.788,55.4826667 C26.788,56.7026667 30.0946667,59.1315556 30.0946667,59.1315556 L30.1702222,59.1048889 C31.0057778,59.1048889 31.4946667,58.7337778 31.7924444,57.9226667" id="Fill-181" fill="#FFFFFF"></path>
            <path d="M26.8184444,55.4617778 C26.8695556,56.6284444 29.9006667,58.9217778 30.1028889,59.0728889 L30.1628889,59.064 C30.9895556,59.0617778 31.4673333,58.7173333 31.7628889,57.9128889 C32.1051111,57.0017778 32.2028889,56.2817778 32.0517778,55.7773333 C30.2362222,55.4595556 28.4517778,55.404 28.4362222,55.404 L26.8184444,55.4617778 Z M30.0873333,59.1373333 L30.0717778,59.1284444 C29.9362222,59.0284444 26.7495556,56.6551111 26.7495556,55.4328889 L26.7495556,55.4217778 L26.7962222,55.4217778 L28.4362222,55.3528889 C28.454,55.3528889 30.2562222,55.4062222 32.0828889,55.724 L32.1006667,55.724 L32.1051111,55.7395556 C32.2651111,56.2617778 32.1695556,56.9995556 31.8206667,57.9328889 C31.5162222,58.7573333 31.0095556,59.124 30.1695556,59.124 L30.0873333,59.1373333 Z" id="Fill-183" fill="#666767"></path>
            <path d="M26.7771111,73.3046667 C26.7771111,73.3046667 23.6971111,60.6491111 22.7748889,55.5446667 C21.5771111,55.6935556 20.1304444,55.9468889 19.0437778,56.3602222 L19.546,59.4757778 L21.6037778,60.0002222 L20.5571111,62.018 C20.5571111,62.018 22.9104444,70.7646667 26.7771111,73.3046667" id="Fill-185" fill="#4F4F4F"></path>
            <path d="M26.738,73.3046667 C26.738,73.3046667 29.8157778,60.6491111 30.7402222,55.5446667 C31.938,55.6935556 33.3824444,55.9468889 34.4713333,56.3602222 L33.9691111,59.4757778 L31.9113333,60.0002222 L32.958,62.018 C32.958,62.018 30.6046667,70.7646667 26.738,73.3046667" id="Fill-187" fill="#4F4F4F"></path>
            <path d="M27.4433333,76.2842222 C27.4433333,76.6086667 27.1788889,76.8731111 26.8522222,76.8731111 C26.5277778,76.8731111 26.2633333,76.6086667 26.2633333,76.2842222 C26.2633333,75.9575556 26.5277778,75.6908889 26.8522222,75.6908889 C27.1788889,75.6908889 27.4433333,75.9575556 27.4433333,76.2842222" id="Fill-189" fill="#4F4F4F"></path>
            <path d="M27.4433333,78.908 C27.4433333,79.2346667 27.1788889,79.5013333 26.8522222,79.5013333 C26.5277778,79.5013333 26.2633333,79.2346667 26.2633333,78.908 C26.2633333,78.5835556 26.5277778,78.3191111 26.8522222,78.3191111 C27.1788889,78.3191111 27.4433333,78.5835556 27.4433333,78.908" id="Fill-191" fill="#4F4F4F"></path>
            <path d="M27.4433333,81.5966667 C27.4433333,81.9211111 27.1788889,82.1877778 26.8522222,82.1877778 C26.5277778,82.1877778 26.2633333,81.9211111 26.2633333,81.5966667 C26.2633333,81.2722222 26.5277778,81.0033333 26.8522222,81.0033333 C27.1788889,81.0033333 27.4433333,81.2722222 27.4433333,81.5966667" id="Fill-193" fill="#4F4F4F"></path>
            <path d="M47.7666667,36.0628889 C47.9244444,35.0184444 48.0066667,33.9473333 48.0066667,32.8584444 C48.0066667,21.0895556 38.4666667,11.5517778 26.7,11.5517778 C14.9333333,11.5517778 5.39333333,21.0895556 5.39333333,32.8584444 C5.39333333,33.894 5.46666667,34.914 5.60888889,35.914 C4.37777778,36.5851111 3.54888889,37.8584444 3.54888889,39.3184444 C3.54888889,41.4806667 5.36888889,43.2317778 7.61777778,43.2317778 C7.76888889,43.2317778 7.92,43.2228889 8.06888889,43.2051111 C11.7066667,49.7428889 18.6866667,54.1651111 26.7,54.1651111 C34.7022222,54.1651111 41.6755556,49.7517778 45.3155556,43.2273333 C45.3822222,43.2295556 45.4422222,43.2317778 45.5044444,43.2317778 C47.7533333,43.2317778 49.5733333,41.4806667 49.5733333,39.3184444 C49.5733333,37.9606667 48.8555556,36.7651111 47.7666667,36.0628889" id="Fill-195" fill="#FDDFBB"></path>
            <g id="Page-1" transform="translate(14.000000, 29.000000)">
                <path d="M6.22875275,3.09640088 C5.45712117,2.92235643 5.3211738,1.89471199 2.8433317,2.35573421 C2.06412117,2.53613421 0.42612117,3.51195643 0.110647486,4.16364532 C-0.205299883,4.8158231 0.0234895909,1.77248977 2.56764749,0.641689768 C4.4031738,-0.0329768984 5.02512117,0.000267546019 6.54470012,0.000267546019 C8.06427906,0.000267546019 8.53227906,0.907156435 8.31106854,1.65026755 C8.31106854,1.65026755 7.80801591,3.45328977 6.22875275,3.09640088 Z" id="Fill-1" fill="#BE5916"></path>
                <path d="M20.1341558,3.09640088 C20.9057873,2.92235643 21.0417347,1.89471199 23.5195768,2.35573421 C24.2987873,2.53613421 25.9367873,3.51195643 26.252261,4.16364532 C26.5682084,4.8158231 26.3394189,1.77248977 23.795261,0.641689768 C21.9597347,-0.0329768984 21.3377873,0.000267546019 19.8182084,0.000267546019 C18.2986294,0.000267546019 17.8306294,0.907156435 18.05184,1.65026755 C18.05184,1.65026755 18.5548926,3.45328977 20.1341558,3.09640088 Z" id="Fill-3" fill="#BE5916"></path>
                <path d="M6,9 C6,10.6568785 5.10453816,12 3.99983098,12 C2.89512381,12 2,10.6568785 2,9 C2,7.34312148 2.89512381,6 3.99983098,6 C5.10453816,6 6,7.34312148 6,9" id="Fill-5" fill="#6172BB"></path>
                <path d="M24,9 C24,10.6568785 23.1048762,12 22.000169,12 C20.8951238,12 20,10.6568785 20,9 C20,7.34312148 20.8951238,6 22.000169,6 C23.1048762,6 24,7.34312148 24,9" id="Fill-7" fill="#6172BB"></path>
                <path d="M13.0197368,12.0692 C13.8586316,11.9552889 15.9802632,13.8262667 15.9802632,13.8262667 C15.9802632,13.8262667 16.0825789,13.4116889 15.6396842,12.5884 C15.1626842,11.7025333 12.9903684,11 12.9903684,11 C12.9903684,11 11.3026316,11.4478222 10.5030526,12.6040444 C10.207,12.8939556 10,13.9025333 10,13.9025333 C10,13.9025333 11.8947368,12.2217333 13.0197368,12.0692 Z" id="Fill-9" fill="#EEAC6C"></path>
                <g id="Group-13" transform="translate(6.000000, 15.000000)">
                    <mask id="mask-2" fill="white">
                        <use xlink:href="#path-1"></use>
                    </mask>
                    <g id="Clip-12"></g>
                    <path d="M0.199373684,0.696031111 C0.199373684,0.696031111 7.09763684,3.90412 13.3734789,0.299053333 C13.3734789,0.299053333 11.9822684,5.76825333 7.42305789,5.86016444 C3.30768947,5.98238667 2.43942632,4.36807556 1.94632105,3.90412 C1.45274211,3.44114222 0.524794737,2.13238667 0.199373684,0.696031111" id="Fill-11" fill="#EEAC6C" mask="url(#mask-2)"></path>
                </g>
            </g>
            <path d="M12.9122222,44.088 C12.9122222,44.3502222 12.6988889,44.5635556 12.4388889,44.5635556 C12.1788889,44.5635556 11.9677778,44.3502222 11.9677778,44.088 C11.9677778,43.828 12.1788889,43.6146667 12.4388889,43.6146667 C12.6988889,43.6146667 12.9122222,43.828 12.9122222,44.088" id="Fill-197" fill="#EEAC6C"></path>
            <path d="M14.9282222,43.5997778 C14.9282222,43.862 14.7148889,44.0731111 14.4548889,44.0731111 C14.1948889,44.0731111 13.9815556,43.862 13.9815556,43.5997778 C13.9815556,43.3397778 14.1948889,43.1264444 14.4548889,43.1264444 C14.7148889,43.1264444 14.9282222,43.3397778 14.9282222,43.5997778" id="Fill-199" fill="#EEAC6C"></path>
            <path d="M14.44,45.1275556 C14.44,45.3875556 14.2266667,45.6008889 13.9666667,45.6008889 C13.7066667,45.6008889 13.4933333,45.3875556 13.4933333,45.1275556 C13.4933333,44.8675556 13.7066667,44.6542222 13.9666667,44.6542222 C14.2266667,44.6542222 14.44,44.8675556 14.44,45.1275556" id="Fill-201" fill="#EEAC6C"></path>
            <path d="M39.2077778,44.394 C39.2077778,44.6562222 39.4188889,44.8673333 39.6788889,44.8673333 C39.9411111,44.8673333 40.1544444,44.6562222 40.1544444,44.394 C40.1544444,44.134 39.9411111,43.9228889 39.6788889,43.9228889 C39.4188889,43.9228889 39.2077778,44.134 39.2077778,44.394" id="Fill-203" fill="#EEAC6C"></path>
            <path d="M37.1915556,43.9057778 C37.1915556,44.1657778 37.4048889,44.3791111 37.6648889,44.3791111 C37.9248889,44.3791111 38.1382222,44.1657778 38.1382222,43.9057778 C38.1382222,43.6457778 37.9248889,43.4324444 37.6648889,43.4324444 C37.4048889,43.4324444 37.1915556,43.6457778 37.1915556,43.9057778" id="Fill-205" fill="#EEAC6C"></path>
            <path d="M37.6822222,45.4313333 C37.6822222,45.6935556 37.8933333,45.9068889 38.1533333,45.9068889 C38.4155556,45.9068889 38.6266667,45.6935556 38.6266667,45.4313333 C38.6266667,45.1713333 38.4155556,44.9602222 38.1533333,44.9602222 C37.8933333,44.9602222 37.6822222,45.1713333 37.6822222,45.4313333" id="Fill-207" fill="#EEAC6C"></path>
            <path d="M48.8475556,30.0797778 C48.8342222,28.9664444 48.7542222,27.6131111 48.5942222,26.1642222 C45.732,16.7908889 37.012,9.96866667 26.6986667,9.96866667 C17.7208889,9.96866667 9.94977778,15.1375556 6.20088889,22.6642222 C5.16533333,25.622 4.52977778,28.5331111 4.47644444,29.8464444 C4.292,34.402 7.61644444,41.2264444 7.61644444,41.2264444 C7.21644444,33.7264444 7.30088889,33.7397778 9.10755556,32.4397778 C11.3564444,30.8242222 16.0942222,27.8131111 17.9208889,25.7353333 C18.2675556,25.3375556 18.9897778,23.9131111 18.9897778,23.9131111 C18.9897778,23.9131111 18.9208889,25.0308889 19.5453333,25.5242222 C23.3164444,28.502 34.4408889,25.1908889 38.6586667,27.4864444 C42.112,29.3664444 46.3008889,41.2264444 46.3008889,41.2264444 C48.0075556,37.9975556 48.8808889,32.5842222 48.8475556,30.0797778" id="Fill-225" fill="#BE5916"></path>
            <path d="M25.0344444,56.766 L28.5144444,56.766 C29.5122222,56.766 30.3188889,54.6282222 30.3188889,53.6526667 L23.2322222,53.6526667 C23.2322222,54.6282222 24.0411111,56.766 25.0344444,56.766" id="Fill-227" fill="#FDDFBB"></path>
            <path d="M23.9928889,55.95 L30.2928889,53.8722222 L30.304,53.8611111 C29.1328889,54.0588889 27.9284444,54.1633333 26.6995556,54.1633333 C25.524,54.1633333 24.3706667,54.0677778 23.2484444,53.8855556 C23.3128889,54.4966667 23.5928889,55.3433333 23.9928889,55.95" id="Fill-229" fill="#EEAC6C"></path>
            <path d="M7.06355556,21.3557778 C8.42133333,11.6757778 6.87022222,0.744666667 26.7946667,0.744666667 C46.5349481,0.744666667 45.1924444,11.698 46.5346667,21.4024444 C46.6568889,22.3024444 6.93466667,22.2691111 7.06355556,21.3557778" id="Fill-231" fill="#343434"></path>
            <path d="M46.0242222,16.944 L7.56422222,16.944 C7.41311111,18.3484444 7.26644444,19.8262222 7.08422222,21.2551111 L7.08422222,21.4017778 L46.5331111,21.4017778 C46.3286667,19.9373333 46.1864444,18.4084444 46.0242222,16.944" id="Fill-233" fill="#5C5C5C"></path>
            <path d="M50.2037778,21.9504444 C50.2037778,23.166 49.2193333,24.1482222 48.0037778,24.1482222 L5.73933333,24.1482222 C4.52377778,24.1482222 3.53933333,23.166 3.53933333,21.9504444 C3.53933333,20.7371111 4.52377778,19.7526667 5.73933333,19.7526667 L48.0037778,19.7526667 C49.2193333,19.7526667 50.2037778,20.7371111 50.2037778,21.9504444" id="Fill-235" fill="#343434"></path>
        </g>
    </g>
</svg>