<?xml version="1.0" encoding="UTF-8"?>
<svg width="120px" height="120px" viewBox="0 0 120 120" version="1.1" xmlns="http://www.w3.org/2000/svg" xmlns:xlink="http://www.w3.org/1999/xlink">
    <!-- Generator: Sketch 48.2 (47327) - http://www.bohemiancoding.com/sketch -->
    <title>Car2</title>
    <desc>Created with Sketch.</desc>
    <defs></defs>
    <g id="交通" stroke="none" stroke-width="1" fill="none" fill-rule="evenodd">
        <g id="Car2">
            <g id="Group-31" transform="translate(0.000000, 38.000000)">
                <path d="M2.08646667,25.1044248 C1.01864,25.5376991 0.24395,26.6037611 0.300673333,27.8247345 L0.31535,28.144115 C0.374056667,29.3905752 1.22490667,30.3969027 2.36453,30.705531 C2.18642667,28.8680973 2.10114333,26.8948673 2.08646667,25.1044248" id="Fill-133" fill="#DA3434"></path>
                <path d="M64.72886,0.862168142 C73.1727033,2.44831858 87.20915,14.9300442 87.20915,14.9300442 C114.935753,14.9300442 117.613253,23.0973451 118.30028,26.6814159 L118.206667,26.6814159 L118.206667,35.840708 L2.99205667,35.840708 C2.99205667,35.840708 0.32249,24.5628319 2.99205667,22.5688938 C39.67579,-4.82814159 60.7479133,0.114690265 64.72886,0.862168142" id="Fill-134" fill="#06A997"></path>
                <path d="M119,33.3262832 C119,32.7556195 118.589053,32.2566372 118.204287,32.2566372 L1.78738,32.2566372 C1.40261333,32.2566372 1.19,32.7556195 1.19,33.3262832 L1.19,34.8435398 C1.19,35.4142035 1.40261333,35.840708 1.78738,35.840708 L118.204287,35.840708 C118.589053,35.840708 119,35.4142035 119,34.8435398 L119,33.3262832" id="Fill-135" fill="#A2A5A5"></path>
                <path d="M82.51222,15.1327434 L20.10386,15.1327434 C20.10386,15.1327434 38.4734933,1.36473451 60.99583,2.62752212 C60.99583,2.62752212 70.4317367,2.38938053 82.51222,15.1327434" id="Fill-136" fill="#5C5E5E"></path>
                <polygon id="Fill-137" fill="#06A997" points="49.5833333 15.9292035 53.1533333 15.9292035 53.1533333 2.38938053 49.5833333 2.38938053"></polygon>
                <path d="M107.51769,35.840708 C107.51769,29.4690265 102.76602,25.1860619 96.9044767,25.1860619 C91.0413467,25.1860619 86.29047,29.4690265 86.29047,35.840708 L107.51769,35.840708" id="Fill-138" fill="#1F8C80"></path>
                <path d="M88.6542067,36.5336283 C88.6542067,41.1451327 92.3777167,44.8817257 96.9711167,44.8817257 C101.563723,44.8817257 105.284853,41.1451327 105.284853,36.5336283 C105.284853,31.9229204 101.563723,28.1859292 96.9711167,28.1859292 C92.3777167,28.1859292 88.6542067,31.9229204 88.6542067,36.5336283" id="Fill-139" fill="#2B2D2C"></path>
                <path d="M91.38129,36.5336283 C91.38129,39.6318584 93.88386,42.144292 96.9711167,42.144292 C100.056787,42.144292 102.558563,39.6318584 102.558563,36.5336283 C102.558563,33.4338053 100.056787,30.9229646 96.9711167,30.9229646 C93.88386,30.9229646 91.38129,33.4338053 91.38129,36.5336283" id="Fill-140" fill="#A2A5A5"></path>
                <path d="M31.4643933,35.840708 C31.4643933,29.4690265 26.71312,25.1860619 20.85118,25.1860619 C14.9888433,25.1860619 10.2383633,29.4690265 10.2383633,35.840708 L31.4643933,35.840708" id="Fill-141" fill="#1F8C80"></path>
                <path d="M12.6013067,36.5336283 C12.6013067,41.1451327 16.32442,44.8817257 20.91782,44.8817257 C25.5108233,44.8817257 29.2315567,41.1451327 29.2315567,36.5336283 C29.2315567,31.9229204 25.5108233,28.1859292 20.91782,28.1859292 C16.32442,28.1859292 12.6013067,31.9229204 12.6013067,36.5336283" id="Fill-142" fill="#2B2D2C"></path>
                <path d="M15.32839,36.5336283 C15.32839,39.6318584 17.8305633,42.144292 20.91782,42.144292 C24.0038867,42.144292 26.5052667,39.6318584 26.5052667,36.5336283 C26.5052667,33.4338053 24.0038867,30.9229646 20.91782,30.9229646 C17.8305633,30.9229646 15.32839,33.4338053 15.32839,36.5336283" id="Fill-143" fill="#A2A5A5"></path>
                <path d="M62.2766667,20.1619912 C62.2766667,19.4766372 61.8224833,18.7168142 61.1402167,18.7168142 L54.4873233,18.7168142 C53.80585,18.7168142 53.1533333,19.4766372 53.1533333,20.1619912 L53.1533333,20.4678319 C53.1533333,21.1531858 53.80585,21.5044248 54.4873233,21.5044248 L61.1402167,21.5044248 C61.8224833,21.5044248 62.2766667,21.1531858 62.2766667,20.4678319 L62.2766667,20.1619912" id="Fill-144" fill="#1F8C80"></path>
                <path d="M114.656103,23.4601327 C115.058323,22.9444248 115.570817,22.6620796 116.2868,22.5927876 C117.575967,24.2366814 118.206667,25.8415487 118.206667,27.0382301 L118.206667,29.7653097 C117.413333,29.5550442 116.91988,29.2065929 116.265777,28.6928761 C114.28165,27.1338053 113.618027,24.7914159 114.656103,23.4601327" id="Fill-145" fill="#F3EE84"></path>
            </g>
        </g>
    </g>
</svg>