<?xml version="1.0" encoding="UTF-8"?>
<svg width="120px" height="120px" viewBox="0 0 120 120" version="1.1" xmlns="http://www.w3.org/2000/svg" xmlns:xlink="http://www.w3.org/1999/xlink">
    <!-- Generator: Sketch 51.1 (57501) - http://www.bohemiancoding.com/sketch -->
    <title>Tree33</title>
    <desc>Created with Sketch.</desc>
    <defs></defs>
    <g id="Tree33" stroke="none" stroke-width="1" fill="none" fill-rule="evenodd">
        <g id="Group" transform="translate(7.000000, 0.000000)">
            <path d="M40.6678067,74.1180145 C39.8323999,72.3607888 39.2166117,70.6946418 38.8151681,68.6903363 C38.4249027,66.7437876 37.5020708,64.9522832 37.2530442,62.9770619 C37.1295985,62.0023274 37.0194259,59.141333 37.5391462,57.8624497 C33.0705987,55.5652517 29.7499155,53.9033508 26.8071504,48.7923186 C26.1367079,47.6283125 25.497525,46.4418767 24.8988909,45.2511873 L24.864,45.2628319 C22.2516106,43.5069027 20.5100177,42.0461947 17.3316106,41.2136283 C15.2942655,40.68 13.2064779,40.1023009 10.004708,39.3254867 C11.7654159,39.2092035 13.1969204,39.340354 15.2555044,39.7900885 C16.1878291,39.9947451 21.0602259,41.2522632 23.6942795,42.7280013 C20.7819926,36.2837496 19.2567843,30.0922825 20.6027257,27.0574513 C20.6027257,27.0574513 20.2852035,32.6666549 25.6740531,43.5170973 C30.1947611,52.6195752 34.9990088,54.6956814 39.6837876,56.0772743 C44.3919083,57.4665389 52.1975834,61.2016417 56.8458134,65.6802243 C57.0961217,64.0520013 57.190356,61.9610335 57.1592775,59.6227496 C54.6704763,56.7933988 51.4967449,53.8189009 48.444531,52.1103717 C45.2475398,50.3188673 41.9337345,49.4804602 38.6953274,48.3616991 C42.7939115,48.0733805 48.4779823,50.0698407 51.8114336,52.4544425 C53.5270088,53.6804602 55.0132035,55.3556814 56.763823,56.6496637 C56.8431613,56.7084164 56.949399,56.8035922 57.0743989,56.926738 C56.797821,51.1777363 55.9152179,44.5383878 54.8041678,39.6529741 C53.6050524,39.6435478 51.5357416,38.9923039 50.8924248,38.859292 C48.2184425,38.3076106 45.9007434,37.6178761 43.3849912,36.359469 C41.148,35.2412389 38.6524248,34.7734513 36.4966726,33.4943363 C35.2212743,32.7361062 31.2570265,29.860885 31.3913628,28.4389381 C32.808531,29.7286726 34.3903009,30.3876106 35.8993274,31.3226549 C37.6180885,32.3883186 39.387823,32.9309735 41.2743717,33.5442478 C45.5419733,34.9287106 49.3544503,37.5777696 54.0473678,36.730298 C53.9179157,36.2969516 53.7867443,35.8910649 53.6543363,35.5160177 C50.580531,26.8038053 47.8284956,24.8747788 34.4522124,8.42256637 L33.9260177,7.36954763 C33.9260177,7.36954763 35.6362832,7.10628319 52.2074336,26.0461062 C52.6095835,26.5057174 52.9979958,26.9722362 53.3731049,27.4450348 C54.8789132,23.8580061 56.2404291,19.4527664 56.4167257,15.7878053 C56.5930088,12.1267434 55.8645133,8.78692035 55.4211504,5.38922124 C57.5078761,8.92815929 58.2576106,14.9069204 57.6119469,18.954 C57.2790265,21.0354159 56.4432743,23.113646 56.0662832,25.2571858 C55.9669009,25.823121 55.1707907,27.7526962 54.4517411,28.871621 C56.5665421,31.8074569 58.2090261,34.9508536 59.4757853,38.1622784 C61.7015671,35.4398249 63.8712277,32.2083945 65.0135575,29.2276991 C66.3271858,25.8055752 66.6813451,22.4062832 67.3227611,19.0415044 C68.1972743,23.0546018 67.0386903,28.9680531 65.1579823,32.6089381 C64.1910796,34.4822124 62.7478938,36.1951327 61.7178053,38.1130088 C61.5381637,38.4480367 60.8821526,39.2544972 60.1596597,40.0045059 C65.9293585,56.5510764 62.3352212,74.1836283 62.3352212,74.1836283 C62.3352212,74.1836283 64.9667257,69.5806195 74.4361062,64.0569027 C75.5879773,63.3849617 76.7662596,62.4729091 77.9433246,61.3991332 C78.0860266,58.1443008 78.3587721,55.6964048 77.3288496,52.3511681 C76.6322124,50.0865664 75.9477876,47.7476283 74.7939823,44.2262124 C75.9477876,45.8403717 76.6709735,47.2878053 77.460531,49.5232035 C77.8314987,50.5753414 79.6357224,56.3700226 79.6616488,59.7215438 C87.535232,51.5544564 94.7426021,37.7883115 92.8486726,42.3554867 C91.6913651,45.1470443 89.6525385,49.419423 86.9331941,53.7854343 C89.7324551,52.4689397 92.7964754,51.6089116 95.4786903,50.1199115 C96.3022301,49.6627434 104.514265,46.1885841 101.134619,48.3400885 C100.411965,48.8004425 98.4181593,49.509823 97.7804602,49.9834513 C96.4976283,50.9386726 94.0275398,51.9666372 92.5864779,52.6138938 C90.3635442,53.613272 88.5967723,54.8298701 85.6280994,55.8057293 C83.538183,58.923036 81.1165186,61.9789695 78.4364735,64.467192 C80.6188857,64.8856778 82.6067288,65.145258 85.2047257,64.7549735 C87.5489735,64.404 89.9633097,64.0758584 93.617469,63.4588673 C91.8482655,64.3588673 90.3100354,64.8590442 87.9811858,65.3061239 C86.8038485,65.5327986 79.956637,66.5805726 76.8691274,65.8323819 C72.6204069,69.2969489 71.812883,68.0331055 66.7760897,77.1070178 C68.8901084,76.2566676 70.9165665,75.2410565 72.5512035,74.0832212 C75.541646,71.9651681 77.7239469,69.3336637 80.1239469,66.8901239 C78.6250088,70.7147257 74.3798761,74.9895929 70.7942124,76.9759646 C69.1753887,77.8732394 67.3200578,78.4619909 65.5913727,79.2860508 C64.9623024,80.4642668 64.2748664,81.781846 63.5187611,83.2590265 C54.1125664,101.637611 64.7023009,117.192478 64.7023009,117.192478 C61.1511504,121.927168 49.3141593,118.770531 49.3141593,118.770531 C47.7361062,114.824867 51.6812389,95.0965487 53.260354,86.4151327 C53.2903653,86.2500503 53.3200915,86.0863948 53.3495405,85.9241231 C51.8586374,83.7465282 49.3650805,81.3219974 45.1957168,79.3724602 C42.344872,78.0396153 39.8730547,77.1736417 37.6685296,76.5070896 C34.9709763,76.5368226 32.8284543,76.5034117 30.0320708,77.5505841 C28.0101239,78.3088142 25.9207434,79.0574867 22.7795044,80.3010265 C24.1855221,79.1620885 25.4635752,78.4261593 27.4526018,77.5856283 C28.1511163,77.2909425 31.207254,76.1267504 33.979628,75.4689022 C30.3277443,74.4753565 27.3975566,73.6244424 24.4262201,71.0902159 C21.9945543,70.7854745 19.9697001,70.5491537 17.2561062,71.1663186 C15.1492035,71.6452566 12.9775221,72.1077345 9.69876106,72.9148142 C11.2454867,71.977646 12.6090265,71.4195929 14.6946903,70.8535752 C15.5468029,70.6228694 19.724516,69.6538523 22.8043573,69.5380117 C22.6827903,69.4086888 22.5609291,69.276081 22.4387257,69.1400708 C21.5042881,68.1004832 20.5986209,67.0293458 19.7369593,65.9454152 C17.2491762,65.0520594 15.267954,64.2975253 12.3252212,64.3058761 C10.1657522,64.3106549 7.94681416,64.287292 4.57035398,64.3573805 C6.28433628,63.7802124 7.73707965,63.5338407 9.89495575,63.4393274 C10.7885304,63.4010361 15.1785848,63.3703378 18.2147869,63.9546402 C14.1413042,58.4081292 11.441121,52.8263697 12.1075752,49.6634336 C12.1075752,49.6634336 12.9438584,55.0804248 20.2861593,64.3374159 C20.4058785,64.4883497 20.5251618,64.6367302 20.6440157,64.7826025 C20.9094618,64.9641534 21.0886916,65.1693238 21.1580174,65.4010802 C21.2437214,65.5021393 21.3292026,65.6019014 21.4144634,65.7003838 C22.0956457,63.1009336 22.6899926,61.0476457 22.4205133,58.0819646 C22.225115,55.9320531 22.0536106,53.7178938 21.685115,50.3621416 C22.4120177,52.0177168 22.785292,53.4439115 23.0677699,55.5853274 C23.2362407,56.8523975 24.0162128,65.23939 22.3943351,66.7870042 C24.8693884,69.4173912 27.1598998,70.9848742 29.3319199,71.9405373 C29.2077467,69.7184962 29.4708371,67.4432716 29.2069381,65.2521239 C29.1267611,64.5862832 29.0407434,58.230531 29.5526018,61.0399115 C29.6625133,61.6409735 29.5940177,63.1484071 29.7363186,63.6953097 C30.0214513,64.7997345 30.0352566,66.7059292 30.0750796,67.8321239 C30.1281204,69.3132455 30.3748645,70.6176926 30.3504632,72.3486181 C32.3790798,73.0835925 34.3102383,73.3309908 36.2004956,73.4770619 C37.4826749,73.5761685 39.0124301,73.7915095 40.6678067,74.1180145 Z M42.8790575,74.6042975 C46.8801431,75.5735561 51.2656495,77.1181314 54.5561054,79.1765127 C54.7728428,77.9429838 54.9759839,76.7733721 55.1725267,75.6302987 C54.7632795,72.7930108 53.1467451,68.2149107 47.4471504,63.9086018 C43.7414452,61.1096552 40.6170002,59.4480382 37.9096949,58.0531204 C37.9280686,59.2682094 38.1967687,60.3750738 38.3229558,61.5439646 C38.4928673,63.1400708 39.0148142,64.5147611 39.5510973,65.995115 C40.6196039,68.9460826 40.9005484,72.1539266 42.8790575,74.6042975 Z" id="Combined-Shape" fill="#A0713F"></path>
            <path d="M41.25,2.76525664 C41.25,2.76525664 34.3000885,5.76525664 37.0404425,10.9746372 L37.0563717,10.9433097 C42.8445133,9.99976991 41.25,2.76525664 41.25,2.76525664 Z M30.9255929,17.4173628 C30.9255929,17.4173628 33.7556814,10.5709912 39.043646,13.1085133 L39.0749735,13.0920531 C38.3427611,18.9311681 30.9255929,17.4173628 30.9255929,17.4173628 Z M40.1341593,25.4534867 C40.1341593,25.4534867 45.7656637,20.6412743 49.3242478,25.3032212 L49.3582301,25.3032212 C46.0534513,30.1727788 40.1341593,25.4534867 40.1341593,25.4534867 Z M9.53054867,44.348177 C9.53054867,44.348177 7.6179823,50.1331327 12.2167434,51.2699469 L12.2061239,51.2455221 C14.7351504,47.2589735 9.53054867,44.348177 9.53054867,44.348177 Z M8.06054867,57.0298407 C8.06054867,57.0298407 12.0757699,60.5974513 14.6005487,57.2719646 L14.5771858,57.2714336 C12.2318761,53.8333805 8.06054867,57.0298407 8.06054867,57.0298407 Z M15.6014867,49.1331504 C15.6014867,49.1331504 17.8092743,53.902354 13.9437876,55.4405841 L13.936354,55.4639469 C11.2448496,52.2717345 15.6014867,49.1331504 15.6014867,49.1331504 Z M71.3018761,47.0636814 C71.3018761,47.0636814 72.7997522,52.6819115 77.0655929,51.1856283 L77.043292,51.1702301 C76.9769204,46.6659823 71.3018761,47.0636814 71.3018761,47.0636814 Z M5.85318584,37.5818761 C5.85318584,37.5818761 10.6223894,35.8955044 11.7459292,39.7386903 L11.7687611,39.7471858 C8.46876106,42.0399292 5.85318584,37.5818761 5.85318584,37.5818761 Z M10.5131681,43.2929735 C10.5131681,43.2929735 12.8712212,38.8179292 16.3044956,40.8770442 L16.3278584,40.8674867 C15.4602478,44.7908496 10.5131681,43.2929735 10.5131681,43.2929735 Z M14.9388319,35.6239115 C14.9388319,35.6239115 14.3011327,40.753115 18.315292,40.9421416 L18.3020177,40.9214336 C19.7499823,37.1881593 14.9388319,35.6239115 14.9388319,35.6239115 Z M91.3315752,59.5825487 C91.3315752,59.5825487 90.8802478,65.2544071 86.415292,64.6480354 L86.396708,64.6671504 C85.5540531,60.2266195 91.3315752,59.5825487 91.3315752,59.5825487 Z M2.27373675e-13,63.7193628 C2.27373675e-13,63.7193628 4.28123894,60.7974159 6.40460177,64.3098053 L6.42690265,64.3135221 C3.76141593,67.4505133 2.27373675e-13,63.7193628 2.27373675e-13,63.7193628 Z M6.1160708,68.1548496 C6.1160708,68.1548496 11.411469,68.3417522 11.2389027,64.226177 L11.2203186,64.2415752 C7.27677876,63.1015752 6.1160708,68.1548496 6.1160708,68.1548496 Z M8.48782301,59.3953274 C8.48782301,59.3953274 9.20145133,64.643469 13.228885,63.7774513 L13.2113628,63.7620531 C13.6642832,59.6820531 8.48782301,59.3953274 8.48782301,59.3953274 Z M12.4343363,67.215823 C12.4343363,67.215823 14.2815929,72.1804248 18.020708,70.4531681 L17.999469,70.4414867 C17.5481416,66.3625487 12.4343363,67.215823 12.4343363,67.215823 Z M18.2735044,81.2933628 C18.2735044,81.2933628 23.0984602,83.4825664 24.5071327,79.610708 L24.4832389,79.6176106 C21.2708496,77.0636283 18.2735044,81.2933628 18.2735044,81.2933628 Z M24.7245133,74.2838761 C24.7245133,74.2838761 27.2206195,78.9559115 30.6942478,76.7417522 L30.6714159,76.7327257 C29.6769027,72.7509558 24.7245133,74.2838761 24.7245133,74.2838761 Z M95.1899469,47.6325133 C95.1899469,47.6325133 92.5929558,52.6937522 88.7051681,50.4190619 L88.6802124,50.4296814 C89.6094159,46.0050796 95.1899469,47.6325133 95.1899469,47.6325133 Z M106.230478,44.9859292 C106.230478,44.9859292 104.307823,50.3413274 100.158796,48.5864602 L100.135434,48.5992035 C100.485876,44.0928319 106.230478,44.9859292 106.230478,44.9859292 Z M28.7094159,56.7752389 C28.7094159,56.7752389 31.727469,59.4837345 29.4527788,61.7504602 L29.4554336,61.7690442 C26.5749027,60.3258584 28.7094159,56.7752389 28.7094159,56.7752389 Z M32.8923762,61.8236283 C32.8923762,61.8236283 28.8293628,62.6365487 29.7022832,65.7379646 L29.7139646,65.7230973 C32.9210442,65.8776106 32.8923762,61.8236283 32.8923762,61.8236283 Z M60.6668496,6.81759292 C60.6668496,6.81759292 55.2700354,8.97759292 57.2659646,13.0331681 L57.278708,13.0098053 C61.7420708,12.4044956 60.6668496,6.81759292 60.6668496,6.81759292 Z M62.6678761,16.4424956 C62.6678761,16.4424956 57.0464602,14.9605487 56.2324779,19.4069204 L56.2569027,19.3952389 C60.2015044,21.5701062 62.6678761,16.4424956 62.6678761,16.4424956 Z M33.6701416,46.3616283 C33.6701416,46.3616283 36.8273097,51.2433982 40.4241239,48.5035752 L40.3986372,48.4966726 C38.9464248,44.2324248 33.6701416,46.3616283 33.6701416,46.3616283 Z M51.8207257,46.8090796 C51.8207257,46.8090796 47.9849735,51.1773982 51.6019646,53.8901416 L51.6019646,53.8635929 C55.3092212,51.3037699 51.8207257,46.8090796 51.8207257,46.8090796 Z M42.5053805,54.2836991 C42.5053805,54.2836991 45.3190088,49.3387434 49.1053805,51.7790973 L49.1303363,51.7706018 C48.0115752,56.1495398 42.5053805,54.2836991 42.5053805,54.2836991 Z M84.0882478,63.2112212 C84.0882478,63.2112212 78.324531,63.9652035 79.2542655,68.3892743 L79.2712566,68.3696283 C83.7452389,68.8899823 84.0882478,63.2112212 84.0882478,63.2112212 Z M75.8877345,79.4100531 C75.8877345,79.4100531 73.5907434,74.0689912 69.5877345,76.1689912 L69.6105664,76.1806726 C70.3305664,80.6286372 75.8877345,79.4100531 75.8877345,79.4100531 Z M62.0098407,23.6640531 C62.0098407,23.6640531 60.9547965,29.3799823 65.4500177,29.8567965 L65.4362124,29.8339646 C67.3078938,25.7353805 62.0098407,23.6640531 62.0098407,23.6640531 Z M25.8735398,24.3759823 C25.8735398,24.3759823 33.2800885,24.2591681 33.0485841,30.1195221 L33.0751327,30.141823 C27.4250442,31.7857168 25.8735398,24.3759823 25.8735398,24.3759823 Z M41.1950442,41.1815044 C41.1950442,41.1815044 41.8831858,36.0772566 45.8877876,36.8439823 L45.9053097,36.829115 C46.4495575,40.8836283 41.1950442,41.1815044 41.1950442,41.1815044 Z M30.0196991,34.7636814 C30.0196991,34.7636814 32.9209381,30.5052743 36.1604071,32.9849204 L36.1832389,32.9790796 C34.8542124,36.8504071 30.0196991,34.7636814 30.0196991,34.7636814 Z M36.9234159,27.0598938 C36.9234159,27.0598938 40.7246549,30.536177 37.8112035,33.3896283 L37.8133274,33.4145841 C34.1697876,31.5476814 36.9234159,27.0598938 36.9234159,27.0598938 Z M41.7561239,28.4407434 C41.7561239,28.4407434 45.5589558,31.9170265 42.6444425,34.7720708 L42.6465664,34.7959646 C39.0035575,32.9290619 41.7561239,28.4407434 41.7561239,28.4407434 Z M47.3790265,31.2024425 C47.3790265,31.2024425 51.1813274,34.6792566 48.2673451,37.5332389 L48.269469,37.5581947 C44.6253982,35.6907611 47.3790265,31.2024425 47.3790265,31.2024425 Z M37.7877876,51.8730796 C37.7877876,51.8730796 41.4727434,56.4580354 37.6869027,59.1707788 L37.6858407,59.1989204 C33.900531,56.4580354 37.7877876,51.8730796 37.7877876,51.8730796 Z M34.7248673,69.6699823 C34.7248673,69.6699823 38.2595575,67.6124602 39.7314159,70.496177 L39.750531,70.5004248 C37.4747788,72.8191858 34.7248673,69.6699823 34.7248673,69.6699823 Z M33.2999469,59.536885 C33.2999469,59.536885 34.3486195,63.5829027 37.4245487,62.5299823 L37.4080885,62.5188319 C37.3831327,59.2788319 33.2999469,59.536885 33.2999469,59.536885 Z M34.3162832,63.9055221 C34.3162832,63.9055221 35.3649558,67.9536637 38.440354,66.8986195 L38.4249558,66.887469 C38.4,63.648 34.3162832,63.9055221 34.3162832,63.9055221 Z M42.9850088,63.8095752 C42.9850088,63.8095752 42.6595221,67.8885133 39.4492566,67.453646 L39.4359823,67.4658584 C38.8296106,64.273115 42.9850088,63.8095752 42.9850088,63.8095752 Z M43.9956106,68.6801416 C43.9956106,68.6801416 43.6695929,72.7596106 40.4603894,72.3242124 L40.447115,72.3374867 C39.8396814,69.1442124 43.9956106,68.6801416 43.9956106,68.6801416 Z M14.412531,29.4824602 C14.412531,29.4824602 20.8373097,28.846354 21.0603186,33.9521947 L21.0847434,33.9686549 C16.2953628,35.805292 14.412531,29.4824602 14.412531,29.4824602 Z M24.7032212,29.936177 C24.7032212,29.936177 26.9301239,35.2629027 22.6212743,36.7899823 L22.6127788,36.816 C19.7895929,33.2000708 24.7032212,29.936177 24.7032212,29.936177 Z M26.9744071,53.8268496 C26.9744071,53.8268496 21.8075044,55.0008319 23.0255575,58.9358761 L23.0404248,58.9156991 C27.1432566,59.0086195 26.9744071,53.8268496 26.9744071,53.8268496 Z" id="Combined-Shape" fill="#667329"></path>
            <path d="M45.557469,8.66665487 C45.557469,8.66665487 47.2103894,15.8889558 41.4296814,16.8786903 L41.4132212,16.9094867 C38.6319823,11.7229381 45.557469,8.66665487 45.557469,8.66665487 Z M50.0297522,13.4013451 C50.0297522,13.4013451 51.6826726,20.623646 45.9009027,21.6133805 L45.8849735,21.644177 C43.1037345,16.4570973 50.0297522,13.4013451 50.0297522,13.4013451 Z M35.3989381,19.9296106 C35.3989381,19.9296106 41.0304425,15.1163363 44.5890265,19.7793451 L44.6235398,19.7793451 C41.3182301,24.6494336 35.3989381,19.9296106 35.3989381,19.9296106 Z M74.002354,39.2240708 C74.002354,39.2240708 78.4391681,42.7853097 75.4296106,46.1368142 L75.4343894,46.1628319 C71.2880177,44.3644248 74.002354,39.2240708 74.002354,39.2240708 Z M81.2565664,46.7515221 C81.2565664,46.7515221 82.6110796,52.2778938 78.184354,53.1056814 L78.1716106,53.1311681 C75.9744425,49.1807257 81.2565664,46.7515221 81.2565664,46.7515221 Z M90.158177,69.4724602 C90.158177,69.4724602 84.4910973,69.9890973 84.3312743,65.4885664 L84.3084425,65.4726372 C88.5424248,63.8876814 90.158177,69.4724602 90.158177,69.4724602 Z M12.0397168,76.2833097 C12.0397168,76.2833097 17.2464425,75.3041947 16.1770619,71.3266726 L16.1627257,71.3441947 C12.0652035,71.097292 12.0397168,76.2833097 12.0397168,76.2833097 Z M25.5510265,83.3213097 C25.5510265,83.3213097 24.8798761,78.1809558 28.9736814,77.8740531 L28.9864248,77.8544071 C30.5798761,81.6524602 25.5510265,83.3213097 25.5510265,83.3213097 Z M87.5328319,40.8351504 C87.5328319,40.8351504 85.0399115,46.0880708 89.2616814,47.7064779 L89.2542478,47.6804602 C92.1183186,44.2025841 87.5328319,40.8351504 87.5328319,40.8351504 Z M101.884195,53.0931504 C101.884195,53.0931504 98.678177,48.2448319 95.1084425,51.021292 L95.1344602,51.0276637 C96.6312743,55.2759823 101.884195,53.0931504 101.884195,53.0931504 Z M98.2378938,42.6349381 C98.2378938,42.6349381 101.020726,47.5979469 96.9757699,49.5790088 L96.9704602,49.6060885 C93.7973628,46.3867965 98.2378938,42.6349381 98.2378938,42.6349381 Z M25.0086372,61.4191858 C25.0086372,61.4191858 29.031823,60.916354 29.2532389,64.1181239 L29.2702301,64.1292743 C26.291469,65.3584779 25.0086372,61.4191858 25.0086372,61.4191858 Z M51.8207257,11.4423186 C51.8207257,11.4423186 57.5021416,11.7529381 57.0078053,16.2306372 L57.0269204,16.2486903 C52.6081593,17.2023186 51.8207257,11.4423186 51.8207257,11.4423186 Z M42.3145487,44.3041062 C42.3145487,44.3041062 41.8387965,50.0986195 46.3600354,50.1214513 L46.3441062,50.0996814 C47.7936637,45.8349027 42.3145487,44.3041062 42.3145487,44.3041062 Z M82.2335044,71.900177 C82.2335044,71.900177 77.2051858,68.9819469 75.2432389,73.0550442 L75.2703186,73.0497345 C78.4981062,76.1909735 82.2335044,71.900177 82.2335044,71.900177 Z M73.1395221,67.7867257 C73.1395221,67.7867257 69.0892566,71.9564602 72.5644779,74.8492035 L72.5666018,74.8221239 C76.3975752,72.4507965 73.1395221,67.7867257 73.1395221,67.7867257 Z M68.5790973,13.7798761 C68.5790973,13.7798761 71.4442301,18.6950973 67.4343186,20.7451858 L67.4295398,20.7717345 C64.2022832,17.6066018 68.5790973,13.7798761 68.5790973,13.7798761 Z M71.8577522,22.0390088 C71.8577522,22.0390088 66.0558053,22.4016637 66.6834159,26.8783009 L66.7030619,26.8597168 C71.1319115,27.6816637 71.8577522,22.0390088 71.8577522,22.0390088 Z M70.746531,31.806 C70.746531,31.806 65.8711327,28.6398053 63.706885,32.6093628 L63.7334336,32.605646 C66.7998053,35.905115 70.746531,31.806 70.746531,31.806 Z M35.1490088,37.1307611 C35.1490088,37.1307611 38.0502478,32.872885 41.2902478,35.3530619 L41.3125487,35.3466903 C39.9835221,39.2190796 35.1490088,37.1307611 35.1490088,37.1307611 Z M41.4942478,60.1067788 C41.4942478,60.1067788 37.3383186,60.5692566 37.9452212,63.7641239 L37.9590265,63.7492566 C41.1682301,64.1846549 41.4942478,60.1067788 41.4942478,60.1067788 Z" id="Combined-Shape" fill="#484F18"></path>
            <path d="M30.1208496,1.70904425 C30.1208496,1.70904425 37.2794336,3.61576991 35.4587257,9.19152212 L35.4783717,9.22019469 C29.5941239,9.26054867 30.1208496,1.70904425 30.1208496,1.70904425 Z M97.1360177,37.5046195 C97.1360177,37.5046195 91.3675221,38.2299292 92.2749558,42.6587788 L92.2919469,42.6396637 C96.7643363,43.1812566 97.1360177,37.5046195 97.1360177,37.5046195 Z M21.9192743,45.7533982 C21.9192743,45.7533982 18.5332566,49.8264956 21.8948496,52.2089735 L21.8948496,52.1840177 C25.206531,49.7611858 21.9192743,45.7533982 21.9192743,45.7533982 Z M18.0391327,52.236 C18.0391327,52.236 18.3189558,57.5260885 22.4042655,56.9935221 L22.3867434,56.975469 C23.174177,52.9469735 18.0391327,52.236 18.0391327,52.236 Z M98.6812035,63.4201593 C98.6812035,63.4201593 94.0017345,59.9709558 91.6070442,63.8045841 L91.6330619,63.8024602 C94.4992566,67.2776814 98.6812035,63.4201593 98.6812035,63.4201593 Z M5.10079646,73.2955752 C5.10079646,73.2955752 9.58699115,76.1118584 11.5032743,72.4651327 L11.4788496,72.4683186 C8.63814159,69.5065487 5.10079646,73.2955752 5.10079646,73.2955752 Z M54.9676991,-5.30973451e-05 C54.9676991,-5.30973451e-05 59.2271681,3.77092035 56.0609735,6.97375221 L56.0641593,7.00083186 C52.009115,5.00437168 54.9676991,-5.30973451e-05 54.9676991,-5.30973451e-05 Z M20.4248496,21.2332035 C20.4248496,21.2332035 24.5276814,26.2185133 20.4078584,29.2429381 L20.4067965,29.2742655 C16.216885,26.3146195 20.4248496,21.2332035 20.4248496,21.2332035 Z" id="Combined-Shape" fill="#ABB33A"></path>
        </g>
    </g>
</svg>