<?xml version="1.0" encoding="UTF-8"?>
<svg width="120px" height="120px" viewBox="0 0 120 120" version="1.1" xmlns="http://www.w3.org/2000/svg" xmlns:xlink="http://www.w3.org/1999/xlink">
    <!-- Generator: Sketch 51.1 (57501) - http://www.bohemiancoding.com/sketch -->
    <title>Flash9</title>
    <desc>Created with Sketch.</desc>
    <defs>
        <polygon id="path-1" points="0.104084446 0.0415081967 29.8145567 0.0415081967 29.8145567 22.6229508 0.104084446 22.6229508"></polygon>
    </defs>
    <g id="Flash9" stroke="none" stroke-width="1" fill="none" fill-rule="evenodd">
        <g id="Group" transform="translate(19.000000, 0.000000)">
            <path d="M21.5411036,70.6113443 C21.5924771,70.5901967 21.6433566,70.5690492 21.6947301,70.5474098 L21.5411036,70.6113443 Z M21.4882482,70.6334754 L21.4027904,70.669377 C21.4487301,70.6501967 21.4946699,70.6310164 21.5411036,70.6113443 C21.5233205,70.6187213 21.5060313,70.6260984 21.4882482,70.6334754 Z M21.1790193,70.7633115 C21.2536096,70.7323279 21.3282,70.7008525 21.4027904,70.669377 C21.3282,70.7008525 21.2536096,70.7323279 21.1790193,70.7633115 Z M31.6379711,68.3579016 C31.6310554,68.374623 31.6236458,68.3913443 31.6167301,68.4080656 C31.6221639,68.3923279 31.6280916,68.377082 31.6340193,68.3618361 C31.6355012,68.3608525 31.6364892,68.359377 31.6379711,68.3579016 Z M69.3293205,5.35839344 C69.3278386,5.36822951 69.3263566,5.37757377 69.3253687,5.38740984 C69.3243807,5.38888525 69.3233928,5.39036066 69.3228988,5.39183607 C69.3248747,5.38052459 69.3273446,5.36921311 69.3293205,5.35839344 Z M64.2645855,1.50511475 C64.090706,1.58036066 63.9321398,1.68708197 63.7864169,1.8124918 C63.2153807,1.94429508 62.6245855,2.01954098 62.0560193,2.11052459 C61.425212,2.21134426 60.7948988,2.30232787 60.1631036,2.39183607 C59.6044169,2.46363934 59.0452361,2.53445902 58.4850675,2.58265574 C58.0078867,2.62347541 57.532188,2.66478689 57.0559952,2.70609836 C56.8312361,2.72527869 56.609441,2.74347541 56.3846819,2.75331148 C55.9351639,2.77347541 55.4777422,2.83052459 55.0440313,2.93872131 C54.6132843,3.04691803 54.2946699,3.25347541 53.9755614,3.49888525 C53.1728506,3.58544262 52.3726096,3.702 51.5753325,3.82495082 C51.0596217,3.90462295 50.5493446,3.99757377 50.0390675,4.09839344 C49.9378024,4.02708197 49.8330795,3.96019672 49.7263807,3.8977377 C48.8085735,3.36265574 47.6521759,3.28740984 46.6172964,3.36954098 C45.9667301,3.42068852 45.3225855,3.48068852 44.6739952,3.55642623 C42.8507301,3.76740984 41.0106699,4.00888525 39.2101277,4.37183607 C38.4928747,4.51544262 37.7795735,4.69495082 37.0805976,4.91577049 C36.4641157,4.79527869 35.7626699,5.05642623 35.391694,5.56445902 C35.3398265,5.58708197 35.2874651,5.60970492 35.2355976,5.63183607 C34.7100072,5.85757377 34.263453,6.2067541 33.8307301,6.57560656 C33.3555253,6.98232787 33.0082602,7.63101639 32.8852602,8.23495082 C32.8101759,8.59937705 32.7839952,8.97314754 32.7592964,9.34445902 C32.747441,9.52593443 32.7380554,9.70642623 32.725212,9.88691803 C32.399188,10.2705246 32.0781036,10.6605246 31.8266699,11.0967541 C31.5016337,11.6618361 31.2729229,12.3026557 31.0303807,12.9001967 C30.8288386,13.3974098 30.655453,13.9079016 30.4741639,14.4124918 C30.2197663,15.1192131 29.9658627,15.8259344 29.7109711,16.5326557 C29.3469108,17.5447869 28.9858145,18.5579016 28.6301518,19.5729836 C27.7187663,22.1647869 26.7950313,24.7516721 25.8653687,27.3365902 C25.387694,28.6659344 24.896188,29.9898689 24.4071518,31.3152787 C23.8983566,32.6957705 23.420188,34.089541 22.8985494,35.4656066 C22.7750554,35.7503607 22.6565012,36.0365902 22.5537542,36.3287213 C22.2805855,37.1067541 22.2954048,38.0254426 22.476694,38.8388852 C22.2000675,39.249541 21.922947,39.6601967 21.657188,40.0782295 C21.4403325,40.4185574 21.2274289,40.7613443 21.0575012,41.1292131 C20.9142482,41.4390492 20.631694,41.9933115 20.5546337,42.3980656 C20.5299349,42.5283934 20.5017783,42.6479016 20.4647301,42.7683934 C20.3718627,42.9665902 20.2770193,43.1638033 20.1876096,43.3629836 C20.0241036,43.7254426 19.8615855,44.1021639 19.7311759,44.4803607 C19.5913807,44.8865902 19.5355614,45.3262623 19.5069108,45.7506885 C19.4639349,46.3841311 19.7973687,47.0977377 20.2320675,47.5310164 C20.7295012,48.0267541 21.4423084,48.3001967 22.1432602,48.3056066 C22.8466819,48.309541 23.5046578,48.1128197 24.1463325,47.8516721 C24.6175855,47.6608525 25.0695735,47.4533115 25.5195855,47.2211803 C25.7018627,47.1277377 25.8762361,47.0205246 26.0461639,46.9049508 C26.2546217,46.8813443 26.4625855,46.8528197 26.6646217,46.7972459 C26.9743446,46.7116721 27.2830795,46.5533115 27.5621759,46.3757705 C27.7395133,46.5636393 27.9450072,46.7249508 28.1752,46.8488852 C28.5032,47.0259344 28.892947,47.289541 29.2481157,47.3480656 C29.5380795,47.3972459 29.8305133,47.4375738 30.123441,47.4690492 C30.4153807,47.4690492 30.8456337,47.3918361 31.1637542,47.3042951 C31.6962602,47.1582295 32.151212,46.9039672 32.582947,46.604459 C33.5096458,47.7877377 35.0795012,48.4310164 36.5861277,48.5111803 C36.9793325,48.5318361 37.5409831,48.4664262 37.8255133,48.3754426 C38.2345253,48.2456066 38.6746578,48.0847869 39.0569952,47.8472459 C40.3744289,47.719377 41.6938386,47.6106885 43.0127542,47.494623 C42.8660434,47.6775738 42.7188386,47.859541 42.5691639,48.0400328 C42.1986819,48.3734754 41.8375855,48.7177377 41.479947,49.0649508 C41.2512361,49.1352787 41.0373446,49.2341311 40.8506217,49.3659344 C38.5600554,50.9805246 36.3529711,52.7249508 34.1834289,54.494459 C33.1515133,55.3354426 32.1200916,56.1749508 31.0906458,57.019377 C30.0829349,57.8460984 29.0228627,58.6472459 28.1055494,59.5738033 C27.991441,59.689377 27.887706,59.8083934 27.7928627,59.9313443 C27.3838506,60.2097049 26.9792843,60.4959344 26.5821277,60.7959344 C25.4188145,61.6772459 24.3226819,62.6401967 23.1796217,63.5485574 C22.2534169,64.2842951 21.3771036,65.0549508 20.5368506,65.8865902 C20.1426578,66.2775738 19.7336458,66.6483934 19.3028988,66.9980656 C18.8998145,67.2877377 18.4819108,67.5479016 18.1015494,67.8729836 C17.4223325,68.4533115 17.3561398,69.5687213 17.7863928,70.302 C18.2225735,71.044623 19.2115133,71.5088852 20.0601639,71.2231475 C20.3753205,71.1174098 20.6746699,70.984623 20.9700675,70.8415082 C21.142959,70.7731475 21.3158506,70.7042951 21.4882482,70.6334754 C22.6263687,70.1500328 23.7407783,69.6272459 24.8448145,69.0680656 C25.4316578,68.7710164 26.0204771,68.4705246 26.596453,68.1488852 C26.9837301,67.9679016 27.3700193,67.7859344 27.7558145,67.6029836 C27.7750795,68.1149508 28.0082361,68.6298689 28.3619229,68.9815082 C28.6158265,69.2328197 28.9156699,69.4059344 29.2604651,69.5023279 C29.8181639,69.6557705 30.3235012,69.544623 30.8298265,69.2982295 C31.3895012,69.0262623 31.9299108,68.7449508 32.4550072,68.4080656 C32.7785614,68.2010164 33.0986578,67.9865902 33.4118386,67.7642951 C33.7358867,67.5351148 34.0599349,67.3049508 34.3834892,67.0752787 C34.4244892,67.0910164 34.4664771,67.1052787 34.508959,67.1185574 C34.5242723,67.1323279 34.5400795,67.1456066 34.5568747,67.1583934 C34.345453,67.3777377 34.1350193,67.597082 33.9235976,67.8159344 C33.6929108,68.0549508 33.465188,68.2983934 33.2359831,68.5403607 C33.095694,68.6879016 32.9544169,68.834459 32.8101759,68.9780656 C32.5735614,69.2136393 32.3818988,69.4683934 32.1798627,69.7388852 C31.9363325,70.0654426 31.8138265,70.456918 31.6587181,70.8306885 C31.5401639,71.2703607 31.5401639,71.7110164 31.6587181,72.1506885 C31.7777663,72.5706885 31.9911639,72.9360984 32.2998988,73.2459344 C32.6106096,73.5533115 32.9771398,73.7662623 33.4004771,73.8842951 C33.4968024,73.9108525 33.5980675,73.9315082 33.7018024,73.9467541 C33.4760554,74.1788852 33.2512964,74.4129836 33.033947,74.6524918 C32.2090072,75.5598689 31.3830795,76.4623279 30.5596217,77.3716721 C28.9418506,79.156918 27.3393928,80.9608525 25.6742,82.7028197 C25.0018988,83.4075738 24.3340434,84.1142951 23.6558145,84.8156066 C23.4280916,85.0516721 23.2008627,85.2872459 22.9736337,85.5228197 C22.1570916,86.3185574 21.3524048,87.1216721 20.5590795,87.9439672 C20.0527542,88.4682295 19.8275012,89.1906885 19.9425976,89.8816721 C19.7702,90.0882295 19.5987904,90.2942951 19.4278747,90.5008525 C18.8138627,91.2405246 18.1968867,91.9797049 17.5912723,92.7252787 C17.2948867,93.0897049 17.002453,93.4565902 16.7115012,93.8249508 C16.4096819,94.1308525 16.1266337,94.4515082 15.8401277,94.7697049 C15.7438024,94.8774098 15.6469831,94.9851148 15.5511518,95.0933115 C15.1653566,95.5098689 14.7909229,95.9372459 14.4184651,96.364623 C13.6246458,97.2734754 12.8451518,98.1956066 12.0429349,99.0951148 C10.4192361,100.914787 8.77726024,102.722656 7.0211759,104.418393 C5.91565783,105.487574 4.91140482,106.657574 4.0672,107.943148 C3.67004337,108.548066 3.31240482,109.163803 2.99576627,109.814459 C2.80459759,110.20741 2.64109157,110.61659 2.47956145,111.021836 C2.23405542,111.636098 1.97126024,112.278393 2.20639277,112.938885 C2.33680241,113.30577 2.53142892,113.606262 2.8782,113.808393 C3.33660964,114.075443 3.89134458,114.060689 4.35123614,113.808393 C5.30559759,113.284623 6.11621205,112.543967 6.94757349,111.850525 C7.36893494,111.499377 7.79029639,111.150689 8.2082,110.795607 C9.17194699,109.97577 10.136188,109.154951 11.1043807,108.337574 C12.9301157,106.797738 14.7667181,105.266754 16.5707181,103.701836 C20.3916217,100.388066 24.1626337,97.0118361 28.0739349,93.8033115 C29.0243446,93.0238033 29.9816699,92.2487213 30.922694,91.456918 C31.3489952,91.0979016 31.7777663,90.7423279 32.1981398,90.3764262 C32.4164771,90.187082 32.6362964,89.9997049 32.8492,89.804459 C33.217706,89.4685574 33.6716699,89.1301967 33.8875373,88.6757705 C33.8905012,88.6698689 33.8934651,88.664459 33.8964289,88.6580656 C33.914212,88.6457705 33.9319952,88.6339672 33.9502723,88.6216721 C34.8992,87.9803607 35.8263928,87.3080656 36.7387663,86.6160984 C38.7862964,85.0634754 40.8204892,83.476918 42.7415614,81.7698689 C43.1313084,81.4241311 43.5200675,81.079377 43.9088265,80.7331475 C44.533212,80.1788852 45.1551277,79.6379016 45.6110675,78.9287213 C45.8007542,78.6311803 45.8728747,78.2805246 45.8437301,77.9367541 C46.257188,77.6072459 46.6696578,77.2767541 47.0811398,76.9447869 C49.0362964,75.3705246 50.9855253,73.7913443 52.9579711,72.2392131 C53.4040313,71.8880656 53.8505855,71.5379016 54.2981277,71.1882295 C54.3154169,71.1759344 54.332706,71.1631475 54.3499952,71.1503607 C56.3402241,69.7054426 58.3847904,68.3264262 60.3463687,66.8397049 C60.8902361,66.427082 61.4360795,66.014459 61.9488265,65.5634754 C62.144441,65.3908525 62.3321518,65.2123279 62.5114651,65.0234754 C62.5890193,64.9329836 62.6636096,64.842 62.7362241,64.7485574 C63.1180675,64.2680656 63.2628024,64.099377 63.455453,63.6203607 C64.0635373,62.9038033 64.1218265,61.7967541 63.6515614,60.9960984 C63.3418386,60.4688852 62.8285976,60.0941311 62.2531157,59.9352787 C61.7576578,59.6500328 61.2641759,59.5575738 60.6956096,59.5354426 C60.3162361,59.5201967 59.9319229,59.6210164 59.5569952,59.6839672 C59.1860193,59.7464262 58.8278867,59.9092131 58.4786458,60.0424918 C58.311188,60.1059344 58.1427422,60.1634754 57.9723205,60.2121639 C57.8769831,60.1841311 57.7806578,60.1590492 57.6808747,60.1428197 C57.1928265,60.0631475 56.7685012,60.0159344 56.2888506,60.0292131 C55.5913566,60.0474098 54.8958386,60.1797049 54.2067422,60.2805246 C53.3368506,60.4074098 52.4718988,60.6124918 51.6153446,60.8092131 C51.0596217,60.937082 50.5053807,61.0703607 49.9516337,61.2075738 C49.3455253,61.2700328 48.7448506,61.3703607 48.1436819,61.4633115 C47.8739711,61.5056066 47.608706,61.5552787 47.342947,61.6103607 C46.9956819,61.4431475 46.6128506,61.359541 46.2043325,61.3388852 C45.3240675,61.2936393 44.5776699,61.6875738 43.8698024,62.139541 C43.611947,62.0805246 43.3535976,62.0628197 43.0952482,62.086918 C43.2177542,61.8803607 43.3338386,61.6703607 43.4410313,61.4564262 C43.5684771,61.2557705 43.6652964,61.0379016 43.7230916,60.8279016 C43.7374169,60.7767541 43.7497663,60.7251148 43.7596458,60.6729836 C43.9671157,60.4482295 44.1740916,60.2234754 44.3781036,59.9967541 C44.6591759,59.6849508 44.9422241,59.3756066 45.2183566,59.0598689 C45.3863084,58.867082 45.5542602,58.6738033 45.722212,58.4810164 C46.1588867,57.9828197 46.6390313,57.4231475 46.8000675,56.7626557 C46.993212,55.9679016 46.8237783,55.1406885 46.2784289,54.5288852 C46.667188,54.466918 47.0421157,54.3351148 47.3602361,54.127082 C48.5339229,53.3588852 49.5648506,52.4308525 50.6180072,51.5121639 C51.2453566,50.9647869 51.872212,50.4183934 52.4995614,49.8710164 C53.3763687,49.1062623 54.2591036,48.3498689 55.1418386,47.5915082 C56.8989108,46.0821639 58.6712964,44.5915082 60.4649229,43.1254426 C61.7606217,42.067082 63.0518747,41.0033115 64.3530072,39.9508525 C64.7605373,39.6818361 65.1552241,39.3838033 65.5385494,39.0715082 L65.7297181,38.9387213 C66.0898265,38.689377 66.4454892,38.4223279 66.8194289,38.1882295 C67.3272361,37.9880656 67.8646819,37.7352787 68.191694,37.3241311 C68.3719952,37.1436393 68.5266096,36.9488852 68.6570193,36.739377 C68.6614651,36.736918 68.6649229,36.7339672 68.6693687,36.7310164 C69.1490193,36.4492131 69.5293807,36.0700328 69.8129229,35.5924918 C70.1014048,35.0982295 70.2466337,34.5641311 70.2486096,33.9911803 C70.2466337,33.4187213 70.1014048,32.8841311 69.8129229,32.389377 C69.5293807,31.9123279 69.1490193,31.5331475 68.6693687,31.2508525 C68.0563446,30.9710164 67.6300434,30.7649508 66.9365012,30.7649508 C66.2478988,30.7649508 65.7484892,30.9621639 65.1408988,31.2508525 C64.8000554,31.4121639 64.4878627,31.6329836 64.1751759,31.8410164 C64.0180916,31.9452787 63.8624892,32.0515082 63.7078747,32.1601967 C63.6915735,32.1592131 63.6752723,32.1587213 63.6584771,32.1582295 C63.5912964,32.0859344 63.518188,32.019541 63.4376699,31.959541 L62.8676217,31.5208525 C62.4279831,31.267082 61.9542602,31.1392131 61.4454651,31.1372459 C61.0078024,31.0865902 60.5503807,31.234623 60.1191398,31.3221639 C59.6518386,31.4165902 59.191453,31.5803607 58.7340313,31.7151148 C58.391706,31.8164262 58.0498747,31.9177377 57.7080434,32.0185574 C57.4220313,32.0392131 57.1360193,32.074623 56.8514892,32.1110164 C56.3960434,32.169541 55.9341759,32.2241311 55.4812,32.3092131 C55.4545253,32.3141311 55.4283446,32.319541 55.4021639,32.3259344 C55.0361277,31.5842951 54.3648145,30.999541 53.5369108,30.7762623 C53.2553446,30.7005246 52.9648867,30.6587213 52.673441,30.6267541 C52.5430313,30.5972459 52.4141036,30.5628197 52.2861639,30.5229836 C52.0451036,30.3975738 51.8129349,30.2583934 51.587188,30.109377 C51.464188,29.7542951 51.2670916,29.4238033 50.9835494,29.1415082 C50.765706,28.9251148 50.5029108,28.749541 50.2159108,28.6226557 C50.2070193,28.3374098 50.1852843,28.0531475 50.1551518,27.769377 C51.4192361,26.3613443 52.6749229,24.9474098 53.9301157,23.5310164 C57.2516096,19.784459 60.5563084,16.0192131 63.8768145,12.2736393 C64.5995012,11.4577377 65.3246578,10.6423279 66.0493205,9.82740984 C66.3718867,9.46445902 66.695441,9.10396721 67.0160313,8.73757377 C67.2724048,8.44347541 67.5297663,8.14937705 67.7861398,7.85527869 C67.8661639,7.76281967 67.944212,7.67281967 68.0232482,7.57937705 C68.2806096,7.27347541 68.5340193,6.96019672 68.7676699,6.63708197 C68.8417663,6.53577049 68.9059831,6.43003279 68.9642723,6.32134426 C69.1208627,6.08281967 69.2162,5.83888525 69.2794289,5.58806557 L69.358959,5.37757377 C69.5224651,4.77167213 69.5224651,4.1667541 69.358959,3.56183607 C69.1223446,2.70511475 68.5488386,1.96888525 67.781694,1.51937705 C67.0723446,1.10331148 66.8223928,1.14560656 66.0246217,1.03888525 C65.9520072,1.02904918 65.8808747,1.02462295 65.8097422,1.02462295 C65.2584651,1.02462295 64.7511518,1.29363934 64.2645855,1.50511475 Z" id="Fill-1" fill="#FFE11A"></path>
            <path d="M61.0572494,16.0877213 C61.0567554,16.0882131 61.0557675,16.0891967 61.0552735,16.0901803 C61.0557675,16.0891967 61.0567554,16.0882131 61.0572494,16.0877213 M68.7578398,6.2467377 C68.6822614,6.65198361 68.6328639,7.06018033 68.5908759,7.46936066 C68.1013458,7.57067213 67.6948036,7.86378689 67.318888,8.17804918 C66.9612494,8.47706557 66.7211771,8.88329508 66.6060807,9.32345902 C66.455912,9.37460656 66.3047554,9.43706557 66.1886711,9.50395082 C65.9782373,9.62690164 65.739153,9.84132787 65.5519361,10.0144426 C65.3928759,10.1619836 65.2496229,10.3282131 65.1098277,10.4929672 C64.8415988,10.8072295 64.5723819,11.1224754 64.304153,11.4367377 C63.8669843,11.9491967 63.4658759,12.493623 63.0499482,13.0218197 C62.0684181,14.2695246 61.0982494,15.5290328 60.1601892,16.8082131 C59.9734663,17.1278852 59.8801048,17.4721475 59.8781289,17.8424754 C59.8791169,17.9973934 59.895912,18.1473934 59.9290084,18.293459 C59.3179602,19.0773934 58.707406,19.8613279 58.0874663,20.6388689 C57.826647,20.965918 57.5653337,21.2924754 57.3040205,21.6195246 C56.9626831,21.9421475 56.6228277,22.2667377 56.2854422,22.5932951 C55.6496952,23.2080492 55.0164181,23.8252623 54.3880807,24.4478852 C54.1218277,24.7124754 53.8580446,24.978541 53.5947554,25.2465738 C53.4352012,25.4088689 53.276141,25.5716557 53.1170807,25.733459 C52.6764542,26.183459 52.2832494,26.6614918 51.9330205,27.1842787 C51.4479361,27.9067377 51.6445386,28.9542787 52.2382976,29.5454262 C52.3000446,29.6064098 52.3642614,29.6629672 52.4319361,29.7141148 C52.4704663,29.9413279 52.5499964,30.1946066 52.6542253,30.3475574 C52.6774422,30.3814918 52.7001651,30.4149344 52.7238759,30.4493607 C52.8671289,30.6908361 53.0612614,30.883623 53.3047916,31.0272295 C53.7162735,31.3267377 54.2813819,31.3714918 54.7674542,31.2593607 C55.1710325,31.1654262 55.5355867,30.9554262 55.8858157,30.7414918 C56.164912,30.5708361 56.4499361,30.4149344 56.7245867,30.2364098 C57.0110928,30.0490328 57.2980928,29.8537869 57.5737313,29.6506721 C57.805406,29.4795246 58.0365867,29.3078852 58.2682614,29.1372295 C58.7829843,28.7555902 59.2952373,28.3729672 59.7966229,27.9726393 C60.2565145,27.6057541 60.7114663,27.235918 61.1614783,26.8567377 C61.3501771,26.698377 61.5329482,26.5346066 61.7157193,26.3703443 C61.8011771,26.2931311 61.8876229,26.215918 61.9725867,26.1387049 C62.3015747,25.8426393 62.5698036,25.5023115 62.8246952,25.1432951 C63.0129,24.8777213 63.0618036,24.4950984 63.012406,24.1665738 C63.0188277,24.1596885 63.0242614,24.1528033 63.0306831,24.145918 C63.9376229,23.1072295 64.8312253,22.0582131 65.7258157,21.0091967 C65.9826831,20.7082131 66.149647,20.3969016 66.149647,19.9896885 C66.149647,19.7049344 66.0632012,19.426082 65.9056229,19.191 C66.0538157,19.0611639 66.2020084,18.9323115 66.3502012,18.8029672 C67.2941892,17.9821475 68.2450928,17.1691967 69.1950084,16.3547705 C69.7240566,15.9003443 70.2471771,15.4350984 70.7322614,14.9344426 C71.0731048,14.5823115 71.3689964,14.1952623 71.6663699,13.8062459 C71.9835024,13.3906721 72.1914663,12.9219836 72.3732494,12.4341148 C72.3880687,12.3790328 72.402394,12.3239508 72.4172133,12.2688689 C72.4508036,12.0347705 72.4824181,11.8011639 72.5130446,11.568541 C72.5100807,11.2793607 72.4710566,10.9955902 72.400912,10.7152623 C72.3722614,10.6006721 72.3154542,10.461 72.2497554,10.3232951 C72.2477795,10.2628033 72.2443217,10.2018197 72.2408639,10.1418197 C72.2072735,9.67755738 72.072912,9.23886885 71.7281169,8.91132787 C71.6090687,8.79821311 71.4850807,8.72345902 71.3472614,8.66444262 C71.3294783,8.64870492 71.3116952,8.63345902 71.2929241,8.61870492 C71.2761289,8.3914918 71.2578518,8.16477049 71.2405627,7.93755738 C71.2301892,7.79591803 71.2193217,7.65378689 71.2074663,7.51116393 C71.1877072,7.26919672 71.1630084,7.03018033 71.1274422,6.78968852 C71.0987916,6.59690164 71.049888,6.43067213 70.987647,6.2467377 C70.8201892,5.75788525 70.4106831,5.40132787 69.8732373,5.40132787 C69.3916108,5.40132787 68.8507072,5.74952459 68.7578398,6.2467377" id="Fill-3" fill="#FFD34E"></path>
            <path d="M68.2261735,41.9189016 C68.2849566,41.8593934 68.339294,41.7969344 68.3877036,41.7315246 C68.4094386,41.8126721 68.4326554,41.8938197 68.4578482,41.9739836 C68.4682217,42.2252951 68.4746434,42.4770984 68.4781012,42.7289016 C68.4519205,42.7087377 68.4252458,42.6885738 68.399559,42.6684098 C68.2024627,42.5543115 67.9954867,42.4795574 67.7781373,42.4426721 C67.9317639,42.2720164 68.0819325,42.0984098 68.2261735,41.9189016 M69.2640169,36.6211967 C69.0096193,36.8587377 68.9157639,37.1715246 68.8890892,37.4961148 C68.7305229,37.4666066 68.5699807,37.473 68.4311735,37.5236557 C68.2829807,37.5772623 68.1372578,37.630377 68.0033904,37.713 C67.805306,37.8364426 67.6877398,37.9982459 67.5647398,38.1900492 C67.4669325,38.3425082 67.4219807,38.5436557 67.3908602,38.7197213 C67.3740651,38.8072623 67.3587518,38.8943115 67.3429446,38.9813607 C67.2485952,39.0221803 67.1547398,39.0644754 67.0623663,39.1072623 C66.9136795,39.1062787 66.7644988,39.1264426 66.6192699,39.1707049 C66.3875952,39.2420164 66.1015831,39.3266066 65.9015229,39.4475902 C65.7394988,39.5449672 65.5873542,39.6482459 65.4361976,39.7593934 C65.0667036,40.0318525 64.7179566,40.330377 64.3593301,40.6166066 C64.136053,40.7951311 63.9157398,40.9790656 63.6944386,41.160541 C63.2617157,41.5141475 62.8230651,41.8618525 62.3977518,42.2262787 C61.492788,43.0013607 60.5774506,43.7646393 59.687306,44.5574262 C57.8067398,46.228082 55.9330892,47.9051311 54.0757398,49.600377 C53.5027277,50.1231639 52.9292217,50.6469344 52.3567036,51.1687377 C52.0227759,51.4736557 51.6898361,51.7770984 51.3568964,52.0815246 C50.8031494,52.5866066 50.1728361,53.043 49.8428602,53.7344754 C49.6917036,53.9946393 49.6077277,54.273 49.5904386,54.5700492 C49.5311614,54.6138197 49.4718843,54.6575902 49.4131012,54.7023443 C49.3884024,54.720541 49.3641976,54.7387377 49.3404867,54.7574262 C48.9754386,54.8852951 48.6247157,55.0692295 48.2838723,55.2487377 C47.7444506,55.5315246 47.2213301,55.8782459 46.7189566,56.2234918 C46.5223542,56.3572623 46.3267398,56.4920164 46.1306313,56.6272623 C45.4864867,57.070377 44.8151735,57.540541 44.4550651,58.2541475 C44.2322819,58.6943115 44.1389205,59.1482459 44.2737759,59.6351311 C44.4372819,60.2282459 44.9263181,60.7367705 45.5314386,60.8882459 C45.9009325,60.9802131 46.2704265,61.0407049 46.6458482,60.9266066 C46.8799928,60.8548033 47.1042578,60.760377 47.3181494,60.6418525 C47.5152458,60.5321803 47.7034506,60.4048033 47.8886916,60.2749672 C48.0823301,60.2966066 48.2828843,60.2897213 48.4691133,60.265623 C48.7990892,60.2233279 49.0574386,60.1884098 49.3637036,60.0920164 C50.4050048,59.763 51.3702337,59.2323443 52.3216313,58.7061148 C52.7978241,58.4425082 53.2646313,58.1641475 53.7324265,57.8852951 C54.4299205,57.4702131 55.1501373,57.0462787 55.752788,56.4998852 C56.0284265,56.2500492 56.203294,55.9028361 56.2759084,55.5349672 C56.3732217,55.3874262 56.4458361,55.2266066 56.4952337,55.0515246 C56.5377157,54.9000492 56.5574747,54.7436557 56.5564867,54.5872623 C57.023788,54.2926721 57.4915831,53.9975902 57.9588843,53.7020164 C58.2562578,53.8908689 58.6158723,54.0118525 58.9537518,53.9867705 C59.2422337,53.965623 59.5302217,53.9533279 59.8004265,53.8431639 C60.1234867,53.7118525 60.3996193,53.5889016 60.6851373,53.398082 C61.0165952,53.1777541 61.3233542,52.9170984 61.635053,52.6657869 C63.0601735,51.6310328 64.4966554,50.6110328 65.918812,49.5708689 C66.5348,49.1198852 67.1423904,48.6575902 67.7499807,48.1948033 C68.0839084,47.9410328 68.4188241,47.6882459 68.7512699,47.433 C68.872788,47.3602131 68.9854145,47.2741475 69.0871735,47.1752951 C69.2220289,47.0720164 69.3563904,46.9692295 69.4912458,46.865459 C69.979294,46.4907049 70.5147639,46.1720164 70.7696554,45.5828361 C70.8101614,45.5134918 70.8457277,45.4426721 70.8763542,45.3708689 C71.1707639,45.3384098 71.4562819,45.1943115 71.6632578,44.9892295 C72.009041,44.6449672 72.1127759,44.1669344 72.0045952,43.7011967 C71.8865349,43.1921803 71.803053,42.6802131 71.7180892,42.1652951 C71.515559,40.5984098 71.3653904,39.0285738 71.2754867,37.450377 C71.250788,37.0308689 71.066041,36.655623 70.6911133,36.4377541 C70.5078482,36.3310328 70.3082819,36.280377 70.1097036,36.280377 C69.8029446,36.280377 69.4996434,36.4013607 69.2640169,36.6211967" id="Fill-5" fill="#FFD34E"></path>
            <path d="M65.3713386,62.9120656 C65.1544831,63.128459 65.0635916,63.3945246 65.0463024,63.6950164 C65.0354349,63.873541 65.0235795,64.0520656 65.0107361,64.2305902 C64.8689651,64.0864918 64.7015072,63.9787869 64.4910735,63.9217377 C64.0662542,63.8051803 63.6562542,63.9394426 63.3381337,64.2246885 C63.024953,64.5050164 62.8649048,64.891082 62.8500855,65.3071475 C62.840206,65.5830492 62.820941,65.8589508 62.8071096,66.1338689 C62.7888325,66.4850164 62.7715434,66.8351803 62.7547482,67.1853443 C62.7265916,67.7607541 63.2131578,68.2491148 63.762459,68.3238689 C63.7427,68.5800984 63.7244229,68.8373115 63.7031819,69.0925574 C63.6572422,69.661082 63.6221699,70.2296066 63.5851217,70.7976393 C63.5530133,71.2968197 63.9407843,71.7271475 64.4026518,71.8599344 L64.4056157,71.8732131 C64.583447,72.6182951 65.4375313,73.0796066 66.1646639,72.8671475 C66.4363506,72.7874754 66.673459,72.6812459 66.8774711,72.4781311 C67.0365313,72.3197705 67.2548687,71.978459 67.2968566,71.7532131 C67.3176036,71.6391148 67.3368687,71.5250164 67.351194,71.4099344 C67.3753988,71.3573115 67.3971337,71.3027213 67.4173867,71.2461639 C67.5863265,70.7740328 67.5473024,70.2694426 67.5324831,69.7766557 C67.5235916,69.4938689 67.5067964,69.211082 67.4919771,68.9282951 C67.4613506,68.3381311 67.4341819,67.7479672 67.4070133,67.1563279 C67.3847843,66.6537049 67.3645313,66.1500984 67.3477361,65.6469836 C67.3260012,64.9973115 67.3215554,64.3432131 67.269688,63.6950164 C67.2459771,63.3930492 67.1649651,63.1319016 66.9446518,62.9120656 C66.736688,62.7055082 66.4516639,62.5869836 66.1577482,62.5869836 C65.8638325,62.5869836 65.5793024,62.7055082 65.3713386,62.9120656" id="Fill-7" fill="#FFD34E"></path>
            <path d="M61.6312988,65.722623 C57.526853,69.4647541 53.4317928,73.2196721 49.4044072,77.0459016 C49.0171301,77.3114754 48.629853,77.5760656 48.241588,77.8406557 C47.4388771,78.3870492 46.6356723,78.9255738 45.8482747,79.4936066 C45.6131422,79.6322951 45.4269133,79.8181967 45.288106,80.0518033 C45.1606602,80.2681967 45.0890337,80.5131148 45.0766843,80.7619672 C44.8563711,80.8908197 44.6370458,81.0196721 44.4162386,81.1460656 C43.9079373,81.4386885 43.4114916,81.7534426 42.911588,82.0568852 C42.6379253,82.2236066 42.3696964,82.3996721 42.0994916,82.5713115 C41.9330217,82.6760656 41.7705036,82.7857377 41.6089735,82.8968852 C41.3807566,83.0527869 41.1372265,83.2322951 40.9322265,83.4083607 C40.6679494,83.6340984 40.4733229,83.9311475 40.2702988,84.2119672 C40.1418651,84.4332787 40.0598651,84.6668852 40.0247928,84.9127869 C39.465612,85.2914754 38.9093952,85.6736066 38.3536723,86.0591803 C37.8967446,86.3754098 37.4477205,86.702459 36.9942506,87.0231148 C36.759612,87.1893443 36.5264554,87.357541 36.2918169,87.5252459 C35.7938892,87.8813115 35.2623711,88.2167213 34.8370578,88.657377 C34.7748169,88.7213115 34.7180096,88.7891803 34.6651542,88.8595082 C34.3504916,89.0680328 34.0382988,89.2785246 33.727094,89.4934426 C32.7238289,90.1854098 31.6919133,90.8286885 30.671853,91.4945902 C29.6483349,92.1634426 28.6332145,92.8431148 27.638841,93.5532787 C26.8558892,94.1109836 26.0640458,94.6539344 25.2647928,95.1890164 C24.4423229,95.7378689 23.6336843,96.3078689 22.8176361,96.8670492 C22.0386361,97.4001639 21.2917446,97.9681967 20.5379373,98.5357377 C19.6813831,99.1809836 18.8248289,99.8208197 17.9860578,100.487213 C17.4644193,100.888525 16.9467325,101.293279 16.4591783,101.737377 C15.9419855,102.208033 15.4524554,102.704262 14.9728048,103.212295 C14.4941422,103.719344 14.0115277,104.221967 13.5432386,104.737869 C13.0057928,105.331475 12.4194434,105.908361 11.9812867,106.580164 C11.7061422,107.001148 11.811853,107.598197 12.1576361,107.943443 C12.6007325,108.384098 13.3105759,108.366393 13.7556482,107.943443 C14.1167446,107.598197 14.5050096,107.279016 14.8784554,106.947049 C15.2667205,106.600328 15.6599253,106.258525 16.0570819,105.922623 C16.7689012,105.323607 17.4851663,104.728033 18.2152627,104.151148 C19.0619373,103.523115 19.9525759,102.963443 20.8254313,102.372295 C21.3199012,102.038852 21.8183229,101.712787 22.3118048,101.379344 C22.7771301,101.065082 23.2330699,100.73459 23.7072867,100.431639 C25.7083831,99.15 27.7598651,97.947541 29.7688651,96.6757377 C30.7513831,96.055082 31.7462506,95.4506557 32.743588,94.8536066 C33.787853,94.2290164 34.8424916,93.6181967 35.8511904,92.937541 C38.0548169,91.4522951 40.3379735,90.0713115 42.4319373,88.4321311 C42.5366602,88.2978689 42.6413831,88.1631148 42.7451181,88.0283607 C42.8854072,87.7888525 42.971359,87.5345902 43.0044554,87.265082 C43.1887084,87.1362295 43.3749373,87.0093443 43.5621542,86.884918 C44.3678289,86.3498361 45.1710337,85.8113115 45.9900458,85.297377 C46.9231663,84.7121311 47.8651783,84.1411475 48.7968169,83.5544262 C48.9608169,83.4511475 49.1070337,83.3291803 49.2305277,83.1895082 C49.5481542,83.0222951 49.8652867,82.855082 50.1819253,82.6883607 C51.1278892,82.1901639 52.0886723,81.7131148 53.0509373,81.2478689 C53.0958892,81.2262295 53.140841,81.2045902 53.1852988,81.1829508 C53.3082988,81.2119672 53.4372265,81.2286885 53.5814675,81.2286885 C54.0571663,81.2286885 54.5382988,81.052623 54.9596602,80.8504918 C55.3499012,80.6621311 55.7090217,80.4201639 56.0888892,80.212623 C56.2207807,80.1408197 56.3516843,80.0685246 56.4835759,79.9967213 C56.6999373,80.005082 56.9162988,79.9795082 57.1242627,79.915082 C57.3969373,79.8309836 57.6691181,79.7493443 57.9383349,79.6544262 C58.3132627,79.5231148 58.675841,79.3509836 59.0374313,79.1862295 C59.331347,79.0534426 59.6213108,78.9122951 59.9117687,78.7696721 C60.3133711,78.572459 60.7154675,78.3762295 61.1121301,78.1691803 C61.4979253,77.967541 61.8807566,77.7614754 62.2626,77.5504918 C62.5920819,77.3670492 62.9116843,77.1678689 63.2135036,76.9396721 C63.5523711,76.6839344 63.9282867,76.4178689 64.1352627,76.0298361 C64.2360337,75.8463934 64.3205036,75.6545902 64.3886723,75.4563934 C64.4079373,75.3855738 64.4232506,75.3152459 64.434612,75.244918 C64.9567446,74.8922951 65.4670217,74.5234426 65.9481542,74.1206557 C66.322588,73.8068852 66.5137566,73.2319672 66.5137566,72.7608197 C66.5127687,72.4131148 66.424841,72.09 66.2499735,71.7895082 C66.0780699,71.5008197 65.8478771,71.2711475 65.5564313,71.0995082 C65.1899012,70.9268852 64.8935157,70.7896721 64.475612,70.7896721 C64.1525518,70.7896721 63.8749373,70.8639344 63.5978169,70.9706557 C63.5019855,70.8654098 63.3933108,70.7719672 63.2757446,70.6918033 C63.4382627,70.504918 63.5587928,70.2703279 63.6175759,70.0583607 C63.6808048,69.8272131 63.6887084,69.5842623 63.6427687,69.3511475 C63.9272988,69.092459 64.2118289,68.8332787 64.4958651,68.5740984 C65.3104313,67.8314754 65.2506602,66.4740984 64.4958651,65.722623 C64.1174795,65.3459016 63.5983108,65.1314754 63.0638289,65.1314754 C62.5086,65.1314754 62.0338892,65.3557377 61.6312988,65.722623" id="Fill-9" fill="#FFD34E"></path>
            <path d="M36.7347157,89.5904754 C35.9858482,89.7867049 35.2626675,90.0626066 34.5567759,90.3778525 C34.2727398,90.5047377 33.9709205,90.6149016 33.6977518,90.7629344 C33.3613542,90.9449016 33.0254506,91.1273607 32.690041,91.3098197 C32.1506193,91.6019508 31.6403422,91.9452295 31.1201855,92.2708033 C30.7235229,92.5206393 30.3347639,92.7753934 29.9469928,93.039 C29.0128843,93.673918 28.0728482,94.2999836 27.153559,94.9575246 C25.8306916,95.9042459 24.5078241,96.8519508 23.1849566,97.7981803 C19.6224024,100.348672 16.1013422,102.956213 12.5684265,105.544574 C12.415788,105.662115 12.2631494,105.779164 12.1100169,105.896705 C11.8304265,106.177033 11.6358,106.508016 11.5291012,106.889656 C11.368559,107.470475 11.451053,108.10441 11.7568241,108.624738 C12.0532096,109.127361 12.5427398,109.504082 13.1088361,109.659 C13.6408482,109.805066 14.3867518,109.771623 14.8501012,109.432279 C19.7167518,105.864246 24.5858723,102.303098 29.4668482,98.7557213 C30.741306,97.8291639 32.0300892,96.9217869 33.3159084,96.0104754 C34.1225711,95.4385082 34.9292337,94.8655574 35.7349084,94.2930984 C36.4892096,93.7560492 37.2766072,93.2386721 38.0980892,92.8093279 C38.7955831,92.446377 39.1137036,91.5547377 38.9106795,90.8199836 C38.694812,90.039 37.9676795,89.531459 37.1896675,89.531459 C37.0385108,89.531459 36.8863663,89.5506393 36.7347157,89.5904754" id="Fill-11" fill="#FFD34E"></path>
            <path d="M57.7706795,76.6294918 C57.7721614,76.6285082 57.7741373,76.6270328 57.7761133,76.6255574 C57.7854988,76.6176885 57.7958723,76.6103115 57.8052578,76.6024426 C57.8067398,76.601459 57.8077277,76.6009672 57.8087157,76.5999836 C57.7963663,76.6098197 57.7830289,76.6196557 57.7706795,76.6294918 M57.5725952,76.7824426 C57.576053,76.7794918 57.5804988,76.7760492 57.5849446,76.7730984 C57.5997639,76.7612951 57.6145831,76.7499836 57.6294024,76.7386721 C57.6101373,76.7529344 57.5913663,76.7676885 57.5725952,76.7824426 M57.3488241,76.9545738 C57.3478361,76.9550656 57.3473422,76.9555574 57.3463542,76.956541 C57.3483301,76.9550656 57.349812,76.9530984 57.351788,76.951623 C57.3508,76.9526066 57.3493181,76.9535902 57.3488241,76.9545738 M57.3073301,76.9860492 L57.3448723,76.9575246 C57.3448723,76.9575246 57.3453663,76.9570328 57.3458602,76.956541 C57.3325229,76.966377 57.3201735,76.9762131 57.3073301,76.9860492 M57.3424024,76.9594918 C57.3354867,76.9644098 57.3290651,76.9693279 57.3231373,76.9747377 C57.3290651,76.9693279 57.3354867,76.9644098 57.3424024,76.9594918 M59.6907639,74.9657213 C59.3677036,75.2730984 59.0476072,75.5927705 58.704788,75.8775246 C58.4088964,76.1219508 58.1105349,76.3624426 57.8087157,76.5999836 C57.8121735,76.5975246 57.8161253,76.5945738 57.8200771,76.591623 L57.8052578,76.6024426 C57.802294,76.6049016 57.7993301,76.6078525 57.7963663,76.6098197 C57.7894506,76.6152295 57.7825349,76.6201475 57.7761133,76.6255574 C57.7701855,76.6299836 57.7642578,76.6344098 57.7588241,76.6393279 C57.7622819,76.6358852 57.7662337,76.6329344 57.7706795,76.6294918 C57.7375831,76.6550656 57.7034988,76.6806393 57.6704024,76.7067049 C57.700041,76.6835902 57.7311614,76.6599836 57.7608,76.6373607 C57.7173301,76.6708033 57.6733663,76.7047377 57.6294024,76.7386721 L57.6437277,76.7278525 C57.6239687,76.7426066 57.6047036,76.7578525 57.5849446,76.7730984 C57.5740771,76.7809672 57.5632096,76.7893279 57.5528361,76.7976885 C57.5592578,76.7927705 57.5656795,76.7873607 57.5725952,76.7824426 C57.5498723,76.7996557 57.5276434,76.816377 57.5054145,76.8335902 C57.4491012,76.8694918 57.3977277,76.9147377 57.3458602,76.956541 C57.3468482,76.9560492 57.3478361,76.9550656 57.3488241,76.9545738 C57.3695711,76.9373607 57.3918,76.9211311 57.4135349,76.9044098 C57.3903181,76.9221148 57.3680892,76.9398197 57.3448723,76.9575246 C57.3453663,76.9570328 57.3458602,76.956541 57.3463542,76.956541 C57.3458602,76.956541 57.3453663,76.9570328 57.3448723,76.9575246 C57.3443783,76.9575246 57.3443783,76.9575246 57.3438843,76.9580164 C57.3152337,76.9796557 57.2870771,77.0017869 57.2589205,77.0234262 C57.2747277,77.0111311 57.2905349,76.9983443 57.3073301,76.9860492 C56.593041,77.5309672 55.8397277,78.0252295 55.096788,78.5308033 C54.3632337,79.0304754 53.620294,79.513918 52.8501855,79.9580164 C52.0593301,80.4144098 51.2724265,80.8767049 50.4924386,81.3522787 C49.6734265,81.851459 48.8736795,82.3791639 48.0744265,82.9083443 C46.6251012,83.8673607 45.2246795,84.8986721 43.7822699,85.8675246 C42.9242337,86.4434262 42.0642217,87.0144098 41.195812,87.5755574 C40.5101735,88.0186721 39.8166313,88.4568689 39.1423542,88.9171967 C38.368294,89.446377 37.5922578,89.9706393 36.830547,90.5170328 C36.1044024,91.0373607 35.3777639,91.5576885 34.657547,92.086377 C32.9953181,93.306541 31.337041,94.5311311 29.6802458,95.7576885 C26.7079928,97.9555574 23.709559,100.119492 20.6968,102.261295 C20.2097398,102.608016 19.7207036,102.95277 19.2321614,103.299 C19.1476916,103.36441 19.0637157,103.429328 18.9792458,103.494738 C18.8231494,103.650639 18.7159566,103.834082 18.6561855,104.046049 C18.5667759,104.36818 18.6132096,104.720311 18.7831373,105.008508 C18.9466434,105.287361 19.2193181,105.496869 19.5324988,105.582934 C19.8323422,105.665066 20.2364145,105.642443 20.4992096,105.456541 C22.5289566,104.021459 24.551294,102.574574 26.5746193,101.129656 C27.9849205,100.121951 29.3799084,99.0901475 30.7828,98.0711311 C33.7901253,95.8860492 36.7524988,93.6409672 39.8151494,91.5330984 C41.3173301,90.4998197 42.8486554,89.5103115 44.3409566,88.4622787 C45.9142699,87.3576885 47.4569566,86.2112951 49.0021133,85.0688361 C50.4771253,83.9775246 51.939788,82.8611311 53.3140289,81.646377 C53.987812,81.0498197 54.6764145,80.471459 55.3660048,79.8930984 C56.0615229,79.3117869 56.7407398,78.7147377 57.4189687,78.1132623 C57.6264386,77.9288361 57.8348964,77.7449016 58.0428602,77.561459 C58.048294,77.556541 58.0537277,77.5521148 58.0591614,77.5471967 C58.8050651,76.8891639 59.5509687,76.2306393 60.2721735,75.5445738 C60.4341976,75.3901475 60.4277759,75.1206393 60.2721735,74.9657213 C60.1921494,74.886541 60.0889084,74.8476885 59.9846795,74.8476885 C59.8789687,74.8476885 59.7727639,74.8880164 59.6907639,74.9657213" id="Fill-13" fill="#FFD34E"></path>
            <path d="M18.0147578,75.3505082 C18.0014205,75.3677213 17.9875892,75.3849344 17.9747458,75.4021475 C17.9870952,75.3844426 18.0009265,75.3672295 18.0147578,75.3505082 M18.5625771,75.3190328 C19.0180229,75.2457541 19.466059,75.1714918 19.9126133,75.0706721 C19.6740229,75.2039508 19.4364205,75.3387049 19.1983241,75.473459 C19.0219747,75.5728033 18.8436494,75.6701803 18.666312,75.7695246 C18.6430952,75.6426393 18.5729506,75.5005082 18.523059,75.381 C18.5161434,75.3637869 18.5087337,75.346082 18.5008301,75.328377 C18.5215771,75.3254262 18.5418301,75.3224754 18.5625771,75.3190328 M32.8458904,68.3703443 C32.2679386,68.5542787 31.6835651,68.716082 31.1406855,68.995918 C30.6709145,69.238377 30.3172277,69.7424754 30.1794084,70.2406721 C30.1734807,70.2613279 30.168541,70.2814918 30.1636012,70.3021475 C29.9047578,70.4162459 29.6454205,70.528377 29.3860831,70.6419836 C29.2956855,70.6813279 29.204794,70.7206721 29.1148904,70.7600164 C29.0343723,70.7216557 28.9513843,70.6887049 28.8664205,70.6601803 C28.7009386,70.6272295 28.5344687,70.6095246 28.3665169,70.6065738 C28.1047096,70.5962459 27.7984446,70.6990328 27.5381193,70.7462459 C27.2654446,70.7949344 26.9962277,70.8687049 26.7265169,70.9346066 C26.5541193,70.975918 26.3822157,71.0182131 26.210806,71.061 C25.9549265,70.9842787 25.6763241,70.9744426 25.4026614,71.0457541 C25.2762036,71.0782131 25.1502398,71.1121475 25.0237819,71.1455902 C24.2512036,71.3339508 23.4489867,71.4352623 22.6660349,71.5695246 C22.0643723,71.6723115 21.4622157,71.7696885 20.861541,71.8803443 C20.450553,71.9546066 20.040059,72.0298525 19.6285771,72.1050984 C19.2986012,72.1665738 18.9696133,72.2462459 18.6426012,72.325918 C18.1461554,72.448377 17.6778663,72.6391967 17.2076012,72.8373934 C16.7561072,73.0272295 16.351047,73.3690328 16.0679988,73.7619836 C15.981553,73.8819836 15.9227699,74.0128033 15.8689265,74.1470656 C15.7276494,74.245918 15.613541,74.3767377 15.5004205,74.5291967 C15.3942157,74.6723115 15.3275289,74.8282131 15.2865289,74.9919836 C15.1496976,75.2162459 15.0622639,75.4823115 15.0859747,75.7272295 C15.162047,76.5293607 15.2391072,77.3280492 15.3714928,78.1232951 C15.4450952,78.5555902 15.9291916,79.0488689 16.3693241,79.1152623 C16.372288,79.1152623 16.3757458,79.1162459 16.3787096,79.1167377 C16.3792036,79.1162459 16.3796976,79.1157541 16.3806855,79.1152623 C16.6143361,79.1826393 16.8687337,79.1895246 17.1221434,79.1167377 C17.1236253,79.1162459 17.1256012,79.1152623 17.1275771,79.1152623 C17.3518422,79.0508361 17.5667217,78.9254262 17.7425771,78.7587049 C17.9475771,78.8713279 18.1673964,78.9278852 18.4020349,78.928377 C18.7493,78.9387049 19.0264205,78.8457541 19.324288,78.7228033 C19.2842759,78.7400164 19.2447578,78.7562459 19.2047458,78.7724754 C19.8893964,78.5108361 20.5888663,78.2841148 21.2769747,78.0313279 C21.8786373,77.8095246 22.4778301,77.5808361 23.0785048,77.356082 C23.7690831,77.0973934 24.4606494,76.8382131 25.1507337,76.5814918 C25.4594687,76.4673934 25.7662277,76.3513279 26.0744687,76.2357541 C26.4543361,76.0931311 26.8312398,75.9347705 27.2012277,75.7675574 C27.3691795,75.6923115 27.5277458,75.6318197 27.6754446,75.5187049 C27.7826373,75.4552623 27.8809386,75.3824754 27.9693602,75.3003443 C28.3966494,75.1390328 28.8234446,74.9782131 29.2507337,74.8173934 C30.0381313,74.5213279 30.8299747,74.2400164 31.6153964,73.9395246 C32.1246855,73.7452623 32.6255771,73.5328033 33.1249867,73.3144426 C33.4109988,73.1900164 33.6619386,72.9977213 33.8970711,72.7980492 C34.0788542,72.658377 34.2250711,72.4872295 34.3381916,72.2841148 C34.4577337,72.1026393 34.5323241,71.9295246 34.5832036,71.7490328 C34.7674566,71.6019836 34.9210831,71.4244426 35.0445771,71.2173934 C35.3073723,70.7688689 35.3794928,70.2244426 35.2401916,69.7232951 C35.0139506,68.9044426 34.2092639,68.2906721 33.3635771,68.2906721 C33.1916735,68.2906721 33.0173,68.3157541 32.8458904,68.3703443" id="Fill-15" fill="#FFD34E"></path>
            <path d="M35.9773518,46.5891148 C35.7382675,46.6220656 35.501653,46.6776393 35.2645446,46.7248525 C34.8906048,46.7991148 34.5166651,46.8743607 34.1427253,46.9505902 C33.3943518,47.1040328 32.6449904,47.2520656 31.8951349,47.4005902 C30.5120024,47.6745246 29.1209663,47.9041967 27.7299301,48.1343607 C27.1119663,48.2096066 26.4940024,48.2853443 25.8760386,48.3605902 C25.804412,48.3694426 25.7322916,48.3758361 25.6601711,48.3812459 C25.5376651,48.3532131 25.4117012,48.3379672 25.2837614,48.3364918 L25.2862313,48.3266557 C25.2551108,48.3300984 25.2239904,48.3340328 25.1928699,48.3379672 C25.0916048,48.3414098 24.9898458,48.3541967 24.8880867,48.3753443 L24.6504843,48.4058361 C24.5200747,48.4176393 24.3891711,48.4279672 24.2572795,48.4368197 C24.1421831,48.4446885 24.0270867,48.4437049 23.9114964,48.4432131 C23.7717012,48.4412459 23.631906,48.4392787 23.4930988,48.4540328 C23.3592313,48.4717377 23.2248699,48.4899344 23.0910024,48.5076393 C22.9408337,48.5494426 22.8025205,48.6114098 22.6755687,48.6925574 C22.4957614,48.7220656 22.3159542,48.7520656 22.136641,48.783541 C21.4297614,48.906 20.7021349,49.2369836 20.3247373,49.8778033 C20.2140867,50.0666557 20.1454241,50.2653443 20.1064,50.468459 C19.9675928,50.5373115 19.8421229,50.6292787 19.7398699,50.7443607 C19.5630265,50.9445246 19.3456771,51.1791148 19.3027012,51.4579672 C19.2700988,51.670918 19.225147,51.8799344 19.2409542,52.0953443 C19.2621952,52.3904262 19.3175205,52.6830492 19.3624723,52.9746885 C19.3930988,53.1714098 19.4222434,53.3691148 19.451388,53.5663279 C19.4592916,53.6307541 19.4667012,53.6951803 19.4741108,53.7596066 C19.4405205,54.0487869 19.4276771,54.3428852 19.4627494,54.6227213 C19.4637373,54.8789508 19.5284482,55.1174754 19.6583639,55.3392787 C19.8445928,55.6564918 20.1543157,55.8940328 20.5099783,55.9914098 C20.762894,56.0597705 21.0153157,56.0597705 21.2687253,55.9914098 C21.3818458,55.9441967 21.4954602,55.896 21.6090747,55.8487869 C21.7646771,55.7573115 21.8960747,55.6432131 22.0057373,55.5055082 C22.054147,55.498623 22.1025566,55.4892787 22.1504723,55.4779672 C22.3105205,55.7337049 22.5318217,55.9505902 22.7951108,56.1045246 C23.2416651,56.3637049 23.7405807,56.4074754 24.2360386,56.2919016 C24.350641,56.2653443 24.4637614,56.2358361 24.576388,56.2048525 C24.6272675,56.2240328 24.6801229,56.2407541 24.7339663,56.256 C24.7754602,56.2619016 24.8164602,56.2682951 24.8569663,56.2732131 C25.1790386,56.3602623 25.5011108,56.3602623 25.8217012,56.2732131 C25.969894,56.2382951 26.1087012,56.1920656 26.2504723,56.140918 C26.4283036,56.0769836 26.604653,56.013541 26.7824843,55.948623 C27.1509904,55.8128852 27.5214723,55.6815738 27.8919542,55.5502623 C28.6013036,55.298459 29.3205325,55.0761639 30.0382795,54.8474754 C31.1235446,54.5017377 32.2241229,54.1919016 33.2846892,53.7778033 C33.6072554,53.7866557 33.9130265,53.6927213 34.2158337,53.5491148 C34.5734723,53.3799344 34.9256771,53.1507541 35.2047735,52.8719016 C35.3613639,52.7150164 35.4814,52.5281311 35.5604361,52.326 C35.9669783,52.0058361 36.3695687,51.6812459 36.7687012,51.3502623 C37.0453277,51.1215738 37.3214602,50.8904262 37.5901831,50.6514098 C37.7102193,50.5446885 37.8302554,50.4379672 37.9502916,50.3307541 C37.9774602,50.308623 38.003641,50.2855082 38.0283398,50.2614098 C38.065388,50.2289508 38.1014482,50.1964918 38.1375084,50.1645246 C38.3178096,50.0041967 38.4269783,49.9023934 38.576653,49.6845246 C38.8350024,49.3073115 38.9150265,48.8405902 38.781653,48.3999344 C38.7450988,48.2779672 38.6942193,48.1643607 38.6319783,48.0600984 C38.6290145,48.0473115 38.6255566,48.0350164 38.6220988,48.0227213 C38.5326892,47.7064918 38.372641,47.4315738 38.1404723,47.198459 C37.962147,47.0548525 37.7877735,46.9043607 37.5891952,46.7878033 C37.2942916,46.6181311 36.9756771,46.5320656 36.6343398,46.531082 C36.5755566,46.5251803 36.5167735,46.5222295 36.4579904,46.5222295 C36.2969542,46.5222295 36.1374,46.5448525 35.9773518,46.5891148" id="Fill-17" fill="#FFD34E"></path>
            <g id="Group-21" transform="translate(11.361446, 96.961475)">
                <mask id="mask-2" fill="white">
                    <use xlink:href="#path-1"></use>
                </mask>
                <g id="Clip-20"></g>
                <path d="M8.77153012,15.0651148 C5.81607229,17.5059344 2.93224096,20.0323279 0.105216867,22.6182295 C0.102253012,22.6206885 0.105710843,22.6241311 0.108674699,22.6226557 C4.38403614,19.9683934 8.59320482,17.1921639 12.6561566,14.224623 C16.4755783,11.434623 20.1245783,8.43560656 23.7133133,5.36085246 C25.7623253,3.60659016 27.7831807,1.82134426 29.8134217,0.0459344262 C29.8158916,0.0439672131 29.8139157,0.0415081967 29.8114458,0.0415081967 C29.8109518,0.0415081967 29.8104578,0.0415081967 29.8099639,0.042 C26.1841807,2.42183607 22.5445663,4.78642623 18.9933735,7.27839344 C16.851988,8.78281967 14.7357952,10.3216721 12.6714699,11.9298689 C11.3555181,12.9547869 10.0573494,14.0028197 8.77153012,15.0651148" id="Fill-19" fill="#7F7F7F" mask="url(#mask-2)"></path>
            </g>
            <path d="M33.3535988,106.305049 C32.6388157,106.93259 31.9230446,107.559639 31.2206108,108.200951 C31.218141,108.202426 31.2215988,108.205869 31.2240687,108.205377 C33.2992614,106.885377 35.3201169,105.489639 37.2614422,103.980787 C37.4481651,103.835705 37.6274783,103.679803 37.8077795,103.525377 C38.2721169,103.130459 38.7305265,102.728656 39.1854783,102.322918 C39.786647,101.786361 40.3734904,101.233574 40.9583578,100.679311 C41.5624904,100.104885 42.1542735,99.5112787 42.7095024,98.8896393 C42.7114783,98.8871803 42.7095024,98.8847213 42.7080205,98.8847213 C42.7075265,98.8847213 42.7065386,98.8847213 42.7060446,98.8852131 C42.389406,99.1478361 42.0658518,99.3981639 41.7408157,99.650459 C41.7437795,99.6484918 41.7467434,99.6465246 41.7497072,99.6445574 C38.8866229,101.783902 36.0398398,103.946361 33.3535988,106.305049" id="Fill-22" fill="#7F7F7F"></path>
            <path d="M75.4861313,48.6456885 C75.4836723,48.6471639 75.4812133,48.6491311 75.4787542,48.6510984 C75.4699018,48.6579836 75.4605575,48.6658525 75.4512133,48.6727377 C75.4630165,48.6638852 75.4748198,48.654541 75.4861313,48.6456885" id="Fill-24" fill="#7F7F7F"></path>
            <path d="M79.5113988,45.6612295 C77.9815554,46.3512295 76.5638446,47.269918 75.1787361,48.2087705 C73.8168446,49.1313934 72.5246036,50.1612295 71.2590373,51.2107377 C70.6252663,51.7359836 70.0003867,52.2715574 69.3819289,52.8164754 C69.379459,52.8184426 69.3829169,52.8228689 69.3858807,52.8209016 C71.4670012,51.5156557 73.521941,50.1572951 75.469194,48.6582787 C75.4726518,48.6558197 75.4761096,48.6533607 75.4790735,48.6513934 C75.981941,48.2702459 76.4813506,47.8841803 76.9753265,47.4917213 C77.8121217,46.8690984 78.6336036,46.2258197 79.5138687,45.6656557 C79.5168325,45.6641803 79.5153506,45.6607377 79.5128807,45.6607377 C79.5123867,45.6607377 79.5118928,45.6612295 79.5113988,45.6612295" id="Fill-26" fill="#7F7F7F"></path>
            <path d="M74.6700398,52.8339344 C74.6695458,52.8339344 74.6690518,52.8339344 74.6685578,52.8344262 C73.5704494,53.3463934 72.4945699,53.9045902 71.4552446,54.5286885 C70.2450036,55.2555738 69.1157747,56.1201639 68.022606,57.0068852 C68.0196422,57.0098361 68.023594,57.0132787 68.0260639,57.0113115 C69.2881723,56.3965574 70.5399072,55.7419672 71.7180398,54.9772131 C72.0509795,54.7618033 72.3770036,54.5370492 72.7010518,54.3088525 C72.7237747,54.3752459 72.7855217,54.4239344 72.8591241,54.4239344 C72.9514976,54.4239344 73.0280639,54.3481967 73.0280639,54.2562295 C73.0280639,54.2021311 72.9999072,54.1559016 72.9589072,54.124918 C73.5393289,53.7078689 74.1088831,53.2770492 74.6720157,52.8388525 C74.6744855,52.8363934 74.6725096,52.8339344 74.6700398,52.8339344" id="Fill-28" fill="#7F7F7F"></path>
            <path d="M53.4556024,89.7676721 C54.4223133,89.1863607 55.3796386,88.5883279 56.3463494,88.0075082 C58.4635301,86.7357049 60.5451446,85.4039016 62.5566145,83.9722623 C64.5325181,82.5657049 66.4985422,81.1463607 68.4117108,79.6576721 C68.4023253,79.665541 68.3924458,79.6734098 68.3825663,79.6812787 C68.8755542,79.3065246 69.372494,78.9352131 69.864,78.558 C69.8664699,78.5565246 69.864988,78.553082 69.863012,78.553082 C69.8625181,78.553082 69.8620241,78.553082 69.8615301,78.5535738 C69.1210602,78.8924262 68.3830602,79.2342295 67.6574096,79.6011148 C66.9712771,79.9483279 66.2886024,80.302918 65.6093855,80.6639016 C64.7039277,81.1448852 63.7890843,81.6209508 62.9122771,82.1525902 C61.6551084,82.9143934 60.4102892,83.6993115 59.2010361,84.5334098 C58.3148434,85.1442295 57.4582892,85.7963607 56.6037108,86.4494754 C55.6039036,87.2152131 54.6238554,88.0050492 53.6571446,88.8116066 C52.5481687,89.7371803 51.4307952,90.6598033 50.3712169,91.6409508 C50.368747,91.6424262 50.3722048,91.6468525 50.3746747,91.645377 C51.3828795,90.9902951 52.4256627,90.3868525 53.4556024,89.7676721" id="Fill-30" fill="#7F7F7F"></path>
            <path d="M70.6188446,81.2739836 C70.6218084,81.2720164 70.6203265,81.2685738 70.6178566,81.2685738 C70.6173627,81.2685738 70.6168687,81.2685738 70.6163747,81.2685738 C67.9716277,82.8133279 65.3565193,84.4151311 62.8357602,86.1541475 C61.1522904,87.3172623 59.498459,88.5231639 57.859941,89.7472623 C57.8564831,89.7487377 57.858953,89.7541475 57.8629048,89.7526721 C60.1183988,88.4390656 62.3575916,87.0851311 64.5286157,85.6343115 C66.6052904,84.2469344 68.6261458,82.7769344 70.6188446,81.2739836" id="Fill-32" fill="#7F7F7F"></path>
            <path d="M81.9745108,9.64721311 C81.9740169,9.64721311 81.9730289,9.64721311 81.9725349,9.64819672 C80.8936916,10.6096721 79.8232458,11.5790164 78.7686072,12.5670492 C77.7974506,13.4768852 76.8361735,14.3955738 75.882306,15.3236066 C75.3769687,15.8163934 74.8834867,16.3219672 74.3929687,16.8314754 C73.6930048,17.5598361 72.9974867,18.2945902 72.3138241,19.0391803 C70.9711976,20.4998361 69.6419084,21.9752459 68.3343542,23.4678689 C68.0651373,23.7742623 67.7959205,24.0796721 67.5281855,24.3870492 C67.5257157,24.3904918 67.5291735,24.3939344 67.5321373,24.3914754 C69.0199928,22.9219672 70.5295831,21.4736066 72.0194145,20.005082 C72.6304627,19.402623 73.2410169,18.7972131 73.8471253,18.1888525 C74.3371494,17.697541 74.8242096,17.2037705 75.3063301,16.7036066 C75.4974988,16.5059016 75.6857036,16.3052459 75.8768723,16.1090164 C77.3266916,14.6247541 78.7493422,13.1159016 80.1640892,11.6001639 C80.7697036,10.9519672 81.3753181,10.3037705 81.9759928,9.65163934 C81.9779687,9.64967213 81.9764867,9.64721311 81.9745108,9.64721311" id="Fill-34" fill="#7F7F7F"></path>
            <path d="M74.9401952,20.6849508 C76.2502193,19.1879016 77.465894,17.6077377 78.6282193,15.9936393 C78.6297012,15.9921639 78.6272313,15.9897049 78.6252554,15.9897049 C78.6247614,15.9897049 78.6237735,15.9901967 78.6237735,15.9906885 C77.7281952,16.8356066 76.8548458,17.6997049 76.0086651,18.5923279 C75.4801108,19.1490492 74.9574843,19.7136393 74.4684482,20.3057705 C73.9161831,20.9756066 73.3807133,21.6597049 72.8669783,22.359541 C72.3463277,23.0677377 71.8232072,23.7842951 71.397894,24.5539672 C71.3959181,24.5564262 71.3998699,24.5598689 71.4023398,24.5574098 C71.9387976,23.8954426 72.5454,23.289541 73.1282916,22.6674098 C73.7403277,22.0142951 74.3508819,21.3587213 74.9401952,20.6849508" id="Fill-36" fill="#7F7F7F"></path>
            <path d="M20.4441313,27.1215738 C20.2524687,27.7948525 20.0741434,28.4745246 19.8498783,29.1394426 C19.8488904,29.1419016 19.8533361,29.143377 19.855312,29.140918 C20.1383602,28.5045246 20.3784325,27.848459 20.6298663,27.1987869 C20.8640108,26.5919016 21.0902518,25.9805902 21.3179747,25.3707541 C21.7235289,24.2902623 22.1182157,23.2053443 22.5035169,22.1179672 C22.9802036,20.7728852 23.4470108,19.423377 23.8989988,18.0694426 C24.1701916,17.2594426 24.4211313,16.4445246 24.6661434,15.6256721 C25.7622759,11.9700984 26.7393602,8.28157377 27.6359265,4.57239344 C27.6443241,4.5364918 27.6532157,4.49960656 27.6621072,4.46370492 C27.6626012,4.4617377 27.6606253,4.4602623 27.6591434,4.4602623 C27.6581554,4.4602623 27.6571675,4.4607541 27.6571675,4.4617377 C26.3175048,8.06518033 25.0400831,11.6961639 23.8708422,15.358623 C23.1743361,17.5422295 22.5237699,19.7420656 21.8964205,21.9473115 C21.5837337,23.0440328 21.2774687,24.1432131 20.9687337,25.2423934 C20.7923843,25.868459 20.6219627,26.4955082 20.4441313,27.1215738" id="Fill-38" fill="#7F7F7F"></path>
            <path d="M18.3683952,23.371377 C18.8376723,22.3223607 19.2723711,21.2659672 19.6581663,20.184 C19.9841904,19.2712131 20.2445157,18.3412131 20.4836,17.4043279 C20.8832265,15.8438361 21.200359,14.2641639 21.4676,12.676623 C21.4676,12.6746557 21.4661181,12.6731803 21.4651301,12.6731803 C21.4641422,12.6731803 21.4631542,12.6736721 21.4626602,12.6746557 C20.3675157,14.9767869 19.3647446,17.3482623 18.637612,19.794 C18.3165277,20.8720328 18.0339735,21.9667869 17.7637687,23.0585902 C17.5128289,24.0756393 17.2747325,25.0971148 16.9882265,26.1043279 C16.9872386,26.1077705 16.9916843,26.1097377 16.9926723,26.1067869 C17.4999855,25.2225246 17.9509855,24.301377 18.3683952,23.371377" id="Fill-40" fill="#7F7F7F"></path>
            <path d="M18.3403867,61.5173115 C17.3489771,62.4015738 16.3842422,63.3104262 15.4516157,64.2571475 C14.8825554,64.8345246 14.3268325,65.4212459 13.8032181,66.0404262 C12.635953,67.4189508 11.5215434,68.858459 10.5227241,70.3628852 C10.5207482,70.3653443 10.525194,70.3687869 10.5271699,70.3663279 C11.7863145,69.0517377 13.1032542,67.7941967 14.3322663,66.451082 C15.7628205,64.8871475 17.0832181,63.2223934 18.3448325,61.5207541 C18.3468084,61.5187869 18.3448325,61.5168197 18.3423627,61.5168197 C18.3413747,61.5168197 18.3408807,61.5168197 18.3403867,61.5173115" id="Fill-42" fill="#7F7F7F"></path>
            <path d="M13.0315783,62.9583934 C13.0330602,62.9564262 13.0310843,62.954459 13.0291084,62.954459 C13.0281205,62.954459 13.0276265,62.954459 13.0271325,62.9549508 C12.2091084,63.7659344 11.4133133,64.6005246 10.660988,65.4724918 C9.99214458,66.2490492 9.36924096,67.0654426 8.67915663,67.8247869 C8.67816867,67.8262623 8.68014458,67.8306885 8.68261446,67.8292131 C10.4312892,66.5018361 11.8010843,64.754459 13.0315783,62.9583934" id="Fill-44" fill="#7F7F7F"></path>
            <path d="M13.3465867,88.6959344 C13.3475747,88.6939672 13.3455988,88.692 13.3441169,88.692 C13.3431289,88.692 13.3426349,88.6924918 13.342141,88.6934754 C12.1852494,90.4172459 11.0367554,92.1479016 9.9322253,93.9056066 C9.14729759,95.1542951 8.36088795,96.4029836 7.61943012,97.6772459 C7.33193614,98.172 7.05679157,98.6736393 6.76485181,99.166918 C6.30743012,99.9360984 5.8589,100.710689 5.41333373,101.486262 C5.24785181,101.774459 5.06211687,102.051836 4.88675542,102.334623 C4.69015301,102.651836 4.49700843,102.972492 4.29843012,103.288721 C3.87509277,103.962492 3.45126145,104.636262 3.02150241,105.306098 C2.83329759,105.600689 2.63274337,105.886918 2.4292253,106.17118 C2.42774337,106.174131 2.43169518,106.17659 2.43367108,106.175115 C2.99038193,105.56282 3.51300843,104.922 4.02773133,104.274787 C4.55134578,103.615279 5.06705663,102.949377 5.57782771,102.279541 C6.02339398,101.697246 6.4348759,101.093311 6.84932169,100.487902 C7.18473133,99.9960984 7.52211687,99.5062623 7.83677952,99.0001967 C8.65579157,97.6821639 9.4525747,96.344459 10.1871169,94.9762623 C11.0209482,93.4226557 11.823659,91.8528197 12.6021651,90.2711803 C12.8585386,89.7503607 13.1010807,89.2221639 13.3465867,88.6959344" id="Fill-46" fill="#7F7F7F"></path>
            <path d="M5.91333614,95.7182951 C6.9166012,94.323541 7.7613,92.8137049 8.54919157,91.2900984 C8.55067349,91.2881311 8.54919157,91.2851803 8.54672169,91.2851803 C8.54622771,91.2851803 8.54573373,91.2856721 8.54474578,91.2861639 C7.43478193,92.5722295 6.36433614,93.9055082 5.44257711,95.3337049 C4.69519157,96.4914098 4.02042048,97.6938689 3.33675783,98.8889508 C3.3352759,98.8919016 3.33873373,98.8953443 3.34120361,98.8928852 C4.25357711,97.8812459 5.11754096,96.823377 5.91333614,95.7182951" id="Fill-48" fill="#7F7F7F"></path>
            <path d="M14.4044855,48.7871311 C14.8233771,47.7986066 15.2368349,46.8071311 15.6414012,45.8131967 C16.0909193,44.7071311 16.5394494,43.5995902 16.957353,42.4812295 C17.4374976,41.1946721 17.8894855,39.8987705 18.331594,38.5994262 C19.0137747,36.5938525 19.6564373,34.5769672 20.2714373,32.5507377 C20.2719313,32.5482787 20.2704494,32.5468033 20.2684735,32.5468033 C20.2674855,32.5468033 20.2664976,32.5472951 20.2660036,32.5477869 C18.9090518,35.6731967 17.6049554,38.8251639 16.4189193,42.0189344 C15.6438711,44.1036885 14.9256301,46.210082 14.2236904,48.3204098 C13.8102325,49.5612295 13.4180157,50.8109016 12.9833169,52.0438525 C12.9823289,52.0472951 12.9867747,52.0492623 12.9887506,52.0463115 C13.4837145,50.9712295 13.9426181,49.877459 14.4044855,48.7871311" id="Fill-50" fill="#7F7F7F"></path>
            <path d="M19.2337916,92.5878689 C19.2637916,92.5490164 19.2932998,92.5106557 19.3232998,92.4718033 C19.3242834,92.4708197 19.325267,92.4698361 19.3257588,92.4688525 L19.3557588,92.4295082 C19.3439555,92.4447541 19.3321522,92.46 19.3203489,92.4752459 C19.3208407,92.4752459 19.3213325,92.4747541 19.3213325,92.4747541 C19.3208407,92.4752459 19.3208407,92.4752459 19.3203489,92.4757377 L19.2711686,92.5391803 L19.3055948,92.4939344 C19.2982178,92.5042623 19.2903489,92.5145902 19.2824801,92.5244262 C19.2657588,92.5455738 19.2500211,92.5667213 19.2337916,92.5878689" id="Fill-52" fill="#161616"></path>
            <path d="M3.5814241,112.941492 C4.16184578,112.11477 4.74127952,111.288541 5.32219518,110.463295 C6.96268916,108.37018 8.60911084,106.281492 10.2362675,104.177557 C10.224412,104.192803 10.2130506,104.207557 10.2011952,104.222311 C10.2081108,104.213459 10.2150265,104.205098 10.2219422,104.195754 C10.2288578,104.187393 10.2357735,104.178541 10.2421952,104.169689 L10.2352795,104.179033 C10.2347855,104.179525 10.2342916,104.180016 10.2342916,104.180508 C10.2342916,104.180508 10.2347855,104.180016 10.2347855,104.179525 C10.2303398,104.184934 10.225894,104.190836 10.2219422,104.195754 C10.2031711,104.220344 10.184894,104.243951 10.1661229,104.268049 C10.1779783,104.252803 10.1898337,104.238049 10.2011952,104.222311 C10.1769904,104.25477 10.1517976,104.286738 10.1270988,104.318705 C10.1369783,104.305918 10.1473518,104.293131 10.1572313,104.280344 C10.1448819,104.29559 10.1330265,104.31182 10.1206771,104.327557 C10.1340145,104.310836 10.1468578,104.294115 10.1592072,104.276902 C10.164147,104.271 10.1690867,104.265098 10.1735325,104.259197 C10.1671108,104.267557 10.1606892,104.275918 10.1542675,104.284279 C10.1750145,104.25723 10.1962554,104.23018 10.2174964,104.203131 C10.2505928,104.160344 10.2836892,104.117066 10.3172795,104.074279 C10.2994964,104.096902 10.2817133,104.119525 10.2644241,104.141656 C10.3197494,104.070344 10.3750747,103.998541 10.4304,103.92723 C10.3918699,103.976902 10.3538337,104.027066 10.3153036,104.076738 C12.911641,100.732475 15.5079783,97.3882131 18.1038217,94.0429672 C18.1008578,94.0478852 18.096906,94.0523115 18.0934482,94.0572295 C18.1843398,93.9401803 18.2752313,93.8226393 18.3661229,93.7055902 C18.3582193,93.715918 18.3498217,93.7262459 18.342412,93.7365738 C18.3695807,93.7011639 18.3972434,93.6657541 18.424906,93.6303443 C18.4377494,93.6131311 18.4510867,93.5964098 18.4644241,93.5791967 L18.4540506,93.5919836 C18.5795205,93.4306721 18.7049904,93.2693607 18.8299663,93.1080492 C18.834906,93.1021475 18.8388578,93.0962459 18.8433036,93.0908361 C18.9663036,92.9324754 19.0888096,92.7741148 19.2113157,92.6157541 C19.1708096,92.6693607 19.1293157,92.7219836 19.0893036,92.7741148 C19.1144964,92.7406721 19.1406771,92.7072295 19.1668578,92.6737869 C19.162906,92.6791967 19.1589542,92.6841148 19.1545084,92.6895246 C19.1604361,92.6816557 19.1668578,92.6742787 19.1722916,92.6669016 C19.2093398,92.6191967 19.245894,92.5719836 19.2824482,92.5242787 C20.3766048,91.123623 21.4445807,89.7023115 22.5254,88.2908361 C24.0473398,86.303459 25.5687855,84.316082 27.0902313,82.3287049 C28.6773759,80.2577213 30.2778578,78.1965738 31.8719181,76.1305082 C32.9137133,74.8050984 33.9500747,73.4757541 34.9933518,72.1508361 C35.6162554,71.3600164 36.2421229,70.5701803 36.8576169,69.7724754 C37.5397976,69.7301803 38.1054,69.2054262 38.1054,68.5011639 C38.1054,68.3890328 38.0876169,68.2788689 38.0579783,68.1721475 C38.1977735,67.9808361 38.3395446,67.7905082 38.4773639,67.5972295 C38.5712193,67.435918 38.6191349,67.2628033 38.6191349,67.075918 C38.6191349,66.8029672 38.5089783,66.5373934 38.3148458,66.3446066 C38.1212072,66.1523115 37.8554482,66.0416557 37.5807976,66.0416557 C37.3298578,66.0416557 37.0117373,66.143459 36.8472434,66.3446066 C36.6007494,66.6450984 36.3616651,66.9514918 36.1255446,67.2598525 C35.5149904,67.2888689 34.9059181,67.3218197 34.2958578,67.3572295 C33.8300386,67.3837869 33.3666892,67.4073934 32.9028458,67.4546066 C31.5844241,67.5903443 30.2650145,67.708377 28.9520265,67.8923115 C27.7022675,68.068377 26.4510265,68.2272295 25.2086771,68.4529672 C24.4286892,68.5950984 23.6482072,68.7357541 22.8682193,68.8778852 C22.3668337,68.9688689 21.869894,69.0903443 21.3714723,69.2000164 C20.4418096,69.4031311 19.5160988,69.6170656 18.5908819,69.8378852 C22.0521711,66.8708361 25.517412,63.9091967 28.9930265,60.958377 C31.5207012,58.8131311 34.0538096,56.6737869 36.5434482,54.4857541 C37.6366169,54.2073934 38.7302795,53.931 39.8194964,53.6354262 C40.3431108,53.4928033 40.8672193,53.3541148 41.386388,53.1991967 C42.0458458,53.0019836 42.698388,52.8121475 43.3287012,52.5313279 C43.4734361,52.4452623 43.5885325,52.3301803 43.6749783,52.186082 C43.805388,51.9632951 43.8414482,51.6928033 43.7722916,51.4444426 C43.6502795,51.0042787 43.2536169,50.7450984 42.8243518,50.7450984 C42.7443277,50.7450984 42.6638096,50.7539508 42.5832916,50.7726393 C41.6882072,50.9757541 40.8025084,51.226082 39.9158217,51.463623 C39.9113759,51.4646066 39.9069301,51.466082 39.9024843,51.4665738 C40.1899783,51.2024754 40.4779663,50.9398525 40.7634843,50.6732951 C41.3394602,50.1357541 41.8793759,49.5637869 42.4143518,48.9864098 C42.780388,48.5929672 43.1503759,48.203459 43.5243157,47.8178852 C43.9466651,47.6678852 44.2810867,47.3300164 44.4085325,46.8996885 C44.6268699,46.588377 44.6500867,46.1629672 44.4539783,45.8290328 C44.3250506,45.6111639 44.1131349,45.4473934 43.8696048,45.3770656 C43.6492916,45.2191967 43.3840265,45.1242787 43.0999904,45.1242787 C43.0896169,45.1242787 43.0802313,45.1242787 43.0703518,45.1242787 C40.1667614,45.1882131 37.2602072,45.235918 34.3590867,45.383459 C33.1419301,45.445918 31.9193398,45.478377 30.704653,45.5796885 C29.8900867,45.6470656 29.0765084,45.7164098 28.2619422,45.7837869 C27.7951349,45.8231311 27.323388,45.8472295 26.8590506,45.9047705 C25.9575446,46.0178852 25.0570265,46.1305082 24.1550265,46.243623 C23.3567614,46.3444426 22.566894,46.4949344 21.7740627,46.6331311 C21.5097855,46.6798525 21.2460024,46.7344426 20.9832072,46.793459 C21.2800867,46.0277213 21.5695566,45.2590328 21.8526048,44.4878852 C22.1830747,43.5869016 22.4992193,42.6795246 22.8217855,41.7746066 C23.1650988,40.8141148 23.5237253,39.858541 23.8803759,38.9024754 C24.226653,37.971 24.596147,37.045918 24.9542795,36.118377 C25.3074723,35.203623 25.6562193,34.285918 26.0064482,33.3696885 C26.3013518,32.601 26.5888458,31.828377 26.8758458,31.0562459 C27.2018699,30.1788689 27.5372795,29.3049344 27.8514482,28.4231311 C28.264906,27.2644426 28.6773759,26.1062459 29.0908337,24.9465738 C29.3704241,24.1616557 29.6297614,23.3703443 29.8940386,22.5795246 C30.1632554,21.7744426 30.438894,20.9718197 30.6942795,20.1618197 C31.0776048,18.9446066 31.4609301,17.7273934 31.8437614,16.5091967 C32.426159,14.6600164 32.9759542,12.798541 33.5390867,10.943459 C33.8083036,10.0552623 34.0572675,9.16116393 34.3161108,8.2705082 C34.5719904,7.39116393 34.8234241,6.51231148 35.070906,5.6305082 C35.1445084,5.36542623 35.2190988,5.10132787 35.2931952,4.8367377 C36.6827494,4.78509836 38.0718096,4.73198361 39.4603759,4.65870492 C40.7392795,4.59083607 42.0191711,4.52296721 43.2975807,4.45559016 C46.0984241,4.30755738 48.8982795,4.15804918 51.6986289,4.011 C52.4178578,3.97313115 53.1365928,3.89493443 53.8543398,3.83493443 C55.488906,3.69821311 57.1229783,3.5605082 58.7570506,3.42427869 C60.7625928,3.25608197 62.7656651,3.04952459 64.7652795,2.8267377 C66.0654241,2.68165574 67.3665566,2.53804918 68.6671952,2.38903279 C69.3128217,2.31477049 69.9594361,2.24198361 70.6060506,2.16919672 C70.6732313,2.16181967 70.740906,2.15542623 70.8085807,2.14854098 C70.0903398,3.12477049 69.3730867,4.10247541 68.6385446,5.06640984 C66.2546169,8.13181967 63.8869904,11.211 61.5134361,14.2842787 C58.4428819,18.0569016 55.3555325,21.8162459 52.2696651,25.5775574 C51.9258578,25.996082 51.5830386,26.4165738 51.2397253,26.836082 C50.9547012,27.1832951 50.6701711,27.5314918 50.385147,27.8796885 C50.0956771,28.2337869 49.8249783,28.5977213 49.5611952,28.9729672 C49.278641,29.3747705 49.4046048,29.9806721 49.7345807,30.3087049 C49.8872193,30.4611639 50.0848096,30.5605082 50.2932675,30.6037869 C50.3006771,30.6091967 50.3090747,30.6155902 50.3159904,30.6205082 C50.5155566,30.7596885 50.7373518,30.8491967 50.9680386,30.923459 C51.1967494,30.9982131 51.4417614,31.0277213 51.6783759,31.0621475 C51.9826651,31.1069016 52.2844843,31.161 52.5877855,31.2072295 C53.1840145,31.2991967 53.7861711,31.3552623 54.3868458,31.4029672 C54.463412,31.4088689 54.5399783,31.4147705 54.6160506,31.4211639 C54.6027133,31.4408361 54.5874,31.4595246 54.5740627,31.4791967 C54.4974964,31.5903443 54.4382193,31.7000164 54.3858578,31.8224754 C54.3191711,31.9346066 54.2811349,32.053623 54.2712554,32.1814918 C54.2490265,32.3093607 54.2351952,32.4387049 54.2287735,32.568541 C54.1966651,33.0480492 54.6570506,33.4503443 55.1154602,33.4503443 C55.3496048,33.4503443 55.5768337,33.3564098 55.7428096,33.1921475 C55.920641,33.0141148 55.9784361,32.8100164 56.002147,32.568541 C56.0031349,32.5611639 56.0036289,32.5537869 56.0041229,32.5469016 C56.0984723,32.3855902 56.2051711,32.2316557 56.3163157,32.0811639 C56.4432675,31.9208361 56.5707133,31.7614918 56.6961831,31.5996885 C56.6507373,31.6587049 56.6047976,31.7172295 56.5588578,31.7767377 C56.616653,31.7024754 56.6739542,31.6287049 56.7322434,31.5544426 C57.3427976,31.5888689 57.9533518,31.6228033 58.563906,31.6577213 C59.3824241,31.7029672 60.2014361,31.7378852 61.0199542,31.7772295 C61.8557614,31.8175574 62.6895928,31.8731311 63.5234241,31.9272295 C64.8102313,32.0103443 66.0925928,32.1328033 67.3754482,32.2601803 C68.2300265,32.3447705 69.0846048,32.4401803 69.9381952,32.5400164 L69.9367133,32.5419836 C69.7667855,32.8321475 69.757894,33.1193607 69.8097614,33.4365738 C68.3604361,34.768377 66.9125928,36.1026393 65.4775928,37.4506721 C63.7659663,39.058377 62.0666892,40.6813279 60.3382675,42.2723115 C58.5792193,43.8918197 56.8344964,45.5270656 55.0537133,47.123459 C53.0773157,48.8949344 51.0964723,50.6614918 49.1052554,52.4162459 C46.919412,54.3411639 44.6876289,56.2114918 42.5413036,58.1801803 C42.368412,58.3390328 42.2770265,58.5529672 42.2523277,58.7752623 C42.1253759,58.9129672 41.9974361,59.0501803 41.8714723,59.1888689 C41.3122916,59.8046066 40.7516289,60.4208361 40.2858096,61.1113279 C40.053147,61.456082 40.217641,61.9528033 40.5599663,62.1524754 C40.933412,62.3703443 41.3774964,62.2247705 41.6062072,61.8790328 C41.7277253,61.6955902 41.856159,61.5200164 41.9890386,61.3449344 C42.1629181,61.1388689 42.3402554,60.9357541 42.5175928,60.733623 C42.4899301,60.8452623 42.4731349,60.9608361 42.4731349,61.0778852 C42.4731349,61.453623 42.6252795,61.8175574 42.8920265,62.0831311 C43.1380265,62.3280492 43.5420988,62.5321475 43.9007253,62.4991967 C49.6229422,61.9665738 55.3436771,61.4157541 61.0476169,60.7164098 C62.1042313,60.5865738 63.1593639,60.4572295 64.2149904,60.318541 C64.4540747,60.2875574 64.694147,60.2570656 64.9337253,60.226082 L64.9411349,60.2673934 C61.0120506,63.7877213 57.1051952,67.3326393 53.1953759,70.8746066 C51.696159,72.2319836 50.1692795,73.5578852 48.6493157,74.8916557 C47.3560867,76.0252623 46.0633518,77.1598525 44.7716048,78.2944426 C44.2746651,78.7306721 43.783653,79.1737869 43.2793036,79.6001803 C39.5468217,82.758541 35.8212554,85.9262459 32.0660506,89.0600164 C28.0865807,92.3826393 24.1189663,95.7180492 20.1543157,99.058377 C16.497412,102.139033 12.870641,105.254607 9.24930361,108.376574 C8.20602651,109.276574 7.16373735,110.178541 6.12144819,111.079525 C5.78653253,111.369689 5.45013494,111.659361 5.1147253,111.949033 C4.7887012,112.231328 4.46267711,112.512148 4.13714699,112.793459 C4.07095422,112.850508 4.00525542,112.907557 3.93955663,112.964115 C3.86150843,113.031984 3.78395422,113.101328 3.7064,113.169197 C3.58191807,113.230672 3.45694217,113.292148 3.33246024,113.353623 C3.34233976,113.337885 3.3517253,113.321656 3.36160482,113.305918 C3.43323133,113.184934 3.50041205,113.057066 3.5814241,112.941492 M22.7467012,76.1846066 C21.5087976,76.6178852 20.271388,77.0511639 19.0344723,77.4854262 C18.6328699,77.626082 18.2292916,77.7613279 17.8252193,77.8950984 C17.4537494,77.0939508 17.0975928,76.285918 16.7360024,75.4813279 C16.4134361,74.7637869 16.0943277,74.0442787 15.7771952,73.3247705 C16.5013639,73.0941148 17.2443036,72.9244426 17.9813157,72.738541 C18.5414843,72.598377 19.101159,72.4591967 19.6613277,72.3190328 C20.8809542,72.0155902 22.1094723,71.7421475 23.3350265,71.4618197 C23.8033157,71.3550984 24.2800024,71.2778852 24.7512554,71.1878852 C25.4057735,71.0624754 26.0602916,70.9375574 26.7148096,70.8121475 C27.2389181,70.7113279 27.7748819,70.6537869 28.3024482,70.5755902 C28.8576771,70.4924754 29.4134,70.4098525 29.9696169,70.3277213 C31.0578458,70.2096885 32.1465687,70.0926393 33.2347976,69.976082 C33.5430386,69.9431311 33.8542434,69.9278852 34.1654482,69.9131311 C33.7687855,70.4570656 33.3721229,71.0005082 32.9754602,71.5439508 C32.7329181,71.8764098 32.4864241,72.2069016 32.2424,72.5393607 C32.1776892,72.5442787 32.1139663,72.5550984 32.0566651,72.5782131 C29.9587494,73.4339508 27.8415687,74.2498525 25.7273518,75.0642787 C24.7359422,75.4464098 23.7489783,75.8329672 22.7467012,76.1846066 M29.2750867,54.133623 C27.9206048,54.3947705 26.5562434,54.6023115 25.1904,54.7872295 C24.410412,54.8905082 23.6304241,54.9913279 22.8484602,55.075918 C22.566894,55.1064098 22.2838458,55.1319836 22.0012916,55.1555902 C21.7513398,54.4975574 21.5339904,53.8247705 21.3057735,53.1588689 C21.1477012,52.6965738 20.988147,52.2332951 20.8300747,51.7700164 C20.5959301,51.0873934 20.3622795,50.4052623 20.1286289,49.7226393 C20.4991108,49.6429672 20.8705807,49.5691967 21.2420506,49.5003443 C22.2003639,49.3232951 23.161641,49.1782131 24.125388,49.0341148 C25.1587855,48.9067377 26.1926771,48.7591967 27.2295325,48.6701803 C28.0436048,48.6003443 28.8586651,48.5300164 29.6727373,48.4611639 C30.131147,48.4218197 30.5905446,48.3682131 31.0489542,48.3446066 C32.4908699,48.268377 33.9313036,48.1921475 35.3722313,48.115918 C36.5720988,48.0519836 37.776412,48.0406721 38.9767735,48.0057541 C39.2706892,47.9969016 39.5650988,47.9914918 39.8585205,47.9831311 C39.5097735,48.3042787 39.1733759,48.6391967 38.8256169,48.9613279 C38.4027735,49.3547705 37.983388,49.7511639 37.5536289,50.1382131 C36.6857133,50.9211639 35.8212554,51.708541 34.9404964,52.4782131 C34.7893398,52.6100164 34.6381831,52.7423115 34.4870265,52.8741148 C34.0770265,52.9803443 33.6675205,53.0855902 33.2580145,53.1928033 C31.9381108,53.5405082 30.6162313,53.8749344 29.2750867,54.133623 M71.3420747,6.52706557 C71.3850506,6.8767377 71.417159,7.23083607 71.4734723,7.57952459 C71.5139783,7.82739344 71.5431229,8.07919672 71.5944964,8.32559016 C71.7254,8.95263934 71.8755687,9.56542623 72.0751349,10.1747705 C72.1749181,10.4801803 72.4189422,10.7054262 72.7123639,10.7767377 C70.7023759,13.0857541 68.6958458,15.3972295 66.7105566,17.728377 C64.7702193,20.005918 62.8125928,22.2706721 60.9498096,24.6121475 C60.5541349,25.1093607 60.1594482,25.6070656 59.7697012,26.1087049 C59.651641,26.0482131 59.5212313,26.0123115 59.3868699,26.0123115 C59.1873036,26.0123115 58.9250024,26.0924754 58.7945928,26.2562459 C58.0822795,27.1488689 57.3694723,28.041 56.6462916,28.9247705 C56.3350867,29.3054262 56.023388,29.6865738 55.7092193,30.0647705 C55.7008217,30.0750984 55.6924241,30.0854262 55.6840265,30.0957541 C54.6847133,30.0662459 53.6819422,30.018541 52.6900386,29.8931311 C52.4237855,29.8567377 52.1580265,29.8223115 51.8912795,29.7878852 C52.4371229,29.658541 52.9943277,29.5670656 53.541653,29.4623115 C53.8632313,29.3998525 54.0425446,29.0216557 53.9605446,28.7255902 C53.9195446,28.5765738 53.8192675,28.4462459 53.684906,28.368541 C53.5890747,28.3124754 53.4912675,28.2903443 53.3900024,28.2903443 C53.3351711,28.2903443 53.2793518,28.2967377 53.2220506,28.3080492 C53.1835205,28.3154262 53.1449904,28.3223115 53.1064602,28.3296885 C53.5253518,27.863459 53.9437494,27.3962459 54.3636289,26.9295246 C54.5429422,26.7303443 54.6565566,26.5041148 54.6610024,26.2326393 C55.2088217,25.5662459 55.7546651,24.8988689 56.3019904,24.2324754 C57.7962675,22.4128033 59.2841229,20.5887049 60.7734602,18.7646066 C61.3375807,18.0746066 61.9021952,17.383623 62.4658217,16.6926393 C62.6984843,16.4088689 62.9346048,16.1275574 63.1618337,15.8393607 C63.1519542,15.8521475 63.1415807,15.8654262 63.1321952,15.8782131 L63.1959181,15.796082 C63.217653,15.768541 63.239388,15.7405082 63.2601349,15.7129672 C65.7063036,12.5678852 68.1327133,9.40657377 70.5675205,6.25460656 C70.5250386,6.30968852 70.4820627,6.36477049 70.4390867,6.41985246 C70.7023759,6.0805082 70.9622072,5.73870492 71.2200627,5.39444262 C71.2556289,5.77263934 71.295641,6.15034426 71.3420747,6.52706557 M71.746641,43.7295246 C71.7619542,43.798377 71.7881349,43.8632951 71.8187614,43.9252623 C71.1321349,44.3270656 70.4692193,44.7716557 69.8077855,45.2113279 C69.0559542,45.711 68.3070867,46.2155902 67.5710627,46.7373934 C65.9631711,47.8769016 64.3908458,49.0631311 62.8190145,50.2508361 C62.171412,50.7391967 61.5213398,51.226082 60.8722554,51.7129672 C60.1554964,52.2490328 59.4446651,52.7949344 58.7209904,53.3216557 C57.2114,54.4232951 55.7102072,55.5362459 54.1838217,56.6152623 C53.5470867,57.0662459 52.9093639,57.5172295 52.271641,57.9682131 C51.922894,58.2146066 51.5776048,58.4693607 51.225894,58.7142787 C51.1009181,58.7128033 50.9700145,58.7403443 50.8786289,58.8091967 C50.7872434,58.8780492 50.6958578,58.9473934 50.6039783,59.0167377 C48.3964,59.2311639 46.1883277,59.443623 43.9792675,59.6491967 C43.9856892,59.6432951 43.9926048,59.638377 43.9985325,59.6319836 C45.957641,58.1049344 47.8283277,56.4755902 49.6970386,54.8423115 C51.3454361,53.4032951 52.9765446,51.9446066 54.6037012,50.4829672 C55.5007614,49.6764098 56.4091831,48.8811639 57.2958699,48.0623115 L60.1801952,45.4011639 C61.9496169,43.7678852 63.7052072,42.1208361 65.4603036,40.4713279 C67.052388,38.9737869 68.6538578,37.486082 70.2587855,36.0018197 C70.7137373,38.5857541 71.1835084,41.1672295 71.746641,43.7295246 M66.1449542,67.101 C66.3351349,68.1077213 66.5223518,69.1139508 66.722906,70.1191967 C66.8794964,70.9080492 67.0355928,71.698377 67.2223157,72.4813279 C66.9096289,72.5226393 66.6295446,72.6470656 66.3474843,72.8078852 C66.1138337,72.9406721 65.882159,73.0773934 65.6499904,73.2141148 C65.2093639,73.4732951 64.7667614,73.7300164 64.325641,73.9872295 C63.2566771,74.6108361 62.1906771,75.235918 61.1246771,75.8629672 C60.2019301,76.405918 59.2831349,76.9523115 58.3687855,77.508541 C57.2864843,78.166082 56.2175205,78.8413279 55.1490506,79.5214918 C53.3756771,80.6496885 51.6319422,81.8265738 49.8970988,83.0113279 C47.8693277,84.3947705 45.8430386,85.7787049 43.8172434,87.1646066 C39.868894,89.8655902 35.9022675,92.5390328 31.9504602,95.2350984 C27.9932193,97.9355902 24.0957494,100.723131 20.188894,103.495426 C19.5225205,103.967557 18.8571349,104.43182 18.178906,104.883787 C16.9686651,105.690836 15.7574361,106.497393 14.5471952,107.304934 C14.3293518,107.450016 14.0976771,107.57641 13.8709422,107.709197 C13.5404723,107.903951 13.2095084,108.097721 12.8785446,108.291984 C13.8477253,107.44559 14.817894,106.599689 15.7949783,105.762639 C19.8549663,102.283623 23.9238458,98.8139508 28.0011229,95.3521475 C31.2717373,92.5744426 34.5769301,89.8355902 37.8455687,87.0539508 C40.1460145,85.0970656 42.4459663,83.1396885 44.7459181,81.1832951 C45.2092675,80.788377 45.6617494,80.3801803 46.1167012,79.9773934 C47.3862193,78.858541 48.6537614,77.7382131 49.9227855,76.6193607 C51.4625084,75.2600164 53.0126048,73.9124754 54.5300988,72.5290328 C56.6181349,70.6252623 58.707159,68.7214918 60.7961831,66.8167377 C62.3126892,65.4347705 63.833641,64.0577213 65.3580506,62.683623 C65.6114602,64.1575574 65.8678337,65.631 66.1449542,67.101 M12.5880867,111.303295 C13.2974361,110.885754 14.0067855,110.467721 14.7171229,110.049197 C15.0377133,109.860836 15.3755928,109.686738 15.6853157,109.479197 C17.4680747,108.28559 19.2740506,107.121 21.0237133,105.879197 C22.9462675,104.515918 24.8663518,103.147721 26.7953277,101.792311 C28.7559181,100.415754 30.7110747,99.0323115 32.692906,97.6862459 C34.6722675,96.3411639 36.6521229,94.9970656 38.6369181,93.6598525 C42.6613398,90.9450984 46.6699542,88.2057541 50.6800506,85.468377 C51.4644843,84.9332951 52.2484241,84.3991967 53.0377976,83.8719836 C54.0247614,83.2124754 55.0057976,82.5416557 56.002147,81.8973934 C57.0246771,81.2364098 58.0447373,80.5700164 59.076159,79.9242787 C60.1154843,79.273623 61.1582675,78.6293607 62.2010506,77.9846066 C63.2117253,77.3605082 64.221906,76.7339508 65.2251711,76.0975574 C65.7206289,75.7842787 66.2175687,75.4700164 66.6962313,75.1311639 C66.9229663,74.9713279 67.1482193,74.8105082 67.3739663,74.6501803 C67.7029542,74.4175574 68.0788699,74.1721475 68.240894,73.7939508 C68.3752554,73.8121475 68.5145566,73.8042787 68.6504,73.7673934 C68.9122072,73.6955902 69.1394361,73.5214918 69.2762675,73.288377 C69.4239663,73.0370656 69.4442193,72.7631311 69.3819783,72.4837869 C69.1656169,71.5100164 68.9912434,70.5264098 68.8109422,69.5457541 C68.6257012,68.5375574 68.4434241,67.5288689 68.261147,66.5201803 C67.9257373,64.6655902 67.6031711,62.808541 67.2810988,60.9514918 C67.3458096,60.8929672 67.4105205,60.8344426 67.4757253,60.7764098 C67.7528458,60.5275574 67.8284241,60.1390328 67.7400024,59.7928033 C68.1949542,59.6354262 68.5051711,59.1269016 68.5051711,58.666082 C68.5051711,58.0331311 67.9701952,57.4582131 67.3225928,57.4582131 C67.3122193,57.4582131 67.3013518,57.4582131 67.2909783,57.4587049 C65.965641,57.4970656 64.6388217,57.646082 63.3179301,57.7606721 C62.1402916,57.8639508 60.9641349,57.9839508 59.7879783,58.096082 C57.764653,58.2893607 55.7433036,58.5096885 53.7209663,58.7118197 C53.8849663,58.5987049 54.0484723,58.4850984 54.2124723,58.3719836 C54.8358699,57.9401803 55.4617373,57.5113279 56.0801952,57.0716557 C57.6979663,55.9208361 59.3162313,54.771 60.9251108,53.6088689 C61.640388,53.093459 62.3536892,52.5746066 63.0704482,52.0616557 C63.8761229,51.4847705 64.672906,50.8916557 65.4889542,50.3295246 C66.2412795,49.8111639 66.9852072,49.278541 67.7513639,48.7798525 C68.1766771,48.5029672 68.5955687,48.2167377 69.0268096,47.9487049 C69.4333518,47.6973934 69.839894,47.446082 70.2449542,47.1928033 C71.2501952,46.5677213 72.2747012,45.9687049 73.2992072,45.3741148 C73.7571229,45.1075574 73.9211229,44.5105082 73.673147,44.0477213 C73.795653,43.8706721 73.8840747,43.6444426 73.8598699,43.4447705 C73.4745687,40.2996885 72.9183518,37.1777213 72.3670747,34.0577213 C72.5755325,33.865918 72.7830024,33.6726393 72.9919542,33.4813279 C73.4315928,33.078541 73.4019542,32.3452623 72.9919542,31.9375574 C72.8007855,31.7472295 72.5631831,31.6508361 72.319653,31.6316557 C72.3008819,31.5239508 72.2663036,31.4182131 72.2104843,31.3228033 C72.1018096,31.138377 71.8785325,30.9278852 71.6542675,30.8973934 C70.679653,30.7641148 69.7040506,30.6450984 68.7254843,30.5408361 C67.8694241,30.4498525 67.010894,30.3982131 66.1518699,30.3475574 C65.4331349,30.3047705 64.7109422,30.2826393 63.9912193,30.2678852 C63.1618337,30.2501803 62.3319542,30.2300164 61.5020747,30.2196885 C60.3832193,30.2049344 59.2638699,30.1975574 58.1450145,30.166082 C58.0388096,30.1631311 57.9330988,30.1601803 57.826894,30.1572295 C58.1030265,29.8080492 58.379653,29.4593607 58.6547976,29.1106721 C58.8010145,29.1687049 58.9630386,29.1819836 59.1156771,29.1396885 C59.3127735,29.0855902 59.4298458,28.966082 59.547412,28.8087049 C60.1520386,28.0055902 60.7349301,27.1877213 61.332147,26.3796885 C61.9017012,25.608541 62.4826169,24.8472295 63.0674843,24.0869016 C64.8611108,21.8447705 66.7130265,19.6488689 68.5753157,17.4637869 C70.454894,15.2590328 72.3532434,13.0714918 74.2545566,10.885918 C74.3666892,10.7590328 74.4368337,10.6223115 74.4368337,10.4487049 C74.4368337,10.2849344 74.3711349,10.1265738 74.2545566,10.0114918 C74.1384723,9.89542623 73.9675566,9.831 73.7991108,9.831 C73.7857735,9.831 73.7724361,9.83395082 73.7586048,9.83493443 C73.7526771,9.79608197 73.7472434,9.75772131 73.7344,9.71936066 C73.4562916,8.91821311 73.2448699,8.10477049 73.0645687,7.27706557 C72.9119301,6.5767377 72.8037494,5.86854098 72.688159,5.16083607 C72.6550627,4.89280328 72.6224602,4.62477049 72.5888699,4.3567377 C72.5720747,4.21854098 72.5557735,4.08083607 72.5379904,3.94362295 C72.5261349,3.84821311 72.5142795,3.75280328 72.5024241,3.65739344 C72.8304241,3.21034426 73.1579301,2.76329508 73.487906,2.31821311 C73.6603036,2.08706557 73.6756169,1.71280328 73.6020145,1.4467377 C73.5842313,1.38231148 73.5590386,1.32083607 73.530388,1.26083607 C73.5432313,1.19739344 73.550641,1.13345902 73.550641,1.06854098 C73.550641,0.802967213 73.4434482,0.544770492 73.2552434,0.357393443 C73.1870747,0.304770492 73.118906,0.252147541 73.0512313,0.200016393 C72.8926651,0.108540984 72.7232313,0.063295082 72.5409542,0.0623114754 C72.2075205,0.0200163934 71.8716169,0.000344262295 71.5362072,0.000344262295 C71.2709422,0.000344262295 71.0061711,0.012147541 70.7414,0.0352622951 C70.1802434,0.0824754098 69.6195807,0.128704918 69.0604,0.185754098 C67.7567976,0.318540984 66.4531952,0.456245902 65.1510747,0.594934426 C63.1949301,0.802967213 61.2377976,1.01837705 59.2772072,1.18214754 C57.6910506,1.31444262 56.105388,1.4467377 54.5187373,1.58001639 C53.8395205,1.63706557 53.1603036,1.69263934 52.4815807,1.74968852 C52.2642313,1.76837705 52.0468819,1.79198361 51.8290386,1.80329508 C49.2228217,1.9405082 46.6166048,2.07919672 44.010388,2.21640984 C42.5556289,2.29362295 41.1008699,2.37083607 39.6451229,2.44755738 C37.4271711,2.56509836 35.2052675,2.63493443 32.9848458,2.72345902 C32.3836771,2.74804918 31.8803157,3.20591803 31.8803157,3.82411475 C31.8803157,4.40591803 32.3826892,4.94886885 32.9848458,4.92427869 C33.2837012,4.91247541 33.5825566,4.90116393 33.881412,4.88985246 C33.5894723,5.53804918 33.2960506,6.1852623 33.0041108,6.83296721 C32.9053157,7.05329508 32.9379181,7.30706557 33.164159,7.43886885 C33.2081229,7.46444262 33.2580145,7.48116393 33.3108699,7.49001639 C32.467159,10.1678852 31.6041831,12.8398525 30.7407133,15.5118197 C30.4976771,16.2647705 30.2348819,17.0118197 29.9790024,17.7603443 C29.6855807,18.6214918 29.4064843,19.4890328 29.0937976,20.3447705 C28.6773759,21.4847705 28.2604602,22.6242787 27.8430506,23.7642787 C27.5392554,24.5988689 27.2073036,25.423623 26.8881952,26.2523115 C26.6357735,26.9054262 26.3912554,27.5629672 26.1294482,28.2131311 C25.7288337,29.2041148 25.3287133,30.196082 24.9276048,31.1875574 C24.3669422,32.5754262 23.7786169,33.9514918 23.201159,35.3329672 C22.2057976,37.6355902 21.2193277,39.9401803 20.2486651,42.2531311 C19.7784,43.3532951 19.3027012,44.4495246 18.795388,45.533459 C18.7104241,45.7149344 18.6195325,45.893459 18.5301229,46.0724754 C18.3621711,45.9864098 18.1759422,45.9401803 17.9882313,45.9401803 C17.8835084,45.9401803 17.7782916,45.9539508 17.6765325,45.9819836 C17.0847494,46.1447705 16.6451108,46.8205082 16.8525807,47.4269016 C16.9276651,47.6457541 17.0027494,47.8650984 17.0778337,48.0844426 C16.9765687,48.1724754 16.8891349,48.2737869 16.8189904,48.3923115 C16.6490627,48.6814918 16.6021349,49.033623 16.6920386,49.3567377 C16.7631711,49.6124754 16.9276651,49.8421475 17.1400747,50.0098525 C17.2502313,50.2439508 17.4270747,50.448541 17.646894,50.5764098 C17.749641,50.635918 17.8607855,50.6742787 17.975388,50.7028033 C18.1922434,51.3357541 18.4090988,51.9687049 18.6259542,52.6011639 C18.8186048,53.1632951 19.019159,53.7229672 19.2147735,54.283623 C19.3170265,54.5732951 19.4168096,54.8629672 19.5244964,55.1501803 C19.5620386,55.2480492 19.6010627,55.3449344 19.6386048,55.4423115 C19.5595687,55.4846066 19.4825084,55.5347705 19.4123639,55.6055902 C19.2192193,55.7973934 19.1095566,56.061 19.1095566,56.3324754 C19.1095566,56.6049344 19.2192193,56.8680492 19.4123639,57.0603443 C19.5916771,57.2388689 19.881641,57.3839508 20.1429542,57.3613279 C20.2748458,57.3500164 20.4072313,57.3401803 20.5391229,57.3293607 C20.6063036,57.4287049 20.6754602,57.5265738 20.7470867,57.623459 C20.927388,57.865918 21.110159,58.0508361 21.4144482,58.1339508 C21.7019422,58.2126393 22.0156169,58.1723115 22.2734723,58.0218197 C22.5910988,57.8369016 22.7946169,57.4911639 22.8237614,57.1331311 C23.4738337,57.0667377 24.1224241,56.9850984 24.7705205,56.9024754 C26.3971831,56.6949344 28.0223639,56.458377 29.6351952,56.1598525 C30.1069422,56.0728033 30.5762193,55.9729672 31.0440145,55.8682131 C30.3880145,56.4278852 29.7275687,56.9826393 29.0715687,57.5408361 C27.9655566,58.4801803 26.8610265,59.4200164 25.7564964,60.3588689 C23.795906,62.026082 21.8422313,63.7001803 19.8850988,65.3708361 C17.8820265,67.0803443 15.883894,68.7957541 13.8862554,70.5126393 C13.6476651,70.7172295 13.5217012,71.0703443 13.5123157,71.3787049 C13.2727373,71.5282131 13.0934241,71.7632951 13.0183398,72.0342787 C13.0045084,72.1350984 12.9906771,72.2349344 12.9773398,72.3347705 C12.9783277,72.5388689 13.0292072,72.7287049 13.1324482,72.9057541 C14.0290145,74.9629672 14.8929783,77.0491967 15.9357614,79.0400164 C15.8957494,79.2091967 15.8927855,79.3862459 15.9397133,79.555918 C16.0780265,80.0575574 16.6347373,80.4278852 17.1563759,80.298541 C17.3811349,80.3211639 17.6123157,80.2808361 17.8128699,80.1647705 C17.8830145,80.123459 17.9462434,80.0728033 18.0055205,80.0172295 C19.3565446,79.5632951 20.7046048,79.1039508 22.0516771,78.6362459 C23.0351831,78.2949344 24.0181952,77.9565738 24.9913277,77.5872295 C26.6486169,76.9567377 28.3029422,76.3203443 29.945906,75.6564098 C27.6232313,78.7857541 25.2961108,81.9121475 22.9571349,85.0306721 C21.1704241,87.4124754 19.389641,89.7987049 17.5881108,92.1701803 C17.565388,92.1962459 17.543653,92.2242787 17.523894,92.2547705 C17.1479783,92.7495246 16.7710747,93.2432951 16.3931831,93.7365738 C13.8600747,97.0400164 11.3417855,100.356246 8.79286988,103.647885 C7.22449639,105.674115 5.65513494,107.699852 4.08676145,109.727066 C4.11491807,109.691656 4.1430747,109.655262 4.17024337,109.619852 C3.90300241,109.967557 3.66293012,110.33641 3.41248434,110.69641 C3.06571325,111.19559 2.71943614,111.69477 2.37217108,112.193459 C2.31783373,112.270672 2.27288193,112.353295 2.22397831,112.433459 C2.05503855,112.715754 1.8860988,112.997557 1.71765301,113.278869 C1.50129157,113.639852 1.28789398,114.00182 1.07746024,114.365262 C0.921363855,114.431656 0.765761446,114.498541 0.610159036,114.56641 C0.334520482,114.685918 0.120628916,115.023295 0.0440626506,115.299197 C-0.0438650602,115.615918 0.00108674699,115.962148 0.168050602,116.244934 C0.329086747,116.519852 0.596327711,116.724934 0.904074699,116.809033 C1.01423133,116.823787 1.12290602,116.838541 1.2320747,116.852803 C1.45485783,116.852803 1.66232771,116.796738 1.85448434,116.685098 C2.7224,116.306902 3.60266506,115.953295 4.45279759,115.533787 C5.02778554,115.249033 5.60326747,114.96477 6.17924337,114.680016 C7.51050843,114.021492 8.84325542,113.362967 10.1750145,112.704443 C10.3726048,112.606082 10.5603157,112.497885 10.7509904,112.385754 C11.3630265,112.02477 11.9755566,111.664279 12.5880867,111.303295" id="Fill-54" fill="#161616"></path>
        </g>
    </g>
</svg>