<?xml version="1.0" encoding="UTF-8"?>
<svg width="120px" height="120px" viewBox="0 0 120 120" version="1.1" xmlns="http://www.w3.org/2000/svg" xmlns:xlink="http://www.w3.org/1999/xlink">
    <!-- Generator: Sketch 51.1 (57501) - http://www.bohemiancoding.com/sketch -->
    <title>Prince1</title>
    <desc>Created with Sketch.</desc>
    <defs></defs>
    <g id="Prince1" stroke="none" stroke-width="1" fill="none" fill-rule="evenodd">
        <g id="Group-99" transform="translate(32.000000, 2.000000)">
            <path d="M55.8111105,100.690347 C55.8111105,69.2861491 43.3735842,43.8276113 28.0314263,43.8276113 C12.6892684,43.8276113 0.251742105,69.2861491 0.251742105,100.690347 C0.251742105,100.690347 12.5496368,105.628998 27.3494789,105.628998 C43.0755316,105.628998 55.8111105,100.690347 55.8111105,100.690347" id="Fill-240" fill="#E53935"></path>
            <path d="M18.7648263,91.3609217 L18.9899316,108.904667 C18.9899316,108.904667 16.8317211,113.904393 19.4791947,115.490884 C19.4791947,115.490884 23.8810895,111.479403 24.0089316,109.781799 L25.3949316,91.3609217 L18.7648263,91.3609217 Z" id="Fill-242" fill="#FFE094"></path>
            <path d="M24.7664053,111.649384 L24.7664053,103.425903 L18.4988263,103.425903 L18.4988263,110.415733 C16.0561947,111.693535 14.1975105,113.850308 14.1975105,114.908459 C14.1975105,116.166761 16.6699842,117.036167 19.8070895,116.502308 C23.3314053,115.902592 25.2335632,115.068139 25.2335632,112.641676 C25.2335632,112.292884 25.0674053,111.955865 24.7664053,111.649384" id="Fill-244" fill="#757575"></path>
            <path d="M18.4010842,114.334644 C17.5246105,114.826559 16.5464526,114.750399 16.2167158,114.164295 C15.8866105,113.577824 16.3294526,112.704003 17.2059263,112.21172 C18.0824,111.719805 19.0605579,111.795965 19.3906632,112.382437 C19.7207684,112.968541 19.2775579,113.842729 18.4010842,114.334644" id="Fill-246" fill="#BDBDBD"></path>
            <path d="M37.1180526,91.3609217 L36.8929474,108.904667 C36.8929474,108.904667 39.0511579,113.904393 36.4036842,115.490884 C36.4036842,115.490884 32.0017895,111.479403 31.8743158,109.781799 L30.4879474,91.3609217 L37.1180526,91.3609217 Z" id="Fill-248" fill="#FFE094"></path>
            <path d="M30.9513105,111.649384 L30.9513105,103.425903 L37.2192579,103.425903 L37.2192579,110.415733 C39.6615211,111.693535 41.5202053,113.850308 41.5202053,114.908459 C41.5202053,116.166761 39.0477316,117.036167 35.9106263,116.502308 C32.3863105,115.902592 30.4841526,115.068139 30.4841526,112.641676 C30.4841526,112.292884 30.6503105,111.955865 30.9513105,111.649384" id="Fill-250" fill="#757575"></path>
            <path d="M37.3166684,114.334644 C38.1931421,114.826559 39.1709316,114.750399 39.5014053,114.164295 C39.8311421,113.577824 39.3879316,112.704003 38.5114579,112.21172 C37.6349842,111.719805 36.6571947,111.795965 36.3270895,112.382437 C35.9973526,112.968541 36.4401947,113.842729 37.3166684,114.334644" id="Fill-252" fill="#BDBDBD"></path>
            <path d="M39.9798,45.6841953 L31.3856421,43.9748179 L31.3856421,38.1479972 L27.9412737,38.1479972 L24.4972737,38.1479972 L24.4972737,43.9748179 L15.9031158,45.6841953 C8.05390526,54.9260915 9.91258947,72.4437142 9.99253684,75.0633368 C10.0864842,78.1550066 13.5021158,81.3014972 13.5021158,81.3014972 C14.3108,79.7988934 14.2175895,77.8006953 13.9585895,76.2716009 C14.4596421,76.6207613 14.8932737,76.7572613 15.0900105,76.5817613 C15.4105368,76.295516 14.9828,75.296233 14.1354316,74.3491953 C13.8082737,73.9838462 13.4671158,73.6817802 13.1521158,73.4624972 C13.4965895,63.9354594 15.8769579,57.8363745 17.2349579,53.5162047 L18.5314316,70.53345 C18.5314316,70.53345 25.8409053,72.2130255 27.9412737,72.2130255 C30.0420105,72.2130255 37.3514842,70.53345 37.3514842,70.53345 L38.6479579,53.5162047 C40.0059579,57.8363745 42.3859579,63.9354594 42.7308,73.4624972 C42.4158,73.6817802 42.0750105,73.9838462 41.7474842,74.3491953 C40.8997474,75.296233 40.4727474,76.295516 40.7929053,76.5817613 C40.9896421,76.7572613 41.4232737,76.6207613 41.9243263,76.2716009 C41.6649579,77.8006953 41.5721158,79.7988934 42.3808,81.3014972 C42.3808,81.3014972 45.7964316,78.1550066 45.8903789,75.0633368 C45.9703263,72.4437142 47.8290105,54.9260915 39.9798,45.6841953" id="Fill-254" fill="#FFE094"></path>
            <path d="M39.9798,45.6841953 L34.0283263,44.5005821 C32.4161158,46.0833934 30.2822211,47.0477236 27.9412737,47.0477236 C25.6006947,47.0477236 23.4668,46.0833934 21.8545895,44.5005821 L15.9031158,45.6841953 C9.44653684,53.2862519 8.88285263,66.4862802 9.17022105,72.3892613 L14.2146421,72.3892613 C14.6913789,63.4748179 15.9289053,57.6715443 17.2349579,53.5162047 L18.5314316,70.53345 C18.5314316,70.53345 23.5839579,72.2130255 27.9412737,72.2130255 C32.7919053,72.2130255 37.3514842,70.53345 37.3514842,70.53345 L38.6479579,53.5162047 C39.9543789,57.6715443 41.1915368,63.4748179 41.6679053,72.3892613 L46.8994842,72.3892613 C47.1868526,66.4862802 46.4360105,53.2862519 39.9798,45.6841953" id="Fill-256" fill="#0288D1"></path>
            <path d="M39.9798,45.6841953 L34.0283263,44.5005821 C32.4161158,46.0833934 30.2822211,47.0477236 27.9412737,47.0477236 C25.6006947,47.0477236 23.4668,46.0833934 21.8545895,44.5005821 L15.9031158,45.6841953 C9.44653684,53.2862519 8.88285263,66.4862802 9.17022105,72.3892613 L14.2146421,72.3892613 C14.6913789,63.4748179 15.9289053,57.6715443 17.2349579,53.5162047 L18.5314316,70.53345 C18.5314316,70.53345 23.5839579,72.2130255 27.9412737,72.2130255 C32.7919053,72.2130255 37.3514842,70.53345 37.3514842,70.53345 L38.6479579,53.5162047 C39.9543789,57.6715443 41.1915368,63.4748179 41.6679053,72.3892613 L46.8994842,72.3892613 C47.1868526,66.4862802 46.4360105,53.2862519 39.9798,45.6841953" id="Fill-258" fill="#0288D1"></path>
            <path d="M27.9350474,69.9375594 C24.1218895,69.9375594 19.8143105,68.7381255 18.3608895,68.2977198 L18.5314684,70.5335972 C18.5314684,70.5335972 23.5836263,72.2128047 27.9413105,72.2128047 C32.7919421,72.2128047 37.3515211,70.5335972 37.3515211,70.5335972 L37.5209947,68.3080217 C36.1512053,68.7568896 32.1457316,69.9375594 27.9350474,69.9375594" id="Fill-260" fill="#FDD835"></path>
            <path d="M13.1879632,47.7882453 C10.8414895,51.3766132 14.6800684,55.0691038 15.9927526,55.7696321 C17.3058053,56.4705283 16.9009105,52.854566 18.3303842,50.183434 C19.7598579,47.5123019 20.3743842,45.405934 19.0613316,44.7054057 C17.7486474,44.0045094 14.8458579,45.2525094 13.1879632,47.7882453" id="Fill-262" fill="#FDD835"></path>
            <path d="M42.6947316,47.7882453 C45.0412053,51.3766132 41.2026263,55.0691038 39.8903105,55.7696321 C38.5768895,56.4705283 38.9821526,52.854566 37.5523105,50.183434 C36.1228368,47.5123019 35.5083105,45.405934 36.8217316,44.7054057 C38.1344158,44.0045094 41.0368368,45.2525094 42.6947316,47.7882453" id="Fill-264" fill="#FDD835"></path>
            <path d="M37.3864474,70.5334868 C37.3864474,70.5334868 32.2849211,71.883034 28.0315,71.883034 C23.5839211,71.883034 18.5313947,70.5334868 18.5313947,70.5334868 C18.5313947,70.5334868 13.6059737,81.7540811 16.3138684,93.7337038 C16.3138684,93.7337038 24.2596053,94.9147415 26.5405,93.7337038 C26.5405,93.7337038 27.5094474,90.1655717 27.9589211,84.6375057 C28.4080263,90.1655717 29.3769737,93.7337038 29.3769737,93.7337038 C31.6578684,94.9147415 39.6039737,93.7337038 39.6039737,93.7337038 C42.3118684,81.7540811 37.3864474,70.5334868 37.3864474,70.5334868" id="Fill-266" fill="#689F38"></path>
            <path d="M46.4030737,25.86675 C46.4030737,34.6722877 38.1371789,41.4972877 27.9414947,41.4972877 C17.7454421,41.4972877 9.47991579,34.6722877 9.47991579,25.86675 C9.47991579,17.0612123 17.7454421,8.35685377 27.9414947,8.35685377 C38.1371789,8.35685377 46.4030737,17.0612123 46.4030737,25.86675" id="Fill-268" fill="#FFECB3"></path>
            <path d="M19.5450316,28.2501651 C19.5450316,29.1063255 18.8498211,29.8005991 17.9925053,29.8005991 C17.1348211,29.8005991 16.4399789,29.1063255 16.4399789,28.2501651 C16.4399789,27.3936368 17.1348211,26.6997311 17.9925053,26.6997311 C18.8498211,26.6997311 19.5450316,27.3936368 19.5450316,28.2501651" id="Fill-270" fill="#5D4037"></path>
            <path d="M36.3380316,28.2501651 C36.3380316,29.1063255 37.0328737,29.8005991 37.8905579,29.8005991 C38.7478737,29.8005991 39.4430842,29.1063255 39.4430842,28.2501651 C39.4430842,27.3936368 38.7478737,26.6997311 37.8905579,26.6997311 C37.0328737,26.6997311 36.3380316,27.3936368 36.3380316,28.2501651" id="Fill-272" fill="#5D4037"></path>
            <path d="M24.4973105,35.7741113 C25.1858895,37.3955547 26.4687316,38.4893943 27.9413105,38.4893943 C29.4142579,38.4893943 30.6971,37.3955547 31.3856789,35.7741113" id="Stroke-274" stroke="#EF5350" stroke-width="1.01612308" stroke-linecap="round" stroke-linejoin="round"></path>
            <path d="M15.2202105,32.1857802 C13.8986842,32.1857802 12.7009474,32.7060255 11.8130526,33.5485726 C13.5674737,36.2116104 16.2134737,38.3687519 19.4102632,39.7602425 C19.8906842,38.9982708 20.1728947,38.0986953 20.1728947,37.1317896 C20.1728947,34.4003179 17.9553684,32.1857802 15.2202105,32.1857802" id="Fill-276" fill="#FFCCBC"></path>
            <path d="M44.0698632,33.5484255 C43.1819684,32.7058783 41.9842316,32.185633 40.6627053,32.185633 C37.9275474,32.185633 35.7103895,34.4001708 35.7103895,37.1316425 C35.7103895,38.098916 35.9922316,38.9984915 36.4730211,39.7604632 C39.6694421,38.3686047 42.3154421,36.2118311 44.0698632,33.5484255" id="Fill-278" fill="#FFCCBC"></path>
            <path d="M46.4030737,25.86675 C46.4030737,27.1820802 45.9705474,22.6146651 42.5913895,21.0116179 C40.4468105,19.9943066 39.5946526,24.0767972 39.5946526,24.0767972 C39.5946526,24.0767972 37.9301263,20.333533 36.3381789,18.4806651 C34.0532316,15.8224104 32.0670737,15.2282123 32.0670737,15.2282123 C32.0670737,15.2282123 27.5402842,23.205184 20.1729684,20.9273632 C12.3038632,18.4942783 9.47991579,29.332967 9.47991579,25.86675 C9.47991579,17.0612123 14.9388105,6.66955189 27.9414947,6.66955189 C40.9581789,6.66955189 46.4030737,17.0612123 46.4030737,25.86675" id="Fill-280" fill="#EF6C00"></path>
            <polygon id="Fill-282" fill="#FDD835" points="38.7799263 13.1444349 29.9392947 10.4622651 29.2639789 0.147500943 33.0078737 5.1704066 37.9244526 0.0842179245 38.7412421 6.90958585 45.0858211 4.94781226"></polygon>
            <path d="M32.6585,51.3766132 C32.6585,52.0289434 32.1290789,52.5576509 31.4755,52.5576509 C30.8226579,52.5576509 30.2928684,52.0289434 30.2928684,51.3766132 C30.2928684,50.724283 30.8226579,50.1955755 31.4755,50.1955755 C32.1290789,50.1955755 32.6585,50.724283 32.6585,51.3766132" id="Fill-284" fill="#FDD835"></path>
            <path d="M32.6585,55.8581547 C32.6585,56.510117 32.1290789,57.0391925 31.4755,57.0391925 C30.8226579,57.0391925 30.2928684,56.510117 30.2928684,55.8581547 C30.2928684,55.2058245 30.8226579,54.677117 31.4755,54.677117 C32.1290789,54.677117 32.6585,55.2058245 32.6585,55.8581547" id="Fill-286" fill="#FDD835"></path>
            <path d="M32.6585,60.3395491 C32.6585,60.9918792 32.1290789,61.5205868 31.4755,61.5205868 C30.8226579,61.5205868 30.2928684,60.9918792 30.2928684,60.3395491 C30.2928684,59.6875868 30.8226579,59.1585113 31.4755,59.1585113 C32.1290789,59.1585113 32.6585,59.6875868 32.6585,60.3395491" id="Fill-288" fill="#FDD835"></path>
            <path d="M32.6585,64.8211274 C32.6585,65.4734575 32.1290789,66.0021651 31.4755,66.0021651 C30.8226579,66.0021651 30.2928684,65.4734575 30.2928684,64.8211274 C30.2928684,64.1687972 30.8226579,63.6400896 31.4755,63.6400896 C32.1290789,63.6400896 32.6585,64.1687972 32.6585,64.8211274" id="Fill-290" fill="#FDD835"></path>
            <path d="M25.7700579,51.3766132 C25.7700579,52.0289434 25.2406368,52.5576509 24.5874263,52.5576509 C23.9342158,52.5576509 23.4047947,52.0289434 23.4047947,51.3766132 C23.4047947,50.724283 23.9342158,50.1955755 24.5874263,50.1955755 C25.2406368,50.1955755 25.7700579,50.724283 25.7700579,51.3766132" id="Fill-292" fill="#FDD835"></path>
            <path d="M25.7700579,55.8581547 C25.7700579,56.510117 25.2406368,57.0391925 24.5874263,57.0391925 C23.9342158,57.0391925 23.4047947,56.510117 23.4047947,55.8581547 C23.4047947,55.2058245 23.9342158,54.677117 24.5874263,54.677117 C25.2406368,54.677117 25.7700579,55.2058245 25.7700579,55.8581547" id="Fill-294" fill="#FDD835"></path>
            <path d="M25.7700579,60.3395491 C25.7700579,60.9918792 25.2406368,61.5205868 24.5874263,61.5205868 C23.9342158,61.5205868 23.4047947,60.9918792 23.4047947,60.3395491 C23.4047947,59.6875868 23.9342158,59.1585113 24.5874263,59.1585113 C25.2406368,59.1585113 25.7700579,59.6875868 25.7700579,60.3395491" id="Fill-296" fill="#FDD835"></path>
            <path d="M25.7700579,64.8211274 C25.7700579,65.4734575 25.2406368,66.0021651 24.5874263,66.0021651 C23.9342158,66.0021651 23.4047947,65.4734575 23.4047947,64.8211274 C23.4047947,64.1687972 23.9342158,63.6400896 24.5874263,63.6400896 C25.2406368,63.6400896 25.7700579,64.1687972 25.7700579,64.8211274" id="Fill-298" fill="#FDD835"></path>
        </g>
    </g>
</svg>