<?xml version="1.0" encoding="UTF-8"?>
<svg width="120px" height="120px" viewBox="0 0 120 120" version="1.1" xmlns="http://www.w3.org/2000/svg" xmlns:xlink="http://www.w3.org/1999/xlink">
    <!-- Generator: Sketch 51.1 (57501) - http://www.bohemiancoding.com/sketch -->
    <title>Frog3</title>
    <desc>Created with Sketch.</desc>
    <defs>
        <polygon id="path-1" points="0 0.0379789846 45.8930973 0.0379789846 45.8930973 36.651553 0 36.651553"></polygon>
        <polygon id="path-3" points="0.387191062 0.135714106 47.8435955 0.135714106 47.8435955 38.7841073 0.387191062 38.7841073"></polygon>
    </defs>
    <g id="Frog3" stroke="none" stroke-width="1" fill="none" fill-rule="evenodd">
        <g id="Group" transform="translate(60.000000, 60.500000) scale(-1, 1) translate(-60.000000, -60.500000) translate(0.000000, 26.000000)">
            <g id="Group-3" transform="translate(0.000000, 20.000000)">
                <mask id="mask-2" fill="white">
                    <use xlink:href="#path-1"></use>
                </mask>
                <g id="Clip-2"></g>
                <path d="M0.203416279,28.3278435 C3.11157907,27.9487275 8.20367209,27.3213362 9.91048605,27.3390319 C12.3511605,27.364771 11.8494395,25.9491188 11.4445326,25.5710754 C10.6026256,24.7854957 6.35511395,22.3971188 3.43036977,20.792713 C3.11799767,20.6216551 3.22497442,20.172829 3.55713721,20.2629159 C10.8465326,22.2324957 23.6265093,23.0363072 28.7351837,22.8234232 C30.100207,22.7671188 30.8506488,21.4270754 30.2991837,20.0441333 C27.8093,13.8061478 27.1481837,0.891002899 32.9238581,0.102742029 C39.7425558,-0.82762029 43.2578116,8.5735971 43.2578116,8.5735971 C43.2578116,8.5735971 49.9363698,32.3506551 42.0297186,31.6219159 C33.3389279,30.8202493 28.4099744,31.1398435 23.7024628,32.7383507 C19.6635558,34.1089594 10.7031837,35.8833507 6.68995116,36.6464087 C6.37918372,36.704858 6.16148605,36.2490609 6.42732326,36.0989159 C10.5427186,33.7743507 13.7145791,30.8728 11.9291372,30.5553507 C10.4507186,30.2925971 3.80585814,29.3815391 0.295416279,28.9042928 C-0.0388860465,28.858713 -0.11697907,28.3696696 0.203416279,28.3278435" id="Fill-1" fill="#79B218" mask="url(#mask-2)"></path>
            </g>
            <path d="M32.9120492,20.0650781 C32.7528141,20.0866305 32.5984372,20.1189592 32.4489182,20.1588313 C31.2230785,24.8217061 29.5907847,33.7595114 32.7522744,40.3917423 C37.2205706,49.765985 31.986327,48.4146457 26.9059206,49.2438766 C21.8249744,50.0731075 15,54.448257 15,54.448257 C15,54.448257 15.0874443,54.6589323 15.2396622,55 C18.4394762,54.299545 21.6155399,53.5301222 23.6062473,52.8571466 C28.3573881,51.2514883 33.3309182,50.9303567 42.1012586,51.7353411 C50.0802819,52.4681247 43.3405927,28.5761447 43.3405927,28.5761447 C43.3405927,28.5761447 39.7937004,19.1302401 32.9120492,20.0650781" id="Fill-4" fill="#6EA00E"></path>
            <g id="Group-8" transform="translate(72.000000, 24.000000)">
                <mask id="mask-4" fill="white">
                    <use xlink:href="#path-3"></use>
                </mask>
                <g id="Clip-7"></g>
                <path d="M47.6099596,30.87045 C44.599982,30.2897833 39.3291506,29.3082833 37.5865888,29.2091583 C35.0954427,29.0667 35.4611056,27.6794917 35.8359371,27.3284917 C36.6136449,26.5972417 40.7055101,24.4928667 43.5267236,23.08345 C43.8276674,22.9328667 43.6723416,22.4751583 43.3428135,22.542325 C40.2384539,23.1739083 37.0300045,23.0693667 33.8814202,23.0780333 C28.0475326,23.0953667 22.5717573,24.4327417 16.8937348,25.5669917 C16.3161169,25.6839917 15.8140045,25.69645 15.2789933,25.834575 C12.0732404,26.6611583 12.8428584,25.2322417 14.0131955,23.7329083 C15.3604315,22.0066167 15.9477573,20.6757417 15.9925213,20.5002417 C15.9941393,20.4942833 15.995218,20.4877833 15.9973753,20.4812833 C17.8925663,14.3907833 17.2259596,1.47040833 11.2426787,0.28145 C4.17966742,-1.12200833 1.56501573,8.073325 1.56501573,8.073325 C1.56501573,8.073325 -2.77817528,30.8709917 5.21571236,31.2962 C14.6350382,31.7967 18.8353079,32.5826583 24.0565213,33.6789917 C29.3467685,34.7894083 37.6674876,37.732825 41.8467236,38.77445 C42.1697798,38.8546167 42.3466787,38.4142417 42.0597573,38.2452417 C37.6119371,35.6273667 34.066409,32.4943667 35.8585888,32.298825 C37.3422742,32.136325 44.0396225,31.6791583 47.575982,31.44245 C47.9125213,31.4197 47.9411056,30.9343667 47.6099596,30.87045" id="Fill-6" fill="#79B218" mask="url(#mask-4)"></path>
            </g>
            <path d="M112,62 C111.93571,61.9719067 90.0135135,52.5239063 82.93572,52.5444361 C75.8476619,52.5649658 78.3133553,49.381236 78.3133553,49.381236 C78.3133553,49.381236 81.5494428,46.8225827 83.5521434,38.9634758 C85.0237799,33.1897579 81.9227544,26.9217055 80.17289,24 C75.1221084,25.0010947 73.1799156,31.7883333 73.1799156,31.7883333 C73.1799156,31.7883333 68.8292957,54.5266361 76.8363163,54.9507372 C86.2722938,55.4499339 90.4797478,56.2338456 95.7098919,57.3273242 C100.424099,58.3127515 107.539169,60.7439043 112,62" id="Fill-9" fill="#6EA00E"></path>
            <path d="M49.4504112,51.8475722 C45.1505023,50.6798179 41.2282442,48.637064 38.320279,45.7791675 C31.6574791,39.2302749 32.1868404,29.3816328 34.8585706,21.09308 C43.5125708,-5.75656355 54.1756514,-0.0141070557 55.1027109,2.62449539 C55.1027109,2.62449539 62.3658509,-5.75656355 69.0113124,7.43536034 C75.656774,20.6278284 86.9380749,34.1304642 77.2015119,45.4602933 C71.0480258,52.6213591 59.2666222,54.5139265 49.4504112,51.8475722" id="Fill-11" fill="#85CE16"></path>
            <path d="M79.4306426,27.3798968 C77.8007792,23.8078444 75.9720595,23.8039969 74.7301557,24.1370734 C72.1157638,24.837853 67.8124478,29.2420469 59.018338,26.2333664 C51.1507796,23.5412733 49.1540886,25.8568691 43.5806929,27.9833917 C37.490379,30.307232 33.9299295,24.1370734 33.9299295,24.1370734 L33.9293877,24.1370734 C32.1721913,31.6966994 32.5303494,39.9587539 38.3193986,45.7062462 C41.2274693,48.5929087 45.1504116,50.6562238 49.4499348,51.8357321 C59.2670439,54.5294741 71.0483334,52.6173075 77.2025847,45.3841624 C77.9627902,44.4910119 78.594579,43.5841206 79.1104134,42.6651374 L79.1109553,42.6651374 C80.2043942,40.5237747 80.773871,38.3978016 80.9678508,36.368014 C81.1526192,33.447824 80.5278744,30.4407923 79.4306426,27.3798968" id="Fill-13" fill="#F0FD5C"></path>
            <path d="M75.3576464,19 C78.234022,25.906548 79.03902,32.5722644 73.8670288,38.6174601 C67.7593686,45.7556186 56.0667323,47.6421319 46.3244818,44.9843069 C42.0569707,43.8197457 38.1637272,41.7835263 35.2782099,38.9347719 C34.8168283,38.4796872 34.3936263,38.0067028 34,37.5207005 C34.7517617,40.5641813 36.2144167,43.4053419 38.6423165,45.8022661 C41.5278337,48.6510205 45.4210773,50.6866975 49.6880507,51.8512587 C59.4308388,54.5090836 71.1234752,52.6225704 77.2305977,45.4844119 C84.1007744,37.4545261 80.4258536,28.3300504 75.3576464,19" id="Fill-15" fill="#85CE16"></path>
            <path d="M66,11.5 C66,16.1943953 63.7609589,20 60.9997186,20 C58.2384784,20 56,16.1943953 56,11.5 C56,6.80560466 58.2384784,3 60.9997186,3 C63.7609589,3 66,6.80560466 66,11.5" id="Fill-17" fill="#3C2415"></path>
            <path d="M52.7952185,11.7931471 C52.0149998,16.1892974 49.2363259,19.397842 46.5885098,18.9600247 C43.9395987,18.5216788 42.425153,14.6030031 43.2048242,10.2068529 C43.9844955,5.81070262 46.7631693,2.60215804 49.4115329,3.03997526 C52.0598966,3.47779248 53.5748898,7.39699691 52.7952185,11.7931471" id="Fill-19" fill="#3C2415"></path>
            <path d="M70.8811274,37.59486 C65.5420439,35.5457335 61.5064475,39.0802028 61.9356379,43.7723739 C62.3642793,48.4645449 67.6973256,49.5444456 67.306005,49.5482808 C66.6051406,49.5564993 65.8954947,49.7126493 65.2105465,49.844144 C61.091527,50.6347562 56.3594569,51.2944216 53.4072642,54.5494646 C52.097191,55.9937152 51.2733871,57.8160133 51.0247641,59.7456988 C51.0236664,59.7539172 51.0225687,59.7626836 51.0214711,59.770902 C50.8990805,60.7434153 51.314001,60.8995653 51.9078423,60.1188152 C52.7618323,58.9945351 53.8375522,58.8926266 53.4879432,59.9445846 C52.2245211,64.1496772 54.5773841,67.4764944 55.8226946,68.8686951 C56.0647316,69.1382593 56.5081916,68.9645767 56.5125823,68.603514 C56.5789916,63.6467098 58.6069432,60.4683721 59.3259193,62.6583076 C59.8017607,64.1069414 61.1842804,65.5939279 62.1628562,66.5111038 C62.4520932,66.7823117 62.9142137,66.5083643 62.8170696,66.1242901 C62.43947,64.6373036 61.9943634,62.0923322 62.5338699,59.687622 C63.3642598,55.9893321 66.1111875,59.0964435 73.208195,55.5581389 C80.3057513,52.0198343 76.2207597,39.6439866 70.8811274,37.59486" id="Fill-21" fill="#85CE16"></path>
            <path d="M70.1717684,37 C73.8560987,41.23723 75.5210909,50.0769212 69.7843719,52.9806458 C62.7781844,56.5275067 60.066409,53.4134309 59.2471873,57.120664 C58.7145848,59.53064 59.1534536,62.0823148 59.5267629,63.5723479 C59.5489773,63.6613215 59.5386828,63.7431552 59.5110504,63.815103 C60.0897069,64.6208083 60.7891879,65.3529182 61.3532155,65.8906043 C61.6387511,66.162468 62.0954997,65.8878582 61.9990569,65.5023059 C61.6262894,64.0122729 61.1868788,61.4605981 61.7194813,59.0500728 C62.538703,55.3428398 65.2510202,58.4574647 72.2572077,54.9106039 C79.1691197,51.4115251 75.3368744,39.2984845 70.1717684,37" id="Fill-23" fill="#7EBC13"></path>
            <path d="M41.473874,48.2607061 C41.2121883,48.1820659 41.1106057,47.8728916 41.2740212,47.6585163 C41.4291555,47.4549137 41.57104,47.2464634 41.6019564,47.2044502 C42.15514,46.4530596 42.5885223,45.6117176 42.8546246,44.722976 C43.5756403,42.3109852 43.0053422,38.7328578 40.5380994,37.447145 C40.4044962,37.3776615 40.2670284,37.3151803 40.1268002,37.2607786 C39.3312538,36.9542974 38.4551038,36.9365225 37.5607352,37.1110391 C35.1840333,37.5748006 32.6814574,39.3964515 31.2388739,40.752725 C28.1135524,43.6904199 27.290402,47.7376951 28.5949656,51.7284141 C28.6098718,51.7731205 28.6314029,51.8151337 28.660111,51.8522993 C29.8625399,53.4181003 31.8908797,55.1681133 34.813036,55.7115922 C37.2493624,56.1640425 38.442406,60.3012692 38.7874556,62.2812777 C38.8476322,62.6265403 39.3064102,62.7224167 39.5095755,62.4331717 C40.1902894,61.4625582 41.1503554,59.6554503 40.80641,57.5332431 C40.7451292,57.1578172 41.2270945,56.9332079 41.4909884,57.2127575 C42.6602926,58.4532253 44.415353,60.912077 44.5964351,64.6329417 C44.6174141,65.0670785 45.2528575,65.1403324 45.3754191,64.7218159 C45.9904356,62.6286948 46.4298908,59.0322539 44.6113412,54.4064887 C44.0349703,53.1374735 44.5042378,52.6667097 45.3958461,53.7197339 C46.0461956,54.4872834 46.820763,56.5200778 47.0658863,58.2932518 C47.1255108,58.72685 47.7587459,58.7483953 47.8503911,58.3196448 C48.1330558,57.0043073 48.1225662,54.9165725 46.8511274,51.9336326 C45.8932696,49.8049619 42.8126665,48.6657568 41.473874,48.2607061" id="Fill-25" fill="#85CE16"></path>
            <path d="M36.2505571,54.3887702 C33.4109804,53.8493512 31.4399612,52.1101531 30.2715126,50.5550425 C30.2436158,50.5175828 30.2226932,50.4763772 30.2087448,50.4319608 C28.9405114,46.4665891 29.7409362,42.4460982 32.7779367,39.5274562 C33.6169878,38.7204683 34.8272816,37.749193 36.1577464,37 C34.21677,37.7133388 32.3208576,39.1624922 31.1475808,40.2900277 C28.1105803,43.2086697 27.3101555,47.2302308 28.5783889,51.1950674 C28.5923373,51.2394838 28.61326,51.2806894 28.6411568,51.3181491 C29.8096053,52.8737949 31.7806245,54.6124579 34.6202012,55.152412 C36.9876775,55.6019278 38.1475424,59.7117867 38.4823045,61.6794887 C38.5407805,62.0225121 38.98713,62.1172315 39.1840174,61.8303976 C39.4458185,61.4488443 39.7489284,60.9361822 40,60.3277304 C39.5557964,58.2283845 38.4018328,54.7976156 36.2505571,54.3887702" id="Fill-27" fill="#7EBC13"></path>
            <path d="M38.2469467,28.1862544 C38.2469467,28.1862544 38.7175644,28.5320937 39.5848304,29.0555863 C40.0206074,29.3117635 40.5512584,29.6130502 41.1730313,29.9232474 C41.4790936,30.0853074 41.8194607,30.2306601 42.1657239,30.3999599 C42.5237793,30.5475402 42.8893389,30.7196245 43.2843791,30.8666479 C43.6740591,31.0253664 44.0883957,31.1651501 44.5129165,31.315515 C44.7262489,31.3879129 44.9481575,31.4458313 45.1684581,31.5176723 C45.3882227,31.5906271 45.6138833,31.6557852 45.8454401,31.710919 C46.7609471,31.9704377 47.7455995,32.1475341 48.7618766,32.2962283 C49.7819057,32.4321136 50.8415997,32.4950441 51.920054,32.4978286 C52.1891316,32.5106375 52.4603532,32.47778 52.7321109,32.471654 C53.0033325,32.4577313 53.2766981,32.4627435 53.5484558,32.4337843 C54.0930431,32.36974 54.6429905,32.3485776 55.1865057,32.2444359 L56.0044587,32.1191319 C56.2772883,32.0779207 56.5452939,32.0049659 56.8154435,31.950389 C57.0855931,31.8924707 57.3552067,31.8339955 57.6242842,31.776634 C57.8901458,31.7031223 58.1554713,31.6301675 58.4197247,31.5577696 C58.6834422,31.4825871 58.9498397,31.4185428 59.2092691,31.3355637 C59.4686985,31.2492431 59.7270558,31.1634794 59.9832691,31.0782726 C60.2405545,30.9925089 60.4951597,30.9073022 60.749229,30.8226523 C60.9990102,30.7246367 61.2466473,30.626621 61.4926764,30.5297192 C61.7397775,30.4344881 61.9847346,30.3398139 62.2270116,30.2462535 C62.4703607,30.15325 62.7013815,30.0346288 62.9361543,29.9327149 C63.401948,29.7188626 63.8698857,29.5350832 64.3061987,29.3100928 C64.7457278,29.0901145 65.1740007,28.8757053 65.5872653,28.6685359 C66.006426,28.4674925 66.3896739,28.2319208 66.7702418,28.026979 C67.1459856,27.8125698 67.5195853,27.6287905 67.8604884,27.4271901 C68.1997834,27.2222483 68.5213901,27.026774 68.8237004,26.8441085 C69.1254746,26.6581015 69.4149206,26.493814 69.6807821,26.3384369 C69.9396755,26.1713648 70.1776644,26.0176584 70.3915328,25.8795455 C71.2555828,25.3287644 71.7637213,25.0246932 71.7637213,25.0246932 L71.7696174,25.0213518 C71.8430509,24.9773561 71.9368529,25.0035307 71.9791977,25.079827 C72.0151105,25.1438713 72.0027822,25.2218383 71.9556133,25.2719599 C71.9556133,25.2719599 71.5461008,25.7041198 70.8026534,26.4414647 C70.6150495,26.6241302 70.4076132,26.8268444 70.1824885,27.0473795 C69.9471796,27.2562197 69.6941824,27.4856654 69.4170646,27.7206801 C69.1404829,27.9584794 68.8462128,28.2113152 68.5358624,28.4780737 C68.2212239,28.7392631 67.8787128,28.9987818 67.5206573,29.2699955 C67.3416296,29.4053239 67.1583138,29.5439938 66.971246,29.6848912 C66.7863221,29.8285732 66.5944301,29.9705845 66.3896739,30.1003439 C65.9855215,30.3676592 65.5668969,30.6449989 65.1370159,30.9295784 C64.704991,31.2130441 64.2349092,31.4586401 63.7669716,31.7354229 C63.5289826,31.8662961 63.2942098,32.010535 63.0449646,32.1324976 C62.7957194,32.2544603 62.5448662,32.3775367 62.290797,32.5022839 C62.0356557,32.6253603 61.7794424,32.7489937 61.520013,32.8737409 C61.2541515,32.9834516 60.9866819,33.0942761 60.7170683,33.2051006 C60.4469187,33.3148112 60.1746251,33.4250788 59.9012594,33.5359033 C59.6246777,33.639488 59.3395198,33.7241379 59.0575779,33.819369 C58.7734921,33.9123725 58.4883342,34.005376 58.2031762,34.0989363 C57.9131942,34.178574 57.6194601,34.250972 57.3257261,34.3239268 C57.031456,34.3935402 56.7398659,34.4798608 56.4413077,34.5344376 L55.5434891,34.699839 C55.2438589,34.7594281 54.9431567,34.8045375 54.6397744,34.831826 L53.7312356,34.9303985 C53.125543,34.9743942 52.5182424,35.0044672 51.916838,34.999455 C51.3148975,34.981634 50.7172451,34.9805202 50.1297769,34.9019963 C49.5412367,34.8535454 48.9644888,34.7572005 48.3995331,34.6525019 C47.2749818,34.4202717 46.2008155,34.1262248 45.2252753,33.7285932 C44.245447,33.3454411 43.3513804,32.9054846 42.5682682,32.4287722 C41.7781878,31.9659824 41.0958457,31.4725628 40.5201698,31.0030902 C39.9402057,30.5397435 39.4733401,30.0869781 39.1045644,29.7015984 C38.7304287,29.3223448 38.4677832,28.9909851 38.2898275,28.7671084 C38.2013857,28.6540563 38.1359924,28.5649512 38.0925755,28.5014638 C38.0507666,28.4407609 38.0287901,28.4090172 38.0287901,28.4090172 C37.9789411,28.3366193 37.9955574,28.2358191 38.0652389,28.1845837 C38.119912,28.1439295 38.1917375,28.1456002 38.2442666,28.1840268 L38.2469467,28.1862544 Z" id="Fill-29" fill="#3C2415"></path>
            <path d="M69.3054373,17.0201734 C70.111171,16.962428 71.0812203,16.9950921 71.5999884,17.5766297 C72.1187565,18.1575841 72.0512697,19.0115171 71.8529172,19.7237112 C71.3218254,21.6275618 69.073048,22.8396333 67.5331754,21.2991709 C66.7145312,20.4808185 66.9504416,18.9036089 67.4926833,18.0065127 C67.7773015,17.5357996 68.2121512,17.1309981 68.7819745,17.0691696 C68.943356,17.0516709 69.1199954,17.033589 69.3054373,17.0201734" id="Fill-31" fill="#7EBC13"></path>
            <path d="M67.3053605,39.0201716 C68.1111492,38.9624313 69.0812648,38.9950925 69.6000683,39.5765785 C70.1188718,40.1568981 70.0513804,41.0113384 69.8524275,41.7234693 C69.3218863,43.6271507 67.0729553,44.8396978 65.5329774,43.2993722 C64.7148642,42.4810925 64.9502038,40.9034398 65.4924826,40.00584 C65.7771202,39.535752 66.2119997,39.1309864 66.7818619,39.0691634 C66.9426675,39.0522496 67.1199058,39.033586 67.3053605,39.0201716" id="Fill-33" fill="#7EBC13"></path>
            <path d="M38.3055353,39.0204071 C39.1112717,38.9620797 40.0813244,38.9953264 40.6000942,39.5762675 C41.1188641,40.1572087 41.0513771,41.0111223 40.852437,41.7238834 C40.3213435,43.6271074 38.0731452,44.8397346 36.5326804,43.2993073 C35.7146202,42.4809734 35.9505314,40.9037998 36.492775,40.0061407 C36.7768074,39.5360216 37.2116586,39.130646 37.7820707,39.0694022 C37.9428658,39.051904 38.1200927,39.0332392 38.3055353,39.0204071" id="Fill-35" fill="#7EBC13"></path>
            <path d="M71.3833159,42.0121364 C71.8673308,41.9773923 72.4489926,41.9971605 72.7600159,42.345799 C73.0716419,42.6944375 73.0306544,43.2066126 72.9113082,43.6343237 C72.5930518,44.7760849 71.2440787,45.5039126 70.3194474,44.5796013 C69.8288021,44.0883924 69.9704503,43.1425158 70.2953371,42.6039832 C70.4665204,42.3218376 70.726912,42.0786293 71.0692788,42.0414891 C71.1663229,42.0307065 71.2718056,42.0205229 71.3833159,42.0121364" id="Fill-37" fill="#7EBC13"></path>
            <path d="M38.3836469,45.0120689 C38.8670175,44.9773255 39.4492321,44.9976923 39.7602287,45.3463243 C40.0712253,45.6949562 40.0308439,46.2065227 39.911508,46.6342258 C39.5926762,47.7765644 38.2438189,48.5037795 37.3198697,47.5794855 C36.8286639,47.0888849 36.9702999,46.1424271 37.2957615,45.6039046 C37.4663274,45.3217643 37.7272994,45.0785606 38.0696367,45.0420201 C38.1660698,45.0312377 38.2721461,45.0204552 38.3836469,45.0120689" id="Fill-39" fill="#7EBC13"></path>
            <path d="M67.3832154,45.0120689 C67.8672275,44.9773255 68.4494886,44.9976923 68.7599074,45.3463243 C69.0715316,45.6949562 69.0305443,46.2065227 68.9118016,46.6342258 C68.5929443,47.7765644 67.2445818,48.5037795 66.3199559,47.5794855 C65.8287107,47.0888849 65.9703581,46.1424271 66.2952429,45.6039046 C66.4664253,45.3217643 66.7268154,45.0785606 67.0691801,45.0420201 C67.1662236,45.0312377 67.2717057,45.0204552 67.3832154,45.0120689" id="Fill-41" fill="#7EBC13"></path>
            <path d="M33.3834045,42.0120689 C33.8668476,41.9773255 34.4491495,41.9976923 34.7601927,42.3463243 C35.0712359,42.6949562 35.0308486,43.2065227 34.9114948,43.6342258 C34.593218,44.7765644 33.2441584,45.5037795 32.3194679,44.5794855 C31.8287912,44.0888849 31.9704484,43.1424271 32.295356,42.6039046 C32.4659475,42.3217643 32.7269586,42.0785606 33.0693473,42.0420201 C33.1657948,42.0312377 33.271887,42.0204552 33.3834045,42.0120689" id="Fill-43" fill="#7EBC13"></path>
            <path d="M73.9220731,20.0080528 C74.2443735,19.9849848 74.632611,19.9980916 74.8399171,20.2303441 C75.0477507,20.4631209 75.0203209,20.804422 74.9411964,21.089626 C74.7286153,21.850869 73.8292337,22.3358206 73.2131178,21.719801 C72.8855424,21.3926552 72.9804918,20.7614317 73.1972929,20.4023054 C73.3107046,20.214616 73.4847785,20.0520916 73.7131845,20.0279751 C73.7775391,20.0206353 73.8476961,20.0132955 73.9220731,20.0080528" id="Fill-45" fill="#7EBC13"></path>
            <path d="M37.9223221,21.9919472 C38.2446271,22.0150152 38.6328701,22.0019084 38.8401792,21.7696559 C39.0474883,21.5368791 39.0205856,21.195578 38.9409325,20.910374 C38.7283483,20.149131 37.8294814,19.6641794 37.2133566,20.280199 C36.8857766,20.6073448 36.9801998,21.2385683 37.197004,21.5976946 C37.3104174,21.785384 37.4844937,21.9479084 37.712903,21.9720249 C37.7772585,21.9793647 37.847944,21.9867045 37.9223221,21.9919472" id="Fill-47" fill="#7EBC13"></path>
            <path d="M35.9223221,23.008107 C36.2446271,22.9850397 36.6323426,22.9976218 36.8401792,23.2303923 C37.0474883,23.4626385 37.0205856,23.8044545 36.9409325,24.0896508 C36.7283483,24.850873 35.8294814,25.3358115 35.2133566,24.7198086 C34.8857766,24.3921475 34.9801998,23.7614654 35.197004,23.4023488 C35.3104174,23.2141403 35.4844937,23.0521447 35.712903,23.0275045 C35.7772585,23.0206892 35.847944,23.0133496 35.9223221,23.008107" id="Fill-49" fill="#7EBC13"></path>
            <path d="M40.1554881,22.0162435 C39.5106535,21.9697714 38.7347859,21.9962497 38.3199386,22.4609706 C37.9050914,22.9262319 37.9589182,23.6092636 38.1176802,24.1788169 C38.5428578,25.7021289 40.3414354,26.6715583 41.5734719,25.4395075 C42.2286369,24.7851156 42.0394274,23.5233443 41.6055505,22.8051883 C41.3788253,22.4285482 41.0303101,22.1048647 40.5741413,22.0556907 C40.4458268,22.041641 40.3039197,22.027051 40.1554881,22.0162435" id="Fill-51" fill="#7EBC13"></path>
        </g>
    </g>
</svg>