<?xml version="1.0" encoding="UTF-8"?>
<svg width="480px" height="360px" viewBox="0 0 480 360" version="1.1" xmlns="http://www.w3.org/2000/svg" xmlns:xlink="http://www.w3.org/1999/xlink">
    <!-- Generator: Sketch 51.1 (57501) - http://www.bohemiancoding.com/sketch -->
    <title>Camp2</title>
    <desc>Created with Sketch.</desc>
    <defs>
        <polygon id="path-1" points="0.133626136 0.314414437 491.406184 0.314414437 491.406184 491.586972 0.133626136 491.586972"></polygon>
        <path d="M51.7912139,4.92067755 C30.9141354,23.6002664 0.13350022,44.9486475 0.13350022,44.9486475 L0.13350022,96.1391568 L375.119912,96.0677149 C323.194216,80.4748042 260.027016,30.5389306 218.441698,31.6066433 C176.857361,32.6733773 167.953093,41.7455095 138.512368,35.8755366 C114.186861,31.0253222 85.1142431,0.311212304 63.9691825,0.313169614 C59.520484,0.314148269 55.4202603,1.67447878 51.7912139,4.92067755" id="path-3"></path>
        <linearGradient x1="49.999892%" y1="153.192711%" x2="49.999892%" y2="37.7474958%" id="linearGradient-5">
            <stop stop-color="#34A8A5" offset="0%"></stop>
            <stop stop-color="#3FA87C" offset="100%"></stop>
        </linearGradient>
        <path d="M232.78453,37.4716662 C214.60747,59.1685306 194.306099,80.8653949 177.098298,72.7337396 C136.070891,53.3447595 130.25435,37.6653004 110.499539,58.5669866 C80.9164747,89.8669299 1.47944814,136.77458 0.693030525,136.769665 L271.446786,136.857144 L271.446786,0.461970021 C271.436956,0.461970021 271.427125,0.461970021 271.417295,0.461970021 C262.243734,0.461970021 248.286787,18.9673096 232.78453,37.4716662" id="path-6"></path>
        <linearGradient x1="50.0001046%" y1="125.282944%" x2="50.0001046%" y2="60.4215497%" id="linearGradient-8">
            <stop stop-color="#34A8A5" offset="0%"></stop>
            <stop stop-color="#2F896E" offset="100%"></stop>
        </linearGradient>
        <path d="M211.5174,0.265871316 C136.065795,0.3328315 62.8494809,0.399791683 0.133626136,0.315106745 L0.133626136,121.434262 L491.405201,121.434262 L491.405201,0.315106745 C450.931221,0.210727636 407.555784,0.175278127 363.005223,0.175278127 C313.152849,0.175278127 261.832553,0.220574722 211.5174,0.265871316" id="path-9"></path>
        <linearGradient x1="63.8817473%" y1="-23.2990937%" x2="36.6817021%" y2="120.437319%" id="linearGradient-11">
            <stop stop-color="#59C174" offset="0%"></stop>
            <stop stop-color="#2AB672" offset="100%"></stop>
        </linearGradient>
        <path d="M0.133626136,48.8092465 L0.133626136,72.9835866 L491.405201,72.9835866 L491.405201,0.314245798 C267.265045,0.314245798 0.133626136,48.8092465 0.133626136,48.8092465" id="path-12"></path>
        <linearGradient x1="-9.2000184e-05%" y1="50.0002728%" x2="100.000108%" y2="50.0002728%" id="linearGradient-14">
            <stop stop-color="#59C174" offset="0%"></stop>
            <stop stop-color="#2AB672" offset="100%"></stop>
        </linearGradient>
        <path d="M57.3665272,0.73611002 C39.1044066,2.22092141 30.0934338,20.0996778 30.0934338,20.0996778 C30.0934338,20.0996778 5.88183604,14.6272809 0.0372516283,25.1517171 L166.457921,25.1517171 C166.457921,25.1517171 158.666448,15.4689646 134.732277,22.2043713 C134.732277,22.2043713 131.60216,8.62217289 113.026342,8.73355796 C101.428341,8.8032947 98.6119222,12.6543124 94.1015342,16.8443281 C94.1015342,16.8443281 84.3984654,0.568548134 61.4749897,0.566611002 C60.1486357,0.566611002 58.7820891,0.620850688 57.3665272,0.73611002" id="path-15"></path>
        <path d="M41.8599156,10.9583536 C41.8599156,10.9583536 30.6525137,4.53482515 25.7216489,11.8436228 C25.7216489,11.8436228 8.23869001,6.58915324 0.841902774,14.649558 L83.9991586,14.649558 C83.9991586,14.649558 77.1257428,4.017611 68.1598213,9.3331002 C68.1598213,9.3331002 65.5468844,0.769041257 55.3087978,0.769041257 C45.2226262,0.769041257 41.8599156,10.9583536 41.8599156,10.9583536" id="path-17"></path>
        <path d="M22.8055858,12.3162829 C10.1181932,4.83217485 0.391093631,19.8013595 0.391093631,19.8013595 L118.067916,19.8013595 C107.600005,8.45267387 82.8596383,15.8505796 82.8596383,15.8505796 C75.8810305,5.55956778 60.0225286,14.6030668 60.0225286,14.6030668 C60.0225286,14.6030668 55.2643869,0.258607073 40.9909471,0.258607073 C26.5037356,0.258607073 22.8055858,12.3162829 22.8055858,12.3162829" id="path-19"></path>
    </defs>
    <g id="Camp2" stroke="none" stroke-width="1" fill="none" fill-rule="evenodd">
        <g id="Group" transform="translate(-21.000000, -109.000000)">
            <g id="Group-3" transform="translate(10.000000, 0.000000)">
                <mask id="mask-2" fill="white">
                    <use xlink:href="#path-1"></use>
                </mask>
                <g id="Clip-2"></g>
                <polygon id="Fill-1" fill="#9DDEE7" mask="url(#mask-2)" points="10 491.586972 491.406184 491.586972 491.406184 107 10 107"></polygon>
            </g>
            <g id="Group-6" transform="translate(10.000000, 215.000000)">
                <mask id="mask-4" fill="white">
                    <use xlink:href="#path-3"></use>
                </mask>
                <g id="Clip-5"></g>
                <path d="M51.7912139,4.92067755 C30.9141354,23.6002664 0.13350022,44.9486475 0.13350022,44.9486475 L0.13350022,96.1391568 L375.119912,96.0677149 C323.194216,80.4748042 260.027016,30.5389306 218.441698,31.6066433 C176.857361,32.6733773 167.953093,41.7455095 138.512368,35.8755366 C114.186861,31.0253222 85.1142431,0.311212304 63.9691825,0.313169614 C59.520484,0.314148269 55.4202603,1.67447878 51.7912139,4.92067755" id="Fill-4" fill="url(#linearGradient-5)" mask="url(#mask-4)"></path>
            </g>
            <g id="Group-9" transform="translate(230.000000, 175.000000)">
                <mask id="mask-7" fill="white">
                    <use xlink:href="#path-6"></use>
                </mask>
                <g id="Clip-8"></g>
                <path d="M232.78453,37.4716662 C214.60747,59.1685306 194.306099,80.8653949 177.098298,72.7337396 C136.070891,53.3447595 130.25435,37.6653004 110.499539,58.5669866 C80.9164747,89.8669299 1.47944814,136.77458 0.693030525,136.769665 L271.446786,136.857144 L271.446786,0.461970021 C271.436956,0.461970021 271.427125,0.461970021 271.417295,0.461970021 C262.243734,0.461970021 248.286787,18.9673096 232.78453,37.4716662" id="Fill-7" fill="url(#linearGradient-8)" mask="url(#mask-7)"></path>
            </g>
            <path d="M10,311.088042 C151.836152,311.20827 347.406362,310.839703 501,311.088042 L501,387 L10,387" id="Fill-10" fill="#8EE6F4"></path>
            <g id="Group-14" transform="translate(10.000000, 370.000000)">
                <mask id="mask-10" fill="white">
                    <use xlink:href="#path-9"></use>
                </mask>
                <g id="Clip-13"></g>
                <path d="M211.5174,0.265871316 C136.065795,0.3328315 62.8494809,0.399791683 0.133626136,0.315106745 L0.133626136,121.434262 L491.405201,121.434262 L491.405201,0.315106745 C450.931221,0.210727636 407.555784,0.175278127 363.005223,0.175278127 C313.152849,0.175278127 261.832553,0.220574722 211.5174,0.265871316" id="Fill-12" fill="url(#linearGradient-11)" mask="url(#mask-10)"></path>
            </g>
            <g id="Group-19" transform="translate(10.000000, 320.000000)" fill="#75CCD8">
                <polyline id="Fill-15" points="0.133134863 50.7011312 491.405693 50.7011312 491.405693 9.70174022 0.133134863 9.70174022"></polyline>
                <polyline id="Fill-17" points="0.133134863 4.48128283 491.405693 4.48128283 491.405693 0.364548802 0.133134863 0.364548802"></polyline>
            </g>
            <g id="Group-22" transform="translate(10.000000, 418.000000)">
                <mask id="mask-13" fill="white">
                    <use xlink:href="#path-12"></use>
                </mask>
                <g id="Clip-21"></g>
                <path d="M0.133626136,48.8092465 L0.133626136,72.9835866 L491.405201,72.9835866 L491.405201,0.314245798 C267.265045,0.314245798 0.133626136,48.8092465 0.133626136,48.8092465" id="Fill-20" fill="url(#linearGradient-14)" mask="url(#mask-13)"></path>
            </g>
            <g id="Group-53" transform="translate(316.000000, 272.000000)">
                <path d="M9.82805855,128.776735 C9.82805855,128.776735 -27.6155322,138.070222 51.0936066,140.035226 C129.802745,142.00023 286.120897,138.847381 286.120897,138.847381 L286.120897,128.776735 L185.677384,119.811405 L9.82805855,128.776735 Z" id="Fill-23" fill="#2F5936"></path>
                <path d="M64.343255,0.396144812 C64.343255,0.396144812 55.9940807,43.9534066 24.2348042,90.7863301 L54.3576426,90.7863301 L87.7543395,18.7365099 L64.343255,0.396144812 Z" id="Fill-25" fill="#B27738"></path>
                <path d="M73.007144,50.5526761 L87.7547324,18.7363134 L64.3436479,0.395948312 C64.3436479,0.395948312 62.754358,8.68728281 58.3263489,21.9206024 C60.5393712,30.9478309 64.8180774,41.4360399 73.007144,50.5526761" id="Fill-27" fill="#A06835"></path>
                <path d="M9.82805855,128.776735 C9.82805855,128.776735 55.011825,69.498459 70.7279176,12.5133422 C70.7279176,12.5133422 97.248824,88.4941529 148.326125,128.776735 L9.82805855,128.776735 Z" id="Fill-29" fill="#EAE27A"></path>
                <path d="M37.4454571,118.050761 C37.4454571,118.050761 38.4277128,124.436042 43.0119006,128.776735 L55.9943754,128.776735 C55.7812259,127.221435 52.6340784,110.846074 52.6340784,110.846074 L37.4454571,118.050761 Z" id="Fill-31" fill="#C6B666"></path>
                <path d="M84.2665456,87.2660254 C84.2665456,87.2660254 101.866605,113.82895 112.547654,121.302843 C112.547654,121.302843 109.477123,128.776735 95.7756368,128.776735 C95.7756368,128.776735 83.2842899,109.536399 84.2665456,87.2660254" id="Fill-33" fill="#C6B666"></path>
                <path d="M213.486912,12.5133422 L70.7278194,12.5133422 C70.7278194,12.5133422 97.2487258,88.4941529 148.326027,128.776735 L286.120798,128.776735 C241.921252,83.417565 213.486912,12.5133422 213.486912,12.5133422" id="Fill-35" fill="#C6B666"></path>
                <path d="M70.7279176,38.0583945 C70.7279176,38.0583945 77.5673647,84.9738482 110.01422,113.79358 C110.01422,113.79358 105.447713,124.928275 95.7754403,128.776735 L79.0770918,113.71105 C79.0770918,113.71105 68.9598572,55.2462848 70.7279176,38.0583945" id="Fill-37" fill="#D39340"></path>
                <path d="M70.7279176,38.0583945 C70.7279176,38.0583945 69.9912258,99.9560214 64.343255,115.676054 L50.100546,128.776735 C50.100546,128.776735 36.740885,126.315568 34.5386675,115.758584 C34.5386675,115.758584 63.1154352,79.3234791 70.7279176,38.0583945" id="Fill-39" fill="#D39340"></path>
                <path d="M248.443431,79.7437935 C207.00697,70.8796603 155.49453,60.7765921 148.326027,60.9023523 L112.54736,90.7851511 L112.54736,90.7861336 C112.583703,90.7900636 231.080095,104.950865 265.555309,104.623692 L265.556291,104.623692 C259.378884,96.4433802 253.656262,88.0203904 248.443431,79.7437935" id="Fill-41" fill="#BAA85A"></path>
                <path d="M50.100546,128.776735 C50.100546,128.776735 66.7988945,90.7863301 70.7279176,38.0583945 C70.7279176,38.0583945 75.1480687,102.412276 95.7754403,128.776735 L50.100546,128.776735 Z" id="Fill-43" fill="#A06835"></path>
                <path d="M32.9715766,94.3373871 C33.7514877,93.057187 60.6397577,56.1367263 76.4481824,26.8336038 C72.6507816,18.0146657 70.7275247,12.5136369 70.7275247,12.5136369 C62.5895355,42.0250499 46.5483162,72.1485617 32.9715766,94.3373871" id="Fill-45" fill="#C6B666"></path>
                <path d="M64.343255,0.396144812 C64.343255,0.396144812 71.9557374,43.6262334 104.06175,90.7863301 L267.293018,90.7863301 C267.293018,90.7863301 234.088843,45.5912375 218.298099,0.396144812 L64.343255,0.396144812 Z" id="Fill-47" fill="#D39340"></path>
                <path d="M224.525797,16.2994137 C186.603848,58.3121823 104.060964,90.7858389 104.060964,90.7858389 L267.293214,90.7858389 C267.293214,90.7858389 241.455958,55.6152143 224.525797,16.2994137" id="Fill-49" fill="#C6843C"></path>
                <path d="M50.100546,128.776735 L95.7754403,128.776735 C86.5707213,117.010291 80.594677,97.6805467 76.7972762,79.8776102 C71.6315929,82.6364759 66.9678425,85.6301595 62.7510183,88.7712185 C56.8309627,113.447739 50.100546,128.776735 50.100546,128.776735" id="Fill-51" fill="#935E32"></path>
            </g>
            <g id="Group-56" transform="translate(16.000000, 173.000000)">
                <mask id="mask-16" fill="white">
                    <use xlink:href="#path-15"></use>
                </mask>
                <g id="Clip-55"></g>
                <path d="M57.3665272,0.73611002 C39.1044066,2.22092141 30.0934338,20.0996778 30.0934338,20.0996778 C30.0934338,20.0996778 5.88183604,14.6272809 0.0372516283,25.1517171 L166.457921,25.1517171 C166.457921,25.1517171 158.666448,15.4689646 134.732277,22.2043713 C134.732277,22.2043713 131.60216,8.62217289 113.026342,8.73355796 C101.428341,8.8032947 98.6119222,12.6543124 94.1015342,16.8443281 C94.1015342,16.8443281 84.3984654,0.568548134 61.4749897,0.566611002 C60.1486357,0.566611002 58.7820891,0.620850688 57.3665272,0.73611002" id="Fill-54" fill="#FFFFFF" mask="url(#mask-16)"></path>
            </g>
            <g id="Group-68" transform="translate(146.000000, 207.000000)">
                <mask id="mask-18" fill="white">
                    <use xlink:href="#path-17"></use>
                </mask>
                <g id="Clip-67"></g>
                <path d="M41.8599156,10.9583536 C41.8599156,10.9583536 30.6525137,4.53482515 25.7216489,11.8436228 C25.7216489,11.8436228 8.23869001,6.58915324 0.841902774,14.649558 L83.9991586,14.649558 C83.9991586,14.649558 77.1257428,4.017611 68.1598213,9.3331002 C68.1598213,9.3331002 65.5468844,0.769041257 55.3087978,0.769041257 C45.2226262,0.769041257 41.8599156,10.9583536 41.8599156,10.9583536" id="Fill-66" fill="#FFFFFF" mask="url(#mask-18)"></path>
            </g>
            <g id="Group-71" transform="translate(394.000000, 187.000000)">
                <mask id="mask-20" fill="white">
                    <use xlink:href="#path-19"></use>
                </mask>
                <g id="Clip-70"></g>
                <path d="M22.8055858,12.3162829 C10.1181932,4.83217485 0.391093631,19.8013595 0.391093631,19.8013595 L118.067916,19.8013595 C107.600005,8.45267387 82.8596383,15.8505796 82.8596383,15.8505796 C75.8810305,5.55956778 60.0225286,14.6030668 60.0225286,14.6030668 C60.0225286,14.6030668 55.2643869,0.258607073 40.9909471,0.258607073 C26.5037356,0.258607073 22.8055858,12.3162829 22.8055858,12.3162829" id="Fill-69" fill="#FFFFFF" mask="url(#mask-20)"></path>
            </g>
            <g id="Group-145" transform="translate(0.000000, 104.000000)">
                <path d="M78.2217694,291.384601 C78.2217694,291.384601 59.5634252,294.333034 69.1381018,299.437227 C78.7127785,304.540436 141.316433,296.543867 142.298452,289.355708 C143.28047,282.166566 86.8144279,290.523084 78.2217694,291.384601" id="Fill-94" fill="#2F5936"></path>
                <path d="M207.644883,278.953875 C207.644883,278.953875 188.9286,275.047545 196.233833,283.076568 C212.795568,301.278572 258.271845,301.636554 261.835589,295.32073 C265.398351,289.002939 215.947846,281.330914 207.644883,278.953875" id="Fill-96" fill="#2F5936"></path>
                <path d="M493.46489,341.483778 C487.104359,332.790914 482.334697,323.073279 473.85497,327.394632 C466.240402,331.275392 471.735775,342.993399 471.735775,342.993399 C471.735775,342.993399 464.319574,332.350321 454.817567,337.311911 C446.826886,341.483778 455.306612,355.968277 455.306612,355.968277 C455.306612,355.968277 444.176419,350.482499 438.876467,355.968277 C433.577497,361.453072 438.876467,369.944324 438.876467,369.944324 C438.876467,369.944324 431.456338,367.181766 431.986628,373.871307 C432.516918,380.559865 436.75629,381.487274 436.75629,381.487274 C436.75629,381.487274 415.027175,376.663369 415.557465,384.715012 C415.557465,384.715012 408.666644,385.509654 409.727223,391.79204 L510.954633,391.79204 L510.954633,345.506157 C510.954633,345.506157 508.513336,333.010227 503.433356,331.491755 C493.99518,328.670188 493.46489,341.483778 493.46489,341.483778" id="Fill-103" fill="#98CE30"></path>
                <path d="M498.947497,357.255733 C494.582427,351.28904 491.307396,344.617201 485.485993,347.584321 C480.259692,350.247549 484.031624,358.292307 484.031624,358.292307 C484.031624,358.292307 478.93986,350.986132 472.416314,354.391878 C466.930761,357.255733 472.752164,367.198583 472.752164,367.198583 C472.752164,367.198583 465.112063,363.433872 461.473686,367.198583 C457.835309,370.963294 461.473686,376.794269 461.473686,376.794269 C461.473686,376.794269 456.379958,374.897161 456.743305,379.488968 C457.108615,384.080775 460.018335,384.718061 460.018335,384.718061 C460.018335,384.718061 445.10148,381.406728 445.464826,386.933812 C445.464826,386.933812 440.735427,387.478653 441.463103,391.792138 L510.954633,391.792138 L510.954633,360.017308 C510.954633,360.017308 509.27931,351.439511 505.791181,350.396052 C499.311826,348.459606 498.947497,357.255733 498.947497,357.255733" id="Fill-104" fill="#7EA824"></path>
                <path d="M156.441378,308.453061 C156.441378,308.453061 146.710561,313.713625 147.072926,316.172292 C147.436272,318.630959 183.758176,326.504594 193.093241,323.142121 C202.429287,319.777681 205.52068,311.909947 203.500669,307.812824 C201.969702,304.706052 197.806928,299.616611 181.727363,302.505053 C164.657924,305.570519 161.043115,305.661982 156.441378,308.453061" id="Fill-105" fill="#2F5936"></path>
                <path d="M23.1161173,331.684612 C31.1647378,320.683553 37.2012032,308.386283 47.9326972,313.854359 C57.569241,318.765792 50.6155707,333.595488 50.6155707,333.595488 C50.6155707,333.595488 60.0016998,320.12691 72.0274937,326.405363 C82.1403163,331.684612 71.4088223,350.016434 71.4088223,350.016434 C71.4088223,350.016434 85.4939082,343.074142 92.2010919,350.016434 C98.9082757,356.95676 92.2010919,367.704085 92.2010919,367.704085 C92.2010919,367.704085 101.591149,364.20786 100.920431,372.673543 C100.249712,381.138242 94.8839654,382.312501 94.8839654,382.312501 C94.8839654,382.312501 122.383419,376.207139 121.713682,386.397822 C121.713682,386.397822 130.433021,387.401942 129.091585,395.353271 L0.981428907,395.353271" id="Fill-106" fill="#98CE30"></path>
                <path d="M35.055199,352.956902 C35.055199,352.956902 41.4982198,343.71133 49.7540462,348.020882 C56.6969143,351.64594 49.3288323,364.229398 49.3288323,364.229398 C49.3288323,364.229398 58.9987647,359.464502 63.6034477,364.229398 C68.2071486,368.995279 63.6034477,376.373247 63.6034477,376.373247 C63.6034477,376.373247 70.0494146,373.972604 69.5888481,379.78391 C69.1282816,385.595215 65.4447317,386.400675 65.4447317,386.400675 C65.4447317,386.400675 84.323048,382.209139 83.8624815,389.204538 C83.8624815,389.204538 89.8488639,389.894932 88.9277309,395.353173 L0.98211632,395.353173" id="Fill-107" fill="#7EA824"></path>
                <path d="M150.700795,60.3068743 C150.505373,60.1632882 150.278527,60.0285532 150.034005,59.901686 C151.037627,58.1117764 149.190451,56.0641984 149.190451,56.0641984 C148.722029,57.7282243 147.823482,58.6576004 147.423801,58.9408389 C146.753082,58.7569306 146.266983,58.6576004 146.266983,58.6576004 C146.248325,60.6638728 150.661514,60.93826 150.661514,60.93826 L151.562025,61.7338847 C151.903767,61.3316467 152.225869,60.4012871 152.225869,60.4012871 L150.700795,60.3068743 Z" id="Fill-108" fill="#4F7077"></path>
                <path d="M93.9546817,59.5399669 C93.7592601,59.3963807 93.5324139,59.2616458 93.2878914,59.135762 C94.2915139,57.3448689 92.4443378,55.297291 92.4443378,55.297291 C91.9759152,56.9613169 91.0773686,57.8916765 90.6776872,58.1739315 C90.0069688,57.9900232 89.5208699,57.890693 89.5208699,57.890693 C89.5022115,59.8969653 93.9154009,60.1713526 93.9154009,60.1713526 L94.8159116,60.9669772 C95.1566718,60.5657228 95.4797558,59.6343797 95.4797558,59.6343797 L93.9546817,59.5399669 Z" id="Fill-109" fill="#4F7077"></path>
                <path d="M90.9376274,27.1738769 C89.5254854,26.1353359 86.5037567,25.524603 86.5037567,25.524603 C86.4979235,26.1589391 86.9349216,26.6201851 87.5359166,26.9535803 C87.5909097,27.5908668 87.5280605,28.6028542 87.0272313,29.7839978 C87.0272313,29.7839978 89.4017511,29.4014292 89.9889979,27.6980647 C90.5212517,27.7816594 90.8983467,27.8052626 90.8983467,27.8052626 L91.7988573,28.6008872 C92.1396176,28.1986493 92.4627015,27.2682897 92.4627015,27.2682897 L90.9376274,27.1738769 Z" id="Fill-110" fill="#4F7077"></path>
                <path d="M168.002579,81.2165592 C166.590437,80.1780183 163.568709,79.5672854 163.568709,79.5672854 C163.562876,80.2016215 163.999874,80.6628674 164.600869,80.9962627 C164.656844,81.6335492 164.593013,82.6455365 164.092183,83.8266802 C164.092183,83.8266802 166.466703,83.4441116 167.05395,81.7407471 C167.586204,81.8243417 167.963299,81.8479449 167.963299,81.8479449 L168.863809,82.6435696 C169.20457,82.2413317 169.527654,81.310972 169.527654,81.310972 L168.002579,81.2165592 Z" id="Fill-111" fill="#4F7077"></path>
                <path d="M124.084078,59.2854457 C122.671936,58.2469047 119.650207,57.6361718 119.650207,57.6361718 C119.644374,58.2705079 120.082354,58.7317538 120.682367,59.0651491 C120.738342,59.7024356 120.675493,60.714423 120.173682,61.8955666 C120.173682,61.8955666 122.549183,61.512998 123.135448,59.8096335 C123.667702,59.8932282 124.044797,59.9168314 124.044797,59.9168314 L124.945308,60.712456 C125.28705,60.3102181 125.609152,59.3798585 125.609152,59.3798585 L124.084078,59.2854457 Z" id="Fill-112" fill="#4F7077"></path>
                <path d="M129.380691,39.5647721 C129.215712,39.4428223 129.027164,39.3287401 128.82585,39.2185918 C129.612447,37.4749051 127.889005,35.5640291 127.889005,35.5640291 C127.493252,36.9723536 126.789145,37.8545233 126.339381,38.2636455 C125.548856,38.0374482 124.946879,37.9154983 124.946879,37.9154983 C124.941969,38.4475538 125.250322,38.856676 125.703033,39.1723689 C125.393697,39.730978 124.776008,40.5344704 123.700698,41.2327319 C123.700698,41.2327319 126.783253,41.6713581 128.253334,40.059456 C128.877897,40.1666538 129.34141,40.1961578 129.34141,40.1961578 L130.241921,40.9917825 C130.583663,40.5895446 130.905765,39.659185 130.905765,39.659185 L129.380691,39.5647721 Z" id="Fill-114" fill="#4F7077"></path>
                <path d="M68.3579866,38.741217 C68.1930076,38.6202506 68.0044601,38.505185 67.8031464,38.3960202 C68.5887609,36.65135 66.8663011,34.7414574 66.8663011,34.7414574 C66.4705478,36.1487985 65.7664408,37.0309682 65.3166765,37.4410739 C64.5261519,37.2148765 63.9241748,37.0929266 63.9241748,37.0929266 C63.9192647,37.6239987 64.2266364,38.0331209 64.6803288,38.3488138 C64.370011,38.9084064 63.7533037,39.7118988 62.6779938,40.4101602 C62.6779938,40.4101602 65.7605487,40.8487864 67.2296478,39.2359008 C67.8551933,39.3430987 68.3187059,39.3726027 68.3187059,39.3726027 L69.2182345,40.1682274 C69.5599768,39.7669729 69.8830607,38.8366133 69.8830607,38.8366133 L68.3579866,38.741217 Z" id="Fill-115" fill="#4F7077"></path>
                <path d="M78.9127173,264.759892 C78.9127173,264.759892 91.9657022,265.19065 103.284443,261.308906 C114.605148,257.428146 125.873806,259.166916 129.283373,263.041775 C132.69294,266.915651 137.3644,280.718608 124.692438,286.756111 C112.020476,292.794597 82.4509286,298.396424 78.9127173,297.538841 L78.9127173,264.759892 Z" id="Fill-116" fill="#93613F"></path>
                <path d="M132.526193,270.000885 C118.522615,282.364046 84.021372,283.632718 83.5431292,283.953328 L78.9129137,287.69837 L78.9129137,297.538939 C82.450143,298.396522 112.020673,292.794695 124.692634,286.756209 C132.929802,282.831193 133.835223,275.627298 132.526193,270.000885" id="Fill-117" fill="#774F35"></path>
                <path d="M121.689034,282.659184 C122.492325,282.57854 131.055523,288.804869 131.055523,289.936839 C131.055523,291.069793 130.077433,293.818583 127.417145,292.847901 C124.75784,291.878203 117.004807,289.128429 117.004807,289.128429 C117.004807,289.128429 115.228337,283.305322 121.689034,282.659184" id="Fill-118" fill="#93613F"></path>
                <path d="M117.005298,289.128528 C117.005298,289.128528 124.757349,291.878301 127.417636,292.847999 C130.076942,293.818681 131.056014,291.069891 131.056014,289.936937 C131.056014,289.888747 131.035391,289.829739 131.005931,289.763847 C129.532903,290.329341 127.542353,290.483745 125.21006,289.128528 C120.117314,286.169276 121.689525,282.659283 121.689525,282.659283 C115.228828,283.305421 117.005298,289.128528 117.005298,289.128528" id="Fill-119" fill="#774F35"></path>
                <path d="M130.281201,264.415088 C126.63104,268.080469 119.330717,273.927179 109.302348,275.94722 C95.1701255,278.79239 120.982472,276.297334 131.431145,266.652475 C131.07369,265.816528 130.681865,265.060242 130.281201,264.415088" id="Fill-120" fill="#774F35"></path>
                <path d="M120.037574,269.695518 C120.220229,269.876476 118.692209,271.215958 114.018785,272.671489 C110.41085,273.796575 105.211064,275.094751 95.7169132,275.324882 C93.2432095,275.38389 91.0916078,276.11854 90.9452871,275.348485 C90.8608336,274.898058 93.8697371,275.016074 98.6835899,274.510572 C104.638548,273.884103 112.911068,272.748199 115.181494,271.936839 C118.882721,270.616043 119.342305,269.008075 120.037574,269.695518" id="Fill-121" fill="#774F35"></path>
                <polygon id="Fill-122" fill="#CE9659" points="67.8765031 281.923551 70.3541348 277.267819 73.5839924 280.771912 69.11581 282.820473"></polygon>
                <path d="M68.2605704,276.843847 L71.5925579,275.698108 C71.5925579,275.698108 71.9686708,275.867264 71.9686708,276.270486 C71.9686708,276.67469 71.3225029,277.707331 70.730346,277.67586 C70.1391711,277.644389 68.2605704,276.843847 68.2605704,276.843847" id="Fill-123" fill="#CE9659"></path>
                <path d="M78.9127173,264.759892 C74.0006627,264.759892 69.84378,269.517904 68.4061055,276.093363 L70.2994364,276.835881 L68.2607668,276.843748 C68.1448887,277.474151 68.0457048,278.112421 67.9808917,278.77036 L70.6765314,279.531563 L67.8767977,281.923355 C68.1497988,290.615234 72.985256,297.538841 78.9127173,297.538841 C85.0149779,297.538841 89.9623852,290.201195 89.9623852,281.149366 C89.9623852,272.097538 85.0149779,264.759892 78.9127173,264.759892" id="Fill-124" fill="#F4D382"></path>
                <path d="M70.9837067,285.069858 C70.9837067,285.069858 70.9925448,285.135751 71.0102211,285.265568 C71.0278975,285.394402 71.0465558,285.588145 71.1054769,285.830078 C71.2085888,286.315911 71.4187407,287.027941 71.8773431,287.8334 C72.3339816,288.632959 73.0567469,289.52693 74.1124164,290.235026 C75.1602297,290.945089 76.5605875,291.400434 78.100392,291.338476 C79.6274301,291.26865 81.2890048,290.671685 82.5391139,289.467922 C83.7882409,288.261208 84.5434128,286.48015 84.8380183,284.577141 C85.1365518,282.657414 84.9499683,280.618687 84.6691112,278.534721 C84.3715597,276.453705 84.1908683,274.272376 83.0055725,272.714565 C82.4271638,271.936642 81.6710098,271.345579 80.7292545,271.193141 C79.889629,271.034803 78.8938626,271.290505 78.101374,271.805841 C77.2971011,272.315277 76.6096885,273.044026 76.1785825,273.878989 C75.7307822,274.745424 75.4784036,275.666932 75.340921,276.634663 C75.1995104,277.59256 75.1798701,278.564225 75.1651398,279.523105 C75.1661218,280.482969 75.1435354,281.445783 75.2260249,282.315168 C75.3104785,283.186519 75.5491089,283.993946 76.0302978,284.615497 C76.2630361,284.925289 76.5507674,285.175089 76.8669772,285.347196 C77.1782769,285.516352 77.5661741,285.593063 77.8784559,285.582245 C78.5776528,285.570443 79.2169466,285.176073 79.7050096,284.713843 C80.1881625,284.232928 80.5357969,283.652683 80.704704,283.060636 C81.02877,281.849004 80.7813014,280.706216 80.5171385,279.82503 C80.2343173,278.937943 79.9181075,278.268202 79.7089376,277.81089 C79.4928937,277.355545 79.3770155,277.113612 79.3770155,277.113612 L79.4339726,277.084108 C79.4339726,277.084108 79.5577068,277.322107 79.7884811,277.770568 C80.0123812,278.221979 80.3521595,278.881885 80.6673873,279.772906 C80.9619928,280.653109 81.2654364,281.827368 80.9639568,283.127511 C80.8029058,283.770699 80.4542894,284.405035 79.945604,284.945942 C79.4320085,285.468162 78.7279015,285.926458 77.8980962,285.96383 C77.0673089,286.021854 76.2306295,285.581261 75.6944476,284.883983 C75.1366613,284.193589 74.8577681,283.290767 74.7507282,282.373192 C74.6466342,281.44775 74.6544904,280.498705 74.63485,279.527039 C74.6260119,278.557341 74.6485983,277.560106 74.7850988,276.556969 C74.9186533,275.5558 75.1877262,274.542829 75.663023,273.61247 C76.1393018,272.677193 76.8836715,271.874684 77.779272,271.295422 C78.6709445,270.71911 79.7757149,270.390632 80.8618269,270.583392 C81.9440109,270.749598 82.8828202,271.462611 83.523096,272.328062 C84.1781021,273.201381 84.551269,274.247789 84.7810612,275.295182 C85.0118355,276.346508 85.1257496,277.409635 85.2671602,278.458011 C85.5352511,280.552795 85.7179065,282.661348 85.3928585,284.66762 C85.0795947,286.659141 84.2389872,288.546414 82.8661259,289.81902 C81.4922825,291.089659 79.7217039,291.679739 78.1092301,291.723995 C76.4830081,291.766284 75.014891,291.229311 73.9562755,290.454339 C72.8848937,289.682318 72.1758767,288.739173 71.7359325,287.909127 C71.2950064,287.07023 71.1054769,286.342464 71.0170953,285.84483 C70.9660303,285.59503 70.9532641,285.40227 70.9395158,285.272453 C70.9257676,285.143618 70.9198755,285.076743 70.9198755,285.076743 L70.9837067,285.069858 Z" id="Fill-125" fill="#AA733D"></path>
                <path d="M248.519423,259.20773 C248.519423,259.20773 235.466439,259.638488 224.147698,255.756744 C212.827975,251.875984 201.559317,253.614754 198.14975,257.489613 C194.740183,261.363489 190.068723,275.166446 202.739703,281.203949 C215.411665,287.242435 244.982194,292.844262 248.519423,291.986679 L248.519423,259.20773 Z" id="Fill-126" fill="#93613F"></path>
                <path d="M194.905948,264.448723 C208.910508,276.810901 243.410769,278.080556 243.889012,278.401166 L248.519227,282.145225 L248.519227,291.986777 C244.981998,292.84436 215.411468,287.242533 202.740488,281.204047 C194.50332,277.279031 193.596918,270.075136 194.905948,264.448723" id="Fill-127" fill="#774F35"></path>
                <path d="M227.698577,282.827259 C226.893322,282.879383 219.463373,290.427491 219.648975,291.543725 C219.834576,292.660944 221.249664,295.21304 223.71453,293.818484 C226.180377,292.424912 233.377588,288.440888 233.377588,288.440888 C233.377588,288.440888 234.176951,282.405352 227.698577,282.827259" id="Fill-128" fill="#93613F"></path>
                <path d="M233.377293,288.440888 C233.377293,288.440888 226.180082,292.424912 223.714235,293.818484 C221.249369,295.21304 219.834281,292.660944 219.64868,291.543725 C219.640824,291.496519 219.651626,291.434561 219.670284,291.365718 C221.215981,291.680427 223.204568,291.506354 225.2835,289.78627 C229.82337,286.032377 227.698282,282.827259 227.698282,282.827259 C234.176656,282.405352 233.377293,288.440888 233.377293,288.440888" id="Fill-129" fill="#774F35"></path>
                <path d="M197.150939,258.862041 C200.801101,262.527422 208.101423,268.375116 218.130775,270.395156 C232.262015,273.240326 206.449669,270.745271 196.000996,261.100411 C196.358451,260.264465 196.751258,259.508179 197.150939,258.862041" id="Fill-130" fill="#774F35"></path>
                <path d="M207.395058,264.143356 C207.212402,264.324314 208.740423,265.663796 213.413847,267.119327 C217.021781,268.243429 222.221567,269.542589 231.715719,269.77272 C234.189422,269.831728 236.341024,270.566378 236.487345,269.796323 C236.571798,269.345896 233.562895,269.463912 228.749042,268.95841 C222.794084,268.331941 214.521563,267.196037 212.251137,266.384677 C208.549911,265.063881 208.090327,263.455913 207.395058,264.143356" id="Fill-131" fill="#774F35"></path>
                <polygon id="Fill-132" fill="#CE9659" points="259.555638 276.371389 257.078988 271.715657 253.848148 275.21975 258.317313 277.268311"></polygon>
                <path d="M259.172061,271.291685 L255.840074,270.145946 C255.840074,270.145946 255.463961,270.315102 255.463961,270.718324 C255.463961,271.122528 256.110129,272.154185 256.702286,272.123698 C257.294443,272.092227 259.172061,271.291685 259.172061,271.291685" id="Fill-133" fill="#CE9659"></path>
                <path d="M248.519423,259.20773 C253.431478,259.20773 257.588361,263.965742 259.026035,270.541201 L257.131722,271.283719 L259.172356,271.291586 C259.287252,271.921005 259.386436,272.560259 259.452231,273.218198 L256.755609,273.979401 L259.555343,276.371193 C259.283324,285.063072 254.446885,291.986679 248.519423,291.986679 C242.417163,291.986679 237.470738,284.648049 237.470738,275.597204 C237.470738,266.545376 242.417163,259.20773 248.519423,259.20773" id="Fill-134" fill="#F4D382"></path>
                <path d="M256.448434,279.517696 C256.448434,279.517696 256.439596,279.583589 256.422902,279.713406 C256.405225,279.84224 256.385585,280.035983 256.326664,280.277916 C256.224534,280.763749 256.0134,281.475779 255.55578,282.281238 C255.098159,283.080797 254.376376,283.974768 253.319724,284.682864 C252.272893,285.392927 250.872535,285.848272 249.332731,285.786314 C247.805693,285.716488 246.143136,285.119523 244.893027,283.914777 C243.6439,282.709046 242.888728,280.927988 242.594122,279.024979 C242.295589,277.105252 242.482172,275.066526 242.764012,272.982559 C243.060581,270.901543 243.241272,268.720214 244.426568,267.162403 C245.004977,266.38448 245.762113,265.792433 246.702886,265.640979 C247.543494,265.483625 248.53926,265.738343 249.330767,266.253679 C250.13504,266.763115 250.822452,267.490881 251.253558,268.326827 C251.701359,269.193262 251.954719,270.11477 252.092202,271.082501 C252.23263,272.040398 252.253253,273.012063 252.267001,273.970943 C252.266019,274.930807 252.289587,275.893621 252.206116,276.763006 C252.121662,277.634357 251.883032,278.4408 251.402825,279.063335 C251.169105,279.373127 250.881373,279.622927 250.565164,279.795034 C250.253864,279.96419 249.865967,280.040901 249.554667,280.030083 C248.854488,280.018281 248.216176,279.623911 247.728113,279.161681 C247.243978,278.680766 246.897326,278.099537 246.728419,277.508474 C246.403371,276.296843 246.650839,275.154054 246.915984,274.272868 C247.197823,273.385781 247.515015,272.715056 247.723203,272.258728 C247.940229,271.803383 248.056107,271.56145 248.056107,271.56145 L247.99915,271.530962 C247.99915,271.530962 247.875416,271.769945 247.64366,272.218406 C247.41976,272.668833 247.079981,273.329723 246.765735,274.220744 C246.470148,275.100947 246.167686,276.275206 246.468184,277.575349 C246.630217,278.218537 246.978833,278.852873 247.487519,279.39378 C248.000132,279.916 248.704239,280.374296 249.535027,280.411668 C250.364832,280.468709 251.201511,280.029099 251.738675,279.330838 C252.295479,278.641427 252.575355,277.738605 252.681413,276.82103 C252.786489,275.895588 252.77765,274.946543 252.797291,273.974877 C252.807111,273.004196 252.784524,272.007944 252.647042,271.004808 C252.51447,270.003638 252.244415,268.990667 251.7701,268.060308 C251.293821,267.125031 250.549451,266.322522 249.653851,265.74326 C248.761196,265.166948 247.656426,264.837487 246.570314,265.030247 C245.48813,265.197436 244.549321,265.910449 243.909045,266.7759 C243.254039,267.649219 242.881854,268.695627 242.65108,269.74302 C242.420305,270.794346 242.307373,271.857473 242.165963,272.905849 C241.89689,275.000633 241.714234,277.109186 242.040264,279.115458 C242.352546,281.106979 243.194136,282.994252 244.566015,284.266858 C245.94084,285.537497 247.710437,286.127577 249.322911,286.170849 C250.949133,286.214122 252.41725,285.677149 253.475865,284.902177 C254.547247,284.130156 255.256264,283.187011 255.696208,282.355982 C256.137134,281.518068 256.326664,280.790302 256.415045,280.291685 C256.467092,280.042868 256.478877,279.850108 256.493607,279.720291 C256.506373,279.590473 256.512265,279.524581 256.512265,279.524581 L256.448434,279.517696 Z" id="Fill-135" fill="#AA733D"></path>
                <path d="M154.180969,305.105143 C159.323798,303.747959 179.982513,298.35266 188.311991,297.062351 C189.838047,296.825336 191.395528,297.401647 192.345139,298.620163 C193.040408,299.513151 193.461694,300.621518 192.646619,301.670877 C191.113688,303.642728 163.954013,309.608438 156.438629,311.228207 C154.699475,311.602908 152.846406,310.799416 152.124623,309.170795 C151.873226,308.603334 151.767169,307.954246 151.946878,307.2432 C152.216933,306.175155 153.117443,305.385431 154.180969,305.105143" id="Fill-136" fill="#93613F"></path>
                <path d="M159.300622,308.140023 C155.319521,308.662244 153.118818,308.652409 151.909954,308.443914 C151.955127,308.696665 152.023868,308.941549 152.125016,309.170696 C152.846799,310.799318 154.698885,311.60281 156.438039,311.228109 C163.953424,309.608339 191.114081,303.642629 192.64603,301.670778 C193.462087,300.621419 193.040801,299.514036 192.345532,298.620064 C192.230636,298.474511 192.106902,298.337809 191.975311,298.209959 C188.286851,301.129872 174.817491,302.992558 177.467957,303.222689 C180.29126,303.468556 190.111441,299.534688 190.356945,301.051194 C190.60245,302.566717 169.611813,306.787756 159.300622,308.140023" id="Fill-137" fill="#774F35"></path>
                <path d="M193.824157,314.187754 C188.596874,313.203304 167.604273,309.307792 159.205072,308.620348 C157.665268,308.494465 156.153942,309.180924 155.293694,310.465332 C154.66422,311.405526 154.322478,312.540447 155.212186,313.528831 C156.881617,315.385617 184.399729,319.382426 192.011351,320.457355 C193.773092,320.706172 195.563311,319.770895 196.16627,318.095068 C196.376422,317.510889 196.436325,316.8559 196.205551,316.158622 C195.85988,315.112213 194.905359,314.390348 193.824157,314.187754" id="Fill-138" fill="#93613F"></path>
                <path d="M196.166564,318.094773 C196.376716,317.510593 196.436619,316.855605 196.205845,316.158327 C196.142014,315.965567 196.051668,315.78756 195.948556,315.61742 C195.756081,316.141608 195.342651,316.594986 194.542307,316.827084 C191.729807,317.647295 187.043616,315.680362 184.920493,315.843617 C182.79737,316.007856 193.426734,317.810551 193.09383,318.630762 C192.759944,319.44999 169.203293,315.351884 167.239257,313.369215 C166.167875,312.287401 167.171498,310.829903 168.50115,309.803164 C164.83724,309.249472 161.535696,308.811829 159.204385,308.620053 C157.665562,308.49417 156.153254,309.181613 155.293006,310.465037 C154.663533,311.405231 154.322772,312.541136 155.211499,313.528536 C156.881912,315.385322 184.400023,319.383114 192.011646,320.45706 C193.773386,320.705877 195.563605,319.7706 196.166564,318.094773" id="Fill-139" fill="#774F35"></path>
                <path d="M181.246861,294.650989 C176.346591,296.721187 156.698372,305.085572 149.316542,309.159092 C147.963321,309.905543 147.081469,311.313867 147.073613,312.860861 C147.066739,313.992831 147.408481,315.127752 148.694925,315.45918 C151.110689,316.083681 176.255263,304.194551 183.193221,300.880268 C184.798821,300.113164 185.775929,298.343907 185.354643,296.613005 C185.20734,296.01014 184.896041,295.430878 184.319596,294.976516 C183.454438,294.296941 182.260304,294.222197 181.246861,294.650989" id="Fill-140" fill="#93613F"></path>
                <path d="M179.044097,300.185842 C182.514549,298.163834 184.251739,296.808617 185.080562,295.904811 C185.200368,296.133959 185.294642,296.369991 185.354545,296.612907 C185.775831,298.343808 184.798723,300.113065 183.194105,300.880169 C176.255165,304.194453 151.110591,316.083583 148.694827,315.459082 C147.409365,315.127653 147.066641,313.992733 147.073515,312.860762 C147.074497,312.673904 147.089227,312.489995 147.114759,312.309037 C151.816662,312.364112 163.618556,305.599827 161.65943,307.404488 C159.574605,309.326183 149.399916,312.217575 150.129555,313.567875 C150.860177,314.918175 170.054703,305.421819 179.044097,300.185842" id="Fill-141" fill="#774F35"></path>
                <path d="M169.894732,307.100794 C170.917995,306.632664 171.924563,306.170434 172.906582,305.716073 C172.341921,304.357905 169.497015,302.321145 166.700227,300.937407 C164.697892,301.824494 162.660204,302.737151 160.68242,303.638007 C162.63369,304.856523 166.313312,306.834274 169.894732,307.100794" id="Fill-142" fill="#774F35"></path>
                <path d="M194.663291,307.314009 C189.690351,305.42477 169.707265,297.896331 161.55946,295.740572 C160.066793,295.346202 158.457265,295.755324 157.385883,296.868608 C156.600269,297.682919 156.066051,298.741129 156.767212,299.871132 C158.08508,301.991487 184.473871,310.769912 191.778122,313.166621 C193.469157,313.722279 195.395877,313.116464 196.283621,311.572421 C196.592957,311.034464 196.766774,310.401112 196.66268,309.673346 C196.504575,308.583665 195.691464,307.704446 194.663291,307.314009" id="Fill-143" fill="#93613F"></path>
                <path d="M189.255023,309.795788 C193.159527,310.732048 195.350409,310.953328 196.574004,310.872684 C196.502316,311.120518 196.408043,311.35655 196.283326,311.572913 C195.395582,313.116955 193.469845,313.721788 191.778809,313.167112 C184.473577,310.76942 158.085768,301.990995 156.766917,299.870641 C156.065756,298.741621 156.600956,297.683411 157.385589,296.868116 C157.514233,296.735348 157.651716,296.612415 157.796072,296.498333 C161.160466,299.789013 174.360754,303.052156 171.700467,303.003966 C168.867345,302.951842 159.511658,298.011888 159.109031,299.492989 C158.706403,300.975074 179.141218,307.371542 189.255023,309.795788" id="Fill-144" fill="#774F35"></path>
            </g>
        </g>
    </g>
</svg>