<?xml version="1.0" encoding="UTF-8"?>
<svg width="120px" height="120px" viewBox="0 0 120 120" version="1.1" xmlns="http://www.w3.org/2000/svg" xmlns:xlink="http://www.w3.org/1999/xlink">
    <!-- Generator: Sketch 51.1 (57501) - http://www.bohemiancoding.com/sketch -->
    <title>Hammer1</title>
    <desc>Created with Sketch.</desc>
    <defs></defs>
    <g id="Hammer1" stroke="none" stroke-width="1" fill="none" fill-rule="evenodd">
        <g id="Group" transform="translate(29.000000, 0.000000)">
            <path d="M0.284932735,19.4701345 C7.61542601,0.784843049 27.2120179,0.0788340807 27.2120179,0.0788340807 L37.1378475,0.0788340807 C37.7615247,0.0788340807 38.3227803,0.431569507 38.61713,0.981524664 C39.80287,3.19695067 42.1334529,4.70609865 44.8221525,4.70609865 C47.510583,4.70609865 49.8411659,3.19695067 51.0269058,0.981524664 C51.3212556,0.431569507 51.8825112,0.0788340807 52.5061883,0.0788340807 L61.4679821,0.0788340807 C62.0004484,0.0788340807 62.4320179,0.510403587 62.4320179,1.04286996 L62.4320179,15.3548879 C62.4320179,15.8873543 62.0004484,16.3189238 61.4679821,16.3189238 L52.5061883,16.3189238 C51.8825112,16.3189238 51.3212556,15.9661883 51.0269058,15.4162332 C49.8411659,13.2008072 47.510583,11.6916592 44.8221525,11.6916592 C44.6173991,11.6916592 44.4150673,11.7005381 44.2148879,11.7174888 C40.7674439,12.0126457 38.2124664,15.0796413 38.2124664,18.5397309 L38.2124664,101.192825 L27.2120179,101.192825 L27.2120179,16.3189238 C20.6467265,7.92134529 7.28986547,16.4421525 1.73865471,20.5910314 C0.970224215,21.1652018 -0.0653811659,20.363139 0.284932735,19.4701345" id="Fill-9" fill="#3A3A39"></path>
            <path d="M26.353991,113.992735 L26.353991,80.3039462 L39.0707623,80.3039462 L39.0707623,113.992735 C40.1276233,114.481883 40.864843,115.544664 40.864843,116.785561 C40.864843,118.488161 39.484574,119.8687 37.781704,119.8687 L27.6427803,119.8687 C25.9401794,119.8687 24.5596413,118.488161 24.5596413,116.785561 C24.5596413,115.544664 25.29713,114.481883 26.353991,113.992735" id="Fill-10" fill="#AB2531"></path>
        </g>
    </g>
</svg>