<?xml version="1.0" encoding="UTF-8"?>
<svg width="120px" height="120px" viewBox="0 0 120 120" version="1.1" xmlns="http://www.w3.org/2000/svg" xmlns:xlink="http://www.w3.org/1999/xlink">
    <!-- Generator: Sketch 51.1 (57501) - http://www.bohemiancoding.com/sketch -->
    <title>Hot-air balloon2</title>
    <desc>Created with Sketch.</desc>
    <defs></defs>
    <g id="Hot-air-balloon2" stroke="none" stroke-width="1" fill="none" fill-rule="evenodd">
        <g id="hot-air-balloon" transform="translate(18.000000, 1.000000)">
            <polygon id="Shape" fill="#A7A5AC" points="40.2826376 100.021592 38.1877152 100.021592 36.3077998 109.409576 36.3077998 109.51068 38.3834088 109.51068"></polygon>
            <polygon id="Shape" fill="#A7A5AC" points="44.1851083 100.021592 42.0901859 100.021592 43.9894146 109.51068 46.0852678 109.51068"></polygon>
            <path d="M48.3807704,100.534547 C49.0890836,100.534547 49.7648199,100.24402 50.2499819,99.7285078 C62.3469197,86.8799941 82.2685776,62.470584 82.2685776,41.0345469 C82.2685776,18.3715547 63.8754707,0 41.1864117,0 C18.4973527,0 0.104245833,18.3715547 0.104245833,41.0345469 C0.104245833,62.4703516 20.0259038,86.8799941 32.1226088,99.7285078 C32.6080035,100.24402 33.2835072,100.534547 33.9918204,100.534547 L48.3807704,100.534547 Z" id="Shape" fill="#FFE682"></path>
            <path d="M45.2945818,119 L37.0782417,119 C35.9438702,119 35.0240403,118.081236 35.0240403,116.94818 L35.0240403,110.793184 C35.0240403,109.660127 35.9438702,108.741363 37.0782417,108.741363 L45.2945818,108.741363 C46.4289533,108.741363 47.3487831,109.660127 47.3487831,110.793184 L47.3487831,116.948412 C47.3487831,118.081236 46.4289533,119 45.2945818,119 Z" id="Shape" fill="#FF9164"></path>
            <path d="M47.8269644,100.534547 C57.4275867,87.9224062 74.0520048,62.9275254 74.0520048,41.0345469 C74.0520048,18.3715547 59.337752,0 41.1864117,0 C23.0350714,0 8.32081863,18.3715547 8.32081863,41.0345469 C8.32081863,62.9275254 24.9452367,87.9224062 34.5458591,100.534547 L47.8269644,100.534547 Z" id="Shape" fill="#96E178"></path>
            <path d="M45.7518208,100.534547 C52.3521177,87.9224062 63.7814633,62.9275254 63.7814633,41.0345469 C63.7814633,18.3715547 53.6654291,0 41.1864117,0 C28.7073944,0 18.5913601,18.3715547 18.5913601,41.0345469 C18.5913601,62.9275254 30.0207057,87.9224062 36.6210027,100.534547 L45.7518208,100.534547 Z" id="Shape" fill="#FFC850"></path>
            <path d="M42.8466662,100.534547 C45.24688,87.9224062 49.4027518,62.9275254 49.4027518,41.0345469 C49.4027518,18.3715547 45.7241305,0 41.1864117,0 C36.648693,0 32.9700716,18.3715547 32.9700716,41.0345469 C32.9700716,62.9275254 37.1259434,87.9224062 39.5261572,100.534547 L42.8466662,100.534547 Z" id="Shape" fill="#FF6464"></path>
        </g>
    </g>
</svg>