<?xml version="1.0" encoding="UTF-8"?>
<svg width="120px" height="120px" viewBox="0 0 120 120" version="1.1" xmlns="http://www.w3.org/2000/svg" xmlns:xlink="http://www.w3.org/1999/xlink">
    <!-- Generator: Sketch 51.1 (57501) - http://www.bohemiancoding.com/sketch -->
    <title>Musician</title>
    <desc>Created with Sketch.</desc>
    <defs>
        <polygon id="path-1" points="0.193055172 1.4175 29.3843655 1.4175 29.3843655 34.2857143 0.193055172 34.2857143"></polygon>
        <polygon id="path-3" points="0.538331034 1.70457956 25.9844138 1.70457956 25.9844138 22.9937893 0.538331034 22.9937893"></polygon>
        <polygon id="path-5" points="0 118.731857 60.1913103 118.731857 60.1913103 0.000428571429 0 0.000428571429"></polygon>
        <polygon id="path-7" points="0.199373684 0.299053333 13.3734789 0.299053333 13.3734789 5.86666667 0.199373684 5.86666667"></polygon>
    </defs>
    <g id="Musician" stroke="none" stroke-width="1" fill="none" fill-rule="evenodd">
        <g id="Group-2" transform="translate(29.000000, 0.000000)">
            <g id="Group">
                <g id="Page-1">
                    <g id="Group-3" transform="translate(10.689655, 84.446143)">
                        <mask id="mask-2" fill="white">
                            <use xlink:href="#path-1"></use>
                        </mask>
                        <g id="Clip-2"></g>
                        <path d="M4.33850345,28.2610714 L4.33422759,28.2610714 L0.193055172,1.4175 L29.3843655,1.4175 L25.3586414,28.2610714 L25.3522276,28.2610714 C27.1951241,29.4010714 28.531331,31.7389286 26.9556759,33.6353571 C25.7627103,34.9767857 24.005331,33.9182143 22.6712621,33.3546429 C21.1960897,32.6517857 19.5092621,32.1567857 18.1751931,31.2417857 C17.309331,30.6375 16.3023655,29.9817857 15.7165724,29.0796429 C15.5369862,28.8010714 15.4536069,28.5310714 15.5177448,28.2610714 L15.5198828,28.2610714 L15.5198828,16.4496429 L15.5177448,16.4496429 L15.4963655,12.4939286 L14.1387793,12.4682143 L14.1772621,16.4496429 L14.1815379,16.4496429 L14.1815379,28.2610714 L14.1772621,28.2610714 C14.2392621,28.5310714 14.1558828,28.8010714 13.9741586,29.0796429 C13.3905034,29.9817857 12.3792621,30.6375 11.5155379,31.2439286 C10.181469,32.1567857 8.49250345,32.6517857 7.0216069,33.3546429 C5.6854,33.9182143 3.93015862,34.9767857 2.73505517,33.6353571 C1.15726207,31.7389286 2.4956069,29.4010714 4.33850345,28.2610714" id="Fill-1" fill="#9E561A" mask="url(#mask-2)"></path>
                    </g>
                    <g id="Group-6" transform="translate(34.206897, 39.446143)">
                        <mask id="mask-4" fill="white">
                            <use xlink:href="#path-3"></use>
                        </mask>
                        <g id="Clip-5"></g>
                        <path d="M24.0684,1.91485714 C22.1848828,1.11557143 19.7284,2.66485714 18.582469,5.37557143 C17.9047448,6.97628571 17.8341931,8.62842857 18.2788828,9.87342857 L12.6475724,16.4991429 L0.538331034,12.1684286 C0.538331034,12.1684286 2.73826207,15.4405714 3.24281379,16.617 C3.60626207,17.4784286 4.30964138,20.1912857 4.30964138,20.1912857 C4.30964138,20.1912857 13.0324,23.7462857 15.5081241,22.8484286 C18.5653655,21.7341429 22.0758483,11.7462857 22.0758483,11.7462857 L22.0737103,11.7441429 C23.3928138,11.2748571 24.6691586,10.0127143 25.402469,8.277 C26.5484,5.562 25.9519172,2.71628571 24.0684,1.91485714" id="Fill-4" fill="#9E561A" mask="url(#mask-4)"></path>
                    </g>
                    <path d="M7.58708966,57.4596429 C3.83502069,62.2682143 2.3961931,76.7239286 2.3961931,76.7239286 C2.3961931,76.7239286 2.39833103,76.7025 2.40474483,76.6617857 C1.92157241,77.3603571 1.57736552,78.2732143 1.47474483,79.2889286 C1.2181931,81.7060714 2.37267586,83.8103571 4.05095172,83.9882143 C5.14771034,84.1039286 6.19529655,83.3710714 6.86446897,82.1732143 C7.4866069,82.6875 8.1001931,82.8932143 8.53846897,82.6575 C9.36371034,82.2203571 9.26322759,80.4160714 8.32253793,78.6332143 C7.95908966,77.9517857 7.52936552,77.3689286 7.08895172,76.9382143 C7.0526069,76.8653571 7.01412414,76.7925 6.97564138,76.7196429 C6.97564138,76.7196429 8.60688276,66.2796429 10.3492966,63.8110714 C11.2172966,62.5746429 11.7817103,61.8803571 11.9805379,61.3296429 C12.1387448,60.8903571 12.3161931,60.0482143 12.3846069,59.7310714 C12.9468828,57.2517857 16.0511586,51.6739286 16.0511586,51.6739286 C16.0511586,51.6739286 9.41502069,55.1196429 7.58708966,57.4596429" id="Fill-7" fill="#9E561A"></path>
                    <path d="M5.19666897,80.1625714 C6.21004828,81.9925714 7.71087586,83.094 8.55322069,82.629 C9.39984138,82.1597143 9.26301379,80.2954286 8.25604828,78.4654286 C7.24053103,76.6354286 5.73756552,75.5318571 4.89308276,76.0011429 C4.05073793,76.4682857 4.18542759,78.3325714 5.19666897,80.1625714" id="Fill-9" fill="#9E561A"></path>
                    <path d="M51.4396897,46.0611429 C51.9057586,48.4632857 53.1799655,50.2397143 54.2895517,50.0254286 C55.4012759,49.8068571 55.9207931,47.6832857 55.4525862,45.279 C54.9865172,42.8747143 53.7101724,41.0961429 52.6005862,41.3147143 C51.491,41.5311429 50.9714828,43.6568571 51.4396897,46.0611429" id="Fill-11" fill="#9E561A"></path>
                    <path d="M41.2344897,81.9017143 C41.2344897,81.9017143 39.8982828,92.6417143 41.2344897,95.8645714 C41.5166966,96.5331429 43.0196621,97.6431429 43.6973862,97.3924286 C44.5611103,97.0795714 44.8411793,93.2117143 44.8411793,92.2945714 C44.8475931,84.9145714 41.2344897,75.6274286 41.2344897,75.6274286 L41.2344897,81.9017143 Z" id="Fill-13" fill="#F1C863"></path>
                    <mask id="mask-6" fill="white">
                        <use xlink:href="#path-5"></use>
                    </mask>
                    <g id="Clip-16"></g>
                    <polygon id="Fill-15" fill="#1E396D" mask="url(#mask-6)" points="9.16103448 112.877571 41.8393103 112.877571 41.8393103 83.0447143 9.16103448 83.0447143"></polygon>
                    <polygon id="Fill-17" fill="#EEEEED" mask="url(#mask-6)" points="9.16103448 112.909714 41.8393103 112.909714 41.8393103 110.359714 9.16103448 110.359714"></polygon>
                    <polygon id="Fill-18" fill="#EEEEED" mask="url(#mask-6)" points="9.16103448 105.527571 41.8393103 105.527571 41.8393103 103.648286 9.16103448 103.648286"></polygon>
                    <polygon id="Fill-19" fill="#EEEEED" mask="url(#mask-6)" points="9.16103448 102.371143 41.8393103 102.371143 41.8393103 100.494 9.16103448 100.494"></polygon>
                    <path d="M7.37415172,76.2347143 L2.2196,76.239 C2.2196,76.239 3.09828966,68.8032857 4.9753931,62.8268571 C5.72153103,60.4675714 6.61732414,58.3332857 7.67773793,56.9725714 C9.33891034,54.849 14.1449793,52.1318571 15.0108414,51.6518571 C17.1594621,50.2632857 23.6074621,50.0532857 23.6074621,50.0532857 L25.4076,50.109 L25.5572552,50.109 L27.3552552,50.0532857 C27.3552552,50.0532857 33.8289103,50.2825714 35.9625655,51.6797143 L46.7890483,55.7854286 L52.1253241,49.0997143 L57.3482897,51.7268571 C57.3482897,51.7268571 52.7667034,61.3568571 49.7116,62.4668571 C47.3363586,63.3325714 40.2619448,60.5661429 39.6911172,60.1675714 C41.2347034,66.8361429 41.6473241,75.4697143 41.745669,80.8332857 C41.7520828,80.9661429 41.7520828,81.1997143 41.7584966,81.4011429 C41.7584966,81.5082857 9.21918621,81.4032857 9.21918621,81.4032857 C9.22773793,81.1161429 9.23628966,80.8461429 9.24484138,80.5097143 C9.35387586,76.0118571 9.69594483,69.3518571 10.6943586,63.4225714 C10.6152552,63.5404286 10.5276,63.6647143 10.4399448,63.7911429 C10.1769793,64.1618571 9.92256552,64.704 9.68525517,65.3532857 C8.32766897,69.0347143 7.37415172,76.2347143 7.37415172,76.2347143" id="Fill-20" fill="#EEEEED" mask="url(#mask-6)"></path>
                    <polygon id="Fill-21" fill="#F1C863" mask="url(#mask-6)" points="9.16103448 83.0447143 41.8393103 83.0447143 41.8393103 76.6697143 9.16103448 76.6697143"></polygon>
                    <polygon id="Fill-22" fill="#B5B4B4" mask="url(#mask-6)" points="37.6872345 74.9247857 36.5477172 74.9247857 31.7929586 50.2947857 34.0698552 50.7640714"></polygon>
                    <polygon id="Fill-23" fill="#B5B4B4" mask="url(#mask-6)" points="13.0467241 83.1111429 11.9756207 83.1111429 14.6544483 51.5682857 17.0660345 50.6961429"></polygon>
                    <polygon id="Fill-24" fill="#2C2C2D" mask="url(#mask-6)" points="49.2955586 91.1363571 12.6129379 101.644929 5.6945931 83.4327857 41.658869 71.0277857"></polygon>
                    <polygon id="Fill-25" fill="#BC1718" mask="url(#mask-6)" points="18.9469862 99.8292857 43.8089862 92.7107143 36.2770552 72.8828571 11.9067793 81.2892857"></polygon>
                    <polygon id="Fill-26" fill="#F7B90B" mask="url(#mask-6)" points="40.9734483 93.5241429 41.2128966 93.4512857 33.7344138 73.7584286 33.4992414 73.8398571"></polygon>
                    <polygon id="Fill-27" fill="#F7B90B" mask="url(#mask-6)" points="21.4836414 99.1030714 21.7230897 99.0345 14.6272966 80.3509286 14.3921241 80.4323571"></polygon>
                    <polygon id="Fill-28" fill="#2C2C2D" mask="url(#mask-6)" points="21.723731 99.0340714 40.9736621 93.5247857 33.4994552 73.8405 14.6279379 80.3505"></polygon>
                    <polygon id="Fill-29" fill="#BC1718" mask="url(#mask-6)" points="25.9495655 97.8244286 36.7482552 94.7322857 29.3574276 75.2708571 18.7703931 78.9222857"></polygon>
                    <polygon id="Fill-30" fill="#F7B90B" mask="url(#mask-6)" points="36.7478276 94.7316429 37.0514138 94.6459286 29.6520345 75.1673571 29.357 75.2702143"></polygon>
                    <polygon id="Fill-31" fill="#F7B90B" mask="url(#mask-6)" points="25.6468345 97.9103571 25.9504207 97.8246429 18.7691103 78.9225 18.4762138 79.0253571"></polygon>
                    <path d="M10.8275517,86.5347857 C10.8275517,86.5347857 11.5074138,84.4605 12.0953448,84.0362143 C17.9853448,79.7526429 40.4293448,73.8597857 40.4293448,73.8597857 C40.4293448,73.8597857 21.1922414,78.3126429 11.0071379,82.8576429 C10.1027931,83.2605 10.8275517,86.5347857 10.8275517,86.5347857" id="Fill-32" fill="#D0D0D0" mask="url(#mask-6)"></path>
                    <path d="M37.635069,93.2918571 C45.4064483,92.2547143 47.7282414,90.024 44.7223103,84.519 C46.1761034,90.0775714 43.2300345,91.5775714 37.635069,93.2918571" id="Fill-33" fill="#D0D0D0" mask="url(#mask-6)"></path>
                    <path d="M12.1637586,91.599 L16.5871379,86.6318571 C17.3375517,88.7747143 18.1756207,90.7954286 18.7913448,92.2054286 C19.0158276,92.7325714 19.2424483,93.2425714 19.4626552,93.729 L12.1637586,91.599 Z M20.0698276,94.0932857 L47.2151379,85.8754286 L47.1039655,85.4897143 L19.8987931,93.7225714 C19.6572069,93.189 19.4092069,92.6254286 19.156931,92.0468571 C18.5305172,90.6047143 17.668931,88.5261429 16.9078276,86.334 L44.018931,77.4432857 L43.894931,77.0597143 L16.7774138,85.9547143 C16.0954138,83.949 15.5096207,81.8725714 15.2765862,80.1261429 C15.1761034,80.1175714 14.940931,80.1282857 14.8853448,80.2611429 C15.1247931,81.9561429 15.6806552,83.949 16.3305862,85.884 L9.3652069,84.1097143 L12.6961034,81.0175714 L11.7874828,81.3282857 L8.84568966,84.0411429 L6.06424138,85.0482857 L6.20534483,85.4318571 L8.96968966,84.4225714 L16.3391379,86.2997143 L11.7746552,91.434 L11.7554138,91.3675714 L9.0487931,92.2182857 L9.16851724,92.6061429 L11.5715517,91.8454286 L19.3044483,94.1018571 L14.568931,99.0754286 L11.6998276,99.8511429 L11.8067241,100.234714 L14.6843793,99.4632857 L18.8982414,99.8447143 L19.9992759,99.5275714 L15.1012759,99.0968571 L19.7085172,94.2625714 C20.7197586,96.4675714 21.6155517,98.2118571 22.0067931,98.9532857 C22.1094138,98.9854286 22.2954138,98.9511429 22.4001724,98.844 C22.008931,98.1004286 21.078931,96.2897143 20.0698276,94.0932857 Z" id="Fill-34" fill="#EEEEED" mask="url(#mask-6)"></path>
                    <path d="M12.8735517,102.342429 C12.6127241,102.423857 12.3155517,102.265286 12.2086552,101.988857 L5.24327586,83.6417143 C5.13637931,83.3652857 5.26251724,83.0717143 5.52548276,82.9902857 L5.53189655,82.9881429 C5.79272414,82.9067143 6.09203448,83.0631429 6.19893103,83.3395714 L13.1664483,101.686714 C13.269069,101.965286 13.142931,102.256714 12.8799655,102.340286 L12.8735517,102.342429 Z" id="Fill-35" fill="#B98C6A" mask="url(#mask-6)"></path>
                    <path d="M49.3353241,91.4085 C49.1065655,91.4813571 48.8414621,91.3442143 48.751669,91.0977857 L41.2047724,71.2399286 C41.1128414,70.9956429 41.2240138,70.7385 41.4549103,70.6656429 C41.6900828,70.5927857 42.1411862,70.6163571 42.2373931,70.8606429 L49.7778759,90.7185 C49.8719448,90.9606429 49.5640828,91.3356429 49.3353241,91.4085" id="Fill-36" fill="#B98C6A" mask="url(#mask-6)"></path>
                    <path d="M28.859931,50.0286429 C29.1635172,49.3493571 29.3495172,48.5800714 29.3495172,48.1000714 L21.576,48.1000714 C21.576,48.5800714 21.762,49.3493571 22.0677241,50.0286429 C21.8902759,50.0457857 21.7085517,50.0650714 21.5118621,50.0843571 L25.4178621,55.6279286 L29.4649655,50.0950714 C29.2533103,50.0715 29.0523448,50.0500714 28.859931,50.0286429" id="Fill-37" fill="#9E561A" mask="url(#mask-6)"></path>
                    <path d="M22.4106483,50.6732143 L29.3204414,48.3889286 L29.3375448,48.3760714 C28.0505103,48.5946429 26.729269,48.7082143 25.3802345,48.7082143 C24.0889241,48.7082143 22.8275448,48.6032143 21.5939586,48.4039286 C21.6623724,49.0746429 21.9702345,50.0046429 22.4106483,50.6732143" id="Fill-38" fill="#683918" mask="url(#mask-6)"></path>
                    <polygon id="Fill-39" fill="#DCDCDC" mask="url(#mask-6)" points="25.1527586 68.7261429 25.5589655 68.7261429 25.5589655 55.6954286 25.1527586 55.6954286"></polygon>
                    <path d="M24.1289034,53.8707857 C24.1289034,53.8707857 22.9701448,54.7772143 23.1989034,55.6986429 C23.4255241,56.6157857 19.0320759,50.3115 19.1667655,49.9707857 C19.2950414,49.6257857 20.6162828,48.4429286 20.6162828,48.4429286 L24.1289034,53.8707857 Z" id="Fill-40" fill="#DCDCDC" mask="url(#mask-6)"></path>
                    <path d="M26.7346138,53.8707857 C26.7346138,53.8707857 27.8912345,54.7772143 27.6667517,55.6986429 C27.4379931,56.6157857 31.8314414,50.3115 31.6988897,49.9707857 C31.5706138,49.6257857 30.2515103,48.4429286 30.2515103,48.4429286 L26.7346138,53.8707857 Z" id="Fill-41" fill="#DCDCDC" mask="url(#mask-6)"></path>
                    <path d="M48.4730966,28.8490714 C48.646269,27.7026429 48.7339241,26.5262143 48.7339241,25.3326429 C48.7339241,12.4026429 38.2730276,1.91764286 25.3791655,1.91764286 C12.4724759,1.91764286 2.0179931,12.4026429 2.0179931,25.3326429 C2.0179931,26.4726429 2.10137241,27.5933571 2.25744138,28.6905 C0.910544828,29.4297857 -0.000213793103,30.8290714 -0.000213793103,32.4297857 C-0.000213793103,34.8019286 1.99661379,36.7283571 4.45951034,36.7283571 C4.62413103,36.7283571 4.79088966,36.7176429 4.95337241,36.7005 C8.94275172,43.8855 16.592269,48.7433571 25.3791655,48.7433571 C34.1489586,48.7433571 41.7942,43.8940714 45.7899931,36.7240714 C45.856269,36.7262143 45.9289586,36.7283571 45.9995103,36.7283571 C48.4645448,36.7283571 50.4613724,34.8019286 50.4613724,32.4297857 C50.4613724,30.9362143 49.6724759,29.6205 48.4730966,28.8490714" id="Fill-42" fill="#9E561A" mask="url(#mask-6)"></path>
                    <path d="M49.5420621,22.0984286 C49.5270966,20.8748571 49.4394414,19.3855714 49.2684069,17.7977143 C46.1256483,7.49485714 36.5712345,-0.000857142857 25.2658552,-0.000857142857 C15.4206828,-0.000857142857 6.90102759,5.682 2.79192414,13.947 C1.65668276,17.1998571 0.955441379,20.3991429 0.897717241,21.8391429 C0.698889655,26.847 4.34192414,34.3448571 4.34192414,34.3448571 C3.90364828,26.1034286 3.99344138,26.1205714 5.97530345,24.6934286 C8.44247586,22.9148571 13.6333724,19.6105714 15.6408897,17.322 C16.0171655,16.887 16.8124759,15.3227143 16.8124759,15.3227143 C16.8124759,15.3227143 16.7333724,16.5484286 17.4196483,17.0927143 C21.5544069,20.3605714 33.7470276,16.7262857 38.3713724,19.2505714 C42.1576483,21.3141429 46.7520621,34.3448571 46.7520621,34.3448571 C48.6206138,30.7984286 49.5784069,24.8455714 49.5420621,22.0984286" id="Fill-51" fill="#2C2C2D" mask="url(#mask-6)"></path>
                </g>
            </g>
            <g id="Page-1" transform="translate(13.000000, 23.000000)">
                <path d="M7.95040963,1.55163466 C7.95040963,1.55163466 7.46918697,3.24689418 5.95845596,2.91133576 C5.22030934,2.74769358 5.09026141,1.78146919 2.71994529,2.21493713 C1.97454861,2.38455501 0.407629637,3.30205447 0.105845937,3.91479334 C-0.196390892,4.52799188 0.0224702598,1.66655193 2.4562244,0.603337373 C4.21209803,-0.0310059413 4.80705598,0.000251555378 6.26069279,0.000251555378 C7.71432959,0.000251555378 8.16202073,0.852937677 7.95040963,1.55163466" id="Fill-1" fill="#2C2C2D"></path>
                <path d="M18.0495904,1.55163466 C18.0495904,1.55163466 18.530813,3.24689418 20.041544,2.91133576 C20.7796907,2.74769358 20.9097386,1.78146919 23.2800547,2.21493713 C24.0254514,2.38455501 25.5923704,3.30205447 25.8941541,3.91479334 C26.1963909,4.52799188 25.9775297,1.66655193 23.5437756,0.603337373 C21.787902,-0.0310059413 21.192944,0.000251555378 19.7393072,0.000251555378 C18.2856704,0.000251555378 17.8379793,0.852937677 18.0495904,1.55163466" id="Fill-3" fill="#2C2C2D"></path>
                <path d="M6,9 C6,10.6568785 5.10453816,12 3.99983098,12 C2.89512381,12 2,10.6568785 2,9 C2,7.34312148 2.89512381,6 3.99983098,6 C5.10453816,6 6,7.34312148 6,9" id="Fill-5" fill="#2C2C2D"></path>
                <path d="M24,9 C24,10.6568785 23.1048762,12 22.000169,12 C20.8951238,12 20,10.6568785 20,9 C20,7.34312148 20.8951238,6 22.000169,6 C23.1048762,6 24,7.34312148 24,9" id="Fill-7" fill="#2C2C2D"></path>
                <path d="M13.0245351,10.1051036 C13.8647628,9.98736736 15.9897656,11.9211723 15.9897656,11.9211723 C15.9897656,11.9211723 16.092244,11.4926731 15.6486455,10.6417383 C15.1708875,9.72612431 12.99512,9 12.99512,9 C12.99512,9 11.3047014,9.46286003 10.503852,10.657908 C10.2073289,10.9575543 10,12 10,12 C10,12 11.8977475,10.262759 13.0245351,10.1051036 Z" id="Fill-9" fill="#683918"></path>
                <g id="Group-13" transform="translate(6.000000, 14.000000)">
                    <mask id="mask-8" fill="white">
                        <use xlink:href="#path-7"></use>
                    </mask>
                    <g id="Clip-12"></g>
                    <path d="M0.199373684,0.696031111 C0.199373684,0.696031111 7.09763684,3.90412 13.3734789,0.299053333 C13.3734789,0.299053333 11.9822684,5.76825333 7.42305789,5.86016444 C3.30768947,5.98238667 2.43942632,4.36807556 1.94632105,3.90412 C1.45274211,3.44114222 0.524794737,2.13238667 0.199373684,0.696031111" id="Fill-11" fill="#683918" mask="url(#mask-8)"></path>
                </g>
            </g>
        </g>
    </g>
</svg>