<?xml version="1.0" encoding="UTF-8"?>
<svg width="120px" height="120px" viewBox="0 0 120 120" version="1.1" xmlns="http://www.w3.org/2000/svg" xmlns:xlink="http://www.w3.org/1999/xlink">
    <!-- Generator: Sketch 48.2 (47327) - http://www.bohemiancoding.com/sketch -->
    <title>Flower10</title>
    <desc>Created with Sketch.</desc>
    <defs></defs>
    <g id="ALL" stroke="none" stroke-width="1" fill="none" fill-rule="evenodd">
        <g id="Flower10">
            <g id="Group-179" transform="translate(32.000000, 0.000000)">
                <path d="M20.9704615,73.4649231 C20.9676923,73.6430769 20.964,73.8498462 20.9612308,74.0870769 C20.8790769,80.424 20.5643077,107.503385 23.208,119.864308 L32.1729231,119.864308 C36.708,107.677846 36.9692308,81.264 37.2184615,75.3673846 C37.7695385,62.424 37.8424615,48.4578462 34.8969231,35.8375385 C33.6627692,30.5547692 31.3532308,23.0667692 26.9870769,29.5550769 C19.3366154,40.9246154 21.1412308,60.0184615 20.9704615,73.4649231" id="Fill-151" fill="#5E763F"></path>
                <path d="M11.5827692,94.7510769 C12.2944615,97.0504615 14.5430769,111.576 18.0498462,119.864308 L25.7224615,119.864308 C25.6301538,119.028923 25.5055385,118.247077 25.4455385,117.635077 C24.9009231,112.056 23.5615385,106.643077 22.8092308,101.061231 C21.6738462,92.6473846 17.9076923,85.236 14.7221538,77.4406154 C13.3421538,74.0667692 12.4264615,66.8501538 8.72676923,65.0132308 C4.56553846,62.9492308 4.18061538,67.512 4.26738462,71.0252308 C4.46769231,79.2433846 9.19476923,87.0387692 11.5827692,94.7510769" id="Fill-152" fill="#5E763F"></path>
                <path d="M27.9018462,119.864308 L32.5975385,119.864308 C35.1904615,108.193846 39.4043077,96.8612308 44.0095385,85.8636923 C46.5212308,79.8636923 49.1953846,73.9227692 51.7486154,67.9403077 C53.0898462,64.7981538 59.6446154,48.4541538 49.2526154,53.4821538 C48.2630769,53.9612308 47.5356923,55.0606154 46.6310769,55.6310769 C45.6461538,56.2504615 44.5726154,56.5255385 43.6596923,57.3166154 C40.9421538,59.6713846 39.2298462,63.3470769 37.4123077,66.3747692 C35.1203077,70.1935385 33.9867692,74.2236923 32.8467692,78.5436923 C30.9701538,85.6578462 30.2926154,92.9916923 28.7953846,100.185231 C27.6756923,105.561231 27.4486154,110.819077 27.5630769,116.295692 C27.576,116.892923 27.672,118.336615 27.9018462,119.864308" id="Fill-153" fill="#5E763F"></path>
                <path d="M25.3098462,119.864308 C24.8252308,104.463692 25.1723077,89.0510769 26.4812308,73.6956923 C27.8030769,58.1796923 29.2929231,42.0627692 35.064,27.4827692 C35.4849231,26.4203077 33.7707692,25.9615385 33.3553846,27.012 C27.7255385,41.2310769 26.2578462,56.8513846 24.8621538,71.9778462 C23.3907692,87.8898462 23.0270769,103.896 23.532,119.864308 L25.3098462,119.864308" id="Fill-154" fill="#3D522A"></path>
                <path d="M17.3593846,87.3830769 C17.8541538,98.2126154 17.5726154,109.079077 18.5741538,119.864308 L20.3270769,119.864308 C19.2664615,108.795692 19.5987692,97.6181538 19.092,86.5144615 C18.48,73.0910769 16.3550769,59.7609231 14.2375385,46.5092308 C14.0566154,45.384 12.3489231,45.8630769 12.5270769,46.98 C14.6686154,60.3756923 16.74,73.8166154 17.3593846,87.3830769" id="Fill-155" fill="#3D522A"></path>
                <path d="M27.4338462,119.864308 C30.0332308,99.1790769 35.4064615,78.9073846 42.6969231,59.388 C43.0966154,58.3153846 41.3824615,57.8556923 40.9864615,58.9181538 C33.6396923,78.5944615 28.2673846,99.0156923 25.6596923,119.864308 L27.4338462,119.864308" id="Fill-156" fill="#3D522A"></path>
                <path d="M29.8209231,4.07538462 C31.5313846,1.00153846 33.5963077,-0.652615385 35.6806154,0.458769231 C38.5615385,1.99292308 36.228,9.15415385 35.8550769,11.5716923 C36.8224615,9.19661538 39.3886154,0.864923077 42.5538462,0.830769231 C47.2938462,0.777230769 42.9443077,10.1132308 41.8541538,12.2187692 C43.1344615,9.76892308 48.8972308,-0.203076923 52.0255385,4.69569231 C56.2661538,11.3667692 41.0704615,35.0215385 34.0476923,33.4513846 C22.4326154,30.8566154 24.5178462,13.6033846 29.8209231,4.07538462" id="Fill-157" fill="#DE4F3C"></path>
                <path d="M43.9513846,42.3775385 C44.0667692,42.3092308 44.1821538,42.2427692 44.3003077,42.18 C48.4633846,39.9673846 53.9113846,42.1227692 53.3981538,47.6095385 C52.9236923,52.6689231 46.7316923,68.9178462 39.576,67.3458462 C31.7898462,65.6353846 36.4061538,54.4790769 38.5033846,50.1673846 C39.9083077,47.2772308 41.0990769,44.0852308 43.9513846,42.3775385" id="Fill-158" fill="#B74C32"></path>
                <path d="M10.6772308,51.8852308 C8.98707692,50.5107692 7.344,48.4892308 6.10338462,46.7372308 C4.27384615,44.1535385 -4.66707692,20.556 3.47815385,21.7190769 C6.19015385,22.1076923 7.90892308,29.3289231 8.988,31.4630769 C7.94676923,29.4036923 7.58953846,21.1504615 10.7713846,21.1818462 C14.2726154,21.2169231 17.8006154,33.0766154 18.5843077,35.8264615 C19.9015385,40.452 19.2332308,58.8489231 10.6772308,51.8852308" id="Fill-159" fill="#DE4F3C"></path>
            </g>
        </g>
    </g>
</svg>