<?xml version="1.0" encoding="UTF-8"?>
<svg width="480px" height="360px" viewBox="0 0 480 360" version="1.1" xmlns="http://www.w3.org/2000/svg" xmlns:xlink="http://www.w3.org/1999/xlink">
    <!-- Generator: Sketch 51.1 (57501) - http://www.bohemiancoding.com/sketch -->
    <title>Desert5</title>
    <desc>Created with Sketch.</desc>
    <defs></defs>
    <g id="Desert5" stroke="none" stroke-width="1" fill="none" fill-rule="evenodd">
        <g id="Group-3" transform="translate(0.000000, -14.000000)" fill-rule="nonzero">
            <g id="25">
                <g id="New_Symbol" transform="translate(0.000000, 26.000000)" fill="#FFFFFF">
                    <path d="M1.17207756,0.664819945 C1.17207756,0.384930748 0.944709141,0.158227147 0.664819945,0.158227147 C0.384930748,0.158227147 0.157562327,0.384930748 0.157562327,0.664819945 C0.157562327,0.944709141 0.384930748,1.17207756 0.664819945,1.17207756 C0.944709141,1.17207756 1.17207756,0.944044321 1.17207756,0.664819945 Z" id="Shape"></path>
                </g>
                <rect id="Rectangle-path" fill="#CAB098" x="0.664819945" y="0" width="478.67036" height="361.733407"></rect>
                <g id="Group" transform="translate(336.398892, 53.922438)">
                    <path d="M142.599889,25.5836011 C142.570637,27.6910803 142.550693,29.2347922 142.550693,29.2347922 L78.9287535,29.719446 C86.1447091,27.9231025 93.3134626,25.4453186 100.70626,24.4593906 C114.855623,22.8884211 129.004321,20.554903 142.599889,25.5836011 Z" id="Shape" fill="#D9DFCB"></path>
                    <path d="M1.75645429,29.3458172 C6.73529086,26.5894737 21.3752909,18.860277 30.6375623,17.8916343 C40.9741828,16.8106371 43.5576731,18.6880886 44.3534626,20.0463158 C45.1479224,21.4045429 58.6650416,9.24432133 72.2825485,8.16398892 C85.713241,7.09761773 91.8628255,10.8658172 96.0365651,15.4603878 C100.210305,20.0536288 101.400332,-0.35501385 123.468366,0.59767313 C142.253518,1.40875346 142.750139,13.0284765 142.750139,13.838892 C142.750139,14.3860388 142.658393,21.2070914 142.599889,25.5849307 C129.004321,20.5562327 114.855623,22.8890859 100.705596,24.461385 C93.3127978,25.447313 86.1447091,27.925097 78.9280886,29.7214404 L46.6018837,29.9674238 C38.0802216,28.2894183 29.5572299,26.0822161 21.0362327,26.0822161 C14.3195568,26.0808864 7.93396122,27.293518 1.75645429,29.3458172 Z" id="Shape" fill="#F0F3D7"></path>
                    <path d="M1.75645429,29.3458172 C7.93396122,27.293518 14.3195568,26.0815512 21.0368975,26.0815512 C29.5578947,26.0815512 38.0808864,28.2880886 46.6025485,29.966759 L0.0252631579,30.3224377 C0.0252631579,30.3217729 0.660831025,29.952133 1.75645429,29.3458172 Z" id="Shape" fill="#D9DFCB"></path>
                </g>
                <g id="Group" transform="translate(0.664820, 121.734072)">
                    <path d="M0.12232687,23.3451524 C0.146260388,25.259169 0.162880886,26.6619391 0.162880886,26.6619391 L52.0248199,27.1027147 C46.1424931,25.4705817 40.2987258,23.220831 34.2727978,22.3246537 C22.7388366,20.8966205 11.2048753,18.7771745 0.12232687,23.3451524 Z" id="Shape" fill="#D9DFCB"></path>
                    <path d="M114.932742,26.7623269 C110.874017,24.2579501 98.9404986,17.2374515 91.3894737,16.3578947 C82.9635457,15.3759557 80.8573961,17.0812188 80.2085319,18.3151247 C79.5609972,19.5490305 68.5422715,8.50371191 57.4424377,7.52243767 C46.4941828,6.55313019 41.4807756,9.97695291 38.078892,14.1493629 C34.6763435,18.3217729 33.7063712,-0.216066482 15.7176731,0.648864266 C0.404875346,1.38548476 0,11.9401662 0,12.6761219 C0,13.1734072 0.0744598338,19.3688643 0.12232687,23.3451524 C11.2048753,18.7771745 22.7388366,20.8966205 34.2727978,22.3239889 C40.2987258,23.2201662 46.1424931,25.4699169 52.0248199,27.1020499 L78.3756233,27.3254294 C85.3223269,25.8009972 92.2696953,23.7965651 99.2157341,23.7965651 C104.691191,23.7972299 109.897396,24.8981717 114.932742,26.7623269 Z" id="Shape" fill="#F0F3D7"></path>
                    <path d="M114.932742,26.7623269 C109.897396,24.8981717 104.691191,23.7972299 99.2157341,23.7972299 C92.2696953,23.7972299 85.3223269,25.801662 78.3756233,27.3260942 L116.34349,27.6491967 C116.34349,27.6491967 115.825596,27.3127978 114.932742,26.7623269 Z" id="Shape" fill="#D9DFCB"></path>
                </g>
                <circle id="Oval" fill="#F8F3E4" cx="94.7368421" cy="68.1901385" r="1.03645429"></circle>
                <circle id="Oval" fill="#F8F3E4" cx="37.2299169" cy="95.8060942" r="1.03645429"></circle>
                <circle id="Oval" fill="#F8F3E4" cx="247.019834" cy="126.387812" r="1.03645429"></circle>
                <circle id="Oval" fill="#F8F3E4" cx="308.925873" cy="135.424044" r="1.03645429"></circle>
                <circle id="Oval" fill="#F8F3E4" cx="268.486205" cy="186.20831" r="1.03645429"></circle>
                <circle id="Oval" fill="#F8F3E4" cx="172.481551" cy="59.5341828" r="1.03645429"></circle>
                <circle id="Oval" fill="#F8F3E4" cx="383.00144" cy="46.8421053" r="1.03645429"></circle>
                <circle id="Oval" fill="#F8F3E4" cx="447.162548" cy="95.8060942" r="1.03645429"></circle>
                <circle id="Oval" fill="#F8F3E4" cx="385.132853" cy="127.424266" r="1.03645429"></circle>
                <circle id="Oval" fill="#F8F3E4" cx="464.709141" cy="165.62349" r="1.03645429"></circle>
                <circle id="Oval" fill="#F8F3E4" cx="435.163878" cy="202.227147" r="1.03645429"></circle>
                <circle id="Oval" fill="#F8F3E4" cx="328.127867" cy="122.353684" r="1"></circle>
                <circle id="Oval" fill="#F8F3E4" cx="276.565097" cy="103.451524" r="1"></circle>
                <circle id="Oval" fill="#F8F3E4" cx="158.17662" cy="155.307479" r="1"></circle>
                <circle id="Oval" fill="#F8F3E4" cx="229.080997" cy="166.65928" r="1"></circle>
                <circle id="Oval" fill="#F8F3E4" cx="37.2299169" cy="54.4868698" r="1"></circle>
                <circle id="Oval" fill="#F8F3E4" cx="14.2431025" cy="54.7687535" r="1"></circle>
                <circle id="Oval" fill="#F8F3E4" cx="152.576177" cy="45.9944598" r="1"></circle>
                <circle id="Oval" fill="#F8F3E4" cx="128.490416" cy="54.2043213" r="1"></circle>
                <circle id="Oval" fill="#F8F3E4" cx="135.854626" cy="116.122327" r="1"></circle>
                <circle id="Oval" fill="#F8F3E4" cx="157.894737" cy="127.424266" r="1"></circle>
                <circle id="Oval" fill="#F8F3E4" cx="327.845983" cy="46.2770083" r="1"></circle>
                <circle id="Oval" fill="#F8F3E4" cx="323.767313" cy="77.0136288" r="1"></circle>
                <circle id="Oval" fill="#F8F3E4" cx="255.008975" cy="76.4491967" r="1"></circle>
                <circle id="Oval" fill="#F8F3E4" cx="267.449751" cy="84.526759" r="1"></circle>
                <circle id="Oval" fill="#F8F3E4" cx="228.799114" cy="65.8360111" r="1"></circle>
                <circle id="Oval" fill="#F8F3E4" cx="268.204321" cy="45.7119114" r="1"></circle>
                <circle id="Oval" fill="#F8F3E4" cx="261.657175" cy="65.5541274" r="1"></circle>
                <circle id="Oval" fill="#F8F3E4" cx="415.609529" cy="46.5595568" r="1"></circle>
                <circle id="Oval" fill="#F8F3E4" cx="445.711247" cy="117.440665" r="1"></circle>
                <circle id="Oval" fill="#F8F3E4" cx="458.060942" cy="36.9309695" r="1"></circle>
                <circle id="Oval" fill="#F8F3E4" cx="394.238227" cy="135.706593" r="1"></circle>
                <circle id="Oval" fill="#F8F3E4" cx="40.8864266" cy="181.617729" r="1"></circle>
                <circle id="Oval" fill="#F8F3E4" cx="106.653075" cy="107.695069" r="1"></circle>
                <circle id="Oval" fill="#F8F3E4" cx="79.0404432" cy="94.7696399" r="1"></circle>
                <circle id="Oval" fill="#F8F3E4" cx="58.1311911" cy="115.085873" r="1"></circle>
                <circle id="Oval" fill="#F8F3E4" cx="75.50759" cy="40.6260388" r="1"></circle>
                <circle id="Oval" fill="#F8F3E4" cx="38.2663712" cy="195.235235" r="1"></circle>
                <circle id="Oval" fill="#F8F3E4" cx="75.2257064" cy="202.227147" r="1"></circle>
                <circle id="Oval" fill="#F8F3E4" cx="261.939058" cy="179.623269" r="1"></circle>
                <circle id="Oval" fill="#F8F3E4" cx="344.748366" cy="155.024931" r="1"></circle>
                <circle id="Oval" fill="#F8F3E4" cx="429.423158" cy="166.941828" r="1"></circle>
                <path d="M397.819612,103.734072 C397.819612,103.323213 398.148698,102.992798 398.559557,102.992798 C398.969751,102.992798 399.298837,103.323878 399.298837,103.734072 C399.298837,104.141607 398.969751,104.475346 398.559557,104.475346 C398.148698,104.475346 397.819612,104.141607 397.819612,103.734072 Z" id="Shape" fill="#F8F3E4"></path>
                <path d="M459.469695,138.025485 C459.469695,137.614626 459.798781,137.284211 460.20964,137.284211 C460.619834,137.284211 460.94892,137.615291 460.94892,138.025485 C460.94892,138.433019 460.619834,138.766759 460.20964,138.766759 C459.798781,138.766759 459.469695,138.433019 459.469695,138.025485 Z" id="Shape" fill="#F8F3E4"></path>
                <path d="M428.683213,40.9085873 C428.683213,40.4977285 429.012299,40.167313 429.423158,40.167313 C429.833352,40.167313 430.162438,40.4983934 430.162438,40.9085873 C430.162438,41.3161219 429.833352,41.6498615 429.423158,41.6498615 C429.012299,41.6498615 428.683213,41.3161219 428.683213,40.9085873 Z" id="Shape" fill="#F8F3E4"></path>
                <path d="M459.469695,41.6498615 C459.469695,41.2390028 459.798781,40.9085873 460.20964,40.9085873 C460.619834,40.9085873 460.94892,41.2396676 460.94892,41.6498615 C460.94892,42.0573961 460.619834,42.3911357 460.20964,42.3911357 C459.798781,42.3911357 459.469695,42.0573961 459.469695,41.6498615 Z" id="Shape" fill="#F8F3E4"></path>
                <path d="M289.121551,43.693518 C289.121551,43.2826593 289.450637,42.9522438 289.861496,42.9522438 C290.27169,42.9522438 290.600776,43.2833241 290.600776,43.693518 C290.600776,44.1010526 290.27169,44.4347922 289.861496,44.4347922 C289.450637,44.4347922 289.121551,44.1010526 289.121551,43.693518 Z" id="Shape" fill="#F8F3E4"></path>
                <path d="M204.563102,142.146039 C204.563102,141.73518 204.892188,141.404765 205.303047,141.404765 C205.713241,141.404765 206.042327,141.735845 206.042327,142.146039 C206.042327,142.553573 205.713241,142.887313 205.303047,142.887313 C204.892188,142.887313 204.563102,142.553573 204.563102,142.146039 Z" id="Shape" fill="#F8F3E4"></path>
                <path d="M138.382936,134.388255 C138.382936,133.977396 138.712022,133.646981 139.122881,133.646981 C139.533075,133.646981 139.862161,133.978061 139.862161,134.388255 C139.862161,134.795789 139.533075,135.129529 139.122881,135.129529 C138.712022,135.129529 138.382936,134.795125 138.382936,134.388255 Z" id="Shape" fill="#F8F3E4"></path>
                <path d="M132.53651,66.1185596 C132.53651,65.7077008 132.865596,65.3772853 133.276454,65.3772853 C133.686648,65.3772853 134.015734,65.7083657 134.015734,66.1185596 C134.015734,66.5260942 133.686648,66.8598338 133.276454,66.8598338 C132.865596,66.8598338 132.53651,66.5260942 132.53651,66.1185596 Z" id="Shape" fill="#F8F3E4"></path>
                <path d="M207.451745,86.8569529 C207.451745,86.4460942 207.780831,86.1156787 208.19169,86.1156787 C208.601884,86.1156787 208.93097,86.446759 208.93097,86.8569529 C208.93097,87.2644875 208.601884,87.5982271 208.19169,87.5982271 C207.780831,87.5982271 207.451745,87.2638227 207.451745,86.8569529 Z" id="Shape" fill="#F8F3E4"></path>
                <path d="M240.38626,46.8421053 C240.38626,46.4312465 240.716011,46.100831 241.126205,46.100831 C241.536399,46.100831 241.86615,46.4319114 241.86615,46.8421053 C241.86615,47.2496399 241.536399,47.5833795 241.126205,47.5833795 C240.716011,47.5833795 240.38626,47.2489751 240.38626,46.8421053 Z" id="Shape" fill="#F8F3E4"></path>
                <path d="M214.814626,109.767313 C214.814626,109.356454 215.144377,109.026039 215.554571,109.026039 C215.964765,109.026039 216.294515,109.357119 216.294515,109.767313 C216.294515,110.174848 215.964765,110.508587 215.554571,110.508587 C215.144377,110.508587 214.814626,110.174848 214.814626,109.767313 Z" id="Shape" fill="#F8F3E4"></path>
                <path d="M336.727313,51.868144 C336.727313,51.4572853 337.056399,51.1268698 337.466593,51.1268698 C337.876787,51.1268698 338.206537,51.4579501 338.206537,51.868144 C338.206537,52.2756787 337.876787,52.6094183 337.466593,52.6094183 C337.056399,52.6094183 336.727313,52.2756787 336.727313,51.868144 Z" id="Shape" fill="#F8F3E4"></path>
                <path d="M353.28,108.730859 C353.28,108.32 353.609086,107.989584 354.01928,107.989584 C354.429474,107.989584 354.759224,108.320665 354.759224,108.730859 C354.759224,109.138393 354.429474,109.472133 354.01928,109.472133 C353.609086,109.472133 353.28,109.138393 353.28,108.730859 Z" id="Shape" fill="#F8F3E4"></path>
                <path d="M389.532632,164.587036 C389.532632,164.176177 389.861717,163.845762 390.271911,163.845762 C390.682105,163.845762 391.011856,164.176842 391.011856,164.587036 C391.011856,164.994571 390.682105,165.32831 390.271911,165.32831 C389.861717,165.32831 389.532632,164.994571 389.532632,164.587036 Z" id="Shape" fill="#F8F3E4"></path>
                <path d="M421.200665,116.464044 C421.200665,116.053186 421.529751,115.72277 421.939945,115.72277 C422.350139,115.72277 422.679889,116.05385 422.679889,116.464044 C422.679889,116.871579 422.350139,117.205319 421.939945,117.205319 C421.529751,117.205319 421.200665,116.871579 421.200665,116.464044 Z" id="Shape" fill="#F8F3E4"></path>
                <path d="M403.094294,43.5219945 C403.094294,43.1111357 403.42338,42.7807202 403.833573,42.7807202 C404.243767,42.7807202 404.573518,43.1118006 404.573518,43.5219945 C404.573518,43.9295291 404.243767,44.2632687 403.833573,44.2632687 C403.42338,44.2632687 403.094294,43.9295291 403.094294,43.5219945 Z" id="Shape" fill="#F8F3E4"></path>
                <path d="M17.6363435,167.224377 C17.6363435,166.813518 17.9654294,166.483102 18.3756233,166.483102 C18.7858172,166.483102 19.1155679,166.814183 19.1155679,167.224377 C19.1155679,167.631911 18.7858172,167.965651 18.3756233,167.965651 C17.9654294,167.965651 17.6363435,167.631911 17.6363435,167.224377 Z" id="Shape" fill="#F8F3E4"></path>
                <path d="M119.662936,42.7807202 C119.662936,42.3698615 119.992022,42.039446 120.402216,42.039446 C120.81241,42.039446 121.142161,42.3705263 121.142161,42.7807202 C121.142161,43.1882548 120.81241,43.5219945 120.402216,43.5219945 C119.992022,43.5219945 119.662936,43.1882548 119.662936,42.7807202 Z" id="Shape" fill="#F8F3E4"></path>
                <path d="M16.8226039,35.8772299 C16.8226039,35.4663712 17.1516898,35.1359557 17.5618837,35.1359557 C17.9720776,35.1359557 18.3018283,35.467036 18.3018283,35.8772299 C18.3018283,36.2847645 17.9720776,36.6185042 17.5618837,36.6185042 C17.1516898,36.6185042 16.8226039,36.2847645 16.8226039,35.8772299 Z" id="Shape" fill="#F8F3E4"></path>
                <path d="M181.596233,39.0032133 C181.596233,38.5923546 181.925319,38.2619391 182.335512,38.2619391 C182.745706,38.2619391 183.075457,38.5930194 183.075457,39.0032133 C183.075457,39.4107479 182.745706,39.7444875 182.335512,39.7444875 C181.925319,39.7444875 181.596233,39.4100831 181.596233,39.0032133 Z" id="Shape" fill="#F8F3E4"></path>
                <path d="M206.711801,64.1639889 C206.711801,63.7531302 207.040886,63.4227147 207.45108,63.4227147 C207.861274,63.4227147 208.191025,63.753795 208.191025,64.1639889 C208.191025,64.5715235 207.861274,64.9052632 207.45108,64.9052632 C207.040886,64.9052632 206.711801,64.5715235 206.711801,64.1639889 Z" id="Shape" fill="#F8F3E4"></path>
                <path d="M268.782715,37.213518 C268.782715,36.8026593 269.111801,36.4722438 269.521994,36.4722438 C269.932188,36.4722438 270.261939,36.8033241 270.261939,37.213518 C270.261939,37.6210526 269.932188,37.9547922 269.521994,37.9547922 C269.111801,37.9547922 268.782715,37.6203878 268.782715,37.213518 Z" id="Shape" fill="#F8F3E4"></path>
                <path d="M132.53651,99.8096399 C132.53651,99.3987812 132.865596,99.0683657 133.276454,99.0683657 C133.686648,99.0683657 134.015734,99.399446 134.015734,99.8096399 C134.015734,100.217175 133.686648,100.550914 133.276454,100.550914 C132.865596,100.550914 132.53651,100.217175 132.53651,99.8096399 Z" id="Shape" fill="#F8F3E4"></path>
                <path d="M25.9984488,52.6094183 C25.9984488,52.1985596 26.3275346,51.868144 26.7383934,51.868144 C27.1485873,51.868144 27.4776731,52.1992244 27.4776731,52.6094183 C27.4776731,53.0169529 27.1485873,53.3506925 26.7383934,53.3506925 C26.3281994,53.3513573 25.9984488,53.0169529 25.9984488,52.6094183 Z" id="Shape" fill="#F8F3E4"></path>
                <path d="M59.9654294,86.8569529 C59.9654294,86.4460942 60.2945152,86.1156787 60.705374,86.1156787 C61.1155679,86.1156787 61.4446537,86.446759 61.4446537,86.8569529 C61.4446537,87.2644875 61.1155679,87.5982271 60.705374,87.5982271 C60.2945152,87.5982271 59.9654294,87.2638227 59.9654294,86.8569529 Z" id="Shape" fill="#F8F3E4"></path>
                <circle id="Oval" fill="#F8F3E4" cx="290.14338" cy="149.665817" r="1"></circle>
                <circle id="Oval" fill="#F8F3E4" cx="192.414848" cy="176.581717" r="1"></circle>
                <circle id="Oval" fill="#F8F3E4" cx="142.502825" cy="185.926427" r="1"></circle>
                <circle id="Oval" fill="#F8F3E4" cx="192.132964" cy="76.7317452" r="1"></circle>
                <circle id="Oval" fill="#F8F3E4" cx="198.781163" cy="103.168975" r="1"></circle>
                <circle id="Oval" fill="#F8F3E4" cx="198.781163" cy="135.424044" r="1"></circle>
                <circle id="Oval" fill="#F8F3E4" cx="234.399557" cy="96.8418837" r="1"></circle>
                <circle id="Oval" fill="#F8F3E4" cx="248.055623" cy="97.1244321" r="1"></circle>
                <circle id="Oval" fill="#F8F3E4" cx="142.784044" cy="82.1240997" r="1"></circle>
                <circle id="Oval" fill="#F8F3E4" cx="149.866371" cy="60.5706371" r="1"></circle>
                <circle id="Oval" fill="#F8F3E4" cx="116.16133" cy="84.2442105" r="1"></circle>
                <circle id="Oval" fill="#F8F3E4" cx="306.853629" cy="67.154349" r="1.03645429"></circle>
                <circle id="Oval" fill="#F8F3E4" cx="240.061163" cy="65.8360111" r="1.03645429"></circle>
                <circle id="Oval" fill="#F8F3E4" cx="451.412742" cy="116.121662" r="1.03645429"></circle>
                <circle id="Oval" fill="#F8F3E4" cx="344.748366" cy="184.889972" r="1.03645429"></circle>
                <circle id="Oval" fill="#F8F3E4" cx="174.55446" cy="194.198781" r="1.03645429"></circle>
                <circle id="Oval" fill="#F8F3E4" cx="175.590249" cy="108.730859" r="1.03645429"></circle>
                <circle id="Oval" fill="#F8F3E4" cx="81.293518" cy="49.1350693" r="1.03645429"></circle>
                <circle id="Oval" fill="#F8F3E4" cx="61.388144" cy="35.5953463" r="1"></circle>
                <circle id="Oval" fill="#F8F3E4" cx="36.7392798" cy="43.8045429" r="1"></circle>
                <circle id="Oval" fill="#F8F3E4" cx="44.1028255" cy="105.722548" r="1"></circle>
                <circle id="Oval" fill="#F8F3E4" cx="66.7067036" cy="117.024488" r="1"></circle>
                <circle id="Oval" fill="#F8F3E4" cx="14.9012742" cy="97.2959557" r="1"></circle>
                <circle id="Oval" fill="#F8F3E4" cx="51.0329086" cy="71.7243213" r="1"></circle>
                <circle id="Oval" fill="#F8F3E4" cx="58.1145706" cy="50.1708587" r="1"></circle>
                <circle id="Oval" fill="#F8F3E4" cx="24.4095291" cy="73.845097" r="1"></circle>
                <circle id="Oval" fill="#F8F3E4" cx="84.4022161" cy="98.3317452" r="1.03645429"></circle>
                <circle id="Oval" fill="#F8F3E4" cx="278.035014" cy="74.8170637" r="1.03645429"></circle>
                <circle id="Oval" fill="#F8F3E4" cx="258.12964" cy="61.2773407" r="1"></circle>
                <circle id="Oval" fill="#F8F3E4" cx="233.480111" cy="69.4872022" r="1"></circle>
                <circle id="Oval" fill="#F8F3E4" cx="161.242105" cy="68.8509695" r="1"></circle>
                <circle id="Oval" fill="#F8F3E4" cx="168.605651" cy="130.76831" r="1"></circle>
                <circle id="Oval" fill="#F8F3E4" cx="139.404765" cy="122.341717" r="1"></circle>
                <circle id="Oval" fill="#F8F3E4" cx="224.884654" cy="91.3777285" r="1"></circle>
                <circle id="Oval" fill="#F8F3E4" cx="231.532853" cy="117.815623" r="1"></circle>
                <circle id="Oval" fill="#F8F3E4" cx="175.535734" cy="96.7707479" r="1"></circle>
                <circle id="Oval" fill="#F8F3E4" cx="182.618061" cy="75.2172853" r="1"></circle>
                <circle id="Oval" fill="#F8F3E4" cx="148.912355" cy="98.8908587" r="1"></circle>
                <circle id="Oval" fill="#F8F3E4" cx="266.231801" cy="84.1331856" r="1"></circle>
                <circle id="Oval" fill="#F8F3E4" cx="338.706482" cy="37.6090859" r="1"></circle>
                <circle id="Oval" fill="#F8F3E4" cx="346.070028" cy="99.5270914" r="1"></circle>
                <circle id="Oval" fill="#F8F3E4" cx="316.868476" cy="91.1004986" r="1"></circle>
                <circle id="Oval" fill="#F8F3E4" cx="402.348366" cy="60.1365097" r="1"></circle>
                <circle id="Oval" fill="#F8F3E4" cx="408.996565" cy="86.5744044" r="1"></circle>
                <circle id="Oval" fill="#F8F3E4" cx="353.000111" cy="65.5288643" r="1"></circle>
                <circle id="Oval" fill="#F8F3E4" cx="360.081773" cy="43.9760665" r="1"></circle>
                <circle id="Oval" fill="#F8F3E4" cx="326.376731" cy="67.6496399" r="1"></circle>
                <circle id="Oval" fill="#F8F3E4" cx="443.696177" cy="52.8919668" r="1"></circle>
                <circle id="Oval" fill="#F8F3E4" cx="373.751801" cy="88.7782825" r="1"></circle>
                <circle id="Oval" fill="#F8F3E4" cx="381.115346" cy="150.695623" r="1"></circle>
                <circle id="Oval" fill="#F8F3E4" cx="351.913795" cy="142.26903" r="1"></circle>
                <circle id="Oval" fill="#F8F3E4" cx="437.393684" cy="111.305042" r="1"></circle>
                <circle id="Oval" fill="#F8F3E4" cx="444.041884" cy="137.742936" r="1"></circle>
                <circle id="Oval" fill="#F8F3E4" cx="388.045429" cy="116.698061" r="1"></circle>
                <circle id="Oval" fill="#F8F3E4" cx="395.127091" cy="95.1445983" r="1"></circle>
                <circle id="Oval" fill="#F8F3E4" cx="361.42205" cy="118.818172" r="1"></circle>
                <circle id="Oval" fill="#F8F3E4" cx="478.740831" cy="104.061163" r="1"></circle>
                <circle id="Oval" fill="#F8F3E4" cx="367.702604" cy="33.8408864" r="1"></circle>
                <circle id="Oval" fill="#F8F3E4" cx="375.06615" cy="95.758892" r="1"></circle>
                <circle id="Oval" fill="#F8F3E4" cx="345.864598" cy="87.3322992" r="1"></circle>
                <circle id="Oval" fill="#F8F3E4" cx="431.344488" cy="56.3683102" r="1"></circle>
                <circle id="Oval" fill="#F8F3E4" cx="437.992687" cy="82.806205" r="1"></circle>
                <circle id="Oval" fill="#F8F3E4" cx="381.996233" cy="61.7613296" r="1"></circle>
                <circle id="Oval" fill="#F8F3E4" cx="389.077895" cy="40.207867" r="1"></circle>
                <circle id="Oval" fill="#F8F3E4" cx="355.372853" cy="63.8814404" r="1"></circle>
                <circle id="Oval" fill="#F8F3E4" cx="472.692299" cy="49.1237673" r="1"></circle>
                <circle id="Oval" fill="#F8F3E4" cx="240.844321" cy="131.404543" r="1"></circle>
                <circle id="Oval" fill="#F8F3E4" cx="263.448199" cy="142.706482" r="1"></circle>
                <circle id="Oval" fill="#F8F3E4" cx="211.64277" cy="122.97795" r="1"></circle>
                <circle id="Oval" fill="#F8F3E4" cx="247.77374" cy="97.4069806" r="1"></circle>
                <circle id="Oval" fill="#F8F3E4" cx="254.856066" cy="75.853518" r="1"></circle>
                <circle id="Oval" fill="#F8F3E4" cx="221.15036" cy="99.5270914" r="1"></circle>
                <path d="M101.809197,50.6003324 C101.809197,50.1894737 102.138947,49.8590582 102.549141,49.8590582 C102.959335,49.8590582 103.289086,50.1901385 103.289086,50.6003324 C103.289086,51.007867 102.959335,51.3416066 102.549141,51.3416066 C102.138947,51.3416066 101.809197,51.007867 101.809197,50.6003324 Z" id="Shape" fill="#F8F3E4"></path>
                <circle id="Oval" fill="#F8F3E4" cx="85.7757341" cy="44.0019945" r="1"></circle>
                <circle id="Oval" fill="#F8F3E4" cx="121.394127" cy="37.674903" r="1"></circle>
                <circle id="Oval" fill="#F8F3E4" cx="111.879224" cy="32.2107479" r="1"></circle>
                <circle id="Oval" fill="#F8F3E4" cx="118.527424" cy="58.6486427" r="1"></circle>
                <circle id="Oval" fill="#F8F3E4" cx="108.144931" cy="40.3601108" r="1"></circle>
                <path d="M48.2532964,71.2895291 C48.2532964,70.8786704 48.5830471,70.5482548 48.993241,70.5482548 C49.4034349,70.5482548 49.7331856,70.8793352 49.7331856,71.2895291 C49.7331856,71.6970637 49.4034349,72.0308033 48.993241,72.0308033 C48.5830471,72.0308033 48.2532964,71.6963989 48.2532964,71.2895291 Z" id="Shape" fill="#F8F3E4"></path>
                <circle id="Oval" fill="#F8F3E4" cx="32.2198338" cy="64.6911911" r="1"></circle>
                <circle id="Oval" fill="#F8F3E4" cx="67.8382271" cy="58.3640997" r="1"></circle>
                <circle id="Oval" fill="#F8F3E4" cx="58.3233241" cy="52.8999446" r="1"></circle>
                <circle id="Oval" fill="#F8F3E4" cx="64.9715235" cy="79.3378393" r="1"></circle>
                <circle id="Oval" fill="#F8F3E4" cx="54.5890305" cy="61.0493075" r="1"></circle>
                <path d="M151.082327,48.9755125 C151.082327,48.5646537 151.412078,48.2342382 151.822271,48.2342382 C152.232465,48.2342382 152.562216,48.5653186 152.562216,48.9755125 C152.562216,49.3830471 152.232465,49.7167867 151.822271,49.7167867 C151.412078,49.7167867 151.082327,49.3823823 151.082327,48.9755125 Z" id="Shape" fill="#F8F3E4"></path>
                <circle id="Oval" fill="#F8F3E4" cx="135.048864" cy="42.3771745" r="1"></circle>
                <circle id="Oval" fill="#F8F3E4" cx="170.667258" cy="36.0500831" r="1"></circle>
                <circle id="Oval" fill="#F8F3E4" cx="161.15169" cy="30.585928" r="1"></circle>
                <circle id="Oval" fill="#F8F3E4" cx="167.799889" cy="57.0238227" r="1"></circle>
                <circle id="Oval" fill="#F8F3E4" cx="157.418061" cy="38.7352909" r="1"></circle>
                <circle id="Oval" fill="#F8F3E4" cx="412.15446" cy="44.6668144" r="1"></circle>
                <circle id="Oval" fill="#F8F3E4" cx="430.24554" cy="34.7217729" r="1"></circle>
                <circle id="Oval" fill="#F8F3E4" cx="420.730637" cy="29.2576177" r="1"></circle>
                <circle id="Oval" fill="#F8F3E4" cx="416.996343" cy="37.4069806" r="1"></circle>
                <circle id="Oval" fill="#F8F3E4" cx="383.474127" cy="45.6713573" r="1"></circle>
                <circle id="Oval" fill="#F8F3E4" cx="401.565208" cy="35.7263158" r="1"></circle>
                <circle id="Oval" fill="#F8F3E4" cx="392.04964" cy="30.2628255" r="1"></circle>
                <circle id="Oval" fill="#F8F3E4" cx="388.316011" cy="38.4115235" r="1"></circle>
                <circle id="Oval" fill="#F8F3E4" cx="402.827701" cy="119.292188" r="1"></circle>
                <circle id="Oval" fill="#F8F3E4" cx="420.918781" cy="109.347147" r="1"></circle>
                <circle id="Oval" fill="#F8F3E4" cx="411.403213" cy="103.882992" r="1"></circle>
                <circle id="Oval" fill="#F8F3E4" cx="407.669584" cy="112.032355" r="1"></circle>
                <circle id="Oval" fill="#F8F3E4" cx="426.118338" cy="104.192798" r="1"></circle>
                <circle id="Oval" fill="#F8F3E4" cx="444.209418" cy="94.2477562" r="1"></circle>
                <circle id="Oval" fill="#F8F3E4" cx="434.694515" cy="88.7842659" r="1"></circle>
                <circle id="Oval" fill="#F8F3E4" cx="430.960222" cy="96.932964" r="1"></circle>
                <circle id="Oval" fill="#F8F3E4" cx="455.664266" cy="105.393463" r="1"></circle>
                <circle id="Oval" fill="#F8F3E4" cx="473.754681" cy="95.4490859" r="1"></circle>
                <circle id="Oval" fill="#F8F3E4" cx="464.239778" cy="89.9849307" r="1"></circle>
                <circle id="Oval" fill="#F8F3E4" cx="460.50615" cy="98.1342936" r="1"></circle>
                <circle id="Oval" fill="#F8F3E4" cx="432.738615" cy="149.209086" r="1"></circle>
                <circle id="Oval" fill="#F8F3E4" cx="409.661385" cy="150.54205" r="1"></circle>
                <circle id="Oval" fill="#F8F3E4" cx="427.752465" cy="140.597008" r="1"></circle>
                <circle id="Oval" fill="#F8F3E4" cx="414.503269" cy="143.282216" r="1"></circle>
                <circle id="Oval" fill="#F8F3E4" cx="461.915568" cy="42.3339612" r="1"></circle>
                <circle id="Oval" fill="#F8F3E4" cx="417.278227" cy="97.8517452" r="1"></circle>
                <circle id="Oval" fill="#F8F3E4" cx="438.838338" cy="43.6669252" r="1"></circle>
                <circle id="Oval" fill="#F8F3E4" cx="456.929418" cy="33.7218837" r="1"></circle>
                <circle id="Oval" fill="#F8F3E4" cx="443.680222" cy="36.4070914" r="1"></circle>
                <circle id="Oval" fill="#F8F3E4" cx="467.183601" cy="50.6634903" r="1"></circle>
                <circle id="Oval" fill="#F8F3E4" cx="444.106371" cy="51.9964543" r="1"></circle>
                <circle id="Oval" fill="#F8F3E4" cx="462.197452" cy="42.0514127" r="1"></circle>
                <circle id="Oval" fill="#F8F3E4" cx="448.948255" cy="44.7366205" r="1"></circle>
                <path d="M213.038892,51.7298615 C213.038892,51.3190028 213.368643,50.9885873 213.778837,50.9885873 C214.18903,50.9885873 214.518781,51.3196676 214.518781,51.7298615 C214.518781,52.1373961 214.18903,52.4711357 213.778837,52.4711357 C213.368643,52.4711357 213.038892,52.1373961 213.038892,51.7298615 Z" id="Shape" fill="#F8F3E4"></path>
                <circle id="Oval" fill="#F8F3E4" cx="197.005429" cy="45.1315235" r="1"></circle>
                <circle id="Oval" fill="#F8F3E4" cx="232.623823" cy="38.8044321" r="1"></circle>
                <circle id="Oval" fill="#F8F3E4" cx="223.10892" cy="33.3409418" r="1"></circle>
                <circle id="Oval" fill="#F8F3E4" cx="229.757119" cy="59.7781717" r="1"></circle>
                <circle id="Oval" fill="#F8F3E4" cx="219.375291" cy="41.4896399" r="1"></circle>
                <path d="M246.561108,49.605097 C246.561108,49.1942382 246.890859,48.8638227 247.301053,48.8638227 C247.711247,48.8638227 248.040997,49.194903 248.040997,49.605097 C248.040997,50.0126316 247.711247,50.3463712 247.301053,50.3463712 C246.890859,50.3463712 246.561108,50.0126316 246.561108,49.605097 Z" id="Shape" fill="#F8F3E4"></path>
                <circle id="Oval" fill="#F8F3E4" cx="230.527645" cy="43.0074238" r="1"></circle>
                <circle id="Oval" fill="#F8F3E4" cx="266.146039" cy="36.6796676" r="1"></circle>
                <circle id="Oval" fill="#F8F3E4" cx="256.631136" cy="31.2161773" r="1"></circle>
                <circle id="Oval" fill="#F8F3E4" cx="263.279335" cy="57.6534072" r="1"></circle>
                <circle id="Oval" fill="#F8F3E4" cx="252.897507" cy="39.3655402" r="1"></circle>
                <path d="M295.049086,50.8828809 C295.049086,50.4720222 295.378837,50.1416066 295.78903,50.1416066 C296.199224,50.1416066 296.528975,50.472687 296.528975,50.8828809 C296.528975,51.2904155 296.199224,51.6241551 295.78903,51.6241551 C295.378837,51.6241551 295.049086,51.2904155 295.049086,50.8828809 Z" id="Shape" fill="#F8F3E4"></path>
                <circle id="Oval" fill="#F8F3E4" cx="279.015623" cy="44.2845429" r="1"></circle>
                <circle id="Oval" fill="#F8F3E4" cx="314.634017" cy="37.9574515" r="1"></circle>
                <circle id="Oval" fill="#F8F3E4" cx="305.118449" cy="32.4932964" r="1"></circle>
                <circle id="Oval" fill="#F8F3E4" cx="311.766648" cy="58.9311911" r="1"></circle>
                <circle id="Oval" fill="#F8F3E4" cx="301.385485" cy="40.6426593" r="1"></circle>
                <path d="M292.883102,92.2200554 C292.883102,91.8091967 293.212853,91.4787812 293.623047,91.4787812 C294.033241,91.4787812 294.362992,91.8098615 294.362992,92.2200554 C294.362992,92.62759 294.033241,92.9613296 293.623047,92.9613296 C293.212853,92.9613296 292.883102,92.62759 292.883102,92.2200554 Z" id="Shape" fill="#F8F3E4"></path>
                <circle id="Oval" fill="#F8F3E4" cx="276.84964" cy="85.6223823" r="1"></circle>
                <circle id="Oval" fill="#F8F3E4" cx="312.468033" cy="79.2952909" r="1"></circle>
                <circle id="Oval" fill="#F8F3E4" cx="302.952465" cy="73.8311357" r="1"></circle>
                <circle id="Oval" fill="#F8F3E4" cx="309.600665" cy="100.268366" r="1"></circle>
                <circle id="Oval" fill="#F8F3E4" cx="299.219501" cy="81.9804986" r="1"></circle>
                <path d="M294.013296,64.6665928 C294.013296,64.2557341 294.343047,63.9253186 294.753241,63.9253186 C295.163435,63.9253186 295.493186,64.2563989 295.493186,64.6665928 C295.493186,65.0741274 295.163435,65.407867 294.753241,65.407867 C294.343047,65.407867 294.013296,65.0734626 294.013296,64.6665928 Z" id="Shape" fill="#F8F3E4"></path>
                <circle id="Oval" fill="#F8F3E4" cx="277.979834" cy="58.0682548" r="1"></circle>
                <circle id="Oval" fill="#F8F3E4" cx="313.598227" cy="51.7411634" r="1"></circle>
                <circle id="Oval" fill="#F8F3E4" cx="304.083324" cy="46.2770083" r="1"></circle>
                <circle id="Oval" fill="#F8F3E4" cx="310.731524" cy="72.714903" r="1"></circle>
                <circle id="Oval" fill="#F8F3E4" cx="300.349695" cy="54.4263712" r="1"></circle>
                <path d="M349.856177,49.605097 C349.856177,49.1942382 350.185928,48.8638227 350.596122,48.8638227 C351.006316,48.8638227 351.336066,49.194903 351.336066,49.605097 C351.336066,50.0126316 351.006316,50.3463712 350.596122,50.3463712 C350.185928,50.3463712 349.856177,50.0126316 349.856177,49.605097 Z" id="Shape" fill="#F8F3E4"></path>
                <circle id="Oval" fill="#F8F3E4" cx="333.822715" cy="43.0074238" r="1"></circle>
                <circle id="Oval" fill="#F8F3E4" cx="369.441108" cy="36.6796676" r="1"></circle>
                <circle id="Oval" fill="#F8F3E4" cx="359.926205" cy="31.2161773" r="1"></circle>
                <circle id="Oval" fill="#F8F3E4" cx="366.574404" cy="57.6534072" r="1"></circle>
                <circle id="Oval" fill="#F8F3E4" cx="356.192576" cy="39.3655402" r="1"></circle>
                <path d="M339.522881,82.1845983 C339.522881,81.7737396 339.852632,81.4433241 340.262825,81.4433241 C340.673019,81.4433241 341.00277,81.7744044 341.00277,82.1845983 C341.00277,82.592133 340.673019,82.9258726 340.262825,82.9258726 C339.852632,82.9258726 339.522881,82.592133 339.522881,82.1845983 Z" id="Shape" fill="#F8F3E4"></path>
                <circle id="Oval" fill="#F8F3E4" cx="323.489418" cy="75.5862604" r="1"></circle>
                <circle id="Oval" fill="#F8F3E4" cx="359.107812" cy="69.259169" r="1"></circle>
                <circle id="Oval" fill="#F8F3E4" cx="349.592909" cy="63.7950139" r="1"></circle>
                <circle id="Oval" fill="#F8F3E4" cx="356.241108" cy="90.2329086" r="1"></circle>
                <circle id="Oval" fill="#F8F3E4" cx="345.85928" cy="71.9443767" r="1"></circle>
                <circle id="Oval" fill="#F8F3E4" cx="281.143712" cy="124.01374" r="1.03645429"></circle>
                <circle id="Oval" fill="#F8F3E4" cx="213.778837" cy="37.966759" r="1.03645429"></circle>
                <rect id="Rectangle-path" fill="#BC7B5F" x="0.72398892" y="290.674792" width="478.67036" height="115.325208"></rect>
                <polygon id="Shape" fill="#82462F" opacity="0.5" points="462.000665 341.620609 479.33518 340.023712 479.33518 326.478006 462.14626 321.779723 479.33518 317.601994 479.33518 302.091745 421.942604 298.672576 452.913241 290.956676 349.473906 290.197452 402 298.526316 346.104598 305.596011 421.888089 306.151801 319.08831 318.024155 436.745485 319.789917 321.98759 330.67169 436.61385 337.826482 272.903934 360.773407 479.33518 362.287202 479.33518 346.663269"></polygon>
                <path d="M0.664819945,238.077562 L18.7824931,244.423855 L27.26759,251.217494 C30.5448994,246.74271 32.6123502,244.478163 33.4699426,244.423855 C34.3275349,244.369547 40.7449594,246.096777 52.7222161,249.605546 L97.2691413,261.173377 L136.865817,251.825733 L168.6841,244.57272 L210.739512,262.135734 L311.514681,273.202839 L334.141828,268.909073 L380.809529,273.202839 L416.163324,269.476713 L479.454848,273.100588 L479.332521,286.193906 L0.664819945,286.193906 L0.664819945,238.077562 Z" id="Shape-Copy" fill="#BA8250" transform="translate(240.059834, 262.135734) scale(-1, 1) translate(-240.059834, -262.135734) "></path>
                <polygon id="Shape-Copy-3" fill="#BA8250" points="0.664819945 248.050526 18.7824931 253.662271 27.26759 259.669584 52.7222161 258.244211 97.2691413 268.47313 136.865817 260.207424 149.329197 253.793906 168.6841 264.971524 311.514681 279.110249 334.141828 275.313463 380.809529 279.110249 416.163324 275.815402 479.454848 279.019834 479.332521 290.597673 0.664819945 290.597673"></polygon>
                <polygon id="Shape-Copy-2" fill="#BA8250" points="0.664819945 248.050526 18.7824931 253.662271 27.26759 259.669584 52.7222161 258.244211 97.2691413 268.47313 136.865817 260.207424 149.329197 253.793906 168.6841 264.971524 311.514681 279.110249 334.141828 275.313463 380.809529 279.110249 416.163324 275.815402 479.454848 279.019834 479.332521 290.597673 0.664819945 290.597673"></polygon>
                <polygon id="Shape" fill="#E1A46E" points="0.664819945 248.050526 18.7824931 253.662271 27.26759 259.669584 52.7222161 258.244211 97.2691413 268.47313 136.865817 260.207424 149.329197 253.793906 168.6841 264.971524 311.514681 279.110249 334.141828 275.313463 380.809529 279.110249 416.163324 275.815402 479.454848 279.019834 479.332521 290.597673 0.664819945 290.597673"></polygon>
                <polygon id="Shape" fill="#AF7A61" opacity="0.6" points="52.6896399 259.351801 96.398892 269.577396 85.9831579 269.577396"></polygon>
                <polygon id="Shape" fill="#AF7A61" opacity="0.6" points="18.3935734 254.920111 26.3734072 260.683435 22.9914681 260.683435 17.5625485 254.920111"></polygon>
                <polygon id="Shape" fill="#AF7A61" opacity="0.6" points="149.363102 254.920111 167.036011 265.77795 163.434681 265.77795"></polygon>
                <polygon id="Shape" fill="#AF7A61" opacity="0.6" points="27.0914127 262.6759 64.8199446 275.639889 59.66759 275.639889 23.8224931 262.6759"></polygon>
                <polygon id="Shape" fill="#AF7A61" opacity="0.6" points="334.183047 277.052632 380.205208 282.328643 368.808864 282.894404"></polygon>
                <polygon id="Shape" fill="#AF7A61" opacity="0.6" points="416.509695 277.052632 466.386482 281.399889 453.256288 282.033463"></polygon>
                <polygon id="Shape" fill="#AF7A61" opacity="0.6" points="167.423601 266.33241 237.451745 274.144044 163.762438 266.433463"></polygon>
                <polygon id="Shape" fill="#AF7A61" opacity="0.6" points="154.28277 269.3241 224.310249 277.135734 150.621607 269.425152"></polygon>
                <polygon id="Shape" fill="#AF7A61" opacity="0.6" points="67.3681994 275.639889 97.6175069 272.205429 97.6175069 273.922659"></polygon>
                <polygon id="Shape" fill="#AF7A61" opacity="0.6" points="97.6175069 272.205429 97.6175069 273.922659 137.174294 277.635014"></polygon>
                <g id="Group" opacity="0.8" transform="translate(58.504155, 212.814404)">
                    <path d="M87.0428809,0.535180055 C77.6682548,0.228033241 58.094626,0.908808864 55.1089197,3.03756233 C52.1238781,5.16631579 45.7369529,5.92288089 38.9518006,4.89506925 C32.1659834,3.86725762 21.3892521,2.82947368 17.398338,5.42094183 C16.1810526,6.21141274 13.9512465,7.02581717 11.3970083,7.76243767 C15.6465374,7.93861496 19.8960665,8.24044321 24.1455956,8.24044321 C40.3106925,9.44842105 56.4757895,7.6367867 73.2398892,6.42814404 C86.2730194,5.15634349 101.373075,9.54282548 113.978726,6.41152355 C112.312022,6.01927978 110.724432,5.66759003 109.430693,5.42094183 C104.011745,4.38581717 96.4168421,0.84166205 87.0428809,0.535180055 Z" id="Shape" fill="#F0F3D7" opacity="0.5"></path>
                    <path d="M73.2398892,6.42814404 C56.4757895,7.63612188 40.3106925,9.44842105 24.1455956,8.24044321 C19.8960665,8.24044321 15.6465374,7.93861496 11.3970083,7.76243767 C7.70127424,8.82814404 3.32742382,9.72963989 0.337728532,10.1531302 C6.04786704,10.1617729 16.7980055,10.4908587 16.7980055,10.4908587 L125.414294,9.32409972 C125.414294,9.32409972 119.292632,7.66138504 113.978726,6.41152355 C101.373075,9.54282548 86.2730194,5.15634349 73.2398892,6.42814404 Z" id="Shape" fill="#D9DFCB" opacity="0.5"></path>
                </g>
                <g id="Group" opacity="0.5" transform="translate(247.313019, 224.116343)">
                    <path d="M65.6596122,0.650858726 C58.6105263,0.342382271 43.8920776,1.02581717 41.6469806,3.16254848 C39.4018837,5.29927978 34.5998892,6.05783934 29.4980609,5.0267036 C24.394903,3.99490305 16.2920776,2.95313019 13.2904155,5.55457064 C12.3749584,6.34836565 10.6989474,7.16542936 8.77828255,7.90470914 C11.9734072,8.08155125 15.1685319,8.38470914 18.3636565,8.38470914 C30.5198892,9.59734072 42.6747922,7.77905817 55.281108,6.56642659 C65.0812188,5.2899723 76.4356787,9.69240997 85.9146814,6.54980609 C84.6614958,6.15623269 83.4674792,5.8032133 82.4948476,5.55523546 C78.4195014,4.51612188 72.7086981,0.95867036 65.6596122,0.650858726 Z" id="Shape" fill="#F0F3D7"></path>
                    <path d="M55.2804432,6.56642659 C42.6741274,7.77905817 30.5192244,9.59800554 18.3629917,8.38470914 C15.167867,8.38470914 11.9727424,8.08155125 8.77761773,7.90470914 C5.99800554,8.97440443 2.70914127,9.8798892 0.460720222,10.3040443 C4.75479224,10.312687 12.838338,10.6431025 12.838338,10.6431025 L94.5134626,9.47168975 C94.5134626,9.47168975 89.9102493,7.80299169 85.9140166,6.54914127 C76.4356787,9.69240997 65.0812188,5.2899723 55.2804432,6.56642659 Z" id="Shape" fill="#D9DFCB"></path>
                </g>
                <g id="Group" opacity="0.5" transform="translate(400.221607, 257.357341)" fill="#D9DFCB">
                    <path d="M54.819723,0.239320707 C42.2134072,1.45195229 30.0585042,3.27089965 17.9022715,2.05760326 C14.7071468,2.05760326 11.5120222,1.75444536 8.31689751,1.57760326 C5.53728532,2.64729855 2.24842105,3.55278331 0,3.97693844 C4.29407202,3.98558109 12.3776177,4.31599661 12.3776177,4.31599661 L79.1986704,3.35799107 L79.1986704,1.32763096 C71.2254848,1.75045644 62.540277,-0.76655187 54.819723,0.239320707 Z" id="Shape"></path>
                </g>
                <polygon id="Shape" fill="#AF7A61" opacity="0.6" points="18.3762881 254.753906 17.3963435 254.753906 0.664819945 249.767756 0.664819945 249.213961"></polygon>
                <polygon id="Shape" fill="#AF7A61" opacity="0.6" points="137.839114 260.34903 153.652521 268.719778 150.138283 268.65928"></polygon>
                <path d="M311.468144,280.792244 C311.717452,280.792244 343.878116,286.193906 343.878116,286.193906 L339.224377,286.193906 L311.468144,280.792244 Z" id="Shape" fill="#AF7A61" opacity="0.6"></path>
                <polygon id="Shape" fill="#82462F" opacity="0.5" points="157.335623 297.246537 93.7003878 311.872576 158.458504 317.191136 36.1934626 334.476454 105.807424 345.113573 26.7383934 361.733407 0.664819945 361.733407 0.664819945 329.490305 82.4928532 319.02205 58.4130748 313.867036"></polygon>
                <g id="Group" transform="translate(97.728532, 287.274238)">
                    <path d="M11.8657064,27.3254294 L14.5263158,29.6729086 C14.6785596,29.7234349 16.2727978,29.7493629 18.598338,29.76 C18.9334072,29.7613296 19.2884211,29.7626593 19.6514127,29.7633241 L15.7628809,27.3108033 C14.466482,27.2316898 13.166759,27.2203878 11.8657064,27.3254294 Z" id="Shape" fill="#514525"></path>
                    <path d="M11.8657064,27.3254294 C13.166759,27.2210526 14.466482,27.2316898 15.7635457,27.3108033 L2.03567867,18.6521884 L11.8657064,27.3254294 Z" id="Shape" fill="#5F522E"></path>
                    <path d="M28.9715235,28.8152909 L28.9083657,29.7447091 C29.4568421,29.7420499 30.0013296,29.7393906 30.5385042,29.7367313 C30.72,29.4329086 30.9088089,29.1164543 31.1009418,28.7953463 C30.3942382,28.8319114 29.6842105,28.8385596 28.9715235,28.8152909 Z" id="Shape" fill="#514525"></path>
                    <path d="M33.2802216,20.5043767 L30.8908587,0.414182825 L28.9715235,28.8152909 C29.6842105,28.8385596 30.3942382,28.8319114 31.1009418,28.7960111 C35.0619391,22.1617729 41.1776177,11.8942936 43.7112465,7.56299169 L33.2802216,20.5043767 Z" id="Shape" fill="#5F522E"></path>
                    <path d="M26.6120776,19.045097 L16.7468144,1.28775623 L26.1639889,28.6072022 C26.9930194,28.6969529 27.8180609,28.7640997 28.6397784,28.8 L30.5511357,0.525872576 L26.6120776,19.045097 Z" id="Shape" fill="#725730"></path>
                    <path d="M26.558892,29.7546814 C27.2310249,29.752687 27.9051524,29.7493629 28.5752909,29.7467036 L28.6391136,28.8 C27.8180609,28.7640997 26.9923546,28.6969529 26.1633241,28.6072022 L26.558892,29.7546814 Z" id="Shape" fill="#604828"></path>
                    <path d="M20.2776731,29.7646537 C21.4298061,29.7666482 22.6903047,29.7653186 24.0039889,29.7626593 L22.674349,28.1471468 C20.6180609,27.8453186 18.5458172,27.5235457 16.4642659,27.3586704 L20.2776731,29.7646537 Z" id="Shape" fill="#604828"></path>
                    <path d="M15.9849307,23.8377839 L0.35700831,17.1696399 L0.471357341,17.2706925 L16.4642659,27.3586704 C18.5458172,27.5228809 20.6180609,27.8446537 22.674349,28.1471468 L6.29584488,8.25972299 L15.9849307,23.8377839 Z" id="Shape" fill="#725730"></path>
                    <path d="M31.5004986,28.774072 C31.2578393,29.180277 31.059723,29.5120222 30.926759,29.7347368 C32.3893629,29.726759 33.7821607,29.7181163 35.0240443,29.7101385 L37.8368975,27.3633241 C37.3821607,27.4776731 36.9254294,27.592687 36.4620499,27.7090305 C34.8305817,28.3366205 33.1751801,28.6557341 31.5004986,28.774072 Z" id="Shape" fill="#604828"></path>
                    <path d="M36.8230471,24.4633795 L44.0815512,7.59224377 C43.1082548,9.26759003 41.3006094,12.3151247 37.9685319,17.9182271 C35.361108,22.3027147 32.7603324,26.6632687 31.5004986,28.774072 C33.1751801,28.6550693 34.8305817,28.3366205 36.4620499,27.7083657 C36.9254294,27.5920222 37.3821607,27.4770083 37.8368975,27.3626593 L51.2881994,16.1398338 L36.8230471,24.4633795 Z" id="Shape" fill="#725730"></path>
                    <path d="M35.5479224,29.7068144 C38.2803324,29.6888643 40.1571191,29.6729086 40.1571191,29.6729086 L43.1142382,26.1965651 C41.6217175,26.4445429 40.1218837,26.794903 38.5781717,27.1785042 L35.5479224,29.7068144 Z" id="Shape" fill="#514525"></path>
                    <path d="M38.5775069,27.1785042 C40.1212188,26.7955679 41.6217175,26.4445429 43.1135734,26.1965651 L51.3300831,16.5393906 L38.5775069,27.1785042 Z" id="Shape" fill="#5F522E"></path>
                    <path d="M24.4334626,29.7613296 C25.0185042,29.76 25.6108587,29.7586704 26.207867,29.7560111 L25.798338,28.5679778 C24.9240997,28.46759 24.0452078,28.3472576 23.1636565,28.2196122 L24.4334626,29.7613296 Z" id="Shape" fill="#514525"></path>
                    <path d="M20.7776177,20.7124654 L5.85639889,7.20265928 L23.1636565,28.2189474 C24.0452078,28.3465928 24.9234349,28.4669252 25.798338,28.567313 L16.4569529,1.46592798 L20.7776177,20.7124654 Z" id="Shape" fill="#5F522E"></path>
                </g>
                <g id="Group" transform="translate(366.315789, 289.933518)">
                    <path d="M10.5467036,23.8371191 L12.8429917,25.8641551 C12.9739612,25.9073684 14.3508033,25.9299723 16.3585596,25.938615 C16.6477562,25.9399446 16.9542382,25.9412742 17.2673684,25.9412742 L13.9106925,23.8244875 C12.7918006,23.7566759 11.6702493,23.7473684 10.5467036,23.8371191 Z" id="Shape" fill="#514525"></path>
                    <path d="M10.5467036,23.8371191 C11.6695845,23.7467036 12.7918006,23.7566759 13.9113573,23.8244875 L2.06227147,16.3505817 L10.5467036,23.8371191 Z" id="Shape" fill="#5F522E"></path>
                    <path d="M25.3116898,25.1235457 L25.2571745,25.9259834 C25.7311911,25.9239889 26.200554,25.9213296 26.6645983,25.9193352 C26.820831,25.6567313 26.9837119,25.3841551 27.1492521,25.1062604 C26.5396122,25.1381717 25.927313,25.1434903 25.3116898,25.1235457 Z" id="Shape" fill="#514525"></path>
                    <path d="M29.0306925,17.9501385 L26.9684211,0.609639889 L25.3116898,25.1235457 C25.927313,25.1434903 26.5396122,25.1381717 27.1499169,25.1069252 C30.5684211,19.3814958 35.8470914,10.5187812 38.0336842,6.78049861 L29.0306925,17.9501385 Z" id="Shape" fill="#5F522E"></path>
                    <path d="M23.2760111,16.6909695 L14.7596676,1.36354571 L22.8884211,24.9440443 C23.6037673,25.0211634 24.3157895,25.0796676 25.0251524,25.1102493 L26.6745706,0.705373961 L23.2760111,16.6909695 Z" id="Shape" fill="#725730"></path>
                    <path d="M23.2294737,25.934626 C23.8091967,25.9332964 24.3915789,25.9299723 24.9699723,25.9279778 L25.0244875,25.1109141 C24.3157895,25.0803324 23.6031025,25.0218283 22.8877562,24.9447091 L23.2294737,25.934626 Z" id="Shape" fill="#604828"></path>
                    <path d="M17.807867,25.9426039 C18.8024377,25.9445983 19.8907479,25.9432687 21.0242659,25.9412742 L19.8761219,24.546482 C18.1003878,24.2858726 16.3120222,24.0079778 14.5156787,23.8663712 L17.807867,25.9426039 Z" id="Shape" fill="#604828"></path>
                    <path d="M14.1028255,20.8274792 L0.613628809,15.072133 L0.712022161,15.1598892 L14.5156787,23.867036 C16.3120222,24.0093075 18.1010526,24.2872022 19.8761219,24.5471468 L5.73872576,7.38149584 L14.1028255,20.8274792 Z" id="Shape" fill="#725730"></path>
                    <path d="M27.4942936,25.0883102 C27.2855402,25.4386704 27.1140166,25.7252078 26.9996676,25.9173407 C28.2614958,25.9106925 29.4641551,25.9033795 30.5351801,25.8967313 L32.9631025,23.8703601 C32.5708587,23.9687535 32.1772853,24.0684765 31.7770637,24.1681994 C30.3689751,24.7106925 28.9396122,24.985928 27.4942936,25.0883102 Z" id="Shape" fill="#604828"></path>
                    <path d="M32.0888643,21.3679778 L38.3547922,6.80576177 C37.513795,8.25174515 35.9541274,10.8817729 33.0781163,15.718338 C30.827036,19.5024931 28.5826039,23.2667036 27.4949584,25.0889751 C28.940277,24.9865928 30.3689751,24.7113573 31.7777285,24.1688643 C32.178615,24.0691413 32.5715235,23.9694183 32.9637673,23.8710249 L44.5748476,14.1845983 L32.0888643,21.3679778 Z" id="Shape" fill="#725730"></path>
                    <path d="M30.9879224,25.8927424 C33.3467036,25.8774515 34.9655402,25.8641551 34.9655402,25.8641551 L37.5184488,22.8631579 C36.2300277,23.0772299 34.9356233,23.379723 33.6026593,23.7101385 L30.9879224,25.8927424 Z" id="Shape" fill="#514525"></path>
                    <path d="M33.6033241,23.7108033 C34.9362881,23.3803878 36.2306925,23.0778947 37.5191136,22.8638227 L44.6107479,14.5283102 L33.6033241,23.7108033 Z" id="Shape" fill="#5F522E"></path>
                    <path d="M21.3952355,25.9406094 C21.9004986,25.9392798 22.4110803,25.9379501 22.9276454,25.9359557 L22.5732964,24.9101385 C21.8187258,24.8237119 21.060831,24.72 20.2989474,24.6096399 L21.3952355,25.9406094 Z" id="Shape" fill="#514525"></path>
                    <path d="M18.2393352,18.1303047 L5.36044321,6.46936288 L20.2989474,24.6096399 C21.060831,24.72 21.8187258,24.8237119 22.5732964,24.9101385 L14.5103601,1.51778393 L18.2393352,18.1303047 Z" id="Shape" fill="#5F522E"></path>
                </g>
                <path d="M281.454848,139.572521 C281.454848,139.572521 289.432687,142.757673 287.438227,144.932299 C286.567978,145.880332 289.005208,144.047424 292.175069,144.474903 C295.249861,144.890416 299.639668,145.599114 297.853961,144.932299 C295.997784,144.237562 291.871247,142.181274 289.654737,143.557452 C287.438227,144.932299 290.319557,138.242881 281.454848,139.572521 Z" id="Shape" fill="#33311F" opacity="0.5"></path>
                <path d="M341.423601,150.55867 C341.423601,150.55867 346.405762,152.547812 345.159889,153.906039 C344.616731,154.498393 346.138504,153.352909 348.117673,153.620166 C350.037673,153.880111 352.779391,154.322881 351.664488,153.906039 C350.505042,153.472576 349.312355,151.329861 347.928199,152.188144 C346.544044,153.048421 346.958892,149.72831 341.423601,150.55867 Z" id="Shape" fill="#33311F" opacity="0.5"></path>
                <path d="M260.316233,290.063823 C258.986593,290.396233 172.56,296.379612 172.56,296.379612 L198.487978,298.451856 L156.066482,305.457064 L245.484765,297.760443 L200.482438,296.73795 L260.316233,290.063823 Z" id="Shape" fill="#82462F" opacity="0.3"></path>
                <polygon id="Shape" fill="#82462F" opacity="0.3" points="280.458283 294.678338 285.049529 294.283435 307.217285 294.320665 257.802548 303.908033 290.236454 295.697507"></polygon>
                <path d="M160.682327,176.711357 C161.13241,176.856288 162.534515,176.761219 164.445208,176.491967 C161.83313,176.488643 160.165097,176.544488 160.682327,176.711357 Z" id="Shape" fill="#F0F3D7" opacity="0.5"></path>
                <g id="Group" transform="translate(164.210526, 165.612188)" opacity="0.5">
                    <path d="M96.513241,0.295180055 C86.1041551,-0.0425484765 64.3685319,0.706038781 61.0537396,3.04886427 C57.7389474,5.39168975 50.647313,6.22404432 43.1129086,5.0931856 C35.5778393,3.96166205 23.6110803,2.81950139 19.1793906,5.67157895 C17.8278116,6.54182825 15.3520222,7.43800554 12.5159003,8.24908587 C17.2347922,8.4432133 21.9530194,8.77562327 26.6719114,8.77562327 C44.6220499,10.1052632 62.5721884,8.11080332 81.1871468,6.78116343 C95.6596122,5.38105263 112.426371,10.2083102 126.424155,6.76188366 C124.573961,6.33041551 122.810859,5.9434903 121.374183,5.67157895 C115.356233,4.5334072 106.922327,0.632908587 96.513241,0.295180055 Z" id="Shape" fill="#F0F3D7"></path>
                    <path d="M81.186482,6.78116343 C62.5715235,8.11080332 44.621385,10.1052632 26.6712465,8.77562327 C21.9523546,8.77562327 17.2341274,8.4432133 12.5152355,8.24908587 C8.41196676,9.42182825 3.55412742,10.4137396 0.23468144,10.8804432 C6.57506925,10.8897507 18.5125762,11.2520776 18.5125762,11.2520776 L139.121551,9.96698061 C139.121551,9.96698061 132.323767,8.13806094 126.422825,6.76188366 C112.425706,10.2083102 95.6589474,5.38105263 81.186482,6.78116343 Z" id="Shape" fill="#D9DFCB"></path>
                </g>
                <path d="M197.319224,323.106704 C197.000111,323.401884 224.337507,321.701274 224.337507,321.701274 C224.337507,321.701274 217.063712,318.50615 209.640997,319.017396 C202.217618,319.529307 199.248532,321.317673 197.319224,323.106704 Z" id="Shape" fill="#33311F" opacity="0.1"></path>
                <path d="M12.8655956,310.34615 C12.546482,310.64133 39.8838781,308.94072 39.8838781,308.94072 C39.8838781,308.94072 32.6100831,305.745596 25.1873684,306.256842 C17.7639889,306.768089 14.794903,308.557119 12.8655956,310.34615 Z" id="Shape" fill="#33311F" opacity="0.1"></path>
                <path d="M143.363767,351.062382 C143.157673,351.404765 164.214515,349.014072 158.449197,349.656953 C158.449197,349.656953 154.387812,346.461828 150.242659,346.973075 C146.098837,347.484321 144.44144,349.273352 143.363767,351.062382 Z" id="Shape" fill="#33311F" opacity="0.2"></path>
                <path d="M257.552576,351.29374 C257.37374,351.4759 272.636676,350.425485 272.636676,350.425485 C272.636676,350.425485 268.575956,348.452299 264.431468,348.768089 C260.287645,349.084543 258.629584,350.188809 257.552576,351.29374 Z" id="Shape" fill="#33311F" opacity="0.2"></path>
                <path d="M291.388587,312.94626 C291.209751,313.15169 306.473352,311.96964 306.473352,311.96964 C306.473352,311.96964 302.411967,309.750471 298.267479,310.105485 C294.123657,310.461828 292.465596,311.703712 291.388587,312.94626 Z" id="Shape" fill="#33311F" opacity="0.1"></path>
                <path d="M254.396676,297.73651 C254.27036,297.941939 265.094294,296.759889 265.094294,296.759889 C265.094294,296.759889 262.214294,294.54072 259.275125,294.895734 C256.33662,295.252078 255.161219,296.493961 254.396676,297.73651 Z" id="Shape" fill="#33311F" opacity="0.1"></path>
                <path d="M190.957562,352.742382 C190.778726,352.947812 206.042327,351.765762 206.042327,351.765762 C206.042327,351.765762 201.980942,349.546593 197.836454,349.901607 C193.693296,350.257285 192.035235,351.499169 190.957562,352.742382 Z" id="Shape" fill="#33311F" opacity="0.2"></path>
                <path d="M238.441662,330.917008 C238.262825,331.122438 253.526427,329.940388 253.526427,329.940388 C253.526427,329.940388 249.465042,327.721219 245.320554,328.076233 C241.177396,328.432576 239.51867,329.67446 238.441662,330.917008 Z" id="Shape" fill="#33311F" opacity="0.1"></path>
                <path d="M82.039446,300.523435 C81.8606094,300.728864 97.1242105,299.546814 97.1242105,299.546814 C97.1242105,299.546814 93.0628255,297.327645 88.918338,297.682659 C84.7751801,298.038338 83.1164543,299.280886 82.039446,300.523435 Z" id="Shape" fill="#33311F" opacity="0.1"></path>
                <path d="M343.608199,345.043767 C343.213961,345.555014 376.941607,342.617175 376.941607,342.617175 C376.941607,342.617175 367.967202,337.101828 358.809972,337.984044 C349.652742,338.86626 345.98892,341.955014 343.608199,345.043767 Z" id="Shape" fill="#33311F" opacity="0.2"></path>
            </g>
        </g>
    </g>
</svg>