<?xml version="1.0" encoding="UTF-8"?>
<svg width="480px" height="360px" viewBox="0 0 480 360" version="1.1" xmlns="http://www.w3.org/2000/svg" xmlns:xlink="http://www.w3.org/1999/xlink">
    <!-- Generator: Sketch 51.1 (57501) - http://www.bohemiancoding.com/sketch -->
    <title>Seaside10</title>
    <desc>Created with Sketch.</desc>
    <defs></defs>
    <g id="Seaside10" stroke="none" stroke-width="1" fill="none" fill-rule="evenodd">
        <g id="Group-2" transform="translate(-26.000000, -49.000000)" fill-rule="nonzero">
            <g id="D_33-01">
                <rect id="sand" fill="#F3E5E8" x="26" y="306.610169" width="480" height="133.389831"></rect>
                <rect id="sea" fill="#72D1EF" x="26" y="193.800847" width="480" height="112.809322"></rect>
                <rect id="sky" fill="#A9EAFF" x="26" y="0" width="480" height="193.800847"></rect>
                <g id="fence" transform="translate(26.000000, 142.394068)" fill="#FFFFFF">
                    <polygon id="Shape" points="36 87.8199153 43.2857143 80.3944915 50.8571429 88.1055085 50.8571429 202.057203 36 202.057203"></polygon>
                    <polygon id="Shape" points="7.85714286 87.8199153 15.1428571 80.3944915 22.8571429 88.1055085 22.8571429 202.057203 7.85714286 202.057203"></polygon>
                    <polygon id="Shape" points="64 87.8199153 71.2857143 80.3944915 79 88.1055085 79 202.057203 64 202.057203"></polygon>
                    <polygon id="Shape" points="92.1428571 87.8199153 99.4285714 80.3944915 107 88.1055085 107 202.057203 92.1428571 202.057203"></polygon>
                    <polygon id="Shape" points="120.142857 87.8199153 127.428571 80.3944915 135.142857 88.1055085 135.142857 202.057203 120.142857 202.057203"></polygon>
                    <polygon id="Shape" points="148.142857 87.8199153 155.571429 80.3944915 163.142857 88.1055085 163.142857 202.057203 148.142857 202.057203"></polygon>
                    <polygon id="Shape" points="176.285714 87.8199153 183.571429 80.3944915 191.285714 88.1055085 191.285714 202.057203 176.285714 202.057203"></polygon>
                    <polygon id="Shape" points="204.285714 87.8199153 211.714286 80.3944915 219.285714 88.1055085 219.285714 202.057203 204.285714 202.057203"></polygon>
                    <polygon id="Shape" points="183.571429 31.4152542 176.285714 24.1326271 183.857143 16.4216102 298 16.4216102 298 31.4152542"></polygon>
                    <polygon id="Shape" points="298.142857 43.9813559 305.428571 51.2639831 297.714286 58.8322034 183.714286 58.8322034 183.714286 43.9813559"></polygon>
                    <polygon id="Shape" points="232.428571 7.56822034 239.714286 0.14279661 247.428571 7.85381356 247.428571 202.057203 232.428571 202.057203"></polygon>
                    <polygon id="Shape" points="260.428571 87.8199153 267.714286 80.3944915 275.428571 88.1055085 275.428571 202.057203 260.428571 202.057203"></polygon>
                    <polygon id="Shape" points="288.571429 87.8199153 295.857143 80.3944915 303.428571 88.1055085 303.428571 202.057203 288.571429 202.057203"></polygon>
                    <polygon id="Shape" points="316.571429 87.8199153 323.857143 80.3944915 331.571429 88.1055085 331.571429 202.057203 316.571429 202.057203"></polygon>
                    <polygon id="Shape" points="344.714286 87.8199153 352 80.3944915 359.571429 88.1055085 359.571429 202.057203 344.714286 202.057203"></polygon>
                    <polygon id="Shape" points="372.714286 87.8199153 380 80.3944915 387.714286 88.1055085 387.714286 202.057203 372.714286 202.057203"></polygon>
                    <polygon id="Shape" points="400.857143 87.8199153 408.142857 80.3944915 415.714286 88.1055085 415.714286 202.057203 400.857143 202.057203"></polygon>
                    <polygon id="Shape" points="428.857143 87.8199153 436.142857 80.3944915 443.857143 88.1055085 443.857143 202.057203 428.857143 202.057203"></polygon>
                    <polygon id="Shape" points="456.857143 87.8199153 464.285714 80.3944915 471.857143 88.1055085 471.857143 202.057203 456.857143 202.057203"></polygon>
                    <rect id="Rectangle-path" x="0" y="201.914407" width="480" height="14.9936441"></rect>
                </g>
                <path d="M506,157.958898 C418,160.672034 370.714286,193.658051 370.714286,193.658051 L506,193.658051 L506,157.958898 Z" id="island" fill="#F2E3E6"></path>
                <path d="M136,157.958898 C48,160.672034 0.714285714,193.658051 0.714285714,193.658051 L136,193.658051 L136,157.958898 Z" id="island-copy" fill="#F2E3E6" transform="translate(68.357143, 175.808475) scale(-1, 1) translate(-68.357143, -175.808475) "></path>
                <g id="cloud_2_" opacity="0.5" transform="translate(353.142857, 82.419492)" fill="#FFFFFF">
                    <g id="clouds_1_" opacity="0.7">
                        <g id="Group">
                            <path d="M37,13.2800847 C37,11.9949153 36.4285714,10.8525424 35.5714286,9.99576271 C34.7142857,9.28177966 33.7142857,8.85338983 32.4285714,8.85338983 C32,8.85338983 31.7142857,8.85338983 31.2857143,8.99618644 C30.7142857,4.71228814 27.1428571,1.28516949 22.5714286,1.28516949 C19.8571429,1.28516949 17.2857143,2.57033898 15.7142857,4.56949153 C15.4285714,4.85508475 15.2857143,5.28347458 15,5.5690678 C14.5714286,5.14067797 14.1428571,4.85508475 13.7142857,4.56949153 C12.7142857,3.99830508 11.5714286,3.71271186 10.4285714,3.71271186 C6.85714286,3.71271186 4,6.42584746 3.85714286,9.99576271 C2,9.99576271 0.571428571,11.4237288 0.571428571,13.2800847 L37,13.2800847 Z" id="Shape"></path>
                        </g>
                    </g>
                </g>
                <g id="cloud_3_" transform="translate(166.000000, 100.983051)" fill="#FFFFFF" opacity="0.7">
                    <g id="Group">
                        <path d="M86.1428571,28.8449153 C86.1428571,25.8461864 84.8571429,22.9902542 82.7142857,21.1338983 C80.8571429,19.420339 78.2857143,18.2779661 75.5714286,18.2779661 C74.7142857,18.2779661 73.7142857,18.4207627 72.8571429,18.5635593 C71.5714286,8.56779661 63,0.713983051 52.7142857,0.713983051 C46.2857143,0.713983051 40.4285714,3.71271186 36.7142857,8.425 C36.1428571,9.13898305 35.5714286,9.99576271 35.1428571,10.7097458 C34.2857143,9.8529661 33.1428571,8.99618644 32.1428571,8.425 C29.8571429,7.13983051 27.2857143,6.28305085 24.4285714,6.28305085 C16.1428571,6.28305085 9.42857143,12.7088983 9,20.8483051 C4.71428571,20.8483051 1.28571429,24.2754237 1.28571429,28.559322 L86.1428571,28.559322 L86.1428571,28.8449153 Z" id="Shape"></path>
                    </g>
                </g>
            </g>
        </g>
    </g>
</svg>