<?xml version="1.0" encoding="UTF-8"?>
<svg width="120px" height="120px" viewBox="0 0 120 120" version="1.1" xmlns="http://www.w3.org/2000/svg" xmlns:xlink="http://www.w3.org/1999/xlink">
    <!-- Generator: Sketch 51.1 (57501) - http://www.bohemiancoding.com/sketch -->
    <title>Athlete9</title>
    <desc>Created with Sketch.</desc>
    <defs>
        <polygon id="path-1" points="0.199373684 0.299053333 13.3734789 0.299053333 13.3734789 5.86666667 0.199373684 5.86666667"></polygon>
    </defs>
    <g id="Athlete9" stroke="none" stroke-width="1" fill="none" fill-rule="evenodd">
        <g id="Group-44" transform="translate(27.000000, 2.000000)">
            <path d="M0.219790625,48.50336 C8.53213437,61.3374691 19.6260406,50.6295055 15.8526031,39.2821964 C13.1141656,31.0479418 27.9815094,41.9640145 27.9815094,41.9640145 C27.9815094,41.9640145 19.2767281,65.8364873 11.7255406,66.1947782 C4.17219687,66.5487782 0.193915625,54.8667782 0.219790625,48.50336" id="Fill-1" fill="#AD6920"></path>
            <path d="M7.48721562,82.7081273 C8.57827812,82.8239818 9.62405937,82.0988182 10.2860281,80.9166727 C10.9070281,81.423 11.5194031,81.6246727 11.9592781,81.3951091 C12.7786531,80.9595818 12.6816219,79.1788545 11.7371844,77.4131455 C11.3792469,76.7373273 10.9501531,76.1644909 10.5102781,75.7354 C10.4736219,75.6603091 10.4348094,75.5938 10.3938406,75.523 C10.3938406,75.523 12.0174969,65.1947818 13.7511219,62.7554 C14.3440906,61.9165273 14.8076844,61.3351091 15.0729031,60.8738364 L15.0729031,60.8824182 C12.8756844,71.0497273 12.6212469,84.6004182 12.6212469,84.6004182 L45.0706531,84.6004182 C45.0706531,84.6004182 44.7579969,69.0094 42.0842469,58.7391091 C43.5224656,59.3012182 50.7717781,62.0474 52.9884031,61.2492909 C56.0373406,60.1486727 59.5326219,50.2645636 59.5326219,50.2645636 C60.8479344,49.8032909 62.1179656,48.5546364 62.8510906,46.8339818 C63.9939031,44.1500182 63.3944656,41.3308909 61.5163719,40.5413636 C60.2916219,40.0243091 58.8210594,40.5006 57.6329656,41.6398364 C57.0939031,40.8331455 56.4578094,40.3826 55.8648406,40.4963091 C54.7608406,40.7087091 54.2411844,42.8112545 54.7069344,45.1905636 C54.8837469,46.0980909 55.1813094,46.9176545 55.5392469,47.5677273 C55.5866844,47.8659455 55.6556844,48.1491455 55.7505594,48.4130364 L50.1421531,54.9674 L38.0606844,50.6614727 L38.0606844,50.6550364 C35.8634656,49.4020909 30.7121844,49.1575091 30.7121844,49.1575091 L28.9203406,49.2669273 L28.7737156,49.2669273 L26.9732469,49.1896909 C26.9732469,49.1896909 21.8025594,49.3720545 19.6204344,50.6121273 L19.6053406,50.6121273 C19.6053406,50.6121273 12.8196219,54.1521273 10.9997469,56.4670727 C7.38587187,61.0604909 5.93902812,74.5511091 5.84199687,75.4736545 C5.84199687,75.4715091 5.84199687,75.4650727 5.84415312,75.4629273 C5.36115312,76.1537636 5.02477812,77.0548545 4.91696562,78.0589273 C4.66252812,80.4511091 5.81180937,82.5322 7.48721562,82.7081273 Z" id="Fill-3" fill="#FDDFBB"></path>
            <polygon id="Fill-5" fill="#C6C5C6" points="59.280125 105.513665 59.8127188 105.513665 59.8127188 51.3516655 59.280125 51.3516655"></polygon>
            <path d="M53.4964156,44.7215673 L65.5757281,44.7215673 C65.4312594,47.9161491 62.7812281,50.4606582 59.5339156,50.4606582 C56.2887594,50.4606582 53.6408844,47.9161491 53.4964156,44.7215673 M52.5951031,44.4469491 C52.5951031,48.2594218 55.7001031,51.3510218 59.5339156,51.3510218 C63.3677281,51.3510218 66.4770406,48.2594218 66.4770406,44.4469491 C66.4770406,44.1809127 66.4597906,43.9191673 66.4317594,43.6617127 L52.6403844,43.6617127 C52.6101969,43.9191673 52.5951031,44.1809127 52.5951031,44.4469491" id="Fill-7" fill="#727371"></path>
            <polygon id="Fill-8" fill="#B52836" points="53.5509688 44.7222109 65.5440313 44.7222109 65.5440313 43.6623564 53.5509688 43.6623564"></polygon>
            <path d="M65.8064469,110.334073 C65.8064469,113.698145 63.0636969,116.431455 59.6783844,116.431455 C56.2952281,116.431455 53.5503219,113.698145 53.5503219,110.334073 C53.5503219,106.967855 56.2952281,104.236691 59.6783844,104.236691 C63.0636969,104.236691 65.8064469,106.967855 65.8064469,110.334073" id="Fill-9" fill="#E63744"></path>
            <path d="M64.1554062,106.168887 C64.696625,107.07856 65.007125,108.14056 65.007125,109.269069 C65.007125,112.639578 62.2622187,115.368596 58.8790625,115.368596 C57.1130937,115.368596 55.5217812,114.626269 54.4048437,113.437687 C55.4721875,115.226996 57.4365312,116.430596 59.6790312,116.430596 C63.0621875,116.430596 65.8070937,113.699433 65.8070937,110.333215 C65.8070937,108.719833 65.179625,107.260924 64.1554062,106.168887" id="Fill-10" fill="#B52836"></path>
            <path d="M57.8783469,104.505302 C56.3646594,104.966575 55.1032531,105.994247 54.3377844,107.341593 C54.3830656,108.867011 55.6423156,110.092065 57.1883469,110.092065 C58.7602531,110.092065 60.0389094,108.824102 60.0389094,107.255775 C60.0389094,105.925593 59.1203469,104.812102 57.8783469,104.505302" id="Fill-11" fill="#EB6474"></path>
            <path d="M54.6228406,44.8726073 C54.9635281,47.1403527 56.0934031,48.8524255 57.1478094,48.6958073 C58.1979031,48.5413345 58.7800906,46.5760982 58.4415594,44.3040618 C58.0965594,42.0384618 56.9688406,40.3263891 55.9144344,40.4830073 C54.8578719,40.63748 54.2821531,42.6027164 54.6228406,44.8726073" id="Fill-12" fill="#FDDFBB"></path>
            <path d="M12.622325,84.6010618 C12.6352625,83.9381164 12.8918563,72.6358618 14.6362625,63.1057527 C14.6772313,62.8976436 14.7031063,62.7088436 14.7462313,62.50288 C18.3277625,58.5187709 18.7913563,54.8242982 19.6301375,50.6149164 C20.6026063,50.0635345 22.1658875,49.7245527 23.5976375,49.5164436 C23.5976375,49.5164436 23.5976375,55.8584073 28.7726375,55.8584073 C33.6651688,55.8584073 33.4322938,49.42848 33.4322938,49.42848 C35.0236063,49.6430255 36.9383563,50.01848 38.0617625,50.6642618 C38.9479813,53.3096073 39.8687,58.82128 42.6287,61.0611345 C44.741825,70.92808 45.0544813,83.8694618 45.0717313,84.6010618 L12.622325,84.6010618 Z" id="Fill-13" fill="#82A74D"></path>
            <path d="M37.5940719,55.6962109 L37.5940719,57.5520291 C37.5940719,58.5410836 36.7897906,59.3434836 35.7979156,59.3434836 L35.7936031,59.3434836 C34.8017281,59.3434836 33.9974469,58.5410836 33.9974469,57.5520291 L33.9974469,55.6962109 L37.5940719,55.6962109 Z" id="Fill-14" fill="#F6B90C"></path>
            <path d="M42.59075,61.0304545 C41.7131562,60.3031455 41.0231563,59.2518727 40.4582188,58.0547091 L40.4582188,84.6004182 L42.59075,84.6004182 L42.59075,61.0304545 Z" id="Fill-15" fill="#EEEEED"></path>
            <path d="M17.0085687,59.3814582 L17.0085687,84.6012764 L14.8760375,84.6012764 L14.8760375,62.3529127 C15.7644125,61.34884 16.4565687,60.3619309 17.0085687,59.3814582" id="Fill-16" fill="#EEEEED"></path>
            <polygon id="Fill-17" fill="#EEEEED" points="18.7404687 78.6332655 38.9272812 78.6332655 38.9272812 66.17032 18.7404687 66.17032"></polygon>
            <polygon id="Fill-18" fill="#99588C" points="18.7404687 68.6890836 38.9272812 68.6890836 38.9272812 66.1724655 18.7404687 66.1724655"></polygon>
            <polygon id="Fill-19" fill="#99588C" points="18.7404687 78.6332655 38.9272812 78.6332655 38.9272812 77.0434836 18.7404687 77.0434836"></polygon>
            <polygon id="Fill-20" fill="#FDDFBB" points="26.9749719 111.075756 18.3823156 111.075756 18.3585969 106.840629 18.0092844 98.9432109 17.3839719 95.89452 28.1760031 95.89452 28.1760031 98.9432109 27.9388156 106.840629"></polygon>
            <polygon id="Fill-21" fill="#FDDFBB" points="39.3018219 111.075756 30.0428844 111.075756 29.7366969 106.840629 29.5102906 98.9432109 29.5102906 95.89452 40.3023219 95.89452 39.6748531 98.9432109 39.3276969 106.840629"></polygon>
            <polygon id="Fill-22" fill="#343434" points="32.1085719 84.55708 28.8396969 84.55708 25.8446656 84.55708 16.1825094 84.55708 17.3016031 96.0910436 28.2790719 96.0910436 28.6952281 91.84948 28.9906344 91.84948 29.4024781 96.0910436 40.3756344 96.0910436 41.4990406 84.55708"></polygon>
            <path d="M27.9392469,106.841273 L18.3590281,106.841273 L18.1218406,110.885455 L18.1283094,110.885455 C17.8027156,111.084982 17.4943719,111.344582 17.2097469,111.606327 L17.2097469,114.200182 L25.0089031,114.200182 C25.1598406,114.112218 25.3064656,114.022109 25.4487781,113.925564 C26.3263719,113.311964 27.3592156,112.636145 27.9543406,111.724327 C28.1397781,111.443273 28.2260281,111.151491 28.1613406,110.885455 L28.1397781,110.885455 L27.9392469,106.841273 Z" id="Fill-23" fill="#EEEEED"></path>
            <polygon id="Fill-24" fill="#E63744" points="27.9625344 107.296109 18.3305656 107.296109 18.3197844 107.497782 27.9711594 107.497782"></polygon>
            <polygon id="Fill-25" fill="#E63744" points="27.9815094 107.696236 18.3085719 107.696236 18.2956344 107.895764 27.9901344 107.895764"></polygon>
            <path d="M41.1988906,112.4334 C40.7741094,111.828382 40.1962344,111.281291 39.5558281,110.884382 L39.5622969,110.884382 L39.3272656,106.842345 L29.7384219,106.842345 L29.5378906,110.884382 L29.5271094,110.884382 C29.4624219,111.150418 29.5486719,111.4422 29.7319531,111.7254 C30.3249219,112.637218 31.3599219,113.3066 32.2396719,113.918055 C32.3819844,114.0146 32.5286094,114.111145 32.6773906,114.199109 L41.1988906,114.199109 L41.1988906,112.4334 Z" id="Fill-26" fill="#EEEEED"></path>
            <polygon id="Fill-27" fill="#E63744" points="29.7039219 107.497138 39.3617656 107.497138 39.3531406 107.295465 29.7147031 107.295465"></polygon>
            <polygon id="Fill-28" fill="#E63744" points="29.6871031 107.895335 39.3859156 107.895335 39.3751344 107.695807 29.6957281 107.695807"></polygon>
            <path d="M18.1455594,110.885025 L22.8893094,110.52888 C22.8893094,110.52888 21.6171219,108.793207 19.9374031,108.874735 C18.3159031,108.954116 18.1175281,110.870007 18.1175281,110.870007 L18.1455594,110.885025 Z" id="Fill-29" fill="#6E6E6D"></path>
            <path d="M18.7499563,110.702662 L22.0145188,110.45808 C22.0145188,110.45808 21.136925,109.265207 19.981175,109.320989 C18.86855,109.376771 18.7327062,110.69408 18.7327062,110.69408 L18.7499563,110.702662 Z" id="Fill-30" fill="#D2771A"></path>
            <path d="M18.1455594,110.885025 L18.1175281,110.876444 L18.1218406,110.885025 L18.1283094,110.885025 C16.2480594,112.077898 14.8788406,114.416444 16.4917156,116.336625 C17.7099969,117.690407 19.5018406,116.628407 20.8624344,116.057716 C22.3674969,115.34328 24.0860281,114.849825 25.4487781,113.922989 C26.3263719,113.309389 27.3592156,112.635716 27.9543406,111.723898 C28.1397781,111.442844 28.2260281,111.151062 28.1613406,110.885025 L28.1613406,109.093571 C28.1613406,109.093571 28.0362781,108.911207 27.6244344,109.093571 C26.7921219,109.458298 26.2444344,111.090989 24.4763094,110.885025 C20.0948094,109.672844 18.1455594,110.885025 18.1455594,110.885025" id="Fill-31" fill="#F29221"></path>
            <path d="M27.8213,111.911625 L27.605675,111.714244 C27.605675,111.714244 25.3523938,113.984135 23.4096125,114.546244 L23.586425,114.90668 C24.241925,114.62348 24.8780188,114.308098 25.4472688,113.921916 C26.2623313,113.351225 27.21755,112.731189 27.8213,111.911625" id="Fill-32" fill="#343434"></path>
            <path d="M18.1455594,110.885025 L18.1175281,110.870007 L18.1218406,110.878589 L18.1283094,110.878589 C18.0765594,110.942953 18.0204969,110.947244 17.9730594,110.983716 C17.6819656,111.620916 17.7186219,112.294589 19.1827156,112.283862 C20.3233719,112.27528 21.9297781,111.23688 22.8893094,110.52888 C19.6225906,109.964625 18.1455594,110.885025 18.1455594,110.885025" id="Fill-33" fill="#343434"></path>
            <path d="M18.0739719,112.125313 C17.5801906,112.125313 17.0993469,112.161785 16.6357531,112.232585 C16.6314406,112.236876 16.6271281,112.245458 16.6228156,112.249749 C15.6934719,113.461931 15.3721906,115.000222 16.4934406,116.33684 C17.7095656,117.690622 19.5014094,116.628622 20.8620031,116.057931 C21.9034719,115.564476 23.0505969,115.174004 24.1071594,114.671967 C22.8996594,113.148695 20.6485344,112.125313 18.0739719,112.125313" id="Fill-34" fill="#343434"></path>
            <path d="M28.1057094,109.294815 C27.6830844,109.294815 27.3402406,110.073615 27.3402406,111.034778 C27.3402406,111.502487 27.4200219,111.927287 27.5515531,112.238378 C27.7003344,112.075324 27.8361781,111.903687 27.9547719,111.723469 C28.1402094,111.442415 28.2264594,111.150633 28.1596156,110.884596 L28.1596156,109.299105 C28.1423656,109.29696 28.1229594,109.294815 28.1057094,109.294815" id="Fill-35" fill="#EEEEED"></path>
            <path d="M17.0191344,111.821516 C17.0061969,111.821516 16.9911031,111.812935 16.9889469,111.795771 C16.9846344,111.778607 16.9932594,111.761444 17.0126656,111.757153 C17.0342281,111.750716 19.1581344,111.235807 21.8836344,111.742135 C21.9008844,111.74428 21.9159781,111.763589 21.9095094,111.778607 C21.9073531,111.797916 21.8922594,111.808644 21.8706969,111.806498 C19.1624469,111.302316 17.0514781,111.81508 17.0277594,111.819371 C17.0277594,111.821516 17.0234469,111.821516 17.0191344,111.821516" id="Fill-36" fill="#D2771A"></path>
            <path d="M17.5812688,111.310255 C17.566175,111.310255 17.5532375,111.301673 17.5467688,111.2888 C17.5424563,111.269491 17.5532375,111.252327 17.5704875,111.248036 C17.5877375,111.239455 19.5628625,110.593673 22.3034563,111.213709 C22.31855,111.218 22.3314875,111.237309 22.3293313,111.254473 C22.3250188,111.271636 22.3056125,111.284509 22.2905188,111.278073 C19.567175,110.664473 17.6136125,111.301673 17.59205,111.308109 C17.5877375,111.310255 17.583425,111.310255 17.5812688,111.310255" id="Fill-37" fill="#D2771A"></path>
            <path d="M39.5396562,110.885025 L34.7915937,110.52888 C34.7915937,110.52888 36.0680937,108.793207 37.7456562,108.874735 C39.3693125,108.954116 39.5676875,110.870007 39.5676875,110.870007 L39.5396562,110.885025 Z" id="Fill-38" fill="#6E6E6D"></path>
            <path d="M38.9352594,110.702662 L35.6706969,110.45808 C35.6706969,110.45808 36.5482906,109.265207 37.7040406,109.320989 C38.8166656,109.376771 38.9525094,110.69408 38.9525094,110.69408 L38.9352594,110.702662 Z" id="Fill-39" fill="#D2771A"></path>
            <path d="M39.5396563,110.885025 L39.5676875,110.876444 L39.563375,110.885025 L39.5569063,110.885025 C41.4371563,112.077898 42.8020625,114.416444 41.1935,116.336625 C39.9752188,117.690407 38.183375,116.628407 36.8227813,116.057716 C35.3177188,115.34328 33.5991875,114.849825 32.2385938,113.922989 C31.3588438,113.309389 30.326,112.635716 29.730875,111.723898 C29.5475938,111.442844 29.4591875,111.151062 29.523875,110.885025 L29.523875,109.093571 C29.523875,109.093571 29.644625,108.911207 30.0629375,109.093571 C30.8930938,109.458298 31.4407813,111.090989 33.2110625,110.885025 C37.5904063,109.672844 39.5396563,110.885025 39.5396563,110.885025" id="Fill-40" fill="#F29221"></path>
            <path d="M29.8639156,111.911625 L30.0795406,111.714244 C30.0795406,111.714244 32.3306656,113.984135 34.2756031,114.546244 L34.0987906,114.90668 C33.4432906,114.62348 32.8071969,114.308098 32.2401031,113.921916 C31.4207281,113.351225 30.4698219,112.731189 29.8639156,111.911625" id="Fill-41" fill="#343434"></path>
            <path d="M39.5396563,110.885025 L39.5676875,110.870007 L39.563375,110.878589 L39.5569063,110.878589 C39.6086563,110.942953 39.6604063,110.947244 39.7121563,110.983716 C40.00325,111.620916 39.9665938,112.294589 38.5025,112.283862 C37.364,112.27528 35.7575938,111.23688 34.7915938,110.52888 C38.0604688,109.964625 39.5396563,110.885025 39.5396563,110.885025" id="Fill-42" fill="#343434"></path>
            <path d="M39.6112438,112.125313 C40.105025,112.125313 40.5858688,112.161785 41.0473063,112.232585 C41.0516188,112.236876 41.0580875,112.245458 41.0624,112.249749 C41.9917438,113.461931 42.313025,115.000222 41.191775,116.33684 C39.97565,117.690622 38.1838063,116.628622 36.8232125,116.057931 C35.7817438,115.564476 34.6346188,115.174004 33.5737438,114.671967 C34.7855563,113.148695 37.0366813,112.125313 39.6112438,112.125313" id="Fill-43" fill="#343434"></path>
            <path d="M29.5797219,109.294815 C30.0023469,109.294815 30.3451906,110.073615 30.3451906,111.034778 C30.3451906,111.502487 30.2632531,111.927287 30.1317219,112.238378 C29.9850969,112.075324 29.8492531,111.903687 29.7306594,111.723469 C29.5473781,111.442415 29.4589719,111.150633 29.5258156,110.884596 L29.5258156,109.299105 C29.5430656,109.29696 29.5603156,109.294815 29.5797219,109.294815" id="Fill-44" fill="#EEEEED"></path>
            <path d="M40.6662969,111.821516 C40.6792344,111.821516 40.6943281,111.812935 40.6964844,111.795771 C40.7007969,111.778607 40.6900156,111.761444 40.6727656,111.757153 C40.6512031,111.750716 38.5272969,111.235807 35.8017969,111.742135 C35.7823906,111.74428 35.7716094,111.763589 35.7716094,111.778607 C35.7780781,111.797916 35.7974844,111.808644 35.8147344,111.806498 C38.5229844,111.302316 40.6339531,111.81508 40.6555156,111.819371 C40.6576719,111.821516 40.6619844,111.821516 40.6662969,111.821516" id="Fill-45" fill="#D2771A"></path>
            <path d="M40.1039469,111.310255 C40.1190406,111.310255 40.1319781,111.301673 40.1384469,111.2888 C40.1427594,111.269491 40.1319781,111.252327 40.1147281,111.248036 C40.0931656,111.239455 38.1223531,110.593673 35.3817594,111.213709 C35.3645094,111.218 35.3515719,111.237309 35.3558844,111.254473 C35.3601969,111.271636 35.3774469,111.284509 35.3946969,111.278073 C38.1180406,110.664473 40.0716031,111.301673 40.0931656,111.308109 C40.0974781,111.310255 40.1017906,111.310255 40.1039469,111.310255" id="Fill-46" fill="#D2771A"></path>
            <path d="M30.4851313,51.0135418 L26.687975,51.0135418 C25.601225,51.0135418 24.721475,48.69216 24.721475,47.6323055 L32.449475,47.6323055 C32.449475,48.69216 31.569725,51.0135418 30.4851313,51.0135418" id="Fill-47" fill="#FDDFBB"></path>
            <path d="M25.5492594,50.1523564 L32.4212281,47.8953382 L32.4320094,47.88032 C31.1555094,48.1013018 29.8423531,48.2128655 28.4990094,48.2128655 C27.2181969,48.2128655 25.9611031,48.1098836 24.7341969,47.9103564 C24.8053531,48.5733018 25.1136969,49.4915564 25.5492594,50.1523564" id="Fill-48" fill="#EEAC6C"></path>
            <path d="M5.81676875,28.5092255 C5.64426875,27.37428 5.5558625,26.2114436 5.5558625,25.0292982 C5.5558625,12.2423891 15.97055,1.87984364 28.8196438,1.87984364 C41.6708938,1.87984364 52.0855813,12.2423891 52.0855813,25.0292982 C52.0855813,26.1578073 52.0058,27.2648618 51.8483938,28.3526073 C53.1917375,29.0820618 54.0973625,30.4637345 54.0973625,32.0449345 C54.0973625,34.3942073 52.1071438,36.2993709 49.6533313,36.2993709 C49.4873,36.2993709 49.3255813,36.2886436 49.1660188,36.27148 C45.1898938,43.37508 37.5697063,48.1787527 28.8196438,48.1787527 C20.0803625,48.1787527 12.4688,43.3836618 8.49051875,36.2929345 C8.4193625,36.29508 8.35251875,36.2993709 8.2813625,36.2993709 C5.82970625,36.2993709 3.83733125,34.3942073 3.83733125,32.0449345 C3.83733125,30.5710073 4.6243625,29.2708618 5.81676875,28.5092255" id="Fill-49" fill="#FDDFBB"></path>
            <g id="Page-1" transform="translate(17.000000, 22.000000)">
                <path d="M8.31106854,1.65026755 C8.31106854,1.65026755 7.80801591,3.45328977 6.22875275,3.09640088 C5.45712117,2.92235643 5.3211738,1.89471199 2.8433317,2.35573421 C2.06412117,2.53613421 0.42612117,3.51195643 0.110647486,4.16364532 C-0.205299883,4.8158231 0.0234895909,1.77248977 2.56764749,0.641689768 C4.4031738,-0.0329768984 5.02512117,0.000267546019 6.54470012,0.000267546019 C8.06427906,0.000267546019 8.53227906,0.907156435 8.31106854,1.65026755" id="Fill-1" fill="#AD6920"></path>
                <path d="M18.05184,1.65026755 C18.05184,1.65026755 18.5548926,3.45328977 20.1341558,3.09640088 C20.9057873,2.92235643 21.0417347,1.89471199 23.5195768,2.35573421 C24.2987873,2.53613421 25.9367873,3.51195643 26.252261,4.16364532 C26.5682084,4.8158231 26.3394189,1.77248977 23.795261,0.641689768 C21.9597347,-0.0329768984 21.3377873,0.000267546019 19.8182084,0.000267546019 C18.2986294,0.000267546019 17.8306294,0.907156435 18.05184,1.65026755" id="Fill-3" fill="#AD6920"></path>
                <path d="M6,9 C6,10.6568785 5.10453816,12 3.99983098,12 C2.89512381,12 2,10.6568785 2,9 C2,7.34312148 2.89512381,6 3.99983098,6 C5.10453816,6 6,7.34312148 6,9" id="Fill-5" fill="#6172BB"></path>
                <path d="M24,9 C24,10.6568785 23.1048762,12 22.000169,12 C20.8951238,12 20,10.6568785 20,9 C20,7.34312148 20.8951238,6 22.000169,6 C23.1048762,6 24,7.34312148 24,9" id="Fill-7" fill="#6172BB"></path>
                <path d="M13.0197368,12.0692 C13.8586316,11.9552889 15.9802632,13.8262667 15.9802632,13.8262667 C15.9802632,13.8262667 16.0825789,13.4116889 15.6396842,12.5884 C15.1626842,11.7025333 12.9903684,11 12.9903684,11 C12.9903684,11 11.3026316,11.4478222 10.5030526,12.6040444 C10.207,12.8939556 10,13.9025333 10,13.9025333 C10,13.9025333 11.8947368,12.2217333 13.0197368,12.0692 Z" id="Fill-9" fill="#EEAC6C"></path>
                <g id="Group-13" transform="translate(6.000000, 15.000000)">
                    <mask id="mask-2" fill="white">
                        <use xlink:href="#path-1"></use>
                    </mask>
                    <g id="Clip-12"></g>
                    <path d="M0.199373684,0.696031111 C0.199373684,0.696031111 7.09763684,3.90412 13.3734789,0.299053333 C13.3734789,0.299053333 11.9822684,5.76825333 7.42305789,5.86016444 C3.30768947,5.98238667 2.43942632,4.36807556 1.94632105,3.90412 C1.45274211,3.44114222 0.524794737,2.13238667 0.199373684,0.696031111" id="Fill-11" fill="#EEAC6C" mask="url(#mask-2)"></path>
                </g>
            </g>
            <path d="M52.9088375,22.2404218 C52.8915875,21.0346764 52.8053375,19.5714764 52.6328375,18.00744 C49.5256813,7.87445818 40.0511188,0.500530909 28.8494,0.500530909 C19.0923688,0.500530909 10.65065,6.08944 6.57965,14.2250036 C5.4540875,17.4217309 4.76193125,20.5669673 4.70586875,21.9872582 C4.5053375,26.9110764 5.93924375,28.5437673 5.93924375,28.5437673 C5.93924375,28.5437673 10.1115875,22.8025309 15.0450875,19.35264 C18.922025,16.6450764 22.3741813,21.8799855 26.9820875,17.39384 C27.3874625,16.99264 28.9291813,15.4457673 28.9291813,15.4457673 C28.9291813,15.4457673 30.1970563,16.8596218 30.8741188,17.39384 C34.97315,20.6098764 37.2544625,16.9561673 41.8408063,19.4341673 C45.5883688,21.4659127 51.7336813,28.7068218 51.7336813,28.7068218 C51.7336813,28.7068218 52.9454938,24.9479855 52.9088375,22.2404218" id="Fill-58" fill="#AD6920"></path>
        </g>
    </g>
</svg>