<?xml version="1.0" encoding="UTF-8"?>
<svg width="120px" height="120px" viewBox="0 0 120 120" version="1.1" xmlns="http://www.w3.org/2000/svg" xmlns:xlink="http://www.w3.org/1999/xlink">
    <!-- Generator: Sketch 51.1 (57501) - http://www.bohemiancoding.com/sketch -->
    <title>Cymbal1</title>
    <desc>Created with Sketch.</desc>
    <defs></defs>
    <g id="Cymbal1" stroke="none" stroke-width="1" fill="none" fill-rule="evenodd">
        <g id="Group" transform="translate(28.000000, 0.000000)" fill-rule="nonzero">
            <g transform="translate(35.652968, 0.000000)">
                <rect id="Rectangle-path" fill="#DCAC53" x="19.1415525" y="58.1515892" width="3.50684932" height="3.5207824"></rect>
                <path d="M25.5123288,51.8141809 L25.3077626,51.8141809 C23.8465753,51.8141809 22.6484018,53.0171149 22.6484018,54.4841076 L22.6484018,65.3398533 C22.6484018,66.806846 23.8465753,68.00978 25.3077626,68.00978 L25.5123288,68.00978 C26.973516,68.00978 28.1716895,66.806846 28.1716895,65.3398533 L28.1716895,54.4841076 C28.2009132,53.0171149 27.0027397,51.8141809 25.5123288,51.8141809 Z M26.9150685,64.2249389 C26.9150685,65.0464548 26.2429224,65.7212714 25.4246575,65.7212714 C24.6063927,65.7212714 23.9342466,65.0464548 23.9342466,64.2249389 L23.9342466,55.6577017 C23.9342466,54.8361858 24.6063927,54.1613692 25.4246575,54.1613692 C26.2429224,54.1613692 26.9150685,54.8361858 26.9150685,55.6577017 L26.9150685,64.2249389 Z" id="Shape" fill="#2C2F23"></path>
                <path d="M4.47123288,106.533007 C4.47123288,88.9290954 19.7260274,85.6723716 19.7260274,59.9413203 C19.7260274,34.2102689 4.47123288,31.1002445 4.47123288,13.3496333 L4.47123288,106.533007 Z" id="Shape" fill="#EFD291"></path>
                <path d="M2.27945205,0 C1.05205479,0 0.0876712329,0.997555012 0.0876712329,2.22982885 L0.0876712329,117.623472 C0.0876712329,118.855746 1.08127854,119.853301 2.27945205,119.853301 C3.50684932,119.853301 4.50045662,118.855746 4.50045662,117.623472 L4.50045662,2.22982885 C4.47123288,0.997555012 3.50684932,0 2.27945205,0 Z" id="Shape" fill="#DCAC53"></path>
            </g>
            <g>
                <rect id="Rectangle-path" fill="#DCAC53" x="5.75707763" y="58.1515892" width="3.50684932" height="3.5207824"></rect>
                <path d="M3.09771689,51.8141809 L2.89315068,51.8141809 C1.43196347,51.8141809 0.233789954,53.0171149 0.233789954,54.4841076 L0.233789954,65.3398533 C0.233789954,66.806846 1.43196347,68.00978 2.89315068,68.00978 L3.09771689,68.00978 C4.55890411,68.00978 5.75707763,66.806846 5.75707763,65.3398533 L5.75707763,54.4841076 C5.75707763,53.0171149 4.55890411,51.8141809 3.09771689,51.8141809 Z M4.47123288,64.2249389 C4.47123288,65.0464548 3.79908676,65.7212714 2.98082192,65.7212714 C2.16255708,65.7212714 1.49041096,65.0464548 1.49041096,64.2249389 L1.49041096,55.6577017 C1.49041096,54.8361858 2.16255708,54.1613692 2.98082192,54.1613692 C3.79908676,54.1613692 4.47123288,54.8361858 4.47123288,55.6577017 L4.47123288,64.2249389 Z" id="Shape" fill="#2C2F23"></path>
                <path d="M23.9342466,106.533007 L23.9342466,13.3202934 C23.9342466,31.0709046 8.67945205,34.1809291 8.67945205,59.9119804 C8.67945205,85.6723716 23.9342466,88.9290954 23.9342466,106.533007 Z" id="Shape" fill="#EFD291"></path>
                <path d="M26.1260274,0 C24.8986301,0 23.9050228,0.997555012 23.9050228,2.22982885 L23.9050228,117.623472 C23.9050228,118.855746 24.8986301,119.853301 26.1260274,119.853301 C27.3534247,119.853301 28.3178082,118.855746 28.3178082,117.623472 L28.3178082,2.22982885 C28.347032,0.997555012 27.3534247,0 26.1260274,0 Z" id="Shape" fill="#DCAC53"></path>
            </g>
        </g>
    </g>
</svg>