<?xml version="1.0" encoding="UTF-8"?>
<svg width="120px" height="120px" viewBox="0 0 120 120" version="1.1" xmlns="http://www.w3.org/2000/svg" xmlns:xlink="http://www.w3.org/1999/xlink">
    <!-- Generator: Sketch 51.1 (57501) - http://www.bohemiancoding.com/sketch -->
    <title>Sugar1</title>
    <desc>Created with Sketch.</desc>
    <defs></defs>
    <g id="Sugar1" stroke="none" stroke-width="1" fill="none" fill-rule="evenodd">
        <g id="Page-1" transform="translate(60.060000, 60.000000) scale(-1, 1) translate(-60.060000, -60.000000) translate(25.560000, 6.240000)">
            <path d="M0.026976,107.412024 L45.433536,0.027024" id="Stroke-1" stroke="#603813" stroke-width="1.974" stroke-linecap="round" stroke-linejoin="round"></path>
            <path d="M24.869556,70.838748 L24.866436,70.841988 C24.867396,70.840908 24.868476,70.839828 24.869556,70.838748 M24.450276,70.910988 C24.450876,70.911228 24.451476,70.911588 24.452076,70.911828 C24.451476,70.911588 24.450876,70.911228 24.450276,70.910988 M44.965476,74.576028 C44.990556,74.594508 45.014196,74.615028 45.036276,74.637588 L51.642036,81.363828 C52.657836,82.398468 54.334596,82.421628 55.379556,81.415428 C55.524636,81.275628 55.731036,81.219108 55.927116,81.265788 C56.560236,81.416028 57.005796,81.077028 57.212916,80.709828 C57.414876,80.352108 57.473436,79.809948 57.032556,79.360908 L53.089116,75.345588 C52.629156,74.877228 52.408956,74.235948 52.484916,73.586148 C52.561116,72.934548 52.924716,72.359508 53.482476,72.008508 L53.519076,71.985468 C54.386196,71.439708 55.536276,71.573388 56.253276,72.303468 L58.719876,74.814948 C59.736036,75.849588 61.412676,75.872508 62.457396,74.866548 C62.602476,74.726748 62.808996,74.670228 63.005076,74.716908 C63.636756,74.866908 64.083396,74.528268 64.290756,74.160948 C64.492596,73.803228 64.551396,73.261068 64.110396,72.812028 L64.110276,72.812028 L57.131796,65.705988 C56.884476,65.454228 56.702796,65.141868 56.592036,64.777668 C55.876716,62.422188 53.807556,59.954748 50.766156,57.829548 C47.569236,55.595988 43.532436,53.857548 39.092316,52.802388 C36.610716,52.212708 33.461556,52.039908 29.731356,52.288548 C23.290476,52.718148 17.271276,55.534668 12.782436,60.219348 L6.938556,66.318348 C6.454716,66.823308 6.198276,67.484148 6.216636,68.179308 C6.234876,68.875068 6.526116,69.522468 7.036596,70.001988 C8.093676,70.995348 9.770076,70.951908 10.773156,69.905028 L15.421716,65.053668 C15.850956,64.605708 16.455756,64.359948 17.076516,64.376868 C17.698596,64.394748 18.286236,64.675428 18.688596,65.146788 L18.709836,65.171508 C19.429116,66.014268 19.393236,67.253268 18.626556,68.053548 L12.891156,74.039268 C12.506076,74.441148 12.369636,74.997828 12.526236,75.528708 C12.684756,76.066428 13.108956,76.465908 13.660836,76.597068 C15.449196,77.021988 18.029436,76.265508 19.294716,74.944788 L24.012636,70.021068 C24.129276,69.898428 24.288516,69.833628 24.450276,69.832908 C24.530196,69.806268 24.649356,69.778068 24.786156,69.795828 C28.116636,69.625428 31.760196,69.982668 35.328516,70.830588 C38.715996,71.635548 41.854116,72.818028 44.656956,74.345508 C44.758956,74.382828 44.866356,74.452788 44.965476,74.576028 M53.537316,83.338068 C52.540716,83.338068 51.545076,82.955508 50.796996,82.193748 L44.265156,75.542628 C44.207196,75.504948 44.149476,75.454428 44.094276,75.387708 C41.419116,73.929828 38.295036,72.752868 35.054796,71.982948 C31.565556,71.153748 28.008036,70.808148 24.766596,70.982868 C24.762516,70.983108 24.758676,70.983228 24.754716,70.983348 C24.744036,70.987068 24.732516,70.990788 24.720396,70.994388 L20.149956,75.764268 C18.604116,77.377668 15.570516,78.268068 13.386996,77.749308 C12.416916,77.518788 11.670396,76.813788 11.390196,75.863628 C11.112036,74.920428 11.353476,73.932108 12.035916,73.219908 L17.771316,67.234188 C18.115596,66.874788 18.131916,66.318708 17.808996,65.940588 L17.787876,65.915868 C17.599596,65.695308 17.334876,65.569188 17.042436,65.560908 C16.752156,65.552628 16.477836,65.663268 16.276956,65.873028 L11.628396,70.724388 C10.177836,72.238188 7.754076,72.301428 6.225636,70.865268 C5.482836,70.167468 5.059236,69.224628 5.032596,68.210508 C5.005956,67.196868 5.379156,66.233868 6.083316,65.498868 L11.927196,59.399988 C16.621116,54.501228 22.916076,51.556068 29.652516,51.106788 C33.500316,50.849988 36.768756,51.032868 39.366156,51.650028 C48.698436,53.867748 56.076516,59.004948 57.725316,64.433268 C57.779916,64.612788 57.864516,64.761828 57.976716,64.875948 L64.955316,71.982108 C65.697996,72.738348 65.841996,73.822188 65.322036,74.743188 C64.849236,75.581268 63.980796,76.023828 63.049116,75.923868 C61.531716,77.167428 59.271516,77.066988 57.874836,75.644868 L55.408236,73.133388 C55.078716,72.797628 54.549156,72.736668 54.149556,72.988068 L54.112956,73.011108 C53.860476,73.170108 53.695716,73.429908 53.661396,73.723548 C53.627076,74.015628 53.726676,74.304348 53.934276,74.515668 L57.877476,78.530988 C58.620276,79.287228 58.764276,80.371068 58.244316,81.292068 C57.771276,82.130268 56.901516,82.572468 55.971396,82.472748 C55.266636,83.050308 54.401556,83.337948 53.537316,83.338068" id="Fill-3" fill="#F7931E"></path>
            <path d="M36.90834,68.146476 C36.61146,67.643916 36.77322,66.978636 37.26894,66.663636 L39.60306,65.180316 C39.92658,64.974756 40.16658,64.681716 40.31238,64.350396 C40.35462,64.520196 40.42062,64.686396 40.51314,64.843116 L41.76234,66.958476 C42.05922,67.461156 41.89746,68.126316 41.40174,68.441316 L39.06774,69.924516 C38.76858,70.114596 38.54214,70.380036 38.39418,70.680876 C38.3685,70.625316 38.34006,70.570716 38.30838,70.517076 L36.90834,68.146476 Z M36.4989,65.696676 L35.2497,63.581436 C34.95282,63.078756 35.11458,62.413476 35.6103,62.098476 L37.6929,60.774996 C37.8453,60.678276 37.97826,60.561516 38.09262,60.431196 C38.13486,60.598116 38.19978,60.761436 38.29086,60.915756 L39.54018,63.030996 C39.83694,63.533676 39.6753,64.198956 39.17958,64.513956 L36.84546,65.997156 C36.7869,66.034356 36.7317,66.074916 36.67866,66.117636 C36.63642,65.972916 36.57834,65.831196 36.4989,65.696676 Z M35.45838,67.581036 L33.8817,68.583036 C33.86502,68.295756 33.78378,68.009676 33.62982,67.748916 L32.22978,65.378316 C31.9329,64.875756 32.09466,64.210476 32.59038,63.895476 L34.33062,62.789556 C34.27794,63.192396 34.35126,63.612996 34.56978,63.982836 L35.81898,66.098196 C36.11586,66.600756 35.9541,67.266036 35.45838,67.581036 Z M31.82034,62.928516 L30.57102,60.813276 C30.27426,60.310476 30.4359,59.645316 30.93162,59.330316 L33.01434,58.006836 C33.16662,57.909996 33.2997,57.793356 33.41406,57.663036 C33.45618,57.829956 33.5211,57.993276 33.6123,58.147596 L34.8615,60.262836 C35.15838,60.765516 34.99662,61.430796 34.5009,61.745796 L32.16678,63.228996 C32.10834,63.266196 32.05314,63.306756 32.00022,63.349356 C31.95798,63.204636 31.89978,63.063036 31.82034,62.928516 Z M30.77982,64.812876 L28.4457,66.296196 C28.21386,66.443436 28.0263,66.636396 27.8841,66.855396 L26.53926,64.578156 C26.24238,64.075476 26.40414,63.410316 26.89986,63.095316 L29.23398,61.611996 C29.4693,61.462476 29.6589,61.265796 29.80182,61.042836 C29.82846,61.101156 29.85798,61.158516 29.8911,61.214676 L31.14042,63.330036 C31.43718,63.832596 31.27554,64.497876 30.77982,64.812876 Z M26.89878,68.833116 L24.39438,70.424556 C24.35238,70.284156 24.29538,70.146636 24.2181,70.015956 L22.81806,67.645236 C22.52118,67.142676 22.68294,66.477396 23.17878,66.162396 L25.51278,64.679076 C25.57122,64.641996 25.62642,64.601316 25.67958,64.558836 C25.72158,64.703436 25.7799,64.845156 25.85934,64.979676 L27.25938,67.350276 C27.55614,67.852956 27.3945,68.518236 26.89878,68.833116 Z M23.02086,71.765316 C23.05974,71.826396 23.11278,71.872476 23.17266,71.903436 L20.22378,73.777356 C20.20398,73.737276 20.1843,73.697196 20.16126,73.658196 L18.76122,71.287476 C18.46446,70.784796 18.6261,70.119636 19.12182,69.804636 L21.45594,68.321436 C21.68298,68.177076 21.86766,67.989036 22.00902,67.775676 C22.04478,67.868076 22.0863,67.959036 22.13814,68.046756 L23.53818,70.417356 C23.62326,70.561356 23.66946,70.718796 23.68206,70.877316 L23.1423,71.220276 C22.95834,71.337276 22.90398,71.581236 23.02086,71.765316 Z M19.12086,75.542556 L16.61634,77.133996 C16.57446,76.993596 16.51734,76.856076 16.44018,76.725276 L15.04014,74.354676 C14.99646,74.280876 14.96406,74.203356 14.93982,74.124036 C15.0735,73.823556 15.12738,73.490916 15.09618,73.162116 C15.17598,73.049076 15.2781,72.949716 15.40074,72.871716 L17.73486,71.388516 C17.7933,71.351316 17.8485,71.310756 17.90142,71.268156 C17.94366,71.412756 18.00186,71.554476 18.0813,71.688996 L19.48134,74.059596 C19.50918,74.106636 19.5315,74.155356 19.5513,74.204676 L19.4211,74.287476 C19.23714,74.404356 19.18278,74.648436 19.29978,74.832396 C19.35978,74.926956 19.45362,74.985396 19.55538,75.005916 C19.47354,75.220476 19.32642,75.411876 19.12086,75.542556 Z M20.82378,63.655236 C20.5269,63.152556 20.68866,62.487396 21.18438,62.172396 L23.26698,60.848916 C23.61486,60.627876 23.8647,60.305436 24.00618,59.943276 C24.04854,60.105636 24.1119,60.264396 24.2007,60.414516 L25.4499,62.529756 C25.74666,63.032556 25.58502,63.697716 25.0893,64.012716 L22.7553,65.495916 C22.52814,65.640276 22.34346,65.828316 22.2021,66.041676 C22.16634,65.949156 22.12482,65.858196 22.07298,65.770596 L20.82378,63.655236 Z M20.36106,61.849836 C20.31894,61.682796 20.2539,61.519476 20.16282,61.365156 L18.76278,58.994556 C18.71922,58.920756 18.68658,58.843236 18.66246,58.763916 C18.79614,58.463436 18.85014,58.130796 18.81894,57.802116 C18.89874,57.689076 19.00086,57.589596 19.12338,57.511716 L21.4575,56.028396 C21.51594,55.991196 21.57114,55.950636 21.62418,55.908036 C21.6663,56.052756 21.72462,56.194356 21.80406,56.328996 L23.2041,58.699596 C23.50086,59.202156 23.33922,59.867436 22.8435,60.182436 L20.7609,61.505916 C20.6085,61.602756 20.47554,61.719396 20.36106,61.849836 Z M19.1223,63.249516 L17.0397,64.573116 C16.97634,64.613316 16.91742,64.657716 16.86066,64.704156 C16.8315,64.637796 16.79946,64.572156 16.76178,64.508436 L15.51258,62.393196 C15.21582,61.890516 15.37746,61.225236 15.8733,60.910236 L17.9559,59.586756 C18.01482,59.549196 18.07038,59.508276 18.12378,59.465316 L19.4829,61.766676 C19.77978,62.269356 19.61802,62.934516 19.1223,63.249516 Z M15.72126,66.392796 L13.38726,67.876116 C13.32882,67.913316 13.27362,67.953876 13.2207,67.996476 C13.17846,67.851756 13.12026,67.710036 13.04082,67.575516 L11.7915,65.460276 C11.49474,64.957596 11.65638,64.292316 12.1521,63.977436 L14.23482,62.653956 C14.38698,62.557116 14.52018,62.440476 14.63442,62.310156 C14.67654,62.477076 14.74158,62.640396 14.83266,62.794596 L16.08186,64.909956 C16.37886,65.412636 16.21698,66.077796 15.72126,66.392796 Z M12.0003,69.459876 L9.66606,70.943196 C9.54978,71.017116 9.44526,71.103156 9.35094,71.197356 C9.33054,71.155836 9.31014,71.114196 9.28614,71.073876 L7.8861,68.703156 C7.58934,68.200476 7.7511,67.535196 8.24682,67.220316 L10.58094,65.736996 C10.71282,65.653236 10.82922,65.553516 10.93266,65.443956 C10.9749,65.587596 11.03274,65.728236 11.11158,65.861676 L12.3609,67.977036 C12.65766,68.479716 12.4959,69.144876 12.0003,69.459876 Z M22.84458,54.444516 L25.17858,52.961316 C25.40574,52.816956 25.59042,52.629036 25.73166,52.415556 C25.76754,52.508076 25.80906,52.599036 25.8609,52.686636 L27.26094,55.057356 C27.5577,55.560036 27.39594,56.225316 26.90034,56.540196 L24.81762,57.863796 C24.46986,58.084716 24.2199,58.407156 24.07842,58.769316 C24.03594,58.606956 23.9727,58.448196 23.88402,58.298076 L22.48398,55.927476 C22.1871,55.424796 22.34886,54.759516 22.84458,54.444516 Z M27.72354,56.862876 C27.76578,57.029796 27.83082,57.193116 27.92178,57.347436 L29.17098,59.462796 C29.46786,59.965356 29.3061,60.630516 28.8105,60.945516 L26.47626,62.428836 C26.41782,62.466036 26.36262,62.506596 26.3097,62.549196 C26.26746,62.404476 26.20926,62.262876 26.12982,62.128356 L24.88062,60.012996 C24.58374,59.510436 24.7455,58.845156 25.2411,58.530156 L27.32382,57.206676 C27.4761,57.109836 27.60918,56.993196 27.72354,56.862876 Z M28.9623,55.463076 L31.04502,54.139476 C31.27674,53.992236 31.4643,53.799276 31.6065,53.580396 L32.95134,55.857516 C33.24822,56.360196 33.08646,57.025476 32.59086,57.340356 L30.50814,58.663956 C30.27282,58.813476 30.08322,59.010036 29.9403,59.233116 C29.91366,59.174796 29.88414,59.117436 29.8509,59.061276 L28.6017,56.945916 C28.30494,56.443236 28.46658,55.777956 28.9623,55.463076 Z M34.65282,56.263236 L35.97798,55.421076 C35.99478,55.708356 36.0759,55.994316 36.22998,56.255076 L37.63002,58.625796 C37.92678,59.128356 37.76514,59.793636 37.26942,60.108636 L35.78058,61.054716 C35.83326,60.651876 35.75994,60.231276 35.54142,59.861436 L34.29222,57.746076 C33.99546,57.243396 34.1571,56.578236 34.65282,56.263236 Z M36.85722,54.853476 C37.04826,54.709236 37.20498,54.532716 37.32522,54.335916 L39.60462,52.887396 C39.66306,52.850196 39.71826,52.809636 39.77118,52.767036 C39.81342,52.911756 39.87162,53.053356 39.95106,53.187876 L41.3511,55.558596 C41.64798,56.061276 41.48622,56.726436 40.99062,57.041436 L38.9079,58.364916 C38.75562,58.461756 38.62254,58.578516 38.50818,58.708836 C38.46594,58.541796 38.40102,58.378476 38.30994,58.224156 L36.9099,55.853556 C36.72582,55.541916 36.71838,55.167876 36.85722,54.853476 Z M42.08754,56.951676 C42.11322,57.007116 42.14166,57.061836 42.17334,57.115356 L43.57338,59.485956 C43.87026,59.988636 43.7085,60.653916 43.21278,60.968916 L41.13018,62.292396 C40.80654,62.497956 40.56666,62.790876 40.42086,63.122316 C40.37862,62.952516 40.31262,62.786316 40.2201,62.629476 L38.97078,60.514236 C38.67402,60.011556 38.83578,59.346396 39.33138,59.031396 L41.4141,57.707916 C41.71314,57.517836 41.93958,57.252396 42.08754,56.951676 Z M44.03586,61.291476 C44.07822,61.458396 44.14326,61.621716 44.23434,61.776036 L45.48354,63.891276 C45.52626,63.963636 45.55842,64.039476 45.58242,64.116996 C45.41934,64.434636 45.34686,64.793796 45.3759,65.150196 C45.3051,65.235756 45.22086,65.311956 45.12294,65.374116 L42.78882,66.857436 C42.73038,66.894636 42.67518,66.935196 42.62214,66.977796 C42.58002,66.833196 42.5217,66.691476 42.44226,66.556956 L41.19306,64.441596 C40.89618,63.939036 41.05794,63.273876 41.55366,62.958756 L43.63626,61.635276 C43.78866,61.538556 43.92162,61.421796 44.03586,61.291476 Z M45.27486,59.891676 L47.35746,58.568196 C47.4975,58.479156 47.62038,58.372596 47.72838,58.254876 C47.77074,58.405116 47.8305,58.552236 47.91282,58.691796 L48.93582,60.424116 C49.2327,60.926676 49.07094,61.591836 48.57522,61.906836 L46.2411,63.390156 C46.20762,63.411516 46.17654,63.435276 46.14498,63.458436 L44.91426,61.374516 C44.61738,60.871836 44.77914,60.206556 45.27486,59.891676 Z M49.34538,62.873916 L50.74542,65.244516 C51.04218,65.747196 50.88042,66.412356 50.3847,66.727356 L48.30198,68.050956 C48.14982,68.147676 48.01674,68.264316 47.90238,68.394636 C47.86026,68.227716 47.79534,68.064396 47.70414,67.910196 L46.3041,65.539476 C46.26126,65.467236 46.22922,65.391276 46.20522,65.313756 C46.3683,64.996116 46.44078,64.636956 46.41162,64.280556 C46.48254,64.194996 46.56678,64.118796 46.6647,64.056636 L48.9987,62.573316 C49.05714,62.536116 49.11246,62.495556 49.1655,62.452956 C49.20762,62.597676 49.26582,62.739276 49.34538,62.873916 Z M50.3859,60.989436 L52.7199,59.506236 C52.92078,59.378556 53.08842,59.216436 53.22258,59.033196 C53.2161,59.368956 53.2965,59.708796 53.47674,60.013956 L54.49986,61.746396 C54.79662,62.248956 54.63498,62.914116 54.13926,63.229116 L51.80514,64.712436 C51.68886,64.786356 51.58434,64.872276 51.49002,64.966476 C51.46962,64.924956 51.44922,64.883436 51.42534,64.842996 L50.0253,62.472396 C49.72842,61.969716 49.89018,61.304436 50.3859,60.989436 Z M54.9093,64.196076 L56.30934,66.566676 C56.6061,67.069356 56.44446,67.734636 55.94874,68.049636 L53.86602,69.373116 C53.71374,69.469836 53.58078,69.586596 53.4663,69.716916 C53.42418,69.549996 53.35914,69.386676 53.26806,69.232356 L51.86802,66.861756 C51.57114,66.359076 51.7329,65.693916 52.22862,65.378916 L54.56274,63.895596 C54.62118,63.858396 54.67638,63.817836 54.72942,63.775236 C54.77154,63.919836 54.82986,64.061556 54.9093,64.196076 Z M52.22754,71.116716 L50.14494,72.440196 C50.01294,72.523956 49.89666,72.623796 49.7931,72.733236 C49.75086,72.589596 49.69302,72.448956 49.61418,72.315516 L48.36498,70.200156 C48.0681,69.697596 48.22986,69.032316 48.72558,68.717316 L50.80818,67.393836 C50.92458,67.319916 51.02898,67.233876 51.12342,67.139676 C51.14382,67.181196 51.16422,67.222836 51.1881,67.263276 L52.58814,69.633876 C52.88514,70.136556 52.72326,70.801716 52.22754,71.116716 Z M48.57366,74.199876 L46.23966,75.683076 C46.1811,75.720276 46.1259,75.760836 46.07286,75.803556 C46.03074,75.658836 45.97254,75.517116 45.8931,75.382596 L44.6439,73.267356 C44.34702,72.764556 44.50878,72.099396 45.0045,71.784396 L47.0871,70.460916 C47.23938,70.364076 47.37246,70.247436 47.4867,70.117116 C47.52906,70.284036 47.59398,70.447476 47.68506,70.601676 L48.93426,72.716916 C49.23102,73.219596 49.06938,73.884876 48.57366,74.199876 Z M44.25174,71.377356 L42.8517,69.006756 C42.55494,68.504076 42.71658,67.838916 43.2123,67.523916 L45.54642,66.040596 C45.58002,66.019236 45.61098,65.995476 45.64266,65.972436 L47.02422,68.311596 C47.32098,68.814276 47.15934,69.479436 46.66362,69.794436 L44.5809,71.118036 C44.46006,71.194836 44.35206,71.284956 44.2551,71.383596 C44.2539,71.381556 44.25294,71.379396 44.25174,71.377356 Z M59.85354,71.361756 L61.93614,70.038276 C61.99518,70.000836 62.05074,69.959796 62.10414,69.916836 L63.46314,72.218196 C63.76002,72.720876 63.59826,73.386156 63.10254,73.701156 L61.01994,75.024636 C60.9567,75.064716 60.89778,75.109116 60.84102,75.155676 C60.81174,75.089196 60.77982,75.023676 60.74214,74.959956 L59.49294,72.844596 C59.19606,72.341916 59.35782,71.676756 59.85354,71.361756 Z M52.22706,77.671716 L54.56106,76.188516 C54.69306,76.104636 54.80946,76.004916 54.9129,75.895476 C54.95514,76.038996 55.01298,76.179636 55.09182,76.313316 L56.34102,78.428676 C56.6379,78.931236 56.47614,79.596516 55.98054,79.911396 L53.64642,81.394716 C53.53014,81.468636 53.42574,81.554556 53.33118,81.648876 C53.31078,81.607356 53.2905,81.565716 53.2665,81.525276 L51.86646,79.154676 C51.5697,78.651996 51.73134,77.986716 52.22706,77.671716 Z M37.26786,72.401436 L37.07826,72.522036 C37.3911,72.614076 37.70274,72.709236 38.01174,72.808716 C38.15706,72.661596 38.27562,72.493356 38.3649,72.311676 C38.39058,72.367236 38.41902,72.421836 38.4507,72.475356 L38.80398,73.073796 C39.1977,73.209756 39.58722,73.351716 39.97218,73.498956 L39.13062,72.073956 C38.83374,71.571276 38.99562,70.905996 39.49122,70.590996 L41.82534,69.107796 C41.88378,69.070596 41.93898,69.029916 41.99202,68.987436 C42.03414,69.132036 42.09234,69.273756 42.17178,69.408276 L43.57182,71.778876 C43.8687,72.281556 43.70694,72.946836 43.21122,73.261716 L41.70978,74.215956 C41.99814,74.343876 42.28386,74.474076 42.5649,74.608116 L43.63482,73.928196 C43.75578,73.851396 43.86366,73.761276 43.96074,73.662636 C43.96182,73.664676 43.96278,73.666836 43.96398,73.668876 L45.21318,75.784116 C45.36606,76.043076 45.39642,76.344756 45.3231,76.619916 L46.1739,77.486196 C46.09326,77.056596 46.27542,76.596036 46.66314,76.349556 L48.99714,74.866356 C49.12914,74.782476 49.24542,74.682756 49.34898,74.573316 C49.3911,74.716836 49.44906,74.857476 49.5279,74.991036 L50.7771,77.106396 C51.07398,77.608956 50.91222,78.274116 50.4165,78.589116 L48.47106,79.825476 L49.03686,80.401476 L50.8401,79.255596 C50.89854,79.218516 50.95374,79.177836 51.00666,79.135236 C51.0489,79.279956 51.1071,79.421556 51.18654,79.556196 L52.58658,81.926796 C52.82574,82.331556 52.76682,82.841676 52.47606,83.189436 C52.82214,83.287956 53.17962,83.338116 53.53734,83.337996 C53.56326,83.337996 53.58918,83.335236 53.6151,83.334756 C53.46222,82.869516 53.64066,82.333956 54.07002,82.061196 L56.40402,80.577876 C56.46246,80.540676 56.51766,80.500116 56.57082,80.457516 C56.61294,80.602116 56.67102,80.743836 56.75058,80.878356 L57.48078,82.114716 C57.70302,81.968916 57.90234,81.782676 58.0695,81.558876 L57.4305,80.476836 C57.13362,79.974276 57.29538,79.308996 57.79098,78.993996 L58.10238,78.796116 C58.03458,78.704316 57.96042,78.615276 57.8775,78.531036 L57.55854,78.206196 L57.3675,78.327516 C57.30906,78.364716 57.25386,78.405276 57.20082,78.447996 C57.1587,78.303276 57.1005,78.161556 57.02094,78.027036 L56.47542,77.103276 L54.51654,75.108636 C54.43014,75.272556 54.30294,75.417036 54.13758,75.522036 L51.80358,77.005356 C51.74514,77.042556 51.68994,77.083116 51.6369,77.125716 C51.59478,76.980996 51.53646,76.839276 51.45702,76.704876 L50.20782,74.589516 C49.91094,74.086836 50.0727,73.421556 50.56842,73.106676 L52.65102,71.783196 C52.80342,71.686356 52.93638,71.569596 53.05074,71.439276 C53.09298,71.606316 53.15802,71.769636 53.2491,71.923956 L53.96118,73.129836 C54.00762,73.086156 54.05778,73.045836 54.11298,73.011036 L54.14958,72.988116 C54.31938,72.881316 54.51246,72.831396 54.70386,72.834396 L53.92902,71.522436 C53.63214,71.019756 53.7939,70.354476 54.28962,70.039476 L56.37222,68.716116 C56.4885,68.642196 56.59302,68.556156 56.68734,68.461956 C56.70774,68.503476 56.72814,68.544996 56.75202,68.585436 L58.15206,70.956156 C58.44894,71.458836 58.28718,72.123996 57.79146,72.438996 L55.90422,73.638396 L56.47002,74.214396 L58.21506,73.105356 C58.36734,73.008636 58.50042,72.891876 58.61478,72.761556 C58.6569,72.928596 58.72182,73.091796 58.81302,73.246116 L60.06222,75.361476 C60.32334,75.803436 60.2295,76.370916 59.8659,76.715676 C60.2211,76.785396 60.58446,76.805556 60.94434,76.775076 C60.88758,76.360956 61.07142,75.927396 61.44342,75.690996 L63.52602,74.367516 C63.67842,74.270796 63.81138,74.154036 63.92586,74.023716 C63.96798,74.190636 64.03302,74.353956 64.1241,74.508276 L64.69266,75.471036 C64.90686,75.307116 65.09562,75.102876 65.2497,74.861556 L64.80402,74.106756 C64.50714,73.604076 64.6689,72.938916 65.16462,72.623916 L65.34714,72.507876 C65.24382,72.321036 65.1141,72.143796 64.95534,71.982036 L64.85802,71.883156 L64.74102,71.957436 C64.58874,72.054276 64.45578,72.171036 64.34142,72.301356 C64.29918,72.134316 64.23414,71.970996 64.14306,71.816676 L63.1629,70.156956 L61.81314,68.782596 C61.80714,68.881836 61.80786,68.981676 61.81722,69.081396 C61.7373,69.194436 61.63542,69.293916 61.51266,69.371796 L59.43006,70.695276 C59.27766,70.792116 59.1447,70.908876 59.03034,71.039196 C58.9881,70.872156 58.92318,70.708956 58.83198,70.554636 L57.43194,68.183916 C57.13518,67.681356 57.29682,67.016076 57.79266,66.701076 L59.00958,65.927796 L58.4439,65.351676 L57.36918,66.034596 C57.25278,66.108636 57.14826,66.194556 57.05406,66.288756 C57.03354,66.247236 57.01314,66.205716 56.98926,66.165276 L55.58922,63.794556 C55.29234,63.291876 55.4541,62.626716 55.94982,62.311716 L56.55246,61.928676 C56.41362,61.709436 56.26518,61.491636 56.10882,61.275036 L55.52622,61.645236 C55.46778,61.682436 55.41258,61.722996 55.35954,61.765596 C55.31742,61.620996 55.25922,61.479276 55.17978,61.344756 L54.15666,59.612556 C54.03066,59.399076 53.98806,59.156436 54.01782,58.923636 C53.63634,58.565316 53.2317,58.213476 52.80462,57.869196 C52.81674,58.247196 52.63446,58.624956 52.2963,58.839756 L49.9623,60.323076 C49.90386,60.360156 49.84866,60.400836 49.79574,60.443436 C49.7535,60.298836 49.6953,60.157116 49.61586,60.022596 L48.59274,58.290276 C48.29586,57.787596 48.45762,57.122436 48.95334,56.807436 L50.1867,56.023596 C49.93878,55.869996 49.6857,55.718916 49.42842,55.569876 L48.52986,56.140956 C48.38982,56.229996 48.26694,56.336556 48.15894,56.454276 C48.11658,56.303916 48.05682,56.156796 47.9745,56.017356 L46.94454,54.273396 C46.55406,54.089796 46.1559,53.911716 45.7509,53.739156 C45.78858,53.844996 45.83574,53.948556 45.89454,54.048276 L47.29458,56.418876 C47.59134,56.921436 47.4297,57.586716 46.93398,57.901716 L44.85126,59.225196 C44.69898,59.322036 44.5659,59.438796 44.45166,59.568996 C44.40942,59.402076 44.34438,59.238756 44.2533,59.084436 L42.85326,56.713836 C42.55638,56.211276 42.71814,55.545996 43.21386,55.230996 L45.54798,53.747676 C45.57702,53.729196 45.60318,53.707956 45.63078,53.687916 C45.33738,53.564196 45.0405,53.443356 44.74002,53.325516 L42.79038,54.564516 C42.49122,54.754596 42.2649,55.020036 42.11682,55.320756 C42.09114,55.265196 42.0627,55.210596 42.03102,55.157076 L40.63098,52.786476 C40.47666,52.525116 40.44726,52.220196 40.52334,51.943116 C40.21986,51.861756 39.9141,51.783516 39.60606,51.708516 C39.52254,51.913236 39.37902,52.095156 39.18102,52.221036 L37.60446,53.222916 C37.58766,52.935636 37.50642,52.649556 37.35246,52.388916 L36.64386,51.189036 C36.32718,51.153876 36.00354,51.123396 35.67282,51.097716 L36.67254,52.790436 C36.85662,53.102076 36.86406,53.476116 36.72522,53.790516 C36.53418,53.934756 36.37758,54.111276 36.25734,54.308076 L34.22934,55.596756 C34.07694,55.693596 33.94398,55.810236 33.82962,55.940676 C33.78738,55.773636 33.72246,55.610316 33.63126,55.456116 L32.23122,53.085396 C31.93446,52.582716 32.0961,51.917556 32.59182,51.602556 L33.53922,51.000516 C33.06306,50.992836 32.57478,50.993676 32.07534,51.002916 C31.8867,51.140196 31.72914,51.307116 31.60674,51.495276 L31.32762,51.022596 C31.0329,51.032796 30.73542,51.044916 30.43302,51.060636 L30.98202,51.990276 C31.2789,52.492836 31.11714,53.158116 30.62142,53.473116 L28.53882,54.796596 C28.38642,54.893436 28.25346,55.010076 28.1391,55.140396 C28.09686,54.973476 28.03182,54.810156 27.94086,54.655836 L26.54082,52.285236 C26.40102,52.048716 26.36406,51.776316 26.41458,51.521196 C25.99998,51.599796 25.5879,51.688116 25.1787,51.785796 C25.09494,51.989196 24.95178,52.169796 24.7551,52.294836 L22.42098,53.778156 C22.36254,53.815236 22.30734,53.855916 22.2543,53.898516 C22.21206,53.753796 22.15398,53.612076 22.07454,53.477556 L21.71226,52.864236 C21.4641,52.960356 21.21786,53.061396 20.9727,53.164716 L21.39462,53.879076 C21.69138,54.381756 21.52974,55.046916 21.03402,55.361916 L18.6999,56.845236 C18.64086,56.882796 18.58542,56.923716 18.5319,56.966676 L17.3763,55.009716 C17.15178,55.147116 16.92906,55.287516 16.70838,55.431636 L17.89302,57.437436 C17.93658,57.511236 17.96922,57.588876 17.99334,57.667956 C17.85966,57.968556 17.80578,58.301196 17.83686,58.629876 C17.75706,58.742916 17.65506,58.842396 17.5323,58.920276 L15.44982,60.243876 C15.29742,60.340596 15.16446,60.457356 15.0501,60.587676 C15.00786,60.420636 14.94294,60.257316 14.85174,60.103116 L13.52802,57.861636 C13.32714,58.039836 13.1283,58.220916 12.93222,58.405596 L14.17182,60.504516 C14.4687,61.007196 14.30694,61.672476 13.81122,61.987476 L11.72862,63.310956 C11.59662,63.394716 11.48034,63.494436 11.37678,63.603996 C11.33466,63.460356 11.2767,63.319716 11.19786,63.186276 L10.09254,61.314636 L9.5253,61.906716 L10.51794,63.587796 C10.81482,64.090356 10.65306,64.755636 10.15734,65.070516 L7.82334,66.553836 C7.76478,66.591036 7.70958,66.631596 7.65654,66.674196 C7.61442,66.529596 7.5561,66.387876 7.47666,66.253356 L6.66978,64.886916 L6.10242,65.478996 L6.79674,66.654756 C7.09362,67.157556 6.93186,67.822716 6.43614,68.137716 L5.12922,68.968356 C5.19054,69.233316 5.2809,69.489276 5.39742,69.733356 L6.85974,68.804076 C6.91818,68.766876 6.97338,68.726316 7.02642,68.683836 C7.06866,68.828436 7.12674,68.970156 7.20618,69.104676 L8.60622,71.475276 C8.68518,71.608716 8.73066,71.753676 8.7471,71.900316 C9.1377,71.911236 9.52926,71.862876 9.90714,71.756436 C9.96174,71.702076 10.02234,71.652396 10.08966,71.609556 L11.85546,70.487556 L16.27686,65.873076 C16.47786,65.663316 16.75218,65.552676 17.04246,65.560836 C17.07342,65.561676 17.10378,65.564676 17.13402,65.568156 C17.21718,65.439396 17.32698,65.325996 17.46318,65.239476 L19.5459,63.915996 C19.69818,63.819156 19.83114,63.702516 19.9455,63.572076 C19.98774,63.739116 20.05278,63.902436 20.14386,64.056756 L21.39306,66.172116 C21.68994,66.674676 21.52806,67.339956 21.03234,67.654956 L18.69834,69.138156 C18.6399,69.175356 18.5847,69.215916 18.53166,69.258516 C18.48954,69.113916 18.43122,68.972196 18.35178,68.837676 L17.54454,67.470756 L16.97718,68.062836 L17.67186,69.239076 C17.96874,69.741756 17.80698,70.407036 17.31126,70.722036 L14.97714,72.205356 C14.91822,72.242796 14.86266,72.283836 14.80938,72.326676 L14.0781,71.088636 L13.51074,71.680596 L14.17038,72.797556 C14.21394,72.871356 14.24634,72.948876 14.2707,73.028076 C14.1369,73.328676 14.08314,73.661196 14.11422,73.989876 C14.03442,74.103036 13.9323,74.202396 13.80978,74.280396 L11.38002,75.824316 C11.38362,75.837396 11.38626,75.850596 11.39022,75.863676 C11.46354,76.112436 11.56962,76.343916 11.70258,76.554996 L14.23326,74.946756 C14.29218,74.909316 14.34774,74.868396 14.40102,74.825436 L15.76026,77.126676 C15.84534,77.270676 15.89142,77.428116 15.90414,77.586636 L15.47778,77.857596 C16.3185,77.772396 17.17734,77.548836 17.9643,77.213076 L19.54434,76.208916 C20.10978,75.849516 20.41974,75.224076 20.4159,74.590956 L22.61082,73.196076 L24.72042,70.994436 C24.73254,70.990716 24.74406,70.986996 24.75474,70.983396 C24.7587,70.983276 24.76254,70.983036 24.7665,70.982796 C24.84546,70.978596 24.92538,70.976076 25.0047,70.972476 L27.32226,69.499596 C27.5541,69.352356 27.74154,69.159276 27.88386,68.940396 L29.12742,71.046156 C29.43522,71.070276 29.74446,71.099316 30.0543,71.131476 C30.01614,71.023476 29.96862,70.917756 29.90862,70.816116 L28.50858,68.445516 C28.2117,67.942836 28.37346,67.277556 28.86918,66.962556 L31.2033,65.479236 C31.26174,65.442156 31.31694,65.401476 31.3701,65.358996 C31.41222,65.503596 31.47042,65.645316 31.54986,65.779836 L32.9499,68.150436 C33.13398,68.462076 33.1413,68.836236 33.00246,69.150636 C32.81142,69.294756 32.65494,69.471396 32.5347,69.668076 L30.20646,71.147556 C30.61566,71.191716 31.02618,71.242716 31.43778,71.300676 L32.25534,70.781196 C32.26866,71.009196 32.32338,71.236356 32.42202,71.450796 C32.75994,71.507196 33.0981,71.569596 33.43602,71.635116 L33.18714,71.213676 C33.00306,70.901916 32.99574,70.527876 33.13458,70.213476 C33.32562,70.069236 33.4821,69.892716 33.60234,69.696036 L35.88186,68.247516 C35.94042,68.210316 35.99562,68.169636 36.04866,68.127036 C36.0909,68.271756 36.14898,68.413476 36.22842,68.547996 L37.62846,70.918596 C37.92534,71.421276 37.76358,72.086436 37.26786,72.401436 Z" id="Fill-5" fill="#F7931E"></path>
            <path d="M50.83128,28.594464 C56.73876,25.556304 60.45936,21.056304 59.1414,18.543384 C57.82344,16.030344 51.96576,16.456224 46.05828,19.494384 C40.15068,22.532544 36.43008,27.032544 37.74816,29.545584 C39.06612,32.058504 44.92368,31.632624 50.83128,28.594464" id="Fill-7" fill="#F7931E"></path>
            <path d="M51.681708,53.58558 C58.244388,54.68946 63.952908,53.32134 64.431828,50.52966 C64.910748,47.7381 59.978868,44.58006 53.415948,43.47606 C46.853148,42.37218 41.144628,43.74042 40.665708,46.53198 C40.186908,49.32366 45.118908,52.48158 51.681708,53.58558" id="Fill-9" fill="#F7931E"></path>
            <path d="M43.948032,41.444664 L43.949232,41.444664 L43.948032,41.444664 Z M25.965792,24.186144 C21.249672,24.186144 16.481352,25.537824 12.662712,27.990144 C8.279712,30.804984 5.706072,34.649664 5.416032,38.815704 C5.208912,41.792784 6.209232,44.571504 8.389512,47.074584 C12.028032,51.251904 18.693432,54.147504 25.784592,54.631464 C30.992832,54.986904 35.349432,53.933904 38.383272,51.586104 C41.332392,49.303944 43.052352,45.782784 43.357272,41.403504 C43.667472,36.945984 42.367512,32.802504 39.696792,29.736384 C36.867552,26.488224 32.691072,24.588264 27.619032,24.242184 C27.070032,24.204624 26.517912,24.186144 25.965792,24.186144 Z M27.742992,55.884144 C27.079392,55.884144 26.400072,55.860624 25.703952,55.813104 C18.310632,55.308504 11.333832,52.258224 7.496352,47.852544 C5.135832,45.142464 4.007952,41.989104 4.234632,38.733384 C4.551072,34.184904 7.316952,30.015624 12.022632,26.993664 C16.497912,24.119664 22.211112,22.685784 27.699672,23.060544 C33.092232,23.428584 37.549632,25.467984 40.590072,28.958544 C43.468632,32.263344 44.870952,36.712344 44.538792,41.485824 C43.903872,50.606544 37.676472,55.884144 27.742992,55.884144 Z" id="Fill-11" fill="#F7931E"></path>
            <path d="M5.895492,40.35066 C5.598612,39.84798 5.760492,39.1827 6.256212,38.86782 L8.590212,37.3845 C8.648652,37.3473 8.703852,37.30674 8.757012,37.26414 C8.799012,37.40874 8.857332,37.55046 8.936772,37.68498 L10.336812,40.0557 C10.633572,40.55826 10.471932,41.22354 9.976212,41.53854 L8.270652,42.62238 C7.932012,42.83766 7.686012,43.14906 7.542612,43.49982 C7.518852,43.23138 7.439532,42.96522 7.295532,42.72126 L5.895492,40.35066 Z M7.957932,32.71842 C7.661172,32.21574 7.822932,31.55058 8.318532,31.23558 L10.401252,29.9121 C10.553532,29.81526 10.686612,29.6985 10.800972,29.56818 C10.843092,29.73522 10.908132,29.89842 10.999212,30.05274 L12.248412,32.1681 C12.545292,32.67066 12.383532,33.33594 11.887932,33.65094 L9.553692,35.13414 C9.495252,35.17134 9.440052,35.21202 9.387132,35.2545 C9.344892,35.1099 9.286692,34.96818 9.207252,34.83366 L7.957932,32.71842 Z M12.039732,28.16838 L14.122452,26.8449 C14.238732,26.77098 14.343132,26.68494 14.437692,26.59074 C14.457972,26.63238 14.478372,26.6739 14.502372,26.71434 L15.902412,29.08494 C16.199172,29.58762 16.037412,30.25278 15.541692,30.5679 L13.459092,31.89126 C13.327212,31.97514 13.210812,32.07486 13.107372,32.18442 C13.065132,32.04078 13.007292,31.90014 12.928332,31.76658 L11.679132,29.65122 C11.382372,29.14854 11.544012,28.48338 12.039732,28.16838 Z M16.364892,30.89046 C16.407132,31.05738 16.472052,31.2207 16.563132,31.37502 L17.812452,33.49026 C18.109212,33.99306 17.947572,34.65822 17.451852,34.9731 L15.117852,36.45642 C15.059172,36.49362 15.003972,36.53418 14.951052,36.5769 C14.908812,36.43218 14.850612,36.29046 14.771172,36.15594 L13.521972,34.0407 C13.225092,33.53802 13.386972,32.87274 13.882692,32.55774 L15.965172,31.23426 C16.117572,31.13754 16.250532,31.02078 16.364892,30.89046 Z M17.603652,29.49066 L19.686372,28.16718 C19.802772,28.09314 19.907292,28.00722 20.001492,27.91302 C20.022012,27.95454 20.042412,27.99606 20.066292,28.0365 L21.466332,30.40722 C21.763092,30.90978 21.601452,31.57506 21.105732,31.89006 L19.023012,33.21354 C18.891132,33.29742 18.774732,33.39702 18.671292,33.50658 C18.629052,33.36306 18.571212,33.22242 18.492372,33.08874 L17.243052,30.9735 C16.946292,30.47082 17.108052,29.80566 17.603652,29.49066 Z M21.106812,26.15214 L23.440812,24.66894 C23.499252,24.63174 23.554572,24.59106 23.607612,24.54846 C23.649732,24.69318 23.707932,24.8349 23.787492,24.96942 L25.187532,27.34002 C25.231092,27.41382 25.263612,27.49146 25.287852,27.57066 C25.154052,27.87114 25.100292,28.20366 25.131492,28.53246 C25.051572,28.6455 24.949452,28.74498 24.826812,28.82298 L22.744212,30.14646 C22.591932,30.24318 22.458852,30.35994 22.344492,30.49026 C22.302372,30.32322 22.237332,30.16002 22.146252,30.0057 L20.746212,27.6351 C20.449332,27.1323 20.611092,26.46714 21.106812,26.15214 Z M26.777412,31.66926 C27.074172,32.17194 26.912532,32.83722 26.416812,33.15222 L24.334092,34.4757 C24.270852,34.51578 24.211932,34.5603 24.155052,34.60674 C24.126012,34.54038 24.093852,34.47474 24.056292,34.41102 L22.807092,32.29566 C22.510212,31.7931 22.671972,31.12794 23.167812,30.81294 L25.250292,29.48934 C25.309212,29.4519 25.364892,29.41086 25.418172,29.36802 L26.777412,31.66926 Z M26.113332,27.7047 C26.193132,27.59166 26.295252,27.49218 26.417892,27.4143 L28.752012,25.93098 C28.810452,25.89378 28.865652,25.85322 28.918572,25.81062 C28.960812,25.95534 29.019012,26.09706 29.098452,26.23158 L30.498492,28.60218 C30.795372,29.10486 30.633612,29.77002 30.137892,30.08502 L28.055292,31.4085 C27.903012,31.50534 27.769932,31.6221 27.655572,31.75242 C27.613332,31.58538 27.548292,31.42206 27.457332,31.26786 L26.057292,28.89714 C26.013612,28.82334 25.981092,28.74582 25.956972,28.66662 C26.090652,28.36602 26.144532,28.03338 26.113332,27.7047 Z M31.300692,29.84586 C31.342932,30.0081 31.406412,30.16698 31.495092,30.3171 L32.744292,32.43246 C33.041172,32.93514 32.879412,33.6003 32.383692,33.9153 L30.049692,35.3985 C29.822652,35.54286 29.637972,35.7309 29.496612,35.94426 C29.460732,35.85186 29.419212,35.76078 29.367492,35.67318 L28.118172,33.55794 C27.821412,33.05514 27.983052,32.38998 28.478772,32.07498 L30.561492,30.7515 C30.909252,30.53046 31.159212,30.20814 31.300692,29.84586 Z M32.535612,28.43274 L34.618212,27.10926 C34.770612,27.01254 34.903572,26.89578 35.017932,26.76546 C35.060172,26.93238 35.125212,27.0957 35.216292,27.25002 L36.465492,29.36526 C36.762372,29.86794 36.600612,30.5331 36.104892,30.8481 L33.770772,32.33142 C33.712332,32.3685 33.657132,32.40918 33.604092,32.45178 C33.561972,32.30718 33.503652,32.16546 33.424212,32.03094 L32.175012,29.9157 C31.878132,29.41302 32.039892,28.74774 32.535612,28.43274 Z M37.096332,30.94542 C37.122972,31.00362 37.152492,31.0611 37.185612,31.11726 L38.434812,33.23262 C38.731692,33.7353 38.569932,34.40046 38.074212,34.71546 L35.740092,36.19866 C35.508252,36.34602 35.320812,36.53898 35.178492,36.75798 L33.833652,34.48062 C33.536892,33.97818 33.698532,33.3129 34.194252,32.9979 L36.528372,31.51458 C36.763692,31.36506 36.953292,31.16838 37.096332,30.94542 Z M38.844252,35.68242 L40.244292,38.05314 C40.428372,38.36466 40.435812,38.7387 40.296972,39.0531 C40.105812,39.19746 39.949212,39.37386 39.828972,39.57066 L38.178132,40.61982 C37.839492,40.8351 37.593492,41.1465 37.450092,41.49714 C37.426452,41.2287 37.347132,40.96266 37.203012,40.7187 L35.802972,38.34798 C35.506212,37.84542 35.667972,37.18026 36.163572,36.86514 L38.497812,35.38194 C38.556252,35.34474 38.611452,35.30418 38.664372,35.26158 C38.706612,35.40618 38.764812,35.5479 38.844252,35.68242 Z M39.884772,33.79806 L41.625012,32.69214 C41.572452,33.09498 41.645772,33.5157 41.864172,33.88554 L43.113372,36.00066 C43.410252,36.50334 43.248492,37.16862 42.752892,37.48362 L41.176332,38.4855 C41.159412,38.19822 41.078172,37.91226 40.924212,37.65162 L39.524172,35.2809 C39.227412,34.77822 39.389052,34.11306 39.884772,33.79806 Z M41.201772,43.88826 C41.498532,44.39106 41.336892,45.05622 40.841172,45.37122 L39.289572,46.35726 C39.593772,45.79122 39.607932,45.08346 39.264132,44.50122 L38.241132,42.76914 C37.944252,42.26646 38.106012,41.60118 38.601732,41.28618 L39.549732,40.68378 C39.566532,40.97094 39.647772,41.25702 39.801732,41.51766 L41.201772,43.88826 Z M39.541692,50.73822 C39.838452,51.24066 39.676812,51.90594 39.181092,52.22094 L37.604412,53.22294 C37.587732,52.93566 37.506492,52.64958 37.352532,52.38894 L35.952492,50.01822 C35.655612,49.51566 35.817372,48.8505 36.312972,48.53538 L38.493012,47.1501 C38.188812,47.71602 38.174772,48.42366 38.518572,49.00578 L39.541692,50.73822 Z M35.542932,47.56842 L34.519932,45.83622 C34.223052,45.33354 34.384812,44.66838 34.880532,44.35326 L36.586092,43.26954 C36.924732,43.05426 37.170852,42.74286 37.314132,42.3921 C37.337892,42.66066 37.417212,42.9267 37.561212,43.17066 L38.584212,44.90286 C38.881092,45.40542 38.719332,46.0707 38.223612,46.3857 L35.889492,47.86902 C35.831052,47.90622 35.775852,47.94678 35.722932,47.98938 C35.680692,47.84466 35.622492,47.70306 35.542932,47.56842 Z M34.502532,49.4529 L32.168292,50.9361 C31.936572,51.08334 31.749012,51.27642 31.606812,51.4953 L30.261972,49.21818 C29.965092,48.7155 30.126852,48.05022 30.622572,47.73522 L32.956692,46.2519 C33.236892,46.07382 33.453372,45.82974 33.601572,45.5523 C33.634332,45.78894 33.712692,46.02198 33.840012,46.23774 L34.863012,47.97006 C35.159892,48.47262 34.998132,49.13778 34.502532,49.4529 Z M30.621492,53.47314 L28.538772,54.79662 C28.386492,54.89334 28.253412,55.0101 28.139052,55.14042 C28.096932,54.97338 28.031892,54.81018 27.940812,54.65586 L26.540772,52.28526 C26.243892,51.78258 26.405652,51.11742 26.901372,50.8023 L29.235492,49.3191 C29.293932,49.2819 29.349132,49.24134 29.402172,49.19874 C29.444292,49.34334 29.502612,49.48506 29.582052,49.61958 L30.982092,51.9903 C31.278852,52.49286 31.117212,53.15814 30.621492,53.47314 Z M34.193172,38.7357 L32.487732,39.81954 C32.148852,40.03482 31.902972,40.34634 31.759572,40.69698 C31.735932,40.42854 31.656612,40.1625 31.512612,39.91854 L30.112572,37.54794 C29.815692,37.04526 29.977452,36.37998 30.473172,36.06498 L32.807292,34.58178 C32.865732,34.54458 32.920932,34.5039 32.973972,34.46142 C33.016092,34.60602 33.074292,34.74774 33.153732,34.88226 L34.553772,37.25286 C34.850652,37.75566 34.688892,38.42082 34.193172,38.7357 Z M32.533092,45.58554 L30.198972,47.06874 C30.140532,47.10594 30.085332,47.14662 30.032292,47.1891 C29.990052,47.0445 29.931972,46.90278 29.852532,46.76826 L28.829412,45.03606 C28.532652,44.53338 28.694292,43.8681 29.190012,43.5531 L30.895572,42.46938 C31.234332,42.2541 31.480212,41.9427 31.623612,41.59194 C31.647372,41.86038 31.726692,42.12654 31.870692,42.37038 L32.893692,44.1027 C33.190572,44.60526 33.028812,45.27054 32.533092,45.58554 Z M32.550612,41.96886 C32.253732,41.4663 32.415492,40.80102 32.911212,40.48602 L34.616772,39.40218 C34.848492,39.25494 35.036052,39.06198 35.178252,38.8431 L36.523092,41.12022 C36.819972,41.6229 36.658212,42.28818 36.162612,42.60306 L34.457052,43.6869 C34.176852,43.86498 33.960372,44.10906 33.812292,44.3865 C33.779412,44.14986 33.701052,43.91682 33.573612,43.70118 L32.550612,41.96886 Z M25.924692,50.6817 C25.888932,50.58918 25.847412,50.49822 25.795572,50.4105 L24.772692,48.67818 C24.475692,48.17562 24.637572,47.51034 25.133172,47.19546 L26.838732,46.1115 C27.690132,45.57054 27.966972,44.42622 27.455772,43.56066 L26.055732,41.19018 C25.758852,40.68738 25.920612,40.02222 26.416332,39.70722 L28.750332,38.2239 C28.977492,38.07966 29.162172,37.89162 29.303412,37.67814 C29.339292,37.77066 29.380812,37.86174 29.432652,37.94934 L30.832692,40.32006 C31.129452,40.82274 30.967812,41.4879 30.472092,41.8029 L28.766532,42.88674 C27.915132,43.42782 27.638412,44.57202 28.149492,45.43758 L29.172612,47.16978 C29.469372,47.67246 29.307732,48.33762 28.812012,48.65262 L26.477892,50.13594 C26.250732,50.2803 26.066052,50.46822 25.924692,50.6817 Z M24.755052,52.29486 L22.421052,53.77818 C22.362612,53.81526 22.307412,53.85594 22.254252,53.89842 C22.212132,53.75382 22.153932,53.6121 22.074492,53.47758 L21.051492,51.74538 C20.754612,51.24282 20.916372,50.57754 21.412092,50.26254 L23.117652,49.1787 C23.456292,48.96342 23.702292,48.65202 23.845692,48.30138 C23.869332,48.56982 23.948652,48.83586 24.092772,49.0797 L25.115652,50.81202 C25.412532,51.3147 25.250772,51.97986 24.755052,52.29486 Z M20.484492,49.14834 L19.461612,47.41614 C19.164732,46.91346 19.326492,46.24818 19.822212,45.93318 L21.527772,44.84946 C21.586692,44.81202 21.642252,44.77098 21.695532,44.72814 L23.054652,47.02938 C23.351532,47.53206 23.189772,48.19722 22.694052,48.51222 L20.988492,49.59606 C20.890332,49.65846 20.800692,49.72974 20.718012,49.8069 C20.683092,49.5795 20.607132,49.35582 20.484492,49.14834 Z M19.443972,51.0327 L17.109972,52.51602 C17.051532,52.55322 16.996332,52.59378 16.943292,52.63638 C16.901172,52.49166 16.842972,52.35006 16.763412,52.21554 L15.740412,50.48322 C15.443532,49.98054 15.605292,49.31538 16.101012,49.00038 L17.806572,47.91654 C18.145212,47.70126 18.391212,47.38986 18.534612,47.0391 C18.558252,47.30766 18.637692,47.5737 18.781692,47.81766 L19.804572,49.54998 C20.101452,50.05254 19.939692,50.71782 19.443972,51.0327 Z M15.174732,48.80694 C15.181212,48.47106 15.100812,48.13134 14.920572,47.82618 L13.897572,46.09386 C13.600692,45.5913 13.762572,44.92602 14.258172,44.61102 L15.963612,43.52718 C16.080012,43.45326 16.184412,43.36734 16.278852,43.27314 C16.299252,43.31466 16.319652,43.35618 16.343532,43.39662 L17.743572,45.76722 C18.040452,46.2699 17.878692,46.93506 17.382972,47.25018 L15.677532,48.3339 C15.476652,48.46158 15.308892,48.6237 15.174732,48.80694 Z M19.655292,37.87962 C19.952172,38.3823 19.790412,39.04746 19.294692,39.36258 L16.960572,40.84578 C16.844172,40.9197 16.739652,41.00574 16.645452,41.09994 C16.624932,41.0583 16.604532,41.01678 16.580652,40.97634 L15.180732,38.60562 C14.883852,38.10306 15.045612,37.4379 15.541332,37.1229 L17.875332,35.63958 C18.007332,35.55582 18.123612,35.4561 18.227172,35.34654 C18.269292,35.49018 18.327252,35.63082 18.406092,35.76438 L19.655292,37.87962 Z M23.015772,36.29538 L20.681772,37.77858 C20.623212,37.81578 20.568012,37.85646 20.514972,37.89894 C20.472852,37.75434 20.414652,37.61274 20.335212,37.47822 L19.086012,35.36286 C18.789132,34.86018 18.950892,34.19502 19.446612,33.88002 L21.529212,32.55642 C21.681492,32.4597 21.814572,32.34306 21.928812,32.21274 C21.971052,32.37966 22.036092,32.54298 22.127172,32.69718 L23.376372,34.81254 C23.673132,35.31522 23.511492,35.9805 23.015772,36.29538 Z M21.408732,43.89258 C21.328812,44.00562 21.226812,44.1051 21.104172,44.18298 L19.398612,45.26682 C19.059972,45.4821 18.813852,45.7935 18.670572,46.14414 C18.646932,45.8757 18.567612,45.60966 18.423492,45.3657 L17.023452,42.9951 C16.726692,42.49242 16.888332,41.82726 17.384052,41.51226 L19.718172,40.02894 C19.776732,39.99174 19.831932,39.95118 19.884852,39.90858 C19.927092,40.05318 19.985292,40.1949 20.064732,40.32942 L21.464772,42.70014 C21.508332,42.77394 21.540972,42.85146 21.565092,42.93078 C21.431412,43.23126 21.377652,43.56378 21.408732,43.89258 Z M24.966372,39.14178 C25.263132,39.64434 25.101492,40.30962 24.605772,40.62462 L22.271652,42.10794 C22.212732,42.14538 22.157172,42.1863 22.103772,42.22926 L20.744652,39.9279 C20.447892,39.42534 20.609532,38.76006 21.105252,38.44506 L23.439252,36.96186 C23.502612,36.92166 23.561532,36.87726 23.618292,36.8307 C23.647452,36.89718 23.679492,36.96282 23.717172,37.02642 L24.966372,39.14178 Z M25.646292,38.74026 L24.397092,36.62502 C24.100212,36.12234 24.261972,35.45706 24.757692,35.14206 L26.840292,33.81858 C26.992692,33.72174 27.125652,33.60498 27.239892,33.47466 C27.282252,33.6417 27.347172,33.80502 27.438252,33.95934 L28.687572,36.07458 C28.984332,36.57726 28.822692,37.24254 28.326852,37.55754 L25.992852,39.04074 C25.934292,39.07806 25.879092,39.1185 25.826052,39.1611 C25.783932,39.0165 25.725732,38.87478 25.646292,38.74026 Z M22.390692,43.0647 C22.470492,42.95166 22.572612,42.8523 22.695132,42.7743 L25.029252,41.29098 C25.087812,41.25378 25.143012,41.21322 25.195932,41.17062 C25.238052,41.31534 25.296372,41.45706 25.375812,41.59158 L26.775852,43.96218 C27.072732,44.46486 26.910972,45.13014 26.415252,45.44514 L24.709692,46.52898 C24.371052,46.74414 24.125052,47.05554 23.981652,47.40618 C23.958012,47.13786 23.878572,46.8717 23.734572,46.62786 L22.334532,44.25726 C22.290972,44.18334 22.258452,44.10594 22.234212,44.02674 C22.368012,43.72614 22.421892,43.3935 22.390692,43.0647 Z M13.106652,44.82186 C13.083012,44.55342 13.003572,44.28738 12.859572,44.04354 L11.459532,41.67294 C11.162772,41.17014 11.324412,40.50498 11.820132,40.18998 L14.154132,38.70678 C14.212692,38.66958 14.268012,38.6289 14.320932,38.5863 C14.363052,38.73102 14.421372,38.87274 14.500812,39.00726 L15.900732,41.37786 C16.197612,41.88066 16.035852,42.54582 15.540132,42.8607 L13.834692,43.94454 C13.496052,44.15982 13.250052,44.47122 13.106652,44.82186 Z M9.616692,37.28346 C9.319812,36.7809 9.481572,36.11562 9.977292,35.80062 L12.311412,34.31742 C12.443292,34.23354 12.559572,34.13382 12.663132,34.02438 C12.705252,34.16802 12.763092,34.30854 12.842052,34.4421 L14.091252,36.55746 C14.388012,37.06014 14.226372,37.7253 13.730652,38.0403 L11.396652,39.5235 C11.280252,39.59754 11.175852,39.68346 11.081412,39.77766 C11.061012,39.73614 11.040612,39.69462 11.016732,39.65418 L9.616692,37.28346 Z M11.819052,45.9279 L10.113492,47.01174 C9.912612,47.13942 9.744972,47.30142 9.610932,47.48478 C9.617292,47.1489 9.536892,46.80906 9.356652,46.5039 L8.333532,44.7717 C8.036772,44.26902 8.198412,43.60374 8.694132,43.28874 L10.399692,42.20502 C10.516092,42.1311 10.620612,42.04506 10.714812,41.95086 C10.735332,41.99238 10.755732,42.0339 10.779612,42.07434 L12.179652,44.44506 C12.476532,44.94762 12.314772,45.6129 11.819052,45.9279 Z M6.255012,44.60562 L5.569812,45.04122 C5.690172,45.27366 5.817612,45.50442 5.953572,45.7329 L6.678492,45.2721 C7.017372,45.05682 7.263252,44.74542 7.406652,44.39466 C7.430292,44.66322 7.509612,44.92926 7.653612,45.17322 L8.676732,46.90554 C8.973492,47.4081 8.811852,48.07326 8.316132,48.38826 L8.112492,48.51774 C8.299452,48.70986 8.491332,48.8997 8.690292,49.08606 L8.739612,49.05474 C8.940612,48.92706 9.108132,48.76494 9.242292,48.5817 C9.235932,48.91758 9.316332,49.2573 9.496572,49.56258 L9.763692,50.01486 C10.257972,50.4129 10.779252,50.79486 11.326212,51.15906 C11.291412,51.06834 11.250132,50.97918 11.199372,50.89326 L10.176492,49.16106 C9.879612,48.65826 10.041372,47.9931 10.537092,47.67822 L12.242652,46.59426 C12.581292,46.3791 12.827292,46.06782 12.970572,45.71718 C12.994212,45.9855 13.073532,46.25154 13.217652,46.49538 L14.240652,48.2277 C14.537652,48.73038 14.375772,49.39554 13.880052,49.71054 L11.546052,51.19374 C11.517852,51.21174 11.492532,51.2325 11.465652,51.25182 C11.705892,51.40926 11.951892,51.5625 12.201252,51.7131 L14.303532,50.3769 C14.504412,50.24922 14.672172,50.08722 14.806332,49.90386 C14.799852,50.23974 14.880252,50.57958 15.060492,50.88474 L16.083492,52.61694 C16.274172,52.93986 16.274772,53.3295 16.119972,53.65062 C16.420692,53.77074 16.724172,53.8875 17.031852,53.99874 C17.066652,53.6751 17.241612,53.36802 17.533452,53.1825 L19.867572,51.69918 C19.965732,51.63678 20.055492,51.5655 20.138052,51.48834 C20.172972,51.71574 20.248932,51.93942 20.371572,52.1469 L21.394572,53.8791 C21.645492,54.3039 21.567852,54.84402 21.238812,55.19154 C21.602532,55.2681 21.967932,55.33974 22.336332,55.40406 C22.328052,55.0299 22.509732,54.6573 22.844532,54.44454 L25.178532,52.96134 C25.405692,52.81698 25.590372,52.62894 25.731732,52.41558 C25.767612,52.5081 25.809012,52.59906 25.860852,52.68666 L27.260892,55.05738 C27.411492,55.31238 27.443532,55.60914 27.374412,55.88094 C27.497652,55.8825 27.620892,55.88418 27.742932,55.88418 C28.027332,55.88418 28.308132,55.87926 28.586412,55.87062 C28.672692,55.7091 28.798932,55.5669 28.962372,55.4631 L31.044972,54.1395 C31.276812,53.99226 31.464252,53.7993 31.606572,53.58042 L32.676132,55.39146 C32.948412,55.33314 33.216732,55.26978 33.480852,55.20138 L32.231292,53.08542 C31.934412,52.58274 32.096172,51.91758 32.591892,51.60258 L34.926012,50.11926 C34.984452,50.08206 35.039652,50.0415 35.092812,49.9989 C35.134812,50.1435 35.193012,50.28522 35.272572,50.41974 L36.672612,52.79046 C36.856692,53.1021 36.864012,53.47614 36.725172,53.79054 C36.572052,53.90622 36.442092,54.04326 36.334092,54.19434 C38.500212,53.1981 40.281252,51.77514 41.627892,49.96362 L40.568052,50.63718 C40.509612,50.67426 40.454412,50.71494 40.401372,50.75754 C40.359252,50.61282 40.301052,50.4711 40.221612,50.33658 L39.198492,48.60438 C38.901732,48.1017 39.063372,47.43654 39.559092,47.12154 L41.264652,46.0377 C41.603292,45.82242 41.849292,45.51102 41.992812,45.16038 C42.016452,45.4287 42.095772,45.69486 42.239772,45.9387 L43.116012,47.42238 C43.250412,47.12454 43.376412,46.81998 43.492932,46.50786 L42.919692,45.5373 C42.622932,45.0345 42.784572,44.36934 43.280292,44.05434 L44.313972,43.39746 C44.370252,43.06098 44.418612,42.71898 44.457972,42.3705 L42.856812,43.38798 C42.518052,43.60314 42.272172,43.91454 42.128652,44.26518 C42.105012,43.99686 42.025692,43.7307 41.881692,43.48686 L40.481652,41.11614 C40.297692,40.8045 40.290132,40.43058 40.428972,40.11606 C40.620132,39.97194 40.776732,39.79542 40.896972,39.5985 L43.176372,38.1501 C43.234812,38.1129 43.290012,38.07234 43.343052,38.02962 C43.385292,38.17434 43.443372,38.31606 43.522932,38.45058 L44.585412,40.24974 C44.589252,39.6921 44.568732,39.1401 44.525172,38.59494 L44.202852,38.04906 C43.969212,37.65354 44.020572,37.15794 44.294292,36.8109 C44.240292,36.5115 44.179212,36.21474 44.110452,35.92098 C44.063172,35.95266 44.016852,35.98506 43.973052,36.02022 C43.930932,35.8755 43.872852,35.73378 43.793292,35.59926 L42.544092,33.48402 C42.285012,33.04518 42.375372,32.48286 42.732132,32.13738 C42.566172,31.81194 42.389412,31.49274 42.202092,31.18026 C42.116412,31.36686 41.979012,31.53162 41.795412,31.64826 L39.461292,33.13158 C39.402852,33.16878 39.347652,33.20934 39.294492,33.25206 C39.252372,33.10734 39.194172,32.96562 39.114732,32.8311 L37.865532,30.71574 C37.568652,30.21318 37.730412,29.54802 38.226132,29.23302 L39.870492,28.18806 C39.679092,27.9957 39.483012,27.80838 39.282132,27.62622 L37.802652,28.56654 C37.567332,28.71606 37.377732,28.91274 37.234692,29.1357 C37.208052,29.0775 37.178532,29.02002 37.145412,28.96374 L35.896212,26.8485 C35.615172,26.37258 35.745732,25.75146 36.181092,25.4193 C35.938572,25.28586 35.692092,25.15758 35.441292,25.03482 C35.438772,25.0377 35.436012,25.04022 35.433612,25.0431 C35.432412,25.0383 35.430732,25.03362 35.429532,25.02894 C35.061612,24.8493 34.684212,24.68214 34.298892,24.52566 L34.555332,24.95994 C34.852212,25.46262 34.690452,26.1279 34.194732,26.4429 L32.112132,27.76638 C31.764252,27.98742 31.514412,28.30986 31.372932,28.67202 C31.330572,28.50966 31.267212,28.35078 31.178412,28.20066 L29.778372,25.83006 C29.481612,25.32738 29.643252,24.6621 30.138972,24.34722 L31.326852,23.5923 C30.960972,23.50782 30.589692,23.4315 30.212532,23.3649 L29.715492,23.68074 C29.657052,23.71794 29.601852,23.7585 29.548692,23.8011 C29.506572,23.65638 29.448372,23.51478 29.368932,23.38026 L29.274132,23.21958 C28.950372,23.17626 28.622892,23.1393 28.291572,23.1087 L28.689012,23.78166 C28.985892,24.28434 28.824132,24.94962 28.328412,25.26462 L25.994292,26.74782 C25.935372,26.78526 25.879812,26.8263 25.826532,26.86926 L24.467412,24.5679 C24.170532,24.06522 24.332292,23.40006 24.828012,23.08506 L24.923772,23.0241 C24.457092,23.04294 23.990532,23.0733 23.525052,23.11674 C23.509452,23.46558 23.330052,23.80374 23.017332,24.00246 L20.683212,25.48566 C20.566932,25.55958 20.462532,25.64562 20.367972,25.73982 C20.347692,25.6983 20.327292,25.65678 20.303292,25.61634 L19.268532,23.86422 C19.004412,23.93298 18.741012,24.00438 18.479532,24.08094 L19.623372,26.01786 C19.920252,26.52054 19.758492,27.1857 19.262892,27.5007 L17.180172,28.82418 C17.028012,28.92102 16.894812,29.03766 16.780572,29.16798 C16.738332,29.00106 16.673292,28.83774 16.582332,28.68342 L15.182292,26.31282 C14.998692,26.00202 14.990892,25.62918 15.128532,25.31526 C14.757852,25.48194 14.393052,25.6581 14.033052,25.84182 C13.949412,25.97382 13.837932,26.09022 13.698852,26.17842 L11.616252,27.50202 C11.463852,27.59874 11.330892,27.7155 11.216652,27.84582 C11.195052,27.76098 11.167692,27.6771 11.133852,27.59478 C10.905012,27.75762 10.682292,27.9237 10.463772,28.09218 C10.552572,28.52646 10.370532,28.99602 9.977772,29.24562 L7.895052,30.5691 C7.794852,30.63282 7.703292,30.70554 7.619292,30.7845 C7.520052,30.9015 7.422852,31.01922 7.327572,31.1379 C6.952932,31.72194 6.908052,32.49342 7.278012,33.11994 L8.527332,35.23518 C8.824092,35.73786 8.662452,36.40314 8.166732,36.71814 L5.832732,38.20134 C4.981452,38.7423 4.704492,39.8865 5.215572,40.75218 L6.615612,43.12278 C6.912492,43.62546 6.750732,44.29062 6.255012,44.60562 Z" id="Fill-13" fill="#F7931E"></path>
            <path d="M14.61624,41.890272 C13.63644,43.222272 11.24472,43.150032 9.27432,41.728752 C7.3038,40.307592 6.50088,38.075712 7.48068,36.743712 C8.46048,35.411712 10.8522,35.483952 12.8226,36.905112 C14.793,38.326272 15.59604,40.558152 14.61624,41.890272" id="Fill-15" fill="#F7931E"></path>
            <path d="M24.837336,37.02816 C24.574776,38.1114 23.474976,38.77884 22.380936,38.51892 C21.287016,38.25888 20.612976,37.17 20.875416,36.08664 C21.138096,35.00328 22.237776,34.33584 23.331816,34.59588 C24.425856,34.8558 25.099896,35.9448 24.837336,37.02816" id="Fill-17" fill="#F7931E"></path>
            <path d="M38.754516,42.424644 C38.491956,43.508004 37.392156,44.175444 36.298116,43.915404 C35.204076,43.655484 34.530156,42.566484 34.792596,41.483124 C35.055276,40.399764 36.154956,39.732324 37.248996,39.992364 C38.342916,40.252284 39.017076,41.341284 38.754516,42.424644" id="Fill-19" fill="#F7931E"></path>
            <path d="M60.772644,62.998788 C65.591004,62.311308 68.857764,59.309868 68.957124,58.042788 C69.056484,56.775708 63.916764,57.340788 59.098284,58.028388 C54.279924,58.715868 51.209724,58.482828 51.507924,60.532428 C51.806244,62.582028 55.954164,63.686268 60.772644,62.998788" id="Fill-21" fill="#F7931E"></path>
            <path d="M27.844368,49.291884 C27.740208,48.959964 27.382728,48.773964 27.047448,48.876924 C24.727848,49.590564 22.234848,49.778364 19.637448,49.434924 C17.979288,49.215444 16.446888,48.805284 15.082128,48.215124 C14.760768,48.076284 14.384568,48.222444 14.244168,48.540684 C14.103768,48.859284 14.251248,49.231524 14.572728,49.370724 C15.461928,49.755204 16.424088,50.071644 17.432208,50.311164 C18.087528,50.466924 18.772728,50.592564 19.468968,50.684484 C22.251048,51.052404 24.927888,50.849364 27.425328,50.080884 C27.760488,49.977684 27.948408,49.623804 27.844368,49.291884" id="Fill-23" fill="#F7931E"></path>
        </g>
    </g>
</svg>