<?xml version="1.0" encoding="UTF-8"?>
<svg width="120px" height="120px" viewBox="0 0 120 120" version="1.1" xmlns="http://www.w3.org/2000/svg" xmlns:xlink="http://www.w3.org/1999/xlink">
    <!-- Generator: Sketch 51.1 (57501) - http://www.bohemiancoding.com/sketch -->
    <title>Cable Car7</title>
    <desc>Created with Sketch.</desc>
    <defs></defs>
    <g id="Cable-Car7" stroke="none" stroke-width="1" fill="none" fill-rule="evenodd">
        <g id="Group-2" transform="translate(0.000000, 5.000000)">
            <polygon id="Fill-95" fill="#716558" points="30.3246647 37.7328025 37.6299708 37.7328025 37.6299708 28.1305732 30.3246647 28.1305732"></polygon>
            <polygon id="Fill-96" fill="#716558" points="84.88793 37.7328025 92.1932362 37.7328025 92.1932362 28.1305732 84.88793 28.1305732"></polygon>
            <polygon id="Fill-97" fill="#F15927" points="5.48406997 39.1213248 0.127451895 72.7494459 6.69001749 97.8322484 113.335032 97.8322484 119.897248 72.7494459 114.54063 39.1213248"></polygon>
            <polygon id="Fill-98" fill="#E8EAE9" points="1.35414577 77.4374076 6.68977259 97.8322484 113.335137 97.8322484 118.671114 77.4374076"></polygon>
            <path d="M114.562251,39.2549013 L113.800968,34.4776083 C113.53263,32.7918758 112.080385,31.5513981 110.375545,31.5513981 L9.64936443,31.5513981 C7.94452478,31.5513981 6.49227988,32.7918758 6.22359184,34.4776083 L5.46265889,39.2549013 L114.562251,39.2549013 Z" id="Fill-99" fill="#716558"></path>
            <path d="M113.933598,35.3095446 L113.801003,34.4775382 C113.532665,32.7918057 112.08042,31.551328 110.37558,31.551328 L9.64939942,31.551328 C7.94455977,31.551328 6.49231487,32.7918057 6.22362682,34.4775382 L6.09103207,35.3095446 L113.933598,35.3095446 Z" id="Fill-100" fill="#A5988B"></path>
            <polygon id="Fill-101" fill="#F15927" points="116.354239 86.2918471 117.857913 80.5448726 2.16706706 80.5448726 3.67074052 86.2918471"></polygon>
            <polygon id="Fill-102" fill="#FFFFFF" points="119.262052 75.1776083 0.762927114 75.1776083 0.967241983 75.9591688 119.057388 75.9591688"></polygon>
            <polygon id="Fill-103" fill="#716558" points="90.5558834 29.5270828 61.118449 14.6557134 61.118449 14.6546624 61.1177493 14.6550127 61.1170496 14.6546624 61.1170496 14.6557134 31.6796152 29.5270828 37.6019475 29.5270828 61.1177493 17.9676242 84.9410729 29.5270828"></polygon>
            <polygon id="Fill-104" fill="#716558" points="59.335277 17.2496815 63.2837318 17.2496815 63.2837318 0 59.335277 0"></polygon>
            <polygon id="Fill-105" fill="#716558" points="56.491312 9.59487261 61.0257726 9.59487261 61.0257726 7.95748408 56.491312 7.95748408"></polygon>
            <polygon id="Fill-106" fill="#716558" points="56.491312 13.9272611 61.0257726 13.9272611 61.0257726 12.2895223 56.491312 12.2895223"></polygon>
            <polygon id="Fill-107" fill="#716558" points="61.6946939 9.59487261 66.2291545 9.59487261 66.2291545 7.95748408 61.6946939 7.95748408"></polygon>
            <polygon id="Fill-108" fill="#716558" points="61.6946939 13.9272611 66.2291545 13.9272611 66.2291545 12.2895223 61.6946939 12.2895223"></polygon>
            <polygon id="Fill-109" fill="#716558" points="4.28361516 5.65063694 118.96828 5.65063694 118.96828 1.87315287 4.28361516 1.87315287"></polygon>
            <polygon id="Fill-110" fill="#A5988B" points="4.28361516 3.465 118.96828 3.465 118.96828 1.87315287 4.28361516 1.87315287"></polygon>
            <polygon id="Fill-111" fill="#193B51" points="37.8080466 73.0827389 58.1314286 73.0827389 58.1314286 41.933121 37.8080466 41.933121"></polygon>
            <polygon id="Fill-112" fill="#193B51" points="61.6702041 73.0827389 82.216793 73.0827389 82.216793 41.933121 61.6702041 41.933121"></polygon>
            <polygon id="Fill-113" fill="#193B51" points="18.172828 73.0830892 34.2692711 73.0830892 34.2692711 41.9334713 18.172828 41.9334713"></polygon>
            <polygon id="Fill-114" fill="#193B51" points="112.95614 41.9332611 103.957889 41.9332611 103.957889 73.082879 117.735149 73.082879 117.848851 72.6488344"></polygon>
            <polygon id="Fill-115" fill="#193B51" points="85.7555685 73.0827389 101.852012 73.0827389 101.852012 41.933121 85.7555685 41.933121"></polygon>
            <polygon id="Fill-116" fill="#193B51" points="16.0671603 41.9332611 7.06855977 41.9332611 2.1758484 72.6488344 2.28990087 73.082879 16.0671603 73.082879"></polygon>
            <polygon id="Fill-127" fill="#A5988B" points="29.9867055 109.743217 49.7272303 109.743217 49.7272303 103.044076 29.9867055 103.044076"></polygon>
            <polygon id="Fill-128" fill="#A5988B" points="69.6773178 109.743217 89.4178426 109.743217 89.4178426 103.044076 69.6773178 103.044076"></polygon>
            <polygon id="Fill-129" fill="#716558" points="29.9867055 109.743217 49.7272303 109.743217 49.7272303 107.384522 29.9867055 107.384522"></polygon>
            <polygon id="Fill-130" fill="#716558" points="69.6773178 109.743217 89.4178426 109.743217 89.4178426 107.384522 69.6773178 107.384522"></polygon>
            <polygon id="Fill-131" fill="#716558" points="6.79091545 97.8369427 9.75208163 106.153153 110.423335 106.153153 113.341469 97.8369427"></polygon>
        </g>
    </g>
</svg>