<?xml version="1.0" encoding="UTF-8"?>
<svg width="120px" height="120px" viewBox="0 0 120 120" version="1.1" xmlns="http://www.w3.org/2000/svg" xmlns:xlink="http://www.w3.org/1999/xlink">
    <!-- Generator: Sketch 51.1 (57501) - http://www.bohemiancoding.com/sketch -->
    <title>Panda13</title>
    <desc>Created with Sketch.</desc>
    <defs>
        <polygon id="path-1" points="0.000317513319 0.691090909 119.605091 0.691090909 119.605091 97.0903636 0.000317513319 97.0903636"></polygon>
    </defs>
    <g id="Panda13" stroke="none" stroke-width="1" fill="none" fill-rule="evenodd">
        <g id="Group" transform="translate(0.000000, 11.000000)">
            <g id="Group-3" transform="translate(0.000000, 0.399927)">
                <mask id="mask-2" fill="white">
                    <use xlink:href="#path-1"></use>
                </mask>
                <g id="Clip-2"></g>
                <path d="M116.167855,15.0158182 C113.472218,11.4103636 109.587491,9.15436364 105.229309,8.66236364 C104.646764,8.59690909 104.056582,8.56309091 103.475127,8.56309091 C97.5645818,8.56309091 92.1209455,12.0027273 89.2191273,17.2674545 C79.9311273,12.4150909 71.2464,11.6525455 69.8042182,11.5565455 C69.1005818,11.4452727 66.6024,11.0950909 63.0493091,11.0950909 C59.5213091,11.0950909 54.4616727,11.4485455 48.9656727,12.966 C47.2267636,6.43363636 41.9020364,1.54527273 35.2104,0.789272727 C34.6278545,0.723818182 34.0376727,0.691090909 33.4540364,0.691090909 C25.1184,0.69 18.0896727,7.26490909 17.1045818,15.9845455 C16.3954909,22.2572727 18.9482182,28.1918182 23.6260364,31.722 C20.8387636,36.1478182 18.6405818,41.2521818 17.0740364,46.9434545 C17.0074909,47.1616364 16.8427636,47.742 16.6813091,48.6103636 C16.4729455,48.702 16.2700364,48.8078182 16.0758545,48.9256364 C15.3689455,48.0201818 14.3533091,47.3667273 13.1642182,47.0972727 C12.7813091,47.0110909 12.3874909,46.9674545 11.9958545,46.9674545 C11.0718545,46.9674545 10.1576727,47.2118182 9.35258182,47.6732727 C8.72967273,48.0310909 8.19730909,48.5001818 7.77949091,49.0532727 C5.14385455,49.0870909 2.93912727,51.0321818 2.63912727,53.6056364 C2.63149091,53.6667273 2.62494545,53.7289091 2.62058182,53.7921818 C2.5944,54.0201818 2.59112727,54.2503636 2.61294545,54.4816364 L2.62167273,54.558 C2.62167273,54.5645455 2.62276364,54.5710909 2.62276364,54.5776364 C0.7224,55.6576364 -0.3576,57.8438182 0.108218182,60.042 C0.1104,60.0550909 0.121309091,60.1041818 0.123490909,60.1161818 C0.133309091,60.1554545 0.142036364,60.1936364 0.150763636,60.2274545 C0.156218182,60.2503636 0.160581818,60.2721818 0.166036364,60.2929091 C0.212945455,60.4947273 0.280581818,60.6943636 0.365672727,60.8852727 L0.396218182,60.9529091 C0.471490909,61.1296364 0.553309091,61.2965455 0.644945455,61.4590909 C1.00167273,62.1332727 1.42058182,62.7332727 1.90167273,63.2525455 C2.00203636,66.5623636 3.02530909,69.9441818 4.90058182,73.1209091 C12.6667636,86.2816364 28.1598545,93.8481818 40.0725818,94.9325455 C40.2111273,95.3678182 40.4445818,95.7725455 40.7642182,96.1129091 C41.3489455,96.7369091 42.1660364,97.0903636 43.0202182,97.0903636 L72.5031273,97.0903636 L87.6994909,97.0903636 C88.8198545,97.0903636 89.8529455,96.4849091 90.3994909,95.5063636 C90.9460364,94.5278182 90.9198545,93.3310909 90.3318545,92.3765455 C88.7664,89.8358182 87.1616727,87.5198182 85.6900364,85.5310909 C95.2791273,83.9525455 102.559855,80.2936364 107.379491,74.6198182 C113.740582,67.1318182 113.389309,58.8070909 113.322764,57.8154545 C113.057673,51.7729091 112.000582,46.1721818 110.172218,41.1169091 C115.217673,38.5914545 118.815491,33.4794545 119.489673,27.5121818 C119.999127,23.0001818 118.819855,18.5623636 116.167855,15.0158182" id="Fill-1" fill="#000000" mask="url(#mask-2)"></path>
            </g>
            <path d="M72.5032364,94.3984364 L71.3686909,90.4297091 L78.1966909,81.5486182 C78.1966909,81.5486182 83.1494182,87.0140727 87.6996,94.3984364 L72.5032364,94.3984364 Z" id="Fill-4" fill="#222222"></path>
            <polygon id="Fill-6" fill="#222222" points="43.0205455 94.3984364 43.9816364 79.6580727 78.1969091 79.6580727 79.1569091 94.3984364"></polygon>
            <path d="M20.1774545,16.7313818 C19.3069091,24.4353818 24.4723636,31.3441091 31.7116364,32.1612 C38.952,32.9793818 45.528,27.3961091 46.3974545,19.6921091 C47.268,11.9881091 42.1036364,5.08047273 34.8621818,4.26229091 C27.6218182,3.4452 21.0469091,9.02738182 20.1774545,16.7313818" id="Fill-8" fill="#222222"></path>
            <path d="M90.1964727,24.6037091 C89.3270182,32.3077091 94.4913818,39.2164364 101.731745,40.0335273 C108.972109,40.8517091 115.547018,35.2684364 116.416473,27.5644364 C117.287018,19.8604364 112.122655,12.9528 104.882291,12.1346182 C97.6419273,11.3175273 91.0670182,16.8997091 90.1964727,24.6037091" id="Fill-10" fill="#222222"></path>
            <path d="M20.0427273,48.2084727 C31.0369091,8.16556364 69.4598182,15.0328364 69.4598182,15.0328364 C69.4598182,15.0328364 108.447818,16.9081091 110.234727,58.3932 C110.234727,58.3932 112.848545,88.7750182 61.7841818,83.0084727 C10.7187273,77.2408364 20.0427273,48.2084727 20.0427273,48.2084727" id="Fill-12" fill="#FFFFFF"></path>
            <path d="M65.0000727,54.3523636 C66.2229818,54.4505455 67.4044364,54.2716364 68.4811636,53.8669091 C70.6782545,53.0410909 73.0291636,54.7669091 72.8677091,57.108 C72.8622545,57.1887273 72.8557091,57.2694545 72.8469818,57.3501818 C72.4248,61.6265455 68.7189818,64.0810909 64.4284364,63.8356364 C59.8913455,63.576 56.4189818,60.4090909 56.7833455,55.9047273 C56.7855273,55.8850909 56.7866182,55.8654545 56.7888,55.8469091 C56.9960727,53.4927273 59.5924364,52.1389091 61.6422545,53.3138182 C62.6404364,53.8865455 63.7771636,54.2530909 65.0000727,54.3523636" id="Fill-14" fill="#222222"></path>
            <path d="M70.4082545,62.0371636 C68.8602545,63.3222545 66.7286182,63.9669818 64.4278909,63.8349818 C61.9591636,63.6942545 59.8078909,62.6906182 58.4158909,61.0804364 C59.9409818,59.3851636 62.2089818,58.3935273 64.6569818,58.5920727 C67.0995273,58.7884364 69.1755273,60.1258909 70.4082545,62.0371636" id="Fill-16" fill="#F2616B"></path>
            <path d="M91.0130182,22.2578182 C90.7173818,22.0701818 90.4206545,21.9021818 90.1239273,21.7243636 C89.7912,23.376 89.4181091,25.1094545 88.9981091,26.8603636 C86.4748364,37.3930909 83.5708364,43.5305455 80.6002909,44.6083636 C72.9322909,47.3945455 58.9282909,45.8138182 52.3282909,41.4185455 C48.3453818,38.7676364 47.3962909,26.5407273 47.3242909,17.1032727 C47.0024727,17.2123636 46.6806545,17.3269091 46.3577455,17.4447273 C46.4155636,26.9803636 47.3832,39.3469091 51.8068364,42.2912727 C55.2050182,44.5549091 60.5101091,46.0941818 65.9493818,46.7083636 C71.3864727,47.3225455 76.9588364,47.0127273 80.9013818,45.5803636 C85.7330182,43.8261818 89.0973818,31.6745455 91.0130182,22.2578182" id="Fill-18" fill="#E6E6E6"></path>
            <path d="M87.3834545,31.8150545 C87.9998182,31.8837818 88.5976364,32.0136 89.1725455,32.1892364 L89.1736364,32.1892364 C89.1769091,32.1903273 89.1790909,32.1914182 89.1823636,32.1925091 C89.7463636,32.3659636 90.2874545,32.5863273 90.8023636,32.8525091 C101.890364,37.8946909 103.462364,51.3477818 103.462364,51.3477818 L103.461273,51.3488727 C103.621636,52.3645091 103.652182,53.4216 103.53,54.4994182 C102.841636,60.5943273 97.6401818,65.0103273 91.9129091,64.3634182 L83.8107273,63.4481455 C78.0834545,62.8012364 73.998,57.3368727 74.6863636,51.2430545 L75.7663636,41.6779636 C76.4547273,35.5841455 81.6561818,31.1681455 87.3834545,31.8150545" id="Fill-20" fill="#222222"></path>
            <path d="M60.9411273,45.5025818 C61.1473091,43.6687636 62.7269455,42.3280364 64.4505818,42.5233091 L68.2142182,42.9476727 C69.9367636,43.1418545 71.1771273,44.8011273 70.9698545,46.6349455 L70.9556727,46.7625818 C70.8520364,47.6800364 70.4058545,48.4731273 69.7698545,49.0131273 L69.7687636,49.0131273 L68.7204,49.9153091 L67.6884,50.7924 C67.0469455,51.3367636 66.2134909,51.6236727 65.3396727,51.5254909 C64.4658545,51.4273091 63.7174909,50.9604 63.2134909,50.2873091 L62.4018545,49.2018545 L61.5804,48.0880364 C61.0807636,47.4204 60.8233091,46.5476727 60.9269455,45.6302182 L60.9411273,45.5025818 Z" id="Fill-22" fill="#222222"></path>
            <path d="M8.98821818,60.4056 C8.8344,59.7521455 8.31621818,59.2372364 7.6344,59.0594182 C7.62567273,59.0572364 7.61803636,59.0550545 7.60930909,59.0539636 C7.17403636,58.9328727 6.97221818,58.5205091 6.97003636,58.5172364 C6.96676364,58.5096 6.9624,58.5019636 6.95803636,58.4965091 C6.56421818,57.7459636 5.68276364,57.3554182 4.80458182,57.5430545 C4.28749091,57.6543273 3.8424,57.9466909 3.55003636,58.3688727 C3.25767273,58.7910545 3.15294545,59.2906909 3.25549091,59.7750545 L3.26421818,59.8121455 C3.27403636,59.8525091 3.28494545,59.8928727 3.29694545,59.9321455 C3.29694545,59.9419636 3.29694545,59.9517818 3.30021818,59.9605091 C3.30130909,59.9670545 3.30349091,59.9725091 3.30567273,59.9779636 L3.34494545,60.0630545 C3.37985455,60.1514182 3.4224,60.2386909 3.46930909,60.3150545 C4.83403636,62.9626909 7.13912727,62.7194182 7.16203636,62.7161455 C7.16858182,62.7161455 7.17403636,62.7150545 7.17949091,62.7139636 C7.27767273,62.7052364 7.36603636,62.6932364 7.44785455,62.6757818 C8.51367273,62.4466909 9.20858182,61.4452364 8.99694545,60.4437818 L8.98821818,60.4056 Z" id="Fill-24" fill="#FFFFFF"></path>
            <path d="M3.1416,59.8393091 C3.15032727,59.8753091 3.16014545,59.9113091 3.17105455,59.9484 C3.17105455,59.9614909 3.17323636,59.9745818 3.17650909,59.9865818 C3.17978182,59.9996727 3.18414545,60.0138545 3.1896,60.0258545 C3.19832727,60.0444 3.20705455,60.0629455 3.21469091,60.0804 L3.22887273,60.1087636 C3.26705455,60.2036727 3.30850909,60.2898545 3.35650909,60.3694909 C4.76269091,63.0891273 7.07650909,62.8458545 7.17469091,62.8338545 C7.18123636,62.8327636 7.18887273,62.8316727 7.19541818,62.8305818 C7.29796364,62.8218545 7.38741818,62.8098545 7.47250909,62.7913091 C8.60596364,62.5480364 9.3456,61.4833091 9.11869091,60.4164 L9.10996364,60.3771273 C8.94741818,59.6822182 8.39650909,59.1345818 7.6776,58.9469455 C7.67323636,58.9458545 7.66887273,58.9447636 7.66450909,58.9436727 C7.27069091,58.8356727 7.08632727,58.4680364 7.08414545,58.4647636 C7.07869091,58.4538545 7.07323636,58.4440364 7.06669091,58.4331273 C6.64669091,57.6411273 5.71069091,57.2276727 4.77905455,57.4273091 C3.6456,57.6705818 2.90705455,58.7353091 3.13287273,59.8011273 L3.1416,59.8393091 Z M3.38596364,59.7814909 C3.38378182,59.7716727 3.38050909,59.7596727 3.37832727,59.7487636 C3.17978182,58.8084 3.82887273,57.8724 4.82814545,57.6585818 C5.67469091,57.4764 6.50050909,57.8724 6.85396364,58.5684 L6.85614545,58.5673091 C6.85614545,58.5673091 7.07650909,59.0298545 7.58923636,59.1705818 C7.59032727,59.1705818 7.59141818,59.1716727 7.59250909,59.1716727 C8.21323636,59.3320364 8.71723636,59.8000364 8.8656,60.4338545 C8.86887273,60.4458545 8.87105455,60.4578545 8.87323636,60.4698545 C9.07287273,61.4091273 8.42378182,62.3462182 7.42341818,62.5600364 C7.33178182,62.5796727 7.24123636,62.5905818 7.15069091,62.5971273 L7.1496,62.5993091 C7.1496,62.5993091 4.92523636,62.8654909 3.57796364,60.2549455 C3.53214545,60.1785818 3.49396364,60.0967636 3.46014545,60.0127636 C3.44705455,59.9844 3.43396364,59.9582182 3.42087273,59.9287636 L3.42741818,59.9265818 C3.41105455,59.8796727 3.39687273,59.8316727 3.38596364,59.7814909 Z" id="Fill-26" fill="#C1C1C1"></path>
            <path d="M11.0117455,56.0521091 C10.9037455,55.5917455 10.6157455,55.1957455 10.2012,54.9382909 C10.1968364,54.9350182 10.1935636,54.9317455 10.1902909,54.9295636 C9.89247273,54.7386545 9.78883636,54.4179273 9.75938182,54.2892 C9.74956364,54.2521091 9.74629091,54.2281091 9.74629091,54.2248364 C9.74629091,54.2204727 9.74192727,54.2062909 9.74083636,54.2019273 C9.73429091,54.1604727 9.72665455,54.1179273 9.71683636,54.0764727 L9.71683636,54.0753818 C9.53465455,53.3008364 8.84956364,52.7357455 8.01065455,52.6692 C6.93065455,52.5852 5.95429091,53.3488364 5.83429091,54.3732 C5.82883636,54.4277455 5.82447273,54.4822909 5.82338182,54.5357455 C5.81792727,54.5510182 5.81465455,54.5662909 5.81574545,54.5815636 L5.82774545,54.6753818 C5.83101818,54.7702909 5.84410909,54.8662909 5.86374545,54.9546545 C5.88556364,55.1041091 5.91501818,55.2579273 5.94992727,55.4062909 C6.54338182,57.9361091 8.50265455,58.3037455 8.58556364,58.3190182 C8.59101818,58.3201091 8.59756364,58.3212 8.60301818,58.3212 C8.7012,58.3419273 8.78629091,58.3550182 8.8692,58.3615636 C9.39283636,58.4030182 9.90665455,58.2481091 10.3179273,57.9262909 C10.7292,57.6044727 10.9877455,57.1539273 11.0455636,56.6575636 C11.0695636,56.4535636 11.0575636,56.2495636 11.0117455,56.0521091" id="Fill-28" fill="#FFFFFF"></path>
            <path d="M5.82785455,55.4346545 C6.43876364,58.0375636 8.47330909,58.4204727 8.55949091,58.4346545 C8.56712727,58.4357455 8.57367273,58.4368364 8.58021818,58.4379273 C8.68058182,58.4586545 8.76894545,58.4728364 8.85512727,58.4793818 C10.0049455,58.5699273 11.0424,57.7561091 11.1700364,56.6673818 C11.1951273,56.4502909 11.1831273,56.2332 11.1340364,56.0237455 C11.0194909,55.5339273 10.7140364,55.1139273 10.2776727,54.8412 C10.2744,54.8390182 10.2700364,54.8368364 10.2667636,54.8346545 C10.0005818,54.6633818 9.90894545,54.3764727 9.88167273,54.2608364 C9.87403636,54.2313818 9.87185455,54.2117455 9.87076364,54.2084727 C9.87076364,54.2008364 9.86858182,54.1921091 9.8664,54.1844727 C9.8664,54.1812 9.86530909,54.1768364 9.86421818,54.1724727 C9.85658182,54.1310182 9.84894545,54.0884727 9.83912727,54.0470182 C9.64603636,53.2233818 8.91621818,52.6222909 8.02494545,52.5513818 C6.87512727,52.4608364 5.83767273,53.2746545 5.71003636,54.3644727 C5.70458182,54.4135636 5.70021818,54.4637455 5.69912727,54.5161091 C5.69149091,54.5422909 5.68930909,54.5684727 5.69149091,54.5957455 C5.69367273,54.6164727 5.69585455,54.6361091 5.69912727,54.6557455 L5.7024,54.6862909 C5.70785455,54.7888364 5.71985455,54.8837455 5.73949091,54.9742909 C5.76349091,55.1313818 5.79294545,55.2862909 5.82785455,55.4346545 M6.07221818,55.3779273 C6.0384,55.2339273 6.01003636,55.0844727 5.98603636,54.9273818 C5.9664,54.8401091 5.95658182,54.7517455 5.95221818,54.6612 C5.94894545,54.6295636 5.94349091,54.6001091 5.94130909,54.5684727 L5.94785455,54.5684727 C5.94785455,54.5062909 5.95221818,54.4452 5.95876364,54.3841091 C6.07112727,53.4219273 6.98421818,52.7073818 7.99658182,52.7881091 C8.80385455,52.8513818 9.42894545,53.3990182 9.59476364,54.1048364 C9.60458182,54.1495636 9.61330909,54.1953818 9.62094545,54.2422909 L9.62203636,54.2422909 C9.62203636,54.2422909 9.62530909,54.2706545 9.63730909,54.3186545 C9.67221818,54.4702909 9.78785455,54.8172 10.1227636,55.0310182 C10.1238545,55.0321091 10.1238545,55.0332 10.1238545,55.0332 C10.5100364,55.2721091 10.7871273,55.6462909 10.8896727,56.0804727 C10.9322182,56.2615636 10.9442182,56.4524727 10.9213091,56.6477455 C10.8089455,57.6088364 9.89585455,58.3233818 8.88349091,58.2437455 C8.78967273,58.2361091 8.70021818,58.2208364 8.61294545,58.2012 L8.61185455,58.2022909 C8.61185455,58.2022909 6.65585455,57.8619273 6.07221818,55.3779273" id="Fill-30" fill="#C1C1C1"></path>
            <path d="M14.8278545,54.1382182 C14.7416727,53.7705818 14.5409455,53.4433091 14.2485818,53.1913091 C14.2442182,53.1869455 14.2409455,53.1836727 14.2365818,53.1814909 C14.0565818,53.0233091 13.9769455,52.8127636 13.9420364,52.6654909 C13.9093091,52.5247636 13.9125818,52.4200364 13.9125818,52.4189455 C13.9136727,52.4113091 13.9125818,52.4036727 13.9114909,52.3960364 C13.9114909,52.2596727 13.8962182,52.1244 13.8645818,51.9924 C13.7053091,51.3127636 13.1631273,50.7902182 12.4496727,50.6287636 C11.9413091,50.5142182 11.4100364,50.5949455 10.9540364,50.8567636 C10.4980364,51.1174909 10.1729455,51.5276727 10.0376727,52.0131273 C10.0224,52.0665818 10.0104,52.1200364 10.0005818,52.1734909 C9.99294545,52.1865818 9.98749091,52.2018545 9.98749091,52.2171273 L9.98312727,52.3120364 C9.97221818,52.4058545 9.96894545,52.5029455 9.9744,52.5924 C9.97003636,53.0276727 10.0136727,53.4465818 10.1031273,53.8305818 C10.5624,55.7865818 12.0580364,56.2982182 12.1224,56.3200364 C12.1278545,56.3211273 12.1333091,56.3222182 12.1387636,56.3233091 C12.2325818,56.3593091 12.3144,56.3833091 12.3951273,56.4018545 C12.9034909,56.5164 13.4347636,56.4356727 13.8896727,56.1749455 C14.3456727,55.9131273 14.6707636,55.5029455 14.8071273,55.0185818 C14.8878545,54.7294909 14.8954909,54.4251273 14.8278545,54.1382182" id="Fill-32" fill="#FFFFFF"></path>
            <path d="M9.98105455,53.8590545 C10.4556,55.8772364 12.0123273,56.4096 12.0777818,56.4314182 C12.0843273,56.4336 12.0919636,56.4357818 12.0985091,56.4368727 C12.1934182,56.4728727 12.2774182,56.4979636 12.3625091,56.5176 C12.9036,56.6386909 13.4676,56.5536 13.9530545,56.2754182 C14.4374182,55.9972364 14.7832364,55.5608727 14.9283273,55.0448727 C15.0134182,54.7383273 15.0221455,54.4143273 14.9501455,54.1088727 C14.8585091,53.7194182 14.6468727,53.3725091 14.3381455,53.1063273 C14.3348727,53.1030545 14.3316,53.1008727 14.3283273,53.0976 C14.1657818,52.9546909 14.0948727,52.7681455 14.0654182,52.6372364 C14.0359636,52.5128727 14.0381455,52.4201455 14.0381455,52.4201455 C14.0381455,52.4081455 14.0381455,52.3961455 14.0359636,52.3830545 C14.0359636,52.2423273 14.0196,52.1005091 13.9868727,51.9630545 C13.8177818,51.2408727 13.2406909,50.6856 12.4814182,50.5143273 C11.9403273,50.3921455 11.3763273,50.4772364 10.8908727,50.7554182 C10.4065091,51.0336 10.0606909,51.4699636 9.91669091,51.9859636 C9.90250909,52.0339636 9.89050909,52.0841455 9.88069091,52.1343273 C9.86978182,52.1594182 9.86323636,52.1866909 9.86214545,52.2139636 C9.85996364,52.2346909 9.85996364,52.2543273 9.85887273,52.2739636 L9.85778182,52.3045091 C9.84687273,52.4070545 9.8436,52.5030545 9.84796364,52.5957818 C9.84469091,53.0430545 9.88941818,53.4685091 9.98105455,53.8590545 M10.2254182,53.8012364 C10.1425091,53.4466909 10.0945091,53.0430545 10.0988727,52.5837818 C10.0945091,52.4954182 10.0977818,52.4048727 10.1076,52.3143273 C10.1086909,52.2826909 10.1097818,52.2532364 10.1119636,52.2216 L10.1174182,52.2216 C10.1283273,52.1616 10.1414182,52.1005091 10.1588727,52.0405091 C10.4206909,51.1023273 11.4319636,50.5219636 12.4170545,50.7445091 C13.1065091,50.9005091 13.5985091,51.4077818 13.7425091,52.0197818 C13.7730545,52.1496 13.7872364,52.2826909 13.7861455,52.4179636 L13.7872364,52.4179636 C13.7872364,52.4179636 13.7828727,52.5357818 13.8210545,52.6950545 C13.8614182,52.8696 13.9530545,53.0943273 14.1548727,53.2732364 L14.1559636,53.2743273 C14.4330545,53.5099636 14.6239636,53.8219636 14.7057818,54.1666909 C14.7668727,54.4285091 14.7646909,54.7099636 14.6861455,54.9914182 C14.4232364,55.9285091 13.4119636,56.5088727 12.4268727,56.2863273 C12.3363273,56.2666909 12.2512364,56.2383273 12.1672364,56.2056 L12.1661455,56.2077818 C12.1661455,56.2077818 10.6759636,55.7179636 10.2254182,53.8012364" id="Fill-34" fill="#C1C1C1"></path>
            <path d="M17.1002182,56.6986909 C17.7951273,57.1350545 18.7311273,56.9888727 19.3256727,56.3496 C19.5122182,56.1488727 19.6518545,55.9143273 19.7424,55.6514182 L19.7849455,55.5270545 L19.7871273,55.5270545 L20.2245818,54.2517818 L20.2649455,54.1274182 C20.4940364,53.4586909 20.3347636,52.7266909 19.8580364,52.2619636 C19.7751273,52.1801455 19.6824,52.1081455 19.5842182,52.0459636 C18.8893091,51.6096 17.9533091,51.7557818 17.3587636,52.3950545 C17.1722182,52.5957818 17.0325818,52.8314182 16.9420364,53.0943273 L16.8962182,53.2296 L16.8940364,53.2285091 L16.4598545,54.4939636 L16.4194909,54.6172364 C16.1914909,55.2859636 16.3507636,56.0179636 16.8264,56.4826909 C16.9104,56.5645091 17.0020364,56.6376 17.1002182,56.6986909" id="Fill-36" fill="#FFFFFF"></path>
            <path d="M19.656,51.9324 C18.9218182,51.4709455 17.9203636,51.6073091 17.2690909,52.3065818 C17.0618182,52.5291273 16.9134545,52.7865818 16.8207273,53.0560364 L16.8185455,53.0560364 L16.296,54.5800364 L16.2981818,54.5800364 C16.0603636,55.2771273 16.2032727,56.0614909 16.7356364,56.5807636 C16.8261818,56.6702182 16.9254545,56.7476727 17.0290909,56.8131273 C17.7632727,57.2734909 18.7647273,57.1382182 19.416,56.4378545 C19.6232727,56.2153091 19.7705455,55.9578545 19.8632727,55.6884 L19.8654545,55.6884 L20.388,54.1654909 L20.3858182,54.1644 C20.6247273,53.4673091 20.4807273,52.6829455 19.9494545,52.1636727 C19.8589091,52.0742182 19.7596364,51.9978545 19.656,51.9324 M19.5130909,52.1593091 C19.6036364,52.2171273 19.6898182,52.2847636 19.7672727,52.3600364 C20.208,52.7909455 20.3563636,53.4705818 20.1447273,54.0902182 L20.0574545,54.3422182 L20.0596364,54.3433091 L19.7105455,55.3611273 L19.6210909,55.6131273 C19.5381818,55.8574909 19.4072727,56.0756727 19.2349091,56.2611273 C18.684,56.8534909 17.8156364,56.9898545 17.172,56.5851273 C17.0814545,56.5284 16.9952727,56.4607636 16.9178182,56.3844 C16.476,55.9534909 16.3287273,55.2749455 16.5403636,54.6553091 L16.6276364,54.4011273 L16.6254545,54.4011273 L16.9745455,53.3844 L17.064,53.1313091 C17.1469091,52.8869455 17.2767273,52.6698545 17.4501818,52.4833091 C18.0010909,51.8909455 18.8683636,51.7545818 19.5130909,52.1593091" id="Fill-38" fill="#C1C1C1"></path>
            <path d="M7.56327273,71.9490545 C2.99127273,64.2003273 4.60690909,55.5766909 11.352,53.0926909 C14.3367273,51.9941455 17.9181818,52.1545091 20.3105455,55.9432364 C20.3105455,55.9432364 29.568,75.6625091 48.6643636,80.8868727 C51.0207273,82.0028727 45.3349091,92.3752364 42.9654545,92.3763273 C32.3029091,92.3763273 15.696,85.7294182 7.56327273,71.9490545" id="Fill-40" fill="#222222"></path>
            <path d="M22.9899273,60.5983636 C23.2539273,61.0052727 23.5375636,61.4307273 23.8397455,61.8725455 C21.7059273,68.9078182 15.9884727,73.8845455 9.33501818,74.6536364 C9.31974545,74.6329091 9.30447273,74.6121818 9.28810909,74.5903636 C9.11247273,74.3438182 8.94229091,74.0918182 8.77101818,73.8398182 C8.69247273,73.7230909 8.61174545,73.6085455 8.53429091,73.4907273 C15.3066545,73.0314545 21.1692,67.8867273 22.9899273,60.5983636" id="Fill-42" fill="#6D6D6D"></path>
            <path d="M32.9568,72.2117455 C33.2884364,72.5019273 33.6277091,72.7888364 33.9735273,73.0735636 C32.5564364,79.3517455 28.1786182,84.3382909 22.5146182,86.3368364 C22.3531636,86.2441091 22.1906182,86.1524727 22.0291636,86.0575636 C21.9658909,86.0193818 21.9015273,85.9833818 21.8382545,85.9441091 C21.5928,85.7968364 21.3473455,85.6441091 21.1029818,85.4902909 C27.0680727,83.8517455 31.7088,78.7255636 32.9568,72.2117455" id="Fill-44" fill="#6D6D6D"></path>
            <path d="M85.4061818,25.0160727 C85.2490909,24.1324364 84.4461818,23.5618909 83.6127273,23.7418909 L79.0505455,24.4466182 L79.0516364,24.4520727 C79.0265455,24.4564364 79.0014545,24.4542545 78.9763636,24.4597091 C77.9989091,24.6702545 77.3563636,25.6793455 77.5407273,26.7146182 C77.7250909,27.7498909 78.6665455,28.4186182 79.644,28.2091636 C79.6701818,28.2026182 79.6941818,28.1906182 79.7214545,28.1829818 L79.7225455,28.1906182 L84.1810909,26.9393455 C85.0156364,26.7604364 85.5632727,25.8997091 85.4061818,25.0160727" id="Fill-46" fill="#222222"></path>
            <path d="M58.0817455,22.1007273 C58.0588364,22.0898182 58.0337455,22.0854545 58.0097455,22.0756364 L58.0130182,22.0701818 L53.7224727,20.3661818 C52.9501091,20.0061818 52.0392,20.3825455 51.6901091,21.2083636 C51.3399273,22.0341818 51.6824727,22.9963636 52.4548364,23.3563636 L56.5228364,25.5698182 L56.5250182,25.5643636 C56.5501091,25.5763636 56.5697455,25.5949091 56.5948364,25.6058182 C57.5002909,26.0290909 58.5672,25.5861818 58.9784727,24.6185455 C59.3886545,23.6509091 58.9872,22.5229091 58.0817455,22.1007273" id="Fill-48" fill="#222222"></path>
            <path d="M43.0700727,94.3984364 C50.4762545,88.2828 61.1791636,89.0431636 61.1791636,89.0431636 C61.1791636,89.0431636 71.7544364,88.2893455 79.1551636,94.2871636 L79.1628,94.3984364 L43.0700727,94.3984364 Z" id="Fill-50" fill="#FFFFFF"></path>
            <path d="M48.2380364,27.3938182 C47.6205818,27.324 47.0107636,27.3163636 46.4107636,27.36 L46.4096727,27.36 L46.3987636,27.3610909 C45.8118545,27.4047273 45.2347636,27.4985455 44.6729455,27.6425455 C32.7394909,30.0850909 28.2078545,42.8487273 28.2078545,42.8487273 L28.2078545,42.8498182 C27.8260364,43.8043636 27.5609455,44.8287273 27.4387636,45.9065455 C26.7504,52.0014545 30.8358545,57.4658182 36.5631273,58.1127273 L44.6653091,59.028 C50.3936727,59.6749091 55.5940364,55.2578182 56.2824,49.164 L57.3624,39.5989091 C58.0507636,33.5050909 53.9653091,28.0407273 48.2380364,27.3938182" id="Fill-52" fill="#222222"></path>
            <path d="M84.3152727,57.6681818 C89.1730909,58.5169091 93.7690909,55.0990909 94.4094545,50.0994545 L94.5927273,48.6692727 C95.2254545,43.7361818 91.7269091,39.2361818 86.9323636,38.6394545 C82.2534545,38.0558182 77.9498182,41.4070909 77.2603636,46.1132727 L77.0607273,47.4769091 C76.3614545,52.2430909 79.5774545,56.8401818 84.3152727,57.6681818" id="Fill-54" fill="#FFFFFF"></path>
            <path d="M79.3843636,47.1266182 C78.8367273,50.9284364 81.1756364,54.5011636 84.6709091,55.0869818 C88.2294545,55.6848 91.584,52.9618909 92.0978182,49.0248 C92.6094545,45.1193455 90.1145455,41.5957091 86.5898182,41.1331636 C83.1272727,40.6793455 79.9287273,43.3542545 79.3843636,47.1266182" id="Fill-56" fill="#222222"></path>
            <path d="M80.3846182,42.804 C80.1457091,44.5450909 81.2475273,46.152 82.8588,46.3898182 C84.4831636,46.6298182 85.9995273,45.3872727 86.2318909,43.6189091 C86.4642545,41.8570909 85.3297091,40.26 83.7118909,40.0483636 C82.1071636,39.8378182 80.6235273,41.0694545 80.3846182,42.804" id="Fill-58" fill="#FFFFFF"></path>
            <path d="M45.3860727,53.7285818 C50.2253455,54.0569455 54.4668,50.2725818 54.8878909,45.3602182 L55.0089818,43.9551273 C55.4257091,39.0940364 51.9435273,34.7489455 47.1980727,34.2536727 C42.3675273,33.7496727 37.9406182,37.4020364 37.4355273,42.4158545 L37.2904364,43.8667636 C36.7798909,48.9362182 40.4584364,53.3936727 45.3860727,53.7285818" id="Fill-60" fill="#FFFFFF"></path>
            <path d="M52.6432364,44.4584727 C52.3006909,48.3693818 49.1665091,51.3519273 45.6036,51.0933818 C41.9937818,50.8304727 39.3526909,47.3493818 39.7476,43.3468364 C40.1403273,39.3704727 43.3748727,36.4566545 46.9334182,36.8112 C50.4450545,37.1602909 52.9836,40.5715636 52.6432364,44.4584727" id="Fill-62" fill="#222222"></path>
            <path d="M46.7337818,39.1136727 C46.5777818,40.8787636 45.1661455,42.2009455 43.5712364,42.0613091 C41.9654182,41.9216727 40.7937818,40.3573091 40.9596,38.5736727 C41.1243273,36.7954909 42.5577818,35.4874909 44.1516,35.6456727 C45.7366909,35.8038545 46.8886909,37.3540364 46.7337818,39.1136727" id="Fill-64" fill="#FFFFFF"></path>
        </g>
    </g>
</svg>