<?xml version="1.0" encoding="UTF-8"?>
<svg width="120px" height="120px" viewBox="0 0 120 120" version="1.1" xmlns="http://www.w3.org/2000/svg" xmlns:xlink="http://www.w3.org/1999/xlink">
    <!-- Generator: Sketch 51.1 (57501) - http://www.bohemiancoding.com/sketch -->
    <title>Trailer2</title>
    <desc>Created with Sketch.</desc>
    <defs></defs>
    <g id="Trailer2" stroke="none" stroke-width="1" fill="none" fill-rule="evenodd">
        <g id="Group-7" transform="translate(2.000000, 18.000000)">
            <polygon id="Fill-204" fill="#231F20" points="13.1002576 84.7542727 16.0076281 84.7542727 25.3625034 68.6480606 16.0076281 68.6480606"></polygon>
            <path d="M109.74403,3.584829 C109.74403,1.60811905 108.161395,0.00342207792 106.208982,0.00342207792 L8.8404003,0.00342207792 C6.88835014,0.00342207792 5.30498828,1.60811905 5.30498828,3.584829 L2.3663791,40.8490498 L112.68264,40.8490498 L109.74403,3.584829 Z" id="Fill-205" fill="#FAA519"></path>
            <polygon id="Fill-206" fill="#FAA519" points="1.56954017 50.955697 0.823809059 60.4304372 114.225791 60.4304372 113.47897 50.955697"></polygon>
            <polygon id="Fill-207" fill="#FF2700" points="112.682567 40.8492338 2.36630645 40.8492338 1.56935855 50.9557706 113.478788 50.9557706"></polygon>
            <path d="M0.316653787,66.8511753 C0.316653787,68.8275173 1.90001565,70.4311104 3.85170256,70.4311104 L111.196662,70.4311104 C113.148713,70.4311104 114.732074,68.8275173 114.732074,66.8511753 L114.225718,60.4305476 L0.823736411,60.4305476 L0.316653787,66.8511753 Z" id="Fill-208" fill="#FF2700"></path>
            <path d="M44.3782471,61.8491277 C44.3782471,63.8254697 42.7952485,65.4283268 40.8435615,65.4283268 L19.5435487,65.4283268 C17.5911353,65.4283268 16.0077734,63.8254697 16.0077734,61.8491277 L16.0077734,12.0085866 C16.0077734,10.0296688 17.5911353,8.4246039 19.5435487,8.4246039 L40.8435615,8.4246039 C42.7952485,8.4246039 44.3782471,10.0296688 44.3782471,12.0085866 L44.3782471,61.8491277 Z" id="Fill-209" fill="#FFDD00"></path>
            <path d="M37.7253667,12.8465173 L35.8078243,12.8465173 C34.6236628,21.8767554 27.8586866,29.1153701 19.1256777,30.8632056 L19.1256777,31.6896558 C19.1256777,33.6659978 20.7086764,35.2692229 22.6607265,35.2692229 L37.7253667,35.2692229 C39.6777801,35.2692229 41.2604154,33.6659978 41.2604154,31.6896558 L41.2604154,16.4275563 C41.2604154,14.4490065 39.6777801,12.8465173 37.7253667,12.8465173" id="Fill-210" fill="#B9E5FA"></path>
            <path d="M35.8077153,12.8465173 L22.6609808,12.8465173 C20.7089306,12.8465173 19.1255688,14.4490065 19.1255688,16.4275563 L19.1255688,30.8632056 C27.8585777,29.1153701 34.6235539,21.8767554 35.8077153,12.8465173" id="Fill-211" fill="#FFFFFF"></path>
            <path d="M68.4631098,8.42445671 L67.3047383,8.42445671 C67.3813819,9.16038745 67.4231545,9.90478139 67.4231545,10.663158 C67.4231545,22.3302359 58.1332991,31.7898896 46.6396685,31.892184 C47.1460246,33.6551061 48.7351983,34.9536558 50.6407538,34.9536558 L68.4631098,34.9536558 C70.7714981,34.9536558 72.6447252,33.0593701 72.6447252,30.7157987 L72.6447252,12.6637857 C72.6447252,10.3253658 70.7714981,8.42445671 68.4631098,8.42445671" id="Fill-212" fill="#B9E5FA"></path>
            <path d="M67.4230455,10.663158 C67.4230455,9.90478139 67.3816362,9.16038745 67.3046294,8.42445671 L50.6406448,8.42445671 C48.3300771,8.42445671 46.4572132,10.3253658 46.4572132,12.6637857 L46.4572132,30.7157987 C46.4572132,31.1297597 46.5324038,31.5164913 46.6395595,31.892184 C58.1331902,31.7898896 67.4230455,22.3302359 67.4230455,10.663158" id="Fill-213" fill="#FFFFFF"></path>
            <path d="M98.2359792,8.59118182 L97.0776078,8.59118182 C97.1542514,9.32490476 97.196024,10.0696667 97.196024,10.8276753 C97.196024,22.4925455 87.9065319,31.9566147 76.4129012,32.0567013 C76.9188941,33.8218312 78.5084311,35.1178052 80.41326,35.1178052 L98.2359792,35.1178052 C100.544368,35.1178052 102.417595,33.2216797 102.417595,30.8825238 L102.417595,12.8264632 C102.417595,10.4876753 100.544368,8.59118182 98.2359792,8.59118182" id="Fill-214" fill="#B9E5FA"></path>
            <path d="M97.1959513,10.8277121 C97.1959513,10.0693355 97.154542,9.32494156 97.0775352,8.59121861 L80.4131874,8.59121861 C78.1029829,8.59121861 76.230119,10.4877121 76.230119,12.8265 L76.230119,30.8825606 C76.230119,31.2921061 76.3060361,31.6810455 76.4128286,32.0563701 C87.9064592,31.9566515 97.1959513,22.4925823 97.1959513,10.8277121" id="Fill-215" fill="#FFFFFF"></path>
            <path d="M88.7392589,68.6478766 C88.7392589,77.5423355 81.6212137,84.7540887 72.8398939,84.7540887 C64.0582109,84.7540887 56.9401657,77.5423355 56.9401657,68.6478766 C56.9401657,59.7526818 64.0582109,52.5409286 72.8398939,52.5409286 C81.6212137,52.5409286 88.7392589,59.7526818 88.7392589,68.6478766" id="Fill-216" fill="#231F20"></path>
            <path d="M80.3219779,68.6478766 C80.3219779,72.8312749 76.9714549,76.2264913 72.8396033,76.2264913 C68.7073885,76.2264913 65.3572287,72.8312749 65.3572287,68.6478766 C65.3572287,64.4615346 68.7073885,61.0663182 72.8396033,61.0663182 C76.9714549,61.0663182 80.3219779,64.4615346 80.3219779,68.6478766" id="Fill-217" fill="#FFFFFF"></path>
        </g>
    </g>
</svg>