<?xml version="1.0" encoding="UTF-8"?>
<svg width="120px" height="120px" viewBox="0 0 120 120" version="1.1" xmlns="http://www.w3.org/2000/svg" xmlns:xlink="http://www.w3.org/1999/xlink">
    <!-- Generator: Sketch 51.1 (57501) - http://www.bohemiancoding.com/sketch -->
    <title>Trophy2</title>
    <desc>Created with Sketch.</desc>
    <defs></defs>
    <g id="Trophy2" stroke="none" stroke-width="1" fill="none" fill-rule="evenodd">
        <g id="Page-1" transform="translate(18.000000, -1.000000)">
            <path d="M30.2280372,75.3866588 C4.48146694,63.2525412 -2.01014463,50.4344235 0.500516529,42.4854824 C2.49134298,36.1777176 9.75006198,33.1664235 18.9932851,34.8188941 L17.791343,41.6130118 C12.2368388,40.6212471 7.91799587,41.8099529 7.04621901,44.5720706 C5.69043388,48.8638353 11.5224174,58.9487765 33.1433264,69.1388941 L30.2280372,75.3866588 Z" id="Fill-1" fill="#FFD786"></path>
            <path d="M54.4890041,75.3866588 L51.5730124,69.1388941 C73.194624,58.9487765 79.0266074,48.8638353 77.6708223,44.5720706 C76.7990455,41.8099529 72.4795,40.6205412 66.9256983,41.6130118 L65.7237562,34.8188941 C74.9669793,33.1671294 82.2249959,36.1777176 84.2165248,42.4854824 C86.727186,50.4344235 80.2348719,63.2525412 54.4890041,75.3866588" id="Fill-3" fill="#FFD786"></path>
            <polygon id="Fill-5" fill="#FFD786" points="39.1927273 102.270118 45.5234711 102.270118 45.5234711 66.6054118 39.1927273 66.6054118"></polygon>
            <path d="M8.46902066,26.8717176 L25.183814,72.4088941 C27.8370785,79.6364235 34.6918719,84.4378353 42.3580289,84.4378353 C50.0248884,84.4378353 56.8796818,79.6364235 59.5329463,72.4088941 L76.2477397,26.8717176 L8.46902066,26.8717176 Z" id="Fill-7" fill="#FBC955"></path>
            <path d="M46.0866488,102.270188 L38.6298306,102.270188 C31.8930537,102.270188 26.4319793,107.757718 26.4319793,114.527129 L58.2845,114.527129 C58.2845,107.757718 52.8234256,102.270188 46.0866488,102.270188" id="Fill-8" fill="#FBC955"></path>
            <polygon id="Fill-9" fill="#FFD786" points="24.6113636 120.821412 60.1041322 120.821412 60.1041322 114.46 24.6113636 114.46"></polygon>
            <polygon id="Fill-10" fill="#FFECC6" points="42.3581694 34.2800235 46.1663099 46.0569647 58.4892025 46.0569647 48.5196157 53.3353176 52.3277562 65.1122588 42.3581694 57.8332 32.3892851 65.1122588 36.1967231 53.3353176 26.2271364 46.0569647 38.5500289 46.0569647"></polygon>
            <path d="M70.9615826,41.2740471 C74.4880289,41.3474588 77.0253843,42.5269882 77.6709628,44.5719294 C78.7457562,47.9756941 75.2902603,55.0246353 63.0305909,62.8789882 L70.9615826,41.2740471 Z M59.2898884,72.9992235 C81.0414587,61.5971059 86.5629463,49.9147529 84.2166653,42.4853412 C82.8236488,38.0728706 78.8504256,35.2768706 73.4265826,34.5582824 L76.2477397,26.8719294 L42.3580289,26.8719294 L42.3580289,120.820635 L60.1047645,120.820635 L60.1047645,114.459929 L58.2832355,114.459929 C58.2460041,107.721576 52.8003843,102.270047 46.0867893,102.270047 L45.5234008,102.270047 L45.5234008,84.1514588 C51.6574504,83.0700471 56.890219,78.8989882 59.2898884,72.9992235 Z" id="Fill-11" fill="#FFD786" opacity="0.507019928"></path>
            <polygon id="Fill-12" fill="#FFFFFF" points="25.9287934 27.9257412 36.2257355 20.5055059 28.8412727 30.8523294 36.2257355 41.1998588 25.9287934 33.7789176 15.6318512 41.1998588 23.016314 30.8523294 15.6318512 20.5055059"></polygon>
            <polygon id="Fill-13" fill="#FFF6E4" points="39.575719 9.53418824 33.4852231 0.999364706 41.9781983 7.12007059 50.4711736 0.999364706 44.3806777 9.53418824 50.4711736 18.0683059 41.9781983 11.9476 33.4852231 18.0683059"></polygon>
        </g>
    </g>
</svg>