<?xml version="1.0" encoding="UTF-8"?>
<svg width="120px" height="120px" viewBox="0 0 120 120" version="1.1" xmlns="http://www.w3.org/2000/svg" xmlns:xlink="http://www.w3.org/1999/xlink">
    <!-- Generator: Sketch 51.1 (57501) - http://www.bohemiancoding.com/sketch -->
    <title>Tape1</title>
    <desc>Created with Sketch.</desc>
    <defs></defs>
    <g id="Tape1" stroke="none" stroke-width="1" fill="none" fill-rule="evenodd">
        <g id="Group" transform="translate(0.000000, 23.000000)">
            <path d="M70.221691,45.8270111 C70.7030904,43.4966321 70.9577843,41.0833376 70.9577843,38.6102181 C70.9577843,33.1377983 69.7165015,27.9561073 67.5036735,23.3275359 L69.8022157,20.7722006 C70.6957434,19.7793143 70.6145773,18.2501015 69.621691,17.3569236 L51.0153936,0.620247244 C50.0225073,-0.272930599 48.4932945,-0.191764418 47.6001166,0.80112188 L44.4678717,4.283221 C41.5966181,3.5334834 38.5850729,3.13150089 35.4787172,3.13150089 C15.8844315,3.13150089 0,19.0159324 0,38.6102181 C0,58.2048537 15.8844315,74.0892851 35.4787172,74.0892851 L77.2313703,74.0892851 L77.2313703,45.8270111 L70.221691,45.8270111" id="Fill-21" fill="#3A3A39"></path>
            <path d="M57.7280466,38.6599417 C57.7280466,50.9300292 47.7813411,60.8770845 35.5112536,60.8770845 C23.2411662,60.8770845 13.2944606,50.9300292 13.2944606,38.6599417 C13.2944606,26.3902041 23.2411662,16.4431487 35.5112536,16.4431487 C47.7813411,16.4431487 57.7280466,26.3902041 57.7280466,38.6599417" id="Fill-22" fill="#F3C547"></path>
            <path d="M41.4185423,38.7267638 C41.4185423,41.9524198 38.8037318,44.5675802 35.5780758,44.5675802 C32.3524198,44.5675802 29.7376093,41.9524198 29.7376093,38.7267638 C29.7376093,35.5014577 32.3524198,32.8862974 35.5780758,32.8862974 C38.8037318,32.8862974 41.4185423,35.5014577 41.4185423,38.7267638" id="Fill-23" fill="#3A3A39"></path>
            <polyline id="Fill-24" fill="#9EA0A0" points="77.3177843 74.4020991 113.097726 74.4020991 119.979359 68.5714286 77.3177843 68.5714286 77.3177843 74.4020991"></polyline>
        </g>
    </g>
</svg>