<?xml version="1.0" encoding="UTF-8"?>
<svg width="120px" height="120px" viewBox="0 0 120 120" version="1.1" xmlns="http://www.w3.org/2000/svg" xmlns:xlink="http://www.w3.org/1999/xlink">
    <!-- Generator: Sketch 48.2 (47327) - http://www.bohemiancoding.com/sketch -->
    <title>Shop7</title>
    <desc>Created with Sketch.</desc>
    <defs>
        <polygon id="path-1" points="0 89.6703297 119.037363 89.6703297 119.037363 0.328351648 0 0.328351648"></polygon>
    </defs>
    <g id="建筑" stroke="none" stroke-width="1" fill="none" fill-rule="evenodd">
        <g id="Shop7">
            <g id="Page-1" transform="translate(0.000000, 15.000000)">
                <polygon id="Fill-1" fill="#FFD873" points="11.2549451 88.9124835 107.771868 88.9124835 107.771868 7.31907692 11.2549451 7.31907692"></polygon>
                <polygon id="Fill-2" fill="#EDC256" points="11.2549451 88.9124835 107.771868 88.9124835 107.771868 59.646989 11.2549451 59.646989"></polygon>
                <polygon id="Fill-3" fill="#47C796" points="71.7481319 88.9124835 100.586374 88.9124835 100.586374 40.7001758 71.7481319 40.7001758"></polygon>
                <polygon id="Fill-4" fill="#9FECFF" points="73.9002198 88.9124835 98.4342857 88.9124835 98.4342857 42.5107253 73.9002198 42.5107253"></polygon>
                <polygon id="Fill-5" fill="#DEF8FF" points="73.9002198 72.9236044 98.4342857 48.9433846 98.4342857 46.4695385 73.9002198 70.4497582"></polygon>
                <polygon id="Fill-6" fill="#DEF8FF" points="73.9002198 80.3456703 98.4342857 56.3641319 98.4342857 51.4164396 73.9002198 75.397978"></polygon>
                <polygon id="Fill-7" fill="#DEF8FF" points="73.9002198 85.294022 98.4342857 61.3124835 98.4342857 58.8386374 73.9002198 82.8201758"></polygon>
                <polygon id="Fill-8" fill="#DB86B3" points="11.2545495 1.31894505 4.48312088 27.8178462 114.54422 27.8178462 107.772791 1.31894505"></polygon>
                <polygon id="Fill-9" fill="#4C6308" points="106.647692 88.911956 108.551868 88.911956 107.535165 59.4512967"></polygon>
                <polygon id="Fill-10" fill="#DB86B3" points="101.459473 81.9415385 102.643648 90.6606593 112.904308 90.6606593 114.085846 81.9415385"></polygon>
                <g id="Group-43" transform="translate(0.000000, 0.990725)">
                    <path d="M13.7340659,22.5853187 C13.4043956,23.2697143 12.9679121,23.8908132 12.447033,24.4261978 C11.2140659,25.6921319 9.51032967,26.4767473 7.62989011,26.4767473 C6.57098901,26.4767473 5.56879121,26.2288352 4.67340659,25.7857582 L5.03076923,24.3892747 C5.8021978,24.8257582 6.68703297,25.0736703 7.62989011,25.0736703 C9.12,25.0736703 10.469011,24.4525714 11.4448352,23.4490549 C12.2835165,22.587956 12.8492308,21.4407033 12.9956044,20.1615824 C11.4079121,19.9848791 9.98505495,19.2490549 8.9156044,18.1505934 C8.39472527,17.6165275 7.95824176,16.9954286 7.62857143,16.3123516 C7.38593407,16.8134505 7.08659341,17.2815824 6.73846154,17.7061978 L8.06769231,12.5066374 C9.38241758,12.3985055 10.5652747,11.8050989 11.4448352,10.9018022 C12.2835165,10.0380659 12.8492308,8.89345055 12.9956044,7.61301099 C11.7534066,7.47586813 10.6127473,6.99586813 9.66197802,6.26663736 L10.0483516,4.75674725 C11.0136264,5.68378022 12.3085714,6.25081319 13.7340659,6.25081319 L13.7340659,10.0367473 C13.4043956,10.7211429 12.9679121,11.3422418 12.447033,11.8776264 C11.3775824,12.9760879 9.95472527,13.7119121 8.36703297,13.8872967 C8.51472527,15.1677363 9.07912088,16.3136703 9.9178022,17.1747692 C10.8949451,18.1782857 12.243956,18.7993846 13.7340659,18.7993846 L13.7340659,22.5853187 Z M13.7340659,6.25081319 C14.8668132,6.25081319 15.9191209,5.89213187 16.7868132,5.28026374 L16.7868132,6.91410989 C16.0773626,7.27938462 15.298022,7.52202198 14.4738462,7.61301099 C14.6189011,8.89345055 15.1859341,10.0380659 16.0246154,10.9018022 C16.258022,11.1418022 16.5125275,11.3593846 16.7868132,11.5532308 L16.7868132,13.1870769 C16.1301099,12.8494945 15.5353846,12.4050989 15.0210989,11.8763077 C14.5002198,11.3422418 14.0650549,10.7211429 13.7340659,10.0367473 L13.7340659,6.25081319 Z M16.7868132,25.736967 C16.1301099,25.3980659 15.5353846,24.9536703 15.0210989,24.4248791 C14.5002198,23.8908132 14.0650549,23.2697143 13.7340659,22.5853187 L13.7340659,18.7993846 C14.8668132,18.7993846 15.9191209,18.4407033 16.7868132,17.8288352 L16.7868132,19.4613626 C16.0773626,19.827956 15.298022,20.0705934 14.4738462,20.1615824 C14.6189011,21.4407033 15.1859341,22.587956 16.0246154,23.4490549 C16.258022,23.6903736 16.5125275,23.907956 16.7868132,24.1018022 L16.7868132,25.736967 Z M19.8408791,12.5250989 L19.8408791,16.311033 C19.5098901,16.9954286 19.0734066,17.6165275 18.5525275,18.1505934 C18.0395604,18.6793846 17.4435165,19.1237802 16.7868132,19.4613626 L16.7868132,17.8288352 C17.0610989,17.6336703 17.3156044,17.4160879 17.5503297,17.1747692 C18.389011,16.3136703 18.9547253,15.1677363 19.1010989,13.8872967 C18.2769231,13.7963077 17.4975824,13.5536703 16.7868132,13.1870769 L16.7868132,11.5532308 C17.6558242,12.1664176 18.7068132,12.5250989 19.8408791,12.5250989 Z M16.7868132,5.28026374 C17.0610989,5.08641758 17.3156044,4.86751648 17.5503297,4.62751648 C18.5314286,3.62004396 19.1393407,2.22224176 19.1393407,0.679384615 L19.8408791,0.679384615 L19.8408791,3.76378022 C19.5098901,4.44685714 19.0734066,5.06795604 18.5525275,5.60334066 C18.0395604,6.13081319 17.4435165,6.57520879 16.7868132,6.91410989 L16.7868132,5.28026374 Z M19.8408791,26.4767473 C18.7424176,26.4767473 17.7059341,26.2103736 16.7868132,25.736967 L16.7868132,24.1018022 C17.6558242,24.714989 18.7068132,25.0736703 19.8408791,25.0736703 L19.8408791,26.4767473 Z M22.8936264,11.5532308 L22.8936264,13.1883956 C22.1841758,13.5536703 21.4035165,13.7963077 20.5793407,13.8872967 C20.7257143,15.1677363 21.2901099,16.3136703 22.1301099,17.1747692 C22.3635165,17.4160879 22.6193407,17.6336703 22.8936264,17.8275165 L22.8936264,19.4613626 C22.2369231,19.1237802 21.6421978,18.6793846 21.1265934,18.1505934 C20.607033,17.6165275 20.1705495,16.9954286 19.8408791,16.311033 L19.8408791,12.5250989 C20.9736264,12.5250989 22.0259341,12.1664176 22.8936264,11.5532308 Z M19.8408791,0.679384615 L20.5424176,0.679384615 C20.5424176,2.22224176 21.149011,3.62004396 22.1301099,4.62751648 C22.3635165,4.86751648 22.6193407,5.08641758 22.8936264,5.27894505 L22.8936264,6.91410989 C22.2369231,6.57520879 21.6421978,6.13081319 21.1265934,5.60334066 C20.607033,5.06795604 20.1705495,4.44685714 19.8408791,3.76378022 L19.8408791,0.679384615 Z M22.8936264,25.736967 C21.9745055,26.2103736 20.938022,26.4767473 19.8408791,26.4767473 L19.8408791,25.0736703 C20.9736264,25.0736703 22.0259341,24.714989 22.8936264,24.1018022 L22.8936264,25.736967 Z M22.8936264,5.27894505 C23.7613187,5.89213187 24.8123077,6.25081319 25.9463736,6.25081319 L25.9463736,10.0367473 C25.6167033,10.7211429 25.1802198,11.3422418 24.6593407,11.8763077 C24.1450549,12.4050989 23.549011,12.8494945 22.8936264,13.1883956 L22.8936264,11.5532308 C23.1665934,11.3593846 23.4224176,11.1418022 23.6558242,10.9018022 C24.4958242,10.0380659 25.0615385,8.89345055 25.2079121,7.61301099 C24.3824176,7.52202198 23.6017582,7.27938462 22.8936264,6.91410989 L22.8936264,5.27894505 Z M25.9463736,22.5853187 C25.6167033,23.2697143 25.1802198,23.8908132 24.6593407,24.4248791 C24.1450549,24.9536703 23.549011,25.3980659 22.8936264,25.736967 L22.8936264,24.1018022 C23.1665934,23.907956 23.4224176,23.6903736 23.6558242,23.4490549 C24.4958242,22.587956 25.0615385,21.4407033 25.2079121,20.1615824 C24.3824176,20.0705934 23.6017582,19.827956 22.8936264,19.4613626 L22.8936264,17.8275165 C23.7613187,18.4407033 24.8123077,18.7993846 25.9463736,18.7993846 L25.9463736,22.5853187 Z M25.9463736,6.25081319 C27.0791209,6.25081319 28.1314286,5.89213187 28.9991209,5.27894505 L28.9991209,6.91410989 C28.2896703,7.27938462 27.509011,7.52202198 26.6848352,7.61301099 C26.8312088,8.89345055 27.3969231,10.0380659 28.2356044,10.9018022 C28.4703297,11.1418022 28.7248352,11.3593846 28.9991209,11.5532308 L28.9991209,13.1883956 C28.3424176,12.8494945 27.7463736,12.4050989 27.2334066,11.8763077 C26.7125275,11.3422418 26.2773626,10.7211429 25.9463736,10.0367473 L25.9463736,6.25081319 Z M28.9991209,25.736967 C28.3424176,25.3967473 27.7463736,24.9536703 27.2334066,24.4248791 C26.7125275,23.8908132 26.2773626,23.2697143 25.9463736,22.5853187 L25.9463736,18.7993846 C27.0791209,18.7993846 28.1314286,18.4407033 28.9991209,17.8275165 L28.9991209,19.4613626 C28.2896703,19.827956 27.509011,20.0705934 26.6848352,20.1615824 C26.8312088,21.4407033 27.3969231,22.587956 28.2356044,23.4490549 C28.4703297,23.6903736 28.7248352,23.907956 28.9991209,24.1018022 L28.9991209,25.736967 Z M32.0531868,12.5250989 L32.0531868,16.3123516 C31.7221978,16.9954286 31.2857143,17.6165275 30.7648352,18.1505934 C30.2505495,18.6793846 29.6558242,19.1237802 28.9991209,19.4613626 L28.9991209,17.8275165 C29.2720879,17.6336703 29.5279121,17.4160879 29.7626374,17.1747692 C30.6013187,16.3136703 31.167033,15.1677363 31.3134066,13.8872967 C30.4892308,13.7963077 29.7085714,13.5536703 28.9991209,13.1883956 L28.9991209,11.5532308 C29.8668132,12.1664176 30.9191209,12.5250989 32.0531868,12.5250989 Z M28.9991209,5.27894505 C29.2720879,5.08641758 29.5279121,4.86751648 29.7626374,4.62751648 C30.7437363,3.62004396 31.3503297,2.22224176 31.3503297,0.679384615 L32.0531868,0.679384615 L32.0531868,3.76378022 C31.7221978,4.44817582 31.2857143,5.06795604 30.7648352,5.60334066 C30.2505495,6.13081319 29.6558242,6.57520879 28.9991209,6.91410989 L28.9991209,5.27894505 Z M32.0531868,26.4767473 C30.9547253,26.4767473 29.9169231,26.2103736 28.9991209,25.736967 L28.9991209,24.1018022 C29.8668132,24.714989 30.9191209,25.0736703 32.0531868,25.0736703 L32.0531868,26.4767473 Z M35.1046154,11.5532308 L35.1046154,13.1883956 C34.3951648,13.5536703 33.6145055,13.7963077 32.7916484,13.8872967 C32.938022,15.1677363 33.5024176,16.3136703 34.3410989,17.1747692 C34.5758242,17.4160879 34.8316484,17.6336703 35.1046154,17.8275165 L35.1046154,19.4613626 C34.4479121,19.1237802 33.8531868,18.6793846 33.3389011,18.1505934 C32.818022,17.6165275 32.3828571,16.9954286 32.0531868,16.3123516 L32.0531868,12.5250989 C33.1846154,12.5250989 34.2369231,12.1664176 35.1046154,11.5532308 Z M32.0531868,0.679384615 L32.7534066,0.679384615 C32.7534066,2.22224176 33.36,3.62004396 34.3410989,4.62751648 C34.5758242,4.86751648 34.8316484,5.08641758 35.1046154,5.27894505 L35.1046154,6.91410989 C34.4479121,6.57520879 33.8531868,6.13081319 33.3389011,5.60334066 C32.818022,5.06795604 32.3828571,4.44817582 32.0531868,3.76378022 L32.0531868,0.679384615 Z M35.1046154,25.736967 C34.1868132,26.2103736 33.1503297,26.4767473 32.0531868,26.4767473 L32.0531868,25.0736703 C33.1846154,25.0736703 34.2369231,24.714989 35.1046154,24.1018022 L35.1046154,25.736967 Z M35.1046154,5.27894505 C35.9723077,5.89213187 37.0246154,6.25081319 38.1573626,6.25081319 L38.1573626,10.0380659 C37.8276923,10.7211429 37.3898901,11.3422418 36.8716484,11.8763077 C36.3573626,12.4050989 35.7613187,12.8494945 35.1046154,13.1883956 L35.1046154,11.5532308 C35.3789011,11.3593846 35.6347253,11.1418022 35.8681319,10.9018022 C36.7068132,10.0380659 37.2725275,8.89345055 37.4189011,7.61301099 C36.5947253,7.52202198 35.8140659,7.27938462 35.1046154,6.91410989 L35.1046154,5.27894505 Z M38.1573626,22.5853187 C37.8276923,23.2697143 37.3898901,23.8908132 36.8716484,24.4248791 C36.3573626,24.9536703 35.7613187,25.3980659 35.1046154,25.736967 L35.1046154,24.1018022 C35.3789011,23.907956 35.6347253,23.6903736 35.8681319,23.4490549 C36.7068132,22.587956 37.2725275,21.4407033 37.4189011,20.1615824 C36.5947253,20.0705934 35.8140659,19.827956 35.1046154,19.4613626 L35.1046154,17.8275165 C35.9723077,18.4407033 37.0246154,18.7993846 38.1573626,18.7993846 L38.1573626,22.5853187 Z M38.1573626,6.25081319 C39.2914286,6.25081319 40.3424176,5.89213187 41.2101099,5.27894505 L41.2101099,6.91410989 C40.501978,7.27938462 39.7213187,7.52202198 38.8971429,7.61301099 C39.0435165,8.89345055 39.6079121,10.0380659 40.4479121,10.9018022 C40.6813187,11.1418022 40.9371429,11.3593846 41.2101099,11.5532308 L41.2101099,13.1870769 C40.5547253,12.8494945 39.9586813,12.4050989 39.4443956,11.8763077 C38.9248352,11.3422418 38.487033,10.7211429 38.1573626,10.0367473 L38.1573626,10.0380659 L38.1573626,6.25081319 Z M41.2101099,25.736967 C40.5547253,25.3980659 39.9586813,24.9536703 39.4443956,24.4248791 C38.9248352,23.8908132 38.487033,23.2697143 38.1573626,22.5853187 L38.1573626,18.7993846 C39.2914286,18.7993846 40.3424176,18.4393846 41.2101099,17.8275165 L41.2101099,19.4613626 C40.501978,19.827956 39.7213187,20.0705934 38.8971429,20.1615824 C39.0435165,21.4407033 39.6079121,22.587956 40.4479121,23.4490549 C40.6813187,23.6903736 40.9371429,23.907956 41.2101099,24.1018022 L41.2101099,25.736967 Z M44.2628571,12.5250989 L44.2628571,16.3123516 C43.9331868,16.9954286 43.4967033,17.6165275 42.9758242,18.1505934 C42.4628571,18.6793846 41.8668132,19.1237802 41.2101099,19.4613626 L41.2101099,17.8275165 C41.4843956,17.6336703 41.7402198,17.4160879 41.9749451,17.1760879 C42.8136264,16.3136703 43.378022,15.1677363 43.5243956,13.8872967 C42.7002198,13.7963077 41.9208791,13.5536703 41.2101099,13.1870769 L41.2101099,11.5532308 C42.0791209,12.1664176 43.1301099,12.5250989 44.2628571,12.5250989 Z M41.2101099,5.27894505 C41.4843956,5.08641758 41.7402198,4.86751648 41.9749451,4.62751648 C42.956044,3.62004396 43.5626374,2.22356044 43.5626374,0.679384615 L44.2628571,0.679384615 L44.2628571,3.76378022 C43.9331868,4.44817582 43.4967033,5.06795604 42.9758242,5.60334066 C42.4628571,6.13081319 41.8668132,6.57520879 41.2101099,6.91410989 L41.2101099,5.27894505 Z M44.2628571,26.4767473 C43.1657143,26.4767473 42.1292308,26.2103736 41.2101099,25.736967 L41.2101099,24.1018022 C42.0791209,24.714989 43.1301099,25.0736703 44.2628571,25.0736703 L44.2628571,26.4767473 Z M47.3169231,11.5532308 L47.3169231,13.1883956 C46.6074725,13.5536703 45.8268132,13.7963077 45.0026374,13.8872967 C45.149011,15.1677363 45.7147253,16.3136703 46.5534066,17.1747692 C46.7868132,17.4160879 47.0426374,17.6336703 47.3169231,17.8275165 L47.3169231,19.4613626 C46.6602198,19.1237802 46.0654945,18.6793846 45.5512088,18.1505934 C45.0303297,17.6165275 44.5938462,16.9954286 44.2628571,16.3123516 L44.2628571,12.5250989 C45.3969231,12.5250989 46.4492308,12.1664176 47.3169231,11.5532308 Z M44.2628571,0.679384615 L44.9657143,0.679384615 C44.9657143,2.22224176 45.5723077,3.62004396 46.5534066,4.62751648 C46.7868132,4.86751648 47.0426374,5.08641758 47.3169231,5.27894505 L47.3169231,6.91410989 C46.6602198,6.57520879 46.0654945,6.13081319 45.5512088,5.60334066 C45.0303297,5.06795604 44.5938462,4.44685714 44.2628571,3.76378022 L44.2628571,0.679384615 Z M47.3169231,25.736967 C46.3991209,26.2103736 45.3613187,26.4767473 44.2628571,26.4767473 L44.2628571,25.0736703 C45.3969231,25.0736703 46.4492308,24.714989 47.3169231,24.1018022 L47.3169231,25.736967 Z M47.3169231,5.27894505 C48.1846154,5.89213187 49.2369231,6.25081319 50.3696703,6.25081319 L50.3696703,10.0380659 C50.0386813,10.7211429 49.6021978,11.3422418 49.0826374,11.8776264 C48.5696703,12.4050989 47.9736264,12.8494945 47.3169231,13.1883956 L47.3169231,11.5532308 C47.5912088,11.3593846 47.8457143,11.1418022 48.0791209,10.9018022 C48.9204396,10.0380659 49.4848352,8.89345055 49.6312088,7.61301099 C48.807033,7.52202198 48.0263736,7.27938462 47.3169231,6.91410989 L47.3169231,5.27894505 Z M50.3696703,22.5853187 C50.0386813,23.2697143 49.6021978,23.8908132 49.0826374,24.4261978 C48.5696703,24.9536703 47.9736264,25.3980659 47.3169231,25.736967 L47.3169231,24.1018022 C47.5912088,23.907956 47.8457143,23.6903736 48.0791209,23.4490549 C48.9204396,22.587956 49.4848352,21.4407033 49.6312088,20.1615824 C48.807033,20.0705934 48.0263736,19.827956 47.3169231,19.4613626 L47.3169231,17.8275165 C48.1846154,18.4407033 49.2369231,18.7993846 50.3696703,18.7993846 L50.3696703,22.5853187 Z M50.3696703,6.25081319 C51.5024176,6.25081319 52.5534066,5.89213187 53.4224176,5.28026374 L53.4224176,6.91410989 C52.712967,7.27938462 51.9336264,7.52202198 51.1081319,7.61301099 C51.2545055,8.89345055 51.8202198,10.0380659 52.6602198,10.9018022 C52.8936264,11.1418022 53.1494505,11.3593846 53.4224176,11.5532308 L53.4224176,13.1870769 C52.7657143,12.8494945 52.170989,12.4050989 51.6567033,11.8763077 C51.1358242,11.3422418 50.6993407,10.7211429 50.3696703,10.0367473 L50.3696703,10.0380659 L50.3696703,6.25081319 Z M53.4224176,25.736967 C52.7657143,25.3980659 52.170989,24.9536703 51.6567033,24.4248791 C51.1358242,23.8908132 50.6993407,23.2697143 50.3696703,22.5853187 L50.3696703,18.7993846 C51.5024176,18.7993846 52.5534066,18.4407033 53.4224176,17.8288352 L53.4224176,19.4613626 C52.712967,19.827956 51.9336264,20.0705934 51.1081319,20.1615824 C51.2545055,21.4407033 51.8202198,22.587956 52.6602198,23.4490549 C52.8936264,23.6903736 53.1494505,23.907956 53.4224176,24.1004835 L53.4224176,25.736967 Z M56.4751648,12.5250989 L56.4751648,16.3123516 C56.1454945,16.9954286 55.709011,17.6165275 55.1881319,18.1505934 C54.6738462,18.6793846 54.0791209,19.1237802 53.4224176,19.4613626 L53.4224176,17.8288352 C53.6967033,17.634989 53.9512088,17.4160879 54.1859341,17.1760879 C55.0246154,16.3136703 55.5903297,15.1677363 55.7367033,13.8872967 C54.9125275,13.7963077 54.1318681,13.5536703 53.4224176,13.1870769 L53.4224176,11.5532308 C54.2901099,12.1664176 55.3424176,12.5250989 56.4751648,12.5250989 Z M53.4224176,5.28026374 C53.6967033,5.08641758 53.9512088,4.86751648 54.1859341,4.62751648 C55.167033,3.62004396 55.7736264,2.22356044 55.7736264,0.679384615 L56.4751648,0.679384615 L56.4751648,3.76378022 C56.1454945,4.44817582 55.709011,5.06795604 55.1881319,5.60334066 C54.6738462,6.13081319 54.0791209,6.57520879 53.4224176,6.91410989 L53.4224176,5.28026374 Z M56.4751648,26.4767473 C55.378022,26.4767473 54.3402198,26.2103736 53.4224176,25.736967 L53.4224176,24.1004835 C54.2901099,24.714989 55.3424176,25.0736703 56.4751648,25.0736703 L56.4751648,26.4767473 Z M59.5292308,11.5532308 L59.5292308,13.1883956 C58.8184615,13.5536703 58.0391209,13.7963077 57.2149451,13.8872967 C57.36,15.1677363 57.9257143,16.3136703 58.7643956,17.1760879 C58.9991209,17.4160879 59.2549451,17.634989 59.5292308,17.8288352 L59.5292308,19.4613626 C58.8712088,19.1237802 58.2751648,18.6793846 57.7621978,18.1505934 C57.2413187,17.6165275 56.8061538,16.9954286 56.4751648,16.3123516 L56.4751648,12.5250989 C57.6092308,12.5250989 58.6602198,12.1664176 59.5292308,11.5532308 Z M56.4751648,0.679384615 L57.1767033,0.679384615 C57.1767033,2.22356044 57.7832967,3.62004396 58.7643956,4.62751648 C58.9991209,4.86751648 59.2549451,5.08641758 59.5292308,5.28026374 L59.5292308,6.91410989 C58.8712088,6.57520879 58.2751648,6.13081319 57.7621978,5.60334066 C57.2413187,5.06795604 56.8061538,4.44817582 56.4751648,3.76378022 L56.4751648,0.679384615 Z M59.5292308,25.736967 C58.6101099,26.2103736 57.5723077,26.4767473 56.4751648,26.4767473 L56.4751648,25.0736703 C57.6092308,25.0736703 58.6602198,24.714989 59.5292308,24.1018022 L59.5292308,25.736967 Z M59.5292308,5.28026374 C60.3956044,5.89213187 61.4479121,6.25081319 62.5806593,6.25081319 L62.5806593,10.0380659 C62.250989,10.7211429 61.8145055,11.3435604 61.2936264,11.8776264 C60.7806593,12.4050989 60.1846154,12.8494945 59.5292308,13.1883956 L59.5292308,11.5532308 C59.8021978,11.3593846 60.058022,11.1418022 60.2914286,10.9018022 C61.1301099,10.0380659 61.6958242,8.89345055 61.8421978,7.61301099 C61.018022,7.52202198 60.2373626,7.27938462 59.5292308,6.91410989 L59.5292308,5.28026374 Z M62.5806593,22.5866374 C62.250989,23.271033 61.8145055,23.8908132 61.2936264,24.4261978 C60.7806593,24.9536703 60.1846154,25.3980659 59.5292308,25.736967 L59.5292308,24.1018022 C59.8021978,23.907956 60.058022,23.6903736 60.2914286,23.4490549 C61.1301099,22.587956 61.6958242,21.442022 61.8421978,20.1615824 C61.018022,20.0705934 60.2373626,19.827956 59.5292308,19.4613626 L59.5292308,17.8288352 C60.3956044,18.4407033 61.4479121,18.7993846 62.5806593,18.7993846 L62.5806593,22.5866374 Z M62.5806593,6.25081319 C63.7134066,6.25081319 64.7657143,5.89213187 65.6334066,5.28026374 L65.6334066,6.91410989 C64.923956,7.27938462 64.1446154,7.52202198 63.3204396,7.61301099 C63.4668132,8.89345055 64.0312088,10.0380659 64.8698901,10.9018022 C65.1046154,11.1418022 65.3604396,11.3593846 65.6334066,11.5532308 L65.6334066,13.1870769 C64.9767033,12.8494945 64.381978,12.4050989 63.869011,11.8776264 C63.3481319,11.3422418 62.9103297,10.7211429 62.5806593,10.0367473 L62.5806593,10.0380659 L62.5806593,6.25081319 Z M65.6334066,25.736967 C64.9767033,25.3980659 64.381978,24.9536703 63.869011,24.4261978 C63.3481319,23.8908132 62.9103297,23.2697143 62.5806593,22.5853187 L62.5806593,22.5866374 L62.5806593,18.7993846 C63.7134066,18.7993846 64.7657143,18.4407033 65.6334066,17.8288352 L65.6334066,19.4613626 C64.923956,19.827956 64.1446154,20.0705934 63.3204396,20.1615824 C63.4668132,21.442022 64.0312088,22.587956 64.8698901,23.4490549 C65.1046154,23.6903736 65.3604396,23.907956 65.6334066,24.1018022 L65.6334066,25.736967 Z M68.6861538,12.5250989 L68.6861538,16.3123516 C68.3564835,16.9954286 67.92,17.6165275 67.3991209,18.1505934 C66.8861538,18.6793846 66.2901099,19.1237802 65.6334066,19.4613626 L65.6334066,17.8288352 C65.9076923,17.6336703 66.1635165,17.4160879 66.3982418,17.1747692 C67.2369231,16.3136703 67.8013187,15.1677363 67.9476923,13.8872967 C67.1221978,13.7963077 66.3441758,13.5536703 65.6334066,13.1870769 L65.6334066,11.5532308 C66.5024176,12.1664176 67.5534066,12.5250989 68.6861538,12.5250989 Z M65.6334066,5.28026374 C65.9076923,5.08641758 66.1635165,4.86751648 66.3982418,4.62751648 C67.378022,3.62004396 67.9859341,2.22224176 67.9859341,0.679384615 L68.6861538,0.679384615 L68.6861538,3.76378022 C68.3564835,4.44685714 67.92,5.06795604 67.3991209,5.60334066 C66.8861538,6.13081319 66.2901099,6.57520879 65.6334066,6.91410989 L65.6334066,5.28026374 Z M68.6861538,26.4767473 C67.589011,26.4767473 66.5525275,26.2103736 65.6334066,25.736967 L65.6334066,24.1018022 C66.5024176,24.714989 67.5534066,25.0736703 68.6861538,25.0736703 L68.6861538,26.4767473 Z M71.7389011,11.5532308 L71.7389011,13.1883956 C71.0307692,13.5536703 70.2501099,13.7963077 69.4246154,13.8872967 C69.5723077,15.1677363 70.1367033,16.3136703 70.9767033,17.1760879 C71.2101099,17.4160879 71.4659341,17.6336703 71.7389011,17.8275165 L71.7389011,19.4613626 C71.0835165,19.1237802 70.4874725,18.6793846 69.9731868,18.1505934 C69.4536264,17.6165275 69.0171429,16.9954286 68.6861538,16.3123516 L68.6861538,12.5250989 C69.8202198,12.5250989 70.8712088,12.1664176 71.7389011,11.5532308 Z M68.6861538,0.679384615 L69.389011,0.679384615 C69.389011,2.22356044 69.9956044,3.62004396 70.9767033,4.62751648 C71.2101099,4.86751648 71.4659341,5.08641758 71.7389011,5.27894505 L71.7389011,6.91279121 C71.0835165,6.57520879 70.4874725,6.13081319 69.9731868,5.60334066 C69.4536264,5.06795604 69.0171429,4.44817582 68.6861538,3.76378022 L68.6861538,0.679384615 Z M71.7389011,25.736967 C70.8210989,26.2103736 69.7832967,26.4767473 68.6861538,26.4767473 L68.6861538,25.0736703 C69.8202198,25.0736703 70.8712088,24.714989 71.7389011,24.1018022 L71.7389011,25.736967 Z M71.7389011,5.27894505 C72.6079121,5.89213187 73.6589011,6.25081319 74.792967,6.25081319 L74.792967,10.0367473 C74.461978,10.7211429 74.0268132,11.3422418 73.5059341,11.8763077 C72.9916484,12.4050989 72.3956044,12.8494945 71.7389011,13.1883956 L71.7389011,11.5532308 C72.0131868,11.3593846 72.269011,11.1418022 72.5024176,10.9018022 C73.3424176,10.0380659 73.9081319,8.89345055 74.0531868,7.61301099 C73.229011,7.52202198 72.4483516,7.27938462 71.7389011,6.91279121 L71.7389011,5.27894505 Z M74.792967,22.5853187 C74.461978,23.2697143 74.0268132,23.8908132 73.5059341,24.4248791 C72.9916484,24.9536703 72.3956044,25.3980659 71.7389011,25.736967 L71.7389011,24.1018022 C72.0131868,23.907956 72.269011,23.6903736 72.5024176,23.4490549 C73.3424176,22.587956 73.9081319,21.4407033 74.0531868,20.1615824 C73.229011,20.0705934 72.4483516,19.827956 71.7389011,19.4613626 L71.7389011,17.8275165 C72.6079121,18.4393846 73.6589011,18.7993846 74.792967,18.7993846 L74.792967,22.5853187 Z M74.792967,6.25081319 C75.9257143,6.25081319 76.9767033,5.89213187 77.8457143,5.28026374 L77.8457143,6.91410989 C77.1362637,7.27938462 76.3556044,7.52202198 75.5314286,7.61301099 C75.6778022,8.89345055 76.2435165,10.0380659 77.0821978,10.9018022 C77.3169231,11.1418022 77.5714286,11.3593846 77.8457143,11.5532308 L77.8457143,13.1870769 C77.189011,12.8494945 76.592967,12.4050989 76.08,11.8776264 C75.5591209,11.3422418 75.1226374,10.7211429 74.792967,10.0367473 L74.792967,6.25081319 Z M77.8457143,25.736967 C77.189011,25.3980659 76.592967,24.9536703 76.08,24.4261978 C75.5591209,23.8908132 75.1226374,23.2697143 74.792967,22.5853187 L74.792967,18.7993846 C75.9257143,18.7993846 76.9767033,18.4407033 77.8457143,17.8288352 L77.8457143,19.4626813 C77.1362637,19.827956 76.3556044,20.0705934 75.5314286,20.1615824 C75.6778022,21.4407033 76.2435165,22.587956 77.0821978,23.4490549 C77.3169231,23.6903736 77.5714286,23.907956 77.8457143,24.1018022 L77.8457143,25.736967 Z M80.8984615,12.5250989 L80.8984615,16.3123516 C80.5687912,16.9954286 80.1323077,17.6165275 79.6114286,18.1505934 C79.0971429,18.6793846 78.5024176,19.1237802 77.8457143,19.4626813 L77.8457143,17.8288352 C78.12,17.6336703 78.3745055,17.4160879 78.6079121,17.1747692 C79.4479121,16.3136703 80.0136264,15.1677363 80.16,13.8872967 C79.3345055,13.7963077 78.5551648,13.5536703 77.8457143,13.1870769 L77.8457143,11.5532308 C78.7134066,12.1664176 79.7657143,12.5250989 80.8984615,12.5250989 Z M77.8457143,5.28026374 C78.12,5.08641758 78.3745055,4.86751648 78.6079121,4.62751648 C79.589011,3.62004396 80.1956044,2.22224176 80.1956044,0.679384615 L80.8984615,0.679384615 L80.8984615,3.76378022 C80.5687912,4.44817582 80.1323077,5.06795604 79.6114286,5.60334066 C79.0971429,6.13081319 78.5024176,6.57520879 77.8457143,6.91410989 L77.8457143,5.28026374 Z M80.8984615,26.4767473 C79.8013187,26.4767473 78.7635165,26.2103736 77.8457143,25.736967 L77.8457143,24.1018022 C78.7134066,24.714989 79.7657143,25.0736703 80.8984615,25.0736703 L80.8984615,26.4767473 Z M83.9512088,11.5532308 L83.9512088,13.1883956 C83.2417582,13.5536703 82.4624176,13.7963077 81.6369231,13.8872967 C81.7832967,15.1677363 82.349011,16.3136703 83.1876923,17.1747692 C83.4224176,17.4160879 83.6769231,17.6336703 83.9512088,17.8275165 L83.9512088,19.4613626 C83.2958242,19.1237802 82.6984615,18.6793846 82.1854945,18.1505934 C81.6659341,17.6165275 81.2294505,16.9954286 80.8984615,16.3123516 L80.8984615,12.5250989 C82.0312088,12.5250989 83.0835165,12.1664176 83.9512088,11.5532308 Z M80.8984615,0.679384615 L81.6,0.679384615 C81.6,2.22224176 82.2079121,3.62004396 83.1876923,4.62751648 C83.4224176,4.86751648 83.6769231,5.08641758 83.9512088,5.27894505 L83.9512088,6.91410989 C83.2958242,6.57520879 82.6984615,6.13081319 82.1854945,5.60334066 C81.6659341,5.06795604 81.2294505,4.44817582 80.8984615,3.76378022 L80.8984615,0.679384615 Z M83.9512088,25.736967 C83.0334066,26.2103736 81.9956044,26.4767473 80.8984615,26.4767473 L80.8984615,25.0736703 C82.0312088,25.0736703 83.0835165,24.714989 83.9512088,24.1018022 L83.9512088,25.736967 Z M83.9512088,5.27894505 C84.8189011,5.89213187 85.8712088,6.25081319 87.003956,6.25081319 L87.003956,10.0380659 C86.6742857,10.7211429 86.2378022,11.3422418 85.7182418,11.8763077 C85.2026374,12.4050989 84.6079121,12.8494945 83.9512088,13.1883956 L83.9512088,11.5532308 C84.2254945,11.3593846 84.48,11.1418022 84.7147253,10.9018022 C85.5534066,10.0380659 86.1191209,8.89345055 86.2641758,7.61301099 C85.4413187,7.52202198 84.6606593,7.27938462 83.9512088,6.91410989 L83.9512088,5.27894505 Z M87.003956,22.5853187 C86.6742857,23.2697143 86.2378022,23.8908132 85.7182418,24.4248791 C85.2026374,24.9536703 84.6079121,25.3980659 83.9512088,25.736967 L83.9512088,24.1018022 C84.2254945,23.907956 84.48,23.6903736 84.7147253,23.4490549 C85.5534066,22.587956 86.1191209,21.4407033 86.2641758,20.1615824 C85.4413187,20.0705934 84.6606593,19.827956 83.9512088,19.4613626 L83.9512088,17.8275165 C84.8189011,18.4407033 85.8712088,18.7993846 87.003956,18.7993846 L87.003956,22.5853187 Z M87.003956,6.25081319 C88.138022,6.25081319 89.189011,5.89213187 90.0567033,5.28026374 L90.0567033,6.91410989 C89.3472527,7.27938462 88.5679121,7.52202198 87.7437363,7.61301099 C87.8901099,8.89345055 88.4558242,10.0380659 89.2945055,10.9018022 C89.5279121,11.1418022 89.7837363,11.3593846 90.0567033,11.5532308 L90.0567033,13.1870769 C89.4013187,12.8494945 88.8052747,12.4050989 88.2923077,11.8763077 C87.7714286,11.3422418 87.3336264,10.7211429 87.003956,10.0367473 L87.003956,10.0380659 L87.003956,6.25081319 Z M90.0567033,25.736967 C89.4013187,25.3980659 88.8052747,24.9536703 88.2923077,24.4248791 C87.7714286,23.8908132 87.3336264,23.2697143 87.003956,22.5853187 L87.003956,18.7993846 C88.138022,18.7993846 89.189011,18.4407033 90.0567033,17.8288352 L90.0567033,19.4613626 C89.3472527,19.827956 88.5679121,20.0705934 87.7437363,20.1615824 C87.8901099,21.4407033 88.4558242,22.587956 89.2945055,23.4490549 C89.5279121,23.6903736 89.7837363,23.907956 90.0567033,24.1004835 L90.0567033,25.736967 Z M93.1094505,12.5250989 L93.1094505,16.311033 C92.7797802,16.9954286 92.3432967,17.6165275 91.8224176,18.1505934 C91.3094505,18.6793846 90.7134066,19.1237802 90.0567033,19.4613626 L90.0567033,17.8288352 C90.330989,17.6336703 90.5868132,17.4160879 90.8202198,17.1747692 C91.6602198,16.3136703 92.2246154,15.1677363 92.370989,13.8872967 C91.5468132,13.7963077 90.7661538,13.5536703 90.0567033,13.1870769 L90.0567033,11.5532308 C90.9257143,12.1664176 91.9767033,12.5250989 93.1094505,12.5250989 Z M90.0567033,5.28026374 C90.330989,5.08641758 90.5868132,4.86751648 90.8202198,4.62751648 C91.8013187,3.62004396 92.4079121,2.22224176 92.4079121,0.679384615 L93.1094505,0.679384615 L93.1094505,3.76378022 C92.7797802,4.44685714 92.3432967,5.06795604 91.8224176,5.60334066 C91.3094505,6.13081319 90.7134066,6.57520879 90.0567033,6.91410989 L90.0567033,5.28026374 Z M93.1094505,26.4767473 C92.0123077,26.4767473 90.9758242,26.2103736 90.0567033,25.736967 L90.0567033,24.1004835 C90.9257143,24.714989 91.9767033,25.0736703 93.1094505,25.0736703 L93.1094505,26.4767473 Z M96.1635165,11.5532308 L96.1635165,13.1883956 C95.4540659,13.5536703 94.6734066,13.7963077 93.8492308,13.8872967 C93.9956044,15.1677363 94.5613187,16.3136703 95.4,17.1747692 C95.6334066,17.4160879 95.8892308,17.6336703 96.1635165,17.8275165 L96.1635165,19.4613626 C95.5068132,19.1237802 94.9107692,18.6793846 94.3964835,18.1505934 C93.8756044,17.6165275 93.4404396,16.9954286 93.1094505,16.311033 L93.1094505,12.5250989 C94.2435165,12.5250989 95.2958242,12.1664176 96.1635165,11.5532308 Z M93.1094505,0.679384615 L93.8123077,0.679384615 C93.8123077,2.22224176 94.4189011,3.62004396 95.4,4.62751648 C95.6334066,4.86751648 95.8892308,5.08641758 96.1635165,5.27894505 L96.1635165,6.91279121 C95.5068132,6.57520879 94.9107692,6.13081319 94.3964835,5.60334066 C93.8756044,5.06795604 93.4404396,4.44685714 93.1094505,3.76378022 L93.1094505,0.679384615 Z M96.1635165,25.736967 C95.2457143,26.2103736 94.2079121,26.4767473 93.1094505,26.4767473 L93.1094505,25.0736703 C94.2435165,25.0736703 95.2958242,24.714989 96.1635165,24.1018022 L96.1635165,25.736967 Z M96.1635165,5.27894505 C97.0312088,5.89213187 98.0821978,6.25081319 99.2162637,6.25081319 L99.2162637,10.0367473 C98.8852747,10.7211429 98.4487912,11.3422418 97.9292308,11.8763077 C97.4149451,12.4050989 96.8189011,12.8494945 96.1635165,13.1883956 L96.1635165,11.5532308 C96.4364835,11.3593846 96.6923077,11.1418022 96.9257143,10.9018022 C97.7657143,10.0380659 98.3301099,8.89345055 98.4778022,7.61301099 C97.6536264,7.52202198 96.872967,7.27938462 96.1635165,6.91279121 L96.1635165,5.27894505 Z M99.2162637,22.5853187 C98.8852747,23.2697143 98.4487912,23.8908132 97.9292308,24.4248791 C97.4149451,24.9536703 96.8189011,25.3980659 96.1635165,25.736967 L96.1635165,24.1018022 C96.4364835,23.907956 96.6923077,23.6903736 96.9257143,23.4490549 C97.7657143,22.587956 98.3301099,21.4407033 98.4778022,20.1615824 C97.6536264,20.0705934 96.872967,19.827956 96.1635165,19.4613626 L96.1635165,17.8275165 C97.0312088,18.4407033 98.0821978,18.7993846 99.2162637,18.7993846 L99.2162637,22.5853187 Z M102.269011,25.736967 C101.612308,25.3980659 101.017582,24.9536703 100.503297,24.4248791 C99.9824176,23.8908132 99.5459341,23.2697143 99.2162637,22.5853187 L99.2162637,18.7993846 C100.349011,18.7993846 101.4,18.4407033 102.269011,17.8288352 L102.269011,19.4613626 C101.55956,19.827956 100.778901,20.0705934 99.9547253,20.1615824 C100.101099,21.4407033 100.666813,22.587956 101.505495,23.4490549 C101.74022,23.6903736 101.996044,23.907956 102.269011,24.1018022 L102.269011,25.736967 Z M102.269011,6.91410989 C101.55956,7.27938462 100.778901,7.52202198 99.9547253,7.61301099 C100.101099,8.89345055 100.666813,10.0380659 101.505495,10.9018022 C101.74022,11.1418022 101.996044,11.3593846 102.269011,11.5532308 L102.269011,13.1870769 C101.612308,12.8494945 101.017582,12.4050989 100.503297,11.8763077 C99.9824176,11.3422418 99.5459341,10.7211429 99.2162637,10.0367473 L99.2162637,6.25081319 C100.349011,6.25081319 101.4,5.89213187 102.269011,5.28026374 L102.269011,6.91410989 Z M105.321758,26.4767473 C104.224615,26.4767473 103.186813,26.2103736 102.269011,25.736967 L102.269011,24.1018022 C103.136703,24.714989 104.189011,25.0736703 105.321758,25.0736703 L105.321758,26.4767473 Z M102.269011,11.5532308 C103.136703,12.1664176 104.189011,12.5250989 105.321758,12.5250989 L105.321758,16.3123516 C104.992088,16.9954286 104.555604,17.6165275 104.036044,18.1505934 C103.52044,18.6793846 102.925714,19.1237802 102.269011,19.4613626 L102.269011,17.8288352 C102.543297,17.6336703 102.799121,17.4160879 103.032527,17.1747692 C103.871209,16.3136703 104.436923,15.1677363 104.583297,13.8872967 C103.759121,13.7963077 102.978462,13.5536703 102.269011,13.1870769 L102.269011,11.5532308 Z M105.321758,3.76378022 C104.992088,4.44817582 104.555604,5.06795604 104.036044,5.60334066 C103.52044,6.13081319 102.925714,6.57520879 102.269011,6.91410989 L102.269011,5.28026374 C102.543297,5.08641758 102.799121,4.86751648 103.032527,4.62751648 C104.013626,3.62004396 104.62022,2.22224176 104.62022,0.679384615 L105.321758,0.679384615 L105.321758,3.76378022 Z M105.321758,12.5250989 C106.811868,12.5250989 108.160879,11.904 109.138022,10.9018022 C109.566593,10.4613626 109.922637,9.9483956 110.19033,9.38004396 L110.671648,11.2644396 C110.506813,11.4793846 110.328791,11.6837802 110.14022,11.8763077 C109.072088,12.9760879 107.647912,13.7119121 106.061538,13.8872967 C106.206593,15.1677363 106.773626,16.3136703 107.610989,17.1760879 C108.588132,18.1782857 109.937143,18.7993846 111.427253,18.7993846 C111.817582,18.7993846 112.198681,18.7571868 112.565275,18.6754286 L112.912088,20.034989 C112.669451,20.0903736 112.42022,20.1338901 112.167033,20.1615824 C112.313407,21.4407033 112.879121,22.587956 113.717802,23.4490549 C113.748132,23.4793846 113.778462,23.5123516 113.808791,23.5413626 L114.352088,25.6683956 C113.746813,25.3387253 113.194286,24.9193846 112.715604,24.4261978 C112.194725,23.8908132 111.758242,23.2697143 111.428571,22.5853187 C111.097582,23.2697143 110.661099,23.8908132 110.14022,24.4248791 C108.907253,25.6921319 107.203516,26.4767473 105.321758,26.4767473 L105.321758,25.0736703 C106.811868,25.0736703 108.160879,24.4525714 109.138022,23.4490549 C109.976703,22.587956 110.542418,21.4407033 110.688791,20.1615824 C109.102418,19.9861978 107.678242,19.2503736 106.608791,18.1505934 C106.087912,17.6165275 105.652747,16.9954286 105.321758,16.3123516 L105.321758,12.5250989 Z M109.272527,5.79191209 L109.690549,7.42443956 C108.506374,7.104 107.447473,6.46575824 106.608791,5.60334066 C106.087912,5.06795604 105.652747,4.44817582 105.321758,3.76378022 L105.321758,0.679384615 L106.023297,0.679384615 C106.023297,2.22356044 106.631209,3.62004396 107.610989,4.62751648 C108.085714,5.11542857 108.648791,5.51235165 109.272527,5.79191209 Z" id="Fill-11" fill="#ED9FC9"></path>
                    <mask id="mask-2" fill="white">
                        <use xlink:href="#path-1"></use>
                    </mask>
                    <g id="Clip-14"></g>
                    <polygon id="Fill-13" fill="#47C796" mask="url(#mask-2)" points="16.3503297 77.6004396 66.8676923 77.6004396 66.8676923 39.7081319 16.3503297 39.7081319"></polygon>
                    <polygon id="Fill-15" fill="#9FECFF" mask="url(#mask-2)" points="17.6742857 75.7912088 65.0940659 75.7912088 65.0940659 41.52 17.6742857 41.52"></polygon>
                    <path d="M41.6086154,55.5291429 L41.6086154,61.781011 L27.5989451,75.7906813 L21.3470769,75.7906813 L41.6086154,55.5291429 Z M41.6086154,49.2772747 L41.6086154,52.4025495 L18.2204835,75.7906813 L17.6745495,75.7906813 L17.6745495,73.2113407 L41.6086154,49.2772747 Z M33.8521319,75.7906813 L41.6086154,68.0341978 L41.6086154,64.9076044 L30.7255385,75.7906813 L33.8521319,75.7906813 Z M41.6086154,52.4025495 L41.6086154,49.2772747 L49.3664176,41.5194725 L52.4916923,41.5194725 L41.6086154,52.4025495 Z M41.6086154,61.781011 L41.6086154,55.5291429 L55.6196044,41.5194725 L61.8701538,41.5194725 L41.6086154,61.781011 Z M41.6086154,68.0341978 L65.0943297,44.5484835 L65.0943297,41.5194725 L64.9967473,41.5194725 L41.6086154,64.9076044 L41.6086154,68.0341978 Z" id="Fill-16" fill="#DEF8FF" mask="url(#mask-2)"></path>
                    <path d="M107.75578,54.2575385 C109.01644,55.8162198 111.730286,59.0324835 113.041055,62.4834725 C116.958857,72.785011 98.794022,72.7388571 102.462593,62.5058901 C103.704791,59.0403956 106.576879,55.8162198 107.75578,54.2575385" id="Fill-17" fill="#729116" mask="url(#mask-2)"></path>
                    <path d="M113.344747,57.3237363 C114.187385,59.3505495 116.050681,63.5624176 116.269582,67.710989 C116.92233,80.0947253 96.7016703,75.8406593 104.475297,65.2885714 C107.107385,61.7149451 111.469582,58.7861538 113.344747,57.3237363" id="Fill-18" fill="#729116" mask="url(#mask-2)"></path>
                    <path d="M102.077934,57.0494505 C103.96233,58.5606593 107.977714,61.6635165 110.485846,65.2951648 C117.974637,76.14 97.513978,79.5738462 98.5847473,67.350989 C98.9473846,63.2116484 101.216835,59.0287912 102.077934,57.0494505" id="Fill-19" fill="#729116" mask="url(#mask-2)"></path>
                    <path d="M102.362637,58.0840879 C103.144615,58.7618901 104.808791,60.1517802 105.863736,61.7671648 C109.015385,66.5895824 100.711648,67.9821099 101.034725,62.6018901 C101.144176,60.7807912 102.03033,58.9517802 102.362637,58.0840879" id="Fill-20" fill="#A8C455" mask="url(#mask-2)"></path>
                    <path d="M119.036703,64.1869451 C118.889011,66.0489231 118.674066,69.942989 117.181319,73.4111209 C112.729451,83.7627692 98.4375824,75.6713407 108.822198,68.739033 C112.339121,66.3917802 116.966374,64.9676044 119.036703,64.1869451" id="Fill-21" fill="#729116" mask="url(#mask-2)"></path>
                    <path d="M96.5096703,64.1869451 C98.5971429,65.0124396 102.997582,66.6726593 106.415604,69.1122198 C116.622198,76.3952967 101.797582,83.8458462 97.8164835,73.4941978 C96.4674725,69.9891429 96.6112088,66.0185934 96.5096703,64.1869451" id="Fill-22" fill="#729116" mask="url(#mask-2)"></path>
                    <path d="M113.022198,58.3513846 C113.343956,59.2375385 114.057363,61.0757802 114.102198,62.9008352 C114.231429,68.3443516 106.025275,66.6155604 109.315385,61.9184176 C110.428352,60.3280879 112.241538,59.0080879 113.022198,58.3513846" id="Fill-23" fill="#A8C455" mask="url(#mask-2)"></path>
                    <path d="M117.849363,65.3870769 C117.977275,66.2705934 118.299033,68.1154286 117.828264,69.8112527 C116.427824,74.8789451 107.190462,71.6587253 112.433538,67.9585055 C114.208484,66.7057582 116.735077,65.842022 117.849363,65.3870769" id="Fill-24" fill="#A8C455" mask="url(#mask-2)"></path>
                    <path d="M97.7156044,65.3870769 C97.6127473,66.2574066 97.3437363,68.0719121 97.861978,69.740044 C99.4074725,74.7246593 108.553846,71.5571868 103.205275,67.9163077 C101.394725,66.6846593 98.8430769,65.8341099 97.7156044,65.3870769" id="Fill-25" fill="#A8C455" mask="url(#mask-2)"></path>
                    <path d="M107.75578,63.0181978 C109.01644,64.5491868 111.730286,67.7100659 113.041055,71.0990769 C116.958857,81.219956 98.794022,81.1738022 102.462593,71.1214945 C103.704791,67.7166593 106.576879,64.5491868 107.75578,63.0181978" id="Fill-26" fill="#729116" mask="url(#mask-2)"></path>
                    <path d="M107.759077,64.5957363 C108.537099,65.408044 110.213143,67.0827692 111.024132,68.8814505 C113.445231,74.2484835 102.221934,74.2234286 104.488747,68.8933187 C105.25622,67.088044 107.029846,65.408044 107.759077,64.5957363" id="Fill-27" fill="#A8C455" mask="url(#mask-2)"></path>
                    <path d="M107.76422,55.1145495 C108.287736,55.6604835 109.41389,56.7866374 109.961143,57.9958681 C111.587077,61.6037802 104.042901,61.587956 105.565978,58.0037802 C106.081582,56.7892747 107.27367,55.6604835 107.76422,55.1145495" id="Fill-28" fill="#A8C455" mask="url(#mask-2)"></path>
                    <polygon id="Fill-29" fill="#4C6308" mask="url(#mask-2)" points="10.138022 87.9212308 12.0421978 87.9212308 11.0254945 58.4605714"></polygon>
                    <polygon id="Fill-30" fill="#DB86B3" mask="url(#mask-2)" points="6.1323956 89.6700659 16.3930549 89.6700659 17.5759121 80.9509451 4.95085714 80.9509451"></polygon>
                    <path d="M11.2461099,54.2575385 C12.5067692,55.8162198 15.2192967,59.0324835 16.5313846,62.4834725 C20.4491868,72.785011 2.28435165,72.7388571 5.95292308,62.5058901 C7.1938022,59.0403956 10.0672088,55.8162198 11.2461099,54.2575385" id="Fill-31" fill="#729116" mask="url(#mask-2)"></path>
                    <path d="M16.8337582,57.3237363 C17.6763956,59.3505495 19.5396923,63.5624176 19.7585934,67.710989 C20.4126593,80.0947253 0.192,75.8406593 7.96562637,65.2885714 C10.5977143,61.7149451 14.9599121,58.7861538 16.8337582,57.3237363" id="Fill-32" fill="#729116" mask="url(#mask-2)"></path>
                    <path d="M5.5676044,57.0494505 C7.452,58.5606593 11.4673846,61.6635165 13.9755165,65.2951648 C21.4656264,76.14 1.00364835,79.5738462 2.07441758,67.350989 C2.43705495,63.2116484 4.70650549,59.0287912 5.5676044,57.0494505" id="Fill-33" fill="#729116" mask="url(#mask-2)"></path>
                    <path d="M5.85283516,58.0840879 C6.63349451,58.7618901 8.29898901,60.1517802 9.35393407,61.7671648 C12.5055824,66.5895824 4.20184615,67.9821099 4.52492308,62.6018901 C4.63305495,60.7807912 5.52052747,58.9517802 5.85283516,58.0840879" id="Fill-34" fill="#A8C455" mask="url(#mask-2)"></path>
                    <path d="M22.527033,64.1869451 C22.3793407,66.0489231 22.1643956,69.942989 20.6716484,73.4111209 C16.2184615,83.7627692 1.92791209,75.6713407 12.3125275,68.739033 C15.8281319,66.3917802 20.4567033,64.9676044 22.527033,64.1869451" id="Fill-35" fill="#729116" mask="url(#mask-2)"></path>
                    <path d="M0,64.1869451 C2.08747253,65.0124396 6.48791209,66.6726593 9.90593407,69.1122198 C20.1125275,76.3952967 5.28791209,83.8458462 1.30681319,73.4941978 C-0.0421978022,69.9891429 0.101538462,66.0185934 0,64.1869451" id="Fill-36" fill="#729116" mask="url(#mask-2)"></path>
                    <path d="M16.5123956,58.3513846 C16.8328352,59.2375385 17.5475604,61.0757802 17.5910769,62.9008352 C17.7216264,68.3443516 9.51547253,66.6155604 12.8042637,61.9184176 C13.9185495,60.3280879 15.7304176,59.0080879 16.5123956,58.3513846" id="Fill-37" fill="#A8C455" mask="url(#mask-2)"></path>
                    <path d="M21.3396923,65.3870769 C21.4676044,66.2705934 21.788044,68.1154286 21.3185934,69.8112527 C19.9181538,74.8789451 10.6807912,71.6587253 15.9238681,67.9585055 C17.6974945,66.7057582 20.2254066,65.842022 21.3396923,65.3870769" id="Fill-38" fill="#A8C455" mask="url(#mask-2)"></path>
                    <path d="M1.20527473,65.3870769 C1.10241758,66.2574066 0.834725275,68.0719121 1.35164835,69.740044 C2.89846154,74.7246593 12.0435165,71.5571868 6.69494505,67.9163077 C4.8843956,66.6846593 2.33274725,65.8341099 1.20527473,65.3870769" id="Fill-39" fill="#A8C455" mask="url(#mask-2)"></path>
                    <path d="M11.2461099,63.0181978 C12.5067692,64.5491868 15.2192967,67.7100659 16.5313846,71.0990769 C20.4491868,81.219956 2.28435165,81.1738022 5.95292308,71.1214945 C7.1938022,67.7166593 10.0672088,64.5491868 11.2461099,63.0181978" id="Fill-40" fill="#729116" mask="url(#mask-2)"></path>
                    <path d="M11.2492747,64.5957363 C12.025978,65.408044 13.7033407,67.0827692 14.5143297,68.8814505 C16.9354286,74.2484835 5.71213187,74.2234286 7.97894505,68.8933187 C8.74641758,67.088044 10.520044,65.408044 11.2492747,64.5957363" id="Fill-41" fill="#A8C455" mask="url(#mask-2)"></path>
                    <path d="M11.2544176,55.1145495 C11.7779341,55.6604835 12.9040879,56.7866374 13.450022,57.9958681 C15.0772747,61.6037802 7.53178022,61.587956 9.05617582,58.0037802 C9.57178022,56.7892747 10.7638681,55.6604835 11.2544176,55.1145495" id="Fill-42" fill="#A8C455" mask="url(#mask-2)"></path>
                </g>
            </g>
        </g>
    </g>
</svg>