<?xml version="1.0" encoding="UTF-8"?>
<svg width="120px" height="120px" viewBox="0 0 120 120" version="1.1" xmlns="http://www.w3.org/2000/svg" xmlns:xlink="http://www.w3.org/1999/xlink">
    <!-- Generator: Sketch 51.1 (57501) - http://www.bohemiancoding.com/sketch -->
    <title>Cartoon number9</title>
    <desc>Created with Sketch.</desc>
    <defs>
        <polygon id="path-1" points="0.738220507 0 20.3501113 0 20.3501113 13.9370042 0.738220507 13.9370042"></polygon>
    </defs>
    <g id="Cartoon-number9" stroke="none" stroke-width="1" fill="none" fill-rule="evenodd">
        <g id="Page-1" transform="translate(30.000000, 0.000000)">
            <path d="M13.2896,118.2726 C13.0636,118.2726 12.8776,118.0926 12.8706,117.8666 C12.7926,115.4026 14.4646,108.6496 14.5356,108.3626 C14.5926,108.1376 14.8186,108.0026 15.0446,108.0566 C15.2686,108.1126 15.4056,108.3406 15.3506,108.5656 C15.3336,108.6346 13.6356,115.4926 13.7096,117.8396 C13.7166,118.0706 13.5346,118.2646 13.3036,118.2726 L13.2896,118.2726 Z" id="Fill-1" fill="#1E120D"></path>
            <path d="M8.9946,117.7707 C8.7156,118.8857 13.1886,119.1417 13.5086,118.0577 C13.8256,116.9727 9.4206,116.0707 8.9946,117.7707" id="Fill-3" fill="#1E120D"></path>
            <path d="M29.0151,118.7658 C28.8391,118.7658 28.6761,118.6558 28.6181,118.4788 C27.8351,116.1418 27.5011,109.1928 27.4881,108.8968 C27.4771,108.6658 27.6561,108.4688 27.8871,108.4578 C28.1261,108.4378 28.3161,108.6258 28.3271,108.8578 C28.3291,108.9288 28.6681,115.9848 29.4131,118.2128 C29.4871,118.4328 29.3681,118.6708 29.1481,118.7448 C29.1041,118.7588 29.0591,118.7658 29.0151,118.7658" id="Fill-5" fill="#1E120D"></path>
            <path d="M24.8774,119.4992 C24.9294,120.6482 29.2884,119.6102 29.2834,118.4792 C29.2754,117.3502 24.7984,117.7492 24.8774,119.4992" id="Fill-7" fill="#1E120D"></path>
            <path d="M34.1978,39.0714 C34.1978,35.5294 30.8488,32.6594 26.7188,32.6594 C22.5818,32.6594 19.2318,35.5294 19.2318,39.0714 C19.2318,42.6134 22.5818,45.4934 26.7188,45.4934 C30.8488,45.4934 34.1978,42.6134 34.1978,39.0714 M59.1428,32.2734 C65.3458,57.6874 51.7888,78.2734 41.7168,95.0604 C32.0658,111.1444 19.7778,115.0344 13.7378,109.4694 C6.5648,102.8614 24.9308,70.3714 25.7128,65.7044 C26.4928,61.0374 11.4608,63.1104 3.1678,49.8994 C-5.1252,36.6794 3.0578,13.4124 25.4518,10.7604 C45.1508,8.4264 56.5498,21.6464 59.1428,32.2734" id="Fill-9" fill="#943C99"></path>
            <g id="Group-13" transform="translate(33.000000, 0.000000)">
                <mask id="mask-2" fill="white">
                    <use xlink:href="#path-1"></use>
                </mask>
                <g id="Clip-12"></g>
                <path d="M0.7515,8.3478 C0.5075,7.7368 3.7015,0.6748 4.1245,0.2528 C4.5445,-0.1692 7.0375,5.1118 7.0375,5.1118 C7.0375,5.1118 11.7125,-0.0842 12.8935,0.0008 C14.0745,0.0838 14.6635,7.7578 14.6635,7.7578 C14.6635,7.7578 19.4705,4.0478 20.2295,5.1438 C20.9875,6.2398 17.9515,13.6598 17.2765,13.9128 C16.6035,14.1658 14.5795,12.3958 9.1835,10.4558 C4.8645,8.9048 0.9185,8.7688 0.7515,8.3478" id="Fill-11" fill="#FAC600" mask="url(#mask-2)"></path>
            </g>
            <path d="M13.8882,18.7326 C13.8882,18.7326 13.8912,18.7746 13.8952,18.8546 C13.9022,18.9336 13.9112,19.0496 13.9252,19.1986 C13.9542,19.4966 14.0082,19.9226 14.1302,20.3866 C14.1972,20.6156 14.2742,20.8596 14.3872,21.0756 C14.4892,21.3036 14.6432,21.4866 14.7952,21.6506 C14.8752,21.7306 14.9722,21.7836 15.0592,21.8526 C15.1722,21.8856 15.2522,21.9636 15.3752,21.9906 C15.5022,22.0086 15.6002,22.0786 15.7462,22.0726 L15.9512,22.0896 L16.0542,22.0996 L16.0672,22.1016 L16.0732,22.1036 C16.1432,22.1016 15.9812,22.1056 15.9992,22.1056 L16.0032,22.1056 L16.0372,22.1036 L16.1072,22.0996 C16.2712,22.0836 16.5182,22.0906 16.6122,22.0556 C16.6992,22.0076 16.7842,22.0316 16.8832,21.9626 C17.0862,21.8756 17.2722,21.7606 17.4162,21.5726 C17.5692,21.3986 17.6962,21.1716 17.8012,20.9396 C17.8942,20.6976 17.9752,20.4526 18.0342,20.2136 C18.1462,19.7346 18.1952,19.3026 18.2242,19.0026 C18.2472,18.7066 18.2622,18.5366 18.2622,18.5366 L18.2642,18.5036 C18.2842,18.2566 18.5002,18.0746 18.7462,18.0936 C18.9342,18.1096 19.0842,18.2386 19.1372,18.4086 C19.1372,18.4086 19.1992,18.6096 19.2612,18.9486 C19.3212,19.2896 19.3882,19.7806 19.3532,20.3946 C19.3312,20.7026 19.2912,21.0416 19.1942,21.4016 C19.0812,21.7606 18.9472,22.1566 18.6712,22.5246 C18.5402,22.7116 18.3912,22.8926 18.1962,23.0476 C18.0202,23.2226 17.8022,23.3436 17.5772,23.4586 C17.3672,23.5856 17.0742,23.6336 16.8172,23.7046 C16.5572,23.7606 16.4292,23.7456 16.2292,23.7696 L16.1602,23.7756 L16.1262,23.7786 L16.0392,23.7806 L16.0292,23.7796 L16.0072,23.7786 L15.8352,23.7606 L15.4942,23.7216 C15.2702,23.7116 15.0332,23.6056 14.8082,23.5446 C14.5812,23.4736 14.3672,23.3316 14.1602,23.2136 C13.9732,23.0626 13.7812,22.9096 13.6312,22.7346 C13.3302,22.3816 13.1172,21.9956 13.0082,21.6286 C12.8742,21.2626 12.8262,20.9166 12.7992,20.6046 C12.7462,19.9786 12.8182,19.4816 12.8802,19.1376 C12.9092,18.9646 12.9492,18.8366 12.9732,18.7386 C12.9992,18.6476 13.0142,18.5996 13.0142,18.5996 C13.0822,18.3626 13.3302,18.2276 13.5672,18.2956 C13.7532,18.3506 13.8772,18.5166 13.8872,18.7016 L13.8882,18.7326 Z" id="Fill-14" fill="#1E120D"></path>
            <path d="M12.9644,24.5285 C12.8864,24.5285 12.8074,24.5065 12.7364,24.4605 C12.5424,24.3345 12.4864,24.0745 12.6124,23.8805 L13.8764,21.9365 C14.0024,21.7425 14.2624,21.6865 14.4564,21.8135 C14.6514,21.9395 14.7064,22.1995 14.5804,22.3935 L13.3174,24.3375 C13.2364,24.4615 13.1024,24.5285 12.9644,24.5285" id="Fill-16" fill="#1E120D"></path>
            <path d="M16.27,25.6945 C16.039,25.6945 15.85,25.5075 15.85,25.2745 L15.85,22.8935 C15.85,22.6615 16.039,22.4735 16.27,22.4735 C16.502,22.4735 16.69,22.6615 16.69,22.8935 L16.69,25.2745 C16.69,25.5075 16.502,25.6945 16.27,25.6945" id="Fill-18" fill="#1E120D"></path>
            <path d="M19.6714,23.9943 C19.5514,23.9943 19.4324,23.9433 19.3494,23.8453 L17.8434,22.0453 C17.6944,21.8673 17.7184,21.6023 17.8964,21.4533 C18.0734,21.3053 18.3394,21.3293 18.4864,21.5063 L19.9924,23.3053 C20.1414,23.4823 20.1174,23.7483 19.9404,23.8963 C19.8614,23.9623 19.7664,23.9943 19.6714,23.9943" id="Fill-20" fill="#1E120D"></path>
            <path d="M35.1245,18.7814 C35.1245,18.7814 35.1255,18.8244 35.1305,18.9034 C35.1375,18.9824 35.1465,19.0994 35.1605,19.2484 C35.1895,19.5454 35.2425,19.9724 35.3655,20.4364 C35.4325,20.6654 35.5095,20.9084 35.6225,21.1254 C35.7245,21.3534 35.8785,21.5354 36.0305,21.6994 C36.1105,21.7784 36.2075,21.8324 36.2945,21.9014 C36.4075,21.9334 36.4885,22.0124 36.6105,22.0394 C36.7375,22.0584 36.8355,22.1274 36.9815,22.1214 L37.1875,22.1384 L37.2895,22.1494 L37.3035,22.1514 L37.3095,22.1524 C37.3805,22.1504 37.2165,22.1554 37.2345,22.1544 L37.2385,22.1544 L37.2725,22.1524 L37.3425,22.1484 C37.5065,22.1324 37.7525,22.1404 37.8485,22.1054 C37.9345,22.0554 38.0205,22.0804 38.1195,22.0124 C38.3215,21.9234 38.5075,21.8084 38.6515,21.6204 C38.8045,21.4474 38.9315,21.2204 39.0365,20.9884 C39.1295,20.7474 39.2115,20.5024 39.2695,20.2624 C39.3815,19.7834 39.4305,19.3504 39.4595,19.0504 C39.4825,18.7544 39.4975,18.5844 39.4975,18.5844 L39.4995,18.5524 C39.5205,18.3054 39.7355,18.1224 39.9815,18.1414 C40.1695,18.1574 40.3195,18.2874 40.3725,18.4574 C40.3725,18.4574 40.4345,18.6574 40.4975,18.9974 C40.5565,19.3384 40.6235,19.8294 40.5885,20.4424 C40.5665,20.7504 40.5265,21.0904 40.4295,21.4504 C40.3175,21.8084 40.1825,22.2054 39.9075,22.5734 C39.7755,22.7604 39.6265,22.9414 39.4315,23.0964 C39.2565,23.2704 39.0385,23.3914 38.8135,23.5074 C38.6035,23.6344 38.3095,23.6824 38.0525,23.7534 C37.7935,23.8094 37.6665,23.7944 37.4655,23.8194 L37.3965,23.8244 L37.3625,23.8274 L37.2745,23.8304 L37.2645,23.8294 L37.2425,23.8274 L37.0715,23.8094 L36.7295,23.7704 C36.5065,23.7604 36.2685,23.6554 36.0435,23.5934 C35.8175,23.5234 35.6035,23.3814 35.3955,23.2634 C35.2095,23.1114 35.0175,22.9584 34.8665,22.7844 C34.5665,22.4314 34.3535,22.0444 34.2435,21.6774 C34.1095,21.3124 34.0615,20.9664 34.0345,20.6534 C33.9815,20.0284 34.0535,19.5304 34.1155,19.1864 C34.1445,19.0134 34.1845,18.8854 34.2085,18.7884 C34.2345,18.6964 34.2485,18.6484 34.2485,18.6484 C34.3175,18.4114 34.5655,18.2764 34.8025,18.3444 C34.9885,18.4004 35.1125,18.5654 35.1225,18.7504 L35.1245,18.7814 Z" id="Fill-22" fill="#1E120D"></path>
            <path d="M34.2007,24.5763 C34.1217,24.5763 34.0427,24.5543 33.9717,24.5093 C33.7777,24.3823 33.7217,24.1223 33.8487,23.9283 L35.1117,21.9843 C35.2387,21.7893 35.4997,21.7373 35.6917,21.8613 C35.8867,21.9873 35.9417,22.2483 35.8147,22.4413 L34.5527,24.3863 C34.4717,24.5093 34.3377,24.5763 34.2007,24.5763" id="Fill-24" fill="#1E120D"></path>
            <path d="M37.5054,25.7433 C37.2734,25.7433 37.0854,25.5553 37.0854,25.3233 L37.0854,22.9423 C37.0854,22.7103 37.2734,22.5223 37.5054,22.5223 C37.7374,22.5223 37.9254,22.7103 37.9254,22.9423 L37.9254,25.3233 C37.9254,25.5553 37.7374,25.7433 37.5054,25.7433" id="Fill-26" fill="#1E120D"></path>
            <path d="M40.9058,24.0421 C40.7868,24.0421 40.6678,23.9911 40.5848,23.8921 L39.0788,22.0951 C38.9288,21.9161 38.9518,21.6511 39.1308,21.5031 C39.3068,21.3541 39.5718,21.3771 39.7208,21.5551 L41.2278,23.3531 C41.3768,23.5301 41.3538,23.7951 41.1768,23.9431 C41.0968,24.0101 41.0018,24.0421 40.9058,24.0421" id="Fill-28" fill="#1E120D"></path>
            <path d="M23.1919,19.9787 C23.1949,19.9917 23.2609,20.0727 23.4189,20.2637 C23.5699,20.4467 23.7989,20.6967 24.0939,20.9477 C24.2449,21.0697 24.4119,21.1877 24.5879,21.3047 C24.7719,21.4127 24.9689,21.5077 25.1739,21.5947 C25.3849,21.6727 25.6089,21.7237 25.8379,21.7767 C26.0719,21.8127 26.3139,21.8287 26.5629,21.8267 C26.5759,21.8287 26.6669,21.8297 26.6139,21.8317 L26.7269,21.8237 L26.9539,21.8067 C27.1239,21.8017 27.2089,21.7727 27.3149,21.7537 C27.5159,21.7227 27.7679,21.6607 27.9639,21.5747 C28.3809,21.4157 28.7349,21.1757 29.0179,20.9217 C29.5809,20.4087 29.8449,19.8857 29.8349,19.9267 C29.8979,19.6917 30.1409,19.5507 30.3769,19.6157 C30.6129,19.6777 30.7529,19.9207 30.6889,20.1567 C30.6829,20.1727 30.6699,20.3537 30.5869,20.6457 C30.5009,20.9377 30.3429,21.3487 30.0309,21.7867 C29.8739,22.0017 29.6879,22.2327 29.4489,22.4377 C29.2139,22.6437 28.9459,22.8517 28.6339,23.0007 C28.3209,23.1627 28.0089,23.2887 27.6269,23.3727 C27.4399,23.4117 27.2319,23.4557 27.0999,23.4617 L26.8749,23.4847 L26.7609,23.4967 C26.6329,23.5067 26.6489,23.4997 26.5859,23.5007 C26.2269,23.5097 25.8659,23.4647 25.5109,23.3977 C25.1569,23.3197 24.8219,23.1927 24.5109,23.0407 C24.2029,22.8827 23.9289,22.6947 23.6939,22.4917 C23.4599,22.2867 23.2619,22.0737 23.1039,21.8617 C22.7809,21.4427 22.6039,21.0477 22.4999,20.7657 C22.4009,20.4937 22.3639,20.2887 22.3669,20.2997 C22.2779,20.0727 22.3909,19.8157 22.6189,19.7277 C22.8459,19.6387 23.1029,19.7517 23.1919,19.9787" id="Fill-30" fill="#1E120D"></path>
            <path d="M15.3647,30.091 C15.3647,27.676 13.4067,25.718 10.9927,25.718 C8.5767,25.718 6.6187,27.676 6.6187,30.091 C6.6187,32.506 8.5767,34.464 10.9927,34.464 C13.4067,34.464 15.3647,32.506 15.3647,30.091" id="Fill-32" fill="#F991A7"></path>
            <path d="M47.4507,30.2638 C47.4507,27.8488 45.4927,25.8908 43.0767,25.8908 C40.6617,25.8908 38.7037,27.8488 38.7037,30.2638 C38.7037,32.6788 40.6617,34.6368 43.0767,34.6368 C45.4927,34.6368 47.4507,32.6788 47.4507,30.2638" id="Fill-34" fill="#F991A7"></path>
        </g>
    </g>
</svg>