<?xml version="1.0" encoding="UTF-8"?>
<svg width="120px" height="120px" viewBox="0 0 120 120" version="1.1" xmlns="http://www.w3.org/2000/svg" xmlns:xlink="http://www.w3.org/1999/xlink">
    <!-- Generator: Sketch 51.1 (57501) - http://www.bohemiancoding.com/sketch -->
    <title>House21</title>
    <desc>Created with Sketch.</desc>
    <defs>
        <polygon id="path-1" points="0.146805195 0.950591045 26.2881039 0.950591045 26.2881039 13.9701493 0.146805195 13.9701493"></polygon>
        <polygon id="path-3" points="0.000623376623 0.753456716 20.304 0.753456716 20.304 10.8656716 0.000623376623 10.8656716"></polygon>
    </defs>
    <g id="House21" stroke="none" stroke-width="1" fill="none" fill-rule="evenodd">
        <g id="Page-1" transform="translate(0.000000, 8.000000)">
            <polygon id="Fill-1" fill="#603813" points="55.7797403 22.2386149 65.5402597 22.2386149 65.5402597 4.54930149 55.7797403 4.54930149"></polygon>
            <polygon id="Fill-2" fill="#FFE77E" points="52.0966753 64.6538507 52.0966753 103.50794 117.075896 103.50794 117.075896 64.6538507 67.3226494 47.4860896"></polygon>
            <polyline id="Stroke-3" stroke="#8C6239" stroke-width="6.72" stroke-linecap="round" points="118.819013 65.1069493 67.3483636 47.4859343 50.3535584 65.976203"></polyline>
            <polygon id="Fill-5" fill="#FCB600" points="10.0103377 26.0473433 10.0103377 103.507164 69.895013 103.507164 69.895013 26.0473433 40.3687792 3.26202985"></polygon>
            <polyline id="Stroke-6" stroke="#754C24" stroke-width="7.68" stroke-linecap="round" points="73.3715844 28.6869254 40.4167792 3.26125373 6.53314286 28.6869254"></polyline>
            <polygon id="Fill-8" fill="#603813" points="77.1412987 103.50763 109.304416 103.50763 109.304416 80.7285254 77.1412987 80.7285254"></polygon>
            <polygon id="Fill-9" fill="#754C24" points="54.0264935 4.54930149 67.2935065 4.54930149 67.2935065 0.244943284 54.0264935 0.244943284"></polygon>
            <polygon id="Fill-10" fill="#5BB1BF" points="21.1901299 54.5996896 34.2997403 54.5996896 34.2997403 34.6875701 21.1901299 34.6875701"></polygon>
            <path d="M35.2597403,33.7317015 L33.3412987,33.7317015 L22.1516883,33.7317015 L20.2301299,33.7317015 L20.2301299,35.6440597 L20.2301299,53.6438209 L20.2301299,55.5561791 L22.1516883,55.5561791 L33.3412987,55.5561791 L35.2597403,55.5561791 L35.2597403,53.6438209 L35.2597403,35.6440597 L35.2597403,33.7317015 Z M22.1516883,53.6438209 L33.3412987,53.6438209 L33.3412987,35.6440597 L22.1516883,35.6440597 L22.1516883,53.6438209 Z" id="Fill-11" fill="#FFFFFF"></path>
            <polygon id="Fill-12" fill="#5BB1BF" points="45.6062338 54.5996896 58.7158442 54.5996896 58.7158442 34.6875701 45.6062338 34.6875701"></polygon>
            <path d="M59.6758442,33.7317015 L57.7558442,33.7317015 L46.5662338,33.7317015 L44.6462338,33.7317015 L44.6462338,35.6440597 L44.6462338,53.6438209 L44.6462338,55.5561791 L46.5662338,55.5561791 L57.7558442,55.5561791 L59.6758442,55.5561791 L59.6758442,53.6438209 L59.6758442,35.6440597 L59.6758442,33.7317015 Z M46.5662338,53.6438209 L57.7558442,53.6438209 L57.7558442,35.6440597 L46.5662338,35.6440597 L46.5662338,53.6438209 Z" id="Fill-13" fill="#FFFFFF"></path>
            <polygon id="Fill-14" fill="#5BB1BF" points="21.1901299 85.1989731 34.2997403 85.1989731 34.2997403 65.2868537 21.1901299 65.2868537"></polygon>
            <path d="M35.2597403,64.3308299 L33.3412987,64.3308299 L22.1516883,64.3308299 L20.2301299,64.3308299 L20.2301299,66.2431881 L20.2301299,84.2429493 L20.2301299,86.1553075 L22.1516883,86.1553075 L33.3412987,86.1553075 L35.2597403,86.1553075 L35.2597403,84.2429493 L35.2597403,66.2431881 L35.2597403,64.3308299 Z M22.1516883,84.2429493 L33.3412987,84.2429493 L33.3412987,66.2431881 L22.1516883,66.2431881 L22.1516883,84.2429493 Z" id="Fill-15" fill="#FFFFFF"></path>
            <polygon id="Fill-16" fill="#5BB1BF" points="45.6062338 85.1989731 58.7158442 85.1989731 58.7158442 65.2868537 45.6062338 65.2868537"></polygon>
            <path d="M59.6758442,64.3308299 L57.7558442,64.3308299 L46.5662338,64.3308299 L44.6462338,64.3308299 L44.6462338,66.2431881 L44.6462338,84.2429493 L44.6462338,86.1553075 L46.5662338,86.1553075 L57.7558442,86.1553075 L59.6758442,86.1553075 L59.6758442,84.2429493 L59.6758442,66.2431881 L59.6758442,64.3308299 Z M46.5662338,84.2429493 L57.7558442,84.2429493 L57.7558442,66.2431881 L46.5662338,66.2431881 L46.5662338,84.2429493 Z" id="Fill-17" fill="#FFFFFF"></path>
            <g id="Group-24" transform="translate(0.000000, 89.537481)">
                <g id="Group-20" transform="translate(15.584416, 0.000000)">
                    <mask id="mask-2" fill="white">
                        <use xlink:href="#path-1"></use>
                    </mask>
                    <g id="Clip-19"></g>
                    <path d="M26.2881039,13.9707701 L0.146805195,13.9707701 C0.146805195,6.77924776 5.99875325,0.950591045 13.219013,0.950591045 C20.4392727,0.950591045 26.2881039,6.77924776 26.2881039,13.9707701" id="Fill-18" fill="#427953" mask="url(#mask-2)"></path>
                </g>
                <g id="Group-23" transform="translate(0.000000, 3.104478)">
                    <mask id="mask-4" fill="white">
                        <use xlink:href="#path-3"></use>
                    </mask>
                    <g id="Clip-22"></g>
                    <path d="M20.304,10.8662925 L0.000623376623,10.8662925 C0.000623376623,5.28133731 4.54503896,0.753456716 10.1523117,0.753456716 C15.7595844,0.753456716 20.304,5.28133731 20.304,10.8662925" id="Fill-21" fill="#427953" mask="url(#mask-4)"></path>
                </g>
            </g>
        </g>
    </g>
</svg>