<?xml version="1.0" encoding="UTF-8"?>
<svg width="120px" height="120px" viewBox="0 0 120 120" version="1.1" xmlns="http://www.w3.org/2000/svg" xmlns:xlink="http://www.w3.org/1999/xlink">
    <!-- Generator: Sketch 51.1 (57501) - http://www.bohemiancoding.com/sketch -->
    <title>Sword2</title>
    <desc>Created with Sketch.</desc>
    <defs>
        <polygon id="path-1" points="0.505645614 0.33 87.3554643 0.33 87.3554643 87.4218837 0.505645614 87.4218837"></polygon>
        <polygon id="path-3" points="0 0.247813953 22.0214371 0.247813953 22.0214371 22.3254593 0 22.3254593"></polygon>
    </defs>
    <g id="Sword2" stroke="none" stroke-width="1" fill="none" fill-rule="evenodd">
        <g id="Page-1" transform="translate(1.000000, 0.000000)">
            <path d="M17.8701813,111.907047 C15.0740292,114.709605 10.5401988,114.709605 7.74404678,111.907047 C4.94719883,109.102395 4.94719883,104.557744 7.74404678,101.753791 L27.5370175,81.9126279 C30.3324737,79.1086744 34.8663041,79.1086744 37.6624561,81.9126279 C40.4579123,84.715186 40.4579123,89.2605349 37.6624561,92.0644884 L17.8701813,111.907047 Z" id="Fill-1" fill="#806555"></path>
            <g id="Group-5" transform="translate(31.315789, 0.367674)">
                <mask id="mask-2" fill="white">
                    <use xlink:href="#path-1"></use>
                </mask>
                <g id="Clip-4"></g>
                <polygon id="Fill-3" fill="#28D7CB" mask="url(#mask-2)" points="87.3554643 0.329790698 44.0833064 11.7960698 0.505645614 71.9976977 8.18706082 79.6993256 15.890745 87.4218837 75.934248 43.7279302"></polygon>
            </g>
            <path d="M52.3909678,98.5237674 C50.1028275,100.817721 46.3943421,100.817721 44.1062018,98.5237674 L21.5525702,75.9135349 C19.2644298,73.6195814 19.2644298,69.9009767 21.5525702,67.6077209 C23.8407105,65.3130698 27.5491959,65.3130698 29.8373363,67.6077209 L52.3909678,90.2179535 C54.6791082,92.511907 54.6791082,96.2305116 52.3909678,98.5237674" id="Fill-6" fill="#603E2A"></path>
            <g id="Group-10" transform="translate(0.000000, 97.344419)">
                <mask id="mask-4" fill="white">
                    <use xlink:href="#path-3"></use>
                </mask>
                <g id="Clip-9"></g>
                <path d="M18.7964327,19.092 C14.4964269,23.4036279 7.52553216,23.4029302 3.22483041,19.092 C-1.07517544,14.7810698 -1.07587135,7.79316279 3.2241345,3.48153488 C7.52483626,-0.830093023 14.4964269,-0.830093023 18.7964327,3.48153488 C23.0964386,7.79246512 23.0964386,14.7817674 18.7964327,19.092" id="Fill-8" fill="#FFB726" mask="url(#mask-4)"></path>
            </g>
            <path d="M16.9288982,114.564837 C13.6602257,117.842512 8.36020234,117.841814 5.09152982,114.56414 C1.82355322,111.287163 1.82285731,105.974372 5.09152982,102.697395 C8.36020234,99.4211163 13.6602257,99.4211163 16.9288982,102.697395 C20.1982667,105.974372 20.1982667,111.28786 16.9288982,114.564837" id="Fill-11" fill="#FFD47D"></path>
            <path d="M28.8925737,74.8778372 C27.4047257,76.3687674 24.9934099,76.3687674 23.5069538,74.8778372 C22.0191058,73.3855116 22.0191058,70.9680698 23.5069538,69.4771395 C24.9934099,67.9855116 27.4047257,67.9855116 28.8925737,69.4771395 C30.3811175,70.9680698 30.3811175,73.3855116 28.8925737,74.8778372" id="Fill-13" fill="#FFB726"></path>
            <path d="M28.2469117,74.229907 C27.1160637,75.3636279 25.2837421,75.3636279 24.1521982,74.229907 C23.0206544,73.096186 23.0206544,71.257814 24.1521982,70.124093 C25.2837421,68.9903721 27.1160637,68.9903721 28.2469117,70.124093 C29.3777596,71.257814 29.3777596,73.096186 28.2469117,74.229907" id="Fill-15" fill="#FFD47D"></path>
            <path d="M50.9862111,97.0262791 C49.4990591,98.517907 47.0863515,98.517907 45.5998953,97.0262791 C44.1120474,95.5346512 44.1120474,93.1172093 45.5998953,91.6262791 C47.0863515,90.1339535 49.4990591,90.1339535 50.9862111,91.6262791 C52.4740591,93.1172093 52.4740591,95.5346512 50.9862111,97.0262791" id="Fill-17" fill="#FFB726"></path>
            <path d="M50.3399228,96.3789767 C49.2090749,97.5126977 47.3767532,97.5126977 46.2459053,96.3789767 C45.1150573,95.2452558 45.1150573,93.4068837 46.2459053,92.2738605 C47.3767532,91.1401395 49.2090749,91.1401395 50.3399228,92.2738605 C51.4714667,93.4068837 51.4714667,95.2452558 50.3399228,96.3789767" id="Fill-19" fill="#FFD47D"></path>
            <path d="M46.8678368,75.4514651 C46.1044275,76.216814 44.8684977,76.2161163 44.1057842,75.4514651 C43.3437667,74.686814 43.3437667,73.4477442 44.1057842,72.683093 L103.020527,13.6179767 C103.783936,12.8533256 105.020562,12.8533256 105.783275,13.6179767 C106.545989,14.3833256 106.545989,15.6216977 105.783275,16.3870465 L46.8678368,75.4514651 Z" id="Fill-21" fill="#FAFCFB"></path>
            <path d="M117.828581,0.920930233 L75.3991655,12.1632558 L32.9829725,70.7609302 L29.8374754,67.6074419 C27.5493351,65.3134884 23.8401538,65.3134884 21.5520135,67.6074419 C19.264569,69.9006977 19.264569,73.6193023 21.5520135,75.9132558 L27.5368088,81.9125581 L11.8552532,97.6325581 C8.76194912,97.3960465 5.5900076,98.4544186 3.22392573,100.825814 C-0.970998246,105.032093 -1.06077018,111.78 2.93094912,116.110465 L117.828581,0.920930233 Z" id="Fill-23" fill="#FAFCFB" opacity="0.365942029"></path>
        </g>
    </g>
</svg>