<?xml version="1.0" encoding="UTF-8"?>
<svg width="120px" height="120px" viewBox="0 0 120 120" version="1.1" xmlns="http://www.w3.org/2000/svg" xmlns:xlink="http://www.w3.org/1999/xlink">
    <!-- Generator: Sketch 51.1 (57501) - http://www.bohemiancoding.com/sketch -->
    <title>Star4</title>
    <desc>Created with Sketch.</desc>
    <defs>
        <polygon id="path-1" points="0.0266589899 0.5321 117.802529 0.5321 117.802529 114 0.0266589899 114"></polygon>
        <polygon id="path-3" points="0 0.0077 117.83 0.0077 117.83 113.4737 0 113.4737"></polygon>
    </defs>
    <g id="Star4" stroke="none" stroke-width="1" fill="none" fill-rule="evenodd">
        <g id="Page-1" transform="translate(1.000000, 0.000000)">
            <path d="M90.8409,116.4612 C90.4059,116.4612 89.9669,116.3562 89.5699,116.1462 L58.9129,99.9132 L28.2559,116.1462 C27.3419,116.6292 26.2319,116.5522 25.3949,115.9442 C24.5529,115.3372 23.0449,114.3062 23.2179,113.2842 L30.1649,78.8802 L5.3509,54.5162 C4.6149,53.7942 4.3489,47.2762 4.6689,46.2962 C4.9909,45.3132 5.8389,45.6872 6.8629,45.5362 L41.1389,44.8692 L56.4729,13.5802 C56.9299,12.6472 57.8789,12.0572 58.9129,12.0572 C59.9519,12.0572 60.8979,12.6472 61.3549,13.5802 L76.6869,44.8692 L110.9669,45.5362 C111.9889,45.6872 112.8369,45.3132 113.1559,46.2962 C113.4789,47.2762 113.2159,53.7942 112.4789,54.5182 L87.6599,78.8802 L94.5509,112.9462 C94.6279,113.1972 94.6679,113.4672 94.6679,113.7432 C94.6679,115.2422 92.3649,116.4612 90.8629,116.4612 L90.8409,116.4612 Z" id="Fill-1" fill="#AC1556"></path>
            <g id="Group-5" transform="translate(0.000000, 6.993000)">
                <mask id="mask-2" fill="white">
                    <use xlink:href="#path-1"></use>
                </mask>
                <g id="Clip-4"></g>
                <path d="M58.9142,88.3891 C59.6432,88.3891 60.3712,88.5651 61.0342,88.9161 L89.5342,104.0061 L83.2192,72.7851 C82.9152,71.2831 83.3922,69.7281 84.4862,68.6541 L108.5182,45.0621 C108.5972,44.5201 108.6602,43.7801 108.7052,43.0321 L76.5992,42.4071 C74.9012,42.3731 73.3652,41.3951 72.6172,39.8701 L58.9142,11.9041 L45.2072,39.8701 C44.4612,41.3951 42.9252,42.3731 41.2272,42.4071 L9.1242,43.0321 C9.1682,43.7801 9.2332,44.5201 9.3112,45.0611 L33.3402,68.6541 C34.4342,69.7281 34.9102,71.2821 34.6062,72.7841 L28.3042,104.0001 L56.7932,88.9161 C57.4572,88.5651 58.1852,88.3891 58.9142,88.3891 Z M91.6892,105.1491 L91.6982,105.1491 L91.6892,105.1491 Z M90.8632,114.0001 L90.8402,114.0001 C89.6612,114.0001 88.4882,113.7081 87.4482,113.1581 L58.9142,98.0481 L30.3772,113.1581 C27.9482,114.4401 24.9502,114.2281 22.7322,112.6181 L22.6392,112.5511 C21.2842,111.5771 18.1112,109.2981 18.7512,105.5341 C18.7592,105.4871 18.7672,105.4401 18.7762,105.3951 L25.2372,73.3991 L2.1762,50.7561 C-0.6538,47.9791 -0.0058,39.0211 0.3622,37.8951 C0.8302,36.4681 2.1882,34.0751 6.0352,34.0571 C6.0662,34.0561 6.0982,34.0571 6.1312,34.0571 C6.1752,34.0571 6.2202,34.0561 6.2662,34.0531 C6.4552,34.0251 6.5832,34.0161 6.7742,34.0121 L38.2862,33.4001 L52.4042,4.5931 C53.6102,2.1261 56.1672,0.5321 58.9142,0.5321 C61.7012,0.5321 64.1952,2.0871 65.4242,4.5921 L79.5402,33.4001 L111.0562,34.0121 C111.2472,34.0161 111.4382,34.0331 111.6282,34.0601 C111.6432,34.0581 111.7112,34.0571 111.7942,34.0571 C115.6512,34.0751 117.0042,36.4771 117.4672,37.9071 C117.8312,39.0131 118.4892,47.9771 115.6502,50.7601 L92.5902,73.3981 L98.9582,104.8871 C99.1182,105.4911 99.2002,106.1171 99.2002,106.7511 C99.2002,111.0231 94.8072,114.0001 90.8632,114.0001 Z" id="Fill-3" fill="#821141" mask="url(#mask-2)"></path>
            </g>
            <path d="M90.8409,109.9348 C90.4059,109.9348 89.9669,109.8318 89.5699,109.6208 L58.9129,93.3888 L28.2559,109.6208 C27.3419,110.1048 26.2319,110.0278 25.3949,109.4178 C24.5529,108.8128 24.1339,107.7798 24.3059,106.7598 L30.1649,72.3558 L5.3509,47.9918 C4.6149,47.2668 4.3489,46.1898 4.6689,45.2068 C4.9909,44.2268 5.8389,43.5118 6.8629,43.3618 L41.1389,38.3428 L56.4729,7.0548 C56.9299,6.1218 57.8789,5.5328 58.9129,5.5328 C59.9519,5.5328 60.8979,6.1218 61.3549,7.0548 L76.6869,38.3428 L110.9669,43.3618 C111.9889,43.5118 112.8369,44.2268 113.1559,45.2068 C113.4789,46.1898 113.2159,47.2668 112.4789,47.9918 L87.6599,72.3558 L93.4639,106.4218 C93.5419,106.6728 93.5809,106.9428 93.5809,107.2158 C93.5809,108.7178 92.3649,109.9348 90.8629,109.9348 L90.8409,109.9348 Z" id="Fill-6" fill="#AC1556"></path>
            <g id="Group-10" transform="translate(0.000000, 0.993000)">
                <mask id="mask-4" fill="white">
                    <use xlink:href="#path-3"></use>
                </mask>
                <g id="Clip-9"></g>
                <path d="M58.9142,87.8637 C59.6432,87.8637 60.3712,88.0407 61.0342,88.3907 L88.4362,102.8997 L83.1942,72.1237 C82.9442,70.6607 83.4272,69.1697 84.4852,68.1297 L106.6982,46.3237 L76.0302,41.8347 C74.5522,41.6177 73.2752,40.6857 72.6172,39.3437 L58.9142,11.3797 L45.2072,39.3437 C44.5502,40.6857 43.2732,41.6177 41.7952,41.8347 L11.1312,46.3237 L33.3402,68.1297 C34.3982,69.1697 34.8812,70.6617 34.6322,72.1237 L29.3912,102.8997 L56.7932,88.3907 C57.4572,88.0407 58.1852,87.8637 58.9142,87.8637 M91.6852,104.6197 L91.6892,104.6227 C91.6872,104.6217 91.6862,104.6207 91.6852,104.6197 M89.1392,106.7827 C89.1402,106.7847 89.1402,106.7857 89.1412,106.7877 C89.1402,106.7857 89.1402,106.7847 89.1392,106.7827 M90.8632,113.4737 L90.8402,113.4737 C89.6562,113.4737 88.4812,113.1817 87.4412,112.6287 L58.9142,97.5237 L30.3772,112.6327 C27.9512,113.9177 24.9462,113.7047 22.7272,112.0897 C20.4892,110.4767 19.3742,107.7607 19.8372,105.0147 L25.3002,72.9367 L2.1762,50.2317 C0.1952,48.2797 -0.4958,45.4377 0.3612,42.8087 C1.2292,40.1717 3.4662,38.2887 6.2032,37.8847 L38.1202,33.2127 L52.4042,4.0687 C53.6102,1.6017 56.1672,0.0077 58.9142,0.0077 C61.7012,0.0077 64.1952,1.5637 65.4242,4.0677 L79.7062,33.2127 L111.6232,37.8847 C114.3722,38.2897 116.6092,40.1777 117.4662,42.8137 C118.3272,45.4377 117.6352,48.2857 115.6552,50.2307 L92.5252,72.9367 L97.8932,104.4437 C98.0392,105.0187 98.1122,105.6157 98.1122,106.2217 C98.1122,110.2197 94.8612,113.4737 90.8632,113.4737" id="Fill-8" fill="#821141" mask="url(#mask-4)"></path>
            </g>
            <path d="M90.8409,116.4612 C90.4059,116.4612 89.9669,116.3562 89.5699,116.1462 L58.9129,99.9132 L28.2559,116.1462 C27.3419,116.6292 26.2319,116.5522 25.3949,115.9442 C24.5529,115.3372 23.0449,114.3062 23.2179,113.2842 L30.1649,78.8802 L5.3509,54.5162 C4.6149,53.7942 4.3489,47.2762 4.6689,46.2962 C4.9909,45.3132 5.8389,45.6872 6.8629,45.5362 L41.1389,44.8692 L56.4729,13.5802 C56.9299,12.6472 57.8789,12.0572 58.9129,12.0572 C59.9519,12.0572 60.8979,12.6472 61.3549,13.5802 L76.6869,44.8692 L110.9669,45.5362 C111.9889,45.6872 112.8369,45.3132 113.1559,46.2962 C113.4789,47.2762 113.2159,53.7942 112.4789,54.5182 L87.6599,78.8802 L94.5509,112.9462 C94.6279,113.1972 94.6679,113.4672 94.6679,113.7432 C94.6679,115.2422 92.3649,116.4612 90.8629,116.4612 L90.8409,116.4612 Z" id="Fill-11" fill="#AC1556"></path>
            <path d="M90.8409,109.9348 C90.4059,109.9348 89.9669,109.8318 89.5699,109.6208 L58.9129,93.3888 L28.2559,109.6208 C27.3419,110.1048 26.2319,110.0278 25.3949,109.4178 C24.5529,108.8128 24.1339,107.7798 24.3059,106.7598 L30.1649,72.3558 L5.3509,47.9918 C4.6149,47.2668 4.3489,46.1898 4.6689,45.2068 C4.9909,44.2268 5.8389,43.5118 6.8629,43.3618 L41.1389,38.3428 L56.4729,7.0548 C56.9299,6.1218 57.8789,5.5328 58.9129,5.5328 C59.9519,5.5328 60.8979,6.1218 61.3549,7.0548 L76.6869,38.3428 L110.9669,43.3618 C111.9889,43.5118 112.8369,44.2268 113.1559,45.2068 C113.4789,46.1898 113.2159,47.2668 112.4789,47.9918 L87.6599,72.3558 L93.4639,106.4218 C93.5419,106.6728 93.5809,106.9428 93.5809,107.2158 C93.5809,108.7178 92.3649,109.9348 90.8629,109.9348 L90.8409,109.9348 Z" id="Fill-13" fill="#EB2C7A"></path>
            <path d="M56.5636,12.0481 C54.2156,15.7761 46.0676,31.6401 57.6186,27.2351 C68.1106,23.2401 61.7166,3.8601 56.5636,12.0481 C55.2506,14.1301 57.6616,10.3021 56.5636,12.0481" id="Fill-15" fill="#FFFFFF"></path>
            <path d="M48.4962,29.2971 C47.0232,30.2081 45.4932,32.3461 45.8382,34.0151 C46.0962,35.2741 46.7602,36.5611 47.9502,37.2341 C49.3462,38.0271 51.4432,37.8721 52.7552,36.9521 C54.6002,35.6571 55.0312,32.2951 53.4812,30.6351 C52.0482,29.0941 50.5142,28.7341 48.4962,29.2971" id="Fill-17" fill="#FFFFFF"></path>
            <path d="M28.2931,44.0862 C23.7981,42.8332 4.9581,43.4562 10.8931,50.0052 C19.1001,59.0622 34.6611,45.8622 28.2931,44.0862 C27.4261,43.8452 29.5291,44.4342 28.2931,44.0862" id="Fill-19" fill="#FFFFFF"></path>
            <path d="M113.1563,45.2072 C112.8373,44.2272 111.9893,43.5122 110.9673,43.3612 L83.6173,39.3582 C82.8173,65.3792 60.9023,86.8302 34.7143,86.8302 C32.3673,86.8302 30.0563,86.6472 27.7883,86.3132 L24.3053,106.7602 C24.1343,107.7792 24.5523,108.8122 25.3943,109.4182 C26.2313,110.0272 27.3423,110.1042 28.2563,109.6202 L58.9133,93.3892 L89.5693,109.6202 C89.9673,109.8322 90.4063,109.9352 90.8413,109.9352 L90.8633,109.9352 C92.3653,109.9352 93.5813,108.7182 93.5813,107.2162 C93.5813,106.9422 93.5423,106.6732 93.4643,106.4222 L87.6603,72.3552 L112.4783,47.9912 C113.2163,47.2672 113.4783,46.1892 113.1563,45.2072" id="Fill-21" fill="#AC1556"></path>
            <path d="M113.1563,45.2072 C112.8373,44.2272 111.9893,43.5122 110.9673,43.3612 L90.4113,40.3532 C90.4283,40.8892 90.4533,41.4292 90.4533,41.9662 C90.4533,70.1282 66.9543,93.6262 38.7943,93.6262 C34.6743,93.6262 30.6533,93.1092 26.7923,92.1602 L24.3053,106.7602 C24.1343,107.7792 24.5523,108.8122 25.3943,109.4182 C26.2313,110.0272 27.3423,110.1042 28.2563,109.6202 L58.9133,93.3892 L89.5693,109.6202 C89.9673,109.8322 90.4063,109.9352 90.8413,109.9352 L90.8633,109.9352 C92.3653,109.9352 93.5813,108.7182 93.5813,107.2162 C93.5813,106.9422 93.5423,106.6732 93.4643,106.4222 L87.6603,72.3552 L112.4783,47.9912 C113.2163,47.2672 113.4783,46.1892 113.1563,45.2072" id="Fill-23" fill="#AC1556"></path>
        </g>
    </g>
</svg>