<?xml version="1.0" encoding="UTF-8"?>
<svg width="120px" height="120px" viewBox="0 0 120 120" version="1.1" xmlns="http://www.w3.org/2000/svg" xmlns:xlink="http://www.w3.org/1999/xlink">
    <!-- Generator: Sketch 51.1 (57501) - http://www.bohemiancoding.com/sketch -->
    <title>Grass14</title>
    <desc>Created with Sketch.</desc>
    <defs>
        <polygon id="path-1" points="0.0631732523 0.250942249 5.18742857 0.250942249 5.18742857 21.0703951 0.0631732523 21.0703951"></polygon>
        <polygon id="path-3" points="0.346212766 0.0208632219 12.0273556 0.0208632219 12.0273556 14.6630517 0.346212766 14.6630517"></polygon>
    </defs>
    <g id="Grass14" stroke="none" stroke-width="1" fill="none" fill-rule="evenodd">
        <g id="Group" transform="translate(12.000000, 0.000000)">
            <g id="Group-3" transform="translate(60.547112, 0.113799)">
                <mask id="mask-2" fill="white">
                    <use xlink:href="#path-1"></use>
                </mask>
                <g id="Clip-2"></g>
                <path d="M5.18742857,0.250577508 C4.53563526,2.72352584 3.5716231,5.11404255 2.3260304,7.34735562 C3.06572644,6.6568997 3.80542249,5.96717325 4.5447538,5.27671733 C4.24238298,7.17519757 3.44870517,9.3293617 2.40773252,10.9451672 C2.8866383,10.592462 3.6285228,9.80170213 4.12201824,9.28121581 C3.70001216,11.1789666 2.89174468,12.8046201 2.00359878,14.5334954 C2.79508815,13.9604863 3.4822614,13.2430395 4.02062006,12.4271125 C3.39071125,14.9029787 2.60943465,16.2897264 1.5666383,17.5371429 C2.27423708,16.9856535 2.98147112,16.4341641 3.68906991,15.8830395 C2.93697264,18.0795137 2.52262614,18.8421884 1.60092401,20.0713678 C1.14718541,20.6761094 0.685787234,20.9894225 0.0631732523,21.0703951 C0.254662614,21.0455927 1.00566565,12.4504559 1.08372036,11.6290578 C1.23326444,10.048997 1.32590881,8.45945289 1.27192705,6.87136778 C1.22232219,5.41531915 1.1978845,4.74018237 2.02767173,3.45483283 C2.84688146,2.18589666 3.9272462,1.08401216 5.18742857,0.250577508" id="Fill-1" fill="#C3E6A3" mask="url(#mask-2)"></path>
            </g>
            <g id="Group-6" transform="translate(70.759878, 30.387356)">
                <mask id="mask-4" fill="white">
                    <use xlink:href="#path-3"></use>
                </mask>
                <g id="Clip-5"></g>
                <path d="M12.0274286,0.0208632219 C10.7504681,1.56992097 9.22657751,2.9147234 7.53125836,3.98925228 C8.31873556,4.11581763 9.12262614,4.14134954 9.91703343,4.0647538 C8.71666869,4.89818845 7.38463222,5.54195745 5.98584802,5.96469301 C6.88493617,6.35751976 7.91168389,6.27654711 8.88919149,6.18827964 C7.75995137,7.16104559 6.46147112,7.93721581 5.0703465,8.47192705 C5.84031611,8.51934347 6.60992097,8.56639514 7.37989058,8.61381155 C6.42244377,9.69089362 5.29466261,10.6166079 4.0516231,11.3457264 C4.70669909,11.4106505 5.37271733,11.3599514 6.01065046,11.1972766 C4.7278541,12.8838419 2.43545289,14.3118055 0.346212766,14.6630517 C1.60092401,12.0821398 2.72141033,9.57964742 3.97648632,6.9991003 C4.84055927,5.22207903 5.70755015,2.47812766 7.76469301,1.44809726 C9.10840122,0.775878419 10.545848,0.26268693 12.0274286,0.0208632219" id="Fill-4" fill="#C3E6A3" mask="url(#mask-4)"></path>
            </g>
            <path d="M29.4434772,20.3361337 C30.5180061,20.6472584 31.3018359,20.9926687 32.4172158,21.1429422 C30.8025046,20.1574103 30.1036596,19.1036717 29.0477325,17.6202675 C30.1218967,18.1918176 30.8087052,18.3417264 32.0284012,18.5715137 C30.4260912,17.6622128 29.1914407,16.2667112 28.3317447,14.739538 C29.2308328,15.1232462 30.118614,15.4318176 31.111076,15.3949787 C29.5306505,14.468535 28.7260304,13.4045836 27.8192827,11.9091429 C28.6742371,12.4022736 29.3603161,12.6163769 30.3327173,12.8742492 C29.1414711,11.8577143 28.3846322,10.8291429 27.6248754,9.51497872 C28.5564255,9.78087538 29.8104073,10.1310274 30.6358176,10.6051915 C30.7995866,10.6992948 30.9637204,10.7999635 31.078614,10.9414833 C31.2077325,11.1005106 31.263538,11.2971064 31.317155,11.4878663 C32.2155137,14.7118176 32.9920486,17.5578967 33.8904073,20.781848 C34.0600122,21.3902371 35.4730213,24.1429422 34.0388571,23.7730942 C33.4315623,23.6166201 30.8769119,22.5873191 29.4434772,20.3361337" id="Fill-7" fill="#C3E6A3"></path>
            <path d="M15.669848,29.0115866 C16.6429787,30.8382128 17.1941033,31.9054468 17.9655319,33.8258116 C17.9928875,33.8940182 18.0202432,33.9687903 17.9987234,34.0388207 C17.9509422,34.1927416 17.7335562,34.1887295 17.5770821,34.1511611 C14.6394529,33.446845 12.3587234,32.6134103 10.2913678,29.6637447 C12.081155,30.2436839 13.2957447,30.8892766 14.5015805,30.9749909 C12.2343465,30.0532888 10.7199392,29.2607052 9.28285714,26.9161459 C10.663769,27.4530456 11.5139818,28.0056292 12.9886322,28.1515258 C11.1102128,26.911769 9.68042553,26.6874529 8.40054711,23.8658116 C9.48455927,24.3950517 10.7651672,24.8458723 11.9494833,25.1588207 C10.1542249,23.9697629 8.27325228,22.6833191 7.36468085,20.7308571 C8.30279635,21.0955988 9.27957447,21.3585775 10.2738602,21.5135927 C8.67920973,20.5214954 7.3406079,19.121617 6.42072948,17.4839271 C7.36066869,17.8012523 8.95094225,18.1619818 9.81209726,18.5715866 C10.7516717,19.0180304 10.9431611,20.2096413 11.4096657,21.0726201 C12.8379939,23.7148085 14.2582979,26.3606444 15.669848,29.0115866" id="Fill-9" fill="#C3E6A3"></path>
            <path d="M5.51478419,57.1088024 C7.07733739,57.1529362 8.63514894,57.3604742 10.1546626,57.727769 C7.86262614,56.6474043 5.48268693,55.4977386 3.93435866,53.4927538 C5.31782371,53.8191976 6.72244377,54.0551854 8.13618237,54.1985289 C5.86274772,53.3092888 3.13192705,52.327769 1.14043769,49.4284377 C2.52682067,49.7308085 4.14007295,50.6131185 5.5016535,50.8399878 C2.42578723,49.1257021 1.01423708,48.1678906 0.0659088146,46.8920243 C0.923781155,46.9937872 1.7728997,47.1699574 2.60049848,47.419076 C3.1647538,47.5883161 3.72900912,47.7973131 4.19259574,48.1598663 C4.51612158,48.4126322 4.77982979,48.7317812 5.04025532,49.0491064 C7.19405471,51.6748815 9.28365957,54.3531793 11.3065167,57.0810821 C11.6610456,57.5585289 14.2671246,60.6581033 13.9742371,61.0170091 C13.5314407,61.5597447 10.3074894,60.0128754 9.76730699,59.7652158 C8.99770213,59.4114164 8.25071125,59.0091064 7.53253495,58.5597447 C7.1659696,58.3303222 6.80742857,58.0884985 6.45691185,57.835003 C6.28329483,57.7095319 5.71612158,57.115003 5.51478419,57.1088024" id="Fill-11" fill="#C3E6A3"></path>
            <path d="M50.2878784,31.1123891 C49.1765106,32.2117204 48.180766,33.4274043 47.3214347,34.7331793 C48.2577264,32.3791368 49.2107964,29.913848 48.9726201,27.3916596 C48.1847781,28.5748815 47.3199757,29.7066748 46.3855076,30.7771915 C47.4385167,28.5745167 48.7628936,25.9921459 48.2376657,22.5146991 C47.4315866,23.6822371 46.8556596,25.4289848 46.0160243,26.524304 C47.0916474,23.1715988 47.4687903,21.5076474 47.2900669,19.9279514 C46.7327416,20.5881337 46.2330456,21.2971915 45.7982736,22.0441824 C45.5024681,22.552997 45.232924,23.0909909 45.1417386,23.6727538 C45.0779088,24.0779818 45.103076,24.4915988 45.1297021,24.9012036 C45.3500061,28.2900182 45.6527416,31.6733617 46.0386383,35.0475866 C46.1057508,35.6384681 46.0087295,39.8621763 46.4675745,39.9241824 C47.1620426,40.0182857 48.7705532,36.5065532 48.9955988,35.9568875 C49.3165714,35.1734225 49.5872097,34.3688024 49.8045957,33.5503222 C49.9154772,33.1319635 50.0128632,32.7106869 50.0960243,32.2861277 C50.1368754,32.0764012 50.1448997,31.2542736 50.2878784,31.1123891" id="Fill-13" fill="#C3E6A3"></path>
            <path d="M2.9936535,46.9448389 C6.7723769,51.2962067 10.1834407,55.9820426 13.4639271,60.7152948 C16.9873313,65.7994286 20.296997,71.0174225 23.2521337,76.4531672 C27.2475137,83.8041702 31.980766,90.7098237 35.5176657,98.3121337 C38.5825897,104.900827 40.9836839,111.781313 43.150614,118.709945 C43.2666018,119.080158 43.8509179,118.922225 43.7338359,118.549094 C40.4270881,107.97414 36.4488511,97.7135927 30.8190638,88.1486079 C28.7509787,84.6346869 26.5800365,81.182772 24.5885471,77.6236231 C21.6410699,72.3560243 18.6075137,67.1967538 15.213228,62.1983343 C11.5457508,56.7979696 7.70575076,51.4501277 3.42149544,46.516997 C3.16581155,46.2226505 2.73906383,46.6519514 2.9936535,46.9448389" id="Fill-15" fill="#9CC291"></path>
            <path d="M9.39979331,18.0436596 C15.8210699,29.7482188 21.6598541,41.7781277 26.7107964,54.1388571 C31.7011915,66.350772 35.9311003,78.8832948 39.1685471,91.6751489 C40.9973617,98.8999514 42.5022857,106.204267 43.6548693,113.567307 C43.7150517,113.95065 44.2982736,113.787976 44.2384559,113.406091 C42.1860547,100.298371 39.0044134,87.3839635 34.9152948,74.7657264 C30.8334711,62.1671854 25.8602188,49.8633556 20.2111003,37.8881581 C16.9926201,31.0660304 13.5505532,24.3511368 9.92246809,17.7380061 C9.73499088,17.3969726 9.21231611,17.7018967 9.39979331,18.0436596" id="Fill-17" fill="#9CC291"></path>
            <path d="M30.3574468,9.02593313 C34.4564134,23.2658116 38.4838906,37.6005228 40.2937386,52.3448389 C41.2161702,59.8603404 41.4164134,67.4436839 41.9266869,74.9938359 C42.4008511,82.0132888 43.1948936,89.0104924 43.2328267,96.051465 C43.2718541,103.34338 42.8637082,110.630553 42.9359271,117.922833 C42.9395745,118.311647 43.5446809,118.312742 43.5410334,117.922833 C43.4764742,111.403076 43.7996353,104.885872 43.8368389,98.3664802 C43.876231,91.4363891 43.2138602,84.5956596 42.7192705,77.6907356 C42.1717933,70.0501277 41.9828571,62.3657508 41.1738602,54.7473921 C40.3998784,47.4580304 39.074772,40.2386991 37.4268693,33.0996109 C35.5455319,24.9490942 33.2542249,16.9014347 30.9410334,8.86544681 C30.8334347,8.49158663 30.2491185,8.65061398 30.3574468,9.02593313" id="Fill-19" fill="#9CC291"></path>
            <path d="M44.6525471,23.5379453 C45.9386261,33.5001337 46.4106018,43.547307 46.4106018,53.5879149 C46.4106018,58.5790395 46.358079,63.5789179 45.9988085,68.5587356 C45.640997,73.526152 45.0530334,78.4720486 44.5299939,83.4237812 C43.9489605,88.9240851 43.4529119,94.4393435 43.4423343,99.9739331 C43.4416049,100.363477 44.0467112,100.364207 44.0474407,99.9739331 C44.066772,90.0391003 45.6544924,80.2093131 46.4675015,70.3277325 C47.2859818,60.3794043 47.1915137,50.288462 46.7151611,40.3237204 C46.447076,34.7118055 45.976924,29.1101033 45.2572888,23.5379453 C45.2080486,23.157155 44.6025775,23.1520486 44.6525471,23.5379453" id="Fill-21" fill="#9CC291"></path>
            <path d="M61.5934468,4.17672948 C61.7054225,20.3486444 56.9962432,36.0383708 53.6001337,51.7065775 C51.8767295,59.6561216 50.808766,67.6851793 49.5602553,75.7167903 C48.2803769,83.9493739 46.5044498,92.0925957 45.3646322,100.344875 C44.8955745,103.739526 44.296304,107.111927 43.8177629,110.504024 C43.4526565,113.090043 42.8628693,116.09296 43.5204985,118.676426 C43.6164255,119.053568 44.2000122,118.893812 44.1040851,118.515574 C43.4854833,116.08603 44.0446322,113.217337 44.3842067,110.783781 C44.7825046,107.931866 45.3037204,105.099283 45.7056657,102.247733 C46.2801337,98.1732036 46.8728389,94.1220182 47.6723526,90.0843283 C48.4922918,85.9459696 49.2075502,81.7871854 49.8695562,77.6207416 C51.1308328,69.6839635 52.1127173,61.7128997 53.762079,53.8421398 C55.4019574,46.0177021 57.3828693,38.2691307 59.0249362,30.4450578 C60.8377021,21.806152 62.259465,13.0275502 62.1985532,4.17672948 C62.1956353,3.78755015 61.5908936,3.78682067 61.5934468,4.17672948" id="Fill-23" fill="#9CC291"></path>
            <path d="M77.0728997,32.0046565 C73.4291307,39.1273313 70.1212888,46.4272705 67.0746018,53.824231 C64.1687052,60.8779696 61.6789787,68.0323769 59.3767295,75.3009483 C56.1367295,85.5297629 52.2073678,95.5638055 48.4935684,105.626663 C46.8682796,110.029459 45.1988571,114.419489 43.6549058,118.851465 C43.5265167,119.219854 44.1108328,119.378517 44.2384924,119.012681 C47.517155,109.600888 51.1244498,100.299976 54.530772,90.9341398 C56.2341155,86.2504924 57.947307,81.5661155 59.5142371,76.8339574 C60.3480365,74.3172401 61.0738723,71.7673313 61.9149666,69.2528024 C63.2426261,65.2858723 64.7030517,61.3638055 66.2459088,57.4760243 C69.6401945,48.9246565 73.4043283,40.5020426 77.5955745,32.3099453 C77.7721094,31.9641702 77.2501641,31.6574225 77.0728997,32.0046565" id="Fill-25" fill="#9CC291"></path>
            <path d="M48.9087173,104.131623 C48.9087173,104.131623 48.9492036,103.649435 49.020693,102.804693 C49.0484134,102.382322 49.1166201,101.87059 49.1888389,101.282261 C49.2533982,100.69138 49.3551611,100.031562 49.4664073,99.3108328 C49.5667112,98.5875502 49.7242796,97.8139331 49.8683526,96.9892523 C49.9427599,96.577459 50.0401459,96.159465 50.1320608,95.7297994 C50.2247052,95.3004985 50.3173495,94.8609848 50.4300547,94.4189179 C50.5380182,93.9750274 50.6481702,93.5242067 50.7590517,93.0675502 C50.8812401,92.6138116 51.0048875,92.1546018 51.1292644,91.6917447 C51.3772888,90.7645714 51.6628815,89.8326565 51.9477447,88.8996474 C52.2369848,87.968462 52.5378967,87.0401945 52.8471976,86.1297994 C53.1389909,85.2124742 53.4851307,84.3312584 53.8214225,83.4792219 C54.1949179,82.6428693 54.5436109,81.828766 54.9470152,81.0901641 C55.1414225,80.7184924 55.3307234,80.356304 55.5138237,80.006152 C55.7118784,79.6640243 55.9033678,79.3335684 56.0871976,79.0162432 C56.4501155,78.3794043 56.8181398,77.8155137 57.1485957,77.3191003 C57.3152827,77.0721702 57.4713921,76.840924 57.615465,76.6271854 C57.7635502,76.416 57.9098116,76.2274286 58.0360122,76.054541 C58.5506626,75.368462 58.8683526,74.9927781 58.8683526,74.9927781 L59.0076839,75.073386 C59.0076839,75.073386 58.8541277,75.5431733 58.5426383,76.3342979 C58.3876231,76.7293131 58.1994164,77.2089483 57.9831246,77.7582492 C57.8784438,78.0343587 57.7526079,78.3199514 57.628231,78.6252401 C57.5056778,78.9312584 57.3845836,79.2569726 57.2441581,79.5888875 C56.9713313,80.2556353 56.6766201,80.9781884 56.3644012,81.7426869 C56.048535,82.503538 55.7326687,83.3132644 55.369386,84.1342979 C55.0268936,84.9644498 54.6271368,85.8037204 54.2576535,86.6728997 C53.8702979,87.5355137 53.5212401,88.4294954 53.167076,89.3227477 C52.8300547,90.2218359 52.490845,91.1220182 52.1899331,92.0189179 C52.0389301,92.4675502 51.8890213,92.9121702 51.7405714,93.3516839 C51.6026991,93.794845 51.4666505,94.232535 51.3327903,94.6629301 C51.0614225,95.5233556 50.8422128,96.3673678 50.6102371,97.1625046 C50.4037933,97.9631125 50.1860426,98.7166687 50.0302979,99.4224438 C49.8628815,100.12603 49.7100547,100.771623 49.5999027,101.347185 C49.4839149,101.922748 49.3730334,102.423173 49.3037325,102.841897 C49.1541884,103.676061 49.0684742,104.152778 49.0684742,104.152778 L48.9087173,104.131623 Z" id="Fill-27" fill="#79A85A"></path>
            <path d="M43.4635988,119.457884 C43.4635988,119.457884 43.6032948,118.457763 43.7944195,116.703356 C43.9811672,114.94676 44.2470638,112.437337 44.5669422,109.425666 C44.7336292,107.919647 44.9141763,106.288523 45.1053009,104.562565 C45.3004377,102.837337 45.5349666,101.020924 45.7822614,99.1421398 C46.2823222,95.3853009 46.8637204,91.3818967 47.556,87.3927173 C47.8886444,85.3957568 48.2668815,83.4060912 48.6411064,81.4459696 C48.8325957,80.4673678 49.0291915,79.4960608 49.2396474,78.5404377 C49.4628693,77.5873678 49.6642067,76.6415927 49.8972766,75.7187964 C50.1391003,74.7981884 50.3630517,73.8888875 50.6293131,73.0109544 C50.7577021,72.571076 50.8846322,72.1359392 51.0097386,71.7055441 C51.1472462,71.2787964 51.2825653,70.857155 51.4167903,70.4409848 C51.9463951,68.7755745 52.5157568,67.2210456 53.0811064,65.8025653 C53.6460912,64.3829909 54.2267599,63.1060304 54.7724134,61.9906505 C55.3326565,60.8814711 55.8385532,59.9243891 56.3185532,59.1708328 C56.7704681,58.4030517 57.1618359,57.8227477 57.441228,57.4357568 C57.7151489,57.0469422 57.8614103,56.8394043 57.8614103,56.8394043 L57.9981884,56.9251185 C57.9981884,56.9251185 57.8891307,57.1530821 57.6841459,57.5805593 C57.5838419,57.7942979 57.4539939,58.0547234 57.3011672,58.3596474 C57.1487052,58.6645714 57.002079,59.0315015 56.8226261,59.4323526 C56.644997,59.8339331 56.4484012,60.277459 56.2627477,60.7742371 C56.0708936,61.2680973 55.8389179,61.7885836 55.6375805,62.3666991 C55.4380669,62.9451793 55.192231,63.5444498 54.9759392,64.1947842 C54.7640243,64.8469422 54.5218359,65.523538 54.2953313,66.2402553 C54.0764863,66.9595258 53.8222614,67.6981277 53.6077933,68.4804985 C53.3780061,69.2577629 53.1307112,70.0572766 52.910772,70.8907112 C52.4504681,72.5502857 51.9901641,74.3087052 51.5262128,76.1320486 C51.0407416,77.949921 50.5873678,79.8429301 50.11831,81.7662128 C49.6591003,83.6920486 49.2276109,85.6580061 48.8242067,87.6308936 C48.0173982,91.5770334 47.3181884,95.5476109 46.7079757,99.2789179 C46.4132644,101.14676 46.1284012,102.952231 45.8581277,104.664328 C45.5987964,106.379343 45.35369,108.000255 45.1271854,109.49679 C44.687307,112.493508 44.3211064,114.990894 44.0643283,116.7391 C43.8024438,118.488401 43.6229909,119.481957 43.6229909,119.481957 L43.4635988,119.457884 Z" id="Fill-29" fill="#599948"></path>
            <path d="M43.3959027,119.728596 C43.3959027,119.728596 43.3999149,119.685921 43.4075745,119.603489 C43.4155988,119.521422 43.4283647,119.398869 43.4338359,119.241666 C43.4520729,118.928353 43.4579088,118.45893 43.4469666,117.864401 C43.4228936,116.674249 43.3422857,114.972365 43.1898237,112.933094 C43.0410091,110.893094 42.8228936,108.516438 42.5876353,105.970906 C42.3428936,103.427562 42.0667842,100.709508 41.7206444,98.0173495 C41.539003,96.6652523 41.3533495,95.313155 41.1567538,93.9865897 C40.9586991,92.6596596 40.7467842,91.3578967 40.5728024,90.0951611 C40.394079,88.833155 40.2365106,87.6127295 40.0938967,86.4546748 C39.9447173,85.2984438 39.8031976,84.2053131 39.6729848,83.1964377 C39.5285471,82.1904802 39.4078176,81.2662249 39.27031,80.4528511 C39.1433799,79.6376535 39.010614,78.9318784 38.8924377,78.3515745 C38.7724377,77.7716353 38.6542614,77.323003 38.5707356,77.0151611 C38.4784559,76.7106018 38.4288511,76.5475623 38.4288511,76.5475623 L38.5736535,76.4768024 C38.5736535,76.4768024 38.6644742,76.6248875 38.8351733,76.9035502 C38.9949301,77.1873191 39.2207052,77.6129726 39.4548693,78.1739453 C39.6948693,78.7330942 39.9487295,79.4261033 40.2080608,80.2288997 C40.4579088,81.0335198 40.7259939,81.9461033 40.9627112,82.9520608 C41.2121945,83.955465 41.4379696,85.0504195 41.6579088,86.2102979 C41.877848,87.370541 42.0722553,88.5989909 42.2301884,89.8744924 C42.393228,91.1492644 42.5073921,92.4718176 42.6222857,93.8144316 C42.7375441,95.1552219 42.8553556,96.5175319 42.9728024,97.8798419 C43.2058723,100.617228 43.364535,103.342578 43.5005836,105.904158 C43.6395502,108.46355 43.7114043,110.856255 43.7515258,112.907198 C43.788,114.958505 43.788,116.669508 43.7281824,117.868413 C43.7008267,118.468413 43.6654468,118.937106 43.62569,119.260997 C43.6092766,119.423307 43.5884863,119.543672 43.5753556,119.625374 C43.5625897,119.706711 43.5556596,119.749021 43.5556596,119.749021 L43.3959027,119.728596 Z" id="Fill-31" fill="#599948"></path>
            <path d="M43.7314286,119.335003 C43.7314286,119.335003 43.711003,118.6471 43.6752584,117.443453 C43.6395137,116.239805 43.6158055,114.51786 43.5953799,112.452328 C43.5920973,111.41938 43.5884498,110.300353 43.5848024,109.116766 C43.5833435,107.933179 43.6048632,106.685398 43.6209119,105.394578 C43.6570213,102.812571 43.7201216,100.059137 43.790152,97.3064316 C43.821155,95.9302614 43.8521581,94.5540912 43.8827964,93.199076 C43.9068693,91.8440608 43.951003,90.5116596 44.0254103,89.2241216 C44.0939818,87.9362188 44.1975684,86.6939088 44.3015198,85.5157933 C44.3996353,84.340231 44.5097872,83.2266748 44.6421884,82.1773131 C44.7942857,81.1403526 44.9573252,80.1978602 45.1418845,79.3706261 C45.31769,78.5419331 45.5033435,77.827769 45.6631003,77.2427234 C45.827234,76.6584073 45.9625532,76.2017508 46.0654103,75.8931793 C46.1668085,75.5846079 46.2204255,75.4201094 46.2204255,75.4201094 L46.3783587,75.4533009 C46.3783587,75.4533009 46.3145289,76.1397447 46.2021884,77.3412036 C46.144924,77.9397447 46.0847416,78.6666748 46.0212766,79.4971915 C45.9683891,80.3295319 45.8968997,81.2643647 45.871003,82.2834529 C45.8210334,83.2894103 45.8472948,84.4106261 45.8151976,85.5949422 C45.7955015,86.7777994 45.7674164,88.0252158 45.6995745,89.3127538 C45.6375684,90.6010213 45.5405471,91.9297751 45.4245593,93.2789544 C45.3184195,94.6288632 45.2100912,95.9995623 45.1021277,97.3706261 C44.902614,100.113848 44.7209726,102.856705 44.5677812,105.429593 C44.4251672,108.003574 44.2920365,110.405763 44.1778723,112.464365 C44.0757447,114.52479 44.0130091,116.241629 43.9630395,117.444547 C43.918541,118.64783 43.8926444,119.335733 43.8926444,119.335733 L43.7314286,119.335003 Z" id="Fill-33" fill="#79A85A"></path>
            <path d="M40.8751368,56.4737143 L40.6909422,55.6548693 C40.6325836,55.3944438 40.5621884,55.0785775 40.4812158,54.7156596 C40.3867477,54.3596717 40.2802432,53.9580912 40.1642553,53.5200365 C40.057386,53.0823465 39.8881459,52.6165714 39.7393313,52.1208875 C39.5930699,51.6241094 39.3946505,51.1138359 39.2108207,50.5816778 C39.0280851,50.0484255 38.7858967,49.5166322 38.5790881,48.9651429 C38.3398176,48.42569 38.1114894,47.8720122 37.8463222,47.3358419 C37.7117325,47.0695805 37.5767781,46.8029544 37.4429179,46.5374225 C37.3039514,46.2744438 37.1493009,46.0213131 37.0044985,45.7667234 C36.7174468,45.2549909 36.3997568,44.7746261 36.1342249,44.287696 C35.8508207,43.8120729 35.6042553,43.3349909 35.3525836,42.8936535 C35.1056535,42.4472097 34.8718541,42.0255684 34.6562918,41.6360243 C34.4283283,41.2563283 34.2390274,40.8850213 34.0442553,40.5793678 C33.8622492,40.2602188 33.6944681,39.9888511 33.554772,39.763076 C33.4205471,39.5296413 33.2987234,39.3633191 33.2232219,39.2363891 C33.1458967,39.1112827 33.1043161,39.0448997 33.1043161,39.0448997 L33.2086322,38.921617 C33.2086322,38.921617 33.2797568,38.9580912 33.4121581,39.0259331 C33.5431003,39.0959635 33.7448024,39.1977264 33.9687538,39.359307 C34.0836474,39.4395502 34.2105775,39.5285471 34.3480851,39.6255684 C34.4768389,39.7320729 34.6161702,39.8469666 34.7649848,39.9702492 C34.9181763,40.0909787 35.0648024,40.2343222 35.2179939,40.3853252 C35.3722796,40.5363283 35.5382371,40.6931672 35.6990881,40.8675137 C36.0124012,41.2191246 36.3541641,41.6046565 36.6682067,42.0427112 C37.0019453,42.4698237 37.2959271,42.9552948 37.5972036,43.4600973 C37.8660182,43.9813131 38.1413982,44.5225897 38.3598784,45.0985167 C38.5991489,45.6649605 38.8143465,46.2500061 39.033921,46.8310395 C39.2578723,47.4095198 39.4438906,48.0029544 39.6393921,48.5796109 C39.807538,49.1664802 39.9884498,49.7376657 40.1172036,50.3030152 C40.2434043,50.869459 40.396231,51.4063587 40.4772036,51.9319514 C40.5647416,52.4557204 40.6737994,52.9411915 40.7270517,53.4033191 C40.7875988,53.8614347 40.8430395,54.2808875 40.8926444,54.652924 C40.932766,55.0231368 40.9528267,55.3462979 40.9732523,55.6132888 C41.0122796,56.1458116 41.0345289,56.4503708 41.0345289,56.4503708 L40.8751368,56.4737143 Z" id="Fill-35" fill="#79A85A"></path>
            <path d="M26.5109179,53.3153435 C26.5109179,53.3153435 26.3832584,53.12969 26.1596717,52.8054347 C26.049155,52.6427599 25.9149301,52.4450699 25.7606444,52.2185653 C25.5979696,52.0033678 25.4141398,51.7604498 25.2135319,51.4960122 C25.0235015,51.2279271 24.7747477,50.9620304 24.5332888,50.671696 C24.294383,50.3777143 24.0146261,50.0924863 23.7359635,49.7915745 C23.4624073,49.485921 23.1359635,49.2116353 22.8379696,48.905617 C22.514079,48.6251307 22.2000365,48.3260426 21.8553556,48.0637933 C21.6828328,47.9328511 21.5143222,47.7978967 21.3399757,47.6724255 C21.1601581,47.5553435 20.9807052,47.4386261 20.8027112,47.3226383 C20.6283647,47.2033678 20.4423465,47.1037933 20.2676353,46.9947356 C20.0878176,46.8926079 19.9266018,46.768231 19.7518906,46.670845 C19.5862979,46.5595988 19.418152,46.4582006 19.2649605,46.3407538 C19.1048389,46.2335198 18.9472705,46.1310274 18.7980912,46.0212401 C18.4942614,45.8078663 18.2061155,45.6057994 17.9405836,45.4201459 C17.6706748,45.2282918 17.4230152,45.0524863 17.2034407,44.8967416 C16.9849605,44.7322432 16.7861763,44.5991125 16.6271489,44.4732766 C16.3047173,44.2343708 16.121617,44.0738845 16.121617,44.0738845 L16.1719514,43.920693 C16.1719514,43.920693 16.231769,43.919234 16.3444742,43.9159514 C16.4568146,43.9148571 16.6220426,43.9133982 16.8277568,43.9309058 C17.0338359,43.9476839 17.2851429,43.9710274 17.5663587,44.0261033 C17.8493982,44.0764377 18.1641702,44.150845 18.5026505,44.2522432 C18.839307,44.3565593 19.2004012,44.4864073 19.5669666,44.6563769 C19.9379088,44.8183222 20.3110395,45.0265897 20.6794286,45.2687781 C21.0405228,45.5208146 21.3968754,45.8071368 21.7298845,46.1288389 C21.8965714,46.2875015 22.0650821,46.4479878 22.2335927,46.6084742 C22.3933495,46.7788085 22.5604012,46.9411185 22.7227112,47.1074407 C23.0546261,47.4327903 23.3522553,47.7909666 23.6560851,48.1287173 C23.9373009,48.4876231 24.228,48.8271976 24.4669058,49.1879271 C24.7087295,49.5457386 24.9589422,49.8772888 25.1497021,50.2234286 C25.3462979,50.565921 25.5476353,50.8741277 25.6979088,51.1863465 C25.854383,51.4909058 25.9980912,51.7699331 26.1250213,52.017228 C26.2395502,52.2667112 26.3332888,52.4862857 26.4098845,52.6679271 C26.5641702,53.0304802 26.6524377,53.2372888 26.6524377,53.2372888 L26.5109179,53.3153435 Z" id="Fill-37" fill="#79A85A"></path>
            <path d="M34.464,73.9962675 C34.464,73.9962675 34.3359757,73.807696 34.1123891,73.4786991 C34.0007781,73.3134711 33.8661884,73.1124985 33.7038784,72.8936535 C33.5401094,72.6729848 33.371234,72.4194894 33.1574954,72.1568754 C32.947769,71.8924377 32.7292888,71.6021033 32.4750638,71.3121337 C32.3514164,71.1647781 32.2248511,71.0137751 32.0953678,70.8591246 C31.9611429,70.7084863 31.8243647,70.5549301 31.6850334,70.3988207 C31.4125714,70.0822249 31.1014468,69.7791246 30.808924,69.4555988 C30.4981641,69.1462979 30.1946991,68.822772 29.8667964,68.5225897 C29.5476474,68.214383 29.2069787,67.9284255 28.8688632,67.6530456 C28.5263708,67.382772 28.1955502,67.1121337 27.8833313,66.8436839 C27.5776778,66.5672097 27.2888024,66.2932888 27.0203526,66.0252036 C26.7551854,65.7520122 26.4947599,65.506541 26.2689848,65.2563283 C26.0340912,65.0203404 25.8287416,64.7850821 25.6398055,64.5844742 C25.451234,64.3838663 25.2918419,64.1960243 25.1587112,64.0428328 C24.8895319,63.7408267 24.745459,63.5394894 24.745459,63.5394894 L24.8282553,63.4008875 C24.8282553,63.4008875 25.0682553,63.4395502 25.4716596,63.5562675 C25.6737264,63.6135319 25.9071611,63.7039878 26.1770699,63.8093982 C26.4440608,63.9195502 26.7347599,64.0610699 27.0498967,64.2222857 C27.3540912,64.3962675 27.6900182,64.5826505 28.0157325,64.8157204 C28.3505653,65.0389422 28.6824802,65.3015562 29.0071003,65.5937143 C29.3284377,65.8887903 29.6322675,66.2247173 29.9280729,66.5748693 C30.2195015,66.9275745 30.5156717,67.2857508 30.8118419,67.6435623 C31.1127538,67.9948085 31.387769,68.368304 31.6689848,68.725386 C31.9359757,69.0941398 32.2022371,69.4530456 32.4349422,69.8188815 C32.6756717,70.1777872 32.9018116,70.5290334 33.0980426,70.8733495 C33.3041216,71.2103708 33.4755502,71.5441094 33.6407781,71.8461155 C33.808924,72.1452036 33.9398663,72.4380912 34.0653374,72.686845 C34.1933617,72.9370578 34.2892888,73.1580912 34.363696,73.3426505 C34.517617,73.7095805 34.6058845,73.919307 34.6058845,73.919307 L34.464,73.9962675 Z" id="Fill-39" fill="#79A85A"></path>
            <path d="M41.966845,71.3995988 C41.966845,71.3995988 41.9551733,71.1497508 41.9351125,70.7124255 C41.9259939,70.4935805 41.942772,70.2222128 41.9518906,69.9114529 C41.9610091,69.5988693 42.0040486,69.2571064 42.0335927,68.8763161 C42.1189422,68.1223951 42.2433191,67.2419088 42.4508571,66.315465 C42.5471489,65.8493252 42.6591246,65.3711489 42.7929848,64.8904195 C42.915538,64.4056778 43.0734711,63.9242188 43.2157204,63.4358298 C43.3802188,62.9558298 43.5133495,62.4623343 43.6800365,61.9874407 C43.7613739,61.7492644 43.8376049,61.5107234 43.9240486,61.2794772 C44.0130456,61.0485957 44.115538,60.8264681 44.2118298,60.6061641 C44.4095198,60.1692036 44.6586383,59.7690821 44.8924377,59.3944924 C45.141921,59.0250091 45.3888511,58.6843404 45.6394286,58.3841581 C45.7670881,58.234614 45.8954772,58.0963769 46.0169362,57.9657994 C46.1387599,57.8355866 46.2485471,57.7086565 46.3762067,57.6050699 C46.6202188,57.391696 46.8208267,57.2038541 47.016693,57.0736413 C47.4040486,56.8099331 47.6371185,56.6910274 47.6371185,56.6910274 L47.7516474,56.8040973 C47.7516474,56.8040973 47.6531672,57.0575927 47.4602188,57.4445836 C47.3646565,57.6389909 47.2676353,57.8921216 47.1399757,58.158383 C47.0079392,58.4217264 46.8930456,58.747076 46.7376657,59.0713313 C46.5935927,59.4054347 46.440766,59.7698116 46.2671489,60.1454954 C46.113228,60.53431 45.9129848,60.9198419 45.7266018,61.3349179 C45.6226505,61.5369848 45.521617,61.7445228 45.4048997,61.9484134 C45.3009483,62.1585046 45.184231,62.366772 45.0711611,62.5790517 C44.8344438,62.999234 44.6338359,63.4460426 44.4241094,63.8899331 C44.2373617,64.3422128 44.0331064,64.7904802 43.8645957,65.2431246 C43.6898845,65.6939453 43.5148085,66.1374711 43.363076,66.5737021 C43.1974833,67.0055562 43.0760243,67.4333982 42.9363283,67.8349787 C42.8097629,68.2387477 42.6977872,68.6239149 42.5982128,68.9802675 C42.5139574,69.3384438 42.4191246,69.6696292 42.3651429,69.9610578 C42.3122553,70.2535805 42.2528024,70.5078055 42.2199757,70.7240973 C42.161617,71.1585046 42.1280608,71.4065289 42.1280608,71.4065289 L41.966845,71.3995988 Z" id="Fill-41" fill="#79A85A"></path>
            <path d="M43.3282432,119.526967 C43.3282432,119.526967 43.3081824,119.356997 43.270614,119.037483 C43.2304924,118.719429 43.1714043,118.253289 43.0816778,117.661313 C42.9022249,116.478091 42.6148085,114.79335 42.1559635,112.79493 C41.9327416,111.795538 41.6522553,110.720644 41.4024073,109.557119 C41.1452644,108.401982 40.9165714,107.179368 40.651769,105.926845 C40.3884255,104.674322 40.0959027,103.390067 39.7260547,102.11493 C39.352924,100.855477 38.8791246,99.5518906 38.4523769,98.2508571 C38.0099453,96.9538359 37.574079,95.6582736 37.1090334,94.3988207 C36.6443526,93.1400973 36.1800365,91.9083647 35.7175441,90.727696 C35.2641702,89.5430152 34.8024073,88.4115866 34.3541398,87.3443526 C33.9014954,86.2720122 33.4273313,85.3087295 32.9746869,84.3782736 C32.5121945,83.4299453 32.1554772,82.5542006 31.8348693,81.7787599 C31.5230152,81.0040486 31.2512827,80.3281824 31.0269666,79.7719514 C30.5776049,78.662772 30.2974833,78.0328632 30.2974833,78.0328632 L30.4357204,77.9497021 C30.4357204,77.9497021 30.5411307,78.0872097 30.7391854,78.3454468 C30.9343222,78.6055076 31.2104316,78.9950517 31.5408875,79.5035015 C31.8735319,80.0101277 32.2546869,80.6382128 32.6817994,81.3589422 C33.1041702,82.0796717 33.5812523,82.8945046 34.1050213,83.7509179 C34.369459,84.1754772 34.6634407,84.6565714 34.9475745,85.1398541 C35.2218602,85.6337143 35.5008875,86.1472705 35.7700669,86.6834407 C36.3160851,87.7521337 36.8190638,88.9116474 37.2870274,90.1266018 C37.747696,91.3441094 38.1558419,92.6217994 38.5410091,93.9246565 C38.9250821,95.2271489 39.3087903,96.5475137 39.681921,97.8678784 C40.0510395,99.1897021 40.4599149,100.48417 40.7954772,101.829337 C41.1186383,103.162468 41.3582736,104.482103 41.5676353,105.755781 C41.7682432,107.025447 41.961921,108.252438 42.1457508,109.415964 C42.3252036,110.568912 42.5462371,111.66569 42.7151125,112.684413 C43.0601581,114.719307 43.267696,116.428851 43.3639878,117.628122 C43.4150517,118.227392 43.444231,118.699368 43.4631976,119.02107 C43.4799757,119.342043 43.4890942,119.513471 43.4890942,119.513471 L43.3282432,119.526967 Z" id="Fill-43" fill="#79A85A"></path>
            <path d="M43.3314529,119.56045 C43.3314529,119.56045 43.1676839,119.092486 42.8806322,118.274006 C42.7310881,117.868049 42.5490821,117.376012 42.3404498,116.811027 C42.1234286,116.249325 41.8805106,115.615404 41.5927295,114.933702 C41.3085957,114.250906 40.9879878,113.51741 40.6247052,112.754006 C40.2643404,111.989508 39.8718784,111.191088 39.4407538,110.378444 C39.0045228,109.569082 38.536924,108.743307 38.0262857,107.925921 C37.5258602,107.102699 36.9718176,106.294796 36.4133982,105.492 C35.8367416,104.700511 35.2571672,103.912304 34.6440365,103.166407 C34.0301763,102.423064 33.4265289,101.691392 32.8422128,100.983429 C32.2655562,100.271088 31.7078663,99.5828207 31.1793556,98.9295684 C30.9163769,98.6013009 30.6574103,98.2843404 30.4028207,97.9812401 C30.1511489,97.6741277 29.9085957,97.3775927 29.6755258,97.0927295 C29.2035502,96.5240973 28.7709666,96.0025167 28.3872584,95.5407538 C28.0042796,95.0724255 27.6698116,94.6646444 27.3944316,94.3287173 C26.8451307,93.6510274 26.546772,93.2432462 26.546772,93.2432462 L26.6572888,93.1254347 C26.6572888,93.1254347 27.084766,93.3920608 27.7952827,93.9048875 C28.1527295,94.1591125 28.575465,94.4819088 29.0543708,94.8608754 C29.5263465,95.2478663 30.0636109,95.6826383 30.6151003,96.1940061 C31.1735198,96.6991733 31.7611185,97.2659818 32.3563769,97.8907842 C32.9560122,98.5115745 33.5607538,99.1929119 34.1465289,99.9289605 C34.4379574,100.295891 34.732304,100.68434 35.013155,101.073884 C35.2892644,101.457957 35.5712097,101.865009 35.8469544,102.275708 C36.4031854,103.090541 36.9506626,103.932 37.4817264,104.782578 C38.0040365,105.640085 38.5201459,106.500511 38.9815441,107.374067 C39.453155,108.241422 39.879538,109.114249 40.2738237,109.965921 C40.6586261,110.822334 41.023003,111.652122 41.320997,112.457471 C41.6292036,113.258809 41.8951003,114.024401 42.1278055,114.734553 C42.3648875,115.443246 42.5592948,116.099052 42.7332766,116.67972 C42.9025167,117.261483 43.0407538,117.772486 43.1530942,118.191939 C43.3650091,119.033398 43.4861033,119.513763 43.4861033,119.513763 L43.3314529,119.56045 Z" id="Fill-45" fill="#599948"></path>
            <path d="M43.3385653,119.644158 C43.3385653,119.644158 43.1317568,119.325009 42.7695684,118.766954 C42.5955866,118.481362 42.3475623,118.166954 42.0856778,117.791635 C41.8288997,117.414857 41.4958906,117.014006 41.1471976,116.570116 C40.8017872,116.124766 40.3834286,115.673945 39.9657994,115.183003 C39.5164377,114.715404 39.0765593,114.196742 38.5702979,113.704705 C38.3208146,113.455222 38.073155,113.196985 37.8127295,112.945313 C37.550845,112.694371 37.2856778,112.44124 37.0183222,112.185556 C36.4799635,111.678565 35.9237325,111.173398 35.3565593,110.681726 C34.7824559,110.19662 34.2079878,109.713702 33.6174711,109.267623 C33.0375319,108.809872 32.4466505,108.384584 31.9039149,107.938505 C31.3513313,107.504827 30.8366809,107.060571 30.3439149,106.642942 C29.8529726,106.220936 29.389386,105.821909 28.9611793,105.45352 C28.5355258,105.077106 28.145617,104.731696 27.7998419,104.425678 C27.4577143,104.110541 27.1593556,103.835891 26.9135198,103.609751 C26.4225775,103.152729 26.1555866,102.865678 26.1555866,102.865678 L26.2420304,102.729629 C26.2420304,102.729629 26.6104195,102.857653 27.2319392,103.126833 C27.545617,103.256681 27.9143708,103.43504 28.3327295,103.648049 C28.7518176,103.860693 29.2219696,104.106164 29.7143708,104.405617 C29.9620304,104.553702 30.2199027,104.708353 30.4872584,104.868109 C30.7458602,105.040267 31.0132158,105.217897 31.288231,105.400632 C31.8462857,105.75662 32.392304,106.189568 32.9613009,106.631635 C33.5091429,107.099964 34.072304,107.587623 34.6073799,108.125252 C34.8791125,108.38896 35.1526687,108.654128 35.4273191,108.921119 C35.6964985,109.192851 35.9671368,109.465678 36.2377751,109.738505 C36.7805106,110.28197 37.310845,110.837471 37.8222128,111.393702 C38.0742492,111.674918 38.3248267,111.95431 38.5721216,112.230055 C38.8146748,112.509812 39.0448267,112.795769 39.2757082,113.071149 C39.743307,113.617532 40.1543708,114.181787 40.5570456,114.701909 C40.932,115.246468 41.3065897,115.743246 41.6118784,116.232365 C41.9197204,116.718565 42.2122432,117.154067 42.4365593,117.568049 C42.6659818,117.976195 42.8822736,118.323429 43.0183222,118.626164 C43.3115745,119.223611 43.4789909,119.564644 43.4789909,119.564644 L43.3385653,119.644158 Z" id="Fill-47" fill="#79A85A"></path>
            <path d="M43.4447052,119.736438 C43.4447052,119.736438 43.3764985,119.653641 43.2492036,119.49972 C43.1846444,119.423489 43.1087781,119.323915 43.0121216,119.21741 C42.9136413,119.114918 42.8002067,118.997106 42.6732766,118.864705 C42.4113921,118.608292 42.0816657,118.303733 41.6826383,117.982395 C41.2843404,117.659599 40.8123647,117.322578 40.2845836,116.976438 C39.7498723,116.639052 39.165921,116.282699 38.5225167,115.946772 C37.8838541,115.604644 37.1995988,115.262517 36.4799635,114.93279 C35.7625167,114.599416 35.0053131,114.285739 34.2378967,113.96586 C33.4653739,113.655465 32.6775319,113.347623 31.8805714,113.06276 C31.0817872,112.782274 30.2797204,112.510176 29.4813009,112.267623 C28.6828815,112.02434 27.897228,111.787988 27.1429422,111.540328 C26.3901155,111.286468 25.6642796,111.035891 24.981848,110.774736 C24.6393556,110.647441 24.3059818,110.523793 23.9842796,110.404158 C23.663307,110.278687 23.3529119,110.157593 23.0556474,110.04124 C22.4592948,109.810723 21.9165593,109.58276 21.4340061,109.382517 C20.9529119,109.178626 20.5341884,108.995891 20.1913313,108.837957 C19.5045228,108.525374 19.1186261,108.320754 19.1186261,108.320754 L19.1616657,108.165374 C19.1616657,108.165374 20.904766,108.26276 23.4262249,108.804766 C24.0579574,108.936073 24.7378359,109.096195 25.4512705,109.286225 C26.1683526,109.465313 26.9135198,109.692912 27.6780182,109.947502 C28.4395988,110.211939 29.2168632,110.51504 29.9974103,110.847319 C30.7779574,111.178869 31.5730942,111.509325 32.3587477,111.863854 C33.938079,112.551757 35.4973495,113.293641 36.9099939,114.087684 C37.6161337,114.484158 38.2923647,114.880267 38.911696,115.291696 C39.5368632,115.694371 40.1036717,116.113824 40.6186869,116.508839 C41.1278663,116.912973 41.5797812,117.301787 41.958383,117.670541 C42.339538,118.037106 42.6462857,118.380328 42.8870152,118.675404 C43.0037325,118.826407 43.1076839,118.960997 43.1985046,119.077714 C43.2849483,119.19662 43.3484134,119.301666 43.4053131,119.384097 C43.515465,119.551149 43.5741884,119.640511 43.5741884,119.640511 L43.4447052,119.736438 Z" id="Fill-49" fill="#79A85A"></path>
            <path d="M32.5811672,92.1506991 C32.5811672,92.1506991 31.802079,91.2537994 30.6334468,89.9086322 C30.0469422,89.2404255 29.3524742,88.4737386 28.5916231,87.6793313 C27.8231125,86.8922188 26.9885836,86.0770213 26.0993435,85.3329483 C25.6481581,84.9561702 25.1863951,84.596535 24.722079,84.25769 C24.2555745,83.9195745 23.8011064,83.5840122 23.3674286,83.251003 C22.5128389,82.5700304 21.7406809,81.8981763 21.0826869,81.3029179 C20.7533252,81.0060182 20.4560608,80.7251672 20.1919878,80.4742249 C19.9290091,80.2218237 19.7021398,79.9967781 19.5186748,79.8052888 C19.149921,79.425228 18.9515015,79.185228 18.9515015,79.185228 L19.0390395,79.0499088 C19.0390395,79.0499088 19.3395866,79.1316109 19.837459,79.3227356 C20.087307,79.4161094 20.3845714,79.5419453 20.7208632,79.6933131 C21.0553313,79.8483283 21.429921,80.0299696 21.8289483,80.2437082 C22.6240851,80.6755623 23.5275502,81.2299696 24.4131429,81.9350152 C24.853386,82.291003 25.2819574,82.6903951 25.7043283,83.1091185 C26.1237812,83.5296657 26.5490699,83.9571429 26.9747234,84.3842553 C27.8304073,85.2490578 28.6251793,86.1631003 29.3094347,87.0596353 C29.6508328,87.5082675 29.979465,87.9412158 30.2719878,88.3646809 C30.5677933,88.785228 30.8398906,89.187538 31.0890091,89.558845 C31.584693,90.3036474 31.9939331,90.9233435 32.270772,91.3639514 C32.5505289,91.8031003 32.7102857,92.0540426 32.7102857,92.0540426 L32.5811672,92.1506991 Z" id="Fill-51" fill="#599948"></path>
            <path d="M43.4190638,119.631356 C43.4190638,119.631356 43.7425897,119.278286 44.3086687,118.661143 C44.5742006,118.336888 44.9801581,118.016644 45.4204012,117.620535 C45.6461763,117.431234 45.8719514,117.201812 46.1396717,117.009957 C46.4052036,116.812632 46.6838663,116.605459 46.9749301,116.389167 C47.545386,115.935064 48.2248997,115.541872 48.9230152,115.08631 C49.2680608,114.850322 49.651769,114.662845 50.0332888,114.449836 C50.4180912,114.244122 50.8054468,114.019441 51.211769,113.817374 C52.0338967,113.437313 52.867696,112.997435 53.7558419,112.650565 C54.1964498,112.468924 54.638152,112.277435 55.0871489,112.1009 C55.5408875,111.935672 55.9964498,111.770079 56.4520122,111.604486 C56.9050213,111.428681 57.3671489,111.28169 57.8285471,111.137252 C58.2899453,110.993909 58.7462371,110.83634 59.2050821,110.698833 C60.1282432,110.446432 61.0331672,110.171052 61.9359027,110.018225 C62.3867234,109.942723 62.8262371,109.847161 63.2639271,109.795368 C63.7023465,109.746857 64.1316474,109.702359 64.5507356,109.669532 C65.3838055,109.577617 66.1884255,109.604608 66.9186383,109.590748 C67.2866626,109.598043 67.640462,109.631964 67.9745653,109.655307 C68.3093982,109.688134 68.624535,109.68631 68.9221641,109.745033 C69.516693,109.848985 70.0295198,109.927404 70.4460547,110.033544 C71.2776657,110.281568 71.7284863,110.450079 71.7284863,110.450079 L71.6938359,110.607647 C71.6938359,110.607647 71.2003404,110.624426 70.379307,110.608012 C70.1743222,110.602176 69.941617,110.634638 69.693228,110.645945 C69.4459331,110.658711 69.1785775,110.672571 68.8926201,110.687526 C68.3217994,110.730201 67.6780304,110.818103 66.9824681,110.879745 C66.6341398,110.931538 66.2715866,110.986249 65.8962675,111.042055 C65.7087903,111.066128 65.5187599,111.090201 65.3250821,111.114638 C65.131769,111.143818 64.9362675,111.184304 64.7382128,111.219319 C64.3421033,111.295185 63.9343222,111.361933 63.5177872,111.427222 C63.1023465,111.506736 62.6777872,111.587343 62.2459331,111.67014 C61.3767538,111.802541 60.4897021,112.006796 59.5749301,112.164 C59.1208267,112.25628 58.6678176,112.371173 58.2104316,112.479502 C57.7530456,112.586736 57.2938359,112.695793 56.8430152,112.834395 C56.3900061,112.967526 55.9366322,113.100657 55.4854468,113.233058 C55.0375441,113.377131 54.5973009,113.536158 54.156693,113.685702 C53.2685471,113.969106 52.4347477,114.34479 51.6064195,114.665398 C51.1982736,114.836827 50.8090942,115.031599 50.4202796,115.208134 C50.0365714,115.393422 49.6473921,115.552085 49.2943222,115.751599 C48.5819818,116.138954 47.8820426,116.470869 47.2944438,116.866979 C46.9931672,117.055185 46.7042918,117.235368 46.4292766,117.406796 C46.1502492,117.574213 45.9226505,117.773726 45.6873921,117.940049 C45.2325593,118.289471 44.809459,118.564486 44.5103708,118.863574 C43.8881216,119.424912 43.5328632,119.74552 43.5328632,119.74552 L43.4190638,119.631356 Z" id="Fill-53" fill="#79A85A"></path>
            <path d="M43.7396353,119.299733 C43.7396353,119.299733 43.7939818,119.177179 43.8957447,118.947027 C44.0007903,118.71797 44.1397568,118.376936 44.3440122,117.952742 C44.5730699,117.540584 44.8196353,117.011708 45.1741641,116.455477 C45.3503343,116.17645 45.5378116,115.87955 45.7355015,115.566237 C45.9357447,115.254383 46.1761094,114.948 46.411003,114.61572 C46.5306383,114.450857 46.652462,114.282711 46.7772036,114.110918 C46.9106991,113.947149 47.0467477,113.780462 47.1853495,113.610492 C47.4676596,113.275295 47.7430395,112.911647 48.0578116,112.568061 C48.3755015,112.225933 48.7015805,111.875052 49.0356839,111.516146 C49.3737994,111.161617 49.7458359,110.826784 50.1102128,110.470796 C50.2958663,110.296085 50.4764134,110.11262 50.6700912,109.941921 C50.8655927,109.772681 51.0625532,109.602711 51.2609726,109.431283 C51.6625532,109.095356 52.0477204,108.726237 52.4766565,108.407818 C52.8982979,108.078456 53.3232219,107.746541 53.7499696,107.413532 C54.1825532,107.088182 54.6319149,106.783988 55.073617,106.467027 L55.7381763,105.993593 L56.4195137,105.550432 C56.8732523,105.254261 57.3248024,104.95955 57.7734347,104.666663 C58.2333739,104.393836 58.6900304,104.123198 59.1412158,103.855112 C59.5934954,103.588851 60.0439514,103.332073 60.5017021,103.108851 C60.9605471,102.888182 61.4073556,102.662043 61.8541641,102.459976 C62.0770213,102.358942 62.294772,102.251708 62.5154407,102.158699 C62.7379331,102.070796 62.9575076,101.983258 63.1745289,101.897544 C64.0444377,101.560523 64.8552584,101.214748 65.6358055,100.981678 C66.4083283,100.727453 67.1228571,100.515173 67.7545897,100.326602 C68.3932523,100.158456 68.9553191,100.029337 69.4178116,99.9261155 C70.3435258,99.7185775 70.8786018,99.6288511 70.8786018,99.6288511 L70.9300304,99.7816778 C70.9300304,99.7816778 70.4544073,100.050857 69.6114894,100.47104 C69.1909422,100.684778 68.6751976,100.926602 68.0875988,101.209277 C67.5043769,101.503988 66.8485714,101.835903 66.1260182,102.175842 C65.9454711,102.260827 65.7612766,102.347635 65.5734347,102.436632 C65.3888754,102.532195 65.2013982,102.629581 65.0102736,102.72879 C64.6258359,102.91955 64.2279027,103.116511 63.8190274,103.319307 C62.9954407,103.712134 62.1554407,104.17645 61.2618237,104.607939 C60.8091793,104.812559 60.3689362,105.057666 59.9122796,105.285629 C59.4548936,105.513593 58.9920365,105.744839 58.5255319,105.977909 C58.0699696,106.229945 57.6103951,106.48417 57.1497264,106.739489 L56.4574468,107.12721 L55.7834043,107.545204 C55.3369605,107.828973 54.8810334,108.10107 54.442614,108.393957 C54.0089362,108.694505 53.5774468,108.993593 53.1492401,109.291222 C52.7126444,109.578274 52.3205471,109.915295 51.9102128,110.219854 C51.7077812,110.375964 51.506079,110.530979 51.3062006,110.6849 C51.1077812,110.841009 50.9228571,111.009155 50.7328267,111.168547 C50.3589666,111.494991 49.9767173,111.801374 49.6280243,112.128182 C49.2807903,112.456815 48.9415805,112.778881 48.6107599,113.09183 C48.2792097,113.405508 47.9877812,113.738517 47.6883283,114.045994 C47.5409726,114.201739 47.3958055,114.355295 47.253921,114.505933 C47.1207903,114.664596 46.989848,114.819976 46.8621884,114.972073 C46.6097872,115.27955 46.3515502,115.562954 46.1341641,115.853653 C45.9189666,116.145812 45.7143465,116.423015 45.5221277,116.683805 C45.3215198,116.940584 45.1679635,117.198821 45.0165957,117.434079 C44.8648632,117.669337 44.7251672,117.885629 44.5989666,118.080766 C44.361155,118.483805 44.1930091,118.813897 44.0693617,119.032742 C43.9486322,119.25341 43.8844377,119.370857 43.8844377,119.370857 L43.7396353,119.299733 Z" id="Fill-55" fill="#79A85A"></path>
            <path d="M43.5992827,119.4511 C43.5992827,119.4511 43.628462,119.306663 43.6828085,119.03493 C43.7108936,118.899246 43.7448146,118.73183 43.7849362,118.535234 C43.8349058,118.339368 43.8928997,118.113593 43.957459,117.861191 C44.0935076,117.357483 44.2758784,116.752742 44.5293739,116.072498 C44.773386,115.389337 45.091076,114.635052 45.459465,113.821313 C45.8384316,113.01341 46.268462,112.145325 46.7714407,111.253532 C47.260924,110.35335 47.8437812,109.444049 48.452535,108.507392 C49.0762432,107.580584 49.7400729,106.634809 50.4567903,105.704717 C51.1731429,104.774991 51.9241459,103.845994 52.716,102.952012 C53.4954529,102.045629 54.3201337,101.178638 55.1437204,100.334626 C55.9669422,99.489155 56.8251793,98.7016778 57.6888875,97.9780304 C58.5664559,97.2711611 59.4400122,96.6157204 60.3186748,96.06569 C61.1820182,95.4948693 62.0413495,95.0185167 62.8466991,94.6081824 C63.6520486,94.1967538 64.4187356,93.8754164 65.1033556,93.6120729 C65.7952705,93.3625897 66.4014711,93.1612523 66.9146626,93.0379696 C67.4201945,92.8957204 67.8287052,92.82569 68.1055441,92.7771793 C68.3812888,92.7290334 68.5286444,92.7035015 68.5286444,92.7035015 L68.5742371,92.8585167 C68.5742371,92.8585167 68.4407416,92.9238055 68.1908936,93.0463587 C67.9417751,93.1696413 67.573386,93.3341398 67.1207416,93.5785167 C66.6629909,93.806845 66.1213495,94.113228 65.5071246,94.4644742 C65.2069422,94.6559635 64.8761216,94.8324985 64.5420182,95.0466018 C64.2108328,95.266541 63.8555745,95.4813739 63.494845,95.7242918 C63.136304,95.9708571 62.7562432,96.2130456 62.3820182,96.4953556 C61.9972158,96.7612523 61.6040243,97.0421033 61.2104681,97.3462979 C60.417155,97.9444742 59.5961216,98.5959027 58.7528389,99.2786991 C57.9124742,99.9655076 57.0418359,100.676024 56.1825046,101.432863 C55.322079,102.187514 54.4784316,102.992134 53.664693,103.827027 C52.8476717,104.659003 52.0682188,105.528547 51.3208632,106.402103 C50.5731429,107.275295 49.8761216,108.167453 49.2181277,109.044292 C48.5718055,109.92879 47.9656049,110.798699 47.424693,111.645994 C46.8742979,112.487453 46.3975805,113.309945 45.9730213,114.078821 C45.559769,114.852802 45.1990395,115.573167 44.9152705,116.227878 C44.6249362,116.879307 44.403538,117.463258 44.2306505,117.943623 C44.1485836,118.185812 44.0752705,118.402468 44.011076,118.590675 C43.9563647,118.783258 43.9093131,118.947392 43.8713799,119.080158 C43.7962432,119.346784 43.7561216,119.489033 43.7561216,119.489033 L43.5992827,119.4511 Z" id="Fill-57" fill="#599948"></path>
            <path d="M43.6662492,119.25093 C43.6662492,119.25093 43.7771307,118.645824 43.971538,117.586979 C44.0616292,117.056644 44.232693,116.4209 44.4004742,115.68631 C44.5620547,114.947343 44.8199271,114.140535 45.0606565,113.244 C45.184304,112.797191 45.3444255,112.341994 45.4928754,111.864547 C45.6508085,111.390383 45.7908693,110.891052 45.9794407,110.394638 C46.3350638,109.393787 46.7213252,108.340049 47.1703222,107.270626 C47.5915988,106.188438 48.1004134,105.102967 48.5924498,103.986857 C48.857617,103.437921 49.1249726,102.884608 49.3930578,102.329106 C49.6564012,101.770322 49.9408997,101.219927 50.2337872,100.673544 C50.5237568,100.126067 50.800231,99.5698359 51.1011429,99.030383 C51.4038784,98.4909301 51.705155,97.9536657 52.0038784,97.4207781 C52.2945775,96.8824195 52.6195623,96.3699574 52.9325106,95.8582249 C53.2502006,95.3494103 53.5533009,94.8398663 53.8906869,94.3638784 C54.5661884,93.412997 55.2114164,92.4880122 55.9102614,91.6753678 C56.2505653,91.2635745 56.5817508,90.8627234 56.9019939,90.4746383 C57.2441216,90.105155 57.5742128,89.7477082 57.8911733,89.4048511 C58.512693,88.7100182 59.1400486,88.1242432 59.6926322,87.6059453 C59.9705653,87.3488024 60.2302614,87.1080729 60.4702614,86.8855805 C60.7190152,86.6714772 60.9575562,86.4850942 61.1669179,86.3118419 C62.0134833,85.6264924 62.5128146,85.2606565 62.5128146,85.2606565 L62.6240608,85.3773739 C62.6240608,85.3773739 62.2542128,85.8807173 61.5798055,86.7174347 C61.4112948,86.9260669 61.2252766,87.1573131 61.0221155,87.4086201 C60.826614,87.6661277 60.6154286,87.9447903 60.3896535,88.2420547 C60.1660669,88.5415076 59.9169483,88.8482553 59.6612644,89.1768875 C59.4030274,89.5033313 59.1593799,89.8709909 58.8814468,90.2328146 C58.6093495,90.5993799 58.3259453,90.9808997 58.0330578,91.3759149 C57.748924,91.7778602 57.455307,92.1925714 57.1536657,92.6193191 C56.540535,93.4647903 55.9339696,94.3839392 55.2767052,95.3143951 C54.9356717,95.7706869 54.6351246,96.2667356 54.2944559,96.7445471 C53.9676474,97.2318419 53.6083769,97.7071003 53.2903222,98.2148207 C52.9642432,98.7181641 52.6359757,99.2255198 52.3058845,99.7346991 C51.9801702,100.247161 51.6788936,100.777131 51.3633921,101.298711 C51.0486201,101.821751 50.7418723,102.348802 50.4566444,102.885337 C50.1652158,103.419319 49.8752462,103.951112 49.5878298,104.478529 C49.0502006,105.552328 48.4946991,106.599137 48.0278298,107.645216 C47.7914772,108.166432 47.5368875,108.670869 47.3271611,109.180413 C47.1101398,109.687404 46.8974954,110.183818 46.6910517,110.666736 C46.4736657,111.146006 46.305155,111.628924 46.1198663,112.08704 C45.9433313,112.549167 45.7558541,112.990505 45.60631,113.423818 C45.3137872,114.292267 45.0059453,115.081204 44.80169,115.796097 C44.592693,116.510991 44.3815076,117.125945 44.2502006,117.64862 C43.9784681,118.690322 43.8238176,119.285581 43.8238176,119.285581 L43.6662492,119.25093 Z" id="Fill-59" fill="#79A85A"></path>
            <path d="M61.6878419,69.5826748 C61.6878419,69.5826748 61.7469301,69.3740426 61.8505167,69.0085714 C61.8950152,68.8243769 61.9737994,68.6058967 62.0744681,68.3538602 C62.1229787,68.2269301 62.1751368,68.0919757 62.2294833,67.9493617 C62.2929483,67.8122188 62.3600608,67.6677812 62.4293617,67.5171429 C62.5621277,67.2103951 62.7379331,66.8956231 62.9268693,66.561155 C63.0158663,66.3893617 63.1271125,66.2274164 63.2398176,66.06 C63.3539818,65.8940426 63.4612158,65.7149544 63.5892401,65.5486322 C63.843465,65.2145289 64.1053495,64.8636474 64.4117325,64.5434043 C64.7017021,64.2056535 65.0354407,63.9021884 65.361155,63.5881459 C65.6996353,63.2897872 66.0337386,62.9808511 66.3846201,62.7025532 C66.723465,62.4052888 67.0951368,62.1674772 67.4565957,61.9406079 C67.8351976,61.7458359 68.2017629,61.5558055 68.5756231,61.4368997 C68.7583587,61.3694225 68.9403647,61.313617 69.1132523,61.2559878 C69.2927052,61.2118541 69.4634043,61.1666261 69.6304559,61.1312462 C69.9609119,61.0513678 70.272766,61.0145289 70.5481459,60.9853495 C70.6856535,60.9733131 70.8144073,60.9616413 70.9340426,60.9510638 C71.0551368,60.9510638 71.1660182,60.9510638 71.2666869,60.9506991 C71.6679027,60.9561702 71.8987842,60.9886322 71.8987842,60.9886322 L71.938541,61.1451064 C71.938541,61.1451064 71.7543465,61.2953799 71.4286322,61.5062006 C71.2674164,61.6097872 71.0719149,61.7352584 70.847234,61.879696 C70.6232827,62.0172036 70.3719757,62.1660182 70.1046201,62.3370821 C69.9703951,62.4213374 69.8277812,62.5001216 69.6829787,62.5854711 C69.5389058,62.6733739 69.3930091,62.7682067 69.2387234,62.8561094 C68.9294225,63.0297264 68.6179331,63.2328875 68.276535,63.4075988 C67.9471733,63.6009119 67.5795137,63.7592097 67.2271733,63.9576292 C66.8631611,64.1410942 66.5148328,64.3617629 66.1716109,64.5926444 C65.842614,64.8395745 65.4997568,65.077386 65.198845,65.351307 C64.8840729,65.612462 64.5941033,65.8907599 64.3117933,66.1628571 C64.0422492,66.4444377 63.78,66.7205471 63.5509422,66.9984802 C63.3207903,67.2760486 63.1019453,67.5412158 62.9265046,67.8052888 C62.8353191,67.9355015 62.7474164,68.0602432 62.6642553,68.1787842 C62.589848,68.3017021 62.5187234,68.4187842 62.4523404,68.5282067 C62.317386,68.7466869 62.200304,68.9429179 62.1156839,69.1143465 C61.9384195,69.4506383 61.8377508,69.6424924 61.8377508,69.6424924 L61.6878419,69.5826748 Z" id="Fill-61" fill="#79A85A"></path>
        </g>
    </g>
</svg>