<?xml version="1.0" encoding="UTF-8"?>
<svg width="100px" height="100px" viewBox="0 0 100 100" version="1.1" xmlns="http://www.w3.org/2000/svg" xmlns:xlink="http://www.w3.org/1999/xlink">
    <!-- Generator: Sketch 48.2 (47327) - http://www.bohemiancoding.com/sketch -->
    <title>Neuron 舵机 郊游</title>
    <desc>Created with Sketch.</desc>
    <defs>
        <polygon id="path-1" points="9.36256456 10.2 0.0923022666 10.2 0.0923022666 0.081585 9.36256456 0.081585"></polygon>
        <polygon id="path-3" points="17.7493812 0.0495 0.089091979 0.0495 0.089091979 23.90979 17.7493812 23.90979 17.7493812 0.0495"></polygon>
    </defs>
    <g id="裁剪面板" stroke="none" stroke-width="1" fill="none" fill-rule="evenodd">
        <g id="Neuron-舵机-郊游">
            <g id="Page-1" transform="translate(7.200000, 12.100000)">
                <path d="M63.8488864,60.133845 C63.8488864,60.133845 60.3057692,67.250745 62.519861,73.850295" id="Stroke-1" stroke="#2B8AA0" stroke-width="3.75" stroke-linecap="round"></path>
                <path d="M69.0852314,60.412905 C69.0852314,60.412905 69.5000735,68.351355 74.6740421,73.010805" id="Stroke-3" stroke="#2B8AA0" stroke-width="3.75" stroke-linecap="round"></path>
                <g id="Group-7" transform="translate(43.375306, 30.700500)" fill="#33ADDC">
                    <path d="M42.3103001,24.868455 L42.3103001,6.507555 C42.3103001,2.971005 39.4416765,0.103905 35.9030619,0.103905 L6.44267385,0.103905 C2.90405932,0.103905 0.0354356743,2.971005 0.0354356743,6.507555 L0.0354356743,24.868455 C0.0354356743,28.405005 2.90405932,31.271955 6.44267385,31.271955 L35.9030619,31.271955 C39.4416765,31.271955 42.3103001,28.405005 42.3103001,24.868455" id="Fill-5"></path>
                </g>
                <path d="M78.6556701,33.819255 L50.7306778,33.819255 C48.4305859,33.819255 46.565898,35.682855 46.565898,37.981605 L46.565898,54.763605 C46.565898,57.062355 48.4305859,58.925955 50.7306778,58.925955 L78.6556701,58.925955 C80.9557621,58.925955 82.8202999,57.062355 82.8202999,54.763605 L82.8202999,37.981605 C82.8202999,35.682855 80.9557621,33.819255 78.6556701,33.819255" id="Fill-8" fill="#FFFFFF"></path>
                <path d="M48.6404984,51.938925 C47.9931707,52.268625 47.6952469,53.044875 47.9739595,53.730075 C50.1110563,58.985175 53.9804639,61.247025 54.1440593,61.340775 C54.8218547,61.728975 55.6859089,61.494675 56.0744856,60.816975 C56.4618616,60.141075 56.2293759,59.279775 55.5551826,58.890525 C55.494247,58.854375 52.3395565,56.956275 50.5946385,52.665525 C50.3004668,51.942225 49.4752854,51.594225 48.7515632,51.888225 C48.713591,51.903675 48.6763693,51.920625 48.6404984,51.938925" id="Fill-10" fill="#33ADDC"></path>
                <path d="M74.2943356,70.522515 C75.0210596,70.522515 75.6391202,69.966015 75.702157,69.229065 C76.1854389,63.577215 73.7655771,59.806065 73.6623168,59.648265 C73.2348675,58.994865 72.3585062,58.811415 71.7044246,59.238915 C71.052144,59.665215 70.8681366,60.538065 71.2918338,61.191015 C71.329806,61.250865 73.2780927,64.373565 72.8835125,68.988315 C72.8168736,69.766215 73.3939603,70.450665 74.1724645,70.517265 C74.2132883,70.520715 74.253962,70.522515 74.2943356,70.522515" id="Fill-12" fill="#33ADDC"></path>
                <path d="M57.4200356,52.13814 L51.9762095,52.13814 C50.6773517,52.13814 49.6241873,51.08574 49.6241873,49.78764 C49.6241873,48.48954 50.6773517,47.43714 51.9762095,47.43714 L57.4200356,47.43714 C58.7188934,47.43714 59.7722079,48.48954 59.7722079,49.78764 C59.7722079,51.08574 58.7188934,52.13814 57.4200356,52.13814" id="Fill-14" fill="#F6C5C9"></path>
                <path d="M77.2604711,52.045425 L71.5358312,52.045425 C70.1700343,52.045425 69.0623881,50.938725 69.0623881,49.573575 C69.0623881,48.208575 70.1700343,47.101875 71.5358312,47.101875 L77.2604711,47.101875 C78.6264181,47.101875 79.7337641,48.208575 79.7337641,49.573575 C79.7337641,50.938725 78.6264181,52.045425 77.2604711,52.045425" id="Fill-16" fill="#F6C5C9"></path>
                <path d="M59.5105603,44.052945 C59.5105603,44.406195 58.9643916,44.692545 58.2906485,44.692545 C57.6169055,44.692545 57.0705867,44.406195 57.0705867,44.052945 C57.0705867,43.699845 57.6169055,43.413345 58.2906485,43.413345 C58.9643916,43.413345 59.5105603,43.699845 59.5105603,44.052945" id="Fill-18" fill="#514740"></path>
                <path d="M73.348949,44.052945 C73.348949,44.411145 72.795276,44.701395 72.1122275,44.701395 C71.4290289,44.701395 70.8753558,44.411145 70.8753558,44.052945 C70.8753558,43.694745 71.4290289,43.404495 72.1122275,43.404495 C72.795276,43.404495 73.348949,43.694745 73.348949,44.052945" id="Fill-20" fill="#514740"></path>
                <path d="M55.6968052,39.567885 C52.9222865,39.567885 50.6651196,41.823735 50.6651196,44.596635 C50.6651196,47.369685 52.9222865,49.625535 55.6968052,49.625535 C58.471324,49.625535 60.7284909,47.369685 60.7284909,44.596635 C60.7284909,41.823735 58.471324,39.567885 55.6968052,39.567885 M55.6968052,50.481585 C52.4499609,50.481585 49.8085698,47.841585 49.8085698,44.596635 C49.8085698,41.351835 52.4499609,38.711835 55.6968052,38.711835 C58.9436495,38.711835 61.5850406,41.351835 61.5850406,44.596635 C61.5850406,47.841585 58.9436495,50.481585 55.6968052,50.481585" id="Fill-22" fill="#572F23"></path>
                <path d="M73.3995135,39.567885 C70.6249948,39.567885 68.3678279,41.823735 68.3678279,44.596635 C68.3678279,47.369685 70.6249948,49.625535 73.3995135,49.625535 C76.1740323,49.625535 78.4311992,47.369685 78.4311992,44.596635 C78.4311992,41.823735 76.1740323,39.567885 73.3995135,39.567885 M73.3995135,50.481585 C70.1526692,50.481585 67.5112781,47.841585 67.5112781,44.596635 C67.5112781,41.351835 70.1526692,38.711835 73.3995135,38.711835 C76.6462077,38.711835 79.2875988,41.351835 79.2875988,44.596635 C79.2875988,47.841585 76.6462077,50.481585 73.3995135,50.481585" id="Fill-24" fill="#532412"></path>
                <path d="M70.4303012,60.148935 C69.5965648,53.956485 66.9353621,48.936435 64.4862332,48.936435 C62.0371043,48.936435 60.7275903,53.956485 61.5611767,60.148935 C61.5614768,60.150735 61.5616269,60.152235 61.5619271,60.154035 C61.599449,60.431835 61.8645036,60.654435 62.1475688,60.654435 C64.1240719,59.691435 66.3950469,59.523285 68.4919203,60.184935 L69.9800385,60.654435 C70.2632537,60.654435 70.4681233,60.431835 70.4310516,60.154035 C70.4307515,60.152235 70.4306014,60.150735 70.4303012,60.148935" id="Fill-26" fill="#EB6F42"></path>
                <path d="M66.6902842,53.57091 C66.499823,53.54046 66.3155155,53.43906 66.1429148,53.29971 C66.0800281,52.83501 65.8829631,52.38786 65.5581736,52.01706 C65.4091367,51.84666 65.3555554,51.61461 65.4151402,51.39636 L65.6092034,50.68521 C65.7298738,50.24331 65.7240204,49.77801 65.5923936,49.33881 L65.5652278,49.24881 C65.2051677,49.04646 64.8434567,48.93651 64.4860982,48.93651 C64.2015321,48.93651 63.9328754,49.00716 63.6804281,49.13706 L63.8938526,49.84791 C63.9300237,49.96881 63.9316747,50.09721 63.8983553,50.21871 L63.7041419,50.93031 C63.4881659,51.72276 63.6822292,52.56531 64.223595,53.18406 C64.2558638,53.22096 64.2819791,53.26131 64.3050926,53.30301 C64.1336926,53.44056 63.9507358,53.54076 63.7619257,53.57091 C63.1390623,53.67081 62.6451241,54.19266 62.5753334,54.81921 C62.4791272,55.68321 63.1533206,56.41476 63.9983136,56.41476 C64.3029913,56.41476 64.5847057,56.31951 64.8164409,56.15736 C65.0592826,55.98741 65.3929272,55.98741 65.6357689,56.15736 C65.8675041,56.31951 66.1493686,56.41476 66.4537461,56.41476 C67.2988892,56.41476 67.9730826,55.68321 67.8767264,54.81921 C67.8069356,54.19266 67.3129975,53.67081 66.6902842,53.57091" id="Fill-28" fill="#C14F1E"></path>
                <path d="M66.8902008,57.19566 C66.7923437,57.19566 66.7129474,57.11646 66.7129474,57.01851 C66.7129474,56.92056 66.7923437,56.84136 66.8902008,56.84136 C67.2738246,56.84136 67.6407887,56.67726 67.8968381,56.39136 C68.1564896,56.10141 68.2753589,55.72671 68.2319836,55.33611 C68.2211773,55.23876 68.2914183,55.15131 68.388675,55.14036 C68.4851813,55.13166 68.5738831,55.19946 68.5845393,55.29696 C68.6382707,55.78191 68.4841307,56.26716 68.1611423,56.62776 C67.8377036,56.98866 67.3746835,57.19566 66.8902008,57.19566" id="Fill-30" fill="#C14F1E"></path>
                <g id="Group-34" transform="translate(74.593520, 65.650500)">
                    <mask id="mask-2" fill="white">
                        <use xlink:href="#path-1"></use>
                    </mask>
                    <g id="Clip-33"></g>
                    <path d="M7.86871585,1.885785 C6.87723739,0.845235 5.26829869,0.745935 4.15975193,1.615035 L2.96580534,0.081585 L0.906303765,2.041485 L1.99744037,2.979135 C1.65914299,3.121335 1.34020692,3.325635 1.05864264,3.593685 C-0.1864838,4.778385 -0.234661909,6.747585 0.950729685,7.991835 C1.56713932,8.638785 2.3953225,8.961435 3.22365578,8.956785 C3.29119518,9.222135 3.4249232,9.474885 3.62739133,9.687435 C4.25685858,10.347885 5.30266874,10.373535 5.96365438,9.744585 C6.14390954,9.572985 6.27508608,9.370185 6.36033581,9.152985 C7.10807207,9.163935 7.86016086,8.894385 8.44445175,8.338335 C9.60928135,7.229835 9.67126751,5.399835 8.59874177,4.214535 C8.72451515,3.396585 8.48392478,2.531535 7.86871585,1.885785" id="Fill-32" fill="#FFFFFF" mask="url(#mask-2)"></path>
                </g>
                <path d="M64.7130606,68.40348 C65.1001364,66.48258 63.9521166,64.60923 62.113694,64.05183 L62.8930988,61.51923 L59.0916809,60.75408 L58.8974676,62.70558 C58.4737704,62.43918 57.9960417,62.24313 57.4761383,62.13843 C55.1781476,61.67583 52.9398918,63.16278 52.4770217,65.45958 C52.2362812,66.65343 52.5236989,67.83063 53.1771802,68.75133 C52.9332879,69.03438 52.7557343,69.38133 52.6766382,69.77373 C52.4309448,70.99293 53.2207056,72.18048 54.4407674,72.42603 C54.7732114,72.49308 55.1028037,72.48078 55.411984,72.40608 C55.9847182,73.24923 56.8747375,73.87758 57.9532667,74.09463 C60.103121,74.52753 62.1966925,73.16493 62.6820756,71.04048 C63.6944163,70.54083 64.4727704,69.59523 64.7130606,68.40348" id="Fill-35" fill="#FFFFFF"></path>
                <path d="M45.3444253,70.83849 C46.2246889,70.15944 46.4294083,68.93019 45.8490197,68.00844 L47.124764,67.21284 L45.7805798,65.47284 L44.9717579,66.23694 C44.8892097,65.96544 44.7574329,65.70399 44.5735756,65.46609 C43.7610015,64.41414 42.2490194,64.21974 41.1964553,65.03199 C40.6493861,65.45409 40.3348026,66.06534 40.2723661,66.70254 C40.0625437,66.73314 39.857374,66.81594 39.6775691,66.95454 C39.1189432,67.38564 39.0156829,68.18784 39.4470346,68.74629 C39.5647033,68.89854 39.7104383,69.01569 39.8707318,69.09849 C39.802442,69.67254 39.9502782,70.27254 40.3315006,70.76619 C41.0916942,71.75004 42.4956132,71.94399 43.4935455,71.21409 C44.1131069,71.37594 44.7982567,71.25999 45.3444253,70.83849" id="Fill-37" fill="#FFFFFF"></path>
                <path d="M28.0867116,10.37985 C27.686278,9.8688 27.7761805,9.1299 28.2875288,8.7294 C28.7988771,8.3289 29.5380584,8.41875 29.9386421,8.9298 C30.3390757,9.44085 30.2491733,10.17975 29.737825,10.58025 C29.2264766,10.98075 28.4872954,10.8909 28.0867116,10.37985 Z M24.5988267,13.1112 C24.1983931,12.60015 24.2881454,11.8611 24.7996439,11.46075 C25.3109922,11.06025 26.0501735,11.14995 26.4507572,11.661 C26.8511908,12.1722 26.7612884,12.9111 26.24994,13.3116 C25.7384416,13.71195 24.9994104,13.62225 24.5988267,13.1112 Z M21.1109418,15.84255 C20.7105081,15.33135 20.8002605,14.59245 21.3116088,14.19195 C21.8231073,13.7916 22.5621384,13.8813 22.9627222,14.39235 C23.3633059,14.9034 23.2734034,15.64245 22.7620551,16.0428 C22.2507067,16.4433 21.5113754,16.3536 21.1109418,15.84255 Z M17.6230568,18.57375 C17.2224731,18.0627 17.3123756,17.3238 17.8237239,16.9233 C18.3350722,16.5228 19.0744036,16.61265 19.4748372,17.1237 C19.8754209,17.63475 19.7855185,18.37365 19.2741701,18.77415 C18.7628218,19.17465 18.0234905,19.0848 17.6230568,18.57375 Z M14.1351719,21.3051 C13.7345882,20.79405 13.8246407,20.055 14.335839,19.65465 C14.8471873,19.25415 15.5865187,19.34385 15.9869523,19.8549 C16.387536,20.36595 16.2976335,21.105 15.7862852,21.50535 C15.2749369,21.90585 14.5357556,21.81615 14.1351719,21.3051 Z M31.7664085,11.1165 C31.7877209,11.09955 31.8102341,11.085 31.8310962,11.06745 C33.2326139,9.8943 33.6386008,8.03415 32.6694854,6.7974 C31.7005201,5.56095 29.8104673,5.526 28.3226493,6.58785 L28.3224992,6.58785 L10.4047454,18.28065 L16.3516651,25.59795 L31.7664085,11.1165 Z" id="Fill-39" fill="#323232"></path>
                <g id="Group-43" transform="translate(9.305429, 0.100500)">
                    <mask id="mask-4" fill="white">
                        <use xlink:href="#path-3"></use>
                    </mask>
                    <g id="Clip-42"></g>
                    <path d="M13.5399396,5.41299 C12.9775615,5.08839 12.7848491,4.36929 13.1096386,3.80694 C13.434278,3.24474 14.1534976,3.05199 14.7160258,3.37674 C15.278554,3.70134 15.4712664,4.42029 15.1464769,4.98264 C14.8218375,5.54499 14.1024678,5.73759 13.5399396,5.41299 Z M11.3249473,9.24834 C10.7624191,8.92374 10.5697067,8.20464 10.8944962,7.64229 C11.2191356,7.08009 11.9385053,6.88734 12.5008834,7.21209 C13.0634116,7.53669 13.256124,8.25564 12.9313345,8.81799 C12.6066951,9.38034 11.8873254,9.57294 11.3249473,9.24834 Z M9.10980494,13.08384 C8.54727674,12.75909 8.35456431,12.04014 8.6793538,11.47779 C9.00414329,10.91559 9.72336291,10.72269 10.2858911,11.04744 C10.8482692,11.37219 11.0411317,12.09114 10.7164923,12.65349 C10.3915527,13.21584 9.67233313,13.40844 9.10980494,13.08384 Z M6.89481264,16.91919 C6.33228445,16.59444 6.13942193,15.87549 6.46421142,15.31314 C6.789151,14.75079 7.50822053,14.55819 8.07089881,14.88294 C8.63342701,15.20754 8.82598935,15.92649 8.50134995,16.48884 C8.17656046,17.05119 7.45734084,17.24379 6.89481264,16.91919 Z M4.67967026,20.75454 C4.11714207,20.42979 3.92442963,19.71084 4.24921912,19.14849 C4.57400862,18.58614 5.29322823,18.39354 5.85575643,18.71829 C6.41828462,19.04289 6.61099706,19.76184 6.28620757,20.32419 C5.96141807,20.88654 5.24219846,21.07914 4.67967026,20.75454 Z M17.2287918,4.72299 C17.2421496,4.69929 17.2576086,4.67754 17.2703661,4.65339 C18.1323189,3.04194 17.8139832,1.16499 16.452689,0.37929 C15.091845,-0.40611 13.3254645,0.26679 12.3420908,1.80714 L12.3419407,1.80714 L0.089091979,19.34109 L8.34000581,23.90979 L17.2287918,4.72299 Z" id="Fill-41" fill="#323232" mask="url(#mask-4)"></path>
                </g>
                <path d="M7.68461844,64.20465 L5.28982124,64.20465 L5.28982124,60.12 L10.8532671,60.12 L10.8532671,61.0377 C10.8532671,62.7867 9.43463946,64.20465 7.68461844,64.20465" id="Fill-44" fill="#333231"></path>
                <path d="M19.2926609,64.20465 L21.6874581,64.20465 L21.6874581,60.12 L16.1240122,60.12 L16.1240122,61.0377 C16.1240122,62.7867 17.5426399,64.20465 19.2926609,64.20465" id="Fill-46" fill="#333231"></path>
                <path d="M24.8810814,61.2171 L2.20089907,61.1148 C0.966578932,61.10925 -0.0185958494,60.1053 0.000315183888,58.8747 L0.580253538,21.0798 C0.59796387,19.9248 1.57923637,18.99435 2.77198226,18.9996 L24.6900199,19.09845 C25.8827658,19.10385 26.8556334,20.04315 26.8629877,21.1983 L27.101777,58.99695 C27.1095816,60.22755 26.1152514,61.22265 24.8810814,61.2171" id="Fill-48" fill="#252523"></path>
                <path d="M9.34114991,62.16222 C9.34114991,64.32102 7.4740606,66.07092 5.17066673,66.07092 C2.86727285,66.07092 1.00003345,64.32102 1.00003345,62.16222 C1.00003345,60.00357 2.86727285,58.25367 5.17066673,58.25367 C7.4740606,58.25367 9.34114991,60.00357 9.34114991,62.16222" id="Fill-50" fill="#4D4D4D"></path>
                <path d="M9.68926301,62.46105 C9.68926301,64.2735 7.97871503,65.7429 5.86848385,65.7429 C3.75840277,65.7429 2.04785478,64.2735 2.04785478,62.46105 C2.04785478,60.64845 3.75840277,59.17905 5.86848385,59.17905 C7.97871503,59.17905 9.68926301,60.64845 9.68926301,62.46105" id="Fill-52" fill="#252523"></path>
                <path d="M17.6361295,62.16222 C17.6361295,64.32102 19.5033689,66.07092 21.8067627,66.07092 C24.1101566,66.07092 25.9772459,64.32102 25.9772459,62.16222 C25.9772459,60.00357 24.1101566,58.25367 21.8067627,58.25367 C19.5033689,58.25367 17.6361295,60.00357 17.6361295,62.16222" id="Fill-54" fill="#4D4D4D"></path>
                <path d="M17.6361295,62.48829 C17.6361295,64.46679 19.5033689,66.07089 21.8067627,66.07089 C24.1101566,66.07089 25.9772459,64.46679 25.9772459,62.48829 C25.9772459,60.50994 24.1101566,58.90584 21.8067627,58.90584 C19.5033689,58.90584 17.6361295,60.50994 17.6361295,62.48829" id="Fill-56" fill="#252523"></path>
                <path d="M9.34114991,62.48829 C9.34114991,64.46679 7.4740606,66.07089 5.17066673,66.07089 C2.86727285,66.07089 1.00003345,64.46679 1.00003345,62.48829 C1.00003345,60.50994 2.86727285,58.90584 5.17066673,58.90584 C7.4740606,58.90584 9.34114991,60.50994 9.34114991,62.48829" id="Fill-58" fill="#252523"></path>
                <path d="M5.06087767,61.10328 C5.06087767,61.69083 4.66779834,62.16723 4.18286541,62.16723 C3.69793249,62.16723 3.30485315,61.69083 3.30485315,61.10328 C3.30485315,60.51573 3.69793249,60.03933 4.18286541,60.03933 C4.66779834,60.03933 5.06087767,60.51573 5.06087767,61.10328" id="Fill-60" fill="#EB7C90"></path>
                <path d="M7.03649531,61.10328 C7.03649531,61.69083 6.69249461,62.16723 6.26819706,62.16723 C5.84389951,62.16723 5.49989881,61.69083 5.49989881,61.10328 C5.49989881,60.51573 5.84389951,60.03933 6.26819706,60.03933 C6.69249461,60.03933 7.03649531,60.51573 7.03649531,61.10328" id="Fill-62" fill="#EB7C90"></path>
                <path d="M3.57919821,62.65074 C3.57919821,63.23829 3.21073324,63.71469 2.756118,63.71469 C2.30150277,63.71469 1.93288771,63.23829 1.93288771,62.65074 C1.93288771,62.06319 2.30150277,61.58679 2.756118,61.58679 C3.21073324,61.58679 3.57919821,62.06319 3.57919821,62.65074" id="Fill-64" fill="#EB7C90"></path>
                <path d="M8.40838571,62.65074 C8.40838571,63.23829 8.06438501,63.71469 7.64008746,63.71469 C7.21578991,63.71469 6.87178921,63.23829 6.87178921,62.65074 C6.87178921,62.06319 7.21578991,61.58679 7.64008746,61.58679 C8.06438501,61.58679 8.40838571,62.06319 8.40838571,62.65074" id="Fill-66" fill="#EB7C90"></path>
                <path d="M6.81693221,64.23306 C6.81693221,65.26716 6.07985217,64.85706 5.1706217,64.85706 C4.26154131,64.85706 3.52446128,65.26716 3.52446128,64.23306 C3.52446128,63.86451 4.05697196,63.52086 4.21861627,63.23121 C4.51053658,62.70786 4.58543028,62.36061 5.1706217,62.36061 C5.73885322,62.36061 5.80083939,62.68806 6.09666198,63.18621 C6.27436566,63.48501 6.81693221,63.84516 6.81693221,64.23306" id="Fill-68" fill="#EB7C90"></path>
                <path d="M21.7431706,61.10328 C21.7431706,61.69083 21.3500913,62.16723 20.8651584,62.16723 C20.3802254,62.16723 19.9871461,61.69083 19.9871461,61.10328 C19.9871461,60.51573 20.3802254,60.03933 20.8651584,60.03933 C21.3500913,60.03933 21.7431706,60.51573 21.7431706,61.10328" id="Fill-70" fill="#EB7C90"></path>
                <path d="M23.7187733,61.10328 C23.7187733,61.69083 23.3747726,62.16723 22.950475,62.16723 C22.5261775,62.16723 22.1821768,61.69083 22.1821768,61.10328 C22.1821768,60.51573 22.5261775,60.03933 22.950475,60.03933 C23.3747726,60.03933 23.7187733,60.51573 23.7187733,61.10328" id="Fill-72" fill="#EB7C90"></path>
                <path d="M20.2614912,62.65074 C20.2614912,63.23829 19.8930262,63.71469 19.438411,63.71469 C18.9837957,63.71469 18.6151807,63.23829 18.6151807,62.65074 C18.6151807,62.06319 18.9837957,61.58679 19.438411,61.58679 C19.8930262,61.58679 20.2614912,62.06319 20.2614912,62.65074" id="Fill-74" fill="#EB7C90"></path>
                <path d="M25.0906787,62.65074 C25.0906787,63.23829 24.746678,63.71469 24.3223804,63.71469 C23.8980829,63.71469 23.5540822,63.23829 23.5540822,62.65074 C23.5540822,62.06319 23.8980829,61.58679 24.3223804,61.58679 C24.746678,61.58679 25.0906787,62.06319 25.0906787,62.65074" id="Fill-76" fill="#EB7C90"></path>
                <path d="M23.4992252,64.23306 C23.4992252,65.26716 22.7621451,64.85706 21.8529147,64.85706 C20.9438343,64.85706 20.2067542,65.26716 20.2067542,64.23306 C20.2067542,63.86451 20.7392649,63.52086 20.9009092,63.23121 C21.1928295,62.70786 21.2677232,62.36061 21.8529147,62.36061 C22.4211462,62.36061 22.4831323,62.68806 22.779105,63.18621 C22.9566586,63.48501 23.4992252,63.84516 23.4992252,64.23306" id="Fill-78" fill="#EB7C90"></path>
                <path d="M15.5073475,32.939175 C16.3735028,34.542375 17.7463538,36.342975 19.8577856,37.495575 C21.6235658,38.459325 24.5507236,39.306525 28.4680091,37.869075 C30.6571863,37.065825 31.7807419,34.640325 30.9768729,32.451675 C30.1755553,30.262425 27.7472886,29.140125 25.5576611,29.943525 C25.0397089,30.133575 24.3342974,30.313275 23.9145025,30.090375 C23.2466128,29.735625 22.6193968,28.444875 22.4232324,27.649425 L22.4332883,27.692175 L14.1900289,29.529975 C14.2544165,29.819325 14.6071222,31.272675 15.5073475,32.939175" id="Fill-80" fill="#EB7C90"></path>
                <path d="M4.77682194,27.01197 C4.77682194,27.01197 13.2317048,31.89717 22.4951093,27.35172" id="Stroke-82" stroke="#5B5854" stroke-width="1.20015" stroke-linecap="round" stroke-linejoin="round"></path>
                <path d="M15.4844891,56.361885 L11.7873821,56.361885 C11.2962956,56.361885 10.8943611,55.960185 10.8943611,55.469385 L10.8943611,54.609135 C10.8943611,54.118335 11.2962956,53.716635 11.7873821,53.716635 L15.4844891,53.716635 C15.9755756,53.716635 16.3775101,54.118335 16.3775101,54.609135 L16.3775101,55.469385 C16.3775101,55.960185 15.9755756,56.361885 15.4844891,56.361885" id="Fill-84" fill="#84CEE3"></path>
                <path d="M30.6852527,9.736635 C30.4985438,9.425085 30.3064317,9.117135 30.1033632,8.816985 C29.2702271,7.584435 28.3027627,6.450435 27.2222823,5.434935" id="Stroke-86" stroke="#323232" stroke-width="0.75" stroke-linecap="round"></path>
                <path d="M28.8611785,11.680035 C28.0654142,10.215435 27.0650806,8.878185 25.8990503,7.705785" id="Stroke-88" stroke="#323232" stroke-width="0.75" stroke-linecap="round"></path>
                <path d="M36.2084451,57.35445 C36.2084451,57.35445 35.0077446,57.95445 32.3061684,57.35445 C31.2180336,57.11295 30.319009,56.2053 29.7546798,56.30445 C29.2077607,56.40075 31.6705476,57.6018 31.5557306,58.40445 C31.405643,59.45445 21.553595,57.8766 13.8453978,54.95445" id="Stroke-90" stroke="#2162AD" stroke-width="1.5" stroke-linecap="round" stroke-linejoin="round"></path>
            </g>
        </g>
    </g>
</svg>