<?xml version="1.0" encoding="UTF-8"?>
<svg width="120px" height="120px" viewBox="0 0 120 120" version="1.1" xmlns="http://www.w3.org/2000/svg" xmlns:xlink="http://www.w3.org/1999/xlink">
    <!-- Generator: Sketch 51.1 (57501) - http://www.bohemiancoding.com/sketch -->
    <title>Whistle1</title>
    <desc>Created with Sketch.</desc>
    <defs></defs>
    <g id="Whistle1" stroke="none" stroke-width="1" fill="none" fill-rule="evenodd">
        <g id="Group" transform="translate(-1.000000, 24.000000)" fill-rule="nonzero">
            <path d="M7.71929825,43.6235294 C3.64912281,43.6235294 0.280701754,40.3058824 0.280701754,36.1411765 C0.280701754,32.0470588 3.57894737,28.6588235 7.71929825,28.6588235 C8.42105263,28.6588235 9.12280702,28.7294118 9.75438596,28.9411765 C10.7368421,29.2235294 11.2982456,30.2823529 11.0175439,31.2705882 C10.7368421,32.2588235 9.68421053,32.8235294 8.70175439,32.5411765 C8.35087719,32.4705882 8,32.4 7.71929825,32.4 C5.68421053,32.4 4,34.0941176 4,36.1411765 C4,38.1882353 5.68421053,39.8823529 7.71929825,39.8823529 C8.07017544,39.8823529 8.42105263,39.8117647 8.70175439,39.7411765 C9.68421053,39.4588235 10.7368421,40.0235294 11.0175439,41.0117647 C11.2982456,42 10.7368421,43.0588235 9.75438596,43.3411765 C9.05263158,43.5529412 8.35087719,43.6235294 7.71929825,43.6235294 Z" id="Shape" fill="#E58F22"></path>
            <path d="M118.175439,0.635294118 L69.0526316,0.635294118 C68,0.635294118 67.2280702,1.48235294 67.2280702,2.47058824 L67.2280702,3.88235294 C67.2280702,5.43529412 65.9649123,6.70588235 64.4210526,6.70588235 C62.877193,6.70588235 61.6140351,5.43529412 61.6140351,3.88235294 L61.6140351,2.47058824 C61.6140351,1.41176471 60.7719298,0.635294118 59.7894737,0.635294118 L43.9298246,0.635294118 C24.1403509,0.635294118 7.92982456,16.4470588 7.78947368,35.8588235 C7.71929825,45.4588235 11.3684211,54.4941176 18.1052632,61.2705882 C24.7719298,67.9764706 33.6140351,71.6470588 43.0877193,71.6470588 C43.1578947,71.6470588 43.2982456,71.6470588 43.3684211,71.6470588 C62.6666667,71.5058824 78.3859649,55.2 78.3859649,35.2941176 L78.3859649,31.4117647 C78.3859649,27.6 81.1929825,24.4235294 84.9824561,24 L113.403509,19.9058824 C117.122807,19.4823529 120,16.3058824 120,12.4941176 L120,2.54117647 C120,1.48235294 119.22807,0.635294118 118.175439,0.635294118 Z" id="Shape" fill="#747789"></path>
            <path d="M43.0877193,60.4941176 C29.754386,60.4941176 18.9473684,49.6235294 18.9473684,36.2117647 C18.9473684,22.8 29.754386,11.9294118 43.0877193,11.9294118 C56.4210526,11.9294118 67.2280702,22.8 67.2280702,36.2117647 C67.2280702,49.6235294 56.3508772,60.4941176 43.0877193,60.4941176 Z M43.0877193,17.5058824 C32.8421053,17.5058824 24.4912281,25.9058824 24.4912281,36.2117647 C24.4912281,46.5176471 32.8421053,54.9176471 43.0877193,54.9176471 C53.3333333,54.9176471 61.6842105,46.5176471 61.6842105,36.2117647 C61.6140351,25.8352941 53.3333333,17.5058824 43.0877193,17.5058824 Z" id="Shape" fill="#A3A7C4"></path>
        </g>
    </g>
</svg>