<?xml version="1.0" encoding="UTF-8"?>
<svg width="120px" height="120px" viewBox="0 0 120 120" version="1.1" xmlns="http://www.w3.org/2000/svg" xmlns:xlink="http://www.w3.org/1999/xlink">
    <!-- Generator: Sketch 51.1 (57501) - http://www.bohemiancoding.com/sketch -->
    <title>Muffin2</title>
    <desc>Created with Sketch.</desc>
    <defs>
        <polygon id="path-1" points="0.138994397 0.180423529 118.687282 0.180423529 118.687282 52.0941176 0.138994397 52.0941176"></polygon>
        <polygon id="path-3" points="0 0.173752941 37.6228496 0.173752941 37.6228496 31.5830118 0 31.5830118"></polygon>
        <polygon id="path-5" points="0.13316753 0.107364706 115.956631 0.107364706 115.956631 56.1805835 0.13316753 56.1805835"></polygon>
    </defs>
    <g id="Muffin2" stroke="none" stroke-width="1" fill="none" fill-rule="evenodd">
        <g id="Page-1" transform="translate(0.000000, 6.000000)">
            <g id="Group-3" transform="translate(1.266491, 55.798518)">
                <mask id="mask-2" fill="white">
                    <use xlink:href="#path-1"></use>
                </mask>
                <g id="Clip-2"></g>
                <path d="M118.305847,6.21571765 C118.154818,5.20115294 117.932232,4.49978824 117.644106,4.01601176 C117.967694,5.33107059 118.088644,6.74555294 117.964528,8.26803529 C117.501942,13.9523294 115.931493,20.2236353 112.579409,24.9213176 C108.996507,29.9439529 103.816876,32.1604941 98.3630501,34.5825529 C96.7669551,35.2912235 95.1547124,36.0786706 93.5250554,36.8893059 C93.4379842,37.5913059 93.2875884,38.2910824 93.0640528,38.9270118 C92.4225752,40.7490353 91.1896464,42.0482118 89.1882744,41.3789294 C88.2928654,41.1098824 87.5500686,40.6753412 86.9266385,40.1223176 C79.6699631,43.4871529 72.0912823,45.9308118 64.1557678,43.0122706 C61.0161372,41.8576235 58.5069024,39.7373294 55.3783536,38.6087294 C52.1453193,37.4410588 49.2352401,35.6028353 46.1013087,34.2048706 C39.9759261,31.4743765 33.2407282,30.7288588 26.8686966,28.7851765 C24.2255303,27.9783529 20.9652665,26.6988706 17.685372,25.0769647 C22.6610976,26.4882706 27.9015198,27.2442706 31.7535515,27.4094471 C38.4067441,27.6953294 45.1143958,26.7287294 51.7254776,27.8382706 C55.1079578,28.4055882 58.3831029,29.4566824 61.8042111,29.7768706 C65.1148179,30.0859412 68.0727071,31.5102706 71.3994617,31.8412588 C76.0408338,32.3034353 80.1689604,31.2078706 83.978248,29.2829294 C84.0247916,27.2935059 84.1979842,25.4289176 84.2917045,24.0226941 C84.3854248,22.8925059 84.4772454,21.7905882 84.5557678,20.6994706 C80.3488021,23.0961176 75.765372,24.5512588 70.5303325,24.0303176 C68.2867441,23.8066941 66.2087493,23.0910353 64.0791451,22.5510353 C63.0488549,22.7546471 62.2515989,22.5364235 61.6506491,22.0615412 C61.4128654,22.0278706 61.1763483,21.9884824 60.9347652,21.9656118 C57.5139736,21.6460588 54.2385119,20.5946471 50.8560317,20.0266941 C44.2452665,18.9174706 37.5372982,19.8840706 30.8834723,19.5988235 C23.4057942,19.2773647 10.69181,16.7387294 4.85423747,11.475 C1.47017414,8.42304706 0.024474934,4.41624706 0.402205805,0.180423529 C-0.0287176781,2.35852941 0.0858997361,5.21894118 0.626058047,8.1108 C-0.0426490765,13.1394706 0.522522427,19.0607294 2.58531926,22.1768471 C6.92653298,28.7372118 18.6061108,34.3814824 25.7671662,36.5665765 C32.138248,38.5105765 38.8734459,39.2551412 44.9988285,41.9865882 C48.1333931,43.3836 51.0428391,45.2227765 54.2755567,46.3894941 C57.4041055,47.5184118 59.9133404,49.6387059 63.052971,50.7930353 C75.2575092,55.2817059 86.6176148,47.0908588 97.2602533,42.3636353 C102.714396,39.9412588 107.89371,37.7253529 111.476296,32.7024 C114.829013,28.0044 120.160306,18.7189412 118.305847,6.21571765" id="Fill-1" fill="#EAC887" mask="url(#mask-2)"></path>
            </g>
            <path d="M103.689879,70.90524 C100.20228,73.6732165 96.7384274,76.9557812 93.0681372,79.88544 C93.0798522,83.4583341 94.0496675,86.3883106 94.6977942,89.3179694 C94.9004327,90.2337459 94.94381,91.4646282 94.7915145,92.6878871 C96.4211715,91.8769341 98.0334142,91.0898047 99.6295092,90.3811341 C105.083335,87.9590753 110.262966,85.7425341 113.845868,80.7195812 C117.197953,76.0218988 118.768401,69.7509106 119.230987,64.0666165 C119.35542,62.5441341 119.234153,61.1296518 118.910565,59.8145929 C118.427715,57.8553459 117.483863,56.1228988 116.202807,54.5966047 C115.82666,55.8738635 115.425815,57.0126282 115.049984,57.9874871 C112.831409,63.7492871 108.368296,67.1928988 103.689879,70.90524" id="Fill-4" fill="#F3D89F"></path>
            <path d="M85.2447388,85.0814788 C81.4354512,87.00642 77.3073245,88.1019847 72.6659525,87.6398082 C69.3391979,87.30882 66.3813087,85.8844906 63.0707018,85.57542 C59.6495937,85.2552318 56.3744485,84.2041376 52.9919683,83.63682 C46.3808865,82.5272788 39.6732348,83.4938788 33.0200422,83.2079965 C29.1680106,83.04282 23.9275884,82.28682 18.9518628,80.8755141 C22.2317573,82.49742 25.4920211,83.7769024 28.1351873,84.5837259 C34.507219,86.5274082 41.2424169,87.2726082 47.3677995,90.00342 C50.5017309,91.4013847 53.41181,93.2396082 56.6448443,94.4069612 C59.7733931,95.5358788 62.282628,97.6561729 65.4222586,98.81082 C73.3577731,101.729361 80.9364538,99.2857024 88.1931293,95.9208671 C85.5724433,93.5950553 85.1500686,89.0860553 85.2447388,85.0814788" id="Fill-6" fill="#F3D89F"></path>
            <path d="M6.12060158,67.2733906 C11.9584908,72.53712 24.6724749,75.0757553 32.1498364,75.3972141 C38.8039789,75.6827788 45.5116306,74.7161788 52.1223958,75.8250847 C55.5051926,76.3930376 58.7803377,77.4447671 62.2011293,77.7640024 C62.443029,77.7871906 62.6792296,77.8265788 62.9173298,77.8599318 C61.538438,76.7700847 61.1885699,74.3391318 61.4029235,72.6162141 C61.5450871,71.7617435 61.6866174,70.9158494 61.8167493,70.0680494 C60.7380158,69.6532024 59.6428179,69.2764729 58.4871451,69.0363318 C55.1227124,68.3378259 51.9840317,66.9284259 48.6848232,65.9872376 C47.8688865,65.75472 47.0466174,65.5552376 46.2208654,65.3814847 C46.2123166,65.9700847 46.1695726,66.5291435 46.0682533,67.0297553 C45.7028707,68.8384376 44.6383852,69.9374965 42.1443483,69.3415906 C38.6865119,68.3505318 37.3332665,66.4684729 36.9485699,64.1934847 C34.2518945,63.9657318 31.5511029,63.7535435 28.8832401,63.3377435 C21.4878839,62.1859553 9.13263325,58.2474494 3.9134248,52.3658965 C3.51891293,51.9215082 3.15353034,51.3977082 2.81569393,50.8164141 C2.63458575,51.5225435 2.44556201,52.2308965 2.2403905,52.9440141 C1.94751451,53.9623906 1.75785752,54.9769553 1.66856992,55.9788141 C1.29083905,60.2146376 2.73653826,64.2217553 6.12060158,67.2733906" id="Fill-8" fill="#F3D89F"></path>
            <path d="M108.616084,58.2077435 C110.945478,55.9610259 112.924053,53.4411318 114.180728,50.1766729 C115.271177,47.34612 115.773974,44.2182494 115.868644,41.0722729 C115.037509,43.6207553 114.050596,45.7629671 113.197931,47.4067906 C112.006164,49.7036965 110.464528,51.5482729 108.705689,53.1536612 C108.715504,53.3089906 108.723103,53.4608259 108.734818,53.6225082 C108.734818,55.0064965 108.81904,56.6620729 108.616084,58.2077435" id="Fill-10" fill="#F3D89F"></path>
            <path d="M85.8947018,68.5256824 C80.5691082,71.4845647 74.899029,73.4085529 68.5865224,72.3034588 C68.5960211,73.3510588 68.633066,74.5536706 68.3962322,75.6073059 C68.1207704,76.8292941 67.473277,77.8486235 65.9728021,78.1834235 C65.7540158,78.2564824 65.5463113,78.3095294 65.3458892,78.3495529 C67.4751768,78.8895529 69.5534881,79.6052118 71.7970765,79.8288353 C77.0317995,80.3497765 81.6152296,78.8946353 85.8221953,76.4979882 C86.0124855,73.8475412 86.1100053,71.2625294 85.8947018,68.5256824" id="Fill-12" fill="#F3D89F"></path>
            <path d="M101.87981,61.1546824 C101.478016,60.3484941 101.663557,59.2322824 101.999177,58.0252235 C101.495113,58.3428706 100.988517,58.6598824 100.478438,58.9794353 C97.5772243,60.7966941 94.6557467,62.9179412 91.6547968,64.9397647 C91.9255092,67.1051647 92.5825013,69.2788235 93.0970132,71.3486118 C96.4364327,68.6111294 99.6188074,65.6357294 102.820813,63.0942353 C102.98609,62.9627294 103.150734,62.8321765 103.316011,62.7013059 C102.775852,62.3779412 102.281604,61.8601765 101.87981,61.1546824" id="Fill-14" fill="#F3D89F"></path>
            <path d="M113.197836,39.5472176 C112.554142,40.7873118 111.80533,41.8914529 110.980211,42.9025235 C109.121003,46.9493471 108.460211,48.9343235 108.705594,53.1536294 C110.464433,51.5482412 112.006069,49.7036647 113.197836,47.4067588 C114.050501,45.7629353 115.037731,43.6207235 115.868865,41.0722412 C115.774195,44.2182176 115.271082,47.3460882 114.180633,50.1766412 C112.924274,53.4411 110.945699,55.9609941 108.615989,58.2077118 C108.530818,58.8563471 108.401003,59.4871941 108.183799,60.0681706 C107.93905,60.7237941 107.592032,61.3177941 107.102216,61.8098294 C105.971873,63.1696765 104.529657,63.4298294 103.316042,62.7014647 C103.150765,62.8323353 102.986121,62.9628882 102.820844,63.0943941 C99.6188391,65.6358882 96.4364644,68.6109706 93.0970449,71.3484529 C93.2031135,71.7760059 93.3034828,72.1987941 93.3921372,72.6161824 C94.0456464,75.2361353 93.0663325,77.5285941 93.0663325,79.8210529 C93.0663325,79.8429706 93.0682322,79.8633 93.0682322,79.8852176 C96.7385224,76.9558765 100.202375,73.6733118 103.689974,70.9053353 C108.368391,67.1929941 112.831504,63.7490647 115.050079,57.9875824 C115.42591,57.0124059 115.826755,55.8736412 116.202586,54.5967 C117.531768,50.0791235 118.543694,43.8078176 117.003958,36.7312765 C117.933562,32.0281941 118.075726,26.4080647 116.24153,20.2193471 C115.949921,19.2355941 115.630765,18.5723471 115.277414,18.1343118 C115.782744,19.3909235 116.101266,20.7739588 116.192137,22.2993 C116.531557,27.9924882 115.856201,34.4226176 113.197836,39.5472176" id="Fill-16" fill="#EAC887"></path>
            <g id="Group-20" transform="translate(0.000000, 32.610282)">
                <mask id="mask-4" fill="white">
                    <use xlink:href="#path-3"></use>
                </mask>
                <g id="Clip-19"></g>
                <path d="M28.8831135,30.7275882 C31.5512929,31.1433882 34.2517678,31.3555765 36.9487599,31.5830118 C36.5498153,29.2213059 37.1935092,26.4361765 37.6228496,23.7806471 C34.7023219,23.5297059 31.7738786,23.3181529 28.8831135,22.8683647 C21.4880739,21.7165765 9.1325066,17.7777529 3.91361478,11.8962 C0.887651715,8.48594118 -0.106543536,4.34191765 0.738522427,0.173752941 C-0.775883905,4.96069412 0.097994723,13.5400235 2.81556728,18.2062588 C3.15340369,18.7872353 3.5191029,19.3113529 3.91361478,19.7557412 C9.1325066,25.6372941 21.4880739,29.5758 28.8831135,30.7275882" id="Fill-18" fill="#EAC887" mask="url(#mask-4)"></path>
            </g>
            <path d="M62.7614565,62.5794247 C61.3740158,62.0232247 59.9805594,61.4873541 58.4870501,61.1770129 C57.276285,60.9254365 56.0949657,60.5801541 54.9244116,60.1996129 C54.1939631,61.3294835 53.2874723,61.9679541 51.9364433,61.15446 C50.9530132,60.5617306 50.5638839,59.6713659 50.4353351,58.6720482 C49.8552823,58.48146 49.2726966,58.2959541 48.6847282,58.1279188 C47.6031451,57.8194835 46.5111135,57.5723541 45.413066,57.3639776 C45.5488971,59.4976129 46.2606649,62.7681071 46.2210871,65.3813894 C47.0465224,65.5551424 47.8691082,65.7546247 48.6847282,65.98746 C51.9839367,66.9283306 55.1226174,68.3377306 58.4870501,69.0362365 C59.642723,69.2763776 60.7379208,69.6534247 61.816971,70.0679541 C61.9594512,69.1429659 62.0873668,68.2154365 62.1833034,67.2701188 C62.3428813,65.7028482 62.6344908,64.1479659 62.7614565,62.5794247" id="Fill-21" fill="#EAC887"></path>
            <path d="M85.8947018,68.5256824 C85.8909024,68.4694588 85.8890026,68.4151412 85.8842533,68.3592353 C85.5584485,66.3942706 85.5584485,63.4468235 83.2736992,62.7921529 C82.8750712,62.6380941 82.5296359,62.5453412 82.2234617,62.4951529 C81.6126966,62.7607059 80.9965488,63.0046588 80.3747018,63.2311412 C79.7373404,64.3540235 79.9301636,66.4450941 79.4283166,67.8443294 C79.4052032,67.9081765 79.3824063,67.9713882 79.3567599,68.0314235 C78.0503747,71.6338588 75.1124327,70.6513765 74.7863113,67.7042471 C74.6352823,66.7941882 74.7635145,65.6738471 74.815124,64.6027412 C72.8048865,64.8498706 70.7313245,64.8196941 68.5846227,64.4429647 L68.5846227,71.9613529 C68.5846227,72.0728471 68.5855726,72.1875176 68.5865224,72.3034588 C74.899029,73.4085529 80.5691082,71.4845647 85.8947018,68.5256824" id="Fill-23" fill="#EAC887"></path>
            <path d="M101.999145,58.0253506 C102.753024,55.3101035 104.264897,52.1364918 101.552707,51.0031271 C101.339303,50.9246682 101.124,50.8795624 100.909013,50.8503388 C100.765583,50.9402329 100.621836,51.0301271 100.478406,51.1203388 C98.5862691,52.3048447 96.6858997,53.6195859 94.7608338,54.9511624 C93.8774565,56.1426565 93.1666385,57.3500329 92.7391979,58.2073624 C91.5176675,60.3527506 91.367905,62.6413976 91.6547652,64.9398918 C94.655715,62.9177506 97.5771926,60.7968212 100.478406,58.9795624 C100.988485,58.6600094 101.495082,58.3429976 101.999145,58.0253506" id="Fill-25" fill="#EAC887"></path>
            <g id="Group-29" transform="translate(0.316623, 0.210282)">
                <mask id="mask-6" fill="white">
                    <use xlink:href="#path-5"></use>
                </mask>
                <g id="Clip-28"></g>
                <path d="M3.5968971,44.2961365 C8.81578892,50.1780071 21.1713562,54.1165129 28.5663958,55.2683012 C31.4571609,55.7180894 34.3856042,55.9296424 37.3061319,56.1805835 C37.5568971,54.6311012 37.7335726,53.1254541 37.58381,51.7751365 C36.9312507,46.2080541 33.9936253,48.4998776 30.4028074,46.2080541 C27.2112507,44.0734659 28.1370554,41.2867482 30.1776887,39.4424894 C30.6428074,39.02256 31.1636517,38.6515482 31.7079261,38.3481953 C33.2679261,37.4540188 34.1034934,36.4076894 34.3482427,35.37756 C34.8206438,33.3894071 33.0861847,31.4635129 30.0763694,30.8161482 C27.1390607,30.1614776 23.8737309,31.14396 20.6096675,29.5061718 C17.9981636,28.1965129 15.3872929,23.9390894 16.0398522,20.6644659 C16.2282427,19.6270306 16.932095,18.5899129 17.906343,17.5994894 C20.3174248,15.1507482 24.3933087,12.9882071 26.4855515,11.82276 C31.3818047,9.20280706 37.2576887,9.20280706 42.4800633,7.89283059 C47.7033879,6.58285412 52.9257625,7.23752471 58.1481372,5.60068941 C60.4338364,4.94538353 63.0447071,4.29039529 65.6562111,4.61788941 C71.8582164,5.60068941 76.4280317,10.1849718 82.6300369,10.1849718 C86.8743641,10.1849718 90.4639156,10.5127835 94.3811715,12.1499365 C97.6461847,13.4599129 102.868559,14.7698894 104.827187,18.0445129 C106.785499,21.6469482 104.500749,24.9215718 108.418322,27.5415247 C110.049562,28.5240071 113.314259,29.5061718 113.966501,31.4711365 C115.272887,34.7460776 112.335261,39.9859835 110.702438,42.6056188 C110.68819,42.63516 110.676475,42.6624776 110.663493,42.6920188 C111.488612,41.6812659 112.237425,40.5771247 112.881119,39.3370306 C115.539799,34.2124306 116.215156,27.7823012 115.87542,22.0891129 C115.784549,20.5637718 115.466026,19.1807365 114.961013,17.9241247 C113.394364,14.0310424 110.005551,11.3783718 105.810934,9.67864235 C99.2087177,7.00278353 91.9358945,5.45266588 84.952781,4.17381882 C77.7372665,2.85240706 70.4004855,2.58050118 63.1890871,1.32706588 C59.8889288,0.753395294 56.6096675,0.165112941 53.2518839,0.109842353 C49.4273984,0.0463129412 45.6260264,1.18888941 41.956686,2.12181882 C30.5528865,5.02003059 16.1440211,3.41496 8.152781,13.8884188 C6.45948285,16.1081365 5.24428496,18.5387718 4.3574248,21.1828659 C3.39489182,24.0550306 2.48460158,26.8090306 1.32544591,29.6233835 C0.922385224,30.6020541 0.62191029,31.5883482 0.422121372,32.5736894 C-0.422944591,36.7418541 0.570934037,40.8861953 3.5968971,44.2961365" id="Fill-27" fill="#F3D89F" mask="url(#mask-6)"></path>
            </g>
            <path d="M100.478501,51.1202435 C100.621931,51.0300318 100.765361,50.9404553 100.908792,50.8502435 C98.9371821,50.58342 96.921562,52.2644082 95.3336992,54.2103141 C95.1348602,54.4542671 94.9455198,54.7023494 94.7606121,54.9513847 C96.6856781,53.6194906 98.5860475,52.3047494 100.478501,51.1202435" id="Fill-30" fill="#F3D89F"></path>
            <path d="M59.894533,56.8450376 C59.7549024,56.8167671 59.8068285,56.7986612 59.894533,56.8450376 M58.4871451,61.1771082 C59.9803377,61.4871318 61.3741108,62.02332 62.7615515,62.57952 C62.7672507,62.4969318 62.7786491,62.4146612 62.7846649,62.3320729 C63.0290976,58.7753788 61.3750607,52.8293435 57.9935303,54.9890259 C57.9200739,55.0360376 57.846934,55.0814612 57.7715778,55.1364141 C56.9147968,55.7609082 56.311314,57.4615906 55.6014459,58.9510376 C55.3883588,59.3979671 55.1654565,59.82552 54.9245066,60.1997082 C56.0950607,60.5802494 57.2760633,60.9255318 58.4871451,61.1771082" id="Fill-32" fill="#F3D89F"></path>
            <path d="M50.4354301,58.6721118 C50.138438,56.3571 51.2472507,53.4566647 49.6511557,52.3125 C48.8406016,51.6003353 48.1244011,51.5847706 47.5209182,51.9389471 C46.1838206,52.7254412 45.4084116,55.3393588 45.4084116,56.2424294 C45.3795989,56.5607118 45.3856148,56.9425235 45.4131609,57.3640412 C46.5108918,57.5724176 47.6032401,57.8192294 48.6848232,58.1279824 C49.2727916,58.2957 49.8553773,58.4812059 50.4354301,58.6721118" id="Fill-34" fill="#F3D89F"></path>
            <path d="M74.8150607,64.6028682 C74.8761689,63.3611859 74.834058,62.1852565 74.133372,61.4819859 C73.4808127,60.1723271 72.5014987,60.1723271 71.5225013,60.1723271 C70.9620792,60.1723271 70.4991768,60.2202918 70.1147968,60.3130447 C68.4851398,60.7075624 68.3195462,61.9187506 68.5845594,63.7747624 L68.5845594,64.4430918 C70.7315778,64.8198212 72.8048232,64.84968 74.8150607,64.6028682" id="Fill-36" fill="#F3D89F"></path>
            <path d="M81.5646332,62.4569082 C80.9852137,62.5058259 80.6210976,62.7993318 80.3747652,63.2313318 C80.9966121,63.0048494 81.6124433,62.7605788 82.2235251,62.4950259 C81.9797256,62.45532 81.758723,62.4407082 81.5646332,62.4569082" id="Fill-38" fill="#F3D89F"></path>
            <path d="M61.5258681,54.5523247 C61.3865541,54.5243718 61.4381636,54.5059482 61.5258681,54.5523247 M68.3962639,75.6072424 C68.1610132,75.7244541 67.9039156,75.8241953 67.6040739,75.8909012 C63.6871346,77.2011953 62.7081372,72.9434541 63.0352084,70.3238188 C63.3315673,68.5364188 63.6307757,66.7896776 63.8147335,64.9775012 C63.9828602,63.32796 64.3029657,61.6927129 64.4169499,60.0396776 C64.6667652,56.40516 62.9345224,50.27076 59.4029129,52.8440188 C58.8627546,53.2379012 58.4226491,54.0612424 57.9936253,54.9890894 C61.3748391,52.8294071 63.0291926,58.7754424 62.7847599,62.3321365 C62.7787441,62.4147247 62.7673456,62.4969953 62.7613298,62.5795835 C62.6343641,64.1481247 62.3427546,65.7030071 62.1831768,67.26996 C62.0872401,68.2155953 61.9593245,69.1431247 61.8168443,70.0681129 C61.6867124,70.9159129 61.5451821,71.7618071 61.4027018,72.6162776 C61.1886649,74.3391953 61.538533,76.7701482 62.9174248,77.8599953 C63.518058,78.3348776 64.3156306,78.5534188 65.3456042,78.3494894 C65.546343,78.3094659 65.7540475,78.2564188 65.9728338,78.1836776 C67.4733087,77.84856 68.1208021,76.8292306 68.3962639,75.6072424" id="Fill-40" fill="#A91E22"></path>
            <path d="M32.0246121,28.7338765 C29.0869868,28.0788882 25.8229235,29.0616882 22.5582269,27.4242176 C19.9473562,26.1142412 17.3355356,21.8571353 17.9887282,18.5821941 C18.0355884,18.3245824 18.1169604,18.0666529 18.223029,17.8096765 C17.248781,18.8004176 16.5446121,19.8372176 16.3565383,20.8746529 C15.7039789,24.1492765 18.3148496,28.4070176 20.9263536,29.7166765 C24.1904169,31.3541471 27.4554301,30.3716647 30.3930554,31.0266529 C33.4028707,31.6737 35.1373298,33.5995941 34.6649288,35.5877471 C37.9305752,33.0129 36.2151135,29.6350412 32.0246121,28.7338765" id="Fill-42" fill="#A91E22"></path>
            <path d="M74.133277,61.4819224 C74.8339631,62.1851929 74.8763905,63.3611224 74.8149657,64.6028047 C74.7633562,65.6739106 74.6354406,66.7942518 74.7864697,67.7043106 C75.112591,70.65144 78.0502164,71.6339224 79.3566016,68.0314871 C79.382248,67.9714518 79.4050449,67.9079224 79.4284749,67.8443929 C78.1113245,68.5416282 76.6434617,67.4444753 76.4177098,65.4118518 C76.091905,63.4468871 77.0709024,60.49944 75.765467,59.1894635 C75.112591,57.8794871 74.133277,57.8794871 73.1536464,57.8794871 C70.7602955,57.8794871 70.1004538,58.7501576 70.1150185,60.3129812 C70.4990818,60.2202282 70.9619842,60.1722635 71.5224063,60.1722635 C72.5017203,60.1722635 73.4807177,60.1722635 74.133277,61.4819224" id="Fill-44" fill="#A91E22"></path>
            <path d="M92.0861319,94.8848294 C85.5583219,92.9198647 86.8637573,82.4403706 87.189562,77.5279588 C87.5166332,73.5986647 87.8430712,69.9962294 87.5166332,66.0663 C87.189562,64.1016529 87.189562,61.1545235 84.9051293,60.4995353 C82.3468179,59.5126059 81.8057098,60.7870059 81.5647599,62.4568765 C81.7588496,62.4406765 81.9795356,62.4552882 82.2236517,62.4949941 C82.5295092,62.5451824 82.8749446,62.6379353 83.2735726,62.7923118 C85.5583219,63.4466647 85.5583219,66.3944294 85.8841266,68.3590765 C85.8891926,68.4153 85.8910923,68.4696176 85.8945752,68.5258412 C86.1098786,71.2626882 86.0123588,73.8473824 85.8223852,76.4978294 C85.7438628,77.5892647 85.6520422,78.6911824 85.5583219,79.8210529 C85.4646016,81.2275941 85.291409,83.0921824 85.2448654,85.0816059 C85.1501953,89.0861824 85.5725699,93.5948647 88.1929393,95.9209941 C88.816686,96.4740176 89.5594828,96.9082412 90.4548918,97.1776059 C92.4562639,97.8465706 93.688876,96.5473941 94.3306702,94.7256882 C93.7262375,95.0865353 92.9840739,95.1850059 92.0861319,94.8848294" id="Fill-46" fill="#A91E22"></path>
            <path d="M49.6512823,52.3126588 C51.2473773,53.4568235 50.138248,56.3569412 50.4355567,58.6722706 C50.5637889,59.6712706 50.9529182,60.5619529 51.9363483,61.1543647 C53.2873773,61.9678588 54.1941847,61.3297059 54.9243166,60.1995176 C55.1655831,59.8253294 55.3881689,59.3980941 55.6015726,58.9508471 C55.0481161,59.3145529 54.3901741,59.3571176 53.5685383,58.8619059 C50.3044749,56.8966235 53.5685383,51.6573529 51.2837889,50.0202 C49.5078522,48.4618235 48.1862691,50.2333412 47.5207282,51.9387882 C48.1245277,51.5846118 48.8404116,51.6004941 49.6512823,52.3126588" id="Fill-48" fill="#A91E22"></path>
            <path d="M43.7758417,67.0491318 C34.6365277,64.4294965 40.1847071,55.5874729 39.532781,49.6925788 C38.8792718,44.1254965 35.9419631,46.4179553 32.3508285,44.1254965 C30.312095,42.7621553 29.9562111,41.1326259 30.4944697,39.6527082 C28.4535198,41.4972847 27.5280317,44.2836847 30.7195884,46.4182729 C34.3104063,48.7104141 37.2480317,46.4182729 37.9002744,51.9853553 C38.0503536,53.3356729 37.8733615,54.84132 37.6225963,56.3908024 C37.1935726,59.0466494 36.5498786,61.8314612 36.9488232,64.1934847 C37.3332032,66.4684729 38.6864485,68.3505318 42.1446016,69.3415906 C44.6386385,69.9374965 45.7028074,68.8384376 46.06819,67.0297553 C45.487504,67.2495671 44.7428074,67.2797435 43.7758417,67.0491318" id="Fill-50" fill="#A91E22"></path>
            <path d="M103.511145,58.8619694 C102.20571,56.2423341 107.10228,50.34744 103.18534,48.7102871 C100.252148,47.6401341 97.1011187,51.3775694 95.3337309,54.2100282 C96.9215937,52.2641224 98.9372137,50.5834518 100.908823,50.8502753 C101.124127,50.8794988 101.33943,50.9249224 101.552517,51.0030635 C104.265024,52.1364282 102.752834,55.31004 101.999272,58.0252871 C101.663652,59.2323459 101.478111,60.3485576 101.879905,61.1547459 C102.281383,61.8599224 102.775947,62.3776871 103.316106,62.7013694 C104.52972,63.4297341 105.97162,63.1698988 107.10228,61.8097341 C107.592095,61.3176988 107.938797,60.7236988 108.183863,60.0680753 C106.619113,61.3831341 104.676,60.9069812 103.511145,58.8619694" id="Fill-52" fill="#A91E22"></path>
            <path d="M59.894533,56.8449461 C59.8068285,56.7987192 59.7549024,56.8167667 59.894533,56.8449461" id="Fill-54" fill="#C23F35"></path>
            <path d="M90.5645699,80.9558153 C90.5512718,79.0200741 91.1490554,77.4858388 91.4653615,75.6177565 C91.9026174,73.0416388 90.8390818,71.1344859 90.3274195,68.7210035 C90.2948074,68.5710741 90.4831979,68.4951565 90.568686,68.6190388 C91.6205066,70.1478741 92.4294776,72.2252859 92.3652032,74.1156035 C92.2619842,77.1357918 90.3065224,80.2442859 91.8586069,83.2412859 C93.0462586,85.5353329 96.1561266,91.0560388 92.9705858,92.9895565 C92.6780264,93.1668035 92.2698997,92.9403212 92.2803483,92.5918624 C92.3420897,90.5195329 91.4913245,88.1581447 91.0341214,86.1455329 C90.6370765,84.3956153 90.5778681,82.7511565 90.5645699,80.9558153 M79.2323272,64.0083918 C79.3174987,64.7720153 79.4599789,65.4965682 79.296285,66.2566976 C79.1367071,66.9945918 77.925942,67.0222271 77.7863113,66.2566976 C77.6055198,65.2599212 77.9278417,64.4105329 78.3334354,63.5125447 C78.7311135,62.6301212 78.8691609,62.0602624 79.6303219,61.4284624 C79.6882639,61.3795447 79.7677361,61.4259212 79.754438,61.5015212 C79.6167071,62.2835682 79.1443061,63.2203094 79.2323272,64.0083918 M67.1192929,74.3773447 C66.9442005,74.5002741 66.679504,74.3763918 66.6307441,74.1778624 C66.1957045,72.4165094 66.1748074,70.4220035 66.2406649,68.6041094 C66.3201372,66.3951918 67.1664697,64.1834153 67.0056253,61.9725918 C66.9970765,61.84998 67.1968654,61.82298 67.2202955,61.9436859 C67.6914301,64.3647918 67.6464697,66.9860153 67.6933298,69.4636624 C67.725942,71.2011918 68.7977098,73.2099918 67.1192929,74.3773447 M57.1643588,54.5704624 C56.9481055,54.8830271 56.7875778,55.21878 56.6238839,55.5605682 C56.416496,55.9928859 55.9057836,56.8600624 55.3178153,56.4852388 C54.9942269,56.2790859 55.689847,55.1479447 55.7902164,54.9151094 C55.9830396,54.4688153 56.4481583,53.2874859 57.1431451,53.69598 C57.431905,53.8656035 57.314438,54.3525565 57.1643588,54.5704624 M19.71581,21.1212741 C19.4989235,21.4052506 18.8894248,21.4811682 18.8238839,21.0040624 C18.4572348,18.3440859 20.6374987,16.3120976 22.7867335,15.09138 C24.8941741,13.8951212 27.9565488,12.5279682 30.4103747,12.9478976 C30.4752823,12.9593329 30.4774987,13.07178 30.4103747,13.0809918 C25.9317467,13.7061212 22.2776042,17.7577094 19.71581,21.1212741 M74.7894776,8.91790941 C76.0885805,10.3466859 78.8672612,10.6595682 80.6495303,11.0220035 C82.5850449,11.4152506 84.5237256,11.2856506 86.4681055,11.5772506 C89.5529604,12.0394271 93.2659947,12.5432153 95.7704802,14.5586859 C95.8733826,14.6406388 95.7631979,14.8251918 95.6425646,14.7797682 C94.648686,14.4062153 93.6516412,13.9564271 92.6099525,13.7315329 C91.1585541,13.4183329 90.1178153,13.6578388 88.7006121,13.6883329 C86.9658364,13.7261329 85.104095,13.8941682 83.4237784,13.3293918 C80.46019,12.3322976 76.5096887,11.8929918 74.4563905,9.25175647 C74.2755989,9.01860353 74.5798734,8.68761529 74.7894776,8.91790941 M109.529319,29.8629212 C110.460823,30.2942859 111.450586,30.6754624 112.11486,31.49658 C112.685098,32.2020741 112.237393,32.6896624 111.929003,33.3735565 C111.877077,33.4885447 111.697235,33.4059565 111.729847,33.2890624 C112.128475,31.8650506 109.985573,31.6090271 109.084781,31.5108741 C108.237182,31.4184388 107.334807,31.2116506 106.741773,30.5302976 C105.237499,28.8007094 104.694174,26.4971329 103.590744,24.5258153 C103.541668,24.43878 103.637288,24.3447565 103.723726,24.3920859 C104.809741,24.9851329 105.177974,26.4888741 106.019557,27.3636741 C107.057129,28.4433565 108.18019,29.2381094 109.529319,29.8629212 M94.6977625,89.3178741 C94.0496359,86.3885329 93.0798206,83.4582388 93.0681055,79.8853447 C93.0681055,79.8634271 93.0662058,79.8430976 93.0662058,79.82118 C93.0662058,77.5287212 94.0455198,75.2359447 93.3923272,72.6163094 C93.3033562,72.1989212 93.2029868,71.7761329 93.0969182,71.34858 C92.5824063,69.2787918 91.9254142,67.1051329 91.6547018,64.9397329 C91.3678417,62.6415565 91.5179208,60.3529094 92.7391346,58.2075212 C93.1668918,57.3501918 93.8773931,56.1428153 94.7607704,54.9513212 C94.9456781,54.7026035 95.1350185,54.4542035 95.3338575,54.2102506 C97.1012454,51.3774741 100.252274,47.6400388 103.18515,48.7101918 C107.10209,50.3476624 102.205836,56.2422388 103.511272,58.8618741 C104.67581,60.9072035 106.61924,61.3833565 108.183673,60.06798 C108.400876,59.4873212 108.530691,58.8564741 108.616179,58.2078388 C108.818818,56.6621682 108.734913,55.0065918 108.734913,53.6226035 C108.723198,53.4606035 108.715599,53.3090859 108.705784,53.1537565 C108.460401,48.9341329 109.120876,46.9491565 110.980084,42.9023329 C110.993383,42.8727918 111.005098,42.8454741 111.019346,42.8159329 C112.651852,40.1962976 115.589478,34.9563918 114.283092,31.6814506 C113.631166,29.7164859 110.366153,28.7343212 108.734913,27.7518388 C104.817657,25.1318859 107.10209,21.8572624 105.143778,18.2548271 C103.18515,14.9802035 97.9627757,13.6702271 94.6977625,12.3602506 C90.7808232,10.72278 87.1909551,10.3952859 82.946628,10.3952859 C76.7449393,10.3952859 72.1748074,5.81100353 65.9728021,4.82820353 C63.3612982,4.50070941 60.7504274,5.15569765 58.4647282,5.81100353 C53.2423536,7.44783882 48.0199789,6.79316824 42.7966544,8.10314471 C37.5742797,9.41280353 31.6983958,9.41280353 26.8021425,12.0330741 C24.7098997,13.1985212 20.6340158,15.3610624 18.222934,17.8098035 C18.1171821,18.06678 18.03581,18.3243918 17.9886332,18.5823212 C17.3357573,21.8569447 19.9475778,26.1143682 22.5581319,27.4243447 C25.8228285,29.0618153 29.0868918,28.0790153 32.0245172,28.7340035 C36.2153351,29.6351682 37.9307968,33.0127094 34.6648338,35.5878741 C34.4200844,36.6180035 33.5845172,37.6643329 32.0245172,38.5585094 C31.4805594,38.8618624 30.9593984,39.2328741 30.4942797,39.6528035 C29.9560211,41.1327212 30.311905,42.7622506 32.3509551,44.1255918 C35.9417731,46.4180506 38.8793984,44.1255918 39.532591,49.6926741 C40.1848338,55.5875682 34.6363377,64.4295918 43.7759683,67.0492271 C44.7426174,67.2795212 45.4876306,67.2496624 46.0683166,67.0298506 C46.1696359,66.5292388 46.2123799,65.97018 46.2209288,65.38158 C46.2605066,62.76798 45.5487388,59.4974859 45.4129077,57.3638506 C45.3856781,56.9423329 45.3796623,56.5605212 45.4084749,56.2422388 C45.4084749,55.3391682 46.1838839,52.7255682 47.5209815,51.9387565 C48.1862058,50.2333094 49.5077889,48.4617918 51.2837256,50.0201682 C53.5684749,51.6576388 50.3047282,56.8965918 53.5684749,58.8618741 C54.3901108,59.3570859 55.0480528,59.3145212 55.6015092,58.9511329 C56.3110607,57.4616859 56.9148602,55.7610035 57.7716412,55.1365094 C57.8469974,55.0815565 57.9198206,55.0358153 57.9935937,54.9891212 C58.4226174,54.0612741 58.862723,53.2379329 59.4028813,52.8440506 C62.9344908,50.2704741 64.6667335,56.4051918 64.4169182,60.0397094 C64.3032507,61.6924271 63.9828285,63.3279918 63.8147018,64.9775329 C63.6310607,66.7897094 63.3315356,68.5364506 63.0351768,70.3238506 C62.7084222,72.9434859 63.6871029,77.2012271 67.6040422,75.8909329 C67.9038839,75.8242271 68.1609815,75.7244859 68.3962322,75.6072741 C68.633066,74.5536388 68.5960211,73.3513447 68.5865224,72.3034271 C68.5855726,72.1874859 68.5846227,72.0728153 68.5846227,71.9616388 L68.5846227,64.4432506 L68.5846227,63.7746035 C68.3196095,61.9185918 68.4852032,60.7077212 70.1148602,60.3132035 C70.1002955,58.75038 70.7601372,57.8797094 73.1538047,57.8797094 C74.1331187,57.8797094 75.1124327,57.8797094 75.7656253,59.1896859 C77.0710607,60.4996624 76.0917467,63.4467918 76.4175515,65.4117565 C76.6433034,67.4446976 78.1114828,68.5415329 79.4283166,67.8446153 C79.9301636,66.4450624 79.7373404,64.3539918 80.3747018,63.2311094 C80.6210343,62.7994271 80.9851504,62.5059212 81.5645699,62.4570035 C81.8058364,60.7871329 82.3469446,59.5124153 84.9052559,60.4996624 C87.1896887,61.1543329 87.1896887,64.1014624 87.5167599,66.0664271 C87.8428813,69.9963565 87.5167599,73.5987918 87.1896887,77.5280859 C86.8638839,82.4404976 85.5581319,92.9199918 92.0862586,94.8849565 C92.9842005,95.1851329 93.7260475,95.0863447 94.3307968,94.7258153 C94.5543325,94.0895682 94.7044116,93.3901094 94.7917995,92.6881094 C94.9437784,91.4645329 94.9004011,90.2336506 94.6977625,89.3178741" id="Fill-56" fill="#C23F35"></path>
            <path d="M61.5258681,54.5522335 C61.4381636,54.5060066 61.3865541,54.5243707 61.5258681,54.5522335" id="Fill-58" fill="#C23F35"></path>
            <path d="M92.9704591,92.9894929 C96.1563166,91.0559753 93.0461319,85.5352694 91.8584802,83.24154 C90.3063958,80.2442224 92.2621741,77.1357282 92.3653931,74.11554 C92.4293509,72.2252224 91.6203799,70.1478106 90.5685594,68.6189753 C90.4833879,68.4954106 90.2949974,68.5710106 90.3272929,68.7212576 C90.8392718,71.1344224 91.9024908,73.0415753 91.4652348,75.6180106 C91.1489288,77.4857753 90.5511451,79.0200106 90.5644433,80.9557518 C90.5777414,82.7514106 90.6372665,84.3955518 91.0343113,86.1454694 C91.4911979,88.1580812 92.3422797,90.5197871 92.2802216,92.5917988 C92.2697731,92.9402576 92.6778997,93.1670576 92.9704591,92.9894929" id="Fill-60" fill="#FEFEFE"></path>
            <path d="M79.7545646,61.5014894 C79.7678628,61.4258894 79.6883905,61.3795129 79.6301319,61.4287482 C78.868971,62.0602306 78.7312401,62.6300894 78.333562,63.5125129 C77.9276517,64.4105012 77.6056464,65.2598894 77.7861214,66.2566659 C77.9260686,67.0221953 79.1368338,66.99456 79.2964116,66.2566659 C79.4597889,65.4965365 79.3173087,64.7719835 79.2324538,64.0086776 C79.1441161,63.2202776 79.6165172,62.2835365 79.7545646,61.5014894" id="Fill-62" fill="#FEFEFE"></path>
            <path d="M67.2201372,61.9438129 C67.1970237,61.8227894 66.9972348,61.8497894 67.005467,61.9727188 C67.1663113,64.1835424 66.3199789,66.3953188 66.2405066,68.6042365 C66.1746491,70.4218129 66.1958628,72.4166365 66.6309024,74.1779894 C66.6796623,74.3765188 66.9443588,74.5000835 67.1194512,74.3774718 C68.7975515,73.2101188 67.7261003,71.2013188 67.6931715,69.4637894 C67.646628,66.9861424 67.6912718,64.3646012 67.2201372,61.9438129" id="Fill-64" fill="#FEFEFE"></path>
            <path d="M57.1432401,53.6958529 C56.4482533,53.2873588 55.9831346,54.4690059 55.7903113,54.9149824 C55.6896253,55.1478176 54.9943219,56.2792765 55.3175937,56.4851118 C55.9058786,56.8599353 56.416591,55.9927588 56.6236623,55.5604412 C56.7876728,55.2186529 56.9482005,54.8829 57.1641372,54.5703353 C57.314533,54.3524294 57.432,53.8654765 57.1432401,53.6958529" id="Fill-66" fill="#FEFEFE"></path>
            <path d="M103.723567,24.3919906 C103.637446,24.3449788 103.541826,24.4386847 103.590586,24.52572 C104.694016,26.4970376 105.23734,28.8006141 106.741615,30.5302024 C107.334649,31.2118729 108.23734,31.4183435 109.084939,31.5107788 C109.985414,31.6092494 112.128633,31.8649553 111.729689,33.2892847 C111.697393,33.4058612 111.876918,33.4887671 111.928844,33.3734612 C112.237551,32.6895671 112.685256,32.2019788 112.115018,31.4964847 C111.450427,30.6753671 110.460665,30.2941906 109.529478,29.8631435 C108.180032,29.2380141 107.056971,28.4432612 106.019398,27.3635788 C105.178132,26.4890965 104.8099,24.9850376 103.723567,24.3919906" id="Fill-68" fill="#FEFEFE"></path>
            <path d="M83.4238417,13.3292329 C85.1041583,13.8940094 86.9658997,13.7259741 88.7006755,13.6884918 C90.1178786,13.65768 91.1586174,13.4181741 92.6100158,13.7316918 C93.6517045,13.9565859 94.6487493,14.4063741 95.642628,14.7796094 C95.7632612,14.8250329 95.8731293,14.64048 95.7705435,14.5585271 C93.266058,12.5430565 89.5527071,12.0392682 86.4678522,11.5770918 C84.5237889,11.2854918 82.5851082,11.4154094 80.649277,11.0221624 C78.8670079,10.6597271 76.0886438,10.3465271 74.7892243,8.91775059 C74.5796201,8.68745647 74.2753456,9.01844471 74.4564538,9.25191529 C76.509752,11.8931506 80.4602533,12.3321388 83.4238417,13.3292329" id="Fill-70" fill="#FEFEFE"></path>
            <path d="M30.4102797,13.0810871 C30.4774037,13.0718753 30.4751873,12.9591106 30.4102797,12.9479929 C27.9564538,12.5280635 24.8940792,13.8952165 22.7866385,15.0914753 C20.6377203,16.3121929 18.4571398,18.3438635 18.8237889,21.00384 C18.8893298,21.4809459 19.4988285,21.4053459 19.7160317,21.1213694 C22.2775092,17.7578047 25.9316517,13.7062165 30.4102797,13.0810871" id="Fill-72" fill="#FEFEFE"></path>
        </g>
    </g>
</svg>