<?xml version="1.0" encoding="UTF-8"?>
<svg width="120px" height="120px" viewBox="0 0 120 120" version="1.1" xmlns="http://www.w3.org/2000/svg" xmlns:xlink="http://www.w3.org/1999/xlink">
    <!-- Generator: Sketch 51.1 (57501) - http://www.bohemiancoding.com/sketch -->
    <title>Scooter6</title>
    <desc>Created with Sketch.</desc>
    <defs></defs>
    <g id="Scooter6" stroke="none" stroke-width="1" fill="none" fill-rule="evenodd">
        <path d="M59.999101,76.5297521 C59.9826874,76.805206 59.7457173,77.0155153 59.4702781,76.9991009 C59.1943259,76.9821736 58.9840277,76.7451909 59.0009542,76.469737 C59.0173677,76.1942831 59.2543378,75.9844867 59.5297771,76.0009011 C59.8052163,76.0173155 60.0155145,76.2537852 59.999101,76.5297521" id="Fill-161" fill="#522D2D"></path>
        <g id="Group" transform="translate(21.000000, 6.000000)">
            <polygon id="Fill-62" fill="#D0D2D3" points="34.401093 85.2084 38.713093 85.2084 38.713093 8.0406 34.401093 8.0406"></polygon>
            <path d="M16.3163895,0.03033 L6.28937791,6.26193 C5.68591279,6.63633 5.49788953,7.43193 5.8694593,8.04033 L6.67437791,9.35793 C7.05042442,9.97353 7.85444767,10.16073 8.46149419,9.77463 L18.1894593,3.58353 L16.3163895,0.03033 Z" id="Fill-63" fill="#58585B"></path>
            <polygon id="Fill-64" fill="#404042" points="11.0226395 94.2066 12.8957093 94.2066 12.8957093 86.3883 11.0226395 86.3883"></polygon>
            <polygon id="Fill-65" fill="#58585B" points="12.8957093 96.3342 36.269686 96.3342 36.269686 86.4405 12.8957093 86.4405"></polygon>
            <polygon id="Fill-66" fill="#E5E6E7" points="36.2697756 83.85732 11.8374965 83.85732 11.8374965 88.75512 28.0442058 93.33972 36.2697756 93.33972"></polygon>
            <path d="M5.1975,72.59508 C2.70216279,72.59508 0.679569767,74.62818 0.679569767,77.13648 L0.679569767,103.45788 C0.679569767,105.96708 2.70216279,107.99928 5.1975,107.99928 C7.69283721,107.99928 9.71543023,105.96708 9.71543023,103.45788 L9.71543023,77.13648 C9.71543023,74.62818 7.69283721,72.59508 5.1975,72.59508" id="Fill-67" fill="#404042"></path>
            <polygon id="Fill-68" fill="#6C6E70" points="9.71543023 95.6079 11.0226395 95.6079 11.0226395 84.9861 9.71543023 84.9861"></polygon>
            <path d="M5.2976,70.89615 L3.7173093,70.89615 C2.76197209,70.89615 1.98749535,71.67465 1.98749535,72.63585 L1.98749535,80.30205 C1.98749535,83.47995 4.55087907,86.05665 7.71235581,86.05665 L9.29264651,86.05665 C10.2479837,86.05665 11.0233558,85.27815 11.0233558,84.31785 L11.0233558,76.65165 C11.0233558,73.47285 8.45907674,70.89615 5.2976,70.89615" id="Fill-69" fill="#E5E6E7"></path>
            <polygon id="Fill-70" fill="#939597" points="15.2585349 83.8575 34.3966163 83.8575 34.3966163 82.5336 15.2585349 82.5336"></polygon>
            <polygon id="Fill-71" fill="#F0F0F1" points="35.1701977 98.5167 38.713093 98.5167 38.713093 68.4936 35.1701977 68.4936"></polygon>
            <polygon id="Fill-72" fill="#606163" points="36.269686 98.3754 38.713093 98.3754 38.713093 71.8092 36.269686 71.8092"></polygon>
            <polygon id="Fill-73" fill="#E5E6E7" points="38.7127349 10.75392 16.3164791 4.17132 16.3164791 0.03042 38.7127349 2.06802"></polygon>
            <polygon id="Fill-74" fill="#F0F0F1" points="33.7045116 44.5491 38.713093 44.5491 38.713093 40.8654 33.7045116 40.8654"></polygon>
            <polygon id="Fill-75" fill="#BFC0C1" points="38.713093 85.2084 43.025093 85.2084 43.025093 8.0406 38.713093 8.0406"></polygon>
            <path d="M61.1087221,0.03033 L71.1357337,6.26193 C71.7391988,6.63633 71.9272221,7.43193 71.5565477,8.04033 L70.7516291,9.35793 C70.3755826,9.97353 69.5715593,10.16073 68.9645128,9.77463 L59.2356523,3.58353 L61.1087221,0.03033 Z" id="Fill-76" fill="#474749"></path>
            <polygon id="Fill-77" fill="#2F2E2F" points="64.5295814 94.2066 66.4035465 94.2066 66.4035465 86.3883 64.5295814 86.3883"></polygon>
            <polygon id="Fill-78" fill="#474749" points="41.1565 96.3342 64.5295814 96.3342 64.5295814 86.4405 41.1565 86.4405"></polygon>
            <polygon id="Fill-79" fill="#D3D4D5" points="41.1561419 83.85732 65.5884209 83.85732 65.5884209 88.75512 49.3817116 93.33972 41.1561419 93.33972"></polygon>
            <path d="M72.2280593,72.59508 C74.7233965,72.59508 76.7459895,74.62818 76.7459895,77.13648 L76.7459895,103.45788 C76.7459895,105.96708 74.7233965,107.99928 72.2280593,107.99928 C69.7327221,107.99928 67.7101291,105.96708 67.7101291,103.45788 L67.7101291,77.13648 C67.7101291,74.62818 69.7327221,72.59508 72.2280593,72.59508" id="Fill-80" fill="#2F2E2F"></path>
            <polygon id="Fill-81" fill="#5B5C5F" points="66.4026512 95.6079 67.7098605 95.6079 67.7098605 84.9861 66.4026512 84.9861"></polygon>
            <path d="M72.1283174,70.89615 L73.7086081,70.89615 C74.6639453,70.89615 75.4384221,71.67465 75.4384221,72.63585 L75.4384221,80.30205 C75.4384221,83.47995 72.8750384,86.05665 69.7135616,86.05665 L68.1323756,86.05665 C67.1779337,86.05665 66.4025616,85.27815 66.4025616,84.31785 L66.4025616,76.65165 C66.4025616,73.47285 68.9659453,70.89615 72.1283174,70.89615" id="Fill-82" fill="#D3D4D5"></path>
            <polygon id="Fill-83" fill="#818385" points="43.0286744 83.8575 62.1676512 83.8575 62.1676512 82.5336 43.0286744 82.5336"></polygon>
            <polygon id="Fill-84" fill="#DEDFDF" points="38.713093 98.5167 42.2559884 98.5167 42.2559884 68.4936 38.713093 68.4936"></polygon>
            <polygon id="Fill-85" fill="#4E5052" points="38.713093 98.3754 41.1565 98.3754 41.1565 71.8092 38.713093 71.8092"></polygon>
            <polygon id="Fill-86" fill="#D3D4D5" points="38.7127349 10.75392 61.1089907 4.17132 61.1089907 0.03042 38.7127349 2.06802"></polygon>
            <polygon id="Fill-87" fill="#DEDFDF" points="38.713093 44.5491 43.7216744 44.5491 43.7216744 40.8654 38.713093 40.8654"></polygon>
        </g>
    </g>
</svg>