<?xml version="1.0" encoding="UTF-8"?>
<svg width="120px" height="120px" viewBox="0 0 120 120" version="1.1" xmlns="http://www.w3.org/2000/svg" xmlns:xlink="http://www.w3.org/1999/xlink">
    <!-- Generator: Sketch 51.1 (57501) - http://www.bohemiancoding.com/sketch -->
    <title>Eggbeater1</title>
    <desc>Created with Sketch.</desc>
    <defs></defs>
    <g id="Eggbeater1" stroke="none" stroke-width="1" fill="none" fill-rule="evenodd">
        <g id="Group" transform="translate(0.000000, 44.000000)">
            <path d="M60.8472103,11.9078112 C60.8472103,11.9078112 59.5977682,14.0178541 61.4657511,16.5378541 L63.1740773,16.152618 L62.9618884,12.2327897 L60.8472103,11.9078112" id="Fill-698" fill="#626867"></path>
            <path d="M110.683262,9.12927039 C111.208584,11.51897 109.900429,13.7376824 108.206009,15.5083262 C114.278112,14.7826609 120.793133,12.7982833 119.577682,6.8976824 C118.032618,-0.576824034 110.925322,-0.223519313 105.244635,0.98832618 C107.345923,2.91656652 109.967382,5.86918455 110.683262,9.12927039" id="Fill-699" fill="#E8B067"></path>
            <path d="M110.683262,9.12927039 C109.967382,5.86918455 107.345923,2.91656652 105.244635,0.98832618 C103.467811,1.36635193 101.835193,1.82781116 100.55279,2.16154506 C100.166524,2.26300429 99.6412017,2.39536481 99.0180258,2.55347639 C100.887554,4.44103004 102.870386,6.98523605 103.478112,9.75296137 C103.987983,12.0648927 102.777682,14.2176824 101.170815,15.9584549 C102.973391,15.9018026 105.543348,15.8260944 108.206009,15.5083262 C109.900429,13.7376824 111.208584,11.51897 110.683262,9.12927039" id="Fill-700" fill="#E7AC3B"></path>
            <path d="M103.478112,9.75296137 C102.870386,6.98523605 100.887554,4.44103004 99.0180258,2.55347639 C90.9682403,4.58935622 65.0281545,10.9241202 65.0281545,10.9241202 L65.4108155,16.7845494 C65.4108155,16.7845494 95.9381974,16.4188841 99.1004292,16.0599142 C99.527897,16.0109871 100.248927,15.9867811 101.170815,15.9584549 C102.777682,14.2176824 103.987983,12.0648927 103.478112,9.75296137" id="Fill-701" fill="#E8B067"></path>
            <path d="M65.4108155,16.7845494 C64.7109013,16.8309013 64.0588841,15.5557082 63.9533047,13.9369957 C63.8466953,12.3193133 64.3282403,10.9699571 65.0281545,10.9241202 C65.7270386,10.8782833 66.3806009,12.1534764 66.4861803,13.7721888 C66.5922747,15.3898712 66.1096996,16.7402575 65.4108155,16.7845494" id="Fill-702" fill="#C99B5D"></path>
            <path d="M64.5054077,13.3998283 C61.5630901,12.7096996 18.4032618,2.8006867 6.66437768,11.4164807 C4.89527897,12.7143348 3.92806867,14.3979399 3.78901288,16.4183691 C3.71845494,17.4437768 3.80909871,18.3749356 4.05579399,19.1840343 C6.07261803,25.7891845 18.9249785,25.7371674 43.3483262,19.0259227 C44.0894421,18.8235193 60.624721,14.3078112 64.7773391,13.9256652 L64.5054077,13.3998283 Z M3.39038627,19.3884979 L3.39038627,19.3879828 C3.11845494,18.4959657 3.01905579,17.4808584 3.09527897,16.3709871 C3.24927039,14.136824 4.31124464,12.2812017 6.25390558,10.8556223 C18.6061803,1.79021459 62.9418026,12.3069528 64.8226609,12.7596567 C64.92103,12.7843777 65.0044635,12.8492704 65.0503004,12.9388841 L65.6451502,14.0915021 C65.6992275,14.2006867 65.6966524,14.3325322 65.6302146,14.4370815 C65.5632618,14.5406009 65.4463519,14.6018884 65.3222318,14.5972532 C62.5864378,14.4921888 43.7227468,19.6439485 43.5327039,19.6964807 C18.3265236,26.6224893 5.5704721,26.5246352 3.39038627,19.3884979 Z" id="Fill-703" fill="#828786"></path>
            <path d="M54.4604292,13.8885837 C38.9129614,13.56 9.39244635,13.4616309 5.37785408,17.2846352 C5.13012876,17.52103 5.00858369,17.7538197 5.00652361,17.9953648 C5.00549356,18.1292704 5.02248927,18.2544206 5.05699571,18.3682403 C5.89493562,21.1158798 16.8437768,19.3400858 29.5236052,17.2836052 C37.4848069,15.9924464 46.2066953,14.5771674 54.4604292,13.8885837 Z M4.39158798,18.5716738 L4.39158798,18.5711588 C4.33648069,18.3888412 4.30969957,18.1936481 4.31124464,17.9902146 C4.31484979,17.5555365 4.51261803,17.1481545 4.89888412,16.7804292 C10.5677253,11.3814592 61.824721,13.3781974 64.0042918,13.4652361 C64.1948498,13.4729614 64.344721,13.6290129 64.3380258,13.8195708 C64.3344206,14.0101288 64.1799142,14.16103 63.9903863,14.16103 C53.3067811,14.1306438 40.7309871,16.1706438 29.6348498,17.9701288 C15.5706438,20.2511588 5.40772532,21.8987124 4.39158798,18.5716738 Z" id="Fill-704" fill="#6E7574"></path>
            <path d="M62.8176824,14.1615451 C54.0432618,12.7071245 23.8650644,8.41905579 7.18145923,15.0396567 C4.09081545,16.2659227 4.1593133,16.8087554 4.16137339,16.8144206 C4.31124464,17.3072961 6.98008584,18.7534764 34.9900429,16.655794 C46.4333047,15.8003433 57.9069528,14.664721 62.8176824,14.1615451 Z M3.49545064,17.0173391 C3.25390558,16.2272961 4.28034335,15.4424034 6.9239485,14.3927897 C26.6837768,6.552103 65.0173391,13.8339914 65.4025751,13.9076395 C65.5715021,13.9421459 65.6915021,14.0925322 65.6832618,14.2650644 C65.6760515,14.4370815 65.543691,14.5781974 65.3727039,14.5962232 C65.2228326,14.6121888 50.1054077,16.223176 35.0425751,17.3505579 C4.30042918,19.6511588 3.71484979,17.7378541 3.49545064,17.0173391 Z" id="Fill-705" fill="#6E7574"></path>
            <g id="Group-709" transform="translate(0.000000, 0.515021)">
                <path d="M62.6698712,14.4324464 C54.743176,11.544721 17.5761373,-1.28755365 6.04429185,7.54660944 C3.40841202,9.56600858 2.28772532,12.6406867 2.71467811,16.6866953 C2.83570815,17.8449785 3.04892704,18.9254936 3.3455794,19.9004292 L3.34660944,19.9030043 C4.24892704,22.8566524 5.99433476,24.9909013 8.53287554,26.2449785 C17.2125322,30.5330472 33.7328755,24.3713305 47.0060086,19.4214592 C53.3819742,17.0425751 59.0116738,14.9443777 62.6698712,14.4324464 Z M2.68171674,20.1059227 L2.6806867,20.1038627 C2.37064378,19.0877253 2.14918455,17.9618884 2.02197425,16.7593133 C1.56927039,12.455794 2.77957082,9.16995708 5.62094421,6.99347639 C18.8003433,-3.09939914 62.5560515,13.6207725 64.4121888,14.3371674 C64.5687554,14.3979399 64.6614592,14.5612017 64.6279828,14.7280687 C64.5960515,14.8928755 64.4503004,15.0118455 64.2818884,15.0092704 C60.9419742,14.9660086 54.5963948,17.3325322 47.2490987,20.0729614 C33.8503004,25.0702146 17.1739056,31.2885837 8.22540773,26.8686695 C5.50712446,25.5260086 3.64120172,23.2506438 2.68171674,20.1059227 Z" id="Fill-706" fill="#8B908F"></path>
                <path d="M64.5285837,13.753133 C35.926867,0.924463519 15.1138197,-2.51948498 5.88360515,4.06145923 C2.15587983,6.71793991 0.452188841,11.0193991 0.958454936,16.5002575 C1.10935622,18.1369957 1.39519313,19.6496137 1.8072103,20.9963948 C4.43381974,29.6008584 12.1261803,32.2527039 25.3236052,29.1069528 C40.8164807,25.4137339 60.7071245,15.6648927 64.5285837,13.753133 Z M1.14180258,21.1998283 C0.716909871,19.8072103 0.421287554,18.2477253 0.266266094,16.5641202 C-0.26472103,10.823691 1.53888412,6.30386266 5.48034335,3.49390558 C14.9907296,-3.28583691 36.2997425,0.237939914 65.4793133,13.4178541 C65.6013734,13.4734764 65.6812017,13.5939914 65.6837768,13.7263519 C65.6863519,13.8607725 65.6137339,13.9838627 65.4947639,14.0451502 C65.2681545,14.16103 42.6932189,25.6820601 25.4837768,29.783691 C12.0494421,32.9866094 3.85957082,30.0993991 1.14180258,21.1998283 Z" id="Fill-708" fill="#959A99"></path>
            </g>
            <path d="M65.3938197,16.1227468 C66.0638627,15.3970815 66.2250644,14.3799142 65.8593991,13.1814592 C65.6281545,12.4248927 65.2681545,11.8650644 65.2527039,11.8418884 C65.1919313,11.7481545 65.0894421,11.6894421 64.9781974,11.6842918 L61.223176,11.4973391 C61.0825751,11.4896137 60.9512446,11.568412 60.8915021,11.6966524 C60.8317597,11.8254077 60.8549356,11.975794 60.9512446,12.0798283 C61.3138197,12.4733047 61.5754506,12.9249785 61.727382,13.4204292 C62.1780258,14.8975107 61.5311588,16.3400858 61.5234335,16.3534764 C61.487897,16.4333047 61.4837768,16.5213734 61.5079828,16.6012017 C61.5198283,16.6403433 61.5399142,16.6784549 61.5661803,16.7134764 C61.6460086,16.8154506 61.776309,16.8648927 61.9040343,16.8422318 L65.2017167,16.2278112 C65.2753648,16.2144206 65.3433476,16.1778541 65.3938197,16.1227468" id="Fill-710" fill="#6E7574"></path>
            <path d="M64.223176,16.4348498 L65.0085837,16.2885837 C65.7218884,14.3248069 65.0188841,12.5974249 64.487897,11.687382 L63.6252361,11.6451502 C64.1634335,12.5109013 65.0013734,14.3423176 64.223176,16.4348498" id="Fill-711" fill="#676D6C"></path>
            <path d="M65.0085837,16.2885837 L65.1872961,16.2551073 C65.2604292,16.2417167 65.328412,16.2046352 65.3793991,16.1500429 C66.0499571,15.4243777 66.2106438,14.4066953 65.8454936,13.2087554 C65.6137339,12.4521888 65.2527039,11.8923605 65.2377682,11.8686695 C65.1780258,11.7754506 65.0750215,11.7162232 64.9642918,11.7105579 L64.487897,11.687382 C65.0188841,12.5974249 65.7218884,14.3248069 65.0085837,16.2885837" id="Fill-712" fill="#626867"></path>
            <path d="M61.8659227,11.5570815 L61.2092704,11.5241202 C61.0676395,11.5179399 60.936309,11.5957082 60.8765665,11.7239485 C60.8173391,11.8521888 60.84103,12.0030901 60.936309,12.1066094 C61.2983691,12.5006009 61.56103,12.9522747 61.7119313,13.4477253 C62.1630901,14.9242918 61.5162232,16.367382 61.5095279,16.3807725 C61.4734764,16.4600858 61.4688412,16.5486695 61.4930472,16.6284979 C61.5059227,16.6681545 61.5254936,16.7057511 61.5522747,16.7402575 C61.631588,16.8427468 61.7618884,16.8921888 61.8896137,16.8690129 L62.5076395,16.7541631 C63.5021459,14.3969099 62.3938197,12.3383691 61.8659227,11.5570815" id="Fill-713" fill="#737977"></path>
            <path d="M63.6252361,11.6451502 L62.6966524,11.5977682 C63.2121888,12.3615451 64.2607725,14.3196567 63.4140773,16.5852361 L64.223176,16.4348498 C65.0013734,14.3423176 64.1634335,12.5109013 63.6252361,11.6451502" id="Fill-714" fill="#6E7574"></path>
            <path d="M62.6966524,11.5977682 L61.8659227,11.5570815 C62.3938197,12.3383691 63.5021459,14.3969099 62.5076395,16.7541631 L63.4140773,16.5852361 C64.2607725,14.3196567 63.2121888,12.3615451 62.6966524,11.5977682" id="Fill-715" fill="#737977"></path>
        </g>
    </g>
</svg>