<?xml version="1.0" encoding="UTF-8"?>
<svg width="120px" height="120px" viewBox="0 0 120 120" version="1.1" xmlns="http://www.w3.org/2000/svg" xmlns:xlink="http://www.w3.org/1999/xlink">
    <!-- Generator: Sketch 51.1 (57501) - http://www.bohemiancoding.com/sketch -->
    <title>Temple1</title>
    <desc>Created with Sketch.</desc>
    <defs>
        <polygon id="path-1" points="0 119.333333 90.7377059 119.333333 90.7377059 0.214 0 0.214"></polygon>
    </defs>
    <g id="Temple1" stroke="none" stroke-width="1" fill="none" fill-rule="evenodd">
        <g id="Page-1" transform="translate(15.000000, 0.000000)">
            <polygon id="Fill-1" fill="#FFBBA6" points="80.3471118 90.2514667 49.328825 90.2514667 50.6871338 79.0674667 78.9888029 79.0674667"></polygon>
            <polygon id="Fill-2" fill="#FFBBA6" points="79.9439015 97.602 49.9085485 97.602 48.5502397 90.2513333 81.3028794 90.2513333"></polygon>
            <g id="Group-47" transform="translate(0.000000, 0.452667)">
                <path d="M90.7373713,103.5784 L39.115614,103.5784 L39.115614,102.661733 C39.115614,99.6170667 41.5920184,97.1490667 44.6478787,97.1490667 L85.2051066,97.1490667 C88.2602978,97.1490667 90.7373713,99.6170667 90.7373713,102.661733 L90.7373713,103.5784 Z" id="Fill-3" fill="#FF5314"></path>
                <path d="M48.5503066,89.7988 L81.3029463,89.7988 L81.3029463,90.3294667 C81.3029463,92.0921333 79.8683581,93.5208 78.0998801,93.5208 L51.7533728,93.5208 C49.9842257,93.5208 48.5503066,92.0921333 48.5503066,90.3294667 L48.5503066,89.7988 Z" id="Fill-5" fill="#FF5314"></path>
                <path d="M81.3027456,79.1591333 L48.5501059,79.1591333 L48.5501059,78.6898 C48.5501059,77.1331333 49.8167456,75.8704667 51.3798044,75.8704667 L78.4730471,75.8704667 C80.0354368,75.8704667 81.3027456,77.1331333 81.3027456,78.6898 L81.3027456,79.1591333 Z" id="Fill-7" fill="#FF5314"></path>
                <mask id="mask-2" fill="white">
                    <use xlink:href="#path-1"></use>
                </mask>
                <g id="Clip-10"></g>
                <polygon id="Fill-9" fill="#D77E17" mask="url(#mask-2)" points="48.0727574 89.7986667 81.7802279 89.7986667 81.7802279 89.044 48.0727574 89.044"></polygon>
                <polygon id="Fill-11" fill="#D77E17" mask="url(#mask-2)" points="48.0727574 86.9506667 81.7802279 86.9506667 81.7802279 86.196 48.0727574 86.196"></polygon>
                <polygon id="Fill-12" fill="#D77E17" mask="url(#mask-2)" points="48.0727574 84.1026667 81.7802279 84.1026667 81.7802279 83.348 48.0727574 83.348"></polygon>
                <polygon id="Fill-13" fill="#D77E17" mask="url(#mask-2)" points="48.0727574 81.2546667 81.7802279 81.2546667 81.7802279 80.4993333 48.0727574 80.4993333"></polygon>
                <polygon id="Fill-14" fill="#D77E17" mask="url(#mask-2)" points="51.8191471 75.8706667 77.2904485 75.8706667 77.2904485 74.6473333 51.8191471 74.6473333"></polygon>
                <path d="M74.5854066,74.6474 L54.5232522,74.6474 C53.6299801,74.6474 52.9675537,73.8314 53.1555757,72.9614 C53.7176346,70.3614 56.012039,65.0900667 55.8059507,59.5367333 C55.6165904,54.4287333 59.7115904,50.2814 64.5299066,50.2814 C69.3482228,50.2814 73.6740684,54.4420667 73.2545316,59.5367333 C72.9126125,63.6854 75.372289,70.0174 75.9597743,72.9934 C76.129061,73.8534 75.4646272,74.6474 74.5854066,74.6474" id="Fill-15" fill="#FFBBA6" mask="url(#mask-2)"></path>
                <path d="M68.403964,52.2020667 L60.8195154,52.2020667 L60.8195154,43.8660667 C60.8195154,43.1747333 61.3815743,42.6147333 62.0747801,42.6147333 L67.1480301,42.6147333 C67.8419051,42.6147333 68.403964,43.1747333 68.403964,43.8660667 L68.403964,52.2020667 Z" id="Fill-16" fill="#FFBBA6" mask="url(#mask-2)"></path>
                <path d="M67.3614118,43.5497333 L61.7575515,43.5497333 L61.7575515,35.1177333 C61.7575515,34.4797333 62.2767868,33.9624 62.9171324,33.9624 L66.2025,33.9624 C66.8428456,33.9624 67.3614118,34.4797333 67.3614118,35.1177333 L67.3614118,43.5497333 Z" id="Fill-17" fill="#FFBBA6" mask="url(#mask-2)"></path>
                <polygon id="Fill-18" fill="#FFBBA6" mask="url(#mask-2)" points="63.0977941 34.144 65.8993897 34.144 65.8993897 22.8193333 63.0977941 22.8193333"></polygon>
                <polygon id="Fill-19" fill="#FF5314" mask="url(#mask-2)" points="66.9729221 27.9319333 62.0241279 27.9319333 64.498525 6.2306"></polygon>
                <polygon id="Fill-20" fill="#D77E17" mask="url(#mask-2)" points="61.7575515 42.6206667 67.3614118 42.6206667 67.3614118 42.276 61.7575515 42.276"></polygon>
                <polygon id="Fill-21" fill="#D77E17" mask="url(#mask-2)" points="61.7575515 41.958 67.3614118 41.958 67.3614118 41.6133333 61.7575515 41.6133333"></polygon>
                <polygon id="Fill-22" fill="#D77E17" mask="url(#mask-2)" points="63.0977941 33.9626667 65.8993897 33.9626667 65.8993897 33.618 63.0977941 33.618"></polygon>
                <polygon id="Fill-23" fill="#D77E17" mask="url(#mask-2)" points="63.0977941 33.2873333 65.8993897 33.2873333 65.8993897 32.9426667 63.0977941 32.9426667"></polygon>
                <polygon id="Fill-24" fill="#D77E17" mask="url(#mask-2)" points="60.8522353 51.0973333 68.4038971 51.0973333 68.4038971 50.7526667 60.8522353 50.7526667"></polygon>
                <polygon id="Fill-25" fill="#D77E17" mask="url(#mask-2)" points="60.8522353 50.4533333 68.4038971 50.4533333 68.4038971 50.1086667 60.8522353 50.1086667"></polygon>
                <polygon id="Fill-26" fill="#FFBBA6" mask="url(#mask-2)" points="50.4530765 102.471933 12.4973779 102.471933 14.1594662 88.7866 48.7909882 88.7866"></polygon>
                <polygon id="Fill-27" fill="#FFBBA6" mask="url(#mask-2)" points="49.959736 111.4664 13.207111 111.4664 11.5450228 102.471733 51.6218243 102.471733"></polygon>
                <path d="M63.1669809,119.333267 L0.000267647059,119.333267 L0.000267647059,118.211267 C0.000267647059,114.485933 3.03070147,111.4666 6.76973088,111.4666 L56.3975176,111.4666 C60.1358779,111.4666 63.1669809,114.485933 63.1669809,118.211267 L63.1669809,119.333267 Z" id="Fill-28" fill="#FF5314" mask="url(#mask-2)"></path>
                <path d="M11.5449559,102.471933 L51.6224265,102.471933 L51.6224265,103.121933 C51.6224265,105.277933 49.8673309,107.0266 47.7027353,107.0266 L15.4639779,107.0266 C13.2993824,107.0266 11.5449559,105.277933 11.5449559,103.121933 L11.5449559,102.471933 Z" id="Fill-29" fill="#FF5314" mask="url(#mask-2)"></path>
                <path d="M51.6220919,89.4527333 L11.5446213,89.4527333 L11.5446213,88.5507333 C11.5446213,86.8267333 12.947761,85.4287333 14.6780993,85.4287333 L48.488614,85.4287333 C50.2189522,85.4287333 51.6220919,86.8267333 51.6220919,88.5507333 L51.6220919,89.4527333 Z" id="Fill-30" fill="#FF5314" mask="url(#mask-2)"></path>
                <polygon id="Fill-31" fill="#D77E17" mask="url(#mask-2)" points="10.9608162 102.472 52.2065662 102.472 52.2065662 101.548 10.9608162 101.548"></polygon>
                <polygon id="Fill-32" fill="#D77E17" mask="url(#mask-2)" points="10.9608162 98.9873333 52.2065662 98.9873333 52.2065662 98.0633333 10.9608162 98.0633333"></polygon>
                <polygon id="Fill-33" fill="#D77E17" mask="url(#mask-2)" points="10.9608162 95.502 52.2065662 95.502 52.2065662 94.578 10.9608162 94.578"></polygon>
                <polygon id="Fill-34" fill="#D77E17" mask="url(#mask-2)" points="10.9608162 92.0173333 52.2065662 92.0173333 52.2065662 91.0933333 10.9608162 91.0933333"></polygon>
                <polygon id="Fill-35" fill="#D77E17" mask="url(#mask-2)" points="15.5449412 85.4286667 46.7131103 85.4286667 46.7131103 83.932 15.5449412 83.932"></polygon>
                <path d="M43.4028515,83.9322 L18.8535941,83.9322 C17.760925,83.9322 16.9499544,82.9335333 17.1808,81.8688667 C17.8686529,78.6875333 20.6749324,72.2368667 20.4233441,65.4422 C20.1918294,59.1915333 25.2028515,54.1162 31.0984471,54.1162 C36.9940426,54.1162 42.2881015,59.2082 41.77355,65.4422 C41.3553515,70.5182 44.3650426,78.2662 45.0843441,81.9075333 C45.2917706,82.9602 44.4787926,83.9322 43.4028515,83.9322" id="Fill-36" fill="#FFBBA6" mask="url(#mask-2)"></path>
                <path d="M35.8386772,56.4667333 L26.5573463,56.4667333 L26.5573463,45.9867333 C26.5573463,45.2954 27.1200743,44.7354 27.8132801,44.7354 L34.5834125,44.7354 C35.2766184,44.7354 35.8386772,45.2954 35.8386772,45.9867333 L35.8386772,56.4667333 Z" id="Fill-37" fill="#FFBBA6" mask="url(#mask-2)"></path>
                <path d="M34.5632051,45.8798 L27.7060875,45.8798 L27.7060875,35.3031333 C27.7060875,34.6658 28.2253228,34.1484667 28.8649993,34.1484667 L33.4042934,34.1484667 C34.044639,34.1484667 34.5632051,34.6658 34.5632051,35.3031333 L34.5632051,45.8798 Z" id="Fill-38" fill="#FFBBA6" mask="url(#mask-2)"></path>
                <polygon id="Fill-39" fill="#FFBBA6" mask="url(#mask-2)" points="29.3454926 34.3706667 32.7740515 34.3706667 32.7740515 20.5133333 29.3454926 20.5133333"></polygon>
                <polygon id="Fill-40" fill="#FF5314" mask="url(#mask-2)" points="34.0874625 26.7688 28.0319478 26.7688 31.0597051 0.214133333"></polygon>
                <polygon id="Fill-41" fill="#D77E17" mask="url(#mask-2)" points="27.7061544 44.7426667 34.5632721 44.7426667 34.5632721 44.3213333 27.7061544 44.3213333"></polygon>
                <polygon id="Fill-42" fill="#D77E17" mask="url(#mask-2)" points="27.7061544 43.932 34.5632721 43.932 34.5632721 43.5106667 27.7061544 43.5106667"></polygon>
                <polygon id="Fill-43" fill="#D77E17" mask="url(#mask-2)" points="29.3454926 34.1486667 32.7740515 34.1486667 32.7740515 33.7273333 29.3454926 33.7273333"></polygon>
                <polygon id="Fill-44" fill="#D77E17" mask="url(#mask-2)" points="29.3454926 33.322 32.7740515 33.322 32.7740515 32.9 29.3454926 32.9"></polygon>
                <polygon id="Fill-45" fill="#D77E17" mask="url(#mask-2)" points="26.5980956 55.1153333 35.8386103 55.1153333 35.8386103 54.694 26.5980956 54.694"></polygon>
                <polygon id="Fill-46" fill="#D77E17" mask="url(#mask-2)" points="26.5980956 54.3273333 35.8386103 54.3273333 35.8386103 53.906 26.5980956 53.906"></polygon>
            </g>
        </g>
    </g>
</svg>