<?xml version="1.0" encoding="UTF-8"?>
<svg width="120px" height="120px" viewBox="0 0 120 120" version="1.1" xmlns="http://www.w3.org/2000/svg" xmlns:xlink="http://www.w3.org/1999/xlink">
    <!-- Generator: Sketch 48.2 (47327) - http://www.bohemiancoding.com/sketch -->
    <title>Cello</title>
    <desc>Created with Sketch.</desc>
    <defs></defs>
    <g id="ALL" stroke="none" stroke-width="1" fill="none" fill-rule="evenodd">
        <g id="Cello">
            <g id="Page-1">
                <g id="Group-3" transform="translate(0.000000, 27.649686)" fill="#F7B018">
                    <path d="M81.009,10.0477451 L80.9726842,10.0880784 C73.2200526,3.68219608 68.1421579,0.651660131 62.2550526,0.651660131 C58.7379474,0.651660131 54.954,1.73591503 51.0634737,4.58930065 C48.8671579,6.19630719 45.3342632,8.61235294 41.1105789,11.5487778 C46.1284737,17.1179412 42.7882105,22.7812157 37.2405789,28.340098 C33.5829474,31.9993595 29.8811053,34.7364902 26.1918947,34.7364902 C24.1076842,34.7364902 22.0234737,33.8665556 19.9558421,31.7905752 C18.9832105,30.8217843 18.3571579,29.8435033 17.889,28.8652222 C14.4129474,31.7454967 11.0947895,34.6732222 8.21478947,37.5527059 C-5.08547368,50.8769412 -1.27468421,67.1621176 12.7558421,80.5448758 C20.4500526,88.619451 29.094,93.3202614 37.5753158,93.3202614 C43.8429474,93.3202614 50.0284737,90.7571176 55.6716316,85.0962157 C58.5579474,82.206451 61.4868947,78.9006993 64.3708421,75.4138431 C63.3847895,74.9290523 62.409,74.3082353 61.4316316,73.3307451 C55.704,67.6002484 59.1618947,61.7550784 64.8863684,56.0261634 C68.5297895,52.3756013 72.219,49.6724771 75.8987368,49.6724771 C77.8424211,49.6724771 79.7774211,50.4285294 81.7124211,52.2000327 C84.6453158,47.9966667 87.0753158,44.4504967 88.6747895,42.2582614 C96.3121579,31.8056013 91.2224211,22.0425621 81.009,10.0477451" id="Fill-1"></path>
                </g>
                <polygon id="Fill-4" fill="#3C323F" points="41.8467632 87.9859013 33.0086053 79.1449928 16.1857105 98.3523588 22.5946579 104.900594"></polygon>
                <path d="M102.200605,14.0538732 L97.5269211,9.37046144 C96.0790263,7.92320654 93.7382368,7.92320654 92.2919211,9.37046144 C90.8440263,10.8169255 90.8440263,13.1681216 92.2919211,14.6193307 L96.6948158,19.0306902 L94.8963947,20.6543046 L90.5732368,16.3267752 C89.1308684,14.8803111 86.7892895,14.8803111 85.3390263,16.3267752 C83.8958684,17.7740301 83.8958684,20.1244353 85.3390263,21.5764353 L89.3882368,25.628749 L55.9350789,55.8281346 L64.9382368,64.8517294 L74.6156053,54.2946771 L95.1837632,31.4351673 L99.2250789,35.4843176 C99.9537632,36.2087359 100.899553,36.5685725 101.847711,36.5685725 C102.798237,36.5685725 103.743237,36.2087359 104.460868,35.4843176 C105.908763,34.0370627 105.908763,31.6866575 104.460868,30.2346575 L100.152711,25.9166183 L101.776658,24.119017 L106.179553,28.5272131 C106.898763,29.2516314 107.843763,29.6122588 108.792711,29.6122588 C109.740868,29.6122588 110.685868,29.2516314 111.405079,28.5272131 C112.851395,27.080749 112.851395,24.7295529 111.405079,23.2783438 L106.739289,18.5980954 L108.563763,16.569566 L104.206658,12.2444092 L102.200605,14.0538732 Z" id="Fill-6" fill="#3C323F"></path>
                <g id="Group-10" transform="translate(102.631579, 0.760797)" fill="#F7B018">
                    <path d="M13.1450526,15.5435967 C15.1755789,13.5079497 11.9387368,9.2175902 17.3371579,3.80106078 L13.5650526,0.0302895425 C8.02452632,5.59549869 3.90031579,2.18140065 1.84689474,4.22811961 C-0.096,6.1846817 -0.159157895,9.34096275 1.63057895,11.433551 L1.57531579,11.4833745 L5.93163158,15.8085314 L5.96163158,15.7745248 C8.05452632,17.5563092 11.2100526,17.4867144 13.1450526,15.5435967" id="Fill-8"></path>
                </g>
                <polygon id="Fill-11" fill="#000000" points="65.0313947 64.9447333 74.6156053 54.2943608 64.9382368 64.8522039"></polygon>
                <polygon id="Fill-13" fill="#3C323F" points="58.5575526 76.1618288 45.4996579 62.7205477 46.8409737 61.4156458 59.8957105 74.8561359"></polygon>
                <polygon id="Fill-15" fill="#3C323F" points="55.1652632 79.5121052 42.1089474 66.0708242 43.4486842 64.7659222 56.5042105 78.2064124"></polygon>
                <polygon id="Fill-17" fill="#3C323F" points="51.5000526 82.8693412 38.4429474 69.4280601 39.7834737 68.1231582 52.8382105 81.5636484"></polygon>
            </g>
        </g>
    </g>
</svg>