<?xml version="1.0" encoding="UTF-8"?>
<svg width="120px" height="120px" viewBox="0 0 120 120" version="1.1" xmlns="http://www.w3.org/2000/svg" xmlns:xlink="http://www.w3.org/1999/xlink">
    <!-- Generator: Sketch 51.1 (57501) - http://www.bohemiancoding.com/sketch -->
    <title>Green button17</title>
    <desc>Created with Sketch.</desc>
    <defs>
        <polygon id="path-1" points="0 8.08003932e-05 119.999873 8.08003932e-05 119.999873 120 0 120"></polygon>
        <polygon id="path-3" points="0.000139195803 0.9173 110.2124 0.9173 110.2124 111 0.000139195803 111"></polygon>
    </defs>
    <g id="Green-button17" stroke="none" stroke-width="1" fill="none" fill-rule="evenodd">
        <g id="Page-1">
            <g id="Group-3">
                <mask id="mask-2" fill="white">
                    <use xlink:href="#path-1"></use>
                </mask>
                <g id="Clip-2"></g>
                <path d="M81.7967,118.1251 C70.8987,120.6251 49.1017,120.6251 38.2027,118.1251 C18.6477,113.6401 6.3197,101.3611 1.8747,81.7971 C-0.6373,70.7411 -0.6133,48.9461 1.8747,38.2031 C6.4017,18.6571 18.6597,6.4151 38.2027,1.8751 C48.8957,-0.6089 70.6897,-0.6409 81.7967,1.8751 C101.3637,6.3081 113.4717,18.6871 118.1247,38.2031 C120.5767,48.4881 120.6727,70.2611 118.1247,81.7971 C113.7977,101.3881 101.3517,113.6401 81.7967,118.1251" id="Fill-1" fill="#62D31A" mask="url(#mask-2)"></path>
            </g>
            <g id="Group-6" transform="translate(0.000000, 9.000000)">
                <mask id="mask-4" fill="white">
                    <use xlink:href="#path-3"></use>
                </mask>
                <g id="Clip-5"></g>
                <path d="M91.6404,99.2813 C80.7424,101.7813 58.9454,101.7813 48.0464,99.2813 C28.4914,94.7963 16.1634,82.5173 11.7184,62.9533 C9.2064,51.8973 9.2304,30.1023 11.7184,19.3593 C13.3694,12.2293 16.0614,6.0843 19.7484,0.9173 C10.7534,7.3373 4.7494,16.7913 1.8744,29.2033 C-0.6126,39.9463 -0.6366,61.7413 1.8744,72.7973 C6.3194,92.3613 18.6474,104.6393 38.2024,109.1253 C49.1014,111.6253 70.8984,111.6253 81.7964,109.1253 C94.2364,106.2713 103.7864,100.2623 110.2124,91.2333 C105.0054,94.9403 98.8054,97.6373 91.6404,99.2813" id="Fill-4" fill="#5BBF1B" mask="url(#mask-4)"></path>
            </g>
            <path d="M96.2327,51.8243 C91.9637,44.3933 80.3787,32.6203 73.2027,28.1283 C64.9347,22.9533 55.1387,23.2983 46.3197,28.1283 C35.3997,34.1073 25.5387,46.0283 23.2887,51.8243 C21.0427,57.6103 23.5927,62.4523 30.9717,64.8093 L30.9717,79.1613 C30.9717,86.1823 36.8357,91.8753 44.0687,91.8753 L46.7207,91.8753 C48.2177,91.8753 49.4317,90.6973 49.4317,89.2433 L49.4317,74.9413 C49.4317,70.5753 53.0777,67.0363 57.5757,67.0363 L62.4127,67.0363 C66.9117,67.0363 70.5577,70.5753 70.5577,74.9413 L70.5577,89.2433 C70.5577,90.6973 71.7717,91.8753 73.2687,91.8753 L74.8077,91.8753 C82.0417,91.8753 87.9047,86.1823 87.9047,79.1613 L87.9047,65.0873 C96.1497,62.8093 99.5697,57.6353 96.2327,51.8243" id="Fill-7" fill="#FFFFFF"></path>
        </g>
    </g>
</svg>