<?xml version="1.0" encoding="UTF-8"?>
<svg width="100px" height="100px" viewBox="0 0 100 100" version="1.1" xmlns="http://www.w3.org/2000/svg" xmlns:xlink="http://www.w3.org/1999/xlink">
    <!-- Generator: Sketch 48.2 (47327) - http://www.bohemiancoding.com/sketch -->
    <title>Neuron 蜂鸣器 感恩节</title>
    <desc>Created with Sketch.</desc>
    <defs>
        <polygon id="path-1" points="0.0846208674 0.0686 7.09705946 0.0686 7.09705946 7.08218 0.0846208674 7.08218 0.0846208674 0.0686"></polygon>
    </defs>
    <g id="裁剪面板" stroke="none" stroke-width="1" fill="none" fill-rule="evenodd">
        <g id="Neuron-蜂鸣器-感恩节">
            <g id="Page-1" transform="translate(7.000000, 13.100000)">
                <path d="M85.84086,48.00674 C85.89786,48.82874 85.55386,49.66254 84.85006,50.20034 C82.52306,51.97794 79.75326,53.07374 76.83966,53.36894 C73.92626,53.66394 70.99286,53.14594 68.35666,51.87094 L67.55546,51.48354 C66.29426,50.87354 65.76646,49.35654 66.37626,48.09534 C66.98626,46.83434 68.50306,46.30654 69.76426,46.91654 L70.56546,47.30374 C72.35646,48.17014 74.34926,48.52194 76.32826,48.32134 C78.30766,48.12094 80.18946,47.37674 81.77026,46.16894 C82.88346,45.31854 84.47546,45.53134 85.32586,46.64454 C85.63866,47.05414 85.80766,47.52834 85.84086,48.00674" id="Fill-1" fill="#1794CF"></path>
                <path d="M51.53266,73.73134 C53.13366,73.73134 54.43166,72.43354 54.43166,70.83254 L54.43166,60.68614 L48.63366,60.68614 L48.63366,70.83254 C48.63366,72.43354 49.93166,73.73134 51.53266,73.73134" id="Fill-3" fill="#1794CF"></path>
                <path d="M32.47134,73.1997 C33.97914,73.7385 35.63794,72.9535 36.17694,71.4457 L39.59214,61.8915 L34.13254,59.9399 L30.71734,69.4943 C30.17854,71.0019 30.96374,72.6609 32.47134,73.1997" id="Fill-5" fill="#1794CF"></path>
                <path d="M63.5773,52.1124 L63.5773,23.9786 C63.5773,17.5746 58.3857,12.383 51.9815,12.383 L23.8477,12.383 C17.4437,12.383 12.2521,17.5746 12.2521,23.9786 L12.2521,52.1124 C12.2521,58.5166 17.4437,63.7082 23.8477,63.7082 L51.9815,63.7082 C58.3857,63.7082 63.5773,58.5166 63.5773,52.1124" id="Fill-7" fill="#1794CF"></path>
                <path d="M0.24878,42.05928 C-0.10622,42.80288 -0.09282,43.70488 0.36418,44.46348 C1.87498,46.97168 4.04858,49.00868 6.64958,50.35388 C9.25078,51.69888 12.16918,52.29528 15.08958,52.07828 L15.97718,52.01228 C17.37418,51.90848 18.42258,50.69148 18.31878,49.29468 C18.21498,47.89768 16.99818,46.84928 15.60118,46.95308 L14.71358,47.01908 C12.72958,47.16648 10.74698,46.76148 8.97998,45.84748 C7.21278,44.93368 5.73618,43.54988 4.70978,41.84588 C3.98698,40.64588 2.42818,40.25888 1.22818,40.98168 C0.78678,41.24748 0.45538,41.62668 0.24878,42.05928" id="Fill-11" fill="#33AAD9"></path>
                <path d="M73.5773,52.1124 L73.5773,23.9786 C73.5773,17.5746 68.3857,12.383 61.9815,12.383 L33.8477,12.383 C27.4437,12.383 22.2521,17.5746 22.2521,23.9786 L22.2521,52.1124 C22.2521,58.5166 27.4437,63.7082 33.8477,63.7082 L61.9815,63.7082 C68.3857,63.7082 73.5773,58.5166 73.5773,52.1124" id="Fill-13" fill="#33AAD9"></path>
                <path d="M33.8478,58.63506 C30.2512,58.63506 27.3252,55.70886 27.3252,52.11246 L27.3252,23.97866 C27.3252,20.38206 30.2512,17.45586 33.8478,17.45586 L61.9814,17.45586 C65.578,17.45586 68.5042,20.38206 68.5042,23.97866 L68.5042,52.11246 C68.5042,55.70886 65.578,58.63506 61.9814,58.63506 L33.8478,58.63506 Z" id="Fill-15" fill="#FFFFFF"></path>
                <path d="M33.25884,43.46298 C33.25884,40.18578 30.60224,37.52918 27.32524,37.52918 L27.32524,49.39678 C30.60224,49.39678 33.25884,46.74018 33.25884,43.46298" id="Fill-17" fill="#EC8FB4"></path>
                <path d="M62.57036,43.46298 C62.57036,40.18578 65.22696,37.52918 68.50416,37.52918 L68.50416,49.39678 C65.22696,49.39678 62.57036,46.74018 62.57036,43.46298" id="Fill-19" fill="#EC8FB4"></path>
                <path d="M36.6182,33.49444 C36.6182,35.67644 34.8492,37.44544 32.6672,37.44544 C30.485,37.44544 28.716,35.67644 28.716,33.49444 C28.716,31.31224 30.485,29.54324 32.6672,29.54324 C34.8492,29.54324 36.6182,31.31224 36.6182,33.49444" id="Fill-21" fill="#514740"></path>
                <path d="M67.88492,33.49444 C67.88492,35.67644 66.11592,37.44544 63.93392,37.44544 C61.75172,37.44544 59.98272,35.67644 59.98272,33.49444 C59.98272,31.31224 61.75172,29.54324 63.93392,29.54324 C66.11592,29.54324 67.88492,31.31224 67.88492,33.49444" id="Fill-23" fill="#514740"></path>
                <path d="M48.38666,52.59716 C42.01726,52.59716 36.83506,47.41516 36.83506,41.04536 C36.83506,34.67596 42.01726,29.49376 48.38666,29.49376 C54.75626,29.49376 59.93826,34.67596 59.93826,41.04536 C59.93826,47.41516 54.75626,52.59716 48.38666,52.59716" id="Fill-25" fill="#6D6D6D"></path>
                <path d="M54.37584,41.0454 C54.37584,44.3532 51.69444,47.0346 48.38664,47.0346 C45.07904,47.0346 42.39744,44.3532 42.39744,41.0454 C42.39744,37.7378 45.07904,35.0564 48.38664,35.0564 C51.69444,35.0564 54.37584,37.7378 54.37584,41.0454" id="Fill-27" fill="#27221F"></path>
                <path d="M48.38666,52.59716 C42.01726,52.59716 36.83506,47.41516 36.83506,41.04536 C36.83506,34.67596 42.01726,29.49376 48.38666,29.49376 C54.75626,29.49376 59.93826,34.67596 59.93826,41.04536 C59.93826,47.41516 54.75626,52.59716 48.38666,52.59716" id="Fill-29" fill="#6D6D6D"></path>
                <path d="M54.37584,41.0454 C54.37584,44.3532 51.69444,47.0346 48.38664,47.0346 C45.07904,47.0346 42.39744,44.3532 42.39744,41.0454 C42.39744,37.7378 45.07904,35.0564 48.38664,35.0564 C51.69444,35.0564 54.37584,37.7378 54.37584,41.0454" id="Fill-31" fill="#27221F"></path>
                <path d="M23.06518,15.74092 C24.28018,9.51732 20.21358,3.48712 13.98498,2.28352 C7.75598,1.07972 1.69038,5.21612 0.53318,11.45372 C-0.32682,16.08972 1.73578,20.60312 5.43038,23.07732 C6.28338,23.64852 6.73578,24.65592 6.57298,25.66992 L3.60138,44.17212 C3.41418,45.33752 4.18478,46.44152 5.34318,46.66772 C6.50158,46.89372 7.63058,46.16072 7.89538,45.01052 L12.09878,26.75792 C12.32978,25.75452 13.12758,24.98552 14.13578,24.77632 C18.52278,23.86592 22.15298,20.41392 23.06518,15.74092" id="Fill-33" fill="#8A6239"></path>
                <g id="Group-37" transform="translate(3.000000, 0.031400)">
                    <mask id="mask-2" fill="white">
                        <use xlink:href="#path-1"></use>
                    </mask>
                    <g id="Clip-36"></g>
                    <path d="M3.5851,7.08218 C2.9593,7.08218 2.3429,6.91318 1.7917,6.58358 C0.9883,6.10298 0.4201,5.33798 0.1919,4.42998 C-0.0365,3.52178 0.1025,2.57918 0.5831,1.77578 C1.0639,0.97218 1.8287,0.40398 2.7367,0.17598 C3.6449,-0.05262 4.5873,0.08638 5.3909,0.56738 C6.1945,1.04798 6.7627,1.81278 6.9909,2.72078 C7.4621,4.59538 6.3203,6.50378 4.4459,6.97498 C4.1605,7.04658 3.8717,7.08218 3.5851,7.08218" id="Fill-35" fill="#603813" mask="url(#mask-2)"></path>
                </g>
                <path d="M19.41782,8.22276 C17.84902,8.22276 16.41722,7.16036 16.01782,5.57156 C15.78962,4.66356 15.92862,3.72096 16.40922,2.91756 C16.89002,2.11396 17.65482,1.54576 18.56282,1.31756 C20.43682,0.84636 22.34582,1.98816 22.81702,3.86256 C23.28822,5.73696 22.14642,7.64536 20.27202,8.11676 C19.98642,8.18836 19.69982,8.22276 19.41782,8.22276" id="Fill-38" fill="#603813"></path>
                <path d="M23.06518,15.74092 C21.85178,21.95732 15.82858,26.01272 9.61218,24.79932 C3.39578,23.58592 -0.65982,17.56252 0.55378,11.34612 C1.76718,5.12972 7.79038,1.07432 14.00678,2.28772 C20.22318,3.50132 24.27878,9.52452 23.06518,15.74092" id="Fill-40" fill="#603813"></path>
                <path d="M12.50004,10.00596 C7.63964,9.05716 2.89724,11.32976 0.47964,15.33756 C0.97984,18.49436 2.78864,21.30936 5.43344,23.07916 C6.28384,23.64856 6.73664,24.65156 6.57424,25.66196 L5.96544,29.45256 C5.73724,30.87396 6.66684,32.23336 8.07904,32.51236 C8.08784,32.51416 8.09664,32.51576 8.10544,32.51756 C8.11424,32.51916 8.12304,32.52096 8.13184,32.52256 C9.54544,32.79516 10.91804,31.88536 11.24104,30.48256 L12.09884,26.75796 C12.32984,25.75456 13.12784,24.98536 14.13564,24.77636 C17.25004,24.12996 19.98284,22.20236 21.63264,19.46696 C20.90004,14.84396 17.36064,10.95496 12.50004,10.00596" id="Fill-42" fill="#603813"></path>
                <path d="M0.55376,11.34618 C0.15356,13.39638 0.32676,15.42538 0.96136,17.26798 L20.46036,21.07478 C21.74136,19.60618 22.66496,17.79118 23.06516,15.74098 C23.46556,13.69078 23.29216,11.66158 22.65776,9.81898 L3.15856,6.01238 C1.87756,7.48098 0.95396,9.29598 0.55376,11.34618" id="Fill-44" fill="#F5911E"></path>
                <path d="M19.64976,16.7374 L18.94176,14.513 C18.28716,12.4564 16.35356,12.0788 14.97356,13.7384 L13.48076,15.5332 C12.10076,17.1926 10.16716,16.8152 9.51256,14.7584 L8.80456,12.534 C8.14996,10.4774 6.21636,10.0998 4.83636,11.7592 L3.34356,13.5542 C2.41376,14.6722 1.23316,14.8644 0.36136,14.2426 C0.42456,15.2864 0.62896,16.303 0.96136,17.268 L10.49096,19.1284 L10.93076,19.2144 L16.57876,20.3168 L20.46036,21.0748 C21.13136,20.3054 21.70316,19.4404 22.15396,18.497 C21.11236,18.745 20.09076,18.1232 19.64976,16.7374" id="Fill-46" fill="#B71228"></path>
            </g>
        </g>
    </g>
</svg>