<?xml version="1.0" encoding="UTF-8"?>
<svg width="120px" height="120px" viewBox="0 0 120 120" version="1.1" xmlns="http://www.w3.org/2000/svg" xmlns:xlink="http://www.w3.org/1999/xlink">
    <!-- Generator: Sketch 51.1 (57501) - http://www.bohemiancoding.com/sketch -->
    <title>OOH</title>
    <desc>Created with Sketch.</desc>
    <defs>
        <polygon id="path-1" points="0.000186455795 0.477811573 112.953416 0.477811573 112.953416 90.3591549 0.000186455795 90.3591549"></polygon>
    </defs>
    <g id="OOH" stroke="none" stroke-width="1" fill="none" fill-rule="evenodd">
        <g id="Group" transform="translate(0.000000, 15.000000)">
            <path d="M118.348277,10.5026817 C118.235298,6.28015352 114.701681,2.91956197 110.495936,3.03299155 L16.2384894,5.58675915 C12.0321064,5.70018873 8.68487234,9.24854789 8.79785106,13.4704352 L10.2799787,68.6106676 C10.3935957,72.8331958 13.9272128,76.195069 18.1323191,76.0803577 L25.9227447,75.8695197 L25.6138085,89.7867521 L36.6946596,80.0350127 L44.3229574,75.3709423 L112.391043,73.527231 C116.596787,73.4131606 119.944021,69.8654423 119.831043,65.6429141 L118.348277,10.5026817 Z" id="Fill-1" fill="#262626"></path>
            <path d="M110.510426,9.07513521 C110.397447,4.85260704 106.863191,1.49137465 102.658085,1.60544507 L8.4006383,4.15921268 C4.19425532,4.27264225 0.846382979,7.82036056 0.96,12.0428887 L2.44212766,67.1831211 C2.55574468,71.4056493 6.0887234,74.7675225 10.2944681,74.6534521 L18.0842553,74.4419732 L17.7753191,88.3592056 L28.8568085,78.6074662 L36.4844681,73.9433958 L104.553191,72.0996845 C108.758298,71.9856141 112.10617,68.4378958 111.993191,64.2153676 L110.510426,9.07513521 Z" id="Fill-3" fill="#E87B31"></path>
            <g id="Group-7" transform="translate(0.000000, 0.163415)">
                <mask id="mask-2" fill="white">
                    <use xlink:href="#path-1"></use>
                </mask>
                <g id="Clip-6"></g>
                <path d="M19.0642979,73.2903746 L18.7808936,86.032938 L28.3591915,77.6231282 L36.2045106,72.825762 L104.527915,70.9750014 C108.215362,70.8750296 111.134936,67.7810296 111.036638,64.0775859 L109.553872,8.93735352 C109.505362,7.15195915 108.762383,5.48704366 107.460255,4.24829014 C106.158766,3.01017746 104.44366,2.36164225 102.684511,2.40329718 L8.42642553,4.95642394 C6.64812766,5.00448732 4.98919149,5.75107183 3.756,7.05775493 C2.52217021,8.36507887 1.86919149,10.0684451 1.91706383,11.8538394 L3.39919149,66.9940718 C3.44706383,68.7794662 4.19068085,70.4450225 5.49217021,71.6831352 C6.79429787,72.9218887 8.49280851,73.5749099 10.2685532,73.528769 L19.0642979,73.2903746 Z M16.769617,90.3592831 L17.1047234,75.2667408 L10.3202553,75.4506634 C8.03706383,75.5115437 5.84834043,74.6707549 4.1753617,73.0788958 C2.50238298,71.4876775 1.54748936,69.3446915 1.48557447,67.0459803 L0.00344680851,11.9057479 C-0.059106383,9.60639577 0.780255319,7.41598732 2.36578723,5.73569155 C3.95068085,4.05603662 6.08514894,3.09669155 8.3753617,3.03452958 L102.632809,0.481402817 C104.890468,0.415395775 107.104085,1.26131127 108.777702,2.85252958 C110.450681,4.44438873 111.406213,6.58737465 111.467489,8.88608592 L111.467489,8.88544507 L112.950255,64.0256775 C113.077915,68.7890789 109.32217,72.7687268 104.578979,72.8968958 L36.7649362,74.7341986 L29.4251489,79.2220366 L16.769617,90.3592831 Z" id="Fill-5" fill="#262626" mask="url(#mask-2)"></path>
            </g>
            <path d="M27.7910426,37.6594528 C25.724234,37.7933894 23.7289149,39.6287697 21.8050851,43.1630303 C20.2495532,45.9539106 19.2155106,48.6550725 18.704234,51.2645937 C18.453383,52.6443331 18.3627447,53.8811641 18.434234,54.9757275 C18.5331702,56.5233683 18.9895532,57.7627627 19.8046596,58.6945514 C20.739766,59.7327204 21.9774255,60.2011782 23.5182766,60.1012063 C25.6227447,59.9647063 27.4489149,58.729157 28.9967872,56.3932768 C30.2357234,54.5322627 31.0776383,52.3745373 31.5238085,49.9207415 C32.0555106,47.0446289 32.0261489,44.2428542 31.4357234,41.5160585 C30.8095532,38.8283542 29.5948723,37.5421782 27.7910426,37.6594528 M28.9176383,23.4922908 C32.8999787,23.2340303 35.8616809,25.2776852 37.8027447,29.6219739 C38.8150851,31.8674951 39.4099787,34.3680725 39.5874255,37.1224246 C39.7572128,39.7633472 39.5472128,42.6567627 38.9567872,45.8013894 C37.9067872,51.1748754 35.8138085,56.1971782 32.6810426,60.8715021 C28.8595532,66.5756641 24.6180638,69.5780232 19.9591277,69.8805021 C15.9378511,70.1413261 12.9378511,68.1002345 10.9610426,63.7578683 C9.99402128,61.6238542 9.42146809,59.1976148 9.24657447,56.4817134 C9.07487234,53.8023401 9.30146809,50.8711148 9.9263617,47.6848331 C10.9738085,42.274819 13.0463617,37.2339317 16.1421064,32.5621711 C19.959766,26.8208401 24.2184894,23.7966923 28.9176383,23.4922908" id="Fill-8" fill="#444242"></path>
            <path d="M28.0690213,38.6100824 C27.9866809,38.6100824 27.9139149,38.6145683 27.8526383,38.6190542 C26.1445532,38.7292796 24.3924255,40.4134204 22.6454043,43.6240542 C21.1415745,46.3213711 20.1330638,48.9513993 19.6434894,51.4500542 C19.4105106,52.7349486 19.3243404,53.90385 19.3894468,54.913181 C19.475617,56.2563923 19.8464681,57.2855894 20.5243404,58.0603711 C21.2488085,58.8652725 22.2113617,59.2254275 23.4560426,59.1421176 C25.2630638,59.024843 26.8141277,57.9514275 28.199234,55.8609908 C29.3602979,54.1172514 30.1613617,52.0614204 30.582,49.7479697 C31.0875319,47.008357 31.0607234,44.3084768 30.5002979,41.7201035 C29.8371064,38.8760331 28.6868936,38.6100824 28.0690213,38.6100824 M23.1139149,61.076188 C21.4843404,61.076188 20.1330638,60.493019 19.0945532,59.3394979 C18.132,58.2385261 17.5913617,56.7947021 17.478383,55.0375049 C17.4030638,53.8718077 17.4981702,52.5446176 17.7624255,51.0924627 C18.2941277,48.3810472 19.3722128,45.5594063 20.9698723,42.694188 C23.0768936,38.8215613 25.2898723,36.8586528 27.7294468,36.7003641 C29.3366809,36.5997514 31.4385957,37.3098077 32.3679574,41.2965049 C32.9858298,44.1514697 33.0177447,47.1070472 32.4649787,50.0959486 C31.9977447,52.6663782 31.0990213,54.9657303 29.7924255,56.927357 C28.0798723,59.5131669 25.9888085,60.9044415 23.5798723,61.0608077 C23.4222128,61.0704204 23.2671064,61.076188 23.1139149,61.076188 M28.979234,24.4512514 C24.6158298,24.7345049 20.5645532,27.6426599 16.938383,33.0962514 C13.9281702,37.639843 11.8849787,42.6102373 10.8662553,47.8683711 C10.2598723,50.9617303 10.0364681,53.837843 10.2024255,56.4198077 C10.368383,59.0036951 10.9166809,61.3382937 11.832,63.3601599 C13.6422128,67.3353218 16.2688085,69.1566035 19.8975319,68.9207725 C24.2245532,68.6400824 28.2579574,65.7511528 31.8860426,60.3347303 C34.9345532,55.7879345 36.9968936,50.8361246 38.0175319,45.6164415 C38.5881702,42.5730683 38.7962553,39.7334838 38.6322128,37.1842021 C38.4630638,34.5593007 37.8905106,32.1484415 36.9305106,30.0189134 C35.1528511,26.0399063 32.5530638,24.2160613 28.979234,24.4512514 M19.2758298,70.8644556 C15.2060426,70.8644556 12.1179574,68.6112444 10.0900851,64.1573711 C9.07710638,61.9214627 8.4726383,59.3606458 8.2913617,56.5434908 C8.11455319,53.796188 8.34880851,50.7534556 8.98646809,47.4992444 C10.0530638,41.9931035 12.1926383,36.787519 15.3445532,32.0298852 C19.3205106,26.0514415 23.8658298,22.856188 28.8554043,22.5325613 C33.2577447,22.2518711 36.5641277,24.4999556 38.675617,29.2287514 C39.7307234,31.5671951 40.3588085,34.2029908 40.5432766,37.0598782 C40.7168936,39.7706528 40.5005106,42.7710894 39.8973191,45.9798007 C38.8268936,51.4590261 36.6662553,56.6473077 33.4754043,61.4081458 C29.4981702,67.3449345 24.9707234,70.5183993 20.0213617,70.8394627 C19.769234,70.8561246 19.5202979,70.8644556 19.2758298,70.8644556" id="Fill-10" fill="#262626"></path>
            <path d="M57.059234,35.9656352 C55.2254043,36.0848324 53.454766,37.711938 51.7485957,40.8488746 C50.3673191,43.3244592 49.4500851,45.7205789 48.9968936,48.0359521 C48.7741277,49.2599662 48.6949787,50.3577338 48.7568936,51.3286141 C48.8449787,52.7019451 49.2502979,53.8016352 49.9734894,54.6283254 C50.8026383,55.5492197 51.9005106,55.9651282 53.268383,55.8760507 C55.134766,55.754931 56.7554043,54.6584451 58.1290213,52.5859521 C59.2275319,50.9351352 59.9743404,49.020931 60.3707234,46.8439803 C60.8424255,44.2921352 60.8162553,41.8062972 60.2922128,39.3864662 C59.7375319,37.0025225 58.6594468,35.8611775 57.059234,35.9656352 M58.0575319,23.3961 C61.5917872,23.1660366 64.2202979,24.980269 65.9417872,28.8349521 C66.8385957,30.8273394 67.3664681,33.0453042 67.524766,35.4888465 C67.6754043,37.8324169 67.4890213,40.3990014 66.9662553,43.1892408 C66.0343404,47.9558465 64.1768936,52.4122831 61.398383,56.5591915 C58.0064681,61.6199451 54.2443404,64.283938 50.1107234,64.5518113 C46.5413617,64.7837972 43.8815745,62.9734099 42.1275319,59.1206493 C41.2690213,57.2269521 40.7609362,55.0743535 40.6064681,52.6641352 C40.4532766,50.2872408 40.6549787,47.6866915 41.2090213,44.8599239 C42.1377447,40.0599944 43.9779574,35.5881775 46.7239149,31.4431915 C50.112,26.3497549 53.8894468,23.6665366 58.0575319,23.3961" id="Fill-12" fill="#444242"></path>
            <path d="M57.3010851,36.9174824 C57.2327872,36.9174824 57.1721489,36.9213275 57.1210851,36.9251725 C55.6434255,37.0206585 54.1191702,38.4958838 52.5885319,41.3098345 C51.2589574,43.6931373 50.3685319,46.0155599 49.9364043,48.2213486 C49.7315106,49.3466725 49.6549149,50.3752289 49.7123617,51.2666444 C49.7876809,52.4329824 50.1074681,53.3250387 50.6927872,53.9934401 C51.3112979,54.6804261 52.1353404,54.9873908 53.2064043,54.9168979 C54.7734255,54.8150035 56.1227872,53.8787289 57.3317234,52.0536021 C58.3523617,50.5200599 59.0576809,48.7096725 59.4291702,46.6711444 C59.8753404,44.2545176 59.8510851,41.8731373 59.3570426,39.5904472 C58.7870426,37.1443415 57.819383,36.9174824 57.3010851,36.9174824 M52.9095957,56.8496866 C51.4312979,56.8496866 50.2064043,56.3203486 49.263,55.2732077 C48.3917234,54.2766937 47.9027872,52.9738556 47.8012979,51.3896866 C47.7342766,50.3419049 47.8198085,49.1557007 48.0553404,47.8631162 C48.5283191,45.4452077 49.4895957,42.9311725 50.913,40.3793275 C52.7998085,36.9097923 54.7912979,35.1493908 56.9972553,35.0064824 C58.4570426,34.9071514 60.3840638,35.5550458 61.2247021,39.1674894 C61.7768298,41.7161303 61.8049149,44.3532077 61.3121489,47.0191232 C60.8940638,49.3152711 60.0910851,51.3685387 58.9249149,53.1199683 C57.3859787,55.4436725 55.503,56.6939613 53.3295957,56.835588 C53.1878936,56.8445599 53.0474681,56.8496866 52.9095957,56.8496866 M58.6395957,24.3383345 C58.4685319,24.3383345 58.2961915,24.3434613 58.119383,24.3549965 C54.2844894,24.6036444 50.7183191,27.1683063 47.5198085,31.9772077 C44.8555532,35.9985106 43.0485319,40.3953486 42.1491702,45.0433979 C41.6123617,47.7791655 41.4151277,50.3213979 41.5619362,52.6021655 C41.7074681,54.8829331 42.1912979,56.9419683 42.999383,58.7222359 C44.5836383,62.2039472 46.8910851,63.8041373 50.049383,63.5926585 C53.8517234,63.3459331 57.4025745,60.7992148 60.6042766,56.0223556 C63.2991702,51.9997711 65.1240638,47.6195951 66.026617,43.0042289 C66.5308723,40.3133204 66.7140638,37.8024894 66.5698085,35.5505599 C66.4191702,33.2351866 65.9149149,31.1088627 65.0691702,29.2305458 C63.6004468,25.9430106 61.4934255,24.3383345 58.6395957,24.3383345 M49.5010851,65.5331373 C45.8461915,65.5337782 43.0753404,63.5131937 41.2568298,59.520088 C40.3523617,57.5251373 39.8123617,55.2398838 39.6508723,52.7258486 C39.4938511,50.279743 39.7019362,47.5708908 40.269383,44.6742711 C41.2172553,39.7782148 43.1200213,35.1468275 45.926617,30.9108415 C49.4749149,25.5764472 53.535766,22.7259683 57.9961915,22.4363063 C61.9517234,22.18125 64.9210851,24.199912 66.8155532,28.4416655 C67.7551277,30.528257 68.3155532,32.8788768 68.4808723,35.4262359 C68.6353404,37.8396585 68.4419362,40.5107007 67.9070426,43.3669472 C66.9540638,48.2424965 65.0315106,52.8591444 62.1923617,57.0957711 C58.6434255,62.3929965 54.5991702,65.22425 50.1725745,65.5113486 C49.9459787,65.526088 49.7219362,65.5331373 49.5010851,65.5331373" id="Fill-14" fill="#262626"></path>
            <path d="M71.3567234,24.2695718 L81.6690638,21.7818113 C80.2571489,29.1233324 79.1605532,35.7977338 78.3805532,41.8075789 L82.9871489,40.5117901 L84.7724681,23.3993042 L95.0854468,20.9115437 C92.094383,36.6019944 90.420766,49.8771 90.0633191,60.7355789 L80.5277872,63.8545718 L82.1299149,48.292931 C81.0926809,48.5877197 79.5167234,49.0305437 77.4045957,49.6220437 C76.9877872,54.3091845 76.7362979,58.3042127 76.6475745,61.6064873 L67.1120426,64.7248394 L71.3567234,24.2695718 Z" id="Fill-16" fill="#444242"></path>
            <path d="M72.2380851,25.0455711 L68.2187234,63.3520852 L75.7104255,60.9014937 C75.8144681,57.719057 76.062766,53.9002613 76.4508511,49.5367472 L76.5089362,48.8747542 L77.1465957,48.6959585 C79.2580851,48.1044585 80.832766,47.6622754 81.8693617,47.3681275 L83.2276596,46.9816979 L81.6319149,62.4824585 L89.13,60.0299444 C89.5212766,49.6309514 91.1138298,36.9140218 93.8687234,22.1931697 L85.6544681,24.1753035 L83.8717021,41.2615148 L77.2442553,43.1250923 L77.4312766,41.6831908 C78.1557447,36.0975852 79.17,29.8403739 80.4497872,23.064719 L72.2380851,25.0455711 Z M66.0044681,66.0981063 L70.4751064,23.4934444 L82.8906383,20.4987754 L82.6091489,21.9637472 C81.3178723,28.6810852 80.2806383,34.9043317 79.5217021,40.4880148 L82.1023404,39.7625782 L83.8902128,22.6231768 L96.3044681,19.6285077 L96.0261702,21.0921979 C93.0587234,36.6576838 91.3742553,50.0064866 91.02,60.767557 L90.9982979,61.4404444 L79.4240426,65.226557 L81.0325532,49.6014725 C80.2729787,49.8155148 79.3621277,50.071212 78.3,50.3692049 C77.9221277,54.7282331 77.6878723,58.5149866 77.6042553,61.632057 L77.586383,62.3100711 L66.0044681,66.0981063 Z" id="Fill-18" fill="#262626"></path>
            <path d="M103.088362,17.7209683 L114.996447,18.9379331 C112.239,24.7625739 110.229638,29.3061655 108.968362,32.5706303 C107.25517,37.039243 105.792191,41.8507077 104.576872,47.0069472 L96.7187872,47.1754894 L103.088362,17.7209683 Z M98.9834681,53.3372148 C100.286872,53.0635739 101.464532,53.1763627 102.515809,53.6762218 C103.75666,54.2023556 104.419213,55.106588 104.501553,56.388919 C104.613255,58.1249683 103.793681,59.7693768 102.045383,61.3221444 C100.689,62.5467993 99.1743191,63.3273486 97.4981489,63.6631514 C96.1570851,63.9399965 94.9813404,63.8637359 93.9734681,63.4375739 C92.7702766,62.9095176 92.126234,62.0046444 92.042617,60.7216725 C91.9321915,58.9862641 92.7115532,57.3245528 94.3832553,55.7378204 C95.7358085,54.4759965 97.2696383,53.6749401 98.9834681,53.3372148 Z" id="Fill-20" fill="#444242"></path>
            <path d="M103.842574,18.7642 L97.9121489,46.1885239 L103.818319,46.0616366 C105.005553,41.1502 106.435979,36.4989465 108.074489,32.2251507 C109.249596,29.1849817 111.089809,24.9951366 113.551085,19.756869 L103.842574,18.7642 Z M95.5261915,48.1629676 L102.334277,16.6776085 L116.443851,18.1201507 L115.861085,19.3512141 C113.127894,25.1245873 111.108957,29.6893268 109.861085,32.9179042 C108.174064,37.3185873 106.70917,42.1338972 105.508532,47.2286155 L105.338106,47.9514887 L95.5261915,48.1629676 Z M100.316617,54.1529465 C99.9534255,54.1529465 99.5755532,54.1952423 99.1791702,54.2779113 L99.1683191,54.2804746 C97.640234,54.5816718 96.2500213,55.309031 95.0347021,56.4420451 C93.5742766,57.8288338 92.9059787,59.2098549 92.9985319,60.6600873 C93.0585319,61.5854676 93.4778936,62.1705592 94.3568298,62.5563479 C95.1687447,62.8998408 96.1644894,62.9568761 97.305766,62.7216859 C98.8064043,62.4204887 100.184489,61.7097915 101.405553,60.607538 C102.940021,59.2444606 103.638319,57.8865099 103.545766,56.4510169 C103.486404,55.5307634 103.054277,54.9475944 102.143426,54.5618056 C101.565128,54.2875239 100.963851,54.1529465 100.316617,54.1529465 Z M95.9985319,64.7864887 C95.1336383,64.7864887 94.3319362,64.6320451 93.6017234,64.3231577 C92.0595957,63.6470662 91.1947021,62.4243338 91.0874681,60.7837704 C90.9578936,58.7554958 91.845766,56.8233479 93.7255532,55.0392352 C95.210234,53.654369 96.9132128,52.7667986 98.7936383,52.3951085 C100.298106,52.0798127 101.688319,52.2188761 102.92534,52.8078127 C104.463,53.4582704 105.350872,54.6810028 105.45683,56.3273338 C105.587681,58.365862 104.653851,60.289038 102.680234,62.0423901 C101.205766,63.3727845 99.5232128,64.2372845 97.6855532,64.6057704 C97.1008723,64.7262493 96.5378936,64.7864887 95.9985319,64.7864887 Z" id="Fill-22" fill="#262626"></path>
            <path d="M26.7917872,32.358062 C24.7249787,32.4919986 22.7296596,34.326738 20.8058298,37.8616394 C19.2502979,40.6525197 18.2162553,43.3536817 17.7049787,45.962562 C17.4541277,47.3429423 17.3641277,48.5797732 17.4349787,49.6743366 C17.5339149,51.2219775 17.9902979,52.460731 18.8054043,53.3931606 C19.7405106,54.4313296 20.9781702,54.8997873 22.5190213,54.7998155 C24.6234894,54.6633155 26.4496596,53.4277662 27.9975319,51.0912451 C29.2364681,49.2308718 30.078383,47.0731465 30.5245532,44.6193507 C31.0562553,41.743238 31.0268936,38.9408225 30.4358298,36.2140268 C29.8102979,33.5269634 28.595617,32.2407873 26.7917872,32.358062 M27.918383,18.1909 C31.9007234,17.9319986 34.8624255,19.9762944 36.8034894,24.3205831 C37.8158298,26.5661042 38.4107234,29.0666817 38.5875319,31.8210338 C38.7579574,34.4619563 38.5479574,37.354731 37.9575319,40.4999986 C36.9075319,45.8728437 34.8145532,50.8957873 31.6817872,55.5701113 C27.8602979,61.2742732 23.6188085,64.2766324 18.9598723,64.5784704 C14.9385957,64.8399352 11.9385957,62.7988437 9.96178723,58.4564775 C8.99412766,56.3224634 8.42221277,53.8962239 8.24668085,51.1796817 C8.07561702,48.5009493 8.30221277,45.5690831 8.92710638,42.3834423 C9.97391489,36.9734282 12.0471064,31.9325408 15.1428511,27.2607803 C18.9611489,21.5194493 23.219234,18.4953014 27.918383,18.1909" id="Fill-24" fill="#F9E593"></path>
            <path d="M27.0704681,33.3086915 C26.9874894,33.3086915 26.9147234,33.3131775 26.8534468,33.3176634 C25.1453617,33.4278887 23.393234,35.1120296 21.6462128,38.3226634 C20.142383,41.0199803 19.1338723,43.6500085 18.6442979,46.1486634 C18.4119574,47.4309944 18.3251489,48.6005366 18.3902553,49.6117901 C18.4764255,50.9550014 18.8472766,51.9841986 19.5251489,52.7589803 C20.249617,53.5638817 21.2166383,53.9208324 22.4562128,53.8400859 C24.2638723,53.7234521 25.8149362,52.6500366 27.2000426,50.5589592 C28.3611064,48.8152197 29.1621702,46.7593887 29.5828085,44.4465789 C30.0889787,41.7063254 30.0615319,39.0064451 29.5004681,36.4187127 C28.8385532,33.5746423 27.6883404,33.3086915 27.0704681,33.3086915 M22.1134468,55.7741563 C20.4851489,55.7741563 19.1345106,55.1916282 18.0953617,54.038107 C17.1328085,52.9364944 16.5921702,51.4926704 16.4791915,49.7354732 C16.4045106,48.5678535 16.499617,47.2406634 16.763234,45.790431 C17.2949362,43.0790155 18.3730213,40.2580155 19.9706809,37.3927972 C22.0777021,33.5201704 24.2906809,31.557262 26.7302553,31.3989732 C28.3330213,31.2951563 30.4400426,32.0084169 31.3681277,35.9951141 C31.9866383,38.849438 32.0185532,41.8050155 31.4657872,44.7945577 C30.9985532,47.3649873 30.0998298,49.6636986 28.793234,51.6259662 C27.0806809,54.2117761 24.989617,55.6030507 22.5806809,55.7587761 C22.4230213,55.7690296 22.2672766,55.7741563 22.1134468,55.7741563 M27.9800426,19.1498606 C23.6172766,19.4331141 19.566,22.341269 15.9391915,27.7948606 C12.9277021,32.3397338 10.8845106,37.310769 9.86706383,42.5669803 C9.26068085,45.6590577 9.0372766,48.5358113 9.20259574,51.1184169 C9.36919149,53.7042268 9.91812766,56.0394662 10.8334468,58.0581282 C12.6436596,62.0352127 15.2862128,63.8564944 18.8983404,63.6193817 C23.2247234,63.3386915 27.258766,60.4504028 30.8874894,55.0333394 C33.9353617,50.4859028 35.9977021,45.534093 37.0183404,40.3150507 C37.5889787,37.2710366 37.7970638,34.4314521 37.632383,31.8828113 C37.4638723,29.2579099 36.8913191,26.8470507 35.9313191,24.7175225 C34.1542979,20.7385155 31.5653617,18.916593 27.9800426,19.1498606 M18.2747234,65.5624239 C14.2062128,65.5624239 11.118766,63.3092127 9.09089362,58.8559803 C8.07855319,56.6226352 7.47344681,54.0618183 7.29153191,51.2414592 C7.1153617,48.4935155 7.34961702,45.4507831 7.98791489,42.1978535 C9.05259574,36.6929944 11.1921702,31.4880507 14.3453617,26.7284944 C18.3219574,20.7494099 22.8672766,17.5547972 27.8562128,17.2311704 C32.249617,16.9485577 35.5642979,19.1979239 37.6764255,23.9273606 C38.7315319,26.2664451 39.359617,28.9022408 39.5434468,31.7591282 C39.7177021,34.4679803 39.5013191,37.4684169 38.8981277,40.6784099 C37.8277021,46.1569944 35.6670638,51.3459169 32.4762128,56.1067549 C28.4983404,62.0435437 23.9721702,65.2170085 19.0221702,65.5380718 C18.7694043,65.554093 18.5198298,65.5624239 18.2747234,65.5624239" id="Fill-26" fill="#262626"></path>
            <path d="M56.0599787,30.6639239 C54.2261489,30.7831211 52.4555106,32.4108676 50.7499787,35.5471634 C49.3693404,38.0233887 48.4514681,40.4195085 47.9976383,42.7342408 C47.7755106,43.9582549 47.6957234,45.0566634 47.7576383,46.0275437 C47.8463617,47.4002338 48.2510426,48.4999239 48.974234,49.3272549 C49.8040213,50.2481493 50.9018936,50.6634169 52.269766,50.5749803 C54.1361489,50.4532197 55.7561489,49.3573746 57.1304043,47.2848817 C58.2289149,45.6334239 58.9757234,43.7198606 59.3714681,41.542269 C59.8425319,38.9904239 59.8176383,36.5045859 59.2935957,34.0847549 C58.7382766,31.7008113 57.6608298,30.560107 56.0599787,30.6639239 M57.0589149,18.0943887 C60.5931702,17.8649662 63.2210426,19.6785577 64.9425319,23.5332408 C65.840617,25.5256282 66.3684894,27.743593 66.5255106,30.1871352 C66.6767872,32.5307056 66.4904043,35.0972901 65.967,37.8875296 C65.0344468,42.6547761 63.1776383,47.1105718 60.399766,51.2574803 C57.0078511,56.3182338 53.2457234,58.9822268 49.1114681,59.2501 C45.5427447,59.4820859 42.8823191,57.6716986 41.1282766,53.818938 C40.2704043,51.9258817 39.7623191,49.7726423 39.6078511,47.3630648 C39.4540213,44.9861704 39.6563617,42.3849803 40.2104043,39.5582127 C41.1391277,34.7589239 42.9780638,30.287107 45.7246596,26.1421211 C49.113383,21.0480437 52.8908298,18.3654662 57.0589149,18.0943887" id="Fill-28" fill="#F9E593"></path>
            <path d="M56.1217021,31.6233331 C54.6446809,31.7194599 53.1197872,33.1946852 51.5897872,36.0073542 C50.2602128,38.3932204 49.3691489,40.715643 48.9370213,42.92015 C48.7321277,44.0473965 48.6561702,45.0765937 48.713617,45.9654458 C48.7889362,47.1324246 49.1093617,48.024481 49.6940426,48.6922415 C50.3125532,49.3792275 51.1397872,49.6861923 52.2076596,49.6156993 C53.7740426,49.5138049 55.1240426,48.5768894 56.3329787,46.7517627 C57.3548936,45.2175796 58.0595745,43.4078331 58.4297872,41.3693049 C58.8759574,38.9507556 58.8517021,36.5693754 58.3582979,34.2892486 C57.7129787,31.5207979 56.556383,31.5925725 56.1217021,31.6233331 M51.9121277,51.5478472 C50.4331915,51.5478472 49.2076596,51.01915 48.2642553,49.9720092 C47.3929787,48.9767768 46.9046809,47.6732979 46.8019149,46.0891289 C46.7348936,45.0432697 46.8204255,43.8564246 47.0559574,42.5619176 C47.5295745,40.1452908 48.4902128,37.6312556 49.9142553,35.077488 C51.8004255,31.6085937 53.7925532,29.8481923 55.9985106,29.704643 C57.462766,29.617488 59.3846809,30.254488 60.2265957,33.8662908 C60.7774468,36.4117275 60.8055319,39.0481641 60.312766,41.7172838 C59.8959574,44.0127908 59.0923404,46.0666993 57.9261702,47.8187697 C56.3859574,50.1424739 54.503617,51.3927627 52.3314894,51.5343894 C52.1897872,51.5433613 52.05,51.5478472 51.9121277,51.5478472 M57.1206383,19.0537979 C53.286383,19.3024458 49.7195745,21.8671077 46.5204255,26.6760092 C43.8568085,30.6953894 42.0497872,35.0922275 41.1504255,39.7415585 C40.613617,42.4798894 40.416383,45.0221218 40.5631915,47.3003261 C40.7093617,49.5810937 41.1925532,51.6401289 42,53.4203965 C43.5848936,56.9027486 45.8891489,58.4990937 49.05,58.290819 C52.8529787,58.0447345 56.4038298,55.4980162 59.6055319,50.721157 C62.2997872,46.6992134 64.1240426,42.3190373 65.0278723,37.7023894 C65.5321277,35.0108401 65.7153191,32.50065 65.5704255,30.2493613 C65.4210638,27.9333472 64.9168085,25.8070232 64.0704255,23.9293472 C62.513617,20.4457134 60.2495745,18.8519317 57.1206383,19.0537979 M48.5010638,60.2319387 C44.8468085,60.2319387 42.0759574,58.2119951 40.2574468,54.2182486 C39.3529787,52.2239387 38.813617,49.9386852 38.6521277,47.42465 C38.4944681,44.9804669 38.7025532,42.2716148 39.2712766,39.3730725 C40.2185106,34.4744528 42.1219149,29.8430655 44.927234,25.609643 C48.4755319,20.2758894 52.536383,17.4247697 56.9974468,17.1351077 C60.9517021,16.877488 63.9217021,18.8980725 65.8161702,23.1398261 C66.7570213,25.2264176 67.3174468,27.5776782 67.4814894,30.1256782 C67.6365957,32.5371782 67.4438298,35.2088613 66.9082979,38.0657486 C65.9534043,42.9425796 64.0321277,47.5585866 61.1942553,51.7945725 C57.6440426,57.0917979 53.5997872,59.9230514 49.1731915,60.2095092 C48.9465957,60.2242486 48.7219149,60.2319387 48.5010638,60.2319387" id="Fill-30" fill="#262626"></path>
            <path d="M70.3581064,18.968181 L80.6691702,16.4804204 C79.2578936,23.8213007 78.1612979,30.496343 77.3806596,36.5055472 L81.9872553,35.2103993 L83.7732128,18.0979134 L94.0868298,15.6101528 C91.0951277,31.3006035 89.4215106,44.5757092 89.0647021,55.4335472 L79.5278936,58.553181 L81.1306596,42.9915401 C80.0934255,43.2863289 78.5174681,43.7291528 76.4053404,44.3206528 C75.9891702,49.0077937 75.7370426,53.0028218 75.6483191,56.3044556 L66.1127872,59.4234486 L70.3581064,18.968181 Z" id="Fill-32" fill="#F9E593"></path>
            <path d="M71.2395319,19.7442444 L67.2195319,58.0507585 L74.711234,55.6001669 C74.8152766,52.4254204 75.0635745,48.6072655 75.4516596,44.2354204 L75.5097447,43.5734275 L76.1474043,43.3946317 C78.2588936,42.8037725 79.8335745,42.3609486 80.8701702,42.0668007 L82.2284681,41.681012 L80.6320851,57.1811317 L88.1314468,54.7279768 C88.5220851,44.3289838 90.1146383,31.6120542 92.8701702,16.891843 L84.6546383,18.8739768 L82.8718723,35.960188 L76.2437872,37.8237655 L76.4314468,36.3812232 C77.1571915,30.7949768 78.1714468,24.5377655 79.4499574,17.7633923 L71.2395319,19.7442444 Z M65.0052766,60.7967796 L69.4765532,18.1921176 L81.8908085,15.1974486 L81.6093191,16.6624204 C80.3186809,23.3791176 79.2814468,29.6023641 78.5218723,35.186688 L81.1025106,34.4612514 L82.8916596,17.32185 L95.3059149,14.327181 L95.027617,15.7908711 C92.0595319,31.356357 90.3750638,44.704519 90.0214468,55.4655894 L89.9997447,56.1391176 L78.4242128,59.9252303 L80.0333617,44.3007866 C79.2737872,44.514188 78.3629362,44.7705261 77.3008085,45.0678782 C76.9222979,49.4358782 76.6886809,53.2219908 76.6050638,56.3307303 L76.5871915,57.0081035 L65.0052766,60.7967796 Z" id="Fill-34" fill="#262626"></path>
            <path d="M102.089106,12.419257 L113.997191,13.6362218 C111.239745,19.4608627 109.230383,24.0044542 107.969106,27.268919 C106.255915,31.7375317 104.792298,36.5489965 103.576979,41.7052359 L95.7201702,41.8737782 L102.089106,12.419257 Z M97.9842128,48.0361444 C99.2869787,47.7625035 100.465277,47.8746514 101.516553,48.3745106 C102.757404,48.9006444 103.419319,49.8048768 103.502298,51.0872077 C103.613362,52.823257 102.794426,54.4676655 101.046128,56.0204331 C99.690383,57.245088 98.1750638,58.0256373 96.4982553,58.3614401 C95.1578298,58.6382852 93.9820851,58.5620246 92.9742128,58.1365035 C91.7710213,57.6084472 91.1269787,56.7029331 91.044,55.4199613 C90.9329362,53.6845528 91.7122979,52.0228415 93.384,50.43675 C94.7365532,49.1749261 96.270383,48.3738697 97.9842128,48.0361444 Z" id="Fill-36" fill="#F9E593"></path>
            <path d="M102.843383,13.4624887 L96.9135957,40.8868127 L102.818489,40.7599254 C104.005085,35.8510521 105.436149,31.1997986 107.075936,26.9240803 C108.250404,23.8839113 110.090617,19.6940662 112.551894,14.4551577 L102.843383,13.4624887 Z M94.5276383,42.8612563 L101.335085,11.3758972 L115.44466,12.8184394 L114.861894,14.0495028 C112.128064,19.8235169 110.109128,24.3882563 108.861894,27.6168338 C107.173596,32.0194394 105.708702,36.8347493 104.508702,41.9269042 L104.338277,42.6497775 L94.5276383,42.8612563 Z M99.3167872,48.8512352 C98.954234,48.8512352 98.5763617,48.893531 98.1799787,48.9768408 L98.1691277,48.9787634 C96.6416809,49.2806014 95.2508298,50.0073197 94.0355106,51.1409746 C92.5750851,52.5271225 91.9067872,53.9087845 91.9999787,55.3577352 C92.0593404,56.2843972 92.4787021,56.8694887 93.3576383,57.2552775 C94.1689149,57.5981296 95.1646596,57.6551648 96.3059362,57.4199746 C97.8078511,57.1194183 99.1859362,56.4080803 100.406362,55.3058268 C101.940191,53.9427493 102.638489,52.5847986 102.546574,51.1493056 C102.487213,50.2290521 102.055085,49.6458831 101.144234,49.2600944 C100.565936,48.9858127 99.9646596,48.8512352 99.3167872,48.8512352 Z M94.9980638,59.4854183 C94.1344468,59.4854183 93.333383,59.3309746 92.6025319,59.0220873 C91.059766,58.3453549 90.1948723,57.1226225 90.0889149,55.4820592 C89.9587021,53.4544254 90.8465745,51.5222775 92.7263617,49.7375239 C94.2116809,48.3532986 95.9146596,47.4657282 97.7944468,47.0933972 C99.2982766,46.7787423 100.689128,46.9178056 101.926149,47.5061014 C103.46317,48.1559183 104.351043,49.3786507 104.457638,51.0249817 C104.587851,53.0654324 103.654021,54.9879676 101.681043,56.7406789 C100.207213,58.0710732 98.5240213,58.9355732 96.6863617,59.3047 C96.1010426,59.4251789 95.5374255,59.4854183 94.9980638,59.4854183 Z" id="Fill-38" fill="#262626"></path>
        </g>
    </g>
</svg>