<?xml version="1.0" encoding="UTF-8"?>
<svg width="120px" height="120px" viewBox="0 0 120 120" version="1.1" xmlns="http://www.w3.org/2000/svg" xmlns:xlink="http://www.w3.org/1999/xlink">
    <!-- Generator: Sketch 51.1 (57501) - http://www.bohemiancoding.com/sketch -->
    <title>Baby7</title>
    <desc>Created with Sketch.</desc>
    <defs></defs>
    <g id="Baby7" stroke="none" stroke-width="1" fill="none" fill-rule="evenodd">
        <g id="Group-169" transform="translate(60.500000, 60.500000) scale(-1, 1) translate(-60.500000, -60.500000) translate(6.000000, 1.000000)">
            <path d="M12.4010735,103.772324 C15.33225,107.078811 17.7668088,110.635027 14.7175441,112.222595 L14.7175441,112.237189 C11.2428382,113.296108 6.97710294,111.560973 4.82077941,109.032865 C2.81327941,106.683135 -1.84877941,99.7896216 1.72783824,97.8047568 C2.94430882,97.5388108 6.25886765,97.7025946 12.4010735,103.772324" id="Fill-273" fill="#C8C9C9"></path>
            <path d="M10.5686029,99.7294595 C10.5686029,99.7294595 20.3327206,105.609459 17.6490441,110.385135 C16.8143382,111.312703 15.8033088,111.914324 14.7178676,112.237027 L14.7178676,112.222432 C17.7671324,110.636486 15.3325735,107.078649 12.4013971,103.772162 C6.25757353,97.7024324 2.94463235,97.5386486 1.72816176,97.8045946 C1.74272059,97.79 1.75727941,97.79 1.77183824,97.7754054 C5.43742647,95.8067568 10.5686029,99.7294595 10.5686029,99.7294595" id="Fill-275" fill="#888889"></path>
            <path d="M50.5199559,83.1221081 L50.6364265,85.4004865 C48.1905441,87.2377838 46.1215735,85.7685946 46.1215735,85.7685946 L45.9905441,83.8275135 C47.9834853,83.9896757 49.4490735,83.6507568 50.5199559,83.1221081" id="Fill-277" fill="#604C3F"></path>
            <path d="M49.2151618,67.8812973 L49.4206029,69.1153514 C46.9714853,70.0850811 44.4058971,68.7472432 44.4058971,68.7472432 C45.9151618,68.9385946 47.6169265,68.5721081 49.2151618,67.8812973" id="Fill-279" fill="#604C3F"></path>
            <path d="M99.6354412,117.98373 C99.3410294,118.056703 99.0482353,118.100486 98.77,118.147514 L98.77,118.100486 C98.77,118.100486 95.3551471,117.615622 96.7042647,113.809676 C98.0372059,110.018324 102.566618,99.481027 108.065,101.684811 C110.630588,104.021568 103.666618,116.999405 99.6354412,117.98373" id="Fill-281" fill="#C8C9C9"></path>
            <path d="M108.065,101.685135 C102.568235,99.4813514 98.0372059,110.018649 96.7042647,113.81 C95.3551471,117.615946 98.77,118.100811 98.77,118.100811 L98.77,118.146216 C95.3260294,118.556486 93.6388235,116.146757 93.6388235,116.146757 C92.2897059,108.002973 96.0733824,105.020811 97.2316176,104.315405 L97.1863235,104.242432 C98.6082353,103.449459 105.763088,99.5981081 108.065,101.685135" id="Fill-283" fill="#888889"></path>
            <path d="M96.9373676,104.388378 C96.9373676,104.388378 97.0263382,104.33 97.1864853,104.242432 L97.2317794,104.315405 C96.0735441,105.020811 92.2898676,108.002973 93.6389853,116.146757 C79.4764853,117.732703 48.8042794,112.222432 45.7550147,111.002973 C42.6911912,109.767297 39.8910441,109.400811 35.7272206,109.90027 C31.5779559,110.385135 17.6500147,110.385135 17.6500147,110.385135 C20.3336912,105.609459 10.5679559,99.7294595 10.5679559,99.7294595 C15.4936912,94.1154054 22.1373676,92.4678378 22.9429559,92.2781081 C23.0756029,93.1602703 23.67575,94.0424324 25.5958971,93.9678378 C29.3779559,93.8510811 41.35825,88.957027 46.6058971,90.4278378 C51.8551618,91.897027 72.6306029,96.1748649 72.6306029,96.1748649 C72.6306029,96.1748649 72.3798676,97.0408108 73.4798676,97.5256757 C74.5798676,98.0105405 75.1961912,99.4813514 74.5798676,101.317027 C73.8745735,103.464054 73.8470735,108.298108 80.5764853,108.298108 C87.2897206,108.298108 87.7750147,98.8781081 87.7750147,98.8781081 C92.0553088,100.215946 96.9373676,104.388378 96.9373676,104.388378" id="Fill-285" fill="#74B9BE"></path>
            <path d="M29.8634118,89.324973 C31.6379706,89.0752432 33.2653235,88.6487568 34.7454706,88.1038919 C31.8563529,91.2060541 26.6960588,91.279027 23.1485588,90.559027 C22.9431176,90.5152432 22.7376765,90.4714595 22.5322353,90.4276757 C13.1337059,87.7228108 13.8665,74.1271351 20.0976765,68.6152432 C25.4779706,63.8541622 32.0472353,63.8541622 33.7344412,63.9433514 C35.1547353,64.3536216 36.5038529,64.5011892 37.6912059,64.5741622 C37.6912059,64.5741622 37.324,67.8806486 44.4060588,68.7482162 C40.4913529,70.2174054 39.5256176,72.5395676 39.5256176,72.5395676 L32.7945882,72.5395676 C23.5141471,70.0860541 19.1157647,75.5963243 18.6320882,80.5065946 C18.1338529,85.4006486 21.9320882,90.4276757 29.8634118,89.324973" id="Fill-287" fill="#CAE2AD"></path>
            <path d="M23.1479118,90.5587027 C26.6954118,91.2787027 31.8573235,91.2057297 34.7448235,88.1035676 C39.9358529,86.2808649 43.1905588,83.3132973 43.1905588,83.3132973 C44.2307059,83.5922162 45.1543824,83.7543784 45.9907059,83.8273514 L46.1217353,85.7684324 C46.1217353,85.7684324 48.1890882,87.2376216 50.6365882,85.4003243 L50.5201176,83.1219459 C52.4273235,82.1668108 53.1601176,80.6084324 53.571,80.1381622 C54.3037941,79.2722162 54.0530588,76.4651892 53.6874706,74.8614054 C53.3202647,73.2754595 52.471,72.2895135 52.3529118,70.7035676 C52.2218824,69.1143784 50.6365882,68.7478919 49.4201176,69.1143784 L49.2146765,67.8819459 C49.3036471,67.8511351 49.3926176,67.808973 49.4783529,67.7635676 C50.4165882,68.1170811 53.3073235,69.0868108 56.6186471,68.983027 C56.6186471,68.983027 58.0405588,69.6884324 60.4023235,70.3808649 C65.1226176,71.7608649 73.5683529,73.1295135 81.8215882,68.8662703 C83.2305588,69.4241081 89.6364412,72.4224865 92.7892353,81.1095135 C93.2729118,82.3435676 93.4055588,84.6657297 92.1729118,83.5646486 C86.0727647,81.1095135 78.3776176,87.3543784 78.3776176,87.3543784 C79.476,95.4381622 76.6612941,94.2187027 74.8285,93.968973 C72.9957059,93.7338378 72.6301176,96.1743784 72.6301176,96.1743784 C72.6301176,96.1743784 51.8546765,91.8965405 46.6054118,90.4273514 C41.3577647,88.9581622 29.3790882,93.8505946 25.5970294,93.968973 C23.6752647,94.0419459 23.0751176,93.1597838 22.9424706,92.2792432 C22.826,91.4846486 23.1042353,90.6900541 23.1479118,90.5587027" id="Fill-289" fill="#CAE2AD"></path>
            <path d="M85.0908529,63.7211892 C85.0617353,65.192 85.5308529,65.8665946 86.3380588,65.8974054 C84.8562941,67.1022703 83.3470294,68.0736216 81.8215882,68.8665946 C73.5683529,73.1298378 65.1226176,71.7611892 60.4023235,70.3795676 L60.4168824,70.3357838 C61.1496765,45.2330811 84.4761471,54.5363243 84.4761471,54.5363243 C84.4761471,54.5363243 85.2089412,58.9455135 85.0908529,63.7211892" id="Fill-291" fill="#FCE2AE"></path>
            <path d="M33.7337941,63.9428649 C30.6101176,63.0752973 27.0626176,61.0044865 23.6315882,55.8882703 C21.4170294,52.5655676 20.6405588,48.5536757 20.626,44.7331351 L20.8314412,44.7331351 C20.8314412,44.7331351 30.581,44.7331351 34.8920294,56.4898919 C34.7302647,57.9007027 34.9793824,59.4152973 35.7720294,60.9736757 C36.3867353,62.1639459 37.2230588,63.1920541 38.5430588,63.6039459 C37.9267353,63.8407027 37.6905588,64.5752973 37.6905588,64.5752973 C36.5048235,64.5023243 35.1557059,64.3531351 33.7337941,63.9428649" id="Fill-293" fill="#FCE2AE"></path>
            <path d="M34.8917059,56.4903784 C35.5808235,50.7887568 43.1174412,46.8936216 48.8050882,48.9060541 C51.2978824,49.7882162 53.6127353,51.7730811 55.0945,53.9330811 C57.3236176,57.2103784 56.5746471,61.3552432 54.1708235,64.3244324 C53.0853824,65.6622703 51.3561176,66.9255135 49.4796471,67.7638919 C49.2758235,67.6892973 49.1706765,67.6455135 49.1706765,67.6455135 L49.2143529,67.8806486 C47.6161176,68.5714595 45.9143529,68.9395676 44.4067059,68.7482162 C37.3246471,67.8806486 37.6902353,64.5741622 37.6902353,64.5741622 C37.6902353,64.5741622 37.9264118,63.8395676 38.5427353,63.6044324 C37.2227353,63.1925405 36.3864118,62.1644324 35.7717059,60.9741622 C34.9790588,59.4157838 34.7299412,57.9011892 34.8917059,56.4903784" id="Fill-295" fill="#E95515"></path>
            <path d="M51.8406029,44.5276757 C52.00075,44.7774054 51.9279559,45.1292973 51.6642794,45.2768649 C51.5914853,45.3352432 51.5025147,45.3498378 51.4297206,45.3660541 C51.2242794,45.379027 51.0188382,45.2914595 50.90075,45.1017297 C50.0514853,43.7038919 49.1116324,42.9401081 48.0989853,42.8363243 C46.7239853,42.6741622 45.6385441,43.8076757 45.6239853,43.8076757 C45.4169265,44.0265946 45.0675147,44.0428108 44.8458971,43.8352432 C44.6275147,43.6163243 44.6275147,43.2644324 44.8313382,43.0422703 C44.8895735,42.9838919 46.3114853,41.5292973 48.2186912,41.7336216 C49.5823676,41.8811892 50.7972206,42.8217297 51.8406029,44.5276757" id="Fill-297" fill="#FCE2AE"></path>
            <path d="M63.5827794,40.2060541 C63.5827794,41.1628108 62.8208676,41.9265946 61.8826324,41.9265946 C60.9282206,41.9265946 60.1679265,41.1628108 60.1679265,40.2060541 C60.1679265,39.2671351 60.9282206,38.4855135 61.8826324,38.4855135 C62.8208676,38.4855135 63.5827794,39.2671351 63.5827794,40.2060541" id="Fill-299" fill="#FEFEFE"></path>
            <path d="M34.8774706,39.1038378 C33.9392353,39.1038378 33.1611471,38.3400541 33.1611471,37.3832973 C33.1611471,36.4443784 33.9392353,35.6805946 34.8774706,35.6805946 C35.8157059,35.6805946 36.5921765,36.4443784 36.5921765,37.3832973 C36.5921765,38.3400541 35.8157059,39.1038378 34.8774706,39.1038378" id="Fill-301" fill="#FEFEFE"></path>
            <path d="M63.1578235,34.8122162 C65.6926765,34.8122162 67.7470882,36.8716757 67.7470882,39.4127568 C67.7470882,41.9408649 65.6926765,43.9987027 63.1578235,43.9987027 C60.6359118,43.9987027 58.5847353,41.9408649 58.5847353,39.4127568 C58.5847353,36.8716757 60.6359118,34.8122162 63.1578235,34.8122162 M61.8831176,41.9262703 C62.8213529,41.9262703 63.5832647,41.1624865 63.5832647,40.2057297 C63.5832647,39.2668108 62.8213529,38.4868108 61.8831176,38.4868108 C60.9287059,38.4868108 60.1667941,39.2668108 60.1667941,40.2057297 C60.1667941,41.1624865 60.9287059,41.9262703 61.8831176,41.9262703" id="Fill-303" fill="#3F3A3A"></path>
            <path d="M33.1619559,37.3841081 C33.1619559,38.3408649 33.9384265,39.1046486 34.8782794,39.1046486 C35.8165147,39.1046486 36.5913676,38.3408649 36.5913676,37.3841081 C36.5913676,36.4451892 35.8165147,35.6797838 34.8782794,35.6797838 C33.9384265,35.6797838 33.1619559,36.4451892 33.1619559,37.3841081 M36.1529853,41.1916757 C33.6310735,41.1916757 31.5782794,39.1322162 31.5782794,36.5911351 C31.5782794,34.063027 33.6310735,32.0051892 36.1529853,32.0051892 C38.6894559,32.0051892 40.74225,34.063027 40.74225,36.5911351 C40.74225,39.1322162 38.6894559,41.1916757 36.1529853,41.1916757" id="Fill-305" fill="#3F3A3A"></path>
            <path d="M92.17275,83.5638378 C92.17275,83.5638378 93.5218676,93.2335676 87.7743676,98.8768108 C87.7743676,98.8768108 87.2890735,108.298432 80.5758382,108.298432 C73.8464265,108.298432 73.8739265,103.462757 74.5792206,101.317351 C75.1955441,99.4800541 74.5792206,98.0108649 73.4792206,97.5243784 C72.3808382,97.0411351 72.6299559,96.1735676 72.6299559,96.1735676 C72.6299559,96.1735676 72.9971618,93.733027 74.8283382,93.9681622 C76.6611324,94.2178919 79.4758382,95.4373514 78.3774559,87.3551892 C78.3774559,87.3551892 86.0726029,81.1087027 92.17275,83.5638378" id="Fill-307" fill="#FCE2AE"></path>
            <path d="M34.7448235,88.1040541 C33.2646765,88.6489189 31.6373235,89.0754054 29.8627647,89.3251351 C21.9314412,90.4278378 18.1332059,85.4008108 18.6330588,80.5051351 C19.1167353,75.5964865 23.5151176,70.0862162 32.7955588,72.5397297 L39.5249706,72.5397297 C39.5249706,72.5397297 40.4923235,70.2175676 44.4070294,68.7467568 C44.4070294,68.7467568 46.9726176,70.0862162 49.4201176,69.1148649 C50.6365882,68.7467568 52.2218824,69.1148649 52.3529118,70.7040541 C52.471,72.29 53.3202647,73.2743243 53.6874706,74.8618919 C54.0546765,76.4640541 54.3037941,79.2727027 53.571,80.1386486 C53.1601176,80.6089189 52.4273235,82.1672973 50.5201176,83.1224324 C49.4492353,83.6510811 47.9836471,83.99 45.9907059,83.8262162 C45.1543824,83.7532432 44.2307059,83.5927027 43.1905588,83.3137838 C43.1905588,83.3137838 39.9358529,86.2813514 34.7448235,88.1040541" id="Fill-309" fill="#FCE2AE"></path>
            <path d="M32.6769853,29.4326486 C33.2933088,30.6537297 35.8588971,27.7121081 37.4425735,29.1845405 C39.02625,30.6537297 40.3753676,31.3883243 40.0081618,30.0358919 C40.0081618,30.0358919 38.9097794,27.5953514 36.2244853,27.3456216 C33.5278676,27.0975135 32.0622794,28.1985946 32.6769853,29.4326486 M36.1516912,32.0045405 C33.6313971,32.0045405 31.5769853,34.0623784 31.5769853,36.5904865 C31.5769853,39.1315676 33.6313971,41.191027 36.1516912,41.191027 C38.6897794,41.191027 40.7409559,39.1315676 40.7409559,36.5904865 C40.7409559,34.0623784 38.6897794,32.0045405 36.1516912,32.0045405 M35.1261029,26.2429189 C36.9572794,23.0548108 47.0902206,19.7467027 47.0902206,19.7467027 C43.67375,23.4229189 45.8721324,26.8607568 45.8721324,26.8607568 C48.4377206,23.1861622 58.3344853,21.9521081 58.3344853,21.9521081 C59.4344853,24.4056216 58.3344853,28.8164324 58.3344853,28.8164324 C63.4656618,27.3456216 66.3984559,24.2888649 66.3984559,24.2888649 C72.0133088,26.1261622 76.4116912,33.5921081 76.7788971,37.7515676 C77.1444853,41.9256216 78.1280147,41.6758919 80.3263971,39.7218378 C82.5247794,37.7515676 88.6394853,37.3834595 90.2231618,45.4688649 C91.8068382,53.551027 84.4756618,54.5353514 84.4756618,54.5353514 C84.4756618,54.5353514 61.1508088,45.2321081 60.4163971,70.3364324 L60.4034559,70.3802162 C58.0416912,69.6877838 56.6197794,68.984 56.6197794,68.984 C53.3068382,69.0861622 50.4177206,68.1164324 49.4794853,67.7645405 C51.3559559,66.9245405 53.0852206,65.6629189 54.1706618,64.3250811 C56.5744853,61.3558919 57.3234559,57.211027 55.0943382,53.9321081 C53.6125735,51.7721081 51.2977206,49.7888649 48.8049265,48.9067027 C43.1172794,46.8942703 35.5806618,50.7894054 34.8915441,56.491027 C30.5805147,44.7342703 20.8309559,44.7342703 20.8309559,44.7342703 L20.6255147,44.7342703 C20.6125735,39.9553514 21.8144853,35.4877838 22.8983088,33.1072432 C24.7456618,29.0791351 25.4946324,26.5656216 25.5819853,26.2737297 C25.5965441,26.2575135 25.5965441,26.2429189 25.5965441,26.2429189 C28.3093382,22.9218378 35.5078676,20.1748108 35.9624265,20.011027 C34.1441912,23.3175135 35.1261029,26.2429189 35.1261029,26.2429189 M67.7475735,39.4121081 C67.7475735,36.871027 65.6931618,34.8115676 63.1583088,34.8115676 C60.6363971,34.8115676 58.5852206,36.871027 58.5852206,39.4121081 C58.5852206,41.9402162 60.6363971,43.9980541 63.1583088,43.9980541 C65.6931618,43.9980541 67.7475735,41.9402162 67.7475735,39.4121081 M67.8219853,32.3856216 C68.5240441,31.2115676 67.1458088,30.0067027 64.4491912,30.0504865 C61.7509559,30.0942703 60.47625,32.4618378 60.47625,32.4618378 C60.0071324,33.7834595 61.3983088,33.1526486 63.0855147,31.8002162 C64.7872794,30.4477838 67.13125,33.5645405 67.8219853,32.3856216" id="Fill-311" fill="#FCE2AE"></path>
            <path d="M64.4485441,30.0503243 C67.1451618,30.0065405 68.5250147,31.2114054 67.8213382,32.3854595 C67.1306029,33.5643784 64.7866324,30.4476216 63.0848676,31.8000541 C61.3976618,33.1524865 60.0064853,33.7832973 60.4756029,32.4616757 C60.4756029,32.4616757 61.7503088,30.0941081 64.4485441,30.0503243" id="Fill-313" fill="#B18247"></path>
            <path d="M32.6769853,29.4326486 C32.0622794,28.1985946 33.5278676,27.0975135 36.2244853,27.3456216 C38.9097794,27.5953514 40.0081618,30.0358919 40.0081618,30.0358919 C40.3753676,31.3883243 39.02625,30.6537297 37.4425735,29.1845405 C35.8588971,27.7121081 33.2933088,30.6537297 32.6769853,29.4326486" id="Fill-315" fill="#B18247"></path>
            <path d="M35.96275,20.0118378 C35.5081912,20.1756216 28.3096618,22.9226486 25.5968676,26.2437297 C25.5968676,26.2437297 25.5968676,26.2583243 25.5823088,26.2729189 C25.4189265,26.4934595 24.4386324,27.9496757 23.7640735,27.7129189 C23.0312794,27.4648108 18.8674559,10.0777838 46.4887794,1.37616216 C54.1855441,-1.06275676 67.9824559,0.273459459 74.2136324,4.31616216 C74.2136324,4.31616216 72.7464265,0.273459459 70.1808382,0.0399459459 C70.1808382,0.0399459459 82.0414265,-0.946 86.0742206,9.34156757 C86.0742206,9.34156757 96.7037794,12.2815676 98.5365735,23.5550811 C98.5365735,23.5550811 96.82025,21.4664324 94.6218676,21.7177838 C94.6218676,21.7177838 104.400544,41.426973 94.3711324,58.4604865 C91.4981912,62.8550811 88.1108382,65.9718378 86.3378971,65.8972432 C85.5323088,65.8664324 85.0631912,65.1918378 85.0906912,63.721027 C85.2087794,58.9453514 84.4759853,54.5361622 84.4759853,54.5361622 C84.4759853,54.5361622 91.8055441,53.5518378 90.2234853,45.4680541 C88.6381912,37.3842703 82.5251029,37.7507568 80.3267206,39.721027 C78.1267206,41.6750811 77.1448088,41.9264324 76.7776029,37.7507568 C76.4120147,33.5929189 72.0136324,26.126973 66.3971618,24.2896757 C66.3971618,24.2896757 63.4659853,27.3448108 58.3348088,28.8172432 C58.3348088,28.8172432 59.4348088,24.4064324 58.3348088,21.9512973 C58.3348088,21.9512973 48.4380441,23.186973 45.8724559,26.8615676 C45.8724559,26.8615676 43.6740735,23.4237297 47.0905441,19.7475135 C47.0905441,19.7475135 36.9576029,23.0556216 35.1248088,26.2437297 C35.1248088,26.2437297 34.1445147,23.3183243 35.96275,20.0118378" id="Fill-317" fill="#B18247"></path>
            <path d="M35.1254559,26.2432432 C35.1254559,26.2432432 40.7629559,23.4654054 45.2875147,23.0648649 C45.4913382,22.0497297 46.0073676,20.9097297 47.0895735,19.747027 C47.0895735,19.747027 36.95825,23.0551351 35.1254559,26.2432432" id="Fill-319" fill="#FBD698"></path>
            <path d="M35.1854706,21.9707568 C35.3537059,21.3448108 35.5882647,20.6929189 35.9619412,20.0118378 C35.6092941,20.1383243 31.1995882,21.8248108 27.9723824,24.1258919 C29.9216471,23.3750811 32.6328235,22.4491351 35.1854706,21.9707568" id="Fill-321" fill="#FBD698"></path>
            <path d="M45.8724559,26.8609189 C45.8724559,26.8609189 54.3003971,23.7279459 58.81525,24.482 C58.7893676,23.5787568 58.6615735,22.6803784 58.3348088,21.9522703 C58.3348088,21.9522703 48.4380441,23.1863243 45.8724559,26.8609189" id="Fill-323" fill="#FBD698"></path>
            <path d="M48.0997941,42.8364865 C49.1124412,42.9402703 50.0506765,43.7040541 50.8999412,45.1002703 C51.0196471,45.2916216 51.2250882,45.3791892 51.4305294,45.3662162 C51.5033235,45.35 51.5906765,45.3354054 51.6634706,45.277027 C51.9271471,45.1294595 51.9999412,44.7775676 51.8414118,44.5278378 C50.7980294,42.8218919 49.5815588,41.8813514 48.2178824,41.7337838 C46.3122941,41.5294595 44.8903824,42.9840541 44.8305294,43.0424324 C44.6283235,43.2645946 44.6283235,43.6164865 44.8450882,43.8354054 C45.0667059,44.042973 45.4177353,44.0267568 45.6247941,43.8078378 C45.6393529,43.8078378 46.7231765,42.6743243 48.0997941,42.8364865" id="Fill-329" fill="#FAD08C"></path>
            <path d="M94.6213824,21.7172973 C96.8197647,21.4675676 98.5360882,23.5545946 98.5360882,23.5545946 C96.7032941,12.2827027 86.0737353,9.34108108 86.0737353,9.34108108 C96.5852059,33.8389189 80.6934412,27.4675676 73.1196176,22.3237838 C65.5425588,17.18 54.5474118,18.8956757 50.3932941,20.8545946 C46.2391765,22.8135135 47.4621176,18.8956757 47.4621176,18.8956757 C47.1369706,19.2556757 46.8409412,19.5897297 46.5255,19.94 C46.8749118,19.82 47.0900588,19.747027 47.0900588,19.747027 C43.6735882,23.4232432 45.8719706,26.8610811 45.8719706,26.8610811 C48.4375588,23.1864865 58.3343235,21.9524324 58.3343235,21.9524324 C59.4343235,24.4059459 58.3343235,28.8167568 58.3343235,28.8167568 C63.4655,27.3459459 66.3982941,24.2891892 66.3982941,24.2891892 C72.0131471,26.1264865 76.4115294,33.5924324 76.7787353,37.7518919 C77.1443235,41.9259459 78.1278529,41.6762162 80.3262353,39.7221622 C82.5246176,37.7518919 88.6393235,37.3837838 90.223,45.4675676 C91.8066765,53.5513514 84.4771176,54.5356757 84.4771176,54.5356757 C84.4771176,54.5356757 85.2099118,58.9448649 85.0902059,63.7205405 C85.0627059,65.192973 85.5318235,65.8675676 86.3374118,65.8967568 C88.1119706,65.9713514 91.4977059,62.8545946 94.3722647,58.46 C104.400059,41.4264865 94.6213824,21.7172973 94.6213824,21.7172973" id="Fill-331" fill="#A57942"></path>
            <path d="M74.8289853,8.852 C55.3686912,8.672 47.9161912,4.18010811 45.3085441,1.77362162 C38.22325,4.1492973 33.3201618,7.10551351 29.9813382,10.1687568 C53.8254559,19.8417297 74.8289853,8.852 74.8289853,8.852" id="Fill-333" fill="#C6954B"></path>
            <path d="M55.0948235,53.9327568 C53.6130588,51.7727568 51.2965882,49.7878919 48.8037941,48.9057297 C55.7693824,56.8711351 51.921,61.8835676 44.0398235,64.088973 C41.6198235,64.7668108 39.7029118,64.5024865 38.2065882,63.8197838 C37.8442353,64.1278919 37.6905588,64.5738378 37.6905588,64.5738378 C37.6905588,64.5738378 37.3249706,67.8819459 44.4070294,68.7478919 C45.9146765,68.9392432 47.6164412,68.5711351 49.2146765,67.8819459 L49.171,67.6451892 C49.171,67.6451892 49.2745294,67.688973 49.4783529,67.7635676 C51.3548235,66.9251892 53.0857059,65.6619459 54.1711471,64.3241081 C56.5749706,61.3549189 57.3239412,57.2100541 55.0948235,53.9327568" id="Fill-335" fill="#D14B11"></path>
            <path d="M40.0084853,49.9437297 C38.6998088,51.9123784 37.2924559,54.9723784 37.7987794,57.3658919 C38.3649559,60.0496757 41.5420147,62.2664324 44.1496618,60.721027 C45.0134853,60.2102162 45.9565735,57.5021081 46.8430441,57.4712973 C48.0158382,57.4275135 47.7651029,59.2502162 47.15525,59.8615676 C44.6786324,62.3523784 41.2637794,63.9237297 38.3584853,61.1491351 C34.5117206,57.4761622 40.0084853,49.9437297 40.0084853,49.9437297" id="Fill-337" fill="#D14B11"></path>
            <path d="M39.4586471,54.1687027 C39.4586471,54.1687027 41.2914412,50.3108649 45.8726176,50.4941081 C47.521,50.8622162 47.7054118,52.1481622 46.2382059,52.3314054 C44.7726176,52.5146486 42.5742353,53.2508649 42.7570294,55.4546486 C42.9398235,57.6584324 43.1242353,59.3124865 41.8414412,59.3124865 C40.5586471,59.3124865 37.9930588,58.7611351 39.4586471,54.1687027" id="Fill-339" fill="#FEFEFE"></path>
            <path d="M55.0948235,53.9327568 C54.7437941,53.4235676 54.3426176,52.9224865 53.9090882,52.4441081 C53.9155588,52.4684324 53.9268824,52.4895135 53.9365882,52.5154595 C55.0932059,56.1154595 55.3762941,60.008973 53.0112941,63.1451892 C51.2302647,65.5078919 48.2117353,66.9851892 45.3015882,67.2332973 C43.9362941,67.3500541 42.681,67.2203243 41.4435,66.6041081 C40.2707059,66.0235676 39.4489412,64.3614054 38.4233529,63.9073514 C38.3505588,63.8765405 38.2761471,63.8505946 38.2065882,63.8197838 C37.8442353,64.1278919 37.6905588,64.5738378 37.6905588,64.5738378 C37.6905588,64.5738378 37.3249706,67.8819459 44.4070294,68.7478919 C45.9146765,68.9392432 47.6164412,68.5711351 49.2146765,67.8819459 L49.171,67.6451892 C49.171,67.6451892 49.2745294,67.688973 49.4783529,67.7635676 C51.3548235,66.9251892 53.0857059,65.6619459 54.1711471,64.3241081 C56.5749706,61.3549189 57.3239412,57.2100541 55.0948235,53.9327568" id="Fill-341" fill="#B84109"></path>
            <path d="M50.4536324,69.05 C50.7884853,69.05 51.1573088,69.1505405 51.5423088,69.3208108 C51.0149559,68.9916216 50.3161324,68.9235135 49.6723088,69.0613514 C49.9440735,69.0532432 50.2093676,69.05 50.4536324,69.05" id="Fill-343" fill="#FBD698"></path>
            <path d="M26.4464559,75.4795676 C33.4120441,76.0309189 41.4743971,74.3768649 43.1243971,71.804973 C43.9833676,70.4638919 45.3438088,69.7795676 46.7576324,69.4260541 C45.4101324,69.2703784 44.4071912,68.7482162 44.4071912,68.7482162 C40.4924853,70.2174054 39.5251324,72.5395676 39.5251324,72.5395676 L32.7957206,72.5395676 C24.40175,70.3211892 20.0146912,74.6152432 18.8920441,79.0892973 C20.2023382,77.2211892 22.5495441,75.1714595 26.4464559,75.4795676" id="Fill-345" fill="#FBD698"></path>
            <path d="M92.17275,83.5638378 C89.1946618,82.3654595 85.8412794,83.2427568 83.1818676,84.4524865 C86.4187794,84.5432973 89.8562794,85.4838378 88.9406912,89.258973 C87.2890735,96.0551892 87.8406912,101.198973 84.3578971,103.404378 C81.0853971,105.476811 76.3570147,105.43627 74.5824559,101.304378 C74.5824559,101.307622 74.5808382,101.312486 74.5792206,101.317351 C73.8739265,103.462757 73.8464265,108.298432 80.5758382,108.298432 C87.2890735,108.298432 87.7743676,98.8768108 87.7743676,98.8768108 C93.5218676,93.2335676 92.17275,83.5638378 92.17275,83.5638378" id="Fill-347" fill="#FBD698"></path>
            <path d="M52.3524265,70.7032432 C52.4527206,72.0605405 53.0755147,72.9978378 53.4863971,74.2286486 C56.8413971,74.0648649 62.5371324,73.8264865 67.13125,73.8264865 C72.0844853,73.8264865 81.5800735,68.9081081 87.6413971,72.8762162 C85.0936029,70.3237838 82.6315441,69.187027 81.8211029,68.8659459 C73.5678676,73.1291892 65.12375,71.7605405 60.4034559,70.3805405 C58.0416912,69.6881081 56.6197794,68.9827027 56.6197794,68.9827027 C53.3068382,69.0864865 50.4177206,68.1167568 49.4794853,67.7648649 C49.3921324,67.8086486 49.3031618,67.8508108 49.2158088,67.8816216 L49.42125,69.1156757 C50.6361029,68.7475676 52.2213971,69.1156757 52.3524265,70.7032432" id="Fill-349" fill="#B2C799"></path>
            <path d="M92.7889118,83.0111892 C92.8261176,83.2803784 92.8617059,83.5155135 92.8972941,83.7684865 C93.2952353,83.4409189 93.1383235,82.0009189 92.7889118,81.109027 C92.4945,80.2998378 92.1661176,79.5555135 91.8215588,78.8436216 C92.2259706,80.0517297 92.5575882,81.422 92.7889118,83.0111892" id="Fill-351" fill="#B2C799"></path>
            <path d="M76.2948971,83.1963784 C75.3793088,79.3369189 72.6293088,77.8677297 72.0809265,82.0920541 C71.5309265,86.3196216 65.4809265,92.3812432 56.5029853,91.4634054 C49.5034265,90.7466486 53.3016618,88.3563784 52.6271029,81.4190811 C52.15475,81.9963784 51.4915147,82.6352973 50.5193088,83.1217838 L50.6373971,85.4001622 C48.1898971,87.2374595 46.1225441,85.7682703 46.1225441,85.7682703 L45.9915147,83.8271892 C45.1535735,83.7542162 44.2315147,83.5920541 43.18975,83.3131351 C43.18975,83.3131351 39.9350441,86.2807027 34.7440147,88.1034054 C31.8565147,91.2055676 26.6962206,91.2785405 23.1487206,90.5585405 C23.1034265,90.6898919 22.8251912,91.4844865 22.9432794,92.2790811 C23.0759265,93.1612432 23.6760735,94.0417838 25.5962206,93.9688108 C29.3782794,93.8504324 41.3569559,88.958 46.6046029,90.4271892 C51.8554853,91.8963784 72.6293088,96.1742162 72.6293088,96.1742162 C72.6293088,96.1742162 72.9965147,93.7336757 74.8293088,93.9688108 C76.5812206,94.2071892 79.2244559,95.3131351 78.4884265,88.3369189 C77.8753382,87.4352973 76.8934265,85.7147568 76.2948971,83.1963784" id="Fill-353" fill="#B2C799"></path>
            <path d="M23.69775,66.2945405 C31.6323088,63.1696757 38.4539265,68.1594054 41.1473088,70.5885946 C41.8914265,69.9675135 42.9412794,69.2994054 44.4068676,68.7480541 C37.3248088,67.8821081 37.6903971,64.574 37.6903971,64.574 C36.5046618,64.5026486 35.1555441,64.3534595 33.7336324,63.9431892 C32.30525,63.8685946 27.3778971,63.8685946 22.6349559,66.7567027 C22.9843676,66.5929189 23.3370147,66.4356216 23.69775,66.2945405" id="Fill-355" fill="#B2C799"></path>
            <path d="M97.2311324,104.315568 L97.1874559,104.242595 C97.0256912,104.330162 96.9367206,104.388541 96.9367206,104.388541 C96.9367206,104.388541 92.0562794,100.216108 87.7743676,98.8766486 C87.7743676,98.8766486 87.2890735,108.29827 80.5758382,108.29827 C73.8464265,108.29827 73.8755441,103.464216 74.5792206,101.317189 C75.1955441,99.4815135 74.5792206,98.0107027 73.4792206,97.5258378 C72.3808382,97.040973 72.6299559,96.1734054 72.6299559,96.1734054 C72.6299559,96.1734054 51.8545147,91.8971892 46.60525,90.428 C44.1221618,89.7307027 40.1314265,90.4636757 36.2151029,91.4398919 C38.4231912,91.6847568 40.4986324,92.2912432 41.1084853,93.668 C42.5740735,96.9744865 32.6773088,96.6063784 29.3789265,100.096108 C26.5140735,103.130162 15.2342206,98.1339459 10.8681912,99.4101622 C10.7695147,99.5188108 10.6659853,99.6193514 10.5689265,99.7296216 C10.5689265,99.7296216 20.3330441,105.609622 17.6493676,110.385297 C17.6493676,110.385297 31.5773088,110.385297 35.7265735,109.900432 C39.8920147,109.400973 42.6905441,109.767459 45.7559853,111.003135 C48.8036324,112.222595 79.4758382,117.732865 93.6383382,116.146919 C92.2892206,108.003135 96.0728971,105.020973 97.2311324,104.315568" id="Fill-357" fill="#68A7AC"></path>
            <path d="M97.2311324,104.315568 L97.1874559,104.242595 C97.0256912,104.330162 96.9367206,104.388541 96.9367206,104.388541 C96.9367206,104.388541 92.0562794,100.216108 87.7743676,98.8766486 C87.7743676,98.8766486 87.2890735,108.29827 80.5758382,108.29827 C73.8464265,108.29827 73.8755441,103.464216 74.5792206,101.317189 C75.1955441,99.4815135 74.5792206,98.0107027 73.4792206,97.5258378 C72.3808382,97.040973 72.6299559,96.1734054 72.6299559,96.1734054 C72.6299559,96.1734054 64.9849559,94.5988108 57.7993676,93.0323243 C59.8958382,94.0604324 61.8256912,95.2717838 62.9159853,96.6063784 C66.2143676,100.647459 71.8971618,98.4436757 71.8971618,102.669622 C71.8971618,106.895568 74.2799559,110.936649 80.3267206,111.304757 C86.3734853,111.671243 89.8562794,115.529081 84.1751029,115.345838 C78.4939265,115.160973 45.3224559,105.05827 37.2601029,107.262054 C29.8755441,109.280973 16.5251029,100.233946 10.9442206,99.3955676 C10.9199559,99.4020541 10.8908382,99.4036757 10.8681912,99.4101622 C10.7695147,99.5188108 10.6659853,99.6193514 10.5689265,99.7296216 C10.5689265,99.7296216 20.3330441,105.609622 17.6493676,110.385297 C17.6493676,110.385297 31.5773088,110.385297 35.7265735,109.900432 C39.8920147,109.400973 42.6905441,109.767459 45.7559853,111.003135 C48.8036324,112.222595 79.4758382,117.732865 93.6383382,116.146919 C92.2892206,108.003135 96.0728971,105.020973 97.2311324,104.315568" id="Fill-359" fill="#609BA0"></path>
        </g>
    </g>
</svg>