<?xml version="1.0" encoding="UTF-8"?>
<svg width="120px" height="120px" viewBox="0 0 120 120" version="1.1" xmlns="http://www.w3.org/2000/svg" xmlns:xlink="http://www.w3.org/1999/xlink">
    <!-- Generator: Sketch 51.1 (57501) - http://www.bohemiancoding.com/sketch -->
    <title>Boy2</title>
    <desc>Created with Sketch.</desc>
    <defs>
        <polygon id="path-1" points="0.191705466 0.284100667 12.8591144 0.284100667 12.8591144 5.57333333 0.191705466 5.57333333"></polygon>
    </defs>
    <g id="Boy2" stroke="none" stroke-width="1" fill="none" fill-rule="evenodd">
        <g id="Group-119" transform="translate(30.000000, 0.000000)">
            <path d="M15.3818,113.219094 L15.3773,113.219094 L25.14905,113.219094 L25.1378,113.219094 C25.2008,113.486264 25.05455,113.744377 24.87455,114.020604 C24.2963,114.919472 23.35805,115.582868 22.49855,116.18966 C21.1778,117.099849 19.5038,117.588906 18.04355,118.288528 C16.7183,118.852302 14.9768,119.902868 13.79105,118.571547 C12.22505,116.680981 13.5548,114.355698 15.3818,113.219094" id="Fill-1000" fill="#E7C59F"></path>
            <path d="M16.78805,113.604906 C15.2603,114.476604 14.2613,113.983019 13.85855,114.535472 C12.9788,115.737736 12.68855,117.279623 13.76405,118.579245 C14.9498,119.91283 16.6913,118.896226 18.0143,118.336981 C19.4768,117.63283 21.1508,117.161887 22.4738,116.253962 C23.3288,115.649434 24.33455,114.929434 24.9128,114.030566 C25.0928,113.756604 25.3628,113.260755 25.1108,113.152075 C23.5448,113.129434 19.07405,116.616226 16.78805,113.604906" id="Fill-1002" fill="#0771B7"></path>
            <path d="M16.6517,114.014943 L16.61795,113.937962 L16.5527,113.983245 C16.21745,114.225509 15.58295,114.31834 14.9642,114.408906 C14.48045,114.479094 14.04395,114.542491 13.76045,114.676075 C13.6997,114.766642 13.6412,114.861736 13.58495,114.95683 C13.7132,114.714566 14.3702,114.630792 14.9867,114.540226 C15.57845,114.454189 16.1927,114.363623 16.56395,114.139472 C16.99595,115.03834 17.82395,115.359849 18.8072,115.359849 C20.3732,115.359849 22.33745,114.542491 23.7302,113.967396 C24.39845,113.688906 24.94745,113.460226 25.19945,113.433057 C25.2107,113.385509 25.21745,113.337962 25.2107,113.301736 C24.9407,113.319849 24.39845,113.544 23.6762,113.842868 C21.4352,114.773434 17.6822,116.33117 16.6517,114.014943" id="Fill-1004" fill="#F7B90B"></path>
            <path d="M36.238175,113.219094 L36.242675,113.219094 L26.473175,113.219094 L26.484425,113.219094 C26.416925,113.486264 26.567675,113.744377 26.745425,114.020604 C27.321425,114.919472 28.264175,115.582868 29.119175,116.18966 C30.444425,117.099849 32.118425,117.588906 33.578675,118.288528 C34.903925,118.852302 36.645425,119.902868 37.828925,118.571547 C39.397175,116.680981 38.065175,114.355698 36.238175,113.219094" id="Fill-1006" fill="#E7C59F"></path>
            <path d="M34.834175,113.604906 C36.359675,114.476604 37.360925,113.983019 37.759175,114.535472 C38.641175,115.737736 38.933675,117.279623 37.855925,118.579245 C36.672425,119.91283 34.928675,118.896226 33.603425,118.336981 C32.143175,117.63283 30.469175,117.161887 29.148425,116.253962 C28.288925,115.649434 27.287675,114.929434 26.707175,114.030566 C26.529425,113.756604 26.257175,113.260755 26.509175,113.152075 C28.077425,113.129434 32.545925,116.616226 34.834175,113.604906" id="Fill-1008" fill="#0771B7"></path>
            <path d="M34.96805,114.014943 L35.0018,113.937962 L35.0693,113.983245 C35.40005,114.225509 36.03905,114.31834 36.65105,114.408906 C37.1393,114.479094 37.57805,114.542491 37.85705,114.676075 C37.92005,114.766642 37.9808,114.861736 38.0348,114.95683 C37.9088,114.714566 37.2518,114.630792 36.63305,114.540226 C36.0413,114.454189 35.4248,114.363623 35.05805,114.139472 C34.62155,115.03834 33.7958,115.359849 32.8148,115.359849 C31.24655,115.359849 29.28455,114.542491 27.8918,113.967396 C27.2213,113.688906 26.6723,113.460226 26.4203,113.433057 C26.4113,113.385509 26.40455,113.337962 26.4113,113.301736 C26.6813,113.319849 27.2213,113.544 27.94355,113.842868 C30.1868,114.773434 33.9398,116.33117 34.96805,114.014943" id="Fill-1010" fill="#F7B90B"></path>
            <path d="M15.3818,113.219094 C15.3818,113.219094 15.37955,113.221358 15.3773,113.219094 C10.27205,108.815321 11.2643,86.484 11.2643,86.484 L40.2218,86.484 C40.2218,86.484 41.32205,108.810792 36.23255,113.219094 C36.23255,113.221358 36.2258,113.219094 36.2258,113.219094 C33.78455,113.219094 30.7358,114.330792 26.46755,113.219094 C25.61255,110.653811 26.47655,101.45683 26.47655,101.45683 L26.46755,101.45683 L25.14005,101.45683 L25.14905,101.45683 C25.14905,101.45683 26.0243,110.416075 25.14905,113.219094 C21.2408,114.330792 15.3818,113.219094 15.3818,113.219094" id="Fill-1012" fill="#0B4768"></path>
            <path d="M58.2812,42.1668679 C56.4092,41.3698868 53.9747,42.9117736 52.8362,45.6129057 C52.1657,47.2091321 52.09595,48.8506415 52.53695,50.0913962 L46.9547,56.6913962 L34.93745,52.3804528 C34.93745,52.3804528 37.1267,55.6363019 37.61945,56.8091321 C37.9817,57.6649811 38.68595,60.3683774 38.68595,60.3683774 C38.68595,60.3683774 47.33495,63.9072453 49.79195,63.0129057 C52.8227,61.908 56.30345,51.9593208 56.30345,51.9593208 L56.3012,51.9547925 C57.60845,51.4883774 58.87295,50.2317736 59.6042,48.5019623 C60.7382,45.798566 60.14645,42.9638491 58.2812,42.1668679" id="Fill-1014" fill="#E7C59F"></path>
            <path d="M8.001125,58.1984151 C4.279625,62.9870943 2.853125,77.3848302 2.853125,77.3848302 C2.853125,77.3848302 2.853125,77.3621887 2.859875,77.3191698 C2.382875,78.0165283 2.045375,78.9221887 1.937375,79.9387925 C1.683125,82.3455849 2.828375,84.4399245 4.491125,84.6165283 C5.582375,84.732 6.621875,84.0006792 7.283375,82.812 C7.899875,83.3236981 8.509625,83.5274717 8.946125,83.292 C9.765125,82.857283 9.666125,81.0640755 8.727875,79.2844528 C8.370125,78.6052075 7.947125,78.0278491 7.506125,77.5953962 C7.472375,77.5229434 7.431875,77.4527547 7.393625,77.382566 C7.393625,77.382566 9.013625,66.9833208 10.741625,64.5221887 C11.603375,63.2904906 12.163625,62.6021887 12.359375,62.0542642 C12.516875,61.6150189 12.690125,60.7750189 12.762125,60.4603019 C13.315625,57.9923774 16.395875,52.4361509 16.395875,52.4361509 C16.395875,52.4361509 9.814625,55.8708679 8.001125,58.1984151" id="Fill-1016" fill="#E7C59F"></path>
            <path d="M5.6303,80.8068679 C6.63155,82.6295094 8.1233,83.7298868 8.9603,83.2634717 C9.79955,82.7947925 9.66455,80.9404528 8.66105,79.1200755 C7.65755,77.2951698 6.1658,76.1970566 5.3288,76.6612075 C4.4918,77.1321509 4.62905,78.9842264 5.6303,80.8068679" id="Fill-1018" fill="#E7C59F"></path>
            <path d="M51.498125,46.8455094 C51.961625,49.2409811 53.228375,51.0070189 54.328625,50.7941887 C55.426625,50.5790943 55.944125,48.4621132 55.480625,46.0666415 C55.017125,43.673434 53.750375,41.9051321 52.652375,42.1179623 C51.549875,42.3353208 51.036875,44.4523019 51.498125,46.8455094" id="Fill-1020" fill="#E7C59F"></path>
            <path d="M52.179425,49.874717 L46.882925,56.5335849 L36.148175,52.4422642 C34.030925,51.0543396 27.607175,50.8166038 27.607175,50.8166038 L25.825175,50.8618868 L25.676675,50.8618868 L23.894675,50.8166038 C23.894675,50.8166038 17.497925,51.029434 15.369425,52.4150943 C14.507675,52.8883019 9.739925,55.5939623 8.090675,57.7109434 C7.037675,59.0671698 6.146675,61.1932075 5.410925,63.5411321 C3.547925,69.4981132 2.674925,76.9018868 2.674925,76.9018868 L7.789175,76.8950943 C7.789175,76.8950943 8.736425,69.7245283 10.079675,66.0611321 C10.320425,65.4135849 10.565675,64.874717 10.828925,64.5056604 C10.918925,64.3788679 11.002175,64.2566038 11.080925,64.1388679 C10.090925,70.0415094 9.753425,76.6777358 9.645425,81.1516981 C9.638675,81.3690566 8.945675,97.1411321 8.223425,102.190189 C15.448175,104.284528 36.476675,104.977358 43.291925,102.190189 C42.772175,97.229434 41.887925,81.5433962 41.887925,81.4777358 C41.786675,76.1343396 41.372675,67.5373585 39.847175,60.8988679 C40.414175,61.290566 47.431925,64.0437736 49.785425,63.1856604 C52.816175,62.0830189 57.358925,52.4898113 57.358925,52.4898113 L52.179425,49.874717 Z" id="Fill-1022" fill="#2BAAE2"></path>
            <path d="M29.1014,50.8000755 C29.40515,50.1230943 29.58515,49.3600755 29.58515,48.8778113 L21.8789,48.8778113 C21.8789,49.3600755 22.0634,50.1230943 22.3649,50.8000755 C22.19165,50.8136604 22.0094,50.8340377 21.8159,50.8521509 L25.49915,53.3042264 L29.70215,50.868 C29.49065,50.8430943 29.2904,50.8181887 29.1014,50.8000755" id="Fill-1112" fill="#E7C59F"></path>
            <path d="M22.7051,51.441283 L29.56085,49.1658113 L29.5766,49.1522264 C28.29635,49.3695849 26.98685,49.4827925 25.6526,49.4827925 C24.3701,49.4827925 23.12135,49.3786415 21.8951,49.1793962 C21.96485,49.8450566 22.27085,50.7756226 22.7051,51.441283" id="Fill-1114" fill="#E2A86E"></path>
            <path d="M13.07015,92.9687547 C12.99815,93.0344151 12.74615,93.0344151 12.67415,92.9687547 C12.4604,92.778566 12.33215,92.0246038 12.53915,91.8298868 C12.66065,91.7189434 13.0814,91.7189434 13.20515,91.8298868 C13.41215,92.0246038 13.2839,92.778566 13.07015,92.9687547" id="Fill-1116" fill="#0B4768"></path>
            <path d="M13.1516,93.2418113 C13.1516,93.3935094 13.02785,93.5157736 12.8816,93.5157736 C12.73085,93.5157736 12.6071,93.3935094 12.6071,93.2418113 C12.6071,93.0901132 12.73085,92.9678491 12.8816,92.9678491 C13.02785,92.9678491 13.1516,93.0901132 13.1516,93.2418113" id="Fill-1118" fill="#0771B7"></path>
            <path d="M13.1516,93.7759245 C13.1516,93.9276226 13.02785,94.0521509 12.8816,94.0521509 C12.73085,94.0521509 12.6071,93.9276226 12.6071,93.7759245 C12.6071,93.6242264 12.73085,93.5042264 12.8816,93.5042264 C13.02785,93.5042264 13.1516,93.6242264 13.1516,93.7759245" id="Fill-1120" fill="#0B4768"></path>
            <path d="M13.404275,98.1151698 C13.312025,98.3325283 12.461525,98.3325283 12.340025,98.1151698 C12.358025,96.6638491 12.740525,94.037434 12.740525,94.037434 L13.006025,94.037434 C13.006025,94.037434 13.440275,96.7476226 13.404275,98.1151698" id="Fill-1122" fill="#0771B7"></path>
            <path d="M14.19965,93.2363774 C14.12765,93.3020377 13.8734,93.3020377 13.8014,93.2363774 C13.5899,93.0461887 13.4594,92.2922264 13.66865,92.0975094 C13.79015,91.9843019 14.2109,91.9843019 14.33465,92.0975094 C14.54165,92.2922264 14.41115,93.0461887 14.19965,93.2363774" id="Fill-1124" fill="#0B4768"></path>
            <path d="M14.280875,93.509434 C14.280875,93.6611321 14.159375,93.7833962 14.010875,93.7833962 C13.857875,93.7833962 13.736375,93.6611321 13.736375,93.509434 C13.736375,93.3577358 13.857875,93.2354717 14.010875,93.2354717 C14.159375,93.2354717 14.280875,93.3577358 14.280875,93.509434" id="Fill-1126" fill="#0771B7"></path>
            <path d="M14.280875,94.0433208 C14.280875,94.1950189 14.159375,94.3195472 14.010875,94.3195472 C13.857875,94.3195472 13.736375,94.1950189 13.736375,94.0433208 C13.736375,93.8916226 13.857875,93.7693585 14.010875,93.7693585 C14.159375,93.7693585 14.280875,93.8916226 14.280875,94.0433208" id="Fill-1128" fill="#0B4768"></path>
            <path d="M14.53355,98.382566 C14.43905,98.5999245 13.5908,98.5999245 13.4693,98.382566 C13.4873,96.9312453 13.8698,94.3048302 13.8698,94.3048302 L14.1353,94.3048302 C14.1353,94.3048302 14.56955,97.0150189 14.53355,98.382566" id="Fill-1130" fill="#0771B7"></path>
            <path d="M15.39485,92.766566 C15.32285,92.8344906 15.07085,92.8344906 14.99885,92.766566 C14.7851,92.5763774 14.65685,91.8246792 14.8661,91.6322264 C14.98535,91.5190189 15.40835,91.5190189 15.52985,91.6322264 C15.7391,91.8246792 15.6086,92.5763774 15.39485,92.766566" id="Fill-1132" fill="#0B4768"></path>
            <path d="M15.4763,93.0427925 C15.4763,93.1899623 15.35255,93.3144906 15.2018,93.3144906 C15.0533,93.3144906 14.9318,93.1899623 14.9318,93.0427925 C14.9318,92.8910943 15.0533,92.766566 15.2018,92.766566 C15.35255,92.766566 15.4763,92.8910943 15.4763,93.0427925" id="Fill-1134" fill="#0771B7"></path>
            <path d="M15.4763,93.5769057 C15.4763,93.7286038 15.35255,93.8508679 15.2018,93.8508679 C15.0533,93.8508679 14.9318,93.7286038 14.9318,93.5769057 C14.9318,93.4252075 15.0533,93.3029434 15.2018,93.3029434 C15.35255,93.3029434 15.4763,93.4252075 15.4763,93.5769057" id="Fill-1136" fill="#0B4768"></path>
            <path d="M15.728975,97.9127547 C15.636725,98.1301132 14.786225,98.1301132 14.664725,97.9127547 C14.682725,96.4636981 15.062975,93.8350189 15.062975,93.8350189 L15.328475,93.8350189 C15.328475,93.8350189 15.764975,96.5474717 15.728975,97.9127547" id="Fill-1138" fill="#0771B7"></path>
            <path d="M17.653625,91.3634717 C17.581625,91.4313962 17.327375,91.4313962 17.255375,91.3634717 C17.043875,91.173283 16.913375,90.4215849 17.122625,90.2268679 C17.244125,90.1159245 17.664875,90.1159245 17.788625,90.2268679 C17.995625,90.4215849 17.865125,91.173283 17.653625,91.3634717" id="Fill-1140" fill="#0B4768"></path>
            <path d="M17.732825,91.6387925 C17.732825,91.7882264 17.611325,91.9127547 17.460575,91.9127547 C17.312075,91.9127547 17.190575,91.7882264 17.190575,91.6387925 C17.190575,91.4870943 17.312075,91.362566 17.460575,91.362566 C17.611325,91.362566 17.732825,91.4870943 17.732825,91.6387925" id="Fill-1142" fill="#0771B7"></path>
            <path d="M17.732825,92.1740377 C17.732825,92.3234717 17.611325,92.4457358 17.460575,92.4457358 C17.312075,92.4457358 17.190575,92.3234717 17.190575,92.1740377 C17.190575,92.0223396 17.312075,91.8978113 17.460575,91.8978113 C17.611325,91.8978113 17.732825,92.0223396 17.732825,92.1740377" id="Fill-1144" fill="#0B4768"></path>
            <path d="M17.98775,96.5098868 C17.89325,96.7272453 17.045,96.7272453 16.9235,96.5098868 C16.9415,95.0608302 17.324,92.4321509 17.324,92.4321509 L17.58725,92.4321509 C17.58725,92.4321509 18.02375,95.1423396 17.98775,96.5098868" id="Fill-1146" fill="#0771B7"></path>
            <path d="M16.5923,91.698566 C16.5158,91.7619623 16.26605,91.7619623 16.19405,91.698566 C15.9803,91.5083774 15.85205,90.7566792 16.0613,90.5619623 C16.1828,90.4487547 16.60355,90.4487547 16.7273,90.5619623 C16.93205,90.7566792 16.8038,91.5083774 16.5923,91.698566" id="Fill-1148" fill="#0B4768"></path>
            <path d="M16.66925,91.9738868 C16.66925,92.1233208 16.55,92.2478491 16.39925,92.2478491 C16.2485,92.2478491 16.12925,92.1233208 16.12925,91.9738868 C16.12925,91.8199245 16.2485,91.6976604 16.39925,91.6976604 C16.55,91.6976604 16.66925,91.8199245 16.66925,91.9738868" id="Fill-1150" fill="#0771B7"></path>
            <path d="M16.66925,92.5055094 C16.66925,92.6572075 16.55,92.7817358 16.39925,92.7817358 C16.2485,92.7817358 16.12925,92.6572075 16.12925,92.5055094 C16.12925,92.3560755 16.2485,92.2315472 16.39925,92.2315472 C16.55,92.2315472 16.66925,92.3560755 16.66925,92.5055094" id="Fill-1152" fill="#0B4768"></path>
            <path d="M16.924175,96.8447547 C16.831925,97.0598491 15.979175,97.0598491 15.862175,96.8447547 C15.877925,95.3956981 16.258175,92.7670189 16.258175,92.7670189 L16.523675,92.7670189 C16.523675,92.7670189 16.960175,95.4772075 16.924175,96.8447547" id="Fill-1154" fill="#0771B7"></path>
            <path d="M18.917225,91.0286038 C18.840725,91.0965283 18.590975,91.0965283 18.516725,91.0286038 C18.307475,90.8406792 18.176975,90.086717 18.386225,89.8942642 C18.507725,89.7810566 18.928475,89.7810566 19.047725,89.8942642 C19.256975,90.086717 19.130975,90.8406792 18.917225,91.0286038" id="Fill-1156" fill="#0B4768"></path>
            <path d="M18.99395,91.3050566 C18.99395,91.4567547 18.8747,91.5767547 18.72395,91.5767547 C18.5732,91.5767547 18.45395,91.4567547 18.45395,91.3050566 C18.45395,91.1533585 18.5732,91.0288302 18.72395,91.0288302 C18.8747,91.0288302 18.99395,91.1533585 18.99395,91.3050566" id="Fill-1158" fill="#0771B7"></path>
            <path d="M18.99395,91.8389434 C18.99395,91.9883774 18.8747,92.1129057 18.72395,92.1129057 C18.5732,92.1129057 18.45395,91.9883774 18.45395,91.8389434 C18.45395,91.6872453 18.5732,91.562717 18.72395,91.562717 C18.8747,91.562717 18.99395,91.6872453 18.99395,91.8389434" id="Fill-1160" fill="#0B4768"></path>
            <path d="M19.248875,96.1747925 C19.154375,96.3921509 18.308375,96.3921509 18.184625,96.1747925 C18.200375,94.7257358 18.585125,92.0970566 18.585125,92.0970566 L18.848375,92.0970566 C18.848375,92.0970566 19.287125,94.8117736 19.248875,96.1747925" id="Fill-1162" fill="#0771B7"></path>
            <path d="M22.478975,51.2744151 C17.258975,53.418566 20.165975,84.018566 19.175975,90.3740377 C15.645725,90.4261132 16.457975,91.1393208 15.872975,91.8298868 C15.321725,92.4819623 12.239225,92.6540377 12.473225,91.8298868 C14.426225,84.917434 10.079225,57.4668679 15.535475,51.768 C16.158725,51.1181887 18.026225,50.2600755 19.353725,50.3642264 C19.994975,49.5196981 22.899725,49.8751698 22.899725,49.8751698 C22.899725,49.8751698 22.843475,51.1272453 22.478975,51.2744151" id="Fill-1164" fill="#0771B7"></path>
            <path d="M16.326575,90.2270943 C16.326575,90.2270943 16.335575,90.177283 16.349075,90.0799245 C16.353575,90.0301132 16.369325,89.9689811 16.373825,89.8987925 C16.378325,89.8286038 16.387325,89.7448302 16.398575,89.6542642 C16.407575,89.5636981 16.412075,89.4595472 16.418825,89.3508679 C16.430075,89.2399245 16.430075,89.1199245 16.436825,88.9931321 C16.441325,88.8640755 16.441325,88.7282264 16.441325,88.5855849 L16.441325,88.1327547 C16.436825,87.8180377 16.427825,87.4738868 16.409825,87.1138868 C16.391825,86.7538868 16.369325,86.3757736 16.346825,85.9818113 C16.297325,85.1938868 16.229825,84.3561509 16.162325,83.5184151 C16.097075,82.6784151 16.031825,81.8384151 15.975575,81.0527547 C15.917075,80.2648302 15.883325,79.526717 15.863075,78.897283 C15.860825,78.7410566 15.856325,78.5870943 15.851825,78.4444528 C15.851825,78.297283 15.854075,78.1636981 15.854075,78.0346415 C15.856325,77.9055849 15.860825,77.7878491 15.863075,77.6746415 C15.865325,77.5659623 15.869825,77.4640755 15.874325,77.3712453 C15.887825,77.1878491 15.899075,77.0429434 15.908075,76.9433208 C15.921575,76.8459623 15.926075,76.7938868 15.926075,76.7938868 C15.926075,76.7938868 15.923825,76.8459623 15.917075,76.9433208 C15.908075,77.0429434 15.905825,77.1878491 15.899075,77.3712453 L15.899075,77.6746415 C15.899075,77.7878491 15.901325,77.9055849 15.905825,78.0346415 C15.908075,78.2904906 15.921575,78.5803019 15.937325,78.8950189 C15.955325,79.2097358 15.975575,79.5493585 16.000325,79.9093585 C16.027325,80.2716226 16.058825,80.6497358 16.090325,81.0436981 C16.155575,81.8316226 16.223075,82.6693585 16.290575,83.5070943 C16.358075,84.3470943 16.418825,85.1848302 16.461575,85.9727547 C16.502075,86.7629434 16.520075,87.4987925 16.513325,88.1327547 C16.513325,88.2912453 16.511075,88.4406792 16.504325,88.5855849 C16.497575,88.7304906 16.490825,88.8663396 16.484075,88.9931321 C16.472825,89.1221887 16.468325,89.2421887 16.459325,89.3531321 C16.443575,89.4663396 16.436825,89.5659623 16.423325,89.6565283 C16.398575,89.8399245 16.376075,89.982566 16.358075,90.0799245 C16.337825,90.177283 16.326575,90.2270943 16.326575,90.2270943" id="Fill-1166" fill="#0B4768"></path>
            <path d="M19.358675,50.3635472 C19.358675,50.3635472 19.329425,50.3861887 19.277675,50.4337358 C19.223675,50.4790189 19.144925,50.5446792 19.052675,50.6329811 C19.007675,50.6782642 18.953675,50.7303396 18.901925,50.7869434 C18.874925,50.8141132 18.843425,50.841283 18.816425,50.8729811 C18.787175,50.9046792 18.760175,50.9363774 18.733175,50.9726038 C18.701675,51.0020377 18.670175,51.0382642 18.640925,51.0744906 C18.609425,51.1129811 18.577925,51.1492075 18.548675,51.1876981 C18.485675,51.2692075 18.422675,51.350717 18.355175,51.441283 C18.292175,51.5318491 18.229175,51.6269434 18.163925,51.7243019 C18.100925,51.8261887 18.035675,51.9326038 17.972675,52.0390189 C17.909675,52.1522264 17.848925,52.2676981 17.788175,52.3831698 C17.725175,52.5009057 17.666675,52.625434 17.610425,52.7476981 C17.551925,52.8744906 17.495675,53.001283 17.439425,53.1348679 C17.412425,53.2005283 17.389925,53.2661887 17.362925,53.3341132 C17.335925,53.3997736 17.311175,53.4676981 17.284175,53.5356226 C17.236925,53.6737358 17.182925,53.8073208 17.142425,53.9522264 C17.117675,54.0201509 17.097425,54.0926038 17.074925,54.1605283 L17.011925,54.3733585 C16.926425,54.6563774 16.854425,54.9416604 16.786925,55.2246792 C16.721675,55.5099623 16.658675,55.7884528 16.611425,56.0624151 C16.561925,56.3341132 16.514675,56.5990189 16.480925,56.8503396 C16.440425,57.1016604 16.408925,57.3416604 16.384175,57.5590189 C16.357175,57.7809057 16.336925,57.9846792 16.316675,58.161283 C16.300925,58.3446792 16.289675,58.5031698 16.282925,58.6276981 C16.260425,58.8903396 16.255925,59.0375094 16.255925,59.0375094 C16.255925,59.0375094 16.251425,58.8903396 16.255925,58.6276981 C16.260425,58.3695849 16.269425,57.996 16.307675,57.5522264 C16.316675,57.441283 16.327925,57.3258113 16.339175,57.2058113 C16.350425,57.0880755 16.366175,56.9635472 16.379675,56.8367547 C16.411175,56.585434 16.444925,56.316 16.498925,56.0420377 C16.541675,55.7658113 16.595675,55.4827925 16.660925,55.1975094 C16.728425,54.9099623 16.798175,54.6201509 16.883675,54.3348679 L16.951175,54.1220377 C16.971425,54.0495849 16.993925,53.9793962 17.016425,53.9092075 C17.061425,53.766566 17.113175,53.6284528 17.162675,53.4903396 C17.214425,53.3522264 17.272925,53.2209057 17.326925,53.0873208 C17.380925,52.9537358 17.446175,52.8246792 17.502425,52.6978868 C17.563175,52.5756226 17.626175,52.4510943 17.689175,52.3333585 C17.756675,52.2133585 17.819675,52.1024151 17.889425,51.9892075 C17.954675,51.8827925 18.022175,51.7763774 18.089675,51.6767547 C18.163925,51.5793962 18.229175,51.486566 18.294425,51.396 C18.364175,51.3076981 18.433925,51.2261887 18.496925,51.1492075 C18.530675,51.1061887 18.562175,51.0722264 18.598175,51.0382642 C18.631925,51.0020377 18.663425,50.9680755 18.692675,50.9363774 C18.726425,50.9046792 18.755675,50.8729811 18.784925,50.841283 C18.816425,50.8118491 18.847925,50.7869434 18.877175,50.7575094 C18.933425,50.7031698 18.985175,50.6556226 19.032425,50.6148679 C19.133675,50.5288302 19.219175,50.4699623 19.270925,50.4292075 C19.327175,50.3861887 19.358675,50.3635472 19.358675,50.3635472" id="Fill-1168" fill="#0B4768"></path>
            <path d="M38.378375,92.9687547 C38.452625,93.0344151 38.702375,93.0344151 38.774375,92.9687547 C38.988125,92.778566 39.118625,92.0246038 38.907125,91.8298868 C38.787875,91.7189434 38.364875,91.7189434 38.245625,91.8298868 C38.036375,92.0246038 38.164625,92.778566 38.378375,92.9687547" id="Fill-1170" fill="#0B4768"></path>
            <path d="M38.299175,93.2418113 C38.299175,93.3935094 38.420675,93.5157736 38.569175,93.5157736 C38.719925,93.5157736 38.841425,93.3935094 38.841425,93.2418113 C38.841425,93.0901132 38.719925,92.9678491 38.569175,92.9678491 C38.420675,92.9678491 38.299175,93.0901132 38.299175,93.2418113" id="Fill-1172" fill="#0771B7"></path>
            <path d="M38.299175,93.7759245 C38.299175,93.9276226 38.420675,94.0521509 38.569175,94.0521509 C38.719925,94.0521509 38.841425,93.9276226 38.841425,93.7759245 C38.841425,93.6242264 38.719925,93.5042264 38.569175,93.5042264 C38.420675,93.5042264 38.299175,93.6242264 38.299175,93.7759245" id="Fill-1174" fill="#0B4768"></path>
            <path d="M38.04425,98.1151698 C38.141,98.3325283 38.987,98.3325283 39.11075,98.1151698 C39.0905,96.6638491 38.71025,94.037434 38.71025,94.037434 L38.44475,94.037434 C38.44475,94.037434 38.00825,96.7476226 38.04425,98.1151698" id="Fill-1176" fill="#0771B7"></path>
            <path d="M37.248875,93.2363774 C37.323125,93.3020377 37.572875,93.3020377 37.649375,93.2363774 C37.858625,93.0461887 37.989125,92.2922264 37.779875,92.0975094 C37.658375,91.9843019 37.237625,91.9843019 37.113875,92.0975094 C36.909125,92.2922264 37.035125,93.0461887 37.248875,93.2363774" id="Fill-1178" fill="#0B4768"></path>
            <path d="M37.1699,93.509434 C37.1699,93.6611321 37.2914,93.7833962 37.44215,93.7833962 C37.59065,93.7833962 37.71215,93.6611321 37.71215,93.509434 C37.71215,93.3577358 37.59065,93.2354717 37.44215,93.2354717 C37.2914,93.2354717 37.1699,93.3577358 37.1699,93.509434" id="Fill-1180" fill="#0771B7"></path>
            <path d="M37.1699,94.0433208 C37.1699,94.1950189 37.2914,94.3195472 37.44215,94.3195472 C37.59065,94.3195472 37.71215,94.1950189 37.71215,94.0433208 C37.71215,93.8916226 37.59065,93.7693585 37.44215,93.7693585 C37.2914,93.7693585 37.1699,93.8916226 37.1699,94.0433208" id="Fill-1182" fill="#0B4768"></path>
            <path d="M36.914975,98.382566 C37.011725,98.5999245 37.857725,98.5999245 37.981475,98.382566 C37.965725,96.9312453 37.580975,94.3048302 37.580975,94.3048302 L37.315475,94.3048302 C37.315475,94.3048302 36.878975,97.0150189 36.914975,98.382566" id="Fill-1184" fill="#0771B7"></path>
            <path d="M36.053675,92.766566 C36.127925,92.8344906 36.377675,92.8344906 36.451925,92.766566 C36.663425,92.5763774 36.791675,91.8246792 36.582425,91.6322264 C36.463175,91.5190189 36.044675,91.5190189 35.920925,91.6322264 C35.711675,91.8246792 35.839925,92.5763774 36.053675,92.766566" id="Fill-1186" fill="#0B4768"></path>
            <path d="M35.974475,93.0427925 C35.974475,93.1899623 36.098225,93.3144906 36.244475,93.3144906 C36.395225,93.3144906 36.518975,93.1899623 36.518975,93.0427925 C36.518975,92.8910943 36.395225,92.766566 36.244475,92.766566 C36.098225,92.766566 35.974475,92.8910943 35.974475,93.0427925" id="Fill-1188" fill="#0771B7"></path>
            <path d="M35.974475,93.5769057 C35.974475,93.7286038 36.098225,93.8508679 36.244475,93.8508679 C36.395225,93.8508679 36.518975,93.7286038 36.518975,93.5769057 C36.518975,93.4252075 36.395225,93.3029434 36.244475,93.3029434 C36.098225,93.3029434 35.974475,93.4252075 35.974475,93.5769057" id="Fill-1190" fill="#0B4768"></path>
            <path d="M35.72405,97.9127547 C35.81405,98.1301132 36.66455,98.1301132 36.78605,97.9127547 C36.76805,96.4636981 36.38555,93.8350189 36.38555,93.8350189 L36.12005,93.8350189 C36.12005,93.8350189 35.68355,96.5474717 35.72405,97.9127547" id="Fill-1192" fill="#0771B7"></path>
            <path d="M33.7949,91.3634717 C33.86915,91.4313962 34.12115,91.4313962 34.1954,91.3634717 C34.40465,91.173283 34.53515,90.4215849 34.3259,90.2268679 C34.2044,90.1159245 33.78365,90.1159245 33.6599,90.2268679 C33.45515,90.4215849 33.58115,91.173283 33.7949,91.3634717" id="Fill-1194" fill="#0B4768"></path>
            <path d="M33.7157,91.6387925 C33.7157,91.7882264 33.83945,91.9127547 33.98795,91.9127547 C34.13645,91.9127547 34.25795,91.7882264 34.25795,91.6387925 C34.25795,91.4870943 34.13645,91.362566 33.98795,91.362566 C33.83945,91.362566 33.7157,91.4870943 33.7157,91.6387925" id="Fill-1196" fill="#0771B7"></path>
            <path d="M33.7157,92.1740377 C33.7157,92.3234717 33.83945,92.4457358 33.98795,92.4457358 C34.13645,92.4457358 34.25795,92.3234717 34.25795,92.1740377 C34.25795,92.0223396 34.13645,91.8978113 33.98795,91.8978113 C33.83945,91.8978113 33.7157,92.0223396 33.7157,92.1740377" id="Fill-1198" fill="#0B4768"></path>
            <path d="M33.460775,96.5098868 C33.557525,96.7272453 34.403525,96.7272453 34.527275,96.5098868 C34.511525,95.0608302 34.126775,92.4321509 34.126775,92.4321509 L33.861275,92.4321509 C33.861275,92.4321509 33.424775,95.1423396 33.460775,96.5098868" id="Fill-1200" fill="#0771B7"></path>
            <path d="M34.856,91.698566 C34.9325,91.7619623 35.18225,91.7619623 35.2565,91.698566 C35.468,91.5083774 35.60075,90.7566792 35.387,90.5619623 C35.2655,90.4487547 34.84475,90.4487547 34.72325,90.5619623 C34.51625,90.7566792 34.64225,91.5083774 34.856,91.698566" id="Fill-1202" fill="#0B4768"></path>
            <path d="M34.779275,91.9738868 C34.779275,92.1233208 34.903025,92.2478491 35.051525,92.2478491 C35.200025,92.2478491 35.323775,92.1233208 35.323775,91.9738868 C35.323775,91.8199245 35.200025,91.6976604 35.051525,91.6976604 C34.903025,91.6976604 34.779275,91.8199245 34.779275,91.9738868" id="Fill-1204" fill="#0771B7"></path>
            <path d="M34.779275,92.5055094 C34.779275,92.6572075 34.903025,92.7817358 35.051525,92.7817358 C35.200025,92.7817358 35.323775,92.6572075 35.323775,92.5055094 C35.323775,92.3560755 35.200025,92.2315472 35.051525,92.2315472 C34.903025,92.2315472 34.779275,92.3560755 34.779275,92.5055094" id="Fill-1206" fill="#0B4768"></path>
            <path d="M34.5266,96.8447547 C34.61885,97.0598491 35.46935,97.0598491 35.5886,96.8447547 C35.57285,95.3956981 35.1881,92.7670189 35.1881,92.7670189 L34.92485,92.7670189 C34.92485,92.7670189 34.4861,95.4772075 34.5266,96.8447547" id="Fill-1208" fill="#0771B7"></path>
            <path d="M32.53355,91.0286038 C32.6078,91.0965283 32.8553,91.0965283 32.9318,91.0286038 C33.14555,90.8406792 33.2738,90.086717 33.06455,89.8942642 C32.94305,89.7810566 32.5223,89.7810566 32.39855,89.8942642 C32.19155,90.086717 32.32205,90.8406792 32.53355,91.0286038" id="Fill-1210" fill="#0B4768"></path>
            <path d="M32.454575,91.3050566 C32.454575,91.4567547 32.576075,91.5767547 32.726825,91.5767547 C32.877575,91.5767547 32.999075,91.4567547 32.999075,91.3050566 C32.999075,91.1533585 32.877575,91.0288302 32.726825,91.0288302 C32.576075,91.0288302 32.454575,91.1533585 32.454575,91.3050566" id="Fill-1212" fill="#0771B7"></path>
            <path d="M32.454575,91.8389434 C32.454575,91.9883774 32.576075,92.1129057 32.726825,92.1129057 C32.877575,92.1129057 32.999075,91.9883774 32.999075,91.8389434 C32.999075,91.6872453 32.877575,91.562717 32.726825,91.562717 C32.576075,91.562717 32.454575,91.6872453 32.454575,91.8389434" id="Fill-1214" fill="#0B4768"></path>
            <path d="M32.201675,96.1747925 C32.293925,96.3921509 33.144425,96.3921509 33.263675,96.1747925 C33.245675,94.7257358 32.867675,92.0970566 32.867675,92.0970566 L32.599925,92.0970566 C32.599925,92.0970566 32.161175,94.8117736 32.201675,96.1747925" id="Fill-1216" fill="#0771B7"></path>
            <path d="M28.95425,51.2744151 C34.17425,53.418566 31.27175,84.018566 32.264,90.3740377 C35.792,90.4261132 34.97975,91.1393208 35.56475,91.8298868 C36.116,92.4819623 39.194,92.6540377 38.96225,91.8298868 C37.0115,84.917434 41.35625,57.4668679 35.9,51.768 C35.279,51.1181887 33.407,50.2600755 32.0795,50.3642264 C31.4405,49.5196981 28.5335,49.8751698 28.5335,49.8751698 C28.5335,49.8751698 28.592,51.1272453 28.95425,51.2744151" id="Fill-1218" fill="#0771B7"></path>
            <path d="M35.108675,90.2270943 C35.108675,90.2270943 35.099675,90.177283 35.079425,90.0799245 C35.061425,89.982566 35.034425,89.8399245 35.011925,89.6565283 C35.000675,89.5659623 34.989425,89.4663396 34.978175,89.3531321 C34.969175,89.2421887 34.964675,89.1221887 34.951175,88.9931321 C34.942175,88.8663396 34.937675,88.7304906 34.933175,88.5855849 C34.926425,88.4406792 34.924175,88.2912453 34.924175,88.1327547 C34.917425,87.4987925 34.933175,86.7629434 34.975925,85.9727547 C35.018675,85.1848302 35.079425,84.3470943 35.142425,83.5070943 C35.212175,82.6693585 35.279675,81.8316226 35.347175,81.0436981 C35.378675,80.6497358 35.407925,80.2716226 35.434925,79.9093585 C35.461925,79.5493585 35.482175,79.2097358 35.500175,78.8950189 C35.515925,78.5803019 35.527175,78.2904906 35.531675,78.0346415 C35.533925,77.9055849 35.533925,77.7878491 35.538425,77.6746415 C35.538425,77.5659623 35.533925,77.4640755 35.533925,77.3712453 C35.529425,77.1878491 35.527175,77.0429434 35.518175,76.9433208 C35.511425,76.8459623 35.509175,76.7938868 35.509175,76.7938868 C35.509175,76.7938868 35.515925,76.8459623 35.527175,76.9433208 C35.538425,77.0429434 35.547425,77.1878491 35.560925,77.3712453 C35.565425,77.4640755 35.572175,77.5659623 35.574425,77.6746415 C35.576675,77.7878491 35.578925,77.9055849 35.583425,78.0346415 L35.583425,78.4444528 C35.578925,78.5870943 35.576675,78.7410566 35.574425,78.897283 C35.554175,79.526717 35.518175,80.2648302 35.461925,81.0527547 C35.403425,81.8384151 35.338175,82.6784151 35.275175,83.5184151 C35.205425,84.3561509 35.140175,85.1938868 35.090675,85.9818113 C35.068175,86.3757736 35.041175,86.7538868 35.027675,87.1138868 C35.009675,87.4738868 35.000675,87.8180377 34.996175,88.1327547 C34.996175,88.2912453 34.996175,88.4384151 34.993925,88.5855849 C34.996175,88.7282264 34.996175,88.8640755 35.000675,88.9931321 C35.007425,89.1199245 35.007425,89.2399245 35.016425,89.3508679 C35.025425,89.4595472 35.029925,89.5636981 35.038925,89.6542642 C35.047925,89.7448302 35.056925,89.8286038 35.061425,89.8987925 C35.068175,89.9689811 35.079425,90.0301132 35.088425,90.0799245 C35.101925,90.177283 35.108675,90.2270943 35.108675,90.2270943" id="Fill-1220" fill="#0B4768"></path>
            <path d="M32.078825,50.3635472 C32.078825,50.3635472 32.108075,50.3861887 32.162075,50.4292075 C32.218325,50.4699623 32.303825,50.5288302 32.400575,50.6148679 C32.447825,50.6556226 32.501825,50.7031698 32.560325,50.7575094 C32.587325,50.7869434 32.621075,50.8118491 32.648075,50.841283 C32.679575,50.8729811 32.708825,50.9046792 32.740325,50.9363774 C32.771825,50.9680755 32.805575,51.0020377 32.839325,51.0382642 C32.870825,51.0722264 32.906825,51.1061887 32.938325,51.1492075 C33.001325,51.2261887 33.073325,51.3076981 33.140825,51.396 C33.208325,51.486566 33.273575,51.5793962 33.345575,51.6767547 C33.415325,51.7763774 33.482825,51.8827925 33.548075,51.9892075 C33.613325,52.1024151 33.676325,52.2133585 33.746075,52.3333585 C33.809075,52.4510943 33.874325,52.5756226 33.935075,52.6978868 C33.991325,52.8246792 34.052075,52.9537358 34.106075,53.0873208 C34.164575,53.2209057 34.220825,53.3522264 34.270325,53.4903396 C34.319825,53.6284528 34.373825,53.766566 34.418825,53.9092075 C34.443575,53.9793962 34.466075,54.0495849 34.486325,54.1220377 L34.551575,54.3348679 C34.637075,54.6201509 34.709075,54.9099623 34.774325,55.1975094 C34.841825,55.4827925 34.893575,55.7658113 34.938575,56.0420377 C34.988075,56.316 35.026325,56.585434 35.055575,56.8367547 C35.071325,56.9635472 35.087075,57.0880755 35.100575,57.2058113 C35.109575,57.3258113 35.120825,57.441283 35.129825,57.5522264 C35.163575,57.996 35.174825,58.3695849 35.181575,58.6276981 C35.186075,58.8903396 35.181575,59.0375094 35.181575,59.0375094 C35.181575,59.0375094 35.174825,58.8903396 35.154575,58.6276981 C35.147825,58.5031698 35.134325,58.3446792 35.118575,58.161283 C35.100575,57.9846792 35.078075,57.7809057 35.051075,57.5590189 C35.028575,57.3416604 34.994825,57.1016604 34.956575,56.8503396 C34.918325,56.5990189 34.877825,56.3341132 34.823825,56.0624151 C34.774325,55.7884528 34.713575,55.5099623 34.650575,55.2246792 C34.580825,54.9416604 34.511075,54.6563774 34.425575,54.3733585 L34.362575,54.1605283 C34.340075,54.0926038 34.317575,54.0201509 34.295075,53.9522264 C34.250075,53.8073208 34.198325,53.6737358 34.148825,53.5356226 C34.126325,53.4676981 34.097075,53.3997736 34.074575,53.3341132 C34.045325,53.2661887 34.020575,53.2005283 33.998075,53.1348679 C33.941825,53.001283 33.881075,52.8744906 33.827075,52.7476981 C33.766325,52.625434 33.707825,52.5009057 33.649325,52.3831698 C33.588575,52.2676981 33.527825,52.1522264 33.464825,52.0390189 C33.397325,51.9326038 33.336575,51.8261887 33.273575,51.7243019 C33.208325,51.6269434 33.140825,51.5318491 33.077825,51.441283 C33.012575,51.350717 32.951825,51.2692075 32.888825,51.1876981 C32.859575,51.1492075 32.828075,51.1129811 32.792075,51.0744906 C32.762825,51.0382642 32.731325,51.0020377 32.704325,50.9726038 C32.677325,50.9363774 32.645825,50.9046792 32.621075,50.8729811 C32.591825,50.841283 32.562575,50.8141132 32.533325,50.7869434 C32.481575,50.7303396 32.429825,50.6782642 32.384825,50.6329811 C32.292575,50.5446792 32.211575,50.4790189 32.159825,50.4337358 C32.108075,50.3861887 32.078825,50.3635472 32.078825,50.3635472" id="Fill-1222" fill="#0B4768"></path>
            <polygon id="Fill-1440" fill="#0D8EBC" points="25.17425 104.028 26.16875 104.028 26.16875 53.0981887 25.17425 53.0981887"></polygon>
            <path d="M28.952,53.0886792 C29.08925,53.0501887 29.19275,52.9460377 29.294,52.86 L29.41775,52.7513208 C29.45825,52.710566 29.4965,52.6698113 29.53025,52.6267925 C30.0725,51.9543396 29.53025,49.1513208 29.53025,49.1513208 C28.28375,49.3596226 25.9235,50.4803774 25.69625,53.0116981 C25.4375,50.4916981 23.129,49.3618868 21.88925,49.1581132 C21.88925,49.1581132 21.28175,52.0132075 21.88925,52.6267925 C22.12325,52.86 22.44275,53.1407547 22.87925,53.2177358 C24.37775,53.4803774 27.4985,53.5324528 28.952,53.0886792" id="Fill-1442" fill="#0D8EBC"></path>
            <path d="M25.62965,53.0243774 C25.3619,51.2855094 24.3584,50.3436226 23.5664,49.8636226 C22.70015,49.3383396 21.89015,49.2251321 21.88115,49.2228679 L21.9014,49.089283 C21.9329,49.0960755 22.7429,49.2070189 23.62715,49.7458868 C24.4484,50.2417358 25.48565,51.2107925 25.7624,53.0017358 L25.62965,53.0243774 Z" id="Fill-1443" fill="#0B4768"></path>
            <path d="M25.7615,53.0189434 L25.62875,53.0053585 C25.9685,49.7812075 29.483,49.0929057 29.519,49.0883774 L29.5415,49.217434 C29.50775,49.2242264 26.08775,49.8944151 25.7615,53.0189434" id="Fill-1444" fill="#0B4768"></path>
            <path d="M21.644,51.933283 C21.644,51.933283 21.6485,51.9717736 21.662,52.0419623 C21.67325,52.1098868 21.69125,52.2117736 21.7385,52.3317736 C21.7835,52.4517736 21.86225,52.5944151 21.986,52.7212075 C22.049,52.7823396 22.1255,52.8412075 22.20875,52.8955472 C22.292,52.9476226 22.3865,52.9951698 22.48775,53.0381887 C22.90175,53.1989434 23.41925,53.2713962 23.97275,53.3098868 C24.24725,53.328 24.53525,53.3393208 24.83,53.3461132 C25.12025,53.3506415 25.41725,53.3506415 25.7165,53.3506415 C26.0135,53.3506415 26.3105,53.3483774 26.60525,53.3393208 C26.89775,53.3302642 27.1835,53.3212075 27.46025,53.3008302 C27.73475,53.2804528 28.00475,53.253283 28.2545,53.208 C28.502,53.1649811 28.736,53.1038491 28.9385,53.0155472 C29.13875,52.9272453 29.3075,52.8163019 29.429,52.6849811 C29.54825,52.5513962 29.62025,52.4087547 29.663,52.2864906 C29.70575,52.1642264 29.726,52.0623396 29.73725,51.9921509 C29.744,51.9581887 29.74625,51.9310189 29.7485,51.9129057 C29.753,51.8970566 29.753,51.8857358 29.753,51.8857358 C29.753,51.8857358 29.753,51.8970566 29.7485,51.9129057 C29.7485,51.933283 29.7485,51.9581887 29.74625,51.9921509 C29.73725,52.0623396 29.726,52.1664906 29.6855,52.2955472 C29.65175,52.4200755 29.582,52.5717736 29.46725,52.7166792 C29.348,52.8615849 29.177,52.9906415 28.97,53.0857358 C28.763,53.1853585 28.5245,53.253283 28.2725,53.3076226 C28.01825,53.357434 27.7505,53.3959245 27.4715,53.4208302 C27.188,53.4434717 26.9,53.4593208 26.6075,53.4683774 C26.31275,53.477434 26.0135,53.4819623 25.7165,53.4819623 C25.41725,53.4819623 25.12025,53.4819623 24.82775,53.4751698 C24.53075,53.4661132 24.24275,53.448 23.96375,53.4253585 C23.68025,53.402717 23.4125,53.3664906 23.15825,53.3166792 C22.9085,53.2691321 22.66775,53.1989434 22.46075,53.1083774 C22.355,53.0608302 22.25825,53.0110189 22.175,52.9498868 C22.09175,52.8887547 22.013,52.8253585 21.95225,52.7529057 C21.8285,52.6170566 21.75425,52.4676226 21.70925,52.3408302 C21.67325,52.2163019 21.662,52.1098868 21.653,52.0419623 C21.64625,51.9717736 21.644,51.933283 21.644,51.933283" id="Fill-1445" fill="#0B4768"></path>
            <path d="M48.558275,29.7097358 C48.727025,28.5640755 48.817025,27.3957736 48.817025,26.202566 C48.817025,13.3263396 38.444525,2.88860377 25.644275,2.88860377 C12.850775,2.88860377 2.478275,13.3263396 2.478275,26.202566 C2.478275,27.3391698 2.559275,28.4553962 2.714525,29.5489811 C1.378025,30.2848302 0.473525,31.6750189 0.473525,33.2712453 C0.473525,35.637283 2.458025,37.5550189 4.901525,37.5550189 C5.063525,37.5550189 5.230025,37.5436981 5.387525,37.5278491 C9.345275,44.6803019 16.932275,49.5210566 25.644275,49.5210566 C34.351775,49.5210566 41.932025,44.6893585 45.894275,37.5482264 C45.961775,37.5527547 46.031525,37.5550189 46.101275,37.5550189 C48.542525,37.5550189 50.524775,35.637283 50.524775,33.2712453 C50.524775,31.7859623 49.744025,30.477283 48.558275,29.7097358" id="Fill-1446" fill="#E7C59F"></path>
            <g id="Page-1" transform="translate(13.000000, 25.000000)">
                <path d="M7.64462465,1.47405293 C7.64462465,1.47405293 7.18191055,3.08454947 5.72928458,2.76576898 C5.01952821,2.6103089 4.89448212,1.69239573 2.61533201,2.10419027 C1.89860443,2.26532726 0.391951574,3.13695175 0.101774939,3.71905367 C-0.188837396,4.30159228 0.0216060191,1.58322433 2.36175423,0.573170504 C4.05009426,-0.0294556442 4.62216922,0.00023897761 6.01989691,0.00023897761 C7.41762461,0.00023897761 7.84809685,0.810290793 7.64462465,1.47405293" id="Fill-1" fill="#2C2C2D"></path>
                <path d="M17.3553754,1.47405293 C17.3553754,1.47405293 17.8180894,3.08454947 19.2707154,2.76576898 C19.9804718,2.6103089 20.1055179,1.69239573 22.384668,2.10419027 C23.1013956,2.26532726 24.6080484,3.13695175 24.8982251,3.71905367 C25.1888374,4.30159228 24.978394,1.58322433 22.6382458,0.573170504 C20.9499057,-0.0294556442 20.3778308,0.00023897761 18.9801031,0.00023897761 C17.5823754,0.00023897761 17.1519031,0.810290793 17.3553754,1.47405293" id="Fill-3" fill="#2C2C2D"></path>
                <path d="M5.76923077,8.55 C5.76923077,10.1240346 4.90820977,11.4 3.84599133,11.4 C2.78377289,11.4 1.92307692,10.1240346 1.92307692,8.55 C1.92307692,6.97596541 2.78377289,5.7 3.84599133,5.7 C4.90820977,5.7 5.76923077,6.97596541 5.76923077,8.55" id="Fill-5" fill="#2C2C2D"></path>
                <path d="M23.0769231,8.55 C23.0769231,10.1240346 22.2162271,11.4 21.1540087,11.4 C20.0914652,11.4 19.2307692,10.1240346 19.2307692,8.55 C19.2307692,6.97596541 20.0914652,5.7 21.1540087,5.7 C22.2162271,5.7 23.0769231,6.97596541 23.0769231,8.55" id="Fill-7" fill="#2C2C2D"></path>
                <path d="M12.5235914,9.59984841 C13.3315027,9.48799899 15.3747746,11.3251137 15.3747746,11.3251137 C15.3747746,11.3251137 15.4733115,10.9180394 15.0467745,10.1096513 C14.5873919,9.23981809 12.4953077,8.55 12.4953077,8.55 C12.4953077,8.55 10.8699052,8.98971703 10.0998577,10.1250126 C9.81473934,10.4096766 9.61538462,11.4 9.61538462,11.4 C9.61538462,11.4 11.4401418,9.74962102 12.5235914,9.59984841 Z" id="Fill-9" fill="#E2A86E"></path>
                <g id="Group-13" transform="translate(5.769231, 13.300000)">
                    <mask id="mask-2" fill="white">
                        <use xlink:href="#path-1"></use>
                    </mask>
                    <g id="Clip-12"></g>
                    <path d="M0.191705466,0.661229556 C0.191705466,0.661229556 6.82465081,3.708914 12.8591144,0.284100667 C12.8591144,0.284100667 11.5214119,5.47984067 7.13755567,5.56715622 C3.18047065,5.68326733 2.34560223,4.14967178 1.87146255,3.708914 C1.39686741,3.26908511 0.504610324,2.02576733 0.191705466,0.661229556" id="Fill-11" fill="#E2A86E" mask="url(#mask-2)"></path>
                </g>
            </g>
            <path d="M49.6196,22.9858868 C49.6016,21.7655094 49.51385,20.2824906 49.3406,18.6998491 C46.22885,8.44098113 36.74735,0.976075472 25.53335,0.976075472 C15.7706,0.976075472 7.3196,6.63418868 3.2426,14.8711698 C2.1176,18.1066415 1.42235,21.2923019 1.36835,22.7277736 C1.17035,27.713434 4.7816,35.1783396 4.7816,35.1783396 C4.34735,26.9730566 4.4396,26.9911698 6.4061,25.5670189 C8.84735,23.798717 13.9976,20.5043774 15.98885,18.2311698 C16.3691,17.7941887 17.14985,16.2341887 17.14985,16.2341887 C17.14985,16.2341887 17.0756,17.4613585 17.7551,18.0002264 C21.85685,21.2560755 33.9506,17.633434 38.5361,20.1466415 C42.2936,22.2002264 46.8521,35.1783396 46.8521,35.1783396 C48.70385,31.6462642 49.6556,25.7209811 49.6196,22.9858868" id="Fill-1455" fill="#2C2C2D"></path>
        </g>
    </g>
</svg>