<?xml version="1.0" encoding="UTF-8"?>
<svg width="120px" height="120px" viewBox="0 0 120 120" version="1.1" xmlns="http://www.w3.org/2000/svg" xmlns:xlink="http://www.w3.org/1999/xlink">
    <!-- Generator: Sketch 51.1 (57501) - http://www.bohemiancoding.com/sketch -->
    <title>Butterfly1</title>
    <desc>Created with Sketch.</desc>
    <defs>
        <polygon id="path-1" points="0 0.0136243872 53.6455636 0.0136243872 53.6455636 42.1452075 0 42.1452075"></polygon>
        <polygon id="path-3" points="0.595963636 0.0970130664 54.24 0.0970130664 54.24 42.2285962 0.595963636 42.2285962"></polygon>
    </defs>
    <g id="Butterfly1" stroke="none" stroke-width="1" fill="none" fill-rule="evenodd">
        <g id="Group" transform="translate(60.000000, 60.000000) scale(-1, 1) translate(-60.000000, -60.000000) translate(0.000000, 2.000000)">
            <path d="M41.1978545,11.1126906 C40.7374909,8.93057736 38.8109455,7.29344528 36.4993091,7.29344528 C33.8451273,7.29344528 31.6927636,9.44929434 31.6927636,12.112917 C31.6927636,17.8374075 39.9705818,18.7818226 41.1913091,13.1394075 C47.1356727,14.5642377 53.5731273,22.1677094 52.5094909,35.138917 L54.4916727,35.3030679 C55.3753091,24.531483 50.7564,12.9851057 41.1978545,11.1126906" id="Fill-1" fill="#FFC64E"></path>
            <path d="M51.3697091,7.22690943 C53.1598909,4.12336226 51.0882545,0.310683019 47.6213455,0.0174 C44.9758909,-0.204750943 42.6511636,1.76615472 42.4297091,4.41883396 C42.0882545,8.49196604 46.6613455,11.1424566 50.0148,8.71849434 C57.0718909,13.1560415 57.9348,23.684683 55.2817091,32.1614377 L57.1777091,32.7578528 C60.3969818,22.4798151 58.3689818,11.8887962 51.3697091,7.22690943" id="Fill-3" fill="#FFC64E"></path>
            <path d="M25.0025455,89.0929245 C19.2152727,97.6769245 31.0669091,108.124585 40.5207273,113.112585 C42.3458182,114.074509 48.8301818,115.006887 49.6505455,107.714208 C50.5625455,99.5854528 51.1221818,98.6859057 53.6050909,82.3769623 C53.6050909,82.3769623 30.4789091,80.9663585 25.0025455,89.0929245" id="Fill-5" fill="#FFC64E"></path>
            <g id="Group-9" transform="translate(0.000000, 40.189623)">
                <mask id="mask-2" fill="white">
                    <use xlink:href="#path-1"></use>
                </mask>
                <g id="Clip-8"></g>
                <path d="M25.3582909,42.0893962 L53.6455636,42.1452075 C53.6455636,42.1452075 44.0313818,5.36445283 11.6499273,0.307509434 C6.21829091,-0.540603774 3.06883636,0.519811321 1.38992727,2.552 C-4.30025455,9.3850566 8.22774545,42.0554717 25.3582909,42.0893962" id="Fill-7" fill="#F15D5D" mask="url(#mask-2)"></path>
            </g>
            <path d="M27.8320364,103.394192 C29.5600364,105.423098 31.4462182,106.822758 33.3225818,108.52774 C33.4316727,104.950343 33.9509455,101.79974 35.1574909,98.6852491 C38.3811273,90.3474755 45.6040364,85.4634377 53.5644,82.3007962 C23.3985818,81.0652868 18.2593091,92.1520415 27.8320364,103.394192" id="Fill-10" fill="#F15D5D"></path>
            <path d="M1.39025455,42.7416226 L53.6448,82.3348302 C53.6448,82.3348302 44.0317091,45.5540755 11.6491636,40.4971321 C6.21861818,39.6490189 3.06916364,40.709434 1.39025455,42.7416226" id="Fill-12" fill="#FFC64E"></path>
            <path d="M33.8981455,61.2684642 C33.8981455,66.697483 29.5116,71.1000113 24.0996,71.1000113 C18.6876,71.1000113 14.2999636,66.697483 14.2999636,61.2684642 C14.2999636,55.841634 18.6876,51.4391057 24.0996,51.4391057 C29.5116,51.4391057 33.8981455,55.841634 33.8981455,61.2684642" id="Fill-14" fill="#F49EC4"></path>
            <path d="M77.3277818,51.1865321 C77.3277818,41.1470604 69.2146909,33.0084566 59.2066909,33.0084566 C49.1986909,33.0084566 41.0845091,41.1470604 41.0845091,51.1865321 C41.0845091,59.2934 46.3754182,66.1549094 53.6812364,68.4967962 L53.6812364,109.489664 C53.6812364,112.920419 56.4510545,115.698947 59.8688727,115.698947 C63.2866909,115.698947 66.0565091,112.920419 66.0565091,109.489664 L66.0565091,68.0120038 C72.6663273,65.2991358 77.3277818,58.7932868 77.3277818,51.1865321" id="Fill-16" fill="#F08453"></path>
            <path d="M69.6594545,47.377683 C71.3918182,52.9478717 68.5369091,58.977683 63.0267273,61.0820981 C57.5165455,63.1876075 51.3845455,60.5885509 48.9878182,55.2733434 L48.1881818,55.5786642 C50.7583636,61.3348906 57.3801818,64.1560981 63.3289091,61.8820604 C69.2798182,59.6102113 72.3572727,53.0846642 70.4558182,47.0723623 L69.6594545,47.377683 Z" id="Fill-18" fill="#4B011C"></path>
            <path d="M55.0068,36.8318604 C55.0068,42.6023132 50.3453455,47.2795208 44.5918909,47.2795208 C38.8417091,47.2795208 34.1791636,42.6023132 34.1791636,36.8318604 C34.1791636,31.0635962 38.8417091,26.3842 44.5918909,26.3842 C50.3453455,26.3842 55.0068,31.0635962 55.0068,36.8318604" id="Fill-20" fill="#F08453"></path>
            <path d="M53.5025455,36.8318604 C53.5025455,41.7673321 49.5141818,45.7682377 44.592,45.7682377 C39.672,45.7682377 35.6836364,41.7673321 35.6836364,36.8318604 C35.6836364,31.8963887 39.672,27.895483 44.592,27.895483 C49.5141818,27.895483 53.5025455,31.8963887 53.5025455,36.8318604" id="Fill-22" fill="#BFDDF4"></path>
            <path d="M48.0437455,36.8318604 C48.0437455,38.744766 46.4990182,40.2943509 44.5921091,40.2943509 C42.6873818,40.2943509 41.1426545,38.744766 41.1426545,36.8318604 C41.1426545,34.9211434 42.6873818,33.3715585 44.5921091,33.3715585 C46.4990182,33.3715585 48.0437455,34.9211434 48.0437455,36.8318604" id="Fill-24" fill="#171B1F"></path>
            <path d="M74.8966909,36.8318604 C74.8966909,42.6023132 70.2352364,47.2795208 64.4817818,47.2795208 C58.7316,47.2795208 54.0668727,42.6023132 54.0668727,36.8318604 C54.0668727,31.0635962 58.7316,26.3842 64.4817818,26.3842 C70.2352364,26.3842 74.8966909,31.0635962 74.8966909,36.8318604" id="Fill-26" fill="#F08453"></path>
            <path d="M73.3902545,36.8318604 C73.3902545,41.7673321 69.4018909,45.7682377 64.4818909,45.7682377 C59.5618909,45.7682377 55.5735273,41.7673321 55.5735273,36.8318604 C55.5735273,31.8963887 59.5618909,27.895483 64.4818909,27.895483 C69.4018909,27.895483 73.3902545,31.8963887 73.3902545,36.8318604" id="Fill-28" fill="#BFDDF4"></path>
            <path d="M67.9336364,36.8318604 C67.9336364,38.744766 66.3889091,40.2943509 64.482,40.2943509 C62.5772727,40.2943509 61.0325455,38.744766 61.0325455,36.8318604 C61.0325455,34.9211434 62.5772727,33.3715585 64.482,33.3715585 C66.3889091,33.3715585 67.9336364,34.9211434 67.9336364,36.8318604" id="Fill-30" fill="#171B1F"></path>
            <path d="M94.6928727,89.1763132 C100.477964,97.7603132 88.6285091,108.207974 79.1746909,113.193785 C77.3496,114.160087 70.8652364,115.090275 70.0448727,107.795408 C69.1328727,99.6688415 68.5732364,98.7692943 66.0903273,82.4603509 C66.0903273,82.4603509 89.2165091,81.0475585 94.6928727,89.1763132" id="Fill-32" fill="#FFC64E"></path>
            <g id="Group-36" transform="translate(65.454545, 40.189623)">
                <mask id="mask-4" fill="white">
                    <use xlink:href="#path-3"></use>
                </mask>
                <g id="Clip-35"></g>
                <path d="M52.8505091,2.63538868 C51.1716,0.6032 48.0221455,-0.457215094 42.5916,0.390898113 C10.2090545,5.44784151 0.595963636,42.2285962 0.595963636,42.2285962 L28.8799636,42.1727849 C46.0126909,42.1410491 58.5396,9.46844528 52.8505091,2.63538868" id="Fill-34" fill="#F15D5D" mask="url(#mask-4)"></path>
            </g>
            <path d="M91.8632727,103.477581 C90.1374545,105.507581 88.2490909,106.906147 86.3727273,108.611128 C86.2636364,105.033732 85.7421818,101.883128 84.5378182,98.7686377 C81.3141818,90.4308642 74.0912727,85.5446377 66.1309091,82.3819962 C96.2945455,81.1464868 101.433818,92.2332415 91.8632727,103.477581" id="Fill-37" fill="#F15D5D"></path>
            <path d="M118.305055,42.8250113 L66.0505091,82.4182189 C66.0505091,82.4182189 75.6636,45.6374642 108.046145,40.5805208 C113.476691,39.7324075 116.626145,40.7928226 118.305055,42.8250113" id="Fill-39" fill="#FFC64E"></path>
            <path d="M86.0465455,61.2684642 C86.0465455,66.697483 90.432,71.1000113 95.8450909,71.1000113 C101.254909,71.1000113 105.644727,66.697483 105.644727,61.2684642 C105.644727,55.841634 101.254909,51.4391057 95.8450909,51.4391057 C90.432,51.4391057 86.0465455,55.841634 86.0465455,61.2684642" id="Fill-41" fill="#F49EC4"></path>
        </g>
    </g>
</svg>