<?xml version="1.0" encoding="UTF-8"?>
<svg width="120px" height="120px" viewBox="0 0 120 120" version="1.1" xmlns="http://www.w3.org/2000/svg" xmlns:xlink="http://www.w3.org/1999/xlink">
    <!-- Generator: Sketch 51.1 (57501) - http://www.bohemiancoding.com/sketch -->
    <title>Display board6</title>
    <desc>Created with Sketch.</desc>
    <defs>
        <polygon id="path-1" points="0 0.6659 113.2954 0.6659 113.2954 13.0879 0 13.0879"></polygon>
        <polygon id="path-3" points="0 0.1806 113.2954 0.1806 113.2954 12.6006 0 12.6006"></polygon>
        <polygon id="path-5" points="0 120 113.296 120 113.296 0 0 0"></polygon>
    </defs>
    <g id="Display-board6" stroke="none" stroke-width="1" fill="none" fill-rule="evenodd">
        <g id="Page-1" transform="translate(3.000000, 0.000000)">
            <g id="Group-3" transform="translate(0.000000, 3.000000)">
                <mask id="mask-2" fill="white">
                    <use xlink:href="#path-1"></use>
                </mask>
                <g id="Clip-2"></g>
                <path d="M113.2954,6.8769 C113.2954,10.3139 110.5244,13.0879 107.0874,13.0879 L6.2114,13.0879 C2.7864,13.0879 -0.0006,10.3139 -0.0006,6.8769 C-0.0006,5.1659 0.7004,3.6159 1.8254,2.4909 C2.9504,1.3659 4.4974,0.6659 6.2114,0.6659 L107.0874,0.6659 C110.5244,0.6659 113.2954,3.4529 113.2954,6.8769" id="Fill-1" fill="#4C311A" mask="url(#mask-2)"></path>
            </g>
            <g id="Group-6" transform="translate(0.000000, 104.000000)">
                <mask id="mask-4" fill="white">
                    <use xlink:href="#path-3"></use>
                </mask>
                <g id="Clip-5"></g>
                <path d="M113.2954,6.3896 C113.2954,9.8136 110.5094,12.6006 107.0874,12.6006 L6.2114,12.6006 C2.7744,12.6006 -0.0006,9.8136 -0.0006,6.3896 C-0.0006,4.6786 0.6884,3.1286 1.8134,2.0036 C2.9364,0.8786 4.4854,0.1806 6.2114,0.1806 L107.0874,0.1806 C110.5094,0.1806 113.2954,2.9676 113.2954,6.3896" id="Fill-4" fill="#4C311A" mask="url(#mask-4)"></path>
            </g>
            <mask id="mask-6" fill="white">
                <use xlink:href="#path-5"></use>
            </mask>
            <g id="Clip-8"></g>
            <polygon id="Fill-7" fill="#E1E1E1" mask="url(#mask-6)" points="14.833 104.005 98.465 104.005 98.465 3.18 14.833 3.18"></polygon>
            <path d="M98.4653,104.0049 L56.6423,104.0049 L56.6423,3.1799 L98.4653,3.1799 L98.4653,3.6659 L107.0873,3.6659 C110.5243,3.6659 113.2953,6.4529 113.2953,9.8769 C113.2953,13.3139 110.5243,16.0879 107.0873,16.0879 L98.4653,16.0879 L98.4653,104.0049 Z" id="Fill-9" fill="#FFFFFF" opacity="0.3" mask="url(#mask-6)"></path>
            <path d="M113.2954,110.3896 C113.2954,113.8136 110.5094,116.6006 107.0874,116.6006 L56.6424,116.6006 L56.6424,104.1806 L107.0874,104.1806 C110.5094,104.1806 113.2954,106.9676 113.2954,110.3896" id="Fill-10" fill="#FFFFFF" opacity="0.3" mask="url(#mask-6)"></path>
            <path d="M106.7954,16.791 C106.7954,18.214 105.6414,19.368 104.2184,19.368 C102.7954,19.368 101.6414,18.214 101.6414,16.791 L101.6414,2.577 C101.6414,1.154 102.7954,0 104.2184,0 C105.6414,0 106.7954,1.154 106.7954,2.577 L106.7954,16.791 Z" id="Fill-11" fill="#FFAC00" mask="url(#mask-6)"></path>
            <path d="M11.3257,16.791 C11.3257,18.214 10.1707,19.368 8.7477,19.368 C7.3247,19.368 6.1707,18.214 6.1707,16.791 L6.1707,2.577 C6.1707,1.154 7.3247,0 8.7477,0 C10.1707,0 11.3257,1.154 11.3257,2.577 L11.3257,16.791 Z" id="Fill-12" fill="#FFAC00" mask="url(#mask-6)"></path>
            <path d="M106.7954,117.4228 C106.7954,118.8458 105.6414,119.9998 104.2184,119.9998 C102.7954,119.9998 101.6414,118.8458 101.6414,117.4228 L101.6414,103.2088 C101.6414,101.7858 102.7954,100.6318 104.2184,100.6318 C105.6414,100.6318 106.7954,101.7858 106.7954,103.2088 L106.7954,117.4228 Z" id="Fill-13" fill="#FFAC00" mask="url(#mask-6)"></path>
            <path d="M11.3257,117.4228 C11.3257,118.8458 10.1707,119.9998 8.7477,119.9998 C7.3247,119.9998 6.1707,118.8458 6.1707,117.4228 L6.1707,103.2088 C6.1707,101.7858 7.3247,100.6318 8.7477,100.6318 C10.1707,100.6318 11.3257,101.7858 11.3257,103.2088 L11.3257,117.4228 Z" id="Fill-14" fill="#FFAC00" mask="url(#mask-6)"></path>
        </g>
    </g>
</svg>