<?xml version="1.0" encoding="UTF-8"?>
<svg width="120px" height="120px" viewBox="0 0 120 120" version="1.1" xmlns="http://www.w3.org/2000/svg" xmlns:xlink="http://www.w3.org/1999/xlink">
    <!-- Generator: Sketch 51.1 (57501) - http://www.bohemiancoding.com/sketch -->
    <title>Cat20</title>
    <desc>Created with Sketch.</desc>
    <defs>
        <polygon id="path-1" points="0 0.0247264426 24.1961258 0.0247264426 24.1961258 61.9027776 0 61.9027776"></polygon>
        <polygon id="path-3" points="0.236830738 0.152582253 75.4541636 0.152582253 75.4541636 47.1910112 0.236830738 47.1910112"></polygon>
        <polygon id="path-5" points="0.124719992 0.259146067 25.0555416 0.259146067 25.0555416 34.456018 0.124719992 34.456018"></polygon>
        <polygon id="path-7" points="0.187577528 0.259146067 25.118419 0.259146067 25.118419 34.456018 0.187577528 34.456018"></polygon>
    </defs>
    <g id="Cat20" stroke="none" stroke-width="1" fill="none" fill-rule="evenodd">
        <g id="Group">
            <g id="Group-3" transform="translate(0.000000, 15.650966)">
                <mask id="mask-2" fill="white">
                    <use xlink:href="#path-1"></use>
                </mask>
                <g id="Clip-2"></g>
                <path d="M24.1961258,60.0561169 C19.9497438,59.1336 16.3138787,55.8027236 15.0238112,51.6531506 C13.9087551,48.066364 14.4780135,44.1996674 15.0567101,40.4885663 C15.7219685,36.2235775 16.387227,31.9588584 17.0524854,27.6938697 C18.2829573,19.8051506 19.3300584,11.035173 14.8115865,4.45297079 C13.5652045,2.63706067 11.8674067,1.04524045 9.77239551,0.365689888 C7.00996854,-0.5304 3.75783371,0.385914607 1.84646292,2.57261124 C-0.0649078652,4.7590382 -0.542211236,8.08425169 0.648620225,10.7328809 C1.67603596,13.0180045 3.73032809,14.6543191 5.19190112,16.6891955 C8.0829573,20.7139146 8.46911461,26.0149483 8.08996854,30.955982 C7.71109213,35.8970157 6.67342921,40.8304989 7.11810337,45.7661393 C7.49482247,49.9445663 8.95315955,54.0210607 11.3127101,57.4897348 C12.8624629,59.7683865 15.1411146,61.942409 17.8965303,61.9022292 L24.1961258,60.0561169 Z" id="Fill-1" fill="#231F20" mask="url(#mask-2)"></path>
            </g>
            <path d="M29.0100404,98.8502831 C36.6730517,106.184845 23.4050966,115.95662 40.5712989,115.213699 C42.7420854,111.014238 38.6984899,110.55689 37.9124225,107.098463 C37.2477034,104.173429 38.8028494,98.6340135 39.9864,96.1061933 L29.0100404,98.8502831 Z" id="Fill-4" fill="#836253"></path>
            <g id="Group-8" transform="translate(9.707865, 72.549843)">
                <mask id="mask-4" fill="white">
                    <use xlink:href="#path-3"></use>
                </mask>
                <g id="Clip-7"></g>
                <path d="M75.4319461,43.9740404 C75.3219236,43.331164 74.8346427,42.8322876 74.4371596,42.3153438 C72.4451596,39.7284674 73.2128899,37.9217258 73.8730247,35.2296809 C74.6318562,32.1352989 74.4994517,28.5708944 74.6013843,25.3972315 C74.8241258,18.4517933 74.5412494,11.4901753 73.7522157,4.58599551 C73.5877213,3.14626517 70.7748674,3.04460225 69.3793618,2.6565573 C62.7170697,0.803703371 53.8732045,2.17359101 46.9895191,1.51156854 C37.7732494,0.625186517 28.5073618,-0.262274157 19.2692494,0.361725843 C12.3475416,0.829051685 6.11239551,2.4092764 2.55931685,8.70320899 C-0.707919101,14.4907146 0.219182022,25.2003775 0.905474157,31.6121528 C1.19590112,34.3238831 1.43239551,39.0011865 3.06790112,41.2830742 C4.61360899,43.4395685 7.52327191,42.924782 10.1492494,43.1256809 C10.5052045,43.1531865 10.8746427,43.1785348 11.2087551,43.0526022 C12.5328,42.5539955 12.0700584,40.600018 11.5080809,39.3013213 C10.016036,35.8539506 9.96399101,31.0795685 13.1716315,29.1242427 C14.571182,28.2710292 16.2851596,28.1642427 17.9220135,28.0801079 C27.1072719,27.6081978 36.3515865,26.8188944 45.5805303,26.6813663 C45.7191371,28.4476584 45.7930247,30.2193438 45.7938337,31.9912989 C45.795182,34.8003775 45.533609,37.8405573 43.6853393,39.9557933 C42.9621034,40.7836584 41.9848449,41.4985348 41.7523955,42.5728719 C41.4498337,43.9724225 42.6447101,45.3425798 44.0151371,45.7581303 C45.3852944,46.1739506 46.8581933,45.8891865 48.2609798,45.6019955 C49.7721708,45.2929618 51.4465079,44.8752539 52.2716764,43.5725124 C52.6373393,42.9957034 52.7853843,42.3102202 52.8932494,41.6357933 C53.6089348,37.168018 52.8403955,32.5864449 53.2742831,28.0825348 C53.3174292,27.6348944 53.3735191,27.1886022 53.4403955,26.7441978 C56.257564,26.8391191 59.0714966,27.0200629 61.8797663,27.3161528 C62.6140584,27.3935461 63.411991,27.5108494 63.9173393,28.048827 C64.418373,28.5822202 64.4884854,29.3774562 64.5324404,30.1082427 C64.8854292,36.0076584 63.5996764,42.375209 68.5725303,46.260782 C69.0007551,46.5954337 69.4424629,46.9365573 69.9634517,47.0918831 C70.7794517,47.3345798 71.6518112,47.0859506 72.4667326,46.8381303 C73.1888899,46.6183551 73.9285753,46.3896809 74.526418,45.9290966 C75.123991,45.4682427 75.559227,44.7180404 75.4319461,43.9740404" id="Fill-6" fill="#9A8479" mask="url(#mask-4)"></path>
            </g>
            <g id="Group-11" transform="translate(32.629213, 0.010517)">
                <mask id="mask-6" fill="white">
                    <use xlink:href="#path-5"></use>
                </mask>
                <g id="Clip-10"></g>
                <path d="M25.0555416,18.7430292 C24.7966652,16.3961528 23.0867326,14.4977258 21.3994517,12.8460404 C16.4994067,8.0492764 11.0470921,3.81664719 5.18488989,0.25898427 C-0.190840449,10.8305798 -2.05502022,23.943209 3.43504719,34.456018 L25.0555416,18.7430292 Z" id="Fill-9" fill="#231F20" mask="url(#mask-6)"></path>
            </g>
            <path d="M86.6801258,74.6597663 C86.9818787,75.5531596 86.4341933,76.4996764 85.8403955,77.2320809 C83.4021034,80.2393618 79.8115416,82.1774292 76.0486652,83.0888899 C72.2857888,84.0000809 68.3462831,83.9458787 64.5035865,83.4745079 C61.6378787,83.1234067 58.7309124,82.5169348 56.2764404,80.9968449 C53.8216989,79.4772944 51.8736539,76.8936539 51.7655191,74.0088 C51.7204854,72.8101483 52.0149573,71.559991 52.7905079,70.6447551 C53.4239461,69.8969798 54.3227326,69.428036 55.2277213,69.0521258 C59.5954517,67.2386427 64.5480809,67.2254292 69.1741483,68.2064629 C73.8002157,69.1877663 78.1668674,71.1104629 82.4590921,73.095182 L86.6801258,74.6597663 Z" id="Fill-12" fill="#231F20"></path>
            <g id="Group-16" transform="translate(88.449438, 0.010517)">
                <mask id="mask-8" fill="white">
                    <use xlink:href="#path-7"></use>
                </mask>
                <g id="Clip-15"></g>
                <path d="M0.187577528,18.7430292 C0.446723596,16.3961528 2.15638652,14.4977258 3.84366742,12.8460404 C8.74371236,8.0492764 14.196027,3.81664719 20.0584989,0.25898427 C25.4339596,10.8305798 27.2981393,23.943209 21.8080719,34.456018 L0.187577528,18.7430292 Z" id="Fill-14" fill="#231F20" mask="url(#mask-8)"></path>
            </g>
            <path d="M54.3084404,77.700836 C51.4961258,76.6556225 48.7574292,75.2363865 46.0125303,73.3776 C34.7206652,65.7310382 30.3567101,52.1402966 34.0225079,39.0025888 C38.0056989,24.7290607 51.0565753,12.3024539 66.2701483,10.8513978 C77.1232719,9.8161618 88.5084404,11.4500494 97.759227,17.2197573 C107.010013,22.9894652 113.757249,33.3070382 113.563631,44.2076225 C113.375137,54.8423191 108.316261,64.8975101 99.6592719,70.998364 C90.6250247,77.364836 80.7278562,79.9873079 69.7026876,80.1121618 C64.0936989,80.1752629 59.0941483,79.4795326 54.3084404,77.700836" id="Fill-17" fill="#9A8479"></path>
            <path d="M53.6184809,25.1299955 C53.4626157,25.0561079 53.4812225,25.0825348 53.6743011,25.2095461 C53.7738067,25.2672539 53.8549753,25.3435685 53.9178067,25.4384899 C54.1178966,25.6539506 54.2586607,25.9052764 54.351964,26.1830292 C54.4838292,26.5764674 54.5415371,26.9963326 54.5962787,27.4054112 C54.7637393,28.6512539 54.2440989,29.9310742 53.1187955,30.5620854 C52.0363685,31.1693663 50.612818,30.6281528 50.2803236,29.4071191 C50.0203685,28.4533213 50.2164135,27.4507146 50.7514247,26.6309393 C50.8981213,26.4063101 51.0386157,26.1816809 51.1766831,25.9519281 C51.2991101,25.7480629 51.4120989,25.551209 51.5916944,25.3842876 C51.6418517,25.337636 52.0379865,24.9681978 51.8926382,25.1299955 C52.3044135,24.6715685 53.2129079,24.640827 53.6184809,25.1299955" id="Fill-19" fill="#231F20"></path>
            <path d="M97.6325393,25.5853213 C98.0586067,26.0116584 98.2368539,26.4978607 98.4558202,27.0485124 C98.6033258,27.4198382 98.8427865,27.6962427 99.0954607,28.033591 C100.055461,29.3161079 98.8786517,31.1099056 97.4923146,31.295973 C96.0115955,31.4949843 94.6044944,30.0690067 95.084764,28.5575461 C95.2454831,28.0516584 95.2988764,27.9766921 95.3199101,27.4729618 C95.3449888,26.8708045 95.399191,26.3916135 95.662382,25.8390742 C96.0153708,25.0991191 97.1004944,25.0530067 97.6325393,25.5853213" id="Fill-21" fill="#231F20"></path>
            <path d="M77.2045213,36.2697978 C77.0230382,33.06 73.6411955,31.3193258 70.7167011,32.0409438 C69.2966562,32.3915056 67.9674876,33.4351011 67.6042517,34.9009888 C67.1579596,36.7036854 68.2473978,38.2955056 69.864027,38.9777528 C70.2442517,39.1382022 70.651982,39.2358202 71.0667236,39.2832809 C71.9094202,39.684 72.858364,39.9428764 73.7156225,39.8902921 C75.5986787,39.7746067 77.3175101,38.268809 77.2045213,36.2697978" id="Fill-23" fill="#231F20"></path>
            <path d="M72.7406022,45.3381303 C72.7406022,45.3381303 74.9939056,55.1638382 70.1901303,55.4049169 C70.1901303,55.4049169 64.5687371,55.4623551 67.8704899,44.5852315 L72.2136809,43.7770517 L72.7406022,45.3381303 Z" id="Fill-25" fill="#F16F7A"></path>
            <path d="M77.4391551,43.4333663 C78.8397843,45.9042876 74.922391,47.3785348 73.0652225,46.379164 C69.8257618,44.6360629 70.197627,40.1095011 71.7214921,37.3473438 C72.4700764,35.9904 74.7694921,36.9045573 74.2619865,38.4184449 C73.6973124,40.1027596 72.4929978,41.9841978 73.5290427,43.7477933 C74.4537169,45.3215461 76.1590652,44.7266697 77.0001438,43.4333663 C77.1015371,43.2772315 77.3412674,43.2605124 77.4391551,43.4333663" id="Fill-27" fill="#231F20"></path>
            <path d="M63.4809438,43.4058607 C65.8286292,43.6151191 67.8182022,44.1649618 69.4084045,41.9868944 C70.455236,40.5533663 70.7302921,38.5241528 71.9974382,37.3260404 C72.5278652,36.8244674 73.6057079,36.976018 73.7540225,37.789591 C74.1798202,40.1262202 72.0931685,43.2729169 70.2397753,44.631209 C67.9462921,46.3122876 65.3044045,45.7670292 63.1932135,44.1005124 C62.9222022,43.8864 63.1438652,43.3759281 63.4809438,43.4058607" id="Fill-29" fill="#231F20"></path>
            <path d="M43.1847101,41.7028045 C40.5207101,41.8397933 37.8154517,41.4463551 35.1376989,41.5156584 C32.4235416,41.5860404 29.7447101,42.3435236 27.0478112,42.364827 C24.8683955,42.3818157 24.2298337,38.7467596 26.516036,38.4358382 C29.365564,38.0486022 32.2994966,38.6259506 35.1376989,38.9495461 C37.844036,39.2583101 40.7990022,39.4802427 43.3513618,40.4709843 C43.9977438,40.7217708 43.9230472,41.664782 43.1847101,41.7028045" id="Fill-31" fill="#231F20"></path>
            <path d="M43.3644404,47.0468225 C42.0498337,47.5181933 40.6033618,47.6036764 39.2270022,47.8328899 C37.950418,48.0453843 36.697564,48.3592719 35.4250247,48.5855191 C32.8125303,49.0493393 30.1717213,49.4487101 27.5263281,49.6436764 C25.5273169,49.791182 25.0497438,46.4802607 27.0484854,46.1143281 C29.7750472,45.6154517 32.5773843,45.3803056 35.3522157,45.4072719 C37.8905528,45.4320809 40.9013393,45.2721708 43.3644404,45.9026427 C43.9660584,46.0566202 43.8883955,46.8591371 43.3644404,47.0468225" id="Fill-33" fill="#231F20"></path>
            <path d="M102.994975,39.7684315 C105.314616,38.1563865 108.453492,38.0069933 111.191649,38.0091506 C113.595155,38.0110382 117.43893,37.7287011 119.256728,39.5572854 C119.923335,40.2282067 119.524773,41.1660944 118.747874,41.4837573 C117.60747,41.9502742 116.453043,41.647173 115.265717,41.4700045 C113.79929,41.2510382 112.325582,41.1118921 110.843784,41.0584989 C108.281178,40.9660045 105.602346,41.2909483 103.104189,40.6049258 C102.702121,40.4946337 102.682166,39.9860494 102.994975,39.7684315" id="Fill-35" fill="#231F20"></path>
            <path d="M103.634103,44.0179955 C105.91653,43.2996135 108.560036,44.028782 110.838148,44.5292764 C113.519137,45.1187596 116.079856,45.9989393 118.638418,46.980782 C121.050013,47.9065348 119.464126,51.4833438 117.280126,50.2029843 C115.031137,48.8846022 112.625204,47.8286022 110.162643,46.9788944 C107.979182,46.2259955 105.502867,45.9700854 103.5408,44.7307146 C103.253339,44.5489618 103.310778,44.1196584 103.634103,44.0179955" id="Fill-37" fill="#231F20"></path>
            <path d="M69.4485573,90.3296899 C66.6624,90.2849258 62.2841528,87.1816449 65.0978157,83.2602067 C65.5052764,82.692027 66.1039281,82.3776 66.7028494,82.1788584 C69.6605124,81.1989034 72.1594787,81.6451955 73.5334112,85.1901843 C73.7154337,85.6602067 73.8734562,86.1620494 73.8613213,86.6808809 C73.8472989,87.2789933 73.6062202,87.8396225 73.2974562,88.306409 C72.3924674,89.6754876 70.8966472,90.3528809 69.4485573,90.3296899" id="Fill-39" fill="#EDE83A"></path>
            <path d="M70.5285034,85.9670292 C70.2356494,85.8624 69.9395596,85.7761079 69.6421213,85.696018 C69.6046382,85.1979506 69.5245483,84.7109393 69.3360539,84.2935011 C69.236818,84.0742652 68.8843685,84.0923326 68.780009,84.2935011 C68.608773,84.6224899 68.5073798,85.0029843 68.4421213,85.4004674 C68.4343011,85.3985798 68.4267506,85.3969618 68.4189303,85.3950742 C67.6738517,85.2184449 67.5169079,86.365591 68.2792449,86.4273438 C68.2981213,86.4286921 68.3161888,86.4303101 68.3347955,86.4316584 C68.3134921,86.749591 68.296773,87.0610517 68.2698067,87.347164 C68.1848629,88.2521528 69.7319191,88.2742652 69.693627,87.347164 C69.6828404,87.087209 69.6809528,86.8089169 69.6763685,86.5238831 C69.9338966,86.5346697 70.191964,86.5408719 70.4519191,86.5330517 C70.7887281,86.5228045 70.8286382,86.0743551 70.5285034,85.9670292" id="Fill-41" fill="#F7983D"></path>
        </g>
    </g>
</svg>