<?xml version="1.0" encoding="UTF-8"?>
<svg width="120px" height="120px" viewBox="0 0 120 120" version="1.1" xmlns="http://www.w3.org/2000/svg" xmlns:xlink="http://www.w3.org/1999/xlink">
    <!-- Generator: Sketch 51.1 (57501) - http://www.bohemiancoding.com/sketch -->
    <title>Athlete5</title>
    <desc>Created with Sketch.</desc>
    <defs>
        <polygon id="path-1" points="0.199373684 0.299053333 13.3734789 0.299053333 13.3734789 5.86666667 0.199373684 5.86666667"></polygon>
    </defs>
    <g id="Athlete5" stroke="none" stroke-width="1" fill="none" fill-rule="evenodd">
        <g id="Group-23" transform="translate(29.000000, 3.000000)">
            <path d="M0.473858065,46.9698655 C8.43050323,59.36892 19.0545032,49.0239382 15.4416,38.0612836 C12.8176,30.1061564 27.0524387,40.6521927 27.0524387,40.6521927 C27.0524387,40.6521927 18.7179871,63.7154291 11.4880516,64.0615745 C4.25605161,64.4035745 0.447019355,53.1175745 0.473858065,46.9698655" id="Fill-585" fill="#F6B90C"></path>
            <path d="M7.43024516,80.0151491 C8.47489032,80.1270764 9.47618065,79.4264945 10.1120516,78.2844218 C10.7045677,78.7735855 11.2908903,78.9684218 11.7141161,78.74664 C12.4965677,78.3258764 12.4036645,76.6055127 11.5035355,74.8996582 C11.1587613,74.2467491 10.7458581,73.6933309 10.3246968,73.2787855 C10.2896,73.20624 10.2524387,73.1419855 10.2152774,73.0735855 C10.2152774,73.0735855 11.765729,63.0954764 13.4276645,60.7387855 C13.9954065,59.9283491 14.4413419,59.36664 14.6952774,58.9210036 L14.6952774,58.9292945 C12.5915355,68.7519491 12.3479226,81.8432945 12.3479226,81.8432945 L43.4168258,81.8432945 C43.4168258,81.8432945 43.1154065,66.7807855 40.5533419,56.85864 C41.9324387,57.4016945 48.8733419,60.0547855 50.9956645,59.2837309 C53.9128258,58.2204218 57.2656,48.6713673 57.2656,48.6713673 L57.261471,48.6713673 C58.5208258,48.2257309 59.7368258,47.0194036 60.4366968,45.3570764 C61.5329548,42.7640945 60.9590194,40.0405309 59.1608258,39.2777673 C57.9881806,38.77824 56.5822452,39.2383855 55.4446968,40.3390036 C54.9285677,39.5596582 54.3154065,39.1243855 53.749729,39.23424 C52.6906323,39.43944 52.1951484,41.4707127 52.6410839,43.7693673 C52.8103742,44.6461309 53.0932129,45.4379127 53.4379871,46.0659491 C53.4813419,46.3540582 53.5515355,46.6276582 53.6403097,46.8826036 L48.2705032,53.2147855 L36.7030194,49.0548218 L36.7030194,49.0486036 C34.5992774,47.8381309 29.6692129,47.60184 29.6692129,47.60184 L27.9515355,47.7075491 L27.8111484,47.7075491 L26.0893419,47.6329309 C26.0893419,47.6329309 21.1365677,47.8091127 19.0452129,49.0071491 L19.0328258,49.0071491 C19.0328258,49.0071491 12.533729,52.4271491 10.7912774,54.6636218 C7.33527742,59.1013309 5.94792258,72.13464 5.85708387,73.0259127 L5.85708387,73.0155491 C5.39463226,73.6829673 5.07050323,74.5535127 4.96934194,75.5235491 C4.72572903,77.83464 5.82611613,79.8451855 7.43024516,80.0151491 Z" id="Fill-586" fill="#FDDFBB"></path>
            <path d="M12.3468903,81.8439164 C12.3613419,81.2034436 12.6049548,70.2843164 14.2772129,61.0772618 C14.3164387,60.8762073 14.3370839,60.6938073 14.3783742,60.4948255 C17.8116645,56.6457709 18.253471,53.0765345 19.0586323,49.0098436 C19.989729,48.4771527 21.4844387,48.1496618 22.8573419,47.9486073 C22.8573419,47.9486073 22.8573419,54.0755891 27.8101161,54.0755891 C32.4965677,54.0755891 32.2715355,47.8636255 32.2715355,47.8636255 C33.7972129,48.0708982 35.6284387,48.4336255 36.7061161,49.0575164 C37.5525677,51.6131891 38.4361806,56.9380255 41.0746323,59.1019527 C43.0999226,68.6344255 43.4013419,81.1371164 43.4157935,81.8439164 L12.3468903,81.8439164 Z" id="Fill-587" fill="#0771B7"></path>
            <path d="M36.2581161,53.9186836 L36.2581161,55.7115927 C36.2581161,56.66712 35.4859871,57.44232 34.5363097,57.44232 L34.5321806,57.44232 C33.5845677,57.44232 32.8124387,56.66712 32.8124387,55.7115927 L32.8124387,53.9186836 L36.2581161,53.9186836 Z" id="Fill-588" fill="#F6B90C"></path>
            <path d="M41.0403613,59.0723127 C40.2001032,58.3696582 39.5415226,57.3540218 39.0006194,56.19744 L39.0006194,81.8432945 L41.0403613,81.8432945 L41.0403613,59.0723127 Z" id="Fill-589" fill="#EEEEED"></path>
            <path d="M16.546529,57.4792145 L16.546529,81.8441236 L14.5047226,81.8441236 L14.5047226,60.3499418 C15.3553032,59.3799055 16.0200774,58.4264509 16.546529,57.4792145" id="Fill-590" fill="#EEEEED"></path>
            <polygon id="Fill-591" fill="#EEEEED" points="18.204129 76.0796618 37.532129 76.0796618 37.532129 64.0391891 18.204129 64.0391891"></polygon>
            <polygon id="Fill-592" fill="#99588C" points="18.204129 66.4704982 37.532129 66.4704982 37.532129 64.0391891 18.204129 64.0391891"></polygon>
            <polygon id="Fill-593" fill="#99588C" points="18.204129 76.0796618 37.532129 76.0796618 37.532129 74.5437709 18.204129 74.5437709"></polygon>
            <polygon id="Fill-594" fill="#333433" points="25.4920774 72.3730036 24.7220129 72.3730036 24.7220129 69.1830764 23.9251097 69.1830764 23.9251097 68.5923491 25.4920774 68.4514036"></polygon>
            <polygon id="Fill-595" fill="#333433" points="28.5969032 72.3730036 27.8268387 72.3730036 27.8268387 69.1830764 27.0299355 69.1830764 27.0299355 68.5923491 28.5969032 68.4514036"></polygon>
            <path d="M32.4899613,72.3730036 L29.9072516,72.3730036 L29.9072516,71.8651855 L31.0984774,70.5116945 C31.2760258,70.3002764 31.4040258,70.1240945 31.4783484,69.9769309 C31.552671,69.8297673 31.5898323,69.6971127 31.5898323,69.5748218 C31.5898323,69.4152218 31.5506065,69.2908582 31.4721548,69.1955127 C31.3916387,69.0960218 31.2718968,69.0483491 31.112929,69.0483491 C30.9477677,69.0483491 30.8177032,69.1105309 30.7268645,69.2328218 C30.6360258,69.3551127 30.5885419,69.5084945 30.5885419,69.6971127 L29.8391226,69.6971127 L29.8349935,69.6805309 C29.824671,69.3364582 29.9382194,69.0483491 30.1694452,68.8079127 C30.4048,68.5716218 30.7227355,68.4514036 31.112929,68.4514036 C31.5072516,68.4514036 31.816929,68.55504 32.0357677,68.7560945 C32.2525419,68.9592218 32.3619613,69.2307491 32.3619613,69.5727491 C32.3619613,69.8048945 32.3020903,70.01424 32.1802839,70.2070036 C32.0564129,70.3976945 31.8458323,70.6609309 31.5444129,70.9987855 L30.9106065,71.7656945 L30.9147355,71.7760582 L32.4899613,71.7760582 L32.4899613,72.3730036 Z" id="Fill-596" fill="#333433"></path>
            <polygon id="Fill-597" fill="#FDDFBB" points="26.0907871 107.420956 17.8636903 107.420956 17.8389161 103.329393 17.506529 95.6996836 16.9057548 92.7543382 27.2386581 92.7543382 27.2386581 95.6996836 27.0115613 103.329393"></polygon>
            <polygon id="Fill-598" fill="#FDDFBB" points="37.8932129 107.420956 29.0240516 107.420956 28.7329548 103.329393 28.5141161 95.6996836 28.5141161 92.7543382 38.8511484 92.7543382 38.2503742 95.6996836 37.9138581 103.329393"></polygon>
            <polygon id="Fill-599" fill="#343434" points="31.004129 81.8014255 27.8784516 81.8014255 25.0087742 81.8014255 15.7576774 81.8014255 16.8291613 92.9444073 27.3396129 92.9444073 27.7380645 88.8466255 28.0188387 88.8466255 28.4152258 92.9444073 38.9194839 92.9444073 39.9971613 81.8014255"></polygon>
            <path d="M27.0121806,103.330222 L17.8395355,103.330222 L17.6103742,107.237313 L17.6186323,107.237313 C17.3068903,107.430076 17.0116645,107.680876 16.7412129,107.933749 L16.7412129,110.439676 L24.2085677,110.439676 C24.3510194,110.354695 24.4893419,110.26764 24.6256,110.174367 C25.4679226,109.581567 26.4568258,108.928658 27.0266323,108.047749 C27.2021161,107.776222 27.2867613,107.494331 27.2227613,107.237313 L27.2021161,107.237313 L27.0121806,103.330222 Z" id="Fill-600" fill="#EEEEED"></path>
            <polygon id="Fill-601" fill="#E63744" points="27.0363355 103.769433 17.8120774 103.769433 17.8017548 103.964269 27.0445935 103.964269"></polygon>
            <polygon id="Fill-602" fill="#E63744" points="27.0524387 104.155996 17.7910194 104.155996 17.7806968 104.34876 27.0627613 104.34876"></polygon>
            <path d="M39.7056516,108.732578 C39.303071,108.148069 38.7456516,107.619524 38.1366194,107.236069 L38.1407484,107.236069 L37.9136516,103.331051 L28.7348129,103.331051 L28.5448774,107.236069 L28.5324903,107.236069 C28.4705548,107.493087 28.5531355,107.774978 28.7306839,108.048578 C29.2984258,108.929487 30.287329,109.576178 31.1296516,110.166905 C31.2659097,110.260178 31.4042323,110.353451 31.5487484,110.438433 L39.7056516,110.438433 L39.7056516,108.732578 Z" id="Fill-603" fill="#EEEEED"></path>
            <polygon id="Fill-604" fill="#E63744" points="28.7015742 103.963855 37.9506065 103.963855 37.9423484 103.769018 28.7139613 103.769018"></polygon>
            <polygon id="Fill-605" fill="#E63744" points="28.6836129 104.348345 37.976 104.348345 37.9615484 104.155582 28.6939355 104.155582"></polygon>
            <path d="M17.6330839,107.236898 L22.1791484,106.892825 C22.1791484,106.892825 20.9590194,105.215989 19.3528258,105.294753 C17.7982452,105.371444 17.6103742,107.222389 17.6103742,107.222389 L17.6330839,107.236898 Z" id="Fill-606" fill="#6E6E6D"></path>
            <path d="M18.2138323,107.060716 L21.3395097,106.824425 C21.3395097,106.824425 20.4992516,105.671989 19.392671,105.72588 C18.3273806,105.779771 18.1973161,107.052425 18.1973161,107.052425 L18.2138323,107.060716 Z" id="Fill-607" fill="#E63744"></path>
            <path d="M17.6330839,107.236898 L17.6103742,107.228607 L17.6103742,107.236898 L17.6186323,107.236898 C15.8183742,108.389335 14.5115355,110.648607 16.0496,112.503698 C17.2181161,113.811589 18.9316645,112.785589 20.2364387,112.234244 C21.677471,111.544025 23.3228903,111.067298 24.6256,110.17188 C25.4679226,109.57908 26.4568258,108.928244 27.0266323,108.047335 C27.2021161,107.775807 27.2867613,107.493916 27.2227613,107.236898 L27.2227613,105.506171 C27.2227613,105.506171 27.1092129,105.329989 26.7086968,105.506171 C25.9138581,105.858535 25.389471,107.43588 23.6965677,107.236898 C19.501471,106.065807 17.6330839,107.236898 17.6330839,107.236898" id="Fill-608" fill="#E63744"></path>
            <path d="M26.8992516,108.228698 L26.6907355,108.038007 C26.6907355,108.038007 24.5374452,110.230953 22.6752516,110.774007 L22.8445419,111.122225 C23.4721548,110.848625 24.0791226,110.543935 24.6241548,110.170844 C25.408671,109.619498 26.3191226,109.02048 26.8992516,108.228698" id="Fill-609" fill="#343434"></path>
            <path d="M17.6330839,107.236898 L17.6103742,107.222389 L17.6103742,107.23068 L17.6186323,107.23068 C17.5690839,107.292862 17.5195355,107.297007 17.4699871,107.332244 C17.1912774,107.947844 17.2263742,108.59868 18.6281806,108.588316 C19.7182452,108.580025 21.2563097,107.576825 22.1791484,106.892825 C19.0514065,106.347698 17.6330839,107.236898 17.6330839,107.236898" id="Fill-610" fill="#343434"></path>
            <path d="M17.5666065,108.435142 C17.0938323,108.435142 16.6375742,108.470378 16.1916387,108.538778 C16.1854452,108.542924 16.1813161,108.551215 16.1771871,108.55536 C15.2873806,109.726451 14.9797677,111.212596 16.0512516,112.503905 C17.2177032,113.811796 18.9312516,112.785796 20.2360258,112.234451 C21.2331871,111.757724 22.3315097,111.380487 23.3451871,110.895469 C22.1869935,109.423833 20.0337032,108.435142 17.5666065,108.435142" id="Fill-611" fill="#343434"></path>
            <path d="M27.1713548,105.700593 C26.7667097,105.700593 26.4405161,106.452993 26.4405161,107.381575 C26.4405161,107.833429 26.5169032,108.243829 26.6428387,108.544375 C26.7852903,108.386847 26.9132903,108.221029 27.0268387,108.04692 C27.2023226,107.775393 27.2869677,107.493502 27.2209032,107.236484 L27.2209032,105.704738 C27.2085161,105.702665 27.1899355,105.700593 27.1713548,105.700593" id="Fill-612" fill="#EEEEED"></path>
            <path d="M16.5585032,108.141644 C16.5440516,108.141644 16.5296,108.133353 16.5275355,108.116771 C16.5234065,108.100189 16.533729,108.083607 16.5502452,108.079462 C16.5708903,108.073244 18.6044387,107.575789 21.2139871,108.064953 C21.2325677,108.067025 21.2428903,108.08568 21.2408258,108.100189 C21.2366968,108.118844 21.2181161,108.129207 21.2016,108.127135 C18.6065032,107.640044 16.5874065,108.135425 16.5667613,108.139571 C16.5646968,108.141644 16.5605677,108.141644 16.5585032,108.141644" id="Fill-613" fill="#C12636"></path>
            <path d="M17.0948645,107.647713 C17.0804129,107.647713 17.0680258,107.639422 17.0638968,107.626985 C17.0577032,107.608331 17.0680258,107.591749 17.0845419,107.587604 C17.1031226,107.579313 18.9921548,106.955422 21.6140903,107.55444 C21.632671,107.558585 21.6450581,107.57724 21.640929,107.593822 C21.6368,107.610404 21.6202839,107.62284 21.6017032,107.616622 C18.9962839,107.023822 17.1258323,107.639422 17.1051871,107.64564 C17.1010581,107.647713 17.0989935,107.647713 17.0948645,107.647713" id="Fill-614" fill="#C12636"></path>
            <path d="M38.119071,107.236898 L33.5771355,106.892825 C33.5771355,106.892825 34.7952,105.215989 36.4034581,105.294753 C37.9559742,105.371444 38.1459097,107.222389 38.1459097,107.222389 L38.119071,107.236898 Z" id="Fill-615" fill="#6E6E6D"></path>
            <path d="M37.5403871,107.060716 L34.4167742,106.824425 C34.4167742,106.824425 35.2570323,105.671989 36.3594839,105.72588 C37.4268387,105.779771 37.5569032,107.052425 37.5569032,107.052425 L37.5403871,107.060716 Z" id="Fill-616" fill="#E63744"></path>
            <path d="M38.119071,107.236898 L38.1459097,107.228607 L38.1459097,107.236898 L38.1355871,107.236898 C39.9379097,108.389335 41.2447484,110.648607 39.7025548,112.503698 C38.5361032,113.811589 36.8225548,112.785589 35.5177806,112.234244 C34.0767484,111.544025 32.4333935,111.067298 31.1265548,110.17188 C30.2862968,109.57908 29.2994581,108.928244 28.7296516,108.047335 C28.5521032,107.775807 28.4674581,107.493916 28.5314581,107.236898 L28.5314581,105.506171 C28.5314581,105.506171 28.647071,105.329989 29.0434581,105.506171 C29.8403613,105.858535 30.3647484,107.43588 32.0597161,107.236898 C36.2527484,106.065807 38.119071,107.236898 38.119071,107.236898" id="Fill-617" fill="#E63744"></path>
            <path d="M28.8549677,108.228698 L29.0614194,108.038007 C29.0614194,108.038007 31.2188387,110.230953 33.0810323,110.774007 L32.9096774,111.122225 C32.284129,110.848625 31.6730323,110.543935 31.128,110.170844 C30.3476129,109.619498 29.4350968,109.02048 28.8549677,108.228698" id="Fill-618" fill="#343434"></path>
            <path d="M38.119071,107.236898 L38.1459097,107.222389 L38.1459097,107.23068 L38.1355871,107.23068 C38.1872,107.292862 38.2367484,107.297007 38.2862968,107.332244 C38.5629419,107.947844 38.5278452,108.59868 37.1260387,108.588316 C36.0359742,108.580025 34.4958452,107.576825 33.5771355,106.892825 C36.7048774,106.347698 38.119071,107.236898 38.119071,107.236898" id="Fill-619" fill="#343434"></path>
            <path d="M38.1876129,108.435142 C38.6603871,108.435142 39.1187097,108.470378 39.5646452,108.538778 C39.5687742,108.542924 39.5708387,108.551215 39.5770323,108.55536 C40.4668387,109.726451 40.7744516,111.212596 39.7009032,112.503905 C38.5365161,113.811796 36.8229677,112.785796 35.5181935,112.234451 C34.5210323,111.757724 33.4227097,111.380487 32.4110968,110.895469 C33.5672258,109.423833 35.7225806,108.435142 38.1876129,108.435142" id="Fill-620" fill="#343434"></path>
            <path d="M28.5826581,105.700593 C28.9873032,105.700593 29.3155613,106.452993 29.3155613,107.381575 C29.3155613,107.833429 29.2391742,108.243829 29.1132387,108.544375 C28.9707871,108.386847 28.8427871,108.221029 28.7292387,108.04692 C28.5516903,107.775393 28.4670452,107.493502 28.5331097,107.236484 L28.5331097,105.704738 C28.5475613,105.702665 28.5661419,105.700593 28.5826581,105.700593" id="Fill-621" fill="#EEEEED"></path>
            <path d="M39.1975742,108.141644 C39.1975742,108.141644 39.2244129,108.133353 39.2285419,108.116771 C39.2306065,108.100189 39.2223484,108.083607 39.2037677,108.079462 C39.1851871,108.073244 37.1495742,107.575789 34.5400258,108.064953 C34.5235097,108.067025 34.5090581,108.08568 34.5152516,108.100189 C34.5193806,108.118844 34.5358968,108.129207 34.5503484,108.127135 C37.1495742,107.640044 39.168671,108.135425 39.1893161,108.139571 C39.1913806,108.141644 39.1934452,108.141644 39.1975742,108.141644" id="Fill-622" fill="#C12636"></path>
            <path d="M38.6614194,107.647713 C38.6614194,107.647713 38.6861935,107.639422 38.6903226,107.626985 C38.6985806,107.608331 38.6903226,107.591749 38.6696774,107.587604 C38.6531613,107.579313 36.7620645,106.955422 34.1380645,107.55444 C34.1215484,107.558585 34.1112258,107.57724 34.1132903,107.593822 C34.1174194,107.610404 34.136,107.62284 34.1504516,107.616622 C36.76,107.023822 38.6325161,107.639422 38.6490323,107.64564 C38.6531613,107.647713 38.6572903,107.647713 38.6614194,107.647713" id="Fill-623" fill="#C12636"></path>
            <path d="M29.4497548,49.3947491 L25.8141419,49.3947491 C24.7715613,49.3947491 23.9313032,47.1520582 23.9313032,46.1281309 L31.330529,46.1281309 C31.330529,47.1520582 30.4882065,49.3947491 29.4497548,49.3947491" id="Fill-624" fill="#FDDFBB"></path>
            <path d="M24.7218065,48.5629636 L31.3034839,46.3824545 L31.3138065,46.3679455 C30.0916129,46.5814364 28.8322581,46.6892182 27.5501935,46.6892182 C26.3218065,46.6892182 25.116129,46.5897273 23.9455484,46.3969636 C24.0136774,47.0374364 24.3047742,47.9245636 24.7218065,48.5629636" id="Fill-625" fill="#EEAC6C"></path>
            <path d="M5.83065806,27.6534982 C5.66549677,26.5570255 5.58085161,25.4336073 5.58085161,24.2915345 C5.58085161,11.93808 15.554529,1.92680727 27.8569806,1.92680727 C40.1573677,1.92680727 50.1331097,11.93808 50.1331097,24.2915345 C50.1331097,25.3817891 50.0546581,26.4513164 49.9060129,27.5021891 C51.1901419,28.2069164 52.0572387,29.5417527 52.0572387,31.0693527 C52.0572387,33.3389891 50.1516903,35.1795709 47.802271,35.1795709 C47.6453677,35.1795709 47.4864,35.1692073 47.3336258,35.1526255 C43.5307871,42.0154255 36.2347871,46.6562618 27.8569806,46.6562618 C19.4874323,46.6562618 12.1976258,42.0237164 8.39065806,35.1733527 C8.32252903,35.1754255 8.25852903,35.1795709 8.1904,35.1795709 C5.84098065,35.1795709 3.93749677,33.3389891 3.93749677,31.0693527 C3.93749677,29.6453891 4.68898065,28.3893164 5.83065806,27.6534982" id="Fill-626" fill="#FDDFBB"></path>
            <path d="M50.9194839,21.5971964 C50.9050323,20.4323236 50.8203871,19.0187236 50.6552258,17.5077055 C47.6781935,7.71821455 38.6087742,0.594250909 27.8836129,0.594250909 C18.5437419,0.594250909 10.4590968,5.99370545 6.56129032,13.8534873 C5.48154839,16.9418509 4.82296774,19.9804691 4.76722581,21.3526145 C4.57522581,26.1095236 5.94812903,27.6868691 5.94812903,27.6868691 C5.94812903,27.6868691 9.94296774,22.1402509 14.6665806,18.8073055 C18.3785806,16.1915236 21.683871,21.2489782 26.0936774,16.9149055 C26.488,16.5273055 27.9620645,15.0328691 27.9620645,15.0328691 C27.9620645,15.0328691 29.171871,16.3987964 29.8221935,16.9149055 C33.7468387,20.0219236 35.9331613,16.4920691 40.3202581,18.8860691 C43.9104516,20.8489418 49.7943226,27.8443964 49.7943226,27.8443964 C49.7943226,27.8443964 50.9566452,24.2129782 50.9194839,21.5971964" id="Fill-635" fill="#F6B90C"></path>
        </g>
        <g id="Page-1" transform="translate(44.000000, 24.000000)">
            <path d="M8.31106854,1.65026755 C8.31106854,1.65026755 7.80801591,3.45328977 6.22875275,3.09640088 C5.45712117,2.92235643 5.3211738,1.89471199 2.8433317,2.35573421 C2.06412117,2.53613421 0.42612117,3.51195643 0.110647486,4.16364532 C-0.205299883,4.8158231 0.0234895909,1.77248977 2.56764749,0.641689768 C4.4031738,-0.0329768984 5.02512117,0.000267546019 6.54470012,0.000267546019 C8.06427906,0.000267546019 8.53227906,0.907156435 8.31106854,1.65026755" id="Fill-1" fill="#F6B90C"></path>
            <path d="M18.05184,1.65026755 C18.05184,1.65026755 18.5548926,3.45328977 20.1341558,3.09640088 C20.9057873,2.92235643 21.0417347,1.89471199 23.5195768,2.35573421 C24.2987873,2.53613421 25.9367873,3.51195643 26.252261,4.16364532 C26.5682084,4.8158231 26.3394189,1.77248977 23.795261,0.641689768 C21.9597347,-0.0329768984 21.3377873,0.000267546019 19.8182084,0.000267546019 C18.2986294,0.000267546019 17.8306294,0.907156435 18.05184,1.65026755" id="Fill-3" fill="#F6B90C"></path>
            <path d="M6,9 C6,10.6568785 5.10453816,12 3.99983098,12 C2.89512381,12 2,10.6568785 2,9 C2,7.34312148 2.89512381,6 3.99983098,6 C5.10453816,6 6,7.34312148 6,9" id="Fill-5" fill="#6172BB"></path>
            <path d="M24,9 C24,10.6568785 23.1048762,12 22.000169,12 C20.8951238,12 20,10.6568785 20,9 C20,7.34312148 20.8951238,6 22.000169,6 C23.1048762,6 24,7.34312148 24,9" id="Fill-7" fill="#6172BB"></path>
            <path d="M13.0197368,12.0692 C13.8586316,11.9552889 15.9802632,13.8262667 15.9802632,13.8262667 C15.9802632,13.8262667 16.0825789,13.4116889 15.6396842,12.5884 C15.1626842,11.7025333 12.9903684,11 12.9903684,11 C12.9903684,11 11.3026316,11.4478222 10.5030526,12.6040444 C10.207,12.8939556 10,13.9025333 10,13.9025333 C10,13.9025333 11.8947368,12.2217333 13.0197368,12.0692 Z" id="Fill-9" fill="#EEAC6C"></path>
            <g id="Group-13" transform="translate(6.000000, 15.000000)">
                <mask id="mask-2" fill="white">
                    <use xlink:href="#path-1"></use>
                </mask>
                <g id="Clip-12"></g>
                <path d="M0.199373684,0.696031111 C0.199373684,0.696031111 7.09763684,3.90412 13.3734789,0.299053333 C13.3734789,0.299053333 11.9822684,5.76825333 7.42305789,5.86016444 C3.30768947,5.98238667 2.43942632,4.36807556 1.94632105,3.90412 C1.45274211,3.44114222 0.524794737,2.13238667 0.199373684,0.696031111" id="Fill-11" fill="#EEAC6C" mask="url(#mask-2)"></path>
            </g>
        </g>
    </g>
</svg>