<?xml version="1.0" encoding="UTF-8"?>
<svg width="120px" height="120px" viewBox="0 0 120 120" version="1.1" xmlns="http://www.w3.org/2000/svg" xmlns:xlink="http://www.w3.org/1999/xlink">
    <!-- Generator: Sketch 51.1 (57501) - http://www.bohemiancoding.com/sketch -->
    <title>Sorcerer</title>
    <desc>Created with Sketch.</desc>
    <defs></defs>
    <g id="Sorcerer" stroke="none" stroke-width="1" fill="none" fill-rule="evenodd">
        <g id="Group-96" transform="translate(11.000000, 0.000000)">
            <path d="M87.5568705,84.6693415 C89.0181693,87.6870646 87.3197834,92.4209723 87.3197834,92.4209723 C85.7901651,91.3830646 84.876161,89.4161723 84.3576714,87.8177723 C84.0522647,88.4041108 83.7043892,88.7526646 83.4274183,88.6825108 C82.9768788,88.5684185 82.8852938,87.3938954 83.2235676,86.0598646 C83.3535593,85.5444185 83.5297129,85.0836185 83.7217461,84.7147569 C80.1643311,78.4658954 76.4957585,74.3083569 73.4228581,71.18688 L74.2415842,64.07328 C82.0466257,71.2625723 86.5837793,82.6603569 87.5568705,84.6693415" id="Fill-371" fill="#FFE094"></path>
            <path d="M66.9218328,52.7788431 C66.9218328,52.7788431 80.8435008,59.6716431 88.902617,80.2115815 C88.902617,80.2115815 86.1860859,84.4636431 78.0538494,88.5864738 C69.9216129,92.7096738 78.0538494,87.5954585 78.0538494,87.5954585 C78.0538494,87.5954585 64.8342104,67.7526277 66.9218328,52.7788431" id="Fill-373" fill="#3949AB"></path>
            <path d="M23.1420311,56.7203077 C23.1420311,56.7203077 20.2877531,78.1833231 22.8063423,87.3180923 C22.8063423,87.3180923 25.8282801,65.5020923 23.1420311,56.7203077" id="Fill-375" fill="#283593"></path>
            <path d="M18.2420087,62.7906092 C14.926851,62.2869785 11.9854195,58.2073477 11.9854195,58.2073477 C13.7074402,57.53424 15.8460253,57.8938708 17.4572577,58.3716554 C17.1466809,57.7875323 17.056573,57.3042092 17.2707639,57.1155323 C17.6201166,56.8087015 18.6401083,57.3979938 19.5493116,58.43184 C19.8997722,58.8309785 20.1804361,59.2371323 20.3757929,59.6037785 C27.5419548,60.2093169 33.0459216,59.5391631 37.3596519,58.7733785 L42.7613241,63.4755323 C32.4151664,65.8386092 20.4496519,63.1258708 18.2420087,62.7906092" id="Fill-377" fill="#FFE094"></path>
            <path d="M23.1420311,56.7203077 C32.8984253,60.7877538 47.0461017,53.3104615 47.0461017,53.3104615 L53.8677116,61.9061538 C53.8677116,61.9061538 36.9207822,63.1087385 35.1847282,70.6019077 C31.8728942,84.8996308 22.8063423,87.3180923 22.8063423,87.3180923 C22.8063423,87.3180923 25.8282801,65.5020923 23.1420311,56.7203077" id="Fill-379" fill="#3949AB"></path>
            <path d="M66.045829,96.7847262 L65.8405012,112.793834 C65.8405012,112.793834 67.8077336,117.356788 65.3943934,118.804542 C65.3943934,118.804542 61.3823768,115.143988 61.266049,113.594326 L60.0026921,96.7847262 L66.045829,96.7847262 Z" id="Fill-381" fill="#FFE094"></path>
            <path d="M60.5752834,115.298917 L60.5752834,107.794671 L66.288271,107.794671 L66.288271,114.173132 C68.5143788,115.338794 70.2083332,117.307163 70.2083332,118.273071 C70.2083332,119.421009 67.9548975,120.214486 65.0958187,119.727102 C61.8833249,119.179902 60.149856,118.418548 60.149856,116.204271 C60.149856,115.885625 60.3012668,115.578425 60.5752834,115.298917" id="Fill-383" fill="#757575"></path>
            <path d="M66.377271,117.749022 C67.1760552,118.198375 68.0675324,118.128222 68.3685075,117.593575 C68.6691133,117.05856 68.265105,116.261022 67.4663207,115.812037 C66.6675365,115.363052 65.7760593,115.432837 65.4754535,115.967483 C65.1744784,116.502498 65.5784867,117.300037 66.377271,117.749022" id="Fill-385" fill="#BDBDBD"></path>
            <path d="M49.3175589,96.7847262 L49.5228867,112.793834 C49.5228867,112.793834 47.5556544,117.356788 49.9686253,118.804542 C49.9686253,118.804542 53.9806419,115.143988 54.0969697,113.594326 L55.3606959,96.7847262 L49.3175589,96.7847262 Z" id="Fill-387" fill="#FFE094"></path>
            <path d="M54.938149,115.298917 L54.938149,107.794671 L49.2255307,107.794671 L49.2255307,114.173132 C46.9994228,115.338794 45.3054685,117.307163 45.3054685,118.273071 C45.3054685,119.421009 47.5589041,120.214486 50.417983,119.727102 C53.6304768,119.179902 55.3639456,118.418548 55.3639456,116.204271 C55.3639456,115.885625 55.2125349,115.578425 54.938149,115.298917" id="Fill-389" fill="#757575"></path>
            <path d="M49.1365307,117.749022 C48.3377465,118.198375 47.4462693,118.128222 47.1452942,117.593575 C46.8446884,117.05856 47.2486967,116.261022 48.0474809,115.812037 C48.8462651,115.363052 49.7377423,115.432837 50.0383481,115.967483 C50.3393232,116.502498 49.9353149,117.300037 49.1365307,117.749022" id="Fill-391" fill="#BDBDBD"></path>
            <path d="M71.1030602,33.6080492 C71.1030602,33.6080492 77.0383631,29.7972185 80.8203091,33.50688 C80.8203091,33.50688 79.4542884,34.4321723 78.8198402,36.4319262 C78.8198402,36.4319262 82.9478154,39.0512492 83.4375,41.6185108 C83.4375,41.6185108 78.4967075,39.3093415 77.9678776,41.1211569 C77.9678776,41.1211569 80.208388,43.2926031 80.2253755,47.3681723 C80.2253755,47.3681723 73.4975664,43.1888492 73.1814502,44.5106954 C73.1814502,44.5106954 76.3186079,47.3744492 77.1144378,51.8772185 L66.6312718,46.3398646 L58.273027,44.5956185 L60.7646577,32.6609723 L71.1030602,33.6080492 Z" id="Fill-393" fill="#CFD8DC"></path>
            <path d="M42.7081456,33.6080492 C42.7081456,33.6080492 36.773212,29.7972185 32.991266,33.50688 C32.991266,33.50688 34.3572867,34.4321723 34.9913656,36.4319262 C34.9913656,36.4319262 30.8633905,39.0512492 30.3737058,41.6185108 C30.3737058,41.6185108 35.3144983,39.3093415 35.8436975,41.1211569 C35.8436975,41.1211569 33.6031871,43.2926031 33.5858303,47.3681723 C33.5858303,47.3681723 40.3136394,43.1888492 40.6301249,44.5106954 C40.6301249,44.5106954 37.4925979,47.3744492 36.6971373,51.8772185 L47.179934,46.3398646 L55.5381788,44.5956185 L53.0469174,32.6609723 L42.7081456,33.6080492 Z" id="Fill-395" fill="#CFD8DC"></path>
            <path d="M32.2798938,107.396862 C32.2798938,75.0049846 43.615761,48.7464 57.5998398,48.7464 C71.5835494,48.7464 82.9194166,75.0049846 82.9194166,107.396862 C82.9194166,107.396862 71.7102174,112.490769 58.2213627,112.490769 C43.8875618,112.490769 32.2798938,107.396862 32.2798938,107.396862" id="Fill-397" fill="#5C6BC0"></path>
            <path d="M9.28554357,48.6534646 C9.28775934,49.8490338 8.32020747,50.8208492 7.12369295,50.8230646 C5.62878838,50.8260185 4.41454772,49.6164185 4.41159336,48.1217723 C4.40753112,46.2530954 5.91979253,44.7351877 7.78879253,44.7314954 C10.1249502,44.7266954 12.0223859,46.6164185 12.0271867,48.9525415 C12.0327261,51.8724185 9.67034855,54.2439877 6.7499668,54.2495262 C3.09985892,54.2569108 0.134792531,51.3041723 0.127406639,47.6543262 C0.118543568,43.0921108 3.81038174,39.3865108 8.3730166,39.3776492 C14.0767718,39.3665723 18.7095726,43.9801108 18.7206515,49.68288 L18.7206515,98.3013415" id="Stroke-399" stroke="#8D6E63" stroke-width="1.47692308" stroke-linecap="round" stroke-linejoin="round"></path>
            <path d="M40.8548037,39.7057477 C40.8548037,47.7409477 48.3880444,53.9691323 57.6813432,53.9691323 C66.9746419,53.9691323 74.5086212,47.7409477 74.5086212,39.7057477 C74.5086212,31.6701785 66.9746419,23.7276554 57.6813432,23.7276554 C48.3880444,23.7276554 40.8548037,31.6701785 40.8548037,39.7057477" id="Fill-401" fill="#FFECB3"></path>
            <path d="M65.3346415,41.8804062 C65.3346415,42.6620677 65.9679817,43.2952985 66.7497784,43.2952985 C67.5312058,43.2952985 68.1645461,42.6620677 68.1645461,41.8804062 C68.1645461,41.0994831 67.5312058,40.4658831 66.7497784,40.4658831 C65.9679817,40.4658831 65.3346415,41.0994831 65.3346415,41.8804062" id="Fill-403" fill="#5D4037"></path>
            <path d="M50.0287465,41.8804062 C50.0287465,42.6620677 49.3950369,43.2952985 48.6136095,43.2952985 C47.8321822,43.2952985 47.1984726,42.6620677 47.1984726,41.8804062 C47.1984726,41.0994831 47.8321822,40.4658831 48.6136095,40.4658831 C49.3950369,40.4658831 50.0287465,41.0994831 50.0287465,41.8804062" id="Fill-405" fill="#5D4037"></path>
            <path d="M72.9791137,33.2391877 C72.9791137,33.2391877 61.5040224,28.1364185 42.4746407,33.2391877 L46.3119809,14.7488492 L39.4024788,8.90651077 L30.3584539,13.62528 L22.440039,12.7262031 L19.175844,6.49248 L24.3448606,10.03008 L28.6146448,9.35586462 L40.834234,0.000295384615 L59.7136822,4.81358769 L72.9791137,33.2391877 Z" id="Fill-407" fill="#5C6BC0"></path>
            <path d="M45.9820162,51.67296 C45.9820162,51.67296 42.7905722,56.4223754 43.7293191,60.5518523 C43.7293191,60.5518523 45.4192112,58.2482215 46.7327921,58.3205908 C46.7327921,58.3205908 44.3866635,65.9008985 45.7002444,70.5930831 C45.7002444,70.5930831 46.2168876,69.0991754 46.8738627,68.41056 C47.331788,67.9301908 47.8122402,67.6599138 47.8122402,67.6599138 C47.8122402,67.6599138 48.9854892,78.4757908 52.5521365,81.2911754 C52.5521365,81.2911754 52.1765639,78.3820062 52.5521365,77.5375754 C52.5521365,77.5375754 56.6823274,83.7310523 62.2199,85.98336 C62.2199,85.98336 62.031929,85.3264985 61.4691241,82.7924677 C60.9055805,80.2588062 62.2199,82.8866215 62.2199,82.8866215 C62.2199,82.8866215 66.9128959,87.6725908 70.3857423,87.2970831 C70.3857423,87.2970831 69.7287672,83.4496985 68.8838212,83.0741908 C68.8838212,83.0741908 74.1399913,86.5464369 78.176012,85.7957908 C78.176012,85.7957908 76.0171158,84.9509908 74.5155639,82.9804062 C74.5155639,82.9804062 81.0856842,84.2941292 82.5872361,79.8832985 C82.5872361,79.8832985 80.334539,80.3525908 78.8329871,79.8832985 C78.8329871,79.8832985 83.9015556,78.1940677 85.1213357,74.1591138 C85.1213357,74.1591138 82.5872361,75.8058831 80.8039124,75.3111138 C80.8039124,75.3111138 84.1829581,73.3719138 84.4643606,69.4957292 C84.4643606,69.4957292 78.176012,74.7221908 76.2988876,74.1591138 C76.2988876,74.1591138 77.0496635,74.3466831 77.2372651,71.15616 C77.2372651,71.15616 72.6384394,73.87776 69.1652237,70.5930831 C69.1652237,70.5930831 72.9198419,71.5312985 73.4830162,70.2175754 C73.4830162,70.2175754 66.6311241,68.0416985 65.8803481,66.0799754 C65.8803481,66.0799754 69.6349664,67.40256 71.4179207,66.55776 C71.4179207,66.55776 65.5985763,62.4286523 65.5047755,59.7074215 C65.5047755,59.7074215 69.3531946,63.3672369 71.3241199,63.6485908 C73.2954145,63.9299446 71.7938627,63.7423754 71.7938627,63.7423754 C71.7938627,63.7423754 68.2268461,59.3315446 67.1942983,55.9534523 C67.1942983,55.9534523 68.1326759,57.4034215 70.9485473,58.3205908 L69.5773564,54.5743754 C68.1684975,50.7269908 65.185705,47.60736 61.3284228,46.2253292 C57.1749664,44.7376985 51.6137589,44.9344985 45.9820162,51.67296" id="Fill-409" fill="#CFD8DC"></path>
            <path d="M60.8209012,49.7535877 C60.1931004,51.2334646 59.0239137,52.2311262 57.6815278,52.2311262 C56.3391419,52.2311262 55.1699552,51.2334646 54.5425237,49.7535877" id="Stroke-411" stroke="#EF5350" stroke-width="1.01612308" stroke-linecap="round" stroke-linejoin="round"></path>
            <path d="M51.5077344,37.6984246 L45.3054315,37.6984246" id="Stroke-413" stroke="#CFD8DC" stroke-width="2.21538462"></path>
            <path d="M69.5148349,37.6984246 L63.312532,37.6984246" id="Stroke-415" stroke="#CFD8DC" stroke-width="2.21538462"></path>
            <polygon id="Fill-417" fill="#FDD835" points="63.6558651 23.7275077 62.8729606 25.3133538 61.1225041 25.5677538 62.3888154 26.8024615 62.090056 28.5456 63.6558651 27.7225846 65.221305 28.5456 64.9225456 26.8024615 66.1892261 25.5677538 64.4387697 25.3133538"></polygon>
            <polygon id="Fill-419" fill="#FDD835" points="55.7748228 14.4221169 55.2038934 15.5785477 53.9279805 15.7639015 54.851217 16.6637169 54.6333332 17.9346092 55.7748228 17.3346092 56.9163124 17.9346092 56.6984286 16.6637169 57.6216651 15.7639015 56.345383 15.5785477"></polygon>
            <polygon id="Fill-421" fill="#FDD835" points="50.0287465 26.18016 49.4057465 27.4414523 48.0138751 27.6437908 49.0209415 28.6255754 48.7834851 30.0120369 50.0287465 29.3573908 51.2736386 30.0120369 51.0361822 28.6255754 52.0432485 27.6437908 50.6513772 27.4414523"></polygon>
            <polygon id="Fill-423" fill="#FDD835" points="47.045917 6.06358154 46.2630124 7.64942769 44.512556 7.90382769 45.7788672 9.13853538 45.4801079 10.8816738 47.045917 10.0586585 48.6117261 10.8816738 48.3129668 9.13853538 49.579278 7.90382769 47.8288216 7.64942769"></polygon>
            <polygon id="Fill-425" fill="#FDD835" points="42.4704676 71.4790892 41.5945008 73.2539815 39.6353929 73.5382892 41.0527456 74.9199508 40.7181647 76.8705969 42.4704676 75.9493662 44.2224012 76.8705969 43.8878203 74.9199508 45.3055423 73.5382892 43.3464344 73.2539815"></polygon>
            <polygon id="Fill-427" fill="#FDD835" points="52.939822 84.8997415 52.0638552 86.6746338 50.1047473 86.9589415 51.5224693 88.3406031 51.1878884 90.2912492 52.939822 89.3700185 54.6917556 90.2912492 54.357544 88.3406031 55.7748967 86.9589415 53.8157888 86.6746338"></polygon>
            <polygon id="Fill-429" fill="#FDD835" points="40.8548037 89.3741538 40.2318037 90.6354462 38.8399324 90.8377846 39.8469988 91.8195692 39.6095423 93.2060308 40.8548037 92.5513846 42.1000651 93.2060308 41.8622394 91.8195692 42.8696751 90.8377846 41.4774344 90.6354462"></polygon>
            <polygon id="Fill-431" fill="#FDD835" points="38.0198398 98.3013046 37.143873 100.076197 35.1847651 100.360505 36.6021178 101.741797 36.2679062 103.692812 38.0198398 102.771582 39.7717734 103.692812 39.4371925 101.741797 40.8549145 100.360505 38.8958066 100.076197"></polygon>
            <polygon id="Fill-433" fill="#FDD835" points="50.0287465 104.472591 49.4057465 105.733883 48.0138751 105.936222 49.0209415 106.918006 48.7834851 108.304468 50.0287465 107.649452 51.2736386 108.304468 51.0361822 106.918006 52.0432485 105.936222 50.6513772 105.733883"></polygon>
            <polygon id="Fill-435" fill="#FDD835" points="66.7498154 103.692665 65.8734793 105.467557 63.9147407 105.752234 65.3320934 107.133526 64.9975124 109.084542 66.7498154 108.162942 68.501749 109.084542 68.167168 107.133526 69.5845207 105.752234 67.6257822 105.467557"></polygon>
            <polygon id="Fill-437" fill="#FDD835" points="60.8209012 96.2258215 60.1465693 97.5919754 58.6383701 97.8112985 59.7296357 98.8750523 59.471868 100.376714 60.8209012 99.6677908 62.1695651 100.376714 61.9121668 98.8750523 63.0034324 97.8112985 61.4952332 97.5919754"></polygon>
            <polygon id="Fill-439" fill="#FDD835" points="71.6736203 87.3181292 70.7976535 89.0930215 68.8385456 89.3773292 70.2558983 90.7586215 69.9216867 92.7096369 71.6736203 91.7884062 73.4255539 92.7096369 73.090973 90.7586215 74.508695 89.3773292 72.5495871 89.0930215"></polygon>
            <polygon id="Fill-441" fill="#FDD835" points="78.0536647 96.2258215 77.3793328 97.5919754 75.8711336 97.8112985 76.9623992 98.8750523 76.7050008 100.376714 78.0536647 99.6677908 79.4026979 100.376714 79.1449303 98.8750523 80.2361959 97.8112985 78.7279967 97.5919754"></polygon>
        </g>
    </g>
</svg>