<?xml version="1.0" encoding="UTF-8"?>
<svg width="100px" height="100px" viewBox="0 0 100 100" version="1.1" xmlns="http://www.w3.org/2000/svg" xmlns:xlink="http://www.w3.org/1999/xlink">
    <!-- Generator: Sketch 48.2 (47327) - http://www.bohemiancoding.com/sketch -->
    <title>Neuron funny touch卖萌</title>
    <desc>Created with Sketch.</desc>
    <defs></defs>
    <g id="裁剪面板" stroke="none" stroke-width="1" fill="none" fill-rule="evenodd">
        <g id="Neuron-funny-touch卖萌">
            <g id="Page-1" transform="translate(18.000000, 8.400000)">
                <g id="Group-3" transform="translate(0.000000, 0.048589)" fill="#E6E6E6">
                    <path d="M12.261975,11.7297583 C13.163975,12.1412539 14.197475,11.5193828 14.256975,10.5292921 L14.799225,1.4999046 C14.858475,0.510064 13.906725,-0.231378388 12.962225,0.0690508657 L0.983975,3.8798246 C-0.247025,4.27180848 -0.349275,5.9748246 0.825975,6.51139475 L12.261975,11.7297583 Z" id="Fill-1"></path>
                </g>
                <path d="M44.513225,65.2407458 L21.659725,64.7654622 C20.578475,64.7429488 19.719975,63.8476646 19.742475,62.7652688 L19.795475,60.2187494 C19.817975,59.1368539 20.712725,58.2778413 21.794225,58.3003547 L44.647725,58.7756383 C45.728975,58.7981518 46.587225,59.6936861 46.564975,60.7755816 L46.511975,63.3223512 C46.489475,64.4044968 45.594725,65.2635094 44.513225,65.2407458" id="Fill-4" fill="#EDEDED"></path>
                <path d="M45.4202,78.293709 C43.2622,64.8897113 38.5547,57.8640194 38.3777,57.5178128 L33.90595,58.3793269 C33.93895,58.4636272 37.85845,65.6138934 38.4517,78.6241561 L45.4202,78.293709 Z" id="Fill-6" fill="#EDEDED"></path>
                <path d="M16.7586,74.8404736 C24.10285,63.0469368 31.46735,57.3878103 31.7876,57.0898825 L35.8501,58.8491822 C35.77935,58.9252276 28.82035,64.9758377 22.7721,77.1365936 L16.7586,74.8404736 Z" id="Fill-8" fill="#EDEDED"></path>
                <path d="M37.4638,76.3059479 C37.49155,77.0156214 39.46555,77.49941 41.86305,77.3710835 C44.25005,77.2432572 46.0703,76.5613503 45.9408,75.8624333 C45.8143,75.179776 43.86705,74.7327593 41.58005,74.8500793 C39.2838,74.9673993 37.4368,75.6127844 37.4638,76.3059479" id="Fill-10" fill="#61B6F6"></path>
                <g id="Group-14" transform="translate(37.500000, 78.245305)" fill="#61B6F6">
                    <path d="M1.35845,5.25145833 C0.71145,5.28948101 0.1152,4.67786609 0.0802,3.86463087 C0.07995,3.85962788 0.0797,3.8541246 0.07945,3.84912161 C0.0087,1.94998848 1.9887,0.379801612 4.48845,0.243720418 C6.9767,0.107889373 9.2542,1.43393057 9.60345,3.30129475 C9.60445,3.30654788 9.60545,3.31155087 9.60645,3.31655385 C9.7512,4.11653116 9.3072,4.78392937 8.6692,4.82120161 L1.35845,5.25145833 Z" id="Fill-12"></path>
                </g>
                <path d="M45.473425,76.5328833 C45.473425,76.5328833 45.211175,78.6811651 46.098675,79.8183436 C47.020175,80.998798 42.294925,81.2211807 42.294925,81.2211807 L41.740175,76.2762302 L45.473425,76.5328833 Z" id="Fill-15" fill="#61B6F6"></path>
                <path d="M38.083675,76.9239917 C38.083675,76.9239917 38.829425,79.031249 38.197675,80.2599821 C37.539675,81.5392454 42.294925,81.2213057 42.294925,81.2213057 L41.740175,76.2761051 L38.083675,76.9239917 Z" id="Fill-17" fill="#61B6F6"></path>
                <path d="M24.80255,75.0693851 C24.4803,75.727778 22.4753,75.6097075 20.38455,74.8129821 C18.35055,74.0375195 17.0618,72.9311093 17.4488,72.3345033 C17.8278,71.7509051 19.6898,71.8537165 21.66155,72.5693935 C23.6863,73.3045821 25.11755,74.4262514 24.80255,75.0693851" id="Fill-19" fill="#DC403E"></path>
                <path d="M20.554725,81.347531 C21.119225,81.587174 21.910225,81.2076976 22.278975,80.4622528 C22.281475,80.4575 22.283725,80.4527472 22.285975,80.4479943 C23.139225,78.6989507 21.990475,76.647977 19.820475,75.8034731 C17.711725,74.9827334 15.255975,75.5473203 14.233975,77.1180075 C14.231225,77.1220099 14.228475,77.1265125 14.225725,77.1307651 C13.793725,77.8019155 13.900725,78.5238463 14.416225,78.7427269 L20.554725,81.347531 Z" id="Fill-21" fill="#DC403E"></path>
                <path d="M17.582075,73.0642638 C17.582075,73.0642638 16.953075,75.0762142 15.751825,75.8536781 C14.517325,76.652905 18.449075,78.2123354 18.449075,78.2123354 L20.938075,73.8404769 L17.582075,73.0642638 Z" id="Fill-23" fill="#DC403E"></path>
                <path d="M23.97295,75.4707496 C23.97295,75.4707496 22.41895,77.2180421 22.4842,78.5503371 C22.55245,79.9434183 18.4492,78.2123854 18.4492,78.2123854 L20.93795,73.8402768 L23.97295,75.4707496 Z" id="Fill-25" fill="#DC403E"></path>
                <path d="M27.834775,10.4419496 C22.041025,5.05948812 15.071775,4.47063678 12.534525,4.44937409 C12.009025,4.4448714 11.593275,4.88888633 11.632025,5.41294901 L11.710775,6.4723311 C11.745275,6.93510722 12.124025,7.29482185 12.588025,7.30232633 C14.764775,7.33759737 20.889025,7.87716931 25.897275,12.5296953 C28.511275,14.9578941 30.445275,18.1435448 31.696275,22.050626 C31.816025,22.4238487 32.157525,22.6822529 32.549525,22.6822529 L33.661025,22.6822529 C34.267025,22.6822529 34.696275,22.0919007 34.517775,21.512555 C33.123525,16.9838529 30.891775,13.2816439 27.834775,10.4419496" id="Fill-27" fill="#E6E6E6"></path>
                <path d="M63.7747,46.2489642 L63.1492,27.2836484 C62.92295,20.4233051 57.18145,15.0455964 50.32545,15.2719815 L15.80395,16.4119116 C8.94795,16.6382967 3.57345,22.3832245 3.7997,29.2433176 L4.4252,48.2086334 C4.65145,55.0689767 10.3927,60.4466854 17.2487,60.2203003 L51.77045,59.0803701 C58.62645,58.8539851 64.00095,53.1090573 63.7747,46.2489642" id="Fill-29" fill="#F29739"></path>
                <path d="M50.57865,19.3393583 L15.8194,20.4870431 C11.3629,20.634381 7.86965,24.3683589 8.0164,28.8275195 L8.6479,47.9684401 C8.7949,52.4273506 12.5269,55.9231864 16.9834,55.7758485 L51.74265,54.6281637 C56.1989,54.4808258 59.6924,50.7468479 59.5454,46.2879374 L58.91415,27.1467667 C58.7669,22.6876061 55.03515,19.1920204 50.57865,19.3393583" id="Fill-31" fill="#FFFFFF"></path>
                <path d="M27.802775,32.1138303 C27.764525,33.9564297 26.240775,35.4190524 24.399275,35.3807796 C22.558025,35.3422566 21.096275,33.817847 21.134525,31.9749975 C21.172775,30.1326482 22.696525,28.6700256 24.538025,28.7082984 C26.379525,28.7465712 27.841025,30.2714811 27.802775,32.1138303" id="Fill-33" fill="#514740"></path>
                <path d="M46.4185,32.5012615 C46.38025,34.3436107 44.85625,35.8062334 43.015,35.7682107 C41.1735,35.7296878 39.71175,34.2050281 39.75,32.3624287 C39.78825,30.5198293 41.31225,29.0572066 43.1535,29.0957296 C44.995,29.1340024 46.45675,30.6586621 46.4185,32.5012615" id="Fill-35" fill="#514740"></path>
                <path d="M27.723925,23.5950725 C26.941175,22.801349 25.868425,22.2947967 24.672175,22.2470182 C23.474925,22.245017 22.382175,22.7062922 21.567175,23.466746 C21.404175,23.6203376 21.299925,23.8362164 21.294925,24.0776104 C21.285175,24.5546451 21.663425,24.9493806 22.140175,24.9591364 C22.379925,24.9643896 22.598425,24.8708337 22.758175,24.7159913 C23.255175,24.2589687 23.913175,23.978051 24.636425,23.9707967 C25.358675,24.008069 26.004675,24.3162528 26.482175,24.7937878 C26.635425,24.9548839 26.849925,25.0571949 27.089425,25.0621979 C27.566175,25.0719537 27.960675,24.6937281 27.970675,24.2164433 C27.975675,23.9750493 27.880425,23.7551681 27.723925,23.5950725" id="Fill-37" fill="#F29739"></path>
                <path d="M46.33965,23.9822536 C45.5569,23.18853 44.48415,22.6822279 43.2879,22.6344494 C42.09065,22.6324482 40.9979,23.0937234 40.1829,23.8541771 C40.0199,24.0077688 39.91565,24.2233974 39.91065,24.4650416 C39.90065,24.9418261 40.27915,25.3365616 40.7559,25.3465676 C40.9954,25.3515706 41.21415,25.2582649 41.37365,25.1034225 C41.87065,24.6461497 42.5289,24.3652321 43.2519,24.3579777 C43.9744,24.39525 44.6204,24.703684 45.0979,25.1809688 C45.2509,25.342315 45.4654,25.4446261 45.70515,25.4493789 C46.1819,25.4593849 46.5764,25.0809091 46.58615,24.6038744 C46.59115,24.3624804 46.49615,24.1423491 46.33965,23.9822536" id="Fill-39" fill="#F29739"></path>
                <path d="M39.54815,40.6545512 C39.4644,44.6894587 36.73515,47.904627 33.4524,47.8365864 C30.1694,47.7680456 27.57615,44.4420611 27.66015,40.4071536 C27.7439,36.3724963 30.47315,33.1568276 33.7559,33.2251184 C37.03865,33.2934091 39.6319,36.6196438 39.54815,40.6545512" id="Fill-41" fill="#ED8283"></path>
                <path d="M33.605625,42.2270395 C33.593375,42.2270395 33.581125,42.2270395 33.569125,42.2265392 C32.949625,42.2135314 32.384375,41.8730783 31.976875,41.2664663 C31.600125,40.7056317 31.401375,39.9731947 31.417375,39.2047362 C31.421875,38.9783511 31.606625,38.7982436 31.831875,38.7982436 L31.840625,38.7982436 C32.070125,38.8027463 32.252125,38.9926096 32.247125,39.2219965 C32.234875,39.8211039 32.383625,40.3829392 32.666125,40.8034401 C32.918125,41.1784138 33.244875,41.3887893 33.586125,41.3960436 C34.315625,41.4027977 34.990125,40.4424747 35.014125,39.2792807 C35.018625,39.0528956 35.203625,38.8727881 35.428875,38.8727881 L35.437625,38.8727881 C35.667125,38.8772908 35.849125,39.0671541 35.844125,39.2967911 C35.809875,40.9490269 34.829625,42.2270395 33.605625,42.2270395" id="Fill-43" fill="#D34A4A"></path>
                <path d="M42.2586,44.2797642 C40.48985,44.2429923 39.07785,42.5254675 39.12085,40.4632371 C39.1636,38.4012568 40.64585,36.744018 42.4146,36.7807899" id="Fill-45" fill="#FFFFFF"></path>
                <path d="M42.42545,36.2542257 C41.42195,36.2249583 40.4562,36.6694735 39.72795,37.4834592 C39.02045,38.2746813 38.61745,39.3290604 38.59395,40.4522305 C38.5622,42.008409 39.27595,43.4590245 40.45695,44.2389899 C40.54645,44.2975248 40.64695,44.3260419 40.74645,44.3260419 C40.91745,44.3260419 41.08545,44.2427421 41.1862,44.0891505 C41.3467,43.8465057 41.2797,43.5195607 41.03695,43.3589648 C40.15495,42.7771177 39.6227,41.6712078 39.6472,40.4739935 C39.6652,39.6029738 39.9727,38.790489 40.5127,38.1863786 C41.03295,37.6047816 41.7067,37.2808383 42.40345,37.3081045 C42.6977,37.3068538 42.93495,37.0829702 42.94095,36.7917965 C42.94695,36.501123 42.7162,36.2602293 42.42545,36.2542257" id="Fill-47" fill="#E6E6E6"></path>
                <path d="M24.801325,43.9165225 C26.570075,43.9532944 28.052075,42.2960556 28.095075,40.2338252 C28.138075,38.1718449 26.725825,36.4543201 24.957325,36.4175482" id="Fill-49" fill="#FFFFFF"></path>
                <path d="M27.6121,37.2313838 C26.91835,36.3878805 25.97935,35.9120966 24.96785,35.8910841 L24.95685,35.8910841 C24.6711,35.8910841 24.43635,36.1199706 24.43035,36.4068918 C24.4246,36.6975653 24.65535,36.938459 24.9461,36.9447127 C25.6456,36.9589712 26.30335,37.2989241 26.79885,37.9012835 C27.31335,38.5269067 27.5866,39.3513987 27.56835,40.2229187 C27.54385,41.420133 26.96585,42.502779 26.06035,43.0473539 C25.81085,43.1976936 25.7306,43.5213867 25.88035,43.7707856 C25.9791,43.9348835 26.1536,44.0259378 26.3321,44.0259378 C26.4246,44.0259378 26.5181,44.0016733 26.60285,43.9506429 C27.8156,43.2212076 28.5891,41.8011103 28.6216,40.2444315 C28.64485,39.1217617 28.28635,38.051373 27.6121,37.2313838" id="Fill-51" fill="#E6E6E6"></path>
                <path d="M18.192425,41.5743 L13.475925,41.4759913 C12.626425,41.4584809 11.945675,40.7483072 11.963425,39.8983 C11.981175,39.0480427 12.690675,38.3671364 13.540425,38.384897 L18.256675,38.4829555 C19.106175,38.5007161 19.786925,39.2106397 19.769425,40.0606469 C19.751675,40.9109042 19.041925,41.5918104 18.192425,41.5743" id="Fill-53" fill="#F5BDBD"></path>
                <path d="M53.675575,42.3125405 L48.959075,42.2142318 C48.109575,42.1967214 47.428825,41.4865476 47.446575,40.6365405 C47.464075,39.7862832 48.173825,39.1053769 49.023325,39.1231375 L53.739825,39.221196 C54.589325,39.2389566 55.270075,39.9488802 55.252325,40.7988873 C55.234825,41.6491447 54.525075,42.3300509 53.675575,42.3125405" id="Fill-55" fill="#F5BDBD"></path>
                <path d="M40.89385,61.0043431 C42.1756,60.357207 43.3866,59.6923103 44.46235,58.9386106 C45.5376,58.188413 46.47535,57.3604189 47.20085,56.468887 C47.3031,56.3640744 47.37835,56.2450034 47.4586,56.1296846 C47.53835,56.0136153 47.62135,55.9012983 47.70585,55.7897318 C47.79885,55.6826679 47.8476,55.5545915 47.9216,55.439773 L48.1306,55.0900643 C48.2506,54.8501712 48.35585,54.6072762 48.47735,54.3711353 C48.55335,54.117484 48.6516,53.8743389 48.7371,53.6254404 C48.78935,53.3652852 48.8711,53.1153861 48.9181,52.8527294 C48.94085,52.5828183 49.0246,52.3279162 49.10785,52.0562541 C49.1716,51.7795891 49.3001,51.5039246 49.44335,51.2049962 C49.56935,50.9010649 49.73685,50.5856267 50.01935,50.2296643 L50.41985,49.7258637 C51.2796,48.6439682 52.85335,48.464361 53.9346,49.3248744 C54.07735,49.4386924 54.2126,49.5757741 54.3236,49.711355 C54.66085,50.1291043 54.8826,50.5871276 55.06285,51.0566577 C55.2186,51.5321915 55.2936,52.0322398 55.3401,52.5305371 C55.36835,52.7794356 55.33735,53.0343377 55.32185,53.2859879 C55.3016,53.5381383 55.2691,53.7897885 55.22935,54.0394374 C55.1331,54.5377347 54.98585,55.0317795 54.85585,55.5248237 C54.24935,57.4899962 53.1066,59.2635544 51.7281,60.6413765 C50.3476,62.029955 48.7501,63.0558171 47.10785,63.7900052 C45.46135,64.5219419 43.7631,64.982967 42.0631,65.1815855 C40.8596,65.3221694 39.7701,64.4599049 39.6296,63.2559365 C39.5201,62.3168762 40.01985,61.4473574 40.8161,61.0431162 L40.89385,61.0043431 Z" id="Fill-57" fill="#EDEDED"></path>
                <path d="M56.0634,53.0354884 C55.9919,52.235261 53.9934,51.7594771 51.59915,51.9733547 C49.20465,52.186732 47.32165,53.0089726 47.3929,53.8092001 C47.4644,54.6096777 49.46315,55.0849613 51.8574,54.8715839 C54.25165,54.6577063 56.13465,53.8357159 56.0634,53.0354884" id="Fill-59" fill="#006837"></path>
                <path d="M47.924725,53.0225307 C47.924725,53.0225307 48.340475,50.6563689 47.562975,49.500179 C46.785475,48.343739 51.243975,47.9915289 51.243975,47.9915289 L51.708475,53.2011373 L47.924725,53.0225307 Z" id="Fill-61" fill="#006837"></path>
                <path d="M54.691325,48.5474606 C55.299075,48.4931782 55.888325,49.0340009 55.960325,49.7927036 C55.960825,49.7974564 55.961325,49.8024594 55.961825,49.8069621 C56.126575,51.6568158 54.197325,53.3403203 51.652825,53.5672057 C49.108075,53.7945913 46.911575,52.4790564 46.746825,50.6294528 C46.746325,50.6247 46.745825,50.619697 46.745575,50.6149442 C46.682325,49.855491 47.166575,49.2188612 47.774575,49.1645788 L54.691325,48.5474606 Z" id="Fill-63" fill="#006837"></path>
                <path d="M55.400925,52.3553826 C55.400925,52.3553826 54.573175,50.1002871 55.133925,48.8245259 C55.694675,47.5485146 51.244175,47.9915289 51.244175,47.9915289 L51.708425,53.2011373 L55.400925,52.3553826 Z" id="Fill-65" fill="#006837"></path>
                <path d="M48.290075,51.4524939 C47.655325,51.5090276 47.037825,50.9204264 46.959825,50.0976856 C46.959075,50.0924324 46.958575,50.0871793 46.958325,50.0819261 C46.779575,48.0757291 48.789075,46.2571441 51.446825,46.0200026 C54.104575,45.7828611 56.404075,47.2167166 56.582825,49.2231638 C56.583325,49.2281667 56.583825,49.23367 56.584325,49.238673 C56.652825,50.0624145 56.149325,50.7510754 55.514325,50.8078593 L48.290075,51.4524939 Z" id="Fill-67" fill="#0F843B"></path>
                <path d="M49.7963,50.4145246 C50.0458,50.6396589 49.9928,51.1419586 49.6418,51.5349431 C49.6398,51.5374446 49.6373,51.5401962 49.63505,51.5426977 C48.7758,52.4962667 47.2323,52.5052721 46.1873,51.5627097 C45.14255,50.6201473 44.9923,49.0829801 45.85155,48.129161 C45.8538,48.1266595 45.85605,48.1244082 45.85855,48.1219067 C46.21305,47.7321741 46.7068,47.6273616 46.9563,47.8524959 L49.7963,50.4145246 Z" id="Fill-69" fill="#0F843B"></path>
                <path d="M24.770325,64.8115397 C23.931575,64.7219863 23.102575,64.5671439 22.261075,64.3677749 C21.420825,64.1654042 20.568575,63.9162555 19.706325,63.5805552 C18.842075,63.2503582 17.965825,62.8311081 17.088825,62.2787785 C16.655325,61.9941087 16.218325,61.6919284 15.795825,61.3302125 C15.374825,60.9775021 14.965075,60.5695087 14.581325,60.1287457 C14.391325,59.9073636 14.213825,59.6639684 14.035075,59.4278275 C13.869575,59.175677 13.695325,58.9302806 13.547075,58.6656227 C13.404825,58.3972125 13.253325,58.1335552 13.137575,57.8528878 L12.956825,57.4353887 C12.898325,57.2958054 12.857325,57.150969 12.808325,57.0088842 C12.424325,55.8664525 12.296575,54.6965045 12.335075,53.6173606 C12.381325,52.5332137 12.588825,51.528114 12.894075,50.5990597 C13.205325,49.6717564 13.616325,48.8240006 14.137075,48.0457863 C14.832075,47.0074167 16.236325,46.7295009 17.273825,47.4246657 C17.865075,47.8209021 18.209575,48.4477761 18.268075,49.1056687 L18.284825,49.3080394 C18.350575,50.0987612 18.345075,50.8336997 18.389575,51.5198591 C18.433325,52.2025164 18.494075,52.8323922 18.599075,53.3819701 C18.695325,53.9340496 18.840325,54.3943242 19.006825,54.7910609 C19.088575,54.9926812 19.181825,55.1765409 19.289075,55.3581493 C19.336575,55.4519552 19.403075,55.5382567 19.453575,55.632563 C19.523575,55.7198651 19.580575,55.8124203 19.654825,55.9017236 C20.213325,56.6246549 21.177075,57.4083725 22.383825,58.193591 C22.984075,58.5848245 23.630575,58.9880651 24.300325,59.4078155 C24.969325,59.8298173 25.663075,60.2660776 26.345575,60.7703785 C27.343325,61.5070681 27.555325,62.9139075 26.818825,63.912003 C26.328825,64.5766496 25.542325,64.8925881 24.777075,64.8127904 L24.770325,64.8115397 Z" id="Fill-71" fill="#EDEDED"></path>
                <path d="M11.767625,52.7005636 C11.917625,51.9110925 13.953375,51.6351779 16.314875,52.0839457 C18.676375,52.5329636 20.469375,53.5370627 20.319375,54.3262836 C20.169375,55.1157546 18.133625,55.3916693 15.772125,54.9426513 C13.410625,54.4938836 11.617625,53.4897845 11.767625,52.7005636" id="Fill-73" fill="#F1D800"></path>
                <path d="M19.86785,53.4910602 C19.86785,53.4910602 19.68735,51.0953808 20.5751,50.0214901 C21.46285,48.9473492 17.0606,48.1568776 17.0606,48.1568776 L16.0851,53.2951934 L19.86785,53.4910602 Z" id="Fill-75" fill="#F1D800"></path>
                <path d="M13.5755,48.3696045 C12.97625,48.2557866 12.3365,48.735823 12.19,49.4835191 C12.189,49.4882719 12.188,49.4930248 12.187,49.4980278 C11.84075,51.3223663 13.5945,53.1879794 16.10425,53.665014 C18.614,54.1422988 20.92975,53.0501472 21.276,51.2258087 C21.277,51.2210558 21.27775,51.216303 21.2785,51.2113 C21.41625,50.4618528 20.99725,49.7806964 20.39775,49.6668785 L13.5755,48.3696045 Z" id="Fill-77" fill="#F1D800"></path>
                <path d="M12.49395,52.0891238 C12.49395,52.0891238 13.53995,49.9265835 13.1077,48.601793 C12.67545,47.2767524 17.0607,48.1567775 17.0607,48.1567775 L16.08495,53.2950933 L12.49395,52.0891238 Z" id="Fill-79" fill="#F1D800"></path>
                <path d="M19.6591,51.8924564 C20.2851,52.0115275 20.9576,51.4867143 21.1166,50.6757304 C21.1176,50.6704773 21.1186,50.6654743 21.1196,50.659971 C21.49535,48.6815406 19.67485,46.6733424 17.05335,46.1750451 C14.43185,45.6764976 12.00235,46.8767137 11.6266,48.8551442 C11.6256,48.8606475 11.6246,48.8656504 11.6236,48.8709036 C11.4741,49.6836385 11.90735,50.418577 12.5336,50.5376481 L19.6591,51.8924564 Z" id="Fill-81" fill="#FCEE21"></path>
                <path d="M18.2625,50.7111016 C17.992,50.9104705 17.9955,51.4155219 18.30575,51.841526 C18.30775,51.8440275 18.3095,51.8467792 18.31175,51.8495308 C19.07275,52.8833977 20.608,53.0444938 21.7405,52.2097457 C22.87325,51.3749977 23.17425,49.8603439 22.41325,48.8262269 C22.41125,48.8234753 22.40925,48.8207236 22.40725,48.8182221 C22.093,48.3954699 21.61175,48.2423786 21.34125,48.4419977 L18.2625,50.7111016 Z" id="Fill-83" fill="#FCEE21"></path>
            </g>
        </g>
    </g>
</svg>