<?xml version="1.0" encoding="UTF-8"?>
<svg width="120px" height="120px" viewBox="0 0 120 120" version="1.1" xmlns="http://www.w3.org/2000/svg" xmlns:xlink="http://www.w3.org/1999/xlink">
    <!-- Generator: Sketch 51.1 (57501) - http://www.bohemiancoding.com/sketch -->
    <title>Boy8</title>
    <desc>Created with Sketch.</desc>
    <defs>
        <polygon id="path-1" points="0.199373684 0.299053333 13.3734789 0.299053333 13.3734789 5.86666667 0.199373684 5.86666667"></polygon>
    </defs>
    <g id="Boy8" stroke="none" stroke-width="1" fill="none" fill-rule="evenodd">
        <g id="Group-105" transform="translate(33.000000, 2.000000)">
            <path d="M1.57384615,81.0032259 C1.79784615,78.8398926 3.18492308,77.2163 4.66892308,77.3758185 C5.468,77.4610407 6.12923077,78.0444852 6.53846154,78.9010778 C6.92830769,79.2878556 7.30953846,79.8057444 7.62830769,80.4154111 C8.464,82.0149667 8.55015385,83.6276333 7.82215385,84.0187815 C7.43230769,84.2307444 6.88953846,84.0450037 6.34030769,83.5861148 C5.75015385,84.6546704 4.82184615,85.3124111 3.85476923,85.2075222 C2.36861538,85.0501889 1.34984615,83.1665593 1.57384615,81.0032259" id="Fill-1" fill="#FDDFBB"></path>
            <path d="M46.6659077,47.0113593 C47.1914462,46.9086556 47.7579077,47.3151 48.2360615,48.047137 C49.2914462,47.0157296 50.5923692,46.5874333 51.6822154,47.055063 C53.3492923,47.7696185 53.8769846,50.3175444 52.8625231,52.7452852 C51.8480615,55.1708407 49.6769846,56.5584333 48.0120615,55.8438778 C47.1160615,55.4592852 46.5517538,54.5458778 46.3751385,53.4073963 C46.0563692,52.8173963 45.7957538,52.0788037 45.6363692,51.2593593 C45.2249846,49.1069519 45.6859077,47.2058407 46.6659077,47.0113593" id="Fill-3" fill="#FDDFBB"></path>
            <path d="M46.4787385,54.1580074 L41.5808923,60.1279333 L31.0852,56.2579704 C29.2910462,55.0430074 24.5870462,54.8791185 24.3695077,54.8703778 L22.7799692,54.9446741 L22.6507385,54.9446741 L21.0568923,54.861637 C20.8393538,54.8703778 15.9996615,55.0823407 14.2679692,56.3497481 C13.3590462,56.8436 8.41596923,59.5707111 6.95566154,61.4608963 C5.2412,63.6854148 4.08027692,68.2568222 3.41258462,71.7028593 C2.68889231,75.4329704 2.36581538,78.7304148 2.36150769,78.7653778 L2.35935385,78.8506 L2.38950769,78.8506 L6.73812308,78.7894148 L6.74027692,78.7369704 C6.7532,78.6451926 7.92704615,69.3625259 9.44550769,67.1817111 C9.9172,66.5043037 10.2338154,66.0060815 10.4470462,65.610563 C9.95381538,67.9661926 9.53166154,70.7129704 9.18489231,73.8071926 C8.42027692,80.5987481 8.2932,86.8243407 8.29104615,86.8877111 L8.29104615,86.957637 L8.31904615,86.957637 L22.6981231,86.957637 L22.7325846,86.957637 L37.1095077,86.957637 L37.1396615,86.957637 L37.1396615,86.8877111 C37.1375077,86.8243407 37.0104308,80.6096741 36.2458154,73.8181185 C35.7978154,69.8301556 35.2227385,66.4037852 34.5378154,63.663563 C34.5335077,63.6548222 34.5313538,63.6438963 34.5313538,63.6351556 C35.8301231,64.1508593 40.7021231,66.0104519 43.1876615,66.0104519 C43.5688923,66.0104519 43.8876615,65.9623778 44.1245846,65.8749704 C46.8082769,64.8894519 50.7950462,56.4524519 50.8338154,56.3672296 L50.8467385,56.3388222 L46.4787385,54.1580074 Z" id="Fill-5" fill="#EEEEED"></path>
            <path d="M43.1068923,35.9082148 C43.2598154,34.8811778 43.3373538,33.8301037 43.3373538,32.7571778 C43.3373538,21.1866222 34.0908923,11.8056222 22.6884308,11.8056222 C11.2816615,11.8056222 2.03735385,21.1866222 2.03735385,32.7571778 C2.03735385,33.7776593 2.10843077,34.7806593 2.24627692,35.7618074 C1.05304615,36.4217333 0.247507692,37.6760296 0.247507692,39.1095111 C0.247507692,41.2356963 2.01366154,42.9576222 4.1912,42.9576222 C4.33981538,42.9576222 4.48627692,42.9488815 4.63058462,42.9314 C8.15643077,49.3602148 14.9216615,53.7087333 22.6884308,53.7087333 C30.4444308,53.7087333 37.2032,49.3689556 40.7333538,42.9532519 C40.7936615,42.955437 40.8539692,42.9576222 40.9142769,42.9576222 C43.0918154,42.9576222 44.8579692,41.2356963 44.8579692,39.1095111 C44.8579692,37.774363 44.1622769,36.5987333 43.1068923,35.9082148" id="Fill-7" fill="#FDDFBB"></path>
            <g id="Page-1" transform="translate(10.000000, 29.000000)">
                <path d="M6.22875275,3.09640088 C5.45712117,2.92235643 5.3211738,1.89471199 2.8433317,2.35573421 C2.06412117,2.53613421 0.42612117,3.51195643 0.110647486,4.16364532 C-0.205299883,4.8158231 0.0234895909,1.77248977 2.56764749,0.641689768 C4.4031738,-0.0329768984 5.02512117,0.000267546019 6.54470012,0.000267546019 C8.06427906,0.000267546019 8.53227906,0.907156435 8.31106854,1.65026755 C8.31106854,1.65026755 7.80801591,3.45328977 6.22875275,3.09640088 Z" id="Fill-1" fill="#F8B906"></path>
                <path d="M20.1341558,3.09640088 C20.9057873,2.92235643 21.0417347,1.89471199 23.5195768,2.35573421 C24.2987873,2.53613421 25.9367873,3.51195643 26.252261,4.16364532 C26.5682084,4.8158231 26.3394189,1.77248977 23.795261,0.641689768 C21.9597347,-0.0329768984 21.3377873,0.000267546019 19.8182084,0.000267546019 C18.2986294,0.000267546019 17.8306294,0.907156435 18.05184,1.65026755 C18.05184,1.65026755 18.5548926,3.45328977 20.1341558,3.09640088 Z" id="Fill-3" fill="#F8B906"></path>
                <path d="M6,9 C6,10.6568785 5.10453816,12 3.99983098,12 C2.89512381,12 2,10.6568785 2,9 C2,7.34312148 2.89512381,6 3.99983098,6 C5.10453816,6 6,7.34312148 6,9" id="Fill-5" fill="#6172BB"></path>
                <path d="M24,9 C24,10.6568785 23.1048762,12 22.000169,12 C20.8951238,12 20,10.6568785 20,9 C20,7.34312148 20.8951238,6 22.000169,6 C23.1048762,6 24,7.34312148 24,9" id="Fill-7" fill="#6172BB"></path>
                <path d="M13.0197368,12.0692 C13.8586316,11.9552889 15.9802632,13.8262667 15.9802632,13.8262667 C15.9802632,13.8262667 16.0825789,13.4116889 15.6396842,12.5884 C15.1626842,11.7025333 12.9903684,11 12.9903684,11 C12.9903684,11 11.3026316,11.4478222 10.5030526,12.6040444 C10.207,12.8939556 10,13.9025333 10,13.9025333 C10,13.9025333 11.8947368,12.2217333 13.0197368,12.0692 Z" id="Fill-9" fill="#EEAC6C"></path>
                <g id="Group-13" transform="translate(6.000000, 15.000000)">
                    <mask id="mask-2" fill="white">
                        <use xlink:href="#path-1"></use>
                    </mask>
                    <g id="Clip-12"></g>
                    <path d="M0.199373684,0.696031111 C0.199373684,0.696031111 7.09763684,3.90412 13.3734789,0.299053333 C13.3734789,0.299053333 11.9822684,5.76825333 7.42305789,5.86016444 C3.30768947,5.98238667 2.43942632,4.36807556 1.94632105,3.90412 C1.45274211,3.44114222 0.524794737,2.13238667 0.199373684,0.696031111" id="Fill-11" fill="#EEAC6C" mask="url(#mask-2)"></path>
                </g>
            </g>
            <path d="M44.1545231,30.0270074 C44.1394462,28.9300444 44.0619077,27.6014519 43.9068308,26.1767111 C41.1348308,16.9574148 32.6831385,10.2510815 22.6871385,10.2510815 C13.9834462,10.2510815 6.4536,15.3338222 2.82006154,22.7328593 C1.81421538,25.6435259 1.20036923,28.5061185 1.14652308,29.797563 C0.969907692,34.2750074 4.18990769,40.9857111 4.18990769,40.9857111 C3.80436923,33.6107111 3.88406154,33.6238222 5.63729231,32.3476741 C7.81483077,30.7590444 12.4068308,27.7981185 14.1772923,25.7527852 C14.5154462,25.361637 15.2154462,23.9609333 15.2154462,23.9609333 C15.2154462,23.9609333 15.1465231,25.0622667 15.7539077,25.5473778 C19.4089846,28.4733407 30.1889846,25.2196 34.2791385,27.4768963 C37.6240615,29.3233778 41.6862154,40.9857111 41.6862154,40.9857111 C43.3382154,37.8128222 44.1868308,32.4875259 44.1545231,30.0270074" id="Fill-25" fill="#F8B906"></path>
            <path d="M21.0741231,56.2662741 L24.4470462,56.2662741 C25.4141231,56.2662741 26.1938154,54.1641259 26.1938154,53.2048296 L19.3273538,53.2048296 C19.3273538,54.1641259 20.1092,56.2662741 21.0741231,56.2662741" id="Fill-27" fill="#FDDFBB"></path>
            <path d="M20.0646154,55.4638741 L26.1707692,53.4207259 L26.1815385,53.4119852 C25.0464615,53.6042815 23.8790769,53.7091704 22.688,53.7091704 C21.5464615,53.7091704 20.4307692,53.6152074 19.3430769,53.4360222 C19.4055385,54.0369481 19.6747692,54.8673185 20.0646154,55.4638741" id="Fill-29" fill="#EEAC6C"></path>
            <polygon id="Fill-31" fill="#814915" points="25.5732923 86.8376704 22.6720615 86.8376704 20.0077538 86.8376704 11.4246769 86.8376704 12.4176 100.28967 22.4071385 100.28967 22.5428308 93.4434852 22.8012923 93.4434852 22.9326769 100.28967 32.9179077 100.28967 33.9194462 86.8376704"></polygon>
            <polygon id="Fill-33" fill="#AC6B32" points="14.5033846 100.290107 12.9633846 100.290107 11.9553846 86.8381074 13.4953846 86.8381074"></polygon>
            <polygon id="Fill-35" fill="#AC6B32" points="30.8422462 100.290107 32.3800923 100.290107 33.3859385 86.8381074 31.8480923 86.8381074"></polygon>
            <path d="M13.3842462,110.85963 C11.7537846,111.882296 10.5691692,113.962593 11.9670154,115.660481 C13.0202462,116.860148 14.5753231,115.909593 15.7556308,115.404815 C17.0587077,114.775481 18.5470154,114.331889 19.7273231,113.512444 C20.4919385,112.970519 21.3879385,112.391444 21.9005538,111.587296 C22.0599385,111.336 22.1353231,111.1 22.0793231,110.85963 L13.3842462,110.85963 Z" id="Fill-37" fill="#814915"></path>
            <path d="M31.9611692,110.85963 C33.5916308,111.882296 34.7762462,113.962593 33.3805538,115.660481 C32.3230154,116.860148 30.7722462,115.909593 29.5897846,115.404815 C28.2867077,114.775481 26.7984,114.331889 25.6159385,113.512444 C24.8534769,112.970519 23.9574769,112.391444 23.4427077,111.587296 C23.2854769,111.336 23.2100923,111.1 23.2660923,110.85963 L31.9611692,110.85963 Z" id="Fill-39" fill="#814915"></path>
            <polygon id="Fill-41" fill="#FDDFBB" points="22.0838462 110.85963 13.378 110.85963 12.9644615 100.289889 22.0838462 100.289889"></polygon>
            <polygon id="Fill-43" fill="#FDDFBB" points="31.9654769 110.85963 23.2682462 110.85963 23.2682462 100.289889 32.3790154 100.289889"></polygon>
            <polygon id="Fill-45" fill="#FFFFFF" points="22.0838462 110.92147 13.4361538 110.92147 13.0226154 104.553841 22.0838462 104.553841"></polygon>
            <polygon id="Fill-47" fill="#C6C4C4" points="13.1423692 105.817096 22.0829846 105.817096 22.0829846 104.554059 13.0497538 104.554059"></polygon>
            <polygon id="Fill-49" fill="#FFFFFF" points="23.2092308 110.92147 31.9366154 110.92147 32.3523077 104.553841 23.2092308 104.553841"></polygon>
            <polygon id="Fill-51" fill="#C6C4C4" points="32.2325538 105.817096 23.2682462 105.817096 23.2682462 104.554059 32.3230154 104.554059"></polygon>
            <path d="M27.5315692,55.2036185 L27.5315692,68.0983963 L17.8220308,68.0983963 L17.8220308,55.2232852 C16.9928,55.3565815 16.1657231,55.5357667 15.5152615,55.7805074 L15.5152615,68.0983963 L15.5152615,74.8855815 L15.5152615,86.8385444 L17.8220308,86.8385444 L17.8220308,74.8855815 L27.5315692,74.8855815 L27.5315692,86.8385444 L29.8383385,86.8385444 L29.8383385,55.7324333 C29.1297231,55.5008037 28.2983385,55.3303593 27.5315692,55.2036185" id="Fill-53" fill="#814915"></path>
            <path d="M23.0576,71.4729778 C23.0576,71.770163 22.8185231,72.0127185 22.5234462,72.0127185 C22.2283692,72.0127185 21.9914462,71.770163 21.9914462,71.4729778 C21.9914462,71.1736074 22.2283692,70.9310519 22.5234462,70.9310519 C22.8185231,70.9310519 23.0576,71.1736074 23.0576,71.4729778" id="Fill-55" fill="#AC6B32"></path>
            <path d="M22.8073231,69.5417111 C22.8073231,70.2300444 22.6737846,70.7894519 22.5122462,70.7894519 C22.3507077,70.7894519 22.2214769,70.2300444 22.2214769,69.5417111 C22.2214769,68.855563 22.3507077,68.2961556 22.5122462,68.2961556 C22.6737846,68.2961556 22.8073231,68.855563 22.8073231,69.5417111" id="Fill-57" fill="#AC6B32"></path>
            <path d="M22.8073231,73.4468556 C22.8073231,74.1330037 22.6737846,74.6924111 22.5122462,74.6924111 C22.3507077,74.6924111 22.2214769,74.1330037 22.2214769,73.4468556 C22.2214769,72.7585222 22.3507077,72.1991148 22.5122462,72.1991148 C22.6737846,72.1991148 22.8073231,72.7585222 22.8073231,73.4468556" id="Fill-59" fill="#AC6B32"></path>
            <path d="M24.4375692,71.7931074 C23.7612615,71.7931074 23.2098769,71.6576259 23.2098769,71.493737 C23.2098769,71.3298481 23.7612615,71.1965519 24.4375692,71.1965519 C25.1138769,71.1965519 25.6652615,71.3298481 25.6652615,71.493737 C25.6652615,71.6576259 25.1138769,71.7931074 24.4375692,71.7931074" id="Fill-61" fill="#AC6B32"></path>
            <path d="M20.5903692,71.7931074 C19.9119077,71.7931074 19.3605231,71.6576259 19.3605231,71.493737 C19.3605231,71.3298481 19.9119077,71.1965519 20.5903692,71.1965519 C21.2666769,71.1965519 21.8159077,71.3298481 21.8159077,71.493737 C21.8159077,71.6576259 21.2666769,71.7931074 20.5903692,71.7931074" id="Fill-63" fill="#AC6B32"></path>
            <path d="M24.0819692,70.3248815 C23.6016615,70.8121778 23.1192,71.1115481 23.0050462,70.9979185 C22.8887385,70.8799185 23.1859692,70.390437 23.6662769,69.9053259 C24.1444308,69.4158444 24.6268923,69.1164741 24.7432,69.2322889 C24.8573538,69.3502889 24.5622769,69.8375852 24.0819692,70.3248815" id="Fill-65" fill="#AC6B32"></path>
            <path d="M21.3603692,73.0841148 C20.8800615,73.5735963 20.3997538,73.8729667 20.2834462,73.7571519 C20.1692923,73.641337 20.4643692,73.1496704 20.9446769,72.6667444 C21.4249846,72.177263 21.9074462,71.8757074 22.0237538,71.9937074 C22.1357538,72.1095222 21.8428308,72.5968185 21.3603692,73.0841148" id="Fill-67" fill="#AC6B32"></path>
            <path d="M21.3603692,69.9044519 C21.8428308,70.3917481 22.1357538,70.8790444 22.0237538,70.9970444 C21.9074462,71.1128593 21.4249846,70.8113037 20.9446769,70.3240074 C20.4643692,69.8388963 20.1692923,69.3494148 20.2834462,69.2314148 C20.3997538,69.1177852 20.8800615,69.4149704 21.3603692,69.9044519" id="Fill-69" fill="#AC6B32"></path>
            <path d="M24.0819692,72.6658704 C24.5622769,73.1509815 24.8573538,73.640463 24.7432,73.7562778 C24.6268923,73.8742778 24.1444308,73.5727222 23.6662769,73.0832407 C23.1859692,72.5981296 22.8887385,72.1086481 23.0050462,71.9928333 C23.1192,71.8770185 23.6016615,72.1763889 24.0819692,72.6658704" id="Fill-71" fill="#AC6B32"></path>
            <path d="M22.3216308,21.2266111 L38.0080923,16.0127593 C38.0080923,16.0127593 27.4047077,-1.76372222 22.3388615,0.222611111 C17.2708615,-1.76372222 6.62224615,16.0127593 6.62224615,16.0127593 L22.3216308,21.2266111 L22.3216308,21.2309815 L22.3216308,21.2287963 L22.3216308,21.2309815 L22.3216308,21.2266111 Z" id="Fill-73" fill="#2DA840"></path>
            <path d="M4.34412308,10.2515185 C4.34412308,13.5686296 5.53304615,16.5164444 7.37243077,18.376037 C9.21181538,16.5164444 10.4007385,13.5686296 10.4007385,10.2515185 C10.4007385,6.93222222 9.21181538,3.98659259 7.37243077,2.127 C5.53304615,3.98659259 4.34412308,6.93222222 4.34412308,10.2515185" id="Fill-75" fill="#E63744"></path>
            <path d="M43.4960923,16.3844593 C38.7877846,13.644237 22.3151692,21.2312 22.3151692,21.2312 C22.3151692,21.2312 5.84686154,13.644237 1.14070769,16.3844593 C-0.0762153846,17.0946444 1.15147692,18.9389407 1.15147692,18.9389407 L22.3151692,23.5212741 L43.4874769,18.9389407 C43.4874769,18.9389407 44.7130154,17.0946444 43.4960923,16.3844593" id="Fill-77" fill="#228E37"></path>
        </g>
    </g>
</svg>