<?xml version="1.0" encoding="UTF-8"?>
<svg width="120px" height="120px" viewBox="0 0 120 120" version="1.1" xmlns="http://www.w3.org/2000/svg" xmlns:xlink="http://www.w3.org/1999/xlink">
    <!-- Generator: Sketch 51.1 (57501) - http://www.bohemiancoding.com/sketch -->
    <title>Gold coin3</title>
    <desc>Created with Sketch.</desc>
    <defs>
        <polygon id="path-1" points="0 0 120.00296 0 120.00296 119.999913 0 119.999913"></polygon>
    </defs>
    <g id="Gold-coin3" stroke="none" stroke-width="1" fill="none" fill-rule="evenodd">
        <g id="Page-1">
            <g id="Group-3">
                <mask id="mask-2" fill="white">
                    <use xlink:href="#path-1"></use>
                </mask>
                <g id="Clip-2"></g>
                <path d="M3.4604,39.9674 C-7.6036,71.1954 8.7404,105.4774 39.9684,116.5404 C43.7304,117.8734 47.5374,118.8074 51.3404,119.3614 C61.3754,120.8444 71.4014,119.7054 80.5744,116.3474 C84.1344,115.0464 87.5684,113.4084 90.8264,111.4584 C99.2064,106.4454 106.4094,99.3734 111.5734,90.6434 C113.5374,87.3404 115.2094,83.7944 116.5424,80.0324 C127.6064,48.8054 111.2624,14.5234 80.0344,3.4594 C76.2734,2.1264 72.4654,1.1934 68.6624,0.6394 C58.6284,-0.8456 48.6014,0.2944 39.4284,3.6534 C35.8684,4.9534 32.4344,6.5914 29.1764,8.5414 C20.7964,13.5554 13.5934,20.6264 8.4294,29.3574 C6.4654,32.6594 4.7934,36.2054 3.4604,39.9674" id="Fill-1" fill="#F9C332" mask="url(#mask-2)"></path>
            </g>
            <path d="M9.7202,38.4576 C9.1232,40.1416 9.9982,42.0176 11.7062,42.6226 C12.6992,42.9746 13.7612,42.8176 14.5872,42.2746 C15.1022,41.9356 15.5292,41.4526 15.7872,40.8416 C19.7492,31.6746 26.3152,24.2976 34.2932,19.2746 C37.5052,17.2436 40.9502,15.6046 44.5452,14.3866 C53.5442,11.3226 63.4892,10.8836 73.1812,13.6466 C73.7512,13.8116 74.3372,13.8116 74.8762,13.6726 C75.9012,13.4126 76.7742,12.6616 77.1492,11.6026 C77.7782,9.8276 76.7782,7.8866 74.9682,7.3726 C73.7972,7.0376 72.6282,6.7466 71.4542,6.4956 C61.3142,4.3186 51.0492,5.1396 41.7202,8.4596 C38.1452,9.7276 34.7032,11.3676 31.4672,13.3476 C23.0162,18.5006 15.9142,25.9646 11.2242,35.2196 C10.7202,36.2076 10.2432,37.2216 9.7992,38.2506 C9.7692,38.3196 9.7452,38.3866 9.7202,38.4576" id="Fill-4" fill="#FFE3AB"></path>
            <path d="M18.3647,45.2476 C10.2177,68.2426 22.2537,93.4896 45.2497,101.6376 C68.2447,109.7846 93.4907,97.7476 101.6377,74.7526 C109.7857,51.7566 97.7487,26.5106 74.7537,18.3626 C51.7587,10.2156 26.5117,22.2526 18.3647,45.2476" id="Fill-6" fill="#CE7B17"></path>
            <path d="M23.8061,47.1754 C16.7231,67.1654 27.1871,89.1134 47.1771,96.1964 C67.1671,103.2784 89.1141,92.8154 96.1971,72.8244 C103.2801,52.8344 92.8161,30.8874 72.8261,23.8044 C52.8351,16.7214 30.8881,27.1854 23.8061,47.1754" id="Fill-8" fill="#DB8C19"></path>
            <path d="M45.9975,84.5943 L55.3965,87.9243 C57.5055,88.6713 59.8195,87.5683 60.5665,85.4593 L76.4695,40.5743 C77.2165,38.4673 76.1125,36.1533 74.0055,35.4063 L64.6055,32.0753 C62.4975,31.3283 60.1835,32.4323 59.4355,34.5393 L43.5335,79.4253 C42.7865,81.5323 43.8905,83.8473 45.9975,84.5943" id="Fill-10" fill="#BC6713"></path>
        </g>
    </g>
</svg>