<?xml version="1.0" encoding="UTF-8"?>
<svg width="120px" height="120px" viewBox="0 0 120 120" version="1.1" xmlns="http://www.w3.org/2000/svg" xmlns:xlink="http://www.w3.org/1999/xlink">
    <!-- Generator: Sketch 51.1 (57501) - http://www.bohemiancoding.com/sketch -->
    <title>Goat2</title>
    <desc>Created with Sketch.</desc>
    <defs>
        <polygon id="path-1" points="0.251034094 0.574677165 9.91698838 0.574677165 9.91698838 7.55905512 0.251034094 7.55905512"></polygon>
        <polygon id="path-3" points="0.639629123 0.574677165 10.3056439 0.574677165 10.3056439 7.55905512 0.639629123 7.55905512"></polygon>
        <polygon id="path-5" points="0.428257483 0.39023622 31.6726741 0.39023622 31.6726741 26.1836687 0.428257483 26.1836687"></polygon>
        <polygon id="path-7" points="0.311077397 0.420944882 88.4745897 0.420944882 88.4745897 76.8892913 0.311077397 76.8892913"></polygon>
    </defs>
    <g id="Goat2" stroke="none" stroke-width="1" fill="none" fill-rule="evenodd">
        <g id="Group" transform="translate(60.500000, 60.000000) scale(-1, 1) translate(-60.500000, -60.000000) translate(5.000000, 0.000000)">
            <path d="M88.0304,114.627496 C88.0304,116.698677 89.7172205,118.379622 91.797759,118.379622 L92.241759,118.379622 C94.3232462,118.379622 96.0100667,116.698677 96.0100667,114.627496 L96.0100667,86.4341102 C96.0100667,84.3619843 94.3232462,82.6819843 92.241759,82.6819843 L91.797759,82.6819843 C89.7172205,82.6819843 88.0304,84.3619843 88.0304,86.4341102 L88.0304,114.627496 Z" id="Fill-1" fill="#6D585F"></path>
            <g id="Group-5" transform="translate(86.333333, 112.050709)">
                <mask id="mask-2" fill="white">
                    <use xlink:href="#path-1"></use>
                </mask>
                <g id="Clip-4"></g>
                <path d="M1.76755641,1.51105512 C1.59868462,2.62507087 1.3653,3.62286614 1.04558205,4.43074016 C0.248658974,6.44617323 -0.792084615,7.21341732 2.65081282,6.44711811 C2.82442821,6.40837795 2.37283846,7.33341732 2.55594103,7.38822047 C4.03878718,7.82759055 6.5453,7.42412598 8.60591538,6.14664567 C9.92178718,5.3312126 10.1153256,3.4216063 9.76050513,0.574677165 C7.70747949,2.44554331 4.84994103,3.01530709 1.76755641,1.51105512" id="Fill-3" fill="#000000" mask="url(#mask-2)"></path>
            </g>
            <path d="M33.0603538,113.206488 C33.0603538,115.278614 34.7471744,116.959559 36.8277128,116.959559 L37.2717128,116.959559 C39.3532,116.959559 41.0400205,115.278614 41.0400205,113.206488 L41.0400205,85.0140472 C41.0400205,82.9419213 39.3532,81.2619213 37.2717128,81.2619213 L36.8277128,81.2619213 C34.7471744,81.2619213 31.5300718,82.936252 31.5300718,85.008378 L33.0603538,113.206488 Z" id="Fill-6" fill="#6D585F"></path>
            <path d="M33.0469769,111.771685 C32.8781051,112.884756 32.6447205,113.882551 32.3250026,114.690425 C31.5280795,116.705858 30.4873359,117.473102 33.9292846,116.706803 C34.1038487,116.668063 33.652259,117.593102 33.8353615,117.647906 C35.3182077,118.087276 37.8247205,117.683811 39.8853359,116.406331 C41.2012077,115.590898 41.3947462,113.681291 41.0399256,110.834362 C38.9869,112.705228 36.1293615,113.274992 33.0469769,111.771685" id="Fill-8" fill="#000000"></path>
            <path d="M46.6755,114.627496 C46.6755,116.698677 48.3623205,118.379622 50.442859,118.379622 L50.886859,118.379622 C52.9683462,118.379622 54.6551667,116.698677 54.6551667,114.627496 L54.6551667,86.4341102 C54.6551667,84.3619843 52.9683462,82.6819843 50.886859,82.6819843 L50.442859,82.6819843 C48.3623205,82.6819843 46.6755,84.3619843 46.6755,86.4341102 L46.6755,114.627496 Z" id="Fill-10" fill="#6D585F"></path>
            <g id="Group-14" transform="translate(44.589744, 112.050709)">
                <mask id="mask-4" fill="white">
                    <use xlink:href="#path-3"></use>
                </mask>
                <g id="Clip-13"></g>
                <path d="M2.15662564,1.51105512 C1.98680513,2.62507087 1.75436923,3.62286614 1.43465128,4.43074016 C0.636779487,6.44617323 -0.403015385,7.21341732 3.03893333,6.44711811 C3.21254872,6.40837795 2.76190769,7.33341732 2.94501026,7.38822047 C4.42785641,7.82759055 6.93436923,7.42412598 8.99498462,6.14664567 C10.3108564,5.3312126 10.5034462,3.4216063 10.1495744,0.574677165 C8.09654872,2.44554331 5.23806154,3.01530709 2.15662564,1.51105512" id="Fill-12" fill="#000000" mask="url(#mask-4)"></path>
            </g>
            <path d="M75.2621744,113.206488 C75.2621744,115.278614 76.9489949,116.959559 79.0304821,116.959559 L79.4744821,116.959559 C81.5550205,116.959559 83.241841,115.278614 83.241841,113.206488 L83.241841,85.0140472 C83.241841,82.9419213 81.5550205,81.2619213 79.4744821,81.2619213 L79.0304821,81.2619213 C76.9489949,81.2619213 73.732841,82.936252 73.732841,85.008378 L75.2621744,113.206488 Z" id="Fill-15" fill="#6D585F"></path>
            <path d="M75.2487026,111.771685 C75.0798308,112.884756 74.8464462,113.882551 74.5267282,114.690425 C73.7298051,116.705858 72.6890615,117.473102 76.131959,116.706803 C76.3055744,116.668063 75.8539846,117.593102 76.0370872,117.647906 C77.5199333,118.087276 80.0264462,117.683811 82.0870615,116.406331 C83.4029333,115.590898 83.5964718,113.681291 83.2416513,110.834362 C81.1886256,112.705228 78.3310872,113.274992 75.2487026,111.771685" id="Fill-17" fill="#000000"></path>
            <path d="M40.2670051,23.6531339 C46.6528256,17.4802205 56.4663641,14.9658898 62.5343641,19.4181732 C72.0632872,26.4084094 68.545441,39.9627402 64.3900564,43.1309291 C63.2848,43.9737638 65.9933897,37.9652598 64.4431846,32.3914016 C61.8152359,22.939748 52.8726205,21.7038425 46.0940308,30.2984882 C43.4044154,33.7085669 35.6657231,28.1006929 40.2670051,23.6531339" id="Fill-19" fill="#FFCB57"></path>
            <g id="Group-23" transform="translate(23.717949, 0.554646)">
                <mask id="mask-6" fill="white">
                    <use xlink:href="#path-5"></use>
                </mask>
                <g id="Clip-22"></g>
                <path d="M0.601107692,21.5902677 C-0.330533333,12.0582992 2.44731282,3.05640945 10.3121846,0.95215748 C22.6606974,-2.35209449 31.7854667,9.74144882 31.6716205,15.3729449 C31.6422103,16.8705827 28.3710308,10.5427087 22.5999795,8.08979528 C12.8149026,3.93137008 7.27438974,10.692 9.99531282,22.1855433 C11.0749538,26.7464882 1.27185128,28.4576693 0.601107692,21.5902677" id="Fill-21" fill="#FFCB57" mask="url(#mask-6)"></path>
            </g>
            <path d="M88.6173718,88.3073386 C90.1827564,96.1045039 85.3993205,103.630488 77.9329103,105.116787 C70.4665,106.604031 63.1452436,101.488441 61.579859,93.6912756 C60.0144744,85.8941102 64.7979103,78.368126 72.2643205,76.8818268 C79.7307308,75.3945827 87.0519872,80.5101732 88.6173718,88.3073386" id="Fill-24" fill="#EFA3A3"></path>
            <path d="M82.7467051,104.481071 C82.8975513,106.81115 81.9516795,108.768945 80.6329615,108.853984 C79.316141,108.938079 78.1255,107.117291 77.9746538,104.786268 C77.8247564,102.455244 78.7706282,100.498394 80.0883974,100.413354 C81.4061667,100.32926 82.595859,102.150047 82.7467051,104.481071" id="Fill-26" fill="#EFA3A3"></path>
            <path d="M71.3412179,105.240472 C70.6932436,107.370236 69.1904744,108.802677 67.9865513,108.438898 C66.7816795,108.075118 66.3319872,106.053071 66.9799615,103.922362 C67.6279359,101.793543 69.1297564,100.361102 70.3346282,100.724882 C71.5385513,101.087717 71.990141,103.109764 71.3412179,105.240472" id="Fill-28" fill="#EFA3A3"></path>
            <g id="Group-32" transform="translate(21.820513, 23.231811)">
                <mask id="mask-8" fill="white">
                    <use xlink:href="#path-7"></use>
                </mask>
                <g id="Clip-31"></g>
                <path d="M88.4737359,12.5428346 C86.9823513,13.555748 86.2480436,14.4127559 84.4340949,14.8143307 C86.7869154,8.14913386 82.2814538,3.09874016 77.7807359,0.420944882 C80.4684538,4.34976378 81.5338641,7.96204724 78.9429154,11.7992126 C78.7047872,8.36456693 76.5616333,6.71385827 73.2961462,5.30503937 C76.8329667,11.780315 75.3690949,16.0606299 71.9385308,22.9658268 C70.5021718,22.0549606 68.9434282,21.2782677 67.2623,20.6262992 C48.6864026,13.4291339 25.8820692,36.1828346 22.3756077,24.2291339 C20.5967615,18.1648819 23.1108641,4.35826772 21.3614282,3.8423622 C16.8256077,2.50535433 8.24824872,4.37716535 4.98655641,11.076378 C2.88988974,15.3850394 -1.28257179,26.5828346 0.949761538,41.2577953 C0.988658974,41.5091339 1.0323,41.7576378 1.07309487,42.0089764 C1.07309487,42.0089764 5.13265897,58.9922835 6.26163333,61.8533858 C7.69894103,65.499685 10.5764026,68.6177953 11.8970179,72.3585827 C12.8609154,71.3116535 14.0164538,69.3888189 14.8323513,68.1992126 C14.9405051,70.6530709 16.504941,72.6514961 18.3255308,74.1765354 C19.1053769,72.4653543 20.2163256,70.8477165 21.449659,69.5503937 C21.1185564,72.1308661 23.0719667,74.6650394 24.5880179,76.5548031 C26.3592744,75.1847244 27.6846333,73.4338583 28.4502487,71.4883465 C28.7908385,73.2496063 29.3657615,75.043937 29.3031462,76.8892913 C31.3182231,75.5248819 33.5647872,73.7286614 34.6833256,71.5365354 C35.7364026,72.3746457 36.3957615,74.2559055 37.0361462,76.7333858 C39.2390692,75.0316535 40.0919667,74.0782677 41.3044282,72.6571654 C42.6402231,73.1740157 43.982659,74.4949606 44.8630692,76.1192126 C46.8933256,74.395748 47.4454795,73.2288189 48.6759667,70.7012598 C49.1000436,73.1229921 50.7280436,74.0376378 50.7280436,74.0376378 L53.2060949,70.3809449 C53.2060949,70.3809449 55.0143513,73.4744882 57.2874795,74.1774803 C57.5958128,72.468189 57.9155308,71.0735433 58.9107359,70.451811 C59.6403,71.5979528 59.6744538,72.3349606 59.5274026,73.8259843 C61.1800692,72.2366929 61.9286077,71.436378 62.1534538,70.0285039 C62.4323769,70.8458268 63.8374282,72.7629921 65.405659,73.4744882 C65.3117359,71.0215748 65.6788897,69.1280315 66.2974538,67.4244094 C67.2234026,69.916063 67.9444282,72.2896063 70.3456333,74.1274016 C70.9196077,70.4376378 70.8807103,69.4823622 71.7573256,66.6552756 C73.2401718,68.483622 75.0579154,71.0735433 75.8244795,74.6792126 C77.5331205,69.7450394 78.4723513,64.1220472 76.7447359,59.1274016 C77.9714282,61.7702362 78.9865564,64.4177953 79.2844538,67.356378 C82.1097359,61.4130709 83.1210692,52.4074016 81.9759667,44.6584252 C82.0499667,43.5500787 82.0461718,42.4086614 81.9370692,41.2256693 C81.2682231,33.9462992 78.8347615,28.9053543 75.0787872,25.3809449 C81.1135821,23.3966929 88.5856846,17.2691339 88.4737359,12.5428346" id="Fill-30" fill="#E8D7C4" mask="url(#mask-8)"></path>
            </g>
            <path d="M48.3923,50.9947087 C46.1438385,50.8529764 44.8791974,49.528252 44.1107359,47.1452598 C44.0253513,46.8816378 44.8137359,50.680063 39.1157359,60.2564409 C36.619659,64.4526614 34.856941,67.2929764 29.8201974,70.2192756 C26.9047872,71.9134488 24.4827103,71.9786457 24.4827103,71.9786457 C24.6212231,72.8469921 25.112659,74.6252598 25.7065564,76.6246299 C38.0920692,74.3512441 46.6751205,62.9314016 48.3923,50.9947087" id="Fill-33" fill="#FF0033"></path>
            <path d="M8.82497436,64.5100157 C7.91230769,66.9506457 7.12202564,68.5919055 4.38782051,69.1229291 C2.77974359,69.435685 1.99420513,69.252378 0,67.6045039 C0.85574359,71.3273386 4.63258974,72.3024567 6.84879487,70.7783622 C6.60497436,71.996315 5.16482051,72.5566299 3.49887179,72.6936378 C9.00997436,74.396315 14.0049744,70.5742677 15.5950256,65.9348976 L8.82497436,64.5100157 Z" id="Fill-35" fill="#F5E2CB"></path>
            <path d="M23.4865564,17.4467717 C23.4865564,17.4467717 17.6898897,23.427874 11.9321205,22.4725984 C6.17435128,21.5173228 0.836864103,15.4889764 0.836864103,15.4889764 C0.836864103,15.4889764 8.43419744,8.00740157 14.1919667,8.96267717 C19.9487872,9.91795276 23.4865564,17.4467717 23.4865564,17.4467717" id="Fill-37" fill="#F5E2CB"></path>
            <path d="M19.2822179,19.1206299 C19.2822179,19.1206299 15.2919103,21.5669291 11.421141,20.5634646 C7.55037179,19.5609449 4.02967949,16.0705512 4.02967949,16.0705512 C4.02967949,16.0705512 9.25332051,13.0412598 13.1240897,14.0447244 C16.9958077,15.048189 19.2822179,19.1206299 19.2822179,19.1206299" id="Fill-39" fill="#FFB0DD"></path>
            <path d="M47.7502077,31.7865827 C47.7502077,31.7865827 44.8461821,39.5799685 48.2027462,44.3355591 C51.5593103,49.0911496 59.3255154,51.2747717 59.3255154,51.2747717 C59.3255154,51.2747717 62.8092077,41.2155591 59.4526436,36.4599685 C56.0960795,31.704378 47.7502077,31.7865827 47.7502077,31.7865827" id="Fill-41" fill="#F5E2CB"></path>
            <path d="M48.0550308,36.2862992 C48.0550308,36.2862992 47.5673897,40.9275591 50.1507487,43.968189 C52.7341077,47.0097638 57.4169795,48.6604724 57.4169795,48.6604724 C57.4169795,48.6604724 57.8979795,42.6595276 55.3146205,39.6179528 C52.7312615,36.576378 48.0550308,36.2862992 48.0550308,36.2862992" id="Fill-43" fill="#FFB0DD"></path>
            <path d="M46.7667667,45.324 C40.9359462,55.2651024 22.6788179,74.460378 10.2117154,67.2074646 C-2.2563359,59.9536063 5.7565359,34.7970709 11.5873564,24.8569134 C17.4181769,14.915811 26.2535872,14.9677795 36.7796128,21.2446299 C47.303741,27.5214803 52.5975872,35.3828976 46.7667667,45.324" id="Fill-45" fill="#F5E2CB"></path>
            <path d="M37.7878154,44.8866142 C35.4198154,48.5187402 35.1940205,48.9609449 31.3735333,45.3637795 C28.8319179,42.9722835 27.987559,43.2576378 30.1449436,39.9458268 C31.5148923,37.8444094 34.3363795,37.2462992 36.4463282,38.6107087 C38.5572256,39.9751181 39.1568154,42.784252 37.7878154,44.8866142" id="Fill-47" fill="#FFFFFF"></path>
            <path d="M36.5426231,43.9338898 C35.7779564,45.3814488 33.9801359,45.9379843 32.5267,45.1764094 C31.0732641,44.4157795 30.5144692,42.6242835 31.2791359,41.1767244 C32.0428538,39.7291654 33.8416231,39.1726299 35.295059,39.9342047 C36.7484949,40.6957795 37.3072897,42.4863307 36.5426231,43.9338898" id="Fill-49" fill="#000000"></path>
            <path d="M39.7685487,39.6487559 C39.6395231,39.5656063 39.5579333,39.4172598 39.5683692,39.2537953 C39.6433179,38.0471811 39.182241,37.0682835 38.3103692,36.552378 C38.0997538,36.4285984 38.0295487,36.1611969 38.1519333,35.9514331 C38.2752667,35.7426142 38.5447026,35.6726929 38.7553179,35.7945827 C39.9279333,36.4748976 40.5446,37.7580472 40.4487795,39.3076535 C40.4336,39.5495433 40.2239333,39.7337953 39.9810615,39.7186772 C39.9032667,39.7139528 39.8302154,39.6884409 39.7685487,39.6487559" id="Fill-53" fill="#000000"></path>
            <path d="M16.0187231,30.8610709 C13.6516718,34.4941417 13.3385949,34.8787087 18.1931846,36.8903622 C21.4216718,38.2273701 21.5032615,39.1117795 23.6615949,35.8009134 C25.0315436,33.6985512 24.4300564,30.8894173 22.3201077,29.5250079 C20.2092103,28.1615433 17.3886718,28.7587087 16.0187231,30.8610709" id="Fill-55" fill="#FFFFFF"></path>
            <path d="M17.3991077,31.6052598 C16.3830308,32.8902992 16.6050308,34.7526614 17.8943385,35.7646299 C19.1845949,36.7765984 21.0554667,36.5554961 22.0715436,35.2704567 C23.0876205,33.9863622 22.8656205,32.124 21.5753641,31.1120315 C20.2851077,30.0991181 18.4151846,30.3202205 17.3991077,31.6052598" id="Fill-57" fill="#000000"></path>
            <path d="M20.0151026,26.9260157 C19.9534359,26.8863307 19.9003077,26.8296378 19.8642564,26.7616063 C19.7523077,26.5461732 19.8357949,26.2806614 20.0511538,26.1682205 C21.4324872,25.4501102 22.8565128,25.484126 23.9617692,26.2778268 C24.1600513,26.4186142 24.2055897,26.6935748 24.0632821,26.8901102 C23.9219231,27.0875906 23.6486923,27.1348346 23.4485128,26.9912126 C22.6212308,26.4072756 21.5358974,26.3874331 20.4591026,26.9468031 C20.313,27.0233386 20.1441282,27.0091654 20.0151026,26.9260157" id="Fill-61" fill="#000000"></path>
            <path d="M38.4632077,54.8157165 C37.4651564,55.7284724 35.6796692,55.4100472 34.4766949,54.1051654 C33.2737205,52.8002835 33.1086436,51.0012283 34.1066949,50.0884724 C35.1056949,49.1757165 36.8902333,49.4941417 38.0932077,50.7990236 C39.2961821,52.1048504 39.4622077,53.9029606 38.4632077,54.8157165" id="Fill-63" fill="#FFB0DD"></path>
            <path d="M13.7237744,36.8352756 C13.6564154,38.183622 12.1602872,39.2040945 10.3833385,39.1162205 C8.60638974,39.0264567 7.22126154,37.8614173 7.28956923,36.5130709 C7.35787692,35.1647244 8.85305641,34.144252 10.6300051,34.2330709 C12.4069538,34.3218898 13.7920821,35.4869291 13.7237744,36.8352756" id="Fill-65" fill="#FFB0DD"></path>
            <path d="M38.8717256,33.4239685 C39.0491359,33.6479055 39.2863154,33.8312126 39.5690333,33.9474331 C40.4579821,34.3121575 41.4750077,33.8926299 41.8421615,33.0082205 C42.8961872,30.4664882 43.5915974,27.9502677 42.9531103,25.668378 C42.3554179,23.5367244 40.895341,21.3965669 38.1696744,19.8072756 C35.8965462,18.4825512 32.6263154,17.5830236 30.2602128,18.2850709 C28.0648795,18.9360945 26.4710333,20.4857008 24.6305205,22.2460157 C23.9778026,22.8705827 23.9199308,23.8787717 24.4711359,24.5713701 C24.5052897,24.6148346 24.5422897,24.6564094 24.5811872,24.6970394 C25.2471872,25.3868031 26.3486487,25.4085354 27.0412128,24.7452283 C28.6047,23.2504252 29.9917256,22.1203465 31.6140333,21.2982992 C30.3958795,22.4945197 29.2621615,23.7389291 28.1644949,25.0938898 C27.6445974,25.7364094 27.6597769,26.6368819 28.154059,27.2576693 C28.2328026,27.3568819 28.3238795,27.4485354 28.426341,27.5307402 C29.1739308,28.131685 30.2697,28.0154646 30.8730846,27.2699528 C31.5172641,26.4753071 32.1766231,25.7222362 32.8606487,24.9918425 C32.4451103,25.7845984 32.0077513,26.5234961 31.5466744,27.1253858 C31.0542897,27.7697953 31.0837,28.6466457 31.5665974,29.252315 C31.6548282,29.363811 31.7572897,29.4649134 31.8758795,29.5546772 C32.6395974,30.1348346 33.7315718,29.988378 34.3140846,29.227748 C34.7685205,28.6343622 35.1944949,27.9597165 35.5948538,27.2463307 C35.3956231,27.884126 35.1432641,28.4434961 34.8197513,28.8743622 C34.3349564,29.5168819 34.3681615,30.388063 34.8472641,30.9899528 C34.938341,31.1033386 35.0455462,31.2082205 35.1679308,31.299874 C35.9363923,31.8743622 37.0274179,31.7194016 37.6042385,30.9531024 C38.6231615,29.6000315 39.1829051,27.7735748 39.4741615,25.7090079 C39.5747256,27.7622362 39.4513923,29.6935748 38.6260077,31.6844409 C38.3764949,32.2863307 38.4922385,32.947748 38.8717256,33.4239685" id="Fill-67" fill="#6D585F"></path>
            <path d="M14.0507974,66.9432756 C11.2530282,66.9432756 9.43813077,65.427685 8.53684872,62.3587087 C8.47043846,62.1347717 8.59851538,61.9013858 8.82336154,61.836189 C9.05010513,61.7691024 9.28348974,61.8985512 9.34800256,62.1215433 C10.3906436,65.6657953 12.6248744,66.7760315 16.5905154,65.7272126 C16.8191564,65.6648504 17.0496949,65.8009134 17.1094641,66.0257953 C17.1682846,66.251622 17.0345154,66.4821732 16.8087205,66.5426457 C15.8011821,66.8091024 14.8818744,66.9432756 14.0507974,66.9432756" id="Fill-69" fill="#000000"></path>
            <path d="M11.6910513,66.2964094 C11.6417179,66.2964094 11.5923846,66.2869606 11.544,66.2671181 C11.3457179,66.1858583 11.2508462,65.9609764 11.3324359,65.7634961 C11.8561282,64.4907402 13.2014103,62.0652283 13.9129487,61.2327874 C14.0524103,61.0693228 14.2981282,61.0513701 14.4594103,61.1893228 C14.6225897,61.3272756 14.6425128,61.572 14.5030513,61.7335748 C13.8958718,62.444126 12.5885385,64.747748 12.0496667,66.0564094 C11.988,66.2047559 11.8428462,66.2964094 11.6910513,66.2964094" id="Fill-71" fill="#000000"></path>
            <path d="M21.2561205,61.0750866 C20.2182231,62.847685 13.7157103,62.1787087 13.7157103,62.1787087 C13.7157103,62.1787087 9.63812051,56.7002835 10.6760179,54.927685 C11.7139154,53.1560315 14.2080949,54.3172913 17.1301462,56.0152441 C20.0512487,57.712252 22.2940179,59.3034331 21.2561205,61.0750866" id="Fill-73" fill="#C67F94"></path>
            <path d="M25.8297,78.064063 C25.3249821,78.064063 24.8999564,78.4410709 24.8401872,78.9409134 C24.8088795,79.2045354 24.8819308,79.464378 25.0470077,79.6731969 C25.2120846,79.8820157 25.4483154,80.0133543 25.7130077,80.0445354 C26.280341,80.1172913 26.7575462,79.7138268 26.822059,79.1752441 C26.8533667,78.911622 26.7793667,78.6517795 26.6152385,78.4429606 C26.4501615,78.2350866 26.2139308,78.1028031 25.9492385,78.071622 C25.9093923,78.0668976 25.8695462,78.064063 25.8297,78.064063 M25.8344436,81.7821732 C25.7262897,81.7821732 25.6181359,81.7755591 25.5080846,81.7613858 C24.7832641,81.6763465 24.1352897,81.3144567 23.6827513,80.7428031 C23.2311615,80.1711496 23.0300333,79.4596535 23.1163667,78.7377638 C23.2918795,77.2618583 24.6257769,76.1846929 26.1541615,76.3528819 C26.8789821,76.439811 27.5279051,76.8017008 27.9794949,77.3742992 C28.4310846,77.9450079 28.6322128,78.6574488 28.5458795,79.3793386 C28.3827,80.7494173 27.2176744,81.7821732 25.8344436,81.7821732" id="Fill-75" fill="#FFCB57"></path>
            <path d="M26.3646821,74.4543307 C26.2830923,75.9651969 26.4586051,78.2140157 25.8315026,78.18 C25.2044,78.1459843 25.1114256,75.7705512 25.0269897,74.259685 C24.9340154,72.5759055 25.4842718,71.0792126 26.1113744,71.1122835 C26.7384769,71.1462992 26.4462718,72.9434646 26.3646821,74.4543307" id="Fill-77" fill="#FFCB57"></path>
            <path d="M27.0581949,94.9750866 C26.8551692,96.6768189 25.3059128,97.891937 23.5972718,97.6897323 C21.8895795,97.4875276 20.6685795,95.9435906 20.8716051,94.2428031 C21.0746308,92.5420157 22.6248359,91.3259528 24.3325282,91.5291024 C26.0411692,91.7303622 27.2612205,93.2733543 27.0581949,94.9750866" id="Fill-79" fill="#D1942A"></path>
            <path d="M30.3161872,86.516315 C30.7497513,82.884189 28.7280333,79.6583622 25.8012385,79.3115906 C22.8734949,78.9657638 20.1497256,81.6293858 19.7161615,85.2615118 C19.570059,86.4804094 17.5445462,89.5200945 17.4553667,90.2627717 C17.2921872,91.6271811 20.1952641,93.7115906 24.0280846,94.1651339 C27.8618538,94.6186772 31.1738282,93.2703307 31.336059,91.9059213 C31.4252385,91.1632441 30.1700846,87.7352126 30.3161872,86.516315" id="Fill-81" fill="#FFBF3E"></path>
        </g>
    </g>
</svg>