<?xml version="1.0" encoding="UTF-8"?>
<svg width="120px" height="120px" viewBox="0 0 120 120" version="1.1" xmlns="http://www.w3.org/2000/svg" xmlns:xlink="http://www.w3.org/1999/xlink">
    <!-- Generator: Sketch 51.1 (57501) - http://www.bohemiancoding.com/sketch -->
    <title>Ferris wheel2</title>
    <desc>Created with Sketch.</desc>
    <defs></defs>
    <g id="Ferris-wheel2" stroke="none" stroke-width="1" fill="none" fill-rule="evenodd">
        <g id="Page-1" transform="translate(6.000000, 1.000000)">
            <path d="M54.6063281,103.535544 C28.1102195,103.535544 6.67001058,82.0828861 6.67001058,55.5713924 C6.67001058,29.0598987 28.1102195,7.60724051 54.6063281,7.60724051 C81.1024368,7.60724051 102.542646,29.0598987 102.542646,55.5713924 C102.542646,82.0828861 81.1024368,103.535544 54.6063281,103.535544 Z" id="Stroke-1" stroke="#6D4C41" stroke-width="1.63594937"></path>
            <path d="M65.2879031,55.5713013 C65.2879031,49.6639595 60.510424,44.8837063 54.6062067,44.8837063 C48.702293,44.8837063 43.9248139,49.6639595 43.9248139,55.5713013 C43.9248139,61.4789468 48.702293,66.2592 54.6062067,66.2592 C60.510424,66.2592 65.2879031,61.4789468 65.2879031,55.5713013 Z" id="Stroke-3" stroke="#6D4C41" stroke-width="1.63594937"></path>
            <path d="M54.6063281,55.5713013 L54.6063281,103.535453" id="Stroke-5" stroke="#6D4C41" stroke-width="0.701164557"></path>
            <path d="M54.6063281,55.5713013 L75.4049855,98.7855797" id="Stroke-7" stroke="#6D4C41" stroke-width="0.701164557"></path>
            <path d="M54.6063281,55.5713013 L92.0844145,85.4765165" id="Stroke-9" stroke="#6D4C41" stroke-width="0.701164557"></path>
            <path d="M54.6063281,55.5713013 L101.340913,66.2443139" id="Stroke-11" stroke="#6D4C41" stroke-width="0.701164557"></path>
            <path d="M54.6063281,55.5713013 L101.340913,44.8982886" id="Stroke-13" stroke="#6D4C41" stroke-width="0.701164557"></path>
            <path d="M54.6063281,55.5713013 L92.0844145,25.6663899" id="Stroke-15" stroke="#6D4C41" stroke-width="0.701164557"></path>
            <path d="M54.6063281,55.5713013 L75.4049855,12.3570228" id="Stroke-17" stroke="#6D4C41" stroke-width="0.701164557"></path>
            <path d="M54.6063281,55.5713013 L54.6063281,7.60714937" id="Stroke-19" stroke="#6D4C41" stroke-width="0.701164557"></path>
            <path d="M54.6063281,55.5713013 L33.8076708,12.3570228" id="Stroke-21" stroke="#6D4C41" stroke-width="0.701164557"></path>
            <path d="M54.6063281,55.5713013 L17.1282418,25.6663899" id="Stroke-23" stroke="#6D4C41" stroke-width="0.701164557"></path>
            <path d="M54.6063281,55.5713013 L7.8720468,44.8982886" id="Stroke-25" stroke="#6D4C41" stroke-width="0.701164557"></path>
            <path d="M54.6063281,55.5713013 L7.8720468,66.2443139" id="Stroke-27" stroke="#6D4C41" stroke-width="0.701164557"></path>
            <path d="M54.6063281,55.5713013 L17.1282418,85.4765165" id="Stroke-29" stroke="#6D4C41" stroke-width="0.701164557"></path>
            <path d="M54.6063281,55.5713013 L33.8076708,98.7855797" id="Stroke-31" stroke="#6D4C41" stroke-width="0.701164557"></path>
            <polygon id="Stroke-33" stroke="#6D4C41" stroke-width="0.701164557" points="101.961454 55.5713013 94.7471114 64.7420354 97.2802228 76.1359595 86.7925404 81.2506937 84.1337298 92.6169722 72.4686045 92.6910987 65.1437437 101.775858 54.6062674 96.7592506 44.0687911 101.775858 36.7439304 92.6907949 25.078805 92.6169722 22.4199944 81.2506937 11.932312 76.1356557 14.465727 64.7420354 7.2513844 55.5713013 14.465727 46.4008709 11.932312 35.0069468 22.4202981 29.8919089 25.0791086 18.5256304 36.744234 18.4518076 44.0687911 9.3667443 54.6062674 14.3833519 65.1437437 9.3667443 72.4689081 18.4518076 84.1340334 18.5259342 86.792844 29.8922127 97.2805265 35.0072506 94.7471114 46.4008709"></polygon>
            <path d="M95.5437526,55.5713013 C95.5437526,78.1935797 77.2153571,96.5326177 54.6062067,96.5326177 C31.9973599,96.5326177 13.6689643,78.1935797 13.6689643,55.5713013 C13.6689643,32.9493266 31.9973599,14.6102886 54.6062067,14.6102886 C77.2153571,14.6102886 95.5437526,32.9493266 95.5437526,55.5713013 Z" id="Stroke-35" stroke="#6D4C41" stroke-width="1.63594937"></path>
            <polygon id="Stroke-37" stroke="#6D4C41" stroke-width="1.16901266" stroke-linecap="round" stroke-linejoin="round" points="52.5751025 7.3220962 50.5435733 3.80138734 52.5751025 0.280982278 56.6378574 0.280982278 58.6693866 3.80138734 56.6378574 7.3220962"></polygon>
            <polygon id="Stroke-39" stroke="#6D4C41" stroke-width="1.16901266" stroke-linecap="round" stroke-linejoin="round" points="31.8540203 12.9820861 28.4971847 10.6920608 28.8008058 6.63818734 32.4612627 4.87433924 35.8184019 7.16436456 35.5144772 11.218238"></polygon>
            <polygon id="Stroke-41" stroke="#6D4C41" stroke-width="1.16901266" stroke-linecap="round" stroke-linejoin="round" points="15.6393443 27.0772253 11.621829 26.4711494 10.1374251 22.6870481 12.6708401 19.508719 16.6883554 20.1147949 18.1724557 23.8988962"></polygon>
            <polygon id="Stroke-43" stroke="#6D4C41" stroke-width="1.16901266" stroke-linecap="round" stroke-linejoin="round" points="7.14223259 46.8158886 3.25982869 48.0140658 0.281608635 45.2489013 1.18579248 41.2855595 5.06819638 40.0873823 8.04641643 42.8525468"></polygon>
            <polygon id="Stroke-45" stroke="#6D4C41" stroke-width="1.16901266" stroke-linecap="round" stroke-linejoin="round" points="8.04599136 68.2886582 5.06746769 71.0538228 1.18536741 69.8553418 0.281183565 65.892 3.25970724 63.1268354 7.14180752 64.3253165"></polygon>
            <polygon id="Stroke-47" stroke="#6D4C41" stroke-width="1.16901266" stroke-linecap="round" stroke-linejoin="round" points="18.1713323 87.2426127 16.6869284 91.0270177 12.6694131 91.6327899 10.1363017 88.454157 11.6207056 84.6700557 15.6382209 84.0642835"></polygon>
            <polygon id="Stroke-49" stroke="#6D4C41" stroke-width="1.16901266" stroke-linecap="round" stroke-linejoin="round" points="35.5130198 99.9239392 35.8166409 103.977813 32.4595017 106.267838 28.7990448 104.503686 28.4954237 100.449813 31.852563 98.1597873"></polygon>
            <polygon id="Stroke-51" stroke="#6D4C41" stroke-width="1.16901266" stroke-linecap="round" stroke-linejoin="round" points="56.6363393 103.82081 58.6675649 107.341519 56.6360357 110.861924 52.5732808 110.861924 50.5417515 107.341215 52.5732808 103.82081"></polygon>
            <polygon id="Stroke-53" stroke="#6D4C41" stroke-width="1.16901266" stroke-linecap="round" stroke-linejoin="round" points="77.3576036 98.161519 80.7144393 100.451848 80.4105145 104.505722 76.7500577 106.269266 73.393222 103.979241 73.6968432 99.9253671"></polygon>
            <polygon id="Stroke-55" stroke="#6D4C41" stroke-width="1.16901266" stroke-linecap="round" stroke-linejoin="round" points="93.5728565 84.0669873 97.5903719 84.6730633 99.0744721 88.4574684 96.5410571 91.6357975 92.5235418 91.0294177 91.0394415 87.2453165"></polygon>
            <polygon id="Stroke-57" stroke="#6D4C41" stroke-width="1.16901266" stroke-linecap="round" stroke-linejoin="round" points="102.070545 64.3285975 105.952949 63.1304203 108.931169 65.8958886 108.026682 69.8592304 104.144581 71.0571038 101.166058 68.2919392"></polygon>
            <polygon id="Stroke-59" stroke="#6D4C41" stroke-width="1.16901266" stroke-linecap="round" stroke-linejoin="round" points="101.167545 42.8558582 104.146069 40.0909975 108.028473 41.2894785 108.93205 45.2528203 105.95383 48.017681 102.071426 46.8192"></polygon>
            <polygon id="Stroke-61" stroke="#6D4C41" stroke-width="1.16901266" stroke-linecap="round" stroke-linejoin="round" points="91.0427813 23.9014481 92.5274889 20.1173468 96.5450042 19.5115747 99.077812 22.6902076 97.5934081 26.4743089 93.5758928 27.0797772"></polygon>
            <polygon id="Stroke-63" stroke="#6D4C41" stroke-width="1.16901266" stroke-linecap="round" stroke-linejoin="round" points="73.7015493 11.2195443 73.3982318 7.16567089 76.755371 4.87594937 80.4158279 6.64010127 80.7191454 10.6939747 77.3620061 12.9836962"></polygon>
            <polygon id="Stroke-65" stroke="#6D4C41" stroke-width="1.16901266" stroke-linecap="round" stroke-linejoin="round" points="52.5783816 7.3219443 50.547156 3.80123544 52.5789889 0.28083038 56.6417437 0.28083038 58.6729694 3.80184304 56.6414401 7.3222481"></polygon>
            <polygon id="Stroke-67" stroke="#6D4C41" stroke-width="1.16901266" stroke-linecap="round" stroke-linejoin="round" points="31.8569655 12.9804759 28.5001298 10.6901468 28.8040546 6.63627342 32.464815 4.87272911 35.8216507 7.16305823 35.5177259 11.2169316"></polygon>
            <polygon id="Stroke-69" stroke="#6D4C41" stroke-width="1.16901266" stroke-linecap="round" stroke-linejoin="round" points="15.6412571 27.0745519 11.6237418 26.4681722 10.1396415 22.6837671 12.6733602 19.5057418 16.6905719 20.1121215 18.1746721 23.8965266"></polygon>
            <polygon id="Stroke-71" stroke="#6D4C41" stroke-width="1.16901266" stroke-linecap="round" stroke-linejoin="round" points="7.14283983 46.812638 3.26043593 48.0105114 0.282215877 45.245043 1.18670334 41.2820051 5.06910724 40.0841316 8.0473273 42.8492962"></polygon>
            <polygon id="Stroke-73" stroke="#6D4C41" stroke-width="1.16901266" stroke-linecap="round" stroke-linejoin="round" points="8.0450805 68.2854076 5.06655682 71.0502684 1.18415292 69.8514835 0.280576323 65.8881418 3.2591 63.123281 7.14120028 64.3220658"></polygon>
            <polygon id="Stroke-75" stroke="#6D4C41" stroke-width="1.16901266" stroke-linecap="round" stroke-linejoin="round" points="18.1691159 87.2400911 16.6844084 91.0241924 12.666893 91.6296608 10.1340852 88.4510278 11.6187928 84.6669266 15.6363081 84.0614582"></polygon>
            <path d="M63.0765694,55.5713013 C63.0765694,50.8870481 59.2879844,47.0962633 54.6064496,47.0962633 C49.9246111,47.0962633 46.1363298,50.8870481 46.1363298,55.5713013 C46.1363298,60.2558582 49.9246111,64.0463392 54.6064496,64.0463392 C59.2879844,64.0463392 63.0765694,60.2558582 63.0765694,55.5713013" id="Fill-77" fill="#6D4C41"></path>
            <path d="M41.5860504,96.6919291 L45.0974292,86.6423089 L64.6897997,86.4524354 L68.3945852,96.4324861 L41.5860504,96.6919291 Z M57.6682565,67.5389165 L62.7526967,81.2344101 L46.9334265,81.3872203 L51.7518944,67.5960304 L57.6682565,67.5389165 Z M76.9369669,119.443322 L81.5243791,119.398967 L57.2304348,54.7043848 L56.2527747,54.7138025 L52.9193178,54.7463089 L51.9416577,54.7554228 L28.9031869,119.908132 L33.4899919,119.863777 L39.7503568,101.946714 L70.3316883,101.650815 L76.9369669,119.443322 Z" id="Fill-79" fill="#563931"></path>
            <path d="M59.5429958,55.5713013 C59.5429958,52.8413772 57.3350627,50.6318582 54.6064192,50.6318582 C51.8777758,50.6318582 49.6698426,52.8413772 49.6698426,55.5713013 C49.6698426,58.3015291 51.8777758,60.5107443 54.6064192,60.5107443 C57.3350627,60.5107443 59.5429958,58.3015291 59.5429958,55.5713013" id="Fill-81" fill="#E0F2F1"></path>
        </g>
    </g>
</svg>