<?xml version="1.0" encoding="UTF-8"?>
<svg width="120px" height="120px" viewBox="0 0 120 120" version="1.1" xmlns="http://www.w3.org/2000/svg" xmlns:xlink="http://www.w3.org/1999/xlink">
    <!-- Generator: Sketch 51.1 (57501) - http://www.bohemiancoding.com/sketch -->
    <title>Sand bucket1</title>
    <desc>Created with Sketch.</desc>
    <defs></defs>
    <g id="Sand-bucket1" stroke="none" stroke-width="1" fill="none" fill-rule="evenodd">
        <g id="Group-3" transform="translate(5.000000, 0.000000)">
            <path d="M83.9333333,0.92627451 L92.6596078,4.67529412 L92.6596078,12.2196078 L87.1168627,9.83843137 L89.0682353,20.5796078 L92.6596078,18.2290196 L92.6596078,26.5113725 L88.4980392,29.2345098 C86.8964706,30.2823529 84.7490196,29.8329412 83.7019608,28.2313725 C83.387451,27.7513725 83.2078431,27.2211765 83.1537255,26.6870588 L79.1639216,4.71921569 C78.827451,2.84156863 80.0768627,1.04627451 81.9552941,0.709803922 C82.6470588,0.585098039 83.3286275,0.676862745 83.9286275,0.935686275 L83.9333333,0.92627451 Z M92.6596078,4.67529412 L106.870588,10.7811765 C108.62902,11.5372549 109.442353,13.5756863 108.686275,15.3341176 C108.396863,16.0086275 107.917647,16.5435294 107.339608,16.9043137 L92.6596078,26.5113725 L92.6596078,18.2290196 L98.2023529,14.6015686 L92.6596078,12.2196078 L92.6596078,4.67529412 Z" id="Fill-133" fill="#FFC108"></path>
            <path d="M83.4172549,24.9662745 C84.1733333,23.2078431 86.2117647,22.3952941 87.9701961,23.1505882 C89.7286275,23.9066667 90.5411765,25.945098 89.785098,27.7035294 L63.7733333,88.2439216 C63.0172549,90.0015686 60.9796078,90.814902 59.2203922,90.0588235 C57.4619608,89.3035294 56.6494118,87.265098 57.4054902,85.5058824 L83.4172549,24.9662745" id="Fill-134" fill="#FFC108"></path>
            <path d="M39.0305882,25.9756863 C45.4964706,25.9756863 51.3827451,28.2133333 55.7905882,31.8729412 C57.5701961,31.507451 59.4219608,31.3129412 61.3247059,31.3129412 C74.9921569,31.3129412 86.0705882,41.3003922 86.0705882,53.6203922 C86.0705882,65.9411765 74.9921569,75.9286275 61.3247059,75.9286275 C54.8588235,75.9286275 48.9733333,73.6917647 44.5647059,70.0305882 C42.785098,70.3976471 40.932549,70.5913725 39.0305882,70.5913725 C25.3631373,70.5913725 14.2847059,60.6039216 14.2847059,48.2839216 C14.2847059,35.9631373 25.3631373,25.9756863 39.0305882,25.9756863" id="Fill-135" fill="#FACE8D"></path>
            <polygon id="Fill-136" fill="#95B341" points="7.32705882 57.5741176 95.3192157 57.5741176 95.3192157 39.5662745 7.32705882 39.5662745"></polygon>
            <polyline id="Fill-137" fill="#95B341" points="22.5411765 119.782745 80.1043137 119.782745 88.5427451 57.5741176 14.1035294 57.5741176 22.5411765 119.782745"></polyline>
            <polygon id="Fill-138" fill="#B6CF72" points="18.3278431 57.5741176 25.1552941 57.5741176 25.1552941 39.5662745 18.3278431 39.5662745"></polygon>
            <polyline id="Fill-139" fill="#B6CF72" points="28.507451 119.782745 33.8454902 119.782745 26.9764706 60.76 20.1482353 60.76 28.507451 119.782745"></polyline>
            <path d="M2.49568627,46.1152941 L12.1584314,46.1152941 C13.5090196,46.1152941 14.6141176,47.2196078 14.6141176,48.5701961 C14.6141176,49.9215686 13.5090196,51.0258824 12.1584314,51.0258824 L2.49568627,51.0258824 C1.14431373,51.0258824 0.04,49.9215686 0.04,48.5701961 C0.04,47.2196078 1.14431373,46.1152941 2.49568627,46.1152941" id="Fill-140" fill="#95B341"></path>
            <path d="M90.4878431,46.1152941 L100.150588,46.1152941 C101.501961,46.1152941 102.606275,47.2196078 102.606275,48.5701961 C102.606275,49.9215686 101.501961,51.0258824 100.150588,51.0258824 L90.4878431,51.0258824 C89.1372549,51.0258824 88.0321569,49.9215686 88.0321569,48.5701961 C88.0321569,47.2196078 89.1372549,46.1152941 90.4878431,46.1152941" id="Fill-141" fill="#95B341"></path>
            <path d="M100.119216,51.0258824 C100.119216,64.5003922 94.6572549,76.6996078 85.8266667,85.5301961 C76.9960784,94.3607843 64.7976471,99.8227451 51.3231373,99.8227451 C37.8486275,99.8227451 25.6501961,94.3607843 16.8196078,85.5301961 C7.98901961,76.6996078 2.52627451,64.5003922 2.52627451,51.0258824 L6.49098039,51.0258824 C6.49098039,63.4062745 11.5090196,74.6156863 19.6219608,82.7278431 C27.734902,90.84 38.9427451,95.8588235 51.3231373,95.8588235 C63.7027451,95.8588235 74.9113725,90.8407843 83.0243137,82.7278431 C91.1372549,74.6156863 96.1545098,63.4062745 96.1545098,51.0258824 L100.119216,51.0258824" id="Fill-142" fill="#FFC108"></path>
            <polyline id="Fill-143" fill="#7C992C" points="88.1105882 60.76 88.5427451 57.5741176 14.1035294 57.5741176 14.5356863 60.76 88.1105882 60.76"></polyline>
            <path d="M38.4909804,32.1505882 C43.0188235,32.1505882 46.7129412,30.9560784 46.7129412,29.4909804 C46.7129412,28.0258824 43.0188235,26.8313725 38.4909804,26.8313725 C33.9623529,26.8313725 30.2690196,28.0258824 30.2690196,29.4909804 C30.2690196,30.9560784 33.9623529,32.1505882 38.4909804,32.1505882" id="Fill-144" fill="#FFE3BA"></path>
            <path d="M62.7678431,37.4486275 C67.2964706,37.4486275 70.9898039,36.2541176 70.9898039,34.7898039 C70.9898039,33.3247059 67.2964706,32.1301961 62.7678431,32.1301961 C58.2392157,32.1301961 54.5458824,33.3247059 54.5458824,34.7898039 C54.5458824,36.2541176 58.2392157,37.4486275 62.7678431,37.4486275" id="Fill-145" fill="#FFE3BA"></path>
        </g>
    </g>
</svg>