<?xml version="1.0" encoding="UTF-8"?>
<svg width="120px" height="120px" viewBox="0 0 120 120" version="1.1" xmlns="http://www.w3.org/2000/svg" xmlns:xlink="http://www.w3.org/1999/xlink">
    <!-- Generator: Sketch 51.1 (57501) - http://www.bohemiancoding.com/sketch -->
    <title>Fire7</title>
    <desc>Created with Sketch.</desc>
    <defs>
        <polygon id="path-1" points="2.58463501e-05 0.486376812 65.7794211 0.486376812 65.7794211 119.017524 2.58463501e-05 119.017524"></polygon>
        <polygon id="path-3" points="0.0877063667 0.174144928 34.0037753 0.174144928 34.0037753 76.5217391 0.0877063667 76.5217391"></polygon>
    </defs>
    <g id="Fire7" stroke="none" stroke-width="1" fill="none" fill-rule="evenodd">
        <g id="Group" transform="translate(27.000000, 0.000000)">
            <g id="Group-3" transform="translate(0.000000, 0.093333)">
                <mask id="mask-2" fill="white">
                    <use xlink:href="#path-1"></use>
                </mask>
                <g id="Clip-2"></g>
                <path d="M8.25457368,109.11171 C1.89136316,100.47113 -1.01205789,89.3470725 0.315468421,78.6937391 C2.06678421,64.6415652 10.5888895,52.5372174 17.9270474,40.4305507 C25.2640474,28.3250435 31.8374158,14.3812754 29.1076789,0.486202899 C46.8228895,11.932 56.0055737,35.1824348 50.9009947,55.6647536 C55.9708368,51.9470725 58.2779421,45.6201159 60.3181526,39.6688116 C66.4266263,50.1963478 65.9032579,66.8983768 65.6404158,78.7331594 C65.4221526,88.5853333 63.2991526,98.7424348 57.3724684,106.609681 C46.7018895,120.773159 19.5029421,124.385333 8.25457368,109.11171" id="Fill-1" fill="#AF2312" mask="url(#mask-2)"></path>
            </g>
            <path d="M15.2711842,113.158319 C13.1371842,111.238319 11.3216053,108.943246 9.82965789,106.483536 C-2.67386842,85.8696232 11.1803421,65.1333913 22.6336579,47.880058 C29.0570789,38.2046957 35.8967632,29.0075942 36.5845526,16.938029 C46.2327105,30.5438261 45.5819737,51.4394783 46.9511842,67.3542609 C47.2221316,70.5084638 47.8445,74.2058551 50.6778684,75.6104928 C52.2966053,73.1136812 53.5633421,70.3878841 54.4288684,67.5397681 C60.3179211,77.4754203 61.9146579,89.8661449 58.7385526,100.973391 C54.3246579,116.408174 33.6556579,123.785565 19.7082368,116.302087 C18.1028158,115.440638 16.6230263,114.374551 15.2711842,113.158319" id="Fill-4" fill="#F46E0B"></path>
            <g id="Group-8" transform="translate(14.473684, 42.991884)">
                <mask id="mask-4" fill="white">
                    <use xlink:href="#path-3"></use>
                </mask>
                <g id="Clip-7"></g>
                <path d="M1.88221579,61.5602319 C-0.693521053,53.5625507 -0.489731579,44.6982029 2.45016316,36.8268986 C7.2479,23.9816812 18.9727421,13.810087 20.4212684,0.174144928 C24.7737947,11.4477681 25.6896895,24.0216812 23.0166895,35.806029 C21.9803737,40.3753043 20.4096895,44.904 20.4751105,49.5886377 C20.4837947,50.1996522 20.5370579,50.8564638 20.9237947,51.3306667 C21.9902158,52.6373333 24.1027947,51.3231304 24.9550053,49.8663188 C26.6576895,46.9561739 27.1005842,43.3353043 26.1493737,40.099942 C30.8127947,43.9445797 33.7364789,49.8251594 33.9877421,55.8645797 C34.3542158,64.6813913 28.4130579,75.6112464 18.7539,76.4808116 C10.7794789,77.1984928 4.07411053,68.3683478 1.88221579,61.5602319" id="Fill-6" fill="#FEE215" mask="url(#mask-4)"></path>
            </g>
        </g>
    </g>
</svg>