<?xml version="1.0" encoding="UTF-8"?>
<svg width="120px" height="120px" viewBox="0 0 120 120" version="1.1" xmlns="http://www.w3.org/2000/svg" xmlns:xlink="http://www.w3.org/1999/xlink">
    <!-- Generator: Sketch 51.1 (57501) - http://www.bohemiancoding.com/sketch -->
    <title>Branch4</title>
    <desc>Created with Sketch.</desc>
    <defs></defs>
    <g id="Branch4" stroke="none" stroke-width="1" fill="none" fill-rule="evenodd">
        <g id="Group" transform="translate(0.000000, 26.000000)">
            <path d="M119.89026,31.76418 C119.89026,31.76418 78.75546,20.73438 15.47226,48.94278 C15.47226,48.94278 85.65906,27.71538 119.89026,41.50278 L119.89026,31.76418 Z" id="Fill-1" fill="#9B7D73"></path>
            <path d="M87.7047,36.03978 C87.7047,36.03978 75.0483,41.12658 68.8641,50.66298 C68.8641,50.66298 74.0235,40.63458 83.5965,36.17778 L87.7047,36.03978 Z" id="Fill-4" fill="#9B7D73"></path>
            <path d="M72.02796,46.2594 C72.02796,46.2594 78.97176,60.3648 59.93196,66.9876 C59.93196,66.9876 54.59076,47.5272 72.02796,46.2594" id="Fill-6" fill="#B1C638"></path>
            <path d="M62.94413,60.2207097 C63.7500945,58.8081854 64.6004459,57.4213453 65.4780495,56.052193 C64.8140749,55.9795645 62.6465442,57.907912 62.34396,58.1577 C61.48716,58.8663 60.32496,59.7003 59.86956,60.7515 C59.81556,60.8781 59.45916,60.9399 59.53416,60.7695 C60.07476,59.5215 61.49136,58.5129 62.52636,57.7089 C63.31416,57.0981 64.53156,55.8939 65.59296,55.8237 C65.6038196,55.8229994 65.614588,55.8227946 65.6252661,55.8230767 C65.9152498,55.3728499 66.2080851,54.9244929 66.50316,54.47772 C67.1241471,53.5365225 67.7524495,52.5994704 68.3893534,51.6681789 C68.2326812,51.555786 68.0099989,51.6208435 67.64334,51.75384 C66.90234,52.02384 66.18354,52.36164 65.49834,52.75104 C63.94914,53.63544 62.29194,54.71304 61.41234,56.31444 C61.33614,56.45484 60.99714,56.45064 61.10634,56.25384 C62.09454,54.45324 64.04094,53.24124 65.80434,52.30584 C66.1423266,52.126108 68.0360126,51.0018822 68.6257026,51.3234308 C69.2473638,50.4188852 69.8773153,49.5199799 70.5167412,48.628202 C69.2226032,47.8556151 64.6896995,50.2392819 63.90174,50.79834 C63.79854,50.87214 63.47754,50.86794 63.67134,50.72874 C64.97394,49.80414 66.49494,49.17714 68.02854,48.74694 C68.7140199,48.5544654 69.960647,48.0742906 70.7429588,48.3135576 C71.0768341,47.8504315 71.4133123,47.3892825 71.75256,46.93032 C71.79936,46.86672 72.11856,46.77672 72.06396,46.85232 C71.6854559,47.3646142 71.3101569,47.8794725 70.9379882,48.396695 C71.4682282,48.7442382 71.4354903,50.5178943 71.48334,51.04074 C71.56914,51.98454 71.63334,52.92894 71.66994,53.87574 C71.67474,53.99154 71.33154,54.10854 71.32494,53.96874 C71.26314,52.36074 71.28534,50.57154 70.82274,49.02294 C70.7917108,48.9189939 70.7426991,48.8316447 70.6777828,48.7594107 C70.0350122,49.6581114 69.4015995,50.5637795 68.777154,51.475373 C69.4115413,52.3575339 69.332759,54.187844 69.42834,55.17804 C69.54894,56.43804 69.64794,57.70044 69.71934,58.96344 C69.72774,59.12124 69.37794,59.22204 69.36774,59.03964 C69.23874,56.77704 69.22734,54.31644 68.62734,52.12284 C68.5958887,52.0079983 68.5629247,51.9155798 68.5263128,51.8425851 C67.9045521,52.7553301 67.2916979,53.6738553 66.68736,54.59712 C66.4036186,55.0303035 66.1210584,55.4646168 65.8407363,55.9005113 C66.7166461,56.5309623 66.8629663,60.8111114 66.92916,61.5591 C66.94236,61.7019 66.59556,61.8111 66.57996,61.6407 C66.50496,60.8097 66.41376,59.9781 66.29976,59.1519 C66.2162838,58.5459874 66.2053636,56.7055472 65.6718583,56.1637442 C64.8248035,57.4873262 64.0002777,58.826279 63.2277417,60.1931864 C63.2746393,60.2015907 63.3179046,60.2183588 63.35652,60.24498 C63.93732,60.64458 63.96912,61.87938 64.04052,62.49978 C64.11012,63.10638 64.16352,63.71658 64.18752,64.32738 C64.19232,64.42878 63.85032,64.54818 63.84612,64.42578 C63.79872,63.27258 63.78912,61.88478 63.31872,60.81198 C63.2386783,60.6291 63.1602406,60.5235316 63.0657562,60.4815968 C62.9678517,60.6570235 62.8708324,60.8329225 62.77476,61.00932 C61.90776,62.59872 61.00296,64.26312 60.58956,66.04032 C60.56796,66.12852 60.24096,66.20292 60.25236,66.15372 C60.68556,64.29672 61.64376,62.54532 62.56476,60.89352 C62.6375783,60.7627975 62.7107953,60.6323031 62.7843977,60.5020306 C62.7133024,60.5312806 62.6334941,60.5752824 62.54232,60.63198 C62.15652,60.87078 61.78872,61.13838 61.42932,61.41558 C60.97032,61.77138 60.51852,62.13738 60.07872,62.51838 C60.00852,62.57958 59.65452,62.64378 59.79852,62.51838 C60.43992,61.96218 61.10112,61.41558 61.79892,60.92838 C61.9998401,60.788041 62.5217796,60.3469442 62.94413,60.2207097 Z" id="Combined-Shape" fill="#A1AF1E"></path>
            <path d="M85.88244,36.86154 C85.88244,36.86154 84.41304,43.79814 86.28264,49.52094 C86.28264,49.52094 83.69424,43.54434 83.69364,37.74294 L85.88244,36.86154 Z" id="Fill-18" fill="#9B7D73"></path>
            <path d="M84.88872,44.22534 C84.88872,44.22534 95.24892,47.69994 89.38752,60.20934 C89.38752,60.20934 77.13372,53.34774 84.88872,44.22534" id="Fill-20" fill="#B1C638"></path>
            <path d="M87.4684779,55.4477029 C87.1532317,54.3675126 86.8722377,53.2782562 86.6129444,52.1846609 C86.256475,52.4727419 86.1742584,54.4684144 86.15382,54.73752 C86.09382,55.50012 85.94982,56.47212 86.25462,57.20592 C86.29122,57.29412 86.15022,57.49812 86.10162,57.37872 C85.74042,56.50812 85.91982,55.32612 86.01702,54.43032 C86.09202,53.74872 86.07882,52.56852 86.55462,52.01712 C86.5594345,52.0115355 86.564448,52.006231 86.5696567,52.0012019 C86.4849937,51.640654 86.4026112,51.2796637 86.32206,50.9184 C86.1522321,50.1575976 85.988013,49.3952508 85.8307788,48.6315092 C85.6993456,48.6531856 85.6244286,48.7935264 85.51416,49.03722 C85.29216,49.52982 85.11516,50.04522 84.97956,50.56902 C84.67416,51.75462 84.41436,53.08722 84.78816,54.29502 C84.82116,54.40062 84.65616,54.56382 84.61056,54.41502 C84.18936,53.05722 84.52176,51.51822 84.90516,50.20302 C84.9780573,49.9504224 85.328774,48.4801028 85.7728467,48.3484844 C85.621601,47.6052469 85.477125,46.8607071 85.3406856,46.1150027 C84.3337661,46.371174 83.3401529,49.7412009 83.23944,50.39772 C83.22684,50.48352 83.06964,50.63832 83.09424,50.47572 C83.26104,49.39092 83.67984,48.34332 84.20304,47.38692 C84.4371584,46.9580782 84.7974394,46.1169641 85.2927956,45.8513729 C85.2228088,45.4632863 85.1550375,45.0748889 85.08966,44.6862 C85.08066,44.6328 85.18986,44.433 85.20126,44.4966 C85.2740973,44.930219 85.3497932,45.3635669 85.428193,45.7965688 C85.8565001,45.7074579 86.7238641,46.5858882 87.00684,46.81752 C87.51744,47.23392 88.01844,47.66232 88.50684,48.10512 C88.56744,48.15912 88.45944,48.38352 88.38744,48.31872 C87.55764,47.56692 86.67804,46.68552 85.68444,46.15752 C85.6177989,46.1221506 85.5507701,46.1036117 85.4836152,46.1001711 C85.6217573,46.850815 85.7679225,47.6003657 85.9213033,48.3484323 C86.6654487,48.4681279 87.5381766,49.3967929 88.07736,49.83222 C88.76256,50.38602 89.43816,50.95242 90.10176,51.53142 C90.18396,51.60462 90.06516,51.82362 89.96976,51.74022 C88.78236,50.70222 87.55176,49.51122 86.17116,48.73662 C86.0990531,48.6961428 86.0373221,48.667285 85.9834645,48.6496294 C86.1386977,49.3969515 86.3010317,50.1427384 86.46966,50.8866 C86.5488675,51.2357089 86.6292053,51.5848179 86.7114016,51.9336238 C87.4452568,51.8121046 89.6470194,53.8233929 90.05142,54.15552 C90.12882,54.21792 90.01602,54.44112 89.92362,54.36552 C89.47422,53.99712 89.01642,53.63772 88.55082,53.29092 C88.208874,53.0375846 87.2872463,52.1470295 86.761322,52.1444394 C87.0127834,53.2011139 87.2826616,54.254445 87.5912255,55.2959998 C87.6179186,55.2772604 87.64702,55.2643366 87.67878,55.25844 C88.15698,55.16964 88.78698,55.75524 89.12958,56.02224 C89.46618,56.28264 89.79498,56.55384 90.11058,56.83884 C90.16398,56.88624 90.05778,57.11124 89.99538,57.05424 C89.39838,56.51604 88.70298,55.84584 87.94338,55.55304 C87.8139183,55.5031301 87.7235031,55.4901272 87.6570022,55.5158833 C87.697152,55.6487969 87.7379572,55.7815083 87.77946,55.914 C88.15386,57.1104 88.54746,58.3614 89.23266,59.4276 C89.26626,59.481 89.14626,59.676 89.12706,59.6472 C88.41126,58.533 88.00026,57.213 87.62106,55.9608 C87.5909527,55.8614459 87.5611537,55.7620084 87.5316532,55.662491 C87.5118503,55.7114424 87.4952585,55.771865 87.47958,55.84404 C87.41358,56.14824 87.36978,56.45784 87.33498,56.76804 C87.29118,57.16524 87.25578,57.56364 87.23478,57.96384 C87.23118,58.02744 87.09258,58.23144 87.09918,58.10064 C87.13098,57.51684 87.17718,56.92824 87.27018,56.35164 C87.2967735,56.184668 87.3281184,55.7151845 87.4684779,55.4477029 Z" id="Combined-Shape" fill="#A1AF1E"></path>
            <path d="M75.8811,41.56692 C75.8811,41.56692 73.8201,41.09892 69.7197,41.86632 C69.7197,41.86632 73.5603,40.09632 77.0391,40.52232 L75.8811,41.56692 Z" id="Fill-32" fill="#9B7D73"></path>
            <path d="M71.39982,41.39382 C71.39982,41.39382 69.18402,46.68642 62.79582,43.03602 C62.79582,43.03602 66.86922,36.90042 71.39982,41.39382" id="Fill-34" fill="#B1C638"></path>
            <path d="M65.3800322,42.2421917 C65.9620146,42.1252492 66.5478961,42.0266625 67.1352252,41.9397305 C66.9968398,41.7397851 65.9452531,41.6062862 65.8044,41.583 C65.4036,41.517 64.8954,41.397 64.497,41.5236 C64.4496,41.5392 64.347,41.4558 64.4118,41.4354 C64.8846,41.2848 65.502,41.433 65.9712,41.5248 C66.3282,41.595 66.9516,41.6412 67.2252,41.9166 C67.2279992,41.9194229 67.2306398,41.9223399 67.2331246,41.9253489 C67.4265301,41.8971495 67.6200777,41.8701729 67.81368,41.84418 C68.2215693,41.789412 68.6301088,41.7375701 69.0391191,41.6894623 C69.0323956,41.6193915 68.9608502,41.5738509 68.83662,41.50512 C68.58462,41.36532 68.31882,41.24892 68.04762,41.15412 C67.43322,40.93992 66.73902,40.74252 66.08802,40.88412 C66.03102,40.89732 65.95062,40.80312 66.03102,40.78572 C66.76362,40.62552 67.56342,40.87032 68.24382,41.13132 C68.3743089,41.1810301 69.1371428,41.4323034 69.19043,41.6718393 C69.5884972,41.6259394 69.9869891,41.5836686 70.3857404,41.545771 C70.2877288,41.0042948 68.5446083,40.3286651 68.2026,40.24626 C68.157,40.23546 68.0808,40.14606 68.166,40.16646 C68.7324,40.30326 69.27,40.57086 69.756,40.88946 C69.9739335,41.0324965 70.4048672,41.2600988 70.5264469,41.5325818 C70.7339341,41.5134056 70.9414862,41.4954367 71.14908,41.47878 C71.17788,41.47638 71.27928,41.54238 71.24448,41.54538 C71.0129968,41.5642245 70.7815628,41.5845224 70.550213,41.606214 C70.5807286,41.8360598 70.085771,42.2518753 69.954,42.39006 C69.7146,42.64026 69.4698,42.88446 69.2184,43.12146 C69.1878,43.15086 69.0732,43.08366 69.1098,43.04886 C69.5376,42.64626 70.035,42.22326 70.3506,41.72466 C70.371727,41.691209 70.383987,41.6567919 70.3882846,41.6216247 C69.986849,41.6603933 69.5856916,41.7033171 69.1849951,41.7500831 C69.0944089,42.135688 68.5719193,42.5532471 68.32242,42.81732 C68.00502,43.15212 67.68162,43.48212 67.35102,43.80492 C67.30962,43.84452 67.19802,43.77312 67.24542,43.72632 C67.83762,43.14852 68.51202,42.55512 68.97102,41.86392 C68.9951001,41.8277998 69.0126323,41.7966211 69.0239458,41.7690886 C68.6237788,41.8168306 68.2240962,41.8683651 67.82508,41.92338 C67.6378897,41.9493235 67.450648,41.975832 67.2634931,42.0033092 C67.2998899,42.3956166 66.1578896,43.4621401 65.9676,43.6596 C65.9316,43.6974 65.8188,43.6284 65.8614,43.5834 C66.0726,43.3632 66.279,43.1388 66.4794,42.909 C66.6252626,42.7410026 67.1286818,42.2970531 67.1506996,42.0199913 C66.5834555,42.1045191 66.017264,42.1986957 65.4559736,42.3137708 C65.4648842,42.3286714 65.4706058,42.3445755 65.47248,42.36156 C65.50188,42.61716 65.16948,42.92196 65.01648,43.09056 C64.86648,43.25496 64.71168,43.41636 64.54908,43.56936 C64.52148,43.59456 64.40748,43.52976 64.43928,43.49856 C64.74588,43.20876 65.12508,42.87336 65.30808,42.48756 C65.3390005,42.4214103 65.3490446,42.3744242 65.3378051,42.3383258 C65.2660092,42.3534469 65.1942981,42.3689238 65.12268,42.38478 C64.47768,42.52758 63.80328,42.67758 63.21468,42.99018 C63.18528,43.00518 63.08628,42.93318 63.10248,42.92478 C63.71748,42.59838 64.42908,42.44238 65.10468,42.29898 C65.1579196,42.2877116 65.2111953,42.2766064 65.2645051,42.2656592 C65.2395154,42.2531267 65.2084605,42.2417034 65.17128,42.23016 C65.01228,42.18156 64.85088,42.14436 64.68828,42.11256 C64.48068,42.07116 64.27128,42.03456 64.06188,42.00516 C64.02708,42.00036 63.92508,41.91876 63.99348,41.92836 C64.30128,41.97096 64.60968,42.02196 64.91148,42.09696 C64.9976691,42.1187249 65.2439729,42.1565961 65.3800322,42.2421917 Z" id="Combined-Shape" fill="#A1AF1E"></path>
            <path d="M24.60276,45.78978 C24.60276,45.78978 22.88556,62.82078 0.00036,56.50878 C0.00036,56.50878 6.56616,35.73138 24.60276,45.78978" id="Fill-46" fill="#B1C638"></path>
            <path d="M7.10387012,52.4084941 C8.76247636,51.6667132 10.4493925,50.9760115 12.1525448,50.3186045 C11.5408932,49.8268697 8.21917899,50.1556681 7.76718,50.18406 C6.48738,50.26686 4.82838,50.26446 3.73758,50.90886 C3.60618,50.98746 3.21618,50.81346 3.39438,50.70966 C4.68978,49.94466 6.70638,49.95366 8.22078,49.90086 C9.37278,49.86186 11.31198,49.56966 12.40578,50.18826 C12.4170602,50.1946587 12.4279404,50.2014489 12.4384272,50.2086228 C12.9999208,49.9933236 13.5631021,49.7815278 14.12754,49.5726 C15.3153831,49.131603 16.5079402,48.6992214 17.7055703,48.2775788 C17.6189724,48.0766778 17.358929,47.9917726 16.91496,47.8749 C16.01616,47.6403 15.09936,47.4807 14.18376,47.3883 C12.11136,47.1825 9.81456,47.0799 7.96776,47.9439 C7.80636,48.0195 7.47336,47.7981 7.70136,47.6925 C9.77616,46.7217 12.44196,46.8897 14.75796,47.1873 C15.201678,47.2443898 17.762103,47.4569711 18.1490356,48.1220267 C19.3156526,47.7143433 20.487115,47.3170767 21.6637537,46.932184 C20.8532895,45.4132578 14.9127684,44.6292421 13.79244,44.62224 C13.64544,44.62224 13.32924,44.41224 13.60644,44.41344 C15.45864,44.42424 17.34684,44.84124 19.12704,45.44124 C19.9240142,45.7097123 21.4501176,46.081667 22.0793842,46.7968141 C22.6919435,46.5981754 23.3059132,46.4029456 23.92134,46.2114 C24.00654,46.185 24.37734,46.3098 24.27654,46.341 C23.5900224,46.5549211 22.905033,46.7732053 22.221642,46.9956078 C22.5349085,47.6459195 21.4222057,49.2069816 21.15024,49.70364 C20.66124,50.60004 20.14884,51.48324 19.60884,52.35084 C19.54284,52.45704 19.13124,52.34004 19.21044,52.21224 C20.12844,50.73864 21.24084,49.15764 21.72624,47.48004 C21.7588271,47.3674597 21.763481,47.2581353 21.7431646,47.1520792 C20.5592205,47.5411176 19.3801331,47.9423719 18.2062674,48.3545648 C18.2976764,49.5480071 17.1039562,51.1289741 16.59576,52.0731 C15.94776,53.2737 15.27636,54.4629 14.57856,55.6353 C14.49036,55.7811 14.08296,55.6467 14.18376,55.4775 C15.43476,53.3775 16.92156,51.1761 17.66436,48.8355 C17.7031205,48.7129061 17.7267346,48.6093423 17.7349155,48.5207604 C16.5630706,48.9356424 15.3964906,49.3612807 14.23554,49.7964 C13.6910014,50.0005865 13.1468994,50.2065447 12.6040041,50.4153479 C13.0868859,51.5386252 10.6249466,55.4494409 10.23438,56.15886 C10.16118,56.29506 9.75078,56.16906 9.83958,56.00766 C10.27158,55.21866 10.68738,54.41826 11.07798,53.60886 C11.3636304,53.0148435 12.4743508,51.3667798 12.2759665,50.5419289 C10.6316012,51.1785807 8.99975522,51.8433693 7.40189392,52.5661983 C7.44318132,52.6038102 7.47578093,52.6465582 7.49778,52.69512 C7.82958,53.42412 7.10838,54.54492 6.80178,55.14372 C6.50178,55.72992 6.18258,56.30772 5.83458,56.86812 C5.77698,56.96172 5.36598,56.84832 5.43618,56.73612 C6.09138,55.67772 6.92718,54.43392 7.11498,53.17632 C7.14716947,52.9618925 7.13385407,52.8173819 7.06585208,52.7193138 C6.86215275,52.812805 6.65903376,52.9072795 6.45654,53.0028 C4.63014,53.8638 2.72034,54.7668 1.22874,56.0862 C1.15434,56.151 0.78474,56.0076 0.82614,55.971 C2.38554,54.594 4.40154,53.6466 6.31854,52.7646 C6.47017485,52.6948758 6.62206514,52.6256072 6.77420149,52.5567803 C6.68630951,52.5373598 6.58095561,52.5254318 6.45678,52.51752 C5.92938,52.48332 5.40138,52.48512 4.87698,52.50252 C4.20618,52.52532 3.53478,52.56072 2.86878,52.61892 C2.76138,52.62852 2.37198,52.45812 2.58978,52.43892 C3.56478,52.35492 4.55178,52.29192 5.53938,52.30452 C5.82429771,52.3088765 6.60900734,52.2502846 7.10387012,52.4084941 Z" id="Combined-Shape" fill="#A1AF1E"></path>
            <path d="M111.93852,30.82464 C111.93852,30.82464 89.91012,26.54124 61.57632,12.73404 C61.57632,12.73404 74.52132,22.45164 100.26612,30.82464 L111.93852,30.82464 Z" id="Fill-58" fill="#9B7D73"></path>
            <path d="M68.05122,15.95766 C68.05122,15.95766 54.94242,25.44966 45.01602,5.31906 C45.01602,5.31906 63.81822,-3.10314 68.05122,15.95766" id="Fill-60" fill="#B1C638"></path>
            <path d="M52.3775412,7.75894594 C53.9441625,8.46395169 55.4918439,9.22101169 57.0266223,10.0105467 C56.9890829,9.26902347 54.669055,7.12972073 54.36474,6.82938 C53.50254,5.97678 52.46154,4.80378 51.31974,4.43898 C51.18294,4.39518 51.05934,4.00998 51.24534,4.07118 C52.60014,4.50438 53.86134,5.93538 54.85074,6.97158 C55.60254,7.76058 57.02754,8.94618 57.27834,10.10778 C57.2808992,10.1197387 57.2829336,10.131661 57.2844529,10.1435466 C57.7892653,10.4046563 58.2927159,10.669167 58.79502,10.93638 C59.8528626,11.4984279 60.9078602,12.0690922 61.9585467,12.6500185 C62.0463403,12.4626305 61.9426844,12.2256493 61.74594,11.83878 C61.34754,11.05638 60.88374,10.30818 60.37314,9.60318 C59.21574,8.01018 57.84414,6.32358 56.07414,5.56218 C55.91934,5.49618 55.86594,5.12178 56.08374,5.21658 C58.07394,6.07158 59.63094,8.05998 60.87594,9.88278 C61.1150155,10.2320676 62.5738195,12.1732314 62.3475933,12.8657061 C63.3687475,13.433379 64.3856498,14.0109574 65.3969501,14.5999569 C65.9603817,13.0727283 62.7797046,8.38417972 62.08056,7.58862 C61.98876,7.48422 61.93836,7.12962 62.11236,7.32582 C63.26796,8.64162 64.16136,10.23702 64.85616,11.87082 C65.166878,12.6031464 65.864154,13.9153097 65.7540089,14.8085291 C66.2791669,15.1162055 66.8027672,15.4270181 67.32462,15.74118 C67.39722,15.78498 67.54242,16.12518 67.45722,16.07358 C66.8744129,15.7231904 66.2895597,15.3766219 65.7028501,15.0337646 C65.4399587,15.6637184 63.6390303,15.8594103 63.11676,15.97962 C62.17656,16.19682 61.23096,16.39122 60.27816,16.55442 C60.16176,16.57482 59.98596,16.21062 60.12576,16.18602 C61.74336,15.90882 63.55956,15.70002 65.04936,14.98842 C65.1493376,14.9406609 65.2294623,14.8752261 65.2915871,14.7942151 C64.2727024,14.2026691 63.2483692,13.6222057 62.2195776,13.0522516 C61.4339476,13.8665815 59.5671796,14.0176778 58.58094,14.25258 C57.32514,14.54958 56.06334,14.82198 54.79674,15.06618 C54.63834,15.09558 54.47754,14.72298 54.65934,14.68818 C56.92974,14.25198 59.41854,13.91838 61.53834,12.97098 C61.6492976,12.9214197 61.7373088,12.8731036 61.8050513,12.8233014 C60.7756984,12.2564985 59.7420251,11.7001154 58.70502,11.15358 C58.218616,10.8974081 57.7312108,10.6426225 57.2425387,10.3904608 C56.7528345,11.4379166 52.4435077,12.1567125 51.69654,12.32718 C51.55434,12.36078 51.38454,11.99178 51.55494,11.95278 C52.38414,11.76258 53.20974,11.55258 54.02754,11.31978 C54.6267518,11.1488201 56.4894551,10.8972117 56.9466794,10.2382045 C55.4635741,9.47707921 53.9683326,8.74236456 52.4535553,8.06854256 C52.4529671,8.12130675 52.4433074,8.17116098 52.4229,8.21718 C52.1169,8.90958 50.8713,9.10458 50.2557,9.26478 C49.6533,9.42078 49.0443,9.55878 48.4299,9.66558 C48.3273,9.68358 48.1491,9.32118 48.2721,9.30138 C49.4319,9.09858 50.8359,8.90718 51.8421,8.24898 C52.0135833,8.13702194 52.1071118,8.03682659 52.1336104,7.92726672 C51.9396132,7.84224574 51.7452882,7.75825949 51.55062,7.67538 C49.79442,6.92658 47.95602,6.14538 46.08702,5.92038 C45.99402,5.90898 45.86322,5.55798 45.91482,5.56458 C47.86842,5.79978 49.80402,6.62838 51.63222,7.42818 C51.7767026,7.49138667 51.9210173,7.55505879 52.0651688,7.61918118 C52.0236992,7.54495857 51.9660021,7.46313746 51.8937,7.37058 C51.5865,6.97638 51.2529,6.60438 50.9121,6.24498 C50.4735,5.78538 50.0271,5.33358 49.5669,4.89978 C49.4925,4.83018 49.3677,4.44798 49.5183,4.59018 C50.1915,5.22498 50.8563,5.88318 51.4671,6.58878 C51.6435571,6.79225033 52.1781632,7.30989189 52.3775412,7.75894594 Z" id="Combined-Shape" fill="#A1AF1E"></path>
            <path d="M85.11606,25.03734 C85.11606,25.03734 80.19066,27.15054 72.12246,26.28714 C72.12246,26.28714 79.50606,25.96314 83.14206,23.89014 L85.11606,25.03734 Z" id="Fill-72" fill="#9B7D73"></path>
            <path d="M76.27134,26.12868 C76.27134,26.12868 73.00374,33.45348 63.74994,27.28068 C63.74994,27.28068 69.72594,19.00248 76.27134,26.12868" id="Fill-74" fill="#B1C638"></path>
            <path d="M67.5131067,26.5008009 C68.3602157,26.4143947 69.2122008,26.355126 70.0664512,26.313041 C69.8651318,26.0040406 68.3399946,25.662372 68.1351,25.60902 C67.5537,25.45722 66.8163,25.21242 66.2355,25.33902 C66.1659,25.35462 66.0171,25.21962 66.1125,25.19982 C66.8013,25.04922 67.6971,25.35042 68.3787,25.54962 C68.8965,25.70142 69.8025,25.85622 70.1979,26.29242 C70.2019509,26.2968873 70.20577,26.3014681 70.2093613,26.30616 C70.4909418,26.2929131 70.7727525,26.2814718 71.0547,26.27148 C71.6480211,26.2500613 72.2421548,26.233112 72.8369516,26.221649 C72.8281645,26.1193956 72.7249082,26.0433272 72.54432,25.926 C72.17952,25.6896 71.79492,25.4838 71.40072,25.308 C70.50912,24.9114 69.50172,24.5286 68.55372,24.6414 C68.47152,24.651 68.35452,24.504 68.47212,24.4908 C69.53832,24.363 70.69992,24.8304 71.68572,25.3032 C71.8750886,25.3936447 72.9831365,25.8648753 73.0575577,26.2176515 C73.636514,26.2078318 74.2160807,26.2033263 74.79612,26.2050719 C74.659212,25.4098872 72.1307812,24.1875693 71.63358,24.02004 C71.56818,23.99844 71.45838,23.85864 71.58138,23.90004 C72.40398,24.17664 73.18278,24.63984 73.88658,25.16844 C74.2017785,25.4054018 74.8258621,25.795486 75.0004957,26.205947 C75.3023134,26.2076257 75.6042546,26.2110261 75.9063,26.21628 C75.9477,26.21688 76.0941,26.32728 76.0449,26.32608 C75.7080872,26.3203631 75.3712744,26.3167915 75.0345367,26.3152753 C75.0783804,26.6505819 74.353927,27.1811481 74.16018,27.36264 C73.81038,27.68904 73.45278,28.00704 73.08498,28.31364 C73.03998,28.35084 72.87378,28.23864 72.92778,28.19304 C73.55298,27.67284 74.28018,27.13284 74.74338,26.45784 C74.77438,26.4125793 74.7925068,26.3646691 74.7990718,26.3145489 C74.2152392,26.3135728 73.6316846,26.3187136 73.048799,26.3295022 C72.9134779,26.874143 72.1501439,27.402008 71.78532,27.7476 C71.32032,28.1862 70.84692,28.6164 70.36392,29.0352 C70.30332,29.0868 70.14192,28.9674 70.21152,28.9068 C71.07672,28.1568 72.06192,27.3966 72.73632,26.4636 C72.7715843,26.4148491 72.7973369,26.3723102 72.8140433,26.3341522 C72.231745,26.3464405 71.6501672,26.3643058 71.0697,26.38728 C70.7973909,26.398078 70.5250562,26.4097233 70.2528604,26.4228054 C70.3025293,26.9935886 68.632691,28.3712855 68.3547,28.62942 C68.3019,28.67922 68.1381,28.56282 68.2005,28.50402 C68.5095,28.21662 68.8119,27.92202 69.1047,27.61902 C69.3188118,27.3969571 70.0554565,26.8265389 70.0887986,26.4308701 C69.2636364,26.4723604 68.440056,26.5281499 67.6226474,26.6146734 C67.6354816,26.6374064 67.643714,26.6611417 67.6464,26.6859 C67.6866,27.0591 67.2012,27.4521 66.9768,27.6729 C66.7566,27.8895 66.5298,28.1001 66.2928,28.2981 C66.2538,28.3317 66.087,28.2201 66.1344,28.1811 C66.5814,27.8061 67.1364,27.3759 67.4052,26.8443 C67.4508659,26.7534756 67.4660664,26.6871093 67.4501213,26.633408 C67.3457382,26.6450327 67.2414612,26.6571786 67.1373,26.66988 C66.1983,26.78448 65.2161,26.90568 64.3581,27.27288 C64.3155,27.29148 64.1721,27.17328 64.1961,27.16308 C65.0925,26.77908 66.1287,26.65428 67.1115,26.54388 C67.1890928,26.5351397 67.2667301,26.5266411 67.3444099,26.5183767 C67.3081786,26.4968149 67.2630755,26.4760376 67.209,26.4543 C66.9798,26.3613 66.7446,26.2851 66.5082,26.2149 C66.2064,26.1267 65.9028,26.0439 65.598,25.9719 C65.5488,25.9605 65.4006,25.8273 65.5002,25.8507 C65.9466,25.9563 66.3948,26.0733 66.8316,26.2245 C66.9579681,26.268511 67.3159896,26.3577766 67.5131067,26.5008009 Z" id="Combined-Shape" fill="#A1AF1E"></path>
            <path d="M47.63184,37.1595 C47.63184,37.1595 37.33404,36.3987 30.04644,29.6397 C30.04644,29.6397 35.35824,37.4835 43.20144,38.4765 L47.63184,37.1595 Z" id="Fill-86" fill="#9B7D73"></path>
            <path d="M32.75082,32.32848 C32.75082,32.32848 25.62762,33.72648 24.96522,24.4414761 C24.96522,24.4414761 34.28382,24.40188 32.75082,32.32848" id="Fill-88" fill="#B1C638"></path>
            <path d="M27.6195465,26.5978193 C28.1524883,27.1273444 28.6686528,27.6738933 29.1735994,28.2302718 C29.2867866,27.9433564 28.6865695,26.7442536 28.6116,26.57898 C28.3992,26.11218 28.167,25.49358 27.7536,25.16418 C27.7038,25.12518 27.7188,24.95838 27.786,25.01238 C28.2774,25.40358 28.5564,26.15658 28.7898,26.71458 C28.9674,27.13938 29.3574,27.82638 29.2614,28.30818 C29.2603726,28.313256 29.2591223,28.3182256 29.2576534,28.3230904 C29.4234784,28.5066039 29.5881212,28.6911393 29.75178,28.87644 C30.0969657,29.2664579 30.4392249,29.6593208 30.7778097,30.0553581 C30.8464087,29.9990516 30.8437104,29.8918638 30.82866,29.71236 C30.79866,29.34936 30.73326,28.98816 30.64266,28.63596 C30.43446,27.83916 30.15366,26.97096 29.54526,26.38596 C29.49246,26.33496 29.53446,26.18436 29.60946,26.25696 C30.29346,26.91396 30.59946,27.92736 30.80406,28.82616 C30.8435957,28.9978581 31.117061,29.9760813 30.9027866,30.2018841 C31.2312623,30.5879059 31.5561737,30.9769698 31.8768321,31.3693789 C32.3769329,30.8856807 31.8597312,28.5779037 31.70568,28.15938 C31.68468,28.10418 31.72548,27.96198 31.76388,28.06518 C32.01888,28.75698 32.11608,29.51058 32.12328,30.24558 C32.1266578,30.5749193 32.1907823,31.1884469 31.9900222,31.5082546 C32.1563473,31.7128534 32.3214989,31.9183677 32.48538,32.12484 C32.50758,32.15244 32.50938,32.30604 32.48178,32.27244 C32.2990742,32.0423255 32.1148414,31.8132946 31.9291814,31.5853423 C31.7093886,31.7790179 30.9241344,31.5517603 30.68508,31.50978 C30.25428,31.43478 29.82468,31.35018 29.39868,31.25238 C29.34648,31.24038 29.33628,31.07298 29.39868,31.08738 C30.12348,31.25298 30.91788,31.47798 31.66428,31.45818 C31.7141169,31.4568553 31.7587646,31.445603 31.7986285,31.4255135 C31.4753978,31.0309387 31.1479423,30.6396067 30.816783,30.2514913 C30.3475952,30.4281461 29.5404797,30.1727209 29.08746,30.09576 C28.51206,29.99796 27.93726,29.89056 27.36486,29.77056 C27.29406,29.75496 27.29106,29.58696 27.37386,29.60436 C28.39806,29.81976 29.49606,30.11016 30.54606,30.10656 C30.6011478,30.1064494 30.6463649,30.1029534 30.6833243,30.0954854 C30.351268,29.7083342 30.0155797,29.3243943 29.67678,28.94364 C29.5177146,28.7650795 29.3579811,28.5868787 29.1972656,28.4094632 C28.8105526,28.7242983 26.8848954,28.2746572 26.544,28.21398 C26.4792,28.20318 26.472,28.03518 26.5494,28.04898 C26.9292,28.11558 27.3102,28.17438 27.693,28.22298 C27.9723663,28.2587525 28.7944676,28.4750785 29.1005261,28.3029029 C28.6121349,27.7661274 28.1141437,27.2373503 27.5978134,26.7284211 C27.5884381,26.7483112 27.5757681,26.7655691 27.55926,26.77956 C27.31146,26.99076 26.75706,26.85576 26.47206,26.81316 C26.19366,26.77176 25.91466,26.72196 25.63926,26.65896 C25.59366,26.64876 25.58166,26.48256 25.63686,26.49516 C26.15646,26.61216 26.77686,26.77476 27.31086,26.69496 C27.4020141,26.6810337 27.458654,26.6586658 27.4888513,26.6215882 C27.422477,26.5568589 27.3557927,26.4924679 27.28878,26.42844 C26.68458,25.85064 26.05158,25.24704 25.30938,24.84924 C25.27218,24.82884 25.27818,24.67464 25.29858,24.68484 C26.07438,25.10124 26.73978,25.73964 27.36618,26.34864 C27.4155128,26.396654 27.4646974,26.4448204 27.513738,26.4931337 C27.5092099,26.4581045 27.4991861,26.4174889 27.48486,26.37036 C27.42486,26.16996 27.34986,25.97316 27.26946,25.77996 C27.16566,25.53216 27.05706,25.28616 26.94006,25.04496 C26.92146,25.00656 26.93526,24.84096 26.97426,24.92016 C27.14466,25.27296 27.30906,25.63356 27.44226,26.00316 C27.4801184,26.1093375 27.6136028,26.3944588 27.6195465,26.5978193 Z" id="Combined-Shape" fill="#A1AF1E"></path>
            <path d="M95.9055,26.90034 C95.9055,26.90034 87.2799,19.25934 86.7573,8.13714 C86.7573,8.13714 85.9923,19.02114 91.8183,25.56474 L95.9055,26.90034 Z" id="Fill-100" fill="#9B7D73"></path>
            <path d="M87.53364,14.26812 C87.53364,14.26812 78.80964,10.51392 84.95664,0.00012 C84.95664,0.00012 95.04624,6.84312 87.53364,14.26812" id="Fill-102" fill="#B1C638"></path>
            <path d="M86.2285188,4.2904888 C86.4122152,5.2552423 86.5656959,6.22617302 86.70005,7.19936714 C87.0338744,6.9707135 87.2722236,5.23590185 87.31308,5.00268 C87.42948,4.34088 87.63528,3.50208 87.43248,2.84028 C87.40788,2.76108 87.54708,2.59248 87.58008,2.70048 C87.82068,3.48588 87.56568,4.50468 87.40608,5.28048 C87.28428,5.87028 87.19668,6.90108 86.73708,7.34988 C86.7323533,7.35447574 86.7274731,7.35880658 86.7224425,7.36287699 C86.7659969,7.68346953 86.807544,8.00428381 86.84748,8.32518 C86.9316323,9.00104891 87.0106622,9.67797481 87.0834623,10.3557183 C87.1995153,10.3460045 87.2761643,10.2285066 87.39264,10.02348 C87.62664,9.60948 87.82404,9.17148 87.98604,8.72328 C88.35024,7.70928 88.68924,6.56448 88.46484,5.48388 C88.44444,5.38908 88.60164,5.25828 88.62864,5.39148 C88.88124,6.60588 88.46304,7.92648 88.02084,9.04848 C87.9355248,9.26318061 87.5070407,10.5222849 87.1101434,10.606819 C87.1794268,11.2660974 87.2426893,11.9261211 87.2989125,12.5866698 C88.1965635,12.4342488 89.3432356,9.56001098 89.48598,8.99442 C89.50398,8.92002 89.65338,8.79582 89.61918,8.93562 C89.38338,9.87102 88.93098,10.75602 88.39578,11.55522 C88.1553899,11.9138348 87.7718483,12.623197 87.3185096,12.8204022 C87.3468848,13.1640701 87.3733227,13.507873 87.39768,13.85178 C87.40128,13.89858 87.28908,14.06538 87.28548,14.00898 C87.2582493,13.6254398 87.2285555,13.2419735 87.1965134,12.858636 C86.8159591,12.9064074 86.1351205,12.0799096 85.90758,11.85762 C85.49838,11.45862 85.09758,11.04942 84.70998,10.62942 C84.66258,10.57782 84.77418,10.38882 84.83118,10.45062 C85.49178,11.16522 86.18358,11.99562 87.00378,12.52542 C87.0587797,12.5609489 87.1155216,12.5818237 87.173634,12.5895367 C87.116157,11.9246936 87.0516949,11.2602766 86.9808469,10.5965724 C86.3431982,10.4399581 85.6609524,9.56845407 85.22844,9.15168 C84.67884,8.61948 84.13824,8.07888 83.60904,7.52688 C83.54424,7.45728 83.66544,7.27428 83.74164,7.35348 C84.68844,8.34228 85.65864,9.46788 86.79564,10.23948 C86.8551295,10.2800612 86.9065086,10.3097196 86.9519365,10.3290074 C86.8794177,9.6658191 86.8005994,9.00338126 86.71608,8.34198 C86.6763807,8.03195327 86.6357066,7.72182393 86.5933895,7.41181475 C85.9438015,7.46656992 84.1965735,5.55745659 83.87328,5.23968 C83.81088,5.17968 83.92728,4.99308 84.00108,5.06508 C84.36108,5.41728 84.73008,5.76348 85.10688,6.09828 C85.3824565,6.34374197 86.1105613,7.18540046 86.5676131,7.22450179 C86.4371808,6.28445611 86.2903969,5.34592841 86.1086178,4.41513324 C86.0839601,4.42952926 86.0577064,4.43871289 86.02974,4.44162 C85.60614,4.48542 85.10694,3.93042 84.83094,3.67362 C84.55974,3.42282 84.29634,3.16362 84.04554,2.89242 C84.00354,2.84742 84.11394,2.65902 84.16374,2.71302 C84.63834,3.22362 85.18734,3.85782 85.82394,4.16622 C85.9323517,4.21853056 86.0097907,4.23614312 86.0696607,4.21847492 C86.0457421,4.09943832 86.0212283,3.98053566 85.99608,3.86178 C85.77108,2.79138 85.53408,1.67238 85.02648,0.69378 C85.00128,0.64458 85.12248,0.48258 85.13628,0.50958 C85.66608,1.53198 85.91268,2.71278 86.13888,3.83238 C86.1566993,3.92101148 86.1742477,4.00970058 86.1915336,4.09844424 C86.2127083,4.05719798 86.2321036,4.00581918 86.25174,3.94422 C86.33454,3.68322 86.39874,3.41562 86.45454,3.14742 C86.52594,2.80362 86.59014,2.45802 86.64234,2.11062 C86.65074,2.05482 86.78814,1.88682 86.77134,2.00022 C86.69514,2.50782 86.60634,3.01842 86.47674,3.51582 C86.4388419,3.65913574 86.3724804,4.06652889 86.2285188,4.2904888 Z" id="Combined-Shape" fill="#A1AF1E"></path>
            <path d="M93.14574,23.89212 C93.14574,23.89212 93.49434,20.40252 95.90574,17.51832 C95.90574,17.51832 93.52194,19.47012 92.03574,22.42212 L93.14574,23.89212 Z" id="Fill-114" fill="#9B7D73"></path>
            <path d="M94.15704,19.59078 C94.15704,19.59078 90.57744,13.40298 99.01404,9.81798 C99.01404,9.81798 102.02964,18.48438 94.15704,19.59078" id="Fill-116" fill="#B1C638"></path>
            <path d="M97.8538708,12.9796708 C97.5312872,13.6449782 97.1874326,14.3001474 96.831117,14.9479521 C97.1340712,14.9608626 98.0584971,14.0201828 98.1885,13.89756 C98.5557,13.55016 99.0573,13.13556 99.2325,12.64476 C99.2529,12.58656 99.4131,12.54756 99.3837,12.62736 C99.1767,13.20936 98.5647,13.71036 98.1189,14.10636 C97.7811,14.40756 97.2651,14.99136 96.7863,15.05556 C96.7811944,15.0562329 96.7761172,15.0566596 96.7710683,15.0568447 C96.6532785,15.2699053 96.5341908,15.482184 96.41412,15.69378 C96.1608179,16.1396536 95.9041831,16.5839015 95.6435277,17.0258357 C95.7179249,17.072324 95.8169338,17.0359165 95.9796,16.96452 C96.3072,16.81932 96.6234,16.64352 96.9222,16.44612 C97.5984,15.99792 98.3172,15.45852 98.667,14.70552 C98.6976,14.63952 98.8518,14.63112 98.808,14.72352 C98.4144,15.57072 97.569,16.17972 96.7968,16.65792 C96.6492925,16.7494764 95.8241058,17.316952 95.5467566,17.189487 C95.2922503,17.6187741 95.0338597,18.0457917 94.7709516,18.4699067 C95.381659,18.7809751 97.3655153,17.5612268 97.70592,17.28384 C97.75032,17.24724 97.89672,17.23944 97.81272,17.30784 C97.24992,17.76744 96.57852,18.09804 95.89692,18.34044 C95.5912711,18.4485147 95.0400679,18.7044502 94.6777865,18.6197702 C94.5404372,18.8400758 94.4018448,19.0595755 94.26192,19.27818 C94.24332,19.30818 94.10052,19.35858 94.12392,19.32258 C94.2797411,19.07876 94.4340603,18.8338813 94.5869174,18.5880337 C94.3358784,18.4462425 94.2962643,17.6407592 94.25892,17.40444 C94.19112,16.97964 94.13292,16.55244 94.08792,16.12464 C94.08192,16.07184 94.23492,16.00884 94.24152,16.07124 C94.31892,16.79964 94.36332,17.61144 94.62012,18.30024 C94.637378,18.3464411 94.6622866,18.3845649 94.6939485,18.4153472 C94.9580235,17.9879412 95.2177237,17.5576806 95.4732578,17.1250345 C95.1588478,16.7438385 95.1386237,15.9114894 95.0652,15.46512 C94.9722,14.89752 94.8882,14.32812 94.818,13.75632 C94.809,13.68552 94.965,13.62912 94.9752,13.71132 C95.1024,14.73372 95.1828,15.84972 95.5224,16.82712 C95.5399641,16.8778363 95.5575282,16.9184903 95.5761285,16.9503534 C95.8303205,16.517458 96.0803816,16.0822442 96.32652,15.64518 C96.4419908,15.43994 96.556922,15.2342118 96.6708085,15.0278306 C96.2542412,14.766791 96.057477,12.8310271 96.0051,12.49416 C95.9943,12.42996 96.1485,12.36996 96.1611,12.44616 C96.2193,12.82116 96.2871,13.19496 96.3639,13.56756 C96.4200964,13.8394597 96.481126,14.6730881 96.7395444,14.9029507 C97.0832522,14.2768526 97.416436,13.6444554 97.7250482,13.0011752 C97.7037511,12.9987761 97.683839,12.9925217 97.66572,12.98172 C97.38972,12.81792 97.33872,12.25812 97.28652,11.97972 C97.23612,11.70672 97.19352,11.43132 97.16412,11.15472 C97.15872,11.10852 97.31052,11.04432 97.31652,11.09952 C97.37352,11.62092 97.41972,12.25092 97.66512,12.72312 C97.707037,12.8031662 97.7458721,12.8485683 97.7899888,12.8648721 C97.8289935,12.7824278 97.8675803,12.6998003 97.90572,12.61698 C98.25072,11.86938 98.61072,11.08698 98.74452,10.26798 C98.75112,10.22718 98.89752,10.18338 98.89392,10.20618 C98.75352,11.06178 98.37252,11.88558 98.00532,12.66318 C97.9762729,12.7247083 97.9470339,12.786147 97.9176098,12.8474983 C97.9491027,12.8321329 97.984114,12.8097914 98.02392,12.78132 C98.19072,12.66132 98.34972,12.52872 98.50332,12.39132 C98.70192,12.21612 98.89632,12.03612 99.08292,11.85012 C99.11292,11.82012 99.27252,11.78052 99.21012,11.84112 C98.93652,12.11352 98.65272,12.38172 98.35152,12.62352 C98.2644651,12.6931639 98.0413121,12.9090106 97.8538708,12.9796708 Z" id="Combined-Shape" fill="#A1AF1E"></path>
        </g>
    </g>
</svg>