<?xml version="1.0" encoding="UTF-8"?>
<svg width="120px" height="120px" viewBox="0 0 120 120" version="1.1" xmlns="http://www.w3.org/2000/svg" xmlns:xlink="http://www.w3.org/1999/xlink">
    <!-- Generator: Sketch 51.1 (57501) - http://www.bohemiancoding.com/sketch -->
    <title>Flower83</title>
    <desc>Created with Sketch.</desc>
    <defs></defs>
    <g id="Flower83" stroke="none" stroke-width="1" fill="none" fill-rule="evenodd">
        <g id="Group" transform="translate(1.000000, 2.000000)">
            <path d="M60.3938526,62.4432 C60.3774316,62.4217263 60.3584842,62.3977263 60.3408,62.3787789 C60.3648,62.2890947 60.3824842,62.2221474 60.4039579,62.1375158 C60.8069053,62.3017263 61.2591158,62.4848842 61.7466947,62.6794105 C61.2692211,62.5960421 60.8195368,62.5164632 60.3938526,62.4432 M59.7029053,55.7421474 C59.3340632,57.6343579 59.0498526,59.1728842 58.8654316,60.1909895 C58.8553263,60.2465684 58.8477474,60.2857263 58.8389053,60.3387789 C58.8363789,60.3400421 58.8351158,60.3413053 58.8313263,60.3425684 C58.7631158,60.3198316 58.6936421,60.2970947 58.6229053,60.2743579 C58.6330105,60.2288842 58.6418526,60.1947789 58.6544842,60.1467789 C58.9020632,59.1413053 59.2683789,57.6204632 59.7029053,55.7421474 M88.3942737,59.6693053 C104.460379,55.6638316 119.858274,48.3160421 116.383326,42.9248842 C112.151747,36.3627789 86.2469053,47.2600421 70.5622737,54.6621474 C85.2325895,45.4688842 108.704589,29.3560421 105.435537,22.2078316 C102.767747,16.3733053 88.2768,25.3909895 76.2426947,36.7669895 C82.6671158,21.7177263 86.0283789,5.40909474 79.7100632,4.90130526 C72.7424842,4.34172632 66.3395368,26.0869895 62.4565895,42.8149895 C65.7294316,25.9581474 68.7433263,3.49035789 62.1521684,1.16109474 C56.1786947,-0.949642105 52.6001684,15.3059368 52.3311158,31.6638316 C45.9786947,16.3745684 36.4216421,2.23983158 31.6077474,6.48025263 C28.9904842,8.78551579 30.4683789,14.8537263 33.7589053,22.1446737 C29.3921684,16.9960421 25.3260632,13.8406737 22.4245895,14.9699368 C16.5193263,17.2676211 24.4178526,31.9278316 34.8881684,44.5000421 C20.0965895,37.0549895 3.62753684,32.5745684 2.74458947,38.9295158 C2.24943158,42.5093053 7.72269474,46.2810947 15.3938526,49.7610947 C7.84648421,48.9552 1.98922105,49.4541474 0.631326316,52.5349895 C-1.95435789,58.4061474 14.4085895,63.2415158 30.9029053,64.6739368 C15.3925895,69.8756211 0.978694737,78.2023579 4.79722105,83.2575158 C7.03301053,86.2196211 13.8704842,84.8743579 22.0431158,81.7404632 C15.3180632,86.7804632 10.7997474,91.6322526 12.0528,95.0162526 C14.2544842,100.959411 29.0410105,93.3008842 41.7824842,83.0364632 C34.0974316,97.7042526 29.3492211,114.098779 35.6877474,115.084042 C41.5601684,115.996042 48.2182737,100.798989 53.2241684,86.1501474 C51.8245895,101.566989 51.7109053,118.158568 57.4456421,119.718568 C63.6351158,121.402358 65.9820632,104.501305 64.9450105,87.9779368 C72.3951158,102.542147 82.7744842,115.556463 87.2069053,111.026779 C88.4561684,109.750989 88.5445895,107.556884 87.8384842,104.791832 C91.1656421,107.545516 94.1012211,108.897095 96.2056421,107.892884 C101.995958,105.129095 92.7433263,90.7872 81.1728,78.9400421 C96.3243789,85.1194105 112.6848,88.2128842 113.090274,81.8882526 C113.211537,79.9922526 111.679326,78.1644632 109.054484,76.4352 C113.101642,76.5905684 116.0448,75.8958316 117.095747,73.9215158 C120.073011,68.3282526 104.528589,62.3686737 88.3942737,59.6693053" id="Fill-1" fill="#91B3C1"></path>
            <path d="M46.1946948,63.8821006 C34.2703511,63.1107784 14.4756494,61.1954333 16.2760421,57.0389053 C18.8377263,51.1235368 54.8718316,60.4052211 54.8718316,60.4052211 C54.8718316,60.4052211 16.2760421,50.4250105 21.9122526,46.7605895 C26.9084028,43.5126999 50.0297669,54.8241641 55.207796,57.4305172 C55.0524061,57.1794398 54.8783508,56.8973384 54.6876424,56.5869705 C48.8229519,51.3787696 28.5223995,33.0035439 32.3295158,31.5142737 C34.5747068,30.6359984 41.3466988,37.4069346 47.4932153,44.3156531 C42.6324509,35.5659721 37.8516203,25.7331672 39.6726316,23.7545684 C42.801073,20.3542395 55.4838162,51.1060883 57.5941071,56.3005511 C57.6909598,56.4210476 57.7830631,56.5358189 57.8702183,56.6445751 C57.6281604,52.2829742 55.5563596,13.2689538 59.1214737,17.1394105 C62.1520425,20.4284392 60.9917005,45.2681671 60.414831,54.9560121 C62.9400649,47.2855039 67.9162291,31.7245208 70.9250526,32.5091368 C74.8522105,33.5335579 61.5322105,58.1259789 61.5322105,58.1259789 C61.5322105,58.1259789 80.6589474,33.7040842 81.5128421,37.9735579 C82.3667368,42.2430316 62.5566316,61.8257684 62.5566316,61.0855579 C62.5566316,60.3453474 91.5890526,47.4358737 91.2467368,51.9276632 C90.9056842,56.4181895 58.9124211,62.5659789 58.9124211,62.5659789 C58.9124211,62.5659789 97.0534737,63.2480842 96.7124211,66.8354526 C96.3701053,70.4215579 58.9124211,64.6148211 58.9124211,64.6148211 C58.9124211,64.6148211 100.813895,72.8127158 96.7136842,76.3988211 C93.4685279,79.2370831 72.252384,71.3775752 63.5447199,67.9761138 C71.2618415,74.9753483 91.8137528,94.0063699 90.5645053,97.0616842 C89.0272421,100.819579 58.9122947,66.6145263 58.9122947,66.6145263 C58.9122947,66.6145263 82.0255579,95.7606316 79.2920842,97.3509474 C76.5598737,98.9412632 56.5792421,66.6145263 56.5792421,66.6145263 C56.5792421,66.6145263 64.0937684,100.649053 60.1653474,103.722316 C56.2381895,106.796842 55.0432421,65.5635789 55.0432421,65.5635789 C55.0432421,65.5635789 48.8941895,96.5501053 44.9670316,96.5501053 C41.3514572,96.5501053 51.913135,69.2570223 53.6182602,64.9099579 C53.4640034,64.9721028 53.3044035,65.0362887 53.1396929,65.1024025 C49.2921448,69.2835271 30.9434282,88.9182315 27.8891368,86.4738947 C25.1608808,84.2914917 44.3338688,70.8252132 52.1607751,65.4939023 C42.5244258,69.3338612 19.9351181,77.9286853 18.3266526,74.7851368 C16.9790321,72.1530007 34.2205678,67.0619959 46.1946948,63.8821006 Z M57.7675445,64.2571694 C57.5661434,63.8905038 57.4041743,63.4876691 57.3171446,63.0555519 C57.0765632,63.3184103 56.7999059,63.5552628 56.4817887,63.7537274 L57.7675445,64.2571694 Z M58.8860194,58.8084632 C58.8779942,58.9123795 58.8678219,59.0236315 58.8549639,59.1409809 C58.8739207,59.1226596 58.8930726,59.1043256 58.9124211,59.0859789 C58.9503701,59.0499423 59.0028239,58.9555329 59.0687412,58.8084632 L58.8860194,58.8084632 Z" id="Combined-Shape" fill="#79A1AD"></path>
            <path d="M65.0363368,61.1800421 C65.0363368,65.1261474 61.8380211,68.3232 57.8931789,68.3232 C53.9483368,68.3232 50.7500211,65.1261474 50.7500211,61.1800421 C50.7500211,57.2352 53.9483368,54.0368842 57.8931789,54.0368842 C61.8380211,54.0368842 65.0363368,57.2352 65.0363368,61.1800421" id="Fill-57" fill="#253B47"></path>
        </g>
    </g>
</svg>