<?xml version="1.0" encoding="UTF-8"?>
<svg width="120px" height="120px" viewBox="0 0 120 120" version="1.1" xmlns="http://www.w3.org/2000/svg" xmlns:xlink="http://www.w3.org/1999/xlink">
    <!-- Generator: Sketch 51.1 (57501) - http://www.bohemiancoding.com/sketch -->
    <title>Cable Car1</title>
    <desc>Created with Sketch.</desc>
    <defs></defs>
    <g id="Cable-Car1" stroke="none" stroke-width="1" fill="none" fill-rule="evenodd">
        <g id="Group-5" transform="translate(15.000000, 5.000000)">
            <path d="M49.740338,19.7291111 L41.5228732,19.7291111 C39.600338,19.7291111 38.0416056,21.2838621 38.0416056,23.2014866 L38.0416056,27.2997241 L53.2216056,27.2997241 L53.2216056,23.2014866 C53.2216056,21.2838621 51.6628732,19.7291111 49.740338,19.7291111" id="Fill-189" fill="#716558"></path>
            <polygon id="Fill-190" fill="#716558" points="43.9161972 23.773908 48.4909859 23.773908 48.4909859 4.48471264 43.9161972 4.48471264"></polygon>
            <polygon id="Fill-191" fill="#A5988B" points="17.0915493 4.89942529 75.3156338 4.89942529 75.3156338 0.336321839 17.0915493 0.336321839"></polygon>
            <polygon id="Fill-192" fill="#716558" points="17.0915493 4.89942529 75.3156338 4.89942529 75.3156338 1.8308046 17.0915493 1.8308046"></polygon>
            <path d="M60.5665775,24.1885364 L30.0730563,24.1885364 C27.8129155,24.1885364 25.9808028,26.0159693 25.9808028,28.2699157 L25.9808028,33.3147433 L64.6584085,33.3147433 L64.6584085,28.2699157 C64.6584085,26.0159693 62.8262958,24.1885364 60.5665775,24.1885364" id="Fill-193" fill="#716558"></path>
            <path d="M60.5665775,24.1885364 L30.0730563,24.1885364 C27.8129155,24.1885364 25.9808028,26.0159693 25.9808028,28.2699157 L25.9808028,30.1365441 C25.9808028,27.8825977 27.8129155,26.0555862 30.0730563,26.0555862 L60.5665775,26.0555862 C62.8262958,26.0555862 64.6584085,27.8825977 64.6584085,30.1365441 L64.6584085,28.2699157 C64.6584085,26.0159693 62.8262958,24.1885364 60.5665775,24.1885364" id="Fill-194" fill="#A5988B"></path>
            <path d="M89.8467042,69.8025019 L89.849662,69.7856437 L89.8437465,69.7856437 L85.3310704,44.7566398 C84.3038873,36.3684023 74.6645915,29.9399349 63.1154366,29.9399349 L27.1576901,29.9399349 C15.6085352,29.9399349 5.96966197,36.3684023 4.94205634,44.7566398 L0.429380282,69.7856437 L0.423464789,69.7856437 L0.426422535,69.8025019 L0.423464789,69.8193602 L0.429380282,69.8193602 L4.94205634,94.848364 C5.96966197,103.236602 15.6085352,109.66549 27.1576901,109.66549 L63.1154366,109.66549 C74.6645915,109.66549 84.3038873,103.236602 85.3310704,94.848364 L89.8437465,69.8193602 L89.849662,69.8193602 L89.8467042,69.8025019 Z" id="Fill-195" fill="#E8EAE9"></path>
            <path d="M1.28949296,74.589567 L4.94188732,94.8481111 C5.96949296,103.23677 15.6083662,109.665659 27.1579437,109.665659 L63.1156901,109.665659 C74.6648451,109.665659 84.3037183,103.23677 85.3313239,94.8481111 L88.9837183,74.589567 L1.28949296,74.589567 Z" id="Fill-196" fill="#E8EAE9"></path>
            <polygon id="Fill-197" fill="#DD312C" points="88.1423239 79.2564751 88.9835915 74.5896935 1.2893662 74.5896935 2.1306338 79.2564751"></polygon>
            <path d="M2.97219718,83.9229195 L4.94205634,94.8483218 C5.96966197,103.236559 15.6085352,109.665448 27.1576901,109.665448 L63.1154366,109.665448 C74.6645915,109.665448 84.3038873,103.236559 85.3310704,94.8483218 L87.3009296,83.9229195 L2.97219718,83.9229195 Z" id="Fill-198" fill="#DD312C"></path>
            <polygon id="Fill-199" fill="#F4B200" points="28.3407042 106.012184 43.8452113 106.012184 43.8452113 34.7663218 28.3407042 34.7663218"></polygon>
            <polygon id="Fill-200" fill="#F4B200" points="45.5150704 106.012184 61.0195775 106.012184 61.0195775 34.7663218 45.5150704 34.7663218"></polygon>
            <polygon id="Fill-201" fill="#716558" points="51.338662 34.7665326 45.5148592 34.7665326 28.340493 34.7665326 28.340493 106.012395 45.5148592 106.012395 51.338662 106.012395 61.0193662 106.012395 61.0193662 34.7665326"></polygon>
            <polygon id="Fill-202" fill="#193B51" points="30.8361972 103.523487 58.5240845 103.523487 58.5240845 37.2554406 30.8361972 37.2554406"></polygon>
            <path d="M64.0099859,68.9896398 L84.9466056,68.9896398 L80.7030845,45.4530115 L80.6870282,45.3232031 C79.9873099,39.6112107 72.5992817,34.9300996 64.0099859,34.6232797 L64.0099859,68.9896398 Z" id="Fill-203" fill="#193B51"></path>
            <path d="M25.6465352,34.6525287 C21.540338,34.889387 17.700338,36.0842146 14.7049859,38.0823372 C11.7332958,40.064023 9.9155493,42.6353257 9.58597183,45.3229502 L9.56991549,45.4536015 L5.32723944,68.9898084 L25.6465352,68.9898084 L25.6465352,34.6525287 Z" id="Fill-204" fill="#193B51"></path>
            <polygon id="Fill-205" fill="#E8EAE9" points="43.656338 103.523487 45.9435211 103.523487 45.9435211 37.2554406 43.656338 37.2554406"></polygon>
            <path d="M0.464375834,94.9749891 C0.459323202,94.9526733 0.455533729,94.9303575 0.450481097,94.9076207 L0.335112676,95.1151996 L0.464375834,94.9749891 Z" id="Fill-206" fill="#FFFFFF"></path>
        </g>
    </g>
</svg>