<?xml version="1.0" encoding="UTF-8"?>
<svg width="120px" height="120px" viewBox="0 0 120 120" version="1.1" xmlns="http://www.w3.org/2000/svg" xmlns:xlink="http://www.w3.org/1999/xlink">
    <!-- Generator: Sketch 48.2 (47327) - http://www.bohemiancoding.com/sketch -->
    <title>Flower8</title>
    <desc>Created with Sketch.</desc>
    <defs></defs>
    <g id="ALL" stroke="none" stroke-width="1" fill="none" fill-rule="evenodd">
        <g id="Flower8">
            <g id="Group-175" transform="translate(28.000000, 0.000000)">
                <path d="M43.5376552,38.4364138 C41.0226207,42.8292414 37.8446897,46.742069 34.2463448,50.2948966 C32.7666207,51.7564138 31.0171034,53.0871724 29.5208276,54.6008276 C29.5853793,54.3467586 29.649931,54.1051034 29.7136552,53.8857931 C30.7026207,50.4968276 31.9001379,47.2204138 33.0074483,43.8678621 C36.0670345,34.6005517 38.0565517,25.0228966 40.6121379,15.6132414 C40.8877241,14.5986207 39.3351724,14.0871724 39.0587586,15.1034483 C36.7001379,23.7906207 34.7784828,32.5911724 32.1401379,41.2013793 C31.1097931,44.5605517 29.7343448,47.8071724 28.7801379,51.1862069 C28.401931,52.5211034 28.0328276,53.8576552 27.614069,55.1801379 C27.5222069,55.473931 27.4121379,55.9282759 27.2706207,56.3983448 C26.8874483,51.9566897 26.4413793,47.5191724 25.9415172,43.0891034 C26.0962759,43.0377931 26.2386207,42.926069 26.3395862,42.7266207 C31.3597241,32.8948966 30.5743448,21.3492414 31.065931,10.641931 C31.1147586,9.58841379 29.481931,9.51062069 29.4331034,10.5624828 C28.9828966,20.4215172 29.7434483,31.2157241 25.6328276,40.44 C24.3533793,29.6118621 22.7288276,18.8209655 20.7318621,8.08551724 C20.5373793,7.04937931 18.9434483,7.40855172 19.1354483,8.44386207 C21.153931,19.2827586 22.7942069,30.177931 24.0761379,41.1103448 C17.9428966,36.1175172 13.5244138,28.6965517 11.5125517,21.1382069 C11.2435862,20.1235862 9.64634483,20.4744828 9.9177931,21.4957241 C12.1655172,29.9437241 17.2526897,38.1434483 24.336,43.3721379 C24.8151724,47.6242759 25.2355862,51.8830345 25.6063448,56.1451034 C23.5166897,53.6151724 20.5729655,51.6173793 18.1241379,49.5864828 C15.1531034,47.1211034 10.0121379,43.4168276 10.0642759,39.0753103 C10.0766897,38.0251034 8.44468966,37.9423448 8.43227586,38.9975172 C8.38096552,43.2413793 12.2077241,46.5897931 15.12,49.1586207 C18.4535172,52.0982069 23.0797241,54.7382069 25.3878621,58.6311724 C25.5062069,58.8306207 25.670069,58.9456552 25.8463448,59.0002759 C27.4543448,78.7506207 27.9177931,98.5936552 27.3004138,118.430897 C27.2673103,119.482759 28.9001379,119.563862 28.9332414,118.509517 C29.5365517,99.0827586 29.1095172,79.6452414 27.5892414,60.2946207 C27.7944828,60.2242759 27.9707586,60.0662069 28.0535172,59.7914483 C29.2493793,55.8521379 33.6372414,53.2435862 36.4137931,50.4355862 C39.6976552,47.1144828 42.5875862,43.3795862 44.9081379,39.3277241 C45.4311724,38.4157241 44.0623448,37.5211034 43.5376552,38.4364138" id="Fill-107" fill="#5E763F"></path>
                <path d="M27.542069,59.7401379 C27.24,59.3064828 27.1108966,58.7528276 27.2582069,58.0493793 C27.7051034,55.9117241 31.7097931,55.6982069 33.4262069,55.3771034 C35.9710345,54.8995862 38.3784828,54.8482759 40.7412414,53.8452414 C43.2314483,60.1034483 36.3964138,61.4805517 31.8852414,61.3001379 C30.0595862,61.2264828 27.6413793,59.4902069 25.9828966,60.1034483 C24.206069,60.7605517 23.3884138,63.7572414 22.3845517,65.1773793 C20.7244138,67.526069 19.3547586,70.5773793 16.2562759,70.9547586 C12.753931,71.3817931 7.13875862,67.0502069 8.85434483,62.9023448 C9.67365517,60.9211034 11.8444138,61.2107586 13.5873103,60.9922759 C15.2962759,60.7771034 16.8182069,59.7235862 18.1464828,58.881931 C20.6598621,57.2896552 24.4593103,55.5037241 26.2576552,58.8322759 L27.542069,59.7401379" id="Fill-108" fill="#5E763F"></path>
                <path d="M27.8209655,77.3122759 C28.0493793,73.377931 29.385931,70.2173793 32.7558621,67.8173793 C35.1028966,66.1448276 39.2217931,64.2686897 38.8601379,68.8452414 C38.6085517,72.0215172 34.7354483,73.3431724 32.8162759,75.5197241 C31.8529655,76.6137931 29.7873103,81.1183448 28.0717241,80.5961379 L27.8209655,77.3122759" id="Fill-109" fill="#5E763F"></path>
                <path d="M22.5666207,74.4943448 C20.2891034,74.04 16.992,73.4913103 15.1721379,75.4775172 C14.457931,76.2562759 14.0755862,77.6366897 14.1252414,78.9004138 C14.1533793,79.598069 14.3122759,80.2609655 14.6193103,80.7657931 C16.041931,83.1095172 19.3034483,83.4446897 21.7531034,83.7831724 C23.5688276,84.0347586 26.0987586,85.0187586 27.4187586,83.2841379 C28.4755862,81.8954483 28.1296552,79.5335172 27.5329655,78.0438621 C26.5812414,75.6736552 24.9442759,74.9677241 22.5666207,74.4943448" id="Fill-110" fill="#5E763F"></path>
                <path d="M28.6071724,98.3445517 C28.5914483,98.6822069 28.5906207,98.702069 28.6038621,98.4049655 C28.8107586,94.1445517 29.217931,90.0198621 32.030069,86.5315862 C34.3613793,83.6424828 39.4493793,81.7588966 38.5406897,87.4022069 C37.8430345,91.7354483 34.2173793,95.2063448 32.256,99.0182069 C31.7081379,100.084138 31.0146207,101.778207 29.9354483,102.414621 C29.2444138,102.822621 27.8342069,102.849103 27.9633103,103.22069 L28.6071724,98.3445517" id="Fill-111" fill="#5E763F"></path>
                <path d="M13.6104828,42.8449655 C13.2935172,42.5428966 12.9062069,42.3012414 12.4857931,42.12 C14.0846897,41.193931 15.2284138,39.2532414 15.2648276,37.5368276 C15.3235862,34.8049655 12.4584828,33.4295172 10.2885517,35.1202759 C10.0171034,35.3313103 9.72082759,35.678069 9.43448276,36.110069 C9.13986207,36.5561379 8.856,37.0948966 8.62427586,37.6667586 C8.27255172,35.5986207 6.7977931,33.7473103 4.53186207,35.174069 C3.23006897,35.9950345 2.65737931,37.8686897 3.27641379,39.273931 C3.32524138,39.384 3.38151724,39.4915862 3.44275862,39.5958621 C1.61296552,39.9169655 -0.213517241,40.9324138 0.191172414,43.0882759 C0.512275862,44.8030345 2.63006897,45.4452414 4.60717241,45.3873103 C4.272,46.4664828 4.31337931,47.6722759 4.92744828,48.5271724 C5.14675862,48.8317241 5.43972414,49.0932414 5.8137931,49.2877241 C7.48055172,50.1508966 8.87751724,48.950069 9.46344828,47.366069 C10.7230345,48.8383448 12.6074483,49.5095172 14.0598621,47.4521379 C15.0173793,46.0948966 14.8104828,43.9895172 13.6104828,42.8449655" id="Fill-112" fill="#FACD66"></path>
                <path d="M9.39227586,41.1757241 C9.32772414,41.1037241 9.26234483,41.0325517 9.1977931,40.9622069 C8.52413793,40.2198621 7.34234483,40.1635862 6.60082759,40.8364138 C5.85931034,41.510069 5.8022069,42.6918621 6.47586207,43.4333793 C6.53958621,43.5045517 6.60496552,43.5757241 6.67034483,43.6477241 C7.34317241,44.3892414 8.52496552,44.4463448 9.26648276,43.7726897 C10.008,43.0998621 10.0651034,41.9172414 9.39227586,41.1757241" id="Fill-113" fill="#592D24"></path>
                <path d="M42.5668966,18.4212414 C42.662069,17.9942069 42.6703448,17.5365517 42.6082759,17.0838621 C44.2245517,17.976 47.0375172,18.5478621 47.9710345,17.102069 C50.7682759,12.7737931 47.6035862,11.3255172 44.5307586,11.4289655 C46.065931,9.99972414 46.6452414,7.78924138 44.462069,6.68772414 C43.0874483,5.99503448 41.1873103,6.47006897 40.3017931,7.72468966 C40.2322759,7.824 40.1693793,7.92744828 40.1114483,8.03255172 C38.8924138,6.6297931 37.0824828,5.58868966 35.4430345,7.04606897 C34.1387586,8.20551724 34.68,10.3506207 35.7484138,12.0157241 C34.6510345,12.2846897 33.638069,12.9409655 33.2226207,13.9084138 C33.0736552,14.2535172 33.0008276,14.6383448 33.0281379,15.0595862 C33.1464828,16.9324138 34.8951724,17.5117241 36.5553103,17.1964138 C35.9428966,19.0344828 36.3384828,20.9966897 38.8493793,21.1804138 C40.5062069,21.302069 42.2044138,20.0391724 42.5668966,18.4212414" id="Fill-114" fill="#FACD66"></path>
                <path d="M41.8228966,13.9456552 C41.8510345,13.8537931 41.8791724,13.7611034 41.9064828,13.6684138 C42.1944828,12.710069 41.6350345,11.6673103 40.6758621,11.3793103 C39.7158621,11.0904828 38.673931,11.6507586 38.3851034,12.609931 C38.3577931,12.7017931 38.3296552,12.7936552 38.3015172,12.8871724 C38.0143448,13.8455172 38.5737931,14.8882759 39.5329655,15.1762759 C40.4929655,15.4651034 41.5348966,14.9048276 41.8228966,13.9456552" id="Fill-115" fill="#592D24"></path>
                <path d="M50.2948966,37.5293793 C49.8968276,37.3464828 49.4507586,37.2455172 48.9947586,37.2107586 C50.2038621,35.8146207 51.345931,33.182069 50.1252414,31.968 C46.4714483,28.334069 44.3983448,31.1296552 43.8628966,34.1577931 C42.7828966,32.3594483 40.7412414,31.3332414 39.2093793,33.2416552 C38.246069,34.4416552 38.3172414,36.4005517 39.3616552,37.526069 C39.4435862,37.6146207 39.5321379,37.6973793 39.6231724,37.776 C37.9986207,38.6772414 36.6033103,40.2331034 37.6891034,42.1382069 C38.5522759,43.6551724 40.7644138,43.5691034 42.614069,42.8706207 C42.6496552,44.0002759 43.0824828,45.1266207 43.9423448,45.734069 C44.2485517,45.9508966 44.6102069,46.1015172 45.0264828,46.1635862 C46.8844138,46.4358621 47.8129655,44.8444138 47.8493793,43.1561379 C49.521931,44.1368276 51.5222069,44.1558621 52.2231724,41.7368276 C52.6849655,40.142069 51.8035862,38.2187586 50.2948966,37.5293793" id="Fill-116" fill="#FACD66"></path>
                <path d="M45.7613793,37.3282759 C45.6777931,37.2811034 45.5933793,37.2355862 45.5089655,37.1892414 C44.6308966,36.7084138 43.4946207,37.0394483 43.0129655,37.9183448 C42.5321379,38.7972414 42.8631724,39.9318621 43.742069,40.4135172 C43.8273103,40.4598621 43.9125517,40.5062069 43.9961379,40.5525517 C44.8750345,41.0333793 46.0104828,40.7015172 46.4921379,39.8242759 C46.9729655,38.9445517 46.6402759,37.8091034 45.7613793,37.3282759" id="Fill-117" fill="#592D24"></path>
                <path d="M24.1191724,7.84137931 C23.7202759,7.65848276 23.2742069,7.55751724 22.8182069,7.52275862 C24.0273103,6.12744828 25.1693793,3.49406897 23.9486897,2.28082759 C20.2948966,-1.35310345 18.2226207,1.44248276 17.6855172,4.47062069 C16.6055172,2.67144828 14.5638621,1.64606897 13.0328276,3.55365517 C12.0703448,4.75448276 12.1415172,6.71255172 13.1851034,7.83889655 C13.2662069,7.92744828 13.3555862,8.0102069 13.4466207,8.08882759 C11.8212414,8.99006897 10.4267586,10.5451034 11.5125517,12.4502069 C12.3757241,13.9663448 14.5878621,13.881931 16.4375172,13.1826207 C16.4731034,14.3122759 16.905931,15.4394483 17.7657931,16.0468966 C18.0728276,16.2637241 18.4336552,16.4143448 18.8507586,16.4764138 C20.7086897,16.7486897 21.6372414,15.1572414 21.6728276,13.4681379 C23.3453793,14.4488276 25.3448276,14.4678621 26.0466207,12.0496552 C26.5084138,10.4548966 25.6262069,8.53158621 24.1191724,7.84137931" id="Fill-118" fill="#EFB241"></path>
                <path d="M19.5856552,7.64027586 C19.5012414,7.59393103 19.4168276,7.54841379 19.3324138,7.50206897 C18.4543448,7.02124138 17.318069,7.35227586 16.8372414,8.23034483 C16.3555862,9.10924138 16.6874483,10.2446897 17.5663448,10.7263448 C17.6507586,10.7726897 17.7351724,10.8190345 17.8195862,10.8653793 C18.6976552,11.3453793 19.833931,11.0143448 20.3147586,10.1362759 C20.7964138,9.25737931 20.4645517,8.12193103 19.5856552,7.64027586" id="Fill-119" fill="#592D24"></path>
                <path d="M34.4151724,27.5611034 C34.0171034,27.3782069 33.5710345,27.2772414 33.1158621,27.2424828 C34.3241379,25.8463448 35.4653793,23.2137931 34.2463448,21.9997241 C30.5933793,18.3666207 28.5186207,21.1613793 27.9831724,24.1895172 C26.9031724,22.3911724 24.8606897,21.3649655 23.3296552,23.2733793 C22.3663448,24.4733793 22.4383448,26.4322759 23.481931,27.5577931 C23.5646897,27.6463448 23.6515862,27.7291034 23.7434483,27.8085517 C22.1197241,28.7089655 20.7235862,30.2648276 21.8102069,32.169931 C22.6725517,33.6868966 24.8838621,33.6016552 26.7351724,32.9023448 C26.7707586,34.0328276 27.201931,35.1583448 28.0617931,35.7657931 C28.3688276,35.9834483 28.7304828,36.134069 29.1484138,36.1953103 C31.0055172,36.4675862 31.934069,34.8761379 31.9704828,33.1878621 C33.6413793,34.1693793 35.6416552,34.1875862 36.3434483,31.7693793 C36.806069,30.1737931 35.9230345,28.2513103 34.4151724,27.5611034" id="Fill-120" fill="#EFB241"></path>
                <path d="M29.8816552,27.36 C29.7988966,27.3128276 29.7136552,27.2673103 29.630069,27.2209655 C28.7511724,26.7401379 27.6148966,27.0711724 27.134069,27.950069 C26.6515862,28.8289655 26.9834483,29.9635862 27.8631724,30.446069 C27.9484138,30.4915862 28.0328276,30.537931 28.1164138,30.5842759 C28.9953103,31.065931 30.1307586,30.7332414 30.6115862,29.856 C31.0932414,28.9771034 30.7613793,27.8408276 29.8816552,27.36" id="Fill-121" fill="#592D24"></path>
                <path d="M28.6038621,10.4846897 C27.6215172,10.1354483 26.6449655,8.56055172 26.4968276,7.59062069 C26.0184828,4.47393103 29.4206897,1.20496552 32.414069,3.01655172 C37.2471724,5.94124138 33.8830345,12.3691034 28.6038621,10.4846897" id="Fill-122" fill="#EFB241"></path>
                <path d="M4.87696552,21.8234483 C4.49710345,20.1682759 4.51696552,18.4965517 5.91310345,17.2692414 C7.42013793,15.9442759 10.3382069,15.0910345 12.1870345,16.1851034 C21.4468966,21.6678621 7.22813793,32.0697931 4.87696552,21.8234483" id="Fill-123" fill="#EFB241"></path>
                <path d="M33.1216552,42.1158621 C36.1555862,43.4333793 38.2253793,47.4670345 35.4885517,50.352 C31.2910345,54.7762759 23.5862069,47.2725517 27.8582069,43.0766897 C29.4728276,41.4902069 31.4449655,41.3884138 33.1216552,42.1158621" id="Fill-124" fill="#EFB241"></path>
            </g>
        </g>
    </g>
</svg>