<?xml version="1.0" encoding="UTF-8"?>
<svg width="120px" height="120px" viewBox="0 0 120 120" version="1.1" xmlns="http://www.w3.org/2000/svg" xmlns:xlink="http://www.w3.org/1999/xlink">
    <!-- Generator: Sketch 51.1 (57501) - http://www.bohemiancoding.com/sketch -->
    <title>Chef3</title>
    <desc>Created with Sketch.</desc>
    <defs>
        <polygon id="path-1" points="0.199373684 0.299053333 13.3734789 0.299053333 13.3734789 5.86666667 0.199373684 5.86666667"></polygon>
    </defs>
    <g id="Chef3" stroke="none" stroke-width="1" fill="none" fill-rule="evenodd">
        <g id="Group-89" transform="translate(28.000000, 0.000000)">
            <path d="M48.9539879,113.447419 C50.6761697,114.51 51.932897,116.747419 50.4531394,118.512581 C49.3399273,119.757097 47.7011394,118.810645 46.4521697,118.288065 C45.0771394,117.633871 43.5042909,117.190645 42.2572606,116.346774 C41.4504727,115.781613 40.5118061,115.108065 39.964897,114.273871 C39.7942303,114.010645 39.7127758,113.697097 39.772897,113.447419 L48.9539879,113.447419 Z" id="Fill-69" fill="#333433"></path>
            <path d="M29.3327515,113.447419 C27.6183273,114.51 26.3596606,116.747419 27.8336,118.512581 C28.9506909,119.757097 30.5914182,118.810645 31.8365091,118.288065 C33.219297,117.633871 34.7940848,117.190645 36.0391758,116.346774 C36.8401455,115.781613 37.7962667,115.108065 38.3334788,114.273871 C38.5002667,114.010645 38.5797818,113.697097 38.5177212,113.447419 L29.3327515,113.447419 Z" id="Fill-70" fill="#333433"></path>
            <polygon id="Fill-71" fill="#565657" points="51.0345697 88.4864516 49.1533576 113.514194 39.6464485 113.514194 39.2915394 95.4077419 39.0122667 95.4077419 38.6515394 113.514194 29.1446303 113.514194 27.2653576 88.4864516"></polygon>
            <path d="M55.952097,62.1522581 C59.4565818,66.6232258 60.8025212,80.0690323 60.8025212,80.0690323 C60.8025212,80.0690323 60.7947636,80.0477419 60.7947636,80.0090323 C61.2466424,80.6574194 61.564703,81.5032258 61.6636121,82.4477419 C61.904097,84.6967742 60.8219152,86.6516129 59.260703,86.8141935 C58.2347636,86.9303226 57.2534303,86.2470968 56.6308848,85.136129 C56.0490667,85.6122581 55.4769455,85.803871 55.0677333,85.5851613 C54.2997333,85.1767742 54.3889455,83.5025806 55.2694303,81.8419355 C55.6068848,81.2070968 56.0064,80.6709677 56.4175515,80.2664516 C56.4544,80.1929032 56.4815515,80.1290323 56.5261576,80.0593548 C56.5261576,80.0593548 54.9998545,70.3567742 53.3785212,68.0612903 C52.5581576,66.9096774 52.0364606,66.2612903 51.8483394,65.7483871 C51.6970667,65.3419355 51.5419152,64.5619355 51.472097,64.263871 C50.9504,61.9587097 48.0936727,56.7580645 48.0936727,56.7580645 C48.0936727,56.7580645 54.2454303,59.9748387 55.952097,62.1522581" id="Fill-72" fill="#FDDFBB"></path>
            <path d="M8.62060606,47.1807097 C9.7609697,46.6968387 11.1379394,47.1400645 12.2492121,48.2123226 C12.7573333,47.4555484 13.3604848,47.0336129 13.9132121,47.1400645 C14.9469091,47.3413548 15.4356364,49.3155484 15.0012121,51.5510323 C14.8402424,52.4045806 14.5648485,53.1749032 14.2157576,53.7884516 C14.1789091,54.0652258 14.1149091,54.3284516 14.0179394,54.582 L14.025697,54.582 L19.2795152,60.7407097 L30.4310303,56.7594194 C30.4310303,56.7594194 28.5362424,59.7594194 28.0766061,60.8549032 C27.7275152,61.6484516 27.062303,64.1761935 27.062303,64.1761935 C27.062303,64.1761935 18.9226667,67.4878065 16.6109091,66.6439355 C13.750303,65.6123226 10.4766061,56.3239355 10.4766061,56.3239355 C9.2470303,55.8865161 8.05624242,54.7136129 7.36775758,53.0916774 C6.29915152,50.5716774 6.85575758,47.9297419 8.62060606,47.1807097" id="Fill-73" fill="#FDDFBB"></path>
            <path d="M56.1179152,79.6105161 L60.8713697,79.6182581 C60.8713697,79.6182581 59.3334303,66.1743871 55.836703,61.7014839 C54.2851879,59.7311613 49.7916121,57.2034194 48.9809455,56.7582581 C46.9794909,55.4614839 40.9596121,55.2679355 40.9596121,55.2679355 L39.2723394,55.3240645 L39.1268848,55.3240645 L37.4590061,55.2679355 C37.4590061,55.2679355 31.4139152,55.4827742 29.4066424,56.7872903 L19.3101576,60.729871 L14.0097939,54.5808387 L9.44446061,56.826 C9.44446061,56.826 13.6587636,65.6576129 16.5193697,66.6892258 C18.7302788,67.4924516 25.3649455,64.8718065 25.9351273,64.6105161 C23.6990061,74.2647097 23.9996121,88.4866452 23.9996121,88.4866452 L23.9996121,90.6485806 L54.4131879,90.6485806 L54.4131879,88.4769677 C54.4131879,88.4769677 54.6032485,77.1040645 53.0110061,67.7034194 C53.0885818,67.8176129 53.1700364,67.9240645 53.2573091,68.0479355 C54.8825212,70.3414839 56.1179152,79.6105161 56.1179152,79.6105161" id="Fill-74" fill="#0771B7"></path>
            <path d="M4.48426667,84.3358065 C4.48426667,84.3358065 0.768387879,79.1932258 0.999175758,77.2306452 C3.25081212,76.6848387 3.19650909,74.5248387 3.19650909,74.5248387 C4.55408485,73.7119355 4.48426667,70.6480645 4.48426667,70.6480645 C5.57420606,69.9435484 5.77396364,67.7564516 5.77396364,67.7564516 L7.41275152,65.8306452 L4.48426667,84.3358065 Z" id="Fill-75" fill="#6CC5D8"></path>
            <path d="M5.63781818,84.1515484 C5.63781818,84.1515484 2.16436364,79.3360645 2.37381818,77.4934839 C4.48387879,76.9844516 4.43345455,74.9599355 4.43345455,74.9599355 C5.71151515,74.1934839 5.63781818,71.3212258 5.63781818,71.3212258 C6.656,70.6670323 6.848,68.6096129 6.848,68.6096129 L8.38981818,66.8115484 L5.63781818,84.1515484 Z" id="Fill-76" fill="#215B60"></path>
            <path d="M17.8744242,84.4151613 C17.12,84.1712903 16.3384242,84.2506452 15.7003636,84.566129 C16.0378182,85.1874194 16.6332121,85.6983871 17.3934545,85.9345161 C18.1614545,86.1822581 18.9449697,86.1029032 19.5713939,85.7835484 C19.2436364,85.1622581 18.6443636,84.6532258 17.8744242,84.4151613" id="Fill-77" fill="#3E929D"></path>
            <path d="M16.9995636,82.6035484 C16.4584727,83.186129 16.1520485,83.8867742 16.0996848,84.5332258 C16.7416242,84.4325806 17.4165333,84.0803226 17.9692606,83.4919355 C18.5103515,82.9151613 18.8167758,82.2145161 18.8652606,81.5641935 C18.2194424,81.6648387 17.5464727,82.0151613 16.9995636,82.6035484" id="Fill-78" fill="#3E929D"></path>
            <path d="M10.5524364,51.9040645 C7.56770909,58.262129 4.04770909,83.1776129 4.04770909,84.8130968 C4.04770909,88.3240645 6.8928,92.9111613 10.4128,92.9111613 C11.1808,92.9111613 11.9216485,92.6943871 12.598497,92.3130968 C12.7051636,92.2511613 12.8137697,90.6330968 12.9088,90.5692258 C13.0115879,90.5072903 13.1124364,91.9995484 13.2113455,91.922129 C15.3214061,90.3814839 16.7837091,87.3253548 16.7837091,84.8130968 C16.7837091,83.1776129 12.7982545,56.9518065 10.5524364,51.9040645" id="Fill-79" fill="#3E929D"></path>
            <path d="M12.3981576,82.8209032 C14.576097,83.3938065 15.8929455,84.7447742 16.6822788,86.028 C16.7501576,85.6215484 16.7850667,85.2092903 16.7850667,84.8125161 C16.7850667,83.4073548 13.8565818,63.9905806 11.6185212,55.2634839 C11.8822788,56.5292903 17.2020364,82.1144516 12.3981576,82.8209032" id="Fill-80" fill="#6CC5D8"></path>
            <path d="M13.7854061,83.3698065 C13.750497,83.3523871 10.3197091,81.7769032 7.10225455,83.3698065 L7.05764848,83.2846452 C10.3119515,81.6685161 13.7931636,83.2672258 13.8261333,83.2846452 L13.7854061,83.3698065 Z" id="Fill-81" fill="#215B60"></path>
            <path d="M17.0137212,43.3608387 C15.2643879,44.1737419 10.8231758,47.9730968 10.5342061,49.2427742 C10.2529939,47.9730968 5.80790303,44.1737419 4.06244848,43.3608387 C3.94996364,45.2789032 4.56475152,47.642129 5.90293333,49.8795484 C7.11505455,51.9040645 8.69953939,53.4485806 10.2859636,54.3292258 C10.2859636,54.4163226 10.2917818,54.5053548 10.2917818,54.5885806 C10.371297,54.549871 10.4546909,54.5111613 10.5342061,54.4647097 C10.6156606,54.5111613 10.7029333,54.549871 10.7843879,54.5885806 C10.7843879,54.5053548 10.7843879,54.4163226 10.7921455,54.3292258 C12.3708121,53.4485806 13.9514182,51.9040645 15.1732364,49.8795484 C16.5114182,47.642129 17.1203879,45.2789032 17.0137212,43.3608387" id="Fill-82" fill="#3E929D"></path>
            <path d="M8.97667879,89.6744516 C8.97667879,90.104129 8.62758788,90.4486452 8.19316364,90.4486452 C7.76455758,90.4486452 7.41352727,90.104129 7.41352727,89.6744516 C7.41352727,89.2428387 7.76455758,88.8925161 8.19316364,88.8925161 C8.62758788,88.8925161 8.97667879,89.2428387 8.97667879,89.6744516" id="Fill-83" fill="#215B60"></path>
            <path d="M9.37541818,47.6032258 C7.86269091,45.9948387 5.29105455,43.9374194 4.06147879,43.3606452 C3.98002424,44.7232258 4.27287273,46.3122581 4.9206303,47.9225806 C5.51796364,46.8 6.79214545,46.2619355 9.37541818,47.6032258" id="Fill-84" fill="#6CC5D8"></path>
            <path d="M17.0137212,43.3608387 C15.7783273,43.9337419 13.2125091,45.9892258 11.6978424,47.6034194 C14.2849939,46.262129 15.5533576,46.8079355 16.1506909,47.9208387 C16.8003879,46.3105161 17.0951758,44.7234194 17.0137212,43.3608387" id="Fill-85" fill="#6CC5D8"></path>
            <path d="M9.95122424,79.7266452 L9.85425455,79.7266452 C9.88916364,79.1285806 9.99970909,78.8305161 10.1063758,78.5401935 C10.211103,78.242129 10.3138909,77.9634194 10.3449212,77.3827742 C10.3720727,76.8001935 10.2925576,76.5156774 10.211103,76.2118065 C10.1393455,75.9137419 10.0598303,75.602129 10.0928,75.006 C10.1160727,74.4079355 10.2246788,74.1118065 10.3332848,73.8272903 C10.4438303,73.5292258 10.5427394,73.2543871 10.5718303,72.6737419 C10.6009212,72.0892258 10.5330424,71.7969677 10.4535273,71.4930968 C10.3720727,71.1969677 10.2925576,70.8911613 10.3274667,70.2969677 C10.3565576,69.7027742 10.4632242,69.3989032 10.5718303,69.1163226 C10.6746182,68.8124516 10.7851636,68.5356774 10.8084364,67.9530968 C10.8336485,67.3724516 10.7618909,67.086 10.6881939,66.7840645 C10.6125576,66.486 10.5330424,66.1743871 10.5524364,65.5782581 C10.5912242,64.9840645 10.6959515,64.686 10.8026182,64.3956774 C10.9170424,64.1053548 11.0120727,63.8266452 11.0411636,63.242129 C11.0721939,62.6595484 10.9946182,62.3692258 10.9170424,62.0653548 C10.8414061,61.7672903 10.7618909,61.4653548 10.7948606,60.8595484 C10.8220121,60.2653548 10.9306182,59.9692258 11.0353455,59.6847097 C11.1458909,59.3885806 11.2448,59.109871 11.2700121,58.5234194 L11.3689212,58.5369677 C11.3359515,59.1292258 11.2389818,59.4253548 11.1284364,59.7118065 C11.0120727,60.0079355 10.9170424,60.2866452 10.8860121,60.8672903 C10.8569212,61.449871 10.9306182,61.7401935 11.0043152,62.0440645 C11.0915879,62.346 11.171103,62.6479355 11.1323152,63.242129 C11.1012848,63.8401935 10.9946182,64.1363226 10.8860121,64.4285806 C10.7851636,64.7247097 10.6746182,65.0014839 10.6532848,65.5840645 C10.6241939,66.1685806 10.6959515,66.4530968 10.7696485,66.7550323 C10.8491636,67.0530968 10.9306182,67.3666452 10.9015273,67.9608387 C10.8724364,68.5550323 10.7541333,68.8569677 10.6571636,69.1472903 C10.5427394,69.4376129 10.4438303,69.7124516 10.4166788,70.2969677 C10.3837091,70.8776129 10.4632242,71.169871 10.5427394,71.4756774 C10.6164364,71.7718065 10.6959515,72.0756774 10.6629818,72.6776129 C10.6377697,73.2737419 10.5330424,73.5737419 10.4244364,73.8524516 C10.3197091,74.1505161 10.211103,74.4330968 10.1878303,75.0137419 C10.1529212,75.5943871 10.2246788,75.8769677 10.3061333,76.1827742 C10.3837091,76.4827742 10.4632242,76.7924516 10.4283152,77.3905161 C10.3972848,77.9827742 10.2925576,78.2808387 10.1878303,78.5711613 C10.0792242,78.8614839 9.96867879,79.142129 9.95122424,79.7266452" id="Fill-86" fill="#165480"></path>
            <path d="M15.0667636,51.2680645 C14.7448242,53.4048387 13.6859152,55.0209677 12.7045818,54.866129 C11.7135515,54.7190323 11.1705212,52.8706452 11.484703,50.7396774 C11.8027636,48.6029032 12.8636121,46.9906452 13.8565818,47.133871 C14.8476121,47.2867742 15.3925818,49.1332258 15.0667636,51.2680645" id="Fill-87" fill="#FDDFBB"></path>
            <path d="M53.5429818,71.5234839 C51.7121939,71.268 47.7868606,70.4221935 46.8113455,67.6912258 L46.8113455,65.2544516 L46.8113455,55.964129 C46.0588606,55.7860645 45.2326788,55.6544516 44.4394667,55.5557419 L44.4394667,65.2544516 L34.2460121,65.2544516 L34.2460121,55.5267097 C33.4683152,55.6273548 32.6401939,55.7531613 31.862497,55.9176774 L31.862497,65.2544516 L31.862497,67.6912258 C30.7919515,70.1376774 26.7308606,71.1305806 24.7914667,71.4673548 C23.9090424,79.0157419 23.9885576,86.7750968 23.9885576,88.2402581 L23.9885576,99.3944516 L54.4448,99.3944516 L54.4448,87.1583226 C54.4448,87.1583226 54.3109818,77.9454194 53.5429818,71.5234839" id="Fill-88" fill="#EEEEED"></path>
            <polygon id="Fill-89" fill="#D0D0D0" points="23.9891394 88.239871 23.9891394 88.4701935 54.4453818 88.4701935 54.4453818 87.6630968 23.9891394 87.6630968"></polygon>
            <path d="M39.3584485,59.3161935 L35.5766303,55.4239355 C36.7441455,55.2845806 37.6207515,55.238129 37.6207515,55.238129 L39.2944485,55.3290968 L39.4340848,55.3290968 L41.1213576,55.2690968 C41.1213576,55.2690968 41.9126303,55.2961935 42.9948121,55.4103871 L39.3584485,59.3161935 Z" id="Fill-90" fill="#FDDFBB"></path>
            <path d="M60.8215273,35.6632258 C60.9766788,34.5967742 61.0775273,33.5051613 61.0775273,32.3845161 C61.0775273,20.3632258 51.3029818,10.62 39.2496485,10.62 C27.2098909,10.62 17.4392242,20.3632258 17.4392242,32.3845161 C17.4392242,33.4490323 17.5168,34.4941935 17.6622545,35.516129 C16.4055273,36.2032258 15.5580121,37.4980645 15.5580121,38.9883871 C15.5580121,41.1987097 17.4178909,42.9851613 19.7199515,42.9851613 C19.875103,42.9851613 20.0302545,42.9774194 20.1815273,42.963871 C23.9090424,49.6412903 31.0518303,54.1606452 39.2496485,54.1606452 C47.4532848,54.1606452 54.5902545,49.6548387 58.3158303,42.9851613 L58.5136485,42.9851613 C60.8195879,42.9851613 62.6794667,41.1987097 62.6794667,38.9883871 C62.6794667,37.5967742 61.9444364,36.3832258 60.8215273,35.6632258" id="Fill-91" fill="#FDDFBB"></path>
            <g id="Page-1" transform="translate(26.000000, 28.000000)">
                <path d="M6.22875275,3.09640088 C5.45712117,2.92235643 5.3211738,1.89471199 2.8433317,2.35573421 C2.06412117,2.53613421 0.42612117,3.51195643 0.110647486,4.16364532 C-0.205299883,4.8158231 0.0234895909,1.77248977 2.56764749,0.641689768 C4.4031738,-0.0329768984 5.02512117,0.000267546019 6.54470012,0.000267546019 C8.06427906,0.000267546019 8.53227906,0.907156435 8.31106854,1.65026755 C8.31106854,1.65026755 7.80801591,3.45328977 6.22875275,3.09640088 Z" id="Fill-1" fill="#F7B90B"></path>
                <path d="M20.1341558,3.09640088 C20.9057873,2.92235643 21.0417347,1.89471199 23.5195768,2.35573421 C24.2987873,2.53613421 25.9367873,3.51195643 26.252261,4.16364532 C26.5682084,4.8158231 26.3394189,1.77248977 23.795261,0.641689768 C21.9597347,-0.0329768984 21.3377873,0.000267546019 19.8182084,0.000267546019 C18.2986294,0.000267546019 17.8306294,0.907156435 18.05184,1.65026755 C18.05184,1.65026755 18.5548926,3.45328977 20.1341558,3.09640088 Z" id="Fill-3" fill="#F7B90B"></path>
                <path d="M6,9 C6,10.6568785 5.10453816,12 3.99983098,12 C2.89512381,12 2,10.6568785 2,9 C2,7.34312148 2.89512381,6 3.99983098,6 C5.10453816,6 6,7.34312148 6,9" id="Fill-5" fill="#6172BB"></path>
                <path d="M24,9 C24,10.6568785 23.1048762,12 22.000169,12 C20.8951238,12 20,10.6568785 20,9 C20,7.34312148 20.8951238,6 22.000169,6 C23.1048762,6 24,7.34312148 24,9" id="Fill-7" fill="#6172BB"></path>
                <path d="M13.0197368,12.0692 C13.8586316,11.9552889 15.9802632,13.8262667 15.9802632,13.8262667 C15.9802632,13.8262667 16.0825789,13.4116889 15.6396842,12.5884 C15.1626842,11.7025333 12.9903684,11 12.9903684,11 C12.9903684,11 11.3026316,11.4478222 10.5030526,12.6040444 C10.207,12.8939556 10,13.9025333 10,13.9025333 C10,13.9025333 11.8947368,12.2217333 13.0197368,12.0692 Z" id="Fill-9" fill="#EEAC6C"></path>
                <g id="Group-13" transform="translate(6.000000, 15.000000)">
                    <mask id="mask-2" fill="white">
                        <use xlink:href="#path-1"></use>
                    </mask>
                    <g id="Clip-12"></g>
                    <path d="M0.199373684,0.696031111 C0.199373684,0.696031111 7.09763684,3.90412 13.3734789,0.299053333 C13.3734789,0.299053333 11.9822684,5.76825333 7.42305789,5.86016444 C3.30768947,5.98238667 2.43942632,4.36807556 1.94632105,3.90412 C1.45274211,3.44114222 0.524794737,2.13238667 0.199373684,0.696031111" id="Fill-11" fill="#EEAC6C" mask="url(#mask-2)"></path>
                </g>
            </g>
            <path d="M61.936097,29.5534839 C61.9244606,28.4154194 61.8352485,27.0296129 61.6723394,25.5489677 C58.7399758,15.9721935 49.8148848,9.00445161 39.2626424,9.00445161 C30.0679758,9.00445161 22.1067636,14.2825161 18.2725818,21.9721935 C17.2117333,24.9934839 16.5620364,27.9721935 16.5038545,29.3154194 C16.3157333,33.9683226 19.7193697,40.9399355 19.7193697,40.9399355 C19.3101576,33.2792903 19.4013091,33.2928387 21.2476121,31.9612258 C23.5535515,30.318 28.4059152,27.2386452 30.2735515,25.1154194 C30.6323394,24.7031613 31.3654303,23.2496129 31.3654303,23.2496129 C31.3654303,23.2496129 31.2917333,24.3934839 31.9317333,24.8967097 C35.7930667,27.9412258 47.1792485,24.558 51.5021576,26.901871 C55.0396121,28.821871 59.3256727,40.9399355 59.3256727,40.9399355 C61.0788848,37.6399355 61.9690667,32.1083226 61.936097,29.5534839" id="Fill-100" fill="#F7B90B"></path>
            <path d="M37.5534545,56.6597419 L41.12,56.6597419 C42.1381818,56.6597419 42.9624242,54.4726452 42.9624242,53.4778065 L35.7129697,53.4778065 C35.7129697,54.4726452 36.5313939,56.6597419 37.5534545,56.6597419" id="Fill-101" fill="#FDDFBB"></path>
            <path d="M36.4947394,55.9848387 L42.9393455,53.8635484 L42.9509818,53.85 C41.750497,54.0532258 40.515103,54.1596774 39.2622545,54.1596774 C38.0578909,54.1596774 36.8787394,54.0590323 35.7209212,53.8732258 C35.7868606,54.4983871 36.0797091,55.3616129 36.4947394,55.9848387" id="Fill-102" fill="#EEAC6C"></path>
            <path d="M25.1178667,18.4517419 C25.1178667,18.4517419 33.3622303,20.6214194 36.1879273,20.6930323 C40.0570182,20.8014194 51.5013818,18.4517419 51.5013818,18.4517419 C51.5013818,18.4517419 49.9440485,6.10335484 46.5326545,4.96722581 L45.3748364,5.72206452 C45.3748364,5.72206452 35.6177455,-0.396 34.2465939,0.728516129 C32.8696242,1.85109677 30.9632,4.84916129 30.9632,4.84916129 L29.7433212,4.34787097 C26.3668364,5.904 25.1178667,18.4517419 25.1178667,18.4517419" id="Fill-103" fill="#EEEEED"></path>
            <polygon id="Fill-104" fill="#B7B7B6" points="46.5421576 4.99606452 37.4987636 10.6205806 46.5111273 4.94187097"></polygon>
            <polygon id="Fill-105" fill="#B7B7B6" points="40.105503 8.9756129 29.7258667 4.37496774 29.7530182 4.31883871 40.1830788 8.93883871"></polygon>
        </g>
    </g>
</svg>