<?xml version="1.0" encoding="UTF-8"?>
<svg width="120px" height="120px" viewBox="0 0 120 120" version="1.1" xmlns="http://www.w3.org/2000/svg" xmlns:xlink="http://www.w3.org/1999/xlink">
    <!-- Generator: Sketch 51.1 (57501) - http://www.bohemiancoding.com/sketch -->
    <title>Motorcycle8</title>
    <desc>Created with Sketch.</desc>
    <defs></defs>
    <g id="Motorcycle8" stroke="none" stroke-width="1" fill="none" fill-rule="evenodd">
        <g id="Group" transform="translate(59.500000, 60.000000) scale(-1, 1) translate(-59.500000, -60.000000) translate(4.000000, 26.000000)">
            <path d="M43.028595,2.38468082 C42.5034262,3.44217397 40.847445,6.02384521 40.847445,6.02384521 C40.847445,6.02384521 41.1136137,7.05013288 41.4843075,7.08133836 C41.85477,7.11254384 44.1094575,3.10007808 44.29492,3.0379 C44.4801512,2.97572192 44.29492,1.45154384 44.29492,1.45154384 C44.29492,1.45154384 43.5537637,1.32718767 43.028595,2.38468082" id="Fill-110" fill="#BFBBB4"></path>
            <path d="M42.7128925,5.97461507 L41.6132987,5.30719041 C41.3057362,5.12042329 40.9056737,5.22591644 40.7280738,5.54053288 L38.4396238,9.60143699 L40.5782237,10.8654918 L42.9330425,6.85256027 C43.1113363,6.54865616 43.013055,6.15695753 42.7128925,5.97461507" id="Fill-111" fill="#1D1E1F"></path>
            <path d="M45.3965488,9.31506849e-05 C44.4299238,9.31506849e-05 43.6462175,0.789312329 43.6462175,1.76250411 C43.6462175,2.73616164 44.4299238,3.52514795 45.3965488,3.52514795 C46.3631738,3.52514795 47.1466488,2.73616164 47.1466488,1.76250411 C47.1466488,0.789312329 46.3631738,9.31506849e-05 45.3965488,9.31506849e-05" id="Fill-112" fill="#1F2221"></path>
            <path d="M48.0670931,0.482893151 C47.9676556,0.482893151 47.8716869,0.498030137 47.7814994,0.526441096 L45.4322306,0.885769863 C44.9054431,0.88809863 44.4787869,1.31868767 44.4787869,1.84987945 C44.4787869,2.38246849 44.9075244,2.81398904 45.4363931,2.81398904 C45.4548931,2.81398904 45.4729306,2.8123589 45.4911994,2.8114274 L45.4916619,2.81398904 L45.5189494,2.80979726 C45.5617306,2.80630411 45.6035869,2.79978356 45.6445181,2.79046849 L48.1258306,2.40831781 C48.1852619,2.40459178 48.2430744,2.39574247 48.2990369,2.38153699 C48.7155181,2.27697534 49.0246994,1.89901644 49.0246994,1.44700274 C49.0246994,0.914646575 48.5959619,0.482893151 48.0670931,0.482893151" id="Fill-113" fill="#2E3230"></path>
            <path d="M94.2117356,62.1967123 C88.1051169,62.1967123 83.1547481,57.2115205 83.1547481,51.0619452 C83.1547481,44.912137 88.1051169,39.9269452 94.2117356,39.9269452 C100.318354,39.9269452 105.268723,44.912137 105.268723,51.0619452 C105.268723,57.2115205 100.318354,62.1967123 94.2117356,62.1967123 M94.2117356,34.3281233 C85.0345794,34.3281233 77.5950356,41.82 77.5950356,51.0619452 C77.5950356,60.3036575 85.0345794,67.7955342 94.2117356,67.7955342 C103.389123,67.7955342 110.828667,60.3036575 110.828667,51.0619452 C110.828667,41.82 103.389123,34.3281233 94.2117356,34.3281233" id="Fill-114" fill="#34393F"></path>
            <path d="M94.2117356,61.4088205 C88.5370919,61.4088205 83.9370669,56.7762041 83.9370669,51.0618753 C83.9370669,45.3473137 88.5370919,40.7149301 94.2117356,40.7149301 C99.8863794,40.7149301 104.486404,45.3473137 104.486404,51.0618753 C104.486404,56.7762041 99.8863794,61.4088205 94.2117356,61.4088205 M94.2117356,39.553574 C87.9004606,39.553574 82.7840544,44.7059712 82.7840544,51.0618753 C82.7840544,57.4175466 87.9004606,62.5699438 94.2117356,62.5699438 C100.523011,62.5699438 105.639417,57.4175466 105.639417,51.0618753 C105.639417,44.7059712 100.523011,39.553574 94.2117356,39.553574" id="Fill-115" fill="#BBBBBB"></path>
            <path d="M94.2117356,46.4379685 C91.6758481,46.4379685 89.6202669,48.5082425 89.6202669,51.0617356 C89.6202669,53.6154616 91.6758481,55.6857356 94.2117356,55.6857356 C96.7476231,55.6857356 98.8032044,53.6154616 98.8032044,51.0617356 C98.8032044,48.5082425 96.7476231,46.4379685 94.2117356,46.4379685" id="Fill-116" fill="#9A9A9A"></path>
            <path d="M16.6168619,62.1967123 C10.5102431,62.1967123 5.55964313,57.2115205 5.55964313,51.0619452 C5.55964313,44.912137 10.5102431,39.9269452 16.6168619,39.9269452 C22.7234806,39.9269452 27.6738494,44.912137 27.6738494,51.0619452 C27.6738494,57.2115205 22.7234806,62.1967123 16.6168619,62.1967123 M16.6168619,34.3281233 C7.43947437,34.3281233 -6.9375e-05,41.82 -6.9375e-05,51.0619452 C-6.9375e-05,60.3036575 7.43947437,67.7955342 16.6168619,67.7955342 C25.7940181,67.7955342 33.2335619,60.3036575 33.2335619,51.0619452 C33.2335619,41.82 25.7940181,34.3281233 16.6168619,34.3281233" id="Fill-117" fill="#34393F"></path>
            <path d="M16.6168619,61.4088205 C10.9422181,61.4088205 6.34219313,56.7762041 6.34219313,51.0618753 C6.34219313,45.3473137 10.9422181,40.7149301 16.6168619,40.7149301 C22.2915056,40.7149301 26.8915306,45.3473137 26.8915306,51.0618753 C26.8915306,56.7762041 22.2915056,61.4088205 16.6168619,61.4088205 M16.6168619,39.553574 C10.3055869,39.553574 5.18918063,44.7059712 5.18918063,51.0618753 C5.18918063,57.4175466 10.3055869,62.5699438 16.6168619,62.5699438 C22.9281369,62.5699438 28.0445431,57.4175466 28.0445431,51.0618753 C28.0445431,44.7059712 22.9281369,39.553574 16.6168619,39.553574" id="Fill-118" fill="#BBBBBB"></path>
            <path d="M16.6168619,46.4379685 C14.0809744,46.4379685 12.0253931,48.5082425 12.0253931,51.0617356 C12.0253931,53.6154616 14.0809744,55.6857356 16.6168619,55.6857356 C19.1527494,55.6857356 21.2083306,53.6154616 21.2083306,51.0617356 C21.2083306,48.5082425 19.1527494,46.4379685 16.6168619,46.4379685" id="Fill-119" fill="#9A9A9A"></path>
            <path d="M98.5517431,50.7812123 L68.6647619,40.0924041 L66.9144306,44.3433356 L97.5538994,53.8107055 C98.0920181,53.9772123 98.6636681,53.6805274 98.8414994,53.1428151 L99.1883744,52.0953356 C99.3668994,51.5557603 99.0838494,50.9714726 98.5517431,50.7812123" id="Fill-120" fill="#34393F"></path>
            <path d="M42.349645,32.0884082 C42.349645,32.0884082 42.5554575,28.6877096 42.3084825,26.6141753 C42.0612762,24.5406411 33.330895,18.2371342 33.330895,18.2371342 L26.45352,14.5460384 C26.45352,14.5460384 21.8410075,13.9654767 15.9108325,14.7535315 C9.9806575,15.5413534 4.33885125,21.2228466 4.8330325,21.4303397 C5.32721375,21.6376 7.6746325,20.9326822 7.6746325,20.9326822 C13.6048075,17.0757781 18.8347575,17.946737 22.2940262,18.5687507 C25.753295,19.1907644 32.9602012,22.1767096 35.4311075,24.1258877 C37.56092,25.8058603 39.2927512,31.937737 39.7305075,33.5990795 C39.8015012,33.8692164 39.9712387,34.1016274 40.2061887,34.2502027 L41.7109325,35.2024356 C42.1752825,35.496326 42.7689012,35.1095178 42.6930512,34.5624904 L42.349645,32.0884082 Z" id="Fill-121" fill="#28467F"></path>
            <path d="M42.8849656,12.3065096 C42.4652469,12.0650164 41.7176156,11.3614959 41.3425281,10.996811 C41.2088656,10.8673315 41.1864344,10.6607699 41.2879531,10.5045096 C41.5656844,10.0767151 41.4026531,9.50034521 40.9426969,9.28423562 L39.3433719,8.53250959 C39.3433719,8.53250959 35.5545719,16.5367151 35.9252656,17.4074411 C36.2959594,18.2784 43.7086781,24.7479479 43.7086781,26.4898658 C43.7086781,28.2315507 43.2144969,31.5493452 43.7086781,33.7057836 C44.2028594,35.8622219 46.8384156,43.0783726 52.5213844,46.313263 C56.8533906,48.7789616 61.9031969,48.642263 64.0596031,48.4377973 C64.7133469,48.3758521 65.2965594,47.9997562 65.6235469,47.4264137 L69.9002844,39.9266192 L78.3013656,31.1345918 C78.3013656,31.1345918 64.7112656,19.190811 59.7694531,17.449126 C54.8276406,15.7072082 43.4614719,12.6383589 42.8849656,12.3065096" id="Fill-122" fill="#34393F"></path>
            <path d="M98.6957194,17.6943918 L94.2386069,17.3453096 L91.9737444,15.9145151 L65.6584194,22.2597068 L78.5510694,31.6122685 C79.2834381,32.1434603 80.2297131,32.274337 81.0772444,31.9615836 L94.0975444,27.155474 C94.8239006,26.8874329 95.4233006,26.3539123 95.7768819,25.6611041 L99.2928069,18.7712137 C99.5330756,18.3005699 99.2197319,17.7353781 98.6957194,17.6943918" id="Fill-123" fill="#C1CBD8"></path>
            <path d="M65.6584656,22.2597068 L78.5508844,31.6122685 C79.2832531,32.1434603 80.2297594,32.274337 81.0772906,31.9615836 L84.1804344,30.816063 C81.1771906,28.5648438 74.7856719,23.6758301 71.1950531,20.9248575 L65.6584656,22.2597068 Z" id="Fill-124" fill="#091116"></path>
            <path d="M109.917218,13.604611 C108.050106,13.5789945 102.019106,13.5086658 98.5008681,13.6129945 C94.3004431,13.7373507 78.2396681,15.4168575 70.8267181,15.976926 C63.4139994,16.5365288 54.0862994,12.4309123 51.5538806,11.4977753 C49.0209994,10.5646384 46.1793994,10.4402822 43.8939556,10.6889945 C42.0566744,10.8890356 34.8717369,14.8269808 32.1228681,16.3646658 C31.5972369,16.6583233 31.5227744,17.3888575 31.9771806,17.7849808 L39.0340056,23.940611 C39.5337369,24.3765562 39.8336681,25.0004329 39.8632681,25.6657616 L40.1197244,31.4315562 C40.1576494,32.2862137 40.8567181,32.9592274 41.7060994,32.9592274 L44.0160556,32.9592274 C44.6015806,32.9592274 45.1443244,32.6376247 45.4160431,32.1152822 C48.2449244,26.677611 52.0221619,26.8851041 53.5923494,26.4899123 C54.9870181,26.1385014 81.3055806,19.2451178 89.3368931,17.1410767 C90.8205931,16.7524055 92.3951744,16.9401041 93.7482181,17.6666795 L93.8823431,17.7386384 C94.2010056,17.9098027 94.5851119,17.8772 94.8801869,17.667611 C98.6685244,14.9760219 108.899487,14.2142822 108.899487,14.2142822 L109.952599,13.8146658 C110.064062,13.7725151 110.036312,13.6062411 109.917218,13.604611" id="Fill-125" fill="#30559C"></path>
            <path d="M40.1196781,31.431626 C40.1576031,32.2860507 40.8566719,32.9592973 41.7060531,32.9592973 L44.0162406,32.9592973 C44.6015344,32.9592973 45.1442781,32.6376945 45.4159969,32.1153521 C46.5895906,29.8594753 47.9262156,28.575626 49.2010969,27.8169137 L39.9589594,27.8169137 L40.1196781,31.431626 Z" id="Fill-126" fill="#799EE8"></path>
            <path d="M55.5171125,13.013337 C55.8112625,14.1928575 56.4805,15.6902548 58.0044375,16.2256384 C60.6608063,17.1587753 68.2587563,18.0919123 72.0887187,17.4696658 C75.9186813,16.8476521 88.84255,14.6437068 91.4302375,14.1283507 C84.8460875,14.703789 75.8506938,15.597337 70.8267875,15.976926 C65.67315,16.366063 59.594975,14.5004877 55.5171125,13.013337" id="Fill-127" fill="#3C3832"></path>
            <path d="M49.8013525,21.1095521 C49.7366025,21.049237 49.6515025,21.0154699 49.563165,21.0154699 L45.8633963,21.0154699 C45.5158275,21.0154699 45.3800838,21.4700452 45.6700713,21.6628671 L49.603865,24.279237 C49.6665338,24.3211548 49.7412275,24.3414151 49.8161525,24.3372233 L52.2424275,24.2028534 C52.5511463,24.1856205 52.6880463,23.803237 52.46119,23.5915521 L49.8013525,21.1095521 Z" id="Fill-128" fill="#34393F"></path>
            <path d="M52.1246981,14.1746466 L45.5828669,16.0134411 C45.3039794,16.0916877 45.3604044,16.5055096 45.6499294,16.5055096 L51.5898169,16.5055096 C51.6973481,16.5055096 51.7926231,16.4361123 51.8261544,16.3334137 L52.4280981,14.4946192 C52.4903044,14.304126 52.3164044,14.1208521 52.1246981,14.1746466" id="Fill-129" fill="#34393F"></path>
            <path d="M64.2171075,36.4429 C62.6522388,35.5512151 59.1518075,36.8162014 59.1518075,36.8162014 C59.1518075,36.8162014 56.3102075,35.3854068 55.2601013,35.2610507 C54.6100575,35.1839685 53.6843638,32.4132014 53.0736325,30.3133521 C52.7343888,29.1471055 51.38967,28.6222014 50.3566762,29.2505027 L46.9906013,31.2981877 C46.761895,31.4374479 46.6402575,31.7026945 46.68327,31.9684068 L47.105995,34.576626 L46.488095,35.3821466 C46.24852,35.6944342 46.3024013,36.142489 46.60927,36.388174 L47.9482075,37.4598726 C48.2402763,37.6936808 48.6616138,37.6627082 48.9166825,37.3886123 C49.1664325,37.1203384 49.5947075,37.1396671 49.8197137,37.4291329 L50.50352,38.309174 C50.50352,38.309174 50.421195,41.9585849 50.5446825,42.4147904 C50.6684013,42.8709959 52.5628013,44.4468726 53.0979138,44.2810644 C53.6334888,44.1152562 55.5690513,43.9631877 55.5998075,44.293174 C55.630795,44.6231603 55.17292,46.0539548 57.10062,46.178311 C59.02832,46.3026671 65.4526763,47.8475712 65.6584888,45.815489 C65.8645325,43.7834068 65.9022262,37.4030507 64.2171075,36.4429" id="Fill-130" fill="#9A9A9A"></path>
            <path d="M60.9342131,29.0022329 C60.5114881,28.1613151 59.3982506,27.9829315 58.7341006,28.6470959 C58.1640694,29.2169452 57.6095319,29.8948493 57.4839631,30.4709863 C57.3001194,31.3142329 58.2910256,33.5037397 58.9836194,34.8905205 C59.3348881,35.5935753 60.1375569,35.9396301 60.8849569,35.7088493 L62.2835569,35.276863 C63.1001006,35.0248904 63.4936881,34.0929178 63.1079631,33.3258219 L60.9342131,29.0022329 Z" id="Fill-131" fill="#9A9A9A"></path>
            <path d="M41.0098981,4.51207945 C40.4653044,4.2265726 39.7937544,4.43965479 39.5102419,4.98807945 L13.9980481,54.3393123 C13.7145356,54.887737 13.9261294,55.564011 14.4709544,55.8495178 C14.6349106,55.9354493 14.8104294,55.9762027 14.9834044,55.9762027 C15.3848544,55.9762027 15.7724294,55.7566 15.9706106,55.3732849 L41.4825731,6.02228493 C41.7663169,5.47386027 41.5544919,4.7975863 41.0098981,4.51207945" id="Fill-132" fill="#BCAE99"></path>
            <path d="M26.1435063,30.8450096 L13.998025,54.3392425 C13.7145125,54.8879 13.9261063,55.5639411 14.4709313,55.8494479 C14.6348875,55.9353795 14.8104063,55.9763658 14.9833813,55.9763658 C15.3848313,55.9763658 15.7724063,55.756763 15.9705875,55.3734479 L28.0904,31.9283521 L27.3982688,30.9113795 L26.1435063,30.8450096 Z" id="Fill-133" fill="#9F7C47"></path>
            <path d="M22.8251612,34.2257973 C22.7802987,33.7213863 22.1082862,33.5902767 21.8798112,34.0413589 L12.7028862,52.1396055 C12.3294175,52.8757288 12.637905,53.7771945 13.38253,54.1251123 L14.1875112,54.5014411 C14.904155,54.8365507 15.7549237,54.5312493 16.0997175,53.8156192 L23.0610362,39.3672493 C23.1831362,39.1136466 23.234705,38.8311671 23.2094987,38.5503178 L22.8251612,34.2257973 Z" id="Fill-134" fill="#799EE8"></path>
            <path d="M72.4613781,29.7929658 C71.3384281,28.982089 69.6546969,27.7459795 68.2556344,26.7157329 C67.2610281,25.9833356 65.8693656,26.7490342 65.9431344,27.9879384 L66.4190469,35.9949384 C66.4995219,37.3512123 68.2096156,37.8775137 69.0293969,36.7985959 L72.7694031,31.8758151 C73.2689031,31.2184041 73.1294594,30.2754863 72.4613781,29.7929658" id="Fill-135" fill="#9A9A9A"></path>
            <path d="M94.2117356,50.0352616 C93.6486419,50.0352616 93.1923856,50.4949603 93.1923856,51.0617822 C93.1923856,51.628837 93.6486419,52.0883027 94.2117356,52.0883027 C94.7748294,52.0883027 95.2310856,51.628837 95.2310856,51.0617822 C95.2310856,50.4949603 94.7748294,50.0352616 94.2117356,50.0352616" id="Fill-136" fill="#9A9A9A"></path>
            <path d="M41.5854331,6.12936164 L39.3390706,4.95147123 C38.8095081,4.67388219 38.1566894,4.88114247 37.8808081,5.41443014 L37.7383581,5.69038904 C37.4624769,6.22367671 37.6685206,6.88108767 38.1980831,7.15867671 L40.4444456,8.33656712 C40.9740081,8.61415616 41.6268269,8.40689589 41.9024769,7.87360822 L42.0451581,7.59764932 C42.3208081,7.06436164 42.1149956,6.40695068 41.5854331,6.12936164" id="Fill-137" fill="#799EE8"></path>
            <path d="M29.0919437,30.3967685 L26.8455812,29.2188781 C26.3160187,28.941289 25.6632,29.1485493 25.3873187,29.681837 L25.2448687,29.9577959 C24.9689875,30.4910836 25.1750312,31.1484945 25.7043625,31.4260836 L27.9509562,32.603974 C28.4802875,32.8813301 29.1333375,32.6743027 29.4089875,32.1410151 L29.5516687,31.8650562 C29.8273187,31.3317685 29.6215062,30.6743575 29.0919437,30.3967685" id="Fill-138" fill="#799EE8"></path>
        </g>
    </g>
</svg>