<?xml version="1.0" encoding="UTF-8"?>
<svg width="120px" height="120px" viewBox="0 0 120 120" version="1.1" xmlns="http://www.w3.org/2000/svg" xmlns:xlink="http://www.w3.org/1999/xlink">
    <!-- Generator: Sketch 51.1 (57501) - http://www.bohemiancoding.com/sketch -->
    <title>Car46</title>
    <desc>Created with Sketch.</desc>
    <defs></defs>
    <g id="Car46" stroke="none" stroke-width="1" fill="none" fill-rule="evenodd">
        <g id="Group" transform="translate(29.000000, 5.000000)">
            <path d="M49.7519574,5.79274444 C43.0341426,0.167421693 32.2564759,0.265464021 30.7575685,0.30756455 C29.2586611,0.265464021 18.4809944,0.167421693 11.7631796,5.79274444 C4.53156852,11.8483 6.25379074,33.1869243 6.54082778,42.1260778 C6.82786481,51.0652312 7.68897593,90.858882 9.41119815,96.9144376 C11.123087,102.93539 9.43473519,108.670289 30.5761611,108.735459 L30.5761611,108.737189 C30.637587,108.737189 30.6967167,108.736612 30.7575685,108.736612 C30.8184204,108.736612 30.87755,108.737189 30.9389759,108.737189 L30.9389759,108.735459 C52.0804019,108.670289 50.3914759,102.93539 52.1039389,96.9144376 C53.8261611,90.858882 54.6872722,51.0652312 54.9743093,42.1260778 C55.2613463,33.1869243 56.9835685,11.8483 49.7519574,5.79274444" id="Fill-84" fill="#FF8D35"></path>
            <path d="M6.43376296,39.3849873 L4.74311481,41.333146 C4.74311481,41.333146 -0.208274074,39.8913471 0.0070037037,45.5864529 L5.17367037,44.2167439 L5.31718889,42.4854317 L6.51528148,41.4058127 L6.43376296,39.3849873 Z" id="Fill-86" fill="#FF8D35"></path>
            <path d="M55.0901574,39.3849873 L56.7808056,41.333146 C56.7808056,41.333146 61.7321944,39.8913471 61.5169167,45.5864529 L56.35025,44.2167439 L56.2067315,42.4854317 L55.0086389,41.4058127 L55.0901574,39.3849873 Z" id="Fill-88" fill="#FF8D35"></path>
            <path d="M52.0359111,30.5916862 C50.0266519,26.2662894 41.913837,23.8152312 30.7578556,23.8152312 L30.7572815,23.8152312 C19.6007259,23.8152312 11.4884852,26.2662894 9.47922593,30.5916862 C7.46996667,34.9170831 9.47922593,52.3628503 9.47922593,52.3628503 C16.7969481,48.7589296 30.7509667,49.0467127 30.7572815,49.0467127 L30.7578556,49.0467127 C30.7635963,49.0467127 44.7181889,48.7589296 52.0359111,52.3628503 C52.0359111,52.3628503 54.0451704,34.9170831 52.0359111,30.5916862" id="Fill-90" fill="#2E6579"></path>
            <path d="M51.4063815,79.6866704 C51.4063815,79.6866704 51.6497889,93.6721201 30.6857519,93.6721201 C9.72171481,93.6721201 9.9656963,79.6866704 9.9656963,79.6866704 C6.51895556,107.22157 30.6800111,103.621686 30.6857519,103.620533 C30.6920667,103.621686 54.8531222,107.22157 51.4063815,79.6866704" id="Fill-92" fill="#2E6579"></path>
            <path d="M49.7519574,5.79274444 C48.6617907,4.87979735 47.4636981,4.11968095 46.2162352,3.48355926 C45.7874019,3.50893492 45.4337722,3.6410037 45.2242352,3.91552222 C44.5669204,4.77887143 45.4837167,6.5926545 47.2725315,7.96755397 C49.0607722,9.3413 51.0436241,9.7565381 51.7009389,8.89434233 C51.8014019,8.76169683 51.8611056,8.60540582 51.8903833,8.43354339 C51.2824389,7.38391376 50.57805,6.48423122 49.7519574,5.79274444" id="Fill-94" fill="#EAC14E"></path>
            <path d="M11.7610556,5.79274444 C12.8512222,4.87979735 14.0493148,4.11968095 15.2967778,3.48355926 C15.7256111,3.50893492 16.0792407,3.6410037 16.2887778,3.91552222 C16.9460926,4.77887143 16.0292963,6.5926545 14.2404815,7.96755397 C12.4522407,9.3413 10.4693889,9.7565381 9.81207407,8.89434233 C9.71161111,8.76169683 9.65190741,8.60540582 9.62262963,8.43354339 C10.2305741,7.38391376 10.934963,6.48423122 11.7610556,5.79274444" id="Fill-96" fill="#EAC14E"></path>
            <path d="M11.7277019,26.3626016 C11.7277019,26.3626016 11.8809796,26.0033053 12.1484981,25.374681 C12.2776648,25.0586386 12.434387,24.6751201 12.6140722,24.2356598 C12.7977759,23.7979296 12.9699981,23.2886862 13.1887204,22.7477233 C13.410313,22.2079138 13.6037759,21.6052418 13.8276648,20.975464 C14.061313,20.3491466 14.2450167,19.6691942 14.4677574,18.976554 C14.7054241,18.2873741 14.8644426,17.5537868 15.0584796,16.8161624 C15.2754796,16.0831519 15.3839796,15.3189984 15.5211833,14.558882 C15.6790537,13.806263 15.7577019,13.0219243 15.8994981,12.2600778 C16.0229241,11.492464 16.1980167,10.7508026 16.3754056,10.0333635 C16.5585352,9.31650106 16.7732389,8.63308836 17.0189426,7.99985026 C17.2508685,7.36142169 17.5373315,6.78239524 17.8117389,6.2570037 C18.1085352,5.74199312 18.4047574,5.28234762 18.7285352,4.92189788 C19.0356648,4.55049048 19.3514056,4.26962804 19.6172019,4.05162804 C19.8916093,3.84400899 20.1183685,3.6969455 20.2831278,3.61620476 C20.4444426,3.52969683 20.5299796,3.48355926 20.5299796,3.48355926 C20.5299796,3.48355926 20.4496093,3.53892434 20.2997759,3.64273386 C20.1447759,3.73846931 19.9427019,3.91552222 19.6895352,4.13755926 C19.4472759,4.37228413 19.1642574,4.66929471 18.8967389,5.05512011 C18.6148685,5.42941111 18.3657204,5.89886085 18.0982019,6.40695079 C17.8576648,6.93234233 17.6085167,7.50560159 17.4139056,8.14056984 C17.2055167,8.7697709 17.0344426,9.44914656 16.866813,10.1538979 C16.7066463,10.8603794 16.5671463,11.5997339 16.4465907,12.3494693 C16.3128315,13.1003582 16.2433685,13.8743159 16.0872204,14.6517339 C15.9408315,15.4279984 15.8214241,16.2106069 15.595813,16.952845 C15.3960352,17.7008503 15.2019981,18.439628 14.9482574,19.1305381 C14.7117389,19.8277921 14.4849796,20.502554 14.2186093,21.1213741 C13.96085,21.7442312 13.736387,22.3394058 13.4860907,22.871718 C13.2449796,23.4069138 13.0297019,23.8994323 12.8081093,24.3227444 C12.5922574,24.7472101 12.4039611,25.1180407 12.2489611,25.4231254 C11.9274796,26.0275275 11.7277019,26.3626016 11.7277019,26.3626016" id="Fill-98" fill="#E26A1A"></path>
            <path d="M50.3748278,26.3626016 C50.3748278,26.3626016 50.22155,26.0033053 49.9540315,25.374681 C49.8248648,25.0586386 49.6681426,24.6751201 49.4884574,24.2356598 C49.3047537,23.7979296 49.1325315,23.2886862 48.9138093,22.7477233 C48.6922167,22.2079138 48.4987537,21.6052418 48.2748648,20.975464 C48.0412167,20.3491466 47.857513,19.6691942 47.6347722,18.976554 C47.3971056,18.2873741 47.238087,17.5537868 47.04405,16.8161624 C46.82705,16.0831519 46.71855,15.3189984 46.5813463,14.558882 C46.4234759,13.806263 46.3448278,13.0219243 46.2030315,12.2600778 C46.0796056,11.492464 45.904513,10.7508026 45.7271241,10.0333635 C45.5439944,9.31650106 45.3292907,8.63308836 45.083587,7.99985026 C44.8516611,7.36142169 44.5651981,6.78239524 44.2907907,6.2570037 C43.9939944,5.74199312 43.6977722,5.28234762 43.3739944,4.92189788 C43.0668648,4.55049048 42.7511241,4.26962804 42.4853278,4.05162804 C42.2109204,3.84400899 41.9841611,3.6969455 41.8194019,3.61620476 C41.658087,3.52969683 41.57255,3.48355926 41.57255,3.48355926 C41.57255,3.48355926 41.6529204,3.53892434 41.8027537,3.64273386 C41.9577537,3.73846931 42.1598278,3.91552222 42.4129944,4.13755926 C42.6552537,4.37228413 42.9382722,4.66929471 43.2057907,5.05512011 C43.4876611,5.42941111 43.7368093,5.89886085 44.0043278,6.40695079 C44.2448648,6.93234233 44.494013,7.50560159 44.6886241,8.14056984 C44.897013,8.7697709 45.068087,9.44914656 45.2357167,10.1538979 C45.3958833,10.8603794 45.5353833,11.5997339 45.6559389,12.3494693 C45.7896981,13.1003582 45.8591611,13.8743159 46.0153093,14.6517339 C46.1616981,15.4279984 46.2811056,16.2106069 46.5067167,16.952845 C46.7064944,17.7008503 46.9005315,18.439628 47.1542722,19.1305381 C47.3907907,19.8277921 47.61755,20.502554 47.8839204,21.1213741 C48.1416796,21.7442312 48.3661426,22.3394058 48.6164389,22.871718 C48.85755,23.4069138 49.0728278,23.8994323 49.2944204,24.3227444 C49.5102722,24.7472101 49.6985685,25.1180407 49.8535685,25.4231254 C50.17505,26.0275275 50.3748278,26.3626016 50.3748278,26.3626016" id="Fill-100" fill="#E26A1A"></path>
            <path d="M45.3990407,106.994112 C45.3990407,106.994112 46.0615222,102.813471 50.3027815,103.143932 C50.3027815,103.143932 49.7447815,106.693064 45.3990407,106.994112" id="Fill-102" fill="#BC3B26"></path>
            <path d="M16.0018556,106.994112 C16.0018556,106.994112 15.3393741,102.813471 11.0981148,103.143932 C11.0981148,103.143932 11.6561148,106.693064 16.0018556,106.994112" id="Fill-104" fill="#BC3B26"></path>
        </g>
    </g>
</svg>