<?xml version="1.0" encoding="UTF-8"?>
<svg width="120px" height="120px" viewBox="0 0 120 120" version="1.1" xmlns="http://www.w3.org/2000/svg" xmlns:xlink="http://www.w3.org/1999/xlink">
    <!-- Generator: Sketch 51.1 (57501) - http://www.bohemiancoding.com/sketch -->
    <title>Egg3</title>
    <desc>Created with Sketch.</desc>
    <defs>
        <polygon id="path-1" points="0.00061903718 3.30411363 114.76848 3.30411363 114.76848 116.666667 0.00061903718 116.666667"></polygon>
    </defs>
    <g id="Egg3" stroke="none" stroke-width="1" fill="none" fill-rule="evenodd">
        <g id="Page-1" transform="translate(2.000000, 0.000000)">
            <g id="Group-3" transform="translate(0.000000, 0.028333)">
                <mask id="mask-2" fill="white">
                    <use xlink:href="#path-1"></use>
                </mask>
                <g id="Clip-2"></g>
                <path d="M103.78836,100.562 C109.845617,92.4553333 106.486046,81.0153333 108.04716,71.0253333 C109.009903,64.8886667 111.891446,59.232 113.576246,53.2553333 C115.257703,47.2753333 115.55856,40.3386667 111.824589,35.3686667 C108.60876,31.0986667 103.17996,29.2386667 98.7941314,26.172 C91.0621029,20.7686667 86.5392171,11.5353333 78.4561886,6.66866667 C72.5527029,3.112 65.0513314,2.31866667 58.53276,4.55866667 C51.6598457,6.92533333 46.2043029,12.0786667 39.4885029,14.7986667 C32.0105314,17.8286667 24.0144171,18.812 16.9676743,23.0853333 C10.4758457,27.0286667 5.04704571,33.4586667 4.25813143,40.9953333 C3.58621714,47.392 6.26718857,53.7753333 5.67550286,60.182 C4.90998857,68.512 -1.30772571,76.2053333 0.250045714,84.4286667 C1.17267429,89.292 4.73281714,93.272 8.73756,96.1953333 C12.7489886,99.112 17.2919314,101.215333 21.4069886,103.982 C25.5655029,106.788667 29.25936,110.252 33.5148171,112.902 C37.7736171,115.555333 42.8681314,117.382 47.79216,116.395333 C52.3919314,115.472 56.1526457,112.265333 60.4248171,110.328667 C73.9801029,104.175333 93.44556,114.408667 103.78836,100.562" id="Fill-1" fill="#EAE6CE" mask="url(#mask-2)"></path>
            </g>
            <path d="M81.3808543,10.6246667 C83.6372829,12.7213333 85.4156829,15.268 87.4180543,17.6046667 C91.2289114,22.058 95.89554,25.7813333 101.086997,28.5146667 C105.034911,30.5913333 108.120369,32.1713333 110.781283,35.7646667 C113.28174,39.148 113.926911,43.2546667 113.16474,47.3613333 C112.285569,52.1146667 109.95894,56.468 108.611769,61.1113333 C106.535854,68.2446667 106.826683,75.8146667 106.241683,83.218 C105.65334,90.6246667 103.955169,98.3946667 98.8105114,103.768 C97.7173971,104.908 96.4671686,105.931333 95.0130257,106.558 C89.1529971,109.088 82.7480829,104.574667 76.3832829,104.038 C70.3694829,103.534667 64.7200543,106.624667 59.3647971,109.408 C54.00954,112.188 47.9689971,114.818 42.1123114,113.348 C34.3334829,111.391333 30.1214829,103.188 23.84694,98.2013333 C17.8832829,93.4646667 9.38574,91.058 6.31031143,84.1013333 C4.09399714,79.1013333 5.48796857,73.348 6.35376857,67.948 C7.14602571,62.958 7.45022571,57.8913333 7.25634,52.8446667 C7.21288286,51.5546667 7.13265429,50.2413333 7.44354,48.988 C8.16559714,46.1213333 10.7529686,44.1646667 13.2099686,42.5113333 C18.5050543,38.958 24.2982257,35.398 26.9892257,29.628 C27.89514,27.688 28.4065971,25.568 29.4729686,23.7113333 C31.6926257,19.8246667 35.9781686,17.618 40.1901686,16.078 C44.4021686,14.5413333 48.8648829,13.4046667 52.5019114,10.788 C56.9211686,7.608 60.7420543,4.828 66.43494,4.848 C71.8971686,4.868 77.3727686,6.898 81.3808543,10.6246667" id="Fill-4" fill="#F1F3E2"></path>
            <path d="M82.4238257,60.53 C82.4238257,75.9566667 69.8814257,88.4666667 54.40734,88.4666667 C38.9299114,88.4666667 26.3875114,75.9566667 26.3875114,60.53 C26.3875114,45.1 38.9299114,32.5933333 54.40734,32.5933333 C69.8814257,32.5933333 82.4238257,45.1 82.4238257,60.53" id="Fill-6" fill="#EAE6CE"></path>
            <path d="M81.8117486,59.9816667 C81.8117486,74.7716667 69.7874914,86.7583333 54.9552343,86.7583333 C40.1229771,86.7583333 28.1020629,74.7716667 28.1020629,59.9816667 C28.1020629,45.1916667 40.1229771,33.2016667 54.9552343,33.2016667 C69.7874914,33.2016667 81.8117486,45.1916667 81.8117486,59.9816667" id="Fill-8" fill="#FE7B23"></path>
            <path d="M29.5535314,53.7153333 C28.7612743,57.6286667 29.1624171,61.6953333 30.1753029,65.562 C33.7087029,79.0786667 47.4311314,84.4053333 60.5184171,81.4986667 C71.6668457,79.0253333 81.7723029,70.5586667 80.3683029,58.2786667 C77.0254457,29.0453333 35.0725886,26.382 29.5535314,53.7153333" id="Fill-10" fill="#F99D38"></path>
            <path d="M52.8051086,70.867 C46.3166229,70.927 39.8883086,68.507 35.9504229,63.197 C27.8540229,52.297 35.2651371,39.7503333 49.0644514,37.0036667 C53.5371943,36.1136667 58.2773657,35.5436667 62.6498229,36.7503333 C73.0995943,39.6403333 76.7834229,51.107 72.8288229,59.427 C69.3756514,66.7036667 61.0419086,70.787 52.8051086,70.867" id="Fill-12" fill="#F8B765"></path>
            <path d="M55.55862,46.946 C55.55862,49.956 52.6503343,52.396 49.0601057,52.396 C45.4698771,52.396 42.5615914,49.956 42.5615914,46.946 C42.5615914,43.9326667 45.4698771,41.4926667 49.0601057,41.4926667 C52.6503343,41.4926667 55.55862,43.9326667 55.55862,46.946" id="Fill-14" fill="#FBCE95"></path>
            <path d="M86.0865943,66.956 C86.0865943,67.356 85.7589943,67.6793333 85.3578514,67.6793333 C84.9600514,67.6793333 84.6357943,67.356 84.6357943,66.956 C84.6357943,66.556 84.9600514,66.2326667 85.3578514,66.2326667 C85.7589943,66.2326667 86.0865943,66.556 86.0865943,66.956" id="Fill-16" fill="#EAE6CE"></path>
            <path d="M85.35852,75.9353333 C85.35852,76.5086667 84.8938629,76.9753333 84.3155486,76.9753333 C83.7405771,76.9753333 83.2725771,76.5086667 83.2725771,75.9353333 C83.2725771,75.3586667 83.7405771,74.8953333 84.3155486,74.8953333 C84.8938629,74.8953333 85.35852,75.3586667 85.35852,75.9353333" id="Fill-18" fill="#EAE6CE"></path>
            <path d="M95.9911457,78.253 C95.9911457,78.9596667 95.4161743,79.5296667 94.7108314,79.5296667 C94.0021457,79.5296667 93.4271743,78.9596667 93.4271743,78.253 C93.4271743,77.5463333 94.0021457,76.9763333 94.7108314,76.9763333 C95.4161743,76.9763333 95.9911457,77.5463333 95.9911457,78.253" id="Fill-20" fill="#EAE6CE"></path>
            <path d="M107.744966,35.6393333 C107.744966,36.6826667 106.89588,37.5293333 105.849566,37.5293333 C104.799909,37.5293333 103.950823,36.6826667 103.950823,35.6393333 C103.950823,34.5926667 104.799909,33.746 105.849566,33.746 C106.89588,33.746 107.744966,34.5926667 107.744966,35.6393333" id="Fill-22" fill="#EAE6CE"></path>
            <path d="M111.291737,39.2036667 C111.291737,39.6436667 110.937394,39.997 110.49948,39.997 C110.058223,39.997 109.700537,39.6436667 109.700537,39.2036667 C109.700537,38.767 110.058223,38.4103333 110.49948,38.4103333 C110.937394,38.4103333 111.291737,38.767 111.291737,39.2036667" id="Fill-24" fill="#EAE6CE"></path>
            <path d="M65.1201943,27.0436667 C65.1201943,27.7736667 64.5285086,28.3636667 63.7964229,28.3636667 C63.0643371,28.3636667 62.4726514,27.7736667 62.4726514,27.0436667 C62.4726514,26.3136667 63.0643371,25.7236667 63.7964229,25.7236667 C64.5285086,25.7236667 65.1201943,26.3136667 65.1201943,27.0436667" id="Fill-26" fill="#EAE6CE"></path>
            <path d="M75.1962343,10.089 C75.1962343,10.6956667 74.7048343,11.1856667 74.0964343,11.1856667 C73.4880343,11.1856667 72.9932914,10.6956667 72.9932914,10.089 C72.9932914,9.48233333 73.4880343,8.99233333 74.0964343,8.99233333 C74.7048343,8.99233333 75.1962343,9.48233333 75.1962343,10.089" id="Fill-28" fill="#EAE6CE"></path>
            <path d="M12.9649371,49.905 C12.9649371,50.525 12.4635086,51.0283333 11.8383943,51.0283333 C11.2166229,51.0283333 10.7118514,50.525 10.7118514,49.905 C10.7118514,49.285 11.2166229,48.7816667 11.8383943,48.7816667 C12.4635086,48.7816667 12.9649371,49.285 12.9649371,49.905" id="Fill-30" fill="#EAE6CE"></path>
            <path d="M12.1910657,64.407 C12.1910657,64.817 11.8601229,65.147 11.4522943,65.147 C11.0444657,65.147 10.7135229,64.817 10.7135229,64.407 C10.7135229,64.0003333 11.0444657,63.6703333 11.4522943,63.6703333 C11.8601229,63.6703333 12.1910657,64.0003333 12.1910657,64.407" id="Fill-32" fill="#EAE6CE"></path>
        </g>
    </g>
</svg>