<?xml version="1.0" encoding="UTF-8"?>
<svg width="100px" height="100px" viewBox="0 0 100 100" version="1.1" xmlns="http://www.w3.org/2000/svg" xmlns:xlink="http://www.w3.org/1999/xlink">
    <!-- Generator: Sketch 48.2 (47327) - http://www.bohemiancoding.com/sketch -->
    <title>Neuron 蓝牙模块 感恩节</title>
    <desc>Created with Sketch.</desc>
    <defs>
        <polygon id="path-1" points="0 82.4699213 61.6953954 82.4699213 61.6953954 0.0918355906 0 0.0918355906"></polygon>
        <polygon id="path-3" points="2.5684374e-05 1.30120482e-05 12.0923412 1.30120482e-05 12.0923412 10.6830197 2.5684374e-05 10.6830197"></polygon>
        <path d="M3.63706661,0.115851214 C3.54515712,0.111377265 3.45201721,0.109257584 3.35788674,0.109266142 C2.28156371,0.109266142 1.07575282,0.38747173 0.0991141892,0.605897843 L0.0991141892,2.49053875 L3.63706661,2.49053875 L3.63706661,0.115851214 Z" id="path-5"></path>
        <path d="M3.59216728,0.220863745 C3.19014596,0.213008291 2.74693576,0.179191708 2.28933221,0.145428031 C1.54433095,0.0903402125 0.760941354,0.0352523935 0.0542148632,0.0921301411 L0.0542148632,1.84014505 L3.59216728,1.84014505 L3.59216728,0.220863745 Z" id="path-7"></path>
    </defs>
    <g id="裁剪面板" stroke="none" stroke-width="1" fill="none" fill-rule="evenodd">
        <g id="Neuron-蓝牙模块-感恩节">
            <g id="Page-1" transform="translate(19.200000, 8.800000)">
                <g id="Group-36" transform="translate(0.000000, 0.038243)">
                    <path d="M30.3804376,9.35332482 L26.9481307,5.9215875 C26.4797517,5.45356419 25.7201972,5.45356419 25.2519484,5.9215875 C24.7835694,6.38987096 24.7835694,7.14927065 25.2519484,7.61755411 L29.8835656,12.2482272 L25.2519484,16.8789003 C24.7835694,17.3471837 24.7835694,18.1065834 25.2518183,18.5747368 C25.4861379,18.8090086 25.7929261,18.9259494 26.0999745,18.9259494 C26.4068928,18.9259494 26.7139412,18.8088785 26.9480006,18.5748669 L30.3804376,15.1431295 L30.3804376,9.35332482 Z" id="Fill-1" fill="#076BAD"></path>
                    <mask id="mask-2" fill="white">
                        <use xlink:href="#path-1"></use>
                    </mask>
                    <g id="Clip-4"></g>
                    <polygon id="Fill-3" fill="#076BAD" mask="url(#mask-2)" points="28.9689777 23.3595402 31.5710829 23.3595402 31.5710829 0.0918355906 28.9689777 0.0918355906"></polygon>
                    <path d="M30.1770181,4.18586882 L30.1770181,9.35324677 L32.7611688,6.76962283 L30.1770181,4.18586882 Z M28.9774475,13.4474751 C28.8228825,13.4474751 28.6671465,13.417557 28.5186964,13.3561598 C28.0706139,13.1705375 27.7782673,12.7332128 27.7782673,12.2482792 L27.7782673,1.29096646 C27.7782673,0.806032913 28.0706139,0.368708189 28.5186964,0.183085827 C28.9666488,-0.00240645669 29.4826463,0.100095591 29.8257339,0.443113228 L35.3053772,5.92163953 C35.7738863,6.38992299 35.7738863,7.1491926 35.3055073,7.61747606 L29.8257339,13.0961324 C29.5963583,13.3255913 29.2895701,13.4474751 28.9774475,13.4474751 Z" id="Fill-5" fill="#076BAD" mask="url(#mask-2)"></path>
                    <path d="M23.4978822,18.9259234 C23.1908338,18.9259234 22.8840456,18.8089826 22.649726,18.5747108 C22.1814772,18.1065574 22.1814772,17.3471577 22.6498561,16.8788742 L27.2814734,12.2483312 L22.6498561,7.61752809 C22.1814772,7.14924463 22.1814772,6.38984494 22.6498561,5.92156148 C23.118105,5.45353817 23.8775294,5.45353817 24.3460384,5.92156148 L29.8256818,11.4003479 C30.0506338,11.6252541 30.176966,11.9302887 30.176966,12.2483312 C30.176966,12.5662437 30.0506338,12.8712783 29.8256818,13.0961845 L24.3459083,18.5748409 C24.111849,18.8088525 23.8048005,18.9259234 23.4978822,18.9259234" id="Fill-6" fill="#076BAD" mask="url(#mask-2)"></path>
                    <path d="M30.1770181,15.1431556 L30.1770181,20.3105335 L32.7611688,17.7267795 L30.1770181,15.1431556 Z M28.9774475,24.4046318 C28.8228825,24.4046318 28.6671465,24.3747137 28.5186964,24.3134466 C28.0706139,24.1276941 27.7782673,23.6903694 27.7782673,23.2054359 L27.7782673,12.2482532 C27.7782673,11.7633197 28.0706139,11.3259949 28.5186964,11.1403726 C28.9666488,10.9550104 29.4826463,11.0573823 29.8257339,11.4004 L35.3053772,16.8789263 C35.7738863,17.3472097 35.7738863,18.1064793 35.3053772,18.5747628 L29.8257339,24.0534192 C29.5963583,24.282748 29.2895701,24.4046318 28.9774475,24.4046318 Z" id="Fill-7" fill="#076BAD" mask="url(#mask-2)"></path>
                    <polygon id="Fill-8" fill="#076BAD" mask="url(#mask-2)" points="23.5045566 18.9259364 26.1066619 18.9259364 26.1066619 16.6163883 23.5045566 16.6163883"></polygon>
                    <polygon id="Fill-9" fill="#076BAD" mask="url(#mask-2)" points="23.5045566 7.88017008 26.1066619 7.88017008 26.1066619 5.57049197 23.5045566 5.57049197"></polygon>
                    <path d="M32.7791233,4.18586882 L32.7791233,9.35324677 L35.3632741,6.76962283 L32.7791233,4.18586882 Z M31.5795528,13.4474751 C31.4249877,13.4474751 31.2692517,13.417557 31.1208016,13.3561598 C30.6727191,13.1705375 30.3803726,12.7332128 30.3803726,12.2482792 L30.3803726,1.29096646 C30.3803726,0.806032913 30.6727191,0.368708189 31.1208016,0.183085827 C31.5687541,-0.00240645669 32.0847515,0.100095591 32.4278391,0.443113228 L37.9074825,5.92163953 C38.3759915,6.38992299 38.3759915,7.1491926 37.9076126,7.61747606 L32.4278391,13.0961324 C32.1984635,13.3255913 31.8916753,13.4474751 31.5795528,13.4474751 Z" id="Fill-10" fill="#4587BE" mask="url(#mask-2)"></path>
                    <path d="M26.0999875,18.9259234 C25.7929391,18.9259234 25.4861509,18.8089826 25.2518313,18.5747108 C24.7835824,18.1065574 24.7835824,17.3471577 25.2519614,16.8788742 L29.8835787,12.2483312 L25.2519614,7.61752809 C24.7835824,7.14924463 24.7835824,6.38984494 25.2519614,5.92156148 C25.7202102,5.45353817 26.4796347,5.45353817 26.9481437,5.92156148 L32.4277871,11.4003479 C32.6527391,11.6252541 32.7790713,11.9302887 32.7790713,12.2483312 C32.7790713,12.5662437 32.6527391,12.8712783 32.4277871,13.0961845 L26.9480136,18.5748409 C26.7139542,18.8088525 26.4069058,18.9259234 26.0999875,18.9259234" id="Fill-11" fill="#4587BE" mask="url(#mask-2)"></path>
                    <path d="M32.7791233,15.1431556 L32.7791233,20.3105335 L35.3632741,17.7267795 L32.7791233,15.1431556 Z M31.5795528,24.4046318 C31.4249877,24.4046318 31.2692517,24.3747137 31.1208016,24.3134466 C30.6727191,24.1276941 30.3803726,23.6903694 30.3803726,23.2054359 L30.3803726,12.2482532 C30.3803726,11.7633197 30.6727191,11.3259949 31.1208016,11.1403726 C31.5687541,10.9550104 32.0847515,11.0573823 32.4278391,11.4004 L37.9074825,16.8789263 C38.3759915,17.3472097 38.3759915,18.1064793 37.9074825,18.5747628 L32.4278391,24.0534192 C32.1984635,24.282748 31.8916753,24.4046318 31.5795528,24.4046318 Z" id="Fill-12" fill="#4587BE" mask="url(#mask-2)"></path>
                    <path d="M10.3711589,69.9418167 C9.49151722,69.4665089 9.1078368,68.3882863 9.51428564,67.4547111 C12.3924743,60.8418982 17.3876056,58.0820176 17.5988966,57.9678085 C18.5442414,57.4563389 19.725337,57.8082019 20.2369109,58.753354 C20.7469235,59.6960346 20.3982414,60.8731171 19.4584911,61.386668 C19.3760044,61.432976 15.3897092,63.7092239 13.0835934,69.0074611 C12.6546364,69.9930677 11.5078886,70.4441808 10.5223412,70.0153111 C10.4704292,69.9929376 10.4199484,69.9682226 10.3711589,69.9418167" id="Fill-13" fill="#85B628" mask="url(#mask-2)"></path>
                    <path d="M37.6595929,82.4698952 C38.8912995,82.4698952 39.8898573,81.4715409 39.8898573,80.2400855 L39.8898573,61.1575343 C39.8898573,60.9245633 39.7009445,60.735819 39.467926,60.735819 L35.8512599,60.735819 C35.6182413,60.735819 35.4293285,60.9245633 35.4293285,61.1575343 L35.4293285,80.2400855 C35.4293285,81.4715409 36.4278864,82.4698952 37.6595929,82.4698952" id="Fill-14" fill="#85B628" mask="url(#mask-2)"></path>
                    <g id="Page-1" mask="url(#mask-2)">
                        <g transform="translate(45.200000, 58.600000)">
                            <mask id="mask-4" fill="white">
                                <use xlink:href="#path-3"></use>
                            </mask>
                            <g id="Clip-2" stroke="none" fill="none"></g>
                            <path d="M11.855493,9.78729683 C11.8766484,9.75021249 11.8968952,9.71182695 11.9157143,9.67253056 C12.3420654,8.78497876 11.9699654,7.71890165 11.0845569,7.29119562 C5.73239091,4.70752333 3.317959,0.88302213 3.29420793,0.844636588 C2.77687602,0.0103040578 1.6821207,-0.250847749 0.847848358,0.264429359 C0.0133164433,0.779576347 -0.250151642,1.87115707 0.26030155,2.70965346 C0.37711006,2.90132093 3.19271432,7.44135466 9.54060793,10.5059523 C10.3868207,10.9145306 11.3956569,10.5918318 11.855493,9.78729683" id="Fill-1" stroke="none" fill="#85B628" fill-rule="evenodd" mask="url(#mask-4)"></path>
                        </g>
                    </g>
                    <path d="M23.4070297,81.3911523 C24.6115443,81.6488382 25.7969333,80.8815037 26.0546718,79.6773649 L30.0482529,61.0171793 C30.0970424,60.7894115 29.9518449,60.5651557 29.7240306,60.5163762 L26.1873792,59.7598382 C25.9595649,59.7111888 25.7353935,59.8562266 25.686604,60.0841245 L21.6928929,78.74418 C21.4351544,79.9484489 22.2026453,81.1335963 23.4070297,81.3911523" id="Fill-15" fill="#85B628" mask="url(#mask-2)"></path>
                    <path d="M54.3326995,50.2986521 L54.3326995,33.276158 C54.3326995,27.1188808 49.3400401,22.1272392 43.1815075,22.1272392 L12.1716987,22.1272392 C6.01303592,22.1272392 1.02050665,27.1188808 1.02050665,33.276158 L1.02050665,50.2986521 C1.02050665,56.4560594 6.01303592,61.4475709 12.1716987,61.4475709 L43.1815075,61.4475709 C49.3400401,61.4475709 54.3326995,56.4560594 54.3326995,50.2986521" id="Fill-16" fill="#85B628" mask="url(#mask-2)"></path>
                    <path d="M60.8379627,50.2986521 L60.8379627,33.276158 C60.8379627,27.1188808 55.8453033,22.1272392 49.6867707,22.1272392 L18.6769618,22.1272392 C12.5182991,22.1272392 7.52576981,27.1188808 7.52576981,33.276158 L7.52576981,50.2986521 C7.52576981,56.4560594 12.5182991,61.4475709 18.6769618,61.4475709 L49.6867707,61.4475709 C55.8453033,61.4475709 60.8379627,56.4560594 60.8379627,50.2986521" id="Fill-18" fill="#A9C653" mask="url(#mask-2)"></path>
                    <path d="M49.793496,25.7813591 L18.5701844,25.7813591 C14.5671057,25.7813591 11.3218901,29.0259132 11.3218901,33.0281758 L11.3218901,50.2081954 C11.3218901,54.2105881 14.5671057,57.4550121 18.5701844,57.4550121 L49.793496,57.4550121 C53.7967048,57.4550121 57.0417903,54.2105881 57.0417903,50.2081954 L57.0417903,33.0281758 C57.0417903,29.0259132 53.7967048,25.7813591 49.793496,25.7813591" id="Fill-19" fill="#FFFFFF" mask="url(#mask-2)"></path>
                    <polygon id="Fill-20" fill="#E1B88B" mask="url(#mask-2)" points="0.650526316 33.4713411 61.0448691 33.4713411 61.0448691 28.3540435 0.650526316 28.3540435"></polygon>
                    <polygon id="Fill-21" fill="#A2886D" mask="url(#mask-2)" points="0.650396211 33.4713411 6.72097768 33.4713411 6.72097768 28.3540435 0.650396211 28.3540435"></polygon>
                    <polygon id="Fill-22" fill="#521D23" mask="url(#mask-2)" points="0.650396211 33.4713411 4.71020084 33.4713411 4.71020084 28.3540435 0.650396211 28.3540435"></polygon>
                    <polygon id="Fill-23" fill="#B71228" mask="url(#mask-2)" points="8.69987874 33.4713411 12.7596834 33.4713411 12.7596834 28.3540435 8.69987874 28.3540435"></polygon>
                    <polygon id="Fill-24" fill="#B71228" mask="url(#mask-2)" points="16.8524046 33.4713411 20.9122093 33.4713411 20.9122093 28.3540435 16.8524046 28.3540435"></polygon>
                    <polygon id="Fill-25" fill="#B71228" mask="url(#mask-2)" points="24.9016269 33.4713411 28.9614316 33.4713411 28.9614316 28.3540435 24.9016269 28.3540435"></polygon>
                    <polygon id="Fill-26" fill="#B71228" mask="url(#mask-2)" points="33.0541528 33.4713411 37.1139575 33.4713411 37.1139575 28.3540435 33.0541528 28.3540435"></polygon>
                    <polygon id="Fill-27" fill="#B71228" mask="url(#mask-2)" points="41.1036354 33.4713411 45.1633099 33.4713411 45.1633099 28.3540435 41.1036354 28.3540435"></polygon>
                    <polygon id="Fill-28" fill="#B71228" mask="url(#mask-2)" points="49.2561613 33.4713411 53.3158358 33.4713411 53.3158358 28.3540435 49.2561613 28.3540435"></polygon>
                    <polygon id="Fill-29" fill="#B71228" mask="url(#mask-2)" points="57.3053836 33.4713411 61.3651882 33.4713411 61.3651882 28.3540435 57.3053836 28.3540435"></polygon>
                    <path d="M61.044817,27.7037018 L0.650604379,27.7037018 C0.291253642,27.7037018 7.80631579e-05,27.994818 7.80631579e-05,28.3540955 L7.80631579e-05,33.4713931 C7.80631579e-05,33.8306706 0.291253642,34.1217868 0.650604379,34.1217868 L61.044817,34.1217868 C61.4041677,34.1217868 61.6953433,33.8306706 61.6953433,33.4713931 L61.6953433,28.3540955 C61.6953433,27.994818 61.4041677,27.7037018 61.044817,27.7037018 Z M0.650604379,33.4713931 L61.044817,33.4713931 L61.044817,28.3540955 L0.650604379,28.3540955 L0.650604379,33.4713931 Z" id="Fill-30" fill="#807261" mask="url(#mask-2)"></path>
                    <path d="M45.9219797,44.1847042 L43.6421452,44.1847042 C43.0981751,44.1847042 42.6571182,43.7438673 42.6571182,43.2000081 C42.6571182,42.6561489 43.0981751,42.2153121 43.6421452,42.2153121 L45.9219797,42.2153121 C46.4659498,42.2153121 46.9068765,42.6561489 46.9068765,43.2000081 C46.9068765,43.7438673 46.4659498,44.1847042 45.9219797,44.1847042" id="Fill-31" fill="#EBC3C4" mask="url(#mask-2)"></path>
                    <path d="M24.7214962,44.1847042 L22.4417918,44.1847042 C21.8978217,44.1847042 21.4567648,43.7438673 21.4567648,43.2000081 C21.4567648,42.6561489 21.8978217,42.2153121 22.4417918,42.2153121 L24.7214962,42.2153121 C25.2654663,42.2153121 25.7065232,42.6561489 25.7065232,43.2000081 C25.7065232,43.7438673 25.2654663,44.1847042 24.7214962,44.1847042" id="Fill-32" fill="#EBC3C4" mask="url(#mask-2)"></path>
                    <path d="M30.2530646,39.4307295 C30.3687282,41.0015603 29.2124827,39.7681537 27.6706052,39.8850945 C26.1285976,40.0021654 24.7848705,41.4250967 24.669337,39.8542659 C24.5535433,38.2835651 25.7099189,36.9152668 27.2517964,36.7984561 C28.7936739,36.6813852 30.137401,37.8600287 30.2530646,39.4307295" id="Fill-33" fill="#514740" mask="url(#mask-2)"></path>
                    <path d="M38.0249415,39.4307295 C37.9092779,41.0015603 39.0655234,39.7681537 40.6074009,39.8850945 C42.1494085,40.0021654 43.4931356,41.4250967 43.6086691,39.8542659 C43.7244628,38.2835651 42.5680872,36.9152668 41.0262097,36.7984561 C39.4843323,36.6813852 38.1406051,37.8600287 38.0249415,39.4307295" id="Fill-34" fill="#514740" mask="url(#mask-2)"></path>
                    <path d="M41.0501491,44.5035402 C41.3353398,48.3774151 38.4160379,50.6865729 34.6605495,50.9715755 C30.904931,51.2564479 27.2838413,49.3826637 26.9986506,45.5087887 C26.7133297,41.6347837 31.3651133,43.1628186 33.6316771,42.96692 C35.4337651,42.8110857 40.7648283,40.6296652 41.0501491,44.5035402" id="Fill-35" fill="#514740" mask="url(#mask-2)"></path>
                </g>
                <g id="Group-43" transform="translate(29.403789, 42.183755)">
                    <g id="Group-39" transform="translate(5.464421, 0.000000)">
                        <mask id="mask-6" fill="white">
                            <use xlink:href="#path-5"></use>
                        </mask>
                        <g id="Clip-38"></g>
                        <path d="M3.63706661,-0.728922236 C3.63706661,-0.728922236 3.31128303,2.36838265 2.22204177,2.48753477 C1.3032384,2.58795556 0.0991141895,0.137272094 0.0991141895,0.137272094 L3.63706661,-0.728922236 Z" id="Fill-37" fill="#42ABCF" mask="url(#mask-6)"></path>
                    </g>
                    <g id="Group-42" transform="translate(0.000000, 0.650394)">
                        <mask id="mask-8" fill="white">
                            <use xlink:href="#path-7"></use>
                        </mask>
                        <g id="Clip-41"></g>
                        <path d="M0.0542148632,-1.37931594 C0.0542148632,-1.37931594 0.379998442,1.71798894 1.46923971,1.83714107 C2.38804307,1.93756186 3.59216728,-0.513121606 3.59216728,-0.513121606 L0.0542148632,-1.37931594 Z" id="Fill-40" fill="#42ABCF" mask="url(#mask-8)"></path>
                    </g>
                </g>
                <g id="Group-56" transform="translate(9.367579, 8.493361)">
                    <path d="M22.8540824,39.5543303 C21.5617468,39.5543303 20.3978251,40.0773769 19.5788125,40.9131328 C21.0398946,42.134312 23.1438268,42.679472 25.2929055,42.5163533 C25.8902188,42.471216 26.4660647,42.3741772 27.0114659,42.228359 C26.3432453,40.6601297 24.7341034,39.5543303 22.8540824,39.5543303" id="Fill-44" fill="#DB6C6D"></path>
                    <path d="M9.27581571,12.342027 C11.0741307,18.3654531 10.0686772,21.2686805 7.94796139,21.9015136 C5.8272456,22.5343466 3.39453739,20.6573104 1.59622244,14.6340144 C-0.202222611,8.61058822 -0.685303453,0.721702866 1.43541234,0.0887397165 C3.55612813,-0.544093354 7.47737065,6.31860082 9.27581571,12.342027" id="Fill-46" fill="#FFFFE7"></path>
                    <path d="M1.43545137,0.0887657323 C3.55616716,-0.544067339 7.47740968,6.31862683 9.27585474,12.342053 C11.0741697,18.3654791 10.0685861,21.2685764 7.94800042,21.9014095" id="Fill-48" fill="#F8EAA6"></path>
                    <path d="M4.89148952,2.81686813 C4.74681246,2.60549017 4.60239562,2.40360797 4.45862931,2.21200198 L2.99065162,5.30163222 L0.0513135158,3.9054971 C0.0422061474,4.13625679 0.0372621474,4.3741708 0.0366116211,4.61871883 L3.2991312,6.16821679 L4.89148952,2.81686813 Z" id="Fill-50" fill="#741E27"></path>
                    <path d="M5.71500379,4.1153011 C5.58034484,3.88753323 5.44503537,3.66626929 5.30959579,3.45241984 L3.60768884,7.03465827 L0.0463174737,5.34311433 C0.0532130526,5.58336976 0.0638816842,5.82882835 0.0779330526,6.07831937 L3.91616842,7.90124283 L5.71500379,4.1153011 Z" id="Fill-52" fill="#B71228"></path>
                    <path d="M0.374911326,9.00717228 L4.80278375,11.1101553 L6.99128438,6.50406709 C6.74759722,6.00196315 6.49727469,5.51455811 6.24304901,5.0471852 L4.18582459,9.37711622 L0.188600589,7.47874709 C0.239081432,7.97929008 0.301141642,8.49023937 0.374911326,9.00717228" id="Fill-54" fill="#741E27"></path>
                </g>
            </g>
        </g>
    </g>
</svg>