<?xml version="1.0" encoding="UTF-8"?>
<svg width="120px" height="120px" viewBox="0 0 120 120" version="1.1" xmlns="http://www.w3.org/2000/svg" xmlns:xlink="http://www.w3.org/1999/xlink">
    <!-- Generator: Sketch 51.1 (57501) - http://www.bohemiancoding.com/sketch -->
    <title>Boom7</title>
    <desc>Created with Sketch.</desc>
    <defs>
        <polygon id="path-1" points="0 0.487415065 119.603597 0.487415065 119.603597 94.19739 0 94.19739"></polygon>
    </defs>
    <g id="Boom7" stroke="none" stroke-width="1" fill="none" fill-rule="evenodd">
        <g id="Group" transform="translate(0.000000, 4.000000)">
            <g id="Group-23" transform="translate(0.000000, 2.652825)">
                <g id="Group-17" opacity="0.305078125" transform="translate(4.192140, 7.875000)" fill="#140203">
                    <path d="M112.368157,47.36676 C112.251825,47.362035 101.692349,46.921035 94.6830917,43.04706 C96.9484192,40.803735 99.2871092,40.115985 99.3033537,40.11126 C100.417939,39.811485 101.12117,38.71266 100.92938,37.57236 C100.738114,36.432585 99.7178515,35.624085 98.5597729,35.70756 C98.5445764,35.70861 93.8651004,36.033585 88.7396856,34.641285 C88.1973275,27.889785 92.3092926,24.40641 92.4837904,24.26256 C93.3840524,23.54121 93.5910393,22.25286 92.9622183,21.285285 C92.3318253,20.31771 91.0720873,19.98696 90.0497293,20.52141 C89.9915633,20.55186 84.2383755,23.52126 77.6100786,23.653035 C76.9183755,17.342535 79.1774148,10.01511 79.2020437,9.93636 C79.5295546,8.89476 79.060559,7.76916 78.0921747,7.268835 C77.1232664,6.769035 75.9358428,7.04046 75.2792489,7.911435 C75.2305153,7.97601 70.8350568,13.75836 65.4235284,17.123085 C62.3910393,11.683035 61.4341834,4.62126 61.4237031,4.544085 C61.2832664,3.463635 60.3882445,2.641485 59.3014323,2.593185 C58.2219563,2.54961 57.251476,3.28776 57.0172402,4.351935 C56.9988996,4.43436 55.3052751,11.97231 51.5082445,17.19396 C45.8016943,14.02401 42.2053624,8.729385 42.1681572,8.67426 C41.6163668,7.846335 40.5856245,7.48251 39.6366288,7.78071 C38.6881572,8.078385 38.0493799,8.96826 38.0671965,9.964185 C38.0687686,10.03191 38.1536594,16.213785 35.9491179,21.557235 C30.9311266,20.37336 27.1435284,18.019785 27.1047511,17.99511 C26.1342707,17.381385 24.8661485,17.608185 24.1576769,18.510135 C23.8490306,18.90231 23.7017817,19.36956 23.6892052,19.83786 L14.1693799,10.900785 L11.021083,11.795385 L23.71069,20.203785 C23.7767162,20.686785 23.9910393,21.150885 24.3620437,21.51261 C24.4469345,21.596085 26.1002096,23.23671 26.9386376,26.220285 C26.7934847,26.223435 26.6483319,26.224485 26.501607,26.224485 C18.4642271,26.224485 9.26876856,21.82761 9.17811354,21.78351 C8.12169432,21.272685 6.8488559,21.664335 6.26352838,22.68441 C5.67715284,23.703435 5.97689083,25.003335 6.94999127,25.661685 C7.06055895,25.736235 17.1830044,32.635785 21.7272838,39.48861 C15.7388122,42.705285 6.67959825,42.97566 3.83470742,42.97566 C3.041869,42.97566 2.57444541,42.95676 2.54981659,42.95571 C1.37234934,42.900585 0.362043668,43.77051 0.227895197,44.939685 C0.0932227074,46.109385 0.884489083,47.18406 2.03942358,47.40141 C2.1478952,47.421885 11.7253624,49.25151 18.8378515,52.79946 C16.9356681,54.13401 15.2106026,54.71466 15.191738,54.72096 C14.1269345,55.06431 13.4797729,56.141085 13.6731354,57.244635 C13.8659738,58.348185 14.8537467,59.134635 15.9609956,59.09736 C15.9830044,59.096835 16.2004716,59.089485 16.5740961,59.089485 C17.9758428,59.089485 21.1639651,59.187135 24.6402969,59.94051 L15.1335721,62.43321 L15.2954934,61.59426 C15.3924367,61.09131 15.1959301,60.576285 14.7887686,60.266535 C14.5508646,60.085935 14.2647511,59.99301 13.9765415,59.99301 C13.7721747,59.99301 13.5672838,60.039735 13.3775895,60.134235 L11.1945328,61.225185 L9.05968559,60.04236 C8.85689083,59.93001 8.63261135,59.87436 8.40937991,59.87436 C8.14055895,59.87436 7.87226201,59.95521 7.64221834,60.11481 C7.22300437,60.40671 7.0050131,60.91281 7.08047162,61.419435 L7.44256769,63.836535 L5.65881223,65.504985 C5.28518777,65.85411 5.14265502,66.38646 5.28990393,66.87681 C5.43715284,67.36716 5.8500786,67.73151 6.35470742,67.816035 L8.7599476,68.21871 L9.79278603,70.43316 C10.0097293,70.896735 10.4703406,71.198085 10.9812576,71.20911 C10.99069,71.20911 11.0006463,71.20911 11.0100786,71.20911 C11.5105153,71.20911 11.9700786,70.930335 12.2016943,70.48461 L13.3283319,68.315835 L15.7487686,68.01606 C16.2565415,67.95306 16.6841397,67.607085 16.8528734,67.12356 C17.021083,66.63951 16.900559,66.102435 16.542655,65.737035 L15.4857118,64.66026 L24.8881572,59.99721 C25.2822183,60.085935 25.6778515,60.180435 26.0761048,60.28701 C26.9150568,66.118185 22.1381135,70.493535 21.9269345,70.683585 C21.0911266,71.42436 20.9265852,72.669135 21.5423057,73.601535 C22.1590742,74.53446 23.3664105,74.87046 24.3740961,74.38851 C24.4364541,74.358585 30.4060611,71.53776 36.6334847,71.25321 C37.3754934,77.69811 35.5099913,85.177785 35.4890306,85.25811 C35.231738,86.27136 35.7070218,87.32871 36.6345328,87.806985 C37.5630917,88.285785 38.6981135,88.05741 39.370952,87.257835 C39.4175895,87.20271 43.4032664,82.50291 48.3526114,79.10826 L44.562393,91.457835 L46.7475459,93.900135 L48.7047511,78.869385 C48.8462358,78.77541 48.9877205,78.68196 49.1297293,78.590085 C52.0506026,84.021735 53.3071965,90.582135 53.320821,90.655635 C53.5131354,91.67991 54.3845764,92.436435 55.4237031,92.48211 C55.4572402,92.483685 55.4902533,92.484735 55.5232664,92.484735 C56.5230917,92.484735 57.4071092,91.81641 57.6785502,90.84411 C57.701607,90.76221 59.8196856,83.27466 63.7257118,77.95746 C63.9368908,78.081885 64.1444017,78.21051 64.3508646,78.34176 L64.9901659,89.448135 L69.2383755,90.39471 L64.4048384,78.375885 C69.3400349,81.526935 72.8687686,86.346435 72.9075459,86.399985 C73.4782009,87.19011 74.4911266,87.521385 75.4170655,87.218985 C76.3419563,86.91606 76.9665852,86.049285 76.961345,85.07436 C76.9498166,82.92081 77.2899039,77.131635 78.8462358,73.36581 C83.8144454,74.570685 87.8944454,76.915335 87.9379389,76.940535 C88.9000349,77.500185 90.1236157,77.264985 90.8147948,76.391385 C91.5054498,75.517785 91.4488559,74.265135 90.6853624,73.45506 C90.6680699,73.436685 89.4507773,72.12996 88.4572402,70.08561 C96.5051004,70.264635 105.888681,73.142685 105.985624,73.17261 C107.10545,73.52016 108.307022,72.940035 108.733048,71.843835 C109.159598,70.74711 108.667546,69.50706 107.606934,69.00306 C107.491651,68.94846 97.0149694,63.91266 92.5901659,57.11496 C100.001869,53.203185 112.38545,51.852885 112.520646,51.839235 C113.689205,51.715335 114.562218,50.708385 114.522393,49.532385 C114.482568,48.35586 113.541956,47.41086 112.368157,47.36676" id="Fill-1"></path>
                    <path d="M21.9070742,8.101485 L24.2730131,8.701035 L25.1208734,10.99266 C25.2990393,11.473035 25.7329258,11.81061 26.2412227,11.863635 C26.2878603,11.86836 26.3339738,11.870985 26.3806114,11.870985 C26.8386026,11.870985 27.268821,11.635785 27.5172052,11.242035 L28.319476,9.965235 L35.3800873,18.505935 L30.4024454,9.10896 L31.2544978,9.07431 C31.7648908,9.05331 32.220786,8.744085 32.4272489,8.275785 C32.6347598,7.80696 32.5593013,7.261485 32.2312664,6.86826 L30.6702183,4.990335 L31.3283843,2.637285 C31.4662009,2.143785 31.3131878,1.61511 30.9322271,1.27281 C30.6812227,1.046535 30.36,0.927885 30.0345852,0.927885 C29.8658515,0.927885 29.6971179,0.959385 29.5357205,1.024485 L27.270917,1.93221 L25.2403493,0.577185 C25.0155459,0.427035 24.7561572,0.351435 24.4957205,0.351435 C24.2641048,0.351435 24.0319651,0.41181 23.8228821,0.53256 C23.3811354,0.789285 23.1212227,1.27596 23.1558079,1.78626 L23.3172052,4.22541 L21.4040175,5.741085 C21.0020961,6.05871 20.8160699,6.57741 20.9229694,7.07826 C21.030393,7.57911 21.4118777,7.97601 21.9070742,8.101485" id="Fill-3"></path>
                    <polygon id="Fill-5" points="102.958323 24.3244575 100.438323 22.5189825 89.8893275 31.2728325"></polygon>
                    <polygon id="Fill-7" points="107.497939 29.9815425 108.607808 26.8961175 92.9852751 32.8664175"></polygon>
                    <polygon id="Fill-9" points="12.2260611 17.893995 12.2302533 20.99727 25.4779389 24.485895"></polygon>
                    <path d="M92.3848559,85.05861 L90.018917,84.45906 L89.1710568,82.167435 C88.9934148,81.687585 88.5590044,81.35001 88.0507074,81.29646 C88.0045939,81.29226 87.9579563,81.289635 87.9118428,81.289635 C87.4533275,81.289635 87.0231092,81.52431 86.7752489,81.91806 L85.9719301,83.195385 L78.9118428,74.65416 L83.8894847,84.051135 L83.0379563,84.085785 C82.5265153,84.106785 82.0716681,84.416535 81.8646812,84.884835 C81.6571703,85.353135 81.7331528,85.89861 82.0606638,86.29236 L83.6217118,88.16976 L82.9635459,90.52281 C82.8252052,91.01631 82.9787424,91.544985 83.358655,91.88781 C83.6101834,92.11356 83.9319301,92.23221 84.256821,92.23221 C84.4255546,92.23221 84.5948122,92.200185 84.7551616,92.136135 L87.0204891,91.22841 L89.0515808,92.583435 C89.2763843,92.73306 89.5357729,92.80866 89.7962096,92.80866 C90.0283493,92.80866 90.2604891,92.748285 90.469048,92.627535 C90.9113188,92.370285 91.1707074,91.885185 91.1361223,91.37331 L90.9747249,88.93521 L92.8879127,87.41901 C93.28931,87.101385 93.4758603,86.58321 93.3684367,86.081835 C93.2620611,85.580985 92.8800524,85.184085 92.3848559,85.05861" id="Fill-11"></path>
                    <path d="M80.8718253,14.18487 L81.8968035,14.22687 L78.9392489,20.363595 L83.7497293,14.98497 L84.6091179,16.352595 C84.8569782,16.746345 85.2877205,16.98102 85.7457118,16.98102 C85.7918253,16.98102 85.8384629,16.978395 85.8840524,16.97367 C86.3933974,16.920645 86.8272838,16.58307 87.0054498,16.102695 L87.852786,13.811595 L90.2187249,13.212045 C90.7139214,13.08657 91.0959301,12.68967 91.2023057,12.18882 C91.3097293,11.687445 91.123179,11.16927 90.7223057,10.851645 L88.8085939,9.335445 L88.9705153,6.89682 C89.0051004,6.38547 88.7451878,5.89932 88.302917,5.642595 C88.0943581,5.521845 87.8622183,5.46147 87.6300786,5.46147 C87.3696419,5.46147 87.1107773,5.53707 86.8854498,5.68722 L84.8554061,7.042245 L82.5906026,6.13452 C82.4292052,6.069945 82.2594236,6.038445 82.091738,6.038445 C81.7657991,6.038445 81.4451004,6.157095 81.1935721,6.382845 C80.8131354,6.72567 80.6595983,7.254345 80.7979389,7.74732 L81.4555808,10.100895 L79.8950568,11.978295 C79.5670218,12.372045 79.4910393,12.91752 79.6990742,13.38582 C79.9055371,13.85412 80.3609083,14.16387 80.8718253,14.18487" id="Fill-13"></path>
                    <path d="M29.5007162,78.174915 L28.6413275,76.807815 C28.3945153,76.414065 27.9627249,76.17939 27.5047336,76.17939 C27.4586201,76.17939 27.4119825,76.18149 27.365869,76.186215 C26.8575721,76.23924 26.4226376,76.57734 26.2449956,77.057715 L25.3971354,79.348815 L23.0317205,79.948365 C22.536,80.07384 22.1539913,80.47074 22.0476157,80.97159 C21.9401921,81.47244 22.1267424,81.99114 22.5281397,82.308765 L24.4423755,83.824965 L24.2799301,86.26359 C24.246393,86.774415 24.5047336,87.26109 24.9475284,87.51729 C25.1555633,87.638565 25.3877031,87.69894 25.6203668,87.69894 C25.8808035,87.69894 26.1396681,87.62334 26.3649956,87.47319 L28.3955633,86.118165 L30.6603668,87.02589 C30.8217642,87.090465 30.9915459,87.121965 31.1592314,87.121965 C31.4846463,87.121965 31.805869,87.00279 32.0573974,86.777565 C32.43731,86.43474 32.5908472,85.906065 32.4530306,85.412565 L31.7943406,83.06004 L33.3559127,81.182115 C33.6828996,80.788365 33.7588821,80.242365 33.5513712,79.77459 C33.3443843,79.30629 32.8900611,78.99654 32.3786201,78.97554 L31.3541659,78.93354 L34.3106725,72.796815 L29.5007162,78.174915 Z" id="Fill-15"></path>
                </g>
                <g id="Group-20">
                    <mask id="mask-2" fill="white">
                        <use xlink:href="#path-1"></use>
                    </mask>
                    <g id="Clip-19"></g>
                    <path d="M118.089852,47.96379 C117.958847,47.959065 105.683738,47.45034 98.0922969,42.764715 C100.853345,39.616815 104.029415,38.700165 104.05876,38.691765 C104.841642,38.48124 105.33579,37.708965 105.200594,36.90834 C105.065397,36.10719 104.331249,35.53809 103.536314,35.60004 C103.478672,35.603715 98.0791965,35.97069 92.3191965,34.29174 C91.4205066,26.31489 96.323214,22.207815 96.534393,22.03509 C97.1668821,21.52899 97.3120349,20.625465 96.8708122,19.946115 C96.4295895,19.266765 95.545048,19.033665 94.8271441,19.407465 C94.7574498,19.444215 88.1721223,22.82469 80.7740437,22.82469 C80.7022533,22.82469 80.6304629,22.82469 80.5586725,22.82364 C79.5436507,15.79284 82.1600699,7.319865 82.1878428,7.23009 C82.4168384,6.49929 82.0872314,5.70864 81.4070568,5.35794 C80.7268821,5.006715 79.8926463,5.197815 79.432559,5.809965 C79.3785852,5.88189 74.2578865,12.62499 68.0577118,16.199715 C64.432559,10.20054 63.3184978,1.945965 63.3064454,1.857765 C63.2074061,1.099665 62.5780611,0.522165 61.8156157,0.48909 C61.0557904,0.453915 60.3766638,0.97629 60.2121223,1.72389 C60.1922096,1.81629 58.2444367,10.504515 53.814917,16.200765 C47.2243493,12.787215 43.0599825,6.64419 43.0175371,6.580665 C42.6292402,5.997915 41.903476,5.74329 41.2390218,5.952765 C40.5719476,6.162765 40.1239127,6.78804 40.1385852,7.487865 C40.1401572,7.563465 40.253345,14.738115 37.5630393,20.72364 C31.7752664,19.49409 27.3300262,16.725765 27.2839127,16.69689 C26.6000699,16.264815 25.6992838,16.422315 25.2025153,17.063865 C24.7067948,17.70489 24.7780611,18.61839 25.3670568,19.17489 C25.3932576,19.199565 27.7067948,21.426615 28.5457467,25.499565 C19.5326463,26.10699 8.47168559,20.814465 8.35430568,20.757765 C7.61282096,20.39814 6.71937118,20.67534 6.30854148,21.39039 C5.89718777,22.10649 6.10784279,23.018415 6.79063755,23.480415 C6.91273362,23.563365 18.474655,31.449915 23.1399825,39.089715 C15.2718603,43.81419 1.78365066,43.291815 1.63954585,43.286565 C0.828366812,43.25349 0.104174672,43.859865 0.0103755459,44.680965 C-0.0839475983,45.502065 0.471510917,46.255965 1.28216594,46.408215 C1.40426201,46.431315 12.7036507,48.588015 20.4397205,52.79379 C17.9459214,54.849165 15.354131,55.714365 15.3263581,55.72329 C14.5785852,55.964265 14.123738,56.721315 14.2594585,57.49569 C14.3962271,58.271115 15.1088908,58.82079 15.8671441,58.79664 C15.9274061,58.794015 21.6402445,58.60344 27.3268821,60.222015 C28.643738,67.11999 22.8119476,72.433515 22.7527336,72.486015 C22.1658341,73.00629 22.0510742,73.880415 22.4833886,74.535615 C22.9162271,75.19029 23.7625153,75.42654 24.4715109,75.087915 C24.5448734,75.05274 31.493869,71.77044 38.5167511,71.662815 C39.5584978,78.81699 37.4021659,87.446415 37.3796332,87.53724 C37.1988472,88.24914 37.5331703,88.99149 38.185048,89.32749 C38.8374498,89.662965 39.6334323,89.502315 40.1060961,88.940565 C40.1600699,88.875465 45.2902009,82.810665 51.3567511,79.14039 C54.8147424,85.152165 56.2830393,92.83029 56.2987598,92.912715 C56.4334323,93.63249 57.0460087,94.164315 57.7759651,94.195815 C57.7990218,94.196865 57.8215546,94.19739 57.8440873,94.19739 C58.5467948,94.19739 59.1688035,93.72804 59.3584978,93.045015 C59.3836507,92.953665 61.8072314,84.35259 66.3284541,78.550815 C72.4107249,81.89559 76.8816419,88.014465 76.9282795,88.078515 C77.3291528,88.63344 78.0428646,88.866015 78.6900262,88.65339 C79.3403319,88.440765 79.7784105,87.83229 79.7747424,87.14769 C79.7742183,87.05844 79.7600699,78.72879 82.1102882,73.796415 C87.7948297,75.04854 92.5686288,77.79534 92.6194585,77.82474 C93.2980611,78.219015 94.1605939,78.052065 94.644262,77.43519 C95.1279301,76.818315 95.0854847,75.93894 94.5431266,75.372465 C94.5211179,75.34989 92.6896769,73.411065 91.5347424,70.440615 C100.419983,70.33404 111.469415,73.71924 111.588891,73.75599 C112.377537,74.00064 113.218585,73.59324 113.517275,72.82359 C113.817537,72.05394 113.471686,71.182965 112.727581,70.82859 C112.599721,70.768215 100.557799,64.968015 96.024524,57.200115 C103.936664,52.655715 118.047406,51.12009 118.196751,51.103815 C119.017362,51.01719 119.630463,50.310015 119.60269,49.48419 C119.574917,48.658365 118.913607,47.99424 118.089852,47.96379" id="Fill-18" fill="#140203" mask="url(#mask-2)"></path>
                </g>
                <path d="M108.646795,71.3386275 C108.646795,71.3386275 97.5653974,64.2065025 93.445048,55.3350525 C101.332035,50.0115525 113.703039,48.0533025 113.703039,48.0533025 C113.703039,48.0533025 103.03614,47.8301775 95.2780611,42.0221025 C98.5510742,37.3569525 101.212559,36.2024775 101.212559,36.2024775 C101.212559,36.2024775 96.8296769,36.6209025 90.4371878,34.5161775 C88.8598952,24.9690525 92.9985852,22.3230525 92.9985852,22.3230525 C92.9985852,22.3230525 87.3402445,24.0555525 78.9449607,23.5342275 C77.3226026,15.9159525 79.6906376,8.8074525 79.6906376,8.8074525 C79.6906376,8.8074525 74.4714236,14.0574525 67.4129083,17.5403025 C62.9687162,11.2051275 61.6209432,5.7246525 61.6209432,5.7246525 C61.6209432,5.7246525 59.5463581,11.5091025 54.3213799,17.4295275 C46.70531,13.9813275 42.6315983,9.5456025 42.6315983,9.5456025 C42.6315983,9.5456025 42.1515983,15.2161275 38.7690655,21.7056525 C32.1177118,20.5769025 28.494655,19.2392025 28.494655,19.2392025 C28.494655,19.2392025 30.2412052,20.4209775 30.7809432,26.0316525 C21.084524,27.5121525 10.733607,23.6103525 10.733607,23.6103525 C10.733607,23.6103525 21.4885415,30.2164275 25.7419913,38.5497525 C17.7030393,44.4066525 5.36766812,44.3741025 5.36766812,44.3741025 C5.36766812,44.3741025 15.713869,46.2257775 23.5914236,51.2621025 C20.485048,54.6179025 18.9617293,55.9461525 18.9617293,55.9461525 C18.9617293,55.9461525 22.9054847,55.6652775 29.1161397,57.6424275 C31.3563144,65.8891275 25.9877555,71.7250275 25.9877555,71.7250275 C25.9877555,71.7250275 32.3524716,68.2784025 40.1367511,68.6049525 C41.7255721,76.2993525 39.2144803,86.1604275 39.2144803,86.1604275 C39.2144803,86.1604275 45.1688908,79.0703025 52.0188472,75.4157775 C56.1952664,81.8039775 57.8726463,90.7867275 57.8726463,90.7867275 C57.8726463,90.7867275 60.5959651,80.9786775 65.8293275,74.9747775 C72.8129083,78.3095775 77.9283668,85.4018025 77.9283668,85.4018025 C77.9283668,85.4018025 77.8764891,75.5717025 80.9587598,70.4954775 C87.3868821,71.6525775 92.9074061,74.8676775 92.9074061,74.8676775 C92.9074061,74.8676775 90.0310742,71.8610025 88.9851354,67.4751525 C98.3996332,66.7259775 108.646795,71.3386275 108.646795,71.3386275" id="Fill-21" fill="#FF004D"></path>
            </g>
            <g id="Group-3263" transform="translate(4.192140, 0.027825)">
                <polygon id="Fill-3187" fill="#140203" points="34.4804017 58.18155 34.4804017 58.18155 34.4804017 58.182075"></polygon>
                <polygon id="Fill-3189" fill="#140203" points="32.2947773 19.89477 23.0301485 8.68812 24.9407162 6.01167"></polygon>
                <path d="M22.6705677,12.2158575 C22.3734498,12.1848825 22.1187773,11.9869575 22.0150218,11.7060825 L20.998952,8.9608575 L18.1655895,8.2426575 C17.8758079,8.1691575 17.6525764,7.9371075 17.5902183,7.6436325 C17.5278603,7.3506825 17.6368559,7.0472325 17.8710917,6.8613825 L20.1636681,5.0459325 L19.9697817,2.1243075 C19.950393,1.8250575 20.10131,1.5405075 20.3601747,1.3903575 C20.4822707,1.3200075 20.6185153,1.2848325 20.7542358,1.2848325 C20.9062009,1.2848325 21.0581659,1.3289325 21.1896943,1.4166075 L23.6216594,3.0393825 L26.3350218,1.9526325 C26.429345,1.9143075 26.5283843,1.8959325 26.6268996,1.8959325 C26.8171179,1.8959325 27.0047162,1.9657575 27.1519651,2.0975325 C27.3746725,2.2980825 27.4642795,2.6073075 27.3835808,2.8960575 L26.5949345,5.7153075 L28.4662009,7.9638825 C28.6574672,8.1943575 28.7020087,8.5135575 28.5804367,8.7876075 C28.4593886,9.0616575 28.1931878,9.2427825 27.8944978,9.2548575 L24.9741485,9.3745575 L23.4172926,11.8520325 C23.2721397,12.0825075 23.0200873,12.2200575 22.7517904,12.2200575 C22.7250655,12.2200575 22.6983406,12.2184825 22.6705677,12.2158575" id="Fill-3191" fill="#FF004D"></path>
                <path d="M20.754131,0.497175 C20.4821659,0.497175 20.2107249,0.567525 19.9665328,0.709275 C19.4488035,1.009575 19.1459214,1.578675 19.1857467,2.17665 L19.3518603,4.6851 L17.3836507,6.243825 C16.914131,6.615525 16.6961397,7.222425 16.8213799,7.808325 C16.9460961,8.39475 17.393083,8.859375 17.9726463,9.006375 L20.4056594,9.622725 L21.2781485,11.979975 C21.4856594,12.54225 21.9944803,12.93705 22.5897642,12.999 C22.643738,13.004775 22.6982358,13.0074 22.7522096,13.0074 C23.2882795,13.0074 23.7923843,12.732825 24.08269,12.271875 L25.4189345,10.144575 L27.9263581,10.0422 C28.524262,10.017525 29.0566638,9.655275 29.2992838,9.107175 C29.5419039,8.559075 29.453345,7.920675 29.0697642,7.459725 L27.4636507,5.528775 L28.1406812,3.108525 C28.3020786,2.53155 28.1228646,1.912575 27.6774498,1.512 C27.383476,1.2474 27.0077555,1.1088 26.6262707,1.1088 C26.4297642,1.1088 26.2316856,1.14555 26.0430393,1.22115 L23.7137817,2.1546 L21.6255721,0.76125 C21.3619913,0.585375 21.0585852,0.497175 20.754131,0.497175 M20.754131,2.072175 L23.5303755,3.924375 L26.6267948,2.6838 L25.7265328,5.901 L27.8619039,8.46825 L24.5291528,8.60475 L22.7522096,11.4324 L21.592559,8.2992 L18.3588472,7.47915 L20.9752664,5.406975 L20.754131,2.072175" id="Fill-3193" fill="#000000"></path>
                <polygon id="Fill-3195" fill="#140203" points="78.4528559 79.430505 87.7169607 90.637155 85.806393 93.313605"></polygon>
                <polygon id="Fill-3197" fill="#140203" points="90.0922795 33.4319475 101.27848 24.1499475 103.949397 26.0640975"></polygon>
                <polygon id="Fill-3199" fill="#140203" points="93.3755633 35.1218175 109.939755 28.7908425 108.763336 32.0626425"></polygon>
                <polygon id="Fill-3201" fill="#140203" points="21.7955109 26.23551 7.74817467 22.53636 7.74398253 19.24566"></polygon>
                <polygon id="Fill-3203" fill="#140203" points="21.253048 22.57794 6.46579913 12.77934 9.80483843 11.830665"></polygon>
                <polygon id="Fill-3205" fill="#140203" points="63.0066026 83.2188 68.1954236 96.120675 63.6909694 95.116875"></polygon>
                <polygon id="Fill-3207" fill="#140203" points="46.6417991 82.22466 44.3481747 99.836835 42.0309694 97.247535"></polygon>
                <path d="M89.9935022,98.040285 C89.8415371,98.040285 89.6895721,97.996185 89.5580437,97.90851 L87.1250306,96.285735 L84.4121921,97.37301 C84.317869,97.41081 84.2183057,97.429185 84.1203144,97.429185 C83.9300961,97.429185 83.7419738,97.359885 83.5952489,97.227585 C83.3725415,97.027035 83.2824105,96.71781 83.3636332,96.42906 L84.1522795,93.610335 L82.2815371,91.36071 C82.0902707,91.130235 82.0457293,90.811035 82.1667773,90.536985 C82.2883493,90.26346 82.5545502,90.08181 82.8532402,90.069735 L85.7730655,89.95056 L87.3304454,87.473085 C87.4750742,87.24261 87.7276507,87.10506 87.9954236,87.10506 C88.0221485,87.10506 88.0499214,87.106635 88.0771703,87.10926 C88.3742882,87.140235 88.6289607,87.33816 88.7327162,87.619035 L89.748262,90.363735 L92.5811004,91.08246 C92.8714061,91.15596 93.0946376,91.38801 93.1569956,91.68096 C93.2193537,91.97391 93.1103581,92.27736 92.8761223,92.46321 L90.5840699,94.279185 L90.7779563,97.200285 C90.797345,97.499535 90.6464279,97.784085 90.3875633,97.934235 C90.2654672,98.00511 90.1292227,98.040285 89.9935022,98.040285" id="Fill-3209" fill="#FF004D"></path>
                <path d="M87.9951616,86.31777 C87.4596157,86.31777 86.9555109,86.592345 86.6657293,87.053295 L85.3279127,89.180595 L82.8215371,89.28297 C82.2231092,89.30712 81.6912314,89.669895 81.4486114,90.217995 C81.2059913,90.76557 81.2945502,91.40397 81.677607,91.86492 L83.2837205,93.796395 L82.60669,96.216645 C82.4447686,96.794145 82.6245066,97.412595 83.0699214,97.81317 C83.3633712,98.07777 83.7396157,98.216895 84.1205764,98.216895 C84.317083,98.216895 84.5151616,98.17962 84.7043319,98.10402 L87.0335895,97.17057 L89.1223231,98.56392 C89.3853799,98.73927 89.68931,98.827995 89.9932402,98.827995 C90.2652052,98.827995 90.5371703,98.757645 90.7808384,98.615895 C91.2990917,98.315595 91.6019738,97.746495 91.5621485,97.14852 L91.3955109,94.64007 L93.3637205,93.08082 C93.8332402,92.70912 94.0512314,92.102745 93.9254672,91.51632 C93.8007511,90.929895 93.3542882,90.465795 92.7742009,90.318795 L90.3417118,89.70192 L89.4692227,87.34572 C89.2617118,86.783445 88.7534148,86.38812 88.158655,86.32617 C88.1036332,86.320395 88.0496594,86.31777 87.9951616,86.31777 M87.9956856,87.89277 L89.1548122,91.02597 L92.388524,91.845495 L89.7726288,93.91872 L89.9932402,97.252995 L87.2169956,95.400795 L84.1200524,96.641895 L85.0203144,93.42417 L82.8854672,90.85692 L86.2176943,90.72042 L87.9956856,87.89277" id="Fill-3211" fill="#000000"></path>
                <polygon id="Fill-3213" fill="#140203" points="21.7187424 63.6164025 8.70267249 70.0728525 6.54162445 67.5953775"></polygon>
                <path d="M6.43781659,75.1374225 C6.13912664,75.1311225 5.86925764,74.9552475 5.74244541,74.6832975 L4.50524017,72.0309975 L1.62366812,71.5485225 C1.32864629,71.4991725 1.08707424,71.2860225 1.00061135,70.9993725 C0.914672489,70.7121975 0.997991266,70.4008725 1.21703057,70.1961225 L3.35240175,68.1979725 L2.91956332,65.3025975 C2.87502183,65.0059725 3.00235808,64.7098725 3.24864629,64.5392475 C3.38279476,64.4457975 3.54,64.3980225 3.69720524,64.3980225 C3.82768559,64.3980225 3.95868996,64.4305725 4.0771179,64.4967225 L6.63484716,65.9136975 L9.24917031,64.6064475 C9.36026201,64.5513225 9.48078603,64.5240225 9.60026201,64.5240225 C9.76847162,64.5240225 9.93668122,64.5780975 10.0755459,64.6841475 C10.3139738,64.8657975 10.4287336,65.1666225 10.3721397,65.4606225 L9.81668122,68.3355225 L11.8650655,70.4234475 C12.0751965,70.6371225 12.1459389,70.9515975 12.0468996,71.2345725 C11.9489083,71.5175475 11.6984279,71.7201975 11.4018341,71.7569475 L8.50139738,72.1165725 L7.15152838,74.7137475 C7.01633188,74.9746725 6.74751092,75.1374225 6.45458515,75.1374225 C6.44882096,75.1374225 6.44358079,75.1374225 6.43781659,75.1374225" id="Fill-3215" fill="#FF004D"></path>
                <path d="M3.69694323,63.6107325 C3.38200873,63.6107325 3.06864629,63.7052325 2.79982533,63.8921325 C2.30882096,64.2339075 2.05362445,64.8261075 2.14218341,65.4193575 L2.51423581,67.9047075 L0.680174672,69.6209325 C0.243144105,70.0299075 0.0754585153,70.6525575 0.248384279,71.2263825 C0.420786026,71.8007325 0.903930131,72.2265075 1.4939738,72.3252075 L3.9689083,72.7394325 L5.03056769,75.0168825 C5.28366812,75.5602575 5.8228821,75.9120075 6.42078603,75.9251325 C6.43231441,75.9251325 6.44331878,75.9251325 6.45484716,75.9251325 C7.04017467,75.9251325 7.57781659,75.5991075 7.84925764,75.0772575 L9.00786026,72.8470575 L11.4979913,72.5383575 C12.0922271,72.4648575 12.5926638,72.0600825 12.7896943,71.4936075 C12.9867249,70.9276575 12.8452402,70.2987075 12.4260262,69.8713575 L10.6674236,68.0790075 L11.1437555,65.6104575 C11.2574672,65.0219325 11.0274236,64.4197575 10.5510917,64.0569825 C10.2723144,63.8448825 9.93746725,63.7362075 9.60052402,63.7362075 C9.36104803,63.7362075 9.12104803,63.7908075 8.89834061,63.9021075 L6.6539738,65.0240325 L4.45781659,63.8076075 C4.22043668,63.6758325 3.95842795,63.6107325 3.69694323,63.6107325 M3.69694323,65.1857325 L6.61572052,66.8032575 L9.60052402,65.3112075 L8.9669869,68.5924575 L11.3051528,70.9754325 L7.9949345,71.3854575 L6.45484716,74.3501325 L5.04262009,71.3224575 L1.75336245,70.7717325 L4.1910917,68.4906075 L3.69694323,65.1857325" id="Fill-3217" fill="#000000"></path>
                <polygon id="Fill-3219" fill="#140203" points="78.4819913 21.8643075 85.4205066 14.1063825 83.5099389 11.4299325"></polygon>
                <path d="M85.6990218,17.6383725 C85.4307249,17.6383725 85.1786725,17.5008225 85.0335197,17.2703475 L83.4771878,14.7933975 L80.5568384,14.6736975 C80.2576245,14.6616225 79.9914236,14.4804975 79.8703755,14.2064475 C79.7493275,13.9323975 79.793345,13.6131975 79.9851354,13.3827225 L81.8558777,11.1336225 L81.0672314,8.3148975 C80.9865328,8.0261475 81.0766638,7.7169225 81.2993712,7.5163725 C81.4460961,7.3840725 81.6336943,7.3147725 81.8239127,7.3147725 C81.9224279,7.3147725 82.0214672,7.3331475 82.1157904,7.3709475 L84.8296769,8.4582225 L87.2605939,6.8349225 C87.3926463,6.7472475 87.5446114,6.7031475 87.6971004,6.7031475 C87.8322969,6.7031475 87.9685415,6.7383225 88.0906376,6.8091975 C88.3500262,6.9593475 88.5009432,7.2438975 88.4815546,7.5426225 L88.2871441,10.4642475 L90.5797205,12.2802225 C90.8144803,12.4660725 90.923476,12.7695225 90.8611179,13.0624725 C90.7982358,13.3559475 90.5750044,13.5879975 90.2852227,13.6614975 L87.4518603,14.3791725 L86.4357904,17.1243975 C86.3320349,17.4057975 86.0778865,17.6031975 85.7802445,17.6341725 C85.7535197,17.6373225 85.7257467,17.6383725 85.6990218,17.6383725" id="Fill-3221" fill="#FF004D"></path>
                <path d="M87.6968384,5.915595 C87.3923843,5.915595 87.0884541,6.003795 86.8253974,6.17967 L84.7377118,7.57302 L82.4079301,6.63957 C82.2187598,6.56397 82.0206812,6.52722 81.8241747,6.52722 C81.44269,6.52722 81.0674934,6.666345 80.7735197,6.93042 C80.3281048,7.330995 80.1488908,7.950495 80.3102882,8.52747 L80.9873188,10.947195 L79.3812052,12.87867 C78.9976245,13.339095 78.9090655,13.977495 79.1516856,14.525595 C79.3943057,15.073695 79.9267074,15.435945 80.5246114,15.46062 L83.0320349,15.562995 L84.3682795,17.690295 C84.6585852,18.151245 85.16269,18.42582 85.6987598,18.42582 C85.7527336,18.42582 85.8072314,18.423195 85.8617293,18.41742 C86.4570131,18.35547 86.96531,17.960145 87.172821,17.398395 L88.044786,15.041145 L90.4777991,14.424795 C91.0578865,14.277795 91.5048734,13.813695 91.6295895,13.22727 C91.7548297,12.64137 91.5368384,12.03447 91.0673188,11.66277 L89.0991092,10.10352 L89.2652227,7.59507 C89.305048,6.997095 89.0021659,6.427995 88.4844367,6.127695 C88.2402445,5.985945 87.9688035,5.915595 87.6968384,5.915595 M87.6968384,7.490595 L87.4757031,10.825395 L90.0921223,12.898095 L86.8578865,13.71762 L85.6987598,16.85082 L83.9218166,14.02317 L80.5890655,13.887195 L82.7244367,11.31942 L81.8241747,8.10222 L84.9211179,9.342795 L87.6968384,7.490595" id="Fill-3223" fill="#000000"></path>
                <polygon id="Fill-3225" fill="#140203" points="31.1612751 77.460705 24.2222358 85.21863 26.1328035 87.89508"></polygon>
                <path d="M21.9459563,92.6221275 C21.8102358,92.6221275 21.6739913,92.5869525 21.5518952,92.5160775 C21.2930306,92.3659275 21.1421135,92.0813775 21.1615022,91.7821275 L21.3559127,88.8610275 L19.0633362,87.0450525 C18.8291004,86.8586775 18.7201048,86.5557525 18.7824629,86.2628025 C18.844821,85.9693275 19.0680524,85.7372775 19.3583581,85.6637775 L22.1917205,84.9455775 L23.2072664,82.2003525 C23.3110218,81.9194775 23.5656943,81.7220775 23.8628122,81.6911025 C23.8900611,81.6879525 23.9178341,81.6869025 23.9440349,81.6869025 C24.2123319,81.6869025 24.4649083,81.8244525 24.6095371,82.0549275 L26.166393,84.5318775 L29.0862183,84.6515775 C29.3849083,84.6636525 29.6511092,84.8447775 29.7726812,85.1188275 C29.8937293,85.3928775 29.8491878,85.7120775 29.6579214,85.9425525 L27.787179,88.1916525 L28.5763493,91.0103775 C28.6575721,91.2986025 28.567441,91.6083525 28.3452576,91.8089025 C28.1985328,91.9412025 28.0098865,92.0105025 27.8196681,92.0105025 C27.7211528,92.0105025 27.6221135,91.9921275 27.5277904,91.9543275 L24.8139039,90.8670525 L22.3814148,92.4903525 C22.2498865,92.5780275 22.0979214,92.6221275 21.9459563,92.6221275" id="Fill-3227" fill="#FF004D"></path>
                <path d="M23.9447686,80.89935 C23.8902707,80.89935 23.8362969,80.901975 23.7817991,80.90775 C23.1865153,80.9697 22.6782183,81.365025 22.4701834,81.9273 L21.5982183,84.2835 L19.1652052,84.900375 C18.5851179,85.047375 18.138655,85.511475 18.0139389,86.0979 C17.8881747,86.684325 18.1061659,87.2907 18.5762096,87.6624 L20.5438952,89.222175 L20.3772576,91.7301 C20.3374323,92.3286 20.6403144,92.897175 21.1585677,93.197475 C21.4022358,93.339225 21.6742009,93.409575 21.9461659,93.409575 C22.2506201,93.409575 22.5540262,93.321375 22.817607,93.1455 L24.9058166,91.75215 L27.2361223,92.6856 C27.4252926,92.7612 27.6233712,92.79795 27.8193537,92.79795 C28.2008384,92.79795 28.576559,92.658825 28.8700087,92.39475 C29.3154236,91.994175 29.4951616,91.3752 29.3332402,90.7977 L28.6556856,88.37745 L30.2617991,86.4465 C30.6448559,85.98555 30.7334148,85.347675 30.4907948,84.799575 C30.2481747,84.251475 29.7162969,83.889225 29.117869,83.86455 L26.6114934,83.762175 L25.2742009,81.634875 C24.9844192,81.173925 24.4803144,80.89935 23.9447686,80.89935 M23.9442445,82.47435 L25.7217118,85.302 L29.0539389,85.4385 L26.9190917,88.005225 L27.8198777,91.22295 L24.7218865,89.982375 L21.9461659,91.834575 L22.1673013,88.5003 L19.5508821,86.427075 L22.7851179,85.60755 L23.9442445,82.47435" id="Fill-3229" fill="#000000"></path>
                <path d="M85.2405066,43.11783 C85.0183231,42.52563 84.5619039,42.051555 83.9786725,41.807955 L81.0682795,40.592055 C80.4876681,40.35003 79.8321223,40.35738 79.2572751,40.61358 C78.805048,40.814655 78.4387598,41.159055 78.1987598,41.58483 C77.9226026,40.816755 77.2492402,40.225605 76.4008559,40.092255 L72.4586725,39.472755 C71.4321223,39.311055 70.4480175,39.859155 70.0267074,40.773705 C69.6866201,40.436655 69.2422533,40.20618 68.7465328,40.133205 L64.823214,39.556755 C63.9732576,39.43443 63.1688908,39.80088 62.6789345,40.44033 C61.5334323,39.42603 60.1673188,38.922555 58.8588472,38.83593 C58.735179,38.828055 58.612559,38.823855 58.4883668,38.823855 C56.5222533,38.823855 54.7521223,39.815055 53.3881048,41.49033 C52.0633886,39.31158 50.0171004,38.32668 48.0971004,38.200155 C47.9697642,38.191755 47.844,38.187555 47.7166638,38.187555 C45.6184978,38.187555 43.7320349,39.280605 42.3082795,41.13018 C40.9867074,39.31683 38.6286288,38.126655 35.8827773,38.126655 L35.8314236,38.126655 C34.1723843,38.136105 32.1061834,38.493105 30.1599825,39.107355 C29.1496769,39.42603 28.4899389,40.39623 28.5633013,41.45463 C28.7393712,43.982505 28.8184978,45.97173 28.8305502,48.104805 C28.8436507,50.499855 28.7446114,53.59683 28.553869,56.82558 C28.4799825,58.069305 29.4111616,59.14503 30.6504629,59.24793 L33.8485415,59.513055 C34.1246987,59.53668 34.4380611,59.56293 34.8221659,59.56293 L34.8688035,59.56293 C37.1980611,59.55033 39.7468821,58.424205 41.423738,56.661255 C42.7605066,58.47513 44.6474934,59.31408 46.4281048,59.43168 C46.5439127,59.439555 46.6607686,59.44323 46.7781485,59.44323 C48.8480175,59.44323 50.7391965,58.30188 52.1666201,56.40243 C53.4735197,58.374855 55.4160524,59.28048 57.2448734,59.40123 C57.3591092,59.40858 57.472821,59.41278 57.5875808,59.41278 C59.1308122,59.41278 60.5713362,58.760205 61.7849607,57.62673 C62.1129956,57.94383 62.5316856,58.17168 63.0122096,58.247805 L65.7648734,58.68303 C66.4230393,58.78803 67.0911616,58.599555 67.5999825,58.16958 C67.8965764,57.918105 68.1208559,57.598905 68.2586725,57.24348 L69.6876681,57.46503 C69.805048,57.483405 69.9224279,57.49233 70.0387598,57.49233 C70.1095022,57.68868 70.2074934,57.87663 70.3311616,58.049355 C70.6859214,58.54548 71.2240873,58.87938 71.8251354,58.97703 L74.6826026,59.440605 C74.7334323,59.44848 74.78531,59.447955 74.8366638,59.453205 C75.0342183,59.640105 75.2600699,59.798655 75.5163144,59.906805 L77.8890655,60.901155 C78.1757031,61.02138 78.475441,61.07913 78.7715109,61.07913 C79.4983231,61.07913 80.2031266,60.732105 80.6433013,60.108405 C81.1217293,59.429055 81.535179,58.41213 81.7489782,57.38628 C81.8794585,56.75733 82.0586725,55.895805 81.74531,54.869955 C81.7400699,54.850005 81.7337817,54.831105 81.7269694,54.811155 C82.8971004,50.40378 83.9241747,47.44383 85.1529956,44.93643 C85.4307249,44.36838 85.463738,43.71003 85.2405066,43.11783" id="Fill-3231" fill="#140203"></path>
                <path d="M34.6759127,52.645215 C35.2114585,52.64259 35.7784454,52.42419 36.3763493,51.98949 C36.9737293,51.55584 37.2713712,51.05814 37.2682271,50.49744 C37.265083,49.936215 36.9134672,49.446915 36.2139039,49.027965 C35.5138166,48.609015 34.6119825,48.353865 33.5078777,48.262515 C33.485869,50.18139 33.4612402,51.619365 33.4339913,52.579065 C33.726393,52.626315 34.1408908,52.648365 34.6759127,52.645215 M36.6713712,41.52624 C36.1913712,41.196015 35.6794061,41.03169 35.136,41.03484 C34.5920699,41.03799 34.0125066,41.138265 33.39731,41.33724 C33.4722445,43.287615 33.5131179,44.75919 33.5183581,45.75039 C34.2640349,45.68109 35.0987948,45.339315 36.0194934,44.72454 C36.9412402,44.109765 37.4002795,43.45299 37.3960873,42.75369 C37.3939913,42.265965 37.1518952,41.85699 36.6713712,41.52624 M30.0006288,39.06294 C31.896,38.468115 33.6111092,38.165715 35.1443843,38.157315 C36.6771354,38.148915 37.9819389,38.55264 39.0572227,39.366915 C40.1325066,40.18224 40.6738166,41.19129 40.6806288,42.394065 C40.6905852,44.199015 39.6912838,45.635415 37.685869,46.70274 C39.5723319,47.457165 40.5202795,48.727665 40.5302358,50.515815 C40.5375721,51.832515 39.8537293,53.01114 38.4808035,54.051165 C37.1073537,55.09119 35.6663057,55.61514 34.1571354,55.62354 C33.9622009,55.62459 32.5740786,55.51854 29.9922445,55.304865 C30.2008035,51.808365 30.2982707,48.865215 30.2851703,46.475415 C30.2720699,44.085615 30.1772227,41.614965 30.0006288,39.06294" id="Fill-3233" fill="#140203"></path>
                <path d="M35.5586201,43.1495925 C35.5591441,43.1600925 35.5591441,43.1705925 35.5596681,43.1805675 L36.6711092,41.5262925 L35.5586201,43.1495925 Z M34.1422009,57.7235925 C33.9724192,57.7235925 33.57731,57.7083675 29.8201048,57.3975675 C28.685083,57.3035925 27.8325066,56.3186925 27.9001048,55.1799675 C28.1044716,51.7501425 28.2019389,48.8253675 28.1893624,46.4864925 C28.176262,44.1502425 28.0819389,41.7016425 27.9095371,39.2084175 C27.8424629,38.2387425 28.4482271,37.3499175 29.3736419,37.0590675 C31.4602795,36.4038675 33.3975721,36.0668175 35.1325939,36.0573675 L35.1912838,36.0573675 C37.1636856,36.0573675 38.8887511,36.6070425 40.3214148,37.6916925 C41.9175721,38.9023425 42.7664803,40.5240675 42.7764367,42.3825675 C42.7832489,43.6089675 42.4630742,45.1697925 41.2007162,46.6130175 C42.125607,47.6645925 42.6181834,48.9854925 42.6260437,50.5043175 C42.6339039,51.8850675 42.1402795,53.9120925 39.7444716,55.7264925 C38.0084017,57.0405675 36.1324192,57.7125675 34.1684017,57.7235925 L34.1422009,57.7235925 Z" id="Fill-3235" fill="#140203"></path>
                <path d="M45.6920175,42.7392 C45.1145502,43.912575 44.7660786,45.4146 44.6455546,47.244225 C44.5250306,49.07385 44.6497467,50.442525 45.019179,51.350775 C45.3886114,52.2585 45.8921921,52.733625 46.5293974,52.775625 C47.1666026,52.817625 47.7697467,52.247475 48.3393537,51.0657 C48.9089607,49.8834 49.2537642,48.3777 49.3742882,46.548075 C49.4948122,44.718975 49.3779563,43.353975 49.0231965,42.45465 C48.6689607,41.55585 48.1894847,41.085975 47.5826725,41.046075 C46.8988297,41.0004 46.2689607,41.5653 45.6920175,42.7392 M46.2899214,55.527675 C44.8053799,55.430025 43.5980437,54.681375 42.6679127,53.282775 C41.7372576,51.884175 41.3615371,49.8267 41.5402271,47.1093 C41.719441,44.3919 42.4211004,42.2142 43.6457293,40.574625 C44.868786,38.93505 46.2348996,38.1654 47.7419738,38.26515 C49.2495721,38.364375 50.4616245,39.117225 51.3755109,40.52265 C52.2893974,41.928075 52.6577817,43.977675 52.4801397,46.670925 C52.3030218,49.365225 51.5982183,51.53925 50.3652052,53.193525 C49.1321921,54.8478 47.7734148,55.62585 46.2899214,55.527675" id="Fill-3237" fill="#140203"></path>
                <path d="M45.6920175,42.7392 L45.6972576,42.7392 L45.6920175,42.7392 Z M47.2907948,44.345175 C47.0015371,45.16995 46.8160349,46.187925 46.7369083,47.382825 C46.6776943,48.287925 46.6902707,48.959925 46.7353362,49.455 C47.0204017,48.6234 47.2043319,47.6028 47.2829345,46.409475 C47.3421485,45.5091 47.3321921,44.839725 47.2907948,44.345175 Z M47.1231092,50.871975 L47.1288734,50.871975 L47.1231092,50.871975 Z M46.5304454,57.636075 C46.3999651,57.636075 46.2731528,57.63135 46.1521048,57.623475 C44.0198777,57.482775 42.2114934,56.384475 40.9234585,54.447225 C39.7197904,52.63755 39.2371703,50.1921 39.4488734,46.971225 C39.6542882,43.853775 40.5016245,41.27865 41.9678253,39.3162 C44.0460786,36.530025 46.3323668,36.06855 47.8803144,36.169875 C50.0445066,36.312675 51.8602271,37.421475 53.1314934,39.37605 C54.3105328,41.189925 54.7821485,43.6212 54.5714934,46.809525 C54.3686987,49.901775 53.5187424,52.4727 52.0446812,54.44985 C50.118917,57.0339 48.0443319,57.636075 46.5304454,57.636075 Z" id="Fill-3239" fill="#140203"></path>
                <path d="M56.932821,43.2185775 C56.3789345,44.3457525 56.0451354,45.7874025 55.9293275,47.5440525 C55.8135197,49.3001775 55.9324716,50.6147775 56.2877555,51.4862775 C56.6419913,52.3577775 57.1251354,52.8140025 57.7371878,52.8544275 C58.3481921,52.8948525 58.9282795,52.3478025 59.4753537,51.2127525 C60.0224279,50.0777025 60.353083,48.6323775 60.4688908,46.8757275 C60.5846987,45.1196025 60.4720349,43.8092025 60.1314236,42.9461025 C59.7913362,42.0824775 59.3302009,41.6320275 58.7485415,41.5937025 C58.0919476,41.5501275 57.4867074,42.0919275 56.932821,43.2185775 M57.5071441,55.4967525 C56.0818166,55.4027775 54.92269,54.6840525 54.0302882,53.3411025 C53.1368384,51.9986775 52.7757904,50.0231025 52.9481921,47.4143775 C53.1200699,44.8056525 53.7929083,42.7145775 54.9682795,41.1406275 C56.1431266,39.5666775 57.4542183,38.8280025 58.9020786,38.9235525 C60.3494148,39.0191025 61.5122096,39.7415025 62.3894148,41.0907525 C63.2671441,42.4405275 63.6208559,44.4077025 63.4505502,46.9938525 C63.2797205,49.5800025 62.603738,51.6674025 61.4199825,53.2555275 C60.2367511,54.8441775 58.9314236,55.5907275 57.5071441,55.4967525" id="Fill-3241" fill="#140203"></path>
                <path d="M58.4095546,45.22476 C58.212524,45.923535 58.0825677,46.745685 58.0207336,47.682285 C57.9803843,48.297585 57.9746201,48.799485 57.9903406,49.206885 C58.1863231,48.502335 58.3157555,47.675985 58.3775895,46.737285 C58.4174148,46.12776 58.4237031,45.629535 58.4095546,45.22476 Z M58.3718253,50.972985 L58.3775895,50.972985 L58.3718253,50.972985 Z M57.7382882,57.60426 C57.610952,57.60426 57.4883319,57.60006 57.3693799,57.592185 C55.2947948,57.45516 53.5367162,56.387835 52.2858865,54.505185 C51.1188996,52.75221 50.651476,50.387085 50.8563668,47.275935 C51.0549694,44.266635 51.8740087,41.779185 53.2899039,39.88236 C55.3099913,37.17756 57.5391616,36.726585 59.0394236,36.82791 C61.1449258,36.967035 62.9103406,38.04486 64.1459738,39.944835 C65.2878079,41.70096 65.7447511,44.052435 65.5419563,47.132085 C65.3454498,50.119335 64.5227424,52.60206 63.0995109,54.51201 C61.2313886,57.019935 59.2128734,57.60426 57.7382882,57.60426 Z" id="Fill-3243" fill="#140203"></path>
                <path d="M63.7563144,54.3284175 C63.8894148,50.5436925 64.0188472,47.6924175 64.1451354,45.7745925 C64.2714236,43.8572925 64.5292402,41.8166175 64.9196332,39.6536175 L68.9870568,40.2515925 C69.3737817,42.1153425 69.7411179,44.7146175 70.0901135,48.0499425 C71.0773624,45.4448925 71.9844367,42.6156675 72.8113362,39.5627925 L76.8981485,40.2048675 C76.7178865,44.7014925 76.5606812,47.9853675 76.4239127,50.0554425 C76.2876681,52.1255175 76.1011179,53.9624925 75.863738,55.5663675 L72.9030393,55.0859925 C73.2122096,53.2679175 73.6277555,49.3997175 74.1481048,43.4813925 L73.9757031,43.4477925 C73.7922969,44.0048175 73.4967511,44.9629425 73.0880175,46.3221675 C72.2317729,49.1398425 71.42531,51.5380425 70.6686288,53.5162425 L68.7014672,53.2106925 C68.4452227,51.7931925 68.1617293,49.9614675 67.8509869,47.7155175 C67.5407686,45.4706175 67.2960524,43.8163425 67.1178865,42.7537425 L66.9460087,42.7211925 C66.7568384,47.5811175 66.6446987,51.6010425 66.6101135,54.7793925 L63.7563144,54.3284175 Z" id="Fill-3245" fill="#140203"></path>
                <path d="M75.8639476,57.6665775 C75.7523319,57.6665775 75.6401921,57.6576525 75.5285764,57.6398025 L72.5678777,57.1594275 C72.0160873,57.0696525 71.5229869,56.7630525 71.1980961,56.3078775 C71.045607,56.0942025 70.9360873,55.8558525 70.8726812,55.6064775 C70.7002795,55.6232775 70.5252576,55.6190775 70.3481397,55.5912525 L68.6340786,55.3256025 C68.524559,55.7340525 68.2924192,56.1047025 67.9633362,56.3834775 C67.4985328,56.7777525 66.8849083,56.9504775 66.2838603,56.8538775 L63.4295371,56.4029025 C62.3825502,56.2370025 61.6242969,55.3151025 61.6615022,54.2546025 C61.7946026,50.4604275 61.926655,47.5608525 62.0539913,45.6362025 C62.1849956,43.6433025 62.4553886,41.5044525 62.856786,39.2800275 C63.0580087,38.1649275 64.1081397,37.4105025 65.2232489,37.5758775 L69.2911965,38.1738525 C69.907441,38.2641525 70.4372227,38.6206275 70.7573974,39.1267275 C70.7678777,39.0889275 70.7783581,39.0511275 70.7883144,39.0128025 C71.0686638,37.9796025 72.0721572,37.3228275 73.1364367,37.4882025 L77.2232489,38.1302775 C78.2744279,38.2956525 79.0353013,39.2238525 78.9928559,40.2890775 C78.8089258,44.8670775 78.6527686,48.1068525 78.515476,50.1942525 C78.3760873,52.3084275 78.1816769,54.2199525 77.9374847,55.8737025 C77.855214,56.4302025 77.5544279,56.9294775 77.1016769,57.2612775 C76.7401048,57.5264025 76.3062183,57.6665775 75.8639476,57.6665775" id="Fill-3247" fill="#140203"></path>
                <path d="M78.7404367,52.0907625 C78.9275109,49.8941625 79.2041921,47.9149125 79.5704803,46.1530125 C79.9367686,44.3916375 80.4681223,42.5252625 81.1624454,40.5544125 L84.180262,41.8149375 C82.8817467,44.4551625 81.6282969,48.0718875 80.4178166,52.6661625 L78.7404367,52.0907625 Z M80.5079476,53.8552875 C80.6064629,54.1760625 80.580262,54.6958125 80.430917,55.4150625 C80.281048,56.1337875 80.0358079,56.7354375 79.6957205,57.2194875 L77.2370306,56.1883875 C77.490655,55.6864875 77.6787773,55.1436375 77.7993013,54.5614125 C77.9208734,53.9791875 78.0089083,53.4835875 78.0639301,53.0751375 L80.5079476,53.8552875 Z" id="Fill-3249" fill="#140203"></path>
                <path d="M79.6953537,59.3194875 C79.4233886,59.3194875 79.1493275,59.2664625 78.8867948,59.1562125 L76.4281048,58.1256375 C75.8904629,57.9004125 75.4707249,57.4615125 75.2700262,56.9139375 C75.0688035,56.3663625 75.1039127,55.7599875 75.3669694,55.2397125 C75.5367511,54.9037125 75.6646114,54.5320125 75.7474061,54.1345875 C75.8574498,53.6043375 75.9381485,53.1533625 75.9868821,52.7926875 C76.0560524,52.2839625 76.3075808,51.8214375 76.6895895,51.4891125 C76.8824279,49.3807125 77.1612052,47.4434625 77.5185852,45.7246125 C77.9016419,43.8823875 78.4623406,41.9078625 79.1860087,39.8551125 C79.3777991,39.3112125 79.7849607,38.8696875 80.3115983,38.6355375 C80.8382358,38.4008625 81.4387598,38.3945625 81.9690655,38.6161125 L84.9868821,39.8766375 C85.5208559,40.1002875 85.9395459,40.5344625 86.1428646,41.0773125 C86.3456594,41.6201625 86.3163144,42.2228625 86.0600699,42.7431375 C84.8385852,45.2279625 83.6302009,48.7160625 82.4684541,53.1118875 C82.4841747,53.1533625 82.4988472,53.1958875 82.5119476,53.2389375 C82.7226026,53.9277375 82.7142183,54.7309875 82.4826026,55.8429375 C82.2756157,56.8393875 81.9145677,57.7093125 81.4099389,58.4280375 C81.0074934,59.0008125 80.3613799,59.3194875 79.6953537,59.3194875" id="Fill-3251" fill="#140203"></path>
                <path d="M33.958952,51.6698175 C34.4944978,51.6671925 35.0614847,51.4487925 35.6593886,51.0140925 C36.2572926,50.5804425 36.5549345,50.0827425 36.5517904,49.5215175 C36.5486463,48.9608175 36.1970306,48.4715175 35.4969432,48.0520425 C34.7968559,47.6336175 33.8950218,47.3779425 32.790917,47.2865925 C32.7689083,49.2054675 32.7442795,50.6439675 32.7170306,51.6036675 C33.0094323,51.6509175 33.4239301,51.6729675 33.958952,51.6698175 M35.9549345,40.5503175 C35.4744105,40.2200925 34.9624454,40.0562925 34.4190393,40.0589175 C33.8751092,40.0620675 33.2955459,40.1628675 32.6803493,40.3613175 C32.7552838,42.3116925 32.7956332,43.7832675 32.8013974,44.7749925 C33.5470742,44.7056925 34.3818341,44.3633925 35.3025328,43.7491425 C36.2248035,43.1343675 36.6838428,42.4775925 36.6796507,41.7782925 C36.6770306,41.2905675 36.4354585,40.8815925 35.9549345,40.5503175 M29.2836681,38.0875425 C31.1790393,37.4921925 32.8941485,37.1903175 34.4274236,37.1819175 C35.9606987,37.1735175 37.2649782,37.5767175 38.340262,38.3915175 C39.4155459,39.2068425 39.9568559,40.2158925 39.9636681,41.4186675 C39.9736245,43.2230925 38.9743231,44.6594925 36.9689083,45.7273425 C38.8553712,46.4812425 39.8027948,47.7522675 39.8132751,49.5404175 C39.8206114,50.8571175 39.1367686,52.0352175 37.7633188,53.0752425 C36.390917,54.1157925 34.949345,54.6397425 33.4401747,54.6476175 C33.2452402,54.6486675 31.8571179,54.5426175 29.2752838,54.3289425 C29.4838428,50.8329675 29.58131,47.8898175 29.5682096,45.5000175 C29.5551092,43.1096925 29.460262,40.6395675 29.2836681,38.0875425" id="Fill-3253" fill="#FFFFFF"></path>
                <path d="M44.9740611,41.76354 C44.3976419,42.93744 44.0486463,44.439465 43.9286463,46.26909 C43.8081223,48.098715 43.9323144,49.46739 44.3022707,50.375115 C44.6717031,51.283365 45.1747598,51.757965 45.8119651,51.80049 C46.4486463,51.84249 47.0523144,51.27234 47.6224454,50.09004 C48.1920524,48.908265 48.5368559,47.402565 48.6568559,45.572415 C48.7779039,43.743315 48.661048,42.37884 48.3057642,41.479515 C47.9520524,40.58019 47.4715284,40.11084 46.8652402,40.070415 C46.1813974,40.025265 45.5510044,40.590165 44.9740611,41.76354 M45.5719651,54.55254 C44.0879476,54.454365 42.8806114,53.705715 41.9499563,52.30764 C41.0203493,50.908515 40.6441048,48.85104 40.8233188,46.13364 C41.0025328,43.416765 41.7036681,41.23854 42.9282969,39.598965 C44.1518777,37.959915 45.5174672,37.18974 47.0250655,37.28949 C48.5326638,37.38924 49.7441921,38.14209 50.6580786,39.54699 C51.5724891,40.95294 51.9403493,43.002015 51.7632314,45.69579 C51.5855895,48.389565 50.880786,50.56359 49.6477729,52.21839 C48.4152838,53.87214 47.0559825,54.650715 45.5719651,54.55254" id="Fill-3255" fill="#FFFFFF"></path>
                <path d="M56.2163843,42.24339 C55.6624978,43.37004 55.3281747,44.812215 55.2123668,46.56834 C55.096559,48.32499 55.2160349,49.639065 55.5707948,50.51109 C55.9245066,51.38259 56.4081747,51.83829 57.0207511,51.87924 C57.6317555,51.919665 58.2118428,51.37209 58.758393,50.23704 C59.3054672,49.10199 59.6361223,47.65719 59.7519301,45.900015 C59.867738,44.14389 59.7550742,42.834015 59.4149869,41.97039 C59.0748996,41.10729 58.6137642,40.656315 58.0321048,40.61799 C57.3749869,40.574415 56.7702707,41.11674 56.2163843,42.24339 M56.7901834,54.521565 C55.3648559,54.427065 54.2062533,53.70834 53.3128035,52.36539 C52.4198777,51.022965 52.0588297,49.04739 52.2312314,46.438665 C52.4025852,43.830465 53.0764716,41.73939 54.2518428,40.16544 C55.4261659,38.59149 56.7377817,37.85229 58.1856419,37.94784 C59.6324541,38.043915 60.7947249,38.766315 61.6724541,40.115565 C62.5501834,41.46534 62.9038952,43.432515 62.7335895,46.01814 C62.5632838,48.604815 61.8862533,50.69169 60.7035459,52.279815 C59.5197904,53.868465 58.2144629,54.61554 56.7901834,54.521565" id="Fill-3257" fill="#FFFFFF"></path>
                <path d="M63.0388297,53.352495 C63.1714061,49.568295 63.3018865,46.716495 63.4281747,44.799195 C63.5539389,42.88137 63.8122795,40.84122 64.2021485,38.67822 L68.2695721,39.27567 C68.6562969,41.13942 69.0241572,43.73922 69.3726288,47.07402 C70.3593537,44.469495 71.266952,41.64027 72.0943755,38.58687 L76.1806638,39.22947 C76.0009258,43.726095 75.8426725,47.009445 75.7064279,49.07952 C75.5701834,51.15012 75.3841572,52.987095 75.1467773,54.59097 L72.1860786,54.110595 C72.4947249,52.29252 72.9097467,48.42432 73.4306201,42.50547 L73.2587424,42.472395 C73.0753362,43.02942 72.7797904,43.987545 72.3705328,45.346245 C71.5142882,48.164445 70.7083493,50.56212 69.9516681,52.54032 L67.9839825,52.235295 C67.728262,50.81727 67.4442445,48.98607 67.1329782,46.74012 C66.8227598,44.494695 66.5785677,42.84042 66.4009258,41.778345 L66.229048,41.74527 C66.0393537,46.60572 65.927214,50.625645 65.8931528,53.803995 L63.0388297,53.352495 Z" id="Fill-3259" fill="#FFFFFF"></path>
                <path d="M78.023476,51.115365 C78.2105502,48.918765 78.4877555,46.939515 78.8540437,45.177615 C79.2203319,43.41624 79.7506376,41.549865 80.4454847,39.579015 L83.4633013,40.83954 C82.164786,43.479765 80.9113362,47.09649 79.7008559,51.69024 L78.023476,51.115365 Z M79.7909869,52.87989 C79.8889782,53.200665 79.8633013,53.71989 79.7139563,54.439665 C79.5640873,55.15839 79.3188472,55.76004 78.9782358,56.24409 L76.5200699,55.21299 C76.7736943,54.71109 76.9618166,54.16824 77.0823406,53.586015 C77.2039127,53.00379 77.2919476,52.50819 77.3469694,52.099215 L79.7909869,52.87989 Z" id="Fill-3261" fill="#FFFFFF"></path>
            </g>
        </g>
    </g>
</svg>