<?xml version="1.0" encoding="UTF-8"?>
<svg width="120px" height="120px" viewBox="0 0 120 120" version="1.1" xmlns="http://www.w3.org/2000/svg" xmlns:xlink="http://www.w3.org/1999/xlink">
    <!-- Generator: Sketch 51.1 (57501) - http://www.bohemiancoding.com/sketch -->
    <title>Apartment28</title>
    <desc>Created with Sketch.</desc>
    <defs>
        <polygon id="path-1" points="0 119.679892 50.7628662 119.679892 50.7628662 -5.68434189e-14 0 -5.68434189e-14"></polygon>
    </defs>
    <g id="Apartment28" stroke="none" stroke-width="1" fill="none" fill-rule="evenodd">
        <g id="Page-1" transform="translate(35.000000, 0.000000)">
            <path d="M11.4760395,35.2098811 C11.4760395,34.6552865 11.0258102,34.2060973 10.4706573,34.2060973 L7.22484841,34.2060973 C6.66969554,34.2060973 6.21946624,34.6552865 6.21946624,35.2098811 C6.21946624,35.7641514 6.66969554,36.2133405 7.22484841,36.2133405 L10.4706573,36.2133405 C11.0258102,36.2133405 11.4760395,35.7641514 11.4760395,35.2098811" id="Fill-1" fill="#DB472A"></path>
            <mask id="mask-2" fill="white">
                <use xlink:href="#path-1"></use>
            </mask>
            <g id="Clip-4"></g>
            <polygon id="Fill-3" fill="#DB472A" mask="url(#mask-2)" points="8.32436943 34.7078919 9.37165605 34.7078919 9.37165605 -0.000324324324 8.32436943 -0.000324324324"></polygon>
            <polygon id="Fill-5" fill="#E28A32" mask="url(#mask-2)" points="0 119.679892 50.7628662 119.679892 50.7628662 35.2099459 0 35.2099459"></polygon>
            <polygon id="Fill-6" fill="#E28A32" mask="url(#mask-2)" points="0 110.647459 50.7628662 110.647459 50.7628662 35.2096216 0 35.2096216"></polygon>
            <path d="M9.17233376,40.3996865 C9.17233376,40.7408757 8.89556943,41.0172 8.55416178,41.0172 L3.88555032,41.0172 C3.54381783,41.0172 3.26672866,40.7408757 3.26672866,40.3996865 L3.26672866,38.0849838 C3.26672866,37.7441189 3.54381783,37.4677946 3.88555032,37.4677946 L8.55416178,37.4677946 C8.89556943,37.4677946 9.17233376,37.7441189 9.17233376,38.0849838 L9.17233376,40.3996865 Z" id="Fill-7" fill="#71E5FF" mask="url(#mask-2)"></path>
            <path d="M16.9000032,40.3996865 C16.9000032,40.7408757 16.622914,41.0172 16.2818312,41.0172 L11.6128949,41.0172 C11.2714873,41.0172 10.9943981,40.7408757 10.9943981,40.3996865 L10.9943981,38.0849838 C10.9943981,37.7441189 11.2714873,37.4677946 11.6128949,37.4677946 L16.2818312,37.4677946 C16.622914,37.4677946 16.9000032,37.7441189 16.9000032,38.0849838 L16.9000032,40.3996865 Z" id="Fill-8" fill="#71E5FF" mask="url(#mask-2)"></path>
            <path d="M24.6276401,40.3996865 C24.6276401,40.7408757 24.350551,41.0172 24.0091433,41.0172 L19.3405318,41.0172 C18.9987994,41.0172 18.7217102,40.7408757 18.7217102,40.3996865 L18.7217102,38.0849838 C18.7217102,37.7441189 18.9987994,37.4677946 19.3405318,37.4677946 L24.0091433,37.4677946 C24.350551,37.4677946 24.6276401,37.7441189 24.6276401,38.0849838 L24.6276401,40.3996865 Z" id="Fill-9" fill="#71E5FF" mask="url(#mask-2)"></path>
            <path d="M32.3549847,40.3996865 C32.3549847,40.7408757 32.0778955,41.0172 31.7368127,41.0172 L27.0678764,41.0172 C26.7264688,41.0172 26.4493796,40.7408757 26.4493796,40.3996865 L26.4493796,38.0849838 C26.4493796,37.7441189 26.7264688,37.4677946 27.0678764,37.4677946 L31.7368127,37.4677946 C32.0778955,37.4677946 32.3549847,37.7441189 32.3549847,38.0849838 L32.3549847,40.3996865 Z" id="Fill-10" fill="#71E5FF" mask="url(#mask-2)"></path>
            <path d="M40.0826541,40.3996865 C40.0826541,40.7408757 39.805565,41.0172 39.4641573,41.0172 L34.7955459,41.0172 C34.4538134,41.0172 34.1767242,40.7408757 34.1767242,40.3996865 L34.1767242,38.0849838 C34.1767242,37.7441189 34.4538134,37.4677946 34.7955459,37.4677946 L39.4641573,37.4677946 C39.805565,37.4677946 40.0826541,37.7441189 40.0826541,38.0849838 L40.0826541,40.3996865 Z" id="Fill-11" fill="#71E5FF" mask="url(#mask-2)"></path>
            <path d="M47.8099662,40.3996865 C47.8099662,40.7408757 47.5328771,41.0172 47.1917943,41.0172 L42.522858,41.0172 C42.1814503,41.0172 41.9043611,40.7408757 41.9043611,40.3996865 L41.9043611,38.0849838 C41.9043611,37.7441189 42.1814503,37.4677946 42.522858,37.4677946 L47.1917943,37.4677946 C47.5328771,37.4677946 47.8099662,37.7441189 47.8099662,38.0849838 L47.8099662,40.3996865 Z" id="Fill-12" fill="#71E5FF" mask="url(#mask-2)"></path>
            <path d="M9.17233376,92.2345622 C9.17233376,92.575427 8.89556943,92.8517514 8.55416178,92.8517514 L3.88555032,92.8517514 C3.54381783,92.8517514 3.26672866,92.575427 3.26672866,92.2345622 L3.26672866,89.9198595 C3.26672866,89.5789946 3.54381783,89.3023459 3.88555032,89.3023459 L8.55416178,89.3023459 C8.89556943,89.3023459 9.17233376,89.5789946 9.17233376,89.9198595 L9.17233376,92.2345622 Z" id="Fill-13" fill="#71E5FF" mask="url(#mask-2)"></path>
            <path d="M16.9000032,92.2345622 C16.9000032,92.575427 16.622914,92.8517514 16.2818312,92.8517514 L11.6128949,92.8517514 C11.2714873,92.8517514 10.9943981,92.575427 10.9943981,92.2345622 L10.9943981,89.9198595 C10.9943981,89.5789946 11.2714873,89.3023459 11.6128949,89.3023459 L16.2818312,89.3023459 C16.622914,89.3023459 16.9000032,89.5789946 16.9000032,89.9198595 L16.9000032,92.2345622 Z" id="Fill-14" fill="#71E5FF" mask="url(#mask-2)"></path>
            <path d="M24.6276401,92.2345622 C24.6276401,92.575427 24.350551,92.8517514 24.0091433,92.8517514 L19.3405318,92.8517514 C18.9987994,92.8517514 18.7217102,92.575427 18.7217102,92.2345622 L18.7217102,89.9198595 C18.7217102,89.5789946 18.9987994,89.3023459 19.3405318,89.3023459 L24.0091433,89.3023459 C24.350551,89.3023459 24.6276401,89.5789946 24.6276401,89.9198595 L24.6276401,92.2345622 Z" id="Fill-15" fill="#71E5FF" mask="url(#mask-2)"></path>
            <path d="M32.3549847,92.2345622 C32.3549847,92.575427 32.0778955,92.8517514 31.7368127,92.8517514 L27.0678764,92.8517514 C26.7264688,92.8517514 26.4493796,92.575427 26.4493796,92.2345622 L26.4493796,89.9198595 C26.4493796,89.5789946 26.7264688,89.3023459 27.0678764,89.3023459 L31.7368127,89.3023459 C32.0778955,89.3023459 32.3549847,89.5789946 32.3549847,89.9198595 L32.3549847,92.2345622 Z" id="Fill-16" fill="#71E5FF" mask="url(#mask-2)"></path>
            <path d="M40.0826541,92.2345622 C40.0826541,92.575427 39.805565,92.8517514 39.4641573,92.8517514 L34.7955459,92.8517514 C34.4538134,92.8517514 34.1767242,92.575427 34.1767242,92.2345622 L34.1767242,89.9198595 C34.1767242,89.5789946 34.4538134,89.3023459 34.7955459,89.3023459 L39.4641573,89.3023459 C39.805565,89.3023459 40.0826541,89.5789946 40.0826541,89.9198595 L40.0826541,92.2345622 Z" id="Fill-17" fill="#71E5FF" mask="url(#mask-2)"></path>
            <path d="M47.8099662,92.2345622 C47.8099662,92.575427 47.5328771,92.8517514 47.1917943,92.8517514 L42.522858,92.8517514 C42.1814503,92.8517514 41.9043611,92.575427 41.9043611,92.2345622 L41.9043611,89.9198595 C41.9043611,89.5789946 42.1814503,89.3023459 42.522858,89.3023459 L47.1917943,89.3023459 C47.5328771,89.3023459 47.8099662,89.5789946 47.8099662,89.9198595 L47.8099662,92.2345622 Z" id="Fill-18" fill="#71E5FF" mask="url(#mask-2)"></path>
            <path d="M9.17233376,97.5032432 C9.17233376,97.8444324 8.89556943,98.1207568 8.55416178,98.1207568 L3.88555032,98.1207568 C3.54381783,98.1207568 3.26672866,97.8444324 3.26672866,97.5032432 L3.26672866,95.1885405 C3.26672866,94.8476757 3.54381783,94.5713514 3.88555032,94.5713514 L8.55416178,94.5713514 C8.89556943,94.5713514 9.17233376,94.8476757 9.17233376,95.1885405 L9.17233376,97.5032432 Z" id="Fill-19" fill="#71E5FF" mask="url(#mask-2)"></path>
            <path d="M16.9000032,97.5032432 C16.9000032,97.8444324 16.622914,98.1207568 16.2818312,98.1207568 L11.6128949,98.1207568 C11.2714873,98.1207568 10.9943981,97.8444324 10.9943981,97.5032432 L10.9943981,95.1885405 C10.9943981,94.8476757 11.2714873,94.5713514 11.6128949,94.5713514 L16.2818312,94.5713514 C16.622914,94.5713514 16.9000032,94.8476757 16.9000032,95.1885405 L16.9000032,97.5032432 Z" id="Fill-20" fill="#71E5FF" mask="url(#mask-2)"></path>
            <path d="M24.6276401,97.5032432 C24.6276401,97.8444324 24.350551,98.1207568 24.0091433,98.1207568 L19.3405318,98.1207568 C18.9987994,98.1207568 18.7217102,97.8444324 18.7217102,97.5032432 L18.7217102,95.1885405 C18.7217102,94.8476757 18.9987994,94.5713514 19.3405318,94.5713514 L24.0091433,94.5713514 C24.350551,94.5713514 24.6276401,94.8476757 24.6276401,95.1885405 L24.6276401,97.5032432 Z" id="Fill-21" fill="#71E5FF" mask="url(#mask-2)"></path>
            <path d="M32.3549847,97.5032432 C32.3549847,97.8444324 32.0778955,98.1207568 31.7368127,98.1207568 L27.0678764,98.1207568 C26.7264688,98.1207568 26.4493796,97.8444324 26.4493796,97.5032432 L26.4493796,95.1885405 C26.4493796,94.8476757 26.7264688,94.5713514 27.0678764,94.5713514 L31.7368127,94.5713514 C32.0778955,94.5713514 32.3549847,94.8476757 32.3549847,95.1885405 L32.3549847,97.5032432 Z" id="Fill-22" fill="#71E5FF" mask="url(#mask-2)"></path>
            <path d="M40.0826541,97.5032432 C40.0826541,97.8444324 39.805565,98.1207568 39.4641573,98.1207568 L34.7955459,98.1207568 C34.4538134,98.1207568 34.1767242,97.8444324 34.1767242,97.5032432 L34.1767242,95.1885405 C34.1767242,94.8476757 34.4538134,94.5713514 34.7955459,94.5713514 L39.4641573,94.5713514 C39.805565,94.5713514 40.0826541,94.8476757 40.0826541,95.1885405 L40.0826541,97.5032432 Z" id="Fill-23" fill="#71E5FF" mask="url(#mask-2)"></path>
            <path d="M47.8099662,97.5032432 C47.8099662,97.8444324 47.5328771,98.1207568 47.1917943,98.1207568 L42.522858,98.1207568 C42.1814503,98.1207568 41.9043611,97.8444324 41.9043611,97.5032432 L41.9043611,95.1885405 C41.9043611,94.8476757 42.1814503,94.5713514 42.522858,94.5713514 L47.1917943,94.5713514 C47.5328771,94.5713514 47.8099662,94.8476757 47.8099662,95.1885405 L47.8099662,97.5032432 Z" id="Fill-24" fill="#71E5FF" mask="url(#mask-2)"></path>
            <path d="M9.17233376,102.772249 C9.17233376,103.113438 8.89556943,103.389438 8.55416178,103.389438 L3.88555032,103.389438 C3.54381783,103.389438 3.26672866,103.113438 3.26672866,102.772249 L3.26672866,100.457546 C3.26672866,100.116681 3.54381783,99.8403568 3.88555032,99.8403568 L8.55416178,99.8403568 C8.89556943,99.8403568 9.17233376,100.116681 9.17233376,100.457546 L9.17233376,102.772249 Z" id="Fill-25" fill="#71E5FF" mask="url(#mask-2)"></path>
            <path d="M16.9000032,102.772249 C16.9000032,103.113438 16.622914,103.389438 16.2818312,103.389438 L11.6128949,103.389438 C11.2714873,103.389438 10.9943981,103.113438 10.9943981,102.772249 L10.9943981,100.457546 C10.9943981,100.116681 11.2714873,99.8403568 11.6128949,99.8403568 L16.2818312,99.8403568 C16.622914,99.8403568 16.9000032,100.116681 16.9000032,100.457546 L16.9000032,102.772249 Z" id="Fill-26" fill="#71E5FF" mask="url(#mask-2)"></path>
            <path d="M24.6276401,102.772249 C24.6276401,103.113438 24.350551,103.389438 24.0091433,103.389438 L19.3405318,103.389438 C18.9987994,103.389438 18.7217102,103.113438 18.7217102,102.772249 L18.7217102,100.457546 C18.7217102,100.116681 18.9987994,99.8403568 19.3405318,99.8403568 L24.0091433,99.8403568 C24.350551,99.8403568 24.6276401,100.116681 24.6276401,100.457546 L24.6276401,102.772249 Z" id="Fill-27" fill="#71E5FF" mask="url(#mask-2)"></path>
            <path d="M32.3549847,102.772249 C32.3549847,103.113438 32.0778955,103.389438 31.7368127,103.389438 L27.0678764,103.389438 C26.7264688,103.389438 26.4493796,103.113438 26.4493796,102.772249 L26.4493796,100.457546 C26.4493796,100.116681 26.7264688,99.8403568 27.0678764,99.8403568 L31.7368127,99.8403568 C32.0778955,99.8403568 32.3549847,100.116681 32.3549847,100.457546 L32.3549847,102.772249 Z" id="Fill-28" fill="#71E5FF" mask="url(#mask-2)"></path>
            <path d="M40.0826541,102.772249 C40.0826541,103.113438 39.805565,103.389438 39.4641573,103.389438 L34.7955459,103.389438 C34.4538134,103.389438 34.1767242,103.113438 34.1767242,102.772249 L34.1767242,100.457546 C34.1767242,100.116681 34.4538134,99.8403568 34.7955459,99.8403568 L39.4641573,99.8403568 C39.805565,99.8403568 40.0826541,100.116681 40.0826541,100.457546 L40.0826541,102.772249 Z" id="Fill-29" fill="#71E5FF" mask="url(#mask-2)"></path>
            <path d="M47.8099662,102.772249 C47.8099662,103.113438 47.5328771,103.389438 47.1917943,103.389438 L42.522858,103.389438 C42.1814503,103.389438 41.9043611,103.113438 41.9043611,102.772249 L41.9043611,100.457546 C41.9043611,100.116681 42.1814503,99.8403568 42.522858,99.8403568 L47.1917943,99.8403568 C47.5328771,99.8403568 47.8099662,100.116681 47.8099662,100.457546 L47.8099662,102.772249 Z" id="Fill-30" fill="#71E5FF" mask="url(#mask-2)"></path>
            <path d="M9.17233376,108.041254 C9.17233376,108.382119 8.89556943,108.658443 8.55416178,108.658443 L3.88555032,108.658443 C3.54381783,108.658443 3.26672866,108.382119 3.26672866,108.041254 L3.26672866,105.726551 C3.26672866,105.385686 3.54381783,105.109362 3.88555032,105.109362 L8.55416178,105.109362 C8.89556943,105.109362 9.17233376,105.385686 9.17233376,105.726551 L9.17233376,108.041254 Z" id="Fill-31" fill="#71E5FF" mask="url(#mask-2)"></path>
            <path d="M16.9000032,108.041254 C16.9000032,108.382119 16.622914,108.658443 16.2818312,108.658443 L11.6128949,108.658443 C11.2714873,108.658443 10.9943981,108.382119 10.9943981,108.041254 L10.9943981,105.726551 C10.9943981,105.385686 11.2714873,105.109362 11.6128949,105.109362 L16.2818312,105.109362 C16.622914,105.109362 16.9000032,105.385686 16.9000032,105.726551 L16.9000032,108.041254 Z" id="Fill-32" fill="#71E5FF" mask="url(#mask-2)"></path>
            <path d="M24.6276401,108.041254 C24.6276401,108.382119 24.350551,108.658443 24.0091433,108.658443 L19.3405318,108.658443 C18.9987994,108.658443 18.7217102,108.382119 18.7217102,108.041254 L18.7217102,105.726551 C18.7217102,105.385686 18.9987994,105.109362 19.3405318,105.109362 L24.0091433,105.109362 C24.350551,105.109362 24.6276401,105.385686 24.6276401,105.726551 L24.6276401,108.041254 Z" id="Fill-33" fill="#71E5FF" mask="url(#mask-2)"></path>
            <path d="M32.3549847,108.041254 C32.3549847,108.382119 32.0778955,108.658443 31.7368127,108.658443 L27.0678764,108.658443 C26.7264688,108.658443 26.4493796,108.382119 26.4493796,108.041254 L26.4493796,105.726551 C26.4493796,105.385686 26.7264688,105.109362 27.0678764,105.109362 L31.7368127,105.109362 C32.0778955,105.109362 32.3549847,105.385686 32.3549847,105.726551 L32.3549847,108.041254 Z" id="Fill-34" fill="#71E5FF" mask="url(#mask-2)"></path>
            <path d="M40.0826541,108.041254 C40.0826541,108.382119 39.805565,108.658443 39.4641573,108.658443 L34.7955459,108.658443 C34.4538134,108.658443 34.1767242,108.382119 34.1767242,108.041254 L34.1767242,105.726551 C34.1767242,105.385686 34.4538134,105.109362 34.7955459,105.109362 L39.4641573,105.109362 C39.805565,105.109362 40.0826541,105.385686 40.0826541,105.726551 L40.0826541,108.041254 Z" id="Fill-35" fill="#71E5FF" mask="url(#mask-2)"></path>
            <path d="M47.8099662,108.041254 C47.8099662,108.382119 47.5328771,108.658443 47.1917943,108.658443 L42.522858,108.658443 C42.1814503,108.658443 41.9043611,108.382119 41.9043611,108.041254 L41.9043611,105.726551 C41.9043611,105.385686 42.1814503,105.109362 42.522858,105.109362 L47.1917943,105.109362 C47.5328771,105.109362 47.8099662,105.385686 47.8099662,105.726551 L47.8099662,108.041254 Z" id="Fill-36" fill="#71E5FF" mask="url(#mask-2)"></path>
            <path d="M9.17233376,85.2742703 C9.17233376,85.6154595 8.89556943,85.8917838 8.55416178,85.8917838 L3.88555032,85.8917838 C3.54381783,85.8917838 3.26672866,85.6154595 3.26672866,85.2742703 L3.26672866,44.423027 C3.26672866,44.0818378 3.54381783,43.8058378 3.88555032,43.8058378 L8.55416178,43.8058378 C8.89556943,43.8058378 9.17233376,44.0818378 9.17233376,44.423027 L9.17233376,85.2742703 Z" id="Fill-37" fill="#71E5FF" mask="url(#mask-2)"></path>
            <path d="M3.26682611,47.1693081 L9.17243121,47.1693081" id="Stroke-38" stroke="#E28A32" stroke-width="1.00345946" stroke-linecap="round" mask="url(#mask-2)"></path>
            <path d="M3.26682611,51.6018486 L9.17243121,51.6018486" id="Stroke-39" stroke="#E28A32" stroke-width="1.00345946" stroke-linecap="round" mask="url(#mask-2)"></path>
            <path d="M3.26682611,56.0343892 L9.17243121,56.0343892" id="Stroke-40" stroke="#E28A32" stroke-width="1.00345946" stroke-linecap="round" mask="url(#mask-2)"></path>
            <path d="M3.26682611,60.4672541 L9.17243121,60.4672541" id="Stroke-41" stroke="#E28A32" stroke-width="1.00345946" stroke-linecap="round" mask="url(#mask-2)"></path>
            <path d="M3.26682611,64.8997946 L9.17243121,64.8997946" id="Stroke-42" stroke="#E28A32" stroke-width="1.00345946" stroke-linecap="round" mask="url(#mask-2)"></path>
            <path d="M3.26682611,69.3323351 L9.17243121,69.3323351" id="Stroke-43" stroke="#E28A32" stroke-width="1.00345946" stroke-linecap="round" mask="url(#mask-2)"></path>
            <path d="M3.26682611,73.7648757 L9.17243121,73.7648757" id="Stroke-44" stroke="#E28A32" stroke-width="1.00345946" stroke-linecap="round" mask="url(#mask-2)"></path>
            <path d="M3.26682611,78.1974162 L9.17243121,78.1974162" id="Stroke-45" stroke="#E28A32" stroke-width="1.00345946" stroke-linecap="round" mask="url(#mask-2)"></path>
            <path d="M3.26682611,82.6299243 L9.17243121,82.6299243" id="Stroke-46" stroke="#E28A32" stroke-width="1.00345946" stroke-linecap="round" mask="url(#mask-2)"></path>
            <path d="M16.9000032,85.2742703 C16.9000032,85.6154595 16.622914,85.8917838 16.2818312,85.8917838 L11.6128949,85.8917838 C11.2714873,85.8917838 10.9943981,85.6154595 10.9943981,85.2742703 L10.9943981,44.423027 C10.9943981,44.0818378 11.2714873,43.8058378 11.6128949,43.8058378 L16.2818312,43.8058378 C16.622914,43.8058378 16.9000032,44.0818378 16.9000032,44.423027 L16.9000032,85.2742703 Z" id="Fill-47" fill="#71E5FF" mask="url(#mask-2)"></path>
            <path d="M10.9944955,47.1693081 L16.9001006,47.1693081" id="Stroke-48" stroke="#E28A32" stroke-width="1.00345946" stroke-linecap="round" mask="url(#mask-2)"></path>
            <path d="M10.9944955,51.6018486 L16.9001006,51.6018486" id="Stroke-49" stroke="#E28A32" stroke-width="1.00345946" stroke-linecap="round" mask="url(#mask-2)"></path>
            <path d="M10.9944955,56.0343892 L16.9001006,56.0343892" id="Stroke-50" stroke="#E28A32" stroke-width="1.00345946" stroke-linecap="round" mask="url(#mask-2)"></path>
            <path d="M10.9944955,60.4672541 L16.9001006,60.4672541" id="Stroke-51" stroke="#E28A32" stroke-width="1.00345946" stroke-linecap="round" mask="url(#mask-2)"></path>
            <path d="M10.9944955,64.8997946 L16.9001006,64.8997946" id="Stroke-52" stroke="#E28A32" stroke-width="1.00345946" stroke-linecap="round" mask="url(#mask-2)"></path>
            <path d="M10.9944955,69.3323351 L16.9001006,69.3323351" id="Stroke-53" stroke="#E28A32" stroke-width="1.00345946" stroke-linecap="round" mask="url(#mask-2)"></path>
            <path d="M10.9944955,73.7648757 L16.9001006,73.7648757" id="Stroke-54" stroke="#E28A32" stroke-width="1.00345946" stroke-linecap="round" mask="url(#mask-2)"></path>
            <path d="M10.9944955,78.1974162 L16.9001006,78.1974162" id="Stroke-55" stroke="#E28A32" stroke-width="1.00345946" stroke-linecap="round" mask="url(#mask-2)"></path>
            <path d="M10.9944955,82.6299243 L16.9001006,82.6299243" id="Stroke-56" stroke="#E28A32" stroke-width="1.00345946" stroke-linecap="round" mask="url(#mask-2)"></path>
            <path d="M24.6276401,85.2742703 C24.6276401,85.6154595 24.350551,85.8917838 24.0091433,85.8917838 L19.3405318,85.8917838 C18.9987994,85.8917838 18.7217102,85.6154595 18.7217102,85.2742703 L18.7217102,44.423027 C18.7217102,44.0818378 18.9987994,43.8058378 19.3405318,43.8058378 L24.0091433,43.8058378 C24.350551,43.8058378 24.6276401,44.0818378 24.6276401,44.423027 L24.6276401,85.2742703 Z" id="Fill-57" fill="#71E5FF" mask="url(#mask-2)"></path>
            <path d="M18.7218401,47.1693081 L24.6277701,47.1693081" id="Stroke-58" stroke="#E28A32" stroke-width="1.00345946" stroke-linecap="round" mask="url(#mask-2)"></path>
            <path d="M18.7218401,51.6018486 L24.6277701,51.6018486" id="Stroke-59" stroke="#E28A32" stroke-width="1.00345946" stroke-linecap="round" mask="url(#mask-2)"></path>
            <path d="M18.7218401,56.0343892 L24.6277701,56.0343892" id="Stroke-60" stroke="#E28A32" stroke-width="1.00345946" stroke-linecap="round" mask="url(#mask-2)"></path>
            <path d="M18.7218401,60.4672541 L24.6277701,60.4672541" id="Stroke-61" stroke="#E28A32" stroke-width="1.00345946" stroke-linecap="round" mask="url(#mask-2)"></path>
            <path d="M18.7218401,64.8997946 L24.6277701,64.8997946" id="Stroke-62" stroke="#E28A32" stroke-width="1.00345946" stroke-linecap="round" mask="url(#mask-2)"></path>
            <path d="M18.7218401,69.3323351 L24.6277701,69.3323351" id="Stroke-63" stroke="#E28A32" stroke-width="1.00345946" stroke-linecap="round" mask="url(#mask-2)"></path>
            <path d="M18.7218401,73.7648757 L24.6277701,73.7648757" id="Stroke-64" stroke="#E28A32" stroke-width="1.00345946" stroke-linecap="round" mask="url(#mask-2)"></path>
            <path d="M18.7218401,78.1974162 L24.6277701,78.1974162" id="Stroke-65" stroke="#E28A32" stroke-width="1.00345946" stroke-linecap="round" mask="url(#mask-2)"></path>
            <path d="M18.7218401,82.6299243 L24.6277701,82.6299243" id="Stroke-66" stroke="#E28A32" stroke-width="1.00345946" stroke-linecap="round" mask="url(#mask-2)"></path>
            <path d="M32.3549847,85.2742703 C32.3549847,85.6154595 32.0778955,85.8917838 31.7368127,85.8917838 L27.0678764,85.8917838 C26.7264688,85.8917838 26.4493796,85.6154595 26.4493796,85.2742703 L26.4493796,44.423027 C26.4493796,44.0818378 26.7264688,43.8058378 27.0678764,43.8058378 L31.7368127,43.8058378 C32.0778955,43.8058378 32.3549847,44.0818378 32.3549847,44.423027 L32.3549847,85.2742703 Z" id="Fill-67" fill="#71E5FF" mask="url(#mask-2)"></path>
            <path d="M26.4494771,47.1693081 L32.3550822,47.1693081" id="Stroke-68" stroke="#E28A32" stroke-width="1.00345946" stroke-linecap="round" mask="url(#mask-2)"></path>
            <path d="M26.4494771,51.6018486 L32.3550822,51.6018486" id="Stroke-69" stroke="#E28A32" stroke-width="1.00345946" stroke-linecap="round" mask="url(#mask-2)"></path>
            <path d="M26.4494771,56.0343892 L32.3550822,56.0343892" id="Stroke-70" stroke="#E28A32" stroke-width="1.00345946" stroke-linecap="round" mask="url(#mask-2)"></path>
            <path d="M26.4494771,60.4672541 L32.3550822,60.4672541" id="Stroke-71" stroke="#E28A32" stroke-width="1.00345946" stroke-linecap="round" mask="url(#mask-2)"></path>
            <path d="M26.4494771,64.8997946 L32.3550822,64.8997946" id="Stroke-72" stroke="#E28A32" stroke-width="1.00345946" stroke-linecap="round" mask="url(#mask-2)"></path>
            <path d="M26.4494771,69.3323351 L32.3550822,69.3323351" id="Stroke-73" stroke="#E28A32" stroke-width="1.00345946" stroke-linecap="round" mask="url(#mask-2)"></path>
            <path d="M26.4494771,73.7648757 L32.3550822,73.7648757" id="Stroke-74" stroke="#E28A32" stroke-width="1.00345946" stroke-linecap="round" mask="url(#mask-2)"></path>
            <path d="M26.4494771,78.1974162 L32.3550822,78.1974162" id="Stroke-75" stroke="#E28A32" stroke-width="1.00345946" stroke-linecap="round" mask="url(#mask-2)"></path>
            <path d="M26.4494771,82.6299243 L32.3550822,82.6299243" id="Stroke-76" stroke="#E28A32" stroke-width="1.00345946" stroke-linecap="round" mask="url(#mask-2)"></path>
            <path d="M40.0826541,85.2742703 C40.0826541,85.6154595 39.805565,85.8917838 39.4641573,85.8917838 L34.7955459,85.8917838 C34.4538134,85.8917838 34.1767242,85.6154595 34.1767242,85.2742703 L34.1767242,44.423027 C34.1767242,44.0818378 34.4538134,43.8058378 34.7955459,43.8058378 L39.4641573,43.8058378 C39.805565,43.8058378 40.0826541,44.0818378 40.0826541,44.423027 L40.0826541,85.2742703 Z" id="Fill-77" fill="#71E5FF" mask="url(#mask-2)"></path>
            <path d="M34.1768217,47.1693081 L40.0827516,47.1693081" id="Stroke-78" stroke="#E28A32" stroke-width="1.00345946" stroke-linecap="round" mask="url(#mask-2)"></path>
            <path d="M34.1768217,51.6018486 L40.0827516,51.6018486" id="Stroke-79" stroke="#E28A32" stroke-width="1.00345946" stroke-linecap="round" mask="url(#mask-2)"></path>
            <path d="M34.1768217,56.0343892 L40.0827516,56.0343892" id="Stroke-80" stroke="#E28A32" stroke-width="1.00345946" stroke-linecap="round" mask="url(#mask-2)"></path>
            <path d="M34.1768217,60.4672541 L40.0827516,60.4672541" id="Stroke-81" stroke="#E28A32" stroke-width="1.00345946" stroke-linecap="round" mask="url(#mask-2)"></path>
            <path d="M34.1768217,64.8997946 L40.0827516,64.8997946" id="Stroke-82" stroke="#E28A32" stroke-width="1.00345946" stroke-linecap="round" mask="url(#mask-2)"></path>
            <path d="M34.1768217,69.3323351 L40.0827516,69.3323351" id="Stroke-83" stroke="#E28A32" stroke-width="1.00345946" stroke-linecap="round" mask="url(#mask-2)"></path>
            <path d="M34.1768217,73.7648757 L40.0827516,73.7648757" id="Stroke-84" stroke="#E28A32" stroke-width="1.00345946" stroke-linecap="round" mask="url(#mask-2)"></path>
            <path d="M34.1768217,78.1974162 L40.0827516,78.1974162" id="Stroke-85" stroke="#E28A32" stroke-width="1.00345946" stroke-linecap="round" mask="url(#mask-2)"></path>
            <path d="M34.1768217,82.6299243 L40.0827516,82.6299243" id="Stroke-86" stroke="#E28A32" stroke-width="1.00345946" stroke-linecap="round" mask="url(#mask-2)"></path>
            <path d="M47.8099662,85.2742703 C47.8099662,85.6154595 47.5328771,85.8917838 47.1917943,85.8917838 L42.522858,85.8917838 C42.1814503,85.8917838 41.9043611,85.6154595 41.9043611,85.2742703 L41.9043611,44.423027 C41.9043611,44.0818378 42.1814503,43.8058378 42.522858,43.8058378 L47.1917943,43.8058378 C47.5328771,43.8058378 47.8099662,44.0818378 47.8099662,44.423027 L47.8099662,85.2742703 Z" id="Fill-87" fill="#71E5FF" mask="url(#mask-2)"></path>
            <path d="M41.9044911,47.1693081 L47.8100962,47.1693081" id="Stroke-88" stroke="#E28A32" stroke-width="1.00345946" stroke-linecap="round" mask="url(#mask-2)"></path>
            <path d="M41.9044911,51.6018486 L47.8100962,51.6018486" id="Stroke-89" stroke="#E28A32" stroke-width="1.00345946" stroke-linecap="round" mask="url(#mask-2)"></path>
            <path d="M41.9044911,56.0343892 L47.8100962,56.0343892" id="Stroke-90" stroke="#E28A32" stroke-width="1.00345946" stroke-linecap="round" mask="url(#mask-2)"></path>
            <path d="M41.9044911,60.4672541 L47.8100962,60.4672541" id="Stroke-91" stroke="#E28A32" stroke-width="1.00345946" stroke-linecap="round" mask="url(#mask-2)"></path>
            <path d="M41.9044911,64.8997946 L47.8100962,64.8997946" id="Stroke-92" stroke="#E28A32" stroke-width="1.00345946" stroke-linecap="round" mask="url(#mask-2)"></path>
            <path d="M41.9044911,69.3323351 L47.8100962,69.3323351" id="Stroke-93" stroke="#E28A32" stroke-width="1.00345946" stroke-linecap="round" mask="url(#mask-2)"></path>
            <path d="M41.9044911,73.7648757 L47.8100962,73.7648757" id="Stroke-94" stroke="#E28A32" stroke-width="1.00345946" stroke-linecap="round" mask="url(#mask-2)"></path>
            <path d="M41.9044911,78.1974162 L47.8100962,78.1974162" id="Stroke-95" stroke="#E28A32" stroke-width="1.00345946" stroke-linecap="round" mask="url(#mask-2)"></path>
            <path d="M41.9044911,82.6299243 L47.8100962,82.6299243" id="Stroke-96" stroke="#E28A32" stroke-width="1.00345946" stroke-linecap="round" mask="url(#mask-2)"></path>
            <polyline id="Fill-97" fill="#D03E21" mask="url(#mask-2)" points="20.1039726 119.679892 20.1039726 114.159892 30.6586987 114.159892 30.6586987 119.679892"></polyline>
            <path d="M3.24840764e-05,87.4808757 L50.7628987,87.4808757" id="Stroke-98" stroke="#FFC876" stroke-width="1.00345946" mask="url(#mask-2)"></path>
            <path d="M3.24840764e-05,42.2351027 L50.7628987,42.2351027" id="Stroke-99" stroke="#FFC876" stroke-width="1.00345946" mask="url(#mask-2)"></path>
            <polygon id="Fill-100" fill="#834F1B" opacity="0.271852355" mask="url(#mask-2)" points="25.3814331 119.679892 50.7628662 119.679892 50.7628662 35.1259459 25.3814331 35.1259459"></polygon>
        </g>
    </g>
</svg>