<?xml version="1.0" encoding="UTF-8"?>
<svg width="120px" height="120px" viewBox="0 0 120 120" version="1.1" xmlns="http://www.w3.org/2000/svg" xmlns:xlink="http://www.w3.org/1999/xlink">
    <!-- Generator: Sketch 51.1 (57501) - http://www.bohemiancoding.com/sketch -->
    <title>Duck</title>
    <desc>Created with Sketch.</desc>
    <defs>
        <polygon id="path-1" points="1.60554099 1.4916 14.8515388 1.4916 14.8515388 13.7142857 1.60554099 13.7142857"></polygon>
        <polygon id="path-3" points="0.357014195 1.4916 13.6037517 1.4916 13.6037517 13.7142857 0.357014195 13.7142857"></polygon>
        <polygon id="path-5" points="0 0.727970285 21.9511155 0.727970285 21.9511155 32.8950857 0 32.8950857"></polygon>
        <polygon id="path-7" points="0.276756098 0.483942857 64.5365854 0.483942857 64.5365854 57.8336571 0.276756098 57.8336571"></polygon>
        <polygon id="path-9" points="0.775804878 1.15714286 5.10862967 1.15714286 5.10862967 9.69171429 0.775804878 9.69171429"></polygon>
    </defs>
    <g id="Duck" stroke="none" stroke-width="1" fill="none" fill-rule="evenodd">
        <g id="Group" transform="translate(60.000000, 60.500000) scale(-1, 1) translate(-60.000000, -60.500000) translate(25.000000, 1.000000)">
            <g id="Group-3" transform="translate(17.073171, 105.128914)">
                <mask id="mask-2" fill="white">
                    <use xlink:href="#path-1"></use>
                </mask>
                <g id="Clip-2"></g>
                <path d="M8.01021951,1.56188571 C8.01021951,1.56188571 -1.34929268,10.1744571 2.56046341,13.0064571 C4.0287561,13.8636 5.33314634,13.3630286 6.35070732,12.1733143 C6.35070732,12.1733143 7.08485366,13.8636 8.65046341,13.6716 C10.2143659,13.4813143 10.473878,12.0790286 10.473878,12.0790286 C10.473878,12.0790286 11.6587561,14.7190286 13.9568049,13.2910286 C16.2548537,11.8647429 13.6972927,3.91731429 11.114122,1.4916 L8.01021951,1.56188571 Z" id="Fill-1" fill="#F58A68" mask="url(#mask-2)"></path>
            </g>
            <g id="Group-6" transform="translate(37.560976, 105.128914)">
                <mask id="mask-4" fill="white">
                    <use xlink:href="#path-3"></use>
                </mask>
                <g id="Clip-5"></g>
                <path d="M7.19907317,1.56188571 C7.19907317,1.56188571 16.5585854,10.1744571 12.6488293,13.0064571 C11.1805366,13.8636 9.87614634,13.3630286 8.85687805,12.1733143 C8.85687805,12.1733143 8.12443902,13.8636 6.55882927,13.6716 C4.99492683,13.4813143 4.73541463,12.0790286 4.73541463,12.0790286 C4.73541463,12.0790286 3.55053659,14.7190286 1.2524878,13.2910286 C-1.04726829,11.8647429 1.512,3.91731429 4.09517073,1.4916 L7.19907317,1.56188571 Z" id="Fill-4" fill="#F58A68" mask="url(#mask-4)"></path>
            </g>
            <g id="Group-9" transform="translate(0.000000, 60.557486)">
                <mask id="mask-6" fill="white">
                    <use xlink:href="#path-5"></use>
                </mask>
                <g id="Clip-8"></g>
                <path d="M17.6697073,0.728228571 C12.2575122,0.779657143 2.31580488,10.4362286 0.420682927,18.4299429 C-0.882,23.9173714 0.994341463,25.5408 3.91556098,25.9762286 C3.87970732,26.2453714 3.86092683,26.5230857 3.86092683,26.8042286 C3.86092683,30.1676571 6.39117073,32.8950857 9.51043902,32.8950857 C12.6297073,32.8950857 15.1582439,30.1676571 15.1582439,26.8042286 C15.1582439,26.4133714 15.1223902,26.0345143 15.0592195,25.6642286 C18.7811707,24.9425143 21.9294634,22.8630857 21.8714146,16.7670857 C21.7894634,7.81165714 23.0836098,0.678514286 17.6697073,0.728228571" id="Fill-7" fill="#FCBC5E" mask="url(#mask-6)"></path>
            </g>
            <g id="Group-12" transform="translate(5.121951, 51.986057)">
                <mask id="mask-8" fill="white">
                    <use xlink:href="#path-7"></use>
                </mask>
                <g id="Clip-11"></g>
                <path d="M64.5367561,28.3342286 C64.5367561,35.1965143 61.6240732,41.3850857 56.9323659,46.2999429 C55.0867561,48.2353714 52.9628537,49.9736571 50.6340732,51.4770857 C44.424561,55.4850857 36.7450488,57.8336571 28.8999268,57.8336571 C16.6448049,57.8336571 7.94943902,54.3296571 3.5565122,46.9599429 C1.40017073,43.3462286 0.276756098,38.7999429 0.276756098,33.2816571 C0.276756098,31.9976571 0.387731707,30.7188 0.59602439,29.4485143 C2.96919512,14.9885143 18.3213902,1.89822857 34.2267561,0.483942857 C34.2130976,0.756514286 34.2062683,1.0308 34.2062683,1.3068 C34.2062683,9.6108 39.8079756,16.3428 46.7174878,16.3428 C51.5440732,16.3428 55.732122,13.0565143 57.8150488,8.24794286 C62.2899268,13.1370857 64.5367561,20.0593714 64.5367561,28.3342286" id="Fill-10" fill="#FFCC7A" mask="url(#mask-8)"></path>
            </g>
            <path d="M59.0880244,81.2226857 C63.2572927,87.2175429 55.6733902,87.3152571 55.6733902,87.3152571 C55.6733902,87.3152571 58.9446098,92.1186857 55.2482683,94.3558286 C40.9836341,102.634114 34.4446098,81.7935429 34.4446098,81.7935429 L40.4577805,77.0278286 L41.6477805,76.0849714 C49.6021707,81.2175429 55.1646098,67.2084 60.0185122,73.4004 C60.0253415,73.4055429 60.0304634,73.4124 60.0355854,73.4192571 C64.9629024,79.7484 59.0880244,81.2226857 59.0880244,81.2226857" id="Fill-13" fill="#FCBC5E"></path>
            <g id="Group-17" transform="translate(30.731707, 0.557486)">
                <mask id="mask-10" fill="white">
                    <use xlink:href="#path-9"></use>
                </mask>
                <g id="Clip-16"></g>
                <path d="M5.0082439,3.24942857 C4.5984878,3.24942857 3.39995122,4.63628571 2.89629268,6.72257143 C2.64019512,4.15457143 3.49556098,1.15628571 3.11312195,1.15628571 C2.58897561,1.15628571 0.775804878,3.41742857 0.775804878,6.51685714 C0.775804878,7.69628571 0.837268293,8.79 0.939707317,9.69171429 C1.4877561,9.57685714 2.07165854,9.50142857 2.68287805,9.47742857 C2.83653659,9.47228571 2.99019512,9.46714286 3.14556098,9.46714286 C3.41360976,9.46714286 3.67995122,9.47742857 3.93946341,9.498 C4.27239024,9.51857143 4.5984878,9.558 4.91434146,9.61114286 C4.34239024,6.91285714 5.43165854,3.24942857 5.0082439,3.24942857" id="Fill-15" fill="#FCBC5E" mask="url(#mask-10)"></path>
            </g>
            <path d="M61.6290244,39.2076 C61.6290244,42.4218857 61.0263415,45.3516 59.9063415,47.9693143 C55.8634146,57.4253143 45.0731707,62.8098857 31.5853659,62.8098857 C18.0258537,62.8098857 8.01243902,57.8367429 4.37073171,48.4853143 C3.38731707,45.9618857 2.86829268,43.1196 2.86829268,39.9704571 C2.86829268,25.1487429 14.3636585,9.13731429 31.5853659,9.13731429 C48.8070732,9.13731429 61.6290244,24.3876 61.6290244,39.2076" id="Fill-18" fill="#FFCC7A"></path>
            <path d="M43.5212195,48.0485143 C43.4887805,48.2079429 43.4204878,48.3673714 43.3060976,48.5113714 C41.3904878,50.9199429 37.1580488,52.5896571 32.2443902,52.5896571 C27.337561,52.5896571 23.1102439,50.9199429 21.1946341,48.5130857 C20.8121951,48.0330857 20.93,47.4193714 21.312439,47.0799429 C21.5326829,46.8776571 21.8382927,46.7713714 22.1865854,46.8313714 C22.5792683,46.8999429 22.9839024,46.9359429 23.3919512,46.9359429 C24.1380488,46.9359429 24.8568293,46.8210857 25.5312195,46.5999429 C27.7285366,45.8988 29.47,44.1399429 30.1734146,41.9130857 C30.2195122,41.6713714 30.2809756,41.4416571 30.3526829,41.2273714 C30.7419512,40.0548 31.4419512,39.2713714 32.2443902,39.2713714 C33.0536585,39.2713714 33.7621951,40.0719429 34.1480488,41.2633714 C34.2112195,41.4570857 34.2641463,41.6610857 34.3085366,41.8719429 C34.3085366,41.8753714 34.3102439,41.8770857 34.3102439,41.8805143 C35.0836585,44.3439429 37.1341463,46.3222286 39.7514634,46.8108 C40.6409756,46.9753714 41.5031707,46.9753714 42.3209756,46.8313714 C42.6607317,46.7696571 42.9595122,46.8708 43.1763415,47.0628 L43.1780488,47.0628 C43.4495122,47.3028 43.5912195,47.6782286 43.5212195,48.0485143" id="Fill-20" fill="#F58A68"></path>
            <path d="M10.2536341,30.7952571 C10.2536341,34.2598286 13.1868049,37.0661143 16.8063171,37.0661143 C20.424122,37.0661143 23.3572927,34.2598286 23.3572927,30.7952571 C23.3572927,27.3306857 20.424122,24.5261143 16.8063171,24.5261143 C13.1868049,24.5261143 10.2536341,27.3306857 10.2536341,30.7952571" id="Fill-22" fill="#3C3331"></path>
            <path d="M52.6855854,30.7952571 C52.6855854,34.2598286 49.7524146,37.0661143 46.1346098,37.0661143 C42.5150976,37.0661143 39.5819268,34.2598286 39.5819268,30.7952571 C39.5819268,27.3306857 42.5150976,24.5261143 46.1346098,24.5261143 C49.7524146,24.5261143 52.6855854,27.3306857 52.6855854,30.7952571" id="Fill-28" fill="#3C3331"></path>
            <path d="M59.9066829,47.9698286 C55.8620488,57.4258286 45.0735122,62.8086857 31.5857073,62.8086857 C18.0261951,62.8086857 8.01278049,57.8372571 4.37107317,48.4858286 C8.95521951,52.2486857 33.9179024,70.6189714 59.9066829,47.9698286" id="Fill-34" fill="#FFCC7A"></path>
            <path d="M43.5212195,48.0485143 C43.4887805,48.2079429 43.4204878,48.3673714 43.3060976,48.5113714 C41.3904878,50.9199429 37.1580488,52.5896571 32.2443902,52.5896571 C27.337561,52.5896571 23.1102439,50.9199429 21.1946341,48.5130857 C20.8121951,48.0330857 20.93,47.4193714 21.312439,47.0799429 C24.5665854,48.8233714 34.3426829,53.0885143 43.1763415,47.0628 L43.1780488,47.0628 C43.4495122,47.3028 43.5912195,47.6782286 43.5212195,48.0485143" id="Fill-36" fill="#F58A68"></path>
            <path d="M62.0541463,98.2868571 C60.2085366,100.222286 58.0846341,101.960571 55.757561,103.464 C49.5463415,107.470286 41.8668293,109.820571 34.0217073,109.820571 C21.7665854,109.820571 13.0729268,106.316571 8.67829268,98.9468571 C13.8582927,103.361143 33.2670732,116.676 62.0541463,98.2868571" id="Fill-38" fill="#FFCC7A"></path>
        </g>
    </g>
</svg>