<?xml version="1.0" encoding="UTF-8"?>
<svg width="120px" height="120px" viewBox="0 0 120 120" version="1.1" xmlns="http://www.w3.org/2000/svg" xmlns:xlink="http://www.w3.org/1999/xlink">
    <!-- Generator: Sketch 51.1 (57501) - http://www.bohemiancoding.com/sketch -->
    <title>Bug7</title>
    <desc>Created with Sketch.</desc>
    <defs>
        <polygon id="path-1" points="0.126659024 0.378927375 16.2762754 0.378927375 16.2762754 16.5948055 0.126659024 16.5948055"></polygon>
        <path d="M1.20764831,21.7534177 C-2.25343644,36.7402532 7.04217797,51.7048101 21.9665932,55.1797468 C36.8920169,58.6536709 51.7957585,49.3210127 55.2548263,34.3336709 C58.7143983,19.3458228 49.4213051,4.38075949 34.4958814,0.907341772 C32.3876653,0.416708861 30.2819703,0.181265823 28.2065297,0.181265823 C15.5900085,0.182278481 4.17760593,8.8835443 1.20764831,21.7534177" id="path-3"></path>
    </defs>
    <g id="Bug7" stroke="none" stroke-width="1" fill="none" fill-rule="evenodd">
        <g id="Group" transform="translate(60.500000, 60.000000) scale(-1, 1) translate(-60.500000, -60.000000) translate(1.000000, 0.000000)">
            <g id="Group-38" transform="translate(4.538136, 15.256203)">
                <path d="M24.2345517,99.375038 C23.1902763,97.9654177 23.4832381,95.973519 24.887539,94.9223797 C25.2657169,94.6393418 25.6882678,94.4621266 26.1234246,94.3694684 C27.2352678,89.6003544 30.4512932,80.6859241 39.5336153,74.2651646 L41.4471958,75.4464304 C41.4471958,75.4464304 30.9777169,84.6393418 28.7671407,95.013519 C28.9698441,95.1760506 29.1594373,95.3573165 29.3223059,95.5755443 C30.3675898,96.9866835 30.0761407,98.9811139 28.6713356,100.030734 C27.2665305,101.079342 25.2798356,100.786684 24.2345517,99.375038" id="Fill-1" fill="#3B2924"></path>
                <path d="M43.3128737,96.3039494 C42.3654119,95.0254684 42.6301364,93.2168608 43.9053525,92.2639494 C44.2477297,92.0072405 44.6314542,91.8457215 45.026272,91.7626835 C46.0342424,87.4350886 48.953272,79.3474937 57.1920051,73.5231899 L58.9285983,74.5940759 C58.9285983,74.5940759 49.4297763,82.9358481 47.4249288,92.346481 C47.6079669,92.4943291 47.7804161,92.6588861 47.9276534,92.8558481 C48.876628,94.1368608 48.6124076,95.9459747 47.3371915,96.8988861 C46.0634881,97.8502785 44.2608398,97.5839494 43.3128737,96.3039494" id="Fill-3" fill="#3B2924"></path>
                <path d="M60.5977246,93.6110886 C59.8292669,92.5736203 60.044072,91.1088101 61.0777585,90.3351392 C61.3560975,90.127038 61.6667076,89.9964051 61.9874025,89.9290633 C62.8047712,86.4196962 65.1706525,79.8617215 71.8523008,75.1381772 L73.2601314,76.007038 C73.2601314,76.007038 65.5579068,82.7710886 63.9317415,90.402481 C64.0804915,90.5219747 64.2201653,90.6556456 64.3396695,90.8161519 C65.1091356,91.8531139 64.8948347,93.320962 63.8616525,94.0936203 C62.8284703,94.8652658 61.3666864,94.6495696 60.5977246,93.6110886" id="Fill-5" fill="#3B2924"></path>
                <g id="Group-9" transform="translate(97.822034, 34.430380)">
                    <mask id="mask-2" fill="white">
                        <use xlink:href="#path-1"></use>
                    </mask>
                    <g id="Clip-8"></g>
                    <path d="M10.224722,0.639392405 C14.5409932,1.76141772 17.1337814,6.18420253 16.0168958,10.5178734 C14.8990017,14.8530633 10.4949932,17.4561013 6.17922627,16.3340759 C1.86245085,15.2135696 -0.730841525,10.7907848 0.386044068,6.45559494 C1.50292966,2.12192405 5.90845085,-0.482126582 10.224722,0.639392405" id="Fill-7" fill="#007691" mask="url(#mask-2)"></path>
                </g>
                <path d="M101.644808,42.9069873 C106.720461,44.226481 109.770592,49.4285063 108.457558,54.5257215 C107.142003,59.624962 101.961973,62.6867342 96.8848081,61.3662278 C91.808147,60.0482532 88.7585199,54.8457215 90.0720581,49.7474937 C91.3866047,44.6497722 96.5661301,41.5869873 101.644808,42.9069873" id="Fill-10" fill="#60B5BF"></path>
                <path d="M97.332722,48.5596456 C102.918663,50.0112911 106.273858,55.7353418 104.829218,61.3444557 C103.382561,66.9535696 97.6826627,70.3221772 92.0962178,68.8705316 C86.5107814,67.4198987 83.1555864,61.6958481 84.6012347,56.0867342 C86.0468831,50.4781266 91.7467814,47.108 97.332722,48.5596456" id="Fill-12" fill="#007691"></path>
                <path d="M107.838002,82.3497215 C108.606459,81.3122532 108.391654,79.8469367 107.357464,79.0737722 C107.079629,78.8656709 106.769523,78.7345316 106.448324,78.6676962 C105.630451,75.1588354 103.264569,68.5998481 96.5839297,63.8768101 L95.1750907,64.7461772 C95.1750907,64.7461772 102.877315,71.5092152 104.503985,79.1411139 C104.355739,79.2601013 104.215561,79.3937722 104.096057,79.5542785 C103.326591,80.5922532 103.541396,82.0595949 104.574074,82.8322532 C105.607256,83.6033924 107.06904,83.3882025 107.838002,82.3497215" id="Fill-14" fill="#3B2924"></path>
                <path d="M90.8150517,52.8980759 C97.0443992,54.5168101 100.786848,60.8995949 99.1742975,67.1537722 C97.5622508,73.4084557 91.2058356,77.1664304 84.9780008,75.5471899 C78.7481492,73.928962 75.0062042,67.5466835 76.6182508,61.292 C78.2302975,55.0378228 84.5862085,51.2798481 90.8150517,52.8980759" id="Fill-16" fill="#60B5BF"></path>
                <path d="M82.6915873,56.3969114 C89.5809814,58.1883038 93.7202653,65.2475443 91.9377864,72.1665316 C90.1537949,79.0850127 83.1232144,83.240962 76.2328119,81.4500759 C69.343922,79.6596962 65.2041339,72.6004557 66.9876212,65.6814684 C68.7711085,58.7634937 75.8011847,54.607038 82.6915873,56.3969114" id="Fill-18" fill="#007691"></path>
                <path d="M95.6840678,93.4879494 C96.6315297,92.2099747 96.3657966,90.4013671 95.0910847,89.4479494 C94.7492119,89.1917468 94.3649831,89.0307342 93.9701653,88.9476962 C92.9616907,84.6201013 90.0431653,76.532 81.8044322,70.7076962 L80.0673347,71.7790886 C80.0673347,71.7790886 89.566661,80.1198481 91.5715085,89.5309873 C91.3884703,89.6793418 91.2155169,89.8428861 91.0682797,90.0408608 C90.1198093,91.3213671 90.3835254,93.1309873 91.6592458,94.0833924 C92.9329492,95.0352911 94.734589,94.768962 95.6840678,93.4879494" id="Fill-20" fill="#3B2924"></path>
                <path d="M74.2081983,57.0589873 C81.7904144,59.0296203 86.3467025,66.7987342 84.384211,74.4124051 C82.4217195,82.0270886 74.6836941,86.6017722 67.101478,84.6311392 C59.5187576,82.6605063 54.9629737,74.8908861 56.9259695,67.2767089 C58.888461,59.663038 66.6259822,55.0878481 74.2081983,57.0589873" id="Fill-22" fill="#60B5BF"></path>
                <path d="M66.8947911,58.656557 C74.476503,60.6276962 79.0312784,68.3973165 77.0702996,76.0109873 C75.1073038,83.6251646 67.3702869,88.1998481 59.7865581,86.2287089 C52.2043419,84.2585823 47.6495665,76.4894684 49.6115538,68.8752911 C51.5740453,61.2616203 59.3110623,56.6869367 66.8947911,58.656557" id="Fill-24" fill="#007691"></path>
                <path d="M66.2393835,63.0187342 C70.6565021,69.5134177 68.9935275,78.3736709 62.5261801,82.8096203 C56.0583284,87.2455696 47.2336716,85.5751899 42.8170572,79.0810127 C38.3999386,72.5863291 40.0619047,63.7255696 46.5302606,59.2901266 C52.9981123,54.8541772 61.8217606,56.524557 66.2393835,63.0187342" id="Fill-26" fill="#60B5BF"></path>
                <path d="M77.4896737,102.872861 C78.6534534,101.302228 78.3267076,99.084 76.7620593,97.9123544 C76.3420297,97.5974177 75.8700636,97.399443 75.3854915,97.2971646 C74.1470847,91.9842532 70.5649831,82.0531139 60.4474619,74.9017215 L58.3165551,76.2176709 C58.3165551,76.2176709 69.9785551,86.4581772 72.4407458,98.0141266 C72.2158559,98.1958987 72.003572,98.3974177 71.8230551,98.6404557 C70.6577627,100.212101 70.9835,102.433367 72.5481483,103.602987 C74.1117881,104.771595 76.3248856,104.445013 77.4896737,102.872861" id="Fill-28" fill="#3B2924"></path>
                <path d="M61.0379742,58.576962 C65.455597,65.0716456 63.7926225,73.9324051 57.3247708,78.3678481 C50.8574233,82.8037975 42.033775,81.1334177 37.6161521,74.6392405 C33.1990335,68.144557 34.8615038,59.2837975 41.3293555,54.8483544 C47.796703,50.4129114 56.6213597,52.0827848 61.0379742,58.576962" id="Fill-30" fill="#007691"></path>
                <path d="M55.9458835,59.6791392 C55.9458835,67.5439494 49.5960233,73.9191392 41.7642097,73.9191392 C33.9318919,73.9191392 27.582536,67.5439494 27.582536,59.6791392 C27.582536,51.8143291 33.9318919,45.4386329 41.7642097,45.4386329 C49.5960233,45.4386329 55.9458835,51.8143291 55.9458835,59.6791392" id="Fill-32" fill="#60B5BF"></path>
                <path d="M53.1420216,50.5286076 C53.1420216,58.3934177 46.7921614,64.7696203 38.9603479,64.7696203 C31.1280301,64.7696203 24.7781699,58.3934177 24.7781699,50.5286076 C24.7781699,42.6643038 31.1280301,36.2886076 38.9603479,36.2886076 C46.7921614,36.2886076 53.1420216,42.6643038 53.1420216,50.5286076" id="Fill-34" fill="#007691"></path>
                <path d="M55.2549775,34.333519 C51.7959097,49.3208608 36.891664,58.653519 21.9667445,55.1795949 C7.04232924,51.7051646 -2.25328517,36.7401013 1.20729534,21.7532658 C4.66636314,6.76744304 19.5696004,-2.56724051 34.4955284,0.907189873 C49.4214564,4.38111392 58.7140453,19.3456709 55.2549775,34.333519" id="Fill-36" fill="#60B5BF"></path>
            </g>
            <g id="Group-41" transform="translate(4.538136, 15.256203)">
                <mask id="mask-4" fill="white">
                    <use xlink:href="#path-3"></use>
                </mask>
                <g id="Clip-40"></g>
                <path d="M15.3542775,54.3191392 C20.5070784,58.9920506 35.2439174,52.8821772 35.1118072,39.9317975" id="Stroke-39" stroke="#3B2924" stroke-width="1.67594937" stroke-linecap="round" mask="url(#mask-4)"></path>
            </g>
            <g id="Group-54" transform="translate(0.000000, 0.066329)">
                <path d="M52.3797661,41.3039494 C50.9119314,47.664962 44.5872831,51.6259747 38.25255,50.1515443 C31.9188254,48.6761013 27.9746814,42.3257215 29.4420119,35.9657215 C30.9108551,29.6052152 37.2365119,25.6442025 43.5682195,27.1181266 C49.9044653,28.592557 53.8481051,34.9439494 52.3797661,41.3039494" id="Fill-42" fill="#FFFFFF"></path>
                <path d="M47.2172335,40.1028861 C46.4104538,43.5990886 42.932225,45.7783291 39.4499623,44.9671899 C35.9666911,44.1560506 33.7969581,40.6638987 34.6042419,37.1671899 C35.4130386,33.6699747 38.8907631,31.4907342 42.3730258,32.3023797 C45.8557928,33.1130127 48.0250216,36.6046582 47.2172335,40.1028861" id="Fill-44" fill="#3B2924"></path>
                <path d="M23.2447843,36.839443 C21.7764453,43.2004557 15.4528055,47.1614684 9.11655975,45.687038 C2.78333941,44.2115949 -1.16080466,37.8617215 0.306525847,31.5012152 C1.77587331,25.1407089 8.10052161,21.1791899 14.4337419,22.6536203 C20.768475,24.128557 24.7131233,30.4789367 23.2447843,36.839443" id="Fill-46" fill="#FFFFFF"></path>
                <path d="M18.0822517,35.6383797 C17.2744636,39.1345823 13.796739,41.3138228 10.3144763,40.5026835 C6.83120508,39.6915443 4.66197627,36.1998987 5.46875593,32.7026835 C6.27755254,29.204962 9.75477288,27.0267342 13.2370356,27.8378734 C16.7203068,28.6490127 18.8905441,32.1406582 18.0822517,35.6383797" id="Fill-48" fill="#3B2924"></path>
                <path d="M29.6797093,2.98460759 C29.9570398,1.8924557 29.3010271,0.78156962 28.2138915,0.504101266 C27.1272602,0.225113924 26.0204593,0.883848101 25.7426246,1.976 C25.4663025,3.06764557 26.121811,4.17802532 27.2089466,4.45650633 C27.3778661,4.4995443 27.5457771,4.51270886 27.7121754,4.51270886 C30.7809636,10.5709367 29.264722,19.3911899 29.264722,19.3911899 L30.6922178,19.2028354 C32.6325229,12.3253671 30.6493576,6.58511392 29.2864042,3.7603038 C29.4654085,3.53853165 29.6050822,3.27979747 29.6797093,2.98460759" id="Fill-50" fill="#60B5BF"></path>
                <path d="M48.5246199,5.70708861 C47.4369801,5.42810127 46.3311877,6.08734177 46.0543614,7.18 C45.9787258,7.47468354 45.9767089,7.76936709 46.0286453,8.04987342 C43.4847682,9.87367089 39.0041157,13.9582278 37.4273657,20.9283544 L38.5911453,21.7805063 C38.5911453,21.7805063 41.4678191,13.3096203 47.0517428,9.46708861 C47.1974674,9.54759494 47.3512597,9.6164557 47.5201792,9.65949367 C48.6068106,9.93746835 49.7131072,9.27924051 49.9904377,8.18810127 C50.2682725,7.09544304 49.6112513,5.98506329 48.5246199,5.70708861" id="Fill-52" fill="#60B5BF"></path>
            </g>
        </g>
    </g>
</svg>