<?xml version="1.0" encoding="UTF-8"?>
<svg width="120px" height="120px" viewBox="0 0 120 120" version="1.1" xmlns="http://www.w3.org/2000/svg" xmlns:xlink="http://www.w3.org/1999/xlink">
    <!-- Generator: Sketch 51.1 (57501) - http://www.bohemiancoding.com/sketch -->
    <title>Car51</title>
    <desc>Created with Sketch.</desc>
    <defs></defs>
    <g id="Car51" stroke="none" stroke-width="1" fill="none" fill-rule="evenodd">
        <g id="Group-3" transform="translate(16.000000, 28.000000)">
            <polygon id="Fill-38" fill="#C64A42" points="14.6546643 21.0322238 12.5739579 22.6300145 8.16183021 16.9085029 10.2429153 15.3110901"></polygon>
            <path d="M11.5327715,15.7920901 C11.3786311,17.3792994 9.25778,18.4733401 6.79607787,18.2352587 C4.33437574,17.9967994 2.46348213,16.5169157 2.61762255,14.9297064 C2.7721417,13.3424971 4.89261404,12.2488343 7.35469489,12.4865378 C9.81639702,12.7249971 11.6869119,14.2048808 11.5327715,15.7920901" id="Fill-39" fill="#F05B51"></path>
            <polygon id="Fill-40" fill="#C64A42" points="74.1841511 21.0322238 76.2648574 22.6300145 80.6769851 16.9085029 78.5959 15.3110901"></polygon>
            <path d="M77.306006,15.7920901 C77.4601464,17.3792994 79.5809974,18.4733401 82.0426996,18.2352587 C84.5044017,17.9967994 86.3752953,16.5169157 86.2211549,14.9297064 C86.0666357,13.3424971 83.9461634,12.2488343 81.4844613,12.4865378 C79.0223804,12.7249971 77.1518655,14.2048808 77.306006,15.7920901" id="Fill-41" fill="#F05B51"></path>
            <path d="M8.83641234,64.9486047 C5.75474,64.9486047 3.2335783,62.4328779 3.2335783,59.3578488 L3.2335783,50.5182267 C3.2335783,47.4435756 5.75474,44.9274709 8.83641234,44.9274709 C11.9180847,44.9274709 14.4392464,47.4435756 14.4392464,50.5182267 L14.4392464,59.3578488 C14.4392464,62.4328779 11.9180847,64.9486047 8.83641234,64.9486047" id="Fill-42" fill="#6D6E70"></path>
            <path d="M80.0023651,64.9486047 C76.9206928,64.9486047 74.3995311,62.4328779 74.3995311,59.3578488 L74.3995311,50.5182267 C74.3995311,47.4435756 76.9206928,44.9274709 80.0023651,44.9274709 C83.0840374,44.9274709 85.6051991,47.4435756 85.6051991,50.5182267 L85.6051991,59.3578488 C85.6051991,62.4328779 83.0840374,64.9486047 80.0023651,64.9486047" id="Fill-43" fill="#6D6E70"></path>
            <path d="M76.6983443,18.8976541 C76.0745868,17.8085262 69.3692889,3.960125 68.4338421,2.55960174 C67.4980166,1.15907849 50.9686336,0.130415698 44.4193698,0.130415698 C37.870106,0.130415698 21.340723,1.15907849 20.4048974,2.55960174 C19.4694506,3.960125 12.7641528,17.8085262 12.1403953,18.8976541 C11.5166379,19.986782 1.69255277,28.3891657 1.69255277,31.0345145 L1.69255277,44.727218 C1.69255277,48.1506773 4.96737404,54.3744273 10.269123,54.3744273 L44.4193698,54.3744273 L78.5696166,54.3744273 C83.8713655,54.3744273 87.1461868,48.1506773 87.1461868,44.727218 L87.1461868,31.0345145 C87.1461868,28.3891657 77.3221017,19.986782 76.6983443,18.8976541" id="Fill-44" fill="#F05B51"></path>
            <path d="M66.6936081,5.20461047 C65.9388123,3.64876744 53.3076294,2.65902907 44.4193698,2.65902907 C35.5311102,2.65902907 22.8999272,3.64876744 22.1455102,5.20461047 C21.3903357,6.7608314 14.323357,19.5201047 15.5708719,19.5201047 C16.8183868,19.5201047 29.6146932,18.5473721 44.4193698,18.5473721 C59.2240464,18.5473721 72.0203528,19.5201047 73.2678677,19.5201047 C74.5153826,19.5201047 67.4484038,6.7608314 66.6936081,5.20461047" id="Fill-45" fill="#D9F0FC"></path>
            <path d="M5.12223404,32.7050901 L5.23471489,33.2005262 C5.62404255,34.9162238 6.72006809,36.2808459 8.14558298,36.825032 L13.4177915,38.8377645 C14.8224766,39.3736366 16.1813362,37.881282 15.8393489,36.1780552 L15.5693191,34.8338401 C15.2083957,33.0368924 13.9438383,31.6953227 12.3982681,31.4700901 L6.63977872,30.6315145 C5.65737021,30.4882878 4.86470213,31.5706134 5.12223404,32.7050901" id="Fill-46" fill="#E6E7E8"></path>
            <path d="M83.7165813,32.7050901 L83.6041004,33.2005262 C83.2147728,34.9162238 82.1187472,36.2808459 80.6932323,36.825032 L75.4210238,38.8377645 C74.0163387,39.3736366 72.6574791,37.881282 72.9994664,36.1780552 L73.2694962,34.8338401 C73.6304196,33.0368924 74.894977,31.6953227 76.4405472,31.4700901 L82.1990366,30.6315145 C83.1814451,30.4882878 83.9741132,31.5706134 83.7165813,32.7050901" id="Fill-47" fill="#E6E7E8"></path>
            <polygon id="Fill-48" fill="#F48368" points="12.1903489 20.4535727 15.9211532 21.8540959 23.873966 34.7834273"></polygon>
            <polygon id="Fill-49" fill="#F48368" points="76.6484285 20.4535727 72.9176243 21.8540959 64.9648115 34.7834273"></polygon>
            <path d="M44.4194077,47.5279622 L1.09382894,47.5279622 C0.558314043,47.5279622 0.141339574,47.9901424 0.197390638,48.5214797 C0.428790638,50.7140959 1.49830553,55.7750262 6.43648,55.7750262 L44.4194077,55.7750262 L82.4023353,55.7750262 C87.3405098,55.7750262 88.4100247,50.7140959 88.6414247,48.5214797 C88.6978545,47.9901424 88.2805013,47.5279622 87.7449864,47.5279622 L44.4194077,47.5279622 Z" id="Fill-50" fill="#E6E7E8"></path>
            <path d="M44.4194077,34.7835785 L28.6285353,34.7835785 C27.4700204,34.7835785 26.7474162,36.0370959 27.3302715,37.036282 L28.4781821,39.0036657 C28.7474545,39.4647122 29.2416885,39.7481424 29.7760672,39.7481424 L44.4194077,39.7481424 L59.0627481,39.7481424 C59.5971268,39.7481424 60.0913609,39.4647122 60.3606332,39.0036657 L61.5085438,37.036282 C62.0913991,36.0370959 61.3687949,34.7835785 60.21028,34.7835785 L44.4194077,34.7835785 Z" id="Fill-51" fill="#5E5E5E"></path>
            <path d="M14.0051915,46.5031163 C13.9018,46.5031163 13.7965149,46.4936686 13.6919872,46.4743953 L9.06739574,45.6210814 C8.72389362,45.557593 8.41788511,45.3947151 8.20504255,45.163436 L6.42390638,43.2251512 C6.13115319,42.9058198 6.05048511,42.5022151 6.20803404,42.1443372 C6.38717021,41.7384651 6.84428936,41.4758198 7.37298723,41.4758198 C7.47713617,41.4758198 7.58393617,41.4860233 7.69035745,41.5052965 L13.2511532,42.531314 C13.7260723,42.6189884 14.1309277,42.9031744 14.3074128,43.2727674 L15.151966,45.0383488 C15.2992894,45.3467209 15.2830043,45.683814 15.1065191,45.9623314 C14.8925404,46.300936 14.4808681,46.5031163 14.0051915,46.5031163 Z" id="Fill-54" fill="#D24F47"></path>
            <path d="M74.833586,46.5031163 C74.9369774,46.5031163 75.0422626,46.4936686 75.1467902,46.4743953 L79.7713817,45.6210814 C80.1148838,45.557593 80.4208923,45.3947151 80.6337349,45.163436 L82.4148711,43.2251512 C82.7076243,42.9058198 82.7882923,42.5022151 82.6307434,42.1443372 C82.4516072,41.7384651 81.9944881,41.4758198 81.4657902,41.4758198 C81.3616413,41.4758198 81.2548413,41.4860233 81.14842,41.5052965 L75.5876243,42.531314 C75.1127051,42.6189884 74.7078498,42.9031744 74.5313647,43.2727674 L73.6868115,45.0383488 C73.5394881,45.3467209 73.5557732,45.683814 73.7322583,45.9623314 C73.9466157,46.300936 74.3579094,46.5031163 74.833586,46.5031163" id="Fill-56" fill="#D24F47"></path>
        </g>
    </g>
</svg>