<?xml version="1.0" encoding="UTF-8"?>
<svg width="120px" height="120px" viewBox="0 0 120 120" version="1.1" xmlns="http://www.w3.org/2000/svg" xmlns:xlink="http://www.w3.org/1999/xlink">
    <!-- Generator: Sketch 51.1 (57501) - http://www.bohemiancoding.com/sketch -->
    <title>Weightlifter</title>
    <desc>Created with Sketch.</desc>
    <defs>
        <polygon id="path-1" points="0.199373684 0.299053333 13.3734789 0.299053333 13.3734789 5.86666667 0.199373684 5.86666667"></polygon>
    </defs>
    <g id="Weightlifter" stroke="none" stroke-width="1" fill="none" fill-rule="evenodd">
        <g id="Group-64" transform="translate(6.000000, 3.000000)">
            <path d="M53.4309231,108.79835 L53.4350769,108.79835 L53.3457692,97.4676357 L43.4575385,97.5442786 L43.9954615,108.872921 L44.0058462,108.872921 C42.2446154,109.981136 40.9797692,112.214136 42.5063077,114.010064 C43.6652308,115.27985 45.3392308,114.258636 46.6144615,113.709707 C48.0246923,113.030279 49.6322308,112.547636 50.9074615,111.656921 C51.7299231,111.081064 52.6956923,110.447207 53.244,109.583421 C53.4143077,109.316207 53.4973846,109.04485 53.4309231,108.79835" id="Fill-933" fill="#FDDFBB"></path>
            <path d="M64.1441077,108.713421 L64.1503385,108.713421 L64.5096462,97.3785643 L54.6234923,97.4552071 L54.7148769,108.787993 L54.7190308,108.787993 C54.6588,109.04485 54.7418769,109.307921 54.9184154,109.568921 C55.4812615,110.424421 56.4594923,111.041707 57.2923385,111.607207 C58.5738,112.475136 60.2000308,112.93085 61.6144154,113.589564 C62.9000308,114.117779 64.5906462,115.116207 65.7288,113.827779 C67.2241846,112.006993 65.9219538,109.788493 64.1441077,108.713421" id="Fill-935" fill="#FDDFBB"></path>
            <path d="M53.3883462,105.01965 L43.8178846,105.096293 L43.9985769,108.907721 L44.0089615,108.907721 C43.7015769,109.096221 43.4149615,109.342721 43.1511923,109.591293 L43.1719615,112.033507 L50.4993462,111.975507 C50.6385,111.894721 50.7755769,111.807721 50.9126538,111.710364 C51.7330385,111.132436 52.7029615,110.490293 53.2533462,109.626507 C53.4174231,109.35515 53.4984231,109.077579 53.4361154,108.831079 L53.4215769,108.831079 L53.3883462,105.01965 Z" id="Fill-937" fill="#EEEEED"></path>
            <polygon id="Fill-939" fill="#61C6F1" points="43.8392769 105.537507 43.8475846 105.721864 53.3931231 105.647293 53.3931231 105.462936"></polygon>
            <polygon id="Fill-941" fill="#61C6F1" points="43.8575538 105.913679 43.8637846 106.093893 53.3968615 106.019321 53.3968615 105.839107"></polygon>
            <path d="M65.7038769,110.19615 C65.2988769,109.626507 64.7505692,109.116936 64.1503385,108.748221 L64.1544923,108.748221 L64.2770308,104.93265 L54.7024154,105.009293 L54.7335692,108.822793 L54.7231846,108.822793 C54.6629538,109.069293 54.7481077,109.344793 54.9204923,109.612007 C55.4812615,110.467507 56.4657231,111.088936 57.2923385,111.662721 C57.4294154,111.745579 57.5685692,111.842936 57.7077231,111.917507 L65.7184154,111.855364 L65.7038769,110.19615 Z" id="Fill-943" fill="#EEEEED"></path>
            <polygon id="Fill-945" fill="#61C6F1" points="54.7067769 105.636521 64.2585462 105.559879 64.2627 105.375521 54.7067769 105.450093"></polygon>
            <polygon id="Fill-947" fill="#61C6F1" points="54.7107231 106.006686 64.2438 105.932114 64.2500308 105.7519 54.7086462 105.826471"></polygon>
            <path d="M44.0218385,108.907514 L43.9989923,108.897157 L43.9989923,108.907514 L44.0093769,108.907514 C42.2502231,110.040586 40.9812231,112.254943 42.5077615,114.052943 C43.6646077,115.322729 45.3427615,114.303586 46.6138385,113.756729 C48.0261462,113.075229 49.6357615,112.594657 50.9109923,111.712229 C51.7334538,111.132229 52.7033769,110.485943 53.2516846,109.6263 C53.4157615,109.354943 53.4967615,109.077371 53.4365308,108.830871 L53.4240692,107.144729 C53.4240692,107.144729 53.3098385,106.9728 52.9152231,107.148871 C52.1384538,107.496871 51.6379154,109.038014 49.9722231,108.861943 C45.8474538,107.743371 44.0218385,108.907514 44.0218385,108.907514" id="Fill-949" fill="#E63744"></path>
            <path d="M53.1245769,109.80175 L52.9168846,109.617393 C52.9168846,109.617393 50.8191923,111.77375 48.9998077,112.318536 L49.1701154,112.656179 C49.7765769,112.38275 50.3768077,112.080321 50.9126538,111.711607 C51.6728077,111.168893 52.5596538,110.576464 53.1245769,109.80175" id="Fill-951" fill="#333433"></path>
            <path d="M43.9672154,110.072693 C43.5040615,110.076836 43.0512923,110.11205 42.6192923,110.188693 C42.6109846,110.192836 42.6068308,110.194907 42.6047538,110.205264 C41.7345231,111.348693 41.4499846,112.802836 42.5071385,114.053979 C43.6639846,115.321693 45.3421385,114.304621 46.6132154,113.755693 C47.5893692,113.285479 48.6672923,112.908479 49.6579846,112.429979 C48.5094462,111.000693 46.3909846,110.05405 43.9672154,110.072693" id="Fill-953" fill="#9B1D2B"></path>
            <path d="M53.3700692,107.329707 C52.9754538,107.331779 52.6576846,108.071279 52.6639154,108.978564 C52.6680692,109.42185 52.7428385,109.819564 52.8736846,110.109564 C53.0149154,109.95835 53.1395308,109.790564 53.2516846,109.62485 C53.4157615,109.355564 53.4988385,109.077993 53.4365308,108.831493 L53.4240692,107.337993 C53.4074538,107.331779 53.3887615,107.329707 53.3700692,107.329707" id="Fill-955" fill="#E63744"></path>
            <path d="M64.1339308,108.747807 L64.1547,108.73745 L64.1547,108.747807 L64.1463923,108.747807 C65.9242385,109.85395 67.2243923,112.047593 65.7290077,113.872521 C64.5929308,115.158879 62.9002385,114.164593 61.6208538,113.636379 C60.1981615,112.975593 58.5781615,112.524021 57.2925462,111.662307 C56.4597,111.094736 55.4814692,110.46295 54.9186231,109.611593 C54.7420846,109.344379 54.6610846,109.068879 54.7233923,108.822379 L54.7088538,107.138307 C54.7088538,107.138307 54.8210077,106.962236 55.2114692,107.132093 C55.9944692,107.465593 56.5220077,108.99845 58.1835462,108.793379 C62.2917,107.614736 64.1339308,108.747807 64.1339308,108.747807" id="Fill-957" fill="#E63744"></path>
            <path d="M55.0453154,109.785593 L55.2467769,109.601236 C55.2467769,109.601236 57.3777,111.720307 59.2137,112.238164 L59.0454692,112.575807 C58.4307,112.314807 57.8304692,112.022736 57.2925462,111.662307 C56.5220077,111.127879 55.6164692,110.552021 55.0453154,109.785593" id="Fill-959" fill="#333433"></path>
            <path d="M64.2091154,109.912986 C64.6701923,109.906771 65.1229615,109.939914 65.5591154,110.0062 C65.5632692,110.010343 65.5695,110.012414 65.5715769,110.024843 C66.4563462,111.153771 66.7678846,112.603771 65.7273462,113.871486 C64.5933462,115.157843 62.9006538,114.165629 61.6212692,113.637414 C60.6305769,113.183771 59.5547308,112.825414 58.5536538,112.359343 C59.6814231,110.911414 61.7874231,109.931629 64.2091154,109.912986" id="Fill-961" fill="#9B1D2B"></path>
            <path d="M54.7553769,107.319557 C55.1562231,107.315414 55.4864538,108.050771 55.4926846,108.955986 C55.4968385,109.399271 55.4199923,109.796986 55.2995308,110.0932 C55.1603769,109.939914 55.0274538,109.778343 54.9194538,109.610557 C54.7408385,109.345414 54.6619154,109.069914 54.7221462,108.823414 L54.7096846,107.327843 C54.7263,107.3237 54.7366846,107.319557 54.7553769,107.319557" id="Fill-963" fill="#E63744"></path>
            <path d="M77.2789846,75.8396429 C77.1668308,74.8495 76.8282923,73.9670714 76.3485231,73.2835 C76.3547538,73.3290714 76.3547538,73.3497857 76.3547538,73.3497857 C76.3547538,73.3497857 74.8282154,59.2537143 71.1146769,54.593 C69.4116,52.4552857 63.5629846,49.3854286 62.8776,49.0270714 C61.5857538,48.1073571 58.6822154,47.7137857 56.8836,47.5625714 C57.1764462,46.8976429 57.3529846,46.1767857 57.3467538,45.6506429 L49.7306769,45.7086429 C49.7369077,46.2368571 49.9217538,46.9432143 50.2270615,47.5957143 C48.4554462,47.7842143 45.5290615,48.2275 44.2019077,49.1555 C44.2019077,49.1555 41.9006769,50.0006429 41.1322154,50.2844286 C37.7115231,48.6086429 32.5919077,53.4102143 32.5919077,53.4102143 L27.0216,46.9887857 L27.0216,46.9970714 C27.1109077,46.7319286 27.1794462,46.4502143 27.2230615,46.1581429 C27.5740615,45.5118571 27.8565231,44.7102143 28.0268308,43.8091429 C28.4629846,41.456 27.9375231,39.3866429 26.8450615,39.1877857 C26.2656,39.0800714 25.6362923,39.5295714 25.1170615,40.3229286 C23.9373692,39.2105714 22.4876769,38.7569286 21.2851385,39.2768571 C19.4429077,40.0722857 18.8759077,42.8562857 20.0244462,45.4911429 C20.7576,47.1835 22.0203692,48.4056429 23.3142923,48.8551429 C23.3142923,48.8551429 26.8326,58.5763571 29.8399846,59.639 C32.2762154,60.4924286 41.1072923,56.8736429 41.1072923,56.8736429 L41.1072923,56.8591429 C39.5226,66.9967143 41.3897538,82.4516429 41.3897538,82.4516429 L66.3439846,82.2548571 C66.3439846,82.2548571 67.7209846,68.2022857 66.3045231,58.1227143 L66.3045231,58.1268571 C66.5059846,58.6592143 67.5942923,59.6079286 68.4562154,60.8072857 C70.1821385,63.1997857 71.8686,73.3787857 71.8686,73.3787857 C71.8270615,73.4512857 71.7917538,73.5217143 71.7564462,73.5900714 C71.3286,74.0209286 70.9111385,74.5885 70.5601385,75.2555 C69.6483692,77.0037857 69.5652923,78.7645 70.3773692,79.1912143 C70.8093692,79.4107857 71.4137538,79.2077857 72.0202154,78.7002857 C72.6806769,79.8602857 73.7129077,80.5707857 74.7908308,80.4485714 C76.4357538,80.2621429 77.5510615,78.2031429 77.2789846,75.8396429" id="Fill-965" fill="#FDDFBB"></path>
            <path d="M50.5751538,48.2150714 L57.3272308,45.9344286 L57.3376154,45.922 C56.079,46.1436429 54.783,46.2679286 53.4662308,46.2741429 C52.1993077,46.2865714 50.9635385,46.1892143 49.7526923,46.0152143 C49.8295385,46.6635714 50.1306923,47.5667143 50.5751538,48.2150714" id="Fill-967" fill="#EEAC6C"></path>
            <path d="M25.5141692,53.9784071 L30.3430154,50.8194786 L27.0220154,46.9894071 L27.0220154,46.9976929 C27.0531692,46.90655 27.0822462,46.8174786 27.1092462,46.71805 L23.3001692,48.8433357 L23.3126308,48.8536929 C23.3126308,48.8536929 24.2285538,51.3663357 25.5141692,53.9784071" id="Fill-969" fill="#EEAC6C"></path>
            <path d="M75.4008231,67.1048429 L70.6716692,67.3699857 C71.3030538,70.1187714 71.7579,72.7412 71.8492846,73.2756286 L76.3146692,73.0312 C76.2232846,72.2088429 75.9262846,69.8929857 75.4008231,67.1048429" id="Fill-971" fill="#EEAC6C"></path>
            <path d="M47.2325538,61.4225 C45.4007077,61.4349286 44.1047077,61.1283571 43.3009385,60.4862143 C42.6217846,59.9372857 42.2894769,59.1377143 42.2811692,58.1102857 L42.4057846,58.1102857 C42.4161692,59.1377143 42.7339385,59.8647857 43.3819385,60.3826429 C44.8482462,61.5592143 48.0384,61.6068571 53.1434769,60.5297143 L53.1663231,60.6519286 C50.7840923,61.1573571 48.8130923,61.408 47.2325538,61.4225" id="Fill-973" fill="#EEAC6C"></path>
            <path d="M60.3574615,61.3172714 C62.1851538,61.3027714 63.4811538,60.9754857 64.2703846,60.3188429 C64.9412308,59.7637 65.2652308,58.9579143 65.2590882,57.9304857 L65.1281538,57.9304857 C65.1364615,58.9579143 64.8311538,59.6891286 64.1914615,60.2173429 C62.7438462,61.4208429 59.5536923,61.5161286 54.432,60.5177 L54.4112308,60.6419857 C56.8017692,61.1101286 58.7769231,61.3317714 60.3574615,61.3172714" id="Fill-975" fill="#EEAC6C"></path>
            <polygon id="Fill-977" fill="#EEAC6C" points="53.7918923 59.3651571 53.6610462 59.3672286 53.6361231 56.4962286 53.7690462 56.4941571"></polygon>
            <path d="M36.7648615,55.3337429 C36.5156308,55.3358143 36.2809385,55.3296 36.0524769,55.3130286 C34.2725538,55.2156714 32.8830923,54.7247429 32.8706308,54.7226714 L32.9100923,54.6004571 C32.9225538,54.6087429 34.2995538,55.0893143 36.0670154,55.1846 C37.6890923,55.2736714 39.9799385,55.0582429 41.6850923,53.4715286 L41.7723231,53.5647429 C40.2707077,54.9588143 38.3267077,55.3213143 36.7648615,55.3337429" id="Fill-979" fill="#EEAC6C"></path>
            <path d="M71.3099077,58.2283571 C71.3597538,58.0481429 71.6837538,56.8425714 71.7689077,55.5417143 C71.7252923,55.4733571 71.6899846,55.405 71.6463692,55.3428571 C71.5799077,56.7866429 71.1894462,58.1848571 71.1852923,58.2097143 L71.1852923,58.2490714 L72.7928308,63.4255714 L72.9153692,63.3862143 L71.3099077,58.2283571 Z" id="Fill-981" fill="#EEAC6C"></path>
            <path d="M67.0547077,58.26875 C67.0339385,58.15275 66.9508615,58.0719643 66.8906308,57.93525 C66.8387077,57.9870357 66.5811692,57.8171786 66.4565538,57.7343214 C65.3246308,56.9699643 62.7658615,54.2646786 62.6973231,48.2989643 L62.6910923,48.2865357 C61.5737077,47.5905357 59.4864,47.2238929 57.8518615,47.0395357 C57.8518615,47.0395357 57.6358615,57.9828929 53.7229385,58.0056786 C49.8183231,58.0284643 49.5047077,47.1099643 49.5047077,47.1099643 C48.0259385,47.2943214 46.2044769,47.6174643 45.0642462,48.2119643 C44.9271692,48.2823929 44.8108615,48.3341786 44.6945538,48.4149643 C44.6945538,48.4149643 44.6862462,48.6076071 44.6654769,48.9348929 C44.5304769,50.6479643 43.9032462,55.9653214 41.0454,56.2201071 C39.2073231,63.6151071 39.9633231,74.8753929 40.4659385,80.1223214 C40.6341692,81.9099643 40.9685538,82.99125 40.9685538,82.99125 C40.9685538,82.99125 43.1950154,92.51775 43.4587846,97.56375 L53.3449385,97.4871071 C53.2888615,96.2090357 53.7852462,90.1418214 53.7852462,90.1418214 L54.0656308,90.13975 C54.0656308,90.13975 54.6720923,95.8154643 54.6243231,97.4746786 L64.5084,97.3980357 C64.7430923,93.1184643 66.9217846,82.7820357 66.9217846,82.7820357 C66.9217846,82.7820357 67.2665538,81.6924643 67.4430923,79.9068929 C67.9353231,75.1156786 68.6144769,65.3530357 67.0547077,58.26875" id="Fill-983" fill="#0771B7"></path>
            <path d="M44.6951769,48.4153786 L44.6951769,48.4112357 L44.6951769,48.4153786 Z" id="Fill-985" fill="#E63744"></path>
            <path d="M44.6951769,48.4114429 C44.6972538,48.4073 44.6972538,48.4073 44.6951769,48.4114429" id="Fill-987" fill="#E63744"></path>
            <path d="M45.7072615,47.9279714 C45.4767231,48.0170429 45.2565692,48.1144 45.0634154,48.2117571 C44.9263385,48.2821857 44.8100308,48.3339714 44.6958,48.4147571 C44.6958,48.4147571 44.6874923,48.6074 44.6646462,48.9346857 C44.5317231,50.6477571 43.9024154,55.9651143 41.0445692,56.2199 C40.8971077,56.8123286 40.7662615,57.4420429 40.6499538,58.0759 C43.2149538,57.6719714 46.2701077,50.9646857 45.7072615,47.9279714" id="Fill-989" fill="#F6B90C"></path>
            <path d="M67.2229385,59.0799214 C67.1730923,58.8064929 67.1128615,58.5351357 67.0547077,58.2679214 C67.0339385,58.1539929 66.9508615,58.0732071 66.8906308,57.9344214 C66.8387077,57.9882786 66.5811692,57.8184214 66.4565538,57.7355643 C65.3246308,56.9691357 62.7658615,54.2659214 62.6973231,48.2981357 L62.6910923,48.2857071 C62.3816308,48.0930643 61.9994769,47.9252786 61.5654,47.78235 C60.9797077,51.14635 64.5769385,59.4424214 67.2229385,59.0799214" id="Fill-991" fill="#F6B90C"></path>
            <path d="M53.7208615,59.3875286 C49.6978615,59.4103143 48.7217077,50.5052429 48.5036308,47.2468857 C48.8484,47.1909571 49.1827846,47.1453857 49.5047077,47.1101714 C49.5047077,47.1101714 49.8183231,58.0286714 53.7229385,58.0058857 C57.6358615,57.9831 57.8518615,47.0397429 57.8518615,47.0397429 C58.1675538,47.0749571 58.4998615,47.1143143 58.8384,47.1640286 C58.6452462,50.4368857 57.7563231,59.3626714 53.7208615,59.3875286" id="Fill-993" fill="#F6B90C"></path>
            <path d="M31.1669308,27.5190143 C30.9924692,26.4294429 30.8969308,25.3129429 30.8844692,24.1736571 C30.7868538,11.8631571 40.7166231,1.80015714 53.0597769,1.70072857 C65.4008538,1.60337143 75.4884692,11.5089429 75.5860846,23.8173714 C75.5964692,24.9007286 75.5217,25.9716571 75.3825462,27.0156571 C76.6785462,27.7158 77.5612385,29.0353 77.5737,30.5578 C77.5923923,32.8218714 75.6920077,34.6695857 73.3367769,34.6882286 C73.1747769,34.6903 73.0169308,34.6799429 72.8653154,34.6654429 C69.1040077,41.5363714 61.8181615,46.2178 53.4170077,46.2861571 C45.0241615,46.3524429 37.6718538,41.7932286 33.7983923,34.9968714 C33.7257,34.9989429 33.6613154,35.0030857 33.5927769,35.0030857 C31.2354692,35.0238 29.3122385,33.2030143 29.2956231,30.9389429 C29.2852385,29.5262286 30.0267,28.2647286 31.1669308,27.5190143" id="Fill-995" fill="#FDDFBB"></path>
            <g id="Page-1" transform="translate(41.000000, 21.000000)">
                <path d="M6.22875275,3.09640088 C5.45712117,2.92235643 5.3211738,1.89471199 2.8433317,2.35573421 C2.06412117,2.53613421 0.42612117,3.51195643 0.110647486,4.16364532 C-0.205299883,4.8158231 0.0234895909,1.77248977 2.56764749,0.641689768 C4.4031738,-0.0329768984 5.02512117,0.000267546019 6.54470012,0.000267546019 C8.06427906,0.000267546019 8.53227906,0.907156435 8.31106854,1.65026755 C8.31106854,1.65026755 7.80801591,3.45328977 6.22875275,3.09640088 Z" id="Fill-1" fill="#343434"></path>
                <path d="M20.1341558,3.09640088 C20.9057873,2.92235643 21.0417347,1.89471199 23.5195768,2.35573421 C24.2987873,2.53613421 25.9367873,3.51195643 26.252261,4.16364532 C26.5682084,4.8158231 26.3394189,1.77248977 23.795261,0.641689768 C21.9597347,-0.0329768984 21.3377873,0.000267546019 19.8182084,0.000267546019 C18.2986294,0.000267546019 17.8306294,0.907156435 18.05184,1.65026755 C18.05184,1.65026755 18.5548926,3.45328977 20.1341558,3.09640088 Z" id="Fill-3" fill="#343434"></path>
                <path d="M6,9 C6,10.6568785 5.10453816,12 3.99983098,12 C2.89512381,12 2,10.6568785 2,9 C2,7.34312148 2.89512381,6 3.99983098,6 C5.10453816,6 6,7.34312148 6,9" id="Fill-5" fill="#343434"></path>
                <path d="M24,9 C24,10.6568785 23.1048762,12 22.000169,12 C20.8951238,12 20,10.6568785 20,9 C20,7.34312148 20.8951238,6 22.000169,6 C23.1048762,6 24,7.34312148 24,9" id="Fill-7" fill="#343434"></path>
                <path d="M13.0197368,12.0692 C13.8586316,11.9552889 15.9802632,13.8262667 15.9802632,13.8262667 C15.9802632,13.8262667 16.0825789,13.4116889 15.6396842,12.5884 C15.1626842,11.7025333 12.9903684,11 12.9903684,11 C12.9903684,11 11.3026316,11.4478222 10.5030526,12.6040444 C10.207,12.8939556 10,13.9025333 10,13.9025333 C10,13.9025333 11.8947368,12.2217333 13.0197368,12.0692 Z" id="Fill-9" fill="#EEAC6C"></path>
                <g id="Group-13" transform="translate(6.000000, 15.000000)">
                    <mask id="mask-2" fill="white">
                        <use xlink:href="#path-1"></use>
                    </mask>
                    <g id="Clip-12"></g>
                    <path d="M0.199373684,0.696031111 C0.199373684,0.696031111 7.09763684,3.90412 13.3734789,0.299053333 C13.3734789,0.299053333 11.9822684,5.76825333 7.42305789,5.86016444 C3.30768947,5.98238667 2.43942632,4.36807556 1.94632105,3.90412 C1.45274211,3.44114222 0.524794737,2.13238667 0.199373684,0.696031111" id="Fill-11" fill="#EEAC6C" mask="url(#mask-2)"></path>
                </g>
            </g>
            <path d="M76.5306692,20.9043214 C76.4995154,19.7401786 76.4019,18.32125 76.2274385,16.8111786 C73.1452846,7.02782143 63.9445154,-0.0336785714 53.1279,0.0533214286 C43.7069769,0.127892857 35.6007462,5.59439286 31.7355923,13.4968929 C30.6722077,16.6040357 30.0283615,19.6573214 29.9826692,21.0286071 C29.8289769,25.7949643 33.3701308,32.90825 33.3701308,32.90825 C32.8903615,25.0678929 32.9755154,25.0823929 34.8634385,23.7048929 C37.2082846,21.9980357 42.1492846,18.8018214 44.0475923,16.6164643 C44.4089769,16.1980357 45.1587462,14.7066071 45.1587462,14.7066071 C45.1587462,14.7066071 45.0922846,15.8686786 45.7548231,16.3865357 C49.7342077,19.46675 61.3732846,15.9121786 65.8179,18.2736071 C69.4525154,20.2124643 73.9490538,32.5851071 73.9490538,32.5851071 C75.7082077,29.1900357 76.5825923,23.5246786 76.5306692,20.9043214" id="Fill-1013" fill="#343434"></path>
            <polygon id="Fill-1015" fill="#B5B4B4" points="107.838623 99.8916214 0.401469231 100.742979 0.384853846 98.8994071 107.822008 98.0439071"></polygon>
            <polygon id="Fill-1017" fill="#D7D6D6" points="9.34490769 92.2896857 9.46952308 107.591329 7.65429231 100.020257"></polygon>
            <polygon id="Fill-1019" fill="#D7D6D6" points="18.6769385 92.2147 18.7974 107.518414 20.4921692 99.9183429"></polygon>
            <polygon id="Fill-1021" fill="#33AD72" points="12.4197923 113.434829 9.47263846 113.457614 9.25663846 86.4275429 12.2037923 86.4026857"></polygon>
            <polygon id="Fill-1023" fill="#B52836" points="15.6224077 113.408521 12.6690231 113.433379 12.4551 86.4012357 15.4064077 86.37845"></polygon>
            <polygon id="Fill-1025" fill="#B52836" points="18.8858769 113.382214 15.9428769 113.407071 15.7268769 86.377 18.6698769 86.3521429"></polygon>
            <polygon id="Fill-1027" fill="#D7D6D6" points="89.6148692 91.6525143 89.7394846 106.954157 87.9263308 99.3810143"></polygon>
            <polygon id="Fill-1031" fill="#B52836" points="92.6895462 112.795586 89.7423923 112.820443 89.5263923 85.7903714 92.4756231 85.7675857"></polygon>
            <polygon id="Fill-1033" fill="#B52836" points="95.8921615 112.77135 92.9491615 112.796207 92.7331615 85.7640643 95.6761615 85.7392071"></polygon>
            <polygon id="Fill-1035" fill="#33AD72" points="99.1597846 112.745043 96.2105538 112.7699 95.9966308 85.7377571 98.9458615 85.7149714"></polygon>
        </g>
    </g>
</svg>