<?xml version="1.0" encoding="UTF-8"?>
<svg width="120px" height="120px" viewBox="0 0 120 120" version="1.1" xmlns="http://www.w3.org/2000/svg" xmlns:xlink="http://www.w3.org/1999/xlink">
    <!-- Generator: Sketch 51.1 (57501) - http://www.bohemiancoding.com/sketch -->
    <title>Cake3</title>
    <desc>Created with Sketch.</desc>
    <defs>
        <polygon id="path-1" points="0 0.126 100.172403 0.126 100.172403 66.7203 0 66.7203"></polygon>
    </defs>
    <g id="Cake3" stroke="none" stroke-width="1" fill="none" fill-rule="evenodd">
        <g id="Page-1" transform="translate(10.000000, 1.000000)">
            <g id="Group-3" transform="translate(0.000000, 0.374300)">
                <mask id="mask-2" fill="white">
                    <use xlink:href="#path-1"></use>
                </mask>
                <g id="Clip-2"></g>
                <path d="M5.96216567,63.3363 C5.96216567,63.3363 -4.58856567,52.6908 2.38043433,36.0048 C8.40425522,21.5823 17.2033149,22.4688 27.8324343,11.0583 C38.4630612,-0.3522 51.0699716,-2.2542 63.1145985,2.6898 C75.1592254,7.6353 78.8841657,20.6508 90.0665239,26.6538 C102.682479,33.4233 102.564897,55.5003 94.787897,61.8063 L76.9063746,66.7203 L8.92131493,66.7203 L5.96216567,63.3363 Z" id="Fill-1" fill="#F8B125" mask="url(#mask-2)"></path>
            </g>
            <path d="M10.3012463,55.7228 L2.38103731,63.2843 L14.4196343,115.9328 C14.4196343,115.9328 19.7681119,116.7473 27.8330373,117.5183 L19.2284403,62.0228 L10.3012463,55.7228 Z" id="Fill-4" fill="#D6401F"></path>
            <path d="M49.4290985,57.28955 L39.3622627,62.84255 L42.236994,118.56605 C46.6945612,118.78355 51.4114119,118.90805 56.174994,118.86605 L58.0367104,64.76855 L49.4290985,57.28955 Z" id="Fill-6" fill="#D6401F"></path>
            <path d="M39.1322239,62.96945 L31.1487015,57.28895 L20.1231194,62.65445 L19.2276866,62.02295 L27.8322836,117.51845 C32.0230299,117.91895 36.9403731,118.30895 42.237597,118.56545 L39.3628657,62.84195 L39.1322239,62.96945 Z" id="Fill-8" fill="#BF271C"></path>
            <path d="M67.9639552,57.28955 L58.1413284,64.86005 L58.0373134,64.76855 L56.175597,118.86605 C61.5135224,118.82105 66.901194,118.56155 72.0446567,118.00205 L77.2544478,63.44855 L67.9639552,57.28955 Z" id="Fill-10" fill="#BF271C"></path>
            <path d="M96.4783657,63.28445 L87.2903806,57.28895 L77.4798134,63.59945 L77.253694,63.44945 L72.0454104,118.00295 C76.2979627,117.53945 80.3862015,116.87345 84.121694,115.93295 L96.4783657,63.28445 Z" id="Fill-12" fill="#D6401F"></path>
            <path d="M14.0721642,36.37955 C14.0721642,37.79555 12.9189552,38.94155 11.4974179,38.94155 C10.0743731,38.94155 8.92116418,37.79555 8.92116418,36.37955 C8.92116418,34.96505 10.0743731,33.81755 11.4974179,33.81755 C12.9189552,33.81755 14.0721642,34.96505 14.0721642,36.37955" id="Fill-14" fill="#F8B125" style="mix-blend-mode: color-burn;"></path>
            <path d="M16.4459657,43.70975 C16.4459657,44.91725 15.4615925,45.89675 14.2480851,45.89675 C13.0345776,45.89675 12.0502045,44.91725 12.0502045,43.70975 C12.0502045,42.50225 13.0345776,41.52275 14.2480851,41.52275 C15.4615925,41.52275 16.4459657,42.50225 16.4459657,43.70975" id="Fill-16" fill="#F8B125" style="mix-blend-mode: color-burn;"></path>
            <path d="M7.44912687,43.70975 C7.44912687,44.41775 6.87327612,44.99075 6.16175373,44.99075 C5.45023134,44.99075 4.8743806,44.41775 4.8743806,43.70975 C4.8743806,43.00175 5.45023134,42.42875 6.16175373,42.42875 C6.87327612,42.42875 7.44912687,43.00175 7.44912687,43.70975" id="Fill-18" fill="#F8B125" style="mix-blend-mode: color-burn;"></path>
            <path d="M21.8037896,31.988 C21.8037896,32.696 21.2264313,33.269 20.5164164,33.269 C19.804894,33.269 19.2290433,32.696 19.2290433,31.988 C19.2290433,31.28 19.804894,30.707 20.5164164,30.707 C21.2264313,30.707 21.8037896,31.28 21.8037896,31.988" id="Fill-20" fill="#F8B125" style="mix-blend-mode: color-burn;"></path>
            <path d="M89.9105015,48.8213 C89.9105015,50.2358 88.7572925,51.3833 87.3357552,51.3833 C85.9142179,51.3833 84.7595015,50.2358 84.7595015,48.8213 C84.7595015,47.4068 85.9142179,46.2593 87.3357552,46.2593 C88.7572925,46.2593 89.9105015,47.4068 89.9105015,48.8213" id="Fill-22" fill="#F8B125" style="mix-blend-mode: color-burn;"></path>
            <path d="M95.3500299,41.6501 C95.3500299,42.8576 94.3671642,43.8371 93.1521493,43.8371 C91.9386418,43.8371 90.9542687,42.8576 90.9542687,41.6501 C90.9542687,40.4411 91.9386418,39.4631 93.1521493,39.4631 C94.3671642,39.4631 95.3500299,40.4411 95.3500299,41.6501" id="Fill-24" fill="#F8B125" style="mix-blend-mode: color-burn;"></path>
            <path d="M88.6231284,38.9423 C88.6231284,39.6503 88.0472776,40.2233 87.3357552,40.2233 C86.6242328,40.2233 86.0483821,39.6503 86.0483821,38.9423 C86.0483821,38.2343 86.6242328,37.6613 87.3357552,37.6613 C88.0472776,37.6613 88.6231284,38.2343 88.6231284,38.9423" id="Fill-26" fill="#F8B125" style="mix-blend-mode: color-burn;"></path>
            <path d="M74.347909,18.35975 C74.347909,19.77425 73.1947,20.92175 71.7731627,20.92175 C70.3501179,20.92175 69.196909,19.77425 69.196909,18.35975 C69.196909,16.94375 70.3501179,15.79775 71.7731627,15.79775 C73.1947,15.79775 74.347909,16.94375 74.347909,18.35975" id="Fill-28" fill="#F8B125" style="mix-blend-mode: color-burn;"></path>
            <path d="M68.0022448,14.516 C68.0022448,15.224 67.426394,15.797 66.7148716,15.797 C66.0033493,15.797 65.4274985,15.224 65.4274985,14.516 C65.4274985,13.808 66.0033493,13.235 66.7148716,13.235 C67.426394,13.235 68.0022448,13.808 68.0022448,14.516" id="Fill-30" fill="#F8B125" style="mix-blend-mode: color-burn;"></path>
        </g>
    </g>
</svg>