<?xml version="1.0" encoding="UTF-8"?>
<svg width="120px" height="120px" viewBox="0 0 120 120" version="1.1" xmlns="http://www.w3.org/2000/svg" xmlns:xlink="http://www.w3.org/1999/xlink">
    <!-- Generator: Sketch 51.1 (57501) - http://www.bohemiancoding.com/sketch -->
    <title>Glasses2</title>
    <desc>Created with Sketch.</desc>
    <defs></defs>
    <g id="Glasses2" stroke="none" stroke-width="1" fill="none" fill-rule="evenodd">
        <g id="Group-2" transform="translate(0.000000, 17.000000)">
            <path d="M46.464,62.2997143 C46.464,74.2371429 36.786,83.9151429 24.8485714,83.9151429 C12.9102857,83.9151429 3.23314286,74.2371429 3.23314286,62.2997143 C3.23314286,50.3614286 12.9102857,40.6842857 24.8485714,40.6842857 C36.786,40.6842857 46.464,50.3614286 46.464,62.2997143" id="Fill-191" fill="#F1AC2B"></path>
            <path d="M9.564,77.5842857 C1.12285714,69.1422857 1.12285714,55.4562857 9.564,47.0151429 C18.0051429,38.574 31.6911429,38.574 40.1331429,47.0151429" id="Fill-192" fill="#F8C638"></path>
            <path d="M117.362571,62.2997143 C117.362571,74.2371429 107.684571,83.9151429 95.7471429,83.9151429 C83.8088571,83.9151429 74.1317143,74.2371429 74.1317143,62.2997143 C74.1317143,50.3614286 83.8088571,40.6842857 95.7471429,40.6842857 C107.684571,40.6842857 117.362571,50.3614286 117.362571,62.2997143" id="Fill-193" fill="#F1AC2B"></path>
            <path d="M80.4625714,77.5842857 C72.0214286,69.1422857 72.0214286,55.4562857 80.4625714,47.0151429 C88.9037143,38.574 102.589714,38.574 111.031714,47.0151429" id="Fill-194" fill="#F8C638"></path>
            <path d="M46.464,62.2997143 L43.8925714,62.2997143 C43.8908571,67.5668571 41.7651429,72.3111429 38.3142857,75.7654286 C34.86,79.2162857 30.1157143,81.342 24.8485714,81.3437143 C19.5814286,81.342 14.8371429,79.2162857 11.382,75.7654286 C7.932,72.3111429 5.80542857,67.5668571 5.80457143,62.2997143 C5.80542857,57.0325714 7.932,52.2874286 11.382,48.8331429 C14.8371429,45.3831429 19.5814286,43.2565714 24.8485714,43.2557143 C30.1157143,43.2565714 34.86,45.3831429 38.3142857,48.8331429 C41.7651429,52.2874286 43.8908571,57.0325714 43.8925714,62.2997143 L49.0354286,62.2997143 C49.0362857,55.6285714 46.3242857,49.566 41.9511429,45.1971429 C37.5822857,40.824 31.5197143,38.1111429 24.8485714,38.1128571 C18.1774286,38.1111429 12.1148571,40.824 7.746,45.1971429 C3.37285714,49.566 0.66,55.6285714 0.661714286,62.2997143 C0.66,68.9708571 3.37285714,75.0334286 7.746,79.4022857 C12.1148571,83.7754286 18.1774286,86.4874286 24.8485714,86.4865714 C31.5197143,86.4874286 37.5822857,83.7754286 41.9511429,79.4022857 C46.3242857,75.0334286 49.0362857,68.97 49.0354286,62.2997143 L46.464,62.2997143" id="Fill-195" fill="#513B32"></path>
            <path d="M117.362571,62.2997143 L114.791143,62.2997143 C114.789429,67.5668571 112.663714,72.3111429 109.212857,75.7654286 C105.758571,79.2162857 101.014286,81.342 95.7471429,81.3437143 C90.48,81.342 85.7348571,79.2162857 82.2805714,75.7654286 C78.8305714,72.3111429 76.704,67.5668571 76.7031429,62.2997143 C76.704,57.0325714 78.8305714,52.2874286 82.2805714,48.8331429 C85.7348571,45.3831429 90.48,43.2565714 95.7471429,43.2557143 C101.014286,43.2565714 105.758571,45.3831429 109.212857,48.8331429 C112.663714,52.2874286 114.789429,57.0325714 114.791143,62.2997143 L119.934,62.2997143 C119.934857,55.6285714 117.222857,49.566 112.849714,45.1971429 C108.480857,40.824 102.418286,38.1111429 95.7471429,38.1128571 C89.076,38.1111429 83.0134286,40.824 78.6445714,45.1971429 C74.2714286,49.566 71.5585714,55.6285714 71.5602857,62.2997143 C71.5585714,68.97 74.2714286,75.0334286 78.6445714,79.4022857 C83.0134286,83.7754286 89.076,86.4874286 95.7471429,86.4865714 C102.417429,86.4874286 108.480857,83.7754286 112.849714,79.4022857 C117.222857,75.0334286 119.934857,68.97 119.934,62.2997143 L117.362571,62.2997143" id="Fill-196" fill="#513B32"></path>
            <path d="M49.0354286,65.3682857 C49.0362857,62.25 50.292,59.4505714 52.3337143,57.4045714 C54.3805714,55.362 57.1791429,54.1071429 60.2974286,54.1054286 C63.4157143,54.1071429 66.2151429,55.362 68.2611429,57.4045714 C70.3037143,59.4505714 71.5585714,62.25 71.5602857,65.3682857 C71.5602857,66.7877143 72.7114286,67.9397143 74.1317143,67.9397143 C75.552,67.9397143 76.7031429,66.7877143 76.7031429,65.3682857 C76.704,60.846 74.8628571,56.7282857 71.898,53.7677143 C68.9374286,50.8028571 64.8197143,48.9617143 60.2974286,48.9625714 C55.776,48.9617143 51.6582857,50.8028571 48.6977143,53.7677143 C45.7328571,56.7282857 43.8908571,60.846 43.8925714,65.3682857 C43.8925714,66.7877143 45.0437143,67.9397143 46.464,67.9397143 C47.8842857,67.9397143 49.0354286,66.7877143 49.0354286,65.3682857" id="Fill-197" fill="#513B32"></path>
            <path d="M6.34028571,57.8168571 L16.2205714,15.1028571 L16.2342857,15.0377143 L14.8414286,14.7531429 L16.2325714,15.0471429 L16.2342857,15.0377143 L14.8414286,14.7531429 L16.2325714,15.0471429 L16.2557143,14.946 C16.3722857,14.4325714 17.0408571,12.0702857 18.5374286,10.0534286 C19.2822857,9.04028571 20.2114286,8.11714286 21.354,7.45371429 C22.5025714,6.79285714 23.8637143,6.35571429 25.6834286,6.35057143 C27.6342857,6.34971429 30.1448571,6.88285714 33.3197143,8.40428571 C34.6002857,9.018 36.1362857,8.478 36.75,7.19657143 C37.3637143,5.916 36.8237143,4.38085714 35.5422857,3.76714286 C31.8454286,1.99457143 28.578,1.20771429 25.6834286,1.20771429 C22.7674286,1.2 20.2628571,2.034 18.3068571,3.28885714 C16.836,4.22742857 15.6642857,5.38114286 14.7368571,6.55628571 C13.3465714,8.32285714 12.4877143,10.14 11.9528571,11.5337143 C11.4205714,12.9282857 11.2174286,13.9054286 11.1951429,14.0091429 L13.7151429,14.5234286 L11.2097143,13.944 L1.32942857,56.658 C1.00971429,58.0422857 1.872,59.4231429 3.25542857,59.7428571 C4.63885714,60.0634286 6.02057143,59.2011429 6.34028571,57.8168571" id="Fill-198" fill="#513B32"></path>
            <path d="M119.266286,56.658 L109.386,13.944 L109.346571,13.7948571 C109.296,13.6448571 108.408857,10.6002857 106.208571,7.38171429 C105.102857,5.77542857 103.657714,4.11171429 101.739429,2.80285714 C99.8322857,1.49485714 97.404,0.573428571 94.6242857,0.580285714 C91.6182857,0.578571429 88.3165714,1.62514286 84.7662857,3.92742857 C83.5748571,4.69885714 83.2337143,6.29057143 84.006,7.48285714 C84.7774286,8.67514286 86.3691429,9.01628571 87.5614286,8.244 C90.516,6.33514286 92.826,5.724 94.6242857,5.72228571 C96.2922857,5.72914286 97.6208571,6.22971429 98.8457143,7.05342857 C99.7568571,7.67314286 100.582286,8.48742857 101.294571,9.38142857 C102.365143,10.7194286 103.172571,12.228 103.688571,13.3825714 C103.947429,13.9602857 104.136,14.448 104.255143,14.7814286 C104.315143,14.9485714 104.358,15.0762857 104.384571,15.1568571 L104.412,15.2425714 L104.416286,15.2571429 L105.255429,15.0034286 L104.414571,15.252 L104.416286,15.2571429 L105.255429,15.0034286 L104.414571,15.252 L106.880571,14.5234286 L104.375143,15.1028571 L114.255429,57.8168571 C114.575143,59.2011429 115.956857,60.0634286 117.340286,59.7428571 C118.723714,59.4231429 119.586,58.0422857 119.266286,56.658" id="Fill-199" fill="#513B32"></path>
        </g>
    </g>
</svg>