<?xml version="1.0" encoding="UTF-8"?>
<svg width="120px" height="120px" viewBox="0 0 120 120" version="1.1" xmlns="http://www.w3.org/2000/svg" xmlns:xlink="http://www.w3.org/1999/xlink">
    <!-- Generator: Sketch 51.1 (57501) - http://www.bohemiancoding.com/sketch -->
    <title>Banana1</title>
    <desc>Created with Sketch.</desc>
    <defs>
        <polygon id="path-1" points="0 0.358326543 97.1162791 0.358326543 97.1162791 73.0246914 0 73.0246914"></polygon>
    </defs>
    <g id="Banana1" stroke="none" stroke-width="1" fill="none" fill-rule="evenodd">
        <g id="Page-1" transform="translate(60.000000, 60.500000) scale(-1, 1) translate(-60.000000, -60.500000) translate(0.000000, 15.000000)">
            <path d="M119.659312,7.04193951 C115.707684,5.87185926 78.0421953,-5.0571284 76.2840558,2.85088395 C75.1605209,7.90475432 89.3021023,6.58188395 90.9765209,9.95225432 C91.0714047,10.143242 91.1562419,10.3420938 91.232707,10.5460012 C95.9579163,10.9532543 100.583777,11.8391 104.719033,13.9427728 C107.05373,14.1258963 109.561451,14.6241494 111.627684,15.5695383 C111.891684,15.6903099 112.145637,15.7756926 112.395126,15.8464704 C112.452056,14.211279 113.019684,12.4991309 113.302102,11.0757111 C113.780986,8.66814321 116.720149,7.09080988 119.659312,7.04193951" id="Fill-1" fill="#BDB36D"></path>
            <path d="M18.9767442,71.7422093 C32.9302326,74.5508512 46.8837209,77.9212216 59.1627907,72.3039377 C67.5348837,68.3718389 77.0232558,64.4397401 82.6046512,54.8903574 C88.744186,43.0940611 93.7674419,31.2977648 92.0930233,17.8162833 C94.5142326,18.4251969 97.0989767,18.8667154 99.6703256,19.2352093 C99.2411163,17.7477525 98.6026047,16.2704068 97.6744186,15.5693698 C96.1931163,14.4515302 100.117395,13.5819747 104.719256,13.9426043 C100.584,11.8389315 95.9581395,10.9530858 91.2329302,10.5463944 C92.5054884,13.9420426 91.1553488,18.9397401 84.8372093,18.9397401 C84.8372093,18.9397401 65.8604651,65.0014685 12.8372093,63.8780117 L7.99367442,65.8850673 C7.31386047,66.1670549 6.69209302,66.5439747 6.1384186,66.9939191 C7.97246512,67.9213327 9.83665116,68.7577463 11.7209302,69.4952957 C13.9534884,70.6187525 16.744186,71.1804809 18.9767442,71.7422093" id="Fill-3" fill="#FFE06C"></path>
            <g id="Group-7" transform="translate(3.348837, 17.457957)">
                <mask id="mask-2" fill="white">
                    <use xlink:href="#path-1"></use>
                </mask>
                <g id="Clip-6"></g>
                <path d="M88.744186,0.358326543 C90.4186047,13.839808 85.3953488,25.6361043 79.255814,37.4324006 C73.6744186,46.9817833 64.1860465,50.9138821 55.8139535,54.8459809 C43.5348837,60.4632648 29.5813953,57.0928944 15.627907,54.2842525 C13.3953488,53.7225241 10.6046512,53.1607957 8.37209302,52.0373389 C6.48781395,51.2997895 4.62362791,50.4633759 2.7895814,49.5359623 C1.05544186,50.9459006 0,53.0888944 0,55.4077093 L5.71813953,62.2416969 C8.0187907,64.9913574 11.0031628,67.0708759 14.3715349,68.2656722 C32.1253953,74.5620858 87.7590698,87.4352154 97.1162791,5.97561049 C97.1162791,5.97561049 96.9248372,3.8668821 96.3214884,1.77725247 C93.7501395,1.40875864 91.1653953,0.967240123 88.744186,0.358326543" id="Fill-5" fill="#FDD157" mask="url(#mask-2)"></path>
            </g>
            <path d="M9.03817674,65.4523679 C9.03817674,65.4523679 10.2325953,70.0568556 8.18589767,71.7420407 C6.13975814,73.4272259 4.11594419,73.7828 4.11594419,73.7828 L0.000223255814,68.3716704 C0.000223255814,68.3716704 1.11650233,64.252516 2.2327814,64.252516 C3.34906047,64.252516 9.03817674,65.4523679 9.03817674,65.4523679" id="Fill-8" fill="#AAA162"></path>
        </g>
    </g>
</svg>