<?xml version="1.0" encoding="UTF-8"?>
<svg width="120px" height="120px" viewBox="0 0 120 120" version="1.1" xmlns="http://www.w3.org/2000/svg" xmlns:xlink="http://www.w3.org/1999/xlink">
    <!-- Generator: Sketch 51.1 (57501) - http://www.bohemiancoding.com/sketch -->
    <title>Shark</title>
    <desc>Created with Sketch.</desc>
    <defs>
        <polygon id="path-1" points="0.0002251074 0.429504587 119.9204 0.429504587 119.9204 64.8866385 0.0002251074 64.8866385"></polygon>
    </defs>
    <g id="Shark" stroke="none" stroke-width="1" fill="none" fill-rule="evenodd">
        <g id="Group" transform="translate(60.000000, 60.000000) scale(-1, 1) translate(-60.000000, -60.000000) translate(0.000000, 22.000000)">
            <path d="M36.8260351,52.1032294 C34.0253333,54.7653211 28.3916491,60.563633 25.4955088,66.646422 C25.0674386,67.5444771 25.7523509,68.5708257 26.7523509,68.5485138 C30.4225263,68.467633 37.3769123,68.549211 44.1018246,59.9089174 C45.3902456,57.0278899 43.2379649,53.6190459 40.6112982,51.7950459 C39.4435789,50.984844 37.854807,51.1256881 36.8260351,52.1032294" id="Fill-1" fill="#209BB0"></path>
            <path d="M40.6110175,51.7951156 C39.444,50.9849138 37.8545263,51.1257578 36.8257544,52.1032991 C34.926807,53.9077761 31.7275088,57.1562532 28.9590877,60.9562532 C32.0482105,62.6205835 35.3387368,64.0304183 38.8124211,65.0741982 C40.5485614,63.846345 42.3331228,62.1813174 44.1022456,59.9089872 C45.3906667,57.0279596 43.2376842,53.6191156 40.6110175,51.7951156" id="Fill-3" fill="#1C8C9F"></path>
            <g id="Group-7" transform="translate(0.000000, 0.267743)">
                <mask id="mask-2" fill="white">
                    <use xlink:href="#path-1"></use>
                </mask>
                <g id="Clip-6"></g>
                <path d="M118.447509,35.4606936 C117.822246,32.534345 117.543649,29.6226385 117.337333,26.6412073 C116.822246,19.2162165 116.855228,11.7452073 117.02786,4.30766606 C117.051018,3.31827156 115.719789,2.96755596 115.244702,3.83702385 L107.152772,18.6340147 C105.684,21.3212073 102.792772,22.9276661 99.7197895,22.7624183 C96.3682105,22.5818312 91.1990877,22.2729505 83.7773333,21.7521064 C80.3022456,21.4899413 76.8397895,21.2710055 73.4103158,21.0890239 C70.4601404,20.9335376 68.2861053,18.2819046 68.7499649,15.3827486 C69.6159298,9.97001468 71.6790877,4.11801468 72.6538246,1.53750092 C72.881193,0.935078899 72.3506667,0.32080367 71.7155789,0.445611009 C57.8776842,3.17184954 51.3492632,12.0910422 48.5625965,17.6167303 C47.7197895,19.288033 45.9864561,20.3297211 44.1050526,20.3269321 C24.8938246,20.3032257 9.54364912,21.1524734 3.41803509,21.5512991 C1.42294737,21.6809872 -0.135649123,23.3801798 0.00961403509,25.3617578 C0.0685614035,26.1635927 0.225052632,27.0992991 0.538736842,28.1688771 C1.79487719,32.4464917 22.4250526,64.8866385 53.2804912,64.8866385 C84.1352281,64.8866385 95.7962807,50.2709321 102.074877,41.5365101 C103.613825,39.3959596 106.018035,36.5951156 109.000491,36.9562899 C112.168912,37.3390789 114.566105,43.1562165 116.220842,45.5819413 C117.825754,47.9337578 119.516281,47.3383083 119.836982,44.7884734 C120.236982,41.6041431 119.103649,38.5313725 118.447509,35.4606936" id="Fill-5" fill="#209BB0" mask="url(#mask-2)"></path>
            </g>
            <path d="M102.074807,41.8045321 C95.8130526,38.9346606 80.2614737,53.1410826 68.0628772,47.6042385 C59.1498947,43.5595046 49.7330526,45.7133028 40.7239298,48.1048624 C31.2853333,50.6100734 22.2727018,48.2324587 13.1070877,45.7293394 C22.3688421,55.2941835 36.2698947,65.1539633 53.2804211,65.1539633 C84.1358596,65.1539633 95.7962105,50.5382569 102.074807,41.8045321" id="Fill-8" fill="#C7E1E6"></path>
            <path d="M19.2527719,28.0937835 C19.2527719,30.7586642 21.4275088,32.9187376 24.1089123,32.9187376 C26.7910175,32.9187376 28.9650526,30.7586642 28.9650526,28.0937835 C28.9650526,25.4289028 26.7910175,23.2695266 24.1089123,23.2695266 C21.4275088,23.2695266 19.2527719,25.4289028 19.2527719,28.0937835" id="Fill-10" fill="#3C2415"></path>
            <path d="M18.7195789,43.9078495 C18.3272982,43.9078495 17.9665965,43.7147119 17.7448421,43.3849138 L16.4101053,41.398455 L16.3834386,41.398455 C11.8872982,41.398455 8.25992982,38.9546018 8.10203509,38.8472257 C7.73501754,38.5962165 7.64238596,38.0976844 7.89431579,37.7330239 C8.14694737,37.3683633 8.64870175,37.2756294 9.01642105,37.525244 C9.05221053,37.5496477 12.6339649,39.957244 16.8044912,39.7864183 L17.2557193,39.7682899 L18.6830877,41.8928037 L19.7616842,39.9328404 L20.0550175,39.830345 C20.0788772,39.8226752 22.4816842,38.977611 24.1209825,37.5782349 C24.4599298,37.2902716 24.9687018,37.3279229 25.2592281,37.6639963 C25.5497544,38.0000697 25.5118596,38.5062716 25.1729123,38.7949321 C23.6458947,40.0987853 21.6374737,40.945244 20.885193,41.2352991 L19.7525614,43.2949688 C19.5511579,43.6603266 19.1848421,43.8890239 18.7715088,43.9071523 C18.7546667,43.9078495 18.7371228,43.9078495 18.7195789,43.9078495" id="Fill-12" fill="#3C2415"></path>
            <path d="M35.1347368,34.2771156 C35.9038596,35.2107303 36.362807,36.3597945 36.6266667,37.5395376 C36.8863158,38.7241615 36.9221053,39.9715376 36.7122807,41.1819596 C36.5066667,42.3888954 36.1031579,43.575611 35.4484211,44.6061431 C35.1614035,45.1423266 34.7431579,45.5969321 34.362807,46.0578128 C33.9529825,46.4977761 33.4821053,46.8833541 33.0035088,47.234767 C33.205614,46.6553541 33.4926316,46.1617028 33.6982456,45.627611 C33.9073684,45.0977028 34.1438596,44.5949872 34.3017544,44.0643817 C34.6926316,43.0359413 34.9340351,41.9817028 35.1192982,40.9246752 C35.3052632,39.865556 35.3803509,38.784822 35.3698246,37.6824734 C35.3705263,36.5759413 35.2778947,35.4617394 35.1347368,34.2771156" id="Fill-14" fill="#157989"></path>
            <path d="M38.597614,33.1222642 C39.4474386,34.244833 39.9562105,35.5954018 40.2439298,36.9787413 C40.5267368,38.3676587 40.5590175,39.8221174 40.3141053,41.2347413 C40.0741053,42.6438789 39.6130526,44.0307046 38.8656842,45.2439156 C38.5379649,45.875622 38.0614737,46.4145945 37.629193,46.9640257 C37.1646316,47.491145 36.6249825,47.9548147 36.0867368,48.3892 C36.349193,47.7268147 36.7035789,47.1550716 36.9646316,46.5345211 C37.2256842,45.9153651 37.5204211,45.3275853 37.7190175,44.7021541 C38.2025263,43.4903376 38.5007719,42.235989 38.7211228,40.9774569 C38.9421754,39.7161358 39.0214737,38.427622 38.9870877,37.1223743 C38.9632281,35.8115486 38.8221754,34.4958422 38.597614,33.1222642" id="Fill-16" fill="#157989"></path>
            <path d="M42.7717895,34.2893174 C43.5395088,35.2208404 43.9977544,36.3678128 44.261614,37.5454642 C44.5205614,38.7279963 44.5563509,39.9725835 44.3472281,41.1809138 C44.141614,42.386455 43.7395088,43.5710789 43.0854737,44.5995193 C42.7991579,45.1343083 42.3809123,45.5882165 42.0012632,46.0477028 C41.5921404,46.4876661 41.1212632,46.8718495 40.6440702,47.2225651 C40.8454737,46.6438495 41.1317895,46.1515927 41.3367018,45.6181982 C41.5451228,45.0882899 41.7809123,44.5869688 41.938807,44.0570606 C42.3282807,43.0314092 42.5696842,41.9785651 42.7542456,40.9243266 C42.9395088,39.8672991 43.0152982,38.7886569 43.0047719,37.6884 C43.0054737,36.5846569 42.9135439,35.4718495 42.7717895,34.2893174" id="Fill-18" fill="#157989"></path>
            <path d="M53.2802807,65.1541028 C84.1357193,65.1541028 95.7960702,50.5383963 102.074667,41.8046716 C103.614316,39.6634239 106.017825,36.8632771 109.000281,37.2237541 C112.168702,37.6065431 114.565895,43.4236807 116.220632,45.8494055 C117.826246,48.2019193 119.516772,47.6064697 119.837474,45.0559376 C119.885193,44.6731486 119.909754,44.2917541 119.917474,43.9117541 C119.850105,44.0016991 118.389754,45.8703229 115.761684,41.4176991 C113.071158,36.8583963 109.706947,30.7595706 104.728702,34.2771853 C99.7511579,37.7941028 94.1006316,48.6223596 82.2606316,51.9642679 C70.4206316,55.3061761 67.3265965,54.7407083 65.3083509,53.2855523 C63.2901053,51.8303963 57.050807,45.2246716 49.4318596,54.4353138 C46.3371228,57.3114606 34.8690526,57.3072771 28.965193,54.4353138 C23.8865965,51.9649651 13.1301053,44.6076073 10.2192281,42.5960477 C19.3462456,53.0052587 34.3974737,65.1541028 53.2802807,65.1541028" id="Fill-20" fill="#C7E1E6"></path>
            <path d="M60.696,53.6154899 C64.4349474,57.1693615 71.9556491,64.9095083 75.8223158,73.0303523 C76.3928421,74.2289211 75.4791579,75.5997101 74.1444211,75.5697284 C69.2447719,75.461655 59.9598596,75.5704257 50.9830175,64.0358569 C49.2630175,60.1898385 52.1367018,55.6396 55.6440702,53.2041138 C57.2019649,52.1226826 59.3226667,52.3102422 60.696,53.6154899" id="Fill-22" fill="#209BB0"></path>
            <path d="M56.4512281,57.717956 C58.0091228,56.6365248 60.1298246,56.8240844 61.5031579,58.1286349 C64.8701754,61.3290018 71.2940351,67.9249651 75.3642105,75.1345064 C75.9410526,74.6394606 76.1887719,73.8006716 75.8224561,73.0302128 C71.9557895,64.9093688 64.4350877,57.169222 60.6961404,53.6153505 C59.322807,52.3101028 57.2014035,52.1225431 55.6442105,53.2039743 C52.1368421,55.6394606 49.2631579,60.1896991 50.9831579,64.0357174 C51.1396491,64.2365248 51.2961404,64.4254789 51.4526316,64.6186165 C52.0407018,61.9342128 54.0996491,59.3502128 56.4512281,57.717956" id="Fill-24" fill="#1C8C9F"></path>
            <path d="M67.8642807,21.8863266 C70.9527018,22.0195009 78.4635789,21.6541431 78.4902456,21.6534459 C76.7905965,21.5453725 75.0965614,21.4463633 73.4102456,21.3571156 C70.4600702,21.2009321 68.2860351,18.5492991 68.7498947,15.6508404 C69.6158596,10.2374092 71.6797193,4.38540917 72.6537544,1.80559266 C72.6537544,1.80559266 67.8642807,10.5232807 66.3842807,14.6677211 C64.9042807,18.8114642 64.7695439,21.752455 67.8642807,21.8863266" id="Fill-26" fill="#209BB0"></path>
            <path d="M53.4077193,16.9378202 C52.8954386,17.1602422 52.4512281,17.5130495 52.0266667,17.8756183 C51.3747368,18.4334165 50.722807,19.0707009 50.5073684,19.8990312 C50.4757895,20.022444 50.4540351,20.1528294 50.4863158,20.2762422 C50.522807,20.4198752 50.6266667,20.5356183 50.7319298,20.6402055 C51.2498246,21.1512881 51.9157895,21.5410495 52.6414035,21.618444 C53.3670175,21.6965358 54.1494737,21.4253064 54.5803509,20.8396183 C54.8708772,20.4442789 54.994386,19.9331963 55.3438596,19.588756 C55.7677193,19.1704073 56.4315789,19.0881321 56.8947368,18.7130128 C57.594386,18.1468477 57.5950877,16.7948844 56.6582456,16.4574165 C55.8091228,16.1506275 54.1880702,16.599655 53.4077193,16.9378202" id="Fill-28" fill="#1C8C9F"></path>
            <path d="M91.2805614,25.4137725 C90.7675789,25.6361945 90.3240702,25.9890018 89.898807,26.3515706 C89.2468772,26.9086716 88.5956491,27.5466532 88.3802105,28.3742862 C88.3486316,28.4976991 88.3268772,28.6287817 88.3584561,28.7521945 C88.3956491,28.8951303 88.4995088,29.0115706 88.6047719,29.1154606 C89.1226667,29.6272404 89.7886316,30.0163046 90.5142456,30.0943963 C91.2398596,30.1717908 92.0223158,29.9005615 92.4524912,29.3148734 C92.7437193,28.9202312 92.8672281,28.4091486 93.2167018,28.064011 C93.6405614,27.6463596 94.3044211,27.5633872 94.7675789,27.1889651 C95.4672281,26.6221028 95.4679298,25.2708367 94.5310877,24.9326716 C93.6819649,24.6265798 92.0609123,25.0749101 91.2805614,25.4137725" id="Fill-30" fill="#1C8C9F"></path>
            <path d="M92.8985965,34.3070275 C92.2277193,34.8208991 91.7252632,35.6331927 91.8150877,36.4705872 C91.9140351,37.3930459 92.7217544,38.1286422 93.6185965,38.3866239 C94.5161404,38.6439083 95.4817544,38.5044587 96.3821053,38.2590275 C96.7617544,38.1565321 97.1491228,38.026844 97.4368421,37.7618899 C97.7512281,37.4718349 97.9098246,37.0541835 98.0417544,36.6483853 C98.4494737,35.3982202 98.3217544,33.5463303 96.7905263,33.0756881 C95.6649123,32.7298532 93.7519298,33.6544037 92.8985965,34.3070275" id="Fill-32" fill="#1C8C9F"></path>
            <path d="M95.406807,29.9877174 C95.1850526,30.1578459 95.0180351,30.4269835 95.0475088,30.7037908 C95.0804912,31.0091853 95.3478596,31.2525248 95.6454035,31.3382862 C95.9422456,31.4233505 96.2622456,31.3773321 96.5604912,31.2964514 C96.6854035,31.2622862 96.8138246,31.2197541 96.9092632,31.1312037 C97.0131228,31.0349835 97.0657544,30.8969284 97.1099649,30.7630569 C97.2447018,30.349589 97.2025965,29.736011 96.6952281,29.5798275 C96.3232982,29.4654789 95.6889123,29.7715706 95.406807,29.9877174" id="Fill-34" fill="#1C8C9F"></path>
            <path d="M101.371719,30.2853028 C101.149965,30.4554312 100.982947,30.7245688 101.012421,31.0013761 C101.045404,31.3067706 101.312772,31.5501101 101.610316,31.6358716 C101.907158,31.7209358 102.227158,31.6749174 102.525404,31.5933394 C102.650316,31.5598716 102.778737,31.5173394 102.874175,31.428789 C102.978035,31.3325688 103.030667,31.1945138 103.074877,31.0606422 C103.209614,30.6464771 103.167509,30.0335963 102.66014,29.8774128 C102.288211,29.7630642 101.653825,30.069156 101.371719,30.2853028" id="Fill-36" fill="#1C8C9F"></path>
            <path d="M72.6614737,41.5579853 C71.6923509,41.9226459 70.9134035,42.5557468 70.552,43.2718202 C70.4144561,43.544444 70.3351579,43.8344991 70.3983158,44.1078202 C70.4832281,44.4745725 70.8144561,44.774389 71.1632281,45.0414349 C71.6909474,45.4451413 72.2832281,45.8077101 72.9267368,46.1214716 C73.4460351,46.3752697 74.0179649,46.6018752 74.666386,46.657655 C75.7751579,46.7538752 76.9035789,46.3452881 77.9105965,45.9178752 C78.4593684,45.6842972 79.0256842,45.4228294 79.3379649,45.0330679 C79.5351579,44.7862422 79.6123509,44.5059486 79.6116491,44.2347193 C79.6095439,43.5353798 79.1014737,42.9064624 78.4151579,42.4379119 C76.9449825,41.4352697 74.8221754,40.7442972 72.6614737,41.5579853" id="Fill-38" fill="#1C8C9F"></path>
            <path d="M98.7394386,25.9870495 C98.4973333,26.1334716 98.249614,26.2910495 98.0945263,26.5274165 C97.7099649,27.1144991 98.0769825,27.9379486 98.6475088,28.3493248 C99.6397895,29.0640037 101.005404,28.9196734 102.191368,28.6128844 C102.821544,28.4497284 103.494526,28.2105725 103.839789,27.6611413 C104.196982,27.0907927 104.09593,26.3565908 103.942246,25.7018752 C103.728912,24.7940587 103.039088,23.7516734 101.957684,24.1762972 C100.86014,24.6071963 99.7478596,25.3769578 98.7394386,25.9870495" id="Fill-40" fill="#1C8C9F"></path>
            <path d="M7.09810526,25.337145 C7.13670175,25.6801908 6.99354386,25.9848881 6.78301754,26.2254385 C6.56757895,26.4632 6.26301754,26.6396037 5.93459649,26.6974752 C5.6082807,26.7553468 5.26863158,26.7211817 4.98442105,26.5852183 C4.69950877,26.452044 4.46231579,26.2414752 4.31775439,25.9360807 C4.65038596,25.8335853 4.90231579,25.8056954 5.13108772,25.7568881 C5.35845614,25.7227229 5.54582456,25.6746128 5.73038596,25.6481174 C6.10021053,25.5797872 6.45459649,25.5072734 7.09810526,25.337145" id="Fill-42" fill="#157989"></path>
        </g>
    </g>
</svg>