<?xml version="1.0" encoding="UTF-8"?>
<svg width="120px" height="120px" viewBox="0 0 120 120" version="1.1" xmlns="http://www.w3.org/2000/svg" xmlns:xlink="http://www.w3.org/1999/xlink">
    <!-- Generator: Sketch 51.1 (57501) - http://www.bohemiancoding.com/sketch -->
    <title>Apartment62</title>
    <desc>Created with Sketch.</desc>
    <defs>
        <polygon id="path-1" points="0 89.4 119.876985 89.4 119.876985 0.2082 0 0.2082"></polygon>
    </defs>
    <g id="Apartment62" stroke="none" stroke-width="1" fill="none" fill-rule="evenodd">
        <g id="Page-1" transform="translate(0.000000, 15.000000)">
            <polygon id="Fill-1" fill="#AB9A9A" points="28.2004824 74.1075 28.2004824 89.7915 75.4931457 89.7915 75.5552563 89.7915 118.334352 89.7915 118.334352 75.8493 105.025809 75.8493 75.5552563 75.8493 75.4931457 75.8493 46.0219899 75.8493 45.7638995 74.1075"></polygon>
            <polygon id="Fill-2" fill="#CFBABA" points="78.8584523 75.84954 78.8017688 75.84954 56.1199598 75.84954 56.1199598 89.79114 78.8017688 89.79114 78.8584523 89.79114 101.539658 89.79114 101.539658 75.84954"></polygon>
            <polygon id="Fill-3" fill="#91C95C" points="75.5553769 26.48862 75.4926633 26.48862 21.0198995 26.48862 21.0198995 75.85002 75.4926633 75.85002 75.5553769 75.85002 114.715779 75.85002 114.715779 26.48862"></polygon>
            <polygon id="Fill-4" fill="#71A83D" points="75.5553769 26.48862 75.4926633 26.48862 36.7622111 26.48862 36.8056281 42.42582 114.242412 42.42582 114.285829 26.48862"></polygon>
            <polygon id="Fill-5" fill="#6E3535" points="75.5553769 49.56396 75.4926633 49.56396 63.6223116 49.56396 63.6223116 75.84996 75.4926633 75.84996 75.5553769 75.84996 87.4257286 75.84996 87.4257286 49.56396"></polygon>
            <polygon id="Fill-6" fill="#5D4566" points="75.5554975 0.6 42.7165025 0.8898 0.000120603015 26.0784 31.2676583 26.0808"></polygon>
            <polygon id="Fill-7" fill="#947B7B" points="6.57949749 89.7912 33.8267337 89.7912 33.8267337 74.1072 6.57949749 74.1072"></polygon>
            <polygon id="Fill-8" fill="#71A83D" points="6.57889447 75.8502 36.7622111 75.8502 36.7622111 26.4888 6.57889447 26.4888"></polygon>
            <polygon id="Fill-9" fill="#947B7B" points="56.1198392 75.84954 56.1198392 89.79114 69.713608 89.79114 69.713608 86.82234 66.4796382 86.82234 66.4796382 83.14314 63.0810452 83.14314 63.0810452 79.65714 59.7379296 79.65714 59.7379296 75.84954"></polygon>
            <polygon id="Fill-10" fill="#DECACA" points="36.0042211 71.865 43.7149749 71.865 43.7149749 26.4888 36.0042211 26.4888"></polygon>
            <polygon id="Fill-11" fill="#E39C4B" points="34.8465528 71.86476 44.3223317 71.86476 45.5886633 75.84996 33.8003216 75.84996"></polygon>
            <polygon id="Fill-12" fill="#E39C4B" points="35.0120201 30.47358 44.487799 30.47358 45.7541307 26.48838 33.9657889 26.48838"></polygon>
            <g id="Group-56" transform="translate(0.000000, 0.391800)">
                <path d="M36.0042814,30.08178 L43.7150352,30.08178 C41.1365427,31.07658 38.9988543,33.42618 38.788402,39.97218 L38.788402,71.47278 L36.0042814,71.47278 L36.0042814,30.08178 Z" id="Fill-13" fill="#B8A5A5"></path>
                <polygon id="Fill-15" fill="#BD8648" points="35.0120201 30.08178 38.4847839 30.08178 39.7511156 26.09658 33.9657889 26.09658"></polygon>
                <polygon id="Fill-17" fill="#BD8648" points="34.8465528 71.47296 38.3193166 71.47296 39.5856482 75.45816 33.8003216 75.45816"></polygon>
                <mask id="mask-2" fill="white">
                    <use xlink:href="#path-1"></use>
                </mask>
                <g id="Clip-20"></g>
                <polygon id="Fill-19" fill="#4B3154" mask="url(#mask-2)" points="0 26.8668 31.2681407 26.8668 31.2681407 25.6866 0 25.6866"></polygon>
                <polygon id="Fill-21" fill="#DECACA" mask="url(#mask-2)" points="50.3240201 71.4732 58.0341709 71.4732 58.0341709 26.097 50.3240201 26.097"></polygon>
                <polygon id="Fill-22" fill="#E39C4B" mask="url(#mask-2)" points="49.165809 71.47296 58.642191 71.47296 59.9085226 75.45816 48.1195779 75.45816"></polygon>
                <polygon id="Fill-23" fill="#E39C4B" mask="url(#mask-2)" points="49.3312764 30.08178 58.8070553 30.08178 60.0733869 26.09658 48.2850452 26.09658"></polygon>
                <path d="M50.3241407,30.08178 L58.0342915,30.08178 C55.456402,31.07658 53.3181106,33.42618 53.1082613,39.97218 L53.1082613,71.47278 L50.3241407,71.47278 L50.3241407,30.08178 Z" id="Fill-24" fill="#B8A5A5" mask="url(#mask-2)"></path>
                <polygon id="Fill-25" fill="#BD8648" mask="url(#mask-2)" points="49.3312764 30.08178 52.8040402 30.08178 54.0703719 26.09658 48.2850452 26.09658"></polygon>
                <polygon id="Fill-26" fill="#BD8648" mask="url(#mask-2)" points="49.165809 71.47296 52.6391759 71.47296 53.9055075 75.45816 48.1195779 75.45816"></polygon>
                <polygon id="Fill-27" fill="#DECACA" mask="url(#mask-2)" points="75.5553769 1.3122 75.5553769 1.2756 75.5240201 1.2942 75.4926633 1.2756 75.4926633 1.3122 32.3360804 26.097 75.4926633 26.097 75.5553769 26.097 118.711357 26.097"></polygon>
                <polygon id="Fill-28" fill="#C4AEAE" mask="url(#mask-2)" points="75.5241407 23.6142 110.037106 23.8722 75.5554975 4.1178 75.5554975 4.0818 75.5241407 4.1004 75.4927839 4.0818 75.4927839 4.1178 41.0105729 23.8722"></polygon>
                <polygon id="Fill-29" fill="#835D91" mask="url(#mask-2)" points="119.876985 26.86674 119.779899 25.68894 75.5553769 0.24414 75.5553769 0.20814 75.5240201 0.22614 75.4926633 0.20814 75.4926633 0.24414 31.2687437 25.68894 31.1710553 26.86674 32.3360804 26.09694 75.5240201 1.29414 118.711357 26.09694"></polygon>
                <polygon id="Fill-30" fill="#B8A5A5" mask="url(#mask-2)" points="81.072 86.43078 81.0092864 86.43078 69.713608 86.43078 69.713608 89.39958 81.0092864 89.39958 81.072 89.39958 111.187779 89.39958 111.187779 86.43078"></polygon>
                <polygon id="Fill-31" fill="#B8A5A5" mask="url(#mask-2)" points="81.072 79.26534 81.0092864 79.26534 63.0810452 79.26534 63.0810452 82.75194 81.0092864 82.75194 81.072 82.75194 104.554613 82.75194 104.554613 79.26534"></polygon>
                <polygon id="Fill-32" fill="#CFBABA" mask="url(#mask-2)" points="84.4822312 82.7517 84.4195176 82.7517 66.4912764 82.7517 66.4912764 86.2383 84.4195176 86.2383 84.4822312 86.2383 107.964241 86.2383 107.964241 82.7517"></polygon>
                <polygon id="Fill-33" fill="#DECACA" mask="url(#mask-2)" points="107.498291 71.4732 115.208442 71.4732 115.208442 26.097 107.498291 26.097"></polygon>
                <polygon id="Fill-34" fill="#E39C4B" mask="url(#mask-2)" points="106.339779 71.47296 115.816161 71.47296 117.082492 75.45816 105.293548 75.45816"></polygon>
                <polygon id="Fill-35" fill="#E39C4B" mask="url(#mask-2)" points="106.505246 30.08178 115.981025 30.08178 117.247357 26.09658 105.459015 26.09658"></polygon>
                <path d="M107.498111,30.08178 L115.208261,30.08178 C112.630372,31.07658 110.49208,33.42618 110.281628,39.97218 L110.281628,71.47278 L107.498111,71.47278 L107.498111,30.08178 Z" id="Fill-36" fill="#B8A5A5" mask="url(#mask-2)"></path>
                <polygon id="Fill-37" fill="#BD8648" mask="url(#mask-2)" points="106.505246 30.08178 109.97801 30.08178 111.244342 26.09658 105.459015 26.09658"></polygon>
                <polygon id="Fill-38" fill="#BD8648" mask="url(#mask-2)" points="106.339779 71.47296 109.812543 71.47296 111.078874 75.45816 105.293548 75.45816"></polygon>
                <polygon id="Fill-39" fill="#DECACA" mask="url(#mask-2)" points="93.1784925 71.4732 100.889246 71.4732 100.889246 26.097 93.1784925 26.097"></polygon>
                <polygon id="Fill-40" fill="#E39C4B" mask="url(#mask-2)" points="92.0205226 71.47296 101.496302 71.47296 102.762633 75.45816 90.9742915 75.45816"></polygon>
                <polygon id="Fill-41" fill="#E39C4B" mask="url(#mask-2)" points="92.1853869 30.08178 101.661769 30.08178 102.928101 26.09658 91.1391558 26.09658"></polygon>
                <path d="M93.1782513,30.08178 L100.889005,30.08178 C98.3105126,31.07658 96.1728241,33.42618 95.9623719,39.97218 L95.9623719,71.47278 L93.1782513,71.47278 L93.1782513,30.08178 Z" id="Fill-42" fill="#B8A5A5" mask="url(#mask-2)"></path>
                <polygon id="Fill-43" fill="#BD8648" mask="url(#mask-2)" points="92.1853869 30.08178 95.6587538 30.08178 96.9244824 26.09658 91.1391558 26.09658"></polygon>
                <polygon id="Fill-44" fill="#BD8648" mask="url(#mask-2)" points="92.0205226 71.47296 95.4932864 71.47296 96.7596181 75.45816 90.9742915 75.45816"></polygon>
                <polygon id="Fill-45" fill="#873939" mask="url(#mask-2)" points="79.6914573 73.4772 85.1421106 73.4772 85.1421106 61.2954 79.6914573 61.2954"></polygon>
                <polygon id="Fill-46" fill="#873939" mask="url(#mask-2)" points="79.6914573 59.4798 85.1421106 59.4798 85.1421106 51.0528 79.6914573 51.0528"></polygon>
                <polygon id="Fill-47" fill="#5C2727" mask="url(#mask-2)" points="78.6524623 75.4578 78.9871357 75.4578 78.9871357 49.1718 78.6524623 49.1718"></polygon>
                <path d="M50.6015276,21.70224 L50.0823317,20.99184 L58.5161005,16.40904 C58.7325829,18.26664 59.8041407,20.49924 61.175397,21.50844 L50.6015276,21.70224 Z" id="Fill-48" fill="#DECACA" mask="url(#mask-2)"></path>
                <path d="M75.5241407,21.39522 C75.6302714,21.42522 75.5928844,21.44922 75.5241407,21.46722 C75.454794,21.44922 75.4180101,21.42522 75.5241407,21.39522 M75.5241407,9.61662 C75.4180101,9.58662 75.454794,9.56262 75.5241407,9.54462 C75.5928844,9.56262 75.6302714,9.58662 75.5241407,9.61662 M81.9390151,15.50622 C81.9390151,12.25122 78.7303719,9.60762 75.6640402,9.51162 C75.6797186,9.50622 75.6592161,9.50322 75.5554975,9.50322 C75.5446432,9.50322 75.534392,9.50502 75.5241407,9.50502 C75.5132864,9.50502 75.5030352,9.50322 75.4927839,9.50322 C75.3884623,9.50322 75.3679598,9.50622 75.3836382,9.51162 C72.3173065,9.60762 69.1086633,12.25122 69.1086633,15.50622 C69.1086633,18.76062 72.3173065,21.40422 75.3836382,21.50022 C75.3679598,21.50622 75.3884623,21.50862 75.4927839,21.50862 C75.5030352,21.50862 75.5132864,21.50742 75.5241407,21.50742 C75.534392,21.50742 75.5446432,21.50862 75.5554975,21.50862 C75.6592161,21.50862 75.6797186,21.50622 75.6640402,21.50022 C78.7303719,21.40422 81.9390151,18.76062 81.9390151,15.50622" id="Fill-49" fill="#DECACA" mask="url(#mask-2)"></path>
                <path d="M100.446211,21.70224 L100.965407,20.99184 L92.5316382,16.40904 C92.3151558,18.26664 91.243598,20.49924 89.8723417,21.50844 L100.446211,21.70224 Z" id="Fill-50" fill="#DECACA" mask="url(#mask-2)"></path>
                <polygon id="Fill-51" fill="#873939" mask="url(#mask-2)" points="65.9053266 73.4772 71.3559799 73.4772 71.3559799 61.2954 65.9053266 61.2954"></polygon>
                <polygon id="Fill-52" fill="#873939" mask="url(#mask-2)" points="65.9053266 59.4798 71.3559799 59.4798 71.3559799 51.0528 65.9053266 51.0528"></polygon>
                <polygon id="Fill-53" fill="#873939" mask="url(#mask-2)" points="75.5553769 61.29582 75.4926633 61.29582 73.1801005 61.29582 73.1801005 73.47762 75.4926633 73.47762 75.5553769 73.47762 77.8685427 73.47762 77.8685427 61.29582"></polygon>
                <polygon id="Fill-54" fill="#873939" mask="url(#mask-2)" points="75.5553769 51.05304 75.4926633 51.05304 73.1801005 51.05304 73.1801005 59.48004 75.4926633 59.48004 75.5553769 59.48004 77.8685427 59.48004 77.8685427 51.05304"></polygon>
                <polygon id="Fill-55" fill="#5C2727" mask="url(#mask-2)" points="72.0609045 75.4578 72.3955779 75.4578 72.3955779 49.1718 72.0609045 49.1718"></polygon>
            </g>
        </g>
    </g>
</svg>