<?xml version="1.0" encoding="UTF-8"?>
<svg width="120px" height="120px" viewBox="0 0 120 120" version="1.1" xmlns="http://www.w3.org/2000/svg" xmlns:xlink="http://www.w3.org/1999/xlink">
    <!-- Generator: Sketch 51.1 (57501) - http://www.bohemiancoding.com/sketch -->
    <title>Cartoon number3</title>
    <desc>Created with Sketch.</desc>
    <defs></defs>
    <g id="Cartoon-number3" stroke="none" stroke-width="1" fill="none" fill-rule="evenodd">
        <g id="Page-1" transform="translate(21.000000, 0.000000)">
            <path d="M24.2136,118.3848 C23.9596,118.3848 23.7516,118.1848 23.7426,117.9298 C23.6766,115.7848 25.1246,109.9318 25.1866,109.6838 C25.2486,109.4328 25.4986,109.2808 25.7566,109.3408 C26.0086,109.4048 26.1616,109.6588 26.0996,109.9108 C26.0846,109.9708 24.6206,115.8858 24.6836,117.9008 C24.6926,118.1598 24.4876,118.3768 24.2286,118.3848 L24.2136,118.3848 Z" id="Fill-1" fill="#434040"></path>
            <path d="M54.2546,119.2061 C54.2486,119.2061 54.2416,119.2061 54.2336,119.2051 C53.9756,119.1941 53.7736,118.9751 53.7846,118.7161 C53.8706,116.7001 52.4686,110.7701 52.4546,110.7111 C52.3946,110.4581 52.5506,110.2041 52.8036,110.1441 C53.0516,110.0841 53.3086,110.2411 53.3686,110.4931 C53.4286,110.7421 54.8166,116.6111 54.7256,118.7561 C54.7136,119.0091 54.5056,119.2061 54.2546,119.2061" id="Fill-3" fill="#434040"></path>
            <path d="M22.1218,116.5566 C20.9878,116.5566 20.2318,116.9846 20.0448,117.7296 C19.9818,117.9786 20.0378,118.2306 20.2008,118.4406 C20.7378,119.1276 22.3048,119.1626 22.6128,119.1626 C23.3478,119.1626 24.6138,119.0406 24.8518,118.2246 C24.9298,117.9666 24.8738,117.6966 24.6988,117.4626 C24.2538,116.8686 23.0648,116.5566 22.1218,116.5566" id="Fill-5" fill="#434040"></path>
            <path d="M58.4265,118.5947 C58.2445,117.8337 57.4755,117.3987 56.3155,117.3987 C55.3835,117.3987 54.2105,117.7017 53.7715,118.2827 C53.5975,118.5127 53.5405,118.7817 53.6145,119.0367 C53.8575,119.9067 55.3005,119.9997 55.9095,119.9997 C56.3335,119.9997 57.7525,119.9487 58.2665,119.2987 C58.4285,119.0927 58.4855,118.8417 58.4265,118.5947" id="Fill-7" fill="#434040"></path>
            <path d="M69.2399,100.9551 C63.1259,107.7181 53.8329,112.2791 40.9379,112.5331 C12.9829,113.0881 -7.1251,85.0591 2.3929,74.5441 C12.3349,63.5491 16.4079,74.0731 31.1089,76.1331 L31.0709,76.3681 C31.0709,76.3681 27.2999,80.9301 30.3459,84.9561 C33.5159,89.1421 40.0819,84.4671 40.0819,84.4671 C40.0819,84.4671 37.1279,92.2171 40.9379,95.4251 C46.6089,100.2121 52.9679,92.3951 53.3439,91.9341 C53.0809,92.5651 49.4589,101.4531 55.4319,104.0681 C62.9189,107.3601 69.1929,100.9081 69.1929,100.9081 L69.2399,100.9551 Z" id="Fill-9" fill="#83087D"></path>
            <path d="M41.0603,75.2109 C41.0603,75.2109 39.6963,81.3069 45.0763,83.4879 C49.4303,85.2569 54.0113,79.7449 54.3223,79.3689 C54.2283,79.7639 52.3943,87.5899 58.3573,88.8499 C64.0763,90.0639 66.3893,82.5199 66.3893,82.5199 C66.3893,82.5199 67.3493,94.4829 75.7863,90.2979 C74.2623,94.1829 72.0993,97.8039 69.2403,100.9549 L69.1933,100.9079 C69.1933,100.9079 62.9183,107.3599 55.4323,104.0679 C49.4583,101.4529 53.0813,92.5649 53.3433,91.9349 C52.9673,92.3959 46.6093,100.2119 40.9383,95.4249 C37.1273,92.2169 40.0813,84.4669 40.0813,84.4669 C40.0813,84.4669 33.5163,89.1419 30.3463,84.9559 C27.2993,80.9299 31.0713,76.3679 31.0713,76.3679 L31.1093,76.1329 C31.8053,76.2369 32.5193,76.3129 33.2623,76.3679 C36.3483,76.6039 38.9063,76.0859 40.9853,75.0619 L41.0603,75.2109 Z" id="Fill-11" fill="#A02294"></path>
            <path d="M77.6667,66.2764 C78.0337,67.9784 78.3067,69.7754 78.4477,71.6744 C78.9177,77.9864 78.0807,84.4384 75.7857,90.2974 C67.3497,94.4834 66.3897,82.5194 66.3897,82.5194 C66.3897,82.5194 64.0757,90.0634 58.3567,88.8494 C52.3947,87.5894 54.2287,79.7634 54.3217,79.3694 C54.0117,79.7454 49.4307,85.2564 45.0757,83.4884 C39.6957,81.3064 41.0607,75.2114 41.0607,75.2114 L40.9847,75.0614 C43.5897,73.7814 45.4337,71.7134 46.5997,69.3144 C46.8447,70.1794 48.0017,73.6884 50.5597,74.1114 C53.4847,74.5994 55.3097,67.6594 55.3097,67.6594 C55.3097,67.6594 57.1347,74.4774 61.3957,74.3554 C65.4577,74.2434 66.2677,67.4144 66.2677,67.4144 C66.2677,67.4144 68.5807,74.2334 72.7297,73.9894 C76.9987,73.7444 77.4787,66.3234 77.4787,66.3234 L77.6667,66.2764 Z" id="Fill-13" fill="#C12786"></path>
            <path d="M73.4626,55.4033 C75.2216,58.4313 76.7546,62.0433 77.6666,66.2763 L77.4786,66.3233 C77.4786,66.3233 76.9986,73.7443 72.7296,73.9893 C68.5806,74.2333 66.2676,67.4143 66.2676,67.4143 C66.2676,67.4143 65.4576,74.2433 61.3956,74.3553 C57.1346,74.4773 55.3096,67.6593 55.3096,67.6593 C55.3096,67.6593 53.4846,74.5993 50.5596,74.1113 C48.0016,73.6883 46.8446,70.1793 46.5996,69.3143 C48.3966,65.6653 48.6226,61.2723 47.5686,57.8013 C47.9436,58.2623 50.2866,60.9333 52.8736,60.4723 C56.2876,59.8613 56.5226,54.5093 56.5226,54.5093 C56.5226,54.5093 59.2036,60.2283 62.8616,59.2593 C66.5116,58.2813 65.7876,52.9203 65.7876,52.9203 C65.7876,52.9203 70.6496,58.4033 73.3306,55.4783 L73.4626,55.4033 Z" id="Fill-15" fill="#D05E9A"></path>
            <path d="M73.4626,55.4033 L73.3306,55.4783 C70.6496,58.4033 65.7876,52.9203 65.7876,52.9203 C65.7876,52.9203 66.5116,58.2813 62.8616,59.2593 C59.2036,60.2283 56.5226,54.5093 56.5226,54.5093 C56.5226,54.5093 56.2876,59.8613 52.8736,60.4723 C50.2866,60.9333 47.9436,58.2623 47.5686,57.8013 C47.2866,56.8423 46.9006,55.9583 46.4216,55.1773 C40.3926,45.3103 27.0546,49.6943 26.6886,43.2983 C26.5466,40.7583 28.1836,39.2623 30.2996,38.1253 L30.4696,38.4353 C30.4696,38.4353 30.6186,43.7973 34.4846,44.7653 C38.3516,45.7243 40.9386,39.7713 40.9386,39.7713 C40.9386,39.7713 42.0196,45.8663 45.9326,46.1003 C49.8446,46.3363 51.7736,40.5053 51.7736,40.5053 C51.7736,40.5053 53.5786,46.9473 57.1246,47.1643 C60.6706,47.3713 62.3076,43.2983 62.3076,43.2983 C62.3076,43.2983 68.7026,47.1743 73.4626,55.4033" id="Fill-17" fill="#DB7FB3"></path>
            <path d="M70.2458,22.9541 C72.0898,35.0961 62.3078,43.2981 62.3078,43.2981 C62.3078,43.2981 60.6708,47.3711 57.1248,47.1641 C53.5788,46.9471 51.7728,40.5051 51.7728,40.5051 C51.7728,40.5051 49.8448,46.3361 45.9328,46.1001 C42.0188,45.8661 40.9378,39.7711 40.9378,39.7711 C40.9378,39.7711 38.3508,45.7251 34.4848,44.7661 C30.6188,43.7971 30.4698,38.4351 30.4698,38.4351 L30.2998,38.1251 C34.2408,35.9991 39.8468,35.0871 38.7838,30.8361 C39.5078,32.2841 41.0218,34.3721 43.6178,33.7991 C47.5118,32.9521 47.7578,28.0801 47.7578,28.0801 C47.7578,28.0801 49.4588,33.0741 53.1178,32.3411 C56.7678,31.6061 57.7458,25.8881 57.7458,25.8881 C57.7458,25.8881 60.3698,31.1551 64.3198,30.8831 C69.5588,30.5161 70.1708,22.9631 70.1708,22.9631 L70.2458,22.9541 Z" id="Fill-19" fill="#E5A1CF"></path>
            <path d="M70.2458,22.9541 L70.1708,22.9631 C70.1708,22.9631 69.5588,30.5161 64.3198,30.8831 C60.3698,31.1551 57.7458,25.8881 57.7458,25.8881 C57.7458,25.8881 56.7678,31.6061 53.1178,32.3411 C49.4588,33.0741 47.7578,28.0801 47.7578,28.0801 C47.7578,28.0801 47.5118,32.9521 43.6178,33.7991 C41.0218,34.3721 39.5078,32.2841 38.7838,30.8361 C38.7738,30.7881 38.7558,30.7411 38.7468,30.6941 C35.4548,19.0031 11.5258,30.1491 10.2468,18.4581 C8.8458,5.5911 24.8638,0.1911 35.8208,0.0041 C46.7878,-0.1749 65.5998,6.3991 69.6148,20.1031 C69.9068,21.0721 70.1138,22.0221 70.2458,22.9541" id="Fill-21" fill="#B997C1"></path>
            <path d="M26.0251,8.8643 C26.0251,8.8643 26.0471,8.9923 26.0891,9.2163 C26.1281,9.4413 26.2121,9.7583 26.3251,10.1203 C26.3841,10.3003 26.4581,10.4913 26.5531,10.6753 C26.6501,10.8563 26.7561,11.0443 26.8901,11.1973 C27.0151,11.3633 27.1781,11.4753 27.3451,11.5703 C27.5191,11.6413 27.7271,11.6893 27.9151,11.6853 C28.2331,11.6933 28.3571,11.6663 28.5421,11.5973 C28.7291,11.5363 28.8821,11.4123 29.0171,11.2703 C29.2901,10.9843 29.4751,10.5863 29.5781,10.2263 C29.6831,9.8663 29.7501,9.5463 29.7771,9.3213 C29.8061,9.0993 29.8231,8.9723 29.8231,8.9723 L29.8251,8.9583 C29.8421,8.8213 29.9671,8.7243 30.1041,8.7423 C30.2141,8.7573 30.2981,8.8423 30.3171,8.9463 C30.3181,8.9463 30.3441,9.0943 30.3571,9.3453 C30.3631,9.5953 30.3791,9.9593 30.2991,10.3953 C30.2151,10.8243 30.0841,11.3633 29.6771,11.8493 C29.4751,12.0843 29.2101,12.3103 28.8901,12.4333 C28.5861,12.5803 28.1561,12.6273 27.9311,12.6223 C27.2301,12.6433 26.5471,12.2493 26.1971,11.7463 C26.0001,11.5083 25.8871,11.2453 25.7951,11.0023 C25.7031,10.7563 25.6441,10.5223 25.5991,10.3073 C25.4411,9.4463 25.5291,8.8703 25.5291,8.8703 C25.5491,8.7333 25.6771,8.6393 25.8151,8.6603 C25.9231,8.6773 26.0051,8.7623 26.0251,8.8643" id="Fill-23" fill="#434040"></path>
            <path d="M40.7302,9.2305 C40.7302,9.2305 40.7542,9.3615 40.7952,9.5905 C40.8342,9.8215 40.9222,10.1465 41.0402,10.5165 C41.1012,10.7005 41.1752,10.8965 41.2772,11.0825 C41.3732,11.2735 41.4992,11.4475 41.6302,11.6085 C41.7692,11.7625 41.9272,11.8895 42.1132,11.9595 C42.2042,11.9975 42.2982,12.0295 42.4032,12.0345 C42.4382,12.0385 42.5412,12.0585 42.5182,12.0515 L42.7282,12.0465 C42.8912,12.0575 42.9712,12.0265 43.0432,12.0055 C43.1232,12.0045 43.2082,11.9415 43.2932,11.9065 C43.4592,11.8125 43.5962,11.6685 43.7062,11.4895 C43.9272,11.1335 44.0602,10.6945 44.1252,10.3105 C44.1902,9.9245 44.2312,9.5885 44.2382,9.3545 C44.2492,9.1225 44.2542,8.9895 44.2542,8.9895 L44.2552,8.9775 C44.2622,8.8395 44.3782,8.7335 44.5162,8.7395 C44.6292,8.7455 44.7212,8.8245 44.7472,8.9295 C44.7472,8.9295 44.7842,9.0775 44.8182,9.3305 C44.8472,9.5845 44.8902,9.9495 44.8612,10.3965 C44.8232,10.8395 44.7642,11.3825 44.4602,11.9395 C44.3072,12.2125 44.0772,12.4845 43.7702,12.6775 C43.6112,12.7625 43.4622,12.8635 43.2622,12.9015 C43.0642,12.9575 42.8742,12.9895 42.7542,12.9835 L42.5452,12.9885 C42.3822,12.9895 42.3502,12.9635 42.2472,12.9505 C42.0722,12.9275 41.9062,12.8705 41.7452,12.7945 C41.4192,12.6545 41.1542,12.4215 40.9552,12.1785 C40.5542,11.6835 40.4162,11.1435 40.3152,10.7095 C40.1452,9.8265 40.2342,9.2365 40.2342,9.2365 C40.2552,9.0995 40.3832,9.0045 40.5212,9.0255 C40.6292,9.0425 40.7102,9.1275 40.7302,9.2305" id="Fill-25" fill="#434040"></path>
            <path d="M38.8376,15.9922 C38.8376,15.9922 39.0216,21.0162 38.0156,22.6602 C37.0116,24.3042 33.8146,24.1212 32.3526,22.6602 C30.7576,21.0642 31.3476,15.8092 31.3476,15.8092 C31.3476,15.8092 37.0966,16.6042 38.8376,15.9922" id="Fill-27" fill="#E9A8C1"></path>
            <path d="M35.4314,15.9082 C35.4314,15.9082 35.4934,16.1962 35.5304,16.6262 C35.5744,17.0552 35.5734,17.6272 35.5604,18.1982 C35.5384,18.4832 35.5174,18.7682 35.4974,19.0362 C35.4744,19.3032 35.4274,19.5522 35.4004,19.7652 C35.3284,20.1912 35.2484,20.4752 35.2484,20.4752 C35.2124,20.6112 35.0734,20.6922 34.9374,20.6562 C34.8414,20.6312 34.7734,20.5512 34.7524,20.4602 C34.7524,20.4602 34.6964,20.1732 34.6584,19.7432 C34.6484,19.5282 34.6204,19.2772 34.6194,19.0102 C34.6204,18.7412 34.6214,18.4562 34.6234,18.1702 C34.6574,17.5992 34.7024,17.0292 34.7804,16.6032 C34.8504,16.1772 34.9354,15.8932 34.9354,15.8932 C34.9744,15.7582 35.1154,15.6792 35.2504,15.7172 C35.3434,15.7422 35.4104,15.8212 35.4314,15.9082" id="Fill-29" fill="#E279A4"></path>
            <path d="M22.5095,16.5625 C22.3815,16.5625 22.2545,16.5105 22.1615,16.4095 C21.9875,16.2165 22.0005,15.9185 22.1945,15.7445 C24.3855,13.7515 22.7285,11.5555 22.6565,11.4625 C22.4985,11.2575 22.5345,10.9625 22.7385,10.8035 C22.9445,10.6445 23.2385,10.6785 23.3985,10.8835 C24.1965,11.9005 25.1035,14.3715 22.8255,16.4405 C22.7365,16.5225 22.6225,16.5625 22.5095,16.5625" id="Fill-31" fill="#434040"></path>
            <path d="M37.6257,16.5195 C30.6347,16.5195 23.9867,14.1085 23.6047,13.9665 C23.3607,13.8765 23.2357,13.6065 23.3257,13.3635 C23.4157,13.1195 23.6887,12.9945 23.9297,13.0835 C24.0577,13.1305 36.7417,17.7295 45.2367,14.2775 C45.4777,14.1795 45.7517,14.2945 45.8497,14.5365 C45.9477,14.7765 45.8317,15.0505 45.5917,15.1495 C43.1167,16.1545 40.3447,16.5195 37.6257,16.5195" id="Fill-33" fill="#434040"></path>
            <path d="M46.8503,17.6094 C46.7153,17.6094 46.5813,17.5504 46.4893,17.4384 C45.0393,15.6934 45.0853,14.2354 45.3793,13.3204 C45.7023,12.3214 46.3823,11.7494 46.4113,11.7244 C46.6113,11.5584 46.9083,11.5874 47.0733,11.7874 C47.2383,11.9864 47.2113,12.2824 47.0123,12.4484 C46.9243,12.5224 45.0193,14.1934 47.2123,16.8384 C47.3783,17.0384 47.3513,17.3354 47.1513,17.5004 C47.0623,17.5734 46.9553,17.6094 46.8503,17.6094" id="Fill-35" fill="#434040"></path>
        </g>
    </g>
</svg>