<?xml version="1.0" encoding="UTF-8"?>
<svg width="120px" height="120px" viewBox="0 0 120 120" version="1.1" xmlns="http://www.w3.org/2000/svg" xmlns:xlink="http://www.w3.org/1999/xlink">
    <!-- Generator: Sketch 51.1 (57501) - http://www.bohemiancoding.com/sketch -->
    <title>Truck10</title>
    <desc>Created with Sketch.</desc>
    <defs></defs>
    <g id="Truck10" stroke="none" stroke-width="1" fill="none" fill-rule="evenodd">
        <g id="Group-63" transform="translate(59.500000, 60.500000) scale(-1, 1) translate(-59.500000, -60.500000) translate(7.000000, 25.000000)">
            <polygon id="Fill-145" fill="#522D2D" points="89.5588235 20.3492174 91.2558088 20.3492174 91.2558088 4.63043478 89.5588235 4.63043478"></polygon>
            <path d="M90.6427941,0.00917086498 C88.9936765,-0.0896117437 87.3970588,0.614214343 86.3594118,1.89838826 L60.2205882,34.2033883 L72.7711765,34.9550622 L94.3131618,8.32851869 C96.9304412,5.09493173 94.7949265,0.257670865 90.6427941,0.00917086498" id="Fill-146" fill="#656565"></path>
            <path d="M98.0792647,30.3370652 L61.9036765,30.3370652 L61.9036765,11.9202826 C61.9036765,9.5988913 60.0229412,7.7173913 57.7005882,7.7173913 L35.0761765,7.7173913 C31.2513971,7.7173913 27.9361765,10.3675435 27.0977206,14.0981304 L24.2333824,26.838 C23.7593382,28.9433043 22.0314706,30.5346304 19.8944118,30.8340652 L6.99948529,32.6353043 C3.87110294,33.0721087 1.54411765,35.7469565 1.54411765,38.9033696 L1.54411765,55.2904783 C1.54411765,57.3818913 3.24110294,59.0781739 5.33492647,59.0781739 L23.4474265,59.0781739 L46.1799265,59.0781739 L61.9036765,59.0781739 L98.0792647,59.0781739 C100.17,59.0781739 101.866985,57.3818913 101.866985,55.2904783 L101.866985,34.1247609 C101.866985,32.0318043 100.17,30.3370652 98.0792647,30.3370652" id="Fill-147" fill="#E9662C"></path>
            <path d="M30.8823529,31.3742826 L33.3127941,18.3812826 C33.8007353,15.7789783 36.0721324,13.8913043 38.7218382,13.8913043 L55.7951471,13.8913043 L55.7951471,31.3742826 L30.8823529,31.3742826 Z" id="Fill-148" fill="#753316"></path>
            <path d="M38.0563235,56.8355 C38.0563235,64.3568696 31.9570588,70.4536087 24.4325735,70.4536087 C16.9080882,70.4536087 10.8088235,64.3568696 10.8088235,56.8355 C10.8088235,49.3141304 16.9080882,43.2173913 24.4325735,43.2173913 C31.9570588,43.2173913 38.0563235,49.3141304 38.0563235,56.8355" id="Fill-149" fill="#522D2D"></path>
            <path d="M32.3878676,56.3168913 C32.3878676,60.1416304 29.2857353,63.2424783 25.4594118,63.2424783 C21.6330882,63.2424783 18.5294118,60.1416304 18.5294118,56.3168913 C18.5294118,52.4906087 21.6330882,49.3913043 25.4594118,49.3913043 C29.2857353,49.3913043 32.3878676,52.4906087 32.3878676,56.3168913" id="Fill-150" fill="#FFFFFF"></path>
            <path d="M27.3663971,56.122413 C27.3663971,57.2815652 26.4260294,58.223087 25.2648529,58.223087 C24.1036765,58.223087 23.1617647,57.2815652 23.1617647,56.122413 C23.1617647,54.9617174 24.1036765,54.0217391 25.2648529,54.0217391 C26.4260294,54.0217391 27.3663971,54.9617174 27.3663971,56.122413" id="Fill-151" fill="#522D2D"></path>
            <path d="M89.0122059,56.8355 C89.0122059,64.3568696 82.9129412,70.4536087 75.3884559,70.4536087 C67.8639706,70.4536087 61.7647059,64.3568696 61.7647059,56.8355 C61.7647059,49.3141304 67.8639706,43.2173913 75.3884559,43.2173913 C82.9129412,43.2173913 89.0122059,49.3141304 89.0122059,56.8355" id="Fill-152" fill="#522D2D"></path>
            <path d="M83.34375,56.3168913 C83.34375,60.1416304 80.2416176,63.2424783 76.4152941,63.2424783 C72.5889706,63.2424783 69.4852941,60.1416304 69.4852941,56.3168913 C69.4852941,52.4906087 72.5889706,49.3913043 76.4152941,49.3913043 C80.2416176,49.3913043 83.34375,52.4906087 83.34375,56.3168913" id="Fill-153" fill="#FFFFFF"></path>
            <path d="M78.3222794,56.122413 C78.3222794,57.2815652 77.3819118,58.223087 76.2207353,58.223087 C75.0595588,58.223087 74.1176471,57.2815652 74.1176471,56.122413 C74.1176471,54.9617174 75.0595588,54.0217391 76.2207353,54.0217391 C77.3819118,54.0217391 78.3222794,54.9617174 78.3222794,56.122413" id="Fill-154" fill="#522D2D"></path>
            <path d="M4.60610294,46.2132826 C3.76764706,46.2132826 3.08823529,45.5341522 3.08823529,44.6960435 L3.08823529,40.1041957 C3.08823529,39.2676304 3.76764706,38.5869565 4.60610294,38.5869565 C5.44455882,38.5869565 6.12397059,39.2676304 6.12397059,40.1041957 L6.12397059,44.6960435 C6.12397059,45.5341522 5.44455882,46.2132826 4.60610294,46.2132826" id="Fill-155" fill="#FFFFFF"></path>
            <path d="M1.90698529,50.9347826 L9.77117647,50.9347826 C10.8227206,50.9347826 11.6766176,51.7883261 11.6766176,52.8409783 L11.6766176,59.3390217 L5.21602941,59.3390217 C2.33470588,59.3390217 0,57.0052826 0,54.1251522 L0,52.8409783 C0,51.7883261 0.853897059,50.9347826 1.90698529,50.9347826" id="Fill-156" fill="#FFFFFF"></path>
            <path d="M102.416691,50.9347826 L94.5540441,50.9347826 C93.5009559,50.9347826 92.6470588,51.7883261 92.6470588,52.8409783 L92.6470588,59.3390217 L99.1076471,59.3390217 C101.990515,59.3390217 104.323676,57.0052826 104.323676,54.1251522 L104.323676,52.8409783 C104.323676,51.7883261 103.471324,50.9347826 102.416691,50.9347826" id="Fill-157" fill="#FFFFFF"></path>
            <polygon id="Fill-158" fill="#AE392E" points="97.2794118 45.6545435 102.521691 45.6545435 102.521691 37.0434783 97.2794118 37.0434783"></polygon>
            <polygon id="Fill-159" fill="#FFD800" points="97.2794118 39.5840435 102.521691 39.5840435 102.521691 37.0434783 97.2794118 37.0434783"></polygon>
            <polygon id="Fill-160" fill="#AF4D21" points="49.4117647 35.3178696 55.4847794 35.3178696 55.4847794 32.4130435 49.4117647 32.4130435"></polygon>
            <path d="M92.3042647,24.2804565 C91.8425735,25.3701522 90.7632353,26.1341739 89.5063235,26.1341739 C87.8294118,26.1341739 86.4705882,24.775913 86.4705882,23.0996957 C86.4705882,21.4234783 87.8294118,20.0652174 89.5063235,20.0652174" id="Stroke-162" stroke="#424242" stroke-width="1.36461538" stroke-linecap="round"></path>
        </g>
    </g>
</svg>