<?xml version="1.0" encoding="UTF-8"?>
<svg width="120px" height="120px" viewBox="0 0 120 120" version="1.1" xmlns="http://www.w3.org/2000/svg" xmlns:xlink="http://www.w3.org/1999/xlink">
    <!-- Generator: Sketch 51.1 (57501) - http://www.bohemiancoding.com/sketch -->
    <title>Cattle1</title>
    <desc>Created with Sketch.</desc>
    <defs>
        <polygon id="path-1" points="1.2306849 1.3276547 45.777427 1.3276547 45.777427 24.7517189 1.2306849 24.7517189"></polygon>
        <polygon id="path-3" points="1.34797715 0.00137509549 29.7440707 0.00137509549 29.7440707 45.0649509 1.34797715 45.0649509"></polygon>
        <polygon id="path-5" points="0 0.464600768 35.3112655 0.464600768 35.3112655 37.2504633 0 37.2504633"></polygon>
    </defs>
    <g id="Cattle1" stroke="none" stroke-width="1" fill="none" fill-rule="evenodd">
        <g id="Group" transform="translate(10.000000, 0.000000)">
            <path d="M36.8031548,74.2137204 C29.647374,79.7333537 16.226826,89.5501604 17.8455932,93.8652101 C19.2678945,97.6700993 23.8848397,98.356272 26.5440452,93.6204431 C29.2018671,88.8804889 36.1141411,83.1325898 41.1032644,82.6870588 L40.7532233,74.5189916 L36.8031548,74.2137204 Z" id="Fill-1" fill="#F7BB69"></path>
            <path d="M74.6132658,72.6291979 L74.7377863,72.0750344 C74.7377863,72.0750344 83.5234027,75.1057448 90.7469781,70.341039 C99.6668,64.4542552 103.066211,71.767013 98.8269781,75.0809931 C94.5891288,78.3977235 85.9584712,82.5175095 75.7768411,79.9337051 L72.1878822,80.0395875 L74.6132658,72.6291979 Z" id="Fill-3" fill="#F7BB69"></path>
            <path d="M75.736026,72.2020932 C76.6422589,71.8528189 82.6953411,72.2405959 82.6953411,72.2405959 L82.5957247,81.7273797 L74.3206425,81.3836058 L72.4099438,73.710573 L75.736026,72.2020932 Z" id="Fill-5" fill="#77C6BB"></path>
            <path d="M35.5708164,74.9858365 C34.6258438,75.223728 28.1936658,80.018686 28.1936658,80.018686 L33.3557342,87.2434377 L40.2209671,81.6550497 L37.4510767,75.3323606 L35.5708164,74.9858365 Z" id="Fill-7" fill="#77C6BB"></path>
            <path d="M31.7620096,103.470802 C34.7463521,105.834591 37.7818863,105.283178 39.8613795,104.328862 C41.4469411,103.600061 42.4832288,102.645745 42.5053658,102.622368 L41.7955986,101.877066 C41.5935986,102.064079 37.0555164,106.211367 32.5271192,102.766753 C33.7363521,97.7875325 26.8752699,99.3097632 24.4498863,97.5262643 C25.1112288,102.845134 28.4552973,105.155294 31.7620096,103.470802" id="Fill-9" fill="#9D5B48"></path>
            <g id="Group-13" transform="translate(34.589041, 95.247456)">
                <mask id="mask-2" fill="white">
                    <use xlink:href="#path-1"></use>
                </mask>
                <g id="Clip-12"></g>
                <path d="M41.9684055,1.3276547 C44.021611,9.22482811 50.1577068,21.7450726 40.4658575,22.9166539 C36.4217068,23.2851795 33.4664192,23.9149733 31.4187479,16.2515661 C30.7864603,13.413369 27.9819808,12.0877769 23.4549671,12.4081742 C18.9348712,12.7326967 15.5755836,11.7550038 14.7288438,20.8883881 C14.8132411,25.4468296 1.24188493,26.9388083 1.23081644,19.9491979 C1.21836438,12.9595875 2.09277534,4.82864782 2.65865205,3.00802139 C2.96165205,2.03857907 41.9684055,1.3276547 41.9684055,1.3276547" id="Fill-11" fill="#F7BB69" mask="url(#mask-2)"></path>
            </g>
            <path d="M75.3428178,72.0234683 C75.3428178,72.0234683 79.0106397,96.8796944 78.9110233,98.9272116 C78.814174,100.977479 50.635174,107.19016 34.6453521,100.808342 C33.578626,97.6923759 36.384489,80.241039 37.8233932,74.5990222 C39.2664479,68.9638808 75.3428178,72.0234683 75.3428178,72.0234683" id="Fill-14" fill="#77C6BB"></path>
            <g id="Group-18" transform="translate(70.561644, 0.365867)">
                <mask id="mask-4" fill="white">
                    <use xlink:href="#path-3"></use>
                </mask>
                <g id="Clip-17"></g>
                <path d="M7.44964932,29.1707257 C13.2910466,29.3838655 18.6260603,24.6769137 15.2557041,18.517861 C11.8839644,12.3629335 5.91112877,5.90823529 15.9267315,0.422979374 C24.5975123,-1.85005348 11.1382247,5.51633308 21.4512932,11.6190069 C29.3541973,16.2957066 35.9537863,27.6319939 19.8269918,41.241314 C14.1156493,46.7361956 0.39210137,46.9094576 1.40071781,37.7815737 L7.44964932,29.1707257 Z" id="Fill-16" fill="#5A2B25" mask="url(#mask-4)"></path>
            </g>
            <g id="Group-21" transform="translate(0.000000, 22.367395)">
                <mask id="mask-6" fill="white">
                    <use xlink:href="#path-5"></use>
                </mask>
                <g id="Clip-20"></g>
                <path d="M23.9876384,20.2365928 C19.1811452,23.536822 11.2242822,22.8987777 10.7289671,15.9077922 C10.2364192,8.91130634 9.6982137,-0.495721925 1.26955616,0.543850267 C-3.13570411,1.67142857 5.53646027,3.50993125 3.05435068,10.1791444 C-0.131991781,18.7528648 -0.865279452,34.1951872 20.0984466,37.0333843 C27.8892822,38.6009931 39.5471726,31.4051184 33.7514329,24.2532468 L23.9876384,20.2365928 Z" id="Fill-19" fill="#5A2B25" mask="url(#mask-6)"></path>
            </g>
            <path d="M72.6040575,42.967838 C77.0701945,41.7838808 91.5547014,43.7612681 89.6661397,51.8908327 C87.7761945,60.0190222 75.0059205,54.0112299 70.5868247,48.9398778 L72.6040575,42.967838 Z" id="Fill-22" fill="#F7BB69"></path>
            <path d="M89.0108849,53.5617112 C85.7899534,59.0607181 74.6536658,53.6084645 70.5873781,48.9400153 L71.4230493,46.4662185 L74.8141589,45.0663713 C85.0455973,46.4070894 88.1281726,51.3395569 89.0108849,53.5617112" id="Fill-24" fill="#9D5B48"></path>
            <path d="M34.2521438,48.1392972 C29.6379658,48.2451795 16.2603082,54.112712 20.3127603,61.3195875 C24.3638288,68.527838 34.9812808,59.2995722 37.8355685,53.262903 L34.2521438,48.1392972 Z" id="Fill-26" fill="#F7BB69"></path>
            <path d="M21.4001014,62.7294729 C26.0073616,67.0665241 35.2080466,58.8187013 37.8354301,53.2619404 L36.3508685,51.138793 L32.7079507,50.7441406 C23.2457726,54.8350497 21.6408411,60.3684339 21.4001014,62.7294729" id="Fill-28" fill="#9D5B48"></path>
            <path d="M32.3078247,49.0215584 C35.1676466,52.4675477 37.1834959,58.9717494 35.4415918,64.2314897 C33.6983041,69.4857296 32.3147425,87.1598319 60.697126,80.2389763 C80.4626877,75.1181207 83.5424959,69.8652559 76.7243041,59.6001681 C73.6804685,54.8492131 75.465263,49.3873338 75.7931671,45.603071 L33.4008384,28.2012376 L32.3078247,49.0215584 Z" id="Fill-30" fill="#F7BB69"></path>
            <path d="M41.2699836,54.9032544 C40.8756685,57.0525286 42.3090384,59.1137968 44.4701616,59.5043239 C46.6354356,59.8989763 48.708011,58.4743774 49.102326,56.3196028 C49.4952575,54.1730787 48.0618877,52.1131856 45.8979973,51.7199083 C43.7354904,51.3280061 41.6642986,52.752605 41.2699836,54.9032544" id="Fill-32" fill="#403629"></path>
            <path d="M52.7005548,15.535783 C53.2456781,10.8164553 47.643637,9.64212376 46.5603082,15.5454087 C45.9100342,10.2884186 39.6687877,9.96114591 40.9043082,16.4474714 C34.1815822,11.6978915 27.781226,14.8716119 33.0249247,20.6387624 C26.3464726,18.3066005 21.8941712,22.3150038 27.6497877,27.0494576 C22.4475959,25.4653476 19.5753219,28.7985791 23.6263904,30.4954469 C14.8822808,33.2456379 17.4045137,45.9033919 22.5804178,42.3487701 C18.700911,45.0150802 21.6548151,50.0465546 24.2697466,48.1104202 C22.8059384,51.6994194 25.7861301,56.5768831 27.9776918,53.4375401 C28.8991438,56.3348663 34.1705137,52.6166081 34.6174041,46.8769595 C35.0048014,53.5681742 44.7630616,52.628984 46.1438562,53.0401375 C48.8694726,55.783453 55.038774,55.6143163 52.8679658,52.4928495 C57.6827603,57.0526662 63.3401438,57.9244767 60.7542671,52.6372345 C68.168774,57.7195875 70.5747877,54.1402139 68.3306507,50.959618 C77.148089,59.9128648 82.7044726,52.9246295 78.5966781,49.6078992 C82.3738014,50.1318105 88.1529384,43.0404431 83.0808014,39.8722231 C86.3792123,39.5064477 87.1457055,32.0506799 81.2794041,29.7061421 C82.7418288,27.8827655 83.6383767,25.6372345 79.1763904,25.3099618 C81.3513493,23.1345607 74.8306233,19.0601528 70.6923904,19.5978151 C73.2395274,17.1680214 67.5254178,13.086738 62.7189247,16.3855921 C64.5701301,11.5865088 57.0670753,8.45954163 52.7005548,15.535783" id="Fill-34" fill="#B3907A"></path>
            <path d="M57.0120096,61.672712 C38.3463795,65.6659893 38.1540644,73.4421543 39.8876671,79.6630863 C43.7242836,81.9828724 50.1536945,82.8093048 60.6964342,80.2392513 C69.1333932,78.0528495 74.5223658,75.8444461 77.4057082,73.2290145 C78.5291603,63.2471963 72.6932973,58.3161039 57.0120096,61.672712" id="Fill-36" fill="#FEFEFE"></path>
            <path d="M48.8768055,73.8511077 C48.9695041,75.9907563 47.2953945,77.8017571 45.1439562,77.8938885 C42.9897507,77.9860199 41.1662164,76.3235294 41.0735178,74.1825057 C40.9835863,72.041482 42.6549288,70.2304813 44.8105178,70.139725 C46.9633397,70.0434683 48.7841068,71.7059587 48.8768055,73.8511077" id="Fill-38" fill="#F8D2E2"></path>
            <path d="M74.9835068,68.0055768 C75.0734384,70.1479756 73.4020959,71.9589763 71.2478904,72.0469824 C69.0923014,72.1391138 67.2715342,70.4793736 67.1816027,68.3369748 C67.0875205,66.1959511 68.758863,64.3849503 70.9144521,64.2955691 C73.0700411,64.2048128 74.8894247,65.8645531 74.9835068,68.0055768" id="Fill-40" fill="#F8D2E2"></path>
            <path d="M51.3359479,65.8879297 C51.3359479,65.8879297 59.4270164,74.0078686 64.241811,63.3838808" id="Stroke-42" stroke="#403629" stroke-width="0.793430099" stroke-linecap="round"></path>
            <path d="M58.5009986,68.8086325 C58.5009986,68.8086325 58.2118342,71.1682964 59.6327521,73.0233002" id="Stroke-44" stroke="#403629" stroke-width="0.793430099"></path>
            <path d="M52.3518973,65.5548816 C52.3726507,66.238304 51.8330616,66.8089687 51.1468151,66.8309702 C50.4550342,66.8474714 49.8836233,66.3166845 49.8601027,65.633262 C49.8407329,64.9512147 50.3789384,64.3764248 51.0651849,64.3571734 C51.7541986,64.3324217 52.3283767,64.870084 52.3518973,65.5548816" id="Fill-46" fill="#403629"></path>
            <path d="M65.5943808,63.2800611 C65.6165178,63.9607334 65.0755452,64.531398 64.3892986,64.5533995 C63.7016685,64.574026 63.1261068,64.0391138 63.1039699,63.3556914 C63.0846,62.6722689 63.6214219,62.1002292 64.3090521,62.0809778 C64.9980658,62.0576012 65.5736274,62.5938885 65.5943808,63.2800611" id="Fill-48" fill="#403629"></path>
            <path d="M54.6556658,72.2302827 C57.1668301,73.6590069 61.4793918,73.170848 63.5104603,69.1211917" id="Stroke-50" stroke="#403629" stroke-width="0.672421696" stroke-linecap="round" stroke-linejoin="round"></path>
            <path d="M56.3310205,72.9702215 C59.4052945,74.6863407 62.6608151,74.7179679 62.8240753,70.341039 C62.8240753,70.341039 59.6875411,73.8420321 56.3310205,72.9702215" id="Fill-52" fill="#403629"></path>
        </g>
    </g>
</svg>