<?xml version="1.0" encoding="UTF-8"?>
<svg width="120px" height="120px" viewBox="0 0 120 120" version="1.1" xmlns="http://www.w3.org/2000/svg" xmlns:xlink="http://www.w3.org/1999/xlink">
    <!-- Generator: Sketch 51.1 (57501) - http://www.bohemiancoding.com/sketch -->
    <title>Tamer</title>
    <desc>Created with Sketch.</desc>
    <defs>
        <polygon id="path-1" points="0.199373684 0.299053333 13.3734789 0.299053333 13.3734789 5.86666667 0.199373684 5.86666667"></polygon>
    </defs>
    <g id="Tamer" stroke="none" stroke-width="1" fill="none" fill-rule="evenodd">
        <g id="Group-128" transform="translate(5.000000, 1.000000)">
            <path d="M31.6421053,108.249377 C31.5949474,109.077574 30.3865263,109.679541 29.5573333,109.618557 L29.2350877,109.600852 C28.4117895,109.547738 27.2957193,108.79823 27.346807,107.968066 C27.7122807,102.353639 28.9207018,100.187738 29.2861754,94.5752787 C29.3431579,93.7431475 30.0524912,93.1156066 30.8895439,93.1647869 L31.2039298,93.1903607 C32.029193,93.2434754 32.6599298,93.9575738 32.6049123,94.7877377 C32.2414035,100.402164 32.0075789,102.632984 31.6421053,108.249377" id="Fill-352" fill="#D28D15"></path>
            <path d="M57.7231719,107.709574 C57.744786,108.539738 56.5992421,109.247934 55.772014,109.271541 L55.4478035,109.283344 C54.6225404,109.306951 53.4455579,108.663672 53.4219789,107.831541 C53.2588912,102.205311 53.4337684,99.976459 53.2746105,94.3502295 C53.2510316,93.5220328 53.9053474,92.831541 54.7345404,92.8079344 L55.0607158,92.7961311 C55.884014,92.7705574 56.579593,93.4236721 56.5992421,94.2577705 C56.7564351,99.8820328 57.5620491,102.089246 57.7231719,107.709574" id="Fill-353" fill="#D28D15"></path>
            <path d="M63.7407158,85.8127213 C63.7407158,93.4730492 57.4156632,103.067148 47.1470316,103.067148 C36.8823298,103.067148 26.9477333,98.1196066 26.5744,85.8127213 C26.4486456,81.7327213 27.0990316,78.4120656 31.5849263,78.148459 C35.4970667,77.9163279 44.6339088,81.7504262 49.4224,81.868459 C52.0711018,81.9314098 54.0871018,80.7943607 57.0737684,80.0999344 C60.129207,79.3838689 63.7407158,80.3537049 63.7407158,85.8127213" id="Fill-354" fill="#F7AB0E"></path>
            <path d="M37.3201123,113.444 C37.3201123,114.278098 36.1509895,114.960721 35.3198316,114.960721 L35.0054456,114.960721 C34.1703579,114.960721 33.0130246,114.278098 33.0130246,113.444 C33.0130246,107.821705 33.5042526,105.602689 33.5042526,99.976459 C33.5042526,99.1462951 34.1703579,98.4735082 35.0054456,98.4735082 L35.3198316,98.4735082 C36.1509895,98.4735082 36.8229895,99.1462951 36.8229895,99.976459 C36.8229895,105.602689 37.3201123,107.821705 37.3201123,113.444" id="Fill-355" fill="#F7AB0E"></path>
            <path d="M62.6853614,112.448984 C62.6853614,113.281115 61.5240982,113.959803 60.6949053,113.959803 L60.3706947,113.959803 C59.5454316,113.959803 58.3802386,113.281115 58.3802386,112.448984 C58.3802386,106.824721 58.8714667,99.0345574 58.8714667,93.4083279 C58.8714667,92.5761967 59.5454316,91.8857049 60.3706947,91.8857049 L60.6949053,91.8857049 C61.5240982,91.8857049 62.1980632,92.5761967 62.1980632,93.4083279 C62.1980632,99.0345574 62.6853614,106.824721 62.6853614,112.448984" id="Fill-356" fill="#F7AB0E"></path>
            <path d="M31.8647298,53.4286557 C31.8647298,57.8686557 29.8526596,61.4666885 27.359186,61.4666885 C24.8676772,61.4666885 22.8536421,57.8686557 22.8536421,53.4286557 C22.8536421,48.9945574 24.8676772,45.3965246 27.359186,45.3965246 C29.8526596,45.3965246 31.8647298,48.9945574 31.8647298,53.4286557" id="Fill-357" fill="#B75F22"></path>
            <path d="M25.3137123,53.8455082 C26.4455018,58.1340328 25.2567298,62.1727213 22.6532211,62.8632131 C20.0516772,63.5497705 17.0217825,60.628459 15.8919579,56.3419016 C14.7601684,52.0474754 15.9489404,48.0087869 18.5563789,47.3202623 C21.1579228,46.6356721 24.1858526,49.5530492 25.3137123,53.8455082" id="Fill-358" fill="#B75F22"></path>
            <path d="M28.9326877,53.1636721 C27.1819509,57.2417049 27.7714246,61.4121967 30.2452491,62.4725246 C32.7171088,63.5387541 36.139986,61.0935082 37.8907228,57.0174426 C39.6394947,52.9394098 39.0480561,48.7708852 36.5781614,47.7105574 C34.1023719,46.6423607 30.6794947,49.0876066 28.9326877,53.1636721" id="Fill-359" fill="#B75F22"></path>
            <path d="M32.9161544,57.5956066 C29.5679439,60.5090492 28.2848561,64.5162623 30.0493474,66.5542951 C31.8177684,68.5883934 35.9558737,67.8821639 39.3099789,64.974623 C42.6562246,62.0611803 43.9373474,58.0500328 42.1728561,56.0159344 C40.4103298,53.9818361 36.2643649,54.6880656 32.9161544,57.5956066" id="Fill-360" fill="#B75F22"></path>
            <path d="M34.067593,64.6384262 C29.0256281,66.4836721 25.8464,70.4692459 26.9644351,73.5361311 C28.0805053,76.6030164 33.0772772,77.5944918 38.1231719,75.7433443 C43.1749614,73.8961311 46.3522246,69.916459 45.2282947,66.8476066 C44.1102596,63.7767869 39.1095579,62.7912131 34.067593,64.6384262" id="Fill-361" fill="#B75F22"></path>
            <path d="M35.7407158,71.9098361 C30.6064,70.3262295 25.6705404,71.577377 24.7077333,74.6993443 C23.7468912,77.8252459 27.1363649,81.6318033 32.2706807,83.2114754 C37.4010667,84.7931148 42.3408561,83.5439344 43.3036632,80.4219672 C44.2546807,77.2960656 40.8750316,73.4895082 35.7407158,71.9098361" id="Fill-362" fill="#B75F22"></path>
            <path d="M34.5281684,79.125377 C31.2683789,74.8447213 26.5290105,72.9817705 23.9313965,74.9627541 C21.3337825,76.9398033 21.8702035,82.0112787 25.1260632,86.2899672 C28.377993,90.5666885 33.1173614,92.435541 35.7169404,90.4545574 C38.3086596,88.4794754 37.7781333,83.4020984 34.5281684,79.125377" id="Fill-363" fill="#B75F22"></path>
            <path d="M28.7446456,84.2393443 C28.3870316,78.8727869 25.4671719,74.6983607 22.2113123,74.9108197 C18.9554526,75.1291803 16.6014877,79.6518033 16.9630316,85.0183607 C17.3167158,90.3809836 20.2385404,94.557377 23.4983298,94.3409836 C26.7482947,94.1285246 29.1022596,89.5980328 28.7446456,84.2393443" id="Fill-364" fill="#B75F22"></path>
            <path d="M20.2287158,86.0971803 C23.0306807,81.5096393 23.0405053,76.4086557 20.2601544,74.703082 C17.4739088,73.0073443 12.944786,75.340459 10.1428211,79.928 C7.34478596,84.515541 7.32710175,89.6165246 10.1133474,91.3201311 C12.899593,93.0257049 17.4188912,90.6847213 20.2287158,86.0971803" id="Fill-365" fill="#B75F22"></path>
            <path d="M15.2704561,83.1827541 C20.3792281,81.5145574 23.7018947,77.6450492 22.6860351,74.5447213 C21.6760702,71.4345574 16.7146667,70.2739016 11.6137544,71.9381639 C6.50301754,73.6063607 3.19017544,77.4778361 4.1922807,80.5761967 C5.20617544,83.6863607 10.165614,84.852918 15.2704561,83.1827541" id="Fill-366" fill="#B75F22"></path>
            <path d="M12.4995368,77.0314754 C17.7989053,77.8931148 22.5205895,75.9770492 23.0393263,72.7567213 C23.5639579,69.532459 19.6950456,66.2196721 14.3878175,65.3560656 C9.08844912,64.4963934 4.36872982,66.4085246 3.84213333,69.6308197 C3.32143158,72.8570492 7.19820351,76.1659016 12.4995368,77.0314754" id="Fill-367" fill="#B75F22"></path>
            <path d="M13.4167579,68.5189508 C18.1246877,71.1156721 23.2098807,70.9051803 24.7837754,68.0487869 C26.3616,65.1923934 23.8327579,60.7661639 19.1307228,58.163541 C14.4326175,55.5668197 9.34152982,55.7812459 7.76370526,58.6356721 C6.18391579,61.496 8.71472281,65.9222295 13.4167579,68.5189508" id="Fill-368" fill="#B75F22"></path>
            <path d="M24.6440702,55.7283279 C25.2256842,57.3020984 24.8110877,58.9132459 23.7028772,59.3184918 C22.6005614,59.7316066 21.2329825,58.7814426 20.6513684,57.2076721 C20.0677895,55.6339016 20.4843509,54.0286557 21.5905965,53.6175082 C22.6929123,53.2102951 24.0604912,54.1545574 24.6440702,55.7283279" id="Fill-369" fill="#F7AB0E"></path>
            <path d="M23.9838596,55.9683279 C24.3709474,57.0247213 24.0899649,58.1047213 23.3570526,58.3801311 C22.6182456,58.6535738 21.6986667,58.0220984 21.3115789,56.9676721 C20.9146667,55.9112787 21.197614,54.8312787 21.9324912,54.5558689 C22.677193,54.2824262 23.5967719,54.9139016 23.9838596,55.9683279" id="Fill-370" fill="#F4D2B2"></path>
            <path d="M25.8336281,57.8261639 C25.5408561,57.0314098 24.737207,56.5946885 24.043593,56.8543607 C23.5130667,57.0491148 23.1986807,57.5802623 23.2065404,58.1743607 C22.7939088,57.6215738 22.1081544,57.3756721 21.4990316,57.596 C20.7307509,57.8792787 20.3672421,58.7940328 20.6875228,59.6379672 C20.9920842,60.4878033 21.8625404,60.9422295 22.6268912,60.6569836 L22.632786,60.6530492 L22.6426105,60.6628852 L25.2913123,59.6714098 L25.2873825,59.6556721 C25.8591719,59.3251803 26.104786,58.5520656 25.8336281,57.8261639" id="Fill-371" fill="#B75F22"></path>
            <path d="M32.2791298,56.8116721 C31.6542877,58.3697049 32.029586,59.9906885 33.1122526,60.4333115 C34.2086737,60.8739672 35.5978667,59.967082 36.2305684,58.4090492 C36.8613053,56.8529836 36.4820772,55.232 35.3935158,54.7913443 C34.3010246,54.354623 32.9059368,55.2575738 32.2791298,56.8116721" id="Fill-372" fill="#F7AB0E"></path>
            <path d="M32.9316772,57.0788197 C32.5131509,58.1194754 32.7587649,59.2073443 33.4897123,59.500459 C34.2186947,59.8014426 35.1559579,59.195541 35.5764491,58.152918 C36.0008702,57.100459 35.7532912,56.0165246 35.0203789,55.7234098 C34.2815719,55.4283279 33.3482386,56.0361967 32.9316772,57.0788197" id="Fill-373" fill="#F4D2B2"></path>
            <path d="M31.0280702,58.8788197 C31.346386,58.0919344 32.1578947,57.6788197 32.8554386,57.9561967 C33.3722105,58.1686557 33.6689123,58.7116066 33.6551579,59.3017705 C34.0756491,58.7647213 34.7614035,58.5286557 35.3744561,58.7765246 C36.1289825,59.0834098 36.4669474,60.0020984 36.1289825,60.8401311 C35.7910175,61.6722623 34.9048421,62.103082 34.1503158,61.8001311 L34.1503158,61.7942295 L34.1444211,61.8001311 L31.5153684,60.7398033 L31.525193,60.7220984 C30.9632281,60.3739016 30.741193,59.5948852 31.0280702,58.8788197" id="Fill-374" fill="#B75F22"></path>
            <path d="M10.2467649,73.3543607 C7.18739649,77.4048525 7.64718596,88.2599344 19.8610807,86.6841967 C36.2445193,84.5792787 32.3697123,63.3117377 31.4972912,60.1563279 C30.6052211,56.8946885 25.8678175,56.0507541 23.8203789,60.1563279 C21.7670456,64.2540328 19.2106947,67.2048525 18.0572912,67.8461639 C16.9058526,68.483541 12.1920281,70.7930492 10.2467649,73.3543607" id="Fill-375" fill="#F7AB0E"></path>
            <path d="M26.3863579,82.168459 C26.3863579,76.1192787 21.7452351,71.2150164 16.0155509,71.2150164 C14.1253053,71.2150164 12.3509895,71.7481311 10.8262175,72.6805902 C10.6159719,72.9048525 10.4234105,73.1291148 10.2465684,73.3553443 C7.1872,77.4038689 7.64698947,88.260918 19.8608842,86.6851803 C22.4309895,86.3566557 24.502007,85.5540328 26.1623579,84.4228852 C26.3116912,83.6950164 26.3863579,82.9415738 26.3863579,82.168459" id="Fill-376" fill="#F4D2B2"></path>
            <path d="M26.1849544,63.4415738 C26.0926035,64.1832131 25.5738667,64.7261639 25.0256561,64.6553443 C24.4774456,64.5904262 24.1139368,63.9314098 24.2082526,63.1878033 C24.3006035,62.4422295 24.8213053,61.9032131 25.3734456,61.9720656 C25.9157614,62.0448525 26.2851649,62.6979672 26.1849544,63.4415738" id="Fill-377" fill="#FFFFFF"></path>
            <path d="M25.7607298,63.7641967 C25.7017825,64.2245246 25.3873965,64.5589508 25.0455018,64.5196066 C24.703607,64.4704262 24.4776421,64.0632131 24.5365895,63.6068197 C24.5955368,63.148459 24.9217123,62.8100984 25.2557474,62.8573115 C25.5976421,62.898623 25.8196772,63.3058361 25.7607298,63.7641967" id="Fill-378" fill="#AD6922"></path>
            <path d="M23.8207719,61.4666885 C24.872,60.9866885 26.3574737,60.7939016 26.3574737,60.7939016 C26.5677193,60.4968525 26.4832281,59.9381639 26.2631579,59.8791475 C25.5636491,59.6843934 23.8207719,61.4666885 23.8207719,61.4666885" id="Fill-379" fill="#AD6922"></path>
            <path d="M30.2529123,63.9410492 C30.1566316,64.6807213 29.632,65.2256393 29.0837895,65.1567869 C28.5414737,65.0879344 28.1720702,64.4269508 28.2644211,63.681377 C28.3646316,62.9456393 28.8833684,62.3987541 29.4315789,62.4676066 C29.9797895,62.5384262 30.3432982,63.1994098 30.2529123,63.9410492" id="Fill-380" fill="#FFFFFF"></path>
            <path d="M29.8269193,64.2599344 C29.766007,64.7202623 29.4457263,65.0566557 29.1097263,65.0153443 C28.7658667,64.9740328 28.5379368,64.5589508 28.5949193,64.108459 C28.6519018,63.6461639 28.9780772,63.3117377 29.3219368,63.3530492 C29.6559719,63.3943607 29.8858667,63.8015738 29.8269193,64.2599344" id="Fill-381" fill="#AD6922"></path>
            <path d="M31.066386,62.373377 C30.1605614,61.643541 28.7752982,61.0828852 28.7752982,61.0828852 C28.6495439,60.7405902 28.8676491,60.2212459 29.0975439,60.2153443 C29.8265263,60.2074754 31.066386,62.373377 31.066386,62.373377" id="Fill-382" fill="#AD6922"></path>
            <path d="M16.2816,85.784 C20.1780211,85.784 20.1780211,81.916459 20.1780211,81.916459 C20.1780211,81.916459 16.2816,84.519082 12.3930386,81.916459 C12.3930386,81.916459 12.3930386,85.784 16.2816,85.784" id="Fill-383" fill="#AD6922"></path>
            <path d="M13.9655579,72.8358033 C14.8438737,71.6062951 19.5184,71.919082 19.9565754,73.3610492 C20.2866807,74.4430164 17.6104702,76.4141639 16.4786807,76.276459 C15.419593,76.1544918 13.3485754,73.701377 13.9655579,72.8358033" id="Fill-384" fill="#AD6922"></path>
            <path d="M12.7797333,76.7143607 C9.77931228,75.258623 6.92625965,74.7963279 5.06548772,74.6743607 C3.05145263,74.538623 1.73103158,74.751082 1.71924211,74.751082 L1.70745263,74.6625574 C1.70745263,74.6625574 3.05145263,74.4500984 5.07531228,74.5858361 C6.93804912,74.7137049 9.80092632,75.1700984 12.8190316,76.6396066 L12.7797333,76.7143607 Z" id="Fill-385" fill="#774414"></path>
            <path d="M11.5939088,77.2907541 C8.45790877,76.1438689 5.58324211,75.9727213 3.72247018,76.0297705 C1.70843509,76.0966557 0.415522807,76.4369836 0.403733333,76.4369836 L0.376224561,76.3543607 C0.389978947,76.348459 1.69075088,76.0081311 3.72247018,75.9412459 C5.58717193,75.8841967 8.48148772,76.0553443 11.6253474,77.2081311 L11.5939088,77.2907541 Z" id="Fill-386" fill="#774414"></path>
            <path d="M11.9623298,78.3300328 C8.77524211,77.334623 5.8946807,77.2972459 4.04176842,77.4467541 C2.02773333,77.6100328 0.756435088,78.0113443 0.740715789,78.0172459 L0.713207018,77.934623 C0.723031579,77.9287213 2.01004912,77.5215082 4.02801404,77.3641311 C5.8946807,77.2087213 8.78506667,77.2460984 11.9859088,78.2474098 L11.9623298,78.3300328 Z" id="Fill-387" fill="#774414"></path>
            <path d="M20.7928421,78.4126557 L20.7555088,78.3359344 C23.7716491,76.8742951 26.6345263,76.4139672 28.4952982,76.2900328 C30.5191579,76.1542951 31.8513684,76.3608525 31.8651228,76.3647869 L31.8513684,76.449377 C31.8415439,76.449377 30.5132632,76.2388852 28.501193,76.3785574 C26.642386,76.5005246 23.7932632,76.956918 20.7928421,78.4126557" id="Fill-388" fill="#774414"></path>
            <path d="M21.9825965,78.9967213 L21.9452632,78.9140984 C25.0930526,77.757377 27.9834386,77.5862295 29.8520702,77.6452459 C31.8778947,77.7121311 33.1806316,78.0544262 33.1963509,78.0544262 L33.170807,78.1409836 C33.1609825,78.135082 31.8641404,77.7947541 29.8520702,77.7278689 C27.9912982,77.6747541 25.1107368,77.84 21.9825965,78.9967213" id="Fill-389" fill="#774414"></path>
            <path d="M21.6102456,80.0340328 L21.578807,79.9514098 C24.7835789,78.9481311 27.6739649,78.9146885 29.5425965,79.0602623 C31.5605614,79.2274754 32.8475789,79.6287869 32.8632982,79.6327213 L32.8279298,79.7173115 C32.8181053,79.7114098 31.546807,79.3100984 29.530807,79.1487869 C27.6700351,79.0032131 24.7953684,79.0307541 21.6102456,80.0340328" id="Fill-390" fill="#774414"></path>
            <path d="M68.4150456,97.2874754 C67.9041684,97.2874754 67.4738526,97.1104262 67.1555368,96.7622295 C66.4815719,96.0363279 66.3086596,94.5746885 66.6466246,92.428459 C66.7330807,91.8500984 66.8981333,91.1969836 67.0651509,90.4946885 C67.4738526,88.8520656 67.935607,86.9812459 67.5170807,85.8068197 C66.9688702,84.268459 65.0845193,83.9674754 63.7012211,83.7432131 C63.2944842,83.6782951 62.9427649,83.6271475 62.6676772,83.5445246 L62.8700632,82.8776393 C63.0920982,82.9405902 63.4222035,82.9937049 63.8132211,83.0605902 C64.5284491,83.1707541 65.426414,83.3123934 66.2320281,83.6605902 C67.2164491,84.0796066 67.8668351,84.720918 68.1694316,85.5727213 C68.6508351,86.9458361 68.1694316,88.920918 67.7469754,90.6658361 C67.5760281,91.3445246 67.4168702,91.9878033 67.3323789,92.5366557 C67.039607,94.4094426 67.1555368,95.7432131 67.6624842,96.2900984 C67.8825544,96.5202623 68.1753263,96.6225574 68.5702737,96.5871475 L68.6233263,97.2815738 C68.5604491,97.2874754 68.4877474,97.2874754 68.4150456,97.2874754" id="Fill-391" fill="#F7AB0E"></path>
            <path d="M72.4926316,97.9368525 C68.7907368,98.7709508 68.6001404,98.1394754 68.3584561,97.8443934 C68.2228772,97.6712787 68.181614,96.732918 68.4213333,96.492918 C69.7712281,95.1237377 72.4926316,97.9368525 72.4926316,97.9368525" id="Fill-392" fill="#AD6922"></path>
            <path d="M30.8669474,58.5158689 L30.8669474,58.4647213 C30.8669474,57.8509508 30.4405614,57.3552131 29.9159298,57.3552131 C29.8078596,57.3552131 29.7076491,57.3788197 29.6152982,57.4122623 C29.4659649,57.0168525 29.1319298,56.7493115 28.7369825,56.7493115 C28.4127719,56.7493115 28.1298246,56.9283279 27.9549474,57.2194754 C27.7820351,56.9283279 27.493193,56.7493115 27.1709474,56.7493115 C26.7445614,56.7493115 26.3869474,57.0660328 26.2572632,57.5066885 C26.1138246,57.4122623 25.9507368,57.3552131 25.7738947,57.3552131 C25.2433684,57.3552131 24.8209123,57.8509508 24.8209123,58.4647213 C24.8209123,59.0765246 25.2433684,59.5702951 25.7738947,59.5702951 C26.0509474,59.5702951 26.3004912,59.4384918 26.4694737,59.2260328 C26.6227368,59.6096393 26.9528421,59.8791475 27.3399298,59.8791475 C27.6012632,59.8791475 27.8350877,59.7611148 28.0119298,59.5663607 C28.0708772,60.1093115 28.4717193,60.5342295 28.9511579,60.5342295 C29.2950175,60.5342295 29.6015439,60.3198033 29.7646316,60.0109508 C29.912,60.4181639 30.2538947,60.705377 30.6527719,60.705377 C31.1813333,60.705377 31.6116491,60.2076721 31.6116491,59.5958689 C31.6116491,59.070623 31.2952982,58.6299672 30.8669474,58.5158689" id="Fill-393" fill="#B75F22"></path>
            <path d="M33.877586,115.132656 C30.3427088,120.038885 13.7588491,119.623803 9.70523509,115.132656 L11.3793404,98.8342951 L32.2113404,98.8342951 L33.877586,115.132656 Z" id="Fill-394" fill="#6D1319"></path>
            <path d="M32.1869754,98.8398033 C32.1869754,99.8548852 27.5320982,100.679148 21.7808,100.679148 C16.0295018,100.679148 11.3667649,99.8548852 11.3667649,98.8398033 C11.3667649,97.8247213 16.0295018,97.0043934 21.7808,97.0043934 C27.5320982,97.0043934 32.1869754,97.8247213 32.1869754,98.8398033" id="Fill-395" fill="#E63744"></path>
            <path d="M13.4743298,117.344 L13.2444351,99.8948197 L9.70562807,115.132852 C10.5230316,116.041705 11.8493474,116.777443 13.4743298,117.344" id="Fill-396" fill="#477747"></path>
            <path d="M13.4743298,117.344 C15.217207,117.951869 17.3157333,118.35318 19.5046456,118.540066 L17.3884351,100.506623 L13.4743298,117.344 Z" id="Fill-397" fill="#477747"></path>
            <path d="M26.5533754,118.369705 L23.1265684,100.678557 L19.5052351,118.540852 C21.8631298,118.739541 24.3173053,118.686426 26.5533754,118.369705" id="Fill-398" fill="#477747"></path>
            <path d="M28.0231298,100.309508 L26.5533754,118.370492 C28.5890246,118.079344 30.4399719,117.561967 31.8409544,116.806557 L28.0231298,100.309508 Z" id="Fill-399" fill="#477747"></path>
            <path d="M31.8417404,116.805967 C32.7121965,116.341705 33.4077754,115.784984 33.8773895,115.131869 L30.8946526,99.7305574 L31.8417404,116.805967 Z" id="Fill-400" fill="#477747"></path>
            <path d="M67.2292211,112.850492 C68.7579228,113.792787 69.8779228,115.791475 68.5653614,117.36918 C67.5691509,118.474754 66.1151158,117.634754 65.0069053,117.166557 C63.7866947,116.582295 62.3857123,116.186885 61.2775018,115.429508 C60.5622737,114.925902 59.7232561,114.329836 59.2418526,113.580328 C59.0846596,113.350164 59.0158877,113.074754 59.0768,112.850492 L67.2292211,112.850492 Z" id="Fill-401" fill="#1B1B1B"></path>
            <path d="M49.7982877,112.850492 C48.2676211,113.792787 47.1535158,115.791475 48.4621474,117.36918 C49.456393,118.474754 50.9104281,117.634754 52.0186386,117.166557 C53.2447439,116.582295 54.6496561,116.186885 55.7539368,115.429508 C56.4672,114.925902 57.3081825,114.329836 57.7915509,113.580328 C57.944814,113.350164 58.0175158,113.074754 57.9566035,112.850492 L49.7982877,112.850492 Z" id="Fill-402" fill="#1B1B1B"></path>
            <path d="M45.0510596,98.0367869 C45.0510596,104.524656 57.4653754,108.964656 57.4653754,108.964656 L58.3456561,100.078754 L59.5246035,108.964656 C59.5246035,108.964656 72.0725333,103.755475 72.0725333,98.0367869 L69.0721123,87.9351475 L48.4837614,87.9351475 L45.0510596,98.0367869 Z" id="Fill-403" fill="#6D1319"></path>
            <polygon id="Fill-404" fill="#333433" points="69.0713263 90.6020984 67.4050807 112.904393 58.9598877 112.904393 58.639607 96.7771803 58.3900632 96.7771803 58.0756772 112.904393 49.6285193 112.904393 47.954414 90.6020984"></polygon>
            <path d="M31.3925614,53.7878689 C32.4143158,53.355082 33.6305965,53.752459 34.6209123,54.7085246 C35.0689123,54.0278689 35.6053333,53.6521311 36.0945965,53.7465574 C37.0181053,53.9295082 37.4484211,55.6940984 37.0574035,57.6790164 C36.9198596,58.4462295 36.6703158,59.1308197 36.3696842,59.6718033 C36.3284211,59.927541 36.2694737,60.1616393 36.1928421,60.38 L40.8634386,65.8783607 L50.7724912,62.3196721 C50.7724912,62.3196721 49.0885614,64.9990164 48.6739649,65.9688525 C48.3674386,66.684918 47.7799298,68.9354098 47.7799298,68.9354098 C47.7799298,68.9354098 40.5451228,71.8783607 38.4917895,71.1347541 C35.9511579,70.2160656 33.0430877,61.9380328 33.0430877,61.9380328 C31.9466667,61.5485246 30.8934737,60.4960656 30.2804211,59.06 C29.3313684,56.8114754 29.8265263,54.4488525 31.3925614,53.7878689" id="Fill-405" fill="#FDDFBB"></path>
            <path d="M28.1881825,60.9709508 C29.2354807,59.3834098 52.4332351,35.8732459 63.3306386,34.6535738 C75.1279719,33.3316066 101.345796,63.7348852 108.749586,54.4496393 C115.860604,45.5440656 83.3118316,13.4411148 74.2987789,20.4070164 C59.4263579,31.8916066 106.914358,78.2666885 95.6632702,93.3257049 C94.0736561,95.4424262 85.3907088,90.7486557 85.3907088,90.7486557 C85.3907088,90.7486557 94.2033404,94.8247213 95.4097965,92.9735738 C105.694147,77.2968525 58.8742175,31.1893115 73.6385684,19.6496393 C83.5554807,11.9027541 117.139761,44.7552131 109.627902,54.8607869 C102.4992,64.4509508 75.3559018,34.988 63.5173053,36.5578361 C52.9166035,37.9683279 30.0371649,63.0876721 30.0371649,63.0876721 C28.4239719,63.4220984 28.1881825,60.9709508 28.1881825,60.9709508" id="Fill-406" fill="#683A15"></path>
            <path d="M37.1301053,57.4130492 C36.845193,59.3192787 35.904,60.7573115 35.0315789,60.623541 C34.1493333,60.4917377 33.6679298,58.8471475 33.9489123,56.9428852 C34.2318596,55.0366557 35.1769825,53.6005902 36.0592281,53.7343607 C36.933614,53.8641967 37.4169825,55.5166557 37.1301053,57.4130492" id="Fill-407" fill="#FDDFBB"></path>
            <path d="M53.2791298,63.0937705 C53.2791298,63.0937705 52.2848842,61.6832787 50.0507789,63.1763934 C49.7442526,61.0832787 50.4241123,58.722623 58.5215158,57.3554098 L58.4979368,62.7809836 L53.2791298,63.0937705 Z" id="Fill-408" fill="#343434"></path>
            <path d="M64.2645614,63.0937705 C64.2645614,63.0937705 65.2607719,61.6832787 67.4909474,63.1763934 C67.8072982,61.0832787 67.1215439,58.722623 59.0280702,57.3554098 L59.0398596,62.7809836 L64.2645614,63.0937705 Z" id="Fill-409" fill="#343434"></path>
            <path d="M67.2504421,62.3330492 C65.4721965,61.1822295 60.1237053,61.0051803 60.1237053,61.0051803 L58.6244772,61.0543607 L58.5026526,61.0543607 L57.0132491,61.0051803 C57.0132491,61.0051803 51.6451088,61.1940328 49.8668632,62.3546885 L46.1099509,86.1599344 L70.9071439,86.156 C70.9071439,86.156 67.9696,62.7264918 67.2504421,62.3330492" id="Fill-410" fill="#FFFFFF"></path>
            <path d="M58.6749754,66.1598689 C58.3959579,66.1598689 58.1680281,66.3880656 58.1680281,66.6713443 C58.1680281,66.9487213 58.3959579,67.1808525 58.6749754,67.1808525 C58.9598877,67.1808525 59.1897825,66.9487213 59.1897825,66.6713443 C59.1897825,66.3880656 58.9598877,66.1598689 58.6749754,66.1598689 M58.6749754,67.2398689 C58.370414,67.2398689 58.1149754,66.9841311 58.1149754,66.6713443 C58.1149754,66.3585574 58.370414,66.1067541 58.6749754,66.1067541 C58.9952561,66.1067541 59.2408702,66.3585574 59.2408702,66.6713443 C59.2408702,66.9841311 58.9952561,67.2398689 58.6749754,67.2398689" id="Fill-411" fill="#D0D0D0"></path>
            <path d="M58.6749754,69.4988197 C58.3959579,69.4988197 58.1680281,69.7250492 58.1680281,70.0102951 C58.1680281,70.2876721 58.3959579,70.5178361 58.6749754,70.5178361 C58.9598877,70.5178361 59.1897825,70.2876721 59.1897825,70.0102951 C59.1897825,69.7250492 58.9598877,69.4988197 58.6749754,69.4988197 M58.6749754,70.5768525 C58.370414,70.5768525 58.1149754,70.323082 58.1149754,70.0102951 C58.1149754,69.6975082 58.370414,69.4457049 58.6749754,69.4457049 C58.9952561,69.4457049 59.2408702,69.6975082 59.2408702,70.0102951 C59.2408702,70.323082 58.9952561,70.5768525 58.6749754,70.5768525" id="Fill-412" fill="#D0D0D0"></path>
            <path d="M67.2504421,62.3330492 L58.5812491,75.0805902 L49.8668632,62.3546885 C49.8668632,62.3546885 46.2750035,69.5625574 46.7780211,69.3382951 C44.7856,77.9350164 45.0567579,90.6058361 45.0567579,90.6058361 L55.6004772,95.276 L58.6008982,90.6058361 L61.5954246,95.276 L72.0723368,90.6058361 C72.0723368,90.6058361 72.2452491,80.4668197 70.836407,72.0923934 C70.9012491,72.1848525 67.9696,62.7264918 67.2504421,62.3330492" id="Fill-413" fill="#F7B90B"></path>
            <path d="M59.2506947,82.5239344 C59.2506947,82.8780328 58.9677474,83.1613115 58.6160281,83.1613115 C58.2623439,83.1613115 57.9813614,82.8780328 57.9813614,82.5239344 C57.9813614,82.1678689 58.2623439,81.8885246 58.6160281,81.8885246 C58.9677474,81.8885246 59.2506947,82.1678689 59.2506947,82.5239344" id="Fill-414" fill="#CD960B"></path>
            <path d="M59.2506947,87.3034754 C59.2506947,87.6615082 58.9677474,87.9487213 58.6160281,87.9487213 C58.2623439,87.9487213 57.9813614,87.6615082 57.9813614,87.3034754 C57.9813614,86.949377 58.2623439,86.6680656 58.6160281,86.6680656 C58.9677474,86.6680656 59.2506947,86.949377 59.2506947,87.3034754" id="Fill-415" fill="#CD960B"></path>
            <path d="M59.2506947,77.7422295 C59.2506947,78.0943607 58.9677474,78.3776393 58.6160281,78.3776393 C58.2623439,78.3776393 57.9813614,78.0943607 57.9813614,77.7422295 C57.9813614,77.3881311 58.2623439,77.0989508 58.6160281,77.0989508 C58.9677474,77.0989508 59.2506947,77.3881311 59.2506947,77.7422295" id="Fill-416" fill="#CD960B"></path>
            <path d="M34.3265684,32.4770492 C44.4930246,39.1813115 76.4326737,39.1813115 82.8834807,32.4770492 C82.8834807,32.4770492 86.6521825,39.1813115 72.2336561,47.0540984 C66.0363228,50.4396721 50.3700772,50.0777049 43.9880421,47.0540984 C30.3790596,40.6036066 34.3265684,32.4770492 34.3265684,32.4770492" id="Fill-417" fill="#1B1B1B"></path>
            <path d="M77.6334316,43.5215738 C77.7827649,42.5655082 77.8515368,41.5956721 77.8515368,40.6041967 C77.8515368,29.8868197 69.1744842,21.1956721 58.4755368,21.1956721 C47.7687298,21.1956721 39.0916772,29.8868197 39.0916772,40.6041967 C39.0916772,41.5445246 39.1545544,42.4769836 39.2842386,43.3878033 C38.1740632,43.9996066 37.4097123,45.1622295 37.4097123,46.4861639 C37.4097123,48.4514098 39.073993,50.0487869 41.1175018,50.0487869 C41.2511158,50.0487869 41.3945544,50.0428852 41.5242386,50.0251803 C44.8331509,55.9819016 51.1837474,60.0107541 58.4755368,60.0107541 C65.7535719,60.0107541 72.0963088,55.9878033 75.4091509,50.0428852 C75.4641684,50.0487869 75.5231158,50.0487869 75.5800982,50.0487869 C77.6295018,50.0487869 79.2859228,48.4514098 79.2859228,46.4861639 C79.2859228,45.2507541 78.631607,44.1569836 77.6334316,43.5215738" id="Fill-418" fill="#FDDFBB"></path>
            <g id="Page-1" transform="translate(48.000000, 41.000000)">
                <path d="M4,3 C4,4.65687852 3.10453816,6 1.99983098,6 C0.895123806,6 0,4.65687852 0,3 C0,1.34312148 0.895123806,0 1.99983098,0 C3.10453816,0 4,1.34312148 4,3" id="Fill-5" fill="#343434"></path>
                <path d="M22,3 C22,4.65687852 21.1048762,6 20.000169,6 C18.8951238,6 18,4.65687852 18,3 C18,1.34312148 18.8951238,0 20.000169,0 C21.1048762,0 22,1.34312148 22,3" id="Fill-7" fill="#343434"></path>
                <path d="M11.0197368,6.0692 C11.8586316,5.95528889 13.9802632,7.82626667 13.9802632,7.82626667 C13.9802632,7.82626667 14.0825789,7.41168889 13.6396842,6.5884 C13.1626842,5.70253333 10.9903684,5 10.9903684,5 C10.9903684,5 9.30263158,5.44782222 8.50305263,6.60404444 C8.207,6.89395556 8,7.90253333 8,7.90253333 C8,7.90253333 9.89473684,6.22173333 11.0197368,6.0692 Z" id="Fill-9" fill="#EEAC6C"></path>
                <g id="Group-13" transform="translate(4.000000, 9.000000)">
                    <mask id="mask-2" fill="white">
                        <use xlink:href="#path-1"></use>
                    </mask>
                    <g id="Clip-12"></g>
                    <path d="M0.199373684,0.696031111 C0.199373684,0.696031111 7.09763684,3.90412 13.3734789,0.299053333 C13.3734789,0.299053333 11.9822684,5.76825333 7.42305789,5.86016444 C3.30768947,5.98238667 2.43942632,4.36807556 1.94632105,3.90412 C1.45274211,3.44114222 0.524794737,2.13238667 0.199373684,0.696031111" id="Fill-11" fill="#EEAC6C" mask="url(#mask-2)"></path>
                </g>
            </g>
            <path d="M78.6235509,38.0714098 C78.6058667,37.0563279 78.5370947,35.8248525 78.3956211,34.5107541 C75.7921123,25.9730492 67.8577965,19.7566557 58.4753404,19.7566557 C50.3130947,19.7566557 43.2433404,24.4700984 39.8283228,31.3219016 C38.8871298,34.0169836 38.3074807,36.6628852 38.2622877,37.860918 C38.0972351,42.0117377 41.1173053,48.2202623 41.1173053,48.2202623 C40.7537965,41.3920656 40.8284632,41.4078033 42.4789895,40.2274754 C44.5185684,38.7520656 48.8276211,36.0078033 50.4899368,34.1153443 C50.8043228,33.7573115 51.4684632,32.4589508 51.4684632,32.4589508 C51.4684632,32.4589508 51.4016561,33.4740328 51.9734456,33.9304262 C55.4022175,36.6353443 65.517586,33.6196066 69.3550596,35.7146885 C72.4930246,37.4241967 76.3088842,48.2202623 76.3088842,48.2202623 C77.8572351,45.2851803 78.6549895,40.353377 78.6235509,38.0714098" id="Fill-427" fill="#AD6921"></path>
            <path d="M56.9613754,62.2311475 L60.128814,62.2311475 C61.0307088,62.2311475 61.7675509,60.2855738 61.7675509,59.3944262 L55.3226386,59.3944262 C55.3226386,60.2855738 56.0614456,62.2311475 56.9613754,62.2311475" id="Fill-428" fill="#FDDFBB"></path>
            <path d="M56.0710737,61.6126557 L61.7437754,59.7438033 L61.7536,59.732 C60.6905825,59.9149508 59.5941614,60.0113443 58.4761263,60.0113443 C57.4013193,60.0113443 56.3599158,59.9188852 55.3361965,59.7575738 C55.4010386,60.3103607 55.7075649,61.0598689 56.0710737,61.6126557" id="Fill-429" fill="#EEAC6C"></path>
            <path d="M77.7446456,83.0771148 C77.7525053,83.088918 77.7525053,83.0948197 77.7525053,83.0948197 C77.7525053,83.0948197 77.7525053,83.088918 77.7446456,83.0771148 M77.7446456,83.0397377 L77.7446456,83.0771148 C77.7446456,83.0299016 77.7348211,82.8921967 77.7092772,82.6935082 L73.8914526,82.6935082 C73.928786,82.9472787 73.9543298,83.0948197 73.9543298,83.0948197 C73.9189614,83.1518689 73.8914526,83.2108852 73.8580491,83.2718689 C73.4965053,83.6318689 73.1369263,84.1138361 72.8362947,84.6744918 C72.0562246,86.1558033 71.9717333,87.6508852 72.6594526,88.0128525 C73.0249263,88.2076066 73.5299088,88.036459 74.0486456,87.611541 C74.600786,88.6030164 75.473207,89.208918 76.3790316,89.1144918 C77.7701895,88.968918 78.7290667,87.2220328 78.5188211,85.2253115 C78.4304,84.381377 78.1474526,83.6259672 77.7446456,83.0397377" id="Fill-430" fill="#FDDFBB"></path>
            <path d="M53.8222316,61.2821639 C52.3328281,61.476918 50.699986,61.809377 49.8668632,62.3542951 L40.887214,65.8716721 L36.1812491,60.3988852 L32.1237053,62.3916721 C32.1237053,62.3916721 35.870793,70.2624918 38.4074947,71.1831475 C40.3763368,71.8972459 46.2750035,69.5621639 46.7780211,69.3379016 C44.7856,77.934623 45.0567579,90.6054426 45.0567579,90.6054426 L45.0567579,98.0434754 C45.0567579,98.0434754 51.7885474,94.2231475 53.2209684,92.1438033 C57.6164772,85.8074098 56.8030035,79.0303607 53.8222316,61.2821639" id="Fill-431" fill="#E63744"></path>
            <path d="M73.5884632,82.7062951 L77.8169544,82.7121967 C77.8169544,82.7121967 76.4513404,70.724 73.3389193,66.7443279 C71.9634807,64.9797377 67.9707789,62.7272787 67.2496561,62.3338361 C66.4853053,61.8380984 65.0528842,61.5233443 63.6676211,61.3246557 C61.6201825,80.4656393 60.1032702,85.6767869 64.2787088,92.1449836 C65.6050246,94.2046557 72.0735158,98.0446557 72.0735158,98.0446557 L72.0735158,90.606623 C72.0735158,90.606623 72.2444632,80.4656393 70.837586,72.0912131 C70.9024281,72.1836721 70.9712,72.2859672 71.0517614,72.3921967 C72.4920421,74.4380984 73.5884632,82.7062951 73.5884632,82.7062951" id="Fill-432" fill="#E63744"></path>
            <path d="M71.5850386,63.9851148 C71.5850386,63.9851148 72.1312842,66.1313443 71.5968281,66.4303607 C70.3039158,67.1503607 68.6946526,64.6126557 66.2129684,63.9457705 L67.1561263,63.0152787 L71.5850386,63.9851148 Z" id="Fill-433" fill="#CD960B"></path>
            <path d="M46.0144561,63.2647213 C46.0144561,63.2647213 45.4701754,65.4109508 46.0007018,65.7040656 C47.2955789,66.4299672 48.9127018,63.8883279 51.3904561,63.2234098 L50.4472982,62.2909508 L46.0144561,63.2647213 Z" id="Fill-434" fill="#CD960B"></path>
            <path d="M66.624814,61.3340984 L70.725586,62.8213115 C71.3130947,63.0337705 71.7512702,63.5845902 71.621586,63.9465574 L71.6156912,63.9544262 C71.4801123,64.3203279 70.837586,64.367541 70.2461474,64.1531148 L66.4263579,62.7681967 L66.624814,61.3340984 Z" id="Fill-435" fill="#F6B90C"></path>
            <path d="M51.6653474,61.0822951 L47.0144,62.2311475 C46.4052772,62.3786885 45.9179789,62.8822951 46.0142596,63.2580328 L46.0142596,63.2639344 C46.1046456,63.6416393 46.7393123,63.7537705 47.3562947,63.6062295 L51.808786,62.5104918 L51.6653474,61.0822951 Z" id="Fill-436" fill="#F6B90C"></path>
            <path d="M51.4676772,59.7203934 C50.0057825,60.8161311 49.8859228,62.0358033 50.0509754,63.1767869 L53.2793263,65.3741639 L54.1301333,63.1826885 C54.1301333,63.1826885 54.5879579,61.3335082 55.1518877,61.1348197 L51.4676772,59.7203934 Z" id="Fill-437" fill="#343434"></path>
            <path d="M66.0740491,59.7203934 C67.532014,60.8161311 67.6636632,62.0358033 67.4907509,63.1767869 L64.2643649,65.3741639 L63.5098386,62.8521967 C63.5098386,62.8521967 62.9871719,61.6462951 61.955593,61.128918 L66.0740491,59.7203934 Z" id="Fill-438" fill="#343434"></path>
            <path d="M55.6586386,84.5295082 C55.1516912,89.032459 52.9333053,92.7760656 45.0481123,97.2219672 L45.0481123,98.0442623 C45.0481123,98.0442623 51.7818667,94.2239344 53.2221474,92.1445902 C57.4801123,85.995082 56.8513404,79.4383607 54.0867088,62.8508197 L54.080814,62.8508197 L48.2548491,65.3 C48.2548491,65.3 56.2952702,78.7557377 55.6586386,84.5295082" id="Fill-439" fill="#CD960B"></path>
            <path d="M62.1980632,84.5295082 C61.6675368,79.9636066 68.6193965,65.3059016 68.6193965,65.3059016 L63.5106246,62.8508197 L63.5047298,62.8508197 C61.5378526,80.7465574 60.2193965,85.8534426 64.2926596,92.1445902 C65.6130807,94.2042623 72.1051509,98.0442623 72.1051509,98.0442623 L72.1051509,97.2868852 L72.0874667,97.2868852 C64.553993,92.7760656 62.7168,88.9380328 62.1980632,84.5295082" id="Fill-440" fill="#CD960B"></path>
            <path d="M67.9564351,65.5931148 L63.4764351,63.1813115 L63.4705404,63.1813115 C62.5038035,71.9157377 61.7001544,77.5695082 61.6294175,81.8147541 C63.1974175,75.7891803 67.9564351,65.5931148 67.9564351,65.5931148" id="Fill-441" fill="#343434"></path>
            <path d="M49.1459368,65.5874098 C49.1459368,65.5874098 54.9640421,75.9133115 56.2844632,81.9231475 C56.3787789,77.4300328 55.5417263,71.6149508 54.1407439,63.1815082 L54.1309193,63.1815082 L49.1459368,65.5874098 Z" id="Fill-442" fill="#343434"></path>
            <path d="M54.8642246,84.8041311 C54.8642246,85.1582295 54.5773474,85.4415082 54.2216982,85.4415082 C53.868014,85.4415082 53.5850667,85.1582295 53.5850667,84.8041311 C53.5850667,84.4500328 53.868014,84.1628197 54.2216982,84.1628197 C54.5773474,84.1628197 54.8642246,84.4500328 54.8642246,84.8041311" id="Fill-443" fill="#F7B90B"></path>
            <path d="M63.9173614,84.8041311 C63.9173614,85.1582295 63.6363789,85.4415082 63.2807298,85.4415082 C62.9270456,85.4415082 62.6480281,85.1582295 62.6480281,84.8041311 C62.6480281,84.4500328 62.9270456,84.1628197 63.2807298,84.1628197 C63.6363789,84.1628197 63.9173614,84.4500328 63.9173614,84.8041311" id="Fill-444" fill="#F7B90B"></path>
            <path d="M73.5884632,82.7062951 L77.8169544,82.7121967 C77.8169544,82.7121967 77.4986386,79.9030164 76.816814,76.5607213 C75.6260772,76.2853115 73.4469895,76.5862951 72.5274105,76.7318689 C73.1738667,79.6099016 73.5884632,82.7062951 73.5884632,82.7062951" id="Fill-445" fill="#F7B90B"></path>
            <path d="M73.5884632,82.7062951 L77.8169544,82.7121967 C77.8169544,82.7121967 77.5163228,80.0997377 76.885586,76.9148197 C75.7459368,76.6079344 73.5747088,76.899082 72.5981474,77.056459 C73.2131649,79.8341639 73.5884632,82.7062951 73.5884632,82.7062951" id="Fill-446" fill="#343434"></path>
            <path d="M35.7523088,68.6361967 C37.2613614,68.1857049 39.8963088,65.9666885 40.519186,65.435541 L36.1826246,60.3994754 L32.1231158,62.3922623 C32.1231158,62.3922623 33.8561684,66.0237377 35.7523088,68.6361967" id="Fill-447" fill="#F7B90B"></path>
            <path d="M35.5566035,68.3653115 C37.0224281,67.9344918 39.6121825,65.7705574 40.2979368,65.1862951 L36.1814456,60.3980984 L32.1239018,62.3928525 C32.1239018,62.3928525 33.7370947,65.776459 35.5566035,68.3653115" id="Fill-448" fill="#343434"></path>
            <path d="M57.4738246,60.467541 L55.2475789,60.2629508 C55.1414737,61.0045902 55.021614,62.1731148 55.3654737,62.5154098 C55.5501754,62.7121311 55.8232982,62.9462295 56.1887719,63.0052459 C56.5306667,63.0622951 56.9786667,62.9993443 57.4738246,63.0288525 L57.4738246,60.467541 Z" id="Fill-449" fill="#FFFFFF"></path>
            <path d="M59.5249965,63.1474754 C60.2068211,63.1081311 60.8277333,63.033377 61.2678737,62.8976393 C61.3838035,62.8622295 61.4722246,62.7796066 61.5567158,62.7107541 L61.6549614,62.6143607 C61.6922947,62.5848525 61.7276632,62.5494426 61.7492772,62.516 C62.0558035,62.1422295 61.955593,60.9992787 61.8573474,60.2674754 L59.5249965,60.476 L59.5249965,63.1474754 Z" id="Fill-450" fill="#FFFFFF"></path>
            <path d="M59.6421053,60.5501639 C60.029193,60.5265574 61.0195088,60.4616393 61.8801404,60.3691803 C61.866386,60.2983607 61.8565614,60.2314754 61.8447719,60.1685246 C60.7581754,60.2904918 59.4652632,60.3986885 59.4652632,60.3986885 L59.4711579,62.2262295 L57.5769825,62.2262295 L57.5769825,60.3927869 C57.5769825,60.3927869 56.333193,60.2983607 55.2623158,60.1803279 C55.2524912,60.237377 55.2485614,60.3042623 55.2426667,60.3731148 C56.0718596,60.4616393 57.0287719,60.5265574 57.4158596,60.5501639 L57.4158596,62.3934426 L59.6421053,62.3934426 L59.6421053,60.5501639 Z" id="Fill-451" fill="#CD960B"></path>
            <path d="M58.5810526,63.0054426 C58.5810526,63.0054426 55.973614,66.294623 54.8477193,65.9306885 C53.8220351,65.6041311 53.7630877,62.279541 54.6217544,61.6303607 C55.4607719,60.9988852 58.5810526,63.0054426 58.5810526,63.0054426" id="Fill-452" fill="#E63744"></path>
            <path d="M58.5751579,63.0054426 C58.5751579,63.0054426 61.1845614,66.294623 62.3202807,65.9306885 C63.3420351,65.6041311 63.4009825,62.279541 62.5403509,61.6303607 C61.7013333,60.9988852 58.5751579,63.0054426 58.5751579,63.0054426" id="Fill-453" fill="#E63744"></path>
            <path d="M59.0280702,63.1763934 C59.0280702,63.5245902 58.8394386,63.8 58.5938246,63.8 C58.36,63.8 58.157614,63.5245902 58.157614,63.1763934 C58.157614,62.8340984 58.36,62.5567213 58.5938246,62.5567213 C58.8394386,62.5567213 59.0280702,62.8340984 59.0280702,63.1763934" id="Fill-454" fill="#E63744"></path>
            <path d="M38.8608,34.4981639 C56.7316772,38.560459 78.3771509,34.5119344 78.3771509,34.5119344 L81.1555368,5.3932459 C74.1761684,-1.60216393 43.0833965,-1.60216393 36.0981333,5.3932459 L38.8608,34.4981639 Z" id="Fill-455" fill="#343434"></path>
            <path d="M38.5558456,31.2687869 L38.860407,34.4989508 C56.7312842,38.5612459 78.3787228,34.5107541 78.3787228,34.5107541 L78.7225825,30.9068197 C67.2023018,27.6353443 47.7791439,27.6766557 38.5558456,31.2687869" id="Fill-456" fill="#E63744"></path>
            <path d="M82.8832842,32.4770492 C81.9538807,31.8219672 79.7020912,33.6908197 78.6056702,33.98 C68.9834947,36.5452459 48.4973193,36.5393443 38.5607579,33.98 C37.4721965,33.7045902 35.2420211,31.8278689 34.3263719,32.4770492 C33.9039158,32.7760656 33.4893193,34.9813115 34.3263719,36.204918 C34.951214,37.1295082 37.4053895,37.6193443 38.5194947,37.7078689 C48.4835649,38.5262295 68.5708632,38.6029508 78.5310035,37.7078689 C79.6785123,37.6055738 82.0698105,37.0232787 82.8832842,36.204918 C83.7183719,35.3491803 83.2959158,32.7760656 82.8832842,32.4770492" id="Fill-457" fill="#343434"></path>
        </g>
    </g>
</svg>