<?xml version="1.0" encoding="UTF-8"?>
<svg width="120px" height="120px" viewBox="0 0 120 120" version="1.1" xmlns="http://www.w3.org/2000/svg" xmlns:xlink="http://www.w3.org/1999/xlink">
    <!-- Generator: Sketch 51.1 (57501) - http://www.bohemiancoding.com/sketch -->
    <title>Facility13</title>
    <desc>Created with Sketch.</desc>
    <defs>
        <polygon id="path-1" points="0 115.885714 118.992222 115.885714 118.992222 0.425657143 0 0.425657143"></polygon>
    </defs>
    <g id="Facility13" stroke="none" stroke-width="1" fill="none" fill-rule="evenodd">
        <g id="Page-1" transform="translate(0.000000, 2.000000)">
            <polygon id="Fill-1" fill="#1AB2D6" points="46.4222222 49.37946 40.8911111 105.910517 59.84 105.910517 59.84 49.37946"></polygon>
            <polygon id="Fill-2" fill="#1967CC" points="73.2603333 49.37946 59.8392222 49.37946 59.8392222 105.910517 78.7903333 105.910517"></polygon>
            <g id="Group-45" transform="translate(0.000000, 0.688629)">
                <path d="M59.8396667,43.9300457 L42.0741111,43.9300457 C43.2774444,45.7307314 44.7474444,47.3330743 46.4218889,48.6902743 L59.8396667,48.6902743 L59.8396667,43.9300457 Z" id="Fill-3" fill="#F2C53D"></path>
                <path d="M59.8396667,15.35586 L46.4218889,15.35586 C44.7474444,16.7152886 43.2774444,18.3176314 42.0741111,20.1172029 L59.8396667,20.1172029 L59.8396667,15.35586 Z" id="Fill-5" fill="#F2C53D"></path>
                <path d="M59.8396667,24.8805514 L39.713,24.8805514 C39.1763333,26.3993229 38.793,27.9894086 38.6096667,29.6430086 L59.8396667,29.6430086 L59.8396667,24.8805514 Z" id="Fill-7" fill="#F2C53D"></path>
                <path d="M59.8396667,34.40424 L38.6096667,34.40424 C38.793,36.05784 39.1763333,37.6479257 39.713,39.1666971 L59.8396667,39.1666971 L59.8396667,34.40424 Z" id="Fill-9" fill="#F2C53D"></path>
                <path d="M81.0712222,29.6434543 C80.8867778,27.9898543 80.5045556,26.3997686 79.9678889,24.8809971 C79.3701111,23.1883971 78.5845556,21.58494 77.6045556,20.1174257 C76.4045556,18.3178543 74.9356667,16.7143971 73.2601111,15.3560829 C69.5901111,12.3820543 64.9256667,10.5936257 59.8401111,10.5936257 C54.7567778,10.5936257 50.0923333,12.3820543 46.4223333,15.3560829 L59.8401111,15.3560829 L59.8401111,20.1174257 L42.0745556,20.1174257 C41.0956667,21.58494 40.3101111,23.1883971 39.7134444,24.8809971 L59.8401111,24.8809971 L59.8401111,29.6434543 L38.609,29.6434543 C38.5234444,30.4256829 38.4712222,31.21794 38.4712222,32.0235686 C38.4712222,32.8291971 38.5234444,33.6214543 38.609,34.4036829 L59.8401111,34.4036829 L59.8401111,39.1672543 L39.7134444,39.1672543 C40.3101111,40.85874 41.0956667,42.4621971 42.0745556,43.9297114 L59.8401111,43.9297114 L59.8401111,48.6910543 L46.4223333,48.6910543 C50.0923333,51.6661971 54.7567778,53.4535114 59.8401111,53.4535114 C64.9256667,53.4535114 69.5901111,51.6661971 73.2601111,48.6910543 C74.9345556,47.33274 76.4045556,45.7315114 77.6045556,43.9297114 C78.5845556,42.4621971 79.3701111,40.85874 79.9678889,39.1672543 C80.5045556,37.6484829 80.8867778,36.0583971 81.0712222,34.4036829 C81.1578889,33.6214543 81.2101111,32.8291971 81.2101111,32.0235686 C81.2101111,31.21794 81.1578889,30.4256829 81.0712222,29.6434543" id="Fill-11" fill="#F29D35"></path>
                <path d="M40.9398889,105.222334 C35.0721111,105.223449 30.311,109.997049 30.311,115.884934 L59.8398889,115.884934 L59.8398889,105.223449 L40.9398889,105.222334 Z" id="Fill-13" fill="#794F1B"></path>
                <path d="M78.7897778,105.224451 L59.8397778,105.223337 L59.8397778,115.884823 L89.422,115.884823 C89.422,109.996937 84.6631111,105.225566 78.7897778,105.224451" id="Fill-15" fill="#2E1D0A"></path>
                <mask id="mask-2" fill="white">
                    <use xlink:href="#path-1"></use>
                </mask>
                <g id="Clip-18"></g>
                <polygon id="Fill-17" fill="#2E1D0A" mask="url(#mask-2)" points="57.6977778 75.7937143 61.6144444 75.7937143 61.6144444 41.5483714 57.6977778 41.5483714"></polygon>
                <path d="M45.6826667,86.40138 C45.6826667,86.0760086 45.7082222,85.7573229 45.7282222,85.4386371 C45.6982222,85.75398 45.6815556,86.0760086 45.6815556,86.40138 C45.6815556,91.5270943 49.8226667,95.6800371 54.9304444,95.6800371 L59.8226667,95.6800371 L59.8226667,86.40138 L45.6826667,86.40138 Z" id="Fill-19" fill="#F2480D" mask="url(#mask-2)"></path>
                <path d="M59.8227778,95.6801486 L64.7072222,95.6812629 C69.8161111,95.6812629 73.9594444,91.5260914 73.9594444,86.4014914 L59.8227778,86.4014914 L59.8227778,95.6801486 Z" id="Fill-20" fill="#B6360A" mask="url(#mask-2)"></path>
                <path d="M59.8227778,86.40138 L59.8227778,86.3880086 L52.7783333,86.3880086 C52.7783333,82.4802086 55.9316667,79.3122943 59.8227778,79.3022657 L59.8227778,72.2042657 C52.3361111,72.2120657 46.2261111,78.0520371 45.7283333,85.4386371 C45.7083333,85.7573229 45.6827778,86.0760086 45.6827778,86.40138 L59.8227778,86.40138 Z" id="Fill-21" fill="#F56D3D" mask="url(#mask-2)"></path>
                <path d="M59.8396667,72.2029286 C59.8341111,72.2029286 59.8296667,72.2040429 59.823,72.2040429 L59.823,79.3020429 C59.8296667,79.3020429 59.8341111,79.2998143 59.8396667,79.2998143 C63.743,79.2998143 66.9041111,82.4744143 66.9041111,86.3877857 L59.823,86.3877857 L59.823,86.4011571 L73.9596667,86.4011571 L74.0018889,86.4011571 C74.0018889,78.5577 67.663,72.2029286 59.8396667,72.2029286" id="Fill-22" fill="#F2480D" mask="url(#mask-2)"></path>
                <path d="M52.778,86.3882314 L59.8224444,86.3882314 L59.8224444,79.3024886 C55.9313333,79.3114029 52.778,82.4804314 52.778,86.3882314" id="Fill-23" fill="#A3E0EF" mask="url(#mask-2)"></path>
                <path d="M66.9045556,86.3882314 C66.9045556,82.4737457 63.7423333,79.30026 59.8401111,79.30026 C59.8345556,79.30026 59.829,79.3024886 59.8223333,79.3024886 L59.8223333,86.3882314 L66.9045556,86.3882314 Z" id="Fill-24" fill="#1AB2D6" mask="url(#mask-2)"></path>
                <path d="M54.137,77.5490486 C54.137,78.3089914 53.5258889,78.9229629 52.7658889,78.9229629 C52.0092222,78.9229629 51.397,78.3089914 51.397,77.5490486 C51.397,76.7891057 52.0092222,76.1751343 52.7658889,76.1751343 C53.5258889,76.1751343 54.137,76.7891057 54.137,77.5490486" id="Fill-25" fill="#FFFFFF" mask="url(#mask-2)"></path>
                <polygon id="Fill-26" fill="#2E1D0A" mask="url(#mask-2)" points="21.4585556 67.8839571 18.6874444 65.1071571 42.8318889 40.8903857 45.603 43.6694143"></polygon>
                <path d="M2.71122222,64.0873629 C2.94122222,63.8567057 3.18566667,63.6483343 3.42455556,63.4388486 C3.17788889,63.6416486 2.94011111,63.8544771 2.71122222,64.0851343 C-0.904333333,67.7099057 -0.902111111,73.5833057 2.70788889,77.2058486 L6.16788889,80.67462 L12.7101111,74.1137057 L2.71122222,64.0873629 Z" id="Fill-27" fill="#21BFA2" mask="url(#mask-2)"></path>
                <path d="M6.16777778,80.6742857 L9.62,84.1397143 C13.2322222,87.7622571 19.0922222,87.7633714 22.7077778,84.1386 L12.71,74.1133714 L6.16777778,80.6742857 Z" id="Fill-28" fill="#198F7A" mask="url(#mask-2)"></path>
                <path d="M12.7096667,74.1137057 L12.7196667,74.1047914 L7.73855556,69.1094486 C10.4918889,66.3449057 14.9574444,66.3415629 17.7141111,69.0938486 L22.7207778,64.0739914 C17.4218889,58.77222 8.98411111,58.56942 3.42411111,63.4388486 C3.18522222,63.6483343 2.94077778,63.8567057 2.71077778,64.0873629 L12.7096667,74.1137057 Z" id="Fill-29" fill="#4DCCB5" mask="url(#mask-2)"></path>
                <path d="M22.7345556,64.0862486 C22.7301111,64.0817914 22.7245556,64.0784486 22.7212222,64.0739914 L17.7145556,69.0938486 C17.719,69.09942 17.7267778,69.1005343 17.7301111,69.1038771 C20.489,71.8717629 20.4867778,76.3601057 17.7278889,79.1268771 L12.719,74.1047914 L12.7101111,74.1137057 L22.7078889,84.1389343 L22.7356667,84.1667914 C28.2656667,78.6221057 28.2645556,69.6342771 22.7345556,64.0862486" id="Fill-30" fill="#21BFA2" mask="url(#mask-2)"></path>
                <path d="M7.73833333,69.1092257 L12.7194444,74.1045686 L17.715,69.0936257 C14.9572222,66.3424543 10.4927778,66.3457971 7.73833333,69.1092257" id="Fill-31" fill="#A3E0EF" mask="url(#mask-2)"></path>
                <path d="M17.7281111,79.1268771 C20.487,76.3601057 20.4881111,71.8717629 17.7292222,69.1038771 C17.727,69.1005343 17.7192222,69.09942 17.7147778,69.0938486 L12.7192222,74.1047914 L17.7281111,79.1268771 Z" id="Fill-32" fill="#1AB2D6" mask="url(#mask-2)"></path>
                <path d="M14.9318889,63.8228314 C14.3952222,64.3588029 13.5307778,64.3610314 12.9941111,63.8228314 C12.4585556,63.28686 12.4574444,62.4154886 12.9941111,61.8795171 C13.5285556,61.3413171 14.3974444,61.3424314 14.9318889,61.8784029 C15.4685556,62.4177171 15.4663333,63.2857457 14.9318889,63.8228314" id="Fill-33" fill="#FFFFFF" mask="url(#mask-2)"></path>
                <polygon id="Fill-34" fill="#2E1D0A" mask="url(#mask-2)" points="100.072333 65.3670086 97.3045556 68.1460371 73.1567778 43.9314943 75.9278889 41.1524657"></polygon>
                <path d="M96.2876667,84.1673486 C96.0576667,83.9366914 95.851,83.6926629 95.641,83.4519771 C95.8432222,83.69712 96.0554444,83.9378057 96.2865556,84.1673486 C99.8998889,87.79212 105.757667,87.7910057 109.369889,84.1706914 L112.827667,80.7008057 L106.286556,74.1398914 L96.2876667,84.1673486 Z" id="Fill-35" fill="#F29D35" mask="url(#mask-2)"></path>
                <path d="M112.827333,80.70036 L116.281778,77.2382743 C119.896222,73.6157314 119.896222,67.7389886 116.281778,64.1142171 L106.286222,74.1394457 L112.827333,80.70036 Z" id="Fill-36" fill="#B67628" mask="url(#mask-2)"></path>
                <path d="M106.286,74.13978 L106.277111,74.1308657 L101.296,79.1273229 C98.5382222,76.3638943 98.5348889,71.8878086 101.279333,69.1210371 L96.2737778,64.1000657 C90.9882222,69.4152086 90.7848889,77.8770943 95.6404444,83.4518657 C95.8504444,83.6925514 96.0571111,83.93658 96.2871111,84.1672371 L106.286,74.13978 Z" id="Fill-37" fill="#F2C53D" mask="url(#mask-2)"></path>
                <path d="M96.2876667,64.0873629 C96.2832222,64.0907057 96.2787778,64.0962771 96.2743333,64.1007343 L101.278778,69.1217057 C101.284333,69.11502 101.286556,69.1105629 101.288778,69.10722 C104.049889,66.33822 108.525444,66.3404486 111.284333,69.1083343 L106.277667,74.1315343 L106.286556,74.1393343 L116.282111,64.1141057 L116.311,64.0851343 C110.781,58.5393343 101.817667,58.5404486 96.2876667,64.0873629" id="Fill-38" fill="#F29D35" mask="url(#mask-2)"></path>
                <path d="M101.295778,79.1268771 L106.276889,74.1315343 L101.279111,69.1217057 C98.5357778,71.8873629 98.5391111,76.3645629 101.295778,79.1268771" id="Fill-39" fill="#1AB2D6" mask="url(#mask-2)"></path>
                <path d="M111.283889,69.1081114 C108.525,66.34134 104.049444,66.3379971 101.289444,69.1069971 C101.286111,69.11034 101.283889,69.1147971 101.279444,69.1214829 L106.277222,74.1313114 L111.283889,69.1081114 Z" id="Fill-40" fill="#1486A1" mask="url(#mask-2)"></path>
                <path d="M96.0234444,71.9112086 C96.5578889,72.4494086 96.5601111,73.3163229 96.0234444,73.8545229 C95.489,74.3904943 94.6223333,74.3927229 94.0867778,73.8545229 C93.5501111,73.3185514 93.5501111,72.44718 94.0856667,71.9112086 C94.6234444,71.3741229 95.4867778,71.3752371 96.0234444,71.9112086" id="Fill-41" fill="#FFFFFF" mask="url(#mask-2)"></path>
                <path d="M84.2666667,41.5480371 C84.2666667,42.8628943 83.2022222,43.93038 81.8922222,43.93038 L37.7877778,43.93038 C36.4766667,43.93038 35.4133333,42.8628943 35.4133333,41.5480371 C35.4133333,40.2320657 36.4766667,39.1668086 37.7877778,39.1668086 L81.8922222,39.1668086 C83.2022222,39.1668086 84.2666667,40.2320657 84.2666667,41.5480371" id="Fill-42" fill="#794F1B" mask="url(#mask-2)"></path>
                <path d="M59.8396667,10.59396 C62.6396667,10.59396 64.9085556,8.31636 64.9085556,5.50947429 L54.7707778,5.50947429 C54.7707778,8.31636 57.0396667,10.59396 59.8396667,10.59396" id="Fill-43" fill="#1967CC" mask="url(#mask-2)"></path>
                <path d="M59.8396667,0.424988571 C57.0396667,0.424988571 54.7707778,2.70147429 54.7707778,5.50836 L64.9085556,5.50836 C64.9085556,2.70147429 62.6396667,0.424988571 59.8396667,0.424988571" id="Fill-44" fill="#1AB2D6" mask="url(#mask-2)"></path>
            </g>
        </g>
    </g>
</svg>