<?xml version="1.0" encoding="UTF-8"?>
<svg width="120px" height="120px" viewBox="0 0 120 120" version="1.1" xmlns="http://www.w3.org/2000/svg" xmlns:xlink="http://www.w3.org/1999/xlink">
    <!-- Generator: Sketch 51.1 (57501) - http://www.bohemiancoding.com/sketch -->
    <title>Facility16</title>
    <desc>Created with Sketch.</desc>
    <defs>
        <polygon id="path-1" points="0 118.75 110.569719 118.75 110.569719 0.57625 0 0.57625"></polygon>
    </defs>
    <g id="Facility16" stroke="none" stroke-width="1" fill="none" fill-rule="evenodd">
        <g id="Page-1" transform="translate(5.000000, 0.000000)">
            <polygon id="Fill-1" fill="#F2C53D" points="34.1669225 28.902125 34.1669225 119.424625 55.6697427 119.424625 55.6697427 112.705875 38.4697315 112.705875 38.4697315 40.037125 55.6697427 40.037125 55.6697427 28.902125"></polygon>
            <polygon id="Fill-2" fill="#F29D35" points="38.4696067 112.705375 55.6708652 112.705375 55.6708652 40.036625 38.4696067 40.036625"></polygon>
            <polygon id="Fill-3" fill="#B67628" points="55.6708652 112.706625 72.8721236 112.706625 72.8721236 40.037875 55.6708652 40.037875"></polygon>
            <polygon id="Fill-4" fill="#F2C53D" points="23.5232697 28.901625 87.8159663 28.901625 87.8159663 1.249125 23.5232697 1.249125"></polygon>
            <polygon id="Fill-5" fill="#B6942E" points="55.6701169 28.902125 34.1672966 28.902125 34.1672966 35.472125 55.6701169 35.472125 55.6701169 40.037125 72.8713753 40.037125 72.8713753 112.705875 55.6701169 112.705875 55.6701169 119.424625 77.1716899 119.424625 77.1716899 35.472125 77.1716899 28.902125"></polygon>
            <g id="Group-40" transform="translate(0.000000, 0.674125)">
                <path d="M82.1585831,13.9275 C82.1585831,18.43875 78.5105494,22.095 74.0094371,22.095 L38.1327404,22.095 C33.6341225,22.095 29.9848416,18.43875 29.9848416,13.9275 C29.9848416,9.4175 33.6341225,5.76125 38.1327404,5.76125 L74.0094371,5.76125 C78.5105494,5.76125 82.1585831,9.4175 82.1585831,13.9275" id="Fill-6" fill="#F2480D"></path>
                <path d="M38.4691079,9.131375 L38.4691079,18.725125 C41.1119056,18.725125 43.2545798,16.576375 43.2545798,13.927625 C43.2545798,11.280125 41.1119056,9.131375 38.4691079,9.131375" id="Fill-8" fill="#F2C53D"></path>
                <path d="M33.6831371,13.9275 C33.6831371,16.57625 35.8258112,18.725 38.468609,18.725 L38.468609,9.13125 C35.8258112,9.13125 33.6831371,11.28 33.6831371,13.9275" id="Fill-10" fill="#FFFFFF"></path>
                <path d="M55.6703663,9.131375 L55.6703663,18.725125 C58.313164,18.722625 60.454591,16.576375 60.454591,13.927625 C60.454591,11.280125 58.313164,9.133875 55.6703663,9.131375" id="Fill-12" fill="#F2C53D"></path>
                <path d="M55.6684955,9.131375 C53.0256978,9.131375 50.8830236,11.280125 50.8830236,13.927625 C50.8830236,16.576375 53.0256978,18.725125 55.6684955,18.725125 L55.6697427,18.725125 L55.6697427,9.131375 L55.6684955,9.131375 Z" id="Fill-14" fill="#FFFFFF"></path>
                <path d="M68.0862775,13.9275 C68.0862775,16.57625 70.2277045,18.725 72.8717494,18.725 L72.8717494,9.13125 C70.2277045,9.13125 68.0862775,11.28 68.0862775,13.9275" id="Fill-16" fill="#FFFFFF"></path>
                <path d="M72.8722483,9.131375 L72.8722483,18.725125 C75.5150461,18.725125 77.6552258,16.576375 77.6552258,13.927625 C77.6552258,11.280125 75.5150461,9.131375 72.8722483,9.131375" id="Fill-18" fill="#F2C53D"></path>
                <mask id="mask-2" fill="white">
                    <use xlink:href="#path-1"></use>
                </mask>
                <g id="Clip-21"></g>
                <polygon id="Fill-20" fill="#F2480D" mask="url(#mask-2)" points="10.8580449 93.0325 99.7116742 93.0325 99.7116742 56.66625 10.8580449 56.66625"></polygon>
                <path d="M32.6192831,82.40775 C32.6192831,86.4015 29.3853169,89.6415 25.4017888,89.6415 C21.4132719,89.6415 18.1818,86.4015 18.1818,82.40775 L18.1818,71.2565 C18.1818,67.2615 21.4132719,64.02275 25.4017888,64.02275 C29.3853169,64.02275 32.6192831,67.2615 32.6192831,71.2565 L32.6192831,82.40775 Z" id="Fill-22" fill="#F2C53D" mask="url(#mask-2)"></path>
                <path d="M33.063782,84.59275 C33.5688944,85.099 33.5688944,85.92025 33.063782,86.42525 C32.5586697,86.9315 31.7392652,86.9315 31.2366472,86.4265 L16.7817034,71.94025 C16.2790854,71.4365 16.2790854,70.614 16.7841978,70.10775 C17.2868157,69.604 18.1062202,69.604 18.6113326,70.10775 L33.063782,84.59275 Z" id="Fill-23" fill="#2E1D0A" mask="url(#mask-2)"></path>
                <path d="M19.5005798,86.425 C18.9954674,86.93125 18.1760629,86.93125 17.6721978,86.425 C17.1670854,85.91875 17.1670854,85.09875 17.6709506,84.5925 L32.1258944,70.10625 C32.6285124,69.60125 33.4479169,69.60125 33.9530292,70.1075 C34.4568944,70.61375 34.4568944,71.43375 33.9530292,71.94 L19.5005798,86.425 Z" id="Fill-24" fill="#2E1D0A" mask="url(#mask-2)"></path>
                <path d="M30.1528382,62.968 C30.1528382,64.7505 28.7123326,66.193 26.9350854,66.193 L23.8657483,66.193 C22.0885011,66.193 20.6479955,64.7505 20.6479955,62.968 L20.6479955,59.89175 C20.6479955,58.10925 22.0885011,56.66675 23.8657483,56.66675 L26.9350854,56.66675 C28.7123326,56.66675 30.1528382,58.10925 30.1528382,59.89175 L30.1528382,62.968 Z" id="Fill-25" fill="#2E1D0A" mask="url(#mask-2)"></path>
                <path d="M52.453736,82.40775 C52.453736,86.4015 49.2197697,89.6415 45.2337472,89.6415 C41.2489719,89.6415 38.0162528,86.4015 38.0162528,82.40775 L38.0162528,71.2565 C38.0162528,67.2615 41.2489719,64.02275 45.2337472,64.02275 C49.2197697,64.02275 52.453736,67.2615 52.453736,71.2565 L52.453736,82.40775 Z" id="Fill-26" fill="#F2C53D" mask="url(#mask-2)"></path>
                <path d="M52.8982348,84.59275 C53.4021,85.099 53.4021,85.92025 52.8982348,86.42525 C52.3931225,86.9315 51.573718,86.9315 51.0711,86.4265 L36.6161562,71.94025 C36.1135382,71.4365 36.1135382,70.614 36.6186506,70.10775 C37.1225157,69.604 37.940673,69.604 38.4445382,70.10775 L52.8982348,84.59275 Z" id="Fill-27" fill="#2E1D0A" mask="url(#mask-2)"></path>
                <path d="M39.3332865,86.425 C38.8294213,86.93125 38.011264,86.93125 37.5073989,86.425 C37.0022865,85.91875 37.0022865,85.09875 37.5061517,84.5925 L51.9598483,70.10625 C52.4637135,69.60125 53.2818708,69.60125 53.7869831,70.1075 C54.2896011,70.61375 54.2896011,71.43375 53.7869831,71.94 L39.3332865,86.425 Z" id="Fill-28" fill="#2E1D0A" mask="url(#mask-2)"></path>
                <path d="M49.9879146,62.968 C49.9879146,64.7505 48.547409,66.193 46.7689146,66.193 L43.7008247,66.193 C41.9223303,66.193 40.4818247,64.7505 40.4818247,62.968 L40.4818247,59.89175 C40.4818247,58.10925 41.9223303,56.66675 43.7008247,56.66675 L46.7689146,56.66675 C48.547409,56.66675 49.9879146,58.10925 49.9879146,59.89175 L49.9879146,62.968 Z" id="Fill-29" fill="#2E1D0A" mask="url(#mask-2)"></path>
                <path d="M93.3869191,82.40775 C93.3869191,86.4015 90.1529528,89.6415 86.1669303,89.6415 C82.1809079,89.6415 78.949436,86.4015 78.949436,82.40775 L78.949436,71.2565 C78.949436,67.2615 82.1809079,64.02275 86.1669303,64.02275 C90.1529528,64.02275 93.3869191,67.2615 93.3869191,71.2565 L93.3869191,82.40775 Z" id="Fill-30" fill="#F2C53D" mask="url(#mask-2)"></path>
                <path d="M93.831418,84.59275 C94.3365303,85.099 94.3365303,85.92025 93.831418,86.42525 C93.3263056,86.9315 92.5069011,86.9315 92.0042831,86.4265 L77.5493393,71.94025 C77.0467213,71.4365 77.0467213,70.614 77.5505865,70.10775 C78.0544517,69.604 78.8738562,69.604 79.3764742,70.10775 L93.831418,84.59275 Z" id="Fill-31" fill="#2E1D0A" mask="url(#mask-2)"></path>
                <path d="M80.2664697,86.425 C79.7626045,86.93125 78.9432,86.93125 78.440582,86.425 C77.9354697,85.91875 77.9354697,85.09875 78.4380876,84.5925 L92.8930315,70.10625 C93.3956494,69.60125 94.2150539,69.60125 94.7201663,70.1075 C95.2227843,70.61375 95.2227843,71.43375 94.7201663,71.94 L80.2664697,86.425 Z" id="Fill-32" fill="#2E1D0A" mask="url(#mask-2)"></path>
                <path d="M90.9205989,62.968 C90.9205989,64.7505 89.4813404,66.193 87.7015989,66.193 L84.633509,66.193 C82.8562618,66.193 81.4157562,64.7505 81.4157562,62.968 L81.4157562,59.89175 C81.4157562,58.10925 82.8562618,56.66675 84.633509,56.66675 L87.7015989,56.66675 C89.4813404,56.66675 90.9205989,58.10925 90.9205989,59.89175 L90.9205989,62.968 Z" id="Fill-33" fill="#2E1D0A" mask="url(#mask-2)"></path>
                <path d="M73.118818,82.40775 C73.118818,86.4015 69.8873461,89.6415 65.9013236,89.6415 C61.9140539,89.6415 58.6838292,86.4015 58.6838292,82.40775 L58.6838292,71.2565 C58.6838292,67.2615 61.9140539,64.02275 65.9013236,64.02275 C69.8873461,64.02275 73.118818,67.2615 73.118818,71.2565 L73.118818,82.40775 Z" id="Fill-34" fill="#F2C53D" mask="url(#mask-2)"></path>
                <path d="M73.5634416,84.59275 C74.0685539,85.099 74.0685539,85.92025 73.5634416,86.42525 C73.0583292,86.9315 72.2414191,86.9315 71.7375539,86.4265 L57.2838573,71.94025 C56.7799921,71.4365 56.7799921,70.614 57.2851045,70.10775 C57.7889697,69.604 58.6058798,69.604 59.1109921,70.10775 L73.5634416,84.59275 Z" id="Fill-35" fill="#2E1D0A" mask="url(#mask-2)"></path>
                <path d="M60.0002393,86.425 C59.495127,86.93125 58.6782169,86.93125 58.1743517,86.425 C57.6692393,85.91875 57.6692393,85.09875 58.1731045,84.5925 L72.6268011,70.10625 C73.1306663,69.60125 73.9475764,69.60125 74.4526888,70.1075 C74.9565539,70.61375 74.9565539,71.43375 74.4526888,71.94 L60.0002393,86.425 Z" id="Fill-36" fill="#2E1D0A" mask="url(#mask-2)"></path>
                <path d="M70.6548674,62.968 C70.6548674,64.7505 69.2131146,66.193 67.4346202,66.193 L64.3677775,66.193 C62.5892831,66.193 61.1475303,64.7505 61.1475303,62.968 L61.1475303,59.89175 C61.1475303,58.10925 62.5892831,56.66675 64.3677775,56.66675 L67.4346202,56.66675 C69.2131146,56.66675 70.6548674,58.10925 70.6548674,59.89175 L70.6548674,62.968 Z" id="Fill-37" fill="#2E1D0A" mask="url(#mask-2)"></path>
                <polygon id="Fill-38" fill="#134D99" mask="url(#mask-2)" points="110.56922 82.152625 55.6703663 82.152625 55.6703663 93.032625 99.7111753 93.032625"></polygon>
                <polygon id="Fill-39" fill="#1967CC" mask="url(#mask-2)" points="-0.000249438202 82.152625 10.8577955 93.032625 55.6706157 93.032625 55.6706157 82.152625"></polygon>
            </g>
        </g>
    </g>
</svg>