<?xml version="1.0" encoding="UTF-8"?>
<svg width="120px" height="120px" viewBox="0 0 120 120" version="1.1" xmlns="http://www.w3.org/2000/svg" xmlns:xlink="http://www.w3.org/1999/xlink">
    <!-- Generator: Sketch 51.1 (57501) - http://www.bohemiancoding.com/sketch -->
    <title>Onigiri</title>
    <desc>Created with Sketch.</desc>
    <defs>
        <polygon id="path-1" points="0 1.53536842 116.196811 1.53536842 116.196811 114.142737 0 114.142737"></polygon>
        <polygon id="path-3" points="1.0187004 1.53473684 83.6305544 1.53473684 83.6305544 52.6398783 1.0187004 52.6398783"></polygon>
    </defs>
    <g id="Onigiri" stroke="none" stroke-width="1" fill="none" fill-rule="evenodd">
        <g id="Page-1" transform="translate(2.000000, 0.000000)">
            <g id="Group-3" transform="translate(0.000000, 1.624105)">
                <mask id="mask-2" fill="white">
                    <use xlink:href="#path-1"></use>
                </mask>
                <g id="Clip-2"></g>
                <path d="M0.0262459459,89.5016842 C0.494245946,87.5027368 4.34575946,81.5816842 4.34575946,81.5816842 C4.34575946,81.5816842 -0.195105405,76.2669474 0.61757027,74.5995789 C1.43340811,72.9385263 6.86916486,74.5995789 6.86916486,74.5995789 C6.86916486,74.5995789 2.83740811,68.4574737 7.55535405,65.1258947 C7.55535405,65.1258947 5.06673243,59.0974737 6.68892162,57.4774737 C8.30794865,55.8606316 13.3547595,58.3111579 13.3547595,58.3111579 C13.3547595,58.3111579 9.59811081,52.2164211 11.5554892,51.3637895 C13.5065432,50.508 15.3374351,50.1006316 15.3374351,50.1006316 C15.3374351,50.1006316 13.8954892,41.6501053 15.3374351,39.6732632 C16.7762189,37.6932632 20.3810838,41.4701053 20.3810838,41.4701053 C20.3810838,41.4701053 17.4181378,35.0469474 21.8198676,32.8364211 C21.8198676,32.8364211 19.6601108,28.5164211 21.8198676,27.2595789 C23.9827865,25.9995789 30.2818135,29.4164211 30.2818135,29.4164211 C30.2818135,29.4164211 27.4010838,22.7595789 28.6659486,21.5027368 C29.9244892,20.2427368 34.4274081,22.4027368 34.4274081,22.4027368 C34.4274081,22.4027368 34.0700838,14.4858947 36.590327,13.0458947 C39.1105703,11.6090526 41.0932459,15.5690526 41.0932459,15.5690526 C41.0932459,15.5690526 42.7154351,6.18063158 44.1542189,6.28484211 C45.599327,6.39221053 48.407327,9.69221053 48.407327,9.69221053 C48.407327,9.69221053 47.7590838,5.67221053 49.3781108,4.95221053 C51.0003,4.23221053 56.5846784,9.09221053 56.5846784,9.09221053 C56.5846784,9.09221053 54.7822459,1.53536842 56.5846784,1.53536842 C58.3839486,1.53536842 61.4480838,6.28484211 61.4480838,6.28484211 C61.4480838,6.28484211 63.6078405,2.25536842 65.2300297,2.79536842 C66.8522189,3.33221053 68.2910027,8.01221053 68.2910027,8.01221053 C68.2910027,8.01221053 72.6453,4.82589474 76.2185432,8.62484211 C76.2185432,8.62484211 80.0004892,6.03221053 81.2590297,7.11221053 C82.5238946,8.19221053 81.2590297,13.5795789 81.2590297,13.5795789 C81.2590297,13.5795789 88.2853541,12.8658947 89.5502189,14.6690526 C90.8087595,16.4627368 88.0861378,20.6185263 88.0861378,20.6185263 C88.0861378,20.6185263 93.1487595,21.3227368 93.8728946,23.1227368 C94.5907054,24.9195789 91.2988946,25.1311579 91.2988946,25.1311579 C91.2988946,25.1311579 99.2295973,26.9185263 98.3758135,31.5732632 C98.3758135,31.5732632 106.29703,27.7995789 100.53557,37.5132632 C100.53557,37.5132632 108.459949,41.4701053 104.137273,47.0469474 C104.137273,47.0469474 112.4253,50.1006316 107.201408,52.6237895 C107.201408,52.6237895 114.044327,59.2806316 110.799949,62.1543158 C110.799949,62.1543158 115.30603,65.5743158 114.588219,67.3711579 C113.864084,69.1743158 111.233165,71.4164211 111.233165,71.4164211 C111.233165,71.4164211 116.583543,76.5101053 114.664111,79.0648421 C114.664111,79.0648421 116.472868,81.5816842 116.162976,84.0985263 C115.846759,86.6216842 112.782624,85.3743158 112.782624,85.3743158 C112.782624,85.3743158 115.736084,92.8995789 110.923273,94.1690526 C110.923273,94.1690526 111.343841,99.3953684 109.718489,100.289053 C108.102624,101.189053 106.426678,98.2301053 106.426678,98.2301053 C106.426678,98.2301053 104.317516,104.429053 101.436786,105.505895 C98.5528946,106.585895 95.7860027,104.454316 95.7860027,104.454316 C95.7860027,104.454316 94.2302189,109.225895 92.788273,109.797474 C91.3494892,110.365895 87.3999486,107.185895 87.3999486,107.185895 C87.3999486,107.185895 85.0473,111.265895 83.2417054,111.625895 C81.4424351,111.982737 77.5845973,109.004842 77.5845973,109.004842 C77.5845973,109.004842 71.7156243,113.062737 69.0119757,112.882737 C66.3114892,112.705895 62.5295432,110.337474 62.5295432,110.337474 C62.5295432,110.337474 60.5468676,114.142737 59.2851649,114.142737 C58.0266243,114.142737 58.0867054,110.337474 58.0867054,110.337474 C58.0867054,110.337474 56.129327,114.142737 54.5545703,114.142737 C52.9829757,114.142737 49.5457054,110.312211 49.5457054,110.312211 C49.5457054,110.312211 47.2183541,112.882737 44.5147054,112.522737 C41.8142189,112.165895 37.4915432,108.209053 37.4915432,108.209053 C37.4915432,108.209053 36.2804351,110.880632 33.2827054,110.170105 C30.2818135,109.465895 27.0437595,104.969053 27.0437595,104.969053 C27.0437595,104.969053 25.2444892,107.665895 23.6191378,107.309053 C22.0001108,106.945895 19.1162189,101.369053 19.1162189,101.369053 C19.1162189,101.369053 14.7935432,102.812211 13.3547595,101.549053 C11.9128135,100.289053 13.5318405,97.9522105 13.5318405,97.9522105 C13.5318405,97.9522105 5.61062432,97.7722105 5.42721892,96.1522105 C5.24697568,94.5353684 7.34032703,92.7227368 7.34032703,92.7227368 C7.34032703,92.7227368 -0.511321622,91.7564211 0.0262459459,89.5016842" id="Fill-1" fill="#F5E9D1" mask="url(#mask-2)"></path>
            </g>
            <path d="M16.2354892,106.051579 L30.1047324,53.8831579 L86.3058405,56.7663158 L89.5502189,113.788421 C89.5502189,113.788421 75.6778135,119.545263 52.8944351,118.285263 C30.1047324,117.025263 16.2354892,106.051579 16.2354892,106.051579" id="Fill-4" fill="#242F01"></path>
            <path d="M76.8446514,74.2537895 C80.3957595,71.9516842 83.7191919,69.4190526 86.8718676,66.7064211 L86.3058405,56.7653684 L30.1047324,53.8853684 L21.5447595,86.0801053 C40.6410568,87.1158947 60.6322459,84.7601053 76.8446514,74.2537895" id="Fill-6" fill="#343F13"></path>
            <g id="Group-10" transform="translate(25.297297, 1.624105)">
                <mask id="mask-4" fill="white">
                    <use xlink:href="#path-3"></use>
                </mask>
                <g id="Clip-9"></g>
                <path d="M81.9028459,52.6244211 C87.1267378,50.1012632 78.8387108,47.0444211 78.8387108,47.0444211 C83.1613865,41.4675789 75.2401703,37.5138947 75.2401703,37.5138947 C81.0016297,27.8002105 73.0772514,31.5738947 73.0772514,31.5738947 C73.9310351,26.916 66.0034946,25.1317895 66.0034946,25.1317895 C66.0034946,25.1317895 69.2953054,24.9202105 68.5743324,23.1233684 C67.8533595,21.3233684 62.7875757,20.6191579 62.7875757,20.6191579 C62.7875757,20.6191579 65.5101973,16.4633684 64.2516568,14.6665263 C62.9931162,12.8665263 55.9636297,13.5802105 55.9636297,13.5802105 C55.9636297,13.5802105 57.2253324,8.19284211 55.9636297,7.11284211 C54.701927,6.03284211 50.9199811,8.62231579 50.9199811,8.62231579 C47.3467378,4.82336842 42.9924405,8.01284211 42.9924405,8.01284211 C42.9924405,8.01284211 41.5536568,3.33284211 39.9346297,2.796 C38.3124405,2.256 36.1495216,6.28547368 36.1495216,6.28547368 C36.1495216,6.28547368 33.0853865,1.53284211 31.2861162,1.53284211 C29.4868459,1.53284211 31.2861162,9.09284211 31.2861162,9.09284211 C31.2861162,9.09284211 25.7049,4.23284211 24.0827108,4.94968421 C22.4605216,5.67284211 23.1087649,9.68968421 23.1087649,9.68968421 C23.1087649,9.68968421 20.303927,6.38968421 18.8556568,6.28547368 C17.416873,6.18126316 15.7978459,15.5696842 15.7978459,15.5696842 C15.7978459,15.5696842 13.8151703,11.6096842 11.2917649,13.0465263 C8.77152162,14.4865263 9.12884595,22.4033684 9.12884595,22.4033684 C9.12884595,22.4033684 4.62592703,20.2433684 3.36738649,21.5033684 C2.10568378,22.7602105 4.98641351,29.4138947 4.98641351,29.4138947 C4.98641351,29.4138947 0.847143243,29.9570526 1.02422432,33.9107368 C1.20446757,37.8707368 10.5707919,37.5075789 10.5707919,37.5075789 C10.5707919,37.5075789 8.41103514,45.0012632 17.416873,43.416 C26.4227108,41.8307368 27.595873,39.3107368 27.595873,39.3107368 C27.595873,39.3107368 30.0244135,49.7570526 35.0680622,43.6370526 C35.0680622,43.6370526 39.3939,53.6349474 44.7980351,43.416 C44.7980351,43.416 50.7745216,49.5265263 52.2891973,48.0170526 C53.8007108,46.5075789 55.2426568,38.8338947 55.2426568,38.8338947 C55.2426568,38.8338947 57.8166568,49.3686316 61.5733054,49.5581053 C65.3331162,49.7444211 66.4114135,43.416 66.4114135,43.416 C66.4114135,43.416 70.8099811,53.9065263 73.1151973,51.6423158 C75.4172514,49.3875789 75.4172514,47.0412632 75.4172514,47.0412632 C75.4172514,47.0412632 77.2228459,52.9812632 81.9028459,52.6244211" id="Fill-8" fill="#FFFCF4" mask="url(#mask-4)"></path>
            </g>
        </g>
    </g>
</svg>