<?xml version="1.0" encoding="UTF-8"?>
<svg width="480px" height="360px" viewBox="0 0 480 360" version="1.1" xmlns="http://www.w3.org/2000/svg" xmlns:xlink="http://www.w3.org/1999/xlink">
    <!-- Generator: Sketch 51.1 (57501) - http://www.bohemiancoding.com/sketch -->
    <title>water1</title>
    <desc>Created with Sketch.</desc>
    <defs>
        <polygon id="path-1" points="0 0 512 0 512 511 0 511"></polygon>
    </defs>
    <g id="water1" stroke="none" stroke-width="1" fill="none" fill-rule="evenodd">
        <g id="Group" transform="translate(0.000000, -144.000000)">
            <mask id="mask-2" fill="white">
                <use xlink:href="#path-1"></use>
            </mask>
            <g id="Clip-2"></g>
            <polygon id="Fill-1" fill="#81CDE6" mask="url(#mask-2)" points="0 511 512 511 512 0 0 0"></polygon>
            <path d="M439.799616,71.9658445 C420.455283,78.9160731 401.433818,86.7671594 381.901586,93.1908956 C363.308848,99.306409 344.370747,104.481379 325.089929,107.930037 C286.258354,114.876297 246.56403,115.290347 207.973283,106.670688 C188.18699,102.251062 168.832071,96.2096284 149.479798,90.2158168 C129.509576,84.0341612 109.549939,77.2797136 88.5767071,75.6552597 C78.329596,74.8589069 68.0374949,74.8708125 57.7824444,75.5203295 C47.4744646,76.173815 37.2194141,77.1421377 27.2157778,79.8195764 C15.916697,82.8422777 5.03972727,87.17195 -6,90.9817442 L-6,516 L518,516 L518,50 C517.219293,50.0859849 516.439909,50.1904897 515.660525,50.281766 C489.827061,55.1551277 464.46202,63.1054274 439.799616,71.9658445" id="Fill-3" fill="#2199BA" mask="url(#mask-2)"></path>
            <path d="M40.6259404,282 C31.4046688,282 22.1833973,281.708154 13.0097125,281.125789 C8.64362023,280.849862 4.30793062,280.450564 0,279.9531 L0,261.215272 C2.00922202,261.269661 4.01976589,261.314764 6.0289879,261.347929 C10.1518586,261.41691 14.286626,261.451401 18.4319683,261.451401 C37.5063589,261.451401 56.7578782,260.725767 75.627381,259.334193 C96.0077659,257.827207 116.17401,254.561187 134.104995,247.591378 C147.968627,242.202843 161.569209,234.470256 167.3867,224.032788 C173.539942,212.99173 165.575756,202.414972 155.36838,193.930219 C133.255041,175.539952 97.6997423,166.268541 65.3182215,159.587925 C43.9860999,155.189013 22.0974766,151.384405 0,149.281788 L0,141 C17.328218,142.54413 34.5876995,145.027472 51.5048201,147.566531 C75.1145007,151.109804 98.5034311,155.308404 121.955811,159.298733 C145.396294,163.287734 169.062814,167.441231 192.996349,169.795896 C205.409905,171.018995 217.860472,171.569523 230.303108,171.569523 C264.907992,171.568196 299.449426,167.312554 332.936019,161.410635 C356.486216,157.259792 379.477268,151.600636 403.336779,148.310738 C425.621959,145.237071 448.375077,144.096219 471.087217,144.096219 C472.175105,144.096219 473.264315,144.098872 474.352202,144.104178 C486.927024,144.162547 499.471443,144.564499 512,145.165436 L512,152.169735 C503.76219,151.751865 495.508517,151.538287 487.31565,151.486551 C486.403569,151.479918 485.494132,151.477265 484.580729,151.477265 C468.431607,151.477265 452.145012,152.368721 436.13865,153.792133 C429.187007,154.408989 422.202316,155.260648 415.60493,156.918863 C410.946707,158.098185 406.028079,159.898343 403.742589,163.060891 C399.738685,168.595349 405.688362,173.384273 412.240805,176.250995 C422.004038,180.51725 434.036898,182.516394 445.231702,184.163996 C454.012795,185.460057 462.956477,186.458966 471.90809,187.00684 C478.021676,187.380933 484.178884,187.481753 490.347989,187.481753 C493.931542,187.481753 497.520383,187.447262 501.103936,187.414097 C504.687489,187.379607 508.268399,187.346442 511.838733,187.346442 C511.89293,187.346442 511.945804,187.346442 512,187.346442 L512,204.797496 C497.593085,202.974786 483.198067,201.019419 468.725059,199.597334 C466.833482,198.782819 464.75288,198.331784 462.569173,198.331784 C461.358352,198.331784 460.179256,198.471074 459.046425,198.733735 C453.255371,198.273415 447.445812,197.920547 441.615102,197.718908 C438.400347,197.608802 435.175017,197.55574 431.939112,197.55574 C414.934749,197.55574 397.72021,198.996397 381.076714,200.921252 C360.61834,203.287857 340.538016,207.038075 320.978504,211.744753 C281.616259,221.213823 244.65847,234.747509 208.458106,248.783966 C188.58928,256.487369 168.596199,263.565957 147.085626,268.930614 C125.994083,274.193124 104.080344,277.891607 81.8533256,280.032694 C68.2091218,281.347327 54.4155483,282 40.6259404,282 M324.030671,170.449896 C306.784408,170.449896 289.466765,172.609555 272.98057,175.839758 C261.982723,177.992784 251.220167,180.838281 240.856811,184.140118 C240.00157,184.412065 239.160869,184.701258 238.317524,184.993104 C236.559455,185.533018 234.813283,186.087526 233.092225,186.67387 C221.149251,190.749099 204.95783,199.861321 210.652388,210.338586 C213.01058,214.67913 219.896131,216.867973 226.00443,217.953109 C230.222475,218.701296 234.579314,218.999774 238.959947,218.999774 C244.595021,218.999774 250.264464,218.504963 255.709192,217.839024 C278.266674,215.082407 300.443462,209.429885 321.269313,203.013256 C330.897716,200.044388 340.372784,196.747857 349.485664,193.086519 C355.095623,190.835326 361.275302,187.910235 363.887291,183.681124 C366.55612,179.355173 360.594546,175.968435 355.632297,174.160318 C348.585479,171.597381 340.103125,170.943381 332.253941,170.618371 C329.516376,170.504285 326.776167,170.449896 324.030671,170.449896" id="Fill-4" fill="#16B0C6" mask="url(#mask-2)"></path>
            <path d="M0,498 L0,488.748142 C4.6952346,487.840993 9.36535393,486.90488 14.010358,485.9477 C51.4149339,478.237598 92.2470839,467.894266 116.085446,449.225972 C127.091224,440.610039 135.188917,430.054731 126.562481,419.587636 C118.406626,409.691952 101.395653,402.716523 84.3635312,398.024104 C83.8413979,397.879276 83.3179427,397.738399 82.7931656,397.598837 C81.1276263,394.629869 77.9393082,392.61808 74.2896622,392.61808 C72.2183129,392.61808 70.2950115,393.265855 68.7153929,394.370496 C51.1042976,390.935445 32.4991661,389.400271 13.8742068,388.878892 C9.26357097,388.748547 4.63575106,388.6498 0,388.58002 L0,368 C6.2299101,368.09743 12.4584984,368.288339 18.6712243,368.575361 C45.1770926,369.80113 71.507154,372.550224 97.05732,376.843708 C123.112435,381.224088 147.589254,387.320019 171.997336,394.028176 C216.468557,406.251636 261.768582,417.960299 309.409615,425.633535 C333.080101,429.449087 357.252893,432.31931 381.697987,433.829468 C396.514677,434.747149 411.668441,435.389657 426.737606,435.389657 C435.740772,435.389657 444.714856,435.160566 453.563364,434.622071 C473.318511,433.418684 492.696928,431.01191 512,428.374729 L512,442.694241 C504.838181,442.928599 497.702799,443.260386 490.650694,443.847597 C480.148544,444.721829 469.713808,446.030545 459.506431,447.621017 C446.491431,449.645972 432.533947,452.042213 421.533457,456.550305 C414.15221,459.578521 407.71609,464.448682 413.125127,469.661164 C416.215628,472.639349 422.244616,474.196905 427.888943,475.160668 C435.883532,476.515465 444.2337,477.076343 452.519097,477.408131 C464.181838,477.878162 475.941074,478.150702 487.679161,478.150702 C495.8099,478.150702 503.931387,478.01904 512,477.732018 L512,484.773279 C507.615402,484.989204 503.225516,485.178796 498.827699,485.33679 C488.18411,485.723875 477.506152,485.941117 466.825551,485.941117 C449.332101,485.941117 431.832042,485.35654 414.466812,483.97146 C385.89356,481.696348 358.051294,477.088193 329.734482,473.963864 C296.258464,470.272074 262.064678,467.708623 228.003077,467.708623 C206.370894,467.708623 184.788942,468.742166 163.485901,471.177905 C135.520703,474.374648 108.093501,479.304057 80.9108418,484.067573 C53.9846231,488.78369 27.1575436,493.694667 0,498 M216.569018,421.657356 C209.745594,421.657356 202.938033,422.077356 196.515132,423.241245 C189.437911,424.527578 181.578152,426.911969 179.332318,431.208086 C173.899487,441.581701 194.141077,449.796066 208.743627,453.290364 C210.846701,453.790678 212.978855,454.263343 215.120263,454.721526 C216.149989,454.971683 217.179716,455.21789 218.221339,455.448298 C230.863575,458.254006 243.923518,460.601531 257.172487,462.268367 C273.776327,464.359153 290.97236,465.703417 308.062644,465.703417 C314.669283,465.703417 321.261382,465.501975 327.795319,465.066175 C337.021878,464.452632 346.954308,463.492819 354.956828,460.738459 C360.591903,458.796451 367.213082,455.285037 363.53039,451.196945 C359.923043,447.197067 352.268172,444.596751 345.365437,442.628411 C334.157415,439.430351 322.562089,436.595677 310.830611,434.086208 C285.449643,428.661751 258.571011,424.029897 231.601171,422.218234 C226.678577,421.887764 221.619832,421.657356 216.569018,421.657356 M416.23149,441.42634 C413.747722,441.42634 411.726603,443.439446 411.726603,445.913367 C411.726603,448.387288 413.747722,450.400393 416.23149,450.400393 C418.715259,450.400393 420.736377,448.387288 420.736377,445.913367 C420.736377,443.439446 418.715259,441.42634 416.23149,441.42634" id="Fill-5" fill="#16B0C6" mask="url(#mask-2)"></path>
            <path d="M258.294743,386 C248.281679,386 238.259363,385.539299 228.281989,384.579504 C208.512302,382.674478 189.188081,379.047117 170.376739,374.629415 C112.516433,361.041375 58.5093382,338.893292 0,326.437147 L0,311.142658 C21.9586817,314.351681 43.9530534,317.481273 66.2435211,319.508094 C76.8461328,320.474507 87.4632849,321.137758 98.0764715,321.480636 C100.057934,325.247002 104.00632,327.821899 108.544254,327.821899 C112.977761,327.821899 116.850801,325.363501 118.873241,321.73614 C145.806069,321.521676 172.59878,319.153301 198.87068,314.317261 C219.781129,310.466169 240.025363,305.113826 259.513495,298.787126 C280.318196,292.032821 299.82219,283.740198 319.833777,276.032718 C359.89264,260.608492 401.53641,246.960878 446.290509,238.758276 C467.949129,234.789361 489.906489,232.955823 512,232 L512,243.473845 C496.473473,245.026726 481.084418,247.187257 465.912148,250.324791 C437.987928,256.09812 409.167489,263.085423 385.67281,274.977606 C375.51302,280.122104 366.324795,286.563979 361.810654,294.648757 C357.657381,302.09279 358.482219,311.004977 366.117263,317.331677 C374.27444,324.096573 387.151967,327.343987 399.443911,329.320502 C412.532935,331.42543 426.132196,332.080738 439.560937,332.274021 C441.707632,332.304469 443.84904,332.319032 445.993091,332.319032 C468.0562,332.319032 490.00695,330.778065 512,329.703096 L512,347.150171 C510.536705,347.131638 509.07341,347.121047 507.607471,347.121047 C506.1336,347.121047 504.658409,347.131638 503.181895,347.151495 C478.90732,347.489078 455.612242,351.571845 432.569638,356.370817 C388.08652,365.633825 344.933189,378.117771 298.828153,383.570727 C285.402056,385.156705 271.854348,386 258.294743,386 M293.543371,311.962124 C284.905038,311.962124 276.216475,312.593603 267.718259,313.50309 C248.793238,315.531235 229.914482,318.478135 211.375443,321.705692 C202.515039,323.24401 193.731302,324.970316 185.057279,326.913735 C181.057341,327.395618 177.053437,327.882796 173.050855,328.355412 C160.104592,329.88314 144.308406,331.360561 134.608622,337.877896 C126.064141,343.620776 129.98609,351.83794 137.766537,356.799746 C147.347354,362.911981 161.167365,366.081288 173.633794,368.514532 C195.805295,372.840888 219.512793,374.722085 242.940057,374.722085 C252.505011,374.722085 262.027666,374.408332 271.373192,373.819217 C290.077463,372.639662 308.820067,369.935028 325.823109,364.48472 C340.536694,359.770475 353.378531,352.153017 354.40297,340.630189 C355.427409,329.067646 341.747515,320.222975 326.846226,316.042243 C316.197349,313.055628 304.913981,311.962124 293.543371,311.962124" id="Fill-6" fill="#16B0C6" mask="url(#mask-2)"></path>
            <path d="M74.999334,462 C71.1393778,462 68,458.860622 68,454.999334 C68,451.139378 71.1393778,448 74.999334,448 C78.8606222,448 82,451.139378 82,454.999334 C82,458.860622 78.8606222,462 74.999334,462 M70.2190087,454.419941 C70.0978023,454.419941 69.9672724,454.466559 69.8407383,454.539815 C69.4904386,454.692988 69.2426981,455.067263 69.1028446,455.402911 C68.9909618,455.670631 68.9070498,455.935686 68.8897346,456.227381 C68.8764152,456.409856 68.944344,456.555038 68.9909618,456.724194 C69.0508991,456.933308 69.2000761,457.062506 69.3972029,457.062506 C69.4424888,457.062506 69.4904386,457.055846 69.5397203,457.042527 C69.868709,456.946627 70.1271049,456.650937 70.2909333,456.365902 L70.3215679,456.312625 C70.4361145,456.147465 70.5200266,456.008943 70.6039387,455.803825 C70.7384645,455.462848 70.7597755,455.097897 70.6305775,454.754257 C70.5413376,454.511845 70.3894967,454.419941 70.2190087,454.419941 M73.6567406,448.82447 C72.0224527,448.82447 70.0684997,450.545333 69.7142042,451.941204 C69.3945391,453.191894 70.4108077,453.849872 71.4403958,453.849872 C71.6987917,453.849872 71.9571877,453.808581 72.1969365,453.723337 C73.3703739,453.310437 76.8387404,449.796784 74.313386,448.929693 C74.1042717,448.857768 73.88317,448.82447 73.6567406,448.82447" id="Fill-13" fill="#52BDD0" mask="url(#mask-2)"></path>
            <path d="M75.4993251,448.407594 C71.5876901,448.407594 68.4062809,451.588717 68.4062809,455.5 C68.4062809,459.412633 71.5876901,462.593756 75.4993251,462.593756 C79.4123099,462.593756 82.5937191,459.412633 82.5937191,455.5 C82.5937191,451.588717 79.4123099,448.407594 75.4993251,448.407594 M75.4993251,463 C71.3636282,463 68,459.635325 68,455.5 C68,451.364675 71.3636282,448 75.4993251,448 C79.635022,448 83,451.364675 83,455.5 C83,459.635325 79.635022,463 75.4993251,463" id="Fill-14" fill="#E8F5F8" mask="url(#mask-2)"></path>
            <path d="M72.6064049,454 C71.6803769,454 70.7663285,453.345349 71.0538405,452.100981 C71.3724995,450.712165 73.1299162,449 74.5998209,449 C74.8034752,449 75.0023376,449.03313 75.1904184,449.104691 C77.4617626,449.9674 74.3422582,453.463292 73.2868498,453.874105 C73.0712159,453.958919 72.8388104,454 72.6064049,454" id="Fill-15" fill="#AEDCE0" mask="url(#mask-2)"></path>
            <path d="M69.5567918,456 C69.3412269,456 69.1780968,455.902218 69.1125534,455.743952 C69.0615752,455.615927 68.9872927,455.506048 69.0018579,455.367944 C69.0207927,455.147177 69.1125534,454.946573 69.234901,454.743952 C69.3878355,454.489919 69.6587481,454.206653 70.0418127,454.090726 C70.180182,454.035282 70.3229209,454 70.4554642,454 C70.6418987,454 70.8079419,454.069556 70.9055287,454.253024 C71.046811,454.513105 71.0235067,454.789315 70.8763983,455.047379 C70.7846376,455.202621 70.6928768,455.30746 70.5676162,455.43246 L70.5341162,455.472782 C70.3549644,455.688508 70.0723996,455.912298 69.7126393,455.984879 C69.6587481,455.99496 69.6063134,456 69.5567918,456" id="Fill-16" fill="#AEDCE0" mask="url(#mask-2)"></path>
            <path d="M50.5006054,441 C48.5692787,441 47,439.430993 47,437.5 C47,435.570218 48.5692787,434 50.5006054,434 C52.4295105,434 54,435.570218 54,437.5 C54,439.430993 52.4295105,441 50.5006054,441 M48.1091507,437.209443 C48.0486075,437.209443 47.9832209,437.233656 47.920256,437.271186 C47.74347,437.346247 47.6211728,437.532688 47.5509427,437.702179 C47.495243,437.83414 47.4528628,437.968523 47.4443868,438.113801 L47.495243,438.361985 C47.5255146,438.467312 47.5993773,438.531477 47.6986681,438.531477 C47.7204636,438.531477 47.7446809,438.529056 47.770109,438.521792 C47.9335755,438.473366 48.0631379,438.325666 48.1454766,438.182809 L48.1600069,438.156174 L48.3016779,437.901937 C48.3694862,437.731235 48.380384,437.548426 48.3149974,437.377724 C48.2701955,437.256659 48.195122,437.209443 48.1091507,437.209443 M49.8261546,434.414044 C49.008822,434.414044 48.0340771,435.274818 47.8572911,435.969734 C47.6974572,436.595642 48.203598,436.924939 48.7182148,436.924939 C48.8477772,436.924939 48.9773396,436.904358 49.097215,436.861985 C49.6856945,436.656174 51.4196506,434.900726 50.1542986,434.466102 C50.0501643,434.429782 49.9399758,434.414044 49.8261546,434.414044" id="Fill-17" fill="#52BDD0" mask="url(#mask-2)"></path>
            <path d="M51.5014725,433.242925 C49.1528141,433.242925 47.2444372,435.152462 47.2444372,437.499264 C47.2444372,439.847538 49.1528141,441.755603 51.5014725,441.755603 C53.8471859,441.755603 55.7570353,439.847538 55.7570353,437.499264 C55.7570353,435.152462 53.8471859,433.242925 51.5014725,433.242925 M51.5014725,442 C49.0188154,442 47,439.980043 47,437.499264 C47,435.018485 49.0188154,433 51.5014725,433 C53.9811846,433 56,435.018485 56,437.499264 C56,439.980043 53.9811846,442 51.5014725,442" id="Fill-18" fill="#E8F5F8" mask="url(#mask-2)"></path>
            <path d="M48.9619116,437 C48.4063038,437 47.8598472,436.606557 48.0324124,435.858727 C48.22328,435.028447 49.2756666,434 50.1581026,434 C50.2809899,434 50.3999554,434.018804 50.5123842,434.062199 C51.8785258,434.581485 50.0064543,436.678881 49.3711004,436.924783 C49.2416765,436.97541 49.101794,437 48.9619116,437" id="Fill-19" fill="#AEDCE0" mask="url(#mask-2)"></path>
            <path d="M48.21,438 C48.128,438 48.067,437.951465 48.042,437.871795 L48,437.684066 C48.007,437.574176 48.042,437.472527 48.088,437.372711 C48.146,437.244505 48.247,437.10348 48.393,437.046703 C48.445,437.018315 48.499,437 48.549,437 C48.62,437 48.682,437.035714 48.719,437.127289 C48.773,437.25641 48.764,437.394689 48.708,437.52381 L48.591,437.716117 L48.579,437.736264 C48.511,437.844322 48.404,437.956044 48.269,437.992674 C48.248,437.998168 48.228,438 48.21,438" id="Fill-20" fill="#AEDCE0" mask="url(#mask-2)"></path>
            <path d="M73.9993539,411 C69.0357527,411 65,406.880267 65,401.813378 C65,398.5168 66.7083782,395.622565 69.2670687,394 C69.6379496,394.075192 70.0049537,394.151703 70.3745423,394.228214 C68.8716347,395.002561 67.5263838,396.507721 67.2046091,397.799177 C66.7949602,399.440211 68.0988585,400.302941 69.4234331,400.302941 C69.755546,400.302941 70.0889511,400.248855 70.3978031,400.138046 C71.5608443,399.719873 74.4865389,396.875766 74.2629765,395.077753 C76.7325005,395.641034 79.180056,396.246528 81.6017661,396.898192 C82.4869696,398.320245 83,400.00613 83,401.813378 C83,406.880267 78.9642473,411 73.9993539,411 M67.8533276,401.050904 C67.6982554,401.050904 67.5302606,401.111585 67.3687271,401.209203 C66.9177256,401.408396 66.5998277,401.900442 66.4189102,402.342361 C66.2741762,402.693257 66.1682102,403.040196 66.1449494,403.422752 C66.1268576,403.661519 66.2134396,403.856755 66.2741762,404.075735 C66.3517123,404.35012 66.5416756,404.520292 66.7962524,404.520292 C66.8544045,404.520292 66.9164333,404.511058 66.9810467,404.492589 C67.4049106,404.368589 67.7357312,403.978117 67.9489554,403.607434 L67.9851389,403.53488 C68.1311652,403.318538 68.241008,403.139132 68.3469739,402.868705 C68.5227224,402.42151 68.5472755,401.940017 68.3831574,401.492822 C68.2681456,401.173586 68.0730131,401.050904 67.8533276,401.050904" id="Fill-21" fill="#52BDD0" mask="url(#mask-2)"></path>
            <path d="M82,397 C79.4476689,396.389935 76.8680985,395.823094 74.2653745,395.29577 C74.1959141,394.798086 73.8363541,394.386848 73.0573075,394.144798 C72.7726558,394.055881 72.4743845,394.015128 72.1665794,394.015128 C71.5155579,394.015128 70.8264013,394.197901 70.167208,394.500463 C69.7776847,394.428836 69.3908853,394.357209 69,394.286817 C70.4504976,393.471751 72.1597695,393 73.9875327,393 C77.3543216,393 80.3152436,394.596789 82,397" id="Fill-22" fill="#5AC0CE" mask="url(#mask-2)"></path>
            <path d="M73.5,392.513514 C68.5442075,392.513514 64.5148037,396.544208 64.5148037,401.5 C64.5148037,406.455792 68.5442075,410.485196 73.5,410.485196 C78.4570827,410.485196 82.4864865,406.455792 82.4864865,401.5 C82.4864865,396.544208 78.4570827,392.513514 73.5,392.513514 M73.5,411 C68.2642265,411 64,406.735773 64,401.5 C64,396.261646 68.2642265,392 73.5,392 C78.7383539,392 83,396.261646 83,401.5 C83,406.735773 78.7383539,411 73.5,411" id="Fill-23" fill="#E8F5F8" mask="url(#mask-2)"></path>
            <path d="M69.2482015,400 C67.9508947,400 66.6738385,399.147883 67.0750544,397.527036 C67.390205,396.251466 68.7077625,394.764821 70.1797311,394 C71.4529903,394.268404 72.7249838,394.548534 73.9881176,394.839088 C74.2070777,396.614984 71.3416117,399.424104 70.2025131,399.837134 C69.9000191,399.94658 69.5734775,400 69.2482015,400" id="Fill-24" fill="#AEDCE0" mask="url(#mask-2)"></path>
            <path d="M75,395 C73.6733134,394.784957 72.3373214,394.577628 71,394.378978 C71.6434031,394.142719 72.3160518,394 72.9514789,394 C73.2519109,394 73.5430376,394.031823 73.8208707,394.101254 C74.5812562,394.29026 74.9322034,394.611379 75,395" id="Fill-25" fill="#AFDCDF" mask="url(#mask-2)"></path>
            <path d="M66.5561338,405 C66.3395665,405 66.1779655,404.852852 66.1120059,404.615589 C66.0603375,404.426236 65.9866827,404.257414 66.0020732,404.050951 C66.0218611,403.720152 66.1120059,403.420152 66.2351305,403.11673 C66.3890362,402.734601 66.6594705,402.309125 67.0431354,402.136882 C67.1805512,402.052471 67.3234637,402 67.4553828,402 C67.6422683,402 67.8082666,402.106084 67.9061067,402.382129 C68.0457211,402.768821 68.0248339,403.185171 67.8753255,403.571863 C67.7851808,403.805703 67.691738,403.960837 67.5675141,404.147909 L67.536733,404.210646 C67.3553441,404.531179 67.0739165,404.868821 66.7133375,404.976046 C66.6583711,404.992015 66.6056035,405 66.5561338,405" id="Fill-26" fill="#AEDCE0" mask="url(#mask-2)"></path>
            <path d="M114.176123,322 C108.93227,322 103.683215,321.916452 98.4328605,321.752009 C97.5213948,320.118184 97,318.229737 97,316.219284 C97,310.032764 101.934397,305 108,305 C114.065603,305 119,310.032764 119,316.219284 C119,318.329199 118.426596,320.30252 117.430615,321.989391 C116.347518,321.997348 115.26052,322 114.176123,322 M100.487234,315.288322 C100.2974,315.288322 100.091962,315.363913 99.8956265,315.481941 C99.3417258,315.72728 98.9542553,316.326703 98.7345154,316.866448 C98.5589835,317.294797 98.4276596,317.717841 98.3990544,318.185974 C98.3782506,318.477728 98.4835697,318.713784 98.5589835,318.982994 C98.6539007,319.318512 98.886643,319.525392 99.1973995,319.525392 C99.2676123,319.525392 99.343026,319.514783 99.4223404,319.492238 C99.9385343,319.33973 100.345508,318.86364 100.604255,318.408768 L100.651064,318.322568 C100.829196,318.058663 100.96182,317.838521 101.093144,317.508308 C101.306383,316.963258 101.337589,316.377096 101.136052,315.826742 C100.994326,315.438178 100.756383,315.288322 100.487234,315.288322 M105.887116,306.32483 C103.320449,306.32483 100.251891,309.084562 99.6953901,311.316483 C99.1947991,313.320306 100.788889,314.375926 102.405083,314.375926 C102.812057,314.375926 103.220331,314.308292 103.5974,314.173024 C105.439835,313.513925 110.890426,307.883064 106.919504,306.493252 C106.590544,306.377877 106.243381,306.32483 105.887116,306.32483" id="Fill-27" fill="#52BDD0" mask="url(#mask-2)"></path>
            <path d="M107.56827,326 C103.473342,326 99.893368,323.983438 98,321 C103.250975,321.144623 108.50065,321.218101 113.745124,321.218101 C114.829649,321.218101 115.916775,321.215769 117,321.208771 C115.074122,324.07791 111.56697,326 107.56827,326" id="Fill-28" fill="#5AC0CE" mask="url(#mask-2)"></path>
            <path d="M108.999329,304.648068 C102.740035,304.648068 97.6480684,309.740035 97.6480684,315.999329 C97.6480684,322.258624 102.740035,327.349248 108.999329,327.349248 C115.258624,327.349248 120.35059,322.258624 120.35059,315.999329 C120.35059,309.740035 115.258624,304.648068 108.999329,304.648068 M108.999329,328 C102.383127,328 97,322.615531 97,315.999329 C97,309.383127 102.383127,304 108.999329,304 C115.615531,304 121,309.383127 121,315.999329 C121,322.615531 115.615531,328 108.999329,328" id="Fill-29" fill="#E8F5F8" mask="url(#mask-2)"></path>
            <path d="M102.8888,315 C101.223318,315 99.5806146,313.819964 100.096472,311.57997 C100.669944,309.084994 103.832082,306 106.477023,306 C106.844152,306 107.201903,306.059298 107.540894,306.188272 C111.632915,307.741888 106.016101,314.036403 104.117478,314.773184 C103.728911,314.924395 103.308186,315 102.8888,315" id="Fill-30" fill="#AEDCE0" mask="url(#mask-2)"></path>
            <path d="M98.8358434,318 C98.5115746,318 98.2687122,317.804695 98.1696678,317.48795 C98.090975,317.233803 97.9810763,317.010955 98.0027847,316.735524 C98.0326337,316.293584 98.1696678,315.89421 98.3528322,315.489828 C98.5821268,314.980282 98.9864452,314.414397 99.5644305,314.182786 C99.7693032,314.071362 99.9836733,314 100.181762,314 C100.462614,314 100.710904,314.141471 100.858792,314.508294 C101.069092,315.027856 101.036529,315.581221 100.814018,316.095775 C100.676984,316.407512 100.538594,316.615336 100.352716,316.864476 L100.303872,316.945853 C100.033874,317.375274 99.609204,317.824726 99.0705651,317.968701 C98.9878019,317.989984 98.9091091,318 98.8358434,318" id="Fill-31" fill="#AEDCE0" mask="url(#mask-2)"></path>
            <path d="M69.5006985,294 C65.9143471,294 63,291.08534 63,287.5 C63,283.91466 65.9143471,281 69.5006985,281 C73.0856529,281 76,283.91466 76,287.5 C76,291.08534 73.0856529,294 69.5006985,294 M65.06072,286.960662 C64.9489522,286.960662 64.8274046,287.003977 64.7114455,287.072442 C64.3845244,287.214961 64.1540032,287.562876 64.0254702,287.874463 C63.9192907,288.121776 63.8438474,288.369089 63.8256851,288.638758 C63.8131112,288.809222 63.8759807,288.946152 63.9192907,289.101247 C63.9765717,289.295464 64.1148845,289.417025 64.2979044,289.417025 C64.3398173,289.417025 64.3845244,289.410039 64.4306287,289.397463 C64.7351961,289.30804 64.975497,289.032782 65.1291779,288.768702 L65.1557227,288.718401 C65.2619022,288.566101 65.3401397,288.438951 65.4169801,288.246131 C65.5441161,287.93175 65.5622783,287.589424 65.4421279,287.273646 C65.3596991,287.048689 65.2199893,286.960662 65.06072,286.960662 M68.2502955,281.767089 C66.7330467,281.767089 64.9210102,283.365542 64.5926921,284.659394 C64.2965073,285.820507 65.2395486,286.432502 66.1951639,286.432502 C66.4354648,286.432502 66.6757657,286.393379 66.8979044,286.315133 C67.9876411,285.932287 71.2079527,282.669712 68.8622246,281.864897 C68.6666308,281.797829 68.4612574,281.767089 68.2502955,281.767089" id="Fill-32" fill="#52BDD0" mask="url(#mask-2)"></path>
            <path d="M69.5,281.352816 C66.1079488,281.352816 63.3514942,284.10927 63.3514942,287.5 C63.3514942,290.89073 66.1079488,293.647184 69.5,293.647184 C72.8907298,293.647184 75.6471844,290.89073 75.6471844,287.5 C75.6471844,284.10927 72.8907298,281.352816 69.5,281.352816 M69.5,294 C65.9163448,294 63,291.083655 63,287.5 C63,283.916345 65.9163448,281 69.5,281 C73.0823338,281 76,283.916345 76,287.5 C76,291.083655 73.0823338,294 69.5,294" id="Fill-33" fill="#E8F5F8" mask="url(#mask-2)"></path>
            <path d="M65.6060738,286 C64.6803142,286 63.7667355,285.475292 64.0536669,284.479784 C64.3717276,283.37047 66.127152,282 67.5969985,282 C67.8013694,282 68.0003265,282.026355 68.1898095,282.083857 C70.4622517,282.773884 67.3425499,285.571129 66.2868591,285.899371 C66.0716605,285.966457 65.8388672,286 65.6060738,286" id="Fill-34" fill="#AEDCE0" mask="url(#mask-2)"></path>
            <path d="M64.5578188,289 C64.3423672,289 64.1795449,288.901024 64.1121135,288.74289 C64.0611288,288.61661 63.9871187,288.505119 64.0019207,288.366325 C64.0233014,288.146758 64.1121135,287.945392 64.2371084,287.744027 C64.3884179,287.49033 64.6597883,287.207053 65.0446409,287.091013 C65.1811484,287.035267 65.3242346,287 65.4558082,287 C65.6433005,287 65.8077674,287.071672 65.9048028,287.254835 C66.0462444,287.511945 66.0248637,287.790671 65.8751988,288.046644 C65.784742,288.203641 65.6926405,288.307167 65.5676457,288.431172 L65.536397,288.472127 C65.3554834,288.687144 65.0726003,288.911263 64.7140624,288.984073 C64.6597883,288.994312 64.6071589,289 64.5578188,289" id="Fill-35" fill="#AEDCE0" mask="url(#mask-2)"></path>
            <path d="M107,246 C98.7264454,246 92,239.273855 92,231.000669 C92,222.726145 98.7264454,216 107,216 C115.273555,216 122,222.726145 122,231.000669 C122,239.273855 115.273555,246 107,246 M96.7550857,229.756078 C96.496788,229.756078 96.2170771,229.856448 95.9467345,230.015702 C95.1932548,230.340902 94.6632762,231.143864 94.3648287,231.865192 C94.122591,232.436633 93.9459315,233.004059 93.9071199,233.63037 C93.8776767,234.019806 94.0208779,234.336976 94.122591,234.695633 C94.2550857,235.143953 94.5709315,235.420975 94.9938437,235.420975 C95.0902034,235.420975 95.1932548,235.406254 95.3003212,235.376812 C96.0069593,235.172057 96.5583512,234.537717 96.9143469,233.928804 L96.9759101,233.813713 C97.2194861,233.457733 97.4014989,233.16599 97.5781585,232.723023 C97.8712527,231.993666 97.9140792,231.208101 97.637045,230.476067 C97.4456638,229.956818 97.121788,229.756078 96.7550857,229.756078 M104.117238,217.77187 C100.617505,217.77187 96.4338865,221.460142 95.6750535,224.445822 C94.9898287,227.125039 97.1659529,228.535576 99.3728587,228.535576 C99.9269272,228.535576 100.483672,228.44725 100.997591,228.266583 C103.509636,227.381987 110.942719,219.855556 105.526499,217.996699 C105.078158,217.842798 104.60439,217.77187 104.117238,217.77187" id="Fill-36" fill="#52BDD0" mask="url(#mask-2)"></path>
            <path d="M106.499346,215.839711 C98.4135269,215.839711 91.8397114,222.413527 91.8397114,230.500654 C91.8397114,238.586473 98.4135269,245.160289 106.499346,245.160289 C114.585165,245.160289 121.158981,238.586473 121.158981,230.500654 C121.158981,222.413527 114.585165,215.839711 106.499346,215.839711 M106.499346,246 C97.9544323,246 91,239.04426 91,230.500654 C91,221.95574 97.9544323,215 106.499346,215 C115.04426,215 122,221.95574 122,230.500654 C122,239.04426 115.04426,246 106.499346,246" id="Fill-37" fill="#E8F5F8" mask="url(#mask-2)"></path>
            <path d="M98.8546919,229 C96.6313679,229 94.4390545,227.558498 95.1293771,224.820465 C95.8938554,221.76924 100.108598,218 103.634367,218 C104.125143,218 104.602436,218.072485 105.054112,218.229765 C110.510626,220.129429 103.022245,227.821087 100.491511,228.725103 C99.9737694,228.909735 99.4128824,229 98.8546919,229" id="Fill-38" fill="#AEDCE0" mask="url(#mask-2)"></path>
            <path d="M95.1129247,235 C94.681369,235 94.3590679,234.755493 94.2238654,234.359792 C94.1200735,234.043232 93.9739455,233.763288 94.0039905,233.419561 C94.0435953,232.866761 94.2238654,232.365934 94.4710539,231.861564 C94.7756011,231.2249 95.3164113,230.516182 96.0852906,230.229152 C96.3611584,230.08859 96.6465861,230 96.9101628,230 C97.2843598,230 97.6148549,230.177179 97.8101475,230.635483 C98.0928438,231.281597 98.049142,231.974959 97.7500575,232.61871 C97.5697874,233.009686 97.3840546,233.267186 97.1355004,233.581384 L97.072679,233.682967 C96.7094075,234.220411 96.1467463,234.780298 95.4256659,234.961021 C95.3164113,234.987007 95.2112538,235 95.1129247,235" id="Fill-39" fill="#AEDCE0" mask="url(#mask-2)"></path>
            <path d="M464,309 C457.934397,309 453,304.066612 453,298.00065 C453,291.934689 457.934397,287 464,287 C470.065603,287 475,291.934689 475,298.00065 C475,304.066612 470.065603,309 464,309 M456.487234,297.08783 C456.296099,297.08783 456.091962,297.161948 455.894326,297.276376 C455.340426,297.518234 454.954255,298.105976 454.734515,298.633903 C454.557683,299.055204 454.426359,299.470004 454.397754,299.927714 C454.37695,300.215084 454.48227,300.446539 454.557683,300.710503 C454.6526,301.039482 454.885343,301.242331 455.196099,301.242331 C455.267612,301.242331 455.343026,301.231929 455.42104,301.209823 C455.937234,301.060287 456.344208,300.593475 456.602955,300.146167 L456.649764,300.062947 C456.827896,299.804185 456.96182,299.588333 457.091844,299.264555 C457.305083,298.730126 457.337589,298.154087 457.134752,297.615757 C456.994326,297.234766 456.755083,297.08783 456.487234,297.08783 M461.885816,288.299013 C459.319149,288.299013 456.251891,291.004965 455.69409,293.193392 C455.193499,295.158165 456.787589,296.193215 458.403783,296.193215 C458.810757,296.193215 459.219031,296.126899 459.596099,295.994267 C461.438534,295.348011 466.889125,289.826881 462.919504,288.464153 C462.589243,288.351025 462.243381,288.299013 461.885816,288.299013" id="Fill-40" fill="#52BDD0" mask="url(#mask-2)"></path>
            <path d="M464.000671,287.648105 C457.741376,287.648105 452.64941,292.740356 452.64941,299 C452.64941,305.259644 457.741376,310.350554 464.000671,310.350554 C470.259965,310.350554 475.351932,305.259644 475.351932,299 C475.351932,292.740356 470.259965,287.648105 464.000671,287.648105 M464.000671,311 C457.383127,311 452,305.616572 452,299 C452,292.382087 457.383127,287 464.000671,287 C470.615531,287 476,292.382087 476,299 C476,305.616572 470.615531,311 464.000671,311" id="Fill-41" fill="#E8F5F8" mask="url(#mask-2)"></path>
            <path d="M458.888623,298 C457.223243,298 455.58064,296.819964 456.096466,294.57997 C456.671243,292.084994 459.831847,289 462.476626,289 C462.845073,289 463.201461,289.059298 463.541772,289.188272 C467.632202,290.741888 462.015732,297.036403 460.117226,297.773184 C459.728682,297.924395 459.307983,298 458.888623,298" id="Fill-42" fill="#AEDCE0" mask="url(#mask-2)"></path>
            <path d="M454.83569,301 C454.511481,301 454.268663,300.804695 454.169637,300.48795 C454.090958,300.233803 453.98108,300.010955 454.002784,299.734272 C454.032628,299.293584 454.169637,298.89421 454.354124,298.488576 C454.583377,297.980282 454.986264,297.414397 455.564144,297.181534 C455.770335,297.071362 455.98331,297 456.182719,297 C456.462163,297 456.711763,297.141471 456.858268,297.508294 C457.069886,298.026604 457.035973,298.581221 456.813503,299.095775 C456.67785,299.407512 456.538128,299.615336 456.352284,299.864476 L456.30345,299.944601 C456.033501,300.375274 455.608909,300.824726 455.070369,300.968701 C454.988977,300.989984 454.910299,301 454.83569,301" id="Fill-43" fill="#AEDCE0" mask="url(#mask-2)"></path>
            <path d="M425.5,277 C421.91466,277 419,274.08534 419,270.5 C419,266.913263 421.91466,264 425.5,264 C429.08534,264 432,266.913263 432,270.5 C432,274.08534 429.08534,277 425.5,277 M421.059544,269.960662 C420.947764,269.960662 420.826204,270.003977 420.710232,270.072442 C420.383276,270.214961 420.154127,270.562876 420.024183,270.873065 C419.91939,271.121776 419.842541,271.369089 419.824377,271.638758 C419.813199,271.807825 419.876075,271.946152 419.91939,272.09985 C419.975279,272.295464 420.113607,272.415628 420.296647,272.415628 C420.338564,272.415628 420.383276,272.410039 420.429385,272.396066 C420.735383,272.30804 420.975709,272.032782 421.128009,271.768702 L421.155954,271.718401 C421.262145,271.564703 421.338994,271.438951 421.415843,271.246131 C421.54439,270.930353 421.562554,270.589424 421.44239,270.273646 C421.359953,270.047291 421.218831,269.960662 421.059544,269.960662 M424.25086,264.767089 C422.733448,264.767089 420.919819,266.365542 420.591466,267.659394 C420.295249,268.820507 421.238392,269.432502 422.19411,269.432502 C422.434437,269.432502 422.676161,269.393379 422.898323,269.315133 C423.98678,268.932287 427.208835,265.669712 424.861457,264.864897 C424.66724,264.797829 424.461844,264.767089 424.25086,264.767089" id="Fill-44" fill="#52BDD0" mask="url(#mask-2)"></path>
            <path d="M425.5,264.352816 C422.10927,264.352816 419.352816,267.107949 419.352816,270.5 C419.352816,273.89073 422.10927,276.647184 425.5,276.647184 C428.89073,276.647184 431.647184,273.89073 431.647184,270.5 C431.647184,267.107949 428.89073,264.352816 425.5,264.352816 M425.5,277 C421.916345,277 419,274.083655 419,270.5 C419,266.916345 421.916345,264 425.5,264 C429.083655,264 432,266.916345 432,270.5 C432,274.083655 429.083655,277 425.5,277" id="Fill-45" fill="#E8F5F8" mask="url(#mask-2)"></path>
            <path d="M421.605882,269 C420.680233,269 419.766763,268.475292 420.05366,267.479784 C420.371683,266.37047 422.128251,265 423.597922,265 C423.802268,265 424.001201,265.026355 424.189308,265.083857 C426.462832,265.773884 423.34215,268.571129 422.287939,268.899371 C422.072766,268.966457 421.838647,269 421.605882,269" id="Fill-46" fill="#AEDCE0" mask="url(#mask-2)"></path>
            <path d="M420.55713,271 C420.341798,271 420.179066,270.902106 420.113315,270.742743 C420.062359,270.61753 419.98839,270.504838 420.00154,270.367103 C420.022909,270.14741 420.113315,269.945931 420.236597,269.743312 C420.389467,269.490609 420.659043,269.207171 421.043682,269.091064 C421.180114,269.035287 421.323121,269 421.454622,269 C421.64201,269 421.80803,269.070575 421.905011,269.25498 C422.046374,269.512237 422.025006,269.789983 421.87378,270.04724 C421.783373,270.204326 421.692967,270.306773 421.568041,270.431986 L421.535166,270.472965 C421.355996,270.688105 421.07327,270.912351 420.713287,270.984064 C420.659043,270.995447 420.606443,271 420.55713,271" id="Fill-47" fill="#AEDCE0" mask="url(#mask-2)"></path>
            <path d="M463,229 C454.727784,229 448,222.272516 448,214.000669 C448,205.726145 454.727784,199 463,199 C471.273555,199 478,205.726145 478,214.000669 C478,222.272516 471.273555,229 463,229 M452.756424,212.75474 C452.496788,212.75474 452.217077,212.85511 451.948073,213.014364 C451.193255,213.340902 450.664615,214.143864 450.364829,214.863853 C450.122591,215.436633 449.94727,216.004059 449.90712,216.63037 C449.879015,217.019806 450.020878,217.336976 450.122591,217.695633 C450.255086,218.143953 450.57227,218.420975 450.993844,218.420975 C451.091542,218.420975 451.193255,218.406254 451.300321,218.375474 C452.008298,218.172057 452.55969,217.536379 452.914347,216.928804 L452.97591,216.812375 C453.220824,216.457733 453.402837,216.16599 453.578158,215.723023 C453.871253,214.993666 453.914079,214.208101 453.637045,213.476067 C453.445664,212.956818 453.121788,212.75474 452.756424,212.75474 M460.118576,200.770531 C456.617505,200.770531 452.433887,204.460142 451.675054,207.444484 C450.991167,210.125039 453.165953,211.535576 455.372859,211.535576 C455.928266,211.535576 456.483672,211.44725 456.997591,211.266583 C459.509636,210.381987 466.944058,202.855556 461.527837,200.996699 C461.078158,200.842798 460.60439,200.770531 460.118576,200.770531" id="Fill-48" fill="#52BDD0" mask="url(#mask-2)"></path>
            <path d="M462.498692,198.839747 C454.41384,198.839747 447.838439,205.41384 447.838439,213.501308 C447.838439,221.58616 454.41384,228.161561 462.498692,228.161561 C470.584852,228.161561 477.158945,221.58616 477.158945,213.501308 C477.158945,205.41384 470.584852,198.839747 462.498692,198.839747 M462.498692,229 C453.953418,229 447,222.045274 447,213.501308 C447,204.956034 453.953418,198 462.498692,198 C471.045274,198 478,204.956034 478,213.501308 C478,222.045274 471.045274,229 462.498692,229" id="Fill-49" fill="#E8F5F8" mask="url(#mask-2)"></path>
            <path d="M454.854063,212 C452.630875,212 450.440044,210.558677 451.128976,207.819617 C451.893407,204.770139 456.107892,201 459.634793,201 C460.124191,201 460.601455,201.073844 461.054451,201.231104 C466.510631,203.130532 459.02136,210.821233 456.490782,211.725137 C455.973072,211.909746 455.413567,212 454.854063,212" id="Fill-50" fill="#AEDCE0" mask="url(#mask-2)"></path>
            <path d="M451.112706,218 C450.682484,218 450.358793,217.75555 450.22358,217.359943 C450.11978,217.043458 449.975007,216.763581 450.003689,216.419934 C450.044662,215.867265 450.22358,215.366556 450.470787,214.861124 C450.776723,214.225791 451.316209,213.517241 452.086512,213.229098 C452.361035,213.088569 452.646484,213 452.911446,213 C453.284306,213 453.614826,213.178318 453.810133,213.636514 C454.092851,214.282475 454.049146,214.975673 453.750039,215.619273 C453.571121,216.010156 453.385374,216.267596 453.135435,216.580538 L453.072609,216.683278 C452.710676,217.219414 452.147972,217.78035 451.425471,217.959849 C451.316209,217.98701 451.212409,218 451.112706,218" id="Fill-51" fill="#AEDCE0" mask="url(#mask-2)"></path>
            <path d="M444.001365,474 C439.589219,474 436,470.413205 436,466.000682 C436,461.589525 439.589219,458 444.001365,458 C448.410781,458 452,461.589525 452,466.000682 C452,470.413205 448.410781,474 444.001365,474 M438.537018,465.337371 C438.399181,465.337371 438.249062,465.3906 438.105766,465.473855 C437.703173,465.648554 437.42204,466.077113 437.262368,466.460633 C437.132719,466.767722 437.038553,467.067986 437.016718,467.402371 C437.003071,467.611192 437.07813,467.779067 437.132719,467.971509 C437.20232,468.210356 437.371546,468.359123 437.598089,468.359123 C437.649949,468.359123 437.704538,468.350934 437.760491,468.334556 C438.137155,468.225369 438.431934,467.885524 438.621631,467.562057 L438.655749,467.50064 C438.784033,467.312292 438.882293,467.155336 438.976459,466.919219 C439.132037,466.53024 439.155237,466.112599 439.007847,465.720891 C438.905493,465.443828 438.732173,465.337371 438.537018,465.337371 M442.463323,458.944468 C440.596383,458.944468 438.365063,460.912565 437.959741,462.503967 C437.596725,463.932952 438.756738,464.684978 439.931764,464.684978 C440.227909,464.684978 440.524053,464.638574 440.798362,464.54167 C442.137155,464.070801 446.101672,460.056811 443.21392,459.064574 C442.975094,458.982684 442.72262,458.944468 442.463323,458.944468" id="Fill-52" fill="#52BDD0" mask="url(#mask-2)"></path>
            <path d="M443.001291,458.432467 C438.827659,458.432467 435.432467,461.827659 435.432467,466 C435.432467,470.173632 438.827659,473.566242 443.001291,473.566242 C447.172341,473.566242 450.567533,470.173632 450.567533,466 C450.567533,461.827659 447.172341,458.432467 443.001291,458.432467 M443.001291,474 C438.588833,474 435,470.409876 435,466 C435,461.588833 438.588833,458 443.001291,458 C447.409876,458 451,461.588833 451,466 C451,470.409876 447.409876,474 443.001291,474" id="Fill-53" fill="#E8F5F8" mask="url(#mask-2)"></path>
            <path d="M438.926852,464 C437.81685,464 436.721029,463.344983 437.063957,462.100333 C437.446849,460.714218 439.554692,459 441.318319,459 C441.563267,459 441.801769,459.033286 442.027379,459.104612 C444.755328,459.968854 441.0102,463.46505 439.745494,463.875178 C439.486365,463.959582 439.206608,464 438.926852,464" id="Fill-54" fill="#AEDCE0" mask="url(#mask-2)"></path>
            <path d="M437.557469,468 C437.340846,468 437.179031,467.852304 437.112478,467.615176 C437.06028,467.424119 436.988507,467.257453 437.001557,467.050136 C437.022436,466.718157 437.112478,466.420054 437.236449,466.115176 C437.38913,465.734417 437.657951,465.308943 438.042914,465.135501 C438.179934,465.052846 438.32348,465 438.45528,465 C438.641889,465 438.807619,465.105691 438.905491,465.380759 C439.046426,465.769648 439.024242,466.184282 438.875477,466.570461 C438.785435,466.804878 438.691478,466.960705 438.568812,467.147696 L438.536188,467.208672 C438.354799,467.52981 438.072928,467.867209 437.712759,467.97561 C437.659256,467.99187 437.607058,468 437.557469,468" id="Fill-55" fill="#AEDCE0" mask="url(#mask-2)"></path>
            <path d="M417.500698,451 C415.017217,451 413,448.9817 413,446.5 C413,444.0183 415.017217,442 417.500698,442 C419.982783,442 422,444.0183 422,446.5 C422,448.9817 419.982783,451 417.500698,451 M414.42671,446.127326 C414.348534,446.127326 414.264774,446.156638 414.185202,446.204094 C413.959051,446.301799 413.798511,446.543269 413.710563,446.759615 C413.636575,446.931297 413.583527,447.102978 413.570963,447.288617 L413.636575,447.608251 C413.675663,447.743641 413.770591,447.825993 413.897627,447.825993 C413.926943,447.825993 413.957655,447.821805 413.989763,447.812035 C414.200558,447.752016 414.368078,447.560794 414.474174,447.379342 L414.492322,447.343052 C414.56631,447.236973 414.619358,447.150434 414.672406,447.016439 C414.76175,446.798697 414.774314,446.56281 414.690554,446.343672 C414.633318,446.187345 414.536994,446.127326 414.42671,446.127326 M416.635179,442.531793 C415.585389,442.531793 414.330386,443.638648 414.102839,444.534739 C413.897627,445.33871 414.549558,445.761632 415.212657,445.761632 C415.378781,445.761632 415.544905,445.735112 415.69986,445.680676 C416.453699,445.415478 418.681712,443.157103 417.058167,442.600186 C416.924151,442.554125 416.781759,442.531793 416.635179,442.531793" id="Fill-56" fill="#5AC0CE" mask="url(#mask-2)"></path>
            <path d="M416.5,442.242958 C414.150968,442.242958 412.242958,444.152289 412.242958,446.5 C412.242958,448.847711 414.150968,450.757042 416.5,450.757042 C418.847711,450.757042 420.755722,448.847711 420.755722,446.5 C420.755722,444.152289 418.847711,442.242958 416.5,442.242958 M416.5,451 C414.018926,451 412,448.981074 412,446.5 C412,444.018926 414.018926,442 416.5,442 C418.981074,442 421,444.018926 421,446.5 C421,448.981074 418.981074,451 416.5,451" id="Fill-57" fill="#E8F5F8" mask="url(#mask-2)"></path>
            <path d="M414.964182,446 C414.407386,446 413.859968,445.607174 414.032282,444.860415 C414.223351,444.02809 415.27716,443 416.158655,443 C416.281736,443 416.401301,443.020743 416.513832,443.063526 C417.877102,443.580812 416.006269,445.678479 415.37328,445.924806 C415.243166,445.975367 415.103674,446 414.964182,446" id="Fill-58" fill="#AFDCDF" mask="url(#mask-2)"></path>
            <path d="M413.234,448 C413.143,448 413.075,447.90304 413.047,447.743632 L413,447.367297 C413.009,447.148726 413.047,446.94659 413.1,446.744454 C413.163,446.489729 413.278,446.205423 413.44,446.090386 C413.497,446.034511 413.557,446 413.613,446 C413.692,446 413.761,446.070666 413.802,446.254725 C413.862,446.512736 413.853,446.790468 413.789,447.046836 C413.751,447.204601 413.713,447.306491 413.66,447.431389 L413.647,447.474117 C413.571,447.687757 413.451,447.912901 413.3,447.983566 C413.277,447.99507 413.255,448 413.234,448" id="Fill-59" fill="#AFDCDF" mask="url(#mask-2)"></path>
            <path d="M442.001288,417 C436.484934,417 432,412.515066 432,407 C432,401.483647 436.484934,397 442.001288,397 C447.515066,397 452,401.483647 452,407 C452,412.515066 447.515066,417 442.001288,417 M435.171517,406.170744 C434.99897,406.170744 434.810971,406.237703 434.631986,406.343291 C434.128509,406.559619 433.776977,407.095287 433.577389,407.575586 C433.416431,407.956734 433.297965,408.335308 433.270925,408.753799 C433.252897,409.012619 433.348184,409.225084 433.416431,409.463302 C433.503992,409.76204 433.715169,409.947463 433.997167,409.947463 C434.06155,409.947463 434.129797,409.937162 434.200618,409.917847 C434.671903,409.781355 435.038887,409.357713 435.277105,408.953387 L435.317023,408.874839 C435.480556,408.639196 435.601597,408.443472 435.720062,408.148596 C435.914499,407.663147 435.942828,407.139068 435.758692,406.651043 C435.631213,406.304661 435.414885,406.170744 435.171517,406.170744 M440.078805,398.180788 C437.745558,398.180788 434.956477,400.640227 434.450425,402.629668 C433.993304,404.415658 435.444502,405.356941 436.915014,405.356941 C437.284574,405.356941 437.655421,405.297708 437.99794,405.176668 C439.673191,404.586917 444.62941,399.570178 441.0188,398.331445 C440.718774,398.228432 440.403296,398.180788 440.078805,398.180788" id="Fill-60" fill="#52BDD0" mask="url(#mask-2)"></path>
            <path d="M442.5,397.569088 C437.021739,397.569088 432.567775,402.022045 432.567775,407.500639 C432.567775,412.977955 437.021739,417.43219 442.5,417.43219 C447.975703,417.43219 452.429668,412.977955 452.429668,407.500639 C452.429668,402.022045 447.975703,397.569088 442.5,397.569088 M442.5,418 C436.709719,418 432,413.289995 432,407.500639 C432,401.712563 436.709719,397 442.5,397 C448.287724,397 453,401.712563 453,407.500639 C453,413.289995 448.287724,418 442.5,418" id="Fill-61" fill="#E8F5F8" mask="url(#mask-2)"></path>
            <path d="M437.890213,405 C436.223697,405 434.579071,404.081823 435.097121,402.339673 C435.670624,400.399067 438.831458,398 441.475702,398 C441.843444,398 442.200971,398.046474 442.540987,398.146959 C446.632852,399.355284 441.016024,404.248879 439.11748,404.824152 C438.729307,404.942221 438.30903,405 437.890213,405" id="Fill-62" fill="#AEDCE0" mask="url(#mask-2)"></path>
            <path d="M433.83612,410 C433.512449,410 433.270065,409.803614 433.169565,409.487214 C433.091234,409.234913 432.981865,409.009887 433.002557,408.735765 C433.033594,408.292533 433.169565,407.891579 433.354309,407.487896 C433.583391,406.979202 433.986871,406.411865 434.564749,406.182748 C434.770184,406.070917 434.985965,406 435.18401,406 C435.463343,406 435.711638,406.141834 435.857955,406.508694 C436.069302,407.025571 436.036787,407.580634 435.813617,408.094783 C435.677646,408.407092 435.538718,408.614388 435.351019,408.863962 L435.305202,408.947153 C435.031782,409.375384 434.610566,409.824071 434.069636,409.968633 C433.988349,409.98909 433.910018,410 433.83612,410" id="Fill-63" fill="#AEDCE0" mask="url(#mask-2)"></path>
        </g>
    </g>
</svg>