<?xml version="1.0" encoding="UTF-8"?>
<svg width="120px" height="120px" viewBox="0 0 120 120" version="1.1" xmlns="http://www.w3.org/2000/svg" xmlns:xlink="http://www.w3.org/1999/xlink">
    <!-- Generator: Sketch 51.1 (57501) - http://www.bohemiancoding.com/sketch -->
    <title>Concrete mixer</title>
    <desc>Created with Sketch.</desc>
    <defs></defs>
    <g id="Concrete-mixer" stroke="none" stroke-width="1" fill="none" fill-rule="evenodd">
        <g id="Group" transform="translate(2.000000, 25.000000)" fill-rule="nonzero">
            <polygon id="Shape" fill="#736F7B" points="71.0453674 40.8619792 73.7507987 33.3921875 82.4600639 36.5354167 79.7546326 44.0052083"></polygon>
            <path d="M70.4894569,42.7848958 L62.8549521,40.0114583 L66.9316294,28.8067708 L74.5661342,31.5802083 C75.6038339,31.95 76.1226837,33.0963542 75.7520767,34.1317708 L73.0466454,41.6015625 C72.6760383,42.6 71.5271565,43.1546875 70.4894569,42.7848958 Z" id="Shape" fill="#6D9EB3"></path>
            <polygon id="Shape" fill="#8D8A94" points="65.8198083 42.9328125 67.228115 38.9760417 80.7552716 43.8942708 79.3099042 47.8510417"></polygon>
            <path d="M73.2319489,25.6265625 L68.6734824,15.9010417 C68.228754,14.9395833 67.4134185,14.2 66.4127796,13.8302083 L42.4345048,5.14010417 C40.7667732,4.5484375 38.9878594,4.25260417 37.2460064,4.3265625 L7.7827476,5.25104167 L2.33482428,20.190625 L24.3118211,39.7895833 C25.6460064,40.9729167 27.1654952,41.8973958 28.8332268,42.4890625 L52.8115016,51.1791667 C53.8121406,51.5489583 54.886901,51.475 55.8504792,51.03125 L65.5974441,46.4828125 C66.5610224,46.0390625 67.3022364,45.2255208 67.6728435,44.2270833 L73.343131,28.6588542 C73.7507987,27.6604167 73.6766773,26.5880208 73.2319489,25.6265625 Z" id="Shape" fill="#94D7F2"></path>
            <path d="M1.66773163,22.0395833 C0.630031949,21.6697917 0.111182109,20.5234375 0.481789137,19.4880208 L5.92971246,4.5484375 C6.30031949,3.51302083 7.44920128,2.9953125 8.48690096,3.36510417 C9.52460064,3.73489583 10.0434505,4.88125 9.67284345,5.91666667 L4.22492013,20.85625 C3.8543131,21.8546875 2.70543131,22.409375 1.66773163,22.0395833 Z" id="Shape" fill="#6D9EB3"></path>
            <path d="M91.9105431,52.8802083 L2.33482428,52.8802083 C1.22300319,52.8802083 0.333546326,51.9927083 0.333546326,50.8833333 L0.333546326,46.9265625 C0.333546326,45.8171875 1.22300319,44.9296875 2.33482428,44.9296875 L91.9105431,44.9296875 L91.9105431,52.8802083 Z" id="Shape" fill="#736F7B"></path>
            <path d="M93.9118211,52.8802083 L2.37188498,52.8802083 L2.37188498,58.8338542 C2.37188498,59.9432292 3.26134185,60.8307292 4.37316294,60.8307292 L93.9488818,60.8307292 L93.9488818,52.8802083 L93.9118211,52.8802083 Z" id="Shape" fill="#34373E"></path>
            <path d="M101.138658,15.1614583 L87.9450479,15.1614583 C86.8332268,15.1614583 85.94377,16.0489583 85.94377,17.1583333 L85.94377,46.9635417 C85.94377,48.0729167 86.8332268,48.9604167 87.9450479,48.9604167 L92.9111821,48.9604167 L92.9111821,58.9078125 L113.813419,58.9078125 L113.813419,44.7078125 C113.813419,42.2671875 113.36869,39.8635417 112.479233,37.5708333 L104.844728,17.75 C104.251757,16.1598958 102.769329,15.1614583 101.138658,15.1614583 Z" id="Shape" fill="#7CB4CB"></path>
            <polygon id="Shape" fill="#6D9EB3" points="92.9111821 48.9234375 113.813419 48.9234375 113.813419 58.8338542 92.9111821 58.8338542"></polygon>
            <path d="M17.2702875,50.7354167 C22.3105431,50.7354167 26.3872204,54.803125 26.3872204,59.8322917 C26.3872204,64.8614583 22.3105431,68.9291667 17.2702875,68.9291667 C12.2300319,68.9291667 8.15335463,64.8614583 8.15335463,59.8322917 C8.15335463,54.803125 12.2300319,50.7354167 17.2702875,50.7354167 Z" id="Shape" fill="#EDEDEE"></path>
            <path d="M17.2702875,52.8802083 C13.4159744,52.8802083 10.3028754,55.9864583 10.3028754,59.8322917 C10.3028754,63.678125 13.4159744,66.784375 17.2702875,66.784375 C21.1246006,66.784375 24.2376997,63.678125 24.2376997,59.8322917 C24.2376997,56.0234375 21.1246006,52.8802083 17.2702875,52.8802083 Z M17.2702875,70.778125 C11.229393,70.778125 6.33738019,65.8598958 6.33738019,59.8692708 C6.33738019,53.8416667 11.229393,48.9604167 17.2702875,48.9604167 C23.3111821,48.9604167 28.2031949,53.8786458 28.2031949,59.8692708 C28.2031949,65.8598958 23.3111821,70.778125 17.2702875,70.778125 Z" id="Shape" fill="#514B5A"></path>
            <path d="M17.2702875,55.8755208 C19.456869,55.8755208 21.2357827,57.6505208 21.2357827,59.8322917 C21.2357827,62.0140625 19.456869,63.7890625 17.2702875,63.7890625 C15.0837061,63.7890625 13.3047923,62.0140625 13.3047923,59.8322917 C13.3047923,57.6505208 15.0837061,55.8755208 17.2702875,55.8755208 Z" id="Shape" fill="#7CB4CB"></path>
            <path d="M39.1731629,50.7354167 C44.2134185,50.7354167 48.2900958,54.803125 48.2900958,59.8322917 C48.2900958,64.8614583 44.2134185,68.9291667 39.1731629,68.9291667 C34.1329073,68.9291667 30.05623,64.8614583 30.05623,59.8322917 C30.05623,54.803125 34.1329073,50.7354167 39.1731629,50.7354167 Z" id="Shape" fill="#EDEDEE"></path>
            <path d="M39.1731629,52.8802083 C35.3188498,52.8802083 32.2057508,55.9864583 32.2057508,59.8322917 C32.2057508,63.678125 35.3188498,66.784375 39.1731629,66.784375 C43.027476,66.784375 46.1405751,63.678125 46.1405751,59.8322917 C46.1405751,56.0234375 43.027476,52.8802083 39.1731629,52.8802083 Z M39.1731629,70.778125 C33.1322684,70.778125 28.2402556,65.8598958 28.2402556,59.8692708 C28.2402556,53.8416667 33.1693291,48.9604167 39.1731629,48.9604167 C45.2140575,48.9604167 50.1060703,53.8786458 50.1060703,59.8692708 C50.1060703,65.8598958 45.2140575,70.778125 39.1731629,70.778125 Z" id="Shape" fill="#514B5A"></path>
            <path d="M39.1731629,55.8755208 C41.3597444,55.8755208 43.1386581,57.6505208 43.1386581,59.8322917 C43.1386581,62.0140625 41.3597444,63.7890625 39.1731629,63.7890625 C36.9865815,63.7890625 35.2076677,62.0140625 35.2076677,59.8322917 C35.170607,57.6505208 36.9865815,55.8755208 39.1731629,55.8755208 Z" id="Shape" fill="#7CB4CB"></path>
            <path d="M92.9111821,50.7354167 C97.9514377,50.7354167 102.028115,54.803125 102.028115,59.8322917 C102.028115,64.8614583 97.9514377,68.9291667 92.9111821,68.9291667 C87.8709265,68.9291667 83.7942492,64.8614583 83.7942492,59.8322917 C83.7942492,54.803125 87.8709265,50.7354167 92.9111821,50.7354167 Z" id="Shape" fill="#EDEDEE"></path>
            <path d="M92.9111821,52.8802083 C89.056869,52.8802083 85.94377,55.9864583 85.94377,59.8322917 C85.94377,63.678125 89.056869,66.784375 92.9111821,66.784375 C96.7654952,66.784375 99.8785942,63.678125 99.8785942,59.8322917 C99.8785942,56.0234375 96.7654952,52.8802083 92.9111821,52.8802083 Z M92.9111821,70.778125 C86.8702875,70.778125 81.9782748,65.8598958 81.9782748,59.8692708 C81.9782748,53.8416667 86.9073482,48.9604167 92.9111821,48.9604167 C98.9520767,48.9604167 103.844089,53.8786458 103.844089,59.8692708 C103.844089,65.8598958 98.9520767,70.778125 92.9111821,70.778125 Z" id="Shape" fill="#514B5A"></path>
            <path d="M92.9111821,55.8755208 C95.0977636,55.8755208 96.8766773,57.6505208 96.8766773,59.8322917 C96.8766773,62.0140625 95.0977636,63.7890625 92.9111821,63.7890625 C90.7246006,63.7890625 88.9456869,62.0140625 88.9456869,59.8322917 C88.9456869,57.6505208 90.7246006,55.8755208 92.9111821,55.8755208 Z" id="Shape" fill="#7CB4CB"></path>
            <path d="M111.812141,60.8307292 L113.813419,60.8307292 C114.92524,60.8307292 115.814696,59.9432292 115.814696,58.8338542 L115.814696,54.8770833 C115.814696,53.7677083 114.92524,52.8802083 113.813419,52.8802083 L111.812141,52.8802083 C110.700319,52.8802083 109.810863,53.7677083 109.810863,54.8770833 L109.810863,58.8338542 C109.810863,59.9432292 110.700319,60.8307292 111.812141,60.8307292 Z" id="Shape" fill="#34373E"></path>
            <path d="M111.812141,44.9296875 L113.813419,44.9296875 L113.813419,50.8833333 L111.812141,50.8833333 C110.700319,50.8833333 109.810863,49.9958333 109.810863,48.8864583 L109.810863,46.8895833 C109.810863,45.8171875 110.700319,44.9296875 111.812141,44.9296875 Z" id="Shape" fill="#54D7ED"></path>
            <path d="M100.508626,19.1182292 L91.9105431,19.1182292 C90.798722,19.1182292 89.9092652,20.0057292 89.9092652,21.1151042 L89.9092652,31.0625 C89.9092652,32.171875 90.798722,33.059375 91.9105431,33.059375 L106.51246,33.059375 C107.513099,33.059375 108.217252,32.0609375 107.846645,31.0994792 L104.214696,21.7067708 C103.658786,20.1536458 102.176358,19.1182292 100.508626,19.1182292 Z" id="Shape" fill="#54D7ED"></path>
            <path d="M56.0728435,52.8802083 L70.0076677,52.8802083 C71.1194888,52.8802083 72.0089457,53.7677083 72.0089457,54.8770833 L72.0089457,60.8307292 C72.0089457,61.9401042 71.1194888,62.8276042 70.0076677,62.8276042 L56.0728435,62.8276042 C54.9610224,62.8276042 54.0715655,61.9401042 54.0715655,60.8307292 L54.0715655,54.8770833 C54.1086262,53.7677083 54.9980831,52.8802083 56.0728435,52.8802083 Z" id="Shape" fill="#8D8A94"></path>
            <path d="M58.0741214,54.8770833 C59.1859425,54.8770833 60.0753994,55.7645833 60.0753994,56.8739583 C60.0753994,57.9833333 59.1859425,58.8708333 58.0741214,58.8708333 C56.9623003,58.8708333 56.0728435,57.9833333 56.0728435,56.8739583 C56.0728435,55.7645833 56.9623003,54.8770833 58.0741214,54.8770833 Z" id="Shape" fill="#635D6B"></path>
            <path d="M83.942492,19.1182292 L79.9769968,19.1182292 L79.9769968,6.878125 C79.9769968,6.36041667 79.7546326,5.84270833 79.3840256,5.47291667 L77.2715655,3.36510417 C76.9009585,2.9953125 76.9009585,2.36666667 77.2715655,1.95989583 L78.6798722,0.5546875 C79.0504792,0.184895833 79.6805112,0.184895833 80.0881789,0.5546875 L82.200639,2.6625 C83.3124601,3.771875 83.942492,5.28802083 83.942492,6.878125 L83.942492,19.1182292 Z" id="Shape" fill="#8D8A94"></path>
            <path d="M79.9769968,17.1583333 L83.942492,17.1583333 C85.0543131,17.1583333 85.94377,18.0458333 85.94377,19.1552083 L85.94377,46.9635417 C85.94377,48.0729167 85.0543131,48.9604167 83.942492,48.9604167 L79.9769968,48.9604167 C78.8651757,48.9604167 77.9757188,48.0729167 77.9757188,46.9635417 L77.9757188,19.1552083 C77.9757188,18.0458333 78.8651757,17.1583333 79.9769968,17.1583333 Z" id="Shape" fill="#A7A5AC"></path>
            <path d="M6.33738019,21.3369792 L6.33738019,44.9296875 L16.3067093,44.9296875 L10.7476038,20.8192708 C10.5252396,19.8208333 9.63578275,19.1182292 8.59808307,19.1182292 C7.30095847,19.1182292 6.33738019,20.1166667 6.33738019,21.3369792 Z" id="Shape" fill="#8D8A94"></path>
            <path d="M24.7565495,40.0854167 C25.7942492,40.9359375 26.9801917,41.6385417 28.2402556,42.1932292 L41.8044728,4.91822917 C40.5073482,4.51145833 39.1731629,4.28958333 37.8019169,4.28958333 L24.7565495,40.0854167 Z" id="Shape" fill="#6D9EB3"></path>
        </g>
    </g>
</svg>