<?xml version="1.0" encoding="UTF-8"?>
<svg width="120px" height="120px" viewBox="0 0 120 120" version="1.1" xmlns="http://www.w3.org/2000/svg" xmlns:xlink="http://www.w3.org/1999/xlink">
    <!-- Generator: Sketch 51.1 (57501) - http://www.bohemiancoding.com/sketch -->
    <title>Rooster1</title>
    <desc>Created with Sketch.</desc>
    <defs>
        <polygon id="path-1" points="0.191120873 1.32923077 28.0041289 1.32923077 28.0041289 22.2418086 0.191120873 22.2418086"></polygon>
        <polygon id="path-3" points="0.557673333 0.861755958 12.3680446 0.861755958 12.3680446 13.8461538 0.557673333 13.8461538"></polygon>
        <path d="M7.96106667,1.50307692 C5.27006667,2.85538462 3.5328,5.73384615 3.105,8.72461538 C2.65726667,11.8707692 3.80113333,14.1815385 4.62453333,17.0723077 C5.27773333,19.3584615 4.64753333,21.7476923 4.24733333,24.1384615 C3.32273333,29.6769231 2.11446667,35.1646154 1.2328,40.7092308 C-0.456933333,51.3369231 -1.058,62.8169231 4.577,72.4415385 C10.0387333,81.7723077 19.4825333,88.0030769 29.9337333,90.2769231 C36.4074667,91.6892308 42.8244667,92.52 49.0390667,89.8769231 C58.5994,85.8076923 65.7876667,76.5523077 67.1538667,66.0923077 C67.206,65.7184615 67.2443333,65.3461538 67.2780667,64.9723077 C68.1352,55.0923077 63.1702667,45.7646154 53.3676667,42.6369231 C48.2248667,40.9969231 42.826,40.3707692 37.5022667,39.6261538 C34.4494,39.1984615 31.2876667,38.8753846 28.5982,37.3676923 C21.2581333,33.2476923 24.3309333,22.0123077 24.8568667,15.3353846 C25.1466667,11.5769231 25.3276,7.43076923 23.0306667,4.44769231 C20.9560667,1.75692308 17.0230667,0.356923077 13.3001333,0.355384615 C11.3666,0.355384615 9.49133333,0.733846154 7.96106667,1.50307692" id="path-5"></path>
        <path d="M7.96106667,1.50307692 C5.27006667,2.85538462 3.5328,5.73384615 3.105,8.72461538 C2.65726667,11.8707692 3.80113333,14.1815385 4.62453333,17.0723077 C5.27773333,19.3584615 4.64753333,21.7476923 4.24733333,24.1384615 C3.32273333,29.6769231 2.11446667,35.1646154 1.2328,40.7092308 C-0.456933333,51.3369231 -1.058,62.8169231 4.577,72.4415385 C10.0387333,81.7723077 19.4825333,88.0030769 29.9337333,90.2769231 C36.4074667,91.6892308 42.8244667,92.52 49.0390667,89.8769231 C58.5994,85.8076923 65.7876667,76.5523077 67.1538667,66.0923077 C67.206,65.7184615 67.2443333,65.3461538 67.2780667,64.9723077 C68.1352,55.0923077 63.1702667,45.7646154 53.3676667,42.6369231 C48.2248667,40.9969231 42.826,40.3707692 37.5022667,39.6261538 C34.4494,39.1984615 31.2876667,38.8753846 28.5982,37.3676923 C21.2581333,33.2476923 24.3309333,22.0123077 24.8568667,15.3353846 C25.1466667,11.5769231 25.3276,7.43076923 23.0306667,4.44769231 C20.9560667,1.75692308 17.0230667,0.356923077 13.3001333,0.355384615 C11.3666,0.355384615 9.49133333,0.733846154 7.96106667,1.50307692" id="path-7"></path>
        <path d="M7.96106667,1.50307692 C5.27006667,2.85538462 3.5328,5.73384615 3.105,8.72461538 C2.65726667,11.8707692 3.80113333,14.1815385 4.62453333,17.0723077 C5.27773333,19.3584615 4.64753333,21.7476923 4.24733333,24.1384615 C3.32273333,29.6769231 2.11446667,35.1646154 1.2328,40.7092308 C-0.456933333,51.3369231 -1.058,62.8169231 4.577,72.4415385 C10.0387333,81.7723077 19.4825333,88.0030769 29.9337333,90.2769231 C36.4074667,91.6892308 42.8244667,92.52 49.0390667,89.8769231 C58.5994,85.8076923 65.7876667,76.5523077 67.1538667,66.0923077 C67.206,65.7184615 67.2443333,65.3461538 67.2780667,64.9723077 C68.1352,55.0923077 63.1702667,45.7646154 53.3676667,42.6369231 C48.2248667,40.9969231 42.826,40.3707692 37.5022667,39.6261538 C34.4494,39.1984615 31.2876667,38.8753846 28.5982,37.3676923 C21.2581333,33.2476923 24.3309333,22.0123077 24.8568667,15.3353846 C25.1466667,11.5769231 25.3276,7.43076923 23.0306667,4.44769231 C20.9560667,1.75692308 17.0230667,0.356923077 13.3001333,0.355384615 C11.3666,0.355384615 9.49133333,0.733846154 7.96106667,1.50307692" id="path-9"></path>
    </defs>
    <g id="Rooster1" stroke="none" stroke-width="1" fill="none" fill-rule="evenodd">
        <g id="Group" transform="translate(60.500000, 60.500000) scale(-1, 1) translate(-60.500000, -60.500000) translate(3.000000, 1.000000)">
            <g id="Group-19" transform="translate(4.600000, 0.209385)">
                <path d="M106.464393,53.8243077 C106.778727,57.0212308 107.579127,60.0996923 109.946593,62.8627692 C104.809927,62.5135385 102.73226,58.3289231 101.562327,53.9550769 C100.06886,48.3796923 95.7157267,43.6581538 90.2923267,41.732 C84.8689267,39.8058462 78.5239933,40.7289231 73.8687933,44.1227692 C67.9715933,48.4212308 65.3005267,55.7796923 62.88246,62.6766154 C62.32586,64.2673846 61.7355267,65.9058462 60.58706,67.1350769 C59.69926,68.0858462 58.3851933,68.7304615 57.1247933,68.6627692 C56.7537267,68.6396923 56.3887933,68.5581538 56.03766,68.4027692 C52.2303933,66.7150769 56.8717933,61.1935385 57.8193933,59.052 C59.8111933,54.552 61.0961267,49.7781538 62.9805933,45.2335385 C65.3189267,39.592 68.27366,32.3027692 74.1417267,29.7289231 C77.2283267,28.3766154 80.57866,27.6366154 83.9443267,27.5627692 C88.58266,27.4612308 93.3819933,28.6181538 97.3701933,31.0166154 C100.99346,33.1966154 104.067793,36.7627692 105.263793,40.8704615 C106.49506,45.1012308 106.04886,49.5704615 106.464393,53.8243077" id="Fill-1" fill="#00525A"></path>
                <g id="Group-5">
                    <mask id="mask-2" fill="white">
                        <use xlink:href="#path-1"></use>
                    </mask>
                    <g id="Clip-4"></g>
                    <path d="M27.4423733,5.19153846 C26.9701067,4.20692308 26.2141733,3.29461538 25.1807067,2.95 C24.07364,2.58384615 22.82244,2.94538462 21.8809733,3.63461538 C20.9395067,4.32538462 20.2525733,5.30538462 19.63464,6.29769231 C18.7729067,7.67769231 18.00164,9.13 17.5723067,10.6992308 C17.8667067,9.62230769 17.3453733,8.17 17.37604,7.05615385 C17.4189733,5.58384615 17.7011067,4.14692308 17.6597067,2.65923077 C17.6535733,2.43769231 17.64284,2.20846154 17.5523733,2.00538462 C17.3653067,1.58384615 16.87464,1.37769231 16.41924,1.33923077 C14.7325733,1.19 13.3847733,2.67615385 12.4571067,4.09461538 C11.4129067,5.68538462 10.49444,7.45153846 10.4423067,9.35615385 C10.3073733,7.84846154 10.1739733,6.33923077 10.0405733,4.82846154 C10.0191067,4.56384615 9.98077333,4.27153846 9.78297333,4.09461538 C9.62197333,3.94692308 9.38890667,3.91307692 9.16964,3.91 C7.47224,3.87923077 5.98030667,5.18538462 5.25964,6.73 C4.07744,9.27461538 4.04830667,12.5869231 4.44544,15.2992308 C4.23690667,14.5176923 4.01304,13.7069231 3.50244,13.0776923 C2.99030667,12.4515385 2.10557333,12.05 1.35424,12.35 C0.380573333,12.7392308 0.13064,14.0084615 0.202706667,15.0607692 C0.363706667,17.3223077 2.18684,24.43 5.68437333,21.5761538 C6.89570667,20.5853846 7.61637333,19.1638462 8.83537333,18.2038462 C10.13104,17.1869231 11.79164,16.6546154 13.4139067,16.4869231 C15.7307733,16.25 18.2055733,16.91 20.56384,16.9361538 C21.2799067,16.9438462 21.98524,16.8930769 22.67524,16.7392308 C26.86124,15.8084615 29.1305733,8.71 27.4423733,5.19153846" id="Fill-3" fill="#EA2425" mask="url(#mask-2)"></path>
                </g>
                <path d="M74.20904,45.6158462 C76.6455067,43.9050769 79.7305733,43.2943077 82.70064,43.4558462 C87.9247067,43.7404615 93.22084,46.6712308 95.2095733,51.5250769 C96.2997733,54.1804615 96.3381067,57.1327692 96.8671067,59.9558462 C97.83004,65.0881538 100.508773,69.8835385 104.369707,73.3866154 C101.50544,72.722 98.4893733,71.9727692 96.3887067,69.9112308 C93.2975067,66.8743077 93.09204,61.9343077 90.72304,58.3035385 C88.8263067,55.3973846 85.4959067,53.4835385 82.0367067,53.3127692 C78.5805733,53.142 75.0799733,54.7189231 72.90724,57.4235385 C71.7051067,58.9173846 63.63824,75.7589231 61.56824,68.0681538 C59.8769733,61.7943077 69.7731067,48.7343077 74.20904,45.6158462" id="Fill-6" fill="#00525A"></path>
                <path d="M71.1078733,66.4347692 C71.1400733,66.3763077 71.17074,66.3178462 71.1998733,66.2563077 C71.62154,65.4393846 72.01714,64.584 72.6642067,63.9301538 C75.4840067,61.0778462 79.49214,63.5809231 81.1972067,66.2916923 C83.00654,69.164 84.1596067,72.4932308 86.3952067,75.084 C87.31674,76.1532308 88.6200733,77.3855385 90.04454,77.6824615 C91.0626733,77.8932308 92.3614067,77.7147692 93.41174,77.7409231 C94.0848733,77.7578462 95.9448067,77.4655385 96.4952733,77.8178462 C96.0276067,77.5147692 95.5752733,77.1886154 95.1398067,76.8470769 C92.4028067,74.6932308 90.30674,71.8378462 88.6722067,68.784 C87.13274,65.9055385 86.4948733,62.4532308 84.8450067,59.6932308 C82.39934,55.5963077 75.3076733,55.0086154 71.46514,57.2055385 C69.61134,58.2655385 68.3172067,60.0670769 67.08134,61.8163077 C65.8730733,63.524 64.66634,65.2332308 63.4596067,66.9409231 C62.7818733,67.8963077 62.07654,68.9624615 62.1838733,70.1286154 C62.48594,73.4178462 66.7056733,71.5855385 68.2022067,70.3178462 C69.44574,69.2670769 70.3504067,67.8778462 71.1078733,66.4347692" id="Fill-8" fill="#00525A"></path>
                <path d="M78.1725533,74.3764615 C79.1983533,76.1256923 80.61362,77.6456923 82.2987533,78.7672308 C79.25662,78.6456923 75.9139533,78.3733846 73.7626867,76.2133846 C73.2842867,75.7349231 72.8656867,75.1626154 72.26002,74.8656923 C70.9520867,74.2318462 69.44942,75.1103077 68.2748867,75.9641538 C67.1003533,76.8195385 65.6344867,77.7333846 64.3004867,77.158 C63.80522,75.7764615 64.1839533,74.1995385 64.9536867,72.9518462 C66.1634867,70.9903077 68.3162867,68.978 70.3402867,67.9010769 C71.3108867,67.3856923 72.45782,67.0841538 73.51582,67.3887692 C75.7774867,68.0410769 76.5441533,70.7610769 77.3261533,72.6672308 C77.5668867,73.2549231 77.8505533,73.8272308 78.1725533,74.3764615" id="Fill-10" fill="#00525A"></path>
                <path d="M37.47344,113.886615 C37.2679733,113.143538 37.0625067,112.509692 37.0241733,112.398923 C36.4813733,110.846615 36.24524,109.280462 36.2881733,107.635846 C36.30964,106.668154 36.59484,105.385077 36.1839067,104.475846 C35.8741733,103.789692 34.8637067,103.515846 34.1737067,103.662 C32.91484,103.934308 33.2905067,105.168154 33.3763733,106.117385 C33.5695733,108.286615 33.7413067,110.412769 33.8225733,112.597385 C30.49984,112.198923 27.73064,112.889692 26.21264,116.162 C28.0419067,116.680462 29.9723733,116.520462 31.8583733,116.540462 C33.9115067,116.560462 35.9677067,116.585077 38.0193067,116.606615 C38.05304,115.657385 37.7203067,114.786615 37.47344,113.886615" id="Fill-12" fill="#E78874"></path>
                <g id="Group-16" transform="translate(30.666667, 104.615385)">
                    <mask id="mask-4" fill="white">
                        <use xlink:href="#path-3"></use>
                    </mask>
                    <g id="Clip-15"></g>
                    <path d="M11.8184733,11.1236923 C11.6130067,10.3821538 11.4090733,9.74830769 11.37074,9.636 C10.82794,8.08369231 10.5902733,6.51753846 10.6332067,4.87292308 C10.6546733,3.90676923 10.93834,2.62369231 10.5274067,1.71292308 C10.2192067,1.02676923 9.20720667,0.752923077 8.51874,0.900615385 C7.25834,1.17138462 7.63554,2.40676923 7.71987333,3.35753846 C7.91460667,5.52523077 8.08480667,7.65292308 8.16760667,9.83446154 C4.84487333,9.436 2.07567333,10.1267692 0.557673333,13.3990769 C2.38694,13.9175385 4.31894,13.7575385 6.20340667,13.7775385 C8.25807333,13.8006154 10.31274,13.8221538 12.3658733,13.8467692 C12.3980733,12.8944615 12.06534,12.0236923 11.8184733,11.1236923" id="Fill-14" fill="#F7B9AE" mask="url(#mask-4)"></path>
                </g>
                <path d="M67.2789867,80.3575385 C68.13612,70.4775385 63.1696533,61.1498462 53.3670533,58.0206154 C48.2242533,56.3806154 42.82692,55.7544615 37.5016533,55.0098462 C34.45032,54.5836923 31.2870533,54.2590769 28.5975867,52.7513846 C21.25752,48.6329231 24.3318533,37.396 24.8577867,30.7190769 C25.1460533,26.9606154 25.32852,22.816 23.0315867,19.8329231 C19.8805867,15.7436923 12.4377867,14.6344615 7.96045333,16.8867692 C5.27098667,18.2406154 3.53218667,21.1190769 3.10438667,24.1083077 C2.65665333,27.2544615 3.80205333,29.5667692 4.62545333,32.4575385 C5.27712,34.7436923 4.64692,37.1313846 4.24825333,39.5236923 C3.32212,45.0621538 2.11538667,50.5483077 1.23372,56.0944615 C-0.457546667,66.7206154 -1.05708,78.2021538 4.57638667,87.8252308 C10.0396533,97.156 19.48192,103.388308 29.93312,105.660615 C36.4083867,107.072923 42.8253867,107.905231 49.0384533,105.260615 C58.60032,101.192923 65.7870533,91.936 67.1547867,81.4775385 C67.2053867,81.1021538 67.2452533,80.7298462 67.2789867,80.3575385" id="Fill-17" fill="#CC6101"></path>
            </g>
            <g id="Group-29" transform="translate(4.600000, 15.594000)">
                <g id="Group-22">
                    <mask id="mask-6" fill="white">
                        <use xlink:href="#path-5"></use>
                    </mask>
                    <g id="Clip-21"></g>
                    <path d="M24.69464,31.594 C22.87764,29.9770769 21.14804,28.2663077 19.5073733,26.4709231 C18.7851733,28.0555385 18.1595733,29.6832308 17.6351733,31.3401538 C16.4437733,30.4201538 15.2247733,29.5355385 13.98124,28.6924615 C13.20844,30.0709231 12.3451733,31.3955385 11.3945067,32.6601538 C10.3303733,31.6386154 9.31530667,30.5663077 8.35237333,29.4463077 C8.61764,29.7570769 1.78510667,35.5847692 1.13650667,36.1247692 C1.11657333,35.0416923 1.24077333,33.9647692 1.36650667,32.8893846 C1.55357333,31.2847692 1.87864,29.8386154 2.22670667,28.2924615 C2.43217333,27.3709231 2.51957333,26.414 2.71430667,25.4878462 C2.88757333,24.6601538 3.32610667,23.6478462 3.32610667,22.8093846 C4.18324,19.1693846 3.74777333,15.734 2.83697333,12.1724615 C1.97524,8.78938462 1.89397333,4.80784615 4.23384,2.22169231 C6.21490667,0.0324615385 9.38277333,-0.558307692 12.3237067,-0.766 C15.96384,-1.02446154 19.94284,-0.775230769 22.7335067,1.58938462 C24.8265067,3.36015385 25.83544,6.04015385 26.1467067,8.71092308 C26.3399067,10.3755385 26.5729733,12.2109231 26.2525067,13.8493846 C25.5057733,17.6647692 25.10404,21.5801538 24.82804,25.4586154 C24.7513733,26.5063077 24.7053733,27.5586154 24.6823733,28.6124615 C24.6731733,29.0632308 24.3849067,31.3170769 24.69464,31.594" id="Fill-20" fill="#7B3100" mask="url(#mask-6)"></path>
                </g>
                <g id="Group-25">
                    <mask id="mask-8" fill="white">
                        <use xlink:href="#path-7"></use>
                    </mask>
                    <g id="Clip-24"></g>
                    <path d="M20.6395867,89.7069231 C15.2376533,87.5746154 11.03172,84.57 6.71078667,80.7684615 C3.01545333,77.5192308 1.49438667,74.0669231 0.16192,69.2161538 C-0.296546667,67.5469231 -0.580213333,65.99 -0.66608,64.2869231 C-0.728946667,63.0838462 -0.310346667,61.0638462 -0.870013333,59.9823077 C0.23092,62.11 2.16752,63.7838462 4.42458667,64.5730769 C5.34918667,61.7961538 5.90732,58.8976923 6.07445333,55.9761538 C8.12145333,57.8746154 10.6468533,59.2469231 13.3485867,59.9238462 C13.34552,56.3130769 13.34092,52.7023077 13.3347867,49.0946154 C16.3002533,49.83 19.32092,50.3315385 22.3599867,50.5930769 C22.09012,48.5407692 22.0701867,46.4546154 22.2940533,44.3946154 C24.0972533,45.1807692 26.3788533,45.9023077 27.85392,44.6007692 C29.55132,43.1007692 28.6880533,40.3484615 29.0115867,38.1023077 C42.1721867,36.2930769 56.00592,40.0576923 66.45252,48.29 C68.84912,50.1807692 71.1598533,52.4253846 72.08292,55.3392308 C72.5413867,56.7792308 72.63032,58.3007692 72.7100533,59.8084615 C72.9277867,63.91 73.0749867,68.0607692 72.28072,72.0884615 C71.43432,76.3638462 69.5375867,80.39 67.05052,83.9653846 C65.1031867,86.7607692 62.7464533,89.3376923 59.80552,91.05 C56.75572,92.8207692 53.2244533,93.5853846 49.7192533,93.97 C39.8859867,95.0530769 29.8472533,93.3346154 20.6395867,89.7069231" id="Fill-23" fill="#00525A" mask="url(#mask-8)"></path>
                </g>
                <g id="Group-28">
                    <mask id="mask-10" fill="white">
                        <use xlink:href="#path-9"></use>
                    </mask>
                    <g id="Clip-27"></g>
                    <path d="M58.4534267,37.3181538 C61.3652267,38.8812308 64.1068267,40.7689231 66.5938933,42.952 C67.19956,43.4873846 67.80216,44.0458462 68.2544933,44.7212308 C68.7850267,45.5166154 69.0886267,46.4412308 69.38456,47.3535385 C70.47476,50.7058462 71.4284933,53.4027692 70.07456,56.7504615 C68.95216,59.5243077 66.83156,61.692 64.1006933,62.9089231 C60.2918933,64.6073846 56.5014933,64.1227692 52.4994933,63.9843077 C48.00836,63.832 43.5172267,63.212 39.20396,61.912 C33.6364267,60.2350769 28.36636,57.3935385 24.2186933,53.3104615 C21.4602267,50.5950769 22.1946933,47.9412308 22.38636,44.3350769 C22.39556,44.1796923 22.4124267,44.0027692 22.53356,43.9043077 C22.6362933,43.8212308 22.78196,43.8212308 22.91536,43.8243077 C24.13436,43.8581538 25.35336,43.8612308 26.57236,43.8366154 C26.7210933,43.832 26.88516,43.8227692 26.9924933,43.7212308 C27.11976,43.6012308 27.1212933,43.4027692 27.11516,43.2289231 C27.0660933,42.0873846 27.2332267,41.0427692 27.2500933,39.9150769 C27.3144933,36.0796923 29.4994933,33.8027692 33.3144267,33.5796923 C36.02996,33.4212308 38.27476,31.9581538 40.9810933,32.1658462 C44.1428267,32.4073846 47.28156,33.0150769 50.31296,33.9366154 C53.1266267,34.7904615 55.86056,35.9258462 58.4534267,37.3181538" id="Fill-26" fill="#761912" mask="url(#mask-10)"></path>
                </g>
            </g>
            <g id="Group-42" transform="translate(0.000000, 22.747846)">
                <path d="M18.8127733,2.06261538 C18.8127733,3.18261538 17.9081067,4.08876923 16.7933733,4.08876923 C15.67404,4.08876923 14.77244,3.18261538 14.77244,2.06261538 C14.77244,0.941076923 15.67404,0.0333846154 16.7933733,0.0333846154 C17.9081067,0.0333846154 18.8127733,0.941076923 18.8127733,2.06261538" id="Fill-30" fill="#040000"></path>
                <path d="M19.7757067,7.28123077 C19.7757067,8.76892308 20.9809067,9.97815385 22.4651733,9.97815385 C23.94944,9.97815385 25.1531067,8.76892308 25.1531067,7.28123077 C25.1531067,5.79046154 23.94944,4.58430769 22.4651733,4.58430769 C20.9809067,4.58430769 19.7757067,5.79046154 19.7757067,7.28123077" id="Fill-34" fill="#E89E9E"></path>
                <path d="M6.62553333,13.8384615 C6.68533333,15.0261538 6.92913333,16.4061538 7.981,16.9553846 C8.9424,17.4569231 10.1537333,16.9861538 10.9418667,16.24 C11.2056,15.9907692 11.4371333,15.72 11.6395333,15.4323077 C13.0042,13.4723077 12.9965333,10.7030769 12.8784667,8.22923077 C12.5656667,1.63538462 6.45073333,10.4769231 6.62553333,13.8384615" id="Fill-36" fill="#EA2425"></path>
                <path d="M9.32680667,7.96553846 C10.81414,7.80092308 12.6848067,7.41476923 12.58054,5.99476923 C12.55294,5.62861538 12.4088067,5.28092308 12.2662067,4.94246154 C11.4918733,3.11784615 10.4078067,0.233230769 8.10934,0.0116923077 C7.97900667,-0.00215384615 7.84560667,-0.00369230769 7.71834,0.024 C7.53587333,0.0609230769 7.37027333,0.160923077 7.20927333,0.260923077 C5.34627333,1.43169231 3.70560667,2.89476923 2.03120667,4.31630769 C1.23234,4.99476923 0.398206667,5.72861538 0.0884733333,6.73015385 C-0.01426,7.06246154 -0.05106,7.43630769 0.108406667,7.744 C0.396673333,8.29476923 1.13267333,8.37938462 1.75214,8.38246154 C4.28827333,8.40092308 6.80600667,8.24553846 9.32680667,7.96553846" id="Fill-38" fill="#F2B16B"></path>
                <path d="M67.2267,63.2878462 C66.2837,64.6678462 65.6949,65.6570769 64.1048333,66.2432308 C63.2017,66.574 60.1902333,67.7878462 59.2901667,67.2663077 C60.3558333,67.8816923 61.4184333,68.4955385 62.4810333,69.1109231 C60.2347,69.5355385 57.9761,69.9616923 55.6914333,69.9709231 C53.4067667,69.9801538 51.0699667,69.5478462 49.1134333,68.3663077 C49.6133,69.3063077 50.3263,70.134 51.1834333,70.7632308 C45.5791,70.774 40.5896333,69.8924615 35.7243667,66.9924615 C31.5445,64.5016923 27.9365667,60.8663077 26.5857,56.0693846 C24.9128333,50.1370769 28.9332333,43.4770769 34.7691,41.7570769 C35.5373,41.5309231 36.3193,41.4801538 37.0890333,41.474 C50.4597,41.3847692 58.3241667,51.3909231 65.7470333,60.9955385 C65.9540333,61.2647692 67.4567,62.8432308 67.2267,63.2878462" id="Fill-40" fill="#A34600"></path>
            </g>
        </g>
    </g>
</svg>