<?xml version="1.0" encoding="UTF-8"?>
<svg width="120px" height="120px" viewBox="0 0 120 120" version="1.1" xmlns="http://www.w3.org/2000/svg" xmlns:xlink="http://www.w3.org/1999/xlink">
    <!-- Generator: Sketch 51.1 (57501) - http://www.bohemiancoding.com/sketch -->
    <title>Octopus1</title>
    <desc>Created with Sketch.</desc>
    <defs>
        <polygon id="path-1" points="5.89668458e-05 0.0639859155 119.69 0.0639859155 119.69 117.169014 5.89668458e-05 117.169014"></polygon>
    </defs>
    <g id="Octopus1" stroke="none" stroke-width="1" fill="none" fill-rule="evenodd">
        <g id="Group" transform="translate(0.000000, 1.000000)">
            <g id="Group-3" transform="translate(0.000000, 0.767000)">
                <mask id="mask-2" fill="white">
                    <use xlink:href="#path-1"></use>
                </mask>
                <g id="Clip-2"></g>
                <path d="M92.0728333,73.3214606 C103.753667,67.4480521 108.425333,67.7563479 110.1695,68.4618549 C110.862,68.7427282 111.740333,69.3077986 112.393667,71.1999535 C113.067,73.1527704 115.1995,74.1915028 117.1595,73.5175732 C119.117833,72.8461366 120.158667,70.7179817 119.485333,68.7659958 C118.2595,65.2160239 116.076167,62.7828972 112.992833,61.5347563 C107.652833,59.3683761 99.932,60.9946155 88.6953333,66.6444887 C84.4036667,68.8017282 80.6645,69.2994887 77.577,68.1311225 C74.402,66.9286859 72.4278333,64.1756296 71.4853333,62.5286155 C78.1161667,52.7786577 91.8145,52.7595451 91.8145,31.9425169 C91.8145,14.3364183 77.502,0.0634042254 59.8453333,0.0634042254 C42.1895,0.0634042254 27.8761667,14.3364183 27.8761667,31.9425169 C27.8761667,51.6186014 42.0436667,53.4359676 47.5686667,63.5457423 C46.4836667,65.1478831 44.697,67.1522211 42.1128333,68.1311225 C39.0253333,69.3028127 35.2845,68.8017282 30.9945,66.6444887 C19.757,60.9912915 12.0353333,59.3683761 6.697,61.5347563 C3.6145,62.7828972 1.43033333,65.2160239 0.205333333,68.7659958 C-0.468833333,70.7179817 0.572,72.8461366 2.53033333,73.5175732 C4.492,74.1915028 6.62366667,73.1527704 7.297,71.1999535 C7.95033333,69.3077986 8.82783333,68.7427282 9.52033333,68.4618549 C11.2653333,67.7580099 15.9361667,67.4463901 27.617,73.3214606 C31.4811667,75.2643056 35.1611667,76.2382211 38.6228333,76.2382211 C40.0661667,76.2382211 41.467,76.0512493 42.8311667,75.713869 C41.1645,77.1082634 39.3395,78.1561366 37.3911667,78.5832634 C31.7561667,79.8181085 28.6495,79.3594042 25.0545,78.8300662 C22.0353333,78.3854887 18.612,77.8802493 13.8036667,78.5317423 C7.14616667,79.4275451 2.132,85.0898831 1.6095,92.2978549 C1.06116667,99.8689676 5.64033333,106.166179 13.2745,108.343362 C13.6195,108.442249 13.9661667,108.488785 14.3078333,108.488785 C15.9395,108.488785 17.4403333,107.417644 17.9111667,105.777277 C18.4803333,103.79039 17.3286667,101.721235 15.337,101.152841 C9.11033333,99.3770239 8.98116667,94.3395873 9.09033333,92.8363338 C9.30616667,89.8580803 11.187,86.4302634 14.8078333,85.9424746 C18.5661667,85.4355732 21.0661667,85.8037 23.9586667,86.2291648 C27.7386667,86.7859254 32.0195,87.4174746 38.9995,85.8884606 C44.6745,84.6469676 49.852,80.5310944 54.3936667,73.6605028 C54.1203333,77.9650099 53.217,82.1764465 51.1586667,85.093207 C49.5428333,87.3834042 47.3278333,88.6780803 44.3861667,89.0520239 C32.7703333,90.5303479 25.6586667,92.8629254 23.6836667,100.404954 C22.3745,105.406658 24.3236667,113.979939 32.6661667,116.49201 C34.1753333,116.948221 35.717,117.169263 37.2245,117.169263 C40.7403333,117.169263 44.0703333,115.965996 46.3811667,113.731475 C49.0745,111.124672 50.0436667,107.497418 49.0378333,103.775432 C48.4995,101.781066 46.4428333,100.594418 44.442,101.138714 C42.442,101.675531 41.2578333,103.727235 41.797,105.721601 C42.092,106.817672 41.8895,107.656137 41.1586667,108.364137 C40.067,109.418658 37.622,110.172362 34.8353333,109.333066 C29.9978333,107.875517 30.9261667,102.347799 30.9411667,102.293785 C31.3961667,100.551207 32.0203333,98.1662775 45.3361667,96.4702352 C50.4136667,95.8245592 54.4353333,93.4454465 57.2928333,89.3977141 C58.3078333,87.9576155 59.157,86.3172493 59.8453333,84.4907423 C60.5328333,86.3172493 61.382,87.9576155 62.3978333,89.3977141 C65.2545,93.4454465 69.277,95.8245592 74.3528333,96.4702352 C87.6695,98.1662775 88.2936667,100.551207 88.7495,102.293785 C88.7636667,102.347799 89.6928333,107.875517 84.8545,109.333066 C82.0653333,110.174024 79.6236667,109.418658 78.5311667,108.364137 C77.8003333,107.656137 77.5978333,106.817672 77.8928333,105.721601 C78.432,103.727235 77.2478333,101.675531 75.2486667,101.138714 C73.2478333,100.597742 71.1895,101.782728 70.652,103.775432 C69.6461667,107.497418 70.6153333,111.124672 73.3086667,113.731475 C75.6195,115.965996 78.9495,117.169263 82.4661667,117.169263 C83.9728333,117.169263 85.5145,116.946559 87.0236667,116.49201 C95.3661667,113.979939 97.3153333,105.406658 96.007,100.404954 C94.5111667,94.6935873 90.6445,91.0056718 75.3028333,89.0520239 C72.3628333,88.6780803 70.147,87.3834042 68.5311667,85.093207 C66.4728333,82.1764465 65.5695,77.9650099 65.2961667,73.6605028 C69.8378333,80.5310944 75.0161667,84.6469676 80.6911667,85.8884606 C87.6695,87.4174746 91.9528333,86.7842634 95.732,86.2291648 C98.6236667,85.8037 101.122,85.4355732 104.882,85.9424746 C108.502833,86.4302634 110.3845,89.8580803 110.5995,92.8363338 C110.708667,94.3395873 110.5795,99.3770239 104.352833,101.152841 C102.362,101.721235 101.2095,103.79039 101.778667,105.777277 C102.2495,107.417644 103.751167,108.488785 105.382833,108.488785 C105.723667,108.488785 106.071167,108.442249 106.415333,108.343362 C114.0495,106.166179 118.628667,99.8689676 118.080333,92.2978549 C117.557833,85.0898831 112.543667,79.4275451 105.886167,78.5317423 C101.077,77.8819113 97.6553333,78.3854887 94.6353333,78.8300662 C91.0395,79.3594042 87.9345,79.8181085 82.2986667,78.5832634 C80.3603333,78.1594606 78.542,77.1124183 76.8795,75.7188549 C78.2361667,76.0529113 79.6303333,76.2382211 81.067,76.2382211 C84.5278333,76.2382211 88.2095,75.2643056 92.0728333,73.3214606" id="Fill-1" fill="#756D85" mask="url(#mask-2)"></path>
            </g>
            <path d="M54.6623333,59.6403577 C54.6623333,62.5812169 53.4131667,64.9653155 51.8715,64.9653155 C50.3306667,64.9653155 49.0815,62.5812169 49.0815,59.6403577 C49.0815,56.6994986 50.3306667,54.3154 51.8715,54.3154 C53.4131667,54.3154 54.6623333,56.6994986 54.6623333,59.6403577" id="Fill-4" fill="#CCCECF"></path>
            <path d="M70.6079167,59.6403577 C70.6079167,62.5812169 69.35875,64.9653155 67.8170833,64.9653155 C66.27625,64.9653155 65.0270833,62.5812169 65.0270833,59.6403577 C65.0270833,56.6994986 66.27625,54.3154 67.8170833,54.3154 C69.35875,54.3154 70.6079167,56.6994986 70.6079167,59.6403577" id="Fill-6" fill="#CCCECF"></path>
            <path d="M51.87175,54.922269 L51.87175,63.9592408" id="Fill-8" fill="#CCCECF"></path>
            <path d="M51.87175,54.922269 C51.87175,54.922269 52.1500833,55.4873394 52.3475833,56.3341141 C52.56925,57.1817197 52.70175,58.3110296 52.7050833,59.4403394 C52.7034167,60.5704803 52.5725833,61.6997901 52.3500833,62.5473958 C52.15175,63.3941704 51.87175,63.9592408 51.87175,63.9592408 C51.87175,63.9592408 51.59175,63.3941704 51.3934167,62.5473958 C51.1709167,61.6997901 51.0400833,60.5704803 51.0384167,59.4403394 C51.04175,58.3110296 51.17425,57.1817197 51.3959167,56.3341141 C51.5934167,55.4873394 51.87175,54.922269 51.87175,54.922269" id="Fill-10" fill="#723E2B"></path>
            <path d="M67.8174167,54.922269 L67.8174167,63.9592408" id="Fill-12" fill="#CCCECF"></path>
            <path d="M67.8174167,54.922269 C67.8174167,54.922269 68.09575,55.4873394 68.29325,56.3341141 C68.5149167,57.1817197 68.6474167,58.3110296 68.65075,59.4403394 C68.6490833,60.5704803 68.51825,61.6997901 68.29575,62.5473958 C68.0974167,63.3941704 67.8174167,63.9592408 67.8174167,63.9592408 C67.8174167,63.9592408 67.5374167,63.3941704 67.3390833,62.5473958 C67.1165833,61.6997901 66.98575,60.5704803 66.9840833,59.4403394 C66.9874167,58.3110296 67.1199167,57.1817197 67.3415833,56.3341141 C67.5390833,55.4873394 67.8174167,54.922269 67.8174167,54.922269" id="Fill-14" fill="#723E2B"></path>
            <path d="M65.3263333,10.1248986 C65.6563333,9.65456056 64.6996667,8.42054648 63.1921667,7.37018028 C61.6838333,6.3189831 60.1938333,5.84781408 59.863,6.31815211 C59.5346667,6.78849014 60.4896667,8.02167324 61.9988333,9.07203944 C63.5063333,10.1240676 64.9963333,10.5944056 65.3263333,10.1248986" id="Fill-16" fill="#CCCECF"></path>
            <path d="M69.4531667,8.03929014 C69.7831667,7.56895211 68.8265,6.33493803 67.319,5.28457183 C65.8106667,4.23337465 64.3206667,3.76220563 63.9898333,4.23254366 C63.6615,4.70288169 64.6165,5.93606479 66.1256667,6.98643099 C67.6331667,8.03845915 69.1231667,8.50879718 69.4531667,8.03929014" id="Fill-18" fill="#CCCECF"></path>
            <path d="M71.0254167,21.0010915 C71.3554167,20.5324155 70.4004167,19.2984014 68.8904167,18.2472042 C67.3820833,17.1951761 65.8929167,16.724838 65.5629167,17.1951761 C65.2329167,17.6655141 66.18875,18.8995282 67.6979167,19.9507254 C69.2054167,21.0010915 70.6954167,21.4714296 71.0254167,21.0010915" id="Fill-20" fill="#CCCECF"></path>
            <path d="M73.0371667,11.2597761 C72.708,11.7301141 71.773,11.6461845 70.948,11.0711423 C70.1238333,10.496931 69.7221667,9.65015634 70.0521667,9.1806493 C70.3813333,8.7086493 71.3171667,8.79424085 72.1413333,9.3692831 C72.9663333,9.94349437 73.3671667,10.790269 73.0371667,11.2597761" id="Fill-22" fill="#CCCECF"></path>
            <path d="M54.5793333,4.78996901 C54.1176667,5.44894085 54.3543333,6.40706761 55.1093333,6.93308169 C55.8635,7.45909577 56.8493333,7.35106761 57.3101667,6.69292676 C57.7718333,6.03395493 57.5335,5.0741662 56.7801667,4.5489831 C56.0251667,4.0238 55.041,4.13182817 54.5793333,4.78996901" id="Fill-24" fill="#CCCECF"></path>
            <path d="M73.3553333,16.9857676 C73.1245,17.314838 71.7145,16.7306549 70.207,15.6794577 C68.697,14.6274296 67.6611667,13.5089225 67.892,13.1798521 C68.1228333,12.8499507 69.5328333,13.4366268 71.042,14.486162 C72.5495,15.5381901 73.5853333,16.6566972 73.3553333,16.9857676" id="Fill-26" fill="#CCCECF"></path>
            <path d="M79.6630833,17.1432394 C79.1680833,17.8495775 78.06475,17.9301831 77.1964167,17.3268873 C76.3280833,16.7210986 76.0255833,15.6599296 76.51975,14.9535915 C77.0130833,14.2480845 78.1180833,14.1666479 78.9864167,14.7716056 C79.85475,15.3773944 80.15725,16.4385634 79.6630833,17.1432394" id="Fill-28" fill="#CCCECF"></path>
            <path d="M78.1160833,24.1043254 C77.6860833,24.715931 76.3369167,24.5131704 75.10275,23.651438 C73.8669167,22.7913676 73.2119167,21.5964099 73.64025,20.9864662 C74.0694167,20.3748606 75.41775,20.5776211 76.6535833,21.4393535 C77.8894167,22.2994239 78.5444167,23.4927197 78.1160833,24.1043254" id="Fill-30" fill="#CCCECF"></path>
            <path d="M64.83325,24.1043254 C64.40325,24.715931 63.0540833,24.5131704 61.8199167,23.651438 C60.5840833,22.7913676 59.9290833,21.5964099 60.3574167,20.9864662 C60.7865833,20.3748606 62.1349167,20.5776211 63.37075,21.4393535 C64.6065833,22.2994239 65.2615833,23.4927197 64.83325,24.1043254" id="Fill-32" fill="#CCCECF"></path>
            <path d="M61.7985,11.7207239 C61.3368333,12.3796958 62.0335,13.6585831 63.3535,14.5784845 C64.6743333,15.4992169 66.1185,15.7119493 66.5793333,15.0529775 C67.041,14.3940056 66.3443333,13.1151183 65.0235,12.1943859 C63.7035,11.2744845 62.2601667,11.0617521 61.7985,11.7207239" id="Fill-34" fill="#CCCECF"></path>
            <path d="M56.7033333,10.1979423 C56.4883333,10.5037451 56.7525,11.0571817 57.2933333,11.4336183 C57.8325,11.8100549 58.4441667,11.866562 58.6591667,11.5615901 C58.8733333,11.2549563 58.6091667,10.7023507 58.0691667,10.3259141 C57.5283333,9.95030845 56.9175,9.89297042 56.7033333,10.1979423" id="Fill-36" fill="#CCCECF"></path>
            <path d="M88.2609167,31.1741873 C87.9975833,31.5506239 86.95675,31.2780606 85.93675,30.5675676 C84.9159167,29.8562437 84.30175,28.9753986 84.5659167,28.598131 C84.8300833,28.2233563 85.8709167,28.4942577 86.8909167,29.2055817 C87.91175,29.9160746 88.52425,30.7977507 88.2609167,31.1741873" id="Fill-38" fill="#CCCECF"></path>
            <path d="M54.95775,11.0731366 C54.6935833,11.4495732 53.6535833,11.1770099 52.63275,10.4673479 C51.6119167,9.75602394 50.9985833,8.87434789 51.2619167,8.49791127 C51.5269167,8.12147465 52.56775,8.39320704 53.58775,9.10453099 C54.60775,9.81585493 55.2210833,10.695869 54.95775,11.0731366" id="Fill-40" fill="#CCCECF"></path>
            <path d="M70.8740833,25.1414789 C70.6115833,25.5179155 69.57075,25.2470141 68.55075,24.5356901 C67.5299167,23.8251972 66.91575,22.9435211 67.1799167,22.5670845 C67.4440833,22.1906479 68.4849167,22.4615493 69.5040833,23.1728732 C70.5249167,23.8850282 71.13825,24.7650423 70.8740833,25.1414789" id="Fill-42" fill="#CCCECF"></path>
            <path d="M84.0145,22.0772183 C83.7845,22.4062887 83.1253333,22.3431338 82.5411667,21.9376127 C81.9586667,21.5304296 81.672,20.9346127 81.9036667,20.6063732 C82.1336667,20.2773028 82.7936667,20.3387958 83.3761667,20.7443169 C83.9595,21.152331 84.2453333,21.7481479 84.0145,22.0772183" id="Fill-44" fill="#CCCECF"></path>
            <path d="M58.9656667,16.8445831 C58.7023333,17.2193577 58.9856667,17.8716817 59.599,18.2988085 C60.2115,18.7259352 60.9223333,18.7674845 61.1856667,18.3910479 C61.4498333,18.0146113 61.1673333,17.3639493 60.5531667,16.9351606 C59.9398333,16.5088648 59.2298333,16.4664845 58.9656667,16.8445831" id="Fill-46" fill="#CCCECF"></path>
            <path d="M75.0659167,26.0974451 C74.8034167,26.4755437 75.0859167,27.1245437 75.69925,27.5533324 C76.31175,27.9804592 77.0234167,28.0203465 77.2859167,27.6455718 C77.5500833,27.2674732 77.26675,26.6184732 76.6534167,26.1896845 C76.0400833,25.7633887 75.32925,25.7226704 75.0659167,26.0974451" id="Fill-48" fill="#CCCECF"></path>
            <path d="M85.3035833,24.3429014 C85.0410833,24.719338 85.3235833,25.37 85.9369167,25.7971268 C86.5494167,26.2259155 87.2610833,26.2658028 87.5235833,25.8893662 C87.78775,25.5129296 87.5044167,24.8622676 86.8910833,24.4351408 C86.27775,24.0088451 85.5669167,23.9664648 85.3035833,24.3429014" id="Fill-50" fill="#CCCECF"></path>
            <path d="M80.7894167,15.8123324 C80.5269167,16.188769 80.8094167,16.839431 81.42275,17.2665577 C82.03525,17.6953465 82.7469167,17.7352338 83.0094167,17.3587972 C83.2735833,16.9823606 82.99025,16.3316986 82.3769167,15.9045718 C81.7635833,15.4782761 81.05275,15.4358958 80.7894167,15.8123324" id="Fill-52" fill="#CCCECF"></path>
            <path d="M80.3459167,28.7624169 C80.0825833,29.1388535 80.3650833,29.7911775 80.97925,30.2183042 C81.5909167,30.645431 82.3025833,30.6869803 82.5659167,30.3088817 C82.82925,29.934107 82.54675,29.2817831 81.9325833,28.8546563 C81.3209167,28.4283606 80.60925,28.3876423 80.3459167,28.7624169" id="Fill-54" fill="#CCCECF"></path>
            <path d="M83.6930833,26.3440817 C83.1989167,27.0487577 81.9955833,27.0612225 81.00475,26.3715042 C80.01475,25.6817859 79.6130833,24.5508141 80.1064167,23.8444761 C80.6005833,23.140631 81.8055833,23.1273352 82.7955833,23.8170535 C83.78475,24.5067718 84.18725,25.6377437 83.6930833,26.3440817" id="Fill-56" fill="#CCCECF"></path>
            <path d="M78.2503333,11.9349521 C77.7561667,12.6396282 76.5528333,12.652093 75.562,11.9623746 C74.572,11.2726563 74.1703333,10.1408535 74.6636667,9.43617746 C75.1578333,8.73067042 76.3628333,8.71820563 77.3528333,9.40709296 C78.342,10.0984732 78.7445,11.2286141 78.2503333,11.9349521" id="Fill-58" fill="#CCCECF"></path>
        </g>
    </g>
</svg>