<?xml version="1.0" encoding="UTF-8"?>
<svg width="120px" height="120px" viewBox="0 0 120 120" version="1.1" xmlns="http://www.w3.org/2000/svg" xmlns:xlink="http://www.w3.org/1999/xlink">
    <!-- Generator: Sketch 51.1 (57501) - http://www.bohemiancoding.com/sketch -->
    <title>Airplane4</title>
    <desc>Created with Sketch.</desc>
    <defs></defs>
    <g id="Airplane4" stroke="none" stroke-width="1" fill="none" fill-rule="evenodd">
        <g id="Group-6" transform="translate(60.000000, 60.000000) scale(-1, 1) translate(-60.000000, -60.000000) translate(0.000000, 26.000000)">
            <path d="M115.620629,0.352884211 L119.693888,0.352884211 L116.858382,21.5961737 L101.43636,21.5961737 C101.43636,9.91225263 109.336135,0.352884211 115.620629,0.352884211" id="Fill-88" fill="#E84E2F"></path>
            <path d="M119.694067,0.352884211 L116.858112,21.5961737 L104.227551,21.5961737 C104.941258,9.92254211 113.410921,0.369884211 119.694067,0.352884211" id="Fill-90" fill="#FFC20D"></path>
            <path d="M29.5694382,17.4975184 L117.16809,17.4975184 C117.16809,33.5732553 103.954607,46.7258868 87.8040449,46.7258868 L0.205842697,46.7258868 C0.205842697,30.6497026 13.4193258,17.4975184 29.5694382,17.4975184" id="Fill-92" fill="#FFC20D"></path>
            <path d="M106.264944,40.1822289 C101.21236,44.2689395 94.7831461,46.7258868 87.8042697,46.7258868 L0.205617978,46.7258868 C0.205617978,44.4783079 0.464494382,42.2875447 0.953033708,40.1822289 L106.264944,40.1822289 Z" id="Fill-94" fill="#DAA509"></path>
            <path d="M56.897618,52.7404421 C56.1839101,52.7404421 55.4809888,52.7587842 54.7897528,52.7936789 L54.7897528,67.6995474 C55.4809888,67.7344421 56.1839101,67.7523368 56.897618,67.7523368 C66.6693034,67.7523368 74.5915506,64.3921526 74.5915506,60.2463895 C74.5915506,56.1010737 66.6693034,52.7404421 56.897618,52.7404421" id="Fill-96" fill="#DAA509"></path>
            <path d="M54.7897528,67.7521579 C57.904809,67.7521579 60.4450337,64.3803421 60.4450337,60.2462105 C60.4450337,56.1120789 57.904809,52.7402632 54.7897528,52.7402632 C51.6746966,52.7402632 49.1344719,56.1120789 49.1344719,60.2462105 C49.1344719,64.3803421 51.6746966,67.7521579 54.7897528,67.7521579" id="Fill-98" fill="#FFC20D"></path>
            <path d="M54.7897528,64.1286526 C56.4009888,64.1286526 57.7151461,62.3848105 57.7151461,60.2459421 C57.7151461,58.1079684 56.4009888,56.3641263 54.7897528,56.3641263 C53.1785169,56.3641263 51.8643596,58.1079684 51.8643596,60.2459421 C51.8643596,62.3848105 53.1785169,64.1286526 54.7897528,64.1286526" id="Fill-100" fill="#454C54"></path>
            <path d="M54.0967191,34.2659605 L89.3097528,60.6732237 L79.2041348,60.6987237 C77.0144719,60.7045395 74.9749213,60.3900395 72.3106517,58.7146447 L33.5030112,34.3174079 L54.0967191,34.2659605 Z" id="Fill-102" fill="#FFE59B"></path>
            <path d="M54.0967191,34.2659605 L89.8373933,61.0691447 C91.0697528,61.9934079 90.9762697,63.7113026 88.7866067,63.7171184 L77.6737978,63.7448553 C75.4841348,63.7502237 73.4445843,63.4357237 70.780764,61.7612237 L27.152,34.3335132 L33.5030112,34.3174079 L72.3111011,58.7146447 C74.9749213,60.3900395 77.0144719,60.7045395 79.2041348,60.6987237 L89.3093034,60.6732237 L54.0967191,34.2659605 Z" id="Fill-104" fill="#E84E2F"></path>
            <path d="M78.1322247,32.1706658 C80.333573,32.1706658 82.1295281,30.3834289 82.1295281,28.1917711 C82.1295281,26.0005605 80.333573,24.2133237 78.1322247,24.2133237 C75.9308764,24.2133237 74.1349213,26.0005605 74.1349213,28.1917711 C74.1349213,30.3834289 75.9308764,32.1706658 78.1322247,32.1706658" id="Fill-106" fill="#4CBAF2"></path>
            <path d="M65.758427,32.1706658 C67.9602247,32.1706658 69.7557303,30.3834289 69.7557303,28.1917711 C69.7557303,26.0005605 67.9602247,24.2133237 65.758427,24.2133237 C63.5570787,24.2133237 61.7611236,26.0005605 61.7611236,28.1917711 C61.7611236,30.3834289 63.5570787,32.1706658 65.758427,32.1706658" id="Fill-108" fill="#4CBAF2"></path>
            <path d="M53.3845843,32.1706658 C55.5859326,32.1706658 57.3818876,30.3834289 57.3818876,28.1917711 C57.3818876,26.0005605 55.5859326,24.2133237 53.3845843,24.2133237 C51.183236,24.2133237 49.3872809,26.0005605 49.3872809,28.1917711 C49.3872809,30.3834289 51.183236,32.1706658 53.3845843,32.1706658" id="Fill-110" fill="#4CBAF2"></path>
            <path d="M41.0107865,32.1706658 C43.2121348,32.1706658 45.0080899,30.3834289 45.0080899,28.1917711 C45.0080899,26.0005605 43.2121348,24.2133237 41.0107865,24.2133237 C38.8094382,24.2133237 37.0134831,26.0005605 37.0134831,28.1917711 C37.0134831,30.3834289 38.8094382,32.1706658 41.0107865,32.1706658" id="Fill-112" fill="#4CBAF2"></path>
            <path d="M28.6369888,32.1706658 C30.8387865,32.1706658 32.6342921,30.3834289 32.6342921,28.1917711 C32.6342921,26.0005605 30.8387865,24.2133237 28.6369888,24.2133237 C26.4356404,24.2133237 24.6396854,26.0005605 24.6396854,28.1917711 C24.6396854,30.3834289 26.4356404,32.1706658 28.6369888,32.1706658" id="Fill-114" fill="#4CBAF2"></path>
            <path d="M4.13204494,32.1706658 C5.89698876,29.1343763 8.19451685,26.4389816 10.8956404,24.2133237 L15.7185618,24.2133237 C17.9172135,24.2133237 19.7158652,26.0036921 19.7158652,28.1917711 C19.7158652,30.3802974 17.9172135,32.1706658 15.7185618,32.1706658 L4.13204494,32.1706658 Z" id="Fill-116" fill="#4CBAF2"></path>
            <path d="M81.3022022,25.7685553 L76.5466966,31.8451605 C75.918382,31.57495 75.3741124,31.1481605 74.9619775,30.6153447 L79.7174831,24.5387395 C80.3453483,24.80895 80.8900674,25.2352921 81.3022022,25.7685553" id="Fill-118" fill="#98DCFF"></path>
            <path d="M68.9284045,25.7685553 L64.1728989,31.8451605 C63.5445843,31.57495 63.0003146,31.1481605 62.5886292,30.6153447 L67.3436854,24.5387395 C67.9715506,24.80895 68.5162697,25.2352921 68.9284045,25.7685553" id="Fill-120" fill="#98DCFF"></path>
            <path d="M56.5546067,25.7685553 L51.7991011,31.8451605 C51.1707865,31.57495 50.6265169,31.1481605 50.2148315,30.6153447 L54.9698876,24.5387395 C55.5982022,24.80895 56.1424719,25.2352921 56.5546067,25.7685553" id="Fill-122" fill="#98DCFF"></path>
            <path d="M44.180764,25.7685553 L39.4252584,31.8451605 C38.7969438,31.57495 38.2526742,31.1481605 37.8409888,30.6153447 L42.5960449,24.5387395 C43.2243596,24.80895 43.7686292,25.2352921 44.180764,25.7685553" id="Fill-124" fill="#98DCFF"></path>
            <path d="M31.8069663,25.7685553 L27.0514607,31.8451605 C26.4235955,31.57495 25.8788764,31.1486079 25.467191,30.6153447 L30.2222472,24.5387395 C30.8505618,24.80895 31.3948315,25.2352921 31.8069663,25.7685553" id="Fill-126" fill="#98DCFF"></path>
            <path d="M17.3819326,24.5763184 L11.4390112,32.1708447 L8.89204494,32.1708447 L15.1190112,24.2130553 L15.7185618,24.2130553 C16.3113708,24.2130553 16.8749663,24.3432395 17.3819326,24.5763184" id="Fill-128" fill="#98DCFF"></path>
        </g>
    </g>
</svg>