<?xml version="1.0" encoding="UTF-8"?>
<svg width="480px" height="360px" viewBox="0 0 480 360" version="1.1" xmlns="http://www.w3.org/2000/svg" xmlns:xlink="http://www.w3.org/1999/xlink">
    <!-- Generator: Sketch 51.1 (57501) - http://www.bohemiancoding.com/sketch -->
    <title>Landscape7</title>
    <desc>Created with Sketch.</desc>
    <defs></defs>
    <g id="Landscape7" stroke="none" stroke-width="1" fill="none" fill-rule="evenodd">
        <g id="Group">
            <polyline id="Fill-27271" fill="#9ED6E5" points="0.252169014 0 479.82693 0 479.787718 288.487887 0.212957746 288.487887 0.252169014 0"></polyline>
            <path d="M322.426817,266.191549 L253.327775,266.191549 L253.327775,217.274817 C253.327775,198.193803 268.795944,182.724958 287.876958,182.724958 C306.957972,182.724958 322.426817,198.193803 322.426817,217.274817 L322.426817,266.191549" id="Fill-27274" fill="#139E88"></path>
            <path d="M287.876958,182.724958 L287.876958,201.119775 L302.65893,201.119775 C305.664,201.119775 308.34862,203.237859 308.810366,206.207775 C309.394479,209.949746 306.48,213.207662 302.841465,213.207662 L274.019831,213.207662 C271.149972,213.207662 268.824338,215.533972 268.824338,218.403155 C268.824338,221.273014 271.149972,223.598648 274.019831,223.598648 L302.841465,223.598648 C306.165634,223.598648 308.885408,226.318423 308.885408,229.642592 C308.885408,232.966761 306.165634,235.685859 302.841465,235.685859 L296.964507,235.685859 C291.945465,235.685859 287.876958,239.755042 287.876958,244.773408 L271.093183,244.773408 C268.088113,244.773408 265.403493,246.890817 264.94107,249.860056 C264.357634,253.602704 267.272113,256.859944 270.909972,256.859944 L287.876958,256.859944 L287.876958,266.191549 L322.426817,266.191549 L322.426817,217.274817 C322.426817,198.193803 306.957972,182.724958 287.876958,182.724958" id="Fill-27275" fill="#11927D"></path>
            <path d="M260.468282,266.191549 L191.369915,266.191549 L191.369915,180.730592 C191.369915,161.649577 206.838085,146.181408 225.919099,146.181408 C245.000113,146.181408 260.468282,161.649577 260.468282,180.730592 L260.468282,266.191549" id="Fill-27276" fill="#139E88"></path>
            <path d="M226.096225,146.185465 L226.096225,170.499831 L204.849127,170.499831 C201.574986,170.499831 198.715268,172.971493 198.503662,176.239549 C198.271775,179.819944 201.107831,182.797296 204.638873,182.797296 L226.096225,182.797296 C226.096225,186.999662 229.502197,190.40631 233.704563,190.40631 L250.684394,190.40631 C253.958535,190.40631 256.818254,192.877296 257.029859,196.145352 C257.261746,199.726423 254.426366,202.702423 250.894648,202.702423 L230.825239,202.702423 C228.212958,202.702423 226.096225,204.820507 226.096225,207.432113 C226.096225,210.043718 228.212958,212.161803 230.825239,212.161803 L239.762028,212.161803 C243.158535,212.161803 245.910761,214.914704 245.910761,218.309859 L245.910761,218.310535 C245.910761,220.643606 244.610704,222.673127 242.695437,223.71493 L215.01769,223.71493 C211.742873,223.71493 208.883831,226.185915 208.672225,229.453972 C208.440338,233.035042 211.275718,236.012394 214.806761,236.012394 L226.096225,236.012394 L226.096225,266.191549 L260.468282,266.191549 L260.468282,180.730592 C260.468282,161.708394 245.094761,146.281465 226.096225,146.185465" id="Fill-27277" fill="#11927D"></path>
            <path d="M391.525183,266.191549 L322.426817,266.191549 L322.426817,180.730592 C322.426817,161.649577 337.894986,146.181408 356.975324,146.181408 C376.057014,146.181408 391.525183,161.649577 391.525183,180.730592 L391.525183,266.191549" id="Fill-27278" fill="#139E88"></path>
            <path d="M357.152451,146.185465 L357.152451,170.499831 L335.906028,170.499831 C332.631887,170.499831 329.772169,172.971493 329.560563,176.239549 C329.328676,179.819944 332.164056,182.797296 335.695775,182.797296 L357.152451,182.797296 C357.152451,186.999662 360.559099,190.40631 364.761465,190.40631 L381.74062,190.40631 C385.015437,190.40631 387.875155,192.877296 388.086761,196.145352 C388.318648,199.726423 385.482592,202.702423 381.951549,202.702423 L361.882141,202.702423 C359.269859,202.702423 357.152451,204.820507 357.152451,207.432113 C357.152451,210.043718 359.269859,212.161803 361.882141,212.161803 L370.81893,212.161803 C374.214761,212.161803 376.967662,214.914704 376.967662,218.309859 L376.967662,218.310535 C376.967662,220.643606 375.667606,222.673127 373.752338,223.71493 L346.073915,223.71493 C342.799775,223.71493 339.940056,226.185915 339.729127,229.453972 C339.496563,233.035042 342.33262,236.012394 345.863662,236.012394 L357.152451,236.012394 L357.152451,266.191549 L391.525183,266.191549 L391.525183,180.730592 C391.525183,161.708394 376.151662,146.281465 357.152451,146.185465" id="Fill-27279" fill="#11927D"></path>
            <path d="M479.787718,237.509859 C478.082704,236.918986 476.256676,236.588394 474.351549,236.588394 C469.257465,236.588394 464.702873,238.884282 461.656563,242.493746 C459.084845,235.52969 452.386479,230.564056 444.528676,230.564056 C434.467606,230.564056 426.308958,238.703099 426.275155,248.756056 C426.052056,248.72969 425.82693,248.713465 425.59707,248.713465 C424.102986,248.713465 422.746141,249.285408 421.720563,250.217014 C419.797183,246.51493 415.934197,243.98107 411.474254,243.98107 C408.713915,243.98107 406.182085,244.951887 404.195155,246.568338 C401.636282,240.695437 395.783662,236.588394 388.969014,236.588394 C384.902535,236.588394 381.178817,238.052056 378.292732,240.479099 C375.249803,236.68507 370.577577,234.253296 365.336113,234.253296 C357.827831,234.253296 351.486423,239.237859 349.433239,246.077521 C347.319887,243.383437 344.042366,241.645972 340.351775,241.645972 C338.245859,241.645972 336.277859,242.218592 334.578254,243.20293 C332.878648,242.218592 330.910648,241.645972 328.804732,241.645972 C325.151324,241.645972 321.900169,243.347606 319.784113,245.996394 C318.86738,245.384563 317.766761,245.026254 316.58231,245.026254 C314.834704,245.026254 313.272338,245.805746 312.212958,247.032113 C310.166535,243.799211 306.568563,241.645972 302.458817,241.645972 C299.698479,241.645972 297.166648,242.617465 295.179718,244.233239 C292.621521,238.360338 286.768225,234.253296 279.953577,234.253296 C270.782873,234.253296 263.348958,241.687211 263.348958,250.857915 C263.348958,251.56169 263.397634,252.25262 263.482817,252.933408 L249.539831,252.933408 C248.361465,247.807549 243.780507,243.98107 238.296338,243.98107 C236.330366,243.98107 234.48,244.475268 232.859493,245.341972 C231.403944,234.903662 222.446197,226.86738 211.606986,226.86738 C199.752338,226.86738 190.142197,236.477521 190.142197,248.332169 C190.142197,249.006873 190.177352,249.674141 190.238197,250.33262 C188.335775,246.567662 184.442366,243.98107 179.936451,243.98107 C176.282366,243.98107 173.031211,245.682028 170.915831,248.330817 C169.999099,247.718986 168.898479,247.361352 167.713352,247.361352 C165.965746,247.361352 164.40338,248.140169 163.344676,249.367211 C161.298254,246.133634 157.699606,243.98107 153.590535,243.98107 C150.830197,243.98107 148.29769,244.951887 146.311437,246.568338 C143.752563,240.695437 137.899944,236.588394 131.08462,236.588394 C124.43831,236.588394 118.70738,240.493972 116.054535,246.134986 C114.163606,244.783549 111.855549,243.98107 109.354817,243.98107 C106.820958,243.98107 104.485183,244.806535 102.580732,246.190423 C99.9393803,240.520338 94.1929014,236.588394 87.5256338,236.588394 C78.4421408,236.588394 71.0670423,243.883042 70.9277746,252.933408 L62.2377465,252.933408 C61.0593803,247.807549 56.4784225,243.98107 50.9942535,243.98107 C47.3408451,243.98107 44.0890141,245.682028 41.9736338,248.330817 C41.0569014,247.718986 39.9562817,247.361352 38.771831,247.361352 C37.0242254,247.361352 35.4611831,248.140169 34.4024789,249.367211 C32.3560563,246.133634 28.7580845,243.98107 24.648338,243.98107 C21.888,243.98107 19.356169,244.951887 17.3692394,246.568338 C14.8103662,240.695437 8.95774648,236.588394 2.14309859,236.588394 C1.48935211,236.588394 0.846422535,236.63031 0.212957746,236.703324 L0.212957746,259.893408 L479.787718,259.893408 L479.787718,237.509859" id="Fill-27280" fill="#1F8655"></path>
            <path d="M431.686986,218.261183 C431.686986,234.927324 418.176,248.43831 401.508507,248.43831 C384.842366,248.43831 371.33138,234.927324 371.33138,218.261183 C371.33138,201.59369 384.842366,188.082704 401.508507,188.082704 C418.176,188.082704 431.686986,201.59369 431.686986,218.261183" id="Fill-27281" fill="#6EBA6A"></path>
            <path d="M406.288901,188.464 C410.408789,193.622986 412.878423,200.159099 412.878423,207.275944 C412.878423,223.942085 399.366761,237.45307 382.699944,237.45307 C381.073352,237.45307 379.477859,237.320563 377.920901,237.073127 C383.450366,243.997296 391.957859,248.43831 401.508507,248.43831 C418.176,248.43831 431.686986,234.927324 431.686986,218.261183 C431.686986,203.220958 420.683493,190.754479 406.288901,188.464" id="Fill-27282" fill="#4DA64F"></path>
            <path d="M412.400451,225.030535 C411.938704,224.336901 411.001014,224.147606 410.305352,224.608676 L401.883718,230.20507 L401.883718,212.618141 C401.883718,211.783887 401.206986,211.107831 400.372732,211.107831 C399.537803,211.107831 398.86107,211.783887 398.86107,212.618141 L398.86107,219.315831 L392.66569,215.518423 C391.954479,215.083042 391.024901,215.306817 390.588169,216.016676 C390.152113,216.728563 390.375887,217.658817 391.086423,218.095549 L398.86107,222.860394 L398.86107,264.14107 C398.86107,264.975324 399.537803,265.652056 400.372732,265.652056 C401.206986,265.652056 401.883718,264.975324 401.883718,264.14107 L401.883718,233.833465 L411.977915,227.125634 C412.672901,226.663211 412.861521,225.726197 412.400451,225.030535" id="Fill-27283" fill="#3A2A22"></path>
            <path d="M236.725859,265.652056 C235.792225,265.652056 235.035718,264.895549 235.035718,263.961915 L235.035718,207.125859 C235.035718,206.192225 235.792225,205.435718 236.725859,205.435718 C237.659493,205.435718 238.416,206.192225 238.416,207.125859 L238.416,263.961915 C238.416,264.895549 237.659493,265.652056 236.725859,265.652056" id="Fill-27284" fill="#3A2A22"></path>
            <path d="M247.684056,216.642028 C247.684056,232.356958 242.777915,245.095887 236.725859,245.095887 C230.673803,245.095887 225.766986,232.356958 225.766986,216.642028 C225.766986,200.927099 230.673803,188.187493 236.725859,188.187493 C242.777915,188.187493 247.684056,200.927099 247.684056,216.642028" id="Fill-27285" fill="#6EBA6A"></path>
            <path d="M247.684056,216.642028 C247.684056,200.927099 242.777915,188.187493 236.725859,188.187493 L236.725859,245.095887 C242.777915,245.095887 247.684056,232.356958 247.684056,216.642028" id="Fill-27286" fill="#4DA64F"></path>
            <path d="M221.450366,218.261183 C221.450366,234.927324 207.938704,248.43831 191.271887,248.43831 C174.60507,248.43831 161.094085,234.927324 161.094085,218.261183 C161.094085,201.59369 174.60507,188.082704 191.271887,188.082704 C207.938704,188.082704 221.450366,201.59369 221.450366,218.261183" id="Fill-27287" fill="#6EBA6A"></path>
            <path d="M196.051606,188.464 C200.172169,193.622986 202.641127,200.159099 202.641127,207.275944 C202.641127,223.942085 189.130141,237.45307 172.463324,237.45307 C170.836056,237.45307 169.240563,237.320563 167.683606,237.073127 C173.21307,243.997296 181.721239,248.43831 191.271887,248.43831 C207.938704,248.43831 221.450366,234.927324 221.450366,218.261183 C221.450366,203.220958 210.446873,190.754479 196.051606,188.464" id="Fill-27288" fill="#4DA64F"></path>
            <path d="M202.163155,225.030535 C201.701408,224.336901 200.764394,224.147606 200.068732,224.608676 L191.646423,230.20507 L191.646423,212.618141 C191.646423,211.783887 190.970366,211.107831 190.135437,211.107831 C189.301183,211.107831 188.624451,211.783887 188.624451,212.618141 L188.624451,219.315831 L182.42907,215.518423 C181.717859,215.083042 180.787606,215.306817 180.351549,216.016676 C179.915493,216.728563 180.138592,217.658817 180.849803,218.095549 L188.624451,222.860394 L188.624451,264.14107 C188.624451,264.975324 189.301183,265.652056 190.135437,265.652056 C190.970366,265.652056 191.646423,264.975324 191.646423,264.14107 L191.646423,233.833465 L201.741296,227.125634 C202.436282,226.663211 202.624901,225.726197 202.163155,225.030535" id="Fill-27289" fill="#3A2A22"></path>
            <path d="M454.731718,265.652056 C453.798085,265.652056 453.041577,264.895549 453.041577,263.961915 L453.041577,207.125859 C453.041577,206.192225 453.798085,205.435718 454.731718,205.435718 C455.665352,205.435718 456.421859,206.192225 456.421859,207.125859 L456.421859,263.961915 C456.421859,264.895549 455.665352,265.652056 454.731718,265.652056" id="Fill-27290" fill="#3A2A22"></path>
            <polyline id="Fill-27291" fill="#6EBA6A" points="454.731718 190.742986 439.874028 212.338254 454.731718 212.338254 454.731718 190.742986"></polyline>
            <polyline id="Fill-27292" fill="#4DA64F" points="454.731718 190.742986 469.589408 212.338254 454.731718 212.338254 454.731718 190.742986"></polyline>
            <polyline id="Fill-27293" fill="#6EBA6A" points="454.731718 201.540282 437.341521 226.818028 454.731718 226.818028 454.731718 201.540282"></polyline>
            <polyline id="Fill-27294" fill="#4DA64F" points="454.731718 201.540282 472.121915 226.818028 454.731718 226.818028 454.731718 201.540282"></polyline>
            <polyline id="Fill-27295" fill="#6EBA6A" points="454.731718 214.179155 434.494648 243.594366 454.731718 243.594366 454.731718 214.179155"></polyline>
            <polyline id="Fill-27296" fill="#4DA64F" points="454.731718 214.179155 474.968789 243.594366 454.731718 243.594366 454.731718 214.179155"></polyline>
            <path d="M454.350423,130.738254 C454.350423,143.904451 443.676169,154.578028 430.509972,154.578028 C417.342423,154.578028 406.668845,143.904451 406.668845,130.738254 C406.668845,117.570704 417.342423,106.897127 430.509972,106.897127 C443.676169,106.897127 454.350423,117.570704 454.350423,130.738254" id="Fill-27297" fill="#FBE862"></path>
            <polygon id="Fill-27298" fill="#4DA64F" points="0.212957746 288.487887 479.787718 288.487887 479.787718 266.895324 0.212957746 266.895324"></polygon>
            <polygon id="Fill-27299" fill="#FAF9D9" points="0.212957746 266.895324 479.787718 266.895324 479.787718 259.042254 0.212957746 259.042254"></polygon>
            <polygon id="Fill-27300" fill="#439145" points="0.212957746 361.157859 479.787718 361.157859 479.787718 277.691268 0.212957746 277.691268"></polygon>
            <path d="M277.656338,137.060732 C278.571042,135.353014 279.09093,133.401915 279.09093,131.329127 C279.09093,124.611831 273.645972,119.166873 266.928676,119.166873 C263.006873,119.166873 259.521803,121.024676 257.297577,123.905352 C255.447887,122.472113 253.126986,121.616901 250.605972,121.616901 C249.587831,121.616901 248.604169,121.758873 247.669859,122.017803 C245.342873,116.34907 239.771493,112.354254 233.263775,112.354254 C225.420169,112.354254 218.934085,118.156169 217.855775,125.701634 C217.552901,125.670535 217.245972,125.653634 216.93431,125.653634 C212.009239,125.653634 208.015775,129.647099 208.015775,134.572845 C208.015775,135.436845 208.145577,136.269746 208.374761,137.060732 L277.656338,137.060732" id="Fill-27302" fill="#FFFFFE"></path>
            <path d="M440.772507,158.53431 C441.686535,156.826592 442.206423,154.875493 442.206423,152.802704 C442.206423,146.085408 436.761465,140.639775 430.044169,140.639775 C426.123042,140.639775 422.63662,142.497577 420.41307,145.379606 C418.562704,143.94569 416.241803,143.089803 413.720789,143.089803 C412.703324,143.089803 411.719662,143.231775 410.784676,143.492056 C408.459042,137.821972 402.886986,133.828507 396.379268,133.828507 C388.535662,133.828507 382.049577,139.629746 380.971268,147.175211 C380.668394,147.143437 380.360789,147.127887 380.049803,147.127887 C375.124056,147.127887 371.131268,151.120676 371.131268,156.045746 C371.131268,156.911099 371.260394,157.744 371.490254,158.53431 L440.772507,158.53431" id="Fill-27303" fill="#FFFFFE"></path>
            <path d="M379.803718,120.37093 C380.506141,119.058704 380.90569,117.560563 380.90569,115.968451 C380.90569,110.809465 376.723606,106.628056 371.56462,106.628056 C368.552789,106.628056 365.876282,108.054535 364.168563,110.267944 C362.746817,109.166648 360.965408,108.509521 359.028507,108.509521 C358.246986,108.509521 357.491831,108.618366 356.774535,108.817803 C354.987718,104.464 350.708282,101.396056 345.710197,101.396056 C339.686535,101.396056 334.705352,105.851944 333.876507,111.647099 C333.64462,111.622761 333.408676,111.610592 333.169352,111.610592 C329.386817,111.610592 326.320225,114.677183 326.320225,118.459718 C326.320225,119.123606 326.419606,119.763155 326.596056,120.37093 L379.803718,120.37093" id="Fill-27304" fill="#FFFFFE"></path>
            <polygon id="Fill-27305" fill="#40261B" points="325.878761 201.471324 343.705014 201.471324 343.705014 185.970704 325.878761 185.970704"></polygon>
            <polygon id="Fill-27306" fill="#342118" points="334.792563 201.471324 343.705014 201.471324 343.705014 185.970704 334.792563 185.970704"></polygon>
            <polygon id="Fill-27307" fill="#211812" points="324.617915 186.881352 344.966535 186.881352 344.966535 182.724958 324.617915 182.724958"></polygon>
            <polygon id="Fill-27308" fill="#F6D15F" points="267.082141 259.042254 360.154141 259.042254 360.154141 218.935887 267.082141 218.935887"></polygon>
            <polygon id="Fill-27309" fill="#DDB946" points="267.082141 259.042254 360.154141 259.042254 360.154141 249.112338 267.082141 249.112338"></polygon>
            <path d="M366.617239,227.350761 L260.618366,227.350761 L265.704338,205.620282 C266.511549,202.173746 269.584901,199.735887 273.124732,199.735887 L354.110873,199.735887 C357.650028,199.735887 360.724056,202.173746 361.531268,205.620282 L366.617239,227.350761" id="Fill-27310" fill="#40261B"></path>
            <path d="M345.852845,259.042254 L330.192,259.042254 L330.192,238.187268 C330.192,233.863211 333.698028,230.357183 338.022085,230.357183 C342.347493,230.357183 345.852845,233.863211 345.852845,238.187268 L345.852845,259.042254" id="Fill-27311" fill="#312118"></path>
            <path d="M344.005183,246.036958 C344.005183,246.855662 343.341296,247.518197 342.523268,247.518197 C341.704563,247.518197 341.041352,246.855662 341.041352,246.036958 C341.041352,245.218254 341.704563,244.555042 342.523268,244.555042 C343.341296,244.555042 344.005183,245.218254 344.005183,246.036958" id="Fill-27312" fill="#FFFFFE"></path>
            <polyline id="Fill-27313" fill="#342118" points="366.617239 227.350761 363.38569 213.543662 263.849915 213.543662 260.618366 227.350761 366.617239 227.350761"></polyline>
            <polygon id="Fill-27314" fill="#E36734" points="260.618366 230.357183 366.617239 230.357183 366.617239 227.350761 260.618366 227.350761"></polygon>
            <polygon id="Fill-27315" fill="#40261B" points="276.340056 249.112338 292.17938 249.112338 292.17938 233.273014 276.340056 233.273014"></polygon>
            <polygon id="Fill-27316" fill="#88CFE3" points="278.967211 246.485183 289.552901 246.485183 289.552901 235.899493 278.967211 235.899493"></polygon>
            <polyline id="Fill-27317" fill="#75C9E1" points="278.967211 235.899493 289.552901 246.485183 289.552901 235.899493 278.967211 235.899493"></polyline>
            <polygon id="Fill-27318" fill="#40261B" points="297.032789 249.112338 312.872113 249.112338 312.872113 233.273014 297.032789 233.273014"></polygon>
            <polygon id="Fill-27319" fill="#88CFE3" points="299.659268 246.485183 310.244958 246.485183 310.244958 235.899493 299.659268 235.899493"></polygon>
            <polyline id="Fill-27320" fill="#75C9E1" points="299.659268 235.899493 310.244958 246.485183 310.244958 235.899493 299.659268 235.899493"></polyline>
        </g>
    </g>
</svg>