<?xml version="1.0" encoding="UTF-8"?>
<svg width="120px" height="120px" viewBox="0 0 120 120" version="1.1" xmlns="http://www.w3.org/2000/svg" xmlns:xlink="http://www.w3.org/1999/xlink">
    <!-- Generator: Sketch 51.1 (57501) - http://www.bohemiancoding.com/sketch -->
    <title>Motorcycle26</title>
    <desc>Created with Sketch.</desc>
    <defs>
        <polygon id="path-1" points="0.999483354 0.140025641 7.95591447 0.140025641 7.95591447 8.47498607 0.999483354 8.47498607"></polygon>
        <polygon id="path-3" points="0.753582245 0.140025641 6.27010909 0.140025641 6.27010909 7.71750769 0.753582245 7.71750769"></polygon>
    </defs>
    <g id="Motorcycle26" stroke="none" stroke-width="1" fill="none" fill-rule="evenodd">
        <g id="Group" transform="translate(0.000000, 32.000000)">
            <path d="M70.2726545,3.15653077 C68.2042909,3.40350513 68.5075636,4.93937692 70.5159273,5.79937692 C72.5232,6.66158205 73.1308364,8.44332564 73.4046545,10.4411718 C73.6784727,12.4401205 76.1461091,10.0784282 75.8493818,8.57783846 C75.2057455,5.29991538 74.0232,2.71109487 70.2726545,3.15653077" id="Fill-1" fill="#342D2B"></path>
            <path d="M75.9594545,9.88812564 C75.9594545,9.88812564 75.8983636,5.98504872 74.1954545,4.6311 C72.4925455,3.27935641 71.3667273,3.89348462 72.4925455,4.38633077 C73.6183636,4.87807436 75.5329091,6.23092051 75.9594545,9.88812564" id="Fill-3" fill="#B0AAA8"></path>
            <path d="M41.8641818,25.3800333 C41.8641818,25.3800333 33.0463636,32.7881615 32.0721818,35.0473154 C31.098,37.3053667 32.634,35.9348795 37.242,31.712059 C41.8478182,27.4892385 37.2070909,28.2555205 39.5667273,29.8002128 C41.9252727,31.3427 51.8143636,39.5557 57.498,37.1829821 C63.1805455,34.8102641 62.85,32.3272897 63.0932727,29.8068282 C63.3376364,27.2863667 58.6554545,31.9843923 55.5823636,33.4971103 C52.5103636,35.0098282 40.7590909,29.4892897 43.5321818,27.0349821 C46.3052727,24.5806744 41.8641818,25.3800333 41.8641818,25.3800333" id="Fill-5" fill="#000000"></path>
            <path d="M38.5819636,26.3296718 C39.8103273,26.3296718 40.8052364,27.3352103 40.8052364,28.5755949 C40.8052364,29.8170821 39.8103273,30.8226205 38.5819636,30.8226205 C37.3546909,30.8226205 36.3597818,29.8170821 36.3597818,28.5755949 C36.3597818,27.3352103 37.3546909,26.3296718 38.5819636,26.3296718" id="Fill-7" fill="#320001"></path>
            <path d="M38.5819636,26.9994795 C39.4437818,26.9994795 40.1419636,27.7062231 40.1419636,28.5761462 C40.1419636,29.4471718 39.4437818,30.1517103 38.5819636,30.1517103 C37.7212364,30.1517103 37.0219636,29.4471718 37.0219636,28.5761462 C37.0219636,27.7062231 37.7212364,26.9994795 38.5819636,26.9994795" id="Fill-9" fill="#81181B"></path>
            <path d="M38.5819636,27.9028103 C38.9506909,27.9028103 39.2496,28.2038103 39.2496,28.5753744 C39.2496,28.948041 38.9506909,29.2512462 38.5819636,29.2512462 C38.2143273,29.2512462 37.9154182,28.948041 37.9154182,28.5753744 C37.9154182,28.2038103 38.2143273,27.9028103 38.5819636,27.9028103" id="Fill-11" fill="#ED1C24"></path>
            <path d="M38.3794909,26.7388333 C38.3794909,26.7388333 15.4987636,31.8381923 13.3834909,32.2979615 C11.2682182,32.7566282 13.3900364,37.5891667 36.4234909,35.7313462 C59.4569455,33.8735256 64.8744,36.7401923 69.4278545,32.1965256 C73.9813091,27.6539615 74.2856727,32.5107564 74.2856727,32.5107564 C74.2856727,32.5107564 74.4067636,36.3840641 60.1736727,39.1503974 C45.9394909,41.9178333 9.99076364,40.7491154 9.50312727,36.4458077 C9.01767273,32.1413974 11.2725818,31.4820641 23.3729455,28.3915769 C35.4711273,25.3010897 42.7158545,22.6130385 38.3794909,26.7388333" id="Fill-13" fill="#000000"></path>
            <path d="M65.9526545,31.7122795 C65.9526545,31.7122795 66.3181091,33.9868692 52.3872,34.2944846 C38.4584727,34.6009974 24.1381091,33.8490487 16.1832,33.3650231 C8.2272,32.8798949 16.3173818,34.8479718 22.8257455,36.1379718 C29.3341091,37.4301769 71.1661091,38.3772795 71.3046545,30.8511769 C71.4432,23.3250744 65.9526545,31.7122795 65.9526545,31.7122795" id="Fill-15" fill="#928A89"></path>
            <path d="M68.8460727,29.7019744 C68.8460727,29.7019744 70.2642545,35.0846923 57.2202545,35.518 C44.1762545,35.9535128 18.7646182,35.9314615 15.7406182,34.2357179 C12.7166182,32.5410769 14.7238909,37.6613846 14.7238909,37.6613846 C14.7238909,37.6613846 73.7377091,42.2237949 72.6435273,30.6667179 C71.5493455,19.109641 68.8460727,29.7019744 68.8460727,29.7019744" id="Fill-17" fill="#5F5654"></path>
            <path d="M36.3585818,12.9287769 C36.3585818,12.9287769 39.0967636,16.9244692 37.6360364,18.339059 C36.1764,19.7525462 18.9629455,17.2320846 15.6771273,15.1427256 C12.3924,13.0511615 14.0353091,13.0522641 11.7236727,12.6222641 C9.41203636,12.1911615 5.27530909,17.6014436 3.08585455,20.9212641 C0.895309091,24.2410846 -0.442145455,26.5774179 3.14694545,26.8839308 C6.73603636,27.1926487 7.64803636,17.1714436 11.1149455,18.0931872 C14.5818545,19.0160333 37.9382182,22.7041103 44.8742182,23.5034692 C51.8091273,24.3017256 56.0058545,24.8552128 52.4167636,19.9366744 C48.8276727,15.0192385 36.3585818,12.9287769 36.3585818,12.9287769" id="Fill-19" fill="#342D2B"></path>
            <path d="M39.7730182,11.1748179 C39.7730182,11.1748179 36.5417455,10.9620231 36.3584727,12.9289974 C36.1762909,14.8959718 39.6486545,16.2642538 44.5097455,19.1992795 C49.3708364,22.1343051 51.8090182,24.3019462 51.8090182,24.3019462 C51.8090182,24.3019462 64.8246545,27.7772282 67.3773818,21.3702282 C69.9290182,14.9654333 67.3195636,15.5112026 61.6021091,15.0183564 C55.8846545,14.5277154 39.7730182,11.1748179 39.7730182,11.1748179" id="Fill-21" fill="#5F5654"></path>
            <path d="M63.0613091,14.0357513 C63.0613091,14.0357513 47.6729455,12.7446487 43.5973091,11.8846487 C39.5216727,11.0235462 39.4605818,10.900059 39.0351273,11.7611615 C38.6096727,12.6222641 60.3940364,16.8814692 66.3471273,15.880341 C72.3002182,14.8792128 63.0613091,14.0357513 63.0613091,14.0357513" id="Fill-23" fill="#928A89"></path>
            <path d="M63.0613091,14.0357513 C63.0613091,14.0357513 65.1296727,15.4492385 64.5220364,17.4162128 C63.9133091,19.3853923 59.5289455,23.8728282 59.5289455,23.8728282 C59.5289455,23.8728282 66.1038545,27.1926487 70.6660364,23.0117256 C75.2271273,18.8319051 73.4020364,13.7292385 63.0613091,14.0357513" id="Fill-25" fill="#211B19"></path>
            <path d="M82.1618182,9.05591026 C82.1618182,9.05591026 80.0334545,7.64242308 74.4981818,9.17829487 C68.9618182,10.7163718 63.0610909,14.0361923 63.0610909,14.0361923 C63.0610909,14.0361923 69.3272727,14.3427051 69.5094545,16.4331667 C69.6916364,18.5236282 64.4007273,25.9008846 64.4007273,25.9008846 C64.4007273,25.9008846 66.408,28.6672179 72.9763636,24.8556538 C79.5469091,21.0440897 85.2076364,13.806859 82.1618182,9.05591026" id="Fill-27" fill="#000000"></path>
            <path d="M67.9406182,24.1170462 C67.9406182,24.1170462 24.4962545,19.7530974 16.5893455,17.6008923 C8.68134545,15.4497897 4.72789091,14.6504308 6.49189091,16.4950205 C8.25589091,18.3396103 28.0635273,24.0431744 39.1449818,26.9396103 C50.2264364,29.8360462 65.9268,32.9155077 68.0082545,33.2771487 C70.0897091,33.6365846 67.9406182,24.1170462 67.9406182,24.1170462" id="Fill-29" fill="#776E6C"></path>
            <path d="M97.9597091,32.0288256 C97.9597091,32.0288256 83.5575273,34.6275692 73.3389818,33.9516974 C63.1193455,33.2758256 64.5037091,30.9218513 64.5037091,30.9218513 C64.5037091,30.9218513 80.2313455,29.6682359 80.5771636,24.9150821 C80.9229818,20.1608256 90.5011636,18.0196462 94.4502545,19.7760308 C98.3993455,21.5324154 103.874618,27.1279282 97.9597091,32.0288256" id="Fill-31" fill="#000000"></path>
            <path d="M110.383745,28.1278436 L112.124836,29.717741 C112.361564,29.9349462 112.3812,30.3098179 112.1652,30.5490744 L107.531018,35.7322282 C107.316109,35.9725872 106.946291,35.9924333 106.708473,35.7752282 L104.967382,34.1842282 C104.729564,33.9670231 104.711018,33.5932538 104.925927,33.3528949 L109.5612,28.169741 C109.775018,27.9293821 110.144836,27.911741 110.383745,28.1278436 M110.429564,27.3384077 L112.8972,29.5920487 C113.2332,29.8985615 113.260473,30.4288949 112.955018,30.7695872 L107.827745,36.5051256 C107.523382,36.8436128 106.998655,36.8722795 106.662655,36.5635615 L104.195018,34.3099205 C103.859018,34.0034077 103.831745,33.4730744 104.136109,33.1323821 L109.263382,27.3979462 C109.567745,27.0583564 110.092473,27.0307923 110.429564,27.3384077" id="Fill-33" fill="#81181B"></path>
            <path d="M80.2314545,35.8231897 C80.2314545,35.8231897 83.814,38.640241 95.1878182,38.4671385 C106.560545,38.2951385 111.051818,36.1120615 113.042727,32.5474718 C115.032545,28.9850872 113.327455,28.3522154 113.327455,28.3522154 C113.327455,28.3522154 110.895818,35.3920872 102.806727,35.3060872 C94.7176364,35.2200872 96.2678182,34.3865487 92.2303636,35.3634205 C88.1929091,36.3413949 83.0743636,36.1682923 80.2314545,35.8231897" id="Fill-35" fill="#000000"></path>
            <path d="M112.133018,32.2032513 C112.133018,32.2032513 109.688291,36.9729436 98.8828364,37.8351487 C88.0784727,38.6973538 86.3733818,37.0313795 86.3733818,37.0313795 C86.3733818,37.0313795 103.8312,39.7888923 112.133018,32.2032513" id="Fill-37" fill="#928A89"></path>
            <path d="M89.5648364,22.1929615 C89.5648364,22.1929615 88.2262909,31.1060897 82.3877455,32.8889359 C76.5470182,34.6717821 64.5033818,30.9219615 64.5033818,30.9219615 L65.8113818,27.7256282 C65.8113818,27.7256282 78.3121091,16.8433205 84.5161091,17.3968077 C90.7212,17.9502949 109.148836,24.7112179 109.148836,24.7112179 C109.148836,24.7112179 107.5092,26.1269103 106.353927,26.0662692 C106.353927,26.0662692 102.278291,29.8149872 97.9593818,32.0289359 C97.9593818,32.0289359 99.7244727,27.0486538 97.3517455,25.5734231 C94.9790182,24.0981923 89.5648364,22.1929615 89.5648364,22.1929615" id="Fill-39" fill="#211B19"></path>
            <path d="M89.4018545,20.696341 C89.4018545,20.696341 84.5473091,29.8156487 81.7480364,30.3062897 C78.9509455,30.7991359 65.8109455,27.7251872 65.8109455,27.7251872 C65.8109455,27.7251872 71.3418545,19.0557256 71.4356727,15.3059051 C71.4356727,15.3059051 76.6993091,14.9993923 81.6880364,15.9211359 C86.6756727,16.8439821 89.4018545,20.696341 89.4018545,20.696341" id="Fill-41" fill="#342D2B"></path>
            <path d="M77.6234182,12.2450769 L71.4357818,15.3057949 C71.4357818,15.3057949 100.876145,24.8958974 109.148509,24.7117692 C109.148509,24.7117692 105.728509,21.8373846 100.152873,18.6344359 C94.5772364,15.4314872 82.1245091,11.5383333 77.6234182,12.2450769" id="Fill-43" fill="#B01D21"></path>
            <path d="M106.016945,23.2363179 C106.016945,23.2363179 102.0624,20.1623692 95.0980364,17.6419077 C88.1325818,15.1214462 81.6351273,12.3077026 81.6351273,12.3077026 L90.8544,13.9979333 C90.8544,13.9979333 97.5307636,15.6131897 106.016945,23.2363179" id="Fill-45" fill="#F05139"></path>
            <path d="M80.3922545,4.54543077 C80.3922545,4.54543077 79.6318909,10.5400718 77.6235273,12.2446359 C77.6235273,12.2446359 83.5035273,12.7804821 85.5053455,11.3989692 C87.5082545,10.0163538 85.3188,5.49804615 80.3922545,4.54543077" id="Fill-47" fill="#776E6C"></path>
            <path d="M82.8543273,5.37455897 C82.8543273,5.37455897 80.9997818,4.66781538 80.6954182,4.60717436 L80.3921455,4.54543077 C80.3921455,4.54543077 80.3157818,5.79022564 80.0725091,6.00522564 C79.8292364,6.22132821 80.6648727,7.08132821 80.9092364,8.26437949 C81.1514182,9.44853333 79.7986909,11.2920205 79.7986909,11.2920205 C79.7986909,11.2920205 82.2783273,9.64809744 81.8976,7.9876359 C81.5168727,6.32827692 83.4183273,7.38784103 83.4183273,7.38784103 L82.8543273,5.37455897 Z" id="Fill-49" fill="#B0AAA8"></path>
            <path d="M82.8543273,5.37455897 C82.8543273,5.37455897 82.1550545,5.45173846 82.8848727,6.55871282 C83.6146909,7.66568718 83.8590545,10.8311487 82.1245091,11.5389949 C80.3910545,12.2446359 77.6234182,12.2446359 77.6234182,12.2446359 C77.6234182,12.2446359 82.6732364,12.9833538 86.7172364,13.4442256 C90.7623273,13.9050974 90.8539636,13.9977128 90.8539636,13.9977128 C90.8539636,13.9977128 92.8317818,8.34155897 82.8543273,5.37455897" id="Fill-51" fill="#81181B"></path>
            <g id="Group-55" transform="translate(81.818182, 0.962538)">
                <mask id="mask-2" fill="white">
                    <use xlink:href="#path-1"></use>
                </mask>
                <g id="Clip-54"></g>
                <path d="M2.03967273,0.139584615 C2.03967273,0.139584615 1.15712727,0.555251282 1.05130909,1.58504615 C0.9444,2.61373846 1.03603636,4.41202051 1.03603636,4.41202051 C1.03603636,4.41202051 5.67458182,6.16509744 7.46912727,8.13207179 C9.26258182,10.0990462 5.79567273,3.09114872 2.03967273,0.139584615" id="Fill-53" fill="#928A89" mask="url(#mask-2)"></path>
            </g>
            <path d="M89.9228727,13.4488564 C89.9228727,13.4488564 91.5581455,11.7961128 89.8061455,9.90742051 C88.0541455,8.01872821 84.6679636,6.24911282 85.6017818,7.90075385 C86.5366909,9.55349744 84.4345091,11.206241 86.1854182,12.1500359 C87.9385091,13.0949333 89.9228727,13.4488564 89.9228727,13.4488564" id="Fill-56" fill="#E2E0DF"></path>
            <path d="M90.1369091,12.9987897 C90.1369091,12.9987897 90.9736364,11.0924564 89.346,9.55548205 C87.7183636,8.01850769 86.1823636,7.57307179 86.1823636,7.57307179 C86.1823636,7.57307179 89.4070909,10.4617897 90.1369091,12.9987897" id="Fill-58" fill="#FFFFFF"></path>
            <g id="Group-62" transform="translate(82.909091, 0.962538)">
                <mask id="mask-4" fill="white">
                    <use xlink:href="#path-3"></use>
                </mask>
                <g id="Clip-61"></g>
                <path d="M6.27010909,7.71750769 C6.27010909,7.71750769 4.64356364,3.82986667 3.0312,2.07678974 C1.41992727,0.324815385 0.948654545,0.139584615 0.948654545,0.139584615 C0.948654545,0.139584615 0.644290909,0.801123077 0.795927273,1.35461026 C0.948654545,1.90699487 3.3432,2.44173846 6.27010909,7.71750769" id="Fill-60" fill="#FFFFFF" mask="url(#mask-4)"></path>
            </g>
            <path d="M85.4857091,10.0636538 C85.4857091,10.0636538 85.7137091,8.6799359 85.1049818,7.75708974 C84.4973455,6.83424359 83.8133455,6.46598718 83.8133455,6.46598718 C83.8133455,6.46598718 84.6948,8.24883333 84.3751636,9.24885897 C84.0555273,10.2477821 85.4857091,10.0636538 85.4857091,10.0636538" id="Fill-63" fill="#FFFFFF"></path>
            <path d="M86.3379273,15.1350077 C86.3379273,15.1350077 84.1026545,13.9673923 82.0953818,13.3532641 C80.0881091,12.7380333 77.8212,13.1691359 77.1982909,13.3675974 L76.5753818,13.5671615 L86.3379273,15.1350077 Z" id="Fill-65" fill="#320001"></path>
            <path d="M89.6533091,15.3665462 L94.2449455,16.8274436 L95.1874909,16.5187256 C95.1874909,16.5187256 93.1660364,13.7987 89.6533091,15.3665462" id="Fill-67" fill="#320001"></path>
            <path d="M86.1590182,22.5913179 C86.1590182,22.5913179 82.5088364,20.931959 78.3426545,18.9341128 C74.1764727,16.9351641 72.1681091,16.0751641 72.1681091,16.0751641 L86.7361091,20.9617282 L86.1590182,22.5913179 Z" id="Fill-69" fill="#776E6C"></path>
            <path d="M107.327345,25.4199462 C107.327345,25.4199462 103.311709,26.4640744 97.6858909,24.4971 C92.0589818,22.5312282 90.4782545,21.5775103 90.4782545,21.5775103 C90.4782545,21.5775103 94.8571636,23.3294846 100.880073,24.1288436 C106.9008,24.9282026 107.327345,25.4199462 107.327345,25.4199462" id="Fill-71" fill="#47403D"></path>
            <path d="M92.0960727,24.9924821 L92.7211636,24.7333795 C93.0277091,24.6043795 93.3844364,24.7554308 93.5098909,25.0652513 L96.3680727,32.112841 C96.4935273,32.4237641 96.3462545,32.7809949 96.0375273,32.9088923 L95.4124364,33.1690974 C95.1058909,33.2958923 94.7513455,33.1459436 94.6248,32.8350205 L91.7666182,25.7885333 C91.6400727,25.4776103 91.7895273,25.1192769 92.0960727,24.9924821" id="Fill-73" fill="#5F5654"></path>
            <path d="M92.5755273,25.1626077 C93.3500727,24.8417615 94.1300727,24.9586333 94.3188,25.4239154 C94.3777091,25.571659 94.3711636,25.735941 94.3100727,25.9024282 C93.9653455,25.7414538 93.4340727,25.7568897 92.9060727,25.9751974 C92.3758909,26.1946077 91.9886182,26.5617615 91.8555273,26.9200949 C91.6940727,26.8451205 91.5762545,26.732659 91.5162545,26.5849154 C91.3264364,26.1196333 91.8020727,25.4823513 92.5755273,25.1626077" id="Fill-75" fill="#320001"></path>
            <path d="M92.6703273,25.3940359 C93.3150545,25.1272154 93.9510545,25.1867538 94.0896,25.5263436 C94.1125091,25.5847795 94.1201455,25.6476256 94.1125091,25.7126769 C93.8692364,25.5109077 93.3412364,25.5087026 92.8066909,25.7314205 C92.2710545,25.9530359 91.8968727,26.3290103 91.8630545,26.6454462 C91.8128727,26.6046513 91.7746909,26.5539333 91.7506909,26.4954974 C91.6121455,26.1548051 92.0245091,25.661959 92.6703273,25.3940359" id="Fill-77" fill="#ED1C24"></path>
            <path d="M92.9739273,26.1445513 C93.7473818,25.8237051 94.5284727,25.9405769 94.7172,26.405859 C94.7772,26.5536026 94.7695636,26.7189872 94.7084727,26.8843718 C94.3637455,26.7233974 93.8324727,26.7388333 93.3044727,26.957141 C92.7742909,27.1776538 92.3870182,27.5437051 92.2539273,27.903141 C92.0935636,27.8270641 91.9746545,27.7157051 91.9135636,27.566859 C91.7248364,27.1026795 92.2004727,26.4653974 92.9739273,26.1445513" id="Fill-79" fill="#320001"></path>
            <path d="M93.0687273,26.3770821 C93.7134545,26.109159 94.3494545,26.1686974 94.488,26.5093897 C94.5109091,26.5678256 94.5185455,26.6295692 94.512,26.6946205 C94.2687273,26.4928513 93.7396364,26.4917487 93.2050909,26.7122615 C92.6694545,26.9349795 92.2952727,27.3120564 92.2614545,27.6273897 C92.2123636,27.5865949 92.1730909,27.5369795 92.1490909,27.477441 C92.0105455,27.1367487 92.4229091,26.6450051 93.0687273,26.3770821" id="Fill-81" fill="#ED1C24"></path>
            <path d="M93.3724364,27.1264949 C94.1469818,26.8067513 94.9269818,26.9236231 95.1157091,27.3878026 C95.1746182,27.5366487 95.1680727,27.7009308 95.1069818,27.8685205 C94.7622545,27.705341 94.2309818,27.7207769 93.7029818,27.9401872 C93.1728,28.1595974 92.7855273,28.5267513 92.6524364,28.8850846 C92.4920727,28.8090077 92.3731636,28.6976487 92.3131636,28.5499051 C92.1244364,28.0846231 92.5989818,27.447341 93.3724364,27.1264949" id="Fill-83" fill="#320001"></path>
            <path d="M93.4672364,27.3590256 C94.1130545,27.0911026 94.7479636,27.1517436 94.8865091,27.4913333 C94.9094182,27.5497692 94.9170545,27.6115128 94.9094182,27.6776667 C94.6672364,27.4758974 94.1370545,27.4736923 93.6036,27.6953077 C93.0690545,27.9169231 92.6937818,28.294 92.6599636,28.6104359 C92.6097818,28.5685385 92.5716,28.5178205 92.5476,28.4604872 C92.4101455,28.1186923 92.8203273,27.6258462 93.4672364,27.3590256" id="Fill-85" fill="#ED1C24"></path>
            <path d="M93.7708364,28.109541 C94.5442909,27.7886949 95.3253818,27.9044641 95.5141091,28.3708487 C95.5741091,28.5185923 95.5664727,28.6828744 95.5053818,28.8493615 C95.1606545,28.6883872 94.6293818,28.7027205 94.1013818,28.9221308 C93.5712,29.1426436 93.1839273,29.5075923 93.0508364,29.8670282 C92.8904727,29.7909513 92.7715636,29.6795923 92.7115636,29.5318487 C92.5217455,29.0665667 92.9973818,28.4303872 93.7708364,28.109541" id="Fill-87" fill="#320001"></path>
            <path d="M93.8645455,28.3420718 C94.5103636,28.0741487 95.1463636,28.1336872 95.2838182,28.4732769 C95.3078182,28.5317128 95.3154545,28.594559 95.3078182,28.6596103 C95.0656364,28.457841 94.5365455,28.4567385 94.0009091,28.6772513 C93.4663636,28.8988667 93.0921818,29.2759436 93.0583636,29.5923795 C93.0081818,29.5504821 92.97,29.5008667 92.946,29.4413282 C92.8074545,29.1017385 93.2198182,28.6088923 93.8645455,28.3420718" id="Fill-89" fill="#ED1C24"></path>
            <path d="M94.1692364,29.0914846 C94.9437818,28.7706385 95.7237818,28.8875103 95.9125091,29.3527923 C95.9714182,29.5005359 95.9648727,29.6659205 95.9037818,29.8324077 C95.5590545,29.6703308 95.0277818,29.6857667 94.4997818,29.9051769 C93.9696,30.1245872 93.5823273,30.4906385 93.4481455,30.8489718 C93.2888727,30.7739974 93.1699636,30.6615359 93.1088727,30.5137923 C92.9212364,30.0485103 93.3957818,29.4123308 94.1692364,29.0914846" id="Fill-91" fill="#320001"></path>
            <path d="M94.2641455,29.3241256 C94.9099636,29.0573051 95.5448727,29.115741 95.6823273,29.4553308 C95.7063273,29.5148692 95.7139636,29.5766128 95.7063273,29.6427667 C95.4641455,29.4398949 94.9350545,29.4387923 94.4005091,29.6604077 C93.8648727,29.8809205 93.4906909,30.2579974 93.4568727,30.5744333 C93.4077818,30.5336385 93.3685091,30.4829205 93.3445091,30.4244846 C93.2070545,30.0837923 93.6183273,29.5909462 94.2641455,29.3241256" id="Fill-93" fill="#ED1C24"></path>
            <path d="M94.5677455,30.0735385 C95.3412,29.7526923 96.1222909,29.8706667 96.3110182,30.3359487 C96.3710182,30.4825897 96.3633818,30.6479744 96.3022909,30.8144615 C95.9575636,30.6523846 95.4262909,30.6678205 94.8982909,30.8872308 C94.3692,31.106641 93.9797455,31.4726923 93.8466545,31.8310256 C93.6873818,31.7560513 93.5684727,31.6446923 93.5084727,31.4969487 C93.3186545,31.0316667 93.7942909,30.3943846 94.5677455,30.0735385" id="Fill-95" fill="#320001"></path>
            <path d="M94.6614545,30.3060692 C95.3083636,30.0392487 95.9432727,30.0987872 96.0818182,30.4383769 C96.1036364,30.4968128 96.1123636,30.5585564 96.1047273,30.6247103 C95.8614545,30.422941 95.3334545,30.4207359 94.7989091,30.6423513 C94.2632727,30.8639667 93.8890909,31.2410436 93.8552727,31.5563769 C93.8050909,31.5155821 93.7669091,31.4659667 93.7429091,31.4064282 C93.6054545,31.0657359 94.0167273,30.5739923 94.6614545,30.3060692" id="Fill-97" fill="#ED1C24"></path>
            <path d="M94.9661455,31.0565846 C95.7406909,30.7357385 96.5206909,30.8526103 96.7094182,31.3178923 C96.7683273,31.4656359 96.7617818,31.6310205 96.7006909,31.7975077 C96.3559636,31.6354308 95.8246909,31.6497641 95.2966909,31.8691744 C94.7676,32.0896872 94.3792364,32.4557385 94.2450545,32.8140718 C94.0857818,32.7390974 93.9668727,32.6266359 93.9068727,32.4788923 C93.7181455,32.0136103 94.1916,31.3774308 94.9661455,31.0565846" id="Fill-99" fill="#320001"></path>
            <path d="M95.0609455,31.2880128 C95.7067636,31.0211923 96.3416727,31.0807308 96.4791273,31.4203205 C96.5031273,31.4787564 96.5107636,31.5416026 96.5042182,31.6066538 C96.2609455,31.4048846 95.7318545,31.4026795 95.1973091,31.6253974 C94.6616727,31.8459103 94.2874909,32.2229872 94.2536727,32.5394231 C94.2034909,32.4975256 94.1653091,32.4468077 94.1413091,32.3894744 C94.0038545,32.0487821 94.4151273,31.5559359 95.0609455,31.2880128" id="Fill-101" fill="#ED1C24"></path>
            <path d="M97.2715636,31.6153641 C97.2715636,31.6153641 95.3330182,30.8534923 93.9148364,32.0034667 C92.4966545,33.153441 93.0748364,33.4908256 93.9868364,33.5525692 C94.8999273,33.6132103 95.4159273,34.5349538 96.4512,36.042159 C97.4842909,37.5482615 97.4842909,38.9000051 97.4842909,38.9000051 L99.4010182,38.8393641 C99.4010182,38.8393641 101.195564,35.9804154 97.2715636,31.6153641" id="Fill-103" fill="#B0AAA8"></path>
            <path d="M96.3820364,32.5349026 C96.3820364,32.5349026 98.6107636,34.2901846 98.7624,37.0256462 C98.9140364,39.7622103 100.434764,32.6605949 96.3820364,32.5349026" id="Fill-105" fill="#E2E0DF"></path>
            <path d="M115.199127,31.2837128 L117.061309,32.9849692 C117.315491,33.2165077 117.336218,33.6167385 117.106036,33.8736359 L112.148945,39.4184308 C111.918764,39.6742256 111.523855,39.6951744 111.268582,39.4636359 L109.4064,37.7623795 C109.152218,37.5297385 109.132582,37.1306103 109.361673,36.8726103 L114.318764,31.3289179 C114.548945,31.0720205 114.944945,31.0510718 115.199127,31.2837128 M115.249309,30.4391487 L117.888218,32.8493538 C118.248218,33.1790205 118.275491,33.7457385 117.9504,34.1095846 L112.4664,40.2442513 C112.140218,40.6080974 111.580582,40.6356615 111.219491,40.3082 L108.580582,37.8968923 C108.220582,37.5672256 108.192218,37.0016103 108.517309,36.635559 L114.001309,30.5030974 C114.327491,30.1392513 114.889309,30.1105846 115.249309,30.4391487" id="Fill-107" fill="#81181B"></path>
            <path d="M82.9469455,39.5152359 C82.9469455,39.5152359 86.7793091,42.527441 98.9451273,42.3433128 C111.109855,42.1580821 115.915309,39.8228513 118.044764,36.0112872 C120.174218,32.1997231 118.348036,31.5238513 118.348036,31.5238513 C118.348036,31.5238513 115.747309,39.0543641 107.095309,38.9617487 C98.4422182,38.8702359 100.1004,37.9782615 95.7814909,39.0234923 C91.4636727,40.0687231 85.9873091,39.8845949 82.9469455,39.5152359" id="Fill-109" fill="#000000"></path>
            <path d="M117.070909,35.642259 C117.070909,35.642259 114.456,40.7460282 102.898909,41.6677718 C91.3418182,42.5895154 89.5167273,40.8066692 89.5167273,40.8066692 C89.5167273,40.8066692 108.189818,43.7571308 117.070909,35.642259" id="Fill-111" fill="#928A89"></path>
            <path d="M21.3937091,17.7848 C21.3937091,17.7848 25.0438909,22.5798513 28.5097091,24.3009538 C31.9777091,26.023159 64.6308,31.7399538 64.6308,31.7399538 L65.2144364,31.1313385 C65.2144364,31.1313385 33.4995273,25.5303128 29.5460727,23.6261846 C25.5915273,21.7198513 21.3937091,17.7848 21.3937091,17.7848" id="Fill-113" fill="#FFFFFF"></path>
            <path d="M66.4075636,24.5477077 L64.1570182,28.7903744 C64.1570182,28.7903744 33.8035636,23.5642205 29.3024727,21.7813744 C24.8002909,19.9985282 35.3242909,21.5355026 66.4075636,24.5477077" id="Fill-115" fill="#928A89"></path>
            <path d="M13.9746545,32.232359 C15.4866545,32.232359 16.7117455,33.471641 16.7117455,34.9997949 C16.7117455,36.5279487 15.4866545,37.7661282 13.9746545,37.7661282 C12.4626545,37.7661282 11.2364727,36.5279487 11.2364727,34.9997949 C11.2364727,33.471641 12.4626545,32.232359 13.9746545,32.232359" id="Fill-117" fill="#320001"></path>
            <path d="M13.9746545,33.0581795 C15.0361091,33.0581795 15.8957455,33.927 15.8957455,34.9997949 C15.8957455,36.0714872 15.0361091,36.9403077 13.9746545,36.9403077 C12.9132,36.9403077 12.0535636,36.0714872 12.0535636,34.9997949 C12.0535636,33.927 12.9132,33.0581795 13.9746545,33.0581795" id="Fill-119" fill="#81181B"></path>
            <path d="M13.9746545,34.1693436 C14.4284727,34.1693436 14.7961091,34.5409077 14.7961091,34.9995744 C14.7961091,35.458241 14.4284727,35.8298051 13.9746545,35.8298051 C13.5208364,35.8298051 13.1532,35.458241 13.1532,34.9995744 C13.1532,34.5409077 13.5208364,34.1693436 13.9746545,34.1693436" id="Fill-121" fill="#ED1C24"></path>
            <path d="M33.5609455,33.2724077 C34.7882182,33.2724077 35.7831273,34.2779462 35.7831273,35.5183308 C35.7831273,36.7598179 34.7882182,37.7653564 33.5609455,37.7653564 C32.3336727,37.7653564 31.3376727,36.7598179 31.3376727,35.5183308 C31.3376727,34.2779462 32.3336727,33.2724077 33.5609455,33.2724077" id="Fill-123" fill="#320001"></path>
            <path d="M33.5609455,33.9432077 C34.4216727,33.9432077 35.1209455,34.6488487 35.1209455,35.5187718 C35.1209455,36.3909 34.4216727,37.0943359 33.5609455,37.0943359 C32.6991273,37.0943359 32.0009455,36.3909 32.0009455,35.5187718 C32.0009455,34.6488487 32.6991273,33.9432077 33.5609455,33.9432077" id="Fill-125" fill="#81181B"></path>
            <path d="M33.5609455,34.8455462 C33.9285818,34.8455462 34.2274909,35.1465462 34.2274909,35.5181103 C34.2274909,35.8918795 33.9285818,36.1939821 33.5609455,36.1939821 C33.1922182,36.1939821 32.8933091,35.8918795 32.8933091,35.5181103 C32.8933091,35.1465462 33.1922182,34.8455462 33.5609455,34.8455462" id="Fill-127" fill="#ED1C24"></path>
            <path d="M56.5531636,33.2724077 C57.7815273,33.2724077 58.7764364,34.2779462 58.7764364,35.5183308 C58.7764364,36.7598179 57.7815273,37.7653564 56.5531636,37.7653564 C55.3258909,37.7653564 54.3309818,36.7598179 54.3309818,35.5183308 C54.3309818,34.2779462 55.3258909,33.2724077 56.5531636,33.2724077" id="Fill-129" fill="#320001"></path>
            <path d="M56.5531636,33.9432077 C57.4149818,33.9432077 58.1131636,34.6488487 58.1131636,35.5187718 C58.1131636,36.3897974 57.4149818,37.0943359 56.5531636,37.0943359 C55.6924364,37.0943359 54.9931636,36.3897974 54.9931636,35.5187718 C54.9931636,34.6488487 55.6924364,33.9432077 56.5531636,33.9432077" id="Fill-131" fill="#81181B"></path>
            <path d="M56.5531636,34.8455462 C56.9218909,34.8455462 57.2197091,35.1465462 57.2197091,35.5181103 C57.2197091,35.8918795 56.9218909,36.1939821 56.5531636,36.1939821 C56.1844364,36.1939821 55.8866182,35.8918795 55.8866182,35.5181103 C55.8866182,35.1465462 56.1844364,34.8455462 56.5531636,34.8455462" id="Fill-133" fill="#ED1C24"></path>
        </g>
    </g>
</svg>