<?xml version="1.0" encoding="UTF-8"?>
<svg width="120px" height="120px" viewBox="0 0 120 120" version="1.1" xmlns="http://www.w3.org/2000/svg" xmlns:xlink="http://www.w3.org/1999/xlink">
    <!-- Generator: Sketch 51.1 (57501) - http://www.bohemiancoding.com/sketch -->
    <title>Boat52</title>
    <desc>Created with Sketch.</desc>
    <defs>
        <polygon id="path-1" points="0 0.19025567 101.500541 0.19025567 101.500541 37.8157402 0 37.8157402"></polygon>
    </defs>
    <g id="Boat52" stroke="none" stroke-width="1" fill="none" fill-rule="evenodd">
        <g id="Group-109" transform="translate(5.000000, 8.000000)">
            <path d="M99.4077295,61.3809072 C99.4077295,61.3809072 90.9296807,63.2212784 80.1121197,65.5698557 C79.2208514,65.7639175 78.3156319,65.9601237 77.3964612,66.1595464 C65.785827,68.6812784 53.3987539,71.8554227 41.5461197,73.0557113 C41.3722661,73.0750103 41.1619246,73.0959175 40.9397783,73.1157526 C40.6623636,73.1414845 40.3822661,73.1318351 40.1048514,73.1559588 C39.2967539,73.2272577 38.4945587,73.2771134 37.6977295,73.32 C36.4705587,73.3859381 35.2562661,73.4277526 34.0639734,73.456701 C34.0323148,73.4572371 34.0017295,73.4577732 33.9711441,73.4588454 C33.4249002,73.4727835 32.8834856,73.5253196 32.3463636,73.5306804 C32.0662661,73.5338969 31.789388,73.5548041 31.5119734,73.5558763 C31.3381197,73.5558763 31.5109002,73.5665979 31.3386563,73.5660619 C29.2282661,73.5623093 27.7542661,73.5070928 25.6079246,73.3870103 L25.6079246,73.4009485 C24.5347539,73.3183918 22.6647539,73.2063505 21.477827,73.0744742 C19.9786075,72.9195464 18.3887051,72.7372784 17.08051,72.5314227 L16.9935831,72.5003299 C14.7012905,72.1336495 12.6928514,71.7010309 11.1512417,71.2496495 C5.56538802,69.6135258 6.56772948,66.1531134 6.56772948,66.1531134 L16.7269002,64.7351753 L37.3156807,61.8623093 C37.3065587,61.6468041 37.2942173,61.4323711 37.2845587,61.2179381 L10.2369002,60.5773196 C4.12090021,63.036866 1.22011972,65.1913814 0.290753869,67.5774845 C-0.934270521,70.9081649 0.396997771,77.6906804 31.0612417,76.3563711 C61.7254856,75.0215258 71.6287051,69.5427629 85.6469978,66.7604948 C99.6652905,63.9787629 101.436559,63.8259794 101.436559,63.8259794 C101.436559,63.8259794 101.583583,60.7729897 99.4077295,61.3809072" id="Fill-1" fill="#5FA7A5"></path>
            <path d="M11.0748242,71.0507629 C16.6606778,72.6868866 27.787312,74.0758763 40.0724339,72.9988866 C52.358629,71.9213608 65.2812144,68.5842474 77.3629705,65.9606598 C84.8928729,64.3256082 91.5862388,62.8722887 95.5612632,62.009732 C82.6821412,62.8931959 59.2419461,63.1639175 41.2223364,61.1134021 L6.51277538,65.9542268 C6.51277538,65.9542268 5.48843391,69.4146392 11.0748242,71.0507629" id="Fill-3" fill="#1D343F"></path>
            <path d="M27.5205082,71.5203711 C27.4464594,71.4576495 20.1204594,65.1216907 14.0661667,54.9093196 C8.47441065,45.4764124 2.8515326,30.7110928 7.81923992,13.9381443 L8.12616675,14.0287423 C3.19065455,30.6917938 8.78187406,45.3681237 14.341435,54.7458144 C20.369435,64.9142268 27.6557277,71.2148041 27.7287033,71.2775258 L27.5205082,71.5203711 Z" id="Fill-5" fill="#060507"></path>
            <path d="M27.6773647,71.0116289 C27.5952671,70.9805361 19.3694135,67.8417732 12.8649257,59.2006598 C9.04497444,54.1261031 6.55575493,48.1745155 5.46487688,41.5126186 C4.10302322,33.1926186 4.93204761,23.7350515 7.92834029,13.4020619 L8.23634029,13.4910515 C5.25453542,23.7731134 4.42765737,33.1797526 5.77877932,41.4493608 C6.85946225,48.0592577 9.32614517,53.9620619 13.1112183,58.9948041 C19.5572183,67.5678351 27.7079501,70.6819381 27.789511,70.7119588 L27.6773647,71.0116289 Z" id="Fill-7" fill="#060507"></path>
            <path d="M36.5570244,62.7216495 L17.1707317,65.5993402 C17.1707317,65.5993402 21.9221951,68.4545155 25.900439,69.9405361 C28.5554634,70.9322887 32.6560488,71.474268 37.497122,71.8972371 C36.9734146,68.9278763 36.6927805,65.7414021 36.5570244,62.7216495" id="Fill-9" fill="#BCBCBC"></path>
            <path d="M37.9596585,73.1388041 L37.497122,71.6999588 L17.1707317,65.4020619 L17.974,72.4268866 C23.370439,73.2133196 30.3873659,73.6303918 37.9596585,73.1388041" id="Fill-11" fill="#999999"></path>
            <path d="M10.147867,10.7397755 C10.1972328,10.7338785 10.2460621,10.7258373 10.2959645,10.723693 C11.612745,10.6625796 12.743867,11.9797342 12.8216719,13.6657136 C12.8994767,15.351693 11.8949889,16.7669507 10.5782084,16.827528 C10.5277694,16.8296724 10.4784036,16.8264559 10.4285011,16.8253837 C9.17664746,16.7830332 8.12762307,15.5071569 8.05303771,13.8855074 C7.97791576,12.264394 8.90567185,10.8963115 10.147867,10.7397755" id="Fill-13" fill="#E2E2E2"></path>
            <path d="M9.06710194,13.8393693 C9.0247117,12.9232044 9.47061413,12.1582147 10.0630044,12.1308745 C10.6553946,12.1040703 11.16998,12.8240291 11.2123702,13.7401941 C11.2542239,14.656359 10.8083215,15.4213487 10.2164678,15.4486889 C9.62354096,15.4760291 9.1089556,14.7555343 9.06710194,13.8393693 M8.0529556,13.8860085 C8.13129706,15.5714518 9.26134584,16.8886064 10.5781263,16.8280291 C11.8954434,16.7674518 12.8999312,15.351658 12.8221263,13.6662147 C12.7443215,11.9802353 11.6137361,10.6630807 10.2969556,10.723658 C8.98017511,10.7847714 7.97568731,12.2000291 8.0529556,13.8860085" id="Fill-15" fill="#FFFFFF"></path>
            <path d="M9.89021335,11.7947805 C10.6639694,11.7593991 11.3357743,12.7002238 11.3915792,13.897296 C11.4463109,15.0938321 10.8641158,16.0930898 10.0903597,16.1284713 C9.3166036,16.1638527 8.64426213,15.223028 8.58899384,14.0264919 C8.53372555,12.8299558 9.11645725,11.8306981 9.89021335,11.7947805" id="Fill-17" fill="#2F3030"></path>
            <path d="M9.74701305,16.095635 C9.68423256,16.1122535 9.61984232,16.1251195 9.55384232,16.1277999 C8.77954964,16.1637174 8.10720817,15.2223566 8.05247646,14.0258205 C7.99667159,12.8287484 8.57940329,11.8300267 9.35369598,11.7946453 C9.41969598,11.7914288 9.48515939,11.7978618 9.54954964,11.8085834 C8.87452524,11.9870989 8.39159842,12.9134494 8.44150085,14.0075937 C8.49193988,15.1017381 9.05911061,15.9798412 9.74701305,16.095635" id="Fill-19" fill="#E8ECED"></path>
            <path d="M12.571122,13.6796167 C12.496,12.0590394 11.4469756,10.782091 10.195122,10.7408126 C10.2444878,10.7343796 10.2938537,10.7263384 10.3442927,10.723658 C11.6610732,10.6630807 12.791122,11.9802353 12.8694634,13.6662147 C12.9467317,15.351658 11.9422439,16.7674518 10.6254634,16.8280291 C10.5750244,16.8307095 10.5256585,16.8269569 10.4762927,16.8253487 C11.7184878,16.6688126 12.6462439,15.3007301 12.571122,13.6796167" id="Fill-21" fill="#E8ECED"></path>
            <path d="M8.29534965,14.7005233 C11.7364716,20.2956161 15.177057,25.8901728 18.6181789,31.4852656 C24.1391057,40.4625027 29.6605692,49.4397398 35.181496,58.416977 C36.4494472,60.4782141 37.7168618,62.5389151 38.9842765,64.5996161 C40.0612033,66.3504615 42.831057,64.7459666 41.7487643,62.9854718 C38.3081789,57.3909151 34.867057,51.7958223 31.4253984,46.2012656 C25.9044716,37.2240285 20.3830082,28.2467914 14.8620814,19.2690182 L11.0593009,13.0858429 C9.98291062,11.3355337 7.21252038,12.9405646 8.29534965,14.7005233" id="Fill-23" fill="#060507"></path>
            <polygon id="Fill-25" fill="#060507" points="49.1066829 51.9914227 7.51219512 12.0237938 7.73380488 11.7938144 49.3282927 51.7609072"></polygon>
            <polygon id="Fill-27" fill="#060507" points="46.3250244 56.5835052 7.51219512 12.0039588 7.75312195 11.7938144 46.5659512 56.3733608"></polygon>
            <path d="M8.53811311,10.7397755 C8.58747896,10.7338785 8.63630823,10.7258373 8.68621067,10.723693 C10.0029912,10.6625796 11.1341131,11.9797342 11.2113814,13.6657136 C11.2897229,15.351693 10.2852351,16.7669507 8.96845457,16.827528 C8.91801555,16.8296724 8.86811311,16.8264559 8.81874725,16.8253837 C7.5668936,16.7830332 6.51786921,15.5071569 6.44328384,13.8855074 C6.36816189,12.264394 7.2953814,10.8963115 8.53811311,10.7397755" id="Fill-29" fill="#E2E2E2"></path>
            <path d="M6.92028023,13.8393693 C6.87842657,12.9232044 7.32432901,12.1582147 7.91618267,12.1308745 C8.50910949,12.1040703 9.02369486,12.8240291 9.06554852,13.7401941 C9.10793876,14.656359 8.66203632,15.4213487 8.07018267,15.4486889 C7.47725584,15.4760291 6.96267047,14.7555343 6.92028023,13.8393693 M5.90667047,13.8860085 C5.98447535,15.5714518 7.11506071,16.8886064 8.4318412,16.8280291 C9.74862169,16.7674518 10.7536461,15.351658 10.6753046,13.6662147 C10.5980363,11.9802353 9.46691437,10.6630807 8.15013388,10.723658 C6.8333534,10.7847714 5.82886559,12.2000291 5.90667047,13.8860085" id="Fill-31" fill="#FFFFFF"></path>
            <path d="M7.74387189,11.7947805 C8.5170914,11.7593991 9.18943286,12.7002238 9.24470116,13.897296 C9.29996945,15.0938321 8.71723774,16.0930898 7.94348164,16.1284713 C7.17026213,16.1638527 6.49792067,15.223028 6.44265238,14.0264919 C6.38738408,12.8299558 6.97011579,11.8306981 7.74387189,11.7947805" id="Fill-33" fill="#2F3030"></path>
            <path d="M8.13725695,16.095635 C8.07393988,16.1122535 8.01008622,16.1251195 7.94354964,16.1277999 C7.16979354,16.1637174 6.49745207,15.2223566 6.44272037,14.0258205 C6.38691549,12.8287484 6.9696472,11.8300267 7.74393988,11.7946453 C7.80993988,11.7914288 7.87486671,11.7978618 7.93925695,11.8085834 C7.26476915,11.9870989 6.78130573,12.9134494 6.83174476,14.0075937 C6.88218378,15.1017381 7.44881793,15.9798412 8.13725695,16.095635" id="Fill-35" fill="#E8ECED"></path>
            <path d="M10.4247805,13.6796167 C10.3496585,12.0590394 9.30009756,10.782091 8.04878049,10.7408126 C8.09814634,10.7343796 8.14697561,10.7263384 8.19741463,10.723658 C9.51419512,10.6630807 10.6447805,11.9802353 10.7225854,13.6662147 C10.8003902,15.351658 9.79590244,16.7674518 8.47912195,16.8280291 C8.42868293,16.8307095 8.37931707,16.8269569 8.32995122,16.8253487 C9.57214634,16.6688126 10.4993659,15.3007301 10.4247805,13.6796167" id="Fill-37" fill="#E8ECED"></path>
            <polygon id="Fill-39" fill="#6A697F" points="13.2010732 30.1835876 12.8780488 27.8237526 66.0584878 20.371134 66.4292683 22.9732784"></polygon>
            <polygon id="Fill-41" fill="#060507" points="9.9697561 70.863134 9.65853659 70.746268 38.8723902 0 39.1836098 0.116329897"></polygon>
            <polygon id="Fill-43" fill="#060507" points="70.2057561 51.4371134 42.5211707 4.22218557 59.519122 48.9716701 58.9659024 48.9298557 40.7804878 0.643298969 41.0949268 0.536082474 70.5121463 51.3079175"></polygon>
            <path d="M38.801561,0 C38.801561,0 13.9887805,14.527299 9.12195122,57.3994227 L38.4238049,58.3520412 C36.9814634,46.9506392 38.801561,15.5013608 38.801561,0" id="Fill-45" fill="#0282A5"></path>
            <path d="M41.3170732,0 C41.3170732,0 66.0016098,14.527299 70.8679024,57.3994227 L41.5665854,58.3520412 C43.0089268,46.9506392 41.3170732,15.5013608 41.3170732,0" id="Fill-47" fill="#0282A5"></path>
            <polygon id="Fill-49" fill="#8B899B" points="41.5660488 57.6685361 38.6341463 57.7403711 38.8010244 0 41.4447805 0"></polygon>
            <g id="Group-53" transform="translate(0.000000, 63.793814)">
                <mask id="mask-2" fill="white">
                    <use xlink:href="#path-1"></use>
                </mask>
                <g id="Clip-52"></g>
                <path d="M101.500541,0.19025567 C101.500541,0.19025567 99.7249805,0.299080412 85.7066878,3.08134845 C71.6883951,5.86361649 61.7824927,11.3198639 31.1182488,12.6541732 C0.455078049,13.9884825 -0.878336585,7.19470928 0.346687805,3.86456495 C-0.830580488,6.88753402 1.15746829,10.2766474 3.78780976,15.1367711 C8.4942,23.8309567 11.2586878,27.583534 23.3452732,31.9413485 C35.431322,36.2986268 43.0733707,35.3690598 61.3639561,34.9198227 C71.5864439,34.6689361 78.3592244,36.3495546 82.3771756,37.8157402 C100.872737,31.4620907 101.500541,0.19025567 101.500541,0.19025567" id="Fill-51" fill="#309A90" mask="url(#mask-2)"></path>
            </g>
            <path d="M103.457951,64.8659794 C102.999707,72.1266804 101.569171,80.7704742 99.804878,85.9093608 C99.804878,85.9093608 104.552049,80.4734845 107.312244,75.419299 C108.459463,73.3173196 109.092098,71.3825979 109.440878,69.8376082 C108.851707,66.9813608 105.704634,65.5414433 103.457951,64.8659794" id="Fill-54" fill="#309A90"></path>
            <path d="M102.506049,57.9258557 L99.1835122,61.4983093 C101.358829,60.8909278 101.221463,64.0457732 101.221463,64.0457732 C101.221463,64.0457732 100.593122,95.1685773 82.0980976,101.601567 L82.097561,101.601567 C85.2537561,103.209814 86.6665854,103.756082 86.6665854,103.756082 C86.6665854,103.756082 91.8821951,102.765938 96.3836098,94.6764536 C98.5836098,90.7228454 99.2752683,88.0086598 99.7190244,86.7220619 C99.7404878,86.508701 99.7871707,86.2765773 99.8698049,86.0353402 C101.94478,79.9915464 103.559902,69.179299 103.673122,61.3921649 L103.670439,57.8969072 L102.506049,57.9258557 Z" id="Fill-56" fill="#63D3C6"></path>
            <path d="M97.8259512,91.9472577 L96.8021463,91.4084948 L94.1170732,90.9887423 C94.1170732,90.9887423 81.5840488,90.3577732 61.4980488,89.9642887 C34.3564878,89.4324948 14.146,91.0932784 4.82926829,80.4123711 C8.96795122,87.7883299 12.1761951,91.3050309 23.348439,95.3331546 C35.435561,99.690433 43.0690244,98.6734845 61.3596098,98.2247835 C71.581561,97.9733608 78.3634634,99.4679588 82.3642439,101.032247 C85.5225854,102.284536 86.9418537,103.248412 86.9418537,103.248412 C86.9418537,103.248412 92.1617561,102.287753 96.6631707,94.1988041 C97.1101463,93.3946804 97.4927317,92.6463093 97.8259512,91.9472577" id="Fill-58" fill="#1D7268"></path>
            <path d="M86.9268293,103.777526 C86.9268293,103.777526 92.1461951,102.775588 96.6470732,94.6866392 C98.8470732,90.7330309 99.540878,88.0134845 99.9840976,86.7268866 C100.005561,86.5140619 100.053317,86.2781856 100.135951,86.0369485 C102.21039,79.9936907 103.826049,69.1803711 103.939268,61.392701 L103.936585,57.8969072 L102.772732,57.9253196 C103.300732,74.867134 98.1103415,98.572701 86.9268293,103.777526" id="Fill-60" fill="#91F9E9"></path>
            <path d="M109.963512,66.1954639 C109.963512,66.1954639 109.286878,64.6333196 106.752585,63.0331134 C104.21722,61.4329072 103.710146,61.1134021 103.710146,61.1134021 C103.692976,62.2783093 103.642,63.5139794 103.560976,64.792 C105.808195,65.4674639 108.954732,66.9073814 109.544439,69.7636289 C110.034341,67.5941031 109.963512,66.1954639 109.963512,66.1954639" id="Fill-62" fill="#FFE8C2"></path>
            <path d="M106.656537,63.0331134 C104.121171,61.4334433 103.614098,61.1134021 103.614098,61.1134021 C103.605512,61.7127423 103.587268,62.3313814 103.560976,62.9650309 C105.579073,63.829732 108.825951,65.5698557 109.745122,68.1087423 C109.902878,66.911134 109.867463,66.1954639 109.867463,66.1954639 C109.867463,66.1954639 109.191366,64.6333196 106.656537,63.0331134" id="Fill-64" fill="#309A90"></path>
            <path d="M0,68.9112577 C0.0203902439,72.4113402 4.70960976,77.259134 31.0613171,76.1124536 C61.725561,74.7776082 71.6287805,69.2988454 85.6476098,66.5165773 C99.6659024,63.7348454 101.437171,63.5820619 101.437171,63.5820619 C101.437171,63.5820619 101.470976,62.8578144 101.255268,62.185567 C63.922878,69.4049897 54.5165366,72.5442887 35.7677073,74.6666392 C17.018878,76.7889897 1.93492683,74.0324536 0,68.9112577" id="Fill-66" fill="#FFE8C2"></path>
            <path d="M37.5609756,73.0932371 C51.7670732,72.7120825 79.7317561,65.4020619 79.7317561,65.4020619 L37.5609756,73.0932371 Z" id="Fill-68" fill="#E2E2E2"></path>
            <path d="M96.636878,45.0309278 C97.8286341,54.4273814 96.5853659,62.0065155 96.5853659,62.0065155 L96.636878,45.0309278 Z" id="Fill-70" fill="#FBFBFB"></path>
            <path d="M91.2195122,34.3092784 C92.0249268,38.7850309 91.3423902,44.6058144 91.3423902,44.6058144 L91.2195122,34.3092784 Z" id="Fill-72" fill="#E2E2E2"></path>
            <path d="M41.3170732,38.3620619 L76.2745366,33.2371134 L77.6063415,62.0778144 L42.5061463,63.6957113 C42.3644878,54.0730309 41.3170732,38.3620619 41.3170732,38.3620619" id="Fill-92" fill="#C6CBCC"></path>
            <polygon id="Fill-94" fill="#E2E2E2" points="91.2694146 34.2283299 91.5935122 61.4543505 78.0635122 62.0778144 76.7317073 33.2371134"></polygon>
            <polygon id="Fill-96" fill="#5E6C72" points="80.4878049 35.3814433 80.7609268 41.2992577 88.0042927 41.3769897 87.6914634 35.8070928"></polygon>
            <polygon id="Fill-98" fill="#0F1416" points="81.5609756 36.4536082 81.7621951 40.8103505 87.019122 40.8703918 86.8264878 36.7688247"></polygon>
            <polygon id="Fill-100" fill="#5E6C72" points="81.3361463 41.1175258 81.0716098 35.3814433 80.4878049 35.3905567 80.7609268 41.3083711 88.0042927 41.3861031 88.1309268 41.2065155"></polygon>
            <polygon id="Fill-102" fill="#5E6C72" points="73.1296098 35.9175258 73.363561 40.9770722 67.2872683 41.6080412 67.0731707 36.8444124"></polygon>
            <polygon id="Fill-104" fill="#0F1416" points="71.9829268 36.9896907 72.1546341 40.7138557 67.8533659 41.171134 67.6097561 37.6678351"></polygon>
            <polygon id="Fill-106" fill="#5E6C72" points="72.9117561 40.8500206 72.6853171 35.9459381 72.9761463 35.9175258 73.2100976 40.9765361 67.1338049 41.6080412 67.0731707 41.4627629"></polygon>
            <polygon id="Fill-108" fill="#5E6C72" points="55.8445854 38.5979381 56.0549268 43.1428454 50.6665366 43.7068041 50.4390244 39.428866"></polygon>
            <polygon id="Fill-110" fill="#0F1416" points="55.5220976 39.1340206 55.6766341 42.4797113 51.649561 42.8978557 51.5121951 39.747299"></polygon>
            <polygon id="Fill-112" fill="#5E6C72" points="56.357561 43.0163299 56.1541951 38.6113402 56.1536585 38.5979381 56.364 43.1423093 50.9756098 43.7068041 51.0169268 43.5711753"></polygon>
            <polygon id="Fill-114" fill="#5E6C72" points="48.808878 39.6701031 49.0117073 44.0681237 43.5696585 44.6240412 43.4634146 40.4790515"></polygon>
            <polygon id="Fill-116" fill="#0F1416" points="47.8440976 40.2061856 47.9932683 43.4441237 44.1700976 43.8451134 44 40.7980206"></polygon>
            <polygon id="Fill-118" fill="#5E6C72" points="48.4541951 43.972701 48.2572683 39.7097732 48.84 39.6701031 49.0428293 44.0681237 43.6007805 44.6240412 43.4634146 44.5012784"></polygon>
            <polygon id="Fill-120" fill="#5E6C72" points="64.2888293 37.5257732 64.5120488 42.3617732 58.6815122 42.9659381 58.4878049 38.4119175"></polygon>
            <polygon id="Fill-122" fill="#0F1416" points="63.812878 38.0618557 63.9776098 41.6219794 59.7224878 42.0653196 59.5609756 38.7131959"></polygon>
            <polygon id="Fill-124" fill="#5E6C72" points="64.8484878 42.2277526 64.6322439 37.5402474 64.6317073 37.5257732 64.8549268 42.3617732 59.0243902 42.9664742 59.1166829 42.8195876"></polygon>
            <path d="M78.9837561,43.4226804 L90.9265366,43.7786392 L91.1277561,61.6843299 L77.6358537,62.3067216 L42.4970244,63.9256907 C42.4213659,58.9685361 42.1332195,52.7687423 41.8536585,47.5665979 L78.9837561,43.4226804 Z" id="Fill-126" fill="#E2E2E2"></path>
            <path d="M36.7827936,49.1962887 L79.2460131,44.4948454 L79.974696,65.6218557 L37.8039155,73.3124948 C35.6570375,63.0170309 36.7827936,49.1962887 36.7827936,49.1962887" id="Fill-128" fill="#E2E2E2"></path>
            <polygon id="Fill-130" fill="#FBFBFB" points="96.6003902 44.9585567 96.548878 61.9341443 79.6067317 65.6213196 78.8780488 44.4948454"></polygon>
            <path d="M73.6655013,48.2726281 C73.7320379,48.2640508 73.7980379,48.2533291 73.8661842,48.2501126 C75.6455013,48.1686281 77.1731598,49.9484219 77.2783306,52.2262363 C77.3840379,54.5040508 76.0264769,56.416257 74.2471598,56.4988137 C74.1790135,56.5020302 74.1124769,56.4972054 74.0448672,56.4950611 C72.3540867,56.4387724 70.9358916,54.7141951 70.8350135,52.523226 C70.7335989,50.332257 71.9865257,48.4843807 73.6655013,48.2726281" id="Fill-132" fill="#E2E2E2"></path>
            <path d="M71.6682517,52.4600031 C71.6113736,51.2216526 72.213959,50.1886217 73.0145444,50.151632 C73.8145931,50.1146423 74.5100078,51.0881681 74.5668858,52.3265186 C74.6243005,53.564333 74.0217151,54.5973639 73.2216663,54.6348897 C72.4205444,54.6713433 71.7251297,53.6978175 71.6682517,52.4600031 M70.2983492,52.5227248 C70.4040566,54.8005392 71.9311785,56.5808691 73.7110322,56.4988485 C75.4903492,56.4168279 76.8473736,54.5040856 76.7422029,52.2257351 C76.6375688,49.9479206 75.1093736,48.1681268 73.3305931,48.2501474 C71.5507395,48.3321681 70.1937151,50.2454464 70.2983492,52.5227248" id="Fill-134" fill="#FFFFFF"></path>
            <path d="M73.2524488,49.8566902 C74.0524976,49.8197005 74.7479123,50.7932263 74.8053269,52.0315768 C74.8622049,53.2688552 74.2596196,54.3024222 73.4595708,54.3394119 C72.6589854,54.3764016 71.9635708,53.4023397 71.9061562,52.1650614 C71.8492781,50.9267108 72.4518635,49.8931438 73.2524488,49.8566902" id="Fill-136" fill="#2F3030"></path>
            <path d="M73.1225952,54.305939 C73.0576684,54.3230936 72.9911318,54.3364957 72.9224489,54.3391761 C72.1224001,54.3767019 71.4269855,53.40264 71.3695708,52.1648256 C71.3126928,50.9270111 71.9152781,49.8939802 72.7153269,49.8564544 C72.7840099,49.8532379 72.851083,49.860207 72.9181562,49.8720008 C72.2200586,50.0558771 71.7199611,51.0143926 71.7720099,52.1465988 C71.8245952,53.2782689 72.411083,54.1863926 73.1225952,54.305939" id="Fill-138" fill="#E8ECED"></path>
            <path d="M76.186,52.244498 C76.085122,50.0535289 74.6669268,48.3284155 72.9756098,48.2726629 C73.0426829,48.2640856 73.1086829,48.2533639 73.1768293,48.2501474 C74.9556098,48.1681268 76.4838049,49.9479206 76.588439,52.2257351 C76.6936098,54.5035495 75.3365854,56.4162918 73.5572683,56.4988485 C73.4896585,56.5015289 73.4225854,56.4972402 73.3555122,56.4945598 C75.0344878,56.2833433 76.286878,54.434931 76.186,52.244498" id="Fill-140" fill="#E8ECED"></path>
            <path d="M64.3209425,49.3425038 C64.3826498,49.3344625 64.4438205,49.324813 64.5060644,49.3221326 C66.1458693,49.2460089 67.5538693,50.8869574 67.6509913,52.9857203 C67.7481132,55.0850192 66.4973327,56.8476584 64.8569913,56.9237821 C64.7947474,56.9259264 64.73304,56.9221739 64.6707961,56.9200295 C63.1125522,56.8685656 61.8059669,55.2780089 61.712601,53.2596584 C61.6192352,51.2407718 62.7739669,49.5371017 64.3209425,49.3425038" id="Fill-142" fill="#E2E2E2"></path>
            <path d="M62.4385548,53.2012254 C62.3854329,52.0604419 62.9413353,51.1078234 63.6791402,51.0735141 C64.4169451,51.040277 65.0570914,51.9371429 65.1102134,53.0784625 C65.1622621,54.21871 64.6068963,55.1713285 63.869628,55.2051017 C63.1318231,55.239411 62.4911402,54.3420089 62.4385548,53.2012254 M61.1759695,53.2591223 C61.2730914,55.3578852 62.6805548,56.9988337 64.3208963,56.92271 C65.9601646,56.8476584 67.2114817,55.0850192 67.1143597,52.9857203 C67.0172378,50.8869574 65.6092378,49.2460089 63.9699695,49.3221326 C62.3301646,49.3971842 61.0793841,51.1598234 61.1759695,53.2591223" id="Fill-144" fill="#FFFFFF"></path>
            <path d="M64.0245197,51.4648128 C64.7623246,51.4315757 65.4024709,52.3279056 65.4555929,53.4692252 C65.5081783,54.6100087 64.9522758,55.5626272 64.2150075,55.5964004 C63.4772026,55.6307097 62.8365197,54.7333076 62.7839343,53.5925241 C62.731349,52.4517406 63.2867148,51.498586 64.0245197,51.4648128" id="Fill-146" fill="#2F3030"></path>
            <path d="M63.8634768,55.5650954 C63.8033793,55.5806418 63.7416719,55.5929717 63.6783549,55.5956521 C62.9410866,55.6294253 62.3004036,54.7320233 62.2472817,53.5912398 C62.1952329,52.4504563 62.7505988,51.4983738 63.4878671,51.4646006 C63.5511841,51.4619202 63.6128914,51.467281 63.6740622,51.4780026 C63.0312329,51.6479408 62.5708427,52.5314047 62.6191353,53.5746212 C62.6668914,54.6173016 63.2066963,55.4546624 63.8634768,55.5650954" id="Fill-148" fill="#E8ECED"></path>
            <path d="M66.8123902,53.0028749 C66.7190244,50.9834522 65.412439,49.3939677 63.8536585,49.3425038 C63.9153659,49.3344625 63.9765366,49.324813 64.0387805,49.3221326 C65.6785854,49.2460089 67.0865854,50.8869574 67.1831707,52.9857203 C67.2802927,55.0850192 66.0295122,56.8476584 64.3897073,56.92271 C64.3269268,56.9259264 64.2657561,56.9221739 64.2040488,56.9200295 C65.7504878,56.7248955 66.9057561,55.0217615 66.8123902,53.0028749" id="Fill-150" fill="#E8ECED"></path>
            <path d="M56.5017063,50.9477617 C56.5559014,50.9407927 56.6095599,50.9322153 56.6648282,50.930071 C58.1119989,50.8630607 59.3536575,52.3104834 59.4400477,54.1626483 C59.5253648,56.0148133 58.4216087,57.5705246 56.974438,57.6369988 C56.9191697,57.6391432 56.8649745,57.6359267 56.8102428,57.6343184 C55.4349745,57.5882153 54.2818526,56.1858236 54.199755,54.4038854 C54.1176575,52.6224834 55.1360965,51.1193081 56.5017063,50.9477617" id="Fill-152" fill="#E2E2E2"></path>
            <path d="M54.7771209,54.3534587 C54.7304379,53.3466959 55.2203404,52.5066546 55.8712184,52.476634 C56.522633,52.4460773 57.0876574,53.2384072 57.1343404,54.244634 C57.1804867,55.2513969 56.6905843,56.0914381 56.0402428,56.1214587 C55.3888282,56.1514794 54.8232672,55.3602216 54.7771209,54.3534587 M53.6631696,54.4049227 C53.7484867,56.2570876 54.9906818,57.7045103 56.4378526,57.6375 C57.8850233,57.5710257 58.9887794,56.0158505 58.9029257,54.1636855 C58.8170721,52.3109845 57.5754135,50.8635618 56.1287794,50.9300361 C54.6810721,50.9970464 53.5778526,52.5527577 53.6631696,54.4049227" id="Fill-154" fill="#FFFFFF"></path>
            <path d="M55.8288826,52.0008549 C56.4802972,51.9702982 57.0453216,52.7626281 57.0920045,53.7688549 C57.1381509,54.7756178 56.6482484,55.6156591 55.9973704,55.6456797 C55.3464923,55.6757003 54.7809314,54.8844426 54.734785,53.8776797 C54.6881021,52.8709168 55.1780045,52.0308756 55.8288826,52.0008549" id="Fill-156" fill="#2F3030"></path>
            <path d="M56.1599558,55.6184935 C56.1068338,55.6324316 56.0531753,55.6431532 55.9973704,55.6458337 C55.3459558,55.6758543 54.781468,54.8840605 54.734785,53.8778337 C54.6881021,52.8710708 55.1780045,52.0310295 55.8288826,52.0004728 C55.8846875,51.9983285 55.9394192,52.0036893 55.9936143,52.0122667 C55.4264436,52.1629058 55.0197119,52.9423697 55.0621021,53.8628234 C55.1044923,54.7827409 55.5815167,55.5214625 56.1599558,55.6184935" id="Fill-158" fill="#E8ECED"></path>
            <path d="M58.4153659,54.178159 C58.3332683,52.397293 57.1796098,50.9943652 55.804878,50.9487982 C55.8585366,50.9418291 55.9127317,50.9327157 55.968,50.9300353 C57.4151707,50.8635611 58.6568293,52.3115198 58.7426829,54.1636848 C58.8285366,56.0158497 57.7247805,57.571025 56.2776098,57.6374992 C56.2223415,57.6401796 56.1681463,57.636427 56.1134146,57.6342827 C57.4784878,57.4627363 58.4974634,55.9595611 58.4153659,54.178159" id="Fill-160" fill="#E8ECED"></path>
        </g>
    </g>
</svg>