<?xml version="1.0" encoding="UTF-8"?>
<svg width="120px" height="120px" viewBox="0 0 120 120" version="1.1" xmlns="http://www.w3.org/2000/svg" xmlns:xlink="http://www.w3.org/1999/xlink">
    <!-- Generator: Sketch 51.1 (57501) - http://www.bohemiancoding.com/sketch -->
    <title>Airplane16</title>
    <desc>Created with Sketch.</desc>
    <defs></defs>
    <g id="Airplane16" stroke="none" stroke-width="1" fill="none" fill-rule="evenodd">
        <g id="Group-2" transform="translate(60.000000, 60.000000) rotate(-270.000000) translate(-60.000000, -60.000000) translate(4.000000, 28.000000)">
            <polygon id="Fill-140" fill="#415569" points="79.7419724 42.2891636 79.5594897 42.4860121 77.6110759 44.5524364 66.5037655 56.3488 55.9496966 44.4428606 45.3956276 56.3488 34.2892828 44.5524364 32.3399034 42.4860121 32.1574207 42.2891636 55.9371448 4.91122424 55.9371448 4.87534545 55.9496966 4.89958788 55.9622483 4.87534545 55.9622483 4.91122424"></polygon>
            <polygon id="Fill-141" fill="#59748F" points="111.743559 56.4946424 55.9849379 0.495612121 55.9521103 0.528581818 55.9202483 0.495612121 0.160662069 56.4946424 7.16066207 63.5259152 55.9521103 22.7714909 104.742593 63.5259152"></polygon>
            <polygon id="Fill-142" fill="#516982" points="55.9519172 5.45493333 55.9200552 5.42196364 2.61191724 58.9569939 7.16046897 63.5262061 55.9519172 22.7708121 104.7424 63.5262061 109.291917 58.9569939 55.9847448 5.42196364"></polygon>
            <path d="M55.5832828,11.7635879 C57.7798345,11.7635879 59.8238345,11.9517091 61.5636966,12.2726788 C61.6081103,12.1078303 61.6390069,11.9371636 61.6390069,11.7635879 C61.6390069,9.88625455 58.9278345,8.36673939 55.5832828,8.36673939 C52.2396966,8.36673939 49.5285241,9.88625455 49.5285241,11.7635879 C49.5285241,11.9371636 49.5603862,12.1078303 49.6038345,12.2726788 C51.3436966,11.9517091 53.3886621,11.7635879 55.5832828,11.7635879" id="Fill-143" fill="#415569"></path>
            <polygon id="Fill-144" fill="#374B5F" points="79.5590069 42.4862061 77.6105931 44.5526303 55.9501793 26.4687515 34.2888 44.5526303 32.3403862 42.4862061 55.9501793 22.7742061"></polygon>
        </g>
    </g>
</svg>