<?xml version="1.0" encoding="UTF-8"?>
<svg width="120px" height="120px" viewBox="0 0 120 120" version="1.1" xmlns="http://www.w3.org/2000/svg" xmlns:xlink="http://www.w3.org/1999/xlink">
    <!-- Generator: Sketch 51.1 (57501) - http://www.bohemiancoding.com/sketch -->
    <title>Chef</title>
    <desc>Created with Sketch.</desc>
    <defs>
        <polygon id="path-1" points="0.199373684 0.299053333 13.3734789 0.299053333 13.3734789 5.86666667 0.199373684 5.86666667"></polygon>
    </defs>
    <g id="Chef" stroke="none" stroke-width="1" fill="none" fill-rule="evenodd">
        <g id="Group-17" transform="translate(27.000000, 1.000000)">
            <path d="M52.6118457,111.8817 C54.3117314,112.926571 55.5464457,115.124797 54.08776,116.860539 C52.98896,118.086216 51.3733029,117.155539 50.1443314,116.641668 C48.78136,115.998377 47.22696,115.564442 45.9999029,114.732732 C45.20356,114.17699 44.2713029,113.514668 43.7353029,112.694377 C43.5649314,112.435539 43.4864457,112.127216 43.5477029,111.8817 L52.6118457,111.8817 Z" id="Fill-1" fill="#333433"></path>
            <path d="M33.2409971,111.8817 C31.5391971,112.926571 30.31214,115.124797 31.7631686,116.860539 C32.8600543,118.086216 34.4833686,117.155539 35.7142543,116.641668 C37.0753114,115.998377 38.6316257,115.564442 39.8644257,114.732732 C40.6531114,114.17699 41.5911114,113.514668 42.1290257,112.694377 C42.29174,112.435539 42.3740543,112.127216 42.3127971,111.8817 L33.2409971,111.8817 Z" id="Fill-3" fill="#333433"></path>
            <polygon id="Fill-5" fill="#565657" points="54.6513257 87.3367484 52.8078686 111.947361 43.4202114 111.947361 43.0718114 94.1426839 42.79424 94.1426839 42.4343543 111.947361 33.0562686 111.947361 31.1955829 87.3367484"></polygon>
            <polygon id="Fill-7" fill="#864E1A" points="60.7437314 112.481977 60.1005314 113.226139 60.4642457 113.155719 60.7705314 113.37459 61.0404457 113.148106 61.2491029 113.37459 61.4692457 113.155719 61.8425314 113.311784 61.4060743 112.481977"></polygon>
            <path d="M63.047,110.835306 C63.047,111.882081 62.1894,112.727113 61.1422857,112.727113 L61.1288857,112.727113 C60.0702857,112.727113 59.2165143,111.882081 59.2165143,110.835306 L59.2165143,103.702016 C59.2165143,102.655242 60.0702857,101.802597 61.1288857,101.802597 L61.1422857,101.802597 C62.1894,101.802597 63.047,102.655242 63.047,103.702016 L63.047,110.835306 Z" id="Fill-9" fill="#C87D36"></path>
            <path d="M62.85806,100.280206 C62.85806,101.328884 62.0081171,102.17011 60.9533457,102.17011 L60.94186,102.17011 C59.8851743,102.17011 59.0409743,101.328884 59.0409743,100.280206 L59.0409743,93.1431097 C59.0409743,92.0963355 59.8851743,91.2513032 60.94186,91.2513032 L60.9533457,91.2513032 C62.0081171,91.2513032 62.85806,92.0963355 62.85806,93.1431097 L62.85806,100.280206 Z" id="Fill-11" fill="#C87D36"></path>
            <polygon id="Fill-13" fill="#864E1A" points="60.7437314 81.2534677 60.1005314 80.4921774 60.4642457 80.5549839 60.7705314 80.3285 61.0404457 80.5549839 61.2491029 80.3285 61.4692457 80.5549839 61.8425314 80.4065323 61.4060743 81.2534677"></polygon>
            <path d="M63.047,82.8984258 C63.047,81.8478452 62.1894,81.0047161 61.1422857,81.0047161 L61.1288857,81.0047161 C60.0702857,81.0047161 59.2165143,81.8478452 59.2165143,82.8984258 L59.2165143,90.0279097 C59.2165143,91.0765871 60.0702857,91.927329 61.1288857,91.927329 L61.1422857,91.927329 C62.1894,91.927329 63.047,91.0765871 63.047,90.0279097 L63.047,82.8984258 Z" id="Fill-15" fill="#C87D36"></path>
            <path d="M59.5212686,61.4406968 C62.9765543,65.8390516 64.2954971,79.0607613 64.2954971,79.0607613 L64.2954971,79.0017613 C64.7396114,79.6393419 65.0554686,80.4691484 65.1569257,81.3979226 C65.38664,83.609471 64.32804,85.531729 62.7793829,85.6916 C61.7724686,85.8076968 60.8019257,85.1339548 60.18744,84.0415032 C59.61124,84.5096968 59.0522686,84.7000194 58.6426114,84.4830516 C57.8864686,84.081471 57.9687829,82.4351806 58.8416971,80.8041161 C59.1728686,80.1798581 59.57104,79.6507613 59.9749543,79.2529871 C60.01324,79.1806645 60.04004,79.1178581 60.0821543,79.0512452 C60.0821543,79.0512452 58.5813543,69.5103742 56.9752686,67.2512452 C56.1712686,66.120729 55.6467543,65.4812452 55.4610686,64.9768903 C55.3213257,64.5772129 55.16244,63.8121161 55.0935257,63.5190194 C54.5690114,61.2503742 51.7569257,56.1383097 51.7569257,56.1383097 C51.7569257,56.1383097 57.8309543,59.2995677 59.5212686,61.4406968" id="Fill-17" fill="#FDDFBB"></path>
            <path d="M12.7950857,46.7203871 C13.9245143,46.2445806 15.2855714,46.6804194 16.3843714,47.7329032 C16.884,46.9906452 17.4755143,46.5757419 18.0210857,46.6804194 C19.0414,46.8764516 19.5257143,48.8196452 19.0930857,51.017871 C18.9303714,51.8571935 18.6566286,52.6146774 18.3216286,53.2160968 C18.2833429,53.4901613 18.2201714,53.749 18.1225429,53.9964194 L23.3236571,60.0543871 L34.3250571,56.1375484 C34.3250571,56.1375484 32.4567143,59.0875484 31.9896286,60.1647742 C31.6584571,60.947 30.9999429,63.4307097 30.9999429,63.4307097 C30.9999429,63.4307097 22.9676,66.687129 20.6819429,65.8573226 C17.8602857,64.8448065 14.6308857,55.7093226 14.6308857,55.7093226 C13.4114857,55.2791935 12.2380286,54.1258387 11.5584571,52.5309355 C10.5113429,50.0548387 11.0607429,47.4569355 12.7950857,46.7203871" id="Fill-19" fill="#FDDFBB"></path>
            <path d="M59.6744114,78.6087452 L64.36824,78.6182613 C64.36824,78.6182613 62.8578686,65.3965516 59.4006686,60.9981968 C57.8711543,59.0607129 53.4357543,56.5751 52.6336686,56.1373581 C50.66004,54.8621968 44.71044,54.6718742 44.71044,54.6718742 L43.0564971,54.7270677 L42.9110114,54.7270677 L41.2628114,54.6718742 C41.2628114,54.6718742 35.2978971,54.8831323 33.3185257,56.1659065 L23.3431829,60.0427774 L18.1171829,53.996229 L13.6109543,56.203971 C13.6109543,56.203971 17.7726114,64.8864871 20.5923543,65.9028097 C22.77464,66.6926484 29.3253257,64.1156806 29.8881257,63.8606484 C27.67904,73.3520355 27.9776686,87.3369387 27.9776686,87.3369387 L27.9776686,89.4609387 L57.9917543,89.4609387 L57.9917543,87.3274226 C57.9917543,87.3274226 58.1850971,76.1421645 56.6153829,66.9001 C56.6919543,67.0123903 56.77044,67.1170677 56.85084,67.2388742 C58.4626686,69.4941968 59.6744114,78.6087452 59.6744114,78.6087452" id="Fill-21" fill="#9B1826"></path>
            <path d="M16.7844571,56.9930484 C17.1979429,57.2709194 18.5034857,57.0558548 18.7427714,56.6200161 L16.1202,42.9510484 L14.1676286,43.3221774 C14.1676286,43.3221774 13.8862286,55.034629 16.7844571,56.9930484" id="Fill-23" fill="#864E1A"></path>
            <path d="M10.8769714,28.2158935 C10.1993143,28.3472161 9.5542,27.9037645 9.42594286,27.2376355 C9.30342857,26.5753129 9.73988571,25.9301194 10.4137143,25.7987968 C11.0856286,25.6750871 11.725,26.1147323 11.8570857,26.7770548 C11.9872571,27.4488935 11.5431429,28.0940871 10.8769714,28.2158935 Z M1.97745714,24.755829 C-1.02031429,29.1294419 1.54482857,44.5189258 6.2444,47.0216677 L16.8974,44.2600871 L12.9099429,23.4311839 L1.97745714,24.755829 Z" id="Fill-25" fill="#EEEEED"></path>
            <path d="M1.97669143,24.7552581 C-1.01916571,29.1307742 1.54406286,44.5202581 6.24363429,47.0210968 L7.41517714,46.7203871 C3.76080571,41.341871 1.90969143,30.8893548 3.75697714,24.5401935 L1.97669143,24.7552581 Z" id="Fill-27" fill="#D0D0D0"></path>
            <path d="M19.1549171,50.7386677 C18.8448029,52.839829 17.7976886,54.4290226 16.8252314,54.2767645 C15.8489457,54.1321194 15.3072029,52.3145387 15.6249743,50.2190871 C15.9350886,48.1179258 16.9860314,46.5306355 17.9699743,46.6714742 C18.9424314,46.8237323 19.4726886,48.6375065 19.1549171,50.7386677" id="Fill-29" fill="#FDDFBB"></path>
            <path d="M57.1358771,70.6557355 C55.33262,70.4064129 51.4581057,69.5747032 50.4990486,66.8873484 L50.4990486,64.4930903 L50.4990486,55.3576065 C49.7429057,55.1806065 48.9350771,55.0530903 48.1483057,54.9541226 L48.1483057,64.4930903 L38.08682,64.4930903 L38.08682,54.9274774 C37.3249343,55.0245419 36.5094486,55.1482516 35.74182,55.3100258 L35.74182,64.4930903 L35.74182,66.8873484 C34.6813057,69.294929 30.6747057,70.2712839 28.76042,70.6024452 C27.88942,78.0231226 27.9659914,85.6550581 27.9659914,87.0938968 L27.9659914,98.0621871 L58.0279343,98.0621871 L58.0279343,86.0299935 C58.0279343,86.0299935 57.89202,76.9706387 57.1358771,70.6557355" id="Fill-31" fill="#EEEEED"></path>
            <polygon id="Fill-33" fill="#D0D0D0" points="27.9654171 87.0933258 27.9654171 87.3198097 58.02736 87.3198097 58.02736 86.5261645 27.9654171 86.5261645"></polygon>
            <path d="M43.1376629,58.6526613 L39.40672,54.823371 C40.5610343,54.6863387 41.4205486,54.6425645 41.4205486,54.6425645 L43.0764057,54.7320161 L43.2161486,54.7320161 L44.8681771,54.6711129 C44.8681771,54.6711129 45.6606914,54.7015645 46.7269486,54.8119516 L43.1376629,58.6526613 Z" id="Fill-35" fill="#FDDFBB"></path>
            <path d="M64.3274657,35.3939097 C64.4806086,34.3452323 64.5648371,33.2718129 64.5648371,32.1717484 C64.5648371,20.3489097 54.9283229,10.768071 43.0272086,10.768071 C31.1414086,10.768071 21.50298,20.3489097 21.50298,32.1717484 C21.50298,33.2147161 21.5814657,34.2443613 21.7212086,35.2492645 C20.4826657,35.9249097 19.6422943,37.1962645 19.6422943,38.6636516 C19.6422943,40.8371355 21.4838371,42.5938129 23.75418,42.5938129 C23.9111514,42.5938129 24.0528086,42.5862 24.2136086,42.5709742 C27.8890371,49.1390065 34.9336086,53.5830387 43.0272086,53.5830387 C51.1208086,53.5830387 58.1711229,49.152329 61.8484657,42.5938129 L62.0437229,42.5938129 C64.3083229,42.5938129 66.1556086,40.8371355 66.1556086,38.6636516 C66.1556086,37.2952323 65.42818,36.1000065 64.3274657,35.3939097" id="Fill-37" fill="#FDDFBB"></path>
            <path d="M65.4249257,29.3869484 C65.4096114,28.2659484 65.3215543,26.9032387 65.1607543,25.4491742 C62.2740114,16.0301097 53.46064,9.1804 43.0392686,9.1804 C33.9598114,9.1804 26.1074114,14.3685935 22.3247829,21.9301097 C21.2776686,24.9029484 20.6325543,27.8320129 20.5751257,29.1528516 C20.38944,33.7263032 23.75284,40.5836258 23.75284,40.5836258 C23.3450971,33.0487548 23.4331543,33.0639806 25.2574686,31.7545613 C27.5335543,30.1387226 32.3211829,27.1106903 34.1722971,25.0228516 C34.5206971,24.6174645 35.2442971,23.1862387 35.2442971,23.1862387 C35.2442971,23.1862387 35.1772971,24.3129484 35.8051829,24.8077871 C39.6222686,27.7996581 50.8552971,24.4728194 55.1241543,26.7776258 C58.6100686,28.6656258 62.8463829,40.5836258 62.8463829,40.5836258 C64.5711543,37.3386258 65.45364,31.8973032 65.4249257,29.3869484" id="Fill-55" fill="#333433"></path>
            <path d="M41.3541229,56.0395323 L44.8783229,56.0395323 C45.8794943,56.0395323 46.69498,53.8888871 46.69498,52.910629 L39.5355514,52.910629 C39.5355514,53.8888871 40.3472086,56.0395323 41.3541229,56.0395323" id="Fill-57" fill="#FDDFBB"></path>
            <path d="M40.3091143,55.3777806 L46.6683714,53.2899419 L46.6836857,53.2766194 C45.4949143,53.4783613 44.2793429,53.5830387 43.0388857,53.5830387 C41.8539429,53.5830387 40.6900571,53.484071 39.5510571,53.2994581 C39.6142286,53.9142 39.9052,54.7649419 40.3091143,55.3777806" id="Fill-59" fill="#EEAC6C"></path>
            <path d="M29.0795314,18.4694742 C29.0795314,18.4694742 37.2209886,20.6029903 40.0081886,20.6734097 C43.8291029,20.7799903 55.1233886,18.4694742 55.1233886,18.4694742 C55.1233886,18.4694742 53.5804743,6.32499032 50.2094171,5.2097 L49.07616,5.95195806 C49.07616,5.95195806 39.4453886,-0.0641387097 38.0862457,1.04353871 C36.7328457,2.14740968 34.8511029,5.09360323 34.8511029,5.09360323 L33.6451029,4.60066774 C30.3123314,6.13086129 29.0795314,18.4694742 29.0795314,18.4694742" id="Fill-61" fill="#EEEEED"></path>
            <polygon id="Fill-63" fill="#B7B7B6" points="50.2302829 5.23786774 41.3020543 10.7667387 50.1881686 5.18457742"></polygon>
            <polygon id="Fill-65" fill="#B7B7B6" points="43.8798314 9.15032903 33.6307457 4.62636129 33.65946 4.57307097 43.9449171 9.11416774"></polygon>
            <path d="M48.0803486,14.5383613 C48.2928343,15.6174903 45.8808343,16.9859097 42.70312,17.5778129 C39.5234914,18.1754258 36.7879771,17.7871677 36.5774057,16.7080387 C36.3687486,15.6251032 38.7845771,14.2662 41.9603771,13.6666839 C45.14192,13.0709742 47.8736057,13.4611355 48.0803486,14.5383613" id="Fill-67" fill="#6CC5D8"></path>
            <path d="M45.9997114,16.4731806 C46.2083686,16.3818258 46.3404543,16.1972129 46.2791971,16.0620839 C46.2255971,15.9269548 45.9997114,15.8888903 45.7776543,15.9764387 C45.6206829,16.0411484 45.5192257,16.1610516 45.4866829,16.2733419 C45.09234,16.3037935 44.5352829,16.2390839 44.5352829,16.2390839 L44.0509686,16.3095032 L44.1160543,16.8347935 L44.5352829,16.8633419 C44.5352829,16.8633419 45.1229686,16.7453419 45.5096543,16.7339226 C45.5536829,16.8290839 45.6513114,16.914729 45.7776543,16.9718258 C45.9997114,17.0650839 46.2255971,17.0270194 46.2791971,16.8899871 C46.3404543,16.7453419 46.2083686,16.5645355 45.9997114,16.4731806" id="Fill-69" fill="#FFFFFF"></path>
            <path d="M39.195,13.0570806 C42.9967714,13.0570806 43.3030571,16.2392742 44.5358571,16.2392742 L44.2602,16.3915323 L44.5358571,16.5552097 L44.2602,16.6922419 L44.5358571,16.8635323 C43.8677714,16.802629 42.8704286,18.4945968 39.195,18.4945968 L39.195,13.0570806 Z" id="Fill-71" fill="#AD6921"></path>
            <path d="M40.4549829,15.7781226 C40.4549829,17.2797677 39.8806971,18.495929 39.1800686,18.495929 C38.4756114,18.495929 37.9089829,17.2797677 37.9089829,15.7781226 C37.9089829,14.2745742 38.4756114,13.0565097 39.1800686,13.0565097 C39.8806971,13.0565097 40.4549829,14.2745742 40.4549829,15.7781226" id="Fill-73" fill="#FDDFBB"></path>
            <path d="M40.3334257,15.7781226 C40.3334257,17.1427355 39.8146543,18.2466065 39.1791114,18.2466065 C38.53974,18.2466065 38.0228829,17.1427355 38.0228829,15.7781226 C38.0228829,14.4097032 38.53974,13.303929 39.1791114,13.303929 C39.8146543,13.303929 40.3334257,14.4097032 40.3334257,15.7781226" id="Fill-75" fill="#C12636"></path>
            <path d="M39.3931286,15.7781226 C39.3931286,16.0312516 39.2993286,16.2387032 39.1806429,16.2387032 C39.0619571,16.2387032 38.9585857,16.0312516 38.9585857,15.7781226 C38.9585857,15.5230903 39.0619571,15.3175419 39.1806429,15.3175419 C39.2993286,15.3175419 39.3931286,15.5230903 39.3931286,15.7781226" id="Fill-77" fill="#FDDFBB"></path>
            <path d="M39.2866943,15.7781226 C39.2866943,15.9056387 39.2407514,16.017929 39.1794943,16.017929 C39.1144086,16.017929 39.0627229,15.9056387 39.0627229,15.7781226 C39.0627229,15.6487032 39.1144086,15.5364129 39.1794943,15.5364129 C39.2407514,15.5364129 39.2866943,15.6487032 39.2866943,15.7781226" id="Fill-79" fill="#343434"></path>
        </g>
        <g id="Page-1" transform="translate(57.000000, 29.000000)">
            <path d="M8.31106854,1.65026755 C8.31106854,1.65026755 7.80801591,3.45328977 6.22875275,3.09640088 C5.45712117,2.92235643 5.3211738,1.89471199 2.8433317,2.35573421 C2.06412117,2.53613421 0.42612117,3.51195643 0.110647486,4.16364532 C-0.205299883,4.8158231 0.0234895909,1.77248977 2.56764749,0.641689768 C4.4031738,-0.0329768984 5.02512117,0.000267546019 6.54470012,0.000267546019 C8.06427906,0.000267546019 8.53227906,0.907156435 8.31106854,1.65026755" id="Fill-1" fill="#333433"></path>
            <path d="M18.05184,1.65026755 C18.05184,1.65026755 18.5548926,3.45328977 20.1341558,3.09640088 C20.9057873,2.92235643 21.0417347,1.89471199 23.5195768,2.35573421 C24.2987873,2.53613421 25.9367873,3.51195643 26.252261,4.16364532 C26.5682084,4.8158231 26.3394189,1.77248977 23.795261,0.641689768 C21.9597347,-0.0329768984 21.3377873,0.000267546019 19.8182084,0.000267546019 C18.2986294,0.000267546019 17.8306294,0.907156435 18.05184,1.65026755" id="Fill-3" fill="#333433"></path>
            <path d="M6,9 C6,10.6568785 5.10453816,12 3.99983098,12 C2.89512381,12 2,10.6568785 2,9 C2,7.34312148 2.89512381,6 3.99983098,6 C5.10453816,6 6,7.34312148 6,9" id="Fill-5" fill="#333433"></path>
            <path d="M24,9 C24,10.6568785 23.1048762,12 22.000169,12 C20.8951238,12 20,10.6568785 20,9 C20,7.34312148 20.8951238,6 22.000169,6 C23.1048762,6 24,7.34312148 24,9" id="Fill-7" fill="#333433"></path>
            <path d="M13.0197368,12.0692 C13.8586316,11.9552889 15.9802632,13.8262667 15.9802632,13.8262667 C15.9802632,13.8262667 16.0825789,13.4116889 15.6396842,12.5884 C15.1626842,11.7025333 12.9903684,11 12.9903684,11 C12.9903684,11 11.3026316,11.4478222 10.5030526,12.6040444 C10.207,12.8939556 10,13.9025333 10,13.9025333 C10,13.9025333 11.8947368,12.2217333 13.0197368,12.0692 Z" id="Fill-9" fill="#EEAC6C"></path>
            <g id="Group-13" transform="translate(6.000000, 15.000000)">
                <mask id="mask-2" fill="white">
                    <use xlink:href="#path-1"></use>
                </mask>
                <g id="Clip-12"></g>
                <path d="M0.199373684,0.696031111 C0.199373684,0.696031111 7.09763684,3.90412 13.3734789,0.299053333 C13.3734789,0.299053333 11.9822684,5.76825333 7.42305789,5.86016444 C3.30768947,5.98238667 2.43942632,4.36807556 1.94632105,3.90412 C1.45274211,3.44114222 0.524794737,2.13238667 0.199373684,0.696031111" id="Fill-11" fill="#EEAC6C" mask="url(#mask-2)"></path>
            </g>
        </g>
    </g>
</svg>