<?xml version="1.0" encoding="UTF-8"?>
<svg width="100px" height="100px" viewBox="0 0 100 100" version="1.1" xmlns="http://www.w3.org/2000/svg" xmlns:xlink="http://www.w3.org/1999/xlink">
    <!-- Generator: Sketch 48.2 (47327) - http://www.bohemiancoding.com/sketch -->
    <title>Neuron 蓝牙模块 编程疑惑</title>
    <desc>Created with Sketch.</desc>
    <defs>
        <path d="M1.88449774,0.941947744 C1.47235572,0.457389402 0.800129535,0.164943103 0.04857,0.0721508929 L0.04857,0.941947744 L1.88449774,0.941947744 Z" id="path-1"></path>
        <path d="M1.62276,0.128520956 C0.978107665,0.26066829 0.43196986,0.536972673 0.0770314373,0.941947744 L1.62276,0.941947744 L1.62276,0.128520956 Z" id="path-3"></path>
    </defs>
    <g id="裁剪面板" stroke="none" stroke-width="1" fill="none" fill-rule="evenodd">
        <g id="Neuron-蓝牙模块-编程疑惑">
            <g id="Page-1" transform="translate(9.200000, 3.700000)">
                <g id="Group-27" transform="translate(0.000000, 0.209400)">
                    <path d="M47.38548,43.98588 L39.51228,43.98588 C39.91218,43.50348 40.13328,42.90918 40.13328,42.28788 C40.13328,41.46288 39.74328,40.68528 39.06288,40.15398 L36.15048,37.88088 L39.06288,35.60748 C39.74298,35.07678 40.13298,34.29918 40.13328,33.47418 C40.13328,32.64918 39.74328,31.87158 39.06288,31.34028 L33.41688,26.93358 C32.58228,26.28198 31.41528,26.08638 30.37008,26.42388 C29.15178,26.81808 28.33278,27.88038 28.33278,29.06718 L28.33278,31.77918 L27.77058,31.34028 C26.62698,30.44718 24.90138,30.44718 23.75688,31.34058 C23.07678,31.87128 22.68678,32.64888 22.68678,33.47388 C22.68678,34.29888 23.07678,35.07648 23.75718,35.60778 L26.66928,37.88088 L23.75688,40.15428 C23.07678,40.68528 22.68678,41.46288 22.68678,42.28788 C22.68678,42.90918 22.90818,43.50348 23.30778,43.98588 L15.43458,43.98588 C8.08368,43.98588 2.10348,48.83508 2.10348,54.79518 L2.10348,68.48778 C2.10348,74.44848 8.08368,79.29738 15.43458,79.29738 L17.43678,79.29738 L15.01158,81.26958 C13.70688,80.79108 12.32628,80.73378 11.08128,81.12648 C9.64668,81.57918 8.54838,82.57038 7.98888,83.91798 C7.38618,85.36818 7.49658,87.08058 8.29188,88.61658 C9.48948,90.92868 11.95278,92.42898 14.46588,92.37228 C16.35828,92.54628 18.23598,91.87548 19.39518,90.60468 L29.70378,79.29738 L33.80418,79.29738 L44.12328,90.61608 C44.23878,90.74058 44.42418,90.92778 44.65218,91.11318 C45.67758,91.94718 47.02488,92.39988 48.43338,92.39988 C48.63408,92.39988 48.83628,92.39088 49.03848,92.37228 C51.55428,92.42688 54.01818,90.92988 55.21578,88.61658 C56.01108,87.08088 56.12178,85.36848 55.51938,83.91798 C54.95958,82.57068 53.86128,81.57918 52.42668,81.12648 C51.18168,80.73378 49.80108,80.79108 48.49638,81.26958 L46.07118,79.29738 L47.38548,79.29738 C54.73638,79.29738 60.71688,74.44848 60.71688,68.48778 L60.71688,54.79518 C60.71688,48.83508 54.73638,43.98588 47.38548,43.98588" id="Fill-1" fill-opacity="0.3" fill="#4D4D4D"></path>
                    <path d="M33.68274,21.96459 L33.68274,20.39439 L34.46784,21.17949 L33.68274,21.96459 Z M33.68274,9.42039 L33.68274,7.85049 L34.46784,8.63529 L33.68274,9.42039 Z M31.40964,0.09069 C31.10994,0.09069 30.81744,0.14889 30.54024,0.26379 C29.68824,0.61689 29.13744,1.44099 29.13744,2.36349 L29.13744,9.42069 L26.74524,7.02819 C26.31564,6.59919 25.74504,6.36279 25.13814,6.36279 C24.53094,6.36279 23.96034,6.59919 23.53104,7.02819 C22.64484,7.91439 22.64484,9.35649 23.53074,10.24269 L28.19574,14.90769 L23.53074,19.57239 C22.64484,20.45859 22.64484,21.90039 23.53074,22.78659 C23.96004,23.21589 24.53094,23.45199 25.13814,23.45199 C25.74504,23.45199 26.31564,23.21589 26.74494,22.78659 L29.13744,20.39439 L29.13744,25.31709 L13.66344,25.31709 C6.12924,25.31709 0.00024,31.44639 0.00024,38.98059 L0.00024,58.46799 C0.00024,66.00219 6.12924,72.13149 13.66344,72.13149 L15.23604,72.13149 C15.68814,73.12989 16.61394,73.85169 17.70144,74.04069 L13.36104,78.56319 C12.51714,78.06699 11.61924,77.80809 10.72764,77.80809 C10.16454,77.80809 9.61914,77.91309 9.10584,78.12069 C7.75794,78.66519 6.77634,79.84149 6.34254,81.43299 C5.93244,82.93539 6.06354,84.64539 6.71124,86.24769 C7.79754,88.93569 10.10664,90.74169 12.45714,90.74169 C12.51114,90.74169 12.56484,90.74049 12.61884,90.73869 C12.82734,90.76539 13.03884,90.77889 13.24944,90.77889 C14.85024,90.77889 16.35894,90.00219 17.28474,88.70109 L25.98354,76.47699 L37.60104,76.47699 L46.29954,88.70109 C46.44474,88.90209 46.60764,89.09859 46.76184,89.25909 C47.70174,90.23889 48.96984,90.77859 50.33094,90.77859 C50.54094,90.77859 50.75244,90.76509 50.96124,90.73869 C51.01644,90.74049 51.07194,90.74169 51.12714,90.74169 C53.47764,90.74169 55.78704,88.93569 56.87334,86.24769 C57.52074,84.64539 57.65154,82.93539 57.24174,81.43299 C56.80764,79.84149 55.82634,78.66519 54.47814,78.12069 C53.96484,77.91309 53.41944,77.80809 52.85664,77.80809 C51.96504,77.80779 51.06714,78.06699 50.22324,78.56319 L45.43914,73.57869 C45.98874,73.23429 46.43184,72.73299 46.70364,72.13149 L49.15644,72.13149 C56.69064,72.13149 62.81994,66.00219 62.81994,58.46799 L62.81994,38.98059 C62.81994,31.44639 56.69064,25.31709 49.15644,25.31709 L36.75864,25.31709 L39.28884,22.78659 C40.17534,21.90039 40.17534,20.45859 39.28884,19.57239 L34.62444,14.90739 L39.28884,10.24239 C39.71844,9.81339 39.95484,9.24249 39.95484,8.63529 C39.95484,8.02839 39.71844,7.45749 39.28884,7.02819 L33.01704,0.75639 C32.58804,0.32709 32.01684,0.09069 31.40964,0.09069 Z M32.78274,24.13719 L35.74044,21.17949 L32.78274,18.22149 L32.78274,24.13719 Z M32.78274,11.59329 L35.74044,8.63529 L32.78274,5.67759 L32.78274,11.59329 Z M31.40964,0.99069 C31.76664,0.99069 32.11794,1.13019 32.38074,1.39269 L38.65254,7.66449 C39.18894,8.20089 39.18894,9.06999 38.65254,9.60609 L33.35154,14.90739 L38.65254,20.20869 C39.18894,20.74479 39.18894,21.61419 38.65254,22.15029 L34.58574,26.21709 L49.15644,26.21709 C56.20554,26.21709 61.91994,31.93149 61.91994,38.98059 L61.91994,58.46799 C61.91994,65.51709 56.20554,71.23149 49.15644,71.23149 L46.05234,71.23149 C45.84144,72.30219 44.92764,73.11759 43.81164,73.18239 L50.09814,79.73259 C50.95104,79.07649 51.91524,78.70779 52.85664,78.70809 C53.29404,78.70809 53.72694,78.78759 54.14094,78.95499 C56.37654,79.85829 57.22614,82.97259 56.03874,85.91049 C55.07154,88.30359 53.05164,89.84169 51.12714,89.84169 C51.05844,89.84169 50.98944,89.83959 50.92134,89.83569 C50.72574,89.86449 50.52834,89.87859 50.33124,89.87859 C49.26744,89.87859 48.20574,89.46399 47.41104,88.63569 C47.27724,88.49649 47.14254,88.33149 47.03274,88.17939 L38.06484,75.57699 L25.51914,75.57699 L16.55154,88.17939 C15.76164,89.28939 14.51484,89.87889 13.24944,89.87889 C13.05234,89.87889 12.85524,89.86449 12.65934,89.83599 C12.59184,89.83959 12.52494,89.84169 12.45714,89.84169 C10.53294,89.84169 8.51274,88.30359 7.54554,85.91049 C6.35814,82.97259 7.20774,79.85829 9.44304,78.95499 C9.85734,78.78759 10.28994,78.70809 10.72764,78.70809 C11.66904,78.70809 12.63324,79.07649 13.48644,79.73259 L19.38234,73.58919 C19.19904,73.45449 19.02894,73.29249 18.87324,73.11099 C18.68004,73.16049 18.47844,73.18959 18.26994,73.18959 C17.08944,73.18959 16.10634,72.34749 15.88674,71.23149 L13.66344,71.23149 C6.61434,71.23149 0.90024,65.51709 0.90024,58.46799 L0.90024,38.98059 C0.90024,31.93149 6.61434,26.21709 13.66344,26.21709 L30.03744,26.21709 L30.03744,18.22149 L26.10864,22.15029 C25.84044,22.41819 25.48914,22.55199 25.13814,22.55199 C24.78654,22.55199 24.43554,22.41819 24.16704,22.15029 C23.63124,21.61419 23.63124,20.74479 24.16734,20.20869 L29.46864,14.90769 L24.16734,9.60609 C23.63124,9.06999 23.63124,8.20089 24.16734,7.66449 C24.43524,7.39659 24.78684,7.26279 25.13814,7.26279 C25.48914,7.26279 25.84044,7.39659 26.10864,7.66449 L30.03744,11.59329 L30.03744,2.36349 C30.03744,1.80819 30.37194,1.30779 30.88464,1.09509 C31.05444,1.02489 31.23264,0.99069 31.40964,0.99069 Z" id="Fill-3" fill="#514740"></path>
                    <path d="M32.78274,5.67582 L32.78274,11.59152 L35.74044,8.63382 L32.78274,5.67582 Z M31.40994,16.27872 C31.23294,16.27872 31.05444,16.24452 30.88464,16.17402 C30.37194,15.96162 30.03744,15.46092 30.03744,14.90592 L30.03744,2.36172 C30.03744,1.80672 30.37194,1.30602 30.88464,1.09362 C31.39734,0.88122 31.98834,0.99852 32.38074,1.39122 L38.65254,7.66302 C39.18894,8.19912 39.18894,9.06852 38.65254,9.60432 L32.38074,15.87642 C32.11794,16.13892 31.76694,16.27872 31.40994,16.27872 Z" id="Fill-5" fill="#458AC1"></path>
                    <path d="M25.13802,22.55055 C24.78642,22.55055 24.43542,22.41675 24.16722,22.14855 C23.63142,21.61245 23.63142,20.74335 24.16752,20.20695 L29.46882,14.90595 L24.16752,9.60465 C23.63142,9.06855 23.63142,8.19915 24.16752,7.66305 C24.70332,7.12695 25.57242,7.12695 26.10852,7.66305 L32.38092,13.93515 C32.63832,14.19255 32.78262,14.54175 32.78262,14.90595 C32.78262,15.26985 32.63832,15.61905 32.38092,15.87645 L26.10852,22.14855 C25.84062,22.41645 25.48932,22.55055 25.13802,22.55055" id="Fill-7" fill="#458AC1"></path>
                    <path d="M32.78274,18.21987 L32.78274,24.13557 L35.74044,21.17787 L32.78274,18.21987 Z M31.40994,28.82247 C31.23294,28.82247 31.05444,28.78827 30.88464,28.71807 C30.37194,28.50567 30.03744,28.00497 30.03744,27.44967 L30.03744,14.90577 C30.03744,14.35077 30.37194,13.85007 30.88464,13.63767 C31.39734,13.42527 31.98834,13.54257 32.38074,13.93527 L38.65254,20.20707 C39.18894,20.74317 39.18894,21.61257 38.65254,22.14867 L32.38074,28.42047 C32.11794,28.68297 31.76694,28.82247 31.40994,28.82247 Z" id="Fill-9" fill="#458AC1"></path>
                    <path d="M47.03274,88.17759 L34.77444,70.95099 C33.97344,69.82539 34.23654,68.26359 35.36214,67.46259 C36.38664,66.73359 37.77234,66.88659 38.61684,67.76859 L53.25744,83.02269 C54.80694,84.63729 54.75444,87.20229 53.13984,88.75179 C51.52554,90.30129 48.96054,90.24849 47.41104,88.63419 C47.27724,88.49499 47.14254,88.32969 47.03274,88.17759" id="Fill-11" fill="#CCE561"></path>
                    <path d="M61.91994,58.46646 L61.91994,38.97906 C61.91994,31.92966 56.20554,26.21556 49.15644,26.21556 L13.66344,26.21556 C6.61434,26.21556 0.90024,31.92966 0.90024,38.97906 L0.90024,58.46646 C0.90024,65.51556 6.61434,71.22996 13.66344,71.22996 L49.15644,71.22996 C56.20554,71.22996 61.91994,65.51556 61.91994,58.46646" id="Fill-13" fill="#A9CC54"></path>
                    <path d="M49.27863,30.39873 L13.54113,30.39873 C8.95953,30.39873 5.24493,34.11303 5.24493,38.69493 L5.24493,58.36293 C5.24493,62.94483 8.95953,66.65913 13.54113,66.65913 L49.27863,66.65913 C53.86053,66.65913 57.57483,62.94483 57.57483,58.36293 L57.57483,38.69493 C57.57483,34.11303 53.86053,30.39873 49.27863,30.39873" id="Fill-15" fill="#FFFFFF"></path>
                    <path d="M44.6055,53.19813 L41.9964,53.19813 C41.3739,53.19813 40.869,52.69323 40.869,52.07073 C40.869,51.44823 41.3739,50.94333 41.9964,50.94333 L44.6055,50.94333 C45.2283,50.94333 45.7332,51.44823 45.7332,52.07073 C45.7332,52.69323 45.2283,53.19813 44.6055,53.19813" id="Fill-17" fill="#EEC6C7"></path>
                    <path d="M20.82375,53.19813 L18.21435,53.19813 C17.59185,53.19813 17.08695,52.69323 17.08695,52.07073 C17.08695,51.44823 17.59185,50.94333 18.21435,50.94333 L20.82375,50.94333 C21.44625,50.94333 21.95115,51.44823 21.95115,52.07073 C21.95115,52.69323 21.44625,53.19813 20.82375,53.19813" id="Fill-19" fill="#EEC6C7"></path>
                    <path d="M26.91312,45.74457 C27.04542,47.68257 25.72212,49.37037 23.95722,49.51467 C22.19262,49.65897 20.65452,48.20517 20.52192,46.26717 C20.38962,44.32917 21.71322,42.64137 23.47812,42.49707 C25.24302,42.35277 26.78112,43.80687 26.91312,45.74457" id="Fill-21" fill="#514740"></path>
                    <path d="M35.80881,45.74457 C35.67651,47.68257 36.99981,49.37037 38.76471,49.51467 C40.52931,49.65897 42.06741,48.20517 42.20001,46.26717 C42.33231,44.32917 41.00871,42.64137 39.24381,42.49707 C37.47891,42.35277 35.94081,43.80687 35.80881,45.74457" id="Fill-23" fill="#514740"></path>
                    <path d="M28.74711,55.39746 C28.63221,54.05106 29.80701,53.24856 31.31811,53.14956 C32.82921,53.05056 34.28661,53.70186 34.40151,55.04796 C34.51611,56.39436 32.64411,55.86336 31.73211,55.93146 C31.00701,55.98546 28.86201,56.74386 28.74711,55.39746" id="Fill-25" fill="#514740"></path>
                </g>
                <g id="Group-34" transform="translate(29.100000, 53.309400)">
                    <g id="Group-30" transform="translate(3.000000, 0.000000)">
                        <mask id="mask-2" fill="white">
                            <use xlink:href="#path-1"></use>
                        </mask>
                        <g id="Clip-29"></g>
                        <path d="M2.60637,-0.43695 C2.60637,-0.43695 2.37087,0.88965 1.58337,0.94065 C0.91887,0.98385 0.04857,-0.06585 0.04857,-0.06585 L2.60637,-0.43695 Z" id="Fill-28" fill="#42AED2" mask="url(#mask-2)"></path>
                    </g>
                    <g id="Group-33">
                        <mask id="mask-4" fill="white">
                            <use xlink:href="#path-3"></use>
                        </mask>
                        <g id="Clip-32"></g>
                        <path d="M-0.93504,-0.43695 C-0.93504,-0.43695 -0.69954,0.88965 0.08796,0.94065 C0.75216,0.98385 1.62276,-0.06585 1.62276,-0.06585 L-0.93504,-0.43695 Z" id="Fill-31" fill="#42AED2" mask="url(#mask-4)"></path>
                    </g>
                </g>
                <g id="Group-124" transform="translate(6.900000, 35.609400)">
                    <path d="M36.14574,3.69213 C36.31494,3.77823 36.45534,3.92313 36.53364,4.11243 C36.70674,4.53303 36.50604,5.01453 36.08574,5.18763 C34.71024,5.75433 33.19164,5.74803 31.80984,5.17053 C30.39714,4.57863 29.29524,3.46683 28.70994,2.03583 C28.53774,1.61523 28.73934,1.13403 29.16024,0.96183 C29.58144,0.78963 30.06234,0.99153 30.23454,1.41213 C30.65304,2.43513 31.43844,3.23133 32.44494,3.65073 C33.42024,4.05813 34.49004,4.06323 35.45814,3.66453 C35.68944,3.56943 35.93904,3.58683 36.14574,3.69213" id="Fill-35" fill="#ACC953"></path>
                    <path d="M13.51068,5.07831 C13.32108,5.06811 13.13388,4.99281 12.98568,4.85151 C12.65658,4.53711 12.64488,4.01571 12.95898,3.68691 C13.98678,2.61111 15.37728,2.00091 16.87458,1.96851 C18.40578,1.93671 19.86408,2.50641 20.97918,3.57681 C21.30738,3.89151 21.31788,4.41321 21.00318,4.74111 C20.68818,5.06931 20.16678,5.08011 19.83858,4.76541 C19.04148,4.00011 18.00048,3.59061 16.91028,3.61551 C15.85368,3.63831 14.87328,4.06791 14.15028,4.82481 C13.97778,5.00541 13.74198,5.09061 13.51068,5.07831" id="Fill-37" fill="#ACC953"></path>
                    <path d="M41.0436,47.2371 C39.8562,50.175 40.7058,53.2893 42.9411,54.1929 C45.1764,55.0962 47.9511,53.4468 49.1385,50.5089 C50.3259,47.5707 49.4763,44.4567 47.241,43.5534 C45.0057,42.6498 42.231,44.2992 41.0436,47.2371" id="Fill-39" fill="#CCE561"></path>
                    <path d="M41.77308,48.17973 C40.61238,50.51103 41.10918,53.11683 42.88278,53.99973 C44.65638,54.88323 47.03538,53.70933 48.19608,51.37803 C49.35708,49.04703 48.86028,46.44123 47.08638,45.55803 C45.31278,44.67453 42.93378,45.84843 41.77308,48.17973" id="Fill-41" fill="#A9CC54"></path>
                    <path d="M3.42669,47.62281 L18.06729,32.36841 C19.02369,31.37181 20.60739,31.33941 21.60399,32.29581 C22.51089,33.16641 22.61889,34.55661 21.90969,35.55081 L9.65139,52.77771 C8.35389,54.60081 5.82399,55.02711 4.00089,53.72961 C2.17749,52.43241 1.75119,49.90251 3.04869,48.07911 C3.16059,47.92221 3.29769,47.75901 3.42669,47.62281" id="Fill-43" fill="#CCE561"></path>
                    <path d="M8.74086,47.2371 C9.92826,50.175 9.07866,53.2893 6.84306,54.1929 C4.60776,55.0962 1.83306,53.4468 0.64566,50.5089 C-0.54174,47.5707 0.30786,44.4567 2.54316,43.5534 C4.77876,42.6498 7.55346,44.2992 8.74086,47.2371" id="Fill-45" fill="#CCE561"></path>
                    <path d="M8.01135,48.17973 C9.17205,50.51103 8.67525,53.11683 6.90135,53.99973 C5.12775,54.88323 2.74875,53.70933 1.58805,51.37803 C0.42735,49.04703 0.92415,46.44123 2.69775,45.55803 C4.47165,44.67453 6.85065,45.84843 8.01135,48.17973" id="Fill-47" fill="#A9CC54"></path>
                    <path d="M31.43979,40.22109 L16.86039,40.22109 C15.84909,40.22109 14.88759,39.60759 14.70669,38.82369 L12.37569,28.73079 C12.08169,27.45759 12.93939,26.37759 14.30499,26.37759 L33.99519,26.37759 C35.36049,26.37759 36.21849,27.45759 35.92419,28.73079 L33.59349,38.82369 C33.41229,39.60759 32.45079,40.22109 31.43979,40.22109" id="Fill-49" fill="#B3B3B3"></path>
                    <path d="M14.3049,26.55777 C13.6959,26.55777 13.1784,26.78697 12.8478,27.20247 C12.5277,27.60477 12.4224,28.13307 12.5511,28.69017 L14.8821,38.78337 C15.042,39.47667 15.9297,40.04097 16.8606,40.04097 L31.4397,40.04097 C32.3706,40.04097 33.258,39.47667 33.4179,38.78337 L35.7489,28.69017 C35.8776,28.13307 35.7723,27.60477 35.4522,27.20247 C35.1216,26.78697 34.6041,26.55777 33.9951,26.55777 L14.3049,26.55777 Z M31.4397,40.40127 L16.8606,40.40127 C15.7533,40.40127 14.7303,39.72627 14.5314,38.86407 L12.2001,28.77087 C12.0465,28.10487 12.1761,27.46857 12.5661,26.97867 C12.9663,26.47497 13.584,26.19777 14.3049,26.19777 L33.9951,26.19777 C34.716,26.19777 35.3337,26.47497 35.7342,26.97867 C36.1236,27.46857 36.2535,28.10487 36.0996,28.77087 L33.7689,38.86407 C33.5697,39.72627 32.5467,40.40127 31.4397,40.40127 Z" id="Fill-51" fill="#999999"></path>
                    <path d="M33.03735,31.72953 C33.34035,31.72953 33.62955,31.50843 33.68355,31.23303 L34.13835,28.92123 C34.19835,28.61523 33.98475,28.36473 33.66045,28.36473 C33.33645,28.36473 33.03015,28.61523 32.97675,28.92123 L32.57505,31.23303 C32.52735,31.50843 32.73435,31.72953 33.03735,31.72953" id="Fill-53" fill="#B3B3B3"></path>
                    <path d="M33.66078,28.54467 C33.42438,28.54467 33.19248,28.73127 33.15438,28.95177 L32.75238,31.26387 C32.73978,31.33677 32.75568,31.40217 32.79858,31.45317 C32.85018,31.51437 32.93718,31.54977 33.03738,31.54977 C33.25458,31.54977 33.46938,31.38867 33.50688,31.19847 L33.96168,28.88637 C33.97938,28.79547 33.96138,28.71117 33.91008,28.64907 C33.85458,28.58187 33.76638,28.54467 33.66078,28.54467 M33.03738,31.90947 C32.83038,31.90947 32.64318,31.82757 32.52318,31.68507 C32.41128,31.55187 32.36688,31.38057 32.39778,31.20237 L32.79948,28.89027 C32.86818,28.49457 33.24648,28.18467 33.66078,28.18467 C33.87258,28.18467 34.06488,28.27047 34.18818,28.42017 C34.30878,28.56717 34.35408,28.75737 34.31508,28.95567 L33.86028,31.26807 C33.78948,31.62777 33.42798,31.90947 33.03738,31.90947" id="Fill-55" fill="#999999"></path>
                    <path d="M33.29985,30.31332 C33.61155,30.31332 33.91065,30.07902 33.96825,29.78712 L34.11675,29.03112 C34.17645,28.72632 33.96345,28.47702 33.63975,28.47702 C33.31635,28.47702 33.01065,28.72632 32.95755,29.03112 L32.82645,29.78712 C32.77575,30.07902 32.98785,30.31332 33.29985,30.31332" id="Fill-57" fill="#999999"></path>
                    <path d="M23.48361,33.58932 C23.36421,33.58932 23.24601,33.56172 23.13951,33.50742 C22.98381,33.42792 22.87161,33.30102 22.82361,33.14952 C22.77501,32.99682 22.79721,32.83752 22.88691,32.70102 C22.97691,32.56332 23.12391,32.46552 23.30091,32.42622 C23.47761,32.38662 23.66271,32.41062 23.82051,32.49372 C23.97771,32.57622 24.08901,32.70732 24.13311,32.86152 C24.22401,33.17712 24.00501,33.49422 23.64771,33.57162 C23.59311,33.58332 23.53821,33.58932 23.48361,33.58932" id="Fill-59" fill="#999999"></path>
                    <path d="M25.92552,33.77079 C25.62732,33.77079 25.35972,33.59709 25.29012,33.33459 C25.24962,33.18339 25.28052,33.02529 25.37682,32.88939 C25.50012,32.71569 25.71252,32.60619 25.95492,32.59839 C26.22282,32.58999 26.47242,32.73129 26.57232,32.94309 C26.73492,33.28779 26.48952,33.66789 26.08872,33.75339 C26.03382,33.76509 25.97922,33.77079 25.92552,33.77079" id="Fill-61" fill="#999999"></path>
                    <path d="M24.45012,36.22485 C24.37122,36.22485 24.29172,36.22185 24.21162,36.21615 C23.65062,36.17505 23.15472,35.98995 22.81182,35.69175 C22.44642,35.37435 22.26822,34.95255 22.30002,34.46835 C22.37472,33.33225 23.66892,32.48595 25.05432,32.80515 C25.92582,33.00585 26.54382,33.66435 26.61282,34.41315 C26.67072,35.04495 26.34612,35.59035 25.75782,35.91345 C25.38642,36.11745 24.93012,36.22485 24.45012,36.22485" id="Fill-63" fill="#999999"></path>
                    <path d="M24.4677,33.02622 C23.4918,33.02622 22.6779,33.66822 22.6179,34.49232 C22.5879,34.90032 22.7337,35.25402 23.0355,35.51892 C23.325,35.77272 23.7519,35.93142 24.2394,35.96712 C24.738,36.00402 25.2168,35.91132 25.5903,35.70462 C25.9842,35.48712 26.2254,35.16522 26.2866,34.77072 C26.4207,33.90822 25.6857,33.11532 24.6402,33.03312 C24.5826,33.02862 24.5247,33.02622 24.4677,33.02622" id="Fill-65" fill="#B3B3B3"></path>
                    <path d="M24.10119,34.32525 C24.16179,34.46145 24.08079,34.61235 23.92089,34.66275 C23.76159,34.71315 23.58249,34.64535 23.52039,34.51035 C23.45799,34.37475 23.53749,34.22235 23.69829,34.17075 C23.85939,34.11885 24.04029,34.18845 24.10119,34.32525" id="Fill-67" fill="#999999"></path>
                    <path d="M25.06272,34.39437 C25.12032,34.52997 25.03632,34.68027 24.87552,34.73097 C24.71532,34.78137 24.53802,34.71327 24.47892,34.57887 C24.41952,34.44357 24.50202,34.29177 24.66372,34.24017 C24.82602,34.18857 25.00482,34.25787 25.06272,34.39437" id="Fill-69" fill="#999999"></path>
                    <path d="M26.24223,34.75635 C26.08743,34.75665 25.94313,34.80225 25.83063,34.88205 C25.82283,34.88205 25.81473,34.88175 25.80693,34.88175 C25.75353,34.88205 25.70013,34.88625 25.64733,34.89375 C25.47003,34.92045 25.31343,35.00355 25.18863,35.11245 C24.49743,35.71455 25.10073,36.36555 25.81203,36.36435 C25.89213,36.36435 25.97103,36.35565 26.04603,36.33825 C26.25333,36.29085 26.52483,36.17505 26.63973,35.89245 C26.70303,35.73705 26.69523,35.57985 26.68713,35.47755 C26.76483,35.40855 26.85273,35.30595 26.84193,35.16615 C26.82663,34.97325 26.63043,34.86795 26.56593,34.83315 C26.47203,34.78275 26.36013,34.75605 26.24223,34.75635" id="Fill-75" fill="#999999"></path>
                    <path d="M26.2305,35.02017 C26.2872,35.02017 26.3427,35.03277 26.3874,35.05647 C26.6514,35.19717 26.4858,35.28507 26.3754,35.37867 C26.3367,35.46357 26.5443,35.96757 25.9722,36.09927 C25.923,36.11067 25.8723,36.11607 25.821,36.11607 C25.5456,36.11667 25.2597,35.96307 25.2033,35.74497 C25.1358,35.48337 25.341,35.21907 25.6635,35.15727 C25.7088,35.14857 25.7535,35.14437 25.7979,35.14437 C25.8513,35.14437 25.9035,35.15037 25.9533,35.16147 C26.0112,35.06517 26.1234,35.02047 26.2305,35.02017" id="Fill-77" fill="#B3B3B3"></path>
                    <path d="M16.28508,35.24898 C16.57638,37.01448 15.65958,38.63598 14.23728,38.87058 C12.81528,39.10518 11.42598,37.86408 11.13468,36.09858 C10.84338,34.33308 11.76048,32.71158 13.18248,32.47698 C14.60478,32.24238 15.99378,33.48348 16.28508,35.24898" id="Fill-79" fill="#CCE561"></path>
                    <path d="M13.80012,35.58384 C13.80012,36.92574 12.71202,38.01384 11.36982,38.01384 C10.02792,38.01384 8.94012,36.92574 8.94012,35.58384 C8.94012,34.24164 10.02792,33.15384 11.36982,33.15384 C12.71202,33.15384 13.80012,34.24164 13.80012,35.58384" id="Fill-81" fill="#CCE561"></path>
                    <path d="M31.85403,35.24898 C31.56273,37.01448 32.47953,38.63598 33.90183,38.87058 C35.32383,39.10518 36.71313,37.86408 37.00443,36.09858 C37.29573,34.33308 36.37863,32.71158 34.95663,32.47698 C33.53433,32.24238 32.14533,33.48348 31.85403,35.24898" id="Fill-83" fill="#CCE561"></path>
                    <path d="M34.33929,35.58384 C34.33929,36.92574 35.42709,38.01384 36.76929,38.01384 C38.11119,38.01384 39.19899,36.92574 39.19899,35.58384 C39.19899,34.24164 38.11119,33.15384 36.76929,33.15384 C35.42709,33.15384 34.33929,34.24164 34.33929,35.58384" id="Fill-85" fill="#CCE561"></path>
                    <path d="M13.18254,32.47704 C12.67284,32.56104 12.22944,32.82564 11.88204,33.20874 C11.71674,33.17334 11.54574,33.15384 11.36994,33.15384 C10.02774,33.15384 8.93994,34.24164 8.93994,35.58384 C8.93994,36.92574 10.02774,38.01384 11.36994,38.01384 C11.57844,38.01384 11.78004,37.98474 11.97324,37.93524 C12.57084,38.63034 13.39734,39.00894 14.23734,38.87064 C15.65964,38.63604 16.57644,37.01454 16.28514,35.24904 C15.99384,33.48324 14.60484,32.24244 13.18254,32.47704 Z" id="Stroke-87" stroke="#A9CC54" stroke-width="0.54"></path>
                    <path d="M36.76917,33.15381 C36.59337,33.15381 36.42237,33.17331 36.25707,33.20901 C35.90967,32.82561 35.46627,32.56101 34.95657,32.47701 C33.53427,32.24241 32.14527,33.48351 31.85397,35.24901 C31.56297,37.01451 32.47947,38.63601 33.90177,38.87061 C34.74177,39.00921 35.56827,38.63031 36.16587,37.93521 C36.35907,37.98471 36.56067,38.01381 36.76917,38.01381 C38.11137,38.01381 39.19917,36.92571 39.19917,35.58381 C39.19917,34.24161 38.11137,33.15381 36.76917,33.15381 Z" id="Stroke-89" stroke="#A9CC54" stroke-width="0.54"></path>
                    <path d="M60.98625,0.2001 L50.06025,0.2001 C49.88415,0.2001 49.71555,0.27 49.59105,0.3945 L48.49395,1.4913 C48.29925,1.6863 47.98335,1.6863 47.78865,1.4913 L46.69185,0.3945 C46.56735,0.27 46.39845,0.2001 46.22235,0.2001 L45.50985,0.2001 C44.92635,0.2001 44.45325,0.6732 44.45325,1.2567 L44.45325,6.7089 C44.45325,7.2924 44.92635,7.7655 45.50985,7.7655 L46.22235,7.7655 C46.39845,7.7655 46.56735,7.8354 46.69185,7.9599 L47.78865,9.0567 C47.98335,9.2517 48.29925,9.2517 48.49395,9.0567 L49.59105,7.9599 C49.71555,7.8354 49.88415,7.7655 50.06025,7.7655 L60.98625,7.7655 C61.56975,7.7655 62.04285,7.2924 62.04285,6.7089 L62.04285,1.2567 C62.04285,0.6732 61.56975,0.2001 60.98625,0.2001" id="Fill-91" fill="#DD6EC9"></path>
                    <path d="M60.98625,0.2001 L50.06025,0.2001 C49.88415,0.2001 49.71555,0.27 49.59105,0.3945 L48.49395,1.4913 C48.29925,1.6863 47.98335,1.6863 47.78865,1.4913 L46.69185,0.3945 C46.56735,0.27 46.39845,0.2001 46.22235,0.2001 L45.50985,0.2001 C44.92635,0.2001 44.45325,0.6732 44.45325,1.2567 L44.45325,6.7089 C44.45325,7.2924 44.92635,7.7655 45.50985,7.7655 L46.22235,7.7655 C46.39845,7.7655 46.56735,7.8354 46.69185,7.9599 L47.78865,9.0567 C47.98335,9.2517 48.29925,9.2517 48.49395,9.0567 L49.59105,7.9599 C49.71555,7.8354 49.88415,7.7655 50.06025,7.7655 L60.98625,7.7655 C61.56975,7.7655 62.04285,7.2924 62.04285,6.7089 L62.04285,1.2567 C62.04285,0.6732 61.56975,0.2001 60.98625,0.2001 Z" id="Stroke-93" stroke="#8E6386" stroke-width="0.5" stroke-linecap="round" stroke-linejoin="round"></path>
                    <path d="M57.20346,15.91143 L50.06016,15.91143 C49.88436,15.91143 49.71546,15.98133 49.59096,16.10583 L48.49416,17.20263 C48.29916,17.39763 47.98356,17.39763 47.78856,17.20263 L46.69176,16.10583 C46.56726,15.98133 46.39836,15.91143 46.22226,15.91143 L45.50976,15.91143 C44.92626,15.91143 44.45316,16.38453 44.45316,16.96803 L44.45316,22.42023 C44.45316,23.00373 44.92626,23.47683 45.50976,23.47683 L46.22226,23.47683 C46.39836,23.47683 46.56726,23.54673 46.69176,23.67123 L47.78856,24.76803 C47.98356,24.96303 48.29916,24.96303 48.49416,24.76803 L49.59096,23.67123 C49.71546,23.54673 49.88436,23.47683 50.06016,23.47683 L57.20346,23.47683 C57.78696,23.47683 58.26006,23.00373 58.26006,22.42023 L58.26006,16.96803 C58.26006,16.38453 57.78696,15.91143 57.20346,15.91143" id="Fill-95" fill="#04CEB9"></path>
                    <path d="M57.20346,15.91143 L50.06016,15.91143 C49.88436,15.91143 49.71546,15.98133 49.59096,16.10583 L48.49416,17.20263 C48.29916,17.39763 47.98356,17.39763 47.78856,17.20263 L46.69176,16.10583 C46.56726,15.98133 46.39836,15.91143 46.22226,15.91143 L45.50976,15.91143 C44.92626,15.91143 44.45316,16.38453 44.45316,16.96803 L44.45316,22.42023 C44.45316,23.00373 44.92626,23.47683 45.50976,23.47683 L46.22226,23.47683 C46.39836,23.47683 46.56726,23.54673 46.69176,23.67123 L47.78856,24.76803 C47.98356,24.96303 48.29916,24.96303 48.49416,24.76803 L49.59096,23.67123 C49.71546,23.54673 49.88436,23.47683 50.06016,23.47683 L57.20346,23.47683 C57.78696,23.47683 58.26006,23.00373 58.26006,22.42023 L58.26006,16.96803 C58.26006,16.38453 57.78696,15.91143 57.20346,15.91143 Z" id="Stroke-97" stroke="#4B8A85" stroke-width="0.5" stroke-linecap="round" stroke-linejoin="round"></path>
                    <path d="M66.66018,8.05575 L50.06028,8.05575 C49.88418,8.05575 49.71558,8.12565 49.59108,8.25015 L48.49398,9.34695 C48.29928,9.54195 47.98338,9.54195 47.78868,9.34695 L46.69158,8.25015 C46.56708,8.12565 46.39848,8.05575 46.22238,8.05575 L45.50988,8.05575 C44.92638,8.05575 44.45328,8.52885 44.45328,9.11235 L44.45328,14.56455 C44.45328,15.14805 44.92638,15.62115 45.50988,15.62115 L46.22238,15.62115 C46.39848,15.62115 46.56708,15.69105 46.69158,15.81555 L47.78868,16.91235 C47.98338,17.10735 48.29928,17.10735 48.49398,16.91235 L49.59108,15.81555 C49.71558,15.69105 49.88418,15.62115 50.06028,15.62115 L66.66018,15.62115 C67.24368,15.62115 67.71678,15.14805 67.71678,14.56455 L67.71678,9.11235 C67.71678,8.52885 67.24368,8.05575 66.66018,8.05575" id="Fill-99" fill="#00BDFD"></path>
                    <path d="M66.66018,8.05575 L50.06028,8.05575 C49.88418,8.05575 49.71558,8.12565 49.59108,8.25015 L48.49398,9.34695 C48.29928,9.54195 47.98338,9.54195 47.78868,9.34695 L46.69158,8.25015 C46.56708,8.12565 46.39848,8.05575 46.22238,8.05575 L45.50988,8.05575 C44.92638,8.05575 44.45328,8.52885 44.45328,9.11235 L44.45328,14.56455 C44.45328,15.14805 44.92638,15.62115 45.50988,15.62115 L46.22238,15.62115 C46.39848,15.62115 46.56708,15.69105 46.69158,15.81555 L47.78868,16.91235 C47.98338,17.10735 48.29928,17.10735 48.49398,16.91235 L49.59108,15.81555 C49.71558,15.69105 49.88418,15.62115 50.06028,15.62115 L66.66018,15.62115 C67.24368,15.62115 67.71678,15.14805 67.71678,14.56455 L67.71678,9.11235 C67.71678,8.52885 67.24368,8.05575 66.66018,8.05575 Z" id="Stroke-101" stroke="#457BA7" stroke-width="0.5" stroke-linejoin="round"></path>
                    <path d="M51.82953,5.70498 L51.82953,2.26068 C51.82953,1.87098 52.26333,1.63818 52.58793,1.85388 L55.17993,3.57618 C55.47093,3.76938 55.47093,4.19628 55.17993,4.38948 L52.58793,6.11148 C52.26333,6.32718 51.82953,6.09468 51.82953,5.70498" id="Fill-103" fill="#FFFFFF"></path>
                    <path d="M53.90052,19.02393 L53.89842,19.02393 C53.74722,19.02393 53.60682,18.94233 53.53302,18.81033 C53.48172,18.71823 53.41932,18.64773 53.34552,18.60183 C53.21532,18.51753 53.01582,18.47913 52.74702,18.47913 C52.51692,18.47913 52.34052,18.50973 52.22532,18.57873 C52.08702,18.64773 52.02552,18.75543 52.02552,18.90873 C52.02552,19.03143 52.12542,19.14663 52.34052,19.23873 C52.47072,19.29273 52.73172,19.36923 53.13102,19.46883 C53.57592,19.57653 53.91342,19.69923 54.12852,19.84503 C54.44322,20.04453 54.60432,20.32863 54.60432,20.68143 C54.60432,21.52563 54.00582,21.94773 52.81602,21.94773 C51.98562,21.94773 51.44532,21.68343 51.19272,21.15783 C51.05742,20.87733 51.26202,20.55123 51.57312,20.55123 C51.74112,20.55123 51.89592,20.65023 51.95892,20.80563 C52.00152,20.91033 52.05642,20.99403 52.12212,21.05793 C52.14432,21.07923 52.16802,21.09723 52.19442,21.11283 C52.32552,21.18993 52.52052,21.23403 52.78542,21.23403 C53.39922,21.23403 53.70642,21.06543 53.70642,20.74293 C53.70642,20.55873 53.59122,20.41293 53.36082,20.30553 C53.23812,20.24403 52.97742,20.17503 52.57842,20.08293 C52.11012,19.97553 51.78012,19.86033 51.58812,19.73763 C51.28152,19.54593 51.12792,19.27713 51.12792,18.93183 C51.12792,18.56343 51.27372,18.27963 51.58062,18.08013 C51.88002,17.86503 52.27122,17.76543 52.76232,17.76543 C53.48622,17.76543 53.98482,17.96463 54.25332,18.36843 C54.43932,18.64833 54.23682,19.02393 53.90052,19.02393" id="Fill-105" fill="#FFFFFF"></path>
                    <path d="M53.54046,11.62104 C53.54046,12.33774 53.17716,12.91884 52.72956,12.91884 C52.28166,12.91884 51.91836,12.33774 51.91836,11.62104 C51.91836,10.90434 52.28166,10.32354 52.72956,10.32354 C53.17716,10.32354 53.54046,10.90434 53.54046,11.62104" id="Fill-107" fill="#FFFFFF"></path>
                    <path d="M53.54046,13.35132 C53.54046,13.53042 53.17716,13.67562 52.72956,13.67562 C52.28166,13.67562 51.91836,13.53042 51.91836,13.35132 C51.91836,13.17222 52.28166,13.02672 52.72956,13.02672 C53.17716,13.02672 53.54046,13.17222 53.54046,13.35132" id="Fill-109" fill="#FFFFFF"></path>
                    <path d="M55.48695,11.62104 C55.48695,12.33774 55.12365,12.91884 54.67575,12.91884 C54.22785,12.91884 53.86485,12.33774 53.86485,11.62104 C53.86485,10.90434 54.22785,10.32354 54.67575,10.32354 C55.12365,10.32354 55.48695,10.90434 55.48695,11.62104" id="Fill-111" fill="#FFFFFF"></path>
                    <path d="M55.48695,13.35132 C55.48695,13.53042 55.12365,13.67562 54.67575,13.67562 C54.22785,13.67562 53.86485,13.53042 53.86485,13.35132 C53.86485,13.17222 54.22785,13.02672 54.67575,13.02672 C55.12365,13.02672 55.48695,13.17222 55.48695,13.35132" id="Fill-113" fill="#FFFFFF"></path>
                    <path d="M73.50129,25.32129 L50.38599,25.32129 C50.20989,25.32129 50.04129,25.39119 49.91679,25.51569 L48.81999,26.61249 C48.62499,26.80749 48.30909,26.80749 48.11439,26.61249 L47.01759,25.51569 C46.89309,25.39119 46.72419,25.32129 46.54809,25.32129 L45.83559,25.32129 C45.25209,25.32129 44.77899,25.79439 44.77899,26.37789 L44.77899,31.83009 C44.77899,32.41389 45.25209,32.88669 45.83559,32.88669 L46.54809,32.88669 C46.72419,32.88669 46.89309,32.95689 47.01759,33.08139 L48.11439,34.17789 C48.30909,34.37289 48.62499,34.37289 48.81999,34.17789 L49.91679,33.08139 C50.04129,32.95689 50.20989,32.88669 50.38599,32.88669 L73.50129,32.88669 C74.08479,32.88669 74.55789,32.41389 74.55789,31.83009 L74.55789,26.37789 C74.55789,25.79439 74.08479,25.32129 73.50129,25.32129" id="Fill-115" fill="#5BA3FB"></path>
                    <path d="M73.50129,25.32129 L50.38599,25.32129 C50.20989,25.32129 50.04129,25.39119 49.91679,25.51569 L48.81999,26.61249 C48.62499,26.80749 48.30909,26.80749 48.11439,26.61249 L47.01759,25.51569 C46.89309,25.39119 46.72419,25.32129 46.54809,25.32129 L45.83559,25.32129 C45.25209,25.32129 44.77899,25.79439 44.77899,26.37789 L44.77899,31.83009 C44.77899,32.41389 45.25209,32.88669 45.83559,32.88669 L46.54809,32.88669 C46.72419,32.88669 46.89309,32.95689 47.01759,33.08139 L48.11439,34.17789 C48.30909,34.37289 48.62499,34.37289 48.81999,34.17789 L49.91679,33.08139 C50.04129,32.95689 50.20989,32.88669 50.38599,32.88669 L73.50129,32.88669 C74.08479,32.88669 74.55789,32.41389 74.55789,31.83009 L74.55789,26.37789 C74.55789,25.79439 74.08479,25.32129 73.50129,25.32129 Z" id="Stroke-117" stroke="#5F81AD" stroke-width="0.5" stroke-linecap="round" stroke-linejoin="round"></path>
                    <g id="Group-123" transform="translate(54.600000, 27.600000)">
                        <path d="M3.35022,3.75747 L1.00542,3.75747 C0.45552,3.75747 0.00972,3.31167 0.00972,2.76177 L0.00972,1.16157 C0.00972,0.61137 0.45552,0.16557 1.00542,0.16557 L3.35022,0.16557 C3.90012,0.16557 4.34562,0.61137 4.34562,1.16157 L4.34562,2.76177 C4.34562,3.31167 3.90012,3.75747 3.35022,3.75747" id="Fill-119" fill="#81DFFF"></path>
                        <path d="M13.63167,3.75747 L11.28717,3.75747 C10.73727,3.75747 10.29117,3.31167 10.29117,2.76177 L10.29117,1.16157 C10.29117,0.61137 10.73727,0.16557 11.28717,0.16557 L13.63167,0.16557 C14.18157,0.16557 14.62737,0.61137 14.62737,1.16157 L14.62737,2.76177 C14.62737,3.31167 14.18157,3.75747 13.63167,3.75747" id="Fill-121" fill="#DD6EC9"></path>
                    </g>
                </g>
            </g>
        </g>
    </g>
</svg>