<?xml version="1.0" encoding="UTF-8"?>
<svg width="120px" height="120px" viewBox="0 0 120 120" version="1.1" xmlns="http://www.w3.org/2000/svg" xmlns:xlink="http://www.w3.org/1999/xlink">
    <!-- Generator: Sketch 51.1 (57501) - http://www.bohemiancoding.com/sketch -->
    <title>Saw1</title>
    <desc>Created with Sketch.</desc>
    <defs></defs>
    <g id="Saw1" stroke="none" stroke-width="1" fill="none" fill-rule="evenodd">
        <g id="Group" transform="translate(0.000000, 44.000000)">
            <path d="M115.657732,24.5802062 L108.067158,24.5802062 C105.631811,24.5802062 103.655965,22.6057732 103.655965,20.1700736 L103.655965,8.83776141 C103.655965,6.40206186 105.631811,4.42762887 108.067158,4.42762887 L115.657732,4.42762887 L115.657732,24.5802062 Z M116.016495,0.063269514 L89.4726362,0.063269514 C88.33838,0.063269514 87.4188513,0.982798233 87.4188513,2.11705449 L87.4188513,15.9753756 L87.5238292,16.0934315 C88.3124006,16.9454492 93.4043594,22.4594404 94.793461,24.2650957 L99.2571429,29.282651 C99.6477172,29.7207658 100.204418,29.9713697 100.791163,29.9713697 L116.016495,29.9713697 C118.158468,29.9713697 119.893962,28.2349926 119.893962,26.0930191 L119.893962,3.94179676 C119.893962,1.79982327 118.158468,0.063269514 116.016495,0.063269514 Z" id="Fill-11" fill="#AB2531"></path>
            <path d="M0.00512518409,2.11705449 L87.4188513,2.11705449 L87.4188513,15.9801473 C87.4188513,15.9801473 95.6339912,24.8369956 95.1204124,24.8369956 C94.6070103,24.8369956 88.8307511,31.6400589 88.8307511,31.6400589 L87.5471576,28.0460677 L84.7231811,30.7415611 L83.182975,27.2758763 L80.7440943,30.3564654 L79.2037113,26.7624742 L76.3797349,29.714757 L74.9678351,26.1205891 L72.2721649,28.8162592 L70.6034757,25.3503976 L68.0362887,28.4311635 L66.8810015,24.5802062 L64.1855081,27.7892784 L62.6451252,23.8100147 L59.9496318,26.8907806 L58.2809426,23.2966127 L55.7137555,26.1205891 L54.1733726,22.5264212 L51.3493962,25.607187 L50.194109,21.8847128 L47.5742563,24.7086892 L46.086539,21.4996171 L43.1342563,24.1951105 L41.7223564,20.7294256 L39.1551694,23.5534021 L37.7430928,19.9592342 L34.5341973,22.7832106 L33.3789102,19.3175258 L30.6832401,22.5264212 L29.0145508,18.803947 L26.4473638,21.7564065 L24.9069809,18.1622386 L22.0831811,21.1145214 L20.6711046,17.5203535 L17.7188218,20.4726362 L16.5635346,16.8786451 L13.9963476,19.5741384 L12.3276583,16.1084536 L9.76047128,18.803947 L8.22008837,15.3382622 L5.65290133,18.1622386 L4.24100147,14.6965538 L1.41702504,16.8786451 L0.00512518409,14.311458 L0.00512518409,2.11705449" id="Fill-12" fill="#515251"></path>
            <path d="M94.0936082,4.42762887 C94.0936082,5.2782327 93.4040059,5.96801178 92.5532253,5.96801178 C91.7026215,5.96801178 91.0128424,5.2782327 91.0128424,4.42762887 C91.0128424,3.57684831 91.7026215,2.88724595 92.5532253,2.88724595 C93.4040059,2.88724595 94.0936082,3.57684831 94.0936082,4.42762887" id="Fill-13" fill="#797B79"></path>
            <path d="M94.0936082,13.4771134 C94.0936082,14.3277172 93.4040059,15.0173196 92.5532253,15.0173196 C91.7026215,15.0173196 91.0128424,14.3277172 91.0128424,13.4771134 C91.0128424,12.6263328 91.7026215,11.9367305 92.5532253,11.9367305 C93.4040059,11.9367305 94.0936082,12.6263328 94.0936082,13.4771134" id="Fill-14" fill="#797B79"></path>
        </g>
    </g>
</svg>