<?xml version="1.0" encoding="UTF-8"?>
<svg width="100px" height="100px" viewBox="0 0 100 100" version="1.1" xmlns="http://www.w3.org/2000/svg" xmlns:xlink="http://www.w3.org/1999/xlink">
    <!-- Generator: Sketch 48.2 (47327) - http://www.bohemiancoding.com/sketch -->
    <title>程小奔鼓手</title>
    <desc>Created with Sketch.</desc>
    <defs>
        <path d="M0.163078906,1.16522399 L7.88961459,28.9521 L16.2974609,0.014778 L0.163078906,0.014778 L0.163078906,1.16522399 Z M16.4460187,0.014778 L24.5458675,29.58462 L32.7564936,1.0359 L40.6648219,30.19716 L43.6407105,20.6752122 L43.6407105,0.014778 L16.4460187,0.014778 Z" id="path-1"></path>
        <polygon id="path-3" points="0.148779566 0.08478 4.74143416 0.08478 4.74143416 12.363246 0.148779566 12.363246 0.148779566 0.08478"></polygon>
    </defs>
    <g id="裁剪面板" stroke="none" stroke-width="1" fill="none" fill-rule="evenodd">
        <g id="程小奔鼓手">
            <g id="Page-1" transform="translate(20.400000, 1.000000)">
                <g id="Group-175" transform="translate(0.000000, 25.655220)">
                    <path d="M18.6848695,3.723588 C18.6848695,3.723588 12.4125486,0.405288 11.8927042,0.271548 C11.8927042,0.271548 11.6159577,0.205308 11.4770446,0.181368 C11.1823042,0.130788 10.8767674,0.104148 10.5640331,0.104148 C8.18811574,0.104148 6.24063368,1.640448 6.05043793,3.594348 L6.04162091,3.591828 L6.04162091,8.270388 C6.04162091,8.270388 18.8732659,4.514688 18.6848695,3.723588" id="Fill-1" fill="#6B6B6B"></path>
                    <path d="M17.2276139,3.926808 C17.2276139,3.926808 12.1772601,1.255068 11.7587215,1.147428 C11.7587215,1.147428 11.5357768,1.093968 11.4240345,1.074708 C11.1866947,1.034028 10.9408978,1.012608 10.6889829,1.012608 C8.77568924,1.012608 7.20751903,2.249568 7.0545707,3.822948 L7.04755307,3.820608 L7.04755307,7.588008 C7.04755307,7.588008 17.3794826,4.563828 17.2276139,3.926808" id="Fill-3" fill="#1A1A1A"></path>
                    <path d="M35.5158614,3.723588 C35.5158614,3.723588 41.7881824,0.405288 42.3078468,0.271548 C42.3078468,0.271548 42.5847733,0.205308 42.7236863,0.181368 C43.0184267,0.130788 43.3239635,0.104148 43.6365179,0.104148 C46.0126152,0.104148 47.9600973,1.640448 48.150293,3.594348 L48.15911,3.591828 L48.15911,8.270388 C48.15911,8.270388 35.327465,4.514688 35.5158614,3.723588" id="Fill-5" fill="#6B6B6B"></path>
                    <path d="M36.9729551,3.926808 C36.9729551,3.926808 42.0233089,1.255068 42.4420275,1.147428 C42.4420275,1.147428 42.6649722,1.093968 42.7765345,1.074708 C43.0140542,1.034028 43.2598512,1.012608 43.5117661,1.012608 C45.4250597,1.012608 46.99305,2.249568 47.1461782,3.822948 L47.1531959,3.820608 L47.1531959,7.588008 C47.1531959,7.588008 36.8212664,4.563828 36.9729551,3.926808" id="Fill-7" fill="#1A1A1A"></path>
                    <path d="M15.8666436,42.69465 C15.7183737,42.69465 15.5679446,42.67503 15.4180552,42.63399 C14.5156601,42.38649 13.9848394,41.45427 14.2320759,40.55193 L16.3211701,32.92713 C16.5684066,32.02479 17.5004917,31.49397 18.4025269,31.74093 C19.3045622,31.98843 19.8355628,32.92047 19.5883263,33.82299 L17.4992321,41.44761 C17.2932017,42.20019 16.6108722,42.69465 15.8666436,42.69465" id="Fill-9" fill="#1A1A1A"></path>
                    <path d="M37.2630711,42.69465 C36.5188426,42.69465 35.836693,42.20037 35.6306626,41.44761 L33.5413884,33.82299 C33.294152,32.92047 33.8251526,31.98843 34.7273678,31.74093 C35.629403,31.49397 36.5614881,32.02479 36.8087246,32.92713 L38.8976389,40.55193 C39.1448754,41.45427 38.6140547,42.38649 37.7118395,42.63399 C37.5619502,42.67503 37.411341,42.69465 37.2630711,42.69465" id="Fill-11" fill="#1A1A1A"></path>
                    <path d="M2.26136802,31.116474 C2.12731331,31.116474 1.99145921,31.104414 1.85470541,31.079574 C0.627699939,30.856374 -0.186345046,29.680254 0.0369595137,28.452654 C0.804760122,24.226794 5.10170845,19.270134 5.58916377,18.718794 C6.41544462,17.784234 7.84272243,17.696574 8.77696681,18.523134 C9.71085131,19.349514 9.79884158,20.776554 8.97346043,21.711114 C8.96320389,21.722634 7.935751,22.891914 6.85305678,24.464394 C5.53842091,26.373474 4.69594553,28.076994 4.48073824,29.260854 C4.28244523,30.351834 3.33182638,31.116294 2.26136802,31.116474" id="Fill-13" fill="#1A1A1A"></path>
                    <path d="M44.944748,26.710866 C44.1728088,26.710866 43.4208428,26.314866 42.9990653,25.602066 C42.3638799,24.528366 42.7190799,23.142726 43.7924173,22.507146 C44.0938154,22.328586 45.2430872,21.497346 47.3746471,18.293166 C48.5967942,16.456086 49.4997291,14.802426 49.5087261,14.785866 C50.1055844,13.690026 51.477261,13.285926 52.5723711,13.882626 C53.667841,14.479506 54.0719844,15.851646 53.475306,16.947306 C53.4348197,17.021826 52.4665668,18.794646 51.1348367,20.796426 C49.2044489,23.698386 47.555306,25.529706 46.0929401,26.395686 C45.731982,26.609346 45.3357559,26.710866 44.944748,26.710866" id="Fill-15" fill="#1A1A1A"></path>
                    <path d="M43.1137226,37.159308 L11.0886818,37.159308 C8.31132012,37.159308 6.0386879,34.885908 6.0386879,32.107428 L6.0386879,8.323488 C6.0386879,5.545008 8.31132012,3.271608 11.0886818,3.271608 L43.1137226,3.271608 C45.8914441,3.271608 48.1637165,5.545008 48.1637165,8.323488 L48.1637165,32.107428 C48.1637165,34.885908 45.8914441,37.159308 43.1137226,37.159308" id="Fill-17" fill="#FFFFFF"></path>
                    <path d="M42.4166381,35.747244 L12.01159,35.747244 C9.65978456,35.747244 7.73551465,33.822324 7.73551465,31.469364 L7.73551465,9.356724 C7.73551465,7.003944 9.65978456,5.079024 12.01159,5.079024 L42.4166381,5.079024 C44.7686235,5.079024 46.6930733,7.003944 46.6930733,9.356724 L46.6930733,31.469364 C46.6930733,33.822324 44.7686235,35.747244 42.4166381,35.747244" id="Fill-19" fill="#FFFFFF"></path>
                    <path d="M42.5138052,24.959736 L11.9144229,24.959736 C9.61605933,24.959736 7.73551465,23.078556 7.73551465,20.779236 L7.73551465,9.259416 C7.73551465,6.960276 9.61605933,5.079096 11.9144229,5.079096 L42.5138052,5.079096 C44.8123487,5.079096 46.6930733,6.960276 46.6930733,9.259416 L46.6930733,20.779236 C46.6930733,23.078556 44.8123487,24.959736 42.5138052,24.959736" id="Fill-21" fill="#6B6B6B"></path>
                    <path d="M16.6561629,30.824316 C16.6561629,32.139576 15.590383,33.205536 14.2757471,33.205536 C12.9609313,33.205536 11.8951514,32.139576 11.8951514,30.824316 C11.8951514,29.509056 12.9609313,28.443096 14.2757471,28.443096 C15.590383,28.443096 16.6561629,29.509056 16.6561629,30.824316" id="Fill-23" fill="#DBDBDB"></path>
                    <path d="M42.0632554,30.824316 C42.0632554,32.139576 40.9974755,33.205536 39.6828396,33.205536 C38.3680238,33.205536 37.3022439,32.139576 37.3022439,30.824316 C37.3022439,29.509056 38.3680238,28.443096 39.6828396,28.443096 C40.9974755,28.443096 42.0632554,29.509056 42.0632554,30.824316" id="Fill-25" fill="#DBDBDB"></path>
                    <path d="M29.6014215,34.391808 L24.8832355,34.391808 C24.0753084,34.391808 23.4142118,33.730308 23.4142118,32.922108 L23.4142118,32.698548 C23.4142118,31.890348 24.0753084,31.229028 24.8832355,31.229028 L29.6014215,31.229028 C30.4095285,31.229028 31.0706252,31.890348 31.0706252,32.698548 L31.0706252,32.922108 C31.0706252,33.730308 30.4095285,34.391808 29.6014215,34.391808" id="Fill-27" fill="#DBDBDB"></path>
                    <path d="M30.6582045,30.494736 L23.7701316,30.494736 C23.0869024,30.494736 22.5280112,29.935656 22.5280112,29.252196 L22.5280112,27.331956 C22.5280112,26.648496 23.0869024,26.089236 23.7701316,26.089236 L30.6582045,26.089236 C31.3414337,26.089236 31.9003249,26.648496 31.9003249,27.331956 L31.9003249,29.252196 C31.9003249,29.935656 31.3414337,30.494736 30.6582045,30.494736" id="Fill-29" fill="#DBDBDB"></path>
                    <path d="M11.7442004,8.63721 L11.7440204,8.63721 C11.1853092,8.63721 10.7279037,8.17965 10.7279037,7.62075 C10.7279037,7.06149 11.1853092,6.60393 11.7440204,6.60393 L11.7442004,6.60393 C12.3029116,6.60393 12.7603171,7.06149 12.7603171,7.62075 C12.7603171,8.17965 12.3029116,8.63721 11.7442004,8.63721" id="Fill-31" fill="#707070"></path>
                    <path d="M11.7442004,11.39346 L11.7440204,11.39346 C11.1853092,11.39346 10.7279037,10.9359 10.7279037,10.37682 C10.7279037,9.81756 11.1853092,9.36018 11.7440204,9.36018 L11.7442004,9.36018 C12.3029116,9.36018 12.7603171,9.81756 12.7603171,10.37682 C12.7603171,10.9359 12.3029116,11.39346 11.7442004,11.39346" id="Fill-33" fill="#707070"></path>
                    <path d="M11.7442004,14.14953 L11.7440204,14.14953 C11.1853092,14.14953 10.7279037,13.69215 10.7279037,13.13307 C10.7279037,12.57381 11.1853092,12.11625 11.7440204,12.11625 L11.7442004,12.11625 C12.3029116,12.11625 12.7603171,12.57381 12.7603171,13.13307 C12.7603171,13.69215 12.3029116,14.14953 11.7442004,14.14953" id="Fill-35" fill="#707070"></path>
                    <path d="M11.7442004,16.90578 L11.7440204,16.90578 C11.1853092,16.90578 10.7279037,16.44822 10.7279037,15.88914 C10.7279037,15.33006 11.1853092,14.8725 11.7440204,14.8725 L11.7442004,14.8725 C12.3029116,14.8725 12.7603171,15.33006 12.7603171,15.88914 C12.7603171,16.44822 12.3029116,16.90578 11.7442004,16.90578" id="Fill-37" fill="#707070"></path>
                    <path d="M11.7442004,19.66203 L11.7440204,19.66203 C11.1853092,19.66203 10.7279037,19.20447 10.7279037,18.64539 C10.7279037,18.08613 11.1853092,17.62875 11.7440204,17.62875 L11.7442004,17.62875 C12.3029116,17.62875 12.7603171,18.08613 12.7603171,18.64539 C12.7603171,19.20447 12.3029116,19.66203 11.7442004,19.66203" id="Fill-39" fill="#707070"></path>
                    <path d="M11.7442004,22.4181 L11.7440204,22.4181 C11.1853092,22.4181 10.7279037,21.96072 10.7279037,21.40164 C10.7279037,20.84238 11.1853092,20.38482 11.7440204,20.38482 L11.7442004,20.38482 C12.3029116,20.38482 12.7603171,20.84238 12.7603171,21.40164 C12.7603171,21.96072 12.3029116,22.4181 11.7442004,22.4181" id="Fill-41" fill="#707070"></path>
                    <path d="M14.8493933,8.63721 C14.2905021,8.63721 13.8332766,8.17965 13.8332766,7.62075 C13.8332766,7.06149 14.2905021,6.60393 14.8493933,6.60393 C15.4082845,6.60393 15.86569,7.06149 15.86569,7.62075 C15.86569,8.17965 15.4082845,8.63721 14.8493933,8.63721" id="Fill-43" fill="#707070"></path>
                    <path d="M14.8493933,11.39346 C14.2905021,11.39346 13.8332766,10.9359 13.8332766,10.37682 C13.8332766,9.81756 14.2905021,9.36018 14.8493933,9.36018 C15.4082845,9.36018 15.86569,9.81756 15.86569,10.37682 C15.86569,10.9359 15.4082845,11.39346 14.8493933,11.39346" id="Fill-45" fill="#707070"></path>
                    <path d="M14.8493933,14.14953 C14.2905021,14.14953 13.8332766,13.69215 13.8332766,13.13307 C13.8332766,12.57381 14.2905021,12.11625 14.8493933,12.11625 C15.4082845,12.11625 15.86569,12.57381 15.86569,13.13307 C15.86569,13.69215 15.4082845,14.14953 14.8493933,14.14953" id="Fill-47" fill="#707070"></path>
                    <path d="M14.8493933,16.90578 C14.2905021,16.90578 13.8332766,16.44822 13.8332766,15.88914 C13.8332766,15.33006 14.2905021,14.8725 14.8493933,14.8725 C15.4082845,14.8725 15.86569,15.33006 15.86569,15.88914 C15.86569,16.44822 15.4082845,16.90578 14.8493933,16.90578" id="Fill-49" fill="#707070"></path>
                    <path d="M14.8493933,19.66203 C14.2905021,19.66203 13.8332766,19.20447 13.8332766,18.64539 C13.8332766,18.08613 14.2905021,17.62875 14.8493933,17.62875 C15.4082845,17.62875 15.86569,18.08613 15.86569,18.64539 C15.86569,19.20447 15.4082845,19.66203 14.8493933,19.66203" id="Fill-51" fill="#707070"></path>
                    <path d="M14.8493933,22.4181 C14.2905021,22.4181 13.8332766,21.96072 13.8332766,21.40164 C13.8332766,20.84238 14.2905021,20.38482 14.8493933,20.38482 C15.4082845,20.38482 15.86569,20.84238 15.86569,21.40164 C15.86569,21.96072 15.4082845,22.4181 14.8493933,22.4181" id="Fill-53" fill="#707070"></path>
                    <path d="M17.9547482,8.63721 C17.395857,8.63721 16.9384516,8.17965 16.9384516,7.62075 C16.9384516,7.06149 17.395857,6.60393 17.9547482,6.60393 C18.5136394,6.60393 18.9708649,7.06149 18.9708649,7.62075 C18.9708649,8.17965 18.5136394,8.63721 17.9547482,8.63721" id="Fill-55" fill="#707070"></path>
                    <path d="M17.9547482,11.39346 C17.395857,11.39346 16.9384516,10.9359 16.9384516,10.37682 C16.9384516,9.81756 17.395857,9.36018 17.9547482,9.36018 C18.5136394,9.36018 18.9708649,9.81756 18.9708649,10.37682 C18.9708649,10.9359 18.5136394,11.39346 17.9547482,11.39346" id="Fill-57" fill="#707070"></path>
                    <path d="M17.9547482,14.14953 C17.395857,14.14953 16.9384516,13.69215 16.9384516,13.13307 C16.9384516,12.57381 17.395857,12.11625 17.9547482,12.11625 C18.5136394,12.11625 18.9708649,12.57381 18.9708649,13.13307 C18.9708649,13.69215 18.5136394,14.14953 17.9547482,14.14953" id="Fill-59" fill="#707070"></path>
                    <path d="M17.9547482,16.90578 C17.395857,16.90578 16.9384516,16.44822 16.9384516,15.88914 C16.9384516,15.33006 17.395857,14.8725 17.9547482,14.8725 C18.5136394,14.8725 18.9708649,15.33006 18.9708649,15.88914 C18.9708649,16.44822 18.5136394,16.90578 17.9547482,16.90578" id="Fill-61" fill="#707070"></path>
                    <path d="M17.9547482,19.66203 C17.395857,19.66203 16.9384516,19.20447 16.9384516,18.64539 C16.9384516,18.08613 17.395857,17.62875 17.9547482,17.62875 C18.5136394,17.62875 18.9708649,18.08613 18.9708649,18.64539 C18.9708649,19.20447 18.5136394,19.66203 17.9547482,19.66203" id="Fill-63" fill="#707070"></path>
                    <path d="M17.9547482,22.4181 C17.395857,22.4181 16.9384516,21.96072 16.9384516,21.40164 C16.9384516,20.84238 17.395857,20.38482 17.9547482,20.38482 C18.5136394,20.38482 18.9708649,20.84238 18.9708649,21.40164 C18.9708649,21.96072 18.5136394,22.4181 17.9547482,22.4181" id="Fill-65" fill="#707070"></path>
                    <path d="M21.0601031,8.63721 C20.5012119,8.63721 20.0438064,8.17965 20.0438064,7.62075 C20.0438064,7.06149 20.5012119,6.60393 21.0601031,6.60393 C21.6189943,6.60393 22.0762198,7.06149 22.0762198,7.62075 C22.0762198,8.17965 21.6189943,8.63721 21.0601031,8.63721" id="Fill-67" fill="#707070"></path>
                    <path d="M21.0601031,11.39346 C20.5012119,11.39346 20.0438064,10.9359 20.0438064,10.37682 C20.0438064,9.81756 20.5012119,9.36018 21.0601031,9.36018 C21.6189943,9.36018 22.0762198,9.81756 22.0762198,10.37682 C22.0762198,10.9359 21.6189943,11.39346 21.0601031,11.39346" id="Fill-69" fill="#707070"></path>
                    <path d="M21.0601031,14.14953 C20.5012119,14.14953 20.0438064,13.69215 20.0438064,13.13307 C20.0438064,12.57381 20.5012119,12.11625 21.0601031,12.11625 C21.6189943,12.11625 22.0762198,12.57381 22.0762198,13.13307 C22.0762198,13.69215 21.6189943,14.14953 21.0601031,14.14953" id="Fill-71" fill="#707070"></path>
                    <path d="M21.0601031,16.90578 C20.5012119,16.90578 20.0438064,16.44822 20.0438064,15.88914 C20.0438064,15.33006 20.5012119,14.8725 21.0601031,14.8725 C21.6189943,14.8725 22.0762198,15.33006 22.0762198,15.88914 C22.0762198,16.44822 21.6189943,16.90578 21.0601031,16.90578" id="Fill-73" fill="#707070"></path>
                    <path d="M21.0601031,19.66203 C20.5012119,19.66203 20.0438064,19.20447 20.0438064,18.64539 C20.0438064,18.08613 20.5012119,17.62875 21.0601031,17.62875 C21.6189943,17.62875 22.0762198,18.08613 22.0762198,18.64539 C22.0762198,19.20447 21.6189943,19.66203 21.0601031,19.66203" id="Fill-75" fill="#707070"></path>
                    <path d="M21.0601031,22.4181 C20.5012119,22.4181 20.0438064,21.96072 20.0438064,21.40164 C20.0438064,20.84238 20.5012119,20.38482 21.0601031,20.38482 C21.6189943,20.38482 22.0762198,20.84238 22.0762198,21.40164 C22.0762198,21.96072 21.6189943,22.4181 21.0601031,22.4181" id="Fill-77" fill="#707070"></path>
                    <path d="M24.1652781,8.63721 C23.6063869,8.63721 23.1491613,8.17965 23.1491613,7.62075 C23.1491613,7.06149 23.6063869,6.60393 24.1652781,6.60393 C24.7241692,6.60393 25.1815747,7.06149 25.1815747,7.62075 C25.1815747,8.17965 24.7241692,8.63721 24.1652781,8.63721" id="Fill-79" fill="#707070"></path>
                    <path d="M24.1652781,11.39346 C23.6063869,11.39346 23.1491613,10.9359 23.1491613,10.37682 C23.1491613,9.81756 23.6063869,9.36018 24.1652781,9.36018 C24.7241692,9.36018 25.1815747,9.81756 25.1815747,10.37682 C25.1815747,10.9359 24.7241692,11.39346 24.1652781,11.39346" id="Fill-81" fill="#707070"></path>
                    <path d="M24.1652781,14.14953 C23.6063869,14.14953 23.1491613,13.69215 23.1491613,13.13307 C23.1491613,12.57381 23.6063869,12.11625 24.1652781,12.11625 C24.7241692,12.11625 25.1815747,12.57381 25.1815747,13.13307 C25.1815747,13.69215 24.7241692,14.14953 24.1652781,14.14953" id="Fill-83" fill="#707070"></path>
                    <path d="M24.1652781,16.90578 C23.6063869,16.90578 23.1491613,16.44822 23.1491613,15.88914 C23.1491613,15.33006 23.6063869,14.8725 24.1652781,14.8725 C24.7241692,14.8725 25.1815747,15.33006 25.1815747,15.88914 C25.1815747,16.44822 24.7241692,16.90578 24.1652781,16.90578" id="Fill-85" fill="#707070"></path>
                    <path d="M24.1652781,19.66203 C23.6063869,19.66203 23.1491613,19.20447 23.1491613,18.64539 C23.1491613,18.08613 23.6063869,17.62875 24.1652781,17.62875 C24.7241692,17.62875 25.1815747,18.08613 25.1815747,18.64539 C25.1815747,19.20447 24.7241692,19.66203 24.1652781,19.66203" id="Fill-87" fill="#707070"></path>
                    <path d="M24.1652781,22.4181 C23.6063869,22.4181 23.1491613,21.96072 23.1491613,21.40164 C23.1491613,20.84238 23.6063869,20.38482 24.1652781,20.38482 C24.7241692,20.38482 25.1815747,20.84238 25.1815747,21.40164 C25.1815747,21.96072 24.7241692,22.4181 24.1652781,22.4181" id="Fill-89" fill="#707070"></path>
                    <path d="M27.2706329,8.63721 C26.7117418,8.63721 26.2545162,8.17965 26.2545162,7.62075 C26.2545162,7.06149 26.7117418,6.60393 27.2706329,6.60393 C27.8295241,6.60393 28.2869296,7.06149 28.2869296,7.62075 C28.2869296,8.17965 27.8295241,8.63721 27.2706329,8.63721" id="Fill-91" fill="#707070"></path>
                    <path d="M27.2706329,11.39346 C26.7117418,11.39346 26.2545162,10.9359 26.2545162,10.37682 C26.2545162,9.81756 26.7117418,9.36018 27.2706329,9.36018 C27.8295241,9.36018 28.2869296,9.81756 28.2869296,10.37682 C28.2869296,10.9359 27.8295241,11.39346 27.2706329,11.39346" id="Fill-93" fill="#707070"></path>
                    <path d="M27.2706329,14.14953 C26.7117418,14.14953 26.2545162,13.69215 26.2545162,13.13307 C26.2545162,12.57381 26.7117418,12.11625 27.2706329,12.11625 C27.8295241,12.11625 28.2869296,12.57381 28.2869296,13.13307 C28.2869296,13.69215 27.8295241,14.14953 27.2706329,14.14953" id="Fill-95" fill="#707070"></path>
                    <path d="M27.2706329,16.90578 C26.7117418,16.90578 26.2545162,16.44822 26.2545162,15.88914 C26.2545162,15.33006 26.7117418,14.8725 27.2706329,14.8725 C27.8295241,14.8725 28.2869296,15.33006 28.2869296,15.88914 C28.2869296,16.44822 27.8295241,16.90578 27.2706329,16.90578" id="Fill-97" fill="#707070"></path>
                    <path d="M27.2706329,19.66203 C26.7117418,19.66203 26.2545162,19.20447 26.2545162,18.64539 C26.2545162,18.08613 26.7117418,17.62875 27.2706329,17.62875 C27.8295241,17.62875 28.2869296,18.08613 28.2869296,18.64539 C28.2869296,19.20447 27.8295241,19.66203 27.2706329,19.66203" id="Fill-99" fill="#707070"></path>
                    <path d="M27.2706329,22.4181 C26.7117418,22.4181 26.2545162,21.96072 26.2545162,21.40164 C26.2545162,20.84238 26.7117418,20.38482 27.2706329,20.38482 C27.8295241,20.38482 28.2869296,20.84238 28.2869296,21.40164 C28.2869296,21.96072 27.8295241,22.4181 27.2706329,22.4181" id="Fill-101" fill="#707070"></path>
                    <path d="M30.3760058,8.63721 C29.8171147,8.63721 29.3597092,8.17965 29.3597092,7.62075 C29.3597092,7.06149 29.8171147,6.60393 30.3760058,6.60393 C30.934897,6.60393 31.3921226,7.06149 31.3921226,7.62075 C31.3921226,8.17965 30.934897,8.63721 30.3760058,8.63721" id="Fill-103" fill="#707070"></path>
                    <path d="M30.3760058,11.39346 C29.8171147,11.39346 29.3597092,10.9359 29.3597092,10.37682 C29.3597092,9.81756 29.8171147,9.36018 30.3760058,9.36018 C30.934897,9.36018 31.3921226,9.81756 31.3921226,10.37682 C31.3921226,10.9359 30.934897,11.39346 30.3760058,11.39346" id="Fill-105" fill="#707070"></path>
                    <path d="M30.3760058,14.14953 C29.8171147,14.14953 29.3597092,13.69215 29.3597092,13.13307 C29.3597092,12.57381 29.8171147,12.11625 30.3760058,12.11625 C30.934897,12.11625 31.3921226,12.57381 31.3921226,13.13307 C31.3921226,13.69215 30.934897,14.14953 30.3760058,14.14953" id="Fill-107" fill="#707070"></path>
                    <path d="M30.3760058,16.90578 C29.8171147,16.90578 29.3597092,16.44822 29.3597092,15.88914 C29.3597092,15.33006 29.8171147,14.8725 30.3760058,14.8725 C30.934897,14.8725 31.3921226,15.33006 31.3921226,15.88914 C31.3921226,16.44822 30.934897,16.90578 30.3760058,16.90578" id="Fill-109" fill="#707070"></path>
                    <path d="M30.3760058,19.66203 C29.8171147,19.66203 29.3597092,19.20447 29.3597092,18.64539 C29.3597092,18.08613 29.8171147,17.62875 30.3760058,17.62875 C30.934897,17.62875 31.3921226,18.08613 31.3921226,18.64539 C31.3921226,19.20447 30.934897,19.66203 30.3760058,19.66203" id="Fill-111" fill="#707070"></path>
                    <path d="M30.3760058,22.4181 C29.8171147,22.4181 29.3597092,21.96072 29.3597092,21.40164 C29.3597092,20.84238 29.8171147,20.38482 30.3760058,20.38482 C30.934897,20.38482 31.3921226,20.84238 31.3921226,21.40164 C31.3921226,21.96072 30.934897,22.4181 30.3760058,22.4181" id="Fill-113" fill="#707070"></path>
                    <path d="M33.4813607,8.63721 C32.9224695,8.63721 32.4650641,8.17965 32.4650641,7.62075 C32.4650641,7.06149 32.9224695,6.60393 33.4813607,6.60393 C34.040072,6.60393 34.4974774,7.06149 34.4974774,7.62075 C34.4974774,8.17965 34.040072,8.63721 33.4813607,8.63721" id="Fill-115" fill="#707070"></path>
                    <path d="M33.4813607,11.39346 C32.9224695,11.39346 32.4650641,10.9359 32.4650641,10.37682 C32.4650641,9.81756 32.9224695,9.36018 33.4813607,9.36018 C34.040072,9.36018 34.4974774,9.81756 34.4974774,10.37682 C34.4974774,10.9359 34.040072,11.39346 33.4813607,11.39346" id="Fill-117" fill="#707070"></path>
                    <path d="M33.4813607,14.14953 C32.9224695,14.14953 32.4650641,13.69215 32.4650641,13.13307 C32.4650641,12.57381 32.9224695,12.11625 33.4813607,12.11625 C34.040072,12.11625 34.4974774,12.57381 34.4974774,13.13307 C34.4974774,13.69215 34.040072,14.14953 33.4813607,14.14953" id="Fill-119" fill="#707070"></path>
                    <path d="M33.4813607,16.90578 C32.9224695,16.90578 32.4650641,16.44822 32.4650641,15.88914 C32.4650641,15.33006 32.9224695,14.8725 33.4813607,14.8725 C34.040072,14.8725 34.4974774,15.33006 34.4974774,15.88914 C34.4974774,16.44822 34.040072,16.90578 33.4813607,16.90578" id="Fill-121" fill="#707070"></path>
                    <path d="M33.4813607,19.66203 C32.9224695,19.66203 32.4650641,19.20447 32.4650641,18.64539 C32.4650641,18.08613 32.9224695,17.62875 33.4813607,17.62875 C34.040072,17.62875 34.4974774,18.08613 34.4974774,18.64539 C34.4974774,19.20447 34.040072,19.66203 33.4813607,19.66203" id="Fill-123" fill="#707070"></path>
                    <path d="M33.4813607,22.4181 C32.9224695,22.4181 32.4650641,21.96072 32.4650641,21.40164 C32.4650641,20.84238 32.9224695,20.38482 33.4813607,20.38482 C34.040072,20.38482 34.4974774,20.84238 34.4974774,21.40164 C34.4974774,21.96072 34.040072,22.4181 33.4813607,22.4181" id="Fill-125" fill="#707070"></path>
                    <path d="M36.5865357,8.63721 C36.0276445,8.63721 35.570419,8.17965 35.570419,7.62075 C35.570419,7.06149 36.0276445,6.60393 36.5865357,6.60393 C37.1454269,6.60393 37.6028323,7.06149 37.6028323,7.62075 C37.6028323,8.17965 37.1454269,8.63721 36.5865357,8.63721" id="Fill-127" fill="#707070"></path>
                    <path d="M36.5865357,11.39346 C36.0276445,11.39346 35.570419,10.9359 35.570419,10.37682 C35.570419,9.81756 36.0276445,9.36018 36.5865357,9.36018 C37.1454269,9.36018 37.6028323,9.81756 37.6028323,10.37682 C37.6028323,10.9359 37.1454269,11.39346 36.5865357,11.39346" id="Fill-129" fill="#707070"></path>
                    <path d="M36.5865357,14.14953 C36.0276445,14.14953 35.570419,13.69215 35.570419,13.13307 C35.570419,12.57381 36.0276445,12.11625 36.5865357,12.11625 C37.1454269,12.11625 37.6028323,12.57381 37.6028323,13.13307 C37.6028323,13.69215 37.1454269,14.14953 36.5865357,14.14953" id="Fill-131" fill="#707070"></path>
                    <path d="M36.5865357,16.90578 C36.0276445,16.90578 35.570419,16.44822 35.570419,15.88914 C35.570419,15.33006 36.0276445,14.8725 36.5865357,14.8725 C37.1454269,14.8725 37.6028323,15.33006 37.6028323,15.88914 C37.6028323,16.44822 37.1454269,16.90578 36.5865357,16.90578" id="Fill-133" fill="#707070"></path>
                    <path d="M36.5865357,19.66203 C36.0276445,19.66203 35.570419,19.20447 35.570419,18.64539 C35.570419,18.08613 36.0276445,17.62875 36.5865357,17.62875 C37.1454269,17.62875 37.6028323,18.08613 37.6028323,18.64539 C37.6028323,19.20447 37.1454269,19.66203 36.5865357,19.66203" id="Fill-135" fill="#707070"></path>
                    <path d="M36.5865357,22.4181 C36.0276445,22.4181 35.570419,21.96072 35.570419,21.40164 C35.570419,20.84238 36.0276445,20.38482 36.5865357,20.38482 C37.1454269,20.38482 37.6028323,20.84238 37.6028323,21.40164 C37.6028323,21.96072 37.1454269,22.4181 36.5865357,22.4181" id="Fill-137" fill="#707070"></path>
                    <path d="M39.6918906,8.63721 C39.1329994,8.63721 38.6757739,8.17965 38.6757739,7.62075 C38.6757739,7.06149 39.1329994,6.60393 39.6918906,6.60393 C40.2507818,6.60393 40.7080073,7.06149 40.7080073,7.62075 C40.7080073,8.17965 40.2507818,8.63721 39.6918906,8.63721" id="Fill-139" fill="#707070"></path>
                    <path d="M39.6918906,11.39346 C39.1329994,11.39346 38.6757739,10.9359 38.6757739,10.37682 C38.6757739,9.81756 39.1329994,9.36018 39.6918906,9.36018 C40.2507818,9.36018 40.7080073,9.81756 40.7080073,10.37682 C40.7080073,10.9359 40.2507818,11.39346 39.6918906,11.39346" id="Fill-141" fill="#707070"></path>
                    <path d="M39.6918906,14.14953 C39.1329994,14.14953 38.6757739,13.69215 38.6757739,13.13307 C38.6757739,12.57381 39.1329994,12.11625 39.6918906,12.11625 C40.2507818,12.11625 40.7080073,12.57381 40.7080073,13.13307 C40.7080073,13.69215 40.2507818,14.14953 39.6918906,14.14953" id="Fill-143" fill="#707070"></path>
                    <path d="M39.6918906,16.90578 C39.1329994,16.90578 38.6757739,16.44822 38.6757739,15.88914 C38.6757739,15.33006 39.1329994,14.8725 39.6918906,14.8725 C40.2507818,14.8725 40.7080073,15.33006 40.7080073,15.88914 C40.7080073,16.44822 40.2507818,16.90578 39.6918906,16.90578" id="Fill-145" fill="#707070"></path>
                    <path d="M39.6918906,19.66203 C39.1329994,19.66203 38.6757739,19.20447 38.6757739,18.64539 C38.6757739,18.08613 39.1329994,17.62875 39.6918906,17.62875 C40.2507818,17.62875 40.7080073,18.08613 40.7080073,18.64539 C40.7080073,19.20447 40.2507818,19.66203 39.6918906,19.66203" id="Fill-147" fill="#707070"></path>
                    <path d="M39.6918906,22.4181 C39.1329994,22.4181 38.6757739,21.96072 38.6757739,21.40164 C38.6757739,20.84238 39.1329994,20.38482 39.6918906,20.38482 C40.2507818,20.38482 40.7080073,20.84238 40.7080073,21.40164 C40.7080073,21.96072 40.2507818,22.4181 39.6918906,22.4181" id="Fill-149" fill="#707070"></path>
                    <path d="M42.7972455,8.63721 C42.2383543,8.63721 41.7809488,8.17965 41.7809488,7.62075 C41.7809488,7.06149 42.2383543,6.60393 42.7972455,6.60393 C43.3561367,6.60393 43.8133622,7.06149 43.8133622,7.62075 C43.8133622,8.17965 43.3561367,8.63721 42.7972455,8.63721" id="Fill-151" fill="#707070"></path>
                    <path d="M42.7972455,11.39346 C42.2383543,11.39346 41.7809488,10.9359 41.7809488,10.37682 C41.7809488,9.81756 42.2383543,9.36018 42.7972455,9.36018 C43.3561367,9.36018 43.8133622,9.81756 43.8133622,10.37682 C43.8133622,10.9359 43.3561367,11.39346 42.7972455,11.39346" id="Fill-153" fill="#707070"></path>
                    <path d="M42.7972455,14.14953 C42.2383543,14.14953 41.7809488,13.69215 41.7809488,13.13307 C41.7809488,12.57381 42.2383543,12.11625 42.7972455,12.11625 C43.3561367,12.11625 43.8133622,12.57381 43.8133622,13.13307 C43.8133622,13.69215 43.3561367,14.14953 42.7972455,14.14953" id="Fill-155" fill="#707070"></path>
                    <path d="M42.7972455,16.90578 C42.2383543,16.90578 41.7809488,16.44822 41.7809488,15.88914 C41.7809488,15.33006 42.2383543,14.8725 42.7972455,14.8725 C43.3561367,14.8725 43.8133622,15.33006 43.8133622,15.88914 C43.8133622,16.44822 43.3561367,16.90578 42.7972455,16.90578" id="Fill-157" fill="#707070"></path>
                    <path d="M42.7972455,19.66203 C42.2383543,19.66203 41.7809488,19.20447 41.7809488,18.64539 C41.7809488,18.08613 42.2383543,17.62875 42.7972455,17.62875 C43.3561367,17.62875 43.8133622,18.08613 43.8133622,18.64539 C43.8133622,19.20447 43.3561367,19.66203 42.7972455,19.66203" id="Fill-159" fill="#707070"></path>
                    <path d="M42.7972455,22.4181 C42.2383543,22.4181 41.7809488,21.96072 41.7809488,21.40164 C41.7809488,20.84238 42.2383543,20.38482 42.7972455,20.38482 C43.3561367,20.38482 43.8133622,20.84238 43.8133622,21.40164 C43.8133622,21.96072 43.3561367,22.4181 42.7972455,22.4181" id="Fill-161" fill="#707070"></path>
                    <path d="M17.9143339,16.8831 C17.3333102,16.8831 16.8577308,16.40754 16.8577308,15.82614 L16.8577308,10.37196 C16.8577308,9.79056 17.3333102,9.315 17.9143339,9.315 C18.4955375,9.315 18.9709369,9.79056 18.9709369,10.37196 L18.9709369,15.82614 C18.9709369,16.40754 18.4955375,16.8831 17.9143339,16.8831" id="Fill-163" fill="#00FFFF"></path>
                    <path d="M36.5463013,16.8831 C35.9652776,16.8831 35.4896982,16.40754 35.4896982,15.82614 L35.4896982,10.37196 C35.4896982,9.79056 35.9652776,9.315 36.5463013,9.315 C37.127325,9.315 37.6029043,9.79056 37.6029043,10.37196 L37.6029043,15.82614 C37.6029043,16.40754 37.127325,16.8831 36.5463013,16.8831" id="Fill-165" fill="#00FFFF"></path>
                    <path d="M23.2055003,15.922998 C23.2055003,15.922998 26.3672122,18.069318 31.4488754,15.922998" id="Stroke-167" stroke="#43FFFA" stroke-width="1.58148" stroke-linecap="round" stroke-linejoin="round"></path>
                    <path d="M36.8689143,24.39495 L18.124107,24.39495 C17.8745313,24.39495 17.6722796,24.19263 17.6722796,23.94297 C17.6722796,23.69367 17.8745313,23.49117 18.124107,23.49117 L36.8689143,23.49117 C37.11831,23.49117 37.3205617,23.69367 37.3205617,23.94297 C37.3205617,24.19263 37.11831,24.39495 36.8689143,24.39495" id="Fill-169" fill="#7C7C7C"></path>
                    <polygon id="Fill-171" fill="#BF2720" points="6.06400535 72.180018 48.1391908 72.180018 48.1391908 43.704198 4.66155915 41.594778"></polygon>
                    <polygon id="Fill-173" fill="#FFEFE1" points="6.06400535 72.180018 48.1391908 72.180018 48.1391908 43.704198 4.66155915 41.594778"></polygon>
                </g>
                <g id="Group-178" transform="translate(4.498480, 67.235220)">
                    <mask id="mask-2" fill="white">
                        <use xlink:href="#path-1"></use>
                    </mask>
                    <g id="Clip-177"></g>
                    <polygon id="Fill-176" fill="#BF2720" mask="url(#mask-2)" points="1.56552511 30.600018 43.6407105 30.600018 43.6407105 2.124198 0.163078906 0.014778"></polygon>
                </g>
                <g id="Group-200" transform="translate(4.498480, 0.095220)">
                    <path d="M43.6407105,69.264162 L0.163078906,67.154742" id="Stroke-179" stroke="#534741" stroke-width="1.8"></path>
                    <path d="M52.4628421,40.764924 C52.1823168,40.764924 51.9266232,40.576104 51.853208,40.291884 L47.3547278,22.831884 C47.2679971,22.495104 47.4707886,22.151484 47.8076348,22.064544 C48.1430415,21.977964 48.487625,22.180644 48.5747156,22.517604 L53.0731959,39.977604 C53.1599266,40.314384 52.9571351,40.658004 52.6202889,40.744944 C52.5677466,40.758444 52.5148445,40.764924 52.4628421,40.764924" id="Fill-183" fill="#1A1A1A"></path>
                    <path d="M51.4735183,41.214744 C51.4735183,42.059664 52.1583669,42.744744 53.0030016,42.744744 C53.8476362,42.744744 54.5324849,42.059664 54.5324849,41.214744 C54.5324849,40.369824 53.8476362,39.684744 53.0030016,39.684744 C52.1583669,39.684744 51.4735183,40.369824 51.4735183,41.214744" id="Fill-185" fill="#1A1A1A"></path>
                    <path d="M33.1197189,26.249616 C33.1197189,26.868456 29.3131049,28.344816 23.3999426,28.344816 C17.4871402,28.344816 11.7069529,26.868456 11.7069529,26.249616 C11.7069529,25.630776 16.5003536,25.128936 22.4133359,25.128936 C28.3263183,25.128936 33.1197189,25.630776 33.1197189,26.249616" id="Fill-187" fill="#1A1A1A"></path>
                    <path d="M21.8213359,25.129008 C23.8154222,25.129008 25.6356873,25.206408 27.0275171,25.333848 L28.0279791,8.497368 L12.6527134,9.234108 L14.3606964,25.680888 C15.4478891,25.359408 18.3767596,25.129008 21.8213359,25.129008" id="Fill-189" fill="#BF2720"></path>
                    <path d="M26.2124464,12.314556 C26.2124464,13.094856 25.5938154,13.727556 24.8308732,13.727556 C24.0679309,13.727556 23.4494799,13.094856 23.4494799,12.314556 C23.4494799,11.534076 24.0679309,10.901376 24.8308732,10.901376 C25.5938154,10.901376 26.2124464,11.534076 26.2124464,12.314556" id="Fill-191" fill="#FBB03B"></path>
                    <g id="Group-195" transform="translate(22.852280, 0.000000)">
                        <mask id="mask-4" fill="white">
                            <use xlink:href="#path-3"></use>
                        </mask>
                        <g id="Clip-194"></g>
                        <path d="M1.97864754,12.363246 C1.75552292,12.138426 1.5764834,11.889486 1.41165909,11.635146 C1.24449556,11.380266 1.10558249,11.115126 0.972787356,10.845126 C0.71907307,10.303506 0.521499818,9.737226 0.386005593,9.155646 C0.111598298,7.993026 0.0736311246,6.764526 0.280561216,5.553126 C0.380067599,4.947606 0.558927173,4.348206 0.796626869,3.772566 C1.03198736,3.196566 1.34778067,2.647026 1.72889191,2.150766 C2.4887752,1.159326 3.52864389,0.370746 4.74143416,0.084726 C4.52748644,0.682326 4.2923059,1.181646 4.11812474,1.697886 C4.06684207,1.820286 4.02491623,1.947186 3.98460985,2.073366 C3.9453831,2.200086 3.89140134,2.314206 3.85739283,2.440566 C3.82230468,2.566026 3.78181836,2.686086 3.74295149,2.805606 C3.70174541,2.924046 3.67475453,3.049506 3.63660742,3.167046 C3.35644207,4.121226 3.15706942,5.057766 2.98450772,6.025266 C2.81482505,6.992766 2.67987064,7.987626 2.53609921,9.031626 C2.382791,10.080666 2.24441775,11.155086 1.97864754,12.363246" id="Fill-193" fill="#F2F2F2" mask="url(#mask-4)"></path>
                    </g>
                    <path d="M26.9529323,26.587458 L27.0274271,25.333758 C25.6359572,25.206318 23.8153323,25.128918 21.821246,25.128918 C18.3768496,25.128918 15.4479791,25.359498 14.3607864,25.680978 L14.4199864,26.250498 C15.5512642,26.563158 18.4376691,26.785638 21.821246,26.785638 C23.7798843,26.785638 25.5709991,26.710938 26.9529323,26.587458" id="Fill-196" fill="#BF2720"></path>
                    <path d="M21.8213359,27.175446 C18.4683487,27.175446 15.5214843,26.959806 14.3133724,26.625906 L13.9333408,26.520786 L14.1462089,25.770186 L14.5262405,25.875126 C15.6531998,26.186706 18.5849493,26.395866 21.8213359,26.395866 C23.6892849,26.395866 25.4991134,26.326026 26.9173943,26.199306 L27.3105615,26.164206 L27.3816374,26.940546 L26.9886502,26.975826 C25.5473371,27.104346 23.7123171,27.175446 21.8213359,27.175446" id="Fill-198" fill="#FFFFFF"></path>
                </g>
            </g>
        </g>
    </g>
</svg>