<?xml version="1.0" encoding="UTF-8"?>
<svg width="120px" height="120px" viewBox="0 0 120 120" version="1.1" xmlns="http://www.w3.org/2000/svg" xmlns:xlink="http://www.w3.org/1999/xlink">
    <!-- Generator: Sketch 51.1 (57501) - http://www.bohemiancoding.com/sketch -->
    <title>Duck1</title>
    <desc>Created with Sketch.</desc>
    <defs>
        <polygon id="path-1" points="0.51 1.46942291 19.5062436 1.46942291 19.5062436 22.2318841 0.51 22.2318841"></polygon>
        <polygon id="path-3" points="0.979639772 1.66226087 90.1510286 1.66226087 90.1510286 97.3984247 0.979639772 97.3984247"></polygon>
        <polygon id="path-5" points="0 0.532422794 22.3634838 0.532422794 22.3634838 14.5958028 0 14.5958028"></polygon>
    </defs>
    <g id="Duck1" stroke="none" stroke-width="1" fill="none" fill-rule="evenodd">
        <g id="-鸭子----Duck1" transform="translate(60.000000, 60.500000) scale(-1, 1) translate(-60.000000, -60.500000) translate(0.000000, 2.000000)">
            <path d="M102.701829,46.6110261 C104.328686,45.2959246 106.265829,43.9004464 108.317829,44.321142 C110.551543,44.7760406 111.832114,47.3309971 111.658971,49.6003594 C111.485829,51.8680116 110.244686,53.8996638 109.039543,55.825287 C112.870971,56.0527362 121.584686,58.067287 119.272114,63.7603594 C118.018971,66.8437507 112.507543,67.7501275 109.704686,68.4410261 C103.869257,69.867287 98.9835429,71.1909391 93.7052571,68.239229 C90.7206857,66.5718377 86.6201143,65.2345043 88.5984,61.0856928 C91.6978286,54.5614899 97.0669714,51.1719826 102.701829,46.6110261" id="Fill-1" fill="#E1B808"></path>
            <path d="M67.1321143,109.024646 C66.8029714,107.832675 66.4738286,106.82369 66.4104,106.642414 C65.5344,104.164414 65.1572571,101.653922 65.2258286,99.025429 C65.2584,97.479458 65.7195429,95.4289942 65.0544,93.975371 C64.5589714,92.8757478 62.9338286,92.4362406 61.8195429,92.677371 C59.8018286,93.1117478 60.4035429,95.0835449 60.5441143,96.6038638 C60.8509714,100.068617 61.1304,103.471806 61.2624,106.963922 C55.9172571,106.324328 51.4566857,107.427371 49.0189714,112.662125 C51.9606857,113.489835 55.0686857,113.236733 58.0978286,113.265806 C61.4046857,113.301719 64.7115429,113.341052 68.0115429,113.375255 C68.0646857,111.856646 67.5298286,110.464588 67.1321143,109.024646" id="Fill-3" fill="#E78874"></path>
            <g id="Group-7" transform="translate(56.571429, 94.105855)">
                <mask id="mask-2" fill="white">
                    <use xlink:href="#path-1"></use>
                </mask>
                <g id="Clip-6"></g>
                <path d="M18.6231429,17.8848667 C18.2905714,16.6928957 17.9648571,15.6839101 17.898,15.5026348 C17.0288571,13.0229246 16.6517143,10.5124319 16.7134286,7.88393913 C16.7528571,6.33967826 17.2071429,4.28750435 16.5488571,2.83046087 C16.0482857,1.73425797 14.4248571,1.29646087 13.314,1.53075072 C11.2894286,1.96341739 11.8945714,3.94205507 12.0317143,5.46237391 C12.342,8.92883768 12.6197143,12.3303159 12.75,15.8190116 C7.40485714,15.1845478 2.95114286,16.2875913 0.51,21.5223449 C3.45171429,22.3500551 6.55628571,22.0952435 9.58885714,22.1260261 C12.8957143,22.160229 16.1991429,22.196142 19.5025714,22.2320551 C19.5557143,20.7168667 19.0208571,19.3248087 18.6231429,17.8848667" id="Fill-5" fill="#F7B9AE" mask="url(#mask-2)"></path>
            </g>
            <g id="Group-10" transform="translate(13.714286, 0.047884)">
                <mask id="mask-4" fill="white">
                    <use xlink:href="#path-3"></use>
                </mask>
                <g id="Clip-9"></g>
                <path d="M90.1510286,73.4661159 C90.1510286,67.7354203 90.1047429,61.5207536 86.1584571,56.7922029 C82.4538857,52.3441159 74.7721714,52.7613913 69.2058857,51.7831884 C64.2344571,50.9110145 59.1618857,50.0063478 54.7493143,47.5591304 C46.7178857,43.0990725 42.2264571,34.361942 38.1876,26.1190435 C34.9973143,19.6016812 33.2453143,11.0047826 27.6190286,6.21295652 C21.2590286,0.796927536 13.6870286,-0.0991884058 6.90874286,5.23475362 C-0.747257143,11.2527536 -1.60097143,24.0822609 7.97502857,28.6432174 C11.1121714,30.1413043 14.7876,30.5825217 17.5184571,32.7355942 C20.7618857,35.3042319 21.9070286,39.7831014 21.7338857,43.9096812 C21.5556,48.0396812 20.2784571,52.0345797 19.5824571,56.1115652 C16.7898857,72.4246377 22.8207429,87.4123478 38.5733143,93.9707536 C54.0036,100.397478 76.4230286,98.2854493 86.4001714,83.3712754 C88.4727429,80.2707826 89.6984571,76.8864058 90.1510286,73.4661159" id="Fill-8" fill="#F8D134" mask="url(#mask-4)"></path>
            </g>
            <path d="M30.8273143,16.2667275 C30.8273143,18.337713 29.1421714,20.0153652 27.0661714,20.0153652 C24.9884571,20.0153652 23.3067429,18.337713 23.3067429,16.2667275 C23.3067429,14.1991623 24.9884571,12.5198 27.0661714,12.5198 C29.1421714,12.5198 30.8273143,14.1991623 30.8273143,16.2667275" id="Fill-11" fill="#040000"></path>
            <path d="M32.622,25.9189565 C32.622,28.6774203 34.8625714,30.9091594 37.6225714,30.9091594 C40.3808571,30.9091594 42.6214286,28.6774203 42.6214286,25.9189565 C42.6214286,23.1656232 40.3808571,20.9304638 37.6225714,20.9304638 C34.8625714,20.9304638 32.622,23.1656232 32.622,25.9189565" id="Fill-15" fill="#E89E9E"></path>
            <path d="M101.298857,61.9421333 C100.726286,63.7018725 100.409143,64.934887 98.8988571,66.0550319 C98.0434286,66.6929159 95.2165714,68.9229449 94.0971429,68.6578725 C95.4205714,68.9691188 96.7474286,69.2854957 98.0742857,69.6035826 C95.8165714,70.7596406 93.5434286,71.920829 91.1125714,72.652771 C88.6817143,73.3778725 86.0554286,73.6617565 83.6005714,73.0221623 C84.4302857,73.8652638 85.4468571,74.5099884 86.5594286,74.9101623 C80.5902857,76.6870029 75.0034286,77.324887 68.9091429,75.7840464 C63.6702857,74.4621043 58.6851429,71.7446841 55.7365714,67.0913797 C52.0902857,61.336742 54.2794286,53.0203072 59.952,49.358887 C60.696,48.8766261 61.5137143,48.5739304 62.3314286,48.3259594 C76.548,44.0215246 88.0748571,52.144713 99,59.978887 C99.3034286,60.1994957 101.405143,61.3965971 101.298857,61.9421333" id="Fill-17" fill="#E1B808"></path>
            <g id="Group-21" transform="translate(0.000000, 17.149333)">
                <mask id="mask-6" fill="white">
                    <use xlink:href="#path-5"></use>
                </mask>
                <g id="Clip-20"></g>
                <path d="M22.0834286,11.0249623 C22.8394286,9.63632464 21.8691429,8.55209275 21.468,7.31052754 C20.976,5.81244058 20.976,4.3211942 20.136,2.91032464 C18.7165714,0.536643478 15.3668571,-0.580081159 13.5548571,2.04841159 C11.1514286,5.52684638 8.34514286,8.05615072 4.03371429,9.01725217 C3.14057143,9.21733913 2.21828571,9.34388986 1.41428571,9.77142609 C0.608571429,10.1972522 -0.0668571429,11.021542 0.00514285714,11.9313391 C0.111428571,13.3285275 1.76742857,13.9971942 3.15428571,14.2246435 C7.47771429,14.9480348 11.9074286,14.4931362 16.2531429,13.8877449 C18.0154286,13.6397739 21.1611429,12.7197159 22.0834286,11.0249623" id="Fill-19" fill="#EAA250" mask="url(#mask-6)"></path>
            </g>
        </g>
    </g>
</svg>