<?xml version="1.0" encoding="UTF-8"?>
<svg width="120px" height="120px" viewBox="0 0 120 120" version="1.1" xmlns="http://www.w3.org/2000/svg" xmlns:xlink="http://www.w3.org/1999/xlink">
    <!-- Generator: Sketch 51.1 (57501) - http://www.bohemiancoding.com/sketch -->
    <title>Cat19</title>
    <desc>Created with Sketch.</desc>
    <defs>
        <polygon id="path-1" points="0.0340148148 0.127034483 60.9020741 0.127034483 60.9020741 24.8272948 0.0340148148 24.8272948"></polygon>
        <polygon id="path-3" points="0.954359777 0.155172414 13.3478074 0.155172414 13.3478074 18.1538276 0.954359777 18.1538276"></polygon>
        <polygon id="path-5" points="0.599511111 0.155172414 12.993338 0.155172414 12.993338 18.1538276 0.599511111 18.1538276"></polygon>
        <polygon id="path-7" points="0 0.700382996 57.6993926 0.700382996 57.6993926 59.9146552 0 59.9146552"></polygon>
    </defs>
    <g id="Cat19" stroke="none" stroke-width="1" fill="none" fill-rule="evenodd">
        <g id="Group" transform="translate(18.000000, 0.000000)">
            <g id="Group-3" transform="translate(22.814815, 95.017241)">
                <mask id="mask-2" fill="white">
                    <use xlink:href="#path-1"></use>
                </mask>
                <g id="Clip-2"></g>
                <path d="M60.8894222,13.6518621 C60.6851259,18.4218621 57.9079407,23.0366897 52.3131259,24.7135862 C49.2891259,25.6187586 47.9223111,20.8508276 50.9805333,19.9197931 C54.1383111,18.963931 55.7851259,16.3715172 55.8971259,13.6518621 C56.0568296,9.77255172 53.0670519,5.64703448 46.7680889,5.64082759 C31.2633481,5.6222069 15.7596444,5.60462069 0.254903704,5.58806897 C0.178162963,3.76737931 0.103496296,1.94772414 0.0340148148,0.127034483 C15.5823111,0.142551724 31.1378667,0.159103448 46.6830519,0.175655172 C56.1947556,-0.417103448 61.1932741,6.7922069 60.8894222,13.6518621" id="Fill-1" fill="#64696D" mask="url(#mask-2)"></path>
            </g>
            <g id="Group-6" transform="translate(9.333333, 0.879310)">
                <mask id="mask-4" fill="white">
                    <use xlink:href="#path-3"></use>
                </mask>
                <g id="Clip-5"></g>
                <path d="M13.3478074,13.1386552 L13.2907704,0.154862069 C13.2907704,0.154862069 -0.822266667,4.78831034 1.14188148,18.1538276 L13.3478074,13.1386552 Z" id="Fill-4" fill="#64696D" mask="url(#mask-4)"></path>
            </g>
            <g id="Group-9" transform="translate(33.185185, 0.879310)">
                <mask id="mask-6" fill="white">
                    <use xlink:href="#path-5"></use>
                </mask>
                <g id="Clip-8"></g>
                <path d="M0.599511111,13.1386552 L0.658622222,0.154862069 C0.658622222,0.154862069 14.7716593,4.78831034 12.805437,18.1538276 L0.599511111,13.1386552 Z" id="Fill-7" fill="#64696D" mask="url(#mask-6)"></path>
            </g>
            <path d="M49.9964889,32.7618621 C49.7289333,21.3784138 40.4121926,12.2273793 28.9353037,12.2273793 C17.4594519,12.2273793 8.14478519,21.3784138 7.87515556,32.7618621 L4.46434074,32.7618621 C4.66448889,44.9191034 15.3998963,54.7187586 28.6179704,54.7187586 C41.8381185,54.7187586 52.5704148,44.9191034 52.7736741,32.7618621 L49.9964889,32.7618621 Z" id="Fill-10" fill="#64696D"></path>
            <path d="M29.0289481,23.9445517 C29.0289481,29.4666207 24.5406519,33.9438621 19.0028741,33.9438621 C13.4671704,33.9438621 8.98094815,29.4666207 8.98094815,23.9445517 C8.98094815,18.4224828 13.4671704,13.9452414 19.0028741,13.9452414 C24.5406519,13.9452414 29.0289481,18.4224828 29.0289481,23.9445517" id="Fill-12" fill="#64696D"></path>
            <path d="M27.5786519,23.9445517 C27.5786519,28.668 23.7385037,32.4976552 19.0023556,32.4976552 C14.2672444,32.4976552 10.4291704,28.668 10.4291704,23.9445517 C10.4291704,19.2211034 14.2672444,15.3893793 19.0023556,15.3893793 C23.7385037,15.3893793 27.5786519,19.2211034 27.5786519,23.9445517" id="Fill-14" fill="#FCEF9A"></path>
            <path d="M22.3246074,23.9445517 C22.3246074,25.7755862 20.8374963,27.258 19.0029778,27.258 C17.1694963,27.258 15.6834222,25.7755862 15.6834222,23.9445517 C15.6834222,22.1135172 17.1694963,20.6311034 19.0029778,20.6311034 C20.8374963,20.6311034 22.3246074,22.1135172 22.3246074,23.9445517" id="Fill-16" fill="#171B1F"></path>
            <path d="M21.5995111,22.4978276 C21.5995111,23.1298966 21.0872148,23.643 20.4535852,23.643 C19.8189185,23.643 19.3066222,23.1298966 19.3066222,22.4978276 C19.3066222,21.8678276 19.8189185,21.3547241 20.4535852,21.3547241 C21.0872148,21.3547241 21.5995111,21.8678276 21.5995111,22.4978276" id="Fill-18" fill="#CFD1D0"></path>
            <path d="M48.0358667,23.9445517 C48.0358667,29.4666207 43.5475704,33.9438621 38.0118667,33.9438621 C32.476163,33.9438621 27.9878667,29.4666207 27.9878667,23.9445517 C27.9878667,18.4224828 32.476163,13.9452414 38.0118667,13.9452414 C43.5475704,13.9452414 48.0358667,18.4224828 48.0358667,23.9445517" id="Fill-20" fill="#64696D"></path>
            <path d="M46.5856741,23.9445517 C46.5856741,28.668 42.7476,32.4976552 38.0114519,32.4976552 C33.2763407,32.4976552 29.4361926,28.668 29.4361926,23.9445517 C29.4361926,19.2211034 33.2763407,15.3893793 38.0114519,15.3893793 C42.7476,15.3893793 46.5856741,19.2211034 46.5856741,23.9445517" id="Fill-22" fill="#FCEF9A"></path>
            <path d="M41.3316296,23.9445517 C41.3316296,25.7755862 39.8445185,27.258 38.0120741,27.258 C36.1765185,27.258 34.6904444,25.7755862 34.6904444,23.9445517 C34.6904444,22.1135172 36.1765185,20.6311034 38.0120741,20.6311034 C39.8445185,20.6311034 41.3316296,22.1135172 41.3316296,23.9445517" id="Fill-24" fill="#171B1F"></path>
            <path d="M40.6085037,22.4978276 C40.6085037,23.1298966 40.0941333,23.643 39.4605037,23.643 C38.825837,23.643 38.3135407,23.1298966 38.3135407,22.4978276 C38.3135407,21.8678276 38.825837,21.3547241 39.4605037,21.3547241 C40.0941333,21.3547241 40.6085037,21.8678276 40.6085037,22.4978276" id="Fill-26" fill="#CFD1D0"></path>
            <path d="M27.1675704,38.0656552 C26.6449037,40.898069 24.162237,43.0456552 21.1703852,43.0456552 C18.1806074,43.0456552 15.6969037,40.898069 15.1752741,38.0656552 L13.9214963,38.0656552 C14.4576444,41.5849655 17.4940889,44.2828966 21.1703852,44.2828966 C24.8487556,44.2828966 27.884163,41.5849655 28.4213481,38.0656552 L27.1675704,38.0656552 Z" id="Fill-28" fill="#393B3F"></path>
            <g id="Group-32" transform="translate(0.000000, 52.603448)">
                <mask id="mask-8" fill="white">
                    <use xlink:href="#path-7"></use>
                </mask>
                <g id="Clip-31"></g>
                <path d="M57.6993926,59.9146552 C57.2420593,55.6236207 52.4592444,52.1394828 46.259837,51.4143103 C49.115837,47.0043103 50.8715407,41.2598276 50.8715407,34.3856897 C50.8715407,17.6539655 36.4339111,0.942931034 28.9361333,0.702931034 C21.3688741,0.459827586 7.00176296,17.6539655 7.00176296,34.3856897 C7.00176296,41.2515517 8.75435556,46.9918966 11.6020593,51.3987931 C5.3228,52.0815517 0.462207407,55.5843103 -0.000311111111,59.9146552 L57.6993926,59.9146552 Z" id="Fill-30" fill="#64696D" mask="url(#mask-8)"></path>
            </g>
            <path d="M31.5526815,34.4893448 C31.5526815,36.3607241 30.0313481,37.8772759 28.1563852,37.8772759 C26.2803852,37.8772759 24.7590519,36.3607241 24.7590519,34.4893448 C24.7590519,32.6179655 26.2803852,31.1014138 28.1563852,31.1014138 C30.0313481,31.1014138 31.5526815,32.6179655 31.5526815,34.4893448" id="Fill-33" fill="#D278B1"></path>
            <path d="M40.999363,38.0656552 C40.4766963,40.898069 37.9940296,43.0456552 35.0042519,43.0456552 C32.0124,43.0456552 29.5286963,40.898069 29.0070667,38.0656552 L27.7532889,38.0656552 C28.289437,41.5849655 31.3258815,44.2828966 35.0042519,44.2828966 C38.6805481,44.2828966 41.7159556,41.5849655 42.2531407,38.0656552 L40.999363,38.0656552 Z" id="Fill-35" fill="#393B3F"></path>
            <path d="M44.0781185,85.9387241 C44.0781185,97.4897586 36.9744148,104.512862 28.9353037,104.512862 C20.8961926,104.512862 13.7935259,97.4897586 13.7935259,85.9387241 C13.7935259,74.3897586 23.7117481,62.519069 28.9353037,62.6866552 C34.1132296,62.8532069 44.0781185,74.3897586 44.0781185,85.9387241" id="Fill-37" fill="#898E91"></path>
            <path d="M23.4872296,108.561931 L23.4872296,64.524 C23.4872296,62.3008966 21.6807111,60.4988276 19.4521185,60.4988276 C17.226637,60.4988276 15.4201185,62.3008966 15.4201185,64.524 L15.4201185,108.368483 C12.3670815,109.740207 10.1861926,112.693655 9.93522963,116.187103 L28.5469333,116.187103 C28.3073778,112.855034 26.3173037,110.008138 23.4872296,108.561931" id="Fill-39" fill="#505457"></path>
            <path d="M41.3174222,108.561931 L41.3174222,64.524 C41.3174222,62.3008966 39.5129778,60.4988276 37.2843852,60.4988276 C35.0568296,60.4988276 33.2503111,62.3008966 33.2503111,64.524 L33.2503111,108.368483 C30.1993481,109.740207 28.0163852,112.693655 27.7654222,116.187103 L46.3771259,116.187103 C46.1396444,112.855034 44.1474963,110.008138 41.3174222,108.561931" id="Fill-41" fill="#505457"></path>
            <path d="M20.4268296,12.0217241 L20.3967556,5.54172414 C20.3967556,5.54172414 13.3563111,7.8537931 14.3363111,14.5231034 L20.4268296,12.0217241 Z" id="Fill-43" fill="#D278B1"></path>
            <path d="M36.3185926,12.0217241 L36.3465926,5.54172414 C36.3465926,5.54172414 43.3891111,7.8537931 42.4091111,14.5231034 L36.3185926,12.0217241 Z" id="Fill-45" fill="#D278B1"></path>
            <path d="M83.704237,108.669103 C83.4999407,113.439103 80.7227556,118.053931 75.1279407,119.730828 C72.1039407,120.636 70.7371259,115.868069 73.7953481,114.937034 C76.9531259,113.981172 78.5999407,111.388759 78.7119407,108.669103 L83.704237,108.669103 Z" id="Fill-47" fill="#9BA0A3"></path>
        </g>
    </g>
</svg>