<?xml version="1.0" encoding="UTF-8"?>
<svg width="120px" height="120px" viewBox="0 0 120 120" version="1.1" xmlns="http://www.w3.org/2000/svg" xmlns:xlink="http://www.w3.org/1999/xlink">
    <!-- Generator: Sketch 51.1 (57501) - http://www.bohemiancoding.com/sketch -->
    <title>Hedgehog4</title>
    <desc>Created with Sketch.</desc>
    <defs>
        <polygon id="path-1" points="0.421655172 0.0345238095 64.812 0.0345238095 64.812 46.952381 0.421655172 46.952381"></polygon>
        <polygon id="path-3" points="0.260551724 0.0676666667 106.697793 0.0676666667 106.697793 69.6302429 0.260551724 69.6302429"></polygon>
    </defs>
    <g id="Hedgehog4" stroke="none" stroke-width="1" fill="none" fill-rule="evenodd">
        <g id="Group" transform="translate(60.500000, 60.000000) scale(-1, 1) translate(-60.500000, -60.000000) translate(0.000000, 17.000000)">
            <g id="Group-3" transform="translate(28.965517, 38.979400)">
                <mask id="mask-2" fill="white">
                    <use xlink:href="#path-1"></use>
                </mask>
                <g id="Clip-2"></g>
                <path d="M64.812,19.4203333 C64.812,8.71380952 50.3982069,0.0345238095 32.6188966,0.0345238095 C14.8368276,0.0345238095 0.421655172,8.71380952 0.421655172,19.4203333 C0.421655172,25.2645238 4.72234483,30.5010952 11.5126897,34.0570476 C11.5016552,34.0957143 11.492,34.1357619 11.4795862,34.1758095 C9.50717241,41.1827619 7.59958621,46.4911429 8.892,46.9289048 C9.98165517,47.2948571 14.9485517,43.3757143 18.6837241,37.1462381 C18.7251034,37.0758095 18.7582069,37.005381 18.7995862,36.9377143 C22.9871724,38.1377619 27.6713103,38.8102857 32.6188966,38.8102857 C39.2451034,38.8102857 45.4023448,37.6033333 50.5223448,35.5360476 C48.7002759,41.8594286 47.114069,46.5201429 48.3209655,46.9289048 C49.4106207,47.2948571 54.3788966,43.3757143 58.114069,37.1462381 C59.6961379,34.5707619 60.2768276,31.8254286 60.212,29.4101429 C63.1306207,26.4921905 64.812,23.0743333 64.812,19.4203333" id="Fill-1" fill="#E7D6B7" mask="url(#mask-2)"></path>
            </g>
            <g id="Group-6" transform="translate(12.413793, 0.312733)">
                <mask id="mask-4" fill="white">
                    <use xlink:href="#path-3"></use>
                </mask>
                <g id="Clip-5"></g>
                <path d="M106.697793,34.8481952 C102.819172,37.086719 99.0536552,39.319719 95.3998621,41.5499571 C96.8688276,46.021481 98.7915862,50.4571 101.166759,54.7877667 C96.4991724,54.0116714 91.8453793,53.2328143 87.2067586,52.4511952 C87.3005517,56.8440048 87.8508966,61.1401476 88.8605517,65.2678143 C83.8743448,63.0859095 79.0177931,60.8556714 74.2867586,58.5895286 C73.4177931,62.3871476 72.9074483,66.0853381 72.7598621,69.6302429 C67.7957241,66.6846714 63.0798621,63.6313857 58.6136552,60.5049095 C56.7598621,63.6313857 55.1543448,66.6846714 53.7957241,69.6302429 C49.3074483,66.0853381 45.1791724,62.3871476 41.4108966,58.5895286 C38.4108966,60.8556714 35.5364138,63.0859095 32.7915862,65.2678143 C29.5612414,61.1387667 26.7902069,56.8426238 24.4784828,52.4498143 C20.2674483,53.2314333 16.0702069,54.0102905 11.8895172,54.7850048 C11.5502069,50.455719 11.666069,46.018719 12.2315862,41.5471952 C8.12951724,39.319719 4.13917241,37.0839571 0.260551724,34.8481952 C4.13917241,32.6110524 8.13089655,30.3766714 12.2329655,28.1491952 C11.666069,23.6762905 11.5529655,19.2392905 11.8922759,14.9100048 C16.0729655,15.684719 20.2702069,16.4635762 24.4798621,17.2465762 C26.7929655,12.8537667 29.564,8.55762381 32.7929655,4.42857619 C35.5377931,6.61048095 38.4108966,8.8421 41.4108966,11.1082429 C45.1777931,7.31062381 49.3074483,3.61105238 53.7957241,0.0675285714 C55.1515862,3.01171905 56.7584828,6.06362381 58.6136552,9.1928619 C63.0798621,6.06362381 67.7943448,3.01171905 72.7584828,0.0675285714 C72.9074483,3.61105238 73.4177931,7.31062381 74.2881379,11.1082429 C79.0177931,8.8421 83.8771034,6.61324286 88.8633103,4.42995714 C87.8536552,8.55762381 87.301931,12.8537667 87.2095172,17.2465762 C91.8481379,16.4663381 96.5005517,15.687481 101.169517,14.9113857 C98.7929655,19.2420524 96.8702069,23.6790524 95.3998621,28.1505762 C99.0536552,30.3780524 102.819172,32.6138143 106.697793,34.8481952" id="Fill-4" fill="#A4A799" mask="url(#mask-4)"></path>
            </g>
            <path d="M35.3413793,45.0837619 C35.8268966,44.470619 36.2682759,43.7980952 36.6186207,43.0482381 C38.7482759,38.4938571 36.8848276,33.1260952 36.8848276,33.1260952 C36.8848276,33.1260952 31.5758621,35.1312381 29.4434483,39.688381 C29.1358621,40.3443333 28.9193103,41.021 28.7606897,41.6935238 C24.282069,39.8665238 20.3827586,39.0130952 20.3827586,39.0130952 L1.85172414,54.7421429 C1.85172414,54.7421429 9.55931034,68.1705238 20.3827586,70.4698095 C31.1524138,72.7842857 41.8903448,65.7814762 41.9055172,54.7421429 C41.9,50.6945714 39.0048276,47.5059524 35.3413793,45.0837619" id="Fill-7" fill="#E7D6B7"></path>
            <path d="M20.721931,61.7374952 C18.4543448,62.6793048 16.1936552,63.1874952 14.1564138,63.2979714 C14.1881379,63.3822095 14.2129655,63.4678286 14.2474483,63.5506857 C15.6902069,67.0306857 19.6184828,68.7016381 23.0226207,67.2875429 C26.4267586,65.8706857 28.0184828,61.9045905 26.5757241,58.4259714 C26.5398621,58.3431143 26.4971034,58.2644 26.4598621,58.1843048 C24.9426207,59.5500667 22.9881379,60.7929238 20.721931,61.7374952" id="Fill-9" fill="#D77822"></path>
            <path d="M20.6317241,50.6454095 C20.6317241,52.631219 19.5075862,54.2414095 18.1241379,54.2414095 C16.737931,54.2414095 15.6151724,52.631219 15.6151724,50.6454095 C15.6151724,48.6665048 16.737931,47.0563143 18.1241379,47.0563143 C19.5075862,47.0563143 20.6317241,48.6665048 20.6317241,50.6454095" id="Fill-11" fill="#685D4F"></path>
            <path d="M7.04193103,55.0565857 C7.04193103,56.9995857 5.46537931,58.5835381 3.52055172,58.5835381 C1.57296552,58.5835381 0.000551724138,56.9995857 0.000551724138,55.0565857 C0.000551724138,53.1053 1.57296552,51.5268714 3.52055172,51.5268714 C5.46537931,51.5268714 7.04193103,53.1053 7.04193103,55.0565857" id="Fill-13" fill="#685D4F"></path>
            <path d="M68.0158621,40.3124333 C71.0862069,43.1199095 72.4144828,46.674481 72.4144828,46.674481 C72.4144828,46.674481 68.7593103,45.6774333 65.6848276,42.8658143 C62.6075862,40.0541952 61.2862069,36.5023857 61.2862069,36.5023857 C61.2862069,36.5023857 64.94,37.4980524 68.0158621,40.3124333" id="Fill-15" fill="#685D4F"></path>
            <path d="M78.5188966,41.4763 C81.5906207,44.2851571 82.9175172,47.8383476 82.9175172,47.8383476 C82.9175172,47.8383476 79.2651034,46.842681 76.1878621,44.029681 C73.112,41.2180619 71.7906207,37.6676333 71.7906207,37.6676333 C71.7906207,37.6676333 75.4416552,38.664681 78.5188966,41.4763" id="Fill-17" fill="#685D4F"></path>
            <path d="M81.2714483,35.5155571 C85.0438621,37.2707476 87.3790345,40.2591286 87.3790345,40.2591286 C87.3790345,40.2591286 83.5955862,40.4096524 79.8162759,38.6517 C76.0383448,36.8978905 73.710069,33.9095095 73.710069,33.9095095 C73.710069,33.9095095 77.4935172,33.7603667 81.2714483,35.5155571" id="Fill-19" fill="#685D4F"></path>
        </g>
    </g>
</svg>